<?xml version="1.0" encoding="UTF-8"?>
<svg version="1.1" viewBox="0 0 1860 988" width="465" height="247" xmlns="http://www.w3.org/2000/svg">
<path transform="translate(1545,7)" d="m0 0h184l45 2 66 4 20 2v41h-10l-28-3-57-2-35-2h-212l-42 3-27 1-29 3-17 1-21 3-18 2-13 2-14 2-33 6-10 2-17 4-16 4-16 5-8 2-18 7-24 10-26 12-44 22-19 10-27 14-23 13-18 10-25 15-16 9-18 11-23 14-24 15-19 12-25 16-44 29-15 10-19 10-24 9-17 5-9 2-23 4-12 2-9 2-28 4-12 1-6 2-36 5-39 5-63 9-53 8-25 4-45 8-60 12-36 8-18 5-16 4-19 5-22 7-19 7-26 11-23 12-18 12-11 8-14 11-10 10h-2v2l-4 4h-2l-2 4-9 9-12 16-8 13-8 15-6 17-3 7-2 17v35l1 30v53l-1 11-2 7-1 13-3 7v11l5 5 15 8 10 3 3 2 11 1 8 3 14 1 10 3 22 2 9 2 27 2 18 2 43 2 33 2 47 1-2-14-2-2-3-21-1-4-1-15v-28l1-16 3-5v-11l4-10v-7l4-11 6-15 12-25 11-18 11-14 9-11 18-18 20-15 13-8 16-9 19-8 17-6 6-2 22-4 23-3h22l36 4 9 3 7 1 20 7 21 9 17 9 18 12 16 13 8 8 2 1v2h2l7 8 12 15 13 20 8 16 7 15 4 9 4 14 3 11 2 4 1 13 2 7v61l-3 23-3 7-1 7h95l372-3 516-1 72-1 37-1v43l-5 1h-252l-126 1-36 1-203 1-486 1-10 19-8 12-8 11-9 11-18 18-11 9-15 11-17 10-25 12-20 7-13 4-15 3h-72l-18-4-29-10-15-7-17-9-18-12-14-11-24-24-15-20-11-19-5-10v-2h-82l-70-4-23-3-24-2-32-5-22-4-27-7-18-7-11-6-13-12-7-11-4-10v-24l3-9 2-16 2-10v-119l1-18 3-7 1-9 3-6 6-17 8-16 11-18 10-13 15-16 16-16 8-7 18-14 23-16 24-14 17-9 32-13 22-7 13-4 22-6 35-9 28-6 20-4 28-6 36-6 19-3 24-4 36-5 19-3 21-3 46-6 19-3 18-3 16-2 20-3 17-3 16-2 14-3 14-1 13-3 13-2 6-2 11-1 15-5 15-6 15-8 22-14 33-22 19-12 23-15 19-12 17-10 13-8 28-17 27-16 27-15 14-8 25-14 25-13 19-10 38-19 31-14 24-9 20-7 9-2 14-4 15-4 9-2 8-2 20-4 8-2 14-2 11-2 26-4 21-2 11-2 32-2 16-2 32-2 9-1zm-1009 555-17 1-8 1-2 1v2l-12 1-12 4-21 9-17 10-16 12-12 11-6 5-7 8-10 12-9 15-7 12-6 15-3 9-3 7-2 10-2 4-2 17-2 13v28l3 13 1 12 2 5 3 13 4 12 8 19 6 11 15 22 11 12 7 8 12 11 15 11 17 10 18 8 16 5 5 2 22 4h48l12-3 10-2 12-3 10-4 17-8 19-12 10-8 12-11 11-11 9-11 11-16 10-17 8-17 2-8 3-9 3-7 1-19 3-3v-41l-1-9-3-5v-14l-3-4-1-10-3-3h-2l1-2v-6l-8-15-3-7-8-14-12-17-16-17-12-11-17-12-10-6-21-10-17-6-7-2-18-4-17-1z" fill="none" stroke="#ffffff" stroke-width="2"/>
<path transform="translate(601,986)" d="m0 0" fill="#FEFEFE"/>
<path transform="translate(597,986)" d="m0 0" fill="#FEFEFE"/>
</svg>



