<?xml version="1.0" encoding="UTF-8"?>
<svg version="1.1" viewBox="0 0 1544 988" width="386" height="247" xmlns="http://www.w3.org/2000/svg">
<path transform="translate(1159,7)" d="m0 0h197l41 2 52 4 44 4 26 3 8 1 17 3v40h-13l-16-3-28-3-21-2-30-3-76-4h-206l-53 3-32 1-42 3-22 1-30 3-22 2-35 4-20 3-31 5-24 5-30 7-15 4-19 6-17 5-47 16-11 4-33 13-37 15-23 10-26 11-24 11-29 13-16 8-29 14-64 32-20 11-28 12-16 5-9 2-13 3-12 3-43 8-52 8-35 4-27 2-26 3-6 1-14 4-9 7-4 8-4 16-2 43-2 14-1 42-2 19-2 17-9 22-9 14-10 14-8 15-7 19-1 7v30l1 12 3 11 2 11 4 14 6 20 11 28 10 22 7 11 5 6 12 9 12 6 9 2 3 2 9 2 4 2 13 2 6 2 10 2 6 2 13 2 7 2 20 4 21 4 9 1 5 2 21 3 12 2 23 4 22 2 9 2 24 2 9 2 14 1h21l-1-14-3-19v-31l1-13 3-8 1-13 3-6v-11l4-5 6-18 14-28 12-19 7-8 8-11h2l2-4 12-12 11-9 13-10 16-10 12-7 24-10 20-7 9-1 6-2 19-3 19-2h10l20 2 9 2 14 2 5 2 8 1 24 9 18 8 17 9 18 13 14 11 19 19 11 14 10 14 14 27 9 21 5 14 4 14v8l2 5 1 1 1 27v37l-1 8-2 3-1 13-4 10h103l173 2h408v45l-120-2-118-1-407-1-54-1-1 6-11 20-8 12-10 14-12 13-16 16-13 10-17 11-18 10-19 8-30 10-15 3h-71l-5-2-16-3-23-8-24-11-17-10-14-10-16-13-14-14-11-14-8-10-12-19-10-21-4-8v-2l-10 1-24-2-35-3-51-7-61-10-70-14-25-6-23-6-24-8-16-8-13-9-7-6-13-17-9-16-10-24-7-18-4-11-6-21-2-4-3-12-5-19-3-30 1-21 2-17 8-24 8-15 10-16 6-9 9-16 2-5 1-11 2-5 2-50 2-21 2-44 2-7 2-12 9-19 11-13 10-8 15-7 17-5 27-2 15-2 19-1 9-2 25-2 8-2 22-2 7-2 18-2 7-2 19-3 7-2 14-2 5-2 11-2 4-2 9-2 16-7 18-8 19-10 41-21 40-20 28-13 38-18 18-8 22-10 39-16 37-15 24-9 20-7 21-7 38-12 26-7 6-2 10-2 9-2 17-4 13-2 2-1 16-2 7-2 24-3 15-2 20-2 16-2 34-3 23-2 23-1 24-2 69-4zm-528 555-11 1h-10l-6 2-7 2-10 2-5 2-9 3-9 4-19 10-19 13-13 11-16 16-9 13-7 11-8 14-6 13-4 10-2 6-2 7v9h-2l-2 7-1 14-2 9v26l2 6 1 17 2 5 2 2 1 13 3 7 2 6 8 18 11 20 13 18 14 15 9 9 13 10 17 11 16 8 9 4 11 4 8 2 9 2 11 2 4 1h44l6-2 16-2 4-2 12-3 13-5 16-8 15-9 9-7 10-9 8-7 10-11 11-14 12-19 7-14 9-24 3-12 1-3 1-14 2-5 1-6v-37l-2-9-1-1-1-15-3-6-2-10-2-3-2-8-7-16-11-19-10-14-11-12-11-11-11-9-16-11-16-9-24-10-11-4-8-1-8-3-23-1z" fill="none" stroke="#ffffff" stroke-width="2"/>
<path transform="translate(693,986)" d="m0 0" fill="#FEFEFE"/>
</svg>



