<svg width="48" height="48" viewBox="0 0 32 32" xmlns="http://www.w3.org/2000/svg"><path d="M30.0001 23V11L28.2366 11L24.7725 13H22.0001L22.0001 26H8.4179C7.14923 24.6987 6.60162 23.8922 6.32382 23.0588C6.01133 22.1213 6.00012 21.0567 6.00012 19C6.00012 16.9433 6.01133 15.8787 6.32382 14.9412C6.42669 14.6326 6.56655 14.3277 6.76631 14H4.53844C4.49846 14.1018 4.46116 14.2046 4.42645 14.3088C3.99965 15.5892 3.99985 16.9865 4.00011 18.8581V19.1419C3.99985 21.0135 3.99965 22.4108 4.42645 23.6912C4.87839 25.047 5.76971 26.1838 7.29301 27.7071L7.58591 28H24.0001V21H24.7725L28.2366 23H30.0001ZM28.0001 20.5541L25.3084 19H24.0001V15H25.3084L28.0001 13.4459V20.5541Z" fill="#000000" class="bmwfcol"/><path d="M4.8233 3.81712C4.09999 3.81712 2.93303 4.03407 2.37699 4.13899L2.21407 4.16973V6.0538L2.45255 6.00704C2.99986 5.89972 4.06143 5.69237 4.79146 5.69237C5.09464 5.69237 5.31515 5.70826 5.4787 5.74145C5.63917 5.77401 5.73199 5.82072 5.79247 5.87381C5.84934 5.92733 5.87664 5.97348 5.89257 6.02128C5.91023 6.07428 5.91812 6.14166 5.91812 6.24592C5.91812 6.44568 5.79361 6.66005 5.54302 6.99781L5.34764 7.26645H2.957V9.09925H4.5898C5.08178 9.09925 5.35913 9.10336 5.59599 9.21732C5.75844 9.29628 5.85833 9.38352 5.91943 9.47846C5.98012 9.57275 6.01364 9.6919 6.01364 9.85445C6.01364 10.1343 5.94139 10.33 5.76298 10.4705C5.5626 10.6198 5.21615 10.7052 4.64287 10.7052C3.80369 10.7052 3.04564 10.5707 2.3867 10.4538L2.15039 10.4118V12.3027L2.31397 12.333C2.88923 12.4395 3.65778 12.5804 4.67471 12.5804C5.9122 12.5804 6.77338 12.2981 7.35725 11.6681C7.79356 11.2076 8.00565 10.5168 8.00565 9.85445C8.00565 9.22341 7.84645 8.70688 7.46957 8.2706C7.34307 8.12049 7.22615 8.00749 7.10486 7.91012C7.1963 7.77702 7.31128 7.60454 7.41169 7.44675C7.67929 7.02929 7.8889 6.67922 7.8889 6.11856C7.8889 5.50815 7.66941 4.92159 7.2094 4.49674C6.67535 3.99854 5.92123 3.81712 4.8233 3.81712Z" fill="#000000" class="bmwfcol"/><path d="M18.8938 3.81712C17.8796 3.81712 17.023 4.10551 16.4523 4.86254C16.1578 5.25716 16.0099 5.76092 15.9335 6.32246C15.8572 6.88435 15.8495 7.52612 15.8495 8.20939C15.8495 8.97081 15.857 9.64026 15.9544 10.2193C16.0526 10.8032 16.2442 11.3087 16.6208 11.7375C17.1966 12.3954 18.0105 12.5804 18.8938 12.5804C19.7843 12.5804 20.6407 12.3386 21.1928 11.6577C21.9125 10.7778 21.9701 9.75011 21.9701 8.20939C21.9701 7.44686 21.9573 6.74457 21.8432 6.13737C21.7286 5.52662 21.5084 4.99404 21.0806 4.58386C20.5111 4.03762 19.7004 3.81712 18.8938 3.81712ZM18.0169 6.19614C18.1028 5.99277 18.2151 5.87406 18.3474 5.802C18.4845 5.72732 18.662 5.69237 18.8938 5.69237C19.2819 5.69237 19.5525 5.80751 19.7029 6.037C19.8266 6.22716 19.8985 6.47766 19.9368 6.83129C19.9752 7.18598 19.9781 7.62298 19.9781 8.17755C19.9781 8.7798 19.9725 9.23372 19.9266 9.59298C19.8811 9.94932 19.7981 10.1926 19.6568 10.3825C19.4951 10.6007 19.2167 10.7052 18.8938 10.7052C18.5556 10.7052 18.283 10.6091 18.1235 10.3869C17.9975 10.2037 17.9235 9.95581 17.884 9.6002C17.8444 9.2432 17.8415 8.80124 17.8415 8.24123C17.8415 7.77754 17.8416 7.36825 17.8649 7.01808C17.8884 6.66578 17.9345 6.39299 18.0169 6.19614Z" fill="#000000" class="bmwfcol"/><path d="M14.4845 5.71359V3.83597L14.2623 3.86081C12.5433 4.053 11.2001 4.42966 10.2625 5.19985C9.7953 5.58264 9.44417 6.04763 9.21251 6.70187C8.98289 7.35039 8.87336 8.17723 8.87336 9.28133C8.87336 10.3909 9.13402 11.2365 9.68331 11.7979C10.2585 12.3962 11.0253 12.5804 12.0026 12.5804C12.9926 12.5804 13.756 12.3262 14.3051 11.719C14.8042 11.1732 14.9939 10.4723 14.9939 9.75893C14.9939 8.94638 14.7703 8.27657 14.2913 7.7742C13.8246 7.28366 13.1664 7.04357 12.0345 7.04357C11.7646 7.04357 11.4713 7.04945 11.1848 7.06121C11.3261 6.75933 11.5791 6.52742 12.0178 6.30806C12.5809 6.02651 13.4662 5.82815 14.3069 5.73357L14.4845 5.71359ZM10.8654 9.47237C10.8654 9.20825 10.8654 9.03493 10.8732 8.8787C11.1274 8.86804 11.515 8.85515 11.8434 8.85515C12.4299 8.85515 12.646 8.91385 12.7936 9.06029C12.9613 9.23692 13.0019 9.42656 13.0019 9.75893C13.0019 10.0857 12.9532 10.3002 12.7604 10.5015C12.5832 10.6867 12.3434 10.7476 12.0026 10.7476C11.5929 10.7476 11.3102 10.6739 11.1363 10.4786C11.0359 10.3548 10.9711 10.2362 10.9294 10.0891C10.8862 9.9367 10.8654 9.74526 10.8654 9.47237Z" fill="#000000" class="bmwfcol"/><title>360-camera_rg_48</title></svg>