<svg width="48" height="48" viewBox="0 0 32 32" xmlns="http://www.w3.org/2000/svg"><path d="M7.30554 3.61713C6.58223 3.61713 5.41527 3.83408 4.85923 3.93899L4.69631 3.96973V5.8538L4.93479 5.80704C5.4821 5.69973 6.54367 5.49238 7.2737 5.49238C7.57688 5.49238 7.79739 5.50827 7.96094 5.54145C8.12141 5.57401 8.21422 5.62073 8.2747 5.67381C8.33158 5.72733 8.35887 5.77349 8.37481 5.82129C8.39247 5.87429 8.40036 5.94166 8.40036 6.04593C8.40036 6.24569 8.27641 6.45929 8.02582 6.79705L7.82988 7.06646H5.43924V8.89926H7.07204C7.56395 8.89926 7.84129 8.90336 8.07812 9.01728C8.24063 9.09625 8.34055 9.1835 8.40167 9.27846C8.46235 9.37276 8.49588 9.49191 8.49588 9.65446C8.49588 9.93432 8.42363 10.13 8.24522 10.2705C8.04484 10.4198 7.6984 10.5052 7.12511 10.5052C6.28593 10.5052 5.52787 10.3707 4.86893 10.2538L4.63263 10.2119V12.1027L4.79621 12.133C5.37147 12.2395 6.14001 12.3804 7.15695 12.3804C8.39441 12.3804 9.25558 12.0981 9.83945 11.4682C10.2758 11.0076 10.4879 10.3168 10.4879 9.65446C10.4879 9.02342 10.3287 8.50688 9.95181 8.0706C9.82531 7.9205 9.70838 7.8075 9.5871 7.71013C9.67855 7.57701 9.79354 7.40451 9.89396 7.24671C10.1615 6.82927 10.3711 6.47921 10.3711 5.91857C10.3711 5.30815 10.1516 4.72158 9.69162 4.29673C9.15757 3.79854 8.40346 3.61713 7.30554 3.61713Z" fill="#000000" class="bmwfcol"/><path d="M21.3761 3.61713C20.3618 3.61713 19.5052 3.90551 18.9345 4.66255C18.64 5.05717 18.4921 5.56093 18.4158 6.12247C18.3394 6.68436 18.3317 7.32613 18.3317 8.00939C18.3317 8.77082 18.3392 9.44026 18.4366 10.0193C18.5349 10.6032 18.7264 11.1087 19.103 11.5375C19.6788 12.1954 20.4927 12.3804 21.3761 12.3804C22.2665 12.3804 23.123 12.1387 23.6751 11.4576C24.3947 10.5778 24.4523 9.55011 24.4523 8.00939C24.4523 7.24687 24.4395 6.54458 24.3255 5.93738C24.2108 5.32664 23.9907 4.79407 23.5629 4.38388C22.9934 3.83763 22.1826 3.61713 21.3761 3.61713ZM20.4991 5.99604C20.585 5.79274 20.6974 5.67406 20.8297 5.602C20.9667 5.52732 21.1442 5.49238 21.3761 5.49238C21.7641 5.49238 22.0347 5.6075 22.1851 5.83697C22.3088 6.02713 22.3807 6.27764 22.419 6.63129C22.4574 6.98599 22.4603 7.42299 22.4603 7.97755C22.4603 8.5798 22.4547 9.03373 22.4088 9.39299C22.3633 9.74933 22.28 9.99295 22.1387 10.1828C21.9771 10.401 21.699 10.5052 21.3761 10.5052C21.0378 10.5052 20.7652 10.4091 20.6058 10.1869C20.4798 10.0038 20.4058 9.75583 20.3663 9.40021C20.3266 9.04321 20.3237 8.60125 20.3237 8.04123C20.3237 7.57754 20.3238 7.16826 20.3471 6.81808C20.3706 6.46573 20.4168 6.1929 20.4991 5.99604Z" fill="#000000" class="bmwfcol"/><path d="M25.7781 4.23376C26.1899 3.83232 26.7744 3.61713 27.4685 3.61713C28.1479 3.61713 28.7291 3.83297 29.1415 4.23351C29.5545 4.63464 29.7806 5.20394 29.7806 5.87611C29.7806 6.53923 29.5534 7.08914 29.1377 7.47196C28.7239 7.85294 28.1435 8.05019 27.4685 8.05019C26.7788 8.05019 26.1951 7.85353 25.7819 7.47171C25.3668 7.0881 25.1459 6.53774 25.1459 5.87611C25.1459 5.20538 25.3657 4.63568 25.7781 4.23376ZM26.9864 5.38859C26.8855 5.48404 26.8195 5.62971 26.8195 5.83366C26.8195 6.03761 26.8855 6.18328 26.9864 6.27873C27.0886 6.37542 27.2476 6.44027 27.4685 6.44027C27.6788 6.44027 27.8356 6.3781 27.9381 6.28206C28.0389 6.18763 28.107 6.04207 28.107 5.83366C28.107 5.62525 28.0389 5.47969 27.9381 5.38526C27.8356 5.28922 27.6788 5.22705 27.4685 5.22705C27.2476 5.22705 27.0886 5.2919 26.9864 5.38859Z" fill="#000000" class="bmwfcol"/><path d="M16.9667 3.63597V5.51359L16.7891 5.53358C15.9484 5.62816 15.0631 5.82651 14.5 6.10807C14.0613 6.32743 13.8083 6.55934 13.667 6.86122C13.9536 6.84945 14.2469 6.84358 14.5167 6.84358C15.6487 6.84358 16.307 7.08372 16.7737 7.57438C17.2527 8.07675 17.4762 8.74638 17.4762 9.55894C17.4762 10.2723 17.2864 10.9732 16.7874 11.519C16.2383 12.1262 15.4748 12.3804 14.4849 12.3804C13.5075 12.3804 12.7408 12.1962 12.1656 11.598C11.6163 11.0365 11.3556 10.1909 11.3556 9.08134C11.3556 7.97724 11.4651 7.1504 11.6948 6.50188C11.9264 5.84754 12.2776 5.38251 12.7449 4.9997C13.6825 4.22962 15.0256 3.85299 16.7445 3.66082L16.9667 3.63597ZM13.3476 9.27238C13.3476 9.54527 13.3684 9.73671 13.4116 9.88911C13.4534 10.0362 13.5182 10.1548 13.6186 10.2786C13.7924 10.4739 14.0752 10.5476 14.4849 10.5476C14.8256 10.5476 15.0653 10.4869 15.2425 10.3016C15.4353 10.1004 15.4842 9.88566 15.4842 9.55894C15.4842 9.22657 15.4435 9.03693 15.2758 8.8603C15.1282 8.71386 14.9121 8.65515 14.3257 8.65515C13.9972 8.65515 13.6096 8.66804 13.3555 8.6787C13.3477 8.83493 13.3476 9.00826 13.3476 9.27238Z" fill="#000000" class="bmwfcol"/><path d="M22 23C19.9728 23 18.2057 22.3199 16.9429 21.0571C15.6801 19.7943 15 18.0272 15 16V14H17C19.0272 14 20.7943 14.6801 22.0571 15.9429C22.7072 16.593 23.2028 17.3767 23.5308 18.2607C24.4313 17.4338 25.6433 17 27 17H29V19C29 20.4272 28.5199 21.6943 27.6071 22.6071C26.6943 23.5199 25.4272 24 24 24V26.6187L23.5453 26.9145C21.4586 28.2721 18.8877 29 16 29C12.1728 29 8.90567 27.7199 6.59289 25.4071C4.28011 23.0943 3 19.8272 3 16C3 15.3146 3.04105 14.6472 3.12174 14H5.13933C5.04747 14.6383 5 15.3056 5 16C5 19.3728 6.11989 22.1057 8.00711 23.9929C9.89433 25.8801 12.6272 27 16 27C18.3302 27 20.3533 26.4647 22 25.5165V23ZM24.8071 19.8071C24.3199 20.2943 24 21.0272 24 22C24.9728 22 25.7057 21.6801 26.1929 21.1929C26.6801 20.7057 27 19.9728 27 19C26.0272 19 25.2943 19.3199 24.8071 19.8071ZM17 16C17 17.5728 17.5199 18.8057 18.3571 19.6429C19.1943 20.4801 20.4272 21 22 21C22 19.4272 21.4801 18.1943 20.6429 17.3571C19.8057 16.5199 18.5728 16 17 16Z" fill="#000000" class="bmwfcol"/><title>360_sustainability_rg_48</title></svg>