<svg width="48" height="48" viewBox="0 0 32 32" xmlns="http://www.w3.org/2000/svg"><path d="M22.5078 22.7622C23.16 22.4911 23.7834 22.1553 24.3685 21.7598C26.3945 20.3751 27.5078 18.4226 27.5078 16.0004H29.5078C29.5078 19.1382 28.0212 21.6857 25.4971 23.411C24.5689 24.0358 23.5642 24.5388 22.5078 24.9076V22.7622Z" fill="#000000" class="bmwfcol"/><path d="M6.64711 21.7597C8.70591 23.1669 11.7388 23.9997 15.5078 23.9997H17.0936L13.0936 19.9997H15.922L20.922 24.9997L15.922 29.9997H13.0935L17.0935 25.9997H15.5078C11.4769 25.9997 8.00971 25.1131 5.51851 23.4103C2.99451 21.685 1.50781 19.1375 1.50781 15.9997C1.50781 12.8619 2.99451 10.3144 5.51851 8.58968C5.83298 8.37469 6.16274 8.17275 6.5078 7.98389V10.3379C4.5702 11.7162 3.50781 13.6341 3.50781 16.0002C3.50781 18.422 4.62121 20.3745 6.64711 21.7597Z" fill="#000000" class="bmwfcol"/><path d="M28.9509 7.93972C28.8362 7.32922 28.6161 6.79672 28.1885 6.38672C27.62 5.84132 26.8208 5.62012 26.0342 5.62012C25.0169 5.62012 24.2048 5.91012 23.6358 6.66532C23.3413 7.05982 23.1935 7.56342 23.1172 8.12532C23.0483 8.75159 23.0202 9.38169 23.0331 10.0116C23.0331 10.7728 23.0406 11.4416 23.138 12.0209C23.2362 12.6046 23.428 13.1099 23.8042 13.5386C24.3784 14.1948 25.1478 14.3813 26.0342 14.3813C26.9269 14.3813 27.7498 14.1383 28.3006 13.4588C29.0206 12.5793 29.0776 11.5518 29.0776 10.0116C29.0776 9.24832 29.0652 8.54632 28.9509 7.93972ZM27.0352 11.3937C26.9897 11.7499 26.9067 11.9931 26.7652 12.1829C26.6014 12.4041 26.3417 12.5051 26.0347 12.5051C25.7047 12.5051 25.4699 12.4139 25.3071 12.1869C25.1812 12.0039 25.1071 11.756 25.0677 11.4005C25.0303 10.9487 25.0161 10.4953 25.0252 10.042C25.0252 9.59982 25.0252 9.19042 25.0486 8.83492C25.0556 8.54961 25.1069 8.26712 25.2005 7.99752C25.2576 7.83385 25.3681 7.69418 25.5143 7.60102C25.6752 7.52015 25.8545 7.48323 26.0343 7.49402C26.4159 7.49402 26.6583 7.60522 26.8112 7.83832C26.9349 8.02832 27.0067 8.27892 27.045 8.63252C27.0813 9.08014 27.095 9.52931 27.0863 9.97832C27.097 10.4507 27.0799 10.9233 27.0352 11.3937Z" fill="#000000" class="bmwfcol"/><path d="M11.766 14.3796C10.9763 14.3737 10.1891 14.2913 9.41537 14.1335L9.25137 14.1042L9.24206 13.9363V12.1843L9.49747 12.2575C10.2341 12.4069 10.9827 12.4896 11.7343 12.5046C12.2773 12.5046 12.6443 12.4275 12.8559 12.2693C13.0346 12.1345 13.1044 11.9685 13.1044 11.6755C13.1044 11.3755 12.9901 11.2055 12.6825 11.0476C12.4506 10.9314 12.0766 10.9314 11.6811 10.9314H10.0487V9.09963H12.4276L12.623 8.83213C12.8144 8.57333 13.0087 8.28033 13.0087 8.04793C13.0087 7.84793 12.9814 7.76663 12.8817 7.67393C12.7411 7.54893 12.4417 7.49393 11.8827 7.49393C11.1581 7.49393 10.122 7.69603 9.56527 7.80443L9.32707 7.85033L9.30607 7.61203V5.97183L9.46867 5.94183C9.69078 5.89983 10.0043 5.84183 10.3451 5.78563C10.8633 5.69119 11.3879 5.6357 11.9145 5.61963C13.0761 5.61963 13.7895 5.82273 14.3002 6.29963C14.52 6.50763 14.694 6.75928 14.811 7.03844C14.928 7.3176 14.9853 7.61811 14.9794 7.92073C14.9794 8.47633 14.7679 8.85073 14.4916 9.28073C14.3915 9.43793 14.2768 9.60983 14.1859 9.74163C14.3234 9.8492 14.4493 9.97097 14.5614 10.1049C14.9252 10.5268 15.0961 11.0268 15.0961 11.6762C15.0961 12.3803 14.8593 13.0336 14.4467 13.4692C13.8485 14.091 12.997 14.3796 11.766 14.3796Z" fill="#000000" class="bmwfcol"/><path d="M19.2607 14.3797C18.1851 14.3797 17.5007 14.1452 16.9741 13.5984C16.437 13.0484 16.1641 12.2019 16.1641 11.0818C16.1641 8.96465 16.5541 7.82005 17.5532 7.00185C18.4287 6.28185 19.6426 5.86905 21.4883 5.66295L21.7105 5.63855V7.51555L21.5327 7.53555C20.6494 7.63555 19.8384 7.84415 19.3076 8.10875C18.877 8.32455 18.6196 8.55305 18.4756 8.86165C18.751 8.84995 19.0249 8.84415 19.293 8.84415C20.3789 8.84415 21.023 9.05605 21.5171 9.57415C21.9829 10.0634 22.2197 10.7315 22.2197 11.5586C22.2197 12.3594 21.9878 13.0185 21.5303 13.5185C21.0005 14.1066 20.2793 14.3797 19.2607 14.3797ZM18.1641 10.6797C18.1563 10.8379 18.1563 11.0126 18.1563 11.2734C18.1563 11.7704 18.2275 12.0342 18.4292 12.2823C18.5825 12.4707 18.8232 12.5479 19.2607 12.5479C19.6133 12.5479 19.8164 12.4795 19.9868 12.3018C20.188 12.0918 20.228 11.8623 20.228 11.5596C20.228 11.2481 20.1948 11.045 20.018 10.8604C19.8612 10.7022 19.6552 10.6562 19.1015 10.6562C18.7744 10.6564 18.4092 10.6697 18.1641 10.6797Z" fill="#000000" class="bmwfcol"/><title>360-view_rg_48</title></svg>