<svg width="48" height="48" viewBox="0 0 32 32" xmlns="http://www.w3.org/2000/svg"><path d="M26 21.7753V14H28V22.93L16 29.8582L4 22.93V9.07355L14 3.30005V5.60945L7.00017 9.6508L16.9999 15.4226V26.9715L26 21.7753ZM14.9999 26.9713V16.5774L6 11.3828V21.7753L14.9999 26.9713Z" fill="#000000" class="bmwfcol"/><path d="M18.6967 3.61713C17.8213 3.61713 16.9446 3.80802 16.0875 3.96974V5.85381C16.935 5.68763 17.7978 5.49239 18.6649 5.49239C18.9681 5.49239 19.1886 5.50827 19.3521 5.54146C19.5126 5.57402 19.6054 5.62074 19.6659 5.67382C19.7858 5.78668 19.7916 5.84764 19.7916 6.04593C19.7916 6.2457 19.6676 6.4593 19.417 6.79706L19.2211 7.06647H16.8304V8.89927H18.4632C18.9552 8.89927 19.2326 8.90337 19.4694 9.01733C19.6319 9.0963 19.7318 9.18353 19.7929 9.27847C19.8536 9.37277 19.8871 9.49192 19.8871 9.65447C19.8871 9.93433 19.8148 10.13 19.6364 10.2705C19.436 10.4198 19.0896 10.5052 18.5163 10.5052C17.6753 10.5052 16.8489 10.3582 16.0238 10.2119V12.1027C16.8601 12.2576 17.695 12.3804 18.5481 12.3804C19.7856 12.3804 20.6468 12.0981 21.2307 11.4681C21.667 11.0076 21.8791 10.3168 21.8791 9.65447C21.8791 9.02343 21.7199 8.50689 21.343 8.07061C21.2165 7.92051 21.0996 7.80751 20.9783 7.71013C21.0697 7.57703 21.1847 7.40455 21.2851 7.24677C21.5527 6.8293 21.7623 6.47923 21.7623 5.91857C21.7623 5.30817 21.5428 4.7216 21.0828 4.29675C20.5488 3.79855 19.7947 3.61713 18.6967 3.61713Z" fill="#000000" class="bmwfcol"/><path d="M25.961 3.79756H22.8742V12.2H25.8761C27.0136 12.2 27.836 12.0048 28.5252 11.3845C29.3264 10.6635 29.7058 9.63214 29.7058 7.96695C29.7058 6.34922 29.414 5.47599 28.7855 4.76731C28.1117 4.00088 27.188 3.79756 25.961 3.79756ZM24.8662 10.3035V5.69404H25.9716C26.6054 5.69404 26.9965 5.76172 27.2834 6.10068C27.6332 6.51483 27.6926 7.12992 27.6926 7.96695C27.6926 8.72897 27.6158 9.29992 27.3447 9.70184C27.1889 9.9332 27.014 10.0783 26.7967 10.1691C26.5741 10.262 26.2937 10.3035 25.9185 10.3035H24.8662Z" fill="#000000" class="bmwfcol"/><title>3d_rg_48</title></svg>