<svg width="48" height="48" viewBox="0 0 32 32" xmlns="http://www.w3.org/2000/svg"><path d="M23.9998 16H19.9998V14H23.9998V16Z" fill="#000000" class="bmwfcol"/><path d="M17.9998 26V21H15.9998V28H27.9998V21H25.9998V26H17.9998Z" fill="#000000" class="bmwfcol"/><path d="M21.8586 3.9999C21.9059 3.99995 21.953 4 21.9998 4C22.0464 4 22.0932 3.99995 22.1402 3.99991C23.2694 3.99876 24.5134 3.9975 25.5639 4.65142C26.7028 5.36037 27.4134 6.68031 27.9658 8.74191L27.9999 8.86908V9.00073C27.9999 10.2914 27.9975 11.0664 27.6036 12.9447C27.2216 14.7661 26.4629 17.6726 24.966 23.2588L24.7674 24H19.2326L19.034 23.2588C17.537 17.672 16.7782 14.7655 16.3963 12.9441C16.0024 11.0659 16.0002 10.2909 16.0002 8.99999V8.86834L16.0342 8.74117C16.5866 6.6796 17.2971 5.35976 18.4361 4.65098C19.4862 3.99747 20.7298 3.99874 21.8586 3.9999ZM18.0002 9.13351C18.0005 10.2575 18.0111 10.8996 18.3537 12.5336C18.7051 14.2092 19.3968 16.8777 20.7674 22H23.2326C24.6031 16.8783 25.2948 14.2097 25.6462 12.5342C25.9889 10.9 25.9995 10.2579 25.9998 9.13425C25.491 7.29162 24.9649 6.63437 24.507 6.34933C23.9941 6.03008 23.3341 6 21.9998 6C20.6654 6 20.0056 6.02991 19.4928 6.34902C19.035 6.63388 18.509 7.29085 18.0002 9.13351Z" fill="#000000" class="bmwfcol"/><path d="M8.45714 2C7.19704 2 6.062 2.2744 5.22167 2.98175C4.31243 3.74788 4.05848 4.7909 4.05848 5.78064C4.05848 6.57392 4.17351 7.32632 4.61276 7.9916C4.80335 8.28032 5.04228 8.53236 5.31789 8.73729C5.09 8.94566 4.87423 9.16722 4.67172 9.4009C4.04435 10.1275 3.70341 11.0597 3.71514 12.0194C3.7163 13.2092 4.02369 14.2994 4.99396 15.0706C5.91538 15.8028 7.13766 16 8.44013 16C9.75221 16 10.9475 15.7618 11.8717 14.9705C12.7789 14.1953 13.149 13.1643 13.149 12.0211C13.149 11.1587 12.9217 10.2591 12.2894 9.5513C12.0461 9.28973 11.7709 9.06051 11.4707 8.8688C11.6591 8.65954 11.8382 8.44191 12.0075 8.21654C12.5499 7.51818 12.8374 6.6554 12.8223 5.77124C12.8206 4.83709 12.5662 3.90283 11.8221 3.16526C10.949 2.29971 9.7361 2 8.45714 2ZM6.50962 4.51184C6.85283 4.22303 7.45224 4 8.45714 4C9.46217 4 10.0637 4.23821 10.4142 4.5857C10.6767 4.84589 10.8225 5.22744 10.8225 5.80048C10.831 6.23211 10.6784 6.66939 10.4127 7.00961C10.18 7.32012 9.92353 7.61207 9.64561 7.88283L9.45272 8.06457C9.21106 7.99719 8.97149 7.93435 8.74544 7.87506L8.68456 7.85909C7.77349 7.61999 7.04988 7.42592 6.65238 7.21951C6.50443 7.14377 6.37325 7.02821 6.2817 6.88949C6.15269 6.69413 6.05848 6.39841 6.05848 5.78064C6.05848 5.12308 6.21728 4.75837 6.50962 4.51184ZM7.43759 9.59725C7.65036 9.65565 7.86119 9.71088 8.0622 9.76353L8.17687 9.79358C9.08571 10.0321 9.82187 10.2397 10.2088 10.4482C10.4366 10.5645 10.6426 10.7193 10.8177 10.9057C11.0193 11.1353 11.149 11.4819 11.149 12.0211C11.149 12.6979 10.9521 13.1257 10.5723 13.4501C10.1749 13.7905 9.54916 14 8.44013 14C7.2708 14 6.61843 13.8069 6.23836 13.5049C5.9199 13.2517 5.71523 12.8631 5.71523 12.0126C5.70859 11.5402 5.87515 11.0677 6.18374 10.71C6.45701 10.3948 6.76619 10.1062 7.09891 9.85446C7.16981 9.8003 7.30769 9.69569 7.43759 9.59725Z" fill="#000000" class="bmwfcol"/><title>8-speed-automatic-gearbox_rg_48</title></svg>