<svg width="48" height="48" viewBox="0 0 32 32" xmlns="http://www.w3.org/2000/svg"><path d="M24.3302 2.92601L23.5114 1.99492C21.9143 2.22205 20.4279 2.73123 19.3541 4.01041C18.4668 5.06736 18 6.44988 18 8.0001C18 10.3782 19.1051 12.3209 21 13.3067V27.0001C21 27.8273 21.2801 28.5944 21.8429 29.1572C22.4057 29.72 23.1728 30.0001 24 30.0001C24.8272 30.0001 25.5943 29.72 26.1571 29.1572C26.7199 28.5944 27 27.8273 27 27.0001V13.3067C28.8949 12.3209 30 10.3782 30 8.0001C30 5.89402 29.0772 4.22609 27.473 2.93758L26.2912 3.33523L25.1021 7.77304C25.0257 8.05877 24.9435 8.13998 24.646 8.11811C24.4818 8.10605 24.2726 8.06767 24.0069 7.99648C23.7413 7.92528 23.5406 7.85385 23.3921 7.78208C23.124 7.65246 23.0921 7.5432 23.1696 7.25774L24.3302 2.92601ZM20 8.0001C20 6.85522 20.3403 5.94619 20.8858 5.29636C21.1448 4.98784 21.4616 4.72394 21.8336 4.51632L21.2389 6.7357C21.0208 7.54116 21.1015 8.3336 21.6648 8.96102C22.147 9.49813 22.8602 9.75972 23.4892 9.92831C24.1184 10.0969 24.8663 10.2268 25.5523 10.0024C26.3532 9.74049 26.8189 9.09494 27.0341 8.28997L27.62 6.10365C27.8629 6.63798 28 7.27207 28 8.0001C28 9.89992 27.0719 11.1914 25.6505 11.7215L25 11.9642V27.0001C25 27.6155 24.6154 28.0001 24 28.0001C23.3846 28.0001 23 27.6155 23 27.0001V11.9642L22.3495 11.7215C20.9282 11.1914 20 9.89992 20 8.0001Z" fill="#000000" class="bmwfcol"/><path d="M14 6C14.7433 6 15.4709 6.06759 16.1769 6.19696C16.0587 6.78156 16 7.3856 16 8C16 8.06701 16.0007 8.13383 16.0021 8.20047C15.6736 8.13372 15.3393 8.08307 15 8.04938V14.126C15.9935 14.3817 16.8376 15.0095 17.3749 15.852L19 15.3239V17.4269L17.9926 17.7542C17.9975 17.8355 18 17.9175 18 18C18 18.9671 17.6568 19.854 17.0856 20.5456L19 23.1806V26.5832L15.4681 21.722C15.0136 21.9014 14.5183 22 14 22C13.4817 22 12.9864 21.9014 12.5319 21.722L8.95966 26.6387C10.4396 27.5041 12.1619 28 14 28C15.8214 28 17.5291 27.513 19 26.6622V27C19 27.5971 19.0956 28.1984 19.2976 28.7703C17.6999 29.5577 15.9016 30 14 30C7.37258 30 2 24.6274 2 18C2 11.3726 7.37258 6 14 6ZM13 8.04938C9.34268 8.4125 6.26503 10.7461 4.84372 13.9735L10.6251 15.852C11.1624 15.0095 12.0065 14.3817 13 14.126V8.04938ZM4.22609 15.8757C4.07799 16.5603 4 17.2711 4 18C4 20.9661 5.29136 23.6306 7.34253 25.4619L10.9144 20.5456C10.3432 19.854 10 18.9671 10 18C10 17.9175 10.0025 17.8355 10.0074 17.7542L4.22609 15.8757ZM14 16C12.8954 16 12 16.8954 12 18C12 19.1046 12.8954 20 14 20C15.1046 20 16 19.1046 16 18C16 16.8954 15.1046 16 14 16Z" fill="#000000" class="bmwfcol"/><title>accessory-configurator_rg_48</title></svg>