<svg width="48" height="48" viewBox="0 0 32 32" xmlns="http://www.w3.org/2000/svg"><path d="M16 2C10.4772 2 6 6.47715 6 12C6 15.9582 8.2997 19.3793 11.6359 21H6V30H8V23H24V30H26V21H20.3641C23.7003 19.3793 26 15.9582 26 12C26 6.47715 21.5228 2 16 2ZM8 12C8 11.4866 8.04836 10.9845 8.14077 10.498L12.501 11.9148C12.5003 11.9431 12.5 11.9715 12.5 12C12.5 12.7994 12.768 13.5363 13.2191 14.1255L10.5253 17.8333C8.97089 16.3739 8 14.3003 8 12ZM13.1186 10.0125L8.75835 8.59578C9.90191 6.16737 12.231 4.40738 14.9994 4.06196V8.6451C14.227 8.87513 13.5664 9.36463 13.1186 10.0125ZM16.9994 8.64477V4.06182C19.7683 4.4069 22.0977 6.1669 23.2415 8.59547L18.8811 10.0122C18.4332 9.36418 17.7722 8.87463 16.9994 8.64477ZM19.499 11.9144L23.8592 10.4977C23.9516 10.9843 24 11.4865 24 12C24 14.3007 23.0288 16.3745 21.4741 17.8339L18.7803 14.1263C19.2318 13.5369 19.5 12.7998 19.5 12C19.5 11.9714 19.4997 11.9429 19.499 11.9144ZM17.1626 15.3023L19.8569 19.0106C18.7131 19.6412 17.3984 20 16 20C14.6012 20 13.2863 19.641 12.1424 19.0102L14.8365 15.302C15.2005 15.4302 15.5921 15.5 16 15.5C16.4076 15.5 16.7988 15.4303 17.1626 15.3023ZM14.5 12C14.5 11.1716 15.1716 10.5 16 10.5C16.8284 10.5 17.5 11.1716 17.5 12C17.5 12.8284 16.8284 13.5 16 13.5C15.1716 13.5 14.5 12.8284 14.5 12Z" fill="#000000" class="bmwfcol"/><title>accessory-showroom_rg_48</title></svg>