<svg width="48" height="48" viewBox="0 0 32 32" xmlns="http://www.w3.org/2000/svg"><path d="M1.75391 5.02938V3.0249C3.20644 3.10486 4.30177 3.39592 5.09537 4.1503C5.57219 4.60355 5.87135 5.1599 6.09923 5.74833C6.32129 6.32173 6.50584 7.01378 6.70014 7.74243C6.89218 8.46256 8.47732 14.3781 9.44806 17.9999H16.7539C18.7966 17.9999 20.2486 17.9979 21.3691 17.852C22.4611 17.7098 23.1118 17.4441 23.609 17.0024C24.1296 16.5398 24.5943 15.7855 25.1018 14.4304C25.6082 13.0783 26.114 11.2531 26.787 8.74109L26.9856 8H29.0561L28.7189 9.25869C28.0523 11.7467 27.5216 13.6716 26.9748 15.1319C26.4289 16.5893 25.8236 17.71 24.9374 18.4974C24.0278 19.3057 22.9352 19.665 21.6274 19.8353C20.3628 19.9999 18.7808 19.9999 16.8226 19.9999H9.98417L10.1829 20.7408C10.4493 21.7333 10.6216 21.8185 10.6933 21.854C10.775 21.8945 10.938 21.9441 11.2987 21.9718C11.6586 21.9994 12.1147 22.0001 12.7539 22.0001L23.2539 22C25.1869 22 26.7539 23.567 26.7539 25.5C26.7539 27.433 25.1869 29 23.2539 29C21.3209 29 19.7539 27.433 19.7539 25.5C19.7539 24.9632 19.8747 24.4547 20.0907 24.0001H13.4171C13.6331 24.4547 13.7539 24.9632 13.7539 25.5C13.7539 27.433 12.1869 29 10.2539 29C8.32091 29 6.75391 27.433 6.75391 25.5C6.75391 24.1485 7.51996 22.9759 8.64156 22.3927C8.47757 22.0435 8.35824 21.6579 8.25125 21.2593C7.98286 20.2594 5.03458 9.25867 4.76767 8.25776C4.56338 7.49168 4.41011 6.92481 4.23421 6.4706C4.06272 6.02779 3.89813 5.77164 3.71744 5.59989C3.43703 5.33334 2.94467 5.10754 1.75391 5.02938ZM23.237 24.0001C22.4164 24.0092 21.7539 24.6772 21.7539 25.5C21.7539 26.3284 22.4255 27 23.2539 27C24.0823 27 24.7539 26.3284 24.7539 25.5C24.7539 24.6716 24.0654 24.0001 23.237 24.0001ZM10.2539 24C9.42548 24 8.75391 24.6716 8.75391 25.5C8.75391 26.3284 9.42548 27 10.2539 27C11.0823 27 11.7539 26.3284 11.7539 25.5C11.7539 24.6716 11.0823 24 10.2539 24Z" fill="#000000" class="bmwfcol"/><path d="M16.7539 2C12.8879 2 9.75391 5.13401 9.75391 9C9.75391 12.866 12.8879 16 16.7539 16C20.6199 16 23.7539 12.866 23.7539 9C23.7539 5.13401 20.6199 2 16.7539 2ZM15.7539 4.10002V7.6236L12.4029 6.53478C13.1045 5.29906 14.3174 4.39161 15.7539 4.10002ZM11.7539 9C11.7539 8.80967 11.7646 8.62182 11.7853 8.43702L15.1359 9.52573L13.0654 12.3756C12.2509 11.4861 11.7539 10.3011 11.7539 9ZM14.6827 13.5522L16.7539 10.7014L18.8251 13.5522C18.1941 13.8398 17.4927 14 16.7539 14C16.0151 14 15.3138 13.8398 14.6827 13.5522ZM18.3719 9.52573L21.7226 8.43702C21.7433 8.62182 21.7539 8.80967 21.7539 9C21.7539 10.3011 21.2569 11.4861 20.4425 12.3756L18.3719 9.52573ZM17.7539 4.10002C19.1904 4.39161 20.4033 5.29906 21.1049 6.53478L17.7539 7.6236V4.10002Z" fill="#000000" class="bmwfcol"/><title>accessory-shop_rg_48</title></svg>