<svg width="48" height="48" viewBox="0 0 32 32" xmlns="http://www.w3.org/2000/svg"><path d="M17.1 9.9572L16.9824 10H11.1348L15.1 8.55678L13.2554 4.60099L14.5994 3.25695L18.5552 5.10157L20.0481 1H21.9488L23.4417 5.10157L27.3974 3.25694L28.7415 4.60098L26.8969 8.55678L30.9984 10.0496V11.9504L26.8968 13.4433L27.1564 14H24.9497L24.4921 13.0188L24.8969 12.0428L27.762 11L24.8968 9.95716L24.4922 8.98116L25.7809 6.2175L23.0173 7.50622L22.0413 7.10168L20.9984 4.23646L19.9556 7.10168L18.9796 7.50622L16.2159 6.2175L17.5047 8.98126L17.1 9.9572Z" fill="#000000" class="bmwfcol"/><path d="M13.2341 19.75H10.0838L8.99805 20.8358V23.7907L10.4011 26H13.6623L13.998 25.6642L14.3338 26H17.6438L18.998 23.781V20.8358L17.9123 19.75H14.762L13.998 20.132L13.2341 19.75ZM10.998 23.2093V21.75H12.762L12.998 21.868V23.8358L12.8338 24H11.5002L10.998 23.2093ZM14.998 23.8358V21.868L15.2341 21.75H16.998L16.998 23.219L16.5214 24H15.1623L14.998 23.8358Z" fill="#000000" class="bmwfcol"/><path d="M8.04534 12.6289C9.27804 12.088 10.1598 12.0001 13.9981 12.0001C17.8361 12.0001 18.7206 12.0885 19.9524 12.6297C20.4417 12.8454 20.8582 13.2351 21.1866 13.6082C21.7612 14.2609 22.2226 15.0122 22.6398 15.7729C22.9519 15.6527 23.2814 15.5871 23.6331 15.5502C24.4168 15.468 25.2105 15.5001 25.9975 15.5001V17.5001C25.2541 17.5001 24.5031 17.455 23.7633 17.5483C24.2363 17.9938 24.6896 18.4452 25.0534 18.8889C25.5234 19.4622 25.998 20.2012 25.998 21.0429V30.0001H19.998V28.8201C15.9434 29.0734 12.0527 29.0734 7.99805 28.8201V30.0001H1.99805V21.0429C1.99805 20.2012 2.47271 19.4622 2.94273 18.8889C3.30648 18.4452 3.75972 17.9938 4.23279 17.5484C3.49283 17.4549 2.74151 17.5 1.99805 17.5V15.5C2.96817 15.5 3.75545 15.4865 4.3622 15.5502C4.71412 15.5871 5.04376 15.6527 5.35593 15.773C5.77313 15.0119 6.23459 14.2601 6.80958 13.6071C7.13801 13.2341 7.55512 12.8441 8.04534 12.6289ZM20.7819 16.5471C20.3771 15.8304 19.9236 14.8044 19.146 14.4599C18.3622 14.1156 17.9086 14.0001 13.9981 14.0001C10.0869 14.0001 9.63469 14.1156 8.84917 14.4603C8.07147 14.8021 7.61785 15.8314 7.21391 16.547C8.78311 16.4621 10.36 16.494 11.9307 16.4972C13.3097 16.5 14.6887 16.5 16.0677 16.4972C17.6375 16.494 19.2135 16.4621 20.7819 16.5471ZM4.53656 20.1C5.50685 20.3015 6.56811 20.4194 7.99805 20.5212V22.5262C6.40258 22.4158 5.17053 22.2835 3.99805 22.0302V28.0001H5.99805V26.6745L7.07075 26.7527C11.7779 27.0959 16.2182 27.0959 20.9253 26.7527L21.998 26.6745V28.0001H23.998V22.0312C22.8256 22.2845 21.5935 22.4167 19.998 22.5272V20.5222C21.4283 20.4204 22.4898 20.3024 23.4602 20.1009C23.0422 19.6031 22.5034 18.8284 21.8339 18.6756C21.5517 18.6112 21.1302 18.5635 20.478 18.5345C19.4894 18.4905 18.1079 18.4932 16.1177 18.4972C14.705 18.5 13.2923 18.5 11.8796 18.4972C9.88906 18.4932 8.50694 18.4905 7.51769 18.5345C6.86501 18.5635 6.44304 18.6113 6.16049 18.6757C5.4941 18.8276 4.95343 19.6038 4.53656 20.1Z" fill="#000000" class="bmwfcol"/><title>accident-service_rg_48</title></svg>