<svg width="48" height="48" viewBox="0 0 32 32" xmlns="http://www.w3.org/2000/svg"><path d="M19 2V6H17V2H19Z" fill="#000000" class="bmwfcol"/><path d="M22 2V6H20V2H22Z" fill="#000000" class="bmwfcol"/><path d="M25 2V6H23V2H25Z" fill="#000000" class="bmwfcol"/><path d="M14.2365 18.343L13.9999 18.3429C10.887 18.3429 8.89128 18.3589 7.58531 18.4546C6.93262 18.5024 6.49848 18.5673 6.20496 18.6445C5.9772 18.7044 5.87637 18.761 5.83616 18.7895C5.35737 19.2338 4.94556 19.6321 4.62419 20.0002H10V22.0002H4V28.0002H6V26.0001H22V28.0002H24V22.0002H18V20.0002H25.7666C25.9087 20.3245 26 20.6738 26 21.043V30.0002H20V28.0001H8V30.0002H2V21.043C2 20.2012 2.47466 19.4622 2.94468 18.889C3.30837 18.4454 3.7615 17.9941 4.23447 17.5487C4.20919 17.5455 4.18287 17.5425 4.15542 17.5396C3.75733 17.4978 3.24544 17.4986 2.46044 17.4999C2.31737 17.5001 2.16216 17.5004 2 17.5004V15.5004C2.14891 15.5004 2.29351 15.5001 2.4338 15.4998C3.20746 15.498 3.85057 15.4966 4.36415 15.5505C4.71602 15.5874 5.04562 15.6531 5.35775 15.7733C5.51401 15.4883 5.68615 15.1909 5.8696 14.8985C6.14956 14.4522 6.46893 13.9962 6.81154 13.6072C7.13996 13.2342 7.55707 12.8442 8.0473 12.629C9.16495 12.1385 9.99411 12.0205 13 12.0027C13.0001 12.7224 13.0624 13.3745 13.165 14.0022C10.018 14.0191 9.57682 14.1419 8.85112 14.4604C8.75816 14.5012 8.57258 14.6336 8.31254 14.9289C8.06658 15.2082 7.8113 15.5668 7.56383 15.9613C7.45732 16.1311 7.35467 16.3037 7.25724 16.4743C7.31847 16.4692 7.38071 16.4644 7.44399 16.4597C8.79044 16.3611 10.7762 16.344 13.7006 16.343L14.2365 18.343Z" fill="#000000" class="bmwfcol"/><path d="M27.3333 7C28.3605 7 29.2943 7.34678 29.9737 8.02623C30.6532 8.70567 31 9.63942 31 10.6667C31 11.6939 30.6532 12.6277 29.9737 13.3071C29.2943 13.9866 28.3605 14.3333 27.3333 14.3333H26.7368C26.5985 14.9773 26.4234 15.6126 26.2541 16.2489L25.7848 18H16.2152L15.7492 16.261C15.3169 14.6479 15 13.4653 15 12V7H27.3333ZM27 9V12C27 12.1131 26.9982 12.2241 26.9947 12.3333H27.3333C27.906 12.3333 28.3056 12.1468 28.5595 11.8929C28.8134 11.639 29 11.2394 29 10.6667C29 10.0939 28.8134 9.69433 28.5595 9.44044C28.3056 9.18655 27.906 9 27.3333 9H27ZM17 9V12C17 13.181 17.2294 14.0577 17.6801 15.7399C17.7038 15.8265 17.7269 15.9132 17.7499 16H24.2502L24.3199 15.7399C24.7708 14.0569 25 13.1813 25 12V9H17Z" fill="#000000" class="bmwfcol"/><title>active-protection_rg_48</title></svg>