<svg width="48" height="48" viewBox="0 0 32 32" xmlns="http://www.w3.org/2000/svg"><path d="M26 13.4879V11.0428C26 10.2011 25.5253 9.46209 25.0553 8.8888C24.6915 8.44506 24.2382 7.99361 23.765 7.54809C23.7904 7.5449 23.8167 7.54185 23.8443 7.53896C24.2424 7.49719 24.7546 7.498 25.5396 7.49926C25.6835 7.49949 25.8367 7.49974 25.9999 7.49974V5.49974C25.8509 5.49974 25.7063 5.49942 25.5659 5.49911C24.7922 5.4974 24.1492 5.49599 23.6355 5.54988C23.2837 5.58681 22.954 5.65241 22.6417 5.77277C22.4856 5.48807 22.3136 5.19115 22.1303 4.89909C21.8504 4.45297 21.5311 3.99717 21.1886 3.6081C20.8602 3.23505 20.4424 2.84481 19.9531 2.62904C18.7213 2.08785 17.838 2 14 2C10.1617 2 9.27999 2.08791 8.0473 2.62887C7.55707 2.84408 7.13996 3.23404 6.81154 3.60701C6.46893 3.9961 6.14956 4.45208 5.8696 4.89837C5.68624 5.19066 5.51417 5.48785 5.35797 5.77279C5.04577 5.65244 4.7161 5.58682 4.36415 5.54988C3.85056 5.49599 3.20766 5.4974 2.43398 5.49911C2.29363 5.49942 2.14897 5.49974 2 5.49974V7.49974C2.16278 7.49974 2.31545 7.49949 2.459 7.49926H2.46044C3.24544 7.498 3.75733 7.49719 4.15542 7.53896C4.18303 7.54186 4.20951 7.54492 4.23493 7.54813C3.7618 7.99364 3.30848 8.44507 2.94468 8.8888C2.47466 9.46209 2 10.2011 2 11.0428V20H8V17.9999H10.9284C11.2308 17.6173 11.556 17.2514 11.9037 16.9037C12.2241 16.5832 12.56 16.2819 12.9102 15.9999H6V18H4V12H10V10H4.62419C4.94154 9.63655 5.34707 9.2436 5.81821 8.80603C5.833 8.79213 5.91672 8.72092 6.20787 8.64433C6.50129 8.56715 6.93527 8.50221 7.58773 8.45441C8.89322 8.35877 10.8882 8.34277 14 8.34277C17.1119 8.34277 19.1069 8.35877 20.4124 8.45441C21.0648 8.50221 21.4988 8.56715 21.7922 8.64433C22.0834 8.72092 22.167 8.79218 22.1818 8.80607C22.6529 9.24356 23.0585 9.6366 23.3758 10H18V12H24V13.1167C24.6846 13.1982 25.3524 13.3222 26 13.4879ZM14 4C17.9106 4 18.3642 4.11552 19.1479 4.4598C19.2419 4.50144 19.4277 4.63459 19.6874 4.92959C19.9334 5.20914 20.1888 5.5678 20.4363 5.96217C20.5427 6.13172 20.6452 6.30399 20.7425 6.47429C20.6806 6.46917 20.6176 6.46427 20.5536 6.45958C19.1622 6.35764 17.0879 6.34277 14 6.34277C10.9122 6.34277 8.83786 6.35764 7.44646 6.45958C7.38229 6.46428 7.31918 6.46919 7.25711 6.47433C7.35458 6.30366 7.45727 6.13104 7.56383 5.96118C7.8113 5.56668 8.06658 5.20807 8.31254 4.92875C8.57258 4.63344 8.75816 4.50108 8.85112 4.46023C9.63664 4.11551 10.0888 4 14 4Z" fill="#000000" class="bmwfcol"/><path d="M20.6824 24.2683L16.7071 20.293L15.2928 21.7072L19.2682 25.6826C19.0893 26.0852 19 26.533 19 27C19 27.8272 19.2801 28.5943 19.8429 29.1571C20.4057 29.7199 21.1728 30 22 30C23.7836 30 25 28.625 25 27C25 26.1728 24.7199 25.4057 24.1571 24.8429C23.5943 24.2801 22.8272 24 22 24C21.533 24 21.0851 24.0893 20.6824 24.2683ZM21 27C21 26.6272 21.1199 26.3943 21.2571 26.2571C21.3943 26.1199 21.6272 26 22 26C22.3728 26 22.6057 26.1199 22.7429 26.2571C22.8801 26.3943 23 26.6272 23 27C23 27.5841 22.6164 28 22 28C21.6272 28 21.3943 27.8801 21.2571 27.7429C21.1199 27.6057 21 27.3728 21 27Z" fill="#000000" class="bmwfcol"/><path d="M30 17.6931V20.5663C29.7728 20.2708 29.5283 19.9925 29.2679 19.7321C27.5557 18.0199 25.0728 17 22 17C18.9272 17 16.4443 18.0199 14.7321 19.7321C13.2097 21.2545 12.2347 23.3862 12.0372 26H14V28H10V27C10 23.4728 11.1801 20.4557 13.3179 18.3179C15.4557 16.1801 18.4728 15 22 15C25.167 15 27.9227 15.9514 30 17.6931Z" fill="#000000" class="bmwfcol"/><title>active-cruise-control_rg_48</title></svg>