<svg width="48" height="48" viewBox="0 0 32 32" xmlns="http://www.w3.org/2000/svg"><path d="M8.4502 5C8.4502 5.22125 8.46712 5.43814 8.50084 5.64884L7.68729 5.43085L4.33771 17.9316L5.30366 18.1905L4.31913 21.8648C4.13935 22.5444 4.14791 23.2374 4.4047 23.8601C4.08189 24.0165 3.78716 24.2234 3.5302 24.4804C2.87992 25.1307 2.5498 26.0228 2.5498 27C2.5498 27.9772 2.87992 28.8693 3.5302 29.5196C4.18048 30.1699 5.07256 30.5 6.0498 30.5C8.13342 30.5 9.5498 28.9011 9.5498 27C9.5498 26.3047 9.38271 25.6526 9.05209 25.0999C9.58295 24.6887 9.93456 24.0927 10.1158 23.4134L11.0992 19.7434L12.0651 20.0022L15.4147 7.5014L14.635 7.29247C15.1547 6.67378 15.4502 5.86843 15.4502 5C15.4502 4.02275 15.1201 3.13067 14.4698 2.48039C13.8195 1.83011 12.9274 1.5 11.9502 1.5C10.9729 1.5 10.0809 1.83011 9.43059 2.48039C8.78031 3.13067 8.4502 4.02275 8.4502 5ZM10.8448 3.89461C11.0695 3.66989 11.4274 3.5 11.9502 3.5C12.4729 3.5 12.8309 3.66989 13.0556 3.89461C13.2803 4.11933 13.4502 4.47725 13.4502 5C13.4502 5.86028 12.8666 6.5 11.9502 6.5C11.7789 6.5 11.6253 6.48176 11.4883 6.44933L11.3949 6.42429C11.1598 6.35366 10.9787 6.23926 10.8448 6.10539C10.6201 5.88067 10.4502 5.52275 10.4502 5C10.4502 4.47725 10.6201 4.11933 10.8448 3.89461ZM9.10151 7.88034L10.8665 8.35327C10.9034 8.36377 10.9405 8.37372 10.9778 8.3831L12.9652 8.91562L10.6509 17.5527L6.78722 16.5174L9.10151 7.88034ZM6.91325 23.5913C6.54562 23.4835 6.37248 23.3152 6.29158 23.1747C6.20701 23.0279 6.14656 22.7782 6.25227 22.3776L7.23551 18.7081L9.16737 19.2257L8.18333 22.8982C8.07621 23.3001 7.89962 23.484 7.7547 23.5675C7.6255 23.6419 7.41483 23.6978 7.08816 23.6341C7.03044 23.6185 6.97213 23.6042 6.91325 23.5913ZM6.0498 25.5C6.1903 25.5 6.32397 25.5136 6.44127 25.5359C6.49747 25.551 6.55377 25.5648 6.61011 25.5772C6.84277 25.648 7.02228 25.7617 7.1552 25.8946C7.37992 26.1193 7.5498 26.4772 7.5498 27C7.5498 27.8603 6.96619 28.5 6.0498 28.5C5.52705 28.5 5.16913 28.3301 4.94441 28.1054C4.71969 27.8807 4.5498 27.5228 4.5498 27C4.5498 26.4772 4.71969 26.1193 4.94441 25.8946C5.16913 25.6699 5.52705 25.5 6.0498 25.5Z" fill="#000000" class="bmwfcol"/><path d="M16 25H18V23H16V21H14V23H12V25H14V27H16V25Z" fill="#000000" class="bmwfcol"/><path d="M30 25H24V23H30V25Z" fill="#000000" class="bmwfcol"/><path d="M20.6083 28L23.5201 20H21.3917L18.48 28H20.6083Z" fill="#000000" class="bmwfcol"/><title>adaptive-suspension_rg_48</title></svg>