<svg width="48" height="48" viewBox="0 0 32 32" xmlns="http://www.w3.org/2000/svg"><path d="M10.0858 16.75H13.2361L14 17.132L14.7639 16.75H17.9142L19 17.8358V20.781L17.6458 23H14.3358L14 22.6642L13.6642 23H10.403L9 20.7907V17.8358L10.0858 16.75ZM11 18.75V20.2093L11.5021 21H12.8358L13 20.8358V18.868L12.7639 18.75H11ZM15 18.868V20.8358L15.1642 21H16.5233L17 20.219L17 18.75H15.2361L15 18.868Z" fill="#000000" class="bmwfcol"/><path d="M14 9.00007C10.1617 9.00007 9.27999 9.08798 8.0473 9.62894C7.55707 9.84415 7.13996 10.2341 6.81154 10.6071C6.46893 10.9962 6.14956 11.4522 5.8696 11.8984C5.6862 12.1908 5.5141 12.488 5.35789 12.773C5.04571 12.6527 4.71607 12.5871 4.36415 12.5501C3.85056 12.4963 3.20766 12.4977 2.43398 12.4994C2.29363 12.4997 2.14897 12.5 2 12.5V14.5C2.16288 14.5 2.31564 14.4998 2.45926 14.4995C3.24426 14.4983 3.75733 14.4975 4.15542 14.5392C4.18296 14.5421 4.20938 14.5452 4.23474 14.5484C3.76168 14.9938 3.30844 15.4452 2.94468 15.8889C2.47466 16.4622 2 17.2012 2 18.0429V27.0001H8V25.8201C12.0547 26.0734 15.9453 26.0734 20 25.8201V27.0001H26V18.0429C26 17.2012 25.5253 16.4622 25.0553 15.8889C24.6916 15.4452 24.2383 14.9938 23.7652 14.5483C23.7905 14.5451 23.8168 14.5421 23.8443 14.5392C24.2424 14.4974 24.7544 14.4983 25.5395 14.4995C25.6834 14.4998 25.8366 14.5 25.9999 14.5V12.5C25.8509 12.5 25.7063 12.4997 25.5659 12.4994C24.7922 12.4977 24.1492 12.4963 23.6355 12.5501C23.2837 12.5871 22.954 12.6527 22.6418 12.773C22.4857 12.4883 22.3136 12.1913 22.1303 11.8992C21.8504 11.453 21.5311 10.9972 21.1886 10.6082C20.8602 10.2351 20.4436 9.84542 19.9543 9.62965C18.7225 9.08846 17.838 9.00007 14 9.00007ZM5.83291 15.7924C5.86663 15.7697 5.95486 15.723 6.16184 15.6759C6.44438 15.6115 6.86635 15.5638 7.51903 15.5347C8.50829 15.4907 9.89041 15.4934 11.881 15.4974C12.5218 15.4986 13.2258 15.5 14 15.5C14.7741 15.5 15.4783 15.4986 16.1191 15.4974C18.1093 15.4934 19.4907 15.4907 20.4793 15.5347C21.1316 15.5637 21.5531 15.6115 21.8352 15.6758C22.1078 15.738 22.1744 15.7993 22.1818 15.8061C22.6966 16.2843 23.1331 16.7091 23.4618 17.1005C22.4915 17.3019 21.4301 17.4199 20 17.5217V19.5267C21.5955 19.4162 22.8275 19.284 24 19.0307V25.0001H22V23.6745L20.9273 23.7527C16.2201 24.0959 11.7799 24.0959 7.0727 23.7527L6 23.6745V25.0001H4V19.0307C5.17248 19.284 6.40454 19.4162 8 19.5267V17.5217C6.56989 17.4199 5.50856 17.3019 4.53817 17.1005C4.86999 16.7054 5.31168 16.2762 5.83291 15.7924ZM20.7839 13.5473C20.7134 13.5435 20.6415 13.5399 20.5683 13.5367C19.5291 13.4904 18.0795 13.4933 16.069 13.4974C15.4364 13.4987 14.7483 13.5 14 13.5C13.252 13.5 12.5635 13.4987 11.931 13.4974C9.92011 13.4933 8.46991 13.4904 7.43013 13.5367C7.35734 13.5399 7.2859 13.5434 7.21577 13.5472C7.32539 13.353 7.44209 13.1553 7.56383 12.9612C7.8113 12.5668 8.06658 12.2081 8.31254 11.9288C8.57258 11.6335 8.75816 11.5011 8.85112 11.4603C9.63664 11.1156 10.0888 11.0001 14 11.0001C17.9106 11.0001 18.3642 11.1156 19.1479 11.4599C19.2419 11.5015 19.4277 11.6347 19.6874 11.9297C19.9334 12.2092 20.1888 12.5679 20.4363 12.9622C20.5579 13.156 20.6744 13.3534 20.7839 13.5473Z" fill="#000000" class="bmwfcol"/><path d="M27 5V2H25V5L22 5V7H25V10H27V7H30V5L27 5Z" fill="#000000" class="bmwfcol"/><title>add-car_rg_48</title></svg>