<svg width="48" height="48" viewBox="0 0 32 32" xmlns="http://www.w3.org/2000/svg"><path d="M6.4716 21.5C5.53567 19.882 5 18.0036 5 16C5 9.92487 9.92487 5 16 5C22.0751 5 27 9.92487 27 16C27 22.0751 22.0751 27 16 27C14.8545 27 13.7499 26.8249 12.7114 26.5H8.33363C10.483 28.072 13.1331 29 16 29C23.1797 29 29 23.1797 29 16C29 8.8203 23.1797 3 16 3C8.8203 3 3 8.8203 3 16C3 17.9658 3.43631 19.8296 4.21736 21.5H6.4716Z" fill="#000000" class="bmwfcol"/><path d="M22.5003 21.2662L24.5829 21.9429L25.51 19.0898C25.7456 18.3648 25.894 17.6312 25.9607 16.9007L26.0334 16.1043L25.2725 15.8583C24.4011 15.5766 23.5632 15.3168 22.6015 15.346C21.6272 15.3757 20.6265 15.6941 19.3496 16.3446L18.9806 16.5327L18.6663 17.4999H21.7573C22.1103 17.3964 22.4014 17.353 22.6623 17.3451C23.0393 17.3336 23.3983 17.3928 23.8551 17.5171C23.7931 17.8358 23.711 18.1545 23.6079 18.4717L23.2989 19.4228L22.5003 19.1633L22.5003 21.2662Z" fill="#000000" class="bmwfcol"/><path d="M21.8773 7.90939C21.2606 7.46132 20.6088 7.09342 19.9347 6.80428L19.1997 6.48902L18.7306 7.13672C18.1934 7.8784 17.6874 8.59499 17.418 9.51864C17.1451 10.4544 17.1387 11.5046 17.3629 12.92L17.4277 13.3291L18.9069 14.4038L21.1219 14.053L24.3043 9.67275L21.8773 7.90939ZM19.338 10.0786C19.4436 9.71651 19.6108 9.39334 19.8702 8.9973C20.1541 9.15477 20.4318 9.33136 20.7017 9.52742L21.5107 10.1152L19.9908 12.2072L19.4122 12.2988L19.28 12.2027C19.148 11.177 19.1989 10.5558 19.338 10.0786Z" fill="#000000" class="bmwfcol"/><path d="M10.1216 7.90935C9.50484 8.35742 8.95353 8.86363 8.47024 9.41537L7.94329 10.017L8.41433 10.6633C8.95371 11.4033 9.47885 12.1061 10.2741 12.6477C11.0797 13.1964 12.0765 13.527 13.4919 13.7512L13.901 13.816L15.3802 12.7412L15.731 10.5262L12.5486 6.14599L10.1216 7.90935ZM11.3999 10.9946C11.0882 10.7823 10.8325 10.5235 10.536 10.1543C10.7735 9.93298 11.0273 9.72345 11.2971 9.52738L12.1061 8.93959L13.6261 11.0316L13.5344 11.6101L13.4021 11.7062C12.3859 11.5148 11.8108 11.2745 11.3999 10.9946Z" fill="#000000" class="bmwfcol"/><path d="M6.48887 19.0897C6.72443 19.8147 7.0355 20.4955 7.4109 21.1256L7.82021 21.8127L8.58044 21.5644C9.45097 21.2801 10.2816 20.9978 11.0424 20.4089C11.8132 19.8122 12.4357 18.9664 13.0862 17.6896L13.2743 17.3205L12.7093 15.5816L10.7111 14.5635L5.56182 16.2366L6.48887 19.0897ZM9.81818 18.8274C9.51994 19.0582 9.19474 19.2214 8.75205 19.3893C8.61493 19.095 8.49406 18.7889 8.39098 18.4717L8.08196 17.5206L10.5412 16.7216L11.0632 16.9875L11.1137 17.143C10.6175 18.0504 10.2113 18.5231 9.81818 18.8274Z" fill="#000000" class="bmwfcol"/><path d="M16 14.5C15.1716 14.5 14.5 15.1716 14.5 16C14.5 16.8284 15.1716 17.5 16 17.5C16.8284 17.5 17.5 16.8284 17.5 16C17.5 15.1716 16.8284 14.5 16 14.5Z" fill="#000000" class="bmwfcol"/><path d="M14.125 20.875L15.875 19.125H20.875V24.125L19.125 25.875V22.2236C17.925 23.3102 16.9645 23.999 16.0311 24.4138C14.7111 25.0005 13.5206 25.0003 12.0935 25L2 25V23H12C13.5311 23 14.3177 22.9867 15.2189 22.5862C15.8612 22.3007 16.5954 21.8002 17.6328 20.875H14.125Z" fill="#000000" class="bmwfcol"/><title>aero-rims_rg_48</title></svg>