<svg width="48" height="48" viewBox="0 0 32 32" xmlns="http://www.w3.org/2000/svg"><path d="M9.14152 7.92682L5.20099 5.65179L1 12.9281V15.8452L4.90189 18.098L5.33523 17.3475C6.15533 18.649 7.28971 19.8239 8.71102 20.8191L11.7989 22.9813L19.3328 25H20.4145L24.2074 21.2071C24.8046 20.6098 25.3277 19.9824 25.7745 19.3308C26.1706 18.7532 26.5063 18.1572 26.7806 17.5475L27.0984 18.0981L31.0003 15.8453V12.9282L26.7993 5.65186L22.7321 8.00001H19.7325L16.2888 6.01176L9.14152 7.92682ZM16.9075 8.67839L10.5859 15L11.2929 15.7071C13.2281 17.6426 16.1931 17.3933 19.0343 15.8441L23.5268 18.9897C23.3007 19.2617 23.0562 19.5298 22.793 19.793L19.5882 22.9979L12.6572 21.1407L9.85817 19.1808C8.27175 18.07 7.16019 16.743 6.50563 15.3204L9.65915 9.85868L16.0062 8.15802L16.9075 8.67839ZM7.63419 9.36597L4.16989 15.366L3 14.6905V13.464L5.93305 8.38383L7.63419 9.36597ZM18.4143 10H22.4227L25.4612 15.2625C25.2918 15.961 25.0239 16.6562 24.6538 17.3374L19.1237 13.4651L18.5652 13.806C16.4244 15.1125 14.7127 15.3194 13.5608 14.8535L18.4143 10ZM29.0003 14.6906L27.8304 15.366L24.3661 9.36603L26.0673 8.38389L29.0003 13.4641V14.6906Z" fill="#000000" class="bmwfcol"/><path d="M6 24.3218V21.8803L10.6563 25.1407L16 26.5725V28.6431L9.79805 26.9813L6 24.3218Z" fill="#000000" class="bmwfcol"/><title>agreement_rg_48</title></svg>