<svg width="48" height="48" viewBox="0 0 32 32" xmlns="http://www.w3.org/2000/svg"><path d="M7.07762 2C6.74577 2.99413 6.49995 3.71636 6.25825 4.28032C5.99971 4.88357 5.77191 5.24066 5.50628 5.50628C5.24066 5.77191 4.88357 5.99972 4.28032 6.25825C3.71636 6.49995 2.99413 6.74577 2 7.07762V8.92238C2.99413 9.25423 3.71636 9.50006 4.28032 9.74175C4.88357 10.0003 5.24066 10.2281 5.50628 10.4937C5.77191 10.7593 5.99971 11.1164 6.25825 11.7197C6.49995 12.2836 6.74577 13.0059 7.07762 14H8.92238C9.25423 13.0059 9.50005 12.2836 9.74175 11.7197C10.0003 11.1164 10.2281 10.7593 10.4937 10.4937C10.7593 10.2281 11.1164 10.0003 11.7197 9.74175C12.2836 9.50006 13.0059 9.25423 14 8.92238V7.07762C13.0059 6.74577 12.2836 6.49995 11.7197 6.25825C11.1164 5.99971 10.7593 5.77191 10.4937 5.50628C10.2281 5.24066 10.0003 4.88357 9.74175 4.28032C9.50005 3.71636 9.25423 2.99413 8.92238 2H7.07762ZM4.96968 8.13325C4.866 8.08881 4.75818 8.04449 4.64611 8C4.75818 7.95552 4.866 7.91119 4.96968 7.86675C5.67893 7.56279 6.25934 7.22809 6.74372 6.74372C7.22809 6.25934 7.56279 5.67893 7.86675 4.96968C7.91119 4.866 7.95552 4.75818 8 4.64611C8.04449 4.75818 8.08881 4.866 8.13325 4.96968C8.43721 5.67893 8.77191 6.25934 9.25628 6.74372C9.74066 7.22809 10.3211 7.56279 11.0303 7.86675C11.134 7.91119 11.2418 7.95552 11.3539 8C11.2418 8.04449 11.134 8.08881 11.0303 8.13325C10.3211 8.43722 9.74066 8.77191 9.25628 9.25628C8.77191 9.74066 8.43721 10.3211 8.13325 11.0303C8.08881 11.134 8.04449 11.2418 8 11.3539C7.95552 11.2418 7.91119 11.134 7.86675 11.0303C7.56279 10.3211 7.22809 9.74066 6.74372 9.25628C6.25934 8.77191 5.67893 8.43722 4.96968 8.13325Z" fill="#000000" class="bmwfcol"/><path d="M22.0249 6C21.6329 7.17474 21.3422 8.03032 21.056 8.69812C20.7519 9.40772 20.4803 9.83655 20.1584 10.1584C19.8365 10.4803 19.4077 10.7519 18.6981 11.056C18.0303 11.3422 17.1747 11.6329 16 12.0249V13.9751C17.1747 14.3671 18.0303 14.6578 18.6981 14.944C19.4077 15.2481 19.8366 15.5197 20.1584 15.8416C20.4803 16.1634 20.7519 16.5923 21.056 17.3019C21.3422 17.9697 21.6329 18.8253 22.0249 20H23.9751C24.3671 18.8253 24.6578 17.9697 24.944 17.3019C25.2481 16.5923 25.5197 16.1634 25.8416 15.8416C26.1634 15.5197 26.5923 15.2481 27.3019 14.944C27.9697 14.6578 28.8253 14.3671 30 13.9751V12.0249C28.8253 11.6329 27.9697 11.3422 27.3019 11.056C26.5923 10.7519 26.1634 10.4803 25.8416 10.1584C25.5197 9.83655 25.2481 9.40772 24.944 8.69812C24.6578 8.03032 24.3671 7.17474 23.9751 6H22.0249ZM19.4269 13.2435C19.2377 13.1625 19.0367 13.0817 18.8231 13C19.0367 12.9183 19.2377 12.8375 19.4269 12.7565C20.2485 12.4043 20.9134 12.0197 21.4666 11.4666C22.0197 10.9134 22.4043 10.2485 22.7565 9.42688C22.8375 9.23775 22.9183 9.03671 23 8.8231C23.0817 9.03671 23.1625 9.23775 23.2435 9.42688C23.5957 10.2485 23.9803 10.9134 24.5334 11.4666C25.0866 12.0197 25.7515 12.4043 26.5731 12.7565C26.7623 12.8375 26.9633 12.9183 27.1769 13C26.9633 13.0817 26.7623 13.1625 26.5731 13.2435C25.7515 13.5957 25.0866 13.9803 24.5334 14.5334C23.9803 15.0866 23.5957 15.7515 23.2435 16.5731C23.1625 16.7623 23.0817 16.9633 23 17.1769C22.9183 16.9633 22.8375 16.7623 22.7565 16.5731C22.4043 15.7515 22.0197 15.0866 21.4666 14.5334C20.9134 13.9803 20.2485 13.5957 19.4269 13.2435Z" fill="#000000" class="bmwfcol"/><path d="M10.3307 17.1061C10.6603 16.337 10.9948 15.3514 11.4457 14H13.554C14.005 15.3514 14.3394 16.337 14.669 17.1061C15.0181 17.9205 15.332 18.4179 15.707 18.7929C16.082 19.1679 16.5794 19.4818 17.3938 19.8309C18.1629 20.1605 19.1485 20.4949 20.4999 20.9459V23.0541C19.1485 23.5051 18.1629 23.8395 17.3938 24.1691C16.5794 24.5182 16.082 24.8321 15.707 25.2071C15.332 25.5821 15.0181 26.0795 14.669 26.8939C14.3394 27.663 14.005 28.6486 13.554 30H11.4457C10.9948 28.6486 10.6603 27.663 10.3307 26.8939C9.9817 26.0795 9.66777 25.5821 9.29277 25.2071C8.91777 24.8321 8.42038 24.5182 7.60596 24.1691C6.83686 23.8395 5.85128 23.5051 4.49988 23.0541V20.9459C5.85128 20.4949 6.83686 20.1605 7.60596 19.8309C8.42038 19.4818 8.91777 19.1679 9.29277 18.7929C9.66777 18.4179 9.9817 17.9205 10.3307 17.1061ZM7.56512 22C7.86154 22.1114 8.13731 22.2209 8.3938 22.3309C9.32937 22.7318 10.082 23.1679 10.707 23.7929C11.332 24.4179 11.7681 25.1705 12.169 26.1061C12.2789 26.3626 12.3884 26.6383 12.4999 26.9348C12.6113 26.6383 12.7208 26.3626 12.8307 26.1061C13.2317 25.1705 13.6678 24.4179 14.2928 23.7929C14.9178 23.1679 15.6704 22.7318 16.606 22.3309C16.8625 22.2209 17.1382 22.1114 17.4346 22C17.1382 21.8886 16.8625 21.7791 16.606 21.6691C15.6704 21.2682 14.9178 20.8321 14.2928 20.2071C13.6678 19.5821 13.2317 18.8295 12.8307 17.8939C12.7208 17.6374 12.6113 17.3617 12.4999 17.0652C12.3884 17.3617 12.2789 17.6374 12.169 17.8939C11.7681 18.8295 11.332 19.5821 10.707 20.2071C10.082 20.8321 9.32937 21.2682 8.3938 21.6691C8.13731 21.7791 7.86154 21.8886 7.56512 22Z" fill="#000000" class="bmwfcol"/><title>ai_sparks_rg_48</title></svg>