<svg width="48" height="48" viewBox="0 0 32 32" xmlns="http://www.w3.org/2000/svg"><path d="M7.5 12.0026C6.39677 12.0099 5.62142 12.037 4.99185 12.1375C4.01997 12.2925 3.38894 12.6207 2.5 13.134L2.00011 13.4226L2 13.9998C1.9998 15.0737 2.2736 17.5806 4.50002 18.866C5.53611 19.4642 6.44854 19.7469 7.5 19.8805V17.8606C6.76557 17.7436 6.18378 17.5287 5.50002 17.134C4.49297 16.5525 4.13152 15.4557 4.03188 14.5682C4.53195 14.3017 4.8539 14.1848 5.30698 14.1125C5.79682 14.0343 6.43036 14.0104 7.5 14.0031V12.0026Z" fill="#000000" class="bmwfcol"/><path d="M12.5 18H13.9998C14.3725 18 14.6055 17.8801 14.7427 17.7429C14.8799 17.6057 14.9998 17.3727 14.9998 17V14.9142L14.0856 14H12.5V12H14.914L16 13.086L17.086 12H19.5V14H17.9144L17.0002 14.9142V17C17.0002 17.3727 17.1201 17.6057 17.2573 17.7429C17.3945 17.8801 17.6275 18 18.0002 18H19.5V20L18.0002 20C17.2475 20 16.5445 19.7681 16 19.3023C15.4555 19.7681 14.7525 20 13.9998 20L12.5 20V18Z" fill="#000000" class="bmwfcol"/><path d="M24.5 12.0026C25.6032 12.0099 26.3786 12.037 27.0081 12.1375C27.98 12.2925 28.6111 12.6207 29.5 13.134L29.9999 13.4226L30 13.9998C30.0002 15.0737 29.7264 17.5806 27.5 18.866C26.4639 19.4642 25.5515 19.7469 24.5 19.8805V17.8606C25.2344 17.7436 25.8162 17.5287 26.5 17.134C27.507 16.5525 27.8685 15.4557 27.9681 14.5682C27.4681 14.3017 27.1461 14.1848 26.693 14.1125C26.2032 14.0343 25.5696 14.0104 24.5 14.0031V12.0026Z" fill="#000000" class="bmwfcol"/><path d="M29.4147 28H26.5863L25.2725 26.6862C24.2901 25.7038 23.5248 24.9385 22.9447 24.2939C22.3586 23.6427 21.915 23.0649 21.6061 22.4472C20.9993 21.2336 20.9998 20.0079 21.0005 18.1887L21.0005 7.23718L18.0004 10.2373V7.76239L22.0003 3.76253L26.0004 7.76266V10.2375L23.0005 7.23762V18C23.0005 20.0759 23.0225 20.8078 23.3949 21.5528C23.5861 21.935 23.8924 22.3573 24.4313 22.956C24.9721 23.5569 25.7 24.2853 26.7076 25.2929L29.4147 28Z" fill="#000000" class="bmwfcol"/><path d="M2.58577 28H5.4142L6.728 26.6862C7.71035 25.7038 8.47567 24.9385 9.05578 24.2939C9.64193 23.6427 10.0855 23.0649 10.3944 22.4472C11.0012 21.2336 11.0007 20.0079 11 18.1887L11 7.23741L13.9998 10.2373V7.76238L9.99997 3.76251L5.99984 7.76265L5.99984 10.2375L8.99999 7.23737V18C8.99999 20.0759 8.97803 20.8078 8.60556 21.5528C8.41443 21.935 8.10805 22.3573 7.56919 22.956C7.02842 23.5569 6.30046 24.2853 5.29288 25.2929L2.58577 28Z" fill="#000000" class="bmwfcol"/><title>air-vent-control_rg_48</title></svg>