<svg width="48" height="48" viewBox="0 0 32 32" xmlns="http://www.w3.org/2000/svg"><path d="M24.8429 5.84289C25.4057 5.28011 26.1728 5 27 5C27.8272 5 28.5943 5.28011 29.1571 5.84289C29.7199 6.40567 30 7.17275 30 8C30 8.82725 29.7199 9.59433 29.1571 10.1571C28.5943 10.7199 27.8272 11 27 11C26.1728 11 25.4057 10.7199 24.8429 10.1571C24.2801 9.59433 24 8.82725 24 8C24 7.17275 24.2801 6.40567 24.8429 5.84289ZM26.2571 7.25711C26.1199 7.39433 26 7.62725 26 8C26 8.37275 26.1199 8.60567 26.2571 8.74289C26.3943 8.88011 26.6272 9 27 9C27.3728 9 27.6057 8.88011 27.7429 8.74289C27.8801 8.60567 28 8.37275 28 8C28 7.62725 27.8801 7.39433 27.7429 7.25711C27.6057 7.11989 27.3728 7 27 7C26.6272 7 26.3943 7.11989 26.2571 7.25711Z" fill="#000000" class="bmwfcol"/><path d="M9.95784 28H7.64844L12.8447 18.9998H13.6669L18.7132 20.3519L24.1465 10.9413L24.8587 11.0947C25.7478 11.2862 26.6345 11.6332 27.4981 12.1318C28.3634 12.6314 29.1084 13.227 29.7194 13.9028L30.2077 14.4428L26.7108 20.4998C26.1615 21.4511 25.6717 22.2816 24.6705 22.6792C23.501 23.1436 22.0965 22.9998 20.8675 22.9998L13.9196 21.138L9.95784 28ZM21.1308 20.9998C21.9493 20.9996 22.5444 20.9979 23.0114 20.9703C23.505 20.941 23.7666 20.8862 23.9324 20.8204C24.1903 20.7179 24.3733 20.5484 24.9787 19.4998L27.7262 14.7409C27.3692 14.4251 26.9602 14.1306 26.4981 13.8639C26.0375 13.5979 25.5793 13.3914 25.1286 13.2402L20.7132 20.8878L21.1308 20.9998Z" fill="#000000" class="bmwfcol"/><path d="M20 8.61843V6.54959C15.9424 7.62388 13.509 8.22196 11.4067 8.56017C8.68428 8.99813 6.51658 9.00041 2 9.00041V11.0004C5.24612 11.0004 8.50923 11.052 11.7243 10.5348C13.8274 10.1964 16.2312 9.61232 20 8.61843Z" fill="#000000" class="bmwfcol"/><path d="M10 19.2374V21.5132C8.54851 20.7139 7.48275 20.1679 6.61736 19.7923C5.67038 19.3812 5.00282 19.1927 4.35802 19.0989C3.69116 19.002 3.01719 19 2 19V17C2.88258 17 3.7703 16.9924 4.64588 17.1198C5.50496 17.2447 6.34519 17.4938 7.41378 17.9577C8.12987 18.2685 8.96599 18.6842 10 19.2374Z" fill="#000000" class="bmwfcol"/><path d="M2 15H16V13H2V15Z" fill="#000000" class="bmwfcol"/><title>air-conditioning-service_rg_48</title></svg>