<svg width="48" height="48" viewBox="0 0 32 32" xmlns="http://www.w3.org/2000/svg"><path d="M10 7H18V5H10V7Z" fill="#000000" class="bmwfcol"/><path d="M10.5 10C10.5 9.17157 11.1716 8.5 12 8.5C12.8284 8.5 13.5 9.17157 13.5 10C13.5 10.8284 12.8284 11.5 12 11.5C11.1716 11.5 10.5 10.8284 10.5 10Z" fill="#000000" class="bmwfcol"/><path d="M16 8.5C15.1716 8.5 14.5 9.17157 14.5 10C14.5 10.8284 15.1716 11.5 16 11.5C16.8284 11.5 17.5 10.8284 17.5 10C17.5 9.17157 16.8284 8.5 16 8.5Z" fill="#000000" class="bmwfcol"/><path d="M10.5 14C10.5 13.1716 11.1716 12.5 12 12.5C12.8284 12.5 13.5 13.1716 13.5 14C13.5 14.8284 12.8284 15.5 12 15.5C11.1716 15.5 10.5 14.8284 10.5 14Z" fill="#000000" class="bmwfcol"/><path d="M16 12.5C15.1716 12.5 14.5 13.1716 14.5 14C14.5 14.8284 15.1716 15.5 16 15.5C16.8284 15.5 17.5 14.8284 17.5 14C17.5 13.1716 16.8284 12.5 16 12.5Z" fill="#000000" class="bmwfcol"/><path d="M10.5 18C10.5 17.1716 11.1716 16.5 12 16.5C12.8284 16.5 13.5 17.1716 13.5 18C13.5 18.8284 12.8284 19.5 12 19.5C11.1716 19.5 10.5 18.8284 10.5 18Z" fill="#000000" class="bmwfcol"/><path d="M16 16.5C15.1716 16.5 14.5 17.1716 14.5 18C14.5 18.8284 15.1716 19.5 16 19.5C16.8284 19.5 17.5 18.8284 17.5 18C17.5 17.1716 16.8284 16.5 16 16.5Z" fill="#000000" class="bmwfcol"/><path d="M10.5 22C10.5 21.1716 11.1716 20.5 12 20.5C12.8284 20.5 13.5 21.1716 13.5 22C13.5 22.8284 12.8284 23.5 12 23.5C11.1716 23.5 10.5 22.8284 10.5 22Z" fill="#000000" class="bmwfcol"/><path d="M16 20.5C15.1716 20.5 14.5 21.1716 14.5 22C14.5 22.8284 15.1716 23.5 16 23.5C16.8284 23.5 17.5 22.8284 17.5 22C17.5 21.1716 16.8284 20.5 16 20.5Z" fill="#000000" class="bmwfcol"/><path d="M18 27H10V25H18V27Z" fill="#000000" class="bmwfcol"/><path d="M9 12.0149V9.77996C7.21494 8.87338 5.10049 7.70746 2.49928 6.20565L2 5.91739V8.22611C4.80714 9.83902 7.07404 11.073 9 12.0149Z" fill="#000000" class="bmwfcol"/><path d="M19 17.0687C20.2059 17 21.4743 17 22.9346 17H23.9993V20.0858L28.0851 16L23.9993 11.9142V15H22.9346C21.4743 15 20.2059 15 19 14.9313V12.9275C19.9123 12.9829 20.8852 12.996 21.9993 12.999V8.99998L23.9135 8.99998L30.9135 16L23.9135 23H21.9993L21.9993 19.0009C20.8852 19.004 19.9123 19.0171 19 19.0724V17.0687Z" fill="#000000" class="bmwfcol"/><path d="M2 23.7739V26.0826L2.49927 25.7943C5.10048 24.2925 7.21493 23.1266 9 22.22V19.9851C7.07404 20.927 4.80714 22.1609 2 23.7739Z" fill="#000000" class="bmwfcol"/><title>air-filter-service_rg_48</title></svg>