<svg width="48" height="48" viewBox="0 0 32 32" xmlns="http://www.w3.org/2000/svg"><path d="M27.7627 23L24.7627 26H27.2376L31.2376 22L27.2376 18H24.7627L27.7627 21L16 21V23H27.7627Z" fill="#000000" class="bmwfcol"/><path d="M30 8.42066V6.06619C28.4482 6.96773 26.7422 8.24422 24.5998 10.0312C18.3197 10.5802 14.9523 10.8763 12.3623 11.5166C9.66886 12.1825 7.81636 13.2194 4.50026 15.134L4.0003 15.4226L4 20.005L5.00173 20.0033C5.54398 20.0024 5.79376 20.0097 5.9798 20.0604C6.0864 20.0895 6.18812 20.1343 6.34054 20.3424C6.44602 20.4865 6.56425 20.6947 6.69961 21L1 21V23H7.39952C7.49119 23.3048 7.58745 23.6373 7.68938 24H5L5 26H12.5278C13.6264 27.2275 15.223 28 17 28C19.2208 28 21.1599 26.7934 22.1973 25H19.6458C18.9407 25.6224 18.0144 26 17 26C14.7909 26 13 24.2091 13 22C13 19.7909 14.7909 18 17 18C18.0144 18 18.9407 18.3776 19.6458 19H22.1973C21.1599 17.2066 19.2208 16 17 16C13.6863 16 11 18.6863 11 22C11 22.7013 11.1203 23.3744 11.3414 24H9.76501C9.44977 22.8513 9.17697 21.9333 8.92258 21.2035C8.62018 20.3361 8.31897 19.6591 7.95423 19.1609C7.55752 18.6191 7.08553 18.2889 6.50573 18.1308C6.34084 18.0859 6.17063 18.0566 6.00013 18.0376L6.00023 16.5778C9.00523 14.849 10.5827 14.0168 12.8422 13.4582C15.2845 12.8544 18.5222 12.5701 25.0874 11.9962L25.4015 11.9687L25.6431 11.7661C27.3864 10.3033 28.7861 9.22294 30 8.42066Z" fill="#000000" class="bmwfcol"/><title>air-curtain_rg_48</title></svg>