<svg width="48" height="48" viewBox="0 0 32 32" xmlns="http://www.w3.org/2000/svg"><path d="M11 4C9.57275 4 8.30567 4.48011 7.39289 5.39289C6.48011 6.30567 6 7.57275 6 9C6 10.4272 6.48011 11.6943 7.39289 12.6071C8.30567 13.5199 9.57275 14 11 14C12.4272 14 13.6943 13.5199 14.6071 12.6071C15.5199 11.6943 16 10.4272 16 9C16 7.57275 15.5199 6.30567 14.6071 5.39289C13.6943 4.48011 12.4272 4 11 4ZM8 9C8 8.02725 8.31989 7.29433 8.80711 6.80711C9.29433 6.31989 10.0272 6 11 6C11.9728 6 12.7057 6.31989 13.1929 6.80711C13.6801 7.29433 14 8.02725 14 9C14 9.97275 13.6801 10.7057 13.1929 11.1929C12.7057 11.6801 11.9728 12 11 12C10.0272 12 9.29433 11.6801 8.80711 11.1929C8.31989 10.7057 8 9.97275 8 9Z" fill="#000000" class="bmwfcol"/><path d="M19.8429 5.84289C20.4057 5.28011 21.1728 5 22 5C22.8272 5 23.5943 5.28011 24.1571 5.84289C24.7199 6.40567 25 7.17275 25 8C25 8.82725 24.7199 9.59433 24.1571 10.1571C23.5943 10.7199 22.8272 11 22 11C21.1728 11 20.4057 10.7199 19.8429 10.1571C19.2801 9.59433 19 8.82725 19 8C19 7.17275 19.2801 6.40567 19.8429 5.84289ZM21.2571 7.25711C21.1199 7.39433 21 7.62725 21 8C21 8.37275 21.1199 8.60567 21.2571 8.74289C21.3943 8.88011 21.6272 9 22 9C22.3728 9 22.6057 8.88011 22.7429 8.74289C22.8801 8.60567 23 8.37275 23 8C23 7.62725 22.8801 7.39433 22.7429 7.25711C22.6057 7.11989 22.3728 7 22 7C21.6272 7 21.3943 7.11989 21.2571 7.25711Z" fill="#000000" class="bmwfcol"/><path d="M26.2035 12.5617L26.4615 12.847L30 10.804V8.49463L24.9673 11.4003C25.4135 11.7576 25.8269 12.1451 26.2035 12.5617Z" fill="#000000" class="bmwfcol"/><path d="M20.0435 22.4994C20.8033 22.0598 21.2351 21.3254 21.7116 20.5L25.2086 14.4431L24.7202 13.903C24.1092 13.2273 23.3643 12.6316 22.499 12.1321C21.6353 11.6334 20.7486 11.2864 19.8596 11.0949L19.1473 10.9415L16.2268 16H18.5362L20.1294 13.2404C20.5802 13.3916 21.0383 13.5982 21.499 13.8641C21.961 14.1309 22.37 14.4253 22.7271 14.7412L19.9796 19.5C19.7596 19.8809 19.5954 20.1459 19.4632 20.3337L20.0435 22.4994Z" fill="#000000" class="bmwfcol"/><path d="M13.2211 20.2201L8.66777 19H7.84556L2.64941 28H4.95881L8.92044 21.1383L13.8188 22.4508L13.2211 20.2201Z" fill="#000000" class="bmwfcol"/><path d="M17.3761 28L14.6967 18H16.7672L19.4467 28H17.3761Z" fill="#000000" class="bmwfcol"/><title>airbag_rg_48</title></svg>