<svg width="48" height="48" viewBox="0 0 32 32" xmlns="http://www.w3.org/2000/svg"><path d="M25.9039 5.81305C25.4359 5.87986 24.766 6.09212 23.9789 6.56437C22.336 7.5501 21.7145 8.16431 18.6265 11.2524C18.6246 11.2543 18.6226 11.2562 18.6207 11.2581L18.2526 11.6262L5.62912 9.40033L5.43876 9.59069L13.2042 12.4171L15.3357 14.5485L14.6235 15.2552L14.6197 15.259L14.603 15.2759C14.5874 15.2916 14.5633 15.3162 14.531 15.3495C14.4665 15.4162 14.3697 15.5177 14.2448 15.6525C13.9949 15.9223 13.6332 16.3253 13.1942 16.8497C12.3155 17.8991 11.1302 19.4312 9.91262 21.3519L9.51911 21.9726L5.4586 20.8845L5.29926 21.0439L8.62618 23.3738L10.9561 26.7008L11.1155 26.5414L10.0274 22.4809L10.6481 22.0874C12.5688 20.8698 14.1009 19.6845 15.1503 18.8058C15.6747 18.3668 16.0777 18.0051 16.3475 17.7553C16.4824 17.6304 16.5839 17.5335 16.6505 17.469C16.6838 17.4367 16.7084 17.4126 16.7242 17.3971L16.741 17.3803L16.7444 17.377L17.4515 16.6644L19.5829 18.7958L22.4093 26.5613L22.5997 26.3709L20.3739 13.7477L20.7795 13.3417C23.8338 10.2874 24.4546 9.65621 25.4356 8.02111C25.9079 7.23404 26.1202 6.56409 26.187 6.09612C26.2044 5.97373 26.2111 5.87122 26.2115 5.78847C26.1288 5.78889 26.0263 5.79557 25.9039 5.81305ZM17.4321 19.4734C17.1672 19.7123 16.8331 20.0054 16.4342 20.3393C15.4465 21.1663 14.0585 22.2464 12.3381 23.3769L13.3462 27.1391L10.6851 29.8002L7.19017 24.8098L2.19979 21.3149L4.8609 18.6538L8.62307 19.6619C9.75357 17.9415 10.8337 16.5535 11.6607 15.5658C11.9946 15.1669 12.2877 14.8328 12.5267 14.5679L12.1035 14.1448L1.80469 10.3964L4.9511 7.24992L17.5746 9.47579C17.6629 9.38756 17.7491 9.30135 17.8335 9.2171C20.3855 6.66774 21.1944 5.9027 22.9499 4.84939C23.9306 4.26094 24.8517 3.94298 25.6212 3.83312C26.004 3.77847 26.3723 3.7721 26.7031 3.82436C27.0062 3.87225 27.4037 3.98942 27.7071 4.29287C28.0106 4.59631 28.1278 4.99384 28.1757 5.29692C28.2279 5.62769 28.2215 5.99599 28.1669 6.37878C28.057 7.14828 27.7391 8.06937 27.1506 9.05011C26.0635 10.8619 25.2769 11.672 22.5242 14.4254L24.7501 27.0489L21.6037 30.1953L17.8552 19.8965L17.4321 19.4734Z" fill="#000000" class="bmwfcol"/><title>airplane_rg_48</title></svg>