<svg width="48" height="48" viewBox="0 0 32 32" xmlns="http://www.w3.org/2000/svg"><path d="M16 3C8.8203 3 3 8.8203 3 16C3 23.1797 8.8203 29 16 29C23.1797 29 29 23.1797 29 16C29 8.8203 23.1797 3 16 3ZM5 16C5 9.92487 9.92487 5 16 5C22.0751 5 27 9.92487 27 16C27 21.1726 23.4297 25.5113 18.6191 26.6863C22.7534 23.6563 24.5 19.6343 24.5 16C24.5 11.3056 20.6944 7.5 16 7.5C11.3056 7.5 7.5 11.3056 7.5 16C7.5 19.3012 9.38218 22.1612 12.1273 23.5683C12.701 23.8624 13 24.3354 13 24.7532V26.5859C8.38299 25.2801 5 21.0351 5 16ZM9.5 16C9.5 12.4101 12.4101 9.5 16 9.5C19.5899 9.5 22.5 12.4101 22.5 16C22.5 19.5195 20.4904 23.7749 15 26.5614V24.7532C15 23.3716 14.0671 22.3152 13.0397 21.7885C10.936 20.7102 9.5 18.5219 9.5 16Z" fill="#000000" class="bmwfcol"/><title>amazon_alexa_car_integration_rg_48</title></svg>