<svg width="48" height="48" viewBox="0 0 32 32" xmlns="http://www.w3.org/2000/svg"><path d="M13 21H10.4646C10.2219 19.3038 8.76323 18 7 18C5.28168 18 3.85257 19.2383 3.55634 20.8712C3.40571 20.8358 3.22406 20.7907 3.00009 20.7329L3.00021 18.5788C3.89751 18.0682 4.38084 17.836 5.19911 17.6541C6.24237 17.4222 7.78642 17.2848 11.0873 16.9962L11.4015 16.9687L11.643 16.766C13.4192 15.2757 14.4221 14.6338 15.347 14.3229C16.2773 14.0101 17.2068 14 19 14C20.5964 14 21.7104 14.2195 22.8035 14.6436C23.8868 15.0639 24.966 15.6887 26.5146 16.5852L26.9239 16.8221L28 16.9163L28 17.0203C27.9999 17.2808 27.9997 17.6916 28.1966 18.1839C28.3537 18.5768 28.6134 18.9704 29.0001 19.3994L29.0002 20.4164L28.9202 20.4601L29 20.5V22.6428C29.4383 22.4631 29.909 22.2074 30.5002 21.866L31.0003 21.5773L31 18.5857L30.7071 18.2929C30.2594 17.8452 30.1095 17.5812 30.0535 17.4411C30.0056 17.3214 30 17.2408 30 16.9999L29.9999 15.0836L27.5411 14.8685L27.4483 14.8147C25.9682 13.9574 24.76 13.2574 23.5269 12.779C22.1754 12.2547 20.8122 12 19 12L18.8866 12C17.2361 11.9998 15.9815 11.9996 14.7097 12.4271C13.4632 12.8461 12.2706 13.6468 10.6006 15.0311C7.57816 15.2954 5.93254 15.4423 4.76518 15.7017C3.4897 15.9852 2.75292 16.4106 1.54774 17.1065L1.00027 17.4226L1 22.2707L1.74122 22.4693C2.66139 22.7158 3.19989 22.8509 3.58273 22.9214C3.66771 22.937 3.7455 22.9496 3.81794 22.9596C4.37121 24.1638 5.58795 25 7 25C8.3962 25 9.60146 24.1825 10.1632 23H13V21ZM7 20C7.82843 20 8.5 20.6716 8.5 21.5C8.5 22.3284 7.82843 23 7 23C6.17157 23 5.5 22.3284 5.5 21.5C5.5 20.6716 6.17157 20 7 20Z" fill="#000000" class="bmwfcol"/><path d="M21.875 22.5V19H20.125V22.5H21.875Z" fill="#000000" class="bmwfcol"/><path d="M21.875 25V23.5H20.125V25H21.875Z" fill="#000000" class="bmwfcol"/><path d="M21 16C19.2728 16 17.7557 16.5801 16.6679 17.6679C15.5801 18.7557 15 20.2728 15 22C15 23.7272 15.5801 25.2443 16.6679 26.3321C17.7557 27.4199 19.2728 28 21 28C22.3661 28 23.5626 27.605 24.5202 26.9344L27.293 29.7071L28.7072 28.2929L25.9299 25.5156C26.617 24.5237 27 23.3065 27 22C27 20.2728 26.4199 18.7557 25.3321 17.6679C24.2443 16.5801 22.7272 16 21 16ZM17 22C17 20.7272 17.4199 19.7443 18.0821 19.0821C18.7443 18.4199 19.7272 18 21 18C22.2728 18 23.2557 18.4199 23.9179 19.0821C24.5801 19.7443 25 20.7272 25 22C25 24.241 23.4164 26 21 26C19.7272 26 18.7443 25.5801 18.0821 24.9179C17.4199 24.2557 17 23.2728 17 22Z" fill="#000000" class="bmwfcol"/><title>analysis-of-warning-messages_rg_48</title></svg>