<svg width="48" height="48" viewBox="0 0 32 32" xmlns="http://www.w3.org/2000/svg"><path d="M8.68925 5.53506C9.84347 4.34787 11.4144 4 13 4C14.5856 4 16.1565 4.34787 17.3107 5.53506C18.4557 6.71278 19 8.52161 19 11C19 13.4784 18.4557 15.2872 17.3107 16.4649C16.1565 17.6521 14.5856 18 13 18C11.4144 18 9.84347 17.6521 8.68925 16.4649C7.54425 15.2872 7 13.4784 7 11C7 8.52161 7.54425 6.71278 8.68925 5.53506ZM10.1232 6.92922C9.49742 7.57293 9 8.7641 9 11C9 13.2359 9.49742 14.4271 10.1232 15.0708C10.7399 15.705 11.6689 16 13 16C14.3311 16 15.2601 15.705 15.8768 15.0708C16.5026 14.4271 17 13.2359 17 11C17 8.7641 16.5026 7.57293 15.8768 6.92922C15.2601 6.29499 14.3311 6 13 6C11.6689 6 10.7399 6.29499 10.1232 6.92922Z" fill="#000000" class="bmwfcol"/><path d="M4.69661 26H2.625L2.69435 25.7412C3.35653 23.2699 4.02588 21.5692 5.77204 20.7247C6.59113 20.3286 7.56656 20.1616 8.70481 20.0806C9.83935 20 11.2436 20 12.9631 20H13.0364C14.7559 20 16.1601 20 17.2946 20.0806C18.4329 20.1616 19.4083 20.3286 20.2274 20.7247C21.9736 21.5692 22.6429 23.2699 23.3051 25.7412L23.3745 26H21.3028C20.6603 23.6747 20.166 22.9166 19.3567 22.5253C18.8834 22.2964 18.2126 22.1509 17.1528 22.0756C16.0974 22.0006 14.7635 22 12.9997 22C11.236 22 9.90209 22.0006 8.84662 22.0756C7.78681 22.1509 7.11608 22.2964 6.64277 22.5253C5.83345 22.9166 5.33916 23.6747 4.69661 26Z" fill="#000000" class="bmwfcol"/><path d="M26.0035 12.0353C25.7118 12.3403 25.5924 12.6055 25.5129 12.8176H23.3648C23.4974 12.3668 23.736 11.9027 24.0941 11.4518C24.4653 10.9877 25.062 10.3513 25.4864 9.91367C25.8311 9.55565 26.1626 9.09155 26.1626 8.57441C26.1626 8.29595 26.0963 8.03075 25.8444 7.83185C25.5792 7.61969 25.1681 7.57991 24.5449 7.57991C23.6963 7.57991 22.8609 7.75229 22.0918 7.91141V6.14783C22.715 6.00197 23.6963 5.77655 24.9162 5.77655C25.9239 5.77655 26.64 5.96219 27.2367 6.42629C27.7936 6.85061 28.1516 7.61969 28.1516 8.32247C28.1516 9.22415 27.9395 9.79433 27.2367 10.6562C26.8654 11.1071 26.4543 11.5579 26.0035 12.0353Z" fill="#000000" class="bmwfcol"/><path d="M25.5129 13.6397V16H23.3648V13.6397H25.5129Z" fill="#000000" class="bmwfcol"/><title>anonymous_rg_48</title></svg>