<svg width="48" height="48" viewBox="0 0 32 32" xmlns="http://www.w3.org/2000/svg"><path d="M14.9202 17.6869C15.0941 17.8657 15.3982 18 16.0001 18C16.602 18 16.906 17.8657 17.08 17.6869C17.2631 17.4985 17.5001 17.0573 17.5001 16H19.5001C19.5001 17.2998 19.2162 18.3586 18.5139 19.081C17.8024 19.8128 16.8565 20 16.0001 20C15.1437 20 14.1977 19.8128 13.4862 19.081C12.7839 18.3586 12.5001 17.2998 12.5001 16H14.5001C14.5001 17.0573 14.7371 17.4985 14.9202 17.6869Z" fill="#000000" class="bmwfcol"/><path d="M12.5001 13H9.7396L8.99976 21.4565L9.00023 23H22.9998L23.0002 21.4565L22.2604 13H19.5001C19.5001 11.7002 19.2162 10.6414 18.5139 9.91899C17.8024 9.18715 16.8565 9 16.0001 9C15.1437 9 14.1977 9.18715 13.4862 9.91899C12.7839 10.6414 12.5001 11.7002 12.5001 13ZM14.5001 13C14.5001 11.9427 14.7371 11.5015 14.9202 11.3131C15.0941 11.1343 15.3982 11 16.0001 11C16.602 11 16.906 11.1343 17.08 11.3131C17.2631 11.5015 17.5001 11.9427 17.5001 13H14.5001ZM11.0473 21L11.5723 15H20.4277L20.9527 21H11.0473Z" fill="#000000" class="bmwfcol"/><path d="M11 4C8.84586 4 7.04657 4.53921 5.79289 5.79289C4.53921 7.04657 4 8.84586 4 11V21C4 23.1541 4.53921 24.9534 5.79289 26.2071C7.04657 27.4608 8.84586 28 11 28H21C23.1541 28 24.9534 27.4608 26.2071 26.2071C27.4608 24.9534 28 23.1541 28 21V11C28 8.84586 27.4608 7.04657 26.2071 5.79289C24.9534 4.53921 23.1541 4 21 4H11ZM6 11C6 9.15414 6.46079 7.95343 7.20711 7.20711C7.95343 6.46079 9.15415 6 11 6H21C22.8459 6 24.0466 6.46079 24.7929 7.20711C25.5392 7.95343 26 9.15414 26 11V21C26 22.8459 25.5392 24.0466 24.7929 24.7929C24.0466 25.5392 22.8459 26 21 26H11C9.15415 26 7.95343 25.5392 7.20711 24.7929C6.46079 24.0466 6 22.8459 6 21V11Z" fill="#000000" class="bmwfcol"/><title>app-store_rg_48</title></svg>