<svg width="48" height="48" viewBox="0 0 32 32" xmlns="http://www.w3.org/2000/svg"><path d="M19.4994 30C19.2493 30 18.9986 29.981 18.7563 29.9348C19.3291 29.3496 19.8405 28.7008 20.2784 28H25.4995C25.7717 28 25.9248 27.9627 25.9995 27.9356V19C25.9995 18.0105 25.9987 17.4802 25.8278 16.5195C25.6496 15.5175 25.2876 14.06 24.537 11.2588C23.7912 8.47533 23.4033 6.93323 23.2057 5.83227C23.0744 5.10061 23.0266 4.55998 23.0093 4H21.9896C21.9722 4.55998 21.9245 5.10061 21.7932 5.83227C21.5955 6.93323 21.2077 8.47533 20.4619 11.2588C19.9191 13.2846 19.5794 14.6077 19.3656 15.5639C18.8152 15.0979 18.2068 14.7386 17.5635 14.4826C17.7871 13.5479 18.0983 12.3525 18.53 10.7412C19.2807 7.93957 19.6446 6.48167 19.8246 5.47891C19.9298 4.89303 19.9717 4.46709 19.9884 4H18.9994V2H25.9994V4H25.0105C25.0272 4.46709 25.0691 4.89303 25.1742 5.47891C25.3542 6.48167 25.7182 7.93957 26.4689 10.7412C27.2148 13.5252 27.601 15.0676 27.7969 16.1693C27.9995 17.3081 27.9995 17.9844 27.9995 18.9886V27.9998C27.9995 28.6192 27.7284 29.1857 27.1924 29.5556C26.7086 29.8894 26.1024 30 25.4995 30H19.4994Z" fill="#000000" class="bmwfcol"/><path d="M8 12H6V14C6 14.9591 6.21705 15.8449 6.63452 16.5987C6.18619 16.8502 5.77505 17.1816 5.41662 17.5942C4.49576 18.6544 4 20.1593 4 22C4 24.5789 5.05633 26.9205 6.74289 28.6071C7.62162 29.4858 8.6369 30 9.5 30L9.51602 30C9.77773 30.0001 10.2241 30.0002 10.7537 29.8237C11.1565 29.6894 11.5716 29.4667 12 29.1202C12.4284 29.4667 12.8435 29.6894 13.2463 29.8237C13.7759 30.0002 14.2223 30.0001 14.484 30L14.5 30C15.3631 30 16.3784 29.4858 17.2571 28.6071C18.9437 26.9205 20 24.5789 20 22C20 20.1593 19.5042 18.6544 18.5834 17.5942C17.6534 16.5236 16.3685 16 15 16C14.3599 16 13.7548 16.1523 13.2827 16.2712L13.2469 16.2802C13.172 16.299 13.1002 16.317 13.0311 16.334C13.057 16.0794 13.1043 15.878 13.1905 15.6393C13.4026 15.0524 13.8428 14.273 14.8663 12.5002L15.1551 12H12.8459C12.4537 12.6807 12.1392 13.233 11.8899 13.7035C11.8008 13.5959 11.7065 13.4923 11.6071 13.3929C10.6943 12.4801 9.42725 12 8 12ZM10.9446 16.328C10.883 16.3128 10.8193 16.2968 10.7531 16.2802L10.7173 16.2712C10.2452 16.1523 9.64012 16 9 16C8.88047 16 8.76159 16.004 8.64352 16.012C8.24772 15.5288 8 14.8568 8 14C8.97275 14 9.70567 14.3199 10.1929 14.8071C10.5607 15.1749 10.8331 15.6827 10.9446 16.328ZM6 22C6 20.5074 6.39967 19.5123 6.92653 18.9058C7.44424 18.3098 8.15938 18 9 18C9.36806 18 9.74846 18.0898 10.2652 18.2198L10.316 18.2326C10.7817 18.3499 11.3772 18.5 12 18.5C12.6228 18.5 13.2183 18.3499 13.684 18.2326L13.7348 18.2198C14.2515 18.0898 14.6319 18 15 18C15.8406 18 16.5558 18.3098 17.0735 18.9058C17.6003 19.5123 18 20.5074 18 22C18 24.0235 17.1724 25.8634 15.8429 27.1929C15.1734 27.8624 14.6369 28 14.5 28C14.2593 28 14.0882 27.9961 13.8787 27.9263C13.6732 27.8578 13.3652 27.701 12.9571 27.2929L12.6642 27H11.3358L11.0429 27.2929C10.6348 27.701 10.3268 27.8578 10.1213 27.9263C9.91184 27.9961 9.74073 28 9.5 28C9.3631 28 8.8266 27.8624 8.15711 27.1929C6.8276 25.8634 6 24.0235 6 22Z" fill="#000000" class="bmwfcol"/><title>apple-and-bottle_rg_48</title></svg>