<svg width="48" height="48" viewBox="0 0 32 32" xmlns="http://www.w3.org/2000/svg"><path d="M18.1998 2.33347L18.3923 2H16.084C15.6628 2.7368 15.3868 3.24942 15.2265 3.69304C15.1466 3.91403 15.0949 4.1189 15.0615 4.31852C15.0339 4.31028 15.0058 4.30181 14.9772 4.29312L14.8905 4.26661C14.5299 4.15597 14.0217 4 13.5001 4C12.4077 4 11.3729 4.4194 10.6238 5.28172C9.88395 6.13352 9.50012 7.32596 9.50012 8.75C9.50012 10.7536 10.321 12.5725 11.6305 13.8821C12.3157 14.5673 13.137 15 13.8751 15C14.6958 15 15.3393 14.6955 16.0001 14.1323C16.6609 14.6955 17.3045 15 18.1251 15C18.8632 15 19.6845 14.5673 20.3697 13.8821C21.6793 12.5725 22.5001 10.7536 22.5001 8.75C22.5001 7.32596 22.1163 6.13352 21.3764 5.28172C20.6274 4.4194 19.5925 4 18.5001 4C17.9996 4 17.5114 4.14363 17.1541 4.253C17.2995 3.90391 17.5836 3.40073 18.1998 2.33347ZM12.1338 6.59328C12.4705 6.2056 12.9356 6 13.5001 6C13.7036 6 13.9356 6.06705 14.3962 6.20688C14.8016 6.32994 15.3652 6.5 16.0001 6.5C16.635 6.5 17.1987 6.32994 17.604 6.20688C18.0647 6.06705 18.2966 6 18.5001 6C19.0646 6 19.5297 6.2056 19.8665 6.59328C20.2124 6.99148 20.5001 7.67404 20.5001 8.75C20.5001 10.1982 19.908 11.5154 18.9555 12.4679C18.7324 12.691 18.5268 12.8315 18.3663 12.9124C18.2212 12.9856 18.1385 12.998 18.1251 13C17.8829 13 17.6236 12.9593 16.9572 12.2929L16.6643 12H15.3359L15.043 12.2929C14.3767 12.9593 14.1167 12.9996 13.8745 12.9996C13.8611 12.9977 13.779 12.9856 13.6339 12.9124C13.4735 12.8315 13.2679 12.691 13.0447 12.4679C12.0922 11.5154 11.5001 10.1982 11.5001 8.75C11.5001 7.67404 11.7879 6.99148 12.1338 6.59328Z" fill="#000000" class="bmwfcol"/><path d="M28.3684 14.4031C28.9704 14.6299 29.3997 14.9852 29.7074 15.2928L30.4147 15.9999L21.5891 24.8256C20.7036 25.7123 20.044 26.3728 19.0665 26.6987C18.5666 26.8653 18.0256 26.9342 17.3965 26.9673C16.7764 27 16.0047 27 15.029 27H11.4144L9.41436 29H7.58594L1.58594 23L6.30666 18.2792C6.79513 17.7908 7.18002 17.4059 7.49357 17.113C7.80632 16.8208 8.09329 16.5766 8.38671 16.397C9.03833 15.9982 9.61222 15.9991 10.1896 15.9999L10.4 16L14.1321 17L19.0002 17C19.4743 17 19.9403 17.1456 20.3113 17.457C22.8562 15.4492 24.7373 14.5139 26.1993 14.2527C27.0435 14.1018 27.7594 14.1737 28.3684 14.4031ZM19.0001 19L13.8688 19L10.1379 18.0003C9.5985 18.0031 9.55695 18.0256 9.43065 18.1029C9.31554 18.1734 9.14825 18.3041 8.85887 18.5745C8.57319 18.8413 8.21232 19.202 7.70726 19.7071L4.41436 23L8.41436 27H8.58594L10.5859 25H15.0002C16.0109 25 16.73 24.9996 17.2914 24.9701C17.8499 24.9407 18.1839 24.8847 18.4341 24.8013C18.9136 24.6414 19.2397 24.3465 20.2933 23.2929L27.3861 16.2001C27.1749 16.1636 26.9036 16.1585 26.5511 16.2215C25.4854 16.4119 23.7543 17.211 21.0003 19.4697L21.0001 20.4143L20.7073 20.7071C19.6534 21.761 18.7738 22.3795 17.8165 22.6986C16.9111 23.0005 16.0168 23.0002 15.0818 23L11.0002 23V21H15.0004C16.0358 21 16.6158 20.9907 17.184 20.8013C17.6686 20.6398 18.2151 20.3183 19.0002 19.5776L19.0001 19Z" fill="#000000" class="bmwfcol"/><title>apple_on_hand_rg_48</title></svg>