<svg width="48" height="48" viewBox="0 0 32 32" xmlns="http://www.w3.org/2000/svg"><path d="M13.625 12.125H14.7885L21.5002 16L14.7885 19.875H13.625V12.125ZM15.375 14.4843V17.5156L18.0002 16L15.375 14.4843Z" fill="#000000" class="bmwfcol"/><path d="M16 22C17.777 22 19.3736 21.2275 20.4722 20H22.9297C21.5465 22.3912 18.9611 24 16 24C11.5817 24 8 20.4183 8 16C8 11.5817 11.5817 8 16 8C18.9611 8 21.5465 9.60879 22.9297 12H20.4722C19.3736 10.7725 17.777 10 16 10C12.6863 10 10 12.6863 10 16C10 19.3137 12.6863 22 16 22Z" fill="#000000" class="bmwfcol"/><path d="M13.0547 4H18.9453C20.3542 3.99999 21.4748 3.99998 22.3778 4.07619C23.3027 4.15424 24.0902 4.31758 24.8076 4.69741C25.8705 5.26021 26.7398 6.12948 27.3026 7.19242C27.6824 7.9098 27.8458 8.69725 27.9238 9.6222C28 10.5252 28 11.6458 28 13.0548V18.9452C28 20.3542 28 21.4748 27.9238 22.3778C27.8458 23.3027 27.6824 24.0902 27.3026 24.8076C26.7398 25.8705 25.8705 26.7398 24.8076 27.3026C24.0902 27.6824 23.3027 27.8458 22.3778 27.9238C21.4748 28 20.3542 28 18.9452 28H13.0548C11.6458 28 10.5252 28 9.6222 27.9238C8.69725 27.8458 7.9098 27.6824 7.19242 27.3026C6.12948 26.7398 5.26021 25.8705 4.69741 24.8076C4.31758 24.0902 4.15424 23.3027 4.07619 22.3778C3.99998 21.4748 3.99999 20.3542 4 18.9453V13.0547C3.99999 11.6458 3.99998 10.5252 4.07619 9.6222C4.15424 8.69725 4.31758 7.9098 4.69741 7.19242C5.26021 6.12948 6.12948 5.26021 7.19242 4.69741C7.9098 4.31758 8.69725 4.15424 9.6222 4.07619C10.5252 3.99998 11.6458 3.99999 13.0547 4ZM9.79038 6.06911C8.99358 6.13634 8.50855 6.2636 8.12828 6.46494C7.41965 6.84014 6.84014 7.41965 6.46494 8.12828C6.2636 8.50855 6.13634 8.99358 6.06911 9.79038C6.00083 10.5994 6 11.6356 6 13.1V18.9C6 20.3644 6.00083 21.4006 6.06911 22.2096C6.13634 23.0064 6.2636 23.4915 6.46494 23.8717C6.84014 24.5804 7.41965 25.1599 8.12828 25.5351C8.50855 25.7364 8.99358 25.8637 9.79038 25.9309C10.5994 25.9992 11.6356 26 13.1 26H18.9C20.3644 26 21.4006 25.9992 22.2096 25.9309C23.0064 25.8637 23.4915 25.7364 23.8717 25.5351C24.5803 25.1599 25.1599 24.5803 25.5351 23.8717C25.7364 23.4915 25.8637 23.0064 25.9309 22.2096C25.9992 21.4006 26 20.3644 26 18.9V13.1C26 11.6356 25.9992 10.5994 25.9309 9.79038C25.8637 8.99358 25.7364 8.50855 25.5351 8.12828C25.1599 7.41965 24.5804 6.84014 23.8717 6.46494C23.4915 6.2636 23.0064 6.13634 22.2096 6.06911C21.4006 6.00083 20.3644 6 18.9 6H13.1C11.6356 6 10.5994 6.00083 9.79038 6.06911Z" fill="#000000" class="bmwfcol"/><title>apple-car-play_rg_48</title></svg>