<svg width="48" height="48" viewBox="0 0 32 32" xmlns="http://www.w3.org/2000/svg"><path d="M11.5459 17C12.5181 17 13.4311 17.2436 14.0938 17.9062C14.7564 18.5689 14.9999 19.4819 15 20.4541V24.5459C14.9999 25.518 14.7564 26.4311 14.0938 27.0937C13.4311 27.7564 12.5181 27.9999 11.5459 28H7.4541C6.48194 27.9999 5.56892 27.7564 4.90625 27.0937C4.24359 26.4311 4.00007 25.518 4 24.5459V20.4541C4.00008 19.4819 4.24359 18.5689 4.90625 17.9062C5.56892 17.2436 6.48195 17 7.4541 17H11.5459ZM7.4541 19C6.79039 19 6.47569 19.1649 6.32031 19.3203C6.16494 19.4757 6.00008 19.7904 6 20.4541V24.5459C6.00007 25.2096 6.16494 25.5243 6.32031 25.6797C6.47569 25.835 6.79037 25.9999 7.4541 26H11.5459C12.2096 25.9999 12.5243 25.835 12.6797 25.6797C12.8351 25.5243 12.9999 25.2096 13 24.5459V20.4541C12.9999 19.7904 12.8351 19.4757 12.6797 19.3203C12.5243 19.1649 12.2096 19 11.5459 19H7.4541Z" fill="#000000" class="bmwfcol"/><path d="M23.5 21.5H27.5V23.5H23.5V27.5H21.5V23.5H17.5V21.5H21.5V17.5H23.5V21.5Z" fill="#000000" class="bmwfcol"/><path d="M11.5459 3.99997C12.5181 4.00004 13.4311 4.24356 14.0938 4.90622C14.7564 5.56888 14.9999 6.48192 15 7.45407V11.5459C14.9999 12.518 14.7564 13.4311 14.0938 14.0937C13.4311 14.7564 12.5181 14.9999 11.5459 15H7.4541C6.48194 14.9999 5.56892 14.7564 4.90625 14.0937C4.24359 13.4311 4.00007 12.518 4 11.5459V7.45407C4.00008 6.48192 4.24359 5.56888 4.90625 4.90622C5.56892 4.24356 6.48195 4.00004 7.4541 3.99997H11.5459ZM7.4541 5.99997C6.79039 6.00004 6.47569 6.16491 6.32031 6.32028C6.16494 6.47566 6.00008 6.79036 6 7.45407V11.5459C6.00007 12.2096 6.16494 12.5243 6.32031 12.6797C6.47569 12.835 6.79037 12.9999 7.4541 13H11.5459C12.2096 12.9999 12.5243 12.835 12.6797 12.6797C12.8351 12.5243 12.9999 12.2096 13 11.5459V7.45407C12.9999 6.79036 12.8351 6.47566 12.6797 6.32028C12.5243 6.16491 12.2096 6.00004 11.5459 5.99997H7.4541Z" fill="#000000" class="bmwfcol"/><path d="M24.5459 3.99997C25.5181 4.00004 26.4311 4.24356 27.0938 4.90622C27.7564 5.56888 27.9999 6.48192 28 7.45407V11.5459C27.9999 12.518 27.7564 13.4311 27.0938 14.0937C26.4311 14.7564 25.5181 14.9999 24.5459 15H20.4541C19.4819 14.9999 18.5689 14.7564 17.9062 14.0937C17.2436 13.4311 17.0001 12.518 17 11.5459V7.45407C17.0001 6.48192 17.2436 5.56888 17.9062 4.90622C18.5689 4.24356 19.4819 4.00004 20.4541 3.99997H24.5459ZM20.4541 5.99997C19.7904 6.00004 19.4757 6.16491 19.3203 6.32028C19.1649 6.47566 19.0001 6.79036 19 7.45407V11.5459C19.0001 12.2096 19.1649 12.5243 19.3203 12.6797C19.4757 12.835 19.7904 12.9999 20.4541 13H24.5459C25.2096 12.9999 25.5243 12.835 25.6797 12.6797C25.8351 12.5243 25.9999 12.2096 26 11.5459V7.45407C25.9999 6.79036 25.8351 6.47566 25.6797 6.32028C25.5243 6.16491 25.2096 6.00004 24.5459 5.99997H20.4541Z" fill="#000000" class="bmwfcol"/><title>apps_plus_rg_48</title></svg>