<svg width="48" height="48" viewBox="0 0 32 32" xmlns="http://www.w3.org/2000/svg"><path d="M16.2376 20L13.2376 23H20C22.1728 23 23.9057 22.2801 25.0929 21.0929C26.2801 19.9057 27 18.1728 27 16H29C29 18.6272 28.1199 20.8943 26.5071 22.5071C24.8943 24.1199 22.6272 25 20 25H13.2376L16.2376 28H13.7627L9.7627 24L13.7627 20H16.2376Z" fill="#000000" class="bmwfcol"/><path d="M15.7627 12L18.7627 9H12C9.82725 9 8.09433 9.71989 6.90711 10.9071C5.71989 12.0943 5 13.8272 5 16H3C3 13.3728 3.88011 11.1057 5.49289 9.49289C7.10567 7.88011 9.37275 7 12 7H18.7627L15.7627 4H18.2376L22.2376 8.00001L18.2376 12H15.7627Z" fill="#000000" class="bmwfcol"/><title>arrow-repeat_rg_48</title></svg>