<svg width="48" height="48" viewBox="0 0 32 32" xmlns="http://www.w3.org/2000/svg"><path d="M21.0001 6H10.0001V8H21.0001C22.8729 8 24.3558 8.61989 25.368 9.63211C26.3803 10.6443 27.0001 12.1272 27.0001 14C27.0001 15.8728 26.3803 17.3557 25.368 18.3679C24.3558 19.3801 22.8729 20 21.0001 20H6.41433L12.4143 14H9.58591L2.58594 21L9.58597 28H12.4144L6.41439 22H21.0001C23.3274 22 25.3445 21.2199 26.7823 19.7821C28.22 18.3443 29.0001 16.3272 29.0001 14C29.0001 11.6728 28.22 9.65567 26.7823 8.21789C25.3445 6.78011 23.3274 6 21.0001 6Z" fill="#000000" class="bmwfcol"/><title>arrow-u-down-left_rg_48</title></svg>