<svg width="48" height="48" viewBox="0 0 32 32" xmlns="http://www.w3.org/2000/svg"><path d="M11 6H22V8H11C9.12725 8 7.64433 8.61989 6.63211 9.63211C5.61989 10.6443 5 12.1272 5 14C5 15.8728 5.61989 17.3557 6.63211 18.3679C7.64433 19.3801 9.12725 20 11 20H25.5858L19.5858 14H22.4142L29.4142 21L22.4142 28H19.5858L25.5858 22H11C8.67275 22 6.65567 21.2199 5.21789 19.7821C3.78011 18.3443 3 16.3272 3 14C3 11.6728 3.78011 9.65567 5.21789 8.21789C6.65567 6.78011 8.67275 6 11 6Z" fill="#000000" class="bmwfcol"/><title>arrow-u-down-right_rg_48</title></svg>