<svg width="48" height="48" viewBox="0 0 32 32" xmlns="http://www.w3.org/2000/svg"><path d="M15.4144 9L12.586 9L15.5772 6.00878C10.2505 6.23042 6.00018 10.6188 6.00018 16H4.00018C4.00018 9.50893 9.15399 4.22159 15.5928 4.00679L12.586 1H15.4144L19.4144 5L15.4144 9Z" fill="#000000" class="bmwfcol"/><path d="M10.2309 20.0073L11.6452 22.4568L7.559 21.3619C10.4143 25.8642 16.34 27.3509 21.0002 24.6603L22.0002 26.3923C16.3788 29.6379 9.22292 27.8182 5.81749 22.3495L4.71695 26.4568L3.30273 24.0073L4.76683 18.5432L10.2309 20.0073Z" fill="#000000" class="bmwfcol"/><path d="M23.7694 16.5432L22.3552 18.9927L23.8193 24.4568L29.2834 22.9927L30.6976 20.5432L26.5903 21.6438C29.6237 15.9602 27.6216 8.85321 22.0002 5.60767L21.0002 7.33972C25.6604 10.0303 27.3357 15.9054 24.8643 20.6293L23.7694 16.5432Z" fill="#000000" class="bmwfcol"/><title>arrows_three_clockwise_rg_48</title></svg>