<svg width="48" height="48" viewBox="0 0 32 32" xmlns="http://www.w3.org/2000/svg"><path d="M26 11V22H24V11C24 9.12725 23.3801 7.64433 22.3679 6.63211C21.3557 5.61989 19.8728 5 18 5C16.1272 5 14.6443 5.61989 13.6321 6.63211C12.6199 7.64433 12 9.12725 12 11V25.5858L18 19.5858V22.4142L11 29.4142L4 22.4142V19.5858L10 25.5858L10 11C10 8.67275 10.7801 6.65567 12.2179 5.21789C13.6557 3.78011 15.6728 3 18 3C20.3272 3 22.3443 3.78011 23.7821 5.21789C25.2199 6.65567 26 8.67275 26 11Z" fill="#000000" class="bmwfcol"/><title>arrow-u-left-down_rg_48</title></svg>