<svg width="48" height="48" viewBox="0 0 32 32" xmlns="http://www.w3.org/2000/svg"><path d="M22.4142 4H19.5858L25.5858 10H11C8.67275 10 6.65567 10.7801 5.21789 12.2179C3.78011 13.6557 3 15.6728 3 18C3 20.3272 3.78011 22.3443 5.21789 23.7821C6.65567 25.2199 8.67275 26 11 26H22V24H11C9.12725 24 7.64433 23.3801 6.63211 22.3679C5.61989 21.3557 5 19.8728 5 18C5 16.1272 5.61989 14.6443 6.63211 13.6321C7.64433 12.6199 9.12725 12 11 12H25.5858L19.5858 18H22.4142L29.4142 11L22.4142 4Z" fill="#000000" class="bmwfcol"/><title>arrow-u-up-right_rg_48</title></svg>