<svg width="48" height="48" viewBox="0 0 32 32" xmlns="http://www.w3.org/2000/svg"><path d="M4 9.58582V12.4142L10 6.41424L10 21C10 23.3272 10.7801 25.3443 12.2179 26.7821C13.6557 28.2199 15.6728 29 18 29C20.3272 29 22.3443 28.2199 23.7821 26.7821C25.2199 25.3443 26 23.3272 26 21V10L24 10V21C24 22.8728 23.3801 24.3557 22.3679 25.3679C21.3557 26.3801 19.8728 27 18 27C16.1272 27 14.6443 26.3801 13.6321 25.3679C12.6199 24.3557 12 22.8728 12 21V6.41424L18 12.4142V9.58581L11 2.58582L4 9.58582Z" fill="#000000" class="bmwfcol"/><title>arrow-u-left-up_rg_48</title></svg>