<svg width="48" height="48" viewBox="0 0 32 32" xmlns="http://www.w3.org/2000/svg"><path d="M9.58972 4H12.4181L6.41815 10H21.0039C23.3312 10 25.3482 10.7801 26.786 12.2179C28.2238 13.6557 29.0039 15.6728 29.0039 18C29.0039 20.3272 28.2238 22.3443 26.786 23.7821C25.3482 25.2199 23.3312 26 21.0039 26H10.0039V24H21.0039C22.8767 24 24.3596 23.3801 25.3718 22.3679C26.384 21.3557 27.0039 19.8728 27.0039 18C27.0039 16.1272 26.384 14.6443 25.3718 13.6321C24.3596 12.6199 22.8767 12 21.0039 12H6.41809L12.4181 18H9.58966L2.58969 11L9.58972 4Z" fill="#000000" class="bmwfcol"/><title>arrow-u-up-left_rg_48</title></svg>