<svg width="48" height="48" viewBox="0 0 32 32" xmlns="http://www.w3.org/2000/svg"><path d="M13.762 1.00049L15.7641 3.00258C8.69323 3.12842 3 8.89959 3 16.0005H5C5 10.0058 9.79522 5.13119 15.7591 5.00307L13.7617 7.00049L16.2366 7.00049L19.2367 4.00035L16.2369 1.00049H13.762Z" fill="#000000" class="bmwfcol"/><path d="M30.111 21.5635L27.3728 22.2972C30.8009 16.1104 28.6497 8.29303 22.4995 4.74219L21.4995 6.47424C26.6901 9.47107 28.5144 16.0595 25.6454 21.2881L24.9152 18.563L23.6777 20.7063L24.7759 24.8048L28.8736 23.7068L30.111 21.5635Z" fill="#000000" class="bmwfcol"/><path d="M4.12806 25.4383L4.86056 22.7046C8.50519 28.7645 16.3493 30.8091 22.4986 27.2588L21.4986 25.5267C16.3065 28.5244 9.68638 26.8082 6.59391 21.706L9.32373 22.4375L8.08629 20.2942L3.98888 19.1963L2.89062 23.295L4.12806 25.4383Z" fill="#000000" class="bmwfcol"/><path d="M14.3496 19.2324L15.4703 23.415L18.5322 20.3531L17.4128 20.0532L19.3027 13.0001H17.4635L14.9072 14.4759L16.3745 9H14.3039L12.0273 17.4963H13.6757L16.4577 15.8901L15.4809 19.5356L14.3496 19.2324Z" fill="#000000" class="bmwfcol"/><title>arrows_circular_and_lightning_rg_48</title></svg>