<svg width="48" height="48" viewBox="0 0 32 32" xmlns="http://www.w3.org/2000/svg"><path d="M6 11V22L8 22L8 11C8 9.12725 8.61989 7.64433 9.63211 6.63211C10.6443 5.61989 12.1272 5 14 5C15.8728 5 17.3557 5.61989 18.3679 6.63211C19.3801 7.64433 20 9.12725 20 11V25.5858L14 19.5858V22.4142L21 29.4142L28 22.4142V19.5858L22 25.5858V11C22 8.67275 21.2199 6.65567 19.7821 5.21789C18.3443 3.78011 16.3272 3 14 3C11.6728 3 9.65567 3.78011 8.21789 5.21789C6.78011 6.65567 6 8.67275 6 11Z" fill="#000000" class="bmwfcol"/><title>arrow-u-right-down_rg_48</title></svg>