<svg width="48" height="48" viewBox="0 0 32 32" xmlns="http://www.w3.org/2000/svg"><path d="M9 22.4141V19.5857L16.0002 26.5858L23 19.586V22.4144L16.0002 29.4142L9 22.4141Z" fill="#000000" class="bmwfcol"/><path d="M23 9.58567V12.4141L16.0002 5.41424L9 12.4144V9.58597L16.0002 2.58582L23 9.58567Z" fill="#000000" class="bmwfcol"/><path d="M14.8945 14.8946C14.6698 15.1193 14.4999 15.4773 14.4999 16C14.4999 16.5228 14.6698 16.8807 14.8945 17.1054C15.1193 17.3301 15.4772 17.5 15.9999 17.5C16.9163 17.5 17.4999 16.8603 17.4999 16C17.4999 15.4773 17.33 15.1193 17.1053 14.8946C16.8806 14.6699 16.5227 14.5 15.9999 14.5C15.4772 14.5 15.1193 14.6699 14.8945 14.8946ZM13.4803 13.4804C14.1306 12.8301 15.0227 12.5 15.9999 12.5C16.9772 12.5 17.8693 12.8301 18.5195 13.4804C19.1698 14.1307 19.4999 15.0228 19.4999 16C19.4999 17.9011 18.0835 19.5 15.9999 19.5C15.0227 19.5 14.1306 19.1699 13.4803 18.5196C12.83 17.8693 12.4999 16.9773 12.4999 16C12.4999 15.0228 12.83 14.1307 13.4803 13.4804Z" fill="#000000" class="bmwfcol"/><title>arrows-scroll_rg_48</title></svg>