<svg width="48" height="48" viewBox="0 0 32 32" xmlns="http://www.w3.org/2000/svg"><path d="M28 9.58569V12.4141L22 6.41412V20.9999C22 23.3271 21.2199 25.3442 19.7821 26.782C18.3443 28.2198 16.3272 28.9999 14 28.9999C11.6728 28.9999 9.65567 28.2198 8.21789 26.782C6.78011 25.3442 6 23.3271 6 20.9999V9.99988L8 9.99988L8 20.9999C8 22.8726 8.61989 24.3556 9.63211 25.3678C10.6443 26.38 12.1272 26.9999 14 26.9999C15.8728 26.9999 17.3557 26.38 18.3679 25.3678C19.3801 24.3556 20 22.8726 20 20.9999V6.41412L14 12.4141V9.58569L21 2.58569L28 9.58569Z" fill="#000000" class="bmwfcol"/><title>arrow-u-right-up_rg_48</title></svg>