<svg width="48" height="48" viewBox="0 0 32 32" xmlns="http://www.w3.org/2000/svg"><path d="M19.7071 5.70696L7.20722 18.2069C6.0179 19.3963 5.4751 20.7258 5.4751 21.9999C5.4751 23.274 6.0179 24.6035 7.20722 25.7928C8.39654 26.9821 9.72604 27.5249 11.0001 27.5249C12.2742 27.5249 13.6037 26.9821 14.7931 25.7928L25.293 15.2927L26.7072 16.7069L16.2073 27.207C14.6966 28.7177 12.8761 29.5249 11.0001 29.5249C9.12421 29.5249 7.3037 28.7177 5.793 27.207C4.28231 25.6963 3.4751 23.8758 3.4751 21.9999C3.4751 20.1239 4.28231 18.3034 5.793 16.7927L18.2929 4.29275C19.3535 3.23209 20.649 2.6499 21.9999 2.6499C23.3508 2.6499 24.6462 3.23209 25.7069 4.29275C26.7676 5.35341 27.3497 6.64888 27.3497 7.99976C27.3498 9.35062 26.7676 10.6461 25.7069 11.7067L15.2076 22.2073C14.5969 22.818 13.8263 23.1753 13.0003 23.1753C12.1744 23.1753 11.4038 22.8181 10.7931 22.2073C10.1824 21.5966 9.82515 20.8261 9.82515 20.0001C9.82515 19.1741 10.1824 18.4036 10.7931 17.7929L19.293 9.29272L20.7072 10.7069L12.2073 19.2071C11.918 19.4964 11.8252 19.776 11.8252 20.0001C11.8252 20.2242 11.918 20.5038 12.2073 20.7931C12.4967 21.0825 12.7762 21.1753 13.0003 21.1753C13.2245 21.1753 13.504 21.0825 13.7933 20.7932L24.2926 10.2926C25.0319 9.55331 25.3497 8.74881 25.3497 7.99976C25.3498 7.25071 25.032 6.44625 24.2927 5.70696C23.5534 4.96768 22.7489 4.6499 21.9999 4.6499C21.2508 4.6499 20.4464 4.96768 19.7071 5.70696Z" fill="#000000" class="bmwfcol"/><title>attachment_rg_48</title></svg>