<svg width="48" height="48" viewBox="0 0 32 32" xmlns="http://www.w3.org/2000/svg"><path d="M19 5.84296V7.91371L13 6.30371V23.5C13 25.0206 12.4333 26.2133 11.3877 26.9902C10.3912 27.7306 9.08449 28 7.75001 28C5.80403 28 3.99974 26.5494 4 24.2499C4.00017 22.694 4.88634 21.5981 5.93302 20.937C6.92157 20.3127 8.11352 20.0003 9.27878 20C9.6699 19.9999 10.0817 19.9999 10.5942 20.1203C10.7249 20.151 10.8593 20.1887 11 20.2344V3.69629L19 5.84296ZM10.1367 22.0672C9.86378 22.0031 9.65637 22 9.2482 22C8.53456 21.9987 7.66324 22.2098 7.00098 22.628C6.36144 23.0319 6.00008 23.5626 6 24.2501C5.99988 25.3319 6.7921 26 7.74999 26C8.85911 26 9.67742 25.7693 10.195 25.3848C10.6635 25.0367 11 24.4794 11 23.5V22.3809C10.6049 22.2039 10.3412 22.1153 10.1367 22.0672Z" fill="#000000" class="bmwfcol"/><path d="M26.1322 26.1321C28.62 23.6443 30.0001 20.1272 30.0001 16C30.0001 11.8728 28.62 8.35567 26.1322 5.86789L24.718 7.28211C26.7802 9.34433 28.0001 12.3272 28.0001 16C28.0001 19.6728 26.7802 22.6557 24.718 24.7179L26.1322 26.1321Z" fill="#000000" class="bmwfcol"/><path d="M23.2322 23.2321C25.02 21.4443 26.0001 18.9272 26.0001 16C26.0001 13.0728 25.02 10.5557 23.2322 8.76789L21.818 10.1821C23.1802 11.5443 24.0001 13.5272 24.0001 16C24.0001 18.4728 23.1802 20.4557 21.818 21.8179L23.2322 23.2321Z" fill="#000000" class="bmwfcol"/><path d="M22.0001 16C22.0001 17.7272 21.42 19.2443 20.3322 20.3321L18.918 18.9179C19.5802 18.2557 20.0001 17.2728 20.0001 16C20.0001 14.7272 19.5802 13.7443 18.918 13.0821L20.3322 11.6679C21.42 12.7557 22.0001 14.2728 22.0001 16Z" fill="#000000" class="bmwfcol"/><title>audio-stream_rg_48</title></svg>