<svg width="48" height="48" viewBox="0 0 32 32" xmlns="http://www.w3.org/2000/svg"><path d="M27 3H24.869L9 7.23172V22.2344C8.85933 22.1887 8.72493 22.151 8.59419 22.1203C8.0817 21.9999 7.6699 21.9999 7.27878 22C6.23768 21.9983 4.95665 22.2906 3.93302 22.937C2.88635 23.5981 2.00017 24.694 2 26.2499C1.99974 28.5494 3.80403 30 5.75001 30C7.08449 30 8.39118 29.7306 9.38775 28.9902C10.4333 28.2133 11 27.0206 11 25.5V8.76828L25 5.03495V18.2402C24.8464 18.1909 24.7 18.1508 24.5576 18.1185C24.0344 17.9999 23.6119 17.9999 23.2191 18C22.1737 17.9983 20.9052 18.2972 19.8943 18.9521C18.8591 19.6228 18.0002 20.7234 18 22.2675C17.9997 24.6019 19.9021 26 21.8103 26C23.1445 26 24.4411 25.7307 25.4256 24.9844C26.4575 24.2021 27 23.0083 27 21.5V3ZM25 21.5C25 22.4917 24.6694 23.0479 24.2174 23.3906C23.718 23.7692 22.9197 24 21.8103 24C20.8147 24 19.9999 23.3147 20 22.2678C20.0001 21.5684 20.3597 21.0337 20.9818 20.6306C21.6279 20.212 22.4828 19.9987 23.1921 20C23.5996 20 23.8237 20.0029 24.1154 20.069C24.3299 20.1176 24.6032 20.2067 25 20.3824V21.5ZM9 25.5C9 26.4794 8.66346 27.0367 8.19495 27.3848C7.67742 27.7693 6.85911 28 5.74999 28C4.7921 28 3.99988 27.3319 4 26.2501C4.00008 25.5626 4.36144 25.0319 5.00098 24.628C5.66324 24.2098 6.53456 23.9987 7.2482 24C7.65637 24 7.86378 24.0031 8.13674 24.0672C8.3412 24.1153 8.60485 24.2039 9 24.3809V25.5Z" fill="#000000" class="bmwfcol"/><title>audio_rg_48</title></svg>