<svg width="48" height="48" viewBox="0 0 32 32" xmlns="http://www.w3.org/2000/svg"><path d="M16 7.99951C13.6728 7.99951 11.6557 8.77963 10.2179 10.2174C8.78011 11.6552 8 13.6723 8 15.9995C8 18.3268 8.78012 20.3438 10.2179 21.7816L10.925 22.4887L17 16.4137L17 7.99951L16 7.99951ZM10 15.9995C10 14.1268 10.6199 12.6438 11.6321 11.6316C12.4568 10.8069 13.5941 10.2426 15 10.0619V15.5853L10.9952 19.5901C10.3662 18.648 10 17.4389 10 15.9995Z" fill="#000000" class="bmwfcol"/><path d="M21.7901 7.54964L19.0391 8.28679L21.1824 9.52423L25.2807 8.42608L24.1827 4.32826L22.0394 3.09082L22.7663 5.80384L22.1064 5.42285C20.3512 4.49468 18.2826 3.99951 16 3.99951C12.4728 3.99951 9.45567 5.17963 7.31789 7.3174C5.18011 9.45518 4 12.4723 4 15.9995C4 19.5268 5.18011 22.5438 7.31789 24.6816C9.45567 26.8194 12.4728 27.9995 16 27.9995C19.5272 27.9995 22.5443 26.8194 24.6821 24.6816C26.8199 22.5438 28 19.5268 28 15.9995H26C26 19.0723 24.9801 21.5552 23.2679 23.2674C21.5557 24.9796 19.0728 25.9995 16 25.9995C12.9272 25.9995 10.4443 24.9796 8.73211 23.2674C7.01989 21.5552 6 19.0723 6 15.9995C6 12.9268 7.01989 10.4438 8.73211 8.73162C10.4443 7.0194 12.9272 5.99951 16 5.99951C17.9567 5.99951 19.6748 6.41233 21.1064 7.1549L21.7901 7.54964Z" fill="#000000" class="bmwfcol"/><title>automate_my_habits_rg_48</title></svg>