<svg width="48" height="48" viewBox="0 0 32 32" xmlns="http://www.w3.org/2000/svg"><path d="M10 25.2211L10 27.5356C5.84022 25.3675 3 21.0154 3 16C3 8.8203 8.8203 3 16 3C23.1797 3 29 8.8203 29 16C29 19.5896 27.5438 22.8409 25.1924 25.1924L24.2598 26.125H27.875L26.125 27.875H21.125V22.875L22.875 21.125V24.6813L23.7782 23.7782C25.7699 21.7865 27 19.0378 27 16C27 9.92487 22.0751 5 16 5C9.92487 5 5 9.92487 5 16C5 19.8616 6.98979 23.2584 10 25.2211Z" fill="#000000" class="bmwfcol"/><path d="M21.8851 21H19.7513L18.6356 18H13.3745L12.2588 21H10.125L14.5878 9H17.4224L21.8851 21ZM17.8918 16L16.0051 10.9267L14.1183 16H17.8918Z" fill="#000000" class="bmwfcol"/><title>auto-start-stop-function_rg_48</title></svg>