<svg width="48" height="48" viewBox="0 0 32 32" xmlns="http://www.w3.org/2000/svg"><path d="M16.3814 4.03302C17.1449 3.84827 17.8445 4.10882 18.3873 4.42218C18.93 4.73555 19.5055 5.21114 19.7272 5.9647C19.9517 6.72755 19.7421 7.52559 19.2847 8.31781C18.8273 9.11002 18.241 9.69058 17.4681 9.8776C16.7046 10.0623 16.005 9.8018 15.4623 9.48843C14.9195 9.17507 14.3441 8.69948 14.1223 7.94592C13.8978 7.18307 14.1075 6.38502 14.5648 5.59281C15.0222 4.80059 15.6086 4.22004 16.3814 4.03302ZM16.8165 5.83112C16.7338 5.85115 16.4953 5.94913 16.167 6.51781C15.8387 7.08649 15.873 7.34197 15.8971 7.42367C15.9239 7.51466 16.0207 7.67465 16.3873 7.88629C16.7538 8.09792 16.9408 8.1018 17.033 8.07949C17.1158 8.05946 17.3542 7.96149 17.6825 7.39281C18.0109 6.82413 17.9765 6.56865 17.9524 6.48694C17.9257 6.39595 17.8288 6.23597 17.4623 6.02433C17.0957 5.81269 16.9087 5.80882 16.8165 5.83112Z" fill="#000000" class="bmwfcol"/><path d="M14 20.4608L15.9866 21.5919V22.0106C15.9866 22.4406 15.9979 22.8718 16.0656 23.2591C16.1347 23.6553 16.2752 24.0839 16.5917 24.451C17.2271 25.1881 18.2436 25.3106 19.2866 25.3106C20.0567 25.3106 20.8419 25.242 21.4577 24.9242C21.7907 24.7523 22.0922 24.4989 22.3019 24.1394C22.5091 23.7843 22.5866 23.3944 22.5866 23.0106V19.8161H20.5866V23.0106C20.5866 23.0746 20.5798 23.1102 20.5753 23.1263C20.5687 23.131 20.5577 23.138 20.5404 23.147C20.3812 23.2291 20.0165 23.3106 19.2866 23.3106C18.7966 23.3106 18.489 23.2741 18.2962 23.2233C18.205 23.1992 18.155 23.1758 18.1307 23.162C18.1189 23.1553 18.1127 23.1506 18.1101 23.1485L18.1074 23.1461L18.1065 23.1451L18.1044 23.1424L18.1032 23.1406L18.1011 23.1372C18.0978 23.1317 18.0922 23.1215 18.0854 23.1048C18.0711 23.07 18.0525 23.011 18.0358 22.9151C18.0003 22.7119 17.9866 22.4306 17.9866 22.0106V20.4292L14 18.1593V20.4608ZM20.5717 23.1371L20.5726 23.1349L20.5717 23.1371Z" fill="#000000" class="bmwfcol"/><path d="M23.7487 24.674C23.2958 24.1984 23.1993 23.5902 23.1993 23.1003C23.1993 22.6103 23.2958 22.0021 23.7487 21.5265C24.208 21.0443 24.863 20.8753 25.5743 20.8753C26.2857 20.8753 26.9406 21.0443 27.3999 21.5265C27.8529 22.0021 27.9493 22.6103 27.9493 23.1003C27.9493 23.5902 27.8529 24.1984 27.3999 24.674C26.9406 25.1563 26.2857 25.3253 25.5743 25.3253C24.863 25.3253 24.208 25.1563 23.7487 24.674ZM25.1185 23.5196C25.2024 23.5475 25.3456 23.5753 25.5743 23.5753C25.8031 23.5753 25.9463 23.5475 26.0302 23.5196C26.1071 23.4941 26.1295 23.4704 26.1326 23.4672C26.1352 23.4645 26.1993 23.3972 26.1993 23.1003C26.1993 22.8034 26.1353 22.7362 26.1327 22.7334C26.1297 22.7302 26.1071 22.7064 26.0302 22.6809C25.9463 22.653 25.8031 22.6253 25.5743 22.6253C25.3456 22.6253 25.2024 22.653 25.1185 22.6809C25.0416 22.7064 25.0191 22.7301 25.0161 22.7333C25.0135 22.736 24.9493 22.8034 24.9493 23.1003C24.9493 23.3972 25.0133 23.4643 25.016 23.4671C25.019 23.4703 25.0416 23.4941 25.1185 23.5196Z" fill="#000000" class="bmwfcol"/><path d="M19 19.4631V17.1522L16.0141 15.4237V10.6951L15.2613 10.0204C14.9017 9.69802 14.4481 9.51194 14.0324 9.40467C13.6042 9.29419 13.1407 9.24776 12.693 9.25529C12.2454 9.26282 11.783 9.32478 11.3581 9.45164C10.9457 9.57479 10.4959 9.78089 10.1487 10.1268C9.46114 10.8117 8.74778 11.8901 8.13301 12.9209C7.50537 13.9733 6.92855 15.0663 6.52573 15.8309C5.6305 17.5303 5.49999 18.8824 5.5 19.5915L5.50001 30.0009L7.50001 30.0009L7.5 19.5915C7.5 19.1501 7.57591 18.1285 8.29521 16.7631C8.69965 15.9954 9.25372 14.9463 9.85071 13.9453C10.4606 12.9228 11.0656 12.0365 11.5602 11.5437C11.5879 11.5161 11.6945 11.4384 11.9303 11.368C12.1537 11.3013 12.4315 11.26 12.7266 11.255C13.0215 11.25 13.3029 11.282 13.5327 11.3412C13.7748 11.4037 13.8919 11.4788 13.9264 11.5097L14.0141 11.5883V16.5769L19 19.4631Z" fill="#000000" class="bmwfcol"/><title>baby_changing_room_rg_48</title></svg>