<svg width="48" height="48" viewBox="0 0 32 32" xmlns="http://www.w3.org/2000/svg"><path d="M16.0547 15H15.9472C14.4928 15 13.3305 15 12.4413 15.0824C11.5619 15.1639 10.735 15.3387 10.114 15.8577C9.45475 16.4088 9.21609 17.1813 9.11076 17.9784C9.00965 18.7434 9.00971 19.7299 9.00977 20.9106L9.00977 21.0714C9.00973 22.2605 9.0097 23.2532 9.11213 24.0226C9.21833 24.8203 9.4583 25.5922 10.1179 26.1427C10.7392 26.6612 11.5658 26.8361 12.4449 26.9176C13.3338 27 14.495 27 15.9473 27H16.0547C17.5069 27 18.668 27 19.5569 26.9176C20.436 26.8361 21.2626 26.6612 21.8839 26.1428C22.5435 25.5923 22.7835 24.8203 22.8897 24.0226C22.9921 23.2532 22.9921 22.2606 22.992 21.0714L22.992 20.9106C22.9921 19.7299 22.9921 18.7434 22.891 17.9784C22.7857 17.1813 22.547 16.4088 21.8878 15.8577C21.2668 15.3387 20.4399 15.1639 19.5605 15.0824C18.6713 15 17.5091 15 16.0547 15ZM11.012 20H20.9898C20.9919 20.3017 20.992 20.6335 20.992 21C20.992 22.2792 20.9899 23.1371 20.9072 23.7587C20.8261 24.3672 20.6917 24.5327 20.6024 24.6072C20.4748 24.7138 20.178 24.8514 19.3722 24.9261C18.5869 24.999 17.5191 25 16.0009 25C14.4827 25 13.4149 24.999 12.6296 24.9261C11.8238 24.8514 11.527 24.7138 11.3994 24.6072C11.3101 24.5327 11.1757 24.3672 11.0946 23.7586C11.0119 23.1371 11.0098 22.2792 11.0098 21C11.0098 20.6335 11.0099 20.3017 11.012 20ZM20.8697 18H11.1321C11.2124 17.5848 11.3211 17.4554 11.3966 17.3923C11.5235 17.2863 11.8194 17.1486 12.6258 17.0739C13.4115 17.001 14.4804 17 16.0009 17C17.5213 17 18.5903 17.001 19.376 17.0739C20.1824 17.1486 20.4783 17.2863 20.6051 17.3923C20.6807 17.4554 20.7894 17.5848 20.8697 18Z" fill="#000000" class="bmwfcol"/><path d="M11 9H21V11H11V9Z" fill="#000000" class="bmwfcol"/><path d="M20.0605 3.34956C20.3464 2.28263 21.443 1.64946 22.51 1.93534L24.4418 2.45298C25.5088 2.73887 26.1419 3.83554 25.856 4.90247L25.1886 7.39355C25.6471 8.30046 25.8214 9.44825 25.9036 10.7905C25.9838 12.1022 25.9796 13.7586 25.9743 15.8021V15.8032C25.9729 16.3416 25.9714 16.907 25.9714 17.5C25.9714 18.093 25.9729 18.6584 25.9743 19.1969V19.198C25.975 19.4723 25.9757 19.7397 25.9762 20.0002H26.498C27.6026 20.0002 28.498 20.8957 28.498 22.0002V26.0002C28.498 27.1048 27.6026 28.0002 26.498 28.0002H24.961C24.9265 28.0526 24.8908 28.104 24.8538 28.1544C24.0901 29.1944 22.9386 29.6164 21.5472 29.8107C20.1915 30.0001 18.3866 30 16.0838 30H15.9139C13.6114 30 11.8066 30.0001 10.4511 29.8107C9.05969 29.6164 7.90813 29.1945 7.14445 28.1545C7.10741 28.1041 7.07167 28.0526 7.03716 28.0002H5.50195C4.39738 28.0002 3.50195 27.1048 3.50195 26.0002V22.0002C3.50195 20.8957 4.39738 20.0002 5.50195 20.0002H6.02209C6.02256 19.7399 6.02325 19.4728 6.02396 19.1987L6.02396 19.1976C6.02535 18.659 6.02681 18.0932 6.02681 17.5C6.02681 16.9067 6.02535 16.3411 6.02396 15.8023C6.01868 13.7588 6.0144 12.1021 6.09467 10.7904C6.1769 9.44669 6.3515 8.29786 6.81117 7.3905L6.14459 4.90278C5.85871 3.83585 6.49187 2.73917 7.5588 2.45329L9.49066 1.93565C10.5576 1.64977 11.6543 2.28293 11.9401 3.34987L12.3923 5.0372C13.4042 4.99997 14.5749 4.99998 15.9139 5H16.0838C17.424 4.99998 18.5957 4.99997 19.6083 5.0373L20.0605 3.34956ZM23.9242 4.38483L21.9923 3.8672L21.6347 5.20188C22.3464 5.30705 22.9936 5.47484 23.5561 5.75866L23.9242 4.38483ZM25.9036 24.2095C25.8642 24.8528 25.8037 25.4514 25.7008 26.0002H26.498V22.0002H25.9708C25.9624 22.8248 25.9434 23.5595 25.9036 24.2095ZM6.09467 24.2096C6.05488 23.5595 6.03587 22.8248 6.02745 22.0002H5.50195V26.0002H6.29739C6.19456 25.4514 6.13403 24.8528 6.09467 24.2096ZM10.3657 5.20152L10.0083 3.8675L8.07644 4.38514L8.44418 5.75757C9.00675 5.47409 9.65402 5.30653 10.3657 5.20152ZM8.02398 15.7543C8.02535 16.3018 8.02681 16.8828 8.02681 17.5C8.02681 18.1167 8.02535 18.6973 8.02398 19.2444L8.02398 19.2457C8.01887 21.2762 8.01493 22.8455 8.09093 24.0875C8.18917 25.6928 8.41554 26.5064 8.75649 26.9707C9.04838 27.3682 9.54615 27.6649 10.7277 27.83C11.9284 27.9977 13.5924 28 15.9991 28C18.4059 28 20.0698 27.9976 21.2705 27.8299C22.4521 27.6649 22.9498 27.3681 23.2417 26.9706C23.5827 26.5063 23.8091 25.6927 23.9073 24.0874C23.9833 22.8454 23.9794 21.2761 23.9743 19.2457L23.9743 19.244C23.9729 18.697 23.9714 18.1165 23.9714 17.5C23.9714 16.8835 23.9729 16.3031 23.9743 15.7561L23.9743 15.7544C23.9794 13.7239 23.9833 12.1546 23.9073 10.9126C23.8091 9.30731 23.5827 8.4937 23.2417 8.02938C22.9498 7.63186 22.4521 7.33511 21.2705 7.17008C20.0698 7.00237 18.4059 7 15.9991 7C13.5924 7 11.9284 7.00235 10.7277 7.17004C9.54616 7.33506 9.04839 7.6318 8.7565 8.0293C8.41555 8.49359 8.18918 9.30719 8.09094 10.9125C8.01493 12.1545 8.01888 13.7238 8.02398 15.7543Z" fill="#000000" class="bmwfcol"/><title>backpack_rg_48</title></svg>