<svg width="48" height="48" viewBox="0 0 32 32" xmlns="http://www.w3.org/2000/svg"><path d="M6.96436 2.72218C7.14173 2.60359 7.34125 2.51158 7.5588 2.45329L9.49066 1.93565C10.5576 1.64977 11.6543 2.28293 11.9401 3.34987L12.3923 5.0372C13.4042 4.99997 14.5749 4.99998 15.9139 5H16.0838C17.424 4.99998 18.5957 4.99997 19.6083 5.0373L20.0605 3.34956C20.3464 2.28263 21.443 1.64946 22.51 1.93534L24.4418 2.45298C25.5088 2.73887 26.1419 3.83554 25.856 4.90247L25.1886 7.39355C25.6471 8.30046 25.8214 9.44825 25.9036 10.7905C25.9838 12.1022 25.9796 13.7586 25.9743 15.8021V15.8032C25.9729 16.3416 25.9714 16.907 25.9714 17.5C25.9714 18.093 25.9729 18.6584 25.9743 19.1969V19.198C25.975 19.4723 25.9757 19.7397 25.9762 20.0002H26.498C27.6026 20.0002 28.498 20.8957 28.498 22.0002V24.2559L26.498 22.2559V22.0002H26.2424L23.9754 19.7333L23.9743 19.244C23.9729 18.697 23.9714 18.1165 23.9714 17.5C23.9714 16.8835 23.9729 16.3031 23.9743 15.7561L23.9743 15.7544C23.9794 13.7239 23.9833 12.1546 23.9073 10.9126C23.8091 9.30731 23.5827 8.4937 23.2417 8.02938C22.9498 7.63186 22.4521 7.33511 21.2705 7.17008C20.0698 7.00237 18.4059 7 15.9991 7C13.9791 7 12.4823 7.00166 11.3435 7.10134L9.59148 5.3493C9.83974 5.28931 10.0982 5.24099 10.3657 5.20152L10.0083 3.8675L8.51091 4.26873L6.96436 2.72218ZM23.5561 5.75866L23.9242 4.38483L21.9923 3.8672L21.6347 5.20188C22.3464 5.30705 22.9936 5.47484 23.5561 5.75866Z" fill="#000000" class="bmwfcol"/><path d="M13.2422 9L15.2422 11H21V9H13.2422Z" fill="#000000" class="bmwfcol"/><path d="M22.9568 18.7146L19.3035 15.0613C19.3916 15.0677 19.4773 15.0747 19.5605 15.0824C20.4399 15.1639 21.2668 15.3387 21.8878 15.8577C22.547 16.4088 22.7857 17.1813 22.891 17.9784C22.9209 18.2046 22.942 18.4503 22.9568 18.7146Z" fill="#000000" class="bmwfcol"/><path d="M21.8925 26.1356L21.8839 26.1428C21.2626 26.6612 20.436 26.8361 19.5569 26.9176C18.668 27 17.5069 27 16.0547 27H15.9473C14.495 27 13.3338 27 12.4449 26.9176C11.5658 26.8361 10.7392 26.6612 10.1179 26.1427C9.45831 25.5922 9.21833 24.8203 9.11213 24.0226C9.0097 23.2532 9.00973 22.2605 9.00977 21.0714V20.9106C9.0097 19.7299 9.00965 18.7434 9.11076 17.9784C9.21609 17.1813 9.45475 16.4088 10.114 15.8577C10.4008 15.618 10.7315 15.4517 11.0911 15.3342L12.815 17.0581C12.7502 17.0629 12.6871 17.0682 12.6258 17.0739C11.8194 17.1486 11.5235 17.2863 11.3966 17.3923C11.3211 17.4554 11.2124 17.5848 11.1321 18H13.7569L15.7569 20H11.012C11.0099 20.3017 11.0098 20.6335 11.0098 21C11.0098 22.2792 11.0119 23.1371 11.0946 23.7586C11.1757 24.3672 11.3101 24.5327 11.3994 24.6072C11.527 24.7138 11.8238 24.8514 12.6296 24.9261C13.4149 24.999 14.4827 25 16.0009 25C17.5191 25 18.5869 24.999 19.3722 24.9261C19.9605 24.8716 20.2775 24.7835 20.4554 24.6985L21.8925 26.1356Z" fill="#000000" class="bmwfcol"/><path d="M21.2705 27.8299C22.1719 27.704 22.6753 27.5015 22.9929 27.236L24.41 28.6531C23.6726 29.3374 22.6909 29.6509 21.5472 29.8107C20.1916 30.0001 18.3866 30 16.0839 30H15.9139C13.6114 30 11.8066 30.0001 10.4511 29.8107C9.05969 29.6164 7.90813 29.1945 7.14445 28.1545C7.10741 28.1041 7.07167 28.0526 7.03716 28.0002H5.50195C4.39738 28.0002 3.50195 27.1048 3.50195 26.0002V22.0002C3.50195 20.8957 4.39738 20.0002 5.50195 20.0002H6.02209C6.02256 19.7399 6.02325 19.4728 6.02396 19.1987L6.02396 19.1976C6.02535 18.659 6.02681 18.0932 6.02681 17.5C6.02681 16.9067 6.02535 16.3411 6.02396 15.8023C6.01868 13.7588 6.0144 12.1021 6.09467 10.7904C6.10343 10.6472 6.11325 10.5062 6.12434 10.3674L8.03839 12.2815C8.01772 13.262 8.02059 14.4066 8.02398 15.7543C8.02535 16.3018 8.02681 16.8828 8.02681 17.5C8.02681 18.1167 8.02535 18.6973 8.02398 19.2444V19.2457C8.01888 21.2762 8.01493 22.8455 8.09093 24.0875C8.18917 25.6928 8.41554 26.5064 8.75649 26.9707C9.04838 27.3682 9.54615 27.6649 10.7277 27.83C11.9284 27.9977 13.5924 28 15.9991 28C18.4059 28 20.0698 27.9976 21.2705 27.8299ZM6.09467 24.2096C6.05488 23.5595 6.03587 22.8248 6.02745 22.0002H5.50195V26.0002H6.29739C6.19456 25.4514 6.13403 24.8528 6.09467 24.2096Z" fill="#000000" class="bmwfcol"/><path d="M4.41437 3L30.4144 29H27.5859L1.58594 3H4.41437Z" fill="#000000" class="bmwfcol"/><title>backpack_crossed_out_rg_48</title></svg>