<svg width="48" height="48" viewBox="0 0 32 32" xmlns="http://www.w3.org/2000/svg"><path d="M14 9.5C12.7228 9.5 11.5807 9.93011 10.7554 10.7554C9.93011 11.5807 9.5 12.7228 9.5 14C9.5 15.2772 9.93011 16.4193 10.7554 17.2446C11.5807 18.0699 12.7228 18.5 14 18.5C16.6836 18.5 18.5 16.4534 18.5 14C18.5 12.7228 18.0699 11.5807 17.2446 10.7554C16.4193 9.93011 15.2772 9.5 14 9.5ZM11.5 14C11.5 13.1772 11.7699 12.5693 12.1696 12.1696C12.5693 11.7699 13.1772 11.5 14 11.5C14.8228 11.5 15.4307 11.7699 15.8304 12.1696C16.2301 12.5693 16.5 13.1772 16.5 14C16.5 15.4126 15.5164 16.5 14 16.5C13.1772 16.5 12.5693 16.2301 12.1696 15.8304C11.7699 15.4307 11.5 14.8228 11.5 14Z" fill="#000000" class="bmwfcol"/><path d="M4 6C3.48408 6 2.95856 6.16222 2.56039 6.56039C2.16222 6.95856 2 7.48408 2 8V20C2 20.5159 2.16222 21.0414 2.56039 21.4396C2.95856 21.8378 3.48408 22 4 22H24C24.5159 22 25.0414 21.8378 25.4396 21.4396C25.8378 21.0414 26 20.5159 26 20V8C26 7.48408 25.8378 6.95856 25.4396 6.56039C25.0414 6.16222 24.5159 6 24 6H4ZM4 20V18.1097L6.25278 20H4ZM9.36423 20L4 15.4989V12.501L9.3641 8H18.6363L24 12.5007V15.4992L18.6362 20H9.36423ZM6.25265 8L4 9.8902V8H6.25265ZM24 9.88985L21.7478 8H24V9.88985ZM21.7476 20L24 18.11V20H21.7476Z" fill="#000000" class="bmwfcol"/><path d="M6.56039 25.4396C6.16222 25.0414 6 24.5159 6 24H28L28 10C28.5159 10 29.0414 10.1622 29.4396 10.5604C29.8378 10.9586 30 11.4841 30 12V24C30 24.5159 29.8378 25.0414 29.4396 25.4396C29.0414 25.8378 28.5159 26 28 26H8C7.48408 26 6.95856 25.8378 6.56039 25.4396Z" fill="#000000" class="bmwfcol"/><title>banknotes_rg_48</title></svg>