<svg width="48" height="48" viewBox="0 0 32 32" xmlns="http://www.w3.org/2000/svg"><path d="M4.41437 3L30.4144 29H27.5859L1.58594 3H4.41437Z" fill="#000000" class="bmwfcol"/><path d="M10.2426 6L12.2426 8H21.3991L26 11.6401V14.3599L21.87 17.6274L24.2426 20H26.0909C26.5624 20 27.0578 19.8613 27.4428 19.4983C27.8349 19.1286 28 18.6321 28 18.1429V7.85714C28 7.36795 27.8349 6.87139 27.4428 6.5017C27.0578 6.13867 26.5624 6 26.0909 6H10.2426ZM26 9.40861L24.2196 8H26V9.40861ZM24.2196 18L26 16.5914V18H24.2196Z" fill="#000000" class="bmwfcol"/><path d="M6 14.1874V10.2427L8 12.2427V13.9054C7.32343 13.9279 6.6458 14.02 6 14.1874Z" fill="#000000" class="bmwfcol"/><path d="M19.9737 15.7311C20.6265 15.0114 21 14.0467 21 13C21 11.8728 20.6199 10.8557 19.8821 10.1179C19.1443 9.38011 18.1272 9 17 9C15.9347 9 14.9678 9.33947 14.2421 9.99946L15.66 11.4174C15.9706 11.1674 16.4131 11 17 11C17.6728 11 18.1557 11.2199 18.4679 11.5321C18.7801 11.8443 19 12.3272 19 13C19 13.511 18.8415 13.9669 18.5565 14.3139L19.9737 15.7311Z" fill="#000000" class="bmwfcol"/><path d="M14.779 19.0212C13.9924 19.0625 13.2514 19.2228 12.6325 19.4845V18.8142H12.6218C12.629 18.7491 12.6327 18.6824 12.6327 18.6142C12.6327 17.6308 11.8583 16.9761 11.1449 16.6194C10.3791 16.2365 9.38234 16.0249 8.32918 16.0249C7.27602 16.0249 6.2793 16.2365 5.5135 16.6194C4.80003 16.9761 4.0256 17.6308 4.0256 18.6142C4.0256 18.6824 4.02934 18.7491 4.03651 18.8142H4.02539V21.5999L4.0256 21.6281V24.3852C4.0256 25.3686 4.80003 26.0233 5.5135 26.38C6.2793 26.7629 7.27602 26.9745 8.32918 26.9745C9.38234 26.9745 10.3791 26.7629 11.1449 26.38C11.3507 26.2771 11.5617 26.1493 11.7576 25.996C11.9536 26.1493 12.1646 26.2771 12.3704 26.38C13.1362 26.7629 14.1329 26.9745 15.1861 26.9745C16.2393 26.9745 17.236 26.7629 18.0018 26.38C18.7153 26.0233 19.4897 25.3686 19.4897 24.3852V23.7319L17.567 21.8093C17.4848 21.8777 17.3709 21.9536 17.2192 22.0295C16.7441 22.267 16.0265 22.4392 15.1861 22.4392C14.3457 22.4392 13.6282 22.267 13.1531 22.0295C12.9158 21.9108 12.7712 21.7921 12.695 21.7021C12.6586 21.6591 12.6431 21.6289 12.637 21.614C12.634 21.6068 12.6327 21.6011 12.6327 21.6011V21.5995C12.6327 21.5995 12.6341 21.593 12.637 21.5858C12.6431 21.5709 12.6586 21.5407 12.695 21.4977C12.7712 21.4077 12.9158 21.289 13.1531 21.1703C13.6282 20.9328 14.3457 20.7606 15.1861 20.7606C15.7781 20.7606 16.3091 20.846 16.7373 20.9796L14.779 19.0212ZM10.8827 18.6142L10.8826 18.6153C10.8826 18.6153 10.8813 18.6209 10.8783 18.6283C10.8722 18.6432 10.8567 18.6733 10.8203 18.7164C10.7441 18.8064 10.5995 18.9251 10.3622 19.0437C9.88713 19.2813 9.16957 19.4535 8.32918 19.4535C7.48879 19.4535 6.77122 19.2813 6.29612 19.0437C6.05882 18.9251 5.91427 18.8064 5.83808 18.7164C5.80169 18.6733 5.78619 18.6432 5.78007 18.6283C5.77706 18.6209 5.7758 18.6153 5.7758 18.6153L5.7756 18.6142L5.7758 18.6131C5.7758 18.6131 5.77706 18.6075 5.78007 18.6001C5.78619 18.5852 5.80169 18.555 5.83808 18.512C5.91427 18.422 6.05882 18.3033 6.29612 18.1846C6.77122 17.9471 7.48879 17.7749 8.32918 17.7749C9.16957 17.7749 9.88713 17.9471 10.3622 18.1846C10.5995 18.3033 10.7441 18.422 10.8203 18.512C10.8567 18.555 10.8722 18.5852 10.8783 18.6001C10.8813 18.6075 10.8826 18.6131 10.8826 18.6131L10.8827 18.6142ZM15.1861 24.1892C16.1229 24.1892 17.015 24.0218 17.7397 23.7153V24.3852L17.7395 24.3863C17.7395 24.3863 17.7382 24.3919 17.7352 24.3993C17.7291 24.4142 17.7136 24.4444 17.6772 24.4874C17.601 24.5775 17.4565 24.6961 17.2192 24.8148C16.7441 25.0523 16.0265 25.2245 15.1861 25.2245C14.3457 25.2245 13.6282 25.0523 13.1531 24.8148C12.9158 24.6961 12.7712 24.5775 12.695 24.4874C12.6586 24.4444 12.6431 24.4142 12.637 24.3993C12.634 24.3921 12.6327 24.3864 12.6327 24.3864V23.7154C13.3574 24.0218 14.2494 24.1892 15.1861 24.1892ZM5.77539 20.7295C6.5001 21.036 7.39231 21.2035 8.32918 21.2035C9.26586 21.2035 10.1579 21.0361 10.8825 20.7297V21.5999L10.8823 21.601C10.8823 21.601 10.8811 21.6066 10.8781 21.614C10.872 21.6289 10.8564 21.6591 10.8201 21.7021C10.7439 21.7921 10.5993 21.9108 10.362 22.0295C9.88692 22.267 9.16935 22.4392 8.32896 22.4392C7.48857 22.4392 6.771 22.267 6.29591 22.0295C6.05861 21.9108 5.91405 21.7921 5.83786 21.7021C5.80148 21.6591 5.78597 21.6289 5.77985 21.614C5.77691 21.6068 5.7756 21.6011 5.7756 21.6011L5.77539 20.7295ZM10.8806 24.3931C10.8806 24.3931 10.8793 24.3969 10.8783 24.3993C10.8722 24.4142 10.8567 24.4444 10.8203 24.4874C10.7441 24.5775 10.5995 24.6961 10.3622 24.8148C9.88713 25.0523 9.16957 25.2245 8.32918 25.2245C7.48879 25.2245 6.77122 25.0523 6.29612 24.8148C6.05882 24.6961 5.91427 24.5775 5.83808 24.4874C5.80169 24.4444 5.78619 24.4142 5.78007 24.3993C5.77706 24.3919 5.7758 24.3863 5.7758 24.3863L5.7756 24.3852V23.7154C6.50024 24.0218 7.39228 24.1892 8.32896 24.1892C9.26574 24.1892 10.1579 24.0218 10.8825 23.7153V24.3864C10.8825 24.3864 10.8818 24.3896 10.8806 24.3931Z" fill="#000000" class="bmwfcol"/><title>banknote_and_coins_crossed_out_rg_48</title></svg>