<svg width="48" height="48" viewBox="0 0 32 32" xmlns="http://www.w3.org/2000/svg"><path d="M11 10V22H9V10H11Z" fill="#000000" class="bmwfcol"/><path d="M15 10V22H13V10H15Z" fill="#000000" class="bmwfcol"/><path d="M19 10V22H17V10H19Z" fill="#000000" class="bmwfcol"/><path d="M23 10V22H21V10H23Z" fill="#000000" class="bmwfcol"/><path d="M3 20H5V23C5 23.9263 5.17178 24.3184 5.38966 24.5259C5.62669 24.7516 6.16859 25 7.5 25H10.9996L11 27H7.5C6.03141 27 4.82331 26.7484 4.01034 25.9741C3.17822 25.1816 3 24.0737 3 23V20Z" fill="#000000" class="bmwfcol"/><path d="M3 12H5V9C5 8.07365 5.17178 7.68164 5.38966 7.47414C5.62669 7.24839 6.16859 7 7.5 7H10.9996L11 5H7.5C6.03141 5 4.82331 5.25161 4.01034 6.02586C3.17822 6.81836 3 7.92635 3 9V12Z" fill="#000000" class="bmwfcol"/><path d="M29 20H27V23C27 23.9263 26.8282 24.3184 26.6103 24.5259C26.3733 24.7516 25.8314 25 24.5 25H21.0004L21 27H24.5C25.9686 27 27.1767 26.7484 27.9897 25.9741C28.8218 25.1816 29 24.0737 29 23V20Z" fill="#000000" class="bmwfcol"/><path d="M29 12H27V9C27 8.07365 26.8282 7.68164 26.6103 7.47414C26.3733 7.24839 25.8314 7 24.5 7H21.0004L21 5H24.5C25.9686 5 27.1767 5.25161 27.9897 6.02586C28.8218 6.81836 29 7.92635 29 9V12Z" fill="#000000" class="bmwfcol"/><title>barcode_rg_48</title></svg>