<svg width="48" height="48" viewBox="0 0 32 32" xmlns="http://www.w3.org/2000/svg"><path d="M24.9995 24H12.7453C13.1666 23.396 13.4951 22.7224 13.7101 22L24.9995 22C25.4135 22 25.638 21.8772 25.7573 21.7579C25.8767 21.6385 25.9995 21.414 25.9995 21V18.2326L26.7406 18.034C27.2585 17.8952 27.5614 17.8081 27.7664 17.7215C27.8537 17.6846 27.8966 17.6584 27.9148 17.6453C27.9252 17.619 27.9531 17.5318 27.9722 17.3174C27.9986 17.0201 27.9995 16.6185 27.9995 16C27.9995 15.3814 27.9986 14.9798 27.9722 14.6825C27.9531 14.468 27.9252 14.3809 27.9148 14.3545C27.8966 14.3414 27.8537 14.3153 27.7664 14.2784C27.5614 14.1917 27.2585 14.1046 26.7406 13.9658L25.9995 13.7672V11C25.9995 10.5859 25.8767 10.3614 25.7573 10.2421C25.638 10.1228 25.4135 9.99997 24.9995 9.99997L6.99945 9.99997C6.58537 9.99997 6.36089 10.1227 6.24156 10.2421C6.12223 10.3614 5.99945 10.5859 5.99945 11L5.99945 13.071C5.2933 13.172 4.62115 13.3785 3.99945 13.6739V11C3.99945 10.174 4.25667 9.39854 4.82734 8.82786C5.39801 8.25719 6.17353 7.99997 6.99945 7.99997L24.9995 7.99997C25.8254 7.99997 26.6009 8.2572 27.1716 8.82787C27.7422 9.39854 27.9995 10.1741 27.9995 11V12.2424C28.1967 12.3032 28.3804 12.3666 28.545 12.4361C28.9248 12.5966 29.3118 12.8329 29.5869 13.2543C29.8467 13.6524 29.9283 14.0995 29.9643 14.5056C29.9995 14.9021 29.9995 15.3937 29.9995 15.9573V16.0428C29.9995 16.6063 29.9995 17.0978 29.9643 17.4943C29.9283 17.9004 29.8467 18.3475 29.5869 18.7456C29.3118 19.167 28.9248 19.4032 28.545 19.5637C28.3804 19.6333 28.1967 19.6967 27.9995 19.7574V21C27.9995 21.8259 27.7422 22.6014 27.1716 23.1721C26.6009 23.7427 25.8254 24 24.9995 24ZM27.9209 14.3592C27.9239 14.3625 27.9259 14.3641 27.9262 14.3641C27.9263 14.3641 27.9259 14.3635 27.9246 14.3623C27.9238 14.3615 27.9226 14.3605 27.9209 14.3592ZM27.9262 17.6357C27.9265 17.6358 27.925 17.6374 27.9209 17.6407C27.9239 17.6373 27.9259 17.6357 27.9262 17.6357Z" fill="#000000" class="bmwfcol"/><path d="M14 11.5V16H16V17.1H14.6338L17 21.0436L19.3662 17.1H18V14H16V11.5H14Z" fill="#000000" class="bmwfcol"/><path d="M7 15C5.57275 15 4.30567 15.4801 3.39289 16.3929C2.48011 17.3057 2 18.5728 2 20C2 21.4272 2.48011 22.6943 3.39289 23.6071C3.80107 24.0153 4.28009 24.3369 4.8126 24.5678L3.35706 30H5.42761L6.76849 24.9957C6.84517 24.9986 6.92235 25 7 25C7.07767 25 7.15486 24.9986 7.23155 24.9957L8.57243 30H10.643L9.18743 24.5678C9.71993 24.3369 10.1989 24.0153 10.6071 23.6071C11.5199 22.6943 12 21.4272 12 20C12 18.5728 11.5199 17.3057 10.6071 16.3929C9.69433 15.4801 8.42725 15 7 15ZM4 20C4 19.0272 4.31989 18.2943 4.80711 17.8071C5.29433 17.3199 6.02725 17 7 17C7.97275 17 8.70567 17.3199 9.19289 17.8071C9.68011 18.2943 10 19.0272 10 20C10 20.9728 9.68011 21.7057 9.19289 22.1929C8.70567 22.6801 7.97275 23 7 23C6.02725 23 5.29433 22.6801 4.80711 22.1929C4.31989 21.7057 4 20.9728 4 20Z" fill="#000000" class="bmwfcol"/><title>battery_and_seal_rg_48</title></svg>