<svg width="48" height="48" viewBox="0 0 32 32" xmlns="http://www.w3.org/2000/svg"><path d="M26 25H4C3.17408 25 2.39856 24.7428 1.82789 24.1721C1.25722 23.6014 1 22.8259 1 22L1 10C1 9.17408 1.25722 8.39857 1.82789 7.82789C2.39856 7.25722 3.17408 7 4 7L26 7C26.8259 7 27.6014 7.25723 28.1721 7.8279C28.7428 8.39857 29 9.17408 29 10V12.2425C29.1973 12.3032 29.3809 12.3666 29.5456 12.4362C29.9253 12.5967 30.3124 12.8329 30.5874 13.2543C30.8473 13.6524 30.9288 14.0995 30.9649 14.5056C31.0001 14.9022 31.0001 15.3937 31 15.9573V16.0427C31.0001 16.6062 31.0001 17.0978 30.9649 17.4943C30.9288 17.9004 30.8473 18.3475 30.5874 18.7456C30.3123 19.167 29.9253 19.4032 29.5456 19.5637C29.3809 19.6333 29.1973 19.6967 29 19.7574V22C29 22.8259 28.7428 23.6014 28.1721 24.1721C27.6014 24.7428 26.8259 25 26 25ZM4 23L26 23C26.4141 23 26.6386 22.8772 26.7579 22.7579C26.8772 22.6386 27 22.4141 27 22V18.2326L27.7412 18.034C28.2591 17.8952 28.562 17.8081 28.767 17.7215C28.8543 17.6846 28.8971 17.6584 28.9153 17.6453C28.9258 17.619 28.9537 17.5318 28.9727 17.3174C28.9991 17.0201 29 16.6185 29 16C29 15.3815 28.9991 14.9798 28.9727 14.6825C28.9537 14.4681 28.9258 14.3809 28.9153 14.3546C28.8971 14.3415 28.8543 14.3153 28.767 14.2784C28.562 14.1918 28.2591 14.1046 27.7412 13.9659L27 13.7673V10C27 9.58593 26.8772 9.36144 26.7579 9.24211C26.6386 9.12278 26.4141 9 26 9L4 9C3.58592 9 3.36144 9.12278 3.24211 9.24211C3.12278 9.36144 3 9.58592 3 10L3 22C3 22.4141 3.12278 22.6386 3.24211 22.7579C3.36144 22.8772 3.58592 23 4 23ZM28.9267 14.3641C28.9267 14.3641 28.9245 14.3625 28.9215 14.3592C28.9255 14.3624 28.9267 14.3641 28.9267 14.3641ZM28.9268 17.6358C28.9268 17.6358 28.9255 17.6375 28.9215 17.6407C28.9245 17.6373 28.9268 17.6358 28.9268 17.6358Z" fill="#000000" class="bmwfcol"/><title>battery_cell_0_rg_48</title></svg>