<svg width="48" height="48" viewBox="0 0 32 32" xmlns="http://www.w3.org/2000/svg"><path d="M15.4185 21H30V6H26V4H20V6H16V4H10V6H6V10.252C6.63924 10.0875 7.3094 10 8 10V8H12V6H14V8H22V6H24V8H28V19H15.9381C15.851 19.6986 15.6738 20.3693 15.4185 21Z" fill="#000000" class="bmwfcol"/><path d="M14.9297 14H16V12H13.2916C13.9396 12.5719 14.4943 13.2472 14.9297 14Z" fill="#000000" class="bmwfcol"/><path d="M22 16V14H20V12H22V10H24V12H26V14H24V16H22Z" fill="#000000" class="bmwfcol"/><path d="M11 28V23.3062C12.8949 22.3205 14 20.3777 14 17.9996C14 15.8936 13.0773 14.2255 11.473 12.9371L10.2912 13.3348L9.10209 17.7726C9.02574 18.0583 8.94342 18.1395 8.64595 18.1176C8.48179 18.1056 8.27258 18.0672 8.00694 17.996C7.74129 17.9248 7.54065 17.8534 7.39212 17.7816C7.14705 17.6632 7.10044 17.5118 7.16997 17.2557L8.33025 12.9255L7.51143 11.9944C5.9143 12.2216 4.42791 12.7308 3.35406 14.0099C2.46675 15.0669 2 16.4494 2 17.9996C2 20.3777 3.10507 22.3205 5 23.3062V28H7V21.9637C5.18054 21.2851 4 20.0809 4 17.9996C4 16.8547 4.3403 15.9457 4.88584 15.2959C5.14485 14.9874 5.46156 14.7235 5.83357 14.5158L5.23889 16.7352C5.02076 17.5407 5.10155 18.3331 5.66484 18.9605C6.14705 19.4977 6.86017 19.7592 7.48923 19.9278C8.11838 20.0964 8.86628 20.2263 9.55232 20.002C10.3532 19.74 10.8189 19.0945 11.0341 18.2895L11.62 16.1032C11.8629 16.6375 12 17.2716 12 17.9996C12 20.0809 10.8195 21.2851 9 21.9637V28H11Z" fill="#000000" class="bmwfcol"/><title>battery-service_rg_48</title></svg>