<svg width="48" height="48" viewBox="0 0 32 32" xmlns="http://www.w3.org/2000/svg"><path d="M4 11.0829V8.77353L16.0002 1.84521L28 8.77329V11.0827L16.0002 4.15462L4 11.0829Z" fill="#000000" class="bmwfcol"/><path d="M20 19V17H22V19H24V21H22V23H20V21H18V19H20Z" fill="#000000" class="bmwfcol"/><path d="M14 21H8V19H14V21Z" fill="#000000" class="bmwfcol"/><path d="M14 11H8V13H4V28H28V13H24V11H18V13H14V11ZM10 15V13H12V15H20V13H22V15H26V26H6V15H10Z" fill="#000000" class="bmwfcol"/><title>battery_and_roof_rg_48</title></svg>