<svg width="48" height="48" viewBox="0 0 32 32" xmlns="http://www.w3.org/2000/svg"><path d="M29 9.00005V25.0001C29 25.516 28.8378 26.0415 28.4396 26.4397C28.0414 26.8378 27.5159 27.0001 27 27.0001L19 27.0001C18.4841 27.0001 17.9586 26.8378 17.5604 26.4397C17.1622 26.0415 17 25.516 17 25.0001L17 9.00005C17 8.48413 17.1622 7.95862 17.5604 7.56045C17.9586 7.16228 18.4841 7.00005 19 7.00005H19.7383C19.7931 6.81393 19.8481 6.64257 19.9057 6.49005C20.0359 6.14599 20.2277 5.75955 20.5919 5.46867C20.9628 5.1724 21.3835 5.07737 21.7486 5.03725C22.0883 4.99991 22.5034 4.99996 22.952 5C22.968 5 22.984 5.00001 23 5.00001C23.016 5.00001 23.032 5 23.048 5C23.4966 4.99996 23.9117 4.99991 24.2514 5.03725C24.6165 5.07737 25.0372 5.1724 25.4081 5.46867C25.7723 5.75955 25.9641 6.14599 26.0943 6.49005C26.1519 6.64257 26.2069 6.81393 26.2617 7.00006H27C27.5159 7.00006 28.0414 7.16228 28.4396 7.56045C28.8378 7.95862 29 8.48413 29 9.00005ZM27 25.0001V9.00005L24.7327 9.00005L24.5341 8.25887C24.3948 7.73908 24.3081 7.4211 24.2236 7.19754C24.1947 7.12129 24.172 7.07305 24.1569 7.04429C24.1307 7.03862 24.0908 7.03164 24.0329 7.02528C23.8159 7.00143 23.5131 7.00001 23 7.00001C22.487 7.00001 22.1841 7.00143 21.9671 7.02528C21.9092 7.03164 21.8693 7.03862 21.8431 7.04429C21.828 7.07305 21.8053 7.12129 21.7764 7.19754C21.6919 7.4211 21.6052 7.73908 21.4659 8.25887L21.2673 9.00005H19V25.0001L27 25.0001ZM24.199 7.05569L24.1974 7.05508L24.199 7.05569Z" fill="#000000" class="bmwfcol"/><path d="M15 13.0001V25.0001C15 25.516 14.8378 26.0415 14.4396 26.4397C14.0414 26.8378 13.5159 27.0001 13 27.0001L5 27.0001C4.48408 27.0001 3.95856 26.8378 3.56039 26.4397C3.16222 26.0415 3 25.516 3 25.0001L3 13.0001C3 12.4841 3.16222 11.9586 3.56039 11.5604C3.95856 11.1623 4.48408 11.0001 5 11.0001H5.73834C5.79309 10.8139 5.84806 10.6426 5.90574 10.49C6.03586 10.146 6.22768 9.75955 6.59185 9.46866C6.96278 9.17237 7.38347 9.07733 7.7486 9.0372C8.08835 8.99985 8.5035 8.99989 8.95214 8.99994C8.96805 8.99994 8.98401 8.99994 9 8.99994C9.01599 8.99994 9.03195 8.99994 9.04786 8.99994C9.4965 8.99989 9.91165 8.99985 10.2514 9.0372C10.6165 9.07733 11.0372 9.17237 11.4081 9.46866C11.7723 9.75955 11.9641 10.146 12.0943 10.49C12.1519 10.6426 12.2069 10.8139 12.2617 11.0001H13C13.5159 11.0001 14.0414 11.1623 14.4396 11.5604C14.8378 11.9586 15 12.4841 15 13.0001ZM13 25.0001V13.0001H10.7327L10.5341 12.2589C10.3948 11.7391 10.3081 11.4211 10.2236 11.1975C10.1947 11.1212 10.172 11.073 10.1569 11.0442C10.1307 11.0386 10.0908 11.0316 10.0329 11.0252C9.81592 11.0014 9.51304 10.9999 9 10.9999C8.48696 10.9999 8.18409 11.0014 7.96712 11.0252C7.90921 11.0316 7.86928 11.0386 7.84312 11.0442C7.82797 11.073 7.80527 11.1212 7.77643 11.1975C7.69188 11.4211 7.60521 11.7391 7.46593 12.2589L7.26733 13.0001L5 13.0001L5 25.0001L13 25.0001Z" fill="#000000" class="bmwfcol"/><path d="M21 12.5001V17.0001H23V18.5H21.6338L24 22.4437L26.3662 18.5H25V15.0001H23V12.5001H21Z" fill="#000000" class="bmwfcol"/><title>battery_cell_sizes_rg_48</title></svg>