<svg width="48" height="48" viewBox="0 0 32 32" xmlns="http://www.w3.org/2000/svg"><path d="M13.5343 4.8964C13.3937 4.7194 13.2826 4.55098 13.1994 4.38471C13.0012 3.98825 13.0001 3.67607 13.0001 3.5V2H15.0001V3.28315C15.0805 3.23426 15.1645 3.18459 15.2522 3.13398L15.4842 3L16.5159 3L16.748 3.13397C16.8357 3.18461 16.9197 3.2343 17.0001 3.28322V2H19.0001V3.5C19.0001 3.67607 18.999 3.98825 18.8008 4.38471C18.7177 4.55101 18.6065 4.71947 18.4659 4.89652C18.4914 5.02947 18.4962 5.1416 18.498 5.18256L18.4985 5.19424C18.5021 5.25898 18.5017 5.57809 18.5013 5.82433L18.4989 6.78913L18.3094 6.99511L21.726 10.4117C22.245 10.9307 22.5001 11.6353 22.5001 12.3875C22.5001 13.1398 22.245 13.8444 21.726 14.3634C21.207 14.8824 20.5024 15.1375 19.7501 15.1375C19.2161 15.1375 18.7061 15.0089 18.2694 14.7486C17.761 15.5 16.9731 16 16.0001 16C15.0272 16 14.2392 15.5 13.7308 14.7486C13.2942 15.009 12.7842 15.1375 12.2501 15.1375C11.4979 15.1375 10.7933 14.8824 10.2743 14.3634C9.75524 13.8444 9.50012 13.1398 9.50012 12.3875C9.50012 11.6353 9.75524 10.9307 10.2743 10.4117L13.6908 6.99517L13.5012 6.78913M15.499 5.90583C15.628 5.96292 15.7924 6 16.0001 6C16.2077 6 16.3722 5.96292 16.5012 5.90583L16.5013 5.84412C16.5015 5.6855 16.5015 5.54613 16.5014 5.44892L16.5014 5.36764C16.4718 5.34164 16.4302 5.30751 16.373 5.26492C16.2818 5.19711 16.1606 5.11496 16.0001 5.0161C15.8396 5.11496 15.7184 5.19711 15.6272 5.26492C15.5699 5.30751 15.5283 5.34164 15.4987 5.36764L15.4987 5.44867C15.4987 5.54588 15.4986 5.68559 15.4989 5.84412L15.499 5.90583ZM15.0002 8.99998L15.0002 9.49998H17.0001V8.99998C17.0001 8.63192 16.8832 8.4002 16.7482 8.26232L16.743 8.25706C16.6058 8.11985 16.3729 7.99998 16.0002 7.99998C15.6275 7.99998 15.3946 8.11985 15.2573 8.25707C15.1201 8.39429 15.0002 8.62721 15.0002 8.99998ZM19.1885 12.9492C19.282 13.0426 19.4524 13.1375 19.7501 13.1375C20.0479 13.1375 20.2183 13.0426 20.3118 12.9492C20.4053 12.8557 20.5001 12.6853 20.5001 12.3875C20.5001 12.0898 20.4053 11.9194 20.3118 11.8259L19.0001 10.5142L19.0001 12.3875C19.0001 12.6853 19.095 12.8557 19.1885 12.9492ZM15.0001 11.5L15.0001 12C15.0001 12.7667 15.1726 13.3058 15.3822 13.6203C15.5743 13.9084 15.7813 14 16.0001 14C16.219 14 16.426 13.9084 16.6181 13.6203C16.8277 13.3058 17.0001 12.7667 17.0001 12V11.5H15.0001ZM13.0001 12.3875L13.0002 10.5142L11.6885 11.8259C11.595 11.9194 11.5001 12.0898 11.5001 12.3875C11.5001 12.6853 11.595 12.8557 11.6885 12.9492C11.7819 13.0426 11.9524 13.1375 12.2501 13.1375C12.5479 13.1375 12.7183 13.0426 12.8118 12.9492C12.9052 12.8557 13.0001 12.6853 13.0001 12.3875Z" fill="#000000" class="bmwfcol"/><path d="M13.5343 4.8964C13.5088 5.02943 13.5039 5.14163 13.5022 5.18258L13.5343 4.8964Z" fill="#000000" class="bmwfcol"/><path d="M13.5022 5.18258L13.5016 5.19424L13.5022 5.18258Z" fill="#000000" class="bmwfcol"/><path d="M13.5016 5.19424C13.498 5.259 13.4985 5.57826 13.4988 5.82454L13.5016 5.19424Z" fill="#000000" class="bmwfcol"/><path d="M29.7074 15.2928C29.3997 14.9852 28.9704 14.6299 28.3684 14.4031C27.7594 14.1737 27.0435 14.1018 26.1993 14.2527C24.7373 14.5139 22.8562 15.4492 20.3113 17.457C19.9403 17.1456 19.4743 17 19.0002 17L14.1321 17L10.4 16L10.1896 15.9999C9.61222 15.9991 9.03833 15.9982 8.38671 16.397C8.09329 16.5766 7.80632 16.8208 7.49357 17.113C7.18002 17.4059 6.79513 17.7908 6.30666 18.2792L1.58594 23L7.58594 29H9.41436L11.4144 27H15.0288C16.0044 27 16.7764 27 17.3965 26.9673C18.0256 26.9342 18.5666 26.8653 19.0665 26.6987C20.044 26.3728 20.7036 25.7123 21.5891 24.8256L30.4147 15.9999L29.7074 15.2928ZM13.8688 19L19.0001 19L19.0002 19.5776C18.2151 20.3183 17.6686 20.6398 17.184 20.8013C16.6158 20.9907 16.0358 21 15.0004 21H11.0002V23L15.0818 23C16.0168 23.0002 16.9111 23.0005 17.8165 22.6986C18.7738 22.3795 19.6534 21.761 20.7073 20.7071L21.0001 20.4143L21.0003 19.4697C23.7543 17.211 25.4854 16.4119 26.5511 16.2215C26.9036 16.1585 27.1749 16.1636 27.3861 16.2001L20.2933 23.2929C19.2397 24.3465 18.9136 24.6414 18.4341 24.8013C18.1839 24.8847 17.8499 24.9407 17.2914 24.9701C16.73 24.9996 16.0109 25 15.0002 25H10.5859L8.58594 27H8.41436L4.41436 23L7.70726 19.7071C8.21232 19.202 8.57319 18.8413 8.85887 18.5745C9.14825 18.3041 9.31554 18.1734 9.43065 18.1029C9.55695 18.0256 9.5985 18.0031 10.1379 18.0003L13.8688 19Z" fill="#000000" class="bmwfcol"/><title>bee_on_hand_rg_48</title></svg>