<svg width="48" height="48" viewBox="0 0 32 32" xmlns="http://www.w3.org/2000/svg"><path d="M20 4C20 4.30107 19.9989 4.73825 19.7069 5.32221C19.5409 5.65435 19.2908 6.01555 18.9294 6.43554C19.1398 6.61598 19.3109 6.78821 19.4488 6.95641C19.6814 7.23998 19.83 7.52309 19.912 7.81942C19.9799 8.06504 19.991 8.29509 19.9967 8.41084L19.9984 8.44424C20.0037 8.54021 20.0031 8.91042 20.0023 9.19372C20.0019 9.34931 20.0013 9.50113 20.0008 9.61397L19.9978 10.1881L19.7359 10.4728C19.5578 10.6663 19.3647 10.8422 19.1581 11C19.3158 11.1205 19.4657 11.2515 19.6071 11.3929C19.6166 11.4024 19.6261 11.412 19.6356 11.4216L26.7446 18.5307C27.5699 19.3559 28 20.498 28 21.7753C28 23.0525 27.5699 24.1946 26.7446 25.0199C25.9193 25.8452 24.7773 26.2753 23.5 26.2753C22.2228 26.2753 21.0807 25.8452 20.2554 25.0199C20.2477 25.0122 20.2401 25.0045 20.2325 24.9968C20.0863 25.3201 19.9194 25.6236 19.732 25.9047C18.8741 27.1916 17.5811 28 16 28C14.4189 28 13.1259 27.1916 12.268 25.9047C12.0806 25.6236 11.9137 25.3201 11.7675 24.9968L11.7446 25.0199C10.9193 25.8452 9.77725 26.2753 8.5 26.2753C7.22275 26.2753 6.08067 25.8452 5.25539 25.0199C4.43011 24.1946 4 23.0525 4 21.7753C4 20.498 4.43011 19.3559 5.25539 18.5307L12.3637 11.4224L12.3929 11.3929C12.5343 11.2515 12.6841 11.1205 12.8418 11.0001C12.6352 10.8422 12.442 10.6663 12.264 10.4728L12.002 10.1881L11.999 9.61397C11.9985 9.50113 11.9979 9.34931 11.9975 9.19372C11.9968 8.91042 11.9961 8.54021 12.0015 8.44424L12.0032 8.41084C12.0088 8.29509 12.02 8.06504 12.0879 7.81942C12.1698 7.52309 12.3184 7.23998 12.551 6.95641C12.689 6.78818 12.8601 6.61592 13.0705 6.43544C12.7092 6.0155 12.4591 5.65432 12.2931 5.32221C12.0011 4.73825 12 4.30107 12 4V3H14V4.00765C14 4.20057 14 4.26389 14.0819 4.42779C14.1676 4.59914 14.3469 4.86923 14.7307 5.29401C14.8191 5.24155 14.9102 5.18822 15.0041 5.13398L15.2362 5L16.7636 5L16.9957 5.13397C17.0897 5.18825 17.1809 5.2416 17.2693 5.29409C17.6531 4.86926 17.8324 4.59915 17.9181 4.42779C18 4.26389 18 4.20057 18 4.00765L18 3H20V4ZM21 21.7753C21 22.598 21.2699 23.2059 21.6696 23.6057C22.0693 24.0054 22.6773 24.2753 23.5 24.2753C24.3228 24.2753 24.9307 24.0054 25.3304 23.6057C25.7301 23.2059 26 22.598 26 21.7753C26 20.9525 25.7301 20.3446 25.3304 19.9449L21 15.6145L21 21.7753ZM18.1928 12.8073C18.1928 12.8073 18.1928 12.8073 18.1928 12.8073C17.7056 12.3201 16.9728 12 16 12C15.0272 12 14.2944 12.3201 13.8072 12.8073L13.7857 12.8288C13.3105 13.316 13 14.0416 13 15H19C19 14.0412 18.6892 13.3154 18.2138 12.8282L18.1928 12.8073ZM19 17H13V20H19V17ZM11 15.6145L6.66961 19.9449C6.26989 20.3446 6 20.9525 6 21.7753C6 22.598 6.26989 23.2059 6.66961 23.6057C7.06933 24.0054 7.67725 24.2753 8.5 24.2753C9.32275 24.2753 9.93067 24.0054 10.3304 23.6057C10.7301 23.2059 11 22.598 11 21.7753V15.6145ZM15.9999 10C16.8516 10 17.5202 9.75503 18.0018 9.36479L18.0023 9.18851C18.0027 9.0343 18.0029 8.87788 18.0026 8.75349C18.0024 8.65573 18.0018 8.59689 18.0015 8.57103C18.0014 8.55915 18.0014 8.55423 18.0015 8.5557C17.992 8.38657 17.9901 8.37345 17.9843 8.35237C17.9833 8.34873 17.9809 8.34069 17.9724 8.32479C17.9632 8.30758 17.9433 8.27465 17.9024 8.22476C17.727 8.0109 17.293 7.63267 16.2248 7L15.775 7C14.7068 7.63267 14.2728 8.01091 14.0974 8.22476C14.0565 8.27465 14.0366 8.30758 14.0274 8.32479C14.0189 8.34069 14.0166 8.34873 14.0155 8.35237C14.0097 8.37346 14.0078 8.38658 13.9984 8.55576C13.9984 8.55411 13.9984 8.559 13.9983 8.57104C13.998 8.59691 13.9974 8.65575 13.9972 8.75349C13.9969 8.87788 13.9971 9.0343 13.9975 9.18851L13.998 9.36479C14.4796 9.75503 15.1482 10 15.9999 10ZM13.0476 22C13.1648 23.1886 13.49 24.1322 13.9321 24.7953C14.4741 25.6084 15.1811 26 16 26C16.8189 26 17.5259 25.6084 18.0679 24.7953C18.51 24.1322 18.8352 23.1886 18.9524 22H13.0476Z" fill="#000000" class="bmwfcol"/><title>bee_rg_48</title></svg>