<svg width="48" height="48" viewBox="0 0 32 32" xmlns="http://www.w3.org/2000/svg"><path d="M16 4C13.0511 4 10.4285 4.81972 8.61613 7.4296C6.89829 9.9033 6.02595 13.8328 6.00057 19.7334L4 23.2344V25H11C11 26.4436 11.4513 27.7183 12.3666 28.6337C13.282 29.549 14.5564 30.0003 16 30.0003C17.4436 30.0003 18.718 29.549 19.6334 28.6337C20.5487 27.7183 21 26.4439 21 25.0003L28 25V23.2344L25.9994 19.7334C25.974 13.8328 25.1017 9.9033 23.3839 7.4296C21.5714 4.81972 18.9489 4 16 4ZM8 20C8 14.0491 8.87745 10.5596 10.2589 8.5704C11.5715 6.68028 13.4489 6 16 6C18.5511 6 20.4286 6.68028 21.7411 8.5704C23.1225 10.5596 24 14.0491 24 20V20.2656L25.5625 23H6.43747L8 20.2656V20ZM19 25C19 26.0264 18.6863 26.7523 18.2191 27.2195C17.752 27.6866 17.0264 28.0003 16 28.0003C14.9736 28.0003 14.248 27.6866 13.7809 27.2195C13.3137 26.7523 13 26.0264 13 25H19Z" fill="#000000" class="bmwfcol"/><title>bell_rg_48</title></svg>