<svg width="48" height="48" viewBox="0 0 32 32" xmlns="http://www.w3.org/2000/svg"><path d="M18.7501 2C16.7353 2 15.0916 3.58895 15.0038 5.58211L9.00012 11.5858V12.9143L9.29302 13.2072L9.34273 13.2573C9.53879 13.4558 9.82543 13.7459 10.2464 13.8862C10.465 13.9591 10.6779 13.9812 10.8616 13.9909C11.0367 14.0001 11.2469 14.0001 11.4772 14.0001H14.2501C14.5741 14.0001 14.8937 13.9814 15.2079 13.9451L15.0002 14.0007V16.0713L17.0001 15.5354L19.5002 16.2053V14.1348L17.8166 13.6837L17.6995 13.2466C20.4387 11.9841 22.3679 9.26438 22.4936 6.08117L24.0001 5.21137V3.00001H21.2996C20.6313 2.3804 19.7348 2 18.7501 2ZM17.0001 5.75002C17.0001 4.78351 17.7836 4 18.7501 4C19.2932 4 19.7779 4.24619 20.1005 4.63678L20.4005 5.00001H20.4411L20.4933 5.59372C20.4978 5.64499 20.5001 5.69711 20.5001 5.75002C20.5001 9.20183 17.7019 12.0001 14.2501 12.0001L11.4143 12L17.0001 6.41423V5.75002Z" fill="#000000" class="bmwfcol"/><path d="M29.7074 15.2928C29.3997 14.9852 28.9704 14.6299 28.3684 14.4031C27.7594 14.1737 27.0435 14.1018 26.1993 14.2527C24.7373 14.5139 22.8562 15.4492 20.3113 17.457C19.9403 17.1456 19.4743 17 19.0002 17L14.1321 17L10.4 16L10.1896 15.9999C9.61222 15.9991 9.03833 15.9982 8.38671 16.397C8.09329 16.5766 7.80632 16.8208 7.49357 17.113C7.18002 17.4059 6.79513 17.7908 6.30666 18.2792L1.58594 23L7.58594 29H9.41436L11.4144 27H15.0288C16.0044 27 16.7764 27 17.3965 26.9673C18.0256 26.9342 18.5666 26.8653 19.0665 26.6987C20.044 26.3728 20.7036 25.7123 21.5891 24.8256L30.4147 15.9999L29.7074 15.2928ZM13.8688 19L19.0001 19L19.0002 19.5776C18.2151 20.3183 17.6686 20.6398 17.184 20.8013C16.6158 20.9907 16.0358 21 15.0004 21H11.0002V23L15.0818 23C16.0168 23.0002 16.9111 23.0005 17.8165 22.6986C18.7738 22.3795 19.6534 21.761 20.7073 20.7071L21.0001 20.4143L21.0003 19.4697C23.7543 17.211 25.4854 16.4119 26.5511 16.2215C26.9036 16.1585 27.1749 16.1636 27.3861 16.2001L20.2933 23.2929C19.2397 24.3465 18.9136 24.6414 18.4341 24.8013C18.1839 24.8847 17.8499 24.9407 17.2914 24.9701C16.73 24.9996 16.0109 25 15.0002 25H10.5859L8.58594 27H8.41436L4.41436 23L7.70726 19.7071C8.21232 19.202 8.57319 18.8413 8.85887 18.5745C9.14825 18.3041 9.31554 18.1734 9.43065 18.1029C9.55695 18.0256 9.5985 18.0031 10.1379 18.0003L13.8688 19Z" fill="#000000" class="bmwfcol"/><title>bird_on_hand_rg_48</title></svg>