<svg width="48" height="48" viewBox="0 0 32 32" xmlns="http://www.w3.org/2000/svg"><path d="M12.0586 10.1113C13.2479 9.21818 14.614 8.80197 15.9912 8.92188C17.366 9.04182 18.6744 9.69002 19.7705 10.7861C21.4516 12.4675 22.0429 14.6216 21.4004 16.6582L28.084 23.3418C28.6689 23.9267 29.0136 24.6671 29.0137 25.4629C29.0136 26.2587 28.6688 26.9991 28.084 27.584C27.4991 28.1688 26.7586 28.5136 25.9629 28.5137C25.1672 28.5135 24.4266 28.1688 23.8418 27.584L17.1582 20.9004C15.1217 21.5427 12.9664 20.9525 11.2852 19.2715C9.90646 17.8927 9.24332 16.1811 9.43262 14.4473L9.49316 13.9043L9.98242 13.6602L10.1289 13.5889L10.6094 13.3496L14.5869 15.6465L14.5879 15.6475C14.7586 15.7461 14.8556 15.7642 14.8906 15.7676C14.9121 15.7695 14.9211 15.7681 14.9414 15.7578C14.9747 15.7409 15.0469 15.6918 15.1543 15.5674C15.2079 15.5052 15.2655 15.4306 15.3262 15.3418L15.5205 15.0303C15.6578 14.7925 15.7484 14.5999 15.8027 14.4443C15.8569 14.2888 15.8633 14.2018 15.8613 14.1641C15.8601 14.1407 15.857 14.1326 15.8447 14.1152C15.8248 14.0873 15.7607 14.014 15.5898 13.916L15.5879 13.9141L11.707 11.6738L11.6719 11.1396L11.6621 10.9756L11.627 10.4365L12.0586 10.1113ZM15.8184 10.9141C15.4177 10.8791 15.0069 10.9164 14.5977 11.0322L16.585 12.1807C17.3094 12.5959 17.813 13.2143 17.8584 14.0566C17.897 14.7772 17.5775 15.4664 17.252 16.0303L17.125 16.2441C16.8144 16.7452 16.4088 17.2564 15.8457 17.542C15.0943 17.9227 14.3082 17.795 13.5869 17.3779L11.6279 16.2461C11.8339 16.7955 12.1847 17.3418 12.6992 17.8564C14.0424 19.1995 15.6125 19.4561 16.9922 18.8262L17.624 18.5381L25.2559 26.1699C25.5192 26.4333 25.7689 26.5136 25.9629 26.5137C26.1569 26.5136 26.4065 26.4333 26.6699 26.1699C26.9333 25.9065 27.0136 25.6569 27.0137 25.4629C27.0136 25.2689 26.9334 25.0193 26.6699 24.7559L19.0381 17.124L19.3262 16.4922C19.9562 15.1125 19.6995 13.5434 18.3564 12.2002C17.547 11.3908 16.6635 10.9879 15.8184 10.9141Z" fill="#000000" class="bmwfcol"/><path d="M7.54688 17C7.72434 17.7079 7.9947 18.3785 8.34277 19H6V26H13V22.8096C13.6365 23.0132 14.3064 23.1409 15 23.1826V28H4V17H7.54688Z" fill="#000000" class="bmwfcol"/><path d="M29.9883 6.62207L27.1416 17.2471L23.5967 16.2969C23.6638 15.8744 23.7002 15.4414 23.7002 15C23.7002 14.7451 23.6858 14.4931 23.6631 14.2441L25.7275 14.7979L27.5391 8.03613L20.7773 6.22461L20.2217 8.29688C19.6646 7.90376 19.0566 7.57881 18.4092 7.33301L19.3633 3.77539L29.9883 6.62207Z" fill="#000000" class="bmwfcol"/><path d="M15 6.81641C14.3065 6.85812 13.6365 6.9859 13 7.18945V6H6V13H7.54688C7.38638 13.6402 7.2998 14.31 7.2998 15H4V4H15V6.81641Z" fill="#000000" class="bmwfcol"/><title>blocks_and_wrench_rg_48</title></svg>