<svg width="48" height="48" viewBox="0 0 32 32" xmlns="http://www.w3.org/2000/svg"><path d="M19.9894 24.4894L20 24.5V26.3902C19.6004 26.4242 19.1004 26.4555 18.5 26.4728V28H20V30H4V28H9.50001V26.4728C8.78347 26.4521 8.20995 26.4116 7.77948 26.3703C7.17885 26.3126 6.5922 26.2028 6 26.0892L6.00001 15.9311C6.33283 15.8567 6.66386 15.7726 7 15.7139V14.5968C6.66173 14.5608 6.33225 14.4698 6 14.4005V7.00519C6.28159 6.85816 6.55715 6.70054 6.8534 6.58427C7.29378 6.41142 8.17973 6.13474 9.50001 6.03637V3H11.5V6.03637C12.2775 6.0943 12.9038 6.21371 13.3781 6.33783C13.6282 6.40327 13.8355 6.46986 14 6.52915C14.1645 6.46986 14.3718 6.40327 14.6219 6.33783C15.0963 6.21371 15.7225 6.0943 16.5 6.03637V3H18.5V6.03637C19.8203 6.13474 20.7062 6.41142 21.1466 6.58427C21.4428 6.70053 21.7186 6.85791 22 7.00519V14.4005C21.6677 14.4698 21.3383 14.5608 21 14.5968V15.6587C20.3975 16.2324 20.0525 16.9108 19.8779 17.5804C19.3322 17.5241 18.5396 17.4705 17.5 17.4705C16.3802 17.4705 15.5469 17.5327 15 17.5935L15 24.3822C15.5521 24.4342 16.3854 24.4868 17.5 24.4868C18.5953 24.4868 19.4189 24.4361 19.971 24.3849C19.9806 24.4011 19.9904 24.4173 20.0003 24.4335L19.9894 24.4894ZM16.5 28V26.4728C15.7835 26.4521 15.2099 26.4116 14.7795 26.3703C14.4195 26.3357 14.1597 26.3007 14 26.2764C13.8403 26.3007 13.5805 26.3357 13.2205 26.3703C12.7901 26.4116 12.2166 26.4521 11.5 26.4728V28H16.5ZM15 8.30769L15 12.5824C15.6073 12.5226 16.4407 12.4704 17.5 12.4704C18.5593 12.4704 19.3927 12.5226 20 12.5824V8.30769C19.5065 8.16705 18.6747 8 17.5 8C16.3253 8 15.4935 8.16705 15 8.30769ZM19 14.5111C18.5757 14.4868 18.0757 14.4704 17.5 14.4704C16.3801 14.4704 15.5469 14.5326 15 14.5933L15 15.5826C15.6073 15.5227 16.4407 15.4705 17.5 15.4705C18.0641 15.4705 18.5641 15.4853 19 15.5082V14.5111ZM13 15.5826L13 14.5933C12.4531 14.5326 11.6199 14.4704 10.5 14.4704C9.92425 14.4704 9.42426 14.4868 9 14.5111V15.5082C9.43593 15.4853 9.93594 15.4705 10.5 15.4705C11.5593 15.4705 12.3927 15.5227 13 15.5826ZM13 12.5824L13 8.30769C12.5065 8.16705 11.6747 8 10.5 8C9.3253 8 8.49352 8.16705 8 8.30769V12.5824C8.60732 12.5226 9.44069 12.4704 10.5 12.4704C11.5593 12.4704 12.3927 12.5226 13 12.5824ZM13 17.5935C12.4531 17.5327 11.6199 17.4705 10.5 17.4705C9.44872 17.4705 8.65 17.5253 8.10372 17.5823C8.06808 17.586 8.03351 17.5897 8.00001 17.5935L8 24.3822C8.5521 24.4342 9.3854 24.4868 10.5 24.4868C11.6146 24.4868 12.4479 24.4342 13 24.3822L13 17.5935Z" fill="#000000" class="bmwfcol"/><path d="M14 6C15.1046 6 16 5.10457 16 4C16 2.89543 15.1046 2 14 2C12.8954 2 12 2.89543 12 4C12 5.10457 12.8954 6 14 6Z" fill="#000000" class="bmwfcol"/><path d="M22 26.4461V28.4758C23.1181 28.6652 24.1642 28.8105 24.8308 28.8105C25.2545 28.8105 25.6952 28.7835 26.1054 28.7025C26.5042 28.6237 26.9524 28.4792 27.3258 28.1901C27.5875 27.9874 27.834 27.7332 28.0097 27.4003C28.1884 27.0619 28.2639 26.6994 28.2639 26.3256C28.2639 25.7816 28.1327 25.2145 27.7349 24.7704C27.847 24.6372 27.9485 24.5137 28.0259 24.4144C28.1645 24.2367 28.3267 24.0155 28.4436 23.7435C28.5693 23.4514 28.6216 23.1536 28.6216 22.8315C28.6216 22.1851 28.3266 21.4465 27.6922 21.045C26.8619 20.5196 25.6703 19.9304 24.6251 19.45C24.3872 19.3407 24.2327 19.2681 24.1233 19.2133C24.0193 19.1613 23.9753 19.1349 23.953 19.1203C23.9355 19.1088 23.9182 19.0962 23.8684 19.0538C23.8503 19.0384 23.8088 18.9936 23.7744 18.9264C23.7418 18.8627 23.7292 18.8056 23.7292 18.7607C23.7292 18.6303 23.7494 18.5775 23.7548 18.5655C23.7572 18.5602 23.7589 18.5579 23.761 18.5554C23.7634 18.5525 23.7727 18.5422 23.7961 18.5262C23.8581 18.484 23.9821 18.4303 24.2137 18.3941C24.4429 18.3582 24.7122 18.3486 25.0293 18.3486C25.369 18.3486 26.1897 18.4108 28 18.7735V16.7353C26.3911 16.4264 25.5207 16.3486 25.0293 16.3486C24.6921 16.3486 24.2943 16.3571 23.9045 16.4181C23.517 16.4788 23.07 16.6007 22.6696 16.8736C21.9592 17.3579 21.7292 18.0713 21.7292 18.7607C21.7292 19.3486 21.9557 19.8562 22.2402 20.2257C22.1048 20.3885 21.9812 20.5438 21.8914 20.6682C21.6535 20.998 21.3547 21.4963 21.3713 22.1987C21.385 22.7742 21.5937 23.4375 22.1222 23.8627C22.5937 24.2419 22.9474 24.4397 23.4866 24.6959C23.8062 24.8478 24.1153 24.9989 24.4237 25.1498L24.434 25.1549C24.7441 25.3066 25.0545 25.4584 25.3646 25.6051C25.5073 25.6725 25.6383 25.743 25.7611 25.8136C25.8796 25.8817 25.9757 25.9409 26.0757 26.0025C26.1269 26.0341 26.1792 26.0663 26.236 26.1006L26.2389 26.1025C26.2466 26.1244 26.2639 26.1892 26.2639 26.3256C26.2639 26.423 26.2465 26.4564 26.2411 26.4665C26.2329 26.4821 26.2042 26.5291 26.1014 26.6087C26.0737 26.6301 25.9669 26.6912 25.7179 26.7404C25.4802 26.7873 25.1801 26.8105 24.8308 26.8105C24.2736 26.8105 23.2342 26.6614 22 26.4461ZM23.9254 21.3298C24.9024 21.7824 25.9139 22.2903 26.594 22.717L26.5972 22.7232C26.6035 22.7362 26.61 22.7535 26.6147 22.7739C26.6194 22.7942 26.6216 22.814 26.6216 22.8315C26.6216 22.9193 26.6104 22.9443 26.6068 22.9522L26.6063 22.9533C26.5949 22.9799 26.565 23.0355 26.4487 23.1846C26.3499 23.3113 26.1913 23.5002 26.0186 23.7013C25.7879 23.5907 25.5544 23.4765 25.3129 23.3583L25.2985 23.3513C24.9927 23.2017 24.6749 23.0462 24.3448 22.8894C23.9075 22.6817 23.7 22.5622 23.4035 22.3264L23.4012 22.3212C23.3883 22.29 23.3727 22.2323 23.3708 22.1513C23.3697 22.1078 23.3765 22.0771 23.3907 22.0419C23.4083 21.9981 23.4417 21.9377 23.5133 21.8385C23.601 21.717 23.7567 21.5268 23.9254 21.3298Z" fill="#000000" class="bmwfcol"/><title>bmw_and_paragraph_rg_48</title></svg>