<svg width="48" height="48" viewBox="0 0 32 32" xmlns="http://www.w3.org/2000/svg"><path d="M18.9999 2.03918C16.4994 2.23786 14.3485 3.18717 12.7678 4.76791C11.187 6.34865 10.2377 8.49955 10.0391 11H12.0464C12.2377 8.9893 13.0087 7.35546 14.182 6.18213C15.3553 5.00879 16.9892 4.23781 18.9999 4.04657V2.03918Z" fill="#000000" class="bmwfcol"/><path d="M27.9533 11C27.7621 8.9893 26.9911 7.35546 25.8178 6.18213C24.6445 5.00879 23.0106 4.23781 20.9999 4.04657V2.03918C23.5004 2.23786 25.6513 3.18717 27.232 4.76791C28.8127 6.34865 29.7621 8.49955 29.9607 11H27.9533Z" fill="#000000" class="bmwfcol"/><path d="M27.9533 13C27.8813 13.7575 27.727 14.4614 27.4999 15.1074V18.9522C28.92 17.4014 29.7735 15.3559 29.9607 13H27.9533Z" fill="#000000" class="bmwfcol"/><path d="M13.2361 19.75H10.0858L9 20.8358V23.7907L10.403 26H13.6642L14 25.6642L14.3358 26H17.6458L19 23.781V20.8358L17.9142 19.75H14.7639L14 20.132L13.2361 19.75ZM11 23.2093V21.75H12.7639L13 21.868V23.8358L12.8358 24H11.5021L11 23.2093ZM15 23.8358V21.868L15.2361 21.75H17L17 23.219L16.5233 24H15.1642L15 23.8358Z" fill="#000000" class="bmwfcol"/><path d="M8.0473 12.6289C9.27999 12.088 10.1617 12.0001 14 12.0001C17.838 12.0001 18.7213 12.0879 19.9531 12.6291C20.4424 12.8449 20.8602 13.2351 21.1886 13.6082C21.5311 13.9972 21.8504 14.453 22.1303 14.8992C22.3136 15.1912 22.4856 15.4881 22.6417 15.7728C22.9538 15.6526 23.2833 15.587 23.6351 15.5501C24.1487 15.4962 24.7917 15.4976 25.5654 15.4994C25.7058 15.4997 25.8504 15.5 25.9994 15.5V17.5C25.8371 17.5 25.6848 17.4997 25.5415 17.4995C24.7565 17.4983 24.2419 17.4974 23.8438 17.5392C23.8165 17.5421 23.7903 17.5451 23.7652 17.5483C24.2383 17.9937 24.6915 18.4452 25.0553 18.8889C25.5253 19.4622 26 20.2012 26 21.0429V30.0001H20V28.8201C15.9453 29.0734 12.0547 29.0734 8 28.8201V30.0001H2V21.0429C2 20.2012 2.47466 19.4622 2.94468 18.8889C3.30844 18.4452 3.76169 17.9938 4.23476 17.5483C4.20939 17.5451 4.18297 17.5421 4.15542 17.5392C3.75733 17.4974 3.24426 17.4983 2.45926 17.4995C2.31564 17.4997 2.16288 17.5 2 17.5V15.5C2.14897 15.5 2.29363 15.4997 2.43398 15.4994C3.20764 15.4976 3.85057 15.4962 4.36415 15.5501C4.71607 15.5871 5.04571 15.6527 5.35789 15.773C5.51411 15.488 5.68621 15.1908 5.8696 14.8984C6.14956 14.4521 6.46893 13.9962 6.81154 13.6071C7.13996 13.2341 7.55707 12.8441 8.0473 12.6289ZM4.53815 20.1005C5.50854 20.302 6.56988 20.4199 8 20.5217V22.5267C6.40454 22.4163 5.17248 22.284 4 22.0307V28.0001H6V26.6745L7.0727 26.7527C11.7799 27.0958 16.2201 27.0958 20.9273 26.7527L22 26.6745V28.0001H24V22.0307C22.8275 22.284 21.5955 22.4163 20 22.5267V20.5217C21.4301 20.4199 22.4915 20.302 23.4619 20.1005C23.1331 19.7091 22.6965 19.2842 22.1816 18.8059C22.1742 18.7991 22.1075 18.738 21.8349 18.6758C21.5527 18.6115 21.1312 18.5638 20.4789 18.5347C19.4903 18.4907 18.1089 18.4934 16.1187 18.4974C15.4791 18.4986 14.772 18.5 13.9996 18.5C13.2254 18.5 12.5215 18.4986 11.8806 18.4974C9.89004 18.4934 8.50792 18.4907 7.51867 18.5347C6.86598 18.5638 6.44402 18.6115 6.16147 18.6759C5.95705 18.7225 5.86847 18.7686 5.83382 18.7916C5.31218 19.2757 4.87016 19.7052 4.53815 20.1005ZM20.4363 15.9622C20.1888 15.5679 19.9334 15.2092 19.6874 14.9297C19.4277 14.6346 19.2419 14.5015 19.1479 14.4599C18.3642 14.1156 17.9106 14.0001 14 14.0001C10.0888 14.0001 9.63664 14.1156 8.85112 14.4603C8.75816 14.5011 8.57258 14.6335 8.31254 14.9288C8.06658 15.2081 7.8113 15.5667 7.56383 15.9612C7.44209 16.1553 7.3254 16.353 7.21577 16.5472C7.28578 16.5434 7.35711 16.5399 7.42976 16.5367C8.46952 16.4904 9.9197 16.4933 11.9306 16.4974C12.5627 16.4987 13.252 16.5 13.9996 16.5C14.7479 16.5 15.4361 16.4987 16.0687 16.4974C18.0792 16.4933 19.5288 16.4904 20.5679 16.5367C20.6413 16.54 20.7133 16.5435 20.784 16.5473C20.6744 16.3534 20.5579 16.156 20.4363 15.9622Z" fill="#000000" class="bmwfcol"/><title>bmw-efficient-dynamics-technologies_rg_48</title></svg>