<svg width="48" height="48" viewBox="0 0 32 32" xmlns="http://www.w3.org/2000/svg"><path d="M17 9.76272L20 6.76272V9.23759L16.0002 13.2375L12 9.23732V6.76245L15 9.76245L15 2L17 2L17 9.76272Z" fill="#000000" class="bmwfcol"/><path d="M30 17H2V15H30V17Z" fill="#000000" class="bmwfcol"/><path d="M8 18.75C7.30964 18.75 6.75 19.3096 6.75 20C6.75 20.6903 7.30964 21.25 8 21.25C8.69036 21.25 9.25 20.6903 9.25 20C9.25 19.3096 8.69036 18.75 8 18.75Z" fill="#000000" class="bmwfcol"/><path d="M16 18.75C15.3096 18.75 14.75 19.3096 14.75 20C14.75 20.6903 15.3096 21.25 16 21.25C16.6904 21.25 17.25 20.6903 17.25 20C17.25 19.3096 16.6904 18.75 16 18.75Z" fill="#000000" class="bmwfcol"/><path d="M16 26.75C15.3096 26.75 14.75 27.3096 14.75 28C14.75 28.6903 15.3096 29.25 16 29.25C16.6904 29.25 17.25 28.6903 17.25 28C17.25 27.3096 16.6904 26.75 16 26.75Z" fill="#000000" class="bmwfcol"/><path d="M8 26.75C7.30964 26.75 6.75 27.3096 6.75 28C6.75 28.6903 7.30964 29.25 8 29.25C8.69036 29.25 9.25 28.6903 9.25 28C9.25 27.3096 8.69036 26.75 8 26.75Z" fill="#000000" class="bmwfcol"/><path d="M24 18.75C23.3096 18.75 22.75 19.3096 22.75 20C22.75 20.6903 23.3096 21.25 24 21.25C24.6904 21.25 25.25 20.6903 25.25 20C25.25 19.3096 24.6904 18.75 24 18.75Z" fill="#000000" class="bmwfcol"/><path d="M24 26.75C23.3096 26.75 22.75 27.3096 22.75 28C22.75 28.6903 23.3096 29.25 24 29.25C24.6904 29.25 25.25 28.6903 25.25 28C25.25 27.3096 24.6904 26.75 24 26.75Z" fill="#000000" class="bmwfcol"/><path d="M4 22.75C3.30964 22.75 2.75 23.3096 2.75 24C2.75 24.6903 3.30964 25.25 4 25.25C4.69036 25.25 5.25 24.6903 5.25 24C5.25 23.3096 4.69036 22.75 4 22.75Z" fill="#000000" class="bmwfcol"/><path d="M12 22.75C11.3096 22.75 10.75 23.3096 10.75 24C10.75 24.6903 11.3096 25.25 12 25.25C12.6904 25.25 13.25 24.6903 13.25 24C13.25 23.3096 12.6904 22.75 12 22.75Z" fill="#000000" class="bmwfcol"/><path d="M20 22.75C19.3096 22.75 18.75 23.3096 18.75 24C18.75 24.6903 19.3096 25.25 20 25.25C20.6904 25.25 21.25 24.6903 21.25 24C21.25 23.3096 20.6904 22.75 20 22.75Z" fill="#000000" class="bmwfcol"/><path d="M28 22.75C27.3096 22.75 26.75 23.3096 26.75 24C26.75 24.6903 27.3096 25.25 28 25.25C28.6904 25.25 29.25 24.6903 29.25 24C29.25 23.3096 28.6904 22.75 28 22.75Z" fill="#000000" class="bmwfcol"/><path d="M8 8.99999H6V6.99999H8V8.99999Z" fill="#000000" class="bmwfcol"/><path d="M26 8.99999H24V6.99999H26V8.99999Z" fill="#000000" class="bmwfcol"/><path d="M4 4.99999H2V2.99999H4V4.99999Z" fill="#000000" class="bmwfcol"/><path d="M12 4.99999H10V2.99999H12V4.99999Z" fill="#000000" class="bmwfcol"/><path d="M30 4.99999H28V2.99999H30V4.99999Z" fill="#000000" class="bmwfcol"/><path d="M22 4.99999H20V2.99999H22V4.99999Z" fill="#000000" class="bmwfcol"/><path d="M4 13H2V11H4V13Z" fill="#000000" class="bmwfcol"/><path d="M30 13H28V11H30V13Z" fill="#000000" class="bmwfcol"/><title>bmw-blueperformance_rg_48</title></svg>