<svg width="48" height="48" viewBox="0 0 32 32" xmlns="http://www.w3.org/2000/svg"><path d="M14 6C15.1046 6 16 5.10457 16 4C16 2.89543 15.1046 2 14 2C12.8954 2 12 2.89543 12 4C12 5.10457 12.8954 6 14 6Z" fill="#000000" class="bmwfcol"/><path d="M21.2729 17C20.4112 17 19.558 17.1618 18.7724 17.4993C18.4 17.4817 17.9759 17.4705 17.5 17.4705C16.3802 17.4705 15.5469 17.5327 15 17.5935L15 24.3822C15.1393 24.3953 15.2965 24.4085 15.4715 24.4208C15.6251 25.1543 15.8841 25.8369 16.2022 26.4628C15.6228 26.4406 15.1486 26.4057 14.7795 26.3703C14.472 26.3407 14.2376 26.3109 14.0763 26.2876C14.0487 26.2837 14.0233 26.2799 14 26.2764C13.9767 26.2799 13.9513 26.2837 13.9237 26.2876C13.7624 26.3109 13.528 26.3407 13.2205 26.3703C12.7901 26.4116 12.2166 26.4521 11.5 26.4728V28H17.1629C17.5319 28.4962 17.917 28.9361 18.2778 29.3145C18.5046 29.5524 18.7367 29.7812 18.9698 30H4V28H9.50001V26.4728C8.78347 26.4521 8.20995 26.4116 7.77948 26.3703C7.47203 26.3407 7.23762 26.3109 7.07627 26.2876C6.9956 26.276 6.9332 26.2661 6.88907 26.2587C6.867 26.255 6.84951 26.2519 6.83658 26.2496L6.82062 26.2467L6.81521 26.2456L6.81151 26.2449L6 26.0892L6.00001 15.9311L6.78234 15.7559L6.78587 15.7551L6.79228 15.7537L6.81101 15.7497C6.8261 15.7465 6.84643 15.7424 6.87198 15.7374C6.9056 15.7309 6.94828 15.723 7 15.7139V14.5968C6.97582 14.5943 6.95356 14.5916 6.93325 14.589C6.8997 14.5846 6.87147 14.5802 6.84856 14.5764C6.8371 14.5744 6.82698 14.5726 6.81819 14.5709L6.80602 14.5686L6.80068 14.5675L6.7982 14.567L6.797 14.5667L6 14.4005V7.00519L6.53782 6.72375L6.53941 6.72292L6.54291 6.72111L6.55125 6.71685L6.57322 6.7059C6.59023 6.69756 6.61194 6.68718 6.63836 6.67508C6.69121 6.65088 6.7629 6.61979 6.8534 6.58427C7.03446 6.5132 7.29066 6.4245 7.62187 6.33783C8.09627 6.21371 8.72255 6.0943 9.50001 6.03637V3H11.5V6.03637C12.2775 6.0943 12.9038 6.21371 13.3781 6.33783C13.6282 6.40327 13.8355 6.46986 14 6.52915C14.1645 6.46986 14.3718 6.40327 14.6219 6.33783C15.0963 6.21371 15.7225 6.0943 16.5 6.03637V3H18.5V6.03637C19.2775 6.0943 19.9038 6.21371 20.3781 6.33783C20.7094 6.4245 20.9656 6.5132 21.1466 6.58427C21.2371 6.61979 21.3088 6.65088 21.3616 6.67508C21.3881 6.68718 21.4098 6.69756 21.4268 6.7059L21.4488 6.71685L21.4571 6.72111L21.4606 6.72292L21.4637 6.72452L22 7.00519V14.4005L21.203 14.5667L21.2018 14.567L21.1993 14.5675L21.194 14.5686L21.1818 14.5709L21.1661 14.5738L21.1514 14.5764C21.1285 14.5802 21.1003 14.5846 21.0668 14.589C21.0464 14.5916 21.0242 14.5943 21 14.5968V15.7139C21.0517 15.723 21.0944 15.7309 21.128 15.7374C21.1536 15.7424 21.1739 15.7465 21.189 15.7497L21.2077 15.7537L21.2142 15.7551L21.2166 15.7556L22 15.9311L22 17.0395C21.7604 17.0132 21.5176 17 21.2729 17ZM15 8.30769L15 12.5824C15.6073 12.5226 16.4407 12.4704 17.5 12.4704C18.5593 12.4704 19.3927 12.5226 20 12.5824V8.30769C19.9595 8.29616 19.9168 8.28446 19.8719 8.2727C19.3684 8.14096 18.5784 8 17.5 8C16.4216 8 15.6316 8.14096 15.1281 8.2727C15.0832 8.28446 15.0405 8.29616 15 8.30769ZM19 14.5111C18.5757 14.4868 18.0757 14.4704 17.5 14.4704C16.3801 14.4704 15.5469 14.5326 15 14.5933L15 15.5826C15.6073 15.5227 16.4407 15.4705 17.5 15.4705C18.0641 15.4705 18.5641 15.4853 19 15.5082V14.5111ZM13 15.5826L13 14.5933C12.4531 14.5326 11.6199 14.4704 10.5 14.4704C9.92425 14.4704 9.42426 14.4868 9 14.5111V15.5082C9.43593 15.4853 9.93594 15.4705 10.5 15.4705C11.5593 15.4705 12.3927 15.5227 13 15.5826ZM13 12.5824L13 8.30769C12.9595 8.29616 12.9168 8.28446 12.8719 8.2727C12.3684 8.14096 11.5784 8 10.5 8C9.42161 8 8.63163 8.14096 8.12814 8.2727C8.08318 8.28446 8.04046 8.29616 8 8.30769V12.5824C8.60732 12.5226 9.44069 12.4704 10.5 12.4704C11.5593 12.4704 12.3927 12.5226 13 12.5824ZM13 17.5935C12.4531 17.5327 11.6199 17.4705 10.5 17.4705C9.44872 17.4705 8.65 17.5253 8.10372 17.5823C8.06808 17.586 8.03351 17.5897 8.00001 17.5935L8 24.3822C8.5521 24.4342 9.3854 24.4868 10.5 24.4868C11.6146 24.4868 12.4479 24.4342 13 24.3822L13 17.5935Z" fill="#000000" class="bmwfcol"/><path d="M21.2729 19C20.1593 19 19.1536 19.3756 18.4238 20.1054C17.6939 20.8352 17.3184 21.8409 17.3184 22.9545C17.3184 24.9404 18.5094 26.6592 19.7253 27.9344C20.9335 29.2016 22.3314 30.1996 23.1311 30.7705L23.4524 31H24.5479L24.8692 30.7705C25.6689 30.1996 27.0668 29.2016 28.2751 27.9344C29.4909 26.6592 30.682 24.9404 30.682 22.9545C30.682 21.8409 30.3064 20.8352 29.5766 20.1054C28.8468 19.3756 27.8411 19 26.7274 19C25.6596 19 24.7053 19.3477 24.0002 19.9883C23.295 19.3477 22.3408 19 21.2729 19ZM19.3184 22.9545C19.3184 22.2954 19.5337 21.8239 19.838 21.5196C20.1422 21.2153 20.6138 21 21.2729 21C22.1952 21 22.773 21.4154 23.0399 22.0039L23.306 22.5909H24.6943L24.9605 22.0039C25.2273 21.4154 25.8052 21 26.7274 21C27.3866 21 27.8581 21.2153 28.1624 21.5196C28.4667 21.8239 28.682 22.2954 28.682 22.9545C28.682 24.1505 27.9413 25.3862 26.8276 26.5542C25.8861 27.5416 24.7968 28.3589 24.0002 28.9328C23.2035 28.3589 22.1142 27.5416 21.1728 26.5542C20.0591 25.3862 19.3184 24.1505 19.3184 22.9545Z" fill="#000000" class="bmwfcol"/><title>bmw_and_heart_rg_48</title></svg>