<svg width="48" height="48" viewBox="0 0 32 32" xmlns="http://www.w3.org/2000/svg"><path d="M30 23V25H20.7439C20.1262 26.7478 18.4593 28 16.5 28C14.5385 28 12.8701 26.745 12.254 24.9942C12.0066 24.9847 11.7448 24.9596 11.3844 24.8932C10.8484 24.7944 10.0826 24.603 8.74118 24.2435L8 24.045V17.9234L8.55875 17.6C10.4117 16.5271 11.4785 15.9094 13.2501 15.5006C14.9222 15.1147 17.2433 14.9099 21.599 14.5311C24.0818 12.4493 25.5492 11.2514 27.074 10.6353C27.9814 10.2687 28.8952 10.1135 30 10.0479V12.0524C29.099 12.1105 28.459 12.2328 27.8232 12.4897C26.6125 12.9789 25.3751 13.9734 22.6428 16.2661L22.401 16.4689L22.0866 16.4963C17.4459 16.8998 15.238 17.0944 13.6999 17.4494C12.3741 17.7553 11.5683 18.174 10 19.0771V22.5084C10.8811 22.7395 11.3918 22.8609 11.7467 22.9263C11.8545 22.9461 11.9465 22.9606 12.0307 22.9712C12.2925 20.7351 14.1936 19 16.5 19C18.8163 19 20.7238 20.7501 20.9725 23H30ZM16.5 21C15.1193 21 14 22.1193 14 23.5C14 24.8807 15.1193 26 16.5 26C17.8807 26 19 24.8807 19 23.5C19 22.1193 17.8807 21 16.5 21Z" fill="#000000" class="bmwfcol"/><path d="M9 12H7V10H9V12Z" fill="#000000" class="bmwfcol"/><path d="M14 12H12V10H14V12Z" fill="#000000" class="bmwfcol"/><path d="M19 12H17V10H19V12Z" fill="#000000" class="bmwfcol"/><path d="M4 6V8H2V6H4ZM4 9.5V16H2V9.5H4Z" fill="#000000" class="bmwfcol"/><title>bmw-head-up-display_rg_48</title></svg>