<svg width="48" height="48" viewBox="0 0 32 32" xmlns="http://www.w3.org/2000/svg"><path d="M16.8032 13C17.8406 11.2066 19.7796 10 22.0005 10C25.3142 10 28.0005 12.6863 28.0005 16C28.0005 19.3137 25.3142 22 22.0005 22C19.7796 22 17.8406 20.7934 16.8032 19H14.582C15.7688 21.9318 18.6431 24 22.0005 24C26.4187 24 30.0005 20.4183 30.0005 16C30.0005 11.5817 26.4187 8 22.0005 8C18.6431 8 15.7688 10.0682 14.582 13H16.8032Z" fill="#000000" class="bmwfcol"/><path d="M23.605 13.465C23.6905 13.4192 23.7771 13.3773 23.8653 13.3395C24.4792 13.0764 25.1495 13.0189 26.0059 13.0067C26.4053 13.5397 26.6843 14.1344 26.843 14.7536C25.6834 14.7543 25.1559 14.7681 24.7799 14.8699C24.8416 15.0217 24.8913 15.1796 24.9277 15.3426C25.0206 15.3706 25.1113 15.4022 25.2004 15.4378C25.8205 15.6858 26.3351 16.1191 26.9492 16.7159C26.8547 17.3753 26.6316 17.9931 26.306 18.5432C25.4854 17.7237 25.1027 17.3605 24.7648 17.1665C24.7 17.3198 24.6229 17.4665 24.5347 17.6055C24.5804 17.6907 24.6222 17.7771 24.6599 17.8651C24.9231 18.4791 24.9805 19.1496 24.9928 20.0061C24.4597 20.4055 23.865 20.6845 23.2458 20.8431C23.2451 19.6837 23.2313 19.1561 23.1296 18.7801C22.9781 18.8417 22.8205 18.8913 22.6578 18.9276C22.6299 19.0204 22.5983 19.1111 22.5627 19.2002C22.3146 19.8203 21.8812 20.335 21.2842 20.9493C20.6249 20.8547 20.0071 20.6315 19.457 20.3059C20.2764 19.4855 20.6397 19.1027 20.8337 18.7649C20.6805 18.7002 20.5339 18.6231 20.3949 18.535C20.3094 18.5809 20.2227 18.6228 20.1344 18.6606C19.5205 18.9237 18.8502 18.9812 17.9938 18.9935C17.5944 18.4604 17.3154 17.8657 17.1567 17.2465C18.3166 17.2458 18.8441 17.232 19.2202 17.1301C19.1585 16.9785 19.1088 16.8208 19.0724 16.658C18.9795 16.63 18.8887 16.5984 18.7996 16.5627C18.1795 16.3147 17.6649 15.8814 17.0508 15.2846C17.1453 14.6252 17.3684 14.0074 17.694 13.4573C18.5144 14.2767 18.8972 14.6399 19.2351 14.8339C19.2998 14.6807 19.3768 14.534 19.465 14.395C19.4192 14.3097 19.3774 14.2233 19.3397 14.1352C19.0765 13.5212 19.0191 12.8508 19.0068 11.9942C19.5399 11.5948 20.1346 11.3158 20.7538 11.1572C20.7545 12.3164 20.7683 12.844 20.8699 13.2201C21.0219 13.1583 21.1801 13.1085 21.3433 13.0721C21.3712 12.9796 21.4027 12.8891 21.4383 12.8003C21.6863 12.1801 22.1197 11.6654 22.7167 11.0511C23.3761 11.1457 23.9939 11.3689 24.5439 11.6945C23.7245 12.5149 23.3612 12.8977 23.1672 13.2355C23.3201 13.3001 23.4664 13.3771 23.605 13.465ZM21 16C21 16.5523 21.4477 17 22 17C22.5523 17 23 16.5523 23 16C23 15.4477 22.5523 15 22 15C21.4477 15 21 15.4477 21 16Z" fill="#000000" class="bmwfcol"/><path d="M5.23756 17L8.23756 20H5.76269L1.7627 16L5.76271 12H8.23758L5.23758 15H16V17H5.23756Z" fill="#000000" class="bmwfcol"/><path d="M21.5002 3.13401L22 2.84546V5.15478C18.8933 6.9469 17.1116 7.94711 15.3004 8.46193C13.8368 8.87798 12.3703 8.97243 10.2313 8.99381L13.2376 12.0001H10.7627L6.7627 8.00007L10.7627 4.00006H13.2376L10.2451 6.99257C12.3202 6.97042 13.5407 6.8829 14.7536 6.53814C16.3654 6.07999 17.992 5.15949 21.5002 3.13401Z" fill="#000000" class="bmwfcol"/><path d="M21.5002 28.866L22 29.1546V26.8452C18.8933 25.0531 17.1116 24.0529 15.3004 23.5381C13.8368 23.122 12.3704 23.0276 10.2313 23.0062L13.2376 20H10.7627L6.7627 24L10.7627 28H13.2376L10.2451 25.0074C12.3202 25.0296 13.5407 25.1171 14.7536 25.4619C16.3654 25.92 17.992 26.8405 21.5002 28.866Z" fill="#000000" class="bmwfcol"/><title>bmw-twin-power-turbo_rg_48</title></svg>