<svg width="48" height="48" viewBox="0 0 32 32" xmlns="http://www.w3.org/2000/svg"><path d="M9.06765 20.6122C9.12352 20.7436 9.1819 20.873 9.24282 21H11.3665C11.1613 20.7037 10.9608 20.3369 10.7702 19.8885C10.4792 19.2038 10.2362 18.3773 10.0537 17.425H15.9466C15.7641 18.3771 15.5211 19.2035 15.2301 19.8882C15.0395 20.3367 14.839 20.7036 14.6338 21H16.7574C16.8184 20.8729 16.8768 20.7434 16.9328 20.6118C17.3183 19.7046 17.6184 18.6317 17.827 17.425H21.1309C20.7307 18.2522 20.2128 18.9792 19.5961 19.5959C19.0445 20.1475 18.4047 20.62 17.6839 21H20.807C20.8396 20.9683 20.8721 20.9363 20.9043 20.9041C22.8511 18.9573 23.9252 16.2102 23.9252 13C23.9252 9.78981 22.8511 7.04276 20.9043 5.09594C18.9574 3.14912 16.2104 2.07501 13.0002 2.07501C9.78999 2.07501 7.04294 3.14912 5.09612 5.09594C3.1493 7.04276 2.0752 9.78981 2.0752 13C2.0752 16.2102 3.1493 18.9573 5.09612 20.9041C6.17199 21.98 7.49224 22.7893 9 23.2981V21.3221C7.99513 20.9015 7.12447 20.3161 6.40427 19.5959C5.78755 18.9792 5.26974 18.2522 4.86951 17.425H8.17332C8.38191 18.6319 8.68203 19.7049 9.06765 20.6122ZM3.9252 13C3.9252 12.0816 4.02555 11.2213 4.2156 10.425H7.9348C7.86219 11.2412 7.8252 12.102 7.8252 13C7.8252 13.898 7.86219 14.7588 7.9348 15.575H4.2156C4.02555 14.7787 3.9252 13.9185 3.9252 13ZM21.7848 15.575H18.0656C18.1382 14.7588 18.1752 13.898 18.1752 13C18.1752 12.102 18.1382 11.2412 18.0656 10.425H21.7848C21.9748 11.2213 22.0752 12.0816 22.0752 13C22.0752 13.9185 21.9748 14.7787 21.7848 15.575ZM16.2077 15.575H9.79268C9.71595 14.7761 9.6752 13.9157 9.6752 13C9.6752 12.0843 9.71595 11.2239 9.79268 10.425H16.2077C16.2844 11.224 16.3252 12.0844 16.3252 13C16.3252 13.9156 16.2844 14.7761 16.2077 15.575ZM8.17332 8.57501H4.86951C5.26974 7.74784 5.78755 7.0208 6.40427 6.40409C7.24461 5.56374 8.2898 4.90703 9.51403 4.48123C9.35059 4.76819 9.20185 5.07207 9.06765 5.38783C8.68203 6.2951 8.38191 7.36814 8.17332 8.57501ZM10.0537 8.57501C10.2362 7.62274 10.4792 6.79619 10.7702 6.11148C11.4658 4.47489 12.2933 3.92501 13.0002 3.92501C13.707 3.92501 14.5345 4.475 15.2301 6.11182C15.5211 6.79649 15.7641 7.62293 15.9466 8.57501H10.0537ZM17.827 8.57501C17.6184 7.36835 17.3183 6.29543 16.9328 5.38821C16.7985 5.07229 16.6497 4.76826 16.4862 4.48116C17.7105 4.90695 18.7557 5.5637 19.5961 6.40409C20.2128 7.0208 20.7306 7.74784 21.1309 8.57501H17.827Z" fill="#000000" class="bmwfcol"/><path d="M13.639 23.0053H10.79V29H13.4461C14.2571 29 14.7862 28.8721 15.187 28.5567C15.6171 28.2211 15.8127 27.7186 15.8127 27.1453C15.8127 26.7916 15.7069 26.4501 15.5349 26.2235C15.429 26.0824 15.3191 25.9753 15.2046 25.8789C15.2718 25.7752 15.3446 25.6592 15.4145 25.5395C15.5832 25.2502 15.6866 24.9781 15.6866 24.5854C15.6866 24.0942 15.4505 23.6085 15.0453 23.3238C14.6878 23.0711 14.2556 23.0053 13.639 23.0053ZM12.303 25.2684V24.4293H13.5128C13.6748 24.4293 13.7971 24.433 13.892 24.4438C13.9878 24.4546 14.0414 24.4713 14.0726 24.4879C14.1212 24.5134 14.1661 24.5717 14.1661 24.719C14.1661 24.8455 14.1191 24.9374 14.0375 25.0784C14.0046 25.1348 13.9619 25.2043 13.9219 25.2684H12.303ZM12.303 27.576V26.6924H13.4386C13.8196 26.6924 13.9854 26.7175 14.098 26.7783C14.1714 26.8206 14.2139 26.8677 14.2403 26.9188C14.268 26.9725 14.2849 27.0444 14.2849 27.1453C14.2849 27.3087 14.2516 27.3863 14.1753 27.4547C14.0826 27.5334 13.9407 27.576 13.4683 27.576H12.303Z" fill="#000000" class="bmwfcol"/><path d="M18.2092 23.0053H16.4463V29H17.9297V25.8454L18.8232 27.887H20.0568L20.9503 25.8454V29H22.4336V23.0053H20.693L19.4511 25.8448L18.2092 23.0053Z" fill="#000000" class="bmwfcol"/><path d="M22.8015 23.0053H24.3528L25.0383 26.4762L25.7731 23.8512H27.205L27.9275 26.4747L28.6251 23.0053H30.154L28.9375 29H27.212L26.4813 26.3534L25.7505 29H24.0099L22.8015 23.0053Z" fill="#000000" class="bmwfcol"/><title>bmw_online_rg_48</title></svg>