<svg width="48" height="48" viewBox="0 0 32 32" xmlns="http://www.w3.org/2000/svg"><path d="M20.9043 20.9041C20.8721 20.9363 20.8396 20.9683 20.807 21H17.6839C18.4047 20.62 19.0445 20.1475 19.5961 19.5959C20.2128 18.9792 20.7307 18.2522 21.1309 17.425H17.827C17.6184 18.6317 17.3183 19.7046 16.9328 20.6118C16.8768 20.7434 16.8184 20.8729 16.7574 21H14.6338C14.839 20.7036 15.0395 20.3367 15.2301 19.8882C15.5211 19.2035 15.7641 18.3771 15.9466 17.425H10.0537C10.2362 18.3773 10.4792 19.2038 10.7702 19.8885C10.9608 20.3369 11.1613 20.7037 11.3665 21H9.24282C9.1819 20.873 9.12352 20.7436 9.06765 20.6122C8.68203 19.7049 8.38191 18.6319 8.17332 17.425H4.86951C5.26974 18.2522 5.78755 18.9792 6.40427 19.5959C6.95586 20.1475 7.59572 20.62 8.31653 21H5.19341C5.16076 20.9683 5.12833 20.9363 5.09612 20.9041C3.1493 18.9573 2.0752 16.2102 2.0752 13C2.0752 9.78981 3.1493 7.04276 5.09612 5.09594C7.04294 3.14912 9.78999 2.07501 13.0002 2.07501C16.2104 2.07501 18.9574 3.14912 20.9043 5.09594C22.8511 7.04276 23.9252 9.78981 23.9252 13C23.9252 16.2102 22.8511 18.9573 20.9043 20.9041ZM3.9252 13C3.9252 13.9185 4.02555 14.7787 4.2156 15.575H7.9348C7.86219 14.7588 7.8252 13.898 7.8252 13C7.8252 12.102 7.86219 11.2412 7.9348 10.425H4.2156C4.02555 11.2213 3.9252 12.0816 3.9252 13ZM21.7848 15.575C21.9748 14.7787 22.0752 13.9185 22.0752 13C22.0752 12.0816 21.9748 11.2213 21.7848 10.425H18.0656C18.1382 11.2412 18.1752 12.102 18.1752 13C18.1752 13.898 18.1382 14.7588 18.0656 15.575H21.7848ZM16.2077 15.575C16.2844 14.7761 16.3252 13.9156 16.3252 13C16.3252 12.0844 16.2844 11.224 16.2077 10.425H9.79268C9.71595 11.2239 9.6752 12.0843 9.6752 13C9.6752 13.9157 9.71595 14.7761 9.79268 15.575H16.2077ZM8.17332 8.57501C8.38191 7.36814 8.68203 6.2951 9.06765 5.38783C9.20185 5.07207 9.35059 4.76819 9.51403 4.48123C8.2898 4.90703 7.24461 5.56374 6.40427 6.40409C5.78755 7.0208 5.26974 7.74784 4.86951 8.57501H8.17332ZM10.0537 8.57501H15.9466C15.7641 7.62293 15.5211 6.79649 15.2301 6.11182C14.5345 4.475 13.707 3.92501 13.0002 3.92501C12.2933 3.92501 11.4658 4.47489 10.7702 6.11148C10.4792 6.79619 10.2362 7.62274 10.0537 8.57501ZM17.827 8.57501H21.1309C20.7306 7.74784 20.2128 7.0208 19.5961 6.40409C18.7557 5.5637 17.7105 4.90695 16.4862 4.48116C16.6497 4.76826 16.7985 5.07229 16.9328 5.38821C17.3183 6.29543 17.6184 7.36835 17.827 8.57501Z" fill="#000000" class="bmwfcol"/><path d="M7.78392 27.254V28.7476L7.95066 28.7785C8.46539 28.8741 9.28399 29.0261 9.92795 29.0261C10.7723 29.0261 11.3148 28.8894 11.7586 28.5378C12.2006 28.1892 12.3985 27.7037 12.3985 27.1195C12.3985 26.5943 12.2128 26.1096 11.8615 25.8104C11.5946 25.5784 11.2397 25.4639 10.835 25.3338L9.86951 25.0293C9.55803 24.9305 9.43621 24.8873 9.33433 24.8142C9.29124 24.7814 9.25981 24.7343 9.25981 24.5671C9.25981 24.4949 9.26795 24.4519 9.28076 24.421C9.29226 24.3932 9.31283 24.3623 9.36041 24.3245C9.45412 24.2539 9.6058 24.2254 10.0022 24.2254C10.231 24.2254 10.5789 24.2742 10.9433 24.34C11.3036 24.4051 11.6658 24.4841 11.918 24.5398L12.161 24.5934V23.1158L12.0047 23.0808C11.5119 22.9705 10.6292 22.7792 9.95763 22.7792C9.35265 22.7792 8.80241 22.8435 8.38923 23.1616C7.92831 23.5119 7.73198 23.9855 7.73198 24.6413C7.73198 25.1734 7.89515 25.6226 8.27105 25.9373L8.27192 25.938C8.51836 26.142 8.80303 26.2554 9.19137 26.3824L10.1508 26.6873C10.3058 26.7353 10.449 26.7819 10.5659 26.8268C10.6893 26.8741 10.761 26.9113 10.7899 26.9344C10.8351 26.9705 10.8706 27.0327 10.8706 27.1789C10.8706 27.3168 10.8281 27.397 10.7371 27.4577L10.7362 27.4583L10.7354 27.4588C10.6267 27.5329 10.4447 27.5799 10.017 27.5799C9.42505 27.5799 8.62265 27.4217 8.02314 27.3018L7.78392 27.254Z" fill="#000000" class="bmwfcol"/><path d="M1.60645 28.9H3.22L3.58358 27.8835H5.69945L6.07045 28.9H7.70565L5.51926 22.9053H3.78488L1.60645 28.9ZM5.20028 26.4372H4.06612L4.63072 24.8276L5.20028 26.4372Z" fill="#000000" class="bmwfcol"/><path d="M12.8605 27.254V28.7476L13.0272 28.7785C13.542 28.8741 14.3606 29.0261 15.0046 29.0261C15.849 29.0261 16.3916 28.8894 16.8354 28.5377C17.2773 28.1891 17.4751 27.7036 17.4751 27.1195C17.4751 26.5943 17.2895 26.1096 16.9381 25.8104C16.6712 25.5784 16.3163 25.4639 15.9117 25.3338L14.9463 25.0294C14.6348 24.9306 14.5128 24.8873 14.4109 24.8142C14.3679 24.7814 14.3364 24.7343 14.3364 24.5671C14.3364 24.4949 14.3446 24.4519 14.3574 24.421C14.3689 24.3932 14.3894 24.3623 14.437 24.3245C14.5307 24.2539 14.6824 24.2254 15.0788 24.2254C15.3076 24.2254 15.6555 24.2742 16.0199 24.34C16.3802 24.4051 16.7424 24.4841 16.9946 24.5398L17.2376 24.5934V23.1158L17.0813 23.0808C16.5885 22.9705 15.7058 22.7792 15.0342 22.7792C14.4293 22.7792 13.879 22.8435 13.4658 23.1616C13.0049 23.5119 12.8086 23.9855 12.8086 24.6413C12.8086 25.1734 12.9718 25.6226 13.3477 25.9373L13.3485 25.938C13.595 26.142 13.8789 26.2552 14.2672 26.3821L15.2267 26.6871C15.3817 26.7351 15.5256 26.7819 15.6425 26.8268C15.766 26.8741 15.8376 26.9113 15.8665 26.9344C15.9117 26.9705 15.9472 27.0327 15.9472 27.1789C15.9472 27.3168 15.9047 27.397 15.8137 27.4577L15.8128 27.4583L15.812 27.4588C15.7033 27.5329 15.5213 27.5799 15.0936 27.5799C14.5017 27.5799 13.6993 27.4217 13.0998 27.3018L12.8605 27.254Z" fill="#000000" class="bmwfcol"/><path d="M18.1078 28.9H19.6208V22.9053H18.1078V28.9Z" fill="#000000" class="bmwfcol"/><path d="M20.3037 27.254V28.7476L20.4704 28.7785C20.9851 28.8741 21.8038 29.0261 22.4478 29.0261C23.2922 29.0261 23.8348 28.8894 24.2786 28.5377C24.7204 28.1891 24.9183 27.7036 24.9183 27.1195C24.9183 26.5943 24.7326 26.1096 24.3813 25.8104C24.1144 25.5784 23.7595 25.4639 23.3548 25.3338L22.3895 25.0294C22.078 24.9306 21.956 24.8873 21.8541 24.8142C21.811 24.7814 21.7796 24.7343 21.7796 24.5671C21.7796 24.4949 21.7877 24.4519 21.8006 24.421C21.8121 24.3932 21.8326 24.3623 21.8802 24.3245C21.9739 24.2539 22.1256 24.2254 22.522 24.2254C22.7508 24.2254 23.0987 24.2742 23.4631 24.34C23.8234 24.4051 24.1856 24.4841 24.4378 24.5398L24.6808 24.5934V23.1158L24.5245 23.0808C24.0317 22.9705 23.149 22.7792 22.4774 22.7792C21.8725 22.7792 21.3222 22.8435 20.909 23.1616C20.4481 23.5119 20.2518 23.9855 20.2518 24.6413C20.2518 25.1734 20.4149 25.6226 20.7908 25.9373L20.7917 25.938C21.0382 26.142 21.3221 26.2552 21.7104 26.3821L22.6699 26.6871C22.8249 26.7351 22.9688 26.7819 23.0857 26.8268C23.2091 26.8741 23.2808 26.9113 23.3097 26.9344C23.3549 26.9705 23.3904 27.0327 23.3904 27.1789C23.3904 27.3168 23.3479 27.397 23.2569 27.4577L23.256 27.4583L23.2552 27.4588C23.1465 27.5329 22.9645 27.5799 22.5368 27.5799C21.9449 27.5799 21.1425 27.4217 20.5429 27.3018L20.3037 27.254Z" fill="#000000" class="bmwfcol"/><path d="M26.8595 28.9H28.3725V24.3664H30.2498V22.9053H24.9823V24.3664H26.8595V28.9Z" fill="#000000" class="bmwfcol"/><title>bmw_assist_rg_48</title></svg>