<svg width="48" height="48" viewBox="0 0 32 32" xmlns="http://www.w3.org/2000/svg"><path d="M22 4C22 5.10457 21.1046 6 20 6C18.8954 6 18 5.10457 18 4C18 2.89543 18.8954 2 20 2C21.1046 2 22 2.89543 22 4Z" fill="#000000" class="bmwfcol"/><path d="M15.5 6.03637V3H17.5V6.03637C18.2775 6.0943 18.9038 6.21371 19.3781 6.33783C19.6282 6.40327 19.8355 6.46986 20 6.52915C20.1645 6.46986 20.3718 6.40327 20.6219 6.33783C21.0963 6.21371 21.7225 6.0943 22.5 6.03637V3H24.5V6.03637C25.7469 6.12927 26.8916 6.42512 28 7.00519V14.4005C27.6367 14.4764 27.3271 14.562 27 14.5968V15.7139C27.3356 15.7744 27.6672 15.8566 28 15.9311V26.0892C26.8363 26.3125 25.6871 26.4386 24.5 26.4728V28H30V30H2V28H4.57143V27.1673C3.30658 26.5698 2 25.5252 2 24.0001V20.6008C2.7097 20.4511 3.4013 20.3394 4.12656 20.2889C5.05485 20.2241 6.57976 20.1611 9.00296 20.1611C11.4261 20.1612 12.9496 20.2242 13.8765 20.2889C14.6009 20.3395 15.2913 20.4513 16 20.6015V24.0001C16 25.5252 14.6934 26.5696 13.4286 27.1673V28H15.5V27.0219C16.1266 26.4772 16.8142 25.6405 16.9682 24.4836C17.8509 24.4715 18.5282 24.4267 19 24.3822V17.5935C17.3505 17.4101 15.6495 17.4101 14 17.5935V19.2951L13.9461 19.2914C13.462 19.2576 12.8263 19.2246 12 19.2003V15.9311C12.3328 15.8568 12.6642 15.7726 13 15.7139V14.5968C12.6632 14.5609 12.3308 14.4695 12 14.4005V7.00519C13.1082 6.42483 14.2532 6.12927 15.5 6.03637ZM17.5 28H22.5V26.4728C21.1842 26.4348 20.3506 26.3298 20 26.2764C19.6494 26.3298 18.816 26.4348 17.5 26.4728V28ZM11.4286 28V25.7782C12.035 25.5766 12.627 25.3829 13.1681 25.03C13.7634 24.6419 14 24.2777 14 24.0001V22.3038C13.1827 22.238 11.6553 22.1612 9.00293 22.1611C6.34805 22.1611 4.81842 22.2381 4 22.3039V24.0001C4 24.2777 4.23657 24.6419 4.83186 25.03C5.15973 25.2438 5.51803 25.4213 5.88768 25.5514C6.1147 25.6287 6.34369 25.7026 6.57143 25.7782V28H11.4286ZM21 12.5824C22.6548 12.4195 24.3452 12.4195 26 12.5824V8.30769C24.424 7.859 22.576 7.85855 21 8.30769V12.5824ZM25 14.5111C23.6703 14.4349 22.3242 14.4463 21 14.5933V15.5826C22.3265 15.4518 23.6692 15.4383 25 15.5082V14.5111ZM19 15.5826V14.5933C17.6758 14.4463 16.3297 14.4349 15 14.5111V15.5082C16.3308 15.4383 17.6735 15.4518 19 15.5826ZM19 12.5824V8.30769C17.4243 7.85863 15.5757 7.85863 14 8.30769V12.5824C15.6548 12.4195 17.3452 12.4195 19 12.5824ZM21 17.5935V24.3822C22.6544 24.538 24.3456 24.538 26 24.3822V17.5935C24.3505 17.4101 22.6495 17.4101 21 17.5935Z" fill="#000000" class="bmwfcol"/><title>bmw-four-cylinder_rg_48</title></svg>