<svg width="48" height="48" viewBox="0 0 32 32" xmlns="http://www.w3.org/2000/svg"><path d="M27.4144 21H6.99529C6.28232 21 5.79838 20.2752 6.07167 19.6167L7.15759 17H22.6638C23.8771 17 24.9711 16.2691 25.4354 15.1481L27.982 9H10.3153C9.10263 9 8.00923 9.73006 7.54442 10.8501L4.22442 18.8501C3.40457 20.8256 4.85638 23 6.99529 23H26.586L27.4144 21ZM9.39166 11.6167C9.5466 11.2434 9.91107 11 10.3153 11H24.9888L23.5876 14.3827C23.4329 14.7564 23.0682 15 22.6638 15H7.98759L9.39166 11.6167Z" fill="#000000" class="bmwfcol"/><title>bmw-edrive-technology_rg_48</title></svg>