<svg width="48" height="48" viewBox="0 0 32 32" xmlns="http://www.w3.org/2000/svg"><path d="M22 14V6C22 4.84586 21.7108 3.79657 20.9571 3.04289C20.2034 2.28921 19.1541 2 18 2H8C6.84586 2 5.79657 2.28921 5.04289 3.04289C4.28921 3.79657 4 4.84586 4 6V26C4 27.1541 4.28921 28.2034 5.04289 28.9571C5.79657 29.7108 6.84586 30 8 30H18C19.1541 30 20.2034 29.7108 20.9571 28.9571C21.7108 28.2034 22 27.1541 22 26V24H6V8.00001L20 8V14H22ZM6 6C6 5.15414 6.21079 4.70343 6.45711 4.45711C6.70343 4.21079 7.15415 4 8 4H18C18.8459 4 19.2966 4.21079 19.5429 4.45711C19.7892 4.70343 20 5.15414 20 6H6ZM6 26H20C20 26.8459 19.7892 27.2966 19.5429 27.5429C19.2966 27.7892 18.8459 28 18 28H8C7.15415 28 6.70343 27.7892 6.45711 27.5429C6.21079 27.2966 6 26.8459 6 26Z" fill="#000000" class="bmwfcol"/><path d="M11.2027 16.0053H8.35371V22H11.0097C11.8208 22 12.3499 21.8721 12.7507 21.5567C13.1807 21.2211 13.3764 20.7186 13.3764 20.1453C13.3764 19.7916 13.2706 19.4501 13.0985 19.2235C12.9927 19.0824 12.8828 18.9753 12.7683 18.8789C12.8355 18.7752 12.9083 18.6592 12.9781 18.5395C13.1469 18.2502 13.2502 17.9781 13.2502 17.5854C13.2502 17.0942 13.0142 16.6085 12.6089 16.3238C12.2515 16.0711 11.8193 16.0053 11.2027 16.0053ZM9.86671 18.2684V17.4293H11.0765C11.2385 17.4293 11.3608 17.433 11.4557 17.4438C11.5514 17.4546 11.6051 17.4713 11.6363 17.4879C11.6849 17.5134 11.7298 17.5717 11.7298 17.719C11.7298 17.8455 11.6828 17.9374 11.6011 18.0784C11.5682 18.1348 11.5256 18.2043 11.4856 18.2684H9.86671ZM9.86671 20.576V19.6924H11.0023C11.3833 19.6924 11.5491 19.7176 11.6617 19.7783C11.7351 19.8206 11.7776 19.8677 11.804 19.9188C11.8317 19.9725 11.8485 20.0445 11.8485 20.1453C11.8485 20.3087 11.8152 20.3863 11.7389 20.4547C11.6462 20.5334 11.5044 20.576 11.032 20.576H9.86671Z" fill="#000000" class="bmwfcol"/><path d="M15.7729 16.0053H14.01V22H15.4933V18.8454L16.3868 20.887H17.6204L18.514 18.8454V22H19.9973V16.0053H18.2567L17.0148 18.8449L15.7729 16.0053Z" fill="#000000" class="bmwfcol"/><path d="M21.9165 16.0053H20.3651L21.5736 22H23.3142L24.0449 19.3534L24.7756 22H26.5012L27.7176 16.0053H26.1888L25.4911 19.4747L24.7686 16.8512H23.3367L22.602 19.4762L21.9165 16.0053Z" fill="#000000" class="bmwfcol"/><path d="M29.7148 16.0053H28.2314V17.348H29.7148V16.0053Z" fill="#000000" class="bmwfcol"/><path d="M29.7148 17.8822H28.2314V22H29.7148V17.8822Z" fill="#000000" class="bmwfcol"/><title>bmwi-remote-app_rg_48</title></svg>