<svg width="48" height="48" viewBox="0 0 32 32" xmlns="http://www.w3.org/2000/svg"><path d="M19 5.99998C17.564 5.99985 16.0887 5.96353 14.7097 6.4271C13.4632 6.84614 12.2706 7.64676 10.6006 9.03111C7.57816 9.29536 5.93254 9.44228 4.76518 9.70173C3.38894 10.0076 2.20612 10.7264 1.00027 11.4226L1 16.2706C2.14407 16.5772 3.30544 16.9989 4.49914 17L5.50004 17.0009V15.5C5.50004 14.6716 6.17162 14 7.00004 14C7.82847 14 8.50004 14.6716 8.50004 15.5V17H13V24H2V26H30V24H19V17H22.5V15.5C22.5 14.6716 23.1716 14 24 14C24.8285 14 25.5 14.6716 25.5 15.5V17.0001L26.5439 17C27.2478 17 27.8207 17 28.4307 16.8369C29.3554 16.5897 30.1781 16.052 31.0003 15.5773L31 12.5857C30.5543 12.14 30 11.6844 30 10.9999L29.9999 9.08361L27.5411 8.86849C26.2382 8.11377 24.935 7.32535 23.5269 6.77902C22.1754 6.25467 20.8122 5.99998 19 5.99998ZM17 17V24H15V17H17ZM15.347 8.32286C16.2773 8.01011 17.2068 7.99998 19 7.99998C20.5964 7.99998 21.7104 8.21951 22.8035 8.6436C24.2524 9.20578 25.583 10.046 26.9239 10.8221L28 10.9163C28 11.3519 28.0326 11.7739 28.1966 12.1839C28.3537 12.5768 28.6134 12.9704 29.0001 13.3994L29.0002 14.4164C28.5134 14.6836 28.0216 14.9345 27.4615 14.979C27.2099 13.2931 25.756 12 24 12C22.2368 12 20.7781 13.3038 20.5355 15H10.4646C10.222 13.3038 8.76328 12 7.00004 12C5.28178 12 3.85272 13.2382 3.55641 14.871C3.40557 14.8355 3.22353 14.7903 3.00009 14.7328L3.00021 12.5788C3.89751 12.0682 4.38084 11.836 5.19911 11.6541C7.21884 11.2052 9.34668 11.1484 11.4015 10.9687C12.5943 9.96781 13.8445 8.82793 15.347 8.32286Z" fill="#000000" class="bmwfcol"/><title>body-works_rg_48</title></svg>