<svg width="48" height="48" viewBox="0 0 32 32" xmlns="http://www.w3.org/2000/svg"><path d="M12 5H2V25H12C12.9728 25 13.7057 25.3199 14.1929 25.8071C14.6801 26.2943 15 27.0272 15 28V29H17V28C17 27.0272 17.3199 26.2943 17.8071 25.8071C18.2943 25.3199 19.0272 25 20 25H30V5H20C18.5728 5 17.3057 5.48011 16.3929 6.39289C16.2515 6.5343 16.1205 6.68421 16 6.8419C15.8795 6.68421 15.7485 6.5343 15.6071 6.39289C14.6943 5.48011 13.4272 5 12 5ZM17 23.8846V10C17 9.02725 17.3199 8.29433 17.8071 7.80711C18.2943 7.31989 19.0272 7 20 7H28V23H20C18.8666 23 17.8342 23.3028 17 23.8846ZM15 23.8846C14.1658 23.3028 13.1334 23 12 23H4V7H12C12.9728 7 13.7057 7.31989 14.1929 7.80711C14.6801 8.29433 15 9.02725 15 10V23.8846Z" fill="#000000" class="bmwfcol"/><title>book_rg_48</title></svg>