<svg width="48" height="48" viewBox="0 0 32 32" xmlns="http://www.w3.org/2000/svg"><path d="M1.58398 28C3.00917 26.5622 4.31747 25.1478 5.49942 23.7641V26.7858C5.13214 27.1891 4.75568 27.5939 4.37033 28H1.58398Z" fill="#000000" class="bmwfcol"/><path d="M13.8333 14.5H11.6663C12.3765 12.8862 12.8051 11.3817 12.947 10H8.9995V8.08582L15.9995 1.08582L22.9995 8.08582V10H19.052C19.1939 11.3817 19.6225 12.8862 20.3327 14.5H18.1657C17.4102 12.5864 16.9995 10.7428 16.9995 9.00003V8.00003H20.0853L15.9995 3.91424L11.9137 8.00003H14.9995V9.00003C14.9995 10.7428 14.5888 12.5864 13.8333 14.5Z" fill="#000000" class="bmwfcol"/><path d="M27.6287 28C27.2433 27.5938 26.8668 27.189 26.4994 26.7857V23.764C27.6814 25.1477 28.9898 26.5621 30.415 28H27.6287Z" fill="#000000" class="bmwfcol"/><path d="M8.99983 16H14.9998V17H16.9998V16H22.9998V17H24.9998V28H6.99983V17H8.99983V16ZM8.99983 19V26H22.9998V19H20.9998V18H18.9998V19H12.9998V18H10.9998V19H8.99983Z" fill="#000000" class="bmwfcol"/><path d="M16.9998 20V25H14.9998V20H16.9998Z" fill="#000000" class="bmwfcol"/><path d="M12.9998 20V25H10.9998V20H12.9998Z" fill="#000000" class="bmwfcol"/><path d="M20.9998 20V25H18.9998V20H20.9998Z" fill="#000000" class="bmwfcol"/><title>boost-function_rg_48</title></svg>