<svg width="48" height="48" viewBox="0 0 32 32" xmlns="http://www.w3.org/2000/svg"><path d="M13 10V8H11V10C11 10.9728 10.6801 11.7057 10.1929 12.1929C9.70567 12.6801 8.97275 13 8 13V15C9.42725 15 10.6943 14.5199 11.6071 13.6071C12.5199 12.6943 13 11.4272 13 10Z" fill="#000000" class="bmwfcol"/><path d="M19 8V10C19 11.4272 19.4801 12.6943 20.3929 13.6071C21.3057 14.5199 22.5728 15 24 15V13C23.0272 13 22.2943 12.6801 21.8071 12.1929C21.3199 11.7057 21 10.9728 21 10V8H19Z" fill="#000000" class="bmwfcol"/><path d="M27 23V22.9058C28.9109 21.6866 30 19.5608 30 17C30 15.5592 29.6572 14.2479 29 13.1525V12C29 9.12871 27.63 6.81479 25.2958 5.70419C24.1852 3.37004 21.8713 2.00001 19 2.00001L18.9593 2.00001C18.1315 1.99981 17.0682 1.99956 16 2.70972C14.9318 1.99956 13.8685 1.99981 13.0407 2.00001L13 2.00001C10.1287 2.00001 7.81477 3.37003 6.70418 5.70419C4.37002 6.81478 3 9.12871 3 12V13.1525C2.34284 14.2479 2 15.5592 2 17C2 19.5608 3.08907 21.6866 5 22.9058V23C5 24.7273 5.58011 26.2443 6.66789 27.3321C7.75567 28.4199 9.27275 29 11 29C12.7272 29 14.2443 28.4199 15.3321 27.3321C15.5818 27.0825 15.8047 26.8102 16 26.5179C16.1953 26.8102 16.4182 27.0825 16.6679 27.3321C17.7557 28.4199 19.2728 29 21 29C22.7272 29 24.2443 28.4199 25.3321 27.3321C26.4199 26.2443 27 24.7273 27 23ZM15 4.45053V18.3627C13.9448 17.472 12.5579 17 11 17V19C12.2728 19 13.2557 19.4199 13.9179 20.0821C14.5801 20.7443 15 21.7273 15 23C15 24.2728 14.5801 25.2557 13.9179 25.9179C13.2557 26.5801 12.2728 27 11 27C9.72725 27 8.74433 26.5801 8.08211 25.9179C7.56101 25.3968 7.18997 24.6771 7.05549 23.7739C7.66904 23.9238 8.32017 24 9 24H10V22H9C8.00935 22 7.15519 21.793 6.45385 21.4357C4.96021 20.675 4 19.1429 4 17C4 15.7858 4.31071 14.776 4.83109 13.9984L5 13.7459V12C5 9.69278 6.11202 8.08333 7.83573 7.39095L8.23183 7.23184L8.39093 6.83574C9.08332 5.11203 10.6928 4.00001 13 4.00001C13.8441 4.00001 14.4192 4.01324 15 4.45053ZM17 23C17 21.7273 17.4199 20.7443 18.0821 20.0821C18.7443 19.4199 19.7272 19 21 19V17C19.4421 17 18.0552 17.472 17 18.3627V4.45053C17.5808 4.01324 18.1559 4.00001 19 4.00001C21.3072 4.00001 22.9167 5.11203 23.6091 6.83574L23.7682 7.23184L24.1643 7.39095C25.888 8.08333 27 9.69278 27 12V13.7459L27.1689 13.9984C27.6893 14.776 28 15.7858 28 17C28 19.1429 27.0398 20.675 25.5461 21.4357C24.8448 21.793 23.9907 22 23 22H22V24H23C23.6798 24 24.331 23.9238 24.9445 23.7739C24.81 24.6771 24.439 25.3968 23.9179 25.9179C23.2557 26.5801 22.2728 27 21 27C19.7272 27 18.7443 26.5801 18.0821 25.9179C17.4199 25.2557 17 24.2728 17 23Z" fill="#000000" class="bmwfcol"/><title>brain_rg_48</title></svg>