<svg width="48" height="48" viewBox="0 0 32 32" xmlns="http://www.w3.org/2000/svg"><path d="M6 16C6 10.4772 10.4772 6 16 6C21.5228 6 26 10.4772 26 16C26 21.5228 21.5228 26 16 26C10.4772 26 6 21.5228 6 16ZM16 8C11.5817 8 8 11.5817 8 16C8 17.0046 8.18518 17.966 8.52328 18.8519C8.80888 18.6758 8.99925 18.3601 8.99925 18H10.9993C10.9993 18.5523 11.447 19 11.9993 19C12.5515 19 12.9993 18.5523 12.9993 18H14.9993C14.9993 18.5523 15.447 19 15.9993 19C16.5515 19 16.9993 18.5523 16.9993 18H18.9993C18.9993 18.5523 19.447 19 19.9993 19C20.5515 19 20.9993 18.5523 20.9993 18H22.9993C22.9993 18.3606 23.1902 18.6767 23.4764 18.8526C23.8147 17.9666 24 17.0049 24 16C24 11.5817 20.4183 8 16 8ZM22.5333 20.618C22.3412 20.5103 22.1622 20.382 21.9993 20.2361C21.4685 20.7111 20.7676 21 19.9993 21C19.2309 21 18.53 20.7111 17.9993 20.2361C17.4685 20.7112 16.7676 21 15.9993 21C15.2309 21 14.53 20.7112 13.9993 20.2361C13.4685 20.7112 12.7676 21 11.9993 21C11.2309 21 10.53 20.7112 9.99925 20.2361C9.83659 20.3817 9.65794 20.5098 9.46627 20.6175C10.9152 22.664 13.3016 24 16 24C18.6981 24 21.0843 22.6643 22.5333 20.618Z" fill="#000000" class="bmwfcol"/><path d="M7.05557 8H4.50938C2.92763 10.2677 2 13.0255 2 16C2 18.9745 2.92763 21.7323 4.50938 24H7.05557C5.15541 21.877 4 19.0734 4 16C4 12.9266 5.15541 10.123 7.05557 8Z" fill="#000000" class="bmwfcol"/><path d="M24.9444 24C26.8446 21.877 28 19.0734 28 16C28 12.9266 26.8446 10.123 24.9444 8H27.4906C29.0724 10.2677 30 13.0255 30 16C30 18.9745 29.0724 21.7323 27.4906 24H24.9444Z" fill="#000000" class="bmwfcol"/><title>brake-liquid-service_rg_48</title></svg>