<svg width="48" height="48" viewBox="0 0 32 32" xmlns="http://www.w3.org/2000/svg"><path d="M12.6348 3.44003C13.7093 3.15282 14.8375 3 16 3C17.1625 3 18.2907 3.15282 19.3652 3.44003L18.8487 5.37219C17.9412 5.12962 16.9865 5 16 5C15.0135 5 14.0588 5.12962 13.1513 5.37219L12.6348 3.44003Z" fill="#000000" class="bmwfcol"/><path d="M16 11C15.4477 11 15 11.4477 15 12C15 12.5523 15.4477 13 16 13C16.5523 13 17 12.5523 17 12C17 11.4477 16.5523 11 16 11Z" fill="#000000" class="bmwfcol"/><path d="M16 14.5C15.1716 14.5 14.5 15.1716 14.5 16C14.5 16.8284 15.1716 17.5 16 17.5C16.8284 17.5 17.5 16.8284 17.5 16C17.5 15.1716 16.8284 14.5 16 14.5Z" fill="#000000" class="bmwfcol"/><path d="M11.1953 14.7637C11.1953 14.2114 11.643 13.7637 12.1953 13.7637C12.7476 13.7637 13.1953 14.2114 13.1953 14.7637C13.1953 15.316 12.7476 15.7637 12.1953 15.7637C11.643 15.7637 11.1953 15.316 11.1953 14.7637Z" fill="#000000" class="bmwfcol"/><path d="M13.6484 18.2363C13.0962 18.2363 12.6484 18.684 12.6484 19.2363C12.6484 19.7886 13.0962 20.2363 13.6484 20.2363C14.2007 20.2363 14.6484 19.7886 14.6484 19.2363C14.6484 18.684 14.2007 18.2363 13.6484 18.2363Z" fill="#000000" class="bmwfcol"/><path d="M18.8047 14.7637C18.8047 15.316 19.2524 15.7637 19.8047 15.7637C20.357 15.7637 20.8047 15.316 20.8047 14.7637C20.8047 14.2114 20.357 13.7637 19.8047 13.7637C19.2524 13.7637 18.8047 14.2114 18.8047 14.7637Z" fill="#000000" class="bmwfcol"/><path d="M18.3516 20.2363C17.7993 20.2363 17.3516 19.7886 17.3516 19.2363C17.3516 18.684 17.7993 18.2363 18.3516 18.2363C18.9038 18.2363 19.3516 18.684 19.3516 19.2363C19.3516 19.7886 18.9038 20.2363 18.3516 20.2363Z" fill="#000000" class="bmwfcol"/><path d="M26.2476 8C25.2223 6.68826 23.9505 5.57863 22.5018 4.74038L21.5002 6.4715C22.4633 7.02878 23.3343 7.72805 24.0844 8.54056C24.0294 8.5856 23.9764 8.63166 23.925 8.67788C23.749 8.83609 23.5457 9.0392 23.3109 9.27386L21.9417 10.643C20.4775 9.02008 18.3579 8 16 8C11.5817 8 8 11.5817 8 16C8 20.4183 11.5817 24 16 24C18.3579 24 20.4775 22.9799 21.9417 21.357L23.3107 22.726C23.5456 22.9607 23.7489 23.1638 23.9249 23.3221C23.9764 23.3683 24.0294 23.4144 24.0844 23.4594C23.3343 24.2719 22.4633 24.9712 21.5002 25.5285L22.5018 27.2596C23.9505 26.4214 25.2222 25.3117 26.2476 24H28.7037L28.9925 23.5007C30.2694 21.2934 30.9999 18.7305 30.9999 16C30.9999 13.2695 30.2694 10.7066 28.9925 8.49927L28.7037 8H26.2476ZM24.7066 10.7065C24.964 10.4494 25.1302 10.2838 25.2622 10.1651C25.3922 10.0482 25.4397 10.0231 25.447 10.0194C25.4504 10.0185 25.4666 10.0145 25.5055 10.0106C25.601 10.0011 25.7314 9.99999 25.9999 10H27.5357C28.4709 11.7942 28.9999 13.834 28.9999 16C28.9999 18.166 28.4709 20.2059 27.5357 22H25.9998C25.7314 22 25.601 21.9989 25.5056 21.9894C25.4667 21.9855 25.4502 21.9814 25.4467 21.9805C25.4392 21.9767 25.3918 21.9515 25.2622 21.8348C25.1301 21.7161 24.9642 21.5508 24.7066 21.2935L23.1011 19.688C23.6754 18.5844 24 17.3301 24 16C24 14.6699 23.6754 13.4156 23.1011 12.312L24.7066 10.7065ZM16 10C19.3137 10 22 12.6863 22 16C22 19.3137 19.3137 22 16 22C12.6863 22 10 19.3137 10 16C10 12.6863 12.6863 10 16 10Z" fill="#000000" class="bmwfcol"/><path d="M9.49824 4.74038C7.52582 5.8816 5.8816 7.52582 4.74038 9.49824L6.4715 10.4998C7.43754 8.83022 8.83022 7.43754 10.4998 6.4715L9.49824 4.74038Z" fill="#000000" class="bmwfcol"/><path d="M3 16C3 14.8375 3.15282 13.7093 3.44003 12.6348L5.37219 13.1513C5.12962 14.0588 5 15.0135 5 16C5 16.9865 5.12962 17.9412 5.37219 18.8487L3.44003 19.3652C3.15282 18.2907 3 17.1625 3 16Z" fill="#000000" class="bmwfcol"/><path d="M4.74038 22.5018C5.8816 24.4742 7.52582 26.1184 9.49824 27.2596L10.4998 25.5285C8.83022 24.5625 7.43754 23.1698 6.4715 21.5002L4.74038 22.5018Z" fill="#000000" class="bmwfcol"/><path d="M16 29C14.8375 29 13.7093 28.8472 12.6348 28.56L13.1513 26.6278C14.0588 26.8704 15.0135 27 16 27C16.9865 27 17.9412 26.8704 18.8487 26.6278L19.3652 28.56C18.2907 28.8472 17.1625 29 16 29Z" fill="#000000" class="bmwfcol"/><title>brake-pads_rg_48</title></svg>