<svg width="48" height="48" viewBox="0 0 32 32" xmlns="http://www.w3.org/2000/svg"><path d="M16 14.5C15.1716 14.5 14.5 15.1716 14.5 16C14.5 16.8284 15.1716 17.5 16 17.5C16.8284 17.5 17.5 16.8284 17.5 16C17.5 15.1716 16.8284 14.5 16 14.5Z" fill="#000000" class="bmwfcol"/><path d="M16 11C15.4477 11 15 11.4477 15 12C15 12.5523 15.4477 13 16 13C16.5523 13 17 12.5523 17 12C17 11.4477 16.5523 11 16 11Z" fill="#000000" class="bmwfcol"/><path d="M12.1953 13.7637C11.643 13.7637 11.1953 14.2114 11.1953 14.7637C11.1953 15.316 11.643 15.7637 12.1953 15.7637C12.7476 15.7637 13.1953 15.316 13.1953 14.7637C13.1953 14.2114 12.7476 13.7637 12.1953 13.7637Z" fill="#000000" class="bmwfcol"/><path d="M13.6484 18.2363C13.0962 18.2363 12.6484 18.684 12.6484 19.2363C12.6484 19.7886 13.0962 20.2363 13.6484 20.2363C14.2007 20.2363 14.6484 19.7886 14.6484 19.2363C14.6484 18.684 14.2007 18.2363 13.6484 18.2363Z" fill="#000000" class="bmwfcol"/><path d="M19.8047 15.7637C19.2524 15.7637 18.8047 15.316 18.8047 14.7637C18.8047 14.2114 19.2524 13.7637 19.8047 13.7637C20.357 13.7637 20.8047 14.2114 20.8047 14.7637C20.8047 15.316 20.357 15.7637 19.8047 15.7637Z" fill="#000000" class="bmwfcol"/><path d="M18.3516 20.2363C17.7993 20.2363 17.3516 19.7886 17.3516 19.2363C17.3516 18.684 17.7993 18.2363 18.3516 18.2363C18.9038 18.2363 19.3516 18.684 19.3516 19.2363C19.3516 19.7886 18.9038 20.2363 18.3516 20.2363Z" fill="#000000" class="bmwfcol"/><path d="M16 8C11.5817 8 8 11.5817 8 16C8 20.4183 11.5817 24 16 24C20.4183 24 24 20.4183 24 16C24 11.5817 20.4183 8 16 8ZM10 16C10 12.6863 12.6863 10 16 10C19.3137 10 22 12.6863 22 16C22 19.3137 19.3137 22 16 22C12.6863 22 10 19.3137 10 16Z" fill="#000000" class="bmwfcol"/><path d="M16 3C8.8203 3 3 8.8203 3 16C3 23.1797 8.8203 29 16 29C23.1797 29 29 23.1797 29 16C29 8.8203 23.1797 3 16 3ZM5 16C5 9.92487 9.92487 5 16 5C22.0751 5 27 9.92487 27 16C27 22.0751 22.0751 27 16 27C9.92487 27 5 22.0751 5 16Z" fill="#000000" class="bmwfcol"/><title>brake-discs_rg_48</title></svg>