<svg width="48" height="48" viewBox="0 0 32 32" xmlns="http://www.w3.org/2000/svg"><path d="M17.962 20.7501H24V22.0001H30V13.0429C30 12.2012 29.5253 11.4622 29.0553 10.8889C28.6916 10.4452 28.2383 9.99382 27.7653 9.54837C28.5042 9.45522 29.2561 9.5001 29.9994 9.5001V7.5001C29.0293 7.5001 28.2419 7.48658 27.6351 7.55025C27.2834 7.58715 26.9538 7.6527 26.6418 7.77293C26.4856 7.4882 26.3136 7.19124 26.1303 6.89915C25.8504 6.45303 25.5311 5.99723 25.1886 5.60816C24.8417 5.21406 24.4389 4.84276 23.9531 4.6291C22.7213 4.08791 21.838 4.00006 18 4.00006C14.1617 4.00006 13.28 4.08797 12.0473 4.62893C11.5571 4.84414 11.14 5.23411 10.8115 5.60708C10.4689 5.99616 10.1496 6.45214 9.8696 6.89843C9.68619 7.1908 9.51407 7.48808 9.35784 7.7731C9.04567 7.65279 8.71605 7.58718 8.36415 7.55025C7.75739 7.48657 6.97015 7.5001 6 7.5001V9.5001C6.74344 9.5001 7.49558 9.45512 8.23464 9.54846C7.74914 10.0056 7.26901 10.4755 6.85526 11H9.61074C9.79127 10.83 9.91318 10.7326 10.1624 10.6757C10.445 10.6113 10.867 10.5636 11.5196 10.5346C12.5089 10.4906 13.891 10.4933 15.8816 10.4973C17.294 10.5001 18.7065 10.5001 20.1189 10.4973C22.1092 10.4933 23.4913 10.4906 24.4799 10.5346C25.1322 10.5636 25.5537 10.6113 25.8358 10.6757C26.0738 10.73 26.1546 10.7836 26.1762 10.8009C26.6497 11.2405 27.0572 11.6351 27.3758 12H23V14H28V20.0001H26V18.7501H16.8073L17.962 20.7501ZM24.7839 8.54714C23.2155 8.46219 21.6394 8.4941 20.0696 8.49726C18.6905 8.50004 17.3114 8.50004 15.9322 8.49726C14.3617 8.4941 12.7849 8.46221 11.2158 8.54713C11.3254 8.35292 11.4421 8.15528 11.5638 7.96124C11.8113 7.56675 12.0666 7.20813 12.3125 6.92881C12.5726 6.6335 12.7582 6.50114 12.8511 6.46029C13.6366 6.11557 14.0888 6.00006 18 6.00006C21.9106 6.00006 22.3642 6.11558 23.1479 6.45986C23.2419 6.5015 23.4277 6.63465 23.6874 6.92965C23.9334 7.2092 24.1888 7.56786 24.4363 7.96223C24.5578 8.15598 24.6744 8.35328 24.7839 8.54714Z" fill="#000000" class="bmwfcol"/><path d="M12.8182 23.2649L9.99799 18.4222L7.17773 23.2649H12.8182Z" fill="#000000" class="bmwfcol"/><path d="M8.22864 14.0217C9.01517 12.6594 10.9815 12.6594 11.768 14.0217L17.4913 23.9348C18.2304 25.2148 17.407 26.7955 16 26.9818V29H14V27H6V29H4V26.9822C2.59094 26.798 1.76574 25.2158 2.50534 23.9348L8.22864 14.0217ZM4.23739 24.9783C4.23739 24.9783 13.7156 24.9829 15.7593 24.9783C14.7417 23.2062 9.99834 15 9.99834 15C9.99834 15 5.25502 23.2063 4.23739 24.9783Z" fill="#000000" class="bmwfcol"/><title>breakdown-service_rg_48</title></svg>