<svg width="48" height="48" viewBox="0 0 32 32" xmlns="http://www.w3.org/2000/svg"><path d="M29 11V16.0927C28.3933 15.5738 27.7211 15.1517 27 14.826V11C27 10.6894 26.896 10.5057 26.6821 10.3581C26.4158 10.1744 25.8971 10 25 10H7C6.10291 10 5.58419 10.1744 5.31793 10.3581C5.10397 10.5057 5 10.6894 5 11V25C5 25.3106 5.10397 25.4943 5.31793 25.6419C5.58419 25.8256 6.10291 26 7 26H14.4455C14.6673 26.7067 14.972 27.3778 15.36 28H7C5.89709 28 4.91581 27.7944 4.18207 27.2881C3.39603 26.7457 3 25.9294 3 25V11C3 10.0706 3.39603 9.25429 4.18207 8.71192C4.91581 8.20565 5.89709 8 7 8H9.66429L9.73365 7.74116C10.1377 6.23313 10.6219 5.06667 11.8141 4.47828C12.3636 4.20705 12.9842 4.10029 13.6391 4.04983C14.2861 3.99999 15.0641 3.99999 15.9646 4H16.0352C16.9357 3.99999 17.7138 3.99999 18.3608 4.04983C19.0156 4.10029 19.6363 4.20705 20.1858 4.47828C21.3779 5.06667 21.8622 6.23313 22.2662 7.74116L22.3356 8H25C26.1029 8 27.0842 8.20565 27.8179 8.71192C28.604 9.25429 29 10.0706 29 11ZM20.2627 8C19.8974 6.72704 19.6082 6.42352 19.3006 6.27172C19.0904 6.16795 18.7691 6.08722 18.2071 6.04392C17.6457 6.00067 16.9438 6 15.9999 6C15.0561 6 14.3542 6.00067 13.7928 6.04392C13.2308 6.08722 12.9095 6.16795 12.6993 6.27172C12.3917 6.42352 12.1025 6.72704 11.7372 8H20.2627Z" fill="#000000" class="bmwfcol"/><path d="M24 22V19H22V24H26V22H24Z" fill="#000000" class="bmwfcol"/><path d="M17.9429 17.9429C19.2057 16.6801 20.9728 16 23 16C25.0272 16 26.7943 16.6801 28.0571 17.9429C29.3199 19.2057 30 20.9728 30 23C30 25.0272 29.3199 26.7943 28.0571 28.0571C26.7943 29.3199 25.0272 30 23 30C20.9728 30 19.2057 29.3199 17.9429 28.0571C16.6801 26.7943 16 25.0272 16 23C16 20.9728 16.6801 19.2057 17.9429 17.9429ZM19.3571 19.3571C18.5199 20.1943 18 21.4272 18 23C18 24.5728 18.5199 25.8057 19.3571 26.6429C20.1943 27.4801 21.4272 28 23 28C24.5728 28 25.8057 27.4801 26.6429 26.6429C27.4801 25.8057 28 24.5728 28 23C28 21.4272 27.4801 20.1943 26.6429 19.3571C25.8057 18.5199 24.5728 18 23 18C21.4272 18 20.1943 18.5199 19.3571 19.3571Z" fill="#000000" class="bmwfcol"/><title>briefcase_and_clock_rg_48</title></svg>