<svg width="48" height="48" viewBox="0 0 32 32" xmlns="http://www.w3.org/2000/svg"><path d="M18 16.5H14V14.5H18V16.5Z" fill="#000000" class="bmwfcol"/><path d="M16 4C16.9153 4 17.705 3.99934 18.3604 4.04981C19.0152 4.10026 19.6361 4.20734 20.1855 4.47852C21.3777 5.06691 21.8625 6.23318 22.2666 7.74121L22.3359 8H25C26.1029 8 27.0846 8.20564 27.8184 8.71191C28.6042 9.25429 29 10.0707 29 11V25L28.9951 25.1729C28.9487 26.0302 28.5551 26.7796 27.8184 27.2881C27.0846 27.7944 26.1029 28 25 28H7C5.89709 28 4.91537 27.7944 4.18164 27.2881C3.39579 26.7457 3 25.9293 3 25V11C3 10.0707 3.39579 9.25429 4.18164 8.71191C4.91537 8.20564 5.89709 8 7 8H9.66406C9.68829 7.9093 9.71209 7.82072 9.7334 7.74121L9.89062 7.19238C10.2703 5.95076 10.7713 4.99338 11.8145 4.47852C12.3638 4.20743 12.984 4.10027 13.6387 4.04981C14.2941 3.99931 15.0845 4 16 4ZM27 18.8379C26.4741 19.0857 25.8696 19.2706 25.2139 19.4141C23.093 19.878 19.9884 20 16 20C12.0116 20 8.90698 19.878 6.78613 19.4141C6.13036 19.2706 5.52593 19.0857 5 18.8379V25C5 25.3106 5.10441 25.494 5.31836 25.6416C5.58467 25.8253 6.10307 26 7 26H25C25.8969 26 26.4153 25.8253 26.6816 25.6416C26.8689 25.5124 26.9724 25.3558 26.9951 25.1104L27 25V18.8379ZM7 10C6.10307 10 5.58467 10.1747 5.31836 10.3584C5.10441 10.506 5 10.6894 5 11V16L5.00488 16.1104C5.02761 16.36 5.13364 16.5504 5.37305 16.7412C5.69699 16.9994 6.2722 17.2549 7.21387 17.4609C9.09303 17.872 11.9886 18 16 18C20.0114 18 22.907 17.872 24.7861 17.4609C25.7278 17.2549 26.303 16.9994 26.627 16.7412C26.8664 16.5504 26.9724 16.36 26.9951 16.1104L27 16V11L26.9951 10.8896C26.9724 10.6442 26.8689 10.4876 26.6816 10.3584C26.4153 10.1747 25.8969 10 25 10H7ZM16 6C15.0562 6 14.3544 6.00071 13.793 6.04395C13.2311 6.08724 12.9095 6.16773 12.6992 6.27148C12.4127 6.41289 12.1425 6.68627 11.8115 7.75195L11.7402 8H20.2598C19.8946 6.72767 19.6083 6.42326 19.3008 6.27148C19.0905 6.16771 18.769 6.08724 18.207 6.04395C17.6456 6.0007 16.9438 6 16 6Z" fill="#000000" class="bmwfcol"/><title>briefcase_rg_48</title></svg>