<svg width="48" height="48" viewBox="0 0 32 32" xmlns="http://www.w3.org/2000/svg"><path d="M21 23H25V21H21V23Z" fill="#000000" class="bmwfcol"/><path d="M25 18H21V16H25V18Z" fill="#000000" class="bmwfcol"/><path d="M7 21H13V23H7V21Z" fill="#000000" class="bmwfcol"/><path d="M15 16H9V18H15V16Z" fill="#000000" class="bmwfcol"/><path d="M7 8H13V10H7V8Z" fill="#000000" class="bmwfcol"/><path d="M5 4C4.48408 4 3.95856 4.16222 3.56039 4.5604C3.16222 4.95857 3 5.48408 3 6V26H2V28H30V26H29V14C29 13.4841 28.8378 12.9586 28.4396 12.5604C28.0414 12.1622 27.5159 12 27 12H19V6C19 5.48408 18.8378 4.95857 18.4396 4.5604C18.0414 4.16222 17.5159 4 17 4H5ZM27 26H19V14H27V26ZM17 26H5V6H17V26Z" fill="#000000" class="bmwfcol"/><title>building_rg_48</title></svg>