<svg width="48" height="48" viewBox="0 0 32 32" xmlns="http://www.w3.org/2000/svg"><path d="M13 22H11V20H13V22Z" fill="#000000" class="bmwfcol"/><path d="M11 18H13V16H11V18Z" fill="#000000" class="bmwfcol"/><path d="M21 22H15V20H21V22Z" fill="#000000" class="bmwfcol"/><path d="M15 18H21V16H15V18Z" fill="#000000" class="bmwfcol"/><path d="M27 14.8669C27.0005 13.7394 27.0009 12.8263 26.6898 11.9708C26.3574 11.0567 25.7107 10.2965 24.7071 9.29297L20.7071 5.29297C19.7036 4.28942 18.9434 3.64269 18.0292 3.31028C17.1737 2.99919 16.2607 2.99957 15.1332 3.00004L5 3.00007V29.0001H27V14.8669ZM15.0286 5.00007C15.809 5.00418 16.1977 5.17698 16.4373 5.45403C16.7174 5.77801 17 6.47601 17 8V13H22C23.524 13 24.222 13.2826 24.546 13.5627C24.8264 13.8052 25 14.2004 25 15V27.0001H7V5.00007H15.0286ZM23.7051 11.129C23.1898 11.0401 22.6205 11 22 11H19V8C19 7.37948 18.9599 6.81022 18.871 6.29487C19.001 6.41845 19.1411 6.55535 19.2929 6.70718L23.2929 10.7072C23.4447 10.859 23.5816 10.999 23.7051 11.129Z" fill="#000000" class="bmwfcol"/><title>bulletlist_rg_48</title></svg>