<svg width="48" height="48" viewBox="0 0 32 32" xmlns="http://www.w3.org/2000/svg"><path d="M7 25.8427V28.1545L6.50021 27.866C4.55813 26.7446 3.20135 25.9564 2.55843 24.158C2.25747 23.3161 2.1275 22.3034 2.06377 21.0299C2 19.7555 2 18.1293 2 16.0286C2 13.9279 2 12.2445 2.06377 10.9701C2.1275 9.69662 2.25747 8.6839 2.55843 7.84202C3.20135 6.04356 4.5581 5.25539 6.50018 4.13403L7 3.84546V6.15728C5.3337 7.13773 4.76816 7.60206 4.44171 8.51526C4.24263 9.07215 4.12257 9.84512 4.06127 11.0701C4.0003 12.2884 4 13.8646 4 16C4 18.1354 4.0003 19.7116 4.06127 20.9299C4.12257 22.1549 4.24263 22.9278 4.44171 23.4847C4.76816 24.3979 5.3337 24.8623 7 25.8427Z" fill="#000000" class="bmwfcol"/><path d="M25 6.15728V3.84546L25.4998 4.13403C27.4419 5.25539 28.7987 6.04355 29.4416 7.84202C29.7425 8.6839 29.8725 9.69661 29.9362 10.9701C30 12.2445 30 13.9275 30 16.0284C30 18.1292 30 19.7555 29.9362 21.0299C29.8725 22.3034 29.7425 23.3161 29.4416 24.158C28.7987 25.9564 27.4419 26.7446 25.4998 27.866L25 28.1545V25.8427C26.6663 24.8623 27.2318 24.3979 27.5583 23.4847C27.7574 22.9278 27.8774 22.1549 27.9387 20.9299C27.9997 19.7116 28 18.1354 28 16C28 13.8646 27.9997 12.2884 27.9387 11.0701C27.8774 9.84512 27.7574 9.07215 27.5583 8.51526C27.2318 7.60206 26.6663 7.13773 25 6.15728Z" fill="#000000" class="bmwfcol"/><path d="M9.19752 14.1975C9.10694 14.2881 9 14.4709 9 14.8333V22.1666C9 22.5291 9.10694 22.7119 9.19752 22.8025C9.2881 22.893 9.47092 23 9.83333 23H17.1667C17.5291 23 17.7119 22.893 17.8025 22.8025C17.8931 22.7119 18 22.5291 18 22.1666V14.8333C18 14.4709 17.8931 14.2881 17.8025 14.1975C17.7119 14.1069 17.5291 14 17.1667 14H9.83333C9.47092 14 9.2881 14.1069 9.19752 14.1975ZM7.78331 12.7833C8.32523 12.2414 9.05908 12 9.83333 12H17.1667C17.9409 12 18.6748 12.2414 19.2167 12.7833C19.7586 13.3252 20 14.0591 20 14.8333V22.1666C20 22.9409 19.7586 23.6748 19.2167 24.2167C18.6748 24.7586 17.9409 25 17.1667 25H9.83333C9.05908 25 8.32523 24.7586 7.78331 24.2167C7.24139 23.6748 7 22.9409 7 22.1666V14.8333C7 14.0591 7.24139 13.3252 7.78331 12.7833Z" fill="#000000" class="bmwfcol"/><path d="M14.1975 9.19751C14.1069 9.28808 14 9.4709 14 9.83332V9.99998H12V9.83332C12 9.05906 12.2414 8.32521 12.7833 7.78329C13.3252 7.24137 14.0591 6.99998 14.8333 6.99998H22.1667C22.9409 6.99998 23.6748 7.24137 24.2167 7.78329C24.7586 8.32521 25 9.05906 25 9.83332V17.1666C25 17.9409 24.7586 18.6748 24.2167 19.2167C23.6748 19.7586 22.9409 20 22.1667 20H22V18H22.1667C22.5291 18 22.7119 17.893 22.8025 17.8025C22.8931 17.7119 23 17.5291 23 17.1666V9.83332C23 9.4709 22.8931 9.28808 22.8025 9.1975C22.7119 9.10693 22.5291 8.99998 22.1667 8.99998H14.8333C14.4709 8.99998 14.2881 9.10693 14.1975 9.19751Z" fill="#000000" class="bmwfcol"/><title>bundle_rg_48</title></svg>