<svg width="48" height="48" viewBox="0 0 32 32" xmlns="http://www.w3.org/2000/svg"><path d="M2.0003 9L29.7674 9.00001L29.966 9.74119C30.4629 11.5958 30.7278 12.6477 30.8625 13.4919C31 14.3539 31 14.9913 31 15.9641V19.5773L30.5 19.866C29.6383 20.3635 29.0326 20.6793 28.41 20.8423C27.8065 21.0004 27.2335 21.0002 26.5305 21L25.8293 21C25.4175 22.1652 24.3062 23 23 23C21.6938 23 20.5825 22.1652 20.1707 21H10.8293C10.4175 22.1652 9.30623 23 8 23C6.69377 23 5.58253 22.1652 5.1707 21H1V17.9416C0.999977 16.4946 0.999963 15.615 1.13438 14.6386C1.26633 13.68 1.5251 12.6449 2.0003 10.8684V9ZM26.4498 19C27.2595 19 27.5751 18.9935 27.9033 18.9076C28.1638 18.8394 28.4628 18.7112 29 18.4164V16H3.0222C3.0006 16.5209 3 17.1346 3 18V19H5.17072C5.58256 17.8348 6.69379 17 8 17C9.30621 17 10.4174 17.8348 10.8293 19H20.1707C20.5826 17.8348 21.6938 17 23 17C24.3062 17 25.4174 17.8348 25.8293 19L26.4498 19ZM6 14V11L4.0003 11V11.1316L3.96623 11.2588C3.63243 12.5045 3.41788 13.3369 3.27768 14H6ZM8 14H11.6968L10.893 11L8 11V14ZM12.9635 11L13.7674 14H17.6968L16.893 11L12.9635 11ZM18.9635 11L19.7674 14H23.6968L22.893 11L18.9635 11ZM24.9635 11L25.7674 14H28.9162C28.9076 13.9371 28.898 13.8729 28.8875 13.807C28.7885 13.1862 28.6011 12.3991 28.2315 11L24.9635 11ZM8 19C7.44772 19 7 19.4477 7 20C7 20.5523 7.44772 21 8 21C8.55229 21 9 20.5523 9 20C9 19.4477 8.55229 19 8 19ZM22 20C22 20.5523 22.4477 21 23 21C23.5523 21 24 20.5523 24 20C24 19.4477 23.5523 19 23 19C22.4477 19 22 19.4477 22 20Z" fill="#000000" class="bmwfcol"/><title>bus_rg_48</title></svg>