<svg width="48" height="48" viewBox="0 0 32 32" xmlns="http://www.w3.org/2000/svg"><path d="M13.5968 16.8611V22H11.2103V10.0039H13.5968V14.586H18.4017V10.0039H20.7882V22H18.4017V16.8611H13.5968Z" fill="#000000" class="bmwfcol"/><path d="M16 3C8.8203 3 3 8.8203 3 16C3 23.1797 8.8203 29 16 29C23.1797 29 29 23.1797 29 16C29 8.8203 23.1797 3 16 3ZM5 16C5 9.92487 9.92487 5 16 5C22.0751 5 27 9.92487 27 16C27 22.0751 22.0751 27 16 27C9.92487 27 5 22.0751 5 16Z" fill="#000000" class="bmwfcol"/><title>bus-stop_rg_48</title></svg>