<svg width="48" height="48" viewBox="0 0 32 32" xmlns="http://www.w3.org/2000/svg"><path d="M10 19.5C9.17157 19.5 8.5 20.1716 8.5 21C8.5 21.8284 9.17157 22.5 10 22.5C10.8284 22.5 11.5 21.8284 11.5 21C11.5 20.1716 10.8284 19.5 10 19.5Z" fill="#000000" class="bmwfcol"/><path d="M22 19.5C21.1716 19.5 20.5 20.1716 20.5 21C20.5 21.8284 21.1716 22.5 22 22.5C22.8284 22.5 23.5 21.8284 23.5 21C23.5 20.1716 22.8284 19.5 22 19.5Z" fill="#000000" class="bmwfcol"/><path d="M15.8863 3H16.1165C19.5143 2.99997 21.8267 2.99995 23.5274 3.26166C25.3393 3.54048 26.5411 4.12691 27.7071 5.29311L28 5.586V27C28 27.5159 27.8378 28.0414 27.4396 28.4396C27.0414 28.8378 26.5159 29 26 29H23C22.4841 29 21.9586 28.8378 21.5604 28.4396C21.1622 28.0414 21 27.5159 21 27V26L11 26V27C11 27.5159 10.8378 28.0414 10.4396 28.4396C10.0414 28.8378 9.51592 29 9 29H6C5.48408 29 4.95856 28.8378 4.56039 28.4396C4.16222 28.0414 4 27.5159 4 27L4.00001 5.586L4.29287 5.29311C5.45918 4.12669 6.66161 3.54034 8.47417 3.26158C10.1753 2.99995 12.4883 2.99997 15.8863 3ZM6.00001 6.43096L6.00001 8H26V6.43095C25.263 5.77894 24.4922 5.43368 23.2232 5.23839C21.6934 5.00298 19.5397 5 16.0022 5C12.4636 5 10.3088 5.00293 8.77818 5.23834C7.5083 5.43364 6.73704 5.77896 6.00001 6.43096ZM6 16H26V10H6L6 16ZM6 18L6 27H9V24L23 24V27H26V18H6Z" fill="#000000" class="bmwfcol"/><title>bus-front_rg_48</title></svg>