<svg width="48" height="48" viewBox="0 0 32 32" xmlns="http://www.w3.org/2000/svg"><path d="M23.0317 2H22.9683C22.5298 1.99999 22.1241 1.99997 21.7812 2.02639C21.4305 2.05341 21.0454 2.1133 20.6858 2.29078C19.8735 2.69167 19.587 3.48314 19.3839 4.24117L19.1806 5H18.5C17.8971 5 17.2908 5.11065 16.8071 5.44442C16.271 5.81429 16 6.3806 16 7V14C16 14.6194 16.271 15.1857 16.8071 15.5556C17.2908 15.8894 17.8971 16 18.5 16H27.5C28.1029 16 28.7092 15.8894 29.1929 15.5556C29.729 15.1857 30 14.6194 30 14V7C30 6.38059 29.729 5.81429 29.1929 5.44442C28.7092 5.11065 28.1029 5 27.5 5H26.8194L26.6161 4.24117C26.413 3.48314 26.1265 2.69167 25.3142 2.29078C24.9547 2.1133 24.5695 2.05341 24.2188 2.02639C23.8759 1.99997 23.4702 1.99999 23.0317 2ZM24.7489 5H21.2511L21.3157 4.75881C21.4101 4.4068 21.4828 4.2282 21.5376 4.13357C21.5494 4.11311 21.5585 4.10006 21.5643 4.09239C21.5672 4.08856 21.5696 4.08578 21.571 4.08422C21.5913 4.0742 21.6771 4.04034 21.9348 4.02048C22.192 4.00067 22.521 4 23 4C23.479 4 23.808 4.00067 24.0652 4.02048C24.3229 4.04034 24.4089 4.0744 24.4292 4.08442C24.4306 4.08598 24.4328 4.08856 24.4357 4.09239C24.4415 4.10006 24.4506 4.11311 24.4624 4.13357C24.5172 4.2282 24.5899 4.4068 24.6843 4.75881L24.7489 5ZM18 7.06437C18.0746 7.03729 18.2278 7 18.5 7H27.5C27.7722 7 27.9254 7.0373 28 7.06437V13.9356C27.9254 13.9627 27.7722 14 27.5 14H18.5C18.2278 14 18.0746 13.9627 18 13.9356V7.06437Z" fill="#000000" class="bmwfcol"/><path d="M14 14H6V8H14V6H6C5.48408 6 4.95856 6.16222 4.56039 6.56039C4.16222 6.95856 4 7.48408 4 8V28C4 28.5159 4.16222 29.0414 4.56039 29.4396C4.95856 29.8378 5.48408 30 6 30H22C22.5159 30 23.0414 29.8378 23.4396 29.4396C23.8378 29.0414 24 28.5159 24 28V18H22V28H6V16H14V14Z" fill="#000000" class="bmwfcol"/><path d="M14 18.5C13.1716 18.5 12.5 19.1716 12.5 20C12.5 20.8284 13.1716 21.5 14 21.5C14.8284 21.5 15.5 20.8284 15.5 20C15.5 19.1716 14.8284 18.5 14 18.5Z" fill="#000000" class="bmwfcol"/><path d="M9 18.5C8.17157 18.5 7.5 19.1716 7.5 20C7.5 20.8284 8.17157 21.5 9 21.5C9.82843 21.5 10.5 20.8284 10.5 20C10.5 19.1716 9.82843 18.5 9 18.5Z" fill="#000000" class="bmwfcol"/><path d="M19 18.5C18.1716 18.5 17.5 19.1716 17.5 20C17.5 20.8284 18.1716 21.5 19 21.5C19.8284 21.5 20.5 20.8284 20.5 20C20.5 19.1716 19.8284 18.5 19 18.5Z" fill="#000000" class="bmwfcol"/><path d="M19 23.5C18.1716 23.5 17.5 24.1716 17.5 25C17.5 25.8284 18.1716 26.5 19 26.5C19.8284 26.5 20.5 25.8284 20.5 25C20.5 24.1716 19.8284 23.5 19 23.5Z" fill="#000000" class="bmwfcol"/><path d="M7.55078 25C7.55078 24.2648 8.17168 23.75 8.83411 23.75H14.1674C14.8299 23.75 15.4508 24.2648 15.4508 25C15.4508 25.7352 14.8299 26.25 14.1674 26.25H8.83411C8.17168 26.25 7.55078 25.7352 7.55078 25Z" fill="#000000" class="bmwfcol"/><title>business-drive-calculator_rg_48</title></svg>