<svg width="48" height="48" viewBox="0 0 32 32" xmlns="http://www.w3.org/2000/svg"><path d="M15.0134 10.7675C14.7833 11.1017 14.521 11.3916 14.2477 11.6706C14.4216 12.0817 14.502 12.5278 14.502 13C14.502 13.9022 14.1968 14.7318 13.5903 15.3383C12.9838 15.9449 12.1542 16.25 11.252 16.25C10.3928 16.25 9.5995 15.9733 9.00198 15.4231C8.40445 15.9733 7.61115 16.25 6.75195 16.25C5.8497 16.25 5.02012 15.9449 4.41359 15.3384C3.80707 14.7318 3.50195 13.9023 3.50195 13C3.50195 12.5278 3.5823 12.0818 3.75623 11.6706C3.48292 11.3916 3.22063 11.1017 2.99054 10.7675C2.59105 10.1873 2.30297 9.5075 2.03577 8.51029C1.7846 7.57291 1.59381 6.55162 1.7742 5.71521C1.87175 5.26288 2.09179 4.79818 2.52584 4.4583C2.95518 4.12212 3.47675 4 4.00173 4C4.87339 4 5.8806 4.14774 6.92351 4.76412C7.28912 4.98021 7.64877 5.24774 8.00195 5.57443V4.5H10.002V5.57443C10.3551 5.24774 10.7148 4.98021 11.0804 4.76412C12.1233 4.14774 13.1305 4 14.0022 4C14.5272 4 15.0487 4.12212 15.4781 4.4583C15.9121 4.79818 16.1322 5.26288 16.2297 5.71521C16.4101 6.55162 16.2193 7.57291 15.9681 8.51029C15.7009 9.5075 15.4129 10.1873 15.0134 10.7675ZM14.2747 6.13684C14.2618 6.07732 14.2484 6.046 14.2407 6.03174C14.217 6.02161 14.1486 6 14.0022 6C13.3738 6 12.7471 6.10226 12.098 6.48589C11.4753 6.85391 10.7584 7.52483 10.002 8.77379V13C10.002 13.4477 10.1468 13.7431 10.3278 13.9241C10.5088 14.1051 10.8042 14.25 11.252 14.25C11.6997 14.25 11.9951 14.1051 12.1761 13.9241C12.3571 13.7431 12.502 13.4477 12.502 13C12.502 12.5701 12.3826 12.3039 12.1282 12.0677C11.91 11.8651 11.5579 11.6548 11 11.4515V9.35052C11.7391 9.5635 12.3874 9.82438 12.9207 10.1657C13.0999 9.97902 13.2381 9.81923 13.3661 9.63335C13.5916 9.30579 13.8035 8.86134 14.0363 7.99265C14.2851 7.06413 14.3443 6.45969 14.2747 6.13684ZM3.72925 6.13684C3.65962 6.45969 3.71882 7.06413 3.96762 7.99265C4.20038 8.86134 4.41232 9.30579 4.63785 9.63335C4.76583 9.81923 4.904 9.97904 5.08324 10.1657C5.61584 9.82486 6.26314 9.56422 7.00098 9.35141V11.4526C6.44478 11.6556 6.09357 11.8654 5.87569 12.0677C5.62135 12.3039 5.50195 12.5701 5.50195 13C5.50195 13.4478 5.64684 13.7432 5.82781 13.9242C6.00878 14.1051 6.3042 14.25 6.75195 14.25C7.1997 14.25 7.49512 14.1051 7.6761 13.9242C7.85707 13.7432 8.00195 13.4477 8.00195 13V8.77379C7.24554 7.52483 6.52859 6.85391 5.9059 6.48589C5.25682 6.10226 4.63006 6 4.00173 6C3.85535 6 3.78687 6.02161 3.76324 6.03174C3.75547 6.046 3.74208 6.07732 3.72925 6.13684Z" fill="#000000" class="bmwfcol"/><path d="M15.998 15H17.998C19.7253 15 21.2424 15.5801 22.3302 16.6679C22.8063 17.144 23.1852 17.7024 23.4607 18.3247C24.3677 17.4562 25.6068 17 26.998 17H28.998V19C28.998 20.4272 28.5179 21.6943 27.6052 22.6071C26.6924 23.5199 25.4253 24 23.998 24V26H23.9969V26.6187L23.5422 26.9145C21.4555 28.2721 18.8846 29 15.9969 29C12.1696 29 8.90255 27.7199 6.58977 25.4071C4.7987 23.616 3.62695 21.2527 3.18945 18.5H5.21828C5.63185 20.7382 6.60798 22.5969 8.00398 23.9929C9.8912 25.8801 12.6241 27 15.9969 27C18.3271 27 20.3502 26.4647 21.9969 25.5165V24H21.998V23C20.2708 23 18.7537 22.4199 17.6659 21.3321C16.5782 20.2443 15.998 18.7272 15.998 17V15ZM26.1909 21.1929C26.6782 20.7057 26.998 19.9728 26.998 19C26.0253 19 25.2924 19.3199 24.8052 19.8071C24.3179 20.2943 23.998 21.0272 23.998 22C24.9708 22 25.7037 21.6801 26.1909 21.1929ZM20.9159 18.0821C20.2537 17.4199 19.2708 17 17.998 17C17.998 18.2728 18.4179 19.2557 19.0802 19.9179C19.7424 20.5801 20.7253 21 21.998 21C21.998 19.7272 21.5782 18.7443 20.9159 18.0821Z" fill="#000000" class="bmwfcol"/><title>butterfly_and_plant_rg_48</title></svg>