<svg width="48" height="48" viewBox="0 0 32 32" xmlns="http://www.w3.org/2000/svg"><path d="M24.5 6C22.3871 6 21.157 6.04284 20.4055 6.13464C20.0281 6.18074 19.7122 6.24547 19.4434 6.35226C19.1386 6.47338 18.9397 6.63033 18.785 6.78503C18.6414 6.92865 18.4943 7.111 18.3738 7.3718C18.2617 7.61446 18.1905 7.88642 18.1403 8.19377C18.0425 8.79316 18 9.69491 18 11.125V18H19.9063L21.9142 15.9921H24.5C26.6129 15.9921 27.843 15.9493 28.5945 15.8575C28.9719 15.8114 29.2878 15.7467 29.5566 15.6399C29.8614 15.5188 30.0603 15.3618 30.215 15.2071C30.5551 14.867 30.75 14.465 30.8588 13.8202C30.9575 13.235 31 12.3646 31 11C31 9.57328 30.9579 8.69606 30.858 8.12108C30.8061 7.82265 30.7312 7.55788 30.6103 7.31946C30.4822 7.06682 30.3309 6.90097 30.215 6.78503C30.0603 6.63033 29.8614 6.47338 29.5566 6.35226C29.2878 6.24547 28.9719 6.18074 28.5945 6.13464C27.843 6.04284 26.6129 6 24.5 6ZM20.1892 8.20955C20.2359 8.19255 20.3633 8.15466 20.648 8.11988C21.2625 8.04482 22.3779 8 24.5 8C26.6221 8 27.7375 8.04482 28.352 8.11988C28.6366 8.15464 28.7621 8.19043 28.8089 8.20745C28.8688 8.26842 28.8738 8.38503 28.8875 8.46367C28.9544 8.84842 29 9.56672 29 11C29 12.3626 28.9548 13.0837 28.8867 13.4875C28.854 13.6812 28.8222 13.7594 28.8127 13.7798C28.7659 13.7968 28.6365 13.8375 28.352 13.8723C27.7375 13.9473 26.6221 13.9921 24.5 13.9921H21.0858L20 15.0779V11.125C20 9.69509 20.0452 8.93882 20.1142 8.51598C20.1475 8.31222 20.1794 8.23088 20.1892 8.20955Z" fill="#000000" class="bmwfcol"/><path d="M7.43086 9.20426C8.40944 8.26064 9.72072 8 11 8C12.2793 8 13.5906 8.26064 14.5691 9.20426C15.5525 10.1525 16 11.5957 16 13.5C16 15.4043 15.5525 16.8475 14.5691 17.7957C13.5906 18.7394 12.2793 19 11 19C9.72072 19 8.40944 18.7394 7.43086 17.7957C6.4475 16.8475 6 15.4043 6 13.5C6 11.5957 6.4475 10.1525 7.43086 9.20426ZM8.81914 10.644C8.38584 11.0618 8 11.8686 8 13.5C8 15.1314 8.38584 15.9382 8.81914 16.356C9.25723 16.7785 9.94594 17 11 17C12.0541 17 12.7428 16.7785 13.1809 16.356C13.6142 15.9382 14 15.1314 14 13.5C14 11.8686 13.6142 11.0618 13.1809 10.644C12.7428 10.2215 12.0541 10 11 10C9.94594 10 9.25723 10.2215 8.81914 10.644Z" fill="#000000" class="bmwfcol"/><path d="M3.30102 26H1.23047L1.43348 25.2423C2.02627 23.0195 2.63684 21.4391 4.28413 20.6588C5.0493 20.2963 5.9592 20.1456 7.01357 20.0727C8.06531 20 9.36874 20 10.964 20H11.0354C12.6307 20 13.9341 20 14.9859 20.0727C16.0403 20.1456 16.9501 20.2963 17.7153 20.6588C19.3627 21.4391 19.9731 23.019 20.5659 25.2419L20.769 26H18.6985L18.6335 25.7577C18.0264 23.4808 17.5867 22.8109 16.8592 22.4662C16.4368 22.2662 15.828 22.1357 14.848 22.0679C13.8731 22.0005 12.6382 22 10.9997 22C9.36126 22 8.1263 22.0005 7.15149 22.0679C6.17149 22.1357 5.56263 22.2662 5.14031 22.4662C4.41274 22.8109 3.97311 23.4808 3.36595 25.7577L3.30102 26Z" fill="#000000" class="bmwfcol"/><title>buying-tool_rg_48</title></svg>