<svg width="48" height="48" viewBox="0 0 32 32" xmlns="http://www.w3.org/2000/svg"><path d="M7 14C7.19038 14 7.37869 14.0089 7.56454 14.0262L8.44476 10.7412C8.71458 9.73419 8.9636 8.9226 9.24166 8.28681C9.52152 7.6469 9.86407 7.10533 10.3649 6.71288C10.8761 6.31233 11.4506 6.14625 12.0398 6.07064C12.5908 5.99992 13.2402 5.99996 13.9465 6H13.9988V8C13.2254 8 12.7037 8.00183 12.2943 8.05437C11.9095 8.10376 11.7254 8.18768 11.5985 8.28712C11.4612 8.39467 11.2862 8.6031 11.0741 9.0882C10.9656 9.33631 10.8562 9.63566 10.74 10H20.3811L22.9071 14.3751C23.5587 14.1326 24.2639 14 25 14C28.3137 14 31 16.6863 31 20C31 23.3137 28.3137 26 25 26C21.9701 26 19.4648 23.7542 19.0578 20.8364C17.8076 20.688 16.8521 20.3963 15.9599 19.7977C14.9629 19.1288 14.1051 18.1062 12.9667 16.7492L9.88844 13.0807L9.49674 14.5425C11.564 15.4899 13 17.5772 13 20C13 23.3137 10.3137 26 7 26C3.68629 26 1 23.3137 1 20C1 16.6863 3.68629 14 7 14ZM8.03442 20H5.96387L7.03562 16.0002L7 16C4.79086 16 3 17.7909 3 20C3 22.2091 4.79086 24 7 24C9.20914 24 11 22.2091 11 20C11 18.5062 10.1811 17.2036 8.96777 16.5167L8.03442 20ZM19.1145 18.8275C19.3877 17.4485 20.1334 16.2396 21.1758 15.3764L19.8772 13.1271L18.3854 18.6945C18.603 18.7466 18.8437 18.7906 19.1145 18.8275ZM16.5693 17.7447L18.1086 12H11.5925L14.4095 15.3572C15.376 16.509 15.9992 17.2433 16.5693 17.7447ZM22.1975 17.1459C21.4584 17.8717 21 18.8823 21 20C21 22.2091 22.7909 24 25 24C27.2091 24 29 22.2091 29 20C29 17.7909 27.2091 16 25 16C24.629 16 24.2699 16.0505 23.929 16.145L26.1547 20H23.8452L22.1975 17.1459Z" fill="#000000" class="bmwfcol"/><path d="M17 9H23V7H17V9Z" fill="#000000" class="bmwfcol"/><title>bycicle_rg_48</title></svg>