<svg width="48" height="48" viewBox="0 0 32 32" xmlns="http://www.w3.org/2000/svg"><path d="M13.7477 16H20C21.0186 16 21.5531 15.9989 22.0381 15.9503C22.5024 15.9038 22.9404 15.8111 23.7412 15.5966L23.9115 15.5509L29.9999 16.0836L30 17.9999C30 18.2408 30.0056 18.3213 30.0535 18.4411C30.1095 18.5812 30.2594 18.8452 30.7071 19.2929L31 19.5857L31.0003 22.5773L30.5002 22.866C29.6385 23.3635 29.0328 23.6793 28.4102 23.8424C27.9981 23.9503 27.6003 23.9844 27.1655 23.9952C26.6047 25.1802 25.3981 26 24 26C22.6038 26 21.3985 25.1825 20.8368 24H10.1632C9.60146 25.1825 8.39621 26 7 26C5.58795 26 4.3712 25.1638 3.81793 23.9596C3.7455 23.9495 3.66771 23.937 3.58273 23.9214C3.19989 23.8508 2.66139 23.7158 1.74122 23.4693L1 23.2706L1.00027 18.4226L1.54774 18.1065C2.75293 17.4106 3.4897 16.9852 4.76518 16.7017C5.93233 16.4423 7.57757 16.2954 10.599 16.0312L14.2115 13H17.3229L13.7477 16ZM3.55634 21.8712C3.85257 20.2383 5.28168 19 7 19C8.76323 19 10.2219 20.3038 10.4646 22H20.5354C20.7781 20.3038 22.2368 19 24 19C25.756 19 27.2099 20.2931 27.4615 21.979C27.6313 21.9656 27.7663 21.9435 27.9035 21.9076C28.164 21.8394 28.463 21.7112 29.0002 21.4164L29.0001 20.3994C28.6134 19.9704 28.3537 19.5768 28.1966 19.1839C27.9997 18.6916 27.9999 18.2808 28 18.0203V17.9163L24.0875 17.574C23.3476 17.7688 22.8208 17.8819 22.2374 17.9403C21.6415 18 21.0048 18 20.0526 18H11.0439C7.77285 18.286 6.23778 18.4232 5.19911 18.6541C4.38084 18.836 3.89751 19.0682 3.00021 19.5788L3.00009 21.7329C3.22406 21.7907 3.40571 21.8358 3.55634 21.8712ZM5.5 22.5C5.5 23.3284 6.17157 24 7 24C7.82843 24 8.5 23.3284 8.5 22.5C8.5 21.6716 7.82843 21 7 21C6.17157 21 5.5 21.6716 5.5 22.5ZM22.5 22.5C22.5 23.3284 23.1716 24 24 24C24.8284 24 25.5 23.3284 25.5 22.5C25.5 21.6716 24.8284 21 24 21C23.1716 21 22.5 21.6716 22.5 22.5Z" fill="#000000" class="bmwfcol"/><path d="M20.2 7H16V9H20.2C21.1728 9 21.9057 9.31989 22.3929 9.80711L24.6961 12.1102H21.1102L22.8602 13.8602H27.8749V8.87491L26.1249 7.12491V10.7106L23.8071 8.39289C22.8943 7.48011 21.6272 7 20.2 7Z" fill="#000000" class="bmwfcol"/><title>cabrio-roof-open_rg_48</title></svg>