<svg width="48" height="48" viewBox="0 0 32 32" xmlns="http://www.w3.org/2000/svg"><path d="M16.5142 1H15.4858L15.1929 1.29289C14.3948 2.09101 13.7389 2.90473 13.2759 3.67732C12.8264 4.42735 12.5 5.23583 12.5 6C12.5 6.70233 12.6873 7.38609 13.2112 8.0584C13.6202 8.58327 14.2112 9.07104 15 9.56611V11H7C5.71253 11 4.64694 11.508 3.94025 12.4832C3.26893 13.4096 3 14.6484 3 16C3 17.2061 3.34288 18.2979 4 19.1581V26C3.99997 26.8088 4.52668 27.3464 5.08778 27.6269C5.62581 27.8959 6.29948 28 7 28H24.9999C25.7004 28 26.3742 27.8959 26.9122 27.6269C27.4733 27.3464 28 26.8088 28 26V19.0763C28.6403 18.2238 29 17.1528 29 16C29 14.6484 28.7311 13.4096 28.0597 12.4832C27.3531 11.508 26.2875 11 25 11H17V9.56613C17.7888 9.07106 18.3798 8.58328 18.7888 8.0584C19.3127 7.38609 19.5 6.70233 19.5 6C19.5 5.23583 19.1736 4.42735 18.7242 3.67732C18.2612 2.90473 17.6053 2.09101 16.8071 1.29289L16.5142 1ZM24.9995 26H7C6.48071 26 6.1589 25.9204 6 25.8466L6 20.6445C6.6102 20.8795 7.285 21 8 21C9.70332 21 11.0914 20.26 11.969 19.1171C12.0979 19.2898 12.2393 19.4535 12.3929 19.6071C13.3057 20.5199 14.5728 21 16 21C17.7033 21 19.0914 20.26 19.969 19.1171C20.0979 19.2898 20.2393 19.4535 20.3929 19.6071C21.3057 20.5199 22.5728 21 24 21C24.7296 21 25.4014 20.8642 26 20.6192V25.8466C25.8411 25.9204 25.5188 26 24.9995 26ZM16 3.35302C16.4213 3.8319 16.7593 4.28942 17.0086 4.70537C17.3816 5.32778 17.5 5.76417 17.5 6C17.5 6.29767 17.4374 6.53891 17.2112 6.8291C17.0021 7.09753 16.6376 7.42559 16 7.83205C15.3624 7.42559 14.998 7.09753 14.7888 6.8291C14.5627 6.53891 14.5 6.29767 14.5 6C14.5 5.76417 14.6184 5.32778 14.9914 4.70537C15.2407 4.28942 15.5787 3.8319 16 3.35302ZM19 16C19 17.6887 17.8164 19 16 19C15.0272 19 14.2943 18.6801 13.8071 18.1929C13.3199 17.7057 13 16.9728 13 16H11C11 17.6887 9.81639 19 8 19C7.02725 19 6.29433 18.6801 5.80711 18.1929C5.31989 17.7057 5 16.9728 5 16C5 14.8716 5.23107 14.1104 5.55975 13.6568C5.85306 13.252 6.28747 13 7 13H25C25.7125 13 26.1469 13.252 26.4403 13.6568C26.7689 14.1104 27 14.8716 27 16C27 17.6887 25.8164 19 24 19C23.0272 19 22.2943 18.6801 21.8071 18.1929C21.3199 17.7057 21 16.9728 21 16H19Z" fill="#000000" class="bmwfcol"/><title>cake_rg_48</title></svg>