<svg width="48" height="48" viewBox="0 0 32 32" xmlns="http://www.w3.org/2000/svg"><path d="M16 13.5C15.1716 13.5 14.5 14.1716 14.5 15C14.5 15.8284 15.1716 16.5 16 16.5C16.8284 16.5 17.5 15.8284 17.5 15C17.5 14.1716 16.8284 13.5 16 13.5Z" fill="#000000" class="bmwfcol"/><path d="M16 18.5C15.1716 18.5 14.5 19.1716 14.5 20C14.5 20.8284 15.1716 21.5 16 21.5C16.8284 21.5 17.5 20.8284 17.5 20C17.5 19.1716 16.8284 18.5 16 18.5Z" fill="#000000" class="bmwfcol"/><path d="M9.5 20C9.5 19.1716 10.1716 18.5 11 18.5C11.8284 18.5 12.5 19.1716 12.5 20C12.5 20.8284 11.8284 21.5 11 21.5C10.1716 21.5 9.5 20.8284 9.5 20Z" fill="#000000" class="bmwfcol"/><path d="M11 13.5C10.1716 13.5 9.5 14.1716 9.5 15C9.5 15.8284 10.1716 16.5 11 16.5C11.8284 16.5 12.5 15.8284 12.5 15C12.5 14.1716 11.8284 13.5 11 13.5Z" fill="#000000" class="bmwfcol"/><path d="M19.5 20C19.5 19.1716 20.1716 18.5 21 18.5C21.8284 18.5 22.5 19.1716 22.5 20C22.5 20.8284 21.8284 21.5 21 21.5C20.1716 21.5 19.5 20.8284 19.5 20Z" fill="#000000" class="bmwfcol"/><path d="M21 23.5C20.1716 23.5 19.5 24.1716 19.5 25C19.5 25.8284 20.1716 26.5 21 26.5C21.8284 26.5 22.5 25.8284 22.5 25C22.5 24.1716 21.8284 23.5 21 23.5Z" fill="#000000" class="bmwfcol"/><path d="M10.8341 23.75C10.1717 23.75 9.55078 24.2648 9.55078 25C9.55078 25.7352 10.1717 26.25 10.8341 26.25H16.1674C16.8299 26.25 17.4508 25.7352 17.4508 25C17.4508 24.2648 16.8299 23.75 16.1674 23.75H10.8341Z" fill="#000000" class="bmwfcol"/><path d="M19.5 15C19.5 14.1716 20.1716 13.5 21 13.5C21.8284 13.5 22.5 14.1716 22.5 15C22.5 15.8284 21.8284 16.5 21 16.5C20.1716 16.5 19.5 15.8284 19.5 15Z" fill="#000000" class="bmwfcol"/><path fill-rule="evenodd" clip-rule="evenodd" d="M6.56039 2.56039C6.95856 2.16222 7.48408 2 8 2H24C24.5159 2 25.0414 2.16222 25.4396 2.56039C25.8378 2.95856 26 3.48408 26 4V28C26 28.5159 25.8378 29.0414 25.4396 29.4396C25.0414 29.8378 24.5159 30 24 30H8C7.48408 30 6.95856 29.8378 6.56039 29.4396C6.16222 29.0414 6 28.5159 6 28V4C6 3.48408 6.16222 2.95856 6.56039 2.56039ZM8 11V28H24V11H8ZM8 9H24V4H8V9Z" fill="#000000" class="bmwfcol"/><title>calculator_rg_48</title></svg>