<svg width="48" height="48" viewBox="0 0 32 32" xmlns="http://www.w3.org/2000/svg"><path d="M12.5333 15.9999C12.5333 15.2819 13.1154 14.6999 13.8333 14.6999C14.5513 14.6999 15.1333 15.2819 15.1333 15.9999C15.1333 16.7178 14.5513 17.2999 13.8333 17.2999C13.1154 17.2999 12.5333 16.7178 12.5333 15.9999Z" fill="#000000" class="bmwfcol"/><path d="M16.8667 15.9999C16.8667 15.2819 17.4487 14.6999 18.1667 14.6999C18.8847 14.6999 19.4667 15.2819 19.4667 15.9999C19.4667 16.7178 18.8847 17.2999 18.1667 17.2999C17.4487 17.2999 16.8667 16.7178 16.8667 15.9999Z" fill="#000000" class="bmwfcol"/><path d="M21.2 15.9999C21.2 15.2819 21.782 14.6999 22.5 14.6999C23.2179 14.6999 23.8 15.2819 23.8 15.9999C23.8 16.7178 23.2179 17.2999 22.5 17.2999C21.782 17.2999 21.2 16.7178 21.2 15.9999Z" fill="#000000" class="bmwfcol"/><path d="M8.19995 19.9999C8.19995 19.2819 8.78198 18.6999 9.49995 18.6999C10.2179 18.6999 10.8 19.2819 10.8 19.9999C10.8 20.7178 10.2179 21.2999 9.49995 21.2999C8.78198 21.2999 8.19995 20.7178 8.19995 19.9999Z" fill="#000000" class="bmwfcol"/><path d="M12.5333 19.9999C12.5333 19.2819 13.1154 18.6999 13.8333 18.6999C14.5513 18.6999 15.1333 19.2819 15.1333 19.9999C15.1333 20.7178 14.5513 21.2999 13.8333 21.2999C13.1154 21.2999 12.5333 20.7178 12.5333 19.9999Z" fill="#000000" class="bmwfcol"/><path d="M16.8667 19.9999C16.8667 19.2819 17.4487 18.6999 18.1667 18.6999C18.8847 18.6999 19.4667 19.2819 19.4667 19.9999C19.4667 20.7178 18.8847 21.2999 18.1667 21.2999C17.4487 21.2999 16.8667 20.7178 16.8667 19.9999Z" fill="#000000" class="bmwfcol"/><path d="M21.2 19.9999C21.2 19.2819 21.782 18.6999 22.5 18.6999C23.2179 18.6999 23.8 19.2819 23.8 19.9999C23.8 20.7178 23.2179 21.2999 22.5 21.2999C21.782 21.2999 21.2 20.7178 21.2 19.9999Z" fill="#000000" class="bmwfcol"/><path d="M8.19995 23.9999C8.19995 23.2819 8.78198 22.6999 9.49995 22.6999C10.2179 22.6999 10.8 23.2819 10.8 23.9999C10.8 24.7178 10.2179 25.2999 9.49995 25.2999C8.78198 25.2999 8.19995 24.7178 8.19995 23.9999Z" fill="#000000" class="bmwfcol"/><path d="M12.5333 23.9999C12.5333 23.2819 13.1154 22.6999 13.8333 22.6999C14.5513 22.6999 15.1333 23.2819 15.1333 23.9999C15.1333 24.7178 14.5513 25.2999 13.8333 25.2999C13.1154 25.2999 12.5333 24.7178 12.5333 23.9999Z" fill="#000000" class="bmwfcol"/><path d="M16.8667 23.9999C16.8667 23.2819 17.4487 22.6999 18.1667 22.6999C18.8847 22.6999 19.4667 23.2819 19.4667 23.9999C19.4667 24.7178 18.8847 25.2999 18.1667 25.2999C17.4487 25.2999 16.8667 24.7178 16.8667 23.9999Z" fill="#000000" class="bmwfcol"/><path d="M11 5H21V3H23V5H25.8182C26.6892 5 27.5051 5.25925 28.109 5.8392C28.7178 6.42381 29 7.22785 29 8.09524V25.9048C29 26.7721 28.7178 27.5762 28.109 28.1608C27.5051 28.7408 26.6892 29 25.8182 29H6.18182C5.31084 29 4.4949 28.7408 3.89099 28.1608C3.28222 27.5762 3 26.7721 3 25.9048V8.09524C3 7.22785 3.28222 6.42381 3.89099 5.8392C4.4949 5.25925 5.31084 5 6.18182 5H9V3H11V5ZM5.27629 7.28175C5.13232 7.42 5 7.66358 5 8.09524V11H27V8.09524C27 7.66358 26.8677 7.42 26.7237 7.28175C26.5749 7.13884 26.2999 7 25.8182 7H6.18182C5.70007 7 5.4251 7.13884 5.27629 7.28175ZM5 25.9048C5 26.3364 5.13232 26.58 5.27629 26.7183C5.4251 26.8612 5.70007 27 6.18182 27H25.8182C26.2999 27 26.5749 26.8612 26.7237 26.7183C26.8677 26.58 27 26.3364 27 25.9048V13H5V25.9048Z" fill="#000000" class="bmwfcol"/><title>calendar_monthly_rg_48</title></svg>