<svg width="48" height="48" viewBox="0 0 32 32" xmlns="http://www.w3.org/2000/svg"><path d="M21.2586 24.2H19.2671V18.116L17.2406 18.7313V16.7436L21.2586 15.5064V24.2Z" fill="#000000" class="bmwfcol"/><path d="M10.6152 22.2123L10.8515 22.2543C11.5103 22.3711 12.2681 22.5056 13.107 22.5056C13.6801 22.5056 14.0264 22.4202 14.2267 22.2709C14.4079 22.1284 14.4773 21.9513 14.4773 21.6764C14.4773 21.5141 14.4438 21.3984 14.3841 21.3074C14.3235 21.2152 14.2238 21.1298 14.0594 21.05L14.0573 21.0489C13.9515 20.996 13.8126 20.9648 13.6376 20.9485C13.4629 20.9323 13.2684 20.9321 13.0539 20.9321H11.4216V19.0998H13.8009L13.9968 18.8305C14.1167 18.6688 14.2147 18.5232 14.2825 18.3887C14.3505 18.2541 14.3818 18.1427 14.3818 18.0478C14.3818 17.9436 14.3739 17.8762 14.3562 17.8232C14.3403 17.7755 14.313 17.7293 14.2562 17.6758C14.1957 17.6228 14.103 17.5761 13.9426 17.5435C13.7791 17.5104 13.5586 17.4945 13.2555 17.4945C12.5257 17.4945 11.4645 17.7018 10.9174 17.809L10.6789 17.8558V15.9722L10.8418 15.9415C11.3977 15.8366 12.5643 15.6197 13.2874 15.6197C14.3849 15.6197 15.1388 15.801 15.6727 16.2991C16.1326 16.7238 16.3521 17.3102 16.3521 17.9205C16.3521 18.4805 16.1324 18.8619 15.8644 19.2801C15.7643 19.4373 15.6498 19.6092 15.5585 19.7421C15.6819 19.8385 15.8048 19.9518 15.9328 20.1036C16.3091 20.5391 16.4688 21.0445 16.4688 21.6764C16.4688 22.3408 16.2555 23.0099 15.8197 23.4692L15.8187 23.4702C15.2265 24.0857 14.3798 24.3804 13.1388 24.3804C12.1222 24.3804 11.3539 24.2395 10.7788 24.133L10.6152 24.1027V22.2123Z" fill="#000000" class="bmwfcol"/><path d="M11 5H21V3H23V5H25.8182C26.6892 5 27.5051 5.25925 28.109 5.8392C28.7178 6.42381 29 7.22785 29 8.09524V25.9048C29 26.7721 28.7178 27.5762 28.109 28.1608C27.5051 28.7408 26.6892 29 25.8182 29H6.18182C5.31084 29 4.4949 28.7408 3.89099 28.1608C3.28222 27.5762 3 26.7721 3 25.9048V8.09524C3 7.22785 3.28222 6.42381 3.89099 5.8392C4.4949 5.25925 5.31084 5 6.18182 5H9V3H11V5ZM5.27629 7.28175C5.13232 7.42 5 7.66358 5 8.09524V11H27V8.09524C27 7.66358 26.8677 7.42 26.7237 7.28175C26.5749 7.13884 26.2999 7 25.8182 7H6.18182C5.70007 7 5.4251 7.13884 5.27629 7.28175ZM5 25.9048C5 26.3364 5.13232 26.58 5.27629 26.7183C5.4251 26.8612 5.70007 27 6.18182 27H25.8182C26.2999 27 26.5749 26.8612 26.7237 26.7183C26.8677 26.58 27 26.3364 27 25.9048V13H5V25.9048Z" fill="#000000" class="bmwfcol"/><title>calendar_rg_48</title></svg>