<svg width="48" height="48" viewBox="0 0 32 32" xmlns="http://www.w3.org/2000/svg"><path d="M15 8V2H17V8H15Z" fill="#000000" class="bmwfcol"/><path d="M20.9497 9.63613L25.1923 5.39349L26.6066 6.80771L22.3639 11.0503L20.9497 9.63613Z" fill="#000000" class="bmwfcol"/><path d="M5.39355 6.80771L9.6362 11.0503L11.0504 9.63613L6.80777 5.39349L5.39355 6.80771Z" fill="#000000" class="bmwfcol"/><path d="M12.3929 17.3929C13.3057 16.4801 14.5728 16 16 16C17.4272 16 18.6943 16.4801 19.6071 17.3929C20.5199 18.3057 21 19.5728 21 21C21 23.7296 18.9836 26 16 26C14.5728 26 13.3057 25.5199 12.3929 24.6071C11.4801 23.6943 11 22.4272 11 21C11 19.5728 11.4801 18.3057 12.3929 17.3929ZM13.8071 18.8071C13.3199 19.2943 13 20.0272 13 21C13 21.9728 13.3199 22.7057 13.8071 23.1929C14.2943 23.6801 15.0272 24 16 24C17.8164 24 19 22.6887 19 21C19 20.0272 18.6801 19.2943 18.1929 18.8071C17.7057 18.3199 16.9728 18 16 18C15.0272 18 14.2943 18.3199 13.8071 18.8071Z" fill="#000000" class="bmwfcol"/><path d="M21.0687 14C20.6025 13.2493 20.1108 12.6505 19.3237 12.3256C18.8737 12.1399 18.3878 12.0675 17.8725 12.0334C17.367 12 16.7552 12 16.0317 12C15.3082 12 14.6331 12 14.1276 12.0334C13.6123 12.0675 13.1263 12.1399 12.6764 12.3256C11.8893 12.6505 11.3976 13.2493 10.9314 14H7.5C6.89709 14 6.29081 14.1106 5.80708 14.4444C5.27104 14.8143 5.00001 15.3806 5 16V27C5.00001 27.6194 5.27105 28.1857 5.80709 28.5556C6.29082 28.8894 6.8971 29 7.50001 29H24.5001C25.103 29 25.7093 28.8894 26.193 28.5556C26.7291 28.1857 27.0001 27.6194 27.0001 27V16C27.0001 15.3806 26.7291 14.8143 26.193 14.4444C25.7093 14.1106 25.103 14 24.5001 14H21.0687ZM12.0774 16L12.3661 15.4999C12.9532 14.4828 13.1832 14.2801 13.4395 14.1744C13.5952 14.1101 13.8303 14.0575 14.2596 14.0291C14.6914 14.0005 15.2374 14 16.0001 14C16.7627 14 17.3087 14.0005 17.7405 14.0291C18.1698 14.0575 18.4049 14.1101 18.5606 14.1744C18.8169 14.2801 19.0469 14.4828 19.634 15.4999L19.9227 16H24.5001C24.7723 16 24.9255 16.0373 25.0001 16.0644V26.9356C24.9255 26.9627 24.7723 27 24.5001 27H7.50001C7.22779 27 7.07464 26.9627 7 26.9356V16.0644C7.07464 16.0373 7.22778 16 7.5 16H12.0774Z" fill="#000000" class="bmwfcol"/><title>camera-flashing_rg_48</title></svg>