<svg width="48" height="48" viewBox="0 0 32 32" xmlns="http://www.w3.org/2000/svg"><path d="M21.9038 17.373C21.6762 18.5386 21.1513 19.5606 20.3572 20.3548C19.2644 21.4476 17.7402 22.0305 16.0043 22.0305C13.9257 22.0305 12.5956 21.1952 11.3945 20.1017V22.3627L9.64453 20.6127V16.9551H13.3012L15.0512 18.7051H12.8404C13.8165 19.58 14.6442 20.0305 16.0043 20.0305C17.2857 20.0305 18.2757 19.6078 18.943 18.9406C19.3485 18.535 19.6638 18.0101 19.8486 17.373H21.9038Z" fill="#000000" class="bmwfcol"/><path d="M22.3657 11.3896L20.6157 9.63965V11.9032C19.4138 10.8083 18.0833 9.97168 16.003 9.97168C14.2672 9.97168 12.7429 10.5547 11.6502 11.6474C10.856 12.4416 10.3311 13.4636 10.1035 14.6292H12.1587C12.3436 13.9921 12.6588 13.4672 13.0644 13.0616C13.7316 12.3944 14.7217 11.9717 16.003 11.9717C17.3631 11.9717 18.1909 12.4222 19.1671 13.2972H16.959L18.709 15.0472H22.3657V11.3896Z" fill="#000000" class="bmwfcol"/><path d="M12.1486 4.29804C13.0851 4.00028 14.2903 4.0006 15.8322 4.00101H16.1777C17.7196 4.0006 18.9247 4.00029 19.8612 4.29804C20.9837 4.65492 21.6553 5.39562 22.2934 6.50103L22.5821 7.00103L26.0049 7.00104C27.1078 7.00104 28.0891 7.20668 28.8228 7.71295C29.6089 8.25532 30.0049 9.07162 30.0049 10.001V23.001C30.0049 23.9304 29.6089 24.7467 28.8228 25.2891C28.0891 25.7954 27.1078 26.001 26.0049 26.001H6.00487C4.90197 26.001 3.92069 25.7954 3.18695 25.2891C2.40091 24.7467 2.00488 23.9304 2.00488 23.001L2.00489 10.001C2.0049 9.07163 2.40094 8.25532 3.18698 7.71296C3.92072 7.20668 4.90199 7.00104 6.0049 7.00104H9.42778L9.71642 6.5011C10.3545 5.39569 11.0262 4.65493 12.1486 4.29804ZM12.7546 6.20402C12.3045 6.34713 11.9649 6.6064 11.4485 7.50097L10.5825 9.00104H6.0049C5.10782 9.00104 4.5891 9.17539 4.32283 9.35912C4.10887 9.50675 4.00489 9.69045 4.00489 10.001L4.00488 23.001C4.00488 23.3116 4.10885 23.4953 4.3228 23.6429C4.58907 23.8267 5.10778 24.001 6.00487 24.001H26.0049C26.902 24.001 27.4207 23.8267 27.687 23.6429C27.9009 23.4953 28.0049 23.3116 28.0049 23.001V10.001C28.0049 9.69044 27.9009 9.50674 27.687 9.35911C27.4207 9.17539 26.902 9.00104 26.0049 9.00104L21.4274 9.00103L20.5614 7.50103C20.045 6.60647 19.7053 6.34713 19.2552 6.20402C18.6538 6.0128 17.78 6.00103 16.0049 6.00103C14.2299 6.00103 13.356 6.0128 12.7546 6.20402Z" fill="#000000" class="bmwfcol"/><title>camera_change_rg_48</title></svg>