<svg width="48" height="48" viewBox="0 0 32 32" xmlns="http://www.w3.org/2000/svg"><path d="M29.4143 28L5.41426 4H2.58583L26.5858 28H29.4143Z" fill="#000000" class="bmwfcol"/><path d="M12.1438 4.29706C11.1953 4.59862 10.5688 5.17424 10.0123 6.01232L11.4643 7.46435C11.9692 6.59849 12.3057 6.34423 12.7498 6.20304C13.3512 6.01183 14.225 6.00006 16 6.00006C17.7751 6.00006 18.6489 6.01183 19.2504 6.20305C19.7005 6.34615 20.0401 6.60549 20.5565 7.50005L21.4225 9.00006L26 9.00006C26.8971 9.00006 27.4158 9.17442 27.6821 9.35814C27.8961 9.50577 28 9.68946 28 10.0001V23.0001C28 23.3106 27.8961 23.4943 27.6821 23.642C27.6743 23.6473 27.6663 23.6527 27.6581 23.6581L29.0826 25.0826C29.6928 24.5494 30 23.8186 30 23.0001V10.0001C30 9.07065 29.604 8.25434 28.8179 7.71198C28.0842 7.2057 27.1029 7.00006 26 7.00006L22.5772 7.00006L22.2885 6.50005C21.6504 5.39464 20.9788 4.65394 19.8563 4.29706C18.9198 3.99931 17.7147 3.99963 16.1728 4.00003H15.8273C14.2854 3.99962 13.0802 3.99931 12.1438 4.29706Z" fill="#000000" class="bmwfcol"/><path d="M5.99999 26H22L20 24H5.99999C5.1029 24 4.58418 23.8257 4.31792 23.642C4.10397 23.4943 4 23.3107 4 23.0001L4.00001 10.0001C4.00001 9.68948 4.10398 9.50578 4.31795 9.35815C4.47479 9.24993 4.71921 9.14496 5.07696 9.07696L3.51252 7.51252C3.39754 7.57302 3.28728 7.63941 3.1821 7.71198C2.39606 8.25435 2.00002 9.07065 2.00001 10.0001L2 23.0001C2 23.9295 2.39603 24.7458 3.18207 25.2881C3.9158 25.7944 4.89708 26 5.99999 26Z" fill="#000000" class="bmwfcol"/><path d="M22 16C22 16.61 21.9165 17.2004 21.7576 17.7576L20 16C20 14.7272 19.5801 13.7443 18.9179 13.0821C18.2557 12.4199 17.2728 12 16 12L14.2231 10.2231C14.7812 10.0755 15.3769 10 16 10C17.7272 10 19.2443 10.5801 20.3321 11.6679C21.4199 12.7557 22 14.2728 22 16Z" fill="#000000" class="bmwfcol"/><path d="M10.2231 14.2231L12 16C12 17.2728 12.4199 18.2557 13.0821 18.9179C13.7443 19.5801 14.7272 20 16 20L17.7631 21.7631C17.2154 21.9172 16.6255 22 16 22C14.2728 22 12.7557 21.4199 11.6679 20.3321C10.5801 19.2443 10 17.7272 10 16C10 15.3769 10.0755 14.7812 10.2231 14.2231Z" fill="#000000" class="bmwfcol"/><title>camera-crossed-out_rg_48</title></svg>