<svg width="48" height="48" viewBox="0 0 32 32" xmlns="http://www.w3.org/2000/svg"><path d="M13.0821 13.0821C12.4199 13.7444 12 14.7273 12 16C12 17.2728 12.4199 18.2557 13.0821 18.9179C13.7443 19.5802 14.7272 20 16 20C18.4164 20 20 18.241 20 16C20 14.7273 19.5801 13.7444 18.9179 13.0821C18.2557 12.4199 17.2727 12 16 12C14.7272 12 13.7443 12.4199 13.0821 13.0821ZM11.6679 11.6679C12.7557 10.5802 14.2727 10 16 10C17.7272 10 19.2443 10.5802 20.3321 11.6679C21.4199 12.7557 22 14.2728 22 16C22 19.2819 19.5836 22 16 22C14.2727 22 12.7557 21.4199 11.6679 20.3321C10.5801 19.2444 9.99999 17.7273 9.99999 16C9.99999 14.2728 10.5801 12.7557 11.6679 11.6679Z" fill="#000000" class="bmwfcol"/><path d="M16.0001 4.00006C17.6243 4.00006 18.8851 3.98828 19.8563 4.29706C20.9788 4.65394 21.6504 5.39464 22.2885 6.50005L22.5772 7.00006H26C27.1029 7.00006 28.0842 7.2057 28.8179 7.71198C29.604 8.25434 30 9.07065 30 10.0001V23.0001C30 23.9295 29.604 24.7458 28.8179 25.2881C28.0842 25.7944 27.1029 26 26 26H5.99999C4.89708 26 3.9158 25.7944 3.18207 25.2881C2.39603 24.7458 2 23.9295 2 23.0001L2.00001 10.0001C2.00002 9.07065 2.39606 8.25435 3.1821 7.71198C3.91583 7.20571 4.89711 7.00006 6.00002 7.00006H9.4229L9.71154 6.50012C10.3496 5.39472 11.0213 4.65395 12.1438 4.29706C13.1149 3.98826 14.3758 4.00006 16.0001 4.00006ZM12.7498 6.20304C12.2997 6.34615 11.9601 6.60543 11.4437 7.49999L10.5776 9.00006H6.00002C5.10294 9.00006 4.58422 9.17442 4.31795 9.35815C4.10398 9.50578 4.00001 9.68948 4.00001 10.0001L4 23.0001C4 23.3107 4.10397 23.4943 4.31792 23.642C4.58418 23.8257 5.1029 24 5.99999 24H26C26.8971 24 27.4158 23.8257 27.6821 23.642C27.8961 23.4943 28 23.3106 28 23.0001V10.0001C28 9.68946 27.8961 9.50577 27.6821 9.35814C27.4158 9.17442 26.8971 9.00006 26 9.00006H21.4225L20.5565 7.50005C20.0401 6.60549 19.7005 6.34615 19.2504 6.20305C18.6489 6.01183 17.7751 6.00006 16 6.00006C14.225 6.00006 13.3512 6.01183 12.7498 6.20304Z" fill="#000000" class="bmwfcol"/><title>camera_rg_48</title></svg>