<svg width="48" height="48" viewBox="0 0 32 32" xmlns="http://www.w3.org/2000/svg"><path d="M10.3332 22.0099V22.4965L11.8891 24.996H15.605L15.9999 24.6008L16.3948 24.996H20.1648L21.6666 22.493V22.0099H19.624L19.0324 22.996H17.2237L17 22.7722V22.0099H15V22.772L14.7761 22.996H13L12.3862 22.0099H10.3332Z" fill="#000000" class="bmwfcol"/><path d="M4.77971 14.9061C4.64949 14.8418 4.30923 14.7715 4.30923 14.7715C4.30923 14.7715 3.21438 14.6963 2 14.6963V12.6963C3.22628 12.6963 4.08754 12.697 4.74305 12.8165L3.95357 5.63222C4.46814 5.11765 4.98361 4.37095 5.65231 4.05361C5.74802 4.00818 5.87516 3.9553 6.04286 3.8978C6.37711 3.7832 6.88325 3.6466 7.64116 3.51479C9.15442 3.25161 11.716 3 16 3C20.284 3 22.8456 3.25161 24.3588 3.51479C25.1168 3.6466 25.6229 3.7832 25.9571 3.8978C26.2089 3.98412 26.3682 4.05937 26.4702 4.11654C27.0725 4.45428 27.5615 5.14731 28.0464 5.63222L27.257 12.8164C27.9125 12.697 28.7738 12.6963 29.9999 12.6963V14.6963C28.7855 14.6963 28.1378 14.7026 27.6904 14.7715C27.4926 14.8019 27.3502 14.8417 27.2202 14.906C27.8016 15.4874 28.4127 16.0344 28.9357 16.6722C29.4791 17.3351 30 18.1585 30 19.0796V29.0296H23.3333V27.9041C18.4494 28.2145 13.5506 28.2145 8.66667 27.9041V29.0296H2V19.0796C2 18.1585 2.52085 17.3351 3.06435 16.6722C3.58727 16.0344 4.19829 15.4875 4.77971 14.9061ZM6.58605 5.82816L6.04643 6.36778L6.82656 13.4669C8.38876 13.2576 11.6843 12.9004 16 12.9004C20.3157 12.9004 23.6112 13.2576 25.1734 13.4669L25.9536 6.36778L25.4139 5.82816C25.2503 5.76416 24.8333 5.62732 24.0162 5.48521C22.6544 5.24839 20.216 5 16 5C11.784 5 9.34558 5.24839 7.98384 5.48521C7.16669 5.62732 6.74967 5.76416 6.58605 5.82816ZM24.9549 15.4555C23.4836 15.2567 20.251 14.9004 16 14.9004C11.749 14.9004 8.51642 15.2567 7.04509 15.4555L7.04644 15.4678L5.69735 16.7974C5.28383 17.194 4.87402 17.6012 4.52038 18.0533C5.7812 18.3477 7.12439 18.5051 8.99998 18.6384V20.6434C6.97574 20.503 5.46459 20.3329 4 19.9853V27.0296H6.66667V25.758L7.73937 25.8362C13.2392 26.2371 18.7608 26.2371 24.2606 25.8362L25.3333 25.758V27.0296H28V19.9853C26.5354 20.3329 25.0242 20.503 23 20.6434V18.6384C24.8756 18.5051 26.2188 18.3477 27.4796 18.0533C27.126 17.6012 26.7162 17.194 26.3026 16.7974L24.9536 15.4678L24.9549 15.4555Z" fill="#000000" class="bmwfcol"/><path d="M19 16.8L19.1037 15.8054L19.5893 15.856L21.5 18.9132V20.7H10.5V18.9132L12.4107 15.856L12.8963 15.8054L13 16.8C12.8963 15.8054 12.8963 15.8054 12.8963 15.8054L12.8983 15.8052L12.9022 15.8048L12.9153 15.8035L12.9625 15.7989C13.0032 15.7951 13.062 15.7897 13.1376 15.7833C13.2886 15.7706 13.5066 15.7538 13.7801 15.7371C14.3267 15.7037 15.0974 15.6704 16 15.6704C16.9026 15.6704 17.6733 15.7037 18.2199 15.7371C18.4934 15.7538 18.7114 15.7706 18.8624 15.7833C18.938 15.7897 18.9968 15.7951 19.0375 15.7989L19.0847 15.8035L19.0978 15.8048L19.1017 15.8052L19.1037 15.8054C19.1037 15.8054 19.1037 15.8054 19 16.8ZM13.5826 17.7546L12.9917 18.7H19.0083L18.4174 17.7546C18.3232 17.7478 18.2163 17.7406 18.0979 17.7334C17.5838 17.7019 16.8545 17.6704 16 17.6704C15.1455 17.6704 14.4162 17.7019 13.9021 17.7334C13.7837 17.7406 13.6768 17.7478 13.5826 17.7546Z" fill="#000000" class="bmwfcol"/><title>car_front_frunk_rg_48</title></svg>