<svg width="48" height="48" viewBox="0 0 32 32" xmlns="http://www.w3.org/2000/svg"><path d="M6.22265 8.20114L6.22571 8.20032C6.41659 8.14853 6.51318 8.1554 6.54674 8.16111C6.56785 8.1647 6.57535 8.16809 6.59288 8.18383C6.62082 8.20891 6.67816 8.27412 6.75005 8.42288C6.82181 8.57141 6.89325 8.77204 6.96444 9.03769C7.03563 9.30334 7.07402 9.51255 7.08608 9.67671C7.09815 9.84108 7.0811 9.92587 7.06949 9.96136C7.06221 9.98361 7.05732 9.99065 7.04023 10.0048C7.01342 10.0271 6.93189 10.0819 6.7403 10.133L2.3032 11.322L1.90554 12.5037L2.2481 12.9303C3.34027 14.2903 5.01813 15.0308 6.96806 15.0308C9.34615 15.0308 11.2889 13.9257 12.2747 12.0308H25.9681C26.7953 12.0308 27.5624 11.7506 28.1252 11.1879C28.688 10.6251 28.9681 9.85801 28.9681 9.03076C28.9681 8.20352 28.688 7.43644 28.1252 6.87366C27.5624 6.31088 26.7953 6.03076 25.9681 6.03076L12.2747 6.03076C11.2889 4.13583 9.34615 3.03076 6.96806 3.03076C5.41785 3.03076 4.03532 3.49751 2.97838 4.38482C1.91934 5.2739 1.2484 6.5344 1.03895 8.00728L0.962891 8.54219L1.89398 9.36101L6.22265 8.20114ZM6.96806 5.03076C8.86789 5.03076 10.1594 5.95891 10.6895 7.38023L10.9321 8.03076L25.9681 8.03076C26.3408 8.03076 26.5737 8.15065 26.711 8.28787C26.8482 8.42509 26.9681 8.65801 26.9681 9.03076C26.9681 9.40351 26.8482 9.63644 26.711 9.77366C26.5737 9.91088 26.3408 10.0308 25.9681 10.0308L10.9321 10.0308L10.6895 10.6813C10.1594 12.1026 8.86789 13.0308 6.96806 13.0308C6.24004 13.0308 5.60595 12.8937 5.07162 12.6507L7.25724 12.0651C8.06249 11.8499 8.70839 11.3842 8.9704 10.5831C9.19478 9.89704 9.06488 9.14914 8.89628 8.51999C8.72769 7.89093 8.4661 7.17781 7.92899 6.6956C7.30154 6.13228 6.50905 6.05151 5.70356 6.26968L3.48429 6.86433C3.69191 6.49232 3.95581 6.17561 4.26432 5.9166C4.91416 5.37106 5.82319 5.03076 6.96806 5.03076Z" fill="#000000" class="bmwfcol"/><path d="M18.8866 16L19 16C20.8122 16 22.1754 16.2547 23.5269 16.7791C24.76 17.2575 25.9682 17.9574 27.4482 18.8147L27.5411 18.8685L29.9999 19.0837L30 21C30 21.2408 30.0056 21.3214 30.0535 21.4411C30.1095 21.5812 30.2594 21.8452 30.7071 22.2929L31 22.5858L31.0003 25.5773L30.5002 25.866C29.6385 26.3636 29.0328 26.6793 28.4102 26.8424C27.9981 26.9503 27.6002 26.9845 27.1655 26.9952C26.6047 28.1803 25.3981 29 24 29C22.6038 29 21.3986 28.1825 20.8368 27H10.1632C9.60144 28.1825 8.39619 29 7 29C5.58797 29 4.37123 28.1638 3.81795 26.9596C3.74551 26.9496 3.66771 26.937 3.58273 26.9214C3.19989 26.8509 2.66139 26.7159 1.74122 26.4693L1 26.2707L1.00027 21.4226L1.54774 21.1066C2.75292 20.4107 3.4897 19.9853 4.76518 19.7018C5.93254 19.4423 7.57816 19.2954 10.6006 19.0311C12.2706 17.6468 13.4632 16.8462 14.7097 16.4271C15.9815 15.9996 17.2361 15.9998 18.8866 16ZM27.9035 24.9076C28.164 24.8394 28.463 24.7113 29.0002 24.4165L29.0001 23.3995C28.6134 22.9705 28.3537 22.5768 28.1966 22.1839C27.9997 21.6917 27.9999 21.2808 28 21.0204L28 20.9163L26.9239 20.8222L26.5146 20.5853C24.966 19.6887 23.8868 19.064 22.8035 18.6436C21.7104 18.2196 20.5964 18 19 18C17.2068 18 16.2773 18.0102 15.347 18.3229C14.4221 18.6338 13.4192 19.2757 11.643 20.7661L11.4015 20.9688L11.0873 20.9962C7.78642 21.2848 6.24237 21.4223 5.19911 21.6541C4.38084 21.836 3.89751 22.0682 3.00021 22.5788L3.00009 24.733C3.22405 24.7907 3.40571 24.8358 3.55633 24.8712C3.85255 23.2383 5.28167 22 7 22C8.76324 22 10.222 23.3039 10.4646 25H20.5354C20.778 23.3039 22.2368 22 24 22C25.756 22 27.2099 23.2931 27.4615 24.9791C27.6313 24.9656 27.7663 24.9436 27.9035 24.9076ZM5.5 25.5C5.5 26.3284 6.17157 27 7 27C7.82843 27 8.5 26.3284 8.5 25.5C8.5 24.6716 7.82843 24 7 24C6.17157 24 5.5 24.6716 5.5 25.5ZM22.5 25.5C22.5 26.3284 23.1716 27 24 27C24.8284 27 25.5 26.3284 25.5 25.5C25.5 24.6716 24.8284 24 24 24C23.1716 24 22.5 24.6716 22.5 25.5Z" fill="#000000" class="bmwfcol"/><title>car_and_wrench_rg_48</title></svg>