<svg width="48" height="48" viewBox="0 0 32 32" xmlns="http://www.w3.org/2000/svg"><path d="M15.5674 5.27039L9.28875 8.89643L11.075 11.9757C11.3324 12.4194 11.7019 12.7875 12.1464 13.0433L16.6468 15.6328L22.7643 12.0969L22.7637 10.4948L17.7994 7.63124L17.1535 8.00595L15.5674 5.27039ZM12.6753 11.0474L11.8191 9.57147L14.8933 7.79604L15.7748 9.31643C15.9095 9.54877 16.1079 9.73773 16.3465 9.86102C16.7735 10.0817 17.2836 10.0692 17.6993 9.82806L17.802 9.76848L20.4516 11.2969L16.6448 13.4972L13.069 11.4398C12.9057 11.3458 12.7699 11.2105 12.6753 11.0474Z" fill="#000000" class="bmwfcol"/><path d="M7.39166 9.9913L1.19873 13.5621L2.95617 16.6451C3.21312 17.0958 3.58534 17.4701 4.03466 17.7296L8.54254 20.3325L14.5868 16.8097L14.5859 15.2108L9.65072 12.3425L8.8284 12.8169V12.4193L7.39166 9.9913ZM4.56338 15.7289L3.71762 14.2452L6.73106 12.5077L6.9784 12.9257V13.3437C6.9784 13.6238 7.05078 13.8991 7.1885 14.1429L7.28719 14.3176C7.41426 14.5426 7.60508 14.7249 7.8356 14.8416C8.22964 15.041 8.69769 15.0282 9.08022 14.8075L9.6473 14.4803L12.2822 16.0117L8.53822 18.1938L4.95974 16.1275C4.79461 16.0321 4.65781 15.8946 4.56338 15.7289Z" fill="#000000" class="bmwfcol"/><path d="M23.3129 12.5317L18.6787 15.2117L18.6795 16.8136L24.1449 19.9678L30.2618 16.4272L30.2623 14.8263L26.3309 12.5476L23.3129 12.5317ZM20.9909 16.0116L23.8047 14.3843L25.829 14.395L27.9529 15.626L24.1435 17.831L20.9909 16.0116Z" fill="#000000" class="bmwfcol"/><path d="M16.6444 16.3894L11.2892 19.4756L11.394 21.9673L16.028 24.6436L22.1046 21.1445L22.1067 19.5425L18.372 17.3786L16.6444 16.3894ZM13.1847 20.5184L16.6474 18.5229L17.4486 18.9817L19.7936 20.3404L16.0293 22.508L13.1997 20.8738L13.1847 20.5184Z" fill="#000000" class="bmwfcol"/><title>car_floor_mats_rg_48</title></svg>