<svg width="48" height="48" viewBox="0 0 32 32" xmlns="http://www.w3.org/2000/svg"><path d="M13 14.925H14V16.7094C12.9918 17.1722 11.9527 17.9104 10.6006 19.0311C7.57816 19.2954 5.93254 19.4423 4.76518 19.7018C3.4897 19.9853 2.75292 20.4107 1.54774 21.1066L1.00027 21.4226L1 26.2707L1.74122 26.4693C2.66139 26.7159 3.19989 26.8509 3.58273 26.9214C3.66773 26.9371 3.74554 26.9496 3.81799 26.9596C4.37127 28.1638 5.588 29 7.00004 29C8.39624 29 9.6015 28.1825 10.1632 27H20.8369C21.3986 28.1825 22.6038 29 24 29C25.3981 29 26.6048 28.1803 27.1655 26.9952C27.6003 26.9845 27.9981 26.9503 28.4102 26.8424C29.0328 26.6793 29.6385 26.3636 30.5002 25.866L31.0003 25.5773L31 22.5858L30.7071 22.2929C30.2594 21.8452 30.1095 21.5812 30.0535 21.4411C30.0056 21.3214 30 21.2408 30 21L29.9999 19.0837L27.5411 18.8685L27.4482 18.8147C25.9682 17.9574 24.76 17.2575 23.5269 16.7791C23.3518 16.7111 23.1764 16.6477 23 16.5888V14.925H24C26.1677 14.925 27.9249 13.1677 27.9249 11C27.9249 8.83228 26.1677 7.075 24 7.075C23.5535 7.075 23.1245 7.14953 22.7247 7.28683L21.4476 5.07495L15.5842 5.07495C15.6526 4.85744 15.7147 4.68616 15.7746 4.54925C15.8838 4.29942 15.9547 4.23878 15.9689 4.22769C15.9754 4.22244 16.0149 4.19035 16.1929 4.16751C16.3994 4.14101 16.6717 4.13931 17.1219 4.13931V2.28931L17.0792 2.28931C16.6866 2.28925 16.2953 2.2892 15.9574 2.33255C15.5846 2.3804 15.1873 2.48982 14.8273 2.77194C14.4768 3.04657 14.2515 3.41493 14.0796 3.80795C13.9094 4.19718 13.7615 4.68273 13.6066 5.26062C13.4648 5.78986 13.3023 6.41767 13.1345 7.07726C13.0898 7.07576 13.045 7.075 13 7.075C10.8322 7.075 9.07495 8.83228 9.07495 11C9.07495 13.1677 10.8322 14.925 13 14.925ZM12.0373 11.4996H13.9415C14.0358 11.1135 14.1464 10.6626 14.266 10.1779C14.3203 9.95776 14.3765 9.73087 14.4338 9.50007C14.8289 9.87785 15.075 10.4102 15.075 11C15.075 12.146 14.1459 13.075 13 13.075C11.854 13.075 10.925 12.146 10.925 11C10.925 9.96851 11.6776 9.11281 12.6637 8.95211C12.5972 9.21943 12.5323 9.48174 12.4699 9.73463C12.301 10.4192 12.1501 11.0365 12.0373 11.4996ZM16 16.1251V14.925H21V16.125C20.3871 16.0413 19.73 16 19 16L18.8866 16C17.79 15.9999 16.8682 15.9997 16 16.1251ZM20.6677 13.075H16.3322C16.7079 12.473 16.925 11.7619 16.925 11C16.925 9.52852 16.1152 8.24616 14.917 7.57421C14.9732 7.3533 15.0287 7.13604 15.0831 6.92495L15.5578 6.92495L17.7464 10.8368C18.0867 11.4451 18.7293 11.8219 19.4263 11.8219H20.1611C20.2573 12.2732 20.431 12.6958 20.6677 13.075ZM23.9979 13.075C22.8529 13.0739 21.925 12.1453 21.925 11C21.925 10.647 22.0131 10.3146 22.1686 10.0236L23.0209 11.5H25.1571L23.6842 8.94886C23.7872 8.93315 23.8926 8.925 24 8.925C25.1459 8.925 26.075 9.85401 26.075 11C26.075 12.146 25.1459 13.075 24 13.075L23.9979 13.075ZM18.4538 8.31233L17.6776 6.92495L18.9163 6.92495L18.4538 8.31233ZM19.8507 9.97193L20.6882 7.45954L21.165 8.28545C20.7179 8.75231 20.3849 9.32943 20.211 9.97193H19.8507ZM27.9035 24.9076C27.7663 24.9436 27.6313 24.9656 27.4615 24.9791C27.21 23.2932 25.756 22 24 22C22.2368 22 20.7781 23.3039 20.5355 25H10.4646C10.222 23.3039 8.76328 22 7.00004 22C5.28171 22 3.8526 23.2383 3.55638 24.8712C3.40574 24.8358 3.22407 24.7907 3.00009 24.733L3.00021 22.5788C3.89751 22.0682 4.38084 21.836 5.19911 21.6541C6.24237 21.4223 7.78642 21.2848 11.0873 20.9962L11.4015 20.9688L11.643 20.7661C13.4192 19.2757 14.4221 18.6338 15.347 18.3229C16.2773 18.0102 17.2068 18 19 18C20.5964 18 21.7104 18.2196 22.8035 18.6436C23.8868 19.064 24.966 19.6887 26.5146 20.5853L26.9239 20.8222L28 20.9163L28 21.0204C27.9999 21.2808 27.9997 21.6917 28.1966 22.1839C28.3537 22.5768 28.6134 22.9705 29.0001 23.3995L29.0002 24.4165C28.463 24.7113 28.164 24.8394 27.9035 24.9076ZM5.50004 25.5C5.50004 24.6716 6.17162 24 7.00004 24C7.82847 24 8.50004 24.6716 8.50004 25.5C8.50004 26.3284 7.82847 27 7.00004 27C6.17162 27 5.50004 26.3284 5.50004 25.5ZM22.5 25.5C22.5 24.6716 23.1716 24 24 24C24.8285 24 25.5 24.6716 25.5 25.5C25.5 26.3284 24.8285 27 24 27C23.1716 27 22.5 26.3284 22.5 25.5Z" fill="#000000" class="bmwfcol"/><path d="M19 4.22529H22.4285V2.37529H19V4.22529Z" fill="#000000" class="bmwfcol"/><title>car_side_roof_bike_rack_rg_48</title></svg>