<svg width="48" height="48" viewBox="0 0 32 32" xmlns="http://www.w3.org/2000/svg"><path d="M19 15L18.8866 15C17.2361 14.9998 15.9815 14.9996 14.7097 15.4271C13.4632 15.8461 12.2706 16.6468 10.6006 18.0311C7.57816 18.2954 5.93254 18.4423 4.76518 18.7017C3.4897 18.9852 2.75292 19.4106 1.54774 20.1065L1.00027 20.4226L1 25.2706L1.74122 25.4693C2.66139 25.7158 3.19989 25.8508 3.58273 25.9214C3.66771 25.937 3.74551 25.9495 3.81795 25.9596C4.37123 27.1638 5.58797 28 7 28C8.39619 28 9.60144 27.1824 10.1632 26H20.8368C21.3986 27.1824 22.6038 28 24 28C25.3981 28 26.6047 27.1802 27.1655 25.9952C27.6002 25.9844 27.9981 25.9503 28.4102 25.8424C29.0328 25.6793 29.6385 25.3635 30.5002 24.866L31.0003 24.5773L31 21.5857L30.7071 21.2929C30.2594 20.8452 30.1095 20.5812 30.0535 20.4411C30.0056 20.3213 30 20.2408 30 19.9999L29.9999 18.0836L27.5411 17.8685L27.4483 17.8147C25.9682 16.9574 24.76 16.2574 23.5269 15.779C22.1754 15.2547 20.8122 15 19 15ZM27.4615 23.979C27.2099 22.2931 25.756 21 24 21C22.2368 21 20.778 22.3038 20.5354 24H10.4646C10.222 22.3038 8.76324 21 7 21C5.28167 21 3.85255 22.2383 3.55633 23.8712C3.40571 23.8358 3.22405 23.7907 3.00009 23.7329L3.00021 21.5788C3.89751 21.0682 4.38084 20.836 5.19911 20.6541C6.24237 20.4222 7.78642 20.2848 11.0873 19.9962L11.4015 19.9687L11.643 19.766C13.4192 18.2757 14.4221 17.6338 15.347 17.3229C16.2773 17.0101 17.2068 17 19 17C20.5964 17 21.7104 17.2195 22.8035 17.6436C23.8868 18.0639 24.966 18.6887 26.5146 19.5852L26.9239 19.8221L28 19.9163L28 20.0203C27.9999 20.2808 27.9997 20.6916 28.1966 21.1839C28.3537 21.5768 28.6134 21.9704 29.0001 22.3994L29.0002 23.4164C28.463 23.7112 28.164 23.8394 27.9035 23.9076C27.7663 23.9435 27.6313 23.9656 27.4615 23.979ZM7 23C7.82843 23 8.5 23.6715 8.5 24.5C8.5 25.3284 7.82843 26 7 26C6.17157 26 5.5 25.3284 5.5 24.5C5.5 23.6715 6.17157 23 7 23ZM24 23C24.8284 23 25.5 23.6715 25.5 24.5C25.5 25.3284 24.8284 26 24 26C23.1716 26 22.5 25.3284 22.5 24.5C22.5 23.6715 23.1716 23 24 23Z" fill="#000000" class="bmwfcol"/><path d="M26.1324 5.86789C23.6446 3.38011 20.1276 2 16.0003 2C11.8731 2 8.35598 3.38011 5.8682 5.86789L7.28241 7.28211C9.34463 5.21989 12.3276 4 16.0003 4C19.6731 4 22.656 5.21989 24.7182 7.28211L26.1324 5.86789Z" fill="#000000" class="bmwfcol"/><path d="M23.2324 8.76789C21.4446 6.98011 18.9276 6 16.0003 6C13.0731 6 10.556 6.98011 8.7682 8.76789L10.1824 10.1821C11.5446 8.81989 13.5276 8 16.0003 8C18.4731 8 20.456 8.81989 21.8182 10.1821L23.2324 8.76789Z" fill="#000000" class="bmwfcol"/><path d="M20.3324 11.6679C19.2446 10.5801 17.7276 10 16.0003 10C14.2731 10 12.756 10.5801 11.6682 11.6679L13.0824 13.0821C13.7446 12.4199 14.7276 12 16.0003 12C17.2731 12 18.256 12.4199 18.9182 13.0821L20.3324 11.6679Z" fill="#000000" class="bmwfcol"/><title>car-wifi-hotspot_rg_48</title></svg>