<svg width="48" height="48" viewBox="0 0 32 32" xmlns="http://www.w3.org/2000/svg"><path d="M24.7258 1.6947L19.7979 4.52215L22.5805 14.8075L22.2772 18.5356L23.2625 21.574L29.3886 18.0371L24.7258 1.6947ZM22.1314 5.4891L23.5039 4.70159L27.0372 17.0852L24.4027 18.6063L24.3031 18.2991L24.6022 14.6219L22.1314 5.4891Z" fill="#000000" class="bmwfcol"/><path d="M14.3003 3.87875L14.3603 6.70014L15.7934 9.48582L18.744 7.86006L19.2389 8.6908L18.3797 9.20254C19.2389 8.6908 19.2388 8.69073 19.2389 8.6908L19.2433 8.69827L19.2545 8.71724L19.2958 8.78752C19.3312 8.848 19.3817 8.93491 19.4431 9.04239C19.5658 9.25702 19.7333 9.55545 19.9123 9.89045C20.2571 10.5358 20.6903 11.4007 20.893 12.0584C21.106 12.7493 21.1238 13.6174 21.1081 14.2247C21.0998 14.546 21.0807 14.8308 21.0637 15.0354C21.0552 15.1381 21.0471 15.2215 21.0411 15.2803C21.038 15.3097 21.0355 15.3331 21.0336 15.3496L21.0314 15.3694L21.0307 15.3753L21.0305 15.3773L21.0303 15.3783C21.0303 15.3784 21.0303 15.3785 20.0374 15.2596L21.0303 15.3783L20.9695 15.886L15.1646 19.1069L14.0051 18.0718L14.0316 17.5916L14.0318 17.5881L14.0325 17.573L14.0354 17.5102C14.0378 17.4545 14.0408 17.3726 14.0435 17.2709C14.0489 17.0669 14.0525 16.7872 14.046 16.4828C14.0318 15.8171 13.9698 15.225 13.8676 14.9599C13.6877 14.4936 13.392 13.8325 13.1328 13.2715C13.0048 12.9946 12.8886 12.7482 12.8044 12.5711C12.7624 12.4826 12.7283 12.4116 12.705 12.3628L12.6782 12.3071L12.2561 11.4348L14.041 10.4514L12.3706 7.2044L12.3008 3.9213L14.3003 3.87875ZM14.9483 12.4326C15.2084 12.9956 15.5283 13.708 15.7336 14.2402C15.9656 14.8417 16.0256 15.7058 16.0429 16.3323L19.0873 14.6431C19.0963 14.5041 19.1044 14.3443 19.1088 14.1732C19.1238 13.589 19.0916 13.0037 18.9818 12.6476C18.8424 12.1956 18.4968 11.4853 18.1483 10.8328C18.0969 10.7366 18.0464 10.6435 17.9978 10.5547L14.8753 12.2752L14.9483 12.4326Z" fill="#000000" class="bmwfcol"/><path d="M8.20396 11.212L13.9552 22.2427L15.0025 26.2544L8.10227 30.2382L3.71582 13.8032L8.20396 11.212ZM6.04352 14.7687L9.36182 27.2016L12.6823 25.2846L12.0772 22.9668L7.3958 13.988L6.04352 14.7687Z" fill="#000000" class="bmwfcol"/><title>car_pedals_rg_48</title></svg>