<svg width="48" height="48" viewBox="0 0 32 32" xmlns="http://www.w3.org/2000/svg"><path d="M16.748 14.6667L16 15.1141L15.252 14.6667H11.5287L10.3333 15.8621V19.4427L11.8593 21.9668H15.6053L16 21.5714L16.3947 21.9668H20.1947L21.6653 19.4394V15.8621L20.4713 14.6667H16.748ZM13.0313 19.9668L12.3333 18.9207V16.6901L14.7 16.6667L15 16.8461V19.7428L14.776 19.9668H13.0313ZM19.002 19.9668H17.224L17 19.7428V16.8461L17.3 16.6667H19.6434L19.6667 18.9334L19.002 19.9668Z" fill="#000000" class="bmwfcol"/><path d="M30 9.66671C28.0227 9.66671 27.0667 9.67471 26.1907 10.1667C25.4633 8.84537 24.2987 7.07006 23.044 6.52006C21.6653 5.91473 20.546 5.80005 16 5.80005C11.454 5.80005 10.3333 5.9147 8.95601 6.51937C7.70135 7.07004 6.53735 8.84537 5.81002 10.1667C4.93468 9.67471 3.97733 9.66671 2 9.66671V11.6667C3.814 11.6667 4.396 11.6914 4.78467 11.8814C3.13933 13.4147 2 14.654 2 16.05V26H8.66667V24.896C9.92733 24.9867 12.2947 25.1074 16 25.1074C19.7053 25.1074 22.0727 24.9867 23.3333 24.896V26H30V16.05C30 14.654 28.8613 13.4141 27.2153 11.8814C27.604 11.6914 28.186 11.6667 30 11.6667V9.66671ZM9.75932 8.35071C10.7593 7.91071 11.6013 7.80005 16 7.80005C20.3987 7.80005 21.2374 7.91069 22.2407 8.35136C22.8227 8.60669 23.644 9.74536 24.3147 10.9154C22.6867 10.7587 20.16 10.7334 16 10.7334C11.84 10.7334 9.31334 10.7587 7.68534 10.9154C8.35601 9.74536 9.17732 8.60604 9.75932 8.35071ZM27.4767 15.0234C26.0025 15.3376 24.5054 15.5333 23 15.6087V17.6134C24.6821 17.5336 26.3546 17.3133 28 16.9547V24H25.3333V22.6767C19.1244 23.251 12.8756 23.251 6.66667 22.6767V24H4V16.9547C5.64539 17.3133 7.31788 17.5336 9 17.6134V15.6087C7.49455 15.5333 5.99754 15.3376 4.52332 15.0234C5.03274 14.4153 5.5853 13.8447 6.17668 13.316C6.77668 12.7594 10.3013 12.7314 15.998 12.7314C21.6947 12.7314 25.2167 12.7594 25.8193 13.316C26.4118 13.8449 26.9656 14.4155 27.4767 15.0234Z" fill="#000000" class="bmwfcol"/><title>car-front_rg_48</title></svg>