<svg width="48" height="48" viewBox="0 0 32 32" xmlns="http://www.w3.org/2000/svg"><path d="M22.7736 4.35943C22.3091 3.89488 21.7142 3.5332 20.9999 3.5332C20.2856 3.5332 19.6906 3.89488 19.2261 4.35943L17.3594 6.2261C16.8949 6.69065 16.5332 7.28556 16.5332 7.99987C16.5332 8.71418 16.8949 9.30909 17.3594 9.77364L19.2261 11.6403C19.6906 12.1049 20.2856 12.4665 20.9999 12.4665C21.7142 12.4665 22.3091 12.1049 22.7736 11.6403L24.6403 9.77364C25.1049 9.30909 25.4665 8.71418 25.4665 7.99987C25.4665 7.28556 25.1049 6.69065 24.6403 6.2261L22.7736 4.35943ZM20.6403 5.77364C20.7613 5.65268 20.8537 5.59099 20.9137 5.56096C20.9692 5.53322 20.9949 5.5332 20.9999 5.5332C21.0049 5.5332 21.0305 5.53322 21.086 5.56096C21.146 5.59099 21.2385 5.65268 21.3594 5.77364L23.2261 7.64031C23.3471 7.76127 23.4087 7.85369 23.4388 7.91375C23.4665 7.96924 23.4665 7.99486 23.4665 7.99987C23.4665 8.00488 23.4665 8.0305 23.4388 8.08599C23.4087 8.14605 23.3471 8.23847 23.2261 8.35943L21.3594 10.2261C21.2385 10.3471 21.146 10.4087 21.086 10.4388C21.0305 10.4665 21.0049 10.4665 20.9999 10.4665C20.9949 10.4665 20.9692 10.4665 20.9137 10.4388C20.8537 10.4087 20.7613 10.3471 20.6403 10.2261L18.7736 8.35943C18.6527 8.23847 18.591 8.14605 18.561 8.08599C18.5332 8.0305 18.5332 8.00488 18.5332 7.99987C18.5332 7.99486 18.5332 7.96924 18.561 7.91375C18.591 7.85369 18.6527 7.76127 18.7736 7.64031L20.6403 5.77364Z" fill="#000000" class="bmwfcol"/><path d="M25.0996 11.8999C25.7148 11.8999 26.2105 12.212 26.5759 12.5774L27.9221 13.9235C28.2875 14.2889 28.5996 14.7846 28.5996 15.3998C28.5996 16.015 28.2875 16.5107 27.9221 16.8761L26.5759 18.2222C26.2105 18.5876 25.7148 18.8997 25.0996 18.8997C24.4845 18.8997 23.9887 18.5876 23.6233 18.2222L22.2771 16.8761C21.9117 16.5107 21.5996 16.015 21.5996 15.3998C21.5996 14.7846 21.9117 14.2889 22.2771 13.9235L23.6233 12.5774C23.9887 12.212 24.4845 11.8999 25.0996 11.8999ZM25.0996 13.9345C25.0822 13.949 25.0615 13.9676 25.0375 13.9916L23.6913 15.3377C23.6674 15.3617 23.6487 15.3824 23.6342 15.3998C23.6487 15.4172 23.6674 15.4379 23.6913 15.4619L25.0375 16.808C25.0615 16.832 25.0822 16.8507 25.0996 16.8651C25.117 16.8507 25.1378 16.832 25.1617 16.808L26.5079 15.4619C26.5319 15.4379 26.5505 15.4172 26.565 15.3998C26.5505 15.3824 26.5319 15.3617 26.5079 15.3377L25.1617 13.9916C25.1378 13.9676 25.117 13.949 25.0996 13.9345Z" fill="#000000" class="bmwfcol"/><path d="M28.0682 19.7691C28.0971 19.899 28.1382 20.0379 28.1966 20.1839C28.3537 20.5768 28.6134 20.9705 29.0001 21.3995L29.0002 22.4165C28.463 22.7113 28.164 22.8394 27.9035 22.9076C27.7663 22.9436 27.6313 22.9656 27.4615 22.9791C27.2099 21.2931 25.756 20 24 20C22.2368 20 20.778 21.3039 20.5354 23H10.4646C10.222 21.3039 8.76324 20 7 20C5.28167 20 3.85255 21.2383 3.55633 22.8712C3.40571 22.8358 3.22405 22.7907 3.00009 22.733L3.00021 20.5788C3.89751 20.0682 4.38084 19.836 5.19911 19.6541C6.24237 19.4223 7.78642 19.2848 11.0873 18.9962L11.4015 18.9688L11.643 18.7661C13.4192 17.2757 14.4221 16.6338 15.347 16.3229C16.2773 16.0102 17.2068 16 19 16C19.2255 16 19.4413 16.0044 19.6489 16.0131C19.6173 15.8178 19.6 15.6133 19.6 15.3997C19.6 14.8872 19.6998 14.4269 19.8561 14.0206C19.5815 14.0069 19.2968 14 19 14L18.8866 14C17.2361 13.9998 15.9815 13.9996 14.7097 14.4271C13.4632 14.8462 12.2706 15.6468 10.6006 17.0311C7.57816 17.2954 5.93254 17.4423 4.76518 17.7018C3.4897 17.9853 2.75292 18.4107 1.54774 19.1066L1.00027 19.4226L1 24.2707L1.74122 24.4693C2.66139 24.7159 3.19989 24.8509 3.58273 24.9214C3.66771 24.937 3.74551 24.9496 3.81795 24.9596C4.37123 26.1638 5.58797 27 7 27C8.39619 27 9.60144 26.1825 10.1632 25H20.8368C21.3986 26.1825 22.6038 27 24 27C25.3981 27 26.6047 26.1803 27.1655 24.9952C27.6002 24.9845 27.9981 24.9503 28.4102 24.8424C29.0328 24.6793 29.6385 24.3636 30.5002 23.866L31.0003 23.5773L31 20.5858L30.7071 20.2929C30.2594 19.8452 30.1095 19.5812 30.0535 19.4411C30.0056 19.3214 30 19.2408 30 19L30 18.5H29.3423L28.1213 19.721C28.1039 19.7384 28.0863 19.7544 28.0682 19.7691ZM5.5 23.5C5.5 22.6716 6.17157 22 7 22C7.82843 22 8.5 22.6716 8.5 23.5C8.5 24.3284 7.82843 25 7 25C6.17157 25 5.5 24.3284 5.5 23.5ZM22.5 23.5C22.5 22.6716 23.1716 22 24 22C24.8284 22 25.5 22.6716 25.5 23.5C25.5 24.3284 24.8284 25 24 25C23.1716 25 22.5 24.3284 22.5 23.5Z" fill="#000000" class="bmwfcol"/><title>car_with_rhombuses_rg_48</title></svg>