<svg width="48" height="48" viewBox="0 0 32 32" xmlns="http://www.w3.org/2000/svg"><path d="M7.00031 4H25.0003V2H7.00031V4Z" fill="#000000" class="bmwfcol"/><path d="M2.49609 14L7.1149 6H9.4243L4.80549 14H2.49609Z" fill="#000000" class="bmwfcol"/><path d="M12.086 19.75H15.2363L16.0002 20.132L16.7642 19.75H19.9145L21.0002 20.8358V23.7811L19.646 26H16.336L16.0002 25.6642L15.6645 26H12.4033L11.0002 23.7907V20.8358L12.086 19.75ZM13.0002 21.75V23.2093L13.5024 24H14.836L15.0002 23.8358V21.8681L14.7642 21.75H13.0002ZM17.0002 21.8681V23.8358L17.1645 24H18.5236L19.0002 23.219L19.0002 21.75H17.2363L17.0002 21.8681Z" fill="#000000" class="bmwfcol"/><path d="M16.0003 12.0001C12.162 12.0001 11.2802 12.088 10.0475 12.6289C9.55731 12.8442 9.1402 13.2341 8.81178 13.6071C8.46916 13.9962 8.1498 14.4522 7.86984 14.8984C7.68645 15.1908 7.51435 15.488 7.35813 15.773C7.04595 15.6527 6.71631 15.5871 6.36439 15.5501C5.75765 15.4865 4.97033 15.5 4.00024 15.5V17.5C4.15372 17.5 4.3072 17.4996 4.46068 17.4995C5.04937 17.4986 5.64933 17.4744 6.23499 17.5484C5.76192 17.9938 5.30868 18.4452 4.94492 18.8889C4.4749 19.4622 4.00024 20.2012 4.00024 21.0429V30.0001H10.0002V28.8201C14.0549 29.0734 17.9456 29.0734 22.0002 28.8201V30.0001H28.0002V21.0429C28.0002 20.2012 27.5256 19.4622 27.0556 18.8889C26.8356 18.6206 25.8275 17.541 25.844 17.5393C26.3152 17.4898 26.9458 17.5001 27.9996 17.5001V15.5001C27.0295 15.5001 26.2421 15.4865 25.6353 15.5502C25.2836 15.5871 24.9541 15.6527 24.642 15.7729C24.4858 15.4882 24.3138 15.1912 24.1306 14.8992C23.8506 14.453 23.5313 13.9972 23.1888 13.6082C22.8604 13.2351 22.4426 12.8449 21.9533 12.6291C20.7215 12.0879 19.8383 12.0001 16.0003 12.0001ZM22.7841 16.5471C20.5287 16.4249 18.2582 16.4999 16.0009 16.4999C13.743 16.4999 11.472 16.425 9.21609 16.5471C9.32569 16.3529 9.44236 16.1553 9.56407 15.9613C9.87099 15.472 10.291 14.7066 10.8514 14.4603C11.6369 14.1156 12.0891 14.0001 16.0003 14.0001C19.9108 14.0001 20.3644 14.1156 21.1482 14.4599C21.709 14.7084 22.1286 15.4716 22.4365 15.9622C22.5581 16.156 22.6746 16.3533 22.7841 16.5471ZM7.83217 18.7934C8.26013 18.4996 9.03819 18.556 9.51988 18.5345C11.677 18.4386 13.8419 18.4999 16.0009 18.4999C18.1592 18.4999 20.3236 18.4385 22.4802 18.5345C22.9361 18.5548 23.7822 18.4882 24.176 18.8005C24.6936 19.2811 25.1324 19.7079 25.4625 20.1009C24.492 20.3024 23.4305 20.4204 22.0002 20.5222V22.5272C23.5957 22.4168 24.8278 22.2845 26.0002 22.0312V28.0001H24.0002V26.6745L22.9275 26.7527C18.2203 27.0959 13.7801 27.0959 9.07294 26.7527L8.00024 26.6745V28.0001H6.00024V22.0302C7.17272 22.2836 8.40477 22.4158 10.0002 22.5262V20.5213C8.57029 20.4195 7.50903 20.3015 6.53874 20.1001C6.87031 19.7054 7.31153 19.2766 7.83217 18.7934Z" fill="#000000" class="bmwfcol"/><path d="M27.1982 14H29.5076L24.8888 6H22.5794L27.1982 14Z" fill="#000000" class="bmwfcol"/><path d="M9.82227 11L11.162 6H13.2326L11.8928 11H9.82227Z" fill="#000000" class="bmwfcol"/><path d="M20.1089 11H22.1794L20.8397 6H18.7691L20.1089 11Z" fill="#000000" class="bmwfcol"/><path d="M15 6V10H17V6H15Z" fill="#000000" class="bmwfcol"/><title>car-wash_rg_48</title></svg>