<svg width="72" height="48" viewBox="0 0 48 32" xmlns="http://www.w3.org/2000/svg"><path d="M22.207 7.75272C24.1492 7.16177 25.8004 7.16386 28.3904 7.16712C33.2977 7.17331 38.1663 7.66232 43.0174 8.36303L42.3165 10.3235L44.4994 12.5979V16.0036C44.4994 16.2721 44.5005 16.4025 44.51 16.4979C44.5486 16.8835 45.2497 17.3398 45.4994 17.5894V19.1353C45.2519 20.0588 45.0201 21.0316 44.1508 21.5741C43.7547 21.8212 43.277 21.967 42.7543 22.0885C42.0377 22.2549 41.3098 22.3726 40.5857 22.5003H40.0326C39.2962 23.9818 37.7672 25 36.0005 25C34.2338 25 32.7048 23.9818 31.9684 22.5003H16.0326C15.2961 23.9818 13.7672 25 12.0005 25C10.2337 25 8.70464 23.9817 7.96828 22.5C7.07287 22.4979 6.46985 22.4873 5.93628 22.4328C4.93578 22.3307 3.96811 22.0277 3.00049 21.7662V16.3338C3.00049 15.9822 3.15136 15.7014 3.28076 15.5208C3.80369 14.7907 4.74698 14.3861 5.54599 14.0593C7.09603 13.4253 9.62629 12.713 13.6585 12.0441C17.8604 9.62026 20.183 8.36854 22.207 7.75272ZM40.5005 20.4845C41.2938 20.3444 41.866 20.2416 42.3017 20.1403C43.1585 19.9413 43.2635 19.7362 43.4994 18.8709V18.4166C43.2108 18.1238 42.9156 17.8222 42.7299 17.4508C42.5033 16.9975 42.4981 16.4984 42.4994 16.0036V13.4024L40.0166 10.8155L40.3103 9.99387C39.7562 9.92188 39.0347 9.83296 38.1946 9.7404C38.6942 10.4388 39.0855 11.1922 39.4853 11.9495C37.5395 12.9424 35.5346 13.4741 33.3652 13.782C31.3075 14.0739 28.9836 14.247 26.728 14.3748C23.0336 14.584 19.3315 14.7033 15.6311 14.737L14.3525 13.9528C11.6554 14.3944 8.84766 14.8697 6.30312 15.9104C5.85406 16.0941 5.38396 16.296 5.00049 16.5999L5.00049 20.2296C5.92001 20.4596 6.26843 20.4874 7.50049 20.4976C7.5018 18.0134 9.51601 16 12.0005 16C14.4858 16 16.5005 18.0147 16.5005 20.5L31.5005 20.5003C31.5005 18.015 33.5152 16 36.0005 16C38.4806 16 40.4921 18.0063 40.5005 20.4845ZM34.3478 9.38453L35.0999 11.4509C35.6808 11.3266 36.2048 11.1894 36.6632 11.0384C36.3964 10.6565 36.0395 10.1921 35.4804 9.47469C35.1112 9.44322 34.733 9.41296 34.3478 9.38453ZM27.6499 12.3161C29.544 12.1963 31.4158 12.0385 33.0843 11.8018L32.1706 9.25015C30.9492 9.19053 29.7162 9.16791 28.4936 9.16742L27.6499 12.3161ZM26.4199 9.17896C24.9683 9.20877 23.9515 9.31245 22.7892 9.66611C21.2992 10.1195 19.5592 10.9894 16.4914 12.7271C19.5113 12.6811 22.531 12.5892 25.5474 12.4354L26.4199 9.17896ZM12.0005 18C10.6198 18 9.50049 19.1193 9.50049 20.5C9.50049 21.8807 10.6198 23 12.0005 23C13.3812 23 14.5005 21.8807 14.5005 20.5C14.5005 19.1193 13.3812 18 12.0005 18ZM36.0005 18C34.6198 18 33.5005 19.1193 33.5005 20.5C33.5005 21.8807 34.6198 23 36.0005 23C37.3812 23 38.5005 21.8807 38.5005 20.5C38.5005 19.1193 37.3812 18 36.0005 18Z" fill="#000000" class="bmwfcol"/><title>car-model-mpv_rg_48</title></svg>