<svg width="48" height="48" viewBox="0 0 32 32" xmlns="http://www.w3.org/2000/svg"><path d="M5.04655 11C5.23779 8.98928 6.00877 7.35544 7.18211 6.18211C8.54433 4.81989 10.5272 4 13 4C15.4728 4 17.4557 4.81989 18.8179 6.18211C20.1801 7.54433 21 9.52725 21 12H23C23 9.07275 22.0199 6.55567 20.2321 4.76789C18.4443 2.98011 15.9272 2 13 2C10.0728 2 7.55567 2.98011 5.76789 4.76789C3.98011 6.55567 3 9.07275 3 12V13H6.45455V11H5.04655Z" fill="#000000" class="bmwfcol"/><path d="M10.3841 11.6444C10.3704 11.7613 10.3636 11.8801 10.3636 12C10.3636 12.7182 10.6074 13.3943 11.1065 13.8935C11.6057 14.3926 12.2819 14.6364 13 14.6364C14.5654 14.6364 15.6364 13.4242 15.6364 12C15.6364 11.2818 15.3926 10.6057 14.8935 10.1065C14.3943 9.60738 13.7182 9.36363 13 9.36363C12.3931 9.36363 11.8161 9.53774 11.3506 9.89299L7.83575 7.86368L6.83575 9.59573L10.3841 11.6444ZM12.3636 12C12.3636 11.7363 12.4472 11.5943 12.5208 11.5207C12.5943 11.4472 12.7364 11.3636 13 11.3636C13.2637 11.3636 13.4057 11.4472 13.4793 11.5207C13.5529 11.5943 13.6364 11.7363 13.6364 12C13.6364 12.3833 13.3982 12.6364 13 12.6364C12.7364 12.6364 12.5943 12.5528 12.5208 12.4793C12.4472 12.4057 12.3636 12.2637 12.3636 12Z" fill="#000000" class="bmwfcol"/><path d="M17.6985 14.3116C19.0003 13.9628 20.0368 13.8817 21.1186 13.9993C22.0969 14.1057 23.0982 14.3756 24.3017 14.6999L24.3418 14.7107L26.2534 14.3737L26.6623 15.8997C26.7075 16.0683 26.7193 16.0924 26.7519 16.136C26.7967 16.1958 26.9285 16.3384 27.3177 16.5631L27.6495 16.7547L28.3767 19.4677L27.999 19.8454C27.4845 20.3599 27.0996 20.7155 26.6649 20.9632C26.339 21.1489 26.0079 21.2594 25.6466 21.3609C25.4253 22.3228 24.6931 23.1337 23.6733 23.407C22.6539 23.6801 21.6148 23.3444 20.9422 22.6226L14.4475 24.3629C14.2258 25.3242 13.4938 26.1346 12.4744 26.4077C11.455 26.6808 10.416 26.3451 9.74333 25.6233C9.54276 25.6769 9.35796 25.7236 9.03949 25.749C8.74641 25.7724 8.33223 25.7789 7.63599 25.7789H6.92618L5.82996 21.6869L6.24205 21.2748C6.95892 20.5578 7.4178 20.0989 8.2926 19.6429C9.07571 19.2347 10.2133 18.8176 12.2596 18.073C13.1643 16.8018 13.8657 15.9985 14.6882 15.4524C15.5334 14.8913 16.4488 14.6462 17.6024 14.3374L17.6985 14.3116ZM25.4177 19.4976C25.5599 19.4507 25.6551 19.4093 25.749 19.3559C25.8872 19.2771 26.043 19.1588 26.3111 18.9071L26.0564 17.9569C25.7194 17.7313 25.4619 17.4999 25.2706 17.2442C25.0545 16.9553 24.96 16.681 24.9057 16.4898L24.2581 16.604L23.8918 16.5055C22.6173 16.1624 21.7493 15.9288 20.9187 15.8385C20.0917 15.7485 19.2863 15.8014 18.1773 16.0986C16.9009 16.4406 16.2788 16.617 15.7114 16.9937C15.1485 17.3674 14.5781 17.9853 13.6059 19.3737L13.4386 19.6126L13.1645 19.7123C10.8774 20.5446 9.82733 20.9292 9.14771 21.2834C8.65493 21.5403 8.37708 21.7689 7.89388 22.2419L8.34475 23.9249C8.60426 23.9211 8.77103 23.9146 8.89229 23.9049C8.93762 23.9013 8.97501 23.8975 9.00898 23.8929C8.93973 22.6192 9.76692 21.4275 11.048 21.0843C12.3331 20.7399 13.6495 21.3633 14.2235 22.5076L20.2085 20.904C20.1335 19.6259 20.9618 18.4279 22.2469 18.0836C23.5285 17.7402 24.8412 18.3592 25.4177 19.4976ZM11.5268 22.8712C11.0437 23.0007 10.757 23.4973 10.8865 23.9804C11.0159 24.4635 11.5125 24.7502 11.9956 24.6207C12.4787 24.4913 12.7654 23.9947 12.636 23.5116C12.5065 23.0285 12.01 22.7418 11.5268 22.8712ZM22.7257 19.8705C22.2426 20 21.9559 20.4966 22.0853 20.9797C22.2148 21.4628 22.7114 21.7495 23.1945 21.62C23.6776 21.4906 23.9643 20.994 23.8348 20.5109C23.7054 20.0278 23.2088 19.7411 22.7257 19.8705Z" fill="#000000" class="bmwfcol"/><path d="M28.8732 22.0397L7 27.9006V29.9712L29 24.0763V22.0397H28.8732Z" fill="#000000" class="bmwfcol"/><title>car_on_ramp_and_gauge_rg_48</title></svg>