<svg width="48" height="48" viewBox="0 0 32 32" xmlns="http://www.w3.org/2000/svg"><path d="M8.95549 6.51968C10.3591 5.90369 11.5251 5.80005 16 5.80005C20.4746 5.80005 21.6423 5.90363 23.0449 6.51985C23.5733 6.75283 24.038 7.1695 24.4174 7.58673C24.8095 8.01785 25.1775 8.52414 25.5024 9.02438C25.7499 9.40534 25.98 9.79457 26.1843 10.1627C26.5362 9.96439 26.9159 9.83761 27.3861 9.76523C28.0214 9.66743 28.853 9.66675 29.9999 9.66675V11.6667C28.7856 11.6667 28.1378 11.6731 27.6904 11.7419C27.49 11.7728 27.3464 11.8133 27.2149 11.8791C27.8478 12.4673 28.4594 13.0618 28.9357 13.6427C29.4791 14.3056 30 15.129 30 16.05V26H23.3333V23.8033C18.5938 23.8003 13.4062 23.8003 8.66667 23.8033V26H2V16.05C2 15.129 2.52085 14.3056 3.06435 13.6427C3.54054 13.0619 4.15217 12.4674 4.785 11.8792C4.65335 11.8133 4.50969 11.7728 4.30923 11.7419C3.86195 11.6731 3.21438 11.6667 2 11.6667V9.66675C3.14696 9.66675 3.97837 9.66743 4.61358 9.76523C5.0838 9.83763 5.46353 9.96443 5.81543 10.1627C6.01975 9.7943 6.24992 9.40475 6.49748 9.02351C6.82245 8.52309 7.19047 8.01661 7.58267 7.58549C7.96216 7.16833 8.42627 6.75201 8.95549 6.51968ZM6.56106 12.9616L6.49793 13.0197C5.77694 13.6822 5.15898 14.2657 4.70355 14.8H10V16.8H4V24H6.66667V21.8048L7.66592 21.804C12.9998 21.8 19.0002 21.8 24.3341 21.804L25.3333 21.8048V24H28V16.8H22V14.8H27.2965C26.841 14.2657 26.2227 13.6818 25.5017 13.0193L25.4389 12.9616C25.404 12.953 25.3666 12.9442 25.3265 12.9355C24.9514 12.8542 24.4142 12.7892 23.6325 12.742C22.0691 12.6476 19.6886 12.6321 16 12.6321C12.3114 12.6321 9.93094 12.6476 8.36754 12.742C7.58576 12.7892 7.04855 12.8542 6.67353 12.9355C6.6334 12.9442 6.59597 12.953 6.56106 12.9616ZM24.234 10.7789C24.1054 10.5585 23.9684 10.3343 23.8252 10.1139C23.5349 9.66688 23.2324 9.25629 22.9378 8.93235C22.6308 8.59476 22.3915 8.41765 22.2395 8.35052C21.2906 7.93372 20.5653 7.80005 16 7.80005C11.4338 7.80005 10.7103 7.93373 9.75931 8.35104C9.60819 8.41742 9.36918 8.59377 9.06209 8.93134C8.76762 9.25504 8.46522 9.6656 8.17485 10.1128C8.03151 10.3335 7.8943 10.5582 7.76557 10.779C7.91942 10.7668 8.07979 10.7557 8.24695 10.7456C9.88372 10.6468 12.3319 10.6321 16 10.6321C19.6681 10.6321 22.1163 10.6468 23.753 10.7456C23.92 10.7557 24.0803 10.7668 24.234 10.7789Z" fill="#000000" class="bmwfcol"/><title>car-rear_rg_48</title></svg>