<svg width="48" height="48" viewBox="0 0 32 32" xmlns="http://www.w3.org/2000/svg"><path d="M9.58579 7H2V5H10.4142L12.4142 7H31V9H11.5858L9.58579 7Z" fill="#000000" class="bmwfcol"/><path d="M23.2 9.82499L23.1058 9.82497C22.1382 9.82469 21.3366 9.82445 20.5222 10.0982C19.7364 10.3624 19.0006 10.8559 18.0313 11.6537C16.291 11.8059 15.3009 11.8955 14.5886 12.0538C13.7743 12.2348 13.2942 12.512 12.5782 12.9255L12.0751 13.2159L12.075 16.9118L12.7606 17.0955C13.3105 17.2428 13.6461 17.3274 13.8907 17.3724C14.1116 17.4131 14.2637 17.4223 14.4064 17.4244C14.8273 18.1426 15.6073 18.625 16.5 18.625C17.3924 18.625 18.1722 18.1429 18.5933 17.425H23.9067C24.3278 18.1429 25.1076 18.625 26 18.625C26.8935 18.625 27.6741 18.1418 28.0948 17.4224C28.3732 17.4159 28.6457 17.3939 28.9284 17.3198C29.3492 17.2096 29.747 16.9988 30.2626 16.7011L30.7252 16.434L30.725 13.9668L30.4541 13.6959C30.2024 13.4443 30.145 13.3219 30.1338 13.294L30.1326 13.2914C30.1291 13.2845 30.125 13.2764 30.125 13.1499L30.1249 11.7024L28.425 11.5536L28.4236 11.5528C27.5442 11.0433 26.798 10.611 26.0337 10.3144C25.1808 9.98351 24.3224 9.82499 23.2 9.82499ZM28.3381 15.5543C28.0555 14.5285 27.1157 13.775 26 13.775C24.8768 13.775 23.932 14.5386 23.6563 15.575H18.8437C18.5681 14.5386 17.6232 13.775 16.5 13.775C15.389 13.775 14.4525 14.5221 14.1655 15.5413C14.1024 15.5283 14.0247 15.5107 13.925 15.4864L13.9251 14.2874C14.3485 14.0525 14.5939 13.9477 14.9899 13.8597C15.5893 13.7265 16.4874 13.6457 18.4807 13.4715L18.7712 13.4461L18.9947 13.2586C20.0566 12.3675 20.6188 12.0175 21.1117 11.8518C21.6097 11.6844 22.11 11.675 23.2 11.675C24.1227 11.675 24.7506 11.801 25.3645 12.0392C25.9903 12.282 26.6172 12.6449 27.5609 13.1911L27.8541 13.3607L28.282 13.3982C28.2941 13.5571 28.327 13.7581 28.4161 13.981C28.5156 14.2296 28.6683 14.4683 28.875 14.7118L28.8751 15.355C28.6714 15.4604 28.5555 15.5051 28.4597 15.5302C28.421 15.5403 28.3826 15.5482 28.3381 15.5543ZM15.925 16.2C15.925 15.8824 16.1824 15.625 16.5 15.625C16.8176 15.625 17.075 15.8824 17.075 16.2C17.075 16.5175 16.8176 16.775 16.5 16.775C16.1824 16.775 15.925 16.5175 15.925 16.2ZM26 15.625C26.3176 15.625 26.575 15.8824 26.575 16.2C26.575 16.5175 26.3176 16.775 26 16.775C25.6824 16.775 25.425 16.5175 25.425 16.2C25.425 15.8824 25.6824 15.625 26 15.625Z" fill="#000000" class="bmwfcol"/><path d="M11 12V19H31V21H29.2361C29.4944 21.2886 29.6976 21.6274 29.8293 22H31V24H29.8293C29.4174 25.1652 28.3062 26 27 26C25.6938 26 24.5826 25.1652 24.1707 24H22.8293C22.4174 25.1652 21.3062 26 20 26C18.6938 26 17.5826 25.1652 17.1707 24H8.82929C8.41745 25.1652 7.30621 26 6 26C4.69379 26 3.58255 25.1652 3.17071 24H1V20C1 19.2094 1.00137 18.7289 1.28792 17.7254C1.54887 16.8115 2.06214 15.4013 3.04462 12.702L3.30008 12.0001L11 12ZM22.2361 21C22.4944 21.2886 22.6976 21.6274 22.8293 22H24.1707C24.3024 21.6274 24.5056 21.2886 24.7639 21H22.2361ZM9 21V14L8 14V17.6182C7.31718 17.9596 6.63541 18.2514 5.89969 18.4616C5.16772 18.6707 4.19782 18.8785 3.05053 18.9619C2.99998 19.2802 2.99999 19.5483 3 19.9794L3 22H3.1707C3.58253 20.8348 4.69378 20 6 20C7.30622 20 8.41747 20.8348 8.8293 22H17.1707C17.3024 21.6274 17.5056 21.2886 17.7639 21H9ZM6 14.0001L4.70056 14.0001C4.24208 15.2606 3.90746 16.1851 3.6624 16.8889C4.32407 16.7999 4.89398 16.6689 5.35031 16.5385C5.60415 16.466 5.822 16.394 6 16.3299V14.0001ZM6 22C5.44772 22 5 22.4477 5 23C5 23.5523 5.44772 24 6 24C6.55228 24 7 23.5523 7 23C7 22.4477 6.55228 22 6 22ZM20 22C19.4477 22 19 22.4477 19 23C19 23.5523 19.4477 24 20 24C20.5523 24 21 23.5523 21 23C21 22.4477 20.5523 22 20 22ZM26 23C26 23.5523 26.4477 24 27 24C27.5523 24 28 23.5523 28 23C28 22.4477 27.5523 22 27 22C26.4477 22 26 22.4477 26 23Z" fill="#000000" class="bmwfcol"/><title>car_transporter_rg_48</title></svg>