<svg width="48" height="48" viewBox="0 0 32 32" xmlns="http://www.w3.org/2000/svg"><path d="M10.0925 7.93285C12.8515 6.65946 15.854 6 18.8927 6H25C26.6569 6 28 7.34315 28 9V10C28 11.1046 27.1046 12 26 12H23V13.5888C23.1765 13.6477 23.3518 13.7111 23.5269 13.7791C24.76 14.2575 25.9682 14.9574 27.4483 15.8147L27.5411 15.8685L29.9999 16.0836L30 18C30 18.2408 30.0056 18.3214 30.0535 18.4411C30.1095 18.5812 30.2594 18.8452 30.7071 19.2929L31 19.5858L31.0003 22.5773L30.5002 22.866C29.6385 23.3636 29.0328 23.6793 28.4102 23.8424C27.9981 23.9503 27.6003 23.9845 27.1655 23.9952C26.6048 25.1803 25.3981 26 24 26C22.6038 26 21.3986 25.1825 20.8369 24H10.1632C9.6015 25.1825 8.39624 26 7.00004 26C5.588 26 4.37127 25.1638 3.81799 23.9596C3.74554 23.9496 3.66773 23.937 3.58273 23.9214C3.19989 23.8509 2.66139 23.7159 1.74122 23.4693L1 23.2707L1.00027 18.4226L1.54774 18.1066C2.75292 17.4107 3.4897 16.9853 4.76518 16.7018C5.93254 16.4423 7.57816 16.2954 10.6006 16.0311C11.9527 14.9103 12.9918 14.1722 14 13.7093V12H8.43866C7.64411 12 7 11.3559 7 10.5613C7 9.82909 7.42576 9.16366 8.09062 8.85681L10.0925 7.93285ZM18.8927 8C16.1434 8 13.4269 8.59665 10.9306 9.74877L10.3863 10H26V9C26 8.44772 25.5523 8 25 8H18.8927ZM16 12V13.1251C16.8682 12.9997 17.7901 12.9999 18.8866 13L19 13C19.73 13 20.3871 13.0413 21 13.125V12H16ZM27.4615 21.9791C27.6313 21.9656 27.7663 21.9436 27.9035 21.9076C28.164 21.8394 28.463 21.7113 29.0002 21.4165L29.0001 20.3995C28.6134 19.9705 28.3537 19.5768 28.1966 19.1839C27.9997 18.6917 27.9999 18.2808 28 18.0204L28 17.9163L26.9239 17.8222L26.5146 17.5853C24.966 16.6887 23.8868 16.064 22.8035 15.6436C21.7104 15.2196 20.5964 15 19 15C17.2068 15 16.2773 15.0102 15.347 15.3229C14.4221 15.6338 13.4192 16.2757 11.643 17.7661L11.4015 17.9688L11.0873 17.9962C7.78642 18.2848 6.24237 18.4223 5.19911 18.6541C4.38084 18.836 3.89751 19.0682 3.00021 19.5788L3.00009 21.733C3.22407 21.7907 3.40574 21.8358 3.55638 21.8712C3.8526 20.2383 5.28171 19 7.00004 19C8.76328 19 10.222 20.3039 10.4646 22H20.5355C20.7781 20.3039 22.2368 19 24 19C25.756 19 27.21 20.2932 27.4615 21.9791ZM7.00004 21C6.17162 21 5.50004 21.6716 5.50004 22.5C5.50004 23.3284 6.17162 24 7.00004 24C7.82847 24 8.50004 23.3284 8.50004 22.5C8.50004 21.6716 7.82847 21 7.00004 21ZM24 21C23.1716 21 22.5 21.6716 22.5 22.5C22.5 23.3284 23.1716 24 24 24C24.8285 24 25.5 23.3284 25.5 22.5C25.5 21.6716 24.8285 21 24 21Z" fill="#000000" class="bmwfcol"/><title>car_side_roof_box_rg_48</title></svg>