<svg width="72" height="48" viewBox="0 0 48 32" xmlns="http://www.w3.org/2000/svg"><path d="M24.5675 9.33334C22.4682 10.3766 20.4588 11.6464 18.563 13.0206C20.1649 12.9209 23.3828 12.728 26.8062 12.5658L26.5549 10.8334H28.5759L28.8141 12.4757C30.2622 12.4147 31.697 12.3634 33.0111 12.3314L32.8711 10.8334H34.8798L35.0167 12.2978C36.7818 12.2848 38.5491 12.3231 40.3099 12.4505C40.8427 12.489 41.3755 12.5343 41.9056 12.601L44.9993 12.6422L45 14.9998C45 15.4059 45.0133 15.4429 45.0388 15.5004C45.2291 15.9286 45.6713 16.2574 45.9996 16.5858L46.0001 20.5773C44.8475 21.2428 43.6885 21.9793 42.379 22.2861C41.56 22.478 40.7067 22.4979 39.5324 22.4998C38.7961 23.9817 37.267 25.0001 35.5 25.0001C33.7331 25.0001 32.2041 23.9818 31.4677 22.5H14.5323C13.7959 23.9818 12.2669 25.0001 10.5 25.0001C8.73292 25.0001 7.20374 23.9815 6.46749 22.4995C5.78622 22.4978 5.30049 22.4877 4.82415 22.4303C3.864 22.3147 2.93136 22.0174 2 21.7656V16.3167C2 15.9138 2.20281 15.6014 2.34518 15.4241C2.51066 15.2181 2.72881 15.0282 2.98311 14.8538C3.49347 14.5038 4.24422 14.1515 5.30086 13.8347C7.36998 13.2141 10.745 12.6903 16.1309 12.6675C17.8615 11.2975 19.5955 10.1635 20.9731 9.33334H24.5675ZM8 20.5001C8 21.8808 9.11929 23.0001 10.5 23.0001C11.8807 23.0001 13 21.8808 13 20.5001C13 19.1194 11.8807 18.0001 10.5 18.0001C9.11929 18.0001 8 19.1194 8 20.5001ZM33 20.5001C33 21.8808 34.1193 23.0001 35.5 23.0001C36.8807 23.0001 38 21.8808 38 20.5001C38 19.1194 36.8807 18.0001 35.5 18.0001C34.1193 18.0001 33 19.1194 33 20.5001ZM41.9227 20.3389C42.4756 20.2093 43.0244 19.9656 43.9999 19.4189L43.9997 17.4061C43.644 17.0276 43.3756 16.6828 43.2111 16.3124C42.9984 15.8337 42.9993 15.3923 42.9999 15.0547L42.9999 14.6157L41.757 14.5992C39.7237 14.3143 37.6356 14.2956 35.5881 14.2956C29.5417 14.2956 23.4833 14.7064 17.4508 15.0956L16.1007 14.6676C10.8441 14.6924 7.68934 15.2064 5.87538 15.7504C5.23972 15.941 4.52631 16.1623 4 16.5878V20.2298C4.87282 20.4509 5.15672 20.4838 6.00001 20.4958C6.0023 18.0125 8.01613 16.0001 10.5 16.0001C12.9853 16.0001 15 18.0148 15 20.5H31C31 18.0148 33.0147 16.0001 35.5 16.0001C37.9842 16.0001 39.9982 18.013 40 20.4968C40.892 20.4881 41.4231 20.4559 41.9227 20.3389Z" fill="#000000" class="bmwfcol"/><title>car-model-convertible_rg_48</title></svg>