<svg width="72" height="48" viewBox="0 0 48 32" xmlns="http://www.w3.org/2000/svg"><path d="M26.1254 8.85089C24.1804 8.85089 22.9052 8.81209 21.4321 9.35374C20.0555 9.85988 18.53 10.861 15.9397 12.6964C11.1061 12.722 7.788 13.3267 5.63905 13.9898C4.54258 14.3281 3.74048 14.6848 3.19336 14.9944C2.65706 15.2979 2 15.7168 2 16.4088V21.7656C2.93136 22.0173 3.864 22.3146 4.82415 22.4303C5.30049 22.4876 5.78622 22.4977 6.46751 22.4995C7.20376 23.9815 8.73294 25 10.5 25C12.2669 25 13.796 23.9817 14.5323 22.4999H31.4677C32.204 23.9817 33.7331 25 35.5 25C37.267 25 38.7961 23.9816 39.5324 22.4997C40.7066 22.4977 41.5598 22.4779 42.3787 22.286C43.6882 21.9792 44.8472 21.2426 45.9998 20.5772L45.9993 16.5856C45.6709 16.2572 45.2288 15.9284 45.0385 15.5003C45.013 15.4427 44.9997 15.4057 44.9997 14.9997L44.999 12.6423L41.2332 12.1875C35.7339 10.196 30.2732 8.85089 26.1254 8.85089ZM40 20.4967C39.9982 18.0129 37.9842 16 35.5 16C33.0148 16 31.0001 18.0146 31 20.4999H15C14.9999 18.0146 12.9852 16 10.5 16C8.01612 16 6.00228 18.0124 6.00001 20.4958C5.15672 20.4838 4.87282 20.4509 4 20.2297L4 16.8415C4.67933 16.4107 5.46521 16.1365 6.22874 15.9009C8.12405 15.3161 11.1701 14.7408 15.7164 14.6981L16.98 15.2425C20.7995 15.1323 24.6224 15.0896 28.4395 14.9098C31.3038 14.7749 34.1451 14.5484 36.9109 13.7647C36.9109 13.4597 36.9271 13.1507 36.9052 12.8462C38.1343 13.223 39.3902 13.6454 40.6579 14.1064L42.9995 14.4154L42.9996 15.0545C42.9989 15.3921 42.9981 15.8335 43.2108 16.3123C43.3753 16.6827 43.6437 17.0275 43.9994 17.406L43.9996 19.4187C43.0241 19.9654 42.4753 20.2092 41.9224 20.3387C41.4229 20.4558 40.8918 20.4879 40 20.4967ZM30.0815 11.2044C31.3336 11.4055 32.6634 11.6881 34.0466 12.0411C34.1462 12.1529 34.2377 12.2539 34.3213 12.3457C33.0181 12.5836 31.3996 12.7407 29.4817 12.8524L30.0815 11.2044ZM28.0478 10.9444L27.3154 12.9565C24.7881 13.0566 21.9117 13.1104 18.7219 13.1937C20.3224 12.1005 21.2865 11.5382 22.1222 11.2309C23.3956 10.7627 24.7917 10.8507 26.1254 10.8509C26.7321 10.8509 27.3745 10.8828 28.0478 10.9444ZM10.5 18C11.8807 18 13 19.1193 13 20.5C13 21.8807 11.8807 23 10.5 23C9.11929 23 8 21.8807 8 20.5C8 19.1193 9.11929 18 10.5 18ZM35.5 18C36.8807 18 38 19.1193 38 20.5C38 21.8807 36.8807 23 35.5 23C34.1193 23 33 21.8807 33 20.5C33 19.1193 34.1193 18 35.5 18Z" fill="#000000" class="bmwfcol"/><title>car-model-coupe_rg_48</title></svg>