<svg width="48" height="48" viewBox="0 0 32 32" xmlns="http://www.w3.org/2000/svg"><path d="M25.9571 17.9572C27.9198 15.9944 29 13.2273 29 10.0001C29 6.77283 27.9198 4.00575 25.9571 2.04297L24.5428 3.45718C26.0801 4.9944 27 7.22732 27 10.0001C27 12.7728 26.0801 15.0057 24.5428 16.543L25.9571 17.9572Z" fill="#000000" class="bmwfcol"/><path d="M22.3321 14.3322C23.4198 13.2444 24 11.7273 24 10.0001C24 8.27283 23.4198 6.75575 22.3321 5.66797L20.9178 7.08218C21.5801 7.7444 22 8.72732 22 10.0001C22 11.2728 21.5801 12.2557 20.9178 12.918L22.3321 14.3322Z" fill="#000000" class="bmwfcol"/><path d="M2 24.1484H4.44759C5.13429 25.8617 6.81037 27.0718 8.76907 27.0718C10.7286 27.0718 12.4052 25.8608 13.0914 24.1463C13.8344 24.1384 14.4535 24.1018 15.0978 23.9331C15.9407 23.7123 16.7771 23.2812 18.0386 22.5529L18.5386 22.2642L18.5382 18.3495L18.2454 18.0567C17.5669 17.3782 17.3016 16.9411 17.1879 16.6568C17.0823 16.3929 17.0767 16.197 17.0767 15.8407L17.0766 13.4628L13.802 13.1763L13.5903 13.0537C11.4139 11.7931 9.67802 10.7877 7.91058 10.1019C6.12968 9.41098 4.33219 9.04768 2 9V11.0004C4.10387 11.0471 5.65764 11.3731 7.18715 11.9665C8.80485 12.5942 10.4116 13.5244 12.6562 14.824L13.1848 15.13L15.0767 15.2955L15.0767 15.8639C15.0766 16.2371 15.0765 16.7634 15.3309 17.3996C15.5495 17.946 15.9293 18.5149 16.5383 19.168L16.5385 21.1058C15.5938 21.6355 15.0655 21.8741 14.5911 21.9983C14.2453 22.0889 13.9087 22.1249 13.4147 22.1392C13.2705 19.6987 11.2457 17.7641 8.76907 17.7641C6.2893 17.7641 4.26252 19.7036 4.12291 22.1484H2V24.1484ZM6.11523 22.418C6.11523 20.9523 7.3034 19.7641 8.76907 19.7641C10.2347 19.7641 11.4229 20.9523 11.4229 22.418C11.4229 23.8836 10.2347 25.0718 8.76907 25.0718C7.3034 25.0718 6.11523 23.8836 6.11523 22.418Z" fill="#000000" class="bmwfcol"/><path d="M21 21.5H28V19.5H21V21.5Z" fill="#000000" class="bmwfcol"/><path d="M20 24.9999H27V22.9999H20V24.9999Z" fill="#000000" class="bmwfcol"/><title>car_side_moving_noise_rg_48</title></svg>