<svg width="72" height="48" viewBox="0 0 48 32" xmlns="http://www.w3.org/2000/svg"><path d="M25.7602 8.85055C24.0164 8.84827 22.811 8.8467 21.4321 9.35371C20.0555 9.85985 18.53 10.861 15.9397 12.6964C11.1061 12.722 7.788 13.3267 5.63905 13.9898C4.54258 14.3281 3.74048 14.6847 3.19336 14.9944C2.65773 15.2975 2 15.7179 2 16.4088V21.7656C2.93136 22.0173 3.864 22.3146 4.82415 22.4302C5.30048 22.4876 5.78622 22.4977 6.46749 22.4995C7.20374 23.9815 8.73293 25 10.5 25C12.2669 25 13.796 23.9816 14.5323 22.4998H31.4677C32.204 23.9816 33.7331 25 35.5 25C37.267 25 38.7961 23.9816 39.5324 22.4996C40.7066 22.4977 41.5598 22.4778 42.3787 22.286C43.6882 21.9791 44.8472 21.2426 45.9998 20.5771L45.9993 16.5856C45.5406 16.1268 44.9997 15.7062 44.9997 14.9999V12.184L42.4362 12.1357C41.5671 11.8746 40.7402 11.5702 39.8813 11.254C35.267 9.55567 30.6836 8.85697 25.7602 8.85055ZM40 20.4966C39.9982 18.0129 37.9842 16 35.5 16C33.0148 16 31.0001 18.0146 31 20.4998H15C14.9999 18.0146 12.9852 16 10.5 16C8.01613 16 6.00229 18.0124 6.00001 20.4958C5.60411 20.4901 5.3296 20.4766 5.06327 20.4446C4.76231 20.4083 4.46306 20.347 4 20.2297L4 16.8415C4.67933 16.4107 5.46521 16.1365 6.22874 15.9009C8.14865 15.3085 11.2494 14.7258 15.8942 14.6967L17.2805 15.2415C21.4536 15.1317 25.6297 15.0892 29.8006 14.91C33.2767 14.7606 36.1743 14.5134 38.2502 13.9768L39 13.783V13.0658C40.0345 13.4458 41.0706 13.8192 42.1283 14.1303L42.9997 14.1467L42.9996 15.0545C42.9989 15.3921 42.9981 15.8335 43.2108 16.3123C43.3753 16.6826 43.6437 17.0275 43.9994 17.406L43.9996 19.4187C43.0241 19.9654 42.4753 20.2092 41.9224 20.3387C41.4229 20.4558 40.8918 20.4879 40 20.4966ZM34.1867 11.591C34.7226 11.7071 35.2246 11.8329 35.7015 11.9657C35.8473 12.118 35.9824 12.2529 36.1069 12.3727C35.6234 12.4494 35.1028 12.5174 34.5459 12.5778L34.1867 11.591ZM31.9145 11.1957L32.4834 12.7589C31.0865 12.8575 29.5127 12.9276 27.804 12.9831L28.3634 10.8953C29.6955 10.9504 30.8662 11.0548 31.9145 11.1957ZM25.7173 13.0431C23.5625 13.0986 21.22 13.1433 18.7059 13.2046C20.316 12.1043 21.2837 11.5392 22.1222 11.2308C23.4495 10.7429 24.9139 10.847 26.3047 10.8511L25.7173 13.0431ZM10.5 18C11.8807 18 13 19.1193 13 20.5C13 21.8807 11.8807 23 10.5 23C9.11929 23 8 21.8807 8 20.5C8 19.1193 9.11929 18 10.5 18ZM35.5 18C36.8807 18 38 19.1193 38 20.5C38 21.8807 36.8807 23 35.5 23C34.1193 23 33 21.8807 33 20.5C33 19.1193 34.1193 18 35.5 18Z" fill="#000000" class="bmwfcol"/><title>car-model-gran-coupe_rg_48</title></svg>