<svg width="48" height="48" viewBox="0 0 32 32" xmlns="http://www.w3.org/2000/svg"><path d="M18.5 2.00002L18.3954 2.00001C16.9865 1.9998 15.8649 1.99964 14.7515 2.34489C13.6553 2.68484 12.6374 3.33175 11.3015 4.43106C8.9288 4.63853 7.61029 4.75693 6.66876 4.96618C5.61823 5.19967 5.00544 5.55353 4.04595 6.10758L3.50023 6.42265L3.5 10.87L4.24122 11.0686C4.97603 11.2655 5.41454 11.3757 5.72996 11.4338C5.78223 11.4434 5.83136 11.4517 5.87788 11.4587C6.39046 12.3781 7.37261 13 8.5 13C9.61042 13 10.5799 12.3967 11.0987 11.5H19.9014C20.4201 12.3967 21.3896 13 22.5 13C23.6114 13 24.5816 12.3957 25.1 11.4977C25.5351 11.491 25.9157 11.4652 26.2917 11.3686C26.8363 11.2287 27.3293 10.9533 28 10.566L28.5001 10.2773L28.4998 7.38577L28.207 7.09291C27.8672 6.75314 27.7899 6.60226 27.7706 6.55461L27.7695 6.55185C27.7587 6.52552 27.75 6.50448 27.75 6.25422V4.56166L25.6081 4.3075C23.0671 2.84031 21.4624 2.00002 18.5 2.00002ZM25.4556 9.48283C25.2105 8.07244 23.9805 7.00002 22.5 7.00002C21.0135 7.00002 19.7795 8.08116 19.5415 9.50002H11.4585C11.2205 8.08116 9.9865 7.00002 8.5 7.00002C7.06677 7.00002 5.86829 8.00506 5.57087 9.34881C5.54801 9.34311 5.52442 9.33718 5.50008 9.33103L5.50017 7.57966C6.1476 7.21478 6.50693 7.05096 7.10269 6.91854C7.92092 6.73669 9.13875 6.62776 11.7873 6.39623L12.1014 6.36876L12.343 6.16607C13.7452 4.98952 14.5711 4.4948 15.3439 4.25515C16.138 4.0089 16.9583 4.00002 18.5 4.00002C20.9689 4.00002 22.1857 4.63776 24.785 6.14182L24.9633 6.24503L25.75 6.33837C25.7503 6.5738 25.7607 6.91992 25.917 7.30569C26.042 7.6143 26.2387 7.90158 26.4999 8.19723L26.5 9.11658C26.1438 9.31113 25.963 9.38809 25.7941 9.43146C25.6962 9.45661 25.5951 9.47266 25.4556 9.48283ZM8.5 9.00002C9.05228 9.00002 9.5 9.44773 9.5 10C9.5 10.5523 9.05228 11 8.5 11C7.94772 11 7.5 10.5523 7.5 10C7.5 9.44773 7.94772 9.00002 8.5 9.00002ZM22.5 9.00002C23.0523 9.00002 23.5 9.44773 23.5 10C23.5 10.5523 23.0523 11 22.5 11C21.9477 11 21.5 10.5523 21.5 10C21.5 9.44773 21.9477 9.00002 22.5 9.00002Z" fill="#000000" class="bmwfcol"/><path d="M6.99977 19.7322L9.73192 15H12.0413L11.0797 16.6656L12.3773 17.9632C13.1979 17.8918 13.8749 17.8376 14.4318 17.8177C15.0826 17.7946 15.6578 17.8134 16.1628 17.9453C17.1098 18.1926 17.625 18.7926 18.0684 19.5H19.1183L22.8503 18.5H27.0002L26.9998 21.6448L26.2587 21.8434C24.1741 22.402 23.2096 22.663 22.4299 22.9664C21.7427 23.2339 21.1955 23.5356 20.1082 24.1599L20.0091 24.5294L20.5185 24.6658C21.1347 23.6663 22.2396 23 23.5 23C25.433 23 27 24.567 27 26.5C27 28.433 25.433 30 23.5 30C21.5997 30 20.0531 28.4856 20.0013 26.5978L19.4911 26.4611L19.2125 27.4999L15.0858 27.5001L14.7929 27.2072C12.713 25.1274 11.3785 23.8729 10.443 23.1122L10.3342 23.5185C11.3337 24.1348 12 25.2396 12 26.5C12 28.433 10.433 30 8.5 30C6.567 30 5 28.433 5 26.5C5 24.5997 6.51442 23.0532 8.40219 23.0014L8.65738 22.049C8.47481 22.0106 8.281 22.0001 8 22.0001H7.00018L6.99977 19.7322ZM10.3714 18.7857L10.0444 18.4587L9.59781 19.2323L10.3714 18.7857ZM10.9155 20.961C11.9892 21.7093 13.4748 23.0702 15.9137 25.5001L17.6782 25.4999L18.3915 22.8401L18.8339 22.5856C20.0812 21.8677 20.7966 21.456 21.7045 21.1026C22.2214 20.9015 22.799 20.7199 23.5768 20.5H23.1136L19.3816 21.5L16.9228 21.5L16.6341 21C16.0851 20.0491 15.9318 19.952 15.6574 19.8804C15.4432 19.8244 15.106 19.795 14.5029 19.8165C13.9501 19.8362 13.2478 19.8944 12.3083 19.9768L10.7727 20.8634C10.8198 20.8949 10.8674 20.9274 10.9155 20.961ZM7.82355 25.1608C7.33495 25.4081 7 25.915 7 26.5C7 27.3284 7.67157 28 8.5 28C9.32843 28 10 27.3284 10 26.5C10 26.1968 9.91004 25.9146 9.75535 25.6787L9.66925 26H7.5987L7.82355 25.1608ZM23 27.4013L22.1608 27.1765C22.4081 27.6651 22.9149 28 23.5 28C24.3284 28 25 27.3284 25 26.5C25 25.6716 24.3284 25 23.5 25C23.1968 25 22.9146 25.09 22.6787 25.2447L23 25.3308V27.4013Z" fill="#000000" class="bmwfcol"/><title>car-and-motorcycle_rg_48</title></svg>