<svg width="72" height="48" viewBox="0 0 48 32" xmlns="http://www.w3.org/2000/svg"><path d="M28.0004 6.83236C25.875 6.83226 23.6649 6.75023 21.6255 7.44899C19.8504 8.05717 18.1551 9.23569 15.619 11.3487C10.2066 11.5911 6.94351 12.2558 4.99578 12.94C4.00112 13.2895 3.32131 13.6538 2.86837 13.9918C2.44032 14.3112 2 14.7621 2 15.3332V20.4141C2.65985 21.074 3.34511 21.6427 4.28307 21.8511C4.78618 21.9629 5.35317 21.9908 5.99094 21.9977C6.61822 23.8872 8.39996 25.25 10.5 25.25C12.5992 25.25 14.3804 23.8882 15.0083 21.9999H30.9917C31.6196 23.8882 33.4008 25.25 35.5 25.25C37.5995 25.25 39.3808 23.8879 40.0085 21.9993C41.1861 21.9945 42.0974 21.9587 42.8987 21.7023C44.1587 21.2992 45.0891 20.3254 46.0004 19.4141V14.5857C45.7784 14.3636 45.5806 14.0937 45.3338 13.8986V11.3612L44.548 11.1889C43.8022 11.0253 43.1 10.6244 42.4154 10.299C41.5448 9.88508 40.4746 9.37624 39.2015 8.88156C35.6328 7.49501 31.8277 6.83236 28.0004 6.83236ZM34.5203 9.53328C35.185 9.68315 35.8111 9.85049 36.4008 10.0286C36.5586 10.1626 36.7176 10.2956 36.8676 10.4383C36.3251 10.6771 35.6606 10.9443 34.9497 11.1356L34.5203 9.53328ZM32.3426 9.13328L32.9507 11.4029L28.0018 11.5834L28.7368 8.84057C30.0338 8.86964 31.2333 8.97455 32.3426 9.13328ZM25.9109 11.6597L18.0507 11.9465C19.8926 10.4836 21.1 9.74316 22.2737 9.34102C23.4766 8.92889 24.6952 8.85052 26.6675 8.83575L25.9109 11.6597ZM16.7633 13.9948L33.1916 13.3954C35.281 13.3897 37.3566 12.4242 38.2745 11.9972C38.7253 11.7875 39.0111 11.4999 39.1137 11.0012C40.538 11.5905 41.8924 12.3548 43.3338 12.9C43.3338 13.3746 43.3535 13.8044 43.3338 14.2784C43.3087 14.8339 43.5767 15.181 44.0004 15.4546V18.5812C43.2014 19.3539 42.7671 19.6446 42.2892 19.7975C41.8211 19.9473 41.2592 19.9866 40.2236 19.9966C39.9722 17.6099 37.9533 15.75 35.5 15.75C33.0456 15.75 31.0259 17.6116 30.776 19.9999H15.224C14.9741 17.6116 12.9544 15.75 10.5 15.75C8.04777 15.75 6.02956 17.6083 5.7767 19.9934C5.3122 19.9836 4.98895 19.9592 4.71693 19.8987C4.46416 19.8426 4.24963 19.7531 4 19.5565V15.6449C4.47426 15.2582 5.08927 15.027 5.6587 14.827C7.29211 14.2531 10.1837 13.6312 15.1403 13.3741L16.7633 13.9948ZM10.5 17.75C12.0188 17.75 13.25 18.9812 13.25 20.5C13.25 22.0188 12.0188 23.25 10.5 23.25C8.98122 23.25 7.75 22.0188 7.75 20.5C7.75 18.9812 8.98122 17.75 10.5 17.75ZM35.5 17.75C37.0188 17.75 38.25 18.9812 38.25 20.5C38.25 22.0188 37.0188 23.25 35.5 23.25C33.9812 23.25 32.75 22.0188 32.75 20.5C32.75 18.9812 33.9812 17.75 35.5 17.75Z" fill="#000000" class="bmwfcol"/><title>car-model-sac_rg_48</title></svg>