<svg width="48" height="48" viewBox="0 0 32 32" xmlns="http://www.w3.org/2000/svg"><path d="M18.8866 6.00001C17.2361 5.99979 15.9815 5.99962 14.7097 6.42714C13.4632 6.84618 12.2706 7.6468 10.6006 9.03115C7.57816 9.2954 5.93254 9.44232 4.76518 9.70177C3.4897 9.98525 2.75292 10.4107 1.54774 11.1066L1.00027 11.4226L1 16.2707L1.74122 16.4693C2.66139 16.7159 3.19989 16.8509 3.58273 16.9214C3.66773 16.9371 3.74554 16.9496 3.81799 16.9596C4.37127 18.1638 5.588 19 7.00004 19C8.39624 19 9.6015 18.1825 10.1632 17H20.8369C21.3986 18.1825 22.6038 19 24 19C25.3981 19 26.6048 18.1803 27.1655 16.9952C27.6003 16.9845 27.9981 16.9503 28.4102 16.8424C29.0328 16.6793 29.6385 16.3636 30.5002 15.866L31.0003 15.5773L31 12.5858L30.7071 12.2929C30.2594 11.8452 30.1095 11.5812 30.0535 11.4411C30.0056 11.3214 30 11.2408 30 11L29.9999 9.08365L27.5411 8.86853L27.4483 8.81475C25.9682 7.95739 24.76 7.25748 23.5269 6.77906C22.1754 6.25471 20.8122 6.00002 19 6.00002L18.8866 6.00001ZM27.9035 14.9076C27.7663 14.9436 27.6313 14.9656 27.4615 14.9791C27.21 13.2932 25.756 12 24 12C22.2368 12 20.7781 13.3039 20.5355 15H10.4646C10.222 13.3039 8.76328 12 7.00004 12C5.28171 12 3.8526 13.2383 3.55638 14.8712C3.40574 14.8358 3.22407 14.7907 3.00009 14.733L3.00021 12.5788C3.89751 12.0682 4.38084 11.836 5.19911 11.6541C6.24237 11.4223 7.78642 11.2848 11.0873 10.9962L11.4015 10.9688L11.643 10.7661C13.4192 9.27572 14.4221 8.6338 15.347 8.3229C16.2773 8.01015 17.2068 8.00002 19 8.00002C20.5964 8.00002 21.7104 8.21955 22.8035 8.64364C23.8868 9.06395 24.966 9.68872 26.5146 10.5853L26.9239 10.8222L28 10.9163L28 11.0204C27.9999 11.2808 27.9997 11.6917 28.1966 12.1839C28.3537 12.5768 28.6134 12.9705 29.0001 13.3995L29.0002 14.4165C28.463 14.7113 28.164 14.8394 27.9035 14.9076ZM5.50004 15.5C5.50004 14.6716 6.17162 14 7.00004 14C7.82847 14 8.50004 14.6716 8.50004 15.5C8.50004 16.3284 7.82847 17 7.00004 17C6.17162 17 5.50004 16.3284 5.50004 15.5ZM22.5 15.5C22.5 14.6716 23.1716 14 24 14C24.8285 14 25.5 14.6716 25.5 15.5C25.5 16.3284 24.8285 17 24 17C23.1716 17 22.5 16.3284 22.5 15.5Z" fill="#000000" class="bmwfcol"/><path d="M19.9263 19H17.8558L18.721 22.2289C17.9219 22.0399 16.976 21.9461 15.9449 21.9461C14.9011 21.9461 13.9445 22.0422 13.1392 22.236L14.0063 19H11.9358L10.596 24H10.6022C10.5371 24.1861 10.5005 24.3899 10.5005 24.6127C10.5005 25.7962 11.5337 26.4432 12.3716 26.7574C13.3029 27.1067 14.5455 27.2794 15.9449 27.2794C17.3443 27.2794 18.5869 27.1067 19.5183 26.7574C20.3562 26.4432 21.3894 25.7962 21.3894 24.6127C21.3894 24.3247 21.3282 24.0685 21.2235 23.8411L19.9263 19ZM12.5535 24.6127C12.6262 24.5501 12.7756 24.4526 13.0738 24.3407C13.6981 24.1067 14.6777 23.9461 15.9449 23.9461C17.2122 23.9461 18.1918 24.1067 18.816 24.3407C19.1142 24.4526 19.2636 24.5501 19.3364 24.6127C19.2636 24.6754 19.1142 24.7729 18.816 24.8847C18.1918 25.1188 17.2122 25.2794 15.9449 25.2794C14.6777 25.2794 13.6981 25.1188 13.0738 24.8847C12.7756 24.7729 12.6262 24.6754 12.5535 24.6127ZM19.4012 24.5393C19.4011 24.5393 19.4 24.5411 19.3986 24.5449C19.3999 24.5427 19.4009 24.5402 19.4012 24.5393C19.4015 24.5387 19.4013 24.5393 19.4012 24.5393ZM12.4886 24.5393C12.4885 24.5394 12.4892 24.5413 12.4913 24.5449C12.4903 24.5423 12.4891 24.5401 12.4886 24.5393C12.4887 24.5393 12.4884 24.5389 12.4886 24.5393Z" fill="#000000" class="bmwfcol"/><title>car_side_beam_rg_48</title></svg>