<svg width="72" height="48" viewBox="0 0 48 32" xmlns="http://www.w3.org/2000/svg"><path d="M25.4233 8.35095C23.6439 8.35095 22.2623 8.60638 20.7545 9.34814C19.3634 10.0325 17.893 11.1191 15.9086 12.6966C11.0919 12.7246 7.7834 13.3282 5.63905 13.9899C4.54258 14.3282 3.74048 14.6848 3.19336 14.9944C2.65773 15.2975 2 15.7179 2 16.4089V21.7657C2.93136 22.0174 3.864 22.3147 4.82415 22.4303C5.30049 22.4877 5.78622 22.4978 6.4675 22.4995C7.20375 23.9815 8.73293 25.0001 10.5 25.0001C12.2669 25.0001 13.796 23.9817 14.5323 22.4999H31.4677C32.204 23.9817 33.7331 25.0001 35.5 25.0001C37.267 25.0001 38.7961 23.9816 39.5324 22.4997C40.7066 22.4978 41.5598 22.4779 42.3787 22.286C43.6882 21.9792 44.8472 21.2427 45.9998 20.5772L45.9993 16.5857C45.6709 16.2573 45.2288 15.9285 45.0385 15.5003C44.9513 15.304 44.9997 15.0436 44.9997 14.8306L45.4997 14.0386V11.956C44.2661 11.7923 43.0547 11.4955 41.8966 11.0408C36.6444 8.9787 31.0427 8.35095 25.4233 8.35095ZM40 20.4967C39.9982 18.013 37.9842 16.0001 35.5 16.0001C33.0148 16.0001 31.0001 18.0147 31 20.4999H15C14.9999 18.0147 12.9852 16.0001 10.5 16.0001C8.01613 16.0001 6.00229 18.0125 6.00001 20.4958C5.15672 20.4838 4.87282 20.4509 4 20.2298L4 16.8416C4.67932 16.4108 5.46521 16.1365 6.22874 15.901C8.14865 15.3085 11.2494 14.7259 15.8942 14.6967L17.2805 15.2416C24.7697 15.0444 32.2443 14.7936 39.6666 13.7062C39.6666 13.2499 39.7184 12.7624 39.6004 12.3163C40.1538 12.5089 40.6084 12.6875 40.9977 12.8405C41.7829 13.1491 42.5814 13.4106 43.3997 13.6185L42.9997 14.2521L42.9996 15.0546C42.9989 15.3922 42.9981 15.8336 43.2108 16.3123C43.3753 16.6827 43.6437 17.0275 43.9994 17.406L43.9996 19.4188C43.0241 19.9655 42.4753 20.2092 41.9224 20.3388C41.4229 20.4558 40.8918 20.488 40 20.4967ZM18.5027 13.2081C19.7807 12.2331 20.7481 11.5802 21.6373 11.1427C22.8136 10.5641 23.8797 10.351 25.4233 10.351C25.7678 10.351 26.1056 10.3534 26.4368 10.3581L25.7398 12.9593C23.555 13.0563 21.1709 13.1348 18.5027 13.2081ZM27.8378 12.8568L28.4911 10.4188C29.6587 10.4722 30.7324 10.5547 31.7189 10.6583L32.4065 12.5477C30.9617 12.6692 29.4523 12.77 27.8378 12.8568ZM34.4651 12.3559L33.9526 10.948C34.862 11.0898 35.6781 11.2482 36.4095 11.4133C36.6556 11.6745 36.8558 11.8848 37.0203 12.0598C36.1795 12.1687 35.331 12.2669 34.4651 12.3559ZM10.5 18.0001C11.8807 18.0001 13 19.1193 13 20.5001C13 21.8808 11.8807 23.0001 10.5 23.0001C9.11929 23.0001 8 21.8808 8 20.5001C8 19.1193 9.11929 18.0001 10.5 18.0001ZM35.5 18.0001C36.8807 18.0001 38 19.1193 38 20.5001C38 21.8808 36.8807 23.0001 35.5 23.0001C34.1193 23.0001 33 21.8808 33 20.5001C33 19.1193 34.1193 18.0001 35.5 18.0001Z" fill="#000000" class="bmwfcol"/><title>car-model-gt_rg_48</title></svg>