<svg width="48" height="48" viewBox="0 0 32 32" xmlns="http://www.w3.org/2000/svg"><path d="M30 10.095C28.486 10.0962 27.6067 10.109 26.9763 10.206C26.4109 10.2931 26.0941 10.4402 25.7002 10.758C26.7308 11.7067 27.7306 12.6529 28.4801 13.567C29.2367 14.49 29.8916 15.5582 29.8916 16.7094V29.9999H24.5V28.369H27.8916V26.9999H26.1429C25.2355 26.9999 24.5 26.2644 24.5 25.3571C24.5 23.7791 23.2208 22.4999 21.6429 22.4999H16.3571C14.7792 22.4999 13.5 23.7791 13.5 25.3571C13.5 26.2644 12.7645 26.9999 11.8571 26.9999H2V24.9999H11.5129C11.6958 22.4842 13.7947 20.4999 16.3571 20.4999H21.6429C24.2053 20.4999 26.3042 22.4842 26.4871 24.9999H27.8916V17.3558H18.9904V15.3558H27.3284C27.2162 15.1935 27.0852 15.0202 26.9334 14.8351C26.2698 14.0256 25.346 13.1495 24.2829 12.1718C24.1335 12.0869 23.8889 11.9889 23.4788 11.8979C22.9332 11.7769 22.1688 11.6836 21.081 11.6164C18.9056 11.4821 15.6011 11.4603 10.5033 11.4603C6.81323 11.4603 4.06276 11.4717 2 11.529V9.52828C4.10224 9.47104 6.86558 9.46029 10.5033 9.46029C15.5801 9.46029 18.9539 9.48123 21.2044 9.62025C21.8524 9.66029 22.421 9.7108 22.9198 9.77597C22.6274 9.2376 22.2877 8.65364 21.9196 8.08705C21.5017 7.44374 21.0603 6.84313 20.6234 6.36271C20.1739 5.86841 19.7888 5.56834 19.4958 5.43915L19.481 5.43262L19.4664 5.42562C18.1916 4.81346 16.9676 4.62549 10.5034 4.62549C4.80483 4.62549 3.17993 4.77153 2 5.22577V3.12662C3.53503 2.71114 5.68869 2.62549 10.5034 2.62549C16.8117 2.62549 18.5541 2.77247 20.3185 3.61614C20.9816 3.91275 21.5854 4.44787 22.103 5.0171C22.6374 5.6047 23.1443 6.30099 23.5968 6.99754C24.0288 7.66257 24.4231 8.34633 24.756 8.96728C25.3161 8.57771 25.8944 8.34904 26.672 8.22933C27.477 8.10541 28.5262 8.09566 30 8.09492V10.095Z" fill="#000000" class="bmwfcol"/><path d="M14.125 25.4998C14.125 24.1882 15.1883 23.1248 16.5 23.1248C17.8117 23.1248 18.875 24.1882 18.875 25.4998C18.875 26.8115 17.8117 27.8748 16.5 27.8748C15.1883 27.8748 14.125 26.8115 14.125 25.4998ZM16.5 24.8748C16.1548 24.8748 15.875 25.1547 15.875 25.4998C15.875 25.845 16.1548 26.1248 16.5 26.1248C16.8452 26.1248 17.125 25.845 17.125 25.4998C17.125 25.1547 16.8452 24.8748 16.5 24.8748Z" fill="#000000" class="bmwfcol"/><path d="M19.125 25.4998C19.125 24.1882 20.1883 23.1248 21.5 23.1248C22.8117 23.1248 23.875 24.1882 23.875 25.4998C23.875 26.8115 22.8117 27.8748 21.5 27.8748C20.1883 27.8748 19.125 26.8115 19.125 25.4998ZM21.5 24.8748C21.1548 24.8748 20.875 25.1547 20.875 25.4998C20.875 25.845 21.1548 26.1248 21.5 26.1248C21.8452 26.1248 22.125 25.845 22.125 25.4998C22.125 25.1547 21.8452 24.8748 21.5 24.8748Z" fill="#000000" class="bmwfcol"/><title>car_rear_exhaust_rg_48</title></svg>