<svg width="72" height="48" viewBox="0 0 48 32" xmlns="http://www.w3.org/2000/svg"><path d="M21.1982 8.62066C22.934 7.99939 24.4872 7.9995 26.8806 7.99967C31.3773 7.99988 35.9029 8.37292 40.2586 9.54002L40.9998 9.73862V11.0183L44.0015 13.537C44.0013 13.8478 43.9924 14.1623 43.9834 14.4782C43.9641 15.1536 43.9447 15.8347 44.0109 16.4968C44.0495 16.8825 44.7506 17.3388 45.0003 17.5884V19.1343C44.7528 20.0578 44.521 21.0306 43.6517 21.5731C42.6291 22.2112 41.244 22.2952 40.0866 22.4993H39.7512C39.0358 23.8384 37.6243 24.7497 36 24.7497C34.3757 24.7497 32.9642 23.8384 32.2488 22.4993H15.7512C15.0358 23.8384 13.6243 24.7497 12 24.7497C10.3757 24.7497 8.9643 23.8385 8.24892 22.4994C7.21841 22.4987 6.61 22.4919 6.08684 22.4301C5.15198 22.3196 4.24014 22.0102 3.3335 21.7651V16.3193C3.3335 15.6277 3.97407 15.2277 4.51102 14.934C5.01212 14.6598 5.728 14.343 6.6541 14.0285C8.464 13.4138 11.1238 12.7918 14.6526 12.5225C17.7026 10.3913 19.5174 9.22221 21.1982 8.62066ZM40.2496 20.4395C41.0314 20.3009 41.9052 20.303 42.6004 19.8717C42.9945 19.628 43.0003 18.8445 43.0003 18.4156C42.7117 18.1228 42.4165 17.8212 42.2308 17.4498C41.9967 16.9816 41.9985 16.5023 42 16.0969L42.001 14.4692L38.9998 11.9509V11.2817C38.4149 11.1381 37.8167 11.0065 37.204 10.8869C37.6584 11.4942 37.8222 12.2486 37.39 12.927C37.1359 13.3259 36.766 13.6468 36.4333 13.9795L16.6344 14.9131L15.1347 14.4927C12.4898 14.6782 9.81604 15.0668 7.29728 15.9223C6.62639 16.1501 5.94549 16.4042 5.3335 16.7667V20.2341C6.14053 20.4491 6.91535 20.4938 7.75 20.498C7.75092 18.1515 9.65336 16.2497 12 16.2497C14.3471 16.2497 16.2498 18.1522 16.25 20.4993H31.75C31.7502 18.1522 33.6529 16.2497 36 16.2497C38.3271 16.2497 40.2174 18.12 40.2496 20.4395ZM33.6732 10.349L33.4877 12.1162L35.5504 12.0189C35.0753 11.4289 34.5057 10.9184 33.9707 10.3835C33.8719 10.3717 33.7727 10.3602 33.6732 10.349ZM31.6816 10.1641C30.5523 10.0807 29.3788 10.0289 28.157 10.009L27.6568 12.3911L31.4667 12.2115L31.6816 10.1641ZM26.1151 10.0011C24.1592 10.0097 23.08 10.0714 21.8721 10.5037C20.7994 10.8876 19.6036 11.573 17.6891 12.8612L25.5927 12.4885L26.1151 10.0011ZM9.75 20.4997C9.75 21.7423 10.7574 22.7497 12 22.7497C13.2426 22.7497 14.25 21.7423 14.25 20.4997C14.25 19.257 13.2426 18.2497 12 18.2497C10.7574 18.2497 9.75 19.257 9.75 20.4997ZM33.75 20.4997C33.75 21.7423 34.7574 22.7497 36 22.7497C37.2426 22.7497 38.25 21.7423 38.25 20.4997C38.25 19.257 37.2426 18.2497 36 18.2497C34.7574 18.2497 33.75 19.257 33.75 20.4997Z" fill="#000000" class="bmwfcol"/><title>car-model-compact_rg_48</title></svg>