<svg width="48" height="48" viewBox="0 0 32 32" xmlns="http://www.w3.org/2000/svg"><path d="M21.7617 7L18.7617 10H21.2366L25.2366 6.00001L21.2366 2H18.7617L21.7617 5L15 5V7L21.7617 7Z" fill="#000000" class="bmwfcol"/><path d="M10.2385 11L13.2385 14H10.7637L6.76367 10L10.7637 6H13.2386L10.2386 9H17V11H10.2385Z" fill="#000000" class="bmwfcol"/><path d="M2 29.0046C3.65402 28.9869 5.31281 28.9254 7 28.82V30H13V21.0428C13 20.2011 12.5253 19.4621 12.0553 18.8888C11.6916 18.4451 11.2383 17.9937 10.7653 17.5483C11.5042 17.4551 12.2561 17.5 12.9994 17.5V15.5C12.0293 15.5 11.2419 15.4865 10.6351 15.5502C10.2834 15.5871 9.95385 15.6526 9.64179 15.7728C9.48563 15.4881 9.31361 15.1912 9.13032 14.8991C8.85037 14.4529 8.53106 13.9971 8.18857 13.6081C7.86018 13.235 7.44365 12.8453 6.95433 12.6296C5.83746 12.1389 5.00593 12.0203 2 12.0026V14.003C4.99736 14.0233 5.4367 14.1474 6.14792 14.4598C6.24191 14.5014 6.42767 14.6346 6.68735 14.9296C6.93344 15.2091 7.18877 15.5678 7.43625 15.9621C7.55789 16.156 7.67448 16.3534 7.784 16.5473C5.85867 16.443 3.92734 16.4967 2 16.4993V18.4994C3.8257 18.4969 5.65567 18.4535 7.47992 18.5347C8.13218 18.5638 8.55368 18.6115 8.83585 18.6759C9.083 18.7322 9.16061 18.7879 9.17844 18.8029C9.69478 19.2824 10.1325 19.7083 10.4619 20.1005C9.4915 20.3019 8.43015 20.4199 7 20.5217V22.5267C8.59547 22.4162 9.82752 22.284 11 22.0307V28H9V26.6744L7.9273 26.7526C5.91669 26.8992 3.9548 26.9831 2 27.0045V29.0046Z" fill="#000000" class="bmwfcol"/><path d="M2 26H4.6458L6 23.781V20.8358L4.91421 19.75H2V21.868L2.23607 21.75H4L4 23.2189L3.52334 24H2.16421L2 23.8358V26Z" fill="#000000" class="bmwfcol"/><path d="M25.0473 12.6288C26.165 12.1384 26.9941 12.0203 30 12.0026V14.003C27.0023 14.0233 26.5639 14.1474 25.8511 14.4602C25.7582 14.501 25.5726 14.6334 25.3125 14.9287C25.0666 15.208 24.8113 15.5667 24.5638 15.9612C24.4421 16.1553 24.3253 16.353 24.2157 16.5473C26.1394 16.4431 28.0745 16.4967 30 16.4993V18.4994C29.6081 18.4988 29.2365 18.4981 28.884 18.4974C27.43 18.4974 25.9727 18.4701 24.5196 18.5347C23.867 18.5638 23.445 18.6115 23.1624 18.6759C22.9493 18.7245 22.8621 18.7725 22.8306 18.7945C22.3104 19.2774 21.8695 19.7059 21.5381 20.1004C22.5085 20.3019 23.5699 20.4199 25 20.5217V22.5267C23.4045 22.4162 22.1725 22.284 21 22.0307V28H23V26.6744L24.0727 26.7526C26.0833 26.8992 28.0452 26.9831 30 27.0045V29.0046C28.346 28.9869 26.6872 28.9254 25 28.82V30H19V21.0428C19 20.2011 19.4747 19.4621 19.9447 18.8888C20.3084 18.4451 20.7616 17.9938 21.2346 17.5484C20.4947 17.4549 19.7435 17.5 19 17.5V15.5C19.9701 15.5 20.7574 15.4865 21.3642 15.5502C21.7161 15.5871 22.0457 15.6527 22.3578 15.773C22.5141 15.488 22.6862 15.1907 22.8696 14.8983C23.1496 14.4521 23.4689 13.9961 23.8115 13.607C24.14 13.234 24.5571 12.844 25.0473 12.6288Z" fill="#000000" class="bmwfcol"/><path d="M27.0858 19.75H30V21.868L29.7639 21.75H28V23.2093L28.5021 24H29.8358L30 23.8358V26H27.403L26 23.7907V20.8358L27.0858 19.75Z" fill="#000000" class="bmwfcol"/><title>car-compare_rg_48</title></svg>