<svg width="48" height="48" viewBox="0 0 32 32" xmlns="http://www.w3.org/2000/svg"><path d="M10.9401 16.3743C11.9116 16.1414 13.4524 16.1157 16.0001 16.1157C18.5479 16.1157 20.0882 16.1414 21.0595 16.3743C21.5921 16.502 22.039 16.7081 22.4101 17.0596C22.758 17.3891 22.9707 17.7863 23.1407 18.127C23.5797 19.0066 23.5998 19.7896 23.4719 20.3816C23.4098 20.6694 23.3154 20.9003 23.2314 21.0663C23.1893 21.1495 23.1493 21.2174 23.1163 21.2692C23.0455 21.3802 22.8365 21.6968 22.3884 21.7613C20.1997 22.0762 18.1441 22.0935 16.0001 22.0935C13.8562 22.0935 11.8006 22.0762 9.61188 21.7613C9.26972 21.712 9.02228 21.4866 8.8833 21.268C8.85039 21.2162 8.81052 21.1483 8.76856 21.0651C8.68487 20.8992 8.5909 20.6685 8.52898 20.3809C8.40165 19.7896 8.42155 19.0073 8.859 18.1281C9.02863 17.7872 9.24107 17.3896 9.58911 17.0598C9.96027 16.708 10.4074 16.5019 10.9401 16.3743ZM10.4674 19.8571C12.2924 20.0775 14.0559 20.0935 16.0001 20.0935C17.9447 20.0935 19.7085 20.0775 21.5338 19.857C21.5546 19.6722 21.5366 19.3916 21.3512 19.0201C21.1899 18.6969 21.1068 18.5799 21.0347 18.5116C20.9858 18.4653 20.8886 18.39 20.5932 18.3192C19.9085 18.155 18.6573 18.1157 16.0001 18.1157C13.343 18.1157 12.0912 18.155 11.4062 18.3192C11.1106 18.39 11.0135 18.4654 10.9649 18.5114C10.8931 18.5794 10.8103 18.696 10.6496 19.019C10.4647 19.3906 10.4467 19.6717 10.4674 19.8571Z" fill="#000000" class="bmwfcol"/><path d="M26.2709 12.672L26.3324 12.8381C27.2129 13.1167 27.964 13.7952 28.3147 14.6858C28.5014 15.1598 28.5595 15.6551 28.5005 16.1258V26.0001H23.1367V24.8818C18.7049 25.1826 13.2961 25.1826 8.86424 24.8818V26.0001H3.50049V16.127C3.43821 15.6528 3.49526 15.1529 3.68355 14.6748C4.03484 13.7829 4.78885 13.1042 5.67197 12.8288L5.83205 12.3968C5.56996 12.3728 5.18517 12.3698 4.50049 12.3698C3.9482 12.3698 3.50049 11.9221 3.50049 11.3698C3.50049 10.8175 3.9482 10.3698 4.50049 10.3698L4.70192 10.3696C5.49241 10.3688 6.06441 10.3682 6.56871 10.4966C6.6583 10.2785 6.75082 10.0588 6.84528 9.84189C7.14883 9.14473 7.48995 8.43321 7.84517 7.8455C8.02278 7.55164 8.21573 7.2689 8.42224 7.0278C8.61977 6.7972 8.8789 6.54596 9.20221 6.38551C9.60619 6.1851 10.1139 6.07249 10.6031 5.99917C11.1125 5.92281 11.6931 5.87671 12.2931 5.84808C13.3472 5.79776 14.5266 5.79886 15.5794 5.79984L16.0005 5.8001L16.4216 5.79984C17.4745 5.79886 18.6541 5.79776 19.7084 5.84808C20.3084 5.87671 20.889 5.92281 21.3984 5.99917C21.8874 6.07249 22.3951 6.18505 22.799 6.38565L22.8004 6.3863C23.1229 6.54709 23.3816 6.79823 23.5791 7.02893C23.7854 7.27009 23.9783 7.55283 24.1559 7.84671C24.511 8.43446 24.8521 9.14582 25.1557 9.84281C25.25 10.0594 25.3424 10.2787 25.4319 10.4965C25.936 10.3682 26.5079 10.3688 27.2981 10.3696L27.4995 10.3698C28.0518 10.3698 28.4995 10.8175 28.4995 11.3698C28.4995 11.9221 28.0518 12.3698 27.4995 12.3698C26.8156 12.3698 26.4309 12.3727 26.1688 12.3967C26.2048 12.4934 26.2386 12.5848 26.2701 12.6699L26.2709 12.672ZM9.94118 8.32888C9.83052 8.45808 9.70105 8.64141 9.55682 8.88004C9.26836 9.35729 8.96809 9.97636 8.67899 10.6403C8.51094 11.0263 8.35252 11.4131 8.20653 11.7826C8.44947 11.7687 8.71539 11.7571 9.00654 11.7472C10.4748 11.6975 12.6782 11.6899 16.0005 11.6899C19.3228 11.6899 21.5262 11.6975 22.9945 11.7472C23.2855 11.7571 23.5513 11.7687 23.7942 11.7825C23.6483 11.4134 23.4899 11.027 23.322 10.6414C23.0329 9.9776 22.7326 9.35854 22.4441 8.88107C22.2998 8.64235 22.1703 8.45878 22.0595 8.32928C21.9568 8.20927 21.9034 8.17398 21.9034 8.17398L21.9079 8.17614C21.7909 8.11849 21.5358 8.04213 21.1019 7.97707C20.6863 7.91478 20.1803 7.87287 19.613 7.8458C18.6112 7.79799 17.4848 7.79895 16.4255 7.79986L16.0005 7.8001L15.5754 7.79986C14.5163 7.79895 13.3901 7.79799 12.3884 7.8458C11.8212 7.87287 11.3152 7.91478 10.8996 7.97707C10.4699 8.04149 10.2153 8.117 10.0963 8.17462C10.0963 8.17462 10.0433 8.20971 9.94118 8.32888ZM8.7243 13.7594C9.28375 14.5081 9.42349 15.5367 9.0518 16.4805C8.50306 17.8737 6.97167 18.7467 5.50049 18.3751V24.0001H6.86424V22.7183L7.94636 22.8075C12.7997 23.2074 19.2013 23.2074 24.0546 22.8075L25.1367 22.7183V24.0001H26.5005V18.3949C25.0228 18.7726 23.4824 17.8967 22.931 16.4967C22.5567 15.5464 22.6995 14.5105 23.2659 13.7589C23.1584 13.7544 23.0455 13.7501 22.9268 13.7461C21.4997 13.6977 19.3343 13.6899 16.0005 13.6899C12.6667 13.6899 10.5013 13.6977 9.07426 13.7461C8.95157 13.7502 8.83503 13.7547 8.7243 13.7594ZM5.57919 15.3125C5.36883 15.8466 5.63822 16.3229 6.02317 16.4524C6.40812 16.5818 6.94579 16.377 7.15616 15.8429C7.36652 15.3088 7.09713 14.8324 6.71218 14.703C6.32723 14.5735 5.78955 14.7783 5.57919 15.3125ZM25.2752 14.7085C24.886 14.8394 24.6145 15.3205 24.8266 15.8591C25.0388 16.3976 25.5813 16.6049 25.9705 16.474C26.3598 16.3431 26.6312 15.862 26.4191 15.3234C26.207 14.7849 25.6644 14.5776 25.2752 14.7085Z" fill="#000000" class="bmwfcol"/><title>car-front-mini_rg_48</title></svg>