<svg width="48" height="48" viewBox="0 0 32 32" xmlns="http://www.w3.org/2000/svg"><path d="M8 8.76247L11 5.76247V8.23734L7.00001 12.2373L3 8.23732V5.76245L6 8.76245V2H8V8.76247Z" fill="#000000" class="bmwfcol"/><path d="M19 15H18.8866C17.2361 14.9998 15.9815 14.9996 14.7097 15.4271C13.4632 15.8462 12.2706 16.6468 10.6006 18.0311C7.57816 18.2954 5.93254 18.4423 4.76518 18.7018C3.4897 18.9853 2.75292 19.4107 1.54774 20.1066L1.00027 20.4226L1 25.2707L1.74122 25.4693C2.66139 25.7159 3.19989 25.8509 3.58273 25.9214C3.66771 25.937 3.74551 25.9496 3.81795 25.9596C4.37123 27.1638 5.58797 28 7 28C8.39619 28 9.60144 27.1825 10.1632 26H20.8368C21.3986 27.1825 22.6038 28 24 28C25.3981 28 26.6047 27.1803 27.1655 25.9952C27.6002 25.9845 27.9981 25.9503 28.4102 25.8424C29.0328 25.6793 29.6385 25.3636 30.5002 24.866L31.0003 24.5773L31 21.5858L30.7071 21.2929C30.2594 20.8452 30.1095 20.5812 30.0535 20.4411C30.0056 20.3214 30 20.2408 30 20L29.9999 18.0837L27.5411 17.8685L27.4483 17.8147C25.9682 16.9574 24.7599 16.2575 23.5269 15.7791C22.1754 15.2547 20.8122 15 19 15ZM27.4615 23.9791C27.2099 22.2931 25.756 21 24 21C22.2368 21 20.778 22.3039 20.5354 24H10.4646C10.222 22.3039 8.76324 21 7 21C5.28167 21 3.85255 22.2383 3.55633 23.8712C3.40571 23.8358 3.22405 23.7907 3.00009 23.733L3.00021 21.5788C3.89751 21.0682 4.38084 20.836 5.19911 20.6541C6.24237 20.4223 7.78642 20.2848 11.0873 19.9962L11.4015 19.9688L11.643 19.7661C13.4192 18.2757 14.4221 17.6338 15.347 17.3229C16.2773 17.0102 17.2068 17 19 17C20.5964 17 21.7104 17.2196 22.8035 17.6436C23.8868 18.064 24.966 18.6887 26.5146 19.5853L26.9239 19.8222L28 19.9163V20.0204C27.9999 20.2808 27.9997 20.6917 28.1966 21.1839C28.3537 21.5768 28.6134 21.9705 29.0001 22.3995L29.0002 23.4165C28.463 23.7113 28.164 23.8394 27.9035 23.9076C27.7663 23.9436 27.6313 23.9656 27.4615 23.9791ZM7 23C7.82843 23 8.5 23.6716 8.5 24.5C8.5 25.3284 7.82843 26 7 26C6.17157 26 5.5 25.3284 5.5 24.5C5.5 23.6716 6.17157 23 7 23ZM24 23C24.8284 23 25.5 23.6716 25.5 24.5C25.5 25.3284 24.8284 26 24 26C23.1716 26 22.5 25.3284 22.5 24.5C22.5 23.6716 23.1716 23 24 23Z" fill="#000000" class="bmwfcol"/><path d="M2 15H12V13H2V15Z" fill="#000000" class="bmwfcol"/><title>car-update_rg_48</title></svg>