<svg width="72" height="48" viewBox="0 0 48 32" xmlns="http://www.w3.org/2000/svg"><path d="M30.0004 5.99999C36.0988 5.99999 38.4503 6.51449 42.2588 7.53497L42.9999 7.73357V9.21013L45.0004 12.3773V14.6667C45.0004 15.0067 44.9911 15.3496 45.0154 15.6891C45.3674 15.9642 45.6852 16.2705 46.0004 16.5858V19.4142C45.0891 20.3255 44.1587 21.2993 42.8987 21.7024C42.0974 21.9588 41.1861 21.9946 40.0085 21.9993C39.3807 23.888 37.5994 25.25 35.5 25.25C33.4008 25.25 31.6197 23.8883 30.9917 22H15.0083C14.3803 23.8883 12.5992 25.25 10.5 25.25C8.4 25.25 6.61829 23.8872 5.99098 21.9978C5.35319 21.9909 4.78619 21.963 4.28307 21.8512C3.34511 21.6427 2.65985 21.0741 2 20.4142V14.8333C2 14.32 2.28621 13.8678 2.71407 13.5139C3.13675 13.1643 3.77544 12.8383 4.71343 12.5356C6.55895 11.9402 9.822 11.3552 15.6129 11.0203C18.4387 8.66137 20.2722 7.34802 22.295 6.67567C24.7521 5.85898 27.4484 5.9999 30.0004 5.99999ZM42.2892 19.7976C42.7671 19.6447 43.2014 19.354 44.0004 18.5813V17.4378C43.7358 17.2159 43.4503 17.0267 43.2679 16.7228C43.0783 16.4068 43.0364 16.0721 43.0183 15.8009C43.0004 15.5329 43.0004 15.1714 43.0004 14.709V12.956L40.9999 9.78888V9.27009C40.6639 9.18201 40.3384 9.09854 40.0187 9.01967C40.3945 9.58133 40.8253 10.2309 40.7803 10.9375C40.7603 11.251 40.5926 11.7629 40.0258 11.9663C36.6529 13.1769 34.8975 13.2624 33.7617 13.3793C32.4985 13.5094 28.2352 13.6038 24.3622 13.6669C21.7823 13.7088 19.2023 13.7404 16.6222 13.7649L15.1323 13.0529C9.77879 13.389 6.87409 13.94 5.32755 14.439C4.52859 14.6968 4.15546 14.9212 4 15.0459V19.5566C4.24963 19.7532 4.46416 19.8426 4.71693 19.8988C4.98895 19.9593 5.31219 19.9837 5.77669 19.9935C6.0295 17.6083 8.04773 15.75 10.5 15.75C12.9545 15.75 14.9742 17.6117 15.224 20H30.776C31.0258 17.6117 33.0455 15.75 35.5 15.75C37.9534 15.75 39.9723 17.6099 40.2236 19.9967C41.2592 19.9867 41.8211 19.9473 42.2892 19.7976ZM36.8519 8.3856C36.1964 8.29032 35.503 8.21276 34.736 8.15286L35.5375 11.1443C36.3115 11.007 37.2721 10.7801 38.5107 10.3728C38.0625 9.6377 37.489 8.96294 36.8519 8.3856ZM32.6351 8.0395C31.3813 7.99782 30.1267 7.99755 28.8724 8.00115L27.9081 11.5999C30.4923 11.5435 32.714 11.4735 33.5334 11.3922L32.6351 8.0395ZM26.7946 8.02835C25.1641 8.07733 24.0175 8.21073 22.9258 8.57358C21.494 9.0495 20.1053 9.94133 17.8699 11.7526C19.47 11.7358 22.7013 11.6983 25.8265 11.6414L26.7946 8.02835ZM7.75 20.5C7.75 22.0188 8.98122 23.25 10.5 23.25C12.0188 23.25 13.25 22.0188 13.25 20.5C13.25 18.9812 12.0188 17.75 10.5 17.75C8.98122 17.75 7.75 18.9812 7.75 20.5ZM32.75 20.5C32.75 22.0188 33.9812 23.25 35.5 23.25C37.0188 23.25 38.25 22.0188 38.25 20.5C38.25 18.9812 37.0188 17.75 35.5 17.75C33.9812 17.75 32.75 18.9812 32.75 20.5Z" fill="#000000" class="bmwfcol"/><title>car-model-sav_rg_48</title></svg>