<svg width="48" height="48" viewBox="0 0 32 32" xmlns="http://www.w3.org/2000/svg"><path d="M18 9V7.99951H16V9H11V11H14V12.7093C12.9918 13.1722 11.9527 13.9103 10.6006 15.0311C7.57816 15.2954 5.93254 15.4423 4.76518 15.7018C3.4897 15.9853 2.75292 16.4107 1.54774 17.1066L1.00027 17.4226L1 22.2707L1.74122 22.4693C2.66139 22.7159 3.19989 22.8509 3.58273 22.9214C3.66773 22.9371 3.74554 22.9496 3.81799 22.9596C4.37127 24.1638 5.588 25 7.00004 25C8.39624 25 9.6015 24.1825 10.1632 23H20.8369C21.3986 24.1825 22.6038 25 24 25C25.3981 25 26.6048 24.1803 27.1655 22.9952C27.6003 22.9845 27.9981 22.9503 28.4102 22.8424C29.0328 22.6793 29.6385 22.3636 30.5002 21.866L31.0003 21.5773L31 18.5858L30.7071 18.2929C30.2594 17.8452 30.1095 17.5812 30.0535 17.4411C30.0056 17.3214 30 17.2409 30 17L29.9999 15.0837L27.5411 14.8685L27.4483 14.8147C25.9682 13.9574 24.76 13.2575 23.5269 12.7791C23.3518 12.7111 23.1765 12.6477 23 12.5888V11H25.3915C26.4259 11 27.3873 10.4671 27.9355 9.59L28.9292 8H26.5708L26.2395 8.53C26.0568 8.82238 25.7363 9 25.3915 9H21V7.99951H19V9H18ZM21 12.125C20.3871 12.0413 19.73 12 19 12L18.8866 12C17.7901 11.9999 16.8682 11.9997 16 12.1251V11H21V12.125ZM27.9035 20.9076C27.7663 20.9436 27.6313 20.9656 27.4615 20.9791C27.21 19.2932 25.756 18 24 18C22.2368 18 20.7781 19.3039 20.5355 21H10.4646C10.222 19.3039 8.76328 18 7.00004 18C5.28171 18 3.8526 19.2383 3.55638 20.8712C3.40574 20.8358 3.22407 20.7907 3.00009 20.733L3.00021 18.5788C3.89751 18.0682 4.38084 17.836 5.19911 17.6541C6.24237 17.4223 7.78642 17.2848 11.0873 16.9962L11.4015 16.9688L11.643 16.7661C13.4192 15.2757 14.4221 14.6338 15.347 14.3229C16.2773 14.0102 17.2068 14 19 14C20.5964 14 21.7104 14.2196 22.8035 14.6436C23.8868 15.064 24.966 15.6887 26.5146 16.5853L26.9239 16.8222L28 16.9163L28 17.0204C27.9999 17.2808 27.9997 17.6917 28.1966 18.1839C28.3537 18.5768 28.6134 18.9705 29.0001 19.3995L29.0002 20.4165C28.463 20.7113 28.164 20.8394 27.9035 20.9076ZM5.50004 21.5C5.50004 20.6716 6.17162 20 7.00004 20C7.82847 20 8.50004 20.6716 8.50004 21.5C8.50004 22.3284 7.82847 23 7.00004 23C6.17162 23 5.50004 22.3284 5.50004 21.5ZM22.5 21.5C22.5 20.6716 23.1716 20 24 20C24.8285 20 25.5 20.6716 25.5 21.5C25.5 22.3284 24.8285 23 24 23C23.1716 23 22.5 22.3284 22.5 21.5Z" fill="#000000" class="bmwfcol"/><title>car_side_roof_ski_rack_rg_48</title></svg>