<svg width="48" height="48" viewBox="0 0 32 32" xmlns="http://www.w3.org/2000/svg"><path d="M13.2361 16.75H10.0858L9 17.8358V20.7907L10.403 23H13.6642L14 22.6642L14.3358 23H17.6458L19 20.781V17.8358L17.9142 16.75H14.7639L14 17.132L13.2361 16.75ZM11 20.2093V18.75H12.7639L13 18.868V20.8358L12.8358 21H11.5021L11 20.2093ZM15 20.8358V18.868L15.2361 18.75H17V20.219L16.5233 21H15.1642L15 20.8358Z" fill="#000000" class="bmwfcol"/><path d="M21 4H16V15H21C21.3728 15 21.6057 15.1199 21.7429 15.2571C21.8801 15.3943 22 15.6272 22 16H24C24 15.6272 24.1199 15.3943 24.2571 15.2571C24.3943 15.1199 24.6272 15 25 15H30V4H25C24.2473 4 23.5445 4.23188 23 4.69756C22.4555 4.23188 21.7527 4 21 4ZM24 13.1485V7C24 6.62725 24.1199 6.39433 24.2571 6.25711C24.3943 6.11989 24.6272 6 25 6H28V13H25C24.6525 13 24.3156 13.0494 24 13.1485ZM22 13.1485C21.6844 13.0494 21.3475 13 21 13H18V6H21C21.3728 6 21.6057 6.11989 21.7429 6.25711C21.8801 6.39433 22 6.62725 22 7V13.1485Z" fill="#000000" class="bmwfcol"/><path d="M20 17.5217C21.4301 17.4199 22.4915 17.3019 23.4618 17.1005C23.5059 17.0985 23.918 17 23.918 17C24.5902 17 25.7665 17 25.7665 17C25.9087 17.3243 26 17.6737 26 18.0429V27.0001H20V25.8201C15.9453 26.0734 12.0547 26.0734 8 25.8201V27.0001H2V18.0429C2 17.2012 2.47466 16.4622 2.94468 15.8889C3.30844 15.4452 3.76168 14.9938 4.23474 14.5484C4.20938 14.5452 4.18296 14.5421 4.15542 14.5392C3.75733 14.4974 3.24544 14.4983 2.46044 14.4995C2.31682 14.4998 2.16288 14.5 2 14.5V12.5C2.14897 12.5 2.29363 12.4997 2.43398 12.4994C3.20766 12.4977 3.85056 12.4962 4.36415 12.5501C4.71607 12.5871 5.04571 12.6527 5.35789 12.773C5.5141 12.488 5.6862 12.1908 5.8696 11.8984C6.14956 11.4521 6.46893 10.9962 6.81154 10.6071C7.13996 10.2341 7.55707 9.84414 8.0473 9.62893C9.27999 9.08797 10.1617 9.00006 14 9.00006V11.0001C10.0888 11.0001 9.63664 11.1156 8.85112 11.4603C8.75816 11.5011 8.57258 11.6335 8.31254 11.9288C8.06658 12.2081 7.8113 12.5667 7.56383 12.9612C7.44209 13.1553 7.32539 13.353 7.21577 13.5472C7.2859 13.5434 7.35734 13.5399 7.43013 13.5367C8.46991 13.4904 9.92011 13.4933 11.931 13.4974C12.5635 13.4986 13.252 13.5 14 13.5V15.5C13.2258 15.5 12.5218 15.4986 11.881 15.4974C9.89041 15.4934 8.50829 15.4907 7.51903 15.5347C6.86635 15.5637 6.44438 15.6115 6.16184 15.6759C5.95486 15.723 5.86663 15.7697 5.83291 15.7924C5.31168 16.2762 4.86999 16.7054 4.53817 17.1004C5.50856 17.3019 6.56989 17.4199 8 17.5217V19.5267C6.40454 19.4162 5.17248 19.284 4 19.0307V25.0001H6V23.6745L7.0727 23.7527C11.7799 24.0958 16.2201 24.0958 20.9273 23.7527L22 23.6745V25.0001H24V19.0307C22.8275 19.284 21.5955 19.4162 20 19.5267V17.5217Z" fill="#000000" class="bmwfcol"/><title>car-manual_rg_48</title></svg>