<svg width="72" height="48" viewBox="0 0 48 32" xmlns="http://www.w3.org/2000/svg"><path d="M21.6048 13.3133C23.4053 13.2143 26.4638 13.0554 29.4042 12.9474L28.9915 11.3333H31.0558L31.4515 12.8808C32.5351 12.8509 33.5498 12.8326 34.4136 12.8326C36.3736 12.8326 37.8321 12.998 39.0144 13.182C40.2471 13.3739 41.0065 13.5509 41.8069 13.6196L42.7213 13.6981V14.6159C42.7213 14.7248 42.7857 14.9093 43.0794 15.3463C43.4415 15.8852 43.7977 16.4233 43.9993 17.0471V18.9995C43.9993 19.4375 43.9697 19.9135 43.7982 20.3555C43.3963 21.3917 42.3405 21.7961 41.3417 22.0463C40.5984 22.2324 39.8414 22.3629 39.0872 22.4959L38.5334 22.4977C37.7974 23.9807 36.2678 25 34.5 25C32.7329 25 31.2038 23.9815 30.4675 22.4995H15.5325C14.7962 23.9815 13.2671 25 11.5 25C9.73273 25 8.20341 23.9812 7.46725 22.499C6.78541 22.4972 6.29942 22.4871 5.82274 22.4297C4.86274 22.314 3.93024 22.0167 2.99902 21.7651L2.99942 16.9995C2.99942 16.2038 3.84214 15.8107 4.45776 15.52C5.11188 15.2112 6.06269 14.8482 7.31567 14.5013C9.82555 13.8064 13.72 13.1752 18.8035 13.1752C20.3 12.0458 21.8626 11.0052 23.4445 10H26.7868C25.0235 11.0452 23.2904 12.1467 21.6048 13.3133ZM40.8558 20.1062C41.3665 19.9783 41.6399 19.868 41.7907 19.7763C42.0433 19.6227 41.9993 19.2564 41.9993 18.9995V17.3851C41.709 16.723 41.1668 16.2065 40.902 15.5249C40.2149 15.425 39.4756 15.2779 38.7067 15.1582C37.6054 14.9867 36.2515 14.8326 34.4136 14.8326C29.6135 14.8325 24.8057 15.1265 20.0147 15.4071L18.5828 15.1662C13.7086 15.1732 10.1595 15.7892 7.84934 16.4288C6.87997 16.6972 5.88798 17.0037 4.99939 17.4859L4.99916 20.2292C5.87219 20.4505 6.15595 20.4833 7.00001 20.4953C7.00255 18.0122 9.01629 16 11.5 16C13.9851 16 15.9997 18.0145 16 20.4995H30C30.0003 18.0145 32.0149 16 34.5 16C36.9787 16 38.9893 18.0041 39 20.4803C39.7878 20.34 40.389 20.2231 40.8558 20.1062ZM9 20.5C9 21.8807 10.1193 23 11.5 23C12.8807 23 14 21.8807 14 20.5C14 19.1193 12.8807 18 11.5 18C10.1193 18 9 19.1193 9 20.5ZM32 20.5C32 21.8807 33.1193 23 34.5 23C35.8807 23 37 21.8807 37 20.5C37 19.1193 35.8807 18 34.5 18C33.1193 18 32 19.1193 32 20.5Z" fill="#000000" class="bmwfcol"/><title>car-model-roadster_rg_48</title></svg>