<svg width="48" height="48" viewBox="0 0 32 32" xmlns="http://www.w3.org/2000/svg"><path d="M22.0003 24.0005H24.9999C26.2839 24.0004 26.9648 23.7203 27.3429 23.3424C27.7207 22.9643 28.0002 22.2837 28.0003 21.0001C28.0002 19.768 27.7402 19.0939 27.3857 18.7075C26.6895 19.1791 25.854 19.4425 24.8473 19.2655C23.5787 19.042 22.2319 18.1456 20.6938 16.6076L19.9867 15.9005L21.1115 14.7756L19.1932 12.8573L20.6075 11.4431L22.5258 13.3614L23.3613 12.5259L21.443 10.6075L22.8572 9.19333L24.7755 11.1116L25.9004 9.98676L26.6075 10.6939C28.1455 12.232 29.0426 13.5782 29.2661 14.8467C29.4335 15.7985 29.2063 16.5977 28.7827 17.2705C29.6841 18.1913 30 19.4996 30.0001 21.0001C30 22.5154 29.6789 23.8362 28.7571 24.758C27.8353 25.6794 26.5151 26.0002 24.9999 26.0002H22.0003V24.0005ZM22.8351 15.8791C23.9038 16.8262 24.663 17.2025 25.194 17.2961C25.7248 17.3893 26.1639 17.2224 26.6931 16.6932C27.2225 16.1638 27.39 15.7244 27.2967 15.1934C27.2031 14.6624 26.8261 13.9039 25.879 12.8352L22.8351 15.8791Z" fill="#000000" class="bmwfcol"/><path d="M16.8378 8.24937L12.8541 4.26568L14.2684 2.85147L18.252 6.83516V4.00673L20.0032 5.75793L20.0025 9.99988L15.7606 10.0006L14.0094 8.24937H16.8378Z" fill="#000000" class="bmwfcol"/><path d="M7.12478 25.1495V22.9246L8.0128 22.0366H10.4573L10.6417 22.1298L11.0001 22.31L11.3584 22.1298L11.5435 22.0373L13.9873 22.0366L14.8753 22.9246L14.8746 25.1405L13.7808 26.7743L11.2003 26.775L11.0001 26.5748L10.8005 26.7743H8.25794L7.12478 25.1495ZM12.8472 25.0245L13.1255 24.6095L13.1248 23.7871H12.0006V25.0245H12.8472ZM10.0002 25.0238L9.99947 23.7871H8.87528V24.5991L9.17083 25.0245L10.0002 25.0238Z" fill="#000000" class="bmwfcol"/><path d="M1.99963 23.0323C1.99963 22.3096 2.40632 21.6965 2.76613 21.2577C2.93613 21.0504 3.13067 20.8417 3.33651 20.6348C3.02678 20.6207 2.61535 20.6251 1.99963 20.6251L2.00032 18.6246C2.7172 18.6246 3.32723 18.6145 3.79917 18.664C4.08036 18.6935 4.35132 18.749 4.61192 18.8498C4.71444 18.6663 4.82389 18.4765 4.94062 18.2904C5.15454 17.9495 5.40166 17.5952 5.67051 17.2898C5.92521 17.0006 6.26722 16.6762 6.68422 16.493C7.10783 16.3071 7.4632 16.1623 8.12191 16.0856C8.71029 16.0171 9.55938 15.9999 11.0001 15.9999C13.631 15.9999 14.3398 16.0641 15.3159 16.493C15.7322 16.6766 16.0748 17.0018 16.3296 17.2912C16.5983 17.5965 16.8463 17.9503 17.0602 18.2911C17.1768 18.477 17.2859 18.6664 17.3882 18.8498C17.6487 18.7488 17.9197 18.6935 18.2009 18.664C18.6729 18.6146 19.2831 18.6246 19.9998 18.6246L20.0005 20.6251C19.3844 20.6251 18.9734 20.6206 18.6636 20.6348C18.8696 20.8416 19.0639 21.0503 19.234 21.2577C19.5938 21.6965 20.0005 22.3096 20.0005 23.0323V29.9998H14.9996V29.1297C12.2144 29.2977 9.7857 29.2977 7.00048 29.1297V29.9998H1.99963V23.0323ZM6.61447 19.387C7.6296 19.3644 9.0454 19.3753 11.0001 19.3753C12.9546 19.3753 14.3703 19.3637 15.3849 19.3863C15.3784 19.3758 15.3722 19.365 15.3656 19.3545C15.1841 19.0653 15.0002 18.8082 14.8277 18.6122C14.7423 18.5152 14.668 18.4421 14.6067 18.3912C14.577 18.3666 14.5532 18.3495 14.5356 18.3381C14.5219 18.3292 14.5133 18.3242 14.5107 18.3229C13.9752 18.0876 13.6803 17.9997 11.0001 17.9997C9.5357 17.9997 8.80639 18.0203 8.35393 18.0729C7.97199 18.1174 7.8218 18.1774 7.48869 18.3236C7.48869 18.3236 7.47862 18.3292 7.46383 18.3388C7.44635 18.3501 7.42237 18.3674 7.3927 18.3919C7.33162 18.4426 7.25699 18.5147 7.17173 18.6115C6.99945 18.8072 6.81661 19.0647 6.63519 19.3539C6.6283 19.3648 6.62132 19.376 6.61447 19.387ZM5.00069 28L5 26.987L6.0724 27.065C9.59065 27.3215 12.4095 27.3215 15.9277 27.065L17.0001 26.987V27.9993L18.0007 28V24.0819C17.2539 24.2231 16.4607 24.3088 15.4996 24.3789L15.5003 22.3729C16.2316 22.3171 16.8267 22.2523 17.3626 22.1636C17.2154 22.011 17.0484 21.8496 16.8648 21.6768L16.6396 21.4669C16.4546 21.4391 16.2004 21.4163 15.8483 21.4006C14.8755 21.3573 13.3904 21.375 11.0001 21.375C8.60944 21.375 7.12385 21.3573 6.15043 21.4006C5.79902 21.4162 5.54553 21.4392 5.36046 21.4669C5.08564 21.721 4.8435 21.9515 4.63816 22.1643C5.17399 22.2529 5.76878 22.3172 6.49984 22.3729L6.50053 24.3789C5.53948 24.3088 4.74686 24.2238 4.00011 24.0826V27.9993L5.00069 28Z" fill="#000000" class="bmwfcol"/><title>car_plug_arrow_down_right_rg_48</title></svg>