<svg width="48" height="48" viewBox="0 0 32 32" xmlns="http://www.w3.org/2000/svg"><path d="M19 6.00002C20.8121 6.00002 22.175 6.25506 23.5264 6.77932C24.7851 7.26768 26.0186 7.98636 27.541 8.86819L30 9.08401V11C30 11.2409 30.0058 11.3217 30.0537 11.4414C30.1098 11.5816 30.2597 11.8456 30.707 12.293L31 12.586V15.5772L30.5 15.8662C29.6384 16.3637 29.0327 16.6797 28.4102 16.8428C27.9983 16.9506 27.6005 16.9806 27.166 16.9912C26.606 18.1782 25.3995 19 24 19C22.6038 19 21.3987 18.1825 20.8369 17H19V24H30V26H2V24H13V17H10.1631C9.60135 18.1825 8.39618 19 7 19C5.58736 19 4.37033 18.1631 3.81738 16.958C3.74523 16.948 3.66761 16.9365 3.58301 16.9209C3.20019 16.8504 2.66128 16.7163 1.74121 16.4697L1 16.2705V11.4229L1.5 11.1338C2.7335 10.4216 3.47348 9.98936 4.76562 9.70217C5.93334 9.44269 7.57954 9.29566 10.6035 9.03127C12.2726 7.64779 13.4639 6.84567 14.71 6.42678C16.0106 5.98965 17.2934 6.00002 19 6.00002ZM15 24H17V17H15V24ZM7 14C6.17158 14 5.50001 14.6716 5.5 15.5C5.5 16.3284 6.17157 17 7 17C7.82843 17 8.5 16.3284 8.5 15.5C8.49999 14.6716 7.82842 14 7 14ZM24 14C23.1716 14 22.5 14.6716 22.5 15.5C22.5 16.3284 23.1716 17 24 17C24.8284 17 25.5 16.3284 25.5 15.5C25.5 14.6716 24.8284 14 24 14ZM19 8.00002C17.2068 8.00002 16.277 8.01052 15.3467 8.32326C14.4219 8.63422 13.4185 9.2755 11.6426 10.7656L11.4014 10.9688L11.0869 10.9961C7.78638 11.2847 6.24244 11.4225 5.19922 11.6543C4.38062 11.8363 3.89799 12.0701 3 12.5811V14.7295C3.22468 14.7874 3.40679 14.833 3.55762 14.8692C3.85474 13.2374 5.28245 12 7 12C8.7632 12 10.2212 13.3039 10.4639 15H20.5361C20.7788 13.3039 22.2368 12 24 12C25.7548 12 27.2079 13.2914 27.4609 14.9756C27.6308 14.9621 27.7661 14.9432 27.9033 14.9072C28.1639 14.839 28.4625 14.7101 29 14.4151V13.3975C28.6139 12.9689 28.3533 12.5762 28.1963 12.1836C27.9943 11.6785 28 11.2591 28 11V10.916L27.1455 10.8418L26.9238 10.8223L26.7314 10.711C25.0654 9.74688 23.9368 9.08324 22.8037 8.64358C21.7107 8.21949 20.5964 8.00002 19 8.00002Z" fill="#000000" class="bmwfcol"/><title>car_side_lifting_platform_rg_48</title></svg>