<svg width="48" height="48" viewBox="0 0 32 32" xmlns="http://www.w3.org/2000/svg"><path d="M18.9825 6H19C20.7634 6 22.103 6.24109 23.4218 6.73882C24.6903 7.21758 25.9166 7.92775 27.4239 8.80062L27.5411 8.86851L29.9999 9.08363L30 10.9999C30 11.2408 30.0056 11.3214 30.0535 11.4411C30.1095 11.5812 30.2594 11.8452 30.7071 12.2929L31 12.5857L31.0003 15.5773L30.5002 15.866C29.6478 16.3582 29.0456 16.6726 28.4307 16.837C27.8207 17 27.2478 17 26.5439 17L25.5 17.0001V15.5C25.5 14.6716 24.8285 14 24 14C23.1716 14 22.5 14.6716 22.5 15.5V17H19.0001V24H30.0001V26H2.00006V24H13.0001V17H8.50004V15.5C8.50004 14.6716 7.82847 14 7.00004 14C6.17162 14 5.50004 14.6716 5.50004 15.5V17.0009L4.49914 17C3.84187 16.9994 3.5326 16.9493 1.74122 16.4693L1 16.2707L1.00027 11.4226L1.54774 11.1065C2.75292 10.4107 3.4897 9.98523 4.76518 9.70175C5.93255 9.4423 7.57817 9.29538 10.6007 9.03112C11.3934 8.3741 12.0751 7.85197 12.6991 7.4418L13.5975 6.85113L15.3508 9.99241L13.4504 13.2932L15.0001 16.0606V24H17.0001L17.0003 15.5391L15.7503 13.3069L17.6498 10.0077L15.4703 6.1028L17.0836 6.02679C17.6523 6 18.2805 6 18.9825 6ZM20.5355 15C20.7781 13.3039 22.2368 12 24 12C25.756 12 27.2099 13.2931 27.4615 14.979C27.6364 14.9651 27.7741 14.9423 27.9142 14.9048C28.1726 14.8357 28.4706 14.7071 29.0002 14.4165L29.0001 13.3994C28.6134 12.9704 28.3537 12.5768 28.1966 12.1839C27.9997 11.6917 27.9999 11.2808 28 11.0203L28 10.9163L26.9239 10.8222L26.4762 10.563C25.3481 9.9097 24.4691 9.40232 23.6569 9.01462C23.3365 8.86165 23.0264 8.72731 22.7156 8.60999C21.6518 8.20852 20.5556 8 19 8L18.8197 8.00002L19.9488 10.0231L18.0502 13.3206L18.9906 15H20.5355ZM11.643 10.7661L11.4015 10.9687L11.0873 10.9962C7.78642 11.2848 6.24237 11.4222 5.19911 11.6541C4.38084 11.836 3.89751 12.0682 3.00021 12.5788L3.00009 14.7328C3.22353 14.7904 3.40557 14.8355 3.55641 14.871C3.85272 13.2382 5.28178 12 7.00004 12C8.76328 12 10.222 13.3039 10.4646 15H12.1139L11.1504 13.2795L13.0518 9.97708L12.9192 9.73938C12.5389 10.0283 12.1182 10.3673 11.643 10.7661Z" fill="#000000" class="bmwfcol"/><title>car_wreck_on_lifting_platform_rg_48</title></svg>