<svg width="48" height="48" viewBox="0 0 32 32" xmlns="http://www.w3.org/2000/svg"><path d="M9.44139 4H22.5586C23.1952 4 23.716 4.04245 24.1084 4.18614C24.3233 4.26484 24.5625 4.3958 24.7527 4.62456C24.9498 4.86149 25.0214 5.11524 25.0463 5.30816L25.9804 12.2872C26.391 12.0158 26.8239 11.8515 27.3861 11.765C28.0214 11.6672 28.853 11.6665 29.9999 11.6665V13.6665C28.7856 13.6665 28.1378 13.6728 27.6904 13.7417C27.49 13.7726 27.3464 13.813 27.2149 13.8788C27.8478 14.467 28.4594 15.0616 28.9357 15.6424C29.4791 16.3054 30 17.1287 30 18.0498V27.9998H23.3333V25.8031C18.5938 25.8 13.4062 25.8 8.66667 25.8031V27.9998H2V18.0498C2 17.1287 2.52085 16.3054 3.06435 15.6424C3.54054 15.0616 4.15217 14.4671 4.785 13.8789C4.65335 13.8131 4.50969 13.7726 4.30923 13.7417C3.86195 13.6728 3.21438 13.6665 2 13.6665V11.6665C3.14696 11.6665 3.97837 11.6672 4.61358 11.765C5.17592 11.8516 5.60885 12.016 6.01954 12.2874L6.95367 5.30844C6.97853 5.11548 7.05014 4.8616 7.24729 4.62456C7.43754 4.3958 7.67671 4.26484 7.89163 4.18614C8.28402 4.04245 8.80481 4 9.44139 4ZM26 15.4808V16.7998H27.2965C26.9497 16.3931 26.5088 15.9578 26 15.4808ZM26 18.7998V19.5C26 19.9268 25.9701 20.3007 25.8944 20.62C25.8185 20.9402 25.6805 21.2729 25.4142 21.5392C25.1332 21.8202 24.8084 21.9291 24.5489 21.9711C24.3546 22.0025 24.1474 22.001 24.0383 22.0002L24 22H8L7.96167 22.0002C7.85261 22.001 7.64541 22.0025 7.45107 21.9711C7.19161 21.9291 6.8668 21.8202 6.58579 21.5392C6.31945 21.2729 6.1815 20.9402 6.10557 20.62C6.02985 20.3007 6 19.9268 6 19.5V18.7998H4V25.9998H6.66667V23.8045L7.66592 23.8038C12.9998 23.7998 19.0002 23.7998 24.3341 23.8038L25.3333 23.8045V25.9998H28V18.7998H26ZM6 16.7998V15.4808C5.49116 15.9578 5.05026 16.3931 4.70355 16.7998H6ZM8.58826 8.1717L8.14275 11.5001H23.8572L23.4117 8.17138C23.3682 8.25163 23.313 8.33284 23.2432 8.41175C23.0508 8.62926 22.8148 8.752 22.6043 8.82552C22.2191 8.96007 21.7076 8.99995 21.0763 8.99995H10.9235C10.2922 8.99995 9.78064 8.96007 9.39547 8.82552C9.18502 8.752 8.94899 8.62926 8.75656 8.41175C8.68683 8.33294 8.63177 8.25184 8.58826 8.1717ZM8 19.5C8 19.7215 8.0105 19.8836 8.02467 20H23.9753C23.9895 19.8836 24 19.7215 24 19.5V13.5001H8V19.5ZM21.8195 6H10.1804L10.3438 6.98043C10.4867 6.99234 10.6756 6.99995 10.9235 6.99995H21.0763C21.3242 6.99995 21.5131 6.99234 21.656 6.98043L21.8195 6Z" fill="#000000" class="bmwfcol"/><title>car_rear_boot_rg_48</title></svg>