<svg width="48" height="48" viewBox="0 0 32 32" xmlns="http://www.w3.org/2000/svg"><path d="M13 10H13.1134C14.7639 9.9998 16.0185 9.99963 17.2903 10.4271C18.5368 10.8462 19.7294 11.6468 21.3994 13.0311C24.4218 13.2954 26.0675 13.4423 27.2348 13.7018C28.5103 13.9853 29.2471 14.4107 30.4523 15.1066L30.9997 15.4226L31 20.2707L30.2588 20.4693C29.3386 20.7159 28.8001 20.8509 28.4173 20.9214C28.3323 20.937 28.2545 20.9496 28.182 20.9596C27.6288 22.1638 26.412 23 25 23C23.6038 23 22.3986 22.1825 21.8368 21H11.1632C10.6014 22.1825 9.39619 23 7.99999 23C6.60189 23 5.39529 22.1803 4.83449 20.9952C4.39979 20.9845 4.00189 20.9503 3.58979 20.8424C2.96719 20.6793 2.36149 20.3636 1.49979 19.866L0.999695 19.5773L0.999994 16.5858L1.29289 16.2929C1.74059 15.8452 1.8905 15.5812 1.9465 15.4411C1.9944 15.3214 1.99999 15.2408 1.99999 15L2.00009 13.0836L4.45889 12.8685L4.55169 12.8147C6.0318 11.9574 7.24 11.2575 8.47309 10.7791C9.82459 10.2547 11.1878 10 13 10ZM4.53849 18.9791C4.79009 17.2931 6.24399 16 7.99999 16C9.76319 16 11.222 17.3039 11.4646 19H21.5354C21.778 17.3039 23.2368 16 25 16C26.7183 16 28.1474 17.2383 28.4437 18.8712C28.5943 18.8358 28.7759 18.7907 28.9999 18.733L28.9998 16.5788C28.1025 16.0682 27.6192 15.836 26.8009 15.6541C25.7576 15.4223 24.2136 15.2848 20.9127 14.9962L20.5985 14.9688L20.357 14.7661C18.5808 13.2757 17.5779 12.6338 16.653 12.3229C15.7227 12.0102 14.7932 12 13 12C11.4036 12 10.2896 12.2196 9.1965 12.6436C8.11319 13.064 7.03399 13.6887 5.48539 14.5853L5.07609 14.8222L3.99999 14.9163V15.0204C4.00009 15.2808 4.00029 15.6917 3.80339 16.1839C3.64629 16.5768 3.3866 16.9705 2.9999 17.3995L2.99979 18.4165C3.53699 18.7113 3.83599 18.8394 4.09649 18.9076C4.23369 18.9436 4.36869 18.9656 4.53849 18.9791ZM25 18C24.1716 18 23.5 18.6716 23.5 19.5C23.5 20.3284 24.1716 21 25 21C25.8284 21 26.5 20.3284 26.5 19.5C26.5 18.6716 25.8284 18 25 18ZM7.99999 18C7.17159 18 6.49999 18.6716 6.49999 19.5C6.49999 20.3284 7.17159 21 7.99999 21C8.82839 21 9.49999 20.3284 9.49999 19.5C9.49999 18.6716 8.82839 18 7.99999 18Z" fill="#000000" class="bmwfcol"/><title>car_side_right_rg_48</title></svg>