<svg width="48" height="48" viewBox="0 0 32 32" xmlns="http://www.w3.org/2000/svg"><path d="M10.6416 22.1309L11 22.3105L11.3584 22.1309L11.543 22.0381H13.9873L14.2441 22.2939L14.6191 22.6689L14.875 22.9258V25.1416L14.7266 25.3623L13.7803 26.7754H11.2002L11 26.5752L10.7998 26.7754H8.25781L7.125 25.1504V22.9258L7.38086 22.6689L7.75586 22.2939L8.0127 22.0381H10.457L10.6416 22.1309ZM8.875 24.5996L9.1709 25.0254H10V23.7881H8.875V24.5996ZM12 25.0254H12.8467L13.125 24.6104V23.7881H12V25.0254Z" fill="#000000" class="bmwfcol"/><path d="M11 16.001C13.631 16.001 14.3394 16.0653 15.3154 16.4941C15.7319 16.6778 16.0743 17.0025 16.3291 17.292C16.5979 17.5974 16.8456 17.951 17.0596 18.292C17.1762 18.4779 17.2853 18.6671 17.3877 18.8506C17.6482 18.7495 17.9189 18.6946 18.2002 18.665C18.6723 18.6155 19.2829 18.626 20 18.626V20.626C19.3836 20.626 18.9729 20.6216 18.6631 20.6357C18.8693 20.8428 19.0642 21.0512 19.2344 21.2588C19.5942 21.6976 20 22.3105 20 23.0332V30.001H15V29.1309C12.2145 29.2989 9.78552 29.2989 7 29.1309V30.001H2V23.0332C2 22.3105 2.40582 21.6976 2.76562 21.2588C2.93568 21.0514 3.13001 20.8427 3.33594 20.6357C3.02621 20.6216 2.61572 20.626 2 20.626V18.626C2.71696 18.626 3.32685 18.6155 3.79883 18.665C4.08009 18.6946 4.35066 18.7498 4.61133 18.8506C4.71386 18.6671 4.82369 18.4781 4.94043 18.292C5.15445 17.9508 5.40188 17.5965 5.6709 17.291C5.92567 17.0017 6.26743 16.6774 6.68457 16.4941C7.10823 16.3082 7.46321 16.1636 8.12207 16.0869C8.71046 16.0184 9.55929 16.001 11 16.001ZM11 21.376C8.60935 21.376 7.12382 21.3581 6.15039 21.4014C5.79893 21.417 5.54544 21.4401 5.36035 21.4678C5.08549 21.7219 4.84305 21.9522 4.6377 22.165C5.17369 22.2537 5.76863 22.3183 6.5 22.374V24.3799C5.5389 24.3098 4.74678 24.2242 4 24.083V28.001H5V26.9883L6.07227 27.0664C9.59056 27.3229 12.4094 27.3229 15.9277 27.0664L17 26.9883V28.001H18V24.083C17.2532 24.2242 16.4611 24.3098 15.5 24.3799V22.374C16.2314 22.3183 16.8263 22.2537 17.3623 22.165C17.215 22.0124 17.0489 21.8506 16.8652 21.6777L16.6396 21.4678C16.4546 21.44 16.2008 21.4171 15.8486 21.4014C14.8758 21.3581 13.3907 21.376 11 21.376ZM11 18.001C9.53525 18.001 8.80597 18.0216 8.35352 18.0742C7.97154 18.1187 7.82148 18.178 7.48828 18.3242C7.48828 18.3242 7.47866 18.3303 7.46387 18.3398C7.44638 18.3512 7.42229 18.368 7.39258 18.3926C7.33147 18.4432 7.25721 18.5154 7.17188 18.6123C6.99953 18.808 6.81627 19.0652 6.63477 19.3545C6.62785 19.3655 6.62113 19.3766 6.61426 19.3877C7.6294 19.3651 9.04526 19.376 11 19.376C12.9546 19.376 14.3701 19.3651 15.3848 19.3877C15.3781 19.377 15.3719 19.3661 15.3652 19.3555C15.1837 19.0662 15.0006 18.8092 14.8281 18.6133C14.7426 18.5161 14.6678 18.4435 14.6064 18.3926C14.5765 18.3678 14.5528 18.3503 14.5352 18.3389C14.5215 18.33 14.5133 18.3255 14.5107 18.3242C13.9751 18.0889 13.6806 18.001 11 18.001Z" fill="#000000" class="bmwfcol"/><path d="M24.7754 11.1123L25.9004 9.9873L26.6074 10.6943C28.1456 12.2326 29.0422 13.579 29.2656 14.8477C29.4331 15.7995 29.2068 16.5987 28.7832 17.2715C29.6847 18.1923 29.9999 19.5005 30 21.001C29.9999 22.5163 29.6787 23.837 28.7568 24.7588C27.835 25.6803 26.5151 26.0009 25 26.001H22V24.001H25C26.284 24.0009 26.9647 23.7217 27.3428 23.3438C27.7207 22.9657 27.9999 22.2849 28 21.001C27.9999 19.7687 27.7403 19.0944 27.3857 18.708C26.6894 19.1798 25.8537 19.4438 24.8467 19.2666C23.578 19.0432 22.2316 18.1466 20.6934 16.6084L19.9863 15.9014L21.1113 14.7764L19.1934 12.8584L20.6074 11.4443L22.5254 13.3623L23.3613 12.5264L21.4434 10.6084L22.8574 9.19336L24.7754 11.1123ZM22.835 15.8799C23.9037 16.8271 24.6623 17.2033 25.1934 17.2969C25.7244 17.3903 26.1639 17.2238 26.6934 16.6943C27.2228 16.1649 27.3893 15.7254 27.2959 15.1943C27.2023 14.6633 26.8261 13.9047 25.8789 12.8359L22.835 15.8799Z" fill="#000000" class="bmwfcol"/><path d="M17.0898 7.90918H14.2617L17.5459 11.1943L16.1318 12.6084L12.8477 9.32324V12.1523L11.0957 10.4004L11.0967 6.15918L15.3389 6.1582L17.0898 7.90918Z" fill="#000000" class="bmwfcol"/><path d="M21.1279 4.67676V1.84766L22.8799 3.59961L22.8789 7.84082L18.6367 7.8418L16.8857 6.09082H19.7139L16.4463 2.82324L17.8604 1.40918L21.1279 4.67676Z" fill="#000000" class="bmwfcol"/><title>car_plug_arrows_double_rg_48</title></svg>