<svg width="48" height="48" viewBox="0 0 32 32" xmlns="http://www.w3.org/2000/svg"><path d="M29 13.0001C29 16.2273 27.9198 18.9944 25.9571 20.9572L24.5428 19.543C26.0801 18.0057 27 15.7728 27 13.0001C27 10.2273 26.0801 7.9944 24.5428 6.45718L25.9571 5.04297C27.9198 7.00575 29 9.77283 29 13.0001Z" fill="#000000" class="bmwfcol"/><path d="M24 13.0001C24 14.7273 23.4198 16.2444 22.3321 17.3322L20.9178 15.918C21.5801 15.2557 22 14.2728 22 13.0001C22 11.7273 21.5801 10.7444 20.9178 10.0822L22.3321 8.66797C23.4198 9.75575 24 11.2728 24 13.0001Z" fill="#000000" class="bmwfcol"/><path d="M11.3333 24.9036C8.22567 25.1011 5.11202 25.173 2 25.1191V23.1188C5.42166 23.1791 8.84536 23.0847 12.2606 22.8357L13.3333 22.7575V24.0291H16V16.985C14.5354 17.3326 13.0242 17.5027 11 17.6431V15.6381C12.8757 15.5049 14.2189 15.3474 15.4798 15.053C15.451 15.0163 15.4208 14.9785 15.389 14.9398C14.9921 14.4557 14.4549 13.9318 13.8233 13.3453L13.8216 13.3472C13.7765 13.3055 13.6483 13.2127 13.288 13.1195C12.9254 13.0258 12.3988 12.9491 11.6209 12.8931C10.0645 12.781 7.69053 12.7624 4 12.7624C3.28515 12.7624 2.61969 12.7631 2 12.7651V10.765C2.62301 10.7631 3.28871 10.7624 4 10.7624C7.66613 10.7624 10.1208 10.7799 11.7646 10.8983C11.9558 10.912 12.1385 10.9273 12.3132 10.9444C12.1622 10.6803 11.9981 10.4082 11.8251 10.1418C11.5348 9.69465 11.2324 9.28409 10.9379 8.9604C10.6307 8.62274 10.3918 8.44643 10.2407 8.38009C9.28974 7.96279 8.56624 7.8291 4 7.8291C3.2308 7.8291 2.57061 7.8329 2 7.8412V5.83992C2.58382 5.83205 3.24482 5.8291 4 5.8291C8.4749 5.8291 9.64097 5.9328 11.0446 6.54878C11.5738 6.78111 12.0378 7.19739 12.4173 7.61454C12.8095 8.04566 13.1776 8.55214 13.5025 9.05257C13.75 9.43375 13.9802 9.82324 14.1845 10.1916C14.5363 9.99336 14.916 9.86661 15.3861 9.79425C16.0214 9.69645 16.853 9.69577 17.9999 9.69577V11.6958C16.7855 11.6958 16.1378 11.7021 15.6904 11.771C15.49 11.8018 15.3463 11.8423 15.2149 11.9081C15.8477 12.4963 16.4594 13.0909 16.9357 13.6717C17.4791 14.3346 18 15.158 18 16.0791V26.0291H11.3333V24.9036Z" fill="#000000" class="bmwfcol"/><path d="M3.60504 21.9958H2V19.9958H2.77613L3 19.7717V16.8751L2.69986 16.6958H2V14.6958H3.25197L3.99992 15.1428L4.74787 14.6958H8.47146L9.66658 15.8909V19.4928L8.16478 21.9958H4.39479L3.99992 21.6006L3.60504 21.9958ZM5.22371 19.9958H7.03239L7.66658 18.9388V16.7193L7.64304 16.6958H5.29998L5 16.8751V19.7719L5.22371 19.9958Z" fill="#000000" class="bmwfcol"/><title>car_front_noise_rg_48</title></svg>