<svg width="48" height="48" viewBox="0 0 32 32" xmlns="http://www.w3.org/2000/svg"><path d="M17 5.5V2H15V5.5L17 5.5Z" fill="#000000" class="bmwfcol"/><path d="M8.86608 3.37549L10.6161 6.40658L8.88403 7.40658L7.13403 4.37549L8.86608 3.37549Z" fill="#000000" class="bmwfcol"/><path d="M24.8661 4.37549L23.1161 7.40658L21.384 6.40658L23.134 3.37549L24.8661 4.37549Z" fill="#000000" class="bmwfcol"/><path d="M7.13379 27.6302L8.88379 24.5991L10.6158 25.5991L8.86584 28.6302L7.13379 27.6302Z" fill="#000000" class="bmwfcol"/><path d="M23.1338 28.6302L21.3838 25.5991L23.1158 24.5991L24.8658 27.6302L23.1338 28.6302Z" fill="#000000" class="bmwfcol"/><path d="M14.9999 26.5057V30.0057H16.9999V26.5057H14.9999Z" fill="#000000" class="bmwfcol"/><path d="M9.62881 11.6223C9.73241 11.4525 9.84415 11.278 9.96203 11.1057C10.1779 10.7902 10.4281 10.4621 10.7001 10.1789C10.954 9.91459 11.2872 9.62517 11.6861 9.45785C12.0901 9.27185 12.4476 9.14599 13.0961 9.07841C13.6899 9.01652 14.5573 9 15.9998 9C18.5755 9 19.4257 9.05099 20.3135 9.45795C20.7122 9.62556 21.0454 9.91507 21.2995 10.1797C21.5714 10.4628 21.8215 10.7908 22.0374 11.1062C22.1552 11.2783 22.2669 11.4526 22.3705 11.6223C22.6401 11.5209 22.9196 11.4694 23.209 11.4415C23.604 11.4036 24.0973 11.4046 24.6767 11.4058L24.6777 11.4058C24.7823 11.406 24.8897 11.4062 24.9998 11.4062V13.4062C24.8764 13.4062 24.7611 13.4061 24.653 13.4059C24.3066 13.4054 24.0344 13.405 23.8106 13.4104C23.9517 13.546 24.0853 13.6821 24.2066 13.8178C24.5607 14.2136 24.9998 14.8056 24.9998 15.5294V22H19.9998V21.0833H11.9998V22H6.99976V15.5294C6.99976 14.8056 7.43883 14.2136 7.79289 13.8178C7.91425 13.6821 8.04777 13.546 8.18886 13.4104C7.96511 13.405 7.6934 13.4054 7.34697 13.4059C7.2388 13.4061 7.12333 13.4062 6.99976 13.4062V11.4062C7.1102 11.4062 7.21789 11.406 7.32277 11.4058C7.90213 11.4046 8.39539 11.4036 8.79035 11.4415C9.07982 11.4694 9.3592 11.5209 9.62881 11.6223ZM13.3034 11.0676C12.8967 11.11 12.7517 11.1683 12.5072 11.2817L12.4838 11.2925L12.4599 11.3021C12.4336 11.3127 12.3242 11.3752 12.1425 11.5644C12.0025 11.7101 11.8548 11.8937 11.7063 12.1012C12.4164 12.0882 13.3164 12.0899 14.4521 12.092C14.9257 12.0929 15.4409 12.0938 15.9998 12.0938C16.5586 12.0938 17.0732 12.0929 17.5467 12.092C18.6825 12.0899 19.583 12.0882 20.2927 12.1012C20.1444 11.894 19.9968 11.7106 19.8569 11.565C19.6751 11.3756 19.5653 11.3125 19.5381 11.3015L19.5148 11.2921L19.4919 11.2815C19.0753 11.0881 18.7167 11 15.9998 11C14.5362 11 13.7754 11.0184 13.3034 11.0676ZM22.0387 14.5C21.9231 14.3985 21.7995 14.2926 21.6683 14.1814C21.4775 14.1542 21.2158 14.1324 20.8518 14.1175C20.1146 14.0874 19.0839 14.0893 17.5931 14.092L17.592 14.092C17.111 14.0929 16.5822 14.0938 15.9998 14.0938C15.4169 14.0938 14.8875 14.0929 14.4062 14.092C12.9151 14.0893 11.8842 14.0874 11.1464 14.1175C10.7837 14.1323 10.5225 14.154 10.3316 14.1811C10.2003 14.2924 10.0765 14.3984 9.96081 14.5H11.9998V16.5H8.99976V20H9.99976V19.0833H21.9998V20H22.9998V16.5H19.9998V14.5H22.0387Z" fill="#000000" class="bmwfcol"/><title>car_rear_rays_rg_48</title></svg>