<svg width="72" height="48" viewBox="0 0 48 32" xmlns="http://www.w3.org/2000/svg"><path d="M27.91 8.49932C31.1317 8.5046 34.3523 8.60457 37.5568 8.95593C38.7319 9.08477 39.9024 9.24513 41.0615 9.47796L44.9997 13.1618V14.9999C44.9997 15.7467 45.4904 16.0766 45.9993 16.5856L45.9998 20.5771C44.8472 21.2426 43.6882 21.9791 42.3787 22.2859C41.5598 22.4778 40.7066 22.4977 39.5324 22.4996C38.7962 23.9815 37.267 25 35.5 25C33.7331 25 32.204 23.9816 31.4677 22.4998H14.5323C13.796 23.9816 12.2669 25 10.5 25C8.73292 25 7.20373 23.9815 6.46749 22.4994C5.78621 22.4977 5.30048 22.4876 4.82415 22.4302C3.864 22.3146 2.93136 22.0173 2 21.7656V16.6666C2 16.2915 2.13526 15.8123 2.56505 15.3399C2.97409 14.8904 3.61966 14.4786 4.59486 14.123C6.49701 13.4292 9.9182 12.8554 16.1366 12.8339C18.6834 10.7194 20.4367 9.58711 22.2448 9.0243C23.9523 8.49283 25.6497 8.49561 27.91 8.49932ZM40 20.4966C40.8918 20.4879 41.4229 20.4557 41.9224 20.3387C42.4753 20.2091 43.0241 19.9654 43.9996 19.4187L43.9994 17.4059C43.6437 17.0274 43.3753 16.6826 43.2108 16.3122C42.9981 15.8335 42.999 15.3921 42.9996 15.0545L42.9997 14.0296L40.1642 11.3772C40.5003 11.8163 40.6935 12.3562 40.5473 12.909C40.4225 13.3814 40.0878 13.7597 39.798 14.1406L34.0832 14.9683L17.9319 15.3381L16.7836 14.8333H16.4999C10.1157 14.8333 6.88289 15.4174 5.28012 16.0019C4.33953 16.3449 4.05809 16.6572 4 16.7404V20.2297C4.46306 20.347 4.76231 20.4083 5.06327 20.4446C5.3296 20.4766 5.60411 20.4901 6.00001 20.4957C6.0023 18.0124 8.01614 16 10.5 16C12.9852 16 14.9999 18.0146 15 20.4998H31C31.0001 18.0146 33.0148 16 35.5 16C37.9841 16 39.9982 18.0129 40 20.4966ZM34.2204 10.6763L34.7636 12.8489L38.343 12.3304C37.9343 11.9104 37.4899 11.5244 37.047 11.1398C36.9483 11.0541 36.8497 10.9684 36.7516 10.8825C36.0141 10.8088 35.169 10.7372 34.2204 10.6763ZM28.6309 10.5L28.1719 13.1032L32.7394 12.9986L32.1321 10.5691C31.061 10.5274 29.8926 10.5017 28.6309 10.5ZM26.5995 10.5032C25.0288 10.5182 23.9384 10.5918 22.8392 10.9339C21.6847 11.2933 20.4765 11.9682 18.7255 13.3194L26.1328 13.1498L26.5995 10.5032ZM10.5 18C9.11929 18 8 19.1193 8 20.5C8 21.8807 9.11929 23 10.5 23C11.8807 23 13 21.8807 13 20.5C13 19.1193 11.8807 18 10.5 18ZM35.5 18C34.1193 18 33 19.1193 33 20.5C33 21.8807 34.1193 23 35.5 23C36.8807 23 38 21.8807 38 20.5C38 19.1193 36.8807 18 35.5 18Z" fill="#000000" class="bmwfcol"/><title>car-model-touring_rg_48</title></svg>