<svg width="48" height="48" viewBox="0 0 32 32" xmlns="http://www.w3.org/2000/svg"><path d="M26.6831 10.1035C26.4711 10.0858 26.2312 10.0649 25.9667 10.0419C23.2878 9.80875 18.0851 9.35593 13.8933 9.80571C12.4949 9.95576 11.0244 10.7487 9.81222 11.5254C9.1878 11.9254 8.59413 12.3468 8.07181 12.7237C7.95857 12.8054 7.84965 12.8842 7.74495 12.9601C7.42702 13.1903 7.14773 13.3926 6.90381 13.5605C5.31947 13.8927 4.24745 14.291 3.49566 14.6709C2.8296 15.0076 2.42097 15.3321 2.21424 15.4963C2.1767 15.5261 2.14582 15.5506 2.12126 15.5689L1.78323 15.8215L1.72835 16.2399C1.69523 16.4924 1.68523 16.6961 1.67811 16.8412L1.6773 16.8576C1.67354 16.9339 1.671 16.9799 1.66752 17.0181L1.66556 17.0375C1.64006 17.0679 1.5817 17.1296 1.45752 17.2337L1.15249 17.4894L1.10666 17.8849C0.974725 19.0231 0.967903 19.7162 1.1066 20.918L1.19684 21.6999L1.99749 21.7983L2.05073 21.8047C2.09661 21.8102 2.16248 21.818 2.24313 21.8274C2.40424 21.8461 2.62532 21.8711 2.86445 21.8962C3.13038 21.9241 3.44352 21.9549 3.72523 21.9756C4.28196 23.1711 5.49409 23.9998 6.89978 23.9998C8.17442 23.9998 9.28992 23.3184 9.90191 22.3H22.0978C22.7098 23.3184 23.8253 23.9998 25.1 23.9998C26.5266 23.9998 27.7539 23.1462 28.299 21.9218C28.985 21.6796 29.5821 21.3847 30.0438 21.0153C30.6112 20.5614 31.0325 19.9413 31.0566 19.1559L31.0571 19.1406V19.1253C31.0571 19.0877 31.0588 19.0269 31.0611 18.9472C31.0709 18.6087 31.0904 17.9289 31.0278 17.2379C31.0034 16.9689 30.8889 16.7735 30.8311 16.6841C30.8105 16.6522 30.7888 16.6218 30.7685 16.5946C30.7358 16.2113 30.7124 15.8309 30.6911 15.4864L30.6835 15.3633C30.67 15.1461 30.6568 14.94 30.642 14.7681C30.629 14.6162 30.6099 14.4232 30.5725 14.2672C30.5066 13.9917 30.3385 13.745 30.2538 13.6232C30.139 13.4582 29.9954 13.2765 29.8432 13.0939C29.5369 12.7266 29.1504 12.3022 28.7789 11.9069C28.4053 11.5092 28.037 11.1305 27.7629 10.8518C27.6257 10.7123 27.5115 10.5974 27.4315 10.5171L27.3383 10.4239L27.3043 10.3901L27.0458 10.1337L26.6831 10.1035ZM28.4969 19.6531C28.1183 18.1292 26.741 16.9998 25.1 16.9998C23.234 16.9998 21.7091 18.4599 21.6056 20.3H10.3942C10.2906 18.4599 8.76574 16.9998 6.89978 16.9998C5.15584 16.9998 3.7098 18.2752 3.44362 19.9442C3.32327 19.9328 3.19819 19.9203 3.07307 19.9071L3.02102 19.9016C2.9914 19.4115 3.00361 19.0024 3.05413 18.4809C3.32303 18.2061 3.52219 17.9029 3.61224 17.5064C3.65795 17.3052 3.66762 17.1057 3.67389 16.9763L3.67798 16.8938C3.85165 16.7656 4.07034 16.6214 4.39784 16.4559C4.93604 16.1839 5.77407 15.8573 7.09444 15.5652L9.19875 16.6174L17.2165 16.0307L17.8123 16.6265L19.7243 16.5053C20.4611 16.4582 21.2504 16.4074 21.3813 16.3967C22.4516 16.3094 23.1779 15.9145 23.7308 15.6139L23.8023 15.5751C24.3469 15.2799 24.7162 15.1 25.3 15.1C25.6953 15.1 26.378 15.0772 27.071 15.054L27.2083 15.0494C27.7191 15.0324 28.2296 15.0158 28.6549 15.0069C28.6654 15.1398 28.6758 15.3003 28.6874 15.4872L28.695 15.6114C28.7203 16.0212 28.751 16.5204 28.7985 17.0163C28.8238 17.2811 28.9357 17.4741 28.9943 17.5651C29.0139 17.5954 29.0344 17.6245 29.0538 17.6507C29.0822 18.1032 29.0716 18.4971 29.0633 18.8042C29.0602 18.916 29.0575 19.0163 29.0571 19.1036C29.0542 19.1482 29.0311 19.2643 28.7944 19.4536C28.7136 19.5183 28.615 19.5851 28.4969 19.6531ZM26.3372 12.2544C26.5519 12.4726 26.824 12.752 27.1089 13.0516L27.0313 13.0542C26.3133 13.0782 25.6602 13.1 25.3 13.1C24.1838 13.1 23.4375 13.4979 22.8493 13.8167L22.833 13.8256C22.2703 14.1305 21.8642 14.3507 21.2187 14.4033C21.111 14.4121 20.3504 14.4612 19.5969 14.5093L19.2395 14.532L19.8808 11.6463C22.1753 11.7211 24.3239 11.9073 25.794 12.0346L26.1506 12.0655C26.2058 12.1212 26.2685 12.1846 26.3372 12.2544ZM17.8392 11.6136L17.3047 14.0189L9.60129 14.5826L9.19506 14.3795L9.24197 14.3456C9.75786 13.9734 10.315 13.5785 10.8912 13.2094C12.0801 12.4476 13.2097 11.8905 14.1067 11.7943C15.2899 11.6673 16.5631 11.6164 17.8392 11.6136ZM6.89978 18.9998C7.72821 18.9998 8.39978 19.6713 8.39978 20.4998C8.39978 21.3282 7.72821 21.9998 6.89978 21.9998C6.07135 21.9998 5.39978 21.3282 5.39978 20.4998C5.39978 19.6713 6.07135 18.9998 6.89978 18.9998ZM25.1 18.9998C25.9284 18.9998 26.6 19.6713 26.6 20.4998C26.6 21.3282 25.9284 21.9998 25.1 21.9998C24.2715 21.9998 23.6 21.3282 23.6 20.4998C23.6 19.6713 24.2715 18.9998 25.1 18.9998Z" fill="#000000" class="bmwfcol"/><title>car_bmw_i3_side_rg_48</title></svg>