<svg width="48" height="48" viewBox="0 0 32 32" xmlns="http://www.w3.org/2000/svg"><path d="M2 18.9058C3.12116 19.6218 4.48824 20 6 20C8.02725 20 9.79433 19.3199 11.0571 18.0571C12.3199 16.7943 13 15.0272 13 13C13 10.9728 12.3199 9.20567 11.0571 7.94289C9.79433 6.68011 8.02725 6 6 6C4.48824 6 3.12116 6.37821 2 7.09422V9.76357C2.11132 9.61917 2.23059 9.48362 2.35711 9.35711C3.19433 8.51989 4.42725 8 6 8C7.57275 8 8.80567 8.51989 9.64289 9.35711C10.3892 10.1035 10.8834 11.1643 10.9819 12.5H9.49902C9.47664 11.4397 8.6989 10.7719 8.22565 10.4524C7.84101 10.1928 7.42853 10.0894 7.06257 10.0431C6.72138 9.99991 6.35439 9.99997 6.03229 10H5.96673C5.64464 9.99997 5.27764 9.99991 4.93645 10.0431C4.57049 10.0894 4.15801 10.1928 3.77337 10.4524C3.30012 10.7719 2.52239 11.4397 2.50001 12.5H2V14.5001H2.79343L2.79893 14.5173L3.43334 17.4251C3.02336 17.2135 2.6637 16.9495 2.35711 16.6429C2.23059 16.5164 2.11132 16.3808 2 16.2364V18.9058ZM4.72967 13.9843L4.5371 13.1017C4.51067 12.884 4.49951 12.6873 4.49951 12.5469C4.49951 12.5277 4.50316 12.4853 4.56349 12.4038C4.62972 12.3144 4.74053 12.2126 4.89232 12.1101C4.92435 12.0885 4.99797 12.0513 5.18757 12.0273C5.3903 12.0016 5.63489 12 5.99951 12C6.36413 12 6.60872 12.0016 6.81145 12.0273C7.00105 12.0513 7.07468 12.0885 7.10671 12.1101C7.25849 12.2126 7.3693 12.3144 7.43554 12.4038C7.49587 12.4853 7.49951 12.5277 7.49951 12.5469C7.49951 12.6895 7.48801 12.8902 7.46067 13.1118L7.2719 13.9771C7.23182 14.0908 7.19088 14.179 7.15277 14.239L7.15089 14.2407C7.13918 14.2511 7.07729 14.3062 6.91092 14.3665C6.70229 14.4421 6.39507 14.5 5.99951 14.5C5.60396 14.5 5.29673 14.4421 5.0881 14.3665C4.92174 14.3062 4.85985 14.2511 4.84813 14.2407L4.84626 14.239C4.80895 14.1803 4.76893 14.0945 4.72967 13.9843ZM5.26823 16.4527C5.50369 16.4844 5.74866 16.5 5.99951 16.5C6.25072 16.5 6.49603 16.4843 6.7318 16.4525L6.39664 17.9887C6.26694 17.9962 6.13472 18 6 18C5.86528 18 5.73306 17.9962 5.60336 17.9887L5.26823 16.4527ZM9.64289 16.6429C9.3363 16.9495 8.97664 17.2135 8.56666 17.4251L9.20317 14.5077L9.20559 14.5001H10.8237C10.6048 15.3741 10.1921 16.0937 9.64289 16.6429Z" fill="#000000" class="bmwfcol"/><path d="M13.6226 8.99999C13.2669 8.26771 12.8036 7.59458 12.2338 6.99999H21.2253L24.0514 11.8629L21.9143 14H14.452C14.4845 13.6715 14.5007 13.3378 14.5007 13C14.5007 12.6622 14.4845 12.3285 14.452 12H21.0859L21.5488 11.5371L20.0744 8.99999H13.6226Z" fill="#000000" class="bmwfcol"/><path d="M12.7671 18.3812C13.2115 17.8068 13.5711 17.1751 13.8451 16.4999H22.6857L24.1315 15.0541L29.9999 14.2611V16.2793L25.0684 16.9457L23.5141 18.4999H12.8857L12.7671 18.3812Z" fill="#000000" class="bmwfcol"/><path d="M29.9999 12V9.99998H24.925L26.0822 12H29.9999Z" fill="#000000" class="bmwfcol"/><path d="M25.9824 28H23.9119L21.7683 20H23.8389L25.9824 28Z" fill="#000000" class="bmwfcol"/><path d="M14.5959 20L12.4523 28H10.3818L12.5254 20H14.5959Z" fill="#000000" class="bmwfcol"/><path d="M15.5003 24H21.0003V22H15.5003V24Z" fill="#000000" class="bmwfcol"/><title>car_cockpit_rg_48</title></svg>