<svg width="48" height="48" viewBox="0 0 32 32" xmlns="http://www.w3.org/2000/svg"><path d="M4.61358 9.76498C5.0838 9.83738 5.46353 9.96419 5.81543 10.1625C6.01975 9.79406 6.24992 9.40451 6.49748 9.02327C6.82245 8.52284 7.19047 8.01636 7.58267 7.58524C7.9582 7.17245 8.41646 6.76052 8.93879 6.52684C10.2582 5.89775 11.5643 5.7998 16 5.7998C20.4359 5.7998 21.7436 5.89769 23.0621 6.52726C23.5838 6.76152 24.0418 7.17346 24.4174 7.58649C24.8095 8.01761 25.1775 8.52389 25.5024 9.02413C25.7499 9.40509 25.98 9.79432 26.1843 10.1625C26.5362 9.96414 26.9159 9.83736 27.3861 9.76498C28.0214 9.66718 28.853 9.6665 29.9999 9.6665V11.6665C28.7855 11.6665 28.1378 11.6728 27.6904 11.7417C27.49 11.7726 27.3464 11.813 27.2149 11.8788C27.8478 12.467 28.4594 13.0616 28.9357 13.6424C29.4791 14.3054 30 15.1287 30 16.0498V25.9998H23.3333V24L28 23.9998V22C28 21.1274 27.6936 20.6788 27.3689 20.4232C27.0043 20.1362 26.4931 20 26 20H22C21.5069 20 20.9957 20.1362 20.6311 20.4232C20.3064 20.6788 20 21.1274 20 22V24H12V22C12 21.1274 11.6936 20.6788 11.3689 20.4232C11.0043 20.1362 10.4931 20 10 20H6C5.50689 20 4.99568 20.1362 4.63106 20.4232C4.30642 20.6788 4 21.1274 4 22V23.9998L8.66667 24V25.9998H2V16.0498C2 15.1287 2.52085 14.3054 3.06435 13.6424C3.54054 13.0616 4.15217 12.4671 4.785 11.8789C4.65335 11.8131 4.50969 11.7726 4.30923 11.7417C3.86195 11.6728 3.21438 11.6665 2 11.6665V9.6665C3.14696 9.6665 3.97837 9.66718 4.61358 9.76498ZM16 7.7998C11.4099 7.7998 10.6203 7.93851 9.78976 8.33681L9.77466 8.34406L9.75931 8.35079C9.6082 8.41713 9.36927 8.59344 9.06209 8.9311C8.76762 9.25479 8.46522 9.66535 8.17485 10.1125C8.02798 10.3387 7.88753 10.569 7.75606 10.7951C7.96336 10.7763 8.18331 10.7599 8.41659 10.7455C10.0186 10.6465 12.4139 10.6318 16 10.6318C19.5861 10.6318 21.9814 10.6465 23.5834 10.7455C23.8165 10.7599 24.0363 10.7762 24.2435 10.795C24.1122 10.5694 23.9719 10.3395 23.8252 10.1136C23.5349 9.66664 23.2324 9.25604 22.9378 8.9321C22.6306 8.59428 22.3912 8.41715 22.2392 8.35013L22.2244 8.3436L22.2098 8.3366C21.3809 7.93859 20.5904 7.7998 16 7.7998ZM28 16.7998H22V14.7998H27.2965C26.8554 14.2824 26.262 13.7189 25.5702 13.0822C25.4928 13.0427 25.3535 12.9883 25.1098 12.9343C24.7463 12.8537 24.2236 12.7888 23.4601 12.7417C21.9331 12.6473 19.607 12.6318 16 12.6318C12.393 12.6318 10.0669 12.6473 8.5399 12.7417C7.77636 12.7888 7.25368 12.8537 6.89016 12.9343C6.64645 12.9883 6.50724 13.0427 6.42976 13.0822C5.73798 13.7189 5.14456 14.2824 4.70355 14.7998H10V16.7998H4V18.4645C4.66611 18.1239 5.38576 18 6 18H10C10.8069 18 11.7957 18.2138 12.6061 18.8518C13.4564 19.5212 14 20.5726 14 22H18C18 20.5726 18.5436 19.5212 19.3939 18.8518C20.2043 18.2138 21.1931 18 22 18H26C26.6142 18 27.3339 18.1239 28 18.4645V16.7998Z" fill="#000000" class="bmwfcol"/><path d="M4.5 22C4.5 21.1716 5.17157 20.5 6 20.5C6.82843 20.5 7.5 21.1716 7.5 22C7.5 22.8284 6.82843 23.5 6 23.5C5.17157 23.5 4.5 22.8284 4.5 22Z" fill="#000000" class="bmwfcol"/><path d="M8.5 22C8.5 21.1716 9.17157 20.5 10 20.5C10.8284 20.5 11.5 21.1716 11.5 22C11.5 22.8284 10.8284 23.5 10 23.5C9.17157 23.5 8.5 22.8284 8.5 22Z" fill="#000000" class="bmwfcol"/><path d="M22 20.5C21.1716 20.5 20.5 21.1716 20.5 22C20.5 22.8284 21.1716 23.5 22 23.5C22.8284 23.5 23.5 22.8284 23.5 22C23.5 21.1716 22.8284 20.5 22 20.5Z" fill="#000000" class="bmwfcol"/><path d="M24.5 22C24.5 21.1716 25.1716 20.5 26 20.5C26.8284 20.5 27.5 21.1716 27.5 22C27.5 22.8284 26.8284 23.5 26 23.5C25.1716 23.5 24.5 22.8284 24.5 22Z" fill="#000000" class="bmwfcol"/><title>car_rear_sports_exhaust_rg_48</title></svg>