<svg width="48" height="48" viewBox="0 0 32 32" xmlns="http://www.w3.org/2000/svg"><path d="M12.446 6.59951L11.4108 2.73581L13.3426 2.21817L14.3779 6.08187L12.446 6.59951Z" fill="#000000" class="bmwfcol"/><path d="M18.6577 29.7817L17.6224 25.918L19.5543 25.4004L20.5896 29.2641L18.6577 29.7817Z" fill="#000000" class="bmwfcol"/><path d="M15.478 4.01336L15.1403 2.02641C15.4258 2.00885 15.7125 2 16.0002 2C19.7132 2 23.2742 3.475 25.8997 6.10051L24.4841 7.51613C22.234 5.26607 19.1823 4.002 16.0002 4.002C15.8257 4.002 15.6516 4.0058 15.478 4.01336Z" fill="#000000" class="bmwfcol"/><path d="M9.75773 3.46877C8.41696 4.13664 7.17983 5.02139 6.10071 6.1005L7.51634 7.51613C8.38951 6.64296 9.38341 5.91827 10.4588 5.35832L9.75773 3.46877Z" fill="#000000" class="bmwfcol"/><path d="M16.522 27.9867C16.3486 27.9942 16.1746 27.998 16.0002 27.998C12.8181 27.998 9.7664 26.7339 7.51634 24.4839L6.10071 25.8995C8.72622 28.525 12.2872 30 16.0002 30C16.2877 30 16.5743 29.9912 16.8597 29.9736L16.522 27.9867Z" fill="#000000" class="bmwfcol"/><path d="M21.5413 26.6419L22.2423 28.5314C23.5832 27.8635 24.8205 26.9787 25.8997 25.8995L24.4841 24.4839C23.6108 25.3571 22.6168 26.0819 21.5413 26.6419Z" fill="#000000" class="bmwfcol"/><path d="M15.0405 14.3192L12.6013 14.9728L11.9219 16.1495L12.5411 18.4604L14.141 19.9307L16.7363 19.2353L16.8412 19.0537L17.0228 19.1586L19.6563 18.4529L20.266 16.3806L19.6493 14.079L18.4726 13.3996L16.0333 14.0532L15.6034 14.4344L15.0405 14.3192ZM18.0544 16.8116L17.3278 17.0063L17.0204 15.8593L17.9864 15.6004L18.1887 16.3553L18.0544 16.8116ZM15.3959 17.5239L14.685 17.7144L14.3225 17.3812L14.1227 16.6357L15.0886 16.3769L15.3959 17.5239Z" fill="#000000" class="bmwfcol"/><path d="M7.76654 13.0087C7.36956 13.0717 6.88748 13.202 6.32862 13.3532C6.22783 13.3804 6.12434 13.4084 6.01855 13.4368L6.53619 15.3686C6.65511 15.3368 6.76604 15.3068 6.86985 15.2789L6.87243 15.2782C7.28668 15.1665 7.58741 15.0854 7.82916 15.0323C7.6836 15.2856 7.54974 15.5376 7.43911 15.782C7.20515 16.2991 6.9721 16.9956 7.15916 17.6937L8.96258 24.4241L13.7922 23.13L13.5674 22.2911C16.3014 21.7325 18.6478 21.1038 21.2948 20.2205L21.5196 21.0595L26.3492 19.7654L24.5458 13.0349C24.3588 12.3368 23.8087 11.8502 23.3476 11.5194C23.1295 11.363 22.8876 11.2117 22.6349 11.0651C22.8709 10.9902 23.1719 10.9101 23.5866 10.7996C23.6912 10.7717 23.803 10.742 23.9229 10.7098L23.4053 8.77799C23.2995 8.80633 23.1954 8.83398 23.0945 8.86076C22.5349 9.00932 22.0526 9.13735 21.6773 9.28135C21.4136 9.38253 21.1658 9.50427 20.9404 9.66893C20.7942 9.51877 20.639 9.36586 20.4785 9.21683C20.1835 8.94278 19.8529 8.6649 19.514 8.43942C19.193 8.22576 18.7795 8.00078 18.3297 7.93118L18.3283 7.93098C17.2746 7.76939 16.5738 7.89083 14.0325 8.57177C12.6406 8.94473 11.8253 9.18167 11.2747 9.40014C10.6581 9.64476 10.3531 9.87528 9.99201 10.1645C9.63632 10.4495 9.3902 10.8516 9.21894 11.1971C9.03814 11.5619 8.8907 11.968 8.77227 12.353C8.70784 12.5624 8.64986 12.7726 8.59832 12.9759C8.32089 12.9461 8.04554 12.9645 7.76654 13.0087ZM11.2425 11.7253C11.5264 11.498 11.6549 11.4009 12.0123 11.2592C12.4356 11.0912 13.1349 10.8828 14.5501 10.5036C17.138 9.81021 17.4461 9.81913 18.0238 9.90766C18.0238 9.90766 18.0337 9.90946 18.052 9.91538C18.0721 9.92186 18.0997 9.93236 18.1352 9.94868C18.2077 9.98196 18.2983 10.0327 18.406 10.1044C18.6234 10.2491 18.8671 10.4497 19.1173 10.6821L19.1436 10.7067C18.4393 10.8787 17.5419 11.121 16.3985 11.4299L16.3975 11.4302C15.9408 11.5535 15.4447 11.6875 14.9061 11.8318C14.3676 11.9761 13.8711 12.1081 13.4139 12.2296L13.4126 12.2299C12.2679 12.5342 11.3694 12.773 10.6731 12.9763L10.6839 12.9411C10.7843 12.6146 10.895 12.319 11.0109 12.0853C11.0683 11.9695 11.1213 11.8804 11.1673 11.8156C11.1898 11.7839 11.2084 11.7611 11.2224 11.7456C11.235 11.7318 11.2425 11.7253 11.2425 11.7253ZM20.8955 12.393C21.2276 12.5677 21.522 12.7275 21.7758 12.8802C21.2807 13.1052 20.7218 13.3207 20.0289 13.5641L20.548 15.5014C21.4582 15.185 22.2016 14.8983 22.8862 14.5686L23.8998 18.3512L22.9338 18.61L22.6716 17.6314L21.6557 17.9846C18.3237 19.1429 15.6017 19.8723 12.1369 20.5352L11.0805 20.7373L11.3427 21.7158L10.3768 21.9746L9.36319 18.1918C10.121 18.1351 10.9082 18.0117 11.8547 17.8306L11.3356 15.8933C10.6139 16.0289 10.0221 16.1217 9.48087 16.1745C9.62437 15.9152 9.79949 15.6295 9.99973 15.3122C10.1713 15.2375 10.4103 15.1499 10.746 15.0437C11.4481 14.8217 12.4417 14.5576 13.8818 14.1748C14.3473 14.051 14.8596 13.9148 15.4237 13.7637C15.9879 13.6125 16.4995 13.4743 16.9645 13.3488C18.4029 12.9603 19.395 12.6924 20.1136 12.5337C20.4584 12.4576 20.7095 12.4139 20.8955 12.393Z" fill="#000000" class="bmwfcol"/><title>car_front_tilted_with_scale_rg_48</title></svg>