<svg width="48" height="48" viewBox="0 0 32 32" xmlns="http://www.w3.org/2000/svg"><path d="M17.0001 2V5.5H15.0001V2H17.0001Z" fill="#000000" class="bmwfcol"/><path d="M26.8661 4.37549L25.1161 7.40658L23.384 6.40658L25.134 3.37549L26.8661 4.37549Z" fill="#000000" class="bmwfcol"/><path d="M6.86608 3.37549L8.61608 6.40658L6.88403 7.40658L5.13403 4.37549L6.86608 3.37549Z" fill="#000000" class="bmwfcol"/><path d="M5.13403 27.6299L6.88403 24.5988L8.61608 25.5988L6.86608 28.6299L5.13403 27.6299Z" fill="#000000" class="bmwfcol"/><path d="M15.0001 30.0054V26.5054H17.0001V30.0054H15.0001Z" fill="#000000" class="bmwfcol"/><path d="M25.134 28.6299L23.384 25.5988L25.1161 24.5988L26.8661 27.6299L25.134 28.6299Z" fill="#000000" class="bmwfcol"/><path d="M18.8866 10C17.2361 9.99979 15.9815 9.99962 14.7097 10.4271C13.4632 10.8462 12.2706 11.6468 10.6006 13.0311C7.57816 13.2954 5.93254 13.4423 4.76518 13.7018C3.4897 13.9853 2.75292 14.4107 1.54774 15.1066L1.00027 15.4226L1 20.2707L1.74122 20.4693C2.66139 20.7159 3.19989 20.8509 3.58273 20.9214C3.66773 20.937 3.74554 20.9496 3.81799 20.9596C4.37127 22.1638 5.588 23 7.00004 23C8.39624 23 9.6015 22.1825 10.1632 21H20.8369C21.3986 22.1825 22.6038 23 24 23C25.3981 23 26.6048 22.1803 27.1655 20.9952C27.6003 20.9845 27.9981 20.9503 28.4102 20.8424C29.0328 20.6793 29.6385 20.3636 30.5002 19.866L31.0003 19.5773L31 16.5858L30.7071 16.2929C30.2594 15.8452 30.1095 15.5812 30.0535 15.4411C30.0056 15.3214 30 15.2409 30 15L29.9999 13.0837L27.5411 12.8685L27.4483 12.8147C25.9682 11.9574 24.76 11.2575 23.5269 10.7791C22.1754 10.2547 20.8122 10 19 10L18.8866 10ZM27.9035 18.9076C27.7663 18.9436 27.6313 18.9656 27.4615 18.9791C27.21 17.2932 25.756 16 24 16C22.2368 16 20.7781 17.3039 20.5355 19H10.4646C10.222 17.3039 8.76328 16 7.00004 16C5.28171 16 3.8526 17.2383 3.55638 18.8712C3.40574 18.8358 3.22407 18.7907 3.00009 18.733L3.00021 16.5788C3.89751 16.0682 4.38084 15.836 5.19911 15.6541C6.24237 15.4223 7.78642 15.2848 11.0873 14.9962L11.4015 14.9688L11.643 14.7661C13.4192 13.2757 14.4221 12.6338 15.347 12.3229C16.2773 12.0102 17.2068 12 19 12C20.5964 12 21.7104 12.2196 22.8035 12.6436C23.8868 13.064 24.966 13.6887 26.5146 14.5853L26.9239 14.8222L28 14.9163L28 15.0204C27.9999 15.2808 27.9997 15.6917 28.1966 16.1839C28.3537 16.5768 28.6134 16.9705 29.0001 17.3995L29.0002 18.4165C28.463 18.7113 28.164 18.8394 27.9035 18.9076ZM5.50004 19.5C5.50004 18.6716 6.17162 18 7.00004 18C7.82847 18 8.50004 18.6716 8.50004 19.5C8.50004 20.3284 7.82847 21 7.00004 21C6.17162 21 5.50004 20.3284 5.50004 19.5ZM22.5 19.5C22.5 18.6716 23.1716 18 24 18C24.8285 18 25.5 18.6716 25.5 19.5C25.5 20.3284 24.8285 21 24 21C23.1716 21 22.5 20.3284 22.5 19.5Z" fill="#000000" class="bmwfcol"/><title>car_side_rays_rg_48</title></svg>