<svg width="48" height="48" viewBox="0 0 32 32" xmlns="http://www.w3.org/2000/svg"><path d="M19 10H18.8866C17.2361 9.9998 15.9815 9.99963 14.7097 10.4271C13.4632 10.8462 12.2706 11.6468 10.6006 13.0311C7.57816 13.2954 5.93254 13.4423 4.76518 13.7018C3.4897 13.9853 2.75292 14.4107 1.54774 15.1066L1.00027 15.4226L1 20.2707L1.74122 20.4693C2.66139 20.7159 3.19989 20.8509 3.58273 20.9214C3.66771 20.937 3.74551 20.9496 3.81795 20.9596C4.37123 22.1638 5.58797 23 7 23C8.39619 23 9.60144 22.1825 10.1632 21H20.8368C21.3986 22.1825 22.6038 23 24 23C25.3981 23 26.6047 22.1803 27.1655 20.9952C27.6002 20.9845 27.9981 20.9503 28.4102 20.8424C29.0328 20.6793 29.6385 20.3636 30.5002 19.866L31.0003 19.5773L31 16.5858L30.7071 16.2929C30.2594 15.8452 30.1095 15.5812 30.0535 15.4411C30.0056 15.3214 30 15.2408 30 15L29.9999 13.0836L27.5411 12.8685L27.4483 12.8147C25.9682 11.9574 24.76 11.2575 23.5269 10.7791C22.1754 10.2547 20.8122 10 19 10ZM27.4615 18.9791C27.2099 17.2931 25.756 16 24 16C22.2368 16 20.778 17.3039 20.5354 19H10.4646C10.222 17.3039 8.76324 16 7 16C5.28167 16 3.85255 17.2383 3.55633 18.8712C3.40571 18.8358 3.22405 18.7907 3.00009 18.733L3.00021 16.5788C3.89751 16.0682 4.38084 15.836 5.19911 15.6541C6.24237 15.4223 7.78642 15.2848 11.0873 14.9962L11.4015 14.9688L11.643 14.7661C13.4192 13.2757 14.4221 12.6338 15.347 12.3229C16.2773 12.0102 17.2068 12 19 12C20.5964 12 21.7104 12.2196 22.8035 12.6436C23.8868 13.064 24.966 13.6887 26.5146 14.5853L26.9239 14.8222L28 14.9163V15.0204C27.9999 15.2808 27.9997 15.6917 28.1966 16.1839C28.3537 16.5768 28.6134 16.9705 29.0001 17.3995L29.0002 18.4165C28.463 18.7113 28.164 18.8394 27.9035 18.9076C27.7663 18.9436 27.6313 18.9656 27.4615 18.9791ZM7 18C7.82843 18 8.5 18.6716 8.5 19.5C8.5 20.3284 7.82843 21 7 21C6.17157 21 5.5 20.3284 5.5 19.5C5.5 18.6716 6.17157 18 7 18ZM24 18C24.8284 18 25.5 18.6716 25.5 19.5C25.5 20.3284 24.8284 21 24 21C23.1716 21 22.5 20.3284 22.5 19.5C22.5 18.6716 23.1716 18 24 18Z" fill="#000000" class="bmwfcol"/><title>car-side_rg_48</title></svg>