<svg width="48" height="48" viewBox="0 0 32 32" xmlns="http://www.w3.org/2000/svg"><path d="M27 6.94871V26.3996L26.9659 26.5268C26.7157 27.4608 26.4761 28.2453 26.171 28.8665C25.8524 29.515 25.4358 30.0416 24.8104 30.4007C24.2147 30.7427 23.5255 30.8756 22.7789 30.9382C22.0417 31 21.1319 31 20.042 31H19.958C18.8682 31 17.9583 31 17.2211 30.9382C16.4745 30.8756 15.7852 30.7427 15.1896 30.4007C14.5642 30.0416 14.1476 29.515 13.829 28.8665C13.5239 28.2453 13.2843 27.4608 13.0341 26.5268L13 26.3996V13.4142L9 17.4142V14.5858L13 10.5858V6.94877C13 6.11685 12.9999 5.38583 13.0689 4.77989C13.1412 4.14498 13.299 3.53365 13.6949 2.99627C14.0898 2.46042 14.641 2.10695 15.2874 1.82477C15.9253 1.54629 16.7399 1.30237 17.7412 1.03407L17.8683 1H22.1317L22.2588 1.03407C23.2601 1.30237 24.0747 1.54629 24.7126 1.82476C25.359 2.10693 25.9102 2.4604 26.3051 2.99625C26.701 3.53363 26.8588 4.14496 26.9311 4.77988C27.0001 5.38579 27 6.11683 27 6.94871ZM25 7.00007C25 6.10327 24.9985 5.48587 24.9439 5.00606C24.8912 4.54281 24.799 4.32383 24.695 4.18267C24.5898 4.03998 24.3911 3.86666 23.9124 3.65772C23.4462 3.45418 22.7983 3.25165 21.8678 3H18.1322C17.2018 3.25165 16.5538 3.45418 16.0876 3.65772C15.609 3.86667 15.4102 4.03999 15.305 4.18269C15.201 4.32386 15.1088 4.54284 15.0561 5.00608C15.0015 5.48589 15 6.10329 15 7.00007V10.3108C16.4091 9.45412 18.1121 9 20 9C21.8879 9 23.5909 9.45411 25 10.3108V7.00007ZM17.5729 14.7097C18.0004 15.9815 18.0002 17.2361 18 18.8866V19C18 20.8122 17.7453 22.1754 17.2209 23.5269C17.0913 23.861 16.9454 24.1932 16.7846 24.5295C17.7504 24.8348 18.8264 25 20 25C21.1736 25 22.2496 24.8348 23.2153 24.5296C23.0545 24.1932 22.9086 23.861 22.779 23.5269C22.2546 22.1754 21.9999 20.8122 21.9999 19V18.8866C21.9997 17.2361 21.9995 15.9815 22.4271 14.7097C22.7193 13.8405 23.197 12.9975 23.9289 12.0006C22.8685 11.3648 21.546 11 20 11C18.4539 11 17.1315 11.3649 16.0711 12.0006C16.8029 12.9975 17.2807 13.8405 17.5729 14.7097ZM20 27C18.5023 27 17.1026 26.7678 15.8342 26.3204C15.6704 26.6092 15.4987 26.9068 15.3198 27.216C15.4232 27.5258 15.5222 27.7771 15.6241 27.9846C15.8212 28.3858 15.9983 28.5589 16.1854 28.6663C16.4022 28.7908 16.7442 28.8912 17.3883 28.9452C18.0322 28.9992 18.8585 29 20 29C21.1415 29 21.9678 28.9992 22.6117 28.9452C23.2558 28.8912 23.5978 28.7908 23.8146 28.6663C24.0017 28.5589 24.1788 28.3858 24.3759 27.9846C24.4778 27.7771 24.5768 27.5259 24.6802 27.2161C24.5012 26.9068 24.3295 26.6092 24.1657 26.3204C22.8974 26.7679 21.4977 27 20 27ZM25 13.973C24.6736 14.4906 24.4641 14.9268 24.3228 15.347C24.0101 16.2773 23.9999 17.2068 23.9999 19C23.9999 20.5964 24.2195 21.7104 24.6436 22.8035C24.7491 23.0755 24.8676 23.3473 25 23.6264V13.973ZM15 23.6262C15.1324 23.3472 15.2508 23.0755 15.3564 22.8035C15.7804 21.7104 16 20.5964 16 19C16 17.2068 15.9898 16.2773 15.6771 15.347C15.5359 14.9269 15.3263 14.4906 15 13.9731V23.6262Z" fill="#000000" class="bmwfcol"/><path d="M4 20.1999V15.9999H6V20.1999C6 21.1727 6.31989 21.9056 6.80711 22.3928L9.11018 24.696V21.1102L10.8602 22.8602V27.8751H5.875L4.125 26.1251H7.71084L5.39289 23.807C4.48011 22.8943 4 21.6272 4 20.1999Z" fill="#000000" class="bmwfcol"/><title>car-door-close_rg_48</title></svg>