<svg width="48" height="48" viewBox="0 0 32 32" xmlns="http://www.w3.org/2000/svg"><path d="M2 22H7.25611C7.87385 23.7478 9.54072 25.0001 11.5001 25.0001C13.4618 25.0001 15.1304 23.7447 15.7463 21.9936C16.3082 21.9797 16.8051 21.9361 17.3195 21.8002C18.0965 21.5948 18.8633 21.1948 20.0033 20.5307L20.5 20.2414L20.4996 16.5884L20.2099 16.2961C19.6014 15.6821 19.3701 15.2931 19.273 15.0482C19.1837 14.823 19.1782 14.6578 19.1782 14.3333L19.1781 12.0844L16.1535 11.8173L15.9786 11.7152C14.0139 10.5668 12.438 9.64581 10.8324 9.01727C9.08731 8.33408 7.32504 8.00001 4.96399 8.00001L4.84402 8.00001C3.78065 7.99992 2.85561 7.99985 2 8.06168V10.0675C2.79805 10.0028 3.73513 10 4.96399 10C7.10711 10 8.61821 10.2982 10.1034 10.8796C11.5585 11.4493 13.0048 12.2942 15.0383 13.4821L15.5316 13.7702L17.1782 13.9156L17.1782 14.3558C17.1781 14.6974 17.1779 15.1903 17.4138 15.7852C17.6135 16.2891 17.9572 16.8097 18.4997 17.4007L18.4998 19.0877C17.6762 19.5518 17.2174 19.7585 16.8085 19.8665C16.5543 19.9337 16.3056 19.9672 15.9708 19.9838C15.7147 17.7417 13.8108 16.0001 11.5001 16.0001C9.18381 16.0001 7.27628 17.7501 7.02754 20H2V22ZM9.00007 20.5001C9.00007 19.1194 10.1194 18.0001 11.5001 18.0001C12.8808 18.0001 14.0001 19.1194 14.0001 20.5001C14.0001 21.8808 12.8808 23.0001 11.5001 23.0001C10.1194 23.0001 9.00007 21.8808 9.00007 20.5001Z" fill="#000000" class="bmwfcol"/><path d="M21.4902 10.7588C21.8701 10.2477 22.425 9.99992 22.9999 9.99992H24.9999C25.5748 9.99992 26.1298 10.2477 26.5096 10.7588C26.8639 11.2355 26.9999 11.8495 26.9999 12.4999V14.4999C26.9999 15.1504 26.8639 15.7644 26.5096 16.2411C26.1298 16.7521 25.5748 16.9999 24.9999 16.9999H22.9999C22.425 16.9999 21.8701 16.7521 21.4902 16.2411C21.1359 15.7644 20.9999 15.1504 20.9999 14.4999V12.4999C20.9999 11.8495 21.1359 11.2355 21.4902 10.7588ZM23.0709 11.9999C23.0425 12.0692 22.9999 12.2201 22.9999 12.4999V14.4999C22.9999 14.7797 23.0425 14.9306 23.0709 14.9999H24.9289C24.9573 14.9306 24.9999 14.7797 24.9999 14.4999V12.4999C24.9999 12.2201 24.9573 12.0692 24.9289 11.9999H23.0709Z" fill="#000000" class="bmwfcol"/><path d="M22 20H26V18H22V20Z" fill="#000000" class="bmwfcol"/><title>car_side_rear_carrier_rg_48</title></svg>