<svg width="48" height="48" viewBox="0 0 32 32" xmlns="http://www.w3.org/2000/svg"><path d="M17.0001 2V5.5H15.0001V2H17.0001Z" fill="#000000" class="bmwfcol"/><path d="M24.8661 4.37549L23.1161 7.40658L21.384 6.40658L23.134 3.37549L24.8661 4.37549Z" fill="#000000" class="bmwfcol"/><path d="M8.86608 3.37549L10.6161 6.40658L8.88403 7.40658L7.13403 4.37549L8.86608 3.37549Z" fill="#000000" class="bmwfcol"/><path d="M7.13403 27.6299L8.88403 24.5988L10.6161 25.5988L8.86608 28.6299L7.13403 27.6299Z" fill="#000000" class="bmwfcol"/><path d="M15.0001 30.0054V26.5054H17.0001V30.0054H15.0001Z" fill="#000000" class="bmwfcol"/><path d="M23.134 28.6299L21.384 25.5988L23.1161 24.5988L24.8661 27.6299L23.134 28.6299Z" fill="#000000" class="bmwfcol"/><path d="M15.3734 14.8125H12.8783L11.8999 15.7334V18.0595L13.0827 19.8125H15.734L15.8999 19.6563L16.0658 19.8125H18.7567L19.8999 18.0495L19.8999 15.7334L18.9215 14.8125H16.4264L15.8999 15.0602L15.3734 14.8125ZM13.8999 17.4479V16.8125H14.8999V17.8125H14.1459L13.8999 17.4479ZM16.8999 16.8125H17.8999V17.4578L17.6699 17.8125H16.8999V16.8125Z" fill="#000000" class="bmwfcol"/><path d="M8.69911 11.664C8.29936 11.6221 7.80064 11.6232 7.22171 11.6246L7.21948 11.6246C7.11556 11.6248 7.00888 11.625 6.8999 11.625V13.625C7.024 13.625 7.13975 13.6249 7.24801 13.6247C7.67713 13.6241 7.98861 13.6236 8.2359 13.6348C8.02974 13.8418 7.83522 14.0506 7.66508 14.2581C7.30528 14.697 6.8999 15.3094 6.8999 16.0321V23H11.8999V22.1315C14.6854 22.2995 17.1145 22.2995 19.8999 22.1315V23H24.8999V16.0321C24.8999 15.3094 24.4945 14.697 24.1347 14.2581C23.9646 14.0506 23.7701 13.8418 23.5639 13.6348C23.8112 13.6236 24.1227 13.6241 24.5518 13.6247C24.6599 13.6249 24.7761 13.625 24.8999 13.625V11.625C24.7901 11.625 24.6828 11.6248 24.5781 11.6246C23.9991 11.6232 23.5003 11.6221 23.1005 11.664C22.8196 11.6935 22.5488 11.7469 22.2885 11.8476C22.1861 11.6648 22.0758 11.4769 21.9594 11.2914C21.7454 10.9504 21.4979 10.5964 21.229 10.2909C20.9797 10.0077 20.6478 9.6912 20.2437 9.50566C19.3414 9.05473 18.4723 9 15.8999 9C14.4583 9 13.5861 9.01793 12.9869 9.08606C12.3278 9.16099 11.9631 9.30127 11.5563 9.50556C11.1519 9.69081 10.82 10.0072 10.5709 10.29C10.3019 10.5956 10.0544 10.9497 9.84032 11.2909C9.72387 11.4766 9.61347 11.6646 9.51107 11.8476C9.25081 11.747 8.98006 11.6935 8.69911 11.664ZM12.438 11.3008C12.6796 11.1787 12.8173 11.1182 13.2128 11.0733C13.6794 11.0202 14.4354 11 15.8999 11C18.6198 11 18.9592 11.097 19.3613 11.3006L19.3851 11.3127L19.4095 11.3234C19.4102 11.3237 19.4186 11.3277 19.4347 11.3381C19.4524 11.3496 19.4764 11.3669 19.5065 11.3919C19.5679 11.4428 19.6423 11.5152 19.7278 11.6124C19.9003 11.8084 20.0838 12.0652 20.2653 12.3545L20.2844 12.385C19.5595 12.3689 18.6296 12.3707 17.4451 12.3731C16.9718 12.3741 16.4578 12.3751 15.8999 12.3751C15.342 12.3751 14.8274 12.3741 14.3541 12.3731C13.1699 12.3707 12.2402 12.3689 11.515 12.385L11.5346 12.3537C11.7161 12.0643 11.8995 11.8076 12.0719 11.6118C12.1574 11.5147 12.2316 11.4424 12.2928 11.3918C12.3228 11.3669 12.3467 11.3498 12.3642 11.3384C12.3799 11.3283 12.3881 11.3244 12.3888 11.324L12.4137 11.3131L12.438 11.3008ZM21.5401 14.4673C21.8156 14.722 22.0586 14.9525 22.2642 15.1657C21.7278 15.2548 21.1321 15.3183 20.3999 15.3741V17.3798C21.361 17.3097 22.1532 17.2252 22.8999 17.0838V21H21.8999V19.9869L20.8272 20.0651C17.3089 20.3216 14.4909 20.3216 10.9726 20.0651L9.8999 19.9869V21H8.8999V17.0838C9.64659 17.2252 10.4388 17.3097 11.3999 17.3798V15.3741C10.6677 15.3183 10.072 15.2548 9.53562 15.1657C9.7413 14.9524 9.98438 14.7218 10.26 14.467C10.4451 14.4392 10.6986 14.4165 11.0503 14.4009C11.7859 14.3681 12.814 14.3702 14.3042 14.3731L14.3054 14.3731C14.7867 14.3741 15.3165 14.3751 15.8999 14.3751C16.4838 14.3751 17.0141 14.3741 17.4957 14.3731C18.9856 14.3702 20.0131 14.3681 20.7483 14.4009C21.1012 14.4166 21.3551 14.4394 21.5401 14.4673Z" fill="#000000" class="bmwfcol"/><title>car_front_rays_rg_48</title></svg>