<svg width="48" height="48" viewBox="0 0 32 32" xmlns="http://www.w3.org/2000/svg"><path d="M10.0858 17.749L9 18.8348V21.7897L10.403 23.999H13.6642L14 23.6632L14.3358 23.999H17.6458L19 21.7801V18.8348L17.9142 17.749H14.7639L14 18.131L13.2361 17.749H10.0858ZM11 21.2083V19.749H12.7639L13 19.8671V21.8348L12.8358 21.999H11.5021L11 21.2083ZM15 21.8348V19.8671L15.2361 19.749H17L17 21.218L16.5233 21.999H15.1642L15 21.8348Z" fill="#000000" class="bmwfcol"/><path d="M14 9.9991C10.1617 9.9991 9.27999 10.087 8.0473 10.628C7.55707 10.8432 7.13996 11.2331 6.81154 11.6061C6.46893 11.9952 6.14956 12.4512 5.8696 12.8975C5.68624 13.1898 5.51417 13.4869 5.35797 13.7719C5.04577 13.6515 4.7161 13.5859 4.36415 13.549C3.85056 13.4951 3.20766 13.4965 2.43398 13.4982C2.2937 13.4985 2.14888 13.4988 2 13.4988V15.4988C2.16317 15.4988 2.31618 15.4986 2.46003 15.4984C3.24501 15.4971 3.75734 15.4963 4.15542 15.5381C4.18303 15.541 4.20951 15.544 4.23492 15.5472C3.76179 15.9927 3.30848 16.4442 2.94468 16.8879C2.47466 17.4612 2 18.2002 2 19.0419V27.9991H8V26.8191C12.0547 27.0724 15.9453 27.0724 20 26.8191V27.9991H26V19.0419C26 18.2002 25.5253 17.4612 25.0553 16.8879C24.6915 16.4442 24.2382 15.9927 23.7651 15.5472C23.7904 15.544 23.8168 15.541 23.8444 15.5381C24.2425 15.4963 24.7545 15.4971 25.5396 15.4984L25.5408 15.4984C25.6844 15.4986 25.8371 15.4988 26 15.4988V13.4988C25.8511 13.4988 25.7065 13.4985 25.5662 13.4982C24.7925 13.4965 24.1493 13.4951 23.6356 13.549C23.2837 13.5859 22.954 13.6515 22.6418 13.7719C22.4856 13.4872 22.3136 13.1903 22.1303 12.8982C21.8504 12.4521 21.5311 11.9963 21.1886 11.6072C20.8602 11.2341 20.4436 10.8445 19.9543 10.6287L19.9531 10.6281C18.7213 10.0869 17.838 9.9991 14 9.9991ZM4.53815 18.0995C4.86995 17.7045 5.3116 17.2753 5.83279 16.7916C5.86643 16.7689 5.95462 16.7222 6.16183 16.6749C6.44438 16.6105 6.86634 16.5628 7.51903 16.5338C8.50828 16.4898 9.8904 16.4925 11.8809 16.4964C12.5218 16.4977 13.2258 16.4991 14 16.4991C14.7741 16.4991 15.478 16.4977 16.1187 16.4964C18.1089 16.4925 19.4907 16.4898 20.4793 16.5338C21.1316 16.5628 21.5531 16.6105 21.8352 16.6749C22.1078 16.7371 22.1742 16.7984 22.1815 16.8052C22.6964 17.2834 23.1332 17.7082 23.4619 18.0995C22.4915 18.301 21.4301 18.419 20 18.5208V20.5258C21.5955 20.4153 22.8275 20.2831 24 20.0297V25.9991H22V24.6735L20.9273 24.7517C16.2201 25.0949 11.7799 25.0949 7.0727 24.7517L6 24.6735V25.9991H4V20.0297C5.17248 20.2831 6.40454 20.4153 8 20.5258V18.5208C6.56988 18.419 5.50854 18.301 4.53815 18.0995ZM20.5683 14.5358C19.5291 14.4895 18.0795 14.4924 16.069 14.4964C15.4364 14.4977 14.7483 14.4991 14 14.4991C13.252 14.4991 12.5634 14.4977 11.931 14.4964C9.9201 14.4924 8.4699 14.4895 7.43012 14.5358C7.35733 14.539 7.28588 14.5425 7.21575 14.5463C7.32538 14.352 7.44208 14.1544 7.56383 13.9603C7.8113 13.5658 8.06658 13.2072 8.31254 12.9278C8.57258 12.6325 8.75816 12.5002 8.85112 12.4593C9.63664 12.1146 10.0888 11.9991 14 11.9991C17.9106 11.9991 18.3642 12.1146 19.1479 12.4589C19.2419 12.5005 19.4277 12.6337 19.6874 12.9287C19.9334 13.2082 20.1888 13.5669 20.4363 13.9613C20.5579 14.1551 20.6745 14.3524 20.784 14.5464C20.7134 14.5425 20.6415 14.539 20.5683 14.5358Z" fill="#000000" class="bmwfcol"/><path d="M31.2003 3.70621L24.4932 10.4133L20.7861 6.70621L22.2003 5.29199L24.4932 7.58489L29.7861 2.29199L31.2003 3.70621Z" fill="#000000" class="bmwfcol"/><title>car_front_checkmark_rg_48</title></svg>