<svg width="48" height="48" viewBox="0 0 32 32" xmlns="http://www.w3.org/2000/svg"><path d="M27 6.94871V26.3996L26.966 26.5268C26.7157 27.4608 26.4762 28.2453 26.171 28.8665C25.8525 29.515 25.4359 30.0416 24.8105 30.4007C24.2148 30.7427 23.5255 30.8756 22.7789 30.9382C22.0417 31 21.1319 31 20.0421 31H19.9581C18.8682 31 17.9584 31 17.2211 30.9382C16.4746 30.8756 15.7853 30.7427 15.1896 30.4007C14.5642 30.0416 14.1476 29.515 13.829 28.8665C13.5239 28.2453 13.2844 27.4608 13.0341 26.5268L13 26.3996V13.4142L9.00006 17.4142V14.5858L13 10.5858V6.94877C13 6.11685 13 5.38583 13.0689 4.77989C13.1412 4.14498 13.299 3.53365 13.695 2.99627C14.0898 2.46042 14.6411 2.10695 15.2874 1.82477C15.9253 1.54629 16.7399 1.30237 17.7412 1.03407L17.8684 1H22.1317L22.2589 1.03407C23.2601 1.30237 24.0747 1.54629 24.7126 1.82476C25.359 2.10693 25.9102 2.4604 26.3051 2.99625C26.7011 3.53363 26.8589 4.14496 26.9311 4.77988C27.0001 5.38579 27.0001 6.11683 27 6.94871ZM25 7.00007C25 6.10327 24.9986 5.48587 24.944 5.00606C24.8912 4.54281 24.799 4.32383 24.695 4.18267C24.5898 4.03998 24.3911 3.86666 23.9125 3.65772C23.4462 3.45418 22.7983 3.25165 21.8678 3H18.1323C17.2018 3.25165 16.5539 3.45418 16.0876 3.65772C15.609 3.86667 15.4102 4.03999 15.3051 4.18269C15.2011 4.32386 15.1088 4.54284 15.0561 5.00608C15.0015 5.48589 15 6.10329 15 7.00007V10.3108C16.4092 9.45412 18.1121 9 20 9C21.888 9 23.5909 9.45411 25 10.3108V7.00007ZM17.5729 14.7097C18.0004 15.9815 18.0002 17.2362 18 18.8867V19.0001C18 20.8123 17.7453 22.1754 17.221 23.5269C17.0914 23.861 16.9455 24.1932 16.7846 24.5295C17.7504 24.8348 18.8265 25 20 25C21.1736 25 22.2496 24.8348 23.2154 24.5296C23.0545 24.1932 22.9086 23.861 22.779 23.5269C22.2547 22.1754 22 20.8123 22 19.0001V18.8867C21.9997 17.2362 21.9996 15.9815 22.4271 14.7097C22.7193 13.8405 23.1971 12.9975 23.9289 12.0006C22.8686 11.3648 21.5461 11 20 11C18.454 11 17.1315 11.3649 16.0711 12.0006C16.8029 12.9975 17.2807 13.8405 17.5729 14.7097ZM20 27C18.5024 27 17.1027 26.7678 15.8342 26.3204C15.6705 26.6092 15.4988 26.9068 15.3198 27.216C15.4232 27.5259 15.5222 27.7771 15.6241 27.9846C15.8212 28.3858 15.9983 28.5589 16.1854 28.6663C16.4023 28.7908 16.7442 28.8912 17.3883 28.9452C18.0322 28.9992 18.8585 29 20 29C21.1415 29 21.9678 28.9992 22.6118 28.9452C23.2558 28.8912 23.5978 28.7908 23.8146 28.6663C24.0017 28.5589 24.1789 28.3858 24.3759 27.9846C24.4779 27.7771 24.5769 27.5259 24.6802 27.2161C24.5012 26.9069 24.3295 26.6092 24.1658 26.3204C22.8974 26.7679 21.4977 27 20 27ZM25 13.973C24.6737 14.4906 24.4641 14.9269 24.3229 15.347C24.0101 16.2774 24 17.2068 24 19.0001C24 20.5964 24.2195 21.7104 24.6436 22.8035C24.7492 23.0756 24.8676 23.3474 25 23.6264V13.973ZM15 23.6263C15.1324 23.3473 15.2509 23.0755 15.3564 22.8035C15.7805 21.7104 16 20.5964 16 19.0001C16 17.2068 15.9899 16.2774 15.6771 15.347C15.5359 14.9269 15.3264 14.4907 15 13.9731V23.6263Z" fill="#000000" class="bmwfcol"/><path d="M4.37512 20.7893V24.3749L2.62512 22.6249V17.6397H7.63988L9.38988 19.3897H5.80399L8.10723 21.6929C8.59445 22.1801 9.32737 22.5 10.3001 22.5H11.5001V24.5H10.3001C8.87287 24.5 7.6058 24.0199 6.69302 23.1071L4.37512 20.7893Z" fill="#000000" class="bmwfcol"/><title>car-door-open_rg_48</title></svg>