<svg width="48" height="48" viewBox="0 0 32 32" xmlns="http://www.w3.org/2000/svg"><path d="M10.0857 16.7499H13.236L13.9999 17.1319L14.7638 16.7499H17.9141L18.9999 17.8357V20.7809L17.6457 22.9999H14.3357L13.9999 22.6641L13.6641 22.9999H10.4029L8.99991 20.7906V17.8357L10.0857 16.7499ZM10.9999 18.7499V20.2092L11.502 20.9999H12.8357L12.9999 20.8357V18.8679L12.7638 18.7499H10.9999ZM15.1641 20.9999H16.5232L16.9999 20.2189V18.7499H15.236L14.9999 18.8679V20.8357L15.1641 20.9999Z" fill="#000000" class="bmwfcol"/><path d="M8.04717 9.62887C9.27987 9.08791 10.1616 9 13.9999 9C17.8379 9 18.7224 9.08839 19.9542 9.62958C20.4435 9.84535 20.86 10.2351 21.1884 10.6082C21.5309 10.9972 21.8502 11.453 22.1302 11.8992C22.3135 12.1913 22.4855 12.4883 22.6417 12.7731C22.9539 12.6528 23.2836 12.5872 23.6354 12.5503C24.1491 12.4964 24.7921 12.4978 25.5658 12.4995C25.7062 12.4998 25.8508 12.5001 25.9998 12.5001V14.5001C25.8365 14.5001 25.6833 14.4999 25.5394 14.4996C24.7543 14.4984 24.2423 14.4976 23.8441 14.5393C23.8167 14.5422 23.7904 14.5452 23.7652 14.5484C24.2382 14.9939 24.6914 15.4452 25.0552 15.8889C25.5252 16.4622 25.9998 17.2012 25.9998 18.0429V27.0001H19.9998V25.8201C15.9452 26.0734 12.0545 26.0734 7.99988 25.8201V27.0001H1.99988V18.0429C1.99988 17.2012 2.47454 16.4622 2.94456 15.8889C3.30829 15.4452 3.7615 14.9939 4.23453 14.5485C4.20921 14.5453 4.18283 14.5422 4.15533 14.5393C3.75724 14.4976 3.24535 14.4984 2.46035 14.4996C2.31673 14.4999 2.16279 14.5001 1.99991 14.5001V12.5001C2.14888 12.5001 2.29354 12.4998 2.43389 12.4995C3.20757 12.4978 3.85047 12.4964 4.36407 12.5503C4.71596 12.5872 5.04557 12.6528 5.35772 12.7731C5.51395 12.4881 5.68607 12.1908 5.86948 11.8984C6.14943 11.4522 6.4688 10.9962 6.81141 10.6071C7.13984 10.2341 7.55695 9.84408 8.04717 9.62887ZM5.95636 15.6781C5.38121 16.2089 4.89578 16.6746 4.53804 17.1005C5.50955 17.3021 6.5719 17.4201 7.99991 17.5217V19.5267C6.40208 19.4161 5.17121 19.2838 3.99988 19.0307V25.0001H5.99988V23.6745L7.07258 23.7527C11.7797 24.0959 16.22 24.0959 20.9271 23.7527L21.9998 23.6745V25.0001H23.9998V19.0307C22.8285 19.2838 21.5977 19.4161 19.9999 19.5267V17.5217C21.4279 17.4201 22.4902 17.3021 23.4617 17.1005C23.1039 16.6746 22.6185 16.2089 22.0433 15.6781C22.0083 15.6671 21.9691 15.6559 21.9253 15.6446C21.6268 15.5674 21.1854 15.5025 20.5218 15.4547C19.194 15.359 17.1649 15.343 13.9999 15.343C10.8348 15.343 8.80579 15.359 7.47798 15.4547C6.81436 15.5025 6.37296 15.5674 6.07453 15.6446C6.03066 15.6559 5.99143 15.6672 5.95636 15.6781ZM20.7371 13.4651C20.6413 13.2978 20.5406 13.1287 20.4361 12.9622C20.1886 12.5679 19.9333 12.2092 19.6872 11.9297C19.4275 11.6347 19.2418 11.5015 19.1478 11.4599C18.364 11.1156 17.9104 11.0001 13.9999 11.0001C10.0887 11.0001 9.63652 11.1156 8.851 11.4603C8.75804 11.5011 8.57246 11.6335 8.31242 11.9288C8.06646 12.2081 7.81118 12.5668 7.56371 12.9612C7.45908 13.128 7.35818 13.2975 7.26229 13.4651L7.33429 13.4598C8.74948 13.3579 10.8592 13.343 13.9999 13.343C17.1405 13.343 19.2503 13.3579 20.6655 13.4598L20.7371 13.4651Z" fill="#000000" class="bmwfcol"/><path d="M12.251 7.99988C12.2716 7.97564 12.292 7.95192 12.3124 7.92875C12.5725 7.63344 12.758 7.50108 12.851 7.46023C13.6365 7.11552 14.0887 7 17.9999 7C21.9105 7 22.364 7.11552 23.1478 7.4598C23.2418 7.50145 23.4275 7.63459 23.6872 7.92959C23.9333 8.20914 24.1887 8.5678 24.4361 8.96217C24.9309 9.75057 25.3421 10.5976 25.5342 11.0329L25.6651 11.3299L25.905 11.5506C26.5669 12.1588 27.1194 12.6822 27.5086 13.1569C27.9203 13.659 27.9999 13.9326 27.9999 14.0429V21H26.9999V23H29.9999V14.0429C29.9999 13.2011 29.5252 12.4621 29.0552 11.8888C28.5798 11.309 27.9515 10.7159 27.3259 10.1402C27.0951 9.62733 26.6597 8.74288 26.1302 7.8991C25.8502 7.45297 25.5309 6.99717 25.1885 6.6081C24.8601 6.23505 24.4435 5.84536 23.9542 5.62958C22.7223 5.08839 21.8379 5 17.9999 5C14.1616 5 13.2799 5.08791 12.0472 5.62887C11.557 5.84408 11.1398 6.23405 10.8114 6.60702C10.4688 6.9961 10.1494 7.45208 9.86951 7.89837C9.84832 7.93215 9.82728 7.96599 9.8064 7.99988H12.251Z" fill="#000000" class="bmwfcol"/><title>car_front_double_rg_48</title></svg>