<svg width="48" height="48" viewBox="0 0 32 32" xmlns="http://www.w3.org/2000/svg"><path d="M14.875 25.1409L14.7265 25.3612L13.7798 26.7747H11.1999L10.9997 26.5744L10.7994 26.7747L8.25758 26.774L7.12441 25.1492L7.1251 22.9249L7.3806 22.6681L7.75556 22.2931L8.01244 22.0376H10.4569L10.6413 22.1295L10.9997 22.3097L11.3581 22.1295L11.5431 22.0369H13.9876L14.875 22.9243V25.1409ZM8.87491 23.7867V24.5988L9.17046 25.0242L9.99979 25.0249V23.7874L8.87491 23.7867ZM11.9996 23.7874L12.0003 25.0242H12.8469L13.1252 24.6092V23.7874H11.9996Z" fill="#000000" class="bmwfcol"/><path d="M20.0001 20.6248C19.3839 20.6248 18.9731 20.6203 18.6632 20.6344C18.8694 20.8415 19.0641 21.0504 19.2343 21.258C19.594 21.6968 20 22.3094 20.0001 23.032L19.9994 30.0002H15V29.1301C12.2144 29.2981 9.78495 29.2981 6.99942 29.1301V30.0002H1.99996V23.0327C1.99996 22.3101 2.40533 21.6968 2.76507 21.258C2.93513 21.0506 3.13021 20.8414 3.33614 20.6344C3.02643 20.6203 2.61561 20.6255 1.99996 20.6255L1.99927 18.625C2.71623 18.625 3.32682 18.6142 3.7988 18.6637C4.08003 18.6932 4.35092 18.7487 4.61156 18.8494C4.71398 18.6661 4.82365 18.4774 4.94025 18.2915C5.15426 17.9503 5.40183 17.5957 5.67084 17.2902C5.92561 17.0009 6.2674 16.6766 6.68454 16.4933C7.10818 16.3074 7.4634 16.1626 8.12223 16.0859C8.71059 16.0175 9.55933 15.9996 10.9997 15.9996C13.6304 15.9996 14.3389 16.0646 15.3148 16.4933C15.7313 16.6769 16.0744 17.0014 16.3292 17.2909C16.598 17.5963 16.8459 17.9499 17.0598 18.2908C17.1765 18.4767 17.2855 18.666 17.3878 18.8494C17.6482 18.7485 17.9188 18.6939 18.1999 18.6644C18.672 18.6148 19.283 18.625 20.0001 18.625V20.6248ZM16.8651 21.6772L16.6393 21.4665C16.4543 21.4388 16.1999 21.4159 15.8479 21.4003C14.8751 21.357 13.3899 21.3747 10.9997 21.3747C8.60912 21.3747 7.12347 21.3569 6.15007 21.4003C5.79869 21.4159 5.54516 21.4389 5.3601 21.4665C5.08531 21.7206 4.84312 21.9512 4.6378 22.164C5.17373 22.2526 5.76891 22.3175 6.50017 22.3732L6.49948 24.3792C5.53853 24.3091 4.74644 24.2234 3.99974 24.0823V28.0004H4.99964L5.00033 26.9874L6.07273 27.0654C9.59073 27.3218 12.4099 27.3218 15.928 27.0654L17.0004 26.9874L16.9997 28.0004H17.9996V24.0823C17.2529 24.2234 16.4609 24.3091 15.4999 24.3792V22.3725C16.231 22.3168 16.8258 22.2526 17.3616 22.164C17.2144 22.0115 17.0486 21.8498 16.8651 21.6772ZM14.6057 18.3916C14.576 18.367 14.5528 18.3491 14.5352 18.3377C14.5221 18.3293 14.514 18.3247 14.5111 18.3232C13.9754 18.0879 13.6805 18.0001 11.0004 18.0001C9.53563 18.0001 8.80532 18.0206 8.35287 18.0733C7.97131 18.1177 7.82126 18.1771 7.48832 18.3232C7.48832 18.3232 7.47824 18.3289 7.46346 18.3384C7.44597 18.3498 7.42205 18.367 7.39234 18.3916C7.33123 18.4422 7.25668 18.5143 7.17137 18.6112C6.99906 18.8069 6.81627 19.0643 6.63482 19.3535C6.62792 19.3645 6.62096 19.3756 6.61411 19.3867C7.62922 19.3641 9.04503 19.3749 10.9997 19.3749C12.9543 19.3749 14.3699 19.3648 15.3846 19.3873C15.3779 19.3767 15.3719 19.3648 15.3652 19.3542C15.1838 19.0651 15.0004 18.8085 14.828 18.6126C14.7425 18.5154 14.667 18.4425 14.6057 18.3916Z" fill="#000000" class="bmwfcol"/><path d="M26.6071 10.6935C28.1452 12.2317 29.0422 13.5778 29.2657 14.8464C29.4332 15.7982 29.2066 16.598 28.783 17.2709C29.6843 18.1916 29.9996 19.4995 29.9997 20.9997C29.9997 22.515 29.6785 23.8358 28.7568 24.7576C27.8349 25.6791 26.5147 25.9998 24.9996 25.9999H21.9999V24.0001H24.9996C26.2836 24.0001 26.9652 23.7207 27.3432 23.3427C27.721 22.9646 27.9999 22.2833 27.9999 20.9997C27.9998 19.7676 27.7399 19.0935 27.3854 18.7072C26.689 19.1789 25.8532 19.443 24.8463 19.2658C23.5777 19.0423 22.2315 18.1453 20.6934 16.6073L19.9863 15.9001L21.1112 14.7753L19.1936 12.8577L20.6078 11.4434L22.5254 13.3611L23.3609 12.5255L21.4433 10.6079L22.8575 9.1923L24.7751 11.1113L25.9 9.98642L26.6071 10.6935ZM22.8347 15.8787C23.9035 16.8259 24.6626 17.2022 25.1936 17.2957C25.7245 17.389 26.1641 17.2229 26.6935 16.6936C27.2228 16.1642 27.3888 15.7246 27.2956 15.1937C27.202 14.6627 26.8258 13.9036 25.8786 12.8349L22.8347 15.8787Z" fill="#000000" class="bmwfcol"/><path d="M16.1559 4.74181L20.1396 8.7255L18.7254 10.1397L14.7417 6.15602V8.98445L12.9905 7.23326L12.9912 2.99131L17.2331 2.99062L18.9843 4.74181H16.1559Z" fill="#000000" class="bmwfcol"/><title>car_plug_arrow_up_left_rg_48</title></svg>