<svg width="48" height="48" viewBox="0 0 32 32" xmlns="http://www.w3.org/2000/svg"><path d="M17.3404 30H19.4109L17.5117 22.9116L17.817 19.4267C17.9987 17.3524 18.2231 14.7898 18.394 12.8372C18.4218 12.5186 18.5354 12.3196 18.6558 12.2045C18.7721 12.0932 18.9566 12 19.2501 12C19.5479 12 19.7183 12.0949 19.8118 12.1884C19.9052 12.2818 20.0001 12.4522 20.0001 12.75V21H22.0001V12.75C22.0001 11.9978 21.745 11.2932 21.226 10.7741C20.7069 10.2551 20.0024 10 19.2501 10C18.4936 10 17.7978 10.2576 17.2734 10.7592C16.753 11.2569 16.4654 11.9329 16.4016 12.6628C16.2308 14.6154 16.0063 17.1779 15.8246 19.2522L15.4885 23.0884L17.3404 30Z" fill="#000000" class="bmwfcol"/><path d="M7.00008 28.4143L13.7072 21.7072L12.293 20.293L7.00008 25.5859L4.20718 22.793L2.79297 24.2072L7.00008 28.4143Z" fill="#000000" class="bmwfcol"/><path d="M10 16L10 8H23V16.001V18C23.5159 18 24.0414 17.8378 24.4396 17.4396C24.7391 17.1401 24.9051 16.7685 24.969 16.3832L25.2929 16.7071C26.241 17.6552 26.3596 17.835 26.3926 18.1619C26.4143 18.3772 26.3895 18.7059 26.2616 19.3062C26.1352 19.8998 25.9297 20.6671 25.6419 21.7412L24 27.8683V30H26V28.1317L27.5861 22.2127C27.8622 21.1824 28.0799 20.3699 28.2178 19.7229C28.3562 19.0729 28.4364 18.4955 28.3825 17.9611C28.2703 16.85 27.5863 16.1687 26.8325 15.418L26.7071 15.2929L25 13.5858V8C25 7.48408 24.8378 6.95856 24.4396 6.56039C24.0414 6.16222 23.5159 6 23 6H10C9.48408 6 8.95856 6.16222 8.56039 6.56039C8.16222 6.95856 8 7.48408 8 8V16C8 16.5159 8.16222 17.0414 8.56039 17.4396C8.95857 17.8378 9.48408 18 10 18H14V16H10Z" fill="#000000" class="bmwfcol"/><title>card_hand_checkmark_rg_48</title></svg>