<svg width="48" height="48" viewBox="0 0 32 32" xmlns="http://www.w3.org/2000/svg"><path d="M12 4H20V19C20.5159 19 21.0414 18.8378 21.4396 18.4396C21.8378 18.0414 22 17.5159 22 17V16.4142L22.2929 16.7071C23.241 17.6552 23.3596 17.8351 23.3926 18.1619C23.4143 18.3772 23.3895 18.7059 23.2617 19.3062C23.1352 19.8998 22.9297 20.6672 22.6419 21.7412L21 27.8684V30H23V28.1317L24.5861 22.2128C24.8622 21.1824 25.08 20.3699 25.2178 19.7229C25.3562 19.0729 25.4364 18.4956 25.3825 17.9611C25.2703 16.85 24.5863 16.1687 23.8325 15.418L23.7071 15.2929L22 13.5858V4C22 3.48408 21.8378 2.95856 21.4396 2.56039C21.0414 2.16222 20.5159 2 20 2H12C11.4841 2 10.9586 2.16222 10.5604 2.56039C10.1622 2.95856 10 3.48408 10 4V17C10 17.5159 10.1622 18.0414 10.5604 18.4396C10.9586 18.8378 11.4841 19 12 19L12 4Z" fill="#000000" class="bmwfcol"/><path d="M16.4108 30H14.3402L12.4884 23.0884L12.8245 19.2522C13.0062 17.1779 13.2306 14.6154 13.4015 12.6628C13.4653 11.9329 13.7529 11.2569 14.2732 10.7592C14.7977 10.2576 15.4934 10 16.25 10C17.0022 10 17.7068 10.2551 18.2258 10.7741C18.7449 11.2932 19 11.9978 19 12.75V21H17V12.75C17 12.4522 16.9051 12.2818 16.8116 12.1884C16.7182 12.0949 16.5477 12 16.25 12C15.9565 12 15.772 12.0932 15.6557 12.2045C15.5353 12.3196 15.4217 12.5186 15.3938 12.8372C15.223 14.7898 14.9986 17.3524 14.8169 19.4267L14.5116 22.9116L16.4108 30Z" fill="#000000" class="bmwfcol"/><title>card-present_rg_48</title></svg>