<svg width="48" height="48" viewBox="0 0 32 32" xmlns="http://www.w3.org/2000/svg"><path d="M9.41406 5.49998L11.7069 3.20718L10.2926 1.79297L7.99985 4.08577L7.00006 3.08598L6.29295 3.79309C4.86207 5.22398 3.97174 6.44795 3.72131 7.60955C3.5216 8.53587 3.74447 9.30372 4.16873 9.95179C3.69197 10.4883 3.31575 11.0076 3.04307 11.553C2.65024 12.3387 2.50093 13.1197 2.5 13.992V15.0002H4.5V14.0002C4.5 13.3758 4.601 12.9093 4.83193 12.4474C4.99492 12.1214 5.23526 11.7724 5.59337 11.3605C6.23194 11.7658 6.9857 11.9741 7.89071 11.779C9.05231 11.5285 10.2763 10.6382 11.7072 9.2073L12.4143 8.5002L11.4142 7.50008L13.707 5.20718L12.2928 3.79297L9.99994 6.08586L9.41406 5.49998ZM7.01765 5.932L9.56826 8.48261C8.5829 9.36764 7.92066 9.72654 7.4692 9.82387C7.06842 9.91028 6.72832 9.81425 6.20717 9.29309C5.68601 8.77194 5.58998 8.43184 5.67638 8.03105C5.77372 7.5796 6.13262 6.91736 7.01765 5.932Z" fill="#000000" class="bmwfcol"/><path d="M29.9999 13H12.9999V14L8.79995 14.0001L8.5412 14.711C7.81101 16.7171 7.42364 17.7814 7.22548 18.4754C7.0014 19.2601 6.99994 19.6469 6.99994 20.25V25H8.70796C9.09374 25.883 9.97478 26.5 10.9999 26.5C12.0251 26.5 12.9061 25.883 13.2919 25H21.708C22.0937 25.883 22.9748 26.5 23.9999 26.5C25.0251 26.5 25.9061 25.883 26.2919 25L26.4096 25C26.9264 25.0003 27.3862 25.0005 27.8708 24.8736C28.3741 24.7418 28.8547 24.4886 29.4999 24.116L29.9999 23.8274V13ZM26.2919 23C26.118 22.6019 25.8433 22.2578 25.5002 22H27.9999V22.6632C27.6872 22.8295 27.5119 22.9002 27.3641 22.9389C27.1552 22.9936 26.9533 23 26.3373 23H26.2919ZM14.9999 20V15H27.9999V20H14.9999ZM10.2005 16L12.9999 16V22H22.4997C22.1565 22.2578 21.8819 22.6019 21.708 23H13.2919C12.9061 22.117 12.0251 21.5 10.9999 21.5C10.1821 21.5 9.45605 21.8927 8.99994 22.4998L8.99994 20.4962C9.44892 20.49 9.81205 20.4735 10.1705 20.4302C10.7109 20.3649 11.2258 20.2406 11.9999 20.035V17.9647L11.741 18.034C10.7984 18.2867 10.3657 18.392 9.93042 18.4447C9.74287 18.4673 9.55155 18.4807 9.3159 18.4886C9.49455 17.9493 9.77033 17.1833 10.2005 16ZM10.9999 23.5C11.2761 23.5 11.4999 23.7239 11.4999 24C11.4999 24.2761 11.2761 24.5 10.9999 24.5C10.7238 24.5 10.4999 24.2761 10.4999 24C10.4999 23.7239 10.7238 23.5 10.9999 23.5ZM23.9999 23.5C24.2761 23.5 24.4999 23.7239 24.4999 24C24.4999 24.2761 24.2761 24.5 23.9999 24.5C23.7238 24.5 23.4999 24.2761 23.4999 24C23.4999 23.7239 23.7238 23.5 23.9999 23.5Z" fill="#000000" class="bmwfcol"/><title>charging-truck_rg_48</title></svg>