<svg width="48" height="48" viewBox="0 0 32 32" xmlns="http://www.w3.org/2000/svg"><path d="M13 4C10.6946 4 9.35751 4.04652 8.54372 4.14543C8.13521 4.19508 7.79939 4.26417 7.51674 4.37604C7.19795 4.50222 6.99053 4.66526 6.82789 4.82789C6.25722 5.39856 6 6.17408 6 7V26H4V28H22V26H20V15H21C21.4141 15 21.6386 15.1228 21.7579 15.2421C21.8772 15.3614 22 15.5859 22 16V21C22 21.8259 22.2572 22.6014 22.8279 23.1721C23.3986 23.7428 24.1741 24 25 24C25.8259 24 26.6014 23.7428 27.1721 23.1721C27.7428 22.6014 28 21.8259 28 21V13.9013C28.7642 13.7377 29.4773 13.348 30.0162 12.5689C30.7156 11.5576 31 10.0467 31 8V7H30V4H28V7H26V4H24V7H23V8C23 10.0467 23.2844 11.5576 23.9838 12.5689C24.5227 13.348 25.2358 13.7377 26 13.9013V21C26 21.4141 25.8772 21.6386 25.7579 21.7579C25.6386 21.8772 25.4141 22 25 22C24.5859 22 24.3614 21.8772 24.2421 21.7579C24.1228 21.6386 24 21.4141 24 21V16C24 15.1741 23.7428 14.3986 23.1721 13.8279C22.6014 13.2572 21.8259 13 21 13H20V7C20 6.17408 19.7428 5.39856 19.1721 4.82789C19.0095 4.66526 18.8021 4.50222 18.4833 4.37604C18.2006 4.26417 17.8648 4.19508 17.4563 4.14543C16.6425 4.04652 15.3054 4 13 4ZM18 26H8V7C8 6.58592 8.12278 6.36144 8.24211 6.24211C8.24434 6.23988 8.24556 6.23803 8.24556 6.23803C8.24556 6.23803 8.24864 6.23732 8.25279 6.23568C8.3053 6.21489 8.44791 6.17179 8.78503 6.13082C9.46249 6.04848 10.6854 6 13 6C15.3146 6 16.5375 6.04848 17.215 6.13082C17.5521 6.17179 17.6947 6.21489 17.7472 6.23568C17.7514 6.23732 17.7544 6.23803 17.7544 6.23803C17.7544 6.23803 17.7557 6.23988 17.7579 6.24211C17.8772 6.36144 18 6.58592 18 7V26ZM25.6287 11.4311C25.354 11.034 25.1106 10.3066 25.029 9H28.971C28.8894 10.3066 28.646 11.034 28.3713 11.4311C28.1035 11.8184 27.7284 12 27 12C26.2716 12 25.8965 11.8184 25.6287 11.4311Z" fill="#000000" class="bmwfcol"/><path d="M11 10.5V15H13V16.5H11.6338L14 20.4436L16.3662 16.5H15V13H13V10.5H11Z" fill="#000000" class="bmwfcol"/><title>charging_electric_rg_48</title></svg>