<svg width="48" height="48" viewBox="0 0 32 32" xmlns="http://www.w3.org/2000/svg"><path d="M12.5124 6.31906C12.9609 6.05429 13.5491 5.88623 14.3387 5.88623C14.7851 5.88623 15.2669 5.95862 15.6882 6.03886C16.1582 6.12886 16.4796 6.19915 16.8112 6.27952L16.9641 6.31658V8.15777L16.7183 8.09993C16.3807 8.0205 15.9074 7.9121 15.485 7.8335C15.124 7.7652 14.8187 7.72753 14.5176 7.72753C14.1063 7.72753 13.8151 7.78536 13.6024 7.89066C13.3954 7.99313 13.2483 8.14766 13.1359 8.37241C12.9504 8.74353 12.8887 9.28667 12.8887 10.0821C12.8887 10.8131 12.9419 11.3869 13.1505 11.752C13.3616 12.1194 13.7563 12.2777 14.5673 12.2777C15.1878 12.2777 16.109 12.0847 16.7224 11.954L16.9641 11.9025V13.7539L16.7905 13.7897C16.1189 13.928 15.1913 14.119 14.3089 14.119C13.4807 14.119 12.8896 13.9489 12.45 13.6884C12.0106 13.428 11.7394 13.087 11.5369 12.7755C11.1365 12.1587 10.9778 11.2349 10.9778 10.1119C10.9778 8.95135 11.1061 8.00892 11.5543 7.28327C11.7695 6.93693 12.0642 6.58368 12.5124 6.31906Z" fill="#000000" class="bmwfcol"/><path d="M19.3794 6.2421C19.8462 6.00528 20.4475 5.88623 21.2653 5.88623C21.973 5.88623 22.5234 5.98276 22.9733 6.18748C23.4262 6.3936 23.7621 6.70253 24.0511 7.10161C24.6063 7.85998 24.7753 8.91732 24.7753 10.0225C24.7753 11.3065 24.5233 12.2697 24.0406 12.9242C23.7524 13.3172 23.424 13.6215 22.9752 13.8242C22.53 14.0252 21.9819 14.119 21.2653 14.119C20.4596 14.119 19.8751 14.0129 19.4218 13.7992C18.9637 13.5831 18.6577 13.2655 18.3959 12.8779C17.9556 12.2228 17.7552 11.2802 17.7552 10.0225C17.7552 8.96095 17.8837 7.97899 18.3317 7.2535C18.5932 6.82994 18.9085 6.48092 19.3794 6.2421ZM21.2653 7.69771C20.6577 7.69771 20.2328 7.78896 19.9744 8.20887C19.8599 8.39558 19.7811 8.65189 19.7321 8.96722C19.6834 9.28083 19.6661 9.63964 19.6661 10.0225C19.6661 10.4054 19.6834 10.7615 19.732 11.0712C19.7809 11.3826 19.8596 11.6332 19.9733 11.8145C20.2216 12.2065 20.6385 12.3075 21.2653 12.3075C21.811 12.3075 22.1807 12.2114 22.4514 11.8751C22.7801 11.4686 22.8644 10.8205 22.8644 10.0225C22.8644 9.25745 22.7921 8.66444 22.5374 8.26041L22.5366 8.25914C22.2808 7.84659 21.869 7.69771 21.2653 7.69771Z" fill="#000000" class="bmwfcol"/><path d="M26.0919 10.7822C26.3388 10.723 27.0064 10.568 27.5699 10.568C28.1365 10.568 28.6136 10.6801 28.9411 10.9251C29.2859 11.1756 29.4896 11.6062 29.4896 12.0602C29.4896 12.3107 29.4511 12.5183 29.3643 12.7141C29.2788 12.9068 29.1514 13.0764 28.992 13.2564L28.9904 13.2581C28.8259 13.4396 28.6496 13.611 28.4756 13.7687H29.738V15.2422H25.869V13.9346L25.9537 13.8748C26.4623 13.5158 27.0696 13.0746 27.3882 12.7946L27.3891 12.7938C27.5782 12.6296 27.6968 12.5162 27.7684 12.4257C27.8367 12.3393 27.847 12.2925 27.847 12.259C27.847 12.215 27.8414 12.1948 27.8371 12.1849C27.8339 12.1775 27.8276 12.1661 27.805 12.1485C27.798 12.143 27.7735 12.1284 27.7045 12.1172C27.6362 12.1062 27.5423 12.1011 27.4109 12.1011C27.0029 12.1011 26.4319 12.2427 26.1871 12.3039L25.9386 12.366V10.819L26.0919 10.7822Z" fill="#000000" class="bmwfcol"/><path d="M4 24V9H2V24C2 24.5159 2.16222 25.0414 2.56039 25.4396C2.95856 25.8378 3.48408 26 4 26H19V24H16V20H14V24H12V18H10V24H8L8 16H6L6 24H4Z" fill="#000000" class="bmwfcol"/><title>chart_co2_rg_48</title></svg>