<svg width="48" height="48" viewBox="0 0 32 32" xmlns="http://www.w3.org/2000/svg"><path d="M9.41406 5.49998L11.7069 3.20718L10.2926 1.79297L7.99985 4.08577L7.00006 3.08598L6.29295 3.79309C4.86207 5.22398 3.97174 6.44795 3.72131 7.60955C3.5216 8.53587 3.74447 9.30372 4.16873 9.95179C3.69197 10.4883 3.31575 11.0076 3.04307 11.553C2.65024 12.3387 2.50093 13.1197 2.5 13.992V15.0002H4.5V14.0002C4.5 13.3758 4.601 12.9093 4.83193 12.4474C4.99492 12.1214 5.23526 11.7724 5.59337 11.3605C6.23194 11.7658 6.9857 11.9741 7.89071 11.779C9.05231 11.5285 10.2763 10.6382 11.7072 9.2073L12.4143 8.5002L11.4142 7.50008L13.707 5.20718L12.2928 3.79297L9.99994 6.08586L9.41406 5.49998ZM7.01765 5.932L9.56826 8.48261C8.5829 9.36764 7.92066 9.72654 7.4692 9.82387C7.06842 9.91028 6.72832 9.81425 6.20717 9.29309C5.68601 8.77194 5.58998 8.43184 5.67638 8.03105C5.77372 7.5796 6.13262 6.91736 7.01765 5.932Z" fill="#000000" class="bmwfcol"/><path d="M14.9999 21.5C14.9999 19.8872 14.1515 18.4725 12.8765 17.678L13.0918 16.8746L15.5495 19.8037C16.3882 20.8036 17.0525 21.5957 17.8303 22.1175C18.5354 22.5906 19.2857 22.8182 20.2331 22.9335C20.8317 24.7159 22.5159 26 24.4999 26C26.9852 26 28.9999 23.9853 28.9999 21.5C28.9999 19.0147 26.9852 17 24.4999 17C23.9607 17 23.4437 17.0948 22.9645 17.2688L21.0773 14H13.904C13.9488 13.8753 13.9924 13.7647 14.0354 13.6663C14.1861 13.3219 14.2964 13.2072 14.3539 13.1621C14.401 13.1252 14.4903 13.0725 14.7534 13.0387C15.041 13.0018 15.414 13 15.9999 13V11L15.9511 11C15.4295 10.9999 14.9283 10.9999 14.4988 11.055C14.0314 11.115 13.5517 11.2498 13.1203 11.5879C12.6992 11.9178 12.4214 12.3657 12.203 12.8649C11.9864 13.3601 11.7957 13.9842 11.5929 14.7412L10.9808 17.0254C10.8228 17.0086 10.6624 17 10.4999 17C8.01466 17 5.99994 19.0147 5.99994 21.5C5.99994 23.9853 8.01466 26 10.4999 26C12.9852 26 14.9999 23.9853 14.9999 21.5ZM11.7184 22L12.3135 19.7792C12.7389 20.2275 12.9999 20.8332 12.9999 21.5C12.9999 22.8807 11.8806 24 10.4999 24C9.11923 24 7.99994 22.8807 7.99994 21.5C7.99994 20.1354 9.09321 19.0262 10.4516 19.0005L9.6479 22H11.7184ZM22.3556 20.2141L23.3867 22H25.6961L23.9937 19.0513C24.1572 19.0177 24.3265 19 24.4999 19C25.8806 19 26.9999 20.1193 26.9999 21.5C26.9999 22.8807 25.8806 24 24.4999 24C23.1192 24 21.9999 22.8807 21.9999 21.5C21.9999 21.0297 22.1298 20.5898 22.3556 20.2141ZM21.2819 18.3545C20.6248 19.0267 20.1765 19.904 20.0421 20.8814C19.8332 20.8411 19.6554 20.7931 19.4982 20.7364L20.4995 16.9993L21.2819 18.3545ZM17.797 19.3578C17.5691 19.0976 17.3087 18.7887 16.9983 18.4188L14.9687 16H18.6967L17.797 19.3578Z" fill="#000000" class="bmwfcol"/><path d="M18.9999 13H22.9999V11H18.9999V13Z" fill="#000000" class="bmwfcol"/><title>charging-bicycle_rg_48</title></svg>