<svg width="48" height="48" viewBox="0 0 32 32" xmlns="http://www.w3.org/2000/svg"><path d="M9.41406 5.49998L11.7069 3.20718L10.2926 1.79297L7.99985 4.08577L7.00006 3.08598L6.29295 3.79309C4.86207 5.22398 3.97174 6.44795 3.72131 7.60955C3.5216 8.53587 3.74447 9.30372 4.16873 9.95179C3.69197 10.4883 3.31575 11.0076 3.04307 11.553C2.65024 12.3387 2.50093 13.1197 2.5 13.992V15.0002H4.5V14.0002C4.5 13.3758 4.601 12.9093 4.83193 12.4474C4.99492 12.1214 5.23526 11.7724 5.59337 11.3605C6.23194 11.7658 6.9857 11.9741 7.89071 11.779C9.05231 11.5285 10.2763 10.6382 11.7072 9.2073L12.4143 8.5002L11.4142 7.50008L13.707 5.20718L12.2928 3.79297L9.99994 6.08586L9.41406 5.49998ZM7.01765 5.932L9.56826 8.48261C8.5829 9.36764 7.92066 9.72654 7.4692 9.82387C7.06842 9.91028 6.72832 9.81425 6.20717 9.29309C5.68601 8.77194 5.58998 8.43184 5.67638 8.03105C5.77372 7.5796 6.13262 6.91736 7.01765 5.932Z" fill="#000000" class="bmwfcol"/><path d="M8.0034 15L28.7673 15L28.9659 15.7412C29.4629 17.5958 29.7278 18.6477 29.8625 19.4919C30 20.3539 30 20.9912 29.9999 21.964L30.0003 23.5773L29.5001 23.866C28.6379 24.3639 28.0483 24.669 27.5181 24.8312C27.0623 24.9707 26.6772 24.995 26.2923 24.9992C25.9067 25.8826 25.0254 26.5 23.9999 26.5C22.9748 26.5 22.0937 25.883 21.708 25H14.2919C13.9061 25.883 13.0251 26.5 11.9999 26.5C10.9748 26.5 10.0937 25.883 9.70796 25H6.99994L6.99994 21.9818C6.99993 21.2365 6.99992 20.7241 7.1402 19.9188C7.27165 19.1641 7.52639 18.1486 8.0034 16.3655V15ZM26.9329 22.9188C27.1582 22.8498 27.4598 22.7149 28 22.417L27.9999 22.0002C27.9999 21.6007 27.9997 21.2822 27.9924 21H9.01938C9.00029 21.2896 8.99994 21.5861 8.99994 22V23H9.70796C10.0937 22.117 10.9748 21.5 11.9999 21.5C13.0251 21.5 13.9061 22.117 14.2919 23H21.708C22.0937 22.117 22.9748 21.5 23.9999 21.5C25.0245 21.5 25.9051 22.1164 26.2913 22.9985C26.5919 22.9941 26.7403 22.9777 26.9329 22.9188ZM27.7305 19C27.6191 18.4973 27.4601 17.8659 27.2314 17L25.7672 17L26.3031 19H27.7305ZM24.2326 19L23.6967 17L21.2648 17L21.8007 19H24.2326ZM19.7302 19L19.1943 17L16.7672 17L17.3031 19H19.7302ZM15.2326 19L14.6967 17L13 17V19H15.2326ZM11 19V17L9.90402 17C9.67955 17.8406 9.51166 18.4857 9.38567 19H11ZM11.4999 24C11.4999 24.2761 11.7238 24.5 11.9999 24.5C12.2761 24.5 12.4999 24.2761 12.4999 24C12.4999 23.7239 12.2761 23.5 11.9999 23.5C11.7238 23.5 11.4999 23.7239 11.4999 24ZM23.9999 23.5C23.7238 23.5 23.4999 23.7239 23.4999 24C23.4999 24.2761 23.7238 24.5 23.9999 24.5C24.2761 24.5 24.4999 24.2761 24.4999 24C24.4999 23.7239 24.2761 23.5 23.9999 23.5Z" fill="#000000" class="bmwfcol"/><title>charging-bus_rg_48</title></svg>