<svg width="48" height="48" viewBox="0 0 32 32" xmlns="http://www.w3.org/2000/svg"><path d="M9.41406 5.49998L11.7069 3.20718L10.2926 1.79297L7.99985 4.08577L7.00006 3.08598L6.29295 3.79309C4.86207 5.22398 3.97174 6.44795 3.72131 7.60955C3.5216 8.53587 3.74447 9.30372 4.16873 9.95179C3.69197 10.4883 3.31575 11.0076 3.04307 11.553C2.65024 12.3387 2.50093 13.1197 2.5 13.992V15.0002H4.5V14.0002C4.5 13.3758 4.601 12.9093 4.83193 12.4474C4.99492 12.1214 5.23526 11.7724 5.59337 11.3605C6.23194 11.7658 6.9857 11.9741 7.89071 11.779C9.05231 11.5285 10.2763 10.6382 11.7072 9.2073L12.4143 8.5002L11.4142 7.50008L13.707 5.20718L12.2928 3.79297L9.99994 6.08586L9.41406 5.49998ZM7.01765 5.932L9.56826 8.48261C8.5829 9.36764 7.92066 9.72654 7.4692 9.82387C7.06842 9.91028 6.72832 9.81425 6.20717 9.29309C5.68601 8.77194 5.58998 8.43184 5.67638 8.03105C5.77372 7.5796 6.13262 6.91736 7.01765 5.932Z" fill="#000000" class="bmwfcol"/><path d="M9.99971 15.7321L12.7318 11H15.0412L14.0796 12.6655L15.3773 13.9631C16.1978 13.8918 16.8747 13.8376 17.4316 13.8177C18.0824 13.7946 18.6577 13.8134 19.1626 13.9452C20.1096 14.1926 20.6248 14.7925 21.0683 15.5H22.1181L25.8502 14.5H30.0001L29.9996 17.6448L29.2586 17.8434C27.1739 18.402 26.2095 18.663 25.4297 18.9664C24.7426 19.2339 24.1953 19.5356 23.108 20.1599L23.009 20.5294L23.5184 20.6659C24.1347 19.6663 25.2395 19 26.4999 19C28.4329 19 29.9999 20.567 29.9999 22.5C29.9999 24.433 28.4329 26 26.4999 26C24.5997 26 23.0531 24.4856 23.0013 22.5979L22.4909 22.4611L22.2123 23.4999L18.0857 23.5L17.7928 23.2071C15.713 21.1273 14.3784 19.8728 13.443 19.1121L13.3341 19.5185C14.3337 20.1347 14.9999 21.2396 14.9999 22.5C14.9999 24.433 13.4329 26 11.4999 26C9.56694 26 7.99994 24.433 7.99994 22.5C7.99994 20.5997 9.51435 19.0532 11.4021 19.0013L11.6573 18.0489C11.4748 18.0105 11.2809 18 10.9999 18H10.0001L9.99971 15.7321ZM13.3713 14.7856L13.0444 14.4586L12.5977 15.2323L13.3713 14.7856ZM13.9155 16.9609C14.9891 17.7092 16.4747 19.0701 18.9136 21.5L20.678 21.4999L21.3913 18.8401L21.8337 18.5855C23.0811 17.8677 23.7964 17.456 24.7044 17.1026C25.2212 16.9015 25.7988 16.7199 26.5766 16.5H26.1135L22.3814 17.5L19.9226 17.5L19.6339 17C19.0849 16.0491 18.9316 15.952 18.6573 15.8804C18.4431 15.8244 18.1059 15.795 17.5027 15.8165C16.95 15.8361 16.2476 15.8944 15.3082 15.9768L13.7727 16.8633C13.8198 16.8948 13.8674 16.9273 13.9155 16.9609ZM10.8235 21.1608C10.3349 21.4081 9.99994 21.915 9.99994 22.5C9.99994 23.3284 10.6715 24 11.4999 24C12.3284 24 12.9999 23.3284 12.9999 22.5C12.9999 22.1968 12.91 21.9146 12.7553 21.6786L12.6692 22H10.5986L10.8235 21.1608ZM25.9999 23.4013L25.1608 23.1765C25.4081 23.6651 25.9149 24 26.4999 24C27.3284 24 27.9999 23.3284 27.9999 22.5C27.9999 21.6716 27.3284 21 26.4999 21C26.1967 21 25.9145 21.09 25.6786 21.2447L25.9999 21.3308V23.4013Z" fill="#000000" class="bmwfcol"/><title>charging-motorcycle_rg_48</title></svg>