<svg width="48" height="48" viewBox="0 0 32 32" xmlns="http://www.w3.org/2000/svg"><path d="M13.0857 9.49991L8.29285 4.70706L9.70706 3.29285L14.4999 8.08569L16.9999 5.58569L17.707 6.2928C20.942 9.52782 22.659 12.191 23.0493 14.5759C23.3997 16.7176 22.6606 18.4606 21.3853 19.9715C22.986 21.5761 24.1111 22.7389 24.832 23.8203C25.7136 25.1426 26 26.3464 26 28V30H24V28C24 26.6535 23.7863 25.8573 23.1679 24.9297C22.5663 24.0272 21.5914 23.0118 19.9709 21.3859C18.4601 22.6608 16.7173 23.3997 14.5759 23.0493C12.191 22.659 9.52782 20.942 6.2928 17.707L5.58569 16.9999L8.08569 14.4999L3.29285 9.70706L4.70706 8.29285L9.49991 13.0857L13.0857 9.49991ZM14.8989 21.0755C16.5259 21.3418 17.8703 20.7153 19.2928 19.2928C20.7153 17.8703 21.3418 16.5259 21.0755 14.8989C20.8127 13.2927 19.6568 11.2208 16.9915 8.4225L8.4225 16.9915C11.2208 19.6568 13.2927 20.8127 14.8989 21.0755Z" fill="#000000" class="bmwfcol"/><title>charge_rg_48</title></svg>