<svg width="48" height="48" viewBox="0 0 32 32" xmlns="http://www.w3.org/2000/svg"><path d="M11.7069 3.20718L9.41406 5.49998L9.99994 6.08586L12.2928 3.79297L13.707 5.20718L11.4142 7.50008L12.4143 8.5002L11.7072 9.2073C10.2763 10.6382 9.05231 11.5285 7.89071 11.779C6.9857 11.9741 6.23194 11.7658 5.59337 11.3605C5.23526 11.7724 4.99492 12.1214 4.83193 12.4474C4.601 12.9093 4.5 13.3758 4.5 14.0002V15.0002H2.5V13.992C2.50093 13.1197 2.65024 12.3387 3.04307 11.553C3.31575 11.0076 3.69197 10.4883 4.16873 9.95179C3.74447 9.30372 3.5216 8.53587 3.72131 7.60955C3.97174 6.44795 4.86207 5.22398 6.29295 3.79309L7.00006 3.08598L7.99985 4.08577L10.2926 1.79297L11.7069 3.20718ZM7.01765 5.932C6.13262 6.91736 5.77372 7.5796 5.67638 8.03105C5.58998 8.43184 5.68601 8.77194 6.20717 9.29309C6.72832 9.81425 7.06842 9.91028 7.4692 9.82387C7.92066 9.72654 8.5829 9.36764 9.56826 8.48261L7.01765 5.932Z" fill="#000000" class="bmwfcol"/><path d="M8.37782 24.4587C8.33128 24.4517 8.28214 24.4434 8.22986 24.4338C7.91443 24.3757 7.47593 24.2655 6.74112 24.0686L5.9999 23.87L6.00013 19.4227L6.54584 19.1076C7.50533 18.5535 8.11813 18.1997 9.16866 17.9662C10.1102 17.7569 11.4287 17.6385 13.8014 17.4311C15.1373 16.3317 16.1552 15.6848 17.2514 15.3449C18.3648 14.9996 19.4864 14.9998 20.8953 15L20.9999 15C23.9623 15 25.567 15.8403 28.108 17.3075L30.2499 17.5617V19.2542C30.2499 19.5045 30.2586 19.5255 30.2693 19.5519L30.2705 19.5546C30.2898 19.6023 30.3671 19.7531 30.7069 20.0929L30.9997 20.3858L31 23.2773L30.4999 23.566C29.8292 23.9533 29.3362 24.2287 28.7916 24.3686C28.4156 24.4652 28.035 24.491 27.5999 24.4977C27.0815 25.3957 26.1113 26 24.9999 26C23.8895 26 22.92 25.3967 22.4013 24.5H13.5986C13.0799 25.3967 12.1104 26 10.9999 26C9.87255 26 8.8904 25.3781 8.37782 24.4587ZM9.99994 23C9.99994 23.5523 10.4477 24 10.9999 24C11.5522 24 11.9999 23.5523 11.9999 23C11.9999 22.4477 11.5522 22 10.9999 22C10.4477 22 9.99994 22.4477 9.99994 23ZM8.07081 22.3488C8.36822 21.0051 9.56671 20 10.9999 20C12.4864 20 13.7204 21.0812 13.9585 22.5H22.0414C22.2795 21.0812 23.5134 20 24.9999 20C26.4804 20 27.7104 21.0724 27.9555 22.4828C28.095 22.4727 28.1961 22.4566 28.294 22.4315C28.4629 22.3881 28.6437 22.3111 28.9999 22.1166L28.9998 21.1972C28.7386 20.9016 28.5419 20.6143 28.4169 20.3057C28.2605 19.9199 28.2502 19.5738 28.2499 19.3384L27.4632 19.245L27.2849 19.1418C24.6856 17.6378 23.4688 17 20.9999 17C19.4582 17 18.6379 17.0089 17.8438 17.2552C17.071 17.4948 16.245 17.9895 14.8429 19.1661L14.6013 19.3688L14.2872 19.3962C11.6386 19.6278 10.4208 19.7367 9.60258 19.9185C9.00682 20.051 8.6475 20.2148 8.00007 20.5797L7.99998 22.331C8.02433 22.3372 8.04793 22.3431 8.07081 22.3488ZM24.9999 22C24.4477 22 23.9999 22.4477 23.9999 23C23.9999 23.5523 24.4477 24 24.9999 24C25.5522 24 25.9999 23.5523 25.9999 23C25.9999 22.4477 25.5522 22 24.9999 22Z" fill="#000000" class="bmwfcol"/><title>charging-car_rg_48</title></svg>