<svg width="48" height="48" viewBox="0 0 32 32" xmlns="http://www.w3.org/2000/svg"><path d="M11 4C8.69461 4 7.35751 4.04652 6.54372 4.14543C6.13521 4.19508 5.79939 4.26417 5.51674 4.37604C5.19795 4.50222 4.99053 4.66526 4.82789 4.82789C4.25722 5.39856 4 6.17408 4 7V19C4 19.8259 4.25722 20.6014 4.82789 21.1721C4.99053 21.3347 5.19795 21.4978 5.51674 21.624C5.79939 21.7358 6.13521 21.8049 6.54372 21.8546C7.23189 21.9382 8.29429 21.9844 10 21.9967V23C10 24.7272 10.5801 26.2443 11.6679 27.3321C12.7557 28.4199 14.2728 29 16 29H20C21.7272 29 23.2443 28.4199 24.3321 27.3321C25.4199 26.2443 26 24.7272 26 23V13.9013C26.7642 13.7377 27.4773 13.348 28.0162 12.5689C28.7156 11.5576 29 10.0467 29 8V7H28V4H26V7H24V4H22V7H21V8C21 10.0467 21.2844 11.5576 21.9838 12.5689C22.5227 13.348 23.2358 13.7377 24 13.9013V23C24 24.2728 23.5801 25.2557 22.9179 25.9179C22.2557 26.5801 21.2728 27 20 27H16C14.7272 27 13.7443 26.5801 13.0821 25.9179C12.4199 25.2557 12 24.2728 12 23V21.9967C13.7057 21.9844 14.7681 21.9382 15.4563 21.8546C15.8648 21.8049 16.2006 21.7358 16.4833 21.624C16.8021 21.4978 17.0095 21.3347 17.1721 21.1721C17.7428 20.6014 18 19.8259 18 19V7C18 6.17408 17.7428 5.39856 17.1721 4.82789C17.0095 4.66526 16.8021 4.50222 16.4833 4.37604C16.2006 4.26417 15.8648 4.19508 15.4563 4.14543C14.6425 4.04652 13.3054 4 11 4ZM6.24211 6.24211C6.24434 6.23988 6.24556 6.23803 6.24556 6.23803C6.24556 6.23803 6.24864 6.23732 6.25279 6.23568C6.3053 6.21489 6.44791 6.17179 6.78503 6.13082C7.46249 6.04848 8.68539 6 11 6C13.3146 6 14.5375 6.04848 15.215 6.13082C15.5521 6.17179 15.6947 6.21489 15.7472 6.23568C15.7514 6.23732 15.7544 6.23803 15.7544 6.23803C15.7544 6.23803 15.7557 6.23988 15.7579 6.24211C15.8772 6.36144 16 6.58592 16 7V19C16 19.4141 15.8772 19.6386 15.7579 19.7579C15.7557 19.7601 15.7544 19.762 15.7544 19.762C15.7544 19.762 15.7514 19.7627 15.7472 19.7643C15.6947 19.7851 15.5521 19.8282 15.215 19.8692C14.5375 19.9515 13.3146 20 11 20C8.68539 20 7.46249 19.9515 6.78503 19.8692C6.44791 19.8282 6.3053 19.7851 6.25279 19.7643C6.25022 19.7633 6.24722 19.7623 6.24722 19.7623L6.24556 19.762C6.24556 19.762 6.24434 19.7601 6.24211 19.7579C6.12278 19.6386 6 19.4141 6 19V7C6 6.58592 6.12278 6.36144 6.24211 6.24211ZM23.029 9H26.971C26.8894 10.3066 26.646 11.034 26.3713 11.4311C26.1035 11.8184 25.7284 12 25 12C24.2716 12 23.8965 11.8184 23.6287 11.4311C23.354 11.034 23.1106 10.3066 23.029 9Z" fill="#000000" class="bmwfcol"/><path d="M9 8.5V13H11V14.5H9.63381L12 18.4436L14.3662 14.5H13V11H11V8.5H9Z" fill="#000000" class="bmwfcol"/><title>charging_wallbox_rg_48</title></svg>