<svg width="48" height="48" viewBox="0 0 32 32" xmlns="http://www.w3.org/2000/svg"><path d="M26.7072 10.7072L24.7072 12.7072L23.293 11.293L25.293 9.29297L26.7072 10.7072ZM23.7072 13.7072L21.7072 15.7072L20.293 14.293L22.293 12.293L23.7072 13.7072ZM6.70718 15.293L8.70718 17.293L7.29297 18.7072L5.29297 16.7072L6.70718 15.293ZM20.7072 16.7072L18.7072 18.7072L17.293 17.293L19.293 15.293L20.7072 16.7072ZM9.70718 18.293L11.7072 20.293L10.293 21.7072L8.29297 19.7072L9.70718 18.293ZM17.7072 19.7072L15.7072 21.7072L14.293 20.293L16.293 18.293L17.7072 19.7072ZM11.293 22.7072L12.7072 21.293L13.0001 21.5859L13.293 21.293L14.7072 22.7072L13.0001 24.4143L11.293 22.7072Z" fill="#000000" class="bmwfcol"/><title>checkmark-dashed_rg_48</title></svg>