<svg width="48" height="48" viewBox="0 0 32 32" xmlns="http://www.w3.org/2000/svg"><path d="M20.9991 14C19.967 14 19.1272 13.7231 18.4981 13.2716L17.332 14.8965C18.3432 15.6221 19.6036 16 20.9991 16C22.3946 16 23.655 15.6221 24.6662 14.8965L23.5001 13.2716C22.871 13.7231 22.0312 14 20.9991 14Z" fill="#000000" class="bmwfcol"/><path d="M19 8.5C18.1716 8.5 17.5 9.17157 17.5 10C17.5 10.8284 18.1716 11.5 19 11.5C19.8284 11.5 20.5 10.8284 20.5 10C20.5 9.17157 19.8284 8.5 19 8.5Z" fill="#000000" class="bmwfcol"/><path d="M23 8.5C22.1716 8.5 21.5 9.17157 21.5 10C21.5 10.8284 22.1716 11.5 23 11.5C23.8284 11.5 24.5 10.8284 24.5 10C24.5 9.17157 23.8284 8.5 23 8.5Z" fill="#000000" class="bmwfcol"/><path d="M15.2179 6.21789C16.6557 4.78011 18.6728 4 21 4C23.3272 4 25.3443 4.78011 26.7821 6.21789C28.2199 7.65567 29 9.67275 29 12C29 14.3272 28.2199 16.3443 26.7821 17.7821C25.3443 19.2199 23.3272 20 21 20C18.6728 20 16.6557 19.2199 15.2179 17.7821C13.7801 16.3443 13 14.3272 13 12C13 9.67275 13.7801 7.65567 15.2179 6.21789ZM16.6321 7.63211C15.6199 8.64433 15 10.1272 15 12C15 13.8728 15.6199 15.3557 16.6321 16.3679C17.6443 17.3801 19.1272 18 21 18C22.8728 18 24.3557 17.3801 25.3679 16.3679C26.3801 15.3557 27 13.8728 27 12C27 10.1272 26.3801 8.64433 25.3679 7.63211C24.3557 6.61989 22.8728 6 21 6C19.1272 6 17.6443 6.61989 16.6321 7.63211Z" fill="#000000" class="bmwfcol"/><path d="M6.00008 10.4142L10.2072 6.20712L8.79297 4.79291L6.00008 7.5858L4.70718 6.29291L3.29297 7.70712L6.00008 10.4142Z" fill="#000000" class="bmwfcol"/><path d="M28 25V23L14 23V25L28 25Z" fill="#000000" class="bmwfcol"/><path d="M10.2072 14.2071L6.00008 18.4142L3.29297 15.7071L4.70718 14.2929L6.00008 15.5858L8.79297 12.7929L10.2072 14.2071Z" fill="#000000" class="bmwfcol"/><path d="M6.00008 26.4142L10.2072 22.2071L8.79297 20.7929L6.00008 23.5858L4.70718 22.2929L3.29297 23.7071L6.00008 26.4142Z" fill="#000000" class="bmwfcol"/><title>checklist-smiley_rg_48</title></svg>