<svg width="48" height="48" viewBox="0 0 32 32" xmlns="http://www.w3.org/2000/svg"><path d="M27.2562 3.96912H26.4651V7.44663C26.4651 8.22658 26.4738 8.45124 26.5658 8.73548C26.6749 9.07262 26.9067 9.50058 27.5251 10.5718L30.0469 14.9395L30.0473 15.9202L29.7542 16.2133L29.6961 16.2718C29.4585 16.5117 29.148 16.8252 28.6917 16.9773C28.4549 17.0562 28.2208 17.0813 28.0083 17.0925C27.8045 17.1032 27.558 17.1032 27.2801 17.1032H22.3387V15.1032H27.2561C27.5155 15.1032 27.6932 15.103 27.8292 15.0984L26.5659 12.9104C25.1773 12.8436 24.3702 12.5442 23.6216 12.2635L23.6043 12.257C23.1215 12.0759 22.6677 11.9057 22.0146 11.81L21.0717 13.443L19.9999 11.2995L20.4201 10.5718C21.0385 9.50058 21.2703 9.07262 21.3794 8.73548C21.4714 8.45124 21.4801 8.22658 21.4801 7.44663V3.96912H20.6891V1.96912H27.2562V3.96912ZM23.4801 3.96912L23.4801 7.52961C23.4804 8.20268 23.4807 8.73805 23.2823 9.35125C23.2185 9.54821 23.1349 9.75119 23.03 9.97181C23.5267 10.0928 23.9332 10.2443 24.3239 10.3908L24.3411 10.3973C24.6542 10.5147 24.9551 10.6275 25.306 10.7184C25.0027 10.1736 24.792 9.75011 24.6629 9.35125C24.4645 8.73804 24.4648 8.20268 24.4651 7.5296L24.4651 3.96912H23.4801Z" fill="#000000" class="bmwfcol"/><path d="M12.1743 11.2391C12.3584 10.9203 12.8186 10.9203 13.0027 11.2391L15.9391 16.3252L13.8892 15.776L15.1267 17.9192L18.5378 18.8333L19.4539 15.4143L18.2165 13.271L17.6677 15.3192L14.7347 10.2391C13.7809 8.58705 11.3963 8.58727 10.4423 10.2391L7.86442 14.7002L9.59609 15.7008L12.1743 11.2391Z" fill="#000000" class="bmwfcol"/><path d="M4.06631 25.2826L6.99841 20.204L7.54461 22.2425L8.78204 20.0992L7.868 16.688L4.4491 17.604L3.21167 19.7473L5.27132 19.1955L2.33426 24.2826C1.38037 25.9348 2.57273 28 4.48049 28H9.63199V26H4.48049C4.11233 26 3.88222 25.6014 4.06631 25.2826Z" fill="#000000" class="bmwfcol"/><path d="M22.8427 24.2826L20.2695 19.8216L18.5371 20.8209L21.1107 25.2826C21.2948 25.6014 21.0647 26 20.6965 26H14.827L16.327 24.5H13.8521L11.3521 27L13.8521 29.5H16.3269L14.8269 28H20.6965C22.6043 28 23.7966 25.9348 22.8427 24.2826Z" fill="#000000" class="bmwfcol"/><title>chemical_recycling_rg_48</title></svg>