<svg width="48" height="48" viewBox="0 0 32 32" xmlns="http://www.w3.org/2000/svg"><path d="M13.6675 13.1053H15.4018L17.5882 19.1H15.953L15.582 18.0835H13.4661L13.1026 19.1H11.489L13.6675 13.1053ZM14.5133 15.0277L13.9487 16.6373H15.0828L14.5133 15.0277Z" fill="#000000" class="bmwfcol"/><path d="M19.9066 13.1053H18.3936V19.1H19.9066V13.1053Z" fill="#000000" class="bmwfcol"/><path d="M17 5H15V3H13V5H11V3H9V5H6.58579L5 6.58579V9H3V11H5V13H3V15H5V17H3V19H5V21H3V23H5V25.4142L6.58579 27H9V29H11V27H13V29H15V27H17V29H19V27H21V29H23V27H25.4142L27 25.4142V23H29V21H27V19H29V17H27V15H29V13H27V11H29V9H27V6.58579L25.4142 5H23V3H21V5H19V3H17V5ZM7.41421 7H24.5858L25 7.41421V24.5858L24.5858 25H7.41421L7 24.5858V7.41421L7.41421 7Z" fill="#000000" class="bmwfcol"/><title>chip_with_ai_rg_48</title></svg>