<svg width="48" height="48" viewBox="0 0 32 32" xmlns="http://www.w3.org/2000/svg"><path d="M4.41632 3L30.4163 29H27.5879L1.58789 3H4.41632Z" fill="#000000" class="bmwfcol"/><path d="M23.5039 6H21.5039C21.5042 8.41423 22.7605 9.67012 23.7659 10.6753L23.7968 10.7062C24.6745 11.5839 25.3383 12.2678 25.4771 13.5H27.4853C27.3261 11.4065 26.1759 10.2566 25.2421 9.32302L25.2111 9.29202C24.2218 8.30274 23.5042 7.5597 23.5039 6Z" fill="#000000" class="bmwfcol"/><path d="M24.502 15.0002H19.2444L21.2444 17.0002H22.502V18.2578L24.502 20.2578V15.0002Z" fill="#000000" class="bmwfcol"/><path d="M6.00195 19.0002H14.7591L16.7591 21.0002H4.00195V15.0002H10.7591L12.7591 17.0002H6.00195V19.0002Z" fill="#000000" class="bmwfcol"/><path d="M27.502 21.0002V15.0002H25.502V21.0002H27.502Z" fill="#000000" class="bmwfcol"/><title>cigarette_crossed_out_rg_48</title></svg>