<svg width="48" height="48" viewBox="0 0 32 32" xmlns="http://www.w3.org/2000/svg"><path d="M20.1366 3.01164C20.9375 2.21077 22.0043 2 23 2C23.9957 2 25.0625 2.21077 25.8634 3.01164C26.661 3.80931 27 4.99734 27 6.5C27 8.00266 26.661 9.19069 25.8634 9.98836C25.0625 10.7892 23.9957 11 23 11C22.0043 11 20.9375 10.7892 20.1366 9.98836C19.339 9.19069 19 8.00266 19 6.5C19 4.99734 19.339 3.80931 20.1366 3.01164ZM21.5509 4.42586C21.286 4.69069 21 5.25266 21 6.5C21 7.74734 21.286 8.30931 21.5509 8.57414C21.8125 8.83577 22.2457 9 23 9C23.7543 9 24.1875 8.83577 24.4491 8.57414C24.714 8.30931 25 7.74734 25 6.5C25 5.25266 24.714 4.69069 24.4491 4.42586C24.1875 4.16423 23.7543 4 23 4C22.2457 4 21.8125 4.16423 21.5509 4.42586Z" fill="#000000" class="bmwfcol"/><path d="M8 16C8 17.5316 8.31456 18.8753 8.87771 20H6.69698C6.23926 18.7925 6 17.4463 6 16C6 13.0728 6.98011 10.5557 8.76789 8.76789C10.5557 6.98011 13.0728 6 16 6C16.339 6 16.6725 6.01314 17 6.03916V8.04655C16.6763 8.01576 16.3429 8 16 8C13.5272 8 11.5443 8.81989 10.1821 10.1821C8.81989 11.5443 8 13.5272 8 16Z" fill="#000000" class="bmwfcol"/><path d="M22 21.6286V24.2585C22.4414 23.9537 22.8531 23.6111 23.2321 23.2321C24.5979 21.8663 25.4923 20.0748 25.8385 18H23.805C23.5064 19.4581 22.8772 20.6807 22 21.6286Z" fill="#000000" class="bmwfcol"/><path d="M16.4648 16H18.5373C18.9039 14.7135 19.1768 14.4251 19.4866 14.2751C19.7034 14.1702 20.0406 14.088 20.639 14.0442C21.2346 14.0006 21.9862 14 23 14C24.0139 14 24.7654 14.0006 25.361 14.0442C25.9594 14.088 26.2966 14.1702 26.5134 14.2751C26.8232 14.4251 27.0961 14.7135 27.4627 16H29.5352L29.466 15.7416C29.0668 14.2491 28.6046 13.0654 27.3848 12.4749C26.8269 12.2048 26.1895 12.0995 25.507 12.0495C24.83 12 24.006 12 23.035 12H22.965C21.9941 12 21.17 12 20.493 12.0495C19.8105 12.0995 19.1731 12.2048 18.6152 12.4749C17.3954 13.0654 16.9332 14.2491 16.534 15.7416L16.4648 16Z" fill="#000000" class="bmwfcol"/><path d="M13.1058 21.075C12.1382 21.0747 11.3366 21.0745 10.5222 21.3482C9.73643 21.6124 9.0006 22.1059 8.0313 22.9037C6.29099 23.0559 5.30093 23.1455 4.58856 23.3038C3.77426 23.4848 3.29424 23.762 2.57816 24.1755L2.07514 24.4659L2.07495 28.1618L2.76058 28.3455C3.31053 28.4929 3.64615 28.5774 3.89073 28.6225C4.11154 28.6631 4.26363 28.6723 4.4063 28.6744C4.82726 29.3927 5.60728 29.875 6.49995 29.875C7.39237 29.875 8.1722 29.3929 8.59325 28.675H13.9067C14.3277 29.3929 15.1075 29.875 16 29.875C16.8934 29.875 17.6741 29.3918 18.0948 28.6724C18.3732 28.6659 18.6457 28.6439 18.9284 28.5698C19.3492 28.4596 19.747 28.2488 20.2626 27.9511L20.7252 27.684L20.725 25.2168L20.4541 24.9459C20.2024 24.6943 20.145 24.572 20.1338 24.544L20.1326 24.5414C20.1291 24.5345 20.125 24.5264 20.125 24.4L20.1249 22.9524L18.425 22.8036L18.4236 22.8028C17.5442 22.2933 16.798 21.861 16.0337 21.5644C15.1808 21.2335 14.3224 21.075 13.2 21.075L13.1058 21.075ZM18.4597 26.7802C18.421 26.7903 18.3826 26.7982 18.3381 26.8044C18.0554 25.7785 17.1157 25.025 16 25.025C14.8768 25.025 13.9319 25.7886 13.6563 26.825H8.84365C8.56798 25.7886 7.62314 25.025 6.49995 25.025C5.38898 25.025 4.4525 25.7721 4.16549 26.7913C4.10234 26.7783 4.02467 26.7607 3.92502 26.7364L3.92508 25.5374C4.34852 25.3025 4.5939 25.1978 4.98994 25.1097C5.58929 24.9765 6.48742 24.8957 8.48067 24.7215L8.77124 24.6961L8.99469 24.5086C10.0566 23.6175 10.6188 23.2675 11.1117 23.1018C11.6097 22.9344 12.11 22.925 13.2 22.925C14.1227 22.925 14.7506 23.051 15.3645 23.2892C15.9903 23.532 16.6172 23.8949 17.5609 24.4411L17.8541 24.6108L18.282 24.6482C18.2941 24.8071 18.327 25.0081 18.4161 25.231C18.5156 25.4796 18.6683 25.7183 18.875 25.9618L18.8751 26.605C18.6714 26.7104 18.5555 26.7551 18.4597 26.7802ZM5.92495 27.45C5.92495 27.1324 6.18239 26.875 6.49995 26.875C6.81751 26.875 7.07495 27.1324 7.07495 27.45C7.07495 27.7676 6.81751 28.025 6.49995 28.025C6.18239 28.025 5.92495 27.7676 5.92495 27.45ZM15.425 27.45C15.425 27.1324 15.6824 26.875 16 26.875C16.3175 26.875 16.575 27.1324 16.575 27.45C16.575 27.7676 16.3175 28.025 16 28.025C15.6824 28.025 15.425 27.7676 15.425 27.45Z" fill="#000000" class="bmwfcol"/><title>circle_with_person_and_car_rg_48</title></svg>