<svg width="48" height="48" viewBox="0 0 32 32" xmlns="http://www.w3.org/2000/svg"><path d="M4.30687 13C4.78604 10.7571 5.81546 8.82033 7.31789 7.31789C9.45567 5.18011 12.4728 4 16 4C21.0892 4 23.8741 6.43516 27 9.57099V6L29 8V13H24L22 11H25.5947C22.5012 7.9086 20.2708 6 16 6C12.9272 6 10.4443 7.01989 8.73211 8.73211C7.61876 9.84546 6.79813 11.2847 6.36029 13H4.30687Z" fill="#000000" class="bmwfcol"/><path d="M23.2679 23.2679C24.3812 22.1545 25.2019 20.7153 25.6397 19H27.6931C27.214 21.2429 26.1845 23.1797 24.6821 24.6821C22.5443 26.8199 19.5272 28 16 28C10.9108 28 8.12591 25.5648 5 22.429V26L3 24V19H8L10 21H6.40534C9.49876 24.0914 11.7292 26 16 26C19.0728 26 21.5557 24.9801 23.2679 23.2679Z" fill="#000000" class="bmwfcol"/><path d="M9 10H10C11.5772 10 12.9693 10.5301 13.9696 11.5304C14.923 12.4838 15.4493 13.7931 15.4965 15.2794C16.3494 14.7714 17.3745 14.5 18.5005 14.5H24.0005V15.5C24.0005 17.0772 23.4703 18.4693 22.4701 19.4696C21.4698 20.4699 20.0777 21 18.5005 21H14.5005C12.9232 21 11.5307 20.4699 10.5304 19.4696C9.53011 18.4693 9 17.0772 9 15.5V10ZM15.5 19H18.5005C19.6232 19 20.4811 18.6301 21.0559 18.0554C21.4458 17.6654 21.7415 17.145 21.8913 16.5H18.5005C17.0699 16.5 16.0522 17.0961 15.5 18.0167V19ZM11 12.1092V15.5C11 16.6228 11.3699 17.4807 11.9446 18.0554C12.3346 18.4454 12.855 18.741 13.5 18.8908V15.5C13.5 14.3772 13.1301 13.5193 12.5554 12.9446C12.1654 12.5546 11.645 12.259 11 12.1092Z" fill="#000000" class="bmwfcol"/><title>circular_arrows_and_plant_rg_48</title></svg>