<svg width="48" height="48" viewBox="0 0 32 32" xmlns="http://www.w3.org/2000/svg"><path d="M20.1366 3.01164C20.9375 2.21077 22.0043 2 23 2C23.9957 2 25.0625 2.21077 25.8634 3.01164C26.661 3.80931 27 4.99734 27 6.5C27 8.00266 26.661 9.19069 25.8634 9.98836C25.0625 10.7892 23.9957 11 23 11C22.0043 11 20.9375 10.7892 20.1366 9.98836C19.339 9.19069 19 8.00266 19 6.5C19 4.99734 19.339 3.80931 20.1366 3.01164ZM21.5509 4.42586C21.286 4.69069 21 5.25266 21 6.5C21 7.74734 21.286 8.30931 21.5509 8.57414C21.8125 8.83577 22.2457 9 23 9C23.7543 9 24.1875 8.83577 24.4491 8.57414C24.714 8.30931 25 7.74734 25 6.5C25 5.25266 24.714 4.69069 24.4491 4.42586C24.1875 4.16423 23.7543 4 23 4C22.2457 4 21.8125 4.16423 21.5509 4.42586Z" fill="#000000" class="bmwfcol"/><path d="M10.1821 10.1821C9.66369 10.7006 9.22379 11.3089 8.87776 12H6.69702C7.16571 10.7635 7.86346 9.67237 8.76794 8.76789C10.5557 6.98011 13.0728 6 16 6C16.339 6 16.6725 6.01314 17 6.03916V8.04655C16.6763 8.01576 16.3429 8 16 8C13.5273 8 11.5444 8.81989 10.1821 10.1821Z" fill="#000000" class="bmwfcol"/><path d="M15 25.9608V23.9534C15.3237 23.9842 15.6572 24 16 24C18.4728 24 20.4557 23.1801 21.8179 21.8179C22.7902 20.8456 23.4862 19.5571 23.805 18H25.8385C25.4924 20.0748 24.598 21.8663 23.2321 23.2321C21.4444 25.0199 18.9273 26 16 26C15.661 26 15.3275 25.9869 15 25.9608Z" fill="#000000" class="bmwfcol"/><path d="M3.77586 14.8362C4.3607 14.2221 5.16641 14.0009 6 14.0009H10C10.8336 14.0009 11.6393 14.2221 12.2241 14.8362C12.8003 15.4412 13 16.2586 13 17.1009V26.9009C13 27.7432 12.8003 28.5606 12.2241 29.1655C11.6393 29.7796 10.8336 30.0009 10 30.0009H6C5.16641 30.0009 4.3607 29.7796 3.77586 29.1655C3.19971 28.5606 3 27.7432 3 26.9009V17.1009C3 16.2586 3.19971 15.4412 3.77586 14.8362ZM5.22414 16.2155C5.13362 16.3106 5 16.5432 5 17.1009V24.5013H11V17.1009C11 16.5432 10.8664 16.3106 10.7759 16.2155C10.694 16.1296 10.4997 16.0009 10 16.0009H6C5.50026 16.0009 5.30596 16.1296 5.22414 16.2155ZM5 26.9009C5 27.4586 5.13362 27.6912 5.22414 27.7862C5.30596 27.8721 5.50026 28.0009 6 28.0009H10C10.4997 28.0009 10.694 27.8721 10.7759 27.7862C10.8664 27.6912 11 27.4586 11 26.9009V26.5013H5V26.9009Z" fill="#000000" class="bmwfcol"/><path d="M16.4648 16H18.5373C18.9039 14.7135 19.1768 14.4251 19.4866 14.2751C19.7034 14.1702 20.0406 14.088 20.639 14.0442C21.2346 14.0006 21.9862 14 23 14C24.0139 14 24.7654 14.0006 25.361 14.0442C25.9594 14.088 26.2966 14.1702 26.5134 14.2751C26.8232 14.4251 27.0961 14.7135 27.4627 16H29.5352L29.466 15.7416C29.0668 14.2491 28.6046 13.0654 27.3848 12.4749C26.8269 12.2048 26.1895 12.0995 25.507 12.0495C24.83 12 24.006 12 23.035 12H22.965C21.9941 12 21.17 12 20.493 12.0495C19.8105 12.0995 19.1731 12.2048 18.6152 12.4749C17.3954 13.0654 16.9332 14.2491 16.534 15.7416L16.4648 16Z" fill="#000000" class="bmwfcol"/><title>circle_with_person_and_mobile_phone_rg_48</title></svg>