<svg width="48" height="48" viewBox="0 0 32 32" xmlns="http://www.w3.org/2000/svg"><path d="M24 3.1C24 2.49249 24.4925 2 25.1 2H28.9C29.5075 2 30 2.49249 30 3.1V10.4C30 11.0075 29.5075 11.5 28.9 11.5H26V15H24V3.1ZM26 4V9.5H28V4H26Z" fill="#000000" class="bmwfcol"/><path d="M12.1 5.5C11.4925 5.5 11 5.99249 11 6.6V15H23V6.6C23 5.99248 22.5075 5.5 21.9 5.5H12.1ZM13 13V7.5H21V13H20V10.6C20 9.99249 19.5075 9.5 18.9 9.5L15.1 9.5C14.4925 9.5 14 9.99249 14 10.6V13H13ZM18 11.5V13H16V11.5L18 11.5Z" fill="#000000" class="bmwfcol"/><path d="M13.2 21.075C14.3224 21.075 15.1808 21.2335 16.0337 21.5644C16.798 21.861 17.5442 22.2933 18.4236 22.8028L18.425 22.8036L20.1249 22.9524L20.125 24.3999C20.125 24.5264 20.1291 24.5345 20.1326 24.5414L20.1338 24.544C20.145 24.5719 20.2024 24.6943 20.4541 24.9459L20.725 25.2168L20.7252 27.684L20.2626 27.9511C19.747 28.2488 19.3492 28.4596 18.9284 28.5698C18.6457 28.6439 18.3732 28.6659 18.0948 28.6724C17.6741 29.3918 16.8934 29.875 16 29.875C15.1075 29.875 14.3277 29.3929 13.9066 28.675H8.59325C8.17221 29.3929 7.39238 29.875 6.49995 29.875C5.60727 29.875 4.82725 29.3927 4.40629 28.6744C4.26363 28.6723 4.11154 28.6631 3.89073 28.6224C3.64615 28.5774 3.31053 28.4928 2.76058 28.3455L2.07495 28.1618L2.07514 24.4659L2.57819 24.1755C3.29426 23.762 3.77427 23.4848 4.58856 23.3038C5.30093 23.1455 6.29099 23.0559 8.0313 22.9037C9.0006 22.1059 9.73643 21.6124 10.5222 21.3482C11.3366 21.0745 12.1382 21.0747 13.1058 21.075L13.2 21.075ZM18.3381 26.8044C18.3826 26.7982 18.421 26.7903 18.4597 26.7802C18.5555 26.7551 18.6714 26.7104 18.8751 26.605L18.875 25.9618C18.6683 25.7183 18.5156 25.4796 18.4161 25.231C18.327 25.0081 18.2941 24.8071 18.282 24.6482L17.8541 24.6107L17.5609 24.4411C16.6172 23.8949 15.9903 23.532 15.3645 23.2892C14.7506 23.051 14.1227 22.925 13.2 22.925C12.11 22.925 11.6097 22.9344 11.1117 23.1018C10.6188 23.2675 10.0566 23.6175 8.99469 24.5086L8.77124 24.6961L8.48067 24.7215C6.48742 24.8957 5.58929 24.9765 4.98994 25.1097C4.5939 25.1977 4.34852 25.3025 3.92508 25.5374L3.92502 26.7364C4.02467 26.7607 4.10234 26.7783 4.16549 26.7913C4.45251 25.7721 5.38898 25.025 6.49995 25.025C7.62314 25.025 8.56798 25.7886 8.84364 26.825H13.6563C13.9319 25.7886 14.8768 25.025 16 25.025C17.1157 25.025 18.0554 25.7785 18.3381 26.8044ZM6.49995 26.875C6.18239 26.875 5.92495 27.1324 5.92495 27.45C5.92495 27.7676 6.18239 28.025 6.49995 28.025C6.81751 28.025 7.07495 27.7676 7.07495 27.45C7.07495 27.1324 6.81751 26.875 6.49995 26.875ZM16 26.875C15.6824 26.875 15.425 27.1324 15.425 27.45C15.425 27.7676 15.6824 28.025 16 28.025C16.3175 28.025 16.575 27.7676 16.575 27.45C16.575 27.1324 16.3175 26.875 16 26.875Z" fill="#000000" class="bmwfcol"/><path d="M8.99993 8.54416V11.7664C8.36026 12.937 8 14.3609 8 16C8 17.5316 8.31457 18.8754 8.87776 20.0001H6.69701C6.23927 18.7925 6 17.4463 6 16C6 13.0727 6.98011 10.5556 8.76789 8.76786C8.84393 8.69183 8.92128 8.61726 8.99993 8.54416Z" fill="#000000" class="bmwfcol"/><path d="M21.9999 24.2585V21.6286C23.0708 20.4714 23.7723 18.9048 23.9534 17H25.9608C25.7621 19.5005 24.8128 21.6513 23.2321 23.2321C22.8531 23.611 22.4414 23.9537 21.9999 24.2585Z" fill="#000000" class="bmwfcol"/><title>circle_with_dealer_and_car_rg_48</title></svg>