<svg width="48" height="48" viewBox="0 0 32 32" xmlns="http://www.w3.org/2000/svg"><path d="M20 4H12V9.5C12 10.3382 12.1395 10.8211 12.2618 11.2446L12.2885 11.3372C12.3932 11.7037 12.5 12.1102 12.5 13C12.5 13.8898 12.3932 14.2963 12.2885 14.6628L12.2618 14.7554C12.1395 15.1789 12 15.6618 12 16.5V29H20V16.5C20 15.6618 19.8605 15.1789 19.7382 14.7554L19.7115 14.6628C19.6068 14.2963 19.5 13.8898 19.5 13C19.5 12.1102 19.6068 11.7037 19.7115 11.3372L19.7382 11.2446C19.8605 10.8211 20 10.3382 20 9.5V4ZM14 8V6.00003H18V8H14ZM14.027 10H17.973C17.9417 10.2563 17.8854 10.4515 17.8159 10.6924L17.7885 10.7878C17.6432 11.2963 17.5 11.8898 17.5 13C17.5 14.1102 17.6432 14.7037 17.7885 15.2122L17.8159 15.3076C17.9239 15.6819 18 15.9458 18 16.5V27H14V16.5C14 15.9458 14.0761 15.6819 14.1841 15.3076L14.2115 15.2122C14.3568 14.7037 14.5 14.1102 14.5 13C14.5 11.8898 14.3568 11.2963 14.2115 10.7878L14.1841 10.6924C14.1146 10.4515 14.0583 10.2563 14.027 10Z" fill="#000000" class="bmwfcol"/><title>cleaner_bottle_250ml_rg_48</title></svg>