<svg width="48" height="48" viewBox="0 0 32 32" xmlns="http://www.w3.org/2000/svg"><path d="M19.5 7H12.5V10.5C12.5 10.9308 12.5359 11.2625 12.6057 11.5537C12.6649 11.8003 12.7467 12.0004 12.7998 12.1304L12.8215 12.1839L12.8256 12.1941C12.8981 12.375 13 12.6293 13 13.5C13 14.3707 12.8981 14.625 12.8256 14.8059L12.8215 14.8161L12.7998 14.8696C12.7467 14.9996 12.6649 15.1997 12.6057 15.4463C12.5359 15.7375 12.5 16.0692 12.5 16.5V25H19.5V16.5C19.5 16.0692 19.4641 15.7375 19.3943 15.4463C19.3351 15.1997 19.2533 14.9996 19.2002 14.8696L19.1785 14.8161L19.1744 14.8059C19.1019 14.625 19 14.3707 19 13.5C19 12.6293 19.1019 12.375 19.1744 12.1941L19.1785 12.1839L19.2002 12.1304C19.2533 12.0004 19.3351 11.8003 19.3943 11.5537C19.4641 11.2625 19.5 10.9308 19.5 10.5V7ZM14.5 10V9.00087H17.5V10H14.5ZM14.8596 12H17.1404C17.0557 12.3525 17 12.8085 17 13.5C17 14.6127 17.1442 15.1155 17.3215 15.5589L17.3535 15.6384C17.4051 15.7665 17.4278 15.8227 17.4495 15.9131C17.4734 16.0125 17.5 16.1808 17.5 16.5V23H14.5V16.5C14.5 16.1808 14.5266 16.0125 14.5505 15.9131C14.5722 15.8227 14.5949 15.7665 14.6465 15.6384L14.6785 15.5589C14.8558 15.1155 15 14.6127 15 13.5C15 12.8085 14.9443 12.3525 14.8596 12Z" fill="#000000" class="bmwfcol"/><title>cleaner_bottle_50ml_rg_48</title></svg>