<svg width="48" height="48" viewBox="0 0 32 32" xmlns="http://www.w3.org/2000/svg"><path d="M21 2H11V7.5C11 8.33823 11.1395 8.82107 11.2618 9.24456L11.2885 9.33722C11.3932 9.7037 11.5 10.1102 11.5 11C11.5 11.8898 11.3932 12.2963 11.2885 12.6628L11.2618 12.7554C11.1395 13.1789 11 13.6618 11 14.5V30H21V14.5C21 13.6618 20.8605 13.1789 20.7382 12.7554L20.7115 12.6628C20.6068 12.2963 20.5 11.8898 20.5 11C20.5 10.1102 20.6068 9.7037 20.7115 9.33722L20.7382 9.24456C20.8605 8.82107 21 8.33823 21 7.5V2ZM13 7V4.00003H19V7H13ZM13.2701 9H18.7299C18.607 9.46642 18.5 10.04 18.5 11C18.5 12.1102 18.6432 12.7037 18.7885 13.2122L18.8159 13.3076C18.9239 13.6819 19 13.9458 19 14.5V28H13V14.5C13 13.9458 13.0761 13.6819 13.1841 13.3076L13.2115 13.2122C13.3568 12.7037 13.5 12.1102 13.5 11C13.5 10.04 13.393 9.46642 13.2701 9Z" fill="#000000" class="bmwfcol"/><title>cleaner_bottle_500ml_1000ml_rg_48</title></svg>