<svg width="48" height="48" viewBox="0 0 32 32" xmlns="http://www.w3.org/2000/svg"><path d="M14 9C14 8.32725 14.2199 7.84433 14.5321 7.53211C14.8443 7.21989 15.3272 7 16 7C16.6728 7 17.1557 7.21989 17.4679 7.53211C17.7801 7.84433 18 8.32725 18 9C18 9.67275 17.7801 10.1557 17.4679 10.4679C16.5931 11.3427 16.0631 12.0511 15.7798 12.7658C15.4994 13.473 15.4997 14.1022 15.5 14.649L15.5 15.6359L27.2003 21.1267L27.2025 21.1277C27.4979 21.2655 27.6809 21.4386 27.797 21.631C27.9157 21.8278 28.0002 22.1048 28.0002 22.5C28.0002 23.0228 27.8304 23.3807 27.6056 23.6055C27.3809 23.8302 27.023 24.0001 26.5002 24.0001L5.5 24.0001C4.97725 24.0001 4.61933 23.8302 4.39461 23.6055C4.16989 23.3808 4 23.0228 4 22.5001C4 22.1049 4.08457 21.8278 4.20328 21.631C4.31936 21.4386 4.50231 21.2655 4.79775 21.1277L13.5 17.0698V14.863L3.95251 19.3151C3.33981 19.6008 2.8352 20.027 2.49074 20.598C2.14892 21.1646 2 21.8152 2 22.5001C2 23.4773 2.33011 24.3694 2.98039 25.0197C3.63067 25.67 4.52275 26.0001 5.5 26.0001L26.5002 26.0001C27.4775 26.0001 28.3696 25.6699 29.0199 25.0197C29.6701 24.3694 30.0002 23.4773 30.0002 22.5C30.0002 21.8151 29.8513 21.1646 29.5095 20.598C29.1653 20.0273 28.6611 19.6014 28.049 19.3157L28.0477 19.3151L17.5023 14.3662C17.5092 13.9897 17.5365 13.7614 17.639 13.5029C17.7744 13.1614 18.0819 12.6823 18.8821 11.8821C19.6199 11.1443 20 10.1272 20 9C20 7.87275 19.6199 6.85567 18.8821 6.11789C18.1443 5.38011 17.1272 5 16 5C14.8728 5 13.8557 5.38011 13.1179 6.11789C12.3801 6.85567 12 7.87275 12 9H14Z" fill="#000000" class="bmwfcol"/><title>cloakroom_rg_48</title></svg>