<svg width="48" height="48" viewBox="0 0 32 32" xmlns="http://www.w3.org/2000/svg"><path d="M14 11V13H18V11H14Z" fill="#000000" class="bmwfcol"/><path d="M13 18V14H11V18H13Z" fill="#000000" class="bmwfcol"/><path d="M21 18V14H19V18H21Z" fill="#000000" class="bmwfcol"/><path d="M14 19V21H18V19H14Z" fill="#000000" class="bmwfcol"/><path d="M16 14.5C15.1716 14.5 14.5 15.1716 14.5 16C14.5 16.8284 15.1716 17.5 16 17.5C16.8284 17.5 17.5 16.8284 17.5 16C17.5 15.1716 16.8284 14.5 16 14.5Z" fill="#000000" class="bmwfcol"/><path d="M3 16C3 8.8203 8.8203 3 16 3C23.1797 3 29 8.8203 29 16C29 23.1797 23.1797 29 16 29C8.8203 29 3 23.1797 3 16ZM7.58066 8.92044L9.21753 11.7556C10.2547 10.1017 11.88 8.85419 13.8004 8.3062L15.707 5.00383C12.4469 5.08908 9.53997 6.59276 7.58066 8.92044ZM21.5596 10.2475H25.3778C23.7624 7.61973 21.0735 5.72269 17.922 5.16734L16.2837 8.00494C18.3314 8.0763 20.1835 8.91727 21.5596 10.2475ZM24 16C24 16.6695 23.9178 17.3199 23.7628 17.9414L25.6708 21.2461C26.5185 19.6868 27 17.8997 27 16C27 14.6822 26.7683 13.4185 26.3433 12.2475H23.0671C23.6626 13.3666 24 14.6439 24 16ZM18.1996 23.6938L16.293 26.9962C19.5533 26.9109 22.4604 25.4071 24.4197 23.0792L22.7828 20.2439C21.7456 21.8981 20.1202 23.1458 18.1996 23.6938ZM10.4394 21.7515H6.6216C8.2369 24.3798 10.9261 26.2772 14.078 26.8327L15.7163 23.9951C13.6681 23.9237 11.8156 23.0823 10.4394 21.7515ZM8 16C8 15.3302 8.08231 14.6797 8.23737 14.0579L6.32949 10.7533C5.48164 12.3128 5 14.1001 5 16C5 17.3174 5.2316 18.5808 5.6563 19.7515H8.93235C8.33722 18.6326 8 17.3557 8 16ZM16 10C12.6863 10 10 12.6863 10 16C10 19.3137 12.6863 22 16 22C19.3137 22 22 19.3137 22 16C22 12.6863 19.3137 10 16 10Z" fill="#000000" class="bmwfcol"/><title>clutch_rg_48</title></svg>