<svg width="48" height="48" viewBox="0 0 32 32" xmlns="http://www.w3.org/2000/svg"><path d="M29 19C29 19.727 28.9066 20.3952 28.7331 21H30.7934C30.93 20.366 31 19.6969 31 19C31 16.6728 30.2199 14.6557 28.7821 13.2179C27.4376 11.8733 25.5864 11.1039 23.4487 11.0098C22.1822 7.28417 18.8457 5 14.5 5C13.6253 5 12.7888 5.09225 12 5.2718V7.33602C12.7578 7.11728 13.5935 7 14.5 7C18.2981 7 20.9204 9.0498 21.7317 12.2505L21.9294 13.0302L22.7333 13.0043C22.8213 13.0014 22.9102 13 23 13C24.8728 13 26.3557 13.6199 27.3679 14.6321C28.3801 15.6443 29 17.1272 29 19Z" fill="#000000" class="bmwfcol"/><path d="M8 25H9V27H8C5.97275 27 4.20567 26.3199 2.94289 25.0571C1.68011 23.7943 1 22.0272 1 20C1 18.9057 1.19902 17.8942 1.57293 17H3.82984C3.2982 17.7935 3 18.8049 3 20C3 21.5728 3.51989 22.8057 4.35711 23.6429C5.19433 24.4801 6.42725 25 8 25Z" fill="#000000" class="bmwfcol"/><path d="M12.5124 19.3191C12.9609 19.0543 13.5491 18.8862 14.3387 18.8862C14.7851 18.8862 15.2669 18.9586 15.6882 19.0389C16.1582 19.1289 16.4796 19.1991 16.8112 19.2795L16.9641 19.3166V21.1578L16.7183 21.0999C16.3807 21.0205 15.9074 20.9121 15.485 20.8335C15.124 20.7652 14.8187 20.7275 14.5176 20.7275C14.1063 20.7275 13.8151 20.7854 13.6024 20.8907C13.3954 20.9931 13.2483 21.1477 13.1359 21.3724C12.9504 21.7435 12.8887 22.2867 12.8887 23.0821C12.8887 23.8131 12.9419 24.3869 13.1505 24.752C13.3616 25.1194 13.7563 25.2777 14.5673 25.2777C15.1878 25.2777 16.109 25.0847 16.7224 24.954L16.9641 24.9025V26.7539L16.7905 26.7897C16.1189 26.9279 15.1913 27.1189 14.3089 27.1189C13.4807 27.1189 12.8896 26.9489 12.45 26.6884C12.0106 26.428 11.7394 26.087 11.5369 25.7755C11.1365 25.1587 10.9778 24.2349 10.9778 23.1119C10.9778 21.9513 11.1061 21.0089 11.5543 20.2833C11.7695 19.9369 12.0642 19.5837 12.5124 19.3191Z" fill="#000000" class="bmwfcol"/><path d="M19.3794 19.2421C19.8462 19.0053 20.4475 18.8862 21.2653 18.8862C21.973 18.8862 22.5234 18.9828 22.9733 19.1875C23.4262 19.3936 23.7621 19.7025 24.0511 20.1016C24.6063 20.86 24.7753 21.9173 24.7753 23.0225C24.7753 24.3065 24.5233 25.2697 24.0406 25.9242C23.7524 26.3172 23.424 26.6215 22.9752 26.8242C22.53 27.0252 21.9819 27.1189 21.2653 27.1189C20.4596 27.1189 19.8751 27.0129 19.4218 26.7992C18.9637 26.5831 18.6577 26.2655 18.3959 25.8779C17.9556 25.2228 17.7552 24.2802 17.7552 23.0225C17.7552 21.9609 17.8837 20.979 18.3317 20.2535C18.5932 19.8299 18.9085 19.4809 19.3794 19.2421ZM21.2653 20.6977C20.6577 20.6977 20.2328 20.789 19.9744 21.2089C19.8599 21.3956 19.7811 21.6519 19.7321 21.9672C19.6834 22.2808 19.6661 22.6396 19.6661 23.0225C19.6661 23.4054 19.6834 23.7615 19.732 24.0712C19.7809 24.3826 19.8596 24.6332 19.9733 24.8145C20.2216 25.2065 20.6385 25.3075 21.2653 25.3075C21.811 25.3075 22.1807 25.2114 22.4514 24.8751C22.7801 24.4686 22.8644 23.8205 22.8644 23.0225C22.8644 22.2575 22.7921 21.6644 22.5374 21.2604L22.5366 21.2591C22.2808 20.8466 21.869 20.6977 21.2653 20.6977Z" fill="#000000" class="bmwfcol"/><path d="M26.0919 23.7822C26.3388 23.723 27.0064 23.568 27.5699 23.568C28.1365 23.568 28.6136 23.6801 28.9411 23.9251C29.2859 24.1756 29.4896 24.6062 29.4896 25.0602C29.4896 25.3107 29.4511 25.5183 29.3643 25.7141C29.2788 25.9068 29.1514 26.0764 28.992 26.2564L28.9904 26.2581C28.8259 26.4396 28.6496 26.611 28.4756 26.7687H29.738V28.2422H25.869V26.9346L25.9537 26.8748C26.4623 26.5158 27.0696 26.0746 27.3882 25.7946L27.3891 25.7938C27.5782 25.6296 27.6968 25.5162 27.7684 25.4257C27.8367 25.3393 27.847 25.2925 27.847 25.259C27.847 25.215 27.8414 25.1948 27.8371 25.1849C27.8339 25.1775 27.8276 25.1661 27.805 25.1485C27.798 25.143 27.7735 25.1284 27.7045 25.1172C27.6362 25.1062 27.5423 25.1011 27.4109 25.1011C27.0029 25.1011 26.4319 25.2427 26.1871 25.3039L25.9386 25.366V23.819L26.0919 23.7822Z" fill="#000000" class="bmwfcol"/><path d="M6 13.5857L2 9.58572L2 12.4141L6.99997 17.4141L12 12.4141V9.58566L8 13.5857V5H6V13.5857Z" fill="#000000" class="bmwfcol"/><title>co2_and_arrow_down_rg_48</title></svg>