<svg width="48" height="48" viewBox="0 0 32 32" xmlns="http://www.w3.org/2000/svg"><path d="M17.0133 26.8167L17.1729 26.7838V24.9324L16.9312 24.9839C16.3214 25.1138 15.4971 25.2777 14.8756 25.2777C14.0645 25.2777 13.6698 25.1194 13.4587 24.7519C13.2502 24.3868 13.1969 23.813 13.1969 23.0821C13.1969 22.2867 13.2586 21.7436 13.4442 21.3724C13.5566 21.1477 13.7037 20.9932 13.9107 20.8907C14.1234 20.7854 14.4145 20.7276 14.8259 20.7276C15.127 20.7276 15.4317 20.7651 15.7927 20.8334C16.2174 20.9124 16.5926 20.9914 16.9271 21.0701L17.1729 21.128V19.2769L17.02 19.2398C16.6874 19.1591 16.4451 19.1087 15.9661 19.0189C15.5274 18.9497 15.0924 18.8863 14.647 18.8863C13.8573 18.8863 13.2692 19.0543 12.8207 19.3191C12.4037 19.5653 12.1459 19.9043 11.8629 20.2829C11.4147 21.0086 11.286 21.9514 11.286 23.112C11.286 24.2349 11.4447 25.1586 11.8451 25.7754C12.0476 26.0869 12.3189 26.4281 12.7583 26.6885C13.1978 26.9489 13.7889 27.119 14.6171 27.119C15.5044 27.119 16.3372 26.9559 17.0133 26.8167Z" fill="#000000" class="bmwfcol"/><path d="M18.5 25.8775C18.7619 26.2651 19.0681 26.5831 19.5262 26.7992C19.9795 27.013 20.564 27.119 21.3697 27.119C22.0864 27.119 22.6344 27.0252 23.0796 26.8242C23.5284 26.6216 23.8566 26.3173 24.1448 25.9244C24.6276 25.27 24.8797 24.3066 24.8797 23.0225C24.8797 21.9174 24.7107 20.8601 24.1555 20.1017C23.8666 19.7026 23.5306 19.3936 23.0777 19.1875C22.6278 18.9828 22.0774 18.8863 21.3697 18.8863C20.5519 18.8863 19.9507 19.0053 19.4838 19.2421C19.013 19.4809 18.6976 19.8299 18.4362 20.2535C17.9881 20.979 17.8596 21.961 17.8596 23.0225C17.8596 24.2802 18.0597 25.2224 18.5 25.8775ZM22.6401 21.2577C22.8875 21.664 22.9688 22.2608 22.9688 23.0225C22.9688 23.8205 22.8845 24.4687 22.5558 24.8752C22.2851 25.2115 21.9155 25.3075 21.3697 25.3075C20.743 25.3075 20.326 25.2066 20.0778 24.8145C19.964 24.6333 19.8854 24.3826 19.8364 24.0712C19.7878 23.7615 19.7705 23.4054 19.7705 23.0225C19.7705 22.6397 19.7878 22.2809 19.8365 21.9672C19.8855 21.6519 19.9643 21.3956 20.0788 21.2089C20.3372 20.789 20.7622 20.6977 21.3697 20.6977C21.976 20.6977 22.385 20.8381 22.6401 21.2577Z" fill="#000000" class="bmwfcol"/><path d="M25.869 28.2422H29.738V26.7687H28.4756C28.6496 26.611 28.8259 26.4396 28.9904 26.2581C29.1498 26.0781 29.2787 25.9069 29.3642 25.7141C29.4511 25.5183 29.4895 25.3108 29.4895 25.0602C29.4895 24.6062 29.2859 24.1756 28.941 23.9251C28.6136 23.6802 28.1365 23.568 27.5699 23.568C27.0064 23.568 26.3388 23.723 26.0919 23.7823L25.9385 23.8191V25.3661L26.187 25.3039C26.4318 25.2427 27.0029 25.1012 27.4109 25.1012C27.5423 25.1012 27.6362 25.1062 27.7045 25.1172C27.7735 25.1284 27.7979 25.143 27.805 25.1485C27.8276 25.1661 27.8339 25.1775 27.8371 25.185C27.8413 25.1949 27.847 25.2151 27.847 25.259C27.847 25.2926 27.8367 25.3393 27.7684 25.4257C27.6968 25.5162 27.5782 25.6296 27.3891 25.7939C27.0705 26.0739 26.4623 26.5158 25.9536 26.8749L25.869 26.9346V28.2422Z" fill="#000000" class="bmwfcol"/><path d="M28.7331 21C28.9066 20.3952 29 19.727 29 19C29 17.1272 28.3801 15.6443 27.3679 14.6321C26.3557 13.6199 24.8728 13 23 13C22.9102 13 22.8213 13.0014 22.7333 13.0043L21.9294 13.0302L21.7317 12.2505C20.9204 9.0498 18.2981 7 14.5 7C12.2112 7 10.374 7.74766 9.10174 8.98819C7.8299 10.2283 7.04666 12.035 7.00201 14.2956L6.98755 15.0276L6.28542 15.2349C4.28921 15.8244 3 17.5152 3 20C3 21.5728 3.51989 22.8057 4.35711 23.6429C5.19433 24.4801 6.42725 25 8 25H9V27H8C5.97275 27 4.20567 26.3199 2.94289 25.0571C1.68011 23.7943 1 22.0272 1 20C1 16.9813 2.51441 14.5933 5.03671 13.5566C5.22747 11.141 6.15678 9.06635 7.70549 7.55624C9.40134 5.90266 11.7639 5 14.5 5C18.8457 5 22.1822 7.28417 23.4487 11.0098C25.5864 11.1039 27.4376 11.8733 28.7821 13.2179C30.2199 14.6557 31 16.6728 31 19C31 19.6969 30.93 20.366 30.7934 21H28.7331Z" fill="#000000" class="bmwfcol"/><title>co2_rg_48</title></svg>