<svg width="48" height="48" viewBox="0 0 32 32" xmlns="http://www.w3.org/2000/svg"><path d="M10.779 2H5.22102L4 15.9563V26H2V28H16V26H6V16.0436L7.05368 4H8.94634L10 16.0436V18H16V16L12 16V15.9563L10.779 2Z" fill="#000000" class="bmwfcol"/><path d="M20.678 2H22.325L22.5279 2.0959C23.9562 2.77096 24.8713 4.06182 25.1268 5.65981L25.6081 4.84525L26.5187 5.70686C27.4877 6.62381 28 7.92609 28 9.4C28 10.8272 27.5199 12.0943 26.6071 13.0071C25.6943 13.9199 24.4272 14.4 23 14.4C21.5728 14.4 20.3057 13.9199 19.3929 13.0071C18.4801 12.0943 18 10.8272 18 9.4C18 7.82801 18.9175 6.5558 19.592 5.63082L19.7078 5.47223C20.0242 5.03948 20.2894 4.67671 20.4917 4.3184C20.7138 3.92499 20.8 3.63582 20.8 3.4C20.8 3.29498 20.795 3.19414 20.7855 3.09756L20.678 2ZM25.814 8.21677C25.745 8.28818 25.6715 8.35568 25.5925 8.41736C25.0955 8.8054 24.5697 8.80216 24.2591 8.80024L24.2 8.8H23.2V6.6C23.2 5.76081 22.9641 5.09142 22.5667 4.601C22.4719 4.85065 22.3558 5.08464 22.2333 5.30159C21.9688 5.77009 21.6289 6.23431 21.3237 6.65091L21.208 6.80917C20.4825 7.80419 20 8.57198 20 9.4C20 10.3727 20.3199 11.1057 20.8071 11.5929C21.2943 12.0801 22.0272 12.4 23 12.4C23.9728 12.4 24.7057 12.0801 25.1929 11.5929C25.6801 11.1057 26 10.3727 26 9.4C26 8.95544 25.9332 8.56085 25.814 8.21677Z" fill="#000000" class="bmwfcol"/><path d="M22.4694 30.4147L21.3487 26.2322L22.4817 26.5358L23.4586 22.8901L20.6766 24.4963H19.0282L21.3048 16H23.3753L21.9081 21.4759L24.4643 20.0001H26.3035L24.4136 27.0534L25.5312 27.3529L22.4694 30.4147Z" fill="#000000" class="bmwfcol"/><title>combined_heat_and_power_rg_48</title></svg>