<svg width="48" height="48" viewBox="0 0 32 32" xmlns="http://www.w3.org/2000/svg"><path d="M26.3436 13C25.4984 9.07165 22.4033 6 19 6H4V8H19C21.3475 8 24.05 10.462 24.5077 14.124L24.6172 15H28.5V13H26.3436Z" fill="#000000" class="bmwfcol"/><path d="M26.3436 19C25.4984 22.9284 22.4033 26 19 26H4V24H19C21.3475 24 24.05 21.538 24.5077 17.876L24.6172 17H28.5V19H26.3436Z" fill="#000000" class="bmwfcol"/><path d="M5.89161 9.5H4V9.58826L5.45007 15H7.36533L5.89161 9.5Z" fill="#000000" class="bmwfcol"/><path d="M10.8654 15H8.9501L7.47638 9.5H9.39164L10.8654 15Z" fill="#000000" class="bmwfcol"/><path d="M12.4501 15H14.3653L12.8916 9.5H10.9764L12.4501 15Z" fill="#000000" class="bmwfcol"/><path d="M17.8653 15H15.95L14.4763 9.5H16.3916L17.8653 15Z" fill="#000000" class="bmwfcol"/><path d="M5.67664 22.5H7.5919L9.06562 17H7.15036L5.67664 22.5Z" fill="#000000" class="bmwfcol"/><path d="M10.6504 17H12.5656L11.0919 22.5H9.17667L10.6504 17Z" fill="#000000" class="bmwfcol"/><path d="M16.0656 17H14.1504L12.6766 22.5H14.5919L16.0656 17Z" fill="#000000" class="bmwfcol"/><path d="M17.6503 17H19.5656L18.0919 22.5H16.1766L17.6503 17Z" fill="#000000" class="bmwfcol"/><path d="M18.3925 11.3059L19.9918 11.7344L18.985 13.4782L19.4 15L20.2426 15L22 11.9561V10.3573L18.8007 9.50002H17.9L18.3925 11.3059Z" fill="#000000" class="bmwfcol"/><path d="M20.8249 18.0086L22 20.0439V21.6427L19.663 22.2688L20.8249 18.0086Z" fill="#000000" class="bmwfcol"/><title>compounder_rg_48</title></svg>