<svg width="48" height="48" viewBox="0 0 32 32" xmlns="http://www.w3.org/2000/svg"><path d="M16 3C12.1728 3 8.90567 4.28011 6.59289 6.59289C4.28011 8.90567 3 12.1728 3 16C3 19.8272 4.28011 23.0943 6.59289 25.4071C8.90567 27.7199 12.1728 29 16 29C19.8272 29 23.0943 27.7199 25.4071 25.4071C27.7199 23.0943 29 19.8272 29 16C29 12.1728 27.7199 8.90567 25.4071 6.59289C23.0943 4.28011 19.8272 3 16 3ZM10.2377 13L13.2377 16H10.7628L6.7627 11.9999L10.7626 8H13.2375L10.2375 11L24 11V13L10.2377 13ZM21.7627 21H8V19H21.7629L18.7629 16H21.2378L25.2377 19.9999L21.2376 24H18.7627L21.7627 21Z" fill="#000000" class="bmwfcol"/><title>compare_filled_rg_48</title></svg>