<svg width="48" height="48" viewBox="0 0 32 32" xmlns="http://www.w3.org/2000/svg"><path d="M24 12V8H20V6H24V2H26V6H30V8H26V12H24Z" fill="#000000" class="bmwfcol"/><path d="M27.0752 16C27.0752 15.306 27.028 14.6387 26.9366 14H28.8029C28.8839 14.6469 28.9252 15.3143 28.9252 16C28.9252 19.8102 27.6511 23.0572 25.3543 25.354C23.0574 27.6508 19.8104 28.9249 16.0002 28.9249C12.19 28.9249 8.94294 27.6508 6.64612 25.354C4.3493 23.0572 3.0752 19.8102 3.0752 16C3.0752 12.1897 4.3493 8.9427 6.64612 6.64588C8.94294 4.34906 12.19 3.07495 16.0002 3.07495C16.6858 3.07495 17.3531 3.1162 18 3.19724V5.06349C17.3613 4.97213 16.6941 4.92495 16.0002 4.92495C15.0784 4.92495 14.0603 5.66038 13.229 7.65531C12.8388 8.59181 12.5223 9.74113 12.2989 11.075H21.5878L21.6878 11.8868C21.8439 13.1537 21.9252 14.5314 21.9252 16C21.9252 17.0737 21.8817 18.1016 21.7967 19.075H26.7353C26.958 18.121 27.0752 17.0936 27.0752 16ZM4.9252 16C4.9252 17.0936 5.0424 18.121 5.26509 19.075H10.2036C10.1186 18.1016 10.0752 17.0737 10.0752 16C10.0752 14.9262 10.1186 13.8983 10.2036 12.925H5.26509C5.0424 13.8789 4.9252 14.9063 4.9252 16ZM5.86547 20.925C6.37727 22.1291 7.08462 23.1762 7.95427 24.0459C9.10795 25.1996 10.5739 26.0676 12.3047 26.5724C12.009 26.1112 11.748 25.6001 11.5214 25.0562C11.0382 23.8967 10.6693 22.5039 10.4251 20.925H5.86547ZM12.2989 20.925C12.5223 22.2588 12.8388 23.4081 13.229 24.3446C14.0603 26.3395 15.0784 27.075 16.0002 27.075C16.9219 27.075 17.94 26.3394 18.7713 24.3442C19.1615 23.4077 19.478 22.2585 19.7014 20.925H12.2989ZM12.0611 12.925C11.9722 13.8815 11.9252 14.909 11.9252 16C11.9252 17.0909 11.9722 18.1184 12.0611 19.075H19.9392C20.0282 18.1184 20.0752 17.0909 20.0752 16C20.0752 14.912 20.0284 13.8842 19.9392 12.925H12.0611ZM21.5752 20.925C21.331 22.5037 20.9621 23.8963 20.479 25.0557C20.2523 25.5998 19.9913 26.1111 19.6955 26.5725C21.4264 26.0677 22.8924 25.1996 24.0461 24.0459C24.9158 23.1762 25.6231 22.1291 26.1349 20.925H21.5752ZM10.4251 11.075C10.6693 9.49595 11.0382 8.10322 11.5214 6.94373C11.748 6.39978 12.009 5.88875 12.3047 5.4275C10.5739 5.93228 9.10795 6.80034 7.95427 7.95402C7.08462 8.82367 6.37727 9.87075 5.86547 11.075H10.4251Z" fill="#000000" class="bmwfcol"/><title>connected_plus_rg_48</title></svg>