<svg width="48" height="48" viewBox="0 0 32 32" xmlns="http://www.w3.org/2000/svg"><path d="M23.9858 24C25.8783 22.1113 27 19.3758 27 16C27 12.6272 25.8801 9.89433 23.9929 8.00711C22.1057 6.11989 19.3728 5 16 5C12.6272 5 9.89433 6.11989 8.00711 8.00711C6.11989 9.89433 5 12.6272 5 16C5 19.3728 6.11988 22.1057 8.00711 23.9929C9.70413 25.6899 12.085 26.7665 15 26.9662L15 13.4137L11 17.4137V14.5853L15.9999 9.58545L21 14.5856V17.414L17 13.414L17 29H16C12.1728 29 8.90567 27.7199 6.59289 25.4071C4.28011 23.0943 3 19.8272 3 16C3 12.1728 4.28011 8.90567 6.59289 6.59289C8.90567 4.28012 12.1728 3 16 3C19.8272 3 23.0943 4.28011 25.4071 6.59289C27.7199 8.90567 29 12.1728 29 16C29 19.1064 28.1565 21.8433 26.6034 24H23.9858Z" fill="#000000" class="bmwfcol"/><title>connected-drive-upgrades_rg_48</title></svg>