<svg width="48" height="48" viewBox="0 0 32 32" xmlns="http://www.w3.org/2000/svg"><path d="M23.9252 13C23.9252 13.0546 23.9249 13.1092 23.9243 13.1636L22.0556 13.6944C22.0686 13.4668 22.0752 13.2353 22.0752 13C22.0752 12.0815 21.9748 11.2212 21.7848 10.425H18.0656C18.1382 11.2412 18.1752 12.102 18.1752 13C18.1752 13.6226 18.1574 14.2274 18.1223 14.8118L17 15.1307V20.4497C16.9779 20.5043 16.9555 20.5583 16.9328 20.6118C16.8171 20.8838 16.6907 21.1471 16.5534 21.3983C15.671 22.9519 14.3743 23.905 13.2985 23.905L13.2709 23.9224C13.181 23.9241 13.0908 23.9249 13.0002 23.9249C9.78999 23.9249 7.04294 22.8508 5.09612 20.904C3.1493 18.9572 2.0752 16.2102 2.0752 13C2.0752 9.78975 3.1493 7.0427 5.09612 5.09588C7.04294 3.14906 9.78999 2.07495 13.0002 2.07495C16.2104 2.07495 18.9574 3.14906 20.9043 5.09588C22.8511 7.0427 23.9252 9.78975 23.9252 13ZM3.9252 13C3.9252 13.9184 4.02555 14.7787 4.2156 15.575H7.9348C7.86219 14.7588 7.8252 13.898 7.8252 13C7.8252 12.1019 7.86219 11.2411 7.9348 10.425H4.2156C4.02555 11.2212 3.9252 12.0815 3.9252 13ZM4.86951 17.425C5.26974 18.2521 5.78755 18.9792 6.40427 19.5959C7.24461 20.4362 8.2898 21.0929 9.51403 21.5187C9.35059 21.2318 9.20185 20.9279 9.06765 20.6121C8.68203 19.7049 8.38191 18.6318 8.17332 17.425H4.86951ZM10.0537 17.425C10.2362 18.3772 10.4792 19.2038 10.7702 19.8885C11.4658 21.5251 12.2933 22.0749 13.0002 22.0749C13.707 22.0749 14.5345 21.525 15.2301 19.8881C15.5211 19.2035 15.7641 18.377 15.9466 17.425H10.0537ZM16.2077 15.575C16.2844 14.776 16.3252 13.9156 16.3252 13C16.3252 12.0843 16.2844 11.2239 16.2077 10.425H9.79268C9.71595 11.2239 9.6752 12.0843 9.6752 13C9.6752 13.9156 9.71595 14.776 9.79268 15.575H16.2077ZM8.17332 8.57495C8.38191 7.36808 8.68203 6.29504 9.06765 5.38777C9.20185 5.07201 9.35059 4.76813 9.51403 4.48117C8.2898 4.90696 7.24461 5.56368 6.40427 6.40403C5.78755 7.02074 5.26974 7.74778 4.86951 8.57495H8.17332ZM10.0537 8.57495H15.9466C15.7641 7.62287 15.5211 6.79643 15.2301 6.11176C14.5345 4.47494 13.707 3.92495 13.0002 3.92495C12.2933 3.92495 11.4658 4.47483 10.7702 6.11142C10.4792 6.79613 10.2362 7.62268 10.0537 8.57495ZM17.827 8.57495H21.1309C20.7306 7.74778 20.2128 7.02074 19.5961 6.40403C18.7557 5.56363 17.7105 4.90689 16.4862 4.4811C16.6497 4.7682 16.7985 5.07223 16.9328 5.38815C17.3183 6.29537 17.6184 7.36829 17.827 8.57495Z" fill="#000000" class="bmwfcol"/><path d="M28.3703 13.9997L29.999 13.9995V24.9996C29.9979 26.161 29.5603 27.1021 28.7321 27.7175C27.9518 28.2973 26.9487 28.4952 25.9633 28.4952C24.4322 28.4952 22.9988 27.3473 22.999 25.5308C22.9992 24.2953 23.7071 23.4318 24.5129 22.9229C25.2956 22.4286 26.2452 22.2082 27.0356 22.2095L27.0605 22.2095C27.3246 22.2094 27.6283 22.2093 27.999 22.2892V16.1698L20.999 18.0454V27.4996C20.999 28.6631 20.5614 29.6058 19.7321 30.2219C18.9518 30.8016 17.9487 30.9996 16.9633 30.9996C15.4322 30.9996 13.9988 29.8517 13.999 28.0352C13.9992 26.7997 14.7071 25.9362 15.5129 25.4273C16.2956 24.933 17.2452 24.7126 18.0356 24.7139L18.0605 24.7139C18.3246 24.7138 18.6283 24.7137 18.999 24.7936V16.5108L28.3703 13.9997ZM27.999 24.3839C27.8221 24.3111 27.6984 24.2724 27.6028 24.2499C27.4438 24.2126 27.3275 24.2095 27.0347 24.2095L27.0329 24.2095C26.57 24.2086 26.0022 24.3478 25.5809 24.6139C25.1822 24.8657 24.9991 25.164 24.999 25.531C24.999 26.1298 25.4202 26.4952 25.9633 26.4952C26.7233 26.4952 27.2381 26.3359 27.5393 26.1121C27.7915 25.9247 27.999 25.6175 27.999 24.9952V24.3839ZM18.999 26.8883C18.8221 26.8155 18.6984 26.7768 18.6028 26.7543C18.4438 26.717 18.3275 26.7139 18.0347 26.7139L18.0329 26.7139C17.57 26.713 17.0022 26.8522 16.5809 27.1183C16.1822 27.3701 15.9991 27.6684 15.999 28.0354C15.999 28.6342 16.4202 28.9996 16.9633 28.9996C17.7233 28.9996 18.2381 28.8403 18.5393 28.6165C18.7915 28.4291 18.999 28.1218 18.999 27.4996V26.8883Z" fill="#000000" class="bmwfcol"/><title>connected_entertainment_rg_48</title></svg>