<svg width="48" height="48" viewBox="0 0 32 32" xmlns="http://www.w3.org/2000/svg"><path d="M7 28.1548V25.843C5.3337 24.8625 4.76816 24.3982 4.44171 23.485C4.24263 22.9281 4.12257 22.1551 4.06127 20.9302C4.0003 19.7118 4 18.1357 4 16.0002C4 13.8648 4.0003 12.2887 4.06127 11.0703C4.12257 9.84537 4.24263 9.0724 4.44171 8.5155C4.76816 7.6023 5.3337 7.13798 7 6.15752V3.8457L6.50018 4.13427C4.5581 5.25563 3.20135 6.0438 2.55843 7.84226C2.25747 8.68415 2.1275 9.69686 2.06377 10.9704C2 12.2447 2 13.8711 2 15.9719V16.0288C2 18.1296 2 19.7557 2.06377 21.0301C2.1275 22.3036 2.25747 23.3163 2.55843 24.1582C3.20135 25.9567 4.55813 26.7449 6.50021 27.8662L7 28.1548Z" fill="#000000" class="bmwfcol"/><path d="M25 3.8457V6.15752C26.6663 7.13798 27.2318 7.60231 27.5583 8.5155C27.7574 9.0724 27.8774 9.84537 27.9387 11.0703C27.9997 12.2887 28 13.8648 28 16.0002C28 18.1357 27.9997 19.7118 27.9387 20.9302C27.8774 22.1551 27.7574 22.9281 27.5583 23.485C27.2318 24.3982 26.6663 24.8625 25 25.843V28.1548L25.4998 27.8662C27.4419 26.7449 28.7987 25.9567 29.4416 24.1582C29.7425 23.3163 29.8725 22.3036 29.9362 21.0301C30 19.7557 30 18.1294 30 16.0286V15.9719C30 13.871 30 12.2448 29.9362 10.9704C29.8725 9.69686 29.7425 8.68415 29.4416 7.84226C28.7987 6.0438 27.4419 5.25563 25.4998 4.13428L25 3.8457Z" fill="#000000" class="bmwfcol"/><path d="M10.7967 17.1968C10.3713 17.4611 9.97905 17.7713 9.625 18.1253C8.30972 19.4406 7.59961 21.2827 7.59961 23.3999V24.3999H8.59961C10.7169 24.3999 12.5589 23.6898 13.8742 22.3745C14.2283 22.0205 14.5385 21.6283 14.8028 21.2028L13.3331 19.7331C13.102 20.2032 12.8068 20.6135 12.46 20.9603C11.7736 21.6467 10.8383 22.1308 9.68326 22.3163C9.8687 21.1612 10.3528 20.2259 11.0392 19.5395C11.386 19.1927 11.7963 18.8976 12.2665 18.6665L10.7967 17.1968Z" fill="#000000" class="bmwfcol"/><path d="M15.8854 11.2L12.0197 11.1999C11.5676 11.1995 11.088 11.199 10.6436 11.326C10.1077 11.4791 9.70209 11.7833 9.2925 12.1929L7.59961 13.8858V15.3419L12.2821 16.5966L15.403 19.7175L16.6577 24.4H18.1138L19.8067 22.7071C20.2163 22.2975 20.5205 21.8919 20.6736 21.356C20.8006 20.9116 20.8001 20.432 20.7997 19.9799L20.7996 16.1142L22.7382 14.1758C23.6607 13.2544 24.3336 12.5825 24.6734 11.6761C24.854 11.1947 24.9291 10.6901 24.9649 10.1186C24.9996 9.5623 24.9996 8.87994 24.9996 8.03252V7L23.967 7C23.1196 6.99999 22.4373 6.99999 21.881 7.03476C21.3095 7.07047 20.8049 7.14562 20.3235 7.32616C19.4171 7.66605 18.7452 8.33888 17.8238 9.2615L15.8854 11.2ZM19.1067 10.8071C20.2165 9.69728 20.5746 9.36799 21.0257 9.19882C21.2443 9.11687 21.5272 9.06077 22.0057 9.03086C22.2842 9.01346 22.6062 9.00587 22.997 9.00256C22.9937 9.39341 22.9861 9.71545 22.9687 9.99387C22.9388 10.4724 22.8827 10.7553 22.8008 10.9739C22.6316 11.425 22.3023 11.7831 21.1925 12.8929L16.3 17.786L14.2142 15.7002L19.1067 10.8071ZM17.4151 19.4993L18.7996 18.1148V19.9C18.7996 20.4748 18.7911 20.6646 18.7506 20.8065C18.7287 20.8831 18.6829 21.0025 18.3925 21.2929L18.0007 21.6847L17.4151 19.4993ZM13.8859 13.2L12.5012 14.5848L10.3149 13.9989L10.7067 13.6071C10.9971 13.3167 11.1165 13.2709 11.1931 13.249C11.335 13.2085 11.5248 13.2 12.0996 13.2H13.8859Z" fill="#000000" class="bmwfcol"/><title>connected-booster-package_rg_48</title></svg>