<svg width="48" height="48" viewBox="0 0 32 32" xmlns="http://www.w3.org/2000/svg"><path d="M16.2077 10.425C16.2558 10.9263 16.2898 11.4518 16.3085 12H18.1595C18.1422 11.4589 18.1108 10.9333 18.0656 10.425H21.7848C21.9042 10.9252 21.9882 11.4507 22.0341 12H23.8896C23.6889 9.21915 22.6457 6.83735 20.9043 5.09588C18.9574 3.14906 16.2104 2.07495 13.0002 2.07495C9.78999 2.07495 7.04294 3.14906 5.09612 5.09588C3.1493 7.0427 2.0752 9.78975 2.0752 13C2.0752 16.2102 3.1493 18.9572 5.09612 20.904C6.83755 22.6455 9.21925 23.6886 12 23.8893V21.6954C11.5782 21.364 11.1541 20.7917 10.7702 19.8885C10.4792 19.2038 10.2362 18.3772 10.0537 17.425H12V15.575H9.79268C9.71595 14.776 9.6752 13.9156 9.6752 13C9.6752 12.0843 9.71595 11.2239 9.79268 10.425H16.2077ZM3.9252 13C3.9252 12.0815 4.02555 11.2212 4.2156 10.425H7.9348C7.86219 11.2411 7.8252 12.1019 7.8252 13C7.8252 13.898 7.86219 14.7588 7.9348 15.575H4.2156C4.02555 14.7787 3.9252 13.9184 3.9252 13ZM4.86951 17.425H8.17332C8.38191 18.6318 8.68203 19.7049 9.06765 20.6121C9.20185 20.9279 9.35059 21.2318 9.51403 21.5187C8.2898 21.0929 7.24461 20.4362 6.40427 19.5959C5.78755 18.9792 5.26974 18.2521 4.86951 17.425ZM8.17332 8.57495H4.86951C5.26974 7.74778 5.78755 7.02074 6.40427 6.40403C7.24461 5.56368 8.2898 4.90696 9.51403 4.48117C9.35059 4.76813 9.20185 5.07201 9.06765 5.38777C8.68203 6.29504 8.38191 7.36808 8.17332 8.57495ZM10.0537 8.57495C10.2362 7.62268 10.4792 6.79613 10.7702 6.11142C11.4658 4.47483 12.2933 3.92495 13.0002 3.92495C13.707 3.92495 14.5345 4.47494 15.2301 6.11176C15.5211 6.79643 15.7641 7.62287 15.9466 8.57495H10.0537ZM17.827 8.57495C17.6184 7.36829 17.3183 6.29537 16.9328 5.38815C16.7985 5.07223 16.6497 4.7682 16.4862 4.4811C17.7105 4.90689 18.7557 5.56363 19.5961 6.40403C20.2128 7.02074 20.7306 7.74778 21.1309 8.57495H17.827Z" fill="#000000" class="bmwfcol"/><path d="M22.3576 18L19 18V26H21V23.7678C21.6476 23.7653 22.2863 23.7584 22.5818 23.74C23.1711 23.7033 23.9245 23.5546 24.5337 23.0063C24.9217 22.6571 25.1072 22.2167 25.1996 21.8436C25.2915 21.4726 25.3077 21.1023 25.3077 20.8146C25.3077 20.1595 25.1457 19.3733 24.5945 18.772C23.9701 18.0907 23.1384 17.9974 22.3576 18ZM22.4575 21.7439C22.2137 21.7591 21.6288 21.7652 21 21.7677V20L22.3593 20.0001L22.3629 20C22.6952 19.9989 22.8809 20.0232 22.991 20.0542C23.0753 20.078 23.099 20.1002 23.1202 20.1234C23.21 20.2213 23.3077 20.4413 23.3077 20.8146C23.3077 21.0411 23.2927 21.2237 23.2583 21.3628C23.2293 21.4797 23.1989 21.5162 23.1952 21.5202C23.0728 21.63 22.8533 21.7193 22.4575 21.7439Z" fill="#000000" class="bmwfcol"/><path d="M30 14H14V30H30V14ZM16 28V16H28V28H16Z" fill="#000000" class="bmwfcol"/><title>connected_parking_rg_48</title></svg>