<svg width="48" height="48" viewBox="0 0 32 32" xmlns="http://www.w3.org/2000/svg"><path d="M20.9043 20.904C20.872 20.9363 20.8396 20.9682 20.8069 21H17.6837C18.4046 20.62 19.0445 20.1475 19.5961 19.5959C20.2128 18.9792 20.7307 18.2521 21.1309 17.425H17.827C17.6184 18.6316 17.3183 19.7045 16.9328 20.6118C16.8768 20.7434 16.8184 20.8729 16.7574 21H14.6337C14.839 20.7036 15.0395 20.3367 15.2301 19.8881C15.5211 19.2035 15.7641 18.377 15.9466 17.425H10.0537C10.2362 18.3772 10.4792 19.2038 10.7702 19.8885C10.9608 20.3369 11.1613 20.7037 11.3665 21H9.24285C9.18192 20.873 9.12353 20.7436 9.06765 20.6121C8.68203 19.7049 8.38191 18.6318 8.17332 17.425H4.86951C5.26974 18.2521 5.78755 18.9792 6.40427 19.5959C6.95589 20.1475 7.59579 20.62 8.31665 21H5.19347C5.1608 20.9682 5.12835 20.9363 5.09612 20.904C3.1493 18.9572 2.0752 16.2102 2.0752 13C2.0752 9.78975 3.1493 7.0427 5.09612 5.09588C7.04294 3.14906 9.78999 2.07495 13.0002 2.07495C16.2104 2.07495 18.9574 3.14906 20.9043 5.09588C22.8511 7.0427 23.9252 9.78975 23.9252 13C23.9252 16.2102 22.8511 18.9572 20.9043 20.904ZM3.9252 13C3.9252 13.9184 4.02555 14.7787 4.2156 15.575H7.9348C7.86219 14.7588 7.8252 13.898 7.8252 13C7.8252 12.1019 7.86219 11.2411 7.9348 10.425H4.2156C4.02555 11.2212 3.9252 12.0815 3.9252 13ZM21.7848 15.575C21.9748 14.7787 22.0752 13.9184 22.0752 13C22.0752 12.0815 21.9748 11.2212 21.7848 10.425H18.0656C18.1382 11.2412 18.1752 12.102 18.1752 13C18.1752 13.8979 18.1382 14.7587 18.0656 15.575H21.7848ZM16.2077 15.575C16.2844 14.776 16.3252 13.9156 16.3252 13C16.3252 12.0843 16.2844 11.2239 16.2077 10.425H9.79268C9.71595 11.2239 9.6752 12.0843 9.6752 13C9.6752 13.9156 9.71595 14.776 9.79268 15.575H16.2077ZM8.17332 8.57495C8.38191 7.36808 8.68203 6.29504 9.06765 5.38777C9.20185 5.07201 9.35059 4.76813 9.51403 4.48117C8.2898 4.90696 7.24461 5.56368 6.40427 6.40403C5.78755 7.02074 5.26974 7.74778 4.86951 8.57495H8.17332ZM10.0537 8.57495H15.9466C15.7641 7.62287 15.5211 6.79643 15.2301 6.11176C14.5345 4.47494 13.707 3.92495 13.0002 3.92495C12.2933 3.92495 11.4658 4.47483 10.7702 6.11142C10.4792 6.79613 10.2362 7.62268 10.0537 8.57495ZM17.827 8.57495H21.1309C20.7306 7.74778 20.2128 7.02074 19.5961 6.40403C18.7557 5.56363 17.7105 4.90689 16.4862 4.4811C16.6497 4.7682 16.7985 5.07223 16.9328 5.38815C17.3183 6.29537 17.6184 7.36829 17.827 8.57495Z" fill="#000000" class="bmwfcol"/><path d="M18.5107 22.8793C17.9057 22.8793 17.3555 22.9436 16.9423 23.2617C16.4814 23.612 16.285 24.0856 16.285 24.7414C16.285 25.2735 16.4482 25.7227 16.8241 26.0374L16.825 26.0381C17.0714 26.2421 17.3553 26.3553 17.7437 26.4822L17.7452 26.4827L18.7024 26.787L18.7038 26.7874C18.8589 26.8354 19.0021 26.882 19.119 26.9269C19.2424 26.9742 19.3141 27.0114 19.3429 27.0345C19.3881 27.0706 19.4237 27.1328 19.4237 27.279C19.4237 27.4169 19.3812 27.4971 19.2902 27.5578L19.2884 27.5589C19.1798 27.633 18.9978 27.68 18.5701 27.68C17.9781 27.68 17.1757 27.5218 16.5762 27.4019L16.337 27.3541V28.8476L16.5037 28.8786C17.0184 28.9742 17.837 29.1262 18.481 29.1262C19.3255 29.1262 19.868 28.9895 20.3118 28.6378C20.7537 28.2892 20.9515 27.8037 20.9515 27.2196C20.9515 26.6944 20.7659 26.2098 20.4146 25.9105C20.1477 25.6785 19.7928 25.564 19.3881 25.4339L18.4228 25.1295C18.1111 25.0307 17.9893 24.9874 17.8874 24.9142C17.8443 24.8815 17.8129 24.8343 17.8129 24.6672C17.8129 24.595 17.821 24.552 17.8338 24.5211C17.8453 24.4933 17.8659 24.4624 17.9135 24.4246C18.0072 24.354 18.1589 24.3255 18.5552 24.3255C18.7841 24.3255 19.1319 24.3743 19.4963 24.4401C19.8567 24.5052 20.2188 24.5842 20.471 24.6399L20.7141 24.6935V23.2159L20.5578 23.1809C20.065 23.0706 19.1822 22.8793 18.5107 22.8793ZM20.5143 24.2398V24.4437C20.4802 24.4362 20.444 24.4285 20.4061 24.4204L20.3141 24.4007V24.4446L20.5143 24.4437L20.5572 24.2492L20.5143 24.2398ZM16.5372 27.8021V27.5981L16.737 27.6378V27.5981H16.5372L16.4978 27.7942L16.5372 27.8021Z" fill="#000000" class="bmwfcol"/><path d="M26.3249 22.8793C25.728 22.8793 25.2798 23.0064 24.9358 23.2094C24.5922 23.4123 24.3668 23.683 24.2033 23.9462C23.8609 24.5005 23.7653 25.2161 23.7653 26.0844C23.7653 26.9251 23.8837 27.6271 24.1909 28.1003C24.3442 28.3362 24.5518 28.5979 24.8892 28.7978C25.2267 28.9978 25.6773 29.1262 26.3026 29.1262C26.9706 29.1262 27.5969 29.0034 28.1015 28.8995L28.2612 28.8666V27.3806L28.0195 27.4321C27.5634 27.5293 26.9533 27.6503 26.4955 27.6503C25.8935 27.6503 25.6251 27.5327 25.482 27.2836C25.3338 27.0243 25.2932 26.6092 25.2932 26.0621C25.2932 25.4683 25.3398 25.0738 25.4724 24.8085C25.552 24.6493 25.6544 24.5427 25.7978 24.4717C25.9468 24.3979 26.1555 24.3552 26.4584 24.3552C26.6789 24.3552 26.9036 24.3828 27.1713 24.4334C27.4876 24.4923 27.7665 24.551 28.0154 24.6096L28.2612 24.6674V23.1817L28.1083 23.1446C27.8588 23.0841 27.677 23.0463 27.3189 22.9791L27.3171 22.9788C26.9767 22.9183 26.6599 22.8793 26.3249 22.8793Z" fill="#000000" class="bmwfcol"/><path d="M3.99219 23.0054H5.75507L6.99695 25.845L8.23883 23.0054H9.97945V29.0001H8.49613V25.8455L7.60261 27.8871H6.36902L5.47551 25.8455V29.0001H3.99219V23.0054Z" fill="#000000" class="bmwfcol"/><path d="M12.335 23.0054H10.822V26.6186C10.822 27.3878 10.9085 28.03 11.3505 28.506C11.8093 28.9987 12.4005 29.1262 13.248 29.1262C14.0373 29.1262 14.6471 28.9982 15.1122 28.5247C15.5645 28.0638 15.6666 27.4578 15.6666 26.6186V23.0054H14.1536V26.6409C14.1536 27.1753 14.107 27.3914 13.9601 27.5236L13.9585 27.5251C13.9034 27.5758 13.8174 27.6152 13.6906 27.6402C13.5645 27.6651 13.415 27.6726 13.248 27.6726C13.0789 27.6726 12.9257 27.6634 12.7968 27.6368C12.6672 27.6101 12.5789 27.5691 12.5232 27.5181C12.3743 27.3787 12.335 27.1613 12.335 26.6409V23.0054Z" fill="#000000" class="bmwfcol"/><path d="M21.5843 23.0054H23.0973V29.0001H21.5843V23.0054Z" fill="#000000" class="bmwfcol"/><title>connected_music_rg_48</title></svg>