<svg width="48" height="48" viewBox="0 0 32 32" xmlns="http://www.w3.org/2000/svg"><path d="M14.0315 23.0769C13.8521 23.3589 13.7025 23.6372 13.5781 23.9132C13.3872 23.9211 13.1945 23.925 13.0002 23.925C9.78999 23.925 7.04294 22.8509 5.09612 20.9041C3.1493 18.9573 2.0752 16.2102 2.0752 13C2.0752 9.78981 3.1493 7.04276 5.09612 5.09594C7.04294 3.14912 9.78999 2.07501 13.0002 2.07501C16.2104 2.07501 18.9574 3.14912 20.9043 5.09594C22.2435 6.43516 23.1697 8.15307 23.6174 10.1399L22.7574 11H21.9043C21.8696 10.8048 21.8297 10.6131 21.7848 10.425H18.0656C18.1276 11.1221 18.1636 11.8518 18.1728 12.6093C17.4285 13.4089 16.7801 14.2084 16.2548 15.0147C16.301 14.3778 16.3252 13.7053 16.3252 13C16.3252 12.0844 16.2844 11.224 16.2077 10.425H9.79268C9.71595 11.2239 9.6752 12.0843 9.6752 13C9.6752 13.9157 9.71595 14.7761 9.79268 15.575H15.9106C15.5583 16.1859 15.2796 16.8016 15.0861 17.425H10.0537C10.2362 18.3773 10.4792 19.2038 10.7702 19.8885C11.4658 21.5251 12.2933 22.075 13.0002 22.075C13.5775 22.075 14.2354 21.7081 14.8361 20.6817C14.9302 21.001 15.0624 21.3414 15.243 21.7005C15.124 21.8352 14.9847 21.9815 14.8415 22.1319C14.5358 22.453 14.2124 22.7926 14.0315 23.0769ZM3.9252 13C3.9252 13.9185 4.02555 14.7787 4.2156 15.575H7.9348C7.86219 14.7588 7.8252 13.898 7.8252 13C7.8252 12.102 7.86219 11.2412 7.9348 10.425H4.2156C4.02555 11.2213 3.9252 12.0816 3.9252 13ZM4.86951 17.425C5.26974 18.2522 5.78755 18.9792 6.40427 19.5959C7.24461 20.4363 8.2898 21.093 9.51403 21.5188C9.35059 21.2318 9.20185 20.928 9.06765 20.6122C8.68203 19.7049 8.38191 18.6319 8.17332 17.425H4.86951ZM8.17332 8.57501C8.38191 7.36814 8.68203 6.2951 9.06765 5.38783C9.20185 5.07207 9.35059 4.76819 9.51403 4.48123C8.2898 4.90703 7.24461 5.56374 6.40427 6.40409C5.78755 7.0208 5.26974 7.74784 4.86951 8.57501H8.17332ZM10.0537 8.57501H15.9466C15.7641 7.62293 15.5211 6.79649 15.2301 6.11182C14.5345 4.475 13.707 3.92501 13.0002 3.92501C12.2933 3.92501 11.4658 4.47489 10.7702 6.11148C10.4792 6.79619 10.2362 7.62274 10.0537 8.57501ZM17.827 8.57501H21.1309C20.7306 7.74784 20.2128 7.0208 19.5961 6.40409C18.7557 5.5637 17.7105 4.90695 16.4862 4.48116C16.6497 4.76826 16.7985 5.07229 16.9328 5.38821C17.3183 6.29543 17.6184 7.36835 17.827 8.57501Z" fill="#000000" class="bmwfcol"/><path d="M25.2929 11.2929L22.5 14.0858L20.9999 12.5858L20.2928 13.2929C18.2544 15.3313 17.1208 17.0651 16.8412 18.6527C16.6102 19.9647 16.979 21.0448 17.6383 21.9487C16.7688 22.8247 16.1326 23.5004 15.7188 24.1506C15.1431 25.0554 15 25.8909 15 27V30H17V27C17 26.1092 17.1069 25.6946 17.4062 25.2244C17.7023 24.7591 18.1875 24.2367 19.0532 23.3631C19.9567 24.0215 21.0362 24.3896 22.3472 24.1587C23.9348 23.8791 25.6686 22.7456 27.707 20.7071L28.4141 20L26.9142 18.5001L29.7071 15.7071L28.2929 14.2929L25.5 17.0858L23.9142 15.5001L26.7071 12.7071L25.2929 11.2929ZM25.5715 19.9858C23.9892 21.4398 22.8407 22.041 22.0003 22.189C21.1502 22.3388 20.4613 22.0472 19.707 21.2929C18.9528 20.5387 18.6612 19.8497 18.8109 18.9996C18.9589 18.1592 19.5602 17.0107 21.0142 15.4285L25.5715 19.9858Z" fill="#000000" class="bmwfcol"/><title>connected_charging_rg_48</title></svg>