<svg width="48" height="48" viewBox="0 0 32 32" xmlns="http://www.w3.org/2000/svg"><path d="M18.1752 13C18.1752 13.69 18.1533 14.358 18.1103 15.0007C17.4933 15.0044 16.8735 15.0201 16.2499 15.0817C16.2993 14.425 16.3252 13.73 16.3252 13C16.3252 12.0843 16.2844 11.2239 16.2077 10.425H9.79268C9.71595 11.2239 9.6752 12.0843 9.6752 13C9.6752 13.9156 9.71595 14.776 9.79268 15.575H13.9459C12.8246 15.971 11.7851 16.5929 10.6701 17.425H10.0537C10.0803 17.5638 10.1082 17.6999 10.1373 17.8334C10.0298 17.9179 9.92131 18.0042 9.81184 18.0924C9.27936 18.1391 8.78668 18.1827 8.32928 18.225C8.27263 17.9654 8.22062 17.6986 8.17332 17.425H4.86951C5.05999 17.8186 5.2771 18.1896 5.51883 18.5368C5.07914 18.6009 4.68755 18.6702 4.33122 18.7494C4.0663 18.8083 3.81855 18.873 3.58409 18.9433C2.60117 17.266 2.0752 15.2464 2.0752 13C2.0752 9.78975 3.1493 7.0427 5.09612 5.09588C7.04294 3.14906 9.78999 2.07495 13.0002 2.07495C16.2104 2.07495 18.9574 3.14906 20.9043 5.09588C22.8511 7.0427 23.9252 9.78975 23.9252 13C23.9252 13.9421 23.8327 14.8444 23.6527 15.6982C23.0684 15.5021 22.4771 15.349 21.8593 15.2368C22.001 14.5367 22.0752 13.7898 22.0752 13C22.0752 12.0815 21.9748 11.2212 21.7848 10.425H18.0656C18.1382 11.2412 18.1752 12.102 18.1752 13ZM3.9252 13C3.9252 13.9184 4.02555 14.7787 4.2156 15.575H7.9348C7.86219 14.7588 7.8252 13.898 7.8252 13C7.8252 12.1019 7.86219 11.2411 7.9348 10.425H4.2156C4.02555 11.2212 3.9252 12.0815 3.9252 13ZM8.17332 8.57495C8.38191 7.36808 8.68203 6.29504 9.06765 5.38777C9.20185 5.07201 9.35059 4.76813 9.51403 4.48117C8.2898 4.90696 7.24461 5.56368 6.40427 6.40403C5.78755 7.02074 5.26974 7.74778 4.86951 8.57495H8.17332ZM10.0537 8.57495H15.9466C15.7641 7.62287 15.5211 6.79643 15.2301 6.11176C14.5345 4.47494 13.707 3.92495 13.0002 3.92495C12.2933 3.92495 11.4658 4.47483 10.7702 6.11142C10.4792 6.79613 10.2362 7.62268 10.0537 8.57495ZM17.827 8.57495H21.1309C20.7306 7.74778 20.2128 7.02074 19.5961 6.40403C18.7557 5.56363 17.7105 4.90689 16.4862 4.4811C16.6497 4.7682 16.7985 5.07223 16.9328 5.38815C17.3183 6.29537 17.6184 7.36829 17.827 8.57495Z" fill="#000000" class="bmwfcol"/><path d="M18.8866 17L19 17C20.8122 17 22.1754 17.2547 23.5269 17.7791C24.76 18.2575 25.9682 18.9574 27.4483 19.8147L27.5411 19.8685L29.9999 20.0837L30 22C30 22.2408 30.0056 22.3214 30.0535 22.4411C30.1095 22.5812 30.2594 22.8452 30.7071 23.2929L31 23.5858L31.0003 26.5773L30.5002 26.866C29.6385 27.3636 29.0328 27.6793 28.4102 27.8424C27.9981 27.9503 27.6002 27.9845 27.1655 27.9952C26.6047 29.1803 25.3981 30 24 30C22.6038 30 21.3986 29.1825 20.8368 28H10.1632C9.60144 29.1825 8.39619 30 7 30C5.58797 30 4.37123 29.1638 3.81795 27.9596C3.74551 27.9496 3.66771 27.937 3.58273 27.9214C3.19989 27.8509 2.66139 27.7159 1.74122 27.4693L1 27.2707L1.00027 22.4226L1.54774 22.1066C2.75292 21.4107 3.4897 20.9853 4.76518 20.7018C5.93254 20.4423 7.57816 20.2954 10.6006 20.0311C12.2706 18.6468 13.4632 17.8462 14.7097 17.4271C15.9815 16.9996 17.2361 16.9998 18.8866 17ZM27.9035 25.9076C28.164 25.8394 28.463 25.7113 29.0002 25.4165L29.0001 24.3995C28.6134 23.9705 28.3537 23.5768 28.1966 23.1839C27.9997 22.6917 27.9999 22.2808 28 22.0204L28 21.9163L26.9239 21.8222L26.5146 21.5853C24.966 20.6887 23.8868 20.064 22.8035 19.6436C21.7104 19.2196 20.5964 19 19 19C17.2068 19 16.2773 19.0102 15.347 19.3229C14.4221 19.6338 13.4192 20.2757 11.643 21.7661L11.4015 21.9688L11.0873 21.9962C7.78642 22.2848 6.24237 22.4223 5.19911 22.6541C4.38084 22.836 3.89751 23.0682 3.00021 23.5788L3.00009 25.733C3.22405 25.7907 3.40571 25.8358 3.55633 25.8712C3.85255 24.2383 5.28167 23 7 23C8.76324 23 10.222 24.3039 10.4646 26H20.5354C20.778 24.3039 22.2368 23 24 23C25.756 23 27.2099 24.2931 27.4615 25.9791C27.6313 25.9656 27.7663 25.9436 27.9035 25.9076ZM5.5 26.5C5.5 27.3284 6.17157 28 7 28C7.82843 28 8.5 27.3284 8.5 26.5C8.5 25.6716 7.82843 25 7 25C6.17157 25 5.5 25.6716 5.5 26.5ZM22.5 26.5C22.5 27.3284 23.1716 28 24 28C24.8284 28 25.5 27.3284 25.5 26.5C25.5 25.6716 24.8284 25 24 25C23.1716 25 22.5 25.6716 22.5 26.5Z" fill="#000000" class="bmwfcol"/><title>connected_drive_services_rg_48</title></svg>