<svg width="48" height="48" viewBox="0 0 32 32" xmlns="http://www.w3.org/2000/svg"><path d="M16.0002 3.0752C12.19 3.0752 8.94294 4.3493 6.64612 6.64612C4.3493 8.94294 3.0752 12.19 3.0752 16.0002C3.0752 19.8104 4.3493 23.0574 6.64612 25.3543C8.94294 27.6511 12.19 28.9252 16.0002 28.9252C19.8104 28.9252 23.0574 27.6511 25.3543 25.3543C27.6511 23.0574 28.9252 19.8104 28.9252 16.0002C28.9252 12.19 27.6511 8.94294 25.3543 6.64612C23.0574 4.3493 19.8104 3.0752 16.0002 3.0752ZM4.9252 16.0002C4.9252 14.9065 5.0424 13.8791 5.26509 12.9252H10.2036C10.1186 13.8985 10.0752 14.9264 10.0752 16.0002C10.0752 17.074 10.1186 18.1018 10.2036 19.0752H5.26509C5.0424 18.1213 4.9252 17.0939 4.9252 16.0002ZM5.86547 20.9252H10.4251C10.6693 22.5042 11.0382 23.8969 11.5214 25.0564C11.748 25.6004 12.009 26.1114 12.3047 26.5727C10.5739 26.0679 9.10795 25.1998 7.95427 24.0461C7.08462 23.1765 6.37727 22.1294 5.86547 20.9252ZM12.2989 20.9252H19.7014C19.478 22.2588 19.1615 23.408 18.7713 24.3444C17.94 26.3396 16.9219 27.0752 16.0002 27.0752C15.0784 27.0752 14.0603 26.3398 13.229 24.3448C12.8388 23.4083 12.5223 22.259 12.2989 20.9252ZM21.5752 20.9252H26.1349C25.6231 22.1294 24.9158 23.1765 24.0461 24.0461C22.8924 25.1999 21.4264 26.0679 19.6955 26.5727C19.9913 26.1113 20.2523 25.6001 20.479 25.056C20.9621 23.8965 21.331 22.5039 21.5752 20.9252ZM26.7353 19.0752H21.7967C21.8817 18.1018 21.9252 17.0739 21.9252 16.0002C21.9252 14.9265 21.8817 13.8986 21.7967 12.9252H26.7353C26.958 13.8791 27.0752 14.9065 27.0752 16.0002C27.0752 17.0939 26.958 18.1213 26.7353 19.0752ZM19.9392 19.0752H12.0611C11.9722 18.1187 11.9252 17.0912 11.9252 16.0002C11.9252 14.9092 11.9722 13.8817 12.0611 12.9252H19.9392C20.0282 13.8817 20.0752 14.9093 20.0752 16.0002C20.0752 17.0911 20.0282 18.1186 19.9392 19.0752ZM10.4251 11.0752H5.86547C6.37727 9.871 7.08462 8.82392 7.95427 7.95427C9.10795 6.80058 10.5739 5.93252 12.3047 5.42774C12.009 5.88899 11.748 6.40003 11.5214 6.94398C11.0382 8.10347 10.6693 9.4962 10.4251 11.0752ZM12.2989 11.0752C12.5223 9.74138 12.8388 8.59205 13.229 7.65556C14.0603 5.66063 15.0784 4.9252 16.0002 4.9252C16.9219 4.9252 17.94 5.66079 18.7713 7.65596C19.1615 8.59243 19.478 9.74163 19.7014 11.0752H12.2989ZM21.5752 11.0752C21.331 9.49646 20.9621 8.10386 20.479 6.94443C20.2523 6.4003 19.9913 5.88908 19.6955 5.42767C21.4264 5.93244 22.8924 6.80053 24.0461 7.95427C24.9158 8.82392 25.6231 9.871 26.1349 11.0752H21.5752Z" fill="#000000" class="bmwfcol"/><title>connected_drive_rg_48</title></svg>