<svg width="48" height="48" viewBox="0 0 32 32" xmlns="http://www.w3.org/2000/svg"><path d="M20.1861 1.77197L25.4141 7H28.9999V9H22.925V27H24.9999V29H14.9999V27H17.075V9H9.99994V17H12.9999V19C12.9999 20.2222 12.7624 21.3147 11.9796 22.0664C11.2058 22.8095 10.124 23 8.99994 23C7.87589 23 6.79408 22.8095 6.02025 22.0664C5.23746 21.3147 4.99994 20.2222 4.99994 19V17H7.99994V9H4V7H10.2529L20.1861 1.77197ZM18.925 26.3832V27H21.075V24.2332L18.925 26.3832ZM18.925 23.7669L21.075 21.6169V20.3831L18.925 18.2331V23.7669ZM18.925 15.6168L21.075 17.7668V12.2332L18.925 14.3832V15.6168ZM18.925 11.7669L21.075 9.61688V9H18.925V11.7669ZM20.8749 7H22.5857L20.8749 5.28923V7ZM19.1249 4.59058L14.547 7H19.1249V4.59058ZM6.99994 19C6.99994 20.0316 7.21302 20.439 7.40553 20.6239C7.60699 20.8173 8.02518 21 8.99994 21C9.9747 21 10.3929 20.8173 10.5944 20.6239C10.7869 20.439 10.9999 20.0316 10.9999 19H6.99994Z" fill="#000000" class="bmwfcol"/><title>construction_crane_rg_48</title></svg>