<svg width="48" height="48" viewBox="0 0 32 32" xmlns="http://www.w3.org/2000/svg"><path d="M7 25.843V28.1548L6.50021 27.8662C4.55813 26.7449 3.20135 25.9567 2.55843 24.1582C2.25747 23.3163 2.1275 22.3036 2.06377 21.0301C2 19.7557 2 18.1296 2 16.0288V15.9719C2 13.8711 2 12.2447 2.06377 10.9704C2.1275 9.69686 2.25747 8.68415 2.55843 7.84226C3.20135 6.0438 4.5581 5.25563 6.50018 4.13427L7 3.8457V6.15752C5.3337 7.13798 4.76816 7.6023 4.44171 8.5155C4.24263 9.0724 4.12257 9.84537 4.06127 11.0703C4.0003 12.2887 4 13.8648 4 16.0002C4 18.1357 4.0003 19.7118 4.06127 20.9302C4.12257 22.1551 4.24263 22.9281 4.44171 23.485C4.76816 24.3982 5.3337 24.8625 7 25.843Z" fill="#000000" class="bmwfcol"/><path d="M11.501 12V13.5H10.001V15.5H11.501V17H13.501V15.5H15.001V13.5H13.501V12H11.501Z" fill="#000000" class="bmwfcol"/><path d="M18.3311 12.4167C18.3311 11.7723 18.8534 11.25 19.4977 11.25C20.1421 11.25 20.6644 11.7723 20.6644 12.4167C20.6644 13.061 20.1421 13.5833 19.4977 13.5833C18.8534 13.5833 18.3311 13.061 18.3311 12.4167Z" fill="#000000" class="bmwfcol"/><path d="M16.25 14.5002C16.25 13.8558 16.7723 13.3335 17.4167 13.3335C18.061 13.3335 18.5833 13.8558 18.5833 14.5002C18.5833 15.1445 18.061 15.6668 17.4167 15.6668C16.7723 15.6668 16.25 15.1445 16.25 14.5002Z" fill="#000000" class="bmwfcol"/><path d="M21.5837 13.3335C20.9393 13.3335 20.417 13.8558 20.417 14.5002C20.417 15.1445 20.9393 15.6668 21.5837 15.6668C22.228 15.6668 22.7503 15.1445 22.7503 14.5002C22.7503 13.8558 22.228 13.3335 21.5837 13.3335Z" fill="#000000" class="bmwfcol"/><path d="M18.3311 16.5832C18.3311 15.9388 18.8534 15.4165 19.4977 15.4165C20.1421 15.4165 20.6644 15.9388 20.6644 16.5832C20.6644 17.2275 20.1421 17.7498 19.4977 17.7498C18.8534 17.7498 18.3311 17.2275 18.3311 16.5832Z" fill="#000000" class="bmwfcol"/><path d="M13.2363 7.78405L12.9449 7.5L12.0146 7.50014L11.8812 7.5379C9.99207 8.07244 8.73479 8.7282 7.82448 10.1113C7.00785 11.352 6.51795 13.1343 5.83 15.6371L5.79553 15.7625C5.33451 17.4395 4.88634 19.0698 5.02738 20.5073C5.10217 21.2696 5.34034 21.9968 5.817 22.6676C6.28755 23.3299 6.95482 23.8872 7.81558 24.3715L8.46794 24.7387L9.00399 24.2162C9.97345 23.2712 10.673 22.5898 11.2498 22.0838C11.8241 21.58 12.2273 21.2952 12.5914 21.1178C13.3025 20.7712 14.0022 20.7501 16.0005 20.7501C17.9989 20.7501 18.6986 20.7712 19.4097 21.1177C19.7737 21.2952 20.1769 21.58 20.7512 22.0838C21.328 22.5898 22.0275 23.2712 22.997 24.2162L23.5331 24.7387L24.1854 24.3715C25.0462 23.8872 25.7134 23.3299 26.184 22.6676C26.6607 21.9968 26.8988 21.2696 26.9736 20.5073C27.1147 19.0698 26.6665 17.4395 26.2055 15.7626L26.171 15.6371C25.4831 13.1343 24.9932 11.352 24.1765 10.1113C23.2662 8.7282 22.0089 8.07244 20.1198 7.5379L19.9864 7.50014L19.0561 7.5L18.7647 7.78405C18.4695 8.07192 18.3485 8.12977 18.1174 8.17482C17.7562 8.24526 17.2064 8.25012 16.0005 8.25011C14.7946 8.25012 14.2448 8.24526 13.8836 8.17482C13.6525 8.12977 13.5315 8.07192 13.2363 7.78405ZM9.49509 11.2108C9.99741 10.4476 10.6691 9.98567 12.1912 9.53053C12.5552 9.82376 12.9499 10.0304 13.5008 10.1379C14.0782 10.2504 14.837 10.2503 15.8745 10.2501H16.1264C17.164 10.2503 17.9228 10.2504 18.5002 10.1379C19.0511 10.0304 19.4458 9.82376 19.8098 9.53053C21.3319 9.98567 22.0036 10.4476 22.5059 11.2108C23.1164 12.1383 23.5284 13.5695 24.2694 16.2651C24.7655 18.0695 25.0812 19.3133 24.9832 20.3121C24.9381 20.7719 24.804 21.1569 24.5536 21.5092C24.387 21.7438 24.1535 21.9851 23.8243 22.2301C23.1348 21.5601 22.5656 21.015 22.0702 20.5804C21.4422 20.0295 20.8836 19.6112 20.2859 19.3199C19.1142 18.7489 17.9319 18.7493 16.1854 18.75H15.8156C14.0691 18.7493 12.8868 18.7489 11.7152 19.3199C11.1174 19.6112 10.5588 20.0295 9.93085 20.5804C9.43542 21.015 8.86617 21.5601 8.17673 22.2301C7.8475 21.9851 7.61404 21.7438 7.44735 21.5092C7.19701 21.1569 7.06294 20.7719 7.01783 20.312C6.91984 19.3133 7.23554 18.0695 7.73155 16.2651C8.47258 13.5695 8.88461 12.1383 9.49509 11.2108Z" fill="#000000" class="bmwfcol"/><path d="M25 3.8457V6.15752C26.6663 7.13798 27.2318 7.60231 27.5583 8.5155C27.7574 9.0724 27.8774 9.84537 27.9387 11.0703C27.9997 12.2887 28 13.8648 28 16.0002C28 18.1357 27.9997 19.7118 27.9387 20.9302C27.8774 22.1551 27.7574 22.9281 27.5583 23.485C27.2318 24.3982 26.6663 24.8625 25 25.843V28.1548L25.4998 27.8662C27.4419 26.7449 28.7987 25.9567 29.4416 24.1582C29.7425 23.3163 29.8725 22.3036 29.9362 21.0301C30 19.7557 30 18.1294 30 16.0286V15.9719C30 13.871 30 12.2448 29.9362 10.9704C29.8725 9.69686 29.7425 8.68415 29.4416 7.84226C28.7987 6.0438 27.4419 5.25563 25.4998 4.13428L25 3.8457Z" fill="#000000" class="bmwfcol"/><title>controller_and_brackets_rg_48</title></svg>