<svg width="48" height="48" viewBox="0 0 32 32" xmlns="http://www.w3.org/2000/svg"><path d="M3 10H5L5 12.5H9V17.0858L10.9142 19H25.5L27 17H31.1805L30.9864 18.1644C30.4441 21.4183 28.8156 23.5986 27.7071 24.7071L27.4142 25H3V22.6008L2 21.3508V17H3L3 10ZM5 17H7V14.5H5V17ZM4 19V20.6492L5 21.8992V23H26.5712C27.3029 22.1911 28.2277 20.8575 28.7532 19H28L26.5 21H10.0858L8.08579 19H4Z" fill="#000000" class="bmwfcol"/><path d="M11 18H15V16H11V18Z" fill="#000000" class="bmwfcol"/><path d="M15 15H11V13H15V15Z" fill="#000000" class="bmwfcol"/><path d="M16 18H20V16H16V18Z" fill="#000000" class="bmwfcol"/><path d="M20 15H16V13H20V15Z" fill="#000000" class="bmwfcol"/><path d="M21 18H25V16H21V18Z" fill="#000000" class="bmwfcol"/><path d="M25 15H21V13H25V15Z" fill="#000000" class="bmwfcol"/><title>container_ship_rg_48</title></svg>