<svg width="48" height="48" viewBox="0 0 32 32" xmlns="http://www.w3.org/2000/svg"><path d="M10.0002 13V11H12.0002V13H14.0002V15H12.0002V17H10.0002V15H8.00023V13H10.0002Z" fill="#000000" class="bmwfcol"/><path d="M18.5022 12.75C17.8118 12.75 17.2522 13.3097 17.2522 14C17.2522 14.6904 17.8118 15.25 18.5022 15.25C19.1925 15.25 19.7522 14.6904 19.7522 14C19.7522 13.3097 19.1925 12.75 18.5022 12.75Z" fill="#000000" class="bmwfcol"/><path d="M23.5022 12.75C22.8118 12.75 22.2522 13.3097 22.2522 14C22.2522 14.6904 22.8118 15.25 23.5022 15.25C24.1925 15.25 24.7522 14.6904 24.7522 14C24.7522 13.3097 24.1925 12.75 23.5022 12.75Z" fill="#000000" class="bmwfcol"/><path d="M21.0002 10.25C20.3099 10.25 19.7502 10.8097 19.7502 11.5C19.7502 12.1904 20.3099 12.75 21.0002 12.75C21.6906 12.75 22.2502 12.1904 22.2502 11.5C22.2502 10.8097 21.6906 10.25 21.0002 10.25Z" fill="#000000" class="bmwfcol"/><path d="M21.0002 15.25C20.3099 15.25 19.7502 15.8097 19.7502 16.5C19.7502 17.1904 20.3099 17.75 21.0002 17.75C21.6906 17.75 22.2502 17.1904 22.2502 16.5C22.2502 15.8097 21.6906 15.25 21.0002 15.25Z" fill="#000000" class="bmwfcol"/><path d="M11.9145 4.99989L12.2074 5.29294C12.6199 5.7055 12.8263 5.82044 13.1961 5.89442C13.6986 5.99493 14.447 6.00003 16 6.00003C17.5529 6.00003 18.3014 5.99493 18.8038 5.89442C19.1736 5.82044 19.38 5.7055 19.7925 5.29294L20.0855 4.99989L21.142 5.00005C23.5722 5.70556 25.2598 6.59238 26.3818 8.3413C27.4139 9.94995 28.0382 12.2799 28.9472 15.6726C29.4903 17.6993 30.1661 19.8505 29.963 21.9747C29.871 22.9364 29.5797 23.8464 28.9974 24.6872C28.4203 25.5204 27.5925 26.2353 26.4999 26.8661L25.8354 27.2497L25.2928 26.7071C24.0353 25.4496 23.1193 24.5341 22.3622 23.8527C21.6073 23.1732 21.06 22.7731 20.5527 22.5195C19.5578 22.022 18.5759 22 16 22C13.4241 22 12.4421 22.022 11.4472 22.5195C10.9399 22.7731 10.3927 23.1732 9.63768 23.8527C8.88057 24.5341 7.96465 25.4496 6.70708 26.7071L6.1645 27.2497L5.49998 26.8661C4.40744 26.2353 3.57962 25.5204 3.00254 24.6872C2.4202 23.8464 2.12892 22.9364 2.03695 21.9747C1.83381 19.8505 2.50967 17.6993 3.05271 15.6727C3.96176 12.2799 4.58606 9.94995 5.61808 8.3413C6.74009 6.59238 8.4277 5.70556 10.8579 5.00005L11.9145 4.99989ZM11.1134 7.00915C9.00818 7.6381 8.02912 8.287 7.30144 9.42125C6.4719 10.7143 5.92279 12.6888 4.96619 16.2588C4.32727 18.6433 3.89286 20.3726 4.02787 21.7843C4.09173 22.4521 4.28423 23.0251 4.64671 23.5485C4.91934 23.9421 5.30754 24.3356 5.85985 24.7262C6.83387 23.7538 7.62134 22.9767 8.29976 22.3661C9.10728 21.6393 9.81001 21.102 10.5528 20.7306C12.0159 19.999 13.4913 19.9994 15.7995 20H16.2004C18.5086 19.9994 19.984 19.999 21.4472 20.7306C22.1899 21.102 22.8926 21.6394 23.7002 22.3661C24.3786 22.9767 25.1661 23.7538 26.1401 24.7262C26.6924 24.3356 27.0806 23.9421 27.3532 23.5485C27.7157 23.0251 27.9082 22.4521 27.972 21.7843C28.1071 20.3726 27.6726 18.6433 27.0337 16.2588C26.0771 12.6888 25.528 10.7143 24.6985 9.42125C23.9708 8.287 22.9917 7.6381 20.8865 7.00915C20.4094 7.42838 19.9151 7.71173 19.1961 7.85557C18.1549 8.06386 17.0555 8.00004 16 8.00004C14.9444 8.00004 13.845 8.06386 12.8038 7.85557C12.0848 7.71173 11.5905 7.42838 11.1134 7.00915Z" fill="#000000" class="bmwfcol"/><title>controller_rg_48</title></svg>