<svg width="48" height="48" viewBox="0 0 32 32" xmlns="http://www.w3.org/2000/svg"><path d="M27 6H26V7H30V27H2V7H20V6H19V4H27V6ZM22 6V9H4V20C5.10423 19.9996 5.99926 19.1043 5.99926 18H7.99926C7.99926 19.1046 8.89469 20 9.99926 20C11.1038 20 11.9993 19.1046 11.9993 18H13.9993C13.9993 19.1046 14.8947 20 15.9993 20C17.1038 20 17.9993 19.1046 17.9993 18H19.9993C19.9993 19.1046 20.8947 20 21.9993 20C23.1038 20 23.9993 19.1046 23.9993 18H25.9993C25.9993 19.1046 26.8954 20 28 20V9H24V6H22ZM4 22V25H28V22C26.8053 22 25.7322 21.4762 24.9993 20.6458C24.2663 21.4762 23.194 22 21.9993 22C20.8046 22 19.7322 21.4762 18.9993 20.6458C18.2663 21.4762 17.194 22 15.9993 22C14.8046 22 13.7322 21.4762 12.9993 20.6458C12.2663 21.4762 11.194 22 9.99926 22C8.80457 22 7.73221 21.4762 6.99926 20.6458C6.26647 21.4761 5.1944 21.9998 4 22Z" fill="#000000" class="bmwfcol"/><title>coolant_rg_48</title></svg>