<svg width="48" height="48" viewBox="0 0 32 32" xmlns="http://www.w3.org/2000/svg"><path d="M15 2V8H17V2H15Z" fill="#000000" class="bmwfcol"/><path d="M15.2361 19.75H12.0858L11 20.8358V23.7907L12.403 26H15.6642L16 25.6642L16.3358 26H19.6458L21 23.781V20.8358L19.9142 19.75H16.7639L16 20.132L15.2361 19.75ZM13 23.2093V21.75H14.7639L15 21.868V23.8358L14.8358 24H13.5021L13 23.2093ZM17 23.8358V21.868L17.2361 21.75H19L19 23.219L18.5233 24H17.1642L17 23.8358Z" fill="#000000" class="bmwfcol"/><path d="M10.0473 12.629C11.28 12.088 12.1617 12.0001 16 12.0001C19.838 12.0001 20.7225 12.0885 21.9543 12.6297C22.4436 12.8455 22.8602 13.2352 23.1886 13.6082C23.5311 13.9973 23.8504 14.4531 24.1303 14.8992C24.3136 15.1913 24.4856 15.4882 24.6418 15.7729C24.9538 15.6527 25.2834 15.5872 25.6351 15.5503C26.4196 15.4679 27.2118 15.5001 27.9994 15.5001V17.5001C27.2818 17.5001 26.5584 17.4643 25.8438 17.5393C25.8165 17.5422 25.7903 17.5452 25.7652 17.5484C26.2383 17.9938 26.6916 18.4452 27.0553 18.8889C27.5253 19.4622 28 20.2012 28 21.0429V30.0001H22V28.8201C17.9453 29.0735 14.0547 29.0735 10 28.8201V30.0001H4V21.0429C4 20.2012 4.47466 19.4622 4.94468 18.8889C5.30842 18.4453 5.76165 17.9939 6.2347 17.5485C5.49561 17.4551 4.74346 17.5001 4 17.5001V15.5001C4.97011 15.5001 5.75741 15.4866 6.36415 15.5503C6.71606 15.5872 7.04569 15.6528 7.35786 15.7731C7.51409 15.4881 7.6862 15.1908 7.8696 14.8985C8.14956 14.4522 8.46893 13.9962 8.81154 13.6071C9.13996 13.2342 9.55707 12.8442 10.0473 12.629ZM22.4363 15.9623C22.1283 15.4716 21.7088 14.7084 21.1479 14.4599C20.3642 14.1156 19.9106 14.0001 16 14.0001C12.0888 14.0001 11.6366 14.1156 10.8511 14.4603C10.2907 14.7066 9.87075 15.472 9.56383 15.9613C9.44213 16.1553 9.32548 16.3529 9.21589 16.5471C10.7862 16.4621 12.3609 16.493 13.9326 16.4972C15.3116 16.5 16.6906 16.5 18.0696 16.4972C19.6394 16.494 21.2155 16.4621 22.7838 16.5471C22.6743 16.3533 22.5578 16.156 22.4363 15.9623ZM6.53858 20.1C7.50886 20.3014 8.57009 20.4194 10 20.5212V22.5262C8.40454 22.4157 7.17248 22.2835 6 22.0301V28.0001H8V26.6746L9.0727 26.7528C13.7799 27.0959 18.2201 27.0959 22.9273 26.7528L24 26.6746V28.0001H26V22.0311C24.8275 22.2845 23.5955 22.4167 22 22.5271V20.5222C23.4303 20.4203 24.4917 20.3024 25.4621 20.1009C25.0441 19.6032 24.5053 18.8284 23.8358 18.6756C23.5537 18.6113 23.1322 18.5636 22.4799 18.5345C21.4913 18.4905 20.1099 18.4932 18.1197 18.4972C16.707 18.4995 15.2943 18.5 13.8816 18.4972C11.891 18.4932 10.5089 18.4905 9.51964 18.5345C8.86696 18.5636 8.44499 18.6113 8.16245 18.6757C7.49611 18.8276 6.95543 19.6038 6.53858 20.1Z" fill="#000000" class="bmwfcol"/><path d="M20.9492 9.63607L25.1919 5.39343L26.6061 6.80765L22.3634 11.0503L20.9492 9.63607Z" fill="#000000" class="bmwfcol"/><path d="M5.39258 6.80765L9.63522 11.0503L11.0494 9.63607L6.80679 5.39343L5.39258 6.80765Z" fill="#000000" class="bmwfcol"/><title>cosmetic-repair_rg_48</title></svg>