<svg width="48" height="48" viewBox="0 0 32 32" xmlns="http://www.w3.org/2000/svg"><path d="M16 2.84552L30 10.9224V13.0776L28 14.2314V20C28 22.5028 26.6699 24.5454 24.5119 25.9187C24.3462 26.0241 24.1755 26.1258 24 26.2235V30H22V27.1023C20.2649 27.6923 18.2326 28 16 28C12.5744 28 9.62055 27.2757 7.48812 25.9187C5.33008 24.5454 4 22.5028 4 20V14.2314L2 13.0776V10.9224L16 2.84552ZM24 23.8366C25.3224 22.8091 26 21.498 26 20V15.3853L24 16.5391V23.8366ZM22 17.693L16 21.1545L6 15.3853V20C6 21.6972 6.86992 23.1546 8.56188 24.2313C10.2795 25.3243 12.8256 26 16 26C18.382 26 20.4102 25.6196 22 24.9679V17.693ZM22.931 14.8468L27.8656 12L16 5.15449L4.13444 12L16 18.8455L20.9303 16.0011L16 13.1546V10.8452L22.931 14.8468Z" fill="#000000" class="bmwfcol"/><title>courses_rg_48</title></svg>