<svg width="48" height="48" viewBox="0 0 32 32" xmlns="http://www.w3.org/2000/svg"><path d="M13 24.3466C13.3224 24.2242 13.6518 24.0806 14 23.9136V21.6669C12.9121 22.2521 12.1866 22.5608 11.4508 22.7396C10.5702 22.9537 9.64151 22.9919 7.99944 22.9986V17H6.99944C6.48873 17 6.14459 16.9997 5.88017 16.9857C5.61862 16.972 5.5034 16.9472 5.44084 16.9263C5.39165 16.9099 5.34879 16.8913 5.25931 16.8183L8.0384 12.0047L8.0603 11.7923C8.30854 9.38367 9.30109 7.45251 10.8145 6.12137C12.3296 4.78874 14.4327 4 16.9994 4C19.7722 4 22.0051 4.91989 23.5423 6.45711C25.0796 7.99433 25.9994 10.2272 25.9994 13C25.9994 16.789 24.2865 19.5909 21.5456 20.9869L20.9994 21.2651V30H22.9994V22.4697C26.1614 20.6083 27.9994 17.2051 27.9994 13C27.9994 9.77275 26.9193 7.00567 24.9566 5.04289C22.9938 3.08011 20.2267 2 16.9994 2C14.0144 2 11.4218 2.92363 9.49362 4.61961C7.61263 6.27406 6.42645 8.6089 6.09496 11.3709L2.75 17.1645L3.29258 17.7071L3.37706 17.7918C3.79337 18.21 4.20365 18.6221 4.80829 18.8237C5.12067 18.9278 5.44289 18.9655 5.77504 18.983C5.84624 18.9867 5.92102 18.9897 5.99944 18.9919V25L7.12343 25C8.76466 25.0001 9.94785 25.0002 11 24.8561V30H13V24.3466Z" fill="#000000" class="bmwfcol"/><path d="M17 6C15.3991 6 13.9986 6.49472 12.9966 7.49664C11.9947 8.49856 11.5 9.89908 11.5 11.5C11.5 13.2893 12.1208 14.8193 13.3442 15.8178C13.6194 16.8444 13.8377 17.6516 14.0268 18.2761C14.2309 18.9501 14.4254 19.4976 14.6634 19.9065C14.9295 20.3635 15.2864 20.7094 15.8055 20.877C16.1916 21.0017 16.6199 21.0008 16.9339 21.0001L17 21L17.0661 21.0001C17.3801 21.0008 17.8084 21.0017 18.1945 20.877C18.7136 20.7094 19.0705 20.3635 19.3366 19.9065C19.5746 19.4976 19.7691 18.9501 19.9732 18.2761C20.1623 17.6516 20.3806 16.8444 20.6558 15.8178C21.8792 14.8193 22.5 13.2893 22.5 11.5C22.5 9.89908 22.0053 8.49856 21.0034 7.49664C20.0014 6.49472 18.6009 6 17 6ZM13.5 11.5C13.5 10.3109 13.8603 9.46144 14.4109 8.91086C14.9614 8.36028 15.8109 8 17 8C18.1891 8 19.0386 8.36028 19.5891 8.91086C20.1397 9.46144 20.5 10.3109 20.5 11.5C20.5 12.9242 19.9866 13.8689 19.2114 14.4033L18.9083 14.6123L18.8131 14.9678C18.7127 15.3424 18.6208 15.6855 18.5358 16H15.4642C15.3792 15.6855 15.2873 15.3424 15.1869 14.9678L15.0917 14.6123L14.7886 14.4033C14.0134 13.8689 13.5 12.9242 13.5 11.5ZM16.0356 18H17.9644C17.8118 18.4745 17.6996 18.7432 17.6082 18.9002C17.5848 18.9403 17.567 18.9655 17.5557 18.9801C17.4972 18.9921 17.371 19 17 19C16.629 19 16.5028 18.9921 16.4443 18.9801C16.433 18.9655 16.4152 18.9403 16.3918 18.9002C16.3004 18.7432 16.1882 18.4745 16.0356 18Z" fill="#000000" class="bmwfcol"/><title>creative_space_rg_48</title></svg>