<svg width="48" height="48" viewBox="0 0 32 32" xmlns="http://www.w3.org/2000/svg"><path d="M20 22H26V20H20V22Z" fill="#000000" class="bmwfcol"/><path d="M18 22H14V20H18V22Z" fill="#000000" class="bmwfcol"/><path d="M5 6C4.17408 6 3.39856 6.25722 2.82789 6.82789C2.25722 7.39856 2 8.17408 2 9V23C2 23.8259 2.25722 24.6014 2.82789 25.1721C3.39856 25.7428 4.17408 26 5 26H27C27.8259 26 28.6014 25.7428 29.1721 25.1721C29.7428 24.6014 30 23.8259 30 23V9C30 8.17408 29.7428 7.39856 29.1721 6.82789C28.6014 6.25722 27.8259 6 27 6H5ZM4 9C4 8.58592 4.12278 8.36144 4.24211 8.24211C4.36144 8.12278 4.58592 8 5 8H27C27.4141 8 27.6386 8.12278 27.7579 8.24211C27.8772 8.36144 28 8.58592 28 9V12H4V9ZM4 14H28V23C28 23.4141 27.8772 23.6386 27.7579 23.7579C27.6386 23.8772 27.4141 24 27 24H5C4.58592 24 4.36144 23.8772 4.24211 23.7579C4.12278 23.6386 4 23.4141 4 23V14Z" fill="#000000" class="bmwfcol"/><title>credit-card_rg_48</title></svg>