<svg width="48" height="48" viewBox="0 0 32 32" xmlns="http://www.w3.org/2000/svg"><path d="M12.3929 12.3929C13.3057 11.4801 14.5728 11 16 11C17.4272 11 18.6943 11.4801 19.6071 12.3929C20.5199 13.3057 21 14.5728 21 16C21 18.7296 18.9836 21 16 21C14.5728 21 13.3057 20.5199 12.3929 19.6071C11.4801 18.6943 11 17.4272 11 16C11 14.5728 11.4801 13.3057 12.3929 12.3929ZM13.8071 13.8071C13.3199 14.2943 13 15.0272 13 16C13 16.9728 13.3199 17.7057 13.8071 18.1929C14.2943 18.6801 15.0272 19 16 19C17.8164 19 19 17.6887 19 16C19 15.0272 18.6801 14.2943 18.1929 13.8071C17.7057 13.3199 16.9728 13 16 13C15.0272 13 14.2943 13.3199 13.8071 13.8071Z" fill="#000000" class="bmwfcol"/><path d="M17 5.03543C19.7989 5.23631 22.2002 6.286 23.9571 8.04289C25.714 9.79978 26.7637 12.2011 26.9646 15H30V17H26.9646C26.7637 19.7989 25.714 22.2002 23.9571 23.9571C22.2002 25.714 19.7989 26.7637 17 26.9646V30H15V26.9646C12.2011 26.7637 9.79978 25.714 8.04289 23.9571C6.286 22.2002 5.23631 19.7989 5.03543 17H2V15H5.03543C5.23631 12.2011 6.286 9.79978 8.04289 8.04289C9.79978 6.286 12.2011 5.23631 15 5.03543V2H17V5.03543ZM7 16C7 18.7728 7.91989 21.0057 9.45711 22.5429C10.9943 24.0801 13.2272 25 16 25C18.7728 25 21.0057 24.0801 22.5429 22.5429C24.0801 21.0057 25 18.7728 25 16C25 13.2272 24.0801 10.9943 22.5429 9.45711C21.0057 7.91989 18.7728 7 16 7C13.2272 7 10.9943 7.91989 9.45711 9.45711C7.91989 10.9943 7 13.2272 7 16Z" fill="#000000" class="bmwfcol"/><title>crosshair_rg_48</title></svg>