<svg width="48" height="48" viewBox="0 0 32 32" xmlns="http://www.w3.org/2000/svg"><path d="M12 2.06565L12 1.49988H10V1.9999C10 3.02508 9.98543 3.793 9.60556 4.55264C8.99928 5.76506 8.99969 6.96961 9.00002 7.93355L9.00003 8.49988H11V7.9999C11 6.9746 11.0145 6.20675 11.3944 5.44716C12.0008 4.23452 12.0004 3.0298 12 2.06565Z" fill="#000000" class="bmwfcol"/><path d="M16 2.06565L16 1.49988H14V1.9999C14 3.02508 13.9854 3.793 13.6056 4.55264C12.9993 5.76506 12.9997 6.96961 13 7.93355L13 8.49988H15V7.9999C15 6.9746 15.0145 6.20675 15.3944 5.44716C16.0008 4.23452 16.0004 3.0298 16 2.06565Z" fill="#000000" class="bmwfcol"/><path d="M20 1.49988L20 2.06565C20.0004 3.0298 20.0008 4.23452 19.3944 5.44716C19.0145 6.20675 19 6.9746 19 7.9999V8.49988H17L17 7.93355C16.9997 6.96961 16.9993 5.76506 17.6056 4.55264C17.9854 3.793 18 3.02508 18 1.9999V1.49988H20Z" fill="#000000" class="bmwfcol"/><path d="M4 12H4.00471C4.05724 17.4939 4.54531 21.2978 5.29217 23.7873C5.68708 25.1037 6.17402 26.1209 6.76303 26.8277C7.36496 27.55 8.12463 28 9 28H19C19.8754 28 20.635 27.55 21.237 26.8277C21.826 26.1209 22.3129 25.1037 22.7078 23.7873C23.0165 22.7583 23.281 21.5047 23.4888 20H26C27.452 20 28.5641 19.494 29.2412 18.4408C29.855 17.486 30 16.2374 30 15C30 13.7626 29.855 12.514 29.2412 11.5592C28.5641 10.506 27.452 10 26 10H4V12ZM6.00481 12H21.9952C21.9424 17.4023 21.4604 20.9852 20.7922 23.2127C20.4371 24.3963 20.049 25.1291 19.7005 25.5473C19.365 25.95 19.1246 26 19 26H9C8.87537 26 8.63504 25.95 8.29947 25.5473C7.95098 25.1291 7.56292 24.3963 7.20783 23.2127C6.53959 20.9852 6.05761 17.4023 6.00481 12ZM23.9953 12H26C26.948 12 27.3359 12.294 27.5588 12.6408C27.845 13.086 28 13.8374 28 15C28 16.1626 27.845 16.914 27.5588 17.3592C27.3359 17.706 26.948 18 26 18H23.7169C23.8764 16.2738 23.9735 14.2828 23.9953 12Z" fill="#000000" class="bmwfcol"/><title>cup_rg_48</title></svg>