<svg width="48" height="48" viewBox="0 0 32 32" xmlns="http://www.w3.org/2000/svg"><path d="M23 23.9431V25.9637C20.7531 26.2805 18.4792 26.4727 16.2096 26.5001C14.0235 26.5001 12.4764 26.1313 11.3519 25.462C10.3669 24.8757 9.58646 23.9411 9.16881 22.8729C8.45503 20.683 8.14495 18.3816 8.2536 16.081C8.25541 12.8403 8.62347 10.3139 9.50214 8.75556C9.94499 7.96713 10.5715 7.13733 11.699 6.52945C13.1113 5.76805 14.8098 5.57258 16.3932 5.60324C18.1841 5.63835 20.4676 5.84716 23 6.44564V8.50464C20.4484 7.85818 18.1429 7.63857 16.3638 7.60305C14.4811 7.60409 13.3579 7.90726 12.6481 8.2899C12.0386 8.61851 11.5711 9.13082 11.2446 9.73735C10.8619 10.4157 10.5678 11.4913 10.4027 13H19.9996V15H10.2698C10.2496 15.6653 10.2317 16.3344 10.2324 17H19.9999V19H10.3529C10.4825 20.0835 10.7163 21.1542 11.0522 22.197C11.3492 22.8295 11.7147 23.3505 12.3748 23.7434C13.0768 24.1612 14.2225 24.4991 16.2015 24.5001C18.0499 24.4694 20.4261 24.3204 23 23.9431Z" fill="#000000" class="bmwfcol"/><title>currency-euro_rg_48</title></svg>