<svg width="48" height="48" viewBox="0 0 32 32" xmlns="http://www.w3.org/2000/svg"><path d="M8.00039 2.07568C7.37366 2.07568 6.63753 2.19984 6.06871 2.74157C5.49288 3.28998 5.27539 4.08591 5.27539 5.00068C5.27539 5.91546 5.49288 6.71139 6.06871 7.2598C6.63753 7.80153 7.37366 7.92568 8.00039 7.92568C8.62712 7.92568 9.36326 7.80153 9.93207 7.2598C10.5079 6.71139 10.7254 5.91546 10.7254 5.00068C10.7254 4.08591 10.5079 3.28998 9.93207 2.74157C9.36326 2.19984 8.62712 2.07568 8.00039 2.07568ZM7.12539 5.00068C7.12539 4.34403 7.2829 4.13996 7.34457 4.08123C7.41326 4.01581 7.57712 3.92568 8.00039 3.92568C8.42366 3.92568 8.58753 4.01581 8.65621 4.08123C8.71788 4.13996 8.87539 4.34403 8.87539 5.00068C8.87539 5.65734 8.71788 5.8614 8.65621 5.92014C8.58753 5.98555 8.42366 6.07568 8.00039 6.07568C7.57712 6.07568 7.41326 5.98555 7.34457 5.92014C7.2829 5.8614 7.12539 5.65734 7.12539 5.00068Z" fill="#000000" class="bmwfcol"/><path d="M12.1363 9.18308C12.4607 8.85871 12.743 8.62941 12.9605 8.53263C12.9905 8.51924 13.0136 8.51107 13.0304 8.50609L13.3319 8.79835C13.5296 8.99025 13.8079 9.26079 14.1301 9.5752C14.7751 10.2046 15.5935 11.0075 16.2929 11.707C17.2893 12.7035 17.6426 13.1933 17.8102 13.6542C17.9744 14.1059 17.9973 14.6117 17.9998 15.7325L16 19.1965V26H18V19.7324L20 16.2679L20 15.8668C20.0005 14.7393 20.0009 13.8263 19.6898 12.9708C19.3574 12.0566 18.7107 11.2964 17.7071 10.2928C16.9991 9.58476 16.1739 8.77515 15.527 8.14384C15.2032 7.8279 14.9236 7.55605 14.7248 7.36315L14.4077 7.05582L14.4047 7.0529C14.076 6.73777 13.6791 6.5478 13.2428 6.50671C12.8259 6.46744 12.4495 6.57091 12.1473 6.70542C11.5679 6.96326 11.0648 7.42614 10.7221 7.76886C10.3972 8.09375 9.93126 8.57464 9.65545 9.10651C9.5124 9.38236 9.38048 9.74527 9.39599 10.1588C9.41271 10.6049 9.59772 11.0118 9.92298 11.337L11.5859 13H7V15H14.0001V12.5857L11.4346 10.0202C11.5507 9.80045 11.7977 9.52166 12.1363 9.18308Z" fill="#000000" class="bmwfcol"/><path d="M7 16C3.68629 16 1 18.6863 1 22C1 25.3137 3.68629 28 7 28C10.3137 28 13 25.3137 13 22C13 18.6863 10.3137 16 7 16ZM3 22C3 19.7909 4.79086 18 7 18C9.20914 18 11 19.7909 11 22C11 24.2091 9.20914 26 7 26C4.79086 26 3 24.2091 3 22Z" fill="#000000" class="bmwfcol"/><path d="M19 22C19 18.6863 21.6863 16 25 16C28.3137 16 31 18.6863 31 22C31 25.3137 28.3137 28 25 28C21.6863 28 19 25.3137 19 22ZM25 18C22.7909 18 21 19.7909 21 22C21 24.2091 22.7909 26 25 26C27.2091 26 29 24.2091 29 22C29 19.7909 27.2091 18 25 18Z" fill="#000000" class="bmwfcol"/><title>cyclist_rg_48</title></svg>