<svg width="48" height="48" viewBox="0 0 32 32" xmlns="http://www.w3.org/2000/svg"><path d="M15 4.5C15 3.67157 15.6716 3 16.5 3C17.3284 3 18 3.67157 18 4.5C18 5.32843 17.3284 6 16.5 6C15.6716 6 15 5.32843 15 4.5Z" fill="#000000" class="bmwfcol"/><path d="M18 9.00039C18 8.17196 18.6716 7.50039 19.5 7.50039C20.3284 7.50039 21 8.17196 21 9.00039C21 9.82882 20.3284 10.5004 19.5 10.5004C18.6716 10.5004 18 9.82882 18 9.00039Z" fill="#000000" class="bmwfcol"/><path d="M25.5 7.50039C24.6716 7.50039 24 8.17196 24 9.00039C24 9.82882 24.6716 10.5004 25.5 10.5004C26.3284 10.5004 27 9.82882 27 9.00039C27 8.17196 26.3284 7.50039 25.5 7.50039Z" fill="#000000" class="bmwfcol"/><path d="M21 13.5C21 12.6716 21.6716 12 22.5 12C23.3284 12 24 12.6716 24 13.5C24 14.3284 23.3284 15 22.5 15C21.6716 15 21 14.3284 21 13.5Z" fill="#000000" class="bmwfcol"/><path d="M22.5 3C21.6716 3 21 3.67157 21 4.5C21 5.32843 21.6716 6 22.5 6C23.3284 6 24 5.32843 24 4.5C24 3.67157 23.3284 3 22.5 3Z" fill="#000000" class="bmwfcol"/><path d="M27 4.5C27 3.67157 27.6716 3 28.5 3C29.3284 3 30 3.67157 30 4.5C30 5.32843 29.3284 6 28.5 6C27.6716 6 27 5.32843 27 4.5Z" fill="#000000" class="bmwfcol"/><path d="M6 29C4.48824 29 3.12116 28.6218 2 27.9058V25.2364C2.11132 25.3808 2.23059 25.5164 2.35711 25.6429C2.6637 25.9495 3.02336 26.2135 3.43334 26.4251L2.79893 23.5173L2.79343 23.5001H2V21.5H2.50001C2.52239 20.4397 3.30012 19.7719 3.77337 19.4524C4.15801 19.1928 4.57049 19.0894 4.93645 19.0431C5.27764 18.9999 5.64464 19 5.96673 19H6.03229C6.35439 19 6.72138 18.9999 7.06257 19.0431C7.42853 19.0894 7.84101 19.1928 8.22565 19.4524C8.6989 19.7719 9.47664 20.4397 9.49902 21.5H10.9819C10.8834 20.1643 10.3892 19.1035 9.64289 18.3571C8.80567 17.5199 7.57275 17 6 17C4.42725 17 3.19433 17.5199 2.35711 18.3571C2.23059 18.4836 2.11132 18.6192 2 18.7636V16.0942C3.12116 15.3782 4.48824 15 6 15C8.02725 15 9.79433 15.6801 11.0571 16.9429C12.3199 18.2057 13 19.9728 13 22C13 24.0272 12.3199 25.7943 11.0571 27.0571C9.79433 28.3199 8.02725 29 6 29ZM4.5371 22.1017L4.72967 22.9843C4.76893 23.0945 4.80895 23.1803 4.84626 23.239L4.84813 23.2407C4.85985 23.2511 4.92174 23.3062 5.0881 23.3665C5.29673 23.4421 5.60396 23.5 5.99951 23.5C6.39507 23.5 6.70229 23.4421 6.91092 23.3665C7.07729 23.3062 7.13918 23.2511 7.15089 23.2407L7.15277 23.239C7.19088 23.179 7.23182 23.0908 7.2719 22.9771L7.46067 22.1118C7.48801 21.8902 7.49951 21.6895 7.49951 21.5469C7.49951 21.5277 7.49587 21.4853 7.43554 21.4038C7.3693 21.3144 7.25849 21.2126 7.10671 21.1101C7.07468 21.0885 7.00105 21.0513 6.81145 21.0273C6.60872 21.0016 6.36413 21 5.99951 21C5.63489 21 5.3903 21.0016 5.18757 21.0273C4.99797 21.0513 4.92435 21.0885 4.89232 21.1101C4.74053 21.2126 4.62972 21.3144 4.56349 21.4038C4.50316 21.4853 4.49951 21.5277 4.49951 21.5469C4.49951 21.6873 4.51067 21.884 4.5371 22.1017ZM5.26823 25.4527L5.60336 26.9887C5.73306 26.9962 5.86528 27 6 27C6.13472 27 6.26694 26.9962 6.39664 26.9887L6.7318 25.4525C6.49603 25.4843 6.25072 25.5 5.99951 25.5C5.74866 25.5 5.50369 25.4844 5.26823 25.4527ZM9.64289 25.6429C10.1921 25.0937 10.6048 24.3741 10.8237 23.5001H9.20559L9.20317 23.5077L8.56666 26.4251C8.97664 26.2135 9.3363 25.9495 9.64289 25.6429Z" fill="#000000" class="bmwfcol"/><path d="M30 25.2793V23.2611L24.1318 24.0541L22.686 25.4999H13.8452C13.5712 26.1751 13.2117 26.8067 12.7672 27.3811L12.886 27.4999H23.5144L25.0686 25.9457L30 25.2793Z" fill="#000000" class="bmwfcol"/><path d="M30 19V21H26.0825L24.9253 19H30Z" fill="#000000" class="bmwfcol"/><path d="M12.2339 16C12.8037 16.5946 13.267 17.2677 13.6227 18H20.0747L21.5491 20.5371L21.0862 21H14.452C14.4845 21.3285 14.5008 21.6622 14.5008 22C14.5008 22.3378 14.4845 22.6715 14.452 23H21.9146L24.0517 20.8629L21.2256 16H12.2339Z" fill="#000000" class="bmwfcol"/><title>dashboard_and_air_particles_rg_48</title></svg>