<svg width="48" height="48" viewBox="0 0 32 32" xmlns="http://www.w3.org/2000/svg"><path d="M4 10V22C4 24.2794 5.4136 26.0647 7.54615 27.2279C9.66547 28.3839 12.5966 29 16 29C19.4034 29 22.3345 28.3839 24.4539 27.2279C26.5864 26.0647 28 24.2794 28 22V10C28 7.72059 26.5864 5.93531 24.4539 4.7721C22.3345 3.61611 19.4034 3 16 3C12.5966 3 9.66547 3.61611 7.54615 4.7721C5.4136 5.93531 4 7.72059 4 10ZM6 10C6 8.67941 6.7864 7.46469 8.50385 6.5279C10.2345 5.58389 12.8034 5 16 5C19.1966 5 21.7655 5.58389 23.4961 6.5279C25.2136 7.46469 26 8.67941 26 10C26 11.3206 25.2136 12.5353 23.4961 13.4721C21.7655 14.4161 19.1966 15 16 15C12.8034 15 10.2345 14.4161 8.50385 13.4721C6.7864 12.5353 6 11.3206 6 10ZM26 14.1612V16C26 17.3206 25.2136 18.5353 23.4961 19.4721C21.7655 20.4161 19.1966 21 16 21C12.8034 21 10.2345 20.4161 8.50385 19.4721C6.7864 18.5353 6 17.3206 6 16V14.1612C6.45484 14.5598 6.97468 14.9162 7.54615 15.2279C9.66547 16.3839 12.5966 17 16 17C19.4034 17 22.3345 16.3839 24.4539 15.2279C25.0253 14.9162 25.5452 14.5598 26 14.1612ZM6 22V20.1612C6.45484 20.5598 6.97468 20.9162 7.54615 21.2279C9.66547 22.3839 12.5966 23 16 23C19.4034 23 22.3345 22.3839 24.4539 21.2279C25.0253 20.9162 25.5452 20.5598 26 20.1612V22C26 23.3206 25.2136 24.5353 23.4961 25.4721C21.7655 26.4161 19.1966 27 16 27C12.8034 27 10.2345 26.4161 8.50385 25.4721C6.7864 24.5353 6 23.3206 6 22Z" fill="#000000" class="bmwfcol"/><title>data_rg_48</title></svg>