<svg width="48" height="48" viewBox="0 0 32 32" xmlns="http://www.w3.org/2000/svg"><path d="M24 10.5C24 9.67157 24.6716 9 25.5 9C26.3284 9 27 9.67157 27 10.5C27 11.3284 26.3284 12 25.5 12C24.6716 12 24 11.3284 24 10.5Z" fill="#000000" class="bmwfcol"/><path d="M23 20H28.9C29.5075 20 30 19.5075 30 18.9V7.1C30 6.49249 29.5075 6 28.9 6H22.1C21.4925 6 21 6.4925 21 7.1V26H23V20ZM28 8V18H23V8H28Z" fill="#000000" class="bmwfcol"/><path d="M3.1 11C2.49248 11 2 11.4925 2 12.1V26H19V12.1C19 11.4925 18.5075 11 17.9 11H3.1ZM4 24V13H17V24H15V19.1C15 18.4925 14.5075 18 13.9 18L7.1 18C6.49248 18 6 18.4925 6 19.1L6 24H4ZM13 20V24H8V20L13 20Z" fill="#000000" class="bmwfcol"/><title>dealer_rg_48</title></svg>