<svg width="48" height="48" viewBox="0 0 32 32" xmlns="http://www.w3.org/2000/svg"><path d="M19.0982 7.09821C19.8407 6.35568 20.8651 6 22 6C23.1349 6 24.1593 6.35568 24.9018 7.09821C25.6443 7.84073 26 8.86513 26 10C26 11.1349 25.6443 12.1593 24.9018 12.9018C24.1593 13.6443 23.1349 14 22 14C20.8651 14 19.8407 13.6443 19.0982 12.9018C18.3557 12.1593 18 11.1349 18 10C18 8.86513 18.3557 7.84073 19.0982 7.09821ZM20.5124 8.51242C20.2181 8.80677 20 9.28237 20 10C20 10.7176 20.2181 11.1932 20.5124 11.4876C20.8068 11.7819 21.2824 12 22 12C22.7176 12 23.1932 11.7819 23.4876 11.4876C23.7819 11.1932 24 10.7176 24 10C24 9.28237 23.7819 8.80677 23.4876 8.51242C23.1932 8.21807 22.7176 8 22 8C21.2824 8 20.8068 8.21807 20.5124 8.51242Z" fill="#000000" class="bmwfcol"/><path d="M16.1746 4.14611C17.6088 2.72763 19.6321 2 22 2C24.3679 2 26.3912 2.72763 27.8254 4.14611C29.261 5.56585 30 7.57256 30 9.92308C30 12.3753 28.9067 14.6565 27.5399 16.6161C26.1683 18.5826 24.4464 20.3292 23.0538 21.7101L22.7614 22H21.2386L20.9462 21.7101C19.5536 20.3292 17.8317 18.5826 16.4601 16.6161C15.0933 14.6565 14 12.3753 14 9.92308C14 7.57256 14.739 5.56585 16.1746 4.14611ZM17.5809 5.56812C16.598 6.5403 16 7.99514 16 9.92308C16 11.7871 16.8387 13.6628 18.1005 15.4719C19.2521 17.1231 20.6945 18.6329 22 19.9373C23.3055 18.6329 24.7479 17.1231 25.8995 15.4719C27.1613 13.6628 28 11.7871 28 9.92308C28 7.99514 27.402 6.5403 26.4191 5.56812C25.4348 4.59467 23.9581 4 22 4C20.0419 4 18.5652 4.59467 17.5809 5.56812Z" fill="#000000" class="bmwfcol"/><path d="M3.1 11H11.0559C11.1271 11.6883 11.2636 12.3559 11.4498 13H4V24H6L6 19.1C6 18.4925 6.49248 18 7.1 18H13.9C13.9309 18 13.9616 18.0013 13.9919 18.0038C14.3157 18.4556 14.6544 18.8946 15 19.3187V24H17V21.5705C17.5434 22.1401 18.0664 22.6627 18.538 23.1303L19 23.5884V26H2V12.1C2 11.4925 2.49248 11 3.1 11ZM13 24L13 20H8L8 24H13Z" fill="#000000" class="bmwfcol"/><title>dealer_location_rg_48</title></svg>