<svg width="48" height="48" viewBox="0 0 32 32" xmlns="http://www.w3.org/2000/svg"><path d="M7.20714 5H24.7925L29.9996 12.4366L29.9995 13.619L17.0933 28.9999H14.9063L2.00014 13.619L2 12.4366L7.20714 5ZM4.74724 12H7.80201L7.17255 8.5363L4.74724 12ZM4.93068 14L12.6639 23.2161L8.36305 14H4.93068ZM15.9999 25.6353L21.4298 14H10.5701L15.9999 25.6353ZM19.3362 23.2155L27.069 14H23.6368L19.3362 23.2155ZM27.2524 12L24.8276 8.53701L24.1983 12H27.2524ZM22.3575 10.9433L23.0742 7H18.4142L22.3575 10.9433ZM20.5858 12L16.0001 7.41429L11.4144 12H20.5858ZM9.64272 10.9432L13.5859 7H8.92612L9.64272 10.9432Z" fill="#000000" class="bmwfcol"/><title>diamond_rg_48</title></svg>