<svg width="48" height="48" viewBox="0 0 32 32" xmlns="http://www.w3.org/2000/svg"><path d="M14.1334 3.99997L4.0002 4.00001V19H6.0002V6.00001L14.0117 6.00001C14.8036 6.00167 15.1962 6.17496 15.4375 6.45403C15.7176 6.77801 16.0002 7.47601 16.0002 9V14H21.0002C22.5242 14 23.2222 14.2826 23.5462 14.5627C23.8266 14.8052 24.0002 15.2004 24.0002 16V27.0235H22.0002V29H26.0002L26.0002 15.8668C26.0007 14.7393 26.0011 13.8263 25.69 12.9708C25.3576 12.0566 24.7108 11.2965 23.7073 10.2929L19.7073 6.2929C18.7038 5.28936 17.9436 4.64263 17.0294 4.31022C16.1739 3.99913 15.2609 3.99951 14.1334 3.99997ZM22.2931 11.7071C22.4449 11.859 22.5818 11.999 22.7054 12.129C22.19 12.0401 21.6207 12 21.0002 12H18.0002V9C18.0002 8.37945 17.9601 7.81016 17.8712 7.29479C18.0012 7.41838 18.1413 7.55528 18.2931 7.70712L22.2931 11.7071Z" fill="#000000" class="bmwfcol"/><path d="M4.47818 21.0552H1.05762V28.95H2.94862V26.3755C3.58698 26.3754 4.09485 26.3737 4.49665 26.3555C5.25988 26.3249 5.93303 26.1714 6.45148 25.6974C7.00654 25.1975 7.21288 24.446 7.21288 23.6707C7.21288 22.9216 7.00489 22.2157 6.5066 21.7285C6.00772 21.2407 5.36131 21.0552 4.47818 21.0552ZM2.94862 24.574V22.8568H4.31914C4.78954 22.8568 4.99067 22.9118 5.10609 23.0207C5.24444 23.1523 5.302 23.3311 5.302 23.6806C5.302 24.0187 5.25101 24.2122 5.11575 24.3407C4.97449 24.4749 4.76411 24.5346 4.32994 24.5543C3.94671 24.5717 3.46923 24.5737 2.94862 24.574Z" fill="#000000" class="bmwfcol"/><path d="M10.9754 21.0552H8.07169V28.95H10.8958C11.9627 28.95 12.7366 28.7669 13.3854 28.183C14.1394 27.5044 14.4953 26.5343 14.4953 24.9728C14.4953 23.4561 14.2216 22.6347 13.6302 21.9677C12.9954 21.2458 12.1257 21.0552 10.9754 21.0552ZM9.96268 27.1485V22.8568H10.9853C11.5787 22.8568 11.9395 22.9204 12.2042 23.2331C12.5284 23.617 12.5844 24.1883 12.5844 24.9728C12.5844 25.6863 12.5123 26.2177 12.2607 26.5906C12.116 26.8055 11.9541 26.9396 11.7531 27.0235C11.5469 27.1096 11.2862 27.1485 10.9356 27.1485H9.96268Z" fill="#000000" class="bmwfcol"/><path d="M15.5427 21.0552H21.1711V22.8568H17.4337V24.1168H20.7934V25.9183H17.4337V28.95H15.5427V21.0552Z" fill="#000000" class="bmwfcol"/><title>document-pdf_rg_48</title></svg>