<svg width="48" height="48" viewBox="0 0 32 32" xmlns="http://www.w3.org/2000/svg"><path fill-rule="evenodd" clip-rule="evenodd" d="M17.1332 3.00004L7 3.00007V13.0001C7.68339 13.0001 8.35616 13.0845 9 13.2562V5.00007H17C17.7996 5.00007 18.1948 5.17369 18.4373 5.4541C18.7174 5.77809 19 6.47608 19 8.00007V13.0001H24C25.524 13.0001 26.222 13.2827 26.546 13.5628C26.8264 13.8052 27 14.2005 27 15.0001V27.0001H12V29.0001H29L29 14.8669C29.0005 13.7394 29.0009 12.8263 28.6898 11.9708C28.3574 11.0567 27.7107 10.2965 26.7071 9.29297L22.7071 5.29297C21.7036 4.28942 20.9434 3.64269 20.0292 3.31028C19.1737 2.99919 18.2607 2.99957 17.1332 3.00004ZM25.2929 10.7072C25.4447 10.859 25.5816 10.9991 25.7052 11.1291C25.1898 11.0402 24.6206 11.0001 24 11.0001H21V8.00007C21 7.37951 20.9599 6.81022 20.871 6.29485C21.001 6.41844 21.1411 6.55534 21.2929 6.70718L25.2929 10.7072Z" fill="#000000" class="bmwfcol"/><path fill-rule="evenodd" clip-rule="evenodd" d="M21.5 15C21.5 16.4242 20.9866 17.3689 20.2114 17.9034L19.9083 18.1123L19.8131 18.4678C19.7127 18.8424 19.6208 19.1855 19.5358 19.5H16.4642C16.3792 19.1855 16.2873 18.8424 16.1869 18.4678L16.0917 18.1123L15.7886 17.9034C15.0134 17.3689 14.5 16.4242 14.5 15C14.5 13.811 14.8603 12.9615 15.4109 12.4109C15.7925 12.0293 16.3177 11.7391 17 11.5969V9.56836C15.8169 9.73545 14.7838 10.2095 13.9966 10.9967C12.9947 11.9986 12.5 13.3991 12.5 15C12.5 16.7893 13.1208 18.3193 14.3442 19.3178C14.6194 20.3444 14.8377 21.1516 15.0268 21.7761C15.2309 22.4501 15.4254 22.9977 15.6634 23.4065C15.9295 23.8636 16.2864 24.2094 16.8055 24.377C17.1916 24.5018 17.6199 24.5008 17.9339 24.5001L18 24.5L18.0661 24.5001C18.3801 24.5008 18.8084 24.5018 19.1945 24.377C19.7136 24.2094 20.0705 23.8636 20.3366 23.4065C20.5746 22.9977 20.7691 22.4501 20.9732 21.7761C21.1623 21.1516 21.3806 20.3444 21.6558 19.3178C22.8792 18.3193 23.5 16.7893 23.5 15H21.5ZM17.3918 22.4002C17.3004 22.2432 17.1882 21.9746 17.0356 21.5H18.9644C18.8118 21.9746 18.6996 22.2432 18.6082 22.4002C18.5848 22.4404 18.567 22.4655 18.5557 22.4801C18.4972 22.4921 18.371 22.5 18 22.5C17.629 22.5 17.5028 22.4921 17.4443 22.4801C17.433 22.4655 17.4152 22.4404 17.3918 22.4002Z" fill="#000000" class="bmwfcol"/><path fill-rule="evenodd" clip-rule="evenodd" d="M3.39289 16.3929C4.30567 15.4801 5.57275 15 7 15C8.42725 15 9.69433 15.4801 10.6071 16.3929C11.5199 17.3057 12 18.5728 12 20C12 21.4272 11.5199 22.6943 10.6071 23.6071C10.199 24.0152 9.72012 24.3368 9.18775 24.5677L10.6433 30H8.57278L7.23189 24.9957C7.15509 24.9986 7.07778 25 7 25C6.92247 25 6.84541 24.9986 6.76886 24.9958L5.42797 30H3.35742L4.81293 24.568C4.28029 24.3371 3.80115 24.0154 3.39289 23.6071C2.48011 22.6943 2 21.4272 2 20C2 18.5728 2.48011 17.3057 3.39289 16.3929ZM4.80711 17.8071C4.31989 18.2943 4 19.0272 4 20C4 20.9728 4.31989 21.7057 4.80711 22.1929C5.29433 22.6801 6.02725 23 7 23C7.97275 23 8.70567 22.6801 9.19289 22.1929C9.68011 21.7057 10 20.9728 10 20C10 19.0272 9.68011 18.2943 9.19289 17.8071C8.70567 17.3199 7.97275 17 7 17C6.02725 17 5.29433 17.3199 4.80711 17.8071Z" fill="#000000" class="bmwfcol"/><title>document_with_light_bulb_and_seal_rg_48</title></svg>