<svg width="48" height="48" viewBox="0 0 32 32" xmlns="http://www.w3.org/2000/svg"><path d="M18.2114 17.9034C18.9866 17.3689 19.5 16.4242 19.5 15H21.5C21.5 16.7893 20.8792 18.3193 19.6558 19.3178C19.3806 20.3444 19.1623 21.1516 18.9732 21.7761C18.7691 22.4501 18.5746 22.9977 18.3366 23.4065C18.0705 23.8636 17.7136 24.2094 17.1945 24.377C16.8084 24.5018 16.3801 24.5008 16.0661 24.5001L16 24.5L15.9339 24.5001C15.6199 24.5008 15.1916 24.5018 14.8055 24.377C14.2864 24.2094 13.9295 23.8636 13.6634 23.4065C13.4254 22.9977 13.2309 22.4501 13.0268 21.7761C12.8377 21.1516 12.6194 20.3444 12.3442 19.3178C11.1208 18.3193 10.5 16.7893 10.5 15C10.5 13.3991 10.9947 11.9986 11.9966 10.9967C12.7838 10.2095 13.8169 9.73545 15 9.56836V11.5969C14.3177 11.7391 13.7925 12.0293 13.4109 12.4109C12.8603 12.9615 12.5 13.811 12.5 15C12.5 16.4242 13.0134 17.3689 13.7886 17.9034L14.0917 18.1123L14.1869 18.4678C14.2873 18.8424 14.3792 19.1855 14.4642 19.5H17.5358C17.6208 19.1855 17.7127 18.8424 17.8131 18.4678L17.9083 18.1123L18.2114 17.9034ZM15.0356 21.5C15.1882 21.9746 15.3004 22.2432 15.3918 22.4002C15.4152 22.4404 15.433 22.4655 15.4443 22.4801C15.5028 22.4921 15.629 22.5 16 22.5C16.371 22.5 16.4972 22.4921 16.5557 22.4801C16.567 22.4655 16.5848 22.4404 16.6082 22.4002C16.6996 22.2432 16.8118 21.9746 16.9644 21.5H15.0356Z" fill="#000000" class="bmwfcol"/><path d="M27 14.8669C27.0005 13.7394 27.0009 12.8263 26.6898 11.9708C26.3574 11.0567 25.7107 10.2965 24.7071 9.29297L20.7071 5.29297C19.7036 4.28942 18.9434 3.64269 18.0292 3.31028C17.1737 2.99919 16.2607 2.99957 15.1332 3.00004L15.0306 3.00006L15 3L5 3.00007V29.0001H27L27 14.8669ZM16.4373 5.45403C16.7174 5.77801 17 6.47601 17 8V13H22C23.524 13 24.222 13.2826 24.546 13.5627C24.8264 13.8052 25 14.2004 25 15V27.0001H7V5.00007L15.0286 5.00008C15.809 5.00418 16.1977 5.17698 16.4373 5.45403ZM22 11H19V8C19 7.37948 18.9599 6.81022 18.871 6.29487C19.001 6.41845 19.1411 6.55535 19.2929 6.70718L23.2929 10.7072C23.4447 10.859 23.5816 10.999 23.7051 11.129C23.1898 11.0401 22.6205 11 22 11Z" fill="#000000" class="bmwfcol"/><title>document_with_light_bulb_rg_48</title></svg>