<svg width="48" height="48" viewBox="0 0 32 32" xmlns="http://www.w3.org/2000/svg"><path d="M15.1332 2.99997C16.2607 2.99951 17.1737 2.99913 18.0292 3.31022C18.9434 3.64263 19.7036 4.28936 20.7071 5.2929L24.7071 9.29291C25.7107 10.2965 26.3574 11.0566 26.6898 11.9708C27.0009 12.8263 27.0005 13.7393 27 14.8668L27 29H18V27H25V15C25 14.2004 24.8264 13.8052 24.546 13.5627C24.222 13.2826 23.524 13 22 13H17V8C17 6.47601 16.7174 5.77801 16.4373 5.45403C16.196 5.17496 15.8034 5.00167 15.0115 5.00001L7 5.00001V14H5V3.00001L15.1332 2.99997ZM23.7052 11.129C23.5816 10.999 23.4447 10.859 23.2929 10.7071L19.2929 6.70712C19.1411 6.55528 19.001 6.41838 18.871 6.29479C18.9599 6.81016 19 7.37945 19 8V11H22C22.6206 11 23.1898 11.0401 23.7052 11.129Z" fill="#000000" class="bmwfcol"/><path d="M4.56039 17.5604C4.95856 17.1622 5.48408 17 6 17V16H8V17H12V16H14V17C14.5159 17 15.0414 17.1622 15.4396 17.5604C15.8378 17.9586 16 18.4841 16 19V27C16 27.5159 15.8378 28.0414 15.4396 28.4396C15.0414 28.8378 14.5159 29 14 29H6C5.48408 29 4.95856 28.8378 4.56039 28.4396C4.16222 28.0414 4 27.5159 4 27V19C4 18.4841 4.16222 17.9586 4.56039 17.5604ZM14 19H6V21H14V19ZM14 23H6V27L14 27V23Z" fill="#000000" class="bmwfcol"/><title>document-calendar_rg_48</title></svg>