<svg width="48" height="48" viewBox="0 0 32 32" xmlns="http://www.w3.org/2000/svg"><path d="M15.1322 2.99997L4.99902 3.00001V18H6.99902V5.00001L15.0105 5.00001C15.8024 5.00167 16.195 5.17496 16.4363 5.45403C16.7164 5.77801 16.999 6.47601 16.999 8V13H21.999C23.523 13 24.221 13.2826 24.545 13.5627C24.8254 13.8052 24.999 14.2004 24.999 15V27H21.999V29H26.999L26.9991 14.8668C26.9995 13.7393 26.9999 12.8263 26.6888 11.9708C26.3564 11.0566 25.7097 10.2965 24.7061 9.29291L20.7061 5.2929C19.7026 4.28936 18.9424 3.64263 18.0283 3.31022C17.1728 2.99913 16.2597 2.99951 15.1322 2.99997ZM23.2919 10.7071C23.4437 10.859 23.5806 10.999 23.7042 11.129C23.1889 11.0401 22.6196 11 21.999 11H18.999V8C18.999 7.37945 18.9589 6.81016 18.87 6.29479C19 6.41838 19.1401 6.55528 19.2919 6.70712L23.2919 10.7071Z" fill="#000000" class="bmwfcol"/><path d="M13.9188 18H12.0809L9.49984 21.6862L8.31917 20H6.68052L1.99996 26.6845L1.99902 29H19.9998V26.6847L13.9188 18ZM10.3212 24L12.9998 20.1745L17.7791 27H4.22062L7.49984 22.3168L8.67844 24H10.3212Z" fill="#000000" class="bmwfcol"/><title>document-image_rg_48</title></svg>