<svg width="48" height="48" viewBox="0 0 32 32" xmlns="http://www.w3.org/2000/svg"><path d="M15.1342 2.99991L5.00098 2.99995V19H7.00098V4.99995L15.0125 4.99995C15.8044 5.00161 16.197 5.1749 16.4383 5.45397C16.7184 5.77795 17.001 6.47595 17.001 7.99994V12.9999H22.001C23.525 12.9999 24.223 13.2825 24.5469 13.5627C24.8274 13.8051 25.001 14.2004 25.001 15V27H24.001V29H27.001L27.001 14.8668C27.0015 13.7393 27.0019 12.8262 26.6908 11.9707C26.3584 11.0566 25.7116 10.2964 24.7081 9.29284L20.7081 5.29284C19.7045 4.28929 18.9443 3.64256 18.0302 3.31016C17.1747 2.99907 16.2617 2.99945 15.1342 2.99991ZM23.2939 10.7071C23.4457 10.8589 23.5826 10.999 23.7062 11.129C23.1908 11.04 22.6215 10.9999 22.001 10.9999H19.001V7.99994C19.001 7.37938 18.9609 6.8101 18.872 6.29473C19.002 6.41832 19.142 6.55522 19.2939 6.70706L23.2939 10.7071Z" fill="#000000" class="bmwfcol"/><path d="M8.51024 21.0552H1.96387V22.8766H4.34269V28.9499H6.13142V22.8766H8.51024V21.0552Z" fill="#000000" class="bmwfcol"/><path d="M10.9028 21.0552H8.7655L11.2129 24.9519L8.65872 28.9499H10.7611L12.4826 26.2387L14.1687 28.9499H16.3053L13.7554 24.8646L16.1875 21.0552H14.0852L12.4852 23.5784L10.9028 21.0552Z" fill="#000000" class="bmwfcol"/><path d="M16.4536 21.0552H23V22.8766H20.6212V28.9499H18.8324V22.8766H16.4536V21.0552Z" fill="#000000" class="bmwfcol"/><title>document-text_rg_48</title></svg>