<svg width="48" height="48" viewBox="0 0 32 32" xmlns="http://www.w3.org/2000/svg"><path d="M15.1333 2.99991C16.2607 2.99945 17.1738 2.99907 18.0293 3.31016C18.9434 3.64256 19.7036 4.28929 20.7072 5.29284L24.7072 9.29284C25.7107 10.2964 26.3575 11.0566 26.6899 11.9707C27.001 12.8262 27.0006 13.7393 27.0001 14.8668L27.0001 29H22.0001V27H25.0001V15C25.0001 14.2004 24.8265 13.8051 24.546 13.5627C24.2221 13.2826 23.5241 13 22.0001 13H17.0001V7.99995C17.0001 6.47596 16.7175 5.77796 16.4374 5.45398C16.1949 5.17356 15.7997 4.99995 15.0001 4.99995H7.00008V17H5.00008V2.99995L15.1333 2.99991ZM23.7053 11.129C23.5817 10.999 23.4448 10.8589 23.293 10.7071L19.293 6.70706C19.1411 6.55522 19.0011 6.41832 18.8711 6.29473C18.96 6.8101 19.0001 7.37939 19.0001 7.99995V11H22.0001C22.6206 11 23.1899 11.04 23.7053 11.129Z" fill="#000000" class="bmwfcol"/><path d="M6.08586 19H16.0001V20.8569L17.4843 20H19.0001V27H17.4843L16.0001 26.143V29H6.08586L5.79297 28.7071C5.01965 27.9337 4.50333 27.297 4.2389 26.5037C3.99921 25.7846 3.9996 25.0101 4.00004 24.1162V23.8837C3.9996 22.9898 3.99921 22.2153 4.2389 21.4962C4.50333 20.7029 5.01965 20.0662 5.79297 19.2928L6.08586 19ZM16.0001 24H16.2882L17.0001 24.411V22.5889L16.2882 23H16.0001V24ZM6.92227 21C6.41563 21.5379 6.23088 21.8448 6.13626 22.1287C6.01128 22.5036 6.00008 22.9433 6.00008 24C6.00008 25.0567 6.01128 25.4963 6.13626 25.8712C6.23088 26.1551 6.41563 26.462 6.92227 27H14.0001V21H6.92227Z" fill="#000000" class="bmwfcol"/><title>document-video_rg_48</title></svg>