<svg width="48" height="48" viewBox="0 0 32 32" xmlns="http://www.w3.org/2000/svg"><path d="M5 3.00001L15.1332 2.99997C16.2607 2.99951 17.1737 2.99913 18.0292 3.31022C18.9434 3.64263 19.7036 4.28936 20.7071 5.2929L24.7071 9.29291C25.7107 10.2965 26.3574 11.0566 26.6898 11.9708C27.0009 12.8263 27.0005 13.7393 27 14.8668L27 29H12.8934C13.3715 28.4121 13.7142 27.7313 13.8834 27H25V15C25 14.2004 24.8264 13.8052 24.546 13.5627C24.222 13.2826 23.524 13 22 13H17V8C17 6.47601 16.7174 5.77801 16.4373 5.45403C16.196 5.17496 15.8034 5.00167 15.0115 5.00001L7 5.00001V21.2101C6.25386 21.4138 5.5767 21.7548 5 22.1981V3.00001ZM23.7052 11.129C23.5816 10.999 23.4447 10.859 23.2929 10.7071L19.2929 6.70712C19.1411 6.55528 19.001 6.41838 18.871 6.29479C18.9599 6.81016 19 7.37945 19 8V11H22C22.6206 11 23.1898 11.0401 23.7052 11.129Z" fill="#000000" class="bmwfcol"/><path d="M14.999 17.1087V15.038L9.99902 13.6963V23.0842C9.57359 23.0044 9.17803 22.9999 8.85911 23C8.0165 23.0002 7.15799 23.2247 6.44304 23.6762C5.6774 24.1597 4.99916 24.9845 4.99902 26.1665C4.99882 27.9958 6.60954 29 7.99904 29C9.11326 29 10.1351 28.7716 10.8892 28.1432C11.6535 27.5063 11.9784 26.5993 11.9981 25.5977L11.999 16.3037L14.999 17.1087ZM9.60885 26.6067C9.36295 26.8117 8.88478 27 7.99901 27C7.72443 27 7.45615 26.9002 7.27006 26.7427C7.09797 26.5971 6.999 26.4091 6.99902 26.1668C6.99906 25.8532 7.1525 25.5936 7.511 25.3672C7.89222 25.1264 8.4112 24.9992 8.83235 25C9.17419 25 9.37712 25.0024 9.60641 25.0454C9.71727 25.0662 9.84446 25.0988 9.99902 25.1537V25.5C9.99902 26.1264 9.81982 26.4309 9.60885 26.6067Z" fill="#000000" class="bmwfcol"/><title>document-audio_rg_48</title></svg>