<svg width="48" height="48" viewBox="0 0 32 32" xmlns="http://www.w3.org/2000/svg"><path d="M14.8668 2.99894L25 2.99897V5.68039C24.9096 5.70014 24.8188 5.72333 24.7276 5.75014C23.9741 5.97176 23.406 6.37981 23 6.76044V4.99897H15C14.2004 4.99897 13.8051 5.17259 13.5627 5.453C13.2826 5.77699 13 6.47498 13 7.99897V12.999H7.99995C6.47596 12.999 5.77797 13.2816 5.45398 13.5617C5.17356 13.8041 4.99995 14.1994 4.99995 14.999V26.999H23V23.2418L25 21.2417V28.999H2.99995L2.99991 14.8658C2.99945 13.7383 2.99907 12.8252 3.31016 11.9697C3.64257 11.0556 4.2893 10.2954 5.29284 9.29187L9.29285 5.29187C10.2964 4.28832 11.0566 3.64159 11.9707 3.30918C12.8262 2.99809 13.7393 2.99847 14.8668 2.99894ZM6.70706 10.7061C6.55522 10.8579 6.41832 10.998 6.29473 11.128C6.8101 11.0391 7.37939 10.999 7.99995 10.999H11V7.99897C11 7.37842 11.04 6.80912 11.129 6.29375C10.999 6.41734 10.8589 6.55424 10.7071 6.70608L6.70706 10.7061Z" fill="#000000" class="bmwfcol"/><path fill-rule="evenodd" clip-rule="evenodd" d="M25.8447 9.59003C25.8418 9.59031 25.8401 9.59003 25.8401 9.59003L25.8447 9.59003Z" fill="#000000" class="bmwfcol"/><path d="M29.7071 13.7065C27.5591 15.8542 24.8091 18.6042 22.5961 20.8172L18.4142 24.9993L7 24.999V22.999H13V19.5851L24.2929 8.29219C24.555 8.03013 24.8819 7.78955 25.292 7.66895C25.717 7.54395 26.1387 7.57492 26.5348 7.70693C27.2503 7.94537 27.9594 8.5445 28.7071 9.29222C29.4541 10.0393 30.0541 10.7478 30.293 11.4629C30.4254 11.8592 30.4566 12.2812 30.3313 12.7067C30.2105 13.117 29.9694 13.4441 29.7071 13.7065ZM25.7071 9.70644L24.4143 10.9992L27.0001 13.5849L28.2929 12.2922C28.3718 12.2133 28.4006 12.1658 28.4096 12.148C28.4082 12.1386 28.4046 12.1221 28.3961 12.0967C28.322 11.8748 28.0459 11.4594 27.2929 10.7064C26.5406 9.95407 26.1245 9.67833 25.9025 9.60435C25.8764 9.59566 25.8597 9.59207 25.8502 9.59068C25.8327 9.59956 25.7856 9.62798 25.7071 9.70644ZM23.0001 12.4134L15 20.4135V22.9993H17.5858L25.5858 14.9991L23.0001 12.4134ZM25.8447 9.59003C25.8418 9.59031 25.8401 9.59003 25.8401 9.59003L25.8447 9.59003Z" fill="#000000" class="bmwfcol"/><title>document_pen_signature_rg_48</title></svg>