<svg width="48" height="48" viewBox="0 0 32 32" xmlns="http://www.w3.org/2000/svg"><path d="M17.1332 3.00004L7 3.00007V13.0001C7.68339 13.0001 8.35616 13.0845 9 13.2562V5.00007H17C17.7996 5.00007 18.1948 5.17369 18.4373 5.4541C18.7174 5.77809 19 6.47608 19 8.00007V13.0001H24C25.524 13.0001 26.222 13.2827 26.546 13.5628C26.8264 13.8052 27 14.2005 27 15.0001V27.0001H12V29.0001H29L29 14.8669C29.0005 13.7394 29.0009 12.8263 28.6898 11.9708C28.3574 11.0567 27.7107 10.2965 26.7071 9.29297L22.7071 5.29297C21.7036 4.28942 20.9434 3.64269 20.0292 3.31028C19.1737 2.99919 18.2607 2.99957 17.1332 3.00004ZM25.2929 10.7072C25.4447 10.859 25.5816 10.9991 25.7052 11.1291C25.1898 11.0402 24.6206 11.0001 24 11.0001H21V8.00007C21 7.37951 20.9599 6.81022 20.871 6.29485C21.001 6.41844 21.1411 6.55534 21.2929 6.70718L25.2929 10.7072Z" fill="#000000" class="bmwfcol"/><path d="M7 15C5.57275 15 4.30567 15.4801 3.39289 16.3929C2.48011 17.3057 2 18.5728 2 20C2 21.4272 2.48011 22.6943 3.39289 23.6071C3.80115 24.0154 4.28029 24.3371 4.81293 24.568L3.35742 30H5.42797L6.76886 24.9958C6.84541 24.9986 6.92247 25 7 25C7.07778 25 7.15509 24.9986 7.23189 24.9957L8.57278 30H10.6433L9.18775 24.5677C9.72012 24.3368 10.199 24.0152 10.6071 23.6071C11.5199 22.6943 12 21.4272 12 20C12 18.5728 11.5199 17.3057 10.6071 16.3929C9.69433 15.4801 8.42725 15 7 15ZM4 20C4 19.0272 4.31989 18.2943 4.80711 17.8071C5.29433 17.3199 6.02725 17 7 17C7.97275 17 8.70567 17.3199 9.19289 17.8071C9.68011 18.2943 10 19.0272 10 20C10 20.9728 9.68011 21.7057 9.19289 22.1929C8.70567 22.6801 7.97275 23 7 23C6.02725 23 5.29433 22.6801 4.80711 22.1929C4.31989 21.7057 4 20.9728 4 20Z" fill="#000000" class="bmwfcol"/><path d="M12.4873 14.7676H18.1353V16.3116H16.1113V21.1996H14.5113V16.3116H12.4873V14.7676Z" fill="#000000" class="bmwfcol"/><path d="M20.6644 14.7676H18.7896V21.1996H20.3576V17.7394L21.3468 19.9996H22.6563L23.6456 17.7394V21.1996H25.2136V14.7676H23.3627L22.0136 17.8525L20.6644 14.7676Z" fill="#000000" class="bmwfcol"/><title>document_with_tm_and_seal_rg_48</title></svg>