<svg width="48" height="48" viewBox="0 0 32 32" xmlns="http://www.w3.org/2000/svg"><path d="M7 5.00007H15C15.7996 5.00007 16.1948 5.17373 16.4373 5.45415C16.7174 5.77813 17 6.47613 17 8.00012V13.0001H22C23.524 13.0001 24.222 13.2827 24.546 13.5628C24.8264 13.8053 25 14.2005 25 15.0001V27.0001H20V29.0001H27L27 14.8669C27.0005 13.7394 27.0009 12.8263 26.6898 11.9708C26.3574 11.0567 25.7107 10.2965 24.7071 9.29297L20.7071 5.29297C19.7036 4.28942 18.9434 3.64269 18.0292 3.31028C17.1737 2.99919 16.2607 2.99957 15.1332 3.00004L5 3.00007V19.0001H7V5.00007ZM23.2929 10.7072C23.4448 10.859 23.5817 10.9991 23.7053 11.1292C23.1899 11.0402 22.6206 11.0001 22 11.0001H19V8.00012C19 7.37954 18.9599 6.81023 18.871 6.29484C19.001 6.41843 19.1411 6.55534 19.2929 6.70718L23.2929 10.7072Z" fill="#000000" class="bmwfcol"/><path d="M8.25145 21.0553H2.10613V22.8568H5.68231L1.95703 27.2654V28.9501H8.32103V27.1485H4.52618L8.25145 22.74V21.0553Z" fill="#000000" class="bmwfcol"/><path d="M11.1129 21.0553H9.22193V28.9501H11.1129V21.0553Z" fill="#000000" class="bmwfcol"/><path d="M12.3823 21.0553H15.8029C16.686 21.0553 17.3324 21.2408 17.8313 21.7286C18.3296 22.2158 18.5376 22.9217 18.5376 23.6707C18.5376 24.4461 18.3312 25.1975 17.7762 25.6975C17.2577 26.1715 16.5846 26.3249 15.8213 26.3555C15.4195 26.3738 14.9117 26.3754 14.2733 26.3756V28.9501H12.3823V21.0553ZM14.2733 22.8568V24.574C14.7939 24.5738 15.2714 24.5718 15.6546 24.5544C16.0888 24.5346 16.2992 24.475 16.4404 24.3408C16.5757 24.2123 16.6267 24.0188 16.6267 23.6807C16.6267 23.3311 16.5691 23.1524 16.4308 23.0208C16.3154 22.9119 16.1142 22.8568 15.6438 22.8568H14.2733Z" fill="#000000" class="bmwfcol"/><title>document-zip_rg_48</title></svg>