<svg width="48" height="48" viewBox="0 0 32 32" xmlns="http://www.w3.org/2000/svg"><path d="M15.1332 2.99997C16.2607 2.99951 17.1737 2.99913 18.0292 3.31022C18.9434 3.64263 19.7036 4.28936 20.7071 5.2929L24.7071 9.29291C25.7107 10.2965 26.3574 11.0566 26.6898 11.9708C27.0009 12.8263 27.0005 13.7393 27 14.8668L27 29H19V27H25V15C25 14.2004 24.8264 13.8052 24.546 13.5627C24.222 13.2826 23.524 13 22 13H17V8C17 6.47601 16.7174 5.77801 16.4373 5.45403C16.196 5.17496 15.8034 5.00167 15.0115 5.00001L7 5.00001V15H5V3.00001L15.1332 2.99997ZM23.7052 11.129C23.5816 10.999 23.4447 10.859 23.2929 10.7071L19.2929 6.70712C19.1411 6.55528 19.001 6.41838 18.871 6.29479C18.9599 6.81016 19 7.37945 19 8V11H22C22.6206 11 23.1898 11.0401 23.7052 11.129Z" fill="#000000" class="bmwfcol"/><path d="M5 17V29H17V17H5ZM7 19H10V22H7V19ZM10 24V27H7V24H10ZM12 19H15V22H12V19ZM15 24V27H12V24H15Z" fill="#000000" class="bmwfcol"/><title>document-chart_rg_48</title></svg>