<svg width="48" height="48" viewBox="0 0 32 32" xmlns="http://www.w3.org/2000/svg"><path d="M26.6908 11.9709C27.0019 12.8264 27.0015 13.7394 27.001 14.8669L27.001 29.0001H5.00098V3.00011L15.001 3.00004C16.1285 2.99957 17.1747 2.99922 18.0302 3.31032C18.9443 3.64272 19.7045 4.28945 20.7081 5.293L24.7081 9.293C25.7116 10.2966 26.3584 11.0567 26.6908 11.9709ZM15.0296 5.00011L7.00098 5.00011V27.0001H25.001V15C25.001 14.2005 24.8274 13.8052 24.5469 13.5628C24.223 13.2826 23.525 13 22.001 13H17.001V8.00004C17.001 6.47604 16.7184 5.77805 16.4383 5.45407C16.1987 5.17701 15.81 5.00422 15.0296 5.00011ZM23.7061 11.129C23.5825 10.9991 23.4457 10.859 23.2939 10.7072L19.2939 6.70722C19.142 6.55538 19.002 6.41849 18.872 6.2949C18.9609 6.81025 19.001 7.37951 19.001 8.00004V11H22.001C22.6215 11 23.1908 11.0401 23.7061 11.129Z" fill="#000000" class="bmwfcol"/><path d="M15.0014 21.7627L12.0014 18.7627V21.2376L16.0013 25.2375L20.0014 21.2373V18.7625L17.0014 21.7625V15H15.0014L15.0014 21.7627Z" fill="#000000" class="bmwfcol"/><title>document-download_rg_48</title></svg>