<svg width="48" height="48" viewBox="0 0 32 32" xmlns="http://www.w3.org/2000/svg"><path d="M4.41437 3L30.4144 29H27.5859L1.58594 3H4.41437Z" fill="#000000" class="bmwfcol"/><path d="M12.2575 16.5L12.8178 17.0603L12.4793 18.1495L14.4245 18.6669L17.2442 21.4866L11.6886 20.0087C11.2194 20.753 10.5888 21.3906 9.83588 21.8701L7.20018 23.5487L7.20019 27.9999H5.20019L5.20018 22.4513L8.7615 20.1832C9.55962 19.6748 10.1517 18.9001 10.4325 17.9965L10.8976 16.5H12.2575Z" fill="#000000" class="bmwfcol"/><path d="M22.4924 14.8058L21.7341 17.4913L23.3547 19.1119L24.4171 15.3493C24.6022 14.6939 25.108 14.1777 25.7596 13.9794L29.2236 12.9251L29.4624 12.3998C29.8168 11.62 30.0002 10.7735 30.0002 9.91696V8.64412L26.3057 8.06686L25.0414 6.66208C24.6621 6.24065 24.1218 6.00001 23.5548 6.00001H20.9378C20.0607 6.00001 19.286 6.57144 19.027 7.40939L18.416 9.38592C18.0461 10.5829 16.9746 11.4173 15.737 11.4942L17.3916 13.1488C18.5197 12.7015 19.461 11.8522 20.0163 10.748L20.2361 11.4489C20.4323 12.0744 21.0119 12.5 21.6674 12.5H22.6191C23.2944 12.5 23.8864 12.0488 24.0654 11.3977L24.6616 9.22977L25.2947 9.93315L27.9764 10.3522C27.9418 10.6687 27.8695 10.9801 27.7609 11.2797L25.1772 12.0661C23.8742 12.4626 22.8625 13.495 22.4924 14.8058ZM22.9255 8.00001L22.2381 10.5L22.0346 10.5L21.2505 8.00001H22.9255Z" fill="#000000" class="bmwfcol"/><path d="M20.5372 24.7796L22.5644 26.8068L22.5803 27.9999H20.5801L20.5372 24.7796Z" fill="#000000" class="bmwfcol"/><path d="M2.00019 27.9999H4.00019L4.00018 22.3205L5.59448 20.0885C6.14821 19.3132 6.53787 18.4331 6.73961 17.5021L7.52035 13.8986L7.47183 11.7143L5.42655 9.66901C5.42665 9.69296 5.42697 9.71693 5.4275 9.74091L5.51558 13.7064L4.78496 17.0786C4.64087 17.7436 4.36254 18.3722 3.96701 18.926L2.00018 21.6795L2.00019 27.9999Z" fill="#000000" class="bmwfcol"/><path d="M8.84283 4.60001L11.3848 7.14199L12.349 4.60001H8.84283Z" fill="#000000" class="bmwfcol"/><path d="M19.3211 23.5636L19.3803 27.9999H17.3801L17.2984 21.8734L17.3693 21.6118L19.3211 23.5636Z" fill="#000000" class="bmwfcol"/><title>dog_crossed_out_rg_48</title></svg>