<svg width="48" height="48" viewBox="0 0 32 32" xmlns="http://www.w3.org/2000/svg"><path d="M12.3488 4.6001L10.8742 8.4878C10.8282 8.60896 10.8063 8.7379 10.8095 8.86745L10.8753 11.5001H15.5496C16.8652 11.5001 18.0274 10.6429 18.4159 9.38601L19.0268 7.40949C19.2858 6.57153 20.0605 6.0001 20.9376 6.0001H23.5546C24.1216 6.0001 24.6619 6.24074 25.0412 6.66217L26.3055 8.06695L30 8.64421V9.91705C30 10.7736 29.8166 11.6201 29.4622 12.3999L29.2234 12.9252L25.7594 13.9795C25.1078 14.1778 24.602 14.694 24.4169 15.3494L22.5018 22.132L22.5801 28H20.5799L20.4982 21.8682L22.4922 14.8059C22.8623 13.4951 23.874 12.4627 25.177 12.0661L27.7607 11.2798C27.8693 10.9802 27.9416 10.6688 27.9763 10.3523L25.2945 9.93324L24.6614 9.22986L24.0652 11.3978C23.8862 12.0489 23.2942 12.5001 22.6189 12.5001L21.6672 12.5001C21.0117 12.5001 20.4321 12.0745 20.2359 11.449L20.0161 10.7481C19.1782 12.4144 17.4611 13.5001 15.5496 13.5001H8.92469L8.81012 8.91743C8.80041 8.5288 8.86632 8.14198 9.00419 7.77849L9.39334 6.75255L7.96254 8.28934C7.60746 8.67072 7.41525 9.17563 7.42682 9.69659L7.52016 13.8987L6.73942 17.5022C6.53769 18.4332 6.14803 19.3133 5.5943 20.0885L4 22.3206L4 28H2L2 21.6796L3.96683 18.9261C4.36235 18.3723 4.64068 17.7437 4.78478 17.0786L5.5154 13.7065L5.42732 9.741C5.40417 8.69908 5.7886 7.68927 6.49876 6.9265L8.66472 4.6001H12.3488ZM22.2379 10.5001L22.9254 8.0001H21.2503L22.0344 10.5001L22.2379 10.5001Z" fill="#000000" class="bmwfcol"/><path d="M5.2 28L5.2 22.4514L8.76132 20.1832C9.55943 19.6749 10.1515 18.9001 10.4323 17.9965L10.8974 16.5001H12.9918L12.4791 18.1496L17.9159 19.5959L18.4842 17.5001H20.5565L19.3018 22.1267L19.3801 28H17.3799L17.2982 21.8735L17.3924 21.5262L11.6884 20.0088C11.2192 20.7531 10.5886 21.3907 9.83569 21.8702L7.2 23.5488L7.2 28H5.2Z" fill="#000000" class="bmwfcol"/><title>dog_rg_48</title></svg>