<svg width="48" height="48" viewBox="0 0 32 32" xmlns="http://www.w3.org/2000/svg"><path d="M14.4798 17.1544H16.4269V15.5879C17.3639 15.4708 18.0373 15.2659 18.5936 14.8267C19.3549 14.2264 19.7063 13.3919 19.7063 12.3379C19.7063 11.4009 19.3549 10.5957 18.7693 10.0979C18.3155 9.70265 17.7152 9.49769 16.8954 9.23417L15.3143 8.73641C14.5969 8.51681 14.3187 8.42897 13.8942 8.19473C13.6014 8.03369 13.5135 7.75553 13.5135 7.38953C13.5135 6.97961 13.6453 6.70145 13.8503 6.55505C14.1723 6.32081 14.6408 6.30617 15.4167 6.30617C16.4562 6.30617 18.1398 6.65753 19.3549 6.93569V4.87145C18.579 4.71041 17.4663 4.49081 16.4269 4.35905V2.95361H14.4798V4.34441C13.7331 4.37369 12.9572 4.50545 12.4155 4.91537C11.6103 5.51561 11.2883 6.32081 11.2883 7.53593C11.2883 8.47289 11.5957 9.23417 12.2106 9.74657C12.6351 10.0979 13.1183 10.3029 13.8795 10.5518L15.7535 11.152C16.5001 11.3863 17.0125 11.5473 17.2175 11.723C17.3931 11.884 17.481 12.089 17.481 12.455C17.481 12.8063 17.3492 13.1431 17.0418 13.348C16.5587 13.6555 15.9584 13.6555 15.4021 13.6555C14.0552 13.6555 12.6498 13.4066 11.3907 13.1431V15.2219C12.2691 15.3683 13.4257 15.5294 14.4798 15.6172V17.1544Z" fill="#000000" class="bmwfcol"/><path d="M29.7073 16.2928C29.3996 15.9852 28.9703 15.6299 28.3683 15.4031C27.7593 15.1737 27.0434 15.1019 26.1992 15.2527C24.7372 15.514 22.8561 16.4492 20.3112 18.457C19.9401 18.1457 19.4742 18 19 18L14.1319 18L10.3999 17L10.1895 17C9.6121 16.9991 9.03821 16.9983 8.38659 17.3971C8.09317 17.5766 7.8062 17.8209 7.49345 18.113C7.1799 18.4059 6.79501 18.7908 6.30654 19.2793L1.58582 24L7.58582 30H9.41424L11.4142 28H15.0287C16.0043 28 16.7763 28 17.3964 27.9674C18.0254 27.9343 18.5664 27.8653 19.0664 27.6987C20.0439 27.3729 20.7035 26.7124 21.589 25.8256L30.4146 16.9999L29.7073 16.2928ZM13.8686 20L19 20L19.0001 20.5777C18.215 21.3184 17.6684 21.6398 17.1839 21.8014C16.6157 21.9908 16.0357 22 15.0003 22H11V24L15.0816 24C16.0167 24.0003 16.911 24.0005 17.8164 23.6987C18.7737 23.3796 19.6532 22.761 20.7071 21.7071L20.9999 21.4143L21.0001 20.4698C23.7542 18.211 25.4853 17.412 26.551 17.2215C26.9035 17.1585 27.1747 17.1637 27.386 17.2001L20.2932 24.2929C19.2395 25.3465 18.9135 25.6415 18.4339 25.8013C18.1838 25.8847 17.8497 25.9408 17.2913 25.9702C16.7299 25.9997 16.0107 26 15 26H10.5858L8.58582 28H8.41424L4.41424 24L7.70714 20.7071C8.2122 20.2021 8.57307 19.8414 8.85874 19.5745C9.14812 19.3042 9.31542 19.1734 9.43053 19.103C9.55683 19.0257 9.59838 19.0031 10.1378 19.0003L13.8686 20Z" fill="#000000" class="bmwfcol"/><title>dollar_symbol_on_hand_rg_48</title></svg>