<svg width="48" height="48" viewBox="0 0 32 32" xmlns="http://www.w3.org/2000/svg"><path d="M11.5 16L12 15.5V15H12.5L14.5 13H12V5H15V12.5L17 10.5V5C17 4.48408 16.8378 3.95856 16.4396 3.56039C16.0414 3.16222 15.5159 3 15 3H12V2H6V3H3C2.48408 3 1.95857 3.16222 1.5604 3.56039C1.16222 3.95856 1 4.48408 1 5V13C1 13.5159 1.16222 14.0414 1.5604 14.4396C1.95857 14.8378 2.48408 15 3 15H6V16H11.5ZM10 8V10H8V8H10ZM10 6H8V4H10V6ZM6 5V13H3L3 5L6 5ZM8 12H10V14H8V12Z" fill="#000000" class="bmwfcol"/><path d="M18.2546 11.8348L20.0043 13.5846V13.9988C20.0043 15.6259 19.7296 16.8457 19.1452 17.9927C19.1269 18.0286 19.1083 18.0644 19.0894 18.1002C20.8469 18.3168 23.0365 18.9022 27.2186 20.0228L30.5031 20.6019C30.5028 21.0947 30.4666 21.6026 30.5146 22.0936C30.6686 22.265 30.8391 22.4229 31.002 22.5858C31.002 24.1829 30.7302 25.7058 30.1377 27.1951L27.737 27.8383C27.2114 29.1073 25.9609 30 24.502 30C23.1059 30 21.9008 29.1827 21.339 28.0004H10.6649C10.1031 29.1827 8.89799 30 7.50195 30C6.04316 30 4.79281 29.1075 4.26714 27.8388L1.00195 26.9639V22.8599C2.42699 22.1954 3.85399 21.5167 5.38607 21.1345C6.52122 20.8513 7.75424 20.6978 9.55405 20.5354L18.2546 11.8348ZM27.9148 25.7201L28.6296 25.5286C28.836 24.8813 28.962 24.1678 28.9939 23.3939C28.8466 23.2223 28.6993 23.0071 28.6122 22.7351C28.5625 22.58 28.5373 22.4268 28.5235 22.2837L26.9146 22C25.4577 22.0004 24.8002 22.0135 23.8961 22.3216C23.1199 22.5861 22.1619 23.0698 20.5139 24H16.5L18 23.134C19.9495 22.0084 21.2646 21.2717 22.3153 20.8012C20.1284 20.2526 18.9409 20.0358 17.8032 20.0041C17.4842 20.4076 17.1378 20.8208 16.7704 21.2586C15.7272 22.5019 15.3866 22.9334 15.209 23.4999C15.0508 24.0048 15.0144 24.6398 15.0065 26.0004H21.0373C21.2798 24.3041 22.7386 23 24.502 23C26.1669 23 27.5603 24.1625 27.9148 25.7201ZM13.0053 26.0004C13.0111 24.6403 13.0501 23.7008 13.3006 22.9017C13.6564 21.7666 14.4889 20.8657 15.2383 19.9731C16.2561 18.7601 16.9247 17.9453 17.3632 17.0847C17.6736 16.4754 17.878 15.8207 17.9616 14.9563L10.454 22.4638C8.92195 22.5978 7.3669 22.7017 5.87018 23.0751C4.98086 23.2969 4.16575 23.6095 3.00195 24.1374V25.4292L4.08907 25.7205C4.44337 24.1627 5.83688 23 7.50195 23C9.26534 23 10.7241 24.3041 10.9666 26.0004H13.0053ZM6.00195 26.5C6.00195 27.3284 6.67353 28 7.50195 28C8.33038 28 9.00195 27.3284 9.00195 26.5C9.00195 25.6716 8.33038 25 7.50195 25C6.67353 25 6.00195 25.6716 6.00195 26.5ZM23.002 26.5C23.002 27.3284 23.6735 28 24.502 28C25.3304 28 26.002 27.3284 26.002 26.5C26.002 25.6716 25.3304 25 24.502 25C23.6735 25 23.002 25.6716 23.002 26.5Z" fill="#000000" class="bmwfcol"/><title>door-hinge_rg_48</title></svg>