<svg width="48" height="48" viewBox="0 0 32 32" xmlns="http://www.w3.org/2000/svg"><path d="M23.2275 3.99561L23.058 3.99561C18.3449 3.99546 15.2555 3.99537 12.3765 5.02494C9.43999 6.07508 6.80796 8.15746 2.80341 12.0456C2.54124 12.3002 2.27227 12.5942 2.12667 13.0137C1.99973 13.3795 1.99988 13.7634 2.00001 14.0715L2.00002 24.9031C2.00002 25.5541 2.53701 25.9998 3.10002 25.9998H14.0024C14.0008 25.9524 14 25.9048 14 25.8571V23.9998H4.00002V15H16C16 14.3169 16.0796 13.6442 16.2449 13H4.6943C8.39203 9.45066 10.6617 7.7622 13.05 6.90814C15.5276 6.0221 18.2169 5.99621 23 5.99562V8.00002C23.675 8.00002 24.3491 8.07871 25 8.2463V4.01131L24.0114 4.00004C23.7536 3.9971 23.4924 3.99561 23.2275 3.99561Z" fill="#000000" class="bmwfcol"/><path d="M21.5 22.5C21.5 21.6716 22.1716 21 23 21C23.8284 21 24.5 21.6716 24.5 22.5C24.5 23.3284 23.8284 24 23 24C22.1716 24 21.5 23.3284 21.5 22.5Z" fill="#000000" class="bmwfcol"/><path d="M18 15V17.0683C17.5804 17.1455 17.1884 17.2937 16.8555 17.5398C16.2727 17.9707 16 18.6061 16 19.2857V25.7143C16 26.3939 16.2727 27.0293 16.8555 27.4602C17.3937 27.858 18.0861 28 18.8 28L27.2 28C27.9139 28 28.6063 27.858 29.1445 27.4602C29.7273 27.0293 30 26.3939 30 25.7143V19.2857C30 18.6061 29.7273 17.9707 29.1445 17.5398C28.8115 17.2937 28.4196 17.1455 28 17.0683V15C28 13.5234 27.5261 12.2471 26.5994 11.3403C25.6762 10.4369 24.4058 10 23 10C21.5942 10 20.3238 10.4369 19.4006 11.3403C18.4739 12.2471 18 13.5234 18 15ZM20.7994 12.7697C21.2762 12.3031 22.0058 12 23 12C23.9942 12 24.7238 12.3031 25.2006 12.7697C25.6739 13.2329 26 13.9566 26 15V17L20 17V15C20 13.9566 20.3261 13.2329 20.7994 12.7697ZM27.2 19C27.686 19 27.8936 19.1023 27.9555 19.1481C27.9784 19.165 27.9828 19.1745 27.9842 19.1776C27.9867 19.1829 28 19.2129 28 19.2857V25.7143C28 25.7871 27.9866 25.8175 27.984 25.8228C27.9826 25.8259 27.9784 25.835 27.9555 25.8519C27.8936 25.8977 27.686 26 27.2 26L18.8 26C18.3139 26 18.1063 25.8977 18.0445 25.8519C18.0216 25.835 18.0172 25.8255 18.0158 25.8224C18.0133 25.8171 18 25.7871 18 25.7143V19.2857C18 19.2129 18.0134 19.1825 18.016 19.1772C18.0174 19.1741 18.0216 19.165 18.0445 19.148C18.1063 19.1023 18.3139 19 18.8 19L27.2 19Z" fill="#000000" class="bmwfcol"/><title>door_and_lock_rg_48</title></svg>