<svg width="48" height="48" viewBox="0 0 32 32" xmlns="http://www.w3.org/2000/svg"><path d="M22 10.5859L17 15.5859V4H15V15.586L10 10.586V13.4144L16 19.4144L22 13.4144V10.5859Z" fill="#000000" class="bmwfcol"/><path d="M26 17V25C26 25.3106 25.896 25.4943 25.6821 25.6419C25.4158 25.8256 24.8971 26 24 26H8C7.10291 26 6.58419 25.8256 6.31792 25.6419C6.10397 25.4943 6 25.3106 6 25V17H4V25C4 25.9294 4.39603 26.7457 5.18208 27.2881C5.91581 27.7944 6.89709 28 8 28H24C25.1029 28 26.0842 27.7944 26.8179 27.2881C27.604 26.7457 28 25.9294 28 25V17H26Z" fill="#000000" class="bmwfcol"/><title>download_rg_48</title></svg>