<svg width="48" height="48" viewBox="0 0 32 32" xmlns="http://www.w3.org/2000/svg"><path d="M8.04289 3.04289C8.79657 2.28921 9.84586 2 11 2H21C22.1541 2 23.2034 2.28921 23.9571 3.04289C24.7108 3.79657 25 4.84586 25 6V26C25 27.1541 24.7108 28.2034 23.9571 28.9571C23.2034 29.7108 22.1541 30 21 30H11C9.84586 30 8.79657 29.7108 8.04289 28.9571C7.28921 28.2034 7 27.1541 7 26V6C7 4.84586 7.28921 3.79657 8.04289 3.04289ZM9.45711 4.45711C9.21079 4.70343 9 5.15414 9 6H23C23 5.15414 22.7892 4.70343 22.5429 4.45711C22.2966 4.21079 21.8459 4 21 4H11C10.1541 4 9.70343 4.21079 9.45711 4.45711ZM23 8H9V24H23V8ZM9.45711 27.5429C9.70343 27.7892 10.1541 28 11 28H21C21.8459 28 22.2966 27.7892 22.5429 27.5429C22.7892 27.2966 23 26.8459 23 26H9C9 26.8459 9.21079 27.2966 9.45711 27.5429Z" fill="#000000" class="bmwfcol"/><path d="M15.0001 18.7617L11.0001 14.7617V17.2366L16.0009 22.2375L21.0001 17.2383V14.7634L17.0001 18.7634V10H15.0001V18.7617Z" fill="#000000" class="bmwfcol"/><title>download-completed_rg_48</title></svg>