<svg width="48" height="48" viewBox="0 0 32 32" xmlns="http://www.w3.org/2000/svg"><path d="M14.875 7H18V9H16.6914L21.5082 26.9762L21.5493 27H24V29H4V27H6.26169L11.0848 9H10V7H13.125V3H14.875V7ZM10.5678 18.0771L15.9878 14.9478L12.0201 12.6571L10.5678 18.0771ZM10.1811 20.4365L19.2424 25.6681L16.8144 16.6068L10.1811 20.4365ZM15.7627 12.6817L14.7762 9H13L12.5158 10.8071L15.7627 12.6817ZM8.17695 27H17.8493L9.4728 22.1638L8.17695 27Z" fill="#000000" class="bmwfcol"/><path d="M25 20C24.1754 20 23.4005 19.7424 22.8299 19.1726C22.2591 18.6026 22 17.8274 22 17C22 16.4792 22.1637 16.017 22.3548 15.6321C22.5436 15.2521 22.7909 14.8867 23.0103 14.568L23.0556 14.5022C23.5093 13.8435 23.8697 13.3202 24.0266 12.7393L24.2262 12H25.7738L25.9734 12.7393C26.1303 13.3202 26.4907 13.8435 26.9444 14.5022L26.9897 14.568C27.2091 14.8867 27.4564 15.2521 27.6452 15.6321C27.8363 16.017 28 16.4792 28 17C28 17.8274 27.7409 18.6026 27.1701 19.1726C26.5995 19.7424 25.8246 20 25 20ZM24 17C24 17.4126 24.1229 17.6374 24.2431 17.7574C24.3635 17.8776 24.5886 18 25 18C25.4114 18 25.6365 17.8776 25.7569 17.7574C25.8771 17.6374 26 17.4126 26 17C26 16.9008 25.9687 16.753 25.8538 16.5216C25.7366 16.2854 25.5669 16.0283 25.3423 15.702C25.312 15.6581 25.2807 15.6128 25.2485 15.5663L25.2476 15.565C25.1692 15.4519 25.0856 15.3312 25 15.2037C24.9144 15.3312 24.8309 15.4517 24.7526 15.5647C24.7201 15.6117 24.6882 15.6577 24.6577 15.702C24.4331 16.0283 24.2634 16.2854 24.1462 16.5216C24.0313 16.753 24 16.9008 24 17Z" fill="#000000" class="bmwfcol"/><title>drilltower_with_oil_drop_rg_48</title></svg>