<svg width="48" height="48" viewBox="0 0 32 32" xmlns="http://www.w3.org/2000/svg"><path d="M26.5 15H22.5V13L26.5 13V15Z" fill="#000000" class="bmwfcol"/><path d="M22.5 19H26.5V17H22.5V19Z" fill="#000000" class="bmwfcol"/><path d="M13.5 11C12.5069 11 11.8601 11.0152 11.3715 11.0759C10.5624 11.1764 9.80986 11.4826 9.22778 12.0612C8.86164 12.4251 8.55103 12.8503 8.29035 13.258C7.70265 13.0548 6.97734 13 6 13V15C6.37247 15 6.66708 15.0103 6.90149 15.0274C6.43276 15.542 6 16.1608 6 16.8845V22H11V21H16V22H21V16.8845C21 16.1608 20.5672 15.542 20.0985 15.0274C20.3329 15.0103 20.6275 15 21 15V13C20.0227 13 19.2973 13.0548 18.7097 13.258C18.449 12.8503 18.1384 12.4251 17.7722 12.0612C17.1901 11.4826 16.4376 11.1764 15.6285 11.0759C15.1399 11.0152 14.4931 11 13.5 11ZM16.79 13.9907C15.9902 13.9872 14.9192 13.9998 13.5006 13.9998C12.0813 13.9998 11.0099 13.9872 10.21 13.9907C10.3554 13.7908 10.5015 13.615 10.6377 13.4796C10.9041 13.2149 11.2486 13.1065 11.618 13.0607C11.9658 13.0175 12.4931 13 13.5 13C14.5069 13 15.0342 13.0175 15.382 13.0607C15.7514 13.1065 16.0959 13.2149 16.3623 13.4796C16.4985 13.615 16.6446 13.7908 16.79 13.9907ZM8.65956 16.0847C8.70827 16.0703 8.90002 16.0228 9.44032 16.0035C9.94153 15.9856 10.616 15.989 11.5716 15.9938C12.1163 15.9966 12.7525 15.9998 13.5006 15.9998C14.2487 15.9998 14.8859 15.9966 15.4305 15.9938C16.3861 15.989 17.0597 15.9856 17.5609 16.0035C18.0949 16.0226 18.2884 16.0692 18.3399 16.0842C18.5068 16.249 18.6491 16.3999 18.7651 16.5414C18.9441 16.7597 18.99 16.8761 19 16.9016V20H18V19H9V20H8V16.9016C8.01 16.8761 8.05589 16.7597 8.23489 16.5414C8.35077 16.4 8.49288 16.2493 8.65956 16.0847Z" fill="#000000" class="bmwfcol"/><path d="M2.56039 6.56039C2.95856 6.16222 3.48408 6 4 6H28C28.5159 6 29.0414 6.16222 29.4396 6.56039C29.8378 6.95856 30 7.48408 30 8V24C30 24.5159 29.8378 25.0414 29.4396 25.4396C29.0414 25.8378 28.5159 26 28 26H4C3.48408 26 2.95856 25.8378 2.56039 25.4396C2.16222 25.0414 2 24.5159 2 24V8C2 7.48408 2.16222 6.95856 2.56039 6.56039ZM4 8V24H28V8H4Z" fill="#000000" class="bmwfcol"/><title>driving-license_rg_48</title></svg>