<svg width="48" height="48" viewBox="0 0 32 32" xmlns="http://www.w3.org/2000/svg"><path d="M16.0002 30.0001C18.3416 30.0001 20.4867 29.556 22.3588 28.7174L21.4634 26.9265C19.8838 27.6204 18.0494 28.0001 16.0002 28.0001C13.951 28.0001 12.1166 27.6204 10.537 26.9265L9.6416 28.7174C11.5137 29.556 13.6588 30.0001 16.0002 30.0001Z" fill="#000000" class="bmwfcol"/><path d="M16.0002 26.5001C17.7504 26.5001 19.3598 26.1669 20.7674 25.5345L19.872 23.7437C18.7569 24.2314 17.4581 24.5001 16.0002 24.5001C14.5424 24.5001 13.2436 24.2314 12.1285 23.7437L11.233 25.5345C12.6406 26.1669 14.25 26.5001 16.0002 26.5001Z" fill="#000000" class="bmwfcol"/><path d="M12.992 14.8877H15.4686L16.0002 15.1535L16.5318 14.8877H19.0083L19.9252 15.8045L19.9252 18.1352L18.8328 19.9252H16.1795L16.0002 19.7458L15.8208 19.9252H13.2063L12.0752 18.1441V15.8045L12.992 14.8877ZM16.9458 18.0752H17.7945L18.0752 17.6152V16.7377H16.9686L16.9252 16.7594V18.0545L16.9458 18.0752ZM15.0752 16.7594L15.0318 16.7377H13.9252V17.6063L14.223 18.0752H15.0545L15.0752 18.0545V16.7594Z" fill="#000000" class="bmwfcol"/><path d="M16.0002 9.0752C14.5583 9.0752 13.714 9.09315 13.1307 9.16106C12.4822 9.23656 12.1355 9.37721 11.7152 9.56165C11.3128 9.73831 10.9798 10.0533 10.7275 10.3398C10.4621 10.6412 10.217 10.9917 10.0041 11.331C9.87614 11.535 9.75545 11.7421 9.64473 11.9421C9.37375 11.8285 9.08968 11.77 8.79138 11.7387C8.396 11.6972 7.90225 11.6983 7.32292 11.6997C7.21806 11.6999 7.11039 11.7001 7 11.7001V13.5501C7.12087 13.5501 7.23396 13.55 7.34005 13.5498H7.34346L7.3473 13.5498C7.87743 13.549 8.23205 13.5485 8.50789 13.5703C8.25904 13.8145 8.02392 14.0612 7.82337 14.3058C7.46576 14.742 7.0752 15.337 7.0752 16.0323V22.9252H11.9252V22.052C14.7675 22.2263 17.2328 22.2263 20.0752 22.052V22.9252H24.9252V16.0323C24.9252 15.337 24.5346 14.742 24.177 14.3058C23.9764 14.0612 23.7413 13.8145 23.4924 13.5703C23.7682 13.5485 24.1227 13.549 24.6523 13.5498C24.7603 13.55 24.8761 13.5501 24.9995 13.5501V11.7001C24.8892 11.7001 24.7816 11.6999 24.6767 11.6997C24.0974 11.6983 23.6034 11.6972 23.208 11.7387C22.91 11.77 22.6261 11.8284 22.3553 11.9418C22.2446 11.7421 22.1241 11.5353 21.9962 11.3315C21.7834 10.9924 21.5383 10.642 21.273 10.3406C21.0207 10.0541 20.6881 9.73935 20.2865 9.56226L20.2854 9.56175C19.3258 9.14018 18.6331 9.0752 16.0002 9.0752ZM20.5207 12.4636C19.7785 12.4438 18.8071 12.4458 17.5463 12.4483C17.0728 12.4493 16.5583 12.4503 15.9995 12.4503C15.4406 12.4503 14.9258 12.4493 14.4521 12.4483C13.192 12.4458 12.2218 12.4439 11.4794 12.4636C11.5096 12.4135 11.5402 12.3636 11.5713 12.3141C11.7541 12.0227 11.9399 11.7623 12.1159 11.5624C12.3049 11.3478 12.4238 11.271 12.4589 11.2556C12.7954 11.1079 12.9523 11.0443 13.3446 10.9986C13.8022 10.9454 14.536 10.9252 16.0002 10.9252C18.6782 10.9252 18.9885 11.0127 19.5404 11.2551C19.5765 11.2712 19.6957 11.3487 19.8844 11.563C20.0605 11.7631 20.2464 12.0236 20.4292 12.3148C20.4601 12.3642 20.4906 12.4138 20.5207 12.4636ZM10.3264 14.3964C10.5176 14.3665 10.7803 14.3425 11.1466 14.3262C11.8841 14.2933 12.9147 14.2954 14.4057 14.2983C14.8871 14.2993 15.4166 14.3003 15.9995 14.3003C16.5826 14.3003 17.112 14.2993 17.5933 14.2983C19.0841 14.2954 20.1142 14.2933 20.8512 14.3262C21.2198 14.3426 21.4834 14.3668 21.6747 14.397C22.0012 14.6986 22.2845 14.9681 22.5152 15.2158C21.9381 15.3184 21.2995 15.3885 20.5 15.4493V17.3045C21.4957 17.2318 22.3078 17.1436 23.0752 16.9929V21.0752H21.9252V20.0678L20.9329 20.1401C17.411 20.3969 14.5894 20.3969 11.0674 20.1401L10.0752 20.0678V21.0752H8.9252L8.9252 16.9928C9.69245 17.1434 10.5045 17.2316 11.5 17.3043V15.4491C10.7007 15.3883 10.0623 15.3182 9.48534 15.2156C9.71619 14.9678 9.99962 14.6982 10.3264 14.3964Z" fill="#000000" class="bmwfcol"/><path d="M20.7672 6.46597C19.3594 5.83334 17.7497 5.5 15.9992 5.5C14.2494 5.5 12.6403 5.83308 11.2328 6.46525L12.1283 8.25614C13.2432 7.76864 14.5417 7.5 15.9992 7.5C17.4574 7.5 18.7565 7.7689 19.8718 8.25684L20.7672 6.46597Z" fill="#000000" class="bmwfcol"/><path d="M22.3588 3.28278C20.4867 2.44417 18.3416 2 16.0002 2C13.6588 2 11.5137 2.44417 9.6416 3.28278L10.537 5.07365C12.1166 4.37974 13.951 4 16.0002 4C18.0494 4 19.8838 4.37974 21.4634 5.07365L22.3588 3.28278Z" fill="#000000" class="bmwfcol"/><title>driving_assistant_plus_rg_48</title></svg>