<svg width="48" height="48" viewBox="0 0 32 32" xmlns="http://www.w3.org/2000/svg"><path d="M7.5 21C7.5 19.067 9.067 17.5 11 17.5C12.933 17.5 14.5 19.067 14.5 21C14.5 22.933 12.933 24.5 11 24.5C9.067 24.5 7.5 22.933 7.5 21ZM11 19.5C10.1716 19.5 9.5 20.1716 9.5 21C9.5 21.8284 10.1716 22.5 11 22.5C11.8284 22.5 12.5 21.8284 12.5 21C12.5 20.1716 11.8284 19.5 11 19.5Z" fill="#000000" class="bmwfcol"/><path d="M18.322 26.2345C16.6892 28.5144 14.0181 30 11 30C6.02944 30 2 25.9706 2 21C2 19.8455 2.21738 18.7418 2.61343 17.7275L7.22753 4.66687C7.77659 3.11317 9.2583 2 11 2H24.0039C27.3158 2.00211 30 4.68759 30 8C30 9.30145 29.5873 10.5073 28.8833 11.4904L18.322 26.2345ZM20 8C20 10.2091 21.7909 12 24 12C26.2091 12 28 10.2091 28 8C28 5.79086 26.2091 4 24 4C21.7909 4 20 5.79086 20 8ZM19.5278 4H14.4649C14.8052 4.58835 15 5.27143 15 6C15 8.20914 13.2091 10 11 10C9.78309 10 8.6931 9.45658 7.95946 8.59917L6.28792 13.3306C7.65847 12.4868 9.27239 12 11 12C15.796 12 19.7158 15.7514 19.9852 20.4799L24.651 13.9651C24.4372 13.9882 24.22 14 24 14C20.6863 14 18 11.3137 18 8C18 6.46329 18.5777 5.06151 19.5278 4ZM4 21C4 24.866 7.13401 28 11 28C14.866 28 18 24.866 18 21C18 17.134 14.866 14 11 14C8.03734 14 5.50456 15.8405 4.48269 18.4405C4.17555 19.2631 4 20.1191 4 21ZM11 4C9.89543 4 9 4.89543 9 6C9 7.10457 9.89543 8 11 8C12.1046 8 13 7.10457 13 6C13 4.89543 12.1046 4 11 4Z" fill="#000000" class="bmwfcol"/><title>drive-belt_rg_48</title></svg>