<svg width="48" height="48" viewBox="0 0 32 32" xmlns="http://www.w3.org/2000/svg"><path d="M10.9429 4.94289C12.2057 3.68011 13.9728 3 16 3C18.0272 3 19.7943 3.68011 21.0571 4.94289C22.3199 6.20567 23 7.97275 23 10C23 12.0272 22.3199 13.7943 21.0571 15.0571C19.7943 16.3199 18.0272 17 16 17C13.9728 17 12.2057 16.3199 10.9429 15.0571C9.68011 13.7943 9 12.0272 9 10C9 7.97275 9.68011 6.20567 10.9429 4.94289ZM12.3571 6.35711C11.7064 7.00779 11.2474 7.8975 11.0752 9H12.4903C12.546 8.87626 12.6093 8.75294 12.6801 8.63043C13.0618 7.96976 13.5032 7.4644 14.179 7.20685C14.7267 6.99815 15.3478 6.99905 15.8992 6.99986L16 6.99995L16.1007 6.99986C16.6521 6.99905 17.2732 6.99815 17.8209 7.20685C18.4967 7.4644 18.9381 7.96976 19.3198 8.63043C19.3906 8.75294 19.4539 8.87626 19.5096 9H20.9248C20.7526 7.8975 20.2936 7.00779 19.6429 6.35711C18.8057 5.51989 17.5728 5 16 5C14.4272 5 13.1943 5.51989 12.3571 6.35711ZM20.9248 11H19.7238C19.6709 11.2024 19.5934 11.3999 19.4907 11.5905C19.0294 12.4468 18.1624 12.9713 17.2411 13.2C17.159 13.2203 17.0788 13.2396 17 13.2574V14.9248C18.1025 14.7526 18.9922 14.2936 19.6429 13.6429C20.2936 12.9922 20.7526 12.1025 20.9248 11ZM12.3571 13.6429C13.0078 14.2936 13.8975 14.7526 15 14.9248V13.2574C14.9212 13.2396 14.8411 13.2203 14.7591 13.2C13.8377 12.9713 12.9708 12.4468 12.5094 11.5906C12.4067 11.4 12.3291 11.2025 12.2762 11H11.0752C11.2474 12.1025 11.7064 12.9922 12.3571 13.6429ZM14.8912 9.07575C14.8253 9.10089 14.6834 9.1609 14.4118 9.63098C14.1078 10.1572 14.1762 10.4678 14.27 10.6419C14.3884 10.8615 14.69 11.1221 15.2408 11.2589C15.6415 11.3583 15.8355 11.386 16 11.386C16.1646 11.386 16.3586 11.3583 16.7593 11.2589C17.3101 11.1221 17.6116 10.8616 17.73 10.6419C17.8237 10.4679 17.8922 10.1573 17.5881 9.63098C17.3165 9.1609 17.1746 9.10089 17.1087 9.07575C16.9481 9.01457 16.7118 8.99995 16 8.99995C15.2881 8.99995 15.0518 9.01457 14.8912 9.07575Z" fill="#000000" class="bmwfcol"/><path d="M9.99999 30H12V29.462L14.7247 19.2931L13.7588 19.0342C12.4903 18.6943 11.3716 19.1045 10.4431 19.9692C9.64708 20.7105 8.95054 21.8146 8.29604 23.1535L7 23.5008V25.5713L9.70923 24.8454L9.9063 24.4228C10.5918 22.9528 11.2178 21.9807 11.8061 21.4328C11.9275 21.3198 12.0434 21.2278 12.1555 21.1543L9.99999 29.1986V30Z" fill="#000000" class="bmwfcol"/><path d="M6.25891 12.0342L5.29299 11.7754L2.86497 20.8367C2.70613 21.4279 2.57855 21.9028 2.59092 22.4251C2.60273 22.9239 2.74243 23.4432 2.93213 24.1483L3.99961 28.1318V30.0001H5.99961V27.8685L4.89374 23.7413C4.66072 22.8737 4.59571 22.604 4.59036 22.3778C4.58561 22.1772 4.62664 21.9897 4.82243 21.2589L6.51642 14.9369C6.55503 15.0355 6.59264 15.1441 6.62857 15.2636C6.96781 16.3916 7.11647 18.3974 6.51188 21.8262L6.5034 21.8743L8.61785 21.3457C9.093 18.2329 8.97435 16.1191 8.54383 14.6876C8.06777 13.1046 7.17545 12.2798 6.25891 12.0342Z" fill="#000000" class="bmwfcol"/><path d="M22 30H20V29.462L17.2753 19.2931L18.2412 19.0342C19.5097 18.6943 20.6284 19.1045 21.5569 19.9692C22.3529 20.7105 23.0495 21.8146 23.704 23.1535L25 23.5008V25.5713L22.2908 24.8454L22.0937 24.4228C21.4082 22.9528 20.7822 21.9807 20.1939 21.4328C20.0725 21.3198 19.9566 21.2278 19.8445 21.1543L22 29.1986V30Z" fill="#000000" class="bmwfcol"/><path d="M25.741 12.0342L26.707 11.7754L29.135 20.8367C29.2938 21.4279 29.4214 21.9028 29.409 22.4251C29.3972 22.9239 29.2575 23.4432 29.0678 24.1483L28.0003 28.1318V30.0001H26.0003V27.8685L27.1062 23.7413C27.3392 22.8737 27.4042 22.604 27.4096 22.3778C27.4143 22.1772 27.3733 21.9897 27.1775 21.2589L25.4835 14.9369C25.4449 15.0355 25.4073 15.1441 25.3714 15.2636C25.0321 16.3916 24.8835 18.3974 25.4881 21.8262L25.4966 21.8743L23.3821 21.3457C22.907 18.2329 23.0256 16.1191 23.4561 14.6876C23.9322 13.1046 24.8245 12.2798 25.741 12.0342Z" fill="#000000" class="bmwfcol"/><title>driving-assistance_rg_48</title></svg>