<svg width="48" height="48" viewBox="0 0 32 32" xmlns="http://www.w3.org/2000/svg"><path d="M17.7738 4.39111C17.087 4.39111 16.5696 4.53741 16.1719 4.7722C15.7745 5.00682 15.514 5.31984 15.3256 5.62324C14.9302 6.26341 14.8208 7.08819 14.8208 8.08361C14.8208 9.04771 14.9564 9.85702 15.3117 10.4044C15.4882 10.676 15.7281 10.9786 16.1184 11.2099C16.5089 11.4413 17.029 11.5891 17.7483 11.5891C18.5158 11.5891 19.2351 11.448 19.8132 11.329L20.0128 11.2879V9.54272L19.7107 9.6071C19.1878 9.71853 18.491 9.85661 17.9693 9.85661C17.2812 9.85661 16.9841 9.72155 16.8261 9.44678C16.6597 9.15517 16.6128 8.68523 16.6128 8.05811C16.6128 7.37781 16.6663 6.93046 16.8159 6.63142C16.9053 6.45253 17.0195 6.33394 17.1792 6.25491C17.3459 6.17235 17.5814 6.12361 17.9268 6.12361C18.1775 6.12361 18.4335 6.15501 18.7395 6.2129C19.1016 6.28026 19.4207 6.34747 19.7055 6.41447L20.0128 6.48676V4.74198L19.8217 4.69565C19.5354 4.62625 19.3267 4.58285 18.9163 4.50588L18.914 4.50547C18.5234 4.43603 18.1592 4.39111 17.7738 4.39111Z" fill="#000000" class="bmwfcol"/><path d="M5.17855 4.53561H2.08105V11.4446H3.85605V9.24311H4.86064L6.22064 11.4446H8.28044L6.65039 8.82357C6.80601 8.66144 7.00364 8.44758 7.15387 8.27123L7.15469 8.27026C7.54876 7.80287 7.76606 7.35674 7.76606 6.69811C7.76606 6.05362 7.52366 5.4432 7.08447 5.0639L7.08286 5.06254C6.56198 4.62028 5.99215 4.53561 5.17855 4.53561ZM3.85605 7.54461V6.23411H5.02555C5.28944 6.23411 5.47269 6.24479 5.60496 6.26684C5.73387 6.28832 5.79811 6.31812 5.83626 6.34578C5.89262 6.3891 5.92231 6.43065 5.94082 6.47561C5.96114 6.52496 5.97405 6.5934 5.97405 6.69811C5.97405 6.92964 5.89515 7.07009 5.73205 7.27201L5.72998 7.27466C5.66617 7.35587 5.57503 7.4605 5.50029 7.54461H3.85605Z" fill="#000000" class="bmwfcol"/><path d="M8.85184 4.53561H13.8908V6.23411H10.6268V7.08561H13.7038V8.78411H10.6268V9.74611H14.0353V11.4446H8.85184V4.53561Z" fill="#000000" class="bmwfcol"/><path d="M4.76004 13.5H7.10477C6.71202 14.0305 6.47687 14.4818 6.32372 14.9412C6.01123 15.8787 6.00003 16.9433 6.00003 19C6.00003 21.0567 6.01123 22.1213 6.32372 23.0588C6.60153 23.8922 7.14914 24.6987 8.4178 26H22L22 10H24V13H24.7723L28.2364 11L30 11V23H28.2364L24.7723 21H24V28H7.58581L7.29292 27.7071C5.76961 26.1838 4.87829 25.047 4.42635 23.6912C3.99955 22.4108 3.99975 21.0135 4.00001 19.1419V18.8581C3.99975 16.9865 3.99955 15.5892 4.42635 14.3088C4.51869 14.0318 4.62937 13.7639 4.76004 13.5ZM24 15V19H25.3082L28 20.5541V13.4459L25.3082 15H24Z" fill="#000000" class="bmwfcol"/><title>drive-recorder_rg_48</title></svg>