<svg width="48" height="48" viewBox="0 0 32 32" xmlns="http://www.w3.org/2000/svg"><path d="M8.30283 5L9.00082 2.39508L7.06897 1.87744L4.99841 9.60485L6.93026 10.1225L7.76693 7H12.624C12.7742 7.57922 13.0606 8.0998 13.4804 8.51961C13.9002 8.93941 14.4208 9.22579 15 9.37604L15 22.624C14.4208 22.7742 13.9002 23.0606 13.4804 23.4804C13.0606 23.9002 12.7742 24.4208 12.624 25H8V22H6V30H8V27H12.624C12.7742 27.5792 13.0606 28.0998 13.4804 28.5196C14.1307 29.1699 15.0227 29.5 16 29.5C17.7045 29.5 18.9624 28.4301 19.3638 27H24V30H26V22H24V25H19.376C19.2258 24.4208 18.9394 23.9002 18.5196 23.4804C18.0998 23.0606 17.5792 22.7742 17 22.624L17 9.36806C18.1898 9.04032 19.0457 8.13324 19.3638 7H23.732L23.0341 9.60485L24.9659 10.1225L27.0365 2.39508L25.1046 1.87744L24.2679 5H19.376C19.2258 4.42078 18.9394 3.9002 18.5196 3.48039C17.8693 2.83011 16.9772 2.5 16 2.5C15.0227 2.5 14.1307 2.83011 13.4804 3.48039C13.0606 3.9002 12.7742 4.42078 12.624 5H8.30283ZM14.5 6C14.5 5.47725 14.6699 5.11933 14.8946 4.89461C15.1193 4.66989 15.4772 4.5 16 4.5C16.5227 4.5 16.8807 4.66989 17.1054 4.89461C17.3301 5.11933 17.5 5.47725 17.5 6C17.5 6.86028 16.9164 7.5 16 7.5C15.4772 7.5 15.1193 7.33011 14.8946 7.10539C14.6699 6.88067 14.5 6.52275 14.5 6ZM14.8946 24.8946C15.1193 24.6699 15.4772 24.5 16 24.5C16.5227 24.5 16.8807 24.6699 17.1054 24.8946C17.3301 25.1193 17.5 25.4772 17.5 26C17.5 26.8603 16.9164 27.5 16 27.5C15.4772 27.5 15.1193 27.3301 14.8946 27.1054C14.6699 26.8807 14.5 26.5228 14.5 26C14.5 25.4772 14.6699 25.1193 14.8946 24.8946Z" fill="#000000" class="bmwfcol"/><title>drivetrain-awd_rg_48</title></svg>