<svg width="48" height="48" viewBox="0 0 32 32" xmlns="http://www.w3.org/2000/svg"><path d="M16.0001 16C14.556 16 13.2814 15.5495 12.366 14.6341C11.4506 13.7187 11.0001 12.4441 11.0001 11C11.0001 9.44145 11.855 7.87888 12.6185 6.56298C12.729 6.37258 12.8385 6.18582 12.946 6.00235C13.6457 4.80921 14.2639 3.75494 14.5339 2.74234L14.7318 2H17.2684L17.4664 2.74234C17.7364 3.75494 18.3545 4.809 19.0541 6.00214C19.1617 6.18567 19.2712 6.37251 19.3818 6.56298C20.1452 7.87888 21.0001 9.44145 21.0001 11C21.0001 12.4441 20.5496 13.7187 19.6342 14.6341C18.7188 15.5495 17.4442 16 16.0001 16ZM13.0001 11C13.0001 12.0279 13.3136 12.7533 13.7802 13.2199C14.2468 13.6865 14.9722 14 16.0001 14C17.028 14 17.7534 13.6865 18.22 13.2199C18.6866 12.7533 19.0001 12.0279 19.0001 11C19.0001 10.0647 18.4606 8.96064 17.6518 7.56666C17.553 7.39631 17.4501 7.22158 17.3449 7.04311C16.886 6.26398 16.385 5.4135 16.0001 4.54675C15.6152 5.4135 15.1144 6.26378 14.6554 7.04291C14.5503 7.22144 14.4473 7.39625 14.3484 7.56666C13.5397 8.96064 13.0001 10.0647 13.0001 11Z" fill="#000000" class="bmwfcol"/><path d="M29.7074 16.2928C29.3997 15.9852 28.9704 15.6299 28.3684 15.4031C27.7594 15.1737 27.0435 15.1019 26.1993 15.2527C24.7373 15.514 22.8562 16.4492 20.3113 18.457C19.9403 18.1457 19.4743 18 19.0002 18L14.1321 18L10.4 17L10.1896 17C9.61222 16.9991 9.03833 16.9983 8.38671 17.3971C8.09329 17.5766 7.80632 17.8209 7.49357 18.113C7.18005 18.4059 6.79521 18.7908 6.30681 19.2792L1.58594 24L7.58594 30H9.41436L11.4144 28H15.0288C16.0044 28 16.7764 28 17.3965 27.9674C18.0256 27.9343 18.5666 27.8653 19.0665 27.6987C20.044 27.3729 20.7036 26.7124 21.5891 25.8256L30.4147 16.9999L29.7074 16.2928ZM13.8688 20L19.0001 20L19.0002 20.5777C18.2151 21.3184 17.6686 21.6398 17.184 21.8014C16.6158 21.9908 16.0358 22 15.0004 22H11.0002V24L15.0818 24C16.0168 24.0003 16.9111 24.0005 17.8165 23.6987C18.7738 23.3796 19.6534 22.761 20.7073 21.7071L21.0001 21.4143L21.0003 20.4698C23.7543 18.211 25.4854 17.412 26.5511 17.2215C26.9036 17.1585 27.1749 17.1637 27.3861 17.2001L20.2933 24.2929C19.2397 25.3465 18.9136 25.6415 18.4341 25.8013C18.1839 25.8847 17.8499 25.9408 17.2914 25.9702C16.73 25.9997 16.0109 26 15.0002 26H10.5859L8.58594 28H8.41436L4.41436 24L7.70726 20.7071C8.21232 20.2021 8.57319 19.8414 8.85887 19.5745C9.14825 19.3042 9.31554 19.1734 9.43065 19.103C9.55695 19.0257 9.5985 19.0031 10.1379 19.0003L13.8688 20Z" fill="#000000" class="bmwfcol"/><title>drop_on_hand_rg_48</title></svg>