<svg width="48" height="48" viewBox="0 0 32 32" xmlns="http://www.w3.org/2000/svg"><path d="M13 30.7276C10.4854 30.1986 8.49194 29.0561 7.02644 27.8206C4.36176 25.4265 3.271 21.8445 3.271 16.641C3.271 12.2728 4.33305 8.50673 6.44662 6.19262C7.34118 5.23935 8.41242 4.41327 9.95779 3.84882C11.48 3.29282 13.4192 3 16.047 3C19.6974 3 24.4137 4.61495 27.3433 5.68589L28 5.92593V15.648C28 16.4999 27.9676 17.4537 27.8031 18.3694C27.6393 19.2813 27.333 20.2243 26.7363 21.0072C25.5084 22.6181 23.6162 23.4452 21.7725 23.7145C21.5648 23.7448 21.3524 23.7755 21.1386 23.8041L20.006 23.9557V21.794C19.6018 22.1223 19.2107 22.4312 18.9136 22.651C17.6645 23.5748 16.1306 24.312 14.419 24.312C12.9954 24.312 11.2286 23.6814 10.5333 22.0753C9.76435 20.2992 9.59494 18.423 9.59494 16.641C9.59494 14.9124 9.78315 12.9767 10.7205 11.2869C11.1387 10.533 11.7088 9.91528 12.6227 9.51841C13.4846 9.14417 14.5777 9 15.9829 9C17.8843 9 19.7014 9.52565 21.3638 10.1627L22.006 10.4088V21.6403C23.2901 21.3585 24.4224 20.7437 25.1457 19.7948C25.4778 19.359 25.7011 18.7591 25.8346 18.0158C25.9674 17.2765 26 16.4632 26 15.648V7.32657C23.0529 6.27077 19.0551 5 16.047 5C13.5528 5 11.8685 5.28018 10.644 5.72743C9.44518 6.16529 8.63814 6.7809 7.91888 7.54632C6.28309 9.34111 5.271 12.5229 5.271 16.641C5.271 21.6061 6.29216 24.4655 8.32777 26.3017C9.49138 27.28 11.0472 28.1923 13 28.6761V30.7276ZM20.006 11.7941C18.6549 11.3197 17.3164 11 15.9829 11C14.6743 11 13.9065 11.1414 13.4193 11.3529C12.9843 11.5418 12.7173 11.8101 12.4694 12.257C11.7824 13.4956 11.5949 15.0153 11.5949 16.641C11.5949 18.3157 11.7591 19.8727 12.3686 21.2807C12.6213 21.8644 13.4189 22.312 14.419 22.312C15.5492 22.312 16.6716 21.8216 17.7243 21.043C18.3058 20.6129 19.3282 19.7711 20.006 19.1905V11.7941Z" fill="#000000" class="bmwfcol"/><title>e-mail_rg_48</title></svg>