<svg width="48" height="48" viewBox="0 0 32 32" xmlns="http://www.w3.org/2000/svg"><path d="M16 3C22.1472 3 27.2978 7.2666 28.6521 13H26.5859C26.5013 12.7008 26.4043 12.4068 26.2956 12.1185L25.4141 13H20.5774L19.4227 11C17.8331 10.9995 16.8506 10.9899 16.1789 10.8556C15.7497 10.7697 15.4004 10.628 15.0714 10.4003C14.9456 10.3132 14.8268 10.2155 14.7138 10.1141C13.1219 10.5526 12.3967 10.8103 11.9566 11.0875C11.5933 11.3162 11.4178 11.5552 11.0002 12.2694V13.5843C11.5904 14.167 11.9258 14.4587 12.3514 14.6521C12.8349 14.8719 13.5294 15 15.0001 15L15.7674 15.0001L17.8961 22.9445C17.9632 22.9193 18.01 22.8831 18.0709 22.8317C18.2834 22.6524 18.5575 22.3094 19 21.61V23.6439L18.9846 23.6694C18.7373 24.0817 18.552 24.4841 18.4132 24.8775C17.9903 25.0011 17.5849 25.0006 17.2132 25.0001L16.3763 25.0001L14.2294 16.9876C13.1015 16.9479 12.2571 16.8062 11.5237 16.4728C10.6692 16.0844 10.053 15.4677 9.3639 14.7779L9.00024 14.4141V11.7319L9.18479 11.4125C9.64405 10.6165 10.0394 9.93119 10.891 9.39502C11.6858 8.89451 12.8485 8.54268 14.7405 8.03424L15.2986 7.88428L15.7072 8.29287C15.9762 8.56195 16.0962 8.67719 16.2099 8.75591C16.2872 8.80942 16.3753 8.85523 16.5712 8.89441C17.0013 8.98045 17.6999 8.99661 19.1991 8.99945C19.222 8.85153 19.2311 8.73492 19.2305 8.6426C19.2299 8.54472 19.2181 8.49693 19.213 8.48069L19.2108 8.47443C19.2002 8.46325 19.1327 8.39998 18.8848 8.30472C18.6151 8.20111 18.2596 8.10468 17.7412 7.96579L14.0545 6.97793L13.4644 8.00001H11.155L12.5727 5.54442C8.17576 6.98483 5 11.1215 5 16C5 22.0751 9.92487 27 16 27C16.683 27 17.3514 26.9378 18 26.8186V28.8471C17.3481 28.9478 16.6801 29 16 29C8.8203 29 3 23.1797 3 16C3 8.8203 8.8203 3 16 3ZM16 5C15.6629 5 15.3294 5.01516 15 5.04484L15 5.16074L18.3009 6.0452C18.7679 6.1703 19.2238 6.29241 19.6022 6.4378C19.9924 6.58774 20.4271 6.80728 20.7528 7.20052C21.1016 7.62179 21.2272 8.11942 21.2304 8.62975C21.2328 9.00123 21.1711 9.40918 21.0688 9.85118L22.7766 12.8091L25.3627 10.223C23.4245 7.08845 19.9561 5 16 5Z" fill="#000000" class="bmwfcol"/><path d="M30 15H20V16C20 17.2712 20.0527 18.2516 20.7627 19.3125C21.2503 20.041 22.0428 20.7921 23.2259 21.8081C21.9886 23.0369 21.1813 23.8952 20.6997 24.6981C20.0559 25.7716 20 26.7223 20 28V29H30V28C30 26.7295 29.9497 25.7642 29.2379 24.7107C28.7513 23.9904 27.9558 23.2378 26.7645 22.2003C28.007 20.9671 28.8172 20.1067 29.3 19.302C29.9441 18.2284 30 17.2777 30 16V15ZM22.4149 25.7269C22.7735 25.129 23.4317 24.4217 24.7558 23.1083C26.4038 24.526 27.177 25.2327 27.5807 25.8303C27.8123 26.1731 27.9212 26.4753 27.9683 27H22.0303C22.0762 26.452 22.1837 26.1122 22.4149 25.7269ZM27.585 18.273C27.226 18.8713 26.5668 19.5793 25.24 20.8948C23.598 19.5082 22.8266 18.8004 22.4248 18.2C22.1899 17.8491 22.0794 17.5345 22.0319 17H27.9696C27.9238 17.548 27.8162 17.8877 27.585 18.273Z" fill="#000000" class="bmwfcol"/><title>earth_and_hourglass_rg_48</title></svg>