<svg width="48" height="48" viewBox="0 0 32 32" xmlns="http://www.w3.org/2000/svg"><path d="M21.4287 12.4287C21.668 12.1894 21.9257 11.9822 22.1969 11.8056L21.0687 9.85152C21.171 9.40941 21.2328 9.00137 21.2304 8.62981C21.2272 8.11948 21.1016 7.62185 20.7528 7.20058C20.4271 6.80734 19.9924 6.5878 19.6022 6.43786C19.2238 6.29247 18.7679 6.17036 18.3009 6.04526L15 5.1608L15 5.04484C15.3294 5.01516 15.6629 5 16 5C20.2747 5 23.9799 7.43832 25.8006 11H28.0037C26.0446 6.3021 21.4079 3 16 3C8.8203 3 3 8.8203 3 16C3 23.1797 8.8203 29 16 29C17.0325 29 18.037 28.8796 19 28.6521V26.5859C18.0463 26.8557 17.04 27 16 27C9.92487 27 5 22.0751 5 16C5 11.1219 8.17535 6.98536 12.5719 5.5447L11.1543 8H13.4637L14.0539 6.97783L17.7412 7.96585C18.2596 8.10474 18.6151 8.20117 18.8848 8.30478C19.1327 8.40004 19.2002 8.46331 19.2108 8.47449C19.2111 8.47511 19.2114 8.47587 19.2117 8.47677C19.2121 8.47787 19.2125 8.47919 19.213 8.48075C19.2181 8.49699 19.2299 8.54478 19.2305 8.64266C19.2311 8.73497 19.222 8.85157 19.1992 8.99948C17.6997 8.99664 17.0011 8.98048 16.5709 8.89443C16.3751 8.85526 16.2869 8.80945 16.2096 8.75593C16.0959 8.67722 15.976 8.56198 15.7069 8.29289L15.2983 7.8843L14.7403 8.03426C12.8483 8.5427 11.6856 8.89453 10.8907 9.39504C10.0392 9.93121 9.64381 10.6165 9.18455 11.4125C9.16785 11.4414 9.15106 11.4705 9.13417 11.4998L9 11.7319V14.4142L9.36365 14.7779C10.0528 15.4677 10.6689 16.0844 11.5235 16.4729C12.2568 16.8062 13.1012 16.9479 14.2292 16.9876L16.3761 25.0001L17.2129 25.0001C17.5992 25.0006 18.022 25.0012 18.4628 24.8624L17.9189 22.9692L17.9295 22.9302C17.9188 22.9353 17.9076 22.9401 17.8959 22.9445L15.7671 15.0001L14.9998 15.0001C13.5291 15 12.8346 14.8719 12.3511 14.6522C11.9256 14.4587 11.5902 14.1671 11 13.5844V12.2694C11.4176 11.5552 11.593 11.3163 11.9564 11.0875C12.3965 10.8103 13.1216 10.5526 14.7135 10.1141C14.8265 10.2155 14.9454 10.3132 15.0712 10.4003C15.4001 10.628 15.7495 10.7697 16.1786 10.8556C16.8504 10.99 17.8328 10.9995 19.4224 11L20.7455 13.2917C20.9347 12.9855 21.1617 12.6957 21.4287 12.4287Z" fill="#000000" class="bmwfcol"/><path d="M25 13C24.1728 13 23.4057 13.2801 22.8429 13.8429C22.2801 14.4057 22 15.1728 22 16V22.0298C21.0269 22.8534 20.5 24.0893 20.5 25.5C20.5 26.7772 20.9301 27.9193 21.7554 28.7446C22.5807 29.5699 23.7228 30 25 30C26.2772 30 27.4193 29.5699 28.2446 28.7446C29.0699 27.9193 29.5 26.7772 29.5 25.5C29.5 24.0893 28.9731 22.8534 28 22.0298V16C28 15.1728 27.7199 14.4057 27.1571 13.8429C26.5943 13.2801 25.8272 13 25 13ZM24 16C24 15.6272 24.1199 15.3943 24.2571 15.2571C24.3943 15.1199 24.6272 15 25 15C25.3728 15 25.6057 15.1199 25.7429 15.2571C25.8801 15.3943 26 15.6272 26 16V23.0871L26.4679 23.3812C27.0792 23.7653 27.5 24.4688 27.5 25.5C27.5 26.3228 27.2301 26.9307 26.8304 27.3304C26.4307 27.7301 25.8228 28 25 28C24.1772 28 23.5693 27.7301 23.1696 27.3304C22.7699 26.9307 22.5 26.3228 22.5 25.5C22.5 24.4688 22.9208 23.7653 23.5321 23.3812L24 23.0871V16Z" fill="#000000" class="bmwfcol"/><title>earth_and_thermometer_rg_48</title></svg>