<svg width="48" height="48" viewBox="0 0 32 32" xmlns="http://www.w3.org/2000/svg"><path d="M12.3514 14.6521C12.7091 14.8148 13.1823 14.9272 14 14.9747V16.9779C12.9855 16.9274 12.2065 16.7832 11.5237 16.4729C10.6692 16.0844 10.053 15.4677 9.3639 14.7779L9.00024 14.4142V11.7319L9.18479 11.4125C9.64405 10.6165 10.0394 9.93121 10.891 9.39504C11.6858 8.89453 12.8485 8.5427 14.7405 8.03426L15.2986 7.8843L15.7072 8.29289C15.9762 8.56198 16.0962 8.67722 16.2099 8.75593C16.2872 8.80944 16.3753 8.85526 16.5712 8.89443C17.0013 8.98047 17.6999 8.99663 19.1991 8.99948C19.222 8.85157 19.2311 8.73496 19.2305 8.64265C19.2299 8.54477 19.2181 8.49699 19.213 8.48074L19.2108 8.47449C19.2002 8.4633 19.1327 8.40003 18.8848 8.30477C18.6151 8.20116 18.2596 8.10473 17.7412 7.96584L14.0544 6.97797L13.4644 8H11.155L12.5727 5.54442C8.17575 6.98484 5 11.1216 5 16C5 22.0751 9.92487 27 16 27C17.2496 27 18.4506 26.7916 19.5701 26.4077C20.031 26.5782 20.509 26.7119 21 26.8087V28.0037C19.4608 28.6455 17.7718 29 16 29C8.8203 29 3 23.1797 3 16C3 8.8203 8.8203 3 16 3C23.1797 3 29 8.8203 29 16C29 16.3365 28.9872 16.67 28.9621 17H28C27.6459 17 27.2946 17.0227 26.9488 17.0684C26.9827 16.7168 27 16.3604 27 16C27 14.6337 26.7509 13.3256 26.2956 12.1185L25.0002 13.4139V15.268L24.3442 16.4043C23.8523 15.9331 23.3111 15.5314 22.7307 15.199L22.8456 15L22.3625 15C22.0876 14.8601 21.8049 14.7349 21.5152 14.6243L19.4227 11C17.8331 10.9995 16.8506 10.99 16.1789 10.8556C15.7497 10.7697 15.4004 10.628 15.0714 10.4003C14.9456 10.3132 14.8268 10.2155 14.7138 10.1141C13.1219 10.5526 12.3967 10.8103 11.9566 11.0875C11.5933 11.3163 11.4178 11.5552 11.0002 12.2694V13.5844C11.5904 14.1671 11.9258 14.4587 12.3514 14.6521ZM16 5C15.6629 5 15.3294 5.01516 15 5.04484L15 5.16079L18.3009 6.04526C18.7679 6.17035 19.2238 6.29246 19.6022 6.43785C19.9924 6.58779 20.4271 6.80733 20.7528 7.20057C21.1016 7.62184 21.2272 8.11947 21.2304 8.62981C21.2328 9.00127 21.1711 9.40922 21.0688 9.85121L22.7766 12.8091L25.3627 10.223C23.4245 7.08847 19.9561 5 16 5Z" fill="#000000" class="bmwfcol"/><path d="M18 16H16V18C16 20.0272 16.6801 21.7943 17.9429 23.0571C19.2057 24.3199 20.9728 25 23 25V28H25V26C26.4272 26 27.6943 25.5199 28.6071 24.6071C29.5199 23.6943 30 22.4272 30 21V19H28C26.6433 19 25.4313 19.4338 24.5308 20.2607C24.2028 19.3767 23.7072 18.593 23.0571 17.9429C21.7943 16.6801 20.0272 16 18 16ZM25 24C25 23.0272 25.3199 22.2943 25.8071 21.8071C26.2943 21.3199 27.0272 21 28 21C28 21.9728 27.6801 22.7057 27.1929 23.1929C26.7057 23.6801 25.9728 24 25 24ZM18 18C19.5728 18 20.8057 18.5199 21.6429 19.3571C22.4801 20.1943 23 21.4272 23 23C21.4272 23 20.1943 22.4801 19.3571 21.6429C18.5199 20.8057 18 19.5728 18 18Z" fill="#000000" class="bmwfcol"/><title>earth_and_plant_rg_48</title></svg>