<svg width="48" height="48" viewBox="0 0 32 32" xmlns="http://www.w3.org/2000/svg"><path d="M2 18H27.4142L31.4142 22L27.4142 26H2V18ZM4 20V24H12.5859L14.5859 22L12.5859 20H4ZM15.4143 20L17.4143 22L15.4143 24H19.5858L21.5858 22L19.5858 20H15.4143ZM26.5858 24L28.5858 22L26.5858 20H22.4142L24.4142 22L22.4142 24H26.5858Z" fill="#000000" class="bmwfcol"/><path d="M8.65934 14.4767H10.5664V12.0993H12.8377V10.2983H10.5664V7.92092H8.65934V10.2983H6.38809V12.0993H8.65934V14.4767Z" fill="#000000" class="bmwfcol"/><path d="M14.3502 15.4H16.2997V12.9619L18.2318 15.4H20.7192L18.1221 12.1594L20.5299 9.39617H18.078L16.2997 11.448V6.99756H14.3502V15.4Z" fill="#000000" class="bmwfcol"/><path d="M21.0996 15.4H23.0491V11.4021C23.1708 11.3481 23.3182 11.2862 23.4659 11.2331C23.6724 11.159 23.853 11.1122 23.9635 11.1122C24.0654 11.1122 24.1293 11.1134 24.1803 11.1262C24.2201 11.1361 24.2431 11.1509 24.2641 11.1824C24.2876 11.2177 24.3114 11.2936 24.3242 11.4345C24.3365 11.5695 24.3366 11.732 24.3366 11.9205V15.4H26.2862V11.4067C26.3856 11.3582 26.5174 11.2981 26.655 11.2445C26.8591 11.165 27.0455 11.1122 27.1581 11.1122C27.253 11.1122 27.3216 11.113 27.3798 11.1252C27.4307 11.1359 27.4599 11.1528 27.4817 11.1779C27.5131 11.2175 27.5419 11.2943 27.5578 11.4326C27.5734 11.5688 27.5737 11.7314 27.5737 11.9205V15.4H29.5233V11.8462C29.5233 10.7015 29.3761 10.1427 28.9679 9.72221C28.6099 9.35204 28.1356 9.21574 27.5827 9.21574C27.223 9.21574 26.8513 9.32106 26.5216 9.44964C26.2613 9.55117 26.0182 9.67094 25.8181 9.77409C25.7645 9.70958 25.7033 9.65001 25.6199 9.5805C25.3595 9.36967 24.9832 9.21574 24.4942 9.21574C24.182 9.21574 23.8072 9.32157 23.4934 9.43288C23.33 9.49084 23.1769 9.55261 23.0491 9.60699V9.39617H21.0996V15.4Z" fill="#000000" class="bmwfcol"/><title>eco-pro-mode-km_rg_48</title></svg>