<svg width="48" height="48" viewBox="0 0 32 32" xmlns="http://www.w3.org/2000/svg"><path d="M2 18H27.4142L31.4142 22L27.4142 26H2V18ZM4 20V24H12.5859L14.5859 22L12.5859 20H4ZM15.4143 20L17.4143 22L15.4143 24H19.5858L21.5858 22L19.5858 20H15.4143ZM26.5858 24L28.5858 22L26.5858 20H22.4142L24.4142 22L22.4142 24H26.5858Z" fill="#000000" class="bmwfcol"/><path d="M5.807 14.4767H7.71409V12.0993H9.98534V10.2983H7.71409V7.92092H5.807V10.2983H3.53574V12.0993H5.807V14.4767Z" fill="#000000" class="bmwfcol"/><path d="M11.4978 15.4H13.4474V11.4021C13.569 11.3481 13.7164 11.2862 13.8642 11.2331C14.0707 11.159 14.2512 11.1122 14.3618 11.1122C14.4636 11.1122 14.5275 11.1134 14.5786 11.1262C14.6183 11.1361 14.6413 11.1509 14.6623 11.1824C14.6859 11.2177 14.7096 11.2936 14.7224 11.4345C14.7347 11.5695 14.7349 11.732 14.7349 11.9205V15.4H16.6844V11.4067C16.7838 11.3582 16.9156 11.2981 17.0532 11.2445C17.2573 11.165 17.4437 11.1122 17.5564 11.1122C17.6512 11.1122 17.7198 11.113 17.778 11.1252C17.8289 11.1359 17.8582 11.1528 17.88 11.1779C17.9114 11.2175 17.9401 11.2943 17.956 11.4326C17.9717 11.5688 17.9719 11.7314 17.9719 11.9205V15.4H19.9215V11.8462C19.9215 10.7015 19.7743 10.1427 19.3662 9.72221C19.0082 9.35204 18.5338 9.21574 17.9809 9.21574C17.6213 9.21574 17.2495 9.32106 16.9199 9.44964C16.6596 9.55117 16.4164 9.67094 16.2163 9.77409C16.1627 9.70958 16.1015 9.65001 16.0181 9.5805C15.7577 9.36967 15.3814 9.21574 14.8924 9.21574C14.5802 9.21574 14.2054 9.32157 13.8916 9.43288C13.7282 9.49084 13.5751 9.55261 13.4474 9.60699V9.39617H11.4978V15.4Z" fill="#000000" class="bmwfcol"/><path d="M21.4188 15.4H23.3683V6.99756H21.4188V15.4Z" fill="#000000" class="bmwfcol"/><path d="M24.6916 13.457V15.282L24.8558 15.3119C25.2012 15.3747 26.3558 15.5804 27.0779 15.5804C28.0529 15.5804 28.7493 15.3866 29.1958 14.9884C29.3949 14.8069 29.5407 14.6086 29.6332 14.3757C29.725 14.1447 29.7615 13.8895 29.7615 13.5974C29.7615 13.1028 29.5906 12.6134 29.3133 12.3235C29.044 12.042 28.6856 11.8591 28.1054 11.7059L27.1383 11.4508C26.9233 11.3971 26.7811 11.3583 26.6629 11.3038C26.6099 11.2793 26.6003 11.2647 26.599 11.2627C26.599 11.2627 26.5881 11.2463 26.5881 11.1882C26.5881 11.1328 26.5932 11.1057 26.599 11.0905C26.6026 11.0811 26.6081 11.0703 26.6301 11.0548C26.678 11.0213 26.7749 10.9849 27.1735 10.9849C27.8231 10.9849 28.8374 11.2319 29.2688 11.3397L29.5174 11.4019V9.57799L29.3659 9.54012C28.9804 9.44375 27.857 9.21574 27.1416 9.21574C26.2227 9.21574 25.633 9.3659 25.2072 9.73088C24.7746 10.1017 24.6279 10.6468 24.6279 11.1882C24.6279 11.7045 24.7882 12.1467 25.0378 12.4338C25.2984 12.7316 25.6192 12.8838 26.1214 13.0257L27.1327 13.3025C27.2983 13.3453 27.4283 13.379 27.5299 13.4095C27.6332 13.4405 27.6964 13.4649 27.7357 13.4864C27.7674 13.5037 27.7799 13.519 27.7862 13.5303C27.7931 13.5424 27.8013 13.5647 27.8013 13.608C27.8013 13.6566 27.795 13.6846 27.7874 13.7019C27.7815 13.7155 27.7682 13.7326 27.7418 13.7494C27.7136 13.7682 27.6677 13.7859 27.5835 13.7972C27.4986 13.8085 27.3912 13.8113 27.2478 13.8113C26.3743 13.8113 25.3498 13.5956 24.9392 13.5092L24.6916 13.457Z" fill="#000000" class="bmwfcol"/><title>eco-pro-mode-miles_rg_48</title></svg>