<svg width="48" height="48" viewBox="0 0 32 32" xmlns="http://www.w3.org/2000/svg"><path d="M23.292 3.66968C22.8819 3.79028 22.555 4.03086 22.2929 4.29292L11 15.5858V21H16.4142L17.5786 19.8356C20.9547 16.4594 24.3307 13.0832 27.7071 9.70719C27.9694 9.44488 28.2105 9.11776 28.3313 8.70744C28.4566 8.2819 28.4254 7.85989 28.293 7.46362C28.0541 6.74852 27.4541 6.04 26.7071 5.29295C25.9594 4.54524 25.2504 3.9461 24.5348 3.70766C24.1387 3.57565 23.717 3.54469 23.292 3.66968ZM23.7071 5.70717C23.7656 5.64867 23.8184 5.57708 23.9025 5.60508C24.1245 5.67907 24.5406 5.95481 25.2929 6.70714C26.0459 7.46014 26.322 7.87556 26.3961 8.09741C26.424 8.18111 26.3509 8.23493 26.2929 8.2929L25 9.58576L22.4142 7.00002L23.7071 5.70717ZM13 16.4143L21 8.41424L23.5857 10.9999L15.5858 19H13V16.4143Z" fill="#000000" class="bmwfcol"/><path d="M26 14.2422V17C26 17.7996 25.8264 18.1949 25.546 18.4374C25.222 18.7175 24.524 19.0001 23 19.0001H19V23.0001C19 24.5241 18.7174 25.2221 18.4373 25.546C18.1977 25.8231 17.809 25.9959 17.0286 26H6V6H17.7572L19.7572 4H4V28H17.1332C18.2607 28.0005 19.1737 28.0009 20.0292 27.6898C20.9434 27.3574 21.7036 26.7107 22.7071 25.7071L25.7071 22.7071C26.7107 21.7036 27.3574 20.9434 27.6898 20.0292C28.0009 19.1737 28.0005 18.2607 28 17.1332V12.2423C27.3569 12.8853 26.6822 13.5601 26 14.2422ZM23 21.0001C23.6205 21.0001 24.1898 20.96 24.7051 20.8711C24.5816 21.001 24.4447 21.1411 24.2929 21.2929L21.2929 24.2929C21.1411 24.4447 21.001 24.5816 20.871 24.7052C20.9599 24.1899 21 23.6206 21 23.0001V21.0001H23Z" fill="#000000" class="bmwfcol"/><title>edit-sheet_rg_48</title></svg>