<svg width="48" height="48" viewBox="0 0 32 32" xmlns="http://www.w3.org/2000/svg"><path d="M25.7071 6.29298C25.0641 5.64998 24.4859 5.13516 23.9485 4.75898C23.413 4.38417 22.8662 4.10984 22.2894 4.0137C21.0285 3.80354 20.0849 4.501 19.2929 5.29298L4 20.5859V28.0001H11.4142L26.7071 12.7072C27.4991 11.9152 28.1966 10.9716 27.9864 9.71069C27.8903 9.13387 27.6159 8.58708 27.2411 8.05163C26.8649 7.51423 26.3501 6.93599 25.7071 6.29298ZM22.5858 14.0001L10.5858 26.0001H6V21.4143L18.0001 9.41427L22.5858 14.0001ZM24.0001 12.5858L19.4143 8.00006L20.7071 6.7072C21.4151 5.99918 21.7216 5.94664 21.9606 5.98649C22.1338 6.01535 22.3995 6.11602 22.8016 6.39745C23.2017 6.67752 23.6859 7.1002 24.2929 7.7072C24.8999 8.31419 25.3226 8.79845 25.6027 9.19855C25.8841 9.6006 25.9848 9.86632 26.0136 10.0395C26.0535 10.2786 26.0009 10.585 25.2929 11.293L24.0001 12.5858Z" fill="#000000" class="bmwfcol"/><title>edit_rg_48</title></svg>