<svg width="48" height="48" viewBox="0 0 32 32" xmlns="http://www.w3.org/2000/svg"><path d="M5.18307 14.0052H2.33413V19.9999H4.99015C5.80119 19.9999 6.33029 19.872 6.73107 19.5567C7.16113 19.221 7.35679 18.7185 7.35679 18.1453C7.35679 17.7915 7.25101 17.4501 7.07897 17.2234C6.97311 17.0823 6.86321 16.9752 6.74873 16.8788C6.81587 16.7752 6.8887 16.6592 6.95855 16.5394C7.12733 16.2501 7.23065 15.9781 7.23065 15.5854C7.23065 15.0941 6.99459 14.6084 6.58936 14.3237C6.23191 14.071 5.79969 14.0052 5.18307 14.0052ZM3.84713 16.2683V15.4292H5.05693C5.21887 15.4292 5.34119 15.433 5.43607 15.4437C5.53186 15.4545 5.58553 15.4713 5.61674 15.4878C5.66529 15.5134 5.71023 15.5716 5.71023 15.7189C5.71023 15.8455 5.66315 15.9374 5.58149 16.0785C5.54862 16.1348 5.50599 16.2043 5.46599 16.2683H3.84713ZM3.84713 18.576V17.6923H4.98273C5.36372 17.6923 5.52948 17.7175 5.64209 17.7783C5.71554 17.8206 5.75803 17.8676 5.7844 17.9188C5.81207 17.9725 5.82895 18.0444 5.82895 18.1453C5.82895 18.3087 5.79565 18.3862 5.71935 18.4546C5.62665 18.5333 5.48478 18.576 5.01241 18.576H3.84713Z" fill="#000000" class="bmwfcol"/><path d="M9.75331 14.0052H7.99043V19.9999H9.47375V16.8454L10.3673 18.8869H11.6009L12.4944 16.8454V19.9999H13.9777V14.0052H12.2371L10.9952 16.8448L9.75331 14.0052Z" fill="#000000" class="bmwfcol"/><path d="M15.8969 14.0052H14.3455L15.554 19.9999H17.2946L18.0254 17.3534L18.7561 19.9999H20.4816L21.6981 14.0052H20.1692L19.4716 17.4747L18.7491 14.8511H17.3171L16.5824 17.4761L15.8969 14.0052Z" fill="#000000" class="bmwfcol"/><path d="M9.04205 22.0052H6.82381V27.9999H8.98269C9.78496 27.9999 10.3774 27.8622 10.875 27.4143C11.4526 26.8945 11.7203 26.1538 11.7203 24.9803C11.7203 23.8416 11.5147 23.2143 11.0618 22.7036C10.5733 22.1479 9.90508 22.0052 9.04205 22.0052ZM8.33681 26.5537V23.4515H9.04947C9.49163 23.4515 9.7391 23.5 9.92062 23.7144C10.149 23.9849 10.1925 24.3924 10.1925 24.9803C10.1925 25.5124 10.1379 25.8951 9.95948 26.1597C9.85636 26.3128 9.74296 26.4059 9.60311 26.4643C9.45798 26.5249 9.271 26.5537 9.01237 26.5537H8.33681Z" fill="#000000" class="bmwfcol"/><path d="M16.9664 22.0052H15.4831V23.5479H16.9664V22.0052Z" fill="#000000" class="bmwfcol"/><path d="M15.1974 25.0471V23.5544L14.9685 23.5878C14.6031 23.6411 14.2466 23.734 14.0202 23.8429C13.9478 23.8777 13.8807 23.9145 13.8173 23.9525V23.6822H12.334V27.9999H13.8173V25.4837C13.9171 25.4238 14.0519 25.3524 14.2188 25.2846C14.4608 25.1878 14.7125 25.1243 15.0288 25.074L15.1974 25.0471Z" fill="#000000" class="bmwfcol"/><path d="M4.18879 23.556C3.39331 23.556 2.79109 23.8015 2.45909 24.3432C2.18425 24.8013 2.13379 25.4058 2.13379 25.8781C2.13379 26.5302 2.21622 26.9977 2.5057 27.3978C2.67944 27.6378 2.89061 27.825 3.18449 27.949C3.47348 28.0709 3.82949 28.1261 4.28525 28.1261C4.87445 28.1261 5.45289 28.0344 5.82311 27.9752L5.99151 27.9482V26.6251L5.76166 26.6598C5.36691 26.7194 4.89138 26.7911 4.39655 26.7911C3.97529 26.7911 3.77972 26.7151 3.67763 26.5725C3.65697 26.5422 3.6412 26.514 3.62928 26.4862H6.07419L6.10635 26.3255C6.14635 26.1254 6.18443 25.7115 6.18443 25.4849C6.18443 25.2064 6.18138 24.6446 5.83982 24.192C5.51166 23.7574 4.96153 23.556 4.18879 23.556ZM3.69846 25.0411C3.74647 24.9638 3.80103 24.9161 3.86937 24.8849C3.94172 24.8519 4.04209 24.8316 4.18879 24.8316C4.46154 24.8316 4.60647 24.901 4.67669 25.0042C4.7388 25.095 4.75305 25.2016 4.75305 25.3146H3.60989C3.62634 25.2075 3.65612 25.1095 3.69846 25.0411Z" fill="#000000" class="bmwfcol"/><path d="M23.8185 23.556C23.023 23.556 22.4208 23.8015 22.0888 24.3432C21.8139 24.8013 21.7635 25.4058 21.7635 25.8781C21.7635 26.5302 21.8459 26.9977 22.1354 27.3978C22.3091 27.6378 22.5203 27.825 22.8142 27.949C23.1031 28.0709 23.4592 28.1261 23.9149 28.1261C24.5041 28.1261 25.0826 28.0344 25.4528 27.9752L25.6212 27.9482V26.6251L25.3913 26.6598C24.9966 26.7194 24.521 26.7911 24.0262 26.7911C23.605 26.7911 23.4094 26.7151 23.3073 26.5725C23.2866 26.5422 23.2709 26.514 23.2589 26.4862H25.7039L25.736 26.3255C25.776 26.1254 25.8141 25.7115 25.8141 25.4849C25.8141 25.2064 25.811 24.6446 25.4695 24.192C25.1413 23.7574 24.5912 23.556 23.8185 23.556ZM23.3281 25.0411C23.3761 24.9638 23.4307 24.9161 23.499 24.8849C23.5714 24.8519 23.6718 24.8316 23.8185 24.8316C24.0912 24.8316 24.2361 24.901 24.3064 25.0042C24.3685 25.095 24.3827 25.2016 24.3827 25.3146H23.2396C23.256 25.2075 23.2858 25.1095 23.3281 25.0411Z" fill="#000000" class="bmwfcol"/><path d="M16.9664 23.6822H15.4831V27.9999H16.9664V23.6822Z" fill="#000000" class="bmwfcol"/><path d="M18.7401 23.6822H17.1268L18.6151 27.9999H20.3616L21.8662 23.6822H20.2891L19.5146 26.0806L18.7401 23.6822Z" fill="#000000" class="bmwfcol"/><path d="M25.4871 16L30.1566 3.09017L28.9098 1.84338L12 7.95969V10.0246L19.8378 12.1622L20.0663 13H22.1393L21.4666 10.5334L15.3651 8.86934L27.5311 4.46887L23.3603 16H25.4871Z" fill="#000000" class="bmwfcol"/><title>edrive_rg_48</title></svg>