<svg width="48" height="48" viewBox="0 0 32 32" xmlns="http://www.w3.org/2000/svg"><path d="M14.4004 20C14.4004 19.1716 15.072 18.5 15.9004 18.5C16.7288 18.5 17.4004 19.1716 17.4004 20C17.4004 20.8284 16.7288 21.5 15.9004 21.5C15.072 21.5 14.4004 20.8284 14.4004 20Z" fill="#000000" class="bmwfcol"/><path d="M15.9004 10C12.9731 10 10.4561 10.9801 8.66828 12.7679C6.8805 14.5557 5.90039 17.0728 5.90039 20C5.90039 22.9272 6.8805 25.4443 8.66828 27.2321C10.4561 29.0199 12.9731 30 15.9004 30C18.8276 30 21.3447 29.0199 23.1325 27.2321C24.9203 25.4443 25.9004 22.9272 25.9004 20C25.9004 17.0728 24.9203 14.5557 23.1325 12.7679C21.3447 10.9801 18.8276 10 15.9004 10ZM8.09542 18C8.41421 16.4429 9.11021 15.1544 10.0825 14.1821C11.4447 12.8199 13.4276 12 15.9004 12C18.3731 12 20.3561 12.8199 21.7183 14.1821C22.6906 15.1544 23.3866 16.4429 23.7054 18L20.7024 18C20.6118 17.8251 20.5118 17.6525 20.4096 17.4762L20.3565 17.3844C19.8223 16.4599 19.3286 15.7181 18.523 15.3333C18.124 15.1427 17.7106 15.0676 17.297 15.033C16.903 15 16.4428 15 15.9351 15.0001H15.8661C15.3584 15 14.8983 15 14.5042 15.033C14.0906 15.0676 13.6772 15.1427 13.2782 15.3333C12.4726 15.7181 11.9789 16.4599 11.4448 17.3844L11.3916 17.4762C11.2894 17.6525 11.1894 17.8251 11.0988 18L8.09542 18ZM7.90039 20L10.762 20C10.7827 20.1304 10.8087 20.2624 10.8381 20.3969C10.9155 20.7506 11.0305 21.1818 11.1708 21.7077L11.223 21.9035L7.94949 21.0264C7.91702 20.6945 7.90039 20.3522 7.90039 20ZM8.44446 23.2296L12.9338 24.4325L13.214 27.6352C11.9616 27.2698 10.9081 26.6435 10.0825 25.8179C9.37918 25.1146 8.82044 24.2458 8.44446 23.2296ZM15.2518 27.9807L14.9841 24.9205C15.3022 24.972 15.6007 25 15.901 25C16.2009 25 16.4992 24.9721 16.8169 24.9207L16.5492 27.9807C16.3368 27.9935 16.1206 28 15.9004 28C15.6803 28 15.4641 27.9935 15.2518 27.9807ZM18.587 27.6352L18.8672 24.4328L23.3562 23.23C22.9802 24.246 22.4215 25.1147 21.7183 25.8179C20.8928 26.6434 19.8393 27.2697 18.587 27.6352ZM23.8513 21.0268L20.5782 21.9038L20.6305 21.7074C20.7708 21.1816 20.8858 20.7505 20.9631 20.3969C20.9925 20.2624 21.0185 20.1304 21.0392 20L23.9004 20C23.9004 20.3523 23.8837 20.6947 23.8513 21.0268ZM13.1765 18.3849C13.7312 17.4249 13.9596 17.2243 14.1403 17.138C14.2345 17.093 14.3803 17.0503 14.6709 17.026C14.9721 17.0008 15.3491 17.0001 15.9006 17.0001C16.4521 17.0001 16.8291 17.0008 17.1303 17.026C17.4209 17.0503 17.5667 17.093 17.6609 17.138C17.8416 17.2243 18.07 17.4249 18.6247 18.3849C19.0463 19.1146 19.0827 19.227 19.0887 19.3886C19.0926 19.4912 19.0785 19.6527 19.0092 19.9697C18.9419 20.2776 18.8378 20.6679 18.6889 21.2262L18.6744 21.2808C18.5779 21.6425 18.4611 22.0848 18.3556 22.4844L18.3513 22.5005C16.9839 22.8661 16.4358 23 15.901 23C15.3661 23 14.8179 22.866 13.4498 22.5002L13.4456 22.4844C13.3402 22.0848 13.2233 21.6425 13.1268 21.2808L13.1123 21.2263C12.9634 20.668 12.8593 20.2776 12.792 19.9697C12.7227 19.6527 12.7086 19.4912 12.7125 19.3886C12.7186 19.227 12.7549 19.1146 13.1765 18.3849Z" fill="#000000" class="bmwfcol"/><path d="M14.9004 6V8H16.9004V6H18.9004V4H16.9004V2H14.9004V4H12.9004V6H14.9004Z" fill="#000000" class="bmwfcol"/><path d="M2.02539 11.875V6.87503L3.77539 5.12503V8.71088L4.19336 8.29291C5.9821 6.50417 8.2798 5.27241 10.9004 4.60141V6.67449C8.79468 7.29024 6.99823 8.31647 5.60757 9.70712L5.18967 10.125H8.77539L7.02539 11.875H2.02539Z" fill="#000000" class="bmwfcol"/><path d="M29.7754 11.875V6.87503L28.0254 5.12503V8.71088L27.6074 8.29291C25.8187 6.50417 23.521 5.27241 20.9004 4.60141V6.67449C23.0061 7.29024 24.8026 8.31647 26.1932 9.70712L26.6111 10.125H23.0254L24.7754 11.875H29.7754Z" fill="#000000" class="bmwfcol"/><title>electric-steering-assistance_rg_48</title></svg>