<svg width="48" height="48" viewBox="0 0 32 32" xmlns="http://www.w3.org/2000/svg"><path d="M24.3302 2.92548L23.5114 1.99438C21.9143 2.22149 20.4279 2.73073 19.3541 4.00988C18.4668 5.06682 18 6.44935 18 7.99956C18 10.3776 19.1051 12.3204 21 13.3062V26.9996C21 27.8268 21.2801 28.5939 21.8429 29.1567C22.4057 29.7194 23.1728 29.9996 24 29.9996C24.8272 29.9996 25.5943 29.7194 26.1571 29.1567C26.7199 28.5939 27 27.8268 27 26.9996V13.3062C28.8949 12.3204 30 10.3776 30 7.99956C30 5.89353 29.0773 4.22543 27.473 2.93704L26.2912 3.33469L25.1021 7.7725C25.0257 8.05828 24.9434 8.13942 24.646 8.11757C24.4818 8.10552 24.2726 8.06713 24.0069 7.99594C23.7413 7.92474 23.5406 7.85331 23.3921 7.78154C23.1266 7.65321 23.0921 7.54279 23.1696 7.2572L24.3302 2.92548ZM20 7.99956C20 6.85468 20.3403 5.94565 20.8858 5.29582C21.1448 4.9873 21.4616 4.72341 21.8336 4.51579L21.2389 6.73517C21.0208 7.54062 21.1015 8.33306 21.6648 8.96048C22.147 9.49759 22.8602 9.75918 23.4892 9.92777C24.1184 10.0964 24.8663 10.2263 25.5523 10.0019C26.3532 9.73995 26.8189 9.09441 27.0341 8.28943L27.62 6.10311C27.8629 6.63744 28 7.27153 28 7.99956C28 10.0808 26.8195 11.285 25 11.9636V26.9996C25 27.3723 24.8801 27.6052 24.7429 27.7425C24.6057 27.8797 24.3728 27.9996 24 27.9996C23.6272 27.9996 23.3943 27.8797 23.2571 27.7425C23.1199 27.6052 23 27.3723 23 26.9996V11.9636C21.1805 11.285 20 10.0808 20 7.99956Z" fill="#000000" class="bmwfcol"/><path d="M14.2507 3.99994H7.18011L4 15.8683V18H8.42883L5.74934 27.9999H9.36023L16.9998 14.7679L16.9998 12.9999H11.9997V12.4007L14.2507 3.99994ZM6.03527 16L8.71477 5.99994H11.6442L9.99971 12.1374V14.9999H14.5564L8.48592 25.5143L11.0353 16H6.03527Z" fill="#000000" class="bmwfcol"/><title>electrical-repair_rg_48</title></svg>