<svg width="48" height="48" viewBox="0 0 32 32" xmlns="http://www.w3.org/2000/svg"><path d="M15.4693 23.4147L14.3485 19.2322L15.4818 19.5358L16.4587 15.8901L13.6767 17.4963H12.0283L14.3049 9H16.3754L14.9082 14.4759L17.4644 13.0001H19.3036L17.4137 20.0535L18.5311 20.3529L15.4693 23.4147Z" fill="#000000" class="bmwfcol"/><path d="M16 3C12.1728 3 8.90567 4.28011 6.59289 6.59289C4.28011 8.90567 3 12.1728 3 16C3 19.8272 4.28011 23.0943 6.59289 25.4071C8.90567 27.7199 12.1728 29 16 29C19.8272 29 23.0943 27.7199 25.4071 25.4071C27.7199 23.0943 29 19.8272 29 16C29 12.1728 27.7199 8.90567 25.4071 6.59289C23.0943 4.28011 19.8272 3 16 3ZM5 16C5 12.6272 6.11989 9.89433 8.00711 8.00711C9.89433 6.11989 12.6272 5 16 5C19.3728 5 22.1057 6.11989 23.9929 8.00711C25.8801 9.89433 27 12.6272 27 16C27 19.3728 25.8801 22.1057 23.9929 23.9929C22.1057 25.8801 19.3728 27 16 27C12.6272 27 9.89433 25.8801 8.00711 23.9929C6.11989 22.1057 5 19.3728 5 16Z" fill="#000000" class="bmwfcol"/><title>electricity_rg_48</title></svg>