<svg width="48" height="48" viewBox="0 0 32 32" xmlns="http://www.w3.org/2000/svg"><path d="M14 8H11.8651L11.6388 8.1256C8.87453 9.65948 7 12.6101 7 16C7 19.3899 8.87453 22.3405 11.6388 23.8744L11.8651 24H14V20H18V24H20.1349L20.3612 23.8744C23.1255 22.3405 25 19.3899 25 16C25 12.6101 23.1255 9.65948 20.3612 8.1256L20.1349 8H18V12H14V8ZM12 14H20V10.2545C21.815 11.5206 23 13.6225 23 16C23 18.3775 21.815 20.4794 20 21.7455V18H12V21.7455C10.185 20.4794 9 18.3775 9 16C9 13.6225 10.185 11.5206 12 10.2545V14Z" fill="#000000" class="bmwfcol"/><path d="M16 3C8.8203 3 3 8.8203 3 16C3 23.1797 8.8203 29 16 29C23.1797 29 29 23.1797 29 16C29 8.8203 23.1797 3 16 3ZM5 16C5 9.92487 9.92487 5 16 5C22.0751 5 27 9.92487 27 16C27 22.0751 22.0751 27 16 27C9.92487 27 5 22.0751 5 16Z" fill="#000000" class="bmwfcol"/><title>electric-motor-rotor_rg_48</title></svg>