<svg width="48" height="48" viewBox="0 0 32 32" xmlns="http://www.w3.org/2000/svg"><path d="M1.99852 13.4461V15.4758C3.11665 15.6652 4.16269 15.8105 4.82926 15.8105C5.25301 15.8105 5.69364 15.7835 6.10384 15.7025C6.50271 15.6237 6.95083 15.4792 7.32428 15.1901C7.586 14.9874 7.83243 14.7332 8.0082 14.4003C8.18689 14.0619 8.26237 13.6994 8.26237 13.3256C8.26237 12.7816 8.13118 12.2145 7.73334 11.7704C7.84544 11.6372 7.94693 11.5137 8.02433 11.4144C8.16293 11.2367 8.32513 11.0155 8.44212 10.7435C8.56775 10.4514 8.62004 10.1536 8.62004 9.83152C8.62004 9.18513 8.32507 8.44648 7.69065 8.04504C6.86033 7.51964 5.66879 6.93037 4.62354 6.45003C4.38571 6.34073 4.23121 6.26808 4.12174 6.2133C3.98327 6.14401 3.84659 6.07046 3.77292 5.92642C3.72052 5.82396 3.682 5.60297 3.79461 5.52621C3.85653 5.48401 3.98059 5.43031 4.21214 5.39408C4.44136 5.35822 4.71064 5.34863 5.02776 5.34863C5.36744 5.34863 6.18818 5.41076 7.99852 5.77354V3.73534C6.38958 3.42639 5.5192 3.34863 5.02776 3.34863C4.69055 3.34863 4.29278 3.35713 3.90296 3.41812C3.51547 3.47876 3.0685 3.60071 2.66812 3.87363C1.95763 4.35795 1.72768 5.07128 1.72768 5.76074C1.72768 6.34861 1.95418 6.85622 2.23865 7.22567C2.10325 7.38847 1.97965 7.54385 1.88991 7.66821C1.65194 7.99798 1.35316 8.49633 1.36981 9.19872C1.38344 9.77425 1.59213 10.4375 2.12072 10.8627C2.59222 11.2419 2.94583 11.4397 3.48507 11.6959C4.24454 12.0567 5.03076 12.3947 5.75957 12.8136C5.87814 12.8817 5.97425 12.941 6.07417 13.0025C6.23177 13.0997 6.26237 13.1288 6.26237 13.3256C6.26237 13.4627 6.20785 13.5251 6.09987 13.6087C6.07215 13.6301 5.96537 13.6912 5.71638 13.7404C5.47872 13.7873 5.17853 13.8105 4.82926 13.8105C4.27204 13.8105 3.23275 13.6614 1.99852 13.4461ZM3.92389 8.32983C4.90087 8.78239 5.91235 9.2903 6.59251 9.71702C6.62951 9.78528 6.63645 9.8819 6.60482 9.95333C6.59338 9.97993 6.56343 10.0355 6.44716 10.1846C6.34833 10.3113 6.18976 10.5002 6.0171 10.7013C5.78642 10.5907 5.55287 10.4765 5.31138 10.3583L5.29633 10.351C4.9908 10.2015 4.67314 10.0461 4.34329 9.8894C3.90601 9.68165 3.69847 9.56222 3.40194 9.32642C3.36051 9.2318 3.3558 9.12461 3.38916 9.04193C3.40682 8.99813 3.44019 8.93768 3.51173 8.83854C3.59945 8.71699 3.75515 8.5268 3.92389 8.32983Z" fill="#000000" class="bmwfcol"/><path d="M23.9989 28.7501H20.9989V26.7501H25.9989V28.0001H27.9989V22.0001H22.9989V20.0001H27.3747C27.0561 19.6352 26.6486 19.2406 26.1751 18.801C26.1535 18.7837 26.0727 18.7301 25.8347 18.6758C25.5526 18.6114 25.1311 18.5637 24.4788 18.5346C23.4902 18.4906 22.1084 18.4934 20.1182 18.4973C18.7056 18.5001 17.293 18.5001 15.8805 18.4973C13.8899 18.4934 12.5078 18.4906 11.5185 18.5346C10.8658 18.5637 10.4439 18.6114 10.1613 18.6758C9.91204 18.7326 9.79012 18.8301 9.60956 19.0001H6.8541C6.88386 18.9624 6.91373 18.9253 6.94357 18.8889C7.45968 18.2594 8.07358 17.6918 8.67286 17.1403C8.90359 16.6276 9.33897 15.7426 9.86849 14.8985C10.1484 14.4522 10.4678 13.9962 10.8104 13.6071C11.1389 13.2342 11.556 12.8442 12.0462 12.629C13.2789 12.088 14.1606 12.0001 17.9989 12.0001C21.8369 12.0001 22.7202 12.088 23.952 12.6292C24.4378 12.8433 24.8404 13.2139 25.1875 13.6082C25.5299 13.9973 25.8493 14.4531 26.1292 14.8992C26.3125 15.1913 26.4845 15.4883 26.6407 15.773C26.9528 15.6528 27.2823 15.5873 27.6339 15.5504C28.2408 15.4867 29.0281 15.5002 29.9983 15.5002V17.5002C29.2587 17.5002 28.5003 17.4557 27.7642 17.5485C28.2373 17.9939 28.6905 18.4453 29.0542 18.8889C29.5242 19.4622 29.9989 20.2012 29.9989 21.043V30.0001H23.9989V28.7501ZM24.5678 16.5366C24.6408 16.5399 24.7124 16.5434 24.7828 16.5472C24.6733 16.3533 24.5567 16.156 24.4351 15.9623C24.1877 15.5679 23.9323 15.2093 23.6862 14.9297C23.4266 14.6347 23.2408 14.5016 23.1468 14.4599C22.3631 14.1156 21.9095 14.0001 17.9989 14.0001C14.0877 14.0001 13.6355 14.1156 12.85 14.4603C12.7571 14.5012 12.5715 14.6336 12.3114 14.9289C12.0655 15.2082 11.8102 15.5668 11.5627 15.9613C11.441 16.1553 11.3243 16.353 11.2147 16.5472C11.285 16.5434 11.3566 16.5399 11.4296 16.5366C12.4694 16.4904 13.9199 16.4933 15.9308 16.4973C17.3101 16.5001 18.6893 16.5001 20.0685 16.4973C22.079 16.4933 23.5287 16.4904 24.5678 16.5366Z" fill="#000000" class="bmwfcol"/><path d="M11.4192 22.5031C12.4038 22.5396 13.2931 22.8928 13.9495 23.5491C14.6435 24.2432 14.9986 25.1978 14.9986 26.25C14.9986 27.3022 14.6435 28.2568 13.9495 28.9509C13.2555 29.6449 12.3009 30 11.2486 30H6.99863C5.57138 30 4.30431 29.5199 3.39153 28.6071C2.47875 27.6943 1.99863 26.4272 1.99863 25C1.99863 23.5728 2.47875 22.3057 3.39153 21.3929C4.30431 20.4801 5.57138 20 6.99863 20C8.97087 20 10.5949 20.9222 11.4192 22.5031ZM6.99863 22C6.02588 22 5.29296 22.3199 4.80574 22.8071C4.31852 23.2943 3.99863 24.0272 3.99863 25C3.99863 25.9728 4.31852 26.7057 4.80574 27.1929C5.29296 27.6801 6.02588 28 6.99863 28H11.2486C11.8464 28 12.2668 27.8051 12.5353 27.5366C12.8037 27.2682 12.9986 26.8478 12.9986 26.25C12.9986 25.6522 12.8037 25.2318 12.5353 24.9634C12.3952 24.8232 12.2137 24.7032 11.9871 24.6204C11.9948 24.7456 11.9986 24.8722 11.9986 25H9.99863C9.99863 24.5671 9.9348 24.1826 9.82341 23.8487C9.4527 22.7372 8.48359 22 6.99863 22Z" fill="#000000" class="bmwfcol"/><path d="M15.9978 30C15.6975 30 15.4051 29.9631 15.1275 29.8891C15.6472 29.3324 16.0133 28.6811 16.2356 27.9818C16.4736 27.9433 16.6353 27.8482 16.7407 27.7429C16.8779 27.6057 16.9978 27.3727 16.9978 27C16.9978 26.6272 16.8779 26.3943 16.7407 26.2571C16.6794 26.1958 16.5991 26.138 16.4958 26.0928C16.477 25.3674 16.3282 24.6555 16.0403 24.0002C16.8513 24.0097 17.6018 24.2898 18.1549 24.8429C18.7177 25.4057 18.9978 26.1727 18.9978 27C18.9978 27.8272 18.7177 28.5943 18.1549 29.1571C17.5921 29.7199 16.825 30 15.9978 30Z" fill="#000000" class="bmwfcol"/><title>emission-inspection_rg_48</title></svg>