<svg width="48" height="48" viewBox="0 0 32 32" xmlns="http://www.w3.org/2000/svg"><path d="M11.5001 5.08586L14.293 2.29297L15.7072 3.70718L12.9143 6.50008L14.5001 8.08586L17.293 5.29297L18.7072 6.70718L15.9143 9.50007L17.4143 11.0001L16.7072 11.7072C14.6687 13.7456 12.935 14.8792 11.3474 15.1588C10.0383 15.3893 8.96008 15.0227 8.05739 14.3661C7.08032 15.3743 6.59699 15.9715 6.33429 16.4815C6.05479 17.024 6 17.5132 6 18.6251V20L4 20.0001V18.6251C4 17.487 4.03896 16.5699 4.55634 15.5656C4.95756 14.7867 5.62618 13.9976 6.64136 12.9527C5.98018 12.048 5.60996 10.9667 5.84136 9.65278C6.12097 8.06516 7.25454 6.33138 9.29295 4.29297L10.0001 3.58586L11.5001 5.08586ZM14.5716 10.9858L10.0143 6.42855C8.5603 8.01079 7.95906 9.15926 7.81105 9.99967C7.66133 10.8498 7.95292 11.5387 8.70716 12.293C9.46141 13.0472 10.1503 13.3388 11.0005 13.1891C11.8409 13.0411 12.9893 12.4398 14.5716 10.9858Z" fill="#000000" class="bmwfcol"/><path d="M14 16H20V12H28V28H8V20H14V16ZM16 18V26H20V18H16ZM26 26V14H22V26H26ZM14 22H10V26H14V22Z" fill="#000000" class="bmwfcol"/><title>energy-consumption_rg_48</title></svg>