<svg width="48" height="48" viewBox="0 0 32 32" xmlns="http://www.w3.org/2000/svg"><path d="M25 4H7V2H25V4Z" fill="#000000" class="bmwfcol"/><path d="M7.16374 6L2.57031 14H4.87655L9.46998 6H7.16374Z" fill="#000000" class="bmwfcol"/><path d="M29.4314 14H27.1252L22.5319 6H24.8382L29.4314 14Z" fill="#000000" class="bmwfcol"/><path d="M9.82227 11L11.162 6H13.2326L11.8928 11H9.82227Z" fill="#000000" class="bmwfcol"/><path d="M20.1088 11H22.1794L20.8396 6H18.7691L20.1088 11Z" fill="#000000" class="bmwfcol"/><path d="M15 10L15 6H17L17 10L15 10Z" fill="#000000" class="bmwfcol"/><path d="M18.9993 15H19.9995V13H11.9961V15H12.9819V15.5012C12.6184 15.5027 12.3081 15.506 12.0427 15.5134C11.5698 15.5267 11.1744 15.5538 10.8391 15.6274C10.111 15.7872 9.73618 16.172 9.40947 16.5075C9.37012 16.5479 9.33128 16.5877 9.29279 16.6262L8.9999 16.9191V17.5H7.02544V21.5H6.00005V18.5H4.00005V26.5022H6.00005V23.5H7.02544V27.5L10.0743 27.5C10.1669 27.8108 10.2609 28.0907 10.3639 28.3346C10.5486 28.7715 10.8029 29.1942 11.232 29.5009C11.6553 29.8035 12.1317 29.9089 12.5823 29.9556C13.0115 30 13.5345 30 14.1198 30L18.3799 29.9999C18.9652 30 19.4881 30 19.9174 29.9556C20.368 29.9089 20.8445 29.8035 21.2677 29.5009C21.6968 29.1942 21.9511 28.7716 22.1358 28.3346C22.2389 28.0907 22.3328 27.8108 22.4254 27.5H24V26H24.9898V27.4999L28.2338 27.5L28.5225 27C28.9408 26.2755 29.2244 25.7376 29.3643 25.0702C29.4901 24.4705 29.49 23.7982 29.4898 22.8584V22.6415C29.49 21.7018 29.4901 21.0294 29.3643 20.4297C29.2244 19.7623 28.9408 19.2244 28.5225 18.5L28.2338 17.9999L24.9898 18V19.4968H24V17.5H22.6665V16.9191L22.3736 16.6262C22.2871 16.5397 22.2171 16.4633 22.1459 16.385L22.1309 16.3686C22.0683 16.2997 21.9868 16.2102 21.9021 16.1291C21.6736 15.9104 21.4076 15.7378 21.0248 15.6371C20.7066 15.5533 20.3297 15.5266 19.8912 15.5135C19.644 15.5061 19.3497 15.5023 18.9993 15.5008V15ZM16.9993 15V17.5H17.9993C18.8397 17.5 19.4151 17.5001 19.8314 17.5126C20.2628 17.5255 20.4389 17.551 20.5167 17.5714L20.5193 17.574C20.5501 17.6035 20.586 17.6425 20.6665 17.731V19.5H22V21.4968H26.9898V20L27.07 20C27.2728 20.3811 27.3571 20.6026 27.4069 20.8402C27.4847 21.2111 27.4898 21.6636 27.4898 22.75C27.4898 23.8363 27.4847 24.2889 27.4069 24.6597C27.3571 24.8973 27.2728 25.1188 27.07 25.5L26.9898 25.5V24H22V25.5H20.8993L20.7007 26.2411C20.531 26.8743 20.4112 27.2777 20.2936 27.5559C20.1826 27.8185 20.1141 27.8672 20.1046 27.8739C20.0907 27.8839 20.0157 27.9347 19.7115 27.9662C19.3975 27.9987 18.979 27.9999 18.3331 27.9999L14.1666 27.9999C13.5207 27.9999 13.1022 27.9987 12.7882 27.9662C12.484 27.9347 12.4086 27.8836 12.3948 27.8737C12.3853 27.8669 12.3171 27.8185 12.2062 27.556C12.0885 27.2777 11.9688 26.8743 11.7991 26.2411L11.6005 25.5L9.02544 25.5V19.5H10.9999V17.7493C11.1152 17.6374 11.1533 17.6096 11.1959 17.5966C11.2085 17.5927 11.2216 17.5902 11.2372 17.5872C11.2463 17.5854 11.2564 17.5834 11.2678 17.5809C11.4071 17.5503 11.6426 17.5254 12.0987 17.5126C12.5458 17.5001 13.1424 17.5 13.9819 17.5H14.9819V15H16.9993Z" fill="#000000" class="bmwfcol"/><title>engine_shower_rg_48</title></svg>