<svg width="48" height="48" viewBox="0 0 32 32" xmlns="http://www.w3.org/2000/svg"><path d="M28.125 2.125L29.875 3.875V7.875H25.875L24.125 6.125H26.6893C25.5394 5.06181 24.5956 4.5 22.9995 4.5C21.5768 4.5 20.4689 4.96989 19.7191 5.71961C19.2579 6.18086 18.9026 6.77769 18.6974 7.5H16.6426C16.8902 6.2494 17.455 5.15533 18.3049 4.30539C19.4802 3.13011 21.1223 2.5 22.9995 2.5C25.3258 2.5 26.7797 3.46581 28.125 4.72079V2.125Z" fill="#000000" class="bmwfcol"/><path d="M17.875 15.875L16.125 14.125V10.125H20.125L21.875 11.875H19.3103C20.4602 12.9382 21.404 13.5 23.0001 13.5C24.4228 13.5 25.5307 13.0301 26.2805 12.2804C26.7417 11.8191 27.097 11.2223 27.3022 10.5H29.357C29.1094 11.7506 28.5446 12.8447 27.6947 13.6946C26.5194 14.8699 24.8773 15.5 23.0001 15.5C20.674 15.5 19.2202 14.5344 17.875 13.2796V15.875Z" fill="#000000" class="bmwfcol"/><path d="M23 17C23.6906 17 24.3608 16.9125 25 16.748V18H26V16.4185C26.3015 16.2964 26.594 16.1565 26.8759 16L29.5773 16L29.866 16.5C30.3676 17.3688 30.6929 17.99 30.8537 18.7568C31.0003 19.4556 31.0002 20.2428 31 21.3859V21.6143C31.0002 22.7573 31.0003 23.5445 30.8537 24.2433C30.6929 25.01 30.3676 25.6313 29.866 26.5001L29.5773 27.0001L26 27V25H25V27H22.761C22.6373 27.4269 22.5144 27.8031 22.3789 28.1237C22.1645 28.631 21.8779 29.1005 21.4051 29.4385C20.9381 29.7724 20.4065 29.8934 19.8805 29.9478C19.3758 30.0001 18.7573 30.0001 18.0485 30L12.9514 30C12.2425 30.0001 11.6241 30.0001 11.1194 29.9479C10.5934 29.8934 10.0618 29.7724 9.59483 29.4385C9.12203 29.1005 8.83549 28.631 8.62109 28.1237C8.48557 27.8031 8.36274 27.4269 8.23903 27.0001L5 27V22H3L3 26H1V16H3L3 20H5V15H7V14.5858L7.32569 14.2601C7.54792 14.0377 7.79264 13.7927 8.07141 13.5997C8.40037 13.372 8.74972 13.2303 9.17888 13.1445C9.78899 13.0224 10.6553 13.0034 12 13.0005V12H10V10H14V15H13C10.9352 15 10.0715 15.0055 9.57112 15.1056C9.37528 15.1448 9.28713 15.1906 9.20984 15.2441C9.14899 15.2862 9.08634 15.3388 9 15.4199V17H7V25L9.76726 25.0001L9.96586 25.7412C10.169 26.4994 10.316 26.9965 10.4633 27.3451C10.6055 27.6816 10.7062 27.7746 10.758 27.8116C10.8155 27.8527 10.9457 27.9192 11.3254 27.9585C11.7149 27.9988 12.2292 28 13 28L17.9999 28C18.7707 28 19.2851 27.9988 19.6746 27.9585C20.0542 27.9192 20.1844 27.8527 20.242 27.8115C20.2937 27.7745 20.3945 27.6816 20.5367 27.3451C20.684 26.9965 20.831 26.4994 21.0341 25.7412L21.2327 25H23V23H28V25.0001L28.4157 25.0001C28.7043 24.4699 28.8265 24.1655 28.8963 23.8328C28.9949 23.3626 29 22.7948 29 21.5C29 20.2053 28.9949 19.6375 28.8963 19.1673C28.8265 18.8345 28.7043 18.5302 28.4157 18L28 18V20H23V17Z" fill="#000000" class="bmwfcol"/><title>engine_reconditioning_rg_48</title></svg>