<svg width="48" height="48" viewBox="0 0 32 32" xmlns="http://www.w3.org/2000/svg"><path d="M18 8H20V6H10V8H12V9.00047C10.6553 9.00333 9.78899 9.0224 9.17888 9.14442C8.74972 9.23025 8.40037 9.37194 8.07141 9.59968C7.79264 9.79268 7.54792 10.0376 7.32569 10.2601L7 10.5858V11H5V16H3L3 12H1V22H3L3 18H5V23L8.23903 23C8.36274 23.4268 8.48557 23.8031 8.62109 24.1237C8.83549 24.631 9.12203 25.1005 9.59483 25.4385C10.0618 25.7723 10.5934 25.8934 11.1194 25.9478C11.6241 26 12.2425 26 12.9514 26L18.0485 26C18.7573 26 19.3758 26 19.8805 25.9478C20.4065 25.8933 20.9381 25.7723 21.4051 25.4385C21.8779 25.1005 22.1645 24.631 22.3789 24.1237C22.5144 23.8031 22.6373 23.4268 22.761 23H25V21H26V23L29.5773 23L29.866 22.5C30.3676 21.6312 30.6929 21.01 30.8537 20.2433C31.0003 19.5444 31.0002 18.7573 31 17.6142V17.3858C31.0002 16.2428 31.0003 15.4556 30.8537 14.7567C30.6929 13.99 30.3676 13.3688 29.866 12.5L29.5773 12L26 12V14H25V11H23V10.5858L22.6743 10.2601C22.4521 10.0376 22.2074 9.79268 21.9286 9.59968C21.5996 9.37194 21.2503 9.23025 20.8211 9.14442C20.211 9.0224 19.3447 9.00333 18 9.00047V8ZM16 8V11H17C19.0648 11 19.9285 11.0055 20.4289 11.1056C20.6247 11.1447 20.7129 11.1906 20.7902 11.2441C20.851 11.2862 20.9137 11.3388 21 11.4198V13H23V16H28V14L28.4157 14C28.7043 14.5302 28.8265 14.8345 28.8963 15.1673C28.9949 15.6374 29 16.2053 29 17.5C29 18.7947 28.9949 19.3626 28.8963 19.8327C28.8265 20.1655 28.7043 20.4698 28.4157 21L28 21V19H23V21H21.2327L21.0341 21.7412C20.831 22.4993 20.684 22.9965 20.5367 23.345C20.3945 23.6815 20.2937 23.7745 20.242 23.8115C20.1844 23.8526 20.0542 23.9191 19.6746 23.9584C19.2851 23.9987 18.7707 24 17.9999 24L13 24C12.2292 24 11.7149 23.9988 11.3254 23.9584C10.9457 23.9191 10.8155 23.8527 10.758 23.8115C10.7062 23.7745 10.6055 23.6815 10.4633 23.3451C10.316 22.9965 10.169 22.4993 9.96586 21.7412L9.76726 21L7 21V13H9V11.4198C9.08634 11.3388 9.14899 11.2862 9.20984 11.2441C9.28713 11.1906 9.37528 11.1447 9.57112 11.1056C10.0715 11.0055 10.9352 11 13 11H14V8H16Z" fill="#000000" class="bmwfcol"/><path d="M13 12.5V17H15V18.5H13.6338L16 22.4436L18.3662 18.5H17V15H15V12.5H13Z" fill="#000000" class="bmwfcol"/><title>engine_mhev_rg_48</title></svg>