<svg width="48" height="48" viewBox="0 0 32 32" xmlns="http://www.w3.org/2000/svg"><path d="M25.0164 7.00001H10.9839C10.8582 6.99989 10.6599 6.99969 10.4137 7.0599C10.1784 7.11743 9.94095 7.21856 9.66762 7.35403C9.12705 7.62194 8.21643 8.14316 6.50024 9.134L6.00024 9.42267V13H2V19H6.00024V22.5774L6.50024 22.866C8.21643 23.8569 9.12705 24.3781 9.66762 24.646C9.94095 24.7815 10.1784 24.8826 10.4137 24.9401C10.6599 25.0004 10.8582 25.0002 10.9839 25H25.0164C25.1421 25.0002 25.3404 25.0004 25.5866 24.9401C25.8218 24.8826 26.0593 24.7815 26.3327 24.646C26.8732 24.3781 27.7839 23.8569 29.5 22.866L30 22.5774V9.42267L29.5 9.134C27.7839 8.14316 26.8732 7.62194 26.3327 7.35403C26.0593 7.21856 25.8218 7.11743 25.5866 7.0599C25.3404 6.99969 25.1421 6.99989 25.0164 7.00001ZM8.00024 21.4225V10.5776C8.92811 10.0427 9.55775 9.683 10 9.43992V22.5601C9.55775 22.317 8.92811 21.9573 8.00024 21.4225ZM12 23V9.00002H24V23H12ZM26 9.43977C26.4423 9.68284 27.072 10.0426 28 10.5776V21.4225C27.072 21.9574 26.4423 22.3172 26 22.5603V9.43977ZM4 15H6V17H4V15Z" fill="#000000" class="bmwfcol"/><path d="M16 11.5V16H18V17.5H16.6338L19 21.4436L21.3662 17.5H20V14H18V11.5H16Z" fill="#000000" class="bmwfcol"/><title>engine_bee_rg_48</title></svg>