<svg width="48" height="48" viewBox="0 0 32 32" xmlns="http://www.w3.org/2000/svg"><path d="M12.9514 23H13.0619C13.021 22.6724 13 22.3387 13 22C13 21.6613 13.021 21.3276 13.0619 21H13C12.2292 21 11.7149 20.9988 11.3254 20.9584C10.9457 20.9191 10.8155 20.8527 10.758 20.8115C10.7062 20.7745 10.6055 20.6815 10.4633 20.3451C10.316 19.9965 10.169 19.4993 9.96586 18.7412L9.76726 18L7 18V10H9V8.41983C9.08634 8.33879 9.14899 8.28619 9.20984 8.24407C9.28713 8.19056 9.37528 8.14475 9.57112 8.10558C10.0715 8.0055 10.9352 8 13 8H14V5H16V8H17C19.0648 8 19.9285 8.0055 20.4289 8.10558C20.6247 8.14475 20.7129 8.19056 20.7902 8.24407C20.851 8.28619 20.9137 8.33879 21 8.41983V10H23V13H28V11L28.4157 11C28.7043 11.5302 28.8265 11.8345 28.8963 12.1673C28.9949 12.6374 29 13.2053 29 14.5C29 15.7947 28.9949 16.3626 28.8963 16.8327C28.8265 17.1655 28.7043 17.4698 28.4157 18L28 18V18.124C28.3243 18.7084 28.5775 19.3376 28.748 20L29.5773 20L29.866 19.5C30.3676 18.6312 30.6929 18.01 30.8537 17.2433C31.0003 16.5444 31.0002 15.7572 31 14.6142V14.3858C31.0002 13.2427 31.0003 12.4556 30.8537 11.7567C30.6929 10.99 30.3676 10.3688 29.866 9.49997L29.5773 8.99996L26 9.00002V11H25V8H23V7.58579L22.6743 7.26008C22.4521 7.03764 22.2074 6.79268 21.9286 6.59968C21.5996 6.37194 21.2503 6.23025 20.8211 6.14442C20.211 6.0224 19.3447 6.00333 18 6.00047V5H20V3H10V5H12V6.00047C10.6553 6.00333 9.78899 6.0224 9.17888 6.14442C8.74972 6.23025 8.40037 6.37194 8.07141 6.59968C7.79264 6.79268 7.54792 7.03764 7.32569 7.26008L7 7.58579V8H5V13H3L3 9H1V19H3L3 15H5V20L8.23903 20C8.36274 20.4268 8.48557 20.8031 8.62109 21.1237C8.83549 21.631 9.12203 22.1005 9.59483 22.4385C10.0618 22.7723 10.5934 22.8934 11.1194 22.9478C11.6241 23 12.2426 23 12.9514 23Z" fill="#000000" class="bmwfcol"/><path d="M24.3683 20.8688L20.2496 24.9875L17.6309 22.3688L18.8683 21.1313L20.2496 22.5126L23.1309 19.6313L24.3683 20.8688Z" fill="#000000" class="bmwfcol"/><path d="M21 16C19.2728 16 17.7557 16.5801 16.6679 17.6679C15.5801 18.7557 15 20.2728 15 22C15 23.7272 15.5801 25.2443 16.6679 26.3321C17.7557 27.4199 19.2728 28 21 28C22.3661 28 23.5625 27.605 24.5202 26.9344L27.293 29.7072L28.7072 28.293L25.9299 25.5157C26.617 24.5237 27 23.3065 27 22C27 20.2728 26.4199 18.7557 25.3321 17.6679C24.2443 16.5801 22.7272 16 21 16ZM17 22C17 20.7272 17.4199 19.7443 18.0821 19.0821C18.7443 18.4199 19.7272 18 21 18C22.2728 18 23.2557 18.4199 23.9179 19.0821C24.5801 19.7443 25 20.7272 25 22C25 24.241 23.4164 26 21 26C19.7272 26 18.7443 25.5801 18.0821 24.9179C17.4199 24.2557 17 23.2728 17 22Z" fill="#000000" class="bmwfcol"/><title>engine_check_rg_48</title></svg>