<svg width="48" height="48" viewBox="0 0 32 32" xmlns="http://www.w3.org/2000/svg"><path d="M0.999878 14L2.99988 14L2.99988 18L4.99988 18V13H6.99988L6.99988 12.5858L7.32556 12.2601C7.54779 12.0376 7.79251 11.7927 8.07129 11.5997C8.40025 11.3719 8.7496 11.2303 9.17876 11.1444C9.78887 11.0224 10.6552 11.0033 11.9999 11.0005V10H9.99988V8L19.9999 8V10H17.9999V11.0005C19.3446 11.0033 20.2109 11.0224 20.821 11.1444C21.2502 11.2303 21.5995 11.3719 21.9285 11.5997C22.2072 11.7927 22.452 12.0376 22.6742 12.2601L22.9999 12.5858V13L24.9999 13V16L26.9999 16V18L22.9999 18V15H20.9999V13.4198C20.9135 13.3388 20.8509 13.2862 20.79 13.2441C20.7128 13.1906 20.6246 13.1447 20.4288 13.1056C19.9284 13.0055 19.0647 13 16.9999 13H15.9999V10H13.9999V13L12.9999 13C10.935 13 10.0714 13.0055 9.57099 13.1056C9.37515 13.1447 9.28701 13.1906 9.20971 13.2441C9.14886 13.2862 9.08622 13.3388 8.99988 13.4198L8.99988 15H6.99988L6.99988 23L9.76714 23L9.96574 23.7412C10.1689 24.4993 10.3158 24.9965 10.4632 25.3451C10.6054 25.6815 10.7061 25.7745 10.7579 25.8115C10.8154 25.8527 10.9456 25.9191 11.3252 25.9584C11.7147 25.9988 12.2291 26 12.9999 26L17.9998 26C18.7706 26 19.285 25.9987 19.6745 25.9584C20.0541 25.9191 20.1843 25.8526 20.2419 25.8115C20.2936 25.7745 20.3944 25.6815 20.5366 25.345C20.6839 24.9965 20.8309 24.4993 21.034 23.7412L21.2326 23H22.9999V21H27.9999V23L28.4156 23C28.7042 22.4698 28.8264 22.1655 28.8962 21.8327C28.9948 21.3626 28.9999 20.7947 28.9999 19.5L28.9999 13.9996C28.9999 13.3752 28.8989 12.9087 28.6679 12.4468C28.5049 12.1208 28.2646 11.7718 27.9065 11.3599C27.2679 11.7653 26.5142 11.9735 25.6091 11.7784C24.4475 11.528 23.2236 10.6377 21.7927 9.20677L21.0856 8.49966L22.0857 7.49954L19.7928 5.20669L21.2071 3.79248L23.4999 6.08533L24.0858 5.49948L21.793 3.20669L23.2072 1.79248L25.5 4.08527L26.4998 3.08545L27.2069 3.79256C28.6378 5.22344 29.5281 6.44741 29.7785 7.60901C29.9782 8.53531 29.7554 9.30314 29.3312 9.9512C29.8079 10.4877 30.1841 11.007 30.4568 11.5524C30.8496 12.338 30.9989 13.1281 30.9999 14.0004L30.9999 19.6143C31 20.7573 31.0001 21.5445 30.8536 22.2433C30.6928 23.01 30.3675 23.6312 29.8659 24.5L29.5772 25L25.9999 25V23H24.9999V25H22.7608C22.6371 25.4268 22.5143 25.8031 22.3788 26.1237C22.1644 26.631 21.8778 27.1005 21.405 27.4385C20.938 27.7723 20.4064 27.8933 19.8804 27.9478C19.3757 28 18.7572 28 18.0484 28L12.9513 28C12.2424 28 11.624 28 11.1193 27.9478C10.5933 27.8934 10.0617 27.7723 9.59471 27.4385C9.12191 27.1005 8.83537 26.631 8.62096 26.1237C8.48545 25.8031 8.36262 25.4268 8.23891 25L4.99988 25V20H2.99988L2.99988 24H0.99988L0.999878 14ZM26.4822 5.93146L23.9316 8.48208C24.9169 9.3671 25.5792 9.72601 26.0306 9.82334C26.4314 9.90975 26.7715 9.81371 27.2927 9.29256C27.8138 8.7714 27.9099 8.43131 27.8235 8.03052C27.7261 7.57906 27.3672 6.91682 26.4822 5.93146Z" fill="#000000" class="bmwfcol"/><path d="M13 14.5V19H15V20.5H13.6338L16 24.4436L18.3662 20.5H17V17H15V14.5H13Z" fill="#000000" class="bmwfcol"/><title>engine_phev_rg_48</title></svg>