<svg width="48" height="48" viewBox="0 0 32 32" xmlns="http://www.w3.org/2000/svg"><path d="M17 5.5V2H15V5.5H17Z" fill="#000000" class="bmwfcol"/><path d="M23.116 7.40658L24.866 4.37549L23.134 3.37549L21.384 6.40658L23.116 7.40658Z" fill="#000000" class="bmwfcol"/><path d="M8.86602 3.37549L10.616 6.40658L8.88397 7.40658L7.13397 4.37549L8.86602 3.37549Z" fill="#000000" class="bmwfcol"/><path d="M8.88397 24.5989L7.13397 27.63L8.86603 28.63L10.616 25.5989L8.88397 24.5989Z" fill="#000000" class="bmwfcol"/><path d="M15 30.0055V26.5055H17V30.0055H15Z" fill="#000000" class="bmwfcol"/><path d="M21.384 25.5989L23.134 28.63L24.866 27.63L23.116 24.5989L21.384 25.5989Z" fill="#000000" class="bmwfcol"/><path d="M11.9966 9.50001H12.982V10.0012C12.6185 10.0027 12.3081 10.006 12.0428 10.0135C11.5699 10.0267 11.1745 10.0539 10.8392 10.1275C10.111 10.2873 9.73626 10.6721 9.40955 11.0075C9.37014 11.048 9.33143 11.0877 9.29288 11.1263L8.99998 11.4192V12.0001H7.02552V16H6L6 12.9999H4V21.0021H6L6 18H7.02552V22L10.0744 22C10.167 22.3109 10.261 22.5908 10.364 22.8347C10.5487 23.2716 10.803 23.6943 11.2321 24.001C11.6553 24.3036 12.1318 24.409 12.5823 24.4556C13.0116 24.5001 13.5346 24.5001 14.1198 24.5L18.38 24.5C18.9653 24.5 19.4882 24.5001 19.9175 24.4556C20.3681 24.409 20.8445 24.3036 21.2678 24.001C21.6969 23.6943 21.9512 23.2716 22.1359 22.8347C22.239 22.5908 22.3329 22.3109 22.4255 22H24.0001V20.5001H24.9899V22L28.2339 22.0001L28.5226 21.5001C28.9409 20.7756 29.2244 20.2377 29.3644 19.5703C29.4902 18.9706 29.4901 18.2983 29.4899 17.3585V17.1416C29.4901 16.2018 29.4902 15.5295 29.3644 14.9298C29.2244 14.2624 28.9409 13.7245 28.5226 13L28.2339 12.5L24.9899 12.5001V13.9969H24.0001V12.0001H22.6666V11.4192L22.3737 11.1263C22.2872 11.0398 22.2172 10.9634 22.1459 10.8851L22.1311 10.8687C22.0684 10.7998 21.9869 10.7102 21.9022 10.6292C21.6737 10.4105 21.4077 10.2378 21.0249 10.1371C20.7066 10.0534 20.3298 10.0267 19.8913 10.0135C19.6441 10.0061 19.3498 10.0028 18.9993 10.0013V9.50001H19.9999V7.50001H11.9966V9.50001ZM14.982 9.50001H16.9993V12.0001H17.9993C18.8397 12.0001 19.4152 12.0002 19.8315 12.0126C20.2629 12.0255 20.4383 12.0509 20.5161 12.0713L20.5194 12.0741C20.5502 12.1035 20.586 12.1426 20.6666 12.2311V14.0001H22.0001V15.9969H26.9899V14.5L27.0701 14.5C27.2729 14.8812 27.3572 15.1027 27.407 15.3403C27.4848 15.7111 27.4899 16.1637 27.4899 17.25C27.4899 18.3364 27.4848 18.789 27.407 19.1598C27.3572 19.3974 27.2729 19.6189 27.0701 20H26.9899V18.5001H22.0001V20H20.8993L20.7007 20.7412C20.5311 21.3744 20.4113 21.7777 20.2937 22.056C20.1827 22.3186 20.1146 22.367 20.105 22.3738C20.0912 22.3837 20.0158 22.4348 19.7116 22.4663C19.3976 22.4988 18.979 22.5 18.3332 22.5L14.1666 22.5C13.5208 22.5 13.1023 22.4988 12.7883 22.4663C12.4841 22.4348 12.4091 22.3839 12.3952 22.374C12.3857 22.3673 12.3172 22.3186 12.2062 22.056C12.0886 21.7778 11.9688 21.3744 11.7992 20.7412L11.6006 20L9.02552 20V14.0001H11V12.2494C11.1153 12.1375 11.1534 12.1096 11.1959 12.0967C11.2086 12.0928 11.2216 12.0903 11.2372 12.0872C11.2464 12.0854 11.2565 12.0835 11.2679 12.081C11.4072 12.0504 11.6427 12.0255 12.0988 12.0127C12.5458 12.0002 13.1425 12.0001 13.982 12.0001H14.982V9.50001Z" fill="#000000" class="bmwfcol"/><title>engine_rays_rg_48</title></svg>