<svg width="48" height="48" viewBox="0 0 32 32" xmlns="http://www.w3.org/2000/svg"><path d="M20 8H18V9.00047C19.3447 9.00333 20.211 9.0224 20.8211 9.14442C21.2503 9.23025 21.5996 9.37194 21.9286 9.59968C22.2074 9.79268 22.4521 10.0376 22.6743 10.2601L23 10.5858V11H25V14H26V12L29.5773 12L29.866 12.5C30.3676 13.3688 30.6929 13.99 30.8537 14.7567C31.0003 15.4556 31.0002 16.2427 31 17.3858V17.6142C31.0002 18.7572 31.0003 19.5444 30.8537 20.2433C30.6929 21.01 30.3676 21.6312 29.866 22.5L29.5773 23L26 23V21H25V23H22.761C22.6373 23.4268 22.5144 23.8031 22.3789 24.1237C22.1645 24.631 21.8779 25.1005 21.4051 25.4385C20.9381 25.7723 20.4065 25.8933 19.8805 25.9478C19.3758 26 18.7574 26 18.0486 26L12.9514 26C12.2426 26 11.6241 26 11.1194 25.9478C10.5934 25.8934 10.0618 25.7723 9.59483 25.4385C9.12203 25.1005 8.83549 24.631 8.62109 24.1237C8.48557 23.8031 8.36274 23.4268 8.23903 23L5 23V18H3L3 22H1V12H3L3 16H5V11H7V10.5858L7.32569 10.2601C7.54792 10.0376 7.79264 9.79268 8.07141 9.59968C8.40037 9.37194 8.74972 9.23025 9.17888 9.14442C9.78899 9.0224 10.6553 9.00333 12 9.00047V8H10V6H20V8ZM14 8V11H13C10.9352 11 10.0715 11.0055 9.57112 11.1056C9.37528 11.1447 9.28713 11.1906 9.20984 11.2441C9.14899 11.2862 9.08634 11.3388 9 11.4198V13H7V21L9.76726 21L9.96586 21.7412C10.169 22.4993 10.316 22.9965 10.4633 23.3451C10.6055 23.6815 10.7062 23.7745 10.758 23.8115C10.8155 23.8527 10.9457 23.9191 11.3254 23.9584C11.7149 23.9988 12.2292 24 13 24L17.9999 24C18.7707 24 19.2851 23.9987 19.6746 23.9584C20.0542 23.9191 20.1844 23.8526 20.242 23.8115C20.2937 23.7745 20.3945 23.6815 20.5367 23.345C20.684 22.9965 20.831 22.4993 21.0341 21.7412L21.2327 21H23V19H28V21L28.4157 21C28.7043 20.4698 28.8265 20.1655 28.8963 19.8327C28.9949 19.3626 29 18.7947 29 17.5C29 16.2053 28.9949 15.6374 28.8963 15.1673C28.8265 14.8345 28.7043 14.5302 28.4157 14L28 14V16H23V13H21V11.4198C20.9137 11.3388 20.851 11.2862 20.7902 11.2441C20.7129 11.1906 20.6247 11.1447 20.4289 11.1056C19.9285 11.0055 19.0648 11 17 11H16V8H14Z" fill="#000000" class="bmwfcol"/><title>engine-ice_rg_48</title></svg>