<svg width="48" height="48" viewBox="0 0 32 32" xmlns="http://www.w3.org/2000/svg"><path d="M20.8429 1.84289C21.4057 1.28011 22.1728 1 23 1C23.8272 1 24.5943 1.28011 25.1571 1.84289C25.7199 2.40567 26 3.17275 26 4C26 4.82725 25.7199 5.59433 25.1571 6.15711C24.5943 6.71989 23.8272 7 23 7C22.1728 7 21.4057 6.71989 20.8429 6.15711C20.2801 5.59433 20 4.82725 20 4C20 3.17275 20.2801 2.40567 20.8429 1.84289ZM22.2571 3.25711C22.1199 3.39433 22 3.62725 22 4C22 4.37275 22.1199 4.60567 22.2571 4.74289C22.3943 4.88011 22.6272 5 23 5C23.3728 5 23.6057 4.88011 23.7429 4.74289C23.8801 4.60567 24 4.37275 24 4C24 3.62725 23.8801 3.39433 23.7429 3.25711C23.6057 3.11989 23.3728 3 23 3C22.6272 3 22.3943 3.11989 22.2571 3.25711Z" fill="#000000" class="bmwfcol"/><path d="M20 10.6533V18H22V30H20V20H18V9.51623L18.4679 9.22218C19.743 8.42095 21.2888 8 23 8C24.7112 8 26.257 8.42095 27.5321 9.22218L28 9.51623V20H26V30H24V18H26V10.6533C25.1637 10.2372 24.1569 10 23 10C21.8431 10 20.8363 10.2372 20 10.6533Z" fill="#000000" class="bmwfcol"/><path d="M2 17H16V15H10V13H13C13.5159 13 14.0414 12.8378 14.4396 12.4396C14.8378 12.0414 15 11.5159 15 11V7C15 6.48408 14.8378 5.95856 14.4396 5.56039C14.0414 5.16222 13.5159 5 13 5H5C4.48408 5 3.95856 5.16222 3.56039 5.56039C3.16222 5.95856 3 6.48408 3 7V11C3 11.5159 3.16222 12.0414 3.56039 12.4396C3.95856 12.8378 4.48408 13 5 13H8V15H2V17ZM13 7V11H5V7H13Z" fill="#000000" class="bmwfcol"/><title>ereception_rg_48</title></svg>