<svg width="48" height="48" viewBox="0 0 32 32" xmlns="http://www.w3.org/2000/svg"><path d="M12.1539 21.1539L15.9998 17.3079L19.8457 21.1539L21.1539 19.8457L17.3079 15.9998L21.1539 12.1539L19.8457 10.8457L15.9998 14.6916L12.1539 10.8457L10.8457 12.1539L14.6916 15.9998L10.8457 19.8457L12.1539 21.1539Z" fill="#000000" class="bmwfcol"/><path d="M16 3C12.1728 3 8.90567 4.28011 6.59289 6.59289C4.28011 8.90567 3 12.1728 3 16C3 19.8272 4.28011 23.0943 6.59289 25.4071C8.90567 27.7199 12.1728 29 16 29C19.8272 29 23.0943 27.7199 25.4071 25.4071C27.7199 23.0943 29 19.8272 29 16C29 12.1728 27.7199 8.90567 25.4071 6.59289C23.0943 4.28011 19.8272 3 16 3ZM5 16C5 12.6272 6.11989 9.89433 8.00711 8.00711C9.89433 6.11989 12.6272 5 16 5C19.3728 5 22.1057 6.11989 23.9929 8.00711C25.8801 9.89433 27 12.6272 27 16C27 19.3728 25.8801 22.1057 23.9929 23.9929C22.1057 25.8801 19.3728 27 16 27C12.6272 27 9.89433 25.8801 8.00711 23.9929C6.11989 22.1057 5 19.3728 5 16Z" fill="#000000" class="bmwfcol"/><title>error_sign_rg_48</title></svg>