<svg width="48" height="48" viewBox="0 0 32 32" xmlns="http://www.w3.org/2000/svg"><path d="M12.6539 23.6519L15.9998 20.306L19.3457 23.6519L20.6539 22.3438L17.3079 18.9978L20.6539 15.6519L19.3457 14.3438L15.9998 17.6897L12.6539 14.3438L11.3457 15.6519L14.6916 18.9978L11.3457 22.3438L12.6539 23.6519Z" fill="#000000" class="bmwfcol"/><path d="M18.5976 4.5C17.4429 2.5 14.5561 2.5 13.4014 4.5L2.43179 23.5C1.27709 25.5 2.72047 28 5.02987 28H26.9692C29.2786 28 30.7219 25.5 29.5672 23.5L18.5976 4.5ZM15.1335 5.5C15.5184 4.83333 16.4806 4.83333 16.8655 5.5L27.8352 24.5C28.2201 25.1667 27.739 26 26.9692 26H5.02987C4.26007 26 3.77894 25.1667 4.16384 24.5L15.1335 5.5Z" fill="#000000" class="bmwfcol"/><title>error_warning_sign_rg_48</title></svg>