<svg width="48" height="48" viewBox="0 0 32 32" xmlns="http://www.w3.org/2000/svg"><path d="M7.34683 2.94962C7.84482 2.47535 8.48096 2.375 8.99102 2.375C9.50108 2.375 10.1372 2.47535 10.6352 2.94962C11.1402 3.43056 11.316 4.11539 11.316 4.85556C11.316 5.59572 11.1402 6.28055 10.6352 6.76149C10.1372 7.23576 9.50108 7.33611 8.99102 7.33611C8.48096 7.33611 7.84482 7.23576 7.34683 6.76149C6.84184 6.28055 6.66602 5.59572 6.66602 4.85556C6.66602 4.11539 6.84184 3.43056 7.34683 2.94962ZM8.57279 4.38837C8.54464 4.47314 8.51602 4.61967 8.51602 4.85556C8.51602 5.09144 8.54464 5.23797 8.57279 5.32274C8.59838 5.3998 8.62281 5.42195 8.62281 5.42195C8.62462 5.42371 8.63907 5.43776 8.69107 5.45321C8.7501 5.47074 8.84548 5.48611 8.99102 5.48611C9.13655 5.48611 9.23193 5.47074 9.29096 5.45321C9.34297 5.43776 9.35757 5.42355 9.35938 5.4218C9.35938 5.4218 9.38365 5.3998 9.40924 5.32274C9.43739 5.23797 9.46602 5.09144 9.46602 4.85556C9.46602 4.61967 9.43739 4.47314 9.40924 4.38837C9.38365 4.3113 9.35922 4.28916 9.35922 4.28916C9.35741 4.28741 9.34297 4.27335 9.29096 4.2579C9.23193 4.24037 9.13655 4.225 8.99102 4.225C8.84548 4.225 8.7501 4.24037 8.69107 4.2579C8.63907 4.27335 8.62446 4.28756 8.62265 4.28931C8.62265 4.28931 8.59838 4.31131 8.57279 4.38837Z" fill="#000000" class="bmwfcol"/><path d="M7.5 10.148V10.7005H5.5V9.96782C5.5 9.13361 6.10038 8.59378 6.69495 8.31558C7.29827 8.03329 8.09937 7.90039 9.05 7.90039C9.99733 7.90039 10.7861 8.03214 11.3767 8.32605C11.9929 8.63267 12.5 9.1893 12.5 9.96781V10.7005H10.5V10.1238L10.4857 10.1166C10.2889 10.0187 9.85267 9.90039 9.05 9.90039C8.25063 9.90039 7.77673 10.0175 7.54255 10.1271C7.52649 10.1346 7.51237 10.1416 7.5 10.148Z" fill="#000000" class="bmwfcol"/><path d="M24.6609 13.075L18.293 6.70703L19.7072 5.29282L26.0744 11.66V6.0752L27.9244 7.92519V14.925H20.9242L19.0742 13.075H24.6609Z" fill="#000000" class="bmwfcol"/><path d="M6.50004 12H12C12.887 12 13.5831 12.154 14.28 12.5895C14.878 12.9633 15.4497 13.5351 16.1337 14.2194L21.9142 20H25.4999C26.7772 20 27.9193 20.4301 28.7446 21.2554C29.5699 22.0807 30 23.2228 30 24.5C30 25.7772 29.5699 26.9193 28.7446 27.7446C27.9193 28.5699 26.7772 29 25.5 29L20 29C19.113 29 18.4169 28.846 17.72 28.4105C17.122 28.0367 16.5503 27.4649 15.8663 26.7805L10.0858 21L6.5 21C5.22275 21 4.08067 20.5699 3.25539 19.7446C2.43011 18.9193 2 17.7772 2 16.5C2 15.2228 2.43011 14.0807 3.25539 13.2554C4.08067 12.4301 5.22279 12 6.50004 12ZM4.66961 14.6696C4.26989 15.0693 4 15.6772 4 16.5C4 17.3228 4.26989 17.9307 4.66961 18.3304C5.06933 18.7301 5.67725 19 6.5 19L10.9142 19L17.2071 25.2929C17.9903 26.0761 18.3993 26.4765 18.78 26.7145C19.0831 26.9039 19.387 27 20 27L25.5 27C26.3228 27 26.9307 26.7301 27.3304 26.3304C27.7301 25.9307 28 25.3228 28 24.5C28 23.6772 27.7301 23.0693 27.3304 22.6696C26.9307 22.2699 26.3228 22 25.5 22H21.0858L14.7929 15.7071C14.0097 14.9239 13.6007 14.5234 13.22 14.2855C12.9169 14.096 12.613 14 12 14H6.50061C5.67786 14 5.06933 14.2699 4.66961 14.6696Z" fill="#000000" class="bmwfcol"/><title>escalator_downwards_arrow_rg_48</title></svg>