<svg width="48" height="48" viewBox="0 0 32 32" xmlns="http://www.w3.org/2000/svg"><path d="M25.5 12L20 12C19.113 12 18.4169 12.154 17.72 12.5895C17.122 12.9633 16.5503 13.5351 15.8663 14.2194L10.0858 20H6.50007C5.2228 20 4.08067 20.4301 3.25539 21.2554C2.43011 22.0807 2 23.2228 2 24.5C2 25.7772 2.43011 26.9193 3.25539 27.7446C4.08067 28.5699 5.22275 29 6.5 29L12 29C12.887 29 13.5831 28.846 14.28 28.4105C14.878 28.0367 15.4496 27.4649 16.1337 26.7806L21.9142 21L25.5 21C26.7772 21 27.9193 20.5699 28.7446 19.7446C29.5699 18.9193 30 17.7772 30 16.5C30 15.2228 29.5699 14.0807 28.7446 13.2554C27.9193 12.4301 26.7772 12 25.5 12ZM27.3304 14.6696C27.7301 15.0693 28 15.6772 28 16.5C28 17.3228 27.7301 17.9307 27.3304 18.3304C26.9307 18.7301 26.3228 19 25.5 19L21.0858 19L14.7929 25.2929C14.0097 26.0761 13.6007 26.4765 13.22 26.7145C12.9169 26.9039 12.613 27 12 27L6.5 27C5.67725 27 5.06933 26.7301 4.66961 26.3304C4.26989 25.9307 4 25.3228 4 24.5C4 23.6772 4.26989 23.0693 4.66961 22.6696C5.06933 22.2699 5.67725 22 6.50002 22H10.9142L17.2071 15.7071C17.9903 14.9239 18.3993 14.5234 18.78 14.2855C19.0831 14.096 19.387 14 20 14L25.4994 14C26.3221 14 26.9307 14.2699 27.3304 14.6696Z" fill="#000000" class="bmwfcol"/><path d="M5.54255 17.2269C5.52649 17.2344 5.51237 17.2414 5.5 17.2478V18.5723C4.79494 18.6761 4.11857 18.8923 3.5 19.225L3.5 17.0676C3.5 16.2334 4.10038 15.6936 4.69495 15.4154C5.29827 15.1331 6.09937 15.0002 7.05 15.0002C7.99733 15.0002 8.7861 15.1319 9.37675 15.4259C9.99294 15.7325 10.5 16.2891 10.5 17.0676V17.4645L9.46447 18.5H8.5V17.2236L8.48575 17.2164C8.2889 17.1185 7.85267 17.0002 7.05 17.0002C6.25063 17.0002 5.77673 17.1173 5.54255 17.2269Z" fill="#000000" class="bmwfcol"/><path d="M5.34566 9.94962C5.84365 9.47535 6.47978 9.375 6.98984 9.375C7.49991 9.375 8.13604 9.47535 8.63403 9.94962C9.13902 10.4306 9.31484 11.1154 9.31484 11.8556C9.31484 12.5957 9.13902 13.2805 8.63403 13.7615C8.13604 14.2358 7.49991 14.3361 6.98984 14.3361C6.47978 14.3361 5.84365 14.2358 5.34566 13.7615C4.84067 13.2805 4.66484 12.5957 4.66484 11.8556C4.66484 11.1154 4.84067 10.4306 5.34566 9.94962ZM6.57162 11.3884C6.54347 11.4731 6.51484 11.6197 6.51484 11.8556C6.51484 12.0914 6.54347 12.238 6.57162 12.3227C6.59721 12.3998 6.62164 12.422 6.62164 12.422C6.62345 12.4237 6.63789 12.4378 6.6899 12.4532C6.74893 12.4707 6.84431 12.4861 6.98984 12.4861C7.13538 12.4861 7.23076 12.4707 7.28979 12.4532C7.3418 12.4378 7.3564 12.4236 7.35821 12.4218C7.35821 12.4218 7.38248 12.3998 7.40807 12.3227C7.43622 12.238 7.46484 12.0914 7.46484 11.8556C7.46484 11.6197 7.43622 11.4731 7.40807 11.3884C7.38248 11.3113 7.35805 11.2892 7.35805 11.2892C7.35624 11.2874 7.3418 11.2733 7.28979 11.2579C7.23076 11.2404 7.13538 11.225 6.98984 11.225C6.84431 11.225 6.74893 11.2404 6.6899 11.2579C6.63789 11.2733 6.62329 11.2876 6.62148 11.2893C6.62148 11.2893 6.59721 11.3113 6.57162 11.3884Z" fill="#000000" class="bmwfcol"/><path d="M13.9263 2.0752L20.9271 2.0752V9.07441L19.0771 10.9244V5.3376L12.7072 11.7075L11.293 10.2933L17.6611 3.92519L12.0763 3.92519L13.9263 2.0752Z" fill="#000000" class="bmwfcol"/><title>escalator_upwards_arrow_rg_48</title></svg>