<svg width="48" height="48" viewBox="0 0 32 32" xmlns="http://www.w3.org/2000/svg"><path d="M18.781 3.61712C17.9173 3.61712 17.1563 3.71017 16.5898 4.14651C15.9565 4.62765 15.6835 5.27697 15.6835 6.19451C15.6835 6.93742 15.9106 7.55264 16.4238 7.98231L16.4246 7.98304C16.7637 8.26363 17.1562 8.42155 17.7105 8.60279L17.7121 8.6033L19.0812 9.03844L19.0827 9.0389C19.3048 9.10764 19.5118 9.17503 19.6818 9.24021C19.8583 9.30791 19.9723 9.36505 20.0251 9.40732C20.1182 9.48178 20.173 9.60148 20.173 9.82427C20.173 10.0452 20.1017 10.1893 19.9436 10.2946L19.9419 10.2958C19.763 10.4178 19.4788 10.4839 18.8659 10.4839C18.0089 10.4839 16.852 10.2555 15.997 10.0845L15.7578 10.0367V11.9965L15.9222 12.027C16.6603 12.1641 17.8253 12.3804 18.7385 12.3804C19.9373 12.3804 20.6906 12.1862 21.3036 11.7005C21.9116 11.221 22.1862 10.5534 22.1862 9.73936C22.1862 9.00657 21.9271 8.33989 21.448 7.93207C21.0821 7.61382 20.5931 7.45464 20.0096 7.26708L18.629 6.83167C18.1864 6.69131 17.9976 6.62573 17.8383 6.51109C17.7443 6.44 17.6967 6.33909 17.6967 6.08837C17.6967 5.97947 17.7089 5.90539 17.7333 5.84652C17.7563 5.79087 17.796 5.73519 17.874 5.67333C18.0347 5.55172 18.2819 5.5136 18.8446 5.5136C19.1805 5.5136 19.6848 5.58473 20.2061 5.6789C20.7233 5.77235 21.2427 5.8857 21.6035 5.96528L21.8466 6.0189V4.08148L21.6903 4.04648C20.9835 3.88825 19.7303 3.61712 18.781 3.61712Z" fill="#000000" class="bmwfcol"/><path d="M26.3077 3.61712C25.4958 3.61712 24.8869 3.7764 24.4154 4.0438C23.9435 4.31143 23.6242 4.67893 23.3788 5.0694C22.9034 5.82775 22.7327 6.72192 22.7327 8.11552C22.7327 9.43238 22.9028 10.3609 23.3481 11.0573C23.5899 11.4341 23.8981 11.7706 24.3676 12.0097C24.8341 12.2473 25.4437 12.3804 26.2759 12.3804C27.2249 12.3804 28.5101 12.2301 29.288 12.1129L29.4582 12.0872V7.5016H27.4874V10.4491C27.2552 10.4701 26.9185 10.4946 26.5518 10.4946C25.6785 10.4946 25.256 10.3438 25.028 9.93848L25.0273 9.9373C24.8026 9.54403 24.7459 8.9705 24.7459 8.08368C24.7459 7.18552 24.8214 6.6532 25.022 6.25211C25.15 5.99606 25.3049 5.83058 25.5208 5.72368C25.7438 5.61335 26.0505 5.55605 26.4988 5.55605C26.7497 5.55605 27.0564 5.58633 27.3673 5.63813C27.9132 5.73262 28.4706 5.85877 28.938 5.965L29.1823 6.02053V4.09496L29.0294 4.0579C28.6788 3.97289 28.1854 3.85487 27.6376 3.75819C27.2199 3.68322 26.7499 3.61712 26.3077 3.61712Z" fill="#000000" class="bmwfcol"/><path d="M15.0941 3.79755H9.02655V12.2H15.2745V10.3035H11.0186V8.87803H14.8606V6.98155H11.0186V5.69403H15.0941V3.79755Z" fill="#000000" class="bmwfcol"/><path d="M22 23C19.9728 23 18.2057 22.3199 16.9429 21.0571C15.6801 19.7943 15 18.0272 15 16V14H17C19.0272 14 20.7943 14.6801 22.0571 15.9429C22.7072 16.593 23.2028 17.3767 23.5308 18.2607C24.4313 17.4338 25.6433 17 27 17H29V19C29 20.4272 28.5199 21.6943 27.6071 22.6071C26.6943 23.5199 25.4272 24 24 24V26.6187L23.5453 26.9145C21.4586 28.2721 18.8877 29 16 29C12.1728 29 8.90567 27.7199 6.59289 25.4071C4.28011 23.0943 3 19.8272 3 16C3 12.1728 4.28011 8.90567 6.59289 6.59289C6.72548 6.4603 6.86121 6.3311 7 6.20535V9.19659C5.7283 10.9763 5 13.2801 5 16C5 19.3728 6.11989 22.1057 8.00711 23.9929C9.89433 25.8801 12.6272 27 16 27C18.3302 27 20.3533 26.4647 22 25.5165V23ZM24.8071 19.8071C24.3199 20.2943 24 21.0272 24 22C24.9728 22 25.7057 21.6801 26.1929 21.1929C26.6801 20.7057 27 19.9728 27 19C26.0272 19 25.2943 19.3199 24.8071 19.8071ZM17 16C17 17.5728 17.5199 18.8057 18.3571 19.6429C19.1943 20.4801 20.4272 21 22 21C22 19.4272 21.4801 18.1943 20.6429 17.3571C19.8057 16.5199 18.5728 16 17 16Z" fill="#000000" class="bmwfcol"/><title>esg_rg_48</title></svg>