<svg width="48" height="48" viewBox="0 0 32 32" xmlns="http://www.w3.org/2000/svg"><path d="M9.41421 3H3V29H21.4142L25.4142 25L21.4142 21H19.4142L21.4142 19L17.4142 15H15.4142L17.4142 13L13.4142 9H11.4142L13.4142 7L9.41421 3ZM16.5858 21H5V17H16.5858L18.5858 19L16.5858 21ZM5 23H20.5858L22.5858 25L20.5858 27H5V23ZM12.5858 15H5V11H12.5858L14.5858 13L12.5858 15ZM8.58579 9H5V5H8.58579L10.5858 7L8.58579 9Z" fill="#000000" class="bmwfcol"/><path d="M22.4142 8L25.4142 11H22.5857L18.5858 7.00003L22.5858 3H25.4142L22.4142 6H30V8H22.4142Z" fill="#000000" class="bmwfcol"/><title>eu_energy_label_rg_48</title></svg>