<svg width="48" height="48" viewBox="0 0 32 32" xmlns="http://www.w3.org/2000/svg"><path d="M19.5 13.5065V15.5801C18.1665 15.9192 16.9633 16.0368 16.0208 16.0564L16.0104 16.0566H16.0001C14.9032 16.0566 14.0599 15.8723 13.4045 15.4983C12.7289 15.1129 12.3611 14.5873 12.1167 14.1267C11.6061 13.1643 11.4401 11.7527 11.4401 10.0283C11.4401 8.3039 11.6061 6.89229 12.1167 5.92994C12.3611 5.46929 12.7289 4.94376 13.4045 4.5583C14.0599 4.18433 14.9032 4 16.0001 4H16.0104L16.0208 4.00022C16.9633 4.01977 18.1665 4.13739 19.5 4.47649V6.5501C18.146 6.15067 16.9177 6.02004 15.9898 6.00001C15.1078 6.00117 14.6465 6.15226 14.3957 6.29541C14.1639 6.42763 14.0245 6.60141 13.8834 6.86733C13.6809 7.24899 13.5253 7.9209 13.466 9H18V11H13.463C13.5199 12.1123 13.6774 12.801 13.8834 13.1893C14.0245 13.4552 14.1639 13.629 14.3957 13.7612C14.6465 13.9044 15.1078 14.0555 15.9898 14.0566C16.9177 14.0366 18.146 13.9059 19.5 13.5065Z" fill="#000000" class="bmwfcol"/><path d="M29.7073 16.2928C29.3996 15.9852 28.9703 15.6299 28.3683 15.4031C27.7593 15.1737 27.0434 15.1018 26.1992 15.2527C24.7372 15.5139 22.8561 16.4492 20.3112 18.457C19.9401 18.1457 19.4742 18 19 18L14.1319 18L10.3999 17L10.1895 16.9999C9.6121 16.9991 9.03821 16.9983 8.38659 17.397C8.09317 17.5766 7.8062 17.8208 7.49345 18.113C7.1799 18.4059 6.79501 18.7908 6.30654 19.2793L1.58582 24L7.58582 30H9.41424L11.4142 28H15.0287C16.0043 28 16.7763 28 17.3964 27.9674C18.0254 27.9343 18.5664 27.8653 19.0664 27.6987C20.0439 27.3729 20.7035 26.7123 21.589 25.8256L30.4146 16.9999L29.7073 16.2928ZM13.8686 20L19 20L19.0001 20.5776C18.215 21.3183 17.6684 21.6398 17.1839 21.8013C16.6157 21.9907 16.0357 22 15.0003 22H11V24L15.0816 24C16.0167 24.0003 16.911 24.0005 17.8164 23.6987C18.7737 23.3795 19.6532 22.761 20.7071 21.7071L20.9999 21.4143L21.0001 20.4697C23.7542 18.211 25.4853 17.4119 26.551 17.2215C26.9035 17.1585 27.1747 17.1636 27.386 17.2001L20.2932 24.2929C19.2395 25.3465 18.9135 25.6415 18.4339 25.8013C18.1838 25.8847 17.8497 25.9407 17.2913 25.9701C16.7299 25.9997 16.0107 26 15 26H10.5858L8.58582 28H8.41424L4.41424 24L7.70714 20.7071C8.2122 20.202 8.57307 19.8414 8.85874 19.5745C9.14812 19.3042 9.31542 19.1734 9.43053 19.103C9.55683 19.0257 9.59838 19.0031 10.1378 19.0003L13.8686 20Z" fill="#000000" class="bmwfcol"/><title>euro_symbol_on_hand_rg_48</title></svg>