<svg width="48" height="48" viewBox="0 0 32 32" xmlns="http://www.w3.org/2000/svg"><path d="M27.5942 14C28.0349 13.5391 28.4068 13.0691 28.7166 12.5857C29.7007 11.0504 30 9.47114 30 7.81818V2H16V7.81818C16 8.56513 16.0611 9.29702 16.2189 10.0166C17.057 10.0343 17.7323 10.0701 18.3209 10.1404C18.0901 9.42098 18 8.65949 18 7.81818V4H28V7.81818C28 9.20885 27.7539 10.3814 27.0328 11.5065C26.5178 12.3101 25.7323 13.1334 24.5358 14H27.5942Z" fill="#000000" class="bmwfcol"/><path d="M24 8V6H22V8H20V10H22V12H24V10H26V8L24 8Z" fill="#000000" class="bmwfcol"/><path d="M13.2361 19.75H10.0858L9 20.8358V23.7907L10.403 26H13.6642L14 25.6642L14.3358 26H17.6458L19 23.781V20.8358L17.9142 19.75H14.7639L14 20.132L13.2361 19.75ZM11 23.2093V21.75H12.7639L13 21.868V23.8358L12.8358 24H11.5021L11 23.2093ZM15 23.8358V21.868L15.2361 21.75H17L17 23.219L16.5233 24H15.1642L15 23.8358Z" fill="#000000" class="bmwfcol"/><path d="M8.0473 12.629C9.27999 12.088 10.1617 12.0001 14 12.0001C17.838 12.0001 18.7213 12.088 19.9531 12.6292C20.4389 12.8429 20.8416 13.2141 21.1886 13.6082C21.5311 13.9973 21.8504 14.4531 22.1303 14.8992C22.3136 15.1913 22.4856 15.4882 22.6418 15.7729C22.9538 15.6527 23.2834 15.5872 23.6351 15.5503C24.4196 15.4679 25.2118 15.5001 25.9994 15.5001V17.5001C25.2561 17.5001 24.5051 17.4551 23.7652 17.5484C24.2383 17.9938 24.6916 18.4452 25.0553 18.8889C25.5253 19.4622 26 20.2012 26 21.0429V30.0001H20V28.8201C15.9453 29.0735 12.0547 29.0735 8 28.8201V30.0001H2V21.0429C2 20.2012 2.47466 19.4622 2.94468 18.8889C3.30842 18.4453 3.76165 17.9939 4.2347 17.5485C3.49472 17.455 2.74348 17.5001 2 17.5001V15.5001C2.97013 15.5001 3.7574 15.4866 4.36415 15.5503C4.71606 15.5872 5.04569 15.6528 5.35786 15.7731C5.51409 15.4881 5.6862 15.1908 5.8696 14.8985C6.14956 14.4522 6.46893 13.9962 6.81154 13.6071C7.13996 13.2342 7.55707 12.8442 8.0473 12.629ZM20.7838 16.5471C20.4515 15.9587 20.0543 15.3466 19.6874 14.9297C19.4277 14.6347 19.2419 14.5016 19.1479 14.4599C18.3642 14.1156 17.9106 14.0001 14 14.0001C10.0888 14.0001 9.63664 14.1156 8.85112 14.4603C8.75816 14.5012 8.57258 14.6336 8.31254 14.9289C7.94563 15.3456 7.54833 15.9581 7.21589 16.5471C8.78618 16.4621 10.3609 16.493 11.9326 16.4972C13.3116 16.5 14.6906 16.5 16.0696 16.4972C17.6394 16.494 19.2155 16.4621 20.7838 16.5471ZM4.53858 20.1C5.50886 20.3014 6.57009 20.4194 8 20.5212V22.5262C6.40454 22.4157 5.17248 22.2835 4 22.0301V28.0001H6V26.6746L7.0727 26.7528C11.7799 27.0959 16.2201 27.0959 20.9273 26.7528L22 26.6746V28.0001H24V22.0311C22.8275 22.2845 21.5955 22.4167 20 22.5271V20.5222C21.4303 20.4203 22.4917 20.3024 23.4621 20.1009C23.132 19.7078 22.6931 19.2809 22.1753 18.8001C22.1524 18.7821 22.0706 18.7292 21.8358 18.6756C21.5537 18.6113 21.1322 18.5636 20.4799 18.5345C19.0276 18.4699 17.5702 18.4941 16.117 18.4972C14.7052 18.4972 13.2934 18.5 11.8816 18.4972C9.89102 18.4932 8.5089 18.4905 7.51964 18.5345C6.86696 18.5636 6.44499 18.6113 6.16245 18.6757C5.95268 18.7235 5.86489 18.7708 5.83219 18.7932C5.31148 19.2764 4.8702 19.7053 4.53858 20.1Z" fill="#000000" class="bmwfcol"/><title>extended-warraty_rg_48</title></svg>