<svg width="48" height="48" viewBox="0 0 32 32" xmlns="http://www.w3.org/2000/svg"><path d="M3.29785 16.2137C6.40523 21.119 11.2003 24 16 24C20.7998 24 25.5948 21.119 28.7022 16.2137V15.7863C25.5948 10.881 20.7998 8 16 8C11.2003 8 6.40523 10.881 3.29785 15.7863V16.2137ZM1.44578 14.9766C4.83527 9.45881 10.2944 6 16 6C21.7057 6 27.1648 9.45881 30.5543 14.9766L30.7022 15.2174V16.7826L30.5543 17.0234C27.1648 22.5412 21.7057 26 16 26C10.2944 26 4.83527 22.5412 1.44578 17.0234L1.29785 16.7826V15.2174L1.44578 14.9766Z" fill="#000000" class="bmwfcol"/><path d="M13.0821 13.0821C12.4199 13.7443 12 14.7272 12 16C12 17.2728 12.4199 18.2557 13.0821 18.9179C13.7444 19.5801 14.7273 20 16 20C18.4164 20 20 18.241 20 16C20 14.7272 19.5802 13.7443 18.9179 13.0821C18.2557 12.4199 17.2728 12 16 12C14.7273 12 13.7444 12.4199 13.0821 13.0821ZM11.6679 11.6679C12.7557 10.5801 14.2728 10 16 10C17.7273 10 19.2444 10.5801 20.3321 11.6679C21.4199 12.7557 22 14.2728 22 16C22 19.2819 19.5836 22 16 22C14.2728 22 12.7557 21.4199 11.6679 20.3321C10.5802 19.2443 10 17.7272 10 16C10 14.2728 10.5802 12.7557 11.6679 11.6679Z" fill="#000000" class="bmwfcol"/><title>eye_rg_48</title></svg>