<svg width="48" height="48" viewBox="0 0 32 32" xmlns="http://www.w3.org/2000/svg"><path d="M10.9187 6.91867C12.5556 6.31931 14.2664 6 16 6C21.7057 6 27.1648 9.45881 30.5543 14.9766L30.7022 15.2174V16.7826L30.5543 17.0234C29.3265 19.0222 27.827 20.7508 26.1427 22.1427L24.7221 20.7221C26.2181 19.5146 27.5718 17.9981 28.7022 16.2137V15.7863C25.5948 10.881 20.7998 8 16 8C14.8263 8 13.6529 8.17228 12.5043 8.50432L10.9187 6.91867Z" fill="#000000" class="bmwfcol"/><path d="M21.0814 25.0814C19.4444 25.6807 17.7336 26 16 26C10.2944 26 4.83527 22.5412 1.44578 17.0234L1.29785 16.7826V15.2174L1.44578 14.9766C2.6736 12.9778 4.173 11.2492 5.85732 9.85732L7.27796 11.278C5.78193 12.4854 4.42823 14.0019 3.29785 15.7863V16.2137C6.40523 21.119 11.2003 24 16 24C17.1737 24 18.3472 23.8277 19.4957 23.4957L21.0814 25.0814Z" fill="#000000" class="bmwfcol"/><path d="M21.7576 17.7576C21.9166 17.2005 22 16.61 22 16C22 14.2728 21.4199 12.7557 20.3321 11.6679C19.2444 10.5801 17.7273 10 16 10C15.3769 10 14.7812 10.0755 14.2231 10.2231L16 12C17.2728 12 18.2557 12.4199 18.9179 13.0821C19.5802 13.7443 20 14.7272 20 16L21.7576 17.7576Z" fill="#000000" class="bmwfcol"/><path d="M16 20L17.7631 21.7631C17.2154 21.9172 16.6255 22 16 22C14.2728 22 12.7557 21.4199 11.6679 20.3321C10.5802 19.2443 10 17.7272 10 16C10 15.3769 10.0755 14.7812 10.2231 14.2231L12 16C12 17.2728 12.4199 18.2557 13.0821 18.9179C13.7444 19.5801 14.7273 20 16 20Z" fill="#000000" class="bmwfcol"/><path d="M5.41406 4L29.4141 28H26.5856L2.58564 4H5.41406Z" fill="#000000" class="bmwfcol"/><title>eye-crossed-out_rg_48</title></svg>