<svg width="48" height="48" viewBox="0 0 32 32" xmlns="http://www.w3.org/2000/svg"><path d="M7 6H11V4H7C6.17705 4 5.3869 4.22388 4.80539 4.80539C4.22388 5.3869 4 6.17705 4 7V11H6V7C6 6.52295 6.12612 6.3131 6.21961 6.21961C6.3131 6.12612 6.52295 6 7 6Z" fill="#000000" class="bmwfcol"/><path d="M25 6H21V4H25C25.823 4 26.6131 4.22388 27.1946 4.80539C27.7761 5.3869 28 6.17705 28 7V11H26V7C26 6.52295 25.8739 6.3131 25.7804 6.21961C25.6869 6.12612 25.4771 6 25 6Z" fill="#000000" class="bmwfcol"/><path d="M25 26H21V28H25C25.823 28 26.6131 27.7761 27.1946 27.1946C27.7761 26.6131 28 25.823 28 25V21H26V25C26 25.4771 25.8739 25.6869 25.7804 25.7804C25.6869 25.8739 25.4771 26 25 26Z" fill="#000000" class="bmwfcol"/><path d="M7 26H11V28H7C6.17705 28 5.3869 27.7761 4.80539 27.1946C4.22388 26.6131 4 25.823 4 25V21H6V25C6 25.4771 6.12612 25.6869 6.21961 25.7804C6.3131 25.8739 6.52295 26 7 26Z" fill="#000000" class="bmwfcol"/><path d="M9.49988 11C9.49988 10.1716 10.1715 9.50003 10.9999 9.50003C11.8283 9.50003 12.4999 10.1716 12.4999 11C12.4999 11.8285 11.8283 12.5 10.9999 12.5C10.1715 12.5 9.49988 11.8285 9.49988 11Z" fill="#000000" class="bmwfcol"/><path d="M19.4999 11C19.4999 10.1716 20.1715 9.50003 20.9999 9.50003C21.8283 9.50003 22.4999 10.1716 22.4999 11C22.4999 11.8285 21.8283 12.5 20.9999 12.5C20.1715 12.5 19.4999 11.8285 19.4999 11Z" fill="#000000" class="bmwfcol"/><path d="M14.6984 11L12.8852 17.7994L13.319 18.2333C13.8292 18.7439 14.5847 19.5 16 19.5H17V17.5H16C15.619 17.5 15.3847 17.3994 15.1199 17.1812L16.7683 11H14.6984Z" fill="#000000" class="bmwfcol"/><path d="M11 21.0376V23.2423C12.3713 23.7758 14.0937 24.0432 16 24.0432C17.9063 24.0432 19.6287 23.7758 21 23.2423V21.0376C19.952 21.6337 18.2475 22.0432 16 22.0432C13.7525 22.0432 12.048 21.6337 11 21.0376Z" fill="#000000" class="bmwfcol"/><title>face_in_target_frame_rg_48</title></svg>