<svg width="48" height="48" viewBox="0 0 32 32" xmlns="http://www.w3.org/2000/svg"><path d="M20.536 28V18.712H23.6467L24.112 15.1013H20.536V12.7973C20.536 11.752 20.8267 11.0387 22.3253 11.0387H24.2373V7.80933C23.3117 7.71113 22.3815 7.6635 21.4507 7.66667C18.6947 7.66667 16.808 9.34933 16.808 12.44V15.1013H13.6907V18.712H16.808V28H5.33333C4.59695 28 4 27.403 4 26.6667V5.33333C4 4.59695 4.59695 4 5.33333 4H26.6667C27.403 4 28 4.59695 28 5.33333V26.6667C28 27.403 27.403 28 26.6667 28H20.536Z" fill="#000000" class="bmwfcol"/><title>facebook_rg_48</title></svg>