<svg width="48" height="48" viewBox="0 0 32 32" xmlns="http://www.w3.org/2000/svg"><path d="M4.36602 1.70575L7.36602 6.9019L5.63397 7.9019L2.63397 2.70575L4.36602 1.70575Z" fill="#000000" class="bmwfcol"/><path d="M8 8.5C7.17157 8.5 6.5 9.17157 6.5 10C6.5 10.8284 7.17157 11.5 8 11.5C8.82843 11.5 9.5 10.8284 9.5 10C9.5 9.17157 8.82843 8.5 8 8.5Z" fill="#000000" class="bmwfcol"/><path d="M24 23.4999L20.5 23.4999V21.4999L24 21.4999V23.4999Z" fill="#000000" class="bmwfcol"/><path d="M15 23.4999L18.5 23.4999V21.4999H15V23.4999Z" fill="#000000" class="bmwfcol"/><path d="M13.2656 15L11 15V26H8.99996L8.99996 14.95L7.99997 14.95L6.99996 16.725V26H2V28H30V26L28 26V17.4196L23.7656 15L21.5 15V16.7981L18.8028 15H16.5V16.8482L13.2656 15ZM26 26L13 26V17.1517L16.2344 19L18.5 19V17.2018L21.1972 19H23.5V17.1517L26 18.5803V26Z" fill="#000000" class="bmwfcol"/><path d="M5.63398 12.098L2.63398 17.2942L4.36603 18.2942L7.36603 13.098L5.63398 12.098Z" fill="#000000" class="bmwfcol"/><path d="M16.9999 11H10.9999L10.9999 9H16.9999V11Z" fill="#000000" class="bmwfcol"/><title>factory_building_and_wind_turbine_rg_48</title></svg>