<svg width="48" height="48" viewBox="0 0 32 32" xmlns="http://www.w3.org/2000/svg"><path d="M12 8V4H10V8H12Z" fill="#000000" class="bmwfcol"/><path d="M8.17157 8.75736L5.34315 5.92893L3.92893 7.34315L6.75736 10.1716L8.17157 8.75736Z" fill="#000000" class="bmwfcol"/><path d="M18.0711 7.34315L16.6569 5.92893L13.8284 8.75736L15.2426 10.1716L18.0711 7.34315Z" fill="#000000" class="bmwfcol"/><path d="M6 12H2V14H6V12Z" fill="#000000" class="bmwfcol"/><path d="M3.92893 18.6569L5.34315 20.0711L8.17157 17.2426L6.75736 15.8284L3.92893 18.6569Z" fill="#000000" class="bmwfcol"/><path d="M9.5 16.7092C8.03408 16.1159 7 14.6787 7 13C7 10.7909 8.79086 9 11 9C13.2091 9 15 10.7909 15 13H13C13 11.8954 12.1046 11 11 11C9.89543 11 9 11.8954 9 13C9 13.5072 9.18882 13.9703 9.5 14.3229V16.7092Z" fill="#000000" class="bmwfcol"/><path d="M24 23.5H20.5V21.5H24V23.5Z" fill="#000000" class="bmwfcol"/><path d="M15 23.5H18.5V21.5H15V23.5Z" fill="#000000" class="bmwfcol"/><path d="M13.2656 15H11V26H9V28H30V26H28V17.4197L23.7656 15H21.5V16.7982L18.8028 15H16.5V16.8482L13.2656 15ZM26 26H13V17.1518L16.2344 19H18.5V17.2018L21.1972 19H23.5V17.1518L26 18.5803V26Z" fill="#000000" class="bmwfcol"/><title>factory_building_and_sun_rg_48</title></svg>