<svg width="48" height="48" viewBox="0 0 32 32" xmlns="http://www.w3.org/2000/svg"><path d="M19 9H20.7521L28 12.9027V16H26V14.0973L21 11.405V14H18.7639L13.5 11.368V14H11.2639L6 11.368L6 26H20V28H2V26H4L4 9H5.73606L11.5 11.882V9H13.2361L19 11.882V9Z" fill="#000000" class="bmwfcol"/><path d="M12 19H8V17H12V19Z" fill="#000000" class="bmwfcol"/><path d="M8 23H12V21H8V23Z" fill="#000000" class="bmwfcol"/><path d="M22 24C19.9728 24 18.2057 23.3199 16.9429 22.0571C15.6801 20.7943 15 19.0272 15 17V15H17C19.0272 15 20.7943 15.6801 22.0571 16.9429C22.7072 17.593 23.2028 18.3767 23.5308 19.2607C24.4313 18.4338 25.6433 18 27 18H29V20C29 21.4272 28.5199 22.6943 27.6071 23.6071C26.6943 24.5199 25.4272 25 24 25V28H22V24ZM24.8071 20.8071C24.3199 21.2943 24 22.0272 24 23C24.9728 23 25.7057 22.6801 26.1929 22.1929C26.6801 21.7057 27 20.9728 27 20C26.0272 20 25.2943 20.3199 24.8071 20.8071ZM17 17C17 18.5728 17.5199 19.8057 18.3571 20.6429C19.1943 21.4801 20.4272 22 22 22C22 20.4272 21.4801 19.1943 20.6429 18.3571C19.8057 17.5199 18.5728 17 17 17Z" fill="#000000" class="bmwfcol"/><title>factory_building_and_leafs_rg_48</title></svg>