<svg width="48" height="48" viewBox="0 0 32 32" xmlns="http://www.w3.org/2000/svg"><path d="M8.00024 19H12.0002V17H8.00024V19Z" fill="#000000" class="bmwfcol"/><path d="M18.0002 19H14.0002V17H18.0002V19Z" fill="#000000" class="bmwfcol"/><path d="M20.0002 19H24.0002V17H20.0002V19Z" fill="#000000" class="bmwfcol"/><path d="M12.0002 23H8.00024V21H12.0002V23Z" fill="#000000" class="bmwfcol"/><path d="M14.0002 23H18.0002V21H14.0002V23Z" fill="#000000" class="bmwfcol"/><path d="M24.0002 23H20.0002V21H24.0002V23Z" fill="#000000" class="bmwfcol"/><path d="M19.0002 9H20.7524L28.0002 12.9027V26H30.3652V28H2.36523V26H4.00024L4.00024 9H5.73631L11.5002 11.882V9H13.2363L19.0002 11.882V9ZM6.00024 26H26.0002V14.0973L21.0002 11.405V14H18.7642L13.5002 11.368V14H11.2642L6.00024 11.368L6.00024 26Z" fill="#000000" class="bmwfcol"/><title>factory_building_rg_48</title></svg>