<svg width="48" height="48" viewBox="0 0 32 32" xmlns="http://www.w3.org/2000/svg"><path d="M20 5.99997V17H18.6069C18.4303 16.7315 18.227 16.4458 18 16.1692V7.90045C17.6638 7.82931 17.3613 7.72263 17.0829 7.58899C16.6424 7.37759 16.2548 7.08462 15.8752 6.78082C15.5328 6.50684 15.3007 6.3245 15 6.19007V14.2739C14.4108 14.1265 13.789 14.0579 13 14.0263V3.99997C13.9992 3.99997 14.9907 3.9663 15.9171 4.41094C16.4115 4.64828 16.8001 4.95934 17.0993 5.19881C17.3675 5.41349 17.6366 5.63634 17.9483 5.78594C18.5779 6.08812 19.3218 5.99997 20 5.99997Z" fill="#000000" class="bmwfcol"/><path d="M24.9171 4.41094C25.4115 4.64828 25.8001 4.95934 26.0993 5.19881C26.3675 5.41348 26.6366 5.63634 26.9483 5.78594C27.5779 6.08812 28.3218 5.99997 29 5.99997V20C28.0007 20 27.0092 20.0336 26.0829 19.589C25.6424 19.3776 25.2548 19.0846 24.8752 18.7808C24.5328 18.5068 24.3008 18.3245 24 18.1901V30H22V3.99997C22.9992 3.99997 23.9907 3.9663 24.9171 4.41094ZM24 6.19007V16.0995C24.3361 16.1706 24.6387 16.2773 24.9171 16.4109C25.3575 16.6223 25.745 16.9153 26.1246 17.2191C26.4671 17.4931 26.6992 17.6754 27 17.8099V7.90045C26.6638 7.82931 26.3613 7.72263 26.0829 7.58899C25.5884 7.35164 25.1997 7.04057 24.9006 6.80108C24.6178 6.5748 24.3412 6.34258 24 6.19007Z" fill="#000000" class="bmwfcol"/><path d="M10.4861 21.8125H7.96079L7 22.7733V25.1657L8.16487 26.8H10.8517L11 26.6517L11.1483 26.8H13.8747L15 25.156L15 22.7733L14.0392 21.8125H11.5139L11 22.0694L10.4861 21.8125ZM12.7522 24.9H12V23.8125H13V24.4939L12.7522 24.9ZM10 24.9H9.26398L9 24.4843V23.8125H10V24.9Z" fill="#000000" class="bmwfcol"/><path d="M17.0595 18.2914C17.1759 18.4768 17.2862 18.6646 17.3885 18.8475C17.6487 18.7469 17.9193 18.6935 18.2001 18.664C18.6721 18.6145 19.2824 18.6251 19.9994 18.6251V20.6251C19.3839 20.6251 18.9737 20.6208 18.664 20.6348C18.8702 20.8418 19.0647 21.0506 19.2348 21.2581C19.5946 21.6969 20 22.3094 20 23.0321V30H15V29.1314C12.2145 29.2995 9.78545 29.2995 7 29.1314V30H2V23.0321C2 22.3094 2.40538 21.6969 2.76518 21.2581C2.9353 21.0506 3.12981 20.8418 3.33595 20.6349C3.0264 20.6208 2.6155 20.6251 2 20.6251V18.6251C2.71673 18.6251 3.32738 18.6145 3.79921 18.664C4.08015 18.6935 4.35089 18.747 4.61115 18.8476C4.71355 18.6646 4.82396 18.4765 4.94042 18.2909C5.15445 17.9497 5.40199 17.5955 5.67103 17.29C5.92588 17.0006 6.26768 16.6759 6.68501 16.4927C7.10867 16.3068 7.46296 16.1631 8.12182 16.0863C8.71023 16.0178 9.55905 16 11 16C13.631 16 14.3406 16.0646 15.3166 16.4934C15.733 16.677 16.0743 17.0014 16.3291 17.2909C16.598 17.5964 16.8455 17.9503 17.0595 18.2914ZM8.35311 18.0729C7.88723 18.1272 7.4845 18.2569 7.17203 18.6117C6.96196 18.8503 6.78329 19.1157 6.61518 19.3849C7.34025 19.3687 8.26996 19.3706 9.45399 19.373C10.4844 19.3751 11.5148 19.3751 12.5452 19.373C13.7299 19.3706 14.6595 19.3687 15.3845 19.3849C15.1498 19.0094 14.8879 18.5732 14.5096 18.3234C13.9745 18.0883 13.6792 18 11 18C9.53486 18 8.80553 18.0203 8.35311 18.0729ZM15.848 21.4007C15.1129 21.368 14.0853 21.37 12.5953 21.373C11.5315 21.3751 10.4677 21.3755 9.40389 21.373C7.91372 21.37 6.88565 21.368 6.15002 21.4007C5.79871 21.4164 5.54535 21.4391 5.36034 21.4668C5.08474 21.7215 4.84159 21.9522 4.63587 22.1655C5.17224 22.2546 5.76784 22.3182 6.5 22.374V24.3796C5.53894 24.3095 4.74669 24.225 4 24.0836V28H5V26.9869C9.00338 27.2788 12.9949 27.2789 17 26.9869V28H18V24.0839C17.2533 24.2252 16.4611 24.3098 15.5 24.3798V22.3742C16.2323 22.3184 16.8279 22.2548 17.3644 22.1657C17.1588 21.9526 16.9157 21.722 16.6402 21.4672C16.4551 21.4393 16.2011 21.4165 15.848 21.4007Z" fill="#000000" class="bmwfcol"/><title>fairs_rg_48</title></svg>