<svg width="48" height="48" viewBox="0 0 32 32" xmlns="http://www.w3.org/2000/svg"><path d="M4 28H2V25.0515C2 24.296 2.07276 23.4609 2.37032 22.6503C2.57635 22.089 2.8349 21.5773 3.22273 21.1604C3.62552 20.7275 4.11093 20.4571 4.67172 20.2907C5.20879 20.1313 5.82471 20.0646 6.50962 20.0323C7.19362 20 8.069 20 9.03291 20C9.76989 20 10.4244 20 11 20.0148V22.0155C10.4493 22.0002 9.79511 22 9.00004 22C8.00966 22 7.23554 22.0002 6.60391 22.0301C5.96795 22.0601 5.54392 22.1181 5.24075 22.208C4.96131 22.291 4.8062 22.3946 4.68701 22.5227C4.55285 22.667 4.40793 22.9033 4.24783 23.3395C4.06436 23.8393 4 24.4109 4 25.0515V28Z" fill="#000000" class="bmwfcol"/><path d="M7.55086 12.4259C7.28602 12.6907 7 13.2527 7 14.5C7 15.7473 7.28602 16.3093 7.55086 16.5741C7.81248 16.8358 8.24566 17 9 17C9.75434 17 10.1875 16.8358 10.4491 16.5741C10.714 16.3093 11 15.7473 11 14.5C11 13.2527 10.714 12.6907 10.4491 12.4259C10.1875 12.1642 9.75434 12 9 12C8.24566 12 7.81248 12.1642 7.55086 12.4259ZM6.13664 11.0116C6.93752 10.2108 8.00434 10 9 10C9.99566 10 11.0625 10.2108 11.8634 11.0116C12.661 11.8093 13 12.9973 13 14.5C13 16.0027 12.661 17.1907 11.8634 17.9884C11.0625 18.7892 9.99566 19 9 19C8.00434 19 6.93752 18.7892 6.13664 17.9884C5.33898 17.1907 5 16.0027 5 14.5C5 12.9973 5.33898 11.8093 6.13664 11.0116Z" fill="#000000" class="bmwfcol"/><path d="M21 22.0155V20.0148C21.5757 20 22.2301 20 22.9672 20C23.9311 20 24.8065 20 25.4905 20.0323C26.1754 20.0646 26.7913 20.1313 27.3284 20.2907C27.8892 20.4571 28.3746 20.7275 28.7774 21.1604C29.1652 21.5773 29.4237 22.089 29.6298 22.6503C29.9273 23.4609 30.0001 24.296 30.0001 25.0515V28H28.0001V25.0515C28.0001 24.4109 27.9357 23.8393 27.7523 23.3395C27.5922 22.9033 27.4472 22.667 27.3131 22.5227C27.1939 22.3946 27.0388 22.291 26.7593 22.208C26.4562 22.1181 26.0321 22.0601 25.3962 22.0301C24.7645 22.0002 23.9904 22 23 22C22.2049 22 21.5507 22.0002 21 22.0155Z" fill="#000000" class="bmwfcol"/><path d="M21.5509 12.4259C21.286 12.6907 21 13.2527 21 14.5C21 15.7473 21.286 16.3093 21.5509 16.5741C21.8125 16.8358 22.2457 17 23 17C23.7543 17 24.1875 16.8358 24.4491 16.5741C24.714 16.3093 25 15.7473 25 14.5C25 13.2527 24.714 12.6907 24.4491 12.4259C24.1875 12.1642 23.7543 12 23 12C22.2457 12 21.8125 12.1642 21.5509 12.4259ZM20.1366 11.0116C20.9375 10.2108 22.0043 10 23 10C23.9957 10 25.0625 10.2108 25.8634 11.0116C26.661 11.8093 27 12.9973 27 14.5C27 16.0027 26.661 17.1907 25.8634 17.9884C25.0625 18.7892 23.9957 19 23 19C22.0043 19 20.9375 18.7892 20.1366 17.9884C19.339 17.1907 19 16.0027 19 14.5C19 12.9973 19.339 11.8093 20.1366 11.0116Z" fill="#000000" class="bmwfcol"/><path d="M12.0376 30H9.9651L10.0342 29.7416C10.4319 28.255 10.8889 27.0872 12.0228 26.4902C12.5544 26.2102 13.1519 26.1013 13.7734 26.0502C14.3846 26 15.1189 26 15.963 26C16.8071 26 17.616 26 18.2272 26.0502C18.8487 26.1013 19.4462 26.2102 19.9778 26.4902C21.1117 27.0872 21.5687 28.255 21.9664 29.7416L22.0355 30H19.963C19.5946 28.706 19.3192 28.4037 19.046 28.2598C18.8654 28.1648 18.5821 28.0862 18.0634 28.0435C17.5434 28.0008 16.8905 28 16.0003 28C15.1101 28 14.4572 28.0008 13.9373 28.0435C13.4185 28.0862 13.1352 28.1648 12.9546 28.2598C12.6814 28.4037 12.406 28.706 12.0376 30Z" fill="#000000" class="bmwfcol"/><path d="M14.9201 19.3132C14.737 19.5015 14.5 19.9427 14.5 21C14.5 22.0573 14.737 22.4985 14.9201 22.6868C15.094 22.8657 15.3981 23 16 23C16.6019 23 16.906 22.8657 17.0799 22.6868C17.263 22.4985 17.5 22.0573 17.5 21C17.5 19.9427 17.263 19.5015 17.0799 19.3132C16.906 19.1343 16.6019 19 16 19C15.3981 19 15.094 19.1343 14.9201 19.3132ZM13.4861 17.919C14.1976 17.1872 15.1436 17 16 17C16.8564 17 17.8024 17.1872 18.5139 17.919C19.2162 18.6414 19.5 19.7002 19.5 21C19.5 22.2998 19.2162 23.3586 18.5139 24.081C17.8024 24.8128 16.8564 25 16 25C15.1436 25 14.1976 24.8128 13.4861 24.081C12.7838 23.3586 12.5 22.2998 12.5 21C12.5 19.7002 12.7838 18.6414 13.4861 17.919Z" fill="#000000" class="bmwfcol"/><path d="M2 9.92823L15.7321 2H16.2683L30 9.92801V12.2374L16.0002 4.15462L2 12.2376V9.92823Z" fill="#000000" class="bmwfcol"/><title>family_rg_48</title></svg>