<svg width="48" height="48" viewBox="0 0 32 32" xmlns="http://www.w3.org/2000/svg"><path d="M9.00006 5C8.00441 5 6.93758 5.21077 6.1367 6.01164C5.33904 6.80931 5.00006 7.99734 5.00006 9.5C5.00006 11.0027 5.33904 12.1907 6.1367 12.9884C6.93758 13.7892 8.00441 14 9.00006 14C9.99572 14 11.0625 13.7892 11.8634 12.9884C12.6611 12.1907 13.0001 11.0027 13.0001 9.5C13.0001 7.99734 12.6611 6.80931 11.8634 6.01164C11.0625 5.21077 9.99572 5 9.00006 5ZM7.00006 9.5C7.00006 8.25266 7.28608 7.69069 7.55092 7.42586C7.81254 7.16423 8.24572 7 9.00006 7C9.75441 7 10.1876 7.16423 10.4492 7.42586C10.714 7.69069 11.0001 8.25266 11.0001 9.5C11.0001 10.7473 10.714 11.3093 10.4492 11.5741C10.1876 11.8358 9.75441 12 9.00006 12C8.24572 12 7.81254 11.8358 7.55092 11.5741C7.28608 11.3093 7.00006 10.7473 7.00006 9.5Z" fill="#000000" class="bmwfcol"/><path d="M2 23H4V19.1333C4.38332 17.7415 4.66017 17.4498 5.02221 17.2876C5.27591 17.174 5.66682 17.0893 6.34273 17.0447C7.01307 17.0005 7.86232 17 9.00004 17C9.79514 17 10.4493 17.0002 11.0001 17.0155V15.0148C10.4245 15 9.77007 15 9.03316 15H8.96717C7.8695 15 6.95487 15 6.21112 15.049C5.46552 15.0982 4.78814 15.201 4.20464 15.4624C2.90289 16.0455 2.43528 17.2413 2.03396 18.7416L2 18.8686V23Z" fill="#000000" class="bmwfcol"/><path d="M21.0001 17.0155V15.0148C21.5756 15 22.2301 15 22.967 15H23.0329C24.1306 15 25.0452 15 25.789 15.049C26.5346 15.0982 27.2119 15.201 27.7954 15.4624C28.8745 15.9457 29.3804 16.8501 29.7505 18H27.6128C27.4028 17.5454 27.2075 17.3905 26.9779 17.2876C26.7242 17.174 26.3333 17.0893 25.6574 17.0447C24.987 17.0005 24.1378 17 23 17C22.205 17 21.5508 17.0002 21.0001 17.0155Z" fill="#000000" class="bmwfcol"/><path d="M23.0001 5C22.0044 5 20.9376 5.21077 20.1367 6.01164C19.339 6.80931 19.0001 7.99734 19.0001 9.5C19.0001 11.0027 19.339 12.1907 20.1367 12.9884C20.9376 13.7892 22.0044 14 23.0001 14C23.9957 14 25.0625 13.7892 25.8634 12.9884C26.6611 12.1907 27.0001 11.0027 27.0001 9.5C27.0001 7.99734 26.6611 6.80931 25.8634 6.01164C25.0625 5.21077 23.9957 5 23.0001 5ZM21.0001 9.5C21.0001 8.25266 21.2861 7.69069 21.5509 7.42586C21.8125 7.16423 22.2457 7 23.0001 7C23.7544 7 24.1876 7.16423 24.4492 7.42586C24.714 7.69069 25.0001 8.25266 25.0001 9.5C25.0001 10.7473 24.714 11.3093 24.4492 11.5741C24.1876 11.8358 23.7544 12 23.0001 12C22.2457 12 21.8125 11.8358 21.5509 11.5741C21.2861 11.3093 21.0001 10.7473 21.0001 9.5Z" fill="#000000" class="bmwfcol"/><path d="M19.4624 17.7749C18.684 18.0234 17.9648 18.4431 17.3632 19.0447C16.7992 19.6086 16.3952 20.2758 16.1421 20.9982C16.0945 20.9994 16.0472 21 16.0001 21C15.1437 21 14.1977 20.8128 13.4862 20.081C12.7839 19.3586 12.5001 18.2998 12.5001 17C12.5001 15.7002 12.7839 14.6414 13.4862 13.919C14.1977 13.1872 15.1437 13 16.0001 13C16.8565 13 17.8024 13.1872 18.5139 13.919C19.2162 14.6414 19.5001 15.7002 19.5001 17C19.5001 17.2689 19.4879 17.5275 19.4624 17.7749ZM14.9202 15.3132C14.7371 15.5015 14.5001 15.9427 14.5001 17C14.5001 18.0573 14.7371 18.4985 14.9202 18.6868C15.0941 18.8657 15.3981 19 16.0001 19C16.602 19 16.906 18.8657 17.0799 18.6868C17.2631 18.4985 17.5001 18.0573 17.5001 17C17.5001 15.9427 17.2631 15.5015 17.0799 15.3132C16.906 15.1343 16.602 15 16.0001 15C15.3981 15 15.0941 15.1343 14.9202 15.3132Z" fill="#000000" class="bmwfcol"/><path d="M16.0001 22H15.9628C15.1187 22 14.3843 22 13.7731 22.0502C13.1516 22.1013 12.5542 22.2102 12.0225 22.4902C10.8887 23.0872 10.4316 24.255 10.034 25.7416L9.96484 26H12.0373C12.4058 24.706 12.6811 24.4037 12.9543 24.2598C13.1349 24.1648 13.4182 24.0862 13.937 24.0435C14.457 24.0008 15.1098 24 16 24L16.0001 22Z" fill="#000000" class="bmwfcol"/><path d="M21.273 19C20.1594 19 19.1536 19.3756 18.4238 20.1054C17.694 20.8352 17.3184 21.8409 17.3184 22.9545C17.3184 24.9404 18.5095 26.6592 19.7254 27.9344C20.9336 29.2016 22.3315 30.1996 23.1312 30.7705L23.4525 31H24.548L24.8693 30.7705C25.669 30.1996 27.0669 29.2016 28.2751 27.9344C29.491 26.6592 30.6821 24.9404 30.6821 22.9545C30.6821 21.8409 30.3065 20.8352 29.5767 20.1054C28.8468 19.3756 27.8411 19 26.7275 19C25.6597 19 24.7054 19.3477 24.0002 19.9883C23.2951 19.3477 22.3408 19 21.273 19ZM19.3184 22.9545C19.3184 22.2954 19.5338 21.8239 19.838 21.5196C20.1423 21.2153 20.6138 21 21.273 21C22.1952 21 22.7731 21.4154 23.0399 22.0039L23.3061 22.5909H24.6944L24.9606 22.0039C25.2274 21.4154 25.8052 21 26.7275 21C27.3866 21 27.8582 21.2153 28.1624 21.5196C28.4667 21.8239 28.6821 22.2954 28.6821 22.9545C28.6821 24.1505 27.9413 25.3862 26.8276 26.5542C25.8862 27.5416 24.7969 28.3589 24.0002 28.9328C23.2036 28.3589 22.1143 27.5416 21.1728 26.5542C20.0592 25.3862 19.3184 24.1505 19.3184 22.9545Z" fill="#000000" class="bmwfcol"/><title>family_and_heart_rg_48</title></svg>