<svg width="48" height="48" viewBox="0 0 32 32" xmlns="http://www.w3.org/2000/svg"><path d="M11.1935 11.2929C15.2328 7.25352 20.481 3 27.9004 3H28.9004V4C28.9004 11.4194 24.6469 16.6675 20.6075 20.7069C18.5975 22.717 17.1983 23.8776 15.3194 24.4557C13.5894 24.9881 11.5104 24.9999 8.31462 25L4.60757 28.7071L3.19336 27.2928L6.90039 23.5858C6.90047 20.39 6.91232 18.311 7.44465 16.581C8.02281 14.7021 9.18344 13.3029 11.1935 11.2929ZM14.7312 22.5442C15.6192 22.271 16.3938 21.8226 17.37 21H13.9004L15.9004 19H19.4841C20.1198 18.3559 20.7477 17.6907 21.3531 17L17.9004 17L19.9004 15H22.9741C25.065 12.1821 26.6326 8.93833 26.8693 5.03104C20.8184 5.39768 16.3588 8.956 12.6077 12.7071C10.6176 14.6972 9.7781 15.7981 9.3562 17.1692C9.02533 18.2444 8.93451 19.5245 8.90968 21.5765L17.1934 13.2928L18.6076 14.7071L10.3239 22.9907C12.3759 22.9659 13.656 22.8751 14.7312 22.5442Z" fill="#000000" class="bmwfcol"/><title>feather_rg_48</title></svg>