<svg width="48" height="48" viewBox="0 0 32 32" xmlns="http://www.w3.org/2000/svg"><path d="M12 11.5C11.1716 11.5 10.5 12.1716 10.5 13C10.5 13.8284 11.1716 14.5 12 14.5C12.8284 14.5 13.5 13.8284 13.5 13C13.5 12.1716 12.8284 11.5 12 11.5Z" fill="#000000" class="bmwfcol"/><path d="M20 11.5C19.1716 11.5 18.5 12.1716 18.5 13C18.5 13.8284 19.1716 14.5 20 14.5C20.8284 14.5 21.5 13.8284 21.5 13C21.5 12.1716 20.8284 11.5 20 11.5Z" fill="#000000" class="bmwfcol"/><path d="M16.001 25C19.4845 25 22.5039 23.0214 24 20.1286V18L22.6265 18.0082C20.8548 18.5748 18.6103 18.9 16.001 18.9C13.3918 18.9 11.1472 18.5748 9.37547 18.0082L8 18V20.1247C9.49541 23.0197 12.516 25 16.001 25ZM21.4636 20.378C20.1803 21.977 18.2094 23 16.001 23C13.7926 23 11.8218 21.977 10.5384 20.378C12.1653 20.7208 14.0039 20.9 16.001 20.9C17.9981 20.9 19.8368 20.7208 21.4636 20.378Z" fill="#000000" class="bmwfcol"/><path d="M6.59289 6.59289C8.90567 4.28011 12.1728 3 16 3C19.8272 3 23.0943 4.28011 25.4071 6.59289C27.7199 8.90567 29 12.1728 29 16C29 19.8272 27.7199 23.0943 25.4071 25.4071C23.0943 27.7199 19.8272 29 16 29C12.1728 29 8.90567 27.7199 6.59289 25.4071C4.28011 23.0943 3 19.8272 3 16C3 12.1728 4.28011 8.90567 6.59289 6.59289ZM8.00711 8.00711C6.11989 9.89433 5 12.6272 5 16C5 19.3728 6.11989 22.1057 8.00711 23.9929C9.89433 25.8801 12.6272 27 16 27C19.3728 27 22.1057 25.8801 23.9929 23.9929C25.8801 22.1057 27 19.3728 27 16C27 12.6272 25.8801 9.89433 23.9929 8.00711C22.1057 6.11989 19.3728 5 16 5C12.6272 5 9.89433 6.11989 8.00711 8.00711Z" fill="#000000" class="bmwfcol"/><title>feedback-5-very-good_rg_48</title></svg>