<svg width="48" height="48" viewBox="0 0 32 32" xmlns="http://www.w3.org/2000/svg"><path d="M12 11.5C11.1716 11.5 10.5 12.1716 10.5 13C10.5 13.8284 11.1716 14.5 12 14.5C12.8284 14.5 13.5 13.8284 13.5 13C13.5 12.1716 12.8284 11.5 12 11.5Z" fill="#000000" class="bmwfcol"/><path d="M20 11.5C19.1716 11.5 18.5 12.1716 18.5 13C18.5 13.8284 19.1716 14.5 20 14.5C20.8284 14.5 21.5 13.8284 21.5 13C21.5 12.1716 20.8284 11.5 20 11.5Z" fill="#000000" class="bmwfcol"/><path d="M16.0009 21C13.8812 21 12.3765 21.4416 11.5995 22.0222L10.4023 20.42C11.6799 19.4654 13.6944 19 16.0009 19C18.3074 19 20.3219 19.4654 21.5995 20.42L20.4023 22.0222C19.6253 21.4416 18.1206 21 16.0009 21Z" fill="#000000" class="bmwfcol"/><path d="M16 3C12.1728 3 8.90567 4.28011 6.59289 6.59289C4.28011 8.90567 3 12.1728 3 16C3 19.8272 4.28011 23.0943 6.59289 25.4071C8.90567 27.7199 12.1728 29 16 29C19.8272 29 23.0943 27.7199 25.4071 25.4071C27.7199 23.0943 29 19.8272 29 16C29 12.1728 27.7199 8.90567 25.4071 6.59289C23.0943 4.28011 19.8272 3 16 3ZM5 16C5 12.6272 6.11989 9.89433 8.00711 8.00711C9.89433 6.11989 12.6272 5 16 5C19.3728 5 22.1057 6.11989 23.9929 8.00711C25.8801 9.89433 27 12.6272 27 16C27 19.3728 25.8801 22.1057 23.9929 23.9929C22.1057 25.8801 19.3728 27 16 27C12.6272 27 9.89433 25.8801 8.00711 23.9929C6.11989 22.1057 5 19.3728 5 16Z" fill="#000000" class="bmwfcol"/><title>feedback-2-bad_rg_48</title></svg>