<svg width="48" height="48" viewBox="0 0 32 32" xmlns="http://www.w3.org/2000/svg"><path d="M18.5 9.74908C17.7406 9.74908 17.125 10.3647 17.125 11.1241C17.125 11.8835 17.7406 12.4991 18.5 12.4991C19.2594 12.4991 19.875 11.8835 19.875 11.1241C19.875 10.3647 19.2594 9.74908 18.5 9.74908Z" fill="#000000" class="bmwfcol"/><path d="M23.5 9.74908C22.7406 9.74908 22.125 10.3647 22.125 11.1241C22.125 11.8835 22.7406 12.4991 23.5 12.4991C24.2594 12.4991 24.875 11.8835 24.875 11.1241C24.875 10.3647 24.2594 9.74908 23.5 9.74908Z" fill="#000000" class="bmwfcol"/><path d="M21.0001 17.124C19.5235 17.124 18.1689 16.8286 17.2766 16.1619L18.4737 14.5598C18.8655 14.8525 19.7103 15.124 21.0001 15.124C22.2899 15.124 23.1347 14.8525 23.5266 14.5598L24.7237 16.1619C23.8314 16.8286 22.4767 17.124 21.0001 17.124Z" fill="#000000" class="bmwfcol"/><path d="M21 4.49908C18.5228 4.49908 16.3807 5.3292 14.8554 6.85448C13.3301 8.37976 12.5 10.5218 12.5 12.9991C12.5 15.4763 13.3301 17.6184 14.8554 19.1437C16.3807 20.669 18.5228 21.4991 21 21.4991C23.4772 21.4991 25.6193 20.669 27.1446 19.1437C28.6699 17.6184 29.5 15.4763 29.5 12.9991C29.5 10.5218 28.6699 8.37976 27.1446 6.85448C25.6193 5.3292 23.4772 4.49908 21 4.49908ZM14.5 12.9991C14.5 10.9763 15.1699 9.36841 16.2696 8.26869C17.3693 7.16897 18.9772 6.49908 21 6.49908C23.0228 6.49908 24.6307 7.16897 25.7304 8.26869C26.8301 9.36841 27.5 10.9763 27.5 12.9991C27.5 15.0218 26.8301 16.6298 25.7304 17.7295C24.6307 18.8292 23.0228 19.4991 21 19.4991C18.9772 19.4991 17.3693 18.8292 16.2696 17.7295C15.1699 16.6298 14.5 15.0218 14.5 12.9991Z" fill="#000000" class="bmwfcol"/><path d="M13.9771 4.94387C13.0624 4.65086 12.0644 4.49908 11.0051 4.49908C8.52788 4.49908 6.3858 5.3292 4.86052 6.85448C3.33524 8.37976 2.50513 10.5218 2.50513 12.9991C2.50513 15.4763 3.33524 17.6184 4.86052 19.1437C6.3858 20.669 8.52788 21.4991 11.0051 21.4991C12.0644 21.4991 13.0624 21.3473 13.9771 21.0543C13.7929 20.8964 13.6142 20.7309 13.4412 20.5579C13.0727 20.1894 12.7385 19.7951 12.4387 19.378C11.9876 19.4575 11.5092 19.4991 11.0051 19.4991C8.98237 19.4991 7.37445 18.8292 6.27473 17.7295C5.17501 16.6298 4.50513 15.0218 4.50513 12.9991C4.50513 10.9763 5.17501 9.36841 6.27473 8.26869C7.37445 7.16897 8.98237 6.49908 11.0051 6.49908C11.5092 6.49908 11.9876 6.54069 12.4387 6.62019C12.7385 6.20311 13.0727 5.80875 13.4412 5.44026C13.6142 5.26724 13.7929 5.10176 13.9771 4.94387Z" fill="#000000" class="bmwfcol"/><path d="M10.5313 13.8932C9.06574 14.013 7.8198 14.6925 7.04904 15.8443L8.71122 16.9566C9.12091 16.3444 9.83158 15.9189 10.841 15.8774C10.6827 15.2372 10.5793 14.5737 10.5313 13.8932Z" fill="#000000" class="bmwfcol"/><path d="M7.25513 10.0418V12.0814L9.75513 11.5814V9.54178L7.25513 10.0418Z" fill="#000000" class="bmwfcol"/><path d="M3 25.9991V22.9991H5V25.9991H3ZM15 25.9991V22.9991H17V25.9991H15ZM27 25.9991V22.9991H29V25.9991H27ZM7 25.9991V23.9991H9V25.9991H7ZM11 25.9991V23.9991H13V25.9991H11ZM19 25.9991V23.9991H21V25.9991H19ZM23 25.9991V23.9991H25V25.9991H23Z" fill="#000000" class="bmwfcol"/><path d="M22.5001 28.6V30H25.5001V28.6L24.3 27.4L23.7001 27.4L22.5001 28.6Z" fill="#000000" class="bmwfcol"/><title>feedback_score_rg_48</title></svg>