<svg width="48" height="48" viewBox="0 0 32 32" xmlns="http://www.w3.org/2000/svg"><path d="M27.7037 6.09558C27.6736 6.08945 27.6476 6.08562 27.6292 6.08326C23.9035 5.40914 20.0836 5.38163 16.3485 6.00414L15.3477 6.17095C11.8141 6.75989 8.19947 6.73239 4.67456 6.0915C4.61413 6.08051 4.55275 6.07496 4.49118 6.07496H3.0752V25.6556L4.29669 25.9043C4.32682 25.9105 4.3528 25.9143 4.37123 25.9167C8.09693 26.5908 11.9168 26.6183 15.6519 25.9958L16.6527 25.829C20.1863 25.24 23.801 25.2675 27.3259 25.9084C27.3862 25.9194 27.4475 25.925 27.5092 25.925H28.9252V6.34437L27.7037 6.09558ZM16.9252 9.91327V7.7848C17.6392 7.67233 18.3563 7.58496 19.0752 7.52268V9.66612C18.3566 9.72486 17.6395 9.80723 16.9252 9.91327ZM20.9252 9.5672V7.41783C21.6418 7.39861 22.3589 7.40416 23.0752 7.43446V9.5829C22.3589 9.5543 21.6418 9.54906 20.9252 9.5672ZM27.0752 9.98793C26.3612 9.87129 25.6441 9.77829 24.9252 9.70895V7.56803C25.6444 7.64155 26.3616 7.74019 27.0752 7.86391V9.98793ZM15.0752 8.08663V10.2151C14.3612 10.3276 13.644 10.4149 12.9252 10.4772V8.33378C13.6438 8.27505 14.3609 8.19267 15.0752 8.08663ZM11.0752 8.43272V10.5821C10.3586 10.6013 9.64145 10.5958 8.9252 10.5655V8.41703C9.64148 8.44562 10.3586 8.45086 11.0752 8.43272ZM7.0752 8.29099V10.4319C6.35597 10.3584 5.63883 10.2598 4.9252 10.136V8.01202C5.63916 8.12866 6.35624 8.22166 7.0752 8.29099ZM4.9252 12.0121C8.28292 12.5606 11.7096 12.5862 15.0752 12.0866V20.2151C11.7122 20.7449 8.28 20.7176 4.9252 20.136V12.0121ZM4.9252 22.0121C5.63916 22.1287 6.35624 22.2217 7.0752 22.291V24.4319C6.35597 24.3584 5.63883 24.2597 4.9252 24.136V22.0121ZM8.9252 22.417C9.64148 22.4456 10.3586 22.4509 11.0752 22.4327V24.5821C10.3586 24.6013 9.64145 24.5958 8.9252 24.5655V22.417ZM15.0752 24.2151C14.3612 24.3276 13.644 24.415 12.9252 24.4772V22.3338C13.6438 22.275 14.3609 22.1926 15.0752 22.0866V24.2151ZM16.9252 23.9133V21.7848C17.6392 21.6723 18.3563 21.5849 19.0752 21.5227V23.6661C18.3566 23.7249 17.6395 23.8073 16.9252 23.9133ZM23.0752 23.5829C22.3589 23.5543 21.6418 23.5491 20.9252 23.5672V21.4178C21.6418 21.3986 22.3589 21.4042 23.0752 21.4345V23.5829ZM24.9252 23.7089V21.568C25.6444 21.6416 26.3616 21.7402 27.0752 21.8639V23.9879C26.3612 23.8713 25.6441 23.7783 24.9252 23.7089ZM27.0752 19.9879C23.7175 19.4394 20.2908 19.4137 16.9252 19.9133V11.7848C20.2882 11.255 23.7204 11.2823 27.0752 11.8639V19.9879Z" fill="#000000" class="bmwfcol"/><title>film_strip_rg_48</title></svg>