<svg width="48" height="48" viewBox="0 0 32 32" xmlns="http://www.w3.org/2000/svg"><path d="M2.75391 5H28.7539V6.91421L21.461 14.2071C20.5156 15.1526 20.1536 15.7289 19.9693 16.4109C19.7621 17.1775 19.7539 18.1444 19.7539 20V25.5744L13.8814 29H11.7539V20C11.7539 18.1444 11.7457 17.1775 11.5386 16.4109C11.3542 15.7289 10.9923 15.1526 10.0468 14.2071L2.75391 6.91421V5ZM5.66812 7L11.461 12.7929C12.5156 13.8474 13.1536 14.7211 13.4693 15.8891C13.7621 16.9725 13.7539 18.2556 13.7539 20V26.759L17.7539 24.4256V20C17.7539 18.2556 17.7457 16.9725 18.0386 15.8891C18.3542 14.7211 18.9923 13.8474 20.0468 12.7929L25.8397 7H5.66812Z" fill="#000000" class="bmwfcol"/><title>filter_rg_48</title></svg>