<svg width="48" height="48" viewBox="0 0 32 32" xmlns="http://www.w3.org/2000/svg"><path d="M8.00711 8.00711C6.93601 9.0782 6.11208 10.4217 5.59978 12H3.51369C4.08924 9.88473 5.13625 8.04954 6.59289 6.59289C8.90567 4.28011 12.1728 3 16 3C19.8272 3 23.0943 4.28011 25.4071 6.59289C27.7199 8.90567 29 12.1728 29 16H27C27 12.6272 25.8801 9.89433 23.9929 8.00711C22.1057 6.11989 19.3728 5 16 5C12.6272 5 9.89433 6.11989 8.00711 8.00711Z" fill="#000000" class="bmwfcol"/><path d="M3.12174 14H5.13933C5.04747 14.6383 5 15.3056 5 16C5 17.4585 5.20943 18.7974 5.59978 20H3.51369C3.17541 18.7568 3 17.4168 3 16C3 15.3146 3.04105 14.6472 3.12174 14Z" fill="#000000" class="bmwfcol"/><path d="M19 7.42573C18.0356 7.13425 17.0239 7 16 7C13.3727 7 11.1057 7.88011 9.49289 9.49289C7.88011 11.1057 7 13.3728 7 16C7 17.3507 7.30122 18.3574 7.54439 19.1701C7.57009 19.256 7.59524 19.3401 7.61921 19.4218C7.67846 19.6238 7.73172 19.8144 7.77581 20H9.81745C9.74737 19.5948 9.64406 19.2192 9.53833 18.8588C9.51334 18.7736 9.48832 18.6894 9.46351 18.606C9.22213 17.7941 9 17.047 9 16C9 13.8272 9.71988 12.0943 10.9071 10.9071C12.0943 9.71989 13.8272 9 16 9C17.0649 9 18.077 9.17272 19 9.54255V7.42573Z" fill="#000000" class="bmwfcol"/><path d="M23.3754 26C23.7857 24.124 24 22.1193 24 20C24 15.7492 22.9843 13.016 21.5448 11.3578C21.3709 11.1574 21.1891 10.9708 21 10.7976V8.31038C21.7442 8.75969 22.4363 9.33381 23.0552 10.0467C24.9157 12.1899 26 15.4568 26 20C26 22.0978 25.8021 24.103 25.4188 26H23.3754Z" fill="#000000" class="bmwfcol"/><path d="M9.81762 22H7.77456C7.49233 23.1818 6.9499 24.1982 6.18304 25H8.68996C9.19197 24.1738 9.56136 23.2368 9.77796 22.2055C9.79254 22.1362 9.80573 22.0677 9.81762 22Z" fill="#000000" class="bmwfcol"/><path d="M8.98572 28H11.6033C12.7884 26.354 13.5629 24.3668 13.8613 22.1324C14.0384 20.8063 13.7692 19.7634 13.5093 18.8347L13.4617 18.6651C13.2192 17.803 13 17.0237 13 16C13 15.0272 13.3199 14.2943 13.8071 13.8071C14.2943 13.3199 15.0272 13 16 13C16.9793 13 17.9053 13.295 18.6191 14.1872C19.367 15.122 20 16.8568 20 19.9999C20 22.9578 19.4959 25.6427 18.5622 28H20.6972C21.5508 25.5804 22 22.8938 22 19.9999C22 16.6431 21.333 14.3779 20.1809 12.9378C18.9946 11.455 17.4207 11 16 11C14.5727 11 13.3057 11.4801 12.3929 12.3929C11.4801 13.3057 11 14.5728 11 16C11 17.3086 11.2884 18.3296 11.5287 19.1798C11.5472 19.2455 11.5655 19.3101 11.5833 19.3737C11.8326 20.2645 11.9985 20.9716 11.8789 21.8676C11.5423 24.388 10.5204 26.4684 8.98572 28Z" fill="#000000" class="bmwfcol"/><path d="M16 20C16 18.6739 15.5714 17.2433 15.0525 16H17.2001C17.6493 17.2304 18 18.6267 18 20C18 20.681 17.9691 21.3481 17.9083 22H15.8989C15.9658 21.3529 16 20.6859 16 20Z" fill="#000000" class="bmwfcol"/><path d="M15.5756 24H17.6191C17.1759 26.234 16.3539 28.2532 15.1936 30H12.7055C14.0679 28.3547 15.0541 26.3347 15.5756 24Z" fill="#000000" class="bmwfcol"/><title>fingerprint_rg_48</title></svg>