<svg width="48" height="48" viewBox="0 0 32 32" xmlns="http://www.w3.org/2000/svg"><path d="M16.4786 4.62208C15.0476 3.84156 13.4967 3 10.4999 3C8.07853 3 6.07911 3.7723 4 4.90634V28H6V21.0966C7.1384 20.4955 8.32845 20 10.4999 20C12.9948 20 14.1942 20.6542 15.5082 21.371C17.4153 22.407 19.3049 23 21.4999 23C23.9212 23 25.921 22.2279 28 21.0936V5H25.8187C24.4446 5.6766 23.0384 6 21.4999 6C19.6473 6 18.0858 5.4984 16.4786 4.62208ZM6 18.8727V6.09657C7.1384 5.49553 8.32845 5 10.4999 5C12.9948 5 14.1942 5.65421 15.5082 6.37097C17.4152 7.40708 19.305 8 21.4999 8C23.502 8 24.8639 7.62638 26 7.12732V19.9034C24.8616 20.5044 23.6715 21 21.4999 21C19.0047 21 17.8053 20.3457 16.4912 19.629C14.5898 18.5879 12.6902 18 10.4999 18C8.47707 18 7.11304 18.3834 6 18.8727Z" fill="#000000" class="bmwfcol"/><title>flag_rg_48</title></svg>