<svg width="48" height="48" viewBox="0 0 32 32" xmlns="http://www.w3.org/2000/svg"><path d="M21.4999 6.00003H19.5V12.5C19.5 13.7837 19.5087 14.2711 19.7014 14.8667C19.9112 15.5152 20.3445 16.303 21.366 18.0723L25.4996 25.2319L25.5002 26.414L25.2071 26.7071L25.1227 26.7917C24.7063 27.21 24.296 27.6221 23.6912 27.8237C23.3788 27.9279 23.0566 27.9655 22.7244 27.983C22.4011 28 22.0039 28 21.5265 28H10.4735C9.99605 28 9.59885 28 9.27552 27.983C8.94335 27.9655 8.62112 27.9279 8.30873 27.8237C7.70394 27.6221 7.2936 27.21 6.87716 26.7917L6.79285 26.7071L6.49976 26.4141L6.50033 25.2319L10.6339 18.0723C11.6554 16.303 12.0887 15.5152 12.2985 14.8667C12.4913 14.2711 12.5 13.7837 12.5 12.5V6.00003H10.4999V4.00003H21.4999V6.00003ZM14.5 6.00003L14.5 12.5977C14.5002 13.7605 14.5004 14.5586 14.2014 15.4825C14.0371 15.9902 13.7841 16.5305 13.4179 17.2115C14.6235 17.4174 15.5015 17.745 16.3512 18.0637L16.3682 18.07C17.2902 18.4158 18.1764 18.7481 19.5376 18.9054C18.618 17.3111 18.079 16.3493 17.7985 15.4825C17.4996 14.5586 17.4997 13.7605 17.4999 12.5977L17.5 6.00003H14.5ZM12.3597 19.0831L8.56949 25.648C8.80527 25.8708 8.86582 25.9012 8.94118 25.9264C9.0038 25.9472 9.11906 25.972 9.38064 25.9858C9.64509 25.9997 9.98924 26 10.5 26H21.5C22.0107 26 22.3548 25.9997 22.6193 25.9858C22.8809 25.972 22.9961 25.9472 23.0587 25.9264C23.1341 25.9012 23.1946 25.8708 23.4304 25.648L20.7422 20.9918C18.2868 20.9219 16.9355 20.4188 15.649 19.9363L15.6319 19.9299C14.6869 19.5755 13.7796 19.2353 12.3597 19.0831Z" fill="#000000" class="bmwfcol"/><title>flask_rg_48</title></svg>