<svg width="48" height="48" viewBox="0 0 32 32" xmlns="http://www.w3.org/2000/svg"><path d="M19.0002 6H17.0002V12.5C17.0002 13.7837 17.0089 14.2711 17.2016 14.8667C17.4115 15.5151 17.8448 16.303 18.8662 18.0722L22.9998 25.2318L23.0004 26.414L22.7073 26.7071L22.623 26.7917C22.2066 27.2099 21.7962 27.6221 21.1914 27.8237C20.879 27.9278 20.5568 27.9655 20.2246 27.983C19.9013 28 19.5042 28 19.0268 28H7.97373C7.49629 28 7.0991 28 6.77577 27.983C6.44359 27.9655 6.12136 27.9278 5.80897 27.8237C5.20419 27.6221 4.79385 27.2099 4.37741 26.7917L4.29309 26.7071L4 26.414L4.00057 25.2318L8.13418 18.0722C9.15563 16.303 9.58893 15.5151 9.79878 14.8667C9.99151 14.2711 10.0002 13.7837 10.0002 12.5V6H8.0002V4H19.0002V6ZM12.0002 6L12.0002 12.5977C12.0004 13.7605 12.0006 14.5586 11.7016 15.4824C11.5373 15.9902 11.2843 16.5305 10.9181 17.2115C12.1238 17.4173 13.0017 17.745 13.8515 18.0637L13.8685 18.07C14.7905 18.4158 15.6767 18.7481 17.0379 18.9054C16.1182 17.311 15.5793 16.3492 15.2988 15.4824C14.9998 14.5586 15 13.7605 15.0002 12.5977L15.0002 6H12.0002ZM9.85993 19.0831L6.06974 25.6479C6.30551 25.8708 6.36606 25.9012 6.44143 25.9263C6.50404 25.9472 6.61931 25.972 6.88089 25.9858C7.14533 25.9997 7.48949 26 8.0002 26H19.0002C19.5109 26 19.8551 25.9997 20.1195 25.9858C20.3811 25.972 20.4964 25.9472 20.559 25.9263C20.6343 25.9012 20.6949 25.8708 20.9307 25.6479L18.2424 20.9918C15.7871 20.9219 14.4358 20.4188 13.1492 19.9363L13.1322 19.9299C12.1872 19.5755 11.2798 19.2352 9.85993 19.0831Z" fill="#000000" class="bmwfcol"/><path d="M28.5002 13.5065V15.5801C27.1667 15.9192 25.9635 16.0368 25.021 16.0564L25.0106 16.0566H25.0002C23.9034 16.0566 23.06 15.8723 22.4046 15.4983C21.7291 15.1129 21.3613 14.5873 21.1169 14.1267C20.6063 13.1643 20.4402 11.7527 20.4402 10.0283C20.4402 8.3039 20.6063 6.89229 21.1169 5.92994C21.3613 5.46929 21.7291 4.94376 22.4046 4.5583C23.06 4.18433 23.9034 4 25.0002 4H25.0106L25.021 4.00022C25.9635 4.01977 27.1667 4.13739 28.5002 4.47649V6.5501C27.1461 6.15067 25.9179 6.02004 24.99 6.00001C24.108 6.00117 23.6467 6.15226 23.3958 6.29541C23.1641 6.42763 23.0247 6.60141 22.8836 6.86733C22.6811 7.24899 22.5254 7.9209 22.4662 9H27.0002V11H22.4632C22.52 12.1123 22.6776 12.801 22.8836 13.1893C23.0247 13.4552 23.1641 13.629 23.3958 13.7612C23.6467 13.9044 24.108 14.0555 24.99 14.0566C25.9179 14.0366 27.1461 13.9059 28.5002 13.5065Z" fill="#000000" class="bmwfcol"/><title>flask_with_euro_symbol_rg_48</title></svg>