<svg width="48" height="48" viewBox="0 0 32 32" xmlns="http://www.w3.org/2000/svg"><path d="M4 3.99975V27.9997H28L28.0001 10.8553C28.0012 9.99495 28.0021 9.26791 27.6444 8.55253C27.4605 8.18479 27.2044 7.85705 26.8995 7.51828C26.1418 6.67647 25.3233 5.85785 24.4815 5.10021C24.1427 4.79531 23.815 4.5392 23.4472 4.35532C22.7318 3.99763 22.0048 3.99855 21.1444 3.99963L4 3.99975ZM22 11.9995V6.01899C22.2816 6.03827 22.4151 6.07535 22.5528 6.14418C22.685 6.21031 22.8573 6.32919 23.1435 6.58679C23.4319 6.84632 23.7853 7.19928 24.2929 7.70685C24.8005 8.21443 25.1534 8.56785 25.4129 8.85621C25.6705 9.14243 25.7894 9.3147 25.8556 9.44695C25.978 9.6919 26 9.92386 26 10.9997V25.9997H24V16.9995C24 16.1736 23.7428 15.3981 23.1721 14.8274C22.6014 14.2567 21.8259 13.9995 21 13.9995H11C10.1741 13.9995 9.39856 14.2567 8.82789 14.8274C8.25722 15.3981 8 16.1736 8 16.9995V25.9997H6V5.99975H10V11.9995H22ZM12 9.99951V5.99975H20V9.99951H12ZM10 25.9997V16.9995C10 16.5854 10.1228 16.3609 10.2421 16.2416C10.3614 16.1223 10.5859 15.9995 11 15.9995H21C21.4141 15.9995 21.6386 16.1223 21.7579 16.2416C21.8772 16.3609 22 16.5854 22 16.9995V25.9997H10Z" fill="#000000" class="bmwfcol"/><title>floppy-disk_rg_48</title></svg>