<svg width="48" height="48" viewBox="0 0 32 32" xmlns="http://www.w3.org/2000/svg"><path d="M23.0006 5.08582L24.7499 6.83512C25.3442 6.323 26.0832 6.00003 27.0005 6.00003H28.0005V12C28.0005 13.4273 27.5204 14.6944 26.6077 15.6071C25.9146 16.3002 25.0172 16.7439 24.0005 16.9173V19.7965C25.2264 18.6274 26.911 18 28.8339 18H31.0005V20.1667C31.0005 22.1439 30.3371 23.8693 29.1035 25.1029C27.8699 26.3366 26.1445 27 24.1672 27H2.00055L2.00055 25H3.99815C3.95619 22.3996 3.73758 20.5796 3.23385 18.8556C2.79362 17.3488 2.1259 15.8803 1.11328 14H3.37365C4.15996 15.5331 4.74224 16.8867 5.15359 18.2947C5.72817 20.2612 5.95636 22.2869 5.99844 25H7.99815C7.95619 22.3996 7.73758 20.5796 7.23385 18.8556C6.79362 17.3488 6.1259 15.8803 5.11328 14H7.37365C8.15996 15.5331 8.74224 16.8867 9.15359 18.2947C9.72817 20.2612 9.95636 22.2869 9.99844 25H11.9982C11.9562 22.3996 11.7376 20.5796 11.2339 18.8556C10.7936 17.3488 10.1259 15.8803 9.11328 14H11.3737C12.16 15.5331 12.7422 16.8867 13.1536 18.2947C13.7282 20.2612 13.9564 22.2869 13.9984 25H16.7971C15.628 23.7742 15.0005 22.0895 15.0005 20.1667V18H17.1672C19.0901 18 20.7747 18.6274 22.0005 19.7965V16.9173C20.9839 16.7439 20.0865 16.3002 19.3934 15.6071C18.4807 14.6944 18.0005 13.4273 18.0005 12V6.00003H19.0005C19.9179 6.00003 20.6569 6.32301 21.2512 6.83516L23.0006 5.08582ZM22.0005 24.8333C22.0005 23.3106 21.4973 22.1193 20.6893 21.3113C19.8812 20.5032 18.69 20 17.1672 20H17.0005V20.1667C17.0005 21.6894 17.5038 22.8807 18.3118 23.6887C19.119 24.4959 20.3085 24.9989 21.8287 25H22.0005V24.8333ZM24.0005 25H24.1672C25.69 25 26.8812 24.4968 27.6893 23.6887C28.4973 22.8807 29.0005 21.6894 29.0005 20.1667V20H28.8339C27.3111 20 26.1199 20.5032 25.3118 21.3113C24.5038 22.1193 24.0005 23.3106 24.0005 24.8333V25ZM23.0006 7.91424L22.4655 8.44933C22.6626 8.83107 22.8391 9.24637 23.0005 9.68461C23.162 9.24635 23.3385 8.83103 23.5356 8.44928L23.0006 7.91424ZM20.0005 12C20.0005 12.9728 20.3204 13.7057 20.8077 14.1929C21.2949 14.6801 22.0278 15 23.0005 15C23.9733 15 24.7062 14.6801 25.1934 14.1929C25.6807 13.7057 26.0005 12.9728 26.0005 12V8.39711C25.8473 8.53877 25.6979 8.72282 25.5481 8.95624C25.0692 9.70232 24.6836 10.8178 24.2975 12.2589L24.0989 13.0001H21.9022L21.7036 12.2589C21.3175 10.8178 20.9319 9.70232 20.453 8.95624C20.3032 8.72282 20.1538 8.53877 20.0005 8.39711V12Z" fill="#000000" class="bmwfcol"/><title>flowering_meadow_rg_48</title></svg>