<svg width="48" height="48" viewBox="0 0 32 32" xmlns="http://www.w3.org/2000/svg"><path d="M8 18.5004C7.17157 18.5004 6.5 19.172 6.5 20.0004C6.5 20.8288 7.17157 21.5004 8 21.5004C8.82843 21.5004 9.5 20.8288 9.5 20.0004C9.5 19.172 8.82843 18.5004 8 18.5004Z" fill="#000000" class="bmwfcol"/><path d="M18.5674 4.4722C21.2973 4.4917 23.5 6.71022 23.5 9.44018V9.50715C23.5 10.2004 23.356 10.8792 23.0843 11.5032C24.7554 11.551 26.3569 12.1958 27.5964 13.3242L29.216 14.7988L29.2487 16.1658L17.9142 27.5003H16.4394L15.5977 26.5952C14.6517 25.5781 13.3253 25.0003 11.9363 25.0003L8 25.0003C5.23858 25.0003 3 22.7617 3 20.0003C3 18.7621 3.45006 17.6291 4.1955 16.7558L4.19289 16.7532C7.79835 13.1478 11.4105 9.53555 15.0189 5.92719C15.9593 4.98679 17.2375 4.4627 18.5674 4.4722ZM6.0766 17.6979L5.69762 18.0769C5.26212 18.5976 5 19.2684 5 20.0003C5 21.6572 6.34315 23.0003 8 23.0003C9.65685 23.0003 11 21.6572 11 20.0003C11 18.3435 9.65685 17.0003 8 17.0003C7.26806 17.0003 6.59734 17.2624 6.0766 17.6979ZM12.9535 19.3158L20.2875 11.9817L20.2828 11.9772L20.6515 11.5979C21.1956 11.0379 21.5 10.2879 21.5 9.50715V9.44018C21.5 7.80921 20.184 6.48379 18.5531 6.47214C17.7586 6.46647 16.9949 6.77958 16.4331 7.34141L8.72241 15.0521C10.9182 15.3699 12.6522 17.1147 12.9535 19.3158ZM21.5973 13.5003L12.0956 23.0021C13.9821 23.045 15.7741 23.8482 17.0622 25.2332L17.2023 25.3838L27.0524 15.5337L26.2499 14.8031C25.3293 13.9649 24.1289 13.5003 22.8838 13.5003H21.5973Z" fill="#000000" class="bmwfcol"/><title>foil_roll_rg_48</title></svg>