<svg width="48" height="48" viewBox="0 0 32 32" xmlns="http://www.w3.org/2000/svg"><path d="M20.1357 4.05518H18.2447V11.9499H20.1357V8.73932H22.7376V11.9499H24.6286V4.05518H22.7376V6.9179H20.1357V4.05518Z" fill="#000000" class="bmwfcol"/><path d="M27.5705 8.56794C27.0071 8.56794 26.3394 8.72293 26.0925 8.7822L25.9392 8.819V10.366L26.1877 10.3039C26.4325 10.2427 27.0036 10.1011 27.4115 10.1011C27.5429 10.1011 27.6369 10.1061 27.7051 10.1172C27.7741 10.1283 27.7986 10.143 27.8056 10.1484C27.8282 10.166 27.8346 10.1775 27.8377 10.1849C27.842 10.1948 27.8477 10.215 27.8477 10.2589C27.8477 10.2925 27.8373 10.3392 27.769 10.4256C27.6974 10.5162 27.5788 10.6295 27.3897 10.7938L27.3888 10.7946C27.0702 11.0746 26.4629 11.5157 25.9543 11.8748L25.8696 11.9346V13.2421H29.7387V11.7686H28.4762C28.6502 11.6109 28.8265 11.4395 28.9911 11.258L28.9926 11.2563C29.152 11.0764 29.2794 10.9068 29.3649 10.714C29.4517 10.5183 29.4902 10.3107 29.4902 10.0601C29.4902 9.60615 29.2866 9.17553 28.9417 8.92503C28.6142 8.68011 28.1371 8.56794 27.5705 8.56794Z" fill="#000000" class="bmwfcol"/><path d="M18.3429 12.2181L21.7076 24.7751L24.3639 24.0634L24.8815 25.9952L20.2934 27.2246L16.4111 12.7357L18.3429 12.2181Z" fill="#000000" class="bmwfcol"/><path d="M15.5179 12.9999L7.0006 12.9999V18.9999H3.0006L3.0006 22.9999L3.00032 23.0744C2.99865 23.3716 2.9963 23.7898 3.19993 24.1971C3.25774 24.3127 3.32547 24.4164 3.39609 24.51C3.14446 24.949 3.0006 25.4576 3.0006 25.9999C3.0006 27.6567 4.34375 28.9999 6.0006 28.9999C7.30682 28.9999 8.41806 28.1651 8.8299 26.9999H12.3374C12.8992 28.1824 14.1044 28.9999 15.5006 28.9999C17.4336 28.9999 19.0006 27.4329 19.0006 25.4999C19.0006 24.5349 18.6101 23.6611 17.9785 23.028C17.8961 21.9996 17.51 20.4347 15.7165 13.7411L15.5179 12.9999ZM5.00112 23.1704C5.00073 23.1251 5.0006 23.0695 5.0006 22.9999L5.0006 20.9999H6.58759C8.15568 22.5548 9.16844 23.443 9.99673 23.9262C10.8383 24.4171 11.4912 24.488 12.1461 24.4982C12.0976 24.6608 12.0606 24.8283 12.036 24.9999H8.8299C8.41806 23.8347 7.30682 22.9999 6.0006 22.9999C5.65016 22.9999 5.31375 23.06 5.00112 23.1704ZM13.6968 22.4999H12.5006C11.7814 22.4999 11.5115 22.4944 11.0045 22.1986C10.5573 21.9378 9.95864 21.4598 9.0006 20.5547V14.9999L13.983 14.9999C15.044 18.9676 15.5474 20.9227 15.7861 22.0114C15.6919 22.0038 15.5967 21.9999 15.5006 21.9999C14.8408 21.9999 14.2236 22.1825 13.6968 22.4999ZM6.0006 24.9999C6.55289 24.9999 7.0006 25.4476 7.0006 25.9999C7.0006 26.5522 6.55289 26.9999 6.0006 26.9999C5.44832 26.9999 5.0006 26.5522 5.0006 25.9999C5.0006 25.4476 5.44832 24.9999 6.0006 24.9999ZM14.0006 25.4999C14.0006 24.6715 14.6722 23.9999 15.5006 23.9999C16.329 23.9999 17.0006 24.6715 17.0006 25.4999C17.0006 26.3283 16.329 26.9999 15.5006 26.9999C14.6722 26.9999 14.0006 26.3283 14.0006 25.4999Z" fill="#000000" class="bmwfcol"/><title>forklift_hydrogen_rg_48</title></svg>