<svg width="48" height="48" viewBox="0 0 32 32" xmlns="http://www.w3.org/2000/svg"><path d="M11.4885 14C11.2585 14 11.0489 14 10.8747 13.9908C10.6919 13.9811 10.4786 13.9589 10.2594 13.8847C9.8457 13.7446 9.56059 13.4549 9.37026 13.2615C9.3514 13.2423 9.33347 13.2241 9.31645 13.2071L9.00366 12.8943L9.02468 12.4525C9.22465 8.24914 11.7431 5.16156 15.608 4.26578C15.7168 3.86826 15.9186 3.50392 16.2172 3.20539C16.6924 2.73011 17.3345 2.5 18.0118 2.5C18.689 2.5 19.3311 2.73011 19.8064 3.20539C20.1049 3.50393 20.3067 3.86828 20.4155 4.26582C21.1442 4.43478 21.8304 4.68298 22.4657 5.00656L23.0118 5.28473V6.44965L22.8891 6.67399C22.0911 8.13205 20.8981 9.27798 19.4076 10.0228C19.2072 10.7847 19.1785 10.9768 19.2026 11.1455C19.2251 11.3028 19.299 11.4775 19.5923 12H21.0118V14L11.4885 14ZM17.6314 4.61961C17.5817 4.66933 17.5118 4.77725 17.5118 5V5.96993L16.662 6.09904C13.5261 6.57548 11.4217 8.74472 11.0654 11.9969C11.171 11.9998 11.3099 12 11.5118 12L13.8771 12L14.2777 11.5995C14.4229 11.454 14.5118 11.2636 14.5118 11C14.5118 10.704 14.4001 10.4912 14.1996 10.3309C13.98 10.1551 13.5927 10 13.0118 10V8C13.931 8 14.7937 8.24488 15.449 8.76913C16.1236 9.30879 16.5118 10.096 16.5118 11C16.5118 11.3521 16.4528 11.6883 16.3395 12L17.3701 12C17.3012 11.8107 17.2504 11.6218 17.2228 11.4286C17.1305 10.7831 17.3035 10.141 17.5056 9.39077L17.7215 8.58559L18.1675 8.39421C19.1976 7.95216 20.0476 7.28102 20.6841 6.41981C20.2704 6.27817 19.8291 6.17007 19.3616 6.09904L18.5118 5.96993V5C18.5118 4.77725 18.4419 4.66933 18.3922 4.61961C18.3424 4.56989 18.2345 4.5 18.0118 4.5C17.789 4.5 17.6811 4.56989 17.6314 4.61961Z" fill="#000000" class="bmwfcol"/><path d="M28.3684 14.4031C28.9704 14.6299 29.3997 14.9852 29.7074 15.2928L30.4147 15.9999L21.5891 24.8256C20.7036 25.7123 20.044 26.3728 19.0665 26.6987C18.5666 26.8653 18.0256 26.9342 17.3965 26.9673C16.7764 27 16.0047 27 15.029 27H11.4144L9.41436 29H7.58594L1.58594 23L6.30666 18.2792C6.79513 17.7908 7.18002 17.4059 7.49357 17.113C7.80632 16.8208 8.09329 16.5766 8.38671 16.397C9.03833 15.9982 9.61222 15.9991 10.1896 15.9999L10.4 16L14.1321 17L19.0002 17C19.4743 17 19.9403 17.1456 20.3113 17.457C22.8562 15.4492 24.7373 14.5139 26.1993 14.2527C27.0435 14.1018 27.7594 14.1737 28.3684 14.4031ZM19.0001 19L13.8688 19L10.1379 18.0003C9.5985 18.0031 9.55695 18.0256 9.43065 18.1029C9.31554 18.1734 9.14825 18.3041 8.85887 18.5745C8.57319 18.8413 8.21232 19.202 7.70726 19.7071L4.41436 23L8.41436 27H8.58594L10.5859 25H15.0002C16.0109 25 16.73 24.9996 17.2914 24.9701C17.8499 24.9407 18.1839 24.8847 18.4341 24.8013C18.9136 24.6414 19.2397 24.3465 20.2933 23.2929L27.3861 16.2001C27.1749 16.1636 26.9036 16.1585 26.5511 16.2215C25.4854 16.4119 23.7543 17.211 21.0003 19.4697L21.0001 20.4143L20.7073 20.7071C19.6534 21.761 18.7738 22.3795 17.8165 22.6986C16.9111 23.0005 16.0168 23.0002 15.0818 23L11.0002 23V21H15.0004C16.0358 21 16.6158 20.9907 17.184 20.8013C17.6686 20.6398 18.2151 20.3183 19.0002 19.5776L19.0001 19Z" fill="#000000" class="bmwfcol"/><title>frog_on_hand_rg_48</title></svg>