<svg width="48" height="48" viewBox="0 0 32 32" xmlns="http://www.w3.org/2000/svg"><path d="M27 16H29C29 12.1728 27.7199 8.90567 25.4071 6.59289C23.0943 4.28011 19.8272 3 16 3C12.1728 3 8.90567 4.28011 6.59289 6.59289C4.28011 8.90567 3 12.1728 3 16C3 19.8272 4.28011 23.0943 6.59289 25.4071C8.90567 27.7199 12.1728 29 16 29C16.3596 29 16.7144 28.9887 17.0639 28.9663L18 28.9064V23.0001C18 22.1245 17.851 21.341 17.4569 20.5529C17.1842 20.0075 16.808 19.4882 16.3313 18.9518C16.7556 18.3037 16.9785 17.5358 16.7788 16.6095C16.5283 15.4479 15.638 14.2239 14.2071 12.793L13.5 12.0859L12.5002 13.0858L10.2074 10.793L8.79318 12.2072L11.086 14.5L10.5001 15.0858L8.20728 12.793L6.79306 14.2072L9.08591 16.5L8.08579 17.5002L8.79289 18.2073C10.2238 19.6381 11.4478 20.5285 12.6094 20.7789C13.5144 20.974 14.2681 20.7658 14.9067 20.3605C15.2647 20.7723 15.505 21.1213 15.668 21.4473C15.899 21.9091 16 22.3757 16 23.0001V27C12.6272 27 9.89433 25.8801 8.00711 23.9929C6.11989 22.1057 5 19.3728 5 16C5 12.6272 6.11989 9.89433 8.00711 8.00711C9.89433 6.11989 12.6272 5 16 5C19.3728 5 22.1057 6.11989 23.9929 8.00711C25.8801 9.89433 27 12.6272 27 16ZM14.8237 17.031C14.9101 17.4318 14.814 17.7719 14.2929 18.293C13.7717 18.8142 13.4316 18.9102 13.0309 18.8238C12.5794 18.7265 11.9172 18.3676 10.9318 17.4826L13.4824 14.9319C14.3674 15.9173 14.7263 16.5796 14.8237 17.031Z" fill="#000000" class="bmwfcol"/><path d="M20 26.4001V28.4864C21.2937 28.1343 22.483 27.6056 23.5453 26.9145L24 26.6187V16.8925C24.0004 16.1921 24.0008 15.559 23.8343 14.9929C23.6387 14.3279 23.2482 13.8341 22.7071 13.293L16 6.58594V9.41436L18 11.4143L17.9999 16.1077C17.9995 16.8081 17.9991 17.4412 18.1656 18.0073C18.3612 18.6723 18.7517 19.1661 19.2928 19.7072L22 22.4144V25.5165C21.3842 25.8711 20.7164 26.1677 20 26.4001ZM22 17.0001V19.5859L20.7071 18.293C20.2482 17.8341 20.1387 17.6279 20.0843 17.4429C20.0093 17.1879 20 16.8568 20 16.0001V13.4143L21.2928 14.7072C21.7517 15.1661 21.8612 15.3723 21.9156 15.5573C21.9906 15.8123 22 16.1434 22 17.0001Z" fill="#000000" class="bmwfcol"/><title>fuel-type-phev_rg_48</title></svg>