<svg width="48" height="48" viewBox="0 0 32 32" xmlns="http://www.w3.org/2000/svg"><path d="M16 15V13H10V15H16Z" fill="#000000" class="bmwfcol"/><path d="M13 4C10.6946 4 9.35751 4.04652 8.54372 4.14543C8.13521 4.19508 7.79939 4.26417 7.51674 4.37604C7.19795 4.50222 6.99053 4.66526 6.82789 4.82789C6.25722 5.39856 6 6.17408 6 7V26H4V28H22V26H20V15.0002H21C21.4141 15.0002 21.6386 15.1229 21.7579 15.2423C21.8772 15.3616 22 15.5861 22 16.0002V21.0002C22 21.8261 22.2572 22.6016 22.8279 23.1723C23.3986 23.7429 24.1741 24.0002 25 24.0002C25.8259 24.0002 26.6014 23.7429 27.1721 23.1723C27.7428 22.6016 28 21.8261 28 21.0002V11.9058C28.0004 11.2406 28.0007 10.6127 27.8365 10.0379C27.6459 9.37075 27.2667 8.85263 26.7071 8.29304L23 4.58594V7.41436L25.2929 9.70726C25.7333 10.1477 25.8541 10.3796 25.9135 10.5874C25.9915 10.8605 26 11.2003 26 12.0002V21.0002C26 21.4142 25.8772 21.6387 25.7579 21.758C25.6386 21.8774 25.4141 22.0002 25 22.0002C24.5859 22.0002 24.3614 21.8774 24.2421 21.758C24.1228 21.6387 24 21.4142 24 21.0002V16.0002C24 15.1742 23.7428 14.3987 23.1721 13.828C22.6014 13.2574 21.8259 13.0002 21 13.0002H20V7C20 6.17408 19.7428 5.39856 19.1721 4.82789C19.0095 4.66526 18.8021 4.50222 18.4833 4.37604C18.2006 4.26417 17.8648 4.19508 17.4563 4.14543C16.6425 4.04652 15.3054 4 13 4ZM18 26H8V7C8 6.58592 8.12278 6.36144 8.24211 6.24211C8.24434 6.23988 8.24556 6.23803 8.24556 6.23803C8.29807 6.21724 8.44791 6.17179 8.78503 6.13082C9.46249 6.04848 10.6854 6 13 6C15.3146 6 16.5375 6.04848 17.215 6.13082C17.5521 6.17179 17.6947 6.21489 17.7472 6.23568C17.8665 6.35501 18 6.58592 18 7V26Z" fill="#000000" class="bmwfcol"/><title>fuel-pump_rg_48</title></svg>