<svg width="48" height="48" viewBox="0 0 32 32" xmlns="http://www.w3.org/2000/svg"><path d="M20 20V15H21C21.4141 15 21.6386 15.1228 21.7579 15.2421C21.8772 15.3614 22 15.5859 22 16V21C22 21.8259 22.2572 22.6014 22.8279 23.1721C23.3986 23.7428 24.1741 24 25 24C25.8259 24 26.6014 23.7428 27.1721 23.1721C27.7428 22.6014 28 21.8259 28 21V11.9057C28.0004 11.2405 28.0007 10.6125 27.8365 10.0378C27.6459 9.3706 27.2667 8.85248 26.7071 8.2929L23 4.58579V7.41422L25.2929 9.70711C25.7333 10.1475 25.8541 10.3794 25.9135 10.5872C25.9915 10.8604 26 11.2002 26 12V21C26 21.4141 25.8772 21.6386 25.7579 21.7579C25.6386 21.8772 25.4141 22 25 22C24.5859 22 24.3614 21.8772 24.2421 21.7579C24.1228 21.6386 24 21.4141 24 21V16C24 15.1741 23.7428 14.3986 23.1721 13.8279C22.6014 13.2572 21.8259 13 21 13H20V7C20 6.17408 19.7428 5.39856 19.1721 4.82789C19.0095 4.66526 18.8021 4.50222 18.4833 4.37604C18.2006 4.26417 17.8648 4.19508 17.4563 4.14543C16.6425 4.04652 15.3054 4 13 4C10.6946 4 9.35751 4.04652 8.54372 4.14543C8.13521 4.19508 7.79939 4.26417 7.51674 4.37604C7.19795 4.50222 6.99053 4.66526 6.82789 4.82789C6.25722 5.39856 6 6.17408 6 7V16H8V7C8 6.58592 8.12278 6.36144 8.24211 6.24211C8.24434 6.23988 8.24556 6.23803 8.24556 6.23803C8.24556 6.23803 8.24864 6.23732 8.25279 6.23568C8.3053 6.21489 8.44791 6.17179 8.78503 6.13082C9.46249 6.04848 10.6854 6 13 6C15.3146 6 16.5375 6.04848 17.215 6.13082C17.5521 6.17179 17.6947 6.21489 17.7472 6.23568C17.7514 6.23732 17.7544 6.23803 17.7544 6.23803C17.7544 6.23803 17.7557 6.23988 17.7579 6.24211C17.8772 6.36144 18 6.58592 18 7V20H20Z" fill="#000000" class="bmwfcol"/><path d="M16 13V15H10V13H16Z" fill="#000000" class="bmwfcol"/><path d="M7.9927 28.3V24.0162H11.998V28.3H13.9874V18.3001H11.998V22.1197H7.9927V18.3001H6.00333V28.3H7.9927Z" fill="#000000" class="bmwfcol"/><path d="M20.1424 30.0241V28.5918H18.0071C18.3917 28.2735 18.8294 27.8889 19.214 27.4645C19.6252 27.0003 19.8108 26.6554 19.8108 26.0454C19.8108 25.5149 19.5721 25.0242 19.1875 24.7456C18.8161 24.4671 18.2459 24.3212 17.5164 24.3212C16.8002 24.3212 15.9382 24.5202 15.6066 24.5998V26.1117C15.9249 26.0321 16.7207 25.8332 17.3042 25.8332C17.6623 25.8332 17.8745 25.8597 17.9939 25.9525C18.1132 26.0454 18.153 26.1515 18.153 26.3106C18.153 26.5626 17.9541 26.7881 17.4501 27.2257C17.0124 27.6103 16.1902 28.2072 15.5138 28.6846V30.0241H20.1424Z" fill="#000000" class="bmwfcol"/><title>fuel-station-h2_rg_48</title></svg>