<svg width="48" height="48" viewBox="0 0 32 32" xmlns="http://www.w3.org/2000/svg"><path d="M8.0388 22.0518H10.4412L11.0001 22.3157L11.5591 22.0518H13.9615L14.8483 22.8893V25.0992L13.7749 26.7603H11.2243L11.0001 26.5486L10.7759 26.7603H8.26322L7.15198 25.1077V22.8893L8.0388 22.0518ZM8.85198 23.7518V24.5893L9.16871 25.0603H10V23.7518H8.85198ZM12.8494 25.0603L13.1483 24.5978V23.7518H12V25.0603H12.8494Z" fill="#000000" class="bmwfcol"/><path d="M15 30V29.1315C12.2145 29.2995 9.78545 29.2995 7 29.1315V30H2V23.0321C2 22.3094 2.40538 21.697 2.76518 21.2581C2.93534 21.0506 3.12988 20.8418 3.33607 20.6348C3.08878 20.6235 2.77729 20.624 2.34816 20.6246C2.2401 20.6248 2.12383 20.625 2 20.625V18.625C2.10975 18.625 2.217 18.6247 2.32162 18.6245C2.90055 18.6231 3.39946 18.622 3.79921 18.6639C4.08017 18.6934 4.35093 18.7469 4.6112 18.8476C4.71359 18.6645 4.82399 18.4765 4.94042 18.2909C5.15445 17.9497 5.40199 17.5956 5.67103 17.29C5.92588 17.0006 6.26768 16.6759 6.68501 16.4927C7.10867 16.3068 7.46296 16.1631 8.12182 16.0864C8.71023 16.0179 9.55905 16 11 16C13.631 16 14.3393 16.0641 15.3154 16.4929C15.7318 16.6766 16.0743 17.0014 16.3291 17.2909C16.598 17.5964 16.8455 17.9504 17.0595 18.2914C17.1759 18.4769 17.2862 18.6647 17.3886 18.8476C17.6489 18.7469 17.9197 18.6934 18.2007 18.6639C18.6005 18.622 19.0993 18.6231 19.6782 18.6245C19.7828 18.6247 19.8903 18.625 20 18.625V20.625C19.8759 20.625 19.7602 20.6248 19.6519 20.6246C19.2228 20.624 18.9113 20.6235 18.6639 20.6348C18.8701 20.8418 19.0647 21.0506 19.2348 21.2581C19.5946 21.697 20 22.3094 20 23.0321V30H15ZM7.48897 18.324C7.48897 18.324 7.3387 18.4224 7.17203 18.6118C6.96072 18.8518 6.78101 19.1189 6.61215 19.3898C7.33224 19.3686 8.27975 19.3706 9.51689 19.3732C9.97118 19.3741 10.4645 19.3751 11 19.3751C11.5355 19.3751 12.0289 19.3741 12.4831 19.3732C13.7204 19.3706 14.6677 19.3686 15.3875 19.3898C15.2182 19.1193 15.0391 18.8524 14.8279 18.6124C14.6622 18.4242 14.5096 18.3234 14.5096 18.3234C13.9745 18.0884 13.6792 18 11 18C9.53486 18 8.80553 18.0203 8.35311 18.073C7.97123 18.1174 7.82198 18.1779 7.48897 18.324ZM5.28054 21.5407C5.03764 21.7664 4.82155 21.973 4.63592 22.1655C5.17227 22.2546 5.76787 22.3181 6.5 22.3739V24.3795C5.53893 24.3095 4.74668 24.2249 4 24.0836V28H5V26.9869L6.0727 27.0651C9.59099 27.3216 12.409 27.3216 15.9273 27.0651L17 26.9869V28H18V24.0838C17.2533 24.2251 16.4611 24.3096 15.5 24.3797V22.3741C16.2322 22.3183 16.8278 22.2547 17.3642 22.1656C17.179 21.9736 16.9635 21.7675 16.7212 21.5424C16.6982 21.5326 16.6558 21.5174 16.5855 21.5007C16.404 21.4576 16.118 21.4225 15.6524 21.4009C14.947 21.3682 13.9609 21.3702 12.5312 21.3731C12.069 21.3741 11.5605 21.3751 11 21.3751C10.4396 21.3751 9.93107 21.3741 9.46884 21.3731C8.03888 21.3702 7.05234 21.3682 6.34644 21.4009C5.88055 21.4225 5.59419 21.4576 5.41234 21.5008C5.34596 21.5165 5.30445 21.5309 5.28054 21.5407Z" fill="#000000" class="bmwfcol"/><path d="M10.1619 14.0026C10.0547 13.3606 9.99988 12.6915 9.99988 11.9995C9.99988 9.07226 10.98 6.55518 12.7678 4.7674C14.5555 2.97963 17.0726 1.99951 19.9999 1.99951C22.9271 1.99951 25.4442 2.97963 27.232 4.7674C28.5979 6.13332 29.4923 7.92497 29.8384 10C29.9454 10.641 30 11.3091 30 12C30 14.7776 29.1176 17.1858 27.5 18.9522V15.1074C27.8241 14.1853 28 13.1452 28 12C28 9.52725 27.18 7.54384 25.8178 6.18162C24.4555 4.8194 22.4726 3.99951 19.9999 3.99951C17.5271 3.99951 15.5442 4.8194 14.182 6.18162C12.8198 7.54384 11.9999 9.52676 11.9999 11.9995C11.9999 12.7321 12.0718 13.4216 12.2085 14.0648C11.8613 14.0232 11.4643 14 11.0001 14C10.7014 14 10.4227 14.0007 10.1619 14.0026Z" fill="#000000" class="bmwfcol"/><path d="M19.897 16.6249L21.9542 16.625C21.88 16.1428 21.7136 15.7047 21.4433 15.2691C21.2156 14.9023 20.9172 14.5441 20.567 14.1691C20.842 13.6766 20.9769 13.0937 20.8283 12.404C20.6241 11.4569 19.9092 10.4949 18.8319 9.41756L18.1248 8.71045L17.3689 9.46631L15.8309 7.92822L14.6288 9.1303L16.1669 10.6684L15.6689 11.1664L14.1309 9.62842L12.9288 10.8305L14.4668 12.3685L13.7106 13.1247L14.4177 13.8318C15.495 14.9091 16.457 15.6239 17.4041 15.8281C18.0834 15.9746 18.659 15.8458 19.1468 15.5793C19.4235 15.878 19.6119 16.111 19.744 16.3238C19.8076 16.4263 19.8582 16.5243 19.897 16.6249ZM18.8732 12.8255C18.9133 13.0118 18.9003 13.1849 18.5427 13.5426C18.1851 13.9002 18.0119 13.9132 17.8256 13.873C17.5747 13.8189 17.1763 13.6202 16.5644 13.0993L18.0994 11.5642C18.6204 12.1761 18.8191 12.5745 18.8732 12.8255Z" fill="#000000" class="bmwfcol"/><path d="M25.9999 12.4058C26.0004 11.8939 26.0009 11.3842 25.8654 10.9237C25.7011 10.3649 25.3731 9.95865 24.9569 9.54251L19.9999 4.58545V7.41388L20.9999 8.41388L20.9998 11.8433C20.9993 12.3552 20.9988 12.8649 21.1343 13.3254C21.2986 13.8842 21.6266 14.2905 22.0428 14.7066L23.9998 16.6637L23.9999 19.1219C23.6837 19.2802 23.3502 19.4188 22.9999 19.5364V21.6232C23.9067 21.3827 24.7495 21.0293 25.5143 20.5705L25.9999 20.2792V12.4058ZM23.9998 12.4996V13.8352L23.457 13.2924C23.1231 12.9585 23.0762 12.8398 23.053 12.7611C23.0092 12.6123 22.9999 12.4062 22.9999 11.7495V10.4139L23.5427 10.9567C23.8766 11.2906 23.9235 11.4093 23.9467 11.488C23.9905 11.6368 23.9998 11.8429 23.9998 12.4996Z" fill="#000000" class="bmwfcol"/><title>fuel-car-phev_rg_48</title></svg>