<svg width="48" height="48" viewBox="0 0 32 32" xmlns="http://www.w3.org/2000/svg"><path d="M12 9V11H16V9H12Z" fill="#000000" class="bmwfcol"/><path d="M11.0359 3.11299C11.605 3.03442 12.5042 3 14 3C15.4958 3 16.395 3.03442 16.9641 3.11299C17.2533 3.15291 17.5135 3.21106 17.7458 3.31141C18.007 3.42429 18.1786 3.5669 18.3059 3.69414C18.7903 4.17856 19 4.82908 19 5.5V8.99991C19.8259 8.99991 20.6014 9.25713 21.1721 9.8278C21.7428 10.3985 22 11.174 22 11.9999V13.9999C22 14.414 22.1228 14.6385 22.2421 14.7578C22.3614 14.8771 22.5859 14.9999 23 14.9999C23.4141 14.9999 23.6386 14.8771 23.7579 14.7578C23.8772 14.6385 24 14.414 24 13.9999V9.99991C24 9.2001 23.9915 8.86027 23.9135 8.58713C23.8541 8.37931 23.7333 8.14743 23.2929 7.70701L22 6.41412V3.58569L24.7071 6.2928C25.2667 6.85238 25.6459 7.37051 25.8365 8.03769C26.0007 8.61244 26.0004 9.2404 26 9.90559L26 13.9999C26 14.8258 25.7428 15.6013 25.1721 16.172C24.6014 16.7427 23.8259 16.9999 23 16.9999C22.1741 16.9999 21.3986 16.7427 20.8279 16.172C20.2572 15.6013 20 14.8258 20 13.9999V11.9999C20 11.5858 19.8772 11.3613 19.7579 11.242C19.6386 11.1227 19.4141 10.9999 19 10.9999V17H20V19L8 19V17H9V5.5C9 4.82908 9.20972 4.17856 9.69414 3.69414C9.82139 3.5669 9.99296 3.42429 10.2542 3.31141C10.4865 3.21106 10.7467 3.15291 11.0359 3.11299ZM17 5.5C17 5.29119 16.9511 5.18604 16.9148 5.13579C16.877 5.12573 16.8072 5.1103 16.6906 5.0942C16.275 5.03683 15.5042 5 14 5C12.4958 5 11.725 5.03683 11.3094 5.0942C11.1928 5.1103 11.123 5.12573 11.0852 5.13579C11.0489 5.18604 11 5.29119 11 5.5V17L17 17V5.5Z" fill="#000000" class="bmwfcol"/><path d="M7 29V21H5V29H7Z" fill="#000000" class="bmwfcol"/><path d="M8.5 23C8.5 22.1716 9.17157 21.5 10 21.5C10.8284 21.5 11.5 22.1716 11.5 23C11.5 23.8284 10.8284 24.5 10 24.5C9.17157 24.5 8.5 23.8284 8.5 23Z" fill="#000000" class="bmwfcol"/><path d="M10 25.5C9.17157 25.5 8.5 26.1716 8.5 27C8.5 27.8284 9.17157 28.5 10 28.5C10.8284 28.5 11.5 27.8284 11.5 27C11.5 26.1716 10.8284 25.5 10 25.5Z" fill="#000000" class="bmwfcol"/><path d="M12.5 23C12.5 22.1716 13.1716 21.5 14 21.5C14.8284 21.5 15.5 22.1716 15.5 23C15.5 23.8284 14.8284 24.5 14 24.5C13.1716 24.5 12.5 23.8284 12.5 23Z" fill="#000000" class="bmwfcol"/><path d="M14 25.5C13.1716 25.5 12.5 26.1716 12.5 27C12.5 27.8284 13.1716 28.5 14 28.5C14.8284 28.5 15.5 27.8284 15.5 27C15.5 26.1716 14.8284 25.5 14 25.5Z" fill="#000000" class="bmwfcol"/><path d="M16.5 23C16.5 22.1716 17.1716 21.5 18 21.5C18.8284 21.5 19.5 22.1716 19.5 23C19.5 23.8284 18.8284 24.5 18 24.5C17.1716 24.5 16.5 23.8284 16.5 23Z" fill="#000000" class="bmwfcol"/><path d="M18 25.5C17.1716 25.5 16.5 26.1716 16.5 27C16.5 27.8284 17.1716 28.5 18 28.5C18.8284 28.5 19.5 27.8284 19.5 27C19.5 26.1716 18.8284 25.5 18 25.5Z" fill="#000000" class="bmwfcol"/><path d="M20.5 23C20.5 22.1716 21.1716 21.5 22 21.5C22.8284 21.5 23.5 22.1716 23.5 23C23.5 23.8284 22.8284 24.5 22 24.5C21.1716 24.5 20.5 23.8284 20.5 23Z" fill="#000000" class="bmwfcol"/><path d="M22 25.5C21.1716 25.5 20.5 26.1716 20.5 27C20.5 27.8284 21.1716 28.5 22 28.5C22.8284 28.5 23.5 27.8284 23.5 27C23.5 26.1716 22.8284 25.5 22 25.5Z" fill="#000000" class="bmwfcol"/><path d="M27 21V29H25V21H27Z" fill="#000000" class="bmwfcol"/><title>fuel-filter-service_rg_48</title></svg>