<svg width="48" height="48" viewBox="0 0 32 32" xmlns="http://www.w3.org/2000/svg"><path d="M19.9999 20V15H20.9999C21.414 15 21.6385 15.1228 21.7578 15.2421C21.8772 15.3614 21.9999 15.5859 21.9999 16V21C21.9999 21.8259 22.2572 22.6014 22.8278 23.1721C23.3985 23.7428 24.174 24 24.9999 24C25.8259 24 26.6014 23.7428 27.172 23.1721C27.7427 22.6014 27.9999 21.8259 27.9999 21L28 11.9057C28.0003 11.2405 28.0007 10.6125 27.8365 10.0378C27.6458 9.3706 27.2666 8.85248 26.7071 8.2929L22.9999 4.58579V7.41422L25.2928 9.70711C25.7333 10.1475 25.854 10.3794 25.9134 10.5872C25.9915 10.8604 25.9999 11.2002 25.9999 12V21C25.9999 21.4141 25.8772 21.6386 25.7578 21.7579C25.6385 21.8772 25.414 22 24.9999 22C24.5859 22 24.3614 21.8772 24.242 21.7579C24.1227 21.6386 23.9999 21.4141 23.9999 21V16C23.9999 15.1741 23.7427 14.3986 23.172 13.8279C22.6014 13.2572 21.8259 13 20.9999 13H19.9999V7C19.9999 6.17408 19.7427 5.39856 19.172 4.82789C19.0094 4.66526 18.802 4.50222 18.4832 4.37604C18.2006 4.26417 17.8647 4.19508 17.4562 4.14543C16.6424 4.04652 15.3053 4 12.9999 4C10.6946 4 9.35745 4.04652 8.54366 4.14543C8.13515 4.19508 7.79933 4.26417 7.51668 4.37604C7.19789 4.50222 6.99047 4.66526 6.82784 4.82789C6.25716 5.39856 5.99994 6.17408 5.99994 7V20H7.99994V7C7.99994 6.58592 8.12272 6.36144 8.24205 6.24211C8.24428 6.23988 8.24551 6.23803 8.24551 6.23803C8.24551 6.23803 8.24858 6.23732 8.25273 6.23568C8.30524 6.21489 8.44785 6.17179 8.78497 6.13082C9.46243 6.04848 10.6853 6 12.9999 6C15.3146 6 16.5375 6.04848 17.2149 6.13082C17.552 6.17179 17.6946 6.21489 17.7472 6.23568C17.7513 6.23732 17.7544 6.23803 17.7544 6.23803C17.7544 6.23803 17.7556 6.23988 17.7578 6.24211C17.8772 6.36144 17.9999 6.58592 17.9999 7V20H19.9999Z" fill="#000000" class="bmwfcol"/><path d="M15.9999 13V15H9.99994V13H15.9999Z" fill="#000000" class="bmwfcol"/><path d="M9.49169 27.9994L9.65136 27.9666V26.4805L9.40967 26.532C8.95357 26.6292 8.34346 26.7502 7.88574 26.7502C7.28391 26.7502 7.01522 26.6323 6.87211 26.3834C6.724 26.1241 6.68336 25.709 6.68336 25.162C6.68336 24.5682 6.72994 24.1737 6.86258 23.9084C6.9422 23.7492 7.04458 23.6426 7.18795 23.5716C7.33702 23.4978 7.54565 23.4551 7.84864 23.4551C8.06907 23.4551 8.29315 23.4826 8.56088 23.5332C8.87721 23.5921 9.15667 23.6509 9.40555 23.7095L9.65136 23.7673V22.2816L9.49848 22.2445C9.24899 22.184 9.0672 22.1462 8.70912 22.0791C8.36874 22.0186 8.0501 21.9792 7.71508 21.9792C7.11822 21.9792 6.66994 22.1063 6.32603 22.3093C5.98237 22.5122 5.75722 22.7825 5.59373 23.0457C5.25137 23.6 5.15552 24.316 5.15552 25.1843C5.15552 26.025 5.27385 26.7269 5.58102 27.2001C5.73435 27.436 5.94201 27.6978 6.27937 27.8977C6.61687 28.0977 7.06748 28.2261 7.69282 28.2261C8.36079 28.2261 8.98704 28.1033 9.49169 27.9994Z" fill="#000000" class="bmwfcol"/><path d="M10.251 28.1H11.7491V24.8853L13.669 28.1H15.1846V22.1053H13.6864V25.3201L11.7665 22.1053H10.251V28.1Z" fill="#000000" class="bmwfcol"/><path d="M20.5043 28.0384L20.6745 28.0128V24.6949H19.1764V26.7606C19.0191 26.7738 18.8089 26.7873 18.5824 26.7873C17.9742 26.7873 17.7113 26.6813 17.5695 26.4292C17.4214 26.17 17.38 25.7838 17.38 25.162C17.38 24.5353 17.4332 24.1754 17.5667 23.9084C17.6516 23.7386 17.7514 23.6338 17.8883 23.566C18.0322 23.4948 18.236 23.4551 18.5453 23.4551C18.7165 23.4551 18.9274 23.4758 19.1425 23.5116C19.5223 23.5774 19.9104 23.6652 20.2373 23.7395L20.4816 23.795V22.3261L20.3287 22.289C20.0835 22.2296 19.7371 22.1467 19.3521 22.0787C19.0589 22.0261 18.7262 21.9792 18.4118 21.9792C17.8362 21.9792 17.3997 22.0922 17.0591 22.2853C16.7181 22.4787 16.4884 22.7438 16.3132 23.0225C15.9719 23.5669 15.8522 24.2058 15.8522 25.1843C15.8522 26.1084 15.9713 26.7718 16.292 27.2734C16.4651 27.5432 16.6879 27.7872 17.0281 27.9604C17.3652 28.1321 17.8016 28.2261 18.3895 28.2261C19.0575 28.2261 19.9595 28.1205 20.5043 28.0384Z" fill="#000000" class="bmwfcol"/><title>fuel-station-gas_rg_48</title></svg>