<svg width="48" height="48" viewBox="0 0 32 32" xmlns="http://www.w3.org/2000/svg"><path d="M22 20V16C22 15.5859 21.8772 15.3614 21.7579 15.2421C21.6386 15.1228 21.4141 15 21 15H20V20H18V7C18 6.58592 17.8772 6.36144 17.7579 6.24211C17.7557 6.23988 17.7544 6.23803 17.7544 6.23803C17.7544 6.23803 17.7514 6.23732 17.7472 6.23568C17.6947 6.21489 17.5521 6.17179 17.215 6.13082C16.5375 6.04848 15.3146 6 13 6C10.6854 6 9.4625 6.04848 8.78504 6.13082C8.44792 6.17179 8.30531 6.21489 8.2528 6.23568C8.24865 6.23732 8.24558 6.23803 8.24558 6.23803C8.24558 6.23803 8.24435 6.23988 8.24212 6.24211C8.12279 6.36144 8.00001 6.58592 8.00001 7V20H6.00001V7C6.00001 6.17408 6.25723 5.39856 6.82791 4.82789C6.99054 4.66526 7.19796 4.50222 7.51675 4.37604C7.7994 4.26417 8.13522 4.19508 8.54373 4.14543C9.35752 4.04652 10.6946 4 13 4C15.3054 4 16.6425 4.04652 17.4563 4.14543C17.8648 4.19508 18.2006 4.26417 18.4833 4.37604C18.8021 4.50222 19.0095 4.66526 19.1721 4.82789C19.7428 5.39856 20 6.17408 20 7V13H21C21.8259 13 22.6014 13.2572 23.1721 13.8279C23.7428 14.3986 24 15.1741 24 16V20H22Z" fill="#000000" class="bmwfcol"/><path d="M28 20V11.9057C28.0004 11.2405 28.0008 10.6125 27.8365 10.0378C27.6459 9.3706 27.2667 8.85248 26.7071 8.2929L23 4.58579V7.41422L25.2929 9.70711C25.7333 10.1475 25.8541 10.3794 25.9135 10.5872C25.9915 10.8604 26 11.2002 26 12V20H28Z" fill="#000000" class="bmwfcol"/><path d="M16 13V15H10V13H16Z" fill="#000000" class="bmwfcol"/><path d="M2.51233 21.9053V27.9H4.67121C5.47348 27.9 6.06592 27.7623 6.56354 27.3144C7.14114 26.7946 7.40885 26.0538 7.40885 24.8804C7.40885 23.7417 7.20324 23.1144 6.75041 22.6037C6.26185 22.048 5.59365 21.9053 4.73057 21.9053H2.51233ZM5.648 26.0598C5.54488 26.2129 5.43148 26.306 5.29163 26.3644C5.1465 26.425 4.95952 26.4538 4.70089 26.4538H4.02533V23.3515H4.73799C5.18015 23.3515 5.42762 23.4001 5.60914 23.6145C5.83752 23.8849 5.88101 24.2924 5.88101 24.8804C5.88101 25.4125 5.82646 25.7952 5.648 26.0598Z" fill="#000000" class="bmwfcol"/><path d="M8.07443 27.9H9.58743V21.9053H8.07443V27.9Z" fill="#000000" class="bmwfcol"/><path d="M10.441 27.9H14.9294V26.4538H11.954V25.5775H14.64V24.1313H11.954V23.3515H14.8033V21.9053H10.441V27.9Z" fill="#000000" class="bmwfcol"/><path d="M15.3325 26.254V27.7476L15.4992 27.7785C16.0139 27.8741 16.8325 28.0261 17.4765 28.0261C18.321 28.0261 18.8635 27.8894 19.3073 27.5377C19.7492 27.1891 19.947 26.7036 19.947 26.1195C19.947 25.5943 19.7614 25.1096 19.41 24.8104C19.1431 24.5784 18.7883 24.4639 18.3836 24.3338L17.4182 24.0294C17.1067 23.9306 16.9848 23.8873 16.8829 23.8142C16.8398 23.7814 16.8084 23.7343 16.8084 23.5671C16.8084 23.4949 16.8165 23.4519 16.8293 23.421C16.8408 23.3932 16.8614 23.3623 16.9089 23.3245C17.0027 23.2539 17.1543 23.2254 17.5507 23.2254C17.7796 23.2254 18.1274 23.2742 18.4918 23.34C18.8522 23.4051 19.2143 23.4841 19.4665 23.5398L19.7096 23.5934V22.1158L19.5533 22.0808C19.0604 21.9705 18.1777 21.7792 17.5062 21.7792C16.9012 21.7792 16.351 21.8435 15.9378 22.1616C15.4769 22.5119 15.2805 22.9855 15.2805 23.6413C15.2805 24.1734 15.4446 24.6233 15.8205 24.938C16.0669 25.142 16.3508 25.2552 16.7391 25.3821L17.6986 25.6871C17.8537 25.7351 17.9975 25.7819 18.1144 25.8268C18.2379 25.8741 18.3095 25.9113 18.3384 25.9344C18.3836 25.9705 18.4192 26.0327 18.4192 26.1789C18.4192 26.3168 18.3766 26.397 18.2856 26.4577C18.1769 26.5318 17.9933 26.5799 17.5655 26.5799C16.9736 26.5799 16.1712 26.4217 15.5717 26.3018L15.3325 26.254Z" fill="#000000" class="bmwfcol"/><path d="M20.5797 27.9H25.0682V26.4538H22.0927V25.5775H24.7788V24.1313H22.0927V23.3515H24.942V21.9053H20.5797V27.9Z" fill="#000000" class="bmwfcol"/><path d="M25.6419 27.9H29.9077V26.4241H27.1549V21.9053H25.6419V27.9Z" fill="#000000" class="bmwfcol"/><title>fuel-station-diesel_rg_48</title></svg>