<svg width="48" height="48" viewBox="0 0 32 32" xmlns="http://www.w3.org/2000/svg"><path d="M8.0388 22.0518H10.4412L11.0001 22.3157L11.5591 22.0518H13.9615L14.8483 22.8893V25.0992L13.7749 26.7603H11.2243L11.0001 26.5486L10.7759 26.7603H8.26322L7.15198 25.1077V22.8893L8.0388 22.0518ZM8.85198 23.7518V24.5893L9.16871 25.0603H10V23.7518H8.85198ZM12.8494 25.0603L13.1483 24.5978V23.7518H12V25.0603H12.8494Z" fill="#000000" class="bmwfcol"/><path d="M15 30V29.1315C12.2145 29.2995 9.78545 29.2995 7 29.1315V30H2V23.0321C2 22.3094 2.40538 21.697 2.76518 21.2581C2.93534 21.0506 3.12988 20.8418 3.33607 20.6348C3.08878 20.6235 2.77729 20.624 2.34816 20.6246C2.2401 20.6248 2.12383 20.625 2 20.625V18.625C2.10975 18.625 2.217 18.6247 2.32162 18.6245C2.90055 18.6231 3.39946 18.622 3.79921 18.6639C4.08017 18.6934 4.35093 18.7469 4.6112 18.8476C4.71359 18.6645 4.82399 18.4765 4.94042 18.2909C5.15445 17.9497 5.40199 17.5956 5.67103 17.29C5.92588 17.0006 6.26768 16.6759 6.68501 16.4927C7.10867 16.3068 7.46296 16.1631 8.12182 16.0864C8.71023 16.0179 9.55905 16 11 16C13.631 16 14.3405 16.0646 15.3166 16.4934C15.733 16.6771 16.0743 17.0014 16.3291 17.2909C16.598 17.5964 16.8455 17.9504 17.0595 18.2914C17.1759 18.4769 17.2862 18.6647 17.3886 18.8476C17.6489 18.7469 17.9197 18.6934 18.2007 18.6639C18.6005 18.622 19.0993 18.6231 19.6782 18.6245C19.7828 18.6247 19.8903 18.625 20 18.625V20.625C19.8759 20.625 19.7602 20.6248 19.6519 20.6246C19.2228 20.624 18.9113 20.6235 18.6639 20.6348C18.8701 20.8418 19.0647 21.0506 19.2348 21.2581C19.5946 21.697 20 22.3094 20 23.0321V30H15ZM7.48897 18.324C7.48897 18.324 7.3387 18.4224 7.17203 18.6118C6.99964 18.8076 6.8162 19.0643 6.63465 19.3537L6.61215 19.3898C7.33224 19.3686 8.27975 19.3706 9.51689 19.3732C9.97118 19.3741 10.4645 19.3751 11 19.3751C11.5355 19.3751 12.0289 19.3741 12.4831 19.3732C13.7204 19.3706 14.6677 19.3686 15.3875 19.3898L15.3654 19.3545C15.1839 19.0652 15.0004 18.8084 14.8279 18.6124C14.6622 18.4242 14.5096 18.3234 14.5096 18.3234C13.9745 18.0884 13.6792 18 11 18C9.53486 18 8.80553 18.0203 8.35311 18.073C7.97123 18.1174 7.82198 18.1779 7.48897 18.324ZM5.28054 21.5407C5.03764 21.7664 4.82155 21.973 4.63592 22.1655C5.17227 22.2546 5.76787 22.3181 6.5 22.3739V24.3795C5.53893 24.3095 4.74668 24.2249 4 24.0836V28H5V26.9869L6.0727 27.0651C9.59099 27.3216 12.409 27.3216 15.9273 27.0651L17 26.9869V28H18V24.0838C17.2533 24.2251 16.4611 24.3096 15.5 24.3797V22.3741C16.2322 22.3183 16.8278 22.2547 17.3642 22.1656C17.179 21.9736 16.9635 21.7675 16.7212 21.5424C16.6982 21.5326 16.6558 21.5174 16.5855 21.5007C16.404 21.4576 16.118 21.4225 15.6524 21.4009C14.947 21.3682 13.9609 21.3702 12.5312 21.3731C12.069 21.3741 11.5605 21.3751 11 21.3751C10.4396 21.3751 9.93107 21.3741 9.46884 21.3731C8.03888 21.3702 7.05234 21.3682 6.34644 21.4009C5.88055 21.4225 5.59419 21.4576 5.41234 21.5008C5.34596 21.5165 5.30445 21.5309 5.28054 21.5407Z" fill="#000000" class="bmwfcol"/><path d="M25.5144 20.571C24.4736 21.1954 23.2909 21.6233 22 21.8386V19.8048C22.7278 19.6558 23.3962 19.4246 24 19.1224V16.6642L22.0429 14.7071C21.6268 14.291 21.2987 13.8847 21.1344 13.3259C20.9989 12.8654 20.9994 12.3557 20.9999 11.8438L21 8.41437L20 7.41436V4.58594L24.9571 9.543C25.3732 9.95914 25.7012 10.3654 25.8656 10.9242C26.001 11.3847 26.0005 11.8944 26 12.4063V20.2797L25.5144 20.571ZM24 12.5001C24 11.8434 23.9906 11.6373 23.9468 11.4885C23.9237 11.4098 23.8767 11.2911 23.5428 10.9572L23 10.4144V11.75C23 12.4067 23.0093 12.6128 23.0531 12.7616C23.0763 12.8403 23.1232 12.959 23.4571 13.2929L24 13.8357V12.5001Z" fill="#000000" class="bmwfcol"/><path d="M17.8306 15.9697C18.4638 15.8835 19.0401 15.6123 19.4798 15.1388C20.0149 14.5625 20.25 13.7924 20.25 12.9808C20.25 12.011 19.6972 11.1461 19.3104 10.5417L19.21 10.3852C18.8055 9.75516 18.4892 9.26249 18.3479 8.73933L18.1483 8H16.6017L16.4021 8.73933C16.2608 9.26249 15.9445 9.75516 15.54 10.3852L15.4396 10.5417C15.0528 11.1461 14.5 12.011 14.5 12.9808C14.5 13.4086 14.5653 13.8249 14.7054 14.2073C15.9265 14.4553 17.002 15.0286 17.8306 15.9697ZM16.5 12.9808C16.5 12.6916 16.6785 12.3162 17.1241 11.6199C17.1617 11.5612 17.2011 11.5003 17.242 11.4372C17.2849 11.3708 17.3295 11.3019 17.375 11.2308C17.4205 11.3019 17.4651 11.3708 17.508 11.4372C17.5489 11.5003 17.5883 11.5612 17.6259 11.6199C18.0715 12.3162 18.25 12.6916 18.25 12.9808C18.25 13.417 18.1269 13.6565 18.0142 13.7779C17.9096 13.8905 17.7239 14 17.375 14C17.0261 14 16.8404 13.8905 16.7358 13.7779C16.6231 13.6565 16.5 13.417 16.5 12.9808Z" fill="#000000" class="bmwfcol"/><path d="M11 14C11.4379 14 11.8338 14.0011 12.1963 14.0061C12.0676 13.3798 12 12.7101 12 12C12 9.52725 12.8199 7.54433 14.1821 6.18211C15.5443 4.81989 17.5272 4 20 4C22.4728 4 24.4557 4.81989 25.8179 6.18211C26.797 7.1612 27.4959 8.46095 27.8116 10.0328C27.9351 10.6478 28 11.3045 28 12C28 13.1452 27.8241 14.1853 27.5 15.1074V18.9522C29.1176 17.1858 30 14.7776 30 12C30 11.3091 29.9454 10.641 29.8385 10C29.4923 7.92517 28.5979 6.1337 27.2321 4.76789C25.4443 2.98011 22.9272 2 20 2C17.0728 2 14.5557 2.98011 12.7679 4.76789C10.9801 6.55567 10 9.07275 10 12C10 12.6918 10.0547 13.3608 10.162 14.0026C10.4227 14.0007 10.7014 14 11 14Z" fill="#000000" class="bmwfcol"/><title>fuel-car-petrol_rg_48</title></svg>