<svg width="48" height="48" viewBox="0 0 32 32" xmlns="http://www.w3.org/2000/svg"><path d="M11 14C11.4379 14 11.8338 14.0011 12.1963 14.0061C12.0676 13.3798 12 12.7101 12 12C12 9.52725 12.8199 7.54433 14.1821 6.18211C15.5443 4.81989 17.5272 4 20 4C22.4728 4 24.4557 4.81989 25.8179 6.18211C26.797 7.1612 27.4959 8.46095 27.8116 10.0328C27.9351 10.6478 28 11.3045 28 12C28 13.1452 27.8241 14.1853 27.5 15.1074V18.9522C29.1176 17.1858 30 14.7776 30 12C30 11.3091 29.9454 10.641 29.8385 10C29.4923 7.92517 28.5979 6.1337 27.2321 4.76789C25.4443 2.98011 22.9272 2 20 2C17.0728 2 14.5557 2.98011 12.7679 4.76789C10.9801 6.55567 10 9.07275 10 12C10 12.6918 10.0547 13.3608 10.162 14.0026C10.4227 14.0007 10.7014 14 11 14Z" fill="#000000" class="bmwfcol"/><path d="M22 21.8386C23.2909 21.6233 24.4736 21.1954 25.5144 20.571L26 20.2797V12.4063C26.0005 11.8944 26.001 11.3847 25.8656 10.9242C25.7012 10.3654 25.3732 9.95914 24.9571 9.543L20 4.58594V7.41436L21 8.41432L20.9999 11.8439C20.9994 12.3558 20.9989 12.8655 21.1343 13.326C21.2987 13.8848 21.6267 14.2911 22.0428 14.7072L24 16.6643V19.1224C23.3962 19.4246 22.7278 19.6558 22 19.8048V21.8386ZM24 13.8359L23.4571 13.293C23.1232 12.9591 23.0762 12.8404 23.0531 12.7617C23.0093 12.6129 23 12.4068 23 11.7501V10.4143L23.5428 10.9572C23.8767 11.2911 23.9237 11.4098 23.9468 11.4885C23.9906 11.6373 24 11.8434 24 12.5001V13.8359Z" fill="#000000" class="bmwfcol"/><path d="M17.5318 15.6512C17.1972 15.3183 16.7266 14.9294 16.1236 14.6635C15.5704 14.4204 15.058 14.2646 14.4899 14.167V9.2998H16.8543C17.7786 9.2998 18.4898 9.45266 19.0095 10.0438C19.492 10.5878 19.7121 11.2566 19.7121 12.4759C19.7121 13.7321 19.4256 14.5218 18.8104 15.0755C18.4458 15.4036 18.0333 15.5757 17.5318 15.6512ZM16.0835 14.1778H16.8225C17.1007 14.1778 17.3034 14.1468 17.4616 14.0808C17.6145 14.017 17.7382 13.9151 17.8502 13.7488C18.0443 13.4611 18.1026 13.0467 18.1026 12.4759C18.1026 11.846 18.0564 11.4036 17.8076 11.1089C17.6083 10.8736 17.3367 10.8218 16.8623 10.8218H16.0835V14.1778Z" fill="#000000" class="bmwfcol"/><path d="M8.0388 22.0518H10.4412L11.0001 22.3157L11.5591 22.0518H13.9615L14.8483 22.8893V25.0992L13.7749 26.7603H11.2243L11.0001 26.5486L10.7759 26.7603H8.26322L7.15198 25.1077V22.8893L8.0388 22.0518ZM8.85198 23.7518V24.5893L9.16871 25.0603H10V23.7518H8.85198ZM12.8494 25.0603L13.1483 24.5978V23.7518H12V25.0603H12.8494Z" fill="#000000" class="bmwfcol"/><path d="M15 29.1315V30H20V23.0321C20 22.3094 19.5946 21.697 19.2348 21.2581C19.0647 21.0506 18.8701 20.8418 18.6639 20.6348C18.9113 20.6235 19.2265 20.624 19.6556 20.6246H19.6574C19.7641 20.6248 19.878 20.625 20 20.625V18.625C19.8916 18.625 19.7854 18.6247 19.682 18.6245H19.6782C19.0993 18.6231 18.6004 18.622 18.2007 18.6639C17.9197 18.6934 17.6489 18.7469 17.3886 18.8476C17.2862 18.6647 17.1759 18.4769 17.0595 18.2914C16.8455 17.9504 16.598 17.5964 16.3291 17.2909C16.0743 17.0014 15.733 16.6771 15.3166 16.4934C14.3405 16.0646 13.631 16 11 16C9.55905 16 8.71023 16.0179 8.12182 16.0864C7.46296 16.1631 7.10867 16.3068 6.68501 16.4927C6.26768 16.6759 5.92588 17.0006 5.67103 17.29C5.40199 17.5956 5.15445 17.9497 4.94042 18.2909C4.82399 18.4765 4.71359 18.6645 4.6112 18.8476C4.35093 18.7469 4.08017 18.6934 3.79921 18.6639C3.39946 18.622 2.90055 18.6231 2.32162 18.6245C2.217 18.6247 2.10975 18.625 2 18.625V20.625C2.12315 20.625 2.34639 20.6246 2.34639 20.6246C2.77552 20.624 3.08878 20.6235 3.33607 20.6348C3.12988 20.8418 2.93534 21.0506 2.76518 21.2581C2.40538 21.697 2 22.3094 2 23.0321V30H7V29.1315C9.78545 29.2995 12.2145 29.2995 15 29.1315ZM8.35311 18.073C8.80553 18.0203 9.53486 18 11 18C13.6792 18 13.9745 18.0884 14.5096 18.3234C14.5096 18.3234 14.5187 18.3277 14.5348 18.3381C14.5525 18.3496 14.5765 18.3669 14.6066 18.3919C14.668 18.4428 14.7423 18.5152 14.8279 18.6124C15.0004 18.8084 15.1839 19.0652 15.3654 19.3545L15.3875 19.3898C14.6677 19.3686 13.7204 19.3706 12.4831 19.3732C12.0289 19.3741 11.5355 19.3751 11 19.3751C10.4645 19.3751 9.97118 19.3741 9.51689 19.3732C8.27975 19.3706 7.33224 19.3686 6.61215 19.3898L6.63465 19.3537C6.8162 19.0643 6.99964 18.8076 7.17203 18.6118C7.25748 18.5147 7.33172 18.4424 7.39289 18.3918C7.42289 18.3669 7.44676 18.3498 7.4643 18.3384C7.48075 18.3278 7.48897 18.324 7.48897 18.324C7.82198 18.1779 7.97123 18.1174 8.35311 18.073ZM5.41234 21.5008C5.59419 21.4576 5.88055 21.4225 6.34644 21.4009C7.05233 21.3682 8.04198 21.3702 9.4719 21.3731C9.93331 21.3741 10.4409 21.3751 11 21.3751C11.5593 21.3751 12.0697 21.3741 12.5312 21.3731C13.9609 21.3702 14.947 21.3682 15.6524 21.4009C16.118 21.4225 16.404 21.4576 16.5855 21.5007C16.6558 21.5174 16.6982 21.5326 16.7212 21.5424C16.9635 21.7675 17.179 21.9736 17.3642 22.1656C16.8278 22.2547 16.2322 22.3183 15.5 22.3741V24.3797C16.4611 24.3096 17.2533 24.2251 18 24.0838V28H17V26.9869L15.9273 27.0651C12.409 27.3216 9.59099 27.3216 6.0727 27.0651L5 26.9869V28H4V24.0836C4.74668 24.2249 5.53893 24.3095 6.5 24.3795V22.3739C5.76787 22.3181 5.17227 22.2546 4.63592 22.1655C4.82155 21.973 5.03764 21.7664 5.28054 21.5407C5.30445 21.5309 5.34596 21.5165 5.41234 21.5008Z" fill="#000000" class="bmwfcol"/><title>fuel-car-diesel_rg_48</title></svg>