<svg width="48" height="48" viewBox="0 0 32 32" xmlns="http://www.w3.org/2000/svg"><path d="M13.4378 21.9582C14.089 22.6595 14.997 23 16 23C17.003 23 17.911 22.6595 18.5622 21.9582C19.2053 21.2657 19.5 20.3274 19.5 19.3077C19.5 18.1281 18.8253 17.0565 18.2997 16.2353C18.2524 16.1614 18.2056 16.0886 18.1595 16.0167C17.629 15.1912 17.1779 14.4892 16.9754 13.7393L16.7758 13H15.2242L15.0246 13.7393C14.8221 14.4892 14.3722 15.1894 13.8417 16.0148C13.7952 16.0873 13.7479 16.1608 13.7003 16.2353C13.1747 17.0565 12.5 18.1281 12.5 19.3077C12.5 20.3274 12.7947 21.2657 13.4378 21.9582ZM14.9034 20.5973C14.6828 20.3597 14.5 19.9519 14.5 19.3077C14.5 18.8088 14.8003 18.2265 15.3847 17.3135C15.4352 17.2347 15.4882 17.1527 15.542 17.0694C15.688 16.8437 15.8444 16.6017 16 16.3456C16.1556 16.6017 16.3135 16.8459 16.4594 17.0716C16.513 17.1545 16.5651 17.2351 16.6153 17.3135C17.1997 18.2265 17.5 18.8088 17.5 19.3077C17.5 19.9519 17.3172 20.3597 17.0966 20.5973C16.884 20.8263 16.542 21 16 21C15.458 21 15.116 20.8263 14.9034 20.5973Z" fill="#000000" class="bmwfcol"/><path d="M2 7.96343V5.89281L2.40341 6.0009C4.26564 6.49968 5.38679 6.79997 6.37817 7.37674C7.21654 7.86449 7.94522 8.54023 8.9993 9.58649L10.1049 8.48085C10.3461 7.59774 10.5712 6.86914 10.8251 6.28746C11.1072 5.64113 11.4606 5.08987 11.9964 4.695C12.5337 4.29898 13.145 4.14118 13.7799 4.06891C14.3858 3.99994 15.1168 3.99997 15.9487 4L24 3.99976C24.5161 3.99976 25.0416 4.16214 25.4397 4.56036C25.8378 4.95854 26.0001 5.48404 26.0001 6L26 25.9997C26 26.5157 25.8378 27.0412 25.4396 27.4394C25.0414 27.8375 24.5159 27.9997 24 27.9997H8C7.48408 27.9997 6.95856 27.8375 6.56039 27.4394C6.16222 27.0412 6 26.5157 6 25.9997V12.5858L7.58458 11.0012C6.53378 9.96026 5.98413 9.46134 5.37243 9.10546C4.67102 8.6974 3.86552 8.46437 2 7.96343ZM16.0001 6C15.1033 6 14.4859 6.00147 14.0061 6.05608C13.5429 6.10881 13.3241 6.20101 13.183 6.30499C13.0403 6.41011 12.8671 6.60885 12.6581 7.08751C12.55 7.33531 12.4421 7.63443 12.327 8H24L24 5.99976L16.0001 6ZM11.4142 10L8 13.4142V25.9997H24V10H11.4142Z" fill="#000000" class="bmwfcol"/><title>fuel_rg_48</title></svg>