<svg width="48" height="48" viewBox="0 0 32 32" xmlns="http://www.w3.org/2000/svg"><path d="M6 12V10H10V12H6Z" fill="#000000" class="bmwfcol"/><path d="M5.0359 4.11299C5.60504 4.03442 6.50424 4 8 4C9.49576 4 10.395 4.03442 10.9641 4.11299C11.2533 4.15291 11.5135 4.21106 11.7458 4.31141C12.007 4.42429 12.1786 4.5669 12.3059 4.69414C12.7903 5.17856 13 5.82908 13 6.5V10.0002C13.8259 10.0002 14.6014 10.2574 15.1721 10.828C15.7428 11.3987 16 12.1742 16 13.0002V15.0002C16 15.4142 16.1228 15.6387 16.2421 15.758C16.3614 15.8774 16.5859 16.0002 17 16.0002C17.4141 16.0002 17.6386 15.8774 17.7579 15.758C17.8772 15.6387 18 15.4142 18 15.0002V11.0002C18 10.2003 17.9915 9.86052 17.9135 9.58737C17.8541 9.37955 17.7333 9.14768 17.2929 8.70726L16 7.41436V4.58594L18.7071 7.29304C19.2667 7.85263 19.6459 8.37075 19.8365 9.03793C20.0007 9.61269 20.0004 10.2406 20 10.9058L20 15.0002C20 15.8261 19.7428 16.6016 19.1721 17.1723C18.6014 17.7429 17.8259 18.0002 17 18.0002C16.1741 18.0002 15.3986 17.7429 14.8279 17.1723C14.2572 16.6016 14 15.8261 14 15.0002V13.0002C14 12.5861 13.8772 12.3616 13.7579 12.2423C13.6386 12.1229 13.4141 12.0002 13 12.0002V18H14V20L2 20V18H3V6.5C3 5.82908 3.20972 5.17856 3.69414 4.69414C3.82139 4.5669 3.99296 4.42429 4.25422 4.31141C4.48649 4.21106 4.74669 4.15291 5.0359 4.11299ZM11 6.5C11 6.29119 10.9511 6.18604 10.9148 6.13579C10.877 6.12573 10.8072 6.1103 10.6906 6.0942C10.275 6.03683 9.50424 6 8 6C6.49576 6 5.72496 6.03683 5.30941 6.0942C5.19275 6.1103 5.12304 6.12573 5.0852 6.13579C5.0489 6.18604 5 6.29119 5 6.5V18L11 18V6.5Z" fill="#000000" class="bmwfcol"/><path d="M11 22V24.6667C11 25.2804 11.188 25.8869 11.6359 26.3435C12.086 26.8025 12.6907 27 13.3077 27H27.6923C28.3093 27 28.914 26.8025 29.3641 26.3435C29.812 25.8869 30 25.2804 30 24.6667V15.3333C30 14.7196 29.812 14.1131 29.3641 13.6565C28.914 13.1975 28.3093 13 27.6923 13H22.0002V15H27.6923C27.8831 15 27.9338 15.0543 27.9363 15.0569C27.9403 15.061 28 15.1217 28 15.3333V17H21.6285C21.4019 17.5684 21.0626 18.1105 20.5865 18.5865C20.4352 18.7379 20.2771 18.8755 20.1136 19H28V24.6667C28 24.8783 27.9403 24.939 27.9363 24.9431C27.9338 24.9457 27.8831 25 27.6923 25H13.3077C13.1169 25 13.0663 24.9459 13.0638 24.9432C13.0599 24.9392 13 24.8783 13 24.6667V22H11Z" fill="#000000" class="bmwfcol"/><path d="M19 24H22.1667V22H19V24Z" fill="#000000" class="bmwfcol"/><path d="M23 24H26.9583V22H23V24Z" fill="#000000" class="bmwfcol"/><title>fueling_payments_rg_48</title></svg>