<svg width="48" height="48" viewBox="0 0 32 32" xmlns="http://www.w3.org/2000/svg"><path d="M25.1144 3.23059L23.5309 4.1448L23.1649 5.51084L19.1935 7.80373C18.2913 8.32461 17.9119 8.53688 17.5226 8.65451C16.8635 8.85367 16.1426 8.80374 15.4614 8.80373L14.0046 9.64482C13.8929 10.0616 13.771 10.4771 13.6813 10.8993C13.6303 11.1395 13.5911 11.3963 13.6074 11.6672C13.6173 11.8333 13.6485 11.9885 13.693 12.1341L11.0332 13.6698L14.0331 18.8657L17.2652 16.9997C19.0529 16.9993 20.1243 16.9917 20.9858 16.8139C21.9236 16.6203 22.6024 16.2282 23.6054 15.6488C24.9781 14.8559 26.351 14.0634 27.724 13.2708C28.4012 12.8799 29.0785 12.4889 29.7557 12.0979C30.2025 11.84 30.5765 11.4367 30.7222 10.8928C30.8679 10.3489 30.7457 9.81271 30.4877 9.3659C30.2083 8.88196 29.9283 8.39833 29.6483 7.91471C29.0775 6.92872 28.5067 5.94272 27.9408 4.95397C27.7394 4.60218 27.5013 4.18616 27.0644 3.89774C26.8379 3.7482 26.596 3.65381 26.3624 3.57788C25.952 3.44442 25.5312 3.34226 25.1144 3.23059ZM23.3877 7.6916C23.4518 7.95371 23.5016 8.17856 23.5369 8.37773C23.6183 8.83798 23.596 9.03261 23.5648 9.13499C23.5397 9.21715 23.4786 9.34343 23.209 9.58302C22.9221 9.83811 22.5056 10.1316 21.8546 10.5874C20.4802 11.5498 20.1875 11.691 19.7095 11.6215C19.4053 11.5773 18.976 11.4255 18.2521 11.0572C18.0429 10.9507 17.8168 10.8303 17.57 10.6949C17.7511 10.6629 17.9265 10.6218 18.1011 10.569C18.7378 10.3766 19.3213 10.0396 20.1071 9.58568L23.3877 7.6916ZM15.86 12.0301C16.4243 12.3503 16.9145 12.6205 17.3451 12.8396C18.1099 13.2288 18.7799 13.5073 19.4216 13.6007C20.7669 13.7963 21.7248 13.123 22.8313 12.3454C23.4103 11.9391 24.0082 11.5485 24.5378 11.0778C24.9493 10.712 25.3035 10.2903 25.4779 9.71802C25.6461 9.16599 25.6073 8.59981 25.5062 8.02907C25.416 7.51956 25.2552 6.90426 25.0588 6.16986L25.2483 5.46265L25.3958 5.37752C25.5751 5.42702 25.8052 5.46299 25.9625 5.56684C26.0878 5.69299 26.1683 5.88449 26.2557 6.03577L28.7557 10.3659L22.6935 13.8659C21.5803 14.5086 21.1732 14.733 20.5814 14.8552C19.3348 15.1126 17.9936 14.9997 16.7292 14.9997L14.7651 16.1337L13.7653 14.4018L16.3633 12.9018L15.86 12.0301Z" fill="#000000" class="bmwfcol"/><path d="M5 28.7501H2V26.7501H7V28.0001H9V22.0001H4V20.0001H8.37581C8.05721 19.6353 7.64972 19.2406 7.17619 18.801C7.15461 18.7837 7.07383 18.7301 6.83585 18.6758C6.55368 18.6114 6.13218 18.5637 5.47992 18.5347C4.64418 18.4975 3.52769 18.4937 2 18.4958V16.4957C3.26047 16.494 4.52466 16.479 5.78386 16.5472C5.67438 16.3534 5.55784 16.1561 5.43625 15.9623C5.18877 15.5679 4.93344 15.2093 4.68735 14.9297C4.42767 14.6347 4.24191 14.5016 4.14792 14.4599C3.63874 14.2363 3.26891 14.1092 2 14.0476V12.0441C3.47293 12.1108 4.13763 12.2709 4.95433 12.6297C5.44365 12.8455 5.86018 13.2352 6.18857 13.6082C6.53106 13.9973 6.85037 14.4531 7.13032 14.8992C7.31362 15.1913 7.48565 15.4883 7.64182 15.7731C7.95387 15.6528 8.28338 15.5873 8.63505 15.5504C9.24186 15.4867 10.0293 15.5003 10.9994 15.5003V17.5003C9.94583 17.5003 9.31486 17.49 8.84376 17.5395C8.81653 17.5423 8.79041 17.5453 8.76532 17.5485C9.23836 17.9939 9.69158 18.4453 10.0553 18.889C10.5253 19.4622 11 20.2012 11 21.043V30.0001H5V28.7501Z" fill="#000000" class="bmwfcol"/><title>fuel-additive_rg_48</title></svg>