<svg width="48" height="48" viewBox="0 0 32 32" xmlns="http://www.w3.org/2000/svg"><path d="M24 23.9858C23.9976 23.9882 23.9953 23.9905 23.9929 23.9929C22.1057 25.8801 19.3728 27 16 27C12.6272 27 9.89433 25.8801 8.00711 23.9929C6.11989 22.1057 5 19.3728 5 16C5 12.6272 6.11989 9.89433 8.00711 8.00711C9.89433 6.11989 12.6272 5 16 5C19.3728 5 22.1057 6.11989 23.9929 8.00711C25.8801 9.89433 27 12.6272 27 16H29C29 12.1728 27.7199 8.90567 25.4071 6.59289C23.0943 4.28011 19.8272 3 16 3C12.1728 3 8.90567 4.28011 6.59289 6.59289C4.28011 8.90567 3 12.1728 3 16C3 19.8272 4.28011 23.0943 6.59289 25.4071C8.90567 27.7199 12.1728 29 16 29C19.1057 29 21.8426 28.157 24 26.6034V23.9858Z" fill="#000000" class="bmwfcol"/><path d="M12.0547 19.1905L12.2942 19.1412V17.3718L11.9317 17.4491C11.4409 17.5537 10.7952 17.6813 10.3147 17.6813C9.67497 17.6813 9.43042 17.5551 9.30135 17.3306C9.15531 17.0748 9.11021 16.6519 9.11021 16.0629C9.11021 15.4257 9.16107 15.0211 9.29346 14.7563C9.37167 14.5999 9.46898 14.5001 9.60399 14.4333C9.74755 14.3622 9.95668 14.3172 10.2749 14.3172C10.5041 14.3172 10.7396 14.3459 11.0239 14.3997C11.3621 14.4626 11.66 14.5253 11.9255 14.5878L12.2942 14.6746V12.9056L12.0649 12.85C11.7953 12.7847 11.5959 12.7433 11.2109 12.6711C10.843 12.6057 10.4978 12.563 10.1316 12.563C9.47879 12.563 8.98231 12.7021 8.598 12.929C8.21407 13.1557 7.96311 13.4579 7.78285 13.7481C7.40246 14.364 7.30029 15.1521 7.30029 16.0868C7.30029 16.9928 7.42717 17.7669 7.77064 18.296C7.93882 18.5547 8.17017 18.8474 8.54782 19.0712C8.92568 19.2951 9.42487 19.4355 10.1077 19.4355C10.8339 19.4355 11.5133 19.302 12.0547 19.1905Z" fill="#000000" class="bmwfcol"/><path d="M12.9656 19.3001H14.7437V16.0757L16.6694 19.3001H18.4291V12.6983H16.6511V15.9227L14.7254 12.6983H12.9656V19.3001Z" fill="#000000" class="bmwfcol"/><path d="M24.2623 19.2331L24.5176 19.1946V15.4763H22.7395V17.6989C22.5838 17.7107 22.392 17.7211 22.1878 17.7211C21.5386 17.7211 21.3028 17.6064 21.1757 17.3805C21.0296 17.1249 20.9834 16.7325 20.9834 16.0629C20.9834 15.3923 21.0409 15.0236 21.1746 14.7563C21.2591 14.5872 21.3542 14.4902 21.4811 14.4273C21.6185 14.3594 21.8219 14.3172 22.148 14.3172C22.3255 14.3172 22.5467 14.3387 22.7744 14.3766C23.1791 14.4467 23.5933 14.5404 23.9442 14.6202L24.3106 14.7035V12.9534L24.0813 12.8978C23.818 12.834 23.4442 12.7445 23.0284 12.6711C22.7123 12.6144 22.3496 12.563 22.0047 12.563C21.3759 12.563 20.8924 12.6865 20.5115 12.9025C20.1299 13.1189 19.874 13.4154 19.6809 13.7225C19.3022 14.3267 19.1734 15.0312 19.1734 16.0868C19.1734 17.083 19.3013 17.815 19.6588 18.3741C19.8503 18.6726 20.0997 18.9466 20.4816 19.1411C20.8589 19.3333 21.3415 19.4355 21.9808 19.4355C22.7039 19.4355 23.6765 19.3214 24.2623 19.2331Z" fill="#000000" class="bmwfcol"/><title>fuel-type-gas_rg_48</title></svg>