<svg width="48" height="48" viewBox="0 0 32 32" xmlns="http://www.w3.org/2000/svg"><path d="M23.086 6.49972L20.7932 4.20694L22.2074 2.79272L24.5002 5.08551L25.5 4.08569L26.2071 4.7928C27.638 6.22369 28.5283 7.44766 28.7788 8.60926C28.9785 9.53566 28.7556 10.3036 28.3313 10.9517C28.808 11.4881 29.1842 12.0075 29.4569 12.5529C29.851 13.341 30 14.1245 30 15.0001V16.0001H28V15.0001C28 14.3757 27.899 13.9091 27.6681 13.4473C27.5051 13.1213 27.2647 12.7722 26.9066 12.3603C26.268 12.7656 25.5143 12.9738 24.6094 12.7787C23.4478 12.5282 22.2238 11.6379 20.7929 10.207L20.0858 9.49991L21.0859 8.49985L18.793 6.20694L20.2072 4.79272L22.5001 7.08563L23.086 6.49972ZM26.8237 9.03076C26.7264 8.57931 26.3675 7.91707 25.4824 6.9317L22.9318 9.48232C23.9172 10.3673 24.5794 10.7263 25.0309 10.8236C25.4317 10.91 25.7718 10.814 26.2929 10.2928C26.8141 9.77165 26.9101 9.43155 26.8237 9.03076Z" fill="#000000" class="bmwfcol"/><path d="M18 10V26H8V7C8 6.58592 8.12278 6.36144 8.24211 6.24211C8.24434 6.23988 8.24556 6.23803 8.24556 6.23803C8.24556 6.23803 8.24864 6.23732 8.25279 6.23568C8.3053 6.21489 8.44791 6.17179 8.78503 6.13082C9.46249 6.04848 10.6854 6 13 6C15.0882 6 16.2878 6.03946 17 6.10764V4.10001C16.1662 4.03221 14.9183 4 13 4C10.6946 4 9.35751 4.04652 8.54372 4.14543C8.13521 4.19508 7.79939 4.26417 7.51674 4.37604C7.19795 4.50222 6.99053 4.66526 6.82789 4.82789C6.25722 5.39856 6 6.17408 6 7V26H4V28H22V26H20V12L18 10Z" fill="#000000" class="bmwfcol"/><path d="M23 13.5859V16.4144L25 18.4143L24.9999 21.1076C24.9995 21.808 24.9991 22.4411 25.1656 23.0072C25.3612 23.6722 25.7517 24.166 26.2929 24.7071L28 26.4142V28.0001H30L30 22.8925C30.0004 22.1921 30.0008 21.559 29.8343 20.9929C29.6387 20.3279 29.2482 19.8341 28.7071 19.293L23 13.5859ZM28 23.5858L27.7071 23.2929C27.2482 22.834 27.1387 22.6278 27.0843 22.4428C27.0093 22.1878 27 21.8567 27 21V20.4143L27.2928 20.7072C27.7517 21.1661 27.8612 21.3723 27.9156 21.5573C27.9906 21.8123 28 22.1434 28 23.0001V23.5858Z" fill="#000000" class="bmwfcol"/><path d="M11 10.5V15H13V16.5H11.6338L14 20.4436L16.3662 16.5H15V13H13V10.5H11Z" fill="#000000" class="bmwfcol"/><title>fuel_station_phev_rg_48</title></svg>