<svg width="48" height="48" viewBox="0 0 32 32" xmlns="http://www.w3.org/2000/svg"><path d="M12 12C12 12.7101 12.0676 13.3798 12.1963 14.0061C11.8338 14.0011 11.4379 14 11 14C10.7014 14 10.4227 14.0007 10.162 14.0026C10.0547 13.3608 10 12.6918 10 12C10 9.07275 10.9801 6.55567 12.7679 4.76789C14.5557 2.98011 17.0728 2 20 2C22.9272 2 25.4443 2.98011 27.2321 4.76789C28.5979 6.1337 29.4923 7.92517 29.8385 10C29.8463 10.0469 29.8538 10.094 29.8611 10.1412C29.9531 10.739 30 11.3597 30 12C30 14.7776 29.1176 17.1858 27.5 18.9522V15.1074C27.8241 14.1853 28 13.1452 28 12C28 11.2922 27.9328 10.6245 27.805 10C27.4862 8.4429 26.7902 7.1544 25.8179 6.18211C24.4557 4.81989 22.4728 4 20 4C17.5272 4 15.5443 4.81989 14.1821 6.18211C12.8199 7.54433 12 9.52725 12 12ZM25.5144 20.571C24.4736 21.1954 23.2909 21.6233 22 21.8386V19.8048C22.7278 19.6558 23.3962 19.4246 24 19.1224V18.75C24 18.0131 23.9608 17.7583 23.8142 17.4736C23.6785 17.2103 23.432 16.8904 22.9225 16.3517C22.2389 16.7965 21.4226 17.0374 20.4462 16.8654C19.1774 16.6419 17.8313 15.7457 16.2929 14.2073L15.5858 13.5002L16.7108 12.3752L14.7928 10.4572L16.2071 9.04297L18.125 10.9609L18.9608 10.1252L17.0428 8.20718L18.4571 6.79297L20.375 8.71094L21.5 7.58594L22.2071 8.29304C23.7456 9.83146 24.6418 11.1775 24.8653 12.4463C25.0386 13.4308 24.7923 14.2525 24.3405 14.9395C24.9183 15.5472 25.3306 16.05 25.5921 16.5577C25.9767 17.3042 26 17.9869 26 18.75V20.2797L25.5144 20.571ZM20.7931 14.8957C21.3244 14.9893 21.7633 14.8227 22.2929 14.293C22.8225 13.7634 22.9891 13.3245 22.8956 12.7932C22.8021 12.2622 22.4272 11.5031 21.4801 10.4343L18.4342 13.4802C19.503 14.4274 20.2621 14.8022 20.7931 14.8957ZM10.4412 22.0518H8.0388L7.15198 22.8893V25.1077L8.26322 26.7603H10.7759L11.0001 26.5486L11.2243 26.7603H13.7749L14.8483 25.0992V22.8893L13.9615 22.0518H11.5591L11.0001 22.3157L10.4412 22.0518ZM8.85198 24.5893V23.7518H10V25.0603H9.16871L8.85198 24.5893ZM12 25.0603V23.7518H13.1483V24.5978L12.8494 25.0603H12ZM15 30V29.1315C12.2145 29.2995 9.78545 29.2995 7 29.1315V30H2V23.0321C2 22.3094 2.40538 21.697 2.76518 21.2581C2.93534 21.0506 3.12988 20.8418 3.33607 20.6348C3.08878 20.6235 2.77729 20.624 2.34816 20.6246C2.2401 20.6248 2.12383 20.625 2 20.625V18.625C2.10906 18.625 2.21762 18.6247 2.32162 18.6245C2.90055 18.6231 3.39946 18.622 3.79921 18.6639C4.08017 18.6934 4.35093 18.7469 4.6112 18.8476C4.71359 18.6645 4.82399 18.4765 4.94042 18.2909C5.15445 17.9497 5.40199 17.5956 5.67103 17.29C5.92588 17.0006 6.26768 16.6759 6.68501 16.4927C7.10867 16.3068 7.46296 16.1631 8.12182 16.0864C8.71023 16.0179 9.55905 16 11 16C13.631 16 14.3405 16.0646 15.3166 16.4934C15.733 16.6771 16.0743 17.0014 16.3291 17.2909C16.598 17.5964 16.8455 17.9504 17.0595 18.2914C17.1759 18.4769 17.2862 18.6647 17.3886 18.8476C17.6489 18.7469 17.9197 18.6934 18.2007 18.6639C18.6005 18.622 19.1 18.6231 19.679 18.6245C19.7834 18.6247 19.8905 18.625 20 18.625V20.625C19.876 20.625 19.7601 20.6248 19.6519 20.6246C19.2228 20.624 18.9113 20.6235 18.6639 20.6348C18.8701 20.8418 19.0647 21.0506 19.2348 21.2581C19.5946 21.697 20 22.3094 20 23.0321V30H15ZM7.48897 18.324C7.48897 18.324 7.48008 18.3282 7.4643 18.3384C7.44676 18.3498 7.42289 18.3669 7.39289 18.3918C7.33172 18.4424 7.25748 18.5147 7.17203 18.6118C6.99964 18.8076 6.8162 19.0643 6.63465 19.3537L6.61215 19.3898C7.33213 19.3686 8.27984 19.3706 9.51669 19.3732C9.97098 19.3741 10.4645 19.3751 11 19.3751C11.5355 19.3751 12.0289 19.3741 12.4831 19.3732C13.7204 19.3706 14.6677 19.3686 15.3875 19.3898L15.3654 19.3545C15.1839 19.0652 15.0004 18.8084 14.8279 18.6124C14.7423 18.5152 14.668 18.4428 14.6066 18.3919C14.5765 18.3669 14.5525 18.3496 14.5348 18.3381C14.5187 18.3277 14.5096 18.3234 14.5096 18.3234C13.9745 18.0884 13.6792 18 11 18C9.53486 18 8.80553 18.0203 8.35311 18.073C7.97123 18.1174 7.82198 18.1779 7.48897 18.324ZM5.28054 21.5407C5.03764 21.7664 4.82155 21.973 4.63592 22.1655C5.17227 22.2546 5.76787 22.3181 6.5 22.3739V24.3795C5.53893 24.3095 4.74668 24.2249 4 24.0836V28H5V26.9869L6.0727 27.0651C9.59099 27.3216 12.409 27.3216 15.9273 27.0651L17 26.9869V28H18V24.0838C17.2533 24.2251 16.4611 24.3096 15.5 24.3797V22.3741C16.2322 22.3183 16.8278 22.2547 17.3642 22.1656C17.179 21.9736 16.9635 21.7675 16.7212 21.5424C16.6982 21.5326 16.6558 21.5174 16.5855 21.5007C16.404 21.4576 16.118 21.4225 15.6524 21.4009C14.947 21.3682 13.9609 21.3702 12.5312 21.3731C12.0693 21.3741 11.56 21.3751 11 21.3751C10.4403 21.3751 9.93054 21.3741 9.46878 21.3731C8.03885 21.3702 7.05233 21.3682 6.34644 21.4009C5.88055 21.4225 5.59419 21.4576 5.41234 21.5008C5.34596 21.5165 5.30445 21.5309 5.28054 21.5407Z" fill="#000000" class="bmwfcol"/><title>fuel-car-bev_rg_48</title></svg>