<svg width="48" height="48" viewBox="0 0 32 32" xmlns="http://www.w3.org/2000/svg"><path d="M8.0388 22.0518H10.4412L11.0001 22.3157L11.5591 22.0518H13.9615L14.8483 22.8893V25.0992L13.7749 26.7603H11.2243L11.0001 26.5486L10.7759 26.7603H8.26322L7.15198 25.1077V22.8893L8.0388 22.0518ZM8.85198 23.7518V24.5893L9.16871 25.0603H10V23.7518H8.85198ZM12.8494 25.0603L13.1483 24.5978V23.7518H12V25.0603H12.8494Z" fill="#000000" class="bmwfcol"/><path d="M15 30V29.1315C12.2145 29.2995 9.78545 29.2995 7 29.1315V30H2V23.0321C2 22.3094 2.40538 21.697 2.76518 21.2581C2.93534 21.0506 3.12988 20.8418 3.33607 20.6348C3.08878 20.6235 2.77729 20.624 2.34816 20.6246C2.2401 20.6248 2.12383 20.625 2 20.625V18.625C2.10975 18.625 2.217 18.6247 2.32162 18.6245C2.90055 18.6231 3.39946 18.622 3.79921 18.6639C4.08017 18.6934 4.35093 18.7469 4.6112 18.8476C4.71359 18.6645 4.82399 18.4765 4.94042 18.2909C5.15445 17.9497 5.40199 17.5956 5.67103 17.29C5.92588 17.0006 6.26768 16.6759 6.68501 16.4927C7.10867 16.3068 7.46296 16.1631 8.12182 16.0864C8.71023 16.0179 9.55905 16 11 16C13.631 16 14.3405 16.0646 15.3166 16.4934C15.733 16.6771 16.0743 17.0014 16.3291 17.2909C16.598 17.5964 16.8455 17.9504 17.0595 18.2914C17.1759 18.4769 17.2862 18.6647 17.3886 18.8476C17.6489 18.7469 17.9197 18.6934 18.2007 18.6639C18.6005 18.622 19.0993 18.6231 19.6782 18.6245C19.7828 18.6247 19.8903 18.625 20 18.625V20.625C19.8759 20.625 19.7602 20.6248 19.6519 20.6246C19.2228 20.624 18.9113 20.6235 18.6639 20.6348C18.8701 20.8418 19.0647 21.0506 19.2348 21.2581C19.5946 21.697 20 22.3094 20 23.0321V30H15ZM7.48897 18.324C7.48897 18.324 7.48075 18.3278 7.4643 18.3384C7.44676 18.3498 7.42289 18.3669 7.39289 18.3918C7.33172 18.4424 7.25748 18.5147 7.17203 18.6118C6.99964 18.8076 6.8162 19.0643 6.63465 19.3537L6.61215 19.3898C7.33224 19.3686 8.27975 19.3706 9.51689 19.3732C9.97118 19.3741 10.4645 19.3751 11 19.3751C11.5355 19.3751 12.0289 19.3741 12.4831 19.3732C13.7204 19.3706 14.6677 19.3686 15.3875 19.3898L15.3654 19.3545C15.1839 19.0652 15.0004 18.8084 14.8279 18.6124C14.7423 18.5152 14.668 18.4428 14.6066 18.3919C14.5765 18.3669 14.5525 18.3496 14.5348 18.3381C14.5187 18.3277 14.5096 18.3234 14.5096 18.3234C13.9745 18.0884 13.6792 18 11 18C9.53486 18 8.80553 18.0203 8.35311 18.073C7.97123 18.1174 7.82198 18.1779 7.48897 18.324ZM5.28054 21.5407C5.03764 21.7664 4.82155 21.973 4.63592 22.1655C5.17227 22.2546 5.76787 22.3181 6.5 22.3739V24.3795C5.53893 24.3095 4.74668 24.2249 4 24.0836V28H5V26.9869L6.0727 27.0651C9.59099 27.3216 12.409 27.3216 15.9273 27.0651L17 26.9869V28H18V24.0838C17.2533 24.2251 16.4611 24.3096 15.5 24.3797V22.3741C16.2322 22.3183 16.8278 22.2547 17.3642 22.1656C17.179 21.9736 16.9635 21.7675 16.7212 21.5424C16.6982 21.5326 16.6558 21.5174 16.5855 21.5007C16.404 21.4576 16.118 21.4225 15.6524 21.4009C14.947 21.3682 13.9609 21.3702 12.5312 21.3731C12.069 21.3741 11.5605 21.3751 11 21.3751C10.4396 21.3751 9.93107 21.3741 9.46884 21.3731C8.03888 21.3702 7.05234 21.3682 6.34644 21.4009C5.88055 21.4225 5.59419 21.4576 5.41234 21.5008C5.34596 21.5165 5.30445 21.5309 5.28054 21.5407Z" fill="#000000" class="bmwfcol"/><path d="M23.9999 21.303C23.3692 21.5421 22.7007 21.7215 21.9999 21.8385V19.805C22.7267 19.6562 23.395 19.4252 23.9999 19.1223V21.303Z" fill="#000000" class="bmwfcol"/><path d="M11.9999 12C11.9999 12.7101 12.0675 13.3798 12.1962 14.0061C11.8337 14.0011 11.4378 14 10.9999 14C10.7013 14 10.4226 14.0007 10.1618 14.0026C10.0546 13.3608 9.99988 12.6918 9.99988 12C9.99988 9.07275 10.98 6.55567 12.7678 4.76789C14.5556 2.98011 17.0726 2 19.9999 2C22.9271 2 25.4442 2.98011 27.232 4.76789C28.7064 6.24225 29.6314 8.21262 29.9104 10.5C29.9698 10.9862 29.9999 11.4868 29.9999 12C29.9999 13.2497 29.8213 14.4246 29.4774 15.5H27.3501C27.7695 14.484 27.9999 13.3108 27.9999 12C27.9999 9.52725 27.18 7.54433 25.8178 6.18211C24.4556 4.81989 22.4726 4 19.9999 4C17.5271 4 15.5442 4.81989 14.182 6.18211C12.8198 7.54433 11.9999 9.52725 11.9999 12Z" fill="#000000" class="bmwfcol"/><path d="M25.1668 16.5938C25.4994 16.5284 26.0989 16.4224 26.5238 16.4224C27.1911 16.4224 27.5761 16.5356 27.9137 16.8298C28.2298 17.1013 28.3562 17.5383 28.3562 17.8906C28.3562 18.2281 28.2892 18.5042 28.1573 18.7611C28.0282 19.0126 27.8404 19.2371 27.6192 19.4735C27.3822 19.7262 27.1531 19.953 26.9049 20.1894H28.5114V21.4781H24.9004V20.3186L24.971 20.2516C25.4396 19.807 26.383 18.8923 26.7899 18.3925C26.945 18.2016 27.0018 18.1019 27.0018 17.9742C27.0018 17.8736 26.9823 17.8315 26.9391 17.7951L26.9324 17.7895C26.906 17.7681 26.8602 17.7463 26.7762 17.7315C26.6873 17.7158 26.5758 17.7111 26.4343 17.7111C26.091 17.7111 25.566 17.8128 25.254 17.874L24.984 17.9269V16.6297L25.1668 16.5938Z" fill="#000000" class="bmwfcol"/><path d="M18.6975 15.7002H16.8054V7.80029H18.6975V10.665H21.3014V7.80029H23.1934V15.7002H21.3014V12.4874H18.6975V15.7002Z" fill="#000000" class="bmwfcol"/><title>fuel-car-h2_rg_48</title></svg>