<svg width="48" height="48" viewBox="0 0 32 32" xmlns="http://www.w3.org/2000/svg"><path d="M12.2031 14.0387C12.07 13.4031 12 12.7225 12 12C12 9.52725 12.8199 7.54433 14.1821 6.18211C15.5443 4.81989 17.5272 4 20 4C22.4728 4 24.4557 4.81989 25.8179 6.18211C26.797 7.1612 27.4959 8.46095 27.8116 10.0328C27.9351 10.6478 28 11.3045 28 12C28 14.3605 27.2529 16.2747 26 17.6286C25.9404 17.693 25.8797 17.7561 25.8179 17.8179C24.8456 18.7902 23.5571 19.4862 22 19.805V21.8385C23.4992 21.5884 24.8504 21.052 26 20.2584C26.4414 19.9537 26.8532 19.6111 27.2321 19.2321C29.0199 17.4443 30 14.9272 30 12C30 11.3091 29.9454 10.641 29.8385 10C29.4923 7.92517 28.5979 6.1337 27.2321 4.76789C25.4443 2.98011 22.9272 2 20 2C17.0728 2 14.5557 2.98011 12.7679 4.76789C10.9801 6.55567 10 9.07275 10 12C10 12.6918 10.0547 13.3608 10.162 14.0026C10.4227 14.0007 10.7014 14 11 14C11.4824 14 11.8747 14.0132 12.2031 14.0387Z" fill="#000000" class="bmwfcol"/><path d="M17.2207 14.6041L17.041 14.6411C16.635 14.7246 16.1254 14.8248 15.5808 14.8248C15.0686 14.8248 14.6943 14.7195 14.4109 14.5515C14.1276 14.3837 13.9541 14.1642 13.828 13.9702C13.5704 13.5733 13.4752 12.9928 13.4752 12.3133C13.4752 11.6123 13.5518 11.0212 13.8371 10.5592C13.9723 10.3416 14.1605 10.1149 14.4485 9.94493C14.7367 9.77477 15.1091 9.67041 15.5987 9.67041C15.8734 9.67041 16.1343 9.70281 16.4103 9.75186C16.699 9.806 16.8464 9.83667 17.0487 9.88569L17.2207 9.92739V11.2541L16.9441 11.189C16.745 11.1422 16.5216 11.0951 16.268 11.0479C16.0547 11.0076 15.878 10.9861 15.7061 10.9861C15.4675 10.9861 15.3107 11.0198 15.203 11.0732C15.1017 11.1233 15.0288 11.1981 14.9701 11.3154C14.8708 11.514 14.8327 11.8175 14.8327 12.2954C14.8327 12.7373 14.8665 13.0545 14.9761 13.2464C15.073 13.4145 15.2565 13.5091 15.736 13.5091C16.0964 13.5091 16.5807 13.4134 16.9488 13.335L17.2207 13.277V14.6041Z" fill="#000000" class="bmwfcol"/><path d="M25.0546 13.5224V11.8554H26.3882V14.6442L26.1967 14.673C25.7574 14.7392 25.0279 14.8248 24.4856 14.8248C24.006 14.8248 23.6442 14.7481 23.3611 14.604C23.0747 14.4581 22.8877 14.2526 22.7441 14.0288C22.476 13.6094 22.3801 13.0604 22.3801 12.3133C22.3801 11.5216 22.4766 10.9932 22.7607 10.5401C22.9055 10.3097 23.0974 10.0873 23.3836 9.92506C23.6693 9.76304 24.0319 9.67041 24.5035 9.67041C24.7623 9.67041 25.0344 9.70899 25.2716 9.75156C25.5834 9.80659 25.8636 9.87366 26.061 9.92151L26.2329 9.96321V11.2758L25.9581 11.2133C25.6951 11.1535 25.3846 11.0833 25.0811 11.0307C24.9103 11.0022 24.7443 10.9861 24.611 10.9861C24.3664 10.9861 24.2138 11.0177 24.1108 11.0687C24.0156 11.1158 23.9443 11.1885 23.8809 11.3154C23.7806 11.5159 23.7375 11.7924 23.7375 12.2954C23.7375 12.7975 23.7721 13.0918 23.8817 13.2835C23.977 13.453 24.1539 13.539 24.6408 13.539C24.794 13.539 24.9379 13.5312 25.0546 13.5224Z" fill="#000000" class="bmwfcol"/><path d="M19.0577 14.7233H17.7242V9.7719H19.044L20.4883 12.1902V9.7719H21.8218V14.7233H20.502L19.0577 12.305V14.7233Z" fill="#000000" class="bmwfcol"/><path d="M10.4412 22.0518H8.0388L7.15198 22.8893V25.1077L8.26322 26.7603H10.7759L11.0001 26.5486L11.2243 26.7603H13.7749L14.8483 25.0992V22.8893L13.9615 22.0518H11.5591L11.0001 22.3157L10.4412 22.0518ZM8.85198 24.5893V23.7518H10V25.0603H9.16871L8.85198 24.5893ZM12 25.0603V23.7518H13.1483V24.5978L12.8494 25.0603H12Z" fill="#000000" class="bmwfcol"/><path d="M15 30V29.1315C12.2145 29.2995 9.78545 29.2995 7 29.1315V30H2V23.0321C2 22.3094 2.40538 21.697 2.76518 21.2581C2.93534 21.0506 3.12988 20.8418 3.33607 20.6348C3.08878 20.6235 2.75075 20.6342 2.32162 20.6348C2.21356 20.635 2.12383 20.625 2 20.625V18.625C2.10906 18.625 2.21762 18.6247 2.32162 18.6245C2.90055 18.6231 3.39946 18.622 3.79921 18.6639C4.08017 18.6934 4.35093 18.7469 4.6112 18.8476C4.71359 18.6645 4.82399 18.4765 4.94042 18.2909C5.15445 17.9497 5.40199 17.5956 5.67103 17.29C5.92588 17.0006 6.26768 16.6759 6.68501 16.4927C7.10867 16.3068 7.46296 16.1631 8.12182 16.0864C8.71023 16.0179 9.55905 16 11 16C13.631 16 14.3393 16.0641 15.3154 16.4929C15.7318 16.6766 16.0743 17.0014 16.3291 17.2909C16.598 17.5964 16.8455 17.9504 17.0595 18.2914C17.1759 18.4769 17.2862 18.6647 17.3886 18.8476C17.6489 18.7469 17.9197 18.6934 18.2007 18.6639C18.6005 18.622 19.1 18.6231 19.679 18.6245C19.7834 18.6247 19.8905 18.625 20 18.625V20.625C19.876 20.625 19.7601 20.6248 19.6519 20.6246C19.2228 20.624 18.9113 20.6235 18.6639 20.6348C18.8701 20.8418 19.0647 21.0506 19.2348 21.2581C19.5946 21.697 20 22.3094 20 23.0321V30H15ZM7.48897 18.324C7.48897 18.324 7.48008 18.3282 7.4643 18.3384C7.44676 18.3498 7.42289 18.3669 7.39289 18.3918C7.33172 18.4424 7.25748 18.5147 7.17203 18.6118C6.99964 18.8076 6.8162 19.0643 6.63465 19.3537L6.61215 19.3898C7.33213 19.3686 8.27983 19.3706 9.51669 19.3732C9.97098 19.3741 10.4645 19.3751 11 19.3751C11.5355 19.3751 12.0289 19.3741 12.4831 19.3732C13.7204 19.3706 14.6677 19.3686 15.3875 19.3898L15.3654 19.3545C15.1839 19.0652 15.0004 18.8084 14.8279 18.6124C14.7423 18.5152 14.668 18.4428 14.6066 18.3919C14.5765 18.3669 14.5525 18.3496 14.5348 18.3381C14.5187 18.3277 14.5096 18.3234 14.5096 18.3234C13.9745 18.0884 13.6792 18 11 18C9.53486 18 8.80553 18.0203 8.35311 18.073C7.97123 18.1174 7.82198 18.1779 7.48897 18.324ZM5.28054 21.5407C5.03764 21.7664 4.82155 21.973 4.63592 22.1655C5.17227 22.2546 5.76787 22.3181 6.5 22.3739V24.3795C5.53893 24.3095 4.74668 24.2249 4 24.0836V28H5V26.9869L6.0727 27.0651C9.59099 27.3216 12.409 27.3216 15.9273 27.0651L17 26.9869V28H18V24.0838C17.2533 24.2251 16.4611 24.3096 15.5 24.3797V22.3741C16.2322 22.3183 16.8278 22.2547 17.3642 22.1656C17.179 21.9736 16.9635 21.7675 16.7212 21.5424C16.6982 21.5326 16.6558 21.5174 16.5855 21.5007C16.404 21.4576 16.118 21.4225 15.6524 21.4009C14.947 21.3682 13.9599 21.3702 12.5302 21.3731C12.0683 21.3741 11.56 21.3751 11 21.3751C10.4403 21.3751 9.93207 21.3741 9.47031 21.3731C8.04038 21.3702 7.05233 21.3682 6.34644 21.4009C5.88055 21.4225 5.59419 21.4576 5.41234 21.5008C5.34596 21.5165 5.30445 21.5309 5.28054 21.5407Z" fill="#000000" class="bmwfcol"/><title>fuel-car-gas_rg_48</title></svg>