<svg width="48" height="48" viewBox="0 0 32 32" xmlns="http://www.w3.org/2000/svg"><path d="M20 26.4002C18.7974 26.7906 17.4585 27 16 27C12.6272 27 9.89433 25.8801 8.00711 23.9929C6.11989 22.1057 5 19.3728 5 16C5 12.6272 6.11989 9.89433 8.00711 8.00711C9.89433 6.11989 12.6272 5 16 5C19.3728 5 22.1057 6.11989 23.9929 8.00711C25.8801 9.89433 27 12.6272 27 16H29C29 12.1728 27.7199 8.90567 25.4071 6.59289C23.0943 4.28011 19.8272 3 16 3C12.1728 3 8.90567 4.28011 6.59289 6.59289C4.28011 8.90567 3 12.1728 3 16C3 19.8272 4.28011 23.0943 6.59289 25.4071C8.90567 27.7199 12.1728 29 16 29C17.4168 29 18.7568 28.8246 20 28.4863V26.4002Z" fill="#000000" class="bmwfcol"/><path d="M22.6254 26.7994V28.1998H27.2362V26.6854H24.9402C25.3447 26.3045 25.7029 25.9551 26.0758 25.5574C26.3692 25.2439 26.6099 24.9547 26.7753 24.6325C26.9432 24.3055 27.0292 23.9534 27.0292 23.5183C27.0292 23.0674 26.8665 22.5175 26.4745 22.181C26.05 21.8109 25.5649 21.6626 24.688 21.6626C24.1326 21.6626 23.3425 21.802 22.8983 21.8892L22.7368 21.9209V23.4429L22.9753 23.3961C23.3879 23.3152 24.0988 23.177 24.5686 23.177C24.7581 23.177 24.9143 23.1832 25.0422 23.2058C25.1697 23.2283 25.2514 23.2644 25.305 23.311L25.3074 23.3131C25.3964 23.388 25.4273 23.4789 25.4273 23.6297C25.4273 23.8393 25.3286 23.9973 25.1219 24.2517C24.5745 24.9243 23.3113 26.1487 22.6877 26.7403L22.6254 26.7994Z" fill="#000000" class="bmwfcol"/><path d="M13.9967 16.7161V20.9999H12.0073V11H13.9967V14.8196H18.002V11H19.9913V20.9999H18.002V16.7161H13.9967Z" fill="#000000" class="bmwfcol"/><title>fuel-type-h2_rg_48</title></svg>