<svg width="48" height="48" viewBox="0 0 32 32" xmlns="http://www.w3.org/2000/svg"><path d="M24 16.8925C24.0004 16.1921 24.0008 15.559 23.8343 14.9929C23.6387 14.3279 23.2482 13.8341 22.7071 13.293L16 6.58594V9.41436L18 11.4143L17.9999 16.1076C17.9995 16.808 17.9991 17.4411 18.1656 18.0072C18.3612 18.6722 18.7517 19.166 19.2929 19.7071L22 22.4142V25.5165C20.3533 26.4647 18.3302 27 16 27C12.6272 27 9.89433 25.8801 8.00711 23.9929C6.11989 22.1057 5 19.3728 5 16C5 12.6272 6.11989 9.89433 8.00711 8.00711C9.89433 6.11989 12.6272 5 16 5C19.3728 5 22.1057 6.11989 23.9929 8.00711C25.8801 9.89433 27 12.6272 27 16H29C29 12.1728 27.7199 8.90567 25.4071 6.59289C23.0943 4.28011 19.8272 3 16 3C12.1728 3 8.90567 4.28011 6.59289 6.59289C4.28011 8.90567 3 12.1728 3 16C3 19.8272 4.28011 23.0943 6.59289 25.4071C8.90567 27.7199 12.1728 29 16 29C18.8877 29 21.4586 28.2721 23.5453 26.9145L24 26.6187V16.8925ZM22 17.0001V19.5858L20.7071 18.2929C20.2482 17.834 20.1387 17.6278 20.0843 17.4428C20.0093 17.1878 20 16.8567 20 16V13.4143L21.2928 14.7072C21.7517 15.1661 21.8612 15.3723 21.9156 15.5573C21.9906 15.8123 22 16.1434 22 17.0001Z" fill="#000000" class="bmwfcol"/><path d="M8.66284 11.8003H11.7488C12.9754 11.8003 13.8988 12.0035 14.5724 12.7698C15.2007 13.4782 15.4925 14.3512 15.4925 15.9684C15.4925 17.6331 15.1131 18.6642 14.3122 19.385C13.6232 20.0051 12.8011 20.2002 11.6639 20.2002H8.66284V11.8003ZM10.6543 18.3042H11.7063C12.0814 18.3042 12.3617 18.2627 12.5842 18.1698C12.8014 18.0791 12.9762 17.934 13.132 17.7027C13.403 17.301 13.4798 16.7302 13.4798 15.9684C13.4798 15.1317 13.4203 14.5168 13.0707 14.1028C12.784 13.764 12.3929 13.6963 11.7594 13.6963H10.6543V18.3042Z" fill="#000000" class="bmwfcol"/><title>fuel-type-diesel_rg_48</title></svg>