<svg width="48" height="48" viewBox="0 0 32 32" xmlns="http://www.w3.org/2000/svg"><path d="M24 16.8925V26.6187L23.5453 26.9145C21.4586 28.2721 18.8877 29 16 29C12.1728 29 8.90567 27.7199 6.59289 25.4071C4.28011 23.0943 3 19.8272 3 16C3 12.1728 4.28011 8.90567 6.59289 6.59289C8.90567 4.28011 12.1728 3 16 3C19.8272 3 23.0943 4.28011 25.4071 6.59289C27.7199 8.90567 29 12.1728 29 16H27C27 12.6272 25.8801 9.89433 23.9929 8.00711C22.1057 6.11989 19.3728 5 16 5C12.6272 5 9.89433 6.11989 8.00711 8.00711C6.11989 9.89433 5 12.6272 5 16C5 19.3728 6.11989 22.1057 8.00711 23.9929C9.89433 25.8801 12.6272 27 16 27C18.3302 27 20.3533 26.4647 22 25.5165V22.4142L19.2929 19.7071C18.7517 19.166 18.3612 18.6722 18.1656 18.0072C17.9991 17.4411 17.9995 16.808 17.9999 16.1076L18 11.4143L16 9.41436V6.58594L22.7071 13.293C23.2482 13.8341 23.6387 14.3279 23.8343 14.9929C24.0008 15.559 24.0004 16.1921 24 16.8925ZM22 17.0001C22 16.1434 21.9906 15.8123 21.9156 15.5573C21.8612 15.3723 21.7517 15.1661 21.2928 14.7072L20 13.4143V16C20 16.8567 20.0093 17.1878 20.0843 17.4428C20.1387 17.6278 20.2482 17.834 20.7071 18.2929L22 19.5858V17.0001Z" fill="#000000" class="bmwfcol"/><path d="M12.5 21C11.497 21 10.589 20.6595 9.93783 19.9582C9.29475 19.2657 9 18.3274 9 17.3077C9 16.1281 9.67465 15.0565 10.2003 14.2353C10.2479 14.1608 10.2951 14.0874 10.3417 14.0149C10.8722 13.1894 11.3221 12.4892 11.5246 11.7393L11.7242 11H13.2758L13.4754 11.7393C13.6779 12.4892 14.1278 13.1894 14.6583 14.0148C14.7047 14.0871 14.7522 14.161 14.7997 14.2353C15.3253 15.0565 16 16.1281 16 17.3077C16 18.3274 15.7053 19.2657 15.0622 19.9582C14.411 20.6595 13.503 21 12.5 21ZM11 17.3077C11 17.9519 11.1828 18.3597 11.4034 18.5973C11.616 18.8263 11.958 19 12.5 19C13.042 19 13.384 18.8263 13.5966 18.5973C13.8172 18.3597 14 17.9519 14 17.3077C14 16.8088 13.6997 16.2265 13.1153 15.3135C13.0647 15.2345 13.0121 15.1531 12.9581 15.0696C12.8121 14.8438 12.6556 14.6017 12.5 14.3456C12.3444 14.6017 12.188 14.8437 12.042 15.0694C11.988 15.153 11.9353 15.2344 11.8847 15.3135C11.3003 16.2265 11 16.8088 11 17.3077Z" fill="#000000" class="bmwfcol"/><title>fuel-type-petrol_rg_48</title></svg>