<svg width="48" height="48" viewBox="0 0 32 32" xmlns="http://www.w3.org/2000/svg"><path d="M27 16H29C29 12.1728 27.7199 8.90567 25.4071 6.59289C23.0943 4.28011 19.8272 3 16 3C12.1728 3 8.90567 4.28011 6.59289 6.59289C4.28011 8.90567 3 12.1728 3 16C3 19.8272 4.28011 23.0943 6.59289 25.4071C8.90567 27.7199 12.1728 29 16 29C18.8877 29 21.4586 28.2721 23.5453 26.9145L24 26.6187V25C24 23.8908 23.8569 23.0554 23.2812 22.1506C22.8674 21.5004 22.2313 20.8247 21.3617 19.9487C22.021 19.0448 22.3898 17.9648 22.1587 16.6529C21.8791 15.0652 20.7456 13.3315 18.7071 11.293L18 10.5859L16.5 12.0859L13.7071 9.29297L12.2928 10.7072L15.0858 13.5002L13.5 15.0859L10.7071 12.293L9.29285 13.7072L12.0858 16.5002L10.5858 18.0002L11.2929 18.7073C13.3313 20.7457 15.0651 21.8792 16.6527 22.1588C17.9638 22.3897 19.0433 22.0216 19.9468 21.3631C20.8125 22.2368 21.2978 22.7591 21.5938 23.2244C21.8931 23.6946 22 24.1092 22 25V25.5165C20.3533 26.4647 18.3302 27 16 27C12.6272 27 9.89433 25.8801 8.00711 23.9929C6.11989 22.1057 5 19.3728 5 16C5 12.6272 6.11989 9.89433 8.00711 8.00711C9.89433 6.11989 12.6272 5 16 5C19.3728 5 22.1057 6.11989 23.9929 8.00711C25.8801 9.89433 27 12.6272 27 16ZM16.9996 20.1892C16.1592 20.0411 15.0107 19.4399 13.4285 17.9859L17.9858 13.4286C19.4398 15.0109 20.041 16.1593 20.189 16.9997C20.3388 17.8499 20.0472 18.5388 19.2929 19.293C18.5387 20.0473 17.8497 20.3389 16.9996 20.1892Z" fill="#000000" class="bmwfcol"/><title>fuel-type-bev_rg_48</title></svg>