<svg width="48" height="48" viewBox="0 0 32 32" xmlns="http://www.w3.org/2000/svg"><path d="M24 16.8925V26.6187L23.5453 26.9145C21.4586 28.2721 18.8877 29 16 29C12.1728 29 8.90567 27.7199 6.59289 25.4071C4.28011 23.0943 3 19.8272 3 16C3 12.1728 4.28011 8.90567 6.59289 6.59289C8.90567 4.28011 12.1728 3 16 3C19.8272 3 23.0943 4.28011 25.4071 6.59289C27.7199 8.90567 29 12.1728 29 16H27C27 12.6272 25.8801 9.89433 23.9929 8.00711C22.1057 6.11989 19.3728 5 16 5C12.6272 5 9.89433 6.11989 8.00711 8.00711C6.11989 9.89433 5 12.6272 5 16C5 19.3728 6.11989 22.1057 8.00711 23.9929C9.89433 25.8801 12.6272 27 16 27C18.3302 27 20.3533 26.4647 22 25.5165V22.4142L19.2929 19.7071C18.7517 19.166 18.3612 18.6722 18.1656 18.0072C17.9991 17.4411 17.9995 16.808 17.9999 16.1076L18 11.4143L16 9.41436V6.58594L22.7071 13.293C23.2482 13.8341 23.6387 14.3279 23.8343 14.9929C24.0008 15.559 24.0004 16.1921 24 16.8925ZM22 17.0001C22 16.1434 21.9906 15.8123 21.9156 15.5573C21.8612 15.3723 21.7517 15.1661 21.2928 14.7072L20 13.4143V16C20 16.8567 20.0093 17.1878 20.0843 17.4428C20.1387 17.6278 20.2482 17.834 20.7071 18.2929L22 19.5858V17.0001Z" fill="#000000" class="bmwfcol"/><path d="M14 10H10V11H9V22H15V11H14V10ZM11 20V13H13V20H11Z" fill="#000000" class="bmwfcol"/><title>fuel-type-mhev_rg_48</title></svg>