<svg width="48" height="48" viewBox="0 0 32 32" xmlns="http://www.w3.org/2000/svg"><path d="M3.56039 5.5604C3.95856 5.16222 4.48408 5 5 5H27C27.5159 5 28.0414 5.16222 28.4396 5.5604C28.8378 5.95857 29 6.48408 29 7V25C29 25.5159 28.8378 26.0414 28.4396 26.4396C28.0414 26.8378 27.5159 27 27 27H5C4.48408 27 3.95856 26.8378 3.56039 26.4396C3.16222 26.0414 3 25.5159 3 25V7C3 6.48408 3.16222 5.95857 3.56039 5.5604ZM27 7H5V25H27V7Z" fill="#000000" class="bmwfcol"/><path d="M9 21V18H7V23H12V21H9Z" fill="#000000" class="bmwfcol"/><path d="M20 9H25V14H23V11H20V9Z" fill="#000000" class="bmwfcol"/><title>fullscreen_rg_48</title></svg>