<svg width="48" height="48" viewBox="0 0 32 32" xmlns="http://www.w3.org/2000/svg"><path d="M5 11H11V5H13V11C13 11.5159 12.8378 12.0414 12.4396 12.4396C12.0414 12.8378 11.5159 13 11 13H5V11Z" fill="#000000" class="bmwfcol"/><path d="M5 21H11V27H13V21C13 20.4841 12.8378 19.9586 12.4396 19.5604C12.0414 19.1622 11.5159 19 11 19H5V21Z" fill="#000000" class="bmwfcol"/><path d="M21 21H27V19H21C20.4841 19 19.9586 19.1622 19.5604 19.5604C19.1622 19.9586 19 20.4841 19 21V27H21V21Z" fill="#000000" class="bmwfcol"/><path d="M27 11H21V5H19V11C19 11.5159 19.1622 12.0414 19.5604 12.4396C19.9586 12.8378 20.4841 13 21 13H27V11Z" fill="#000000" class="bmwfcol"/><title>fullscreen-exit_rg_48</title></svg>