<svg width="48" height="48" viewBox="0 0 32 32" xmlns="http://www.w3.org/2000/svg"><path d="M21.882 12H20C17.9534 12 16.9334 12.0114 15.8991 12.3796C14.8584 12.7502 13.7309 13.5135 11.6429 15.266L11.4011 15.4689L11.0867 15.4963C7.84931 15.7782 6.29184 15.9162 5.21566 16.0963C4.384 16.2354 3.8552 16.3965 3.00024 16.7017V19.5825C3.30522 19.8789 3.37306 19.9222 3.43393 19.9466C3.45988 19.9569 3.48977 19.9658 3.5394 19.9731C3.7935 18.2901 5.24609 17 7 17C8.76324 17 10.222 18.3039 10.4646 20H21.4142L22.9165 21.5023C22.9441 21.5008 22.972 21.5 23 21.5C23.8284 21.5 24.5 22.1716 24.5 23C24.5 23.8284 23.8284 24.5 23 24.5C22.1716 24.5 21.5 23.8284 21.5 23C21.5 22.972 21.5008 22.9442 21.5023 22.9165L20.5858 22H10.1632C9.60144 23.1825 8.39619 24 7 24C5.60225 24 4.39588 23.1807 3.83495 21.9961C3.42584 21.9846 3.04175 21.9438 2.69108 21.8035C2.18173 21.5997 1.78998 21.2062 1.38563 20.7999L1.29304 20.707L1.00024 20.4142V15.2998L1.70613 15.0429C2.95795 14.5872 3.67507 14.3262 4.88564 14.1237C6.02157 13.9336 7.6108 13.7916 10.5999 13.5311C12.5473 11.9096 13.8674 10.98 15.2283 10.4954C16.6209 9.9996 17.9864 9.99977 19.8745 10L21.8819 10C22.1566 9.69313 22.5557 9.5 23 9.5C23.8284 9.5 24.5 10.1716 24.5 11C24.5 11.8284 23.8284 12.5 23 12.5C22.5558 12.5 22.1566 12.3069 21.882 12ZM7 19C6.17157 19 5.5 19.6716 5.5 20.5C5.5 21.3284 6.17157 22 7 22C7.82843 22 8.5 21.3284 8.5 20.5C8.5 19.6716 7.82843 19 7 19Z" fill="#000000" class="bmwfcol"/><path d="M23.3624 15.8751L26.7571 12.4804C26.8361 12.4933 26.9173 12.5 27 12.5C27.8284 12.5 28.5 11.8284 28.5 11C28.5 10.1716 27.8284 9.5 27 9.5C26.1716 9.5 25.5 10.1716 25.5 11C25.5 11.0827 25.5067 11.1639 25.5196 11.243L22.6376 14.1251H20.2185C19.9462 13.7465 19.5019 13.5 19 13.5C18.1716 13.5 17.5 14.1716 17.5 15C17.5 15.8284 18.1716 16.5 19 16.5C19.5019 16.5 19.9461 16.2535 20.2184 15.8751H23.3624Z" fill="#000000" class="bmwfcol"/><path d="M27.7815 14.125C28.0538 13.7465 28.4981 13.5 29 13.5C29.8284 13.5 30.5 14.1716 30.5 15C30.5 15.8284 29.8284 16.5 29 16.5C28.4981 16.5 28.0538 16.2535 27.7815 15.875H24.925L26.675 14.125H27.7815Z" fill="#000000" class="bmwfcol"/><path d="M27 17.5C26.4981 17.5 26.0538 17.7465 25.7815 18.125H23V19.875H25.7815C26.0538 20.2535 26.4981 20.5 27 20.5C27.8284 20.5 28.5 19.8284 28.5 19C28.5 18.1716 27.8284 17.5 27 17.5Z" fill="#000000" class="bmwfcol"/><title>functions-on-demand_rg_48</title></svg>