<svg width="48" height="48" viewBox="0 0 32 32" xmlns="http://www.w3.org/2000/svg"><path d="M8 7H27V22H29V7C29 6.48408 28.8378 5.95856 28.4396 5.56039C28.0414 5.16222 27.5159 5 27 5H8V7Z" fill="#000000" class="bmwfcol"/><path d="M12 12.5C11.1716 12.5 10.5 13.1716 10.5 14C10.5 14.8284 11.1716 15.5 12 15.5C12.8284 15.5 13.5 14.8284 13.5 14C13.5 13.1716 12.8284 12.5 12 12.5Z" fill="#000000" class="bmwfcol"/><path d="M3.56039 9.56039C3.95856 9.16222 4.48408 9 5 9H23C23.5159 9 24.0414 9.16222 24.4396 9.56039C24.8378 9.95856 25 10.4841 25 11V25C25 25.5159 24.8378 26.0414 24.4396 26.4396C24.0414 26.8378 23.5159 27 23 27H5C4.48408 27 3.95856 26.8378 3.56039 26.4396C3.16222 26.0414 3 25.5159 3 25V11C3 10.4841 3.16222 9.95856 3.56039 9.56039ZM5 11V20.586L9.00008 16.5859L13.0001 20.5859L19.0001 14.5859L23 18.5859V11H5ZM5 25H23V21.4143L19.0001 17.4144L13.0001 23.4144L9.00008 19.4144L5 23.4144V25Z" fill="#000000" class="bmwfcol"/><title>gallery_rg_48</title></svg>