<svg width="48" height="48" viewBox="0 0 32 32" xmlns="http://www.w3.org/2000/svg"><path d="M11.8429 2.84289C12.4057 2.28011 13.1728 2 14 2C14.8272 2 15.5943 2.28011 16.1571 2.84289C16.7199 3.40567 17 4.17275 17 5C17 6.625 15.7836 8 14 8C13.533 8 13.0852 7.91074 12.6825 7.73175L11.9142 8.50001L12.5 9.08579V10.9142L9.70711 13.7071L9.6228 13.7917C9.20636 14.2099 8.79602 14.6221 8.19123 14.8237C7.87884 14.9278 7.55661 14.9655 7.22443 14.983C7.15322 14.9867 7.07844 14.9977 7 15C7 16.625 5.78361 18 4 18C3.17275 18 2.40567 17.7199 1.84289 17.1571C1.28011 16.5943 1 15.8272 1 15C1 14.1728 1.28011 13.4057 1.84289 12.8429C2.40567 12.2801 3.17275 12 4 12C4.00228 11.9216 4.01326 11.8468 4.01701 11.7756C4.03449 11.4434 4.07219 11.1212 4.17632 10.8088C4.37791 10.204 4.79006 9.79364 5.20834 9.3772L5.29289 9.29289L8.08579 6.5H9.91421L10.5 7.0858L11.2683 6.31755C11.0893 5.91483 11 5.467 11 5C11 4.17275 11.2801 3.40567 11.8429 2.84289ZM13.2571 4.25711C13.1199 4.39433 13 4.62725 13 5C13 5.37275 13.1199 5.60567 13.2571 5.74289C13.3943 5.88011 13.6272 6 14 6C14.6164 6 15 5.58414 15 5C15 4.62725 14.8801 4.39433 14.7429 4.25711C14.6057 4.11989 14.3728 4 14 4C13.6272 4 13.3943 4.11989 13.2571 4.25711ZM3.25711 14.2571C3.11989 14.3943 3 14.6272 3 15C3 15.3728 3.11989 15.6057 3.25711 15.7429C3.39433 15.8801 3.62725 16 4 16C4.61639 16 5 15.5841 5 15C5 14.6272 4.88011 14.3943 4.74289 14.2571C4.60567 14.1199 4.37275 14 4 14C3.62725 14 3.39433 14.1199 3.25711 14.2571ZM6.3023 12.9998C6.65262 12.9993 6.91076 12.9967 7.11932 12.9858C7.38089 12.972 7.49616 12.9472 7.55877 12.9263C7.66324 12.8915 7.73924 12.8465 8.29289 12.2929L10.4999 10.0858L10.5 9.91421L9.08579 8.5H8.91421L6.70711 10.7071C6.15345 11.2608 6.10851 11.3368 6.07368 11.4412C6.05281 11.5038 6.02801 11.6191 6.01424 11.8807C6.00327 12.0892 6.00074 12.3474 6.00017 12.6977C6.10797 12.7899 6.21009 12.892 6.3023 12.9998Z" fill="#000000" class="bmwfcol"/><path d="M18.2546 11.8348L20.0043 13.5846V13.9988C20.0043 15.6767 19.7107 16.9244 19.0893 18.1001C20.8468 18.3168 23.0364 18.9021 27.2186 20.0228L30.5031 20.6019C30.5028 21.0947 30.4666 21.6026 30.5146 22.0936C30.6686 22.265 30.8391 22.4229 31.002 22.5858C31.002 24.1947 30.7309 25.7041 30.1377 27.1951L27.737 27.8383C27.2114 29.1073 25.9609 30 24.502 30C23.1059 30 21.9008 29.1827 21.339 28.0004H10.6649C10.1031 29.1827 8.89799 30 7.50195 30C6.04316 30 4.79281 29.1075 4.26714 27.8388L1.00195 26.9639V22.8599C2.42699 22.1954 3.85399 21.5167 5.38607 21.1345C6.52122 20.8513 7.75424 20.6978 9.55405 20.5354L18.2546 11.8348ZM27.9148 25.7201L28.6296 25.5286C28.836 24.8813 28.962 24.1678 28.9939 23.3939C28.7197 23.0744 28.5637 22.7009 28.5235 22.2837C26.9831 22.0121 25.4186 21.8027 23.8961 22.3216C23.1199 22.5861 22.1619 23.0698 20.5139 24H16.5C18.4116 22.8963 20.2987 21.7043 22.3153 20.8012C20.1283 20.2526 18.9408 20.0358 17.8032 20.0041C17.4839 20.4079 17.1373 20.8214 16.7696 21.2596C15.7263 22.5029 15.386 22.9341 15.2087 23.5002C15.0505 24.005 15.0143 24.6398 15.0064 26.0004H21.0373C21.2798 24.3041 22.7386 23 24.502 23C26.1669 23 27.5603 24.1625 27.9148 25.7201ZM13.0053 26.0004C13.0111 24.6405 13.0499 23.7012 13.3002 22.9023C13.6107 21.9112 14.2333 21.1698 15.1317 20.1L15.2375 19.974C16.2553 18.7611 16.9241 17.946 17.3628 17.0851C17.6734 16.4757 17.8779 15.8207 17.9615 14.9563L10.454 22.4638C8.92195 22.5978 7.3669 22.7017 5.87018 23.0751C4.98086 23.2969 4.16575 23.6095 3.00195 24.1374V25.4292L4.08907 25.7205C4.44337 24.1627 5.83688 23 7.50195 23C9.26534 23 10.7241 24.3041 10.9666 26.0004H13.0053ZM6.00195 26.5C6.00195 27.3284 6.67353 28 7.50195 28C8.33038 28 9.00195 27.3284 9.00195 26.5C9.00195 25.6716 8.33038 25 7.50195 25C6.67353 25 6.00195 25.6716 6.00195 26.5ZM23.002 26.5C23.002 27.3284 23.6735 28 24.502 28C25.3304 28 26.002 27.3284 26.002 26.5C26.002 25.6716 25.3304 25 24.502 25C23.6735 25 23.002 25.6716 23.002 26.5Z" fill="#000000" class="bmwfcol"/><title>gas-pressure-spring-front-door_rg_48</title></svg>