<svg width="48" height="48" viewBox="0 0 32 32" xmlns="http://www.w3.org/2000/svg"><path d="M4 16C4 12.3272 5.21989 9.34433 7.28211 7.28211C9.34433 5.21989 12.3272 4 16 4C19.6728 4 22.6557 5.21989 24.7179 7.28211C26.7801 9.34433 28 12.3272 28 16C28 19.2536 27.0427 21.9659 25.3904 23.9762L23.7071 22.2929L22.2929 23.7071L25.425 26.8392L26.1321 26.1321C28.6199 23.6443 30 20.1272 30 16C30 11.8728 28.6199 8.35567 26.1321 5.86789C23.6443 3.38011 20.1272 2 16 2C11.8728 2 8.35567 3.38011 5.86789 5.86789C3.38011 8.35567 2 11.8728 2 16C2 20.1272 3.38011 23.6443 5.86789 26.1321L6.575 26.8392L9.70711 23.7071L8.29289 22.2929L6.60955 23.9762C4.95734 21.9659 4 19.2536 4 16Z" fill="#000000" class="bmwfcol"/><path d="M23.7072 9.70706L19.1132 14.3011C19.3703 14.8082 19.5 15.3874 19.5 16C19.5 17.9011 18.0836 19.5 16 19.5C15.0228 19.5 14.1307 19.1699 13.4804 18.5196C12.8301 17.8693 12.5 16.9772 12.5 16C12.5 15.0228 12.8301 14.1307 13.4804 13.4804C14.1307 12.8301 15.0228 12.5 16 12.5C16.6127 12.5 17.1919 12.6298 17.699 12.8868L22.293 8.29285L23.7072 9.70706ZM14.8946 14.8946C14.6699 15.1193 14.5 15.4772 14.5 16C14.5 16.5228 14.6699 16.8807 14.8946 17.1054C15.1193 17.3301 15.4772 17.5 16 17.5C16.9164 17.5 17.5 16.8603 17.5 16C17.5 15.4772 17.3301 15.1193 17.1054 14.8946C16.8807 14.6699 16.5228 14.5 16 14.5C15.4772 14.5 15.1193 14.6699 14.8946 14.8946Z" fill="#000000" class="bmwfcol"/><title>gauge_rg_48</title></svg>