<svg width="48" height="48" viewBox="0 0 32 32" xmlns="http://www.w3.org/2000/svg"><path d="M21.7115 4.10758L22.7794 2.25781L24.5115 3.2578L22.5024 6.73768L21.6521 6.29192C20.0727 5.46393 18.1696 4.99971 16 4.99971C12.6273 4.99971 9.89434 6.1196 8.00712 8.00682C6.1199 9.89404 5.00001 12.627 5.00001 15.9997H3.00001C3.00001 12.1725 4.28013 8.90538 6.59291 6.59261C8.90569 4.27983 12.1728 2.99971 16 2.99971C18.0905 2.99971 20.0153 3.38106 21.7115 4.10758Z" fill="#000000" class="bmwfcol"/><path d="M13.8429 13.8426C14.4057 13.2798 15.1728 12.9997 16 12.9997C16.1879 12.9997 16.3726 13.0141 16.5526 13.0431L19.2116 8.43744L20.9437 9.43744L18.3068 14.0047C18.7696 14.5485 19 15.2493 19 15.9997C19 17.6247 17.7836 18.9997 16 18.9997C15.1728 18.9997 14.4057 18.7196 13.8429 18.1568C13.2801 17.594 13 16.8269 13 15.9997C13 15.1724 13.2801 14.4054 13.8429 13.8426ZM15.2571 15.2568C15.1199 15.394 15 15.6269 15 15.9997C15 16.3724 15.1199 16.6054 15.2571 16.7426C15.3943 16.8798 15.6273 16.9997 16 16.9997C16.6164 16.9997 17 16.5838 17 15.9997C17 15.6269 16.8801 15.394 16.7429 15.2568C16.6057 15.1196 16.3728 14.9997 16 14.9997C15.6273 14.9997 15.3943 15.1196 15.2571 15.2568Z" fill="#000000" class="bmwfcol"/><path d="M7.08595 20.4995L6.50008 21.0854L4.20718 18.7925L2.79297 20.2067L5.08586 22.4996L4.08574 23.4997L4.79285 24.2068C6.22373 25.6377 7.4477 26.528 8.60931 26.7784C9.51432 26.9736 10.2681 26.7653 10.9066 26.36C11.2648 26.7719 11.5051 27.1209 11.6681 27.4469C11.899 27.9088 12 28.3753 12 28.9997V29.9997H14V28.9915C13.9991 28.1192 13.8498 27.3381 13.4569 26.5525C13.1843 26.0071 12.808 25.4877 12.3313 24.9513C12.7555 24.3032 12.9784 23.5354 12.7787 22.609C12.5283 21.4474 11.6379 20.2235 10.2071 18.7926L9.49995 18.0855L8.50017 19.0853L6.20737 16.7925L4.79315 18.2067L7.08595 20.4995ZM9.48237 20.9315C10.3674 21.9169 10.7263 22.5791 10.8236 23.0305C10.91 23.4313 10.814 23.7714 10.2928 24.2926C9.77169 24.8137 9.4316 24.9098 9.03081 24.8234C8.57935 24.726 7.91711 24.3671 6.93175 23.4821L9.48237 20.9315Z" fill="#000000" class="bmwfcol"/><path d="M24.5163 8.57507C25.9086 10.2171 26.7876 12.3945 26.9662 14.9997H25L25 16.9998L29 16.9997V15.9997C29 12.5408 27.955 9.53803 26.0418 7.28162L24.5163 8.57507Z" fill="#000000" class="bmwfcol"/><title>gauge_plug_limit_rg_48</title></svg>