<svg width="48" height="48" viewBox="0 0 32 32" xmlns="http://www.w3.org/2000/svg"><path d="M5.91807 8.99931C5.91807 7.29753 7.29763 5.91798 8.9994 5.91798C10.7012 5.91798 12.0807 7.29753 12.0807 8.99931C12.0807 10.7011 10.7012 12.0806 8.9994 12.0806C7.29763 12.0806 5.91807 10.7011 5.91807 8.99931ZM8.9994 7.66798C8.26413 7.66798 7.66807 8.26403 7.66807 8.99931C7.66807 9.73458 8.26413 10.3306 8.9994 10.3306C9.73468 10.3306 10.3307 9.73458 10.3307 8.99931C10.3307 8.26403 9.73468 7.66798 8.9994 7.66798Z" fill="#000000" class="bmwfcol"/><path d="M7.34859 2.14926L7.87503 2.02258L8.81471 3.14125C8.93774 3.13741 9.06086 3.13741 9.18389 3.14125L10.1226 2.02312L10.6486 2.14901C11.3644 2.32031 12.0487 2.60321 12.6765 2.98733L13.1388 3.27018L13.0112 4.72638C13.1011 4.81075 13.1882 4.89792 13.2726 4.98776L14.7272 4.8607L15.0102 5.32209C15.3948 5.94938 15.6784 6.63327 15.8506 7.34871L15.9773 7.87515L14.8586 8.81483C14.8624 8.93786 14.8624 9.06098 14.8586 9.18401L15.9767 10.1227L15.8508 10.6487C15.6795 11.3645 15.3966 12.0489 15.0125 12.6766L14.7297 13.139L13.2735 13.0113C13.1891 13.1012 13.1019 13.1884 13.0121 13.2727L13.1391 14.7274L12.6777 15.0103C12.0504 15.3949 11.3665 15.6785 10.6511 15.8507L10.1247 15.9774L9.18499 14.8587C9.06197 14.8625 8.93885 14.8625 8.81583 14.8587L7.87712 15.9768L7.3511 15.8509C6.63533 15.6796 5.95096 15.3967 5.32316 15.0126L4.86084 14.7298L4.98848 13.2736C4.89864 13.1892 4.81147 13.102 4.72709 13.0122L3.27245 13.1393L2.98953 12.6779C2.60488 12.0505 2.32129 11.3666 2.14914 10.6512L2.02246 10.1248L3.14113 9.18511C3.13729 9.06209 3.13729 8.93897 3.14113 8.81595L2.023 7.87724L2.14889 7.35121C2.32019 6.63545 2.60309 5.95108 2.98721 5.32328L3.27007 4.86096L4.72626 4.9886C4.81063 4.89876 4.8978 4.81158 4.98765 4.72721L4.86058 3.27257L5.32197 2.98965C5.94928 2.605 6.63317 2.32141 7.34859 2.14926ZM11.2983 4.22685C11.1194 4.14076 10.9358 4.06487 10.7483 3.99954L9.93541 4.96777L9.46873 4.91488C9.15683 4.87953 8.84193 4.87953 8.53003 4.91488L8.0635 4.96775L7.25066 4.00009C7.06319 4.06568 6.87958 4.14182 6.70072 4.22815L6.81075 5.48778L6.44288 5.78041C6.19733 5.97574 5.97473 6.19835 5.77936 6.44396L5.48662 6.81195L4.22672 6.70152C4.14064 6.88043 4.06475 7.06407 3.99942 7.25156L4.96765 8.06442L4.91476 8.53111C4.87941 8.84301 4.87941 9.15791 4.91476 9.4698L4.96763 9.93634L3.99997 10.7492C4.06556 10.9366 4.1417 11.1202 4.22803 11.2991L5.48766 11.1891L5.78029 11.557C5.97562 11.8025 6.19824 12.0251 6.44384 12.2205L6.81184 12.5132L6.7014 13.7731C6.88031 13.8592 7.06395 13.9351 7.25144 14.0004L8.0643 13.0322L8.53099 13.0851C8.84289 13.1204 9.15779 13.1204 9.46968 13.0851L9.93622 13.0322L10.749 13.9999C10.9365 13.9343 11.1201 13.8581 11.299 13.7718L11.189 12.5121L11.5568 12.2195C11.8024 12.0242 12.025 11.8016 12.2204 11.556L12.5131 11.188L13.773 11.2984C13.8591 11.1195 13.935 10.9359 14.0003 10.7484L13.0321 9.93553L13.085 9.46884C13.1203 9.15695 13.1203 8.84205 13.085 8.53015L13.0321 8.06362L13.9997 7.25078C13.9341 7.06331 13.858 6.87971 13.7717 6.70083L12.512 6.81087L12.2194 6.443C12.024 6.19742 11.8015 5.97483 11.5559 5.77948L11.1879 5.48675L11.2983 4.22685Z" fill="#000000" class="bmwfcol"/><path d="M28.3683 15.4031C28.9703 15.6299 29.3996 15.9852 29.7073 16.2928L30.4146 16.9999L21.589 25.8256C20.7035 26.7124 20.0439 27.3729 19.0664 27.6987C18.5665 27.8653 18.0254 27.9343 17.3964 27.9674C16.7763 28 16.0044 28 15.0288 28H11.4142L9.41424 30H7.58582L1.58582 24L6.30669 19.2792C6.79508 18.7908 7.17993 18.4059 7.49345 18.113C7.8062 17.8209 8.09317 17.5766 8.38659 17.3971C9.03821 16.9983 9.6121 16.9991 10.1895 17L10.3999 17L14.1319 18L19 18C19.4742 18 19.9401 18.1457 20.3112 18.457C22.8561 16.4492 24.7372 15.514 26.1992 15.2527C27.0434 15.1019 27.7593 15.1737 28.3683 15.4031ZM19 20L13.8686 20L10.1378 19.0003C9.59838 19.0031 9.55683 19.0257 9.43053 19.103C9.31542 19.1734 9.14813 19.3042 8.85875 19.5745C8.57307 19.8414 8.2122 20.2021 7.70714 20.7071L4.41424 24L8.41424 28H8.58582L10.5858 26H15C16.0107 26 16.7299 25.9997 17.2913 25.9702C17.8497 25.9408 18.1838 25.8847 18.4339 25.8013C18.9135 25.6415 19.2395 25.3465 20.2932 24.2929L27.386 17.2001C27.1747 17.1637 26.9035 17.1585 26.551 17.2215C25.4853 17.412 23.7542 18.211 21.0002 20.4698L20.9999 21.4143L20.7071 21.7071C19.6533 22.761 18.7737 23.3796 17.8164 23.6987C16.911 24.0005 16.0167 24.0003 15.0816 24L11 24V22H15.0003C16.0357 22 16.6157 21.9908 17.1839 21.8014C17.6684 21.6398 18.215 21.3184 19.0001 20.5777L19 20Z" fill="#000000" class="bmwfcol"/><path d="M25.1641 3.86851L25.4032 5.06187L22.6067 7.85833L22.5966 7.86747C22.5675 7.8939 22.5371 7.92144 22.5187 7.95626C22.5189 7.95903 22.5194 7.96337 22.5205 7.96969C22.5337 8.04369 22.6155 8.24773 22.9268 8.5591C23.2359 8.86817 23.4215 8.93309 23.4813 8.94279C23.5004 8.94591 23.5084 8.94445 23.5205 8.94032C23.5366 8.93477 23.584 8.91462 23.6598 8.84691L26.4924 6.01432L27.6924 6.25633L27.8905 6.76627C28.4517 8.21065 28.2731 9.8244 27.4157 11.3095C26.3842 13.096 24.7122 14.0972 22.8528 14.047L21.4366 16.5H19.1272L21.7888 11.89L22.4735 12.0051C23.6978 12.211 24.8915 11.6814 25.6836 10.3095C25.9015 9.93203 26.0475 9.56196 26.13 9.2052L25.0434 10.2918L25.0287 10.3054C24.5172 10.7775 23.8747 11.0328 23.1609 10.917C22.509 10.8112 21.9589 10.4196 21.5126 9.97326C21.0685 9.52919 20.6671 8.97075 20.5514 8.31971C20.4227 7.59586 20.6759 6.9237 21.222 6.41455L22.3542 5.28239C22.1307 5.3066 21.9158 5.3571 21.7113 5.43148C21.0595 5.66852 20.4386 6.17567 19.9599 7.00485C19.1678 8.37684 19.306 9.67539 20.0965 10.6327L20.5385 11.1681L17.4602 16.5H15.1508L18.1384 11.3252C17.1653 9.73998 17.1963 7.79141 18.2278 6.00485C18.9092 4.82463 19.8764 3.97065 21.0277 3.55193C22.1815 3.13228 23.4456 3.17747 24.6628 3.66693L25.1641 3.86851Z" fill="#000000" class="bmwfcol"/><title>gear_and_wrench_on_hand_rg_48</title></svg>