<svg width="48" height="48" viewBox="0 0 32 32" xmlns="http://www.w3.org/2000/svg"><path d="M20 7.29282C17.4006 7.29282 15.2933 9.40005 15.2933 11.9995C15.2933 14.5989 17.4006 16.7061 20 16.7061C22.5994 16.7061 24.7066 14.5989 24.7066 11.9995C24.7066 9.40005 22.5994 7.29282 20 7.29282ZM17.2933 11.9995C17.2933 10.5046 18.5051 9.29282 20 9.29282C21.4948 9.29282 22.7066 10.5046 22.7066 11.9995C22.7066 13.4943 21.4948 14.7061 20 14.7061C18.5051 14.7061 17.2933 13.4943 17.2933 11.9995Z" fill="#000000" class="bmwfcol"/><path d="M19.5824 3.53011L18.1987 1.88281L17.597 2.02759C16.5557 2.27815 15.5604 2.6909 14.6473 3.25075L14.12 3.57408L14.3072 5.7163C14.1006 5.90358 13.9033 6.10088 13.716 6.30747L11.5717 6.11952L11.2484 6.64788C10.6893 7.56161 10.2776 8.55767 10.0283 9.59943L9.8844 10.2006L11.5311 11.583C11.5175 11.8613 11.5175 12.14 11.5311 12.4182L9.88379 13.8019L10.0286 14.4036C10.2791 15.4448 10.6919 16.4403 11.2517 17.3533L11.5751 17.8806L13.7173 17.6935C13.9046 17.9001 14.1019 18.0974 14.3084 18.2846L14.1205 20.429L14.6489 20.7522C15.5626 21.3113 16.5586 21.7231 17.6004 21.9724L18.2016 22.1162L19.584 20.4696C19.8623 20.4831 20.141 20.4831 20.4192 20.4696L21.8029 22.1169L22.4046 21.9721C23.4459 21.7215 24.4413 21.3087 25.3543 20.7489L25.8816 20.4255L25.6945 18.2833C25.9011 18.0961 26.0984 17.8988 26.2856 17.6922L28.43 17.8801L28.7532 17.3517C29.3123 16.438 29.724 15.442 29.9734 14.4002L30.1172 13.7991L28.4705 12.4166C28.4841 12.1384 28.4841 11.8597 28.4705 11.5814L30.1178 10.1977L29.9731 9.59605C29.7225 8.55474 29.3097 7.55937 28.7499 6.64636L28.4265 6.11905L26.2843 6.30618C26.097 6.09958 25.8998 5.90229 25.6932 5.71502L25.8811 3.57069L25.3527 3.24742C24.439 2.68837 23.443 2.27662 22.4012 2.0273L21.8 1.88342L20.4176 3.5301C20.1394 3.51652 19.8606 3.51653 19.5824 3.53011ZM21.2727 5.62212L22.5207 4.13549C22.9536 4.27363 23.3743 4.44749 23.7784 4.65527L23.6088 6.58998L24.0294 6.92453C24.4163 7.23228 24.7669 7.58295 25.0747 7.96982L25.4091 8.39024L27.3432 8.2213C27.5514 8.62523 27.7258 9.04573 27.8645 9.47849L26.3785 10.7267L26.439 11.2599C26.4946 11.7511 26.4946 12.2471 26.439 12.7383L26.3785 13.2717L27.8652 14.5198C27.727 14.9526 27.5532 15.3733 27.3454 15.7774L25.4107 15.6078L25.0761 16.0284C24.7684 16.4153 24.4177 16.766 24.0308 17.0737L23.6104 17.4081L23.7793 19.3422C23.3754 19.5504 22.9549 19.7248 22.5221 19.8636L21.2739 18.3776L20.7407 18.438C20.2495 18.4937 19.7536 18.4937 19.2623 18.438L18.729 18.3776L17.4809 19.8642C17.048 19.726 16.6273 19.5522 16.2232 19.3444L16.3928 17.4097L15.9722 17.0751C15.5853 16.7674 15.2346 16.4167 14.9269 16.0298L14.5925 15.6094L12.6584 15.7784C12.4502 15.3744 12.2758 14.9539 12.1371 14.5212L13.6231 13.273L13.5627 12.7398C13.507 12.2485 13.507 11.7526 13.5627 11.2613L13.6231 10.728L12.1365 9.47991C12.2746 9.04702 12.4485 8.62635 12.6562 8.22225L14.591 8.39183L14.9255 7.97126C15.2333 7.58435 15.584 7.23365 15.9708 6.92592L16.3912 6.59148L16.2223 4.65745C16.6262 4.4492 17.0467 4.27481 17.4795 4.13611L18.7277 5.6221L19.2609 5.56167C19.7521 5.506 20.2481 5.506 20.7393 5.56167L21.2727 5.62212Z" fill="#000000" class="bmwfcol"/><path d="M9.15449 17.1403C9.04157 17.1373 8.92859 17.1376 8.81569 17.1411L7.876 16.0225L7.34957 16.1491C6.63415 16.3213 5.95026 16.6049 5.32295 16.9895L4.86156 17.2724L4.98862 18.7271C4.89878 18.8115 4.81161 18.8986 4.72724 18.9885L3.27105 18.8608L2.98818 19.3232C2.60407 19.951 2.32116 20.6353 2.14986 21.3511L2.02397 21.8771L3.1421 22.8158C3.13826 22.9389 3.13827 23.062 3.14211 23.185L2.02344 24.1246L2.15012 24.6511C2.32227 25.3665 2.60585 26.0504 2.99051 26.6777L3.27342 27.1391L4.72806 27.0121C4.81244 27.1019 4.89962 27.1891 4.98945 27.2735L4.86182 28.7296L5.32413 29.0125C5.95193 29.3966 6.6363 29.6795 7.35207 29.8508L7.8781 29.9767L8.8168 28.8586C8.93983 28.8624 9.06294 28.8624 9.18597 28.8586L10.1256 29.9773L10.6521 29.8506C11.3675 29.6784 12.0514 29.3948 12.6787 29.0102L13.1401 28.7272L13.013 27.2726C13.1029 27.1882 13.1901 27.1011 13.2744 27.0112L14.7306 27.1388L15.0135 26.6765C15.3976 26.0487 15.6805 25.3644 15.8518 24.6486L15.9777 24.1226L14.8596 23.1839C14.8631 23.0714 14.8634 22.9588 14.8605 22.8462C14.2883 22.5746 13.7411 22.259 13.2231 21.9039L13.0331 22.0635L13.0859 22.53C13.1213 22.8419 13.1213 23.1568 13.0859 23.4687L13.033 23.9354L14.0013 24.7483C13.9359 24.9358 13.86 25.1194 13.774 25.2983L12.5141 25.1879L12.2213 25.5559C12.026 25.8015 11.8034 26.024 11.5578 26.2194L11.1899 26.512L11.3 27.7717C11.1211 27.858 10.9375 27.9341 10.75 27.9997L9.9372 27.0321L9.47066 27.085C9.15876 27.1203 8.84386 27.1203 8.53197 27.085L8.06528 27.0321L7.25242 28.0003C7.06493 27.935 6.88129 27.8591 6.70238 27.773L6.81281 26.5131L6.44481 26.2204C6.19921 26.025 5.97659 25.8024 5.78126 25.5568L5.48863 25.189L4.22901 25.299C4.14268 25.1201 4.06654 24.9365 4.00094 24.749L4.96861 23.9362L4.91574 23.4697C4.88039 23.1578 4.88039 22.8429 4.91574 22.531L4.96862 22.0643L4.00039 21.2514C4.06573 21.064 4.14162 20.8803 4.2277 20.7014L5.4876 20.8118L5.78034 20.4438C5.97571 20.1982 6.1983 19.9756 6.44386 19.7803L6.81172 19.4877L6.70169 18.228C6.88056 18.1417 7.06417 18.0656 7.25163 18L8.06448 18.9676L8.53101 18.9148C8.84291 18.8794 9.1578 18.8794 9.4697 18.9148L9.93639 18.9676L10.0964 18.777C9.74145 18.2592 9.42602 17.7122 9.15449 17.1403Z" fill="#000000" class="bmwfcol"/><path d="M5.91905 22.9992C5.91905 21.2974 7.29861 19.9179 9.00038 19.9179C10.7021 19.9179 12.0817 21.2974 12.0817 22.9992C12.0817 24.701 10.7021 26.0805 9.00038 26.0805C7.29861 26.0805 5.91905 24.701 5.91905 22.9992ZM9.00038 21.6679C8.2651 21.6679 7.66905 22.2639 7.66905 22.9992C7.66905 23.7345 8.2651 24.3305 9.00038 24.3305C9.73565 24.3305 10.3317 23.7345 10.3317 22.9992C10.3317 22.2639 9.73565 21.6679 9.00038 21.6679Z" fill="#000000" class="bmwfcol"/><path d="M6.77466 1.99985H5.22705L5.02743 2.73918C4.8706 3.32001 4.51016 3.84332 4.05642 4.50209L4.01115 4.56783C3.79173 4.88658 3.54441 5.25193 3.3557 5.63198C3.16459 6.01685 3.00085 6.47909 3.00085 6.99985C3.00085 7.82721 3.25994 8.60247 3.83076 9.17247C4.40135 9.74223 5.17621 9.99985 6.00085 9.99985C6.82549 9.99985 7.60036 9.74223 8.17095 9.17247C8.74177 8.60247 9.00085 7.82721 9.00085 6.99985C9.00085 6.47909 8.83712 6.01685 8.64601 5.63198C8.4573 5.25193 8.20998 4.88658 7.99056 4.56783L7.94529 4.50209C7.49155 3.84332 7.13111 3.32001 6.97428 2.73918L6.77466 1.99985ZM5.75331 5.56482C5.83169 5.45169 5.91524 5.33111 6.00085 5.20353C6.08648 5.33113 6.17004 5.45174 6.24844 5.56488C6.28092 5.61177 6.31266 5.65757 6.34315 5.70186C6.56773 6.02811 6.73741 6.28527 6.8547 6.52146C6.96959 6.75284 7.00085 6.90061 7.00085 6.99985C7.00085 7.41249 6.87794 7.63722 6.75776 7.75723C6.63735 7.87747 6.41221 7.99985 6.00085 7.99985C5.5895 7.99985 5.36436 7.87747 5.24395 7.75723C5.12377 7.63722 5.00085 7.41249 5.00085 6.99985C5.00085 6.90061 5.03212 6.75284 5.14701 6.52146C5.2643 6.28527 5.43398 6.02811 5.65856 5.70186C5.68902 5.65761 5.72086 5.61167 5.75331 5.56482Z" fill="#000000" class="bmwfcol"/><title>gear_oil_service_rg_48</title></svg>