<svg width="48" height="48" viewBox="0 0 32 32" xmlns="http://www.w3.org/2000/svg"><path d="M17.0316 4.03164C18.3786 2.68472 20.2791 2 22.5 2C24.7209 2 26.6214 2.68472 27.9684 4.03164C29.3153 5.37856 30 7.27908 30 9.5C30 12.0334 29.106 14.1409 27.3892 15.4806C26.9733 17.0325 26.6487 18.2362 26.3693 19.1589C26.0748 20.1312 25.8062 20.8776 25.491 21.4191C25.1477 22.0087 24.7105 22.4209 24.0888 22.6216C23.6013 22.7791 23.0507 22.7784 22.5829 22.7778L22.5 22.7778L22.4171 22.7778C21.9493 22.7784 21.3987 22.7791 20.9112 22.6216C20.2895 22.4209 19.8523 22.0087 19.509 21.4191C19.1938 20.8776 18.9252 20.1312 18.6307 19.1589C18.3513 18.2362 18.0267 17.0325 17.6108 15.4806C15.894 14.1409 15 12.0334 15 9.5C15 7.27908 15.6847 5.37856 17.0316 4.03164ZM18.4459 5.44586C17.5503 6.34144 17 7.69092 17 9.5C17 11.6705 17.7887 13.1877 19.0535 14.0596L19.3566 14.2685L19.4518 14.6241C19.6322 15.2973 19.7941 15.9015 19.9416 16.4443H25.0584C25.2059 15.9015 25.3678 15.2973 25.5482 14.6241L25.6434 14.2685L25.9465 14.0596C27.2113 13.1877 28 11.6705 28 9.5C28 7.69092 27.4497 6.34144 26.5541 5.44586C25.6586 4.55028 24.3091 4 22.5 4C20.6909 4 19.3414 4.55028 18.4459 5.44586ZM20.5043 18.4443L20.5449 18.5792C20.8377 19.546 21.0509 20.0924 21.2375 20.4128C21.3904 20.6755 21.4745 20.7022 21.521 20.7169L21.5259 20.7185C21.6764 20.7671 21.9015 20.7778 22.5 20.7778C23.0985 20.7778 23.3236 20.7671 23.4741 20.7185L23.479 20.7169C23.5255 20.7022 23.6096 20.6755 23.7625 20.4128C23.9491 20.0924 24.1623 19.546 24.4551 18.5792L24.4957 18.4443H20.5043Z" fill="#000000" class="bmwfcol"/><path d="M11.9482 5.88477L13.1917 7.36514C13.0628 8.0562 13 8.77115 13 9.5C13 9.63722 13.0022 9.77388 13.0067 9.90993L12.7425 9.93987L11.2261 8.13461C10.6068 8.32397 10.0071 8.57263 9.43555 8.87714L9.64078 11.2265L9.22036 11.5609C8.74366 11.9401 8.31156 12.3723 7.93231 12.849L7.59776 13.2696L5.24741 13.0636C4.94355 13.6355 4.69561 14.2354 4.50704 14.8549L6.31294 16.371L6.2525 16.9044C6.1839 17.5096 6.1839 18.1207 6.2525 18.7259L6.31292 19.2591L4.50766 20.7755C4.69702 21.3948 4.94568 21.9945 5.25019 22.5661L7.59955 22.3608L7.93399 22.7813C8.31318 23.258 8.74533 23.6901 9.22208 24.0693L9.64265 24.4039L9.43664 26.7542C10.0085 27.0581 10.6084 27.306 11.228 27.4946L12.7441 25.6887L13.2774 25.7491C13.8827 25.8177 14.4937 25.8177 15.099 25.7491L15.6321 25.6887L17.1485 27.494C17.7679 27.3046 18.3675 27.0559 18.9391 26.7514L18.7339 24.402L19.1543 24.0676C19.1788 24.0481 19.2031 24.0286 19.2273 24.0089C19.5418 24.2197 19.8964 24.3956 20.2965 24.5248C20.4503 24.5745 20.6062 24.6146 20.7607 24.6468L21.0371 27.8281L21.0401 27.8198L21.041 27.8303L20.5137 28.1536C19.4348 28.8152 18.2585 29.3029 17.0281 29.599L16.4264 29.7438L14.7796 27.7832C14.3857 27.8064 13.9909 27.8064 13.597 27.7832L11.9516 29.7432L11.3504 29.5993C10.1194 29.3047 8.94238 28.8182 7.86266 28.1576L7.3343 27.8343L7.558 25.2821C7.26282 25.0198 6.98335 24.7404 6.72105 24.4452L4.1713 24.6679L3.84797 24.1406C3.18641 23.0617 2.69867 21.8854 2.40259 20.655L2.25781 20.0534L4.2184 18.4065C4.19527 18.0127 4.19527 17.6178 4.21839 17.224L2.25843 15.5785L2.4023 14.9773C2.69691 13.7463 3.18345 12.5693 3.84407 11.4896L4.16734 10.9612L6.71949 11.185C6.98178 10.8898 7.26123 10.6103 7.55642 10.348L7.3337 7.79825L7.861 7.47492C8.93991 6.81336 10.1161 6.32563 11.3466 6.02954L11.9482 5.88477Z" fill="#000000" class="bmwfcol"/><path d="M13.2152 11.7521C10.2869 12.2178 8.04867 14.7544 8.04867 17.8138C8.04867 21.2039 10.7968 23.952 14.1869 23.952C15.598 23.952 16.898 23.4758 17.9348 22.6753C17.881 22.5931 17.8297 22.5096 17.7806 22.4253C17.4995 21.9424 17.2664 21.3857 17.0581 20.7939C16.314 21.511 15.3019 21.952 14.1869 21.952C11.9014 21.952 10.0487 20.0993 10.0487 17.8138C10.0487 15.6556 11.7008 13.8833 13.8093 13.6926C13.5468 13.0773 13.3493 12.4273 13.2152 11.7521Z" fill="#000000" class="bmwfcol"/><title>gear_and_bulb_rg_48</title></svg>