<svg width="48" height="48" viewBox="0 0 32 32" xmlns="http://www.w3.org/2000/svg"><path d="M15.0003 8.00024C16.6361 8.00024 18.0885 8.7858 19.0007 10.0002H15.0003C13.3435 10.0002 12.0003 11.3434 12.0003 13.0002C12.0003 13.8887 12.3866 14.687 13.0003 15.2364V17.5842C11.2344 16.8126 10.0003 15.0506 10.0003 13.0002C10.0003 10.2388 12.2389 8.00024 15.0003 8.00024Z" fill="#000000" class="bmwfcol"/><path d="M22.973 17.1612L22.0003 17.076V19.0836L24.0556 19.2637L24.3569 18.7712C25.2467 19.6638 25.3606 19.8428 25.3929 20.1622C25.4146 20.3774 25.3898 20.7061 25.262 21.3064C25.1355 21.9 24.93 22.6674 24.6422 23.7414L23.0003 29.8686V30.0002H25.0356L26.5864 24.213C26.8625 23.1828 27.0803 22.3701 27.2181 21.7231C27.3565 21.0731 27.4367 20.4958 27.3828 19.9614C27.2706 18.8502 26.5866 18.1689 25.8328 17.4182L25.7074 17.2931L25.2879 16.8736C25.4472 16.4494 25.5803 16.0152 25.6861 15.5732L25.8299 14.972L24.0602 13.4863C24.0774 13.1626 24.0774 12.8381 24.0602 12.5144L25.8305 11.0273L25.6858 10.4257C25.4173 9.31004 24.975 8.2436 24.3752 7.2654L24.0519 6.7381L21.7497 6.9392C21.5328 6.69784 21.3032 6.46823 21.0618 6.25133L21.2638 3.94686L20.7354 3.62359C19.7565 3.02463 18.6893 2.58348 17.5732 2.31636L16.972 2.17249L15.4863 3.94218C15.1626 3.92499 14.8381 3.925 14.5144 3.94219L13.0273 2.17188L12.4257 2.31665C11.3101 2.58511 10.2436 3.02733 9.2654 3.62715L8.7381 3.95048L8.9392 6.25272C8.69784 6.46962 8.46823 6.69925 8.25133 6.9406L5.94687 6.73861L5.62359 7.26697C5.02462 8.24593 4.58348 9.31311 4.31636 10.4292L4.17249 11.0304L5.94218 12.5161C5.925 12.8399 5.925 13.1643 5.94219 13.488L4.17188 14.975L4.31665 15.5767C4.5851 16.6923 5.02732 17.7588 5.62715 18.737L5.95048 19.2643L8.25272 19.0632C8.46963 19.3046 8.69925 19.5342 8.94061 19.7511L8.73861 22.0556L9.26698 22.3788C10.1198 22.9006 11.0396 23.3026 12.0003 23.5742V21.4769C11.6026 21.3365 11.2153 21.1682 10.8412 20.973L11.0251 18.8747L10.6045 18.5401C10.1823 18.2043 9.79959 17.8216 9.46378 17.3994L9.12934 16.979L7.03187 17.1622C6.78605 16.6924 6.58251 16.2015 6.42365 15.6955L8.03528 14.3418L7.97486 13.8086C7.91411 13.2726 7.91411 12.7314 7.97486 12.1954L8.0353 11.662L6.42303 10.3084C6.58124 9.80233 6.78418 9.31129 7.02945 8.84117L9.12772 9.02509L9.46228 8.60452C9.79814 8.18231 10.1808 7.79959 10.603 7.46378L11.0234 7.12934L10.8402 5.03187C11.3101 4.78605 11.8009 4.5825 12.3069 4.42365L13.6606 6.03528L14.1938 5.97485C14.7298 5.91411 15.271 5.91411 15.8071 5.97485L16.3404 6.0353L17.694 4.42303C18.2001 4.58123 18.6911 4.78418 19.1612 5.02945L18.9773 7.12773L19.3979 7.46227C19.8201 7.79811 20.2028 8.18078 20.5386 8.60297L20.873 9.02339L22.9705 8.84017C23.2163 9.31007 23.4199 9.8009 23.5788 10.3069L21.9671 11.6606L22.0276 12.1938C22.0883 12.7298 22.0883 13.271 22.0276 13.8071L21.9671 14.3404L23.5794 15.694C23.4212 16.2001 23.2182 16.6911 22.973 17.1612Z" fill="#000000" class="bmwfcol"/><path d="M15.305 30.0002H17.3756L16.0122 24.9117L16.8717 15.0874C16.9061 14.6939 17.049 14.4331 17.2162 14.2743C17.3799 14.1187 17.6301 14.0002 18.0003 14.0002C18.3731 14.0002 18.606 14.1201 18.7432 14.2574C18.8804 14.3946 19.0003 14.6275 19.0003 15.0002V23.0002H21.0003V15.0002C21.0003 14.173 20.7202 13.4059 20.1574 12.8431C19.5947 12.2804 18.8276 12.0002 18.0003 12.0002C17.1706 12.0002 16.4109 12.2806 15.8386 12.8244C15.2696 13.365 14.9501 14.1042 14.8793 14.9131L13.9891 25.0887L15.305 30.0002Z" fill="#000000" class="bmwfcol"/><title>gear_in_hand_rg_48</title></svg>