<svg width="48" height="48" viewBox="0 0 32 32" xmlns="http://www.w3.org/2000/svg"><path d="M16.0001 8C11.0472 8 6.29242 9.18435 2 11.6569V13.268L8.48479 24.5H10.2811C12.0348 23.4817 13.9721 23 16.0001 23C18.0282 23 19.9655 23.4817 21.7192 24.5H23.5155L30.0002 13.268V11.6569C25.7078 9.18435 20.953 8 16.0001 8ZM9.63949 22.5L4.0396 12.8007C7.39618 10.9969 11.4311 10 16.0001 10C17.1005 10 18.17 10.0578 19.2064 10.1708L19.8353 12.5177L16.7109 14.3216L17.9645 19H20.0351L19.04 15.2863L22.1643 13.4824L21.3636 10.494C23.7777 10.958 25.9865 11.7398 27.9606 12.8007L22.3608 22.5C20.571 21.5195 18.3421 21 16.0001 21C13.6581 21 11.4293 21.5195 9.63949 22.5Z" fill="#000000" class="bmwfcol"/><title>glas-repair_rg_48</title></svg>