<svg width="48" height="48" viewBox="0 0 32 32" xmlns="http://www.w3.org/2000/svg"><path d="M12 4H2V16.5367L2.20665 16.806C3.10819 17.9809 4.43619 18.7149 6 18.9322V26H3V28H11V26H8V18.9322C9.56381 18.7149 10.8918 17.9809 11.7933 16.806L12 16.5367V4ZM4 15.8326V6H10V15.8326C9.3313 16.5498 8.31959 17 7 17C5.68041 17 4.6687 16.5498 4 15.8326Z" fill="#000000" class="bmwfcol"/><path d="M16 4V12C16 13.0798 16.0251 13.4299 16.1891 13.7295C16.343 14.0106 16.6959 14.3635 17.7668 15H18.2332C19.3041 14.3635 19.657 14.0106 19.8109 13.7295C19.9749 13.4299 20 13.0798 20 12V4H22L22.0001 12.1359C22.0013 13.0115 22.0025 13.8911 21.5652 14.6898C21.1056 15.5294 20.2492 16.1473 19.0044 16.866L19 16.8685V28H17L17 16.8685L16.9956 16.866C15.7508 16.1473 14.8944 15.5294 14.4348 14.6898C13.9975 13.8911 13.9987 13.0115 13.9999 12.1359L14 4H16Z" fill="#000000" class="bmwfcol"/><path d="M28.0858 4H30V28H28V20H24L24 11.8741C23.9995 10.4849 23.9991 9.40501 24.5313 8.26461C25.0557 7.14084 26.0651 6.02065 27.7929 4.29289L28.0858 4ZM28 18V6.94605C27.0685 7.93821 26.601 8.55894 26.3437 9.11039C26.0168 9.81077 26 10.4504 26 12V18H28Z" fill="#000000" class="bmwfcol"/><path d="M19 4V11H17V4H19Z" fill="#000000" class="bmwfcol"/><title>glas-fork-knife_rg_48</title></svg>