<svg width="48" height="48" viewBox="0 0 32 32" xmlns="http://www.w3.org/2000/svg"><path d="M5.09612 20.9043C3.1493 18.9574 2.0752 16.2104 2.0752 13.0002C2.0752 9.78999 3.1493 7.04294 5.09612 5.09612C7.04294 3.1493 9.78999 2.0752 13.0002 2.0752C16.2104 2.0752 18.9574 3.1493 20.9043 5.09612C22.8511 7.04294 23.9252 9.78999 23.9252 13.0002C23.9252 16.2104 22.8511 18.9574 20.9043 20.9043C20.8721 20.9364 20.8398 20.9683 20.8072 21H17.6842C18.4049 20.62 19.0446 20.1476 19.5961 19.5961C20.2128 18.9794 20.7307 18.2524 21.1309 17.4252H17.827C17.6184 18.6319 17.3183 19.7048 16.9328 20.612C16.8769 20.7435 16.8184 20.873 16.7575 21H14.6339C14.8391 20.7037 15.0396 20.3368 15.2301 19.8884C15.5211 19.2037 15.7641 18.3773 15.9466 17.4252H10.0537C10.2362 18.3775 10.4792 19.204 10.7702 19.8887C11.4658 21.5252 12.2931 22.0751 13 22.0752V23.9252C9.78988 23.9251 7.0429 22.851 5.09612 20.9043ZM3.9252 13.0002C3.9252 13.9187 4.02555 14.7789 4.2156 15.5752H7.9348C7.86219 14.759 7.8252 13.8982 7.8252 13.0002C7.8252 12.1022 7.86219 11.2414 7.9348 10.4252H4.2156C4.02555 11.2215 3.9252 12.0817 3.9252 13.0002ZM4.86951 17.4252C5.26974 18.2524 5.78755 18.9794 6.40427 19.5961C7.24461 20.4365 8.2898 21.0932 9.51403 21.519C9.35059 21.232 9.20185 20.9281 9.06765 20.6124C8.68203 19.7051 8.38191 18.6321 8.17332 17.4252H4.86951ZM21.7848 15.5752C21.9748 14.7789 22.0752 13.9187 22.0752 13.0002C22.0752 12.0817 21.9748 11.2215 21.7848 10.4252H18.0656C18.1382 11.2414 18.1752 12.1022 18.1752 13.0002C18.1752 13.8982 18.1382 14.759 18.0656 15.5752H21.7848ZM16.2077 15.5752C16.2844 14.7762 16.3252 13.9158 16.3252 13.0002C16.3252 12.0846 16.2844 11.2241 16.2077 10.4252H9.79268C9.71595 11.2241 9.6752 12.0845 9.6752 13.0002C9.6752 13.9159 9.71595 14.7763 9.79268 15.5752H16.2077ZM8.17332 8.5752C8.38191 7.36833 8.68203 6.29529 9.06765 5.38801C9.20185 5.07225 9.35059 4.76837 9.51403 4.48141C8.2898 4.90721 7.24461 5.56393 6.40427 6.40427C5.78755 7.02098 5.26974 7.74803 4.86951 8.5752H8.17332ZM10.0537 8.5752H15.9466C15.7641 7.62312 15.5211 6.79667 15.2301 6.112C14.5345 4.47519 13.707 3.9252 13.0002 3.9252C12.2933 3.9252 11.4658 4.47507 10.7702 6.11166C10.4792 6.79637 10.2362 7.62292 10.0537 8.5752ZM17.827 8.5752H21.1309C20.7306 7.74803 20.2128 7.02098 19.5961 6.40427C18.7557 5.56388 17.7105 4.90714 16.4862 4.48134C16.6497 4.76844 16.7985 5.07248 16.9328 5.38839C17.3183 6.29561 17.6184 7.36853 17.827 8.5752Z" fill="#000000" class="bmwfcol"/><path d="M16.1157 23.209C16.4596 23.006 16.9079 22.8789 17.5048 22.8789C17.8398 22.8789 18.1566 22.9179 18.497 22.9785L18.4988 22.9788C18.8569 23.0459 19.0387 23.0838 19.2882 23.1442L19.4411 23.1813V24.667L19.1953 24.6092C18.9464 24.5506 18.6675 24.4919 18.3512 24.4331C18.0835 24.3824 17.8588 24.3548 17.6383 24.3548C17.3354 24.3548 17.1267 24.3975 16.9777 24.4713C16.8343 24.5423 16.7319 24.6489 16.6523 24.8082C16.5197 25.0734 16.4731 25.4679 16.4731 26.0617C16.4731 26.6089 16.5137 27.024 16.6619 27.2833C16.805 27.5323 17.0734 27.65 17.6754 27.65C18.1332 27.65 18.7433 27.529 19.1994 27.4318L19.4411 27.3803V28.8663L19.2814 28.8992C18.7767 29.0031 18.1505 29.1259 17.4825 29.1259C16.8572 29.1259 16.4066 28.9974 16.0691 28.7974C15.7317 28.5975 15.5241 28.3358 15.3708 28.0999C15.0636 27.6267 14.9452 26.9247 14.9452 26.084C14.9452 25.2157 15.0408 24.5001 15.3832 23.9458C15.5467 23.6826 15.7721 23.4119 16.1157 23.209Z" fill="#000000" class="bmwfcol"/><path d="M20.9069 23.15C21.2651 22.9683 21.7227 22.8789 22.3376 22.8789C22.8703 22.8789 23.289 22.9515 23.6337 23.1083C23.9813 23.2666 24.2385 23.5037 24.4581 23.807C24.8823 24.3864 25.0085 25.1892 25.0085 26.0172C25.0085 26.9812 24.8195 27.7126 24.4502 28.2133C24.2313 28.5118 23.9798 28.7456 23.635 28.9013C23.2937 29.0554 22.8767 29.1259 22.3376 29.1259C21.7324 29.1259 21.2877 29.0463 20.9399 28.8823C20.5873 28.716 20.3523 28.4711 20.1534 28.1767C19.8164 27.6754 19.6668 26.9599 19.6668 26.0172C19.6668 25.2228 19.7625 24.4777 20.1047 23.9236C20.3031 23.6021 20.5448 23.3337 20.9069 23.15ZM21.4172 24.69C21.3367 24.8213 21.2793 25.0051 21.2433 25.2373C21.2075 25.4677 21.1946 25.7327 21.1946 26.0172C21.1946 26.3018 21.2075 26.5647 21.2432 26.7922C21.2792 27.0212 21.3363 27.2005 21.4159 27.3275C21.586 27.5964 21.872 27.6722 22.3376 27.6722C22.7398 27.6722 22.9963 27.601 23.1838 27.3681C23.4168 27.0799 23.4807 26.6136 23.4807 26.0172C23.4807 25.4495 23.4194 25.0166 23.2426 24.7262C23.0657 24.4351 22.7827 24.3325 22.3376 24.3325C21.8865 24.3325 21.595 24.4013 21.4172 24.69Z" fill="#000000" class="bmwfcol"/><path d="M27.4381 23.005H25.6752V28.9997H27.1586V25.8452L28.0521 27.8867H29.2857L30.1792 25.8452V28.9997H31.6625V23.005H29.9219L28.68 25.8446L27.4381 23.005Z" fill="#000000" class="bmwfcol"/><path d="M12.9082 27.279H14.5399V28.9997H12.9082V27.279Z" fill="#000000" class="bmwfcol"/><title>globe_with_com_rg_48</title></svg>