<svg width="48" height="48" viewBox="0 0 32 32" xmlns="http://www.w3.org/2000/svg"><path d="M20.9571 5.04289C22.1768 6.26263 23.0557 7.79297 23.5463 9.55132L22.5 10.5H18.1472C18.1842 10.9314 18.2113 11.375 18.2284 11.8296C17.4292 12.6611 16.7683 13.4273 16.2267 14.175C16.2421 13.7945 16.25 13.4027 16.25 13C16.25 12.1122 16.2116 11.277 16.1392 10.5H9.86073C9.78841 11.277 9.75 12.1122 9.75 13C9.75 13.8878 9.78841 14.723 9.86073 15.5H15.3825C15.0272 16.149 14.7544 16.8052 14.5512 17.5H10.1445C10.3241 18.4101 10.5595 19.2013 10.8391 19.8592C11.5308 21.4866 12.3391 22 13 22H13.5V23.9913C13.3346 23.9971 13.1679 24 13 24C9.77275 24 7.00567 22.9199 5.04289 20.9571C3.08011 18.9943 2 16.2272 2 13C2 9.77275 3.08011 7.00567 5.04289 5.04289C7.00567 3.08011 9.77275 2 13 2C16.2272 2 18.9943 3.08011 20.9571 5.04289ZM4 13C4 13.8908 4.09494 14.7258 4.27478 15.5H7.85276C7.78464 14.7055 7.75 13.87 7.75 13C7.75 12.13 7.78464 11.2945 7.85276 10.5H4.27478C4.09494 11.2742 4 12.1092 4 13ZM4.98989 17.5C5.37897 18.2755 5.87356 18.9593 6.45711 19.5429C7.24588 20.3317 8.21782 20.9579 9.35187 21.3807C9.22435 21.1433 9.10658 20.896 8.99843 20.6415C8.61692 19.7439 8.31903 18.6865 8.11007 17.5H4.98989ZM8.11007 8.5C8.31903 7.31351 8.61692 6.2561 8.99843 5.35848C9.10658 5.10403 9.22435 4.8567 9.35187 4.61928C8.21782 5.0421 7.24588 5.66834 6.45711 6.45711C5.87356 7.04066 5.37897 7.72446 4.98989 8.5H8.11007ZM10.1445 8.5H15.8554C15.6759 7.59007 15.4405 6.79898 15.1609 6.14114C14.4692 4.5135 13.6608 4 13 4C12.3391 4 11.5308 4.5134 10.8391 6.14081C10.5595 6.79869 10.3241 7.58988 10.1445 8.5ZM17.8899 8.5H21.0101C20.621 7.72446 20.1264 7.04066 19.5429 6.45711C18.7541 5.66829 17.7821 5.04203 16.6479 4.6192C16.7755 4.85677 16.8934 5.10425 17.0016 5.35886C17.383 6.25642 17.6809 7.31371 17.8899 8.5Z" fill="#000000" class="bmwfcol"/><path d="M25.2929 11.293L22.4999 14.0859L20.9999 12.5859L20.2928 13.293C18.2544 15.3315 17.1208 17.0652 16.8412 18.6529C16.6102 19.9648 16.9789 21.0449 17.6383 21.9488C16.7687 22.8248 16.1326 23.5005 15.7188 24.1507C15.1431 25.0555 15 25.8909 15 27.0001V30.0001H17V27.0001C17 26.1092 17.1069 25.6946 17.4062 25.2245C17.7023 24.7592 18.1875 24.2368 19.0532 23.3632C19.9567 24.0217 21.0362 24.3897 22.3472 24.1588C23.9348 23.8792 25.6686 22.7457 27.707 20.7073L28.4141 20.0002L26.9141 18.5002L29.7071 15.7072L28.2929 14.293L25.4999 17.0859L23.9141 15.5002L26.7071 12.7072L25.2929 11.293ZM25.5715 19.9859C23.9892 21.4399 22.8407 22.0411 22.0003 22.1892C21.1502 22.3389 20.4613 22.0473 19.707 21.293C18.9528 20.5388 18.6612 19.8499 18.8109 18.9997C18.9589 18.1593 19.5602 17.0109 21.0142 15.4286L25.5715 19.9859Z" fill="#000000" class="bmwfcol"/><title>globe_and_plug_rg_48</title></svg>