<svg width="48" height="48" viewBox="0 0 32 32" xmlns="http://www.w3.org/2000/svg"><path d="M16.0002 28.9252C15.3184 28.9252 14.6546 28.8844 14.011 28.8042L14.6585 27.0141C15.0937 27.0545 15.5411 27.0752 16.0002 27.0752C16.9219 27.0752 17.94 26.3396 18.7713 24.3444C19.1615 23.408 19.478 22.2588 19.7014 20.9252H16.8609L17.5301 19.0752H19.9392C20.0282 18.1186 20.0752 17.0911 20.0752 16.0002C20.0752 14.9093 20.0282 13.8817 19.9392 12.9252H12.0611C12.0048 13.5306 11.9654 14.1644 11.9439 14.8248L10.0784 15.4996C10.0898 14.6061 10.1319 13.7462 10.2036 12.9252H5.26509C5.0424 13.8791 4.9252 14.9065 4.9252 16.0002C4.9252 16.4591 4.94583 16.9064 4.98624 17.3414L3.1961 17.9889C3.11598 17.3455 3.0752 16.6819 3.0752 16.0002C3.0752 12.19 4.3493 8.94294 6.64612 6.64612C8.94294 4.3493 12.19 3.0752 16.0002 3.0752C19.8104 3.0752 23.0574 4.3493 25.3543 6.64612C27.6511 8.94294 28.9252 12.19 28.9252 16.0002C28.9252 19.8104 27.6511 23.0574 25.3543 25.3543C23.0574 27.6511 19.8104 28.9252 16.0002 28.9252ZM21.5752 20.9252C21.331 22.5039 20.9621 23.8965 20.479 25.056C20.2523 25.6001 19.9913 26.1113 19.6955 26.5727C21.4264 26.0679 22.8924 25.1999 24.0461 24.0461C24.9158 23.1765 25.6231 22.1294 26.1349 20.9252H21.5752ZM26.7353 19.0752C26.958 18.1213 27.0752 17.0939 27.0752 16.0002C27.0752 14.9065 26.958 13.8791 26.7353 12.9252H21.7967C21.8817 13.8986 21.9252 14.9265 21.9252 16.0002C21.9252 17.0739 21.8817 18.1018 21.7967 19.0752H26.7353ZM10.4251 11.0752C10.6693 9.4962 11.0382 8.10347 11.5214 6.94398C11.748 6.40003 12.009 5.88899 12.3047 5.42774C10.5739 5.93252 9.10795 6.80058 7.95427 7.95427C7.08462 8.82392 6.37727 9.871 5.86547 11.0752H10.4251ZM19.7014 11.0752C19.478 9.74163 19.1615 8.59243 18.7713 7.65596C17.94 5.66079 16.9219 4.9252 16.0002 4.9252C15.0784 4.9252 14.0603 5.66063 13.229 7.65556C12.8388 8.59205 12.5223 9.74138 12.2989 11.0752H19.7014ZM21.5752 11.0752H26.1349C25.6231 9.871 24.9158 8.82392 24.0461 7.95427C22.8924 6.80053 21.4264 5.93244 19.6955 5.42767C19.9913 5.88908 20.2523 6.4003 20.479 6.94443C20.9621 8.10386 21.331 9.49646 21.5752 11.0752Z" fill="#000000" class="bmwfcol"/><path d="M16.1566 16.9922L15.0076 15.8433L2.5 20.3673V22.2636L8.18559 23.8143L9.7362 29.4998H11.6326L16.1566 16.9922ZM9.81441 22.1854L6.13083 21.1808L13.4757 18.5242L10.819 25.869L9.81441 22.1854Z" fill="#000000" class="bmwfcol"/><title>globe_and_navigation_arrow_rg_48</title></svg>