<svg width="48" height="48" viewBox="0 0 32 32" xmlns="http://www.w3.org/2000/svg"><path d="M31 5L29 7H26.4142L16.4142 17L15 16.9999V15.5858L25 5.58582V3L27 1V3.58582L28.293 2.29285L29.7072 3.70706L28.4142 5H31Z" fill="#000000" class="bmwfcol"/><path d="M23.1568 4.84317C21.1467 3.64381 18.7142 3 16 3C12.1728 3 8.90567 4.28011 6.59289 6.59289C4.28011 8.90567 3 12.1728 3 16C3 19.8272 4.28011 23.0943 6.59289 25.4071C8.90567 27.7199 12.1728 29 16 29C19.8272 29 23.0943 27.7199 25.4071 25.4071C27.7199 23.0943 29 19.8272 29 16C29 13.2858 28.3562 10.8533 27.1568 8.84317L25.6885 10.3115C26.531 11.9025 27 13.8173 27 16C27 19.3728 25.8801 22.1057 23.9929 23.9929C22.1057 25.8801 19.3728 27 16 27C12.6272 27 9.89433 25.8801 8.00711 23.9929C6.11989 22.1057 5 19.3728 5 16C5 12.6272 6.11989 9.89433 8.00711 8.00711C9.89433 6.11989 12.6272 5 16 5C18.1827 5 20.0975 5.46903 21.6885 6.31154L23.1568 4.84317Z" fill="#000000" class="bmwfcol"/><path d="M18.5857 9.41429C17.7932 9.14117 16.9236 9 16 9C13.9728 9 12.2057 9.68011 10.9429 10.9429C9.68011 12.2057 9 13.9728 9 16C9 18.0272 9.68011 19.7943 10.9429 21.0571C12.2057 22.3199 13.9728 23 16 23C18.0272 23 19.7943 22.3199 21.0571 21.0571C22.3199 19.7943 23 18.0272 23 16C23 15.0764 22.8588 14.2068 22.5857 13.4143L20.9347 15.0653C20.9776 15.3619 21 15.6736 21 16C21 17.5728 20.4801 18.8057 19.6429 19.6429C18.8057 20.4801 17.5728 21 16 21C14.4272 21 13.1943 20.4801 12.3571 19.6429C11.5199 18.8057 11 17.5728 11 16C11 14.4272 11.5199 13.1943 12.3571 12.3571C13.1943 11.5199 14.4272 11 16 11C16.3264 11 16.6381 11.0224 16.9347 11.0653L18.5857 9.41429Z" fill="#000000" class="bmwfcol"/><title>goal_rg_48</title></svg>