<svg width="48" height="48" viewBox="0 0 32 32" xmlns="http://www.w3.org/2000/svg"><path d="M9 17V11H11V17H9Z" fill="#000000" class="bmwfcol"/><path d="M13 17V11H15V17H13Z" fill="#000000" class="bmwfcol"/><path d="M17 11V17H19V11H17Z" fill="#000000" class="bmwfcol"/><path d="M21 17V11H23V17H21Z" fill="#000000" class="bmwfcol"/><path d="M27 8H5V18H4V17H2V21H4V20H28V21H30V17H28V18H27V8ZM7 18V10H25V18H7Z" fill="#000000" class="bmwfcol"/><path d="M9.64377 22.925H8.85662C8.90148 23.1093 8.92526 23.302 8.92526 23.5002C8.92526 24.8395 7.83955 25.9252 6.50026 25.9252C5.16097 25.9252 4.07526 24.8395 4.07526 23.5002C4.07526 22.1609 5.16089 21.0753 6.50012 21.0752L12.0001 21.075C13.3394 21.075 14.4251 22.1609 14.4251 23.5002C14.4251 24.8395 13.3394 25.9252 12.0001 25.9252C10.6608 25.9252 9.57513 24.8395 9.57513 23.5002C9.57513 23.302 9.59891 23.1093 9.64377 22.925ZM6.50026 22.9252C6.18269 22.9252 5.92526 23.1826 5.92526 23.5002C5.92526 23.8178 6.18269 24.0752 6.50026 24.0752C6.81782 24.0752 7.07526 23.8178 7.07526 23.5002C7.07526 23.1826 6.81782 22.9252 6.50026 22.9252ZM12.0001 22.9252C11.6826 22.9252 11.4251 23.1826 11.4251 23.5002C11.4251 23.8178 11.6826 24.0752 12.0001 24.0752C12.3177 24.0752 12.5751 23.8178 12.5751 23.5002C12.5751 23.1826 12.3177 22.9252 12.0001 22.9252Z" fill="#000000" class="bmwfcol"/><path d="M23.1434 22.925C23.0985 23.1093 23.0748 23.302 23.0748 23.5002C23.0748 24.8395 24.1605 25.9252 25.4998 25.9252C26.8391 25.9252 27.9248 24.8395 27.9248 23.5002C27.9248 22.1609 26.839 21.075 25.4998 21.075L19.9998 21.0752C18.6605 21.0753 17.5749 22.1609 17.5749 23.5002C17.5749 24.8395 18.6606 25.9252 19.9999 25.9252C21.3392 25.9252 22.4249 24.8395 22.4249 23.5002C22.4249 23.302 22.4011 23.1093 22.3563 22.925H23.1434ZM24.9248 23.5002C24.9248 23.1826 25.1822 22.9252 25.4998 22.9252C25.8173 22.9252 26.0748 23.1826 26.0748 23.5002C26.0748 23.8178 25.8173 24.0752 25.4998 24.0752C25.1822 24.0752 24.9248 23.8178 24.9248 23.5002ZM19.9999 22.9252C20.3175 22.9252 20.5749 23.1826 20.5749 23.5002C20.5749 23.8178 20.3175 24.0752 19.9999 24.0752C19.6823 24.0752 19.4249 23.8178 19.4249 23.5002C19.4249 23.1826 19.6823 22.9252 19.9999 22.9252Z" fill="#000000" class="bmwfcol"/><title>goods_wagon_rg_48</title></svg>