<svg width="48" height="48" viewBox="0 0 32 32" xmlns="http://www.w3.org/2000/svg"><path d="M24.0001 6.21109L16.0001 1.5957L8.00012 6.21109L8.00013 7.78929L10.0001 8.94314V11.3185C10.0001 12.6758 10.7302 13.7638 11.8382 14.469C12.9207 15.1578 14.3746 15.5003 16.0001 15.5003C17.546 15.5003 18.9366 15.1905 20.0001 14.5678V11.3185C20.0001 11.8702 19.7302 12.3731 19.0882 12.7816C18.4207 13.2064 17.3746 13.5003 16.0001 13.5003C14.6257 13.5003 13.5796 13.2064 12.912 12.7816C12.27 12.3731 12.0001 11.8702 12.0001 11.3185V10.097L16.0001 12.4047L22.0001 8.94314V14.0002H24.0001L24.0001 6.21109ZM16.0001 10.0957L10.6346 7.00019L16.0001 3.90468L21.3657 7.00019L16.0001 10.0957Z" fill="#000000" class="bmwfcol"/><path d="M29.7074 16.2931C29.3997 15.9855 28.9704 15.6302 28.3684 15.4034C27.7594 15.174 27.0435 15.1021 26.1993 15.253C24.7373 15.5142 22.8562 16.4495 20.3113 18.4573C19.9403 18.1459 19.4743 18.0003 19.0002 18.0003L14.1321 18.0003L10.4 17.0003L10.1896 17.0002C9.61222 16.9994 9.03833 16.9986 8.38671 17.3973C8.09329 17.5769 7.80632 17.8211 7.49357 18.1133C7.18005 18.4062 6.79521 18.791 6.30681 19.2794L1.58594 24.0003L7.58594 30.0003H9.41436L11.4144 28.0003H15.0288C16.0044 28.0003 16.7764 28.0003 17.3965 27.9676C18.0256 27.9345 18.5666 27.8656 19.0665 27.699C20.044 27.3731 20.7036 26.7126 21.5891 25.8259L30.4147 17.0002L29.7074 16.2931ZM13.8688 20.0003L19.0001 20.0003L19.0002 20.5779C18.2151 21.3186 17.6686 21.6401 17.184 21.8016C16.6158 21.991 16.0358 22.0003 15.0004 22.0003H11.0002V24.0003L15.0818 24.0003C16.0168 24.0005 16.9111 24.0008 17.8165 23.6989C18.7738 23.3798 19.6534 22.7613 20.7073 21.7074L21.0001 21.4146L21.0003 20.47C23.7543 18.2113 25.4854 17.4122 26.5511 17.2218C26.9036 17.1588 27.1749 17.1639 27.3861 17.2004L20.2933 24.2932C19.2397 25.3468 18.9136 25.6418 18.4341 25.8016C18.1839 25.885 17.8499 25.941 17.2914 25.9704C16.73 25.9999 16.0109 26.0003 15.0002 26.0003H10.5859L8.58594 28.0003H8.41436L4.41436 24.0003L7.70726 20.7074C8.21232 20.2023 8.57319 19.8416 8.85887 19.5748C9.14825 19.3044 9.31554 19.1737 9.43065 19.1032C9.55695 19.0259 9.5985 19.0034 10.1379 19.0006L13.8688 20.0003Z" fill="#000000" class="bmwfcol"/><title>graduation_cap_on_hand_rg_48</title></svg>