<svg width="48" height="48" viewBox="0 0 32 32" xmlns="http://www.w3.org/2000/svg"><path d="M3 16C3 8.8203 8.8203 3 16 3C23.1797 3 29 8.8203 29 16C29 23.1797 23.1797 29 16 29C8.8203 29 3 23.1797 3 16ZM15 5.04484C9.3935 5.55007 5 10.262 5 16C5 17.6473 5.36211 19.2101 6.01108 20.613L15 15.4233V5.04484ZM17 5.04484V14.2686L24.9879 9.65672C23.1768 7.09523 20.2983 5.34207 17 5.04484ZM16 27C22.0751 27 27 22.0751 27 16C27 14.353 26.6381 12.7906 25.9894 11.3879L7.01269 22.3441C9.00469 25.1609 12.2876 27 16 27Z" fill="#000000" class="bmwfcol"/><title>graph-pie_rg_48</title></svg>