<svg width="48" height="48" viewBox="0 0 32 32" xmlns="http://www.w3.org/2000/svg"><path d="M6 4V13.8786C7.52743 13.4842 8.48634 12.164 9.67611 10.4334L9.75984 10.3115C11.0667 8.40844 12.7205 6 16 6C19.2795 6 20.9333 8.40844 22.2402 10.3115L22.3239 10.4334C23.7536 12.513 24.8499 14 27 14H28V16H27C23.7203 16 22.0664 13.5914 20.7595 11.6883L20.6758 11.5665C19.2461 9.4869 18.1499 8 16 8C13.8501 8 12.7539 9.4869 11.3242 11.5665L11.2405 11.6883C10.0737 13.3874 8.63019 15.4895 6 15.9206V26H9L9 19H11L11 26H15L15 15H17L17 26H21V19H23V26H28V28H6C5.48408 28 4.95856 27.8378 4.56039 27.4396C4.16222 27.0414 4 26.5159 4 26V4H6Z" fill="#000000" class="bmwfcol"/><title>graph-normal-distribution_rg_48</title></svg>