<svg width="48" height="48" viewBox="0 0 32 32" xmlns="http://www.w3.org/2000/svg"><path d="M17.5176 18H15.447L15.7502 16.8684V10.7459L16.3717 10.4917C17.1674 10.1662 18.0538 10 19 10C19.9463 10 20.8326 10.1662 21.6284 10.4917L22.2498 10.7459V16.8684L23 19.6682V21H21.5V27H19.5V19H20.7504L20.2498 17.1317V12.1427C19.869 12.0502 19.4517 12 19 12C18.5483 12 18.1311 12.0502 17.7502 12.1427V17.1317L17.5176 18Z" fill="#000000" class="bmwfcol"/><path d="M17.2054 5.20539C17.6807 4.73011 18.3228 4.5 19 4.5C19.6773 4.5 20.3193 4.73011 20.7946 5.20539C21.2699 5.68067 21.5 6.32275 21.5 7C21.5 7.67725 21.2699 8.31933 20.7946 8.79461C20.3193 9.26989 19.6773 9.5 19 9.5C18.3228 9.5 17.6807 9.26989 17.2054 8.79461C16.7301 8.31933 16.5 7.67725 16.5 7C16.5 6.32275 16.7301 5.68067 17.2054 5.20539ZM18.6196 6.61961C18.5699 6.66933 18.5 6.77725 18.5 7C18.5 7.22275 18.5699 7.33067 18.6196 7.38039C18.6693 7.43011 18.7773 7.5 19 7.5C19.2228 7.5 19.3307 7.43011 19.3804 7.38039C19.4301 7.33067 19.5 7.22275 19.5 7C19.5 6.77725 19.4301 6.66933 19.3804 6.61961C19.3307 6.56989 19.2228 6.5 19 6.5C18.7773 6.5 18.6693 6.56989 18.6196 6.61961Z" fill="#000000" class="bmwfcol"/><path d="M22.5 22V27H24.5V22H22.5Z" fill="#000000" class="bmwfcol"/><path d="M23.5 12.211V10.1493C23.9783 10.0502 24.48 10 25 10C26.3246 10 27.5312 10.3261 28.5321 10.955L29 11.249V19.5H27.5V27H25.5V17.5H27V12.3981C26.4381 12.1453 25.7688 12 25 12C24.4477 12 23.9467 12.075 23.5 12.211Z" fill="#000000" class="bmwfcol"/><path d="M23.2054 5.20539C23.6807 4.73011 24.3228 4.5 25 4.5C25.6772 4.5 26.3193 4.73011 26.7946 5.20539C27.2699 5.68067 27.5 6.32275 27.5 7C27.5 7.67725 27.2699 8.31933 26.7946 8.79461C26.3193 9.26989 25.6772 9.5 25 9.5C24.3228 9.5 23.6807 9.26989 23.2054 8.79461C22.7301 8.31933 22.5 7.67725 22.5 7C22.5 6.32275 22.7301 5.68067 23.2054 5.20539ZM24.6196 6.61961C24.5699 6.66933 24.5 6.77725 24.5 7C24.5 7.22275 24.5699 7.33067 24.6196 7.38039C24.6693 7.43011 24.7772 7.5 25 7.5C25.2228 7.5 25.3307 7.43011 25.3804 7.38039C25.4301 7.33067 25.5 7.22275 25.5 7C25.5 6.77725 25.4301 6.66933 25.3804 6.61961C25.3307 6.56989 25.2228 6.5 25 6.5C24.7772 6.5 24.6693 6.56989 24.6196 6.61961Z" fill="#000000" class="bmwfcol"/><path d="M11 6.5C10.3228 6.5 9.68067 6.73011 9.20539 7.20539C8.73011 7.68067 8.5 8.32275 8.5 9C8.5 9.67725 8.73011 10.3193 9.20539 10.7946C9.68067 11.2699 10.3228 11.5 11 11.5C11.6772 11.5 12.3193 11.2699 12.7946 10.7946C13.2699 10.3193 13.5 9.67725 13.5 9C13.5 8.32275 13.2699 7.68067 12.7946 7.20539C12.3193 6.73011 11.6772 6.5 11 6.5ZM10.5 9C10.5 8.77725 10.5699 8.66933 10.6196 8.61961C10.6693 8.56989 10.7772 8.5 11 8.5C11.2228 8.5 11.3307 8.56989 11.3804 8.61961C11.4301 8.66933 11.5 8.77725 11.5 9C11.5 9.22275 11.4301 9.33067 11.3804 9.38039C11.3307 9.43011 11.2228 9.5 11 9.5C10.7772 9.5 10.6693 9.43011 10.6196 9.38039C10.5699 9.33067 10.5 9.22275 10.5 9Z" fill="#000000" class="bmwfcol"/><path d="M8.5 26.75C10.8472 26.75 12.75 24.8472 12.75 22.5H14.75C14.75 25.9518 11.9518 28.75 8.5 28.75C5.04822 28.75 2.25 25.9518 2.25 22.5C2.25 19.8414 3.90997 17.5705 6.25 16.6672V18.8938C5.04892 19.6447 4.25 20.9791 4.25 22.5C4.25 24.8472 6.15279 26.75 8.5 26.75Z" fill="#000000" class="bmwfcol"/><path d="M18.643 27H16.5724L15.2327 22L10.4822 22L10.2502 21.866C9.68576 21.5402 9.22808 21.2638 8.86989 21.0091C8.51265 20.7552 8.1978 20.4841 7.96322 20.1504C7.4955 19.4851 7.49778 18.7567 7.49977 18.1216L7.50003 18V12.496L8.12139 12.2418C8.91723 11.9162 9.80369 11.75 10.75 11.75C11.6964 11.75 12.5828 11.9162 13.3787 12.2418L14 12.496V20L16.7674 20L18.643 27ZM9.50003 18C9.50003 18.8374 9.5347 18.9082 9.59938 19.0002C9.64607 19.0666 9.75312 19.1831 10.0287 19.3791C10.264 19.5464 10.5811 19.7435 11.0196 20L12 20V13.8927C11.6191 13.8003 11.2018 13.75 10.75 13.75C10.2982 13.75 9.88093 13.8003 9.50003 13.8927V18Z" fill="#000000" class="bmwfcol"/><title>group_of_people_and_wheelchair_rg_48</title></svg>