<svg width="48" height="48" viewBox="0 0 32 32" xmlns="http://www.w3.org/2000/svg"><path d="M6.75037 15H8.75037V11.1427C9.13121 11.0502 9.54844 11 10.0001 11C10.4518 11 10.8691 11.0502 11.2499 11.1427V15H13.2499V9.74586L12.6285 9.49168C11.8327 9.16617 10.9464 9 10.0001 9C9.05391 9 8.16755 9.16617 7.37177 9.49168L6.75037 9.74586V15Z" fill="#000000" class="bmwfcol"/><path d="M18.0001 15H20.0001V11.249L19.5322 10.955C18.5314 10.3261 17.3248 10 16.0001 10C15.4802 10 14.9784 10.0502 14.5001 10.1493V12.211C14.9468 12.075 15.4478 12 16.0001 12C16.7689 12 17.4382 12.1453 18.0001 12.3981V15Z" fill="#000000" class="bmwfcol"/><path d="M21.0001 10.0891V8.06466C21.3247 8.02166 21.6585 8 22.0001 8C22.9464 8 23.8327 8.16617 24.6285 8.49168L25.2499 8.74586V14H23.2499V10.1427C22.8691 10.0502 22.4518 10 22.0001 10C21.6452 10 21.3116 10.031 21.0001 10.0891Z" fill="#000000" class="bmwfcol"/><path d="M20.2055 3.20539C20.6808 2.73011 21.3229 2.5 22.0001 2.5C22.6774 2.5 23.3195 2.73011 23.7948 3.20539C24.27 3.68067 24.5001 4.32275 24.5001 5C24.5001 5.67725 24.27 6.31933 23.7948 6.79461C23.3195 7.26989 22.6774 7.5 22.0001 7.5C21.3229 7.5 20.6808 7.26989 20.2055 6.79461C19.7303 6.31933 19.5001 5.67725 19.5001 5C19.5001 4.32275 19.7303 3.68067 20.2055 3.20539ZM21.6198 4.61961C21.57 4.66933 21.5001 4.77725 21.5001 5C21.5001 5.22275 21.57 5.33067 21.6198 5.38039C21.6695 5.43011 21.7774 5.5 22.0001 5.5C22.2229 5.5 22.3308 5.43011 22.3805 5.38039C22.4303 5.33067 22.5001 5.22275 22.5001 5C22.5001 4.77725 22.4303 4.66933 22.3805 4.61961C22.3308 4.56989 22.2229 4.5 22.0001 4.5C21.7774 4.5 21.6695 4.56989 21.6198 4.61961Z" fill="#000000" class="bmwfcol"/><path d="M14.2055 5.20539C14.6808 4.73011 15.3229 4.5 16.0001 4.5C16.6774 4.5 17.3195 4.73011 17.7948 5.20539C18.27 5.68067 18.5001 6.32275 18.5001 7C18.5001 7.67725 18.27 8.31933 17.7948 8.79461C17.3195 9.26989 16.6774 9.5 16.0001 9.5C15.3229 9.5 14.6808 9.26989 14.2055 8.79461C13.7303 8.31933 13.5001 7.67725 13.5001 7C13.5001 6.32275 13.7303 5.68067 14.2055 5.20539ZM15.6198 6.61961C15.57 6.66933 15.5001 6.77725 15.5001 7C15.5001 7.22275 15.57 7.33067 15.6198 7.38039C15.6695 7.43011 15.7774 7.5 16.0001 7.5C16.2229 7.5 16.3308 7.43011 16.3805 7.38039C16.4303 7.33067 16.5001 7.22275 16.5001 7C16.5001 6.77725 16.4303 6.66933 16.3805 6.61961C16.3308 6.56989 16.2229 6.5 16.0001 6.5C15.7774 6.5 15.6695 6.56989 15.6198 6.61961Z" fill="#000000" class="bmwfcol"/><path d="M8.20554 4.20539C8.68082 3.73011 9.3229 3.5 10.0001 3.5C10.6774 3.5 11.3195 3.73011 11.7948 4.20539C12.27 4.68067 12.5001 5.32275 12.5001 6C12.5001 6.67725 12.27 7.31933 11.7948 7.79461C11.3195 8.26989 10.6774 8.5 10.0001 8.5C9.3229 8.5 8.68082 8.26989 8.20554 7.79461C7.73026 7.31933 7.50014 6.67725 7.50014 6C7.50014 5.32275 7.73026 4.68067 8.20554 4.20539ZM9.61975 5.61961C9.57003 5.66933 9.50014 5.77725 9.50014 6C9.50014 6.22275 9.57003 6.33067 9.61975 6.38039C9.66947 6.43011 9.77739 6.5 10.0001 6.5C10.2229 6.5 10.3308 6.43011 10.3805 6.38039C10.4303 6.33067 10.5001 6.22275 10.5001 6C10.5001 5.77725 10.4303 5.66933 10.3805 5.61961C10.3308 5.56989 10.2229 5.5 10.0001 5.5C9.77739 5.5 9.66947 5.56989 9.61975 5.61961Z" fill="#000000" class="bmwfcol"/><path d="M29.7074 16.2928C29.3997 15.9852 28.9704 15.6299 28.3684 15.4031C27.7594 15.1737 27.0435 15.1019 26.1993 15.2527C24.7373 15.514 22.8562 16.4492 20.3113 18.457C19.9403 18.1457 19.4743 18 19.0002 18L14.1321 18L10.4 17L10.1896 17C9.61222 16.9991 9.03833 16.9983 8.38671 17.3971C8.09329 17.5766 7.80632 17.8209 7.49357 18.113C7.18004 18.4059 6.79517 18.7908 6.30674 19.2792L1.58594 24L7.58594 30H9.41436L11.4144 28H15.0288C16.0044 28 16.7764 28 17.3965 27.9674C18.0256 27.9343 18.5666 27.8653 19.0665 27.6987C20.044 27.3729 20.7036 26.7124 21.5891 25.8256L30.4147 16.9999L29.7074 16.2928ZM13.8688 20L19.0001 20L19.0002 20.5777C18.2151 21.3184 17.6686 21.6398 17.184 21.8014C16.6158 21.9908 16.0358 22 15.0004 22H11.0002V24L15.0818 24C16.0168 24.0003 16.9111 24.0005 17.8165 23.6987C18.7738 23.3796 19.6534 22.761 20.7073 21.7071L21.0001 21.4143L21.0003 20.4698C23.7543 18.211 25.4854 17.412 26.5511 17.2215C26.9036 17.1585 27.1749 17.1637 27.3861 17.2001L20.2933 24.2929C19.2397 25.3465 18.9136 25.6415 18.4341 25.8013C18.1839 25.8847 17.8499 25.9408 17.2914 25.9702C16.73 25.9997 16.0109 26 15.0002 26H10.5859L8.58594 28H8.41436L4.41436 24L7.70726 20.7071C8.21232 20.2021 8.57319 19.8414 8.85887 19.5745C9.14825 19.3042 9.31554 19.1734 9.43065 19.103C9.55695 19.0257 9.5985 19.0031 10.1379 19.0003L13.8688 20Z" fill="#000000" class="bmwfcol"/><title>group_on_hand_rg_48</title></svg>