<svg width="48" height="48" viewBox="0 0 32 32" xmlns="http://www.w3.org/2000/svg"><path d="M16.5 22V27H18.5V22H16.5Z" fill="#000000" class="bmwfcol"/><path d="M18 11.0891V9.06466C18.3246 9.02166 18.6584 9 19 9C19.9462 9 20.8326 9.16617 21.6284 9.49168L22.2498 9.74586V16.8684L23 19.6682V21H21.5V27H19.5V19H20.7504L20.2498 17.1317V11.1427C19.8689 11.0502 19.4517 11 19 11C18.6451 11 18.3114 11.031 18 11.0891Z" fill="#000000" class="bmwfcol"/><path d="M17.2054 4.20539C17.6807 3.73011 18.3228 3.5 19 3.5C19.6772 3.5 20.3193 3.73011 20.7946 4.20539C21.2699 4.68067 21.5 5.32275 21.5 6C21.5 6.67725 21.2699 7.31933 20.7946 7.79461C20.3193 8.26989 19.6772 8.5 19 8.5C18.3228 8.5 17.6807 8.26989 17.2054 7.79461C16.7301 7.31933 16.5 6.67725 16.5 6C16.5 5.32275 16.7301 4.68067 17.2054 4.20539ZM18.6196 5.61961C18.5699 5.66933 18.5 5.77725 18.5 6C18.5 6.22275 18.5699 6.33067 18.6196 6.38039C18.6693 6.43011 18.7772 6.5 19 6.5C19.2228 6.5 19.3307 6.43011 19.3804 6.38039C19.4301 6.33067 19.5 6.22275 19.5 6C19.5 5.77725 19.4301 5.66933 19.3804 5.61961C19.3307 5.56989 19.2228 5.5 19 5.5C18.7772 5.5 18.6693 5.56989 18.6196 5.61961Z" fill="#000000" class="bmwfcol"/><path d="M22.5 22V27H24.5V22H22.5Z" fill="#000000" class="bmwfcol"/><path d="M23.5 12.211V10.1493C23.9783 10.0502 24.48 10 25 10C26.3246 10 27.5312 10.3261 28.5321 10.955L29 11.249V19.5H27.5V27H25.5V17.5H27V12.3981C26.4381 12.1453 25.7688 12 25 12C24.4477 12 23.9467 12.075 23.5 12.211Z" fill="#000000" class="bmwfcol"/><path d="M23.2054 5.20539C23.6807 4.73011 24.3228 4.5 25 4.5C25.6772 4.5 26.3193 4.73011 26.7946 5.20539C27.2699 5.68067 27.5 6.32275 27.5 7C27.5 7.67725 27.2699 8.31933 26.7946 8.79461C26.3193 9.26989 25.6772 9.5 25 9.5C24.3228 9.5 23.6807 9.26989 23.2054 8.79461C22.7301 8.31933 22.5 7.67725 22.5 7C22.5 6.32275 22.7301 5.68067 23.2054 5.20539ZM24.6196 6.61961C24.5699 6.66933 24.5 6.77725 24.5 7C24.5 7.22275 24.5699 7.33067 24.6196 7.38039C24.6693 7.43011 24.7772 7.5 25 7.5C25.2228 7.5 25.3307 7.43011 25.3804 7.38039C25.4301 7.33067 25.5 7.22275 25.5 7C25.5 6.77725 25.4301 6.66933 25.3804 6.61961C25.3307 6.56989 25.2228 6.5 25 6.5C24.7772 6.5 24.6693 6.56989 24.6196 6.61961Z" fill="#000000" class="bmwfcol"/><path d="M10.5 27V22H12.5V27H10.5Z" fill="#000000" class="bmwfcol"/><path d="M11.5 11.1493V13.211C11.9467 13.075 12.4477 13 13 13C13.7688 13 14.4381 13.1453 15 13.3981V17.5H13.5L13.5 27H15.5L15.5 19.5H17V12.249L16.5321 11.955C15.5312 11.3261 14.3246 11 13 11C12.48 11 11.9783 11.0502 11.5 11.1493Z" fill="#000000" class="bmwfcol"/><path d="M13 5.5C12.3228 5.5 11.6807 5.73011 11.2054 6.20539C10.7301 6.68067 10.5 7.32275 10.5 8C10.5 8.67725 10.7301 9.31933 11.2054 9.79461C11.6807 10.2699 12.3228 10.5 13 10.5C13.6772 10.5 14.3193 10.2699 14.7946 9.79461C15.2699 9.31933 15.5 8.67725 15.5 8C15.5 7.32275 15.2699 6.68067 14.7946 6.20539C14.3193 5.73011 13.6772 5.5 13 5.5ZM12.5 8C12.5 7.77725 12.5699 7.66933 12.6196 7.61961C12.6693 7.56989 12.7772 7.5 13 7.5C13.2228 7.5 13.3307 7.56989 13.3804 7.61961C13.4301 7.66933 13.5 7.77725 13.5 8C13.5 8.22275 13.4301 8.33067 13.3804 8.38039C13.3307 8.43011 13.2228 8.5 13 8.5C12.7772 8.5 12.6693 8.43011 12.6196 8.38039C12.5699 8.33067 12.5 8.22275 12.5 8Z" fill="#000000" class="bmwfcol"/><path d="M5.75022 12.1427V17.1317L5.2496 19H6.5V27H4.5V21H3V19.6682L3.75022 16.8684V10.7459L4.37163 10.4917C5.1674 10.1662 6.05377 10 7 10C7.94623 10 8.8326 10.1662 9.62837 10.4917L10.2498 10.7459V16.8684L11 19.6682V21H9.5V27H7.5V19H8.7504L8.24978 17.1317V12.1427C7.86894 12.0502 7.4517 12 7 12C6.5483 12 6.13106 12.0502 5.75022 12.1427Z" fill="#000000" class="bmwfcol"/><path d="M7 4.5C6.32275 4.5 5.68067 4.73011 5.20539 5.20539C4.73011 5.68067 4.5 6.32275 4.5 7C4.5 7.67725 4.73011 8.31933 5.20539 8.79461C5.68067 9.26989 6.32275 9.5 7 9.5C7.67725 9.5 8.31933 9.26989 8.79461 8.79461C9.26989 8.31933 9.5 7.67725 9.5 7C9.5 6.32275 9.26989 5.68067 8.79461 5.20539C8.31933 4.73011 7.67725 4.5 7 4.5ZM6.5 7C6.5 6.77725 6.56989 6.66933 6.61961 6.61961C6.66933 6.56989 6.77725 6.5 7 6.5C7.22275 6.5 7.33067 6.56989 7.38039 6.61961C7.43011 6.66933 7.5 6.77725 7.5 7C7.5 7.22275 7.43011 7.33067 7.38039 7.38039C7.33067 7.43011 7.22275 7.5 7 7.5C6.77725 7.5 6.66933 7.43011 6.61961 7.38039C6.56989 7.33067 6.5 7.22275 6.5 7Z" fill="#000000" class="bmwfcol"/><title>group_of_diverse_people_rg_48</title></svg>