<svg width="48" height="48" viewBox="0 0 32 32" xmlns="http://www.w3.org/2000/svg"><path d="M12.484 24.8376C12.509 24.8944 12.5343 24.9505 12.5599 25.0059C13.5377 27.1244 14.7707 28 16.002 28C17.2332 28 18.4662 27.1244 19.444 25.0059C19.7479 24.3474 20.0146 23.5909 20.2374 22.7449C18.9203 22.9134 17.501 23 16 23C12.0157 23 8.6079 22.3896 6.15594 21.258C3.72443 20.1357 2 18.3688 2 16C2 13.6312 3.72443 11.8643 6.15594 10.742C6.56647 10.5526 7.00379 10.3777 7.46613 10.2179C7.33861 10.9466 7.23747 11.7026 7.16245 12.482C7.10563 12.5071 7.0495 12.5324 6.99406 12.558C4.87557 13.5357 4 14.7688 4 16C4 17.2312 4.87557 18.4643 6.99406 19.442C9.0921 20.4104 12.1843 21 16 21C17.7087 21 19.2723 20.8818 20.6665 20.6642C20.8838 19.2706 21.002 17.7078 21.002 16C21.002 14.2922 20.8838 12.7294 20.6665 11.3358C19.2723 11.1182 17.7087 11 16 11C15.0925 11 14.226 11.0333 13.404 11.0972C13.542 10.3428 13.7108 9.66228 13.9033 9.05901C14.582 9.01984 15.2816 9 16 9C17.501 9 18.9203 9.08663 20.2374 9.25513C20.0146 8.40907 19.7479 7.65259 19.444 6.99406C18.4662 4.87557 17.2332 4 16.002 4C14.7707 4 13.5377 4.87557 12.5599 6.99406C11.5916 9.0921 11.002 12.1843 11.002 16C11.002 16.9075 11.0353 17.774 11.0992 18.596C10.3448 18.458 9.66423 18.2892 9.06096 18.0967C9.0218 17.418 9.00195 16.7184 9.00195 16C9.00195 12.0157 9.61232 8.6079 10.744 6.15594C11.8662 3.72443 13.6332 2 16.002 2C18.3707 2 20.1377 3.72443 21.2599 6.15594C21.7231 7.15954 22.099 8.32326 22.3814 9.6211C23.6782 9.90347 24.8411 10.2791 25.8441 10.742C28.2756 11.8643 30 13.6312 30 16C30 18.3688 28.2756 20.1357 25.8441 21.258C24.8411 21.7209 23.6782 22.0965 22.3814 22.3789C22.099 23.6767 21.7231 24.8405 21.2599 25.8441C20.1377 28.2756 18.3707 30 16.002 30C13.6332 30 11.8662 28.2756 10.744 25.8441C10.5545 25.4335 10.3797 24.9962 10.2198 24.5339C10.9485 24.6614 11.7046 24.7625 12.484 24.8376ZM22.7472 20.2348C23.5923 20.0121 24.348 19.7457 25.0059 19.442C27.1244 18.4643 28 17.2312 28 16C28 14.7688 27.1244 13.5357 25.0059 12.558C24.348 12.2543 23.5923 11.9879 22.7472 11.7652C22.9154 13.0816 23.002 14.4999 23.002 16C23.002 17.5001 22.9154 18.9184 22.7472 20.2348Z" fill="#000000" class="bmwfcol"/><path d="M16 14.5C15.1716 14.5 14.5 15.1716 14.5 16C14.5 16.8284 15.1716 17.5 16 17.5C16.8284 17.5 17.5 16.8284 17.5 16C17.5 15.1716 16.8284 14.5 16 14.5Z" fill="#000000" class="bmwfcol"/><title>gyro_rg_48</title></svg>