<svg width="48" height="48" viewBox="0 0 32 32" xmlns="http://www.w3.org/2000/svg"><path d="M9.99999 16H12V18H9.99999C9.32274 18 8.68067 17.7699 8.20539 17.2946C7.73011 16.8193 7.5 16.1772 7.5 15.5C7.5 15.3304 7.51442 15.1631 7.54351 15H7.49999C6.82275 15 6.18067 14.7699 5.70539 14.2946C5.23011 13.8193 5 13.1772 5 12.5C5 11.8228 5.23011 11.1807 5.70539 10.7054C5.95577 10.455 6.25245 10.2727 6.57617 10.1562C6.5252 9.94448 6.49999 9.72417 6.49999 9.5C6.49999 8.82275 6.7301 8.18067 7.20538 7.7054C7.68066 7.23012 8.32273 7.00001 8.99998 7.00001L14.931 7.00001C14.6101 6.57216 14.3564 6.12868 14.1817 5.67594C13.8021 4.69158 13.7932 3.6358 14.3337 2.69995L14.8337 1.83411L20.9001 5.33612C21.6261 5.75496 22.2536 6.31976 22.7504 7.00001H27V9.00001H21.6442L21.3536 8.51056C20.9916 7.90086 20.4936 7.41058 19.9007 7.06853L15.9983 4.81575C16.0128 4.86153 16.0293 4.90834 16.0477 4.95621C16.263 5.5144 16.7436 6.17676 17.5484 6.85256C17.82 7.08056 17.9301 7.365 17.9719 7.58774C18.0005 7.74047 18.0014 7.90419 18.0017 7.96939C18.0597 8.52272 18.2814 8.92824 18.584 9.19896C18.8984 9.48015 19.3666 9.67513 19.9994 9.67513V11.6751C18.9428 11.6751 17.9795 11.3415 17.2507 10.6896C16.7441 10.2365 16.3826 9.65788 16.1794 9.00001L8.99998 9.00001C8.77723 9.00001 8.66931 9.06989 8.61959 9.11961C8.56987 9.16933 8.49999 9.27725 8.49999 9.5C8.49999 9.72275 8.56987 9.83066 8.61959 9.88038C8.66931 9.9301 8.77723 9.99999 8.99998 9.99999L15 10V12H7.49999C7.27724 12 7.16932 12.0699 7.1196 12.1196C7.06989 12.1693 7 12.2772 7 12.5C7 12.7227 7.06989 12.8307 7.1196 12.8804C7.16932 12.9301 7.27724 13 7.49999 13H15V15H9.99999C9.77724 15 9.66932 15.0699 9.6196 15.1196C9.56988 15.1693 9.5 15.2772 9.5 15.5C9.5 15.7227 9.56988 15.8306 9.6196 15.8804C9.66932 15.9301 9.77724 16 9.99999 16Z" fill="#000000" class="bmwfcol"/><path d="M19 15.86V17.88C20.4623 17.6897 21.4375 17.3019 22.3711 16.9284L22.3881 16.9216C23.5774 16.4459 24.6922 16 26.9996 16V14C24.3182 14 22.9326 14.5497 21.6283 15.0715L21.6113 15.0783C20.829 15.3912 20.0788 15.6913 19 15.86Z" fill="#000000" class="bmwfcol"/><path d="M13.5 17C13.5 16.1716 14.1716 15.5 15 15.5C15.8284 15.5 16.5 16.1716 16.5 17C16.5 17.8284 15.8284 18.5 15 18.5C14.1716 18.5 13.5 17.8284 13.5 17Z" fill="#000000" class="bmwfcol"/><path d="M16.5 20C16.5 19.1716 17.1716 18.5 18 18.5C18.8284 18.5 19.5 19.1716 19.5 20C19.5 20.8284 18.8284 21.5 18 21.5C17.1716 21.5 16.5 20.8284 16.5 20Z" fill="#000000" class="bmwfcol"/><path d="M2 22H8.20647C8.56414 23.6591 9.37829 25.0753 10.5795 26.1193C11.988 27.3433 13.864 28 16 28C18.136 28 20.012 27.3433 21.4205 26.1193C22.6217 25.0753 23.4359 23.6591 23.7935 22H30V20H22.0514L21.9511 20.8877C21.7707 22.4836 21.1036 23.7449 20.1086 24.6097C19.1118 25.476 17.7211 26 16 26C14.2789 26 12.8882 25.476 11.8914 24.6097C10.8964 23.7449 10.2293 22.4836 10.0489 20.8877L9.94856 20H2V22Z" fill="#000000" class="bmwfcol"/><path d="M13.5 23C13.5 22.1716 14.1716 21.5 15 21.5C15.8284 21.5 16.5 22.1716 16.5 23C16.5 23.8284 15.8284 24.5 15 24.5C14.1716 24.5 13.5 23.8284 13.5 23Z" fill="#000000" class="bmwfcol"/><title>hand_and_seeds_rg_48</title></svg>