<svg width="48" height="48" viewBox="0 0 32 32" xmlns="http://www.w3.org/2000/svg"><path d="M10.9938 2.98039C11.644 2.33011 12.5361 2 13.5134 2C14.4906 2 15.3827 2.33011 16.033 2.98039C16.6833 3.63067 17.0134 4.52275 17.0134 5.5V9.29403C17.4709 9.09855 17.9795 9 18.5134 9C19.4907 9 20.3827 9.33011 21.033 9.98039C21.4206 10.368 21.6945 10.8415 21.8525 11.3678C22.3504 11.1233 22.916 11 23.5134 11C24.4907 11 25.3827 11.3301 26.033 11.9803C26.6833 12.6306 27.0134 13.5227 27.0134 14.5V19C27.0134 22.2272 25.9333 24.9943 23.9705 26.9571C22.0077 28.9198 19.2407 30 16.0134 30C12.0903 30 8.85526 28.1217 7.15118 25.1679L1.64746 15.634L2.51331 15.134C3.86476 14.3536 5.40774 14.3499 6.90001 14.9255C7.96306 15.3355 9.01498 16.0414 10.0134 16.9923V5.5C10.0134 4.52275 10.3435 3.63067 10.9938 2.98039ZM20.0134 15V12.5C20.0134 11.9772 19.8435 11.6193 19.6188 11.3946C19.3941 11.1699 19.0362 11 18.5134 11C17.9907 11 17.6327 11.1699 17.408 11.3946C17.1838 11.6188 17.0142 11.9756 17.0134 12.4963V14H15.0134V5.5C15.0134 4.97725 14.8435 4.61933 14.6188 4.39461C14.394 4.16989 14.0361 4 13.5134 4C12.9906 4 12.6327 4.16989 12.408 4.39461C12.1833 4.61933 12.0134 4.97725 12.0134 5.5V20.0039H10.0491C8.87492 18.6054 7.24637 17.2027 6.18028 16.7915C5.55821 16.5516 4.99055 16.4749 4.47988 16.5402L8.88344 24.1683C10.2043 26.458 12.7514 28 16.0134 28C18.7862 28 21.0191 27.0801 22.5563 25.5428C24.0935 24.0056 25.0134 21.7727 25.0134 19V14.5C25.0134 13.9772 24.8435 13.6193 24.6188 13.3946C24.3941 13.1698 24.0362 13 23.5134 13C22.9907 13 22.6327 13.1698 22.408 13.3946C22.1833 13.6193 22.0134 13.9772 22.0134 14.5V15H20.0134Z" fill="#000000" class="bmwfcol"/><title>hand-pointing-up_rg_48</title></svg>