<svg width="48" height="48" viewBox="0 0 32 32" xmlns="http://www.w3.org/2000/svg"><path d="M12.3055 12.7055C12.7808 12.2302 13.4229 12.0001 14.1001 12.0001C14.7774 12.0001 15.4195 12.2302 15.8947 12.7055C16.37 13.1807 16.6001 13.8228 16.6001 14.5001V16.5436C16.7632 16.5145 16.9306 16.5 17.1001 16.5C17.7774 16.5 18.4195 16.7302 18.8947 17.2054C19.0561 17.3668 19.1892 17.5473 19.2946 17.7419C19.5512 17.6637 19.8227 17.625 20.1001 17.625C20.7774 17.625 21.4195 17.8552 21.8947 18.3304C22.37 18.8057 22.6001 19.4478 22.6001 20.125V22.75C22.6001 24.7772 21.92 26.5443 20.6572 27.8071C19.3945 29.0699 17.6274 29.75 15.6001 29.75C13.1141 29.75 11.0355 28.5558 9.93639 26.6507L6.4342 20.584L7.30005 20.084C8.2359 19.5436 9.29168 19.5524 10.276 19.9321C10.7288 20.1067 11.1723 20.3605 11.6001 20.6814V14.5001C11.6001 13.8228 11.8302 13.1807 12.3055 12.7055ZM19.6001 20.125V20.35H17.6001V19C17.6001 18.7773 17.5303 18.6694 17.4805 18.6197C17.4308 18.5699 17.3229 18.5 17.1001 18.5C16.8774 18.5 16.7695 18.5699 16.7197 18.6197C16.6701 18.6693 16.6004 18.7768 16.6001 18.9986V19.75H14.6001V14.5001C14.6001 14.2773 14.5302 14.1694 14.4805 14.1197C14.4308 14.0699 14.3229 14.0001 14.1001 14.0001C13.8774 14.0001 13.7695 14.0699 13.7197 14.1197C13.67 14.1694 13.6001 14.2773 13.6001 14.5001V23.7524H11.8359L11.4547 23.3012L11.4527 23.2988C10.7769 22.4939 10.1145 22.0134 9.55632 21.7981C9.50845 21.7797 9.46163 21.7632 9.41584 21.7487L11.6685 25.6508C12.3844 26.8919 13.7752 27.75 15.6001 27.75C17.1729 27.75 18.4058 27.2301 19.243 26.3929C20.0802 25.5556 20.6001 24.3227 20.6001 22.75V20.125C20.6001 19.9023 20.5303 19.7944 20.4805 19.7446C20.4308 19.6949 20.3229 19.625 20.1001 19.625C19.8774 19.625 19.7695 19.6949 19.7197 19.7446C19.67 19.7944 19.6001 19.9023 19.6001 20.125Z" fill="#000000" class="bmwfcol"/><path d="M2.5 14C2.5 13.1716 3.17157 12.5 4 12.5C4.82843 12.5 5.5 13.1716 5.5 14C5.5 14.8285 4.82843 15.5 4 15.5C3.17157 15.5 2.5 14.8285 2.5 14Z" fill="#000000" class="bmwfcol"/><path d="M4 7.50003C3.17157 7.50003 2.5 8.1716 2.5 9.00003C2.5 9.82846 3.17157 10.5 4 10.5C4.82843 10.5 5.5 9.82846 5.5 9.00003C5.5 8.1716 4.82843 7.50003 4 7.50003Z" fill="#000000" class="bmwfcol"/><path d="M12.5 4.00003C12.5 3.1716 13.1716 2.50003 14 2.50003C14.8284 2.50003 15.5 3.1716 15.5 4.00003C15.5 4.82846 14.8284 5.50003 14 5.50003C13.1716 5.50003 12.5 4.82846 12.5 4.00003Z" fill="#000000" class="bmwfcol"/><path d="M9 2.50003C8.17157 2.50003 7.5 3.1716 7.5 4.00003C7.5 4.82846 8.17157 5.50003 9 5.50003C9.82843 5.50003 10.5 4.82846 10.5 4.00003C10.5 3.1716 9.82843 2.50003 9 2.50003Z" fill="#000000" class="bmwfcol"/><path d="M4 2.50003C3.17157 2.50003 2.5 3.1716 2.5 4.00003C2.5 4.82846 3.17157 5.50003 4 5.50003C4.82843 5.50003 5.5 4.82846 5.5 4.00003C5.5 3.1716 4.82843 2.50003 4 2.50003Z" fill="#000000" class="bmwfcol"/><path d="M7.5 9.00003C7.5 8.1716 8.17157 7.50003 9 7.50003C9.82843 7.50003 10.5 8.1716 10.5 9.00003C10.5 9.82846 9.82843 10.5 9 10.5C8.17157 10.5 7.5 9.82846 7.5 9.00003Z" fill="#000000" class="bmwfcol"/><path d="M14 7.50003C13.1716 7.50003 12.5 8.1716 12.5 9.00003C12.5 9.82846 13.1716 10.5 14 10.5C14.8284 10.5 15.5 9.82846 15.5 9.00003C15.5 8.1716 14.8284 7.50003 14 7.50003Z" fill="#000000" class="bmwfcol"/><path d="M9 12.5C8.17157 12.5 7.5 13.1716 7.5 14C7.5 14.8285 8.17157 15.5 9 15.5C9.82843 15.5 10.5 14.8285 10.5 14C10.5 13.1716 9.82843 12.5 9 12.5Z" fill="#000000" class="bmwfcol"/><path d="M19.5898 13.8756L18 12.2858V8.79706H21.3684L23.0184 10.4471H20.919C21.8825 11.3317 22.6716 11.7894 24 11.7894C25.2041 11.7894 26.1356 11.3921 26.7638 10.7639C27.0998 10.4278 27.3698 10.005 27.5482 9.50006H29.472C29.2388 10.5005 28.7649 11.3791 28.0719 12.072C27.0501 13.0938 25.6245 13.6394 24 13.6394C21.9995 13.6394 20.7405 12.8128 19.5898 11.7452V13.8756Z" fill="#000000" class="bmwfcol"/><path d="M28.4102 2.12451L30 3.71433V7.20304H26.6316L24.9816 5.55304H27.081C26.1175 4.66846 25.3284 4.21075 24 4.21075C22.7959 4.21075 21.8644 4.60807 21.2362 5.23625C20.9002 5.57229 20.6302 5.99513 20.4518 6.50006H18.528C18.7612 5.49965 19.2351 4.62103 19.9281 3.9281C20.9499 2.90628 22.3755 2.36075 24 2.36075C26.0005 2.36075 27.2595 3.18728 28.4102 4.25492V2.12451Z" fill="#000000" class="bmwfcol"/><title>hand_on_keypad_with_arrows_rg_48</title></svg>