<svg width="48" height="48" viewBox="0 0 32 32" xmlns="http://www.w3.org/2000/svg"><path d="M10.9811 4.97991C10.6769 5.28408 10.4428 5.64116 10.2797 6.03511L12.0007 7.75607V7.49951C12.0007 6.97676 12.1706 6.61884 12.3953 6.39412C12.62 6.1694 12.9779 5.99951 13.5007 5.99951C14.0235 5.99951 14.3814 6.1694 14.6061 6.39412C14.8308 6.61884 15.0007 6.97676 15.0007 7.49951L15.0007 10.7561L17.0007 12.7561V5.49951C17.0007 4.97676 17.1706 4.61884 17.3953 4.39412C17.6201 4.1694 17.978 3.99951 18.5007 3.99951C19.0235 3.99951 19.3814 4.1694 19.6061 4.39412C19.8308 4.61884 20.0007 4.97676 20.0007 5.49951V15.7561L20.2441 15.9995H22.0007V9.49946C22.0007 8.97671 22.1706 8.61879 22.3953 8.39407C22.6201 8.16935 22.978 7.99946 23.5007 7.99946C24.0235 7.99946 24.3814 8.16935 24.6061 8.39407C24.8308 8.61879 25.0007 8.97671 25.0007 9.49946V18.9995C25.0007 19.5702 24.9618 20.1181 24.8864 20.6418L26.5784 22.3337C26.8567 21.2948 27.0007 20.1778 27.0007 18.9995V9.49946C27.0007 8.52221 26.6706 7.63013 26.0203 6.97986C25.3701 6.32958 24.478 5.99946 23.5007 5.99946C22.9668 5.99946 22.4583 6.09801 22.0007 6.29348V5.49951C22.0007 4.52226 21.6706 3.63019 21.0203 2.97991C20.3701 2.32963 19.478 1.99951 18.5007 1.99951C17.5235 1.99951 16.6314 2.32963 15.9811 2.9799C15.5935 3.36753 15.3196 3.84106 15.1616 4.36734C14.6637 4.12288 14.0981 3.99951 13.5007 3.99951C12.5235 3.99951 11.6314 4.32963 10.9811 4.97991Z" fill="#000000" class="bmwfcol"/><path d="M16.0007 27.9995C18.4011 27.9995 20.3969 27.3101 21.887 26.1276L23.3087 27.5493C21.4048 29.1357 18.8868 29.9995 16.0007 29.9995C12.0776 29.9995 8.84257 28.1212 7.13849 25.1674L1.63477 15.6335L2.50061 15.1335C3.85206 14.3531 5.39504 14.3494 6.88731 14.925C7.95037 15.335 9.00229 16.0409 10.0007 16.9918V14.2414L12.0007 16.2414V20.0034H10.0365L9.60087 19.4879L9.59885 19.4855C8.42464 18.087 7.23368 17.2022 6.16758 16.791C5.54551 16.5511 4.97786 16.4744 4.46719 16.5397L8.87059 24.1675C10.1915 26.4573 12.7387 27.9995 16.0007 27.9995Z" fill="#000000" class="bmwfcol"/><path d="M4.41632 2.99951L30.4163 28.9995H27.5879L1.58789 2.99951H4.41632Z" fill="#000000" class="bmwfcol"/><title>hand_crossed_out_rg_48</title></svg>