<svg width="48" height="48" viewBox="0 0 32 32" xmlns="http://www.w3.org/2000/svg"><path d="M22.7639 7L19.7639 10H22.2388L26.2387 6.00013L22.2385 2H19.7637L22.7637 5L18.501 5V7L22.7639 7Z" fill="#000000" class="bmwfcol"/><path d="M11.8442 5.84289C12.407 5.28011 13.1741 5 14.0013 5C14.8285 5 15.5956 5.28011 16.1584 5.84289C16.7212 6.40567 17.0013 7.17275 17.0013 8V11.1485C17.3169 11.0494 17.6538 11 18.0013 11C18.8286 11 19.5957 11.2801 20.1584 11.8429C20.4178 12.1023 20.6171 12.405 20.7567 12.7371C21.1403 12.5789 21.5623 12.5 22.0013 12.5C22.8286 12.5 23.5957 12.7801 24.1585 13.3429C24.7212 13.9057 25.0013 14.6728 25.0013 15.5V18.9999C25.0013 21.6272 24.1212 23.8943 22.5084 25.5071C20.8957 27.1198 18.6286 28 16.0013 28C12.7967 28 10.1399 26.4637 8.73831 24.0343L4.23535 16.234L5.1012 15.734C6.24485 15.0736 7.54424 15.0761 8.78255 15.5538C9.54144 15.8465 10.288 16.3189 11.0013 16.9408V8C11.0013 7.17276 11.2814 6.40567 11.8442 5.84289ZM21.0013 15.5L21.0013 15.8H19.0013V14C19.0013 13.6272 18.8814 13.3943 18.7442 13.2571C18.607 13.1199 18.3741 13 18.0013 13C17.6286 13 17.3956 13.1199 17.2584 13.2571C17.1215 13.394 17.0019 13.6262 17.0013 13.9974V15H15.0013V8C15.0013 7.62725 14.8814 7.39433 14.7442 7.25711C14.607 7.11989 14.3741 7 14.0013 7C13.6285 7 13.3956 7.11989 13.2584 7.25711C13.1212 7.39433 13.0013 7.62725 13.0013 8V20.0031H11.1371C10.2702 18.9773 9.34924 17.916 8.06282 17.4198C7.71883 17.2871 7.4019 17.2218 7.11094 17.2149L10.4704 23.0344C11.4888 24.7998 13.4579 26 16.0013 26C18.1741 26 19.907 25.2801 21.0942 24.0928C22.2815 22.9056 23.0013 21.1727 23.0013 18.9999V15.5C23.0013 15.1273 22.8815 14.8943 22.7442 14.7571C22.607 14.6199 22.3741 14.5 22.0013 14.5C21.6286 14.5 21.3957 14.6199 21.2584 14.7571C21.1212 14.8943 21.0013 15.1273 21.0013 15.5Z" fill="#000000" class="bmwfcol"/><path d="M8.23841 10L5.23841 7H9.50098V5H5.23868L8.23868 2H5.76381L1.76367 6.00013L5.76354 10H8.23841Z" fill="#000000" class="bmwfcol"/><title>hand-swipe_rg_48</title></svg>