<svg width="48" height="48" viewBox="0 0 32 32" xmlns="http://www.w3.org/2000/svg"><path d="M17.6872 5.13006L22.4333 13.3506C22.8226 12.0279 23.3806 10.8907 24.0962 10.004C25.1008 8.75944 26.4389 7.99113 27.9995 7.99128L28.9993 7.99137L28.9999 18.9998C29.001 22.4099 27.1385 25.654 23.741 27.6156C20.9461 29.2292 18.0097 29.6774 15.3285 28.9589C12.6473 28.2405 10.3283 26.3842 8.71472 23.5893L3.96472 15.3621C3.4761 14.5158 3.31594 13.5781 3.55396 12.6898C3.79198 11.8015 4.39949 11.0696 5.24581 10.581C5.70822 10.314 6.19788 10.1451 6.69186 10.0856L6.29487 9.39803C5.80625 8.5517 5.6461 7.61408 5.88411 6.72579C6.12213 5.83749 6.72964 5.10556 7.57596 4.61694C8.42228 4.12831 9.3599 3.96816 10.2482 4.20618C10.7777 4.34806 11.2516 4.62122 11.6516 4.99799C11.9606 4.5373 12.3887 4.14768 12.9061 3.84897C13.7524 3.36035 14.6901 3.2002 15.5784 3.43821C16.4667 3.67623 17.1986 4.28374 17.6872 5.13006ZM21.6536 22.0001H19.4258C18.9345 20.7794 18.8358 19.5191 19.1534 18.3339C19.4727 17.1423 20.1943 16.0954 21.239 15.282L15.9552 6.13006C15.6938 5.67734 15.3677 5.45232 15.0607 5.37007C14.7537 5.28781 14.3588 5.31965 13.9061 5.58102C13.4534 5.8424 13.2284 6.16849 13.1461 6.47546C13.0639 6.78243 13.0957 7.17735 13.3571 7.63006L17.6121 15.0001H15.3027L10.625 6.89803C10.3636 6.44531 10.0375 6.22029 9.73056 6.13803C9.42359 6.05578 9.02868 6.08761 8.57596 6.34899C8.12324 6.61036 7.89822 6.93645 7.81597 7.24342C7.73371 7.5504 7.76555 7.94531 8.02692 8.39803L13.5706 18H11.2612L8.29485 12.8621C8.03347 12.4094 7.70739 12.1843 7.40041 12.1021C7.09344 12.0198 6.69853 12.0517 6.24581 12.313C5.79309 12.5744 5.56807 12.9005 5.48581 13.2075C5.40356 13.5145 5.4354 13.9094 5.69677 14.3621L10.4468 22.5893C11.8331 24.9906 13.7463 26.4644 15.8461 27.0271C17.946 27.5897 20.3397 27.2699 22.741 25.8836C25.566 24.2526 27.0009 21.6437 26.9999 19.0002L26.9994 10.1923C26.5246 10.3911 26.0713 10.7414 25.6525 11.2602C24.9349 12.1493 24.3459 13.5111 24.0282 15.3093C23.9592 15.6999 23.7467 15.9679 23.5424 16.1431C23.3961 16.2687 23.2177 16.3737 23.116 16.4335L22.8179 16.6107C21.8699 17.2276 21.3085 18.0185 21.0853 18.8515C20.8429 19.7561 20.9707 20.8173 21.6071 21.9195L21.6536 22.0001Z" fill="#000000" class="bmwfcol"/><path d="M8.83194 30C7.4699 28.8187 6.26064 27.3414 5.24982 25.5906C4.94528 25.0631 4.67124 24.5325 4.42762 24H6.65575C6.75953 24.1969 6.86823 24.3938 6.98187 24.5906C8.41553 27.0738 10.2519 28.8794 12.3118 30H8.83194Z" fill="#000000" class="bmwfcol"/><path d="M26.0004 4.94203C24.8178 4.1807 23.5481 3.61564 22.215 3.25844C21.4899 3.06415 20.7503 2.9325 20.0004 2.86377V4.87392C20.5776 4.93615 21.1441 5.04205 21.6974 5.19029C23.2258 5.59982 24.68 6.33973 26.0004 7.40747V4.94203Z" fill="#000000" class="bmwfcol"/><title>hand-waving_rg_48</title></svg>