<svg width="48" height="48" viewBox="0 0 32 32" xmlns="http://www.w3.org/2000/svg"><path d="M11.8432 5.84289C12.406 5.28011 13.1731 5 14.0003 5C14.8276 5 15.5947 5.28011 16.1574 5.84289C16.7202 6.40567 17.0003 7.17275 17.0003 8V11.1485C17.3159 11.0494 17.6528 11 18.0004 11C18.8276 11 19.5947 11.2801 20.1575 11.8429C20.4168 12.1023 20.6162 12.405 20.7557 12.7371C21.1393 12.5789 21.5613 12.5 22.0004 12.5C22.8276 12.5 23.5947 12.7801 24.1575 13.3429C24.7203 13.9057 25.0004 14.6728 25.0004 15.5V18.9999C25.0004 21.6272 24.1203 23.8943 22.5075 25.5071C20.8947 27.1198 18.6276 28 16.0004 28C12.7957 28 10.1389 26.4637 8.73734 24.0343L4.23438 16.234L5.10022 15.734C6.24387 15.0736 7.54326 15.0761 8.78158 15.5538C9.54047 15.8465 10.2871 16.3189 11.0003 16.9408V8C11.0003 7.17276 11.2804 6.40567 11.8432 5.84289ZM21.0004 15.5L21.0004 15.8H19.0004V14C19.0004 13.6272 18.8805 13.3943 18.7432 13.2571C18.606 13.1199 18.3731 13 18.0004 13C17.6276 13 17.3947 13.1199 17.2574 13.2571C17.1205 13.394 17.0009 13.6262 17.0003 13.9974V15H15.0003V8C15.0003 7.62725 14.8804 7.39433 14.7432 7.25711C14.606 7.11989 14.3731 7 14.0003 7C13.6276 7 13.3946 7.11989 13.2574 7.25711C13.1202 7.39433 13.0003 7.62725 13.0003 8V20.0031H11.1361C10.2655 18.9728 9.35552 17.9188 8.06185 17.4198C7.71786 17.2871 7.40092 17.2218 7.10996 17.2149L10.4694 23.0344C11.4879 24.7998 13.4569 26 16.0004 26C18.1731 26 19.906 25.2801 21.0933 24.0928C22.2805 22.9056 23.0004 21.1727 23.0004 18.9999V15.5C23.0004 15.1273 22.8805 14.8943 22.7433 14.7571C22.606 14.6199 22.3731 14.5 22.0004 14.5C21.6276 14.5 21.3947 14.6199 21.2575 14.7571C21.1202 14.8943 21.0004 15.1273 21.0004 15.5Z" fill="#000000" class="bmwfcol"/><path d="M18.8405 9.5C18.9447 9.04602 19.0005 8.54609 19.0005 8C19.0005 6.35612 18.4955 5.13052 17.6827 4.31773C16.8699 3.50495 15.6443 3 14.0005 3C12.3566 3 11.131 3.50495 10.3182 4.31773C9.5054 5.13052 9.00045 6.35612 9.00045 8C9.00045 8.98349 9.18119 9.81726 9.50045 10.5025V13.6184C9.29075 13.4582 9.09167 13.2842 8.90397 13.0965C7.64301 11.8355 7.00045 10.0611 7.00045 8C7.00045 5.93888 7.64301 4.16448 8.90397 2.90352C10.1649 1.64255 11.9393 1 14.0005 1C16.0616 1 17.836 1.64255 19.0969 2.90352C20.3579 4.16448 21.0005 5.93888 21.0005 8C21.0005 8.51942 20.9596 9.02063 20.8784 9.5H18.8405Z" fill="#000000" class="bmwfcol"/><title>hand-touch_rg_48</title></svg>