<svg width="48" height="48" viewBox="0 0 32 32" xmlns="http://www.w3.org/2000/svg"><path d="M20.8 7.19682V9.22146L17.9997 9H16.4229C15.5047 11.0132 15 13.3666 15 16C15 18.6334 15.5047 20.9868 16.4229 23H18C19.0344 23 19.9644 22.9205 20.8 22.7785V24.8032C19.9396 24.931 19.0078 25 18 25H15.1823L14.9041 24.4539C13.6612 22.0136 13 19.1556 13 16C13 12.8444 13.6612 9.98644 14.9041 7.54615L15.1823 7H18C19.0078 7 19.9396 7.06904 20.8 7.19682Z" fill="#000000" class="bmwfcol"/><path d="M26.1362 22.802C26.6528 22.4417 27.1109 22.0499 27.515 21.6366C29.3573 19.7524 30 17.4972 30 16C30 14.5028 29.3573 12.2476 27.515 10.3634C27.1109 9.95012 26.6528 9.55833 26.1362 9.19805H28.9408L27.0908 7.34805L22.7947 7.34805L22.7831 7.35964V11.5256L24.6331 13.3756V10.6024C25.2074 10.9597 25.6867 11.3542 26.085 11.7616C27.5427 13.2524 28 14.9972 28 16C28 17.0028 27.5427 18.7476 26.085 20.2384C25.6867 20.6458 25.2074 21.0403 24.6331 21.3976V18.6244L22.7831 20.4744V24.6404L22.7947 24.652H27.0908L28.9408 22.802H26.1362Z" fill="#000000" class="bmwfcol"/><path d="M2 9H12.1214C11.8977 9.64916 11.707 10.3164 11.5498 11H2V9Z" fill="#000000" class="bmwfcol"/><path d="M2 13H11.1912C11.1058 13.6547 11.0488 14.3218 11.0206 15H2V13Z" fill="#000000" class="bmwfcol"/><path d="M11.0206 17H2V19H11.1912C11.1058 18.3453 11.0488 17.6782 11.0206 17Z" fill="#000000" class="bmwfcol"/><path d="M2 21H11.5498C11.707 21.6836 11.8977 22.3508 12.1214 23H2V21Z" fill="#000000" class="bmwfcol"/><title>headlight_with_double_arrow_rg_48</title></svg>