<svg width="48" height="48" viewBox="0 0 32 32" xmlns="http://www.w3.org/2000/svg"><path d="M12.9995 24.3468C13.3218 24.2244 13.6513 24.0809 13.9995 23.9138V21.6672C12.9119 22.2522 12.1865 22.5608 11.4508 22.7396C10.5702 22.9537 9.6415 22.9919 7.99944 22.9986V17H6.99944C6.48873 17 6.14459 16.9997 5.88017 16.9857C5.61862 16.972 5.5034 16.9472 5.44084 16.9263C5.39165 16.9099 5.34879 16.8913 5.25931 16.8183L8.0384 12.0047L8.0603 11.7923C8.30854 9.38367 9.30109 7.45251 10.8145 6.12137C12.3296 4.78874 14.4327 4 16.9994 4C18.7287 4 20.248 4.3578 21.5195 5H24.9134C22.9533 3.06438 20.2031 2 16.9994 2C14.0144 2 11.4218 2.92363 9.49362 4.61961C7.61263 6.27406 6.42645 8.6089 6.09496 11.3709L2.75 17.1645L3.29258 17.7071L3.37706 17.7918C3.79337 18.21 4.20365 18.6221 4.80829 18.8237C5.12067 18.9278 5.44289 18.9655 5.77504 18.983C5.84624 18.9867 5.92102 18.9897 5.99944 18.9919V25L7.12342 25C8.76436 25.0001 9.94743 25.0002 10.9995 24.8562V30H12.9995V24.3468Z" fill="#000000" class="bmwfcol"/><path d="M25.7959 20H23.0422C22.5868 20.3815 22.0862 20.7116 21.5456 20.9869L20.9994 21.2651V30H22.9994V22.4697C24.0989 21.8225 25.0382 20.9889 25.7959 20Z" fill="#000000" class="bmwfcol"/><path d="M13.9995 7H18.9995C19.7521 7 20.455 7.23188 20.9995 7.69756C21.5439 7.23188 22.2468 7 22.9995 7H27.9995V18H22.9995C22.6267 18 22.3938 18.1199 22.2566 18.2571C22.1193 18.3943 21.9995 18.6272 21.9995 19H19.9995C19.9995 18.6272 19.8796 18.3943 19.7423 18.2571C19.6051 18.1199 19.3722 18 18.9995 18H13.9995V7ZM21.9995 16.1485C22.315 16.0494 22.6519 16 22.9995 16H25.9995V9H22.9995C22.6267 9 22.3938 9.11989 22.2566 9.25711C22.1193 9.39433 21.9995 9.62725 21.9995 10V16.1485ZM19.9995 10C19.9995 9.62725 19.8796 9.39433 19.7423 9.25711C19.6051 9.11989 19.3722 9 18.9995 9H15.9995V16H18.9995C19.347 16 19.6839 16.0494 19.9995 16.1485V10Z" fill="#000000" class="bmwfcol"/><title>head_and_book_rg_48</title></svg>