<svg width="48" height="48" viewBox="0 0 32 32" xmlns="http://www.w3.org/2000/svg"><path d="M13 24.347C13.3224 24.2246 13.6519 24.081 14 23.914V21.6674C12.9127 22.2523 12.1874 22.5608 11.4518 22.7396C10.5712 22.9537 9.64248 22.9919 8.00042 22.9986V17H7.00042C6.48971 17 6.14557 16.9997 5.88115 16.9857C5.61959 16.972 5.50438 16.9472 5.44181 16.9263C5.39263 16.9099 5.34976 16.8913 5.26029 16.8183L8.03938 12.0047L8.06128 11.7923C8.30951 9.38367 9.30206 7.45251 10.8155 6.12137C12.3306 4.78874 14.4336 4 17.0004 4C19.7732 4 22.0061 4.91989 23.5433 6.45711C25.0805 7.99433 26.0004 10.2272 26.0004 13C26.0004 16.789 24.2875 19.5909 21.5466 20.9869L21.0004 21.2651V30H23.0004V22.4697C26.1624 20.6083 28.0004 17.2051 28.0004 13C28.0004 9.77275 26.9203 7.00567 24.9575 5.04289C22.9947 3.08011 20.2277 2 17.0004 2C14.0154 2 11.4228 2.92363 9.4946 4.61961C7.6136 6.27406 6.42743 8.6089 6.09594 11.3709L2.75098 17.1645L3.29356 17.7071L3.37804 17.7918C3.79435 18.21 4.20463 18.6221 4.80927 18.8237C5.12164 18.9278 5.44387 18.9655 5.77602 18.983C5.84722 18.9867 5.922 18.9897 6.00042 18.9919V25L7.1244 25C8.76512 25.0001 9.94809 25.0002 11 24.8563V30H13V24.347Z" fill="#000000" class="bmwfcol"/><path d="M17 10.125C15.4122 10.125 14.125 11.4122 14.125 13C14.125 14.5878 15.4122 15.875 17 15.875C18.5878 15.875 19.875 14.5878 19.875 13C19.875 11.4122 18.5878 10.125 17 10.125ZM15.875 13C15.875 12.3787 16.3787 11.875 17 11.875C17.6213 11.875 18.125 12.3787 18.125 13C18.125 13.6213 17.6213 14.125 17 14.125C16.3787 14.125 15.875 13.6213 15.875 13Z" fill="#000000" class="bmwfcol"/><path d="M16.7849 6.88235L15.8001 5.70996L15.2736 5.83664C14.5255 6.01665 13.8104 6.31319 13.1545 6.71541L12.6931 6.99832L12.8262 8.52284C12.7213 8.6207 12.6198 8.72219 12.522 8.82713L10.9958 8.69336L10.713 9.15568C10.3113 9.81214 10.0155 10.5278 9.83639 11.2762L9.7105 11.8022L10.8823 12.786C10.8774 12.9293 10.8774 13.0726 10.8824 13.2158L9.70996 14.2006L9.83664 14.7271C10.0167 15.4751 10.3132 16.1903 10.7154 16.8463L10.9983 17.3076L12.5228 17.1745C12.6207 17.2794 12.7222 17.3809 12.8271 17.4788L12.6934 19.0049L13.1557 19.2877C13.8121 19.6894 14.5278 19.9852 15.2762 20.1643L15.8022 20.2902L16.786 19.1184C16.9293 19.1234 17.0726 19.1234 17.2158 19.1184L18.2006 20.2908L18.7271 20.1641C19.4752 19.9841 20.1903 19.6875 20.8463 19.2853L21.3076 19.0024L21.1745 17.4779C21.2794 17.38 21.3809 17.2785 21.4788 17.1736L23.0049 17.3073L23.2877 16.845C23.6894 16.1886 23.9852 15.473 24.1643 14.7245L24.2902 14.1985L23.1184 13.2147C23.1234 13.0715 23.1234 12.9281 23.1184 12.7849L24.2908 11.8001L24.1641 11.2736C23.9841 10.5255 23.6875 9.8104 23.2853 9.15447L23.0024 8.69308L21.4779 8.82625C21.38 8.7213 21.2785 8.61982 21.1736 8.52197L21.3073 6.99584L20.845 6.71298C20.1886 6.31133 19.473 6.01551 18.7245 5.83639L18.1985 5.7105L17.2147 6.88235C17.0715 6.87737 16.9281 6.87737 16.7849 6.88235ZM17.9655 8.70968L18.8252 7.68567C19.0444 7.76067 19.2587 7.84924 19.4669 7.95087L19.3501 9.2834L19.7181 9.57613C19.9792 9.78383 20.2159 10.0205 20.4236 10.2816L20.7162 10.6494L22.0484 10.5331C22.1503 10.7412 22.2392 10.9555 22.3145 11.1747L21.2911 12.0344L21.3439 12.5009C21.3815 12.8325 21.3815 13.1672 21.3439 13.4988L21.291 13.9655L22.3151 14.8252C22.2401 15.0444 22.1515 15.2587 22.0498 15.4669L20.7173 15.3501L20.4246 15.7181C20.2169 15.9792 19.9802 16.2159 19.7191 16.4236L19.3513 16.7162L19.4676 18.0484C19.2595 18.1503 19.0452 18.2392 18.826 18.3145L17.9664 17.291L17.4998 17.3439C17.1683 17.3815 16.8335 17.3815 16.5019 17.3439L16.0352 17.291L15.1755 18.3151C14.9563 18.24 14.742 18.1515 14.5338 18.0498L14.6506 16.7173L14.2826 16.4246C14.0215 16.2169 13.7848 15.9802 13.5771 15.7191L13.2845 15.3513L11.9523 15.4676C11.8504 15.2595 11.7615 15.0452 11.6862 14.8261L12.7097 13.9664L12.6568 13.4998C12.6192 13.1682 12.6192 12.8335 12.6568 12.5019L12.7097 12.0352L11.6857 11.1755C11.7607 10.9563 11.8492 10.742 11.9509 10.5338L13.2834 10.6506L13.5761 10.2826C13.7838 10.0215 14.0205 9.78478 14.2816 9.57711L14.6494 9.28448L14.5331 7.95228C14.7412 7.85037 14.9555 7.76151 15.1746 7.68621L16.0344 8.70967L16.5009 8.6568C16.8325 8.61922 17.1672 8.61922 17.4988 8.6568L17.9655 8.70968Z" fill="#000000" class="bmwfcol"/><title>head-with-gear_rg_48</title></svg>