<svg width="48" height="48" viewBox="0 0 32 32" xmlns="http://www.w3.org/2000/svg"><path d="M10.815 6.12131C9.30157 7.45245 8.30902 9.38361 8.06079 11.7922L8.03889 12.0047L5.2598 16.8182C5.34928 16.8912 5.39214 16.9099 5.44133 16.9263C5.50389 16.9471 5.61911 16.9719 5.88066 16.9857C6.14508 16.9996 6.48922 16.9999 6.99993 16.9999H7.99993V22.9934C9.62298 22.9703 10.5992 22.8862 11.3327 22.7375C12.1751 22.5667 12.7274 22.3064 13.6812 21.8474C14.3392 21.5071 14.9763 21.1226 15.6183 20.7538C15.7258 20.3902 15.8963 19.7877 16.0662 19.0851C16.1123 18.8944 16.1578 18.6986 16.2017 18.5H18.2468C18.1707 18.8704 18.0896 19.2267 18.0102 19.5551C17.8615 20.1701 17.713 20.7101 17.6016 21.0968C17.5051 21.4319 17.4011 21.7637 17.2953 22.0959C16.3792 22.6236 15.4828 23.1999 14.5298 23.6585C13.9924 23.9172 13.5162 24.1463 13 24.3371V30H11V24.8186C10.0232 24.9485 8.78219 24.9999 6.99993 24.9999L5.99993 24.9999V18.9919C5.92151 18.9896 5.84673 18.9867 5.77553 18.9829C5.44338 18.9654 5.12116 18.9277 4.80878 18.8236C4.20414 18.622 3.79386 18.2099 3.37755 17.7918L3.29307 17.707L2.75049 17.1645L6.09545 11.3708C6.42694 8.60883 7.61312 6.274 9.49411 4.61955C11.4223 2.92356 14.0149 1.99994 16.9999 1.99994C20.2272 1.99994 22.9943 3.08005 24.957 5.04283C26.9198 7.00561 27.9999 9.77269 27.9999 12.9999C27.9999 17.205 26.1619 20.6083 22.9999 22.4696V29.9999H20.9999V21.265L21.5461 20.9869C24.287 19.5908 25.9999 16.789 25.9999 12.9999C25.9999 10.2272 25.08 7.99427 23.5428 6.45705C22.0056 4.91982 19.7727 3.99994 16.9999 3.99994C14.4331 3.99994 12.3301 4.78868 10.815 6.12131Z" fill="#000000" class="bmwfcol"/><path d="M18.5041 17H16.4844C16.5656 16.4588 16.6164 15.9396 16.6164 15.4899C16.6164 14.5088 16.2949 13.4382 15.9018 12.5H18.0447C18.369 13.4238 18.6164 14.4623 18.6164 15.4899C18.6164 15.9631 18.5733 16.478 18.5041 17Z" fill="#000000" class="bmwfcol"/><path d="M10.2078 15.113C10.2478 15.2494 10.2836 15.3771 10.3139 15.5H12.3551C12.2992 15.1572 12.2133 14.8443 12.1269 14.55C12.1077 14.4847 12.0887 14.4205 12.0699 14.3571C11.885 13.7349 11.7241 13.1931 11.7241 12.4266C11.7241 10.8158 12.2567 9.55123 13.116 8.69185C13.9754 7.83246 15.24 7.2999 16.8508 7.2999C17.6162 7.2999 18.3398 7.41988 19 7.67455V5.57431C18.3035 5.3867 17.58 5.2999 16.8508 5.2999C14.7855 5.2999 12.9868 5.99269 11.7018 7.27763C10.4169 8.56258 9.72411 10.3613 9.72411 12.4266C9.72411 13.4967 9.96415 14.2982 10.1507 14.921C10.1704 14.987 10.1896 15.0509 10.2078 15.113Z" fill="#000000" class="bmwfcol"/><path d="M22.6834 14H24.6894C24.4827 11.2402 23.6879 9.16205 22.4307 7.71384C21.8569 7.05288 21.2041 6.54294 20.5 6.16575V8.59531C20.6463 8.72763 20.7865 8.87073 20.9204 9.02492C21.8008 10.0392 22.4833 11.6249 22.6834 14Z" fill="#000000" class="bmwfcol"/><path d="M9.3064 19C9.78407 18.4486 10.1262 17.7731 10.3158 17H12.3572C12.3451 17.0744 12.3311 17.1501 12.3149 17.2271C12.1807 17.8659 11.9725 18.4589 11.6979 19H9.3064Z" fill="#000000" class="bmwfcol"/><path d="M12.4299 19.9999H14.6669C15.0465 19.1253 15.3091 18.1715 15.445 17.1539C15.5873 16.0881 15.3691 15.25 15.1688 14.5344L15.1337 14.4091C14.9473 13.746 14.7874 13.1774 14.7874 12.4266C14.7874 11.7348 15.0136 11.2361 15.337 10.9128C15.6603 10.5894 16.159 10.3632 16.8508 10.3632C17.5491 10.3632 18.1824 10.5704 18.6737 11.1845C19.1991 11.8413 19.6799 13.1077 19.6799 15.4898C19.6799 16.7266 19.5635 17.8989 19.3406 18.9999H21.3763C21.5769 17.8814 21.6799 16.7088 21.6799 15.4898C21.6799 12.8941 21.1651 11.0972 20.2355 9.93513C19.2717 8.73044 17.9905 8.36323 16.8508 8.36323C15.7045 8.36323 14.6716 8.74968 13.9227 9.49854C13.1739 10.2474 12.7874 11.2803 12.7874 12.4266C12.7874 13.4623 13.0165 14.2725 13.2005 14.9233L13.2428 15.0734C13.4325 15.7512 13.5475 16.2533 13.4626 16.8892C13.3057 18.0637 12.9506 19.1064 12.4299 19.9999Z" fill="#000000" class="bmwfcol"/><title>head_with_fingerprint_rg_48</title></svg>