<svg width="48" height="48" viewBox="0 0 32 32" xmlns="http://www.w3.org/2000/svg"><path d="M8.91124 20.2474C8.52298 19.8402 8.14934 19.4241 7.79507 19H5.26247C5.93679 19.9358 6.68869 20.8147 7.46376 21.6276C10.0421 24.3317 13.0393 26.4717 14.8003 27.7292L15.1795 28H16.8205L17.1997 27.7292C18.9607 26.4717 21.9579 24.3317 24.5362 21.6276C27.1498 18.8865 29.5 15.395 29.5 11.5C29.5 9.32275 28.7699 7.43067 27.4196 6.08039C26.0693 4.73011 24.1772 4 22 4C19.4652 4 17.3371 4.99324 16 6.74255C14.6629 4.99324 12.5348 4 10 4C7.82275 4 5.93067 4.73011 4.58039 6.08039C3.23011 7.43067 2.5 9.32275 2.5 11.5C2.5 12.0071 2.53983 12.5073 2.6149 13H4.64405C4.54984 12.5033 4.5 12.0029 4.5 11.5C4.5 9.77725 5.06989 8.41933 5.99461 7.49461C6.91933 6.56989 8.27725 6 10 6C12.4404 6 14.1753 7.1377 14.9802 8.91295L15.2464 9.5H16.7536L17.0198 8.91295C17.8247 7.1377 19.5596 6 22 6C23.7228 6 25.0807 6.56989 26.0054 7.49461C26.9301 8.41933 27.5 9.77725 27.5 11.5C27.5 14.605 25.6002 17.6135 23.0888 20.2474C20.7202 22.7316 17.9557 24.7308 16.1795 26H15.8205C14.0443 24.7308 11.2798 22.7316 8.91124 20.2474Z" fill="#000000" class="bmwfcol"/><path d="M12.8456 12H11.155L9.42291 15.0001H2V17.0001H10.5776L12.0003 14.5359L15.155 20H16.8456L18.5774 17.0005H22V15.0005H17.4226L16.0003 17.4641L12.8456 12Z" fill="#000000" class="bmwfcol"/><title>heartbeat_rg_48</title></svg>