<svg width="48" height="48" viewBox="0 0 32 32" xmlns="http://www.w3.org/2000/svg"><path d="M4.58039 6.08039C5.93067 4.73011 7.82275 4 10 4C12.5348 4 14.6629 4.99324 16 6.74255C17.3371 4.99324 19.4652 4 22 4C24.1772 4 26.0693 4.73011 27.4196 6.08039C28.7699 7.43067 29.5 9.32275 29.5 11.5C29.5 15.395 27.1498 18.8865 24.5362 21.6276C21.9579 24.3317 18.9607 26.4717 17.1997 27.7292C17.0733 27.8194 16.9469 27.9097 16.8205 28H15.1795C15.0531 27.9097 14.9267 27.8194 14.8003 27.7292C13.0393 26.4717 10.0421 24.3317 7.46376 21.6276C4.85017 18.8865 2.5 15.395 2.5 11.5C2.5 9.32275 3.23011 7.43067 4.58039 6.08039Z" fill="#000000" class="bmwfcol"/><title>heart-filled_rg_48</title></svg>