<svg width="48" height="48" viewBox="0 0 32 32" xmlns="http://www.w3.org/2000/svg"><path d="M5.99461 7.49461C5.06989 8.41933 4.5 9.77725 4.5 11.5C4.5 14.605 6.39983 17.6135 8.91124 20.2474C11.2798 22.7316 14.0443 24.7308 15.8205 26H16.1795C17.9557 24.7308 20.7202 22.7316 23.0888 20.2474C25.6002 17.6135 27.5 14.605 27.5 11.5C27.5 9.77725 26.9301 8.41933 26.0054 7.49461C25.0807 6.56989 23.7228 6 22 6C19.5596 6 17.8247 7.1377 17.0198 8.91295L16.7536 9.5H15.2464L14.9802 8.91295C14.1753 7.1377 12.4404 6 10 6C8.27725 6 6.91933 6.56989 5.99461 7.49461ZM4.58039 6.08039C5.93067 4.73011 7.82275 4 10 4C12.5348 4 14.6629 4.99324 16 6.74255C17.3371 4.99324 19.4652 4 22 4C24.1772 4 26.0693 4.73011 27.4196 6.08039C28.7699 7.43067 29.5 9.32275 29.5 11.5C29.5 15.395 27.1498 18.8865 24.5362 21.6276C21.9579 24.3317 18.9607 26.4717 17.1997 27.7292C17.1595 27.7578 17.1201 27.786 17.0812 27.8137L16.8205 28H15.1795L14.9188 27.8137C14.8799 27.786 14.8405 27.7578 14.8003 27.7292C13.0393 26.4717 10.0421 24.3317 7.46376 21.6276C4.85017 18.8865 2.5 15.395 2.5 11.5C2.5 9.32275 3.23011 7.43067 4.58039 6.08039Z" fill="#000000" class="bmwfcol"/><title>heart_rg_48</title></svg>