<svg width="48" height="48" viewBox="0 0 32 32" xmlns="http://www.w3.org/2000/svg"><path d="M16.0001 13.9327C16.7968 13.3588 17.886 12.5416 18.8275 11.5542C19.9412 10.3862 20.6819 9.15047 20.6819 7.95455C20.6819 7.29543 20.4666 6.82387 20.1623 6.51961C19.858 6.21534 19.3865 6 18.7273 6C17.8051 6 17.2272 6.41543 16.9604 7.00386L16.6942 7.59091H15.3059L15.0398 7.00386C14.7729 6.41543 14.1951 6 13.2728 6C12.6137 6 12.1421 6.21534 11.8379 6.51961C11.7085 6.64898 11.5952 6.80859 11.5077 7H9.41608C9.57113 6.27069 9.90947 5.61957 10.4237 5.10539C11.1535 4.37557 12.1592 4 13.2728 4C14.3406 4 15.2949 4.3477 16.0001 4.9883C16.7052 4.3477 17.6595 4 18.7273 4C19.841 4 20.8467 4.37557 21.5765 5.10539C22.3063 5.83522 22.6819 6.84093 22.6819 7.95455C22.6819 9.94044 21.4908 11.6592 20.2749 12.9344C19.0667 14.2016 17.6688 15.1996 16.8691 15.7705L16.5478 16H16.0001V13.9327Z" fill="#000000" class="bmwfcol"/><path d="M28.3684 15.4031C28.9704 15.6299 29.3997 15.9852 29.7074 16.2928L30.4147 16.9999L21.5891 25.8256C20.7036 26.7124 20.044 27.3729 19.0665 27.6987C18.5666 27.8653 18.0256 27.9343 17.3965 27.9674C16.7764 28 16.0047 28 15.029 28H11.4144L9.41436 30H7.58594L1.58594 24L6.30666 19.2793C6.79513 18.7908 7.18002 18.4059 7.49357 18.113C7.80632 17.8209 8.09329 17.5766 8.38671 17.3971C9.03833 16.9983 9.61222 16.9991 10.1896 17L10.4 17L14.1321 18L19.0002 18C19.4743 18 19.9403 18.1457 20.3113 18.457C22.8562 16.4492 24.7373 15.514 26.1993 15.2527C27.0435 15.1019 27.7594 15.1737 28.3684 15.4031ZM19.0001 20L13.8688 20L10.1379 19.0003C9.5985 19.0031 9.55695 19.0257 9.43065 19.103C9.31554 19.1734 9.14825 19.3042 8.85887 19.5745C8.57319 19.8414 8.21232 20.2021 7.70726 20.7071L4.41436 24L8.41436 28H8.58594L10.5859 26H15.0002C16.0109 26 16.73 25.9997 17.2914 25.9702C17.8499 25.9408 18.1839 25.8847 18.4341 25.8013C18.9136 25.6415 19.2397 25.3465 20.2933 24.2929L27.3861 17.2001C27.1749 17.1637 26.9036 17.1585 26.5511 17.2215C25.4854 17.412 23.7543 18.211 21.0003 20.4698L21.0001 21.4143L20.7073 21.7071C19.6534 22.761 18.7738 23.3796 17.8165 23.6987C16.9111 24.0005 16.0168 24.0003 15.0818 24L11.0002 24V22H15.0004C16.0358 22 16.6158 21.9908 17.184 21.8014C17.6686 21.6398 18.2151 21.3184 19.0002 20.5777L19.0001 20Z" fill="#000000" class="bmwfcol"/><path d="M11.0896 7.99976H9.57761L8.42289 9.99979L6.00006 9.99979V11.9998L9.57759 11.9998L10.3336 10.6904L12.2443 13.9998H13.7562L14.9107 12.0001H17.0001V10.0001H13.756L13.0002 11.3092L11.0896 7.99976Z" fill="#000000" class="bmwfcol"/><title>heartbeat_on_hand_rg_48</title></svg>