<svg width="48" height="48" viewBox="0 0 32 32" xmlns="http://www.w3.org/2000/svg"><path d="M15.9999 2.99976C12.4726 2.99976 9.45555 4.17987 7.31777 6.31765C5.17999 8.45543 3.99988 11.4725 3.99988 14.9998L3.99988 24.0712L6.84537 28.9998L7.5301 28.9998C8.7205 29 9.51549 29.0002 10.4251 28.6991C11.2786 28.4165 12.2253 27.8699 13.827 26.945L27.4133 19.1009L27.5218 18.7043C27.8373 17.551 27.9999 16.3102 27.9999 14.9998C27.9999 11.4725 26.8198 8.45543 24.682 6.31765C22.5442 4.17987 19.5271 2.99976 15.9999 2.99976ZM6.3608 11.9973C6.79881 10.283 7.61918 8.84467 8.73198 7.73186C10.4442 6.01964 12.9271 4.99976 15.9999 4.99976C19.0726 4.99976 21.5555 6.01964 23.2678 7.73186C24.98 9.44408 25.9999 11.927 25.9999 14.9998C25.9999 15.9927 25.8931 16.9235 25.6918 17.7854L12.9642 25.1337C11.1855 26.1607 10.4294 26.5909 9.79658 26.8004C9.3149 26.9599 8.90384 26.9921 7.99924 26.9983L5.99988 23.5353L5.99988 23.3748C8.49111 22.7055 9.97419 22.2823 11.2391 21.573C12.6103 20.804 13.7019 19.7124 15.5975 17.8168L15.8969 17.5174L15.9663 17.2586C16.0963 16.7734 16.2348 16.2719 16.3619 15.812C16.4787 15.3893 16.5857 15.0017 16.6675 14.6944C16.7601 14.3464 16.8399 14.0305 16.897 13.7638C16.9497 13.5178 17 13.2399 17 13C17.0002 12.1726 16.72 11.4054 16.1572 10.8426C15.5944 10.2799 14.8273 9.99976 14 9.99976C13.1728 9.99976 12.4057 10.2799 11.8429 10.8426C11.3225 11.3631 10.6607 11.6631 9.60161 11.8258C8.74645 11.957 7.70463 11.9894 6.3608 11.9973ZM6.0371 13.9989C7.54512 13.9945 8.82968 13.9677 9.90513 13.8026C11.2259 13.5998 12.3391 13.1749 13.2571 12.2569C13.3944 12.1196 13.6273 11.9998 14 11.9998C14.3728 11.9998 14.6058 12.1197 14.743 12.2569C14.8803 12.3941 15.0001 12.626 15 12.9986C15 12.9986 15 12.9989 14.9999 12.9996C14.9996 13.005 14.998 13.0317 14.9898 13.0867C14.9802 13.1515 14.9645 13.2367 14.9413 13.3451C14.8947 13.5627 14.8251 13.8406 14.7347 14.1801C14.6417 14.5298 14.5433 14.8853 14.4347 15.2772C14.3345 15.6393 14.2255 16.0327 14.1042 16.4816C12.2002 18.3843 11.3287 19.2297 10.2609 19.8285C9.31278 20.3602 8.19239 20.7074 5.99988 21.3028V14.9998C5.99988 14.6588 6.01244 14.3251 6.0371 13.9989Z" fill="#000000" class="bmwfcol"/><title>helmet_rg_48</title></svg>