<svg width="48" height="48" viewBox="0 0 32 32" xmlns="http://www.w3.org/2000/svg"><path d="M6.59289 6.59289C8.90567 4.28011 12.1728 3 16 3C19.8272 3 23.0943 4.28011 25.4071 6.59289C27.7199 8.90567 29 12.1728 29 16C29 19.8272 27.7199 23.0943 25.4071 25.4071C23.0943 27.7199 19.8272 29 16 29C12.1728 29 8.90567 27.7199 6.59289 25.4071C4.28011 23.0943 3 19.8272 3 16C3 12.1728 4.28011 8.90567 6.59289 6.59289ZM17.3256 22V19.3606H14.9235V22H17.3256ZM17.8742 16.9988C18.3784 16.465 18.838 15.9608 19.2532 15.4567C20.0391 14.4928 20.2763 13.8552 20.2763 12.847C20.2763 12.0611 19.876 11.2011 19.2532 10.7266C18.586 10.2076 17.7853 10 16.6583 10C15.2942 10 14.1969 10.2521 13.5 10.4152V12.3873C14.36 12.2094 15.2942 12.0166 16.2432 12.0166C16.9401 12.0166 17.3997 12.0611 17.6963 12.2983C17.978 12.5207 18.0522 12.8173 18.0522 13.1287C18.0522 13.707 17.6815 14.2259 17.2959 14.6263C16.8214 15.1156 16.1542 15.8274 15.739 16.3463C15.3387 16.8505 15.0718 17.3695 14.9235 17.8736H17.3256C17.4146 17.6364 17.548 17.3398 17.8742 16.9988Z" fill="#000000" class="bmwfcol"/><title>help-filled_rg_48</title></svg>