<svg width="48" height="48" viewBox="0 0 32 32" xmlns="http://www.w3.org/2000/svg"><path d="M8.00711 8.50711C6.11989 10.3943 5 13.1272 5 16.5C5 19.8728 6.11989 22.6057 8.00711 24.4929C9.89433 26.3801 12.6272 27.5 16 27.5C19.3728 27.5 22.1057 26.3801 23.9929 24.4929C25.8801 22.6057 27 19.8728 27 16.5C27 13.1272 25.8801 10.3943 23.9929 8.50711C22.1057 6.61989 19.3728 5.5 16 5.5C12.6272 5.5 9.89433 6.61989 8.00711 8.50711ZM6.59289 7.09289C8.90567 4.78011 12.1728 3.5 16 3.5C19.8272 3.5 23.0943 4.78011 25.4071 7.09289C27.7199 9.40567 29 12.6728 29 16.5C29 20.3272 27.7199 23.5943 25.4071 25.9071C23.0943 28.2199 19.8272 29.5 16 29.5C12.1728 29.5 8.90567 28.2199 6.59289 25.9071C4.28011 23.5943 3 20.3272 3 16.5C3 12.6728 4.28011 9.40567 6.59289 7.09289Z" fill="#000000" class="bmwfcol"/><path d="M17.3256 18.3736C17.4146 18.1364 17.548 17.8398 17.8742 17.4988C18.3784 16.965 18.838 16.4608 19.2532 15.9567C20.0391 14.9928 20.2763 14.3552 20.2763 13.347C20.2763 12.5611 19.876 11.7011 19.2532 11.2266C18.586 10.7076 17.7853 10.5 16.6583 10.5C15.2942 10.5 14.1969 10.7521 13.5 10.9152V12.8873C14.36 12.7094 15.2942 12.5166 16.2432 12.5166C16.9401 12.5166 17.3997 12.5611 17.6963 12.7983C17.978 13.0207 18.0522 13.3173 18.0522 13.6287C18.0522 14.207 17.6815 14.7259 17.2959 15.1263C16.8214 15.6156 16.1542 16.3274 15.739 16.8463C15.3387 17.3505 15.0718 17.8695 14.9235 18.3736H17.3256ZM17.3256 22.5V19.8606H14.9235V22.5H17.3256Z" fill="#000000" class="bmwfcol"/><title>help_rg_48</title></svg>