<svg width="48" height="48" viewBox="0 0 32 32" xmlns="http://www.w3.org/2000/svg"><path d="M12 6C12 5.48408 12.1622 4.95856 12.5604 4.56039C12.9586 4.16222 13.4841 4 14 4H18C18.5159 4 19.0414 4.16222 19.4396 4.56039C19.8378 4.95856 20 5.48408 20 6V10C20 10.5159 19.8378 11.0414 19.4396 11.4396C19.0414 11.8378 18.5159 12 18 12H17V15H20C21.4272 15 22.6943 15.4801 23.6071 16.3929C24.5199 17.3057 25 18.5728 25 20H26C26.5159 20 27.0414 20.1622 27.4396 20.5604C27.8378 20.9586 28 21.4841 28 22V26C28 26.5159 27.8378 27.0414 27.4396 27.4396C27.0414 27.8378 26.5159 28 26 28H22C21.4841 28 20.9586 27.8378 20.5604 27.4396C20.1622 27.0414 20 26.5159 20 26V22C20 21.4841 20.1622 20.9586 20.5604 20.5604C20.9586 20.1622 21.4841 20 22 20H23C23 19.0272 22.6801 18.2943 22.1929 17.8071C21.7057 17.3199 20.9728 17 20 17H12C11.0272 17 10.2943 17.3199 9.80711 17.8071C9.31989 18.2943 9 19.0272 9 20H10C10.5159 20 11.0414 20.1622 11.4396 20.5604C11.8378 20.9586 12 21.4841 12 22V26C12 26.5159 11.8378 27.0414 11.4396 27.4396C11.0414 27.8378 10.5159 28 10 28H6C5.48408 28 4.95857 27.8378 4.5604 27.4396C4.16222 27.0414 4 26.5159 4 26V22C4 21.4841 4.16222 20.9586 4.5604 20.5604C4.95857 20.1622 5.48408 20 6 20H7C7 18.5728 7.48011 17.3057 8.39289 16.3929C9.30567 15.4801 10.5728 15 12 15H15V12H14C13.4841 12 12.9586 11.8378 12.5604 11.4396C12.1622 11.0414 12 10.5159 12 10V6ZM14 6V10H18L18 6L14 6ZM6 26H10L10 22H6L6 26ZM22 22V26H26L26 22H22Z" fill="#000000" class="bmwfcol"/><title>hierarchy_rg_48</title></svg>