<svg width="48" height="48" viewBox="0 0 32 32" xmlns="http://www.w3.org/2000/svg"><path d="M28 11V14H30V9H24C22.8908 9 22.0554 9.14305 21.1506 9.71883C20.4134 10.188 19.6434 10.943 18.5858 12H2L2 14H19.4142L19.7071 13.7071C20.9955 12.4187 21.653 11.7698 22.2244 11.4062C22.6946 11.1069 23.1092 11 24 11H28Z" fill="#000000" class="bmwfcol"/><path d="M3 16H8V17H9V16H14V17H15V24H2V17H3V16ZM4 19V22H13V19H12V18H11V19H6V18H5V19H4Z" fill="#000000" class="bmwfcol"/><path d="M18 16H23V17H24V16H29V17H30V24H17V17H18V16ZM19 19V22H28V19H27V18H26V19H21V18H20V19H19Z" fill="#000000" class="bmwfcol"/><path d="M2 26H30V28H2V26Z" fill="#000000" class="bmwfcol"/><path d="M2.47592 9.88864V8.08462L2.71514 8.13246C3.20412 8.23026 3.99543 8.33732 4.60428 8.33732C5.11983 8.33732 5.39184 8.25725 5.56248 8.10168C5.66507 8.00724 5.71919 7.92055 5.7506 7.82811C5.78357 7.73109 5.79588 7.6153 5.79588 7.45386C5.79588 7.31086 5.78166 7.21062 5.74916 7.12895C5.71813 7.05094 5.66481 6.97596 5.5628 6.89435C5.47626 6.82512 5.34793 6.77135 5.13189 6.73688C4.91491 6.70225 4.62759 6.68968 4.2365 6.68968H2.57532V2.05524H7.50796V3.8369H4.44644V4.90802H4.85278C5.91006 4.90802 6.58491 5.17564 7.02196 5.6127C7.46669 6.05743 7.68688 6.7005 7.68688 7.45386C7.68688 8.21995 7.48522 8.81786 7.01816 9.32836C6.51723 9.87381 5.75495 10.119 4.70368 10.119C3.90134 10.119 3.22217 10.0173 2.64194 9.91727L2.47592 9.88864Z" fill="#000000" class="bmwfcol"/><title>battery-module-gen-5_rg_48</title></svg>