<svg width="48" height="48" viewBox="0 0 32 32" xmlns="http://www.w3.org/2000/svg"><path d="M6.59289 6.59289C8.90567 4.28011 12.1728 3 16 3C19.8272 3 23.0943 4.28011 25.4071 6.59289C27.7199 8.90567 29 12.1728 29 16C29 19.8272 27.7199 23.0943 25.4071 25.4071C23.0943 27.7199 19.8272 29 16 29C12.1728 29 8.90567 27.7199 6.59289 25.4071C4.28011 23.0943 3 19.8272 3 16C3 12.1728 4.28011 8.90567 6.59289 6.59289ZM17 18V10H15V18H17ZM17 20H15V22H17V20Z" fill="#000000" class="bmwfcol"/><title>highlight-filled_rg_48</title></svg>