<svg width="48" height="48" viewBox="0 0 32 32" xmlns="http://www.w3.org/2000/svg"><path d="M8.67694 3.68643L8.4993 3.70642C7.71246 3.79494 6.8851 3.9805 6.3597 4.2432C5.96006 4.44302 5.72695 4.65322 5.59442 4.92369C5.85624 4.91323 6.12336 4.90801 6.36966 4.90801C7.43153 4.90801 8.05202 5.13328 8.49247 5.59622C8.94387 6.06964 9.15406 6.70039 9.15406 7.46379C9.15406 8.13409 8.97573 8.79393 8.50563 9.30803C7.98819 9.88022 7.26921 10.119 6.33984 10.119C5.42308 10.119 4.70079 9.94617 4.15859 9.38231C3.64092 8.85317 3.3964 8.05738 3.3964 7.01649C3.3964 5.98174 3.49903 5.20574 3.71477 4.59644C3.93256 3.98133 4.2629 3.5439 4.70221 3.18398C5.58328 2.46025 6.84413 2.10732 8.45472 1.92725L8.67694 1.9024V3.68643ZM7.04034 8.15043C7.21771 7.96535 7.26306 7.76829 7.26306 7.46379C7.26306 7.15367 7.22509 6.98017 7.07154 6.81836C6.93742 6.68536 6.74011 6.63003 6.19074 6.63003C5.8883 6.63003 5.53217 6.64171 5.29421 6.65159C5.28749 6.79449 5.2874 6.95444 5.2874 7.19541C5.2874 7.45045 5.30689 7.62843 5.34691 7.76955C5.38542 7.90534 5.44517 8.01484 5.53815 8.12958C5.6972 8.30806 5.95708 8.37707 6.33984 8.37707C6.65768 8.37707 6.87796 8.3202 7.04034 8.15043Z" fill="#000000" class="bmwfcol"/><path d="M30 14H2V12H30V14Z" fill="#000000" class="bmwfcol"/><path d="M30 28H2V26H30V28Z" fill="#000000" class="bmwfcol"/><path d="M30 9.99999L18 9.99999V5.58578L18.3105 5.27528C18.5455 5.04031 18.7488 4.83698 18.9248 4.67857C19.1073 4.5143 19.31 4.35194 19.5528 4.23056C20.021 3.99647 20.5003 3.99825 20.9057 3.99976C20.9376 3.99987 20.969 3.99999 21 3.99999H30V9.99999ZM28 5.99999H21C20.7315 5.99999 20.6012 6.00111 20.5058 6.01065C20.4668 6.01455 20.4507 6.01853 20.4473 6.01943C20.44 6.02306 20.3927 6.04818 20.2627 6.16516C20.189 6.23149 20.1048 6.31231 20 6.41554V7.99999H28V5.99999Z" fill="#000000" class="bmwfcol"/><path d="M11 18H13V22H11V18ZM14 16V15.5H10V16H9V24H15V16H14Z" fill="#000000" class="bmwfcol"/><path d="M18 18H20V22H18V18ZM21 16V15.5H17V16H16V24H22V16H21Z" fill="#000000" class="bmwfcol"/><path d="M25 18H27V22H25V18ZM28 16V15.5H24V16H23V24H29V16H28Z" fill="#000000" class="bmwfcol"/><path d="M4 18H6V22H4V18ZM7 16V15.5H3V16H2V24H8V16H7Z" fill="#000000" class="bmwfcol"/><title>battery-module-gen-6_rg_48</title></svg>