<svg width="48" height="48" viewBox="0 0 32 32" xmlns="http://www.w3.org/2000/svg"><path d="M17 10V18H15V10H17ZM17 20V22H15V20H17Z" fill="#000000" class="bmwfcol"/><path d="M8.0071 8.00711C6.11988 9.89433 5 12.6272 5 16C5 19.3728 6.11988 22.1057 8.0071 23.9929C9.89432 25.8801 12.6273 27 16 27C19.3728 27 22.1057 25.8801 23.9929 23.9929C25.8801 22.1057 27 19.3728 27 16C27 12.6272 25.8801 9.89433 23.9929 8.00711C22.1057 6.11989 19.3728 5 16 5C12.6273 5 9.89432 6.11989 8.0071 8.00711ZM6.59289 6.59289C8.90567 4.28011 12.1728 3 16 3C19.8273 3 23.0944 4.28011 25.4071 6.59289C27.7199 8.90567 29 12.1728 29 16C29 19.8272 27.7199 23.0943 25.4071 25.4071C23.0944 27.7199 19.8273 29 16 29C12.1728 29 8.90567 27.7199 6.59289 25.4071C4.28011 23.0943 3 19.8272 3 16C3 12.1728 4.28011 8.90567 6.59289 6.59289Z" fill="#000000" class="bmwfcol"/><title>highlight_rg_48</title></svg>