<svg width="48" height="48" viewBox="0 0 32 32" xmlns="http://www.w3.org/2000/svg"><path d="M29.8851 15H27.7513L26.6356 12H21.3745L20.2588 15H18.125L22.5878 3H25.4224L29.8851 15ZM25.8918 10L24.0051 4.92666L22.1183 10H25.8918Z" fill="#000000" class="bmwfcol"/><path d="M28 17C28 18.0028 27.5427 19.7476 26.085 21.2384C24.6538 22.7021 22.1782 24 18 24H16.4229C15.5047 21.9868 15 19.6334 15 17C15 14.3666 15.5047 12.0132 16.4229 10L18.0278 10L18.7453 8.01292C18.5015 8.00436 18.253 8 17.9997 8H15.1823L14.9041 8.54615C13.6612 10.9864 13 13.8444 13 17C13 20.1556 13.6612 23.0136 14.9041 25.4539L15.1823 26H18C22.6218 26 25.6462 24.5479 27.515 22.6366C29.3573 20.7524 30 18.4972 30 17H28Z" fill="#000000" class="bmwfcol"/><path d="M12 10V10.3642C11.8279 10.898 11.6778 11.4436 11.5498 12H2V10H12Z" fill="#000000" class="bmwfcol"/><path d="M2 14H11.1912C11.1058 14.6547 11.0488 15.3218 11.0206 16H2V14Z" fill="#000000" class="bmwfcol"/><path d="M11.0206 18H2V20H11.1912C11.1058 19.3453 11.0488 18.6782 11.0206 18Z" fill="#000000" class="bmwfcol"/><path d="M2 22H11.5498C11.6778 22.5564 11.8279 23.102 12 23.6358V24H2V22Z" fill="#000000" class="bmwfcol"/><title>high-beam-assistant_rg_48</title></svg>