<svg width="48" height="48" viewBox="0 0 32 32" xmlns="http://www.w3.org/2000/svg"><path d="M5.00008 11.4142L11.7072 4.70706L10.293 3.29285L5.00008 8.58574L2.70718 6.29285L1.29297 7.70706L5.00008 11.4142Z" fill="#000000" class="bmwfcol"/><path d="M24.1619 8.14256C25.2003 8.33966 26.0979 8.90185 27 9.4227L26.9997 12.4143C26.3497 13.0643 25.7549 13.6688 24.8208 13.8556C24.0973 14.0003 23.0134 14.0002 21.1985 14L14.8016 14.0001C12.9865 14.0002 11.9025 14.0003 11.1789 13.8556C10.4141 13.7027 9.86386 13.2787 9.3257 12.74L9 12.4143V10.2327C11.6482 9.52314 14.2989 8.73359 17.0031 8.26473C18.5299 8.00001 19.4865 8.00001 20.9805 8.00001C22.034 7.99996 23.1214 7.94505 24.1619 8.14256ZM23.7889 10.1075C23.246 10.0044 22.5451 10 20.9997 10C19.5047 10 18.6953 10.0012 17.3448 10.2353C16.0723 10.4559 14.3254 10.8832 11.1657 11.7238C11.2607 11.7964 11.3385 11.8479 11.5711 11.8945C12.0715 11.9945 12.9352 12 15 12L20.9997 12C23.0646 12 23.9282 11.9945 24.4286 11.8945C24.6245 11.8553 24.7126 11.8095 24.7899 11.756C24.8508 11.7138 24.9134 11.6612 24.9998 11.5802L24.9999 10.5846C24.4737 10.2994 24.1635 10.1786 23.7889 10.1075Z" fill="#000000" class="bmwfcol"/><path d="M19 14.9999C17.564 14.9998 16.0887 14.9635 14.7097 15.427C13.4632 15.8461 12.2706 16.6467 10.6006 18.031C7.57816 18.2953 5.93254 18.4422 4.76518 18.7016C3.38894 19.0075 2.20612 19.7263 1.00027 20.4225L1 25.2706C1.9305 25.5199 2.86095 25.8269 3.81795 25.9595C4.37123 27.1637 5.58797 27.9999 7 27.9999C8.39619 27.9999 9.60144 27.1824 10.1632 25.9999H20.8368C21.3986 27.1824 22.6038 27.9999 24 27.9999C25.3981 27.9999 26.6047 27.1801 27.1655 25.9951C28.6165 25.9593 29.7668 25.2894 31.0003 24.5772L31 21.5856C30.5543 21.1399 30 20.6843 30 19.9998L29.9999 18.0835L27.5411 17.8684C26.2382 17.1137 24.935 16.3253 23.5269 15.7789C22.1754 15.2546 20.8122 14.9999 19 14.9999ZM27.4615 23.979C27.2099 22.293 25.756 20.9999 24 20.9999C22.2368 20.9999 20.778 22.3037 20.5354 23.9999H10.4646C10.222 22.3037 8.76324 20.9999 7 20.9999C5.28167 20.9999 3.85255 22.2382 3.55633 23.8711C3.40571 23.8357 3.22405 23.7906 3.00009 23.7328L3.00021 21.5787C3.89751 21.0681 4.38084 20.8359 5.19911 20.654C7.21885 20.2051 9.34668 20.1483 11.4015 19.9686C12.5943 18.9677 13.8445 17.8278 15.347 17.3228C16.2773 17.01 17.2068 16.9999 19 16.9999C20.5964 16.9999 21.7104 17.2194 22.8035 17.6435C24.2524 18.2057 25.583 19.046 26.9239 19.8221L28 19.9162C28 20.9007 28.343 21.6704 29.0001 22.3993L29.0002 23.4164C28.5135 23.6834 28.0215 23.9345 27.4615 23.979ZM7 22.9999C7.82843 22.9999 8.5 23.6715 8.5 24.4999C8.5 25.3283 7.82843 25.9999 7 25.9999C6.17157 25.9999 5.5 25.3283 5.5 24.4999C5.5 23.6715 6.17157 22.9999 7 22.9999ZM24 22.9999C24.8284 22.9999 25.5 23.6715 25.5 24.4999C25.5 25.3283 24.8284 25.9999 24 25.9999C23.1716 25.9999 22.5 25.3283 22.5 24.4999C22.5 23.6715 23.1716 22.9999 24 22.9999Z" fill="#000000" class="bmwfcol"/><title>holiday-check_rg_48</title></svg>