<svg width="48" height="48" viewBox="0 0 32 32" xmlns="http://www.w3.org/2000/svg"><path d="M16 3.69434L25.7775 11.8985C26.6473 12.6265 27.3452 13.2109 27.6887 14.1467C27.8641 14.6245 27.9339 15.1455 27.9672 15.738C28 16.3225 28 17.0527 28 17.9693V27.9998H4V17.9693C4 17.0526 3.99999 16.3225 4.03283 15.7379C4.06611 15.1455 4.13587 14.6245 4.31125 14.1467C4.65477 13.2109 5.35275 12.6266 6.22243 11.8985L15.3571 4.23374L16 3.69434ZM16 6.30515L7.6428 13.3177C6.57491 14.2137 6.32767 14.4575 6.18875 14.8359C6.11414 15.0391 6.0589 15.3299 6.02968 15.8501C6.00037 16.3719 6 17.0457 6 17.9998V25.9998H26V17.9998C26 17.0457 25.9996 16.3719 25.9703 15.8501C25.9411 15.3299 25.8859 15.0391 25.8113 14.8359C25.6723 14.4575 25.4251 14.2137 24.3572 13.3177L16 6.30515Z" fill="#000000" class="bmwfcol"/><title>home_rg_48</title></svg>