<svg width="48" height="48" viewBox="0 0 32 32" xmlns="http://www.w3.org/2000/svg"><path d="M24 29.5C22.7104 29.5 21.5608 29.0973 20.7318 28.2682C19.9027 27.4392 19.5 26.2896 19.5 25C19.5 23.5307 20.4231 22.2288 21.1599 21.2178C21.2291 21.1229 21.2973 21.0296 21.3645 20.9378L21.3651 20.937C22.1013 19.9313 22.7067 19.1042 22.9365 18.2423L23.1345 17.5H24.8655L25.0635 18.2423C25.2933 19.1042 25.8987 19.9313 26.6349 20.937C26.7022 21.029 26.7708 21.1226 26.8401 21.2178C27.5769 22.2288 28.5 23.5307 28.5 25C28.5 26.2896 28.0973 27.4392 27.2682 28.2682C26.4392 29.0973 25.2896 29.5 24 29.5ZM21.5 25C21.5 25.8734 21.7658 26.4738 22.146 26.854C22.5262 27.2342 23.1266 27.5 24 27.5C24.8734 27.5 25.4738 27.2342 25.854 26.854C26.2342 26.4738 26.5 25.8734 26.5 25C26.5 24.2872 26.0328 23.5058 25.2238 22.3957C25.1507 22.2954 25.0746 22.1922 24.9965 22.0863C24.6755 21.6509 24.3209 21.1699 24 20.6539C23.6791 21.1699 23.3245 21.6509 23.0035 22.0863C22.9254 22.1922 22.8493 22.2953 22.7762 22.3957C21.9672 23.5058 21.5 24.2872 21.5 25Z" fill="#000000" class="bmwfcol"/><path d="M19.9335 19.5038L17 21.1975L17 25.818L12 28.7047L7 25.818L7 21.1974L3 18.888L3 13.1145L7 10.8051L7 6.18326L12 3.29651L16 5.60591L20 3.29651L25 6.18326L25 10.8051L29 13.1145V18.8881L28.0273 19.4496C27.3985 18.5798 27.1079 18.1388 26.9979 17.7345L27 17.7334L27 14.2692L24 12.5372L21 14.2692L21 17.7333L21.0021 17.7345C20.8899 18.1471 20.5895 18.5979 19.9335 19.5038ZM11 14.2692L8 12.5372L5 14.2692L5 17.7333L8 19.4654L11 17.7333V14.2692ZM16 19.4654L19 17.7334L19 14.2692L16 12.5372L13 14.2692V17.7333L16 19.4654ZM15 21.1992L12 19.4671L9 21.1992L9 24.6633L12 26.3953L15 24.6633L15 21.1992ZM17 10.8021L20 12.5341L23 10.8021L23 7.33796L20 5.60591L17 7.33796V10.8021ZM12 5.60591L9 7.33796L9 10.8021L12 12.5341L15 10.8021V7.33796L12 5.60591Z" fill="#000000" class="bmwfcol"/><title>honeycombs_and_drop_rg_48</title></svg>