<svg width="48" height="48" viewBox="0 0 32 32" xmlns="http://www.w3.org/2000/svg"><path d="M13 4.5C13 4.67607 12.9989 4.98825 12.8007 5.38471C12.7175 5.55101 12.6064 5.71947 12.4658 5.89652C12.4912 6.0295 12.4961 6.14164 12.4979 6.18258L12.4984 6.19424C12.502 6.25897 12.5015 6.57801 12.5012 6.82424L12.4988 7.78913L12.3093 7.99512L15.7259 11.4117C16.2449 11.9307 16.5 12.6353 16.5 13.3876C16.5 14.1398 16.2449 14.8444 15.7259 15.3634C15.2068 15.8824 14.5023 16.1376 13.75 16.1376C13.216 16.1376 12.706 16.009 12.2693 15.7487C11.7609 16.5 10.973 17 10 17C9.02705 17 8.23909 16.5 7.73069 15.7487C7.29404 16.009 6.78403 16.1376 6.25 16.1376C5.49775 16.1376 4.79317 15.8824 4.27414 15.3634C3.75511 14.8444 3.5 14.1398 3.5 13.3876C3.5 12.6353 3.75511 11.9307 4.27414 11.4117L7.69066 7.99518L7.5011 7.78913L7.49871 6.82454C7.49836 6.57826 7.49789 6.259 7.50151 6.19424L7.50205 6.18258C7.50382 6.14163 7.50867 6.02943 7.53416 5.8964C7.39361 5.7194 7.28246 5.55098 7.19932 5.38471C7.00109 4.98825 7 4.67607 7 4.5V3H9V4.28315C9.0804 4.23426 9.1644 4.18459 9.25207 4.13398L9.48412 4L10.5158 4L10.7478 4.13397C10.8355 4.18461 10.9196 4.2343 11 4.28322V3H13V4.5ZM10.7429 9.2571C10.6057 9.11989 10.3728 9.00003 10.0001 9.00003C9.62734 9.00003 9.39444 9.11991 9.25723 9.25712C9.12001 9.39434 9.00013 9.62727 9.00013 10L9.00011 10.5H11V10C11 9.63056 10.8822 9.39847 10.7465 9.26078L10.7429 9.2571ZM14.3117 12.8259L13 11.5143L13 13.3876C13 13.6853 13.0949 13.8557 13.1884 13.9492C13.2818 14.0427 13.4523 14.1376 13.75 14.1376C14.0478 14.1376 14.2182 14.0427 14.3117 13.9492C14.4051 13.8557 14.5 13.6853 14.5 13.3876C14.5 13.0898 14.4051 12.9194 14.3117 12.8259ZM7.00006 11.5142L5.68836 12.8259C5.59489 12.9194 5.5 13.0898 5.5 13.3876C5.5 13.6853 5.59489 13.8557 5.68836 13.9492C5.78183 14.0427 5.95225 14.1376 6.25 14.1376C6.54775 14.1376 6.71817 14.0427 6.81164 13.9492C6.90511 13.8557 7 13.6853 7 13.3876L7.00006 11.5142ZM9 13C9.00001 13.7667 9.17243 14.3059 9.38206 14.6203C9.57414 14.9084 9.78115 15 10 15C10.2189 15 10.4259 14.9084 10.6179 14.6203C10.8276 14.3059 11 13.7667 11 13V12.5H9.00002L9 13ZM9.99995 7C10.2076 7 10.372 6.96292 10.501 6.90583L10.5012 6.84412L10.5013 6.36764C10.4717 6.34164 10.4301 6.30751 10.3729 6.26492C10.2817 6.19711 10.1604 6.11496 9.99995 6.0161C9.83947 6.11496 9.71824 6.19711 9.62705 6.26492C9.56978 6.30751 9.52819 6.34164 9.49861 6.36764L9.49859 6.44867C9.49856 6.5459 9.49852 6.68537 9.49874 6.84412L9.49887 6.90583C9.62787 6.96292 9.79232 7 9.99995 7Z" fill="#000000" class="bmwfcol"/><path d="M16 19.4628V19.4659L12 17.1565L7 20.0432V25.8167L12 28.7035L16 26.3941L20 28.7035L25 25.8167V21.1949L29 18.8855V13.112L25 10.8026V6.18204L20 3.29529L15 6.18204V9.00006H17V7.33674L20 5.60469L23 7.33674V10.8008L20 12.5329L18 11.3782V13.6893L19 14.2667V17.7308L16 19.4628ZM24 19.4628L21 17.7308V14.2667L24 12.5346L27 14.2667V17.7308L24 19.4628ZM17 24.662V21.1979L20 19.4659L23 21.1979V24.662L20 26.3941L17 24.662ZM12 19.4659L15 21.1979V24.662L12 26.3941L9 24.662V21.1979L12 19.4659Z" fill="#000000" class="bmwfcol"/><title>honeycombs_and_bee_rg_48</title></svg>