<svg width="48" height="48" viewBox="0 0 32 32" xmlns="http://www.w3.org/2000/svg"><path d="M7 3H25V4C25 6.52769 24.8816 8.19095 23.7425 10.0895C22.7548 11.7357 21.003 13.545 18.0573 16.4492C20.9119 18.912 22.6468 20.5004 23.6472 21.9811C24.8892 23.8196 25 25.4795 25 28V29H7V28C7 25.4723 7.11838 23.8091 8.25706 21.9106C9.24322 20.2665 10.9912 18.4596 13.9291 15.5616C11.0895 13.1525 9.35879 11.5663 8.35646 10.0687C7.11516 8.21406 7 6.52124 7 4V3ZM15.4637 16.8574C12.3983 19.8805 10.8218 21.5229 9.97222 22.9394C9.25364 24.1374 9.05315 25.1786 9.01009 27H22.9898C22.9461 25.1913 22.7411 24.2125 21.99 23.1007C21.0339 21.6856 19.1961 20.0576 15.4637 16.8574ZM16.5339 15.1424C19.6005 12.1194 21.1776 10.477 22.0275 9.0605C22.7463 7.8625 22.9468 6.82138 22.9899 5H9.01039C9.05489 6.81798 9.26306 7.82751 10.0185 8.95629C10.9738 10.3836 12.8106 12.0133 16.5339 15.1424Z" fill="#000000" class="bmwfcol"/><title>hourglass_rg_48</title></svg>