<svg width="48" height="48" viewBox="0 0 32 32" xmlns="http://www.w3.org/2000/svg"><path d="M25.9703 15.8503C25.9731 15.8989 25.9755 15.9487 25.9778 16H27.9794C27.976 15.9096 27.9719 15.8224 27.9672 15.7382C27.9339 15.1456 27.8641 14.6246 27.6887 14.1469C27.3452 13.2111 26.6472 12.6267 25.7775 11.8987L16 3.69458L6.22243 11.8987C5.35275 12.6268 4.65477 13.2111 4.31126 14.1469C4.13586 14.6246 4.06611 15.1456 4.03283 15.7382C3.99999 16.3227 4 17.0528 4 17.9694V28H19V26H6L6 18C6 17.0459 6.00037 16.3721 6.02968 15.8503C6.0589 15.3301 6.11414 15.0393 6.18875 14.8361C6.32766 14.4576 6.57491 14.2139 7.64278 13.3178L16 6.30538L24.3572 13.3178C25.4251 14.2139 25.6723 14.4576 25.8113 14.8361C25.8859 15.0393 25.9411 15.3301 25.9703 15.8503Z" fill="#000000" class="bmwfcol"/><path d="M16.9429 22.0571C18.2057 23.3199 19.9728 24 22 24V28H24V25C25.4272 25 26.6943 24.5199 27.6071 23.6071C28.5199 22.6943 29 21.4272 29 20V18H27C25.6433 18 24.4313 18.4338 23.5308 19.2607C23.2028 18.3767 22.7072 17.593 22.0571 16.9429C20.7943 15.6801 19.0272 15 17 15H15V17C15 19.0272 15.6801 20.7943 16.9429 22.0571ZM24 23C24 22.0272 24.3199 21.2943 24.8071 20.8071C25.2943 20.3199 26.0272 20 27 20C27 20.9728 26.6801 21.7057 26.1929 22.1929C25.7057 22.6801 24.9728 23 24 23ZM20.6429 18.3571C21.4801 19.1943 22 20.4272 22 22C20.4272 22 19.1943 21.4801 18.3571 20.6429C17.5199 19.8057 17 18.5728 17 17C18.5728 17 19.8057 17.5199 20.6429 18.3571Z" fill="#000000" class="bmwfcol"/><title>house_and_plant_rg_48</title></svg>