<svg width="48" height="48" viewBox="0 0 32 32" xmlns="http://www.w3.org/2000/svg"><path d="M23.9536 10.2073C24.6493 10.7895 25.2416 11.2851 25.5905 12H22.9738C22.8491 11.8925 22.7053 11.7708 22.539 11.6313L15 5.30538L7.46097 11.6313C6.484 12.4511 6.28221 12.6567 6.16602 12.9732C6.10278 13.1455 6.05322 13.3994 6.02684 13.869C6.00037 14.3402 6 14.9498 6 15.8182L6 23H9V25H4V15.7879C4 14.9567 3.99999 14.2908 4.02998 13.7569C4.06042 13.2149 4.1245 12.7308 4.28853 12.284C4.60944 11.4098 5.26223 10.8635 6.04639 10.2073L15 2.69458L23.9536 10.2073Z" fill="#000000" class="bmwfcol"/><path d="M13 16.5C13 16.2772 13.0699 16.1693 13.1196 16.1196C13.1693 16.0699 13.2772 16 13.5 16C13.7228 16 13.8307 16.0699 13.8804 16.1196C13.9301 16.1693 14 16.2772 14 16.5V25.5C14 26.1772 14.2301 26.8193 14.7054 27.2946C15.1807 27.7699 15.8228 28 16.5 28C17.1772 28 17.8193 27.7699 18.2946 27.2946C18.7699 26.8193 19 26.1772 19 25.5V16.5C19 16.2772 19.0699 16.1693 19.1196 16.1196C19.1693 16.0699 19.2772 16 19.5 16C19.7228 16 19.8307 16.0699 19.8804 16.1196C19.9301 16.1693 20 16.2772 20 16.5V25.5C20 26.1772 20.2301 26.8193 20.7054 27.2946C21.1807 27.7699 21.8228 28 22.5 28C23.1772 28 23.8193 27.7699 24.2946 27.2946C24.7699 26.8193 25 26.1772 25 25.5V16.5C25 16.2772 25.0699 16.1693 25.1196 16.1196C25.1693 16.0699 25.2772 16 25.5 16C25.7228 16 25.8307 16.0699 25.8804 16.1196C25.9301 16.1693 26 16.2772 26 16.5V27H28V25H30V23H28V16.5C28 15.8228 27.7699 15.1807 27.2946 14.7054C26.8193 14.2301 26.1772 14 25.5 14C24.8228 14 24.1807 14.2301 23.7054 14.7054C23.2301 15.1807 23 15.8228 23 16.5V25.5C23 25.7228 22.9301 25.8307 22.8804 25.8804C22.8307 25.9301 22.7228 26 22.5 26C22.2772 26 22.1693 25.9301 22.1196 25.8804C22.0699 25.8307 22 25.7228 22 25.5V16.5C22 15.8228 21.7699 15.1807 21.2946 14.7054C20.8193 14.2301 20.1772 14 19.5 14C18.8228 14 18.1807 14.2301 17.7054 14.7054C17.2301 15.1807 17 15.8228 17 16.5V25.5C17 25.7228 16.9301 25.8307 16.8804 25.8804C16.8307 25.9301 16.7228 26 16.5 26C16.2772 26 16.1693 25.9301 16.1196 25.8804C16.0699 25.8307 16 25.7228 16 25.5V16.5C16 15.8228 15.7699 15.1807 15.2946 14.7054C14.8193 14.2301 14.1772 14 13.5 14C12.8228 14 12.1807 14.2301 11.7054 14.7054C11.2301 15.1807 11 15.8228 11 16.5V17H9V19H11V27H13V16.5Z" fill="#000000" class="bmwfcol"/><title>house_and_radiator_rg_48</title></svg>