<svg width="48" height="48" viewBox="0 0 32 32" xmlns="http://www.w3.org/2000/svg"><path d="M28 18V6L24 6V4C24 3.48408 23.8378 2.95857 23.4396 2.5604C23.0414 2.16222 22.5159 2 22 2H20C19.4841 2 18.9586 2.16222 18.5604 2.5604C18.1622 2.95857 18 3.48408 18 4V6H14V4C14 3.48408 13.8378 2.95857 13.4396 2.5604C13.0414 2.16222 12.5159 2 12 2H10C9.48408 2 8.95856 2.16222 8.56039 2.5604C8.16222 2.95857 8 3.48408 8 4V6H4V21C4 21.8259 4.25722 22.6014 4.82789 23.1721C5.39856 23.7428 6.17408 24 7 24H15V22H7C6.58592 22 6.36144 21.8772 6.24211 21.7579C6.12278 21.6386 6 21.4141 6 21V8H8V10C8 10.5159 8.16222 11.0414 8.56039 11.4396C8.95856 11.8378 9.48408 12 10 12H12C12.5159 12 13.0414 11.8378 13.4396 11.4396C13.8378 11.0414 14 10.5159 14 10V8H18V10C18 10.5159 18.1622 11.0414 18.5604 11.4396C18.9586 11.8378 19.4841 12 20 12H22C22.5159 12 23.0414 11.8378 23.4396 11.4396C23.8378 11.0414 24 10.5159 24 10V8L26 8V18H28ZM10 4H12V10L10 10V4ZM22 4V10L20 10V4H22Z" fill="#000000" class="bmwfcol"/><path d="M24 18V16H18V18H24Z" fill="#000000" class="bmwfcol"/><path d="M10 18V20H12V18H14V16H12V14H10V16H8V18H10Z" fill="#000000" class="bmwfcol"/><path d="M20.1351 20.0552H18.2441V27.9499H20.1351V24.7393H22.737V27.9499H24.628V20.0552H22.737V22.9179H20.1351V20.0552Z" fill="#000000" class="bmwfcol"/><path d="M27.5699 24.5679C27.0064 24.5679 26.3388 24.7229 26.0919 24.7822L25.9386 24.819V26.366L26.1871 26.3039C26.4319 26.2427 27.0029 26.1011 27.4109 26.1011C27.5423 26.1011 27.6363 26.1061 27.7045 26.1172C27.7735 26.1283 27.798 26.143 27.805 26.1484C27.8276 26.166 27.8339 26.1775 27.8371 26.1849C27.8414 26.1948 27.8471 26.215 27.8471 26.2589C27.8471 26.2925 27.8367 26.3392 27.7684 26.4256C27.6968 26.5162 27.5782 26.6295 27.3891 26.7938L27.3882 26.7946C27.0696 27.0746 26.4623 27.5157 25.9537 27.8748L25.869 27.9346V29.2421H29.7381V27.7686H28.4756C28.6496 27.6109 28.8259 27.4395 28.9904 27.258L28.992 27.2563C29.1514 27.0764 29.2788 26.9068 29.3643 26.714C29.4511 26.5183 29.4896 26.3107 29.4896 26.0601C29.4896 25.6061 29.2859 25.1755 28.9411 24.925C28.6136 24.6801 28.1365 24.5679 27.5699 24.5679Z" fill="#000000" class="bmwfcol"/><title>hydrogen_production_rg_48</title></svg>