<svg width="48" height="48" viewBox="0 0 32 32" xmlns="http://www.w3.org/2000/svg"><path d="M18.2441 4.05518H20.1351V6.9179H22.737V4.05518H24.628V11.9499H22.737V8.73932H20.1351V11.9499H18.2441V4.05518Z" fill="#000000" class="bmwfcol"/><path d="M26.0919 8.7822C26.3388 8.72293 27.0064 8.56794 27.5699 8.56794C28.1365 8.56794 28.6136 8.68011 28.9411 8.92503C29.2859 9.17553 29.4896 9.60615 29.4896 10.0601C29.4896 10.3107 29.4511 10.5183 29.3643 10.714C29.2788 10.9068 29.1514 11.0764 28.992 11.2563L28.9904 11.258C28.8259 11.4395 28.6496 11.6109 28.4756 11.7686H29.7381V13.2421H25.869V11.9346L25.9537 11.8748C26.4623 11.5157 27.0696 11.0746 27.3882 10.7946L27.3891 10.7938C27.5782 10.6295 27.6968 10.5162 27.7684 10.4256C27.8367 10.3392 27.8471 10.2925 27.8471 10.2589C27.8471 10.215 27.8414 10.1948 27.8371 10.1849C27.8339 10.1775 27.8276 10.166 27.805 10.1484C27.798 10.143 27.7735 10.1283 27.7045 10.1172C27.6363 10.1061 27.5423 10.1011 27.4109 10.1011C27.0029 10.1011 26.4319 10.2427 26.1871 10.3039L25.9386 10.366V8.819L26.0919 8.7822Z" fill="#000000" class="bmwfcol"/><path d="M10 8V10H9V15H13V14H19V15H24C25.2806 15 26.5823 15.4396 27.5713 16.4287C28.5604 17.4177 29 18.7194 29 20V26H30V28H22V26H23V21H19V22H13V21H8C6.71941 21 5.41774 20.5604 4.42868 19.5713C3.43962 18.5823 3 17.2806 3 16V10H2V8H10ZM15 20H17V16H15V20ZM13 19V17H9C7.89543 17 7 16.1046 7 15V10H5V16C5 16.8284 5.28083 17.595 5.84289 18.1571C6.40495 18.7192 7.1716 19 8 19H13ZM19 19H23C24.1046 19 25 19.8954 25 21V26H27V20C27 19.1716 26.7192 18.405 26.1571 17.8429C25.595 17.2808 24.8284 17 24 17H19V19Z" fill="#000000" class="bmwfcol"/><title>hydrogen_pipeline_rg_48</title></svg>