<svg width="48" height="48" viewBox="0 0 32 32" xmlns="http://www.w3.org/2000/svg"><path d="M12.2709 10.5552H10.3799V18.4499H12.2709V15.2393H14.8728V18.4499H16.7638V10.5552H14.8728V13.4179H12.2709V10.5552Z" fill="#000000" class="bmwfcol"/><path d="M19.7057 15.0679C19.1422 15.0679 18.4746 15.2229 18.2277 15.2822L18.0744 15.319V16.866L18.3229 16.8039C18.5677 16.7427 19.1387 16.6011 19.5467 16.6011C19.6781 16.6011 19.7721 16.6061 19.8403 16.6172C19.9093 16.6283 19.9338 16.643 19.9408 16.6484C19.9634 16.666 19.9697 16.6775 19.9729 16.6849C19.9772 16.6948 19.9829 16.715 19.9829 16.7589C19.9829 16.7925 19.9725 16.8392 19.9042 16.9256C19.8326 17.0162 19.714 17.1295 19.5249 17.2938L19.524 17.2946C19.2054 17.5746 18.5981 18.0157 18.0895 18.3748L18.0048 18.4346V19.7421H21.8739V18.2686H20.6114C20.7854 18.1109 20.9617 17.9395 21.1263 17.758L21.1278 17.7563C21.2872 17.5764 21.4146 17.4068 21.5001 17.214C21.5869 17.0183 21.6254 16.8107 21.6254 16.5601C21.6254 16.1061 21.4217 15.6755 21.0769 15.425C20.7494 15.1801 20.2723 15.0679 19.7057 15.0679Z" fill="#000000" class="bmwfcol"/><path d="M6.28066 6H25.7193L25.9323 6.10775C29.1288 7.72548 31 10.9605 31 15C31 19.0395 29.1288 22.2745 25.9323 23.8922L25.7193 24H23V26H21V24H11V26H9V24H6.28066L6.06774 23.8922C2.87119 22.2745 1 19.0395 1 15C1 10.9605 2.87119 7.72548 6.06774 6.10775L6.28066 6ZM6.76605 8C4.44613 9.26821 3 11.7107 3 15C3 18.2893 4.44613 20.7318 6.76605 22H25.234C27.5539 20.7318 29 18.2893 29 15C29 11.7107 27.5539 9.26821 25.234 8H6.76605Z" fill="#000000" class="bmwfcol"/><title>hydrogen_storage_rg_48</title></svg>