<svg width="48" height="48" viewBox="0 0 32 32" xmlns="http://www.w3.org/2000/svg"><path d="M11.3732 1H13.1002L13.3031 1.0959C15.217 2.00055 16.3682 3.83393 16.4894 6.09887C16.5477 6.00267 16.6104 5.89765 16.6782 5.78287L17.3159 4.70356L18.2265 5.56517C19.3812 6.65774 20 8.21642 20 10C20 11.7272 19.4199 13.2443 18.3321 14.3321C17.2443 15.4199 15.7272 16 14 16C12.2728 16 10.7557 15.4199 9.66789 14.3321C8.58011 13.2443 8 11.7272 8 10C8 8.12801 9.09253 6.6008 9.94199 5.43582L10.0874 5.23684C10.481 4.69841 10.8217 4.23248 11.0823 3.7709C11.37 3.26124 11.5 2.85581 11.5 2.49999C11.5 2.36081 11.4934 2.22663 11.4807 2.09756L11.3732 1ZM13.3542 3.52096C13.2296 3.96462 13.037 4.37676 12.8239 4.75409C12.5012 5.32584 12.0857 5.89329 11.7031 6.41569C11.6541 6.48261 11.6057 6.5488 11.558 6.61417C10.6575 7.84919 10 8.87198 10 10C10 11.2727 10.4199 12.2557 11.0821 12.9179C11.7443 13.5801 12.7272 14 14 14C15.2728 14 16.2557 13.5801 16.9179 12.9179C17.5801 12.2557 18 11.2727 18 10C18 9.2456 17.8526 8.59281 17.5941 8.04803C17.4417 8.24542 17.2766 8.42644 17.0868 8.57465C16.5361 9.0046 15.9592 9.00198 15.5701 9.00021L15.5 9H14.5V6.5C14.5 5.2058 14.0688 4.19881 13.3542 3.52096Z" fill="#000000" class="bmwfcol"/><path d="M18.1351 21.0552H16.2441V28.95H18.1351V25.7394H20.7369V28.95H22.6279V21.0552H20.7369V23.918H18.1351V21.0552Z" fill="#000000" class="bmwfcol"/><path d="M25.5699 25.568C25.0064 25.568 24.3388 25.723 24.0919 25.7823L23.9385 25.8191V27.3661L24.1871 27.3039C24.4318 27.2427 25.0029 27.1012 25.4109 27.1012C25.5423 27.1012 25.6362 27.1062 25.7045 27.1172C25.7735 27.1284 25.7979 27.143 25.805 27.1485C25.8276 27.1661 25.8339 27.1775 25.8371 27.185C25.8413 27.1949 25.847 27.2151 25.847 27.259C25.847 27.2926 25.8367 27.3393 25.7684 27.4257C25.6968 27.5162 25.5782 27.6296 25.3891 27.7939L25.3882 27.7946C25.0696 28.0746 24.4623 28.5158 23.9536 28.8749L23.869 28.9346V30.2422H27.738V28.7687H26.4756C26.6496 28.611 26.8259 28.4396 26.9904 28.2581L26.9919 28.2564C27.1513 28.0764 27.2787 27.9069 27.3642 27.7141C27.4511 27.5183 27.4895 27.3108 27.4895 27.0602C27.4895 26.6062 27.2859 26.1756 26.941 25.9251C26.6136 25.6802 26.1365 25.568 25.5699 25.568Z" fill="#000000" class="bmwfcol"/><path d="M11 18H16V20H13V27C13 27.4372 13.1325 27.6813 13.4233 28H14V30H4V28H11.1425C11.0538 27.7084 11 27.3777 11 27V18Z" fill="#000000" class="bmwfcol"/><title>hydrogen_burner_rg_48</title></svg>