<svg width="48" height="48" viewBox="0 0 32 32" xmlns="http://www.w3.org/2000/svg"><path d="M15.9998 5.625C15.2404 5.625 14.6248 6.24061 14.6248 7C14.6248 7.75939 15.2404 8.375 15.9998 8.375C16.7592 8.375 17.3748 7.75939 17.3748 7C17.3748 6.24061 16.7592 5.625 15.9998 5.625Z" fill="#000000" class="bmwfcol"/><path d="M11.4998 14C10.6714 14 9.99979 14.6716 9.99979 15.5C9.99979 16.3284 10.6714 17 11.4998 17C12.3282 17 12.9998 16.3284 12.9998 15.5C12.9998 14.6716 12.3282 14 11.4998 14Z" fill="#000000" class="bmwfcol"/><path d="M20.4998 14C19.6714 14 18.9998 14.6716 18.9998 15.5C18.9998 16.3284 19.6714 17 20.4998 17C21.3282 17 21.9998 16.3284 21.9998 15.5C21.9998 14.6716 21.3282 14 20.4998 14Z" fill="#000000" class="bmwfcol"/><path d="M13.7357 21.1187C14.2239 21.6493 14.9807 22 15.9998 22C17.0188 22 17.7757 21.6493 18.2638 21.1187L19.7357 22.4728C18.8175 23.471 17.4975 24 15.9998 24C14.5021 24 13.1821 23.471 12.2638 22.4728L13.7357 21.1187Z" fill="#000000" class="bmwfcol"/><path d="M7.31768 6.31789C9.45546 4.18011 12.4725 3 15.9998 3C19.527 3 22.5441 4.18011 24.6819 6.31789C25.3982 7.03423 25.9182 7.72259 26.3582 8.30503C26.5358 8.54011 26.7004 8.75799 26.8595 8.95344C27.428 9.65155 28.1112 10.3324 29.4996 11.134L29.9996 11.4226V13.253L28.5921 21.2353L27.4996 21.866C26.655 22.3537 26.1808 22.6837 25.8137 23.0268C25.4494 23.3674 25.1515 23.757 24.7006 24.4283C22.761 27.316 19.7071 29 15.9998 29C12.2925 29 9.2386 27.316 7.29894 24.4283C6.84802 23.757 6.55017 23.3674 6.18585 23.0268C5.81879 22.6837 5.34461 22.3537 4.49999 21.866L3.40748 21.2353L2 13.253V11.4226L2.5 11.134C3.88836 10.3324 4.57153 9.65155 5.14003 8.95344C5.29919 8.758 5.46373 8.54019 5.6413 8.30511C6.08129 7.72266 6.60132 7.03425 7.31768 6.31789ZM15.9998 5C13.3508 5 11.1401 5.75799 9.48375 7.0641C10.4896 8.0496 10.9896 8.45943 11.6009 8.68867C11.9694 8.82687 12.4212 8.9111 13.1247 8.95507C13.8362 8.99955 14.7373 9 15.9998 9C17.2623 9 18.1633 8.99955 18.8749 8.95507C19.5784 8.9111 20.0301 8.82687 20.3987 8.68867C21.01 8.45943 21.51 8.0496 22.5158 7.0641C20.8594 5.75799 18.6488 5 15.9998 5ZM7.33203 9.38886C7.13405 9.65177 6.93056 9.922 6.69085 10.2164C6.05565 10.9964 5.2981 11.7517 4 12.5654V13.0781L5.21515 19.9695L5.49999 20.134C6.38742 20.6463 7.01743 21.0663 7.55172 21.5659C8.08874 22.0679 8.4894 22.6137 8.95918 23.3131C10.5263 25.6463 12.9569 27 15.9998 27C19.0426 27 21.4732 25.6463 23.0404 23.3131C23.5102 22.6137 23.9108 22.0679 24.4479 21.5659C24.9821 21.0663 25.6121 20.6463 26.4996 20.134L26.7844 19.9695L27.9996 13.0781V12.5654C26.7015 11.7517 25.9439 10.9964 25.3087 10.2164C25.069 9.92202 24.8655 9.65176 24.6675 9.38886C24.4354 9.08061 24.2109 8.78241 23.9444 8.46712C22.9102 9.48604 22.115 10.1811 21.1009 10.5613C20.4694 10.7981 19.7962 10.9014 18.9997 10.9512C18.2184 11 17.2549 11 16.0334 11H15.9661C14.7446 11 13.7812 11 12.9999 10.9512C12.2034 10.9014 11.5301 10.7981 10.8987 10.5613C9.8846 10.1811 9.0894 9.48604 8.05521 8.46712C7.78871 8.7824 7.56415 9.08061 7.33203 9.38886Z" fill="#000000" class="bmwfcol"/><title>i4x4_rg_48</title></svg>