<svg width="48" height="48" viewBox="0 0 32 32" xmlns="http://www.w3.org/2000/svg"><path d="M25 3H7V7.01421L7.29289 7.30711C7.29164 7.30586 7.29467 7.30919 7.30174 7.31695C7.35198 7.37215 7.60425 7.6493 7.97291 8.09764C8.38514 8.59895 8.92425 9.29188 9.45836 10.084C9.99424 10.8788 10.5131 11.7559 10.8952 12.6268C11.2817 13.5077 11.5 14.3192 11.5 15V25.5C11.5 26.3267 11.6312 27.2041 12.1238 27.8937C12.6644 28.6506 13.5034 29 14.5 29H17.5C18.4966 29 19.3356 28.6506 19.8762 27.8937C20.3688 27.2041 20.5 26.3267 20.5 25.5L20.5 15C20.5 14.3192 20.7183 13.5077 21.1048 12.6268C21.4869 11.7559 22.0058 10.8788 22.5416 10.084C23.0758 9.29188 23.6149 8.59895 24.0271 8.09764C24.3958 7.64929 24.6479 7.37224 24.6982 7.31706C24.7053 7.30922 24.7084 7.30585 24.7071 7.30711L25 7.01422V3ZM9 6.2166V5H11V7H13V5H15V7H17V5H19V7H21V5H23V6.2166C22.5653 6.7125 21.7195 7.72584 20.8834 8.96596C20.3067 9.82117 19.7194 10.8066 19.2733 11.8232C18.8317 12.8298 18.5 13.9308 18.5 15L18.5 25.5C18.5 26.1733 18.3812 26.5459 18.2488 26.7313C18.1644 26.8494 18.0034 27 17.5 27H14.5C13.9966 27 13.8356 26.8494 13.7512 26.7313C13.6188 26.5459 13.5 26.1733 13.5 25.5V15C13.5 13.9308 13.1683 12.8298 12.7267 11.8232C12.2806 10.8066 11.6933 9.82117 11.1166 8.96596C10.2805 7.72584 9.43471 6.7125 9 6.2166Z" fill="#000000" class="bmwfcol"/><title>ice_scraper_rg_48</title></svg>