<svg width="48" height="48" viewBox="0 0 32 32" xmlns="http://www.w3.org/2000/svg"><path d="M26 9.98552V12.2877C24.7186 11.5482 23.7627 11.0158 22.8035 10.6436C21.7104 10.2196 20.5964 10 19 10C17.2068 10 16.2773 10.0102 15.347 10.3229C14.4221 10.6338 13.4192 11.2757 11.643 12.7661L11.4015 12.9688L11.0873 12.9962C7.78642 13.2848 6.24237 13.4223 5.19911 13.6541C4.38084 13.836 3.89751 14.0682 3.00021 14.5788L3.00009 16.733C3.22405 16.7907 3.40571 16.8358 3.55633 16.8712C3.85255 15.2383 5.28167 14 7 14C8.933 14 10.5 15.567 10.5 17.5C10.5 19.433 8.933 21 7 21C5.58797 21 4.37123 20.1638 3.81795 18.9596C3.74551 18.9496 3.66771 18.937 3.58273 18.9214C3.19989 18.8509 2.66139 18.7159 1.74122 18.4693L1 18.2707L1.00027 13.4226L1.54774 13.1066C2.75292 12.4107 3.4897 11.9853 4.76518 11.7018C5.93254 11.4423 7.57816 11.2954 10.6006 11.0311C12.2706 9.6468 13.4632 8.84618 14.7097 8.42714C15.9815 7.99962 17.2361 7.99979 18.8866 8.00001C20.6989 8.00001 22.1754 8.25471 23.5269 8.77906C24.3342 9.09227 25.1308 9.50041 26 9.98552ZM7 16C6.17157 16 5.5 16.6716 5.5 17.5C5.5 18.3284 6.17157 19 7 19C7.82843 19 8.5 18.3284 8.5 17.5C8.5 16.6716 7.82843 16 7 16Z" fill="#000000" class="bmwfcol"/><path d="M14 16V20H12V16H14Z" fill="#000000" class="bmwfcol"/><path d="M18 14V22H16V14H18Z" fill="#000000" class="bmwfcol"/><path d="M22 12V24H20V12L22 12Z" fill="#000000" class="bmwfcol"/><path d="M26 15V21H24V15H26Z" fill="#000000" class="bmwfcol"/><path d="M30 12V24H28V12H30Z" fill="#000000" class="bmwfcol"/><title>iconic-sound_rg_48</title></svg>