<svg width="48" height="48" viewBox="0 0 32 32" xmlns="http://www.w3.org/2000/svg"><path d="M8.13664 11.0116C8.93752 10.2108 10.0043 10 11 10C11.9957 10 13.0625 10.2108 13.8634 11.0116C14.661 11.8093 15 12.9973 15 14.5C15 16.0027 14.661 17.1907 13.8634 17.9884C13.0625 18.7892 11.9957 19 11 19C10.0043 19 8.93752 18.7892 8.13664 17.9884C7.33898 17.1907 7 16.0027 7 14.5C7 12.9973 7.33898 11.8093 8.13664 11.0116ZM9.55086 12.4259C9.28602 12.6907 9 13.2527 9 14.5C9 15.7473 9.28602 16.3093 9.55086 16.5741C9.81248 16.8358 10.2457 17 11 17C11.7543 17 12.1875 16.8358 12.4491 16.5741C12.714 16.3093 13 15.7473 13 14.5C13 13.2527 12.714 12.6907 12.4491 12.4259C12.1875 12.1642 11.7543 12 11 12C10.2457 12 9.81248 12.1642 9.55086 12.4259Z" fill="#000000" class="bmwfcol"/><path d="M26 15H18V13H26V15Z" fill="#000000" class="bmwfcol"/><path d="M18 19H26V17H18V19Z" fill="#000000" class="bmwfcol"/><path d="M4 6C3.48408 6 2.95856 6.16222 2.56039 6.56039C2.16222 6.95856 2 7.48408 2 8V24C2 24.5159 2.16222 25.0414 2.56039 25.4396C2.95856 25.8378 3.48408 26 4 26H28C28.5159 26 29.0414 25.8378 29.4396 25.4396C29.8378 25.0414 30 24.5159 30 24V8C30 7.48408 29.8378 6.95856 29.4396 6.56039C29.0414 6.16222 28.5159 6 28 6H4ZM4 24V8H28V24H17.5343L17.4652 23.7416C17.066 22.2491 16.6037 21.0654 15.3839 20.4749C14.826 20.2049 14.1887 20.0995 13.5062 20.0495C12.8291 20 12.0051 20 11.0342 20C10.0633 20 9.16919 20 8.49213 20.0495C7.80963 20.0995 7.17228 20.2049 6.61438 20.4749C5.39459 21.0654 4.93233 22.2491 4.53312 23.7416L4.464 24H4ZM6.53647 24C6.90307 22.7135 7.17593 22.4251 7.48578 22.2751C7.70257 22.1702 8.03976 22.088 8.63813 22.0442C9.2338 22.0006 9.98531 22 10.9992 22C12.013 22 12.7645 22.0006 13.3602 22.0442C13.9586 22.088 14.2957 22.1702 14.5125 22.2751C14.8224 22.4251 15.0952 22.7135 15.4618 24H6.53647Z" fill="#000000" class="bmwfcol"/><title>id-card_rg_48</title></svg>