<svg width="48" height="48" viewBox="0 0 32 32" xmlns="http://www.w3.org/2000/svg"><path d="M16 5C13.6806 5 11.5289 5.71785 9.75485 6.94349L8.46997 5.40162C10.5946 3.88936 13.1935 3 16 3C18.8066 3 21.4056 3.88942 23.5303 5.40179L22.2454 6.94365C20.4713 5.71791 18.3195 5 16 5Z" fill="#000000" class="bmwfcol"/><path d="M6.93417 6.68276L8.21904 8.22462C6.23007 10.215 5 12.9639 5 16C5 17.6033 5.34303 19.1266 5.9597 20.5003L4.21009 21.4844C3.4336 19.818 3 17.9596 3 16C3 12.3462 4.50737 9.04448 6.93417 6.68276Z" fill="#000000" class="bmwfcol"/><path d="M6.94172 22.2426L5.19214 23.2267C7.52463 26.7082 11.4947 29 16 29C20.5053 29 24.4754 26.7082 26.8079 23.2267L25.0583 22.2426C23.2519 24.8588 20.3414 26.654 17 26.9552V20H15V26.9552C11.6586 26.654 8.74811 24.8588 6.94172 22.2426Z" fill="#000000" class="bmwfcol"/><path d="M27.7899 21.4844L26.0403 20.5003C26.657 19.1266 27 17.6033 27 16C27 12.964 25.77 10.2152 23.7812 8.22481L25.066 6.68296C27.4927 9.04466 29 12.3463 29 16C29 17.9596 28.5664 19.818 27.7899 21.4844Z" fill="#000000" class="bmwfcol"/><path d="M14 16C14 14.8954 14.8954 14 16 14C17.1046 14 18 14.8954 18 16C18 17.1046 17.1046 18 16 18C14.8954 18 14 17.1046 14 16Z" fill="#000000" class="bmwfcol"/><title>ifactory_logo_rg_48</title></svg>