<svg width="48" height="48" viewBox="0 0 32 32" xmlns="http://www.w3.org/2000/svg"><path d="M13 10.5C12.1716 10.5 11.5 11.1716 11.5 12C11.5 12.8284 12.1716 13.5 13 13.5C13.8284 13.5 14.5 12.8284 14.5 12C14.5 11.1716 13.8284 10.5 13 10.5Z" fill="#000000" class="bmwfcol"/><path d="M5 5C4.48408 5 3.95856 5.16222 3.56039 5.56039C3.16222 5.95856 3 6.48408 3 7V25C3 25.5159 3.16222 26.0414 3.56039 26.4396C3.95856 26.8378 4.48408 27 5 27H27C27.5159 27 28.0414 26.8378 28.4396 26.4396C28.8378 26.0414 29 25.5159 29 25V7C29 6.48408 28.8378 5.95856 28.4396 5.56039C28.0414 5.16222 27.5159 5 27 5H5ZM5 20.5859V7H27V18.5857L21.0001 12.5858L14.0001 19.5858L10.0001 15.5858L5 20.5859ZM5 23.4143L10.0001 18.4142L14.0001 22.4142L21.0001 15.4142L27 21.4142V25H5V23.4143Z" fill="#000000" class="bmwfcol"/><title>image_rg_48</title></svg>