<svg width="48" height="48" viewBox="0 0 32 32" xmlns="http://www.w3.org/2000/svg"><path d="M9 2C6.69458 2 5.35785 2.04683 4.54429 2.14621C4.13582 2.1961 3.80003 2.26552 3.51732 2.37786C3.19858 2.50452 2.99167 2.66787 2.82977 2.82977C2.67895 2.98059 2.52544 3.17093 2.3994 3.44373C2.28173 3.69839 2.20585 3.98635 2.15189 4.31695C2.04647 4.96279 2 5.93991 2 7.5V15H3.91421L5.91421 13H9C11.3054 13 12.6421 12.9532 13.4557 12.8538C13.8642 12.8039 14.2 12.7345 14.4827 12.6221C14.8014 12.4955 15.0083 12.3321 15.1702 12.1702C15.3211 12.0194 15.4746 11.8291 15.6006 11.5563C15.7183 11.3016 15.7941 11.0136 15.8481 10.6831C15.9535 10.0372 16 9.06009 16 7.5C16 5.93991 15.9535 4.96279 15.8481 4.31695C15.7941 3.98635 15.7183 3.69839 15.6006 3.44373C15.4746 3.17093 15.321 2.98059 15.1702 2.82977C15.0083 2.66787 14.8014 2.50452 14.4827 2.37786C14.2 2.26552 13.8642 2.1961 13.4557 2.14621C12.6421 2.04683 11.3054 2 9 2ZM4.2559 4.23649C4.30806 4.21577 4.4502 4.17257 4.7868 4.13145C5.4634 4.0488 6.68542 4 9 4C11.3146 4 12.5366 4.0488 13.2132 4.13145C13.5498 4.17257 13.6919 4.21577 13.7441 4.23649C13.8522 4.27945 13.8589 4.54546 13.8742 4.63915C13.9508 5.10846 14 5.94009 14 7.5C14 9.05991 13.9508 9.89154 13.8742 10.3609C13.8608 10.4429 13.8336 10.7279 13.7441 10.7635C13.6919 10.7842 13.5498 10.8274 13.2132 10.8686C12.5366 10.9512 11.3146 11 9 11H5.08579L4 12.0858V7.5C4 5.94009 4.04916 5.10846 4.12577 4.63915C4.1386 4.56053 4.15075 4.27828 4.2559 4.23649Z" fill="#000000" class="bmwfcol"/><path d="M18.8866 15C20.4772 15.0002 22.0372 15.2011 23.5269 15.7791C24.935 16.3254 26.2382 17.1138 27.5411 17.8685L29.9999 18.0837L30 20C30 20.6844 30.5543 21.14 31 21.5858L31.0003 24.5773L30.5002 24.866C29.6385 25.3636 29.0328 25.6793 28.4102 25.8424C27.9981 25.9503 27.6002 25.9845 27.1655 25.9952C26.6047 27.1803 25.3981 28 24 28C22.6038 28 21.3986 27.1825 20.8368 26H10.1632C9.60144 27.1825 8.39619 28 7 28C5.58797 28 4.37123 27.1638 3.81795 25.9596C2.86095 25.827 1.9305 25.52 1 25.2707L1.00027 20.4226C2.20612 19.7264 3.38894 19.0076 4.76518 18.7018C5.93254 18.4423 7.57816 18.2954 10.6006 18.0311C12.2706 16.6468 13.4632 15.8462 14.7097 15.4271C15.9815 14.9996 17.2361 14.9998 18.8866 15ZM27.4615 23.9791C28.0215 23.9347 28.5135 23.6836 29.0002 23.4165L29.0001 22.3995C28.6134 21.9705 28.3537 21.5768 28.1966 21.1839C28.0326 20.7739 28 20.352 28 19.9163L26.9239 19.8222C25.583 19.0461 24.2524 18.2058 22.8035 17.6436C21.7104 17.2196 20.5964 17 19 17C17.2068 17 16.2773 17.0102 15.347 17.3229C13.8445 17.828 12.5943 18.9679 11.4015 19.9688C9.34668 20.1484 7.21885 20.2052 5.19911 20.6541C4.38084 20.836 3.89751 21.0682 3.00021 21.5788L3.00009 23.733C3.22405 23.7907 3.40571 23.8358 3.55633 23.8712C3.85255 22.2383 5.28167 21 7 21C8.76324 21 10.222 22.3039 10.4646 24H20.5354C20.778 22.3039 22.2368 21 24 21C25.756 21 27.2099 22.2931 27.4615 23.9791ZM5.5 24.5C5.5 25.3284 6.17157 26 7 26C7.82843 26 8.5 25.3284 8.5 24.5C8.5 23.6716 7.82843 23 7 23C6.17157 23 5.5 23.6716 5.5 24.5ZM22.5 24.5C22.5 25.3284 23.1716 26 24 26C24.8284 26 25.5 25.3284 25.5 24.5C25.5 23.6716 24.8284 23 24 23C23.1716 23 22.5 23.6716 22.5 24.5Z" fill="#000000" class="bmwfcol"/><title>in-car-communication_rg_48</title></svg>