<svg width="48" height="48" viewBox="0 0 32 32" xmlns="http://www.w3.org/2000/svg"><path d="M9.64961 2.99951C8.82118 2.99951 8.14961 3.67108 8.14961 4.49951C8.14961 5.32794 8.82118 5.99951 9.64961 5.99951C10.478 5.99951 11.1496 5.32794 11.1496 4.49951C11.1496 3.67108 10.478 2.99951 9.64961 2.99951Z" fill="#000000" class="bmwfcol"/><path d="M7.5 9H9V14H7V16H13V14H11V7H7.5V9Z" fill="#000000" class="bmwfcol"/><path d="M28 28V26H26V22.1355C26 21.8497 25.9695 21.4725 25.8019 21.0823C25.6273 20.6759 25.3319 20.3193 24.9021 20.0383C24.0983 19.5126 22.848 19.2666 21 19.2666C19.152 19.2666 17.9017 19.5126 17.0979 20.0383C16.6681 20.3193 16.3727 20.6759 16.1981 21.0823C16.0305 21.4725 16 21.8497 16 22.1355V26H4V28L28 28ZM24 22.1355V26H18V22.1355C18 21.9868 18.0179 21.9132 18.0358 21.8716C18.0467 21.8461 18.0739 21.7897 18.1925 21.7122C18.4854 21.5206 19.2351 21.2666 21 21.2666C22.7649 21.2666 23.5146 21.5206 23.8075 21.7122C23.9261 21.7897 23.9533 21.8461 23.9642 21.8716C23.9821 21.9132 24 21.9868 24 22.1355Z" fill="#000000" class="bmwfcol"/><path d="M21.0004 12.575C20.3737 12.575 19.6375 12.6991 19.0687 13.2408C18.4929 13.7892 18.2754 14.5852 18.2754 15.5C18.2754 16.4147 18.4929 17.2107 19.0687 17.7591C19.6375 18.3008 20.3737 18.425 21.0004 18.425C21.6271 18.425 22.3633 18.3008 22.9321 17.7591C23.5079 17.2107 23.7254 16.4147 23.7254 15.5C23.7254 14.5852 23.5079 13.7892 22.9321 13.2408C22.3633 12.6991 21.6271 12.575 21.0004 12.575ZM20.1254 15.5C20.1254 14.8433 20.2829 14.6392 20.3446 14.5805C20.4133 14.5151 20.5771 14.425 21.0004 14.425C21.4237 14.425 21.5875 14.5151 21.6562 14.5805C21.7179 14.6392 21.8754 14.8433 21.8754 15.5C21.8754 16.1566 21.7179 16.3607 21.6562 16.4194C21.5875 16.4848 21.4237 16.575 21.0004 16.575C20.5771 16.575 20.4133 16.4848 20.3446 16.4194C20.2829 16.3607 20.1254 16.1566 20.1254 15.5Z" fill="#000000" class="bmwfcol"/><title>information_desk_rg_48</title></svg>