<svg width="48" height="48" viewBox="0 0 32 32" xmlns="http://www.w3.org/2000/svg"><path d="M29 6H20V8.54353L20.6141 8.80039C21.4805 9.16275 22.0757 9.8247 22.4629 10.5598C22.8574 11.3088 23 12.0686 23 12.5V19.5C23 19.9197 22.8518 20.6727 22.4505 21.4235C22.0564 22.1605 21.4572 22.8249 20.605 23.1913L20 23.4515V26H29V6ZM24.2324 9.62768C23.9347 9.06249 23.5315 8.49444 23.0016 8H27V24H22.9691C23.5028 23.5035 23.9113 22.933 24.2142 22.3664C24.758 21.3493 25 20.2745 25 19.5V12.5C25 11.7322 24.7728 10.6536 24.2324 9.62768Z" fill="#000000" class="bmwfcol"/><path d="M3 11V13H6.38579L7.38579 14H10.2142L7.21421 11H3Z" fill="#000000" class="bmwfcol"/><path d="M10.2142 18H7.38579L6.38579 19H3V21H7.21421L10.2142 18Z" fill="#000000" class="bmwfcol"/><path d="M16.5 17L16.5 19.0248C16.4996 19.2792 16.4986 19.9521 16.7683 20.5814C16.9161 20.9262 17.1596 21.2958 17.5573 21.5756C17.961 21.8597 18.4508 22 19 22C19.5491 22 20.0389 21.8597 20.4427 21.5756C20.8404 21.2958 21.0839 20.9262 21.2316 20.5814C21.5013 19.9521 21.5004 19.2792 21.5 19.0248V12.9752C21.5004 12.7208 21.5013 12.0479 21.2316 11.4186C21.0839 11.0738 20.8404 10.7042 20.4427 10.4244C20.0389 10.1403 19.5491 10 19 10C18.4508 10 17.961 10.1403 17.5573 10.4244C17.1596 10.7042 16.9161 11.0738 16.7683 11.4186C16.4986 12.0479 16.4996 12.7208 16.5 12.9752L16.5 15H3V17H16.5ZM18.5 13C18.5 12.7328 18.5106 12.4304 18.6066 12.2064C18.6464 12.1137 18.6841 12.077 18.7083 12.06C18.7264 12.0472 18.7991 12 19 12C19.2008 12 19.2735 12.0472 19.2917 12.06C19.3159 12.077 19.3536 12.1137 19.3933 12.2064C19.4893 12.4304 19.5 12.7328 19.5 13V19C19.5 19.2672 19.4894 19.5696 19.3933 19.7936C19.3536 19.8863 19.3159 19.923 19.2917 19.94C19.2735 19.9528 19.2008 20 19 20C18.7991 20 18.7264 19.9528 18.7083 19.94C18.6841 19.923 18.6464 19.8863 18.6066 19.7936C18.5106 19.5696 18.5 19.2672 18.5 19V13Z" fill="#000000" class="bmwfcol"/><path d="M18 6H9V10.9142L12.0858 14H15V12.5C15 12.0686 15.1426 11.3088 15.5371 10.5598C15.9243 9.8247 16.5195 9.16275 17.3859 8.80039L18 8.54353V6ZM14.9984 8C14.4685 8.49444 14.0653 9.06249 13.7676 9.62768C13.3363 10.4465 13.1045 11.2989 13.0285 12H12.9142L11 10.0858V8H14.9984Z" fill="#000000" class="bmwfcol"/><path d="M15 18H12.0858L9 21.0858V26H18V23.4515L17.395 23.1913C16.5428 22.8249 15.9436 22.1605 15.5495 21.4235C15.1482 20.6727 15 19.9197 15 19.5V18ZM13.0298 20C13.1094 20.7038 13.3512 21.5535 13.7858 22.3664C14.0887 22.933 14.4972 23.5035 15.0309 24H11V21.9142L12.9142 20H13.0298Z" fill="#000000" class="bmwfcol"/><title>injection_molding_rg_48</title></svg>