<svg width="48" height="48" viewBox="0 0 32 32" xmlns="http://www.w3.org/2000/svg"><path d="M4 4.22412V6.30297C4.69766 6.51024 5.1442 6.69606 5.72777 7.06739C6.37495 7.47921 7.17017 8.10785 8.50607 9.21755C6.75457 9.37943 5.62895 9.50979 4.76518 9.70177C3.38894 10.0076 2.20612 10.7264 1.00027 11.4226L1 16.2707C1.93008 16.5199 2.86307 16.8273 3.81799 16.9596C4.37127 18.1638 5.588 19 7.00004 19C8.39624 19 9.6015 18.1825 10.1632 17H13V24H2V26H30V24H19V17H20.8369C21.3986 18.1825 22.6038 19 24 19C25.3981 19 26.6048 18.1803 27.1655 16.9952C28.6166 16.9594 29.7668 16.2895 31.0003 15.5773L31 12.5858C30.5543 12.14 30 11.6844 30 11L29.9999 9.08365L27.5411 8.86853C26.2382 8.11381 24.935 7.32539 23.5269 6.77906C22.1754 6.25471 20.8122 6.00002 19 6.00002C17.564 5.99989 16.0887 5.96357 14.7097 6.42714C13.5663 6.81152 12.4683 7.51697 11.0055 8.69951C8.93076 6.95945 7.75147 5.98454 6.80147 5.38004C5.83265 4.76356 5.08053 4.51883 4 4.22412ZM27.4615 14.9791C27.21 13.2932 25.756 12 24 12C22.2368 12 20.7781 13.3039 20.5355 15H10.4646C10.222 13.3039 8.76328 12 7.00004 12C5.28171 12 3.8526 13.2383 3.55638 14.8712C3.40574 14.8358 3.22407 14.7907 3.00009 14.733L3.00021 12.5788C3.89751 12.0682 4.38084 11.836 5.19911 11.6541C7.21884 11.2052 9.34668 11.1484 11.4015 10.9688C12.5943 9.96786 13.8445 8.82797 15.347 8.3229C16.2773 8.01015 17.2068 8.00002 19 8.00002C20.5964 8.00002 21.7104 8.21955 22.8035 8.64364C24.2524 9.20583 25.583 10.0461 26.9239 10.8222L28 10.9163C28 11.9009 28.343 12.6705 29.0001 13.3995L29.0002 14.4165C28.5135 14.6836 28.0215 14.9346 27.4615 14.9791ZM15 17H17V24H15V17ZM7.00004 14C7.82847 14 8.50004 14.6716 8.50004 15.5C8.50004 16.3284 7.82847 17 7.00004 17C6.17162 17 5.50004 16.3284 5.50004 15.5C5.50004 14.6716 6.17162 14 7.00004 14ZM22.5 15.5C22.5 14.6716 23.1716 14 24 14C24.8285 14 25.5 14.6716 25.5 15.5C25.5 16.3284 24.8285 17 24 17C23.1716 17 22.5 16.3284 22.5 15.5Z" fill="#000000" class="bmwfcol"/><title>inspection_rg_48</title></svg>