<svg width="48" height="48" viewBox="0 0 32 32" xmlns="http://www.w3.org/2000/svg"><path d="M28 2H16L16 8.18181C16 9.58114 16.2539 10.9311 17.0958 12.2447C17.9243 13.5373 19.2654 14.706 21.2747 15.866L21.5068 16H22.4932L22.7253 15.866C24.7346 14.706 26.0757 13.5373 26.9042 12.2447C27.7461 10.9311 28 9.58114 28 8.18182L28 2ZM18 8.18182L18 4H26L26 8.18181C26 9.31885 25.7993 10.2621 25.2203 11.1655C24.6577 12.0433 23.686 12.9643 22 13.9726C20.314 12.9643 19.3423 12.0433 18.7797 11.1655C18.2007 10.2621 18 9.31885 18 8.18182Z" fill="#000000" class="bmwfcol"/><path d="M6 6H14L14 8H6V14H15.889C16.4429 14.7167 17.1127 15.3778 17.8944 16H6V28H22V18H23.0291L23.7253 17.5981C23.8178 17.5447 23.9094 17.491 24 17.4371V28C24 28.5159 23.8378 29.0414 23.4396 29.4396C23.0414 29.8378 22.5159 30 22 30H6C5.48408 30 4.95856 29.8378 4.56039 29.4396C4.16222 29.0414 4 28.5159 4 28V8C4 7.48408 4.16222 6.95856 4.56039 6.56039C4.95856 6.16222 5.48408 6 6 6Z" fill="#000000" class="bmwfcol"/><path d="M12.5 20C12.5 19.1716 13.1716 18.5 14 18.5C14.8284 18.5 15.5 19.1716 15.5 20C15.5 20.8284 14.8284 21.5 14 21.5C13.1716 21.5 12.5 20.8284 12.5 20Z" fill="#000000" class="bmwfcol"/><path d="M7.5 20C7.5 19.1716 8.17157 18.5 9 18.5C9.82843 18.5 10.5 19.1716 10.5 20C10.5 20.8284 9.82843 21.5 9 21.5C8.17157 21.5 7.5 20.8284 7.5 20Z" fill="#000000" class="bmwfcol"/><path d="M17.5 20C17.5 19.1716 18.1716 18.5 19 18.5C19.8284 18.5 20.5 19.1716 20.5 20C20.5 20.8284 19.8284 21.5 19 21.5C18.1716 21.5 17.5 20.8284 17.5 20Z" fill="#000000" class="bmwfcol"/><path d="M17.5 25C17.5 24.1716 18.1716 23.5 19 23.5C19.8284 23.5 20.5 24.1716 20.5 25C20.5 25.8284 19.8284 26.5 19 26.5C18.1716 26.5 17.5 25.8284 17.5 25Z" fill="#000000" class="bmwfcol"/><path d="M8.83411 23.75C8.17168 23.75 7.55078 24.2648 7.55078 25C7.55078 25.7352 8.17168 26.25 8.83411 26.25H14.1674C14.8299 26.25 15.4508 25.7352 15.4508 25C15.4508 24.2648 14.8299 23.75 14.1674 23.75H8.83411Z" fill="#000000" class="bmwfcol"/><title>insurance-calculator_rg_48</title></svg>