<svg width="48" height="48" viewBox="0 0 32 32" xmlns="http://www.w3.org/2000/svg"><path d="M15.346 7.92198C15.4852 8.06121 15.5677 8.10036 15.6149 8.11548C15.6588 8.12958 15.7537 8.14921 15.9617 8.10748C16.4406 8.01143 17.1984 7.66549 18.5639 6.88153L19.2277 6.50044L25.2528 12.5256L24.8718 13.1893C24.0878 14.5548 23.7419 15.3127 23.6458 15.7915C23.6041 15.9996 23.6237 16.0944 23.6378 16.1384C23.6529 16.1856 23.6921 16.268 23.8313 16.4073L25.9526 18.5286C26.1358 18.7118 26.2594 18.7289 26.3062 18.7289C26.3529 18.7289 26.4765 18.7118 26.6597 18.5286L28.634 16.5543C28.2035 15.0549 27.7182 13.827 27.0161 12.6303C26.2269 11.285 25.1391 9.93691 23.4777 8.27555C21.8164 6.61418 20.4683 5.52634 19.123 4.73715C17.9263 4.03512 16.6983 3.54974 15.199 3.11926L13.2247 5.09356C13.0415 5.27676 13.0244 5.40034 13.0244 5.44711C13.0244 5.49388 13.0415 5.61745 13.2247 5.80067L15.346 7.92198ZM11.8105 7.21486C11.336 6.74044 11.0244 6.13216 11.0244 5.44709C11.0244 4.76201 11.3361 4.15375 11.8105 3.67934L14.605 0.884766L15.1626 1.03395C17.0253 1.53238 18.5887 2.10499 20.135 3.01207C21.6767 3.91646 23.1592 5.12858 24.892 6.86133C26.6247 8.59408 27.8368 10.0766 28.7412 11.6183C29.6483 13.1646 30.2209 14.728 30.7193 16.5907L30.8685 17.1482L28.0739 19.9428C27.5995 20.4172 26.9913 20.7289 26.3062 20.7289C25.6211 20.7289 25.0128 20.4172 24.5384 19.9428L22.4171 17.8215C22.1313 17.5357 21.8746 17.1897 21.7333 16.749C21.591 16.3051 21.5937 15.8527 21.6849 15.3982C21.825 14.6994 22.2035 13.8763 22.7609 12.862L18.8913 8.99237C17.877 9.54982 17.0539 9.92825 16.3551 10.0684C15.9006 10.1596 15.4482 10.1623 15.0043 10.02C14.5636 9.87871 14.2176 9.62198 13.9318 9.33622L11.8105 7.21486Z" fill="#000000" class="bmwfcol"/><path d="M2.07331 26.0367V27.9965L2.23771 28.027C2.97582 28.1641 4.14081 28.3804 5.054 28.3804C6.25279 28.3804 7.00607 28.1863 7.61909 27.7005C8.22715 27.221 8.50168 26.5534 8.50168 25.7394C8.50168 25.0066 8.24261 24.3399 7.76349 23.9321C7.39759 23.6138 6.90863 23.4547 6.32512 23.2671L4.94454 22.8317C4.50187 22.6913 4.31314 22.6257 4.15376 22.5111C4.05981 22.44 4.01224 22.3391 4.01224 22.0884C4.01224 21.9795 4.02436 21.9054 4.04875 21.8465C4.07181 21.7909 4.1115 21.7352 4.18951 21.6733C4.35021 21.5517 4.59744 21.5136 5.16014 21.5136C5.49596 21.5136 6.0003 21.5847 6.52156 21.6789C7.03881 21.7724 7.55822 21.8857 7.91897 21.9653L8.16206 22.0189V20.0815L8.00575 20.0465C7.29896 19.8883 6.04582 19.6171 5.09646 19.6171C4.23282 19.6171 3.4718 19.7102 2.90534 20.1465C2.27198 20.6276 1.99902 21.277 1.99902 22.1945C1.99902 22.9374 2.22693 23.5535 2.74014 23.9831C3.07919 24.2636 3.47165 24.4216 4.02604 24.6028L5.39817 25.0389C5.62026 25.1077 5.82731 25.175 5.9973 25.2402C6.17384 25.3079 6.2878 25.3651 6.34064 25.4073C6.43371 25.4818 6.48846 25.6015 6.48846 25.8243C6.48846 26.0452 6.41718 26.1893 6.25911 26.2947C6.08018 26.4167 5.79431 26.484 5.18136 26.484C4.32437 26.484 3.16751 26.2555 2.31253 26.0845L2.07331 26.0367Z" fill="#000000" class="bmwfcol"/><path d="M14.6027 28.0669C15.0793 27.8517 15.4281 27.5285 15.7349 27.1103C16.2478 26.4147 16.5167 25.3895 16.5167 24.02C16.5167 22.8408 16.3363 21.7156 15.7461 20.9094C15.4386 20.4847 15.0816 20.1565 14.6006 19.9376C14.1226 19.7201 13.537 19.6171 12.7824 19.6171C11.9105 19.6171 11.2708 19.7441 10.7749 19.9956C10.2751 20.2492 9.94001 20.6198 9.66172 21.0706C9.18536 21.8419 9.04818 22.8871 9.04818 24.02C9.04818 25.3619 9.26198 26.3651 9.72987 27.0613C10.0086 27.4738 10.3336 27.8109 10.8199 28.0403C11.3014 28.2674 11.9233 28.3804 12.7824 28.3804C13.5466 28.3804 14.1297 28.2805 14.6027 28.0669ZM12.7824 21.5242C13.4319 21.5242 13.8746 21.6747 14.1505 22.1286C14.4167 22.5659 14.5035 23.2064 14.5035 24.02C14.5035 24.8719 14.4137 25.5685 14.0594 26.0067C13.7666 26.3706 13.3666 26.4734 12.7824 26.4734C12.1126 26.4734 11.6607 26.3657 11.3915 25.9406C11.2687 25.7449 11.1843 25.4752 11.132 25.1419C11.0799 24.8102 11.0614 24.4292 11.0614 24.02C11.0614 23.6109 11.0799 23.227 11.132 22.8912C11.1845 22.5536 11.269 22.278 11.3926 22.0765C11.6726 21.6215 12.1332 21.5242 12.7824 21.5242Z" fill="#000000" class="bmwfcol"/><path d="M17.1331 26.0367V27.9965L17.2975 28.027C18.0356 28.1641 19.2006 28.3804 20.1138 28.3804C21.3126 28.3804 22.0658 28.1863 22.6789 27.7005C23.2869 27.221 23.5615 26.5534 23.5615 25.7394C23.5615 25.0066 23.3024 24.3399 22.8233 23.9321C22.4574 23.6138 21.9684 23.4547 21.3849 23.2671L20.0044 22.8317C19.5617 22.6913 19.3729 22.6258 19.2135 22.5111C19.1196 22.44 19.072 22.3391 19.072 22.0884C19.072 21.9795 19.0841 21.9054 19.1085 21.8465C19.1316 21.7909 19.1713 21.7352 19.2493 21.6733C19.41 21.5517 19.6572 21.5136 20.2199 21.5136C20.5557 21.5136 21.0601 21.5847 21.5813 21.6789C22.0986 21.7724 22.618 21.8857 22.9787 21.9653L23.2218 22.0189V20.0815L23.0655 20.0465C22.3587 19.8883 21.1056 19.6171 20.1562 19.6171C19.2926 19.6171 18.5316 19.7102 17.9651 20.1465C17.3318 20.6276 17.0588 21.277 17.0588 22.1945C17.0588 22.9374 17.2867 23.5535 17.7999 23.9831C18.139 24.2636 18.5314 24.4216 19.0858 24.6028L20.4579 25.0389C20.68 25.1077 20.8871 25.175 21.0571 25.2402C21.2336 25.3079 21.3476 25.3651 21.4004 25.4073C21.4935 25.4818 21.5482 25.6015 21.5482 25.8243C21.5482 26.0452 21.4753 26.1904 21.3172 26.2958C21.1382 26.4178 20.8541 26.484 20.2411 26.484C19.3841 26.484 18.2273 26.2555 17.3723 26.0845L17.1331 26.0367Z" fill="#000000" class="bmwfcol"/><title>intelligent-emergency-call_rg_48</title></svg>