<svg width="48" height="48" viewBox="0 0 32 32" xmlns="http://www.w3.org/2000/svg"><path d="M25.5044 5.78184C26.1312 5.27438 27.0329 5.07501 28.1558 5.07501H28.8657L29.9251 9.03119L29.925 10.5725C29.925 11.1378 29.9251 11.5186 29.8135 12.1286C29.7087 12.7012 29.5038 13.4878 29.1219 14.9125L25.7673 27.425L15.6007 27.425C14.93 27.4253 14.3146 27.4256 13.7687 27.2917C13.1283 27.1346 12.6295 26.8128 12.1167 26.3C10.9882 25.1714 10.9896 23.8405 10.9915 22.1533L10.9917 21.9445C10.9917 21.401 11.162 20.8614 11.5672 20.4562C11.9724 20.051 12.512 19.8806 13.0556 19.8806C13.9696 19.8806 16.1598 20.1804 18.0275 20.4603C18.982 20.6033 19.884 20.7463 20.547 20.8534C20.8324 20.8995 21.0737 20.9391 21.2561 20.9691C21.2974 19.6893 21.4327 18.6415 21.7365 17.6011C22.1112 16.318 22.7271 15.0995 23.643 13.5103C24.1363 12.6544 24.5433 11.9806 24.912 11.4614C24.9734 11.3749 25.0347 11.2913 25.0963 11.2106C24.9415 10.944 24.829 10.6451 24.7611 10.2683C24.6583 9.69804 24.6584 8.92988 24.6585 7.82766L24.6586 7.70836C24.6586 7.07723 24.8273 6.33008 25.5044 5.78184ZM28.075 9.27456L27.4565 6.96478C26.9887 7.02499 26.7661 7.14065 26.6685 7.21966C26.5817 7.28998 26.5085 7.397 26.5085 7.70836C26.5085 8.96497 26.5124 9.55438 26.5816 9.93907C27.0574 9.73016 27.5551 9.66211 28.075 9.64029L28.075 9.27456ZM21.4062 22.8695L21.2548 22.8441L21.0384 22.8082C20.8509 22.7772 20.581 22.7329 20.2519 22.6797C19.5933 22.5733 18.6988 22.4315 17.7533 22.2899C15.821 22.0003 13.7973 21.7306 13.0556 21.7306C12.973 21.7306 12.9238 21.7433 12.8999 21.7521C12.888 21.7565 12.8814 21.7602 12.8786 21.762L12.8759 21.7639L12.8749 21.7649L12.873 21.7676C12.8713 21.7704 12.8675 21.777 12.8631 21.7889C12.8543 21.8128 12.8417 21.8619 12.8417 21.9445C12.8417 23.9436 12.8916 24.4586 13.4249 24.9919C13.7661 25.3331 13.9792 25.4385 14.2094 25.4949C14.5116 25.5691 14.8973 25.5751 15.6835 25.575L24.348 25.575L27.335 14.4334C27.7246 12.9802 27.9055 12.2775 27.9937 11.7957C28.0136 11.6866 28.0287 11.5899 28.0401 11.4976C27.5639 11.5241 27.3514 11.5888 27.1372 11.7394C26.9572 11.8659 26.7347 12.0899 26.4204 12.5325C26.1067 12.9743 25.7371 13.5817 25.2458 14.4341C24.3454 15.9964 23.8224 17.0577 23.5123 18.1197C23.205 19.1721 23.0916 20.2784 23.0916 21.9445V22.8695H21.4062Z" fill="#000000" class="bmwfcol"/><path d="M11.0297 7.63675C10.4963 7.77969 10.1797 8.32803 10.3226 8.86149L12.378 16.5321C12.5209 17.0656 13.0692 17.3821 13.6027 17.2392C14.1362 17.0963 14.4528 16.5479 14.3098 16.0145L12.2545 8.34386C12.1115 7.81039 11.5632 7.49381 11.0297 7.63675Z" fill="#000000" class="bmwfcol"/><path d="M2 12.5522L7.73172 12.5522L8.36581 14.9299L7.70737 16.9875L3.47475 18.2754V20.366L9.29267 18.5957L10.4493 14.9811L9.26826 10.5522L2 10.5522L2 12.5522Z" fill="#000000" class="bmwfcol"/><title>interior_seat_and_dashboard_side_rg_48</title></svg>