<svg width="48" height="48" viewBox="0 0 32 32" xmlns="http://www.w3.org/2000/svg"><path d="M18.0082 21.3875H20.4568L21 21.6431L21.5432 21.3875H23.9918L24.925 22.2657V24.5273L23.8161 26.2375H21.1957L21 26.0533L20.8043 26.2375H18.2227L17.075 24.5365V22.2657L18.0082 21.3875ZM18.925 23.2375V23.9708L19.2062 24.3875H20.0707L20.075 24.3834V23.2524L20.0432 23.2375H18.925ZM21.925 24.3834L21.9293 24.3875H22.8108L23.075 23.98L23.075 23.2375H21.9568L21.925 23.2524V24.3834Z" fill="#000000" class="bmwfcol"/><path d="M14.6445 18.4419C14.3736 18.3283 14.0896 18.2699 13.7914 18.2386C13.396 18.1971 12.9023 18.1982 12.3229 18.1995C12.2181 18.1998 12.1103 18.2 12 18.2V20.05C12.1236 20.05 12.2391 20.0498 12.3473 20.0497C12.8772 20.0489 13.2318 20.0483 13.5076 20.0702C13.2588 20.3143 13.0237 20.561 12.8232 20.8056C12.4656 21.2418 12.075 21.8368 12.075 22.5321V29.425H16.925V28.5518C19.7674 28.726 22.2327 28.726 25.075 28.5518V29.425H29.925V22.5321C29.925 21.8368 29.5344 21.2418 29.1768 20.8056C28.9763 20.561 28.7412 20.3143 28.4924 20.0702C28.7682 20.0483 29.1228 20.0489 29.6527 20.0497C29.7609 20.0498 29.8764 20.05 30 20.05V18.2C29.8897 18.2 29.7821 18.1998 29.6773 18.1995C29.0979 18.1982 28.6039 18.1971 28.2085 18.2386C27.9103 18.2699 27.6262 18.3283 27.3553 18.4419C27.2446 18.242 27.1239 18.0352 26.996 17.8313C26.7832 17.4922 26.5381 17.1418 26.2728 16.8404C26.0258 16.5598 25.7018 16.2522 25.3113 16.0733C24.4277 15.6313 23.5782 15.575 21 15.575C19.5576 15.575 18.6897 15.593 18.0955 15.6606C17.446 15.7344 17.0896 15.8718 16.6888 16.0732C16.2981 16.2518 15.9741 16.5593 15.7273 16.8396C15.4619 17.141 15.2168 17.4915 15.004 17.8308C14.8759 18.0348 14.7553 18.2419 14.6445 18.4419ZM18.3045 17.4987C18.776 17.4451 19.5363 17.425 21 17.425C23.7151 17.425 24.0741 17.5204 24.4953 17.7337L24.5173 17.7448L24.5399 17.7548C24.5757 17.7705 24.695 17.8479 24.8842 18.0628C25.0603 18.2629 25.2462 18.5234 25.429 18.8146C25.4599 18.8639 25.4904 18.9136 25.5204 18.9633C24.7782 18.9435 23.8072 18.9455 22.5466 18.948C22.0731 18.949 21.5587 18.95 21 18.95C20.441 18.95 19.9263 18.949 19.4526 18.948C18.1921 18.9455 17.2217 18.9435 16.4792 18.9633C16.5094 18.9133 16.54 18.8634 16.5711 18.8139C16.7539 18.5225 16.9397 18.2621 17.1157 18.0622C17.3049 17.8474 17.4238 17.7707 17.4587 17.7554L17.4818 17.7452L17.5043 17.7339C17.7524 17.6084 17.8986 17.5449 18.3045 17.4987ZM27.4537 21.6506C26.8941 21.7477 26.2732 21.8153 25.5 21.8742V23.8798C26.4933 23.8074 27.3063 23.7195 28.075 23.5695V27.575H26.925V26.5676L25.9327 26.6399C22.4108 26.8967 19.5892 26.8967 16.0673 26.6399L15.075 26.5676V27.575H13.925V23.5693C14.6937 23.7194 15.5067 23.8073 16.5 23.8797V21.874C15.7269 21.8151 15.1061 21.7476 14.5464 21.6504C14.7655 21.4206 15.0278 21.1718 15.3262 20.8962C15.5174 20.8662 15.7803 20.8422 16.147 20.8259C16.8846 20.793 17.916 20.7951 19.407 20.798C19.8882 20.799 20.4173 20.8 21 20.8C21.583 20.8 22.1124 20.799 22.5938 20.798C24.0845 20.7951 25.1147 20.793 25.8517 20.8259C26.2197 20.8422 26.483 20.8664 26.6742 20.8966C26.9725 21.1721 27.2347 21.4208 27.4537 21.6506Z" fill="#000000" class="bmwfcol"/><path d="M7.46265 22L5.46265 20H7.93752L10.9375 23L7.93752 26H5.46265L7.46265 24H7.00001C5.36599 24 4.03533 23.62 3.14124 22.6544C2.26204 21.7049 2 20.3949 2 19V18.5H4V19C4 20.2051 4.23796 20.8951 4.60876 21.2956C4.96468 21.68 5.63401 22 7.00001 22H7.46265Z" fill="#000000" class="bmwfcol"/><path d="M24.5536 4.09968L23.8698 6.86982L21.0997 7.55366C21.0344 7.85879 21 8.17538 21 8.5C21 8.82461 21.0344 9.14119 21.0997 9.4463L23.8698 10.1302L24.5536 12.9003C24.8588 12.9656 25.1754 13 25.5 13C25.8246 13 26.1411 12.9656 26.4462 12.9003L27.1301 10.1302L29.9003 9.44627C29.9656 9.14117 30 8.8246 30 8.5C30 8.17539 29.9656 7.85881 29.9003 7.55369L27.1301 6.86982L26.4462 4.09966C26.1412 4.03437 25.8246 4 25.5 4C25.1754 4 24.8588 4.03438 24.5536 4.09968ZM25.4999 6.73357L25.8497 8.15025L27.2664 8.49998L25.8497 8.84972L25.4999 10.2664L25.1502 8.84972L23.7335 8.49998L25.1502 8.15025L25.4999 6.73357Z" fill="#000000" class="bmwfcol"/><path d="M2 7.05004V5.20004C2.11039 5.20004 2.21806 5.1998 2.32292 5.19956C2.90224 5.19824 3.396 5.19712 3.79138 5.23861C4.06396 5.26721 4.32467 5.31851 4.57435 5.41382C4.68694 5.21012 4.80988 4.99901 4.94042 4.79092C5.15445 4.44973 5.40199 4.09557 5.67103 3.79004C5.92005 3.50724 6.25198 3.19081 6.65639 3.00556C7.06319 2.80126 7.42793 2.66099 8.087 2.58606C8.68623 2.51793 9.55843 2.5 11 2.5C13.5724 2.5 14.4415 2.55472 15.3438 3.00565C15.7479 3.1912 16.0798 3.50773 16.3291 3.79088C16.598 4.09638 16.8455 4.45037 17.0595 4.79143C17.19 4.99936 17.3129 5.2103 17.4254 5.41384C17.6752 5.3185 17.9359 5.2672 18.2085 5.23861C18.6039 5.19711 19.0977 5.19824 19.6771 5.19956C19.7819 5.1998 19.8897 5.20004 20 5.20004V7.05004C19.8764 7.05004 19.7609 7.04986 19.6527 7.0497C19.1847 7.04898 18.8534 7.04848 18.5924 7.06342C18.8251 7.29374 19.0451 7.52669 19.2348 7.7581C19.5946 8.19695 20 8.80938 20 9.53212V13.7039C19.1634 13.7117 18.5173 13.7333 18 13.7852V9.53212L17.9996 9.53107C17.9963 9.51513 17.9648 9.36355 17.6882 9.02613C17.4093 8.68592 17.0079 8.30483 16.5097 7.84703L16.2912 7.64606L16.172 7.37563C16.0312 7.05656 15.7281 6.43251 15.3654 5.85451C15.1839 5.5652 15.0004 5.30835 14.8279 5.11238C14.7423 5.01524 14.668 4.94275 14.6066 4.89186C14.5765 4.8669 14.5525 4.84961 14.5348 4.83815C14.5187 4.82769 14.5096 4.8234 14.5096 4.8234L14.4852 4.81265L14.4614 4.80059C14.0593 4.59699 13.7199 4.5 11 4.5C9.53548 4.5 8.77952 4.52021 8.31293 4.57326C7.91736 4.61823 7.7797 4.67866 7.53811 4.80083L7.51379 4.81312L7.48897 4.82402C7.48897 4.82402 7.48075 4.8278 7.4643 4.83843C7.44676 4.84976 7.42289 4.86692 7.39289 4.89177C7.33172 4.94244 7.25748 5.01473 7.17203 5.11177C6.99964 5.30755 6.8162 5.56434 6.63465 5.85373C6.2718 6.43216 5.96885 7.05649 5.82799 7.37563L5.70879 7.64606L5.49071 7.84666C4.99249 8.30446 4.59074 8.68592 4.31182 9.02613C4.03518 9.36355 4.00368 9.51513 4.00037 9.53107L4 9.53212V14.5H5V13.4869L6.0727 13.5651C9.591 13.8216 12.409 13.8216 15.9273 13.5651L17 13.4869V13.9556C16.57 14.0657 16.2204 14.2118 15.8744 14.3841C15.1452 14.7266 14.6245 15.2549 14.3201 15.6005C14.2991 15.6244 14.2782 15.6485 14.2574 15.6727C11.7752 15.7981 9.53522 15.7844 7 15.6315V16.5H2V9.53212C2 8.80938 2.40538 8.19695 2.76518 7.7581C2.9549 7.52669 3.17494 7.29375 3.40764 7.06343C3.14664 7.04848 2.81539 7.04898 2.3473 7.0497C2.23911 7.04987 2.12362 7.05004 2 7.05004Z" fill="#000000" class="bmwfcol"/><path d="M21.5 2.2C20.782 2.2 20.2 2.78203 20.2 3.5C20.2 4.21797 20.782 4.8 21.5 4.8C22.2179 4.8 22.8 4.21797 22.8 3.5C22.8 2.78203 22.2179 2.2 21.5 2.2Z" fill="#000000" class="bmwfcol"/><path d="M28.5 3.2C27.782 3.2 27.2 3.78203 27.2 4.5C27.2 5.21797 27.782 5.8 28.5 5.8C29.2179 5.8 29.8 5.21797 29.8 4.5C29.8 3.78203 29.2179 3.2 28.5 3.2Z" fill="#000000" class="bmwfcol"/><path d="M22.5 11.2C21.782 11.2 21.2 11.782 21.2 12.5C21.2 13.218 21.782 13.8 22.5 13.8C23.2179 13.8 23.8 13.218 23.8 12.5C23.8 11.782 23.2179 11.2 22.5 11.2Z" fill="#000000" class="bmwfcol"/><path d="M28.5 13.2C27.782 13.2 27.2 13.782 27.2 14.5C27.2 15.218 27.782 15.8 28.5 15.8C29.2179 15.8 29.8 15.218 29.8 14.5C29.8 13.782 29.2179 13.2 28.5 13.2Z" fill="#000000" class="bmwfcol"/><title>intelligent_car_recommendation_rg_48</title></svg>