<svg width="48" height="48" viewBox="0 0 32 32" xmlns="http://www.w3.org/2000/svg"><path d="M20.9043 20.904C20.872 20.9363 20.8396 20.9682 20.8069 21H17.6837C18.4046 20.62 19.0445 20.1475 19.5961 19.5959C20.2128 18.9792 20.7307 18.2521 21.1309 17.425H17.827C17.6184 18.6316 17.3183 19.7045 16.9328 20.6118C16.8768 20.7434 16.8184 20.8729 16.7574 21H14.6337C14.839 20.7036 15.0395 20.3367 15.2301 19.8881C15.5211 19.2035 15.7641 18.377 15.9466 17.425H10.0537C10.2362 18.3772 10.4792 19.2038 10.7702 19.8885C10.9608 20.3369 11.1613 20.7037 11.3665 21H9.24285C9.18192 20.873 9.12353 20.7436 9.06765 20.6121C8.68203 19.7049 8.38191 18.6318 8.17332 17.425H4.86951C5.26974 18.2521 5.78755 18.9792 6.40427 19.5959C6.95589 20.1475 7.59579 20.62 8.31665 21H5.19347C5.1608 20.9682 5.12835 20.9363 5.09612 20.904C3.1493 18.9572 2.0752 16.2102 2.0752 13C2.0752 9.78975 3.1493 7.0427 5.09612 5.09588C7.04294 3.14906 9.78999 2.07495 13.0002 2.07495C16.2104 2.07495 18.9574 3.14906 20.9043 5.09588C22.8511 7.0427 23.9252 9.78975 23.9252 13C23.9252 16.2102 22.8511 18.9572 20.9043 20.904ZM3.9252 13C3.9252 13.9184 4.02555 14.7787 4.2156 15.575H7.9348C7.86219 14.7588 7.8252 13.898 7.8252 13C7.8252 12.1019 7.86219 11.2411 7.9348 10.425H4.2156C4.02555 11.2212 3.9252 12.0815 3.9252 13ZM21.7848 15.575C21.9748 14.7787 22.0752 13.9184 22.0752 13C22.0752 12.0815 21.9748 11.2212 21.7848 10.425H18.0656C18.1382 11.2412 18.1752 12.102 18.1752 13C18.1752 13.8979 18.1382 14.7587 18.0656 15.575H21.7848ZM16.2077 15.575C16.2844 14.776 16.3252 13.9156 16.3252 13C16.3252 12.0843 16.2844 11.2239 16.2077 10.425H9.79268C9.71595 11.2239 9.6752 12.0843 9.6752 13C9.6752 13.9156 9.71595 14.776 9.79268 15.575H16.2077ZM8.17332 8.57495C8.38191 7.36808 8.68203 6.29504 9.06765 5.38777C9.20185 5.07201 9.35059 4.76813 9.51403 4.48117C8.2898 4.90696 7.24461 5.56368 6.40427 6.40403C5.78755 7.02074 5.26974 7.74778 4.86951 8.57495H8.17332ZM10.0537 8.57495H15.9466C15.7641 7.62287 15.5211 6.79643 15.2301 6.11176C14.5345 4.47494 13.707 3.92495 13.0002 3.92495C12.2933 3.92495 11.4658 4.47483 10.7702 6.11142C10.4792 6.79613 10.2362 7.62268 10.0537 8.57495ZM17.827 8.57495H21.1309C20.7306 7.74778 20.2128 7.02074 19.5961 6.40403C18.7557 5.56363 17.7105 4.90689 16.4862 4.4811C16.6497 4.7682 16.7985 5.07223 16.9328 5.38815C17.3183 6.29537 17.6184 7.36829 17.827 8.57495Z" fill="#000000" class="bmwfcol"/><path d="M6.08947 23.0051H4.53809L5.74656 28.9998H7.48717L8.21789 26.3533L8.94861 28.9998H10.6742L11.8906 23.0051H10.3617L9.6641 26.4745L8.94159 23.851H7.50968L6.77492 26.476L6.08947 23.0051Z" fill="#000000" class="bmwfcol"/><path d="M13.8747 23.0051H12.3233L13.5318 28.9998H15.2724L16.0031 26.3533L16.7338 28.9998H18.4594L19.6758 23.0051H18.1469L17.4493 26.4745L16.7268 23.851H15.2949L14.5601 26.476L13.8747 23.0051Z" fill="#000000" class="bmwfcol"/><path d="M20.1085 23.0051H21.6599L22.3453 26.476L23.0801 23.851H24.512L25.2345 26.4745L25.9321 23.0051H27.461L26.2446 28.9998H24.519L23.7883 26.3533L23.0576 28.9998H21.317L20.1085 23.0051Z" fill="#000000" class="bmwfcol"/><title>internet_rg_48</title></svg>