<svg width="48" height="48" viewBox="0 0 32 32" xmlns="http://www.w3.org/2000/svg"><path d="M12.5856 10L16.4927 6.09289C17.8534 4.7322 19.4989 4 21.1998 4C22.9007 4 24.5462 4.7322 25.9069 6.09289C27.2676 7.45358 27.9998 9.09908 27.9998 10.8C27.9998 12.5009 27.2676 14.1464 25.9069 15.5071L23.507 17.907C22.1463 19.2677 20.5008 20 18.7999 20H12.9998V18H18.7999C19.8989 18 21.0534 17.5322 22.0928 16.4929L24.4927 14.0929C25.532 13.0536 25.9998 11.8991 25.9998 10.8C25.9998 9.70091 25.532 8.54642 24.4927 7.50711C23.4534 6.46779 22.2989 6 21.1998 6C20.1007 6 18.9462 6.46779 17.9069 7.50711L15.414 10H12.5856Z" fill="#000000" class="bmwfcol"/><path d="M19.4142 22L15.5071 25.9071C14.1464 27.2678 12.5009 28 10.8 28C9.09908 28 7.45358 27.2678 6.09289 25.9071C4.7322 24.5464 4 22.9009 4 21.2C4 19.4991 4.7322 17.8536 6.09288 16.4929L8.49278 14.093C9.85345 12.7323 11.499 12 13.1999 12H18.9999V14H13.1999C12.1008 14 10.9463 14.4678 9.90701 15.5071L7.50712 17.9071C6.4678 18.9464 6 20.1009 6 21.2C6 22.2991 6.4678 23.4536 7.50711 24.4929C8.54642 25.5322 9.70091 26 10.8 26C11.8991 26 13.0536 25.5322 14.0929 24.4929L16.5858 22H19.4142Z" fill="#000000" class="bmwfcol"/><title>internal-link_rg_48</title></svg>