<svg width="48" height="48" viewBox="0 0 32 32" xmlns="http://www.w3.org/2000/svg"><path d="M16 3C14.8174 3 13.6877 3.12198 12.6219 3.35974L13.0573 5.31176C13.9717 5.10778 14.9549 5 16 5C17.0451 5 18.0283 5.10778 18.9427 5.31176L19.3781 3.35974C18.3123 3.12198 17.1826 3 16 3Z" fill="#000000" class="bmwfcol"/><path d="M27.4631 9.38878C26.36 7.29914 24.7009 5.64001 22.6112 4.53692L21.6776 6.30561C23.4111 7.22075 24.7793 8.58885 25.6944 10.3224L27.4631 9.38878Z" fill="#000000" class="bmwfcol"/><path d="M9.38878 4.53692C7.29914 5.64001 5.64001 7.29914 4.53692 9.38878L6.30561 10.3224C7.22075 8.58885 8.58885 7.22075 10.3224 6.30561L9.38878 4.53692Z" fill="#000000" class="bmwfcol"/><path d="M29 16C29 14.8174 28.878 13.6877 28.6403 12.6219L26.6882 13.0573C26.8922 13.9717 27 14.9549 27 16C27 17.0451 26.8922 18.0283 26.6882 18.9427L28.6403 19.3781C28.878 18.3123 29 17.1826 29 16Z" fill="#000000" class="bmwfcol"/><path d="M3.35974 12.6219C3.12198 13.6877 3 14.8174 3 16C3 17.1826 3.12198 18.3123 3.35974 19.3781L5.31176 18.9427C5.10778 18.0283 5 17.0451 5 16C5 14.9549 5.10778 13.9717 5.31176 13.0573L3.35974 12.6219Z" fill="#000000" class="bmwfcol"/><path d="M22.6112 27.4631C24.7009 26.36 26.36 24.7009 27.4631 22.6112L25.6944 21.6776C24.7793 23.4111 23.4111 24.7793 21.6776 25.6944L22.6112 27.4631Z" fill="#000000" class="bmwfcol"/><path d="M4.53692 22.6112C5.64001 24.7009 7.29914 26.36 9.38878 27.4631L10.3224 25.6944C8.58885 24.7793 7.22075 23.4111 6.30561 21.6776L4.53692 22.6112Z" fill="#000000" class="bmwfcol"/><path d="M12.6219 28.6403C13.6877 28.878 14.8174 29 16 29C17.1826 29 18.3123 28.878 19.3781 28.6403L18.9427 26.6882C18.0283 26.8922 17.0451 27 16 27C14.9549 27 13.9717 26.8922 13.0573 26.6882L12.6219 28.6403Z" fill="#000000" class="bmwfcol"/><path d="M16 7C13.3728 7 11.1057 7.88011 9.49289 9.49289C7.88011 11.1057 7 13.3728 7 16C7 18.6272 7.88011 20.8943 9.49289 22.5071C11.1057 24.1199 13.3728 25 16 25C18.6272 25 20.8943 24.1199 22.5071 22.5071C24.1199 20.8943 25 18.6272 25 16C25 13.3728 24.1199 11.1057 22.5071 9.49289C20.8943 7.88011 18.6272 7 16 7ZM9.0533 15C9.24006 13.2914 9.90814 11.9061 10.9071 10.9071C11.4842 10.33 12.1903 9.86327 13.0132 9.53603C12.9694 9.63951 12.9279 9.74386 12.8887 9.84857C12.3864 11.188 12.0896 12.957 12.0174 15H9.0533ZM9.0533 17H12.0174C12.0896 19.043 12.3864 20.812 12.8887 22.1514C12.9279 22.2561 12.9694 22.3605 13.0132 22.464C12.1903 22.1367 11.4842 21.67 10.9071 21.0929C9.90814 20.0939 9.24006 18.7086 9.0533 17ZM14.0187 17H17.9813C17.9097 18.8706 17.6373 20.3859 17.2387 21.4489C16.7362 22.7888 16.2166 23 16 23C15.7833 23 15.2637 22.7888 14.7613 21.4491C14.3627 20.3863 14.0903 18.8709 14.0187 17ZM14.0187 15C14.0903 13.1291 14.3627 11.6137 14.7613 10.5509C15.2637 9.21118 15.7833 9 16 9C16.2166 9 16.7362 9.21123 17.2387 10.5511C17.6373 11.6141 17.9097 13.1294 17.9813 15H14.0187ZM19.9826 15C19.9104 12.9573 19.6136 11.1883 19.1113 9.84888C19.072 9.74405 19.0305 9.63958 18.9866 9.53597C19.8096 9.86322 20.5157 10.3299 21.0929 10.9071C22.0919 11.9061 22.7599 13.2914 22.9467 15H19.9826ZM19.9826 17H22.9467C22.7599 18.7086 22.0919 20.0939 21.0929 21.0929C20.5157 21.6701 19.8096 22.1368 18.9866 22.464C19.0305 22.3604 19.072 22.256 19.1113 22.1511C19.6136 20.8117 19.9104 19.0427 19.9826 17Z" fill="#000000" class="bmwfcol"/><title>intranet_rg_48</title></svg>