<svg width="48" height="48" viewBox="0 0 32 32" xmlns="http://www.w3.org/2000/svg"><path d="M22 2C20.8728 2 19.8557 2.38011 19.1179 3.11789C18.3802 3.85567 18 4.87275 18 6V11C18 12.1272 18.3802 13.1443 19.1179 13.8821C19.8557 14.6199 20.8728 15 22 15C23.1273 15 24.1444 14.6199 24.8822 13.8821C25.6199 13.1443 26 12.1272 26 11V6C26 4.87275 25.6199 3.85567 24.8822 3.11789C24.1444 2.38011 23.1273 2 22 2ZM20 6C20 5.32725 20.2199 4.84433 20.5322 4.53211C20.8444 4.21989 21.3273 4 22 4C22.6728 4 23.1557 4.21989 23.4679 4.53211C23.7802 4.84433 24 5.32725 24 6V11C24 11.6728 23.7802 12.1557 23.4679 12.4679C23.1557 12.7801 22.6728 13 22 13C21.3273 13 20.8444 12.7801 20.5322 12.4679C20.2199 12.1557 20 11.6728 20 11V6Z" fill="#000000" class="bmwfcol"/><path d="M27.7822 16.7821C26.5546 18.0097 24.9047 18.7578 23 18.9504V23H21V18.9504C19.0954 18.7578 17.4455 18.0097 16.2179 16.7821C14.7802 15.3443 14 13.3272 14 11H16C16 12.8728 16.6199 14.3557 17.6322 15.3679C18.6444 16.3801 20.1273 17 22 17C23.8728 17 25.3557 16.3801 26.3679 15.3679C27.3802 14.3557 28 12.8728 28 11H30C30 13.3272 29.2199 15.3443 27.7822 16.7821Z" fill="#000000" class="bmwfcol"/><path d="M2.56421 28.4H4.55621V19.9975H2.56421V28.4Z" fill="#000000" class="bmwfcol"/><path d="M5.68395 28.4H7.67595V25.6511C8.36399 25.651 8.91029 25.6493 9.34181 25.6297C10.1555 25.5971 10.8704 25.4335 11.4205 24.9306C12.0093 24.4003 12.2291 23.6024 12.2291 22.7766C12.2291 21.9791 12.0076 21.2294 11.479 20.7126C10.9498 20.1951 10.2637 19.9975 9.32267 19.9975H5.68395V28.4ZM7.67595 23.7546V21.894H9.15285C9.65489 21.894 9.87486 21.9524 10.0024 22.0728C10.1542 22.2172 10.2158 22.4127 10.2158 22.7872C10.2158 23.1489 10.1615 23.3606 10.0128 23.5019C9.85803 23.6489 9.62881 23.7126 9.165 23.7336C8.75216 23.7524 8.23707 23.7544 7.67595 23.7546Z" fill="#000000" class="bmwfcol"/><path d="M13.5201 28.4H11.3956L14.449 19.9975H16.8093L19.8738 28.4H17.7181L17.1874 26.946H14.0401L13.5201 28.4ZM14.6696 25.0495H16.535L15.5982 22.402L14.6696 25.0495Z" fill="#000000" class="bmwfcol"/><title>ipa_rg_48</title></svg>