<svg width="48" height="48" viewBox="0 0 32 32" xmlns="http://www.w3.org/2000/svg"><path d="M7 2V5L10 5V7H7V10H5V7H2V5L5 5V2H7Z" fill="#000000" class="bmwfcol"/><path d="M19.1179 3.11789C19.8557 2.38011 20.8728 2 22 2C23.1272 2 24.1443 2.38011 24.8821 3.11789C25.6199 3.85567 26 4.87275 26 6V11C26 12.1272 25.6199 13.1443 24.8821 13.8821C24.1443 14.6199 23.1272 15 22 15C20.8728 15 19.8557 14.6199 19.1179 13.8821C18.3801 13.1443 18 12.1272 18 11V6C18 4.87275 18.3801 3.85567 19.1179 3.11789ZM20.5321 4.53211C20.2199 4.84433 20 5.32725 20 6V11C20 11.6728 20.2199 12.1557 20.5321 12.4679C20.8443 12.7801 21.3272 13 22 13C22.6728 13 23.1557 12.7801 23.4679 12.4679C23.7801 12.1557 24 11.6728 24 11V6C24 5.32725 23.7801 4.84433 23.4679 4.53211C23.1557 4.21989 22.6728 4 22 4C21.3272 4 20.8443 4.21989 20.5321 4.53211Z" fill="#000000" class="bmwfcol"/><path d="M23 18.9504C24.9047 18.7578 26.5545 18.0097 27.7821 16.7821C29.2199 15.3443 30 13.3272 30 11H28C28 12.8728 27.3801 14.3557 26.3679 15.3679C25.3557 16.3801 23.8728 17 22 17C20.1272 17 18.6443 16.3801 17.6321 15.3679C16.6199 14.3557 16 12.8728 16 11H14C14 13.3272 14.7801 15.3443 16.2179 16.7821C17.4455 18.0097 19.0953 18.7578 21 18.9504V23H23V18.9504Z" fill="#000000" class="bmwfcol"/><path d="M2.56445 19.7974H4.55645V28.1998H2.56445V19.7974Z" fill="#000000" class="bmwfcol"/><path d="M14.4492 19.7974H16.8095L19.8741 28.1998H17.7184L17.1877 26.7458H14.0404L13.5203 28.1998H11.3958L14.4492 19.7974ZM15.5985 22.2019L14.6698 24.8493H16.5352L15.5985 22.2019Z" fill="#000000" class="bmwfcol"/><path d="M5.68419 19.7974H9.32291C10.2639 19.7974 10.9501 19.995 11.4793 20.5124C12.0079 21.0292 12.2293 21.7789 12.2293 22.5764C12.2293 23.4022 12.0095 24.2001 11.4208 24.7304C10.8707 25.2334 10.1558 25.3969 9.34206 25.4296C8.91054 25.4492 8.36424 25.4508 7.67619 25.451V28.1998H5.68419V19.7974ZM7.67619 21.6938V23.5545C8.23731 23.5542 8.75241 23.5522 9.16525 23.5335C9.62905 23.5124 9.85828 23.4487 10.013 23.3017C10.1617 23.1604 10.2161 22.9487 10.2161 22.587C10.2161 22.2125 10.1545 22.0169 10.0026 21.8725C9.87503 21.7522 9.65505 21.6938 9.1531 21.6938H7.67619Z" fill="#000000" class="bmwfcol"/><title>ipa_plus_rg_48</title></svg>