<svg width="48" height="48" viewBox="0 0 32 32" xmlns="http://www.w3.org/2000/svg"><path d="M9.99954 4.20185V2.0498C11.4237 2.05747 13.3673 2.24744 15.056 2.91269C16.512 3.48629 17.9155 4.47821 18.4897 6.11968C19.9659 5.94207 21.3775 6.29323 22.5263 6.77973C23.4855 7.18591 24.3131 7.7078 24.9141 8.17132V10.3752C24.3305 10.3752 22.3082 10.3766 20.1787 10.6407C20.7827 11.4474 21.2493 12.3503 21.4557 13.4339C21.7511 14.985 21.4887 16.77 20.5873 18.9998H18.3894C17.9216 16.8587 17.3757 15.6155 16.856 14.7743C16.0931 16.7533 15.7232 18.743 15.5511 20.3671C15.4415 21.4019 15.4133 22.2771 15.4124 22.8906C15.4123 22.9296 15.4124 22.9677 15.4125 23.0046C15.6061 23.0014 15.8019 22.9998 16 22.9998C22.1497 22.9998 26.0634 24.5421 28.3321 27.9451L28.25 27.9998H25.8271C23.9857 26.0662 21.0039 24.9998 16 24.9998C10.9961 24.9998 8.01431 26.0662 6.1729 27.9998H3.75002L3.66797 27.9451C5.05653 25.8622 7.06136 24.4764 9.81794 23.7147C9.82802 23.5814 9.84082 23.4299 9.85706 23.2616C9.92379 22.5704 10.0488 21.5943 10.2826 20.4406C10.5718 19.0131 11.0301 17.3008 11.7576 15.5138C11.0717 15.9169 10.3986 16.2643 9.77695 16.5166C9.18175 16.7581 8.56565 16.941 8.00017 16.9618V13.6016C8.45279 12.8191 8.92676 12.1857 9.43147 11.5983C7.52469 11.786 5.51453 12.1587 4.00017 12.5356V9.90932C4.99033 8.94257 6.34066 7.92642 7.79626 7.20204C9.17564 6.51559 10.8124 6.01549 12.3782 6.21623C12.2345 6.02982 12.0663 5.84346 11.8748 5.65617C11.3248 5.11818 10.661 4.64684 9.99954 4.20185ZM15.425 12.9712C15.2673 13.0959 15.1078 13.2199 14.9469 13.343C13.3944 15.9502 12.5748 18.6955 12.1447 20.8179C11.9421 21.8182 11.8274 22.6729 11.7627 23.2994C12.3205 23.2114 12.9037 23.143 13.5131 23.094C13.5125 23.0285 13.5123 22.9597 13.5124 22.8878C13.5134 22.2202 13.5439 21.278 13.6617 20.1669C13.8733 18.1692 14.3704 15.5889 15.5102 13.0698C15.4819 13.0373 15.4535 13.0045 15.425 12.9712ZM13.2323 4.32633C14.1028 5.18593 14.8839 6.32724 14.8839 7.77806L13.4069 8.56851C12.2016 7.76494 10.4905 7.98349 8.64277 8.90304C7.99275 9.22653 7.36887 9.61691 6.80252 10.0294C8.44662 9.762 10.2053 9.57321 11.7377 9.57321L12.4226 11.1815C12.3265 11.2815 12.2306 11.3809 12.1384 11.4765C11.1573 12.4932 10.388 13.2905 9.69015 14.4738C10.062 14.2922 10.4622 14.0737 10.8819 13.8244C12.2165 13.0315 13.6853 11.9645 14.9729 10.8915L16.3715 11.0943C16.5938 11.4277 16.8438 11.7106 17.1616 12.07C17.4911 12.4428 17.9118 12.9243 18.2932 13.4965C18.7272 14.1475 19.1458 14.9487 19.5298 16.0278C19.7079 15.132 19.7066 14.4053 19.5892 13.7894C19.3678 12.6267 18.7035 11.695 17.6545 10.646L18.14 9.0427C19.4015 8.79039 20.7316 8.65025 21.8854 8.57242C21.8523 8.55789 21.819 8.54353 21.7854 8.52931C20.6135 8.03303 19.2918 7.78428 18.0382 8.14246L16.8346 7.34685C16.6762 6.07994 15.7691 5.23576 14.3596 4.68046C14 4.53879 13.6202 4.4219 13.2323 4.32633Z" fill="#000000" class="bmwfcol"/><title>island_rg_48</title></svg>