<svg width="48" height="48" viewBox="0 0 32 32" xmlns="http://www.w3.org/2000/svg"><path d="M14.5 8C14.5 7.17157 15.1716 6.5 16 6.5C16.8284 6.5 17.5 7.17157 17.5 8C17.5 8.82843 16.8284 9.5 16 9.5C15.1716 9.5 14.5 8.82843 14.5 8Z" fill="#000000" class="bmwfcol"/><path d="M14.5 20C14.5 19.1716 15.1716 18.5 16 18.5C16.8284 18.5 17.5 19.1716 17.5 20C17.5 20.8284 16.8284 21.5 16 21.5C15.1716 21.5 14.5 20.8284 14.5 20Z" fill="#000000" class="bmwfcol"/><path d="M16 10.5C14.067 10.5 12.5 12.067 12.5 14C12.5 15.933 14.067 17.5 16 17.5C17.933 17.5 19.5 15.933 19.5 14C19.5 12.067 17.933 10.5 16 10.5ZM14.5 14C14.5 13.1716 15.1716 12.5 16 12.5C16.8284 12.5 17.5 13.1716 17.5 14C17.5 14.8284 16.8284 15.5 16 15.5C15.1716 15.5 14.5 14.8284 14.5 14Z" fill="#000000" class="bmwfcol"/><path d="M16 2C13.841 2 11.8212 2.30941 9.97835 2.90343L9.39767 3.0906L9.29845 3.69257C8.44093 8.89493 8 14.3395 8 20C8 22.6696 8.09808 25.2913 8.29168 27.8621L8.33863 28.4855L8.9196 28.7163C11.0375 29.5579 13.4193 30 16 30C18.5807 30 20.9625 29.5579 23.0804 28.7163L23.6614 28.4855L23.7083 27.8621C23.9019 25.2913 24 22.6696 24 20C24 14.3395 23.5591 8.89493 22.7016 3.69257L22.6023 3.0906L22.0217 2.90343C20.1788 2.30941 18.159 2 16 2ZM10 20C10 14.6665 10.3988 9.5367 11.1727 4.6323C12.648 4.21965 14.2631 4 16 4C17.7369 4 19.352 4.21965 20.8273 4.6323C21.6012 9.5367 22 14.6665 22 20C22 21.0088 21.9857 22.0102 21.9574 23.0043C20.189 23.6504 18.1915 24 16 24C13.8085 24 11.811 23.6504 10.0426 23.0043C10.0143 22.0102 10 21.0088 10 20ZM10.126 25.1434C11.9286 25.7068 13.8983 26 16 26C18.1017 26 20.0714 25.7068 21.874 25.1435C21.842 25.7905 21.804 26.4343 21.7599 27.0749C20.0408 27.6758 18.1104 28 16 28C13.8896 28 11.9592 27.6758 10.2401 27.0749C10.196 26.4343 10.158 25.7905 10.126 25.1434Z" fill="#000000" class="bmwfcol"/><title>key-car_rg_48</title></svg>