<svg width="48" height="48" viewBox="0 0 32 32" xmlns="http://www.w3.org/2000/svg"><path d="M19.2649 12.3963C19.8987 12.0304 20.1158 11.22 19.7499 10.5863C19.384 9.95254 18.5737 9.73541 17.9399 10.1013C17.3062 10.4672 17.0891 11.2775 17.455 11.9113C17.8208 12.545 18.6312 12.7622 19.2649 12.3963Z" fill="#000000" class="bmwfcol"/><path d="M16.6031 7.78491C15.066 8.67238 14.3407 10.426 14.6878 12.0733C13.9683 12.3153 13.1618 12.2257 12.502 11.798L13.0975 10.7667C13.6498 9.81011 13.322 8.58692 12.3654 8.03464L7.16928 5.03464C6.21269 4.48236 4.98951 4.81011 4.43723 5.76669L2.43723 9.23079C1.88494 10.1874 2.21269 11.4106 3.16928 11.9628L8.36543 14.9628C9.32202 15.5151 10.5452 15.1874 11.0975 14.2308L11.5013 13.5314C12.7457 14.2987 14.2644 14.4084 15.5835 13.8735C16.8141 15.2925 18.9159 15.6872 20.6031 14.7131L24.0672 12.7131C25.0238 12.1608 25.3515 10.9376 24.7992 9.98106L24.2992 9.11501L29.4954 6.11499L28.4954 4.38293L23.2992 7.38296L22.7992 6.51696C22.247 5.56038 21.0238 5.23263 20.0672 5.78491L16.6031 7.78491ZM16.871 12.249C16.3188 11.2924 16.6465 10.0692 17.6031 9.51696L21.0672 7.51696L23.0672 10.9811L19.6031 12.9811C18.6465 13.5333 17.4233 13.2056 16.871 12.249ZM6.16928 6.76669L11.3654 9.76669L9.36543 13.2308L4.16928 10.2308L6.16928 6.76669Z" fill="#000000" class="bmwfcol"/><path d="M29.7074 16.2919C29.3997 15.9842 28.9704 15.6289 28.3684 15.4022C27.7594 15.1727 27.0435 15.1009 26.1993 15.2517C24.7373 15.513 22.8562 16.4483 20.3113 18.4561C19.9403 18.1447 19.4743 17.9991 19.0002 17.9991L14.1321 17.999L10.4 16.9991L10.1896 16.999C9.61222 16.9982 9.03833 16.9973 8.38671 17.3961C8.09329 17.5756 7.80632 17.8199 7.49357 18.1121C7.18002 18.405 6.79513 18.7899 6.30666 19.2783L1.58594 23.9991L7.58594 29.9991L9.41437 29.9991L11.4144 27.9991H15.0288C16.0044 27.9991 16.7764 27.9991 17.3965 27.9664C18.0256 27.9333 18.5666 27.8644 19.0665 27.6977C20.044 27.3719 20.7036 26.7114 21.5891 25.8247L30.4147 16.999L29.7074 16.2919ZM13.8688 19.999L19.0001 19.9991L19.0002 20.5767C18.2151 21.3174 17.6686 21.6389 17.184 21.8004C16.6158 21.9898 16.0358 21.9991 15.0004 21.9991H11.0002L11.0001 23.9991L15.0818 23.9991C16.0168 23.9993 16.9111 23.9996 17.8165 23.6977C18.7738 23.3786 19.6534 22.7601 20.7073 21.7062L21.0001 21.4134L21.0003 20.4688C23.7543 18.21 25.4854 17.411 26.5511 17.2206C26.9036 17.1576 27.1749 17.1627 27.3861 17.1991L20.2933 24.2919C19.2397 25.3456 18.9136 25.6405 18.4341 25.8004C18.1839 25.8837 17.8499 25.9398 17.2914 25.9692C16.73 25.9987 16.0109 25.9991 15.0001 25.9991L10.5859 25.9991L8.58594 27.9991H8.41436L4.41436 23.9991L7.70726 20.7062C8.21232 20.2011 8.57319 19.8404 8.85887 19.5735C9.14825 19.3032 9.31554 19.1725 9.43065 19.102C9.55695 19.0247 9.5985 19.0021 10.1379 18.9994L13.8688 19.999Z" fill="#000000" class="bmwfcol"/><title>key_with_pendant_hand_rg_48</title></svg>