<svg width="48" height="48" viewBox="0 0 32 32" xmlns="http://www.w3.org/2000/svg"><path d="M22 7.125C20.4122 7.125 19.125 8.41218 19.125 10C19.125 11.5878 20.4122 12.875 22 12.875C23.5878 12.875 24.875 11.5878 24.875 10C24.875 8.41218 23.5878 7.125 22 7.125ZM20.875 10C20.875 9.37868 21.3787 8.875 22 8.875C22.6213 8.875 23.125 9.37868 23.125 10C23.125 10.6213 22.6213 11.125 22 11.125C21.3787 11.125 20.875 10.6213 20.875 10Z" fill="#000000" class="bmwfcol"/><path d="M26.7067 5.2931C24.7461 3.33247 22.4006 2.30029 19.9998 2.30029C17.599 2.30029 15.2535 3.33247 13.2929 5.2931C10.5372 8.04884 9.64461 11.5438 10.7795 14.8065L3 22.5858V29.0002H10V26.0002H13V23.0002H15.4142L17.1939 21.2205C20.4564 22.3551 23.9511 21.4625 26.7067 18.7069C28.6673 16.7463 29.6995 14.4009 29.6995 12C29.6995 9.59916 28.6673 7.25373 26.7067 5.2931ZM14.7071 6.70731C16.3464 5.06806 18.2008 4.30029 19.9998 4.30029C21.7988 4.30029 23.6532 5.06806 25.2925 6.70731C26.9317 8.34656 27.6995 10.201 27.6995 12C27.6995 13.799 26.9317 15.6534 25.2925 17.2927C22.8668 19.7184 19.9493 20.2661 17.3474 19.1346L16.7229 18.8631L14.5858 21.0002H11V24.0002H8V27.0002H5V23.4142L13.137 15.2774L12.8654 14.6529C11.7337 12.0509 12.2812 9.1332 14.7071 6.70731Z" fill="#000000" class="bmwfcol"/><title>key_rg_48</title></svg>