<svg width="48" height="48" viewBox="0 0 32 32" xmlns="http://www.w3.org/2000/svg"><path d="M8.0001 14V2H6.0001L6.00005 14.072C5.9993 14.7834 5.99845 15.5872 6.64854 16.4207C7.22411 17.1586 8.27785 17.8742 10 18.8685V30H12L12.0045 18.866C13.7266 17.8717 14.7761 17.1586 15.3517 16.4207C16.0018 15.5872 16.0009 14.7834 16.0002 14.072L16.0001 2H14.0001V14C14.0001 14.771 13.9764 14.9319 13.7746 15.1907C13.4896 15.5561 12.8394 16.0625 11.2351 17H10.7651C9.16083 16.0625 8.51062 15.5561 8.22557 15.1907C8.02378 14.9319 8.0001 14.771 8.0001 14Z" fill="#000000" class="bmwfcol"/><path d="M26 2H24.0858L23.7929 2.29289C21.0704 5.0154 19.5887 6.61234 18.8221 7.93646C17.9996 9.35705 17.9998 10.4689 18 11.9302V22H24V30H26V2ZM24 4.92499V20H20V12C20 10.4958 20.0134 9.87041 20.5529 8.93854C21.0652 8.05374 22.0452 6.91927 24 4.92499Z" fill="#000000" class="bmwfcol"/><path d="M12 14V2H10V14H12Z" fill="#000000" class="bmwfcol"/><title>knife-and-fork_rg_48</title></svg>