<svg width="48" height="48" viewBox="0 0 32 32" xmlns="http://www.w3.org/2000/svg"><path d="M29.7153 25.9995L24.3563 5.99951H22.2858L27.6447 25.9995H29.7153Z" fill="#000000" class="bmwfcol"/><path d="M20.4769 5.99954L19.4981 9.99954H17.4391L18.4179 5.99954H20.4769Z" fill="#000000" class="bmwfcol"/><path d="M17.223 5.99981L3.21889 25.9998H0.777344L14.7815 5.99981H17.223Z" fill="#000000" class="bmwfcol"/><path d="M16.2042 23.4606L15.5829 25.9995H13.5239L14.4447 22.2367C13.7021 21.6868 13.0097 21.1095 12.4766 20.5056C11.6461 19.5648 11.0386 18.3553 11.4633 17H9.93518L14.2368 12.877L14.6958 17H13.6376L13.4404 17.4227C13.2196 17.8964 13.2919 18.4071 13.976 19.182C14.2464 19.4883 14.5807 19.7965 14.965 20.1104L15.2368 18.9995H17.2958L16.7111 21.3893C16.8471 21.4822 16.9856 21.5759 17.1261 21.6705C17.2967 21.7853 17.4702 21.9014 17.6455 22.0186C18.7709 22.7712 19.9717 23.5742 20.9183 24.4045C21.977 25.3332 23.0002 26.5302 23.0002 28.0001H21.0002C21.0002 27.47 20.6071 26.792 19.5994 25.9081C18.7596 25.1715 17.686 24.4527 16.5489 23.6915C16.4354 23.6156 16.3189 23.5376 16.2042 23.4606Z" fill="#000000" class="bmwfcol"/><path d="M17.7852 16.9995L19.0087 11.9995H16.9497L15.7262 16.9995H17.7852Z" fill="#000000" class="bmwfcol"/><title>lane-change-warning_rg_48</title></svg>