<svg width="48" height="48" viewBox="0 0 32 32" xmlns="http://www.w3.org/2000/svg"><path d="M8.12034 19.0003L3.21889 26.0003H0.777344L5.67879 19.0003H8.12034Z" fill="#000000" class="bmwfcol"/><path d="M13.0218 12.0003L9.52076 17.0003H7.07921L10.5802 12.0003H13.0218Z" fill="#000000" class="bmwfcol"/><path d="M17.223 6.0003L14.4222 10.0003H11.9806L14.7815 6.0003H17.223Z" fill="#000000" class="bmwfcol"/><path d="M27.8397 19L29.7153 26H27.6448L25.7691 19H27.8397Z" fill="#000000" class="bmwfcol"/><path d="M25.964 12L27.3038 17H25.2332L23.8935 12H25.964Z" fill="#000000" class="bmwfcol"/><path d="M24.3563 6L25.4281 10H23.3576L22.2858 6H24.3563Z" fill="#000000" class="bmwfcol"/><path d="M6.91105 6.50009V9.50009H8.27045L10.9701 8.00009L8.27045 6.50009H6.91105Z" fill="#000000" class="bmwfcol"/><path d="M29.5517 6.50009L26.8519 8.00009L29.5517 9.50009H30.9111V6.50009H29.5517Z" fill="#000000" class="bmwfcol"/><title>lane-departure-warning_rg_48</title></svg>