<svg width="48" height="48" viewBox="0 0 32 32" xmlns="http://www.w3.org/2000/svg"><path d="M16 15.5858L9.68674 9.27254C8.954 8.5398 8.37608 7.96188 7.88771 7.52235C7.39269 7.07683 6.93996 6.72696 6.44721 6.48059C5.48299 5.99848 4.50683 5.9991 3.17162 5.99995L3 6.00002V8.00002C4.57588 8.00002 5.05785 8.02198 5.55279 8.26945C5.81004 8.39808 6.10731 8.61071 6.54979 9.00894C6.9944 9.40909 7.53532 9.94955 8.29289 10.7071L12.5858 15H4L4 17.268L4.24953 17.7003C5.45442 19.7884 6.20978 21.0974 7.37541 21.9716C8.49308 22.8098 9.94815 23.2174 12.265 23.8383C12.7906 25.1073 14.041 26 15.5 26C16.4537 26 17.3182 25.6186 17.9495 25H25.7639C26.3132 25.6137 27.1115 26 28 26C29.6569 26 31 24.6569 31 23C31 21.3431 29.6569 20 28 20H27.9983L27.9983 19.9966L26.0002 20L26 17.5858L25.6925 17.2783C24.9548 16.5406 24.382 15.9678 23.9158 15.5337C23.4498 15.0999 23.0443 14.7604 22.6395 14.5175C21.7747 13.9986 21.0193 13.9992 20.1032 13.9999L16 14V15.5858ZM14.5858 17L14.7503 17.1645L13.1859 19.8741C12.6457 20.3505 12.2537 20.991 12.0878 21.7176C10.1544 21.1877 9.25806 20.8835 8.57539 20.3716C7.83685 19.8177 7.30965 18.9908 6.15518 17H14.5858ZM21.6105 16.2325C21.8307 16.3646 22.1127 16.5876 22.553 16.9975C22.9313 17.3498 23.3927 17.8075 24 18.4143V19.9616C23.4223 19.9215 22.9596 19.8398 22.443 19.6732C21.4707 19.3597 20.2934 18.7393 18 17.4219V16H20C21.0369 16 21.2575 16.0207 21.6105 16.2325ZM21.8293 21.5767C22.9396 21.9348 23.8938 21.99 25.1712 21.9985C25.0604 22.3117 25 22.6488 25 23H18.9646C18.9879 22.8367 19 22.6698 19 22.5C19 20.7302 17.6864 19.2672 15.9811 19.0328L16.183 18.683L16.5 18.866C19.0691 20.3493 20.5439 21.1623 21.8293 21.5767ZM15.5 21C16.3284 21 17 21.6716 17 22.5C17 23.3284 16.3284 24 15.5 24C14.6716 24 14 23.3284 14 22.5C14 21.6716 14.6716 21 15.5 21ZM28 22C28.5523 22 29 22.4477 29 23C29 23.5523 28.5523 24 28 24C27.4477 24 27 23.5523 27 23C27 22.4477 27.4477 22 28 22Z" fill="#000000" class="bmwfcol"/><title>lawn_mower_rg_48</title></svg>