<svg width="48" height="48" viewBox="0 0 32 32" xmlns="http://www.w3.org/2000/svg"><path d="M18.2441 2.05518H20.1351V4.9179H22.737V2.05518H24.628V9.94994H22.737V6.73932H20.1351V9.94994H18.2441V2.05518Z" fill="#000000" class="bmwfcol"/><path d="M26.0919 6.7822C26.3388 6.72293 27.0064 6.56794 27.5699 6.56794C28.1365 6.56794 28.6136 6.68011 28.9411 6.92503C29.2859 7.17553 29.4896 7.60615 29.4896 8.06014C29.4896 8.31071 29.4511 8.51828 29.3643 8.71403C29.2788 8.90681 29.1514 9.07637 28.992 9.25632L28.9904 9.25802C28.8259 9.43955 28.6496 9.61094 28.4756 9.76862H29.7381V11.2421H25.869V9.93456L25.9537 9.8748C26.4623 9.51574 27.0696 9.07456 27.3882 8.79456L27.3891 8.79379C27.5782 8.62955 27.6968 8.51617 27.7684 8.42563C27.8367 8.33924 27.8471 8.29249 27.8471 8.25894C27.8471 8.21499 27.8414 8.1948 27.8371 8.18489C27.8339 8.17746 27.8276 8.16602 27.805 8.14843C27.798 8.14297 27.7735 8.12833 27.7045 8.11717C27.6363 8.10613 27.5423 8.1011 27.4109 8.1011C27.0029 8.1011 26.4319 8.24267 26.1871 8.30386L25.9386 8.36599V6.819L26.0919 6.7822Z" fill="#000000" class="bmwfcol"/><path d="M6 16C6 12.9272 7.01989 10.4443 8.73211 8.73211C10.4443 7.01989 12.9272 6 16 6V4C12.4728 4 9.45567 5.18011 7.31789 7.31789C5.18011 9.45567 4 12.4728 4 16C4 19.5272 5.18011 22.5443 7.31789 24.6821C9.45567 26.8199 12.4728 28 16 28C17.9826 28 19.8056 27.6279 21.4056 26.9178L22 26.6541V23C22 21.8908 21.8569 21.0554 21.2812 20.1506C21.2196 20.0539 21.1531 19.9566 21.0817 19.8581C21.399 19.3767 21.6431 18.8302 21.8027 18.2344C21.9278 17.7676 21.9939 17.3036 21.9996 16.8493C22.0274 14.6209 20.6107 12.8669 18.3549 12.2625C17.9144 12.1445 17.5822 12.0722 17.211 12.0354C16.858 12.0003 16.4903 12 16.0039 12C14.7173 12 14.1076 11.6935 12.4725 10.8717C12.3305 10.8003 12.1808 10.7251 12.0222 10.6458L11.0372 10.1533L10.6417 11.1811C10.5219 11.4923 10.417 11.8155 10.3274 12.15C9.74373 14.3282 9.9438 16.4458 10.9032 18.1901C11.8655 19.9396 13.5438 21.2252 15.745 21.815C17.1131 22.1816 18.4528 21.9991 19.5526 21.3372C19.5796 21.321 19.6065 21.3045 19.6331 21.2877C19.9025 21.7329 20 22.1493 20 23V25.3302C18.8185 25.7635 17.4781 26 16 26C12.9272 26 10.4443 24.9801 8.73211 23.2679C7.01989 21.5557 6 19.0728 6 16ZM19.6775 18.2688C19.4124 17.998 19.1225 17.7082 18.8075 17.3933L17.7071 16.2929L16.2929 17.7071L17.2929 18.7071C17.6907 19.1049 18.0275 19.4425 18.3137 19.736C17.7432 20.012 17.0434 20.0924 16.2627 19.8832C14.5327 19.4196 13.3291 18.4507 12.6556 17.2262C12.0178 16.0667 11.8128 14.5996 12.1851 12.9665C13.4664 13.6024 14.4435 14 16.0039 14C16.5167 14 16.7785 14.0023 17.0134 14.0256C17.2303 14.0471 17.4445 14.0891 17.8372 14.1943C19.2905 14.5837 20.0152 15.5915 19.9998 16.8244C19.9963 17.1013 19.9558 17.3998 19.8709 17.7167C19.8183 17.9131 19.7533 18.0972 19.6775 18.2688Z" fill="#000000" class="bmwfcol"/><title>leaf_and_h2_rg_48</title></svg>