<svg width="48" height="48" viewBox="0 0 32 32" xmlns="http://www.w3.org/2000/svg"><path d="M18.9501 24.9988C19.3096 25.0168 19.6596 25.0172 19.9998 25.0009V22.9982C19.6957 23.0163 19.3791 23.0178 19.0499 23.0013C16.4168 22.8697 14.877 21.7774 13.878 20.4215C12.8373 19.009 12.3458 17.2605 11.9701 15.7576C11.1798 12.5964 9.6088 9.85819 8.25672 7.92663C7.66257 7.07784 7.10513 6.37694 6.66457 5.85549C10.5354 5.95864 14.9855 6.44742 18.6557 7.79317C22.8602 9.33477 25.7819 11.8829 26.0014 16.0526C26.0955 17.8411 25.5367 19.646 24.3874 20.9581C24.2462 21.1193 24.0952 21.2741 23.9344 21.4212C23.6815 19.3847 22.7242 17.7981 21.528 16.4293C20.8372 15.6389 20.0564 14.909 19.2849 14.2082C19.1341 14.0711 18.9839 13.9354 18.8345 13.8004C18.2077 13.2342 17.5948 12.6804 17.0071 12.0928L17 12.0999V14.8375C17.1709 14.993 17.341 15.1466 17.5088 15.2982L17.5101 15.2994C17.6553 15.4305 17.7989 15.5602 17.9401 15.6885C18.7061 16.3845 19.4129 17.0484 20.022 17.7454C21.2225 19.119 22 20.5694 22 22.4999V27.9999H24V23.8492C24.7233 23.4207 25.3556 22.8881 25.8918 22.2759C27.4223 20.5287 28.117 18.1962 27.9986 15.9475C27.7181 10.6173 23.8898 7.58211 19.3442 5.91542C14.8039 4.25063 9.28922 3.8335 5 3.8335H4V5.9143L4.29233 6.20663L4.29338 6.20769L4.30024 6.21464L4.33242 6.24764C4.36185 6.27804 4.4069 6.32509 4.46576 6.38805C4.58351 6.51402 4.75632 6.70347 4.96973 6.95058C5.39693 7.44523 5.98468 8.16844 6.61825 9.07355C7.89116 10.892 9.32011 13.4038 10.0298 16.2426C10.4041 17.7397 10.9683 19.844 12.2679 21.6078C13.6092 23.4283 15.6944 24.8361 18.9501 24.9988Z" fill="#000000" class="bmwfcol"/><title>leaf_rg_48</title></svg>