<svg width="48" height="48" viewBox="0 0 32 32" xmlns="http://www.w3.org/2000/svg"><path d="M6 16C6 12.9272 7.01989 10.4443 8.73211 8.73211C10.4443 7.01989 12.9272 6 16 6C17.2371 6 18.459 6.1828 19.4992 6.50007C20.1295 6.69234 20.6642 6.92507 21.0883 7.17671C20.7172 7.79726 20.5346 8.52467 20.7213 9.39054C20.9717 10.5521 21.862 11.7761 23.2929 13.207L24 13.9141L25.0001 12.914L27.2929 15.2069L28.7072 13.7927L26.4143 11.4998L27.0002 10.914L29.2929 13.2067L30.7072 11.7925L28.4144 9.49974L29.4143 8.49989L28.7071 7.79278C27.2763 6.3619 26.0523 5.47157 24.8907 5.22113C23.9388 5.01591 23.1542 5.25693 22.495 5.70417C21.8079 5.22804 20.9694 4.85754 20.0827 4.58709C19.1337 4.2976 18.0799 4.10748 17 4.03412V4H16C12.4728 4 9.45567 5.18011 7.31789 7.31789C5.18011 9.45567 4 12.4728 4 16C4 19.5272 5.18011 22.5443 7.31789 24.6821C9.45567 26.8199 12.4728 28 16 28C17.9826 28 19.8056 27.6279 21.4056 26.9178L22 26.6541V23C22 21.8908 21.8569 21.0554 21.2812 20.1506C21.2196 20.0539 21.1531 19.9566 21.0817 19.8581C21.399 19.3767 21.6431 18.8302 21.8027 18.2344C21.9278 17.7676 21.9939 17.3036 21.9996 16.8493C22.0274 14.6209 20.6107 12.8669 18.3549 12.2625C17.9144 12.1445 17.5822 12.0722 17.211 12.0354C16.858 12.0003 16.4903 12 16.0039 12C14.7173 12 14.1076 11.6935 12.4725 10.8717L12.4707 10.8708C12.3293 10.7997 12.1799 10.7246 12.0222 10.6458L11.0372 10.1533L10.6417 11.1811C10.5219 11.4923 10.417 11.8155 10.3274 12.15C9.74373 14.3282 9.9438 16.4458 10.9032 18.1901C11.8655 19.9396 13.5438 21.2252 15.745 21.815C17.1131 22.1816 18.4528 21.9991 19.5526 21.3372C19.5796 21.321 19.6065 21.3045 19.6331 21.2877C19.9025 21.7329 20 22.1493 20 23V25.3302C18.8185 25.7635 17.4781 26 16 26C12.9272 26 10.4443 24.9801 8.73211 23.2679C7.01989 21.5557 6 19.0728 6 16ZM19.6775 18.2688C19.4124 17.9981 19.1225 17.7082 18.8075 17.3933L17.7071 16.2929L16.2929 17.7071L17.2929 18.7071C17.6907 19.1049 18.0275 19.4425 18.3137 19.736C17.7432 20.012 17.0434 20.0924 16.2627 19.8832C14.5327 19.4196 13.3291 18.4507 12.6556 17.2262C12.0178 16.0667 11.8128 14.5996 12.1851 12.9665C13.4664 13.6024 14.4435 14 16.0039 14C16.5167 14 16.7785 14.0023 17.0134 14.0256C17.2303 14.0471 17.4445 14.0891 17.8372 14.1943C19.2905 14.5837 20.0152 15.5915 19.9998 16.8244C19.9963 17.1013 19.9558 17.3998 19.8709 17.7167C19.8183 17.9131 19.7533 18.0972 19.6775 18.2688ZM26.5682 8.51747L24.0176 11.0681C23.1326 10.0827 22.7737 9.42049 22.6764 8.96903C22.59 8.56824 22.686 8.22815 23.2071 7.70699C23.7283 7.18584 24.0684 7.0898 24.4692 7.17621C24.9206 7.27354 25.5829 7.63245 26.5682 8.51747Z" fill="#000000" class="bmwfcol"/><title>leaf_and_plug_rg_48</title></svg>