<svg width="48" height="48" viewBox="0 0 32 32" xmlns="http://www.w3.org/2000/svg"><path d="M10.0004 5H9L10.9287 6.92868C12.675 6.65307 14.0324 5.59312 14.6453 4H17.3553C18.073 5.86555 19.8116 7 22.0001 7H23.5858L24.7016 8.11582C22.9578 9.97334 22.0001 12.5337 22.0001 15.5C22.0001 16.4853 22.1058 17.4259 22.3108 18.3108L23.5 19.5H24.814C24.2898 18.3563 24.0001 17.0138 24.0001 15.5C24.0001 12.6816 25.0041 10.4557 26.6601 9.0006L27 8.70191V7.58579L24.4142 5H22.0001C20.3868 5 19.3596 4.12966 19.0791 2.79446L18.9123 2H13.0883L12.9214 2.79446C12.641 4.12966 11.6138 5 10.0004 5Z" fill="#000000" class="bmwfcol"/><path d="M17.319 29.5923C18.4953 27.9922 20.447 27 23 27L21.1538 25.1538C19.0603 25.5141 17.2897 26.4976 16.028 28H15.9726C14.3546 26.0733 11.8997 25 9.00043 25H8.7325L7.42917 22.7426C9.09127 20.8964 10.0004 18.3906 10.0004 15.5C10.0004 14.9536 9.96794 14.421 9.90402 13.904L8.5 12.5H7.56839C7.84959 13.404 8.00043 14.4075 8.00043 15.5C8.00043 18.2277 7.05991 20.3993 5.50124 21.8539L4.91992 22.3964L7.5778 27H9.00043C11.5535 27 13.5053 27.9922 14.6816 29.5923L14.9813 30H17.0193L17.319 29.5923Z" fill="#000000" class="bmwfcol"/><path d="M29.4144 28L5.41436 4H2.58594L26.5859 28H29.4144Z" fill="#000000" class="bmwfcol"/><title>leather_slash_rg_48</title></svg>