<svg width="48" height="48" viewBox="0 0 32 32" xmlns="http://www.w3.org/2000/svg"><path d="M13.0877 2H18.9117L19.0785 2.79446C19.3589 4.12966 20.3862 5 21.9995 5H24.4136L26.9994 7.58579V8.70191L26.6595 9.0006C25.0035 10.4557 23.9995 12.6816 23.9995 15.5C23.9995 18.2277 24.9401 20.3993 26.4987 21.8539L27.08 22.3964L24.4222 27H22.9995C20.4464 27 18.4947 27.9922 17.3184 29.5923L17.0187 30H14.9807L14.681 29.5923C13.5046 27.9922 11.5529 27 8.99982 27H7.57719L4.91931 22.3964L5.50063 21.8539C7.0593 20.3993 7.99982 18.2277 7.99982 15.5C7.99982 12.6816 6.99589 10.4557 5.3399 9.0006L4.99998 8.70191V7.58579L7.58577 5H9.99982C11.6132 5 12.6404 4.12966 12.9208 2.79446L13.0877 2ZM14.6447 4C13.927 5.86555 12.1884 7 9.99982 7H8.4142L7.29837 8.11582C9.04211 9.97334 9.99982 12.5337 9.99982 15.5C9.99982 18.3906 9.09066 20.8964 7.42856 22.7426L8.73189 25H8.99982C11.8991 25 14.354 26.0733 15.9719 28H16.0274C17.6454 26.0733 20.1002 25 22.9995 25H23.2675L24.5708 22.7426C22.9087 20.8964 21.9995 18.3906 21.9995 15.5C21.9995 12.5337 22.9572 9.97334 24.701 8.11582L23.5852 7H21.9995C19.8109 7 18.0724 5.86555 17.3547 4H14.6447Z" fill="#000000" class="bmwfcol"/><title>leather_rg_48</title></svg>