<svg width="48" height="48" viewBox="0 0 32 32" xmlns="http://www.w3.org/2000/svg"><path d="M13.2426 7.34315C14.7429 5.84285 16.7778 5 18.8995 5H24C26.7614 5 29 7.23858 29 10V11.2996C29 13.2703 28.3532 15.1865 27.1589 16.754L22.8965 22.3483C21.3834 24.3343 19.0298 25.5 16.5331 25.5H8.5C5.54622 25.5 3.13628 23.1715 3.00558 20.25H3C3 20.2069 3.00043 20.1637 3.0013 20.1207C3.00043 20.0806 3 20.0403 3 20C3 18.9475 3.29566 17.964 3.80845 17.1281C4.09632 16.6095 4.457 16.1288 4.88388 15.7019L13.2426 7.34315ZM5.53386 18.1412C5.20717 18.7451 5.02267 19.4215 5.00196 20.1182C5.06428 21.9965 6.60656 23.5 8.5 23.5H16.5331C18.4056 23.5 20.1708 22.6257 21.3057 21.1363L25.568 15.5419C26.4969 14.3227 27 12.8324 27 11.2996V10C27 8.34315 25.6569 7 24 7H18.8995C17.3082 7 15.7821 7.63214 14.6569 8.75736L8.91422 14.5H17C19.2091 14.5 21 16.2909 21 18.5C21 20.7091 19.2091 22.5 17 22.5H8.5C7.11929 22.5 6 21.3807 6 20C6 18.6193 7.11929 17.5 8.5 17.5H17C17.5523 17.5 18 17.9477 18 18.5C18 19.0523 17.5523 19.5 17 19.5H8.5C8.22386 19.5 8 19.7239 8 20C8 20.2761 8.22386 20.5 8.5 20.5H17C18.1046 20.5 19 19.6046 19 18.5C19 17.3954 18.1046 16.5 17 16.5H8.5C7.24996 16.5 6.15298 17.1553 5.53386 18.1412Z" fill="#000000" class="bmwfcol"/><title>leather_cloth_rg_48</title></svg>