<svg width="48" height="48" viewBox="0 0 32 32" xmlns="http://www.w3.org/2000/svg"><path d="M24.0109 15C24.1227 12.4177 25.1033 10.3686 26.6601 9.0006L27 8.70191V7.58579L24.4142 5H22.0001C20.3868 5 19.3596 4.12966 19.0791 2.79446L18.9123 2H13.0883L12.9214 2.79446C12.641 4.12966 11.6138 5 10.0004 5H7.58638L5.00059 7.58579V8.70191L5.34051 9.0006C6.9965 10.4557 8.00043 12.6816 8.00043 15.5C8.00043 18.2277 7.05991 20.3993 5.50124 21.8539L4.91992 22.3964L7.5778 27H9.00043C11.5535 27 13.5053 27.9922 14.6816 29.5923L14.9813 30H17.0193L17.319 29.5923C17.5231 29.3146 17.7506 29.0552 18.0006 28.8161V26.3103C17.2531 26.7645 16.59 27.3307 16.028 28H15.9726C14.3546 26.0733 11.8997 25 9.00043 25H8.7325L7.42917 22.7426C9.09127 20.8964 10.0004 18.3906 10.0004 15.5C10.0004 12.5337 9.04272 9.97334 7.29898 8.11582L8.41481 7H10.0004C12.189 7 13.9276 5.86555 14.6453 4H17.3553C18.073 5.86555 19.8116 7 22.0001 7H23.5858L24.7016 8.11582C23.0566 9.86814 22.1111 12.2459 22.0093 15H24.0109Z" fill="#000000" class="bmwfcol"/><path d="M19.4148 18L19.7078 18.293C20.7918 19.377 21.5605 20.4885 22.1166 21.8787C22.2417 22.1914 22.3552 22.5161 22.4589 22.8553C22.6097 22.2878 22.7862 21.7591 23.0006 21.2593V21C23.0006 19.8728 23.3807 18.8557 24.1185 18.1179C24.8563 17.3801 25.8734 17 27.0006 17H29.0006V19C29.0006 20.1272 28.6205 21.1443 27.8827 21.8821C27.1449 22.6199 26.1279 23 25.0006 23H24.4956C24.1775 24.0576 23.9636 25.3588 23.7429 27.1241L23.6334 28.0001H21.3679L21.2584 27.1241C21.0122 25.1544 20.7125 23.7535 20.2597 22.6215C19.8158 21.5117 19.2095 20.6231 18.2935 19.7072L16.5864 18H19.4148ZM25.0006 21C25.6734 21 26.1563 20.7801 26.4685 20.4679C26.7807 20.1557 27.0006 19.6728 27.0006 19C26.3279 19 25.8449 19.2199 25.5327 19.5321C25.2205 19.8443 25.0006 20.3272 25.0006 21Z" fill="#000000" class="bmwfcol"/><title>leather_and_plant_rg_48</title></svg>