<svg width="48" height="48" viewBox="0 0 32 32" xmlns="http://www.w3.org/2000/svg"><path d="M26.1845 10.1921C26.5363 9.99388 26.916 9.86713 27.3861 9.79477C28.0214 9.69697 28.853 9.69629 29.9999 9.69629V11.6963C28.7855 11.6963 28.1378 11.7026 27.6904 11.7715C27.4901 11.8023 27.3466 11.8428 27.2152 11.9084C27.848 12.4965 28.4595 13.091 28.9357 13.6717C29.4791 14.3346 30 15.158 30 16.0791V26.0291H25V24.0291H28V16.9856C26.5354 17.3331 25.0242 17.5032 23 17.6436V15.6386C24.8758 15.5054 26.2191 15.3479 27.4801 15.0535C27.4513 15.0166 27.4209 14.9787 27.389 14.9398C26.9922 14.4557 26.455 13.932 25.8236 13.3456L25.8216 13.3477C25.7765 13.306 25.6483 13.2132 25.288 13.1201C24.9254 13.0263 24.3988 12.9496 23.6209 12.8936C22.0645 12.7815 19.6905 12.7629 16 12.7629C12.3095 12.7629 9.93549 12.7815 8.37909 12.8936C7.60119 12.9496 7.07457 13.0263 6.71198 13.1201C6.35169 13.2132 6.22349 13.306 6.17835 13.3477L6.17641 13.3456C5.54504 13.9319 5.00775 14.4558 4.61098 14.9398C4.57909 14.9787 4.54875 15.0166 4.5199 15.0535C5.78086 15.3479 7.12416 15.5054 9 15.6386V17.6436C6.97575 17.5032 5.4646 17.3331 4 16.9856V24.0291H7V26.0291H2V16.0791C2 15.158 2.52085 14.3346 3.06435 13.6717C3.54045 13.091 4.15195 12.4966 4.78466 11.9085C4.6531 11.8428 4.50952 11.8023 4.30923 11.7715C3.86195 11.7026 3.21438 11.6963 2 11.6963V9.69629C3.14696 9.69629 3.97837 9.69697 4.61358 9.79477C5.0837 9.86715 5.46338 9.99392 5.81522 10.1921C6.01959 9.82362 6.24983 9.43393 6.49748 9.05257C6.82245 8.55214 7.19047 8.04566 7.58267 7.61454C7.96216 7.19739 8.42627 6.78106 8.95549 6.54873C10.3591 5.93274 11.5251 5.8291 16 5.8291C20.4746 5.8291 21.6423 5.93268 23.0449 6.5489L23.0461 6.54945C23.5745 6.78242 24.038 7.19855 24.4174 7.61579C24.8095 8.04691 25.1775 8.55319 25.5024 9.05343C25.75 9.43451 25.9802 9.82388 26.1845 10.1921ZM16 7.8291C11.4338 7.8291 10.7103 7.96279 9.75931 8.38009C9.60819 8.44647 9.36918 8.62283 9.06209 8.9604C8.76762 9.28409 8.46522 9.69465 8.17485 10.1418C8.00176 10.4084 7.83759 10.6807 7.68652 10.945C7.86125 10.9279 8.04411 10.9126 8.23541 10.8988C9.87918 10.7804 12.3339 10.7629 16 10.7629C19.6661 10.7629 22.1208 10.7804 23.7646 10.8988C23.9557 10.9125 24.1385 10.9278 24.3131 10.9449C24.1621 10.681 23.9981 10.4091 23.8252 10.1429C23.5349 9.69593 23.2324 9.28534 22.9378 8.9614C22.6308 8.62381 22.3915 8.4467 22.2395 8.37957C21.2906 7.96277 20.5653 7.8291 16 7.8291Z" fill="#000000" class="bmwfcol"/><path d="M12.3333 17.5996H10.3333V15.8913L11.5284 14.6963H15.252L15.9999 15.1433L16.7479 14.6963H20.4715L21.6666 15.8914V17.5996H19.6666V16.7198L19.643 16.6963H17.3L17 16.8756V17.5996H15V16.8757L14.6999 16.6963H12.3568L12.3333 16.7198V17.5996Z" fill="#000000" class="bmwfcol"/><path d="M10 19C9.44772 19 9 19.4477 9 20V23.5C9 24.0523 9.44772 24.5 10 24.5H22C22.5523 24.5 23 24.0523 23 23.5V20C23 19.4477 22.5523 19 22 19H10ZM11 22.5V21H21V22.5H11Z" fill="#000000" class="bmwfcol"/><title>license_plate_rg_48</title></svg>