<svg width="48" height="48" viewBox="0 0 32 32" xmlns="http://www.w3.org/2000/svg"><path d="M6.59289 6.59289C8.90567 4.28011 12.1728 3 16 3C19.8272 3 23.0943 4.28011 25.4071 6.59289C27.7199 8.90567 29 12.1728 29 16C29 19.8272 27.7199 23.0943 25.4071 25.4071C23.0943 27.7199 19.8272 29 16 29C12.1728 29 8.90567 27.7199 6.59289 25.4071C4.28011 23.0943 3 19.8272 3 16C3 12.1728 4.28011 8.90567 6.59289 6.59289ZM7.33775 8.75196C5.85807 10.5857 5 13.0477 5 16C5 18.9522 5.85802 21.4142 7.33764 23.2479L10.2929 20.2927C9.44834 19.1204 9 17.646 9 16C9 14.354 9.44837 12.8795 10.293 11.7072L7.33775 8.75196ZM8.75196 7.33775L11.7072 10.293C12.8795 9.44837 14.354 9 16 9C17.646 9 19.1204 9.44834 20.2927 10.2929L23.2479 7.33764C21.4142 5.85802 18.9522 5 16 5C13.0477 5 10.5857 5.85807 8.75196 7.33775ZM24.6621 8.75183L21.7069 11.707C22.5516 12.8794 23 14.3539 23 16C23 17.646 22.5516 19.1205 21.707 20.2928L24.6623 23.248C26.1419 21.4143 27 18.9523 27 16C27 13.0476 26.1419 10.5856 24.6621 8.75183ZM23.248 24.6623L20.2928 21.707C19.1205 22.5516 17.646 23 16 23C14.3539 23 12.8794 22.5516 11.707 21.7069L8.75183 24.6621C10.5856 26.1419 13.0476 27 16 27C18.9523 27 21.4143 26.1419 23.248 24.6623ZM12.3571 12.3571C11.5199 13.1943 11 14.4272 11 16C11 17.5728 11.5199 18.8057 12.3571 19.6429C13.1943 20.4801 14.4272 21 16 21C17.5728 21 18.8057 20.4801 19.6429 19.6429C20.4801 18.8057 21 17.5728 21 16C21 14.4272 20.4801 13.1943 19.6429 12.3571C18.8057 11.5199 17.5728 11 16 11C14.4272 11 13.1943 11.5199 12.3571 12.3571Z" fill="#000000" class="bmwfcol"/><title>life-ring_rg_48</title></svg>