<svg width="48" height="48" viewBox="0 0 32 32" xmlns="http://www.w3.org/2000/svg"><path d="M10.3242 23.0003C10.3242 21.3803 11.2469 19.9759 12.5953 19.2837V21.6655C12.33 22.0433 12.1742 22.5036 12.1742 23.0003C12.1742 24.2844 13.2152 25.3253 14.4992 25.3253C15.2577 25.3253 15.9313 24.9621 16.3557 24.4002H18.4337C17.8583 26.0175 16.314 27.1753 14.4992 27.1753C12.1934 27.1753 10.3242 25.3061 10.3242 23.0003Z" fill="#000000" class="bmwfcol"/><path d="M21.5313 26.5114H19.616L18.7901 23.429L15.7549 23.4289L15.5403 23.305C15.1628 23.0871 14.8479 22.8973 14.5979 22.7196C14.3488 22.5425 14.1118 22.3416 13.931 22.0844C13.5696 21.5702 13.5724 21.0043 13.5746 20.5897L13.5749 20.5002V18.4789C13.5749 18.2275 13.5769 17.61 14.0866 17.134C14.5538 16.6977 15.2392 16.5752 16.0027 16.5752C16.7662 16.5752 17.4516 16.6977 17.9188 17.134C18.4284 17.61 18.4305 18.2275 18.4305 18.4789V21.5789L20.2096 21.579L21.5313 26.5114ZM15.4249 18.475L15.4249 20.5002C15.4249 20.7728 15.4268 20.8962 15.4393 20.9851C15.4511 21.0689 15.5484 21.132 15.624 21.1812C15.6407 21.192 15.6564 21.2022 15.6699 21.2118C15.8075 21.3097 15.9935 21.4263 16.2526 21.5789H16.5805L16.5805 18.475C16.4712 18.4492 16.2893 18.4252 16.0027 18.4252C15.7161 18.4252 15.5341 18.4492 15.4249 18.475Z" fill="#000000" class="bmwfcol"/><path d="M6 10V30H26V10H6ZM8 12H24V28H8V12Z" fill="#000000" class="bmwfcol"/><path d="M15.9151 14.1892C15.9019 14.2129 15.8681 14.2952 15.8681 14.5005C15.8681 14.7058 15.9019 14.788 15.9151 14.8118C15.932 14.8191 15.9838 14.8355 16.1031 14.8355C16.2225 14.8355 16.2743 14.8191 16.2911 14.8118C16.3043 14.788 16.3381 14.7058 16.3381 14.5005C16.3381 14.2952 16.3043 14.2129 16.2911 14.1892C16.2743 14.1819 16.2225 14.1655 16.1031 14.1655C15.9838 14.1655 15.932 14.1819 15.9151 14.1892ZM15.9096 14.1919L15.9084 14.1926L15.9096 14.1919ZM16.2978 14.1926L16.2967 14.1919L16.2978 14.1926ZM16.2967 14.8091L16.2978 14.8084L16.2967 14.8091ZM15.9084 14.8084L15.9096 14.8091L15.9084 14.8084ZM14.9976 13.2243C15.3368 12.9013 15.7675 12.8355 16.1031 12.8355C16.4388 12.8355 16.8695 12.9013 17.2086 13.2243C17.5528 13.5521 17.6681 14.0148 17.6681 14.5005C17.6681 14.9861 17.5528 15.4489 17.2086 15.7767C16.8695 16.0997 16.4388 16.1655 16.1031 16.1655C15.7675 16.1655 15.3368 16.0997 14.9976 15.7767C14.6534 15.4489 14.5381 14.9861 14.5381 14.5005C14.5381 14.0148 14.6534 13.5521 14.9976 13.2243Z" fill="#000000" class="bmwfcol"/><path d="M23 7.38832L21 5.38832V8.99989H19L19 5.38663L17 7.38663V4.91175L19.9992 1.9126L23 4.91344V7.38832Z" fill="#000000" class="bmwfcol"/><path d="M13 5.61157L15 3.61157V6.08645L11.9992 9.08729L9 6.08813V3.61326L11 5.61326V2H13L13 5.61157Z" fill="#000000" class="bmwfcol"/><title>lift_for_disabled_rg_48</title></svg>