<svg width="48" height="48" viewBox="0 0 32 32" xmlns="http://www.w3.org/2000/svg"><path d="M13.8425 3.84289C14.4053 3.28011 15.1724 3 15.9996 3C16.8269 3 17.5939 3.28011 18.1567 3.84289C18.7195 4.40567 18.9996 5.17275 18.9996 6C18.9996 6.82725 18.7195 7.59433 18.1567 8.15711C17.5939 8.71989 16.8269 9 15.9996 9C15.1724 9 14.4053 8.71989 13.8425 8.15711C13.2797 7.59433 12.9996 6.82725 12.9996 6C12.9996 5.17275 13.2797 4.40567 13.8425 3.84289ZM15.2567 5.25711C15.1195 5.39433 14.9996 5.62725 14.9996 6C14.9996 6.37275 15.1195 6.60567 15.2567 6.74289C15.3939 6.88011 15.6269 7 15.9996 7C16.3724 7 16.6053 6.88011 16.7425 6.74289C16.8797 6.60567 16.9996 6.37275 16.9996 6C16.9996 5.62725 16.8797 5.39433 16.7425 5.25711C16.6053 5.11989 16.3724 5 15.9996 5C15.6269 5 15.3939 5.11989 15.2567 5.25711Z" fill="#000000" class="bmwfcol"/><path d="M5.86604 13.5004L9.08847 7.91895L9.75368 8.00949C10.8428 8.15773 11.9362 8.54108 12.9951 9.15243C14.033 9.75165 14.8977 10.4891 15.5653 11.3365L21.5221 17.2932L20.1079 18.7075L14.1639 12.7635L10.699 19.0004H14V28.0004H12V21.0004H4.00001L4.00001 19.9144C3.99986 18.7396 3.99976 17.8704 4.25024 16.9304C4.50449 15.9762 5.00095 14.9987 5.86604 13.5004ZM8.41104 19.0004L12.6756 11.3241C12.4631 11.1706 12.2363 11.0238 11.9951 10.8845C11.3645 10.5204 10.7385 10.2676 10.1295 10.1158L7.59809 14.5004C6.73113 16.002 6.36156 16.7745 6.1828 17.4453C6.05979 17.907 6.01946 18.344 6.00631 19.0004H8.41104Z" fill="#000000" class="bmwfcol"/><path d="M27.9996 12H18.4996L20.4996 14H25.9996V22H17.9996V19L15.9996 17V24H27.9996V12Z" fill="#000000" class="bmwfcol"/><title>lifting-person_rg_48</title></svg>