<svg width="48" height="48" viewBox="0 0 32 32" xmlns="http://www.w3.org/2000/svg"><path d="M23 7.38832L21 5.38832V8.99989H19L19 5.38663L17 7.38663V4.91175L19.9992 1.9126L23 4.91344V7.38832Z" fill="#000000" class="bmwfcol"/><path d="M13 5.61157L15 3.61157V6.08645L11.9992 9.08729L9 6.08813V3.61326L11 5.61326V2L13 2L13 5.61157Z" fill="#000000" class="bmwfcol"/><path d="M19.9242 22.425H21.4242V17.7782C21.4242 17.3416 21.2156 16.869 20.7563 16.5359C20.3198 16.2194 19.726 16.075 18.9992 16.075C18.2725 16.075 17.6786 16.2194 17.2422 16.5359C16.7828 16.869 16.5742 17.3416 16.5742 17.7782V22.425H18.0742V27H19.9242V22.425ZM18.4242 17.9924C18.5204 17.9616 18.6982 17.925 18.9992 17.925C19.3002 17.925 19.4781 17.9616 19.5742 17.9924V20.575H18.4242V17.9924Z" fill="#000000" class="bmwfcol"/><path d="M12.9992 16.075C12.2725 16.075 11.6786 16.2194 11.2422 16.5359C10.7828 16.869 10.5742 17.3416 10.5742 17.7782L10.5744 20.3782L10.0742 22.2447V23.4249H12.0742V26.9999H13.9242V23.4249H15.9242V22.2447L15.4241 20.3782L15.4242 17.7782C15.4242 17.3416 15.2156 16.869 14.7563 16.5359C14.3198 16.2194 13.726 16.075 12.9992 16.075ZM12.4244 20.6217L12.4242 17.9924C12.5204 17.9616 12.6982 17.925 12.9992 17.925C13.3002 17.925 13.4781 17.9616 13.5742 17.9924L13.5741 20.6217L13.8295 21.5749H12.169L12.4244 20.6217Z" fill="#000000" class="bmwfcol"/><path d="M6 10H26V30H6V10ZM8 12V28H24V12H8Z" fill="#000000" class="bmwfcol"/><path d="M12.8159 13.7887C12.8027 13.8124 12.7689 13.8947 12.7689 14.1C12.7689 14.3053 12.8027 14.3876 12.8159 14.4113C12.8328 14.4186 12.8845 14.435 13.0039 14.435C13.1233 14.435 13.1751 14.4186 13.1919 14.4113C13.2051 14.3876 13.2389 14.3053 13.2389 14.1C13.2389 13.8947 13.2051 13.8124 13.1919 13.7887C13.1751 13.7814 13.1233 13.765 13.0039 13.765C12.8845 13.765 12.8328 13.7814 12.8159 13.7887ZM12.8104 13.7914L12.8092 13.7921L12.8104 13.7914ZM13.1986 13.7921L13.1974 13.7914L13.1986 13.7921ZM13.1974 14.4086L13.1986 14.4079L13.1974 14.4086ZM12.8092 14.4079L12.8104 14.4086L12.8092 14.4079ZM11.8984 12.8238C12.2376 12.5008 12.6683 12.435 13.0039 12.435C13.3395 12.435 13.7702 12.5008 14.1094 12.8238C14.4536 13.1516 14.5689 13.6144 14.5689 14.1C14.5689 14.5856 14.4536 15.0484 14.1094 15.3762C13.7702 15.6992 13.3395 15.765 13.0039 15.765C12.6683 15.765 12.2376 15.6992 11.8984 15.3762C11.5542 15.0484 11.4389 14.5856 11.4389 14.1C11.4389 13.6144 11.5542 13.1516 11.8984 12.8238Z" fill="#000000" class="bmwfcol"/><path d="M18.8159 13.7887C18.8027 13.8124 18.7689 13.8947 18.7689 14.1C18.7689 14.3053 18.8027 14.3876 18.8159 14.4113C18.8328 14.4186 18.8845 14.435 19.0039 14.435C19.1233 14.435 19.1751 14.4186 19.1919 14.4113C19.2051 14.3876 19.2389 14.3053 19.2389 14.1C19.2389 13.8947 19.2051 13.8124 19.1919 13.7887C19.1751 13.7814 19.1233 13.765 19.0039 13.765C18.8845 13.765 18.8328 13.7814 18.8159 13.7887ZM18.8104 13.7914L18.8092 13.7921L18.8104 13.7914ZM19.1986 13.7921L19.1974 13.7914L19.1986 13.7921ZM19.1974 14.4086L19.1986 14.4079L19.1974 14.4086ZM18.8092 14.4079L18.8104 14.4086L18.8092 14.4079ZM17.8984 12.8238C18.2376 12.5008 18.6683 12.435 19.0039 12.435C19.3395 12.435 19.7702 12.5008 20.1094 12.8238C20.4536 13.1516 20.5689 13.6144 20.5689 14.1C20.5689 14.5856 20.4536 15.0484 20.1094 15.3762C19.7702 15.6992 19.3395 15.765 19.0039 15.765C18.6683 15.765 18.2376 15.6992 17.8984 15.3762C17.5542 15.0484 17.4389 14.5856 17.4389 14.1C17.4389 13.6144 17.5542 13.1516 17.8984 12.8238Z" fill="#000000" class="bmwfcol"/><title>lift_rg_48</title></svg>