<svg width="48" height="48" viewBox="0 0 32 32" xmlns="http://www.w3.org/2000/svg"><path d="M8.70039 4.70039C10.4786 2.92222 13.0041 2 16 2C18.9959 2 21.5214 2.92222 23.2996 4.70039C25.0778 6.47856 26 9.00408 26 12C26 15.4647 24.7635 18.2913 22.432 20.0553C21.8393 22.2668 21.3817 23.9669 20.9893 25.2623C20.5819 26.6076 20.2206 27.6026 19.8089 28.3098C19.3691 29.0652 18.8316 29.5602 18.0817 29.8024C17.4668 30.001 16.7621 30.0005 16.097 30H15.903C15.2379 30.0005 14.5332 30.001 13.9183 29.8024C13.1684 29.5602 12.6309 29.0652 12.1911 28.3098C11.7794 27.6026 11.4181 26.6076 11.0107 25.2623C10.6183 23.9669 10.1607 22.2668 9.56804 20.0553C7.23654 18.2913 6 15.4647 6 12C6 9.00408 6.92222 6.47856 8.70039 4.70039ZM10.1146 6.11461C8.78778 7.44144 8 9.41592 8 12C8 15.1034 9.13282 17.3361 11.0096 18.63L11.3127 18.8389L11.4079 19.1945C11.6893 20.2445 11.9386 21.1748 12.1636 22H15V17.4141L11 13.4141V10.5857L16.0001 15.5858L21 10.5858V13.4143L17 17.4143V22H19.8364C20.0614 21.1748 20.3107 20.2445 20.5921 19.1945L20.6873 18.8389L20.9904 18.63C22.8672 17.3361 24 15.1034 24 12C24 9.41592 23.2122 7.44144 21.8854 6.11461C20.5586 4.78778 18.5841 4 16 4C13.4159 4 11.4414 4.78778 10.1146 6.11461ZM12.9248 24.6826C13.3306 26.0224 13.6364 26.8174 13.9195 27.3035C14.1744 27.7415 14.3593 27.8431 14.533 27.8992C14.8118 27.9893 15.1931 28 16 28C16.8069 28 17.1882 27.9893 17.467 27.8992C17.6407 27.8431 17.8256 27.7415 18.0805 27.3035C18.3636 26.8174 18.6694 26.0224 19.0752 24.6826C19.1404 24.4672 19.2076 24.2399 19.2772 24H12.7228C12.7924 24.2399 12.8596 24.4672 12.9248 24.6826Z" fill="#000000" class="bmwfcol"/><title>light-bulb_rg_48</title></svg>