<svg width="48" height="48" viewBox="0 0 32 32" xmlns="http://www.w3.org/2000/svg"><path d="M22.4981 15.9148L31.2052 7.20767L29.791 5.79346L22.4981 13.0864L20.2052 10.7935L18.791 12.2077L22.4981 15.9148Z" fill="#000000" class="bmwfcol"/><path d="M20.3623 8.13771C19.6257 8.04789 18.839 8 17.9997 8H15.1823L14.9041 8.54615C13.6612 10.9864 13 13.8444 13 17C13 20.1556 13.6612 23.0136 14.9041 25.4539L15.1823 26H18C22.6218 26 25.6462 24.5479 27.515 22.6366C29.3573 20.7524 30 18.4972 30 17C30 15.8605 29.6278 14.2821 28.6378 12.7622L27.1829 14.2171C27.7857 15.2794 28 16.3136 28 17C28 18.0028 27.5427 19.7476 26.085 21.2384C24.6538 22.7021 22.1782 24 18 24H16.4229C15.5047 21.9868 15 19.6334 15 17C15 14.3666 15.5047 12.0132 16.4229 10H18C18.1673 10 18.3319 10.0021 18.4938 10.0062L20.3623 8.13771Z" fill="#000000" class="bmwfcol"/><path d="M2 12.8043L12.0868 10.1016C11.8421 10.8249 11.6381 11.5705 11.4755 12.3359L2 14.8749V12.8043Z" fill="#000000" class="bmwfcol"/><path d="M2 16.8043L11.148 14.3531C11.0693 15.0431 11.0218 15.7465 11.0059 16.4617L2 18.8749V16.8043Z" fill="#000000" class="bmwfcol"/><path d="M11.0396 18.3822L2 20.8043V22.8749L11.2468 20.3972C11.1484 19.7381 11.0792 19.066 11.0396 18.3822Z" fill="#000000" class="bmwfcol"/><path d="M2 24.8043L11.6043 22.2309C11.7631 22.8861 11.953 23.526 12.1734 24.1489L2 26.8749V24.8043Z" fill="#000000" class="bmwfcol"/><title>light-check_rg_48</title></svg>