<svg width="48" height="48" viewBox="0 0 32 32" xmlns="http://www.w3.org/2000/svg"><path d="M17 5V1H15V5H17Z" fill="#000000" class="bmwfcol"/><path d="M8.73211 7.31789L5.83211 4.41789L4.41789 5.83211L7.31789 8.73211L8.73211 7.31789Z" fill="#000000" class="bmwfcol"/><path d="M24.6821 8.73211L27.5821 5.83211L26.1679 4.41789L23.2679 7.31789L24.6821 8.73211Z" fill="#000000" class="bmwfcol"/><path d="M1 17H5V15H1V17Z" fill="#000000" class="bmwfcol"/><path d="M27 17H31V15H27V17Z" fill="#000000" class="bmwfcol"/><path d="M5.83211 27.5821L8.73211 24.6821L7.31789 23.2679L4.41789 26.1679L5.83211 27.5821Z" fill="#000000" class="bmwfcol"/><path d="M27.5821 26.1679L24.6821 23.2679L23.2679 24.6821L26.1679 27.5821L27.5821 26.1679Z" fill="#000000" class="bmwfcol"/><path d="M10.1654 10.0541C11.5986 8.62089 13.6241 7.88867 16 7.88867C18.3759 7.88867 20.4014 8.62089 21.8346 10.0541C23.2678 11.4872 24 13.5127 24 15.8887C24 18.6083 23.0376 20.8598 21.1976 22.2845C20.7536 23.9403 20.4076 25.2229 20.1091 26.205C19.7955 27.2366 19.5095 28.0246 19.1727 28.5943C18.8062 29.2146 18.3441 29.6353 17.6966 29.8393C17.1834 30.001 16.6004 30.0004 16.0861 29.9998L16 29.9998L15.9139 29.9998C15.3996 30.0004 14.8166 30.001 14.3034 29.8393C13.6559 29.6353 13.1938 29.2146 12.8273 28.5943C12.4905 28.0246 12.2045 27.2366 11.8909 26.205C11.5924 25.2229 11.2464 23.9403 10.8024 22.2845C8.96244 20.8598 8 18.6083 8 15.8887C8 13.5127 8.73222 11.4872 10.1654 10.0541ZM11.5796 11.4683C10.5978 12.4501 10 13.9246 10 15.8887C10 18.2458 10.8575 19.906 12.2447 20.8623L12.5477 21.0712L12.643 21.4267C12.7957 21.9963 12.9359 22.5193 13.0659 23H18.9341C19.0641 22.5193 19.2043 21.9963 19.357 21.4267L19.4523 21.0712L19.7553 20.8623C21.1425 19.906 22 18.2458 22 15.8887C22 13.9246 21.4022 12.4501 20.4204 11.4683C19.4386 10.4864 17.9641 9.88867 16 9.88867C14.0359 9.88867 12.5614 10.4864 11.5796 11.4683ZM13.8044 25.6233C14.1161 26.6487 14.3454 27.2322 14.549 27.5767C14.7228 27.8707 14.8262 27.9071 14.9043 27.9317C15.0878 27.9895 15.3536 27.9998 16 27.9998C16.6464 27.9998 16.9122 27.9895 17.0957 27.9317C17.1738 27.9071 17.2772 27.8707 17.451 27.5767C17.6546 27.2322 17.8839 26.6487 18.1956 25.6233C18.2547 25.4287 18.316 25.2212 18.3799 25H13.6201C13.684 25.2212 13.7453 25.4287 13.8044 25.6233Z" fill="#000000" class="bmwfcol"/><title>light_bulb_radiating_rg_48</title></svg>