<svg width="48" height="48" viewBox="0 0 32 32" xmlns="http://www.w3.org/2000/svg"><path d="M17.9997 7H15.1823L14.9041 7.54615C13.6612 9.98644 13 12.8444 13 16C13 19.1556 13.6612 22.0136 14.9041 24.4539L15.1823 25H18C22.6218 25 25.6462 23.5479 27.515 21.6366C29.3573 19.7524 30 17.4972 30 16C30 14.5028 29.3573 12.2476 27.515 10.3634C25.6462 8.4521 22.6215 7 17.9997 7ZM15 16C15 13.3666 15.5047 11.0132 16.4229 9H18C22.1782 9 24.6538 10.2979 26.085 11.7616C27.5427 13.2524 28 14.9972 28 16C28 17.0028 27.5427 18.7476 26.085 20.2384C24.6538 21.7021 22.1782 23 18 23H16.4229C15.5047 20.9868 15 18.6334 15 16Z" fill="#000000" class="bmwfcol"/><path d="M12 9V9.36423C11.8279 9.89802 11.6778 10.4436 11.5498 11H2V9H12Z" fill="#000000" class="bmwfcol"/><path d="M2 13H11.1912C11.1058 13.6547 11.0488 14.3218 11.0206 15H2V13Z" fill="#000000" class="bmwfcol"/><path d="M11.0206 17H2V19H11.1912C11.1058 18.3453 11.0488 17.6782 11.0206 17Z" fill="#000000" class="bmwfcol"/><path d="M2 21H11.5498C11.6778 21.5564 11.8279 22.102 12 22.6358V23H2V21Z" fill="#000000" class="bmwfcol"/><title>light-high-beam_rg_48</title></svg>