<svg width="48" height="48" viewBox="0 0 32 32" xmlns="http://www.w3.org/2000/svg"><path d="M21.2808 4H13.2362L10.0004 15.8661V18H15.2192L12.7192 28H16.0662L24 14.777V12.5H19.1558L21.2808 4ZM12.0369 16L14.7638 6H18.7192L17 12.8769V14.5H21.8338L15.5286 25.0087L17.7808 16H12.0369Z" fill="#000000" class="bmwfcol"/><path d="M5.23745 11L8.23745 14H5.76258L1.76257 10L5.76258 6L8.23745 6L5.23745 9L9.50002 9V11L5.23745 11Z" fill="#000000" class="bmwfcol"/><path d="M26.7626 23L23.7626 26H26.2374L30.2374 22L26.2374 18H23.7626L26.7626 21H22V23H26.7626Z" fill="#000000" class="bmwfcol"/><title>lightning_bolt_two_arrows_rg_48</title></svg>