<svg width="48" height="48" viewBox="0 0 32 32" xmlns="http://www.w3.org/2000/svg"><path d="M17.9997 7H15.1823L14.9041 7.54615C13.6612 9.98644 13 12.8444 13 16C13 19.1556 13.6612 22.0136 14.9041 24.4539L15.1823 25H18C22.6218 25 25.6462 23.5479 27.515 21.6366C29.3573 19.7524 30 17.4972 30 16C30 14.5028 29.3573 12.2476 27.515 10.3634C25.6462 8.4521 22.6215 7 17.9997 7ZM15 16C15 13.3666 15.5047 11.0132 16.4229 9H18C22.1782 9 24.6538 10.2979 26.085 11.7616C27.5427 13.2524 28 14.9972 28 16C28 17.0028 27.5427 18.7476 26.085 20.2384C24.6538 21.7021 22.1782 23 18 23H16.4229C15.5047 20.9868 15 18.6334 15 16Z" fill="#000000" class="bmwfcol"/><path d="M2 11.8047L12.0866 9.10205C11.8419 9.8254 11.638 10.5709 11.4754 11.3364L2 13.8753V11.8047Z" fill="#000000" class="bmwfcol"/><path d="M2 15.8047L11.148 13.3536C11.0692 14.0435 11.0218 14.7469 11.0059 15.4622L2 17.8753V15.8047Z" fill="#000000" class="bmwfcol"/><path d="M11.0396 17.3826L2 19.8047V21.8753L11.2469 19.3976C11.1484 18.7386 11.0792 18.0664 11.0396 17.3826Z" fill="#000000" class="bmwfcol"/><path d="M2 23.8047L11.6044 21.2313C11.7632 21.8865 11.9531 22.5264 12.1736 23.1493L2 25.8753V23.8047Z" fill="#000000" class="bmwfcol"/><title>light-low-beam_rg_48</title></svg>