<svg width="48" height="48" viewBox="0 0 32 32" xmlns="http://www.w3.org/2000/svg"><path d="M14.1894 16C14.1894 15.0017 15.0027 14.1879 16.001 14.1879C16.9992 14.1879 17.8125 14.9964 17.8125 15.9992C17.8125 16.9975 16.9992 17.8104 16.001 17.8104C15.0027 17.8104 14.1894 17.0028 14.1894 15.9992V16ZM19.0698 13.3147L23.4149 10.8034C23.6145 10.6902 23.7856 10.5314 23.9147 10.3396C24.0438 10.1478 24.1275 9.92812 24.159 9.6979C24.1905 9.46769 24.1691 9.23317 24.0964 9.01279C24.0238 8.79241 23.9018 8.59216 23.7402 8.42778C22.3495 7.00582 20.6035 5.99684 18.6903 5.50966C17.7247 5.26466 16.7867 5.98128 16.7867 6.97966V12.0022C16.7918 13.1685 18.0552 13.9009 19.0698 13.3147ZM15.2084 12.0022V6.98491C15.2084 5.99266 14.2703 5.27078 13.3039 5.51491C11.392 6.00479 9.64689 7.0134 8.25482 8.43303C7.56033 9.13828 7.72298 10.3099 8.58013 10.8095L12.9252 13.3208C13.945 13.9009 15.2084 13.1685 15.2084 12.0022ZM19.8615 17.3178L24.2118 19.829C25.0689 20.3225 26.1653 19.878 26.4304 18.9278C26.9659 17.0166 26.9659 14.9913 26.4304 13.0802C26.1645 12.1264 25.0689 11.6872 24.2118 12.1807L19.8615 14.6919C19.6311 14.8218 19.4391 15.012 19.3054 15.2428C19.1716 15.4736 19.1011 15.7365 19.1011 16.0044C19.1011 16.2723 19.1716 16.5353 19.3054 16.7661C19.4391 16.9969 19.6311 17.1871 19.8615 17.3169V17.3178ZM12.9347 18.6845L8.58959 21.1958C8.3898 21.309 8.21856 21.4678 8.08935 21.6597C7.96013 21.8516 7.87647 22.0713 7.84494 22.3017C7.81341 22.532 7.83488 22.7667 7.90764 22.9871C7.98041 23.2076 8.10249 23.4079 8.26429 23.5723C9.65495 24.9943 11.401 26.0032 13.3142 26.4904C14.2798 26.7345 15.2178 26.0179 15.2178 25.0204V19.9979C15.2075 18.8307 13.9442 18.1035 12.9347 18.6845ZM12.1438 14.6875L7.79355 12.1763C6.93641 11.6819 5.84002 12.1264 5.57496 13.0758C5.03956 14.987 5.03956 17.0122 5.57496 18.9234C5.84088 19.878 6.93641 20.3173 7.79355 19.8238L12.1438 17.3125C12.3731 17.1817 12.564 16.9912 12.6968 16.7605C12.8297 16.5298 12.8997 16.2673 12.8997 16C12.8997 15.7327 12.8297 15.4702 12.6968 15.2396C12.564 15.0089 12.3731 14.8183 12.1438 14.6875ZM16.7927 20.0032V25.0257C16.7927 26.0179 17.7307 26.7398 18.6972 26.4957C20.6093 26.0059 22.3548 24.9973 23.7471 23.5775C24.4416 22.8723 24.2781 21.7007 23.4218 21.2019L19.0758 18.6907C18.0569 18.1044 16.7927 18.8307 16.7927 20.0032Z" fill="#000000" class="bmwfcol"/><path d="M16 30C8.27022 30 2 23.735 2 16C2 8.27025 8.27022 2 16 2C23.7349 2 30.0052 8.27025 30 16C30 23.7297 23.7349 30 16 30ZM28.4165 16C28.4165 9.15487 22.846 3.589 16.0009 3.589C9.1549 3.589 3.5895 9.154 3.5895 16C3.5895 22.8451 9.1549 28.4163 16.0009 28.4163C22.846 28.4163 28.4165 22.8451 28.4165 16Z" fill="#000000" class="bmwfcol"/><title>lime_rg_48</title></svg>