<svg width="48" height="48" viewBox="0 0 32 32" xmlns="http://www.w3.org/2000/svg"><path d="M23.0004 5V9.99976L21.0004 11.9998V8.41398L17.0001 12.4142L15.0001 10.4142L10.7072 14.7071L9.29303 13.2929L15.0001 7.58579L17.0001 9.58579L19.5859 7H16.0001L18.0001 5H23.0004Z" fill="#000000" class="bmwfcol"/><path d="M28.3684 14.4031C28.9704 14.6299 29.3997 14.9852 29.7074 15.2928L30.4147 15.9999L21.5891 24.8256C20.7036 25.7123 20.044 26.3729 19.0665 26.6987C18.5666 26.8653 18.0256 26.9343 17.3965 26.9674C16.7764 27 16.0047 27 15.029 27H11.4144L9.41436 29H7.58594L1.58594 23L6.30666 18.2793C6.79513 17.7908 7.18002 17.4059 7.49357 17.113C7.80632 16.8208 8.09329 16.5766 8.38671 16.397C9.03833 15.9983 9.61222 15.9991 10.1896 15.9999L10.4 16L14.1321 17L19.0002 17C19.4743 17 19.9403 17.1457 20.3113 17.457C22.8562 15.4492 24.7373 14.5139 26.1993 14.2527C27.0435 14.1018 27.7594 14.1737 28.3684 14.4031ZM19.0001 19L13.8688 19L10.1379 18.0003C9.5985 18.0031 9.55695 18.0257 9.43065 18.103C9.31554 18.1734 9.14825 18.3042 8.85887 18.5745C8.57319 18.8414 8.21232 19.202 7.70726 19.7071L4.41436 23L8.41436 27H8.58594L10.5859 25H15.0002C16.0109 25 16.73 24.9997 17.2914 24.9701C17.8499 24.9407 18.1839 24.8847 18.4341 24.8013C18.9136 24.6415 19.2397 24.3465 20.2933 23.2929L27.3861 16.2001C27.1749 16.1636 26.9036 16.1585 26.5511 16.2215C25.4854 16.4119 23.7543 17.211 21.0003 19.4697L21.0001 20.4143L20.7073 20.7071C19.6534 21.761 18.7738 22.3795 17.8165 22.6987C16.9111 23.0005 16.0168 23.0003 15.0818 23L11.0002 23V21H15.0004C16.0358 21 16.6158 20.9907 17.184 20.8013C17.6686 20.6398 18.2151 20.3183 19.0002 19.5776L19.0001 19Z" fill="#000000" class="bmwfcol"/><title>line_up_arrow_on_hand_rg_48</title></svg>