<svg width="48" height="48" viewBox="0 0 32 32" xmlns="http://www.w3.org/2000/svg"><path d="M6.00008 10.4143L10.2072 6.20718L8.79297 4.79297L6.00008 7.58586L4.70718 6.29297L3.29297 7.70718L6.00008 10.4143Z" fill="#000000" class="bmwfcol"/><path d="M14 9H28V7H14V9Z" fill="#000000" class="bmwfcol"/><path d="M14 17H28V15H14V17Z" fill="#000000" class="bmwfcol"/><path d="M28 25H14V23H28V25Z" fill="#000000" class="bmwfcol"/><path d="M10.2072 14.2072L6.00008 18.4143L3.29297 15.7072L4.70718 14.293L6.00008 15.5859L8.79297 12.793L10.2072 14.2072Z" fill="#000000" class="bmwfcol"/><path d="M6.00008 26.4143L10.2072 22.2072L8.79297 20.793L6.00008 23.5859L4.70718 22.293L3.29297 23.7072L6.00008 26.4143Z" fill="#000000" class="bmwfcol"/><title>list-checkmarks_rg_48</title></svg>