<svg width="48" height="48" viewBox="0 0 32 32" xmlns="http://www.w3.org/2000/svg"><path d="M21.6955 6.69555C22.1789 6.21224 22.8283 6 23.5 6C24.1717 6 24.8211 6.21224 25.3045 6.69555C25.7878 7.17886 26 7.82826 26 8.5C26 9.17174 25.7878 9.82114 25.3045 10.3045C24.8211 10.7878 24.1717 11 23.5 11C22.8283 11 22.1789 10.7878 21.6955 10.3045C21.2122 9.82114 21 9.17174 21 8.5C21 7.82826 21.2122 7.17886 21.6955 6.69555ZM23.1098 8.10976C23.0746 8.14489 23 8.24549 23 8.5C23 8.75451 23.0746 8.85511 23.1098 8.89024C23.1449 8.92537 23.2455 9 23.5 9C23.7545 9 23.8551 8.92537 23.8902 8.89024C23.9254 8.85511 24 8.75451 24 8.5C24 8.24549 23.9254 8.14489 23.8902 8.10976C23.8551 8.07463 23.7545 8 23.5 8C23.2455 8 23.1449 8.07463 23.1098 8.10976Z" fill="#000000" class="bmwfcol"/><path d="M18.7758 3.72986C19.9514 2.57891 21.5984 2 23.5 2C25.4016 2 27.0486 2.57891 28.2242 3.72986C29.4023 4.88321 30 6.50649 30 8.38462C30 10.3602 29.1112 12.1809 28.0258 13.7213C26.9353 15.269 25.5693 16.6398 24.4753 17.7136L24.1835 18H22.8165L22.5247 17.7136C21.4307 16.6398 20.0647 15.269 18.9742 13.7213C17.8888 12.1809 17 10.3602 17 8.38462C17 6.50649 17.5977 4.88321 18.7758 3.72986ZM20.1749 5.15899C19.4528 5.86602 19 6.93505 19 8.38462C19 9.76606 19.6291 11.1786 20.6091 12.5694C21.4595 13.7763 22.5168 14.8881 23.5 15.866C24.4832 14.8881 25.5405 13.7763 26.3909 12.5694C27.3709 11.1786 28 9.76606 28 8.38462C28 6.93505 27.5472 5.86602 26.8251 5.15899C26.1004 4.44955 24.9974 4 23.5 4C22.0026 4 20.8996 4.44955 20.1749 5.15899Z" fill="#000000" class="bmwfcol"/><path d="M12.8038 4L15.4248 5.51321C15.2144 6.1796 15.0842 6.87807 15.0297 7.59452L13 6.42268V22.1134L19 25.5775V16.9439C19.7033 17.7317 20.4037 18.4327 21 19.0194V25.8404L26.9997 24.2327V18.016C27.6488 17.347 28.3452 16.586 28.9997 15.7572V25.7674L20.6676 28H19.1959L12.2677 24H12.0931L4.63167 25.9993L3 25.9993V6.2326L11.3322 4H12.8038ZM5 7.76726L5 23.83L11 22.2223V6.15956L5 7.76726Z" fill="#000000" class="bmwfcol"/><title>location-map_rg_48</title></svg>