<svg width="48" height="48" viewBox="0 0 32 32" xmlns="http://www.w3.org/2000/svg"><path d="M9.38961 6.38961C7.88651 7.8927 7 10.1181 7 13C7 15.8264 8.25536 18.6274 10.0807 21.2735C11.813 23.7848 13.9937 26.0654 15.9159 28H16.0841C18.0063 26.0654 20.187 23.7848 21.9193 21.2735C23.7446 18.6274 25 15.8264 25 13C25 10.1181 24.1135 7.8927 22.6104 6.38961C21.1073 4.88651 18.8819 4 16 4C13.1181 4 10.8927 4.88651 9.38961 6.38961ZM7.97539 4.97539C9.9273 3.02349 12.7019 2 16 2C19.2981 2 22.0727 3.02349 24.0246 4.97539C25.9765 6.9273 27 9.70192 27 13C27 16.4082 25.4954 19.6116 23.5656 22.4092C21.6313 25.2133 19.1974 27.7112 17.2076 29.7062L16.9145 30H15.0855L14.7924 29.7062C12.8026 27.7112 10.3687 25.2133 8.43437 22.4092C6.5046 19.6116 5 16.4082 5 13C5 9.70192 6.02349 6.9273 7.97539 4.97539Z" fill="#000000" class="bmwfcol"/><path d="M13.7809 10.7809C13.3137 11.248 13 11.9736 13 13C13 14.0264 13.3137 14.752 13.7809 15.2191C14.248 15.6863 14.9736 16 16 16C17.0264 16 17.752 15.6863 18.2191 15.2191C18.6863 14.752 19 14.0264 19 13C19 11.9736 18.6863 11.248 18.2191 10.7809C17.752 10.3137 17.0264 10 16 10C14.9736 10 14.248 10.3137 13.7809 10.7809ZM12.3666 9.36664C13.282 8.4513 14.5564 8 16 8C17.4436 8 18.718 8.4513 19.6334 9.36664C20.5487 10.282 21 11.5564 21 13C21 14.4436 20.5487 15.718 19.6334 16.6334C18.718 17.5487 17.4436 18 16 18C14.5564 18 13.282 17.5487 12.3666 16.6334C11.4513 15.718 11 14.4436 11 13C11 11.5564 11.4513 10.282 12.3666 9.36664Z" fill="#000000" class="bmwfcol"/><title>location-pin_rg_48</title></svg>