<svg width="48" height="48" viewBox="0 0 32 32" xmlns="http://www.w3.org/2000/svg"><path d="M5.4624 8.78213C5.4624 7.96028 6.12865 7.29404 6.9505 7.29404C7.77235 7.29404 8.43859 7.96028 8.43859 8.78213C8.43859 9.60398 7.77235 10.2702 6.9505 10.2702C6.12865 10.2702 5.4624 9.60398 5.4624 8.78213Z" fill="#000000" class="bmwfcol"/><path d="M3.42817 5.37076C4.31541 4.50214 5.54918 4.075 6.95001 4.075C8.35083 4.075 9.58461 4.50214 10.4718 5.37076C11.3614 6.2416 11.8036 7.45948 11.8036 8.84615C11.8036 10.3199 11.1413 11.6634 10.355 12.7795C9.56388 13.9022 8.57552 14.8932 7.79423 15.6601L7.52438 15.925H6.37563L6.10579 15.6601C5.32449 14.8932 4.33614 13.9022 3.54502 12.7795C2.75867 11.6634 2.09644 10.3199 2.09644 8.84615C2.09644 7.45948 2.53867 6.2416 3.42817 5.37076ZM4.72238 6.6927C4.25456 7.1507 3.94644 7.8559 3.94644 8.84615C3.94644 9.7703 4.36847 10.7362 5.05733 11.7139C5.6122 12.5014 6.2945 13.2337 6.95001 13.8921C7.60552 13.2337 8.28782 12.5014 8.84268 11.7139C9.53155 10.7362 9.95358 9.7703 9.95358 8.84615C9.95358 7.8559 9.64545 7.1507 9.17764 6.6927C8.70755 6.23247 7.97704 5.925 6.95001 5.925C5.92298 5.925 5.19247 6.23247 4.72238 6.6927Z" fill="#000000" class="bmwfcol"/><path d="M24.0006 16.4924C23.1052 16.4924 22.3794 17.2183 22.3794 18.1137C22.3794 19.009 23.1052 19.7349 24.0006 19.7349C24.896 19.7349 25.6218 19.009 25.6218 18.1137C25.6218 17.2183 24.896 16.4924 24.0006 16.4924Z" fill="#000000" class="bmwfcol"/><path d="M19.6417 13.8986C20.7309 12.8322 22.253 12.3 24 12.3C25.7471 12.3 27.2691 12.8322 28.3583 13.8986C29.45 14.9673 30 16.4682 30 18.1951C30 20.0181 29.1802 21.6919 28.1887 23.099C27.1921 24.5135 25.9448 25.7648 24.9503 26.7409L24.6586 27.0273H23.3414L23.0497 26.7409C22.0552 25.7648 20.8079 24.5135 19.8113 23.099C18.8198 21.6919 18 20.0181 18 18.1951C18 16.4682 18.55 14.9673 19.6417 13.8986ZM21.0408 15.3277C20.405 15.9501 20 16.8968 20 18.1951C20 19.424 20.5601 20.6895 21.4462 21.9471C22.1964 23.0118 23.1257 23.9958 24 24.868C24.8743 23.9958 25.8036 23.0118 26.5538 21.9471C27.4399 20.6895 28 19.424 28 18.1951C28 16.8968 27.595 15.9501 26.9592 15.3277C26.3209 14.7028 25.3429 14.3 24 14.3C22.6571 14.3 21.6791 14.7028 21.0408 15.3277Z" fill="#000000" class="bmwfcol"/><path d="M13 15H11V17H13C13.3086 17 14 17.4021 14 18.5C14 19.5979 13.3086 20 13 20H9C8.13305 20 7.13775 20.2355 6.33898 20.8909C5.50696 21.5735 5 22.6213 5 24C5 25.3787 5.50696 26.4265 6.33898 27.1091C7.13775 27.7645 8.13305 28 9 28H19V26H9C8.46238 26 7.95768 25.8502 7.60759 25.563C7.29075 25.303 7 24.8508 7 24C7 23.1492 7.29075 22.697 7.60759 22.437C7.95768 22.1498 8.46238 22 9 22H13C14.6913 22 16 20.4021 16 18.5C16 16.5979 14.6913 15 13 15Z" fill="#000000" class="bmwfcol"/><title>location_path_rg_48</title></svg>