<svg width="48" height="48" viewBox="0 0 32 32" xmlns="http://www.w3.org/2000/svg"><path d="M10.5 20C10.5 19.1716 11.1716 18.5 12 18.5C12.8284 18.5 13.5 19.1716 13.5 20C13.5 20.8284 12.8284 21.5 12 21.5C11.1716 21.5 10.5 20.8284 10.5 20Z" fill="#000000" class="bmwfcol"/><path d="M18 9C18 7.42725 18.5199 6.19433 19.3571 5.35711C20.1943 4.51989 21.4272 4 23 4C24.5728 4 25.8057 4.51989 26.6429 5.35711C27.4801 6.19433 28 7.42725 28 9V14H30V9C30 6.97275 29.3199 5.20567 28.0571 3.94289C26.7943 2.68011 25.0272 2 23 2C20.9728 2 19.2057 2.68011 17.9429 3.94289C16.6801 5.20567 16 6.97275 16 9V12H5.99999C4.89708 12 3.9158 12.2056 3.18207 12.7119C2.39603 13.2543 2 14.0706 2 15V24.9998C2 25.9292 2.39603 26.7455 3.18207 27.2878C3.91581 27.7941 4.89708 27.9998 5.99999 27.9998H18C19.1029 27.9998 20.0842 27.7941 20.8179 27.2879C21.604 26.7455 22 25.9292 22 24.9998V15C22 14.0706 21.604 13.2543 20.8179 12.7119C20.0842 12.2056 19.1029 12 18 12V9ZM5.99999 14H18C18.8971 14 19.4158 14.1744 19.6821 14.3581C19.8961 14.5057 20 14.6894 20 15V24.9998C20 25.3104 19.8961 25.4941 19.6821 25.6417C19.4158 25.8254 18.8971 25.9998 18 25.9998H5.99999C5.1029 25.9998 4.58418 25.8254 4.31792 25.6417C4.10397 25.4941 4 25.3104 4 24.9998V15C4 14.6894 4.10397 14.5057 4.31792 14.3581C4.58418 14.1744 5.1029 14 5.99999 14Z" fill="#000000" class="bmwfcol"/><title>lock-unlocked_rg_48</title></svg>