<svg width="48" height="48" viewBox="0 0 32 32" xmlns="http://www.w3.org/2000/svg"><path d="M16 18.5C15.1716 18.5 14.5 19.1716 14.5 20C14.5 20.8284 15.1716 21.5 16 21.5C16.8284 21.5 17.5 20.8284 17.5 20C17.5 19.1716 16.8284 18.5 16 18.5Z" fill="#000000" class="bmwfcol"/><path d="M9 12.0639V9C9 6.97275 9.68011 5.20567 10.9429 3.94289C12.2057 2.68011 13.9728 2 16 2C18.0272 2 19.7943 2.68011 21.0571 3.94289C22.3199 5.20567 23 6.97275 23 9V12.0639C23.6953 12.159 24.3148 12.3648 24.8179 12.7119C25.604 13.2543 26 14.0706 26 15V24.9998C26 25.9292 25.604 26.7455 24.8179 27.2879C24.0842 27.7941 23.1029 27.9998 22 27.9998H9.99999C8.89708 27.9998 7.91581 27.7941 7.18207 27.2878C6.39603 26.7455 6 25.9292 6 24.9998V15C6 14.0706 6.39603 13.2543 7.18207 12.7119C7.68519 12.3648 8.3047 12.159 9 12.0639ZM11 9V12H21V9C21 7.42725 20.4801 6.19433 19.6429 5.35711C18.8057 4.51989 17.5728 4 16 4C14.4272 4 13.1943 4.51989 12.3571 5.35711C11.5199 6.19433 11 7.42725 11 9ZM9.99999 14C9.1029 14 8.58418 14.1744 8.31792 14.3581C8.10397 14.5057 8 14.6894 8 15V24.9998C8 25.3104 8.10397 25.4941 8.31792 25.6417C8.58418 25.8254 9.1029 25.9998 9.99999 25.9998H22C22.8971 25.9998 23.4158 25.8254 23.6821 25.6417C23.8961 25.4941 24 25.3104 24 24.9998V15C24 14.6894 23.8961 14.5057 23.6821 14.3581C23.4158 14.1744 22.8971 14 22 14H9.99999Z" fill="#000000" class="bmwfcol"/><title>lock-locked_rg_48</title></svg>