<svg width="48" height="48" viewBox="0 0 32 32" xmlns="http://www.w3.org/2000/svg"><path d="M12.5 20C11.6716 20 11 20.6716 11 21.5C11 22.3284 11.6716 23 12.5 23C13.3284 23 14 22.3284 14 21.5C14 20.6716 13.3284 20 12.5 20Z" fill="#000000" class="bmwfcol"/><path d="M12.5 9C11.6716 9 11 9.67157 11 10.5C11 11.3284 11.6716 12 12.5 12C13.3284 12 14 11.3284 14 10.5C14 9.67157 13.3284 9 12.5 9Z" fill="#000000" class="bmwfcol"/><path d="M26 6H17V28H6C5.48408 28 4.95856 27.8378 4.56039 27.4396C4.16222 27.0414 4 26.5159 4 26V6C4 5.48408 4.16222 4.95856 4.56039 4.56039C4.95856 4.16222 5.48408 4 6 4H26C26.5159 4 27.0414 4.16222 27.4396 4.56039C27.8378 4.95856 28 5.48408 28 6V14H26V6ZM6 17V26H15V17H6ZM6 15H15V6H6V15Z" fill="#000000" class="bmwfcol"/><path d="M23.5 9C22.6716 9 22 9.67157 22 10.5C22 11.3284 22.6716 12 23.5 12C24.3284 12 25 11.3284 25 10.5C25 9.67157 24.3284 9 23.5 9Z" fill="#000000" class="bmwfcol"/><path d="M25 24C24.1716 24 23.5 24.6716 23.5 25.5C23.5 26.3284 24.1716 27 25 27C25.8284 27 26.5 26.3284 26.5 25.5C26.5 24.6716 25.8284 24 25 24Z" fill="#000000" class="bmwfcol"/><path d="M29.0001 21.028V20C29.0001 18.8728 28.6199 17.8557 27.8822 17.1179C27.1444 16.3801 26.1273 16 25 16C23.8728 16 22.8557 16.3801 22.1179 17.1179C21.3801 17.8557 21 18.8728 21 20V21.028C20.5701 21.0786 20.1566 21.2033 19.8071 21.4445C19.271 21.8143 19 22.3806 19 23.0001L19 28C19 28.6194 19.271 29.1857 19.8071 29.5556C20.2908 29.8894 20.8971 30 21.5 30L28.5 30C29.1029 30 29.7092 29.8894 30.1929 29.5556C30.729 29.1857 31 28.6194 31 28V23.0001C31 22.3806 30.729 21.8143 30.1929 21.4445C29.8434 21.2033 29.43 21.0786 29.0001 21.028ZM23.5321 18.5321C23.8443 18.2199 24.3273 18 25 18C25.6728 18 26.1557 18.2199 26.468 18.5321C26.7802 18.8443 27.0001 19.3273 27.0001 20V21L23 21V20C23 19.3273 23.2199 18.8443 23.5321 18.5321ZM21.5 23L28.5 23C28.7722 23 28.9254 23.0373 29 23.0644V27.9356C28.9254 27.9627 28.7722 28 28.5 28L21.5 28C21.2278 28 21.0746 27.9627 21 27.9356V23.0644C21.0746 23.0373 21.2278 23 21.5 23Z" fill="#000000" class="bmwfcol"/><title>locker_rg_48</title></svg>