<svg width="48" height="48" viewBox="0 0 32 32" xmlns="http://www.w3.org/2000/svg"><path d="M15.6374 17L10.6071 22.1875H13.393L19.393 16L13.393 9.81253H10.6071L15.6374 15H4V17H15.6374Z" fill="#000000" class="bmwfcol"/><path d="M25 6H17V4H25C25.9294 4 26.7457 4.39603 27.2881 5.18207C27.7944 5.91581 28 6.89709 28 8V24C28 25.1029 27.7944 26.0842 27.2881 26.8179C26.7457 27.604 25.9294 28 25 28H17V26H25C25.3106 26 25.4943 25.896 25.6419 25.6821C25.8256 25.4158 26 24.8971 26 24V8C26 7.10291 25.8256 6.58419 25.6419 6.31793C25.4943 6.10397 25.3106 6 25 6Z" fill="#000000" class="bmwfcol"/><title>login_rg_48</title></svg>