<svg width="48" height="48" viewBox="0 0 32 32" xmlns="http://www.w3.org/2000/svg"><path d="M15 6H7C6.6894 6 6.50571 6.10397 6.35808 6.31793C6.17436 6.58419 6 7.10291 6 8V24C6 24.8971 6.17436 25.4158 6.35808 25.6821C6.50571 25.896 6.6894 26 7 26H15V28H7C6.0706 28 5.25429 27.604 4.71192 26.8179C4.20564 26.0842 4 25.1029 4 24V8C4 6.89709 4.20564 5.91581 4.71192 5.18207C5.25429 4.39603 6.0706 4 7 4H15V6Z" fill="#000000" class="bmwfcol"/><path d="M19.5857 22L24.5857 17H13V15H24.5859L19.5859 10H22.4143L28.4142 15.9999L22.4141 22H19.5857Z" fill="#000000" class="bmwfcol"/><title>logout_rg_48</title></svg>