<svg width="48" height="48" viewBox="0 0 32 32" xmlns="http://www.w3.org/2000/svg"><path d="M16.9004 20V22H14.9004V20H16.9004Z" fill="#000000" class="bmwfcol"/><path d="M16.9004 17V19H14.9004V17H16.9004Z" fill="#000000" class="bmwfcol"/><path d="M16.9004 14V16H14.9004V14H16.9004Z" fill="#000000" class="bmwfcol"/><path d="M5.0825 10.1821C3.72028 11.5443 2.90039 13.5272 2.90039 16C2.90039 18.4728 3.72028 20.4557 5.0825 21.8179C6.44472 23.1801 8.42764 24 10.9004 24C12.4487 24 13.8032 23.6778 14.9295 23.1078L15.1425 23H16.6583L16.8712 23.1078C17.9976 23.6778 19.3521 24 20.9004 24C23.3731 24 25.3561 23.1801 26.7183 21.8179C28.0805 20.4557 28.9004 18.4728 28.9004 16C28.9004 13.5272 28.0805 11.5443 26.7183 10.1821C25.3561 8.81989 23.3731 8 20.9004 8C19.3521 8 17.9976 8.32222 16.8712 8.89225L16.6583 9H15.1425L14.9295 8.89225C13.8032 8.32222 12.4487 8 10.9004 8C8.42764 8 6.44472 8.81989 5.0825 10.1821ZM3.66828 8.76789C5.45606 6.98011 7.97314 6 10.9004 6C12.635 6 14.2273 6.34346 15.6127 7H16.1881C17.5735 6.34346 19.1658 6 20.9004 6C23.8276 6 26.3447 6.98011 28.1325 8.76789C29.9203 10.5557 30.9004 13.0728 30.9004 16C30.9004 18.9272 29.9203 21.4443 28.1325 23.2321C26.3447 25.0199 23.8276 26 20.9004 26C19.1658 26 17.5735 25.6565 16.1881 25H15.6127C14.2273 25.6565 12.635 26 10.9004 26C7.97314 26 5.45606 25.0199 3.66828 23.2321C1.8805 21.4443 0.900391 18.9272 0.900391 16C0.900391 13.0728 1.8805 10.5557 3.66828 8.76789Z" fill="#000000" class="bmwfcol"/><path d="M27.3575 19.0423C27.0873 19.7195 26.7258 20.3086 26.294 20.8073L19.4867 14H22.3151L27.3575 19.0423Z" fill="#000000" class="bmwfcol"/><path d="M4.44416 19.0424L9.48661 14H12.315L5.50766 20.8074C5.07587 20.3087 4.71429 19.7196 4.44416 19.0424Z" fill="#000000" class="bmwfcol"/><title>look-ahead-assistant_rg_48</title></svg>