<svg width="48" height="48" viewBox="0 0 32 32" xmlns="http://www.w3.org/2000/svg"><path d="M19 23.8048C19.6239 23.9326 20.2917 24 21 24C23.4728 24 25.4557 23.1801 26.8179 21.8179C28.1801 20.4557 29 18.4728 29 16C29 13.5272 28.1801 11.5443 26.8179 10.1821C25.4557 8.81989 23.4728 8 21 8C19.4517 8 18.0972 8.32222 16.9708 8.89225L16.7579 9H15.2421L15.0292 8.89225C13.9028 8.32222 12.5483 8 11 8C8.52725 8 6.54433 8.81989 5.18211 10.1821C3.81989 11.5443 3 13.5272 3 16C3 18.4728 3.81989 20.4557 5.18211 21.8179C6.54433 23.1801 8.52725 24 11 24C11.7083 24 12.3761 23.9326 13 23.8048V25.8386C12.3586 25.9456 11.6906 26 11 26C8.07275 26 5.55567 25.0199 3.76789 23.2321C1.98011 21.4443 1 18.9272 1 16C1 13.0728 1.98011 10.5557 3.76789 8.76789C5.55567 6.98011 8.07275 6 11 6C12.7346 6 14.3269 6.34346 15.7123 7H16.2877C17.6731 6.34346 19.2654 6 21 6C23.9272 6 26.4443 6.98011 28.2321 8.76789C30.0199 10.5557 31 13.0728 31 16C31 18.9272 30.0199 21.4443 28.2321 23.2321C26.4443 25.0199 23.9272 26 21 26C20.3094 26 19.6414 25.9456 19 25.8386V23.8048Z" fill="#000000" class="bmwfcol"/><path d="M17 12V14.5H15V12H17ZM17 16V26H15V16H17Z" fill="#000000" class="bmwfcol"/><path d="M27.4571 19.0423C27.187 19.7195 26.8254 20.3086 26.3936 20.8073L19.5863 14H22.4147L27.4571 19.0423Z" fill="#000000" class="bmwfcol"/><path d="M4.54377 19.0424L9.58622 14H12.4146L5.60727 20.8074C5.17548 20.3087 4.8139 19.7196 4.54377 19.0424Z" fill="#000000" class="bmwfcol"/><title>look-ahead_rg_48</title></svg>