<svg width="48" height="48" viewBox="0 0 32 32" xmlns="http://www.w3.org/2000/svg"><path d="M16.0001 2C13.2599 2 11.0996 4.33279 11.3098 7.06492L12.074 17H19.9261L20.6903 7.06491C20.9005 4.33279 18.7403 2 16.0001 2ZM13.3039 6.91153C13.1831 5.34098 14.4249 4 16.0001 4C17.5752 4 18.817 5.34098 18.6962 6.91152L18.074 15H17.0001L17.0001 7C17.0001 6.44772 16.5524 6 16.0001 6C15.4478 6 15.0001 6.44771 15.0001 7L15.0001 15H13.9261L13.3039 6.91153Z" fill="#000000" class="bmwfcol"/><path d="M15.0001 29L15.0001 19H17.0001L17.0001 29H15.0001Z" fill="#000000" class="bmwfcol"/><title>loop_brush_rg_48</title></svg>