<svg width="48" height="48" viewBox="0 0 32 32" xmlns="http://www.w3.org/2000/svg"><path d="M15.4502 5C15.4502 5.86836 15.1547 6.67365 14.6351 7.29233L15.4147 7.50122L12.0651 20.002L11.0992 19.7432L10.1158 23.4132C9.93455 24.0926 9.58291 24.6886 9.05202 25.0998C9.38268 25.6525 9.5498 26.3047 9.5498 27C9.5498 28.9011 8.13342 30.5 6.0498 30.5C5.07256 30.5 4.18048 30.1699 3.5302 29.5196C2.87992 28.8693 2.5498 27.9772 2.5498 27C2.5498 26.0228 2.87992 25.1307 3.5302 24.4804C3.78718 24.2234 4.08192 24.0164 4.40476 23.8601C4.14791 23.2373 4.13933 22.5442 4.31913 21.8646L4.31995 21.8615L5.30366 18.1903L4.33771 17.9315L7.68729 5.43066L8.50081 5.64865C8.46711 5.438 8.4502 5.22118 8.4502 5C8.4502 4.02275 8.78031 3.13067 9.43059 2.48039C10.0809 1.83011 10.9729 1.5 11.9502 1.5C12.9274 1.5 13.8195 1.83011 14.4698 2.48039C15.1201 3.13067 15.4502 4.02275 15.4502 5ZM10.4502 5C10.4502 5.52275 10.6201 5.88067 10.8448 6.10539C10.9777 6.23825 11.1571 6.35193 11.3896 6.42268L11.4939 6.45064C11.6295 6.48225 11.7812 6.5 11.9502 6.5C12.8666 6.5 13.4502 5.86028 13.4502 5C13.4502 4.47725 13.2803 4.11933 13.0556 3.89461C12.8309 3.66989 12.4729 3.5 11.9502 3.5C11.4274 3.5 11.0695 3.66989 10.8448 3.89461C10.6201 4.11933 10.4502 4.47725 10.4502 5ZM10.9878 8.3856C10.9438 8.37466 10.9 8.36294 10.8567 8.35044L9.10151 7.88015L6.78722 16.5173L10.6509 17.5525L12.9652 8.91543L10.9878 8.3856ZM6.44127 25.5358L6.43854 25.535C6.32061 25.5124 6.19124 25.5 6.0498 25.5C5.52705 25.5 5.16913 25.6699 4.94441 25.8946C4.71969 26.1193 4.5498 26.4772 4.5498 27C4.5498 27.5228 4.71969 27.8807 4.94441 28.1054C5.16913 28.3301 5.52705 28.5 6.0498 28.5C6.96619 28.5 7.5498 27.8603 7.5498 27C7.5498 26.4772 7.37992 26.1193 7.1552 25.8946C7.02185 25.7613 6.84161 25.6472 6.60786 25.5765C6.55226 25.5642 6.49672 25.5506 6.44127 25.5358ZM7.7547 23.5673C7.89962 23.4838 8.07621 23.2999 8.18333 22.898L9.16737 19.2256L7.23551 18.7079L6.25262 22.3761L6.25227 22.3774C6.14656 22.7781 6.20701 23.0277 6.29158 23.1746C6.37266 23.3153 6.54641 23.484 6.91577 23.5918C6.97295 23.6044 7.02962 23.6183 7.08572 23.6335C7.41378 23.6979 7.62518 23.6419 7.7547 23.5673Z" fill="#000000" class="bmwfcol"/><path d="M14.5774 21H16.8868L13.4227 27H11.1133L14.5774 21Z" fill="#000000" class="bmwfcol"/><path d="M14.1133 27H16.4227L19.8868 21H17.5774L14.1133 27Z" fill="#000000" class="bmwfcol"/><path d="M19.4227 27H17.1133L20.5774 21H22.8868L19.4227 27Z" fill="#000000" class="bmwfcol"/><path d="M20.1133 27H22.4227L23.9994 24.269V27H26.4227L27.9994 24.269V27H29.9994V21H27.5774L25.9994 23.7331V21H23.5774L20.1133 27Z" fill="#000000" class="bmwfcol"/><title>m-suspension_rg_48</title></svg>