<svg width="48" height="48" viewBox="0 0 32 32" xmlns="http://www.w3.org/2000/svg"><path d="M24 10.4133L30.7071 3.70621L29.2929 2.29199L24 7.58489L21.7071 5.29199L20.2929 6.70621L24 10.4133Z" fill="#000000" class="bmwfcol"/><path d="M18 5.13151C17.3583 5.04346 16.6907 4.99905 16 4.99905C12.6941 4.99905 9.91856 6.01628 7.96789 7.96695C6.01722 9.91762 5 12.6931 5 15.9991C5 19.305 6.01722 22.0805 7.96789 24.0312C9.91856 25.9818 12.6941 26.9991 16 26.9991C18.9049 26.9991 21.4003 26.2136 23.2864 24.6997L27.2929 28.7062L28.7071 27.292L24.7006 23.2854C26.2146 21.3994 27 18.904 27 15.9991C27 14.557 26.8064 13.2158 26.4263 12H24.3076C24.7563 13.1428 25 14.4785 25 15.9991C25 18.8931 24.1172 21.1176 22.6179 22.6169C21.1186 24.1163 18.8941 24.9991 16 24.9991C13.1059 24.9991 10.8814 24.1163 9.38211 22.6169C7.88278 21.1176 7 18.8931 7 15.9991C7 13.105 7.88278 10.8805 9.38211 9.38116C10.8814 7.88183 13.1059 6.99905 16 6.99905C16.7069 6.99905 17.3738 7.05172 18 7.15318V5.13151Z" fill="#000000" class="bmwfcol"/><path d="M15.9999 8.99908C15.0043 8.99908 13.9375 9.20985 13.1366 10.0107C12.3389 10.8084 11.9999 11.9964 11.9999 13.4991C11.9999 15.0017 12.3389 16.1898 13.1366 16.9874C13.9375 17.7883 15.0043 17.9991 15.9999 17.9991C16.9956 17.9991 18.0624 17.7883 18.8633 16.9874C19.661 16.1898 19.9999 15.0017 19.9999 13.4991C19.9999 11.9964 19.661 10.8084 18.8633 10.0107C18.0624 9.20985 16.9956 8.99908 15.9999 8.99908ZM14.5508 11.4249C14.8124 11.1633 15.2456 10.9991 15.9999 10.9991C16.7543 10.9991 17.1875 11.1633 17.4491 11.4249C17.7139 11.6898 17.9999 12.2517 17.9999 13.4991C17.9999 14.7464 17.7139 15.3084 17.4491 15.5732C17.1875 15.8349 16.7543 15.9991 15.9999 15.9991C15.2456 15.9991 14.8124 15.8349 14.5508 15.5732C14.286 15.3084 13.9999 14.7464 13.9999 13.4991C13.9999 12.2517 14.286 11.6898 14.5508 11.4249Z" fill="#000000" class="bmwfcol"/><path d="M10.7963 21.2028C10.6325 21.0389 10.476 20.8598 10.3285 20.6648C10.6388 20.1572 11.0439 19.7505 11.6152 19.474C12.1731 19.2039 12.8104 19.0986 13.4929 19.0486C14.17 18.9991 14.994 18.9991 15.9649 18.9991H16.035C17.0059 18.9991 17.8299 18.9991 18.507 19.0486C19.1895 19.0986 19.8268 19.2039 20.3847 19.474C20.956 19.7505 21.3611 20.1572 21.6714 20.6647C21.524 20.8598 21.3675 21.0389 21.2036 21.2028C20.8996 21.5068 20.5429 21.7857 20.129 22.0283C19.9139 21.539 19.722 21.3752 19.5133 21.2742C19.2965 21.1692 18.9594 21.0871 18.361 21.0433C17.7653 20.9997 17.0138 20.9991 16 20.9991C14.9861 20.9991 14.2346 20.9997 13.6389 21.0433C13.0406 21.0871 12.7034 21.1692 12.4866 21.2742C12.2779 21.3752 12.086 21.539 11.8709 22.0283C11.457 21.7857 11.1003 21.5068 10.7963 21.2028Z" fill="#000000" class="bmwfcol"/><title>magnifying_glass_person_check_mark_rg_48</title></svg>