<svg width="48" height="48" viewBox="0 0 32 32" xmlns="http://www.w3.org/2000/svg"><path d="M30.7071 3.70712L24 10.4142L20.2929 6.70712L21.7071 5.29291L24 7.5858L29.2929 2.29291L30.7071 3.70712Z" fill="#000000" class="bmwfcol"/><path d="M16 4.99994C16.6907 4.99994 17.3583 5.04435 18 5.13239V7.15406C17.3738 7.05261 16.7069 6.99994 16 6.99994C14.0111 6.99994 12.3384 7.41687 11 8.16431V5.94084C12.4662 5.31847 14.1501 4.99994 16 4.99994Z" fill="#000000" class="bmwfcol"/><path d="M26.4263 12.0009H24.3076C24.7563 13.1437 25 14.4794 25 15.9999C25 18.894 24.1172 21.1185 22.6179 22.6178C21.1186 24.1172 18.8941 24.9999 16 24.9999C13.1059 24.9999 10.8814 24.1172 9.38211 22.6178C7.88278 21.1185 7 18.894 7 15.9999C7 15.9915 7.00001 15.983 7.00002 15.9745C7.66047 15.7944 8.26115 15.4192 8.71357 14.7181C9.34523 13.7392 9.58181 12.2635 9.58181 10.2417V9.31665H8.16774V5.99921H6.31774V9.31665H5.33925V5.99908H3.48925V9.31665H2.07495V10.2417C2.07495 12.2635 2.31153 13.7392 2.94318 14.7181C3.47292 15.539 4.20589 15.9131 5.00008 16.0504C5.01038 19.3341 6.02715 22.0913 7.96789 24.032C9.91856 25.9827 12.6941 26.9999 16 26.9999C18.9049 26.9999 21.4003 26.2145 23.2864 24.7005L27.2929 28.7071L28.7071 27.2929L24.7006 23.2863C26.2146 21.4002 27 18.9049 27 15.9999C27 14.5578 26.8064 13.2167 26.4263 12.0009ZM7.15911 13.715C6.9178 14.089 6.5795 14.2664 5.82838 14.2664C5.07726 14.2664 4.73896 14.089 4.49764 13.715C4.23191 13.3032 4.01266 12.5445 3.94588 11.1667H7.71088C7.6441 12.5445 7.42484 13.3032 7.15911 13.715Z" fill="#000000" class="bmwfcol"/><path d="M13.1366 10.0116C13.9375 9.21077 15.0043 9 15.9999 9C16.9956 9 18.0624 9.21077 18.8633 10.0116C19.661 10.8093 20 11.9973 20 13.5C20 15.0027 19.661 16.1907 18.8633 16.9884C18.0624 17.7892 16.9956 18 16 18C15.0043 18 13.9375 17.7892 13.1366 16.9884C12.3389 16.1907 12 15.0027 12 13.5C12 11.9973 12.3389 10.8093 13.1366 10.0116ZM14 13.5C14 14.7473 14.286 15.3093 14.5508 15.5741C14.8124 15.8358 15.2456 16 16 16C16.7543 16 17.1875 15.8358 17.4491 15.5741C17.7139 15.3093 18 14.7473 18 13.5C18 12.2527 17.7139 11.6907 17.4491 11.4259C17.1875 11.1642 16.7543 11 16 11C15.2456 11 14.8124 11.1642 14.5508 11.4259C14.286 11.6907 14 12.2527 14 13.5Z" fill="#000000" class="bmwfcol"/><path d="M10.3285 20.6657C10.476 20.8608 10.6325 21.0399 10.7963 21.2037C11.1003 21.5077 11.457 21.7866 11.8709 22.0292C12.086 21.54 12.2779 21.3761 12.4866 21.2751C12.7034 21.1702 13.0406 21.088 13.6389 21.0442C14.2346 21.0006 14.9861 21 16 21C17.0138 21 17.7653 21.0006 18.361 21.0442C18.9594 21.088 19.2965 21.1702 19.5133 21.2751C19.722 21.3761 19.9139 21.5399 20.129 22.0292C20.5429 21.7866 20.8996 21.5077 21.2036 21.2037C21.3675 21.0399 21.524 20.8608 21.6714 20.6657C21.3611 20.1581 20.956 19.7514 20.3847 19.4749C19.8268 19.2048 19.1895 19.0995 18.507 19.0495C17.8299 19 17.0059 19 16.035 19H15.9649C14.994 19 14.17 19 13.4929 19.0495C12.8104 19.0995 12.1731 19.2048 11.6152 19.4749C11.0439 19.7514 10.6388 20.1581 10.3285 20.6657Z" fill="#000000" class="bmwfcol"/><title>magnifying_glass_plug_person_check_mark_rg_48</title></svg>