<svg width="48" height="48" viewBox="0 0 32 32" xmlns="http://www.w3.org/2000/svg"><path d="M16 9.00008C15.0043 9.00008 13.9375 9.21084 13.1366 10.0117C12.339 10.8094 12 11.9974 12 13.5001C12 15.0027 12.339 16.1908 13.1366 16.9884C13.9375 17.7893 15.0043 18.0001 16 18.0001C16.9957 18.0001 18.0625 17.7893 18.8634 16.9884C19.661 16.1908 20 15.0027 20 13.5001C20 11.9974 19.661 10.8094 18.8634 10.0117C18.0625 9.21084 16.9957 9.00008 16 9.00008ZM14.5509 11.4259C14.8125 11.1643 15.2457 11.0001 16 11.0001C16.7543 11.0001 17.1875 11.1643 17.4491 11.4259C17.714 11.6908 18 12.2527 18 13.5001C18 14.7474 17.714 15.3094 17.4491 15.5742C17.1875 15.8358 16.7543 16.0001 16 16.0001C15.2457 16.0001 14.8125 15.8358 14.5509 15.5742C14.286 15.3094 14 14.7474 14 13.5001C14 12.2527 14.286 11.6908 14.5509 11.4259Z" fill="#000000" class="bmwfcol"/><path d="M10.7963 21.2038C10.6325 21.0399 10.476 20.8608 10.3285 20.6657C10.6388 20.1582 11.044 19.7515 11.6152 19.475C12.1731 19.2049 12.8105 19.0996 13.493 19.0496C14.17 19.0001 14.9941 19.0001 15.965 19.0001H16.035C17.006 19.0001 17.83 19.0001 18.507 19.0496C19.1895 19.0996 19.8269 19.2049 20.3848 19.475C20.9561 19.7515 21.3612 20.1582 21.6715 20.6657C21.524 20.8608 21.3675 21.0399 21.2037 21.2038C20.8996 21.5078 20.5429 21.7867 20.1291 22.0293C19.914 21.54 19.7221 21.3762 19.5134 21.2752C19.2966 21.1702 18.9594 21.0881 18.361 21.0443C17.7654 21.0007 17.0139 21.0001 16 21.0001C14.9862 21.0001 14.2347 21.0007 13.639 21.0443C13.0406 21.0881 12.7034 21.1702 12.4866 21.2752C12.2779 21.3762 12.086 21.54 11.8709 22.0293C11.4571 21.7867 11.1004 21.5078 10.7963 21.2038Z" fill="#000000" class="bmwfcol"/><path d="M18 5.13249C17.3583 5.04444 16.6907 5.00004 16 5.00004C15.4868 5.00004 14.9865 5.02454 14.5 5.07324V7.08459C14.978 7.02874 15.4781 7.00004 16 7.00004C16.7069 7.00004 17.3738 7.0527 18 7.15416V5.13249Z" fill="#000000" class="bmwfcol"/><path d="M24.3075 12.001H26.4262C26.8064 13.2168 27 14.5579 27 16C27 18.905 26.2146 21.4003 24.7006 23.2864L28.7071 27.293L27.2929 28.7072L23.2863 24.7006C21.4003 26.2146 18.9049 27 16 27C12.694 27 9.91853 25.9828 7.96786 24.0321C6.01719 22.0815 4.99996 19.306 4.99996 16C4.99996 15.4869 5.02447 14.9865 5.07317 14.5001H7.08452C7.02867 14.9781 6.99996 15.4782 6.99996 16C6.99996 18.8941 7.88274 21.1186 9.38207 22.6179C10.8814 24.1173 13.1059 25 16 25C18.894 25 21.1185 24.1173 22.6179 22.6179C24.1172 21.1186 25 18.8941 25 16C25 14.4795 24.7563 13.1438 24.3075 12.001Z" fill="#000000" class="bmwfcol"/><path d="M30.7071 3.70718L24 10.4143L20.2929 6.70718L21.7071 5.29297L24 7.58586L29.2929 2.29297L30.7071 3.70718Z" fill="#000000" class="bmwfcol"/><path d="M10.3186 3.12324H3.68079L1.62476 6.05957L1.62485 6.82809L6.37459 12.4886H7.62484L12.3746 6.82809L12.3747 6.05957L10.3186 3.12324ZM3.91055 5.84614L4.59179 4.87324H9.40764L10.0889 5.84614H3.91055ZM4.55378 7.59614H9.44565L6.99971 10.5111L4.55378 7.59614Z" fill="#000000" class="bmwfcol"/><title>magnifying_glass_diamond_person_check_mark_rg_48</title></svg>