<svg width="48" height="48" viewBox="0 0 32 32" xmlns="http://www.w3.org/2000/svg"><path d="M13.1366 10.0107C13.9375 9.20985 15.0043 8.99908 16 8.99908C16.9956 8.99908 18.0624 9.20985 18.8633 10.0107C19.661 10.8084 19.9999 11.9964 19.9999 13.4991C19.9999 15.0017 19.661 16.1898 18.8633 16.9874C18.0624 17.7883 16.9956 17.9991 16 17.9991C15.0043 17.9991 13.9375 17.7883 13.1366 16.9874C12.3389 16.1898 11.9999 15.0017 11.9999 13.4991C11.9999 11.9964 12.3389 10.8084 13.1366 10.0107ZM14 13.4991C14 14.7464 14.286 15.3084 14.5508 15.5732C14.8124 15.8349 15.2456 15.9991 16 15.9991C16.7543 15.9991 17.1875 15.8349 17.4491 15.5732C17.7139 15.3084 18 14.7464 18 13.4991C18 12.2517 17.7139 11.6898 17.4491 11.4249C17.1875 11.1633 16.7543 10.9991 16 10.9991C15.2456 10.9991 14.8124 11.1633 14.5508 11.4249C14.286 11.6898 14 12.2517 14 13.4991Z" fill="#000000" class="bmwfcol"/><path d="M10.3285 20.6648C10.476 20.8598 10.6325 21.0389 10.7963 21.2028C11.1003 21.5068 11.457 21.7857 11.8709 22.0283C12.086 21.539 12.2779 21.3752 12.4866 21.2742C12.7034 21.1692 13.0406 21.0871 13.6389 21.0433C14.2346 20.9997 14.9861 20.9991 16 20.9991C17.0138 20.9991 17.7653 20.9997 18.361 21.0433C18.9594 21.0871 19.2965 21.1692 19.5133 21.2742C19.722 21.3752 19.9139 21.539 20.129 22.0283C20.5429 21.7857 20.8996 21.5068 21.2036 21.2028C21.3675 21.0389 21.524 20.8598 21.6714 20.6647C21.3611 20.1572 20.956 19.7505 20.3847 19.474C19.8268 19.2039 19.1895 19.0986 18.507 19.0486C17.8299 18.9991 17.0059 18.9991 16.035 18.9991H15.9649C14.994 18.9991 14.17 18.9991 13.4929 19.0486C12.8104 19.0986 12.1731 19.2039 11.6152 19.474C11.0439 19.7505 10.6388 20.1572 10.3285 20.6648Z" fill="#000000" class="bmwfcol"/><path d="M7.96789 7.96698C9.91856 6.01631 12.6941 4.99908 16 4.99908C19.3059 4.99908 22.0814 6.01631 24.0321 7.96698C25.9828 9.91765 27 12.6932 27 15.9991C27 18.904 26.2146 21.3993 24.7007 23.2854L28.7072 27.2919L27.2929 28.7061L23.2865 24.6996C21.4004 26.2136 18.905 26.9991 16 26.9991C12.6941 26.9991 9.91856 25.9819 7.96789 24.0312C6.01722 22.0805 5 19.305 5 15.9991C5 12.6932 6.01722 9.91765 7.96789 7.96698ZM9.38211 9.38119C7.88278 10.8805 7 13.105 7 15.9991C7 18.8932 7.88278 21.1176 9.38211 22.617C10.8814 24.1163 13.1059 24.9991 16 24.9991C18.8941 24.9991 21.1186 24.1163 22.6179 22.617C24.1172 21.1176 25 18.8932 25 15.9991C25 13.105 24.1172 10.8805 22.6179 9.38119C21.1186 7.88186 18.8941 6.99908 16 6.99908C13.1059 6.99908 10.8814 7.88186 9.38211 9.38119Z" fill="#000000" class="bmwfcol"/><title>magnifying_glass_person_rg_48</title></svg>