<svg width="48" height="48" viewBox="0 0 32 32" xmlns="http://www.w3.org/2000/svg"><path d="M9.16789 14.8321C10.2557 15.9199 11.7728 16.5 13.5 16.5V20.5H15.5V18.5C16.9272 18.5 18.1943 18.0199 19.1071 17.1071C20.0199 16.1943 20.5 14.9272 20.5 13.5V11.5H18.5C17.2447 11.5 16.1133 11.8714 15.2378 12.582C14.9682 11.6512 14.4942 10.83 13.8321 10.1679C12.7443 9.08011 11.2272 8.5 9.5 8.5H7.5V10.5C7.5 12.2272 8.08011 13.7443 9.16789 14.8321ZM15.5 16.5C15.5 15.5272 15.8199 14.7943 16.3071 14.3071C16.7943 13.8199 17.5272 13.5 18.5 13.5C18.5 14.4728 18.1801 15.2057 17.6929 15.6929C17.2057 16.1801 16.4728 16.5 15.5 16.5ZM12.4179 11.5821C13.0801 12.2443 13.5 13.2272 13.5 14.5C12.2272 14.5 11.2443 14.0801 10.5821 13.4179C9.91989 12.7557 9.5 11.7728 9.5 10.5C10.7728 10.5 11.7557 10.9199 12.4179 11.5821Z" fill="#000000" class="bmwfcol"/><path d="M5.96789 5.96789C7.91856 4.01722 10.6941 3 14 3C17.3059 3 20.0814 4.01722 22.0321 5.96789C23.9828 7.91856 25 10.6941 25 14C25 16.9049 24.2146 19.4002 22.7007 21.2863L28.7072 27.2929L27.2929 28.7071L21.2864 22.7005C19.4004 24.2146 16.905 25 14 25C10.6941 25 7.91856 23.9828 5.96789 22.0321C4.01722 20.0814 3 17.3059 3 14C3 10.6941 4.01722 7.91856 5.96789 5.96789ZM7.38211 7.38211C5.88278 8.88144 5 11.1059 5 14C5 16.8941 5.88278 19.1186 7.38211 20.6179C8.88144 22.1172 11.1059 23 14 23C16.8941 23 19.1186 22.1172 20.6179 20.6179C22.1172 19.1186 23 16.8941 23 14C23 11.1059 22.1172 8.88144 20.6179 7.38211C19.1186 5.88278 16.8941 5 14 5C11.1059 5 8.88144 5.88278 7.38211 7.38211Z" fill="#000000" class="bmwfcol"/><title>magnifying_glass_and_plant_rg_48</title></svg>