<svg width="48" height="48" viewBox="0 0 32 32" xmlns="http://www.w3.org/2000/svg"><path d="M17 8.5C17 8.67607 16.9989 8.98825 16.8007 9.38471C16.7175 9.55101 16.6064 9.71947 16.4658 9.89652C16.4912 10.0295 16.4961 10.1416 16.4979 10.1826L16.4984 10.1942C16.502 10.259 16.5015 10.578 16.5012 10.8242L16.4988 11.7891L16.3093 11.9951L19.7259 15.4117C20.2449 15.9307 20.5 16.6353 20.5 17.3876C20.5 18.1398 20.2449 18.8444 19.7259 19.3634C19.2068 19.8824 18.5023 20.1376 17.75 20.1376C17.216 20.1376 16.7059 20.009 16.2693 19.7487C15.7609 20.5 14.9729 21 14 21C13.0271 21 12.2391 20.5 11.7307 19.7487C11.2941 20.009 10.784 20.1376 10.25 20.1376C9.49775 20.1376 8.79317 19.8824 8.27414 19.3634C7.75511 18.8444 7.5 18.1398 7.5 17.3876C7.5 16.6353 7.75511 15.9307 8.27414 15.4117L11.6907 11.9952L11.5011 11.7891L11.4987 10.8245C11.4984 10.5783 11.4979 10.259 11.5015 10.1942L11.502 10.1826C11.5038 10.1416 11.5087 10.0294 11.5342 9.8964C11.3936 9.7194 11.2825 9.55098 11.1993 9.38471C11.0011 8.98825 11 8.67607 11 8.5V7H13V8.28315C13.0804 8.23426 13.1644 8.18459 13.2521 8.13398L13.4841 8L14.5158 8L14.7478 8.13398C14.8355 8.18461 14.9196 8.2343 15 8.28322V7H17V8.5ZM14.7429 13.2571C14.6057 13.1198 14.3728 13 14.0001 13C13.6273 13 13.3944 13.1198 13.2572 13.2571C13.12 13.3943 13.0001 13.6272 13.0001 14L13.0001 14.5H15V14C15 13.6332 14.8839 13.4018 14.7495 13.2637L14.7429 13.2571ZM18.3117 16.8259L17 15.5143L17 17.3876C17 17.6853 17.0949 17.8557 17.1884 17.9492C17.2818 18.0427 17.4523 18.1376 17.75 18.1376C18.0478 18.1376 18.2182 18.0427 18.3117 17.9492C18.4051 17.8557 18.5 17.6853 18.5 17.3876C18.5 17.0898 18.4051 16.9194 18.3117 16.8259ZM11.0001 15.5142L9.68836 16.8259C9.59489 16.9194 9.5 17.0898 9.5 17.3876C9.5 17.6853 9.59489 17.8557 9.68836 17.9492C9.78183 18.0427 9.95225 18.1376 10.25 18.1376C10.5478 18.1376 10.7182 18.0427 10.8116 17.9492C10.9051 17.8557 11 17.6853 11 17.3876L11.0001 15.5142ZM13 17C13 17.7666 13.1724 18.3058 13.3821 18.6203C13.5741 18.9084 13.7811 19 14 19C14.2189 19 14.4259 18.9084 14.6179 18.6203C14.8276 18.3058 15 17.7667 15 17V16.5H13L13 17ZM14 11C14.2076 11 14.372 10.9629 14.501 10.9058L14.5012 10.8441L14.5013 10.3676C14.4717 10.3416 14.4301 10.3075 14.3729 10.2649C14.2817 10.1971 14.1604 10.115 14 10.0161C13.8395 10.115 13.7182 10.1971 13.6271 10.2649C13.5698 10.3075 13.5282 10.3416 13.4986 10.3676L13.4986 10.4489C13.4986 10.5461 13.4985 10.6855 13.4987 10.8441L13.4989 10.9058C13.6279 10.9629 13.7923 11 14 11Z" fill="#000000" class="bmwfcol"/><path d="M5.96789 5.96789C7.91856 4.01722 10.6941 3 14 3C17.3059 3 20.0814 4.01722 22.0321 5.96789C23.9828 7.91856 25 10.6941 25 14C25 16.9049 24.2146 19.4002 22.7007 21.2863L28.7072 27.2928L27.2929 28.707L21.2865 22.7005C19.4004 24.2146 16.905 25 14 25C10.6941 25 7.91856 23.9828 5.96789 22.0321C4.01722 20.0814 3 17.3059 3 14C3 10.6941 4.01722 7.91856 5.96789 5.96789ZM7.38211 7.38211C5.88278 8.88144 5 11.1059 5 14C5 16.8941 5.88278 19.1186 7.38211 20.6179C8.88144 22.1172 11.1059 23 14 23C16.8941 23 19.1186 22.1172 20.6179 20.6179C22.1172 19.1186 23 16.8941 23 14C23 11.1059 22.1172 8.88144 20.6179 7.38211C19.1186 5.88278 16.8941 5 14 5C11.1059 5 8.88144 5.88278 7.38211 7.38211Z" fill="#000000" class="bmwfcol"/><title>magnifying_glass_and_bee_rg_48</title></svg>