<svg width="48" height="48" viewBox="0 0 32 32" xmlns="http://www.w3.org/2000/svg"><path d="M29 6H3V23C3 23.9294 3.39603 24.7457 4.18208 25.2881C4.91581 25.7944 5.89709 26 7 26H25C26.1029 26 27.0842 25.7944 27.8179 25.2881C28.604 24.7457 29 23.9294 29 23V6ZM6.76221 8H25.2379L16.238 15.4999H15.7621L6.76221 8ZM27 9.13498V23C27 23.3106 26.8961 23.4943 26.6821 23.6419C26.4158 23.8256 25.8971 24 25 24H7C6.10291 24 5.58419 23.8256 5.31793 23.6419C5.10397 23.4943 5 23.3106 5 23V9.13491L15.038 17.4999H16.9621L27 9.13498Z" fill="#000000" class="bmwfcol"/><title>mail_rg_48</title></svg>