<svg width="48" height="48" viewBox="0 0 32 32" xmlns="http://www.w3.org/2000/svg"><path d="M16.0002 6H14.0002V6.99999H16.4144L17.2577 7.84324L28.2994 4.88462L29.7074 6.29297L28.293 7.70701L27.7015 7.11537L27.1519 7.26263C23.4876 10.927 21.5671 12.8458 20.3256 13.8295C19.677 14.3434 19.1353 14.6681 18.5612 14.8391C18.0191 15.0005 17.5146 15.0003 17.0545 15L8.0002 15V10.7674L2.36133 9.2565L3.7531 4.06235L4.71902 4.32117C6.95961 4.92154 8.27311 5.38709 9.01061 5.90843C9.42517 6.20149 9.72178 6.55348 9.87549 6.99999H12.0002V6H10.0002V4H16.0002V6ZM8.0002 7.87584C7.99791 7.7106 7.99094 7.67176 7.98544 7.65411C7.98466 7.65303 7.98355 7.65157 7.98205 7.64969C7.97207 7.63728 7.93887 7.60007 7.85612 7.54158C7.51924 7.30343 6.78108 6.98637 5.16503 6.52034L4.81082 7.84229L8.0002 8.69688V7.87584ZM16.6599 10.074L15.586 8.99999H10.0002V13L17.0002 13C17.5256 13 17.7527 12.9931 17.9903 12.9223C18.2173 12.8547 18.5277 12.7023 19.0835 12.262C19.9278 11.593 21.1554 10.413 23.2817 8.29967L16.6599 10.074Z" fill="#000000" class="bmwfcol"/><path d="M29.0055 21.5114L28.0744 22.3302L23.7442 21.17L23.7427 21.1696C23.5518 21.1178 23.4552 21.1246 23.4216 21.1303C23.4005 21.1339 23.393 21.1373 23.3755 21.1531C23.3475 21.1782 23.2902 21.2434 23.2183 21.3921C23.1465 21.5406 23.0751 21.7413 23.0039 22.0069C22.9327 22.2726 22.8943 22.4818 22.8823 22.646C22.8702 22.8103 22.8873 22.8951 22.8989 22.9306C22.9061 22.9528 22.911 22.9599 22.9281 22.9741C22.9549 22.9963 23.0358 23.0509 23.2274 23.1021L27.6652 24.2912L28.0628 25.473L27.7203 25.8995C26.6281 27.2595 24.9502 28 23.0003 28C20.6222 28 18.6794 26.8949 17.6937 25L6.0003 25C5.17305 25 4.40597 24.7199 3.84319 24.1571C3.28041 23.5943 3.0003 22.8272 3.0003 22C3.0003 21.1728 3.28041 20.4057 3.84319 19.8429C4.40597 19.2801 5.17305 19 6.0003 19L17.6937 19C18.6794 17.1051 20.6222 16 23.0003 16C24.5505 16 25.933 16.4668 26.99 17.3541C28.049 18.2431 28.72 19.5036 28.9294 20.9765L29.0055 21.5114ZM25.704 18.8858C25.0542 18.3403 24.1452 18 23.0003 18C21.1005 18 19.809 18.9282 19.2789 20.3495L19.0362 21L6.0003 21C5.62754 21 5.39462 21.1199 5.2574 21.2571C5.12018 21.3943 5.0003 21.6272 5.0003 22C5.0003 22.3728 5.12018 22.6057 5.2574 22.7429C5.39462 22.8801 5.62754 23 6.0003 23L19.0362 23L19.2789 23.6505C19.809 25.0718 21.1005 26 23.0003 26C23.7283 26 24.3624 25.8629 24.8967 25.62L22.7107 25.0342L22.7104 25.0341C21.9054 24.8189 21.2599 24.3532 20.998 23.5523C20.7736 22.8663 20.9035 22.1184 21.0721 21.4892C21.2407 20.8602 21.5023 20.147 22.0394 19.6648C22.6668 19.1015 23.4592 19.0208 24.2647 19.2389L24.2664 19.2394L26.4841 19.8336C26.2764 19.4616 26.0126 19.1448 25.704 18.8858Z" fill="#000000" class="bmwfcol"/><path d="M29 13.5C28.615 13.5 28.207 13.3652 27.9013 13.036C27.6037 12.7155 27.5 12.3157 27.5 11.9615C27.5 11.7186 27.5639 11.49 27.6088 11.3475C27.6597 11.1859 27.7244 11.0205 27.7819 10.8787C27.8184 10.789 27.8509 10.7103 27.8796 10.6407C27.9583 10.4502 28.0085 10.3285 28.0326 10.2393L28.2322 9.5H29.7678L29.9674 10.2393C29.9915 10.3285 30.0417 10.4502 30.1204 10.6407C30.1491 10.7103 30.1817 10.7891 30.2181 10.8787C30.2756 11.0205 30.3403 11.1859 30.3912 11.3475C30.4361 11.49 30.5 11.7186 30.5 11.9615C30.5 12.3157 30.3963 12.7155 30.0987 13.036C29.793 13.3652 29.385 13.5 29 13.5Z" fill="#000000" class="bmwfcol"/><title>maintenance_rg_48</title></svg>