<svg width="48" height="48" viewBox="0 0 32 32" xmlns="http://www.w3.org/2000/svg"><path d="M7.97842 19.8125H10.4735L11 20.0602L11.5265 19.8125H14.0216L15 20.7334L15 23.0495L13.8568 24.8125H11.1659L11 24.6563L10.8341 24.8125H8.18282L7 23.0595V20.7334L7.97842 19.8125ZM9 21.8125V22.4479L9.24604 22.8125H10V21.8125H9ZM12 22.8125H12.77L13 22.4578V21.8125H12V22.8125Z" fill="#000000" class="bmwfcol"/><path d="M4.6112 16.8476C4.35093 16.7469 4.08017 16.6934 3.79921 16.6639C3.39946 16.622 2.90056 16.6231 2.32163 16.6245C2.217 16.6247 2.10975 16.625 2 16.625V18.625C2.12383 18.625 2.2401 18.6248 2.34816 18.6246C2.77729 18.624 3.08878 18.6235 3.33607 18.6348C3.12988 18.8418 2.93534 19.0506 2.76518 19.2581C2.40538 19.697 2 20.3094 2 21.0321V28H7V27.1315C9.78545 27.2995 12.2145 27.2995 15 27.1315V28H20V21.0321C20 20.3094 19.5946 19.697 19.2348 19.2581C19.0647 19.0506 18.8701 18.8418 18.6639 18.6348C18.9112 18.6235 19.2228 18.624 19.6518 18.6246C19.76 18.6248 19.8759 18.625 19.9999 18.625V16.625C19.8902 16.625 19.7829 16.6247 19.6783 16.6245C19.0994 16.6231 18.6003 16.622 18.2005 16.6639C17.9196 16.6934 17.6489 16.7469 17.3885 16.8476C17.2862 16.6647 17.1759 16.4769 17.0595 16.2914C16.8455 15.9504 16.598 15.5964 16.3291 15.2909C16.0743 15.0014 15.733 14.6771 15.3166 14.4934C14.3406 14.0646 13.631 14 11 14C9.55905 14 8.71023 14.0179 8.12182 14.0864C7.46296 14.1631 7.10867 14.3068 6.68501 14.4927C6.26768 14.6759 5.92588 15.0006 5.67103 15.29C5.40199 15.5956 5.15445 15.9497 4.94042 16.2909C4.82399 16.4765 4.71359 16.6645 4.6112 16.8476ZM8.35311 16.073C8.80553 16.0203 9.53486 16 11 16C13.6792 16 13.9745 16.0884 14.5096 16.3234C14.5096 16.3234 14.5187 16.3277 14.5348 16.3381C14.5525 16.3496 14.5765 16.3669 14.6066 16.3919C14.668 16.4428 14.7423 16.5152 14.8279 16.6124C15.0378 16.8509 15.2164 17.1161 15.3845 17.3851C12.4677 17.32 9.53189 17.32 6.61509 17.3851C6.78323 17.1159 6.96193 16.8504 7.17203 16.6118C7.25748 16.5147 7.33172 16.4424 7.39289 16.3918C7.42289 16.3669 7.44676 16.3498 7.4643 16.3384C7.48075 16.3278 7.48897 16.324 7.48897 16.324C7.82198 16.1779 7.97123 16.1174 8.35311 16.073ZM17.3643 20.1656C16.8279 20.2548 16.2322 20.3183 15.5 20.3741V22.3798C16.461 22.3097 17.2533 22.2251 17.9999 22.0838L18 26H17V24.9869L15.9273 25.0651C12.409 25.3216 9.59099 25.3216 6.0727 25.0651L5 24.9869V26H4V22.0839C4.74668 22.2252 5.53893 22.3097 6.5 22.3798V20.3741C5.76777 20.3184 5.17211 20.2548 4.6357 20.1657C4.8414 19.9525 5.08451 19.7218 5.36008 19.467C5.54516 19.4393 5.79873 19.4166 6.15051 19.4009C6.88615 19.3682 7.91425 19.3702 9.40445 19.3731C9.88615 19.3741 10.4161 19.3751 11.0001 19.3751C11.5842 19.3751 12.1142 19.3741 12.5958 19.3731C14.0858 19.3702 15.1133 19.3682 15.8485 19.4009C16.2013 19.4166 16.4552 19.4394 16.6402 19.4673C16.9157 19.722 17.1587 19.9525 17.3643 20.1656Z" fill="#000000" class="bmwfcol"/><path d="M23 4H8V12H10V6H23C23.4141 6 23.6386 6.12278 23.7579 6.24211C23.8772 6.36144 24 6.58592 24 7V25C24 25.4141 23.8772 25.6386 23.7579 25.7579C23.6386 25.8772 23.4141 26 23 26H22V28H23C23.8259 28 24.6014 27.7428 25.1721 27.1721C25.7428 26.6014 26 25.8259 26 25V7C26 6.17408 25.7428 5.39856 25.1721 4.82789C24.6014 4.25722 23.8259 4 23 4Z" fill="#000000" class="bmwfcol"/><path d="M30 12V8H28V12H30Z" fill="#000000" class="bmwfcol"/><path d="M30 20V24H28V20H30Z" fill="#000000" class="bmwfcol"/><path d="M30 18V14H28V18H30Z" fill="#000000" class="bmwfcol"/><title>manual_rg_48</title></svg>