<svg width="48" height="48" viewBox="0 0 32 32" xmlns="http://www.w3.org/2000/svg"><path d="M6.5 25.843V28.1548L6.00021 27.8662C4.05813 26.7449 2.70135 25.9567 2.05843 24.1582C1.75747 23.3163 1.6275 22.3036 1.56377 21.0301C1.5 19.7557 1.5 18.1296 1.5 16.0288C1.5 13.9281 1.5 12.2447 1.56377 10.9704C1.6275 9.69686 1.75747 8.68415 2.05843 7.84226C2.70135 6.0438 4.0581 5.25563 6.00018 4.13428L6.5 3.84571V6.15752C4.8337 7.13798 4.26816 7.60231 3.94171 8.5155C3.74263 9.0724 3.62257 9.84537 3.56127 11.0703C3.5003 12.2887 3.5 13.8648 3.5 16.0002C3.5 18.1357 3.5003 19.7118 3.56127 20.9302C3.62257 22.1551 3.74263 22.9281 3.94171 23.485C4.26816 24.3982 4.8337 24.8625 6.5 25.843Z" fill="#000000" class="bmwfcol"/><path d="M24.5 6.15752V3.8457L24.9998 4.13428C26.9419 5.25563 28.2987 6.0438 28.9416 7.84226C29.2425 8.68415 29.3725 9.69686 29.4362 10.9704C29.5 12.2448 29.5 13.9278 29.5 16.0286C29.5 18.1294 29.5 19.7557 29.4362 21.0301C29.3725 22.3036 29.2425 23.3163 28.9416 24.1582C28.2987 25.9567 26.9419 26.7449 24.9998 27.8662L24.5 28.1548V25.843C26.1663 24.8625 26.7318 24.3982 27.0583 23.485C27.2574 22.9281 27.3774 22.1551 27.4387 20.9302C27.4997 19.7118 27.5 18.1357 27.5 16.0002C27.5 13.8648 27.4997 12.2887 27.4387 11.0703C27.3774 9.84537 27.2574 9.0724 27.0583 8.5155C26.7318 7.60231 26.1663 7.13798 24.5 6.15752Z" fill="#000000" class="bmwfcol"/><path d="M11.9662 7.5001H13.1699L18.3365 10.483L23.8711 9.00005H25.4998V22.7675L19.0335 24.5001H17.8299L12.6633 21.5172L7.12873 23.0002H5.50002V9.23272L11.9662 7.5001ZM7.50002 10.7674V20.8301L11.4995 19.7585V9.69571L7.50002 10.7674ZM17.4995 21.9999V12.3092L13.4995 9.99985V19.6905L17.4995 21.9999ZM19.4995 22.3047L23.4998 21.2328V11.1701L19.4995 12.2419V22.3047Z" fill="#000000" class="bmwfcol"/><title>map-update-package_rg_48</title></svg>