<svg width="48" height="48" viewBox="0 0 32 32" xmlns="http://www.w3.org/2000/svg"><path d="M15.875 3.875L14.125 2.125V4.72034C12.7799 3.46557 11.326 2.5 9.00001 2.5C7.12277 2.5 5.48069 3.13011 4.30541 4.30539C3.45547 5.15533 2.89064 6.2494 2.64307 7.5H4.69789C4.90304 6.77769 5.25837 6.18086 5.71962 5.71961C6.46934 4.96989 7.57726 4.5 9.00001 4.5C10.5961 4.5 11.5399 5.06181 12.6898 6.125H10.125L11.875 7.875H15.875V3.875Z" fill="#000000" class="bmwfcol"/><path d="M2.125 14.125L3.875 15.875V13.2796C5.22016 14.5344 6.67404 15.5 9.00008 15.5C10.8773 15.5 12.5194 14.8699 13.6947 13.6946C14.5446 12.8447 15.1094 11.7506 15.357 10.5H13.3022C13.097 11.2223 12.7417 11.8191 12.2805 12.2804C11.5307 13.0301 10.4228 13.5 9.00008 13.5C7.40402 13.5 6.46023 12.9382 5.31033 11.875H7.875L6.125 10.125H2.125V14.125Z" fill="#000000" class="bmwfcol"/><path d="M11.0005 17H13.0005V22.1134L19.0005 25.5775V9.88682L18 9.30919V6.99979L19.7325 8.00006H19.9072L27.3686 6.00078L29.0002 6.00073V25.7674L20.668 28H19.1964L12.2682 24H12.0936L4.63216 25.9993L3.00049 25.9994V17H5.00049V23.8301L11.0005 22.2224V17ZM21.0005 25.8404L27.0002 24.2328V8.17003L21.0005 9.77766V25.8404Z" fill="#000000" class="bmwfcol"/><title>map-update_rg_48</title></svg>