<svg width="48" height="48" viewBox="0 0 32 32" xmlns="http://www.w3.org/2000/svg"><path d="M22.8148 3.14125L21.8751 2.02258L21.3487 2.14926C20.6332 2.32141 19.9494 2.605 19.322 2.98965L18.8607 3.27257L18.9877 4.72721C18.8979 4.81158 18.8107 4.89876 18.7263 4.9886L17.2701 4.86096L16.9873 5.32328C16.6032 5.95108 16.3203 6.63545 16.149 7.35121L16.0231 7.87724L17.1412 8.81595C17.1374 8.93897 17.1374 9.06209 17.1412 9.18511L16.6326 9.6123L17.5 11L18.4764 10.3491L18.9677 9.93634L18.9148 9.4698C18.8795 9.15791 18.8795 8.84301 18.9148 8.53111L18.9677 8.06442L17.9995 7.25156C18.0648 7.06407 18.1407 6.88043 18.2268 6.70152L19.4867 6.81195L19.7794 6.44396C19.9748 6.19835 20.1974 5.97574 20.443 5.78041L20.8108 5.48778L20.7008 4.22815C20.8797 4.14182 21.0633 4.06568 21.2507 4.00009L22.0636 4.96775L22.5301 4.91488C22.842 4.87953 23.1569 4.87953 23.4688 4.91488L23.9355 4.96777L24.7483 3.99954C24.9358 4.06487 25.1195 4.14076 25.2984 4.22685L25.188 5.48675L25.556 5.77948C25.8015 5.97483 26.0241 6.19742 26.2195 6.443L26.5121 6.81087L27.7717 6.70083C27.8581 6.87971 27.9342 7.06331 27.9998 7.25078L27.0322 8.06362L27.085 8.53015C27.1204 8.84205 27.1204 9.15695 27.085 9.46884L27.0321 9.93553L28.0004 10.7484C27.935 10.9359 27.8591 11.1195 27.7731 11.2984L26.5132 11.188L26.2204 11.556C26.0251 11.8016 25.8025 12.0242 25.5569 12.2195L25.189 12.5121L25.2991 13.7718C25.1202 13.8581 24.9366 13.9343 24.7491 13.9999L23.9363 13.0322L23.4698 13.0851C23.1579 13.1204 22.843 13.1204 22.5311 13.0851L22.0644 13.0322L21.2515 14.0004L21.2457 13.9984L21.25 14.125L22.0994 15.7121L22.8159 14.8587C22.9389 14.8625 23.062 14.8625 23.1851 14.8587L24.1247 15.9774L24.6512 15.8507C25.3666 15.6785 26.0505 15.3949 26.6778 15.0103L27.1392 14.7274L27.0121 13.2727C27.102 13.1884 27.1892 13.1012 27.2735 13.0113L28.7297 13.139L29.0126 12.6766C29.3967 12.0489 29.6796 11.3645 29.8509 10.6487L29.9768 10.1227L28.8587 9.18401C28.8625 9.06098 28.8625 8.93786 28.8587 8.81483L29.9773 7.87515L29.8506 7.34871C29.6785 6.63327 29.3949 5.94938 29.0102 5.32209L28.7273 4.8607L27.2727 4.98776C27.1883 4.89792 27.1011 4.81075 27.0113 4.72638L27.1389 3.27018L26.6766 2.98733C26.0488 2.60321 25.3645 2.32031 24.6487 2.14901L24.1227 2.02312L23.184 3.14125C23.0609 3.13741 22.9378 3.13741 22.8148 3.14125Z" fill="#000000" class="bmwfcol"/><path d="M22.9995 5.91798C21.2977 5.91798 19.9181 7.29753 19.9181 8.99931C19.9181 10.7011 21.2977 12.0806 22.9995 12.0806C24.7012 12.0806 26.0808 10.7011 26.0808 8.99931C26.0808 7.29753 24.7012 5.91798 22.9995 5.91798ZM21.6681 8.99931C21.6681 8.26403 22.2642 7.66798 22.9995 7.66798C23.7347 7.66798 24.3308 8.26403 24.3308 8.99931C24.3308 9.73458 23.7347 10.3306 22.9995 10.3306C22.2642 10.3306 21.6681 9.73458 21.6681 8.99931Z" fill="#000000" class="bmwfcol"/><path d="M12.1743 11.2391C12.3584 10.9203 12.8186 10.9203 13.0027 11.2391L15.9391 16.3252L13.8892 15.776L15.1267 17.9192L18.5378 18.8333L19.4539 15.4143L18.2165 13.271L17.6677 15.3192L14.7347 10.2391C13.7809 8.58705 11.3963 8.58727 10.4423 10.2391L7.86442 14.7002L9.59609 15.7008L12.1743 11.2391Z" fill="#000000" class="bmwfcol"/><path d="M4.06631 25.2826L6.99841 20.204L7.54461 22.2425L8.78204 20.0992L7.868 16.688L4.4491 17.604L3.21167 19.7473L5.27132 19.1955L2.33426 24.2826C1.38037 25.9348 2.57273 28 4.48049 28H9.63199V26H4.48049C4.11233 26 3.88222 25.6014 4.06631 25.2826Z" fill="#000000" class="bmwfcol"/><path d="M20.2695 19.8216L22.8427 24.2826C23.7966 25.9348 22.6043 28 20.6965 28H14.8269L16.3269 29.5H13.8521L11.3521 27L13.8521 24.5H16.327L14.827 26H20.6965C21.0647 26 21.2948 25.6014 21.1107 25.2826L18.5371 20.8209L20.2695 19.8216Z" fill="#000000" class="bmwfcol"/><title>material_recycling_rg_48</title></svg>