<svg width="48" height="48" viewBox="0 0 32 32" xmlns="http://www.w3.org/2000/svg"><path d="M24.3301 2.92548L23.5112 1.99438C21.9141 2.22149 20.4277 2.73073 19.3539 4.00988C18.4666 5.06682 17.9998 6.44935 17.9998 7.99956C17.9998 10.3776 19.1049 12.3204 20.9998 13.3062V26.9996C20.9998 27.8268 21.2799 28.5939 21.8427 29.1567C22.4055 29.7194 23.1726 29.9996 23.9998 29.9996C24.8271 29.9996 25.5941 29.7194 26.1569 29.1567C26.7197 28.5939 26.9998 27.8268 26.9998 26.9996V13.3062C28.8947 12.3204 29.9998 10.3776 29.9998 7.99956C29.9998 5.89353 29.0771 4.22543 27.4728 2.93704L26.291 3.33469L25.1019 7.7725C25.0507 7.96409 24.9961 8.04492 24.9739 8.07173C24.9597 8.08881 24.9527 8.0937 24.9304 8.10098C24.8949 8.11259 24.8101 8.12965 24.6458 8.11757C24.4816 8.10552 24.2724 8.06713 24.0067 7.99594C23.7411 7.92474 23.5405 7.85331 23.3919 7.78154C23.2432 7.70966 23.178 7.65232 23.1529 7.62438C23.1371 7.60685 23.1337 7.59935 23.1302 7.57824C23.1244 7.54467 23.1176 7.44808 23.1694 7.2572L23.1698 7.25567L24.3301 2.92548ZM19.9998 7.99956C19.9998 6.85468 20.3401 5.94565 20.8856 5.29582C21.1447 4.9873 21.4614 4.72341 21.8334 4.51579L21.2392 6.73345L21.2387 6.73517C21.0206 7.54062 21.1014 8.33306 21.6646 8.96048C22.1469 9.49759 22.86 9.75918 23.489 9.92777C24.1182 10.0964 24.8661 10.2263 25.5521 10.0019C26.353 9.73995 26.8187 9.09441 27.0339 8.28943L27.6198 6.10311C27.8627 6.63744 27.9998 7.27153 27.9998 7.99956C27.9998 10.0808 26.8193 11.285 24.9998 11.9636V26.9996C24.9998 27.3723 24.8799 27.6052 24.7427 27.7425C24.6055 27.8797 24.3726 27.9996 23.9998 27.9996C23.6271 27.9996 23.3941 27.8797 23.2569 27.7425C23.1197 27.6052 22.9998 27.3723 22.9998 26.9996V11.9636C21.1803 11.285 19.9998 10.0808 19.9998 7.99956Z" fill="#000000" class="bmwfcol"/><path d="M16.3402 5.52884C16.1549 6.17032 16.0456 6.84105 16.0115 7.52796C15.9063 7.49073 15.8005 7.45545 15.694 7.42215L14.3404 9.03442C13.4388 8.93224 12.5654 8.93186 11.6606 9.0344L10.3069 7.42277C9.80089 7.58163 9.31007 7.78517 8.84018 8.03099L9.02339 10.1285C8.31286 10.6937 7.69495 11.3111 7.12772 12.0242L5.02945 11.8403C4.78418 12.3104 4.58124 12.8015 4.42303 13.3076L6.0353 14.6611C5.93312 15.5627 5.93274 16.4361 6.03528 17.3409L4.42365 18.6947C4.58251 19.2006 4.78605 19.6915 5.03187 20.1614L7.12934 19.9781C7.69456 20.6887 8.31202 21.3066 9.02509 21.8738L8.84117 23.9721C9.3113 24.2174 9.80233 24.4203 10.3084 24.5785L11.662 22.9662C12.5636 23.0684 13.437 23.0688 14.3418 22.9663L15.6955 24.5779C16.2015 24.419 16.6923 24.2155 17.1622 23.9696L16.979 21.8722C17.6896 21.3069 18.3075 20.6895 18.8747 19.9765L18.9998 19.9874V25.2132C17.7461 25.982 16.4036 26.4859 14.975 26.8297L13.488 25.0593C13.1643 25.0765 12.8399 25.0765 12.5161 25.0594L11.0304 26.8291C9.49373 26.4613 8.09123 25.8823 6.73861 25.0547L6.94061 22.7502C6.69925 22.5333 6.46963 22.3037 6.25272 22.0623L3.95048 22.2634C3.12468 20.9167 2.54279 19.5156 2.17188 17.9742L3.94219 16.4871C3.925 16.1634 3.925 15.839 3.94218 15.5153L2.17249 14.0295C2.54025 12.4929 3.11928 11.0904 3.94687 9.73773L6.25133 9.93972C6.46823 9.69837 6.69784 9.46875 6.9392 9.25184L6.7381 6.9496C8.08485 6.1238 9.48592 5.54191 11.0273 5.171L12.5144 6.94131C12.8381 6.92412 13.1626 6.92411 13.4863 6.9413L14.972 5.17161C15.4307 5.28137 15.8904 5.38589 16.3402 5.52884Z" fill="#000000" class="bmwfcol"/><path d="M7.99984 15.9999C7.99984 13.2385 10.2384 10.9999 12.9998 10.9999C15.7613 10.9999 17.9998 13.2385 17.9998 15.9999C17.9998 18.7614 15.7613 20.9999 12.9998 20.9999C10.2384 20.9999 7.99984 18.7614 7.99984 15.9999ZM12.9998 12.9999C11.343 12.9999 9.99984 14.3431 9.99984 15.9999C9.99984 17.6568 11.343 18.9999 12.9998 18.9999C14.6567 18.9999 15.9998 17.6568 15.9998 15.9999C15.9998 14.3431 14.6567 12.9999 12.9998 12.9999Z" fill="#000000" class="bmwfcol"/><title>mechanical-repair_rg_48</title></svg>