<svg width="48" height="48" viewBox="0 0 32 32" xmlns="http://www.w3.org/2000/svg"><path d="M20 4H16V2H20V4Z" fill="#000000" class="bmwfcol"/><path d="M12.5528 8.55283C12.6533 8.13515 12.8952 7.73761 13.2662 7.32175C13.7535 6.77547 14.5507 6.09923 15.8157 5.18845L16.0775 5H19.9226L20.1843 5.18846C21.4493 6.09924 22.2465 6.77549 22.7338 7.32179C23.2344 7.88309 23.4999 8.41094 23.4999 8.99993L23.5 11C23.5 11.1552 23.4638 11.3084 23.3944 11.4472L22.9999 12.2361V14.7639L23.3944 15.5528C23.4638 15.6916 23.5 15.8447 23.5 16L23.5 19.5L21.5 17.5L21.5 16.2361L21.1055 15.4472C21.0361 15.3084 20.9999 15.1553 20.9999 15V12C20.9999 11.8447 21.0361 11.6916 21.1055 11.5528L21.5 10.7639L21.4999 9.01448C21.4838 8.97212 21.4254 8.85961 21.2412 8.65302C20.9279 8.30182 20.3437 7.78284 19.2753 7H16.7248C15.6563 7.78286 15.072 8.30184 14.7587 8.65306C14.5744 8.85964 14.516 8.97216 14.4999 9.01452L14.4999 10.4999L12.5528 8.55283ZM21.5051 9.03437C21.5051 9.03437 21.5021 9.02807 21.5008 9.01683C21.5053 9.02898 21.5051 9.03437 21.5051 9.03437ZM14.4947 9.03441C14.4947 9.03441 14.4946 9.02903 14.499 9.01689C14.4978 9.02811 14.4947 9.03441 14.4947 9.03441Z" fill="#000000" class="bmwfcol"/><path d="M14.5 18.4999L12.4999 16.4999L12.5 21H14.5L14.5 18.4999Z" fill="#000000" class="bmwfcol"/><path d="M23.2817 27.2817L21.5 25.5L21.5 26C21.5 26.3517 21.4091 26.6462 21.293 26.8203C21.1966 26.9648 21.1122 27 21.0001 27L19 27V29L21.0001 29C21.888 29 22.5535 28.5352 22.9571 27.9297C23.0922 27.727 23.1994 27.5083 23.2817 27.2817Z" fill="#000000" class="bmwfcol"/><path d="M3.5 10C2.67157 10 2 10.6716 2 11.5C2 12.3284 2.67157 13 3.5 13C4.32843 13 5 12.3284 5 11.5C5 10.6716 4.32843 10 3.5 10Z" fill="#000000" class="bmwfcol"/><path d="M3.5 20C2.67157 20 2 20.6716 2 21.5C2 22.3284 2.67157 23 3.5 23C4.32843 23 5 22.3284 5 21.5C5 20.6716 4.32843 20 3.5 20Z" fill="#000000" class="bmwfcol"/><path d="M12 24.5C12 23.6716 12.6716 23 13.5 23C14.3284 23 15 23.6716 15 24.5C15 25.3284 14.3284 26 13.5 26C12.6716 26 12 25.3284 12 24.5Z" fill="#000000" class="bmwfcol"/><path d="M8.5 22C7.67157 22 7 22.6716 7 23.5C7 24.3284 7.67157 25 8.5 25C9.32843 25 10 24.3284 10 23.5C10 22.6716 9.32843 22 8.5 22Z" fill="#000000" class="bmwfcol"/><path d="M9 27.5C9 26.6716 9.67157 26 10.5 26C11.3284 26 12 26.6716 12 27.5C12 28.3284 11.3284 29 10.5 29C9.67157 29 9 28.3284 9 27.5Z" fill="#000000" class="bmwfcol"/><path d="M4.5 26C3.67157 26 3 26.6716 3 27.5C3 28.3284 3.67157 29 4.5 29C5.32843 29 6 28.3284 6 27.5C6 26.6716 5.32843 26 4.5 26Z" fill="#000000" class="bmwfcol"/><path d="M14 28.0005C14 27.1721 14.6716 26.5005 15.5 26.5005C16.3284 26.5005 17 27.1721 17 28.0005C17 28.8289 16.3284 29.5005 15.5 29.5005C14.6716 29.5005 14 28.8289 14 28.0005Z" fill="#000000" class="bmwfcol"/><path d="M7.5 16C6.67157 16 6 16.6716 6 17.5C6 18.3284 6.67157 19 7.5 19C8.32843 19 9 18.3284 9 17.5C9 16.6716 8.32843 16 7.5 16Z" fill="#000000" class="bmwfcol"/><path d="M29.4142 28L5.41424 4H2.58582L26.5858 28H29.4142Z" fill="#000000" class="bmwfcol"/><title>microplastic_crossed_out_rg_48</title></svg>