<svg width="48" height="48" viewBox="0 0 32 32" xmlns="http://www.w3.org/2000/svg"><path d="M7.84804 7.91116C9.82024 5.84623 12.8019 4.59094 15.9999 4.59094C19.1979 4.59094 22.1795 5.84623 24.1517 7.91116C26.104 9.95523 27.0969 12.8171 26.3253 16.1761L28.2745 16.6239C29.2028 12.5829 27.9958 9.04027 25.598 6.5298C23.2202 4.04019 19.7019 2.59094 15.9999 2.59094C12.2979 2.59094 8.77953 4.04018 6.40172 6.5298C4.00399 9.04027 2.79693 12.5829 3.72529 16.6239L5.67451 16.1761C4.90282 12.8171 5.89576 9.95523 7.84804 7.91116Z" fill="#000000" class="bmwfcol"/><path d="M16.0283 10.5C15.0511 10.5 14.159 10.8302 13.5087 11.4804C12.8584 12.1307 12.5283 13.0228 12.5283 14V18C12.5283 18.9773 12.8584 19.8694 13.5087 20.5196C14.159 21.1699 15.0511 21.5 16.0283 21.5C17.0056 21.5 17.8976 21.1699 18.5479 20.5196C19.1982 19.8694 19.5283 18.9773 19.5283 18V14C19.5283 13.0228 19.1982 12.1307 18.5479 11.4804C17.8976 10.8302 17.0056 10.5 16.0283 10.5ZM14.5283 14C14.5283 13.4773 14.6982 13.1194 14.9229 12.8946C15.1476 12.6699 15.5056 12.5 16.0283 12.5C16.5511 12.5 16.909 12.6699 17.1337 12.8946C17.3584 13.1194 17.5283 13.4773 17.5283 14V18C17.5283 18.5228 17.3584 18.8807 17.1337 19.1054C16.909 19.3302 16.5511 19.5 16.0283 19.5C15.5056 19.5 15.1476 19.3302 14.9229 19.1054C14.6982 18.8807 14.5283 18.5228 14.5283 18V14Z" fill="#000000" class="bmwfcol"/><path d="M16 22.9999C14.4272 22.9999 13.1943 22.48 12.3571 21.6428C11.5199 20.8056 11 19.5727 11 17.9999H9C9 20.0272 9.68011 21.7942 10.9429 23.057C11.9932 24.1073 13.3924 24.7546 15 24.9426V28H17V24.9426C18.6076 24.7546 20.0068 24.1073 21.0571 23.057C22.3199 21.7942 23 20.0272 23 17.9999H21C21 19.5727 20.4801 20.8056 19.6429 21.6428C18.8057 22.48 17.5728 22.9999 16 22.9999Z" fill="#000000" class="bmwfcol"/><path d="M4.12842 18.3781L6.19897 26.1055L8.13082 25.5879L6.06027 17.8604L4.12842 18.3781Z" fill="#000000" class="bmwfcol"/><path d="M23.8694 25.5879L25.9399 17.8605L27.8718 18.3781L25.8012 26.1056L23.8694 25.5879Z" fill="#000000" class="bmwfcol"/><title>microphone_and_headphone_rg_48</title></svg>