<svg width="48" height="48" viewBox="0 0 32 32" xmlns="http://www.w3.org/2000/svg"><path d="M11.6679 3.66789C12.7557 2.58011 14.2728 2 16 2C17.7272 2 19.2443 2.58011 20.3321 3.66789C21.4199 4.75567 22 6.27275 22 8V16C22 17.7272 21.4199 19.2443 20.3321 20.3321C19.2443 21.4199 17.7272 22 16 22C14.2728 22 12.7557 21.4199 11.6679 20.3321C10.5801 19.2443 10 17.7272 10 16V8C10 6.27275 10.5801 4.75567 11.6679 3.66789ZM13.0821 5.08211C12.4199 5.74433 12 6.72725 12 8V16C12 17.2728 12.4199 18.2557 13.0821 18.9179C13.7443 19.5801 14.7272 20 16 20C17.2728 20 18.2557 19.5801 18.9179 18.9179C19.5801 18.2557 20 17.2728 20 16V8C20 6.72725 19.5801 5.74433 18.9179 5.08211C18.2557 4.41989 17.2728 4 16 4C14.7272 4 13.7443 4.41989 13.0821 5.08211Z" fill="#000000" class="bmwfcol"/><path d="M17 25.9608C19.5005 25.7622 21.6514 24.8128 23.2321 23.2321C25.0199 21.4443 26 18.9272 26 16H24C24 18.4728 23.1801 20.4557 21.8179 21.8179C20.4557 23.1801 18.4728 24 16 24C13.5272 24 11.5443 23.1801 10.1821 21.8179C8.81989 20.4557 8 18.4728 8 16H6C6 18.9272 6.98011 21.4443 8.76789 23.2321C10.3486 24.8128 12.4995 25.7622 15 25.9608V30H17V25.9608Z" fill="#000000" class="bmwfcol"/><title>microphone_rg_48</title></svg>