<svg width="48" height="48" viewBox="0 0 32 32" xmlns="http://www.w3.org/2000/svg"><path d="M20 4H16V2H20V4Z" fill="#000000" class="bmwfcol"/><path d="M16.0775 5L15.8157 5.18845C14.5507 6.09923 13.7535 6.77547 13.2662 7.32175C12.7655 7.883 12.4999 8.41087 12.4999 8.99993L12.4999 11C12.4999 11.1553 12.5361 11.3084 12.6055 11.4472L13 12.2361L13 14.7639L12.6055 15.5527C12.5361 15.6916 12.4999 15.8447 12.4999 16L12.5 21H14.5L14.4999 16.2361L14.8944 15.4473C14.9639 15.3084 15 15.1553 15 15L15 12C15 11.8447 14.9638 11.6916 14.8944 11.5528L14.4999 10.7639L14.4999 9.01452C14.516 8.97216 14.5744 8.85964 14.7587 8.65306C15.072 8.30184 15.6563 7.78286 16.7248 7H19.2752C20.3437 7.78284 20.9279 8.30182 21.2412 8.65302C21.4254 8.85961 21.4838 8.97212 21.4999 9.01448L21.5 10.7639L21.1055 11.5528C21.0361 11.6916 20.9999 11.8447 20.9999 12V15C20.9999 15.1553 21.0361 15.3084 21.1055 15.4472L21.5 16.2361L21.5 26C21.5 26.3517 21.4091 26.6462 21.293 26.8203C21.1966 26.9648 21.1121 27 21.0001 27L19 27V29L21.0001 29C21.888 29 22.5535 28.5352 22.9571 27.9297C23.341 27.3538 23.5 26.6483 23.5 26L23.5 16C23.5 15.8447 23.4638 15.6916 23.3944 15.5528L22.9999 14.7639V12.2361L23.3944 11.4472C23.4638 11.3084 23.5 11.1552 23.5 11L23.4999 8.99993C23.4999 8.41094 23.2344 7.88309 22.7337 7.32179C22.2465 6.77549 21.4493 6.09924 20.1843 5.18846L19.9226 5H16.0775ZM21.5051 9.03437C21.5051 9.03437 21.502 9.02807 21.5008 9.01683C21.5052 9.02898 21.5051 9.03437 21.5051 9.03437ZM14.4947 9.03441C14.4947 9.03441 14.4946 9.02903 14.499 9.01689C14.4977 9.02811 14.4947 9.03441 14.4947 9.03441Z" fill="#000000" class="bmwfcol"/><path d="M2 11.5C2 10.6716 2.67157 10 3.5 10C4.32843 10 5 10.6716 5 11.5C5 12.3284 4.32843 13 3.5 13C2.67157 13 2 12.3284 2 11.5Z" fill="#000000" class="bmwfcol"/><path d="M2 21.5C2 20.6716 2.67157 20 3.5 20C4.32843 20 5 20.6716 5 21.5C5 22.3284 4.32843 23 3.5 23C2.67157 23 2 22.3284 2 21.5Z" fill="#000000" class="bmwfcol"/><path d="M13.5 23C12.6716 23 12 23.6716 12 24.5C12 25.3284 12.6716 26 13.5 26C14.3284 26 15 25.3284 15 24.5C15 23.6716 14.3284 23 13.5 23Z" fill="#000000" class="bmwfcol"/><path d="M7 23.5C7 22.6716 7.67157 22 8.5 22C9.32843 22 10 22.6716 10 23.5C10 24.3284 9.32843 25 8.5 25C7.67157 25 7 24.3284 7 23.5Z" fill="#000000" class="bmwfcol"/><path d="M10.5 26C9.67157 26 9 26.6716 9 27.5C9 28.3284 9.67157 29 10.5 29C11.3284 29 12 28.3284 12 27.5C12 26.6716 11.3284 26 10.5 26Z" fill="#000000" class="bmwfcol"/><path d="M3 27.5C3 26.6716 3.67157 26 4.5 26C5.32843 26 6 26.6716 6 27.5C6 28.3284 5.32843 29 4.5 29C3.67157 29 3 28.3284 3 27.5Z" fill="#000000" class="bmwfcol"/><path d="M15.5 26.5005C14.6716 26.5005 14 27.1721 14 28.0005C14 28.8289 14.6716 29.5005 15.5 29.5005C16.3284 29.5005 17 28.8289 17 28.0005C17 27.1721 16.3284 26.5005 15.5 26.5005Z" fill="#000000" class="bmwfcol"/><path d="M6 17.5C6 16.6716 6.67157 16 7.5 16C8.32843 16 9 16.6716 9 17.5C9 18.3284 8.32843 19 7.5 19C6.67157 19 6 18.3284 6 17.5Z" fill="#000000" class="bmwfcol"/><title>microplastic_rg_48</title></svg>