<svg width="48" height="48" viewBox="0 0 32 32" xmlns="http://www.w3.org/2000/svg"><path d="M15.1823 3H16.6997L16.9821 3.52907C17.6236 4.73076 18.6216 6.35929 19.664 8.06029C20.1038 8.77801 20.5515 9.50864 20.9837 10.2256C21.7019 11.4169 22.3746 12.5669 22.8698 13.5205C23.1169 13.9965 23.3293 14.4416 23.4823 14.8295C23.6215 15.1825 23.7621 15.6087 23.7621 16C23.7621 16.7959 23.5047 17.4958 23.1356 18.1112L24.5 21.2947V21.5C24.5 21.9555 24.267 22.2934 24.0979 22.4865C23.9175 22.6924 23.6938 22.8659 23.4808 23.0095C23.0515 23.2989 22.4905 23.5815 21.92 23.8456C21.4341 24.0705 20.9027 24.2991 20.3886 24.5203C20.2914 24.5622 20.1948 24.6037 20.0993 24.645C19.5061 24.9009 18.9522 25.144 18.489 25.3736C18.3796 25.611 18.2693 25.8419 18.1614 26.0632C17.9525 26.4917 17.7596 26.8719 17.5915 27.2032C17.3367 27.7056 17.1388 28.0956 17.0285 28.3714L16.777 29H15.1457L15.0123 28.1562C14.93 27.6358 14.8511 27.1506 14.7763 26.6906C14.6443 25.878 14.525 25.1436 14.4217 24.4315C14.3692 24.3904 14.3132 24.3463 14.2543 24.2997C13.8715 23.9966 13.3579 23.5794 12.8415 23.1276C12.3299 22.68 11.7936 22.1793 11.3776 21.7112C11.1708 21.4785 10.9724 21.2304 10.8202 20.9831C10.6878 20.7678 10.5 20.413 10.5 20C10.5 19.3963 10.718 18.314 11.0091 17.0954C11.3119 15.8276 11.7289 14.2764 12.1893 12.6563C13.1101 9.41607 14.2149 5.8633 14.9526 3.67991L15.1823 3ZM14.1025 21.5732C14.0361 20.6597 14 19.6688 14 18.5C14 17.2289 14.1026 15.0574 14.2525 12.7152C14.2056 12.8785 14.1592 13.0411 14.1132 13.203C13.6565 14.81 13.2479 16.331 12.9544 17.56C12.6763 18.724 12.5279 19.5241 12.5036 19.9012C12.5091 19.911 12.5157 19.9222 12.5235 19.9349C12.5901 20.043 12.7042 20.1933 12.8724 20.3825C13.1936 20.7438 13.6347 21.1617 14.1025 21.5732ZM16.6924 7.02711C16.3464 10.8661 16 16.2278 16 18.5C16 21.1503 16.1892 22.8018 16.5119 24.8791C16.9396 23.9806 17.3299 23.0572 17.5299 22.2575C17.7345 21.4387 18.1771 20.7506 18.6522 20.1682C19.047 19.6845 19.5088 19.2229 19.9257 18.8063C20.0034 18.7286 20.0796 18.6525 20.1535 18.5781C21.1906 17.5336 21.7621 16.8086 21.7621 16C21.7621 16.003 21.7618 16.0014 21.7605 15.9948C21.7546 15.9651 21.7287 15.8345 21.6217 15.5633C21.5047 15.2664 21.3271 14.8897 21.0947 14.4421C20.6309 13.5486 19.9862 12.4445 19.2709 11.2581C18.8625 10.5807 18.4299 9.87477 17.9985 9.17076C17.5526 8.44304 17.1079 7.71734 16.6924 7.02711ZM19.4713 22.7377C19.5159 22.7186 19.5603 22.6994 19.6047 22.6803C20.1192 22.4589 20.621 22.243 21.08 22.0305C21.6273 21.7773 22.062 21.5522 22.3515 21.3588L21.706 19.8527C21.661 19.8983 21.6166 19.9431 21.5727 19.9873C21.4875 20.0731 21.4037 20.1569 21.3215 20.2392C20.904 20.657 20.5267 21.0346 20.2018 21.4327C19.8213 21.899 19.5767 22.3204 19.4713 22.7377ZM22.5935 21.1686C22.5935 21.1687 22.5935 21.1686 22.5935 21.1686V21.1686Z" fill="#000000" class="bmwfcol"/><title>microfibre_cloth_rg_48</title></svg>