<svg width="48" height="48" viewBox="0 0 32 32" xmlns="http://www.w3.org/2000/svg"><path d="M14 4H6V2H14V4Z" fill="#000000" class="bmwfcol"/><path d="M8 5.5C7.17157 5.5 6.5 6.17157 6.5 7C6.5 7.82843 7.17157 8.5 8 8.5C8.82843 8.5 9.5 7.82843 9.5 7C9.5 6.17157 8.82843 5.5 8 5.5Z" fill="#000000" class="bmwfcol"/><path d="M27 7C26.1728 7 25.4057 7.28011 24.8429 7.84289C24.2801 8.40567 24 9.17275 24 10C24 10.8272 24.2801 11.5943 24.8429 12.1571C25.4057 12.7199 26.1728 13 27 13C27.8272 13 28.5943 12.7199 29.1571 12.1571C29.7199 11.5943 30 10.8272 30 10C30 9.17275 29.7199 8.40567 29.1571 7.84289C28.5943 7.28011 27.8272 7 27 7ZM26 10C26 9.62725 26.1199 9.39433 26.2571 9.25711C26.3943 9.11989 26.6272 9 27 9C27.3728 9 27.6057 9.11989 27.7429 9.25711C27.8801 9.39433 28 9.62725 28 10C28 10.3728 27.8801 10.6057 27.7429 10.7429C27.6057 10.8801 27.3728 11 27 11C26.6272 11 26.3943 10.8801 26.2571 10.7429C26.1199 10.6057 26 10.3728 26 10Z" fill="#000000" class="bmwfcol"/><path d="M12 5.5C11.1716 5.5 10.5 6.17157 10.5 7C10.5 7.82843 11.1716 8.5 12 8.5C12.8284 8.5 13.5 7.82843 13.5 7C13.5 6.17157 12.8284 5.5 12 5.5Z" fill="#000000" class="bmwfcol"/><path d="M6.5 11C6.5 10.1716 7.17157 9.5 8 9.5C8.82843 9.5 9.5 10.1716 9.5 11C9.5 11.8284 8.82843 12.5 8 12.5C7.17157 12.5 6.5 11.8284 6.5 11Z" fill="#000000" class="bmwfcol"/><path d="M12 9.5C11.1716 9.5 10.5 10.1716 10.5 11C10.5 11.8284 11.1716 12.5 12 12.5C12.8284 12.5 13.5 11.8284 13.5 11C13.5 10.1716 12.8284 9.5 12 9.5Z" fill="#000000" class="bmwfcol"/><path d="M6.5 15C6.5 14.1716 7.17157 13.5 8 13.5C8.82843 13.5 9.5 14.1716 9.5 15C9.5 15.8284 8.82843 16.5 8 16.5C7.17157 16.5 6.5 15.8284 6.5 15Z" fill="#000000" class="bmwfcol"/><path d="M12 13.5C11.1716 13.5 10.5 14.1716 10.5 15C10.5 15.8284 11.1716 16.5 12 16.5C12.8284 16.5 13.5 15.8284 13.5 15C13.5 14.1716 12.8284 13.5 12 13.5Z" fill="#000000" class="bmwfcol"/><path d="M14 20H6V18H14V20Z" fill="#000000" class="bmwfcol"/><path d="M7.64844 30H9.95784L13.9197 23.1379L20.8676 24.9996H21.0301C21.8791 24.9996 22.5718 24.9996 23.1296 24.9666C23.6923 24.9333 24.2069 24.8632 24.6706 24.679C25.6718 24.2815 26.1616 23.451 26.7108 22.4996L30.2078 16.4427L29.7195 15.9026C29.1085 15.2269 28.3635 14.6313 27.4982 14.1317C26.6345 13.633 25.7479 13.286 24.8588 13.0946L24.1465 12.9412L18.7133 22.3518L13.667 20.9996H12.8448L7.64844 30ZM20.7133 22.8877L25.1287 15.2401C25.5794 15.3912 26.0376 15.5978 26.4982 15.8638C26.9602 16.1305 27.3693 16.425 27.7263 16.7408L24.9788 21.4996C24.3734 22.5483 24.1904 22.7178 23.9324 22.8202C23.7666 22.8861 23.5051 22.9409 23.0115 22.9701C22.5445 22.9978 21.9494 22.9995 21.1309 22.9996L20.7133 22.8877Z" fill="#000000" class="bmwfcol"/><path d="M18.7617 12L15.7617 15H18.2366L22.2367 10.9999L18.2368 7H15.7619L18.7619 10H15V12H18.7617Z" fill="#000000" class="bmwfcol"/><path d="M1 12H5L5 10H1V12Z" fill="#000000" class="bmwfcol"/><title>micro-filter-service_rg_48</title></svg>