<svg width="48" height="48" viewBox="0 0 32 32" xmlns="http://www.w3.org/2000/svg"><path d="M18.9999 2.58594L21.4141 5.00015H23.3027L25.137 6.22303L26.4029 7.4889L26.7806 9H28.0928L27.9774 10.3189C27.7056 13.4256 27.503 15.7411 27.3141 17.5H25.3026C25.4739 15.9327 25.6607 13.845 25.9101 11H6.09089C6.55663 16.313 6.80396 18.9852 7.1404 20.5597C7.31347 21.3697 7.49627 21.813 7.70524 22.1483C7.86901 22.411 8.06644 22.6388 8.36355 22.945C8.93617 21.7922 10.1256 21 11.5 21C13.433 21 15 22.567 15 24.5C15 26.433 13.433 28 11.5 28C9.73673 28 8.278 26.6961 8.03543 24.9999H7.58633L7.27396 24.6875C6.8077 24.2213 6.36447 23.7781 6.00799 23.2062C5.78469 22.848 5.60586 22.4584 5.45487 22H3V20H5.00542C4.70555 18.1143 4.44947 15.1871 4.02308 10.3131L3.9082 9H5.38194L6.05638 7.65112L6.62352 5.38255L8.92805 3.8462L10.8024 4.78339L11.5857 4.00015H14.5857L15.8024 2.78339L17.8024 3.78339L18.9999 2.58594ZM24.5969 8.5114L23.8628 7.77728L22.6971 7.00015H20.5857L18.9999 5.41436L18.1973 6.21691L16.1973 5.21691L15.4141 6.00015H12.4141L11.1973 7.21691L9.07174 6.15411L8.37627 6.61775L7.94341 8.34918L7.61801 9H24.7191L24.5969 8.5114ZM11.5 23C10.6716 23 10 23.6716 10 24.5C10 25.3284 10.6716 26 11.5 26C12.3284 26 13 25.3284 13 24.5C13 23.6716 12.3284 23 11.5 23Z" fill="#000000" class="bmwfcol"/><path d="M18 17H16V19C16 21.0272 16.6801 22.7943 17.9429 24.0571C19.2057 25.3199 20.9728 26 23 26V30H25V27C26.4272 27 27.6943 26.5199 28.6071 25.6071C29.5199 24.6943 30 23.4272 30 22V20H28C26.6433 20 25.4313 20.4338 24.5308 21.2607C24.2028 20.3767 23.7072 19.593 23.0571 18.9429C21.7943 17.6801 20.0272 17 18 17ZM25 25C25 24.0272 25.3199 23.2943 25.8071 22.8071C26.2943 22.3199 27.0272 22 28 22C28 22.9728 27.6801 23.7057 27.1929 24.1929C26.7057 24.6801 25.9728 25 25 25ZM18 19C19.5728 19 20.8057 19.5199 21.6429 20.3571C22.4801 21.1943 23 22.4272 23 24C21.4272 24 20.1943 23.4801 19.3571 22.6429C18.5199 21.8057 18 20.5728 18 19Z" fill="#000000" class="bmwfcol"/><title>mine_cart_and_plant_rg_48</title></svg>