<svg width="48" height="48" viewBox="0 0 32 32" xmlns="http://www.w3.org/2000/svg"><path d="M19.9193 11.9001V5.67871L16.9891 6.58098V8.09657L18.4063 7.66621V11.9001H19.9193Z" fill="#000000" class="bmwfcol"/><path d="M23.0641 5.77924C22.3833 5.77924 21.8176 5.93408 21.4051 6.28768C21.0275 6.61263 20.8829 7.1007 20.8829 7.57454C20.8829 7.98664 20.9809 8.33036 21.2078 8.6184C21.2781 8.70522 21.3434 8.77502 21.4107 8.83373C21.3363 8.90235 21.2598 8.98041 21.1772 9.07535C20.9259 9.3615 20.7939 9.75158 20.7939 10.1567C20.7939 10.7415 20.98 11.253 21.4196 11.5977C21.828 11.9126 22.4028 12.0262 23.0641 12.0262C23.7961 12.0262 24.3472 11.8778 24.789 11.511C25.1945 11.1659 25.3565 10.6648 25.3565 10.1567C25.3565 9.76068 25.2442 9.34535 24.9813 9.0464C24.8945 8.94441 24.8125 8.86346 24.7162 8.78758C24.7854 8.70944 24.8539 8.62834 24.9202 8.54435C25.1251 8.27398 25.2675 7.96237 25.2675 7.57454C25.2675 7.07469 25.0791 6.58388 24.6997 6.26448C24.2927 5.91715 23.7407 5.77924 23.0641 5.77924ZM22.4819 7.29603C22.5226 7.25939 22.5952 7.22096 22.6994 7.19572C22.8019 7.17086 22.9262 7.15868 23.0641 7.15868C23.3452 7.15868 23.539 7.20942 23.6554 7.30491C23.7381 7.37582 23.7693 7.46748 23.7693 7.6339C23.7693 7.83773 23.7124 7.95556 23.6397 8.06462C23.5952 8.13129 23.5607 8.17602 23.5166 8.22659C23.2657 8.18182 23.0546 8.1388 22.8861 8.09512C22.6871 8.04351 22.5714 7.99666 22.5179 7.95944C22.4596 7.91966 22.4303 7.88383 22.4134 7.84641C22.3946 7.80486 22.3811 7.7422 22.3811 7.6339C22.3811 7.53048 22.3856 7.46688 22.4 7.41704C22.4122 7.37534 22.433 7.338 22.4819 7.29603ZM22.4325 9.66499C22.4964 9.57665 22.5466 9.52427 22.6182 9.46268C22.8962 9.50563 23.1154 9.54668 23.2837 9.58695C23.4741 9.63249 23.5868 9.67554 23.6412 9.70774C23.7324 9.75899 23.781 9.81238 23.81 9.86882C23.8405 9.92809 23.8584 10.0083 23.8584 10.127C23.8584 10.2302 23.8453 10.301 23.8224 10.3548C23.8007 10.4057 23.7622 10.4554 23.6977 10.5038C23.5825 10.5939 23.3517 10.6468 23.0641 10.6468C22.9205 10.6468 22.7875 10.6361 22.6745 10.6115C22.5601 10.5865 22.479 10.5499 22.4272 10.5071C22.3281 10.4252 22.2995 10.3338 22.2995 10.1122C22.2995 9.91481 22.3468 9.78525 22.4325 9.66499Z" fill="#000000" class="bmwfcol"/><path d="M27.6761 6.55092H29.1298V8.213H30.7176V9.59244H29.1298V11.2545H27.6761V9.59244H26.0882V8.213H27.6761V6.55092Z" fill="#000000" class="bmwfcol"/><path d="M7.43223 9.20426C8.41081 8.26064 9.72209 8 11.0014 8C12.2806 8 13.5919 8.26064 14.5705 9.20426C15.5539 10.1525 16.0014 11.5957 16.0014 13.5C16.0014 15.4043 15.5539 16.8475 14.5705 17.7957C13.5919 18.7394 12.2806 19 11.0014 19C9.72209 19 8.41081 18.7394 7.43223 17.7957C6.44886 16.8475 6.00137 15.4043 6.00137 13.5C6.00137 11.5957 6.44886 10.1525 7.43223 9.20426ZM8.8205 10.644C8.38721 11.0618 8.00137 11.8686 8.00137 13.5C8.00137 15.1314 8.38721 15.9382 8.8205 16.356C9.25859 16.7785 9.94731 17 11.0014 17C12.0554 17 12.7441 16.7785 13.1822 16.356C13.6155 15.9382 14.0014 15.1314 14.0014 13.5C14.0014 11.8686 13.6155 11.0618 13.1822 10.644C12.7441 10.2215 12.0554 10 11.0014 10C9.94731 10 9.25859 10.2215 8.8205 10.644Z" fill="#000000" class="bmwfcol"/><path d="M3.30297 26H1.23242L1.43544 25.2423C2.02823 23.0195 2.6388 21.4391 4.28609 20.6588C5.05126 20.2963 5.96115 20.1456 7.01553 20.0727C8.06725 20 9.37067 20 10.9659 20C12.5612 20 13.9361 20 14.9878 20.0727C16.0422 20.1456 16.9521 20.2963 17.7173 20.6588C19.3644 21.439 19.9749 23.0186 20.5676 25.2412L20.771 26H18.7004C18.6552 25.8313 18.6117 25.6533 18.567 25.4701C18.2884 24.3286 17.9609 22.9872 16.8611 22.4662C16.4388 22.2662 15.8299 22.1357 14.8499 22.0679C13.8751 22.0005 12.6401 22 11.0017 22C9.36322 22 8.12825 22.0005 7.15345 22.0679C6.17345 22.1357 5.56459 22.2662 5.14226 22.4662C4.05812 22.9798 3.70562 24.3948 3.42213 25.5328C3.38165 25.6954 3.34257 25.8522 3.30297 26Z" fill="#000000" class="bmwfcol"/><title>minimum-age_rg_48</title></svg>