<svg width="48" height="48" viewBox="0 0 32 32" xmlns="http://www.w3.org/2000/svg"><path d="M11.5 23C11.5 22.1716 10.8284 21.5 10 21.5C9.17157 21.5 8.5 22.1716 8.5 23C8.5 23.8284 9.17157 24.5 10 24.5C10.8284 24.5 11.5 23.8284 11.5 23Z" fill="#000000" class="bmwfcol"/><path d="M7 10.5858L9.08579 8.5H10.9142L13 10.5858V11.9142L12.1642 12.75L13 13.5858L13 14.9142L12.1642 15.75L13 16.5858V17.8844C14.2834 18.778 15 20.2606 15 22C15 23.4273 14.5199 24.6943 13.6071 25.6071C12.6943 26.5199 11.4272 27 10 27C8.57275 27 7.30567 26.5199 6.39289 25.6071C5.48011 24.6943 5 23.4273 5 22C5 20.2606 5.71663 18.778 7 17.8844L7 10.5858ZM10.8358 11.25L10.0858 10.5H9.91421L9 11.4142L9 19.0617L8.45385 19.3399C7.58385 19.783 7 20.6802 7 22C7 22.9728 7.31989 23.7057 7.80711 24.1929C8.29433 24.6801 9.02725 25 10 25C10.9728 25 11.7057 24.6801 12.1929 24.1929C12.6801 23.7057 13 22.9728 13 22C13 20.6802 12.4161 19.783 11.5461 19.3399L11 19.0617V17.4142L10 16.4142V15.0858L10.8358 14.25L10 13.4142V12.0858L10.8358 11.25Z" fill="#000000" class="bmwfcol"/><path d="M8.5 5.1C7.94772 5.1 7.5 5.54771 7.5 6.1C7.5 6.65228 7.94772 7.1 8.5 7.1H11.5C12.0523 7.1 12.5 6.65228 12.5 6.1C12.5 5.54771 12.0523 5.1 11.5 5.1H8.5Z" fill="#000000" class="bmwfcol"/><path d="M6 2C4.84586 2 3.79657 2.28921 3.04289 3.04289C2.28921 3.79657 2 4.84586 2 6V26C2 27.1541 2.28921 28.2034 3.04289 28.9571C3.79657 29.7108 4.84586 30 6 30H14C15.1541 30 16.2034 29.7108 16.9571 28.9571C17.7108 28.2034 18 27.1541 18 26V6C18 4.84586 17.7108 3.79657 16.9571 3.04289C16.2034 2.28921 15.1541 2 14 2H6ZM4 6C4 5.15414 4.21079 4.70343 4.45711 4.45711C4.70343 4.21079 5.15415 4 6 4H14C14.8459 4 15.2966 4.21079 15.5429 4.45711C15.7892 4.70343 16 5.15414 16 6V26C16 26.8459 15.7892 27.2966 15.5429 27.5429C15.2966 27.7892 14.8459 28 14 28H6C5.15415 28 4.70343 27.7892 4.45711 27.5429C4.21079 27.2966 4 26.8459 4 26V6Z" fill="#000000" class="bmwfcol"/><path d="M30 16C30 20.1272 28.6199 23.6443 26.1321 26.1321L24.7179 24.7179C26.7801 22.6557 28 19.6727 28 16C28 12.3272 26.7801 9.34432 24.7179 7.2821L26.1321 5.86789C28.6199 8.35567 30 11.8727 30 16Z" fill="#000000" class="bmwfcol"/><path d="M26 16C26 18.9272 25.0199 21.4443 23.2321 23.2321L21.8179 21.8179C23.1801 20.4557 24 18.4727 24 16C24 13.5272 23.1801 11.5443 21.8179 10.1821L23.2321 8.76789C25.0199 10.5557 26 13.0727 26 16Z" fill="#000000" class="bmwfcol"/><path d="M20.3321 20.3321C21.4199 19.2443 22 17.7272 22 16C22 14.2727 21.4199 12.7557 20.3321 11.6679L18.9179 13.0821C19.5801 13.7443 20 14.7272 20 16C20 17.2727 19.5801 18.2557 18.9179 18.9179L20.3321 20.3321Z" fill="#000000" class="bmwfcol"/><title>mobile_phone_with_key_and_waves_rg_48</title></svg>