<svg width="48" height="48" viewBox="0 0 32 32" xmlns="http://www.w3.org/2000/svg"><path d="M7.59948 3.59948C7.72472 3.40021 7.87185 3.21394 8.04289 3.04289C8.79657 2.28921 9.84586 2 11 2H21C22.1541 2 23.2034 2.28921 23.9571 3.04289C24.7108 3.79657 25 4.84586 25 6V21L23 19V8H12L10 6H23C23 5.15414 22.7892 4.70343 22.5429 4.45711C22.2966 4.21079 21.8459 4 21 4H11C10.1541 4 9.70343 4.21079 9.45711 4.45711C9.31788 4.59633 9.19001 4.80086 9.10513 5.10513L7.59948 3.59948Z" fill="#000000" class="bmwfcol"/><path d="M24.4005 28.4005C24.2753 28.5998 24.1282 28.7861 23.9571 28.9571C23.2034 29.7108 22.1541 30 21 30H11C9.84586 30 8.79657 29.7108 8.04289 28.9571C7.28921 28.2034 7 27.1541 7 26V11L9 13V24H20L22 26H9C9 26.8459 9.21079 27.2966 9.45711 27.5429C9.70343 27.7892 10.1541 28 11 28H21C21.8459 28 22.2966 27.7892 22.5429 27.5429C22.6821 27.4037 22.81 27.1991 22.8949 26.8949L24.4005 28.4005Z" fill="#000000" class="bmwfcol"/><path d="M5.41436 4L29.4144 28H26.5859L2.58594 4H5.41436Z" fill="#000000" class="bmwfcol"/><title>mobile-phone-crossed-out_rg_48</title></svg>