<svg width="48" height="48" viewBox="0 0 32 32" xmlns="http://www.w3.org/2000/svg"><path d="M17.2051 13.0044C17.6804 12.5291 18.3224 12.299 18.9997 12.299C19.6769 12.299 20.319 12.5291 20.7943 13.0044C21.2696 13.4797 21.4997 14.1218 21.4997 14.799V16.8425C21.6628 16.8134 21.8301 16.799 21.9997 16.799C22.6769 16.799 23.319 17.0291 23.7943 17.5044C23.9556 17.6657 24.0887 17.8463 24.1941 18.0409C24.4507 17.9626 24.7222 17.924 24.9997 17.924C25.6769 17.924 26.319 18.1541 26.7943 18.6294C27.2696 19.1047 27.4997 19.7468 27.4997 20.424V23.0489C27.4997 25.0762 26.8196 26.8433 25.5568 28.106C24.294 29.3688 22.5269 30.0489 20.4997 30.0489C18.0136 30.0489 15.935 28.8547 14.8359 26.9497L11.3338 20.883L12.1996 20.383C13.1355 19.8426 14.1912 19.8514 15.1756 20.2311C15.6283 20.4057 16.0718 20.6595 16.4997 20.9804V14.799C16.4997 14.1218 16.7298 13.4797 17.2051 13.0044ZM24.4997 20.424L24.4997 20.649H22.4997V19.299C22.4997 19.0763 22.4298 18.9683 22.3801 18.9186C22.3304 18.8689 22.2224 18.799 21.9997 18.799C21.7769 18.799 21.669 18.8689 21.6193 18.9186C21.5697 18.9682 21.5 19.0758 21.4997 19.2976V20.049H19.4997V14.799C19.4997 14.5763 19.4298 14.4683 19.3801 14.4186C19.3303 14.3689 19.2224 14.299 18.9997 14.299C18.7769 14.299 18.669 14.3689 18.6193 14.4186C18.5696 14.4683 18.4997 14.5763 18.4997 14.799V24.0513H16.7354L16.3543 23.6002L16.3522 23.5978C15.6764 22.7929 15.0141 22.3124 14.4559 22.0971C14.408 22.0786 14.3612 22.0622 14.3154 22.0476L16.5682 25.9501C17.2841 27.1911 18.6748 28.0489 20.4997 28.0489C22.0724 28.0489 23.3054 27.529 24.1426 26.6918C24.9798 25.8546 25.4997 24.6217 25.4997 23.0489V20.424C25.4997 20.2012 25.4298 20.0933 25.3801 20.0436C25.3304 19.9939 25.2224 19.924 24.9997 19.924C24.7769 19.924 24.669 19.9939 24.6193 20.0436C24.5696 20.0933 24.4997 20.2012 24.4997 20.424Z" fill="#000000" class="bmwfcol"/><path d="M8.04289 3.04289C8.79657 2.28921 9.84586 2 11 2H21C22.1541 2 23.2034 2.28921 23.9571 3.04289C24.7108 3.79657 25 4.84586 25 6V15.8951C24.4066 15.3749 23.7131 15.0542 23 14.903V6C23 5.15414 22.7892 4.70343 22.5429 4.45711C22.2966 4.21079 21.8459 4 21 4H11C10.1541 4 9.70343 4.21079 9.45711 4.45711C9.21079 4.70343 9 5.15414 9 6V23.9991H10.823L11.9776 25.9991H9C9 26.8449 9.21079 27.2966 9.45711 27.5429C9.70343 27.7892 10.1541 28 11 28H13.1329C13.5813 28.7642 14.144 29.4353 14.7969 30H11C9.84586 30 8.79657 29.7108 8.04289 28.9571C7.28921 28.2034 7 27.1541 7 26V6C7 4.84586 7.28921 3.79657 8.04289 3.04289Z" fill="#000000" class="bmwfcol"/><title>mobile_phone_pointing_hand_rg_48</title></svg>