<svg width="48" height="48" viewBox="0 0 32 32" xmlns="http://www.w3.org/2000/svg"><path d="M13.5 6.1001C13.5 5.54781 13.9477 5.1001 14.5 5.1001H17.5C18.0523 5.1001 18.5 5.54781 18.5 6.1001C18.5 6.65238 18.0523 7.1001 17.5 7.1001H14.5C13.9477 7.1001 13.5 6.65238 13.5 6.1001Z" fill="#000000" class="bmwfcol"/><path d="M9.04289 3.04289C9.79657 2.28921 10.8459 2 12 2H20C21.1541 2 22.2034 2.28921 22.9571 3.04289C23.7108 3.79657 24 4.84586 24 6V26C24 27.1541 23.7108 28.2034 22.9571 28.9571C22.2034 29.7108 21.1541 30 20 30H12C10.8459 30 9.79657 29.7108 9.04289 28.9571C8.28921 28.2034 8 27.1541 8 26V6C8 4.84586 8.28921 3.79657 9.04289 3.04289ZM10.4571 4.45711C10.2108 4.70343 10 5.15414 10 6V26C10 26.8459 10.2108 27.2966 10.4571 27.5429C10.7034 27.7892 11.1541 28 12 28H20C20.8459 28 21.2966 27.7892 21.5429 27.5429C21.7892 27.2966 22 26.8459 22 26V6C22 5.15414 21.7892 4.70343 21.5429 4.45711C21.2966 4.21079 20.8459 4 20 4H12C11.1541 4 10.7034 4.21079 10.4571 4.45711Z" fill="#000000" class="bmwfcol"/><path d="M6 12.3986V10.189C5.52133 10.3525 5.01894 10.6165 4.57797 10.9571C3.77035 11.5811 3 12.5957 3 14.0002V18.0002C3 19.4048 3.77035 20.4193 4.57797 21.0433C5.01894 21.3839 5.52133 21.6479 6 21.8114V19.6018C5.93384 19.5589 5.86712 19.5119 5.80071 19.4606C5.31544 19.0857 5 18.6002 5 18.0002V14.0002C5 13.4002 5.31544 12.9147 5.80071 12.5398C5.86712 12.4885 5.93384 12.4415 6 12.3986Z" fill="#000000" class="bmwfcol"/><path d="M26 12.3986V10.189C26.4787 10.3525 26.9811 10.6165 27.422 10.9571C28.2297 11.5811 29 12.5957 29 14.0002V18.0002C29 19.4048 28.2297 20.4193 27.422 21.0433C26.9811 21.3839 26.4787 21.6479 26 21.8114V19.6018C26.0662 19.5589 26.1329 19.5119 26.1993 19.4606C26.6846 19.0857 27 18.6002 27 18.0002V14.0002C27 13.4002 26.6846 12.9147 26.1993 12.5398C26.1329 12.4885 26.0662 12.4415 26 12.3986Z" fill="#000000" class="bmwfcol"/><title>mobile_phone_holder_rg_48</title></svg>