<svg width="48" height="48" viewBox="0 0 32 32" xmlns="http://www.w3.org/2000/svg"><path d="M3.56039 5.55942C3.95856 5.16125 4.48408 4.99902 5 4.99902H27C27.5159 4.99902 28.0414 5.16125 28.4396 5.55942C28.8378 5.95759 29 6.4831 29 6.99902V15.6417C28.3821 15.2424 27.6915 15.0206 27 14.9495V6.99902H5V22.999H12.324L13.4786 24.999H5C4.48408 24.999 3.95856 24.8368 3.56039 24.4386C3.16222 24.0405 3 23.5149 3 22.999V6.99902C3 6.4831 3.16222 5.95759 3.56039 5.55942Z" fill="#000000" class="bmwfcol"/><path d="M14.6333 26.999H11V28.999H16.2967C15.644 28.4343 15.0815 27.7632 14.6333 26.999Z" fill="#000000" class="bmwfcol"/><path d="M20.5002 11.299C19.823 11.299 19.1809 11.5291 18.7056 12.0044C18.2303 12.4797 18.0002 13.1217 18.0002 13.799V19.9804C17.5724 19.6594 17.1289 19.4057 16.6761 19.231C15.6918 18.8514 14.636 18.8425 13.7002 19.383L12.8343 19.883L16.3365 25.9497C17.4356 27.8547 19.5142 29.0489 22.0002 29.0489C24.0275 29.0489 25.7946 28.3688 27.0573 27.106C28.3201 25.8432 29.0002 24.0762 29.0002 22.0489V19.424C29.0002 18.7467 28.7701 18.1046 28.2948 17.6294C27.8196 17.1541 27.1775 16.924 26.5002 16.924C26.2228 16.924 25.9513 16.9626 25.6947 17.0409C25.5893 16.8462 25.4562 16.6657 25.2948 16.5044C24.8196 16.0291 24.1775 15.799 23.5002 15.799C23.3307 15.799 23.1633 15.8134 23.0002 15.8425V13.799C23.0002 13.1217 22.7701 12.4797 22.2948 12.0044C21.8196 11.5291 21.1775 11.299 20.5002 11.299ZM26.1198 19.0436C26.1696 18.9939 26.2775 18.924 26.5002 18.924C26.723 18.924 26.8309 18.9939 26.8806 19.0436C26.9303 19.0933 27.0002 19.2012 27.0002 19.424V22.0489C27.0002 23.6217 26.4804 24.8546 25.6431 25.6918C24.8059 26.529 23.573 27.0489 22.0002 27.0489C20.1753 27.0489 18.7847 26.191 18.0687 24.95L15.8159 21.0476C15.8617 21.0621 15.9085 21.0786 15.9564 21.097C16.5146 21.3123 17.177 21.7929 17.8528 22.5978L17.8548 22.6002L18.236 23.0513H20.0002V13.799C20.0002 13.5762 20.0701 13.4683 20.1198 13.4186C20.1696 13.3689 20.2775 13.299 20.5002 13.299C20.723 13.299 20.8309 13.3689 20.8806 13.4186C20.9303 13.4683 21.0002 13.5762 21.0002 13.799V19.0489H23.0002V18.2975C23.0005 18.0758 23.0702 17.9682 23.1198 17.9186C23.1696 17.8689 23.2775 17.799 23.5002 17.799C23.723 17.799 23.8309 17.8689 23.8806 17.9186C23.9304 17.9683 24.0002 18.0762 24.0002 18.299V19.6489H26.0002L26.0002 19.424C26.0002 19.2012 26.0701 19.0933 26.1198 19.0436Z" fill="#000000" class="bmwfcol"/><path d="M6 8H6.99998C8.71848 8 10.9812 8.16337 12.8745 8.85017C14.7694 9.53759 16.564 10.8703 16.694 13.3135C16.7484 14.3362 16.4308 15.4106 15.7088 16.226C15.5008 16.461 15.2637 16.6692 15 16.8457V18H13V15.8392C13 15.3245 12.7889 14.9507 12.3422 14.5129C12.2361 14.4089 12.1226 14.3071 12 14.2023V11.5835C12.2294 11.8029 12.4832 12.0117 12.7657 12.2413L12.8181 12.2839C13.1124 12.523 13.4435 12.792 13.7419 13.0844C14.0628 13.3988 14.3697 13.7634 14.6 14.1996C14.677 13.9538 14.7111 13.6883 14.6968 13.4198C14.6292 12.1481 13.7559 11.2975 12.1924 10.7303C11.2092 10.3736 10.0598 10.1769 8.9342 10.0799C9.45645 10.8545 10.0341 11.9074 10.341 13.1217C10.4898 13.7108 10.6614 14.2853 10.9928 14.7303C11.208 15.0193 11.5084 15.2784 12 15.4098V17.4473C10.7923 17.2719 9.95176 16.6809 9.38874 15.9249C8.79515 15.1278 8.5495 14.1957 8.40192 13.6117C8.14653 12.6009 7.62591 11.6882 7.14705 11.0114C6.91058 10.6772 6.69155 10.4106 6.53379 10.2299C6.4551 10.1397 6.39219 10.0716 6.35068 10.0276C6.32994 10.0057 6.31459 9.98983 6.30534 9.98038L6.29633 9.97122L6.29515 9.97005L6 9.67804V8Z" fill="#000000" class="bmwfcol"/><title>monitor_leaf_pointing_hand_rg_48</title></svg>