<svg width="48" height="48" viewBox="0 0 32 32" xmlns="http://www.w3.org/2000/svg"><path d="M5 4.99902C4.48408 4.99902 3.95856 5.16125 3.56039 5.55942C3.16222 5.95759 3 6.4831 3 6.99902V22.999C3 23.5149 3.16222 24.0405 3.56039 24.4386C3.95856 24.8368 4.48408 24.999 5 24.999H13.4786L12.324 22.999H5V6.99902H27V14.9495C27.6915 15.0206 28.3821 15.2424 29 15.6417V6.99902C29 6.4831 28.8378 5.95759 28.4396 5.55942C28.0414 5.16125 27.5159 4.99902 27 4.99902H5Z" fill="#000000" class="bmwfcol"/><path d="M14.6333 26.999C15.0815 27.7632 15.644 28.4343 16.2967 28.999H11V26.999H14.6333Z" fill="#000000" class="bmwfcol"/><path d="M18 8.82451C17.9668 8.82423 17.9334 8.82408 17.8998 8.82408L17.8055 8.82407C16.838 8.82378 16.0364 8.82355 15.222 9.0973C14.4362 9.36146 13.7004 9.85502 12.7311 10.6528C10.9908 10.805 10.0007 10.8945 9.28834 11.0529C8.47404 11.2339 7.99403 11.5111 7.27794 11.9246L6.77492 12.215L6.77473 15.9109L7.46036 16.0946C8.01031 16.2419 8.34593 16.3265 8.59051 16.3715C8.81134 16.4122 8.96344 16.4214 9.10611 16.4235C9.52707 17.1417 10.3071 17.6241 11.1998 17.6241C12.0922 17.6241 12.872 17.142 13.2931 16.4241H16.0004V14.799C16.0004 14.7242 16.0021 14.6492 16.0056 14.5741H13.5435C13.2678 13.5377 12.323 12.7741 11.1998 12.7741C10.0888 12.7741 9.15231 13.5212 8.8653 14.5404C8.80214 14.5274 8.72447 14.5098 8.6248 14.4855L8.62486 13.2865C9.0483 13.0516 9.29369 12.9468 9.68972 12.8588C10.2891 12.7256 11.1872 12.6448 13.1804 12.4706L13.471 12.4452L13.6945 12.2577C14.7564 11.3666 15.3185 11.0166 15.8115 10.8509C16.3095 10.6835 16.8098 10.6741 17.8998 10.6741C17.9336 10.6741 17.967 10.6743 18 10.6746V8.82451ZM11.1998 14.6241C11.5173 14.6241 11.7748 14.8815 11.7748 15.1991C11.7748 15.5166 11.5173 15.7741 11.1998 15.7741C10.8822 15.7741 10.6248 15.5166 10.6248 15.1991C10.6248 14.8815 10.8822 14.6241 11.1998 14.6241Z" fill="#000000" class="bmwfcol"/><path d="M18.7056 12.0044C19.1809 11.5291 19.823 11.299 20.5002 11.299C21.1775 11.299 21.8196 11.5291 22.2948 12.0044C22.7701 12.4797 23.0002 13.1217 23.0002 13.799V15.8425C23.1633 15.8134 23.3307 15.799 23.5002 15.799C24.1775 15.799 24.8196 16.0291 25.2948 16.5044C25.4562 16.6657 25.5893 16.8462 25.6947 17.0409C25.9513 16.9626 26.2228 16.924 26.5002 16.924C27.1775 16.924 27.8196 17.1541 28.2948 17.6294C28.7701 18.1046 29.0002 18.7467 29.0002 19.424V22.0489C29.0002 24.0762 28.3201 25.8432 27.0573 27.106C25.7946 28.3688 24.0275 29.0489 22.0002 29.0489C19.5142 29.0489 17.4356 27.8547 16.3365 25.9497C16.3364 25.9496 16.3365 25.9498 16.3365 25.9497L12.8343 19.883L13.7002 19.383C14.636 18.8425 15.6918 18.8514 16.6761 19.231C17.1289 19.4057 17.5724 19.6594 18.0002 19.9804V13.799C18.0002 13.1217 18.2303 12.4797 18.7056 12.0044ZM26.0002 19.424L26.0002 19.6489H24.0002V18.299C24.0002 18.0762 23.9304 17.9683 23.8806 17.9186C23.8309 17.8689 23.723 17.799 23.5002 17.799C23.2775 17.799 23.1696 17.8689 23.1198 17.9186C23.0702 17.9682 23.0005 18.0758 23.0002 18.2975C23.0002 18.298 23.0002 18.2985 23.0002 18.299V19.0489H21.0002V18.299C21.0002 18.298 21.0002 18.297 21.0002 18.296V13.799C21.0002 13.5762 20.9303 13.4683 20.8806 13.4186C20.8309 13.3689 20.723 13.299 20.5002 13.299C20.2775 13.299 20.1696 13.3689 20.1198 13.4186C20.0701 13.4683 20.0002 13.5762 20.0002 13.799V23.0513H18.236L17.8548 22.6002L17.8528 22.5978C17.177 21.7929 16.5146 21.3123 15.9564 21.097C15.9085 21.0786 15.8617 21.0621 15.8159 21.0476L18.0687 24.95C18.7847 26.191 20.1753 27.0489 22.0002 27.0489C23.573 27.0489 24.8059 26.529 25.6431 25.6918C26.4804 24.8546 27.0002 23.6217 27.0002 22.0489V19.424C27.0002 19.2012 26.9303 19.0933 26.8806 19.0436C26.8309 18.9939 26.723 18.924 26.5002 18.924C26.2775 18.924 26.1696 18.9939 26.1198 19.0436C26.0701 19.0933 26.0002 19.2012 26.0002 19.424Z" fill="#000000" class="bmwfcol"/><title>monitor_car_pointing_hand_rg_48</title></svg>