<svg width="48" height="48" viewBox="0 0 32 32" xmlns="http://www.w3.org/2000/svg"><path d="M3.55942 5.56039C3.95759 5.16222 4.4831 5 4.99902 5H26.999C27.5149 5 28.0405 5.16222 28.4386 5.56039C28.8368 5.95856 28.999 6.48408 28.999 7V13.8691C28.7338 13.4725 28.4286 13.0991 28.0832 12.7537C27.7469 12.4174 27.384 12.1192 26.999 11.8589V7H4.99902V23H15.5892C15.8738 23.4455 16.2074 23.8632 16.5906 24.2463C16.8677 24.5234 17.1628 24.7746 17.4734 25H4.99902C4.4831 25 3.95759 24.8378 3.55942 24.4396C3.16125 24.0414 2.99902 23.5159 2.99902 23V7C2.99902 6.48408 3.16125 5.95856 3.55942 5.56039Z" fill="#000000" class="bmwfcol"/><path d="M18.0048 14.1679C19.0926 13.0801 20.6097 12.5 22.3369 12.5C24.0642 12.5 25.5812 13.0801 26.669 14.1679C27.7568 15.2557 28.3369 16.7728 28.3369 18.5C28.3369 19.8065 27.9539 21.0237 27.2668 22.0157L30.0441 24.793L28.6299 26.2072L25.8571 23.4344C24.8994 24.105 23.703 24.5 22.3369 24.5C20.6097 24.5 19.0926 23.9199 18.0048 22.8321C16.917 21.7443 16.3369 20.2272 16.3369 18.5C16.3369 16.7728 16.917 15.2557 18.0048 14.1679ZM19.419 15.5821C18.7568 16.2443 18.3369 17.2272 18.3369 18.5C18.3369 19.7728 18.7568 20.7557 19.419 21.4179C20.0812 22.0801 21.0642 22.5 22.3369 22.5C24.7533 22.5 26.3369 20.741 26.3369 18.5C26.3369 17.2272 25.917 16.2443 25.2548 15.5821C24.5926 14.9199 23.6097 14.5 22.3369 14.5C21.0642 14.5 20.0812 14.9199 19.419 15.5821Z" fill="#000000" class="bmwfcol"/><path d="M10.999 29H20.999V27H10.999V29Z" fill="#000000" class="bmwfcol"/><title>monitor_with_magnifying_glass_rg_48</title></svg>