<svg width="48" height="48" viewBox="0 0 32 32" xmlns="http://www.w3.org/2000/svg"><path d="M16.1017 4.21948C15.3359 3.83658 14.3392 3.625 13.286 3.625C12.2328 3.625 11.2361 3.83658 10.4703 4.21948C9.75685 4.57621 8.98242 5.23092 8.98242 6.21429V6.88463C8.2577 6.57809 7.36547 6.41064 6.42857 6.41064C5.37541 6.41064 4.3787 6.62222 3.61289 7.00512C2.89953 7.36181 2.12522 8.01638 2.125 8.99951V11.7852C2.125 12.7686 2.89943 13.4233 3.61289 13.78C4.3787 14.1629 5.37541 14.3745 6.42857 14.3745C7.48173 14.3745 8.47845 14.1629 9.24425 13.78C9.45021 13.6771 9.66126 13.5492 9.85728 13.3959C10.0533 13.5492 10.2644 13.6771 10.4703 13.78C11.2361 14.1629 12.2328 14.3745 13.286 14.3745C14.3392 14.3745 15.3359 14.1629 16.1017 13.78C16.8151 13.4233 17.5896 12.7686 17.5896 11.7852V6.21436C17.5896 5.23099 16.8151 4.57621 16.1017 4.21948ZM10.7326 6.2154L10.7324 6.21432L10.7326 6.21318C10.7326 6.21318 10.7339 6.20758 10.7369 6.20022C10.743 6.18527 10.7585 6.15513 10.7949 6.11212C10.8711 6.02205 11.0156 5.90338 11.2529 5.78473C11.728 5.54718 12.4456 5.375 13.286 5.375C14.1264 5.375 14.844 5.54718 15.319 5.78473C15.5564 5.90338 15.7009 6.02205 15.7771 6.11212C15.8135 6.15513 15.829 6.18527 15.8351 6.20022C15.8381 6.20758 15.8394 6.21318 15.8394 6.21318L15.8396 6.21436L15.8394 6.2154C15.8394 6.2154 15.8381 6.221 15.8351 6.22835C15.829 6.24331 15.8135 6.27344 15.7771 6.31645C15.7009 6.40652 15.5564 6.52519 15.319 6.64385C14.844 6.88139 14.1264 7.05357 13.286 7.05357C12.4456 7.05357 11.728 6.88139 11.2529 6.64385C11.0156 6.52519 10.8711 6.40652 10.7949 6.31645C10.7585 6.27344 10.743 6.24331 10.7369 6.22835C10.7339 6.221 10.7326 6.2154 10.7326 6.2154ZM13.286 8.80357C14.2228 8.80357 15.1149 8.63617 15.8396 8.3297V9.00007L15.8394 9.00118C15.8394 9.00118 15.8381 9.00678 15.8351 9.01414C15.829 9.02909 15.8135 9.05923 15.7771 9.10223C15.7009 9.19231 15.5564 9.31098 15.319 9.42963C14.844 9.66718 14.1264 9.83935 13.286 9.83935C12.4456 9.83935 11.728 9.66718 11.2529 9.42963C11.0156 9.31098 10.8711 9.19231 10.7949 9.10223C10.7585 9.05923 10.743 9.02909 10.7369 9.01414C10.7339 9.00678 10.7326 9.00118 10.7326 9.00118L10.7324 8.99951V8.3297C11.4571 8.63617 12.3492 8.80357 13.286 8.80357ZM13.286 11.5894C14.2228 11.5894 15.1149 11.422 15.8396 11.1155V11.7852L15.8394 11.7863C15.8394 11.7863 15.8381 11.7919 15.8351 11.7993C15.829 11.8142 15.8135 11.8444 15.7771 11.8874C15.7009 11.9775 15.5564 12.0961 15.319 12.2148C14.844 12.4523 14.1264 12.6245 13.286 12.6245C12.4456 12.6245 11.728 12.4523 11.2529 12.2148C11.0156 12.0961 10.8711 11.9775 10.7949 11.8874C10.7585 11.8444 10.743 11.8142 10.7369 11.7993C10.7339 11.7919 10.7326 11.7863 10.7326 11.7863L10.7324 11.7852V11.1155C11.4571 11.422 12.3492 11.5894 13.286 11.5894ZM3.87519 8.99882C3.87519 8.99882 3.87645 8.99322 3.87946 8.98586C3.88558 8.97091 3.90109 8.94077 3.93747 8.89776C4.01366 8.80769 4.15821 8.68902 4.39552 8.57037C4.87061 8.33282 5.58818 8.16064 6.42857 8.16064C7.26896 8.16064 7.98653 8.33282 8.46163 8.57037C8.69893 8.68902 8.84348 8.80769 8.91967 8.89776C8.95605 8.94077 8.97156 8.97091 8.97768 8.98586C8.98069 8.99322 8.98195 8.99882 8.98195 8.99882L8.98214 8.99988L8.98195 9.00104C8.98195 9.00104 8.98069 9.00664 8.97768 9.014C8.97156 9.02895 8.95605 9.05909 8.91967 9.1021C8.84348 9.19217 8.69893 9.31084 8.46163 9.42949C7.98653 9.66704 7.26896 9.83922 6.42857 9.83922C5.58818 9.83922 4.87061 9.66704 4.39552 9.42949C4.15821 9.31084 4.01366 9.19217 3.93747 9.1021C3.90109 9.05909 3.88558 9.02895 3.87946 9.014C3.87645 9.00664 3.87519 9.00104 3.87519 9.00104L3.875 8.99989L3.87519 8.99882ZM3.875 11.7852V11.1153C4.59968 11.4218 5.4918 11.5892 6.42857 11.5892C7.36535 11.5892 8.25747 11.4218 8.98214 11.1153V11.7852L8.98195 11.7863C8.98195 11.7863 8.98069 11.7919 8.97768 11.7993C8.97156 11.8142 8.95605 11.8444 8.91967 11.8874C8.84348 11.9775 8.69893 12.0961 8.46163 12.2148C7.98653 12.4523 7.26896 12.6245 6.42857 12.6245C5.58818 12.6245 4.87061 12.4523 4.39552 12.2148C4.15821 12.0961 4.01366 11.9775 3.93747 11.8874C3.90109 11.8444 3.88558 11.8142 3.87946 11.7993C3.87645 11.7919 3.87519 11.7863 3.87519 11.7863L3.875 11.7852Z" fill="#000000" class="bmwfcol"/><path d="M19.5 5V7H27V15.4031C27.7048 15.483 28.401 15.7358 29 16.1924V7C29 6.48408 28.8378 5.95856 28.4396 5.56039C28.0414 5.16222 27.5159 5 27 5H19.5Z" fill="#000000" class="bmwfcol"/><path d="M3 23V16H5V23H12.8436L13.9982 25H5C4.48408 25 3.95856 24.8378 3.56039 24.4396C3.16222 24.0414 3 23.5159 3 23Z" fill="#000000" class="bmwfcol"/><path d="M17.0143 29C16.2851 28.4549 15.6569 27.7822 15.1604 27H11V29H17.0143Z" fill="#000000" class="bmwfcol"/><path d="M18.7053 12.0052C19.1806 11.5299 19.8227 11.2998 20.4999 11.2998C21.1772 11.2998 21.8192 11.5299 22.2945 12.0052C22.7698 12.4805 22.9999 13.1226 22.9999 13.7998V15.8433C23.163 15.8142 23.3304 15.7998 23.4999 15.7998C24.1772 15.7998 24.8192 16.0299 25.2945 16.5052C25.4559 16.6665 25.5889 16.8471 25.6944 17.0417C25.9509 16.9634 26.2225 16.9248 26.4999 16.9248C27.1772 16.9248 27.8192 17.1549 28.2945 17.6302C28.7698 18.1055 28.9999 18.7475 28.9999 19.4248V22.0497C28.9999 24.077 28.3198 25.844 27.057 27.1068C25.7942 28.3696 24.0272 29.0497 21.9999 29.0497C19.5138 29.0497 17.4353 27.8555 16.3362 25.9505L12.834 19.8838L13.6998 19.3838C14.6357 18.8433 15.6915 18.8522 16.6758 19.2319C17.1286 19.4065 17.5721 19.6603 17.9999 19.9812V13.7998C17.9999 13.1226 18.23 12.4805 18.7053 12.0052ZM25.9999 19.4248V19.6498H23.9999V18.2998C23.9999 18.077 23.93 17.9691 23.8803 17.9194C23.8306 17.8697 23.7227 17.7998 23.4999 17.7998C23.2772 17.7998 23.1692 17.8697 23.1195 17.9194C23.0699 17.969 23.0002 18.0766 22.9999 18.2984L22.9999 18.2998L22.9999 19.0498H20.9999V13.7998C20.9999 13.5771 20.93 13.4691 20.8803 13.4194C20.8306 13.3697 20.7227 13.2998 20.4999 13.2998C20.2772 13.2998 20.1692 13.3697 20.1195 13.4194C20.0698 13.4691 19.9999 13.5771 19.9999 13.7998V23.0521H18.2357L17.8545 22.601L17.8525 22.5986C17.1767 21.7937 16.5143 21.3132 15.9561 21.0979C15.9082 21.0794 15.8614 21.0629 15.8156 21.0484L18.0684 24.9508C18.7843 26.1919 20.175 27.0497 21.9999 27.0497C23.5727 27.0497 24.8056 26.5298 25.6428 25.6926C26.48 24.8554 26.9999 23.6225 26.9999 22.0497V19.4248C26.9999 19.202 26.93 19.0941 26.8803 19.0444C26.8306 18.9947 26.7227 18.9248 26.4999 18.9248C26.2772 18.9248 26.1692 18.9947 26.1195 19.0444C26.0698 19.0941 25.9999 19.202 25.9999 19.4248Z" fill="#000000" class="bmwfcol"/><title>monitor_coins_pointing_hand_rg_48</title></svg>