<svg width="48" height="48" viewBox="0 0 32 32" xmlns="http://www.w3.org/2000/svg"><path d="M5 4.99908C4.48408 4.99908 3.95856 5.16131 3.56039 5.55948C3.16222 5.95765 3 6.48316 3 6.99908V22.9991C3 23.515 3.16222 24.0405 3.56039 24.4387C3.95856 24.8369 4.48408 24.9991 5 24.9991H13.4782L12.3237 22.9991H5V6.99908H27V14.9496C27.6915 15.0207 28.3821 15.2425 29 15.642V6.99908C29 6.48316 28.8378 5.95765 28.4396 5.55948C28.0414 5.16131 27.5159 4.99908 27 4.99908H5Z" fill="#000000" class="bmwfcol"/><path d="M11 26.9991H14.633C15.0812 27.7633 15.6438 28.4343 16.2964 28.9991H11V26.9991Z" fill="#000000" class="bmwfcol"/><path d="M20.5002 11.374C19.84 11.374 19.2179 11.5981 18.7586 12.0574C18.2993 12.5168 18.0752 13.1388 18.0752 13.799V20.1325C17.6152 19.7713 17.137 19.4892 16.6491 19.301C15.6814 18.9278 14.65 18.921 13.7376 19.4479L12.9367 19.9104L16.4014 25.9122C17.4861 27.7923 19.5389 28.9739 22.0002 28.9739C24.0104 28.9739 25.7575 28.2998 27.0043 27.053C28.2511 25.8062 28.9252 24.0591 28.9252 22.0489V19.424C28.9252 18.7638 28.7011 18.1417 28.2418 17.6824C27.7824 17.2231 27.1604 16.999 26.5002 16.999C26.2082 16.999 25.9237 17.0428 25.6574 17.1314C25.5511 16.9218 25.4127 16.7284 25.2418 16.5574C24.7825 16.0981 24.1604 15.874 23.5002 15.874C23.3041 15.874 23.1113 15.8938 22.9252 15.9336V13.799C22.9252 13.1388 22.7011 12.5168 22.2418 12.0574C21.7824 11.5981 21.1604 11.374 20.5002 11.374ZM25.9252 19.649V19.424C25.9252 19.1842 26.0011 19.0562 26.0668 18.9906C26.1325 18.9249 26.2604 18.849 26.5002 18.849C26.74 18.849 26.8679 18.9249 26.9336 18.9906C26.9993 19.0562 27.0752 19.1842 27.0752 19.424V22.0489C27.0752 23.6387 26.5493 24.8917 25.6961 25.7448C24.8429 26.598 23.59 27.1239 22.0002 27.1239C20.1505 27.1239 18.7339 26.2532 18.0036 24.9873L15.66 20.9275C15.7628 20.9507 15.8705 20.9835 15.9834 21.0271C16.5568 21.2483 17.229 21.7382 17.9102 22.5496L17.9121 22.5518L18.2708 22.9763H19.9252V13.799C19.9252 13.5592 20.0011 13.4313 20.0668 13.3656C20.1324 13.2999 20.2604 13.224 20.5002 13.224C20.74 13.224 20.8679 13.2999 20.9336 13.3656C20.9993 13.4313 21.0752 13.5592 21.0752 13.799V19.049H22.9252V18.2969C22.9256 18.0585 23.0013 17.9311 23.0668 17.8656C23.1324 17.7999 23.2604 17.724 23.5002 17.724C23.74 17.724 23.8679 17.7999 23.9336 17.8656C23.9993 17.9312 24.0752 18.0592 24.0752 18.299V19.649H25.9252Z" fill="#000000" class="bmwfcol"/><title>monitor_pointing_hand_rg_48</title></svg>