<svg width="48" height="48" viewBox="0 0 32 32" xmlns="http://www.w3.org/2000/svg"><path d="M4 15.9991V22.9991C4 23.515 4.16222 24.0405 4.56039 24.4387C4.95856 24.8369 5.48408 24.9991 6 24.9991H28C28.5159 24.9991 29.0414 24.8369 29.4396 24.4387C29.8378 24.0405 30 23.515 30 22.9991V6.99908C30 6.48316 29.8378 5.95764 29.4396 5.55947C29.0414 5.1613 28.5159 4.99908 28 4.99908H15.7273L15.182 6.99908H28V22.9991H6V15.9991H4Z" fill="#000000" class="bmwfcol"/><path d="M22 28.9991H12V26.9991H22V28.9991Z" fill="#000000" class="bmwfcol"/><path d="M18.8997 13.3236L18.8055 13.3236C17.838 13.3233 17.0363 13.3231 16.222 13.5968C15.4362 13.861 14.7003 14.3545 13.731 15.1523C11.9907 15.3045 11.0007 15.3941 10.2883 15.5524C9.47399 15.7334 8.99398 16.0106 8.27789 16.4241L7.77487 16.7145L7.77468 20.4104L8.46031 20.5941C9.01027 20.7415 9.34588 20.826 9.59046 20.8711C9.81128 20.9117 9.96338 20.9209 10.106 20.923C10.527 21.6413 11.307 22.1236 12.1997 22.1236C13.0921 22.1236 13.8719 21.6415 14.293 20.9236H19.6065C20.0275 21.6415 20.8073 22.1236 21.6997 22.1236C22.5932 22.1236 23.3739 21.6404 23.7945 20.921C24.073 20.9145 24.3455 20.8925 24.6282 20.8184C25.049 20.7082 25.4467 20.4974 25.9623 20.1997L26.4249 19.9326L26.4247 17.4654L26.1538 17.1945C25.9022 16.9429 25.8448 16.8206 25.8336 16.7926L25.8323 16.79C25.8288 16.7831 25.8247 16.775 25.8247 16.6486L25.8247 15.201L24.1247 15.0522L24.1233 15.0514C23.2439 14.5419 22.4977 14.1096 21.7334 13.813C20.8805 13.4821 20.0221 13.3236 18.8997 13.3236ZM24.0379 19.053C23.7552 18.0271 22.8155 17.2736 21.6997 17.2736C20.5765 17.2736 19.6317 18.0372 19.356 19.0736H14.5434C14.2677 18.0372 13.3229 17.2736 12.1997 17.2736C11.0887 17.2736 10.1522 18.0207 9.86522 19.0399C9.80206 19.0269 9.7244 19.0093 9.62476 18.985L9.62482 17.786C10.0482 17.5511 10.2936 17.4463 10.6897 17.3583C11.289 17.2251 12.1872 17.1443 14.1804 16.9701L14.471 16.9447L14.6944 16.7572C15.7564 15.8661 16.3185 15.5161 16.8115 15.3504C17.3095 15.183 17.8097 15.1736 18.8997 15.1736C19.8225 15.1736 20.4504 15.2996 21.0642 15.5378C21.6901 15.7806 22.317 16.1435 23.2606 16.6897L23.5538 16.8594L23.9817 16.8968C23.9938 17.0557 24.0267 17.2567 24.1159 17.4796C24.2153 17.7282 24.368 17.9669 24.5748 18.2104L24.5748 18.8536C24.3711 18.959 24.2553 19.0037 24.1595 19.0288C24.1208 19.0389 24.0823 19.0468 24.0379 19.053ZM12.1997 19.1236C12.5172 19.1236 12.7747 19.381 12.7747 19.6986C12.7747 20.0161 12.5172 20.2736 12.1997 20.2736C11.8821 20.2736 11.6247 20.0161 11.6247 19.6986C11.6247 19.381 11.8821 19.1236 12.1997 19.1236ZM21.6997 19.1236C22.0173 19.1236 22.2747 19.381 22.2747 19.6986C22.2747 20.0161 22.0173 20.2736 21.6997 20.2736C21.3822 20.2736 21.1247 20.0161 21.1247 19.6986C21.1247 19.381 21.3822 19.1236 21.6997 19.1236Z" fill="#000000" class="bmwfcol"/><path d="M5.35034 11.0331C4.52191 11.0331 3.85034 11.7047 3.85034 12.5331C3.85034 13.3616 4.52191 14.0331 5.35034 14.0331C6.17877 14.0331 6.85034 13.3616 6.85034 12.5331C6.85034 11.7047 6.17877 11.0331 5.35034 11.0331Z" fill="#000000" class="bmwfcol"/><path d="M10.6772 11.0331C9.84882 11.0331 9.17725 11.7047 9.17725 12.5331C9.17725 13.3616 9.84882 14.0331 10.6772 14.0331C11.5057 14.0331 12.1772 13.3616 12.1772 12.5331C12.1772 11.7047 11.5057 11.0331 10.6772 11.0331Z" fill="#000000" class="bmwfcol"/><path d="M2 3.57422V1.56354C2.7769 1.63119 3.38879 1.78757 3.85479 2.09075C4.58481 2.56571 4.77496 3.28573 4.88847 3.71554L4.90647 3.78332L4.90808 3.78932L4.96424 4.00375H14.0944L13.7566 5.26289C13.4543 6.38967 13.2086 7.29226 12.9518 7.98144C12.6961 8.66799 12.383 9.27866 11.8692 9.72125C11.3344 10.182 10.7063 10.3561 10.0497 10.4321C9.46413 10.4999 8.74229 10.4995 7.90618 10.4991L4.5985 10.4991L2.97418 4.29931C2.8438 3.81445 2.80704 3.79271 2.77173 3.77184L2.7641 3.76718C2.67953 3.71216 2.47505 3.62848 2 3.57422ZM6.14201 8.49908L7.83529 8.49909C8.74557 8.4992 9.35422 8.49927 9.81972 8.44539C10.2815 8.39194 10.4567 8.29828 10.5639 8.20596C10.6922 8.09545 10.86 7.86765 11.0776 7.28328C11.2049 6.94156 11.3335 6.52426 11.4808 6.00375H5.48824L6.14201 8.49908Z" fill="#000000" class="bmwfcol"/><title>monitor_car_shopping_cart_rg_48</title></svg>