<svg width="48" height="48" viewBox="0 0 32 32" xmlns="http://www.w3.org/2000/svg"><path d="M10.9875 4H13.668L13.3465 5.24926C13.1205 6.12737 13 7.04888 13 7.99999C13 14.0751 17.9249 19 24 19C24.9511 19 25.8726 18.8795 26.7507 18.6535L28 18.332V21.0125C25.994 25.5997 21.3309 29 16 29C8.8203 29 3 23.1797 3 16C3 10.6691 6.40023 6.00599 10.9875 4ZM11.1333 6.13214C7.49766 7.92876 5 11.6737 5 16C5 22.0751 9.92487 27 16 27C20.3263 27 24.0712 24.5023 25.8678 20.8667C25.2575 20.9546 24.6338 21 24 21C16.8203 21 11 15.1797 11 7.99999C11 7.36616 11.0454 6.74248 11.1333 6.13214Z" fill="#000000" class="bmwfcol"/><title>moon_rg_48</title></svg>