<svg width="48" height="48" viewBox="0 0 32 32" xmlns="http://www.w3.org/2000/svg"><path d="M16 22.5C16.8284 22.5 17.5 23.1716 17.5 24C17.5 24.8284 16.8284 25.5 16 25.5C15.1716 25.5 14.5 24.8284 14.5 24C14.5 23.1716 15.1716 22.5 16 22.5Z" fill="#000000" class="bmwfcol"/><path d="M16 14.5C16.8284 14.5 17.5 15.1716 17.5 16C17.5 16.8284 16.8284 17.5 16 17.5C15.1716 17.5 14.5 16.8284 14.5 16C14.5 15.1716 15.1716 14.5 16 14.5Z" fill="#000000" class="bmwfcol"/><path d="M16 6.5C16.8284 6.5 17.5 7.17157 17.5 8C17.5 8.82843 16.8284 9.5 16 9.5C15.1716 9.5 14.5 8.82843 14.5 8C14.5 7.17157 15.1716 6.5 16 6.5Z" fill="#000000" class="bmwfcol"/><title>more_vertical_rg_48</title></svg>