<svg width="48" height="48" viewBox="0 0 32 32" xmlns="http://www.w3.org/2000/svg"><path d="M3.99852 13.4461V15.4758C5.11665 15.6652 6.16269 15.8105 6.82926 15.8105C7.25301 15.8105 7.69364 15.7835 8.10384 15.7025C8.50271 15.6237 8.95083 15.4792 9.32428 15.1901C9.586 14.9874 9.83243 14.7332 10.0082 14.4003C10.1869 14.0619 10.2624 13.6994 10.2624 13.3256C10.2624 12.7816 10.1312 12.2145 9.73334 11.7704C9.84544 11.6372 9.94693 11.5137 10.0243 11.4144C10.1629 11.2367 10.3251 11.0155 10.4421 10.7435C10.5677 10.4514 10.62 10.1536 10.62 9.83152C10.62 9.18513 10.3251 8.44648 9.69065 8.04504C8.86033 7.51964 7.66879 6.93037 6.62354 6.45003C6.38571 6.34073 6.23121 6.26808 6.12174 6.2133C5.92684 6.11578 5.72878 5.97833 5.72757 5.73924C5.7255 5.46694 5.98085 5.43027 6.21214 5.39408C6.44136 5.35822 6.71064 5.34863 7.02776 5.34863C7.36744 5.34863 8.18818 5.41076 9.99852 5.77354V3.73534C8.38958 3.42639 7.5192 3.34863 7.02776 3.34863C6.69055 3.34863 6.29278 3.35713 5.90296 3.41812C5.51547 3.47876 5.0685 3.60071 4.66812 3.87363C3.95763 4.35795 3.72768 5.07128 3.72768 5.76074C3.72768 6.34861 3.95418 6.85622 4.23865 7.22567C4.10325 7.38847 3.97965 7.54385 3.88991 7.66821C3.65194 7.99798 3.35316 8.49633 3.36981 9.19872C3.38344 9.77425 3.59213 10.4375 4.12072 10.8627C4.59222 11.2419 4.94583 11.4397 5.48507 11.6959C6.24432 12.0566 7.03012 12.3943 7.75957 12.8136C7.87814 12.8817 7.97425 12.941 8.07417 13.0025C8.23304 13.1005 8.26237 13.1302 8.26237 13.3256C8.26237 13.6099 7.9404 13.6962 7.71638 13.7404C7.47872 13.7873 7.17853 13.8105 6.82926 13.8105C6.27204 13.8105 5.23275 13.6614 3.99852 13.4461ZM5.92389 8.32983C6.90087 8.78239 7.91235 9.2903 8.59251 9.71702C8.62688 9.78043 8.63487 9.88627 8.60532 9.95221L8.60482 9.95333C8.48613 10.2293 8.20907 10.4777 8.0171 10.7013C7.78642 10.5907 7.55287 10.4765 7.31138 10.3583C6.9893 10.2007 6.66717 10.0433 6.3433 9.8894C5.90601 9.68165 5.69847 9.56222 5.40194 9.32642C5.32035 9.14323 5.40591 8.98519 5.51173 8.83854C5.59945 8.71699 5.75515 8.5268 5.92389 8.32983Z" fill="#000000" class="bmwfcol"/><path d="M18.8847 15C20.4752 15.0002 22.0353 15.2011 23.5249 15.7791C24.9331 16.3254 26.2362 17.1138 27.5392 17.8685L29.998 18.0836L29.9981 20C29.9981 20.6995 30.5334 21.1211 30.998 21.5858L30.9984 24.5773C29.8014 25.2684 28.5845 25.9601 27.1635 25.9952C26.6028 27.1803 25.3961 28 23.998 28C22.6019 28 21.3966 27.1825 20.8349 26H10.1612C9.59949 27.1825 8.39424 28 6.99805 28C5.58601 28 4.36928 27.1638 3.816 25.9596C2.85899 25.827 1.92855 25.52 0.998047 25.2707L0.998321 20.4226C2.20417 19.7264 3.38698 19.0076 4.76323 18.7018C5.93059 18.4423 7.57621 18.2954 10.5987 18.0311C12.2687 16.6468 13.4612 15.8462 14.7078 15.4271C15.9795 14.9996 17.2342 14.9998 18.8847 15ZM27.4595 23.9791C28.0195 23.9347 28.5116 23.6836 28.9982 23.4165L28.9981 22.3995C28.3411 21.6705 27.9981 20.9009 27.9981 19.9163L26.922 19.8222C25.581 19.0461 24.2505 18.2058 22.8015 17.6436C21.7084 17.2196 20.5944 17 18.9981 17C17.2048 17 16.2754 17.0102 15.345 17.3229C13.8426 17.828 12.5923 18.9679 11.3995 19.9688C9.34473 20.1484 7.21689 20.2052 5.19715 20.6541C4.37888 20.836 3.89555 21.0682 2.99826 21.5788L2.99813 23.733C3.2221 23.7907 3.40375 23.8358 3.55438 23.8712C3.8506 22.2383 5.27971 21 6.99805 21C8.76129 21 10.22 22.3039 10.4626 24H20.5335C20.7761 22.3039 22.2348 21 23.998 21C25.754 21 27.208 22.2931 27.4595 23.9791ZM5.49805 24.5C5.49805 25.3284 6.16962 26 6.99805 26C7.82647 26 8.49805 25.3284 8.49805 24.5C8.49805 23.6716 7.82647 23 6.99805 23C6.16962 23 5.49805 23.6716 5.49805 24.5ZM22.498 24.5C22.498 25.3284 23.1696 26 23.998 26C24.8265 26 25.498 25.3284 25.498 24.5C25.498 23.6716 24.8265 23 23.998 23C23.1696 23 22.498 23.6716 22.498 24.5Z" fill="#000000" class="bmwfcol"/><title>mot_rg_48</title></svg>