<svg width="48" height="48" viewBox="0 0 32 32" xmlns="http://www.w3.org/2000/svg"><path d="M13.174 9.91572L9.18123 3H7.77542L3 11.2713V12.9999H11.4423L7.69583 19.4889V21H13.5446C13.6021 20.3747 13.7139 19.7794 13.8763 19.2176H10.1619L13.1741 14.0002L14.8983 16.9866C15.2913 16.3939 15.7609 15.8668 16.2992 15.4131L14.906 12.9999H23.3478V11.2709L18.5726 3H17.1668L13.174 9.91572ZM5.46606 10.9999L8.47832 5.78253L11.4906 10.9999H5.46606ZM17.8697 5.78253L20.882 10.9999H14.8575L17.8697 5.78253Z" fill="#000000" class="bmwfcol"/><path d="M20.8117 24.8997H19.2987V20.6658L17.8815 21.0962V19.5806L20.8117 18.6783V24.8997Z" fill="#000000" class="bmwfcol"/><path d="M21.4785 24.8997H25.8037V23.4609H23.6841C24.0511 23.1149 24.3782 22.7951 24.7184 22.4323C24.9921 22.1398 25.2175 21.8691 25.3726 21.5671C25.5302 21.2602 25.6108 20.9298 25.6108 20.5222C25.6108 20.0994 25.4583 19.5824 25.089 19.2653C24.6899 18.9175 24.2339 18.7789 23.4148 18.7789C22.8956 18.7789 22.1579 18.9091 21.7439 18.9904L21.5824 19.0221V20.4685L21.8209 20.4217C22.206 20.3462 22.8672 20.2177 23.3035 20.2177C23.48 20.2177 23.6247 20.2234 23.7426 20.2443C23.8602 20.2651 23.9337 20.2981 23.9811 20.3393L23.9835 20.3413C24.0622 20.4076 24.0904 20.4877 24.0904 20.6261C24.0904 20.8163 24.0014 20.9603 23.8087 21.1975C23.299 21.8236 22.1223 22.9642 21.5409 23.5158L21.4785 23.575V24.8997Z" fill="#000000" class="bmwfcol"/><path d="M16.9429 16.9429C18.2057 15.6801 19.9728 15 22 15C24.0272 15 25.7943 15.6801 27.0571 16.9429C28.3199 18.2057 29 19.9728 29 22C29 24.0272 28.3199 25.7943 27.0571 27.0571C25.7943 28.3199 24.0272 29 22 29C19.9728 29 18.2057 28.3199 16.9429 27.0571C15.6801 25.7943 15 24.0272 15 22C15 19.9728 15.6801 18.2057 16.9429 16.9429ZM18.3571 18.3571C17.5199 19.1943 17 20.4272 17 22C17 23.5728 17.5199 24.8057 18.3571 25.6429C19.1943 26.4801 20.4272 27 22 27C23.5728 27 24.8057 26.4801 25.6429 25.6429C26.4801 24.8057 27 23.5728 27 22C27 20.4272 26.4801 19.1943 25.6429 18.3571C24.8057 17.5199 23.5728 17 22 17C20.4272 17 19.1943 17.5199 18.3571 18.3571Z" fill="#000000" class="bmwfcol"/><title>mot_12_rg_48</title></svg>