<svg width="48" height="48" viewBox="0 0 32 32" xmlns="http://www.w3.org/2000/svg"><path d="M19 4H20V2H13V4H14V4.53352C13.4529 4.57341 12.9513 4.65154 12.5293 4.78216C11.948 4.96209 11 5.42411 11 6.49994H9.49999V9H8V6H6V14H8L8 11H9.49999V13.4999H12.2282C12.2853 13.719 12.3382 13.9185 12.3872 14.0875C12.4874 14.4325 12.6134 14.8105 12.8288 15.1278C13.0813 15.4998 13.4225 15.7438 13.8466 15.8724C14.211 15.9829 14.6154 15.9999 15 15.9999H19C19.3846 15.9999 19.789 15.9829 20.1534 15.8724C20.5775 15.7438 20.9186 15.4998 21.1712 15.1278C21.3866 14.8105 21.5126 14.4325 21.6128 14.0875C21.6618 13.9185 21.7147 13.719 21.7718 13.4999H23.5L23.5 12.4999H24.5L24.5 13.4999H26.4657L26.7226 12.8858C26.9936 12.2376 27.1569 11.7697 27.2352 11.2653C27.3018 10.8368 27.3011 10.4041 27.3002 9.88343L27.3 9.69994L27.3002 9.51471C27.3011 9.00165 27.3019 8.58534 27.2335 8.17413C27.1535 7.69238 26.9867 7.24578 26.7226 6.61413L26.4657 5.99994H24.5L24.5 6.99995L23.5 6.99994V5.99994H21.9233C21.6863 5.27426 20.9525 4.9313 20.4707 4.78216C20.0487 4.65154 19.5471 4.57341 19 4.53352V4ZM17 4V6.49994H18C18.8671 6.49994 19.4982 6.57476 19.8793 6.69273C19.9279 6.70776 19.9677 6.72164 20 6.73404V7.99994H21.5V8.99994H25.2975C25.3001 9.14891 25.3001 9.33328 25.3 9.57728L25.3 9.83313C25.3001 10.1182 25.3002 10.3288 25.2955 10.4999H21.5L21.5 11.4999L20.2327 11.4999L20.0341 12.2411C19.9695 12.4819 19.916 12.6887 19.8686 12.8715C19.8019 13.129 19.7475 13.3391 19.692 13.53C19.6183 13.7839 19.5679 13.9078 19.5378 13.9673C19.4611 13.9834 19.3078 13.9999 19 13.9999H15C14.6922 13.9999 14.5389 13.9834 14.4622 13.9673C14.432 13.9078 14.3817 13.7839 14.3079 13.53C14.2525 13.3391 14.1981 13.129 14.1314 12.8715C14.084 12.6887 14.0304 12.4819 13.9659 12.2411L13.7673 11.4999H11.5V8.49994H13V6.73404C13.0323 6.72164 13.0721 6.70776 13.1207 6.69273C13.5018 6.57476 14.1329 6.49994 15 6.49994H16V4H17ZM20.1241 6.7961C20.1225 6.79651 20.1127 6.79104 20.0992 6.77847C20.1188 6.78942 20.1256 6.7957 20.1241 6.7961ZM12.8759 6.7961C12.8744 6.7957 12.8811 6.78942 12.9008 6.77847C12.8873 6.79104 12.8775 6.79651 12.8759 6.7961Z" fill="#000000" class="bmwfcol"/><path d="M29.7073 16.2927C29.3996 15.9851 28.9703 15.6298 28.3683 15.403C27.7593 15.1736 27.0434 15.1017 26.1992 15.2526C24.7372 15.5138 22.8561 16.4491 20.3112 18.4569C19.9401 18.1456 19.4742 17.9999 19 17.9999L14.1319 17.9999L10.3999 16.9999L10.1895 16.9998C9.6121 16.999 9.03821 16.9982 8.38659 17.3969C8.09317 17.5765 7.8062 17.8207 7.49345 18.1129C7.17993 18.4058 6.79508 18.7906 6.30669 19.279L1.58582 23.9999L7.58582 29.9999H9.41424L11.4142 27.9999H15.0287C16.0043 27.9999 16.7763 27.9999 17.3964 27.9673C18.0254 27.9342 18.5664 27.8652 19.0664 27.6986C20.0439 27.3728 20.7035 26.7122 21.589 25.8255L30.4146 16.9998L29.7073 16.2927ZM13.8686 19.9999L19 19.9999L19.0001 20.5775C18.215 21.3182 17.6684 21.6397 17.1839 21.8012C16.6157 21.9907 16.0357 21.9999 15.0003 21.9999H11V23.9999L15.0816 23.9999C16.0167 24.0002 16.911 24.0004 17.8164 23.6986C18.7737 23.3795 19.6532 22.7609 20.7071 21.707L20.9999 21.4142L21.0001 20.4697C23.7542 18.2109 25.4853 17.4118 26.551 17.2214C26.9035 17.1584 27.1747 17.1636 27.386 17.2L20.2932 24.2928C19.2395 25.3464 18.9135 25.6414 18.4339 25.8012C18.1838 25.8846 17.8497 25.9406 17.2913 25.97C16.7299 25.9996 16.0107 25.9999 15 25.9999H10.5858L8.58582 27.9999H8.41424L4.41424 23.9999L7.70714 20.707C8.2122 20.202 8.57307 19.8413 8.85874 19.5744C9.14812 19.3041 9.31542 19.1733 9.43053 19.1029C9.55683 19.0256 9.59838 19.003 10.1378 19.0002L13.8686 19.9999Z" fill="#000000" class="bmwfcol"/><title>motor_on_hand_rg_48</title></svg>