<svg width="48" height="48" viewBox="0 0 32 32" xmlns="http://www.w3.org/2000/svg"><path d="M27.5 28.6955C26.3583 29.0011 25.2778 29.2849 24.3136 29.4541C23.2883 29.6341 22.2725 29.7091 21.3734 29.4754C20.4093 29.2247 19.642 28.6347 19.1523 27.6539C18.7191 26.7864 18.524 25.657 18.5022 24.2685C18.4012 24.0849 18.2911 23.8606 18.2348 23.6349C18.1849 23.4346 18.1639 23.1966 18.2223 22.9379C18.28 22.682 18.4003 22.4727 18.5343 22.3053C18.7736 22.0061 19.1275 21.7585 19.4805 21.5337L19.5471 21.4916C19.4506 21.4611 19.3589 21.4307 19.2722 21.4005C18.8004 21.2358 18.2862 21.0143 17.9319 20.6055C17.5135 20.1228 17.4621 19.5656 17.5094 19.0913C17.5251 18.934 17.5539 18.7655 17.5911 18.5892C17.0334 18.4266 16.5214 18.2486 16.13 18.0177C15.7959 17.8207 15.4582 17.5366 15.2525 17.1079C15.0437 16.6728 15.0315 16.2158 15.1118 15.7895C15.2587 15.0101 15.7703 14.0767 16.4852 12.9543C17.1761 11.8696 18.1491 10.4741 19.408 8.67576C19.1598 7.78359 19.0096 7.02473 19.3026 6.02001C19.4574 5.48915 19.7256 4.91409 20.0956 4.21913C20.4118 3.62522 20.8251 2.90276 21.3457 2H23.6551L23.3663 2.50009C22.7002 3.65384 22.2135 4.49693 21.861 5.15905C21.5059 5.82593 21.3179 6.25333 21.2226 6.5799C21.0644 7.12253 21.1279 7.41976 21.4614 8.58422L21.5927 9.04257L21.3192 9.43313C19.9157 11.4376 18.8828 12.9129 18.1721 14.0288C17.4363 15.1839 17.1068 15.871 17.0412 16.2191C16.9978 16.4495 18.9259 16.8826 19.0587 16.9182L20.0241 17.1774L19.7653 18.1429C19.6623 18.5273 19.5236 18.928 19.4963 19.328C19.5601 19.3643 19.6888 19.4276 19.9312 19.5122C20.3418 19.6555 20.9168 19.8095 21.758 20.0338L22.5003 20.2318V22.0773L22.0004 22.366C21.347 22.7433 20.8859 23.0098 20.5549 23.2207C20.453 23.2855 20.3701 23.341 20.3027 23.3887C20.3214 23.4218 20.3428 23.4594 20.3673 23.502L20.5001 23.7333V24C20.5001 25.388 20.6837 26.2439 20.9416 26.7605C21.1706 27.2191 21.4659 27.4329 21.8767 27.5397C22.3527 27.6635 23.0243 27.6498 23.9678 27.4842C24.8998 27.3207 25.9784 27.0327 27.2413 26.6943L27.5 26.625V28.6955Z" fill="#000000" class="bmwfcol"/><path d="M23.5 9.76761C23.8886 9.66255 24.2162 9.57301 24.4925 9.49554L23 8.63384V6.32444L27.5005 8.92278L27.5002 9.50041L27.5005 9.51777C27.5028 9.62116 27.5119 10.0241 27.2499 10.3891C27.0028 10.7332 26.6269 10.8996 26.3658 11.0022C25.8739 11.1955 24.998 11.4369 23.5 11.8391V9.76761Z" fill="#000000" class="bmwfcol"/><path d="M5.36789 10.8679C2.88011 13.3556 1.5 16.8727 1.5 21C1.5 25.1272 2.88011 28.6443 5.36789 31.1321L6.78211 29.7179C4.71989 27.6556 3.5 24.6727 3.5 21C3.5 17.3272 4.71989 14.3443 6.78211 12.2821L5.36789 10.8679Z" fill="#000000" class="bmwfcol"/><path d="M8.26789 13.7679C6.48011 15.5556 5.5 18.0727 5.5 21C5.5 23.9272 6.48011 26.4443 8.26789 28.2321L9.68211 26.8179C8.31989 25.4556 7.5 23.4727 7.5 21C7.5 18.5272 8.31989 16.5443 9.68211 15.1821L8.26789 13.7679Z" fill="#000000" class="bmwfcol"/><path d="M11.1679 16.6679C10.0801 17.7556 9.5 19.2727 9.5 21C9.5 22.7272 10.0801 24.2443 11.1679 25.3321L12.5821 23.9179C11.9199 23.2556 11.5 22.2727 11.5 21C11.5 19.7272 11.9199 18.7443 12.5821 18.0821L11.1679 16.6679Z" fill="#000000" class="bmwfcol"/><title>natural-language-assistant_rg_48</title></svg>