<svg width="48" height="48" viewBox="0 0 32 32" xmlns="http://www.w3.org/2000/svg"><path d="M8.00711 8.00711C6.11989 9.89433 5 12.6272 5 16C5 17.546 5.23531 18.9576 5.67197 20.2149L4.04884 21.5714C3.36202 19.9122 3 18.0353 3 16C3 12.1728 4.28011 8.90567 6.59289 6.59289C8.90567 4.28011 12.1728 3 16 3C19.8272 3 23.0943 4.28011 25.4071 6.59289C27.7199 8.90567 29 12.1728 29 16C29 19.8272 27.7199 23.0943 25.4071 25.4071C23.8178 26.9964 21.7778 28.0981 19.415 28.6318L19.4109 26.574C21.2458 26.0856 22.7909 25.1949 23.9929 23.9929C25.8801 22.1057 27 19.3728 27 16C27 12.6272 25.8801 9.89433 23.9929 8.00711C22.1057 6.11989 19.3728 5 16 5C12.6272 5 9.89433 6.11989 8.00711 8.00711Z" fill="#000000" class="bmwfcol"/><path d="M17.3866 14.9666L15.9001 14.2734L5.29492 23.136L5.94992 24.9356L12.07 24.4276L15.6147 29.4424L17.4143 28.7874L17.3866 14.9666ZM13.0435 22.34L8.96094 22.6788L15.3913 17.305L15.4081 25.6852L13.0435 22.34Z" fill="#000000" class="bmwfcol"/><title>navigation_arrow_in_circle_rg_48</title></svg>