<svg width="48" height="48" viewBox="0 0 32 32" xmlns="http://www.w3.org/2000/svg"><path d="M19.9981 9.41429L24.2052 5.20718L22.791 3.79297L19.9981 6.58586L18.7052 5.29297L17.291 6.70718L19.9981 9.41429Z" fill="#000000" class="bmwfcol"/><path d="M19.9981 15.4143L24.2052 11.2072L22.791 9.79297L19.9981 12.5859L18.7052 11.293L17.291 12.7072L19.9981 15.4143Z" fill="#000000" class="bmwfcol"/><path d="M29.9981 8.00008H24.9981V6.00008H29.9981V8.00008Z" fill="#000000" class="bmwfcol"/><path d="M24.9981 14.0001H29.9981V12.0001H24.9981V14.0001Z" fill="#000000" class="bmwfcol"/><path d="M7.42891 9.20451C8.40749 8.26088 9.71877 8.00024 10.998 8.00024C12.2773 8.00024 13.5886 8.26088 14.5672 9.20451C15.5506 10.1528 15.998 11.596 15.998 13.5002C15.998 15.4045 15.5506 16.8477 14.5672 17.796C13.5886 18.7396 12.2773 19.0002 10.998 19.0002C9.71877 19.0002 8.40749 18.7396 7.42891 17.796C6.44554 16.8477 5.99805 15.4045 5.99805 13.5002C5.99805 11.596 6.44554 10.1528 7.42891 9.20451ZM8.81718 10.6442C8.38388 11.062 7.99805 11.8688 7.99805 13.5002C7.99805 15.1317 8.38388 15.9385 8.81718 16.3563C9.25527 16.7787 9.94399 17.0002 10.998 17.0002C12.0521 17.0002 12.7408 16.7787 13.1789 16.3563C13.6122 15.9385 13.998 15.1317 13.998 13.5002C13.998 11.8688 13.6122 11.062 13.1789 10.6442C12.7408 10.2218 12.0521 10.0002 10.998 10.0002C9.94399 10.0002 9.25527 10.2218 8.81718 10.6442Z" fill="#000000" class="bmwfcol"/><path d="M3.29907 26.0002H1.22852L1.43153 25.2426C2.02432 23.0197 2.63489 21.4393 4.28218 20.659C5.04735 20.2966 5.95724 20.1458 7.01162 20.0729C8.06333 20.0002 9.36674 20.0002 10.962 20.0002C12.5572 20.0002 13.9322 20.0002 14.9839 20.0729C16.0383 20.1458 16.9482 20.2966 17.7134 20.659C19.3607 21.4393 19.9711 23.0192 20.5639 25.2421L20.767 26.0002H18.6965L18.6316 25.7579C18.0244 23.4811 17.5848 22.8111 16.8572 22.4665C16.4349 22.2664 15.826 22.1359 14.846 22.0682C13.8712 22.0008 12.6362 22.0002 10.9978 22.0002C9.35931 22.0002 8.12435 22.0008 7.14954 22.0682C6.16954 22.1359 5.56068 22.2664 5.13835 22.4665C4.41079 22.8111 3.97116 23.4811 3.364 25.7579L3.29907 26.0002Z" fill="#000000" class="bmwfcol"/><title>need-analyzer_rg_48</title></svg>