<svg width="48" height="48" viewBox="0 0 32 32" xmlns="http://www.w3.org/2000/svg"><path d="M16 10C14.8651 10 13.8407 10.3557 13.0982 11.0982C12.3557 11.8407 12 12.8651 12 14C12 15.1349 12.3557 16.1593 13.0982 16.9018C13.8407 17.6443 14.8651 18 16 18C17.1349 18 18.1593 17.6443 18.9018 16.9018C19.6443 16.1593 20 15.1349 20 14C20 12.8651 19.6443 11.8407 18.9018 11.0982C18.1593 10.3557 17.1349 10 16 10ZM14 14C14 13.2824 14.2181 12.8068 14.5124 12.5124C14.8068 12.2181 15.2824 12 16 12C16.7176 12 17.1932 12.2181 17.4876 12.5124C17.7819 12.8068 18 13.2824 18 14C18 14.7176 17.7819 15.1932 17.4876 15.4876C17.1932 15.7819 16.7176 16 16 16C15.2824 16 14.8068 15.7819 14.5124 15.4876C14.2181 15.1932 14 14.7176 14 14Z" fill="#000000" class="bmwfcol"/><path d="M16 19.5C15.1716 19.5 14.5 20.1716 14.5 21C14.5 21.8284 15.1716 22.5 16 22.5C16.8284 22.5 17.5 21.8284 17.5 21C17.5 20.1716 16.8284 19.5 16 19.5Z" fill="#000000" class="bmwfcol"/><path d="M5 13.5358V10.925L16.0003 1.69458L27 10.9244V13.5352L25 11.857V30H7V11.8576L5 13.5358ZM16.0003 4.30539L9 10.1794V28H23V10.1788L16.0003 4.30539Z" fill="#000000" class="bmwfcol"/><title>nesting_box_rg_48</title></svg>