<svg width="48" height="48" viewBox="0 0 32 32" xmlns="http://www.w3.org/2000/svg"><path d="M21 29H11V27H21V29Z" fill="#000000" class="bmwfcol"/><path d="M3.56039 5.56039C3.95856 5.16222 4.48408 5 5 5H27C27.5159 5 28.0414 5.16222 28.4396 5.56039C28.8378 5.95856 29 6.48408 29 7V23C29 23.5159 28.8378 24.0414 28.4396 24.4396C28.0414 24.8378 27.5159 25 27 25H5C4.48408 25 3.95856 24.8378 3.56039 24.4396C3.16222 24.0414 3 23.5159 3 23V7C3 6.48408 3.16222 5.95856 3.56039 5.56039ZM27 7H5V23H27V7Z" fill="#000000" class="bmwfcol"/><path d="M22.6639 13.6348C22.8701 13.8418 23.0647 14.0506 23.2348 14.2581C23.5946 14.697 24 15.3094 24 16.0321V21H19V20H13V21H8V16.0321C8 15.3094 8.40538 14.697 8.76518 14.2581C8.93534 14.0506 9.12988 13.8418 9.33607 13.6348C9.08877 13.6235 8.77727 13.624 8.34811 13.6246C8.24005 13.6248 8.12383 13.625 8 13.625V11.625C8.10975 11.625 8.217 11.6247 8.32162 11.6245C8.90055 11.6231 9.39946 11.622 9.79921 11.6639C10.0658 11.6919 10.3233 11.7415 10.5713 11.8325C10.7265 11.5098 10.8728 11.2219 11.0161 10.9701C11.3252 10.4269 11.6746 9.9498 12.1754 9.60802C12.6848 9.26038 13.2472 9.12269 13.8474 9.05971C14.4169 8.99995 15.2209 8.99997 16.0518 9C16.8827 8.99997 17.5832 8.99995 18.1526 9.05971C18.7528 9.12269 19.3153 9.26038 19.8246 9.60802C20.3254 9.94981 20.6748 10.427 20.9839 10.9701C21.1272 11.2219 21.2735 11.5098 21.4287 11.8326C21.6768 11.7415 21.9344 11.6919 22.201 11.6639C22.6008 11.622 23.0996 11.6231 23.6786 11.6245C23.7832 11.6247 23.8906 11.625 24.0004 11.625V13.625C23.8764 13.625 23.7608 13.6248 23.6527 13.6246C23.2233 13.624 22.9113 13.6235 22.6639 13.6348ZM12.5292 12.3824C13.1386 12.369 13.8851 12.3709 14.7868 12.3732C15.1636 12.3741 15.5674 12.3751 15.9996 12.3751C16.4319 12.3751 16.8357 12.3741 17.2124 12.3732C18.1147 12.3709 18.8615 12.369 19.4708 12.3825C19.392 12.2261 19.3177 12.086 19.2457 11.9593C18.9991 11.526 18.8322 11.3521 18.6971 11.2599C18.5706 11.1736 18.3776 11.0943 17.9439 11.0488C17.4912 11.0013 16.8964 11 16 11C15.1036 11 14.5089 11.0013 14.0561 11.0488C13.6224 11.0943 13.4294 11.1736 13.3029 11.2599C13.1678 11.3521 13.0009 11.526 12.7544 11.9593C12.6823 12.0859 12.608 12.2261 12.5292 12.3824ZM20.6336 14.4612C20.4708 14.4361 20.2549 14.4153 19.9667 14.4006C19.3282 14.3681 18.4688 14.3702 17.2674 14.3732C16.8814 14.3741 16.4602 14.3751 15.9996 14.3751C15.5392 14.3751 15.1179 14.3741 14.732 14.3732C13.5303 14.3702 12.6703 14.3681 12.0313 14.4006C11.7448 14.4152 11.5296 14.4358 11.3669 14.4607C10.9257 14.8684 10.5673 15.2146 10.3118 15.5261C10.0352 15.8635 10.0033 16.0161 10 16.0321V19H11V18H21V19H22V16.0321C21.9967 16.0161 21.9648 15.8635 21.6882 15.5261C21.4328 15.2146 21.0747 14.8688 20.6336 14.4612Z" fill="#000000" class="bmwfcol"/><title>newsletter-car_rg_48</title></svg>