<svg width="48" height="48" viewBox="0 0 32 32" xmlns="http://www.w3.org/2000/svg"><path d="M5 5C4.48408 5 3.95856 5.16222 3.56039 5.56039C3.16222 5.95856 3 6.48408 3 7V23C3 23.5159 3.16222 24.0414 3.56039 24.4396C3.95856 24.8378 4.48408 25 5 25H27C27.5159 25 28.0414 24.8378 28.4396 24.4396C28.8378 24.0414 29 23.5159 29 23V7C29 6.48408 28.8378 5.95856 28.4396 5.56039C28.0414 5.16222 27.5159 5 27 5H5ZM5 7H27V23H5V7ZM23 10H9V20H23V10ZM11 18V12.9999L16 16.75L21 13V18H11ZM16 14.25L13.0001 12H19L16 14.25ZM11 29H21V27H11V29Z" fill="#000000" class="bmwfcol"/><title>newsletter_rg_48</title></svg>