<svg width="48" height="48" viewBox="0 0 32 32" xmlns="http://www.w3.org/2000/svg"><path d="M24 15H12V13H24V15Z" fill="#000000" class="bmwfcol"/><path d="M12 19H24V17H12V19Z" fill="#000000" class="bmwfcol"/><path d="M6 6H30V23C30 23.8272 29.7199 24.5943 29.1571 25.1571C28.5943 25.7199 27.8272 26 27 26H5C4.17275 26 3.40567 25.7199 2.84289 25.1571C2.28011 24.5943 2 23.8272 2 23V10H4V23C4 23.3728 4.11989 23.6057 4.25711 23.7429C4.39433 23.8801 4.62725 24 5 24C5.37275 24 5.60567 23.8801 5.74289 23.7429C5.88011 23.6057 6 23.3728 6 23V6ZM7.85152 24H27C27.3728 24 27.6057 23.8801 27.7429 23.7429C27.8801 23.6057 28 23.3728 28 23V8H8V23C8 23.3475 7.95057 23.6844 7.85152 24Z" fill="#000000" class="bmwfcol"/><title>newspaper_rg_48</title></svg>