<svg width="48" height="48" viewBox="0 0 32 32" xmlns="http://www.w3.org/2000/svg"><path d="M16.723 6L2.71889 26H0.277344L14.2815 6H16.723Z" fill="#000000" class="bmwfcol"/><path d="M16.7956 19L15.0827 26H13.0237L14.7365 19H16.7956Z" fill="#000000" class="bmwfcol"/><path d="M18.5084 12L17.285 17H15.2259L16.4494 12H18.5084Z" fill="#000000" class="bmwfcol"/><path d="M19.9766 6L18.9978 10H16.9388L17.9176 6H19.9766Z" fill="#000000" class="bmwfcol"/><path d="M23.8559 6L29.2149 26H27.1443L21.7853 6H23.8559Z" fill="#000000" class="bmwfcol"/><path d="M3.79376 2H5.70378L5.38224 3.24926C5.31718 3.50203 5.28231 3.76795 5.28231 4.04347C5.28231 5.79638 6.70332 7.21739 8.45622 7.21739C8.73175 7.21739 8.99767 7.18252 9.25044 7.11746L10.4997 6.79592V8.70593L10.4159 8.8975C9.61812 10.7219 7.79623 12 5.67361 12C2.81614 12 0.499698 9.68356 0.499698 6.82609C0.499698 4.70347 1.77775 2.88159 3.60219 2.08377L3.79376 2ZM3.32274 4.69342C2.81091 5.25738 2.4997 6.00583 2.4997 6.82609C2.4997 8.57899 3.92071 10 5.67361 10C6.49387 10 7.24232 9.68879 7.80628 9.17696C5.46849 8.88396 3.61574 7.03121 3.32274 4.69342Z" fill="#000000" class="bmwfcol"/><title>night-vision_rg_48</title></svg>