<svg width="48" height="48" viewBox="0 0 32 32" xmlns="http://www.w3.org/2000/svg"><path d="M14 5H10V2H8V5H4V26C4 26.8259 4.25722 27.6014 4.82789 28.1721C5.39856 28.7428 6.17408 29 7 29H23C23.8259 29 24.6014 28.7428 25.1721 28.1721C25.7428 27.6014 26 26.8259 26 26V19.2427C25.3109 19.9318 24.6389 20.6038 24.0104 21.2324L24 21.2427V26C24 26.4141 23.8772 26.6386 23.7579 26.7579C23.6386 26.8772 23.4141 27 23 27H7C6.58592 27 6.36144 26.8772 6.24211 26.7579C6.12278 26.6386 6 26.4141 6 26V7H21.7576L23.789 5H22V2H20V5H16V2H14V5Z" fill="#000000" class="bmwfcol"/><path d="M18.7576 10H8V12H16.7575L18.7576 10Z" fill="#000000" class="bmwfcol"/><path d="M14.7575 14H8V16H12.7576L14.7575 14Z" fill="#000000" class="bmwfcol"/><path d="M11 20V18H8V20H11Z" fill="#000000" class="bmwfcol"/><path d="M11 22H8V24H11V22Z" fill="#000000" class="bmwfcol"/><path d="M25.792 6.16984C25.3819 6.29044 25.055 6.53102 24.7929 6.79308L13 18.586V24.0002H18.4142L19.6021 22.8123C22.9703 19.4439 26.8386 15.5755 30.2071 12.2073C30.4694 11.945 30.7105 11.6179 30.8313 11.2076C30.9566 10.7821 30.9254 10.36 30.793 9.96378C30.5541 9.24868 29.9541 8.54016 29.2071 7.79311C28.4594 7.0454 27.7504 6.44626 27.0348 6.20782C26.6387 6.07581 26.217 6.04485 25.792 6.16984ZM26.2071 8.20733C26.2656 8.14881 26.3184 8.07722 26.4025 8.10524C26.6245 8.17923 27.0406 8.45497 27.7929 9.2073C28.5459 9.9603 28.822 10.3757 28.8961 10.5976C28.9241 10.6813 28.8509 10.7351 28.7929 10.7931L27.5001 12.0858L24.9144 9.50006L26.2071 8.20733ZM15 19.4144L23.5001 10.9143L26.0859 13.5L17.5858 22.0002H15V19.4144Z" fill="#000000" class="bmwfcol"/><title>notepad_rg_48</title></svg>