<svg width="48" height="48" viewBox="0 0 32 32" xmlns="http://www.w3.org/2000/svg"><path d="M24 29H5V26H2V24H5V20H2V18H5V14H2V12H5V8H2V6L5 6V3H24C24.8259 3 25.6014 3.25722 26.1721 3.82789C26.536 4.19178 26.7724 4.63896 26.896 5.12939C26.3719 5.05684 25.8071 5.08084 25.2277 5.25124C25.1005 5.28866 24.9785 5.33139 24.8618 5.3784C24.829 5.32223 24.7933 5.27753 24.7579 5.24211C24.6386 5.12278 24.4141 5 24 5L7 5L7 27H24C24.4141 27 24.6386 26.8772 24.7579 26.7579C24.8772 26.6386 25 26.4141 25 26V21.2428L27 19.2428V26C27 26.8259 26.7428 27.6014 26.1721 28.1721C25.6014 28.7428 24.8259 29 24 29Z" fill="#000000" class="bmwfcol"/><path d="M15.2072 8.20718L11.0001 12.4143L8.29297 9.70718L9.70718 8.29297L11.0001 9.58586L13.793 6.79297L15.2072 8.20718Z" fill="#000000" class="bmwfcol"/><path d="M11.0001 18.4143L15.2072 14.2072L13.793 12.793L11.0001 15.5859L9.70718 14.293L8.29297 15.7072L11.0001 18.4143Z" fill="#000000" class="bmwfcol"/><path d="M24.7929 7.79317C25.055 7.5311 25.3819 7.29052 25.792 7.16992C26.217 7.04493 26.6387 7.0759 27.0348 7.2079C27.7504 7.44634 28.4594 8.04548 29.2071 8.7932C29.9541 9.54025 30.5541 10.2488 30.793 10.9639C30.9254 11.3601 30.9566 11.7821 30.8313 12.2077C30.7105 12.618 30.4694 12.9451 30.2071 13.2074C26.7825 16.6316 23.3582 20.0561 19.9339 23.4806L18.4142 25.0003H13V19.5861L24.7929 7.79317ZM26.3502 9.09165C26.3327 9.10053 26.2856 9.12895 26.2071 9.20742L24.9136 10.5009L27.4994 13.0866L28.7929 11.7931C28.8718 11.7143 28.9006 11.6668 28.9096 11.649C28.9082 11.6396 28.9046 11.6231 28.8961 11.5977C28.822 11.3758 28.5459 10.9604 27.7929 10.2074C27.0406 9.45505 26.6245 9.17931 26.4025 9.10533C26.3764 9.09663 26.3597 9.09305 26.3502 9.09165ZM15 20.4145V23.0003H17.5858L26.0851 14.5008L23.4994 11.9151L15 20.4145Z" fill="#000000" class="bmwfcol"/><title>notebook_with_checkmarks_rg_48</title></svg>