<svg width="48" height="48" viewBox="0 0 32 32" xmlns="http://www.w3.org/2000/svg"><path d="M29 3V18C29 19.1892 29.0127 20.1404 28.6895 21.0293C28.357 21.9433 27.7105 22.7035 26.707 23.707L23.707 26.707C22.7035 27.7105 21.9433 28.357 21.0293 28.6895C20.1404 29.0127 19.1892 29 18 29H3V3H29ZM5 5V27H18C18.7996 27 19.1951 26.8263 19.4375 26.5459C19.7176 26.2219 20 25.5238 20 24V20H24C25.5238 20 26.2219 19.7176 26.5459 19.4375C26.8263 19.1951 27 18.7996 27 18V5H5ZM25.7041 21.8701C25.1889 21.9589 24.6201 22 24 22H22V24C22 24.6201 21.9589 25.1889 21.8701 25.7041C22.0001 25.5805 22.1412 25.4448 22.293 25.293L25.293 22.293C25.4448 22.1412 25.5805 22.0001 25.7041 21.8701Z" fill="#000000" class="bmwfcol"/><title>note_rg_48</title></svg>