<svg width="48" height="48" viewBox="0 0 32 32" xmlns="http://www.w3.org/2000/svg"><path d="M14.002 7H16.002V5H10.002V7H12.002V7.99989H9.87549C9.72178 7.55339 9.42517 7.20139 9.01061 6.90833C8.27311 6.38699 6.95961 5.92144 4.71902 5.32107L3.7531 5.06226L2.36133 10.2564L8.00195 11.7678V15.9999L17.0562 15.9999C17.5163 16.0002 18.0208 16.0005 18.5629 15.839C19.1371 15.668 19.6788 15.3433 20.3273 14.8294C21.5689 13.8457 23.4894 11.9269 27.1537 8.26253L27.7033 8.11527L28.2948 8.70691L29.7091 7.29287L28.3011 5.88452L17.2594 8.84314L16.4162 7.99989H14.002V7ZM7.98544 8.65401C7.99212 8.67544 8.00195 8.7281 8.00195 9.00029V9.69725L4.81082 8.84219L5.16503 7.52024C6.78108 7.98628 7.51924 8.30333 7.85612 8.54148C7.93887 8.59998 7.97207 8.63718 7.98205 8.6496L7.98544 8.65401ZM23.2834 9.29957C21.1572 11.4129 19.9295 12.5929 19.0852 13.2619C18.5295 13.7022 18.2191 13.8546 17.9921 13.9222C17.7545 13.993 17.5273 13.9999 17.002 13.9999L10.002 13.9999V9.99989H15.5877L16.6617 11.0739L23.2834 9.29957Z" fill="#000000" class="bmwfcol"/><path d="M7 27V19H5V27H7Z" fill="#000000" class="bmwfcol"/><path d="M10 19.5C9.17157 19.5 8.5 20.1716 8.5 21C8.5 21.8284 9.17157 22.5 10 22.5C10.8284 22.5 11.5 21.8284 11.5 21C11.5 20.1716 10.8284 19.5 10 19.5Z" fill="#000000" class="bmwfcol"/><path d="M10 23.5C9.17157 23.5 8.5 24.1716 8.5 25C8.5 25.8284 9.17157 26.5 10 26.5C10.8284 26.5 11.5 25.8284 11.5 25C11.5 24.1716 10.8284 23.5 10 23.5Z" fill="#000000" class="bmwfcol"/><path d="M14 19.5C13.1716 19.5 12.5 20.1716 12.5 21C12.5 21.8284 13.1716 22.5 14 22.5C14.8284 22.5 15.5 21.8284 15.5 21C15.5 20.1716 14.8284 19.5 14 19.5Z" fill="#000000" class="bmwfcol"/><path d="M14 23.5C13.1716 23.5 12.5 24.1716 12.5 25C12.5 25.8284 13.1716 26.5 14 26.5C14.8284 26.5 15.5 25.8284 15.5 25C15.5 24.1716 14.8284 23.5 14 23.5Z" fill="#000000" class="bmwfcol"/><path d="M18 19.5C17.1716 19.5 16.5 20.1716 16.5 21C16.5 21.8284 17.1716 22.5 18 22.5C18.8284 22.5 19.5 21.8284 19.5 21C19.5 20.1716 18.8284 19.5 18 19.5Z" fill="#000000" class="bmwfcol"/><path d="M18 23.5C17.1716 23.5 16.5 24.1716 16.5 25C16.5 25.8284 17.1716 26.5 18 26.5C18.8284 26.5 19.5 25.8284 19.5 25C19.5 24.1716 18.8284 23.5 18 23.5Z" fill="#000000" class="bmwfcol"/><path d="M22 19.5C21.1716 19.5 20.5 20.1716 20.5 21C20.5 21.8284 21.1716 22.5 22 22.5C22.8284 22.5 23.5 21.8284 23.5 21C23.5 20.1716 22.8284 19.5 22 19.5Z" fill="#000000" class="bmwfcol"/><path d="M22 23.5C21.1716 23.5 20.5 24.1716 20.5 25C20.5 25.8284 21.1716 26.5 22 26.5C22.8284 26.5 23.5 25.8284 23.5 25C23.5 24.1716 22.8284 23.5 22 23.5Z" fill="#000000" class="bmwfcol"/><path d="M27 27V19H25V27H27Z" fill="#000000" class="bmwfcol"/><path d="M29 14.5C28.615 14.5 28.207 14.3652 27.9013 14.036C27.6037 13.7155 27.5 13.3157 27.5 12.9615C27.5 12.7186 27.5639 12.49 27.6088 12.3475C27.6597 12.1859 27.7244 12.0205 27.7819 11.8787C27.8184 11.789 27.8509 11.7103 27.8796 11.6407C27.9582 11.4502 28.0085 11.3285 28.0326 11.2393L28.2322 10.5H29.7678L29.9674 11.2393C29.9915 11.3285 30.0417 11.4502 30.1204 11.6407C30.1491 11.7102 30.1817 11.7891 30.2181 11.8787C30.2756 12.0205 30.3403 12.1859 30.3912 12.3475C30.4361 12.49 30.5 12.7186 30.5 12.9615C30.5 13.3157 30.3963 13.7155 30.0987 14.036C29.793 14.3652 29.385 14.5 29 14.5Z" fill="#000000" class="bmwfcol"/><title>oil-filter-service_rg_48</title></svg>