<svg width="48" height="48" viewBox="0 0 32 32" xmlns="http://www.w3.org/2000/svg"><path d="M1.94537 9.34253L2.93301 9.60716C4.2513 9.9604 5.26927 10.2332 6.03983 10.4717C6.79734 10.7061 7.41367 10.9354 7.87201 11.2296C8.39057 11.5625 8.7249 11.9896 8.88086 12.5563C8.92017 12.6992 8.94659 12.8485 8.96433 12.9999H12V12H10V10H16V12H14V12.9999H16.4142L18.2575 14.8431L29.2992 11.8845L30.7072 13.2929L29.2928 14.7069L28.7013 14.1153L28.1518 14.2625C24.4874 17.9269 22.5669 19.8457 21.3254 20.8294C20.6768 21.3433 20.1351 21.6681 19.561 21.839C19.0189 22.0005 18.5144 22.0002 18.0543 21.9999L7 21.9999V16.7675L0.427734 15.0065L1.94537 9.34253ZM6.95254 13.087L6.95025 13.0783C6.94061 13.0407 6.93067 13.002 6.79154 12.9127C6.5814 12.7778 6.19502 12.6133 5.44847 12.3822C4.90643 12.2145 4.22559 12.0261 3.35945 11.7925L2.87722 13.5923L7 14.6969V13.845C6.99833 13.4066 6.98821 13.2166 6.95254 13.087ZM24.2815 15.2996L17.6597 17.0739L15.5858 14.9999H9V19.9999L18 19.9999C18.5254 19.9999 18.7525 19.993 18.9901 19.9222C19.2171 19.8546 19.5275 19.7022 20.0833 19.2619C20.9276 18.5929 22.1552 17.4129 24.2815 15.2996Z" fill="#000000" class="bmwfcol"/><path d="M30 20.5C29.615 20.5 29.207 20.3652 28.9013 20.036C28.6037 19.7155 28.5 19.3157 28.5 18.9615C28.5 18.7186 28.5639 18.49 28.6088 18.3475C28.6597 18.1859 28.7244 18.0205 28.7819 17.8787C28.8184 17.789 28.8509 17.7103 28.8796 17.6407C28.9583 17.4502 29.0085 17.3285 29.0326 17.2393L29.2322 16.5H30.7678L30.9674 17.2393C30.9915 17.3285 31.0417 17.4502 31.1204 17.6407C31.1491 17.7103 31.1816 17.789 31.2181 17.8787C31.2756 18.0205 31.3403 18.1859 31.3912 18.3475C31.4361 18.49 31.5 18.7186 31.5 18.9615C31.5 19.3157 31.3963 19.7155 31.0987 20.036C30.793 20.3652 30.385 20.5 30 20.5Z" fill="#000000" class="bmwfcol"/><title>oil-service_rg_48</title></svg>