<svg width="48" height="48" viewBox="0 0 32 32" xmlns="http://www.w3.org/2000/svg"><path d="M22.0001 14.4143L30.7072 5.70718L29.293 4.29297L22.0001 11.5859L18.7072 8.29297L17.293 9.70718L22.0001 14.4143Z" fill="#000000" class="bmwfcol"/><path d="M2.93301 13.6069L1.94537 13.3423L0.427734 19.0062L7 20.7673V26.0001L18.0543 26.0002C18.5144 26.0004 19.0189 26.0007 19.561 25.8393C20.1351 25.6683 20.6768 25.3436 21.3254 24.8297C22.5669 23.8459 24.4874 21.9271 28.1518 18.2628L28.7013 18.1155L29.2928 18.7072L30.7072 17.2931L29.2992 15.8848L18.2575 18.8434L16.4142 17.0001H14V16H16V14H10V16H12V17.0001H8.96439C8.94664 16.8486 8.92021 16.6991 8.88086 16.5561C8.7249 15.9894 8.39057 15.5623 7.87201 15.2294C7.41367 14.9351 6.79734 14.7059 6.03983 14.4714C5.26926 14.2329 4.25132 13.9602 2.93301 13.6069ZM7 17.8448V18.6967L2.87722 17.592L3.35945 15.7923C4.22559 16.0259 4.90643 16.2142 5.44847 16.382C6.19502 16.6131 6.5814 16.7775 6.79154 16.9124C6.93067 17.0017 6.94061 17.0405 6.95025 17.078L6.95254 17.0867C6.98821 17.2164 6.99833 17.4063 7 17.8448ZM17.6597 21.0741L24.2815 19.2998C22.1552 21.4131 20.9276 22.5931 20.0833 23.2621C19.5275 23.7025 19.2171 23.8549 18.9901 23.9225C18.7525 23.9932 18.5254 24.0002 18 24.0002L9 24.0001V19.0001H15.5858L17.6597 21.0741Z" fill="#000000" class="bmwfcol"/><path d="M28.9013 24.036C29.207 24.3652 29.615 24.5 30 24.5C30.385 24.5 30.793 24.3652 31.0987 24.036C31.3963 23.7155 31.5 23.3157 31.5 22.9615C31.5 22.7186 31.4361 22.49 31.3912 22.3475C31.3403 22.1859 31.2756 22.0205 31.2181 21.8787C31.1818 21.7893 31.1493 21.7108 31.1207 21.6414C31.0421 21.4509 30.9915 21.3285 30.9674 21.2393L30.7678 20.5H29.2322L29.0326 21.2393C29.0085 21.3285 28.9583 21.4502 28.8796 21.6407C28.8509 21.7102 28.8184 21.789 28.7819 21.8787C28.7244 22.0205 28.6597 22.1859 28.6088 22.3475C28.5639 22.49 28.5 22.7186 28.5 22.9615C28.5 23.3157 28.6037 23.7155 28.9013 24.036Z" fill="#000000" class="bmwfcol"/><title>oil-inclusive_rg_48</title></svg>