<svg width="48" height="48" viewBox="0 0 32 32" xmlns="http://www.w3.org/2000/svg"><path d="M12.125 2.125L14.8764 2.12506C15.5018 2.12296 16.1942 2.19669 16.7152 2.76509C17.1721 3.26357 17.3036 3.91177 17.3036 4.4443C17.3036 4.67568 17.2906 4.97787 17.2153 5.28227C17.1394 5.58856 16.9858 5.9555 16.6613 6.2475C16.1572 6.7012 15.5364 6.82195 15.0598 6.85163C14.8347 6.86565 14.3636 6.87127 13.875 6.87352V8.00002H12.125V2.125ZM13.875 5.12345C14.344 5.12131 14.7692 5.11634 14.951 5.10502C15.2508 5.08635 15.4044 5.02057 15.4843 4.95228C15.4895 4.94365 15.5027 4.91761 15.5166 4.86157C15.5417 4.76005 15.5536 4.62219 15.5536 4.4443C15.5536 4.15833 15.4783 4.00563 15.4251 3.94757C15.4195 3.94105 15.4093 3.92936 15.3592 3.91522C15.282 3.89346 15.1428 3.87412 14.881 3.87505L13.875 3.87504V5.12345Z" fill="#000000" class="bmwfcol"/><path d="M12.9651 29L15.1724 20.762L9.53637 11H5.84563L8.73239 16H6.42299L3.53623 11H2V9H8.38167L6.07227 5H8.38167L10.6911 9H26V11H18.8456L20.5777 14H26.5773L28.3095 17H26L25.4227 16L14.7325 16L17.3187 20.4794L16.6433 23H20V25H16.1074L15.0356 29H12.9651ZM18.2683 14L16.5362 11H11.8458L13.5778 14H18.2683Z" fill="#000000" class="bmwfcol"/><path d="M22 19L26.0317 19.0001C27.0214 18.9967 27.9806 19.1187 28.6966 19.8999C29.3394 20.6011 29.5385 21.5311 29.5385 22.3331C29.5385 22.6942 29.5178 23.1436 29.4079 23.5873C29.2975 24.0333 29.0803 24.5405 28.6379 24.9386C27.9242 25.5809 27.0318 25.7637 26.3017 25.8092C25.8864 25.8351 24.9231 25.8429 24 25.8452V29H22V19ZM24 23.8451C24.9134 23.8428 25.8191 23.8354 26.1774 23.8131C26.7146 23.7796 27.0732 23.6561 27.3 23.452C27.3471 23.4097 27.4146 23.3163 27.4666 23.1065C27.5191 22.8946 27.5385 22.6331 27.5385 22.3331C27.5385 21.8129 27.4037 21.4492 27.2223 21.2513C27.1147 21.1339 26.9273 20.9969 26.037 21.0001L24 21V23.8451Z" fill="#000000" class="bmwfcol"/><path d="M8.35763 18.0001L5 18V26H7V23.7678C7.64761 23.7653 8.2863 23.7585 8.58178 23.7401C9.17106 23.7034 9.92448 23.5546 10.5337 23.0063C10.9217 22.6571 11.1072 22.2167 11.1996 21.8436C11.2915 21.4726 11.3077 21.1023 11.3077 20.8146C11.3077 20.1596 11.1457 19.3733 10.5945 18.772C9.97012 18.0908 9.13844 17.9974 8.35763 18.0001ZM8.45747 21.7439C8.21369 21.7591 7.62878 21.7653 7 21.7677V20L8.36293 20.0001C8.69523 19.9989 8.88086 20.0232 8.99104 20.0543C9.07533 20.078 9.09899 20.1003 9.1202 20.1234C9.20999 20.2214 9.30769 20.4413 9.30769 20.8146C9.30769 21.0412 9.29274 21.2237 9.2583 21.3628C9.22933 21.4798 9.19888 21.5162 9.1952 21.5203C9.07282 21.63 8.85328 21.7193 8.45747 21.7439Z" fill="#000000" class="bmwfcol"/><title>on-street-parking-information_rg_48</title></svg>