<svg width="48" height="48" viewBox="0 0 32 32" xmlns="http://www.w3.org/2000/svg"><path d="M6 6V24H22V26C22 27.1541 21.7108 28.2034 20.9571 28.9571C20.2034 29.7108 19.1541 30 18 30H8C6.84586 30 5.79657 29.7108 5.04289 28.9571C4.28921 28.2034 4 27.1541 4 26V6C4 4.84586 4.28921 3.79657 5.04289 3.04289C5.79657 2.28921 6.84586 2 8 2H18C19.1541 2 20.2034 2.28921 20.9571 3.04289C21.4859 3.5717 21.7861 4.24603 21.9181 5H19.8626C19.7792 4.75279 19.6654 4.57965 19.5429 4.45711C19.2966 4.21079 18.8459 4 18 4H8C7.15415 4 6.70343 4.21079 6.45711 4.45711C6.21079 4.70343 6 5.15414 6 6ZM6 26C6 26.8459 6.21079 27.2966 6.45711 27.5429C6.70343 27.7892 7.15415 28 8 28H18C18.8459 28 19.2966 27.7892 19.5429 27.5429C19.7892 27.2966 20 26.8459 20 26H6Z" fill="#000000" class="bmwfcol"/><path d="M19 8V6H17V8H16C15.4841 8 14.9586 8.16222 14.5604 8.5604C14.1622 8.95857 14 9.48408 14 10V20C14 20.5159 14.1622 21.0414 14.5604 21.4396C14.9586 21.8378 15.4841 22 16 22H26C26.5159 22 27.0414 21.8378 27.4396 21.4396C27.8378 21.0414 28 20.5159 28 20V10C28 9.48408 27.8378 8.95857 27.4396 8.5604C27.0414 8.16222 26.5159 8 26 8H25V6H23V8H19ZM26 10V12H16V10H26ZM16 20V14H26V20L16 20Z" fill="#000000" class="bmwfcol"/><title>online-appointment-scheduling_rg_48</title></svg>