<svg width="48" height="48" viewBox="0 0 32 32" xmlns="http://www.w3.org/2000/svg"><path d="M23.3249 8.83329C24.1423 9.63434 24.6753 10.6743 24.8911 11.8621L22.9501 12.3822C22.8213 11.4883 22.4505 10.7767 21.9251 10.2617C21.264 9.61389 20.2787 9.2 19 9.2C18.9387 9.2 18.878 9.20096 18.818 9.20285L18.0186 9.22809L17.8183 8.45377C17.2786 6.36703 15.537 5 12.9286 5C11.3517 5 10.1121 5.50397 9.26487 6.31353C8.4198 7.12106 7.88892 8.30504 7.85851 9.81325L7.84368 10.5491L7.13671 10.7537C5.83626 11.13 5 12.1939 5 13.8C5 14.8266 5.34426 15.6072 5.8785 16.1308C6.41454 16.6561 7.22126 17 8.28571 17H17V19H8.28571C6.77874 19 5.4426 18.5039 4.47864 17.5592C3.51288 16.6128 3 15.2934 3 13.8C3 11.6285 4.08806 9.88433 5.9014 9.07956C6.07558 7.39789 6.75988 5.94093 7.88315 4.86757C9.15601 3.65125 10.9162 3 12.9286 3C16.0587 3 18.5227 4.5849 19.5214 7.21769C21.0266 7.32103 22.3473 7.87524 23.3249 8.83329Z" fill="#000000" class="bmwfcol"/><path d="M28.3712 12.9997L30 12.9995V23.9996C29.9989 25.161 29.5613 26.1021 28.7331 26.7175C27.9528 27.2973 26.9497 27.4952 25.9643 27.4952C24.4332 27.4952 22.9998 26.3473 23 24.5308C23.0001 23.2953 23.7081 22.4318 24.5139 21.9229C25.2966 21.4286 26.2462 21.2082 27.0366 21.2095L27.0615 21.2095C27.3256 21.2094 27.6293 21.2093 28 21.2892V15.1698L21 17.0454V26.4996C21 27.6631 20.5623 28.6058 19.7331 29.2219C18.9528 29.8016 17.9497 29.9996 16.9643 29.9996C15.4332 29.9996 13.9998 28.8517 14 27.0352C14.0001 25.7997 14.7081 24.9362 15.5139 24.4273C16.2966 23.933 17.2462 23.7126 18.0366 23.7139L18.0615 23.7139C18.3256 23.7138 18.6293 23.7137 19 23.7936V15.5108L28.3712 12.9997ZM28 23.3839C27.8231 23.3111 27.6994 23.2724 27.6038 23.2499C27.4448 23.2126 27.3285 23.2095 27.0357 23.2095L27.0339 23.2095C26.571 23.2086 26.0032 23.3478 25.5818 23.6139C25.1832 23.8657 25 24.164 25 24.531C24.9999 25.1298 25.4212 25.4952 25.9643 25.4952C26.7243 25.4952 27.2391 25.3359 27.5403 25.1121C27.7925 24.9247 28 24.6175 28 23.9952V23.3839ZM19 25.8883C18.8231 25.8155 18.6994 25.7768 18.6038 25.7543C18.4448 25.717 18.3285 25.7139 18.0357 25.7139L18.0339 25.7139C17.571 25.713 17.0032 25.8522 16.5818 26.1183C16.1832 26.3701 16 26.6684 16 27.0354C15.9999 27.6342 16.4212 27.9996 16.9643 27.9996C17.7243 27.9996 18.2391 27.8403 18.5403 27.6165C18.7925 27.4291 19 27.1218 19 26.4996V25.8883Z" fill="#000000" class="bmwfcol"/><title>online-entertainment_rg_48</title></svg>