<svg width="48" height="48" viewBox="0 0 32 32" xmlns="http://www.w3.org/2000/svg"><path d="M27 12.9995V10.9996C27 10.4837 26.8378 9.95821 26.4396 9.56004C26.0414 9.16187 25.5159 8.99965 25 8.99965H15.4141C14.8082 8.39443 14.3139 7.90552 13.8877 7.52198C13.3927 7.07646 12.94 6.7266 12.4472 6.48023C11.483 5.99812 10.5068 5.99874 9.17162 5.99958L5 5.99965C4.48408 5.99965 3.95857 6.16187 3.5604 6.56004C3.16222 6.95821 3 7.48373 3 7.99965L3 26.9996L26.7677 26.9995L29.966 15.0633C30.0963 14.5774 30.0572 13.9737 29.6034 13.5121C29.1994 13.1009 28.6509 12.9995 28.2141 12.9995L27 12.9995ZM25 12.9995L9.21386 12.9995C8.25888 12.9995 7.31482 13.4972 7.03389 14.5457L5 22.1362L5 7.99965L9 7.99965C10.5759 7.99965 11.0578 8.02161 11.5528 8.26908C11.81 8.39771 12.1073 8.61034 12.5498 9.00857C12.9944 9.40872 13.5353 9.94918 14.2929 10.7068L14.5858 10.9996L25 10.9996V12.9995ZM6.3033 24.9996L8.96999 15.051C8.98525 15.0409 9.05954 14.9995 9.21386 14.9995L27.9126 14.9995L25.2331 24.9995L6.3033 24.9996Z" fill="#000000" class="bmwfcol"/><title>open_rg_48</title></svg>