<svg width="48" height="48" viewBox="0 0 32 32" xmlns="http://www.w3.org/2000/svg"><path d="M17 5V7H7.60805L8.50006 27.4303V28H14.0001C14.5108 28 14.8549 27.9997 15.1194 27.9857C15.2003 27.9815 15.2672 27.9762 15.3228 27.9702C15.1156 27.5232 15 27.0251 15 26.5C15 24.8441 16.1499 23.4568 17.6948 23.0931L17.8989 19H19.9014L19.6915 23.208C21.0379 23.6955 22 24.9854 22 26.5C22 28.433 20.433 30 18.5 30C17.8693 30 17.2776 29.8332 16.7666 29.5413C16.5931 29.6556 16.4042 29.7527 16.1913 29.8237C15.8789 29.9278 15.5567 29.9655 15.2245 29.983C14.9012 30 14.504 30 14.0265 30H6.50006V27.4739L5.60615 7H4V5H4.96502L5.03437 4.74118C5.16885 4.23931 5.33724 3.69235 5.67861 3.24074C6.05848 2.73821 6.57051 2.4507 7.1923 2.28408C7.77638 2.12757 8.51112 2.06342 9.41558 2.03186C10.3286 2 11.4968 2 12.9801 2H13.02C14.5033 2 15.6714 2 16.5845 2.03186C17.4889 2.06342 18.2236 2.12757 18.8077 2.28408C19.4295 2.4507 19.9415 2.73821 20.3214 3.24075C20.4983 3.47475 20.6287 3.73435 20.732 4H23V5.52025C23.0001 5.86107 23.0001 6.41142 22.937 7H20.9222C20.9704 6.66143 20.9888 6.31356 20.9958 6H19.2324L19.0338 5.25882C18.9003 4.76069 18.8097 4.55765 18.7259 4.44675C18.6806 4.38679 18.6012 4.2993 18.29 4.21592C17.9412 4.12244 17.4015 4.06158 16.5147 4.03064C15.6407 4.00014 14.5072 4 13 4C11.4928 4 10.3594 4.00014 9.48532 4.03064C8.59857 4.06158 8.05885 4.12244 7.70998 4.21592C7.39882 4.2993 7.3194 4.3868 7.27407 4.44676C7.20656 4.53607 7.13469 4.68515 7.03955 5H17ZM17 26.5C17 27.3284 17.6716 28 18.5 28C19.3284 28 20 27.3284 20 26.5C20 25.6716 19.3284 25 18.5 25C17.6716 25 17 25.6716 17 26.5Z" fill="#000000" class="bmwfcol"/><path d="M25.2252 8.88623C24.4074 8.88623 23.8062 9.00528 23.3393 9.2421C22.8685 9.48091 22.5531 9.82996 22.2917 10.2535C21.8436 10.979 21.7151 11.9609 21.7151 13.0225C21.7151 14.2802 21.9155 15.2228 22.3558 15.8779C22.6177 16.2655 22.9236 16.5831 23.3817 16.7992C23.835 17.0129 24.4195 17.119 25.2252 17.119C25.9419 17.119 26.4899 17.0252 26.9351 16.8242C27.3839 16.6215 27.7123 16.3172 28.0005 15.9242C28.4832 15.2697 28.7352 14.3065 28.7352 13.0225C28.7352 11.9173 28.5662 10.86 28.011 10.1016C27.7221 9.70253 27.3861 9.3936 26.9332 9.18748C26.4833 8.98276 25.9329 8.88623 25.2252 8.88623ZM23.692 11.9672C23.741 11.6519 23.8198 11.3956 23.9343 11.2089C24.1927 10.789 24.6176 10.6977 25.2252 10.6977C25.8315 10.6977 26.2406 10.8382 26.4956 11.2577C26.743 11.6641 26.8243 12.2607 26.8243 13.0225C26.8243 13.8205 26.74 14.4686 26.4113 14.8751C26.1406 15.2114 25.771 15.3075 25.2252 15.3075C24.5984 15.3075 24.1815 15.2065 23.9332 14.8144C23.8195 14.6331 23.7409 14.3825 23.6919 14.0712C23.6433 13.7615 23.626 13.4054 23.626 13.0225C23.626 12.6396 23.6433 12.2808 23.692 11.9672Z" fill="#000000" class="bmwfcol"/><path d="M20.4358 9.05524H18.5448V16.95H20.4358V9.05524Z" fill="#000000" class="bmwfcol"/><path d="M14.4676 9.05524H10.719V16.95H14.2091C15.2899 16.95 15.9803 16.7792 16.4995 16.3706C17.0555 15.9367 17.3116 15.2855 17.3116 14.5334C17.3116 14.0713 17.1731 13.629 16.9532 13.3393C16.8012 13.1369 16.6429 12.9878 16.4751 12.8504C16.5734 12.6999 16.683 12.5269 16.7874 12.348C17.0091 11.9679 17.1426 11.6152 17.1426 11.1041C17.1426 10.4667 16.836 9.8373 16.3123 9.46947C15.8516 9.14369 15.2908 9.05524 14.4676 9.05524ZM12.61 12.0869V10.827H14.2986C14.516 10.827 14.683 10.832 14.8141 10.8468C14.9461 10.8617 15.0275 10.8854 15.0802 10.9133C15.1766 10.964 15.2417 11.0727 15.2417 11.283C15.2417 11.4725 15.1694 11.6098 15.0601 11.7987C15.01 11.8845 14.9435 11.9925 14.8842 12.0869H12.61ZM12.61 15.1783V13.8587H14.1992C14.7089 13.8587 14.9476 13.8914 15.1156 13.9824C15.2244 14.0449 15.2914 14.1172 15.3335 14.1988C15.3769 14.2831 15.4007 14.3909 15.4007 14.5334C15.4007 14.7649 15.3523 14.8903 15.2307 14.999C15.0851 15.123 14.8704 15.1783 14.239 15.1783H12.61Z" fill="#000000" class="bmwfcol"/><title>organic_waste_bin_rg_48</title></svg>