<svg width="48" height="48" viewBox="0 0 32 32" xmlns="http://www.w3.org/2000/svg"><path d="M2.33594 4.00513H5.18488C5.8015 4.00513 6.23372 4.0709 6.59117 4.3236C6.99639 4.60827 7.23246 5.09402 7.23246 5.58525C7.23246 5.97796 7.12914 6.24997 6.96035 6.53932C6.89051 6.65905 6.81768 6.77507 6.75054 6.87867C6.86502 6.97508 6.97492 7.08223 7.08078 7.22328C7.25282 7.44995 7.3586 7.79138 7.3586 8.14515C7.3586 8.71838 7.16297 9.22085 6.73295 9.5565C6.33217 9.87187 5.80305 9.99981 4.99196 9.99981H2.33594V4.00513ZM3.84894 5.42909V6.26823H5.4678C5.50779 6.20422 5.5504 6.13474 5.58327 6.07841C5.66495 5.93731 5.71204 5.84539 5.71204 5.71881C5.71204 5.52269 5.61472 5.46358 5.43788 5.44359C5.343 5.43286 5.22068 5.42909 5.05874 5.42909H3.84894ZM3.84894 7.69219V8.57585H5.01422C5.48659 8.57585 5.62846 8.53319 5.72116 8.4545C5.79746 8.38612 5.83076 8.30855 5.83076 8.14515C5.83076 7.94816 5.79444 7.86489 5.6439 7.77814C5.53129 7.71737 5.36553 7.69219 4.98454 7.69219H3.84894Z" fill="#000000" class="bmwfcol"/><path d="M7.99224 4.00513H9.75512L10.997 6.84467L12.2389 4.00513H13.9795V9.99981H12.4962V6.84526L11.6027 8.88681H10.3691L9.47556 6.84526V9.99981H7.99224V4.00513Z" fill="#000000" class="bmwfcol"/><path d="M15.8987 4.00513H14.3474L15.5558 9.99981H17.2964L18.0272 7.35326L18.7579 9.99981H20.4834L21.6999 4.00513H20.171L19.4734 7.47454L18.7509 4.85101H17.319L16.5842 7.476L15.8987 4.00513Z" fill="#000000" class="bmwfcol"/><path d="M25.004 12.414L30.7111 6.70694L29.2969 5.29272L25.004 9.58562L23.2111 7.79272L21.7969 9.20694L25.004 12.414Z" fill="#000000" class="bmwfcol"/><path d="M6.50391 19.9998C6.50391 18.0668 8.07091 16.4998 10.0039 16.4998C11.9369 16.4998 13.5039 18.0668 13.5039 19.9998C13.5039 21.9328 11.9369 23.4998 10.0039 23.4998C8.07091 23.4998 6.50391 21.9328 6.50391 19.9998ZM10.0039 18.4998C9.17548 18.4998 8.50391 19.1713 8.50391 19.9998C8.50391 20.8282 9.17548 21.4998 10.0039 21.4998C10.8323 21.4998 11.5039 20.8282 11.5039 19.9998C11.5039 19.1713 10.8323 18.4998 10.0039 18.4998Z" fill="#000000" class="bmwfcol"/><path d="M8.73212 12.085L9.79762 13.3534C9.93444 13.3492 10.0714 13.3492 10.2082 13.3534L11.2726 12.0856C12.5119 12.3822 13.6208 12.8419 14.7024 13.5036L14.5577 15.1548C14.6575 15.2487 14.7545 15.3456 14.8484 15.4455L16.4978 15.3014C17.1638 16.3876 17.6226 17.4967 17.9192 18.7292L16.6507 19.7947C16.6549 19.9315 16.6549 20.0684 16.6507 20.2053L17.9186 21.2696C17.622 22.509 17.1622 23.6179 16.5005 24.6995L14.8493 24.5548C14.7554 24.6546 14.6585 24.7516 14.5586 24.8455L14.7027 26.4948C13.6166 27.1608 12.5074 27.6197 11.2749 27.9162L10.2094 26.6478C10.0726 26.652 9.9357 26.652 9.79888 26.6478L8.7345 27.9156C7.49512 27.619 6.3862 27.1593 5.30464 26.4976L5.44936 24.8464C5.34951 24.7525 5.25256 24.6556 5.15866 24.5557L3.50927 24.6998C2.84327 23.6136 2.38447 22.5045 2.08789 21.272L3.35633 20.2065C3.35215 20.0697 3.35215 19.9328 3.35633 19.796L2.0885 18.7316C2.38362 17.4984 2.84149 16.3887 3.50657 15.3017L5.15773 15.4464C5.25162 15.3466 5.34857 15.2496 5.44842 15.1557L5.30434 13.5063C6.39049 12.8403 7.49964 12.3815 8.73212 12.085ZM11.9874 14.3446L11.0672 15.4407C10.3474 15.3591 9.66214 15.3587 8.93896 15.4407L8.01877 14.3452C7.81043 14.4183 7.60633 14.503 7.40738 14.5988L7.53195 16.0247C6.96468 16.476 6.47989 16.9603 6.0265 17.5302L4.60022 17.4052C4.50472 17.6042 4.42036 17.8084 4.34752 18.0167L5.44362 18.9369C5.36205 19.6567 5.36164 20.342 5.4436 21.0652L4.34815 21.9853C4.42127 22.1937 4.50592 22.3978 4.60169 22.5968L6.02767 22.4722C6.47893 23.0395 6.96323 23.5243 7.53318 23.9776L7.40816 25.4039C7.60715 25.4994 7.8113 25.5838 8.01965 25.6566L8.93986 24.5605C9.65968 24.6421 10.3449 24.6425 11.0681 24.5605L11.9883 25.656C12.1966 25.5829 12.4007 25.4982 12.5997 25.4024L12.4751 23.9764C13.0424 23.5252 13.5272 23.0409 13.9806 22.471L15.4068 22.596C15.5023 22.397 15.5867 22.1928 15.6595 21.9845L14.5634 21.0643C14.645 20.3445 14.6454 19.6592 14.5635 18.936L15.6589 18.0158C15.5858 17.8075 15.5011 17.6034 15.4054 17.4045L13.9794 17.529C13.5281 16.9618 13.0438 16.477 12.4739 16.0236L12.5989 14.5973C12.3999 14.5018 12.1958 14.4174 11.9874 14.3446Z" fill="#000000" class="bmwfcol"/><path d="M19.0017 28C18.1278 28 17.2866 27.8599 16.4994 27.6009C17.0798 27.1041 17.6027 26.542 18.0566 25.926C18.3644 25.9747 18.6801 26 19.0017 26C20.3871 26 21.663 25.5309 22.6792 24.7414C22.519 24.6494 22.3727 24.533 22.2355 24.3935C21.8949 24.047 21.6435 23.6201 21.3948 23.2054C20.7694 23.6731 20.0026 23.962 19.1701 23.9965C19.4708 23.3075 19.6961 22.5779 19.8355 21.8184C20.5238 21.5023 21.0017 20.807 21.0017 20C21.0017 19.1929 20.5236 18.4975 19.8352 18.1815C19.6956 17.4219 19.4702 16.6925 19.1693 16.0035C20.0022 16.0378 20.7693 16.3268 21.3949 16.7946C21.6434 16.3802 21.8947 15.9535 22.2352 15.6071C22.3725 15.4674 22.519 15.3508 22.6794 15.2587C21.6631 14.4692 20.3872 14 19.0017 14C18.6797 14 18.3637 14.0254 18.0555 14.0742C17.6015 13.4582 17.0786 12.8962 16.498 12.3996C17.2856 12.1403 18.1273 12 19.0017 12C21.529 12 23.7823 13.1727 25.247 15.0001H26.5075C27.4053 16.552 28.001 18.1801 28.001 20.0001C28.001 21.8201 27.4053 23.4482 26.5075 25.0001H25.2469C23.7821 26.8274 21.5289 28 19.0017 28ZM22.7118 18.5021C22.8987 18.9648 23.0017 19.4704 23.0017 20C23.0017 20.5297 22.8987 21.0353 22.7117 21.498C22.9377 21.8881 23.1159 22.1916 23.2661 22.4328C23.4768 22.7714 23.5929 22.9213 23.6616 22.9912L23.6631 22.9927C24.2108 23.0459 24.7783 23.0001 25.3276 23.0001C25.7593 22.0917 26.001 21.0752 26.001 20.0001C26.001 18.925 25.7593 17.9085 25.3276 17.0001C24.7783 17.0001 24.2108 16.9543 23.6631 17.0075L23.6615 17.0091C23.5927 17.0791 23.4765 17.2293 23.2657 17.5681C23.1156 17.8092 22.9375 18.1125 22.7118 18.5021Z" fill="#000000" class="bmwfcol"/><title>original-bmw-parts_rg_48</title></svg>