<svg width="48" height="48" viewBox="0 0 32 32" xmlns="http://www.w3.org/2000/svg"><path d="M7.53285 13.7242C7.75128 13.3704 8.021 13.0693 8.42749 12.8631C8.82807 12.6599 9.33378 12.563 10.001 12.563C10.5796 12.563 11.0421 12.6418 11.4267 12.8168C11.8159 12.9939 12.1027 13.2593 12.3449 13.5939C12.8163 14.238 12.9517 15.1219 12.9517 16.0151C12.9517 17.0585 12.7474 17.864 12.3361 18.4217C12.0949 18.7506 11.8144 19.0125 11.4279 19.187C11.0467 19.3591 10.586 19.4355 10.001 19.4355C9.34506 19.4355 8.85394 19.3494 8.46508 19.166C8.0689 18.9792 7.80635 18.7043 7.58728 18.3801C7.2118 17.8214 7.05029 17.033 7.05029 16.0151C7.05029 15.1596 7.15264 14.3399 7.53285 13.7242ZM8.92909 15.0898C8.92275 15.1225 8.91684 15.1564 8.91138 15.1916C8.87394 15.4326 8.86021 15.7119 8.86021 16.0151C8.86021 16.3184 8.87396 16.5955 8.9113 16.8332C8.94905 17.0735 9.00792 17.2532 9.08468 17.3756C9.24164 17.6233 9.50573 17.7051 10.001 17.7051C10.4235 17.7051 10.6652 17.6306 10.8419 17.4111C10.9081 17.3292 10.9614 17.2311 11.0033 17.1182C11.1061 16.8407 11.1417 16.4708 11.1417 16.0151C11.1417 15.4077 11.0753 14.9644 10.8989 14.6747C10.7318 14.3997 10.4657 14.2933 10.001 14.2933C9.52067 14.2933 9.25167 14.3676 9.08645 14.6359C9.01971 14.7448 8.96671 14.8958 8.92909 15.0898Z" fill="#000000" class="bmwfcol"/><path d="M11.6054 4.60539C11.9332 4.27755 12.4248 4 13 4H25C25.5752 4 26.0668 4.27755 26.3946 4.60539C26.7225 4.93324 27 5.42477 27 6V16.2266L27.3926 16L29 16.0001V26C29 26.5159 28.8378 27.0415 28.4396 27.4396C28.0414 27.8378 27.5159 28 27 28H11C10.4841 28 9.95856 27.8378 9.56039 27.4396C9.16222 27.0415 9 26.5159 9 26V23H5C4.48408 23 3.95856 22.8378 3.56039 22.4396C3.16222 22.0414 3 21.5159 3 21V11C3 10.4841 3.16222 9.95856 3.56039 9.56039C3.95856 9.16222 4.48408 9 5 9H11V6C11 5.42477 11.2775 4.93324 11.6054 4.60539ZM11 26H23.9284L16.8161 21.8937C16.727 22.0909 16.6032 22.276 16.4396 22.4396C16.0414 22.8378 15.5159 23 15 23H11V26ZM19.0002 20.8453L25 17.3813V6.0423H13.0003L13.0001 9H15C15.5159 9 16.0414 9.16222 16.4396 9.56039C16.8378 9.95856 17 10.4841 17 11V19.6905L19.0002 20.8453ZM21.0002 22L27 25.464V18.536L21.0002 22ZM5 11V21H14.999L15 11H5Z" fill="#000000" class="bmwfcol"/><title>outlook_rg_48</title></svg>