<svg width="48" height="48" viewBox="0 0 32 32" xmlns="http://www.w3.org/2000/svg"><path d="M6.00821 6C6.00349 6.03222 6 6.07358 6 6.125L6 12.875C6 12.9264 6.00349 12.9678 6.00821 13L12.9918 13C12.9965 12.9678 13 12.9264 13 12.875V6.125C13 6.07358 12.9965 6.03222 12.9918 6H6.00821ZM4.45988 4.67624C4.81935 4.2269 5.34113 4 5.9 4H13.1C13.6589 4 14.1806 4.2269 14.5401 4.67624C14.8785 5.09917 15 5.62541 15 6.125V12.875C15 13.3746 14.8785 13.9008 14.5401 14.3238C14.1806 14.7731 13.6589 15 13.1 15L5.9 15C5.34113 15 4.81935 14.7731 4.45988 14.3238C4.12154 13.9008 4 13.3746 4 12.875L4 6.125C4 5.62541 4.12154 5.09917 4.45988 4.67624Z" fill="#000000" class="bmwfcol"/><path d="M19.0082 6C19.0035 6.03222 19 6.07358 19 6.125L19 12.875C19 12.9264 19.0035 12.9678 19.0082 13L25.9918 13C25.9965 12.9678 26 12.9264 26 12.875V6.125C26 6.07358 25.9965 6.03222 25.9918 6H19.0082ZM17.4599 4.67624C17.8194 4.2269 18.3411 4 18.9 4H26.1C26.6589 4 27.1806 4.2269 27.5401 4.67624C27.8785 5.09917 28 5.62541 28 6.125V12.875C28 13.3746 27.8785 13.9008 27.5401 14.3238C27.1806 14.7731 26.6589 15 26.1 15L18.9 15C18.3411 15 17.8194 14.7731 17.4599 14.3238C17.1215 13.9008 17 13.3746 17 12.875L17 6.125C17 5.62541 17.1215 5.09917 17.4599 4.67624Z" fill="#000000" class="bmwfcol"/><path d="M6.00821 19C6.00349 19.0322 6 19.0736 6 19.125L6 25.875C6 25.9264 6.00349 25.9678 6.00821 26L12.9918 26C12.9965 25.9678 13 25.9264 13 25.875V19.125C13 19.0736 12.9965 19.0322 12.9918 19H6.00821ZM4.45988 17.6762C4.81935 17.2269 5.34113 17 5.9 17H13.1C13.6589 17 14.1806 17.2269 14.5401 17.6762C14.8785 18.0992 15 18.6254 15 19.125V25.875C15 26.3746 14.8785 26.9008 14.5401 27.3238C14.1806 27.7731 13.6589 28 13.1 28L5.9 28C5.34113 28 4.81935 27.7731 4.45988 27.3238C4.12154 26.9008 4 26.3746 4 25.875L4 19.125C4 18.6254 4.12154 18.0992 4.45988 17.6762Z" fill="#000000" class="bmwfcol"/><path d="M19.0082 19C19.0035 19.0322 19 19.0736 19 19.125L19 25.875C19 25.9264 19.0035 25.9678 19.0082 26L25.9918 26C25.9965 25.9678 26 25.9264 26 25.875V19.125C26 19.0736 25.9965 19.0322 25.9918 19H19.0082ZM17.4599 17.6762C17.8194 17.2269 18.3411 17 18.9 17H26.1C26.6589 17 27.1806 17.2269 27.5401 17.6762C27.8785 18.0992 28 18.6254 28 19.125V25.875C28 26.3746 27.8785 26.9008 27.5401 27.3238C27.1806 27.7731 26.6589 28 26.1 28L18.9 28C18.3411 28 17.8194 27.7731 17.4599 27.3238C17.1215 26.9008 17 26.3746 17 25.875L17 19.125C17 18.6254 17.1215 18.0992 17.4599 17.6762Z" fill="#000000" class="bmwfcol"/><title>overview_rg_48</title></svg>