<svg width="48" height="48" viewBox="0 0 32 32" xmlns="http://www.w3.org/2000/svg"><path d="M6.00003 2H20L20.0001 7.19112C20.0004 10.0118 20.0007 11.8338 19.2278 13.5902C18.6278 14.954 17.5806 16.2389 15.8883 18L22.0001 18V20H15.4147C14.8192 20.598 14.47 20.9624 14.2512 21.2687C14.0502 21.5501 14 21.7244 14 22V26H12V22C12 21.2756 12.1998 20.6999 12.6238 20.1063C12.6488 20.0711 12.6748 20.0358 12.7017 20.0002C11.8437 20.0019 11.2707 20.0157 10.7431 20.1212C10.1984 20.2301 9.66717 20.4467 8.94429 20.9472C7.5675 21.9004 5.67626 23.744 2 27.4149V24.5911C4.77148 21.8387 6.47319 20.2254 7.80587 19.3028C8.68325 18.6954 9.44633 18.3515 10.2802 18.1746C8.48854 16.323 7.39191 14.9986 6.77222 13.5902C5.99939 11.8338 5.99963 10.0118 6.00002 7.19112L6.00003 2ZM18 4H8.00003V6.00257C9.87977 6.03186 11.6166 6.41325 13.368 7.07004C14.5835 7.52586 15.7368 7.95836 17.9985 7.99717C17.9998 7.68551 18 7.35395 18 7V4ZM8.60285 12.7848C9.17855 14.0932 10.3338 15.4085 12.9148 18H13.0852C15.6662 15.4085 16.8215 14.0932 17.3972 12.7848C17.7465 11.9911 17.8936 11.1772 17.9554 9.99669C16.0914 9.96359 14.3685 9.58123 12.6317 8.92991C11.4162 8.4741 10.2631 8.04165 8.00162 8.00283C8.01183 10.3906 8.08584 11.6097 8.60285 12.7848Z" fill="#000000" class="bmwfcol"/><path d="M30 13.2266V10.9172L24 14.3813V16.6907L30 13.2266Z" fill="#000000" class="bmwfcol"/><path d="M30 18.0001V20.0001H24V18.0001H30Z" fill="#000000" class="bmwfcol"/><path d="M30 27.083L24 23.6189V21.3095L30 24.7736V27.083Z" fill="#000000" class="bmwfcol"/><title>paint-works_rg_48</title></svg>