<svg width="48" height="48" viewBox="0 0 32 32" xmlns="http://www.w3.org/2000/svg"><path d="M16 7.5C15.1716 7.5 14.5 8.17157 14.5 9C14.5 9.82843 15.1716 10.5 16 10.5C16.8284 10.5 17.5 9.82843 17.5 9C17.5 8.17157 16.8284 7.5 16 7.5Z" fill="#000000" class="bmwfcol"/><path d="M10 11C9.17157 11 8.5 11.6716 8.5 12.5C8.5 13.3284 9.17157 14 10 14C10.8284 14 11.5 13.3284 11.5 12.5C11.5 11.6716 10.8284 11 10 11Z" fill="#000000" class="bmwfcol"/><path d="M10 18C9.17157 18 8.5 18.6716 8.5 19.5C8.5 20.3284 9.17157 21 10 21C10.8284 21 11.5 20.3284 11.5 19.5C11.5 18.6716 10.8284 18 10 18Z" fill="#000000" class="bmwfcol"/><path d="M22 11C21.1716 11 20.5 11.6716 20.5 12.5C20.5 13.3284 21.1716 14 22 14C22.8284 14 23.5 13.3284 23.5 12.5C23.5 11.6716 22.8284 11 22 11Z" fill="#000000" class="bmwfcol"/><path d="M6.59289 6.59289C8.90567 4.28011 12.1728 3 16 3C19.8272 3 23.0943 4.28011 25.4071 6.59289C27.7199 8.90567 29 12.1728 29 16C29 17.137 28.8873 18.225 28.6673 19.2545C28.4941 20.0646 28.0794 20.7727 27.4229 21.2711C26.7714 21.7659 25.9541 22 25.0606 22H21C20.1137 22 19.4693 22.0004 18.9621 22.0296C18.4536 22.0589 18.1646 22.1142 17.9711 22.1866C17.6956 22.2897 17.4848 22.4612 17.0002 23.2718L17.0001 25.0001C17.0001 26.2276 16.5774 27.2899 15.7708 27.9856C14.9616 28.6835 13.8879 28.9056 12.8146 28.6818C6.80197 27.4281 3 22.5891 3 16C3 12.1728 4.28011 8.90567 6.59289 6.59289ZM8.00711 8.00711C6.11989 9.89433 5 12.6272 5 16C5 21.717 8.20914 25.6785 13.2229 26.724C13.7715 26.8384 14.1886 26.7091 14.4646 26.471C14.7431 26.2308 15.0001 25.7725 15.0001 25.0001L15.0003 22.7321L15.1342 22.5C15.7068 21.5083 16.2337 20.7013 17.2702 20.3134C17.7448 20.1358 18.2704 20.0661 18.8471 20.0329C19.4185 20 20.1201 20 20.9705 20H25.0606C25.6065 20 25.9748 19.8595 26.2134 19.6783C26.4471 19.5009 26.627 19.2317 26.7114 18.8365C26.9004 17.9523 27 17.0048 27 16C27 12.6272 25.8801 9.89433 23.9929 8.00711C22.1057 6.11989 19.3728 5 16 5C12.6272 5 9.89433 6.11989 8.00711 8.00711Z" fill="#000000" class="bmwfcol"/><title>palette_rg_48</title></svg>