<svg width="48" height="48" viewBox="0 0 32 32" xmlns="http://www.w3.org/2000/svg"><path d="M10 29.0001H27L27 14.8669C27.0005 13.7394 27.0009 12.8263 26.6898 11.9708C26.3574 11.0567 25.7107 10.2965 24.7071 9.29297L20.7071 5.29297C19.7036 4.28942 18.9434 3.64269 18.0292 3.31028C17.1737 2.99919 16.2607 2.99957 15.1332 3.00004L15.0306 3.00006L15 3L5 3.00007V11H7V5.00007L15.0286 5.00007C15.809 5.00418 16.1977 5.17698 16.4373 5.45403C16.7174 5.77801 17 6.47601 17 8V13H22C23.524 13 24.222 13.2826 24.546 13.5627C24.8264 13.8052 25 14.2004 25 15V27.0001H10V29.0001ZM22 11H19V8C19 7.37948 18.9599 6.81022 18.871 6.29487C19.001 6.41845 19.1411 6.55535 19.2929 6.70718L23.2929 10.7072C23.4447 10.859 23.5816 10.999 23.7051 11.129C23.1898 11.0401 22.6205 11 22 11Z" fill="#000000" class="bmwfcol"/><path d="M7.99981 13.5859L7.29271 14.293C5.25429 16.3314 4.12072 18.0652 3.84112 19.6528C3.60971 20.9667 3.97997 22.0481 4.64122 22.9529C3.62612 23.9977 2.95754 24.7868 2.55634 25.5656C2.03896 26.5699 2 27.487 2 28.6251V30.0001L4 30V28.6251C4 27.5132 4.05479 27.024 4.33429 26.4815C4.59698 25.9715 5.08029 25.3743 6.05729 24.3662C6.95995 25.0227 8.03813 25.3893 9.34711 25.1588C10.9347 24.8792 12.6685 23.7456 14.7069 21.7072L15.414 21.0001L13.914 19.5001L16.7069 16.7072L15.2927 15.293L12.4998 18.0859L10.914 16.5001L13.7069 13.7072L12.2927 12.293L9.49981 15.0859L7.99981 13.5859ZM12.5713 20.9858C10.9891 22.4398 9.84063 23.0411 9.00022 23.1891C8.15009 23.3388 7.46116 23.0472 6.70692 22.293C5.95268 21.5387 5.66108 20.8498 5.8108 19.9997C5.95882 19.1593 6.56006 18.0108 8.01407 16.4285L12.5713 20.9858Z" fill="#000000" class="bmwfcol"/><title>paper_and_plug_rg_48</title></svg>