<svg width="48" height="48" viewBox="0 0 32 32" xmlns="http://www.w3.org/2000/svg"><path d="M10.5 13.501C10.5 12.6725 11.1716 12.001 12 12.001C12.8284 12.001 13.5 12.6725 13.5 13.501C13.5 14.3294 12.8284 15.001 12 15.001C11.1716 15.001 10.5 14.3294 10.5 13.501Z" fill="#000000" class="bmwfcol"/><path d="M18.5 13.501C18.5 12.6725 19.1716 12.001 20 12.001C20.8284 12.001 21.5 12.6725 21.5 13.501C21.5 14.3294 20.8284 15.001 20 15.001C19.1716 15.001 18.5 14.3294 18.5 13.501Z" fill="#000000" class="bmwfcol"/><path d="M11 9V7.28571C11 5.45305 11.4541 4.05688 12.4486 3.14357C13.4272 2.24482 14.7307 2 16 2C17.2693 2 18.5728 2.24482 19.5514 3.14357C20.5459 4.05688 21 5.45305 21 7.28571V9H26.9994L27.0001 10.5368L26.0145 23.8433L27.0002 26.3076L26.9994 28H5.00103L5 26.3077L5.98577 23.8433L5.00009 10.5366L5.00114 9H11ZM13 7.28571V9H19V7.28571C19 5.75103 18.6208 5.00434 18.1986 4.61663C17.7606 4.21437 17.0641 4 16 4C14.9359 4 14.2394 4.21437 13.8014 4.61663C13.3792 5.00434 13 5.75103 13 7.28571ZM8.01447 24.1567L7.27715 26H24.7231L23.9858 24.1567L24.9603 11H7.03989L8.01447 24.1567Z" fill="#000000" class="bmwfcol"/><title>paper_bag_rg_48</title></svg>