<svg width="48" height="48" viewBox="0 0 32 32" xmlns="http://www.w3.org/2000/svg"><path d="M21 20.0001H15V18.0001H21V20.0001Z" fill="#000000" class="bmwfcol"/><path d="M11 24.0001H21V22.0001H11V24.0001Z" fill="#000000" class="bmwfcol"/><path d="M15.1332 3.00004L5 3.00007V29.0001H27L27 14.8669C27.0005 13.7394 27.0009 12.8263 26.6898 11.9708C26.3574 11.0567 25.7107 10.2965 24.7071 9.29297L20.7071 5.29297C19.7036 4.28942 18.9434 3.64269 18.0292 3.31028C17.1737 2.99919 16.2607 2.99957 15.1332 3.00004ZM23.2929 10.7072C23.4447 10.859 23.5816 10.9991 23.7052 11.1291C23.1898 11.0402 22.6206 11.0001 22 11.0001H19V8.00007C19 7.37951 18.9599 6.81022 18.871 6.29485C19.001 6.41844 19.1411 6.55534 19.2929 6.70718L23.2929 10.7072ZM24.546 13.5628C24.8264 13.8052 25 14.2005 25 15.0001V27.0001H7V5.00007H15C15.7996 5.00007 16.1948 5.17369 16.4373 5.4541C16.7174 5.77809 17 6.47608 17 8.00007V13.0001H22C23.524 13.0001 24.222 13.2827 24.546 13.5628Z" fill="#000000" class="bmwfcol"/><path d="M10 7.50008V12.0001H12V13.5H10.6338L13 17.4437L15.3662 13.5H14V10.0001H12V7.50008H10Z" fill="#000000" class="bmwfcol"/><title>paper_lightning_bolt_text_rg_48</title></svg>