<svg width="48" height="48" viewBox="0 0 32 32" xmlns="http://www.w3.org/2000/svg"><path d="M2.5 13.2126L4.57948 12.5796L5.21244 10.5001H6.7873L7.42025 12.5796L9.5 13.2126V14.7874L7.42025 15.4204L6.78727 17.5001H5.21246L4.57948 15.4204L2.5 14.7875V13.2126ZM5.99987 12.721L5.70142 13.7016L4.72085 14L5.70142 14.2985L5.99987 15.279L6.29832 14.2985L7.27889 14L6.29832 13.7016L5.99987 12.721Z" fill="#000000" class="bmwfcol"/><path d="M13.5 18.1067L16.2651 17.2651L17.1067 14.5H18.8934L19.7349 17.2651L22.5 18.1067V19.8933L19.7349 20.7349L18.8933 23.5H17.1067L16.2651 20.7349L13.5 19.8933V18.1067ZM18 17.0599L17.5473 18.5473L16.06 19L17.5473 19.4527L18 20.9401L18.4527 19.4527L19.9401 19L18.4527 18.5473L18 17.0599Z" fill="#000000" class="bmwfcol"/><path d="M3 23.0773L6.89248 21.8925L8.07722 18.0001H9.9228L11.1075 21.8925L15 23.0773V24.9229L11.1075 26.1076L9.92279 30.0001H8.07723L6.89248 26.1076L3 24.9228V23.0773ZM9.00001 20.9783L8.29489 23.295L5.97824 24.0001L8.29489 24.7052L9.00001 27.0218L9.70512 24.7052L12.0218 24.0001L9.70512 23.295L9.00001 20.9783Z" fill="#000000" class="bmwfcol"/><path d="M15.1332 3.00004L5 3.00007V8.00008H7V5.00007H15C15.7996 5.00007 16.1948 5.17369 16.4373 5.4541C16.7174 5.77809 17 6.47608 17 8.00007V13.0001H22C23.524 13.0001 24.222 13.2827 24.546 13.5628C24.8264 13.8052 25 14.2005 25 15.0001V27.0001H13.9998V29.0001H27L27 14.8669C27.0005 13.7394 27.0009 12.8263 26.6898 11.9708C26.3574 11.0567 25.7107 10.2965 24.7071 9.29297L20.7071 5.29297C19.7036 4.28942 18.9434 3.64269 18.0292 3.31028C17.1737 2.99919 16.2607 2.99957 15.1332 3.00004ZM23.2929 10.7072C23.4447 10.859 23.5816 10.9991 23.7052 11.1291C23.1898 11.0402 22.6206 11.0001 22 11.0001H19V8.00007C19 7.37951 18.9599 6.81022 18.871 6.29485C19.001 6.41844 19.1411 6.55534 19.2929 6.70718L23.2929 10.7072Z" fill="#000000" class="bmwfcol"/><title>paper_and_stars_rg_48</title></svg>