<svg width="48" height="48" viewBox="0 0 32 32" xmlns="http://www.w3.org/2000/svg"><path d="M18 27.0001H7V5.00007H15C15.7996 5.00007 16.1948 5.17373 16.4373 5.45415C16.7174 5.77814 17 6.47613 17 8.00012V13.0001H22C23.524 13.0001 24.222 13.2827 24.546 13.5628C24.8264 13.8053 25 14.2005 25 15.0001H27L27 14.8669C27.0005 13.7394 27.0009 12.8263 26.6898 11.9708C26.3574 11.0567 25.7107 10.2965 24.7071 9.29297L20.7071 5.29297C19.7036 4.28942 18.9434 3.64269 18.0292 3.31028C17.1737 2.99919 16.2607 2.99957 15.1332 3.00004L5 3.00007V29.0001H18V27.0001ZM22 11.0001H19V8.00012C19 7.37954 18.9599 6.81023 18.871 6.29484C19.001 6.41843 19.1411 6.55534 19.2929 6.70718L23.2929 10.7072C23.4448 10.859 23.5817 10.9991 23.7053 11.1292C23.1899 11.0402 22.6206 11.0001 22 11.0001Z" fill="#000000" class="bmwfcol"/><path d="M21 26.4462V28.4759C22.1181 28.6654 23.1642 28.8107 23.8308 28.8107C24.2545 28.8107 24.6952 28.7836 25.1054 28.7026C25.5042 28.6239 25.9524 28.4793 26.3258 28.1902C26.5875 27.9876 26.834 27.7333 27.0097 27.4004C27.1884 27.062 27.2639 26.6995 27.2639 26.3257C27.2639 25.7817 27.1327 25.2146 26.7349 24.7705C26.847 24.6373 26.9485 24.5138 27.0259 24.4146C27.1645 24.2368 27.3267 24.0156 27.4436 23.7436C27.5693 23.4515 27.6216 23.1537 27.6216 22.8316C27.6216 22.1853 27.3266 21.4466 26.6922 21.0452C25.8619 20.5198 24.6703 19.9305 23.6251 19.4501C23.3872 19.3409 23.2327 19.2682 23.1233 19.2134C23.0193 19.1614 22.9753 19.135 22.953 19.1204C22.9355 19.1089 22.9182 19.0964 22.8684 19.0539C22.8503 19.0386 22.8088 18.9937 22.7744 18.9265C22.7418 18.8628 22.7292 18.8057 22.7292 18.7609C22.7292 18.6304 22.7494 18.5776 22.7548 18.5656C22.7572 18.5603 22.7589 18.558 22.761 18.5555C22.7634 18.5527 22.7727 18.5423 22.7961 18.5263C22.8581 18.4841 22.9821 18.4304 23.2137 18.3942C23.4429 18.3583 23.7122 18.3488 24.0293 18.3488C24.369 18.3488 25.1897 18.4109 27 18.7737V16.7355C25.3911 16.4265 24.5207 16.3488 24.0293 16.3488C23.6921 16.3488 23.2943 16.3573 22.9045 16.4182C22.517 16.4789 22.07 16.6008 21.6696 16.8738C20.9592 17.3581 20.7292 18.0714 20.7292 18.7609C20.7292 19.3487 20.9557 19.8563 21.2402 20.2258C21.1048 20.3886 20.9812 20.544 20.8914 20.6683C20.6535 20.9981 20.3547 21.4965 20.3713 22.1988C20.385 22.7744 20.5937 23.4376 21.1222 23.8628C21.5937 24.2421 21.9474 24.4398 22.4866 24.696C22.8062 24.8479 23.1153 24.9991 23.4237 25.15L23.434 25.155C23.7441 25.3067 24.0545 25.4585 24.3646 25.6052C24.5073 25.6727 24.6383 25.7431 24.7611 25.8137C24.8796 25.8818 24.9757 25.9411 25.0757 26.0026C25.1269 26.0342 25.1792 26.0664 25.236 26.1008L25.2389 26.1026C25.2466 26.1245 25.2639 26.1893 25.2639 26.3257C25.2639 26.4232 25.2465 26.4565 25.2411 26.4666C25.2329 26.4822 25.2042 26.5292 25.1014 26.6088C25.0737 26.6303 24.9669 26.6913 24.7179 26.7405C24.4802 26.7874 24.1801 26.8107 23.8308 26.8107C23.2736 26.8107 22.2342 26.6615 21 26.4462ZM22.9254 21.33C23.9024 21.7825 24.9139 22.2904 25.594 22.7171L25.5972 22.7233C25.6035 22.7363 25.61 22.7536 25.6147 22.774C25.6194 22.7943 25.6216 22.8141 25.6216 22.8316C25.6216 22.9195 25.6104 22.9444 25.6068 22.9523L25.6063 22.9535C25.5949 22.9801 25.565 23.0356 25.4487 23.1847C25.3499 23.3114 25.1913 23.5003 25.0186 23.7014C24.7879 23.5908 24.5544 23.4766 24.3129 23.3584L24.2985 23.3514C23.9927 23.2018 23.6749 23.0463 23.3448 22.8895C22.9075 22.6818 22.7 22.5623 22.4035 22.3265L22.4012 22.3213C22.3883 22.2902 22.3727 22.2324 22.3708 22.1515C22.3697 22.108 22.3765 22.0772 22.3907 22.042C22.4083 21.9983 22.4417 21.9378 22.5133 21.8387C22.601 21.7171 22.7567 21.5269 22.9254 21.33Z" fill="#000000" class="bmwfcol"/><path d="M10 7.5V12H12V13.5H10.6338L13 17.4436L15.3662 13.5H14V10H12V7.5H10Z" fill="#000000" class="bmwfcol"/><title>paper_with_paragraph_and_electricity_rg_48</title></svg>