<svg width="48" height="48" viewBox="0 0 32 32" xmlns="http://www.w3.org/2000/svg"><path d="M24.998 15C24.998 14.2005 24.8244 13.8052 24.544 13.5628C24.22 13.2827 23.522 13.0001 21.998 13.0001H16.998V8.00007C16.998 6.47608 16.7154 5.77809 16.4353 5.4541C16.1929 5.17369 15.7976 5.00007 14.998 5.00007H6.99805V27.0001H13.998V29.0001H4.99805V3.00007L15.1312 3.00004C16.2587 2.99957 17.1718 2.99919 18.0273 3.31028C18.9414 3.64269 19.7016 4.28942 20.7052 5.29297L24.7052 9.29297C25.7087 10.2965 26.3554 11.0567 26.6878 11.9708C26.9989 12.8263 26.9986 13.7394 26.9981 14.8669V15H24.998ZM23.2909 10.7072L19.2909 6.70718C19.1391 6.55534 18.999 6.41844 18.869 6.29485C18.958 6.81022 18.998 7.37951 18.998 8.00007V11.0001H21.998C22.6186 11.0001 23.1879 11.0402 23.7033 11.1291C23.5797 10.9991 23.4428 10.859 23.2909 10.7072Z" fill="#000000" class="bmwfcol"/><path d="M25.0587 29L26.0587 30H23.9374L21.9375 28.0001L23.9376 26H26.0589L25.0589 27H27.0376C27.2163 27 27.3813 26.9047 27.4706 26.75L27.7611 26.2469C27.8504 26.0923 27.8504 25.9018 27.7612 25.7471L26.743 23.9816L28.4755 22.9824L29.4937 24.748C29.9397 25.5213 29.9395 26.4738 29.4931 27.2469L29.2027 27.75C28.7561 28.5235 27.9308 29 27.0376 29H25.0587Z" fill="#000000" class="bmwfcol"/><path d="M19.9223 20.8333L20.6537 23.5629L19.593 25.4L19.2265 24.0321L18.235 25.7495C18.1456 25.9042 18.1456 26.0948 18.235 26.2495L18.5239 26.75C18.6132 26.9047 18.7783 27 18.9569 27H20.9978V29H18.9569C18.0638 29 17.2384 28.5235 16.7919 27.75L16.5029 27.2495C16.0563 26.476 16.0563 25.523 16.5029 24.7495L17.4913 23.0376L16.127 23.4031L17.1876 21.566L19.9223 20.8333Z" fill="#000000" class="bmwfcol"/><path d="M26.809 18.0981L26.4429 19.4647L25.4529 17.75C25.0064 16.9765 24.1811 16.5 23.2879 16.5H22.7101C21.8173 16.5 20.9923 16.9761 20.5456 17.749L19.5234 19.5176L21.255 20.5184L22.2772 18.7498C22.3665 18.5952 22.5315 18.5 22.7101 18.5H23.2879C23.4665 18.5 23.6316 18.5953 23.7209 18.75L24.7115 20.4657L23.3457 20.0998L24.4064 21.9369L27.1373 22.6687L27.8697 19.9353L26.809 18.0981Z" fill="#000000" class="bmwfcol"/><title>paper_and_recycling_symbol_rg_48</title></svg>