<svg width="48" height="48" viewBox="0 0 32 32" xmlns="http://www.w3.org/2000/svg"><path d="M8 13.396V11.2313L16.0002 7.91749L24 11.2311V13.3959L16.0002 10.0823L8 13.396Z" fill="#000000" class="bmwfcol"/><path d="M16.3423 13.0001L12 13V24H14V19.9991C15.0376 19.9969 16.1751 19.989 16.6237 19.9611C17.389 19.9134 18.3161 19.7221 19.0559 19.0563C19.9239 18.2752 20 17.1123 20 16.402C20 15.5255 19.7609 14.6375 19.1142 13.9318C18.3753 13.1257 17.3841 12.9965 16.3423 13.0001ZM16.4994 17.9649C16.1093 17.9892 15.0307 17.9968 14 17.9991V15L16.344 15.0001L16.3476 15.0001C17.29 14.9967 17.5094 15.1409 17.6398 15.2833C17.8629 15.5266 18 15.8829 18 16.402C18 17.0875 17.8834 17.4209 17.718 17.5697C17.4652 17.7973 17.0718 17.9293 16.4994 17.9649Z" fill="#000000" class="bmwfcol"/><path d="M4.56039 4.56039C4.95856 4.16222 5.48408 4 6 4H26C26.5159 4 27.0414 4.16222 27.4396 4.56039C27.8378 4.95856 28 5.48408 28 6V26C28 26.5159 27.8378 27.0414 27.4396 27.4396C27.0414 27.8378 26.5159 28 26 28H6C5.48408 28 4.95856 27.8378 4.56039 27.4396C4.16222 27.0414 4 26.5159 4 26V6C4 5.48408 4.16222 4.95856 4.56039 4.56039ZM6 6V26H26V6H6Z" fill="#000000" class="bmwfcol"/><title>parking-garage_rg_48</title></svg>