<svg width="48" height="48" viewBox="0 0 32 32" xmlns="http://www.w3.org/2000/svg"><path d="M7.37994 2.00011L2 2V16H4V10.9994C5.4568 10.9974 7.08845 10.9881 7.74146 10.9475C8.75319 10.8845 9.92362 10.6336 10.8463 9.80321C11.3975 9.30718 11.6779 8.66652 11.8245 8.07485C11.9705 7.48536 12 6.87805 12 6.37002C12 5.2742 11.7267 4.05667 10.9009 3.15571C10.0017 2.1747 8.78735 1.99525 7.37994 2.00011ZM7.61715 8.95134C7.0273 8.98807 5.4589 8.99723 4 8.99939V4.00004L7.38525 4.00011C8.69338 3.99544 9.1358 4.18996 9.42651 4.50712C9.79099 4.90475 10 5.55598 10 6.37002C10 6.81692 9.97171 7.23642 9.88313 7.59406C9.7951 7.94952 9.66424 8.17635 9.50841 8.31659C9.07266 8.70875 8.43605 8.90034 7.61715 8.95134Z" fill="#000000" class="bmwfcol"/><path d="M14 8C14 10.7933 12.0164 13 9 13V15C13.1836 15 16 11.8341 16 8H14Z" fill="#000000" class="bmwfcol"/><path d="M9 17C14.4164 17 18 13.0024 18 8H20C20 14.0433 15.5836 19 9 19V17Z" fill="#000000" class="bmwfcol"/><path d="M9 21C16.8164 21 22 15.2116 22 8H24C24 16.2524 17.9836 23 9 23V21Z" fill="#000000" class="bmwfcol"/><path d="M23.8406 16H26.1599L29.3753 28H31V30H19V28H20.6253L23.8406 16ZM22.6958 28H27.3048L26.7689 26H23.2317L22.6958 28ZM26.233 24L25.0003 19.3995L23.7676 24H26.233Z" fill="#000000" class="bmwfcol"/><title>park-distance-control_rg_48</title></svg>