<svg width="48" height="48" viewBox="0 0 32 32" xmlns="http://www.w3.org/2000/svg"><path d="M2 2L7.37994 2.00011C8.78735 1.99525 10.0017 2.1747 10.9009 3.15571C11.7267 4.05667 12 5.2742 12 6.37002C12 6.87805 11.9705 7.48536 11.8245 8.07485C11.6779 8.66652 11.3975 9.30718 10.8463 9.80321C9.92362 10.6336 8.75319 10.8845 7.74146 10.9475C7.08845 10.9881 5.4568 10.9974 4 10.9994V16H2V2ZM4 8.99939C5.4589 8.99723 7.0273 8.98807 7.61715 8.95134C8.43605 8.90034 9.07266 8.70875 9.50841 8.31659C9.66424 8.17635 9.7951 7.94952 9.88313 7.59406C9.97171 7.23642 10 6.81692 10 6.37002C10 5.55598 9.79099 4.90475 9.42651 4.50712C9.1358 4.18996 8.68979 3.99544 7.38166 4.00011L4 4.00004V8.99939Z" fill="#000000" class="bmwfcol"/><path d="M19 17.5C18.1716 17.5 17.5 18.1716 17.5 19C17.5 19.8284 18.1716 20.5 19 20.5C19.8284 20.5 20.5 19.8284 20.5 19C20.5 18.1716 19.8284 17.5 19 17.5Z" fill="#000000" class="bmwfcol"/><path d="M11.0429 11.0429C13.0057 9.08013 15.7728 8.00002 19 8.00002C22.2272 8.00002 24.9943 9.08013 26.9571 11.0429C28.9199 13.0057 30 15.7728 30 19C30 22.2273 28.9199 24.9943 26.9571 26.9571C24.9943 28.9199 22.2272 30 19 30C15.7728 30 13.0057 28.9199 11.0429 26.9571C9.08011 24.9943 8 22.2273 8 19C8 15.7728 9.08011 13.0057 11.0429 11.0429ZM12.4571 12.4571C11.3091 13.6051 10.5055 15.141 10.172 17H13.6982C13.7888 16.8251 13.8888 16.6525 13.9909 16.4763L14.0441 16.3844C14.6436 15.3468 15.2794 14.653 16.2025 14.3013C16.9959 13.9989 17.9136 13.9995 18.8723 14.0001H19.1277C20.0864 13.9995 21.0041 13.9989 21.7974 14.3013C22.7205 14.653 23.3564 15.3468 23.9559 16.3844L24.009 16.4763C24.1112 16.6525 24.2112 16.8251 24.3018 17H27.828C27.4945 15.141 26.6909 13.6051 25.5429 12.4571C24.0057 10.9199 21.7728 10 19 10C16.2272 10 13.9943 10.9199 12.4571 12.4571ZM24.5625 19.397C24.4851 19.7507 24.3701 20.1819 24.2298 20.7078L24.2062 20.7962C24.1714 20.927 24.1338 21.0685 24.0949 21.2149L27.9416 20.1842C27.9802 19.8014 28 19.4065 28 19H24.6386C24.6179 19.1305 24.5919 19.2625 24.5625 19.397ZM13.3614 19H10C10 19.4065 10.0198 19.8013 10.0583 20.1841L13.905 21.2148C13.8662 21.0684 13.8286 20.9269 13.7937 20.7962L13.7702 20.7078C13.6299 20.1819 13.5148 19.7506 13.4375 19.397C13.4081 19.2625 13.3821 19.1305 13.3614 19ZM22.1969 23.7941L21.861 27.6341C23.337 27.2306 24.5772 26.5086 25.5429 25.5429C26.3933 24.6925 27.0547 23.6293 27.476 22.3795L22.1969 23.7941ZM19.8237 27.9722L20.1447 24.3033C19.7392 24.3804 19.3709 24.423 19.0001 24.423C18.6293 24.423 18.261 24.3804 17.8555 24.3033L18.1765 27.9722C18.4454 27.9906 18.7199 28 19 28C19.2801 28 19.5548 27.9906 19.8237 27.9722ZM16.1392 27.6341L15.8033 23.794L10.5239 22.3794C10.9452 23.6292 11.6067 24.6925 12.4571 25.5429C13.4228 26.5086 14.6631 27.2307 16.1392 27.6341ZM21.8687 21.8115L21.955 21.4844C22.0604 21.0849 22.1773 20.6426 22.2738 20.2809L22.2883 20.2264C22.4372 19.668 22.5413 19.2777 22.6086 18.9698C22.6779 18.6528 22.692 18.4912 22.6881 18.3887C22.682 18.227 22.6457 18.1146 22.2241 17.385C21.7347 16.538 21.3985 16.2895 21.0852 16.1701C20.6774 16.0147 20.141 16.0001 19 16.0001C17.859 16.0001 17.3225 16.0147 16.9147 16.1701C16.6015 16.2895 16.2652 16.538 15.7759 17.385C15.3543 18.1146 15.3179 18.227 15.3118 18.3887C15.308 18.4912 15.322 18.6528 15.3913 18.9698C15.4586 19.2776 15.5627 19.6679 15.7116 20.2262L15.7262 20.2809C15.8227 20.6426 15.9395 21.0849 16.045 21.4844L16.1313 21.8113L16.3882 21.8802C17.875 22.2786 18.4447 22.423 19.0001 22.423C19.5555 22.423 20.1253 22.2786 21.6122 21.8802L21.8687 21.8115Z" fill="#000000" class="bmwfcol"/><title>parking-assistant_rg_48</title></svg>