<svg width="48" height="48" viewBox="0 0 32 32" xmlns="http://www.w3.org/2000/svg"><path d="M6 6V26H26V6H6ZM4.56039 4.56039C4.95856 4.16222 5.48408 4 6 4H26C26.5159 4 27.0414 4.16222 27.4396 4.56039C27.8378 4.95856 28 5.48408 28 6V26C28 26.5159 27.8378 27.0414 27.4396 27.4396C27.0414 27.8378 26.5159 28 26 28H6C5.48408 28 4.95856 27.8378 4.56039 27.4396C4.16222 27.0414 4 26.5159 4 26V6C4 5.48408 4.16222 4.95856 4.56039 4.56039Z" fill="#000000" class="bmwfcol"/><path d="M11 7.99998L16.7487 8.00011C18.3859 7.99443 19.7404 8.20547 20.7404 9.29638C21.6481 10.2867 22 11.5481 22 12.8432C22 13.9722 21.8661 15.584 20.6881 16.6441C19.6505 17.5779 18.3272 17.8662 17.1606 17.9389C16.3816 17.9874 14.6514 17.9975 13 17.9995V24H11V7.99998ZM13 15.9995C14.6563 15.9973 16.3219 15.9872 17.0363 15.9428C18.01 15.8821 18.7996 15.6531 19.3502 15.1575C19.8256 14.7297 20 13.9474 20 12.8432C20 11.9054 19.75 11.1758 19.266 10.6478C18.8746 10.2208 18.292 9.99461 16.754 10.0001L13 10V15.9995Z" fill="#000000" class="bmwfcol"/><title>parking_rg_48</title></svg>