<svg width="48" height="48" viewBox="0 0 32 32" xmlns="http://www.w3.org/2000/svg"><path d="M7.37994 4.00011L2 4V18H4V12.9994C5.4568 12.9974 7.08845 12.9881 7.74146 12.9475C8.75319 12.8845 9.92362 12.6336 10.8463 11.8032C11.3975 11.3072 11.6779 10.6665 11.8245 10.0749C11.9705 9.48536 12 8.87805 12 8.37002C12 7.2742 11.7267 6.05667 10.9009 5.15571C10.0017 4.1747 8.78735 3.99525 7.37994 4.00011ZM7.61715 10.9513C7.0273 10.9881 5.4589 10.9972 4 10.9994V6.00004L7.38166 6.00011L7.38525 6.00011C8.69338 5.99544 9.1358 6.18996 9.42651 6.50712C9.79099 6.90475 10 7.55598 10 8.37002C10 8.81692 9.97171 9.23642 9.88313 9.59406C9.7951 9.94952 9.66424 10.1763 9.50841 10.3166C9.07266 10.7087 8.43605 10.9003 7.61715 10.9513Z" fill="#000000" class="bmwfcol"/><path d="M22.1667 24H19V22H22.1667V24Z" fill="#000000" class="bmwfcol"/><path d="M23 24H26.9583V22H23V24Z" fill="#000000" class="bmwfcol"/><path d="M11.6359 13.6565C12.086 13.1975 12.6907 13 13.3077 13H27.6923C28.3093 13 28.914 13.1975 29.3641 13.6565C29.812 14.1131 30 14.7196 30 15.3333V24.6667C30 25.2804 29.812 25.8869 29.3641 26.3435C28.914 26.8025 28.3093 27 27.6923 27H13.3077C12.6907 27 12.086 26.8025 11.6359 26.3435C11.188 25.8869 11 25.2804 11 24.6667V15.3333C11 14.7196 11.188 14.1131 11.6359 13.6565ZM13.0637 15.0569C13.0597 15.061 13 15.1217 13 15.3333V17H28V15.3333C28 15.1217 27.9401 15.0608 27.9362 15.0568C27.9337 15.0541 27.8831 15 27.6923 15H13.3077C13.1169 15 13.0662 15.0543 13.0637 15.0569ZM13 24.6667C13 24.8783 13.0597 24.939 13.0637 24.9431C13.0662 24.9457 13.1169 25 13.3077 25H27.6923C27.8831 25 27.9337 24.9459 27.9362 24.9432C27.9401 24.9392 28 24.8783 28 24.6667V19H13V24.6667Z" fill="#000000" class="bmwfcol"/><title>parking_payments_rg_48</title></svg>