<svg width="48" height="48" viewBox="0 0 32 32" xmlns="http://www.w3.org/2000/svg"><path d="M27 5H5V11H2V13H7V7H11.65L13.6893 10.5322C13.01 10.6753 12.5 11.2781 12.5 12C12.5 12.8284 13.1716 13.5 14 13.5C14.443 13.5 14.8411 13.308 15.1157 13.0027L17.2505 16.7004C16.8019 16.9597 16.5 17.4446 16.5 18C16.5 18.8284 17.1716 19.5 18 19.5C18.2735 19.5 18.53 19.4268 18.7508 19.2989L22.0423 25H7V19H2V21H5V27H27V21H30V19H25V25H24.3517L13.9594 7H25V13H30V11H27V5Z" fill="#000000" class="bmwfcol"/><path d="M8.5 10C8.5 9.17157 9.17157 8.5 10 8.5C10.8284 8.5 11.5 9.17157 11.5 10C11.5 10.8284 10.8284 11.5 10 11.5C9.17157 11.5 8.5 10.8284 8.5 10Z" fill="#000000" class="bmwfcol"/><path d="M6 14.5C5.17157 14.5 4.5 15.1716 4.5 16C4.5 16.8284 5.17157 17.5 6 17.5C6.82843 17.5 7.5 16.8284 7.5 16C7.5 15.1716 6.82843 14.5 6 14.5Z" fill="#000000" class="bmwfcol"/><path d="M10 12.5C9.17157 12.5 8.5 13.1716 8.5 14C8.5 14.8284 9.17157 15.5 10 15.5C10.8284 15.5 11.5 14.8284 11.5 14C11.5 13.1716 10.8284 12.5 10 12.5Z" fill="#000000" class="bmwfcol"/><path d="M10 16.5C9.17157 16.5 8.5 17.1716 8.5 18C8.5 18.8284 9.17157 19.5 10 19.5C10.8284 19.5 11.5 18.8284 11.5 18C11.5 17.1716 10.8284 16.5 10 16.5Z" fill="#000000" class="bmwfcol"/><path d="M10 20.5C9.17157 20.5 8.5 21.1716 8.5 22C8.5 22.8284 9.17157 23.5 10 23.5C10.8284 23.5 11.5 22.8284 11.5 22C11.5 21.1716 10.8284 20.5 10 20.5Z" fill="#000000" class="bmwfcol"/><path d="M12.5 16C12.5 15.1716 13.1716 14.5 14 14.5C14.8284 14.5 15.5 15.1716 15.5 16C15.5 16.8284 14.8284 17.5 14 17.5C13.1716 17.5 12.5 16.8284 12.5 16Z" fill="#000000" class="bmwfcol"/><path d="M12.5 20C12.5 19.1716 13.1716 18.5 14 18.5C14.8284 18.5 15.5 19.1716 15.5 20C15.5 20.8284 14.8284 21.5 14 21.5C13.1716 21.5 12.5 20.8284 12.5 20Z" fill="#000000" class="bmwfcol"/><path d="M18 20.5C17.1716 20.5 16.5 21.1716 16.5 22C16.5 22.8284 17.1716 23.5 18 23.5C18.8284 23.5 19.5 22.8284 19.5 22C19.5 21.1716 18.8284 20.5 18 20.5Z" fill="#000000" class="bmwfcol"/><title>particle-filter_rg_48</title></svg>