<svg width="48" height="48" viewBox="0 0 32 32" xmlns="http://www.w3.org/2000/svg"><path d="M18.9688 19.7757V21H16.9688V18.4332L17.6193 18.1905C19.0406 17.6604 19.9688 16.3689 19.9688 14.4691C19.9688 13.7411 19.8317 13.107 19.5887 12.5726L19.003 14.7587C18.7877 15.5636 18.322 16.2095 17.5211 16.4714C16.835 16.6958 16.0871 16.5659 15.458 16.3973C14.8289 16.2287 14.1158 15.9671 13.6336 15.43C13.0703 14.8026 12.9895 14.0101 13.2076 13.2047L13.8023 10.9853C13.4303 11.1929 13.1136 11.4568 12.8546 11.7654C12.3091 12.4152 11.9688 13.3242 11.9688 14.4691C11.9688 16.3689 12.8969 17.6604 14.3182 18.1905L14.9688 18.4332V21H12.9688V19.7757C11.0738 18.7899 9.96875 16.8472 9.96875 14.4691C9.96875 12.9189 10.4355 11.5364 11.3228 10.4794C12.3967 9.20026 13.8831 8.69103 15.4802 8.46392L16.299 9.39501L15.1383 13.7267C15.0609 14.0121 15.0928 14.1215 15.3609 14.2511C15.5094 14.3228 15.71 14.3943 15.9757 14.4655C16.2413 14.5367 16.4505 14.575 16.6147 14.5871C16.9122 14.609 16.9945 14.5278 17.0708 14.242L18.2599 9.80422L19.4417 9.40657C21.046 10.695 21.9688 12.3631 21.9688 14.4691C21.9688 16.8472 20.8637 18.7899 18.9688 19.7757Z" fill="#000000" class="bmwfcol"/><path d="M3.56039 5.56039C3.95856 5.16222 4.48408 5 5 5H27C27.5159 5 28.0414 5.16222 28.4396 5.56039C28.8378 5.95856 29 6.48408 29 7V23C29 23.5159 28.8378 24.0414 28.4396 24.4396C28.0414 24.8378 27.5159 25 27 25H5C4.48408 25 3.95856 24.8378 3.56039 24.4396C3.16222 24.0414 3 23.5159 3 23V7C3 6.48408 3.16222 5.95856 3.56039 5.56039ZM27 7H5V23H27V7Z" fill="#000000" class="bmwfcol"/><path d="M21 29H11V27H21V29Z" fill="#000000" class="bmwfcol"/><title>parts-catalouge_rg_48</title></svg>