<svg width="48" height="48" viewBox="0 0 32 32" xmlns="http://www.w3.org/2000/svg"><path d="M22.5005 6.59998C22.5005 5.77155 23.1721 5.09998 24.0005 5.09998C24.8289 5.09998 25.5005 5.77155 25.5005 6.59998C25.5005 7.4284 24.8289 8.09998 24.0005 8.09998C23.1721 8.09998 22.5005 7.4284 22.5005 6.59998Z" fill="#000000" class="bmwfcol"/><path d="M24 1.72559C22.5544 1.72559 21.2763 2.16654 20.3556 3.06792C19.4324 3.97171 18.9756 5.23382 18.9756 6.66555C18.9756 8.19082 19.6608 9.57782 20.4691 10.725C21.2825 11.8795 22.2981 12.8976 23.0984 13.6831L23.3902 13.9695H24.6098L24.9015 13.6831C25.7018 12.8976 26.7174 11.8795 27.5309 10.725C28.3392 9.57782 29.0244 8.19082 29.0244 6.66555C29.0244 5.23382 28.5676 3.97171 27.6444 3.06792C26.7237 2.16654 25.4456 1.72559 24 1.72559ZM20.9756 6.66555C20.9756 5.66238 21.2874 4.95451 21.7547 4.49704C22.2244 4.03717 22.9585 3.72559 24 3.72559C25.0415 3.72559 25.7755 4.03717 26.2453 4.49704C26.7125 4.95451 27.0244 5.66238 27.0244 6.66555C27.0244 7.59665 26.5989 8.57543 25.8959 9.57303C25.3404 10.3615 24.6592 11.0963 24 11.7602C23.3408 11.0963 22.6595 10.3615 22.104 9.57303C21.4011 8.57543 20.9756 7.59665 20.9756 6.66555Z" fill="#000000" class="bmwfcol"/><path d="M29.7073 16.2928C29.3996 15.9852 28.9703 15.6299 28.3683 15.4031C27.7593 15.1737 27.0434 15.1019 26.1992 15.2527C24.7372 15.514 22.8561 16.4492 20.3112 18.457C19.9401 18.1457 19.4742 18 19 18L14.1319 18L10.3999 17L10.1895 17C9.6121 16.9991 9.03821 16.9983 8.38659 17.3971C8.09317 17.5766 7.8062 17.8209 7.49345 18.113C7.17993 18.4059 6.79508 18.7908 6.30669 19.2792L1.58582 24L7.58582 30H9.41424L11.4142 28H15.0287C16.0043 28 16.7763 28 17.3964 27.9674C18.0254 27.9343 18.5664 27.8653 19.0664 27.6987C20.0439 27.3729 20.7035 26.7124 21.589 25.8256L30.4146 16.9999L29.7073 16.2928ZM13.8686 20L19 20L19.0001 20.5777C18.215 21.3184 17.6684 21.6398 17.1839 21.8014C16.6157 21.9908 16.0357 22 15.0003 22H11V24L15.0816 24C16.0167 24.0003 16.911 24.0005 17.8164 23.6987C18.7737 23.3796 19.6532 22.761 20.7071 21.7071L20.9999 21.4143L21.0001 20.4698C23.7542 18.211 25.4853 17.412 26.551 17.2215C26.9035 17.1585 27.1747 17.1637 27.386 17.2001L20.2932 24.2929C19.2395 25.3465 18.9135 25.6415 18.4339 25.8013C18.1838 25.8847 17.8497 25.9408 17.2913 25.9702C16.7299 25.9997 16.0107 26 15 26H10.5858L8.58582 28H8.41424L4.41424 24L7.70714 20.7071C8.2122 20.2021 8.57307 19.8414 8.85874 19.5745C9.14812 19.3042 9.31542 19.1734 9.43053 19.103C9.55683 19.0257 9.59838 19.0031 10.1378 19.0003L13.8686 20Z" fill="#000000" class="bmwfcol"/><path d="M2 4H11C11.9256 4 12.7201 4.30331 13.2713 4.91831C13.8057 5.51441 14 6.27926 14 7C14 7.72074 13.8057 8.48559 13.2713 9.08169C12.7201 9.69669 11.9256 10 11 10H7C6.52101 10 6.31549 10.1444 6.21792 10.2533C6.1034 10.381 6 10.6162 6 11C6 11.3838 6.1034 11.619 6.21792 11.7467C6.31549 11.8556 6.521 12 7 12H16.7625L14.7625 10H17.2373L20.2373 13L17.2373 16H14.7625L16.7625 14H7C6.07442 14 5.27994 13.6967 4.72866 13.0817C4.19432 12.4856 4 11.7207 4 11C4 10.2793 4.19432 9.51441 4.72866 8.91831C5.27994 8.30331 6.07443 8 7 8H11C11.479 8 11.6845 7.85559 11.7821 7.74674C11.8966 7.61898 12 7.38382 12 7C12 6.61618 11.8966 6.38102 11.7821 6.25326C11.6845 6.14441 11.479 6 11 6H2V4Z" fill="#000000" class="bmwfcol"/><title>path_and_location_on_hand_rg_48</title></svg>