<svg width="48" height="48" viewBox="0 0 32 32" xmlns="http://www.w3.org/2000/svg"><path d="M15.9996 1.57544C15.5041 1.57544 14.8805 1.67281 14.3914 2.13865C13.8952 2.61116 13.7246 3.2821 13.7246 4.00044C13.7246 4.71878 13.8952 5.38972 14.3914 5.86223C14.8805 6.32807 15.5041 6.42544 15.9996 6.42544C16.4951 6.42544 17.1187 6.32807 17.6079 5.86223C18.104 5.38972 18.2746 4.71878 18.2746 4.00044C18.2746 3.2821 18.104 2.61116 17.6079 2.13865C17.1187 1.67281 16.4951 1.57544 15.9996 1.57544ZM15.5746 4.00044C15.5746 3.77546 15.6019 3.63787 15.6277 3.56035C15.6401 3.523 15.6514 3.50165 15.6578 3.49118C15.6611 3.48585 15.6635 3.48264 15.6649 3.48096L15.6668 3.47875L15.6687 3.47712C15.6695 3.47653 15.6713 3.47527 15.6746 3.47347C15.681 3.46992 15.6949 3.46319 15.7198 3.4558C15.7728 3.44007 15.8614 3.42544 15.9996 3.42544C16.1379 3.42544 16.2265 3.44007 16.2794 3.4558C16.3043 3.46319 16.3183 3.46992 16.3247 3.47347C16.3279 3.47527 16.3297 3.47653 16.3305 3.47712L16.332 3.4783C16.3322 3.47855 16.333 3.47931 16.3344 3.48096C16.3357 3.48264 16.3381 3.48585 16.3414 3.49118C16.3478 3.50165 16.3591 3.523 16.3715 3.56035C16.3973 3.63787 16.4246 3.77546 16.4246 4.00044C16.4246 4.22541 16.3973 4.36301 16.3715 4.44053C16.3591 4.47788 16.3478 4.49923 16.3414 4.5097C16.3381 4.51503 16.3357 4.51824 16.3344 4.51991C16.333 4.52157 16.3322 4.52233 16.332 4.52258L16.3305 4.52376C16.3297 4.52435 16.3279 4.52561 16.3247 4.5274C16.3183 4.53096 16.3043 4.53769 16.2794 4.54508C16.2265 4.56081 16.1379 4.57544 15.9996 4.57544C15.8614 4.57544 15.7728 4.56081 15.7198 4.54508C15.6949 4.53769 15.681 4.53096 15.6746 4.5274C15.6713 4.52561 15.6695 4.52435 15.6687 4.52376L15.6672 4.52258C15.667 4.52233 15.6662 4.52157 15.6649 4.51991C15.6635 4.51824 15.6611 4.51503 15.6578 4.5097C15.6514 4.49923 15.6401 4.47788 15.6277 4.44053C15.6019 4.36301 15.5746 4.22541 15.5746 4.00044Z" fill="#000000" class="bmwfcol"/><path d="M4.5 25.0426C4.5 25.0284 4.50012 25.0142 4.50035 25H6.50191C6.50059 25.015 6.5 25.0292 6.5 25.0426C6.5 25.201 6.58165 25.4705 6.98987 25.8337C7.39714 26.1961 8.04335 26.5681 8.92758 26.9009C10.6887 27.5637 13.189 27.9942 15.9999 27.9942C18.8109 27.9942 21.3111 27.5637 23.0722 26.9009C23.9565 26.5681 24.6027 26.1961 25.01 25.8337C25.4182 25.4705 25.4998 25.201 25.4998 25.0426C25.4998 25.0363 25.4997 25.0297 25.4994 25.0229C25.4991 25.0155 25.4986 25.0079 25.4979 25H27.4995C27.4997 25.0142 27.4998 25.0284 27.4998 25.0426C27.4998 25.9755 26.9938 26.7455 26.3394 27.3278C25.684 27.911 24.7926 28.3904 23.7767 28.7727C21.7376 29.5401 18.9879 29.9942 15.9999 29.9942C13.0119 29.9942 10.2622 29.5401 8.22313 28.7727C7.20724 28.3904 6.31578 27.911 5.6604 27.3278C5.00597 26.7455 4.5 25.9755 4.5 25.0426Z" fill="#000000" class="bmwfcol"/><path d="M14.0053 15.2619C14.003 15.2765 14 15.3044 14 15.3516V19H15.5V26.4999H13.5V21H12V15.3516C12 15.1201 12.0244 14.7993 12.1689 14.463C12.3202 14.1106 12.5754 13.8057 12.9366 13.5695C13.6033 13.1335 14.6036 12.95 16 12.95C17.3964 12.95 18.3967 13.1335 19.0634 13.5695C19.4246 13.8057 19.6798 14.1106 19.8311 14.463C19.9756 14.7993 20 15.1201 20 15.3516V21H18.5V26.4999H16.5V19H18V15.3516C18 15.3044 17.997 15.2765 17.9947 15.2619C17.9891 15.2574 17.9808 15.2512 17.9688 15.2433C17.813 15.1414 17.3133 14.95 16 14.95C14.6867 14.95 14.187 15.1414 14.0312 15.2433C14.0192 15.2512 14.0109 15.2574 14.0053 15.2619Z" fill="#000000" class="bmwfcol"/><path d="M16.0004 7.57495C15.5049 7.57495 14.8813 7.67232 14.3921 8.13816C13.896 8.61067 13.7254 9.28161 13.7254 9.99995C13.7254 10.7183 13.896 11.3892 14.3921 11.8617C14.8813 12.3276 15.5049 12.425 16.0004 12.425C16.4959 12.425 17.1195 12.3276 17.6086 11.8617C18.1048 11.3892 18.2754 10.7183 18.2754 9.99995C18.2754 9.28161 18.1048 8.61067 17.6086 8.13816C17.1195 7.67232 16.4959 7.57495 16.0004 7.57495ZM15.5754 9.99995C15.5754 9.77498 15.6027 9.63738 15.6285 9.55986C15.6409 9.52251 15.6522 9.50116 15.6586 9.49069C15.6619 9.48536 15.6643 9.48215 15.6656 9.48048C15.667 9.47882 15.6678 9.47806 15.668 9.47781L15.6695 9.47663L15.6711 9.47549L15.6753 9.47299C15.6817 9.46943 15.6957 9.46271 15.7206 9.45531C15.7735 9.43958 15.8621 9.42495 16.0004 9.42495C16.1386 9.42495 16.2272 9.43958 16.2802 9.45531C16.3051 9.46271 16.319 9.46943 16.3254 9.47299C16.3287 9.47478 16.3305 9.47604 16.3313 9.47663L16.3328 9.47781C16.333 9.47806 16.3338 9.47882 16.3351 9.48048L16.3358 9.48127C16.3372 9.48309 16.3394 9.48611 16.3422 9.49069C16.3486 9.50116 16.3599 9.52251 16.3723 9.55986C16.3981 9.63738 16.4254 9.77498 16.4254 9.99995C16.4254 10.2249 16.3981 10.3625 16.3723 10.44C16.3599 10.4774 16.3486 10.4987 16.3422 10.5092C16.3389 10.5145 16.3365 10.5178 16.3351 10.5194L16.3337 10.5211L16.3328 10.5221L16.3313 10.5233L16.3291 10.5248L16.3254 10.5269C16.319 10.5305 16.3051 10.5372 16.2802 10.5446C16.2272 10.5603 16.1386 10.575 16.0004 10.575C15.8621 10.575 15.7735 10.5603 15.7206 10.5446C15.6957 10.5372 15.6817 10.5305 15.6753 10.5269C15.6721 10.5251 15.6703 10.5239 15.6695 10.5233L15.668 10.5221C15.6678 10.5218 15.667 10.5211 15.6656 10.5194C15.6643 10.5178 15.6619 10.5145 15.6586 10.5092C15.6522 10.4987 15.6409 10.4774 15.6285 10.44C15.6027 10.3625 15.5754 10.2249 15.5754 9.99995Z" fill="#000000" class="bmwfcol"/><path d="M5.00526 12.2619C5.00296 12.2765 5 12.3044 5 12.3516V16H6.5V23.4999H4.5V18H3V12.3516C3 12.1201 3.02445 11.7993 3.16887 11.463C3.32024 11.1106 3.57535 10.8057 3.93659 10.5695C4.60334 10.1335 5.60362 9.94995 7 9.94995C8.39638 9.94995 9.39666 10.1335 10.0634 10.5695C10.4246 10.8057 10.6798 11.1106 10.8311 11.463C10.9756 11.7993 11 12.1201 11 12.3516V18H9.5V23.4999H7.5V16H9V12.3516C9 12.3044 8.99704 12.2765 8.99474 12.2619C8.98912 12.2574 8.98077 12.2512 8.96882 12.2433C8.81297 12.1414 8.31326 11.95 7 11.95C5.68674 11.95 5.18703 12.1414 5.03118 12.2433C5.01923 12.2512 5.01088 12.2574 5.00526 12.2619Z" fill="#000000" class="bmwfcol"/><path d="M7.00039 4.57495C6.50491 4.57495 5.88128 4.67232 5.39215 5.13816C4.89601 5.61067 4.72539 6.28161 4.72539 6.99995C4.72539 7.71829 4.89601 8.38923 5.39215 8.86174C5.88128 9.32758 6.50491 9.42495 7.00039 9.42495C7.49587 9.42495 8.1195 9.32758 8.60863 8.86174C9.10477 8.38923 9.27539 7.71829 9.27539 6.99995C9.27539 6.28161 9.10477 5.61067 8.60863 5.13816C8.1195 4.67232 7.49587 4.57495 7.00039 4.57495ZM6.57539 6.99995C6.57539 6.77498 6.60272 6.63738 6.62846 6.55986C6.64086 6.52251 6.6522 6.50116 6.65861 6.49069C6.66187 6.48536 6.66429 6.48215 6.66564 6.48048C6.66697 6.47882 6.66775 6.47806 6.66801 6.47781L6.66946 6.47663C6.67027 6.47604 6.67209 6.47478 6.67534 6.47299C6.68175 6.46943 6.69567 6.46271 6.72056 6.45531C6.77354 6.43958 6.86215 6.42495 7.00039 6.42495C7.13864 6.42495 7.22724 6.43958 7.28022 6.45531C7.30511 6.46271 7.31903 6.46943 7.32545 6.47299C7.32869 6.47478 7.33051 6.47604 7.33133 6.47663L7.33277 6.47781C7.33303 6.47806 7.33381 6.47882 7.33514 6.48048C7.33649 6.48215 7.33891 6.48536 7.34217 6.49069C7.34858 6.50116 7.35992 6.52251 7.37233 6.55986C7.39807 6.63738 7.42539 6.77498 7.42539 6.99995C7.42539 7.22493 7.39807 7.36252 7.37233 7.44004C7.35992 7.47739 7.34858 7.49874 7.34217 7.50921C7.33891 7.51454 7.33649 7.51775 7.33514 7.51943C7.33381 7.52108 7.33303 7.52184 7.33277 7.52209L7.33133 7.52327C7.33051 7.52386 7.32869 7.52512 7.32545 7.52692C7.31903 7.53047 7.30511 7.5372 7.28022 7.54459C7.22724 7.56032 7.13864 7.57495 7.00039 7.57495C6.86215 7.57495 6.77354 7.56032 6.72056 7.54459C6.69567 7.5372 6.68175 7.53047 6.67534 7.52692C6.67209 7.52512 6.67027 7.52386 6.66946 7.52327L6.66801 7.52209L6.66718 7.52124L6.66564 7.51943C6.66429 7.51775 6.66187 7.51454 6.65861 7.50921C6.6522 7.49874 6.64086 7.47739 6.62846 7.44004C6.60272 7.36252 6.57539 7.22493 6.57539 6.99995Z" fill="#000000" class="bmwfcol"/><path d="M23.0053 12.2619C23.003 12.2765 23 12.3044 23 12.3516V16H24.5V23.4999H22.5V18H21V12.3516C21 12.1201 21.0244 11.7993 21.1689 11.463C21.3202 11.1106 21.5754 10.8057 21.9366 10.5695C22.6033 10.1335 23.6036 9.94995 25 9.94995C26.3964 9.94995 27.3967 10.1335 28.0634 10.5695C28.4246 10.8057 28.6798 11.1106 28.8311 11.463C28.9756 11.7993 29 12.1201 29 12.3516V18H27.5V23.4999H25.5V16H27V12.3516C27 12.3044 26.997 12.2765 26.9947 12.2619C26.9891 12.2574 26.9808 12.2512 26.9688 12.2433C26.813 12.1414 26.3133 11.95 25 11.95C23.6867 11.95 23.187 12.1414 23.0312 12.2433C23.0192 12.2512 23.0109 12.2574 23.0053 12.2619Z" fill="#000000" class="bmwfcol"/><path d="M25.0004 4.57495C24.5049 4.57495 23.8813 4.67232 23.3921 5.13816C22.896 5.61067 22.7254 6.28161 22.7254 6.99995C22.7254 7.71829 22.896 8.38923 23.3921 8.86174C23.8813 9.32758 24.5049 9.42495 25.0004 9.42495C25.4959 9.42495 26.1195 9.32758 26.6086 8.86174C27.1048 8.38923 27.2754 7.71829 27.2754 6.99995C27.2754 6.28161 27.1048 5.61067 26.6086 5.13816C26.1195 4.67232 25.4959 4.57495 25.0004 4.57495ZM24.5754 6.99995C24.5754 6.77498 24.6027 6.63738 24.6285 6.55986C24.6409 6.52251 24.6522 6.50116 24.6586 6.49069C24.6619 6.48536 24.6643 6.48215 24.6656 6.48048C24.667 6.47882 24.6678 6.47806 24.668 6.47781L24.6695 6.47663C24.6703 6.47604 24.6721 6.47478 24.6753 6.47299C24.6817 6.46943 24.6957 6.46271 24.7206 6.45531C24.7735 6.43958 24.8621 6.42495 25.0004 6.42495C25.1386 6.42495 25.2272 6.43958 25.2802 6.45531C25.3051 6.46271 25.319 6.46943 25.3254 6.47299C25.3287 6.47478 25.3305 6.47604 25.3313 6.47663L25.3328 6.47781C25.333 6.47806 25.3338 6.47882 25.3351 6.48048C25.3365 6.48215 25.3389 6.48536 25.3422 6.49069C25.3486 6.50116 25.3599 6.52251 25.3723 6.55986C25.3981 6.63738 25.4254 6.77498 25.4254 6.99995C25.4254 7.22493 25.3981 7.36252 25.3723 7.44004C25.3599 7.47739 25.3486 7.49874 25.3422 7.50921C25.3389 7.51454 25.3365 7.51775 25.3351 7.51943C25.3338 7.52108 25.333 7.52184 25.3328 7.52209L25.3313 7.52327C25.3305 7.52386 25.3287 7.52512 25.3254 7.52692C25.319 7.53047 25.3051 7.5372 25.2802 7.54459C25.2272 7.56032 25.1386 7.57495 25.0004 7.57495C24.8621 7.57495 24.7735 7.56032 24.7206 7.54459C24.6957 7.5372 24.6817 7.53047 24.6753 7.52692C24.6721 7.52512 24.6703 7.52386 24.6695 7.52327L24.668 7.52209C24.6678 7.52184 24.667 7.52108 24.6656 7.51943C24.6643 7.51775 24.6619 7.51454 24.6586 7.50921C24.6522 7.49874 24.6409 7.47739 24.6285 7.44004C24.6027 7.36252 24.5754 7.22493 24.5754 6.99995Z" fill="#000000" class="bmwfcol"/><title>people_group_on_circle_rg_48</title></svg>