<svg width="48" height="48" viewBox="0 0 32 32" xmlns="http://www.w3.org/2000/svg"><path d="M7 4C6.00434 4 4.93752 4.21077 4.13664 5.01164C3.33898 5.80931 3 6.99734 3 8.5C3 10.0027 3.33898 11.1907 4.13664 11.9884C4.93752 12.7892 6.00434 13 7 13C7.99566 13 9.06248 12.7892 9.86336 11.9884C10.661 11.1907 11 10.0027 11 8.5C11 6.99734 10.661 5.80931 9.86336 5.01164C9.06248 4.21077 7.99566 4 7 4ZM5 8.5C5 7.25266 5.28602 6.69069 5.55086 6.42586C5.81248 6.16423 6.24566 6 7 6C7.75434 6 8.18752 6.16423 8.44914 6.42586C8.71398 6.69069 9 7.25266 9 8.5C9 9.74734 8.71398 10.3093 8.44914 10.5741C8.18752 10.8358 7.75434 11 7 11C6.24566 11 5.81248 10.8358 5.55086 10.5741C5.28602 10.3093 5 9.74734 5 8.5Z" fill="#000000" class="bmwfcol"/><path d="M16 10C14.7207 10 13.4094 10.2606 12.4309 11.2043C11.4475 12.1525 11 13.5957 11 15.5C11 17.4043 11.4475 18.8475 12.4309 19.7957C13.4094 20.7394 14.7207 21 16 21C17.2793 21 18.5906 20.7394 19.5691 19.7957C20.5525 18.8475 21 17.4043 21 15.5C21 13.5957 20.5525 12.1525 19.5691 11.2043C18.5906 10.2606 17.2793 10 16 10ZM13 15.5C13 13.8686 13.3858 13.0618 13.8191 12.644C14.2572 12.2215 14.9459 12 16 12C17.0541 12 17.7428 12.2215 18.1809 12.644C18.6142 13.0618 19 13.8686 19 15.5C19 17.1314 18.6142 17.9382 18.1809 18.356C17.7428 18.7785 17.0541 19 16 19C14.9459 19 14.2572 18.7785 13.8191 18.356C13.3858 17.9382 13 17.1314 13 15.5Z" fill="#000000" class="bmwfcol"/><path d="M6.625 28H8.6966C9.34125 25.6664 9.83775 24.8903 10.5544 24.5066C10.9587 24.2901 11.5268 24.1489 12.4351 24.0748C13.3437 24.0008 14.4843 24 15.9997 24C17.5152 24 18.6558 24.0008 19.5644 24.0748C20.4727 24.1489 21.0407 24.2901 21.4451 24.5066C22.1617 24.8903 22.6582 25.6664 23.3029 28H25.3745L25.3051 27.7412C24.6449 25.2771 23.9813 23.5959 22.389 22.7434C21.626 22.3349 20.7353 22.1636 19.7269 22.0814C18.7278 22 17.5066 22 16.0399 22C14.5733 22 13.2717 22 12.2726 22.0814C11.2641 22.1636 10.3735 22.3349 9.61041 22.7434C8.01814 23.5959 7.3546 25.2771 6.69435 27.7412L6.625 28Z" fill="#000000" class="bmwfcol"/><path d="M2.53732 18H0.464844L0.533964 17.7416C0.933175 16.2491 1.39543 15.0654 2.61522 14.4749C3.17313 14.2049 3.81048 14.0995 4.49298 14.0495C5.17004 14 6.06411 13.9999 7.03503 13.9999C7.77538 13.9999 8.43038 14 8.99987 14.022V16.0235C8.46706 16.0004 7.81916 16 7.00001 16C5.98616 16 5.23465 16.0006 4.63897 16.0442C4.04061 16.088 3.70342 16.1702 3.48662 16.2751C3.17678 16.4251 2.90392 16.7135 2.53732 18Z" fill="#000000" class="bmwfcol"/><path d="M23 16.0236V14.022C23.5696 14 24.2948 14 25.0352 14C26.0061 14 26.8301 14 27.5072 14.0495C28.1897 14.0995 28.827 14.2049 29.3849 14.4749C30.6047 15.0654 31.067 16.2491 31.4662 17.7416L31.5353 18H29.4628C29.0962 16.7135 28.8234 16.4251 28.5135 16.2751C28.2967 16.1702 27.9595 16.088 27.3612 16.0442C26.7655 16.0006 26.014 16 25.0001 16C24.1808 16 23.5329 16.0004 23 16.0236Z" fill="#000000" class="bmwfcol"/><path d="M25 4C24.0043 4 22.9375 4.21077 22.1366 5.01164C21.339 5.80931 21 6.99734 21 8.5C21 10.0027 21.339 11.1907 22.1366 11.9884C22.9375 12.7892 24.0043 13 25 13C25.9957 13 27.0625 12.7892 27.8634 11.9884C28.661 11.1907 29 10.0027 29 8.5C29 6.99734 28.661 5.80931 27.8634 5.01164C27.0625 4.21077 25.9957 4 25 4ZM23 8.5C23 7.25266 23.286 6.69069 23.5509 6.42586C23.8125 6.16423 24.2457 6 25 6C25.7543 6 26.1875 6.16423 26.4491 6.42586C26.714 6.69069 27 7.25266 27 8.5C27 9.74734 26.714 10.3093 26.4491 10.5741C26.1875 10.8358 25.7543 11 25 11C24.2457 11 23.8125 10.8358 23.5509 10.5741C23.286 10.3093 23 9.74734 23 8.5Z" fill="#000000" class="bmwfcol"/><title>people-group_rg_48</title></svg>