<svg width="48" height="48" viewBox="0 0 32 32" xmlns="http://www.w3.org/2000/svg"><path d="M11.091 4.0459C9.89648 4.0459 8.6592 4.29928 7.73759 5.2209C6.81918 6.1393 6.40918 7.5262 6.40918 9.34136C6.40918 11.1565 6.81918 12.5434 7.73759 13.4618C8.6592 14.3834 9.89648 14.6368 11.091 14.6368C12.2855 14.6368 13.5228 14.3834 14.4444 13.4618C15.3628 12.5434 15.7728 11.1565 15.7728 9.34136C15.7728 7.5262 15.3628 6.1393 14.4444 5.2209C13.5228 4.29928 12.2855 4.0459 11.091 4.0459ZM8.40918 9.34136C8.40918 7.78152 8.76623 7.02068 9.1518 6.63511C9.53417 6.25274 10.1378 6.0459 11.091 6.0459C12.0442 6.0459 12.6478 6.25274 13.0302 6.63511C13.4158 7.02068 13.7728 7.78152 13.7728 9.34136C13.7728 10.9012 13.4158 11.662 13.0302 12.0476C12.6478 12.43 12.0442 12.6368 11.091 12.6368C10.1378 12.6368 9.53417 12.43 9.1518 12.0476C8.76623 11.662 8.40918 10.9012 8.40918 9.34136Z" fill="#000000" class="bmwfcol"/><path d="M18.6356 6.9357C19.464 6.10723 20.5698 5.88672 21.6109 5.88672C22.652 5.88672 23.7578 6.10723 24.5863 6.9357C25.4116 7.76097 25.7668 8.99445 25.7668 10.5685C25.7668 12.1426 25.4116 13.3761 24.5863 14.2014C23.7578 15.0299 22.652 15.2504 21.6109 15.2504C20.5698 15.2504 19.464 15.0299 18.6356 14.2014C17.8103 13.3761 17.4551 12.1426 17.4551 10.5685C17.4551 8.99445 17.8103 7.76097 18.6356 6.9357ZM20.0498 8.34992C19.7573 8.64235 19.4551 9.24978 19.4551 10.5685C19.4551 11.8873 19.7573 12.4947 20.0498 12.7872C20.339 13.0764 20.8111 13.2504 21.6109 13.2504C22.4107 13.2504 22.8829 13.0764 23.1721 12.7872C23.4645 12.4947 23.7668 11.8873 23.7668 10.5685C23.7668 9.24978 23.4645 8.64235 23.1721 8.34992C22.8829 8.06069 22.4107 7.88672 21.6109 7.88672C20.8111 7.88672 20.339 8.06069 20.0498 8.34992Z" fill="#000000" class="bmwfcol"/><path d="M26.3586 21.0005H28.4309L28.3618 20.7422C27.9418 19.1718 27.46 17.9491 26.2 17.3391C25.622 17.0593 24.9593 16.9491 24.2435 16.8967C23.5332 16.8447 22.668 16.8447 21.6452 16.8447H21.5748C20.7222 16.8447 19.979 16.8447 19.3438 16.8748C19.7775 17.4934 20.085 18.1734 20.3235 18.8492C20.7034 18.8449 21.1289 18.8447 21.61 18.8447C22.6758 18.8447 23.4686 18.8453 24.0975 18.8914C24.7292 18.9376 25.0917 19.0246 25.3286 19.1393C25.6774 19.3082 25.9705 19.6337 26.3586 21.0005Z" fill="#000000" class="bmwfcol"/><path d="M5.37767 21H3.30566L3.37479 20.7416C3.86519 18.9082 4.41268 17.554 5.80854 16.8783C6.45448 16.5656 7.20257 16.439 8.03063 16.3784C8.85322 16.3182 9.85749 16.3182 11.0552 16.3182H11.1265C12.3242 16.3182 13.3285 16.3182 14.1511 16.3784C14.9791 16.439 15.7272 16.5656 16.3732 16.8783C17.769 17.554 18.3165 18.9082 18.8069 20.7416L18.876 21H16.804C16.3441 19.3635 15.983 18.9114 15.5018 18.6785C15.1969 18.5309 14.749 18.4275 14.0051 18.373C13.2639 18.3188 12.332 18.3182 11.0909 18.3182C9.84973 18.3182 8.91786 18.3188 8.17663 18.373C7.43271 18.4275 6.98477 18.5309 6.67994 18.6785C6.19869 18.9114 5.83763 19.3635 5.37767 21Z" fill="#000000" class="bmwfcol"/><path d="M17.2871 23.1553H20.136C20.7527 23.1553 21.1849 23.2211 21.5424 23.4738C21.9476 23.7585 22.1836 24.2442 22.1836 24.7354C22.1836 25.1281 22.0803 25.4001 21.9115 25.6895C21.8417 25.8092 21.7689 25.9252 21.7017 26.0288C21.8162 26.1252 21.9261 26.2324 22.032 26.3734C22.204 26.6001 22.3098 26.9415 22.3098 27.2953C22.3098 27.8686 22.1141 28.3711 21.6839 28.7068C21.2832 29.0221 20.7541 29.15 19.9431 29.15H17.2871V23.1553ZM18.8001 24.5792V25.4184H20.419C20.459 25.3543 20.5016 25.2848 20.5345 25.2285C20.6161 25.0874 20.6632 24.9955 20.6632 24.869C20.6632 24.7217 20.6183 24.6634 20.5697 24.6378C20.5385 24.6213 20.4848 24.6046 20.389 24.5937C20.2942 24.583 20.1719 24.5792 20.0099 24.5792H18.8001ZM18.8001 26.8423V27.726H19.9654C20.4378 27.726 20.5796 27.6833 20.6723 27.6046C20.7486 27.5363 20.7819 27.4587 20.7819 27.2953C20.7819 27.1944 20.7651 27.1225 20.7374 27.0688C20.711 27.0176 20.6685 26.9706 20.5951 26.9283C20.4825 26.8675 20.3167 26.8423 19.9357 26.8423H18.8001Z" fill="#000000" class="bmwfcol"/><path d="M22.9434 23.1553H25.6291C26.3383 23.1553 26.8301 23.2292 27.2797 23.6109L27.2809 23.612C27.6596 23.939 27.8696 24.4664 27.8696 25.0248C27.8696 25.5945 27.6821 25.9799 27.3402 26.3854L27.3396 26.3862C27.2055 26.5435 27.028 26.7353 26.891 26.8778L28.3041 29.15H26.549L25.3618 27.2282H24.4564V29.15H22.9434V23.1553ZM24.4564 24.6015V25.782H25.9181C25.9845 25.7074 26.0672 25.6126 26.1248 25.5393L26.1256 25.5383L26.1265 25.5372C26.27 25.3596 26.3418 25.2329 26.3418 25.0248C26.3418 24.932 26.3304 24.8697 26.3114 24.8236C26.2939 24.7811 26.2658 24.7422 26.2142 24.7026C26.1778 24.6762 26.1187 24.6494 26.0043 24.6303C25.8874 24.6108 25.7262 24.6015 25.4955 24.6015H24.4564Z" fill="#000000" class="bmwfcol"/><title>people_group_and_br_rg_48</title></svg>