<svg width="48" height="48" viewBox="0 0 32 32" xmlns="http://www.w3.org/2000/svg"><path d="M16.0004 3.99347C19.4657 3.98341 22.4438 5.12445 24.5776 7.20743C26.7411 9.31925 27.9575 12.3219 28.0001 15.8489C28.0426 19.3758 26.899 22.4069 24.7872 24.5704C22.6754 26.7338 19.6728 27.9502 16.1458 27.9928C11.0145 28.0547 8.19601 25.6126 5 22.4772V28L3 26V19H10L12 21H6.3556C9.54467 24.1181 11.8005 26.0451 16.1216 25.993C19.1942 25.9559 21.6646 24.9061 23.356 23.1733C25.0474 21.4406 26.0373 18.9455 26.0002 15.873C25.9631 12.8005 24.9133 10.33 23.1806 8.6386C21.4705 6.96927 19.0178 5.9833 16.0004 5.99348V3.99347Z" fill="#000000" class="bmwfcol"/><path d="M9.90943 5.41425C10.8209 4.93504 11.8172 4.5715 12.8843 4.33214L13.4008 6.26596C12.495 6.46227 11.6618 6.76088 10.9079 7.14952L9.90943 5.41425Z" fill="#000000" class="bmwfcol"/><path d="M7.21468 7.41699C6.49806 8.15112 5.89293 8.98517 5.4078 9.9046L7.14297 10.9031C7.54891 10.1188 8.05451 9.41983 8.64586 8.81403C8.67219 8.78705 8.69872 8.76024 8.72543 8.73359L7.31037 7.32022C7.27827 7.35226 7.24638 7.38452 7.21468 7.41699Z" fill="#000000" class="bmwfcol"/><path d="M4.00075 15.9998C3.99717 14.9026 4.10898 13.8541 4.32953 12.8658L6.26289 13.385C6.08765 14.2 5.99726 15.0733 6.00076 15.9998H4.00075Z" fill="#000000" class="bmwfcol"/><path d="M17 9V15.4226L21.6962 18.134L20.6962 19.866L15 16.5774V9H17Z" fill="#000000" class="bmwfcol"/><title>personal-data-storage_rg_48</title></svg>