<svg width="48" height="48" viewBox="0 0 32 32" xmlns="http://www.w3.org/2000/svg"><path d="M13.3304 23H11.2363C11.3599 22.5733 11.4826 22.1971 11.618 21.8764C11.8324 21.369 12.119 20.8994 12.592 20.5614C13.059 20.2276 13.5907 20.1066 14.1168 20.0522C14.6215 20 15.24 20 15.9488 20C16.6576 20 17.3734 20 17.8782 20.0522C18.4043 20.1066 18.936 20.2276 19.403 20.5614C19.8759 20.8994 20.1626 21.369 20.377 21.8764C20.5124 22.1971 20.6351 22.5733 20.7587 23H18.6646C18.6204 22.8705 18.5775 22.7563 18.5346 22.6548C18.3925 22.3185 18.2918 22.2256 18.2401 22.1886C18.1824 22.1474 18.0521 22.0809 17.6723 22.0416C17.2827 22.0012 16.7683 22 15.9975 22C15.2267 22 14.7123 22.0012 14.3227 22.0416C13.9429 22.0809 13.8126 22.1474 13.7549 22.1886C13.7032 22.2256 13.6024 22.3185 13.4604 22.6548C13.4175 22.7563 13.3746 22.8705 13.3304 23Z" fill="#000000" class="bmwfcol"/><path d="M15.998 12.75C15.3021 12.75 14.4908 12.8901 13.8664 13.4922C13.2372 14.0989 12.998 14.9797 12.998 16C12.998 17.0203 13.2372 17.9011 13.8664 18.5078C14.4908 19.1099 15.3021 19.25 15.998 19.25C16.694 19.25 17.5053 19.1099 18.1297 18.5078C18.7589 17.9011 18.9981 17.0203 18.9981 16C18.9981 14.9797 18.7589 14.0989 18.1297 13.4922C17.5053 12.8901 16.694 12.75 15.998 12.75ZM14.998 16C14.998 15.2525 15.1756 15.0082 15.2547 14.9319C15.3386 14.851 15.5273 14.75 15.998 14.75C16.4688 14.75 16.6575 14.851 16.7414 14.9319C16.8205 15.0082 16.998 15.2525 16.998 16C16.998 16.7475 16.8205 16.9918 16.7414 17.0681C16.6575 17.149 16.4688 17.25 15.998 17.25C15.5273 17.25 15.3386 17.149 15.2547 17.0681C15.1756 16.9918 14.998 16.7475 14.998 16Z" fill="#000000" class="bmwfcol"/><path d="M2.99805 27.0001L28.998 27.0001L28.9981 11.0001C28.9981 10.4842 28.8358 9.95865 28.4377 9.56048C28.0395 9.16231 27.514 9.00009 26.9981 9.00009L16.4122 9.00009C15.5584 8.14663 14.8814 7.47384 14.317 6.95278C13.6916 6.3755 13.1565 5.93889 12.6192 5.63184C11.5115 4.99889 10.5124 4.99937 9.13502 5.00004L4.99805 5.00009C4.48213 5.00009 3.95662 5.16231 3.55844 5.56048C3.16027 5.95865 2.99805 6.48416 2.99805 7.00009V27.0001ZM26.9981 11.0001V25.0001L4.99805 25.0001L4.99805 11L26.9981 11.0001ZM13.569 9H4.99805L4.99805 7.00009H8.99805C10.5492 7.00009 11.021 7.02208 11.6269 7.36833C11.9646 7.56129 12.367 7.87467 12.9604 8.42239C13.1476 8.59522 13.3491 8.78686 13.569 9Z" fill="#000000" class="bmwfcol"/><title>personal-data-profile_rg_48</title></svg>