<svg width="48" height="48" viewBox="0 0 32 32" xmlns="http://www.w3.org/2000/svg"><path d="M20.7482 6.00586H22.2612V12.0005H20.7482V6.00586Z" fill="#000000" class="bmwfcol"/><path d="M23.3596 6.00586H28.6271V7.46692H26.7499V12.0005H25.2369V7.46692H23.3596V6.00586Z" fill="#000000" class="bmwfcol"/><path d="M9.43062 9.20475C10.4092 8.26112 11.7205 8.00049 12.9998 8.00049C14.279 8.00049 15.5903 8.26112 16.5689 9.20475C17.5523 10.153 17.9998 11.5962 17.9998 13.5005C17.9998 15.4048 17.5523 16.848 16.5689 17.7962C15.5903 18.7399 14.279 19.0005 12.9998 19.0005C11.7205 19.0005 10.4092 18.7399 9.43062 17.7962C8.44725 16.848 7.99976 15.4048 7.99976 13.5005C7.99976 11.5962 8.44725 10.153 9.43062 9.20475ZM10.8189 10.6444C10.3856 11.0623 9.99976 11.869 9.99976 13.5005C9.99976 15.1319 10.3856 15.9387 10.8189 16.3565C11.257 16.779 11.9457 17.0005 12.9998 17.0005C14.0538 17.0005 14.7425 16.779 15.1806 16.3565C15.6139 15.9387 15.9998 15.1319 15.9998 13.5005C15.9998 11.869 15.6139 11.0623 15.1806 10.6444C14.7425 10.222 14.0538 10.0005 12.9998 10.0005C11.9457 10.0005 11.257 10.222 10.8189 10.6444Z" fill="#000000" class="bmwfcol"/><path d="M5.30102 26.0005H3.23047L3.43348 25.2428C4.02627 23.02 4.63684 21.4395 6.28413 20.6593C7.0493 20.2968 7.9592 20.1461 9.01357 20.0732C10.0653 20.0005 11.3687 20.0005 12.964 20.0005H13.0354C14.6307 20.0005 15.9341 20.0005 16.9859 20.0732C18.0403 20.1461 18.9501 20.2968 19.7153 20.6592C21.3627 21.4396 21.9731 23.0195 22.5659 25.2424L22.769 26.0005H20.6985L20.6335 25.7581C20.0264 23.4813 19.5867 22.8114 18.8592 22.4667C18.4368 22.2667 17.828 22.1362 16.848 22.0684C15.8731 22.001 14.6382 22.0005 12.9997 22.0005C11.3613 22.0005 10.1263 22.001 9.15149 22.0684C8.17149 22.1362 7.56263 22.2667 7.14031 22.4667C6.41274 22.8114 5.97311 23.4813 5.36595 25.7582L5.30102 26.0005Z" fill="#000000" class="bmwfcol"/><title>person_it_rg_48</title></svg>