<svg width="48" height="48" viewBox="0 0 32 32" xmlns="http://www.w3.org/2000/svg"><path d="M3 27.0001H19.0001L17.0001 25.0001H5L5 11L27 11.0001V21.0001H29V11.0001C29 10.4842 28.8378 9.95865 28.4396 9.56048C28.0414 9.16231 27.5159 9.00009 27 9.00009L16.4142 9.00009C15.5603 8.14663 14.8834 7.47384 14.3189 6.95278C13.6935 6.3755 13.1585 5.93889 12.6211 5.63184C11.5135 4.99889 10.5143 4.99937 9.13697 5.00004L5 5.00009C4.48408 5.00009 3.95857 5.16231 3.5604 5.56048C3.16223 5.95865 3 6.48416 3 7.00009V27.0001ZM13.571 9H5V7.00009L9 7.00009C10.5512 7.00009 11.0229 7.02208 11.6289 7.36833C11.9665 7.56129 12.369 7.87467 12.9623 8.42239C13.1496 8.59522 13.3511 8.78686 13.571 9Z" fill="#000000" class="bmwfcol"/><path d="M13.8684 13.4922C14.4928 12.8901 15.3041 12.75 16 12.75C16.6959 12.75 17.5072 12.8901 18.1316 13.4922C18.7608 14.0989 19 14.9797 19 16C19 17.0203 18.7608 17.9011 18.1316 18.5078C17.5072 19.1099 16.6959 19.25 16 19.25C15.3041 19.25 14.4928 19.1099 13.8684 18.5078C13.2392 17.9011 13 17.0203 13 16C13 14.9797 13.2392 14.0989 13.8684 13.4922ZM15.2566 14.9319C15.1775 15.0082 15 15.2525 15 16C15 16.7475 15.1775 16.9918 15.2566 17.0681C15.3406 17.149 15.5293 17.25 16 17.25C16.4707 17.25 16.6594 17.149 16.7434 17.0681C16.8225 16.9918 17 16.7475 17 16C17 15.2525 16.8225 15.0082 16.7434 14.9319C16.6594 14.851 16.4707 14.75 16 14.75C15.5293 14.75 15.3406 14.851 15.2566 14.9319Z" fill="#000000" class="bmwfcol"/><path d="M19.4256 20.5764C18.9586 20.2426 18.4062 20.1066 17.8801 20.0522C17.3754 20 16.6596 20 15.9508 20C15.242 20 14.6235 20 14.1187 20.0522C13.5927 20.1066 13.061 20.2276 12.5939 20.5614C12.121 20.8994 11.8344 21.369 11.62 21.8764C11.4845 22.1971 11.3618 22.5733 11.2383 23H13.3323C13.3766 22.8705 13.4194 22.7563 13.4623 22.6548C13.6044 22.3185 13.7051 22.2256 13.7569 22.1886C13.8145 22.1474 13.9448 22.0809 14.3246 22.0416C14.7142 22.0012 15.2287 22 15.9994 22C16.7702 22 17.2847 22.0012 17.6743 22.0416C17.7739 22.0519 17.8563 22.0641 17.9248 22.0772L19.4256 20.5764Z" fill="#000000" class="bmwfcol"/><path d="M25.2387 28L22.2387 25H30V23H22.2384L25.2384 20H22.7636L18.7637 23.9999L22.7638 28H25.2387Z" fill="#000000" class="bmwfcol"/><title>personal--data_rg_48</title></svg>