<svg width="48" height="48" viewBox="0 0 32 32" xmlns="http://www.w3.org/2000/svg"><path d="M16 2C15.1436 2 14.1976 2.18715 13.4861 2.91899C12.7838 3.64135 12.5 4.70019 12.5 6C12.5 7.29981 12.7838 8.35865 13.4861 9.08101C14.1976 9.81285 15.1436 10 16 10C16.8564 10 17.8024 9.81285 18.5139 9.08101C19.2162 8.35865 19.5 7.29981 19.5 6C19.5 4.70019 19.2162 3.64135 18.5139 2.91899C17.8024 2.18715 16.8564 2 16 2ZM14.5 6C14.5 4.94267 14.737 4.5015 14.9201 4.31315C15.094 4.13428 15.3981 4 16 4C16.6019 4 16.906 4.13428 17.0799 4.31315C17.263 4.5015 17.5 4.94267 17.5 6C17.5 7.05733 17.263 7.4985 17.0799 7.68685C16.906 7.86573 16.6019 8 16 8C15.3981 8 15.094 7.86573 14.9201 7.68685C14.737 7.4985 14.5 7.05733 14.5 6Z" fill="#000000" class="bmwfcol"/><path d="M12.0373 15H9.96484L10.034 14.7416C10.4316 13.255 10.8887 12.0872 12.0225 11.4902C12.5542 11.2102 13.1516 11.1013 13.7731 11.0502C14.3844 11 15.1186 11 15.9627 11H16.0373C16.8814 11 17.6157 11 18.227 11.0502C18.8484 11.1013 19.4459 11.2102 19.9776 11.4902C21.1114 12.0872 21.5685 13.255 21.9661 14.7416L22.0352 15H19.9628C19.5943 13.706 19.319 13.4037 19.0458 13.2598C18.8652 13.1648 18.5819 13.0862 18.0631 13.0435C17.5431 13.0008 16.8902 13 16 13C15.1098 13 14.457 13.0008 13.937 13.0435C13.4182 13.0862 13.1349 13.1648 12.9543 13.2598C12.6811 13.4037 12.4058 13.706 12.0373 15Z" fill="#000000" class="bmwfcol"/><path d="M28.3684 15.4027C28.9704 15.6294 29.3997 15.9847 29.7074 16.2923L30.4147 16.9995L21.5891 25.8252C20.7036 26.7119 20.044 27.3724 19.0665 27.6982C18.5666 27.8649 18.0256 27.9338 17.3965 27.9669C16.7764 27.9995 16.0047 27.9995 15.029 27.9995H11.4144L9.41436 29.9995H7.58594L1.58594 23.9995L6.30666 19.2788C6.79506 18.7904 7.18005 18.4054 7.49357 18.1125C7.80632 17.8204 8.09329 17.5761 8.38671 17.3966C9.03833 16.9978 9.61222 16.9986 10.1896 16.9995L10.4 16.9995L14.1321 17.9995L19.0002 17.9995C19.4743 17.9995 19.9403 18.1452 20.3113 18.4565C22.8562 16.4487 24.7373 15.5135 26.1993 15.2522C27.0435 15.1014 27.7594 15.1732 28.3684 15.4027ZM19.0001 19.9995L13.8688 19.9995L10.1379 18.9998C9.5985 19.0026 9.55695 19.0252 9.43065 19.1025C9.31554 19.1729 9.14825 19.3037 8.85887 19.574C8.57319 19.8409 8.21232 20.2016 7.70726 20.7066L4.41436 23.9995L8.41436 27.9995H8.58594L10.5859 25.9995H15.0002C16.0109 25.9995 16.73 25.9992 17.2914 25.9697C17.8499 25.9403 18.1839 25.8842 18.4341 25.8008C18.9136 25.641 19.2397 25.3461 20.2933 24.2924L27.3861 17.1996C27.1749 17.1632 26.9036 17.1581 26.5511 17.221C25.4854 17.4115 23.7543 18.2105 21.0003 20.4693L21.0001 21.4139L20.7073 21.7067C19.6534 22.7605 18.7738 23.3791 17.8165 23.6982C16.9111 24 16.0168 23.9998 15.0818 23.9996L11.0002 23.9995V21.9995H15.0004C16.0358 21.9995 16.6158 21.9903 17.184 21.8009C17.6686 21.6393 18.2151 21.3179 19.0002 20.5772L19.0001 19.9995Z" fill="#000000" class="bmwfcol"/><title>person-on-hand_rg_48</title></svg>