<svg width="48" height="48" viewBox="0 0 32 32" xmlns="http://www.w3.org/2000/svg"><path d="M3 16C3 9.15672 8.28755 3.54847 15 3.03784V5.0448C9.3935 5.55002 5 10.2619 5 16C5 22.0751 9.92487 27 16 27C21.738 27 26.4499 22.6065 26.9552 17H28.9621C28.4515 23.7124 22.8432 29 16 29C8.8203 29 3 23.1797 3 16Z" fill="#000000" class="bmwfcol"/><path d="M17 3.03784C19.8381 3.25374 22.4216 4.38098 24.4583 6.12757L23.0391 7.54672C21.3717 6.15678 19.2868 5.25087 17 5.0448V3.03784Z" fill="#000000" class="bmwfcol"/><path d="M25.8725 7.54179C27.619 9.57847 28.7462 12.1618 28.9621 15H26.9552C26.7491 12.7132 25.8432 10.6283 24.4533 8.96094L25.8725 7.54179Z" fill="#000000" class="bmwfcol"/><path d="M13.1366 10.0116C13.9375 9.21077 15.0043 9 16 9C16.9957 9 18.0625 9.21077 18.8634 10.0116C19.661 10.8093 20 11.9973 20 13.5C20 15.0027 19.661 16.1907 18.8634 16.9884C18.0625 17.7892 16.9957 18 16 18C15.0043 18 13.9375 17.7892 13.1366 16.9884C12.339 16.1907 12 15.0027 12 13.5C12 11.9973 12.339 10.8093 13.1366 10.0116ZM14.5509 11.4259C14.286 11.6907 14 12.2527 14 13.5C14 14.7473 14.286 15.3093 14.5509 15.5741C14.8125 15.8358 15.2457 16 16 16C16.7543 16 17.1875 15.8358 17.4491 15.5741C17.714 15.3093 18 14.7473 18 13.5C18 12.2527 17.714 11.6907 17.4491 11.4259C17.1875 11.1642 16.7543 11 16 11C15.2457 11 14.8125 11.1642 14.5509 11.4259Z" fill="#000000" class="bmwfcol"/><path d="M11.5354 23H9.46289L9.53201 22.7416C9.93122 21.2491 10.3935 20.0654 11.6133 19.4749C12.1712 19.2048 12.8085 19.0995 13.491 19.0495C14.1681 19 14.9921 19 15.963 19C16.9339 19 17.828 19 18.5051 19.0495C19.1876 19.0995 19.8249 19.2048 20.3828 19.4749C21.6026 20.0654 22.0649 21.2491 22.4641 22.7416L22.5332 23H20.4607C20.0941 21.7135 19.8213 21.4251 19.5114 21.2751C19.2946 21.1702 18.9575 21.088 18.3591 21.0442C17.7634 21.0006 17.0119 21 15.9981 21C14.9842 21 14.2327 21.0006 13.637 21.0442C13.0387 21.088 12.7015 21.1702 12.4847 21.2751C12.1748 21.4251 11.902 21.7135 11.5354 23Z" fill="#000000" class="bmwfcol"/><title>personal-data-usage_rg_48</title></svg>