<svg width="48" height="48" viewBox="0 0 32 32" xmlns="http://www.w3.org/2000/svg"><path d="M16 3C14.1293 3 12.3125 3.39827 10.9804 4.73039C9.65148 6.05931 9 8.12234 9 11C9 13.8777 9.65148 15.9407 10.9804 17.2696C12.3125 18.6017 14.1293 19 16 19C17.8707 19 19.6875 18.6017 21.0196 17.2696C22.3485 15.9407 23 13.8777 23 11C23 8.12234 22.3485 6.05931 21.0196 4.73039C19.6875 3.39827 17.8707 3 16 3ZM11 11C11 8.37766 11.5985 6.94069 12.3946 6.14461C13.1875 5.35173 14.3707 5 16 5C17.6293 5 18.8125 5.35173 19.6054 6.14461C20.4015 6.94069 21 8.37766 21 11C21 13.6223 20.4015 15.0593 19.6054 15.8554C18.8125 16.6483 17.6293 17 16 17C14.3707 17 13.1875 16.6483 12.3946 15.8554C11.5985 15.0593 11 13.6223 11 11Z" fill="#000000" class="bmwfcol"/><path d="M3.36035 27.9999H5.4317C5.94076 26.1533 6.40925 25.0815 6.99996 24.4151V21.9351C5.04822 22.9229 4.20871 24.8283 3.42947 27.7415L3.36035 27.9999Z" fill="#000000" class="bmwfcol"/><path d="M9 18.4019H10.7679L15.2681 21H16.7321L21.2323 18.4019H23.0002V21.2561C22.2902 21.4454 21.6153 21.7408 21.0002 22.1459V20.8452L19 22.0001L20.2505 22.722C20.1579 22.8045 20.0673 22.8901 19.9787 22.9787C19.5795 23.3779 19.2424 23.8183 18.9658 24.2897L16.732 23H15.2682L10.7679 25.5982H9V18.4019ZM11 20.8452V23.1549L13.0002 22.0001L11 20.8452Z" fill="#000000" class="bmwfcol"/><path d="M31 28L30 28C30 26.5728 29.5199 25.3057 28.6071 24.3929C27.914 23.6998 27.0167 23.2562 26 23.0828V22H24V23.0828C22.9833 23.2562 22.086 23.6998 21.3929 24.3929C20.4801 25.3057 20 26.5728 20 28H19V30L31 30V28ZM22 28C22 27.0272 22.3199 26.2943 22.8071 25.8071C23.2943 25.3199 24.0272 25 25 25C25.9728 25 26.7057 25.3199 27.1929 25.8071C27.6801 26.2943 28 27.0272 28 28H22Z" fill="#000000" class="bmwfcol"/><title>person-office_rg_48</title></svg>