<svg width="48" height="48" viewBox="0 0 32 32" xmlns="http://www.w3.org/2000/svg"><path d="M15.998 3.00006C14.1274 3.00006 12.3106 3.39833 10.9784 4.73045C9.64952 6.05937 8.99805 8.1224 8.99805 11.0001C8.99805 13.8777 9.64952 15.9408 10.9784 17.2697C12.3106 18.6018 14.1274 19.0001 15.998 19.0001C17.8687 19.0001 19.6855 18.6018 21.0177 17.2697C22.3466 15.9408 22.998 13.8777 22.998 11.0001C22.998 8.1224 22.3466 6.05937 21.0177 4.73045C19.6855 3.39833 17.8687 3.00006 15.998 3.00006ZM10.998 11.0001C10.998 8.37773 11.5966 6.94075 12.3927 6.14467C13.1855 5.35179 14.3687 5.00006 15.998 5.00006C17.6274 5.00006 18.8106 5.35179 19.6034 6.14467C20.3995 6.94075 20.998 8.37773 20.998 11.0001C20.998 13.6224 20.3995 15.0594 19.6034 15.8555C18.8106 16.6483 17.6274 17.0001 15.998 17.0001C14.3687 17.0001 13.1855 16.6483 12.3927 15.8555C11.5966 15.0594 10.998 13.6224 10.998 11.0001Z" fill="#000000" class="bmwfcol"/><path d="M3.35742 28H5.42877C6.19922 25.2053 6.87672 24.1853 8.02566 23.6593C8.67931 23.36 9.56979 23.1826 10.8927 23.0914C11.9981 23.0153 13.3346 23.0026 14.997 23.0005V21.0004C13.3322 21.0024 11.9301 21.0152 10.7553 21.0962C9.35612 21.1925 8.17755 21.3901 7.19309 21.8408C5.10053 22.7989 4.23138 24.7327 3.42654 27.7416L3.35742 28Z" fill="#000000" class="bmwfcol"/><path d="M24.6898 17.035H23.3104L21.9798 21.1297L17.6743 21.1299L17.248 22.4417L20.7312 24.9726L19.4009 29.0674L20.5168 29.8782L24.0001 27.3476L27.4835 29.8782L28.5994 29.0674L27.2691 24.9726L30.7522 22.4417L30.326 21.1299L26.0205 21.1297L24.6898 17.035ZM23.2512 22.8797L24.0001 20.5751L24.749 22.8797L27.1723 22.8797L25.2119 24.3042L25.9606 26.6088L24.0001 25.1846L22.0396 26.6088L22.7884 24.3042L20.828 22.8797L23.2512 22.8797Z" fill="#000000" class="bmwfcol"/><title>person_star_rg_48</title></svg>