<svg width="48" height="48" viewBox="0 0 32 32" xmlns="http://www.w3.org/2000/svg"><path d="M5.84289 3.84289C6.40567 3.28011 7.17275 3 8 3C8.82725 3 9.59433 3.28011 10.1571 3.84289C10.7199 4.40567 11 5.17275 11 6C11 6.82725 10.7199 7.59433 10.1571 8.15711C9.59433 8.71989 8.82725 9 8 9C7.17275 9 6.40567 8.71989 5.84289 8.15711C5.28011 7.59433 5 6.82725 5 6C5 5.17275 5.28011 4.40567 5.84289 3.84289ZM7.25711 5.25711C7.11989 5.39433 7 5.62725 7 6C7 6.37275 7.11989 6.60567 7.25711 6.74289C7.39433 6.88011 7.62725 7 8 7C8.37275 7 8.60567 6.88011 8.74289 6.74289C8.88011 6.60567 9 6.37275 9 6C9 5.62725 8.88011 5.39433 8.74289 5.25711C8.60567 5.11989 8.37275 5 8 5C7.62725 5 7.39433 5.11989 7.25711 5.25711Z" fill="#000000" class="bmwfcol"/><path d="M23.7207 4L22.3101 12H20.2792L21.6899 4H23.7207Z" fill="#000000" class="bmwfcol"/><path d="M15.1084 30H17.1789L14.7674 21L8.26922 21C7.64181 20.6343 7.18492 20.352 6.84516 20.1105C6.46406 19.8395 6.28669 19.6584 6.19313 19.5253C6.03468 19.2999 6.00002 19.0874 6.00002 18V12.2671C6.60332 12.0941 7.27185 12 8.00002 12C8.72818 12 9.39671 12.0941 10 12.2671V17H16.0001V15H12V10.8851L11.3787 10.6309C10.3613 10.2147 9.22273 10 8.00002 10C6.7773 10 5.63872 10.2147 4.62138 10.6309L4.00002 10.8851V18L3.99982 18.1436C3.9981 19.009 3.99637 19.8781 4.55696 20.6755C4.83842 21.0759 5.22359 21.4116 5.6863 21.7405C6.04207 21.9934 6.47711 22.2653 7 22.5742V25H4V27H12V25H9V23L13.2327 23L15.1084 30Z" fill="#000000" class="bmwfcol"/><path d="M18 17L26 17V29H28V15H26V8H24V15L18 15V17Z" fill="#000000" class="bmwfcol"/><path d="M2.5 29C2.5 28.1716 3.17157 27.5 4 27.5C4.82843 27.5 5.5 28.1716 5.5 29C5.5 29.8284 4.82843 30.5 4 30.5C3.17157 30.5 2.5 29.8284 2.5 29Z" fill="#000000" class="bmwfcol"/><path d="M6.5 29C6.5 28.1716 7.17157 27.5 8 27.5C8.82843 27.5 9.5 28.1716 9.5 29C9.5 29.8284 8.82843 30.5 8 30.5C7.17157 30.5 6.5 29.8284 6.5 29Z" fill="#000000" class="bmwfcol"/><path d="M10.5 29C10.5 28.1716 11.1716 27.5 12 27.5C12.8284 27.5 13.5 28.1716 13.5 29C13.5 29.8284 12.8284 30.5 12 30.5C11.1716 30.5 10.5 29.8284 10.5 29Z" fill="#000000" class="bmwfcol"/><title>person_sitting_at_desk_rg_48</title></svg>