<svg width="48" height="48" viewBox="0 0 32 32" xmlns="http://www.w3.org/2000/svg"><path d="M5.43074 28H3.35938L3.4285 27.7416C4.23334 24.7327 5.10249 22.7988 7.19506 21.8408C8.17951 21.3901 9.35806 21.1925 10.7572 21.0961C12.1526 21 13.9383 21 16.0344 21C18.1304 21 19.8462 21 21.2416 21.0961C22.6408 21.1925 23.8194 21.3901 24.8038 21.8408C26.8964 22.7988 27.7655 24.7327 28.5704 27.7416L28.6395 28H26.5682C25.7977 25.2052 25.1202 24.1853 23.9712 23.6592C23.3176 23.3599 22.4271 23.1825 21.1042 23.0914C19.7854 23.0005 18.1375 23 15.9994 23C13.8614 23 12.2135 23.0005 10.8946 23.0914C9.57171 23.1825 8.68126 23.3599 8.02766 23.6592C6.87865 24.1853 6.20119 25.2052 5.43074 28Z" fill="#000000" class="bmwfcol"/><path d="M12.3941 6.14461C11.598 6.94067 10.9994 8.37767 10.9994 11C10.9994 13.6223 11.598 15.0593 12.3941 15.8554C13.187 16.6483 14.3701 17 15.9994 17C17.6288 17 18.812 16.6483 19.6048 15.8554C20.401 15.0593 20.9994 13.6223 20.9994 11C20.9994 8.37767 20.401 6.94067 19.6048 6.14461C18.812 5.35173 17.6288 5 15.9994 5C14.3701 5 13.187 5.35173 12.3941 6.14461ZM10.9798 4.73039C12.312 3.39827 14.1288 3 15.9994 3C17.8701 3 19.687 3.39827 21.0191 4.73039C22.348 6.05931 22.9994 8.12233 22.9994 11C22.9994 13.8777 22.348 15.9407 21.0191 17.2696C19.687 18.6017 17.8701 19 15.9994 19C14.1288 19 12.312 18.6017 10.9798 17.2696C9.65098 15.9407 8.99945 13.8777 8.99945 11C8.99945 8.12233 9.65098 6.05931 10.9798 4.73039Z" fill="#000000" class="bmwfcol"/><title>person_rg_48</title></svg>