<svg width="48" height="48" viewBox="0 0 32 32" xmlns="http://www.w3.org/2000/svg"><path d="M10.9804 4.73039C12.3125 3.39827 14.1293 3 16 3C17.8707 3 19.6875 3.39827 21.0196 4.73039C22.3485 6.05931 23 8.12234 23 11C23 13.8777 22.3485 15.9407 21.0196 17.2696C19.6875 18.6017 17.8707 19 16 19C14.1293 19 12.3125 18.6017 10.9804 17.2696C9.65148 15.9407 9 13.8777 9 11C9 8.12234 9.65148 6.05931 10.9804 4.73039ZM12.3946 6.14461C11.5985 6.94069 11 8.37766 11 11C11 13.6223 11.5985 15.0593 12.3946 15.8554C13.1875 16.6483 14.3707 17 16 17C17.6293 17 18.8125 16.6483 19.6054 15.8554C20.4015 15.0593 21 13.6223 21 11C21 8.37766 20.4015 6.94069 19.6054 6.14461C18.8125 5.35173 17.6293 5 16 5C14.3707 5 13.1875 5.35173 12.3946 6.14461Z" fill="#000000" class="bmwfcol"/><path d="M5.43071 28H3.35938L3.42849 27.7416C4.23333 24.7327 5.10248 22.7988 7.19504 21.8408C8.1795 21.39 9.35808 21.1925 10.7572 21.0961C12.1526 21 13.8684 21 15.9645 21C16.6602 21 17.3849 21 17.999 21.0035V23.0036C17.384 23.0001 16.7195 23 15.9994 23C13.8614 23 12.2135 23.0005 10.8946 23.0914C9.57174 23.1825 8.68125 23.36 8.02761 23.6592C6.87867 24.1853 6.20116 25.2052 5.43071 28Z" fill="#000000" class="bmwfcol"/><path d="M30 20H20V24.5455C20 25.6911 20.2084 26.8117 20.9083 27.9037C21.5946 28.9746 22.697 29.9291 24.3198 30.866L24.5518 31H25.4482L25.6802 30.866C27.303 29.9291 28.4054 28.9746 29.0917 27.9037C29.7916 26.8117 30 25.6911 30 24.5455V20ZM22 24.5455V22H28V24.5454C28 25.4289 27.8448 26.1428 27.4079 26.8245C26.9913 27.4745 26.2692 28.1719 25 28.9445C23.7308 28.1719 23.0087 27.4745 22.5921 26.8245C22.1552 26.1428 22 25.4289 22 24.5455Z" fill="#000000" class="bmwfcol"/><title>personal-data-protection_rg_48</title></svg>