<svg width="48" height="48" viewBox="0 0 32 32" xmlns="http://www.w3.org/2000/svg"><path d="M10.9803 4.73039C12.3125 3.39827 14.1293 3 15.9999 3C17.8706 3 19.6874 3.39827 21.0195 4.73039C22.3485 6.05931 22.9999 8.12234 22.9999 11C22.9999 13.8777 22.3485 15.9407 21.0195 17.2696C19.6874 18.6017 17.8706 19 15.9999 19C14.1293 19 12.3125 18.6017 10.9803 17.2696C9.65142 15.9407 8.99994 13.8777 8.99994 11C8.99994 8.12234 9.65142 6.05931 10.9803 4.73039ZM12.3945 6.14461C11.5985 6.94069 10.9999 8.37766 10.9999 11C10.9999 13.6223 11.5985 15.0593 12.3945 15.8554C13.1874 16.6483 14.3706 17 15.9999 17C17.6293 17 18.8125 16.6483 19.6053 15.8554C20.4014 15.0593 20.9999 13.6223 20.9999 11C20.9999 8.37766 20.4014 6.94069 19.6053 6.14461C18.8125 5.35173 17.6293 5 15.9999 5C14.3706 5 13.1874 5.35173 12.3945 6.14461Z" fill="#000000" class="bmwfcol"/><path d="M5.43121 28H3.35986L3.42898 27.7416C4.23383 24.7327 5.10297 22.7988 7.19553 21.8408C8.17999 21.39 9.35857 21.1925 10.7577 21.0961C12.1531 21 13.8689 21 15.965 21H15.9999V23C13.8619 23 12.214 23.0005 10.8951 23.0914C9.57223 23.1825 8.68175 23.36 8.0281 23.6592C6.87917 24.1853 6.20166 25.2052 5.43121 28Z" fill="#000000" class="bmwfcol"/><path d="M29.707 21.7071L28.2928 20.2929L22.9999 25.5858L20.707 23.2929L19.2928 24.7071L22.9999 28.4142L29.707 21.7071Z" fill="#000000" class="bmwfcol"/><title>person_checkmark_rg_48</title></svg>