<svg width="48" height="48" viewBox="0 0 32 32" xmlns="http://www.w3.org/2000/svg"><path d="M6 24H22V26C22 27.1541 21.7108 28.2034 20.9571 28.9571C20.2034 29.7108 19.1541 30 18 30H8C6.84586 30 5.79657 29.7108 5.04289 28.9571C4.28921 28.2034 4 27.1541 4 26V6C4 4.84586 4.28921 3.79657 5.04289 3.04289C5.79657 2.28921 6.84586 2 8 2H18C19.1541 2 20.2034 2.28921 20.9571 3.04289C21.2383 3.32408 21.4548 3.64642 21.6158 4H8C7.15415 4 6.70343 4.21079 6.45711 4.45711C6.21079 4.70343 6 5.15414 6 6V24ZM6 26C6 26.8459 6.21079 27.2966 6.45711 27.5429C6.70343 27.7892 7.15415 28 8 28H18C18.8459 28 19.2966 27.7892 19.5429 27.5429C19.7892 27.2966 20 26.8459 20 26H6Z" fill="#000000" class="bmwfcol"/><path d="M26 16L20 16V18H26V16Z" fill="#000000" class="bmwfcol"/><path d="M8.82789 6.82789C9.39856 6.25722 10.1741 6 11 6H27C27.8259 6 28.6014 6.25722 29.1721 6.82789C29.7428 7.39856 30 8.17408 30 9V19C30 19.8259 29.7428 20.6014 29.1721 21.1721C28.6014 21.7428 27.8259 22 27 22H11C10.1741 22 9.39856 21.7428 8.82789 21.1721C8.25722 20.6014 8 19.8259 8 19V9C8 8.17408 8.25722 7.39856 8.82789 6.82789ZM10 9V10H28V9C28 8.58592 27.8772 8.36144 27.7579 8.24211C27.6386 8.12278 27.4141 8 27 8H11C10.5859 8 10.3614 8.12278 10.2421 8.24211C10.1228 8.36144 10 8.58592 10 9ZM28 12H10V19C10 19.4141 10.1228 19.6386 10.2421 19.7579C10.3614 19.8772 10.5859 20 11 20H27C27.4141 20 27.6386 19.8772 27.7579 19.7579C27.8772 19.6386 28 19.4141 28 19V12Z" fill="#000000" class="bmwfcol"/><title>phone-credit-card_rg_48</title></svg>