<svg width="48" height="48" viewBox="0 0 32 32" xmlns="http://www.w3.org/2000/svg"><path d="M17.2387 9L14.2387 6H22V4H14.2384L17.2384 1H14.7636L10.7637 4.99989L14.7638 9H17.2387Z" fill="#000000" class="bmwfcol"/><path d="M26.7617 11L23.7617 14H26.2366L30.2367 9.99989L26.2368 6H23.7619L26.7619 9H19V11H26.7617Z" fill="#000000" class="bmwfcol"/><path d="M10.0858 19.75H13.2361L14 20.132L14.7639 19.75H17.9142L19 20.8358V23.781L17.6458 26H14.3358L14 25.6642L13.6642 26H10.403L9 23.7907V20.8358L10.0858 19.75ZM11 21.75V23.2093L11.5021 24H12.8358L13 23.8358V21.868L12.7639 21.75H11ZM15 21.868V23.8358L15.1642 24H16.5233L17 23.219L17 21.75H15.2361L15 21.868Z" fill="#000000" class="bmwfcol"/><path d="M14 12C10.1617 12 9.27999 12.0879 8.0473 12.6289C7.55707 12.8441 7.13996 13.234 6.81154 13.607C6.46893 13.9961 6.14956 14.4521 5.8696 14.8984C5.6862 15.1907 5.51409 15.488 5.35786 15.773C5.04569 15.6527 4.71606 15.5871 4.36415 15.5501C3.7574 15.4865 2.9701 15.5 2 15.5V17.5C2.74347 17.5 3.49561 17.455 4.2347 17.5483C3.76165 17.9938 3.30842 18.4451 2.94468 18.8888C2.47466 19.4621 2 20.2011 2 21.0428V30H8V28.82C12.0547 29.0733 15.9453 29.0733 20 28.82V30H26V21.0428C26 20.2011 25.5253 19.4621 25.0553 18.8888C24.6916 18.4451 24.2383 17.9937 23.7652 17.5483C23.7903 17.5451 23.8165 17.5421 23.8438 17.5392C24.5584 17.4642 25.2818 17.5 25.9994 17.5V15.5C25.8511 15.5 25.7071 15.4997 25.5673 15.4994C24.9243 15.4984 24.2755 15.4829 23.6351 15.5501C23.2834 15.587 22.9538 15.6526 22.6418 15.7728C22.4856 15.4881 22.3136 15.1912 22.1303 14.8991C21.8504 14.453 21.5311 13.9972 21.1886 13.6081C20.8416 13.214 20.4389 12.8428 19.9531 12.629C18.7213 12.0878 17.838 12 14 12ZM20.7839 16.5471C20.7135 16.5433 20.6419 16.5398 20.5689 16.5365C19.5298 16.4902 18.0801 16.4932 16.0696 16.4972C14.6906 16.5 13.3116 16.5 11.9326 16.4972C10.4331 16.4932 8.92931 16.4698 7.43074 16.5365C7.35776 16.5398 7.28612 16.5433 7.21581 16.5471C7.32543 16.3529 7.44211 16.1552 7.56383 15.9612C7.8113 15.5667 8.06658 15.2081 8.31254 14.9287C8.57258 14.6334 8.75816 14.5011 8.85112 14.4602C9.63664 14.1155 10.0888 14 14 14C17.9106 14 18.3642 14.1155 19.1479 14.4598C19.2419 14.5014 19.4277 14.6346 19.6874 14.9296C19.9334 15.2091 20.1888 15.5678 20.4363 15.9622C20.5578 16.1559 20.6744 16.3532 20.7839 16.5471ZM5.83168 18.7935C5.86398 18.7713 5.95159 18.7238 6.16245 18.6757C6.44499 18.6113 6.86696 18.5636 7.51964 18.5345C8.5089 18.4905 9.89102 18.4932 11.8816 18.4972C13.2943 18.5 14.707 18.5002 16.1197 18.4972C18.1099 18.4932 19.4913 18.4905 20.4799 18.5345C21.1322 18.5636 21.5537 18.6113 21.8358 18.6756C22.0738 18.7299 22.1546 18.7836 22.1762 18.8008C22.6937 19.2813 23.1323 19.708 23.4622 20.1008C22.4917 20.3024 21.4303 20.4203 20 20.5222V22.5271C21.5955 22.4167 22.8275 22.2845 24 22.0311V28H22V26.6744L20.9273 26.7526C16.2201 27.0958 11.7799 27.0958 7.0727 26.7526L6 26.6744V28H4V22.0301C5.17248 22.2835 6.40454 22.4157 8 22.5262V20.5212C6.57005 20.4194 5.50879 20.3014 4.5385 20.1C4.87002 19.7054 5.31115 19.2766 5.83168 18.7935Z" fill="#000000" class="bmwfcol"/><title>pick-up-&amp;-delivery_rg_48</title></svg>