<svg width="48" height="48" viewBox="0 0 32 32" xmlns="http://www.w3.org/2000/svg"><path d="M8 13.5C8 12.6716 8.67157 12 9.5 12C10.3284 12 11 12.6716 11 13.5C11 14.3284 10.3284 15 9.5 15C8.67157 15 8 14.3284 8 13.5Z" fill="#000000" class="bmwfcol"/><path d="M9.71672 6.00008L7.60207 5.99991L7.60207 9.46269C6.34215 10.0614 5.36149 11.0419 4.76269 12.3017L1.89997 12.299L1.89996 13.3C1.89996 13.3308 1.89793 13.3817 1.89522 13.4496C1.87788 13.8842 1.83274 15.0161 2.11277 16.0483C2.28052 16.6666 2.58515 17.3493 3.1552 17.882C3.60713 18.3043 4.17687 18.5864 4.85788 18.6963C5.34808 19.6424 6.06217 20.4232 6.9565 20.9883L8.2234 26H12.9999V22.9047L19.4999 22.9006V26H23.7628L25.1342 20.9947C26.9622 19.8455 27.9999 17.8276 27.9999 15.4032C27.9999 14.8246 27.941 14.2681 27.8257 13.7402C29.1014 13.2177 30 11.9638 30 10.5C30 8.567 28.433 7 26.5 7H26V9H26.5C27.3284 9 28 9.67157 28 10.5C28 11.1105 27.6353 11.6358 27.1118 11.87C26.8512 11.4174 26.5353 11.0033 26.1665 10.6345C24.9733 9.44138 23.3057 8.80105 21.3978 8.80105H13.4988C12.9896 8.80105 12.4354 8.54161 11.8006 8.03069C11.3298 7.65178 10.9123 7.2204 10.487 6.78092C10.33 6.61863 10.1719 6.45521 10.0096 6.29294L9.71672 6.00008ZM10.5466 9.58876C11.313 10.2056 12.3114 10.801 13.4988 10.801H21.3978C22.8512 10.801 23.9847 11.2811 24.7523 12.0487C25.5198 12.8163 25.9999 13.9498 25.9999 15.4032C25.9999 17.3534 25.1401 18.7454 23.8089 19.4524L23.4276 19.655L22.2371 24H21.4999V20.8994L10.9999 20.9059V24H9.78074L8.68378 19.6606L8.29203 19.4526C7.4507 19.0058 6.81785 18.3001 6.45315 17.3796L6.20289 16.7479H5.52346C4.99354 16.7479 4.70405 16.592 4.52078 16.4208C4.31547 16.2289 4.15319 15.9308 4.043 15.5246C3.93017 15.1087 3.89324 14.6829 3.88509 14.3009L6.14738 14.303L6.3793 13.6268C6.80305 12.3912 7.69084 11.5034 8.92647 11.0796L9.60207 10.8479V8.73381C9.89819 9.0261 10.2175 9.32393 10.5466 9.58876Z" fill="#000000" class="bmwfcol"/><title>pig_rg_48</title></svg>