<svg width="48" height="48" viewBox="0 0 32 32" xmlns="http://www.w3.org/2000/svg"><path d="M14.9134 5.37994C14.0225 4.65247 13.2263 3.81245 12.4139 3.00019L9.99953 3V7.79206C8.08878 8.62789 6.62734 10.0893 5.79151 12.0001H1.99953C1.99953 13.1571 1.95525 14.3243 2.05994 15.4774C2.18847 16.893 2.77966 17.9859 3.91971 18.8412C4.41904 19.2158 5.04822 19.601 5.8115 20.0454C6.49946 21.5939 7.60225 22.848 9.02944 23.7073L10.1797 28.0001H15.9995V25.0001H18.9995V28.0001H24.8197L25.97 23.7071C28.5266 22.1684 29.9995 19.3943 29.9995 16.0001C29.9995 13.6199 29.2771 11.5353 27.942 9.96503C27.8376 10.829 27.5901 11.6608 27.1938 12.421C27.7094 13.4187 27.9995 14.6208 27.9995 16.0001C27.9995 18.9221 26.702 21.0671 24.6434 22.1606L24.2591 22.3647L23.285 26.0001H20.9995V23.0001H13.9995V26.0001H11.7143L10.7403 22.3648C9.17097 21.5317 8.0651 20.3232 7.40465 18.6565C6.63035 18.2096 5.83626 17.7789 5.11994 17.2414C4.42432 16.7195 4.13011 16.1595 4.05174 15.2965C4.01918 14.9379 4.00692 14.5188 4.0023 14.0001H7.18878L7.42047 13.3245C8.17709 11.1182 9.88979 9.91284 11.9995 9.18933V5.41198C12.7608 6.16461 13.4487 6.81005 14.1752 7.33262C14.3244 6.64614 14.5694 5.98816 14.9134 5.37994Z" fill="#000000" class="bmwfcol"/><path d="M20.9995 4C19.5723 4 18.3052 4.48011 17.3924 5.39289C16.4796 6.30567 15.9995 7.57275 15.9995 9C15.9995 9.52324 16.0637 10.0258 16.1915 10.499L16.3418 11.055L24.0498 13.1204L24.4538 12.7528C25.4637 11.8342 25.9995 10.5071 25.9995 9C25.9995 7.57275 25.5194 6.30567 24.6066 5.39289C23.6938 4.48011 22.4267 4 20.9995 4ZM17.9995 9C17.9995 8.02725 18.3194 7.29433 18.8066 6.80711C19.2938 6.31989 20.0267 6 20.9995 6C21.9723 6 22.7052 6.31989 23.1924 6.80711C23.6796 7.29433 23.9995 8.02725 23.9995 9C23.9995 9.78708 23.7903 10.4178 23.4504 10.8893L18.0221 9.43473C18.0073 9.29576 17.9995 9.15082 17.9995 9Z" fill="#000000" class="bmwfcol"/><path d="M9.49953 13C9.49953 12.1716 10.1711 11.5 10.9995 11.5C11.8279 11.5 12.4995 12.1716 12.4995 13C12.4995 13.8284 11.8279 14.5 10.9995 14.5C10.1711 14.5 9.49953 13.8284 9.49953 13Z" fill="#000000" class="bmwfcol"/><title>piggy-bank_rg_48</title></svg>