<svg width="48" height="48" viewBox="0 0 32 32" xmlns="http://www.w3.org/2000/svg"><path d="M7.20735 16H4V28H28V16H24.7927C24.4627 16.7063 24.0855 17.3746 23.6875 18H26V26H6V18H8.3125C7.91451 17.3746 7.53726 16.7063 7.20735 16Z" fill="#000000" class="bmwfcol"/><path d="M11.5809 6.56812C10.598 7.5403 10 8.99514 10 10.9231C10 12.7871 10.8387 14.6628 12.1005 16.4719C13.2521 18.1231 14.6945 19.6329 16 20.9373C17.3055 19.6329 18.7479 18.1231 19.8995 16.4719C21.1613 14.6628 22 12.7871 22 10.9231C22 8.99514 21.402 7.5403 20.4191 6.56812C19.4348 5.59467 17.9581 5 16 5C14.0419 5 12.5652 5.59467 11.5809 6.56812ZM10.1746 5.14611C11.6088 3.72763 13.6321 3 16 3C18.3679 3 20.3912 3.72763 21.8254 5.14611C23.261 6.56585 24 8.57256 24 10.9231C24 13.3753 22.9067 15.6565 21.5399 17.6161C20.1683 19.5826 18.4464 21.3292 17.0538 22.7101L16.7614 23H15.2386L14.9462 22.7101C13.5536 21.3292 11.8317 19.5826 10.4601 17.6161C9.0933 15.6565 8 13.3753 8 10.9231C8 8.57256 8.73905 6.56585 10.1746 5.14611Z" fill="#000000" class="bmwfcol"/><path d="M14.5124 9.51242C14.2181 9.80677 14 10.2824 14 11C14 11.7176 14.2181 12.1932 14.5124 12.4876C14.8068 12.7819 15.2824 13 16 13C16.7176 13 17.1932 12.7819 17.4876 12.4876C17.7819 12.1932 18 11.7176 18 11C18 10.2824 17.7819 9.80677 17.4876 9.51242C17.1932 9.21807 16.7176 9 16 9C15.2824 9 14.8068 9.21807 14.5124 9.51242ZM13.0982 8.09821C13.8407 7.35568 14.8651 7 16 7C17.1349 7 18.1593 7.35568 18.9018 8.09821C19.6443 8.84073 20 9.86513 20 11C20 12.1349 19.6443 13.1593 18.9018 13.9018C18.1593 14.6443 17.1349 15 16 15C14.8651 15 13.8407 14.6443 13.0982 13.9018C12.3557 13.1593 12 12.1349 12 11C12 9.86513 12.3557 8.84073 13.0982 8.09821Z" fill="#000000" class="bmwfcol"/><title>pin-square_rg_48</title></svg>