<svg width="48" height="48" viewBox="0 0 32 32" xmlns="http://www.w3.org/2000/svg"><path d="M20.8577 3.33258C21.1046 3.47731 21.454 3.69387 21.8821 3.99028C22.7383 4.58299 23.9105 5.49582 25.2075 6.79286C26.5046 8.0899 27.4174 9.26211 28.0101 10.1183C28.3065 10.5464 28.5231 10.8958 28.6678 11.1427C28.8686 11.4852 29.0397 11.8425 29.2172 12.1974L26.4146 15C25.1596 15 24.0393 15.3424 23.0268 14.4226L19.7027 18.384C21.001 20.1328 21.0006 22.0689 21.0004 22.968L21.0004 23.4142L17.6554 26.7592L16.4952 26.0395C16.1907 25.8337 15.7529 25.5255 15.2055 25.1068C14.2596 24.3835 12.9862 23.3306 11.5071 21.9073L5.41436 28H4V26.5859L10.0928 20.4931C8.66968 19.014 7.61681 17.7407 6.89355 16.7949C6.47493 16.2475 6.16667 15.8097 5.96088 15.5051C5.70578 15.1276 5.47574 14.7354 5.24121 14.3449L8.58622 10.9999L9.03257 10.9999C9.93166 10.9998 11.8676 10.9994 13.6164 12.2976L17.5778 8.97358C16.7054 8.01324 17.0004 6.76722 17.0004 5.58575L19.803 2.7832C20.1578 2.96085 20.5152 3.13179 20.8577 3.33258ZM8.48227 15.58C9.27005 16.6102 10.4912 18.0765 12.2075 19.7929C13.9239 21.5092 15.3902 22.7303 16.4204 23.5181C16.7996 23.8081 17.1196 24.0393 17.3713 24.2149L18.9967 22.5895C18.9738 21.5965 18.8123 20.227 17.6839 19.0986L17.036 18.4507L21.7633 12.8169L23.0044 11.5897L23.7075 12.2929C24.0979 12.6832 24.3103 12.8943 24.4639 13.0233C24.6721 13.1982 25.338 13.0155 25.579 13.0071L26.7494 11.8368C26.6456 11.6718 26.5182 11.477 26.3657 11.2567C25.8334 10.4878 24.9963 9.41002 23.7933 8.20707C22.5904 7.00412 21.5126 6.16695 20.7437 5.63466C20.5234 5.48216 20.3286 5.35475 20.1636 5.25101L18.9933 6.42135C18.9811 6.77049 18.9373 7.11685 18.9207 7.46542C19.1434 7.76981 19.4423 8.02765 19.7075 8.29286L20.4107 8.99599L19.1835 10.2371L13.5497 14.9644L12.9018 14.3164C11.7734 13.1881 10.4039 13.0266 9.4109 13.0037L7.78548 14.6291C7.96105 14.8807 8.19229 15.2008 8.48227 15.58Z" fill="#000000" class="bmwfcol"/><title>pin_rg_48</title></svg>