<svg width="48" height="48" viewBox="0 0 32 32" xmlns="http://www.w3.org/2000/svg"><path d="M10.5 12H12.2143C13.7272 12 15.0658 12.5087 16.0285 13.4715C16.4358 13.8787 16.7618 14.3532 17.0024 14.8797C17.7367 14.2991 18.6734 14 19.7 14H21.5V15.8C21.5 16.9872 21.0999 18.0543 20.3271 18.8271C19.598 19.5562 18.6069 19.9536 17.5 19.9962V22H15.5V18.9939C14.1045 18.9336 12.8732 18.4303 11.9715 17.5285C11.0087 16.5658 10.5 15.2272 10.5 13.7143V12ZM12.5093 14.0093C12.568 14.9233 12.8995 15.6282 13.3857 16.1143C13.8718 16.6005 14.5767 16.932 15.4907 16.9907C15.432 16.0767 15.1005 15.3718 14.6143 14.8857C14.1282 14.3995 13.4233 14.068 12.5093 14.0093ZM17.5066 17.9934C18.1339 17.9527 18.5992 17.7266 18.9129 17.4129C19.2266 17.0992 19.4527 16.6339 19.4934 16.0066C18.8661 16.0473 18.4008 16.2734 18.0871 16.5871C17.7734 16.9008 17.5473 17.3661 17.5066 17.9934Z" fill="#000000" class="bmwfcol"/><path d="M24 3H8V9H2V11H6.77893C5.65384 12.7256 5 14.7864 5 17C5 19.2136 5.65384 21.2744 6.77893 23H2V25H8.45012C10.4201 26.8598 13.0769 28 16 28C18.9231 28 21.5799 26.8598 23.5499 25H30V23H25.2211C26.3462 21.2744 27 19.2136 27 17C27 14.7864 26.3462 12.7256 25.2211 11H30V9H24V3ZM22 7.77893C20.2744 6.65384 18.2136 6 16 6C13.7864 6 11.7256 6.65384 10 7.77893V5H22V7.77893ZM16 8C20.9706 8 25 12.0294 25 17C25 21.9706 20.9706 26 16 26C11.0294 26 7 21.9706 7 17C7 12.0294 11.0294 8 16 8Z" fill="#000000" class="bmwfcol"/><title>pipeline_and_plant_rg_48</title></svg>