<svg width="48" height="48" viewBox="0 0 32 32" xmlns="http://www.w3.org/2000/svg"><path d="M24 2H8V15H12.0774L12.366 14.5C12.9533 13.4828 13.1833 13.2801 13.4396 13.1743C13.5953 13.1101 13.8304 13.0575 14.2597 13.0291C14.4741 13.0149 14.7167 13.0076 15 13.0039V20.0828C13.9833 20.2562 13.086 20.6998 12.3929 21.3929C11.4801 22.3057 11 23.5728 11 25C11 26.4272 11.4801 27.6943 12.3929 28.6071C13.3057 29.5199 14.5728 30 16 30C17.4272 30 18.6943 29.5199 19.6071 28.6071C20.5199 27.6943 21 26.4272 21 25C21 23.5728 20.5199 22.3057 19.6071 21.3929C18.914 20.6998 18.0167 20.2562 17 20.0828V13.0039C17.2833 13.0076 17.5259 13.0149 17.7403 13.0291C18.1696 13.0575 18.4047 13.1101 18.5604 13.1744C18.8167 13.2801 19.0467 13.4828 19.634 14.5L19.9226 15H24V2ZM10 6V4H22V6H10ZM10 8H22V13H21.0685C20.6023 12.2493 20.1106 11.6505 19.3235 11.3257C18.8736 11.1399 18.3877 11.0675 17.8724 11.0334C17.3669 11 16.7552 11 16.0316 11H15.9684C15.2448 11 14.6331 11 14.1276 11.0334C13.6123 11.0675 13.1264 11.1399 12.6765 11.3256C11.8894 11.6505 11.3977 12.2493 10.9315 13H10V8ZM13.8071 22.8071C14.2943 22.3199 15.0272 22 16 22C16.9728 22 17.7057 22.3199 18.1929 22.8071C18.6801 23.2943 19 24.0272 19 25C19 25.9728 18.6801 26.7057 18.1929 27.1929C17.7057 27.6801 16.9728 28 16 28C15.0272 28 14.2943 27.6801 13.8071 27.1929C13.3199 26.7057 13 25.9728 13 25C13 24.0272 13.3199 23.2943 13.8071 22.8071Z" fill="#000000" class="bmwfcol"/><title>piston_rg_48</title></svg>