<svg width="48" height="48" viewBox="0 0 32 32" xmlns="http://www.w3.org/2000/svg"><path d="M25 5.23757L28 8.23756V5.76269L24 1.7627L20 5.76271V8.23758L23 5.23757V14.7629L20 11.7629V14.2378L24 18.2378L28 14.2378V11.7629L25 14.7629V5.23757Z" fill="#000000" class="bmwfcol"/><path d="M18 10.0002H6V20.0002H9.07735L9.36603 19.5002C9.79609 18.7553 9.89467 18.717 9.98288 18.6827L9.98409 18.6823C10.0679 18.6497 10.2264 18.6125 10.5729 18.5922C10.7001 18.5848 10.8409 18.58 11 18.577V22.968C10.3174 23.1255 9.70706 23.4501 9.22143 23.9357C8.50865 24.6485 8.14282 25.6299 8.14282 26.7143C8.14282 27.7987 8.50865 28.78 9.22143 29.4928C9.93421 30.2056 10.9156 30.5714 12 30.5714C13.0844 30.5714 14.0657 30.2056 14.7785 29.4928C15.4913 28.78 15.8571 27.7987 15.8571 26.7143C15.8571 25.6299 15.4913 24.6485 14.7785 23.9357C14.2929 23.4501 13.6826 23.1256 13 22.968V18.577C13.1591 18.58 13.2999 18.5848 13.4271 18.5922C13.7736 18.6125 13.9321 18.6497 14.0159 18.6823L14.0171 18.6827C14.1053 18.717 14.2039 18.7553 14.634 19.5002L14.9226 20.0002H18V10.0002ZM8 13.1252V12.0002H16V13.1252H8ZM8 14.8752H16V17.8999C15.6944 17.4458 15.3226 17.0444 14.7405 16.8181C14.3649 16.6721 13.9593 16.62 13.5441 16.5957C13.1338 16.5716 12.6296 16.5716 12.0291 16.5716H11.9709C11.3704 16.5716 10.8662 16.5716 10.4559 16.5957C10.0407 16.62 9.63512 16.6721 9.2595 16.8181C8.67743 17.0444 8.30562 17.4458 8 17.8999V14.8752ZM10.6356 25.35C10.9229 25.0627 11.3701 24.8571 12 24.8571C12.6299 24.8571 13.0771 25.0627 13.3643 25.35C13.6515 25.6372 13.8571 26.0844 13.8571 26.7143C13.8571 27.3442 13.6515 27.7914 13.3643 28.0786C13.0771 28.3658 12.6299 28.5714 12 28.5714C11.3701 28.5714 10.9229 28.3658 10.6356 28.0786C10.3484 27.7914 10.1428 27.3442 10.1428 26.7143C10.1428 26.0844 10.3484 25.6372 10.6356 25.35Z" fill="#000000" class="bmwfcol"/><path d="M6 2.0002H18V4.0002H6V2.0002Z" fill="#000000" class="bmwfcol"/><title>piston-displacement_rg_48</title></svg>