<svg width="48" height="48" viewBox="0 0 32 32" xmlns="http://www.w3.org/2000/svg"><path d="M8.00012 3H10.0001C12.0274 3 13.7944 3.68011 15.0572 4.94289C15.7073 5.59297 16.203 6.37669 16.5309 7.26075C17.4314 6.43383 18.6434 6 20.0001 6H22.0001V8C22.0001 9.42725 21.52 10.6943 20.6072 11.6071C19.6945 12.5199 18.4274 13 17.0001 13V15H15.0001V12C12.9729 12 11.2058 11.3199 9.94302 10.0571C8.68024 8.79433 8.00012 7.02725 8.00012 5V3ZM19.193 10.1929C19.6802 9.70567 20.0001 8.97275 20.0001 8C19.0274 8 18.2944 8.31989 17.8072 8.80711C17.32 9.29433 17.0001 10.0272 17.0001 11C17.9729 11 18.7058 10.6801 19.193 10.1929ZM13.643 6.35711C12.8058 5.51989 11.5729 5 10.0001 5C10.0001 6.57275 10.52 7.80567 11.3572 8.64289C12.1944 9.48011 13.4274 10 15.0001 10C15.0001 8.42725 14.4802 7.19433 13.643 6.35711Z" fill="#000000" class="bmwfcol"/><path d="M29.7074 14.2928C29.3997 13.9852 28.9704 13.6299 28.3684 13.4031C27.7594 13.1737 27.0435 13.1019 26.1993 13.2527C24.7373 13.514 22.8562 14.4492 20.3113 16.457C19.9403 16.1457 19.4743 16 19.0002 16L14.1321 16L10.4 15L10.1896 15C9.61222 14.9991 9.03833 14.9983 8.38671 15.3971C8.09329 15.5766 7.80632 15.8209 7.49357 16.113C7.18002 16.4059 6.79513 16.7908 6.30666 17.2793L1.58594 22L7.58594 28H9.41436L11.4144 26H15.0288C16.0044 26 16.7764 26 17.3965 25.9674C18.0256 25.9343 18.5666 25.8653 19.0665 25.6987C20.044 25.3729 20.7036 24.7124 21.5891 23.8256L30.4147 14.9999L29.7074 14.2928ZM13.8688 18L19.0001 18L19.0002 18.5777C18.2151 19.3184 17.6686 19.6398 17.184 19.8014C16.6158 19.9908 16.0358 20 15.0004 20H11.0002V22L15.0818 22C16.0168 22.0003 16.9111 22.0005 17.8165 21.6987C18.7738 21.3796 19.6534 20.761 20.7073 19.7071L21.0001 19.4143L21.0003 18.4698C23.7543 16.211 25.4854 15.412 26.5511 15.2215C26.9036 15.1585 27.1749 15.1637 27.3861 15.2001L20.2933 22.2929C19.2397 23.3465 18.9136 23.6415 18.4341 23.8013C18.1839 23.8847 17.8499 23.9408 17.2914 23.9702C16.73 23.9997 16.0109 24 15.0002 24H10.5859L8.58594 26H8.41436L4.41436 22L7.70726 18.7071C8.21232 18.2021 8.57319 17.8414 8.85887 17.5745C9.14825 17.3042 9.31554 17.1734 9.43065 17.103C9.55695 17.0257 9.5985 17.0031 10.1379 17.0003L13.8688 18Z" fill="#000000" class="bmwfcol"/><title>plant_on_hand_rg_48</title></svg>