<svg width="48" height="48" viewBox="0 0 32 32" xmlns="http://www.w3.org/2000/svg"><path d="M7 3H10C12.0272 3 13.7943 3.68011 15.0571 4.94289C16.0924 5.9782 16.7361 7.35249 16.9344 8.93122C17.7797 8.31897 18.8367 8 20 8H23V11C23 12.4272 22.5199 13.6943 21.6071 14.6071C20.6943 15.5199 19.4272 16 18 16H17V17C17 17.8549 17.405 18.5358 18.2027 19.2006C19.0334 19.8929 20.169 20.4665 21.4473 21.1057L21.5073 21.1357C22.7135 21.7387 24.0505 22.4071 25.0777 23.2631C26.155 24.1608 27 25.3549 27 27H25C25 26.1452 24.5951 25.4643 23.7973 24.7996C22.9667 24.1074 21.8312 23.5337 20.5529 22.8946L20.4929 22.8646C19.3169 22.2767 18.0165 21.6266 17 20.8009V24.5857L20 27.5857V30.4142L17 27.4142V30H15V25.4142L11 29.4142V26.5858L15 22.5858V20.8009C13.9835 21.6266 12.6831 22.2767 11.5071 22.8646L11.4471 22.8946C10.1688 23.5337 9.03329 24.1074 8.20265 24.7996C7.40494 25.4643 7 26.1452 7 27H5C5 25.3549 5.84503 24.1608 6.92228 23.2631C7.94954 22.4071 9.28653 21.7387 10.4927 21.1357L10.5527 21.1057C11.831 20.4665 12.9666 19.8929 13.7973 19.2006C14.595 18.5358 15 17.8549 15 17V13H14C11.9728 13 10.2057 12.3199 8.94289 11.0571C7.68011 9.79433 7 8.02725 7 6V3ZM17 14H18C18.9728 14 19.7057 13.6801 20.1929 13.1929C20.6801 12.7057 21 11.9728 21 11V10H20C19.0272 10 18.2943 10.3199 17.8071 10.8071C17.3199 11.2943 17 12.0272 17 13V14ZM9 5V6C9 7.57275 9.51989 8.80567 10.3571 9.64289C11.1943 10.4801 12.4272 11 14 11H15V10C15 8.42725 14.4801 7.19433 13.6429 6.35711C12.8057 5.51989 11.5728 5 10 5H9Z" fill="#000000" class="bmwfcol"/><title>plant_with_roots_rg_48</title></svg>