<svg width="48" height="48" viewBox="0 0 32 32" xmlns="http://www.w3.org/2000/svg"><path d="M14.2931 6.29304C13.5759 7.01021 12.9333 7.69927 12.3633 8.36342L13.7821 9.78225C14.1497 9.34904 14.5575 8.89629 15.0085 8.42274L23.5776 16.9918C23.104 17.4428 22.6513 17.8506 22.2181 18.2182L23.6369 19.637C24.3011 19.067 24.9901 18.4244 25.7073 17.7073L26.4144 17.0002L23.9143 14.5L28.7071 9.70718L27.2929 8.29297L22.5 13.0858L18.9143 9.50003L23.7071 4.70718L22.2929 3.29297L17.5 8.08582L15.0002 5.58594L14.2931 6.29304Z" fill="#000000" class="bmwfcol"/><path d="M17.4242 23.0495C17.8458 22.9805 18.2762 22.87 18.7169 22.717L17.0792 21.0793C15.462 21.3364 14.1233 20.7091 12.7073 19.293C11.2912 17.877 10.664 16.5383 10.921 14.9211L9.28329 13.2834C9.13027 13.7241 9.0198 14.1545 8.95079 14.5762C8.60034 16.7178 9.33943 18.4608 10.6146 19.9717C9.01398 21.5762 7.88885 22.739 7.16795 23.8204C6.28638 25.1427 6 26.3466 6 28.0001V30.0001H8V28.0001C8 26.6536 8.21362 25.8574 8.83205 24.9298C9.43367 24.0274 10.4085 23.0119 12.0291 21.386C13.5398 22.661 15.2827 23.3999 17.4242 23.0495Z" fill="#000000" class="bmwfcol"/><path d="M29.4144 28.0001L5.41436 4.00012H2.58594L26.5859 28.0001H29.4144Z" fill="#000000" class="bmwfcol"/><title>plug_crossed_out_rg_48</title></svg>