<svg width="48" height="48" viewBox="0 0 32 32" xmlns="http://www.w3.org/2000/svg"><path d="M16 8H11V6H16V8Z" fill="#000000" class="bmwfcol"/><path d="M16 12H8V10H16V12Z" fill="#000000" class="bmwfcol"/><path d="M16 16H4V14H16V16Z" fill="#000000" class="bmwfcol"/><path d="M4 8V11H6V8H9V6H6V3H4V6H1V8H4Z" fill="#000000" class="bmwfcol"/><path d="M28 7.91371V5.84296L20 3.69629V20.2344C19.8593 20.1887 19.7249 20.151 19.5942 20.1203C19.0817 19.9999 18.6699 19.9999 18.2788 20C17.2377 19.9983 15.9567 20.2906 14.933 20.937C13.8863 21.5981 13.0002 22.694 13 24.2499C12.9997 26.5494 14.804 28 16.75 28C18.0845 28 19.3912 27.7306 20.3877 26.9902C21.4333 26.2133 22 25.0206 22 23.5V6.30371L28 7.91371ZM20 22.3809V23.5C20 24.4794 19.6635 25.0367 19.195 25.3848C18.6774 25.7693 17.8591 26 16.75 26C15.7921 26 14.9999 25.3319 15 24.2501C15.0001 23.5626 15.3614 23.0319 16.001 22.628C16.6632 22.2098 17.5364 21.9987 18.25 22C18.6582 22 18.8638 22.0031 19.1367 22.0672C19.3412 22.1153 19.6049 22.2039 20 22.3809Z" fill="#000000" class="bmwfcol"/><title>plus-note_rg_48</title></svg>