<svg width="48" height="48" viewBox="0 0 32 32" xmlns="http://www.w3.org/2000/svg"><path d="M21.0858 15.0001L16.0857 10H18.9142L21 12.0859V9.99908L21.468 9.70503C22.4688 9.07613 23.6754 8.75008 25 8.75008C26.3246 8.75008 27.5312 9.07613 28.5321 9.70503L29 9.99908V17.0001H27V11.1482C26.4381 10.8953 25.7688 10.7501 25 10.7501C24.2312 10.7501 23.5619 10.8953 23 11.1482V15.0001H21.0858Z" fill="#000000" class="bmwfcol"/><path d="M25 3.5C24.3228 3.5 23.6807 3.73011 23.2054 4.20539C22.7301 4.68067 22.5 5.32275 22.5 6C22.5 6.67725 22.7301 7.31933 23.2054 7.79461C23.6807 8.26989 24.3228 8.5 25 8.5C25.6772 8.5 26.3193 8.26989 26.7946 7.79461C27.2699 7.31933 27.5 6.67725 27.5 6C27.5 5.32275 27.2699 4.68067 26.7946 4.20539C26.3193 3.73011 25.6772 3.5 25 3.5ZM24.5 6C24.5 5.77725 24.5699 5.66933 24.6196 5.61961C24.6693 5.56989 24.7772 5.5 25 5.5C25.2228 5.5 25.3307 5.56989 25.3804 5.61961C25.4301 5.66933 25.5 5.77725 25.5 6C25.5 6.22275 25.4301 6.33067 25.3804 6.38039C25.3307 6.43011 25.2228 6.5 25 6.5C24.7772 6.5 24.6693 6.43011 24.6196 6.38039C24.5699 6.33067 24.5 6.22275 24.5 6Z" fill="#000000" class="bmwfcol"/><path d="M3 4H19V8H17V6H5V13H17V15H3V4Z" fill="#000000" class="bmwfcol"/><path d="M25 18C24.3228 18 23.6807 18.2301 23.2054 18.7054C22.7301 19.1807 22.5 19.8228 22.5 20.5C22.5 21.1772 22.7301 21.8193 23.2054 22.2946C23.6807 22.7699 24.3228 23 25 23C25.6772 23 26.3193 22.7699 26.7946 22.2946C27.2699 21.8193 27.5 21.1772 27.5 20.5C27.5 19.8228 27.2699 19.1807 26.7946 18.7054C26.3193 18.2301 25.6772 18 25 18ZM24.5 20.5C24.5 20.2772 24.5699 20.1693 24.6196 20.1196C24.6693 20.0699 24.7772 20 25 20C25.2228 20 25.3307 20.0699 25.3804 20.1196C25.4301 20.1693 25.5 20.2772 25.5 20.5C25.5 20.7228 25.4301 20.8307 25.3804 20.8804C25.3307 20.9301 25.2228 21 25 21C24.7772 21 24.6693 20.9301 24.6196 20.8804C24.5699 20.8307 24.5 20.7228 24.5 20.5Z" fill="#000000" class="bmwfcol"/><path d="M23 27V25.6481C23.5619 25.3953 24.2312 25.25 25 25.25C25.7688 25.25 26.4381 25.3953 27 25.6481V27H29V24.499L28.5321 24.205C27.5312 23.5761 26.3246 23.25 25 23.25C23.6754 23.25 22.4688 23.5761 21.4679 24.205L21 24.499V27H23Z" fill="#000000" class="bmwfcol"/><path d="M14 25.6481V27H12V24.499L12.4679 24.205C13.4688 23.5761 14.6754 23.25 16 23.25C17.3246 23.25 18.5312 23.5761 19.5321 24.205L20 24.499V27H18V25.6481C17.4381 25.3953 16.7688 25.25 16 25.25C15.2312 25.25 14.5619 25.3953 14 25.6481Z" fill="#000000" class="bmwfcol"/><path d="M16 18C15.3228 18 14.6807 18.2301 14.2054 18.7054C13.7301 19.1807 13.5 19.8228 13.5 20.5C13.5 21.1772 13.7301 21.8193 14.2054 22.2946C14.6807 22.7699 15.3228 23 16 23C16.6772 23 17.3193 22.7699 17.7946 22.2946C18.2699 21.8193 18.5 21.1772 18.5 20.5C18.5 19.8228 18.2699 19.1807 17.7946 18.7054C17.3193 18.2301 16.6772 18 16 18ZM15.5 20.5C15.5 20.2772 15.5699 20.1693 15.6196 20.1196C15.6693 20.0699 15.7772 20 16 20C16.2228 20 16.3307 20.0699 16.3804 20.1196C16.4301 20.1693 16.5 20.2772 16.5 20.5C16.5 20.7228 16.4301 20.8307 16.3804 20.8804C16.3307 20.9301 16.2228 21 16 21C15.7772 21 15.6693 20.9301 15.6196 20.8804C15.5699 20.8307 15.5 20.7228 15.5 20.5Z" fill="#000000" class="bmwfcol"/><path d="M5 25.6481V27H3V24.499L3.46795 24.205C4.46879 23.5761 5.67537 23.25 7 23.25C8.32463 23.25 9.53121 23.5761 10.5321 24.205L11 24.499V27H9V25.6481C8.43808 25.3953 7.76878 25.25 7 25.25C6.23122 25.25 5.56192 25.3953 5 25.6481Z" fill="#000000" class="bmwfcol"/><path d="M7 18C6.32275 18 5.68067 18.2301 5.20539 18.7054C4.73011 19.1807 4.5 19.8228 4.5 20.5C4.5 21.1772 4.73011 21.8193 5.20539 22.2946C5.68067 22.7699 6.32275 23 7 23C7.67725 23 8.31933 22.7699 8.79461 22.2946C9.26989 21.8193 9.5 21.1772 9.5 20.5C9.5 19.8228 9.26989 19.1807 8.79461 18.7054C8.31933 18.2301 7.67725 18 7 18ZM6.5 20.5C6.5 20.2772 6.56989 20.1693 6.61961 20.1196C6.66933 20.0699 6.77725 20 7 20C7.22275 20 7.33067 20.0699 7.38039 20.1196C7.43011 20.1693 7.5 20.2772 7.5 20.5C7.5 20.7228 7.43011 20.8307 7.38039 20.8804C7.33067 20.9301 7.22275 21 7 21C6.77725 21 6.66933 20.9301 6.61961 20.8804C6.56989 20.8307 6.5 20.7228 6.5 20.5Z" fill="#000000" class="bmwfcol"/><title>pointing_teacher_and_audience_rg_48</title></svg>