<svg width="48" height="48" viewBox="0 0 32 32" xmlns="http://www.w3.org/2000/svg"><path d="M12.1496 15.5001H19.3671V13.4066H14.3456V10.3614H17.1711V8.42897H14.3456V7.31633C14.3456 7.12601 14.3602 6.81857 14.5359 6.61361C14.7994 6.32081 15.1654 6.24761 15.6339 6.24761C16.4245 6.24761 17.8006 6.52577 18.7669 6.73073V4.69577L18.7395 4.69022C17.7323 4.48583 16.386 4.21265 15.3704 4.21265C14.0821 4.21265 13.4086 4.38833 12.8377 5.00321C12.2521 5.64737 12.1496 6.40865 12.1496 7.16993V15.5001Z" fill="#000000" class="bmwfcol"/><path d="M29.7073 16.2928C29.3996 15.9852 28.9703 15.6299 28.3683 15.4031C27.7593 15.1737 27.0434 15.1019 26.1992 15.2527C24.7372 15.514 22.8561 16.4492 20.3112 18.457C19.9401 18.1457 19.4742 18 19 18L14.1319 18L10.3999 17L10.1895 17C9.6121 16.9991 9.03821 16.9983 8.38659 17.3971C8.09317 17.5766 7.8062 17.8209 7.49345 18.113C7.1799 18.4059 6.79501 18.7908 6.30654 19.2793L1.58582 24L7.58582 30H9.41424L11.4142 28H15.0287C16.0043 28 16.7763 28 17.3964 27.9674C18.0254 27.9343 18.5664 27.8653 19.0664 27.6987C20.0439 27.3729 20.7035 26.7124 21.589 25.8256L30.4146 16.9999L29.7073 16.2928ZM13.8686 20L19 20L19.0001 20.5777C18.215 21.3184 17.6684 21.6398 17.1839 21.8014C16.6157 21.9908 16.0357 22 15.0003 22H11V24L15.0816 24C16.0167 24.0003 16.911 24.0005 17.8164 23.6987C18.7737 23.3796 19.6532 22.761 20.7071 21.7071L20.9999 21.4143L21.0001 20.4698C23.7542 18.211 25.4853 17.412 26.551 17.2215C26.9035 17.1585 27.1747 17.1637 27.386 17.2001L20.2932 24.2929C19.2395 25.3465 18.9135 25.6415 18.4339 25.8013C18.1838 25.8847 17.8497 25.9408 17.2913 25.9702C16.7299 25.9997 16.0107 26 15 26H10.5858L8.58582 28H8.41424L4.41424 24L7.70714 20.7071C8.2122 20.2021 8.57307 19.8414 8.85874 19.5745C9.14812 19.3042 9.31542 19.1734 9.43053 19.103C9.55683 19.0257 9.59838 19.0031 10.1378 19.0003L13.8686 20Z" fill="#000000" class="bmwfcol"/><title>pound_symbol_on_hand_rg_48</title></svg>