<svg width="48" height="48" viewBox="0 0 32 32" xmlns="http://www.w3.org/2000/svg"><path d="M2 27H8V25.82C12.0547 26.0734 15.9453 26.0734 20 25.82V27H26V18.0428C26 17.84 25.9724 17.6432 25.924 17.4531C24.91 17.8118 23.7629 17.9999 22.5 17.9999C21.6067 17.9999 20.7714 17.9058 20 17.7238V19.5267C21.5978 19.416 22.8287 19.2838 24 19.0306V25H22V23.6745L20.9273 23.7527C16.2201 24.0958 11.7799 24.0958 7.0727 23.7527L6 23.6745V25H4V19.0306C5.17134 19.2838 6.4022 19.416 8.00004 19.5267V17.5217C6.57202 17.42 5.50967 17.3021 4.53816 17.1004C4.8959 16.6745 5.38134 16.2089 5.95649 15.678C5.99155 15.6671 6.03079 15.6559 6.07465 15.6445C6.37309 15.5673 6.81449 15.5024 7.4781 15.4546C8.80591 15.359 10.835 15.343 14 15.343C14.6988 15.343 15.3421 15.3437 15.9348 15.346C15.4318 14.7637 15.0202 14.0935 14.708 13.3433C14.478 13.3431 14.2421 13.343 14 13.343C10.8594 13.343 8.7496 13.3578 7.33441 13.4598L7.26241 13.4651C7.3583 13.2974 7.4592 13.128 7.56383 12.9612C7.8113 12.5667 8.06658 12.2081 8.31254 11.9288C8.57258 11.6335 8.75816 11.5011 8.85112 11.4602C9.63664 11.1155 10.0888 11 14 11C14.0317 11 14.0632 11 14.0945 11C14.0319 10.5204 14 10.02 14 9.49987C14 9.33117 14.0034 9.16453 14.01 9C14.0067 9 14.0134 9 14.01 9C10.1717 9 9.27999 9.0879 8.0473 9.62887C7.55708 9.84407 7.13996 10.2341 6.81154 10.607C6.46893 10.9961 6.14956 11.4521 5.8696 11.8984C5.68619 12.1908 5.51407 12.488 5.35785 12.773C5.04569 12.6527 4.71608 12.5871 4.36419 12.5502C3.85059 12.4963 3.2077 12.4977 2.43401 12.4994C2.29366 12.4997 2.149 12.5001 2.00003 12.5001V14.5001C2.1626 14.5001 2.31508 14.4998 2.45847 14.4996H2.46047C3.24547 14.4983 3.75737 14.4975 4.15545 14.5393C4.18295 14.5422 4.20933 14.5452 4.23465 14.5484C3.76162 14.9938 3.30841 15.4452 2.94468 15.8888C2.47466 16.4621 2 17.2011 2 18.0428V27Z" fill="#000000" class="bmwfcol"/><path d="M13.2361 16.7499H10.0858L9.00003 17.8357V20.7906L10.4031 22.9999H13.6642L14 22.6642L14.3358 22.9999H17.6458L19 20.781V17.8357L17.9143 16.7499H14.764L14 17.1319L13.2361 16.7499ZM11 20.2093V18.7499H12.764L13 18.868V20.8357L12.8358 20.9999H11.5022L11 20.2093ZM15 20.8357V18.868L15.2361 18.7499H17V20.2189L16.5234 20.9999H15.1642L15 20.8357Z" fill="#000000" class="bmwfcol"/><path d="M22.5001 3C20.5922 3 18.9425 3.59337 17.768 4.76789C16.5934 5.94241 16.0001 7.59212 16.0001 9.5C16.0001 11.4079 16.5934 13.0576 17.768 14.2321C18.9425 15.4066 20.5922 16 22.5001 16C24.0211 16 25.378 15.6229 26.4608 14.8748L29.2929 17.7071L30.7071 16.2929L27.875 13.4606C28.623 12.3778 29.0001 11.0209 29.0001 9.5C29.0001 7.59212 28.4067 5.94241 27.2322 4.76789C26.0577 3.59337 24.408 3 22.5001 3ZM18.0001 9.5C18.0001 8.00788 18.4567 6.90759 19.1822 6.18211C19.9077 5.45663 21.008 5 22.5001 5C23.9922 5 25.0925 5.45663 25.818 6.18211C26.5434 6.90759 27.0001 8.00788 27.0001 9.5C27.0001 10.9921 26.5434 12.0924 25.818 12.8179C25.0925 13.5434 23.9922 14 22.5001 14C21.008 14 19.9077 13.5434 19.1822 12.8179C18.4567 12.0924 18.0001 10.9921 18.0001 9.5Z" fill="#000000" class="bmwfcol"/><title>pre-owned-car-search_rg_48</title></svg>