<svg width="48" height="48" viewBox="0 0 32 32" xmlns="http://www.w3.org/2000/svg"><path d="M5.70451 19.1179L17.0048 30.4181L30.4191 17.0038L19.1207 5.70538C18.4666 5.05089 17.8092 4.39317 17.0448 3.97463C16.1808 3.50154 15.2367 3.35364 14.0571 3.56175C11.084 4.08623 8.11112 4.61182 5.1382 5.13721C4.61273 8.11015 4.087 11.083 3.56271 14.0562C3.35499 15.2336 3.50195 16.1767 3.9734 17.0398C4.39177 17.8058 5.04988 18.4636 5.70451 19.1179ZM16.0843 5.72888C16.4524 5.93043 16.8066 6.23767 17.277 6.695C20.7613 10.0822 24.1546 13.5677 27.5907 17.0038L17.0048 27.5897L7.18089 17.7658C6.44389 17.0287 5.994 16.5669 5.72864 16.0811C5.5029 15.6678 5.39265 15.1952 5.53232 14.4035C5.97582 11.89 6.41989 9.37655 6.86409 6.86315C9.37752 6.419 11.8909 5.97477 14.4045 5.53133C15.1974 5.39146 15.6703 5.5022 16.0843 5.72888Z" fill="#000000" class="bmwfcol"/><path d="M11.0009 9.50002C10.1725 9.50002 9.5009 10.1716 9.5009 11C9.5009 11.8284 10.1725 12.5 11.0009 12.5C11.8294 12.5 12.5009 11.8284 12.5009 11C12.5009 10.1716 11.8294 9.50002 11.0009 9.50002Z" fill="#000000" class="bmwfcol"/><title>price-tag_rg_48</title></svg>