<svg width="48" height="48" viewBox="0 0 32 32" xmlns="http://www.w3.org/2000/svg"><path d="M23.5 13C22.6716 13 22 13.6716 22 14.5C22 15.3284 22.6716 16 23.5 16C24.3284 16 25 15.3284 25 14.5C25 13.6716 24.3284 13 23.5 13Z" fill="#000000" class="bmwfcol"/><path d="M25 4H7V9.2988C6.82005 9.32848 6.64817 9.36124 6.48404 9.39742C5.52519 9.60877 4.74376 9.95488 4.14702 10.5656C3.55855 11.1679 3.25154 11.9252 3.0338 12.7426L3.00011 12.8691L3 23H7V28H25V23H28.974L28.9739 12.8691L28.9402 12.7426C28.7226 11.926 28.416 11.1692 27.8285 10.5672C27.2327 9.95663 26.4525 9.61023 25.4952 9.39858C25.3374 9.36369 25.1724 9.33197 25 9.30312V4ZM23 9.09779C22.6329 9.07655 22.2436 9.06018 21.8306 9.04736C20.306 9 18.3387 9 15.9578 9C13.5831 9 11.6784 9 10.1559 9.04697C9.74803 9.05955 9.36315 9.07557 9 9.0963V6H23V9.09779ZM7 18V21H5.00002L5.0001 13.1349C5.17246 12.5286 5.35584 12.1902 5.57753 11.9633C5.80546 11.7301 6.17365 11.5138 6.91455 11.3505C7.66838 11.1844 8.71524 11.0924 10.2175 11.046C11.7057 11.0001 13.6058 11 16 11C18.4008 11 20.2785 11.0001 21.7685 11.0464C23.2673 11.0929 24.3115 11.1852 25.0634 11.3514C25.8023 11.5148 26.1696 11.7309 26.3971 11.964C26.6185 12.1909 26.8017 12.5292 26.9739 13.1349L26.974 21H25V18H7ZM9 26V20H23V26H9Z" fill="#000000" class="bmwfcol"/><title>printer_rg_48</title></svg>