<svg width="48" height="48" viewBox="0 0 32 32" xmlns="http://www.w3.org/2000/svg"><path d="M22.0008 2C21.0052 2 19.9384 2.21077 19.1375 3.01164C18.3398 3.80931 18.0008 4.99734 18.0008 6.5C18.0008 8.00266 18.3398 9.19069 19.1375 9.98836C19.9384 10.7892 21.0052 11 22.0008 11C22.9965 11 24.0633 10.7892 24.8642 9.98836C25.6619 9.19069 26.0008 8.00266 26.0008 6.5C26.0008 4.99734 25.6619 3.80931 24.8642 3.01164C24.0633 2.21077 22.9965 2 22.0008 2ZM20.0008 6.5C20.0008 5.25266 20.2869 4.69069 20.5517 4.42586C20.8133 4.16423 21.2465 4 22.0008 4C22.7552 4 23.1884 4.16423 23.45 4.42586C23.7148 4.69069 24.0008 5.25266 24.0008 6.5C24.0008 7.74734 23.7148 8.30931 23.45 8.57414C23.1884 8.83577 22.7552 9 22.0008 9C21.2465 9 20.8133 8.83577 20.5517 8.57414C20.2869 8.30931 20.0008 7.74734 20.0008 6.5Z" fill="#000000" class="bmwfcol"/><path d="M16.011 6H6C5.48408 6 4.95856 6.16222 4.56039 6.56039C4.16222 6.95856 4 7.48408 4 8V28C4 28.5159 4.16222 29.0414 4.56039 29.4396C4.95856 29.8378 5.48408 30 6 30H22C22.5159 30 23.0414 29.8378 23.4396 29.4396C23.8378 29.0414 24 28.5159 24 28V16.0257C23.5213 16.0014 22.9005 16 22 16V28H6V16H13.3941L13.6015 15.2248C13.703 14.8453 13.8204 14.428 13.9747 14H6V8H16.1075C16.0317 7.50373 16 6.9996 16 6.5C16 6.33368 16.0035 6.16686 16.011 6Z" fill="#000000" class="bmwfcol"/><path d="M14 18.5C13.1716 18.5 12.5 19.1716 12.5 20C12.5 20.8284 13.1716 21.5 14 21.5C14.8284 21.5 15.5 20.8284 15.5 20C15.5 19.1716 14.8284 18.5 14 18.5Z" fill="#000000" class="bmwfcol"/><path d="M9 18.5C8.17157 18.5 7.5 19.1716 7.5 20C7.5 20.8284 8.17157 21.5 9 21.5C9.82843 21.5 10.5 20.8284 10.5 20C10.5 19.1716 9.82843 18.5 9 18.5Z" fill="#000000" class="bmwfcol"/><path d="M19 18.5C18.1716 18.5 17.5 19.1716 17.5 20C17.5 20.8284 18.1716 21.5 19 21.5C19.8284 21.5 20.5 20.8284 20.5 20C20.5 19.1716 19.8284 18.5 19 18.5Z" fill="#000000" class="bmwfcol"/><path d="M19 23.5C18.1716 23.5 17.5 24.1716 17.5 25C17.5 25.8284 18.1716 26.5 19 26.5C19.8284 26.5 20.5 25.8284 20.5 25C20.5 24.1716 19.8284 23.5 19 23.5Z" fill="#000000" class="bmwfcol"/><path d="M7.55078 25C7.55078 24.2648 8.17168 23.75 8.83411 23.75H14.1674C14.8299 23.75 15.4508 24.2648 15.4508 25C15.4508 25.7352 14.8299 26.25 14.1674 26.25H8.83411C8.17168 26.25 7.55078 25.7352 7.55078 25Z" fill="#000000" class="bmwfcol"/><path d="M17.5373 16H15.4648L15.534 15.7416C15.9332 14.2491 16.3954 13.0654 17.6152 12.4749C18.1731 12.2049 18.8105 12.0995 19.493 12.0495C20.17 12 20.994 12 21.965 12H22.035C23.006 12 23.83 12 24.507 12.0495C25.1895 12.0995 25.8269 12.2049 26.3848 12.4749C27.6046 13.0654 28.0668 14.2491 28.466 15.7416L28.5352 16H26.4627C26.0961 14.7135 25.8232 14.4251 25.5134 14.2751C25.2966 14.1702 24.9594 14.088 24.361 14.0442C23.7654 14.0006 23.0139 14 22 14C20.9862 14 20.2346 14.0006 19.639 14.0442C19.0406 14.088 18.7034 14.1702 18.4866 14.2751C18.1768 14.4251 17.9039 14.7135 17.5373 16Z" fill="#000000" class="bmwfcol"/><title>private-leasing-calculator_rg_48</title></svg>