<svg width="48" height="48" viewBox="0 0 32 32" xmlns="http://www.w3.org/2000/svg"><path d="M4 5H28V14C28 16.9211 27.4734 19.647 25.7789 22.2909C24.0979 24.9137 21.3243 27.3669 16.9956 29.866L16.7636 30H15.2364L15.0044 29.866C10.6757 27.3669 7.90215 24.9137 6.22113 22.2909C4.52661 19.647 4 16.9211 4 14V5ZM6 7V14C6 16.6589 6.47339 18.978 7.90496 21.2116C9.32323 23.4245 11.7371 25.6394 15.7738 28H16.2262C20.2629 25.6394 22.6768 23.4245 24.095 21.2116C25.5266 18.978 26 16.6589 26 14V7H6Z" fill="#000000" class="bmwfcol"/><path d="M22.7071 12.7071L14 21.4142L9.29289 16.7071L10.7071 15.2929L14 18.5858L21.2929 11.2929L22.7071 12.7071Z" fill="#000000" class="bmwfcol"/><title>protection-check_rg_48</title></svg>