<svg width="48" height="48" viewBox="0 0 32 32" xmlns="http://www.w3.org/2000/svg"><path d="M4 23H2V20.0515C2 19.296 2.07276 18.4609 2.37032 17.6503C2.57635 17.089 2.8349 16.5773 3.22273 16.1604C3.62552 15.7275 4.11093 15.4571 4.67172 15.2907C5.20879 15.1313 5.82471 15.0646 6.50962 15.0323C7.19362 15 8.01394 15 8.97785 15C9.71483 15 10.4244 15 11 15.0148V17.0155C10.4493 17.0002 9.79511 17 9.00004 17C8.00966 17 7.23554 17.0002 6.60391 17.0301C5.96795 17.0601 5.54392 17.1181 5.24075 17.208C4.96131 17.291 4.8062 17.3946 4.68701 17.5227C4.55285 17.667 4.40793 17.9033 4.24783 18.3395C4.06436 18.8393 4 19.4109 4 20.0515V23Z" fill="#000000" class="bmwfcol"/><path d="M7.55086 7.42586C7.28602 7.69069 7 8.25266 7 9.5C7 10.7473 7.28602 11.3093 7.55086 11.5741C7.81248 11.8358 8.24566 12 9 12C9.75434 12 10.1875 11.8358 10.4491 11.5741C10.714 11.3093 11 10.7473 11 9.5C11 8.25266 10.714 7.69069 10.4491 7.42586C10.1875 7.16423 9.75434 7 9 7C8.24566 7 7.81248 7.16423 7.55086 7.42586ZM6.13664 6.01164C6.93752 5.21077 8.00434 5 9 5C9.99566 5 11.0625 5.21077 11.8634 6.01164C12.661 6.80931 13 7.99734 13 9.5C13 11.0027 12.661 12.1907 11.8634 12.9884C11.0625 13.7892 9.99566 14 9 14C8.00434 14 6.93752 13.7892 6.13664 12.9884C5.33898 12.1907 5 11.0027 5 9.5C5 7.99734 5.33898 6.80931 6.13664 6.01164Z" fill="#000000" class="bmwfcol"/><path d="M21 17.0155V15.0148C21.5757 15 22.2301 15 22.9672 15C24.0649 15 25.0452 15 25.789 15.049C26.5346 15.0982 27.2119 15.201 27.7954 15.4624C28.8745 15.9457 29.3804 16.8501 29.7505 18H27.6128C27.4028 17.5454 27.2075 17.3905 26.9779 17.2876C26.7242 17.174 26.3333 17.0893 25.6574 17.0447C24.987 17.0005 24.1378 17 23 17C22.2049 17 21.5507 17.0002 21 17.0155Z" fill="#000000" class="bmwfcol"/><path d="M21.5509 7.42586C21.286 7.69069 21 8.25266 21 9.5C21 10.7473 21.286 11.3093 21.5509 11.5741C21.8125 11.8358 22.2457 12 23 12C23.7543 12 24.1875 11.8358 24.4491 11.5741C24.714 11.3093 25 10.7473 25 9.5C25 8.25266 24.714 7.69069 24.4491 7.42586C24.1875 7.16423 23.7543 7 23 7C22.2457 7 21.8125 7.16423 21.5509 7.42586ZM20.1366 6.01164C20.9375 5.21077 22.0043 5 23 5C23.9957 5 25.0625 5.21077 25.8634 6.01164C26.661 6.80931 27 7.99734 27 9.5C27 11.0027 26.661 12.1907 25.8634 12.9884C25.0625 13.7892 23.9957 14 23 14C22.0043 14 20.9375 13.7892 20.1366 12.9884C19.339 12.1907 19 11.0027 19 9.5C19 7.99734 19.339 6.80931 20.1366 6.01164Z" fill="#000000" class="bmwfcol"/><path d="M12.0376 26H9.9651L10.0342 25.7416C10.4319 24.255 10.8889 23.0872 12.0228 22.4902C12.5544 22.2102 13.1519 22.1013 13.7734 22.0502C14.3846 22 15.1935 22 16.0376 22C16.7796 22 17.4368 22 18.0001 22.0341V24.0386C17.4906 24.0007 16.8548 24 16.0003 24C15.1101 24 14.4572 24.0008 13.9373 24.0435C13.4185 24.0862 13.1352 24.1648 12.9546 24.2598C12.6814 24.4037 12.406 24.706 12.0376 26Z" fill="#000000" class="bmwfcol"/><path d="M14.9201 15.3132C14.737 15.5015 14.5 15.9427 14.5 17C14.5 18.0573 14.737 18.4985 14.9201 18.6868C15.094 18.8657 15.3981 19 16 19C16.6019 19 16.906 18.8657 17.0799 18.6868C17.263 18.4985 17.5 18.0573 17.5 17C17.5 15.9427 17.263 15.5015 17.0799 15.3132C16.906 15.1343 16.6019 15 16 15C15.3981 15 15.094 15.1343 14.9201 15.3132ZM13.4861 13.919C14.1976 13.1872 15.1436 13 16 13C16.8564 13 17.8024 13.1872 18.5139 13.919C19.2162 14.6414 19.5 15.7002 19.5 17C19.5 18.2998 19.2162 19.3586 18.5139 20.081C17.8024 20.8128 16.8564 21 16 21C15.1436 21 14.1976 20.8128 13.4861 20.081C12.7838 19.3586 12.5 18.2998 12.5 17C12.5 15.7002 12.7838 14.6414 13.4861 13.919Z" fill="#000000" class="bmwfcol"/><path d="M20 20H30V24.5455C30 25.6911 29.7915 26.8117 29.0917 27.9037C28.4053 28.9746 27.3029 29.9291 25.6802 30.866L25.4482 31H24.5518L24.3197 30.866C22.697 29.9291 21.5946 28.9746 20.9083 27.9037C20.2084 26.8117 20 25.6911 20 24.5455V20ZM22 22V24.5455C22 25.4289 22.1552 26.1428 22.5921 26.8245C23.0087 27.4745 23.7308 28.1719 25 28.9445C26.2691 28.1719 26.9912 27.4745 27.4079 26.8245C27.8448 26.1428 28 25.4289 28 24.5454V22H22Z" fill="#000000" class="bmwfcol"/><title>protect-family_rg_48</title></svg>