<svg width="48" height="48" viewBox="0 0 32 32" xmlns="http://www.w3.org/2000/svg"><path d="M15 5H5V15H15V5ZM7 13V7H13V13H7Z" fill="#000000" class="bmwfcol"/><path d="M15 17H5V27H15V17ZM7 25V19H13V25H7Z" fill="#000000" class="bmwfcol"/><path d="M17 5H27V15H17V5ZM19 7V13H25V7H19Z" fill="#000000" class="bmwfcol"/><path d="M23 17H21V19H17V21H21V27H27V25H23V17Z" fill="#000000" class="bmwfcol"/><path d="M27 17V23H25V17H27Z" fill="#000000" class="bmwfcol"/><path d="M17 27H19V23H17V27Z" fill="#000000" class="bmwfcol"/><title>qr-code_rg_48</title></svg>