<svg width="48" height="48" viewBox="0 0 32 32" xmlns="http://www.w3.org/2000/svg"><path d="M10.848 12.0553H8.95703V19.9501H10.848V16.7394H13.4499V19.9501H15.3409V12.0553H13.4499V14.918H10.848V12.0553Z" fill="#000000" class="bmwfcol"/><path d="M19.7739 12.0553H16.8702V19.9501H19.6944C20.7612 19.9501 21.5351 19.767 22.1839 19.183C22.9379 18.5044 23.2938 17.5344 23.2938 15.9729C23.2938 14.4561 23.0202 13.6347 22.4287 12.9678C21.794 12.2458 20.9242 12.0553 19.7739 12.0553ZM18.7612 18.1485V13.8568H19.7838C20.3772 13.8568 20.7382 13.9206 21.0029 14.2333C21.3269 14.6172 21.383 15.1885 21.383 15.9729C21.383 16.6864 21.3108 17.2177 21.0592 17.5907C20.9145 17.8056 20.7526 17.9396 20.5517 18.0236C20.3454 18.1097 20.0847 18.1485 19.7341 18.1485H18.7612Z" fill="#000000" class="bmwfcol"/><path d="M2.56039 6.56039C2.95856 6.16222 3.48408 6 4 6H28C28.5159 6 29.0414 6.16222 29.4396 6.56039C29.8378 6.95856 30 7.48408 30 8V24C30 24.5159 29.8378 25.0414 29.4396 25.4396C29.0414 25.8378 28.5159 26 28 26H4C3.48408 26 2.95856 25.8378 2.56039 25.4396C2.16222 25.0414 2 24.5159 2 24V8C2 7.48408 2.16222 6.95856 2.56039 6.56039ZM4 8V24H28V8H4Z" fill="#000000" class="bmwfcol"/><title>quality-high_rg_48</title></svg>