<svg width="48" height="48" viewBox="0 0 32 32" xmlns="http://www.w3.org/2000/svg"><path d="M9.9454 12.3846C10.4795 11.9732 11.1961 11.8863 12.0052 11.8863C12.9779 11.8863 13.9445 12.1122 14.889 12.3237V14.1641C14.3733 14.0504 13.8575 13.9363 13.3377 13.8424C12.8495 13.7542 12.3781 13.6878 12.0649 13.6878C11.5372 13.6878 11.3101 13.7239 11.1636 13.8347C11.0158 13.952 11.0025 14.0172 11.0025 14.2134C11.0025 14.4466 11.0467 14.5361 11.1299 14.5991C11.2771 14.705 11.4517 14.7659 11.8667 14.8974L13.1598 15.3053C13.7056 15.4807 14.1663 15.6305 14.5113 15.9305C14.9635 16.3154 15.2071 16.9438 15.2071 17.6328C15.2071 18.3984 14.9487 19.0276 14.3757 19.4795C13.7983 19.9369 13.0895 20.119 11.9655 20.119C11.0221 20.119 10.0852 19.9288 9.16118 19.7572V17.8958C10.122 18.0879 11.1005 18.3174 12.0847 18.3174C12.6586 18.3174 13.0888 18.1411 13.0871 18.1423C13.231 18.0463 13.2962 17.9157 13.2962 17.7123C13.2962 17.3853 13.122 17.2836 12.8444 17.1771C12.6856 17.1163 12.492 17.0532 12.284 16.9889L10.9996 16.5806C10.4802 16.4108 10.1098 16.2621 9.79031 15.9977C9.30605 15.5922 9.0916 15.0113 9.0916 14.3128C9.0916 13.4505 9.34841 12.8382 9.9454 12.3846Z" fill="#000000" class="bmwfcol"/><path d="M16.439 12.0552H19.3427C20.4931 12.0552 21.363 12.2458 21.9977 12.9679C22.5891 13.6349 22.8627 14.4562 22.8627 15.9728C22.8627 17.5343 22.5068 18.5044 21.7528 19.183C21.104 19.7669 20.3301 19.95 19.2632 19.95H16.439V12.0552ZM18.33 13.8568V18.1485H19.303C19.6536 18.1485 19.9143 18.1096 20.1205 18.0235C20.3215 17.9396 20.4834 17.8055 20.6281 17.5906C20.8796 17.2177 20.9518 16.6863 20.9518 15.9728C20.9518 15.1883 20.8957 14.617 20.5716 14.2331C20.3069 13.9204 19.946 13.8568 19.3527 13.8568H18.33Z" fill="#000000" class="bmwfcol"/><path d="M4 6C3.48408 6 2.95856 6.16222 2.56039 6.56039C2.16222 6.95856 2 7.48408 2 8V24C2 24.5159 2.16222 25.0414 2.56039 25.4396C2.95856 25.8378 3.48408 26 4 26H28C28.5159 26 29.0414 25.8378 29.4396 25.4396C29.8378 25.0414 30 24.5159 30 24V8C30 7.48408 29.8378 6.95856 29.4396 6.56039C29.0414 6.16222 28.5159 6 28 6H4ZM4 24V8H28V24H4Z" fill="#000000" class="bmwfcol"/><title>quality-low_rg_48</title></svg>