<svg width="48" height="48" viewBox="0 0 32 32" xmlns="http://www.w3.org/2000/svg"><path d="M23.6191 6H25.9284L25.6398 6.49999C23.3872 10.4016 22.013 12.7882 21.1752 15H26C26.5159 15 27.0414 15.1622 27.4396 15.5604C27.8378 15.9586 28 16.4841 28 17V23C28 23.5159 27.8378 24.0414 27.4396 24.4396C27.0414 24.8378 26.5159 25 26 25H20C19.4841 25 18.9586 24.8378 18.5604 24.4396C18.1622 24.0414 18 23.5159 18 23C18 19.4378 18.294 17.0589 19.2153 14.5324C20.0797 12.162 21.4891 9.6903 23.6191 6ZM20 23H26V17H20.5539C20.1525 18.6649 20 20.4782 20 23Z" fill="#000000" class="bmwfcol"/><path d="M11.9284 6L11.6398 6.49999C9.38717 10.4016 8.013 12.7882 7.1752 15H12C12.5159 15 13.0414 15.1622 13.4396 15.5604C13.8378 15.9586 14 16.4841 14 17V23C14 23.5159 13.8378 24.0414 13.4396 24.4396C13.0414 24.8378 12.5159 25 12 25H6C5.48408 25 4.95856 24.8378 4.56039 24.4396C4.16222 24.0414 4 23.5159 4 23C4 19.4378 4.29401 17.0589 5.21534 14.5324C6.07974 12.162 7.48906 9.6903 9.61906 6H11.9284ZM6 23H12V17H6.55387C6.15253 18.6649 6 20.4782 6 23Z" fill="#000000" class="bmwfcol"/><title>quotation-marks_rg_48</title></svg>