<svg width="48" height="48" viewBox="0 0 32 32" xmlns="http://www.w3.org/2000/svg"><path d="M6 5H8C10.0272 5 11.7943 5.68011 13.0571 6.94289C13.7072 7.59297 14.2028 8.37669 14.5308 9.26075C15.4313 8.43383 16.6433 8 18 8H20V10C20 11.4272 19.5199 12.6943 18.6071 13.6071C17.6943 14.5199 16.4272 15 15 15V16H28V18L28.0002 18.0943C28.0017 18.4997 28.0035 18.979 27.7694 19.4472C27.6481 19.69 27.4857 19.8927 27.3214 20.0752C27.2288 20.1782 27.1207 20.2905 27 20.413V24H30V26H2V24H4.99999V20.413C4.87926 20.2905 4.77123 20.1782 4.67857 20.0752C4.5143 19.8927 4.35194 19.69 4.23057 19.4472C3.99647 18.979 3.99825 18.4997 3.99976 18.0943L3.99999 18V16H13V14C10.9728 14 9.20567 13.3199 7.94289 12.0571C6.68011 10.7943 6 9.02725 6 7V5ZM6.99999 24H25V19.5858L25.2929 19.2929C25.5505 19.0353 25.7159 18.8694 25.8348 18.7373C25.9518 18.6073 25.9769 18.56 25.9806 18.5528C25.9815 18.5494 25.9854 18.5332 25.9893 18.4942C25.9989 18.3988 26 18.2685 26 18H5.99999C5.99999 18.2685 6.00111 18.3988 6.01066 18.4942C6.01455 18.5332 6.01853 18.5493 6.01943 18.5527C6.02306 18.56 6.04818 18.6073 6.16516 18.7373C6.28406 18.8694 6.44952 19.0353 6.7071 19.2929L6.99999 19.5858V24ZM17.1929 12.1929C17.6801 11.7057 18 10.9728 18 10C17.0272 10 16.2943 10.3199 15.8071 10.8071C15.3199 11.2943 15 12.0272 15 13C15.9728 13 16.7057 12.6801 17.1929 12.1929ZM11.6429 8.35711C10.8057 7.51989 9.57275 7 8 7C8 8.57275 8.51989 9.80567 9.35711 10.6429C10.1943 11.4801 11.4272 12 13 12C13 10.4272 12.4801 9.19433 11.6429 8.35711Z" fill="#000000" class="bmwfcol"/><title>raised_garden_bed_rg_48</title></svg>