<svg width="48" height="48" viewBox="0 0 32 32" xmlns="http://www.w3.org/2000/svg"><path d="M30 13.4143V10.5859L28.3449 8.93076C28.7603 8.28711 28.9762 7.52584 28.7787 6.6095C28.5282 5.4479 27.6379 4.22393 26.207 2.79304L25.4999 2.08594L24.5001 3.08575L22.2073 0.792969L20.7931 2.20718L23.0859 4.49997L22.5 5.08582L20.2072 2.79297L18.793 4.20718L21.0858 6.50003L20.0857 7.50015L20.7928 8.20726C22.2237 9.63814 23.4477 10.5285 24.6093 10.7789C25.5257 10.9765 26.287 10.7605 26.9307 10.345L30 13.4143ZM26.8236 7.03101C26.91 7.43179 26.814 7.77189 26.2928 8.29304C25.7716 8.8142 25.4315 8.91023 25.0308 8.82383C24.5793 8.7265 23.9171 8.36759 22.9317 7.48257L25.4823 4.93195C26.3673 5.91731 26.7262 6.57955 26.8236 7.03101Z" fill="#000000" class="bmwfcol"/><path d="M12 2C10.1923 2 9.09575 2.04628 8.39489 2.14862C8.03885 2.20061 7.73422 2.27364 7.46909 2.38937C7.17965 2.51571 6.98288 2.6729 6.82789 2.82789C6.25722 3.39856 6 4.17408 6 5V20H4V22L20 22V20H18V5C18 4.17408 17.7428 3.39856 17.1721 2.82789C17.0171 2.6729 16.8204 2.51571 16.5309 2.38937C16.2658 2.27364 15.9612 2.20061 15.6051 2.14862C14.9043 2.04628 13.8077 2 12 2ZM16 20L8 20V5C8 4.58592 8.12278 4.36144 8.24211 4.24211L8.24645 4.23775C8.25311 4.23106 8.25539 4.22876 8.2581 4.22719L8.26002 4.22621L8.26338 4.22479L8.26919 4.22235C8.30797 4.20543 8.41928 4.16627 8.68386 4.12763C9.22425 4.04872 10.1877 4 12 4C13.8123 4 14.7757 4.04872 15.3161 4.12763C15.5807 4.16627 15.692 4.20543 15.7308 4.22235L15.7366 4.22479C15.739 4.22574 15.7419 4.22719 15.7419 4.22719C15.7446 4.22876 15.7469 4.23106 15.7536 4.23775L15.7579 4.24211C15.8772 4.36144 16 4.58592 16 5V20Z" fill="#000000" class="bmwfcol"/><path d="M26.4142 24H2V30H26.4142L29.4142 27L26.4142 24ZM4 28V26H13.5857L14.5857 27.0001L13.5858 28H4ZM17.4142 27.0001L16.4141 26H19.5857L20.5857 27.0001L19.5858 28H16.4142L17.4142 27.0001ZM22.4142 28L23.4142 27.0001L22.4141 26H25.5858L26.5858 27L25.5858 28H22.4142Z" fill="#000000" class="bmwfcol"/><path d="M21 9.58594L26.7071 15.293C27.2482 15.8341 27.6387 16.3279 27.8343 16.9929C28.0008 17.559 28.0004 18.1921 28 18.8925L28 22H26V21.9142L24.2929 20.2071C23.7517 19.666 23.3612 19.1722 23.1656 18.5072C22.9991 17.9411 22.9995 17.308 22.9999 16.6076L23 14.4143L21 12.4144V9.58594ZM26 19.0001C26 18.1434 25.9906 17.8123 25.9156 17.5573C25.8612 17.3723 25.7517 17.1661 25.2928 16.7072L25 16.4143V16.5C25 17.3567 25.0093 17.6878 25.0843 17.9429C25.1387 18.1279 25.2482 18.3341 25.7071 18.7929L26 19.0858V19.0001Z" fill="#000000" class="bmwfcol"/><path d="M10 7.5V12H12V13.5H10.6338L13 17.4436L15.3662 13.5H14V10H12V7.5H10Z" fill="#000000" class="bmwfcol"/><title>range_phev_rg_48</title></svg>