<svg width="48" height="48" viewBox="0 0 32 32" xmlns="http://www.w3.org/2000/svg"><path d="M8.39489 2.14862C9.09575 2.04628 10.1923 2 12 2C13.8077 2 14.9043 2.04628 15.6051 2.14862C15.9612 2.20061 16.2658 2.27364 16.5309 2.38937C16.8204 2.51571 17.0171 2.6729 17.1721 2.82789C17.7428 3.39856 18 4.17408 18 5V10H19C19.8259 10 20.6014 10.2572 21.1721 10.8279C21.7428 11.3986 22 12.1741 22 13V17C22 17.4141 22.1228 17.6386 22.2421 17.7579C22.3614 17.8772 22.5859 18 23 18C23.4141 18 23.6386 17.8772 23.7579 17.7579C23.8772 17.6386 24 17.4141 24 17V11.9013C23.2358 11.7377 22.5227 11.348 21.9838 10.5689C21.2844 9.55761 21 8.04665 21 6V5H22V2H24V5H26V2H28V5H29V6C29 8.04665 28.7156 9.55761 28.0162 10.5689C27.4773 11.348 26.7642 11.7377 26 11.9013V17C26 17.8259 25.7428 18.6014 25.1721 19.1721C24.6014 19.7428 23.8259 20 23 20C22.1741 20 21.3986 19.7428 20.8279 19.1721C20.2572 18.6014 20 17.8259 20 17V13C20 12.5859 19.8772 12.3614 19.7579 12.2421C19.6386 12.1228 19.4141 12 19 12H18V20H20V22H4V20H6V5C6 4.17408 6.25722 3.39856 6.82789 2.82789C6.98288 2.6729 7.17965 2.51571 7.46909 2.38937C7.73422 2.27364 8.03885 2.20061 8.39489 2.14862ZM16 5C16 4.58592 15.8772 4.36144 15.7579 4.24211L15.7536 4.23775C15.7469 4.23106 15.7446 4.22876 15.7419 4.22719C15.7419 4.22719 15.739 4.22574 15.7366 4.22479L15.7308 4.22235C15.692 4.20543 15.5807 4.16627 15.3161 4.12763C14.7757 4.04872 13.8123 4 12 4C10.1877 4 9.22425 4.04872 8.68386 4.12763C8.41928 4.16627 8.30797 4.20543 8.26919 4.22235L8.26338 4.22479C8.26105 4.22574 8.2581 4.22719 8.2581 4.22719C8.25539 4.22876 8.25311 4.23106 8.24645 4.23775L8.24211 4.24211C8.12278 4.36144 8 4.58592 8 5V20H16V5ZM23.029 7C23.1106 8.30661 23.354 9.03402 23.6287 9.43115C23.8965 9.81841 24.2716 10 25 10C25.7284 10 26.1035 9.81841 26.3713 9.43115C26.646 9.03402 26.8894 8.30661 26.971 7H23.029Z" fill="#000000" class="bmwfcol"/><path d="M2 24H26.4142L29.4142 27L26.4142 30H2V24ZM4 26V28H13.5858L14.5857 27.0001L13.5857 26H4ZM16.4141 26L17.4142 27.0001L16.4142 28H19.5858L20.5857 27.0001L19.5857 26H16.4141ZM25.5858 28L26.5858 27L25.5858 26H22.4141L23.4142 27.0001L22.4142 28H25.5858Z" fill="#000000" class="bmwfcol"/><path d="M10 7.5V12H12V13.5H10.6338L13 17.4436L15.3662 13.5H14V10H12V7.5H10Z" fill="#000000" class="bmwfcol"/><title>range_bev_rg_48</title></svg>