<svg width="48" height="48" viewBox="0 0 32 32" xmlns="http://www.w3.org/2000/svg"><path d="M7.08909 20.3V16.0162H11.0944V20.3H13.0837V10.3001H11.0944V14.1197H7.08909V10.3001H5.09972V20.3H7.08909Z" fill="#000000" class="bmwfcol"/><path d="M19.2388 22.0241V20.5918H17.1035C17.4881 20.2735 17.9258 19.8889 18.3104 19.4645C18.7215 19.0003 18.9072 18.6554 18.9072 18.0454C18.9072 17.5149 18.6685 17.0242 18.2839 16.7456C17.9125 16.4671 17.3422 16.3212 16.6128 16.3212C15.8966 16.3212 15.0346 16.5202 14.703 16.5998V18.1117C15.0213 18.0321 15.8171 17.8332 16.4006 17.8332C16.7587 17.8332 16.9709 17.8597 17.0903 17.9525C17.2096 18.0454 17.2494 18.1515 17.2494 18.3106C17.2494 18.5626 17.0505 18.7881 16.5465 19.2257C16.1088 19.6103 15.2866 20.2072 14.6102 20.6846V22.0241H19.2388Z" fill="#000000" class="bmwfcol"/><path d="M8 8H6V5C6 4.17408 6.25722 3.39856 6.82789 2.82789C6.98288 2.6729 7.17965 2.51571 7.46909 2.38937C7.73422 2.27364 8.03885 2.20061 8.39489 2.14862C9.09575 2.04628 10.1923 2 12 2C13.8077 2 14.9043 2.04628 15.6051 2.14862C15.9612 2.20061 16.2658 2.27364 16.5309 2.38937C16.8204 2.51571 17.0171 2.6729 17.1721 2.82789C17.7428 3.39856 18 4.17408 18 5V10.0002H19C19.8259 10.0002 20.6014 10.2574 21.1721 10.828C21.7428 11.3987 22 12.1742 22 13.0002V17.0002C22 17.4142 22.1228 17.6387 22.2421 17.758C22.3614 17.8774 22.5859 18.0002 23 18.0002C23.4141 18.0002 23.6386 17.8774 23.7579 17.758C23.8772 17.6387 24 17.4142 24 17.0002V9.00015C24 8.20034 23.9915 7.86052 23.9135 7.58737C23.8541 7.37955 23.7333 7.14768 23.2929 6.70726L21 4.41436V1.58594L24.7071 5.29304C25.2667 5.85263 25.6459 6.37075 25.8365 7.03793C26.0007 7.61269 26.0004 8.24063 26 8.90582V17.0002C26 17.8261 25.7428 18.6016 25.1721 19.1723C24.6014 19.7429 23.8259 20.0002 23 20.0002C22.1741 20.0002 21.3986 19.7429 20.8279 19.1723C20.2572 18.6016 20 17.8261 20 17.0002V13.0002C20 12.5861 19.8772 12.3616 19.7579 12.2423C19.6386 12.1229 19.4141 12.0002 19 12.0002H18V14H16V5C16 4.58592 15.8772 4.36144 15.7579 4.24211L15.7536 4.23775C15.7469 4.23106 15.7446 4.22876 15.7419 4.22719C15.7419 4.22719 15.739 4.22574 15.7366 4.22479L15.7308 4.22235C15.692 4.20543 15.5807 4.16627 15.3161 4.12763C14.7757 4.04872 13.8123 4 12 4C10.1877 4 9.22425 4.04872 8.68387 4.12763C8.41928 4.16627 8.30797 4.20543 8.26919 4.22235L8.26338 4.22479C8.26105 4.22574 8.2581 4.22719 8.2581 4.22719C8.25539 4.22876 8.25311 4.23106 8.24645 4.23775L8.24211 4.24211C8.12278 4.36144 8 4.58592 8 5V8Z" fill="#000000" class="bmwfcol"/><path d="M2 24H26.4142L29.4142 27L26.4142 30H2V24ZM4 26V28H13.5858L14.5857 27.0001L13.5857 26H4ZM16.4141 26L17.4142 27.0001L16.4142 28H19.5858L20.5857 27.0001L19.5857 26H16.4141ZM25.5858 28L26.5858 27L25.5858 26H22.4141L23.4142 27.0001L22.4142 28H25.5858Z" fill="#000000" class="bmwfcol"/><title>range-h2_rg_48</title></svg>