<svg width="48" height="48" viewBox="0 0 32 32" xmlns="http://www.w3.org/2000/svg"><path d="M6.49858 21.7995L6.65825 21.7666V20.2806L6.41656 20.3321C5.96046 20.4293 5.35035 20.5503 4.89263 20.5503C4.2908 20.5503 4.02211 20.4324 3.879 20.1835C3.73089 19.9242 3.69025 19.5091 3.69025 18.9621C3.69025 18.3682 3.73683 17.9738 3.86947 17.7085C3.94909 17.5493 4.05147 17.4426 4.19484 17.3717C4.34391 17.2979 4.55254 17.2551 4.85553 17.2551C5.07596 17.2551 5.30004 17.2826 5.56777 17.3333C5.8841 17.3921 6.16356 17.451 6.41244 17.5095L6.65825 17.5674V16.0816L6.50537 16.0446C6.25588 15.9841 6.07409 15.9463 5.71601 15.8791C5.37563 15.8186 5.05699 15.7792 4.72197 15.7792C4.12511 15.7792 3.67683 15.9064 3.33292 16.1094C2.98926 16.3123 2.76411 16.5825 2.60062 16.8457C2.25826 17.4 2.16241 18.1161 2.16241 18.9843C2.16241 19.8251 2.28074 20.527 2.58791 21.0002C2.74124 21.2361 2.9489 21.4978 3.28626 21.6978C3.62376 21.8977 4.07437 22.0262 4.69971 22.0262C5.36768 22.0262 5.99393 21.9034 6.49858 21.7995Z" fill="#000000" class="bmwfcol"/><path d="M7.25786 21.9001H8.75602V18.6853L10.6759 21.9001H12.1915V15.9054H10.6933V19.1201L8.77341 15.9054H7.25786V21.9001Z" fill="#000000" class="bmwfcol"/><path d="M17.5112 21.8385L17.6814 21.8128V18.495H16.1833V20.5607C16.026 20.5739 15.8158 20.5874 15.5893 20.5874C14.9811 20.5874 14.7182 20.4814 14.5764 20.2293C14.4283 19.9702 14.3869 19.5839 14.3869 18.9621C14.3869 18.3354 14.4401 17.9755 14.5736 17.7085C14.6585 17.5387 14.7583 17.4339 14.8952 17.3661C15.0391 17.2949 15.2429 17.2551 15.5522 17.2551C15.7234 17.2551 15.9343 17.2758 16.1494 17.3117C16.5292 17.3774 16.9173 17.4653 17.2442 17.5395L17.4885 17.5951V16.1262L17.3356 16.0891C17.0904 16.0296 16.744 15.9468 16.359 15.8788C16.0658 15.8262 15.7331 15.7792 15.4187 15.7792C14.8431 15.7792 14.4066 15.8922 14.066 16.0854C13.725 16.2788 13.4952 16.5441 13.32 16.8228C12.9787 17.3672 12.8591 18.0059 12.8591 18.9843C12.8591 19.9084 12.978 20.5716 13.2987 21.0732C13.4718 21.343 13.6948 21.5872 14.035 21.7605C14.3721 21.9322 14.8085 22.0262 15.3964 22.0262C16.0644 22.0262 16.9664 21.9206 17.5112 21.8385Z" fill="#000000" class="bmwfcol"/><path d="M6 14H8V5C8 4.58592 8.12278 4.36144 8.24211 4.24211L8.24645 4.23775C8.25311 4.23106 8.25539 4.22876 8.2581 4.22719C8.2581 4.22719 8.26105 4.22574 8.26338 4.22479L8.26919 4.22235C8.30797 4.20543 8.41928 4.16627 8.68387 4.12763C9.22425 4.04872 10.1877 4 12 4C13.8123 4 14.7757 4.04872 15.3161 4.12763C15.5807 4.16627 15.692 4.20543 15.7308 4.22235L15.7366 4.22479L15.7406 4.22649L15.7419 4.22719C15.7446 4.22876 15.7469 4.23106 15.7536 4.23775L15.7579 4.24211C15.8772 4.36144 16 4.58592 16 5V14H18V12.0002H19C19.4141 12.0002 19.6386 12.1229 19.7579 12.2423C19.8772 12.3616 20 12.5861 20 13.0002V17.0002C20 17.8261 20.2572 18.6016 20.8279 19.1723C21.3986 19.7429 22.1741 20.0002 23 20.0002C23.8259 20.0002 24.6014 19.7429 25.1721 19.1723C25.7428 18.6016 26 17.8261 26 17.0002V8.90582C26.0004 8.24063 26.0007 7.61269 25.8365 7.03793C25.6459 6.37075 25.2667 5.85263 24.7071 5.29304L21 1.58594V4.41436L23.2929 6.70726C23.7333 7.14768 23.8541 7.37955 23.9135 7.58737C23.9915 7.86052 24 8.20034 24 9.00015V17.0002C24 17.4142 23.8772 17.6387 23.7579 17.758C23.6386 17.8774 23.4141 18.0002 23 18.0002C22.5859 18.0002 22.3614 17.8774 22.2421 17.758C22.1228 17.6387 22 17.4142 22 17.0002V13.0002C22 12.1742 21.7428 11.3987 21.1721 10.828C20.6014 10.2574 19.8259 10.0002 19 10.0002H18V5C18 4.17408 17.7428 3.39856 17.1721 2.82789C17.0171 2.6729 16.8204 2.51571 16.5309 2.38937C16.2658 2.27364 15.9612 2.20061 15.6051 2.14862C14.9043 2.04628 13.8077 2 12 2C10.1923 2 9.09575 2.04628 8.39489 2.14862C8.03885 2.20061 7.73422 2.27364 7.46909 2.38937C7.17965 2.51571 6.98288 2.6729 6.82789 2.82789C6.25722 3.39856 6 4.17408 6 5V14Z" fill="#000000" class="bmwfcol"/><path d="M10 10V12H14V10H10Z" fill="#000000" class="bmwfcol"/><path d="M26.4142 24H2V30H26.4142L29.4142 27L26.4142 24ZM4 28V26H13.5857L14.5857 27.0001L13.5858 28H4ZM17.4142 27.0001L16.4141 26H19.5857L20.5857 27.0001L19.5858 28H16.4142L17.4142 27.0001ZM22.4142 28L23.4142 27.0001L22.4141 26H25.5858L26.5858 27L25.5858 28H22.4142Z" fill="#000000" class="bmwfcol"/><title>range-gas_rg_48</title></svg>