<svg width="48" height="48" viewBox="0 0 32 32" xmlns="http://www.w3.org/2000/svg"><path d="M2.51232 15.9054V21.9001H4.6712C5.47347 21.9001 6.06591 21.7623 6.56353 21.3145C7.14112 20.7946 7.40884 20.0539 7.40884 18.8805C7.40884 17.7418 7.20322 17.1145 6.7504 16.6038C6.26184 16.048 5.59364 15.9054 4.73056 15.9054H2.51232ZM5.64806 20.0597C5.54493 20.2128 5.43147 20.3061 5.29162 20.3645C5.14649 20.4251 4.9595 20.4538 4.70088 20.4538H4.02532V17.3516H4.73798C5.18014 17.3516 5.42761 17.4001 5.60913 17.6145C5.83751 17.885 5.881 18.2925 5.881 18.8805C5.881 19.4126 5.82652 19.7951 5.64806 20.0597Z" fill="#000000" class="bmwfcol"/><path d="M8.07442 21.9001H9.58742V15.9054H8.07442V21.9001Z" fill="#000000" class="bmwfcol"/><path d="M10.441 21.9001H14.9294V20.4538H11.954V19.5776H14.64V18.1314H11.954V17.3516H14.8033V15.9054H10.441V21.9001Z" fill="#000000" class="bmwfcol"/><path d="M15.3325 20.2541V21.7476L15.4992 21.7786C16.0139 21.8742 16.8325 22.0262 17.4765 22.0262C18.3209 22.0262 18.8635 21.8895 19.3073 21.5378C19.7492 21.1892 19.947 20.7037 19.947 20.1196C19.947 19.5944 19.7614 19.1097 19.41 18.8105C19.1431 18.5785 18.7883 18.464 18.3836 18.3339L17.418 18.0294C17.1066 17.9306 16.9848 17.8874 16.8829 17.8142C16.8398 17.7815 16.8084 17.7343 16.8084 17.5671C16.8084 17.4949 16.8165 17.452 16.8293 17.4211C16.8408 17.3933 16.8614 17.3624 16.9089 17.3246C17.0026 17.2539 17.1543 17.2255 17.5507 17.2255C17.7795 17.2255 18.1274 17.2742 18.4918 17.3401C18.8522 17.4052 19.2143 17.4842 19.4665 17.5398L19.7096 17.5935V16.1159L19.5533 16.0809C19.0604 15.9705 18.1777 15.7792 17.5062 15.7792C16.9012 15.7792 16.3509 15.8436 15.9378 16.1617C15.4768 16.5119 15.2805 16.9856 15.2805 17.6413C15.2805 18.1735 15.4446 18.6233 15.8205 18.9381C16.0669 19.142 16.3508 19.2552 16.7391 19.3822L17.6986 19.6872C17.8536 19.7352 17.9975 19.782 18.1144 19.8268C18.2379 19.8742 18.3095 19.9114 18.3384 19.9345C18.3836 19.9706 18.4192 20.0328 18.4192 20.179C18.4192 20.3168 18.3749 20.3982 18.2839 20.4589C18.1752 20.533 17.9933 20.58 17.5655 20.58C16.9736 20.58 16.1712 20.4218 15.5717 20.3019L15.3325 20.2541Z" fill="#000000" class="bmwfcol"/><path d="M20.5797 21.9001H25.0681V20.4538H22.0927V19.5776H24.7788V18.1314H22.0927V17.3516H24.942V15.9054H20.5797V21.9001Z" fill="#000000" class="bmwfcol"/><path d="M25.6418 21.9001H29.9077V20.4242H27.1548V15.9054H25.6418V21.9001Z" fill="#000000" class="bmwfcol"/><path d="M20 14V13.0002C20 12.5861 19.8772 12.3616 19.7579 12.2423C19.6386 12.1229 19.4141 12.0002 19 12.0002H18V14H16V5C16 4.58592 15.8772 4.36144 15.7579 4.24211L15.7536 4.23775C15.7469 4.23106 15.7446 4.22876 15.7419 4.22719C15.7419 4.22719 15.739 4.22574 15.7366 4.22479L15.7308 4.22235C15.692 4.20543 15.5807 4.16627 15.3161 4.12763C14.7757 4.04872 13.8123 4 12 4C10.1877 4 9.22425 4.04872 8.68387 4.12763C8.41928 4.16627 8.30797 4.20543 8.26919 4.22235L8.26338 4.22479C8.26105 4.22574 8.2581 4.22719 8.2581 4.22719C8.25539 4.22876 8.25311 4.23106 8.24645 4.23775L8.24211 4.24211C8.12278 4.36144 8 4.58592 8 5V14H6V5C6 4.17408 6.25722 3.39856 6.82789 2.82789C6.98288 2.6729 7.17965 2.51571 7.46909 2.38937C7.73422 2.27364 8.03885 2.20061 8.39489 2.14862C9.09575 2.04628 10.1923 2 12 2C13.8077 2 14.9043 2.04628 15.6051 2.14862C15.9612 2.20061 16.2658 2.27364 16.5309 2.38937C16.8204 2.51571 17.0171 2.6729 17.1721 2.82789C17.7428 3.39856 18 4.17408 18 5V10.0002H19C19.8259 10.0002 20.6014 10.2574 21.1721 10.828C21.7428 11.3987 22 12.1742 22 13.0002V14H20Z" fill="#000000" class="bmwfcol"/><path d="M26 14V8.90582C26.0004 8.24063 26.0007 7.61269 25.8365 7.03793C25.6459 6.37075 25.2667 5.85263 24.7071 5.29304L21 1.58594V4.41436L23.2929 6.70726C23.7333 7.14768 23.8541 7.37955 23.9135 7.58737C23.9915 7.86052 24 8.20034 24 9.00015V14H26Z" fill="#000000" class="bmwfcol"/><path d="M10 12V10H14V12H10Z" fill="#000000" class="bmwfcol"/><path d="M2 24H26.4142L29.4142 27L26.4142 30H2V24ZM4 26V28H13.5858L14.5857 27.0001L13.5857 26H4ZM16.4141 26L17.4142 27.0001L16.4142 28H19.5858L20.5857 27.0001L19.5857 26H16.4141ZM25.5858 28L26.5858 27L25.5858 26H22.4141L23.4142 27.0001L22.4142 28H25.5858Z" fill="#000000" class="bmwfcol"/><title>range-diesel_rg_48</title></svg>