<svg width="48" height="48" viewBox="0 0 32 32" xmlns="http://www.w3.org/2000/svg"><path d="M13.5 14.25C13.5 13.8358 13.8358 13.5 14.25 13.5C14.6642 13.5 15 13.8358 15 14.25V17.75C15 19.2688 16.2312 20.5 17.75 20.5C19.2688 20.5 20.5 19.2688 20.5 17.75V12H18.5V17.75C18.5 18.1642 18.1642 18.5 17.75 18.5C17.3358 18.5 17 18.1642 17 17.75V14.25C17 12.7312 15.7688 11.5 14.25 11.5C12.7312 11.5 11.5 12.7312 11.5 14.25V20H13.5V14.25Z" fill="#000000" class="bmwfcol"/><path d="M16 2C13.4543 2 11.3945 2.36953 9.98482 3.54428C8.52465 4.76108 8 6.62883 8 9V11H4V13H8V23C8 25.3712 8.52465 27.2389 9.98482 28.4557C11.3945 29.6305 13.4543 30 16 30C18.5457 30 20.6055 29.6305 22.0152 28.4557C23.4753 27.2389 24 25.3712 24 23V21H28V19H24V9C24 6.62883 23.4753 4.76108 22.0152 3.54428C20.6055 2.36953 18.5457 2 16 2ZM10.0403 8C10.1703 6.50063 10.6093 5.62725 11.2652 5.08072C12.1055 4.38047 13.5457 4 16 4C18.4543 4 19.8945 4.38047 20.7348 5.08072C21.3907 5.62725 21.8297 6.50063 21.9597 8H10.0403ZM10 10H22V22H10V10ZM11.2652 26.9193C10.6093 26.3727 10.1703 25.4994 10.0403 24H21.9597C21.8297 25.4994 21.3907 26.3727 20.7348 26.9193C19.8945 27.6195 18.4543 28 16 28C13.5457 28 12.1055 27.6195 11.2652 26.9193Z" fill="#000000" class="bmwfcol"/><title>reactor_rg_48</title></svg>