<svg width="48" height="48" viewBox="0 0 32 32" xmlns="http://www.w3.org/2000/svg"><path d="M2.52539 22.0073H6.09884C7.0571 22.0073 7.7039 22.1088 8.29392 22.6098C8.78915 23.0375 9.06809 23.7318 9.06809 24.4731C9.06809 25.2256 8.82166 25.7337 8.36579 26.2744C8.17208 26.5018 7.91059 26.783 7.72128 26.9783L9.60058 30.0001H7.38704L5.77584 27.392H4.43589V30.0001H2.52539V22.0073ZM5.91758 23.8272H4.43589V25.5721H6.52313C6.60862 25.4764 6.74514 25.3182 6.8294 25.2134C7.02854 24.9669 7.13745 24.7793 7.13745 24.4731C7.13745 24.3419 7.1214 24.2471 7.09084 24.1729C7.06173 24.1022 7.01511 24.0395 6.93561 23.9786C6.87418 23.9337 6.78207 23.8943 6.61981 23.8673C6.45514 23.8398 6.23169 23.8272 5.91758 23.8272Z" fill="#000000" class="bmwfcol"/><path d="M9.31823 22.0073H16.3242V23.8473H13.7764V30.0001H11.8659V23.8473H9.31823V22.0073Z" fill="#000000" class="bmwfcol"/><path d="M16.6269 22.0073H23.6328V23.8473H21.0851V30.0001H19.1746V23.8473H16.6269V22.0073Z" fill="#000000" class="bmwfcol"/><path d="M24.0563 22.0073H25.9668V30.0001H24.0563V22.0073Z" fill="#000000" class="bmwfcol"/><path d="M13.7997 8.66394C14.0807 8.69343 14.3514 8.74689 14.6117 8.84756C14.7141 8.66455 14.8245 8.47653 14.9409 8.29092C15.1549 7.94974 15.4025 7.59558 15.6715 7.29004C15.9264 7.00063 16.268 6.67599 16.6854 6.49278C17.109 6.30686 17.4634 6.16308 18.1223 6.08637C18.7107 6.01787 19.5595 6 21.0005 6C23.6315 6 24.341 6.06461 25.3171 6.49344C25.7335 6.67707 26.0747 7.00141 26.3296 7.29089C26.5985 7.59638 26.846 7.95037 27.06 8.29144C27.1764 8.47687 27.2867 8.66471 27.389 8.84755C27.6493 8.74687 27.9201 8.69342 28.201 8.66394C28.6008 8.62199 29.0996 8.62314 29.6786 8.62448C29.7832 8.62472 29.8906 8.62497 30.0004 8.62497V10.625C29.8763 10.625 29.7606 10.6248 29.6523 10.6246C29.2232 10.624 28.9117 10.6235 28.6644 10.6348C28.8706 10.8418 29.0652 11.0506 29.2353 11.2581C29.5951 11.697 30.0005 12.3094 30.0005 13.0321V20H25.0005V19H17.0005V20H12.0005V13.0321C12.0005 12.3094 12.4059 11.697 12.7657 11.2581C12.9358 11.0506 13.1304 10.8418 13.3366 10.6348C13.0893 10.6235 12.7778 10.624 12.3486 10.6246C12.2406 10.6248 12.1243 10.625 12.0005 10.625V8.62497C12.1102 8.62497 12.2175 8.62472 12.3221 8.62448C12.901 8.62314 13.3999 8.62199 13.7997 8.66394ZM17.4895 8.32402C17.4895 8.32402 17.3392 8.4225 17.1725 8.61178C16.9624 8.85038 16.7837 9.11585 16.6156 9.38506C19.5324 9.32003 22.4682 9.31998 25.385 9.38506C25.2169 9.11608 25.0383 8.85085 24.8284 8.61238C24.6626 8.42412 24.5101 8.32339 24.5101 8.32339C23.975 8.08836 23.6797 8 21.0005 8C19.5353 8 18.806 8.02028 18.3536 8.07295C17.9717 8.11741 17.8225 8.17788 17.4895 8.32402ZM26.6407 11.4673C26.4557 11.4394 26.2018 11.4166 25.849 11.4009C25.1138 11.3682 24.0863 11.3702 22.5963 11.3731C22.1146 11.3741 21.5847 11.3751 21.0006 11.3751C20.4166 11.3751 19.8866 11.3741 19.4049 11.3731C17.9147 11.3702 16.8866 11.3682 16.151 11.4009C15.7992 11.4166 15.5457 11.4393 15.3606 11.467C15.1549 11.6572 14.9673 11.8339 14.7998 12H17.0005V14H14.0005V18H15.0005V17H27.0005V18H28.0005V14H25.0005V12H27.2012C27.0338 11.834 26.8463 11.6574 26.6407 11.4673Z" fill="#000000" class="bmwfcol"/><path d="M11.0005 14H10.0005L10.0009 9.03107C10.0042 9.01513 10.0357 8.86355 10.3123 8.52613C10.5912 8.18592 10.993 7.80446 11.4912 7.34667L11.7093 7.14606L11.8285 6.87563C11.9693 6.55649 12.2723 5.93216 12.6351 5.35374C12.8167 5.06434 13.0001 4.80755 13.1725 4.61178C13.258 4.51474 13.3322 4.44244 13.3934 4.39177C13.6461 4.18239 14.0387 4.10961 14.3536 4.07295C14.806 4.02028 15.5353 4 17.0005 4C19.6797 4 19.975 4.08836 20.5101 4.32339C20.5101 4.32339 20.6626 4.42412 20.8284 4.61238C20.9263 4.72369 21.0279 4.85463 21.1306 5H23.4732C23.3481 4.77022 23.209 4.52886 23.06 4.29144C22.846 3.95037 22.5985 3.59638 22.3296 3.29089C22.0747 3.00141 21.7335 2.67707 21.3171 2.49344C20.341 2.06461 19.6315 2 17.0005 2C15.5595 2 14.7107 2.01787 14.1223 2.08637C13.4634 2.16308 13.109 2.30686 12.6854 2.49278C12.268 2.67599 11.9264 3.00063 11.6715 3.29004C11.4025 3.59558 11.1549 3.94974 10.9409 4.29092C10.8245 4.47653 10.7141 4.66455 10.6117 4.84756C10.3514 4.74689 10.0807 4.69343 9.7997 4.66394C9.39995 4.62199 8.90123 4.62314 8.3223 4.62448C8.21776 4.62472 8.11015 4.62497 8.00049 4.62497V6.62497C8.12431 6.62497 8.23983 6.62479 8.34789 6.62463C8.77705 6.62399 9.08926 6.62352 9.33656 6.63477C9.13037 6.84178 8.93582 7.05056 8.76567 7.2581C8.40586 7.69696 8.00049 8.30939 8.00049 9.03212V16H11.0005V14Z" fill="#000000" class="bmwfcol"/><title>real-time-traffic-information_rg_48</title></svg>