<svg width="48" height="48" viewBox="0 0 32 32" xmlns="http://www.w3.org/2000/svg"><path d="M30 11.3582C26.461 9.43645 23.4116 8.01378 20.3171 7.01719C16.0737 5.65058 11.7935 5.09982 6.09888 5.09982C5.67365 5.09982 5.25882 5.09926 4.85364 5.0987C3.84701 5.09733 2.89982 5.09603 2 5.10372V7.10525C2.91855 7.09718 3.90185 7.09811 4.96703 7.09912C5.2668 7.0994 5.57306 7.09969 5.88618 7.09979L4.85333 13.2969C5.51964 13.1041 6.21889 13.0063 6.93035 13.0003L7.91035 7.12029C11.463 7.20353 14.4023 7.5444 17.1717 8.20941L17.1688 8.2216C17.1688 8.22172 17.1688 8.2216 17.1688 8.2216L17.1727 8.22268L17.192 8.22748C17.2099 8.23197 17.2375 8.23899 17.2738 8.24849C17.3464 8.2675 17.4534 8.29634 17.5861 8.33447C17.8524 8.411 18.2173 8.52361 18.6127 8.66774C19.4544 8.97457 20.2499 9.36038 20.6353 9.74279C21.6448 10.7442 22.2705 11.4533 22.6324 11.9895C22.9932 12.5242 23.0077 12.765 22.998 12.8646C22.9865 12.9833 22.9169 13.1741 22.5766 13.5837C22.4122 13.7816 22.2152 13.9962 21.9711 14.2622C21.814 14.4334 21.6417 14.6212 21.4594 14.8266L12.2002 15.1648C12.7381 15.747 13.1522 16.4085 13.4468 17.1206L22.4038 16.7934L22.689 16.4597C22.9536 16.15 23.2051 15.8755 23.4446 15.6146L23.4659 15.5914C23.6927 15.3442 23.9187 15.0981 24.1151 14.8617C24.5086 14.3879 24.9162 13.804 24.9887 13.0581C25.063 12.2931 24.7683 11.5793 24.2902 10.8707C24.2408 10.7976 24.1886 10.7232 24.1335 10.6475C25.9547 11.4705 27.8706 12.4598 30 13.6397V11.3582Z" fill="#000000" class="bmwfcol"/><path d="M29.6264 27.9997C28.5589 24.5253 25.3244 21.9996 21.5 21.9996C17.6756 21.9996 14.4411 24.5253 13.3736 27.9997H15.4981C16.4777 25.6507 18.796 23.9996 21.5 23.9996C24.204 23.9996 26.5223 25.6507 27.5019 27.9997H29.6264Z" fill="#000000" class="bmwfcol"/><path d="M3.39289 16.3929C4.30567 15.4801 5.57275 15 7 15C8.42725 15 9.69433 15.4801 10.6071 16.3929C11.5199 17.3057 12 18.5728 12 20C12 21.4272 11.5199 22.6943 10.6071 23.6071C10.199 24.0152 9.72012 24.3368 9.18775 24.5677L10.6433 30H8.57278L7.23189 24.9957C7.15509 24.9986 7.07778 25 7 25C6.92247 25 6.84541 24.9986 6.76886 24.9958L5.42797 30H3.35742L4.81293 24.568C4.28029 24.3371 3.80115 24.0154 3.39289 23.6071C2.48011 22.6943 2 21.4272 2 20C2 18.5728 2.48011 17.3057 3.39289 16.3929ZM4.80711 17.8071C4.31989 18.2943 4 19.0272 4 20C4 20.9728 4.31989 21.7057 4.80711 22.1929C5.29433 22.6801 6.02725 23 7 23C7.97275 23 8.70567 22.6801 9.19289 22.1929C9.68011 21.7057 10 20.9728 10 20C10 19.0272 9.68011 18.2943 9.19289 17.8071C8.70567 17.3199 7.97275 17 7 17C6.02725 17 5.29433 17.3199 4.80711 17.8071Z" fill="#000000" class="bmwfcol"/><title>rear_vehicle_side_window_with_seal_rg_48</title></svg>