<svg width="48" height="48" viewBox="0 0 32 32" xmlns="http://www.w3.org/2000/svg"><path d="M6.00266 18H4.00161C3.99993 18.275 3.99997 18.5606 4.00001 18.8581V19.1419C3.99975 21.0135 3.99955 22.4108 4.42635 23.6912C4.87829 25.047 5.76961 26.1838 7.29292 27.7071L7.58581 28H24V21H24.7723L28.2364 23H30V11L28.2364 11L24.7723 13H24V10H13V12H22V26H8.4178C7.14914 24.6987 6.60153 23.8922 6.32372 23.0588C6.01123 22.1213 6.00003 21.0567 6.00003 19C6.00003 18.6374 6.00037 18.3057 6.00266 18ZM24 19V15H25.3082L28 13.4459V20.5541L25.3082 19H24Z" fill="#000000" class="bmwfcol"/><path d="M11.4289 16H9.08696L6.65006 12H4V15.9999H2V3.99976L6.28781 4.00055C7.84396 4.00056 8.89172 4.15011 9.76349 4.81614C10.1657 5.16922 10.5341 5.6531 10.7391 6.14762C10.9415 6.63613 11.0304 7.16413 10.9991 7.6918C10.967 8.73212 10.5519 9.72376 9.83392 10.4767C9.57178 10.7854 9.14757 11.2464 8.77526 11.6442L11.4289 16ZM7.57354 9.99997C7.86417 9.68625 8.17121 9.34619 8.34891 9.13536C8.73743 8.73488 8.98561 8.17793 9.00035 7.62015C9.01515 7.39172 8.97902 7.12469 8.8914 6.91325C8.80812 6.71226 8.68198 6.532 8.52192 6.38495C8.21417 6.16048 7.74527 6.00055 6.28781 6.00055L4 6.00013V9.99997H7.57354Z" fill="#000000" class="bmwfcol"/><title>rear-view-camera_rg_48</title></svg>