<svg width="48" height="48" viewBox="0 0 32 32" xmlns="http://www.w3.org/2000/svg"><path d="M15.584 4.23897C15.7681 3.92013 16.2283 3.92013 16.4124 4.23897L19.349 9.32533L17.2994 8.77616L18.5368 10.9195L21.9474 11.8333L22.8637 8.41371L21.6262 6.27041L21.0773 8.31892L18.1444 3.23897C17.1906 1.5869 14.8059 1.58712 13.8519 3.23897L11.2741 7.70003L13.0058 8.70069L15.584 4.23897Z" fill="#000000" class="bmwfcol"/><path d="M8.68108 12.1951L6.62051 12.7473L7.85794 10.604L11.2772 9.68779L12.1912 13.0986L10.9537 15.2419L10.4078 13.2044L7.47598 18.2824C7.29189 18.6013 7.522 18.9998 7.89016 18.9998H13.0417V20.9998H7.89016C5.98239 20.9998 4.79004 18.9346 5.74392 17.2824L8.68108 12.1951Z" fill="#000000" class="bmwfcol"/><path d="M23.6792 12.8214L26.2524 17.2824C27.2063 18.9346 26.0139 20.9998 24.1062 20.9998L18.2379 20.9998L19.738 22.4999H17.2631L14.7633 20L17.2634 17.4999H19.7383L18.2383 18.9998H24.1062C24.4743 18.9998 24.7044 18.6013 24.5204 18.2824L21.9467 13.8207L23.6792 12.8214Z" fill="#000000" class="bmwfcol"/><path d="M11.5466 23.905H9.81223L7.63379 29.8997H9.24734L9.61092 28.8831H11.7268L12.0978 29.8997H13.733L11.5466 23.905ZM10.0935 27.4369L10.6581 25.8273L11.2276 27.4369H10.0935Z" fill="#000000" class="bmwfcol"/><path d="M15.6804 23.905H14.1674V29.8997H18.4332V28.4238H15.6804V23.905Z" fill="#000000" class="bmwfcol"/><path d="M18.9292 23.905H20.4422V27.5404C20.4422 28.0608 20.4815 28.2783 20.6304 28.4177C20.6861 28.4687 20.7744 28.5097 20.904 28.5364C21.0329 28.563 21.1861 28.5722 21.3552 28.5722C21.5222 28.5722 21.6717 28.5647 21.7978 28.5398C21.9246 28.5147 22.0106 28.4753 22.0657 28.4246L22.0665 28.4239L22.0673 28.4232C22.2142 28.291 22.2608 28.0748 22.2608 27.5404V23.905H23.7738V27.5182C23.7738 28.3574 23.6717 28.9634 23.2194 29.4242C22.7543 29.8978 22.1445 30.0258 21.3552 30.0258C20.5077 30.0258 19.9165 29.8983 19.4577 29.4056L19.4575 29.4054C19.0155 28.9293 18.9292 28.2873 18.9292 27.5182V23.905Z" fill="#000000" class="bmwfcol"/><title>recycled_aluminium_rg_48</title></svg>