<svg width="48" height="48" viewBox="0 0 32 32" xmlns="http://www.w3.org/2000/svg"><path d="M17 5V7H7.60805L8.50006 27.4303V28H14.0001C14.5108 28 14.8549 27.9997 15.1194 27.9857C15.2003 27.9815 15.2672 27.9762 15.3228 27.9702C15.1156 27.5232 15 27.0251 15 26.5C15 24.8441 16.1499 23.4568 17.6948 23.0931L17.7493 22H19.7518L19.6915 23.208C21.0379 23.6955 22 24.9854 22 26.5C22 28.433 20.433 30 18.5 30C17.8693 30 17.2776 29.8332 16.7666 29.5413C16.5931 29.6556 16.4042 29.7527 16.1913 29.8237C15.8789 29.9278 15.5567 29.9655 15.2245 29.983C14.9012 30 14.504 30 14.0265 30H6.50006V27.4739L5.60615 7H4V5H4.96502L5.03437 4.74118C5.16885 4.23931 5.33724 3.69235 5.67861 3.24074C6.05848 2.73821 6.57051 2.4507 7.1923 2.28408C7.77638 2.12757 8.51112 2.06342 9.41558 2.03186C10.3286 2 11.4968 2 12.9801 2H13.02C14.5033 2 15.6714 2 16.5845 2.03186C17.4889 2.06342 18.2236 2.12757 18.8077 2.28408C19.4295 2.4507 19.9415 2.73821 20.3214 3.24075C20.4983 3.47475 20.6287 3.73435 20.732 4H23V5.52025C23.0001 5.86107 23.0001 6.41142 22.937 7H20.9222C20.9704 6.66143 20.9888 6.31356 20.9958 6H19.2324L19.0338 5.25882C18.9003 4.76069 18.8097 4.55765 18.7259 4.44675C18.6806 4.38679 18.6012 4.2993 18.29 4.21592C17.9412 4.12244 17.4015 4.06158 16.5147 4.03064C15.6407 4.00014 14.5072 4 13 4C11.4928 4 10.3594 4.00014 9.48532 4.03064C8.59857 4.06158 8.05885 4.12244 7.70998 4.21592C7.39882 4.2993 7.3194 4.3868 7.27407 4.44676C7.20656 4.53607 7.13469 4.68515 7.03955 5H17ZM17 26.5C17 27.3284 17.6716 28 18.5 28C19.3284 28 20 27.3284 20 26.5C20 25.6716 19.3284 25 18.5 25C17.6716 25 17 25.6716 17 26.5Z" fill="#000000" class="bmwfcol"/><path d="M16.7465 9.24914C17.1932 8.47619 18.0182 8.00012 18.911 8.00012H19.4888C20.3819 8.00012 21.2072 8.47662 21.6538 9.25013L22.644 10.9652L23.01 9.59906L24.0707 11.4362L23.3385 14.1686L20.6066 13.4366L19.546 11.5995L20.9121 11.9655L19.9218 10.2501C19.8324 10.0954 19.6674 10.0001 19.4888 10.0001H18.911C18.7324 10.0001 18.5674 10.0953 18.4781 10.2499L17.4559 12.0185L15.7243 11.0177L16.7465 9.24914Z" fill="#000000" class="bmwfcol"/><path d="M16.1222 12.3335L16.8538 15.064L15.7932 16.9011L15.4271 15.5349L14.4372 17.2496C14.3478 17.4043 14.3478 17.5949 14.4372 17.7496L14.7261 18.2501C14.8154 18.4048 14.9805 18.5001 15.1591 18.5001H17.2V20.5001H15.1591C14.266 20.5001 13.4406 20.0236 12.9941 19.2501L12.7051 18.7496C12.2585 17.9761 12.2585 17.0231 12.7051 16.2496L13.6938 14.5371L12.3277 14.9032L13.3884 13.066L16.1222 12.3335Z" fill="#000000" class="bmwfcol"/><path d="M22.2606 21.5001L21.2606 20.5001H23.2383C24.1315 20.5001 24.9568 20.0236 25.4034 19.2501L25.6938 18.7471C26.1402 17.9739 26.1404 17.0214 25.6944 16.2481L24.6762 14.4825L22.9437 15.4817L23.9619 17.2473C24.0511 17.4019 24.051 17.5924 23.9618 17.7471L23.6713 18.2501C23.582 18.4048 23.4169 18.5001 23.2383 18.5001H21.2606L22.2606 17.5001H20.1393L18.1393 19.5001L20.1393 21.5001H22.2606Z" fill="#000000" class="bmwfcol"/><title>recycling_bin_rg_48</title></svg>