<svg width="48" height="48" viewBox="0 0 32 32" xmlns="http://www.w3.org/2000/svg"><path d="M15.4196 4C13.9912 4 12.6712 4.76171 11.9565 5.99842L9.91211 9.5356L11.6437 10.5364L13.688 6.99921C14.0454 6.38085 14.7054 6 15.4196 6H16.5753C17.2898 6 17.95 6.3812 18.3073 7L21.2303 12.0627L17.1309 10.9643L18.3683 13.1076L23.8321 14.5716L25.2964 9.10668L24.059 6.96338L22.9611 11.0606L20.0394 6C19.3248 4.7624 18.0043 4 16.5753 4H15.4196Z" fill="#000000" class="bmwfcol"/><path d="M9.40154 12.4326L10.8645 17.8925L9.62709 20.0358L8.52929 15.9388L5.60779 20.999C5.25053 21.6178 5.25053 22.3802 5.60779 22.999L6.18572 24C6.54299 24.6188 7.20324 25 7.91777 25H11.9995V27H7.91777C6.48871 27 5.1682 26.2376 4.45367 25L3.87574 23.999C3.16121 22.7614 3.16121 21.2366 3.87574 19.999L6.79495 14.9428L2.69531 16.0413L3.93275 13.898L9.40154 12.4326Z" fill="#000000" class="bmwfcol"/><path d="M21.2367 30L18.2366 26.9999H24.0753C25.5044 26.9999 26.8249 26.2375 27.5395 24.9999L28.1203 23.9938C28.8345 22.7568 28.8349 21.2328 28.1213 19.9954L26.0849 16.4644L24.3523 17.4635L26.3888 20.9946C26.7456 21.6133 26.7454 22.3753 26.3883 22.9938L25.8074 23.9999C25.4501 24.6187 24.7899 24.9999 24.0753 24.9999H18.2365L21.2365 22H18.7616L14.7617 25.9999L18.7618 30H21.2367Z" fill="#000000" class="bmwfcol"/><title>recycling_rg_48</title></svg>