<svg width="48" height="48" viewBox="0 0 32 32" xmlns="http://www.w3.org/2000/svg"><path d="M15.9005 27C21.9756 27 26.9005 22.0751 26.9005 16H28.9005C28.9005 23.1797 23.0802 29 15.9005 29C12.345 29 9.12138 27.5714 6.77539 25.2592V28.875L5.02539 27.125L5.02539 22.125H10.0254L11.7754 23.875H8.22033C10.2037 25.8097 12.9122 27 15.9005 27Z" fill="#000000" class="bmwfcol"/><path d="M15.9004 5C9.82526 5 4.90039 9.92487 4.90039 16H2.90039C2.90039 8.8203 8.72069 3 15.9004 3C19.4558 3 22.6794 4.42858 25.0254 6.74071V3.125L26.7754 4.875V9.875L21.7754 9.875L20.0254 8.125L23.5805 8.125C21.5971 6.19033 18.8887 5 15.9004 5Z" fill="#000000" class="bmwfcol"/><path d="M9.90045 11H14.9005V12H16.9005V11H21.9005V12H23.9005V21H7.90045V12H9.90045V11ZM9.90045 14V19H21.9005V14H19.9005V13H18.9005V14H12.9005V13H11.9005V14H9.90045Z" fill="#000000" class="bmwfcol"/><path d="M16.9005 15V18H14.9005V15H16.9005Z" fill="#000000" class="bmwfcol"/><path d="M13.9005 15V18H11.9005V15H13.9005Z" fill="#000000" class="bmwfcol"/><path d="M19.9005 16V18H17.9005V16H19.9005Z" fill="#000000" class="bmwfcol"/><title>regenerative-braking_rg_48</title></svg>