<svg width="48" height="48" viewBox="0 0 32 32" xmlns="http://www.w3.org/2000/svg"><path d="M6 8H15.7572L17.7572 6H4V28H26V14.2423L24 16.2423V26H6V8Z" fill="#000000" class="bmwfcol"/><path d="M11 20.9998V15.5856L22.2929 4.29268C22.555 4.03061 22.8819 3.79003 23.292 3.66944C23.717 3.54444 24.1387 3.57541 24.5348 3.70742C25.2503 3.94586 25.9594 4.54499 26.7071 5.29271C27.4541 6.03976 28.0541 6.74828 28.293 7.46338C28.4254 7.85964 28.4566 8.28165 28.3313 8.70719C28.2105 9.11751 27.9694 9.44463 27.7071 9.70694L16.4142 20.9998H11ZM23.7071 5.70693L22.4141 6.9999L24.9999 9.58564L26.2929 8.29266C26.3509 8.23468 26.4241 8.18086 26.3961 8.09717C26.322 7.87531 26.0459 7.4599 25.2929 6.7069C24.5406 5.95456 24.1245 5.67882 23.9025 5.60484C23.8184 5.57682 23.7656 5.6484 23.7071 5.70693ZM13 16.414V18.9998H15.5858L23.5856 10.9998L20.9999 8.41411L13 16.414Z" fill="#000000" class="bmwfcol"/><title>register_rg_48</title></svg>