<svg width="48" height="48" viewBox="0 0 32 32" xmlns="http://www.w3.org/2000/svg"><path d="M19.5001 13.0113C19.9342 12.9999 20.3928 12.9999 20.8867 13L21.0001 13C22.8123 13 24.1755 13.2547 25.527 13.7791C25.8513 13.9049 26.1738 14.046 26.5001 14.2013V16.4442C25.8951 16.1196 25.3499 15.8556 24.8036 15.6436C23.7105 15.2196 22.5965 15 21.0001 15C20.4193 15 19.9291 15.0011 19.5001 15.0132V13.0113Z" fill="#000000" class="bmwfcol"/><path d="M14.5001 14.575C13.9254 14.9666 13.3056 15.4469 12.6007 16.0311C9.57826 16.2954 7.93265 16.4423 6.76529 16.7018C5.4898 16.9853 4.75303 17.4107 3.54784 18.1066L3.00038 18.4227L3.0001 23.2707L3.74133 23.4693C4.66149 23.7159 5.2 23.8509 5.58283 23.9214C5.66782 23.9371 5.74562 23.9496 5.81806 23.9596C6.37134 25.1638 7.58807 26 9.0001 26C10.3963 26 11.6015 25.1825 12.1633 24H14.5001V22H12.4647C12.2221 20.3039 10.7633 19 9.0001 19C7.28177 19 5.85265 20.2383 5.55643 21.8712C5.40581 21.8358 5.22416 21.7907 5.00019 21.733L5.00031 19.5788C5.89761 19.0682 6.38094 18.836 7.19921 18.6541C8.24247 18.4223 9.78652 18.2848 13.0874 17.9962L13.4016 17.9688L13.6431 17.7661C13.9508 17.5079 14.2352 17.2752 14.5001 17.0653V14.575ZM7.5001 22.5C7.5001 21.6716 8.17168 21 9.0001 21C9.82853 21 10.5001 21.6716 10.5001 22.5C10.5001 23.3284 9.82853 24 9.0001 24C8.17168 24 7.5001 23.3284 7.5001 22.5Z" fill="#000000" class="bmwfcol"/><path d="M20.0001 8.00002C18.846 8.00002 17.7967 8.28924 17.043 9.04292C16.2894 9.7966 16.0001 10.8459 16.0001 12V26C16.0001 27.1542 16.2894 28.2035 17.043 28.9571C17.7967 29.7108 18.846 30 20.0001 30H26.0001C27.1543 30 28.2036 29.7108 28.9573 28.9571C29.7109 28.2035 30.0001 27.1542 30.0001 26V12C30.0001 10.8459 29.7109 9.7966 28.9573 9.04292C28.2036 8.28924 27.1543 8.00002 26.0001 8.00002H20.0001ZM28.0001 24L18.0001 24V12C18.0001 11.1542 18.2109 10.7035 18.4573 10.4571C18.7036 10.2108 19.1543 10 20.0001 10H26.0001C26.846 10 27.2967 10.2108 27.543 10.4571C27.7894 10.7035 28.0001 11.1542 28.0001 12V24ZM18.0001 26H28.0001C28.0001 26.8459 27.7894 27.2966 27.543 27.5429C27.2967 27.7892 26.846 28 26.0001 28H20.0001C19.1543 28 18.7036 27.7892 18.4573 27.5429C18.2109 27.2966 18.0001 26.8459 18.0001 26Z" fill="#000000" class="bmwfcol"/><path d="M4.8233 1.81714C4.09999 1.81714 2.93303 2.03409 2.37699 2.13901L2.21407 2.16975V4.05382L2.45255 4.00705C2.99986 3.89974 4.06143 3.69239 4.79146 3.69239C5.09464 3.69239 5.31515 3.70828 5.4787 3.74146C5.63917 3.77402 5.73198 3.82074 5.79246 3.87382C5.84934 3.92734 5.87663 3.9735 5.89257 4.0213C5.91023 4.0743 5.91812 4.14167 5.91812 4.24594C5.91812 4.4457 5.79418 4.6593 5.54358 4.99706L5.34764 5.26647H2.957V7.09927H4.5898C5.08181 7.09927 5.35916 7.10338 5.59603 7.21736C5.75845 7.29632 5.85833 7.38354 5.91943 7.47847C5.98012 7.57277 6.01364 7.69192 6.01364 7.85447C6.01364 8.13434 5.94139 8.33002 5.76298 8.47048C5.56261 8.61981 5.21616 8.70519 4.64287 8.70519C3.80369 8.70519 3.04564 8.5707 2.3867 8.45379L2.15039 8.41187V10.3027L2.31397 10.333C2.88923 10.4395 3.65778 10.5804 4.67471 10.5804C5.9122 10.5804 6.77338 10.2981 7.35725 9.66812C7.79356 9.20762 8.00564 8.51678 8.00564 7.85447C8.00564 7.22343 7.84645 6.7069 7.46957 6.27061C7.34307 6.12051 7.22615 6.00751 7.10486 5.91014C7.1963 5.77704 7.31128 5.60456 7.41169 5.44677C7.67929 5.02931 7.8889 4.67924 7.8889 4.11858C7.8889 3.50816 7.6694 2.92158 7.20936 2.49672C6.67531 1.99855 5.92121 1.81714 4.8233 1.81714Z" fill="#000000" class="bmwfcol"/><path d="M12.0875 1.99757H9.00072V10.4H12.0026C13.1402 10.4 13.9626 10.2048 14.6518 9.58452C15.4529 8.8635 15.8324 7.83215 15.8324 6.16695C15.8324 4.54923 15.5405 3.676 14.912 2.96731C14.2383 2.20088 13.3146 1.99757 12.0875 1.99757ZM10.9927 8.50354V3.89405H12.0982C12.7319 3.89405 13.1231 3.96173 13.41 4.30068C13.7597 4.71483 13.8192 5.32992 13.8192 6.16695C13.8192 6.92897 13.7423 7.49992 13.4713 7.90184C13.3155 8.13321 13.1405 8.27834 12.9232 8.36907C12.7007 8.46199 12.4203 8.50354 12.0451 8.50354H10.9927Z" fill="#000000" class="bmwfcol"/><title>remote-3d-view_rg_48</title></svg>