<svg width="48" height="48" viewBox="0 0 32 32" xmlns="http://www.w3.org/2000/svg"><path d="M13.5 21H11.1632C10.6014 22.1824 9.39619 23 8 23C6.58797 23 5.37123 22.1638 4.81795 20.9596C4.74551 20.9495 4.66771 20.937 4.58273 20.9214C4.19989 20.8508 3.66139 20.7158 2.74122 20.4693L2 20.2706L2.00027 15.4226L2.54774 15.1065C3.75292 14.4106 4.4897 13.9852 5.76518 13.7017C6.93254 13.4423 8.57816 13.2954 11.6006 13.0311C12.3055 12.4468 12.9253 11.9665 13.5 11.575V14.0653C13.2351 14.2752 12.9507 14.5079 12.643 14.766L12.4015 14.9687L12.0873 14.9962C8.78642 15.2848 7.24237 15.4222 6.19911 15.6541C5.38084 15.836 4.89751 16.0682 4.00021 16.5788L4.00009 18.7329C4.22405 18.7907 4.40571 18.8358 4.55633 18.8712C4.85255 17.2383 6.28167 16 8 16C9.76324 16 11.222 17.3038 11.4646 19H13.5V21ZM6.5 19.5C6.5 20.3284 7.17157 21 8 21C8.82843 21 9.5 20.3284 9.5 19.5C9.5 18.6715 8.82843 18 8 18C7.17157 18 6.5 18.6715 6.5 19.5Z" fill="#000000" class="bmwfcol"/><path d="M18.5 10.0113C18.9341 9.99984 19.3927 9.9999 19.8866 9.99997C21.6989 9.99997 23.1754 10.2547 24.5269 10.779C24.8512 10.9048 25.1737 11.046 25.5 11.2013V13.4441C24.895 13.1195 24.3498 12.8556 23.8035 12.6436C22.7104 12.2195 21.5964 12 20 12C19.4192 12 18.929 12.001 18.5 12.0131V10.0113Z" fill="#000000" class="bmwfcol"/><path d="M19.0001 5C17.8459 5 16.7967 5.28921 16.043 6.04289C15.2893 6.79657 15.0001 7.84586 15.0001 9V23C15.0001 24.1541 15.2893 25.2034 16.043 25.9571C16.7967 26.7108 17.8459 27 19.0001 27H25.0001C26.1542 27 27.2035 26.7108 27.9572 25.9571C28.7109 25.2034 29.0001 24.1541 29.0001 23V9C29.0001 7.84586 28.7109 6.79657 27.9572 6.04289C27.2035 5.28921 26.1542 5 25.0001 5H19.0001ZM27.0001 21L17.0001 21V9C17.0001 8.15414 17.2109 7.70343 17.4572 7.45711C17.7035 7.21079 18.1542 7 19.0001 7H25.0001C25.8459 7 26.2967 7.21079 26.543 7.45711C26.7893 7.70343 27.0001 8.15414 27.0001 9V21ZM17.0001 23H27.0001C27.0001 23.8459 26.7893 24.2966 26.543 24.5429C26.2967 24.7892 25.8459 25 25.0001 25H19.0001C18.1542 25 17.7035 24.7892 17.4572 24.5429C17.2109 24.2966 17.0001 23.8459 17.0001 23Z" fill="#000000" class="bmwfcol"/><title>remote-services_rg_48</title></svg>