<svg width="48" height="48" viewBox="0 0 32 32" xmlns="http://www.w3.org/2000/svg"><path d="M22 6V14H20V8L6 8.00001V24H22V26C22 27.1541 21.7108 28.2034 20.9571 28.9571C20.2034 29.7108 19.1541 30 18 30H8C6.84586 30 5.79657 29.7108 5.04289 28.9571C4.28921 28.2034 4 27.1541 4 26V6C4 4.84586 4.28921 3.79657 5.04289 3.04289C5.79657 2.28921 6.84586 2 8 2H18C19.1541 2 20.2034 2.28921 20.9571 3.04289C21.7108 3.79657 22 4.84586 22 6ZM6.45711 4.45711C6.21079 4.70343 6 5.15414 6 6H20C20 5.15414 19.7892 4.70343 19.5429 4.45711C19.2966 4.21079 18.8459 4 18 4H8C7.15415 4 6.70343 4.21079 6.45711 4.45711ZM6.45711 27.5429C6.70343 27.7892 7.15415 28 8 28H18C18.8459 28 19.2966 27.7892 19.5429 27.5429C19.7892 27.2966 20 26.8459 20 26H6C6 26.8459 6.21079 27.2966 6.45711 27.5429Z" fill="#000000" class="bmwfcol"/><path d="M14.5984 16.0054H12.864L10.6855 22.0001H12.2991L12.6627 20.9835H14.7786L15.1496 22.0001H16.7848L14.5984 16.0054ZM13.1452 19.5373L13.7098 17.9277L14.2794 19.5373H13.1452Z" fill="#000000" class="bmwfcol"/><path d="M24.881 16.0054C25.5474 16.0054 26.0452 16.1455 26.4307 16.5224C26.8155 16.8987 26.9731 17.4408 26.9731 18.0084C26.9731 18.5947 26.8172 19.1723 26.3882 19.5588C25.9882 19.9245 25.4713 20.0402 24.897 20.0632C24.6066 20.0764 24.2426 20.078 23.79 20.0782V22.0001H22.277V16.0054H24.881ZM23.79 18.632C24.1588 18.6317 24.4957 18.6298 24.7681 18.6174C25.0914 18.6027 25.2312 18.5582 25.322 18.4719C25.4069 18.3913 25.4453 18.2658 25.4453 18.0159C25.4453 17.7595 25.4028 17.6437 25.3148 17.56C25.2447 17.494 25.1141 17.4516 24.7623 17.4516H23.79V18.632Z" fill="#000000" class="bmwfcol"/><path d="M19.6378 16.0054H17.0337V22.0001H18.5467V20.0782C18.9993 20.078 19.3633 20.0764 19.6537 20.0632C20.228 20.0402 20.7449 19.9245 21.145 19.5588C21.5739 19.1723 21.7299 18.5947 21.7299 18.0084C21.7299 17.4408 21.5723 16.8987 21.1874 16.5224C20.8019 16.1455 20.3042 16.0054 19.6378 16.0054ZM18.5467 18.632V17.4516H19.519C19.8708 17.4516 20.0014 17.494 20.0715 17.56C20.1596 17.6437 20.202 17.7595 20.202 18.0159C20.202 18.2658 20.1636 18.3913 20.0788 18.4719C19.9879 18.5582 19.8481 18.6027 19.5248 18.6174C19.2524 18.6298 18.9156 18.6317 18.5467 18.632Z" fill="#000000" class="bmwfcol"/><title>remote_app_rg_48</title></svg>