<svg width="48" height="48" viewBox="0 0 32 32" xmlns="http://www.w3.org/2000/svg"><path d="M9.17088 5.99909C9.46289 5.99891 9.73773 5.99874 9.99903 6.00362V8.00659C9.72327 8.00056 9.39582 7.99917 8.99903 7.99917L4.99903 7.99917L4.99902 22.1357L7.03291 14.5452C7.31384 13.4967 8.2579 12.999 9.21288 12.999L28.2131 12.999C28.6499 12.999 29.1984 13.1004 29.6025 13.5116C30.0562 13.9732 30.0953 14.5769 29.9651 15.0628L26.7668 26.999L2.99902 26.9992L2.99902 7.99917C2.99902 7.48324 3.16125 6.95773 3.55942 6.55956C3.95759 6.16139 4.4831 5.99917 4.99903 5.99917L9.17088 5.99909ZM25.2321 24.999L27.9116 14.999L9.21289 14.999C9.05856 14.999 8.99012 15.036 8.97487 15.0461C8.97179 15.0482 8.96997 15.0496 8.96901 15.0505C8.96816 15.0522 8.96656 15.0561 8.96476 15.0628L6.30232 24.9992L25.2321 24.999Z" fill="#000000" class="bmwfcol"/><path d="M16.998 8.76101L19.998 5.76101V8.23588L15.9982 12.2357L11.998 8.23562V5.76074L14.998 8.76074V7.99805C14.998 5.63551 15.7097 3.56421 17.0259 1.99805L20.0703 1.99805C19.6379 2.25721 19.2487 2.56162 18.9052 2.90516C17.7179 4.09238 16.998 5.82529 16.998 7.99805V8.76101Z" fill="#000000" class="bmwfcol"/><path d="M21.998 8.23451L24.9979 5.23468V5.99805C24.9979 8.11479 24.3146 9.81409 23.1816 10.998H25.6872C26.5427 9.59059 26.9979 7.88745 26.9979 5.99805V5.2346L29.998 8.23477V5.7599L25.9979 1.75977L21.998 5.75963L21.998 8.23451Z" fill="#000000" class="bmwfcol"/><title>replace_rg_48</title></svg>