<svg width="48" height="48" viewBox="0 0 32 32" xmlns="http://www.w3.org/2000/svg"><path d="M12.3883 18.8472C12.2861 18.6645 12.1758 18.4768 12.0595 18.2914C11.8455 17.9504 11.598 17.5964 11.3291 17.2909C11.0743 17.0014 10.733 16.6771 10.3166 16.4934C9.34055 16.0646 8.631 16 6.00003 16C4.55905 16 3.71023 16.0179 3.12182 16.0864C2.63002 16.1436 2.30792 16.2382 2 16.3598V18.8222C2.13142 18.6507 2.29138 18.4179 2.48897 18.324C2.82198 18.1779 2.97123 18.1174 3.35311 18.073C3.80553 18.0203 4.53486 18 6.00003 18C8.67916 18 8.97451 18.0884 9.50962 18.3234C9.5125 18.3248 9.66214 18.4241 9.82786 18.6124C10.0377 18.8507 10.2162 19.1158 10.3842 19.3846C9.65929 19.3684 7.54522 19.3727 7.54522 19.3727C7.54522 19.3727 5.48437 19.3747 4.45394 19.3727C3.46973 19.3707 2.66122 19.369 2 19.3778V21.3779C2.63111 21.3692 3.41586 21.3707 4.40367 21.3727C5.46756 21.3741 6.53144 21.3741 7.59533 21.3727C9.08528 21.3697 10.1129 21.3677 10.848 21.4004C11.2008 21.4161 11.4547 21.4389 11.6397 21.4668C11.9155 21.7217 12.1586 21.9525 12.3644 22.1658C11.8279 22.2549 11.2323 22.3184 10.5 22.3742V24.3798C11.4611 24.3098 12.2533 24.2252 13 24.0839V28H12V26.9869L10.9273 27.0651C7.72336 27.2987 5.10016 27.3196 2 27.1278V29.1315C4.78545 29.2995 7.21455 29.2995 10 29.1315V30H15V23.0321C15 22.3094 14.5946 21.697 14.2348 21.2581C14.0646 21.0505 13.87 20.8416 13.6637 20.6345C14.1083 20.6143 14.5544 20.6247 14.9994 20.6247V18.6247C14.3999 18.6247 13.7972 18.601 13.2001 18.6637C12.9193 18.6932 12.6486 18.7466 12.3883 18.8472Z" fill="#000000" class="bmwfcol"/><path d="M2 25.0539V22.7312L2.97939 21.8125H5.47286L6 22.0597L6.52714 21.8125H9.02061L10 22.7312V25.0439L8.85584 26.8025H6.16689L6 26.646L5.83311 26.8025H3.18381L2 25.0539ZM4 23.8125V24.4405L4.24504 24.8025H5V23.8125H4ZM7 24.8025H7.77102L8 24.4505V23.8125H7V24.8025Z" fill="#000000" class="bmwfcol"/><path d="M22 16H17V9.03212C17 8.30939 17.4054 7.69696 17.7652 7.2581C17.9354 7.05048 18.13 6.84162 18.3363 6.63453C17.8914 6.61428 17.4452 6.62472 17 6.62472V4.62472C17.7169 4.62472 18.3273 4.61417 18.7992 4.6637C19.0802 4.69319 19.351 4.74666 19.6113 4.84736C19.7137 4.66441 19.824 4.47646 19.9404 4.29092C20.1544 3.94974 20.402 3.59558 20.671 3.29004C20.9259 3.00063 21.2677 2.67593 21.685 2.49273C22.1087 2.3068 22.463 2.16308 23.1218 2.08637C23.7102 2.01786 24.5591 2 26 2C28.3415 2 29.1602 2.05075 30 2.36419V4.82294C29.9417 4.74692 29.8842 4.6764 29.8279 4.61238C29.6621 4.42412 29.5096 4.3234 29.5096 4.3234C28.9745 4.08837 28.6792 4 26 4C24.5349 4 23.8055 4.02028 23.3531 4.07295C23.0604 4.10703 22.7167 4.17539 22.4643 4.33843C22.411 4.37286 22.2994 4.46715 22.172 4.61178C21.9621 4.85023 21.7834 5.11552 21.6154 5.38455C22.3404 5.3684 23.2698 5.37028 24.4536 5.37266C25.4841 5.37474 26.5147 5.37474 27.5452 5.37266C28.5301 5.37068 29.3387 5.36905 30 5.37785V7.37788C29.3689 7.36915 28.5816 7.37071 27.5931 7.37266C26.5314 7.37266 25.4698 7.37476 24.4082 7.37266C23.3232 7.37071 22.2343 7.35216 21.15 7.40041C20.799 7.41603 20.5458 7.43868 20.3608 7.46636C20.085 7.72133 19.8416 7.95221 19.6358 8.16563C20.1722 8.25476 20.7678 8.31832 21.5 8.37411V10.3798C20.5389 10.3097 19.7467 10.2251 19 10.0838V14H20V12.9869L21.0727 13.0651C24.2766 13.2987 26.8998 13.3196 30 13.1278V15.1315C27.2145 15.2995 24.7855 15.2995 22 15.1315V16Z" fill="#000000" class="bmwfcol"/><path d="M29.0206 7.8125L30 8.7312V11.0439L28.8558 12.8025H26.1669L26 12.646L25.8331 12.8025H23.1838L22 11.0539V8.7312L22.9794 7.8125H25.4729L26 8.05974L26.5271 7.8125H29.0206ZM24 9.8125V10.4405L24.245 10.8025H25V9.8125H24ZM27 10.8025H27.771L28 10.4505V9.8125H27V10.8025Z" fill="#000000" class="bmwfcol"/><path d="M11.7617 9L8.76172 12H11.2366L15.2367 7.99989L11.2368 4H8.76194L11.7619 7H9C7.57275 7 6.30567 7.48011 5.39289 8.39289C4.48011 9.30567 4 10.5728 4 12V14H6V12C6 11.0272 6.31989 10.2943 6.80711 9.80711C7.29433 9.31989 8.02725 9 9 9H11.7617Z" fill="#000000" class="bmwfcol"/><path d="M23.2387 20L20.2387 23H23C23.9728 23 24.7057 22.6801 25.1929 22.1929C25.6801 21.7057 26 20.9728 26 20V18H28V20C28 21.4272 27.5199 22.6943 26.6071 23.6071C25.6943 24.5199 24.4272 25 23 25H20.2384L23.2384 28H20.7636L16.7637 24.0001L20.7638 20H23.2387Z" fill="#000000" class="bmwfcol"/><title>replacement-vehicle_rg_48</title></svg>