<svg width="48" height="48" viewBox="0 0 32 32" xmlns="http://www.w3.org/2000/svg"><path d="M9.5 15C9.5 11.4101 12.4101 8.5 16 8.5C19.5899 8.5 22.5 11.4101 22.5 15C22.5 18.5899 19.5899 21.5 16 21.5C12.4101 21.5 9.5 18.5899 9.5 15ZM15 10.6115C13.7852 10.8872 12.7571 11.6542 12.1357 12.6927L15 13.6234V10.6115ZM11.5 15C11.5 16.1342 11.9196 17.1704 12.612 17.9618L14.3821 15.5255L11.518 14.5949C11.5061 14.7284 11.5 14.8635 11.5 15ZM14.2294 19.1383C14.7728 19.3711 15.3714 19.5 16 19.5C16.6284 19.5 17.2267 19.3712 17.7699 19.1386L15.9996 16.7018L14.2294 19.1383ZM20.5 15C20.5 14.8636 20.4939 14.7285 20.482 14.5952L17.6174 15.526L19.3875 17.9623C20.0802 17.1708 20.5 16.1344 20.5 15ZM19.8644 12.693C19.243 11.6544 18.2149 10.8872 17 10.6115V13.6237L19.8644 12.693Z" fill="#000000" class="bmwfcol"/><path d="M7.20984 5.28503C8.76848 5.09464 11.3846 5 16 5C20.6154 5 23.2315 5.09464 24.7902 5.28503C25.5712 5.38044 26.1459 5.50617 26.5961 5.68504C27.0822 5.87823 27.3851 6.11834 27.6334 6.36664C27.8706 6.60387 28.1008 6.89011 28.2934 7.3069C28.4776 7.70556 28.6098 8.18561 28.7093 8.79499C28.9057 9.99842 29 11.8799 29 15C29 18.1201 28.9057 20.0016 28.7093 21.205C28.6098 21.8144 28.4776 22.2944 28.2934 22.6931C28.1008 23.1099 27.8706 23.3961 27.6334 23.6334C27.3851 23.8817 27.0822 24.1218 26.5961 24.315C26.1459 24.4938 25.5712 24.6196 24.7902 24.715C23.2315 24.9054 20.6154 25 16 25H8.91421L4.91421 29H3V15C3 11.8799 3.09428 9.99842 3.29072 8.79499C3.39019 8.18561 3.52238 7.70556 3.70657 7.3069C3.89915 6.89011 4.12942 6.60387 4.36664 6.36664C4.61495 6.11834 4.91776 5.87823 5.40394 5.68504C5.85407 5.50617 6.42882 5.38044 7.20984 5.28503ZM6.14251 7.54367C5.95896 7.61661 5.87818 7.68353 5.78086 7.78086C5.67246 7.88926 5.59569 7.98661 5.52214 8.14579C5.4402 8.32312 5.34715 8.61142 5.26459 9.1172C5.09697 10.1441 5 11.8801 5 15V26.0858L8.08579 23H16C20.6246 23 23.126 22.9034 24.5477 22.7297C25.2568 22.6431 25.6379 22.5436 25.8575 22.4563C26.041 22.3834 26.1218 22.3165 26.2191 22.2191C26.3275 22.1107 26.4043 22.0134 26.4779 21.8542C26.5598 21.6769 26.6528 21.3886 26.7354 20.8828C26.903 19.8559 27 18.1199 27 15C27 11.8801 26.903 10.1441 26.7354 9.1172C26.6528 8.61142 26.5598 8.32312 26.4779 8.14579C26.4043 7.98661 26.3275 7.88926 26.2191 7.78086C26.1218 7.68353 26.041 7.61661 25.8575 7.54367C25.6379 7.45641 25.2568 7.3569 24.5477 7.27028C23.126 7.09661 20.6246 7 16 7C11.3754 7 8.87402 7.09661 7.45235 7.27028C6.74321 7.3569 6.3621 7.45641 6.14251 7.54367Z" fill="#000000" class="bmwfcol"/><title>request-for-accessoires_rg_48</title></svg>