<svg width="48" height="48" viewBox="0 0 32 32" xmlns="http://www.w3.org/2000/svg"><path d="M11.5354 22H9.46289L9.53201 21.7416C9.93122 20.2491 10.3935 19.0654 11.6133 18.4749C12.1712 18.2049 12.8085 18.0995 13.491 18.0495C14.1681 18 14.9921 18 15.963 18C16.9339 18 17.828 18 18.5051 18.0495C19.1876 18.0995 19.8249 18.2049 20.3828 18.4749C21.6026 19.0654 22.0649 20.2491 22.4641 21.7416L22.5332 22H20.4607C20.0941 20.7135 19.8213 20.4251 19.5114 20.2751C19.2946 20.1702 18.9575 20.088 18.3591 20.0442C17.7634 20.0006 17.0119 20 15.9981 20C14.9842 20 14.2327 20.0006 13.637 20.0442C13.0387 20.088 12.7015 20.1702 12.4847 20.2751C12.1748 20.4251 11.902 20.7135 11.5354 22Z" fill="#000000" class="bmwfcol"/><path d="M16 8C15.0043 8 13.9375 8.21077 13.1366 9.01164C12.339 9.80931 12 10.9973 12 12.5C12 14.0027 12.339 15.1907 13.1366 15.9884C13.9375 16.7892 15.0043 17 16 17C16.9957 17 18.0625 16.7892 18.8634 15.9884C19.661 15.1907 20 14.0027 20 12.5C20 10.9973 19.661 9.80931 18.8634 9.01164C18.0625 8.21077 16.9957 8 16 8ZM14 12.5C14 11.2527 14.286 10.6907 14.5509 10.4259C14.8125 10.1642 15.2457 10 16 10C16.7543 10 17.1875 10.1642 17.4491 10.4259C17.714 10.6907 18 11.2527 18 12.5C18 13.7473 17.714 14.3093 17.4491 14.5741C17.1875 14.8358 16.7543 15 16 15C15.2457 15 14.8125 14.8358 14.5509 14.5741C14.286 14.3093 14 13.7473 14 12.5Z" fill="#000000" class="bmwfcol"/><path d="M7.20984 5.28503C8.76848 5.09464 11.3846 5 16 5C20.6154 5 23.2315 5.09464 24.7902 5.28503C25.5712 5.38044 26.1459 5.50617 26.5961 5.68504C27.0822 5.87823 27.3851 6.11834 27.6334 6.36664C27.8706 6.60387 28.1008 6.89011 28.2934 7.3069C28.4776 7.70556 28.6098 8.18561 28.7093 8.79499C28.9057 9.99842 29 11.8799 29 15C29 18.1201 28.9057 20.0016 28.7093 21.205C28.6098 21.8144 28.4776 22.2944 28.2934 22.6931C28.1008 23.1099 27.8706 23.3961 27.6334 23.6334C27.3851 23.8817 27.0822 24.1218 26.5961 24.315C26.1459 24.4938 25.5712 24.6196 24.7902 24.715C23.2315 24.9054 20.6154 25 16 25H8.91421L4.91421 29H3V15C3 11.8799 3.09428 9.99842 3.29072 8.79499C3.39019 8.18561 3.52238 7.70556 3.70657 7.3069C3.89915 6.89011 4.12942 6.60387 4.36664 6.36664C4.61495 6.11834 4.91776 5.87823 5.40394 5.68504C5.85407 5.50617 6.42882 5.38044 7.20984 5.28503ZM6.14251 7.54367C5.95896 7.61661 5.87818 7.68353 5.78086 7.78086C5.67246 7.88926 5.59569 7.98661 5.52214 8.14579C5.4402 8.32312 5.34715 8.61142 5.26459 9.1172C5.09697 10.1441 5 11.8801 5 15V26.0858L8.08579 23H16C20.6246 23 23.126 22.9034 24.5477 22.7297C25.2568 22.6431 25.6379 22.5436 25.8575 22.4563C26.041 22.3834 26.1218 22.3165 26.2191 22.2191C26.3275 22.1107 26.4043 22.0134 26.4779 21.8542C26.5598 21.6769 26.6528 21.3886 26.7354 20.8828C26.903 19.8559 27 18.1199 27 15C27 11.8801 26.903 10.1441 26.7354 9.1172C26.6528 8.61142 26.5598 8.32312 26.4779 8.14579C26.4043 7.98661 26.3275 7.88926 26.2191 7.78086C26.1218 7.68353 26.041 7.61661 25.8575 7.54367C25.6379 7.45641 25.2568 7.3569 24.5477 7.27028C23.126 7.09661 20.6246 7 16 7C11.3754 7 8.87402 7.09661 7.45235 7.27028C6.74321 7.3569 6.3621 7.45641 6.14251 7.54367Z" fill="#000000" class="bmwfcol"/><title>request-for-contact_rg_48</title></svg>