<svg width="48" height="48" viewBox="0 0 32 32" xmlns="http://www.w3.org/2000/svg"><path d="M19 19.8057V21H17V18.4632L17.6505 18.2206C19.0718 17.6904 20 16.3989 20 14.4991C20 13.7711 19.8629 13.137 19.62 12.6027L19.0343 14.7883C18.8191 15.5933 18.3532 16.2395 17.5523 16.5015C16.8663 16.7258 16.1184 16.5959 15.4892 16.4273C14.8602 16.2587 14.147 15.9972 13.6648 15.46C13.1015 14.8326 13.0208 14.0402 13.2389 13.2347L13.8336 11.0153C13.4616 11.223 13.1448 11.4869 12.8858 11.7954C12.3403 12.4452 12 13.3542 12 14.4991C12 16.3989 12.9282 17.6904 14.3495 18.2206L15 18.4632V21H13V19.8057C11.1051 18.82 10 16.8772 10 14.4991C10 12.9489 10.4668 11.5664 11.3541 10.5094C12.4279 9.23029 13.9143 8.72105 15.5114 8.49395L16.3302 9.42504L15.17 13.7552C15.0924 14.0413 15.1233 14.1512 15.3921 14.2811C15.5406 14.3529 15.7413 14.4243 16.0069 14.4955C16.2726 14.5667 16.4818 14.6051 16.646 14.6171C16.9434 14.639 17.0257 14.5578 17.1021 14.2721L18.2912 9.83425L19.473 9.4366C21.0773 10.725 22 12.3931 22 14.4991C22 16.8772 20.8949 18.82 19 19.8057Z" fill="#000000" class="bmwfcol"/><path d="M16 5C11.3846 5 8.76848 5.09464 7.20984 5.28503C6.42882 5.38044 5.85407 5.50617 5.40394 5.68504C4.65313 5.98339 4.04492 6.57464 3.70657 7.3069C3.52238 7.70556 3.39019 8.18561 3.29072 8.79499C3.09428 9.99842 3 11.8799 3 15V29H4.91421L8.91421 25H16C20.6154 25 23.2315 24.9054 24.7902 24.715C25.5712 24.6196 26.1459 24.4938 26.5961 24.315C27.3469 24.0166 27.9551 23.4254 28.2934 22.6931C28.4776 22.2944 28.6098 21.8144 28.7093 21.205C28.9057 20.0016 29 18.1201 29 15C29 11.8799 28.9057 9.99842 28.7093 8.79499C28.6098 8.18561 28.4776 7.70556 28.2934 7.3069C27.9551 6.57464 27.3469 5.98339 26.5961 5.68504C26.1459 5.50617 25.5712 5.38044 24.7902 5.28503C23.2315 5.09464 20.6154 5 16 5ZM5.78086 7.78086C5.87818 7.68353 5.95896 7.61661 6.14251 7.54367C6.3621 7.45641 6.74321 7.3569 7.45235 7.27028C8.87402 7.09661 11.3754 7 16 7C20.6246 7 23.126 7.09661 24.5477 7.27028C25.2568 7.3569 25.6379 7.45641 25.8575 7.54367C26.041 7.61661 26.1218 7.68353 26.2191 7.78086C26.3275 7.88926 26.4043 7.98661 26.4779 8.14579C26.5598 8.32312 26.6528 8.61142 26.7354 9.1172C26.903 10.1441 27 11.8801 27 15C27 18.1199 26.903 19.8559 26.7354 20.8828C26.6528 21.3886 26.5598 21.6769 26.4779 21.8542C26.3532 22.1239 26.1346 22.3462 25.8575 22.4563C25.6379 22.5436 25.2568 22.6431 24.5477 22.7297C23.126 22.9034 20.6246 23 16 23H8.08579L5 26.0858V15C5 11.8801 5.09697 10.1441 5.26459 9.1172C5.34715 8.61142 5.4402 8.32312 5.52214 8.14579C5.59569 7.98661 5.67246 7.88926 5.78086 7.78086Z" fill="#000000" class="bmwfcol"/><title>request-for-service-appointment_rg_48</title></svg>