<svg width="48" height="48" viewBox="0 0 32 32" xmlns="http://www.w3.org/2000/svg"><path d="M25.1801 25.2087C29.0246 21.386 30.069 15.3335 27.7612 10.4543C26.8775 8.57606 25.5138 6.87969 23.7993 5.59478C22.179 4.37964 20.2744 3.55232 18.2802 3.19877C16.4094 2.86386 14.4645 2.94935 12.6293 3.44167C6.18133 5.16795 2.0055 11.8505 3.21388 18.3612C3.91789 22.1987 6.40054 25.6044 9.84182 27.4521C11.725 28.4669 13.8544 29.0027 15.9936 29.0033C19.4131 29.0058 22.7605 27.6267 25.1801 25.2087ZM8.72902 24.2548C5.7616 21.6389 4.39815 17.4303 5.27379 13.5655L12.0075 15.7534C11.9463 16.7593 12.2721 17.7683 12.9145 18.546L8.72902 24.2548ZM5.89078 11.663C7.46809 7.99035 11.0203 5.41114 15 5.04591V12.1264C14.007 12.382 13.1631 13.0094 12.6258 13.8513L5.89078 11.663ZM17 5.04573C20.9811 5.41037 24.5322 7.99085 26.1093 11.663L19.3743 13.8513C18.8369 13.0094 17.9931 12.382 17 12.1264L17 5.04573ZM26.7278 13.565C27.615 17.4531 26.252 21.6409 23.2492 24.274L19.0866 18.5448C19.7283 17.7672 20.0538 16.7587 19.9925 15.7534L26.7278 13.565ZM21.6311 25.4495C18.1942 27.4956 13.8037 27.4936 10.3704 25.4503L14.5319 19.7224C15.4678 20.0918 16.5339 20.0916 17.4697 19.7218L21.6311 25.4495ZM14 16.0004C14 14.8958 14.8955 14.0004 16 14.0004C17.1046 14.0004 18 14.8958 18 16.0004C18 17.105 17.1046 18.0004 16 18.0004C14.8955 18.0004 14 17.105 14 16.0004Z" fill="#000000" class="bmwfcol"/><title>rim_rg_48</title></svg>