<svg width="48" height="48" viewBox="0 0 32 32" xmlns="http://www.w3.org/2000/svg"><path d="M5.86794 5.86789C8.35572 3.38011 11.8728 2 16 2V4C12.3273 4 9.34438 5.21989 7.28216 7.28211C5.21993 9.34433 4.00005 12.3272 4.00005 16H2.00005C2.00005 11.8728 3.38016 8.35567 5.86794 5.86789Z" fill="#000000" class="bmwfcol"/><path d="M8.76794 8.76789C10.5557 6.98011 13.0728 6 16 6V8C13.5273 8 11.5444 8.81989 10.1822 10.1821C8.81993 11.5443 8.00005 13.5272 8.00005 16H6.00005C6.00005 13.0728 6.98016 10.5557 8.76794 8.76789Z" fill="#000000" class="bmwfcol"/><path d="M16 10C14.2728 10 12.7557 10.5801 11.6679 11.6679C10.5802 12.7557 10 14.2728 10 16H12C12 14.7272 12.4199 13.7443 13.0822 13.0821C13.7444 12.4199 14.7273 12 16 12V10Z" fill="#000000" class="bmwfcol"/><path d="M19 17L18.8866 17C17.2362 16.9998 15.9815 16.9996 14.7097 17.4271C13.4632 17.8462 12.2706 18.6468 10.6006 20.0311C7.57816 20.2954 5.93254 20.4423 4.76518 20.7017C3.4897 20.9852 2.75293 21.4107 1.54774 22.1065L1.00027 22.4226L1 27.2707L1.74122 27.4693C2.66139 27.7158 3.19989 27.8509 3.58273 27.9214C3.66773 27.937 3.74554 27.9496 3.81799 27.9596C4.37127 29.1638 5.58801 30 7.00005 30C8.39625 30 9.6015 29.1825 10.1632 28H20.8369C21.3986 29.1825 22.6038 30 24 30C25.3981 30 26.6048 29.1802 27.1655 27.9952C27.6003 27.9844 27.9981 27.9503 28.4102 27.8424C29.0328 27.6793 29.6385 27.3635 30.5002 26.866L31.0003 26.5773L31 23.5857L30.7071 23.2929C30.2594 22.8452 30.1095 22.5812 30.0535 22.4411C30.0056 22.3214 30 22.2408 30 21.9999L29.9999 20.0836L27.5411 19.8685C26.2382 19.1138 24.935 18.3254 23.5269 17.779C22.1754 17.2547 20.8122 17 19 17ZM27.4615 25.9791C27.21 24.2931 25.756 23 24 23C22.2368 23 20.7781 24.3039 20.5355 26H10.4646C10.222 24.3039 8.76328 23 7.00005 23C5.28172 23 3.85261 24.2383 3.55638 25.8712C3.40575 25.8358 3.22408 25.7907 3.00009 25.7329L3.00021 23.5788C3.89751 23.0682 4.38083 22.836 5.19911 22.6541C6.24237 22.4222 7.78642 22.2848 11.0873 21.9962L11.4015 21.9687L11.643 21.766C13.4192 20.2757 14.4221 19.6338 15.347 19.3229C16.2773 19.0101 17.2068 19 19 19C20.5964 19 21.7104 19.2195 22.8035 19.6436C23.8868 20.0639 24.966 20.6887 26.5146 21.5852C26.651 21.6642 26.7875 21.7432 26.9239 21.8221L28 21.9163C28 22.352 28.0326 22.7739 28.1966 23.1839C28.3537 23.5768 28.6134 23.9704 29.0001 24.3994L29.0002 25.4165C28.463 25.7113 28.164 25.8394 27.9035 25.9076C27.7663 25.9436 27.6313 25.9656 27.4615 25.9791ZM7.00005 25C7.82848 25 8.50005 25.6716 8.50005 26.5C8.50005 27.3284 7.82848 28 7.00005 28C6.17162 28 5.50005 27.3284 5.50005 26.5C5.50005 25.6716 6.17162 25 7.00005 25ZM24 25C24.8285 25 25.5 25.6716 25.5 26.5C25.5 27.3284 24.8285 28 24 28C23.1716 28 22.5 27.3284 22.5 26.5C22.5 25.6716 23.1716 25 24 25Z" fill="#000000" class="bmwfcol"/><path d="M28.2765 12.0308H30V10.0308H26.9339L26.6913 10.6813C26.1612 12.1026 24.8697 13.0308 22.9699 13.0308C22.2418 13.0308 21.6078 12.8937 21.0734 12.6507L23.2597 12.0649C24.0647 11.8497 24.7103 11.384 24.9722 10.5831C25.1966 9.89704 25.0667 9.14914 24.8981 8.51999C24.7295 7.89093 24.4679 7.17781 23.9308 6.6956C23.3034 6.13231 22.5109 6.05152 21.7055 6.26965L19.4861 6.86433C19.6937 6.49232 19.9576 6.17561 20.2661 5.9166C20.916 5.37106 21.825 5.03076 22.9699 5.03076C24.8697 5.03076 26.1612 5.95891 26.6913 7.38023L26.9339 8.03076H30V6.03076H28.2765C27.2907 4.13583 25.348 3.03076 22.9699 3.03076C21.4197 3.03076 20.0371 3.49751 18.9802 4.38482C17.9212 5.2739 17.2502 6.53439 17.0408 8.00728L16.9647 8.54219L17.8958 9.36101L22.2275 8.20032C22.4184 8.14853 22.515 8.1554 22.5486 8.16111C22.6492 8.17823 22.7155 8.34763 22.7519 8.42288C22.8236 8.57141 22.8951 8.77205 22.9663 9.0377C23.0374 9.30334 23.0758 9.51255 23.0879 9.67671C23.1 9.84107 23.0829 9.92587 23.0713 9.96136C23.064 9.98361 23.0591 9.99065 23.042 10.0048C23.0152 10.0271 22.9344 10.0817 22.7428 10.1329L18.305 11.322L17.9074 12.5037L18.2499 12.9303C19.3421 14.2903 21.0199 15.0308 22.9699 15.0308C25.348 15.0308 27.2907 13.9257 28.2765 12.0308Z" fill="#000000" class="bmwfcol"/><title>rmi-services_rg_48</title></svg>