<svg width="48" height="48" viewBox="0 0 32 32" xmlns="http://www.w3.org/2000/svg"><path d="M7.99921 6V9.07501H23.9992V6H25.9992V9.07501H26.4992C27.1101 9.07501 27.6876 9.21754 28.1403 9.5376C28.609 9.86898 28.9242 10.3859 28.9242 11V19C28.9242 19.6141 28.609 20.131 28.1403 20.4624C27.6876 20.7825 27.1101 20.925 26.4992 20.925H25.9992V28H23.9992V20.925H7.99921V28H5.99921V20.925H5.49922C4.88838 20.925 4.31084 20.7825 3.85812 20.4624C3.3894 20.131 3.07422 19.6141 3.07422 19V11C3.07422 10.3859 3.3894 9.86898 3.85812 9.5376C4.31084 9.21754 4.88838 9.07501 5.49922 9.07501H5.99921V6H7.99921ZM5.24911 10.9418L13.3824 19.075H18.7661L10.6161 10.925H5.49922C5.40279 10.925 5.31984 10.9315 5.24911 10.9418ZM21.3824 19.075H26.4992C26.5956 19.075 26.6786 19.0685 26.7493 19.0583L18.6161 10.925H13.2324L21.3824 19.075ZM27.0742 16.7669V11.0496L27.0723 11.0482C27.0131 11.0063 26.8407 10.925 26.4992 10.925H21.2324L27.0742 16.7669ZM4.92422 13.2332V18.9505L4.9261 18.9518C4.98532 18.9937 5.15778 19.075 5.49922 19.075H10.7661L4.92422 13.2332Z" fill="#000000" class="bmwfcol"/><title>road_barrier_rg_48</title></svg>