<svg width="48" height="48" viewBox="0 0 32 32" xmlns="http://www.w3.org/2000/svg"><path d="M11.0005 2.67511C10.3737 2.67511 9.63759 2.79927 9.06877 3.341C8.49294 3.8894 8.27545 4.68534 8.27545 5.60011C8.27545 6.51488 8.49294 7.31082 9.06877 7.85922C9.63759 8.40095 10.3737 8.52511 11.0005 8.52511C11.6272 8.52511 12.3633 8.40095 12.9321 7.85922C13.508 7.31082 13.7255 6.51488 13.7255 5.60011C13.7255 4.68534 13.508 3.8894 12.9321 3.341C12.3633 2.79927 11.6272 2.67511 11.0005 2.67511ZM10.1255 5.60011C10.1255 4.94345 10.283 4.73939 10.3446 4.68065C10.4133 4.61524 10.5772 4.52511 11.0005 4.52511C11.4237 4.52511 11.5876 4.61524 11.6563 4.68065C11.7179 4.73939 11.8755 4.94345 11.8755 5.60011C11.8755 6.25677 11.7179 6.46083 11.6563 6.51957C11.5876 6.58498 11.4237 6.67511 11.0005 6.67511C10.5772 6.67511 10.4133 6.58498 10.3446 6.51957C10.283 6.46083 10.1255 6.25677 10.1255 5.60011Z" fill="#000000" class="bmwfcol"/><path d="M15.1696 18.0371L20.1751 19.3564C21.7246 18.0834 24.0526 18.2688 25.3753 19.9126C26.1647 20.8934 27.0465 22.0685 27.736 23.2044C28.0808 23.7723 28.3889 24.349 28.6133 24.9004C28.8326 25.4391 29.0005 26.0214 29.0005 26.5815V28.1H16.0005V26.5815C16.0005 26.0214 16.1684 25.4391 16.3876 24.9004C16.6121 24.349 16.9202 23.7723 17.265 23.2044C17.7041 22.4811 18.2211 21.7419 18.7425 21.0471L4.79602 17.3712L3.95038 12.6094L4.49196 11.7067C5.23451 10.4691 6.46892 9.2195 8.20819 9.04521C8.50825 9.01514 8.81478 9 9.12712 9C10.2581 9 11.313 9.19862 12.2569 9.58474L12.8783 9.83893L12.8783 14.0315L15.1696 18.0371ZM9.12712 11C8.8794 11 8.63947 11.012 8.40761 11.0352C7.56923 11.1193 6.79722 11.7519 6.20696 12.7357L6.05043 12.9966L6.54172 15.763L12.4564 17.322L10.8783 14.5631V11.2248C10.3487 11.0792 9.76354 11 9.12712 11ZM23.8172 21.1664C23.1268 20.3085 21.8741 20.3085 21.1838 21.1664C20.419 22.1169 19.5986 23.2142 18.9746 24.2422C18.6626 24.7562 18.411 25.2343 18.24 25.6544C18.1719 25.8217 18.1207 25.9701 18.0834 26.1H26.9175C26.8803 25.9701 26.829 25.8217 26.7609 25.6544C26.5899 25.2343 26.3384 24.7562 26.0264 24.2422C25.4023 23.2142 24.582 22.1169 23.8172 21.1664Z" fill="#000000" class="bmwfcol"/><path d="M9.35682 22.7657V19.9366L7.35682 19.4312L7.35682 22.2187L3.94141 27.9949H6.26487L9.35682 22.7657Z" fill="#000000" class="bmwfcol"/><path d="M14.7698 23.4155L14.1514 21.1481L11.9249 20.5855L12.6933 23.403L11.3813 27.9949L13.4614 27.9949L14.7698 23.4155Z" fill="#000000" class="bmwfcol"/><title>road_worker_rg_48</title></svg>