<svg width="48" height="48" viewBox="0 0 32 32" xmlns="http://www.w3.org/2000/svg"><path d="M27.0001 5L23.3664 5.00021L22.1661 7.00157L23.3663 9.00171H27V11.0017H22.2339L20.4338 8.00159L18.8287 8.00159C18.4815 8.98216 17.6389 9.72847 16.6017 9.93964L11.4031 15.6062L15.3307 19.0444C15.5496 19.0151 15.773 19 16 19C18.7614 19 21 21.2386 21 24V26H23V28H9V26H11V24C11 23.7731 11.0151 23.5497 11.0444 23.3308L7.24527 18.9909C5.43119 18.8604 4 17.3473 4 15.5C4 13.785 5.23354 12.358 6.86179 12.058L13.0559 6.37543L13.0634 6.38358C13.3477 5.02242 14.5544 4 16 4C17.3068 4 18.4185 4.83557 18.8299 6.00159L20.4337 6.00159L22.2337 3.00028L26.9999 3L27.0001 5ZM16 6C15.4477 6 15 6.44772 15 7C15 7.55228 15.4477 8 16 8C16.5523 8 17 7.55228 17 7C17 6.44772 16.5523 6 16 6ZM9.32469 12.5127C9.79234 12.7989 10.1876 13.1919 10.4765 13.6577L14.3101 9.47909C13.9949 9.26382 13.7229 8.99001 13.5097 8.67332L9.32469 12.5127ZM9.41337 18.4312L11.8483 21.2127C12.2104 20.6745 12.6744 20.2105 13.2127 19.8484L10.4311 17.4134C10.1659 17.8189 9.81884 18.166 9.41337 18.4312ZM6 15.5C6 16.3284 6.67157 17 7.5 17C8.32843 17 9 16.3284 9 15.5C9 14.6716 8.32843 14 7.5 14C6.67157 14 6 14.6716 6 15.5ZM13 24V26H19V24C19 22.3431 17.6569 21 16 21C14.3431 21 13 22.3431 13 24Z" fill="#000000" class="bmwfcol"/><title>robot_arm_rg_48</title></svg>