<svg width="48" height="48" viewBox="0 0 32 32" xmlns="http://www.w3.org/2000/svg"><path d="M9.73226 3H13V4C13 4.97275 13.3199 5.70567 13.8071 6.19289C14.2943 6.68011 15.0272 7 16 7C16.9728 7 17.7057 6.68011 18.1929 6.19289C18.6801 5.70567 19 4.97275 19 4V3H22.2677L29 6.88687V8.93193L26.6368 13.9998L24 13.9999V23.1892L23.3244 23.4209C21.1656 24.1613 19.6749 25.8458 19.1793 28.2055L19.0125 29H12.9875L12.8207 28.2055C12.3251 25.8458 10.8344 24.1613 8.6756 23.4209L8 23.1893V13.9999L5.36319 13.9998L3 8.93193V6.88687L9.73226 3ZM10.2682 5L5 8.04157V8.48854L6.63736 11.9999L10 12.0001V21.7919C12.2399 22.7716 13.8527 24.6064 14.5754 27H17.4246C18.1473 24.6064 19.7601 22.7716 22 21.7919V12.0001L25.3626 11.9999L27 8.48854V8.04157L21.7318 5H20.9172C20.7438 6.01665 20.3002 6.91402 19.6071 7.60711C18.6943 8.51989 17.4272 9 16 9C14.5728 9 13.3057 8.51989 12.3929 7.60711C11.6998 6.91402 11.2562 6.01665 11.0828 5H10.2682Z" fill="#000000" class="bmwfcol"/><title>rompers_rg_48</title></svg>