<svg width="48" height="48" viewBox="0 0 32 32" xmlns="http://www.w3.org/2000/svg"><path d="M9 3V6.23987L8.6159 6.54014C5.80435 8.73813 4 12.1581 4 16C4 19.5836 5.56976 22.7998 8.0625 25H23.9375C26.4302 22.7998 28 19.5836 28 16C28 12.1581 26.1957 8.73813 23.3841 6.54014L23 6.23987V3H25V5.27581C28.0553 7.84253 30 11.6944 30 16C30 20.3055 28.0553 24.1576 25 26.7242V29H23V27H21V29H19V27H17V29H15V27H13V29H11V27H9V29H7V26.7242C3.94469 24.1576 2 20.3055 2 16C2 11.6944 3.94466 7.84253 7 5.27581V3H9Z" fill="#000000" class="bmwfcol"/><path d="M5 16.0001C5 12.5842 6.55699 9.53199 9 7.5144V10.3427C7.7492 11.8885 7 13.8568 7 16.0001C7 18.1434 7.7492 20.1117 9 21.6574V24.4858C6.55699 22.4682 5 19.416 5 16.0001Z" fill="#000000" class="bmwfcol"/><path d="M27 16.0001C27 12.5842 25.443 9.53199 23 7.5144V10.3427C24.2508 11.8885 25 13.8568 25 16.0001C25 18.1434 24.2508 20.1117 23 21.6574V24.4858C25.443 22.4682 27 19.416 27 16.0001Z" fill="#000000" class="bmwfcol"/><path d="M16.2242 12.8789C15.6192 12.8789 15.0689 12.9432 14.6558 13.2614C14.1949 13.6116 13.9985 14.0853 13.9985 14.741C13.9985 15.2731 14.1626 15.723 14.5385 16.0377C14.7849 16.2417 15.0704 16.3554 15.4587 16.4824L16.4159 16.7866C16.5709 16.8346 16.7155 16.8817 16.8324 16.9265C16.9559 16.9738 17.0275 17.011 17.0564 17.0341C17.1016 17.0703 17.1372 17.1325 17.1372 17.2786C17.1372 17.4165 17.0929 17.4979 17.0019 17.5586C16.8932 17.6327 16.7113 17.6796 16.2835 17.6796C15.6916 17.6796 14.8892 17.5215 14.2897 17.4016L14.0505 17.3537V18.8473L14.2172 18.8783C14.7319 18.9738 15.5505 19.1259 16.1945 19.1259C17.039 19.1259 17.5815 18.9891 18.0253 18.6374C18.4672 18.2888 18.665 17.8033 18.665 17.2193C18.665 16.6941 18.4794 16.2094 18.128 15.9102C17.8611 15.6781 17.5063 15.5636 17.1016 15.4336L16.1362 15.1291C15.8246 15.0303 15.7028 14.987 15.6009 14.9139C15.5578 14.8811 15.5264 14.834 15.5264 14.6668C15.5264 14.5946 15.5345 14.5517 15.5473 14.5207C15.5588 14.493 15.5794 14.4621 15.627 14.4242C15.7207 14.3536 15.8723 14.3251 16.2687 14.3251C16.4976 14.3251 16.8454 14.3739 17.2098 14.4397C17.5702 14.5048 17.9323 14.5839 18.1845 14.6395L18.4276 14.6931V13.2155L18.2713 13.1805C17.7784 13.0702 16.8957 12.8789 16.2242 12.8789Z" fill="#000000" class="bmwfcol"/><path d="M21.6718 12.8789C21.0749 12.8789 20.6267 13.006 20.2828 13.209C19.9391 13.4119 19.7137 13.6826 19.5502 13.9458C19.2078 14.5001 19.1122 15.2157 19.1122 16.084C19.1122 16.9247 19.2306 17.6267 19.5378 18.0999C19.6911 18.3358 19.8987 18.5975 20.2361 18.7974C20.5736 18.9974 21.0242 19.1259 21.6495 19.1259C22.3175 19.1259 22.9438 19.0031 23.4484 18.8992L23.6081 18.8663V17.3803L23.3664 17.4318C22.9103 17.529 22.3002 17.65 21.8425 17.65C21.2404 17.65 20.972 17.5323 20.8289 17.2833C20.6807 17.024 20.6401 16.6089 20.6401 16.0617C20.6401 15.4679 20.6867 15.0734 20.8193 14.8082C20.8989 14.6489 21.0013 14.5423 21.1447 14.4713C21.2937 14.3975 21.5024 14.3548 21.8054 14.3548C22.0258 14.3548 22.2505 14.3824 22.5182 14.4331C22.8345 14.4919 23.1134 14.5506 23.3623 14.6092L23.6081 14.667V13.1813L23.4552 13.1442C23.2057 13.0838 23.0239 13.0459 22.6658 12.9788C22.3255 12.9183 22.0068 12.8789 21.6718 12.8789Z" fill="#000000" class="bmwfcol"/><path d="M11.3302 13.005H8.64453V18.9997H10.1575V17.0779H11.0629L12.2501 18.9997H14.0052L12.5921 16.7275C12.7291 16.5851 12.9066 16.3933 13.0407 16.236C13.3826 15.8304 13.5707 15.4442 13.5707 14.8745C13.5707 14.3162 13.3594 13.7877 12.9808 13.4607C12.5312 13.079 12.0394 13.005 11.3302 13.005ZM10.1575 15.6317V14.4513H11.1967C11.4273 14.4513 11.5885 14.4606 11.7055 14.4801C11.8198 14.4991 11.8789 14.5259 11.9153 14.5524C11.9669 14.592 11.995 14.6308 12.0125 14.6734C12.0315 14.7194 12.0429 14.7818 12.0429 14.8745C12.0429 15.0827 11.9694 15.2114 11.8259 15.3891C11.7684 15.4624 11.6856 15.5572 11.6193 15.6317H10.1575Z" fill="#000000" class="bmwfcol"/><title>run-flat-tyre_rg_48</title></svg>