<svg width="48" height="48" viewBox="0 0 32 32" xmlns="http://www.w3.org/2000/svg"><path d="M21.8159 4.00009L23.0004 4.00019V5.00019C23.0004 6.91923 22.89 8.39134 22.4497 9.69983C22.071 10.8255 21.4694 11.77 20.602 12.7586C23.343 17.3775 24.9928 19.3323 27.6426 21.5558C28.6492 22.4004 29.3306 23.0852 29.6789 23.9921C29.994 24.8126 29.9934 25.7328 29.9927 26.8399V28H28.9415C26.9729 28 25.732 28.0001 23.8955 27.3113C22.1335 26.6505 19.801 25.3491 15.5001 22.866L5.49984 17.0924C4.93518 16.7664 4.32688 16.4025 3.86779 15.953C3.23747 15.3359 3 14.593 3 13.7321L8.04148 5C10.9096 5 13.8152 4.88112 16.6754 5.13777C16.9235 5.16004 17.154 5.18647 17.3693 5.21873C18.6435 3.99766 20.0236 3.9987 21.8159 4.00009ZM20.5541 9.06202C20.8219 8.2662 20.9483 7.33034 20.987 6.00862C20.3515 6.02353 19.9173 6.06336 19.5749 6.16599C19.7213 6.30081 19.8591 6.44507 19.9998 6.58577V10.2421C20.2391 9.85191 20.4175 9.46802 20.5541 9.06202ZM9.19615 7.00006L5.0358 14.206C5.24709 14.7549 6.0379 15.0936 6.49984 15.3603L7.67165 16.0369C8.3626 14.8517 8.93714 13.8992 9.44814 13.1418C10.0751 12.2124 10.6504 11.5085 11.29 11.0111C12.5929 9.99782 13.989 9.99881 15.803 10.0001L15.9999 10.0002V12.0002C13.9104 12.0002 13.2262 12.0389 12.5179 12.5898C12.1285 12.8927 11.6939 13.3891 11.1061 14.2603C10.6319 14.9632 10.0866 15.8657 9.40374 17.0369L16.5001 21.134C20.8594 23.6508 23.0268 24.8495 24.5978 25.4387C25.8043 25.8911 26.6384 25.9789 27.985 25.9959C27.9702 25.3624 27.9282 25.0121 27.8119 24.7092C27.6632 24.322 27.3482 23.9196 26.3571 23.0879C22.7744 20.0817 20.3202 16.2854 17.9998 12.2679V7.46812C17.5644 7.20466 16.987 7.17378 16.4966 7.12977C15.1916 7.01267 13.0474 7.0009 9.19615 7.00006Z" fill="#000000" class="bmwfcol"/><path d="M16 28H4V26H16V28Z" fill="#000000" class="bmwfcol"/><path d="M2 24H12V22H2V24Z" fill="#000000" class="bmwfcol"/><title>running_rg_48</title></svg>