<svg width="48" height="48" viewBox="0 0 32 32" xmlns="http://www.w3.org/2000/svg"><path d="M15.7042 22.2705C14.3678 22.2705 12.6495 21.9523 11.5358 21.7454V19.4226C12.8086 19.6771 14.5746 20.0272 15.8952 20.0272C16.8179 20.0272 17.3271 19.9317 17.6771 19.6931C18.0112 19.4703 18.1544 19.1521 18.1544 18.7385C18.1544 18.3566 18.0589 18.0702 17.8203 17.8793C17.5816 17.6884 16.977 17.4816 16.3088 17.2747L14.2564 16.6224C13.4291 16.352 12.8882 16.1292 12.4268 15.7474C11.7426 15.1746 11.4244 14.3473 11.4244 13.2972C11.4244 11.9926 11.8063 11.1176 12.6654 10.4653C13.4291 9.87659 14.4792 9.7334 15.7679 9.7334C17.152 9.7334 18.9976 10.1311 20.0636 10.3698V12.6608C18.9817 12.4222 16.9293 11.9767 15.8633 11.9767C15.036 11.9767 14.5587 12.0244 14.2246 12.279C13.9223 12.5176 13.8428 12.7722 13.8428 13.1381C13.8428 13.5518 13.9223 13.8223 14.1769 14.0132C14.4633 14.22 14.7974 14.3314 15.4497 14.5382L17.518 15.1905C18.4089 15.4769 19.0772 15.6996 19.5704 16.1292C20.2068 16.6702 20.5727 17.577 20.5727 18.6112C20.5727 19.7567 20.1909 20.6636 19.3635 21.3159C18.5203 21.9841 17.4702 22.2705 15.7042 22.2705Z" fill="#000000" class="bmwfcol"/><path d="M16 3C8.8203 3 3 8.8203 3 16C3 23.1797 8.8203 29 16 29C23.1797 29 29 23.1797 29 16C29 8.8203 23.1797 3 16 3ZM5 16C5 9.92487 9.92487 5 16 5C22.0751 5 27 9.92487 27 16C27 22.0751 22.0751 27 16 27C9.92487 27 5 22.0751 5 16Z" fill="#000000" class="bmwfcol"/><title>s-bahn_rg_48</title></svg>