<svg width="48" height="48" viewBox="0 0 32 32" xmlns="http://www.w3.org/2000/svg"><path d="M11.2639 3L6.5 5.38197V12.5581C6.5 13.1657 6.22382 13.7403 5.74939 14.1199L4 15.5194V29H13C14.1947 29 15.2671 28.4762 16 27.6458C16.7329 28.4762 17.8053 29 19 29H28V15.5194L26.2506 14.1199C25.7762 13.7403 25.5 13.1657 25.5 12.5581V5.38197L20.7361 3H19.2344L17.9846 3.71422C16.7548 4.41692 15.2452 4.41692 14.0154 3.71422L12.7656 3H11.2639ZM18.4898 5.70032L16.5623 12.6392L16 13.7639L15.4377 12.6392L13.5102 5.70032C15.0908 6.42155 16.9092 6.42155 18.4898 5.70032ZM17 25V16.2361L18.4377 13.3608L20.6996 5.21782L23.5 6.61803V12.5581C23.5 13.7733 24.0524 14.9225 25.0012 15.6816L26 16.4806V18H19V20H26V22H19V24H26V27H19C17.8954 27 17 26.1046 17 25ZM13.5623 13.3608L15 16.2361V25C15 26.1046 14.1046 27 13 27H6V24H13V22H6V20H13V18H6V16.4806L6.99878 15.6816C7.94764 14.9225 8.5 13.7733 8.5 12.5581V6.61803L11.3004 5.21782L13.5623 13.3608Z" fill="#000000" class="bmwfcol"/><title>safety_vest_rg_48</title></svg>