<svg width="48" height="48" viewBox="0 0 32 32" xmlns="http://www.w3.org/2000/svg"><path d="M9 2H10.7723L11.0044 2.13397C18.6684 6.5588 25.068 15.9426 27.9639 26.741L28.3015 28H9V26H25.6761C22.878 16.5946 17.3761 8.61112 11 4.47614V7.75515C10.3563 7.25045 9.68965 6.79699 9.00256 6.40094L9 6.39946V2Z" fill="#000000" class="bmwfcol"/><path d="M8.00376 8.13365L7.77191 8L6.23295 8.0001L2.5 21.9317V23.9999H18.3023L17.9661 22.7417C16.2508 16.3224 12.5175 10.7355 8.00376 8.13365ZM4.55228 21.9999L7.68937 10.2921C11.0553 12.5405 14.0302 16.8332 15.6668 21.9999H4.55228Z" fill="#000000" class="bmwfcol"/><title>sailing_rg_48</title></svg>