<svg width="48" height="48" viewBox="0 0 32 32" xmlns="http://www.w3.org/2000/svg"><path d="M4.11789 4.11789C4.85567 3.38011 5.87275 3 7 3C8.12725 3 9.14433 3.38011 9.88211 4.11789C10.6199 4.85567 11 5.87275 11 7C11 7.74511 10.8107 8.44869 10.4661 9.05191L12.4255 11.0112C11.8652 11.3892 11.3892 11.8652 11.0112 12.4255L9.05611 10.4703C8.47176 10.8065 7.7766 11 7 11C5.87275 11 4.85567 10.6199 4.11789 9.88211C3.38011 9.14433 3 8.12725 3 7C3 5.87275 3.38011 4.85567 4.11789 4.11789ZM5.53211 5.53211C5.21989 5.84433 5 6.32725 5 7C5 7.67275 5.21989 8.15567 5.53211 8.46789C5.84433 8.78011 6.32725 9 7 9C8.21639 9 9 8.13642 9 7C9 6.32725 8.78011 5.84433 8.46789 5.53211C8.15567 5.21989 7.67275 5 7 5C6.32725 5 5.84433 5.21989 5.53211 5.53211Z" fill="#000000" class="bmwfcol"/><path d="M19.5745 11.0112C20.1348 11.3892 20.6108 11.8652 20.9888 12.4255L23.6825 9.73174C24.0852 9.91073 24.533 10 25 10C26.7836 10 28 8.625 28 7C28 6.17275 27.7199 5.40567 27.1571 4.84289C26.5943 4.28011 25.8272 4 25 4C24.1728 4 23.4057 4.28011 22.8429 4.84289C22.2801 5.40567 22 6.17275 22 7C22 7.46699 22.0893 7.91481 22.2683 8.31753L19.5745 11.0112ZM24.2571 6.25711C24.3943 6.11989 24.6272 6 25 6C25.3728 6 25.6057 6.11989 25.7429 6.25711C25.8801 6.39433 26 6.62725 26 7C26 7.58414 25.6164 8 25 8C24.6272 8 24.3943 7.88011 24.2571 7.74289C24.1199 7.60567 24 7.37275 24 7C24 6.62725 24.1199 6.39433 24.2571 6.25711Z" fill="#000000" class="bmwfcol"/><path d="M19.5282 20.9424C20.0837 20.5553 20.5581 20.0751 20.9383 19.5241L22.9244 21.5102C23.5319 21.1723 24.241 21 25 21C26.1272 21 27.1443 21.3801 27.8821 22.1179C28.6199 22.8557 29 23.8728 29 25C29 27.1773 27.3836 29 25 29C23.8728 29 22.8557 28.6199 22.1179 27.8821C21.3801 27.1443 21 26.1272 21 25C21 24.241 21.1723 23.5319 21.5102 22.9244L19.5282 20.9424ZM23.5321 23.5321C23.2199 23.8443 23 24.3272 23 25C23 25.6728 23.2199 26.1557 23.5321 26.4679C23.8443 26.7801 24.3272 27 25 27C26.2164 27 27 26.1364 27 25C27 24.3272 26.7801 23.8443 26.4679 23.5321C26.1557 23.2199 25.6728 23 25 23C24.3272 23 23.8443 23.2199 23.5321 23.5321Z" fill="#000000" class="bmwfcol"/><path d="M12.4255 20.9888C11.8652 20.6108 11.3892 20.1348 11.0112 19.5745L8.31753 22.2683C7.91481 22.0893 7.46699 22 7 22C6.17275 22 5.40567 22.2801 4.84289 22.8429C4.28011 23.4057 4 24.1728 4 25C4 25.8272 4.28011 26.5943 4.84289 27.1571C5.40567 27.7199 6.17275 28 7 28C8.78361 28 10 26.625 10 25C10 24.533 9.91073 24.0852 9.73174 23.6825L12.4255 20.9888ZM6 25C6 24.6272 6.11989 24.3943 6.25711 24.2571C6.39433 24.1199 6.62725 24 7 24C7.37275 24 7.60567 24.1199 7.74289 24.2571C7.88011 24.3943 8 24.6272 8 25C8 25.5841 7.61639 26 7 26C6.62725 26 6.39433 25.8801 6.25711 25.7429C6.11989 25.6057 6 25.3728 6 25Z" fill="#000000" class="bmwfcol"/><path d="M16.0001 11.5C14.7229 11.5 13.5808 11.9301 12.7555 12.7554C11.9302 13.5806 11.5001 14.7227 11.5001 16C11.5001 17.2772 11.9302 18.4193 12.7555 19.2446C13.5808 20.0699 14.7229 20.5 16.0001 20.5C18.6837 20.5 20.5001 18.4534 20.5001 16C20.5001 14.7227 20.07 13.5806 19.2447 12.7554C18.4194 11.9301 17.2774 11.5 16.0001 11.5ZM13.5001 16C13.5001 15.1772 13.77 14.5693 14.1697 14.1696C14.5694 13.7699 15.1774 13.5 16.0001 13.5C16.8229 13.5 17.4308 13.7699 17.8305 14.1696C18.2302 14.5693 18.5001 15.1772 18.5001 16C18.5001 17.4125 17.5165 18.5 16.0001 18.5C15.1774 18.5 14.5694 18.2301 14.1697 17.8304C13.77 17.4306 13.5001 16.8227 13.5001 16Z" fill="#000000" class="bmwfcol"/><title>sales_channel_rg_48</title></svg>