<svg width="48" height="48" viewBox="0 0 32 32" xmlns="http://www.w3.org/2000/svg"><path d="M16 21V22.5C16 23.4875 15.7525 24.4118 15.0821 25.0821C14.4118 25.7525 13.4875 26 12.5 26H5.5C4.51252 26 3.58824 25.7525 2.91789 25.0821C2.24755 24.4118 2 23.4875 2 22.5V5.5C2 4.51252 2.24755 3.58824 2.91789 2.91789C3.58824 2.24755 4.51252 2 5.5 2H12.5C13.4875 2 14.4118 2.24755 15.0821 2.91789C15.3942 3.22997 15.6146 3.59709 15.7611 4H5.5C4.82081 4 4.49509 4.16912 4.33211 4.33211C4.16912 4.49509 4 4.82081 4 5.5V21H16ZM4.03732 23C4.09613 23.352 4.21568 23.5515 4.33211 23.6679C4.49509 23.8309 4.82081 24 5.5 24H12.5C13.1792 24 13.5049 23.8309 13.6679 23.6679C13.7843 23.5515 13.9039 23.352 13.9627 23H4.03732Z" fill="#000000" class="bmwfcol"/><path d="M24 17.4737V14.75C24 13.9978 23.7449 13.2932 23.2259 12.7742C22.7068 12.2551 22.0022 12 21.25 12C20.4935 12 19.7977 12.2576 19.2732 12.7592C18.7529 13.2569 18.4653 13.933 18.4015 14.6629C18.2306 16.6154 18.0062 19.1779 17.8245 21.2522L17.4884 25.0884L19.0723 31H21.1429L19.5116 24.9116L19.8169 21.4267C19.9986 19.3524 20.223 16.7898 20.3939 14.8372C20.4217 14.5186 20.5353 14.3197 20.6557 14.2045C20.772 14.0932 20.9565 14 21.25 14C21.5477 14 21.7182 14.0949 21.8116 14.1884C21.9051 14.2818 22 14.4523 22 14.75V23H24V21.4738L26.2179 17.6322L27.2929 18.7071C28.241 19.6552 28.3595 19.8351 28.3925 20.1619C28.4142 20.3772 28.3895 20.7059 28.2616 21.3062C28.1352 21.8998 27.9297 22.6672 27.6419 23.7412L26 29.8683V31H28V30.1317L29.586 24.2128C29.8622 23.1825 30.0799 22.3699 30.2177 21.7229C30.3562 21.0729 30.4363 20.4956 30.3824 19.9611C30.2703 18.85 29.5862 18.1687 28.8325 17.418L28.7071 17.2929L27.2532 15.839L27.8612 14.7859C28.1192 14.3391 28.2415 13.8029 28.0957 13.259C27.95 12.7151 27.5756 12.3116 27.1288 12.0536L15.8709 5.55386C15.4241 5.29589 14.8878 5.17363 14.3439 5.31937C13.8 5.46511 13.3968 5.8391 13.1388 6.28591L10.4171 11H12.7265L14.8709 7.28591L26.1291 13.7858L24 17.4737Z" fill="#000000" class="bmwfcol"/><path d="M13.2697 19.0603L15.0074 20.0636C15.6572 18.7301 16 17.186 16 15.5C16 13.814 15.6572 12.27 15.0074 10.9364L13.2697 11.9397C13.7391 12.9534 14 14.148 14 15.5C14 16.8521 13.7391 18.0466 13.2697 19.0603Z" fill="#000000" class="bmwfcol"/><path d="M12.3575 18.5337C12.78 17.6364 13 16.6093 13 15.5C13 14.3908 12.78 13.3636 12.3575 12.4664L10.6164 13.4716C10.8621 14.0507 11 14.7292 11 15.5C11 16.2709 10.8621 16.9493 10.6164 17.5285L12.3575 18.5337Z" fill="#000000" class="bmwfcol"/><path d="M9.70502 17.0023C9.90113 16.5442 10 16.0348 10 15.5C10 14.9652 9.90113 14.4559 9.70502 13.9978L8 14.9822V16.0179L9.70502 17.0023Z" fill="#000000" class="bmwfcol"/><title>scan-card-with-phone_rg_48</title></svg>