<svg width="48" height="48" viewBox="0 0 32 32" xmlns="http://www.w3.org/2000/svg"><path d="M25.6748 6.42529V4.30029H23.9248V8.17529H27.2998V6.42529H25.6748Z" fill="#000000" class="bmwfcol"/><path d="M20.6679 2.66789C21.7557 1.58011 23.2728 1 25 1C26.7272 1 28.2443 1.58011 29.3321 2.66789C30.4199 3.75567 31 5.27275 31 7C31 8.72725 30.4199 10.2443 29.3321 11.3321C28.2443 12.4199 26.7272 13 25 13C23.2728 13 21.7557 12.4199 20.6679 11.3321C19.5801 10.2443 19 8.72725 19 7C19 5.27275 19.5801 3.75567 20.6679 2.66789ZM22.0821 4.08211C21.4199 4.74433 21 5.72725 21 7C21 8.27275 21.4199 9.25567 22.0821 9.91789C22.7443 10.5801 23.7272 11 25 11C26.2728 11 27.2557 10.5801 27.9179 9.91789C28.5801 9.25567 29 8.27275 29 7C29 5.72725 28.5801 4.74433 27.9179 4.08211C27.2557 3.41989 26.2728 3 25 3C23.7272 3 22.7443 3.41989 22.0821 4.08211Z" fill="#000000" class="bmwfcol"/><path d="M22.875 21.125L21.125 22.875V27.875H26.125L27.875 26.125H24.2598L25.1924 25.1924C27.5438 22.8409 29 19.5896 29 16C29 15.3586 28.9535 14.7281 28.8638 14.1115C28.2574 14.4204 27.6097 14.6479 26.9348 14.7954C26.9779 15.191 27 15.5929 27 16C27 19.0378 25.7699 21.7865 23.7782 23.7782L22.875 24.6813V21.125Z" fill="#000000" class="bmwfcol"/><path d="M17.8885 3.13617C17.2719 3.04645 16.6414 3 16 3C8.8203 3 3 8.8203 3 16C3 21.0154 5.84022 25.3675 10 27.5356L10 25.2211C6.98979 23.2584 5 19.8616 5 16C5 9.92487 9.92487 5 16 5C16.4071 5 16.809 5.02211 17.2046 5.0652C17.3521 4.39035 17.5796 3.7426 17.8885 3.13617Z" fill="#000000" class="bmwfcol"/><path d="M16.5047 10.9803C16.7666 10.4587 17.0649 10.0862 17.4388 9.7875C17.6659 10.4682 17.9815 11.1124 18.3872 11.7036C18.3559 11.7556 18.3245 11.8132 18.2922 11.8775C18.1191 12.2224 17.9418 12.7244 17.705 13.5312C17.8007 13.5975 17.8924 13.6691 17.9796 13.7458C18.5445 13.5052 19.0956 13.3876 19.7391 13.4085C19.8372 13.4117 19.9369 13.4182 20.0387 13.4277C21.3112 14.3837 22.8545 14.9064 24.491 14.9942L22.6323 16.0674L22.217 15.9561C20.8869 15.5997 20.2099 15.4249 19.6742 15.4075C19.4349 15.3997 19.2173 15.4236 18.9602 15.5103C18.9749 15.5993 18.9856 15.6897 18.9922 15.7812C19.8543 16.0331 20.5106 16.2572 21.0159 16.5108C21.7391 16.8739 22.1756 17.3072 22.5264 17.9148C22.5959 18.0352 22.6595 18.1582 22.7167 18.2833L21.0818 19.9182C21.0818 19.5882 20.9877 19.2497 20.7944 18.9148C20.6386 18.6451 20.4922 18.4858 20.1186 18.2983C19.7737 18.1251 19.2716 17.9478 18.4646 17.711C18.3982 17.8063 18.3265 17.8977 18.2498 17.9846C18.4907 18.5499 18.6085 19.1012 18.5876 19.7452C18.5637 20.4793 18.3544 21.3098 18.075 22.3558L18.1523 22.4897C18.3131 22.4827 18.4439 22.4695 18.5738 22.4442C18.6984 22.4199 18.8344 22.3816 19 22.3128V24.3985C18.5378 24.4886 18.0507 24.4972 17.6231 24.4971L17.0019 24.4971L15.9287 22.6384L16.04 22.2231C16.3964 20.8929 16.5712 20.216 16.5887 19.6802C16.5965 19.4394 16.5721 19.2205 16.4841 18.9611C16.3958 18.9755 16.3061 18.9859 16.2154 18.9924C15.9638 19.8533 15.7399 20.5089 15.4865 21.0137C15.1234 21.7369 14.6902 22.1734 14.0825 22.5243C13.1301 23.0741 12.0183 23.2491 10.9299 22.8983C9.84947 22.5501 8.9128 21.724 8.20528 20.4985C7.87995 19.935 7.68782 19.4559 7.59005 18.9541C7.49999 18.4918 7.5001 18.0486 7.5002 17.6209L7.50021 16.9997L9.35894 15.9265L9.77422 16.0378C11.1044 16.3942 11.7813 16.5691 12.3171 16.5865C12.5586 16.5943 12.7781 16.5698 13.0384 16.4812C13.0242 16.3933 13.0139 16.3042 13.0075 16.2139C12.1462 15.9622 11.4904 15.7383 10.9855 15.4848C10.2622 15.1218 9.82578 14.6885 9.47493 14.0808C8.92507 13.1284 8.75004 12.0166 9.10086 10.9282C9.4491 9.84778 10.2752 8.91112 11.5007 8.2036C12.0642 7.87827 12.5433 7.68614 13.0451 7.58837C13.5074 7.4983 13.9506 7.49841 14.3783 7.49852L14.9995 7.49853L16.0726 9.35725L15.9654 9.75735C15.6072 11.0943 15.4309 11.7744 15.4128 12.3125C15.4046 12.5558 15.4291 12.7764 15.5186 13.0384C15.6026 13.0249 15.6877 13.0148 15.7738 13.0084C16.0263 12.1441 16.2507 11.4863 16.5047 10.9803ZM11.207 13.0808C11.3627 13.3505 11.5092 13.5099 11.8828 13.6974C12.2279 13.8706 12.7304 14.048 13.5382 14.2851C13.6044 14.1902 13.6759 14.0994 13.7523 14.013C13.5102 13.4453 13.3922 12.8921 13.4139 12.2453C13.4386 11.5132 13.6474 10.6841 13.9264 9.63983L13.8491 9.50597C13.6883 9.5129 13.5574 9.52616 13.4276 9.55146C13.1966 9.59646 12.9264 9.68988 12.5007 9.93565C11.594 10.4591 11.1654 11.0422 11.0044 11.5417C10.846 12.0332 10.9072 12.5615 11.207 13.0808ZM14.0129 18.2476C13.4475 18.4885 12.8962 18.6064 12.2521 18.5854C11.5181 18.5615 10.6875 18.3522 9.64152 18.0728L9.50766 18.1501C9.51458 18.3109 9.52784 18.4417 9.55314 18.5716C9.59814 18.8026 9.69156 19.0728 9.93733 19.4985C10.4608 20.4052 11.0439 20.8337 11.5434 20.9948C12.0349 21.1532 12.5632 21.092 13.0825 20.7922C13.3522 20.6365 13.5115 20.49 13.6991 20.1164C13.8722 19.7715 14.0495 19.2695 14.2863 18.4627C14.191 18.3962 14.0997 18.3244 14.0129 18.2476ZM15 16C15 16.5523 15.4477 17 16 17C16.5523 17 17 16.5523 17 16C17 15.4477 16.5523 15 16 15C15.4477 15 15 15.4477 15 16Z" fill="#000000" class="bmwfcol"/><title>scheduled-remote-engine-start_rg_48</title></svg>