<svg width="48" height="48" viewBox="0 0 32 32" xmlns="http://www.w3.org/2000/svg"><path d="M22.6408 3.32132C22.284 3.09198 21.9159 3 21.5 3H9C8.17705 3 7.3869 3.22388 6.80539 3.80539C6.22388 4.3869 6 5.17705 6 6V26C6 26.823 6.22388 27.6131 6.80539 28.1946C7.3869 28.7761 8.17705 29 9 29H23C23.823 29 24.6131 28.7761 25.1946 28.1946C25.7761 27.6131 26 26.823 26 26V7.5C26 7.0841 25.908 6.71599 25.6787 6.35924C25.5063 6.09102 25.2606 5.84586 25.0491 5.63485C25.035 5.62071 25.0209 5.60672 25.0071 5.59289L23.4071 3.99289C23.3933 3.97906 23.3793 3.96505 23.3652 3.95088C23.1541 3.73942 22.909 3.49375 22.6408 3.32132ZM21.6951 5.11586C21.7733 5.18774 21.8634 5.27757 21.9929 5.40711L23.5929 7.00711C23.7224 7.13664 23.8123 7.22674 23.8841 7.30492C23.9546 7.38155 23.9839 7.42145 23.9963 7.44076L23.9973 7.44226C23.9985 7.45173 24 7.46999 24 7.5V26C24 26.477 23.8739 26.6869 23.7804 26.7804C23.6869 26.8739 23.4771 27 23 27H9C8.52295 27 8.3131 26.8739 8.21961 26.7804C8.12612 26.6869 8 26.477 8 26V6C8 5.52295 8.12612 5.3131 8.21961 5.21961C8.3131 5.12612 8.52295 5 9 5H21.5C21.53 5 21.5483 5.00155 21.5577 5.00272L21.5592 5.00368C21.5786 5.01609 21.6184 5.0454 21.6951 5.11586Z" fill="#000000" class="bmwfcol"/><path d="M12.1051 16.3363C11.296 16.3363 10.5795 16.4233 10.0453 16.8347C9.44833 17.2883 9.19153 17.9006 9.19153 18.7629C9.19153 19.4614 9.4051 20.0416 9.88936 20.447L9.89023 20.4477C10.2098 20.7122 10.5793 20.8607 11.0987 21.0305L12.3832 21.4387C12.5912 21.5031 12.7855 21.5663 12.9443 21.6272C13.1096 21.6906 13.2147 21.7436 13.2625 21.7818C13.3454 21.8482 13.3961 21.9557 13.3961 22.1624C13.3961 22.3658 13.3309 22.4964 13.187 22.5924L13.1861 22.5929L13.1853 22.5935C13.0212 22.7054 12.7586 22.7675 12.1847 22.7675C11.3836 22.7675 10.3014 22.5539 9.50033 22.3937L9.26111 22.3458V24.2073L9.42599 24.2379C10.117 24.3663 11.209 24.5691 12.0654 24.5691C13.1894 24.5691 13.8983 24.387 14.4756 23.9296C15.0487 23.4776 15.307 22.8484 15.307 22.0829C15.307 21.3938 15.0634 20.7655 14.6113 20.3806C14.2662 20.0805 13.8056 19.9308 13.2598 19.7553L11.9668 19.3476C11.5519 19.216 11.377 19.1551 11.2298 19.0492C11.1466 18.9862 11.1024 18.8967 11.1024 18.6635C11.1024 18.5623 11.1137 18.4948 11.1356 18.4418C11.1563 18.3921 11.1919 18.3416 11.2635 18.2848C11.4101 18.174 11.6371 18.1379 12.1648 18.1379C12.4781 18.1379 12.9494 18.2043 13.4376 18.2925C13.9218 18.38 14.408 18.4861 14.7459 18.5606L14.9889 18.6142V16.7738L14.8326 16.7388C14.171 16.5906 12.9959 16.3363 12.1051 16.3363Z" fill="#000000" class="bmwfcol"/><path d="M16.539 16.5053H19.4427C20.593 16.5053 21.4627 16.6958 22.0974 17.4178C22.6889 18.0848 22.9626 18.9061 22.9626 20.4229C22.9626 21.9844 22.6067 22.9545 21.8527 23.6331C21.2039 24.217 20.43 24.4001 19.3631 24.4001H16.539V16.5053ZM18.43 18.3069V22.5985H19.4029C19.7535 22.5985 20.0142 22.5597 20.2204 22.4736C20.4214 22.3897 20.5833 22.2556 20.728 22.0407C20.9795 21.6677 21.0517 21.1364 21.0517 20.4229C21.0517 19.6385 20.9957 19.0672 20.6716 18.6833C20.4069 18.3705 20.0461 18.3069 19.4526 18.3069H18.43Z" fill="#000000" class="bmwfcol"/><title>sd_card_front_rg_48</title></svg>