<svg width="48" height="48" viewBox="0 0 32 32" xmlns="http://www.w3.org/2000/svg"><path d="M12.1052 16.3363C11.2961 16.3363 10.5795 16.4233 10.0453 16.8347C9.44836 17.2883 9.19155 17.9006 9.19155 18.7629C9.19155 19.4614 9.40512 20.0416 9.88938 20.447L9.89026 20.4477C10.2098 20.7122 10.5794 20.8607 11.0987 21.0305L12.3833 21.4387C12.5912 21.5031 12.7855 21.5663 12.9443 21.6272C13.1097 21.6906 13.2147 21.7436 13.2625 21.7818C13.3455 21.8482 13.3962 21.9557 13.3962 22.1624C13.3962 22.3658 13.331 22.4964 13.187 22.5924L13.1862 22.5929L13.1853 22.5935C13.0212 22.7054 12.7586 22.7675 12.1847 22.7675C11.3836 22.7675 10.3015 22.5539 9.50036 22.3937L9.26113 22.3458V24.2073L9.42602 24.2379C10.117 24.3663 11.209 24.5691 12.0654 24.5691C13.1895 24.5691 13.8983 24.387 14.4756 23.9296C15.0487 23.4776 15.3071 22.8484 15.3071 22.0829C15.3071 21.3938 15.0635 20.7655 14.6113 20.3806C14.2663 20.0805 13.8056 19.9308 13.2598 19.7553L11.9668 19.3476C11.5519 19.216 11.3771 19.1551 11.2298 19.0492C11.1466 18.9862 11.1024 18.8967 11.1024 18.6635C11.1024 18.5623 11.1137 18.4948 11.1357 18.4418C11.1563 18.3921 11.1919 18.3416 11.2635 18.2848C11.4101 18.174 11.6372 18.1379 12.1648 18.1379C12.4781 18.1379 12.9494 18.2043 13.4376 18.2925C13.9218 18.38 14.408 18.4861 14.7459 18.5606L14.989 18.6142V16.7738L14.8327 16.7388C14.171 16.5906 12.996 16.3363 12.1052 16.3363Z" fill="#000000" class="bmwfcol"/><path d="M16.539 16.5053H19.4427C20.593 16.5053 21.4628 16.6958 22.0975 17.4178C22.689 18.0848 22.9626 18.9061 22.9626 20.4229C22.9626 21.9844 22.6067 22.9545 21.8527 23.6331C21.2039 24.217 20.43 24.4001 19.3632 24.4001H16.539V16.5053ZM18.43 18.3069V22.5985H19.4029C19.7535 22.5985 20.0142 22.5597 20.2205 22.4736C20.4214 22.3897 20.5833 22.2556 20.728 22.0407C20.9796 21.6677 21.0518 21.1364 21.0518 20.4229C21.0518 19.6385 20.9957 19.0672 20.6717 18.6833C20.407 18.3705 20.0461 18.3069 19.4526 18.3069H18.43Z" fill="#000000" class="bmwfcol"/><path d="M9.35924 3.32132C9.71599 3.09198 10.0841 3 10.5 3H23C23.823 3 24.6131 3.22388 25.1946 3.80539C25.7761 4.3869 26 5.17705 26 6V26C26 26.823 25.7761 27.6131 25.1946 28.1946C24.6131 28.7761 23.823 29 23 29H9C8.17705 29 7.3869 28.7761 6.80539 28.1946C6.22388 27.6131 6 26.823 6 26V7.5C6 7.0841 6.09198 6.71599 6.32132 6.35924C6.49375 6.09102 6.73942 5.84586 6.95088 5.63485C6.96505 5.62071 6.97906 5.60672 6.99289 5.59289L8.59289 3.99289C8.60672 3.97906 8.62071 3.96505 8.63485 3.95088C8.84586 3.73942 9.09102 3.49375 9.35924 3.32132ZM10.3049 5.11586C10.2267 5.18774 10.1366 5.27757 10.0071 5.40711L8.40711 7.00711C8.27757 7.13664 8.18774 7.22674 8.11586 7.30492C8.0454 7.38155 8.01609 7.42145 8.00368 7.44076L8.00272 7.44226C8.00155 7.45173 8 7.46999 8 7.5V26C8 26.477 8.12612 26.6869 8.21961 26.7804C8.3131 26.8739 8.52295 27 9 27H23C23.477 27 23.6869 26.8739 23.7804 26.7804C23.8739 26.6869 24 26.477 24 26V6C24 5.52295 23.8739 5.3131 23.7804 5.21961C23.6869 5.12612 23.477 5 23 5H10.5C10.47 5 10.4517 5.00155 10.4423 5.00272L10.4408 5.00368C10.4214 5.01609 10.3816 5.0454 10.3049 5.11586Z" fill="#000000" class="bmwfcol"/><path d="M21.0001 11V6H23.0001V11H21.0001Z" fill="#000000" class="bmwfcol"/><path d="M17.5001 11V6H19.5001V11H17.5001Z" fill="#000000" class="bmwfcol"/><path d="M14.0001 11V6H16.0001V11H14.0001Z" fill="#000000" class="bmwfcol"/><path d="M10.5 11V6H12.5V11H10.5Z" fill="#000000" class="bmwfcol"/><title>sd_card_back_rg_48</title></svg>