<svg width="48" height="48" viewBox="0 0 32 32" xmlns="http://www.w3.org/2000/svg"><path d="M14.2159 8.68904V16.8634H12.3249V11.1679L10.4264 11.7445V9.85591L14.2159 8.68904Z" fill="#000000" class="bmwfcol"/><path d="M18.0196 8.79965C17.3315 8.79965 16.3494 8.97268 15.7942 9.08172L15.6328 9.11343V10.9126L15.8713 10.8658C16.3848 10.7651 17.2779 10.5913 17.8705 10.5913C18.1075 10.5913 18.3063 10.5989 18.4706 10.628C18.6344 10.6569 18.7463 10.7044 18.8227 10.7708L18.8251 10.7729C18.9517 10.8795 18.9925 11.0099 18.9925 11.2063C18.9925 11.4873 18.8582 11.6967 18.5999 12.0146C17.9138 12.8574 16.3339 14.3887 15.556 15.1267L15.4936 15.1858V16.8634H21.1519V15.0718H18.2089C18.7516 14.5627 19.2237 14.1048 19.7162 13.5795C20.0819 13.1887 20.3786 12.8318 20.5819 12.4358C20.7876 12.035 20.8934 11.6033 20.8934 11.0672C20.8934 10.5133 20.6931 9.84264 20.218 9.43487C19.7004 8.98364 19.1083 8.79965 18.0196 8.79965Z" fill="#000000" class="bmwfcol"/><path d="M16 3C13.0728 3 10.5557 3.98011 8.76789 5.76789C6.98011 7.55567 6 10.0728 6 13C6 15.9272 6.98011 18.4443 8.76789 20.2321C8.90929 20.3735 9.05524 20.5098 9.2056 20.641L6.95703 27.9975H10.4102L13.0766 29.6845L15.1017 22.9685C15.3965 22.9894 15.696 23 16 23C16.304 23 16.6035 22.9894 16.8982 22.9685L18.9233 29.6845L21.5898 27.9975H25.0429L22.7944 20.6411C22.9447 20.5099 23.0907 20.3735 23.2321 20.2321C25.0199 18.4443 26 15.9272 26 13C26 10.0728 25.0199 7.55567 23.2321 5.76789C21.4443 3.98011 18.9272 3 16 3ZM8 13C8 10.5272 8.81989 8.54433 10.1821 7.18211C11.5443 5.81989 13.5272 5 16 5C18.4728 5 20.4557 5.81989 21.8179 7.18211C23.1801 8.54433 24 10.5272 24 13C24 15.4728 23.1801 17.4557 21.8179 18.8179C20.4557 20.1801 18.4728 21 16 21C13.5272 21 11.5443 20.1801 10.1821 18.8179C8.81989 17.4557 8 15.4728 8 13ZM20.0783 26.5871L18.8916 22.6517C19.6647 22.4554 20.3918 22.1781 21.0646 21.8241L22.3403 25.9975H21.0102L20.0783 26.5871ZM9.65969 25.9975L10.9353 21.8241C11.6081 22.1781 12.3352 22.4554 13.1083 22.6517L11.9216 26.5871L10.9897 25.9975H9.65969Z" fill="#000000" class="bmwfcol"/><title>seal_12_rg_48</title></svg>