<svg width="48" height="48" viewBox="0 0 32 32" xmlns="http://www.w3.org/2000/svg"><path d="M10.0362 9.10132C10.5565 9.00314 11.6508 8.79965 12.3296 8.79965C13.3589 8.79965 14.0692 8.96962 14.573 9.43953C15.0067 9.84014 15.2134 10.393 15.2134 10.9678C15.2134 11.4968 15.0153 11.8273 14.7645 12.2185C14.6728 12.3626 14.5682 12.5198 14.4835 12.6432C14.5945 12.7332 14.7019 12.8376 14.8177 12.9751C15.173 13.3864 15.3228 13.8733 15.3228 14.4667C15.3228 15.0893 15.1235 15.7397 14.712 16.174C14.1618 16.7676 13.3512 17.0324 12.1905 17.0324C11.2368 17.0324 10.5161 16.9002 9.97718 16.8004L9.8136 16.7701V14.9735L10.0495 15.0154C10.6668 15.1249 11.3758 15.2507 12.1606 15.2507C12.6969 15.2507 13.0177 15.1707 13.202 15.0335C13.3649 14.9052 13.4318 14.7263 13.4318 14.4667C13.4318 14.3162 13.4008 14.2072 13.3455 14.1214C13.2899 14.0349 13.1984 13.9546 13.0478 13.8814C12.8291 13.7762 12.5726 13.7721 12.1109 13.7721H10.569V12.0302H12.8142L12.9929 11.7845L12.994 11.783C13.2291 11.4661 13.3423 11.2693 13.3423 11.0871C13.3423 10.9899 13.3349 10.9284 13.319 10.8807C13.3048 10.8382 13.2806 10.7967 13.2288 10.7479C13.1743 10.7002 13.0897 10.6572 12.9409 10.627C12.789 10.5962 12.5835 10.5813 12.2998 10.5813C11.6176 10.5813 10.6247 10.7752 10.1117 10.8758L9.87324 10.9225V9.13206L10.0362 9.10132Z" fill="#000000" class="bmwfcol"/><path d="M21.6876 10.5998V8.81581L21.4654 8.84065C19.8548 9.02072 18.5937 9.37381 17.7127 10.0975C17.2734 10.4574 16.9432 10.8948 16.7254 11.5098C16.5097 12.1191 16.407 12.8951 16.407 13.9299C16.407 14.9708 16.6516 15.7666 17.1692 16.2957C17.7114 16.8596 18.4337 17.0324 19.3505 17.0324C20.2799 17.0324 20.9988 16.7936 21.5163 16.2214C21.9864 15.7073 22.1647 15.0475 22.1647 14.3772C22.1647 13.6138 21.9545 12.983 21.5031 12.5096C21.0627 12.0467 20.4422 11.8214 19.3803 11.8214C19.134 11.8214 18.8669 11.8266 18.6051 11.8371C18.7376 11.5666 18.9707 11.3564 19.3703 11.1566C19.8957 10.8939 20.7231 10.7083 21.5099 10.6198L21.6876 10.5998ZM19.3505 15.2905C18.9677 15.2905 18.7078 15.2215 18.5488 15.043C18.4558 14.9282 18.3961 14.8187 18.3576 14.683C18.3175 14.5418 18.298 14.3639 18.298 14.1088C18.298 13.8678 18.2981 13.7079 18.3049 13.565C18.5428 13.5551 18.8989 13.5434 19.2014 13.5434C19.7508 13.5434 19.9481 13.5988 20.0822 13.7318C20.2357 13.8936 20.2737 14.0671 20.2737 14.3772C20.2737 14.6817 20.2282 14.8789 20.0509 15.064C19.8885 15.2337 19.6683 15.2905 19.3505 15.2905Z" fill="#000000" class="bmwfcol"/><path d="M16 3C13.0728 3 10.5557 3.98011 8.76789 5.76789C6.98011 7.55567 6 10.0728 6 13C6 15.9272 6.98011 18.4443 8.76789 20.2321C8.90929 20.3735 9.05524 20.5098 9.2056 20.641L6.95703 27.9975H10.4102L13.0766 29.6845L15.1017 22.9685C15.3965 22.9894 15.696 23 16 23C16.304 23 16.6035 22.9894 16.8982 22.9685L18.9233 29.6845L21.5898 27.9975H25.0429L22.7944 20.6411C22.9447 20.5099 23.0907 20.3735 23.2321 20.2321C25.0199 18.4443 26 15.9272 26 13C26 10.0728 25.0199 7.55567 23.2321 5.76789C21.4443 3.98011 18.9272 3 16 3ZM8 13C8 10.5272 8.81989 8.54433 10.1821 7.18211C11.5443 5.81989 13.5272 5 16 5C18.4728 5 20.4557 5.81989 21.8179 7.18211C23.1801 8.54433 24 10.5272 24 13C24 15.4728 23.1801 17.4557 21.8179 18.8179C20.4557 20.1801 18.4728 21 16 21C13.5272 21 11.5443 20.1801 10.1821 18.8179C8.81989 17.4557 8 15.4728 8 13ZM20.0783 26.5871L18.8916 22.6517C19.6647 22.4554 20.3918 22.1781 21.0646 21.8241L22.3403 25.9975H21.0102L20.0783 26.5871ZM9.65969 25.9975L10.9353 21.8241C11.6081 22.1781 12.3352 22.4554 13.1083 22.6517L11.9216 26.5871L10.9897 25.9975H9.65969Z" fill="#000000" class="bmwfcol"/><title>seal_36_rg_48</title></svg>