<svg width="48" height="48" viewBox="0 0 32 32" xmlns="http://www.w3.org/2000/svg"><path d="M19.4853 8.59964C18.533 8.59964 17.7262 8.87052 17.1885 9.58379C16.9108 9.95585 16.7718 10.4302 16.7002 10.957C16.6285 11.4842 16.6214 12.0861 16.6214 12.7259C16.6214 13.4389 16.6284 14.0669 16.7198 14.6104C16.8121 15.1588 16.9921 15.6346 17.3468 16.0384C17.8895 16.6587 18.6565 16.8324 19.4853 16.8324C20.3212 16.8324 21.1279 16.6054 21.6483 15.9634C22.3255 15.1354 22.379 14.1683 22.379 12.7259C22.379 12.0119 22.3671 11.353 22.26 10.783C22.1523 10.2095 21.9453 9.70788 21.5421 9.32126C21.0056 8.80668 20.2427 8.59964 19.4853 8.59964ZM18.5343 11.6111C18.5562 11.2815 18.5994 11.0277 18.6756 10.8453C18.7551 10.6571 18.8586 10.5483 18.9796 10.4824C19.1054 10.4139 19.2692 10.3813 19.4853 10.3813C19.8464 10.3813 20.0948 10.4884 20.2324 10.6984C20.3467 10.874 20.4136 11.1064 20.4494 11.4366C20.4853 11.768 20.488 12.1766 20.488 12.6961C20.488 13.2603 20.4828 13.6846 20.4399 14.0201C20.3975 14.3528 20.3201 14.5782 20.1896 14.7536C20.0414 14.9536 19.7853 15.0507 19.4853 15.0507C19.1706 15.0507 18.9202 14.9613 18.7742 14.758C18.658 14.589 18.589 14.3592 18.5521 14.0271C18.5151 13.6936 18.5124 13.2804 18.5124 12.7558C18.5124 12.3214 18.5124 11.9385 18.5343 11.6111Z" fill="#000000" class="bmwfcol"/><path d="M14.8714 8.61579V10.3998L14.6937 10.4198C13.9069 10.5083 13.0795 10.6939 12.5541 10.9566C12.1545 11.1564 11.9214 11.3666 11.7888 11.6371C12.0507 11.6266 12.3178 11.6214 12.5641 11.6214C13.6259 11.6214 14.2464 11.8467 14.6869 12.3096C15.1383 12.783 15.3485 13.4138 15.3485 14.1772C15.3485 14.8474 15.1702 15.5072 14.7001 16.0213C14.1827 16.5936 13.4637 16.8324 12.5343 16.8324C11.6175 16.8324 10.8952 16.6595 10.353 16.0957C9.83533 15.5665 9.59082 14.7707 9.59082 13.7299C9.59082 12.6951 9.69345 11.9191 9.90919 11.3098C10.127 10.6947 10.4573 10.2573 10.8966 9.89737C11.7777 9.17375 13.0387 8.82069 14.6491 8.64064L14.8714 8.61579ZM11.4886 13.365C11.4819 13.5079 11.4818 13.6678 11.4818 13.9088C11.4818 14.1638 11.5013 14.3418 11.5413 14.4829C11.5798 14.6187 11.6396 14.7282 11.7326 14.843C11.8916 15.0215 12.1515 15.0905 12.5343 15.0905C12.8521 15.0905 13.0722 15.0337 13.2346 14.864C13.412 14.6789 13.4575 14.4817 13.4575 14.1772C13.4575 13.8671 13.4195 13.6936 13.266 13.5317C13.1318 13.3987 12.9345 13.3434 12.3852 13.3434C12.0827 13.3434 11.7266 13.3551 11.4886 13.365Z" fill="#000000" class="bmwfcol"/><path d="M16 3C13.0728 3 10.5557 3.98011 8.76789 5.76789C6.98011 7.55567 6 10.0728 6 13C6 15.9272 6.98011 18.4443 8.76789 20.2321C8.90929 20.3735 9.05524 20.5098 9.2056 20.641L6.95703 27.9975H10.4102L13.0766 29.6845L15.1017 22.9685C15.3965 22.9894 15.696 23 16 23C16.304 23 16.6035 22.9894 16.8982 22.9685L18.9233 29.6845L21.5898 27.9975H25.0429L22.7944 20.6411C22.9447 20.5099 23.0907 20.3735 23.2321 20.2321C25.0199 18.4443 26 15.9272 26 13C26 10.0728 25.0199 7.55567 23.2321 5.76789C21.4443 3.98011 18.9272 3 16 3ZM8 13C8 10.5272 8.81989 8.54433 10.1821 7.18211C11.5443 5.81989 13.5272 5 16 5C18.4728 5 20.4557 5.81989 21.8179 7.18211C23.1801 8.54433 24 10.5272 24 13C24 15.4728 23.1801 17.4557 21.8179 18.8179C20.4557 20.1801 18.4728 21 16 21C13.5272 21 11.5443 20.1801 10.1821 18.8179C8.81989 17.4557 8 15.4728 8 13ZM20.0783 26.5871L18.8916 22.6517C19.6647 22.4554 20.3918 22.1781 21.0646 21.8241L22.3403 25.9975H21.0102L20.0783 26.5871ZM9.65969 25.9975L10.9353 21.8241C11.6081 22.1781 12.3352 22.4554 13.1083 22.6517L11.9216 26.5871L10.9897 25.9975H9.65969Z" fill="#000000" class="bmwfcol"/><title>seal_60_rg_48</title></svg>