<svg width="48" height="48" viewBox="0 0 32 32" xmlns="http://www.w3.org/2000/svg"><path d="M10.0797 9.08172C10.6349 8.97268 11.617 8.79965 12.3051 8.79965C13.3938 8.79965 13.9859 8.98364 14.5035 9.43487C14.9786 9.84264 15.1789 10.5133 15.1789 11.0672C15.1789 11.6033 15.0731 12.035 14.8674 12.4358C14.6641 12.8318 14.3674 13.1887 14.0017 13.5795C13.5092 14.1048 13.0371 14.5627 12.4944 15.0718H15.4374V16.8634H9.77911V15.1859L9.84146 15.1267C10.6194 14.3887 12.1993 12.8574 12.8854 12.0146C13.1437 11.6967 13.278 11.4873 13.278 11.2063C13.278 11.0099 13.2372 10.8795 13.1106 10.7729L13.1082 10.7708C13.0318 10.7044 12.9199 10.6569 12.7561 10.628C12.5918 10.5989 12.393 10.5913 12.156 10.5913C11.5634 10.5913 10.6703 10.7651 10.1568 10.8658L9.91827 10.9126V9.11344L10.0797 9.08172Z" fill="#000000" class="bmwfcol"/><path d="M22.0181 8.96863H19.7228L16.1847 13.7748V15.4519H20.0116V16.8634H21.8827V12.3383H20.0116V13.6504H18.5789L22.0181 8.96863Z" fill="#000000" class="bmwfcol"/><path d="M16 3C13.0728 3 10.5557 3.98011 8.76789 5.76789C6.98011 7.55567 6 10.0728 6 13C6 15.9272 6.98011 18.4443 8.76789 20.2321C8.9093 20.3735 9.05527 20.5099 9.20564 20.6411L6.95709 27.9975H10.4102L13.0767 29.6845L15.1018 22.9685C15.3965 22.9894 15.696 23 16 23C16.304 23 16.6035 22.9894 16.8982 22.9685L18.9233 29.6845L21.5898 27.9975H25.0429L22.7944 20.6411C22.9447 20.5099 23.0907 20.3735 23.2321 20.2321C25.0199 18.4443 26 15.9272 26 13C26 10.0728 25.0199 7.55567 23.2321 5.76789C21.4443 3.98011 18.9272 3 16 3ZM8 13C8 10.5272 8.81989 8.54433 10.1821 7.18211C11.5443 5.81989 13.5272 5 16 5C18.4728 5 20.4557 5.81989 21.8179 7.18211C23.1801 8.54433 24 10.5272 24 13C24 15.4728 23.1801 17.4557 21.8179 18.8179C20.4557 20.1801 18.4728 21 16 21C13.5272 21 11.5443 20.1801 10.1821 18.8179C8.81989 17.4557 8 15.4728 8 13ZM20.0783 26.5871L18.8916 22.6517C19.6647 22.4554 20.3918 22.1781 21.0646 21.8241L22.3403 25.9975H21.0102L20.0783 26.5871ZM13.1084 22.6517L11.9217 26.5871L10.9898 25.9975H9.65975L10.9354 21.8241C11.6082 22.1781 12.3353 22.4554 13.1084 22.6517Z" fill="#000000" class="bmwfcol"/><title>seal_24_rg_48</title></svg>