<svg width="48" height="48" viewBox="0 0 32 32" xmlns="http://www.w3.org/2000/svg"><path d="M19.3374 8.59964C18.4348 8.59964 17.6956 8.80463 17.1596 9.26407C16.6736 9.68226 16.4834 10.3142 16.4834 10.9367C16.4834 11.4774 16.6115 11.9219 16.904 12.2931L16.9048 12.2941L16.9057 12.2951C17.0178 12.4337 17.1163 12.5342 17.2261 12.6215C17.1098 12.7243 16.9911 12.8421 16.8608 12.9919C16.5365 13.3613 16.3641 13.8673 16.3641 14.3959C16.3641 15.1646 16.6082 15.8273 17.1762 16.2729L17.1776 16.2739C17.707 16.682 18.4569 16.8324 19.3374 16.8324C20.3088 16.8324 21.0269 16.6377 21.6022 16.16L21.6032 16.1592L21.6041 16.1584C22.128 15.7125 22.3404 15.0627 22.3404 14.3959C22.3404 13.8763 22.1929 13.3375 21.8543 12.9529C21.724 12.7997 21.6027 12.6834 21.451 12.5713C21.5596 12.4507 21.6672 12.3248 21.7706 12.1938L21.7718 12.1923L21.773 12.1907C22.0409 11.8371 22.2212 11.438 22.2212 10.9367C22.2212 10.2832 21.9748 9.64621 21.4846 9.23357C20.9566 8.78291 20.2357 8.59964 19.3374 8.59964ZM18.5169 10.5089C18.5828 10.4496 18.6871 10.3986 18.8328 10.3632C18.9769 10.3283 19.1491 10.3117 19.3374 10.3117C19.7194 10.3117 19.9988 10.3801 20.1731 10.5235C20.3062 10.6372 20.35 10.7842 20.35 11.0163C20.35 11.3058 20.2679 11.4765 20.165 11.6309C20.095 11.7358 20.0424 11.8019 19.9693 11.8838C19.6159 11.8213 19.3185 11.7612 19.0819 11.6999C18.8148 11.6306 18.6494 11.5655 18.5669 11.5081L18.5654 11.5071C18.4793 11.4484 18.4327 11.3928 18.4038 11.3289C18.3731 11.2609 18.3545 11.1661 18.3545 11.0163C18.3545 10.8776 18.3602 10.7837 18.3826 10.7068C18.4026 10.638 18.4379 10.5767 18.5133 10.5121L18.5151 10.5105L18.5169 10.5089ZM18.4362 13.6975C18.5328 13.5639 18.608 13.4883 18.7198 13.3943C19.1076 13.4537 19.4132 13.5105 19.6474 13.5666C19.9036 13.6278 20.058 13.6845 20.1402 13.7331L20.142 13.7342L20.1439 13.7352C20.2753 13.8091 20.351 13.8896 20.397 13.9791C20.4445 14.0715 20.4693 14.1908 20.4693 14.3561C20.4693 14.4996 20.4512 14.6045 20.4157 14.6878C20.3815 14.7683 20.326 14.8407 20.2312 14.9118L20.2296 14.913L20.228 14.9143C20.0549 15.0498 19.7258 15.1203 19.3374 15.1203C19.1421 15.1203 18.9587 15.1059 18.801 15.0715C18.6419 15.0367 18.5217 14.9843 18.4409 14.9176C18.2838 14.7878 18.2452 14.6385 18.2452 14.3362C18.2452 14.0582 18.3126 13.8707 18.4362 13.6975Z" fill="#000000" class="bmwfcol"/><path d="M12.7949 8.76862H15.0902L11.651 13.4504H13.0837V12.1383H14.9548V16.6634H13.0837V15.2519H9.25677V13.5747L12.7949 8.76862Z" fill="#000000" class="bmwfcol"/><path d="M16 3C13.0728 3 10.5557 3.98011 8.76789 5.76789C6.98011 7.55567 6 10.0728 6 13C6 15.9272 6.98011 18.4443 8.76789 20.2321C8.90929 20.3735 9.05524 20.5098 9.2056 20.641L6.95703 27.9975H10.4102L13.0766 29.6845L15.1017 22.9685C15.3965 22.9894 15.696 23 16 23C16.304 23 16.6035 22.9894 16.8982 22.9685L18.9233 29.6845L21.5898 27.9975H25.0429L22.7944 20.6411C22.9447 20.5099 23.0907 20.3735 23.2321 20.2321C25.0199 18.4443 26 15.9272 26 13C26 10.0728 25.0199 7.55567 23.2321 5.76789C21.4443 3.98011 18.9272 3 16 3ZM8 13C8 10.5272 8.81989 8.54433 10.1821 7.18211C11.5443 5.81989 13.5272 5 16 5C18.4728 5 20.4557 5.81989 21.8179 7.18211C23.1801 8.54433 24 10.5272 24 13C24 15.4728 23.1801 17.4557 21.8179 18.8179C20.4557 20.1801 18.4728 21 16 21C13.5272 21 11.5443 20.1801 10.1821 18.8179C8.81989 17.4557 8 15.4728 8 13ZM20.0783 26.5871L18.8916 22.6517C19.6647 22.4554 20.3918 22.1781 21.0646 21.8241L22.3403 25.9975H21.0102L20.0783 26.5871ZM9.65969 25.9975L10.9353 21.8241C11.6081 22.1781 12.3352 22.4554 13.1083 22.6517L11.9216 26.5871L10.9897 25.9975H9.65969Z" fill="#000000" class="bmwfcol"/><title>seal_48_rg_48</title></svg>