<svg width="48" height="48" viewBox="0 0 32 32" xmlns="http://www.w3.org/2000/svg"><path d="M14 3C10.6941 3 7.91856 4.01722 5.96789 5.96789C4.01722 7.91856 3 10.6941 3 14C3 17.3059 4.01722 20.0814 5.96789 22.0321C7.91856 23.9828 10.6941 25 14 25C16.9049 25 19.4002 24.2146 21.2863 22.7006L27.2929 28.7073L28.7071 27.293L22.7005 21.2864C24.2146 19.4004 25 16.905 25 14C25 10.6941 23.9828 7.91856 22.0321 5.96789C20.0814 4.01722 17.3059 3 14 3ZM5 14C5 11.1059 5.88278 8.88144 7.38211 7.38211C8.88144 5.88278 11.1059 5 14 5C16.8941 5 19.1186 5.88278 20.6179 7.38211C22.1172 8.88144 23 11.1059 23 14C23 16.8941 22.1172 19.1186 20.6179 20.6179C19.1186 22.1172 16.8941 23 14 23C11.1059 23 8.88144 22.1172 7.38211 20.6179C5.88278 19.1186 5 16.8941 5 14Z" fill="#000000" class="bmwfcol"/><title>search_rg_48</title></svg>