<svg width="48" height="48" viewBox="0 0 32 32" xmlns="http://www.w3.org/2000/svg"><path d="M19.3347 19.9205L21.7072 22.293L20.293 23.7072L17.9248 21.3391C17.2452 21.7574 16.424 22 15.5 22C14.2228 22 13.0807 21.5699 12.2554 20.7446C11.4301 19.9193 11 18.7772 11 17.5C11 16.2228 11.4301 15.0807 12.2554 14.2554C13.0807 13.4301 14.2228 13 15.5 13C16.7772 13 17.9193 13.4301 18.7446 14.2554C19.5699 15.0807 20 16.2228 20 17.5C20 18.3855 19.7634 19.2181 19.3347 19.9205ZM13 17.5C13 18.3228 13.2699 18.9307 13.6696 19.3304C14.0693 19.7301 14.6772 20 15.5 20C17.0164 20 18 18.9126 18 17.5C18 16.6772 17.7301 16.0693 17.3304 15.6696C16.9307 15.2699 16.3228 15 15.5 15C14.6772 15 14.0693 15.2699 13.6696 15.6696C13.2699 16.0693 13 16.6772 13 17.5Z" fill="#000000" class="bmwfcol"/><path d="M15.9638 4C15.0633 3.99999 14.2853 3.99999 13.6383 4.04983C12.9834 4.10029 12.3627 4.20705 11.8132 4.47828C10.6211 5.06667 10.1369 6.23313 9.73279 7.74116L9.66343 8H7C5.89709 8 4.91581 8.20564 4.18207 8.71192C3.39603 9.25429 3 10.0706 3 11V25C3 25.9294 3.39603 26.7457 4.18207 27.2881C4.91581 27.7944 5.89709 28 7 28H25C26.1029 28 27.0842 27.7944 27.8179 27.2881C28.604 26.7457 29 25.9294 29 25V11C29 10.0706 28.604 9.25429 27.8179 8.71192C27.0842 8.20564 26.1029 8 25 8H22.3347L22.2654 7.74116C21.8613 6.23313 21.3771 5.06667 20.185 4.47828C19.6354 4.20705 19.0148 4.10029 18.3599 4.04983C17.7129 3.99999 16.8643 3.99999 15.9638 4ZM20.2618 8H11.7363C12.1017 6.72704 12.3908 6.42352 12.6984 6.27172C12.9087 6.16795 13.23 6.08722 13.7919 6.04392C14.3533 6.00067 15.0552 6 15.9991 6C16.943 6 17.6448 6.00067 18.2063 6.04392C18.7682 6.08722 19.0895 6.16795 19.2998 6.27172C19.6073 6.42352 19.8965 6.72704 20.2618 8ZM5 11C5 10.6894 5.10397 10.5057 5.31793 10.3581C5.58419 10.1744 6.10291 10 7 10H25C25.8971 10 26.4158 10.1744 26.6821 10.3581C26.896 10.5057 27 10.6894 27 11V25C27 25.3106 26.896 25.4943 26.6821 25.6419C26.4158 25.8256 25.8971 26 25 26H7C6.10291 26 5.58419 25.8256 5.31793 25.6419C5.10397 25.4943 5 25.3106 5 25V11Z" fill="#000000" class="bmwfcol"/><title>search-job-portal_rg_48</title></svg>