<svg width="48" height="48" viewBox="0 0 32 32" xmlns="http://www.w3.org/2000/svg"><path d="M8.5 4C7.22275 4 6.08067 4.43011 5.25539 5.25539C4.43011 6.08067 4 7.22275 4 8.5C4 9.77725 4.43011 10.9193 5.25539 11.7446C6.08067 12.5699 7.22275 13 8.5 13C9.42401 13 10.2452 12.7574 10.9248 12.3391L13.293 14.7072L14.7072 13.293L12.3347 10.9205C12.7634 10.2181 13 9.38554 13 8.5C13 7.22275 12.5699 6.08067 11.7446 5.25539C10.9193 4.43011 9.77725 4 8.5 4ZM6 8.5C6 7.67725 6.26989 7.06933 6.66961 6.66961C7.06933 6.26989 7.67725 6 8.5 6C9.32275 6 9.93067 6.26989 10.3304 6.66961C10.7301 7.06933 11 7.67725 11 8.5C11 9.91257 10.0164 11 8.5 11C7.67725 11 7.06933 10.7301 6.66961 10.3304C6.26989 9.93067 6 9.32275 6 8.5Z" fill="#000000" class="bmwfcol"/><path d="M29 17C29 15.5887 27.8819 14.5803 26.6899 13.9843C25.438 13.3583 23.7784 13 22 13C20.2216 13 18.5621 13.3583 17.3101 13.9843C16.1181 14.5803 15 15.5887 15 17V18.15C14.8976 18.0916 14.794 18.0363 14.6899 17.9843C13.4379 17.3583 11.7784 17 10 17C8.22156 17 6.56205 17.3583 5.31015 17.9843C4.11805 18.5803 3 19.5887 3 21V25C3 26.4113 4.11805 27.4197 5.31015 28.0157C6.56205 28.6417 8.22156 29 10 29C11.7784 29 13.4379 28.6417 14.6899 28.0157C15.1593 27.781 15.6173 27.4823 16 27.1203C16.3827 27.4823 16.8407 27.781 17.3101 28.0157C18.5621 28.6417 20.2216 29 22 29C23.7784 29 25.438 28.6417 26.6899 28.0157C27.8819 27.4197 29 26.4113 29 25V17ZM18.2046 15.7731C19.1242 15.3133 20.4647 15 22 15C23.5353 15 24.8758 15.3133 25.7954 15.7731C26.7749 16.2628 27 16.7544 27 17C27 17.2456 26.7749 17.7372 25.7954 18.2269C24.8758 18.6867 23.5353 19 22 19C20.4647 19 19.1242 18.6867 18.2046 18.2269C17.2251 17.7372 17 17.2456 17 17C17 16.7544 17.2251 16.2628 18.2046 15.7731ZM27 19.85V21C27 21.2456 26.7749 21.7372 25.7954 22.2269C24.8758 22.6867 23.5353 23 22 23C20.4647 23 19.1242 22.6867 18.2046 22.2269C17.2251 21.7372 17 21.2456 17 21V19.85C17.1024 19.9084 17.206 19.9637 17.3101 20.0157C18.5621 20.6417 20.2216 21 22 21C23.7784 21 25.438 20.6417 26.6899 20.0157C26.794 19.9637 26.8976 19.9084 27 19.85ZM27 23.85V25C27 25.2456 26.7749 25.7372 25.7954 26.2269C24.8758 26.6867 23.5353 27 22 27C20.4647 27 19.1242 26.6867 18.2046 26.2269C17.2251 25.7372 17 25.2456 17 25V23.85C17.1024 23.9084 17.206 23.9637 17.3101 24.0157C18.5621 24.6417 20.2216 25 22 25C23.7784 25 25.438 24.6417 26.6899 24.0157C26.794 23.9637 26.8976 23.9084 27 23.85ZM15 21C15 21.2456 14.7749 21.7372 13.7954 22.2269C12.8758 22.6867 11.5353 23 10 23C8.46473 23 7.12424 22.6867 6.20457 22.2269C5.22509 21.7372 5 21.2456 5 21C5 20.7544 5.22509 20.2628 6.20457 19.7731C7.12424 19.3133 8.46473 19 10 19C11.5353 19 12.8758 19.3133 13.7954 19.7731C14.7749 20.2628 15 20.7544 15 21ZM15 23.85V25C15 25.2456 14.7749 25.7372 13.7954 26.2269C12.8758 26.6867 11.5353 27 10 27C8.46473 27 7.12424 26.6867 6.20457 26.2269C5.22509 25.7372 5 25.2456 5 25V23.85C5.10235 23.9084 5.20597 23.9637 5.31015 24.0157C6.56205 24.6417 8.22156 25 10 25C11.7784 25 13.4379 24.6417 14.6899 24.0157C14.794 23.9637 14.8976 23.9084 15 23.85Z" fill="#000000" class="bmwfcol"/><title>search-offer_rg_48</title></svg>