<svg width="48" height="48" viewBox="0 0 32 32" xmlns="http://www.w3.org/2000/svg"><path d="M15.9389 2.00001C15.3647 1.99989 14.7774 1.99977 14.2625 2.09473C13.6785 2.20246 13.1253 2.44037 12.6577 2.94628C12.222 3.41777 11.9288 4.05038 11.6902 4.80968C11.4633 5.53198 11.2617 6.4513 11.054 7.60802C9.84876 9.32119 9.13266 10.3441 8.71642 11.4527C8.29161 12.584 8.18839 13.7788 8.01629 15.7709L7.99722 15.9915C7.90305 17.0803 7.82948 17.9309 7.79483 18.602C7.75969 19.2827 7.75993 19.8469 7.83953 20.3352C7.93748 20.936 8.15265 21.3787 8.43906 21.7681C8.38378 21.8038 8.3308 21.8388 8.28019 21.8733C7.95865 22.0927 7.648 22.3453 7.41796 22.6903C7.17575 23.0537 7.07976 23.4322 7.03757 23.806C6.99991 24.1397 6.99995 24.5337 7 24.9542L7.00001 25C7.00001 26.0843 7.13484 26.9019 7.56335 27.6732C7.94485 28.3599 8.53454 28.9492 9.21732 29.6316L9.58579 30H22.4142L22.7827 29.6316C23.4655 28.9492 24.0552 28.3599 24.4367 27.6732C24.8652 26.9019 25 26.0843 25 25V24.9542C25.0001 24.5337 25.0001 24.1397 24.9624 23.806C24.9203 23.4322 24.8243 23.0537 24.5821 22.6903C24.352 22.3453 24.0414 22.0927 23.7198 21.8733C23.6693 21.8389 23.6164 21.8039 23.5612 21.7682C23.8455 21.3818 24.0598 20.9426 24.1587 20.3486C24.2395 19.8631 24.241 19.3034 24.207 18.6299C24.173 17.9545 24.0988 17.0966 24.0035 15.9951L23.9842 15.771C23.8122 13.7805 23.709 12.5858 23.285 11.4553C22.8688 10.3454 22.1523 9.32212 20.9459 7.60733C20.7383 6.45093 20.5367 5.53183 20.3098 4.80968C20.0713 4.05038 19.7781 3.41777 19.3423 2.94628C18.8748 2.44037 18.3216 2.20246 17.7375 2.09473C17.2227 1.99977 16.6354 1.99989 16.0611 2.00001H15.9389ZM18.7948 7.00298L13.2065 6.99697C13.3399 6.34383 13.4678 5.82442 13.5983 5.4091C13.8015 4.76216 13.9846 4.45726 14.1265 4.30375C14.2366 4.18467 14.3623 4.11007 14.6253 4.06155C14.9393 4.00364 15.3436 4.00002 16 4.00002C16.6565 4.00002 17.0608 4.00364 17.3747 4.06155C17.6377 4.11007 17.7635 4.18467 17.8736 4.30375C18.0154 4.45726 18.1985 4.76216 18.4018 5.4091C18.5327 5.82569 18.661 6.34702 18.7948 7.00298ZM19.8774 24.5125C20.7385 24.2257 21.4605 23.8034 22.1331 23.2365C22.3182 23.3471 22.4677 23.4402 22.5927 23.5255C22.8337 23.6899 22.898 23.7698 22.918 23.7997L22.9186 23.8007C22.9273 23.8136 22.9553 23.8552 22.9751 24.0303C22.9985 24.2383 23 24.5178 23 25C23 25.9158 22.8848 26.3482 22.6883 26.7019C22.4893 27.0601 22.1765 27.4031 21.5848 28H10.4152C9.82349 27.4031 9.51069 27.0601 9.31166 26.7019C9.11517 26.3482 9.00001 25.9158 9.00001 25C9.00001 24.5178 9.00147 24.2383 9.02495 24.0303C9.04471 23.8552 9.07271 23.8136 9.08138 23.8007L9.08206 23.7997C9.10202 23.7698 9.16636 23.6899 9.40732 23.5255C9.53235 23.4402 9.68196 23.347 9.86721 23.2363C10.5399 23.8034 11.2619 24.2257 12.123 24.5125C13.2085 24.874 14.4564 25 16.0002 25C17.544 25 18.7919 24.874 19.8774 24.5125ZM21.3466 11.9911C21.3697 12.0466 21.3915 12.102 21.4124 12.1576C21.7282 12.9999 21.8153 13.9054 22.0039 16.0862L22.0092 16.1468C22.1066 17.2732 22.1776 18.0954 22.2096 18.7306C22.2419 19.3719 22.23 19.7552 22.1858 20.0202C22.1193 20.4198 22.0039 20.5822 21.2931 21.2929C20.8613 21.7248 20.4473 22.047 20 22.2895V18C20 16.3704 20.006 15.5061 20.2601 14.547C20.4421 13.8604 20.7597 13.0994 21.3466 11.9911ZM18 22.89C17.4408 22.9643 16.787 23 16.0002 23C15.2132 23 14.5593 22.9643 14 22.8899V17.9183C14.0001 16.3855 14.0001 15.2687 13.6731 14.0347C13.3737 12.9046 12.8134 11.7183 11.8345 9.9869C12.034 9.6951 12.2618 9.36852 12.5231 8.99623L19.4826 9.00372C19.7416 9.37274 19.9676 9.6968 20.1657 9.98654C19.1867 11.7181 18.6264 12.9045 18.3269 14.0347C17.9999 15.2687 17.9999 16.3855 18 17.9184V22.89ZM12 18V22.2893C11.5529 22.0468 11.139 21.7246 10.7073 21.2929C9.99436 20.5799 9.87947 20.4182 9.81347 20.0134C9.76959 19.7442 9.75861 19.3552 9.79217 18.7051C9.825 18.0691 9.89599 17.2483 9.99288 16.128L9.9965 16.0862C10.1852 13.9038 10.2723 12.9984 10.5888 12.1557C10.6093 12.1009 10.6309 12.0463 10.6536 11.9915C11.2404 13.0996 11.5579 13.8605 11.7399 14.547C11.994 15.5061 12 16.3704 12 18Z" fill="#000000" class="bmwfcol"/><title>seat-front_rg_48</title></svg>