<svg width="48" height="48" viewBox="0 0 32 32" xmlns="http://www.w3.org/2000/svg"><path d="M24.9296 2C23.5289 2 22.3568 2.20872 21.4977 2.67124C20.5892 3.16037 20.0005 3.9645 20.0005 5V5.04386C20.0004 5.69983 20.0004 6.34442 20.1213 7.01127C20.2099 7.49969 20.3591 7.98317 20.5972 8.50524C20.3149 8.80229 20.0448 9.14442 19.7719 9.53092C19.2451 10.2769 18.6641 11.2529 17.9449 12.5007L17.8546 12.6573C16.7791 14.523 15.9671 15.9315 15.6321 17.1668C15.4496 17.8399 15.3964 18.4927 15.511 19.1711C15.6239 19.8393 15.8907 20.4769 16.2696 21.1326L17.2035 22.7531C16.6167 22.5967 15.8805 22.4004 15.2577 22.2338C10.6693 21.0102 9.18245 21 7.00001 21C6.48293 21 5.9583 21.164 5.56115 21.5612C5.16399 21.9583 5 22.4829 5 23V23.0605C4.99996 24.2115 4.99992 25.2751 5.13631 26.1751C5.2788 27.1154 5.58553 27.9997 6.29288 28.7071C6.93005 29.3443 7.56457 29.6983 8.50509 29.8605C9.31532 30.0002 10.3884 30.0001 11.8842 30H21.7672L25.9873 14.259C26.4746 12.4414 26.7341 11.3898 26.866 10.5336C27 9.66391 27 9.00857 27 8.03495L27.0004 6.86714L25.6971 2H24.9296ZM24.9661 7.00221C23.9499 7.0132 23.0744 7.071 22.2854 7.35993C22.1898 7.10585 22.1294 6.87609 22.0892 6.65434C22.0033 6.18066 22.0005 5.70631 22.0005 5C22.0005 4.84015 22.052 4.64428 22.4458 4.43225C22.7913 4.24623 23.3491 4.08757 24.1693 4.02665L24.9661 7.00221ZM14.7416 24.166C15.3758 24.3357 16.1262 24.5358 16.7178 24.6935L18.5301 25.1758L19.6348 22.9664L18.0018 20.1329C17.6979 19.6069 17.5438 19.1976 17.483 18.8379C17.4239 18.4881 17.4431 18.1301 17.5624 17.6902C17.8217 16.7339 18.4945 15.5524 19.6777 13.4994C20.4006 12.2452 20.9391 11.3452 21.4056 10.6846C21.8711 10.0254 22.2208 9.66966 22.5419 9.45557C23.0593 9.11058 23.6359 9.02501 24.9927 9.00542C24.9819 9.44378 24.9553 9.80106 24.8893 10.229C24.7766 10.9603 24.5468 11.9086 24.0555 13.7411L20.2328 28H12C10.3565 28 9.46392 27.9963 8.8449 27.8896C8.33542 27.8017 8.06994 27.6557 7.70713 27.2929C7.41452 27.0003 7.22125 26.5849 7.11373 25.8755C7.00249 25.1414 7 24.2265 7 23H7.05168C9.04013 22.9999 10.3683 22.9999 14.7416 24.166Z" fill="#000000" class="bmwfcol"/><title>seat-side_rg_48</title></svg>