<svg width="48" height="48" viewBox="0 0 32 32" xmlns="http://www.w3.org/2000/svg"><path d="M23.4972 2.67124C24.3563 2.20872 25.5284 2 26.9291 2H27.6966L28.9999 6.86714L29 8.0347C29 9.00832 29 9.66366 28.866 10.5333C28.7341 11.3895 28.4746 12.4412 27.9873 14.2587L23.7672 29.9998L13.8842 29.9998C12.3884 29.9999 11.3153 29.9999 10.5051 29.8602C9.56457 29.6981 8.93005 29.3441 8.29288 28.7069C7.58553 27.9995 7.2788 27.1152 7.13631 26.1749C6.99993 25.2749 6.99996 24.2112 7 23.0603L7 22.9998C7 22.4827 7.16399 21.9581 7.56115 21.5609C7.9583 21.1638 8.48293 20.9998 9.00001 20.9998C11.1824 20.9998 12.6693 21.01 17.2577 22.2335C17.8805 22.4002 18.6167 22.5965 19.2035 22.7528L18.2696 21.1323C17.8907 20.4766 17.6239 19.839 17.511 19.1709C17.3964 18.4925 17.4496 17.8397 17.6321 17.1665C18.0843 15.4991 19.0907 13.9824 19.9449 12.5004C20.6641 11.2526 21.2451 10.2767 21.7719 9.53068C22.0447 9.14437 22.3146 8.80238 22.5968 8.50542C22.3587 7.98328 22.2094 7.49975 22.1208 7.01127C21.9999 6.34442 21.9999 5.69983 22 5.04386L22 5C22 3.9645 22.5887 3.16037 23.4972 2.67124ZM26.1688 4.02665C25.3486 4.08757 24.7908 4.24623 24.4453 4.43225C24.0515 4.64428 24 4.84015 24 5C24 5.70631 24.0028 6.18066 24.0887 6.65434C24.1289 6.87607 24.1894 7.10582 24.2849 7.35987C25.0739 7.07083 25.9494 7.01298 26.9656 7.00198L26.1688 4.02665ZM20.5301 25.1756L18.7178 24.6932C18.1262 24.5356 17.3758 24.3355 16.7416 24.1658C12.3683 22.9996 11.0401 22.9997 9.05168 22.9998L9 22.9998C9 24.2263 9.00249 25.1411 9.11373 25.8752C9.22125 26.5847 9.41452 27.0001 9.70713 27.2927C10.0699 27.6555 10.3354 27.8015 10.8449 27.8893C11.4639 27.996 12.3565 27.9998 14 27.9998H22.2328L26.0555 13.7408C26.5468 11.9083 26.7766 10.96 26.8893 10.2287C26.9553 9.80081 26.9819 9.44353 26.9927 9.00517C25.6359 9.02476 25.0593 9.11034 24.5419 9.45532C24.2208 9.66941 23.8711 10.0251 23.4056 10.6843C22.9391 11.3449 22.4006 12.245 21.6777 13.4991C20.4945 15.5521 19.8217 16.7337 19.5624 17.69C19.4431 18.1298 19.4239 18.4879 19.483 18.8376C19.5438 19.1974 19.6973 19.6057 20.0012 20.1316L20.0018 20.1326L21.6348 22.9662L20.5301 25.1756Z" fill="#000000" class="bmwfcol"/><path d="M8.6998 10.9998H7.8837C8.02159 11.987 7.83797 12.8578 7.5971 13.6227C7.51306 13.8896 7.42076 14.1477 7.33497 14.3864L7.32203 14.4225C7.23942 14.6523 7.16383 14.8626 7.09697 15.0703C6.95617 15.5076 6.875 15.873 6.875 16.2175C6.875 17.4063 7.33356 18.6149 7.90503 19.5H5.90716C5.43924 18.5156 5.125 17.3719 5.125 16.2175C5.125 15.6054 5.26883 15.0382 5.43116 14.534C5.50738 14.2973 5.59232 14.061 5.6724 13.8382L5.68808 13.7946C5.77455 13.554 5.85569 13.3264 5.9279 13.0971C6.14599 12.4045 6.26859 11.7418 6.10699 10.9998H5.2998V10.2222L6.99954 6.82275L8.6998 10.2233V10.9998Z" fill="#000000" class="bmwfcol"/><path d="M11.8837 10.9998H12.6998V10.2233L10.9995 6.82275L9.2998 10.2222V10.9998H10.107C10.2686 11.7418 10.146 12.4045 9.9279 13.0971C9.85569 13.3264 9.77455 13.554 9.68808 13.7946L9.6724 13.8382C9.59232 14.061 9.50738 14.2973 9.43116 14.534C9.26883 15.0382 9.125 15.6054 9.125 16.2175C9.125 17.3719 9.43924 18.5156 9.90716 19.5H11.905C11.3336 18.6149 10.875 17.4063 10.875 16.2175C10.875 15.873 10.9562 15.5076 11.097 15.0703C11.1638 14.8626 11.2394 14.6523 11.322 14.4225L11.335 14.3864C11.4208 14.1477 11.5131 13.8896 11.5971 13.6227C11.838 12.8578 12.0216 11.987 11.8837 10.9998Z" fill="#000000" class="bmwfcol"/><path d="M16.6998 10.9998H15.8837C16.0216 11.987 15.838 12.8578 15.5971 13.6227C15.5131 13.8896 15.4208 14.1477 15.335 14.3864L15.322 14.4225C15.2394 14.6523 15.1638 14.8626 15.097 15.0703C14.9562 15.5076 14.875 15.873 14.875 16.2175C14.875 17.4063 15.3336 18.6149 15.905 19.5H13.9072C13.4392 18.5156 13.125 17.3719 13.125 16.2175C13.125 15.6054 13.2688 15.0382 13.4312 14.534C13.5074 14.2973 13.5923 14.0611 13.6724 13.8384L13.6881 13.7946C13.7745 13.554 13.8557 13.3264 13.9279 13.0971C14.146 12.4045 14.2686 11.7418 14.107 10.9998H13.2998V10.2222L14.9995 6.82275L16.6998 10.2233V10.9998Z" fill="#000000" class="bmwfcol"/><title>seat-heating_rg_48</title></svg>