<svg width="48" height="48" viewBox="0 0 32 32" xmlns="http://www.w3.org/2000/svg"><path d="M15.2588 6C14.2377 6 13.3516 6.18444 12.6837 6.5783C11.9909 6.98688 11.5 7.65542 11.5 8.5C11.4999 9.00198 11.4998 9.54733 11.607 10.0715C11.6714 10.3864 11.7704 10.6952 11.9121 11.0223C11.2894 11.5948 10.7556 12.4212 10.1336 13.5004C9.34949 14.8609 8.78588 15.9326 8.59372 16.9114C8.37867 18.0068 8.63598 18.9029 9.1895 19.8609L9.39612 20.2194C9.1715 20.1595 8.92085 20.0925 8.64309 20.0182C6.81327 19.5287 5.78592 19.2698 5.02967 19.1377C4.23977 18.9997 3.74068 18.9997 3.01735 18.9997C2.50143 18.9997 1.95862 19.162 1.56045 19.5601C1.16228 19.9583 1.00006 20.4838 1.00006 20.9997L0.999845 21.2067C0.997559 22.6645 0.995606 23.9095 2.04294 24.9568C2.54951 25.4634 3.06555 25.757 3.8015 25.89C4.40977 25.9999 5.18999 25.9998 6.20195 25.9996H13.3057L16.2884 14.874C16.623 13.6259 16.8054 12.9268 16.899 12.4147C17.0001 11.8624 17.0001 11.5138 17.0001 11.0175V9.63679L16.0262 6H15.2588ZM15.0001 10.0052C14.5451 10.0157 14.1134 10.0449 13.7047 10.1248C13.6357 9.95158 13.594 9.80557 13.5664 9.67073C13.5036 9.36357 13.5 9.05937 13.5 8.5C13.5 8.48759 13.5012 8.47773 13.5143 8.45736C13.5306 8.43195 13.5788 8.37236 13.6997 8.30103C13.8622 8.20522 14.1236 8.10836 14.505 8.05129L15.0001 9.89989V10.0052ZM10.3107 22.5314L11.2316 22.7727L12.1349 20.9662L10.9217 18.8612C10.5297 18.1828 10.4613 17.7807 10.5563 17.2967C10.6742 16.6961 11.0558 15.9056 11.8664 14.4991C12.746 12.9729 13.186 12.4754 13.5946 12.2534C13.8908 12.0925 14.2377 12.0322 14.9396 12.0108L14.9317 12.0548C14.856 12.4687 14.6995 13.0772 14.3567 14.3561L11.7713 23.9996H6.30771C5.15592 23.9996 4.56535 23.9956 4.15713 23.9218C3.85556 23.8673 3.70047 23.7859 3.45718 23.5427C3.05404 23.1395 3.00006 22.7766 3.00006 20.9997C3.72119 20.9997 4.07281 21.0009 4.68548 21.1079C5.33808 21.2219 6.27611 21.4553 8.12619 21.9503C8.93464 22.1666 9.51428 22.3206 9.89206 22.4207C10.0809 22.4708 10.2194 22.5073 10.3107 22.5314Z" fill="#000000" class="bmwfcol"/><path d="M31 9.63679L30.0261 6H29.2587C28.2567 6 27.4125 6.17666 26.8125 6.66247C26.158 7.19236 26.0001 7.91337 26.0001 8.5V8.62127C26 9.57312 25.9999 10.2633 26.0932 10.781C26.148 11.0851 26.2345 11.3361 26.3495 11.5591C26.3187 11.6009 26.288 11.6434 26.2574 11.6865C25.928 12.1503 25.5668 12.7486 25.1335 13.5005C24.3277 14.8986 23.7775 15.9844 23.442 17.1336C23.1905 17.9946 23.0688 18.8589 23.0227 19.8781L22.993 19.871C22.5951 19.776 22.0484 19.6491 21.4545 19.522C20.311 19.2773 18.8527 18.9999 18.0001 18.9999C17.4841 18.9999 16.9586 19.1621 16.5605 19.5603C16.1623 19.9585 16.0001 20.484 16.0001 20.9999L15.9998 21.2069C15.9976 22.6646 15.9956 23.9096 17.0429 24.957C17.5106 25.4247 17.9776 25.7292 18.5815 25.8773C19.0836 26.0005 19.6453 26.0001 20.2247 25.9998H27.3056L30.2883 14.8741C30.6229 13.6261 30.8052 12.9269 30.8989 12.4149C31 11.8625 31 11.5139 30.9999 11.0177L31 9.63679ZM29 10.0182C28.6728 10.0408 28.3487 10.0903 28.0319 10.1975C28.0028 9.87246 28.0001 9.37845 28.0001 8.5C28.0001 8.27128 28.0493 8.23357 28.0682 8.21902L28.071 8.21687C28.1137 8.18226 28.2346 8.11035 28.507 8.05882L29 9.89989V10.0182ZM23.1444 21.9667L23.2753 21.9999H24.9999V20.9999C24.9999 19.5451 25.0991 18.5938 25.3618 17.6942C25.6275 16.7842 26.0773 15.8683 26.8663 14.4992C27.2975 13.7511 27.6182 13.2245 27.888 12.8445C28.1585 12.4636 28.3394 12.2864 28.4723 12.193C28.5889 12.1111 28.7023 12.0622 28.9353 12.0342L28.9316 12.055C28.8558 12.4688 28.6994 13.0774 28.3565 14.3562L25.7712 23.9998H20.3075C19.6087 23.9998 19.2963 23.9933 19.0579 23.9349C18.8974 23.8955 18.7394 23.825 18.4572 23.5428C18.054 23.1396 18.0001 22.7767 18.0001 20.9999C18.6012 20.9999 19.8429 21.2225 21.036 21.4778C21.6103 21.6007 22.141 21.7238 22.5285 21.8163C22.7221 21.8625 22.8794 21.901 22.9879 21.9278L23.1125 21.9587L23.1444 21.9667Z" fill="#000000" class="bmwfcol"/><title>seats_rg_48</title></svg>