<svg width="48" height="48" viewBox="0 0 32 32" xmlns="http://www.w3.org/2000/svg"><path d="M27.0005 7V4H25.0005V7L22.0005 7V9H25.0005V12H27.0005V9H30.0005V7L27.0005 7Z" fill="#000000" class="bmwfcol"/><path d="M18.5005 10.5V12H18.0005L18.0005 11.6368L17.0266 8H16.2592C15.2381 8 14.352 8.18444 13.6841 8.5783C12.9913 8.98688 12.5004 9.65542 12.5004 10.5L12.5004 10.5475C12.5003 11.0495 12.5002 11.5473 12.6074 12.0715C12.6718 12.3865 12.7708 12.6953 12.9126 13.0224C12.2898 13.5949 11.756 14.4214 11.134 15.5007C10.3499 16.8612 9.78625 17.9328 9.59408 18.9117C9.37904 20.0071 9.63635 20.9031 10.1899 21.8611L10.3965 22.2196C10.1719 22.1597 9.92122 22.0928 9.64345 22.0185C7.81363 21.5289 6.78629 21.2701 6.03003 21.138C5.24013 21 4.74104 21 4.01769 21H4.00043C3.4845 21 2.95899 21.1622 2.56082 21.5604C2.16265 21.9586 2.00043 22.4841 2.00043 23L2.00021 23.207C1.99792 24.6647 1.99597 25.9097 3.04331 26.9571C3.54988 27.4637 4.06592 27.7572 4.80187 27.8902C5.41012 28.0001 6.19039 28 7.20232 27.9999L14.3061 27.9999L17.2888 16.8742C17.6234 15.6262 17.8057 14.927 17.8994 14.415C17.9271 14.2638 17.9471 14.1279 17.9617 14H18.5005V18H20.5005V10.5H18.5005ZM16.0005 11.8999L16.0005 12.0054C15.5455 12.0159 15.1139 12.0451 14.7052 12.125C14.6362 11.9517 14.5944 11.8056 14.5669 11.6707C14.504 11.3636 14.5004 11.0594 14.5004 10.5C14.5004 10.4876 14.5016 10.4777 14.5147 10.4574C14.5311 10.432 14.5792 10.3724 14.7001 10.301C14.8626 10.2052 15.124 10.1084 15.5055 10.0513L16.0005 11.8999ZM10.8924 24.421C11.3387 24.5392 11.7854 24.656 12.232 24.7729L13.1353 22.9664L11.9221 20.8614L11.9215 20.8604C11.5295 20.1821 11.4616 19.7809 11.5566 19.297C11.6745 18.6963 12.0561 17.9059 12.8668 16.4993C13.7464 14.9732 14.1864 14.4757 14.595 14.2537C14.8912 14.0927 15.2381 14.0325 15.9399 14.011L15.932 14.0551C15.8563 14.4689 15.6999 15.0775 15.357 16.3563L12.7716 25.9999H7.30808C6.15629 25.9999 5.56572 25.9958 5.15749 25.9221C4.85593 25.8676 4.70083 25.7862 4.45755 25.5429C4.05441 25.1397 4.00043 24.7768 4.00043 23C4.72156 23 5.07317 23.0011 5.68585 23.1081C6.33844 23.2222 7.27647 23.4556 9.12656 23.9505C9.935 24.1668 10.5147 24.3209 10.8924 24.421Z" fill="#000000" class="bmwfcol"/><title>seat_accessory_plus_rg_48</title></svg>