<svg width="48" height="48" viewBox="0 0 32 32" xmlns="http://www.w3.org/2000/svg"><path d="M18.9999 2.58594L21.4141 5.00015H23.3027L25.137 6.22303L26.4029 7.4889L26.7806 9H28.0928L27.9774 10.3189C27.7056 13.4256 27.503 15.7411 27.3141 17.5H25.3026C25.4739 15.9327 25.6607 13.845 25.9101 11H6.09089C6.55663 16.313 6.80396 18.9852 7.1404 20.5597C7.31347 21.3697 7.49627 21.813 7.70524 22.1483C7.86901 22.411 8.06644 22.6388 8.36355 22.945C8.93617 21.7922 10.1256 21 11.5 21C12.8962 21 14.1014 21.8175 14.6631 22.9999H20V24.9999H14.9646C14.722 26.6961 13.2633 28 11.5 28C9.73673 28 8.278 26.6961 8.03543 24.9999H7.58633L7.27396 24.6875C6.8077 24.2213 6.36447 23.7781 6.00799 23.2062C5.78469 22.848 5.60586 22.4584 5.45487 22H3V20H5.00542C4.70555 18.1143 4.44947 15.187 4.02308 10.3131L3.9082 9H5.38194L6.05638 7.65112L6.62352 5.38255L8.92805 3.8462L10.8024 4.78339L11.5857 4.00015H14.5857L15.8024 2.78339L17.8024 3.78339L18.9999 2.58594ZM24.5969 8.5114L23.8628 7.77728L22.6971 7.00015H20.5857L18.9999 5.41436L18.1973 6.21691L16.1973 5.21691L15.4141 6.00015H12.4141L11.1973 7.21691L9.07174 6.15411L8.37627 6.61775L7.94341 8.34918L7.61801 9H24.7191L24.5969 8.5114ZM11.5 23C10.6716 23 10 23.6716 10 24.5C10 25.3284 10.6716 26 11.5 26C12.3284 26 13 25.3284 13 24.5C13 23.6716 12.3284 23 11.5 23Z" fill="#000000" class="bmwfcol"/><path d="M22.0346 19.9181C22.6275 19.8017 23.675 19.6172 24.4081 19.6172C25.5689 19.6172 26.1973 19.8133 26.7465 20.2921C27.25 20.7241 27.4631 21.4359 27.4631 22.0248C27.4631 22.5952 27.3506 23.0541 27.1319 23.4799C26.9158 23.9009 26.6001 24.281 26.2098 24.698C25.6767 25.2667 25.1659 25.7613 24.5761 26.3142H27.7391V28.2001H21.7246V26.4283L21.787 26.3691C22.6174 25.5812 24.3051 23.9457 25.0383 23.0449C25.314 22.7055 25.4605 22.4785 25.4605 22.1733C25.4605 21.9615 25.4164 21.8176 25.277 21.7001L25.2745 21.6981C25.1904 21.625 25.0682 21.5736 24.892 21.5424C24.7154 21.5112 24.5021 21.5031 24.2489 21.5031C23.6146 21.5031 22.6596 21.6891 22.1117 21.7965L21.8732 21.8433V19.9498L22.0346 19.9181Z" fill="#000000" class="bmwfcol"/><title>secondary_raw_materials_rg_48</title></svg>