<svg width="48" height="48" viewBox="0 0 32 32" xmlns="http://www.w3.org/2000/svg"><path d="M15 24H9V22H15V24Z" fill="#000000" class="bmwfcol"/><path d="M15 14H9V20H15V14ZM11 18V16H13V18H11Z" fill="#000000" class="bmwfcol"/><path d="M8 2C7.48408 2 6.95856 2.16222 6.56039 2.56039C6.16222 2.95856 6 3.48408 6 4V8C6 8.51592 6.16222 9.04144 6.56039 9.43961C6.95856 9.83778 7.48408 10 8 10H11V11H7.58627C7.10585 11.4804 6.53881 11.9373 6.23105 12.5528C5.99696 13.021 5.99874 13.5003 6.00025 13.9057L6.00048 30H18.0005L18.0007 13.9057C18.0022 13.5003 18.004 13.021 17.7699 12.5528C17.4622 11.9373 16.8951 11.4804 16.4147 11H13V10H16C16.5159 10 17.0414 9.83778 17.4396 9.43961C17.8378 9.04144 18 8.51592 18 8V4C18 3.48408 17.8378 2.95856 17.4396 2.56039C17.0414 2.16222 16.5159 2 16 2H8ZM8 4H16V8H8V4ZM8.41603 13H15.5849C15.7072 13.1241 15.9712 13.3193 15.9898 13.5058C15.9994 13.6012 16.0005 13.7315 16.0005 14V28H8.00048V14C8.00048 13.7315 8.0016 13.6012 8.01114 13.5058C8.02979 13.3193 8.29373 13.1242 8.41603 13Z" fill="#000000" class="bmwfcol"/><path d="M25 19.5C24.1716 19.5 23.5 20.1716 23.5 21C23.5 21.8284 24.1716 22.5 25 22.5C25.8284 22.5 26.5 21.8284 26.5 21C26.5 20.1716 25.8284 19.5 25 19.5Z" fill="#000000" class="bmwfcol"/><path d="M28 8.58569L25 5.58569L22 8.58569V9.91412L22.8358 10.7499L22 11.5857V12.9141L22.8358 13.7499L22 14.5857V15.8843C20.7166 16.7779 20 18.2605 20 19.9999C20 21.4272 20.4801 22.6942 21.3929 23.607C22.3057 24.5198 23.5728 24.9999 25 24.9999C26.4272 24.9999 27.6943 24.5198 28.6071 23.607C29.5199 22.6942 30 21.4272 30 19.9999C30 18.2605 29.2834 16.7779 28 15.8843V8.58569ZM25 10.0857L24.1642 9.24991L25 8.41412L26 9.41412V17.0616L26.5461 17.3398C27.4161 17.7829 28 18.6801 28 19.9999C28 20.9727 27.6801 21.7056 27.1929 22.1928C26.7057 22.68 25.9728 22.9999 25 22.9999C24.0272 22.9999 23.2943 22.68 22.8071 22.1928C22.3199 21.7056 22 20.9727 22 19.9999C22 18.6801 22.5839 17.7829 23.4539 17.3398L24 17.0616V15.4141L25 14.4141V13.0857L24.1642 12.2499L25 11.4141V10.0857Z" fill="#000000" class="bmwfcol"/><title>self-service-kiosk_rg_48</title></svg>