<svg width="48" height="48" viewBox="0 0 32 32" xmlns="http://www.w3.org/2000/svg"><path d="M10.9799 4.73039C12.312 3.39827 14.1288 3 15.9995 3C17.8702 3 19.687 3.39827 21.0191 4.73039C22.348 6.05931 22.9995 8.12234 22.9995 11C22.9995 13.8777 22.348 15.9407 21.0191 17.2696C19.687 18.6017 17.8702 19 15.9995 19C14.1288 19 12.312 18.6017 10.9799 17.2696C9.651 15.9407 8.99952 13.8777 8.99952 11C8.99952 8.12234 9.651 6.05931 10.9799 4.73039ZM12.3941 6.14461C11.598 6.94069 10.9995 8.37766 10.9995 11C10.9995 13.6223 11.598 15.0593 12.3941 15.8554C13.187 16.6483 14.3702 17 15.9995 17C17.6288 17 18.812 16.6483 19.6049 15.8554C20.401 15.0593 20.9995 13.6223 20.9995 11C20.9995 8.37766 20.401 6.94069 19.6049 6.14461C18.812 5.35173 17.6288 5 15.9995 5C14.3702 5 13.187 5.35173 12.3941 6.14461Z" fill="#000000" class="bmwfcol"/><path d="M26.5681 28C25.7977 25.2052 25.1202 24.1853 23.9713 23.6592C23.3176 23.36 22.3224 23.1755 20.9995 23.0844V21.0806C21.0812 21.0854 21.162 21.0906 21.2417 21.0961C22.6408 21.1925 23.8194 21.39 24.8038 21.8408C26.8964 22.7988 27.7655 24.7327 28.5704 27.7416L28.6395 28H26.5681Z" fill="#000000" class="bmwfcol"/><path d="M5.43073 28H3.35938L3.4285 27.7416C4.23335 24.7327 5.10248 22.7988 7.19504 21.8408C7.45002 21.724 7.71801 21.6243 7.99948 21.5389V23.6723C6.86758 24.2021 6.19487 25.2281 5.43073 28Z" fill="#000000" class="bmwfcol"/><path d="M7.99952 10H4.99952V11C4.99952 14.0563 5.35034 16.2419 6.56505 18.0878C7.7583 19.9011 9.70177 21.2508 12.4995 22.866L12.7316 23H17.9995V21H13.2685C10.6134 19.4533 9.11784 18.3288 8.23576 16.9884C7.45535 15.8025 7.09054 14.3432 7.01473 12H7.99952V10Z" fill="#000000" class="bmwfcol"/><title>services_rg_48</title></svg>