<svg width="48" height="48" viewBox="0 0 32 32" xmlns="http://www.w3.org/2000/svg"><path d="M17.0859 2H27.0001V3.85692L28.4843 3L30.0001 3V10H28.4843L27.0001 9.14308V12H17.0859L16.793 11.7071C16.0197 10.9338 15.5033 10.297 15.2389 9.50373C14.9992 8.78468 14.9996 8.01019 15 7.11629V6.88371C14.9996 5.98981 14.9992 5.21532 15.2389 4.49627C15.5033 3.70298 16.0197 3.06621 16.793 2.2929L17.0859 2ZM27.0001 7H27.2882L28.0001 7.41103V5.58897L27.2882 6H27.0001V7ZM17.9223 4C17.4156 4.53797 17.2309 4.84489 17.1363 5.12873C17.0113 5.50368 17.0001 5.9433 17.0001 7C17.0001 8.0567 17.0113 8.49632 17.1363 8.87127C17.2309 9.15511 17.4156 9.46203 17.9223 10H25.0001V4H17.9223Z" fill="#000000" class="bmwfcol"/><path d="M4.00004 12.2241V14.303C4.6977 14.5103 5.14425 14.6961 5.72781 15.0674C6.37498 15.4792 7.17018 16.1078 8.50603 17.2175C6.75456 17.3794 5.62895 17.5097 4.76518 17.7017C3.38894 18.0076 2.20612 18.7264 1.00027 19.4226L1 24.2706C1.93052 24.52 2.86097 24.8269 3.81799 24.9596C4.37127 26.1638 5.588 27 7.00004 27C8.39624 27 9.6015 26.1824 10.1632 25H13V30H15V25H17V30H19V25H20.8369C21.3986 26.1824 22.6038 27 24 27C25.3981 27 26.6048 26.1802 27.1655 24.9951C28.5865 24.9601 29.8034 24.2683 31.0003 23.5773L31 20.5857C30.5354 20.1211 30 19.6995 30 18.9999L29.9999 17.0836L27.5411 16.8685C26.2382 16.1138 24.935 15.3253 23.5269 14.779C22.0372 14.2011 20.4772 14.0001 18.8866 14C17.2361 13.9997 15.9815 13.9996 14.7097 14.4271C13.5663 14.8115 12.4683 15.5169 11.0055 16.6995C8.93078 14.9595 7.75151 13.9846 6.80151 13.3801C5.83269 12.7636 5.08058 12.5189 4.00004 12.2241ZM27.4615 22.979C27.21 21.2931 25.756 20 24 20C22.2368 20 20.7781 21.3038 20.5355 23H10.4646C10.222 21.3038 8.76328 20 7.00004 20C5.28171 20 3.8526 21.2383 3.55638 22.8712C3.40574 22.8358 3.22407 22.7907 3.00009 22.7329L3.00021 20.5787C3.89751 20.0682 4.38084 19.8359 5.19911 19.6541C7.21884 19.2052 9.34668 19.1483 11.4015 18.9687C12.5943 17.9678 13.8445 16.8279 15.347 16.3229C16.2773 16.0101 17.2068 16 19 16C20.5964 16 21.7104 16.2195 22.8035 16.6436C24.2524 17.2058 25.583 18.046 26.9239 18.8221L28 18.9163C28 19.9008 28.343 20.6704 29.0001 21.3994L29.0002 22.4164C28.5135 22.6835 28.0215 22.9346 27.4615 22.979ZM7.00004 22C7.82847 22 8.50004 22.6715 8.50004 23.5C8.50004 24.3284 7.82847 25 7.00004 25C6.17162 25 5.50004 24.3284 5.50004 23.5C5.50004 22.6715 6.17162 22 7.00004 22ZM22.5 23.5C22.5 22.6715 23.1716 22 24 22C24.8285 22 25.5 22.6715 25.5 23.5C25.5 24.3284 24.8285 25 24 25C23.1716 25 22.5 24.3284 22.5 23.5Z" fill="#000000" class="bmwfcol"/><title>service-video-consultation_rg_48</title></svg>