<svg width="48" height="48" viewBox="0 0 32 32" xmlns="http://www.w3.org/2000/svg"><path d="M7.12417 15.4624L6.25254 16.3337C6.4261 17.084 6.6872 17.7697 7.02982 18.3846L9.32705 16.0882C9.1492 15.3975 8.9993 14.7194 8.9993 14C8.9993 12.4272 9.51918 11.1943 10.3564 10.3571C11.4646 9.24895 13.0964 8.8869 14.619 9.02813L12.0054 10.5371C11.1711 11.0146 10.6899 11.8088 10.6072 12.7406C10.5282 13.6311 10.8138 14.5829 11.3432 15.5C11.8727 16.4172 12.5578 17.1476 13.3671 17.5372C14.2118 17.9439 15.1547 17.9534 16.0045 17.4615L18.7051 15.9023C18.4509 16.6553 18.0422 17.2785 17.5201 17.7602C16.6887 18.5271 15.4988 19 13.9993 19C13.2803 19 12.6025 18.8503 11.9122 18.6726L9.61456 20.9697C10.2295 21.3125 10.9151 21.5737 11.6655 21.7473L12.5378 20.8753C13.0069 20.9581 13.4953 21 13.9993 21C15.9304 21 17.6263 20.3832 18.8761 19.2303C20.5372 17.698 20.9126 15.6393 21.0496 13.5001H18.866L15.0027 15.7305C14.7742 15.8628 14.535 15.8798 14.2346 15.7352C13.8988 15.5735 13.4759 15.1939 13.0753 14.5001C12.6747 13.8062 12.5683 13.268 12.5994 12.9173C12.6268 12.6087 12.757 12.4111 12.9996 12.2724L17.9993 9.38589V8.06031C16.7299 7.41376 15.445 7 13.9993 7C11.972 7 10.205 7.68011 8.94219 8.94289C7.67941 10.2057 6.9993 11.9728 6.9993 14C6.9993 14.5043 7.04123 14.9929 7.12417 15.4624Z" fill="#000000" class="bmwfcol"/><path d="M5.96789 5.96789C7.91856 4.01722 10.6941 3 14 3C17.3059 3 20.0814 4.01722 22.0321 5.96789C23.9828 7.91856 25 10.6941 25 14C25 16.9049 24.2146 19.4003 22.7006 21.2863L28.7072 27.2929L27.293 28.7072L21.2864 22.7006C19.4003 24.2146 16.9049 25 14 25C10.6941 25 7.91856 23.9828 5.96789 22.0321C4.01722 20.0814 3 17.3059 3 14C3 10.6941 4.01722 7.91856 5.96789 5.96789ZM7.38211 7.38211C5.88278 8.88144 5 11.1059 5 14C5 16.8941 5.88278 19.1186 7.38211 20.6179C8.88144 22.1172 11.1059 23 14 23C16.8941 23 19.1186 22.1172 20.6179 20.6179C22.1172 19.1186 23 16.8941 23 14C23 11.1059 22.1172 8.88144 20.6179 7.38211C19.1186 5.88278 16.8941 5 14 5C11.1059 5 8.88144 5.88278 7.38211 7.38211Z" fill="#000000" class="bmwfcol"/><title>service-finder_rg_48</title></svg>