<svg width="48" height="48" viewBox="0 0 32 32" xmlns="http://www.w3.org/2000/svg"><path d="M4 6.30297V4.22412C5.08053 4.51883 5.83265 4.76356 6.80147 5.38004C7.75147 5.98454 8.93076 6.95945 11.0055 8.69951C12.4683 7.51697 13.5663 6.81152 14.7097 6.42714C15.9815 5.99962 17.2361 5.99979 18.8866 6.00001C20.4772 6.00015 22.0372 6.2011 23.5269 6.77906C24.935 7.32539 26.2382 8.11381 27.5411 8.86853L29.9999 9.08365L30 11C30 11.6995 30.5354 12.1211 31 12.5858L31.0003 15.5773C29.8034 16.2684 28.5865 16.9601 27.1655 16.9952C26.6047 18.1803 25.3981 19 24 19C22.6038 19 21.3986 18.1825 20.8368 17H19V26H2V24H13V17H10.1632C9.60144 18.1825 8.39619 19 7 19C5.58797 19 4.37123 18.1638 3.81795 16.9596C2.86095 16.827 1.93051 16.52 1 16.2707L1.00027 11.4226C2.20612 10.7264 3.38894 10.0076 4.76518 9.70177C5.62895 9.50979 6.75457 9.37943 8.50607 9.21755C7.17017 8.10785 6.37495 7.47921 5.72777 7.06739C5.1442 6.69606 4.69766 6.51024 4 6.30297ZM27.4615 14.9791C28.0215 14.9347 28.5135 14.6836 29.0002 14.4165L29.0001 13.3995C28.343 12.6705 28 11.9009 28 10.9163L26.9239 10.8222C25.583 10.0461 24.2524 9.20583 22.8035 8.64364C21.7104 8.21955 20.5964 8.00002 19 8.00002C17.2068 8.00002 16.2773 8.01015 15.347 8.3229C13.8445 8.82797 12.5943 9.96786 11.4015 10.9688C9.34668 11.1484 7.21884 11.2052 5.19911 11.6541C4.38084 11.836 3.89751 12.0682 3.00021 12.5788L3.00009 14.733C3.22405 14.7907 3.40571 14.8358 3.55633 14.8712C3.85255 13.2383 5.28167 12 7 12C8.76324 12 10.222 13.3039 10.4646 15H20.5354C20.778 13.3039 22.2368 12 24 12C25.756 12 27.2099 13.2931 27.4615 14.9791ZM17 17H15V24H17V17ZM5.5 15.5C5.5 16.3284 6.17157 17 7 17C7.82843 17 8.5 16.3284 8.5 15.5C8.5 14.6716 7.82843 14 7 14C6.17157 14 5.5 14.6716 5.5 15.5ZM24 14C23.1716 14 22.5 14.6716 22.5 15.5C22.5 16.3284 23.1716 17 24 17C24.8284 17 25.5 16.3284 25.5 15.5C25.5 14.6716 24.8284 14 24 14Z" fill="#000000" class="bmwfcol"/><path d="M24.0001 28.4143L30.7072 21.7072L29.293 20.293L24.0001 25.5859L21.7072 23.293L20.293 24.7072L24.0001 28.4143Z" fill="#000000" class="bmwfcol"/><title>service-inclusive_rg_48</title></svg>