<svg width="48" height="48" viewBox="0 0 32 32" xmlns="http://www.w3.org/2000/svg"><path d="M13.3235 2.25684L15.2343 4.53157C15.7434 4.49798 16.2541 4.49797 16.7632 4.53156L18.6724 2.25745L19.2736 2.40132C20.694 2.74125 22.052 3.30264 23.2977 4.06486L23.8261 4.38813L23.5666 7.34923C23.9508 7.68562 24.3122 8.04708 24.6486 8.43125L27.607 8.17283L27.9303 8.70013C28.6936 9.94498 29.2565 11.3021 29.5981 12.7219L29.7429 13.3235L27.4682 15.2343C27.5018 15.7434 27.5018 16.2541 27.4682 16.7632L29.7423 18.6724L29.5984 19.2736C29.2585 20.694 28.6971 22.052 27.9349 23.2977L27.6116 23.8261L24.6505 23.5666C24.3141 23.9508 23.9527 24.3122 23.5685 24.6486L23.8269 27.607L23.2996 27.9303C22.0547 28.6937 20.6975 29.2565 19.2778 29.5981L18.6761 29.7429L16.7654 27.4682C16.2563 27.5018 15.7456 27.5018 15.2365 27.4682L13.3273 29.7423L12.7261 29.5984C11.3058 29.2585 9.94773 28.6971 8.70193 27.9349L8.17357 27.6116L8.43312 24.6505C8.04896 24.3141 7.68748 23.9527 7.35108 23.5685L4.39266 23.8269L4.06934 23.2996C3.306 22.0547 2.74324 20.6975 2.40161 19.2778L2.25684 18.6761L4.53157 16.7654C4.49798 16.2563 4.49798 15.7456 4.53156 15.2365L2.25745 13.3273L2.40132 12.7261C2.74125 11.3058 3.30263 9.94772 4.06486 8.70193L4.38814 8.17357L7.34924 8.43312C7.68562 8.04896 8.04708 7.68748 8.43125 7.35107L8.17283 4.39266L8.70013 4.06933C9.945 3.30601 11.3021 2.74324 12.7219 2.40161L13.3235 2.25684ZM19.398 4.50366L17.6146 6.62795L17.0813 6.56751C16.362 6.48599 15.6358 6.48599 14.9165 6.56751L14.3833 6.62793L12.5994 4.50428C11.7926 4.74276 11.0132 5.06594 10.2744 5.46842L10.5158 8.23199L10.0954 8.56642C9.52881 9.01713 9.01522 9.53077 8.56447 10.0974L8.22992 10.518L5.46507 10.2756C5.0634 11.0149 4.74113 11.7946 4.50366 12.6017L6.62796 14.3851L6.56751 14.9185C6.486 15.6378 6.486 16.364 6.56751 17.0833L6.62794 17.6165L4.50428 19.4003C4.74276 20.2071 5.06594 20.9865 5.46843 21.7253L8.23199 21.4839L8.56643 21.9043C9.01713 22.4709 9.53077 22.9845 10.0974 23.4353L10.518 23.7698L10.2756 26.5347C11.0149 26.9363 11.7946 27.2586 12.6017 27.4961L14.3851 25.3718L14.9185 25.4322C15.6378 25.5137 16.364 25.5137 17.0833 25.4322L17.6165 25.3718L19.4003 27.4954C20.2071 27.257 20.9865 26.9338 21.7253 26.5312L21.4839 23.7677L21.9043 23.4332C22.471 22.9825 22.9845 22.4689 23.4353 21.9023L23.7698 21.4818L26.5347 21.7241C26.9363 20.9848 27.2586 20.2051 27.4961 19.398L25.3718 17.6146L25.4322 17.0813C25.5137 16.362 25.5137 15.6358 25.4322 14.9165L25.3718 14.3833L27.4955 12.5994C27.257 11.7926 26.9338 11.0132 26.5313 10.2744L23.7677 10.5158L23.4332 10.0954C22.9825 9.52878 22.4689 9.0152 21.9023 8.56447L21.4818 8.22992L21.7241 5.46507C20.9848 5.0634 20.2051 4.74112 19.398 4.50366Z" fill="#000000" class="bmwfcol"/><path d="M15.9989 10.9989C13.2374 10.9989 10.9989 13.2374 10.9989 15.9989C10.9989 18.7603 13.2374 20.9989 15.9989 20.9989C18.7603 20.9989 20.9989 18.7603 20.9989 15.9989C20.9989 13.2374 18.7603 10.9989 15.9989 10.9989ZM8.99886 15.9989C8.99886 12.1329 12.1329 8.99886 15.9989 8.99886C19.8649 8.99886 22.9989 12.1329 22.9989 15.9989C22.9989 19.8649 19.8649 22.9989 15.9989 22.9989C12.1329 22.9989 8.99886 19.8649 8.99886 15.9989Z" fill="#000000" class="bmwfcol"/><title>settings_rg_48</title></svg>