<svg width="48" height="48" viewBox="0 0 32 32" xmlns="http://www.w3.org/2000/svg"><path d="M25.586 14L19.586 20H22.4144L29.4143 13.0002L22.4141 6H19.5857L25.5857 12H21C17.1727 12 13.9056 13.2801 11.5929 15.5929C9.69425 17.4915 8.49157 20.0332 8.1217 23H10.1393C10.4936 20.5378 11.5084 18.5058 13.0071 17.0071C14.8943 15.1199 17.6272 14 21 14H25.586Z" fill="#000000" class="bmwfcol"/><path d="M24 28H7C5.89709 28 4.91581 27.7944 4.18208 27.2881C3.39603 26.7457 3 25.9294 3 25V9H5V25C5 25.3106 5.10397 25.4943 5.31792 25.6419C5.58419 25.8256 6.10291 26 7 26H24V28Z" fill="#000000" class="bmwfcol"/><title>share_rg_48</title></svg>