<svg width="48" height="48" viewBox="0 0 32 32" xmlns="http://www.w3.org/2000/svg"><path d="M18.3929 4.39289C19.3057 3.48011 20.5728 3 22 3C23.4272 3 24.6943 3.48011 25.6071 4.39289C26.5199 5.30567 27 6.57275 27 8C27 10.7296 24.9836 13 22 13C20.5728 13 19.3057 12.5199 18.3929 11.6071C18.2979 11.5121 18.2076 11.4133 18.1221 11.3109L12.7783 14.3961C12.9251 14.8978 13 15.4364 13 16C13 16.5558 12.9164 17.0926 12.758 17.5951L18.1204 20.6911C18.2065 20.588 18.2973 20.4885 18.3929 20.3929C19.3057 19.4801 20.5728 19 22 19C23.4272 19 24.6943 19.4801 25.6071 20.3929C26.5199 21.3057 27 22.5728 27 24C27 26.7296 24.9836 29 22 29C20.5728 29 19.3057 28.5199 18.3929 27.6071C17.4801 26.6943 17 25.4272 17 24C17 23.4638 17.0678 22.9502 17.2008 22.4695L11.7847 19.3426C10.9029 20.3564 9.58853 21 8 21C6.57275 21 5.30567 20.5199 4.39289 19.6071C3.48011 18.6943 3 17.4272 3 16C3 14.5728 3.48011 13.3057 4.39289 12.3929C5.30567 11.4801 6.57275 11 8 11C9.42725 11 10.6943 11.4801 11.6071 12.3929C11.6848 12.4706 11.7594 12.5509 11.8309 12.6337L17.2015 9.53298C17.068 9.05157 17 8.53713 17 8C17 6.57275 17.4801 5.30567 18.3929 4.39289ZM19.8071 5.80711C19.3199 6.29433 19 7.02725 19 8C19 8.97275 19.3199 9.70567 19.8071 10.1929C20.2943 10.6801 21.0272 11 22 11C23.8164 11 25 9.68871 25 8C25 7.02725 24.6801 6.29433 24.1929 5.80711C23.7057 5.31989 22.9728 5 22 5C21.0272 5 20.2943 5.31989 19.8071 5.80711ZM5.80711 13.8071C5.31989 14.2943 5 15.0272 5 16C5 16.9728 5.31989 17.7057 5.80711 18.1929C6.29433 18.6801 7.02725 19 8 19C9.81639 19 11 17.6887 11 16C11 15.0272 10.6801 14.2943 10.1929 13.8071C9.70567 13.3199 8.97275 13 8 13C7.02725 13 6.29433 13.3199 5.80711 13.8071ZM19 24C19 24.9728 19.3199 25.7057 19.8071 26.1929C20.2943 26.6801 21.0272 27 22 27C23.8164 27 25 25.6887 25 24C25 23.0272 24.6801 22.2943 24.1929 21.8071C23.7057 21.3199 22.9728 21 22 21C21.0272 21 20.2943 21.3199 19.8071 21.8071C19.3199 22.2943 19 23.0272 19 24Z" fill="#000000" class="bmwfcol"/><title>share-social_rg_48</title></svg>