<svg width="48" height="48" viewBox="0 0 32 32" xmlns="http://www.w3.org/2000/svg"><path d="M15.9996 2.69238L11 7.69194V10.3082L15 6.30823L15 20H17L17 6.30912L21 10.3091V7.69283L15.9996 2.69238Z" fill="#000000" class="bmwfcol"/><path d="M11 12H13V14H11C9.97573 14 9.5684 14.1958 9.38211 14.3821C9.19581 14.5684 9 14.9757 9 16V24C9 25.0243 9.19581 25.4316 9.38211 25.6179C9.5684 25.8042 9.97573 26 11 26H21C22.0243 26 22.4316 25.8042 22.6179 25.6179C22.8042 25.4316 23 25.0243 23 24L23 16C23 14.9757 22.8042 14.5684 22.6179 14.3821C22.4316 14.1958 22.0243 14 21 14H19V12H21C22.1757 12 23.2684 12.2042 24.0321 12.9679C24.7958 13.7316 25 14.8243 25 16L25 24C25 25.1757 24.7958 26.2684 24.0321 27.0321C23.2684 27.7958 22.1757 28 21 28H11C9.82427 28 8.7316 27.7958 7.96789 27.0321C7.20419 26.2684 7 25.1757 7 24V16C7 14.8243 7.20419 13.7316 7.96789 12.9679C8.7316 12.2042 9.82427 12 11 12Z" fill="#000000" class="bmwfcol"/><title>share_ios_rg_48</title></svg>