<svg width="48" height="48" viewBox="0 0 32 32" xmlns="http://www.w3.org/2000/svg"><path d="M8.5 3.97448L16 1.96484L23.5 3.97448V8.8782C23.5 10.658 23.1779 12.3519 22.1228 13.9981C21.689 14.675 21.141 15.3285 20.4622 15.9686C20.3988 16.0136 20.3352 16.0593 20.2712 16.1055H19.2039C19.1358 16.1021 19.0679 16.1005 19.0004 16.1005L17.0507 16.1005C18.7319 14.9883 19.7836 13.9416 20.439 12.9189C21.2312 11.683 21.5 10.3957 21.5 8.8782V5.50913L16 4.0354L10.5 5.50913V8.8782C10.5 10.3957 10.7688 11.683 11.561 12.9189C12.2164 13.9416 13.2681 14.9883 14.9493 16.1005L14.3824 16.1005L10.7198 15.1191C10.4009 14.7516 10.121 14.3786 9.87715 13.9981C8.82206 12.3519 8.5 10.658 8.5 8.8782V3.97448Z" fill="#000000" class="bmwfcol"/><path d="M12.3135 5.96973H13.933V12.4997H12.3135V5.96973Z" fill="#000000" class="bmwfcol"/><path d="M15.5163 5.96973H18.3504C19.0778 5.96973 19.6175 6.12263 20.0349 6.53079C20.4517 6.93836 20.6235 7.52659 20.6235 8.14532C20.6235 8.7849 20.4534 9.41147 19.9888 9.82998C19.5555 10.2261 18.9945 10.3525 18.367 10.3776C18.0452 10.3922 17.6407 10.3939 17.1358 10.3941V12.4997H15.5163V5.96973ZM17.1358 7.51606V8.8477C17.5474 8.84743 17.9238 8.84549 18.2275 8.83169C18.582 8.81558 18.7417 8.76678 18.8468 8.66698C18.9458 8.57287 18.9878 8.42822 18.9878 8.15345C18.9878 7.87085 18.9411 7.73733 18.8388 7.64011C18.756 7.56202 18.6055 7.51606 18.2203 7.51606H17.1358Z" fill="#000000" class="bmwfcol"/><path d="M28.3684 15.4036C28.9704 15.6304 29.3997 15.9857 29.7074 16.2933L30.4147 17.0004L21.5891 25.8261C20.7036 26.7129 20.044 27.3734 19.0665 27.6992C18.5666 27.8658 18.0256 27.9348 17.3965 27.9679C16.7764 28.0005 16.0045 28.0005 15.0289 28.0005H11.4144L9.41436 30.0005H7.58594L1.58594 24.0005L6.30681 19.2796C6.79521 18.7912 7.18005 18.4064 7.49357 18.1135C7.80632 17.8214 8.09329 17.5771 8.38671 17.3976C9.03833 16.9988 9.61222 16.9996 10.1896 17.0004L10.4 17.0005L14.1321 18.0005L19.0002 18.0005C19.4743 18.0005 19.9403 18.1462 20.3113 18.4575C22.8562 16.4497 24.7373 15.5144 26.1993 15.2532C27.0435 15.1024 27.7594 15.1742 28.3684 15.4036ZM19.0001 20.0005L13.8688 20.0005L10.1379 19.0008C9.5985 19.0036 9.55695 19.0262 9.43065 19.1035C9.31554 19.1739 9.14825 19.3047 8.85887 19.575C8.57319 19.8419 8.21232 20.2026 7.70726 20.7076L4.41436 24.0005L8.41436 28.0005H8.58594L10.5859 26.0005H15.0002C16.0109 26.0005 16.73 26.0002 17.2914 25.9706C17.8499 25.9413 18.1839 25.8852 18.4341 25.8018C18.9136 25.642 19.2397 25.347 20.2933 24.2934L27.3861 17.2006C27.1749 17.1642 26.9036 17.159 26.5511 17.222C25.4854 17.4125 23.7543 18.2115 21.0003 20.4703L21.0001 21.4148L20.7073 21.7076C19.6534 22.7615 18.7738 23.3801 17.8165 23.6992C16.9111 24.001 16.0168 24.0008 15.0818 24.0005L11.0002 24.0005V22.0005H15.0004C16.0358 22.0005 16.6158 21.9913 17.184 21.8018C17.6686 21.6403 18.2151 21.3189 19.0002 20.5782L19.0001 20.0005Z" fill="#000000" class="bmwfcol"/><title>shield_with_ip_on_hand_rg_48</title></svg>