<svg width="48" height="48" viewBox="0 0 32 32" xmlns="http://www.w3.org/2000/svg"><path d="M9.00608 17.1992C8.86344 17.1971 8.71136 17.1879 8.49059 17.1473C8.24602 17.1022 7.9104 17.0177 7.36045 16.8703L6.67482 16.6866L6.675 12.9907L7.17802 12.7003C7.89412 12.2868 8.37412 12.0096 9.18843 11.8286C9.90079 11.6703 10.8909 11.5807 12.6312 11.4285C13.6005 10.6307 14.3363 10.1372 15.1221 9.87302C15.9364 9.59927 16.7381 9.5995 17.7056 9.59978L17.7998 9.5998C18.9223 9.5998 19.7806 9.75833 20.6335 10.0892C21.3979 10.3858 22.1441 10.8181 23.0234 11.3276L23.0249 11.3284L24.7248 11.4772L24.7249 12.9248C24.7249 13.0512 24.729 13.0593 24.7325 13.0662L24.7337 13.0688C24.7449 13.0968 24.8023 13.2191 25.0539 13.4707L25.3248 13.7416L25.325 16.2088L24.8625 16.4759C24.3468 16.7736 23.9491 16.9844 23.5283 17.0946C23.2456 17.1687 22.9732 17.1907 22.6948 17.1972C22.2741 17.9167 21.4934 18.4 20.5999 18.4C19.7073 18.4 18.9275 17.9178 18.5064 17.1998H13.1933C12.7722 17.9178 11.9924 18.4 11.0999 18.4C10.2071 18.4 9.42702 17.9176 9.00608 17.1992ZM10.5249 15.975C10.5249 16.2926 10.7823 16.55 11.0999 16.55C11.4174 16.55 11.6749 16.2926 11.6749 15.975C11.6749 15.6574 11.4174 15.4 11.0999 15.4C10.7823 15.4 10.5249 15.6574 10.5249 15.975ZM8.76544 15.3161C9.05251 14.297 9.98895 13.55 11.0999 13.55C12.223 13.55 13.1678 14.3135 13.4435 15.3498H18.2562C18.5319 14.3135 19.4767 13.55 20.5999 13.55C21.7155 13.55 22.6552 14.3034 22.9379 15.3292C22.9824 15.323 23.0209 15.3151 23.0596 15.305C23.1554 15.2799 23.2712 15.2352 23.4749 15.1298L23.4749 14.4866C23.2682 14.2431 23.1155 14.0044 23.016 13.7558C22.9268 13.5329 22.8939 13.3319 22.8818 13.173L22.4539 13.1356L22.1608 12.9659C21.2171 12.4197 20.5902 12.0568 19.9644 11.814C19.3505 11.5758 18.7226 11.4498 17.7998 11.4498C16.7098 11.4498 16.2096 11.4592 15.7116 11.6266C15.2186 11.7923 14.6565 12.1423 13.5946 13.0334L13.3711 13.2209L13.0805 13.2463C11.0873 13.4205 10.1892 13.5013 9.58981 13.6345C9.19377 13.7225 8.94838 13.8273 8.52495 14.0622L8.52489 15.2612C8.62458 15.2855 8.70227 15.3031 8.76544 15.3161ZM20.5999 15.4C20.2823 15.4 20.0249 15.6574 20.0249 15.975C20.0249 16.2926 20.2823 16.55 20.5999 16.55C20.9174 16.55 21.1749 16.2926 21.1749 15.975C21.1749 15.6574 20.9174 15.4 20.5999 15.4Z" fill="#000000" class="bmwfcol"/><path d="M16 3.01733L4 6.23272V14.0001C4 16.9212 4.52661 19.647 6.22113 22.2909C7.90215 24.9137 10.6757 27.3669 15.0044 29.8661L15.2364 30.0001H16.7636L16.9956 29.8661C21.3243 27.3669 24.0979 24.9137 25.7789 22.2909C27.4734 19.647 28 16.9212 28 14.0001V6.23272L16 3.01733ZM6 14.0001V7.76738L16 5.08789L26 7.76738V14.0001C26 16.6589 25.5266 18.9781 24.095 21.2117C22.6768 23.4246 20.2629 25.6395 16.2262 28.0001H15.7738C11.7371 25.6395 9.32323 23.4246 7.90496 21.2117C6.47339 18.9781 6 16.6589 6 14.0001Z" fill="#000000" class="bmwfcol"/><title>shield_with_car_rg_48</title></svg>