<svg width="48" height="48" viewBox="0 0 32 32" xmlns="http://www.w3.org/2000/svg"><path d="M12.1113 11.0068H14.0218V18.9996H12.1113V11.0068Z" fill="#000000" class="bmwfcol"/><path d="M18.534 11.0068H15.0714V18.9996H16.9819V16.3915C17.6298 16.3913 18.1451 16.3897 18.5526 16.3712C19.3256 16.3402 20.0068 16.1848 20.5313 15.7052C21.0929 15.1994 21.3019 14.439 21.3019 13.6538C21.3019 12.8954 21.0913 12.1811 20.5872 11.6882C20.0824 11.1947 19.4283 11.0068 18.534 11.0068ZM16.9819 14.5716V12.8267H18.3729C18.8494 12.8267 19.0541 12.8824 19.1719 12.9935C19.3129 13.1275 19.3712 13.3095 19.3712 13.6639C19.3712 14.0066 19.3196 14.2036 19.1817 14.3346C19.0379 14.4713 18.8239 14.5317 18.384 14.5517C17.995 14.5694 17.5103 14.5714 16.9819 14.5716Z" fill="#000000" class="bmwfcol"/><path d="M28 6.23297L16 3.01758L4 6.23297V14.0003C4 16.9214 4.52661 19.6473 6.22113 22.2912C7.90215 24.914 10.6757 27.3672 15.0044 29.8663L15.2364 30.0003H16.7636L16.9956 29.8663C21.3243 27.3672 24.0979 24.914 25.7789 22.2912C27.4734 19.6473 28 16.9214 28 14.0003V6.23297ZM6 14.0003V7.76762L16 5.08813L26 7.76762V14.0003C26 16.6592 25.5266 18.9783 24.095 21.212C22.6768 23.4248 20.2629 25.6397 16.2262 28.0003H15.7738C11.7371 25.6397 9.32323 23.4248 7.90496 21.212C6.47339 18.9783 6 16.6592 6 14.0003Z" fill="#000000" class="bmwfcol"/><title>shield_with_ip_rg_48</title></svg>