<svg width="48" height="48" viewBox="0 0 32 32" xmlns="http://www.w3.org/2000/svg"><path d="M6 2.5C5.02275 2.5 4.13067 2.83011 3.48039 3.48039C2.83011 4.13067 2.5 5.02275 2.5 6C2.5 6.97725 2.83011 7.86933 3.48039 8.51961C4.13067 9.16989 5.02275 9.5 6 9.5L6.00838 9.49999C6.01045 9.6002 6.01304 9.69534 6.01626 9.7857C6.03251 10.2408 6.06625 10.6381 6.15486 10.9925C6.34788 11.7646 6.77865 12.1942 7.2302 12.6445L8.75046 14.1647L12.7448 7.24628L12.0854 6.70837C11.6245 6.33235 11.1659 6.14799 10.5085 6.06777C10.23 6.03379 9.8988 6.01684 9.49999 6.00839L9.5 6C9.5 5.02275 9.16989 4.13067 8.51961 3.48039C7.86933 2.83011 6.97725 2.5 6 2.5ZM4.5 6C4.5 5.47725 4.66989 5.11933 4.89461 4.89461C5.11933 4.66989 5.47725 4.5 6 4.5C6.52275 4.5 6.88067 4.66989 7.10539 4.89461C7.33011 5.11933 7.5 5.47725 7.5 6C7.5 6.86028 6.91639 7.5 6 7.5C5.47725 7.5 5.11933 7.33011 4.89461 7.10539C4.66989 6.88067 4.5 6.52275 4.5 6ZM8.90347 8.00157C9.37232 8.00412 9.71651 8.01072 9.98418 8.0278L8.32632 10.8993C8.15479 10.7085 8.12725 10.6359 8.09514 10.5075C8.05875 10.3619 8.02999 10.1343 8.01499 9.71431C8.00691 9.48799 8.00318 9.22428 8.00146 8.9086C8.36081 8.6655 8.66501 8.35706 8.90347 8.00157Z" fill="#000000" class="bmwfcol"/><path d="M20.2502 14.8362L16.2559 21.7546L16.9154 22.2925C17.3763 22.6685 17.835 22.8527 18.4923 22.9328C19.0483 23.0006 19.8146 23.0006 20.9096 23.0006L21.4146 23.0006L21.5005 22.9147L22.9207 24.3349C22.6748 24.8339 22.5508 25.4009 22.5508 26C22.5508 26.9772 22.8809 27.8693 23.5312 28.5196C24.1815 29.1699 25.0735 29.5 26.0508 29.5C28.1344 29.5 29.5508 27.9011 29.5508 26C29.5508 25.0228 29.2207 24.1307 28.5704 23.4804C27.9201 22.8301 27.028 22.5 26.0508 22.5C25.4246 22.5 24.8333 22.6356 24.3183 22.904L22.9147 21.5005L23.0004 21.4148V20.9804C23.0004 20.2476 23.0004 19.6702 22.9841 19.2149C22.9679 18.7598 22.9342 18.3625 22.8455 18.008C22.6525 17.2359 22.2218 16.8064 21.7702 16.356L20.2502 14.8362ZM19.0167 20.9728L20.6744 18.1016C20.8456 18.2922 20.8732 18.3647 20.9053 18.4931C20.9417 18.6387 20.9704 18.8663 20.9854 19.2863C20.9974 19.6217 20.9998 20.0393 21.0003 20.5865L20.5864 21.0004C19.8563 20.9996 19.3699 20.9953 19.0167 20.9728ZM24.9454 24.8946C25.1701 24.6699 25.528 24.5 26.0508 24.5C26.5735 24.5 26.9315 24.6699 27.1562 24.8946C27.3809 25.1193 27.5508 25.4772 27.5508 26C27.5508 26.8603 26.9672 27.5 26.0508 27.5C25.528 27.5 25.1701 27.3301 24.9454 27.1054C24.7207 26.8807 24.5508 26.5228 24.5508 26C24.5508 25.4772 24.7207 25.1193 24.9454 24.8946Z" fill="#000000" class="bmwfcol"/><path d="M15.7144 10.2981L11.7493 17.1659L10.2852 15.7018L14.2503 8.83398L15.7144 10.2981Z" fill="#000000" class="bmwfcol"/><path d="M14.7493 20.1659L13.2852 18.7018L17.2503 11.834L18.7144 13.2981L14.7493 20.1659Z" fill="#000000" class="bmwfcol"/><title>shock-absorber_rg_48</title></svg>