<svg width="48" height="48" viewBox="0 0 32 32" xmlns="http://www.w3.org/2000/svg"><path d="M13.1232 4.92922C12.4974 5.57293 12 6.7641 12 9C12 11.2359 12.4974 12.4271 13.1232 13.0708C13.7399 13.705 14.6689 14 16 14C17.3311 14 18.2601 13.705 18.8768 13.0708C19.5026 12.4271 20 11.2359 20 9C20 6.7641 19.5026 5.57293 18.8768 4.92922C18.2601 4.29499 17.3311 4 16 4C14.6689 4 13.7399 4.29499 13.1232 4.92922ZM11.6893 3.53506C12.8435 2.34787 14.4144 2 16 2C17.5856 2 19.1565 2.34787 20.3107 3.53506C21.4557 4.71278 22 6.52161 22 9C22 11.4784 21.4557 13.2872 20.3107 14.4649C19.1565 15.6521 17.5856 16 16 16C14.4144 16 12.8435 15.6521 11.6893 14.4649C10.5443 13.2872 10 11.4784 10 9C10 6.52161 10.5443 4.71278 11.6893 3.53506Z" fill="#000000" class="bmwfcol"/><path d="M7 27.5C6.17157 27.5 5.5 28.1716 5.5 29C5.5 29.8284 6.17157 30.5 7 30.5C7.82843 30.5 8.5 29.8284 8.5 29C8.5 28.1716 7.82843 27.5 7 27.5Z" fill="#000000" class="bmwfcol"/><path d="M14 27.5C13.1716 27.5 12.5 28.1716 12.5 29C12.5 29.8284 13.1716 30.5 14 30.5C14.8284 30.5 15.5 29.8284 15.5 29C15.5 28.1716 14.8284 27.5 14 27.5Z" fill="#000000" class="bmwfcol"/><path d="M28.9075 26H26.8372L26.6388 25.2584C25.8388 22.2673 25.1555 21.2012 23.9718 20.6592C23.3181 20.36 22.4277 20.1825 21.1048 20.0914C20.6212 20.0581 20.0933 20.0369 19.5133 20.0235L20.0454 18.0375C20.4683 18.0514 20.8668 18.0703 21.2422 18.0961C22.6413 18.1925 23.8199 18.39 24.8044 18.8408C26.8969 19.7988 27.7661 21.7327 28.5709 24.7416L28.9075 26Z" fill="#000000" class="bmwfcol"/><path d="M2.5 17.0681V15.0575C3.4784 15.1451 4.21632 15.3407 4.76579 15.6982C5.62107 16.2546 5.8436 17.0926 5.99424 17.6599L6.08538 18H17.9835L17.6457 19.2592C17.2473 20.7441 16.9286 21.9188 16.5984 22.8147C16.2691 23.7077 15.8832 24.4573 15.2756 24.9974C14.6447 25.5582 13.8929 25.7911 13.0533 25.8982C12.2549 26.0001 11.2597 26.0001 10.0648 26H6.16154L4.08424 18.2595C3.90417 17.5892 3.8402 17.482 3.6751 17.3746C3.50788 17.2658 3.17784 17.1426 2.5 17.0681ZM7.69558 24H10C11.2762 24 12.1432 23.9981 12.8002 23.9143C13.4303 23.8339 13.734 23.6918 13.9469 23.5026C14.183 23.2927 14.4289 22.9174 14.7218 22.1229C14.9253 21.5708 15.1298 20.8809 15.3728 20H6.62211L7.69558 24Z" fill="#000000" class="bmwfcol"/><title>shopping-cart-user_rg_48</title></svg>