<svg width="48" height="48" viewBox="0 0 32 32" xmlns="http://www.w3.org/2000/svg"><path d="M2 5.02938V3.0249C3.45253 3.10486 4.54786 3.39592 5.34147 4.1503C5.81828 4.60355 6.11744 5.1599 6.34533 5.74833C6.62847 6.47944 6.81285 7.24381 7.01505 8H29.3022L28.965 9.25878C28.2984 11.7468 27.7678 13.6716 27.2209 15.132C26.6751 16.5894 26.0697 17.7101 25.1836 18.4975C24.274 19.3058 23.1813 19.6651 21.8735 19.8354C20.609 20 19.0269 20 17.0687 20H10.2303C10.3281 20.3647 10.3972 20.6226 10.429 20.7408C10.5095 21.0407 10.611 21.6896 10.9393 21.854C11.021 21.8945 11.184 21.9441 11.5448 21.9718C11.9047 21.9994 12.3608 22.0001 13 22.0001L23.5 22C25.433 22 27 23.567 27 25.5C27 27.433 25.433 29 23.5 29C21.567 29 20 27.433 20 25.5C20 24.9632 20.1208 24.4547 20.3368 24.0001H13.6632C13.8792 24.4547 14 24.9632 14 25.5C14 27.433 12.433 29 10.5 29C8.567 29 7 27.433 7 25.5C7 24.1485 7.76606 22.9759 8.88765 22.3927C8.72366 22.0435 8.60433 21.6579 8.49735 21.2593C8.22895 20.2594 5.28068 9.25867 5.01376 8.25776C4.80948 7.49168 4.6562 6.92481 4.4803 6.4706C4.30881 6.02779 4.14422 5.77164 3.96353 5.59989C3.68312 5.33334 3.19076 5.10754 2 5.02938ZM9.69417 18H17C19.0427 18 20.4947 17.998 21.6153 17.8521C22.7073 17.7099 23.358 17.4442 23.8551 17.0025C24.3757 16.5399 24.8404 15.7856 25.3479 14.4305C25.7656 13.3154 26.1828 11.8785 26.6937 10H7.55052C8.14937 12.2358 9.05498 15.6152 9.69417 18ZM23.4831 24.0001C22.6624 24.0092 22 24.6772 22 25.5C22 26.3284 22.6716 27 23.5 27C24.3284 27 25 26.3284 25 25.5C25 24.6692 24.3068 24.0001 23.4831 24.0001ZM9 25.5C9 26.3284 9.67157 27 10.5 27C11.3284 27 12 26.3284 12 25.5C12 24.6716 11.3284 24 10.5 24C9.67157 24 9 24.6716 9 25.5Z" fill="#000000" class="bmwfcol"/><title>shopping-cart_rg_48</title></svg>