<svg width="48" height="48" viewBox="0 0 32 32" xmlns="http://www.w3.org/2000/svg"><path d="M24 5V8H26V10H22V5H24Z" fill="#000000" class="bmwfcol"/><path d="M17.9429 3.94289C19.2057 2.68011 20.9728 2 23 2C25.0272 2 26.7943 2.68011 28.0571 3.94289C29.3199 5.20567 30 6.97275 30 9C30 11.0272 29.3199 12.7943 28.0571 14.0571C26.7943 15.3199 25.0272 16 23 16C20.9728 16 19.2057 15.3199 17.9429 14.0571C16.6801 12.7943 16 11.0272 16 9C16 6.97275 16.6801 5.20567 17.9429 3.94289ZM19.3571 5.35711C18.5199 6.19433 18 7.42725 18 9C18 10.5728 18.5199 11.8057 19.3571 12.6429C20.1943 13.4801 21.4272 14 23 14C24.5728 14 25.8057 13.4801 26.6429 12.6429C27.4801 11.8057 28 10.5728 28 9C28 7.42725 27.4801 6.19433 26.6429 5.35711C25.8057 4.51989 24.5728 4 23 4C21.4272 4 20.1943 4.51989 19.3571 5.35711Z" fill="#000000" class="bmwfcol"/><path d="M2 5.02938V3.0249C3.45253 3.10486 4.54786 3.39592 5.34147 4.1503C5.81828 4.60355 6.11744 5.1599 6.34533 5.74833C6.62825 6.47887 6.81315 7.24425 7.01505 8H14.0425C13.9849 8.66504 14 9.33321 14 10H7.55052C8.14937 12.2358 9.05498 15.6152 9.69417 18H23C24.0733 18 25.0755 17.8578 25.9925 17.5875C25.7491 17.9288 25.4823 18.2321 25.1836 18.4975C24.274 19.3058 23.1813 19.6651 21.8735 19.8354C20.609 20 19.0269 20 17.0687 20H10.2303L10.429 20.7408C10.6954 21.7333 10.8664 21.8179 10.9381 21.8534C11.1194 21.9442 11.3471 21.9566 11.5448 21.9718C11.9047 21.9994 12.3608 22.0001 13 22.0001L23.5 22C25.433 22 27 23.567 27 25.5C27 27.433 25.433 29 23.5 29C21.567 29 20 27.433 20 25.5C20 24.9632 20.1208 24.4547 20.3368 24.0001H13.6632C13.8792 24.4547 14 24.9632 14 25.5C14 27.433 12.433 29 10.5 29C8.567 29 7 27.433 7 25.5C7 24.1485 7.76606 22.9759 8.88765 22.3927C8.72366 22.0435 8.60433 21.6579 8.49735 21.2593C8.22895 20.2594 5.28068 9.25867 5.01376 8.25776C4.80948 7.49168 4.6562 6.92481 4.4803 6.4706C4.30881 6.02779 4.14422 5.77164 3.96353 5.59989C3.68312 5.33334 3.19076 5.10754 2 5.02938ZM23.4831 24.0001C22.6624 24.0092 22 24.6772 22 25.5C22 26.3284 22.6716 27 23.5 27C24.3284 27 25 26.3284 25 25.5C25 24.6692 24.3068 24.0001 23.4831 24.0001ZM9 25.5C9 26.3284 9.67157 27 10.5 27C11.3284 27 12 26.3284 12 25.5C12 24.6716 11.3284 24 10.5 24C9.67157 24 9 24.6716 9 25.5Z" fill="#000000" class="bmwfcol"/><title>shopping-reservation_rg_48</title></svg>