<svg width="48" height="48" viewBox="0 0 32 32" xmlns="http://www.w3.org/2000/svg"><path d="M13.1232 17.0708C13.7399 17.705 14.6689 18 16 18C17.3311 18 18.2601 17.705 18.8768 17.0708C19.5026 16.4271 20 15.2359 20 13H22C22 15.4784 21.4557 17.2872 20.3107 18.4649C19.1565 19.6521 17.5856 20 16 20C14.4144 20 12.8435 19.6521 11.6893 18.4649C10.5443 17.2872 10 15.4784 10 13H12C12 15.2359 12.4974 16.4271 13.1232 17.0708Z" fill="#000000" class="bmwfcol"/><path d="M10 9C10 6.52161 10.5443 4.71278 11.6893 3.53506C12.8435 2.34787 14.4144 2 16 2C17.5856 2 19.1565 2.34787 20.3107 3.53506C21.4557 4.71278 22 6.52161 22 9H26.5171L28.0006 25.9565L28 28H4.00063L4 25.9565L5.4835 9H10ZM12 9H20C20 6.7641 19.5026 5.57293 18.8768 4.92922C18.2601 4.29499 17.3311 4 16 4C14.6689 4 13.7399 4.29499 13.1232 4.92922C12.4974 5.57293 12 6.7641 12 9ZM7.31616 11L6.00383 26H25.9968L24.6845 11H7.31616Z" fill="#000000" class="bmwfcol"/><title>shopping-bag_rg_48</title></svg>