<svg width="48" height="48" viewBox="0 0 32 32" xmlns="http://www.w3.org/2000/svg"><path d="M2 8.14005V6H7.98079C10.5035 6 12.9105 7.05882 14.6152 8.91848L14.6334 8.93831L13.7474 10.9316L13.1409 10.2699C11.815 8.82353 9.94293 8 7.98079 8H4.04002L5.89034 14.4761L10.5 19.0858V21H5.75C3.95507 21 2.5 19.5449 2.5 17.75C2.5 17.0468 2.72808 16.3626 3.15 15.8L3.90206 14.7973L2 8.14005ZM5.10819 16.5224L4.75 17C4.58772 17.2164 4.5 17.4795 4.5 17.75C4.5 18.4404 5.05964 19 5.75 19H7.58579L5.10819 16.5224Z" fill="#000000" class="bmwfcol"/><path d="M24 10H16.3501L15.2928 12.3789C14.4404 14.2968 14 16.3722 14 18.471V21H29V14H24V10ZM17.1205 13.1912L17.6499 12H19V15.4463C18.9227 15.4818 18.8302 15.5204 18.7208 15.5602C18.2506 15.7312 17.4639 15.9257 16.2403 15.9832C16.4271 15.025 16.7218 14.0882 17.1205 13.1912ZM21 16.4142V12H22V16H27V19H16C16 18.6644 15.9964 18.3286 16.0088 17.9931C17.5764 17.9497 18.6655 17.7084 19.4042 17.4398C20.0358 17.2101 20.5275 16.8867 21 16.4142Z" fill="#000000" class="bmwfcol"/><path d="M12 22C10.3431 22 9 23.3431 9 25C9 26.6569 10.3431 28 12 28H25C26.6569 28 28 26.6569 28 25C28 23.3431 26.6569 22 25 22H12ZM11 25C11 24.4477 11.4477 24 12 24H25C25.5523 24 26 24.4477 26 25C26 25.5523 25.5523 26 25 26H12C11.4477 26 11 25.5523 11 25Z" fill="#000000" class="bmwfcol"/><title>shovel_excavator_rg_48</title></svg>