<svg width="48" height="48" viewBox="0 0 32 32" xmlns="http://www.w3.org/2000/svg"><path d="M26.3397 9.99987L23.3396 13H26.168L30.1681 8.99991L26.1682 5H23.3398L26.3396 7.99985L22.6714 7.99981C21.9279 7.99907 21.1394 7.99829 20.3033 8.53194C19.5257 9.02833 18.7727 9.94353 17.7346 11.4264L16.6389 12.9794L17.8581 14.7206L19.3731 12.5733C20.4345 11.0571 20.9823 10.4712 21.3794 10.2178C21.6874 10.0212 21.9215 9.99987 22.7539 9.99987H26.3397Z" fill="#000000" class="bmwfcol"/><path d="M8.75387 10.0001C9.5882 10.0001 9.8187 10.0221 10.1192 10.2157C10.5084 10.4665 11.0453 11.0488 12.0845 12.5654L17.7357 20.5751C18.7738 22.058 19.5257 22.9717 20.3033 23.468C21.1394 24.0017 21.9279 24.0009 22.6714 24.0002L26.3395 24.0001L23.3396 27H26.168L30.1681 22.9999L26.1682 19H23.3398L26.3399 22.0001H22.7539C21.9215 22.0001 21.6874 21.9788 21.3794 21.7822C20.9823 21.5287 20.4345 20.9429 19.3731 19.4267L13.7305 11.4292C12.7161 9.94917 11.9762 9.03307 11.2025 8.53452C10.3706 7.99846 9.57947 7.99928 8.83799 8.00006L2.75391 8.00012L2.75449 10.0001H8.75387Z" fill="#000000" class="bmwfcol"/><path d="M12.0845 19.4346L13.6275 17.2476L14.8467 18.9887L13.7305 20.5708C12.7161 22.0508 11.9762 22.9669 11.2025 23.4655C10.3706 24.0015 9.57947 24.0007 8.83799 23.9999H2.75391L2.75449 21.9999H8.75387C9.5882 21.9999 9.8187 21.9779 10.1192 21.7843C10.5084 21.5335 11.0453 20.9512 12.0845 19.4346Z" fill="#000000" class="bmwfcol"/><title>shuffle_rg_48</title></svg>