<svg width="48" height="48" viewBox="0 0 32 32" xmlns="http://www.w3.org/2000/svg"><path d="M6.09503 16H4.08396C3.99973 16.8389 3.99986 17.7681 4.00001 18.8581V19.1419C3.99975 21.0135 3.99955 22.4108 4.42635 23.6912C4.87829 25.047 5.76961 26.1838 7.29292 27.7071L7.58581 28H24V21H24.7723L28.2364 23H30V11L28.2364 11L24.7723 13H24V10H18V12H22V26H8.4178C7.14914 24.6987 6.60153 23.8922 6.32372 23.0588C6.01123 22.1213 6.00003 21.0567 6.00003 19C6.00003 17.6575 6.0048 16.7377 6.09503 16ZM24 19V15H25.3082L28 13.4459V20.5541L25.3082 19H24Z" fill="#000000" class="bmwfcol"/><path d="M4 6.80298V12.701C5.54189 12.2394 7.21789 12 9 12C10.7821 12 12.4581 12.2394 14 12.701V6.80298C12.5098 6.28186 10.8343 6 9 6C7.16573 6 5.49022 6.28186 4 6.80298ZM2.62136 5.18734C4.52469 4.4087 6.67178 4 9 4C11.3282 4 13.4753 4.4087 15.3786 5.18734L16 5.44154V15H14.5299L14.3572 14.9338C12.7793 14.3292 10.9824 14 9 14C7.0176 14 5.22066 14.3292 3.64283 14.9338L3.47005 15H2V5.44154L2.62136 5.18734Z" fill="#000000" class="bmwfcol"/><title>side-view_rg_48</title></svg>