<svg width="48" height="48" viewBox="0 0 32 32" xmlns="http://www.w3.org/2000/svg"><path d="M2 15.5V4.5H3C4.17531 4.5 5.32298 4.80669 6.08205 5.9453C6.33005 6.31729 6.51955 6.75636 6.66012 7.26299L8.6754 1.72607L9.61509 2.06809C10.6719 2.45276 11.611 3.14697 11.9521 4.45294C12.1958 5.38601 12.0985 6.51845 11.71 7.88478C11.9659 7.88555 12.2237 7.91909 12.4774 7.98706L17.7331 9.39534L17.4743 10.3613C17.4308 10.5237 17.3822 10.6859 17.3272 10.8459C18.6569 9.64578 20.4523 9 22.5 9C24.6772 9 26.5693 9.73011 27.9196 11.0804C29.2699 12.4307 30 14.3228 30 16.5V27.5001H29C27.8247 27.5001 26.677 27.1934 25.9179 26.0548C25.6699 25.6828 25.4804 25.2437 25.3399 24.7371L23.3246 30.274L22.3849 29.932C21.328 29.5473 20.389 28.8531 20.0479 27.5471C19.8041 26.6141 19.9015 25.4816 20.29 24.1153C20.0341 24.1145 19.7763 24.081 19.5226 24.013L14.2668 22.6047L14.5257 21.6388C14.5692 21.4763 14.6177 21.3142 14.6728 21.1542C13.3431 22.3543 11.5476 23.0001 9.5 23.0001C7.32275 23.0001 5.43067 22.27 4.08039 20.9197C2.73011 19.5694 2 17.6772 2 15.5ZM4.57202 13L5 11.8241V10.5C5 8.52462 4.74111 7.53945 4.41795 7.0547C4.31106 6.89437 4.18225 6.76713 4 6.67516V15.5C4 17.2228 4.56989 18.5807 5.49461 19.5055C6.41933 20.4302 7.77725 21.0001 9.5 21.0001C11.2228 21.0001 12.5807 20.4302 13.5054 19.5055L15 18.0109L15 14.7011C14.8061 15.1615 14.5971 15.7819 14.3742 16.6135L14.2248 17.1712L10.7012 18.1154L10.293 17.7072L10.2823 17.6966C10.2152 17.6297 10.0921 17.5071 9.97971 17.3234C9.87075 17.1452 9.79441 16.9494 9.72441 16.7391C9.59184 16.3409 9.40663 15.6497 9.06812 14.3862L9 14.132V13.5858L11.7012 10.8848L12.2588 11.0342C13.7027 11.4211 14.3987 11.338 14.7482 11.1666C14.8946 11.0947 15.0344 10.9796 15.1661 10.7781L11.9597 9.91891C11.6146 9.82644 11.2464 9.9251 10.9938 10.1777L10.1715 11H7.42832L6.94014 12.3412L6.70038 13H4.57202ZM9.14984 9.19325L9.4436 8.38615C10.1048 6.56964 10.1687 5.53889 10.017 4.95841C9.97128 4.78324 9.90098 4.63121 9.79532 4.49671L7.47709 10.866L9.14984 9.19325ZM12.3089 13.1054L11.1154 14.2989C11.3135 15.0374 11.4415 15.5087 11.5336 15.8218L12.5987 15.5364C12.8675 14.6156 13.1468 13.8721 13.4574 13.2876C13.0933 13.2566 12.7103 13.1942 12.3089 13.1054ZM22.8501 22.8068L22.5564 23.6139C21.8952 25.4304 21.8313 26.4612 21.983 27.0417C22.0287 27.2168 22.099 27.3689 22.2047 27.5034L24.5229 21.1341L22.8501 22.8068ZM19.6911 18.8946L20.8846 17.7012C20.6864 16.9627 20.5585 16.4913 20.4664 16.1783L19.4013 16.4637C19.1325 17.3845 18.8531 18.128 18.5426 18.7124C18.9067 18.7435 19.2896 18.8059 19.6911 18.8946ZM26.5054 12.4946C25.5807 11.5699 24.2227 11 22.5 11C20.7772 11 19.4193 11.5699 18.4946 12.4946L17 13.9892L17 17.299C17.1939 16.8385 17.4029 16.2182 17.6257 15.3865L17.7752 14.8289L21.2988 13.8847L21.707 14.2929L21.7177 14.3035C21.7848 14.3703 21.9079 14.493 22.0203 14.6767C22.1292 14.8548 22.2056 15.0507 22.2756 15.2609C22.4081 15.6592 22.5934 16.3504 22.9319 17.6139L23 17.8681V18.4143L20.2988 21.1153L19.7412 20.9658C18.2973 20.579 17.6013 20.6621 17.2518 20.8335C17.1054 20.9053 16.9656 21.0204 16.8339 21.222L20.0403 22.0812C20.3854 22.1736 20.7536 22.075 21.0062 21.8223L21.8285 21.0001H24.5717L25.0602 19.6578L25.2996 19.0001H27.428L27 20.1759V21.5001C27 23.4754 27.2589 24.4606 27.582 24.9454C27.6889 25.1057 27.8177 25.2329 28 25.3249V16.5C28 14.7772 27.4301 13.4193 26.5054 12.4946Z" fill="#000000" class="bmwfcol"/><title>sign_language_rg_48</title></svg>