<svg width="48" height="48" viewBox="0 0 32 32" xmlns="http://www.w3.org/2000/svg"><path d="M19.1011 6.04875C19.4051 6.01483 19.7063 6 20 6H21.796C21.5376 5.66293 21.2577 5.34348 20.9571 5.04289C18.9943 3.08011 16.2272 2 13 2C9.77275 2 7.00567 3.08011 5.04289 5.04289C3.08011 7.00567 2 9.77275 2 13C2 16.2272 3.08011 18.9943 5.04289 20.9571C7.00567 22.9199 9.77275 24 13 24C13.3385 24 13.672 23.9881 14 23.9646V21.9587C13.6751 21.986 13.3416 22 13 22C12.7199 22 12.4454 21.9906 12.1765 21.9722L11.8555 18.3033C12.261 18.3804 12.6293 18.423 13.0001 18.423C13.3263 18.423 13.6506 18.39 14 18.3296V16.2916C13.5793 16.3843 13.2878 16.423 13.0001 16.423C12.4447 16.423 11.875 16.2786 10.3882 15.8801L10.1315 15.8114L10.0452 15.4844C9.93977 15.0848 9.82291 14.6426 9.72645 14.2809L9.71186 14.2262C9.56298 13.6679 9.45889 13.2776 9.39159 12.9698C9.32228 12.6528 9.30822 12.4912 9.31208 12.3887C9.31817 12.227 9.35452 12.1146 9.7761 11.385C10.2655 10.538 10.6017 10.2895 10.915 10.1701C11.3228 10.0147 11.8592 10.0001 13.0002 10.0001C13.5349 10.0001 13.9368 10.0033 14.2549 10.0227C14.4387 9.36321 14.7356 8.71599 15.1892 8.12825C14.5491 7.99917 13.8501 7.99961 13.128 8.00005H12.8725C11.9139 7.99946 10.9962 7.99889 10.2028 8.30123C9.27969 8.653 8.64385 9.34682 8.04436 10.3844L7.99117 10.4763C7.88904 10.6525 7.789 10.8251 7.69842 11L4.17204 11C4.50546 9.141 5.30915 7.60507 6.45711 6.45711C7.99433 4.91989 10.2272 4 13 4C15.5177 4 17.5902 4.75841 19.1011 6.04875ZM4 13L7.36162 13C7.3823 13.1304 7.40834 13.2625 7.43774 13.3969C7.51506 13.7506 7.63011 14.1819 7.7704 14.7078L7.79399 14.7962C7.82885 14.9269 7.86645 15.0684 7.90525 15.2148L4.05835 14.1841C4.01977 13.8013 4 13.4065 4 13ZM9.80328 17.794L10.1392 21.6341C8.66307 21.2307 7.42281 20.5086 6.45711 19.5429C5.60671 18.6925 4.94524 17.6292 4.52392 16.3794L9.80328 17.794Z" fill="#000000" class="bmwfcol"/><path d="M14.0008 11.8827C13.7353 11.6447 13.3846 11.5 13 11.5C12.1716 11.5 11.5 12.1716 11.5 13C11.5 13.8284 12.1716 14.5 13 14.5C13.3842 14.5 13.7346 14.3556 14 14.1181V12C14 11.961 14.0003 11.9219 14.0008 11.8827Z" fill="#000000" class="bmwfcol"/><path d="M20 14H26V12H20V14Z" fill="#000000" class="bmwfcol"/><path d="M17.0429 9.04289C17.7966 8.28921 18.8459 8 20 8H26C27.1541 8 28.2034 8.28921 28.9571 9.04289C29.7108 9.79657 30 10.8459 30 12V26C30 27.1541 29.7108 28.2034 28.9571 28.9571C28.2034 29.7108 27.1541 30 26 30H20C18.8459 30 17.7966 29.7108 17.0429 28.9571C16.2892 28.2034 16 27.1541 16 26V12C16 10.8459 16.2892 9.79657 17.0429 9.04289ZM28 12C28 11.1541 27.7892 10.7034 27.5429 10.4571C27.2966 10.2108 26.8459 10 26 10H20C19.1541 10 18.7034 10.2108 18.4571 10.4571C18.2108 10.7034 18 11.1541 18 12V24L28 24V12ZM18.4571 27.5429C18.7034 27.7892 19.1541 28 20 28H26C26.8459 28 27.2966 27.7892 27.5429 27.5429C27.7892 27.2966 28 26.8459 28 26H18C18 26.8459 18.2108 27.2966 18.4571 27.5429Z" fill="#000000" class="bmwfcol"/><title>smartphone-integration_rg_48</title></svg>