<svg width="48" height="48" viewBox="0 0 32 32" xmlns="http://www.w3.org/2000/svg"><path d="M25.165 9C25.1892 8.79449 25.2149 8.6032 25.2434 8.42536C25.3387 7.82983 25.4774 7.29787 25.7516 6.81817C26.0335 6.3253 26.4133 5.96543 26.8651 5.63956C27.2876 5.3348 27.8263 5.02384 28.4593 4.65841L30.0014 3.76807V6.07747L29.5023 6.36561C28.8161 6.76181 28.3659 7.02303 28.035 7.26168C27.7238 7.48612 27.5813 7.6475 27.4879 7.8109C27.3869 7.98747 27.2974 8.2468 27.2182 8.7416C27.2051 8.82349 27.1926 8.90943 27.1805 9H30.0006V10.7937L28.6703 26H18.3304L17 10.7937V9H25.165ZM19.3975 15.2503L20.163 24H26.8376L27.4719 16.75C25.3195 16.7465 24.1965 16.3295 23.1479 15.9363L23.1308 15.9299C22.1903 15.5772 21.3179 15.25 19.4991 15.25C19.4649 15.25 19.4311 15.2501 19.3975 15.2503ZM19.2227 13.2523C19.313 13.2508 19.4051 13.25 19.4991 13.25C21.6692 13.25 22.7972 13.6688 23.8502 14.0637L23.8673 14.0701C24.8078 14.4228 25.6803 14.75 27.4991 14.75C27.5491 14.75 27.5984 14.7498 27.6469 14.7493L27.975 11H19.0257L19.2227 13.2523Z" fill="#000000" class="bmwfcol"/><path d="M14.4977 19.9415C14.6848 19.8204 14.8595 19.6797 15.0196 19.5196C15.6699 18.8693 16 17.9772 16 17C16 16.0228 15.6699 15.1307 15.0196 14.4804C14.3693 13.8301 13.4772 13.5 12.5 13.5L12.4703 13.5001C11.6475 12.5278 10.4117 12 9 12C7.58827 12 6.35252 12.5278 5.5297 13.5001L5.5 13.5C4.52275 13.5 3.63067 13.8301 2.98039 14.4804C2.33011 15.1307 2 16.0228 2 17C2 17.9772 2.33011 18.8693 2.98039 19.5196C3.14104 19.6802 3.31644 19.8214 3.50423 19.9428L4.57227 25.9999H13.4295L14.4977 19.9415ZM12.3688 20.498L11.7513 23.9999H6.25047L5.63298 20.498C5.94966 20.4882 6.25713 20.4433 6.55027 20.3628C7.25743 20.7846 8.09541 21 9 21C9.90459 21 10.7426 20.7846 11.4497 20.3628C11.7434 20.4435 12.0515 20.4884 12.3688 20.498ZM6.86389 15.06C7.24519 14.4321 7.95476 14 9 14C10.0452 14 10.7548 14.4321 11.1361 15.06L11.4874 15.6385L12.1551 15.5273C12.2605 15.5098 12.3755 15.5 12.5 15.5C13.0228 15.5 13.3807 15.6699 13.6054 15.8946C13.8301 16.1193 14 16.4772 14 17C14 17.5228 13.8301 17.8807 13.6054 18.1054C13.3807 18.3301 13.0228 18.5 12.5 18.5C12.1859 18.5 11.9325 18.4379 11.7356 18.3441L11.1651 18.0722L10.6747 18.4708C10.2827 18.7895 9.72554 19 9 19C8.27446 19 7.71735 18.7895 7.32533 18.4708L6.83492 18.0722L6.2644 18.3441C6.06752 18.4379 5.81414 18.5 5.5 18.5C4.97725 18.5 4.61933 18.3301 4.39461 18.1054C4.16989 17.8807 4 17.5228 4 17C4 16.4772 4.16989 16.1193 4.39461 15.8946C4.61933 15.6699 4.97725 15.5 5.5 15.5C5.62452 15.5 5.73948 15.5098 5.8449 15.5273L6.51256 15.6385L6.86389 15.06Z" fill="#000000" class="bmwfcol"/><title>snack_and_drink_rg_48</title></svg>