<svg width="48" height="48" viewBox="0 0 32 32" xmlns="http://www.w3.org/2000/svg"><path d="M4.41632 3L30.4163 29H27.5879L1.58789 3H4.41632Z" fill="#000000" class="bmwfcol"/><path d="M17.1903 12.9461L17.002 10.7937V9H25.167C25.1912 8.79449 25.2168 8.6032 25.2453 8.42536C25.3407 7.82983 25.4793 7.29787 25.7536 6.81817C26.0354 6.3253 26.4152 5.96543 26.867 5.63956C27.2896 5.3348 27.8282 5.02384 28.4612 4.65841L30.0034 3.76807V6.07747L29.5043 6.36561C28.818 6.76181 28.3679 7.02303 28.037 7.26168C27.7258 7.48612 27.5833 7.6475 27.4898 7.8109C27.3889 7.98747 27.2994 8.2468 27.2201 8.7416C27.207 8.82349 27.1945 8.90943 27.1824 9H30.0026V10.7937L28.7987 24.5545L26.9526 22.7084L27.4739 16.75C25.3215 16.7465 24.1984 16.3295 23.1499 15.9363L23.1327 15.9299C22.1922 15.5772 21.3198 15.25 19.5011 15.25L19.4941 15.25L17.1903 12.9461ZM19.0276 11L19.2247 13.2523C19.3149 13.2508 19.407 13.25 19.5011 13.25C21.6712 13.25 22.7992 13.6688 23.8521 14.0637L23.8692 14.0701C24.8097 14.4228 25.6822 14.75 27.5011 14.75C27.5511 14.75 27.6003 14.7498 27.6489 14.7493L27.9769 11H19.0276Z" fill="#000000" class="bmwfcol"/><path d="M21.7589 26H18.3323L18.0038 22.245L21.7589 26Z" fill="#000000" class="bmwfcol"/><path d="M15.0216 19.5196C15.0646 19.4766 15.1062 19.4326 15.1463 19.3875L13.7257 17.9668C13.6886 18.0177 13.6489 18.0638 13.6073 18.1054C13.3826 18.3301 13.0247 18.5 12.502 18.5C12.1878 18.5 11.9344 18.4379 11.7376 18.3441L11.167 18.0722L10.6766 18.4708C10.2846 18.7895 9.7275 19 9.00195 19C8.27641 19 7.7193 18.7895 7.32728 18.4708L6.83688 18.0722L6.26636 18.3441C6.06947 18.4379 5.8161 18.5 5.50195 18.5C4.9792 18.5 4.62128 18.3301 4.39656 18.1054C4.17184 17.8807 4.00195 17.5228 4.00195 17C4.00195 16.4772 4.17184 16.1193 4.39656 15.8946C4.62128 15.6699 4.9792 15.5 5.50195 15.5C5.62647 15.5 5.74143 15.5098 5.84686 15.5273L6.51451 15.6385L6.86585 15.06C7.24714 14.4321 7.95671 14 9.00195 14C9.32535 14 9.61661 14.0414 9.87596 14.1171L7.87782 12.119C6.9393 12.3253 6.12728 12.7963 5.53165 13.5001L5.50195 13.5C4.52471 13.5 3.63263 13.8301 2.98235 14.4804C2.33207 15.1307 2.00195 16.0228 2.00195 17C2.00195 17.9772 2.33207 18.8693 2.98235 19.5196C3.14299 19.6802 3.31839 19.8214 3.50618 19.9428L4.57422 25.9999H13.4314L14.4997 19.9415C14.6867 19.8204 14.8615 19.6797 15.0216 19.5196ZM12.3707 20.498L11.7532 23.9999H6.25242L5.63493 20.498C5.95161 20.4882 6.25908 20.4433 6.55222 20.3628C7.25938 20.7846 8.09736 21 9.00195 21C9.90654 21 10.7445 20.7846 11.4517 20.3628C11.7454 20.4435 12.0534 20.4884 12.3707 20.498Z" fill="#000000" class="bmwfcol"/><title>snack_and_drink_crossed_out_rg_48</title></svg>