<svg width="48" height="48" viewBox="0 0 32 32" xmlns="http://www.w3.org/2000/svg"><path d="M15.1254 1.99951V6.48367L12.0002 4.67938V6.70011L15.1254 8.5044V10.7311L11.8752 12.6076L9.94723 11.4945V7.88634L8.19723 6.87598V10.4842L4.31335 8.2418L3.43835 9.75734L7.32214 11.9996L4.19691 13.804L5.94691 14.8144L9.07214 13.01L11.0001 14.1231V17.8758L9.07193 18.989L5.94726 17.185L4.19726 18.1954L7.32193 19.9994L3.43811 22.2417L4.31311 23.7573L8.1966 21.5151V25.1239L9.9466 24.1136V20.5048L11.875 19.3914L15.1254 21.268V23.4946L12.0002 25.2989V27.3196L15.1254 25.5154V29.9995H16.8754V25.515L20.0002 27.3191V25.2984L16.8754 23.4942V21.2678L20.1252 19.3915L22.0536 20.5049V24.1136L23.8036 25.1239V21.5152L27.6871 23.7573L28.5621 22.2418L24.6786 19.9997L27.8034 18.1956L26.0534 17.1852L22.9286 18.9893L21.0001 17.8759V14.123L22.9283 13.0097L26.0537 14.8142L27.8037 13.8038L24.6783 11.9994L28.5617 9.75733L27.6867 8.24179L23.803 10.484V6.87598L22.053 7.88634V11.4944L20.125 12.6076L16.8754 10.7314V8.50478L20.0002 6.70063V4.67991L16.8754 6.48406V1.99951H15.1254ZM13.0001 14.2675L16.0001 12.5355L19.0001 14.2675V17.7316L16.0001 19.4637L13.0001 17.7316V14.2675Z" fill="#000000" class="bmwfcol"/><title>snowflake_rg_48</title></svg>