<svg width="48" height="48" viewBox="0 0 32 32" xmlns="http://www.w3.org/2000/svg"><path d="M19.5 30H12.5C9.92004 30 7.77485 28.1956 6.33051 25.6921C4.87088 23.1621 4 19.7332 4 16C4 12.2668 4.87088 8.83793 6.33051 6.30789C7.77485 3.80437 9.92004 2 12.5 2H19.5C22.08 2 24.2251 3.80437 25.6695 6.30789C27.1291 8.83793 28 12.2668 28 16C28 19.7332 27.1291 23.1621 25.6695 25.6921C24.2251 28.1956 22.08 30 19.5 30ZM6 16C6 17.1606 6.09163 18.2786 6.26111 19.3342L10.57 16L6.2611 12.6658C6.09163 13.7214 6 14.8394 6 16ZM7.21814 20.8064L12.2034 23.2439C11.6145 21.6182 11.2219 19.7808 11.0703 17.8256L7.21814 20.8064ZM7.21814 11.1936L11.0703 14.1744C11.2219 12.2192 11.6145 10.3818 12.2034 8.75608L7.21814 11.1936ZM12.3862 6.71874L9.80123 5.12365C9.18175 5.66007 8.59315 6.3882 8.06288 7.30733C7.7195 7.90253 7.40958 8.56483 7.14051 9.28356L12.3862 6.71874ZM13.8101 5.54106C14.1942 4.97452 14.6176 4.45563 15.0766 4H12.5C12.1801 4 11.8584 4.04638 11.5381 4.13905L13.8101 5.54106ZM13.0175 15.125H15.0178C15.0998 13.1182 15.4619 11.2637 16.0368 9.76478L14.5338 8.3357C13.6807 10.1967 13.1212 12.5377 13.0175 15.125ZM15.4064 6.75061L16.8444 8.11782C17.1152 7.68632 17.4181 7.30219 17.7536 6.98287C18.1209 6.63337 18.544 6.34743 19.0149 6.17581L18.7534 4.08376C17.5742 4.34822 16.4049 5.2386 15.4064 6.75061ZM22.2464 6.98287C22.5165 7.2399 22.7654 7.53893 22.9935 7.87086L23.6813 6.8857C22.7422 5.41411 21.6444 4.50376 20.5263 4.15832L20.7699 6.10644C21.3278 6.26303 21.824 6.58092 22.2464 6.98287ZM23.9065 9.62002C24.5143 11.1435 24.8975 13.0531 24.9822 15.125H25.9825C25.8842 12.6727 25.3764 10.4415 24.5973 8.63074L23.9065 9.62002ZM24.9822 16.875C24.8975 18.9469 24.5143 20.8565 23.9065 22.38L24.5973 23.3693C25.3764 21.5585 25.8842 19.3273 25.9825 16.875H24.9822ZM22.9935 24.1291C22.7654 24.4611 22.5165 24.7601 22.2464 25.0171C21.824 25.4191 21.3278 25.737 20.7699 25.8936L20.5263 27.8417C21.6444 27.4962 22.7422 26.5859 23.6813 25.1143L22.9935 24.1291ZM19.0149 25.8242C18.544 25.6526 18.1209 25.3666 17.7536 25.0171C17.4181 24.6978 17.1152 24.3137 16.8444 23.8822L15.4064 25.2494C16.4049 26.7614 17.5742 27.6518 18.7534 27.9162L19.0149 25.8242ZM11.5381 27.861C11.8584 27.9536 12.1801 28 12.5 28H15.0766C14.6176 27.5444 14.1942 27.0255 13.8101 26.4589L11.5381 27.861ZM12.3862 25.2813L7.14051 22.7164C7.40958 23.4352 7.7195 24.0975 8.06288 24.6927C8.59315 25.6118 9.18175 26.3399 9.80123 26.8764L12.3862 25.2813ZM16.0368 22.2352C15.4619 20.7363 15.0998 18.8818 15.0178 16.875H13.0175C13.1212 19.4623 13.6807 21.8033 14.5338 23.6643L16.0368 22.2352ZM18.6534 9.00562C19.2779 9.05155 19.7952 9.37357 20.1855 9.76973C20.6038 10.1944 20.9345 10.7575 21.1908 11.3727C21.7053 12.6076 22 14.2441 22 16C22 17.7559 21.7053 19.3924 21.1908 20.6273C20.9345 21.2425 20.6038 21.8056 20.1855 22.2303C19.7952 22.6264 19.2779 22.9485 18.6534 22.9944C18.8123 23.2258 18.9734 23.417 19.1324 23.5683C19.4816 23.9007 19.7731 24 20 24C20.2269 24 20.5184 23.9007 20.8676 23.5683C21.222 23.2311 21.5866 22.6958 21.9146 21.9578C22.5695 20.4844 23 18.3789 23 16C23 13.6211 22.5695 11.5156 21.9146 10.0422C21.5866 9.30422 21.222 8.76892 20.8676 8.43166C20.5184 8.0993 20.2269 8 20 8C19.7731 8 19.4816 8.0993 19.1324 8.43166C18.9734 8.58298 18.8123 8.77416 18.6534 9.00562ZM17 16C17 17.5578 17.265 18.9213 17.6553 19.858C17.8514 20.3286 18.0594 20.6441 18.2393 20.8267C18.3264 20.9152 18.3942 20.9595 18.437 20.9805C18.4761 20.9997 18.4947 21 18.5 21C18.5053 21 18.5239 20.9997 18.563 20.9805C18.6058 20.9595 18.6736 20.9152 18.7607 20.8267C18.9406 20.6441 19.1486 20.3286 19.3447 19.858C19.735 18.9213 20 17.5578 20 16C20 14.4422 19.735 13.0787 19.3447 12.142C19.1486 11.6714 18.9406 11.3559 18.7607 11.1733C18.6736 11.0848 18.6058 11.0405 18.563 11.0195C18.5239 11.0003 18.5053 11 18.5 11C18.4947 11 18.4761 11.0003 18.437 11.0195C18.3942 11.0405 18.3264 11.0848 18.2393 11.1733C18.0594 11.3559 17.8514 11.6714 17.6553 12.142C17.265 13.0787 17 14.4422 17 16Z" fill="#000000" class="bmwfcol"/><title>snow-chains_rg_48</title></svg>