<svg width="48" height="48" viewBox="0 0 32 32" xmlns="http://www.w3.org/2000/svg"><path d="M14.3304 11.3304C14.2327 11.4281 14.1226 11.518 14 11.5981V13.7825C14.6662 13.5775 15.26 13.2292 15.7446 12.7446C16.5699 11.9193 17 10.7772 17 9.5C17 8.22275 16.5699 7.08067 15.7446 6.25539C15.0465 5.55726 14.1216 5.14191 13.0801 5.0305C12.298 3.13749 10.4985 2 8.25 2C6.77013 2 5.45751 2.49008 4.50368 3.42013C3.69842 4.20532 3.20304 5.25138 3.05053 6.44277C1.75642 7.09823 1 8.41541 1 10C1 11.1272 1.38011 12.1443 2.11789 12.8821C2.62968 13.3939 3.27587 13.7336 4 13.8937V11.7949C3.81484 11.707 3.65931 11.5951 3.53211 11.4679C3.21989 11.1557 3 10.6728 3 10C3 8.95685 3.51942 8.32286 4.28432 8.09698L4.98645 7.88964L5.00091 7.15768C5.02099 6.1409 5.37011 5.3687 5.89993 4.85208C6.43015 4.33508 7.21741 4 8.25 4C9.94108 4 11.0367 4.88917 11.3812 6.24811L11.5788 7.02778C11.8856 7.01789 12.193 7 12.5 7C13.3228 7 13.9307 7.26989 14.3304 7.66961C14.7301 8.06933 15 8.67725 15 9.5C15 10.3228 14.7301 10.9307 14.3304 11.3304Z" fill="#000000" class="bmwfcol"/><path d="M12 10.7622L10 12.7622V8H8L8 12.7639L6 10.7639V13.2388L8.99916 16.2379L12 13.2371V10.7622Z" fill="#000000" class="bmwfcol"/><path d="M19 15C20.8122 15 22.1754 15.2547 23.5269 15.7791C24.935 16.3254 26.2382 17.1138 27.5411 17.8685L29.9999 18.0837L30 20C30 20.6995 30.5354 21.1211 31 21.5858L31.0003 24.5773C29.8034 25.2684 28.5865 25.9601 27.1655 25.9952C26.6047 27.1803 25.3981 28 24 28C22.6038 28 21.3986 27.1825 20.8368 26H10.1632C9.60144 27.1825 8.39619 28 7 28C5.58797 28 4.37123 27.1638 3.81795 25.9596C2.86095 25.827 1.9305 25.52 1 25.2707L1.00027 20.4226C2.20612 19.7264 3.38894 19.0076 4.76518 18.7018C5.93254 18.4423 7.57816 18.2954 10.6006 18.0311C12.2706 16.6468 13.4632 15.8462 14.7097 15.4271C16.0887 14.9636 17.564 14.9999 19 15ZM27.4615 23.9791C28.0215 23.9347 28.5135 23.6836 29.0002 23.4165L29.0001 22.3995C28.3638 21.6935 28 20.8714 28 19.9163L26.9239 19.8222C25.583 19.0461 24.2524 18.2058 22.8035 17.6436C21.7104 17.2196 20.5964 17 19 17C17.2068 17 16.2773 17.0102 15.347 17.3229C13.8445 17.828 12.5943 18.9679 11.4015 19.9688C9.34668 20.1484 7.21885 20.2052 5.19911 20.6541C4.38084 20.836 3.89751 21.0682 3.00021 21.5788L3.00009 23.733C3.22405 23.7907 3.40571 23.8358 3.55633 23.8712C3.85255 22.2383 5.28167 21 7 21C8.76324 21 10.222 22.3039 10.4646 24H20.5354C20.778 22.3039 22.2368 21 24 21C25.756 21 27.2099 22.2931 27.4615 23.9791ZM5.5 24.5C5.5 25.3284 6.17157 26 7 26C7.82843 26 8.5 25.3284 8.5 24.5C8.5 23.6716 7.82843 23 7 23C6.17157 23 5.5 23.6716 5.5 24.5ZM22.5 24.5C22.5 25.3284 23.1716 26 24 26C24.8284 26 25.5 25.3284 25.5 24.5C25.5 23.6716 24.8284 23 24 23C23.1716 23 22.5 23.6716 22.5 24.5Z" fill="#000000" class="bmwfcol"/><title>software-update_rg_48</title></svg>