<svg width="48" height="48" viewBox="0 0 32 32" xmlns="http://www.w3.org/2000/svg"><path d="M11.5 3C11.5 3.44425 11.3069 3.84339 11 4.11805V5H11.5774C12.069 5.85155 12.6221 6.70387 12.8489 7.6715C13.0006 8.31904 13.0005 8.99284 13.0003 9.90022L13.0003 12.6289C13.3607 12.9162 13.6746 13.2604 14 13.5858V15.1642L13.1642 16L14 16.8358V18.4142C13.6748 18.7396 13.3603 19.0842 13 19.3713V26C13 26 12.9864 26.7119 12.9837 26.7857C12.9675 27.2408 12.9338 27.6381 12.8451 27.9925C12.6521 28.7646 12.2214 29.1942 11.7698 29.6445L11.4142 30H9V28H10.5803C10.8366 27.7301 10.8676 27.6563 10.9049 27.5075C10.9412 27.3619 10.97 27.1342 10.985 26.7143C10.9923 26.5102 10.996 26.2756 10.998 26H10.5723V27H8.82227V26H7V19.3713C6.6395 19.084 6.32551 18.7397 6 18.4142V16.8358L6.83579 16L6 15.1642V13.5858C6.32551 13.2603 6.63951 12.916 7.00003 12.6287L7.00001 9.90022C6.99982 8.99283 6.99967 8.31904 7.15144 7.6715C7.37824 6.70387 7.93128 5.85155 8.42292 5H9V4.11805C8.69313 3.84339 8.5 3.44425 8.5 3C8.5 2.17157 9.17157 1.5 10 1.5C10.8284 1.5 11.5 2.17157 11.5 3ZM11.0003 10C11.0003 8.95826 10.9944 8.52372 10.9016 8.12789C10.8329 7.83459 10.7082 7.53429 10.4161 7H9.58418C9.29207 7.53429 9.16742 7.83459 9.09867 8.12789C9.0059 8.52372 9.00003 8.95826 9.00003 10V12.0081C9.66526 11.9887 10.3351 11.9887 11.0003 12.0081V10ZM9 15.3358V16.6642L8.04222 17.622C8.32299 17.8897 8.49665 17.9655 8.8807 17.9858C9.62105 18.0247 10.379 18.0247 11.1193 17.9858C11.5034 17.9655 11.677 17.8897 11.9578 17.622L11 16.6642V15.3358L11.9578 14.378C11.677 14.1103 11.5034 14.0345 11.1193 14.0142C10.379 13.9753 9.62105 13.9753 8.8807 14.0142C8.49665 14.0345 8.32299 14.1103 8.04222 14.378L9 15.3358ZM9 19.9919V24H11V19.9919C10.3349 20.0113 9.66515 20.0113 9 19.9919Z" fill="#000000" class="bmwfcol"/><path d="M28.125 9.125L29.875 10.875V14.875H25.875L24.125 13.125H26.6893C25.5394 12.0618 24.5956 11.5 22.9995 11.5C21.5768 11.5 20.4689 11.9699 19.7191 12.7196C19.2579 13.1809 18.9026 13.7777 18.6974 14.5H16.6426C16.8902 13.2494 17.455 12.1553 18.3049 11.3054C19.4802 10.1301 21.1223 9.5 22.9995 9.5C25.3258 9.5 26.7797 10.4658 28.125 11.7208V9.125Z" fill="#000000" class="bmwfcol"/><path d="M27.6947 20.6946C28.5446 19.8447 29.1094 18.7506 29.357 17.5H27.3022C27.097 18.2223 26.7417 18.8191 26.2805 19.2804C25.5307 20.0301 24.4228 20.5 23.0001 20.5C21.404 20.5 20.4602 19.9382 19.3103 18.875H21.875L20.125 17.125H16.125V21.125L17.875 22.875V20.2796C19.2202 21.5344 20.674 22.5 23.0001 22.5C24.8773 22.5 26.5194 21.8699 27.6947 20.6946Z" fill="#000000" class="bmwfcol"/><title>spark-plug-service_rg_48</title></svg>