<svg width="48" height="48" viewBox="0 0 32 32" xmlns="http://www.w3.org/2000/svg"><path d="M20 4H18.2547L9.68473 10H5C4.0706 10 3.25429 10.396 2.71192 11.1821C2.20564 11.9158 2 12.8971 2 14V18C2 19.1029 2.20564 20.0842 2.71192 20.8179C3.25429 21.604 4.0706 22 5 22H9.68474L18.2547 28H20V4ZM9 20H5C4.6894 20 4.50571 19.896 4.35808 19.6821C4.17436 19.4158 4 18.8971 4 18V14C4 13.1029 4.17436 12.5842 4.35808 12.3179C4.50571 12.104 4.6894 12 5 12H9V20ZM18 25.3802L11 20.4794V11.5206L18 6.61979V25.3802Z" fill="#000000" class="bmwfcol"/><path d="M26.9571 23.9572C28.9198 21.9944 30 19.2273 30 16.0001C30 12.7728 28.9198 10.0057 26.9571 8.04297L25.5428 9.45718C27.0801 10.9944 28 13.2273 28 16.0001C28 18.7728 27.0801 21.0057 25.5428 22.543L26.9571 23.9572Z" fill="#000000" class="bmwfcol"/><path d="M23.3321 20.3322C24.4198 19.2444 25 17.7273 25 16.0001C25 14.2728 24.4198 12.7557 23.3321 11.668L21.9178 13.0822C22.5801 13.7444 23 14.7273 23 16.0001C23 17.2728 22.5801 18.2557 21.9178 18.918L23.3321 20.3322Z" fill="#000000" class="bmwfcol"/><title>speaker-waves_rg_48</title></svg>