<svg width="48" height="48" viewBox="0 0 32 32" xmlns="http://www.w3.org/2000/svg"><path d="M18.2547 4H20V16L18 14V6.61979L13.659 9.659L12.223 8.22295L18.2547 4Z" fill="#000000" class="bmwfcol"/><path d="M22.3645 18.3645L23.7989 19.7989C24.585 18.7714 25 17.4609 25 16.0001C25 14.2728 24.4198 12.7557 23.3321 11.668L21.9178 13.0822C22.5801 13.7444 23 14.7273 23 16.0001C23 16.9561 22.763 17.7486 22.3645 18.3645Z" fill="#000000" class="bmwfcol"/><path d="M28 16.0001C28 18.4728 27.2684 20.5162 26.0198 22.0198L27.4388 23.4388C29.0958 21.5201 30 18.9527 30 16.0001C30 12.7728 28.9198 10.0057 26.9571 8.04297L25.5428 9.45718C27.0801 10.9944 28 13.2273 28 16.0001Z" fill="#000000" class="bmwfcol"/><path d="M20 24L18 22V25.3802L11 20.4794V15L9 13V20H5C4.6894 20 4.50571 19.896 4.35808 19.6821C4.17436 19.4158 4 18.8971 4 18V14C4 13.1029 4.17436 12.5842 4.35808 12.3179C4.50571 12.104 4.6894 12 5 12H8L6 10H5C4.0706 10 3.25429 10.396 2.71192 11.1821C2.20564 11.9158 2 12.8971 2 14V18C2 19.1029 2.20564 20.0842 2.71192 20.8179C3.25429 21.604 4.0706 22 5 22H9.68474L18.2547 28H20V24Z" fill="#000000" class="bmwfcol"/><path d="M29.4141 28L5.41412 4H2.58569L26.5857 28H29.4141Z" fill="#000000" class="bmwfcol"/><title>speaker-muted_rg_48</title></svg>