<svg width="48" height="48" viewBox="0 0 32 32" xmlns="http://www.w3.org/2000/svg"><path d="M20.1351 4.05518H18.2441V11.9499H20.1351V8.73932H22.737V11.9499H24.628V4.05518H22.737V6.9179H20.1351V4.05518Z" fill="#000000" class="bmwfcol"/><path d="M27.57 8.56794C27.0065 8.56794 26.3389 8.72293 26.092 8.7822L25.9386 8.819V10.366L26.1871 10.3039C26.4319 10.2427 27.003 10.1011 27.411 10.1011C27.5424 10.1011 27.6363 10.1061 27.7046 10.1172C27.7736 10.1283 27.798 10.143 27.805 10.1484C27.8277 10.166 27.834 10.1775 27.8372 10.1849C27.8414 10.1948 27.8471 10.215 27.8471 10.2589C27.8471 10.2925 27.8368 10.3392 27.7685 10.4256C27.6969 10.5162 27.5783 10.6295 27.3892 10.7938L27.3883 10.7946C27.0697 11.0746 26.4624 11.5157 25.9537 11.8748L25.8691 11.9346V13.2421H29.7381V11.7686H28.4757C28.6497 11.6109 28.826 11.4395 28.9905 11.258L28.992 11.2563C29.1514 11.0764 29.2788 10.9068 29.3643 10.714C29.4512 10.5183 29.4896 10.3107 29.4896 10.0601C29.4896 9.60615 29.286 9.17553 28.9411 8.92503C28.6137 8.68011 28.1366 8.56794 27.57 8.56794Z" fill="#000000" class="bmwfcol"/><path d="M11.0858 17.7499H14.236L15 18.1319L15.7639 17.7499H18.9142L20 18.8357L20 21.781L18.6458 23.9999H15.3358L15 23.6641L14.6642 23.9999H11.403L9.99997 21.7906V18.8357L11.0858 17.7499ZM12 19.7499V21.2092L12.5021 21.9999H13.8358L14 21.8356V19.868L13.7639 19.7499H12ZM16 19.8679V21.8358L16.1642 21.9999H17.5233L18 21.2189L18 19.7499H16.236L16 19.8679Z" fill="#000000" class="bmwfcol"/><path d="M21.4599 14C21.573 14.1816 21.6816 14.3659 21.7839 14.5472C21.7134 14.5434 21.6415 14.5399 21.5683 14.5366C20.5292 14.4904 19.0796 14.4933 17.069 14.4973C16.4364 14.4986 15.7483 14.5 15 14.5C14.2518 14.5 13.5637 14.4986 12.931 14.4973C10.9202 14.4933 9.46991 14.4904 8.43016 14.5366C8.35736 14.5399 8.2859 14.5434 8.21577 14.5471C8.32539 14.3529 8.44209 14.1552 8.56383 13.9612C8.8113 13.5667 9.06658 13.2081 9.31254 12.9287C9.57258 12.6334 9.75816 12.5011 9.85112 12.4602C10.6366 12.1155 11.0888 12 15 12C15.362 12 15.6943 12.001 16.0001 12.0031V10.0026C15.6907 10.0008 15.3582 10 15 10C14.6419 10 14.3094 10.0008 14.0001 10.0026V9H16.0001V7H11.0001C10.9737 7 10.9458 6.99983 10.9166 6.99966C10.4912 6.99714 9.78804 6.99296 9.1959 7.47354C8.61185 7.94756 8.30053 8.74703 8.03415 9.74117L8.00006 9.8684L8.00021 10.9143L8.24842 11.1625C8.0892 11.3052 7.94324 11.4574 7.81154 11.607C7.46893 11.9961 7.14956 12.4521 6.8696 12.8984C6.68621 13.1907 6.51411 13.488 6.35789 13.7729C6.04572 13.6526 5.7161 13.587 5.36419 13.5501C4.85061 13.4962 4.20772 13.4976 3.43406 13.4993L3.43246 13.4993C3.29264 13.4996 3.1484 13.4999 3.00003 13.4999V15.4999C3.16302 15.4999 3.31588 15.4997 3.4596 15.4995C4.24458 15.4982 4.75737 15.4974 5.15545 15.5392C5.18299 15.542 5.2094 15.5451 5.23475 15.5483C4.76168 15.9938 4.30844 16.4451 3.94468 16.8888C3.47466 17.4621 3 18.2011 3 19.0428V28H9V26.82C13.0547 27.0733 16.9453 27.0733 21 26.82V28H27V19.0428C27 18.2011 26.5253 17.4621 26.0553 16.8888C25.5799 16.3089 24.9516 15.7159 24.326 15.1402C24.1966 14.8527 24.003 14.4484 23.7645 14H21.4599ZM11.0001 9H12.0001V10.0439C11.2019 10.0801 10.6415 10.1436 10.1656 10.2512L10.0107 10.0963C10.119 9.71382 10.215 9.45323 10.3002 9.27518C10.3845 9.09887 10.4407 9.04072 10.4535 9.02889C10.4598 9.02683 10.4745 9.02269 10.5014 9.01833C10.5982 9.00261 10.7273 9 11.0001 9ZM6.83284 16.7924C6.86649 16.7697 6.95468 16.723 7.16186 16.6758C7.44441 16.6114 7.86638 16.5637 8.51906 16.5346C9.50831 16.4906 10.8904 16.4934 12.881 16.4973C13.5219 16.4986 14.2258 16.5 15 16.5C15.7739 16.5 16.4785 16.4986 17.1191 16.4973C19.1093 16.4934 20.4907 16.4906 21.4793 16.5346C22.1316 16.5637 22.5531 16.6114 22.8353 16.6758C23.1078 16.7379 23.1744 16.7992 23.1818 16.806C23.6966 17.2842 24.1331 17.709 24.4618 18.1004C23.4914 18.3018 22.4301 18.4198 21 18.5216V20.5266C22.5955 20.4161 23.8275 20.2839 25 20.0306V26H23V24.6744L21.9273 24.7526C17.2201 25.0958 12.7799 25.0958 8.0727 24.7526L7 24.6744V26H5V20.0306C6.17249 20.2839 7.40455 20.4161 9.00003 20.5266V18.5216C7.56992 18.4198 6.50858 18.3018 5.53819 18.1004C5.87 17.7053 6.31165 17.2761 6.83284 16.7924Z" fill="#000000" class="bmwfcol"/><title>special_vehicle_hydrogen_rg_48</title></svg>