<svg width="48" height="48" viewBox="0 0 32 32" xmlns="http://www.w3.org/2000/svg"><path d="M6.14251 7.54276C5.95896 7.61569 5.87818 7.68262 5.78086 7.77994C5.67246 7.88834 5.59569 7.98569 5.52214 8.14488C5.4402 8.3222 5.34715 8.6105 5.26459 9.11628C5.09697 10.1432 5 11.8792 5 14.9991V26.0849L8.08579 22.9991H16C20.6246 22.9991 23.126 22.9025 24.5477 22.7288C25.2568 22.6422 25.6379 22.5427 25.8575 22.4554C26.041 22.3825 26.1218 22.3155 26.2191 22.2182C26.3275 22.1098 26.4043 22.0125 26.4779 21.8533C26.5598 21.676 26.6528 21.3877 26.7354 20.8819C26.903 19.855 27 18.119 27 14.9991C27 11.8792 26.903 10.1432 26.7354 9.11628C26.6528 8.6105 26.5598 8.3222 26.4779 8.14488C26.4043 7.98569 26.3275 7.88834 26.2191 7.77994C26.1218 7.68262 26.041 7.61569 25.8575 7.54276C25.6379 7.45549 25.2568 7.35599 24.5477 7.26936C23.126 7.0957 20.6246 6.99908 16 6.99908C11.3754 6.99908 8.87402 7.0957 7.45235 7.26936C6.74321 7.35599 6.3621 7.45549 6.14251 7.54276ZM7.20984 5.28412C8.76848 5.09372 11.3846 4.99908 16 4.99908C20.6154 4.99908 23.2315 5.09372 24.7902 5.28412C25.5712 5.37952 26.1459 5.50525 26.5961 5.68412C27.0822 5.87732 27.3851 6.11742 27.6334 6.36573C27.8706 6.60295 28.1008 6.8892 28.2934 7.30599C28.4776 7.70464 28.6098 8.1847 28.7093 8.79408C28.9057 9.9975 29 11.879 29 14.9991C29 18.1192 28.9057 20.0007 28.7093 21.2041C28.6098 21.8135 28.4776 22.2935 28.2934 22.6922C28.1008 23.109 27.8706 23.3952 27.6334 23.6324C27.3851 23.8807 27.0822 24.1208 26.5961 24.314C26.1459 24.4929 25.5712 24.6186 24.7902 24.7141C23.2315 24.9044 20.6154 24.9991 16 24.9991H8.91421L4.91421 28.9991H3V14.9991C3 11.879 3.09428 9.9975 3.29072 8.79408C3.39019 8.1847 3.52238 7.70464 3.70657 7.30599C3.89915 6.8892 4.12942 6.60295 4.36664 6.36573C4.61495 6.11742 4.91776 5.87732 5.40394 5.68412C5.85407 5.50525 6.42882 5.37952 7.20984 5.28412Z" fill="#000000" class="bmwfcol"/><path d="M12.3803 21H10.2486C10.6098 19.8676 11.0846 18.9831 12.0226 18.4892C12.5542 18.2093 13.1517 18.1004 13.7732 18.0493C14.3844 17.9991 15.1187 17.9991 15.9628 17.9991H16.0374C16.8815 17.9991 17.6158 17.9991 18.227 18.0493C18.8485 18.1004 19.446 18.2093 19.9776 18.4892C20.9156 18.9831 21.3904 19.8676 21.7516 21H19.6199C19.4098 20.5201 19.2274 20.3545 19.0458 20.2589C18.8652 20.1638 18.5819 20.0853 18.0631 20.0426C17.5432 19.9998 16.8903 19.9991 16.0001 19.9991C15.1099 19.9991 14.457 19.9998 13.937 20.0426C13.4183 20.0853 13.1349 20.1638 12.9544 20.2589C12.7728 20.3545 12.5904 20.5201 12.3803 21Z" fill="#000000" class="bmwfcol"/><path d="M14.9201 11.3122C14.737 11.5006 14.5 11.9418 14.5 12.9991C14.5 14.0564 14.737 14.4976 14.9201 14.6859C15.094 14.8648 15.3981 14.9991 16 14.9991C16.6019 14.9991 16.906 14.8648 17.0799 14.6859C17.263 14.4976 17.5 14.0564 17.5 12.9991C17.5 11.9418 17.263 11.5006 17.0799 11.3122C16.906 11.1334 16.6019 10.9991 16 10.9991C15.3981 10.9991 15.094 11.1334 14.9201 11.3122ZM13.4861 9.91808C14.1976 9.18624 15.1436 8.99908 16 8.99908C16.8564 8.99908 17.8024 9.18624 18.5139 9.91808C19.2162 10.6404 19.5 11.6993 19.5 12.9991C19.5 14.2989 19.2162 15.3577 18.5139 16.0801C17.8024 16.8119 16.8564 16.9991 16 16.9991C15.1436 16.9991 14.1976 16.8119 13.4861 16.0801C12.7838 15.3577 12.5 14.2989 12.5 12.9991C12.5 11.6993 12.7838 10.6404 13.4861 9.91808Z" fill="#000000" class="bmwfcol"/><title>speech_bubble_with_person_rg_48</title></svg>