<svg width="48" height="48" viewBox="0 0 32 32" xmlns="http://www.w3.org/2000/svg"><path d="M21.1933 8.05859C19.6637 4.49551 16.1233 2 12 2C6.47715 2 2 6.47715 2 12C2 16.1233 4.49551 19.6637 8.05859 21.1933C8.01984 20.8008 8 20.4027 8 20C8 19.6481 8.01515 19.2997 8.04483 18.9555C5.62892 17.5787 4 14.9796 4 12C4 10.1512 4.62712 8.44892 5.68025 7.09422L10.8371 12.251C11.473 11.4998 12.1996 10.8279 13 10.2521V8.25H14.1651L12 4.5L9.83496 8.25H11V9.58554L7.09449 5.68004C8.44915 4.62704 10.1514 4 12 4C14.9796 4 17.5787 5.62892 18.9555 8.04483C19.2997 8.01515 19.6481 8 20 8C20.4027 8 20.8008 8.01984 21.1933 8.05859Z" fill="#000000" class="bmwfcol"/><path d="M9.52495 14.1412L8.00002 11.5L5.83496 15.25H7V17H8.37805C8.63816 15.9894 9.02659 15.0304 9.52495 14.1412Z" fill="#000000" class="bmwfcol"/><path d="M20 11C15.0294 11 11 15.0294 11 20C11 24.9706 15.0294 29 20 29C24.9706 29 29 24.9706 29 20C29 15.0294 24.9706 11 20 11ZM9 20C9 13.9249 13.9249 9 20 9C26.0751 9 31 13.9249 31 20C31 26.0751 26.0751 31 20 31C13.9249 31 9 26.0751 9 20Z" fill="#000000" class="bmwfcol"/><path d="M26.4845 17.0058C26.0594 16.6332 25.5105 16.4328 24.9454 16.4438C24.3791 16.4331 23.8291 16.6333 23.4022 17.0054C22.9894 17.3793 22.7339 17.9254 22.7339 18.609V21.3896C22.7339 22.073 22.9894 22.6196 23.4022 22.9931C23.8291 23.3652 24.3791 23.5654 24.9454 23.5547C25.5105 23.5658 26.0595 23.3653 26.4845 22.9927C26.8945 22.6186 27.1476 22.0727 27.1476 21.3896V18.6087C27.1476 17.9262 26.8949 17.3796 26.4845 17.0058ZM24.3389 18.6275C24.3287 18.4376 24.3906 18.2508 24.5122 18.1046C24.5677 18.0461 24.6351 18.0002 24.7098 17.9698C24.7845 17.9394 24.8648 17.9253 24.9454 17.9284C25.025 17.9251 25.1044 17.939 25.1782 17.9692C25.252 17.9994 25.3183 18.0452 25.3728 18.1034C25.4927 18.2508 25.5533 18.4377 25.5428 18.6275V21.3806C25.5538 21.5685 25.4935 21.7536 25.374 21.899C25.3189 21.9564 25.2522 22.0014 25.1783 22.031C25.1044 22.0606 25.0251 22.074 24.9456 22.0705C24.8651 22.0738 24.7849 22.0602 24.7101 22.0304C24.6353 22.0007 24.5676 21.9555 24.5114 21.8978C24.3901 21.7537 24.3284 21.5687 24.3391 21.3806L24.3389 18.6275Z" fill="#000000" class="bmwfcol"/><path d="M19.6341 16.4438C19.0679 16.4331 18.5179 16.6333 18.0909 17.0054C17.6781 17.3793 17.4226 17.9254 17.4226 18.609V21.3896C17.4226 22.073 17.6781 22.6196 18.0909 22.9931C18.5179 23.3652 19.0679 23.5654 19.6341 23.5547C20.1993 23.5658 20.7482 23.3653 21.1732 22.9927C21.5832 22.6186 21.8363 22.0727 21.8363 21.3896V18.6087C21.8363 17.9259 21.5836 17.3797 21.1732 17.0055C20.7481 16.633 20.1992 16.4327 19.6341 16.4438ZM19.0276 18.6275C19.0174 18.4376 19.0793 18.2508 19.2009 18.1046C19.2565 18.0461 19.3238 18.0002 19.3985 17.9698C19.4732 17.9394 19.5535 17.9253 19.6341 17.9284C19.7137 17.9251 19.7932 17.939 19.8669 17.9692C19.9407 17.9994 20.0071 18.0452 20.0615 18.1034C20.1814 18.2508 20.2421 18.4377 20.2315 18.6275V21.3806C20.2425 21.5685 20.1822 21.7536 20.0627 21.899C20.0076 21.9564 19.9409 22.0014 19.867 22.031C19.7931 22.0606 19.7138 22.0741 19.6343 22.0705C19.5539 22.0738 19.4736 22.0602 19.3988 22.0304C19.324 22.0007 19.2563 21.9555 19.2001 21.8978C19.0788 21.7537 19.0171 21.5687 19.0278 21.3806L19.0276 18.6275Z" fill="#000000" class="bmwfcol"/><path d="M13.2979 19.6042L14.6418 18.4365V23.5H16.2469V16.5H14.767L13.2979 17.7766V19.6042Z" fill="#000000" class="bmwfcol"/><title>speed-limit-info-jp_rg_48</title></svg>