<svg width="48" height="48" viewBox="0 0 32 32" xmlns="http://www.w3.org/2000/svg"><path d="M21.0248 3C20.6641 4.08055 20.3969 4.86607 20.134 5.47937C19.8534 6.13428 19.6052 6.52405 19.3146 6.81468C19.0239 7.1053 18.6342 7.35349 17.9793 7.63417C17.3659 7.89701 16.5804 8.16424 15.4999 8.52492V10.4751C16.5804 10.8358 17.3659 11.103 17.9793 11.3658C18.6342 11.6465 19.0239 11.8947 19.3146 12.1853C19.6052 12.476 19.8534 12.8657 20.134 13.5206C20.3969 14.1339 20.6641 14.9195 21.0248 16H22.975C23.3356 14.9195 23.6029 14.1339 23.8657 13.5206C24.1464 12.8657 24.3946 12.476 24.6852 12.1853C24.9758 11.8947 25.3656 11.6465 26.0205 11.3658C26.6338 11.103 27.4193 10.8358 28.4999 10.4751V8.52492C27.4193 8.16424 26.6338 7.89701 26.0205 7.63417C25.3656 7.35349 24.9758 7.1053 24.6852 6.81468C24.3946 6.52405 24.1464 6.13428 23.8657 5.47937C23.6029 4.86607 23.3356 4.08055 22.975 3H21.0248ZM18.708 9.66542C18.5793 9.61027 18.4448 9.55528 18.3041 9.5C18.4448 9.44472 18.5793 9.38973 18.708 9.33458C19.475 9.00588 20.1008 8.6447 20.6227 8.12282C21.1446 7.60095 21.5058 6.9751 21.8345 6.20813C21.8896 6.07946 21.9446 5.9449 21.9999 5.80424C22.0552 5.9449 22.1102 6.07946 22.1653 6.20813C22.494 6.9751 22.8552 7.60095 23.3771 8.12282C23.8989 8.6447 24.5248 9.00588 25.2918 9.33458C25.4204 9.38973 25.555 9.44472 25.6956 9.5C25.555 9.55528 25.4204 9.61027 25.2918 9.66542C24.5248 9.99412 23.8989 10.3553 23.3771 10.8772C22.8552 11.3991 22.494 12.0249 22.1653 12.7919C22.1102 12.9205 22.0552 13.0551 21.9999 13.1958C21.9446 13.0551 21.8896 12.9205 21.8345 12.7919C21.5058 12.0249 21.1446 11.3991 20.6227 10.8772C20.1008 10.3553 19.475 9.99412 18.708 9.66542Z" fill="#000000" class="bmwfcol"/><path d="M14 5.00679C10.6013 5.03154 8.52761 5.12406 7.20984 5.28504C6.42882 5.38044 5.85407 5.50617 5.40394 5.68504C4.91776 5.87824 4.61495 6.11834 4.36664 6.36664C4.12942 6.60387 3.89916 6.89011 3.70657 7.3069C3.52238 7.70556 3.39019 8.18561 3.29072 8.79499C3.09428 9.99842 3 11.8799 3 15V29H4.91421L8.91421 25H16C20.6154 25 23.2315 24.9054 24.7902 24.715C25.5712 24.6196 26.1459 24.4938 26.5961 24.315C27.0822 24.1218 27.3851 23.8817 27.6334 23.6334C27.8706 23.3961 28.1008 23.1099 28.2934 22.6931C28.4776 22.2944 28.6098 21.8144 28.7093 21.205C28.9057 20.0016 29 18.1201 29 15C29 14.4645 28.9972 13.9654 28.9916 13.5H26.9914C26.9971 13.9608 27 14.4597 27 15C27 18.1199 26.903 19.8559 26.7354 20.8828C26.6528 21.3886 26.5598 21.6769 26.4779 21.8542C26.4043 22.0134 26.3275 22.1107 26.2191 22.2191C26.1218 22.3165 26.041 22.3834 25.8575 22.4563C25.6379 22.5436 25.2568 22.6431 24.5477 22.7297C23.126 22.9034 20.6246 23 16 23H8.08579L5 26.0858V15C5 11.8801 5.09697 10.1441 5.26459 9.1172C5.34715 8.61142 5.4402 8.32312 5.52214 8.14579C5.59569 7.98661 5.67246 7.88926 5.78086 7.78086C5.87818 7.68354 5.95896 7.61661 6.14251 7.54367C6.3621 7.45641 6.74321 7.3569 7.45235 7.27028C8.65382 7.12351 10.6264 7.03178 14 7.00688V5.00679Z" fill="#000000" class="bmwfcol"/><path d="M10.4145 12.8428C10.6095 12.3877 10.8086 11.8054 11.0776 11H12.9224C13.1914 11.8054 13.3905 12.3877 13.5855 12.8428C13.7972 13.3367 13.9781 13.6156 14.1812 13.8188C14.3843 14.0219 14.6633 14.2028 15.1572 14.4145C15.6123 14.6095 16.1945 14.8085 17 15.0776V16.9224C16.1945 17.1914 15.6123 17.3904 15.1572 17.5855C14.6633 17.7971 14.3843 17.9781 14.1812 18.1812C13.9781 18.3843 13.7972 18.6633 13.5855 19.1572C13.3905 19.6122 13.1914 20.1945 12.9224 21H11.0776C10.8086 20.1945 10.6095 19.6122 10.4145 19.1572C10.2028 18.6633 10.0219 18.3843 9.81878 18.1812C9.61566 17.9781 9.33669 17.7971 8.84282 17.5855C8.38772 17.3904 7.80547 17.1914 7 16.9224V15.0776C7.80547 14.8085 8.38772 14.6095 8.84282 14.4145C9.33669 14.2028 9.61566 14.0219 9.81878 13.8188C10.0219 13.6156 10.2028 13.3367 10.4145 12.8428ZM9.58539 16C10.1618 16.2513 10.6469 16.5344 11.0562 16.9438C11.4656 17.3531 11.7487 17.8381 12 18.4146C12.2513 17.8381 12.5344 17.3531 12.9438 16.9438C13.3531 16.5344 13.8382 16.2513 14.4146 16C13.8382 15.7487 13.3531 15.4655 12.9438 15.0562C12.5344 14.6469 12.2513 14.1618 12 13.5854C11.7487 14.1618 11.4656 14.6469 11.0562 15.0562C10.6469 15.4655 10.1618 15.7487 9.58539 16Z" fill="#000000" class="bmwfcol"/><title>speech_bubble_sparkles_rg_48</title></svg>