<svg width="48" height="48" viewBox="0 0 32 32" xmlns="http://www.w3.org/2000/svg"><path d="M10 10H30V30H10V10ZM12 12V28H28V12H12Z" fill="#000000" class="bmwfcol"/><path d="M25.6816 19.2169C25.1994 18.7219 24.4931 18.4349 23.5975 18.4349C23.1294 18.4202 22.663 18.4969 22.2242 18.6607L22.2765 17.8699H25.9458V16.0049H20.5029L20.2202 20.1379L21.9016 20.7579C22.3048 20.4716 22.8758 20.2643 23.3701 20.278C23.6513 20.2633 23.9294 20.3425 24.1608 20.503C24.34 20.643 24.4608 20.864 24.4608 21.207C24.4608 21.559 24.3348 21.808 24.113 21.976C23.883 22.15 23.5248 22.254 23.033 22.254C22.2002 22.254 21.447 21.9448 20.7343 21.542L19.802 23.173L19.965 23.275C20.956 23.894 21.9048 24.1185 23.0329 24.1185C23.9972 24.1185 24.8395 23.8745 25.4446 23.3725C26.0546 22.8665 26.4011 22.1155 26.4011 21.1515C26.4015 20.3949 26.1627 19.7119 25.6816 19.2169Z" fill="#000000" class="bmwfcol"/><path d="M13.512 16.0049V17.8479H17.1589C15.8831 19.4509 15.1395 21.6513 15.1395 23.9999H17.0911C17.0911 21.4299 18.0443 19.2849 19.5482 17.8119L19.6082 17.7539V16.0049H13.512Z" fill="#000000" class="bmwfcol"/><path d="M21 9V3H3V21H9V19H5V5H19V9H21Z" fill="#000000" class="bmwfcol"/><path d="M14.6117 9C14.7605 8.74348 14.8413 8.42068 14.8413 8.04705C14.8413 7.56105 14.7068 7.16305 14.4636 6.88505C14.3393 6.7455 14.186 6.6348 14.0144 6.5607C13.8429 6.48659 13.6572 6.45088 13.4703 6.45606C13.282 6.45114 13.0949 6.48732 12.9221 6.5621C12.7492 6.63688 12.5947 6.74846 12.4693 6.88905C12.2236 7.16905 12.0869 7.56906 12.0869 8.05506C12.0869 8.42607 12.1653 8.74579 12.3108 9H14.6117ZM13.0479 7.42906C13.0954 7.36562 13.1574 7.31458 13.2288 7.28028C13.3002 7.24598 13.3788 7.22943 13.4579 7.23205C13.5384 7.23011 13.6182 7.24744 13.6907 7.28257C13.7631 7.31771 13.8261 7.36964 13.8744 7.43405C13.9975 7.6169 14.0575 7.83498 14.0451 8.05506C14.0581 8.27343 14.0002 8.49015 13.8802 8.67305C13.8328 8.73649 13.7708 8.78754 13.6994 8.82184C13.628 8.85614 13.5494 8.87267 13.4702 8.87005C13.3897 8.872 13.3099 8.85468 13.2375 8.81955C13.165 8.78441 13.102 8.73248 13.0537 8.66806C12.9306 8.48524 12.8706 8.26714 12.8829 8.04705C12.87 7.82866 12.9279 7.61195 13.0479 7.42906Z" fill="#000000" class="bmwfcol"/><path d="M11.5887 9C11.7637 8.75896 11.8686 8.4439 11.8686 8.05089C11.8686 7.50189 11.7092 7.10889 11.4255 6.85489C11.1438 6.60189 10.7555 6.50189 10.3279 6.50189H9.32117V9H11.5887ZM10.2865 8.83689H10.1008V7.26489H10.3072C10.5993 7.26489 10.7836 7.33489 10.8972 7.45489C11.0108 7.57489 11.0727 7.76689 11.0727 8.05089C11.0859 8.25891 11.0187 8.46405 10.8849 8.62389C10.763 8.75389 10.5711 8.83689 10.2865 8.83689Z" fill="#000000" class="bmwfcol"/><path d="M9 10.9346L8.73978 10.5461L8.70978 10.5021H8.00168V13.5998H8.77268C8.77268 13.4474 8.77308 13.2951 8.77349 13.1427C8.77455 12.7455 8.77561 12.3483 8.76948 11.9512C8.84583 12.0675 8.92273 12.1834 9 12.2991V10.9346Z" fill="#000000" class="bmwfcol"/><path d="M9 14.8029C8.98322 14.786 8.96578 14.7696 8.94772 14.7539C8.72935 14.5819 8.45723 14.4927 8.17942 14.5019H6.81262V17.5999H7.59262V16.5729H8.13012C8.42139 16.5872 8.7086 16.4999 8.94262 16.3259C8.96256 16.3094 8.9817 16.2921 9 16.274V14.8029ZM8.40772 15.7419C8.33834 15.7933 8.25253 15.8175 8.16652 15.8099H7.59172V15.2649H8.15822C8.24479 15.2584 8.33094 15.2821 8.40202 15.3319C8.42972 15.3571 8.45122 15.3883 8.46484 15.4232C8.47846 15.4581 8.48382 15.4956 8.48052 15.5329C8.48439 15.5709 8.47992 15.6093 8.46744 15.6454C8.45495 15.6815 8.43424 15.7144 8.40772 15.7419Z" fill="#000000" class="bmwfcol"/><title>speed-limit-info-us_rg_48</title></svg>