<svg width="48" height="48" viewBox="0 0 32 32" xmlns="http://www.w3.org/2000/svg"><path d="M6.14251 7.54367C5.95896 7.61661 5.87818 7.68353 5.78086 7.78086C5.67246 7.88926 5.59569 7.98661 5.52214 8.14579C5.4402 8.32312 5.34715 8.61142 5.26459 9.1172C5.09697 10.1441 5 11.8801 5 15V26.0858L8.08579 23H16C20.6246 23 23.126 22.9034 24.5477 22.7297C25.2568 22.6431 25.6379 22.5436 25.8575 22.4563C26.041 22.3834 26.1218 22.3165 26.2191 22.2191C26.3275 22.1107 26.4043 22.0134 26.4779 21.8542C26.5598 21.6769 26.6528 21.3886 26.7354 20.8828C26.903 19.8559 27 18.1199 27 15C27 11.8801 26.903 10.1441 26.7354 9.1172C26.6528 8.61142 26.5598 8.32312 26.4779 8.14579C26.4043 7.98661 26.3275 7.88926 26.2191 7.78086C26.1218 7.68353 26.041 7.61661 25.8575 7.54367C25.6379 7.45641 25.2568 7.3569 24.5477 7.27028C23.126 7.09661 20.6246 7 16 7C11.3754 7 8.87402 7.09661 7.45235 7.27028C6.74321 7.3569 6.3621 7.45641 6.14251 7.54367ZM7.20984 5.28503C8.76848 5.09464 11.3846 5 16 5C20.6154 5 23.2315 5.09464 24.7902 5.28503C25.5712 5.38044 26.1459 5.50617 26.5961 5.68504C27.0822 5.87823 27.3851 6.11834 27.6334 6.36664C27.8706 6.60387 28.1008 6.89011 28.2934 7.3069C28.4776 7.70556 28.6098 8.18561 28.7093 8.79499C28.9057 9.99842 29 11.8799 29 15C29 18.1201 28.9057 20.0016 28.7093 21.205C28.6098 21.8144 28.4776 22.2944 28.2934 22.6931C28.1008 23.1099 27.8706 23.3961 27.6334 23.6334C27.3851 23.8817 27.0822 24.1218 26.5961 24.315C26.1459 24.4938 25.5712 24.6196 24.7902 24.715C23.2315 24.9054 20.6154 25 16 25H8.91421L4.91421 29H3V15C3 11.8799 3.09428 9.99842 3.29072 8.79499C3.39019 8.18561 3.52238 7.70556 3.70657 7.3069C3.89915 6.89011 4.12942 6.60387 4.36664 6.36664C4.61495 6.11834 4.91776 5.87823 5.40394 5.68504C5.85407 5.50617 6.42882 5.38044 7.20984 5.28503Z" fill="#000000" class="bmwfcol"/><path d="M14.9293 19.9999H16.9127V17.8565H14.9293V19.9999Z" fill="#000000" class="bmwfcol"/><path d="M14.9742 16.1399L14.9056 16.5343H16.8944L16.9386 16.2551C16.9932 16.1097 17.0721 15.9336 17.2697 15.727C17.6108 15.3659 17.9254 15.0209 18.2092 14.6763C18.4803 14.3438 18.6656 14.0571 18.7814 13.7586C18.898 13.4581 18.94 13.1569 18.94 12.8017C18.94 12.2192 18.6468 11.5845 18.1792 11.2278C17.686 10.8445 17.1011 10.7001 16.3185 10.7001C15.3765 10.7001 14.6195 10.8743 14.1473 10.9848L14.0069 11.0177V12.7149L14.2256 12.6697C14.8082 12.5492 15.4202 12.4235 16.0385 12.4235C16.272 12.4235 16.454 12.4312 16.5991 12.4559C16.7429 12.4804 16.8383 12.5204 16.9057 12.5744C17.0354 12.6767 17.0766 12.8119 17.0766 12.9916C17.0766 13.3067 16.8713 13.6117 16.6177 13.8752C16.2974 14.2055 15.8419 14.6911 15.5562 15.0483C15.2729 15.405 15.0813 15.7757 14.9742 16.1399Z" fill="#000000" class="bmwfcol"/><title>speech-bubble-question_rg_48</title></svg>