<svg width="48" height="48" viewBox="0 0 32 32" xmlns="http://www.w3.org/2000/svg"><path d="M10.5 12.5C10.5 11.6716 11.1716 11 12 11C12.8284 11 13.5 11.6716 13.5 12.5C13.5 13.3284 12.8284 14 12 14C11.1716 14 10.5 13.3284 10.5 12.5Z" fill="#000000" class="bmwfcol"/><path d="M18.5 12.5C18.5 11.6716 19.1716 11 20 11C20.8284 11 21.5 11.6716 21.5 12.5C21.5 13.3284 20.8284 14 20 14C19.1716 14 18.5 13.3284 18.5 12.5Z" fill="#000000" class="bmwfcol"/><path d="M10.4014 18.5798C11.6789 19.5344 13.6934 19.9998 15.9999 19.9998C18.3064 19.9998 20.3209 19.5344 21.5985 18.5798L20.4014 16.9777C19.6243 17.5583 18.1196 17.9998 15.9999 17.9998C13.8802 17.9998 12.3756 17.5583 11.5985 16.9777L10.4014 18.5798Z" fill="#000000" class="bmwfcol"/><path d="M16 5C11.3846 5 8.76848 5.09464 7.20984 5.28503C6.42882 5.38044 5.85407 5.50617 5.40394 5.68504C4.91776 5.87823 4.61495 6.11834 4.36664 6.36664C4.12942 6.60387 3.89915 6.89011 3.70657 7.3069C3.52238 7.70556 3.39019 8.18561 3.29072 8.79499C3.09428 9.99842 3 11.8799 3 15V29H4.91421L8.91421 25H16C20.6154 25 23.2315 24.9054 24.7902 24.715C25.5712 24.6196 26.1459 24.4938 26.5961 24.315C27.0822 24.1218 27.3851 23.8817 27.6334 23.6334C27.8706 23.3961 28.1008 23.1099 28.2934 22.6931C28.4776 22.2944 28.6098 21.8144 28.7093 21.205C28.9057 20.0016 29 18.1201 29 15C29 11.8799 28.9057 9.99842 28.7093 8.79499C28.6098 8.18561 28.4776 7.70556 28.2934 7.3069C28.1008 6.89011 27.8706 6.60387 27.6334 6.36664C27.3851 6.11834 27.0822 5.87823 26.5961 5.68504C26.1459 5.50617 25.5712 5.38044 24.7902 5.28503C23.2315 5.09464 20.6154 5 16 5ZM5.78086 7.78086C5.87818 7.68353 5.95896 7.61661 6.14251 7.54367C6.3621 7.45641 6.74321 7.3569 7.45235 7.27028C8.87402 7.09661 11.3754 7 16 7C20.6246 7 23.126 7.09661 24.5477 7.27028C25.2568 7.3569 25.6379 7.45641 25.8575 7.54367C26.041 7.61661 26.1218 7.68353 26.2191 7.78086C26.3275 7.88926 26.4043 7.98661 26.4779 8.14579C26.5598 8.32312 26.6528 8.61142 26.7354 9.1172C26.903 10.1441 27 11.8801 27 15C27 18.1199 26.903 19.8559 26.7354 20.8828C26.6528 21.3886 26.5598 21.6769 26.4779 21.8542C26.4043 22.0134 26.3275 22.1107 26.2191 22.2191C26.1218 22.3165 26.041 22.3834 25.8575 22.4563C25.6379 22.5436 25.2568 22.6431 24.5477 22.7297C23.126 22.9034 20.6246 23 16 23H8.08579L5 26.0858V15C5 11.8801 5.09697 10.1441 5.26459 9.1172C5.34715 8.61142 5.4402 8.32312 5.52214 8.14579C5.59569 7.98661 5.67246 7.88926 5.78086 7.78086Z" fill="#000000" class="bmwfcol"/><title>speech_bubble_face_rg_48</title></svg>