<svg width="48" height="48" viewBox="0 0 32 32" xmlns="http://www.w3.org/2000/svg"><path d="M10.5 12.5C10.5 11.6716 11.1716 11 12 11C12.8284 11 13.5 11.6716 13.5 12.5C13.5 13.3284 12.8284 14 12 14C11.1716 14 10.5 13.3284 10.5 12.5Z" fill="#000000" class="bmwfcol"/><path d="M18.5 12.5C18.5 11.6716 19.1716 11 20 11C20.8284 11 21.5 11.6716 21.5 12.5C21.5 13.3284 20.8284 14 20 14C19.1716 14 18.5 13.3284 18.5 12.5Z" fill="#000000" class="bmwfcol"/><path d="M10.4014 18.5798C11.6789 19.5344 13.6934 19.9998 15.9999 19.9998C18.3064 19.9998 20.3209 19.5344 21.5985 18.5798L20.4014 16.9777C19.6243 17.5583 18.1196 17.9998 15.9999 17.9998C13.8802 17.9998 12.3756 17.5583 11.5985 16.9777L10.4014 18.5798Z" fill="#000000" class="bmwfcol"/><path d="M17 5.00158V2H15V5.00158C11.0001 5.01465 8.65224 5.10884 7.20989 5.28503C6.42887 5.38044 5.85411 5.50617 5.40398 5.68504C4.9178 5.87824 4.61499 6.11834 4.36669 6.36664C3.869 6.86433 3.5354 7.4566 3.32568 8.59378C3.15189 9.53616 3.05083 10.9168 3.01496 13.0468C2.9285 13.0622 2.83947 13.0835 2.74946 13.1134C2.32621 13.2538 2.03905 13.5441 1.84118 13.7442L1.79289 13.7929L1.5 14.0858V19.9142L1.79289 20.2071L1.84259 20.2572C2.03867 20.4557 2.32532 20.7459 2.74631 20.8862C2.83226 20.9148 2.91731 20.9356 3.00005 20.9509V29H4.91426L8.91426 25H16C20.6155 25 23.2316 24.9054 24.7902 24.715C25.5712 24.6196 26.146 24.4938 26.5961 24.315C27.0823 24.1218 27.3851 23.8817 27.6334 23.6334C27.9443 23.3225 28.2196 22.9495 28.4296 22.3573C28.5623 21.9833 28.665 21.5327 28.745 20.9711C28.8756 20.956 29.0024 20.9332 29.1226 20.8987C29.6044 20.7604 29.9141 20.4697 30.1766 20.2071L30.4695 19.9142V14.0858L30.1766 13.7929L30.1394 13.7552L30.1187 13.7341C29.9354 13.5469 29.6519 13.2573 29.2473 13.1174C29.1583 13.0866 29.0704 13.0647 28.9852 13.0488C28.9493 10.9177 28.8483 9.53645 28.6744 8.59378C28.4647 7.4566 28.1311 6.86433 27.6334 6.36664C27.3851 6.11834 27.0823 5.87823 26.5961 5.68504C26.146 5.50617 25.5712 5.38044 24.7902 5.28503C23.3478 5.10884 20.9999 5.01465 17 5.00158ZM6.14256 7.54367C6.36215 7.45641 6.74325 7.3569 7.45239 7.27028C8.87407 7.09661 11.3755 7 16 7C20.6246 7 23.126 7.09661 24.5477 7.27028C25.2568 7.3569 25.6379 7.45641 25.8575 7.54367C26.0411 7.61661 26.1219 7.68354 26.2192 7.78086C26.374 7.9357 26.5554 8.13131 26.7076 8.95649C26.8712 9.84371 26.9764 11.335 26.9965 14.0075L27.0039 15H27.9965C28.2175 15 28.3619 15.0002 28.4695 15.004V18.9894C28.4509 18.9908 28.4295 18.9922 28.4047 18.9934C28.2749 18.9997 28.1078 19 27.8487 19H26.9336L26.8526 19.9115C26.7697 20.8447 26.6577 21.3699 26.5447 21.6888C26.4457 21.9678 26.3455 22.0928 26.2192 22.2191C26.1219 22.3165 26.0411 22.3834 25.8575 22.4563C25.6379 22.5436 25.2568 22.6431 24.5477 22.7297C23.126 22.9034 20.6246 23 16 23H8.08583L5.00005 26.0858V19H4.00005C3.76349 19 3.61259 18.9997 3.5 18.9951V15.005C3.61328 15.0003 3.76501 15 4.00363 15H4.99614L5.0036 14.0075C5.0237 11.335 5.1289 9.84371 5.29252 8.95649C5.44469 8.13131 5.62606 7.9357 5.7809 7.78086C5.87822 7.68353 5.95901 7.61661 6.14256 7.54367Z" fill="#000000" class="bmwfcol"/><title>speech_bubble_robot_rg_48</title></svg>