<svg width="48" height="48" viewBox="0 0 32 32" xmlns="http://www.w3.org/2000/svg"><path d="M5.68011 6.3925C5.58826 6.42934 5.56041 6.45388 5.50657 6.50765C5.44035 6.57376 5.40418 6.62031 5.36651 6.69922C5.32086 6.79486 5.25747 6.97337 5.19805 7.31909C5.07637 8.02713 5 9.25172 5 11.5V20.0858L8.08579 17H13C16.5039 17 18.3713 16.9238 19.4148 16.7948C19.935 16.7304 20.1906 16.6594 20.3199 16.6075C20.4117 16.5707 20.4396 16.5461 20.4934 16.4924C20.5596 16.4262 20.5958 16.3797 20.6335 16.3008C20.6791 16.2051 20.7425 16.0266 20.8019 15.6809C20.9236 14.9729 21 13.7483 21 11.5C21 9.25172 20.9236 8.02713 20.8019 7.31909C20.7425 6.97337 20.6791 6.79486 20.6335 6.69922C20.5958 6.62031 20.5596 6.57376 20.4934 6.50765C20.4396 6.45388 20.4117 6.42934 20.3199 6.3925C20.1906 6.34064 19.935 6.26957 19.4148 6.20522C18.3713 6.07617 16.5039 6 13 6C9.49608 6 7.6287 6.07617 6.58525 6.20522C6.06497 6.26957 5.8094 6.34064 5.68011 6.3925ZM6.33975 4.22035C7.5213 4.07421 9.50392 4 13 4C16.4961 4 18.4787 4.07421 19.6602 4.22035C20.2525 4.2936 20.7032 4.39133 21.0645 4.53627C21.4633 4.69623 21.7104 4.8965 21.9066 5.09235C22.0903 5.27586 22.2792 5.50412 22.4384 5.83764C22.5896 6.15442 22.695 6.52597 22.7731 6.98034C22.9264 7.87248 23 9.24828 23 11.5C23 13.7517 22.9264 15.1275 22.7731 16.0197C22.695 16.474 22.5896 16.8456 22.4384 17.1624C22.2792 17.4959 22.0903 17.7241 21.9066 17.9076C21.7104 18.1035 21.4633 18.3038 21.0645 18.4637C20.7032 18.6087 20.2525 18.7064 19.6602 18.7797C18.4787 18.9258 16.4961 19 13 19H8.91421L4.91421 23H3V11.5C3 9.24828 3.07363 7.87248 3.22695 6.98034C3.30503 6.52597 3.41039 6.15442 3.56161 5.83764C3.72082 5.50412 3.90965 5.27586 4.09343 5.09235C4.28959 4.8965 4.53674 4.69623 4.93552 4.53627C5.29685 4.39133 5.74753 4.2936 6.33975 4.22035Z" fill="#000000" class="bmwfcol"/><path d="M25.0009 12.1608V10.1533C25.4932 10.1943 25.8879 10.244 26.2095 10.3029C26.6205 10.3781 26.9569 10.4758 27.2436 10.6151C27.5495 10.7636 27.7511 10.9365 27.9072 11.0923C28.0909 11.2758 28.2798 11.504 28.439 11.8376C28.5902 12.1543 28.6956 12.5259 28.7736 12.9803C28.927 13.8724 29.0006 15.2482 29.0006 17.4999V28.9999H27.0864L23.0864 24.9999H19.0006C15.5045 24.9999 13.5219 24.9257 12.3403 24.7796C11.7481 24.7063 11.2974 24.6086 10.9361 24.4637C10.5373 24.3037 10.2902 24.1034 10.094 23.9076C9.91835 23.7322 9.73586 23.5138 9.5798 23.1985C9.43064 22.8972 9.32516 22.547 9.24611 22.1233C9.18848 21.8144 9.14142 21.4459 9.10449 21.0002H11.1121C11.141 21.308 11.1747 21.5553 11.2122 21.7565C11.27 22.0661 11.33 22.2259 11.3722 22.3112C11.4076 22.3826 11.4424 22.4276 11.5072 22.4923C11.561 22.546 11.5889 22.5706 11.6807 22.6074C11.81 22.6593 12.0656 22.7303 12.5858 22.7947C13.6293 22.9238 15.4967 22.9999 19.0006 22.9999H23.9148L27.0006 26.0857V17.4999C27.0006 15.2516 26.9242 14.0271 26.8025 13.319C26.7431 12.9733 26.6797 12.7948 26.6341 12.6991C26.5964 12.6202 26.5602 12.5737 26.494 12.5076C26.4417 12.4553 26.4175 12.4373 26.3698 12.4141C26.3029 12.3816 26.1579 12.3266 25.8494 12.2702C25.6317 12.2303 25.3556 12.1936 25.0009 12.1608Z" fill="#000000" class="bmwfcol"/><title>speech-bubbles_rg_48</title></svg>