<svg width="48" height="48" viewBox="0 0 32 32" xmlns="http://www.w3.org/2000/svg"><path d="M10.793 11.2929C10.9806 11.1054 11.2349 11 11.5001 11H24.5001C25.0524 11 25.5001 11.4477 25.5001 12V17C25.5001 17.2652 25.3948 17.5196 25.2072 17.7071L21.2072 21.7071C21.0197 21.8946 20.7653 22 20.5001 22H7.50012C6.94784 22 6.50012 21.5523 6.50012 21V16C6.50012 15.7348 6.60548 15.4804 6.79302 15.2929L10.793 11.2929ZM11.9143 13L9.91434 15H20.0859L22.0859 13H11.9143ZM23.5001 14.4142L21.5001 16.4142V18.5858L23.5001 16.5858V14.4142ZM19.5001 20V17H8.50012V20H19.5001Z" fill="#000000" class="bmwfcol"/><title>sponge_rg_48</title></svg>