<svg width="48" height="48" viewBox="0 0 32 32" xmlns="http://www.w3.org/2000/svg"><path d="M15.0558 5.05481C14.4399 4.65723 13.7895 4.40983 12.9678 4.25701C10.9991 3.95989 7.5 3.99988 6 3.99981C5.3298 4.0159 4.66213 3.99997 4 3.99997V7.18555L5.58496 8.07481L3.31885 11.9998H5.62825L7.32249 9.06532L8 9.45647V11.7327C6.69494 14.0085 6.03195 15.408 5.72892 16.7761C5.47605 17.9178 5.48424 19.0213 5.49515 20.4909C5.51621 23.327 5.5 26.1636 5.5 28.9998H16.5C16.5 26.1636 16.4838 23.327 16.5048 20.4909C16.5158 19.0213 16.5239 17.9178 16.2711 16.7761C15.968 15.408 15.3051 14.0085 14 11.7327V9.6756C14.3881 9.64664 14.7271 9.59652 15.0311 9.51028C15.7797 9.29794 16.2517 8.89131 16.7501 8.39284L17.043 8.09994V6.80722L16.7501 6.51433C16.1702 5.93442 15.6458 5.43572 15.0558 5.05481ZM10 9.71431L12 9.71431V12.2678C12.8958 13.8194 13.9259 15.4367 14.3184 17.2086C14.5183 18.1113 14.5132 18.9444 14.5043 20.3934C14.4908 22.5954 14.5 24.7977 14.5 26.9998H7.5C7.5 24.7978 7.50924 22.5956 7.49569 20.3936C7.48678 18.9446 7.48166 18.1113 7.68159 17.2086C8.07405 15.4367 9.10416 13.8194 10 12.2678V9.71431ZM6 6.01439V5.99973C9.57755 5.99846 11.4008 5.9999 12.6021 6.2233C13.2063 6.33566 13.6046 6.49854 13.9711 6.73512C14.2362 6.90626 14.501 7.12585 14.8241 7.42951C14.7038 7.51097 14.6027 7.55289 14.4853 7.5862C14.1474 7.68205 13.6244 7.71431 12.4287 7.71431L8.98249 7.71431L6 6.01439Z" fill="#000000" class="bmwfcol"/><path d="M20 4.00005H28V9.50005C28 10.3383 27.8605 10.8211 27.7382 11.2446L27.7115 11.3373C27.6068 11.7037 27.5 12.1103 27.5 13.0001C27.5 13.8898 27.6068 14.2964 27.7115 14.6628C27.8859 15.2688 28 15.8657 28 16.5001C28 21.1307 28 27.4902 28 29.0001H20C20 27.4904 20 21.1305 20 16.5001C20 15.8657 20.1141 15.2688 20.2885 14.6628C20.3932 14.2964 20.5 13.8898 20.5 13.0001C20.5 12.1103 20.3932 11.7037 20.2885 11.3373L20.2618 11.2446C20.1395 10.8211 20 10.3383 20 9.50005V4.00005ZM22 6.00008V8.00005H26V6.00008H22ZM22.1841 10.6925L22.2115 10.7878C22.3568 11.2964 22.5 11.8898 22.5 13.0001C22.5 14.1103 22.3568 14.7037 22.2115 15.2123C22.0887 15.6393 22 16.0523 22 16.5001V27.0001H26V16.5001C26 16.0523 25.9113 15.6393 25.7885 15.2123C25.6432 14.7037 25.5 14.1103 25.5 13.0001C25.5 11.8898 25.6432 11.2964 25.7885 10.7878L25.8159 10.6925C25.8854 10.4515 25.9417 10.2564 25.973 10.0001H22.027C22.0583 10.2564 22.1146 10.4515 22.1841 10.6925Z" fill="#000000" class="bmwfcol"/><title>spray_and_cleaner_bottle_rg_48</title></svg>