<svg width="48" height="48" viewBox="0 0 32 32" xmlns="http://www.w3.org/2000/svg"><path d="M20.8842 3.21708C20.2253 2.78737 19.525 2.50982 18.6356 2.33192C16.9753 1.99988 14.519 1.99992 10.2071 2L9.00195 2.00001V5.26783L10.6365 6.21153L8.44922 10H10.7586L12.3685 7.21153L13.0022 7.57738V10.7322C11.6037 13.1589 10.8198 14.5979 10.4169 15.9816C10.0017 17.4073 10.0018 18.7406 10.002 20.8793L10.002 30H22.002L22.002 20.8793C22.0021 18.7406 22.0022 17.4073 21.5871 15.9816C21.1841 14.5979 20.4002 13.1589 19.0017 10.7322V7.99709C19.7147 7.98904 20.2945 7.9594 20.7814 7.85119C21.7029 7.64641 22.3565 7.0597 23.002 6.41422V5.08579C22.3365 4.42035 21.6765 3.7338 20.8842 3.21708ZM17.0017 8.00001V11.2679C17.9707 12.9463 19.1199 14.6627 19.6668 16.5408C19.994 17.6643 20.002 18.7097 20.002 21V28H12.002V21C12.002 18.7097 12.01 17.6643 12.3371 16.5408C12.884 14.6627 14.0332 12.9463 15.0022 11.2679V8L17.0017 8.00001ZM10.9494 4.0118C14.8461 4.01403 16.914 4.02723 18.2433 4.29309C18.9164 4.42769 19.3724 4.61889 19.7916 4.8923C20.1065 5.09766 20.4176 5.35973 20.7954 5.71834C20.6438 5.81508 20.5088 5.86298 20.3475 5.89882C19.9194 5.99396 19.3063 6.00001 18.002 6.00001L14.2701 6L10.9494 4.0118Z" fill="#000000" class="bmwfcol"/><title>spray-bottle_rg_48</title></svg>