<svg width="48" height="48" viewBox="0 0 32 32" xmlns="http://www.w3.org/2000/svg"><path d="M6.69323 2.05887L5.77565 5.77577L2.05875 6.69335C2.02005 6.95667 2 7.22605 2 7.50012C2 7.77418 2.02004 8.04355 2.05875 8.30686L5.77565 9.22444L6.69324 12.9414C6.95655 12.9801 7.22593 13.0001 7.5 13.0001C7.77405 13.0001 8.04343 12.9801 8.30673 12.9414L9.22432 9.22444L12.9413 8.30685C12.98 8.04355 13 7.77418 13 7.50012C13 7.22606 12.98 6.95667 12.9412 6.69336L9.22432 5.77577L8.30674 2.05887C8.04343 2.02017 7.77406 2.00012 7.5 2.00012C7.22593 2.00012 6.95655 2.02017 6.69323 2.05887ZM7.49998 4.4236L8.1091 6.89099L10.5765 7.50011L8.1091 8.10922L7.49998 10.5766L6.89087 8.10922L4.42348 7.50011L6.89087 6.89099L7.49998 4.4236Z" fill="#000000" class="bmwfcol"/><path d="M22.0896 5.05879L20.8955 9.89562L16.0587 11.0897C16.02 11.3877 16 11.6916 16 12.0001C16 12.3087 16.02 12.6125 16.0587 12.9105L20.8955 14.1046L22.0896 18.9415C22.3876 18.9802 22.6915 19.0001 23 19.0001C23.3086 19.0001 23.6124 18.9802 23.9104 18.9415L25.1045 14.1046L29.9413 12.9105C29.98 12.6125 30 12.3087 30 12.0001C30 11.6916 29.98 11.3877 29.9413 11.0897L25.1045 9.89562L23.9104 5.05879C23.6124 5.02009 23.3086 5.00012 23 5.00012C22.6915 5.00012 22.3876 5.02008 22.0896 5.05879ZM23 7.62939L23.8654 11.1348L27.3707 12.0001L23.8654 12.8655L23 16.3708L22.1347 12.8655L18.6293 12.0001L22.1347 11.1348L23 7.62939Z" fill="#000000" class="bmwfcol"/><path d="M10.9774 12.0576L9.40931 18.4094L3.05746 19.9775C3.0195 20.3131 3 20.6543 3 21.0001C3 21.3459 3.0195 21.6871 3.05746 22.0228L9.40931 23.5908L10.9774 29.9427C11.313 29.9806 11.6542 30.0001 12 30.0001C12.3458 30.0001 12.687 29.9806 13.0227 29.9427L14.5907 23.5908L20.9425 22.0228C20.9805 21.6871 21 21.3459 21 21.0001C21 20.6543 20.9805 20.3131 20.9425 19.9774L14.5907 18.4094L13.0227 12.0576C12.687 12.0196 12.3458 12.0001 12 12.0001C11.6542 12.0001 11.313 12.0196 10.9774 12.0576ZM12 14.7995L13.2277 19.7724L18.2007 21.0001L13.2277 22.2278L12 27.2008L10.7724 22.2278L5.79937 21.0001L10.7724 19.7724L12 14.7995Z" fill="#000000" class="bmwfcol"/><title>stars_rg_48</title></svg>