<svg width="48" height="48" viewBox="0 0 32 32" xmlns="http://www.w3.org/2000/svg"><path d="M24.2998 6.50025H25.1102C24.9855 7.43424 25.1695 8.25939 25.4077 8.98129C25.4922 9.23752 25.5849 9.48509 25.6707 9.71289L25.6835 9.74685C25.7662 9.9666 25.8414 10.1664 25.9079 10.3635C26.048 10.7787 26.1261 11.1185 26.1261 11.4349C26.1261 12.7768 25.472 14.1553 24.751 15H26.8733C27.46 13.9712 27.8761 12.7121 27.8761 11.4349C27.8761 10.8382 27.7293 10.2878 27.5662 9.80424C27.4896 9.57714 27.4043 9.35065 27.3243 9.1383L27.3085 9.09633C27.222 8.86654 27.1413 8.65046 27.0696 8.43304C26.8569 7.78853 26.7381 7.17933 26.8858 6.50025H27.6998V5.7227L26.0001 2.32324L24.2998 5.72378V6.50025Z" fill="#000000" class="bmwfcol"/><path d="M16.2234 17.385C16.1396 17.2399 16.0602 17.1123 15.9847 17H23.8534C23.9498 17.6435 23.999 18.3113 23.999 19C23.999 22.2272 22.9189 24.9943 20.9561 26.9571C18.9934 28.9199 16.2263 30 12.999 30C9.77178 30 7.0047 28.9199 5.04192 26.9571C3.07914 24.9943 1.99902 22.2272 1.99902 19C1.99902 15.7728 3.07914 13.0057 5.04192 11.0429C7.0047 9.08011 9.77178 8 12.999 8C13.75 8 14.4761 8.05849 15.1729 8.17298C15.2505 8.63219 15.2968 8.8948 15.4344 9.30072C15.5435 9.62275 15.7352 10.0946 15.8691 10.3685C14.9929 10.1281 14.0336 10 12.999 10C10.2263 10 7.99335 10.9199 6.45613 12.4571C5.30817 13.6051 4.50448 15.141 4.17107 17L7.69745 17C7.78802 16.8251 7.88806 16.6525 7.9902 16.4763L8.04339 16.3844C8.64287 15.3468 9.27871 14.653 10.2018 14.3012C10.9952 13.9989 11.9129 13.9995 12.8715 14.0001H13.127C13.6867 13.9997 14.2325 13.9994 14.7478 14.0593L13.9496 14.9785L14.5022 16.0431C14.1502 16.0054 13.6834 16.0001 12.9993 16.0001C11.8582 16.0001 11.3218 16.0147 10.914 16.1701C10.6008 16.2895 10.2645 16.538 9.77512 17.385C9.35354 18.1146 9.31719 18.227 9.3111 18.3887C9.30724 18.4912 9.3213 18.6528 9.39061 18.9698C9.45791 19.2776 9.562 19.6679 9.71089 20.2262L9.72548 20.2809C9.82194 20.6426 9.93879 21.0848 10.0443 21.4844L10.1305 21.8112L10.3877 21.8801C11.8745 22.2786 12.4442 22.423 12.9996 22.423C13.5551 22.423 14.1248 22.2786 15.6117 21.8801L15.8679 21.8115L15.9542 21.4844C16.0597 21.0848 16.1766 20.6426 16.273 20.2809L16.2876 20.2263C16.4365 19.668 16.5406 19.2776 16.6079 18.9698C16.6772 18.6528 16.6913 18.4912 16.6874 18.3887C16.6813 18.227 16.645 18.1146 16.2234 17.385ZM18.5617 19.3969C18.4844 19.7506 18.3694 20.1819 18.2291 20.7078L18.2055 20.7962C18.1706 20.927 18.133 21.0685 18.0942 21.215L21.9407 20.1843C21.9792 19.8015 21.999 19.4065 21.999 19H18.6379C18.6172 19.1304 18.5911 19.2625 18.5617 19.3969ZM7.36064 19H3.99902C3.99902 19.4064 4.01879 19.8012 4.05736 20.1839L7.90424 21.2147C7.86544 21.0684 7.82787 20.9269 7.79301 20.7962L7.76942 20.7078C7.62913 20.1819 7.51409 19.7506 7.43676 19.3969C7.40736 19.2625 7.38132 19.1304 7.36064 19ZM16.1959 23.7942L15.86 27.634C17.3361 27.2306 18.5763 26.5085 19.5419 25.5429C20.3923 24.6926 21.0537 23.6293 21.475 22.3796L16.1959 23.7942ZM13.8228 27.9721L14.1437 24.3034C13.7384 24.3804 13.3703 24.423 12.9996 24.423C12.6287 24.423 12.2602 24.3803 11.8545 24.3032L12.1755 27.9722C12.4444 27.9906 12.7189 28 12.999 28C13.2792 28 13.5538 27.9906 13.8228 27.9721ZM10.1383 27.6341L9.80229 23.7938L4.52289 22.3792C4.94421 23.6291 5.6057 24.6925 6.45613 25.5429C7.42183 26.5086 8.66209 27.2307 10.1383 27.6341Z" fill="#000000" class="bmwfcol"/><path d="M12.999 17.5C12.1706 17.5 11.499 18.1716 11.499 19C11.499 19.8284 12.1706 20.5 12.999 20.5C13.8275 20.5 14.499 19.8284 14.499 19C14.499 18.1716 13.8275 17.5 12.999 17.5Z" fill="#000000" class="bmwfcol"/><path d="M21.1102 6.50025H20.2998V5.72378L22.0001 2.32324L23.6998 5.7227V6.50025H22.8858C22.7381 7.17933 22.8569 7.78853 23.0696 8.43304C23.1413 8.65046 23.222 8.86654 23.3085 9.09633L23.3243 9.13821C23.4042 9.35056 23.4896 9.57714 23.5662 9.80424C23.7293 10.2878 23.8761 10.8382 23.8761 11.4349C23.8761 12.7121 23.46 13.9712 22.8733 15H20.751C21.472 14.1553 22.1261 12.7768 22.1261 11.4349C22.1261 11.1185 22.048 10.7787 21.9079 10.3635C21.8414 10.1664 21.7662 9.9666 21.6835 9.74685L21.6707 9.71289C21.5849 9.48509 21.4922 9.23752 21.4077 8.98129C21.1695 8.25939 20.9855 7.43424 21.1102 6.50025Z" fill="#000000" class="bmwfcol"/><path d="M16.2998 6.50025H17.1102C16.9855 7.43424 17.1695 8.25939 17.4077 8.98129C17.4922 9.23752 17.5849 9.48509 17.6707 9.71289L17.6835 9.74685C17.7662 9.9666 17.8414 10.1664 17.9079 10.3635C18.048 10.7787 18.1261 11.1185 18.1261 11.4349C18.1261 12.7768 17.472 14.1553 16.751 15H18.8733C19.46 13.9712 19.8761 12.7121 19.8761 11.4349C19.8761 10.8382 19.7293 10.2878 19.5662 9.80424C19.4896 9.57712 19.4043 9.3506 19.3243 9.13823L19.3085 9.09633C19.222 8.86654 19.1413 8.65046 19.0696 8.43304C18.8569 7.78853 18.7381 7.17933 18.8858 6.50025H19.6998V5.7227L18.0001 2.32324L16.2998 5.72378V6.50025Z" fill="#000000" class="bmwfcol"/><title>steering-wheel-heating_rg_48</title></svg>