<svg width="48" height="48" viewBox="0 0 32 32" xmlns="http://www.w3.org/2000/svg"><path d="M16 14.5C15.1716 14.5 14.5 15.1716 14.5 16C14.5 16.8284 15.1716 17.5 16 17.5C16.8284 17.5 17.5 16.8284 17.5 16C17.5 15.1716 16.8284 14.5 16 14.5Z" fill="#000000" class="bmwfcol"/><path d="M5.86789 5.86789C8.35567 3.38011 11.8728 2 16 2C20.1272 2 23.6443 3.38011 26.1321 5.86789C28.6199 8.35567 30 11.8728 30 16C30 20.1272 28.6199 23.6443 26.1321 26.1321C23.6443 28.6199 20.1272 30 16 30C11.8728 30 8.35567 28.6199 5.86789 26.1321C3.38011 23.6443 2 20.1272 2 16C2 11.8728 3.38011 8.35567 5.86789 5.86789ZM7.28211 7.28211C5.60824 8.95597 4.48932 11.2364 4.12726 14H9.47461C9.6292 13.6218 9.84085 13.2563 10.0724 12.8565L10.1341 12.7497C10.8297 11.5458 11.5306 10.7483 12.5857 10.3466C13.4992 9.99887 14.5913 9.99936 15.8467 9.99992H16.1533C17.4087 9.99936 18.5008 9.99887 19.4143 10.3466C20.4694 10.7483 21.1703 11.5458 21.8659 12.7497L21.9275 12.8562C22.1588 13.2558 22.3706 13.6216 22.5254 14H27.8727C27.5107 11.2364 26.3918 8.95597 24.7179 7.28211C22.6557 5.21989 19.6728 4 16 4C12.3272 4 9.34433 5.21989 7.28211 7.28211ZM28 16H22.7129C22.6905 16.1361 22.6633 16.2752 22.6326 16.4182C22.5328 16.8833 22.3806 17.4539 22.1907 18.1657L21.8633 19.3938L27.9003 17.7761C27.9662 17.2039 28 16.6115 28 16ZM4.0997 17.776L10.1367 19.3936L9.81114 18.1728C9.62441 17.4727 9.47431 16.9099 9.37442 16.4509C9.34078 16.2962 9.31116 16.1464 9.28705 16H4C4 16.6115 4.03381 17.2038 4.0997 17.776ZM27.4675 19.9627L19.8472 22.0045C19.7647 22.0266 19.6838 22.0483 19.6043 22.0696L19.1141 27.6806C21.3803 27.1919 23.2746 26.1612 24.7179 24.7179C25.9772 23.4586 26.9224 21.856 27.4675 19.9627ZM17.0818 27.9637L17.5524 22.5762C16.9914 22.6887 16.4972 22.75 16.0002 22.75C15.5012 22.75 15.0053 22.6882 14.4417 22.575L14.9124 27.9633C15.2678 27.9876 15.6304 28 16 28C16.3676 28 16.7283 27.9878 17.0818 27.9637ZM12.3898 22.0679L4.53247 19.9625C5.07758 21.8559 6.02279 23.4586 7.28211 24.7179C8.72417 26.16 10.6165 27.1901 12.88 27.6793L12.3898 22.0679ZM19.6341 19.9911L20.2515 17.6757C20.4497 16.9327 20.5889 16.4096 20.6772 15.9984C20.7652 15.5884 20.7872 15.3553 20.7796 15.1886C20.7661 14.8924 20.6695 14.6768 20.1341 13.7502C19.5297 12.7041 19.1254 12.3767 18.7028 12.2158C18.1758 12.0152 17.4696 12 16 12C14.5304 12 13.8242 12.0152 13.2972 12.2158C12.8746 12.3767 12.4703 12.7041 11.8659 13.7502C11.3269 14.6831 11.2319 14.8965 11.22 15.196C11.2133 15.3667 11.2373 15.6055 11.3287 16.0256C11.4185 16.4384 11.5579 16.9611 11.7544 17.698L12.3659 19.9909L12.527 20.0341C14.4444 20.5479 15.2294 20.75 16.0002 20.75C16.7709 20.75 17.556 20.5479 19.4735 20.0341L19.6341 19.9911Z" fill="#000000" class="bmwfcol"/><title>steering-wheel_rg_48</title></svg>