<svg width="48" height="48" viewBox="0 0 32 32" xmlns="http://www.w3.org/2000/svg"><path d="M14 24.9996H17V22.9996H14C13.6272 22.9996 13.3943 22.8797 13.2571 22.7425C13.1199 22.6053 13 22.3723 13 21.9996V11.9996C13 11.6268 13.1199 11.3939 13.2571 11.2567C13.3943 11.1195 13.6272 10.9996 14 10.9996H20.2679L28 6.53548V4.22607L19.7321 8.99958H14C13.2473 8.99958 12.5445 9.23146 12 9.69713C11.4555 9.23146 10.7527 8.99958 10 8.99958L7.73205 8.99958L12 6.53548V4.22607L4 8.84488V10.9996L10 10.9996C10.3728 10.9996 10.6057 11.1195 10.7429 11.2567C10.8801 11.3939 11 11.6268 11 11.9996V18.803L4 22.8445V24.9996H10C10.7527 24.9996 11.4555 24.7677 12 24.302C12.5445 24.7677 13.2473 24.9996 14 24.9996ZM11 21.1124V21.9996C11 22.3723 10.8801 22.6053 10.7429 22.7425C10.6057 22.8797 10.3727 22.9996 10 22.9996H7.73136L11 21.1124Z" fill="#000000" class="bmwfcol"/><path d="M18 15H16V17C16 19.0272 16.6801 20.7943 17.9429 22.0571C19.2057 23.3199 20.9728 24 23 24V28H25V25C26.4272 25 27.6943 24.5199 28.6071 23.6071C29.5199 22.6943 30 21.4272 30 20V18H28C26.6433 18 25.4313 18.4338 24.5308 19.2607C24.2028 18.3767 23.7072 17.593 23.0571 16.9429C21.7943 15.6801 20.0272 15 18 15ZM25 23C25 22.0272 25.3199 21.2943 25.8071 20.8071C26.2943 20.3199 27.0272 20 28 20C28 20.9728 27.6801 21.7057 27.1929 22.1929C26.7057 22.6801 25.9728 23 25 23ZM18 17C19.5728 17 20.8057 17.5199 21.6429 18.3571C22.4801 19.1943 23 20.4272 23 22C21.4272 22 20.1943 21.4801 19.3571 20.6429C18.5199 19.8057 18 18.5728 18 17Z" fill="#000000" class="bmwfcol"/><title>steel_beam_and_plant_rg_48</title></svg>