<svg width="48" height="48" viewBox="0 0 32 32" xmlns="http://www.w3.org/2000/svg"><path d="M16 2.5C13.9728 2.5 12.2057 3.18011 10.9429 4.44289C9.68011 5.70567 9 7.47275 9 9.5C9 11.5272 9.68011 13.2943 10.9429 14.5571C12.2057 15.8199 13.9728 16.5 16 16.5C18.0272 16.5 19.7943 15.8199 21.0571 14.5571C22.3199 13.2943 23 11.5272 23 9.5C23 7.47275 22.3199 5.70567 21.0571 4.44289C19.7943 3.18011 18.0272 2.5 16 2.5ZM11.0752 8.5C11.2474 7.3975 11.7064 6.50779 12.3571 5.85711C13.1943 5.01989 14.4272 4.5 16 4.5C17.5728 4.5 18.8057 5.01989 19.6429 5.85711C20.2936 6.50779 20.7526 7.3975 20.9248 8.5H19.5096C19.4539 8.37628 19.3907 8.25298 19.3199 8.13049C18.9382 7.46982 18.4968 6.96446 17.8209 6.70691C17.2733 6.49821 16.6522 6.49911 16.1007 6.49992H15.8993C15.3479 6.49911 14.7268 6.49821 14.1791 6.70691C13.5033 6.96446 13.0619 7.46982 12.6802 8.13049C12.6094 8.25298 12.5461 8.37628 12.4904 8.5H11.0752ZM19.7239 10.5H20.9248C20.7526 11.6025 20.2936 12.4922 19.6429 13.1429C18.9922 13.7936 18.1025 14.2526 17 14.4248V12.7575C17.0788 12.7396 17.159 12.7204 17.2411 12.7C18.1625 12.4713 19.0294 11.9468 19.4907 11.0906C19.5934 10.9 19.671 10.7024 19.7239 10.5ZM11.0752 10.5H12.2762C12.3292 10.7025 12.4067 10.9 12.5094 11.0907C12.9708 11.9469 13.8378 12.4713 14.7591 12.7C14.8412 12.7204 14.9213 12.7396 15 12.7574V14.4248C13.8975 14.2526 13.0078 13.7936 12.3571 13.1429C11.7064 12.4922 11.2474 11.6025 11.0752 10.5ZM14.4119 9.13104C14.6835 8.66096 14.8253 8.60095 14.8913 8.57581C15.0518 8.51463 15.2881 8.50002 16 8.50002C16.7119 8.50002 16.9482 8.51463 17.1087 8.57581C17.1747 8.60095 17.3166 8.66096 17.5882 9.13104C17.8922 9.65734 17.8238 9.96792 17.73 10.142C17.6117 10.3616 17.3102 10.6222 16.7594 10.7589C16.3587 10.8584 16.1647 10.8861 16.0001 10.8861C15.8355 10.8861 15.6416 10.8584 15.2409 10.7589C14.6901 10.6222 14.3885 10.3616 14.2701 10.1419C14.1763 9.96783 14.1078 9.65728 14.4119 9.13104Z" fill="#000000" class="bmwfcol"/><path d="M29.7073 16.2928C29.3996 15.9852 28.9703 15.6299 28.3683 15.4031C27.7593 15.1737 27.0434 15.1018 26.1992 15.2527C24.7372 15.5139 22.8561 16.4492 20.3112 18.457C19.9401 18.1456 19.4742 18 19 18L14.1319 18L10.3999 17L10.1895 16.9999C9.6121 16.9991 9.03821 16.9982 8.38659 17.397C8.09317 17.5766 7.8062 17.8208 7.49345 18.113C7.17992 18.4059 6.79505 18.7907 6.30662 19.2792L1.58582 24L7.58582 30H9.41424L11.4142 28H15.0287C16.0043 28 16.7763 28 17.3964 27.9673C18.0254 27.9342 18.5664 27.8653 19.0664 27.6987C20.0439 27.3728 20.7035 26.7123 21.589 25.8256L30.4146 16.9999L29.7073 16.2928ZM13.8686 20L19 20L19.0001 20.5776C18.215 21.3183 17.6684 21.6398 17.1839 21.8013C16.6157 21.9907 16.0357 22 15.0003 22H11V24L15.0816 24C16.0167 24.0002 16.911 24.0005 17.8164 23.6986C18.7737 23.3795 19.6532 22.761 20.7071 21.7071L20.9999 21.4143L21.0001 20.4697C23.7542 18.211 25.4853 17.4119 26.551 17.2215C26.9035 17.1585 27.1747 17.1636 27.386 17.2001L20.2932 24.2929C19.2395 25.3465 18.9135 25.6414 18.4339 25.8013C18.1838 25.8847 17.8497 25.9407 17.2913 25.9701C16.7299 25.9996 16.0107 26 15 26H10.5858L8.58582 28H8.41424L4.41424 24L7.70714 20.7071C8.2122 20.202 8.57307 19.8413 8.85874 19.5745C9.14812 19.3041 9.31542 19.1734 9.43053 19.1029C9.55683 19.0256 9.59838 19.0031 10.1378 19.0003L13.8686 20Z" fill="#000000" class="bmwfcol"/><title>steering_wheel_on_hand_rg_48</title></svg>