<svg width="48" height="48" viewBox="0 0 32 32" xmlns="http://www.w3.org/2000/svg"><path d="M3 3H7V5H5V11C5 12.8728 5.61989 14.3557 6.63211 15.3679C7.64433 16.3801 9.12725 17 11 17C12.8728 17 14.3557 16.3801 15.3679 15.3679C16.3801 14.3557 17 12.8728 17 11V5H15V3H19V11C19 13.3272 18.2199 15.3443 16.7821 16.7821C15.5545 18.0097 13.9047 18.7578 12 18.9504V21C12 22.8728 12.6199 24.3557 13.6321 25.3679C14.6443 26.3801 16.1272 27 18 27C19.8728 27 21.3557 26.3801 22.3679 25.3679C23.3801 24.3557 24 22.8728 24 21V19.8937C23.2759 19.7336 22.6297 19.3939 22.1179 18.8821C21.3801 18.1443 21 17.1272 21 16C21 14.8728 21.3801 13.8557 22.1179 13.1179C22.8557 12.3801 23.8728 12 25 12C26.1272 12 27.1443 12.3801 27.8821 13.1179C28.6199 13.8557 29 14.8728 29 16C29 17.1272 28.6199 18.1443 27.8821 18.8821C27.3703 19.3939 26.7241 19.7336 26 19.8937V21C26 23.3272 25.2199 25.3443 23.7821 26.7821C22.3443 28.2199 20.3272 29 18 29C15.6728 29 13.6557 28.2199 12.2179 26.7821C10.7801 25.3443 10 23.3272 10 21V18.9504C8.09534 18.7578 6.44547 18.0097 5.21789 16.7821C3.78011 15.3443 3 13.3272 3 11V3ZM23 16C23 16.6728 23.2199 17.1557 23.5321 17.4679C23.8443 17.7801 24.3272 18 25 18C25.6728 18 26.1557 17.7801 26.4679 17.4679C26.7801 17.1557 27 16.6728 27 16C27 15.3272 26.7801 14.8443 26.4679 14.5321C26.1557 14.2199 25.6728 14 25 14C24.3272 14 23.8443 14.2199 23.5321 14.5321C23.2199 14.8443 23 15.3272 23 16Z" fill="#000000" class="bmwfcol"/><title>stetoscope_rg_48</title></svg>