<svg width="48" height="48" viewBox="0 0 32 32" xmlns="http://www.w3.org/2000/svg"><path d="M14 3.5H18V1.5H14V3.5Z" fill="#000000" class="bmwfcol"/><path d="M24.2828 5.88716L27.1128 8.71716L28.527 7.30295L25.697 4.47295L24.2828 5.88716Z" fill="#000000" class="bmwfcol"/><path d="M17 15.8819V9H15V15.8819C14.6931 16.1566 14.5 16.5557 14.5 17C14.5 17.8284 15.1716 18.5 16 18.5C16.8284 18.5 17.5 17.8284 17.5 17C17.5 16.5557 17.3069 16.1566 17 15.8819Z" fill="#000000" class="bmwfcol"/><path d="M7.31789 8.31789C9.45567 6.18011 12.4728 5 16 5C19.5272 5 22.5443 6.18011 24.6821 8.31789C26.8199 10.4557 28 13.4727 28 17C28 20.5272 26.8199 23.5443 24.6821 25.6821C22.5443 27.8199 19.5272 29 16 29C12.4728 29 9.45567 27.8199 7.31789 25.6821C5.18011 23.5443 4 20.5272 4 17C4 13.4727 5.18011 10.4557 7.31789 8.31789ZM8.73211 9.73211C7.01989 11.4443 6 13.9272 6 17C6 20.0728 7.01989 22.5557 8.73211 24.2679C10.4443 25.9801 12.9272 27 16 27C19.0728 27 21.5557 25.9801 23.2679 24.2679C24.9801 22.5557 26 20.0728 26 17C26 13.9272 24.9801 11.4443 23.2679 9.73211C21.5557 8.01988 19.0728 7 16 7C12.9272 7 10.4443 8.01988 8.73211 9.73211Z" fill="#000000" class="bmwfcol"/><title>stop-watch_rg_48</title></svg>