<svg width="48" height="48" viewBox="0 0 32 32" xmlns="http://www.w3.org/2000/svg"><path d="M17.4818 3.5296C16.8764 3.36739 16.1332 3.29679 15.4436 3.67284C14.7454 4.05352 14.3293 4.76605 14.0926 5.64965C13.8558 6.53325 13.8599 7.35836 14.2741 8.03711C14.6834 8.7076 15.3623 9.01805 15.9677 9.18026C16.573 9.34247 17.3162 9.41307 18.0059 9.03702C18.704 8.65634 19.1201 7.94381 19.3569 7.06021C19.5936 6.17661 19.5895 5.3515 19.1753 4.67275C18.766 4.00226 18.0871 3.69181 17.4818 3.5296ZM15.8795 6.12846C16.0495 5.49418 16.2544 5.33784 16.3292 5.29706C16.4125 5.25166 16.5941 5.20701 17.0029 5.31656C17.4118 5.42611 17.5467 5.55558 17.5962 5.63654C17.6405 5.70924 17.7399 5.94712 17.5699 6.5814C17.3999 7.21568 17.195 7.37202 17.1202 7.4128C17.0369 7.4582 16.8553 7.50285 16.4465 7.3933C16.0376 7.28375 15.9027 7.15428 15.8533 7.07332C15.8089 7.00062 15.7096 6.76275 15.8795 6.12846Z" fill="#000000" class="bmwfcol"/><path d="M25.8393 5.99945C26.2781 5.98702 26.5454 6.03213 26.7006 6.08299C26.8407 6.12888 26.8768 6.17439 26.8855 6.18539C26.9361 6.24925 27 6.42041 27 6.99985V7.99985H29V6.99985C29 6.47472 28.9874 5.61705 28.4525 4.94264C27.8667 4.20397 26.9171 3.96812 25.7827 4.00025C25.1304 4.01873 24.6243 4.16208 24.2014 4.41841C23.8845 4.61046 23.6292 4.86989 23.488 5.0133C23.462 5.03973 23.4398 5.06224 23.4219 5.07964L23.4206 5.08093L7 21.078V22.1708C5.83481 22.5826 5 23.6939 5 25.0001C5 26.657 6.34315 28.0001 8 28.0001C9.65685 28.0001 11 26.657 11 25.0001C11 23.6939 10.1652 22.5826 9 22.1708V21.9217L10.1779 20.7742C10.8825 20.9483 11.587 21.1248 12.2935 21.3018L12.2991 21.3032C13.1511 21.5167 14.0059 21.7309 14.8621 21.9409C15.6498 22.1342 16.3618 22.2771 16.9935 22.3105C17.6344 22.3443 18.2642 22.2701 18.8411 21.9642C19.9833 21.3585 20.5177 20.0573 20.9648 18.4711L21.7445 15.6855C22.1979 14.0647 22.7789 11.9863 23.2892 10.156C23.4767 9.48329 23.3708 8.78008 23.2693 8.33474C23.2489 8.24546 23.2274 8.16089 23.2058 8.08235L24.8149 6.51479L24.8158 6.51392C24.8869 6.44488 24.9417 6.39017 24.9864 6.34561C25.1031 6.22913 25.1505 6.1818 25.238 6.12878C25.3115 6.08426 25.4651 6.01005 25.8393 5.99945ZM12.7752 19.3607C12.4715 19.2846 12.1675 19.2084 11.8632 19.1324L21.2635 9.97456C20.7785 11.7136 20.2427 13.6303 19.8185 15.1467L19.0397 17.929C18.5767 19.571 18.2103 20.0349 17.9042 20.1972C17.7568 20.2753 17.5256 20.3358 17.099 20.3132C16.6631 20.2902 16.1011 20.1856 15.3387 19.9985C14.4864 19.7894 13.6347 19.576 12.7802 19.3619L12.7752 19.3607ZM8 24.0001C8.55228 24.0001 9 24.4478 9 25.0001C9 25.5524 8.55228 26.0001 8 26.0001C7.44772 26.0001 7 25.5524 7 25.0001C7 24.4478 7.44772 24.0001 8 24.0001Z" fill="#000000" class="bmwfcol"/><path d="M22 22.0001C20.3431 22.0001 19 23.3432 19 25.0001C19 26.657 20.3431 28.0001 22 28.0001C23.6569 28.0001 25 26.657 25 25.0001C25 23.3432 23.6569 22.0001 22 22.0001ZM21 25.0001C21 24.4478 21.4477 24.0001 22 24.0001C22.5523 24.0001 23 24.4478 23 25.0001C23 25.5524 22.5523 26.0001 22 26.0001C21.4477 26.0001 21 25.5524 21 25.0001Z" fill="#000000" class="bmwfcol"/><path d="M7.17713 17L4.77711 23H2.62305L5.82306 15H11.0002L9.00017 17H7.17713Z" fill="#000000" class="bmwfcol"/><title>stroller_rg_48</title></svg>