<svg width="48" height="48" viewBox="0 0 32 32" xmlns="http://www.w3.org/2000/svg"><path d="M10.0001 6H29.0001V25L27.0001 23V8H12.0001L10.0001 6Z" fill="#000000" class="bmwfcol"/><path d="M22.0001 26H3.00006V7L5.00006 9V24H20.0001L22.0001 26Z" fill="#000000" class="bmwfcol"/><path d="M15.7056 19.7056V21.0812C14.7564 21.2766 13.6117 21.5 12.3973 21.5C10.1498 21.5 9.28432 20.5787 8.73991 19.7411C8.22341 18.9454 8.00006 17.717 8.00006 16.1536C8.00006 14.6895 8.14841 13.5221 8.6102 12.6101L10.2675 14.2674C10.1584 14.7652 10.1219 15.3746 10.1219 16.1117C10.1219 17.1307 10.1917 18.0102 10.5267 18.5964C10.9036 19.2525 11.6016 19.4759 12.7602 19.4759C13.489 19.4759 14.3978 19.3228 15.1686 19.1685L15.7056 19.7056Z" fill="#000000" class="bmwfcol"/><path d="M24.2394 20.2394V19.0571C23.9431 19.1203 23.6062 19.1902 23.2546 19.2545L24.2394 20.2394Z" fill="#000000" class="bmwfcol"/><path d="M18.7244 14.7243L16.9793 12.9792C17.0697 12.748 17.1764 12.5313 17.3016 12.3287C17.8739 11.4074 18.8371 10.5 20.9729 10.5C21.5732 10.5 22.1455 10.5698 22.7737 10.6815C23.4437 10.8071 23.7787 10.8769 24.2394 10.9886V13.0127C23.7648 12.901 23.2343 12.7893 22.6341 12.6777C22.1176 12.5799 21.6709 12.5241 21.2242 12.5241C20.0237 12.5241 19.3955 12.8591 19.0326 13.585C18.8773 13.8955 18.7808 14.2725 18.7244 14.7243Z" fill="#000000" class="bmwfcol"/><path d="M5.41436 4L29.4144 28H26.5859L2.58594 4H5.41436Z" fill="#000000" class="bmwfcol"/><title>subtitle-off_rg_48</title></svg>