<svg width="48" height="48" viewBox="0 0 32 32" xmlns="http://www.w3.org/2000/svg"><path d="M3 6H29V26H3V6ZM5 8V24H27V8H5Z" fill="#000000" class="bmwfcol"/><path d="M15.7056 21.0812V19.0571C14.8541 19.2386 13.6675 19.4759 12.7602 19.4759C11.6015 19.4759 10.9036 19.2525 10.5266 18.5964C10.1916 18.0102 10.1218 17.1307 10.1218 16.1117C10.1218 14.9949 10.2056 14.1713 10.4987 13.585C10.8617 12.8591 11.4898 12.5241 12.6904 12.5241C13.1371 12.5241 13.5838 12.5799 14.1003 12.6777C14.7005 12.7893 15.231 12.901 15.7056 13.0127V10.9886C15.2449 10.8769 14.9099 10.8071 14.2398 10.6815C13.6117 10.5698 13.0393 10.5 12.4391 10.5C10.3033 10.5 9.3401 11.4074 8.76777 12.3287C8.18147 13.2779 8 14.5343 8 16.1536C8 17.717 8.22335 18.9454 8.73985 19.7411C9.28426 20.5787 10.1497 21.5 12.3972 21.5C13.6117 21.5 14.7563 21.2766 15.7056 21.0812Z" fill="#000000" class="bmwfcol"/><path d="M24.2394 21.0812V19.0571C23.3878 19.2386 22.2013 19.4759 21.2939 19.4759C20.1353 19.4759 19.4373 19.2525 19.0604 18.5964C18.7254 18.0102 18.6556 17.1307 18.6556 16.1117C18.6556 14.9949 18.7394 14.1713 19.0325 13.585C19.3954 12.8591 20.0236 12.5241 21.2241 12.5241C21.6708 12.5241 22.1175 12.5799 22.634 12.6777C23.2343 12.7893 23.7647 12.901 24.2394 13.0127V10.9886C23.7787 10.8769 23.4437 10.8071 22.7736 10.6815C22.1454 10.5698 21.5731 10.5 20.9729 10.5C18.8371 10.5 17.8739 11.4074 17.3015 12.3287C16.7152 13.2779 16.5338 14.5343 16.5338 16.1536C16.5338 17.717 16.7571 18.9454 17.2736 19.7411C17.818 20.5787 18.6835 21.5 20.931 21.5C22.1454 21.5 23.2901 21.2766 24.2394 21.0812Z" fill="#000000" class="bmwfcol"/><title>subtitel-on_rg_48</title></svg>