<svg width="48" height="48" viewBox="0 0 32 32" xmlns="http://www.w3.org/2000/svg"><path d="M10.998 19.5C10.1696 19.5 9.49805 20.1716 9.49805 21C9.49805 21.8284 10.1696 22.5 10.998 22.5C11.8265 22.5 12.498 21.8284 12.498 21C12.498 20.1716 11.8265 19.5 10.998 19.5Z" fill="#000000" class="bmwfcol"/><path d="M20.998 19.5C20.1696 19.5 19.498 20.1716 19.498 21C19.498 21.8284 20.1696 22.5 20.998 22.5C21.8264 22.5 22.498 21.8284 22.498 21C22.498 20.1716 21.8264 19.5 20.998 19.5Z" fill="#000000" class="bmwfcol"/><path d="M5.82595 3.82789C6.39662 3.25722 7.17213 3 7.99805 3H23.998C24.8239 3 25.5995 3.25722 26.1701 3.82789C26.7408 4.39856 26.998 5.17408 26.998 6V24C26.998 24.8259 26.7408 25.6014 26.1701 26.1721C25.5995 26.7428 24.8239 27 23.998 27H22.73L24.4621 30H22.1527L20.4206 27H11.5756L9.84359 30H7.53419L9.26624 27H7.99805C7.17213 27 6.39662 26.7428 5.82595 26.1721C5.25528 25.6014 4.99805 24.8259 4.99805 24V6C4.99805 5.17408 5.25528 4.39856 5.82595 3.82789ZM7.24016 5.24211C7.12083 5.36144 6.99805 5.58592 6.99805 6V8H24.998V6C24.998 5.58592 24.8752 5.36144 24.7559 5.24211C24.6366 5.12278 24.4121 5 23.998 5H7.99805C7.58398 5 7.35949 5.12278 7.24016 5.24211ZM6.99805 16H14.998V10H6.99805V16ZM6.99805 24C6.99805 24.4141 7.12083 24.6386 7.24016 24.7579C7.35949 24.8772 7.58398 25 7.99805 25H23.998C24.4121 25 24.6366 24.8772 24.7559 24.7579C24.8752 24.6386 24.998 24.4141 24.998 24V18H6.99805V24ZM24.998 10H16.998V16H24.998V10Z" fill="#000000" class="bmwfcol"/><title>subway-front_rg_48</title></svg>