<svg width="48" height="48" viewBox="0 0 32 32" xmlns="http://www.w3.org/2000/svg"><path d="M25 5V2H23V5H25Z" fill="#000000" class="bmwfcol"/><path d="M21.8787 5.46447L19.7574 3.34315L18.3431 4.75736L20.4645 6.87868L21.8787 5.46447Z" fill="#000000" class="bmwfcol"/><path d="M27.5356 6.87868L29.6569 4.75736L28.2427 3.34315L26.1213 5.46447L27.5356 6.87868Z" fill="#000000" class="bmwfcol"/><path d="M20 8H17V10H20V8Z" fill="#000000" class="bmwfcol"/><path d="M28 10H31V8H28V10Z" fill="#000000" class="bmwfcol"/><path d="M26.1213 12.5355L28.2426 14.6569L29.6568 13.2426L27.5355 11.1213L26.1213 12.5355Z" fill="#000000" class="bmwfcol"/><path d="M20.4645 11.1213L18.3432 13.2426L19.7574 14.6569L21.8787 12.5355L20.4645 11.1213Z" fill="#000000" class="bmwfcol"/><path d="M23 13V16H25V13H23Z" fill="#000000" class="bmwfcol"/><path d="M24 6.075C22.3845 6.075 21.075 7.38456 21.075 9C21.075 10.6154 22.3845 11.925 24 11.925C25.6154 11.925 26.925 10.6154 26.925 9C26.925 7.38456 25.6154 6.075 24 6.075ZM22.925 9C22.925 8.40629 23.4062 7.925 24 7.925C24.5937 7.925 25.075 8.40629 25.075 9C25.075 9.5937 24.5937 10.075 24 10.075C23.4062 10.075 22.925 9.5937 22.925 9Z" fill="#000000" class="bmwfcol"/><path d="M14.5 7C14.9126 7 15.3201 7.02173 15.7214 7.0641C15.5766 7.68596 15.5 8.33404 15.5 9L15.5002 9.05202C15.1715 9.01763 14.8378 9 14.5 9C9.25329 9 5 13.2533 5 18.5C5 23.7467 9.25329 28 14.5 28C19.7467 28 24 23.7467 24 18.5C24 18.1622 23.9824 17.8285 23.948 17.4998L24 17.5C24.666 17.5 25.314 17.4234 25.9359 17.2786C25.9783 17.6799 26 18.0874 26 18.5C26 24.8513 20.8513 30 14.5 30C8.14873 30 3 24.8513 3 18.5C3 12.1487 8.14873 7 14.5 7Z" fill="#000000" class="bmwfcol"/><path d="M14.5 10.231C9.93303 10.231 6.23077 13.9332 6.23077 18.5002C6.23077 23.0672 9.93303 26.7694 14.5 26.7694C19.067 26.7694 22.7692 23.0672 22.7692 18.5002C22.7692 18.1274 22.7446 17.7604 22.6968 17.4007C21.3753 17.1974 20.1542 16.6897 19.1073 15.9515L16.9004 16.6686C16.5462 16.205 16.0607 15.8471 15.4994 15.6503V12.3102C15.7519 12.3506 15.9994 12.4062 16.2408 12.4758C15.9352 11.7945 15.7166 11.0657 15.5993 10.3034C15.2397 10.2556 14.8727 10.231 14.5 10.231ZM8.23077 18.5002C8.23077 18.1732 8.2558 17.8521 8.30405 17.5387L11.4816 18.5711C11.4957 19.1818 11.6911 19.7477 12.0161 20.217L10.0529 22.9191C8.92667 21.7857 8.23077 20.2242 8.23077 18.5002ZM12.0994 16.6689L8.92161 15.6364C9.81611 13.8975 11.4998 12.6311 13.4994 12.3104V15.6507C12.9385 15.8476 12.4534 16.2055 12.0994 16.6689ZM17.5184 18.5707L20.6959 17.5383C20.7442 17.8519 20.7692 18.1731 20.7692 18.5002C20.7692 20.2245 20.0731 21.7863 18.9465 22.9197L16.9834 20.2178C17.3088 19.7482 17.5044 19.1819 17.5184 18.5707ZM15.3655 21.3935L17.3291 24.0963C16.4792 24.5268 15.5179 24.7694 14.5 24.7694C13.4817 24.7694 12.5202 24.5267 11.67 24.0958L13.6336 21.3933C13.908 21.4753 14.1989 21.5194 14.5 21.5194C14.8008 21.5194 15.0913 21.4754 15.3655 21.3935ZM13.4808 18.5002C13.4808 17.9373 13.9371 17.481 14.5 17.481C15.0629 17.481 15.5192 17.9373 15.5192 18.5002C15.5192 19.0631 15.0629 19.5194 14.5 19.5194C13.9371 19.5194 13.4808 19.0631 13.4808 18.5002Z" fill="#000000" class="bmwfcol"/><title>summer_wheel_rg_48</title></svg>