<svg width="48" height="48" viewBox="0 0 32 32" xmlns="http://www.w3.org/2000/svg"><path d="M25 5V2H23V5H25Z" fill="#000000" class="bmwfcol"/><path d="M21.8787 5.46447L19.7574 3.34315L18.3431 4.75736L20.4645 6.87868L21.8787 5.46447Z" fill="#000000" class="bmwfcol"/><path d="M27.5356 6.87868L29.6569 4.75736L28.2427 3.34315L26.1213 5.46447L27.5356 6.87868Z" fill="#000000" class="bmwfcol"/><path d="M20 8H17V10H20V8Z" fill="#000000" class="bmwfcol"/><path d="M28 10H31V8H28V10Z" fill="#000000" class="bmwfcol"/><path d="M26.1213 12.5355L28.2426 14.6569L29.6568 13.2426L27.5355 11.1213L26.1213 12.5355Z" fill="#000000" class="bmwfcol"/><path d="M20.4645 11.1213L18.3432 13.2426L19.7574 14.6569L21.8787 12.5355L20.4645 11.1213Z" fill="#000000" class="bmwfcol"/><path d="M23 13V16H25V13H23Z" fill="#000000" class="bmwfcol"/><path d="M24 6.075C22.3845 6.075 21.075 7.38456 21.075 9C21.075 10.6154 22.3845 11.925 24 11.925C25.6154 11.925 26.925 10.6154 26.925 9C26.925 7.38456 25.6154 6.075 24 6.075ZM22.925 9C22.925 8.40629 23.4062 7.925 24 7.925C24.5937 7.925 25.075 8.40629 25.075 9C25.075 9.5937 24.5937 10.075 24 10.075C23.4062 10.075 22.925 9.5937 22.925 9Z" fill="#000000" class="bmwfcol"/><path d="M4 18.4995C4 15.7434 4.64662 13.2972 5.64044 11.5746C6.64956 9.82547 7.8938 8.99951 9.05769 8.99951H13.9041C14.2644 8.99951 14.6324 9.07865 14.9987 9.23981V7.13097C14.6464 7.04505 14.2812 6.99951 13.9041 6.99951H9.05769C6.87602 6.99951 5.0914 8.52406 3.90807 10.5752C2.70944 12.6528 2 15.4566 2 18.4995C2 21.5424 2.70944 24.3462 3.90807 26.4239C5.0914 28.475 6.87602 29.9995 9.05769 29.9995H13.9041C16.0858 29.9995 17.8704 28.475 19.0538 26.4239C20.2524 24.3462 20.9618 21.5424 20.9618 18.4995C20.9618 17.9922 20.9421 17.4915 20.9037 16.9997H18.8969C18.9396 17.4872 18.9618 17.988 18.9618 18.4995C18.9618 21.2556 18.3152 23.7018 17.3214 25.4244C16.3123 27.1736 15.068 27.9995 13.9041 27.9995H9.05769C7.8938 27.9995 6.64956 27.1736 5.64044 25.4244C4.64662 23.7018 4 21.2556 4 18.4995Z" fill="#000000" class="bmwfcol"/><path d="M13.9028 10.6343C14.6495 10.6343 15.2856 10.9789 15.7799 11.4494C16.2691 11.915 16.6642 12.5414 16.9742 13.239C17.5954 14.6366 17.9541 16.4974 17.9541 18.4997C17.9541 20.5019 17.5954 22.3627 16.9742 23.7604C16.6642 24.4579 16.2691 25.0844 15.7799 25.5499C15.2856 26.0204 14.6495 26.3651 13.9028 26.3651C13.1562 26.3651 12.5201 26.0204 12.0258 25.5499C11.5366 25.0844 11.1415 24.4579 10.8315 23.7604C10.2103 22.3627 9.85156 20.5019 9.85156 18.4997C9.85156 16.4974 10.2103 14.6366 10.8315 13.239C11.1415 12.5414 11.5366 11.915 12.0258 11.4494C12.5201 10.9789 13.1562 10.6343 13.9028 10.6343ZM12.1875 15.4803C11.9768 16.36 11.8516 17.3879 11.8516 18.4997C11.8516 19.6114 11.9768 20.6392 12.1875 21.5189C12.3845 20.6289 12.5007 19.6047 12.5007 18.4995C12.5007 17.3945 12.3845 16.3703 12.1875 15.4803ZM13.4318 24.1266C13.6532 24.3285 13.8107 24.3651 13.9028 24.3651C13.9988 24.3651 14.1654 24.3255 14.4012 24.1011C14.642 23.8719 14.9045 23.4929 15.1466 22.9481C15.6298 21.861 15.9541 20.2891 15.9541 18.4997C15.9541 16.7103 15.6298 15.1384 15.1466 14.0512C14.9045 13.5064 14.642 13.1274 14.4012 12.8982C14.1654 12.6738 13.9988 12.6343 13.9028 12.6343C13.8107 12.6343 13.6532 12.6708 13.4319 12.8727C14.1114 14.3598 14.5007 16.3579 14.5007 18.4995C14.5007 20.6412 14.1114 22.6394 13.4318 24.1266Z" fill="#000000" class="bmwfcol"/><title>summer_tyre_rg_48</title></svg>