<svg width="48" height="48" viewBox="0 0 32 32" xmlns="http://www.w3.org/2000/svg"><path d="M8 4V2H10V4H8Z" fill="#000000" class="bmwfcol"/><path d="M10 14V16H8V14H10Z" fill="#000000" class="bmwfcol"/><path d="M30.7072 4.70718L24.0001 11.4143L20.293 7.70718L21.7072 6.29297L24.0001 8.58586L29.293 3.29297L30.7072 4.70718Z" fill="#000000" class="bmwfcol"/><path d="M18.8866 15C17.2361 14.9998 15.9815 14.9996 14.7097 15.4271C13.4632 15.8462 12.2706 16.6468 10.6006 18.0311C7.57816 18.2954 5.93254 18.4423 4.76518 18.7018C3.38894 19.0076 2.20612 19.7264 1.00027 20.4226L1 25.2707C1.9305 25.52 2.86095 25.827 3.81795 25.9596C4.37123 27.1638 5.58797 28 7 28C8.39619 28 9.60144 27.1825 10.1632 26H20.8368C21.3986 27.1825 22.6038 28 24 28C25.3981 28 26.6047 27.1803 27.1655 25.9952C28.5865 25.9601 29.8034 25.2684 31.0003 24.5773L31 21.5858C30.5354 21.1211 30 20.6995 30 20L29.9999 18.0837L27.5411 17.8685C26.2382 17.1138 24.935 16.3254 23.5269 15.7791C22.0372 15.2011 20.4772 15.0002 18.8866 15ZM27.4615 23.9791C27.2099 22.2931 25.756 21 24 21C22.2368 21 20.778 22.3039 20.5354 24H10.4646C10.222 22.3039 8.76324 21 7 21C5.28167 21 3.85255 22.2383 3.55633 23.8712C3.40571 23.8358 3.22405 23.7907 3.00009 23.733L3.00021 21.5788C3.89751 21.0682 4.38084 20.836 5.19911 20.6541C7.21885 20.2052 9.34668 20.1484 11.4015 19.9688C12.5943 18.9679 13.8445 17.828 15.347 17.3229C16.2773 17.0102 17.2068 17 19 17C20.5964 17 21.7104 17.2196 22.8035 17.6436C24.2524 18.2058 25.583 19.0461 26.9239 19.8222L28 19.9163C28 20.9009 28.343 21.6705 29.0001 22.3995L29.0002 23.4165C28.5135 23.6836 28.0215 23.9347 27.4615 23.9791ZM7 23C7.82843 23 8.5 23.6716 8.5 24.5C8.5 25.3284 7.82843 26 7 26C6.17157 26 5.5 25.3284 5.5 24.5C5.5 23.6716 6.17157 23 7 23ZM24 23C24.8284 23 25.5 23.6716 25.5 24.5C25.5 25.3284 24.8284 26 24 26C23.1716 26 22.5 25.3284 22.5 24.5C22.5 23.6716 23.1716 23 24 23Z" fill="#000000" class="bmwfcol"/><path d="M9 5.5C7.067 5.5 5.5 7.067 5.5 9C5.5 10.933 7.067 12.5 9 12.5C10.933 12.5 12.5 10.933 12.5 9C12.5 7.067 10.933 5.5 9 5.5ZM7.5 9C7.5 8.17157 8.17157 7.5 9 7.5C9.82843 7.5 10.5 8.17157 10.5 9C10.5 9.82843 9.82843 10.5 9 10.5C8.17157 10.5 7.5 9.82843 7.5 9Z" fill="#000000" class="bmwfcol"/><path d="M3.34375 4.75684L4.75796 6.17105L6.17218 4.75684L4.75796 3.34262L3.34375 4.75684Z" fill="#000000" class="bmwfcol"/><path d="M14.6575 13.2421L13.2432 11.8279L11.829 13.2421L13.2432 14.6563L14.6575 13.2421Z" fill="#000000" class="bmwfcol"/><path d="M4 10H2V8H4V10Z" fill="#000000" class="bmwfcol"/><path d="M14 8H16V10H14V8Z" fill="#000000" class="bmwfcol"/><path d="M4.75781 14.6572L6.17203 13.243L4.75781 11.8288L3.3436 13.243L4.75781 14.6572Z" fill="#000000" class="bmwfcol"/><path d="M13.2431 3.34352L11.8289 4.75773L13.2431 6.17195L14.6573 4.75773L13.2431 3.34352Z" fill="#000000" class="bmwfcol"/><title>summer-check_rg_48</title></svg>