<svg width="48" height="48" viewBox="0 0 32 32" xmlns="http://www.w3.org/2000/svg"><path d="M13 7V3H11V7H13Z" fill="#000000" class="bmwfcol"/><path d="M9.17157 7.75736L6.34315 4.92893L4.92893 6.34315L7.75736 9.17157L9.17157 7.75736Z" fill="#000000" class="bmwfcol"/><path d="M19.0711 6.34315L17.6569 4.92893L14.8284 7.75736L16.2426 9.17157L19.0711 6.34315Z" fill="#000000" class="bmwfcol"/><path d="M7 11H3V13H7V11Z" fill="#000000" class="bmwfcol"/><path d="M4.92893 17.6569L6.34315 19.0711L9.17157 16.2426L7.75736 14.8284L4.92893 17.6569Z" fill="#000000" class="bmwfcol"/><path d="M15.874 11C15.4299 9.27477 13.8638 8 12 8C9.79086 8 8 9.79086 8 12C8 13.8638 9.27477 15.4299 11 15.874V13.7324C10.4022 13.3866 10 12.7403 10 12C10 10.8954 10.8954 10 12 10C12.7403 10 13.3866 10.4022 13.7324 11H15.874Z" fill="#000000" class="bmwfcol"/><path d="M29 12H12V24H19.5V26H4V28H28V26H21.5V24H29V12ZM14 17V14H17V17H14ZM19 17V14H22V17H19ZM22 19V22H19V19H22ZM24 22V19H27V22H24ZM24 17V14H27V17H24ZM14 19H17V22H14V19Z" fill="#000000" class="bmwfcol"/><title>sun_and_solar_panel_rg_48</title></svg>