<svg width="48" height="48" viewBox="0 0 32 32" xmlns="http://www.w3.org/2000/svg"><path d="M16 10C12.6863 10 10 12.6863 10 16C10 19.3137 12.6863 22 16 22C19.3137 22 22 19.3137 22 16C22 12.6863 19.3137 10 16 10ZM8 16C8 11.5817 11.5817 8 16 8C20.4183 8 24 11.5817 24 16C24 20.4183 20.4183 24 16 24C11.5817 24 8 20.4183 8 16Z" fill="#000000" class="bmwfcol"/><path d="M17 1V5H15V1H17ZM7.51472 8.92893L4.68629 6.1005L6.1005 4.68629L8.92893 7.51472L7.51472 8.92893ZM27.3137 6.1005L24.4853 8.92893L23.0711 7.51472L25.8995 4.68629L27.3137 6.1005ZM5 17H1V15H5V17ZM31 17H27V15H31V17ZM8.92893 24.4853L6.1005 27.3137L4.68629 25.8995L7.51472 23.0711L8.92893 24.4853ZM25.8995 27.3137L23.0711 24.4853L24.4853 23.0711L27.3137 25.8995L25.8995 27.3137ZM17 27V31H15V27H17Z" fill="#000000" class="bmwfcol"/><title>sun_rg_48</title></svg>