<svg width="48" height="48" viewBox="0 0 32 32" xmlns="http://www.w3.org/2000/svg"><path d="M18 7H2V5H30V7H20V10.6989L26.8747 8.85683L30.2393 21.4139L14.2708 25.6926C13.8128 25.8154 13.3736 25.9331 12.9781 26.0027C12.5665 26.0751 12.1289 26.1103 11.6804 26.0223C10.9339 25.8757 10.3661 25.4329 9.84624 24.8076L4.60763 26.2113L2.53708 18.4839L4.93605 17.8411L4.12562 16.6837L3.69197 15.0686L18 11.2348V7ZM8.59837 23.0714L6.15683 19.5845L4.98657 19.8981L6.02184 23.7618L8.59837 23.0714ZM11.0558 23.0942C11.6324 23.9176 11.9066 24.0285 12.0657 24.0597C12.1746 24.0811 12.3389 24.0845 12.6313 24.033C12.931 23.9802 13.2871 23.8856 13.7839 23.7525L27.7898 19.9996L25.4605 11.3063L6.3815 16.4185L11.0558 23.0942Z" fill="#000000" class="bmwfcol"/><title>surveillance-camera_rg_48</title></svg>