<svg width="48" height="48" viewBox="0 0 32 32" xmlns="http://www.w3.org/2000/svg"><path d="M16.6348 7.29243C17.1544 6.67374 17.45 5.8684 17.45 5C17.45 4.02275 17.1198 3.13067 16.4696 2.48039C15.8193 1.83011 14.9272 1.5 13.95 1.5C12.9727 1.5 12.0806 1.83011 11.4303 2.48039C10.7801 3.13067 10.45 4.02275 10.45 5C10.45 5.22123 10.4669 5.43809 10.5006 5.64878L9.68722 5.43083L6.33764 17.9316L7.30357 18.1904L6.31988 21.8617L6.31906 21.8648C6.13926 22.5444 6.14784 23.2375 6.40468 23.8602C6.08197 24.0166 5.78734 24.2235 5.53044 24.4804C4.88016 25.1307 4.55005 26.0228 4.55005 27C4.55005 27.9772 4.88016 28.8693 5.53044 29.5196C6.18072 30.1699 7.0728 30.5 8.05005 30.5C10.1337 30.5 11.55 28.9011 11.55 27C11.55 26.3047 11.3829 25.6524 11.0523 25.0998C11.5829 24.6888 11.9343 24.0935 12.1155 23.4143L13.0991 19.7434L14.0651 20.0022L17.4146 7.50139L16.6348 7.29243ZM12.8446 3.89461C13.0693 3.66989 13.4272 3.5 13.95 3.5C14.4727 3.5 14.8306 3.66989 15.0553 3.89461C15.2801 4.11933 15.45 4.47725 15.45 5C15.45 5.86028 14.8663 6.5 13.95 6.5C13.7794 6.5 13.6265 6.48193 13.4899 6.44977L13.3928 6.42376C13.1586 6.35308 12.9781 6.23892 12.8446 6.10539C12.6198 5.88067 12.45 5.52275 12.45 5C12.45 4.47725 12.6198 4.11933 12.8446 3.89461ZM12.8629 8.3523C12.902 8.36349 12.9414 8.37404 12.981 8.38396L14.9651 8.9156L12.6509 17.5527L8.78715 16.5174L11.1014 7.88032L12.8629 8.3523ZM9.23544 18.7081L11.1673 19.2257L10.1833 22.8982C10.0761 23.3 9.89955 23.484 9.75463 23.5675C9.62555 23.6418 9.41517 23.6977 9.08904 23.6343C9.03076 23.6185 8.97188 23.6041 8.91243 23.5911C8.54531 23.4832 8.37235 23.3151 8.29151 23.1747C8.20694 23.0279 8.1465 22.7783 8.25218 22.3777L8.25255 22.3763L9.23544 18.7081ZM8.43554 25.5344L8.44119 25.5359C8.49772 25.5511 8.55435 25.5649 8.61103 25.5774C8.84336 25.6482 9.02266 25.7618 9.15544 25.8946C9.38016 26.1193 9.55005 26.4772 9.55005 27C9.55005 27.8603 8.96644 28.5 8.05005 28.5C7.5273 28.5 7.16938 28.3301 6.94466 28.1054C6.71993 27.8807 6.55005 27.5228 6.55005 27C6.55005 26.4772 6.71993 26.1193 6.94466 25.8946C7.16938 25.6699 7.5273 25.5 8.05005 25.5C8.19019 25.5 8.31848 25.5122 8.43554 25.5344Z" fill="#000000" class="bmwfcol"/><path d="M24 8V6H26V4H24V2H22V4H20V6H22V8H24Z" fill="#000000" class="bmwfcol"/><path d="M24 21.0627L26 19.0627V21.5376L23 24.5376L20 21.5376V19.0627L22 21.0627V18H24V21.0627Z" fill="#000000" class="bmwfcol"/><path d="M26 14.9748L24 12.9748V16.0375H22V12.9748L20 14.9748V12.4999L23 9.49988L26 12.4999V14.9748Z" fill="#000000" class="bmwfcol"/><path d="M26 28H20V26H26V28Z" fill="#000000" class="bmwfcol"/><title>suspension_arrows_plus_minus_rg_48</title></svg>