<svg width="48" height="48" viewBox="0 0 32 32" xmlns="http://www.w3.org/2000/svg"><path d="M2 6H3C5.92725 6 8.44433 6.98011 10.2321 8.76789C12.0199 10.5557 13 13.0728 13 16V17.5433C14.7587 15.9094 17.1838 15 20 15L30 15V16C30 18.9272 29.0199 21.4443 27.2321 23.2321C25.4443 25.0199 22.9272 26 20 26H12C12 26 12 26 12 26C9.07276 26 6.55567 25.0199 4.76789 23.2321C2.98011 21.4443 2 18.9272 2 16V6ZM13 24H20C22.4727 24 24.4556 23.1801 25.8179 21.8179C26.9912 20.6446 27.7622 19.0107 27.9534 17L20 17C16.7107 17 14.2682 18.4461 13 20.766V24ZM11 16C11 13.5272 10.1801 11.5443 8.81789 10.1821C7.64456 9.00877 6.01071 8.23779 4 8.04655V16C4 18.4728 4.81989 20.4557 6.18211 21.8179C7.35544 22.9912 8.98929 23.7622 11 23.9535V16Z" fill="#000000" class="bmwfcol"/><title>sustainability_logo_rg_48</title></svg>