<svg width="48" height="48" viewBox="0 0 32 32" xmlns="http://www.w3.org/2000/svg"><path d="M29.4141 28L5.41412 4H2.58569L26.5857 28H29.4141Z" fill="#000000" class="bmwfcol"/><path d="M14.7097 9.42715C14.4069 9.52896 14.1072 9.6533 13.8031 9.80306L15.329 11.329L15.347 11.3229C16.2773 11.0102 17.2068 11 19 11C20.5964 11 21.7104 11.2196 22.8035 11.6436C23.8868 12.064 24.966 12.6887 26.5146 13.5853L26.9239 13.8222L28 13.9163L28 14.0204C27.9999 14.2808 27.9997 14.6917 28.1966 15.1839C28.3537 15.5768 28.6134 15.9705 29.0001 16.3995L29 19.6428C29.4383 19.4632 29.909 19.2074 30.5002 18.866L31.0003 18.5773L31 15.5858L30.7071 15.2929C30.2594 14.8452 30.1095 14.5812 30.0535 14.4411C30.0056 14.3214 30 14.2408 30 14L29.9999 12.0837L27.5411 11.8685L27.4483 11.8147C25.9682 10.9574 24.76 10.2575 23.5269 9.77906C22.1754 9.25471 20.8122 9.00002 19 9.00002L18.8866 9.00001C17.2361 8.99979 15.9815 8.99962 14.7097 9.42715Z" fill="#000000" class="bmwfcol"/><path d="M27 22C27 22.2846 26.9506 22.5721 26.8395 22.8395L25 21V16H20L18 14H25C25.5159 14 26.0414 14.1622 26.4396 14.5604C26.8378 14.9586 27 15.4841 27 16V22Z" fill="#000000" class="bmwfcol"/><path d="M20 24L18 22H15V19L13 17V22C13 22.5159 13.1622 23.0414 13.5604 23.4396C13.9586 23.8378 14.4841 24 15 24H20Z" fill="#000000" class="bmwfcol"/><path d="M5.19911 14.6541C6.13046 14.4471 7.46093 14.3154 10.0842 14.0842L8.24216 12.2422C6.6401 12.3929 5.58477 12.5196 4.76518 12.7018C3.4897 12.9853 2.75293 13.4107 1.54774 14.1066L1.00027 14.4226L1 19.2707L1.74122 19.4693C2.66139 19.7159 3.19989 19.8509 3.58273 19.9214C3.66771 19.937 3.74551 19.9496 3.81795 19.9596C4.37123 21.1638 5.58797 22 7 22C8.39619 22 9.60144 21.1825 10.1632 20H11V18H10.4646C10.222 16.3039 8.76324 15 7 15C5.28167 15 3.85255 16.2383 3.55633 17.8712C3.40571 17.8358 3.22405 17.7907 3.00009 17.733L3.00021 15.5788C3.89751 15.0682 4.38084 14.836 5.19911 14.6541ZM5.5 18.5C5.5 17.6716 6.17157 17 7 17C7.82843 17 8.5 17.6716 8.5 18.5C8.5 19.3284 7.82843 20 7 20C6.17157 20 5.5 19.3284 5.5 18.5Z" fill="#000000" class="bmwfcol"/><title>take-card-out-of-car_rg_48</title></svg>