<svg width="48" height="48" viewBox="0 0 32 32" xmlns="http://www.w3.org/2000/svg"><path d="M25 7H20V5H25C25.5159 5 26.0414 5.16222 26.4396 5.56039C26.8378 5.95856 27 6.48408 27 7V12H25V7Z" fill="#000000" class="bmwfcol"/><path d="M25 25H20V27H25C25.5159 27 26.0414 26.8378 26.4396 26.4396C26.8378 26.0414 27 25.5159 27 25V20H25V25Z" fill="#000000" class="bmwfcol"/><path d="M7 7H12V5H7C6.48408 5 5.95856 5.16222 5.56039 5.56039C5.16222 5.95856 5 6.48408 5 7V12H7V7Z" fill="#000000" class="bmwfcol"/><path d="M7 25H12V27H7C6.48408 27 5.95856 26.8378 5.56039 26.4396C5.16222 26.0414 5 25.5159 5 25V20H7V25Z" fill="#000000" class="bmwfcol"/><title>target-frame_rg_48</title></svg>