<svg width="48" height="48" viewBox="0 0 32 32" xmlns="http://www.w3.org/2000/svg"><path d="M21 11H11V21H21V11ZM13 19V13H19V19H13Z" fill="#000000" class="bmwfcol"/><path d="M14 2V6H18V2H20V6H24C24.5159 6 25.0414 6.16222 25.4396 6.5604C25.8378 6.95857 26 7.48408 26 8V12H30V14H26V18H30V20H26V24C26 24.5159 25.8378 25.0414 25.4396 25.4396C25.0414 25.8378 24.5159 26 24 26H20V30H18V26H14V30H12V26H8C7.48408 26 6.95856 25.8378 6.56039 25.4396C6.16222 25.0414 6 24.5159 6 24V20H2V18H6V14H2V12H6V8C6 7.48408 6.16222 6.95857 6.56039 6.5604C6.95856 6.16222 7.48408 6 8 6H12V2H14ZM8 8V24H24V8H8Z" fill="#000000" class="bmwfcol"/><title>technologies_rg_48</title></svg>