<svg width="48" height="48" viewBox="0 0 32 32" xmlns="http://www.w3.org/2000/svg"><path d="M5.86789 5.86789C8.35567 3.38011 11.8728 2 16 2V4C12.3272 4 9.34433 5.21989 7.28211 7.28211C5.21989 9.34433 4 12.3272 4 16H2C2 11.8728 3.38012 8.35567 5.86789 5.86789Z" fill="#000000" class="bmwfcol"/><path d="M8.76789 8.76789C10.5557 6.98011 13.0728 6 16 6V8C13.5272 8 11.5443 8.81989 10.1821 10.1821C8.81989 11.5443 8 13.5272 8 16H6C6 13.0728 6.98011 10.5557 8.76789 8.76789Z" fill="#000000" class="bmwfcol"/><path d="M16 10C14.2728 10 12.7557 10.5801 11.6679 11.6679C10.5801 12.7557 10 14.2728 10 16H12C12 14.7272 12.4199 13.7443 13.0821 13.0821C13.7443 12.4199 14.7272 12 16 12V10Z" fill="#000000" class="bmwfcol"/><path d="M18.8866 17C17.2362 16.9998 15.9815 16.9996 14.7097 17.4271C13.4632 17.8462 12.2706 18.6468 10.6006 20.0311C7.57816 20.2954 5.93254 20.4423 4.76518 20.7018C3.38894 21.0076 2.20613 21.7264 1.00027 22.4226L1 27.2707C1.93051 27.52 2.86095 27.8269 3.81795 27.9596C4.37123 29.1638 5.58797 30 7 30C8.39619 30 9.60144 29.1825 10.1632 28H20.8368C21.3986 29.1825 22.6038 30 24 30C25.3981 30 26.6047 29.1803 27.1655 27.9952C28.5865 27.9601 29.8034 27.2684 31.0003 26.5773L31 23.5858C30.5354 23.1211 30 22.6995 30 22L29.9999 20.0837L27.5411 19.8685C26.2382 19.1138 24.935 18.3254 23.5269 17.7791C22.0372 17.2011 20.4772 17.0002 18.8866 17ZM27.4615 25.9791C27.2099 24.2931 25.756 23 24 23C22.2368 23 20.7781 24.3039 20.5354 26H10.4646C10.222 24.3039 8.76324 23 7 23C5.28166 23 3.85255 24.2383 3.55633 25.8712C3.40571 25.8358 3.22405 25.7907 3.00009 25.733L3.00021 23.5788C3.89751 23.0682 4.38083 22.836 5.19911 22.6541C7.21885 22.2052 9.34668 22.1484 11.4015 21.9688C12.5943 20.9679 13.8445 19.828 15.347 19.3229C16.2773 19.0102 17.2068 19 19 19C20.5964 19 21.7104 19.2196 22.8035 19.6436C24.2524 20.2058 25.583 21.0461 26.9239 21.8222L28 21.9163C28 22.9009 28.343 23.6705 29.0001 24.3995L29.0002 25.4165C28.5135 25.6836 28.0215 25.9346 27.4615 25.9791ZM7 25C7.82843 25 8.5 25.6716 8.5 26.5C8.5 27.3284 7.82843 28 7 28C6.17157 28 5.5 27.3284 5.5 26.5C5.5 25.6716 6.17157 25 7 25ZM24 25C24.8284 25 25.5 25.6716 25.5 26.5C25.5 27.3284 24.8284 28 24 28C23.1716 28 22.5 27.3284 22.5 26.5C22.5 25.6716 23.1716 25 24 25Z" fill="#000000" class="bmwfcol"/><path d="M28.2751 12.0308H30V10.0308H26.9325C26.2539 11.8502 25.0497 13.0308 22.9685 13.0308C22.2404 13.0308 21.6063 12.8937 21.072 12.6507L23.2583 12.0649C24.0633 11.8497 24.7088 11.384 24.9708 10.5831C25.1952 9.89704 25.0653 9.14914 24.8967 8.51999C24.7281 7.89093 24.4665 7.17781 23.9294 6.6956C23.302 6.13231 22.5095 6.05152 21.7041 6.26965L19.4847 6.86433C19.6923 6.49232 19.9562 6.17561 20.2647 5.9166C20.9145 5.37106 21.8236 5.03076 22.9685 5.03076C25.0497 5.03076 26.2539 6.2113 26.9325 8.03076H30V6.03076H28.2751C27.2893 4.13583 25.3465 3.03076 22.9685 3.03076C21.4182 3.03076 20.0357 3.49751 18.9788 4.38482C17.6996 5.45867 17.1904 6.94507 16.9633 8.54219L17.8944 9.36101L22.2261 8.20032C22.5117 8.12283 22.6221 8.15732 22.7504 8.42288C22.8222 8.57141 22.8936 8.77205 22.9648 9.0377C23.036 9.30334 23.0744 9.51255 23.0865 9.67671C23.1083 9.97418 23.0272 10.0565 22.7414 10.1329L18.3036 11.322L17.9059 12.5037C19.1943 14.1081 20.8624 15.0308 22.9685 15.0308C25.3465 15.0308 27.2893 13.9257 28.2751 12.0308Z" fill="#000000" class="bmwfcol"/><title>teleservice-call_rg_48</title></svg>