<svg width="48" height="48" viewBox="0 0 32 32" xmlns="http://www.w3.org/2000/svg"><path d="M15.9993 2C20.1265 2 23.6436 3.38011 26.1314 5.86789L24.7172 7.28211C22.655 5.21989 19.672 4 15.9993 4C12.3265 4 9.34362 5.21989 7.2814 7.28211L5.86719 5.86789C8.35497 3.38011 11.872 2 15.9993 2Z" fill="#000000" class="bmwfcol"/><path d="M15.9993 6C18.9265 6 21.4436 6.98011 23.2314 8.76789L21.8172 10.1821C20.455 8.81989 18.472 8 15.9993 8C13.5265 8 11.5436 8.81989 10.1814 10.1821L8.76719 8.76789C10.555 6.98011 13.072 6 15.9993 6Z" fill="#000000" class="bmwfcol"/><path d="M15.9993 10C17.7265 10 19.2436 10.5801 20.3314 11.6679L18.9172 13.0821C18.255 12.4199 17.272 12 15.9993 12C14.7265 12 13.7436 12.4199 13.0814 13.0821L11.6672 11.6679C12.755 10.5801 14.272 10 15.9993 10Z" fill="#000000" class="bmwfcol"/><path d="M18.8182 24.2646L15.998 19.4219L13.1777 24.2646H18.8182Z" fill="#000000" class="bmwfcol"/><path d="M14.2052 15.0091C15.0085 13.6636 16.9882 13.6636 17.7916 15.0091L23.7108 24.9221C24.5398 26.3105 23.5022 27.942 21.998 27.9985V30H19.998V28H11.998V30H9.99805V27.9985C8.49427 27.9416 7.45708 26.3103 8.28597 24.9221L14.2052 15.0091ZM9.99874 25.9559C12.8174 25.9684 21.9701 25.9886 21.9701 25.9886C20.9265 24.2253 15.9984 16 15.9984 16C15.9984 16 11.0467 24.2006 9.99874 25.9559Z" fill="#000000" class="bmwfcol"/><title>teleservice-accident-assistance-call_rg_48</title></svg>