<svg width="48" height="48" viewBox="0 0 32 32" xmlns="http://www.w3.org/2000/svg"><path d="M14.0002 4V13.8889C14.0002 14.5321 14.2727 15.1255 14.8288 15.519C15.3351 15.8774 15.9767 16 16.6252 16H26.3752C27.0237 16 27.6653 15.8774 28.1716 15.519C28.7277 15.1255 29.0002 14.5321 29.0002 13.8889L29.0002 4H14.0002ZM16.0002 13.8889V7.83925L20.8796 11H22.1208L27.0002 7.83925L27.0002 13.8889L27.0001 13.8965C26.9413 13.9295 26.7635 14 26.3752 14H16.6252C16.2369 14 16.0591 13.9295 16.0003 13.8965L16.0002 13.8889ZM16.8395 6H26.1609L21.5296 9H21.4708L16.8395 6Z" fill="#000000" class="bmwfcol"/><path d="M22.4457 23.9362C22.4457 23.2512 22.134 22.6429 21.6596 22.1685L19.5383 20.0471C19.2525 19.7614 18.9065 19.5046 18.4658 19.3633C18.0219 19.221 17.5695 19.2237 17.115 19.3149C16.4162 19.4551 15.5931 19.8335 14.5788 20.391L10.7092 16.5213C11.2666 15.507 11.645 14.6839 11.7852 13.9852C11.8764 13.5306 11.8791 13.0782 11.7368 12.6343C11.5955 12.1936 11.3388 11.8476 11.053 11.5619L8.93165 9.44052C8.45724 8.9661 7.84896 8.65442 7.16388 8.65443C6.47881 8.65444 5.87054 8.96613 5.39614 9.44054L2.60156 12.2351L2.75074 12.7926C3.24918 14.6553 3.82178 16.2188 4.72886 17.765C5.63325 19.3067 6.84537 20.7893 8.57812 22.522C10.3109 24.2547 11.7934 25.4669 13.3351 26.3713C14.8814 27.2783 16.4448 27.8509 18.3075 28.3494L18.865 28.4986L21.6596 25.704C22.134 25.2296 22.4457 24.6213 22.4457 23.9362ZM17.8552 21.2679C17.9023 21.283 17.9848 21.3221 18.1241 21.4614L20.2454 23.5827C20.4286 23.7659 20.4457 23.8894 20.4457 23.9362C20.4457 23.983 20.4286 24.1066 20.2454 24.2898L18.2711 26.2641C16.7717 25.8336 15.5438 25.3482 14.3471 24.6462C13.0018 23.857 11.6537 22.7691 9.99233 21.1078C8.33097 19.4464 7.24313 18.0984 6.45394 16.7531C5.75192 15.5563 5.26654 14.3284 4.83605 12.829L6.81035 10.8548C6.99355 10.6715 7.11713 10.6544 7.16391 10.6544C7.21068 10.6544 7.33424 10.6715 7.51744 10.8547L9.63878 12.9761C9.778 13.1153 9.81715 13.1978 9.83227 13.2449C9.84637 13.2889 9.866 13.3838 9.82427 13.5918C9.72822 14.0707 9.38228 14.8285 8.59832 16.194L8.21722 16.8578L14.2424 22.8829L14.9061 22.5018C16.2716 21.7178 17.0295 21.3719 17.5083 21.2759C17.7164 21.2341 17.8112 21.2538 17.8552 21.2679Z" fill="#000000" class="bmwfcol"/><title>telephone_and_mail_rg_48</title></svg>