<svg width="48" height="48" viewBox="0 0 32 32" xmlns="http://www.w3.org/2000/svg"><path d="M21.1696 7.25769L22.3302 2.92596L21.5114 1.99487L20.9765 2.07094C19.5036 2.28038 18.2431 2.95133 17.3541 4.01037C16.4668 5.06731 16 6.44984 16 8.00005C16 10.3781 17.1051 12.3209 19 13.3066V27C19 27.8273 19.2801 28.5944 19.8429 29.1572C20.4057 29.7199 21.1728 30 22 30C22.8272 30 23.5943 29.7199 24.1571 29.1572C24.7199 28.5944 25 27.8273 25 27V13.3066C26.8949 12.3209 28 10.3781 28 8.00005C28 6.05011 27.2595 4.37226 25.8995 3.28009L25.473 2.93753L24.2912 3.33518L23.1023 7.77228C23.0511 7.96387 22.9963 8.04541 22.9741 8.07222C22.9599 8.0893 22.9529 8.09419 22.9306 8.10147C22.8951 8.11308 22.8103 8.13014 22.646 8.11806C22.4818 8.106 22.2726 8.06761 22.0069 7.99643C21.7413 7.92523 21.5406 7.8538 21.3921 7.78203C21.2434 7.71014 21.1782 7.65281 21.1531 7.62487C21.1373 7.60733 21.1339 7.59983 21.1303 7.57873C21.1246 7.54516 21.1178 7.44857 21.1696 7.25769ZM18.8858 5.29631C19.1448 4.98779 19.4616 4.72389 19.8336 4.51627L19.2389 6.73554C19.0208 7.54103 19.1015 8.33352 19.6648 8.96097C20.147 9.49808 20.8602 9.75967 21.4892 9.92826C22.1184 10.0969 22.8663 10.2268 23.5523 10.0024C24.3534 9.74037 24.8192 9.09447 25.0343 8.28922L25.62 6.1036C25.8629 6.63793 26 7.27202 26 8.00005C26 9.89987 25.0718 11.1913 23.6505 11.7215L23 11.9641V27C23 27.3728 22.8801 27.6057 22.7429 27.7429C22.6057 27.8802 22.3728 28 22 28C21.6272 28 21.3943 27.8802 21.2571 27.7429C21.1199 27.6057 21 27.3728 21 27V11.9641L20.3495 11.7215C18.9282 11.1913 18 9.89987 18 8.00005C18 6.85517 18.3403 5.94614 18.8858 5.29631Z" fill="#000000" class="bmwfcol"/><path d="M4 15.9999C4 12.3272 5.21989 9.34424 7.28211 7.28202L5.86789 5.86781C3.38011 8.35559 2 11.8727 2 15.9999C2 20.1272 3.38011 23.6442 5.86789 26.132L7.28211 24.7178C5.21989 22.6556 4 19.6727 4 15.9999Z" fill="#000000" class="bmwfcol"/><path d="M8.76789 8.76781C6.98011 10.5556 6 13.0727 6 15.9999C6 18.9272 6.98011 21.4442 8.76789 23.232L10.1821 21.8178C8.81989 20.4556 8 18.4727 8 15.9999C8 13.5272 8.81989 11.5442 10.1821 10.182L8.76789 8.76781Z" fill="#000000" class="bmwfcol"/><path d="M11.6679 11.6678C10.5801 12.7556 10 14.2727 10 15.9999C10 17.7272 10.5801 19.2442 11.6679 20.332L13.0821 18.9178C12.4199 18.2556 12 17.2727 12 15.9999C12 14.7272 12.4199 13.7442 13.0821 13.082L11.6679 11.6678Z" fill="#000000" class="bmwfcol"/><title>tele-services_rg_48</title></svg>