<svg width="48" height="48" viewBox="0 0 32 32" xmlns="http://www.w3.org/2000/svg"><path d="M24.4855 18.8285L27.3139 21.6569C27.6067 21.9497 27.6786 22.1952 27.6786 22.364C27.6786 22.5327 27.6067 22.7783 27.3139 23.0711L24.543 25.842C22.4399 25.2495 20.7219 24.5818 19.0451 23.5981C17.2186 22.5267 15.3988 21.0555 13.1717 18.8284C10.9447 16.6014 9.47353 14.7816 8.40207 12.9551C7.41839 11.2782 6.75067 9.5602 6.1582 7.45714L8.92909 4.68626C9.2219 4.39345 9.46745 4.32153 9.6362 4.32153C9.80495 4.32153 10.0505 4.39344 10.3433 4.68623L13.1717 7.51469C13.3818 7.72476 13.4703 7.87865 13.5114 8.0071C13.5516 8.13239 13.5741 8.31845 13.5102 8.63693C13.3698 9.33664 12.8797 10.3923 11.8378 12.207L11.4567 12.8708L19.1294 20.5434L19.7932 20.1624C21.6079 19.1205 22.6635 18.6304 23.3632 18.49C23.6817 18.4261 23.8678 18.4486 23.993 18.4887C24.1215 18.5299 24.2754 18.6184 24.4855 18.8285ZM25.5461 27.6673L28.7281 24.4853C29.3121 23.9013 29.6786 23.1711 29.6786 22.364C29.6786 21.557 29.3121 20.8267 28.7281 20.2427L25.8996 17.4142C25.543 17.0576 25.1256 16.7516 24.6036 16.5842C24.0784 16.4159 23.5348 16.4157 22.9699 16.5291C22.0406 16.7155 20.9147 17.2426 19.4646 18.0502L13.95 12.5356C14.7575 11.0855 15.2847 9.95958 15.4711 9.03028C15.5844 8.46532 15.5843 7.92171 15.416 7.39652C15.2486 6.8745 14.9426 6.4571 14.586 6.10049L11.7575 3.27202C11.1735 2.688 10.4432 2.32152 9.63618 2.32153C8.82913 2.32154 8.09889 2.68803 7.51488 3.27204L3.9248 6.86211L4.07399 7.41962C4.73385 9.8856 5.48765 11.9396 6.67699 13.9671C7.86364 15.9899 9.4591 17.9442 11.7575 20.2427C14.0559 22.5411 16.0103 24.1365 18.0331 25.3232C20.0605 26.5125 22.1145 27.2663 24.5805 27.9262L25.138 28.0754L25.5461 27.6673Z" fill="#000000" class="bmwfcol"/><title>telephone_rg_48</title></svg>