<svg width="48" height="48" viewBox="0 0 32 32" xmlns="http://www.w3.org/2000/svg"><path d="M26.1314 5.86789C23.6436 3.38011 20.1265 2 15.9993 2C11.872 2 8.35497 3.38011 5.86719 5.86789L7.2814 7.28211C9.34362 5.21989 12.3265 4 15.9993 4C19.672 4 22.655 5.21989 24.7172 7.28211L26.1314 5.86789Z" fill="#000000" class="bmwfcol"/><path d="M23.2314 8.76789C21.4436 6.98011 18.9265 6 15.9993 6C13.072 6 10.555 6.98011 8.76719 8.76789L10.1814 10.1821C11.5436 8.81989 13.5265 8 15.9993 8C18.472 8 20.455 8.81989 21.8172 10.1821L23.2314 8.76789Z" fill="#000000" class="bmwfcol"/><path d="M15.9993 10C17.7265 10 19.2436 10.5801 20.3314 11.6679L18.9172 13.0821C18.255 12.4199 17.272 12 15.9993 12C14.7265 12 13.7436 12.4199 13.0814 13.0821L11.6672 11.6679C12.755 10.5801 14.272 10 15.9993 10Z" fill="#000000" class="bmwfcol"/><path d="M18.998 24V26H20.998V24H22.998V22H20.998V20H18.998V22H16.998V24H18.998Z" fill="#000000" class="bmwfcol"/><path d="M14.498 22V24H8.99805V22H14.498Z" fill="#000000" class="bmwfcol"/><path d="M7.99805 15H13.998V17H17.998V15H23.998V17H26.998V30H4.99805V17H7.99805V15ZM9.99805 17V19H6.99805V28H24.998V19H21.998V17H19.998V19H11.998V17H9.99805Z" fill="#000000" class="bmwfcol"/><title>teleservice-battery-guard_rg_48</title></svg>