<svg width="48" height="48" viewBox="0 0 32 32" xmlns="http://www.w3.org/2000/svg"><path d="M16.5005 2.13363L15.6345 1.63379L10.1298 11.1671C9.97318 11.4381 9.8332 11.7159 9.70959 11.9995H2V26.9995H10.993L10.9956 25.9841C12.474 26.6501 14.1633 26.9997 16.0005 26.9997H24.8381C25.5303 26.4725 26.1473 25.8703 26.7015 25.1986C27.5365 24.1864 28.5126 22.6856 29.0289 20.7585C29.5031 18.989 29.7514 17.8108 29.8767 16.7411C30.0028 15.6649 30.0006 14.5815 30.0006 13.4996C30.0006 12.5224 29.6705 11.6303 29.0202 10.98C28.3699 10.3298 27.4778 9.99964 26.5006 9.99964L18.5265 9.9997C18.9437 8.49565 19.0701 7.07693 18.8744 5.82836C18.6267 4.24823 17.8521 2.9138 16.5005 2.13363ZM25.1587 23.9258C24.7448 24.4275 24.3688 24.7906 24.1352 24.9997H16.0005C14.045 24.9997 12.3596 24.5415 11.0003 23.737L10.9961 15.5011C11.0003 14.282 11.2903 13.1563 11.8618 12.1672L16.266 4.5398C16.5778 4.94944 16.7953 5.47936 16.8985 6.13806C17.0755 7.26692 16.9047 8.74074 16.2806 10.4569L16.2204 10.6224V11.9997L26.5006 11.9996C27.4054 11.9996 28.0006 12.5948 28.0006 13.4996C28.0006 14.7593 27.9995 15.5759 27.8903 16.5083C27.7813 17.4386 27.5608 18.5104 27.0971 20.2409C26.6756 21.8138 25.8705 23.063 25.1587 23.9258ZM4 24.9995V13.9995H9.11975C9.03816 14.4895 8.99719 14.9895 8.99556 15.4963L8.99814 24.9995H4Z" fill="#000000" class="bmwfcol"/><title>thumbs-up_rg_48</title></svg>