<svg width="48" height="48" viewBox="0 0 32 32" xmlns="http://www.w3.org/2000/svg"><path d="M10.993 5H2V20H9.70955C9.83321 20.2838 9.97326 20.5617 10.1299 20.8329L15.6345 30.3659L16.5005 29.8661C17.8521 29.0859 18.6267 27.7515 18.8744 26.1713C19.0701 24.9228 18.9437 23.504 18.5265 22L26.5006 22.0001C27.4778 22.0001 28.3699 21.6699 29.0202 21.0197C29.6705 20.3694 30.0006 19.4773 30.0006 18.5001C30.0006 17.4182 30.0028 16.3348 29.8767 15.2586C29.7514 14.1889 29.5031 13.0107 29.0289 11.2412C28.5126 9.31413 27.5365 7.81332 26.7015 6.80114C26.1473 6.12937 25.5302 5.52739 24.8381 5H16.0005C14.1633 5 12.474 5.34964 10.9956 6.01563L10.993 5ZM4 18V7H8.99814L8.99556 16.5032C8.99719 17.01 9.03816 17.51 9.11975 18H4ZM25.1587 8.07386C25.8705 8.93667 26.6756 10.1859 27.0971 11.7588C27.5608 13.4893 27.7813 14.5611 27.8903 15.4914C27.9995 16.4238 28.0006 17.2404 28.0006 18.5001C28.0006 19.0228 27.8307 19.3807 27.606 19.6054C27.3812 19.8302 27.0233 20.0001 26.5006 20.0001L16.2204 20V21.3773L16.2806 21.5428C16.9047 23.259 17.0755 24.7328 16.8985 25.8616C16.7953 26.5203 16.5778 27.0503 16.266 27.4599L11.8618 19.8325C11.2903 18.8434 11.0003 17.7177 10.9961 16.4986L11.0003 8.26273C12.3596 7.45822 14.045 7 16.0005 7H24.1352C24.3688 7.20906 24.7448 7.57218 25.1587 8.07386Z" fill="#000000" class="bmwfcol"/><title>thumbs-down_rg_48</title></svg>