<svg width="48" height="48" viewBox="0 0 32 32" xmlns="http://www.w3.org/2000/svg"><path d="M7.82789 3.82789C8.39856 3.25722 9.17408 3 10 3H26C26.8259 3 27.6014 3.25722 28.1721 3.82789C28.7428 4.39856 29 5.17408 29 6V16C29 16.8259 28.7428 17.6014 28.1721 18.1721C27.6014 18.7428 26.8259 19 26 19H24.5995L22.5995 17H26C26.4141 17 26.6386 16.8772 26.7579 16.7579C26.8772 16.6386 27 16.4141 27 16V9H14.5995L13.0938 7.49427C12.9284 7.3289 12.7334 7.15889 12.5098 7H27V6C27 5.58592 26.8772 5.36144 26.7579 5.24211C26.6386 5.12278 26.4141 5 26 5H10C9.58592 5 9.36144 5.12278 9.24211 5.24211C9.12278 5.36144 9 5.58592 9 6V6.47715C8.32523 6.71568 7.79397 7.11703 7.41673 7.49427L7 7.911V6C7 5.17408 7.25722 4.39856 7.82789 3.82789Z" fill="#000000" class="bmwfcol"/><path d="M25 15H20.5995L19 13.4005V13H25L25 15Z" fill="#000000" class="bmwfcol"/><path d="M12.184 13.9369C12.6038 13.5171 13.2845 13.5171 13.7043 13.9369C14.1241 14.3567 14.1241 15.0374 13.7043 15.4572C13.2845 15.877 12.6038 15.877 12.184 15.4572C11.7642 15.0374 11.7642 14.3567 12.184 13.9369Z" fill="#000000" class="bmwfcol"/><path d="M11.7238 15.9169C11.304 15.4971 10.6233 15.4971 10.2035 15.9169C9.78372 16.3367 9.78372 17.0174 10.2035 17.4372C10.6233 17.857 11.304 17.857 11.7238 17.4372C12.1436 17.0174 12.1436 16.3367 11.7238 15.9169Z" fill="#000000" class="bmwfcol"/><path d="M9.74334 17.8964C9.32353 17.4766 8.64288 17.4766 8.22306 17.8964C7.80325 18.3162 7.80325 18.9969 8.22306 19.4167C8.64288 19.8365 9.32353 19.8365 9.74334 19.4167C10.1632 18.9969 10.1632 18.3162 9.74334 17.8964Z" fill="#000000" class="bmwfcol"/><path d="M11.6763 8.90826C11.3237 8.55571 10.8433 8.26221 10.2519 8.26221C9.66054 8.26221 9.18016 8.55571 8.82762 8.90826L6.90996 10.8259L7.3552 11.506C7.51304 11.7471 7.5479 11.955 7.52342 12.133C7.49791 12.3185 7.39455 12.5629 7.12007 12.8374C6.84559 13.1118 6.60117 13.2152 6.41571 13.2407C6.23767 13.2652 6.0298 13.2303 5.7887 13.0725L5.10863 12.6272L3.19097 14.5449C2.83843 14.8974 2.54492 15.3778 2.54492 15.9692C2.54492 16.5606 2.83843 17.041 3.19097 17.3935L14.8885 29.0911C15.2411 29.4436 15.7215 29.7372 16.3129 29.7372C16.9042 29.7371 17.3846 29.4436 17.7372 29.0911L19.6548 27.1735L19.2089 26.4932C19.0507 26.2519 19.0158 26.0439 19.0402 25.8658C19.0656 25.6803 19.169 25.4358 19.4436 25.1612C19.7182 24.8866 19.9627 24.7832 20.1482 24.7578C20.3263 24.7334 20.5343 24.7683 20.7757 24.9265L21.4559 25.3724L23.3738 23.4545C23.7264 23.1019 24.0199 22.6215 24.0199 22.0301C24.0199 21.4387 23.7264 20.9584 23.3738 20.6058L11.6763 8.90826ZM10.2418 10.3225L10.2519 10.3125L10.262 10.3225L21.9596 22.02L21.9695 22.0301L21.9596 22.0402L21.1125 22.8874C20.7169 22.7598 20.2999 22.7183 19.8765 22.7763C19.1775 22.8722 18.5495 23.2269 18.0294 23.747C17.5093 24.267 17.1546 24.8951 17.0587 25.5941C17.0007 26.0175 17.0423 26.4345 17.1698 26.8301L16.323 27.6769L16.3129 27.6868L16.3027 27.6769L4.60518 15.9793L4.59524 15.9692L4.60518 15.9591L5.45266 15.1116C5.8481 15.2389 6.2649 15.2803 6.68815 15.2221C7.38672 15.126 8.01443 14.7714 8.53428 14.2516C9.05413 13.7317 9.40872 13.104 9.50477 12.4054C9.56297 11.9822 9.52159 11.5654 9.39436 11.1699L10.2418 10.3225Z" fill="#000000" class="bmwfcol"/><title>ticket_and_card_rg_48</title></svg>