<svg width="48" height="48" viewBox="0 0 32 32" xmlns="http://www.w3.org/2000/svg"><path d="M15.7309 9.37123C16.2678 8.83426 17.1384 8.83426 17.6754 9.37123C18.2124 9.90821 18.2124 10.7788 17.6754 11.3158C17.1384 11.8527 16.2678 11.8527 15.7309 11.3158C15.1939 10.7788 15.1939 9.90821 15.7309 9.37123Z" fill="#000000" class="bmwfcol"/><path d="M13.6098 11.4926C14.1467 10.9556 15.0173 10.9556 15.5543 11.4926C16.0913 12.0295 16.0913 12.9001 15.5543 13.4371C15.0173 13.9741 14.1467 13.9741 13.6098 13.4371C13.0728 12.9001 13.0728 12.0295 13.6098 11.4926Z" fill="#000000" class="bmwfcol"/><path d="M13.4332 13.6139C12.8962 13.0769 12.0256 13.0769 11.4887 13.6139C10.9517 14.1509 10.9517 15.0215 11.4887 15.5585C12.0256 16.0954 12.8962 16.0954 13.4332 15.5585C13.9702 15.0215 13.9702 14.1509 13.4332 13.6139Z" fill="#000000" class="bmwfcol"/><path d="M9.36757 15.7352C9.90454 15.1983 10.7751 15.1983 11.3121 15.7352C11.8491 16.2722 11.8491 17.1428 11.3121 17.6798C10.7751 18.2168 9.90454 18.2168 9.36757 17.6798C8.8306 17.1428 8.8306 16.2722 9.36757 15.7352Z" fill="#000000" class="bmwfcol"/><path d="M13.1674 1.85879C12.8163 1.50769 12.3384 1.21997 11.7532 1.21997C11.1679 1.21997 10.69 1.50769 10.3389 1.85879L7.58717 4.61056L8.03252 5.29066C8.30069 5.70019 8.37855 6.08729 8.32978 6.44216C8.27998 6.80445 8.08503 7.22333 7.65165 7.65671C7.21827 8.0901 6.79939 8.28504 6.4371 8.33484C6.08223 8.38361 5.69513 8.30575 5.2856 8.03758L4.6055 7.59223L1.85366 10.3441C1.50256 10.6952 1.21484 11.1731 1.21484 11.7583C1.21484 12.3435 1.50256 12.8214 1.85366 13.1725L18.8242 30.1431C19.1753 30.4942 19.6532 30.7819 20.2384 30.7819C20.8237 30.7819 21.3015 30.4942 21.6526 30.1431L24.4045 27.3912L23.959 26.7111C23.6907 26.3015 23.6128 25.9143 23.6615 25.5594C23.7113 25.1971 23.9062 24.7781 24.3396 24.3447C24.7731 23.9113 25.192 23.7163 25.5543 23.6666C25.9092 23.6178 26.2964 23.6957 26.706 23.964L27.3861 24.4096L30.1379 21.6578C30.489 21.3067 30.7768 20.8288 30.7768 20.2436C30.7768 19.6583 30.489 19.1805 30.1379 18.8294L13.1674 1.85879ZM10.3111 6.71448C10.3949 6.10492 10.3145 5.50278 10.091 4.93521L11.7532 3.273L28.7237 20.2436L27.0617 21.9056C26.4941 21.6819 25.8918 21.6014 25.2822 21.6852C24.4066 21.8054 23.6043 22.2516 22.9254 22.9305C22.2466 23.6094 21.8004 24.4117 21.6801 25.2873C21.5964 25.8969 21.6768 26.4991 21.9005 27.0667L20.2384 28.7288L3.26788 11.7583L4.93014 10.096C5.49772 10.3196 6.09986 10.4 6.70942 10.3162C7.58488 10.1959 8.38709 9.7497 9.06586 9.07093C9.74463 8.39215 10.1908 7.58994 10.3111 6.71448Z" fill="#000000" class="bmwfcol"/><title>ticket_rg_48</title></svg>