<svg width="48" height="48" viewBox="0 0 32 32" xmlns="http://www.w3.org/2000/svg"><path d="M22 3V9H16V3H22ZM20 5H18V7H20V5Z" fill="#000000" class="bmwfcol"/><path d="M22 11V17H16V11H22ZM20 13H18V15H20V13Z" fill="#000000" class="bmwfcol"/><path d="M24 3H30V9H24V3ZM28 5H26V7H28V5Z" fill="#000000" class="bmwfcol"/><path d="M26 12.5V11H28V15H30V17H26V14.5H24V12.5H26Z" fill="#000000" class="bmwfcol"/><path d="M11.1802 8.20855L14.0006 11.029V13.8574L9.76594 9.62276L9.75584 9.61282L9.74574 9.62276L8.89826 10.4702C9.0255 10.8657 9.06688 11.2825 9.00868 11.7057C8.91262 12.4043 8.55804 13.032 8.03819 13.5519C7.51834 14.0717 6.89063 14.4263 6.19205 14.5224C5.76881 14.5805 5.352 14.5392 4.95657 14.4119L4.10909 15.2594L4.09915 15.2695L4.10909 15.2796L15.8067 26.9772L15.8168 26.9871L15.8269 26.9772L16.6737 26.1304C16.5462 25.7348 16.5046 25.3178 16.5627 24.8944C16.6585 24.1954 17.0132 23.5673 17.5333 23.0472C18.0534 22.5271 18.6814 22.1725 19.3804 22.0766C19.8039 22.0185 20.2208 22.0601 20.6164 22.1877L21.4635 21.3405L21.4735 21.3304L21.4635 21.3203L19.1431 18.9999H21.9715L22.8777 19.9061C23.2303 20.2587 23.5238 20.739 23.5238 21.3304C23.5238 21.9218 23.2303 22.4022 22.8777 22.7547L20.9598 24.6727L20.2796 24.2268C20.0383 24.0686 19.8302 24.0337 19.6521 24.0581C19.4666 24.0835 19.2221 24.1868 18.9475 24.4615C18.6729 24.7361 18.5695 24.9806 18.5441 25.1661C18.5197 25.3442 18.5546 25.5522 18.7128 25.7935L19.1587 26.4737L17.2411 28.3914C16.8885 28.7439 16.4082 29.0374 15.8168 29.0374C15.2254 29.0374 14.745 28.7439 14.3924 28.3914L2.69488 16.6938C2.34233 16.3413 2.04883 15.8609 2.04883 15.2695C2.04883 14.6781 2.34233 14.1977 2.69488 13.8452L4.61254 11.9275L5.29261 12.3728C5.5337 12.5306 5.74157 12.5655 5.91961 12.541C6.10507 12.5155 6.34949 12.4121 6.62398 12.1376C6.89846 11.8632 7.00182 11.6187 7.02732 11.4333C7.0518 11.2552 7.01695 11.0474 6.85911 10.8063L6.41387 10.1262L8.33153 8.20855C8.68407 7.85601 9.16445 7.5625 9.75584 7.5625C10.3472 7.5625 10.8276 7.85601 11.1802 8.20855Z" fill="#000000" class="bmwfcol"/><path d="M11.4827 13.4366C11.9025 13.0167 12.5832 13.0167 13.003 13.4366C13.4228 13.8564 13.4228 14.537 13.003 14.9568C12.5832 15.3766 11.9025 15.3766 11.4827 14.9568C11.0629 14.537 11.0629 13.8564 11.4827 13.4366Z" fill="#000000" class="bmwfcol"/><path d="M9.70284 15.2165C10.1227 14.7967 10.8033 14.7967 11.2231 15.2165C11.6429 15.6363 11.6429 16.3169 11.2231 16.7368C10.8033 17.1566 10.1227 17.1566 9.70284 16.7368C9.28302 16.3169 9.28302 15.6363 9.70284 15.2165Z" fill="#000000" class="bmwfcol"/><path d="M7.92294 16.9964C8.34276 16.5766 9.02341 16.5766 9.44322 16.9964C9.86304 17.4162 9.86304 18.0969 9.44322 18.5167C9.02341 18.9365 8.34276 18.9365 7.92294 18.5167C7.50313 18.0969 7.50313 17.4162 7.92294 16.9964Z" fill="#000000" class="bmwfcol"/><title>ticket_and_qr_code_rg_48</title></svg>