<svg width="48" height="48" viewBox="0 0 32 32" xmlns="http://www.w3.org/2000/svg"><path d="M11.9293 3.93007C11.9266 3.94602 11.9242 3.96895 11.9242 3.99995V17C11.9242 17.0155 11.9248 17.0291 11.9258 17.0407V18.9238C11.4497 18.909 10.9752 18.7491 10.6126 18.3865C10.2314 18.0053 10.0742 17.5004 10.0742 17V3.99995C10.0742 3.49947 10.2314 2.99462 10.6126 2.61338C10.9939 2.23213 11.4987 2.07495 11.9992 2.07495H19.9982H19.9992C20.4997 2.07495 21.0045 2.23213 21.3858 2.61338C21.767 2.99462 21.9242 3.49947 21.9242 3.99995V13.51L23.7072 15.293L23.8326 15.418C24.5863 16.1688 25.2704 16.8501 25.3825 17.9612C25.4365 18.4956 25.3563 19.073 25.2178 19.7229C25.08 20.3699 24.8623 21.1823 24.5862 22.2126L23.0001 28.1317V30.0001H21.0001V27.8684L22.642 21.7412C22.9298 20.6672 23.1353 19.8999 23.2617 19.3063C23.3896 18.706 23.4144 18.3773 23.3926 18.162C23.3596 17.8351 23.2411 17.6553 22.293 16.7072L21.9242 16.3384V17C21.9242 17.5004 21.767 18.0053 21.3858 18.3865C21.024 18.7483 20.5509 18.9083 20.0758 18.9237V16H20.0742V3.99995C20.0742 3.96895 20.0718 3.94602 20.0691 3.93007C20.0531 3.92736 20.0302 3.92495 19.9992 3.92495H11.9992C11.9682 3.92495 11.9453 3.92736 11.9293 3.93007Z" fill="#000000" class="bmwfcol"/><path d="M16.3504 4.65039H14.6504V6.35039H16.3504V4.65039Z" fill="#000000" class="bmwfcol"/><path d="M14.6504 7.65039H16.3504V9.35039H14.6504V7.65039Z" fill="#000000" class="bmwfcol"/><path d="M19.3504 4.65039H17.6504V6.35039H19.3504V4.65039Z" fill="#000000" class="bmwfcol"/><path d="M9.80823 6.99951L6.80871 4H4.19242L6.19208 5.99966L2 5.99999L2.00016 7.99999L6.19178 7.99966L4.19144 10H6.80774L9.80823 6.99951Z" fill="#000000" class="bmwfcol"/><path d="M14.3401 30H16.4107L14.5114 22.9116L14.8168 19.4267C14.9985 17.3524 15.2229 14.7898 15.3937 12.8372C15.4216 12.5186 15.5352 12.3196 15.6556 12.2045C15.7719 12.0932 15.9564 12 16.2499 12C16.5476 12 16.718 12.0949 16.8115 12.1884C16.905 12.2818 16.9999 12.4522 16.9999 12.75V21H18.9999V12.75C18.9999 11.9978 18.7448 11.2932 18.2257 10.7741C17.7067 10.2551 17.0021 10 16.2499 10C15.4933 10 14.7976 10.2576 14.2731 10.7592C13.7528 11.2569 13.4652 11.9329 13.4013 12.6628C13.2305 14.6154 13.0061 17.1779 12.8244 19.2522L12.4883 23.0884L14.3401 30Z" fill="#000000" class="bmwfcol"/><path d="M25.1323 4H27.7486L25.749 5.99966L30.0005 5.99999L30.0003 7.99999L25.7493 7.99966L27.7496 10H25.1333L22.1328 6.99951L25.1323 4Z" fill="#000000" class="bmwfcol"/><title>ticket_with_code_rg_48</title></svg>