<svg width="48" height="48" viewBox="0 0 32 32" xmlns="http://www.w3.org/2000/svg"><path d="M12.9275 9.14197L10.9795 5.76795V3.08579C11.6021 2.46321 12.2122 1.81105 13.0338 1.45127C13.7899 1.12021 14.7061 1 16 1C17.2939 1 18.2102 1.12021 18.9662 1.45127C19.7878 1.81102 20.398 2.4632 21.0206 3.08579V5.76795L19.0725 9.14202L23 23.869C23 24.3262 22.8548 24.7146 22.5928 25.0891C22.387 25.3832 22.0817 25.7377 21.6706 26.1805C20.1356 27.834 18.5097 29.4052 16.9147 31.0002H15.0853C13.4903 29.4052 11.8644 27.834 10.3294 26.1805C9.91829 25.7377 9.61298 25.3832 9.40715 25.0891C9.14513 24.7146 9 24.3261 9 23.869L12.9275 9.14197ZM12.9795 5.23205L14.5776 8H17.4225L19.0206 5.23205V3.9181C18.6771 3.58657 18.4557 3.41107 18.164 3.28333C17.7899 3.11952 17.2061 3 16 3C14.7939 3 14.2102 3.11952 13.8361 3.28333C13.5443 3.41107 13.3229 3.58657 12.9795 3.9181V5.23205ZM11.0491 23.9471C11.172 24.1218 11.3974 24.3913 11.7951 24.8197C12.5563 25.6396 13.8301 26.9164 15.9137 29.0002H16.0863C18.1699 26.9164 19.4437 25.6396 20.2049 24.8197C20.6026 24.3913 20.828 24.1218 20.9509 23.9471L17.2314 10H14.7686L11.0491 23.9471Z" fill="#000000" class="bmwfcol"/><title>tie_rg_48</title></svg>