<svg width="48" height="48" viewBox="0 0 32 32" xmlns="http://www.w3.org/2000/svg"><path d="M12.7578 12.75C13.0964 12.75 13.4299 12.7738 13.7578 12.8135V17.3857C13.4394 17.2978 13.1042 17.25 12.7578 17.25C10.6867 17.25 9.00781 18.9289 9.00781 21C9.00781 23.0711 10.6867 24.75 12.7578 24.75C14.8289 24.75 16.5078 23.0711 16.5078 21V3H21.0078C21.0078 6.72792 24.0299 9.75 27.7578 9.75V14.25C25.225 14.25 22.8881 13.4125 21.0078 12V21C21.0078 25.5563 17.3142 29.25 12.7578 29.25C8.20146 29.25 4.50781 25.5563 4.50781 21C4.50781 16.4437 8.20146 12.75 12.7578 12.75Z" fill="#000000" class="bmwfcol"/><title>tiktok_rg_48</title></svg>