<svg width="48" height="48" viewBox="0 0 32 32" xmlns="http://www.w3.org/2000/svg"><path d="M29.6871 8.49942H28.3523L22.757 11.7294C21.9735 12.2142 21.1479 11.0499 20.8297 10.4989C20.5105 9.9461 19.941 8.69085 20.7581 8.26893L26.7537 4.80632V3.51532C25.2201 2.5517 23.5867 1.99902 21.7537 1.99902C19.422 1.99902 17.4225 2.76592 15.9716 4.21692C14.5207 5.66792 13.7537 7.66772 13.7537 9.99943C13.7503 10.7772 13.8439 11.5523 14.0323 12.3069L3.04503 23.2907C1.45113 24.8847 1.45113 27.1107 3.04503 28.705C3.84193 29.5019 4.79703 29.9004 5.75212 29.9004C6.70722 29.9004 7.66382 29.5035 8.46082 28.7067L19.4467 17.7209C20.2011 17.9092 20.9761 18.0028 21.7537 17.9994C24.0854 17.9994 26.0849 17.2325 27.5358 15.7815C28.9867 14.3305 29.7537 12.3315 29.7537 9.99943C29.7537 9.49903 29.7145 8.99883 29.6871 8.49942ZM21.7537 15.9994C20.7554 16.0085 19.8262 15.7641 18.8911 15.448L7.04672 27.2924C6.23672 28.1024 5.26882 28.1007 4.45922 27.2907C3.64963 26.4807 3.65103 25.516 4.46102 24.7065L16.3052 12.8624C15.9892 11.9272 15.7447 10.9979 15.7537 9.99943C15.7537 6.35462 18.1089 3.99942 21.7537 3.99942C22.4155 3.99431 23.0749 4.07971 23.7137 4.25323L19.7625 6.53512C19.1232 6.88995 18.6427 7.5068 18.455 8.21352C18.1934 9.18102 18.4157 10.3173 19.0981 11.4993C19.7921 12.7013 20.6807 13.4762 21.6681 13.7401C22.3666 13.9325 23.1344 13.8301 23.7581 13.4613L27.6614 11.2078C27.1937 14.1564 24.9781 15.9994 21.7537 15.9994Z" fill="#000000" class="bmwfcol"/><title>tool_rg_48</title></svg>