<svg width="48" height="48" viewBox="0 0 32 32" xmlns="http://www.w3.org/2000/svg"><path d="M21.2545 2.87897L19.9604 7.7086L18.0285 7.19096L19.3226 2.36133L21.2545 2.87897Z" fill="#000000" class="bmwfcol"/><path d="M23.0714 10.3428L26.6069 6.80724L25.1927 5.39303L21.6572 8.92856L23.0714 10.3428Z" fill="#000000" class="bmwfcol"/><path d="M24.809 13.9715L29.6386 12.6774L29.121 10.7455L24.2914 12.0396L24.809 13.9715Z" fill="#000000" class="bmwfcol"/><path d="M11.8182 20.1813C11.2325 19.5955 11.2325 18.6457 11.8182 18.0599C12.404 17.4742 13.3538 17.4742 13.9396 18.0599C14.5254 18.6457 14.5254 19.5955 13.9396 20.1813C13.3538 20.7671 12.404 20.7671 11.8182 20.1813Z" fill="#000000" class="bmwfcol"/><path d="M4.39333 21.9498C3.22176 23.1213 3.22176 25.0208 4.39333 26.1924L5.80754 27.6066C6.97911 28.7782 8.87861 28.7782 10.0502 27.6066L17.638 20.0189L21.4921 18.9934L24.1925 16.2931L15.7072 7.80779L13.0068 10.5082L11.9816 14.3615L4.39333 21.9498ZM12.8786 16.2929L15.707 19.1213L8.63597 26.1924C8.24544 26.5829 7.61228 26.5829 7.22176 26.1924L5.80754 24.7782C5.41702 24.3877 5.41702 23.7545 5.80754 23.364L12.8786 16.2929ZM20.4582 17.199L17.4211 18.007L13.9933 14.5792L14.8013 11.5421L15.7072 10.6362L21.364 16.2931L20.4582 17.199Z" fill="#000000" class="bmwfcol"/><title>torch_rg_48</title></svg>