<svg width="48" height="48" viewBox="0 0 32 32" xmlns="http://www.w3.org/2000/svg"><path d="M4.37805 13C5.71018 7.82432 10.4085 4 16 4C18.431 4 20.3646 4.5493 22.3399 5.77536C23.838 6.70521 25.352 8.02084 27.125 9.73375V4.125L28.875 5.875V12.875H21.875L20.125 11.125H25.6861C23.9725 9.47244 22.5994 8.29037 21.2851 7.47464C19.6354 6.4507 18.069 6 16 6C11.5224 6 7.73207 8.94289 6.4578 13H4.37805Z" fill="#000000" class="bmwfcol"/><path d="M16 9C16.695 9 17.3663 9.10128 18 9.28988V11.416C17.3875 11.1484 16.7111 11 16 11C13.2386 11 11 13.2386 11 16C11 18.7614 13.2386 21 16 21C18.7614 21 21 18.7614 21 16C21 15.6575 20.9656 15.3231 20.9 15H22.9291C22.9758 15.3266 23 15.6605 23 16C23 19.866 19.866 23 16 23C12.134 23 9 19.866 9 16C9 12.134 12.134 9 16 9Z" fill="#000000" class="bmwfcol"/><path d="M25.4423 15H27.4693V15.2353C27.5029 15.7444 27.5029 16.2551 27.4693 16.7642L29.7434 18.6734L29.5995 19.2746C29.2596 20.6949 28.6982 22.0529 27.936 23.2987L27.6127 23.8271L24.6516 23.5676C24.3152 23.9517 23.9538 24.3132 23.5696 24.6496L23.828 27.608L23.3007 27.9313C22.0558 28.6946 20.6986 29.2575 19.2789 29.5991L18.6772 29.7439L16.7665 27.4691C16.2574 27.5027 15.7467 27.5027 15.2376 27.4691L13.3284 29.7433L12.7272 29.5994C11.3069 29.2595 9.94882 28.6981 8.70303 27.9358L8.17467 27.6126L8.43422 24.6515C8.05006 24.3151 7.68858 23.9536 7.35217 23.5695L4.39376 23.8279L4.07043 23.3006C3.3071 22.0557 2.74434 20.6985 2.40271 19.2788L2.25793 18.6771L4.53267 16.7664C4.51583 16.5112 4.50743 16.2556 4.50747 16H6.50747C6.5074 16.362 6.52778 16.724 6.56861 17.0842L6.62904 17.6174L4.50538 19.4013C4.74386 20.2081 5.06704 20.9875 5.46953 21.7263L8.23309 21.4849L8.56752 21.9053C9.01823 22.4719 9.53187 22.9855 10.0985 23.4362L10.5191 23.7708L10.2767 26.5356C11.016 26.9373 11.7957 27.2596 12.6028 27.497L14.3862 25.3728L14.9196 25.4332C15.6389 25.5147 16.3651 25.5147 17.0844 25.4332L17.6176 25.3728L19.4014 27.4964C20.2082 27.2579 20.9876 26.9347 21.7264 26.5322L21.485 23.7687L21.9054 23.4342C22.4721 22.9835 22.9856 22.4699 23.4364 21.9033L23.7709 21.4827L26.5358 21.725C26.9374 20.9858 27.2597 20.2061 27.4972 19.399L25.3729 17.6156L25.4333 17.0822C25.5117 16.3905 25.5147 15.6923 25.4423 15Z" fill="#000000" class="bmwfcol"/><title>torque_rg_48</title></svg>