<svg width="48" height="48" viewBox="0 0 32 32" xmlns="http://www.w3.org/2000/svg"><path d="M8.12034 19.0001L3.21889 26.0001H0.777344L5.67879 19.0001H8.12034Z" fill="#000000" class="bmwfcol"/><path d="M13.0218 12.0001L9.52076 17.0001H7.07921L10.5802 12.0001H13.0218Z" fill="#000000" class="bmwfcol"/><path d="M17.223 6.0001L14.4222 10.0001H11.9806L14.7815 6.0001H17.223Z" fill="#000000" class="bmwfcol"/><path d="M27.8397 19L29.7153 26H27.6448L25.7691 19H27.8397Z" fill="#000000" class="bmwfcol"/><path d="M25.9641 12L27.3038 17H25.2332L23.8935 12H25.9641Z" fill="#000000" class="bmwfcol"/><path d="M24.3564 6L25.4281 10H23.3576L22.2858 6H24.3564Z" fill="#000000" class="bmwfcol"/><path d="M11.943 15.9431C13.2058 14.6803 14.9729 14.0002 17.0001 14.0002C19.0274 14.0002 20.7945 14.6803 22.0573 15.9431C23.32 17.2058 24.0001 18.9729 24.0001 21.0002C24.0001 23.0274 23.32 24.7945 22.0573 26.0573C20.7945 27.3201 19.0274 28.0002 17.0001 28.0002C14.9729 28.0002 13.2058 27.3201 11.943 26.0573C10.6803 24.7945 10.0002 23.0274 10.0002 21.0002C10.0002 18.9729 10.6803 17.2058 11.943 15.9431ZM13.3573 17.3573C12.7066 18.008 12.2476 18.8977 12.0753 20.0002H13.4906C13.5462 19.8765 13.6095 19.7533 13.6802 19.6308C14.062 18.9702 14.5034 18.4648 15.1792 18.2073C15.7269 17.9986 16.348 17.9995 16.8994 18.0003L17.0001 18.0004L17.1008 18.0003C17.6522 17.9995 18.2734 17.9986 18.821 18.2073C19.4968 18.4648 19.9383 18.9702 20.32 19.6308C20.3907 19.7533 20.454 19.8765 20.5096 20.0002H21.925C21.7527 18.8977 21.2937 18.008 20.643 17.3573C19.8058 16.5201 18.5729 16.0002 17.0001 16.0002C15.4274 16.0002 14.1945 16.5201 13.3573 17.3573ZM21.925 22.0002H20.724C20.6711 22.2027 20.5936 22.4003 20.4908 22.5909C20.0295 23.4472 19.1626 23.9717 18.2412 24.2004C18.1591 24.2207 18.079 24.24 18.0001 24.2578V25.925C19.1026 25.7528 19.9924 25.2937 20.643 24.6431C21.2937 23.9924 21.7527 23.1027 21.925 22.0002ZM13.3573 24.6431C14.0079 25.2937 14.8976 25.7528 16.0001 25.925V24.2578C15.9214 24.24 15.8413 24.2207 15.7592 24.2004C14.8379 23.9717 13.9709 23.4472 13.5095 22.591C13.4068 22.4003 13.3292 22.2027 13.2763 22.0002H12.0753C12.2476 23.1027 12.7066 23.9924 13.3573 24.6431ZM15.8914 20.0762C15.8254 20.1013 15.6836 20.1613 15.412 20.6314C15.1079 21.1576 15.1764 21.4682 15.2702 21.6423C15.3886 21.8619 15.6901 22.1225 16.241 22.2593C16.6417 22.3587 16.8356 22.3864 17.0002 22.3864C17.1648 22.3864 17.3587 22.3587 17.7594 22.2593C18.3103 22.1225 18.6118 21.862 18.7301 21.6423C18.8239 21.4683 18.8923 21.1577 18.5882 20.6314C18.3166 20.1613 18.1748 20.1013 18.1088 20.0762C17.9483 20.015 17.712 20.0004 17.0001 20.0004C16.2882 20.0004 16.0519 20.015 15.8914 20.0762Z" fill="#000000" class="bmwfcol"/><title>traffic-jam-assistant_rg_48</title></svg>