<svg width="48" height="48" viewBox="0 0 32 32" xmlns="http://www.w3.org/2000/svg"><path d="M3.83682 21H1V19H3.53544C3.77805 17.3039 5.23676 16 7 16C8.75598 16 10.2099 17.2931 10.4615 18.9791C10.6313 18.9656 10.7663 18.9436 10.9035 18.9076C11.164 18.8394 11.463 18.7113 12.0002 18.4165L12.0001 17.3995C11.6134 16.9705 11.3537 16.5768 11.1966 16.1839C10.9997 15.6917 10.9999 15.2808 11 15.0204L11 14.9163L9.92394 14.8222L9.51457 14.5853C7.96597 13.6887 6.88679 13.064 5.80346 12.6436C4.7104 12.2196 3.5964 12 2.00003 12C1.63297 12 1.30209 12.0004 1 12.0038V10.0027C1.28352 9.99993 1.57817 9.99997 1.88664 10L2.00003 10C3.81224 10 5.1754 10.2547 6.52688 10.7791C7.75996 11.2575 8.96823 11.9574 10.4483 12.8147L10.5411 12.8685L12.9999 13.0836L13 15C13 15.2408 13.0056 15.3214 13.0535 15.4411C13.1095 15.5812 13.2594 15.8452 13.7071 16.2929L14 16.5858L14.0003 19.5773L13.5002 19.866C12.6385 20.3636 12.0328 20.6793 11.4102 20.8424C10.9981 20.9503 10.6002 20.9845 10.1655 20.9952C9.60471 22.1803 8.39809 23 7 23C5.60381 23 4.39856 22.1825 3.83682 21ZM7 18C6.17157 18 5.5 18.6716 5.5 19.5C5.5 20.3284 6.17157 21 7 21C7.82843 21 8.5 20.3284 8.5 19.5C8.5 18.6716 7.82843 18 7 18Z" fill="#000000" class="bmwfcol"/><path d="M17.5604 11.5604C17.9586 11.1622 18.4841 11 19 11H29C29.5159 11 30.0414 11.1622 30.4396 11.5604C30.8378 11.9586 31 12.4841 31 13V18L31.0002 18.0943C31.0017 18.4997 31.0035 18.979 30.7694 19.4472C30.6481 19.69 30.4857 19.8927 30.3214 20.0752C30.163 20.2512 29.9597 20.4546 29.7247 20.6895L29.4142 21H27.1632C26.6015 22.1825 25.3962 23 24 23C22.6038 23 21.3985 22.1825 20.8368 21L15 21V19H17V13C17 12.4841 17.1622 11.9586 17.5604 11.5604ZM28.5845 19C28.6877 18.8952 28.7685 18.811 28.8348 18.7373C28.9518 18.6073 28.9769 18.56 28.9806 18.5528C28.9815 18.5494 28.9854 18.5332 28.9893 18.4942C28.9989 18.3988 29 18.2685 29 18V13H19V19H20.5354C20.7781 17.3039 22.2368 16 24 16C25.7632 16 27.2219 17.3039 27.4646 19H28.5845ZM22.5 19.5C22.5 20.3284 23.1716 21 24 21C24.8284 21 25.5 20.3284 25.5 19.5C25.5 18.6716 24.8284 18 24 18C23.1716 18 22.5 18.6716 22.5 19.5Z" fill="#000000" class="bmwfcol"/><title>trailer-load_rg_48</title></svg>