<svg width="48" height="48" viewBox="0 0 32 32" xmlns="http://www.w3.org/2000/svg"><path d="M9.5 21C9.5 20.1716 10.1716 19.5 11 19.5C11.8284 19.5 12.5 20.1716 12.5 21C12.5 21.8284 11.8284 22.5 11 22.5C10.1716 22.5 9.5 21.8284 9.5 21Z" fill="#000000" class="bmwfcol"/><path d="M14.5 17C14.5 16.1716 15.1716 15.5 16 15.5C16.8284 15.5 17.5 16.1716 17.5 17C17.5 17.8284 16.8284 18.5 16 18.5C15.1716 18.5 14.5 17.8284 14.5 17Z" fill="#000000" class="bmwfcol"/><path d="M19.5 21C19.5 20.1716 20.1716 19.5 21 19.5C21.8284 19.5 22.5 20.1716 22.5 21C22.5 21.8284 21.8284 22.5 21 22.5C20.1716 22.5 19.5 21.8284 19.5 21Z" fill="#000000" class="bmwfcol"/><path d="M12.8686 2L9 3.0366V5.10715L12 4.3033V6.07943C11.9246 6.08511 11.8504 6.09121 11.7775 6.09774C10.6751 6.19653 9.72847 6.40334 8.93963 6.9073C8.12797 7.42584 7.60342 8.18005 7.18539 9.12766C6.77715 10.0531 6.4333 11.2522 6.03432 12.7412L6.00025 12.8684L6 24C6 24.8259 6.25722 25.6014 6.82789 26.1721C7.39856 26.7428 8.17408 27 9 27H9.26824L7.53619 30H9.84559L11.5776 27H20.4227L22.1547 30H24.4641L22.7321 27H23C23.8259 27 24.6014 26.7428 25.1721 26.1721C25.7428 25.6014 26 24.8259 26 24L25.9998 12.8684L25.9657 12.7412C25.5667 11.2522 25.2228 10.0531 24.8146 9.12766C24.3966 8.18005 23.872 7.42584 23.0604 6.9073C22.2715 6.40334 21.3249 6.19653 20.2225 6.09774C20.1496 6.09121 20.0754 6.08511 20 6.07943V4.30334L23 5.10719V3.03663L19.1314 2.00006L12.8686 2ZM14 6.0069V4.00001L18 4.00004V6.0069C17.4043 5.99999 16.7551 6 16.0485 6H15.9515C15.2449 6 14.5957 5.99999 14 6.0069ZM8 24L8.00022 14H23.9998L24 24C24 24.4141 23.8772 24.6386 23.7579 24.7579C23.6386 24.8772 23.4141 25 23 25H9C8.58592 25 8.36144 24.8772 8.24211 24.7579C8.12278 24.6386 8 24.4141 8 24ZM22.9847 9.93488C23.2184 10.4646 23.4385 11.1338 23.6869 12H17V8.0008C18.2681 8.00386 19.2501 8.01862 20.044 8.08976C21.0341 8.17848 21.5985 8.34667 21.9836 8.59271C22.3459 8.82418 22.6583 9.19497 22.9847 9.93488ZM11.956 8.08976C12.7499 8.01862 13.7319 8.00386 15 8.0008V12H8.3131C8.56153 11.1338 8.78159 10.4646 9.01525 9.93488C9.34165 9.19497 9.65406 8.82418 10.0164 8.59271C10.4015 8.34667 10.9659 8.17848 11.956 8.08976Z" fill="#000000" class="bmwfcol"/><title>train_front_rg_48</title></svg>