<svg width="48" height="48" viewBox="0 0 32 32" xmlns="http://www.w3.org/2000/svg"><path d="M11.7617 13.0054H6.49414V14.4664H8.3714V19.0001H9.8844V14.4664H11.7617V13.0054Z" fill="#000000" class="bmwfcol"/><path d="M14.22 16.0473L14.0514 16.0741C13.7352 16.1244 13.4834 16.1879 13.2414 16.2847C13.0746 16.3525 12.9397 16.4239 12.8399 16.4838V19.0001H11.3566V14.6823H12.8399V14.9527C12.9034 14.9146 12.9705 14.8778 13.0431 14.843C13.2694 14.734 13.6258 14.6412 13.9911 14.5879L14.22 14.5545V16.0473Z" fill="#000000" class="bmwfcol"/><path d="M21.532 14.5562C21.3028 14.5562 21.0326 14.6332 20.8122 14.7114C20.7305 14.7404 20.6525 14.7707 20.5819 14.7995V14.6823H19.0986V19.0001H20.5819V16.1841C20.6583 16.1508 20.7459 16.1148 20.8335 16.0834C20.9777 16.0316 21.0952 16.0024 21.161 16.0024C21.1955 16.0024 21.2223 16.0024 21.2467 16.0038C21.2708 16.0051 21.2868 16.0075 21.298 16.0103C21.3084 16.0129 21.3136 16.0161 21.3136 16.0161C21.3136 16.0161 21.3167 16.0181 21.3211 16.0246C21.3286 16.036 21.3444 16.076 21.3532 16.1729C21.3615 16.264 21.3617 16.3747 21.3617 16.5073V19.0001H22.845V16.1859C22.908 16.156 22.9849 16.1218 23.0645 16.0908C23.2071 16.0352 23.328 16.0024 23.3944 16.0024C23.4621 16.0024 23.5035 16.0032 23.537 16.0102C23.5616 16.0153 23.5697 16.0215 23.5743 16.0265C23.5855 16.0415 23.6035 16.0814 23.614 16.173C23.6245 16.2641 23.6248 16.3741 23.6248 16.5073V19.0001H25.1081V16.4553C25.1081 15.6526 25.0057 15.2407 24.7032 14.9288C24.4377 14.6542 24.0878 14.5562 23.6912 14.5562C23.429 14.5562 23.161 14.6327 22.9276 14.7238C22.7608 14.7888 22.6042 14.8643 22.4718 14.9318C22.4396 14.897 22.4029 14.8629 22.3575 14.8251L22.3553 14.8233C22.1619 14.6668 21.8869 14.5562 21.532 14.5562Z" fill="#000000" class="bmwfcol"/><path d="M16.2165 14.5562C15.7967 14.5562 15.4552 14.6201 15.1781 14.7517C14.8978 14.8849 14.6948 15.0821 14.5464 15.328C14.2802 15.769 14.206 16.3262 14.206 16.9302C14.206 17.5295 14.2884 18.0482 14.5316 18.4509C14.7791 18.8604 15.1672 19.1262 15.7194 19.1262C16.1975 19.1262 16.4849 18.9484 16.7779 18.7402L16.8401 18.6957V19.0001H18.3086V15.0443L18.1743 14.9976C17.4954 14.7615 16.8785 14.5562 16.2165 14.5562ZM15.7042 16.9302C15.7042 16.5188 15.735 16.3072 15.824 16.1293C15.8631 16.0512 15.9147 16.0041 15.9825 15.9731C16.0557 15.9396 16.1573 15.9208 16.2981 15.9208C16.4727 15.9208 16.6698 15.9701 16.8253 16.0196V17.1718C16.7396 17.2435 16.6487 17.3151 16.5343 17.4009L16.5333 17.4017C16.4419 17.4711 16.3341 17.5494 16.2262 17.6101C16.1125 17.6739 16.0257 17.7022 15.9716 17.7022C15.8928 17.7022 15.8592 17.6895 15.8437 17.68C15.832 17.6728 15.811 17.6558 15.7884 17.5958C15.7336 17.4428 15.7042 17.1817 15.7042 16.9302Z" fill="#000000" class="bmwfcol"/><path d="M6 4C5.48408 4 4.95856 4.16222 4.56039 4.56039C4.16222 4.95856 4 5.48408 4 6V26C4 26.5159 4.16222 27.0414 4.56039 27.4396C4.95856 27.8378 5.48408 28 6 28H26C26.5159 28 27.0414 27.8378 27.4396 27.4396C27.8378 27.0414 28 26.5159 28 26V6C28 5.48408 27.8378 4.95856 27.4396 4.56039C27.0414 4.16222 26.5159 4 26 4H6ZM6 26V6H26V26H6Z" fill="#000000" class="bmwfcol"/><title>tram_rg_48</title></svg>