<svg width="48" height="48" viewBox="0 0 32 32" xmlns="http://www.w3.org/2000/svg"><path d="M6.76198 12L9.76198 9H2V7H9.76172L6.76172 4H9.23659L13.2367 8.00013L9.23686 12H6.76198Z" fill="#000000" class="bmwfcol"/><path d="M18.3035 7L18.7426 5.36139L16.8108 4.84375L15.2578 10.6394L17.1897 11.1571L17.7676 9L20.1487 9C20.2854 9.43567 20.5167 9.83074 20.8431 10.1571C21.1695 10.4835 21.5645 10.7148 22.0002 10.8515V23H18.0002V21H16.0002V27H18.0002V25L28.0002 25V27H30.0002V21H28.0002V23H24.0002L24.0002 10.843C24.8949 10.5467 25.551 9.85738 25.8387 9L27.6971 9L27.2578 10.6394L29.1897 11.1571L30.7426 5.36139L28.8108 4.84375L28.233 7L25.8517 7C25.715 6.56433 25.4837 6.16926 25.1573 5.84289C24.5945 5.28011 23.8275 5 23.0002 5C22.173 5 21.4059 5.28011 20.8431 5.84289C20.5167 6.16926 20.2854 6.56433 20.1487 7L18.3035 7ZM22.2573 7.25711C22.3945 7.11989 22.6275 7 23.0002 7C23.373 7 23.6059 7.11989 23.7431 7.25711C23.8803 7.39433 24.0002 7.62725 24.0002 8C24.0002 8.58414 23.6166 9 23.0002 9C22.6275 9 22.3945 8.88011 22.2573 8.74289C22.1201 8.60567 22.0002 8.37275 22.0002 8C22.0002 7.62725 22.1201 7.39433 22.2573 7.25711Z" fill="#000000" class="bmwfcol"/><path d="M7 22C6.17536 22 5.40049 21.7424 4.82991 21.1726C4.25909 20.6026 4 19.8274 4 19C4 18.4792 4.16373 18.017 4.35484 17.6321C4.55237 17.2343 4.8042 16.8673 5.05556 16.5022C5.50931 15.8435 5.86975 15.3202 6.02657 14.7393L6.22619 14H7.77381L7.97343 14.7393C8.13025 15.3202 8.49069 15.8435 8.94444 16.5022C9.1958 16.8673 9.44763 17.2343 9.64516 17.6321C9.83627 18.017 10 18.4792 10 19C10 19.8274 9.74091 20.6026 9.17009 21.1726C8.59951 21.7424 7.82464 22 7 22ZM6 19C6 19.4126 6.12291 19.6374 6.24309 19.7574C6.36351 19.8776 6.58864 20 7 20C7.41136 20 7.63649 19.8776 7.75691 19.7574C7.87709 19.6374 8 19.4126 8 19C8 18.9008 7.96873 18.753 7.85384 18.5216C7.72061 18.2533 7.51944 17.9574 7.24758 17.565C7.16921 17.4519 7.08559 17.3312 7 17.2037C6.91437 17.3313 6.83081 17.4519 6.75242 17.565C6.48068 17.9572 6.27935 18.2534 6.14616 18.5216C6.03127 18.753 6 18.9008 6 19Z" fill="#000000" class="bmwfcol"/><title>transmission-oil-front-axle_rg_48</title></svg>