<svg width="48" height="48" viewBox="0 0 32 32" xmlns="http://www.w3.org/2000/svg"><path d="M15.9978 7.50066C11.3034 7.50066 7.49784 11.3062 7.49784 16.0007C7.49784 20.6951 11.3034 24.5007 15.9978 24.5007C20.6923 24.5007 24.4978 20.6951 24.4978 16.0007C24.4978 11.3062 20.6923 7.50066 15.9978 7.50066ZM10.7924 19.894C11.2464 19.7697 11.6575 19.5414 11.9984 19.2363C12.5292 19.7113 13.2301 20.0002 13.9984 20.0002C14.7668 20.0002 15.4677 19.7113 15.9984 19.2363C16.5292 19.7113 17.2301 20.0002 17.9984 20.0002C18.7668 20.0002 19.4677 19.7113 19.9984 19.2363C20.3391 19.5412 20.7498 19.7694 21.2035 19.8937C20.018 21.4764 18.1275 22.5007 15.9978 22.5007C13.8683 22.5007 11.9779 21.4766 10.7924 19.894ZM22.1904 17.9818C22.1283 17.9938 22.0641 18.0002 21.9984 18.0002C21.4462 18.0002 20.9984 17.5525 20.9984 17.0002H18.9984C18.9984 17.5525 18.5507 18.0002 17.9984 18.0002C17.4462 18.0002 16.9984 17.5525 16.9984 17.0002H14.9984C14.9984 17.5525 14.5507 18.0002 13.9984 18.0002C13.4462 18.0002 12.9984 17.5525 12.9984 17.0002H10.9984C10.9984 17.5525 10.5507 18.0002 9.99844 18.0002C9.93233 18.0002 9.86771 17.9938 9.80519 17.9815C9.60558 17.357 9.49784 16.6914 9.49784 16.0007C9.49784 12.4108 12.408 9.50066 15.9978 9.50066C19.5877 9.50066 22.4978 12.4108 22.4978 16.0007C22.4978 16.6915 22.3901 17.3572 22.1904 17.9818Z" fill="#000000" class="bmwfcol"/><path d="M8.26899 4.32764L10.9048 5.69799C11.3623 5.47214 11.8342 5.27667 12.3174 5.11288L13.211 2.28126L13.8214 2.18413C15.2638 1.95463 16.7332 1.9536 18.1759 2.18106L18.7877 2.27753L19.6811 5.11254C20.1648 5.27631 20.6371 5.47193 21.0949 5.69813L23.7292 4.32724L24.2297 4.69067C25.4113 5.54866 26.4506 6.58711 27.3096 7.76805L27.6736 8.26849L26.3032 10.9043C26.5291 11.3618 26.7245 11.8337 26.8883 12.3169L29.7199 13.2105L29.8171 13.8209C30.0466 15.2633 30.0476 16.7327 29.8201 18.1754L29.7237 18.7872L26.8887 19.6806C26.7249 20.1643 26.5293 20.6366 26.3031 21.0944L27.674 23.7287L27.3105 24.2292C26.4525 25.4108 25.414 26.4501 24.2331 27.3091L23.7326 27.6731L21.0968 26.3027C20.6394 26.5286 20.1675 26.724 19.6843 26.8878L18.7907 29.7194L18.1802 29.8166C16.7379 30.0461 15.2684 30.0471 13.8258 29.8197L13.2139 29.7232L12.3205 26.8882C11.8369 26.7244 11.3646 26.5288 10.9068 26.3026L8.27247 27.6735L7.77196 27.31C6.59034 26.452 5.55103 25.4135 4.69211 24.2326L4.32811 23.7321L5.69849 21.0964C5.47263 20.6389 5.27717 20.167 5.11338 19.6838L2.28176 18.7902L2.18463 18.1797C1.95513 16.7374 1.95408 15.2679 2.18154 13.8253L2.27801 13.2134L5.11304 12.32C5.2768 11.8364 5.47241 11.3641 5.69861 10.9063L4.32772 8.27197L4.69115 7.77146C5.54915 6.58985 6.58763 5.55057 7.76855 4.69163L8.26899 4.32764ZM14.7409 4.07882L13.9062 6.72389L13.3903 6.87216C12.6946 7.0721 12.0236 7.35002 11.3903 7.70059L10.9208 7.96045L8.46005 6.68111C7.8059 7.2102 7.20956 7.80702 6.68101 8.4616L7.9616 10.9224L7.70117 11.3923C7.35019 12.0255 7.07226 12.6966 6.87266 13.3926L6.72452 13.9092L4.07739 14.7433C3.98919 15.58 3.98983 16.4237 4.07931 17.2603L6.72439 18.095L6.87265 18.6109C7.0726 19.3066 7.35051 19.9775 7.70109 20.6109L7.96096 21.0804L6.68159 23.5411C7.21069 24.1953 7.80752 24.7916 8.4621 25.3202L10.9229 24.0396L11.3928 24.3C12.026 24.651 12.6971 24.9289 13.3931 25.1285L13.9097 25.2767L14.7438 27.9238C15.5805 28.012 16.4242 28.0114 17.2608 27.9219L18.0955 25.2768L18.6114 25.1285C19.3071 24.9286 19.978 24.6507 20.6114 24.3001L21.0809 24.0402L23.5416 25.3196C24.1957 24.7905 24.7921 24.1936 25.3207 23.539L24.0401 21.0782L24.3005 20.6083C24.6515 19.9751 24.9294 19.3041 25.129 18.6081L25.2772 18.0915L27.9243 17.2573C28.0125 16.4206 28.0119 15.577 27.9224 14.7404L25.2773 13.9057L25.129 13.3898C24.9291 12.6941 24.6512 12.0231 24.3006 11.3898L24.0407 10.9203L25.3201 8.45956C24.791 7.80541 24.1941 7.20908 23.5395 6.68053L21.0787 7.96113L20.6089 7.70069C19.9756 7.3497 19.3046 7.07175 18.6086 6.87216L18.092 6.72402L17.2578 4.07692C16.4211 3.98871 15.5775 3.98934 14.7409 4.07882Z" fill="#000000" class="bmwfcol"/><title>transmission-oil_rg_48</title></svg>