<svg width="48" height="48" viewBox="0 0 32 32" xmlns="http://www.w3.org/2000/svg"><path d="M7 10C6.17536 10 5.40049 9.74238 4.82991 9.17262C4.25909 8.60263 4 7.82736 4 7C4 6.47924 4.16373 6.01701 4.35484 5.63213C4.55237 5.23434 4.8042 4.86726 5.05556 4.50224C5.50931 3.84347 5.86975 3.32016 6.02657 2.73933L6.22619 2H7.77381L7.97343 2.73933C8.13025 3.32016 8.49069 3.84347 8.94444 4.50224C9.1958 4.86726 9.44763 5.23434 9.64516 5.63213C9.83627 6.01701 10 6.47924 10 7C10 7.82736 9.74091 8.60263 9.17009 9.17262C8.59951 9.74238 7.82464 10 7 10ZM6 7C6 7.41264 6.12291 7.63737 6.24309 7.75738C6.36351 7.87762 6.58864 8 7 8C7.41136 8 7.63649 7.87762 7.75691 7.75738C7.87709 7.63737 8 7.41264 8 7C8 6.90076 7.96873 6.75299 7.85384 6.52162C7.72061 6.25331 7.51944 5.9574 7.24758 5.56503C7.16919 5.45189 7.08563 5.33128 7 5.20368C6.91437 5.33128 6.83081 5.45189 6.75242 5.56503C6.48063 5.9573 6.27936 6.25336 6.14616 6.52162C6.03127 6.75299 6 6.90076 6 7Z" fill="#000000" class="bmwfcol"/><path d="M18.7426 5.36139L18.3035 7L28.233 7L28.8108 4.84375L30.7426 5.36139L29.1897 11.1571L27.2578 10.6394L27.6971 9L24.0002 9V13.1485C24.4359 13.2852 24.831 13.5165 25.1573 13.8429C25.7201 14.4057 26.0002 15.1728 26.0002 16C26.0002 17.2989 25.223 18.4381 24.0002 18.843V23H28.0002V21H30.0002V27H28.0002V25L18.0002 25V27H16.0002V21H18.0002V23H22.0002V18.8515C21.5645 18.7148 21.1695 18.4835 20.8431 18.1571C20.2803 17.5943 20.0002 16.8272 20.0002 16C20.0002 15.1728 20.2803 14.4057 20.8431 13.8429C21.1695 13.5165 21.5645 13.2852 22.0002 13.1485V9L17.7676 9L17.1897 11.1571L15.2578 10.6394L16.8108 4.84375L18.7426 5.36139ZM22.0002 16C22.0002 16.3728 22.1201 16.6057 22.2573 16.7429C22.3945 16.8801 22.6275 17 23.0002 17C23.6166 17 24.0002 16.5841 24.0002 16C24.0002 15.6272 23.8803 15.3943 23.7431 15.2571C23.6059 15.1199 23.373 15 23.0002 15C22.6275 15 22.3945 15.1199 22.2573 15.2571C22.1201 15.3943 22.0002 15.6272 22.0002 16Z" fill="#000000" class="bmwfcol"/><path d="M9.76198 17L6.76198 20H9.23686L13.2367 16.0001L9.23659 12H6.76172L9.76172 15H2V17H9.76198Z" fill="#000000" class="bmwfcol"/><title>transfer-box-oil_rg_48</title></svg>