<svg width="48" height="48" viewBox="0 0 32 32" xmlns="http://www.w3.org/2000/svg"><path d="M13.3814 1.99805H16.348C17.1137 1.99805 17.6676 2.07724 18.174 2.50716L18.1749 2.50797L18.1759 2.5088C18.6043 2.87884 18.837 3.47022 18.837 4.08905C18.837 4.72484 18.6255 5.15715 18.2489 5.60379L18.248 5.60495C18.1175 5.75809 17.9495 5.94088 17.8092 6.08807L19.3714 8.59989H17.2871L16.0135 6.53825H15.1754V8.59989H13.3814V1.99805ZM15.1754 3.72041V4.81589H16.6196C16.685 4.742 16.7593 4.656 16.8126 4.58826L16.8138 4.58667L16.8151 4.58511C16.9638 4.40103 17.0271 4.284 17.0271 4.08905C17.0271 3.99587 17.0155 3.94118 17.0009 3.90577C16.9885 3.87556 16.9685 3.84586 16.9245 3.81192C16.8997 3.7941 16.8502 3.76911 16.7365 3.75015C16.6181 3.73042 16.4508 3.72041 16.2047 3.72041H15.1754Z" fill="#000000" class="bmwfcol"/><path d="M13.2687 12.798H15.0285L16.9542 16.0225V12.798H18.7322V19.3999H16.9725L15.0468 16.1755V19.3999H13.2687V12.798Z" fill="#000000" class="bmwfcol"/><path d="M25.4392 18.798H22.5602V25.3999H24.3542V23.3382C24.8004 23.3378 25.1651 23.3354 25.46 23.3221C26.0837 23.297 26.6624 23.171 27.1134 22.7589C27.5985 22.3218 27.769 21.6741 27.769 21.0323C27.769 20.4092 27.596 19.8021 27.1614 19.3771C26.7258 18.9512 26.1662 18.798 25.4392 18.798ZM24.3542 21.6157V20.5204H25.3119C25.6904 20.5204 25.7977 20.5681 25.8459 20.6134C25.9145 20.6787 25.9591 20.7733 25.9591 21.0403C25.9591 21.3042 25.9174 21.4069 25.8535 21.4675C25.7806 21.5368 25.6596 21.5846 25.3142 21.6003C25.0449 21.6125 24.7162 21.6152 24.3542 21.6157Z" fill="#000000" class="bmwfcol"/><path d="M13.3892 23.498H15.8543C16.7874 23.498 17.536 23.6518 18.085 24.276C18.59 24.8455 18.8129 25.5424 18.8129 26.7751C18.8129 28.047 18.5223 28.8697 17.8778 29.4498C17.3216 29.9504 16.6612 30.0999 15.7906 30.0999H13.3892V23.498ZM15.1832 25.2204V28.3775H15.8224C16.0947 28.3775 16.2824 28.347 16.4233 28.2883C16.5562 28.2328 16.6653 28.1444 16.7677 27.9924C16.9435 27.7318 17.003 27.345 17.003 26.7751C17.003 26.1406 16.9536 25.7354 16.7317 25.4723C16.564 25.2742 16.3354 25.2204 15.8622 25.2204H15.1832Z" fill="#000000" class="bmwfcol"/><path d="M6 2V30H8L8 2L6 2Z" fill="#000000" class="bmwfcol"/><title>transmission-automatic_rg_48</title></svg>