<svg width="48" height="48" viewBox="0 0 32 32" xmlns="http://www.w3.org/2000/svg"><path d="M18.3035 7L18.7426 5.36139L16.8108 4.84375L15.2578 10.6394L17.1897 11.1571L17.7676 9L22.0002 9V21.1485C21.5645 21.2852 21.1695 21.5165 20.8431 21.8429C20.5167 22.1693 20.2854 22.5643 20.1487 23H18.0002V21H16.0002V27H18.0002V25H20.1487C20.2854 25.4357 20.5167 25.8307 20.8431 26.1571C21.4059 26.7199 22.173 27 23.0002 27C24.4013 27 25.4523 26.1516 25.8387 25H28.0002V27H30.0002V21H28.0002V23H25.8517C25.715 22.5643 25.4837 22.1693 25.1573 21.8429C24.831 21.5165 24.4359 21.2852 24.0002 21.1485L24.0002 9L27.6971 9L27.2578 10.6394L29.1897 11.1571L30.7426 5.36139L28.8108 4.84375L28.233 7L18.3035 7ZM22.2573 23.2571C22.3945 23.1199 22.6275 23 23.0002 23C23.373 23 23.6059 23.1199 23.7431 23.2571C23.8803 23.3943 24.0002 23.6272 24.0002 24C24.0002 24.5841 23.6166 25 23.0002 25C22.6275 25 22.3945 24.8801 22.2573 24.7429C22.1201 24.6057 22.0002 24.3728 22.0002 24C22.0002 23.6272 22.1201 23.3943 22.2573 23.2571Z" fill="#000000" class="bmwfcol"/><path d="M6.76198 28L9.76198 25H2V23H9.76172L6.76172 20H9.23659L13.2367 24.0001L9.23686 28H6.76198Z" fill="#000000" class="bmwfcol"/><path d="M7 18C6.17536 18 5.40049 17.7424 4.82991 17.1726C4.25909 16.6026 4 15.8274 4 15C4 14.4792 4.16373 14.017 4.35484 13.6321C4.55237 13.2343 4.8042 12.8673 5.05556 12.5022C5.50931 11.8435 5.86975 11.3202 6.02657 10.7393L6.22619 10H7.77381L7.97343 10.7393C8.13025 11.3202 8.49069 11.8435 8.94444 12.5022C9.1958 12.8673 9.44763 13.2343 9.64516 13.6321C9.83627 14.017 10 14.4792 10 15C10 15.8274 9.74091 16.6026 9.17009 17.1726C8.59951 17.7424 7.82464 18 7 18ZM6 15C6 15.4126 6.12291 15.6374 6.24309 15.7574C6.36351 15.8776 6.58864 16 7 16C7.41136 16 7.63649 15.8776 7.75691 15.7574C7.87709 15.6374 8 15.4126 8 15C8 14.9008 7.96873 14.753 7.85384 14.5216C7.72061 14.2533 7.51944 13.9574 7.24758 13.565C7.16921 13.4519 7.08559 13.3312 7 13.2037C6.91437 13.3313 6.83081 13.4519 6.75242 13.565C6.48068 13.9572 6.27935 14.2534 6.14616 14.5216C6.03127 14.753 6 14.9008 6 15Z" fill="#000000" class="bmwfcol"/><title>transmission-oil-rear-axle_rg_48</title></svg>