<svg width="48" height="48" viewBox="0 0 32 32" xmlns="http://www.w3.org/2000/svg"><path d="M16.0328 2.0625C16.9352 2.06249 17.7021 2.06249 18.332 2.10588C18.9656 2.14952 19.5622 2.2416 20.086 2.48139C21.2571 3.01758 21.6896 4.10766 22.0431 5.42909L22.1958 6H27V8H25.4375C25.419 8.28334 25.3965 8.62437 25.3705 9.0139C25.2899 10.2221 25.1755 11.8972 25.0404 13.765C24.7705 17.496 24.4169 22.0115 24.0843 25.1068C23.9713 26.1584 23.7688 27.052 23.3901 27.776C22.9927 28.5358 22.4229 29.0674 21.6746 29.4095C20.9648 29.7339 20.1335 29.8695 19.2288 29.9349C18.3272 30 17.2561 30 16.0317 30C14.8095 30 13.6709 30 12.7695 29.9351C11.864 29.8699 11.0315 29.7345 10.3209 29.4103C9.5718 29.0685 9.0008 28.5368 8.60365 27.7757C8.22528 27.0506 8.02482 26.1559 7.91541 25.1034C7.60393 22.1068 7.25046 17.5929 6.97543 13.8383C6.83775 11.9588 6.71946 10.2659 6.63559 9.04285C6.60805 8.64127 6.58422 8.29031 6.56463 8H5V6H9.804L9.95671 5.4291C10.3102 4.10767 10.7427 3.01758 11.9138 2.48139C12.4376 2.2416 13.0342 2.14952 13.6678 2.10588C14.2977 2.06249 15.1305 2.06249 16.0328 2.0625ZM8.56919 8C8.58686 8.26139 8.60755 8.56545 8.6309 8.90602C8.71462 10.1268 8.83269 11.8165 8.97008 13.6922C9.24519 17.4477 9.59673 21.9338 9.90469 24.8966C10.0032 25.8448 10.168 26.4504 10.3768 26.8505C10.5667 27.2145 10.8047 27.4327 11.1511 27.5907C11.5361 27.7664 12.0856 27.8807 12.9132 27.9403C13.736 27.9995 14.7375 28 16.0001 28C17.2625 28 18.2631 27.9994 19.0848 27.9401C19.911 27.8804 20.4591 27.766 20.8431 27.5905C21.1886 27.4326 21.4269 27.2142 21.6179 26.849C21.8277 26.448 21.9939 25.8415 22.0958 24.8931C22.4243 21.8361 22.7757 17.3517 23.0456 13.6207C23.1803 11.7576 23.2945 10.0862 23.3749 8.88073C23.397 8.55023 23.4165 8.25477 23.4332 8H8.56919ZM20.1255 6C19.9817 5.4635 19.8315 4.56459 19.2534 4.29986C19.0605 4.21153 18.7519 4.13954 18.1946 4.10115C17.6413 4.06304 16.9426 4.0625 15.9999 4.0625C15.0572 4.0625 14.3585 4.06304 13.8052 4.10115C13.2479 4.13954 12.9393 4.21153 12.7464 4.29986C12.1682 4.5645 12.0181 5.46353 11.8743 6H20.1255Z" fill="#000000" class="bmwfcol"/><title>trash-can_rg_48</title></svg>