<svg width="48" height="48" viewBox="0 0 32 32" xmlns="http://www.w3.org/2000/svg"><path d="M13.0769 18.9231C12.69 18.9231 12.3307 18.8835 12.0001 18.8098V20.8432C12.348 20.8963 12.7077 20.9231 13.0769 20.9231C14.7811 20.9231 16.2789 20.3507 17.3533 19.2763C18.4276 18.202 19 16.7042 19 15C19 12.4213 17.6829 10.3717 15.4883 9.51166C14.6283 7.3171 12.5787 6 10 6C7.4213 6 5.37166 7.3171 4.51166 9.51166C2.3171 10.3717 1 12.4213 1 15C1 16.7042 1.57242 18.202 2.64674 19.2763C3.72106 20.3507 5.21891 20.9231 6.92308 20.9231C7.6591 20.9231 8.35723 20.8165 9.00013 20.6079V24H2.00006V26H30.0001V22H31.0001V20L19.0001 20V22H20.0001V24H11.0001L11.0001 17.028L13.9999 15.2961V12.9867L11.0001 14.7186V11.9999H9.00013V16.3173L5.99994 14.5851V16.8945L8.83047 18.5287C8.29993 18.7786 7.66194 18.9231 6.92308 18.9231C5.6734 18.9231 4.70971 18.5109 4.06095 17.8621C3.41219 17.2134 3 16.2497 3 15C3 13.0282 4.01752 11.7147 5.57913 11.2588L6.10518 11.1052L6.25878 10.5791C6.71474 9.01752 8.02819 8 10 8C11.9718 8 13.2853 9.01752 13.7412 10.5791L13.8948 11.1052L14.4209 11.2588C15.9825 11.7147 17 13.0282 17 15C17 16.2497 16.5878 17.2134 15.939 17.8621C15.2903 18.5109 14.3266 18.9231 13.0769 18.9231ZM28.0001 22V24H22.0001V22L28.0001 22Z" fill="#000000" class="bmwfcol"/><path d="M22.0001 19V18H28.0001V19H30.0001V18C30.0001 17.4728 29.8199 16.9557 29.4322 16.5679C29.0444 16.1801 28.5273 16 28.0001 16H22.0001C21.4728 16 20.9557 16.1801 20.568 16.5679C20.1802 16.9557 20.0001 17.4728 20.0001 18V19H22.0001Z" fill="#000000" class="bmwfcol"/><title>tree_and_bench_rg_48</title></svg>