<svg width="48" height="48" viewBox="0 0 32 32" xmlns="http://www.w3.org/2000/svg"><path d="M19 22.7746C19.616 22.9217 20.284 23 21 23C23.1728 23 24.9057 22.2801 26.0929 21.0929C27.2801 19.9057 28 18.1728 28 16C28 12.5459 26.189 10.1469 23.3591 9.32057L22.833 9.16697L22.6794 8.64092C21.8531 5.81096 19.4541 4 16 4C12.5459 4 10.1469 5.81096 9.32057 8.64092L9.16697 9.16697L8.64092 9.32057C5.81096 10.1469 4 12.5459 4 16C4 18.1728 4.71989 19.9057 5.90711 21.0929C7.09433 22.2801 8.82725 23 11 23C12.5819 23 13.9292 22.6178 15 21.9562V21.5772L10 18.6905V16.3811L15 19.2678V11H17V16.2682L22 13.3814V15.6908L17 18.5776L17 30H15V24.2081C13.8104 24.7284 12.4604 25 11 25C8.37275 25 6.10567 24.1199 4.49289 22.5071C2.88011 20.8943 2 18.6272 2 16C2 11.943 4.10563 8.80273 7.56703 7.56703C8.80273 4.10563 11.943 2 16 2C20.057 2 23.1973 4.10563 24.433 7.56704C27.8944 8.80273 30 11.943 30 16C30 18.6272 29.1199 20.8943 27.5071 22.5071C25.8943 24.1199 23.6272 25 21 25C20.3067 25 19.6382 24.9388 19 24.8188V22.7746Z" fill="#000000" class="bmwfcol"/><title>tree_rg_48</title></svg>