<svg width="48" height="48" viewBox="0 0 32 32" xmlns="http://www.w3.org/2000/svg"><path d="M31 10H9V12L3.30008 12.0001L3.04462 12.702C2.06214 15.4013 1.54887 16.8115 1.28792 17.7254C1.00137 18.7289 1 19.2094 1 20V24H3.17071C3.58254 25.1652 4.69378 26 6 26C7.30622 26 8.41746 25.1652 8.82929 24H20.1707C20.5825 25.1652 21.6938 26 23 26C24.3062 26 25.4174 25.1652 25.8293 24L26.5305 24C27.2335 24.0002 27.8065 24.0004 28.41 23.8424C29.0326 23.6793 29.6383 23.3636 30.5 22.866L31 22.5774V10ZM25.8293 22C25.6976 21.6274 25.4944 21.2886 25.2361 21H29V21.4164C28.4628 21.7113 28.1638 21.8394 27.9033 21.9076C27.5751 21.9936 27.2595 22 26.4498 22L25.8293 22ZM11 19V12H29V19H11ZM8 14L9 14V21H20.7639C20.5056 21.2885 20.3024 21.6274 20.1707 22H8.82929C8.41746 20.8348 7.30622 20 6 20C4.69378 20 3.58254 20.8348 3.17071 22H3L3 19.9794C2.99999 19.5483 2.99998 19.2802 3.05053 18.9619C4.19782 18.8785 5.16772 18.6707 5.89969 18.4616C6.37327 18.3263 6.74934 18.1899 7.01197 18.0849C7.14337 18.0323 7.24662 17.9875 7.31974 17.9545C7.35632 17.938 7.38538 17.9244 7.40669 17.9142L7.43283 17.9017L7.44148 17.8974L7.44469 17.8958L7.44716 17.8946L7 17.0001C7.44461 17.8895 7.44742 17.8944 7.44716 17.8946L8 17.6182V14ZM6 14V16.3299C5.822 16.394 5.60415 16.466 5.35031 16.5385C4.89398 16.6689 4.32407 16.7999 3.6624 16.8889C3.90746 16.1851 4.24208 15.2606 4.70056 14.0001L6 14ZM6 22C6.55228 22 7 22.4477 7 23C7 23.5523 6.55228 24 6 24C5.44772 24 5 23.5523 5 23C5 22.4477 5.44772 22 6 22ZM23 22C23.5523 22 24 22.4477 24 23C24 23.5523 23.5523 24 23 24C22.4477 24 22 23.5523 22 23C22 22.4477 22.4477 22 23 22Z" fill="#000000" class="bmwfcol"/><title>truck_rg_48</title></svg>