<svg width="48" height="48" viewBox="0 0 32 32" xmlns="http://www.w3.org/2000/svg"><path d="M21.7626 9L18.7626 12H21.2374L25.2374 8L21.2374 4H18.7626L21.7626 7H14V9H21.7626Z" fill="#000000" class="bmwfcol"/><path d="M8 14V15L3.80001 15.0001L3.54126 15.711C2.81108 17.7171 2.4237 18.7814 2.22555 19.4754C2.00146 20.2601 2 20.6469 2 21.25V26H3.70802C4.0938 26.883 4.97484 27.5 6 27.5C7.02516 27.5 7.9062 26.883 8.29198 26H16.708C17.0938 26.883 17.9748 27.5 19 27.5C20.0252 27.5 20.9062 26.883 21.292 26L21.4097 26C21.9265 26.0003 22.3862 26.0005 22.8708 25.8736C23.3741 25.7418 23.8548 25.4886 24.5 25.116L25 24.8274V14H8ZM21.292 24H21.3373C21.9533 24 22.1553 23.9936 22.3641 23.9389C22.5119 23.9002 22.6872 23.8295 23 23.6632V23H20.5002C20.8434 23.2578 21.118 23.6019 21.292 24ZM10 21V16H23V21H10ZM5.20053 17L8 17V23H17.4998C17.1566 23.2578 16.882 23.6019 16.708 24H8.29198C7.9062 23.117 7.02516 22.5 6 22.5C5.1822 22.5 4.45611 22.8927 4 23.4998V21.4962C4.44899 21.49 4.81211 21.4736 5.17058 21.4303C5.71092 21.3649 6.22587 21.2406 7 21.035V18.9647L6.74109 19.0341C5.79849 19.2868 5.36576 19.3921 4.93049 19.4447C4.74293 19.4674 4.5516 19.4808 4.31593 19.4887C4.49458 18.9494 4.77037 18.1833 5.20053 17ZM6 24.5C6.27614 24.5 6.5 24.7239 6.5 25C6.5 25.2761 6.27614 25.5 6 25.5C5.72386 25.5 5.5 25.2761 5.5 25C5.5 24.7239 5.72386 24.5 6 24.5ZM19 24.5C19.2761 24.5 19.5 24.7239 19.5 25C19.5 25.2761 19.2761 25.5 19 25.5C18.7239 25.5 18.5 25.2761 18.5 25C18.5 24.7239 18.7239 24.5 19 24.5Z" fill="#000000" class="bmwfcol"/><path d="M30 8V27H28V23H26V21H28V8H30Z" fill="#000000" class="bmwfcol"/><title>truck-station_rg_48</title></svg>