<svg width="48" height="48" viewBox="0 0 32 32" xmlns="http://www.w3.org/2000/svg"><path d="M18.2441 4.05518H20.1351V6.9179H22.737V4.05518H24.628V11.9499H22.737V8.73932H20.1351V11.9499H18.2441V4.05518Z" fill="#000000" class="bmwfcol"/><path d="M26.0919 8.7822C26.3388 8.72293 27.0064 8.56794 27.5699 8.56794C28.1365 8.56794 28.6136 8.68011 28.9411 8.92503C29.2859 9.17553 29.4896 9.60615 29.4896 10.0601C29.4896 10.3107 29.4511 10.5183 29.3643 10.714C29.2788 10.9068 29.1514 11.0764 28.992 11.2563L28.9904 11.258C28.8259 11.4395 28.6496 11.6109 28.4756 11.7686H29.7381V13.2421H25.869V11.9346L25.9537 11.8748C26.4623 11.5157 27.0696 11.0746 27.3882 10.7946L27.3891 10.7938C27.5782 10.6295 27.6968 10.5162 27.7684 10.4256C27.8367 10.3392 27.8471 10.2925 27.8471 10.2589C27.8471 10.215 27.8414 10.1948 27.8371 10.1849C27.8339 10.1775 27.8276 10.166 27.805 10.1484C27.798 10.143 27.7735 10.1283 27.7045 10.1172C27.6363 10.1061 27.5423 10.1011 27.4109 10.1011C27.0029 10.1011 26.4319 10.2427 26.1871 10.3039L25.9386 10.366V8.819L26.0919 8.7822Z" fill="#000000" class="bmwfcol"/><path d="M4.70802 26H3V21.25C3 20.6469 3.00146 20.2601 3.22555 19.4754C3.4237 18.7814 3.81104 17.7172 4.54124 15.711L4.80001 15.0001L9 15V14H26V24.8274L25.5 25.116C24.8548 25.4886 24.3741 25.7418 23.8708 25.8736C23.3862 26.0005 22.9265 26.0003 22.4097 26L22.292 26C21.9062 26.883 21.0252 27.5 20 27.5C18.9748 27.5 18.0938 26.883 17.708 26H9.29198C8.9062 26.883 8.02516 27.5 7 27.5C5.97484 27.5 5.0938 26.883 4.70802 26ZM6.5 25C6.5 25.2761 6.72386 25.5 7 25.5C7.27614 25.5 7.5 25.2761 7.5 25C7.5 24.7239 7.27614 24.5 7 24.5C6.72386 24.5 6.5 24.7239 6.5 25ZM9.29198 24H17.708C17.882 23.6019 18.1566 23.2578 18.4998 23H9V17L6.20053 17C5.77039 18.1833 5.49461 18.9493 5.31596 19.4886C5.55161 19.4807 5.74294 19.4673 5.93049 19.4447C6.36576 19.392 6.79849 19.2867 7.74109 19.034L8 18.9647V21.035C7.22587 21.2406 6.71092 21.3649 6.17058 21.4302C5.81211 21.4735 5.44899 21.49 5 21.4962L5 23.4998C5.45611 22.8927 6.1822 22.5 7 22.5C8.02516 22.5 8.9062 23.117 9.29198 24ZM22.292 24H22.3373C22.9533 24 23.1553 23.9936 23.3641 23.9389C23.5119 23.9002 23.6872 23.8295 24 23.6632V23H21.5002C21.8434 23.2578 22.118 23.6019 22.292 24ZM11 21H24V16H11V21ZM20 24.5C19.7239 24.5 19.5 24.7239 19.5 25C19.5 25.2761 19.7239 25.5 20 25.5C20.2761 25.5 20.5 25.2761 20.5 25C20.5 24.7239 20.2761 24.5 20 24.5Z" fill="#000000" class="bmwfcol"/><title>truck_hydrogen_rg_48</title></svg>