<svg width="48" height="48" viewBox="0 0 32 32" xmlns="http://www.w3.org/2000/svg"><path d="M22.9683 2H23.0317C23.4702 1.99999 23.8759 1.99998 24.2188 2.0264C24.5695 2.05341 24.9546 2.1133 25.3142 2.29078C26.1264 2.69167 26.413 3.48314 26.6161 4.24117L26.8194 5H27.5C28.1029 5 28.7092 5.11065 29.1929 5.44442C29.729 5.81429 30 6.38059 30 6.99999V14C30 14.6194 29.729 15.1857 29.1929 15.5556C28.7092 15.8894 28.1029 16 27.5 16H18.5C17.8971 16 17.2908 15.8894 16.8071 15.5556C16.271 15.1857 16 14.6194 16 14V7C16 6.3806 16.271 5.81429 16.8071 5.44442C17.2908 5.11065 17.8971 5 18.5 5H19.1805L19.3839 4.24117C19.587 3.48314 19.8735 2.69167 20.6857 2.29078C21.0453 2.1133 21.4305 2.05341 21.7812 2.0264C22.1241 1.99998 22.5298 1.99999 22.9683 2ZM24.6842 4.75881C24.5899 4.4068 24.5171 4.2282 24.4624 4.13357C24.4506 4.11311 24.4415 4.10006 24.4356 4.09239L24.4328 4.08872L24.4292 4.08442C24.4089 4.0744 24.3229 4.04034 24.0652 4.02049C23.8079 4.00067 23.479 4 23 4C22.521 4 22.192 4.00067 21.9348 4.02049C21.6771 4.04034 21.5912 4.0742 21.5709 4.08422C21.5696 4.08579 21.5672 4.08856 21.5643 4.09239C21.5585 4.10006 21.5494 4.11311 21.5375 4.13357C21.4828 4.22821 21.41 4.4068 21.3157 4.75881L21.2511 5H24.7489L24.6842 4.75881ZM18 7.06437V13.9356C18.0746 13.9627 18.2278 14 18.5 14H27.5C27.7722 14 27.9254 13.9627 28 13.9356V7.06437C27.9254 7.0373 27.7722 7 27.5 7H18.5C18.2278 7 18.0746 7.03729 18 7.06437Z" fill="#000000" class="bmwfcol"/><path d="M5.83682 28.0001C6.39516 29.1754 7.58925 29.9902 8.97468 30H9.02532C10.4126 29.9902 11.6081 29.1732 12.1655 27.9953C12.6002 27.9846 12.9981 27.9504 13.4102 27.8425C14.0328 27.6794 14.6385 27.3637 15.5002 26.8661L16.0003 26.5774L16 23.5859L15.7071 23.293C15.2594 22.8453 15.1095 22.5813 15.0535 22.4412C15.0056 22.3215 15 22.2409 15 22.0001L14.9999 20.0837L13.0119 19.9098L13.0915 19L15.0002 19L15.0001 17L11.2589 17.0001L11.0812 19.031C10.1803 18.5259 9.35922 18.1021 8.52688 17.7792C7.1754 17.2548 5.81224 17.0001 4.00003 17.0001L3.88664 17.0001C3.19901 17 2.58008 16.9999 2 17.0308V19.0344C2.54127 19.0022 3.18043 19.0001 4.00003 19.0001C5.5964 19.0001 6.7104 19.2196 7.80346 19.6437C8.88679 20.064 9.96597 20.6888 11.5146 21.5853L11.9239 21.8223L13 21.9164L13 22.0205C12.9999 22.2809 12.9997 22.6918 13.1966 23.184C13.3537 23.5769 13.6134 23.9705 14.0001 24.3996L14.0002 25.4166C13.463 25.7114 13.164 25.8395 12.9035 25.9077C12.7663 25.9437 12.6313 25.9657 12.4615 25.9792C12.2099 24.2932 10.756 23.0001 9 23.0001C7.23676 23.0001 5.77805 24.304 5.53544 26.0001H2V28.0001H5.83682ZM7.5 26.5001C7.5 25.6717 8.17157 25.0001 9 25.0001C9.82843 25.0001 10.5 25.6717 10.5 26.5001C10.5 27.3285 9.82843 28.0001 9 28.0001C8.17157 28.0001 7.5 27.3285 7.5 26.5001Z" fill="#000000" class="bmwfcol"/><title>trunk-capacity_rg_48</title></svg>