<svg width="48" height="48" viewBox="0 0 32 32" xmlns="http://www.w3.org/2000/svg"><path d="M16 17C15.1716 17 14.5 17.6716 14.5 18.5C14.5 19.3284 15.1716 20 16 20C16.8284 20 17.5 19.3284 17.5 18.5C17.5 17.6716 16.8284 17 16 17Z" fill="#000000" class="bmwfcol"/><path d="M20.0001 14.028V13C20.0001 11.8728 19.6199 10.8557 18.8822 10.1179C18.1444 9.38012 17.1273 9 16 9C14.8728 9 13.8557 9.38012 13.1179 10.1179C12.3801 10.8557 12 11.8728 12 13V14.028C11.57 14.0786 11.1566 14.2033 10.8071 14.4444C10.271 14.8143 10 15.3806 10 16L10 20.9999C10 21.6193 10.271 22.1857 10.8071 22.5555C11.2908 22.8893 11.8971 22.9999 12.5 22.9999L19.5 23C20.1029 23 20.7092 22.8893 21.1929 22.5555C21.729 22.1857 22 21.6194 22 20.9999V16C22 15.3806 21.729 14.8143 21.1929 14.4444C20.8434 14.2033 20.43 14.0786 20.0001 14.028ZM14.5321 11.5321C14.8443 11.2199 15.3273 11 16 11C16.6728 11 17.1557 11.2199 17.4679 11.5321C17.7802 11.8443 18.0001 12.3273 18.0001 13V14L14 14V13C14 12.3273 14.2199 11.8443 14.5321 11.5321ZM12.5 16L19.5 16C19.7722 16 19.9254 16.0373 20 16.0644V20.9356C19.9254 20.9627 19.7722 21 19.5 21L12.5 20.9999C12.2278 20.9999 12.0746 20.9627 12 20.9356L12 16.0644C12.0746 16.0373 12.2278 16 12.5 16Z" fill="#000000" class="bmwfcol"/><path d="M4 5H28V14C28 16.9211 27.4734 19.647 25.7789 22.2909C23.6127 25.6706 20.1809 28.027 16.7636 30H15.2364C11.8191 28.027 8.3873 25.6706 6.22113 22.2909C4.52661 19.647 4 16.9211 4 14V5ZM6 7V14C6 16.6589 6.47339 18.978 7.90496 21.2116C9.32323 23.4245 11.9633 25.762 16 28.1225C20.0367 25.762 22.6768 23.4245 24.095 21.2116C25.5266 18.978 26 16.6589 26 14V7H6Z" fill="#000000" class="bmwfcol"/><title>trust_rg_48</title></svg>