<svg width="48" height="48" viewBox="0 0 32 32" xmlns="http://www.w3.org/2000/svg"><path d="M2 24.01C3.98633 24.01 5.97266 23.9467 8 23.82V25H14V16.0428C14 15.2011 13.5253 14.4621 13.0553 13.8888C12.6916 13.4452 12.2384 12.9938 11.7653 12.5484C11.7906 12.5452 11.8169 12.5422 11.8444 12.5393C12.2425 12.4975 12.7545 12.4983 13.5395 12.4996C13.6835 12.4998 13.8367 12.5001 14 12.5001V10.5001C13.8514 10.5001 13.7069 10.4997 13.5669 10.4994C12.7931 10.4977 12.1493 10.4963 11.6356 10.5502C11.2838 10.5871 10.9541 10.6527 10.6419 10.7731C10.4857 10.4883 10.3137 10.1912 10.1303 9.89909C9.85037 9.45297 9.53106 8.99717 9.18857 8.6081C8.86452 8.23998 8.45464 7.85565 7.97369 7.63823C6.82371 7.08109 5.79296 7 2.00004 7L2 9C5.93972 9 6.45278 9.12161 7.11248 9.44337L7.12977 9.4518L7.14738 9.45956C7.2412 9.50093 7.42717 9.63402 7.68735 9.92959C7.93344 10.2091 8.18877 10.5678 8.43625 10.9622C8.55789 11.156 8.67448 11.3534 8.78401 11.5473C8.71344 11.5435 8.64153 11.54 8.56827 11.5367C7.52912 11.4905 6.07954 11.4934 4.06895 11.4974C3.4364 11.4987 2.74831 11.5001 2 11.5001V13.5001C2.77427 13.5001 3.47838 13.4987 4.11921 13.4974C6.10929 13.4935 7.49075 13.4907 8.47931 13.5347C9.13157 13.5638 9.55306 13.6115 9.83523 13.6759C10.1078 13.7381 10.1745 13.7993 10.1818 13.8061C10.6967 14.2842 11.1332 14.7091 11.4619 15.1004C10.4915 15.3019 9.43013 15.4199 8 15.5217V17.5267C9.59547 17.4162 10.8275 17.284 12 17.0307V23H10V21.6744L8.9273 21.7526C6.5737 21.9242 4.28685 22.01 2 22.01V24.01Z" fill="#000000" class="bmwfcol"/><path d="M30 23.75V21.75H21.5V23H20V18.9346C20.5333 19.0004 21.1419 19.0002 21.7063 19L21.83 18.9999C22.6374 19 23.5974 19 24.3471 18.9335C24.7142 18.901 25.1143 18.8465 25.4395 18.7341C25.5946 18.6805 25.8332 18.5809 26.0368 18.3842C26.2829 18.1464 26.4721 17.7611 26.3806 17.3039C26.1294 16.0474 24.9773 15.2415 23.7671 14.7673C23.0872 14.5009 22.2979 14.3002 21.4304 14.171C21.4887 14.1153 21.5483 14.0587 21.6091 14.0015C21.8725 13.9475 22.2266 13.9006 22.7065 13.8677C23.8125 13.792 25.3583 13.7967 27.6002 13.8036C28.3246 13.8058 29.1216 13.8082 30 13.8082V11.8082C29.1621 11.8082 28.3899 11.8058 27.6787 11.8036H27.6777C25.5717 11.797 23.9995 11.7922 22.8386 11.8559L22.8633 11.7635C22.959 11.4064 23.0551 11.0479 23.1677 10.7015C23.2976 10.302 23.4316 9.97712 23.5725 9.74555C23.6955 9.54347 23.7744 9.4935 23.7848 9.48692L23.786 9.48612L23.8171 9.47513L23.851 9.46026C24.6727 9.09965 26.1766 8.69999 30 8.69998V6.69998C26.1055 6.69999 24.2736 7.09724 23.0765 7.61613C22.4927 7.8366 22.1111 8.29984 21.8641 8.7058C21.6039 9.13326 21.4133 9.62922 21.2657 10.0831C21.1355 10.4836 21.0249 10.8969 20.9304 11.2497L20.8911 11.3963C20.8366 11.5991 20.7901 11.766 20.7492 11.901C20.6613 11.7953 20.5587 11.6913 20.4372 11.5941C19.8348 11.1122 19.0206 11 18 11V13C18.9795 13 19.1652 13.1378 19.1878 13.1558C19.2082 13.1721 19.2796 13.2821 19.3004 13.32C19.3203 13.3568 19.3377 13.3904 19.3541 13.4233C19.2088 13.579 19.0713 13.7344 18.9447 13.8888C18.4747 14.4621 18 15.2011 18 16.0428V16.9581C17.9929 17.0562 17.9926 17.1547 18 17.2526V25H23.5V23.75H30ZM23.0374 16.6294C23.3251 16.7422 23.556 16.8577 23.7406 16.9703C23.1587 16.9994 22.4692 16.9999 21.8 16.9999C20.9331 16.9999 20.3598 16.9931 20 16.9087V16.0428L20.0003 16.0308C21.2255 16.1081 22.2625 16.3258 23.0374 16.6294Z" fill="#000000" class="bmwfcol"/><path d="M30 17H28V19H30V17Z" fill="#000000" class="bmwfcol"/><path d="M2 20.6642L2.33579 21H5.6458L7 18.7811V15.8358L5.91421 14.75H2.76393L2 15.132V20.6642ZM3.3 18.8358V16.868L3.53607 16.75H5L5 18.219L4.52334 19H3.46421L3.3 18.8358Z" fill="#000000" class="bmwfcol"/><title>two_different_cars_rg_48</title></svg>