<svg width="48" height="48" viewBox="0 0 32 32" xmlns="http://www.w3.org/2000/svg"><path d="M9 3V6.23987L8.6159 6.54014C5.80435 8.73813 4 12.1581 4 16C4 19.5836 5.56976 22.7998 8.0625 25H23.9375C26.4302 22.7998 28 19.5836 28 16C28 12.1581 26.1957 8.73813 23.3841 6.54014L23 6.23987V3H25V5.27581C28.0553 7.84253 30 11.6944 30 16C30 20.3055 28.0553 24.1576 25 26.7242V29H23V27H21V29H19V27H17V29H15V27H13V29H11V27H9V29H7V26.7242C3.94469 24.1576 2 20.3055 2 16C2 11.6944 3.94466 7.84253 7 5.27581V3H9Z" fill="#000000" class="bmwfcol"/><path d="M17 17.5V8H15V17.5H17Z" fill="#000000" class="bmwfcol"/><path d="M17 22V19H15V22H17Z" fill="#000000" class="bmwfcol"/><title>tyre-pressure-monitoring-system_rg_48</title></svg>