<svg width="48" height="48" viewBox="0 0 32 32" xmlns="http://www.w3.org/2000/svg"><path d="M15.7326 2L4 8.77381V11.0832L16.0007 4.15462L28 11.0824V8.77301L16.2688 2H15.7326Z" fill="#000000" class="bmwfcol"/><path d="M8.5 19C8.5 14.8579 11.8579 11.5 16 11.5C20.1421 11.5 23.5 14.8579 23.5 19C23.5 23.1421 20.1421 26.5 16 26.5C11.8579 26.5 8.5 23.1421 8.5 19ZM10.5468 18.2794C10.5159 18.5152 10.5 18.7558 10.5 19C10.5 20.4679 11.0751 21.8015 12.0122 22.7878L13.5285 20.7009C13.2087 20.2372 13.0161 19.6791 13.001 19.0768L10.5468 18.2794ZM11.1645 16.3772L13.619 17.1747C13.9692 16.7185 14.4476 16.3659 15.0003 16.1706V13.5906C13.3419 13.8952 11.9437 14.9436 11.1645 16.3772ZM17.0003 13.5907V16.1708C17.5528 16.3662 18.031 16.7188 18.3812 17.1749L20.8356 16.3774C20.0565 14.9439 18.6585 13.8954 17.0003 13.5907ZM21.4532 18.2796L18.999 19.0771C18.9839 19.679 18.7914 20.2369 18.4719 20.7004L19.9882 22.7874C20.9251 21.8012 21.5 20.4677 21.5 19C21.5 18.7558 21.4841 18.5154 21.4532 18.2796ZM18.371 23.9641L16.8543 21.8766C16.5836 21.9569 16.2968 22 16 22C15.7034 22 15.4169 21.957 15.1463 21.8768L13.6295 23.9644C14.3473 24.3077 15.1512 24.5 16 24.5C16.849 24.5 17.6531 24.3076 18.371 23.9641ZM16 18C15.4477 18 15 18.4477 15 19C15 19.5523 15.4477 20 16 20C16.5523 20 17 19.5523 17 19C17 18.4477 16.5523 18 16 18Z" fill="#000000" class="bmwfcol"/><path d="M5 19C5 12.9249 9.92487 8 16 8C22.0751 8 27 12.9249 27 19C27 25.0751 22.0751 30 16 30C9.92487 30 5 25.0751 5 19ZM16 10C11.0294 10 7 14.0294 7 19C7 23.9706 11.0294 28 16 28C20.9706 28 25 23.9706 25 19C25 14.0294 20.9706 10 16 10Z" fill="#000000" class="bmwfcol"/><title>tyre_storage_rg_48</title></svg>