<svg width="48" height="48" viewBox="0 0 32 32" xmlns="http://www.w3.org/2000/svg"><path d="M28.6519 19L26.5862 19C26.8557 18.047 27 17.0409 27 16C27 9.92487 22.0751 5 16 5C9.92487 5 5 9.92487 5 16C5 22.0751 9.92487 27 16 27C19.0378 27 21.7865 25.7699 23.7782 23.7782L24.6813 22.875H21.125L22.875 21.125H27.875V26.125L26.125 27.875V24.2598L25.1924 25.1924C22.8409 27.5438 19.5896 29 16 29H2V27L9.06863 27C5.42204 24.6974 3 20.6315 3 16C3 8.8203 8.8203 3 16 3C23.1797 3 29 8.8203 29 16C29 17.0319 28.8796 18.0364 28.6519 19Z" fill="#000000" class="bmwfcol"/><path d="M16 9C12.134 9 9 12.134 9 16C9 19.866 12.134 23 16 23C19.866 23 23 19.866 23 16C23 12.134 19.866 9 16 9ZM11 16C11 13.2386 13.2386 11 16 11C18.7614 11 21 13.2386 21 16C21 18.7614 18.7614 21 16 21C13.2386 21 11 18.7614 11 16Z" fill="#000000" class="bmwfcol"/><title>tyres-with-reduced-rolling-resistance_rg_48</title></svg>