<svg width="48" height="48" viewBox="0 0 32 32" xmlns="http://www.w3.org/2000/svg"><path d="M11.2324 10.0039V17.3225C11.2324 18.9612 11.4233 20.1863 12.2507 21.0773C13.1098 22 14.2235 22.2705 16.0054 22.2705C17.6601 22.2705 18.8215 22 19.6965 21.1091C20.5398 20.2499 20.7625 19.1044 20.7625 17.3225V10.0039H18.376V17.3702C18.376 18.4839 18.2965 19.1522 17.8192 19.5817C17.4214 19.9477 16.7373 20.0113 16.0054 20.0113C15.2577 20.0113 14.5576 19.9317 14.1599 19.5658C13.6826 19.1203 13.6189 18.4521 13.6189 17.3702V10.0039H11.2324Z" fill="#000000" class="bmwfcol"/><path d="M6 4C5.48408 4 4.95856 4.16222 4.56039 4.56039C4.16222 4.95856 4 5.48408 4 6V26C4 26.5159 4.16222 27.0414 4.56039 27.4396C4.95856 27.8378 5.48408 28 6 28H26C26.5159 28 27.0414 27.8378 27.4396 27.4396C27.8378 27.0414 28 26.5159 28 26V6C28 5.48408 27.8378 4.95856 27.4396 4.56039C27.0414 4.16222 26.5159 4 26 4H6ZM6 26V6H26V26H6Z" fill="#000000" class="bmwfcol"/><title>underground_rg_48</title></svg>