<svg width="48" height="48" viewBox="0 0 32 32" xmlns="http://www.w3.org/2000/svg"><path d="M27.6932 19C27.214 21.2429 26.1846 23.1797 24.6822 24.6821C22.5444 26.8199 19.5273 28 16.0001 28C10.9109 28 8.12594 25.5648 5 22.4289V28L3 26V19H10L12 21H6.40542C9.49862 24.0911 11.7295 26 16.0001 26C19.0728 26 21.5557 24.9801 23.268 23.2679C24.3813 22.1545 25.2019 20.7153 25.6398 19H27.6932Z" fill="#000000" class="bmwfcol"/><path d="M29 13V6L27 4V9.57122C23.874 6.43528 21.0891 4 15.9998 4C12.4725 4 9.45544 5.18011 7.31767 7.31789C5.81523 8.82033 4.78582 10.7571 4.30664 13H6.36006C6.79791 11.2847 7.61853 9.84546 8.73188 8.73211C10.4441 7.01989 12.927 6 15.9998 6C20.2703 6 22.5012 7.90887 25.5944 11H20L22 13H29Z" fill="#000000" class="bmwfcol"/><title>update_rg_48</title></svg>