<svg width="48" height="48" viewBox="0 0 32 32" xmlns="http://www.w3.org/2000/svg"><path d="M21.7539 12.4134L16.7539 7.41336V18.9995H14.7539V7.41342L9.75391 12.4134V9.58499L15.7539 3.58496L21.7539 9.58493V12.4134Z" fill="#000000" class="bmwfcol"/><path d="M5.75391 16.9995V24.9995C5.75391 25.3101 5.85788 25.4938 6.07183 25.6414C6.3381 25.8252 6.85682 25.9995 7.75391 25.9995H23.7539C24.651 25.9995 25.1697 25.8252 25.436 25.6414C25.6499 25.4938 25.7539 25.3101 25.7539 24.9995V16.9995H27.7539V24.9995C27.7539 25.9289 27.3579 26.7452 26.5718 27.2876C25.8381 27.7939 24.8568 27.9995 23.7539 27.9995H7.75391C6.651 27.9995 5.66972 27.7939 4.93598 27.2876C4.14994 26.7452 3.75391 25.9289 3.75391 24.9995V16.9995H5.75391Z" fill="#000000" class="bmwfcol"/><title>upload_rg_48</title></svg>