<svg width="48" height="48" viewBox="0 0 32 32" xmlns="http://www.w3.org/2000/svg"><path d="M22.8071 8.39289L21.4071 6.99289L19.9929 8.4071L21.3929 9.8071L22.8071 8.39289Z" fill="#000000" class="bmwfcol"/><path d="M25.0071 10.5929L23.6071 9.1929L22.1928 10.6071L23.5928 12.0071L25.0071 10.5929Z" fill="#000000" class="bmwfcol"/><path d="M16.4994 8.08638L22.5 2.0858L29.9142 9.50001L23.9136 15.5006L24.913 16.5L14.6932 26.7198C13.3331 28.0741 11.6897 28.8015 9.99179 28.7991C8.29394 28.7967 6.65181 28.0648 5.29355 26.7065C3.93304 25.346 3.20093 23.7007 3.20093 22C3.20093 20.2993 3.93304 18.654 5.29355 17.2935L15.5 7.08701L16.4994 8.08638ZM17.9136 9.50059L22.4994 14.0864L27.0858 9.50001L22.5 4.91423L17.9136 9.50059ZM6.70776 25.2923C7.74522 26.3297 8.89744 26.7976 9.99459 26.7991C11.0915 26.8007 12.2435 26.3363 13.2815 25.3031L22.0846 16.5L15.5 9.91544L6.70776 18.7077C5.66863 19.7468 5.20093 20.9011 5.20093 22C5.20093 23.0989 5.66863 24.2532 6.70776 25.2923Z" fill="#000000" class="bmwfcol"/><title>usb_stick_rg_48</title></svg>