<svg width="48" height="48" viewBox="0 0 32 32" xmlns="http://www.w3.org/2000/svg"><path d="M18.25 7.5C17.4228 7.5 16.6557 7.78011 16.0929 8.34289C15.7662 8.66963 15.5347 9.06522 15.398 9.50147C14.7308 9.51036 14.1379 9.56303 13.5528 9.85557C13.1851 10.0394 12.8573 10.2956 12.5185 10.6005C12.1864 10.8994 11.796 11.2898 11.3127 11.7731L8.31007 14.7757C8.14856 14.2863 7.88448 13.8453 7.51961 13.4804C6.86933 12.8301 5.97725 12.5 5 12.5C4.02275 12.5 3.13067 12.8301 2.48039 13.4804C1.83011 14.1307 1.5 15.0228 1.5 16C1.5 16.9772 1.83011 17.8693 2.48039 18.5196C3.13067 19.1699 4.02275 19.5 5 19.5C6.70446 19.5 7.96243 18.4301 8.36381 17H10.5858L13.8125 20.2267C14.2959 20.7101 14.6864 21.1006 15.0185 21.3995C15.3573 21.7044 15.6851 21.9606 16.0528 22.1444C16.6675 22.4518 17.2908 22.4944 18 22.4996V24.5H23.5V19H18V20.4975C17.341 20.489 17.1485 20.4562 16.9472 20.3556C16.815 20.2894 16.6427 20.1706 16.3565 19.913C16.0681 19.6534 15.7147 19.3005 15.2071 18.7929L13.4142 17H24.625V19.5H26.0519L31 16.6432V15.3568L26.0519 12.5H24.625V15L10.9142 15L12.7071 13.2071C13.2147 12.6995 13.5681 12.3466 13.8565 12.087C14.1427 11.8294 14.315 11.7106 14.4472 11.6444C14.6379 11.5491 14.8207 11.5147 15.3998 11.5041C15.5367 11.9381 15.7676 12.3318 16.0929 12.6571C16.6557 13.2199 17.4228 13.5 18.25 13.5C20.0336 13.5 21.25 12.125 21.25 10.5C21.25 9.67275 20.9699 8.90567 20.4071 8.34289C19.8443 7.78011 19.0772 7.5 18.25 7.5ZM17.25 10.5C17.25 10.1272 17.3699 9.89433 17.5071 9.75711C17.6443 9.61989 17.8772 9.5 18.25 9.5C18.6228 9.5 18.8557 9.61989 18.9929 9.75711C19.1301 9.89433 19.25 10.1272 19.25 10.5C19.25 11.0841 18.8664 11.5 18.25 11.5C17.8772 11.5 17.6443 11.3801 17.5071 11.2429C17.3699 11.1057 17.25 10.8728 17.25 10.5ZM3.89461 14.8946C4.11933 14.6699 4.47725 14.5 5 14.5C5.52275 14.5 5.88067 14.6699 6.10539 14.8946C6.33011 15.1193 6.5 15.4772 6.5 16C6.5 16.8603 5.91639 17.5 5 17.5C4.47725 17.5 4.11933 17.3301 3.89461 17.1054C3.66989 16.8807 3.5 16.5228 3.5 16C3.5 15.4772 3.66989 15.1193 3.89461 14.8946ZM20 21H21.5V22.5H20V21ZM28.1141 16L26.625 16.8597V15.1403L28.1141 16Z" fill="#000000" class="bmwfcol"/><title>usb_logo_rg_48</title></svg>