<svg width="48" height="48" viewBox="0 0 32 32" xmlns="http://www.w3.org/2000/svg"><path d="M10.6895 4C10.8243 4.22896 10.9507 4.43051 11.0746 4.60995C11.4032 5.0861 11.6749 5.34792 11.9651 5.51936C12.2597 5.69336 12.6539 5.82165 13.3029 5.89983C13.962 5.97923 14.8144 6 15.9999 6C17.1851 6 18.0376 5.97888 18.6967 5.89909C19.3458 5.82053 19.7404 5.69183 20.0354 5.51742C20.3261 5.34555 20.598 5.08337 20.9265 4.60749C21.0499 4.42867 21.1759 4.22792 21.3101 4L23.5998 4C23.2351 4.67801 22.9052 5.26148 22.5725 5.74358C22.1454 6.36227 21.6769 6.87038 21.0532 7.2391C20.4337 7.60527 19.7398 7.78744 18.9371 7.8846C18.1444 7.98054 17.1819 8 15.9999 8C14.8181 8 13.8558 7.9809 13.0637 7.88547C12.2614 7.78882 11.5675 7.60731 10.9481 7.24145C10.3242 6.87301 9.85568 6.3649 9.42852 5.74594C9.09554 5.26347 8.76529 4.67924 8.39993 4L10.6895 4Z" fill="#000000" class="bmwfcol"/><path d="M24.5269 20.5691C24.9753 20.3043 25.5635 20.1363 26.3531 20.1363C26.7965 20.1363 27.2166 20.1879 27.6704 20.2686L27.6713 20.2687L27.6722 20.2689C28.1513 20.3587 28.3935 20.4091 28.7262 20.4898L28.8791 20.5269V22.378L28.6333 22.3201C28.2987 22.2414 27.9241 22.1625 27.4994 22.0835L27.4988 22.0834C27.1378 22.0151 26.8331 21.9776 26.532 21.9776C26.1207 21.9776 25.8295 22.0354 25.6168 22.1407C25.4098 22.2432 25.2627 22.3977 25.1503 22.6224C24.9648 22.9936 24.9031 23.5367 24.9031 24.3321C24.9031 25.063 24.9563 25.6368 25.1648 26.0019C25.3759 26.3694 25.7706 26.5277 26.5817 26.5277C27.2033 26.5277 28.0276 26.3638 28.6374 26.2339L28.8791 26.1824V28.0338L28.7194 28.0667C28.0434 28.2059 27.2105 28.369 26.3233 28.369C25.4951 28.369 24.904 28.1989 24.4644 27.9385C24.025 27.6781 23.7538 27.337 23.5513 27.0255L23.5513 27.0254C23.1508 26.4086 22.9922 25.4849 22.9922 24.362C22.9922 23.2014 23.1205 22.259 23.5687 21.5333L23.569 21.5329C23.7842 21.1865 24.0786 20.8337 24.5269 20.5691Z" fill="#000000" class="bmwfcol"/><path d="M21.9309 24.4204H17.9724V26.2716H21.9309L21.9309 24.4204Z" fill="#000000" class="bmwfcol"/><path d="M12.5138 20.3052L10.4578 20.3052L13.2744 28.2L15.4449 28.2L18.2615 20.3052H16.2356L14.3701 25.634L12.5138 20.3052Z" fill="#000000" class="bmwfcol"/><path d="M5.33277 20.3052L3.44177 20.3052L3.44177 25.0776C3.44177 26.1064 3.5583 26.9424 4.13137 27.5596L4.13155 27.5598C4.72638 28.1987 5.49404 28.369 6.62377 28.369C7.67519 28.369 8.46892 28.1981 9.07259 27.5835C9.65844 26.9866 9.79583 26.1991 9.79583 25.0776L9.79583 20.3052L7.90483 20.3052L7.90483 25.1075C7.90483 25.8182 7.84563 26.1402 7.62314 26.3405L7.62233 26.3412L7.62152 26.3419C7.53491 26.4216 7.4061 26.478 7.22989 26.5128C7.05428 26.5475 6.84871 26.5575 6.62377 26.5575C6.39542 26.5575 6.18493 26.5452 6.00565 26.5082C5.82559 26.4711 5.6938 26.4124 5.60667 26.3325C5.38213 26.1225 5.33277 25.7993 5.33277 25.1075L5.33277 20.3052Z" fill="#000000" class="bmwfcol"/><path d="M22.3673 9.03144L25.3673 14.2276L23.6353 15.2276L20.6353 10.0314L22.3673 9.03144Z" fill="#000000" class="bmwfcol"/><path d="M17 11.0055V17.0055L15 17.0055V11.0055H17Z" fill="#000000" class="bmwfcol"/><path d="M11.3647 10.0314L8.36474 15.2276L6.63269 14.2276L9.63269 9.03144L11.3647 10.0314Z" fill="#000000" class="bmwfcol"/><title>uv-c_light_rg_48</title></svg>