<svg width="48" height="48" viewBox="0 0 32 32" xmlns="http://www.w3.org/2000/svg"><path d="M6.06262 8L8.06262 6H3.99988V4H8.06262L6.06262 2H8.5375L11.5375 5L8.5375 8H6.06262Z" fill="#000000" class="bmwfcol"/><path d="M22.2535 5.16683C21.2654 5.16655 20.4505 5.16632 19.6227 5.44457C18.8232 5.71334 18.0737 6.21611 17.0832 7.03169C15.3039 7.18729 14.2941 7.27856 13.5681 7.43992C12.7402 7.62391 12.2528 7.90542 11.5219 8.32746L11.0187 8.61798L11.0186 12.363L11.7042 12.5467C12.2653 12.6971 12.6069 12.7831 12.8556 12.8289C13.1447 12.8822 13.3174 12.8822 13.5043 12.8822V12.7227C13.9022 13.5418 14.7421 14.1063 15.7138 14.1063C16.6211 14.1063 17.4135 13.6142 17.8385 12.8822H23.0798C23.5048 13.6142 24.2972 14.1063 25.2045 14.1063C26.1128 14.1063 26.9059 13.6131 27.3305 12.8798C27.6174 12.8735 27.8969 12.8515 28.187 12.7755C28.6135 12.6638 29.0173 12.45 29.5434 12.1463L30.0059 11.8792L30.0057 9.38091L29.7348 9.11001C29.4772 8.85236 29.4167 8.72551 29.404 8.69376L29.4026 8.69038C29.3979 8.68017 29.3937 8.67089 29.3937 8.54001L29.3936 7.08033L27.6724 6.92975L27.6678 6.92708C26.7703 6.4071 26.0104 5.9668 25.2321 5.66484C24.3645 5.32823 23.4912 5.16684 22.3483 5.16684L22.2535 5.16683ZM27.7183 10.9859C27.6734 10.9977 27.6289 11.0065 27.5758 11.0131C27.2949 9.96659 26.3397 9.19612 25.2045 9.19612C24.0624 9.19612 23.1024 9.97598 22.8281 11.0322H18.0902C17.8159 9.97598 16.8559 9.19612 15.7138 9.19612C14.5727 9.19612 13.6135 9.97461 13.3382 11.0294C13.2937 11.0266 13.2526 11.021 13.1907 11.0095C13.1136 10.9953 13.0131 10.9733 12.8686 10.9379L12.8687 9.6893C13.3072 9.44558 13.5601 9.33683 13.9694 9.24585C14.5823 9.10963 15.5001 9.02714 17.5326 8.84945L17.8232 8.82405L18.0467 8.63656C19.1301 7.72743 19.7058 7.36837 20.2122 7.19815C20.7236 7.02622 21.2372 7.01684 22.3483 7.01684C23.2915 7.01684 23.9344 7.1457 24.5629 7.38958C25.2027 7.63781 25.8434 8.00864 26.8051 8.56535L27.1015 8.73687L27.5496 8.77607C27.5609 8.93925 27.5933 9.1482 27.6864 9.38082C27.7876 9.63389 27.9436 9.87727 28.1558 10.1263L28.1558 10.8006C27.941 10.9121 27.8193 10.9595 27.7183 10.9859ZM15.1087 11.6512C15.1087 11.317 15.3797 11.0461 15.7138 11.0461C16.048 11.0461 16.3189 11.317 16.3189 11.6512C16.3189 11.9854 16.048 12.2563 15.7138 12.2563C15.3797 12.2563 15.1087 11.9854 15.1087 11.6512ZM24.5994 11.6512C24.5994 11.317 24.8703 11.0461 25.2045 11.0461C25.5387 11.0461 25.8096 11.317 25.8096 11.6512C25.8096 11.9854 25.5387 12.2563 25.2045 12.2563C24.8703 12.2563 24.5994 11.9854 24.5994 11.6512Z" fill="#000000" class="bmwfcol"/><path d="M29.7073 16.2928C29.3996 15.9852 28.9703 15.6299 28.3683 15.4031C27.7593 15.1737 27.0434 15.1018 26.1992 15.2527C24.7372 15.5139 22.8561 16.4492 20.3112 18.457C19.9401 18.1456 19.4742 18 19 18L14.1319 18L10.3999 17L10.1895 16.9999C9.6121 16.9991 9.03821 16.9982 8.38659 17.397C8.09317 17.5766 7.8062 17.8208 7.49345 18.113C7.17993 18.4058 6.79508 18.7907 6.30669 19.2791L1.58582 24L7.58582 30H9.41424L11.4142 28H15.0287C16.0043 28 16.7763 28 17.3964 27.9673C18.0254 27.9342 18.5664 27.8653 19.0664 27.6987C20.0439 27.3728 20.7035 26.7123 21.589 25.8256L30.4146 16.9999L29.7073 16.2928ZM13.8686 20L19 20L19.0001 20.5776C18.215 21.3183 17.6684 21.6398 17.1839 21.8013C16.6157 21.9907 16.0357 22 15.0003 22H11V24L15.0816 24C16.0167 24.0002 16.911 24.0005 17.8164 23.6986C18.7737 23.3795 19.6532 22.761 20.7071 21.7071L20.9999 21.4143L21.0001 20.4697C23.7542 18.211 25.4853 17.4119 26.551 17.2215C26.9035 17.1585 27.1747 17.1636 27.386 17.2001L20.2932 24.2929C19.2395 25.3465 18.9135 25.6414 18.4339 25.8013C18.1838 25.8847 17.8497 25.9407 17.2913 25.9701C16.7299 25.9996 16.0107 26 15 26H10.5858L8.58582 28H8.41424L4.41424 24L7.70714 20.7071C8.2122 20.202 8.57307 19.8413 8.85874 19.5745C9.14812 19.3041 9.31542 19.1734 9.43053 19.1029C9.55683 19.0256 9.59838 19.0031 10.1378 19.0003L13.8686 20Z" fill="#000000" class="bmwfcol"/><path d="M4.9374 14L6.9374 16H4.46253L1.46252 13L4.46253 10H6.9374L4.9374 12H9.00014V14H4.9374Z" fill="#000000" class="bmwfcol"/><title>vehicle_double_arrow_on_hand_rg_48</title></svg>