<svg width="48" height="48" viewBox="0 0 32 32" xmlns="http://www.w3.org/2000/svg"><path d="M18 9C18 9.34109 17.9807 9.67481 17.9427 10H15.9248C15.9742 9.68395 16 9.35041 16 9C16 7.42725 15.4801 6.19433 14.6429 5.35711C13.8057 4.51989 12.5728 4 11 4C9.42725 4 8.19433 4.51989 7.35711 5.35711C6.51989 6.19433 6 7.42725 6 9C6 10.4477 6.44049 11.6074 7.16351 12.4357L7.87096 13.1419V10.314L9.52096 11.9646V16.2076H5.27815L3.62805 14.5576H6.45821C6.28877 14.3881 6.11224 14.2265 5.94289 14.0571C4.68011 12.7943 4 11.0272 4 9C4 6.97275 4.68011 5.20567 5.94289 3.94289C7.20567 2.68011 8.97275 2 11 2C13.0272 2 14.7943 2.68011 16.0571 3.94289C17.3199 5.20567 18 6.97275 18 9Z" fill="#000000" class="bmwfcol"/><path d="M10 5V10H14V8H12V5H10Z" fill="#000000" class="bmwfcol"/><path d="M25.7067 16.7072L21.4996 20.9143L18.7925 18.2072L20.2067 16.793L21.4996 18.0859L24.2925 15.293L25.7067 16.7072Z" fill="#000000" class="bmwfcol"/><path d="M25.7067 22.2072L21.4996 26.4143L18.7925 23.7072L20.2067 22.293L21.4996 23.5859L24.2925 20.793L25.7067 22.2072Z" fill="#000000" class="bmwfcol"/><path d="M16 12H30V30H16V12ZM18 14V28H28V14H18Z" fill="#000000" class="bmwfcol"/><path d="M14 26V28H10.1632C9.6015 29.1825 8.39624 30 7.00004 30C5.588 30 4.37127 29.1638 3.81799 27.9596C3.74554 27.9496 3.66773 27.9371 3.58273 27.9214C3.19989 27.8509 2.66139 27.7159 1.74122 27.4693L1 27.2707L1.00027 22.4226L1.54774 22.1066C2.75292 21.4107 3.4897 20.9853 4.76518 20.7018C5.93254 20.4423 7.57816 20.2954 10.6006 20.0311C11.9527 18.9103 12.9918 18.1722 14 17.7094V19.9831C13.3727 20.3759 12.6264 20.941 11.643 21.7661L11.4015 21.9688L11.0873 21.9962C7.78642 22.2848 6.24237 22.4223 5.19911 22.6541C4.38084 22.836 3.89751 23.0682 3.00021 23.5788L3.00009 25.733C3.22407 25.7907 3.40574 25.8358 3.55638 25.8712C3.8526 24.2383 5.28171 23 7.00004 23C8.76328 23 10.222 24.3039 10.4646 26H14ZM7.00004 25C6.17162 25 5.50004 25.6716 5.50004 26.5C5.50004 27.3284 6.17162 28 7.00004 28C7.82847 28 8.50004 27.3284 8.50004 26.5C8.50004 25.6716 7.82847 25 7.00004 25Z" fill="#000000" class="bmwfcol"/><title>vehicle_history_clock_checklist_rg_48</title></svg>