<svg width="48" height="48" viewBox="0 0 32 32" xmlns="http://www.w3.org/2000/svg"><path d="M19 5.00002L18.8866 5.00001C17.2361 4.99979 15.9815 4.99962 14.7097 5.42714C13.4632 5.84618 12.2706 6.6468 10.6006 8.03115C7.57816 8.2954 5.93254 8.44232 4.76518 8.70177C3.4897 8.98525 2.75292 9.41068 1.54774 10.1066L1.00027 10.4226L1 15.2707L1.74122 15.4693C2.66139 15.7159 3.19989 15.8509 3.58273 15.9214C3.66771 15.937 3.74551 15.9496 3.81795 15.9596C4.37123 17.1638 5.58797 18 7 18C8.39619 18 9.60144 17.1825 10.1632 16H20.8368C21.3986 17.1825 22.6038 18 24 18C25.3981 18 26.6047 17.1803 27.1655 15.9952C27.6002 15.9845 27.9981 15.9503 28.4102 15.8424C29.0328 15.6793 29.6385 15.3636 30.5002 14.866L31.0003 14.5773L31 11.5858L30.7071 11.2929C30.2594 10.8452 30.1095 10.5812 30.0535 10.4411C30.0056 10.3214 30 10.2408 30 9.99997L29.9999 8.08365L27.5411 7.86853L27.4483 7.81475C25.9682 6.95739 24.76 6.25748 23.5269 5.77906C22.1754 5.25471 20.8122 5.00002 19 5.00002ZM27.4615 13.9791C27.2099 12.2931 25.756 11 24 11C22.2368 11 20.778 12.3039 20.5354 14H10.4646C10.222 12.3039 8.76324 11 7 11C5.28167 11 3.85255 12.2383 3.55633 13.8712C3.40571 13.8358 3.22405 13.7907 3.00009 13.733L3.00021 11.5788C3.89751 11.0682 4.38084 10.836 5.19911 10.6541C6.24237 10.4223 7.78642 10.2848 11.0873 9.99623L11.4015 9.96876L11.643 9.76607C13.4192 8.27572 14.4221 7.6338 15.347 7.3229C16.2773 7.01015 17.2068 7.00002 19 7.00002C20.5964 7.00002 21.7104 7.21955 22.8035 7.64364C23.8868 8.06395 24.966 8.68872 26.5146 9.58525L26.9239 9.82217L28 9.91632L28 10.0204C27.9999 10.2808 27.9997 10.6917 28.1966 11.1839C28.3537 11.5768 28.6134 11.9705 29.0001 12.3995L29.0002 13.4165C28.463 13.7113 28.164 13.8394 27.9035 13.9076C27.7663 13.9436 27.6313 13.9656 27.4615 13.9791ZM7 13C7.82843 13 8.5 13.6716 8.5 14.5C8.5 15.3284 7.82843 16 7 16C6.17157 16 5.5 15.3284 5.5 14.5C5.5 13.6716 6.17157 13 7 13ZM24 13C24.8284 13 25.5 13.6716 25.5 14.5C25.5 15.3284 24.8284 16 24 16C23.1716 16 22.5 15.3284 22.5 14.5C22.5 13.6716 23.1716 13 24 13Z" fill="#000000" class="bmwfcol"/><path d="M10.7627 20H13.2376L11.2376 22H19.7624L17.7624 20H20.2373L23 22.7627V20H25V26H23V23.2376L20.2376 26H17.7627L19.7627 24H11.2373L13.2373 26H10.7624L8 23.2376V26H6V20H8V22.7627L10.7627 20Z" fill="#000000" class="bmwfcol"/><title>vehicle-wheel-distance_rg_48</title></svg>