<svg width="48" height="48" viewBox="0 0 32 32" xmlns="http://www.w3.org/2000/svg"><path d="M9.125 3.21086L11.0429 1.29297L12.4571 2.70718L10.5392 4.62508L11.375 5.46086L13.2929 3.54297L14.7071 4.95718L12.7892 6.87507L13.9142 8.00007L13.2071 8.70718C11.6687 10.2456 10.3226 11.1419 9.05384 11.3653C8.07742 11.5373 7.26116 11.2964 6.57761 10.8516C6.06803 11.3905 5.8215 11.7103 5.68585 11.9737C5.53917 12.2584 5.5 12.5132 5.5 13.2501V13.7923C5.08855 13.8532 4.72094 13.919 4.38546 13.9935C4.06715 14.0643 3.77446 14.1436 3.5 14.231V13.2501C3.5 12.487 3.52333 11.8043 3.9079 11.0577C4.16943 10.5501 4.5817 10.0472 5.15956 9.43949C4.70769 8.75248 4.46137 7.93077 4.63477 6.94624C4.85822 5.67747 5.75448 4.33138 7.29289 2.79297L8 2.08586L9.125 3.21086ZM8.70694 9.39562C9.23796 9.3021 9.99706 8.92728 11.0658 7.98011L8.01996 4.93425C7.0728 6.00302 6.69798 6.76211 6.60445 7.29314C6.51089 7.82441 6.67748 8.26334 7.20711 8.79297C7.73673 9.32259 8.17566 9.48919 8.70694 9.39562Z" fill="#000000" class="bmwfcol"/><path d="M13 21.0001H10.4646C10.2219 19.3039 8.76323 18.0001 7 18.0001C5.28168 18.0001 3.85257 19.2384 3.55634 20.8713C3.40571 20.8359 3.22406 20.7908 3.00009 20.733L3.00021 18.5789C3.89751 18.0683 4.38084 17.8361 5.19911 17.6542C6.24237 17.4223 7.78642 17.2849 11.0873 16.9963L11.4015 16.9688L11.643 16.7661C13.4192 15.2758 14.4221 14.6339 15.347 14.323C16.2773 14.0102 17.2068 14.0001 19 14.0001C20.5964 14.0001 21.7104 14.2196 22.8035 14.6437C23.8868 15.064 24.966 15.6888 26.5146 16.5853L26.9239 16.8222L28 16.9164L28 17.0204C27.9999 17.2809 27.9997 17.6917 28.1966 18.184C28.3537 18.5769 28.6134 18.9705 29.0001 19.3995L29.0002 20.4165L28.9202 20.4602L29 20.5001V22.6429C29.4383 22.4632 29.909 22.2075 30.5002 21.8661L31.0003 21.5774L31 18.5858L30.7071 18.293C30.2594 17.8453 30.1095 17.5813 30.0535 17.4412C30.0056 17.3214 30 17.2409 30 17L29.9999 15.0837L27.5411 14.8686L27.4483 14.8148C25.9682 13.9575 24.76 13.2575 23.5269 12.7791C22.1754 12.2548 20.8122 12.0001 19 12.0001L18.8866 12.0001C17.2361 11.9999 15.9815 11.9997 14.7097 12.4272C13.4632 12.8462 12.2706 13.6469 10.6006 15.0312C7.57816 15.2955 5.93254 15.4424 4.76518 15.7018C3.4897 15.9853 2.75292 16.4107 1.54774 17.1066L1.00027 17.4227L1 22.2707L1.74122 22.4694C2.66139 22.7159 3.19989 22.8509 3.58273 22.9215C3.66771 22.9371 3.7455 22.9496 3.81794 22.9597C4.37121 24.1639 5.58795 25.0001 7 25.0001C8.3962 25.0001 9.60146 24.1826 10.1632 23.0001H13V21.0001ZM7 20.0001C7.82843 20.0001 8.5 20.6717 8.5 21.5001C8.5 22.3285 7.82843 23.0001 7 23.0001C6.17157 23.0001 5.5 22.3285 5.5 21.5001C5.5 20.6717 6.17157 20.0001 7 20.0001Z" fill="#000000" class="bmwfcol"/><path d="M20.2499 24.9875L24.3687 20.8688L23.1312 19.6314L20.2499 22.5127L18.8687 21.1314L17.6312 22.3688L20.2499 24.9875Z" fill="#000000" class="bmwfcol"/><path d="M16.6679 17.668C17.7557 16.5802 19.2728 16.0001 21 16.0001C22.7272 16.0001 24.2443 16.5802 25.3321 17.668C26.4199 18.7558 27 20.2728 27 22.0001C27 23.3067 26.617 24.5239 25.9299 25.5158L28.7071 28.293L27.2928 29.7072L24.5201 26.9345C23.5625 27.6051 22.3661 28.0001 21 28.0001C19.2728 28.0001 17.7557 27.42 16.6679 26.3322C15.5801 25.2444 15 23.7273 15 22.0001C15 20.2728 15.5801 18.7558 16.6679 17.668ZM18.0821 19.0822C17.4199 19.7444 17 20.7273 17 22.0001C17 23.2728 17.4199 24.2558 18.0821 24.918C18.7443 25.5802 19.7272 26.0001 21 26.0001C23.4164 26.0001 25 24.2411 25 22.0001C25 20.7273 24.5801 19.7444 23.9179 19.0822C23.2557 18.42 22.2728 18.0001 21 18.0001C19.7272 18.0001 18.7443 18.42 18.0821 19.0822Z" fill="#000000" class="bmwfcol"/><title>vehicle_check_bev_rg_48</title></svg>