<svg width="48" height="48" viewBox="0 0 32 32" xmlns="http://www.w3.org/2000/svg"><path d="M6.19427 3.58488C6.6383 3.5011 7.57702 3.32642 8.16085 3.32642C9.04321 3.32642 9.65995 3.4719 10.0989 3.88133C10.4765 4.2301 10.6558 4.71101 10.6558 5.20942C10.6558 5.6707 10.4822 5.95947 10.2675 6.29448C10.1942 6.40954 10.1113 6.53439 10.0416 6.63657C10.1305 6.71076 10.2174 6.7967 10.3105 6.90709C10.6197 7.26518 10.7493 7.68872 10.7493 8.20142C10.7493 8.73906 10.5774 9.30311 10.2193 9.6812C9.74107 10.197 9.0384 10.4244 8.04185 10.4244C7.22357 10.4244 6.60507 10.311 6.14393 10.2256L5.98035 10.1953V8.60031L6.21529 8.64199C6.74351 8.73571 7.34777 8.84292 8.01635 8.84292C8.4733 8.84292 8.73949 8.77447 8.8892 8.66315C9.01902 8.56073 9.07435 8.41782 9.07435 8.20142C9.07435 8.07691 9.04874 7.98946 9.00523 7.92184C8.96128 7.85356 8.88778 7.78797 8.76226 7.72696C8.58249 7.64052 8.37064 7.63642 7.97385 7.63642H6.62635V6.08892H8.5605L8.70573 5.88925C8.90771 5.617 8.99785 5.45623 8.99785 5.31142C8.99785 5.22934 8.99154 5.18046 8.97942 5.1441C8.96902 5.1129 8.9512 5.08153 8.91025 5.04288C8.8687 5.0066 8.80167 4.97155 8.67783 4.94642C8.55073 4.92063 8.37724 4.90792 8.13535 4.90792C7.55537 4.90792 6.70935 5.073 6.26983 5.15918L6.03135 5.20594V3.61562L6.19427 3.58488Z" fill="#000000" class="bmwfcol"/><path d="M24.9465 3.32642C24.3823 3.32642 23.9035 3.50145 23.5648 3.83157C23.2257 4.16217 23.0465 4.62937 23.0465 5.17542C23.0465 5.71447 23.2268 6.16656 23.5687 6.48255C23.9086 6.79674 24.3867 6.95642 24.9465 6.95642C25.4947 6.95642 25.9699 6.79614 26.3102 6.48279C26.6525 6.1676 26.838 5.71596 26.838 5.17542C26.838 4.62793 26.6537 4.16113 26.3141 3.83132C25.9751 3.50211 25.4991 3.32642 24.9465 3.32642ZM24.4665 5.14142C24.4665 4.98713 24.5161 4.88162 24.5877 4.8139C24.6606 4.74495 24.7773 4.69542 24.9465 4.69542C25.1071 4.69542 25.2221 4.7428 25.2953 4.81137C25.3668 4.87832 25.418 4.98373 25.418 5.14142C25.418 5.2991 25.3668 5.40452 25.2953 5.47147C25.2221 5.54003 25.1071 5.58742 24.9465 5.58742C24.7773 5.58742 24.6606 5.53789 24.5877 5.46894C24.5161 5.40122 24.4665 5.2957 24.4665 5.14142Z" fill="#000000" class="bmwfcol"/><path d="M19.8547 3.32642C19.0348 3.32642 18.3346 3.55986 17.8675 4.17952C17.6258 4.50335 17.5059 4.91465 17.4444 5.36735C17.3828 5.82041 17.3767 6.33696 17.3767 6.88392C17.3767 7.49318 17.3826 8.03266 17.4612 8.50022C17.5407 8.97273 17.6964 9.38526 18.0044 9.7359C18.4766 10.2754 19.1426 10.4244 19.8547 10.4244C20.574 10.4244 21.2741 10.2291 21.7268 9.67059C22.3132 8.95352 22.3582 8.11603 22.3582 6.88392C22.3582 6.27355 22.348 5.70757 22.2559 5.21713C22.1631 4.72314 21.9842 4.28778 21.6336 3.95156C21.1676 3.50465 20.5069 3.32642 19.8547 3.32642ZM19.0703 5.93247C19.0891 5.6515 19.1257 5.43839 19.189 5.28697C19.2548 5.13117 19.3392 5.04364 19.4361 4.99086C19.5378 4.93546 19.6725 4.90792 19.8547 4.90792C20.1581 4.90792 20.3589 4.99764 20.4692 5.16575C20.5634 5.31049 20.6199 5.50398 20.6503 5.78451C20.6808 6.06603 20.6832 6.41374 20.6832 6.85842C20.6832 7.34126 20.6786 7.7022 20.6423 7.98696C20.6063 8.26881 20.5412 8.45607 20.4337 8.60051C20.3143 8.76165 20.1057 8.84292 19.8547 8.84292C19.5904 8.84292 19.3875 8.76797 19.2703 8.60493C19.175 8.46615 19.1168 8.27526 19.0855 7.99339C19.054 7.7101 19.0517 7.35848 19.0517 6.90942C19.0517 6.53766 19.0517 6.21132 19.0703 5.93247Z" fill="#000000" class="bmwfcol"/><path d="M16.1506 4.92068V3.33681L15.9284 3.36166C14.5497 3.51579 13.4644 3.81847 12.7043 4.44277C12.3248 4.75372 12.0391 5.13209 11.851 5.66329C11.665 6.1887 11.5771 6.85599 11.5771 7.74242C11.5771 8.63642 11.7871 9.32565 12.2371 9.78566C12.7087 10.2761 13.336 10.4244 14.1231 10.4244C14.9229 10.4244 15.5468 10.2188 15.9966 9.72148C16.4048 9.27506 16.5586 8.70306 16.5586 8.12492C16.5586 7.46663 16.3772 6.9194 15.9849 6.5079C15.6006 6.10401 15.0607 5.91042 14.1486 5.91042C13.9533 5.91042 13.7427 5.91425 13.5345 5.92193C13.6478 5.71802 13.8379 5.55437 14.1531 5.3968C14.5978 5.17443 15.3014 5.01622 15.973 4.94066L16.1506 4.92068ZM13.2521 7.89542C13.2521 7.70397 13.2522 7.57297 13.2568 7.45824C13.4593 7.45006 13.7485 7.44092 13.9956 7.44092C14.4656 7.44092 14.6228 7.489 14.7281 7.59325C14.8514 7.72338 14.8836 7.86238 14.8836 8.12492C14.8836 8.3819 14.8453 8.54166 14.7011 8.69217C14.5704 8.82882 14.392 8.87692 14.1231 8.87692C13.7981 8.87692 13.5871 8.81803 13.4597 8.67548C13.3825 8.58021 13.3336 8.49015 13.3019 8.37848C13.2687 8.26147 13.2521 8.1123 13.2521 7.89542Z" fill="#000000" class="bmwfcol"/><path d="M13 21H10.4646C10.222 19.3038 8.76324 17.9999 7 17.9999C5.28167 17.9999 3.85255 19.2382 3.55633 20.8711C3.40571 20.8358 3.22405 20.7906 3.00009 20.7329L3.00021 18.5787C3.89751 18.0682 4.38084 17.8359 5.19911 17.6541C6.24237 17.4222 7.78642 17.2847 11.0873 16.9962L11.4015 16.9687L11.643 16.766C13.4192 15.2757 14.4221 14.6337 15.347 14.3228C16.2773 14.0101 17.2068 14 19 14C20.5964 14 21.7104 14.2195 22.8035 14.6436C23.8868 15.0639 24.966 15.6887 26.5146 16.5852L26.9239 16.8221L28 16.9163L28 17.0203C27.9999 17.2808 27.9997 17.6916 28.1966 18.1838C28.3537 18.5768 28.6134 18.9704 29.0001 19.3994L29.0002 20.4164L28.9202 20.46L29 20.4999V22.6427C29.4383 22.4631 29.909 22.2073 30.5003 21.866L31.0003 21.5773L31 18.5857L30.7071 18.2929C30.2594 17.8451 30.1095 17.5811 30.0535 17.4411C30.0056 17.3213 30 17.2408 30 16.9999L29.9999 15.0836L27.5411 14.8685L27.4482 14.8147C25.9682 13.9573 24.76 13.2574 23.5269 12.779C22.1754 12.2546 20.8122 12 19 12L18.8866 11.9999C17.2361 11.9997 15.9815 11.9996 14.7097 12.4271C13.4632 12.8461 12.2706 13.6467 10.6006 15.0311C7.57816 15.2953 5.93255 15.4423 4.76518 15.7017C3.4897 15.9852 2.75293 16.4106 1.54774 17.1065L1.00027 17.4226L1 22.2706L1.74122 22.4692C2.66139 22.7158 3.19989 22.8508 3.58273 22.9213C3.66771 22.937 3.74551 22.9495 3.81795 22.9596C4.37123 24.1638 5.58797 24.9999 7 24.9999C8.39619 24.9999 9.60144 24.1824 10.1632 23H13V21ZM7 19.9999C7.82843 19.9999 8.5 20.6715 8.5 21.4999C8.5 22.3284 7.82843 22.9999 7 22.9999C6.17157 22.9999 5.5 22.3284 5.5 21.4999C5.5 20.6715 6.17157 19.9999 7 19.9999Z" fill="#000000" class="bmwfcol"/><path d="M20.25 24.9874L24.3687 20.8687L23.1313 19.6312L20.25 22.5125L18.8687 21.1312L17.6313 22.3687L20.25 24.9874Z" fill="#000000" class="bmwfcol"/><path d="M16.6679 17.6678C17.7557 16.5801 19.2728 15.9999 21 15.9999C22.7272 15.9999 24.2443 16.5801 25.3321 17.6678C26.4199 18.7556 27 20.2727 27 21.9999C27 23.3065 26.617 24.5237 25.9299 25.5156L28.7071 28.2928L27.2929 29.7071L24.5202 26.9343C23.5625 27.605 22.3661 27.9999 21 27.9999C19.2728 27.9999 17.7557 27.4198 16.6679 26.332C15.5801 25.2443 15 23.7272 15 21.9999C15 20.2727 15.5801 18.7556 16.6679 17.6678ZM18.0821 19.082C17.4199 19.7443 17 20.7272 17 21.9999C17 23.2727 17.4199 24.2556 18.0821 24.9178C18.7443 25.5801 19.7272 25.9999 21 25.9999C23.4164 25.9999 25 24.2409 25 21.9999C25 20.7272 24.5801 19.7443 23.9179 19.082C23.2557 18.4198 22.2728 17.9999 21 17.9999C19.7272 17.9999 18.7443 18.4198 18.0821 19.082Z" fill="#000000" class="bmwfcol"/><title>vehicle_check_magnifier_360_rg_48</title></svg>