<svg width="48" height="48" viewBox="0 0 32 32" xmlns="http://www.w3.org/2000/svg"><path d="M18.8007 6.50014C17.4639 6.49988 16.4101 6.49968 15.3409 6.85909C14.2993 7.20925 13.312 7.87204 11.9645 8.98579C9.53308 9.19839 8.18493 9.31937 7.22292 9.53319C6.15194 9.77122 5.52787 10.1316 4.54607 10.6985L4.00018 11.0137L3.99994 15.2248L4.74116 15.4234C5.49283 15.6248 5.94042 15.7372 6.26197 15.7964C6.29772 15.803 6.33203 15.809 6.36505 15.8143C6.86456 16.8138 7.89756 17.5001 9.09086 17.5001C10.2644 17.5001 11.2829 16.8363 11.7914 15.8638H20.2994C20.808 16.8363 21.8265 17.5001 23 17.5001C24.1765 17.5001 25.1971 16.833 25.7043 15.8564C26.0271 15.8443 26.3357 15.8123 26.6544 15.7289C27.1902 15.5886 27.705 15.3182 28.4092 14.9116L28.9093 14.6229L28.909 11.995L28.6162 11.7021C28.2594 11.3453 28.1549 11.1495 28.1216 11.0663C28.0965 11.0033 28.0909 10.9682 28.0909 10.7728L28.0908 9.03833L25.9534 8.85133L25.9076 8.82481C24.7016 8.12618 23.7012 7.5466 22.6786 7.14986C21.5494 6.71173 20.4114 6.50015 18.9091 6.50015L18.8007 6.50014ZM26.1477 13.7941C26.0934 13.8084 26.0395 13.8197 25.9811 13.8287C25.6924 12.447 24.4674 11.4092 23 11.4092C21.5202 11.4092 20.2869 12.4646 20.0118 13.8638H12.079C11.804 12.4646 10.5707 11.4092 9.09086 11.4092C7.66232 11.4092 6.4635 12.3928 6.13469 13.7197C6.0924 13.7092 6.04759 13.698 6.00003 13.6859L6.00011 12.1706C6.67029 11.7924 7.0409 11.6224 7.65684 11.4855C8.49554 11.2991 9.74302 11.1876 12.4509 10.9509L12.765 10.9234L13.0066 10.7207C14.4577 9.50312 15.2561 8.99757 15.9782 8.75484C16.7057 8.51028 17.434 8.50015 18.9091 8.50015C20.1956 8.50015 21.0844 8.67657 21.9552 9.01444C22.828 9.35308 23.6994 9.85751 24.9742 10.5955L25.3362 10.805L26.0911 10.871C26.0929 11.092 26.1102 11.4229 26.2647 11.809C26.3967 12.139 26.6079 12.4629 26.9091 12.8053L26.9092 13.46C26.5348 13.6615 26.3258 13.7475 26.1477 13.7941ZM8.04541 14.4546C8.04541 13.8772 8.51348 13.4092 9.09086 13.4092C9.66825 13.4092 10.1363 13.8772 10.1363 14.4546C10.1363 15.032 9.66825 15.5001 9.09086 15.5001C8.51348 15.5001 8.04541 15.032 8.04541 14.4546ZM21.9545 14.4546C21.9545 13.8772 22.4226 13.4092 23 13.4092C23.5774 13.4092 24.0454 13.8772 24.0454 14.4546C24.0454 15.032 23.5774 15.5001 23 15.5001C22.4226 15.5001 21.9545 15.032 21.9545 14.4546Z" fill="#000000" class="bmwfcol"/><path d="M9.64377 22.925C9.59891 23.1093 9.57513 23.302 9.57513 23.5002C9.57513 24.8395 10.6608 25.9252 12.0001 25.9252C13.3394 25.9252 14.4251 24.8395 14.4251 23.5002C14.4251 22.1609 13.3394 21.0752 12.0001 21.0752L6.50012 21.075C5.16089 21.075 4.07526 22.1609 4.07526 23.5002C4.07526 24.8395 5.16097 25.9252 6.50026 25.9252C7.83955 25.9252 8.92526 24.8395 8.92526 23.5002C8.92526 23.302 8.90148 23.1093 8.85662 22.925H9.64377ZM11.4251 23.5002C11.4251 23.1826 11.6826 22.9252 12.0001 22.9252C12.3177 22.9252 12.5751 23.1826 12.5751 23.5002C12.5751 23.8178 12.3177 24.0752 12.0001 24.0752C11.6826 24.0752 11.4251 23.8178 11.4251 23.5002ZM6.50026 22.9252C6.81782 22.9252 7.07526 23.1826 7.07526 23.5002C7.07526 23.8178 6.81782 24.0752 6.50026 24.0752C6.18269 24.0752 5.92526 23.8178 5.92526 23.5002C5.92526 23.1826 6.18269 22.9252 6.50026 22.9252Z" fill="#000000" class="bmwfcol"/><path d="M23.0748 23.5002C23.0748 23.302 23.0985 23.1093 23.1434 22.925H22.3563C22.4011 23.1093 22.4249 23.302 22.4249 23.5002C22.4249 24.8395 21.3392 25.9252 19.9999 25.9252C18.6606 25.9252 17.5749 24.8395 17.5749 23.5002C17.5749 22.1609 18.6605 21.0753 19.9998 21.0752L25.4998 21.075C26.839 21.075 27.9248 22.1609 27.9248 23.5002C27.9248 24.8395 26.8391 25.9252 25.4998 25.9252C24.1605 25.9252 23.0748 24.8395 23.0748 23.5002ZM25.4998 22.9252C25.1822 22.9252 24.9248 23.1826 24.9248 23.5002C24.9248 23.8178 25.1822 24.0752 25.4998 24.0752C25.8173 24.0752 26.0748 23.8178 26.0748 23.5002C26.0748 23.1826 25.8173 22.9252 25.4998 22.9252ZM19.4249 23.5002C19.4249 23.8178 19.6823 24.0752 19.9999 24.0752C20.3175 24.0752 20.5749 23.8178 20.5749 23.5002C20.5749 23.1826 20.3175 22.9252 19.9999 22.9252C19.6823 22.9252 19.4249 23.1826 19.4249 23.5002Z" fill="#000000" class="bmwfcol"/><path d="M4 17V18H28V17H30V21H28V20H4V21H2V17H4Z" fill="#000000" class="bmwfcol"/><title>vehicle_transport_wagon_rg_48</title></svg>