<svg width="48" height="48" viewBox="0 0 32 32" xmlns="http://www.w3.org/2000/svg"><path d="M17.9381 3.17348C16.7778 3.17323 15.852 3.17303 14.9124 3.48889C13.999 3.79594 13.1359 4.37532 11.9679 5.33972C9.86278 5.5238 8.68832 5.62939 7.84859 5.81602C6.90778 6.02512 6.358 6.34259 5.5042 6.83562L4.99972 7.12689L4.99951 11.2825L5.68514 11.4662C6.33935 11.6415 6.73121 11.74 7.0137 11.792C7.314 11.8473 7.49945 11.8512 7.69642 11.8515C8.15326 12.6999 9.04966 13.2765 10.0808 13.2765C11.1118 13.2765 12.0082 12.6999 12.4651 11.8515H18.9776C19.4344 12.6999 20.3308 13.2765 21.3619 13.2765C22.3935 13.2765 23.2903 12.6993 23.7469 11.8502C24.1072 11.8454 24.4444 11.8242 24.7955 11.7323C25.27 11.608 25.7239 11.3691 26.337 11.0151L26.7995 10.7481L26.7993 7.99027L26.5284 7.71937C26.2205 7.41149 26.135 7.24697 26.1098 7.18383C26.092 7.13947 26.0869 7.11814 26.0869 6.94846L26.0868 5.38833L24.188 5.22221L24.1572 5.20436C23.1085 4.5968 22.2337 4.09002 21.3391 3.74294C20.3488 3.35869 19.351 3.17349 18.0369 3.17349L17.9381 3.17348ZM24.3268 9.94266C24.2319 9.9675 24.1386 9.98199 24.0058 9.99038C23.7404 8.77445 22.6574 7.86408 21.3619 7.86408C20.0624 7.86408 18.9768 8.78003 18.7155 10.0015H12.7271C12.4658 8.78003 11.3803 7.86408 10.0808 7.86408C8.78627 7.86408 7.70406 8.77296 7.43746 9.98739C7.41098 9.98358 7.38212 9.97875 7.34881 9.97261C7.23606 9.95185 7.08342 9.91744 6.84958 9.85863L6.84967 8.1973C7.4141 7.87991 7.72941 7.73765 8.24997 7.62195C8.97589 7.46062 10.0575 7.36379 12.4177 7.15746L12.7083 7.13205L12.9317 6.94456C14.1947 5.88475 14.8834 5.45036 15.5019 5.24246C16.1254 5.03286 16.75 5.02349 18.0369 5.02349C19.1514 5.02349 19.9186 5.17617 20.67 5.46768C21.426 5.76102 22.1814 6.1983 23.294 6.84236L23.6171 7.02933L24.2377 7.08363C24.2419 7.27744 24.2651 7.55347 24.3921 7.87089C24.5079 8.16041 24.6913 8.44285 24.9494 8.7387L24.9494 9.67166C24.6432 9.83514 24.4718 9.90468 24.3268 9.94266ZM9.22452 10.5703C9.22452 10.0974 9.60787 9.71408 10.0808 9.71408C10.5536 9.71408 10.937 10.0974 10.937 10.5703C10.937 11.0432 10.5536 11.4265 10.0808 11.4265C9.60787 11.4265 9.22452 11.0432 9.22452 10.5703ZM20.5057 10.5703C20.5057 10.0974 20.889 9.71408 21.3619 9.71408C21.8348 9.71408 22.2181 10.0974 22.2181 10.5703C22.2181 11.0432 21.8348 11.4265 21.3619 11.4265C20.889 11.4265 20.5057 11.0432 20.5057 10.5703Z" fill="#000000" class="bmwfcol"/><path d="M6.93731 18H6.47475L8.47475 16H5.99988L2.99988 19L5.99988 22H8.47475L6.47475 20H6.93731C8.3033 20 8.97264 20.32 9.32856 20.7044C9.69935 21.1049 9.93732 21.7949 9.93732 23C9.93732 24.2051 9.69935 24.8951 9.32856 25.2956C8.97264 25.68 8.3033 26 6.93731 26H4.00006V28H6.93731C8.57132 28 9.90199 27.62 10.7961 26.6544C11.6753 25.7049 11.9373 24.3949 11.9373 23C11.9373 21.6051 11.6753 20.2951 10.7961 19.3456C9.90199 18.38 8.57132 18 6.93731 18Z" fill="#000000" class="bmwfcol"/><path d="M22.2366 19.7734C22.6634 19.2072 23.3016 18.9987 24.0315 18.9987C24.6129 18.9987 25.2112 19.1574 25.6366 19.5654C25.9579 19.8735 26.1191 20.2703 26.2018 20.7107C26.2836 21.1467 26.2923 21.6474 26.2923 22.1796C26.2923 23.2519 26.2554 24.0104 25.7242 24.6599C25.3089 25.1721 24.671 25.3457 24.0315 25.3457C23.401 25.3457 22.7928 25.2138 22.3596 24.7189C22.0788 24.3992 21.9387 24.0246 21.8678 23.6031C21.7979 23.1877 21.7929 22.7104 21.7929 22.1796C21.7929 21.7026 21.7982 21.2468 21.8527 20.8456C21.9072 20.4448 22.0139 20.0718 22.2358 19.7744L22.2366 19.7734ZM24.4765 23.6331C24.5596 23.5214 24.6137 23.3723 24.6442 23.133C24.6752 22.89 24.6793 22.5798 24.6793 22.1574C24.6793 21.7682 24.6772 21.4689 24.6511 21.228C24.6251 20.9884 24.5777 20.8331 24.5049 20.7211C24.4279 20.6038 24.2827 20.5301 24.0315 20.5301C23.8791 20.5301 23.7756 20.5533 23.7022 20.5933C23.6348 20.63 23.5718 20.6922 23.52 20.8148C23.4696 20.9352 23.4383 21.111 23.4221 21.3541C23.406 21.5945 23.4059 21.8766 23.4059 22.2019C23.4059 22.5949 23.4081 22.8975 23.435 23.1398C23.4617 23.3802 23.5103 23.5324 23.5831 23.6386C23.6656 23.7527 23.8135 23.8143 24.0315 23.8143C24.2363 23.8143 24.3914 23.748 24.4765 23.6331Z" fill="#000000" class="bmwfcol"/><path d="M16.885 23.588V25.133L17.0895 25.1708C17.4928 25.2455 18.0384 25.3457 18.76 25.3457C19.6404 25.3457 20.2783 25.1448 20.7158 24.673C21.0449 24.3254 21.1989 23.8127 21.1989 23.3297C21.1989 22.8683 21.0818 22.4799 20.7978 22.1509C20.7317 22.0725 20.6688 22.0076 20.6056 21.9506C20.6579 21.8731 20.7148 21.7866 20.7663 21.7057C20.9547 21.4119 21.1173 21.1439 21.1173 20.7179C21.1173 20.2647 20.954 19.8239 20.607 19.5033C20.2025 19.1261 19.6399 18.9987 18.8639 18.9987C18.3456 18.9987 17.5184 19.153 17.1332 19.2257L16.9295 19.2641V20.8065L17.2276 20.748C17.6136 20.6723 18.3442 20.5301 18.8416 20.5301C19.051 20.5301 19.1966 20.5412 19.3002 20.5622C19.3989 20.5822 19.4439 20.6083 19.4674 20.6284C19.4943 20.654 19.5023 20.6708 19.5069 20.6847C19.5136 20.7049 19.5191 20.738 19.5191 20.8069C19.5191 20.9046 19.4577 21.0254 19.279 21.2664L19.2782 21.2674L19.1743 21.4102H17.4489V22.9119H18.7006C19.0524 22.9119 19.2179 22.917 19.3561 22.9835C19.4568 23.0325 19.5087 23.0816 19.5376 23.1265C19.5659 23.1705 19.5859 23.2318 19.5859 23.3297C19.5859 23.5039 19.5425 23.6026 19.4538 23.6729C19.3434 23.7545 19.1323 23.8143 18.7377 23.8143C18.1616 23.8143 17.6403 23.722 17.1787 23.6401L16.885 23.588Z" fill="#000000" class="bmwfcol"/><path d="M18 14V15H25V14H27V15C27.5159 15 28.0414 15.1622 28.4396 15.5604C28.8378 15.9586 29 16.4841 29 17V27C29 27.5159 28.8378 28.0414 28.4396 28.4396C28.0414 28.8378 27.5159 29 27 29H16C15.4841 29 14.9586 28.8378 14.5604 28.4396C14.1622 28.0414 14 27.5159 14 27V17C14 16.4841 14.1622 15.9586 14.5604 15.5604C14.9586 15.1622 15.4841 15 16 15V14H18ZM27 17H16V27L27 27V17Z" fill="#000000" class="bmwfcol"/><title>vehicle_return_arrow_30_rg_48</title></svg>