<svg width="48" height="48" viewBox="0 0 32 32" xmlns="http://www.w3.org/2000/svg"><path d="M22 9.69527C21.7528 9.31596 21.479 8.93803 21.1886 8.6081C20.8602 8.23505 20.4436 7.84535 19.9543 7.62958L19.9531 7.62904C18.7213 7.08785 17.838 7 14 7C10.1617 7 9.27999 7.08791 8.0473 7.62887C7.55707 7.84408 7.13996 8.23404 6.81154 8.60701C6.46893 8.9961 6.14956 9.45208 5.8696 9.89837C5.68624 10.1907 5.51417 10.4878 5.35797 10.7728C5.04577 10.6524 4.7161 10.5868 4.36415 10.5499C3.85056 10.496 3.20766 10.4974 2.43398 10.4991C2.29363 10.4994 2.14897 10.4997 2 10.4997V12.4997C2.16191 12.4997 2.31383 12.4995 2.45671 12.4993L2.46044 12.4993C3.24544 12.498 3.75733 12.4972 4.15542 12.539C4.18303 12.5419 4.20951 12.5449 4.23493 12.5481C3.7618 12.9936 3.30848 13.4451 2.94468 13.8888C2.47466 14.4621 2 15.2011 2 16.0428V25H8V23.82C12.0547 24.0733 15.9453 24.0733 20 23.82V25H22V21.6744L20.9273 21.7526C16.2201 22.0958 11.7799 22.0958 7.0727 21.7526L6 21.6744V23H4V17.0309C5.17248 17.2842 6.40454 17.4164 8 17.5269V15.5219C6.56979 15.4201 5.50841 15.3021 4.53797 15.1006C4.86991 14.7054 5.31182 14.276 5.83335 13.792C5.86739 13.7691 5.95575 13.7227 6.16184 13.6757C6.44438 13.6113 6.86635 13.5636 7.51903 13.5345C8.50829 13.4905 9.89041 13.4932 11.881 13.4972C12.5218 13.4985 13.2258 13.4999 14 13.4999C14.7741 13.4999 15.478 13.4985 16.1187 13.4972C18.1088 13.4932 19.4907 13.4905 20.4793 13.5345C21.1316 13.5636 21.5531 13.6113 21.8352 13.6756C21.9017 13.6908 21.9559 13.7059 22 13.7202V9.69527ZM20.7839 11.5471C20.7134 11.5433 20.6415 11.5398 20.5683 11.5365C19.5291 11.4902 18.0795 11.4932 16.069 11.4972C15.4364 11.4985 14.7483 11.4999 14 11.4999C13.2521 11.4999 12.5637 11.4985 11.9313 11.4972C9.92044 11.4932 8.46991 11.4902 7.43013 11.5365C7.35737 11.5397 7.28594 11.5432 7.21583 11.547C7.32544 11.3528 7.44211 11.1552 7.56383 10.9612C7.8113 10.5667 8.06658 10.2081 8.31254 9.92875C8.57258 9.63344 8.75816 9.50108 8.85112 9.46023C9.63664 9.11551 10.0888 9 14 9C17.9106 9 18.3642 9.11552 19.1479 9.4598C19.2419 9.50144 19.4277 9.63459 19.6874 9.92959C19.9334 10.2091 20.1888 10.5678 20.4363 10.9622C20.5578 11.1559 20.6744 11.3532 20.7839 11.5471Z" fill="#000000" class="bmwfcol"/><path d="M22 15.337C21.409 15.4098 20.7561 15.4681 20 15.5219V17.5269C20.7337 17.4761 21.3905 17.4207 22 17.3511V15.337Z" fill="#000000" class="bmwfcol"/><path d="M10.0858 14.75H13.2361L14 15.132L14.7639 14.75H17.9142L19 15.8358V18.781L17.6458 21H14.3358L14 20.6642L13.6642 21H10.403L9 18.7907V15.8358L10.0858 14.75ZM11 16.75V18.2093L11.5021 19H12.8358L13 18.8358V16.868L12.7639 16.75H11ZM15 16.868V18.8358L15.1642 19H16.5233L17 18.219L17 16.75H15.2361L15 16.868Z" fill="#000000" class="bmwfcol"/><path d="M27.2378 9H30V7H24V9H26.7622L24 11.7622V14.2371L26 12.2371V19.7622L24 17.7622V20.2371L26.7629 23H24V25H30V23H27.2371L30 20.2371V17.7622L28 19.7622V12.2371L30 14.2371V11.7622L27.2378 9Z" fill="#000000" class="bmwfcol"/><title>vehicle-dimension-height_rg_48</title></svg>