<svg width="48" height="48" viewBox="0 0 32 32" xmlns="http://www.w3.org/2000/svg"><path d="M12.998 21H10.4626C10.22 19.3039 8.76129 18 6.99805 18C5.27971 18 3.8506 19.2383 3.55438 20.8712C3.40375 20.8358 3.2221 20.7907 2.99813 20.733L2.99826 18.5788C3.89555 18.0682 4.37888 17.836 5.19715 17.6541C6.24041 17.4223 7.78447 17.2848 11.0854 16.9962L11.3995 16.9688L11.6411 16.7661C13.4172 15.2757 14.4202 14.6338 15.345 14.3229C16.2754 14.0102 17.2048 14 18.9981 14C20.5944 14 21.7084 14.2196 22.8015 14.6436C23.8848 15.064 24.964 15.6887 26.5126 16.5853L26.922 16.8222L27.9981 16.9163L27.9981 17.0204C27.9979 17.2808 27.9977 17.6917 28.1946 18.1839C28.3518 18.5768 28.6115 18.9705 28.9981 19.3995L28.9982 20.4165L28.9182 20.4601L28.998 20.5V22.6428C29.4364 22.4632 29.9071 22.2074 30.4983 21.866L30.9984 21.5773L30.998 18.5858L30.7052 18.2929C30.2575 17.8452 30.1076 17.5812 30.0516 17.4411C30.0037 17.3214 29.9981 17.2408 29.9981 17L29.998 15.0836L27.5392 14.8685L27.4463 14.8147C25.9663 13.9574 24.758 13.2575 23.5249 12.7791C22.1735 12.2547 20.8103 12 18.9981 12L18.8847 12C17.2342 11.9998 15.9795 11.9996 14.7078 12.4271C13.4612 12.8462 12.2687 13.6468 10.5987 15.0311C7.57621 15.2954 5.93059 15.4423 4.76323 15.7018C3.48775 15.9853 2.75097 16.4107 1.54579 17.1066L0.998321 17.4226L0.998047 22.2707L1.73927 22.4693C2.65944 22.7159 3.19794 22.8509 3.58077 22.9214C3.66576 22.937 3.74356 22.9496 3.816 22.9596C4.36928 24.1638 5.58601 25 6.99805 25C8.39424 25 9.59949 24.1825 10.1612 23H12.998V21ZM6.99805 20C7.82647 20 8.49805 20.6716 8.49805 21.5C8.49805 22.3284 7.82647 23 6.99805 23C6.16962 23 5.49805 22.3284 5.49805 21.5C5.49805 20.6716 6.16962 20 6.99805 20Z" fill="#000000" class="bmwfcol"/><path d="M20.2476 24.9875L24.3663 20.8688L23.1289 19.6313L20.2476 22.5126L18.8663 21.1313L17.6289 22.3688L20.2476 24.9875Z" fill="#000000" class="bmwfcol"/><path d="M16.6659 17.6679C17.7537 16.5801 19.2708 16 20.998 16C22.7253 16 24.2424 16.5801 25.3302 17.6679C26.4179 18.7557 26.998 20.2728 26.998 22C26.998 23.3065 26.6151 24.5237 25.9279 25.5157L28.7052 28.293L27.291 29.7072L24.5182 26.9344C23.5606 27.605 22.3641 28 20.998 28C19.2708 28 17.7537 27.4199 16.6659 26.3321C15.5782 25.2443 14.998 23.7272 14.998 22C14.998 20.2728 15.5782 18.7557 16.6659 17.6679ZM18.0802 19.0821C17.4179 19.7443 16.998 20.7272 16.998 22C16.998 23.2728 17.4179 24.2557 18.0802 24.9179C18.7424 25.5801 19.7253 26 20.998 26C23.4144 26 24.998 24.241 24.998 22C24.998 20.7272 24.5782 19.7443 23.9159 19.0821C23.2537 18.4199 22.2708 18 20.998 18C19.7253 18 18.7424 18.4199 18.0802 19.0821Z" fill="#000000" class="bmwfcol"/><path d="M27 5V2H25V5L22 5V7H25V10H27V7H30V5L27 5Z" fill="#000000" class="bmwfcol"/><title>vehicle-check-plus_rg_48</title></svg>