<svg width="48" height="48" viewBox="0 0 32 32" xmlns="http://www.w3.org/2000/svg"><path d="M15.2361 10.75H12.0858L11 11.8358V14.7907L12.403 17H15.6642L16 16.6642L16.3358 17H19.6458L21 14.781V11.8358L19.9142 10.75H16.7639L16 11.132L15.2361 10.75ZM13 14.2093V12.75H14.7639L15 12.868V14.8358L14.8358 15H13.5021L13 14.2093ZM17 14.8358V12.868L17.2361 12.75H19L19 14.219L18.5233 15H17.1642L17 14.8358Z" fill="#000000" class="bmwfcol"/><path d="M10.0473 3.62887C11.28 3.08791 12.1617 3 16 3C19.838 3 20.7213 3.08785 21.9531 3.62904L21.9543 3.62958C22.4436 3.84535 22.8602 4.23505 23.1886 4.6081C23.5311 4.99717 23.8504 5.45297 24.1303 5.89909C24.3136 6.19115 24.4856 6.48807 24.6417 6.77277C24.954 6.65241 25.2837 6.58681 25.6355 6.54988C26.1492 6.49599 26.7922 6.4974 27.5659 6.49911C27.7063 6.49942 27.8509 6.49974 27.9999 6.49974V8.49974C27.8366 8.49974 27.6834 8.49949 27.5395 8.49926C26.7544 8.498 26.2424 8.49719 25.8443 8.53896C25.8167 8.54185 25.7904 8.5449 25.765 8.54809C26.2382 8.99361 26.6915 9.44506 27.0553 9.8888C27.5253 10.4621 28 11.2011 28 12.0428V21H22V19.82C17.9453 20.0733 14.0547 20.0733 10 19.82V21H4V12.0428C4 11.2011 4.47466 10.4621 4.94468 9.8888C5.30848 9.44507 5.7618 8.99364 6.23493 8.54813C6.20951 8.54492 6.18303 8.54186 6.15542 8.53896C5.75733 8.49719 5.24544 8.498 4.46044 8.49926L4.45926 8.49926C4.31588 8.49949 4.16256 8.49974 4 8.49974V6.49974C4.14897 6.49974 4.29363 6.49942 4.43398 6.49911C5.20766 6.4974 5.85056 6.49599 6.36415 6.54988C6.7161 6.58682 7.04577 6.65244 7.35797 6.77279C7.51417 6.48785 7.68624 6.19066 7.8696 5.89837C8.14956 5.45208 8.46893 4.9961 8.81154 4.60701C9.13996 4.23404 9.55707 3.84408 10.0473 3.62887ZM6.53797 11.1006C7.50841 11.3021 8.56979 11.4201 10 11.5219V13.5269C8.40454 13.4164 7.17248 13.2842 6 13.0309V19H8V17.6744L9.0727 17.7526C13.7799 18.0958 18.2201 18.0958 22.9273 17.7526L24 17.6744V19H26V13.0309C24.8275 13.2842 23.5955 13.4164 22 13.5269V11.5219C23.4302 11.4201 24.4916 11.3021 25.462 11.1006C25.1333 10.7092 24.6967 10.2843 24.1817 9.80597C24.1743 9.79915 24.1078 9.73783 23.8352 9.67565C23.5531 9.61127 23.1316 9.56357 22.4793 9.53453C21.4907 9.49051 20.1093 9.49325 18.1191 9.49719L18.1178 9.4972C17.4774 9.49846 16.7736 9.49986 16 9.49986C15.2258 9.49986 14.5218 9.49846 13.881 9.49719C11.8904 9.49325 10.5083 9.49051 9.51903 9.53453C8.86635 9.56357 8.44438 9.61128 8.16184 9.67569C7.95575 9.72266 7.8674 9.76913 7.83335 9.79197C7.31182 10.276 6.86991 10.7054 6.53797 11.1006ZM22.4363 6.96217C22.1888 6.5678 21.9334 6.20914 21.6874 5.92959C21.4277 5.63459 21.2419 5.50144 21.1479 5.4598C20.3642 5.11552 19.9106 5 16 5C12.0888 5 11.6366 5.11551 10.8511 5.46023C10.7582 5.50108 10.5726 5.63344 10.3125 5.92875C10.0666 6.20807 9.8113 6.56668 9.56383 6.96118C9.44211 7.15521 9.32544 7.35284 9.21583 7.54703C9.28594 7.54324 9.35737 7.53974 9.43013 7.53651C10.4699 7.49024 11.9205 7.49316 13.9314 7.4972C14.5637 7.49848 15.2521 7.49986 16 7.49986C16.7483 7.49986 17.4364 7.49848 18.069 7.4972C20.0795 7.49316 21.5291 7.49024 22.5683 7.53651C22.6415 7.53977 22.7134 7.54329 22.7839 7.54711C22.6744 7.35324 22.5578 7.15593 22.4363 6.96217Z" fill="#000000" class="bmwfcol"/><path d="M6 25.7627V23H4V29H6V26.2376L8.76244 29H11.2373L9.23731 27L22.7627 27L20.7627 29H23.2376L26 26.2376V29H28V23H26V25.7627L23.2373 23H20.7624L22.7624 25L9.23758 25L11.2376 23H8.76271L6 25.7627Z" fill="#000000" class="bmwfcol"/><title>vehicle-dimension-width_rg_48</title></svg>