<svg width="48" height="48" viewBox="0 0 32 32" xmlns="http://www.w3.org/2000/svg"><path d="M26.1321 26.1321C28.6199 23.6444 30 20.1273 30 16C30 11.8728 28.6199 8.3557 26.1321 5.86792L24.7179 7.28213C26.7801 9.34435 28 12.3273 28 16C28 19.6728 26.7801 22.6557 24.7179 24.7179L26.1321 26.1321Z" fill="#000000" class="bmwfcol"/><path d="M23.2321 23.2321C25.0199 21.4444 26 18.9273 26 16C26 13.0728 25.0199 10.5557 23.2321 8.76792L21.8179 10.1821C23.1801 11.5444 24 13.5273 24 16C24 18.4728 23.1801 20.4557 21.8179 21.8179L23.2321 23.2321Z" fill="#000000" class="bmwfcol"/><path d="M20.3321 20.3321C21.4199 19.2444 22 17.7273 22 16C22 14.2728 21.4199 12.7557 20.3321 11.6679L18.9179 13.0821C19.5801 13.7444 20 14.7273 20 16C20 17.2728 19.5801 18.2557 18.9179 18.9179L20.3321 20.3321Z" fill="#000000" class="bmwfcol"/><path d="M2 8.00003H3.42633L17.2797 16L3.42633 24H2V8.00003ZM4 10.6408V21.3592L13.2803 16L4 10.6408Z" fill="#000000" class="bmwfcol"/><title>video-stream_rg_48</title></svg>