<svg width="48" height="48" viewBox="0 0 32 32" xmlns="http://www.w3.org/2000/svg"><path d="M4 8V24H28V8H4ZM2.56039 6.56039C2.95856 6.16222 3.48408 6 4 6H28C28.5159 6 29.0414 6.16222 29.4396 6.56039C29.8378 6.95856 30 7.48408 30 8V24C30 24.5159 29.8378 25.0414 29.4396 25.4396C29.0414 25.8378 28.5159 26 28 26H4C3.48408 26 2.95856 25.8378 2.56039 25.4396C2.16222 25.0414 2 24.5159 2 24V8C2 7.48408 2.16222 6.95856 2.56039 6.56039Z" fill="#000000" class="bmwfcol"/><path d="M12 11.25H13.8L22 16L13.8 20.75H12V11.25ZM18 16L14 13.7V18.3L18 16Z" fill="#000000" class="bmwfcol"/><title>video_rg_48</title></svg>