<svg width="48" height="48" viewBox="0 0 32 32" xmlns="http://www.w3.org/2000/svg"><path d="M9 10H8.22852L4.99609 8.13379L4.76367 8H3V20H4.76367L4.99609 19.8662L8.22852 18H9V25H25.4141L25.707 24.707C27.2302 23.1838 28.1213 22.0471 28.5732 20.6914C29.0108 19.3789 29 17.9433 29 16C29 14.0567 29.0108 12.6211 28.5732 11.3086C28.1213 9.95294 27.2302 8.81617 25.707 7.29297L25.4141 7H9V10ZM24.5791 9C25.8488 10.3022 26.3988 11.1077 26.6768 11.9414C26.9891 12.8788 27 13.9435 27 16C27 18.0565 26.9891 19.1212 26.6768 20.0586C26.3988 20.8923 25.8488 21.6978 24.5791 23H11V9H24.5791ZM7.69141 12H9V16H7.69141L5 17.5537V10.4453L7.69141 12Z" fill="#000000" class="bmwfcol"/><title>video_camera_rg_48</title></svg>