<svg width="48" height="48" viewBox="0 0 32 32" xmlns="http://www.w3.org/2000/svg"><path d="M25.9893 23.4106C25.3839 23.8243 24.721 24.1899 24.0063 24.5063L22.4712 22.9712C23.3712 22.6383 24.1707 22.2311 24.8607 21.7594C26.8866 20.3747 28 18.4222 28 16C28 13.5778 26.8866 11.6253 24.8607 10.2406C22.8019 8.83335 19.7691 8 16 8C12.2309 8 9.1981 8.83335 7.13929 10.2406C5.11338 11.6253 4 13.5778 4 16C4 18.4222 5.11338 20.3747 7.13929 21.7594C9.1981 23.1667 12.2309 24 16 24H17.7618L13.7618 20H16.2367L21.2366 24.9999L16.2366 30H13.7617L17.7617 26H16C11.9691 26 8.5019 25.1133 6.01071 23.4106C3.48662 21.6853 2 19.1378 2 16C2 12.8622 3.48662 10.3147 6.01071 8.58943C8.5019 6.88665 11.9691 6 16 6C20.0309 6 23.4981 6.88665 25.9893 8.58943C28.5134 10.3147 30 12.8622 30 16C30 19.1378 28.5134 21.6853 25.9893 23.4106Z" fill="#000000" class="bmwfcol"/><title>view_rg_48</title></svg>