<svg width="48" height="48" viewBox="0 0 32 32" xmlns="http://www.w3.org/2000/svg"><path d="M16 13H19.5V11H16V13Z" fill="#000000" class="bmwfcol"/><path d="M19 5.00002C20.8122 5.00002 22.1754 5.25471 23.5269 5.77906C24.76 6.25748 25.9682 6.95739 27.4483 7.81475L27.5411 7.86853L29.9999 8.08365L30 9.99997C30 10.2408 30.0056 10.3214 30.0535 10.4411C30.1095 10.5812 30.2594 10.8452 30.7071 11.2929L31 11.5858L31.0003 14.5773L30.5002 14.866C29.6385 15.3636 29.0328 15.6793 28.4102 15.8424C27.9981 15.9503 27.6002 15.9845 27.1655 15.9952C26.6047 17.1803 25.3981 18 24 18C22.6038 18 21.3986 17.1825 20.8368 16H10.1632C9.60144 17.1825 8.39619 18 7 18C5.58797 18 4.37123 17.1638 3.81795 15.9596C3.74551 15.9496 3.66771 15.937 3.58273 15.9214C3.19989 15.8509 2.66139 15.7159 1.74122 15.4693L1 15.2707L1.00027 10.4226L1.54774 10.1066C2.75292 9.41068 3.4897 8.98525 4.76518 8.70177C5.93254 8.44232 7.57816 8.2954 10.6006 8.03115C12.2706 6.6468 13.4632 5.84618 14.7097 5.42714C15.9815 4.99962 17.2361 4.99979 18.8866 5.00001L19 5.00002ZM27.4615 13.9791C27.6313 13.9656 27.7663 13.9436 27.9035 13.9076C28.164 13.8394 28.463 13.7113 29.0002 13.4165L29.0001 12.3995C28.6134 11.9705 28.3537 11.5768 28.1966 11.1839C27.9997 10.6917 27.9999 10.2808 28 10.0204L28 9.91632L26.9239 9.82217L26.5146 9.58525C24.966 8.68872 23.8868 8.06395 22.8035 7.64364C21.7104 7.21955 20.5964 7.00002 19 7.00002C17.2068 7.00002 16.2773 7.01015 15.347 7.3229C14.4221 7.6338 13.4192 8.27572 11.643 9.76607L11.4015 9.96876L11.0873 9.99623C7.78642 10.2848 6.24237 10.4223 5.19911 10.6541C4.38084 10.836 3.89751 11.0682 3.00021 11.5788L3.00009 13.733C3.22405 13.7907 3.40571 13.8358 3.55633 13.8712C3.85255 12.2383 5.28167 11 7 11C8.76324 11 10.222 12.3039 10.4646 14H20.5354C20.778 12.3039 22.2368 11 24 11C25.756 11 27.2099 12.2931 27.4615 13.9791ZM7 13C6.17157 13 5.5 13.6716 5.5 14.5C5.5 15.3284 6.17157 16 7 16C7.82843 16 8.5 15.3284 8.5 14.5C8.5 13.6716 7.82843 13 7 13ZM24 13C23.1716 13 22.5 13.6716 22.5 14.5C22.5 15.3284 23.1716 16 24 16C24.8284 16 25.5 15.3284 25.5 14.5C25.5 13.6716 24.8284 13 24 13Z" fill="#000000" class="bmwfcol"/><path d="M8.93958 22.0051H10.5823L11.932 25.8798L13.2885 22.0051H14.9087L12.77 27.9998H11.0783L8.93958 22.0051Z" fill="#000000" class="bmwfcol"/><path d="M15.106 22.0051H16.619V27.9998H15.106V22.0051Z" fill="#000000" class="bmwfcol"/><path d="M18.9881 22.0051H17.4726V27.9998H18.9707V24.785L20.8906 27.9998H22.4062V22.0051H20.908V25.2198L18.9881 22.0051Z" fill="#000000" class="bmwfcol"/><title>vin_rg_48</title></svg>