<svg width="48" height="48" viewBox="0 0 32 32" xmlns="http://www.w3.org/2000/svg"><path d="M4.54332 20H2.47245C2.16111 18.749 2 17.4101 2 16C2 11.8728 3.38011 8.35567 5.86789 5.86789C8.35567 3.38011 11.8728 2 16 2C20.1272 2 23.6443 3.38011 26.1321 5.86789C28.6199 8.35567 30 11.8728 30 16C30 17.4101 29.8389 18.749 29.5275 20H27.4567C27.8112 18.7828 28 17.4448 28 16C28 12.3272 26.7801 9.34433 24.7179 7.28211C22.6557 5.21989 19.6728 4 16 4C12.3272 4 9.34433 5.21989 7.28211 7.28211C5.21989 9.34433 4 12.3272 4 16C4 17.4448 4.18877 18.7828 4.54332 20Z" fill="#000000" class="bmwfcol"/><path d="M19.1132 14.301L23.7072 9.70708L22.2929 8.29287L17.699 12.8868C17.1919 12.6298 16.6127 12.5 16 12.5C15.0228 12.5 14.1307 12.8301 13.4804 13.4804C12.8301 14.1307 12.5 15.0228 12.5 16C12.5 16.9772 12.8301 17.8693 13.4804 18.5196C14.1307 19.1699 15.0228 19.5 16 19.5C18.0836 19.5 19.5 17.9011 19.5 16C19.5 15.3873 19.3703 14.8082 19.1132 14.301ZM14.5 16C14.5 15.4772 14.6699 15.1193 14.8946 14.8946C15.1193 14.6699 15.4772 14.5 16 14.5C16.5228 14.5 16.8807 14.6699 17.1054 14.8946C17.3301 15.1193 17.5 15.4772 17.5 16C17.5 16.8603 16.9164 17.5 16 17.5C15.4772 17.5 15.1193 17.3301 14.8946 17.1054C14.6699 16.8807 14.5 16.5228 14.5 16Z" fill="#000000" class="bmwfcol"/><path d="M3.61228 21.9051H5.25498L6.60475 25.7798L7.96124 21.9051H9.58144L7.44275 27.8998H5.75097L3.61228 21.9051Z" fill="#000000" class="bmwfcol"/><path d="M9.7787 21.9051H11.5416L12.7835 24.7447L14.0253 21.9051H15.766V27.8998H14.2826V24.7453L13.3891 26.7868H12.1555L11.262 24.7453V27.8998H9.7787V21.9051Z" fill="#000000" class="bmwfcol"/><path d="M19.9313 21.9051H18.1969L16.0185 27.8998H17.632L17.9956 26.8833H20.1115L20.4825 27.8998H22.1177L19.9313 21.9051ZM18.4782 25.437L19.0428 23.8274L19.6123 25.437H18.4782Z" fill="#000000" class="bmwfcol"/><path d="M22.2976 21.9051H24.106L25.3278 23.748L26.5632 21.9051H28.3447L26.3909 24.7998L28.4364 27.8998H26.6288L25.3251 25.9169L23.994 27.8998H22.2125L24.2625 24.8644L22.2976 21.9051Z" fill="#000000" class="bmwfcol"/><title>vmax_rg_48</title></svg>