<svg width="48" height="48" viewBox="0 0 32 32" xmlns="http://www.w3.org/2000/svg"><path d="M14 3C14.3823 3 14.7379 3.00128 15.0689 3.00386L13.7856 5.00014C11.6093 5.00307 10.4413 5.05106 9.78503 5.13082C9.44791 5.17179 9.3053 5.21489 9.25279 5.23568C9.24864 5.23732 9.24556 5.23803 9.24556 5.23803C9.24556 5.23803 9.24434 5.23988 9.24211 5.24211C9.12278 5.36144 9 5.58592 9 6V18C9 18.4141 9.12278 18.6386 9.24211 18.7579C9.24434 18.7601 9.24556 18.762 9.24556 18.762L9.24873 18.7628L9.25279 18.7643C9.3053 18.7851 9.44791 18.8282 9.78503 18.8692C10.4625 18.9515 11.6854 19 14 19C15.6623 19 16.7615 18.975 17.5 18.9304V20.9336C16.8722 20.9683 16.0604 20.989 15 20.9967L15 22.7742C15 23.9792 14.5796 25.0564 13.7788 25.8315C13.1474 26.4425 12.3292 26.8181 11.412 26.9483C11.255 27.732 10.8655 28.4652 10.0689 29.0162C9.05761 29.7156 7.54665 30 5.5 30H4.5L4.5 29H1.5V27H4.5L4.5 25H1.5V23H4.5L4.5 22H5.5C7.54665 22 9.05761 22.2844 10.0689 22.9838C10.8211 23.5041 11.2103 24.1868 11.3836 24.9211C11.8093 24.8206 12.143 24.6313 12.3879 24.3943C12.7537 24.0403 13 23.5046 13 22.7742L13 20.9967C11.2943 20.9844 10.2319 20.9382 9.54372 20.8546C9.13521 20.8049 8.79939 20.7358 8.51674 20.624C8.19795 20.4978 7.99053 20.3347 7.82789 20.1721C7.25722 19.6014 7 18.8259 7 18V6C7 5.17408 7.25722 4.39856 7.82789 3.82789C7.99053 3.66526 8.19795 3.50222 8.51674 3.37604C8.79939 3.26417 9.13521 3.19508 9.54372 3.14543C10.3575 3.04652 11.6946 3 14 3ZM6.5 24.029L6.5 27.971C7.80661 27.8894 8.53402 27.646 8.93115 27.3713C9.31841 27.1035 9.5 26.7284 9.5 26C9.5 25.2716 9.31841 24.8965 8.93115 24.6287C8.53402 24.354 7.80661 24.1106 6.5 24.029Z" fill="#000000" class="bmwfcol"/><path d="M25.5454 12.0519V11.6976C25.5454 11.0567 25.3274 10.4449 24.8734 9.99085C24.4193 9.53679 23.8075 9.31879 23.1667 9.31879C22.5215 9.31879 21.9191 9.53915 21.4626 9.97579C21.0102 10.4085 20.7652 10.9917 20.711 11.6104C20.5765 13.1488 20.3996 15.1677 20.2565 16.802L19.9884 19.8618L21.2313 24.5006H23.3018L22.0116 19.6849L22.2488 16.9765C22.392 15.3422 22.5688 13.3232 22.7034 11.7847C22.7216 11.5774 22.7926 11.4712 22.845 11.4211C22.8934 11.3748 22.9846 11.3188 23.1667 11.3188C23.353 11.3188 23.4307 11.3766 23.4592 11.4051C23.4877 11.4336 23.5454 11.5112 23.5454 11.6976V18.1976H25.5454V16.0519L26.7603 13.9478L27.7777 14.9653C28.5402 15.7278 28.5661 15.815 28.5831 15.9828C28.5968 16.1186 28.5831 16.3512 28.4835 16.8189C28.3853 17.2799 28.2252 17.8781 27.9978 18.7266L26.697 23.5811V24.5006H28.697L28.697 23.8442L29.9408 19.2028C30.1571 18.3955 30.3299 17.7508 30.4396 17.2355C30.5498 16.7182 30.6189 16.2369 30.573 15.782C30.4767 14.8286 29.8847 14.24 29.3018 13.6605C29.2651 13.624 29.2284 13.5876 29.1919 13.5511L27.7955 12.1547L28.5592 10.8319C28.7843 10.4421 28.8975 9.96184 28.7652 9.46792C28.6328 8.97399 28.2947 8.61471 27.9048 8.38963L19.0346 3.26841C18.6448 3.04333 18.1645 2.93013 17.6706 3.06247C17.1767 3.19482 16.8174 3.53297 16.5923 3.92282L14.8416 6.95515H17.151L18.2183 5.10653L26.7211 10.0156L25.5454 12.0519Z" fill="#000000" class="bmwfcol"/><path d="M17.2697 8.44032L19.0074 7.43705C19.6572 8.77055 20 10.3146 20 12.0006C20 13.6867 19.6572 15.2307 19.0074 16.5642L17.2697 15.5609C17.7391 14.5472 18 13.3527 18 12.0006C18 10.6486 17.7391 9.45403 17.2697 8.44032Z" fill="#000000" class="bmwfcol"/><path d="M16.3575 15.0343C16.78 14.137 17 13.1099 17 12.0006C17 10.8914 16.78 9.86423 16.3575 8.96698L14.6164 9.9722C14.8621 10.5513 15 11.2298 15 12.0006C15 12.7715 14.8621 13.4499 14.6164 14.0291L16.3575 15.0343Z" fill="#000000" class="bmwfcol"/><path d="M13.705 13.5029C13.9011 13.0448 14 12.5354 14 12.0006C14 11.4658 13.9011 10.9565 13.705 10.4984L12 11.4828V12.5185L13.705 13.5029Z" fill="#000000" class="bmwfcol"/><title>wallbox_and_card_rg_48</title></svg>