<svg width="48" height="48" viewBox="0 0 32 32" xmlns="http://www.w3.org/2000/svg"><path d="M11 4C8.69461 4 7.35751 4.04652 6.54372 4.14543C6.13521 4.19508 5.79939 4.26417 5.51674 4.37604C5.19795 4.50222 4.99053 4.66526 4.82789 4.82789C4.25722 5.39856 4 6.17408 4 7V19C4 19.8259 4.25722 20.6014 4.82789 21.1721C4.99053 21.3347 5.19795 21.4978 5.51674 21.624C5.79939 21.7358 6.13521 21.8049 6.54372 21.8546C7.23189 21.9382 8.29429 21.9844 10 21.9967H10.0553C10.1321 21.3041 10.2875 20.6353 10.5124 19.9992C8.5105 19.9928 7.41325 19.9455 6.78503 19.8692C6.44791 19.8282 6.3053 19.7851 6.25279 19.7643L6.24722 19.7623L6.24556 19.762C6.24556 19.762 6.24434 19.7601 6.24211 19.7579C6.12278 19.6386 6 19.4141 6 19V7C6 6.58592 6.12278 6.36144 6.24211 6.24211C6.24434 6.23988 6.24556 6.23803 6.24556 6.23803C6.24556 6.23803 6.24864 6.23732 6.25279 6.23568C6.3053 6.21489 6.44791 6.17179 6.78503 6.13082C7.46249 6.04848 8.68539 6 11 6C13.3146 6 14.5375 6.04848 15.215 6.13082C15.5521 6.17179 15.6947 6.21489 15.7472 6.23568C15.7514 6.23732 15.7544 6.23803 15.7544 6.23803C15.7544 6.23803 15.7557 6.23988 15.7579 6.24211C15.8772 6.36144 16 6.58592 16 7V14.5121C16.6368 14.287 17.3065 14.1316 18 14.0549V7C18 6.17408 17.7428 5.39856 17.1721 4.82789C17.0095 4.66526 16.8021 4.50222 16.4833 4.37604C16.2006 4.26417 15.8648 4.19508 15.4563 4.14543C14.6425 4.04652 13.3054 4 11 4Z" fill="#000000" class="bmwfcol"/><path fill-rule="evenodd" clip-rule="evenodd" d="M26 17.3427C25.4298 16.638 24.7553 16.0211 24 15.5155V13.9013C23.2358 13.7377 22.5227 13.348 21.9838 12.5689C21.2844 11.5576 21 10.0467 21 8V7H22V4H24V7H26V4H28V7H29V8C29 10.0467 28.7156 11.5576 28.0162 12.5689C27.4773 13.348 26.7642 13.7377 26 13.9013V17.3427ZM23.6287 11.4311C23.354 11.034 23.1106 10.3066 23.029 9H26.971C26.8894 10.3066 26.646 11.034 26.3713 11.4311C26.1035 11.8184 25.7284 12 25 12C24.2716 12 23.8965 11.8184 23.6287 11.4311Z" fill="#000000" class="bmwfcol"/><path d="M18.175 26H16.325V20H18.175V26Z" fill="#000000" class="bmwfcol"/><path d="M19.825 26H21.675V20H19.825V26Z" fill="#000000" class="bmwfcol"/><path fill-rule="evenodd" clip-rule="evenodd" d="M12 23C12 19.134 15.134 16 19 16C22.866 16 26 19.134 26 23C26 26.866 22.866 30 19 30C15.134 30 12 26.866 12 23ZM19 18C16.2386 18 14 20.2386 14 23C14 25.7614 16.2386 28 19 28C21.7614 28 24 25.7614 24 23C24 20.2386 21.7614 18 19 18Z" fill="#000000" class="bmwfcol"/><path d="M9 13V8.5H11V11H13V14.5H14.3662L12 18.4436L9.63381 14.5H11V13H9Z" fill="#000000" class="bmwfcol"/><title>wallbox_pause_rg_48</title></svg>