<svg width="48" height="48" viewBox="0 0 32 32" xmlns="http://www.w3.org/2000/svg"><path d="M6.54372 4.14543C7.35751 4.04652 8.69461 4 11 4C13.3054 4 14.6425 4.04652 15.4563 4.14543C15.8648 4.19508 16.2006 4.26417 16.4833 4.37604C16.8021 4.50222 17.0095 4.66526 17.1721 4.82789C17.7428 5.39856 18 6.17408 18 7V14.0722C17.269 14.2111 16.5709 14.5502 16 15.0896V7C16 6.58592 15.8772 6.36144 15.7579 6.24211C15.7557 6.23988 15.7544 6.23803 15.7544 6.23803C15.7544 6.23803 15.7514 6.23732 15.7472 6.23568C15.6947 6.21489 15.5521 6.17179 15.215 6.13082C14.5375 6.04848 13.3146 6 11 6C8.68539 6 7.46249 6.04848 6.78503 6.13082C6.44791 6.17179 6.3053 6.21489 6.25279 6.23568C6.24864 6.23732 6.24556 6.23803 6.24556 6.23803C6.24556 6.23803 6.24434 6.23988 6.24211 6.24211C6.12278 6.36144 6 6.58592 6 7V19C6 19.4141 6.12278 19.6386 6.24211 19.7579C6.24434 19.7601 6.24556 19.762 6.24556 19.762L6.24722 19.7623L6.25279 19.7643C6.3053 19.7851 6.44791 19.8282 6.78503 19.8692C7.46249 19.9515 8.68539 20 11 20C11.7752 20 12.428 19.9946 12.9788 19.9842L10.2195 24.7634C10.0743 24.2092 10 23.6181 10 23V21.9967C8.29429 21.9844 7.23189 21.9382 6.54372 21.8546C6.13521 21.8049 5.79939 21.7358 5.51674 21.624C5.19795 21.4978 4.99053 21.3347 4.82789 21.1721C4.25722 20.6014 4 19.8259 4 19V7C4 6.17408 4.25722 5.39856 4.82789 4.82789C4.99053 4.66526 5.19795 4.50222 5.51674 4.37604C5.79939 4.26417 6.13521 4.19508 6.54372 4.14543Z" fill="#000000" class="bmwfcol"/><path d="M26 22.4822V13.9013C26.7642 13.7377 27.4773 13.348 28.0162 12.5689C28.7156 11.5576 29 10.0467 29 8V7H28V4H26V7H24V4H22V7H21V8C21 10.0467 21.2844 11.5576 21.9838 12.5689C22.5227 13.348 23.2358 13.7377 24 13.9013V19.0181L26 22.4822ZM26.971 9C26.8894 10.3066 26.646 11.034 26.3713 11.4311C26.1035 11.8184 25.7284 12 25 12C24.2716 12 23.8965 11.8184 23.6287 11.4311C23.354 11.034 23.1106 10.3066 23.029 9H26.971Z" fill="#000000" class="bmwfcol"/><path d="M9 8.5V13H11V14.5H9.63381L12 18.4436L14.3662 14.5H13V11H11V8.5H9Z" fill="#000000" class="bmwfcol"/><path d="M17.9724 21V24.5H19.8224V21H17.9724Z" fill="#000000" class="bmwfcol"/><path d="M17.9724 25.5V27H19.8224V25.5H17.9724Z" fill="#000000" class="bmwfcol"/><path d="M16.9987 17.0217C17.7852 15.6594 19.7515 15.6594 20.5381 17.0217L26.2614 26.9348C27.0479 28.2971 26.0647 30 24.4916 30H13.0451C11.472 30 10.4888 28.2971 11.2754 26.9348L16.9987 17.0217ZM18.7404 18.0084C18.7404 18.0084 18.7355 18.0134 18.7307 18.0217L13.0074 27.9348C13.0026 27.9431 13.0007 27.9499 13.0007 27.9499L13.0002 27.9532L13 27.9553C13.0001 27.9595 13.0015 27.9681 13.0074 27.9783C13.0133 27.9885 13.02 27.9939 13.0236 27.9961L13.0256 27.9971L13.0286 27.9983C13.0286 27.9983 13.0355 28 13.0451 28H24.4916C24.5013 28 24.5081 27.9983 24.5081 27.9983L24.5112 27.9971L24.5131 27.9961C24.5167 27.9939 24.5234 27.9884 24.5293 27.9783C24.5352 27.9681 24.5366 27.9595 24.5367 27.9553L24.5365 27.9526L24.536 27.9499C24.536 27.9499 24.5341 27.9431 24.5293 27.9348L18.806 18.0217C18.8012 18.0134 18.7963 18.0084 18.7963 18.0084L18.794 18.0065L18.7919 18.0051C18.7882 18.003 18.7801 18 18.7684 18C18.7566 18 18.7485 18.003 18.7448 18.0051L18.7426 18.0066L18.7404 18.0084Z" fill="#000000" class="bmwfcol"/><title>wallbox_warning_rg_48</title></svg>