<svg width="48" height="48" viewBox="0 0 32 32" xmlns="http://www.w3.org/2000/svg"><path d="M16.8402 5.83398C16.4553 5.16732 15.493 5.16732 15.1081 5.83398L4.13845 24.834C3.75355 25.5006 4.23468 26.334 5.00448 26.334H26.9438C27.7136 26.334 28.1947 25.5006 27.8098 24.834L16.8402 5.83398ZM13.3761 4.83398C14.5308 2.83398 17.4175 2.83398 18.5722 4.83398L29.5419 23.834C30.6966 25.834 29.2532 28.334 26.9438 28.334H5.00448C2.69507 28.334 1.2517 25.834 2.4064 23.834L13.3761 4.83398Z" fill="#000000" class="bmwfcol"/><path d="M14.9741 11.834H16.9741V19.834H14.9741V11.834Z" fill="#000000" class="bmwfcol"/><path d="M14.9741 21.834H16.9741V23.834H14.9741V21.834Z" fill="#000000" class="bmwfcol"/><title>warning-sign_rg_48</title></svg>