<svg width="48" height="48" viewBox="0 0 32 32" xmlns="http://www.w3.org/2000/svg"><path d="M16.0001 5.54156L20.0122 12.4908H11.9879L16.0001 5.54156ZM16.0001 9.24157L15.1922 10.6408H16.8079L16.0001 9.24157Z" fill="#000000" class="bmwfcol"/><path d="M13.898 2.58638C14.8322 0.968272 17.1677 0.968278 18.102 2.58639L23.4713 11.8864C24.4055 13.5045 23.2378 15.5271 21.3693 15.5271H10.6306C8.76218 15.5271 7.59441 13.5045 8.52863 11.8864L13.898 2.58638ZM16.3229 3.61355C16.1794 3.36499 15.8206 3.365 15.6771 3.61355L10.3077 12.9136C10.1642 13.1621 10.3436 13.4728 10.6306 13.4728H21.3693C21.6563 13.4728 21.8357 13.1621 21.6922 12.9136L16.3229 3.61355Z" fill="#000000" class="bmwfcol"/><path d="M29.7073 16.2927C29.3996 15.9851 28.9703 15.6298 28.3683 15.403C27.7593 15.1736 27.0434 15.1017 26.1992 15.2526C24.7372 15.5138 22.8561 16.4491 20.3112 18.4569C19.9401 18.1456 19.4742 17.9999 19 17.9999L14.1319 17.9999L10.3999 16.9999L10.1895 16.9998C9.6121 16.999 9.03821 16.9982 8.38659 17.3969C8.09317 17.5765 7.8062 17.8207 7.49345 18.1129C7.17993 18.4058 6.79508 18.7906 6.30669 19.279L1.58582 23.9999L7.58582 29.9999H9.41424L11.4142 27.9999H15.0287C16.0043 27.9999 16.7763 27.9999 17.3964 27.9673C18.0254 27.9342 18.5664 27.8652 19.0664 27.6986C20.0439 27.3728 20.7035 26.7122 21.589 25.8255L30.4146 16.9998L29.7073 16.2927ZM13.8686 19.9999L19 19.9999L19.0001 20.5775C18.215 21.3182 17.6684 21.6397 17.1839 21.8012C16.6157 21.9907 16.0357 21.9999 15.0003 21.9999H11V23.9999L15.0816 23.9999C16.0167 24.0002 16.911 24.0004 17.8164 23.6986C18.7737 23.3795 19.6532 22.7609 20.7071 21.707L20.9999 21.4142L21.0001 20.4697C23.7542 18.2109 25.4853 17.4118 26.551 17.2214C26.9035 17.1584 27.1747 17.1636 27.386 17.2L20.2932 24.2928C19.2395 25.3464 18.9135 25.6414 18.4339 25.8012C18.1838 25.8846 17.8497 25.9406 17.2913 25.97C16.7299 25.9996 16.0107 25.9999 15 25.9999H10.5858L8.58582 27.9999H8.41424L4.41424 23.9999L7.70714 20.707C8.2122 20.202 8.57307 19.8413 8.85874 19.5744C9.14812 19.3041 9.31542 19.1733 9.43053 19.1029C9.55683 19.0256 9.59838 19.003 10.1378 19.0002L13.8686 19.9999Z" fill="#000000" class="bmwfcol"/><title>warning_triangle_on_hand_rg_48</title></svg>