<svg width="48" height="48" viewBox="0 0 32 32" xmlns="http://www.w3.org/2000/svg"><path d="M27.5942 14C28.0349 13.5391 28.4068 13.0691 28.7166 12.5857C29.7007 11.0504 30 9.47114 30 7.81818V2H16V7.81818C16 8.56513 16.0611 9.29702 16.2189 10.0166C17.057 10.0343 17.7323 10.0701 18.3209 10.1404C18.0901 9.42098 18 8.65949 18 7.81818V4H28V7.81818C28 9.20885 27.7539 10.3814 27.0328 11.5065C26.5178 12.3101 25.7323 13.1334 24.5358 14H27.5942Z" fill="#000000" class="bmwfcol"/><path d="M26.7072 7.70718L22.0001 12.4143L19.293 9.70718L20.7072 8.29297L22.0001 9.58586L25.293 6.29297L26.7072 7.70718Z" fill="#000000" class="bmwfcol"/><path d="M13.2361 19.75H10.0858L9 20.8358V23.7907L10.403 26H13.6642L14 25.6642L14.3358 26H17.6458L19 23.781V20.8358L17.9142 19.75H14.7639L14 20.132L13.2361 19.75ZM11 23.2093V21.75H12.7639L13 21.868V23.8358L12.8358 24H11.5021L11 23.2093ZM15 23.8358V21.868L15.2361 21.75H17L17 23.219L16.5233 24H15.1642L15 23.8358Z" fill="#000000" class="bmwfcol"/><path d="M8.0473 12.6289C9.27999 12.0879 10.1617 12 14 12C17.838 12 18.7213 12.0878 19.9531 12.629C20.9378 13.0623 21.5788 14.0202 22.1303 14.8991C22.3136 15.1912 22.4857 15.4882 22.6419 15.773C22.9539 15.6528 23.2834 15.5873 23.6351 15.5504C24.4196 15.468 25.2118 15.5002 25.9994 15.5002V17.5002C25.2562 17.5002 24.5052 17.4553 23.7654 17.5485C24.2384 17.9939 24.6916 18.4452 25.0553 18.8888C25.5253 19.4621 26 20.2011 26 21.0428V30H20V28.82C15.9453 29.0733 12.0547 29.0733 8 28.82V30H2V21.0428C2 20.2011 2.47466 19.4621 2.94468 18.8888C3.30848 18.4451 3.7618 17.9936 4.23493 17.5481C3.49577 17.4547 2.74354 17.4997 2 17.4997V15.4997C2.97013 15.4997 3.7574 15.4862 4.36415 15.5499C4.7161 15.5868 5.04577 15.6524 5.35797 15.7728C5.51417 15.4878 5.68624 15.1907 5.8696 14.8984C6.41024 14.0365 7.08315 13.0521 8.0473 12.6289ZM20.4363 15.9622C20.1283 15.4715 19.7088 14.7083 19.1479 14.4598C18.3642 14.1155 17.9106 14 14 14C10.0888 14 9.63664 14.1155 8.85112 14.4602C8.29072 14.7065 7.87075 15.4719 7.56383 15.9612C7.44211 16.1552 7.32543 16.3529 7.21581 16.5471C8.78467 16.4622 10.3612 16.494 11.9315 16.4972C13.3109 16.5009 14.6903 16.5 16.0696 16.4972C17.6395 16.494 19.2155 16.4621 20.7839 16.5471C20.6744 16.3532 20.5578 16.1559 20.4363 15.9622ZM4.53832 20.1002C5.50867 20.3017 6.56996 20.4196 8 20.5214V22.5264C6.40454 22.416 5.17248 22.2837 4 22.0304V28H6V26.6744L7.0727 26.7526C11.7799 27.0958 16.2201 27.0958 20.9273 26.7526L22 26.6744V28H24V22.0314C22.8275 22.2847 21.5955 22.4169 20 22.5274V20.5224C21.4304 20.4206 22.4919 20.3026 23.4624 20.1011C23.0443 19.6032 22.5056 18.8284 21.8358 18.6756C21.5537 18.6113 21.1322 18.5636 20.4799 18.5345C19.0276 18.4699 17.5702 18.4941 16.117 18.4972C14.7052 18.4972 13.2934 18.5 11.8816 18.4972C9.89102 18.4932 8.5089 18.4905 7.51964 18.5345C6.86696 18.5636 6.44499 18.6113 6.16245 18.6757C5.49588 18.8276 4.95524 19.6039 4.53832 20.1002Z" fill="#000000" class="bmwfcol"/><title>warranty_rg_48</title></svg>