<svg width="48" height="48" viewBox="0 0 32 32" xmlns="http://www.w3.org/2000/svg"><path d="M17 5V7H7.60712L8.49913 27.4303V28H13.9991C14.5098 28 14.854 27.9997 15.1184 27.9858C15.1998 27.9815 15.267 27.9761 15.3228 27.9702C15.1156 27.5232 15 27.0251 15 26.5C15 24.8441 16.1499 23.4568 17.6948 23.0931L17.8989 19H19.9014L19.6916 23.2081C21.0379 23.6955 22 24.9854 22 26.5C22 28.433 20.433 30 18.5 30C17.8691 30 17.2773 29.8331 16.7661 29.541C16.5925 29.6554 16.4035 29.7526 16.1904 29.8237C15.878 29.9278 15.5557 29.9655 15.2236 29.983C14.9002 30 14.5031 30 14.0257 30H6.49913V27.4739L5.60522 7H4V5H4.96505L5.0344 4.74118C5.16887 4.23931 5.33727 3.69235 5.67864 3.24074C6.05851 2.73821 6.57054 2.4507 7.19233 2.28408C7.77641 2.12757 8.51115 2.06342 9.41561 2.03186C10.3287 2 11.4968 2 12.9801 2H13.02C14.5033 2 15.6714 2 16.5845 2.03186C17.4889 2.06342 18.2237 2.12757 18.8077 2.28408C19.4295 2.4507 19.9416 2.73821 20.3214 3.24075C20.4983 3.47475 20.6287 3.73435 20.7321 4H23.0001V5.52026C23.0001 5.86107 23.0001 6.41144 22.9371 7H20.9222C20.9704 6.66143 20.9888 6.31356 20.9958 6H19.2324L19.0338 5.25882C18.9003 4.76069 18.8098 4.55765 18.7259 4.44675C18.6806 4.38679 18.6012 4.2993 18.2901 4.21592C17.9412 4.12244 17.4015 4.06158 16.5148 4.03064C15.6407 4.00014 14.5073 4 13.0001 4C11.4928 4 10.3594 4.00014 9.48535 4.03064C8.5986 4.06158 8.05888 4.12244 7.71 4.21592C7.39884 4.2993 7.31943 4.3868 7.2741 4.44676C7.20659 4.53607 7.13472 4.68515 7.03957 5H17ZM17 26.5C17 27.3284 17.6716 28 18.5 28C19.3284 28 20 27.3284 20 26.5C20 25.6716 19.3284 25 18.5 25C17.6716 25 17 25.6716 17 26.5Z" fill="#000000" class="bmwfcol"/><path d="M20.7634 9.25243C21.2074 9.00069 21.7799 8.85117 22.5419 8.85117C22.9572 8.85117 23.3983 8.91324 23.7897 8.98349C24.3032 9.07412 24.7655 9.18472 25.0939 9.26434L25.2468 9.3014V11.1307L25.0025 11.0752C24.5648 10.9757 24.0431 10.8576 23.5323 10.7692C23.2415 10.7207 22.955 10.6925 22.7209 10.6925C22.3019 10.6925 22.0169 10.7461 21.8106 10.8481C21.6113 10.9468 21.468 11.0995 21.3491 11.3374C21.1627 11.7102 21.0919 12.2061 21.0919 13.047C21.0919 13.878 21.1452 14.4118 21.3538 14.7768L21.3541 14.7774L21.3545 14.778C21.5643 15.151 21.9532 15.2923 22.7706 15.2923C23.1074 15.2923 23.4173 15.2702 23.6341 15.2508V12.4892H25.5053V16.8075L25.3351 16.8332C24.6063 16.943 23.4019 17.0839 22.5121 17.0839C21.7314 17.0839 21.1584 16.959 20.7191 16.7353C20.2769 16.5101 19.9867 16.1931 19.7594 15.8389L19.7592 15.8386C19.3402 15.1832 19.181 14.3109 19.181 13.0769C19.181 11.7708 19.341 10.9305 19.7881 10.2173L19.7882 10.2171C20.0188 9.85015 20.3191 9.5044 20.7634 9.25243Z" fill="#000000" class="bmwfcol"/><path d="M12.2444 9.02015H14.1354V12.1731L16.6827 9.02015H19.0296L15.8965 12.8448L19.412 16.9149H16.9048L14.1354 13.6779V16.9149H12.2444V9.02015Z" fill="#000000" class="bmwfcol"/><title>waste_volume_rg_48</title></svg>