<svg width="48" height="48" viewBox="0 0 32 32" xmlns="http://www.w3.org/2000/svg"><path d="M16.6974 13.9999L15.6273 18H17.6976L19.3027 11.9999H15.6922L16.2221 9H14.1912L13.3079 13.9999H16.6974Z" fill="#000000" class="bmwfcol"/><path d="M17.0001 4.05542V2H16.0001C13.671 2 11.8523 3.28477 11.2303 5.36667C10.9358 5.55103 10.6528 5.75192 10.3826 5.96802L8.92944 4.51438L8.22222 5.22161C6.57525 6.86857 6.19774 9.06304 7.23002 10.975C7.15216 11.3137 7.09416 11.6559 7.05596 11.9998H5.00061V12.9998C5.00061 15.3289 6.28537 17.1476 8.36724 17.7696C8.55155 18.0641 8.75239 18.3472 8.9685 18.6176L7.51499 20.0711L8.2221 20.7782C9.86905 22.4251 12.0635 22.8026 13.9755 21.7704C14.3141 21.8483 14.6562 21.9063 15.0001 21.9446V24H16.0001C18.3293 24 20.1479 22.7152 20.77 20.6333C21.0646 20.4489 21.3476 20.248 21.6179 20.0318L23.0716 21.4849L23.7786 20.778C25.4255 19.131 25.803 16.9366 24.7708 15.0246C24.8487 14.686 24.9068 14.3437 24.9451 13.9998H27.0006V12.9998C27.0006 10.6706 25.7158 8.85194 23.6339 8.22991C23.4494 7.93535 23.2484 7.65238 23.0322 7.38224L24.4856 5.92893L23.7784 5.22183C22.1315 3.57487 19.937 3.19735 18.025 4.22962C17.6863 4.15174 17.3441 4.09368 17.0001 4.05542ZM15.0001 4.12807V6H16.0001C16.643 6 17.2857 6.08794 17.9083 6.26356L18.3478 6.38756L18.7294 6.13659C19.6171 5.55266 20.6254 5.48698 21.5666 6.01949L20.2429 7.34315L20.95 8.05025C21.4049 8.50511 21.7973 9.02149 22.1132 9.58557L22.3363 9.98404L22.7835 10.0764C23.8241 10.2912 24.5836 10.9577 24.8725 11.9998H23.0006V12.9998C23.0006 13.6425 22.9125 14.285 22.7368 14.9078L22.6128 15.3473L22.8638 15.7289C23.4478 16.6166 23.5134 17.625 22.9808 18.5662L21.6569 17.2428L20.9499 17.9497C20.4953 18.4043 19.9787 18.7965 19.4143 19.1126L19.0159 19.3357L18.9235 19.7829C18.7087 20.8235 18.0422 21.583 17.0001 21.8719V20H16.0001C15.3572 20 14.7148 19.9121 14.0923 19.7364L13.6527 19.6124L13.2712 19.8634C12.3835 20.4473 11.3751 20.513 10.434 19.9805L11.7576 18.6569L11.0505 17.9497C10.5962 17.4954 10.2043 16.9787 9.88806 16.414L9.66494 16.0155L9.21769 15.9232C8.17709 15.7084 7.41764 15.0418 7.12868 13.9998H9.00061V12.9998C9.00061 12.3567 9.08837 11.7141 9.26395 11.0918L9.38795 10.6522L9.13697 10.2707C8.55309 9.38305 8.48737 8.37478 9.01978 7.43366L10.3431 8.75748L11.0504 8.05025C11.505 7.59566 12.0215 7.20347 12.5859 6.88745L12.9844 6.66433L13.0767 6.21708C13.2915 5.17648 13.9581 4.41703 15.0001 4.12807Z" fill="#000000" class="bmwfcol"/><path d="M28 26C27.4397 26 27.1967 26.2176 26.7072 26.7071L26.681 26.7333C26.1708 27.2439 25.4153 28 24 28C22.5847 28 21.8292 27.2439 21.319 26.7333L21.2928 26.7071C20.8033 26.2176 20.5603 26 20 26C19.4397 26 19.1967 26.2176 18.7072 26.7071L18.681 26.7333C18.1708 27.2439 17.4153 28 16 28C14.5847 28 13.8292 27.2439 13.319 26.7333L13.2928 26.7071C12.8033 26.2176 12.5603 26 12 26C11.4397 26 11.1967 26.2176 10.7072 26.7071L10.681 26.7333C10.1708 27.2439 9.41532 28 8 28C6.58468 28 5.82918 27.2439 5.31899 26.7333L5.29284 26.7071C4.80335 26.2176 4.56028 26 4 26V24C5.41526 24 6.17071 24.7561 6.68089 25.2667L6.70705 25.2929C7.19654 25.7824 7.43966 26 8 26C8.56034 26 8.80346 25.7824 9.29295 25.2929L9.31911 25.2667C9.82929 24.7561 10.5847 24 12 24C13.4153 24 14.1707 24.7561 14.6809 25.2667L14.7071 25.2929C15.1965 25.7824 15.4397 26 16 26C16.5603 26 16.8035 25.7824 17.2929 25.2929L17.3191 25.2667C17.8293 24.7561 18.5847 24 20 24C21.4153 24 22.1707 24.7561 22.6809 25.2667L22.7071 25.2929C23.1965 25.7824 23.4397 26 24 26C24.5603 26 24.8035 25.7824 25.2929 25.2929L25.3191 25.2667C25.8293 24.7561 26.5847 24 28 24V26Z" fill="#000000" class="bmwfcol"/><title>water_wheel_electricity_rg_48</title></svg>