<svg width="48" height="48" viewBox="0 0 32 32" xmlns="http://www.w3.org/2000/svg"><path d="M24.5957 4.20929C24.9396 4.00626 25.3879 3.87915 25.9847 3.87915C26.3198 3.87915 26.6365 3.91819 26.9769 3.9787L26.9788 3.97903C27.3369 4.04618 27.5186 4.084 27.7681 4.14448L27.921 4.18154V5.66727L27.6752 5.60943C27.4263 5.55087 27.1475 5.49215 26.8311 5.4333C26.5634 5.38264 26.3387 5.35505 26.1183 5.35505C25.8153 5.35505 25.6067 5.39776 25.4576 5.47156C25.3142 5.54253 25.2119 5.64918 25.1322 5.80841C24.9996 6.07369 24.953 6.46815 24.953 7.06199C24.953 7.60912 24.9937 8.02422 25.1418 8.28352C25.2849 8.53258 25.5534 8.65021 26.1554 8.65021C26.6131 8.65021 27.2232 8.5292 27.6793 8.432L27.921 8.3805V9.86653L27.7613 9.8994C27.2567 10.0033 26.6304 10.1261 25.9625 10.1261C25.3371 10.1261 24.8865 9.99765 24.549 9.79766C24.2117 9.59774 24.0041 9.33608 23.8507 9.10019C23.5436 8.62697 23.4252 7.92497 23.4252 7.08425C23.4252 6.21599 23.5208 5.50036 23.8631 4.94607C24.0266 4.68289 24.252 4.41217 24.5957 4.20929Z" fill="#000000" class="bmwfcol"/><path d="M16.1504 4.00529H17.7018L18.3872 7.47616L19.122 4.85117H20.5539L21.2764 7.4747L21.974 4.00529H23.5029L22.2865 9.99997H20.5609L19.8302 7.35342L19.0995 9.99997H17.3589L16.1504 4.00529Z" fill="#000000" class="bmwfcol"/><path d="M10.8477 5.57446C10.3522 5.57446 9.72854 5.67183 9.23941 6.13767C8.74327 6.61018 8.57266 7.28112 8.57266 7.99946C8.57266 8.71781 8.74327 9.38874 9.23941 9.86125C9.72854 10.3271 10.3522 10.4245 10.8477 10.4245C11.3431 10.4245 11.9668 10.3271 12.4559 9.86125C12.952 9.38874 13.1227 8.71781 13.1227 7.99946C13.1227 7.28112 12.952 6.61018 12.4559 6.13767C11.9668 5.67183 11.3431 5.57446 10.8477 5.57446ZM10.4227 7.99946C10.4227 7.77449 10.45 7.63689 10.4757 7.55938C10.4881 7.52202 10.4995 7.50067 10.5059 7.4902C10.5091 7.48488 10.5116 7.48166 10.5129 7.47999C10.5142 7.47833 10.5153 7.47733 10.5153 7.47733L10.5167 7.47615L10.5185 7.47499L10.5226 7.4725C10.529 7.46895 10.5429 7.46222 10.5678 7.45482C10.6208 7.43909 10.7094 7.42446 10.8477 7.42446C10.9859 7.42446 11.0745 7.43909 11.1275 7.45482C11.1524 7.46222 11.1663 7.46895 11.1727 7.4725L11.1767 7.47488L11.1786 7.47615L11.18 7.47733C11.18 7.47733 11.1811 7.47833 11.1824 7.47999C11.1838 7.48166 11.1862 7.48488 11.1894 7.4902C11.1958 7.50067 11.2072 7.52202 11.2196 7.55938C11.2453 7.63689 11.2727 7.77449 11.2727 7.99946C11.2727 8.22444 11.2453 8.36203 11.2196 8.43955C11.2072 8.4769 11.1958 8.49826 11.1894 8.50872C11.1862 8.51405 11.1838 8.51726 11.1824 8.51894L11.1807 8.52088L11.1786 8.52278C11.1786 8.52278 11.176 8.52463 11.1727 8.52643C11.1663 8.52998 11.1524 8.53671 11.1275 8.5441C11.0745 8.55983 10.9859 8.57446 10.8477 8.57446C10.7094 8.57446 10.6208 8.55983 10.5678 8.5441C10.5429 8.53671 10.529 8.52998 10.5226 8.52643L10.5191 8.52437L10.5167 8.52278L10.5153 8.5216C10.5153 8.5216 10.5142 8.52059 10.5129 8.51894C10.5116 8.51726 10.5091 8.51405 10.5059 8.50872C10.4995 8.49826 10.4881 8.4769 10.4757 8.43955C10.45 8.36203 10.4227 8.22444 10.4227 7.99946Z" fill="#000000" class="bmwfcol"/><path d="M18.6435 26H16.5729L15.2332 21.0001L10.4827 21L10.2507 20.8661C9.68625 20.5402 9.22857 20.2638 8.87038 20.0092C8.51314 19.7552 8.19829 19.4842 7.9637 19.1505C7.49599 18.4851 7.49827 17.7567 7.50026 17.1216L7.50052 17V13.0677C7.50052 12.4192 7.82312 11.8232 8.47407 11.4521C9.04231 11.1282 9.81283 11 10.7505 11C11.6882 11 12.4587 11.1282 13.027 11.4521C13.6779 11.8232 14.0005 12.4188 14.0005 13.0674V19L16.7678 19.0001L18.6435 26ZM9.50052 17C9.50052 17.8375 9.53518 17.9083 9.59987 18.0003C9.64656 18.0667 9.75361 18.1832 10.0292 18.3791C10.2645 18.5464 10.5816 18.7435 11.0201 19L12.0005 19V13.1711C11.8531 13.1017 11.4931 13 10.7505 13C10.0079 13 9.64796 13.1017 9.50052 13.1711V17Z" fill="#000000" class="bmwfcol"/><path d="M12.6317 22.5C12.182 24.3647 10.5028 25.75 8.5 25.75C6.15279 25.75 4.25 23.8472 4.25 21.5C4.25 20.2015 4.8323 19.0391 5.75 18.2595V15.8859C3.67702 16.9033 2.25 19.035 2.25 21.5C2.25 24.9518 5.04822 27.75 8.5 27.75C11.6114 27.75 14.1918 25.4764 14.6704 22.5H12.6317Z" fill="#000000" class="bmwfcol"/><title>wc_disabled_rg_48</title></svg>