<svg width="48" height="48" viewBox="0 0 32 32" xmlns="http://www.w3.org/2000/svg"><path d="M15.3473 3.58098C15.2856 3.63972 15.1281 3.84378 15.1281 4.50044C15.1281 5.1571 15.2856 5.36116 15.3473 5.4199C15.416 5.48531 15.5799 5.57544 16.0031 5.57544C16.4264 5.57544 16.5903 5.48531 16.6589 5.4199C16.7206 5.36116 16.8781 5.1571 16.8781 4.50044C16.8781 3.84378 16.7206 3.63972 16.6589 3.58098C16.5903 3.51557 16.4264 3.42544 16.0031 3.42544C15.5799 3.42544 15.416 3.51557 15.3473 3.58098ZM14.0714 2.24133C14.6403 1.6996 15.3764 1.57544 16.0031 1.57544C16.6299 1.57544 17.366 1.6996 17.9348 2.24133C18.5106 2.78973 18.7281 3.58567 18.7281 4.50044C18.7281 5.41521 18.5106 6.21115 17.9348 6.75955C17.366 7.30128 16.6299 7.42544 16.0031 7.42544C15.3764 7.42544 14.6403 7.30128 14.0714 6.75955C13.4956 6.21115 13.2781 5.41521 13.2781 4.50044C13.2781 3.58567 13.4956 2.78973 14.0714 2.24133Z" fill="#000000" class="bmwfcol"/><path d="M12.6044 9.09348C13.2879 8.26345 14.4608 7.99897 16.0019 7.99897C17.542 7.99897 18.7204 8.26295 19.4043 9.10688C19.7431 9.52499 19.882 9.99481 19.9442 10.4127C20.0019 10.8005 20.0018 11.2139 20.0018 11.562C20.0018 11.5744 20.0018 11.5867 20.0018 11.599L20.0002 16.8595L21.0002 20.3594V21.999H18.5002V29.999H16.5002V19.999H18.8172L18.0001 17.1394L18.0018 11.599C18.0018 11.2047 17.9997 10.9336 17.966 10.7072C17.9347 10.4969 17.8864 10.4105 17.8504 10.3661C17.7847 10.285 17.4632 9.99897 16.0019 9.99897C14.5418 9.99897 14.2144 10.2845 14.1482 10.3649C14.1137 10.4068 14.0673 10.4876 14.0369 10.6865C14.0039 10.9026 14.0017 11.1608 14.0018 11.5406L14 17.1397L13.183 19.999H15.5V29.999H13.5V21.999H11V20.3594L12 16.8593L12.0018 11.5409C12.0018 11.5291 12.0017 11.517 12.0017 11.505C12.0016 11.1706 12.0015 10.7661 12.0599 10.3842C12.123 9.9713 12.264 9.50677 12.6044 9.09348Z" fill="#000000" class="bmwfcol"/><title>wc_female_rg_48</title></svg>