<svg width="48" height="48" viewBox="0 0 32 32" xmlns="http://www.w3.org/2000/svg"><path d="M15.3456 3.58098C15.2839 3.63972 15.1264 3.84378 15.1264 4.50044C15.1264 5.1571 15.2839 5.36116 15.3456 5.4199C15.4143 5.48531 15.5781 5.57544 16.0014 5.57544C16.4247 5.57544 16.5886 5.48531 16.6572 5.4199C16.7189 5.36116 16.8764 5.1571 16.8764 4.50044C16.8764 3.84378 16.7189 3.63972 16.6572 3.58098C16.5886 3.51557 16.4247 3.42544 16.0014 3.42544C15.5781 3.42544 15.4143 3.51557 15.3456 3.58098ZM14.0697 2.24133C14.6386 1.6996 15.3747 1.57544 16.0014 1.57544C16.6281 1.57544 17.3643 1.6996 17.9331 2.24133C18.5089 2.78973 18.7264 3.58567 18.7264 4.50044C18.7264 5.41521 18.5089 6.21115 17.9331 6.75955C17.3643 7.30128 16.6281 7.42544 16.0014 7.42544C15.3747 7.42544 14.6386 7.30128 14.0697 6.75955C13.4939 6.21115 13.2764 5.41521 13.2764 4.50044C13.2764 3.58567 13.4939 2.78973 14.0697 2.24133Z" fill="#000000" class="bmwfcol"/><path d="M11.7598 9.26078C12.5621 8.37032 13.9486 7.99995 16.0022 7.99995C18.0546 7.99995 19.4457 8.36982 20.2487 9.27296C21.0073 10.1261 21.0041 11.2273 21.0022 11.9036C21.0021 11.9368 21.002 11.9689 21.002 12L21.0002 20H19.0004V30H17.0004V18L19.0006 18L19.002 12C19.002 11.1642 18.9587 10.832 18.7541 10.6019C18.5569 10.3801 17.948 9.99995 16.0022 9.99995C14.0575 9.99995 13.4438 10.3796 13.2456 10.5996C13.0448 10.8224 13.0019 11.1393 13.002 11.9416L13.0005 18H15.0002V30H13.0002V20L11 20L11.002 11.9418C11.002 11.9127 11.0019 11.8821 11.0018 11.8509C10.9998 11.1973 10.9966 10.1078 11.7598 9.26078Z" fill="#000000" class="bmwfcol"/><title>wc_male_rg_48</title></svg>