<svg width="48" height="48" viewBox="0 0 32 32" xmlns="http://www.w3.org/2000/svg"><path d="M10.0023 1.57544C9.37562 1.57544 8.63948 1.6996 8.07066 2.24133C7.49484 2.78973 7.27734 3.58567 7.27734 4.50044C7.27734 5.41521 7.49484 6.21115 8.07066 6.75955C8.63948 7.30128 9.37562 7.42544 10.0023 7.42544C10.6291 7.42544 11.3652 7.30128 11.934 6.75955C12.5099 6.21115 12.7273 5.41521 12.7273 4.50044C12.7273 3.58567 12.5099 2.78973 11.934 2.24133C11.3652 1.6996 10.6291 1.57544 10.0023 1.57544ZM9.12734 4.50044C9.12734 3.84378 9.28485 3.63972 9.34652 3.58098C9.41521 3.51557 9.57907 3.42544 10.0023 3.42544C10.4256 3.42544 10.5895 3.51557 10.6582 3.58098C10.7198 3.63972 10.8773 3.84378 10.8773 4.50044C10.8773 5.1571 10.7198 5.36116 10.6582 5.4199C10.5895 5.48531 10.4256 5.57544 10.0023 5.57544C9.57907 5.57544 9.41521 5.48531 9.34652 5.4199C9.28485 5.36116 9.12734 5.1571 9.12734 4.50044Z" fill="#000000" class="bmwfcol"/><path d="M22.0004 1.57544C21.3737 1.57544 20.6375 1.6996 20.0687 2.24133C19.4929 2.78973 19.2754 3.58567 19.2754 4.50044C19.2754 5.41521 19.4929 6.21115 20.0687 6.75955C20.6375 7.30128 21.3737 7.42544 22.0004 7.42544C22.6271 7.42544 23.3633 7.30128 23.9321 6.75955C24.5079 6.21115 24.7254 5.41521 24.7254 4.50044C24.7254 3.58567 24.5079 2.78973 23.9321 2.24133C23.3633 1.6996 22.6271 1.57544 22.0004 1.57544ZM21.1254 4.50044C21.1254 3.84378 21.2829 3.63972 21.3446 3.58098C21.4133 3.51557 21.5771 3.42544 22.0004 3.42544C22.4237 3.42544 22.5875 3.51557 22.6562 3.58098C22.7179 3.63972 22.8754 3.84378 22.8754 4.50044C22.8754 5.1571 22.7179 5.36116 22.6562 5.4199C22.5875 5.48531 22.4237 5.57544 22.0004 5.57544C21.5771 5.57544 21.4133 5.48531 21.3446 5.4199C21.2829 5.36116 21.1254 5.1571 21.1254 4.50044Z" fill="#000000" class="bmwfcol"/><path d="M6.60436 9.09353C7.28793 8.2635 8.46077 7.99902 10.0019 7.99902C11.542 7.99902 12.7204 8.26299 13.4043 9.10693C13.7431 9.52504 13.882 9.99486 13.9442 10.4127C14.0019 10.8005 14.0018 11.2139 14.0018 11.562L14.0002 16.8596L15.0002 20.3595V21.999H12.5002V29.999H10.5002V19.999H12.8172L12.0001 17.1394L12.0018 11.599C12.0018 11.2048 11.9997 10.9336 11.966 10.7072C11.9347 10.4969 11.8864 10.4105 11.8504 10.3661C11.7847 10.2851 11.4632 9.99902 10.0019 9.99902C8.54176 9.99902 8.21443 10.2845 8.1482 10.365C8.11367 10.4069 8.06732 10.4877 8.0369 10.6866C8.00385 10.9027 8.00171 11.1609 8.00175 11.5407L7.99996 17.1397L7.18301 19.999H9.5V29.999H7.5V21.999H5V20.3595L6.00004 16.8593L6.00174 11.5051C6.00163 11.1707 6.00148 10.7661 6.05989 10.3842C6.12303 9.97134 6.26399 9.50682 6.60436 9.09353Z" fill="#000000" class="bmwfcol"/><path d="M22.0022 8C19.9486 8 18.5621 8.37037 17.7598 9.26082C16.9966 10.1078 16.9998 11.1974 17.0018 11.851L17.002 11.9419L17 20L19.0002 20V30H21.0002V18H19.0005L19.002 11.9416C19.0019 11.1394 19.0448 10.8224 19.2456 10.5996C19.4438 10.3796 20.0575 10 22.0022 10C23.948 10 24.5569 10.3801 24.7541 10.602C24.9587 10.832 25.002 11.1643 25.002 12L25.0006 18L23.0004 18V30H25.0004V20H27.0002L27.002 12L27.0022 11.9037C27.0041 11.2273 27.0073 10.1261 26.2487 9.273C25.4457 8.36987 24.0546 8 22.0022 8Z" fill="#000000" class="bmwfcol"/><title>wc_rg_48</title></svg>