<svg width="96" height="48" viewBox="0 0 64 32" xmlns="http://www.w3.org/2000/svg"><path d="M32.3473 3.58098C32.2856 3.63972 32.1281 3.84378 32.1281 4.50044C32.1281 5.1571 32.2856 5.36116 32.3473 5.4199C32.416 5.48531 32.5799 5.57544 33.0031 5.57544C33.4264 5.57544 33.5903 5.48531 33.6589 5.4199C33.7206 5.36116 33.8781 5.1571 33.8781 4.50044C33.8781 3.84378 33.7206 3.63972 33.6589 3.58098C33.5903 3.51557 33.4264 3.42544 33.0031 3.42544C32.5799 3.42544 32.416 3.51557 32.3473 3.58098ZM31.0714 2.24133C31.6403 1.6996 32.3764 1.57544 33.0031 1.57544C33.6299 1.57544 34.366 1.6996 34.9348 2.24133C35.5106 2.78973 35.7281 3.58567 35.7281 4.50044C35.7281 5.41521 35.5106 6.21115 34.9348 6.75955C34.366 7.30128 33.6299 7.42544 33.0031 7.42544C32.3764 7.42544 31.6403 7.30128 31.0714 6.75955C30.4956 6.21115 30.2781 5.41521 30.2781 4.50044C30.2781 3.58567 30.4956 2.78973 31.0714 2.24133Z" fill="#000000" class="bmwfcol"/><path d="M43.3454 3.58098C43.2837 3.63972 43.1262 3.84378 43.1262 4.50044C43.1262 5.1571 43.2837 5.36116 43.3454 5.4199C43.414 5.48531 43.5779 5.57544 44.0012 5.57544C44.4244 5.57544 44.5883 5.48531 44.657 5.4199C44.7187 5.36116 44.8762 5.1571 44.8762 4.50044C44.8762 3.84378 44.7187 3.63972 44.657 3.58098C44.5883 3.51557 44.4244 3.42544 44.0012 3.42544C43.5779 3.42544 43.414 3.51557 43.3454 3.58098ZM42.0695 2.24133C42.6383 1.6996 43.3744 1.57544 44.0012 1.57544C44.6279 1.57544 45.364 1.6996 45.9329 2.24133C46.5087 2.78973 46.7262 3.58567 46.7262 4.50044C46.7262 5.41521 46.5087 6.21115 45.9329 6.75955C45.364 7.30128 44.6279 7.42544 44.0012 7.42544C43.3744 7.42544 42.6383 7.30128 42.0695 6.75955C41.4937 6.21115 41.2762 5.41521 41.2762 4.50044C41.2762 3.58567 41.4937 2.78973 42.0695 2.24133Z" fill="#000000" class="bmwfcol"/><path d="M29.6044 9.09348C30.2879 8.26345 31.4608 7.99897 33.0019 7.99897C34.542 7.99897 35.7204 8.26295 36.4043 9.10688C36.7431 9.52499 36.882 9.99481 36.9442 10.4127C37.0019 10.8005 37.0018 11.2139 37.0018 11.562C37.0018 11.5744 37.0018 11.5867 37.0018 11.599L37.0002 16.8595L38.0002 20.3594V21.999H35.5002V29.999H33.5002V19.999H35.8172L35.0001 17.1394L35.0018 11.599C35.0018 11.2047 34.9997 10.9336 34.966 10.7072C34.9347 10.4969 34.8864 10.4105 34.8504 10.3661C34.7847 10.285 34.4632 9.99897 33.0019 9.99897C31.5418 9.99897 31.2144 10.2845 31.1482 10.3649C31.1137 10.4068 31.0673 10.4876 31.0369 10.6865C31.0039 10.9026 31.0017 11.1608 31.0018 11.5406L31 17.1397L30.183 19.999H32.5V29.999H30.5V21.999H28V20.3594L29 16.8593L29.0018 11.5409C29.0018 11.5291 29.0017 11.517 29.0017 11.505C29.0016 11.1706 29.0015 10.7661 29.0599 10.3842C29.123 9.9713 29.264 9.50677 29.6044 9.09348Z" fill="#000000" class="bmwfcol"/><path d="M39.7595 9.26078C40.5619 8.37032 41.9484 7.99995 44.0019 7.99995C46.0543 7.99995 47.4454 8.36982 48.2485 9.27296C49.0071 10.1261 49.0039 11.2273 49.0019 11.9036C49.0019 11.9368 49.0018 11.9689 49.0018 12L49 20H47.0002V30H45.0002V18L47.0004 18L47.0018 12C47.0017 11.1642 46.9584 10.832 46.7539 10.6019C46.5566 10.3801 45.9478 9.99995 44.0019 9.99995C42.0572 9.99995 41.4436 10.3796 41.2453 10.5996C41.0446 10.8224 41.0017 11.1393 41.0018 11.9416L41.0002 18H43V30H41V20L38.9998 20L39.0018 11.9418C39.0018 11.9127 39.0017 11.8821 39.0016 11.8509C38.9996 11.1973 38.9963 10.1078 39.7595 9.26078Z" fill="#000000" class="bmwfcol"/><path d="M54.7453 3.58098C54.6837 3.63972 54.5262 3.84378 54.5262 4.50044C54.5262 5.1571 54.6837 5.36116 54.7453 5.4199C54.814 5.48531 54.9779 5.57544 55.4012 5.57544C55.8244 5.57544 55.9883 5.48531 56.057 5.4199C56.1187 5.36116 56.2762 5.1571 56.2762 4.50044C56.2762 3.84378 56.1187 3.63972 56.057 3.58098C55.9883 3.51557 55.8244 3.42544 55.4012 3.42544C54.9779 3.42544 54.814 3.51557 54.7453 3.58098ZM53.4695 2.24133C54.0383 1.6996 54.7744 1.57544 55.4012 1.57544C56.0279 1.57544 56.764 1.6996 57.3328 2.24133C57.9087 2.78973 58.1262 3.58567 58.1262 4.50044C58.1262 5.41521 57.9087 6.21115 57.3328 6.75955C56.764 7.30128 56.0279 7.42544 55.4012 7.42544C54.7744 7.42544 54.0383 7.30128 53.4695 6.75955C52.8937 6.21115 52.6762 5.41521 52.6762 4.50044C52.6762 3.58567 52.8937 2.78973 53.4695 2.24133Z" fill="#000000" class="bmwfcol"/><path d="M51.6481 9.32371C52.3794 8.38305 53.6653 7.99995 55.5 7.99995C57.3349 7.99995 58.6207 8.38314 59.3525 9.32314C60.0066 10.1633 60.0038 11.2289 60.002 11.9007C60.0019 11.9349 60.0018 11.968 60.0018 12L60 20H58.0002V30H56.0002V18L58.0004 18L58.0018 12C58.0018 11.1624 57.9629 10.7939 57.7744 10.5518C57.6304 10.3668 57.1653 9.99995 55.5 9.99995C53.8345 9.99995 53.3704 10.3669 53.2271 10.5512C53.0392 10.7929 53.0007 11.1608 53.0016 11.9989L53.0016 12.0003L53 17.1397L52.183 19.999H54.5V29.999H52.5V21.999H50V20.3594L51 16.8593L51.0016 12.0003C51.0016 11.9685 51.0014 11.9355 51.0013 11.9016C50.9988 11.23 50.9948 10.1642 51.6481 9.32371Z" fill="#000000" class="bmwfcol"/><path d="M18.917 23.9999C18.441 26.8376 15.973 28.9999 13 28.9999C9.68629 28.9999 7 26.3136 7 22.9999C7 20.7791 8.2066 18.84 10 17.8026V15.5814C7.06817 16.7682 5 19.6425 5 22.9999C5 27.4182 8.58172 30.9999 13 30.9999C17.0796 30.9999 20.446 27.9462 20.9381 23.9999H18.917Z" fill="#000000" class="bmwfcol"/><path d="M27.4473 30H25.3767L23.2331 22L15.7326 22L15.5006 21.866C14.7486 21.4318 14.1503 21.0701 13.6867 20.7405C13.224 20.4115 12.8388 20.0759 12.5573 19.6755C11.9967 18.878 11.9985 18.0089 12.0002 17.1436L12.0004 17V12.5C12.0004 12.1769 12.0389 11.7971 12.2085 11.427C12.3886 11.034 12.682 10.7266 13.0667 10.5067C13.7553 10.1132 14.7476 9.99995 16.0004 9.99995C17.2532 9.99995 18.2455 10.1132 18.934 10.5067C19.3188 10.7266 19.6121 11.034 19.7923 11.427C19.9619 11.7971 20.0004 12.1769 20.0004 12.5V20L24.7678 20L27.4473 30ZM14.0004 12.5V17C14.0004 18.0874 14.035 18.2999 14.1935 18.5253C14.2871 18.6584 14.4644 18.8395 14.8455 19.1104C15.1853 19.352 15.6422 19.6343 16.2696 20L18.0004 20V12.5C18.0004 12.3485 17.9828 12.2844 17.9763 12.266C17.9708 12.2615 17.96 12.2536 17.9417 12.2432C17.7553 12.1367 17.2476 12 16.0004 12C14.7532 12 14.2455 12.1367 14.059 12.2432C14.0408 12.2536 14.03 12.2615 14.0244 12.266C14.018 12.2844 14.0004 12.3485 14.0004 12.5Z" fill="#000000" class="bmwfcol"/><path d="M15.3454 5.58098C15.2837 5.63972 15.1262 5.84378 15.1262 6.50044C15.1262 7.1571 15.2837 7.36116 15.3454 7.4199C15.414 7.48531 15.5779 7.57544 16.0012 7.57544C16.4244 7.57544 16.5883 7.48531 16.657 7.4199C16.7187 7.36116 16.8762 7.1571 16.8762 6.50044C16.8762 5.84378 16.7187 5.63972 16.657 5.58098C16.5883 5.51557 16.4244 5.42544 16.0012 5.42544C15.5779 5.42544 15.414 5.51557 15.3454 5.58098ZM14.0695 4.24133C14.6383 3.6996 15.3744 3.57544 16.0012 3.57544C16.6279 3.57544 17.364 3.6996 17.9329 4.24133C18.5087 4.78973 18.7262 5.58567 18.7262 6.50044C18.7262 7.41521 18.5087 8.21115 17.9329 8.75955C17.364 9.30128 16.6279 9.42544 16.0012 9.42544C15.3744 9.42544 14.6383 9.30128 14.0695 8.75955C13.4937 8.21115 13.2762 7.41521 13.2762 6.50044C13.2762 5.58567 13.4937 4.78973 14.0695 4.24133Z" fill="#000000" class="bmwfcol"/><title>wc_unisex_and_disabled_rg_48</title></svg>