<svg width="48" height="48" viewBox="0 0 32 32" xmlns="http://www.w3.org/2000/svg"><path d="M4.44692 3.58098C4.38524 3.63972 4.22773 3.84378 4.22773 4.50044C4.22773 5.1571 4.38524 5.36116 4.44692 5.4199C4.5156 5.48531 4.67946 5.57544 5.10273 5.57544C5.52601 5.57544 5.68987 5.48531 5.75855 5.4199C5.82023 5.36116 5.97773 5.1571 5.97773 4.50044C5.97773 3.84378 5.82023 3.63972 5.75855 3.58098C5.68987 3.51557 5.52601 3.42544 5.10273 3.42544C4.67946 3.42544 4.5156 3.51557 4.44692 3.58098ZM3.17105 2.24133C3.73987 1.6996 4.47601 1.57544 5.10273 1.57544C5.72946 1.57544 6.4656 1.6996 7.03442 2.24133C7.61024 2.78973 7.82773 3.58567 7.82773 4.50044C7.82773 5.41521 7.61024 6.21115 7.03442 6.75955C6.4656 7.30128 5.72946 7.42544 5.10273 7.42544C4.47601 7.42544 3.73987 7.30128 3.17105 6.75955C2.59523 6.21115 2.37773 5.41521 2.37773 4.50044C2.37773 3.58567 2.59523 2.78973 3.17105 2.24133Z" fill="#000000" class="bmwfcol"/><path d="M15.345 3.58098C15.2833 3.63972 15.1258 3.84378 15.1258 4.50044C15.1258 5.1571 15.2833 5.36116 15.345 5.4199C15.4136 5.48531 15.5775 5.57544 16.0008 5.57544C16.4241 5.57544 16.5879 5.48531 16.6566 5.4199C16.7183 5.36116 16.8758 5.1571 16.8758 4.50044C16.8758 3.84378 16.7183 3.63972 16.6566 3.58098C16.5879 3.51557 16.4241 3.42544 16.0008 3.42544C15.5775 3.42544 15.4136 3.51557 15.345 3.58098ZM14.0691 2.24133C14.6379 1.6996 15.3741 1.57544 16.0008 1.57544C16.6275 1.57544 17.3636 1.6996 17.9325 2.24133C18.5083 2.78973 18.7258 3.58567 18.7258 4.50044C18.7258 5.41521 18.5083 6.21115 17.9325 6.75955C17.3636 7.30128 16.6275 7.42544 16.0008 7.42544C15.3741 7.42544 14.6379 7.30128 14.0691 6.75955C13.4933 6.21115 13.2758 5.41521 13.2758 4.50044C13.2758 3.58567 13.4933 2.78973 14.0691 2.24133Z" fill="#000000" class="bmwfcol"/><path d="M1.70397 9.09348C2.38754 8.26345 3.56038 7.99897 5.10153 7.99897C6.64158 7.99897 7.81997 8.26295 8.50387 9.10688C8.84269 9.52499 8.98159 9.99481 9.0438 10.4127C9.10153 10.8005 9.10145 11.2139 9.10137 11.562C9.10137 11.5744 9.10137 11.5867 9.10137 11.599L9.09983 16.8595L10.0998 20.3594V21.999H7.59979V29.999H5.59979V19.999H7.91677L7.09975 17.1394L7.10137 11.599C7.10136 11.2047 7.09931 10.9336 7.0656 10.7072C7.0343 10.4969 6.98599 10.4105 6.95002 10.3661C6.88433 10.285 6.5628 9.99897 5.10153 9.99897C3.64137 9.99897 3.31404 10.2845 3.24781 10.3649C3.21328 10.4068 3.16693 10.4876 3.13651 10.6865C3.10346 10.9026 3.10132 11.1608 3.10136 11.5406L3.09956 17.1397L2.28262 19.999H4.59961V29.999H2.59961V21.999H0.0996094V20.3594L1.09965 16.8593L1.10136 11.5409C1.10136 11.5291 1.10136 11.517 1.10135 11.505C1.10123 11.1706 1.10109 10.7661 1.1595 10.3842C1.22264 9.9713 1.3636 9.50677 1.70397 9.09348Z" fill="#000000" class="bmwfcol"/><path d="M11.7591 9.26078C12.5615 8.37032 13.948 7.99995 16.0015 7.99995C18.054 7.99995 19.445 8.36982 20.2481 9.27296C21.0067 10.1261 21.0035 11.2273 21.0016 11.9036C21.0015 11.9368 21.0014 11.9689 21.0014 12L20.9996 20H18.9998V30H16.9998V18L19 18L19.0014 12C19.0014 11.1642 18.958 10.832 18.7535 10.6019C18.5562 10.3801 17.9474 9.99995 16.0015 9.99995C14.0568 9.99995 13.4432 10.3796 13.2449 10.5996C13.0442 10.8224 13.0013 11.1393 13.0014 11.9416L12.9999 18H14.9996V30H12.9996V20L10.9994 20L11.0014 11.9418C11.0014 11.9127 11.0013 11.8821 11.0012 11.8509C10.9992 11.1973 10.9959 10.1078 11.7591 9.26078Z" fill="#000000" class="bmwfcol"/><path d="M26.645 3.58098C26.5833 3.63972 26.4258 3.84378 26.4258 4.50044C26.4258 5.1571 26.5833 5.36116 26.645 5.4199C26.7136 5.48531 26.8775 5.57544 27.3008 5.57544C27.7241 5.57544 27.8879 5.48531 27.9566 5.4199C28.0183 5.36116 28.1758 5.1571 28.1758 4.50044C28.1758 3.84378 28.0183 3.63972 27.9566 3.58098C27.8879 3.51557 27.7241 3.42544 27.3008 3.42544C26.8775 3.42544 26.7136 3.51557 26.645 3.58098ZM25.3691 2.24133C25.9379 1.6996 26.6741 1.57544 27.3008 1.57544C27.9275 1.57544 28.6636 1.6996 29.2325 2.24133C29.8083 2.78973 30.0258 3.58567 30.0258 4.50044C30.0258 5.41521 29.8083 6.21115 29.2325 6.75955C28.6636 7.30128 27.9275 7.42544 27.3008 7.42544C26.6741 7.42544 25.9379 7.30128 25.3691 6.75955C24.7933 6.21115 24.5758 5.41521 24.5758 4.50044C24.5758 3.58567 24.7933 2.78973 25.3691 2.24133Z" fill="#000000" class="bmwfcol"/><path d="M23.5477 9.32371C24.2789 8.38305 25.5649 7.99995 27.3996 7.99995C29.2345 7.99995 30.5203 8.38314 31.2521 9.32314C31.9062 10.1633 31.9033 11.2289 31.9015 11.9007C31.9015 11.9349 31.9014 11.968 31.9014 12L31.8996 20H29.8998V30H27.8998V18L29.9 18L29.9014 12C29.9014 11.1624 29.8625 10.7939 29.674 10.5518C29.53 10.3668 29.0649 9.99995 27.3996 9.99995C25.7341 9.99995 25.27 10.3669 25.1267 10.5512C24.9388 10.7929 24.9003 11.1608 24.9012 11.9989L24.9012 12.0003L24.8995 17.1397L24.0826 19.999H26.3996V29.999H24.3996V21.999H21.8996V20.3594L22.8996 16.8593L22.9012 12.0003C22.9011 11.9685 22.901 11.9355 22.9009 11.9016C22.8984 11.23 22.8943 10.1642 23.5477 9.32371Z" fill="#000000" class="bmwfcol"/><title>wc_unisex_rg_48</title></svg>