<svg width="48" height="48" viewBox="0 0 32 32" xmlns="http://www.w3.org/2000/svg"><path d="M14.5 16C14.5 15.1716 15.1716 14.5 16 14.5C16.8284 14.5 17.5 15.1716 17.5 16C17.5 16.8284 16.8284 17.5 16 17.5C15.1716 17.5 14.5 16.8284 14.5 16Z" fill="#000000" class="bmwfcol"/><path d="M15 12C15 11.4477 15.4477 11 16 11C16.5523 11 17 11.4477 17 12C17 12.5523 16.5523 13 16 13C15.4477 13 15 12.5523 15 12Z" fill="#000000" class="bmwfcol"/><path d="M11.1953 14.7637C11.1953 14.2114 11.643 13.7637 12.1953 13.7637C12.7476 13.7637 13.1953 14.2114 13.1953 14.7637C13.1953 15.316 12.7476 15.7637 12.1953 15.7637C11.643 15.7637 11.1953 15.316 11.1953 14.7637Z" fill="#000000" class="bmwfcol"/><path d="M12.6484 19.2363C12.6484 18.684 13.0962 18.2363 13.6484 18.2363C14.2007 18.2363 14.6484 18.684 14.6484 19.2363C14.6484 19.7886 14.2007 20.2363 13.6484 20.2363C13.0962 20.2363 12.6484 19.7886 12.6484 19.2363Z" fill="#000000" class="bmwfcol"/><path d="M18.8047 14.7637C18.8047 15.316 19.2524 15.7637 19.8047 15.7637C20.357 15.7637 20.8047 15.316 20.8047 14.7637C20.8047 14.2114 20.357 13.7637 19.8047 13.7637C19.2524 13.7637 18.8047 14.2114 18.8047 14.7637Z" fill="#000000" class="bmwfcol"/><path d="M17.3516 19.2363C17.3516 19.7886 17.7993 20.2363 18.3516 20.2363C18.9038 20.2363 19.3516 19.7886 19.3516 19.2363C19.3516 18.684 18.9038 18.2363 18.3516 18.2363C17.7993 18.2363 17.3516 18.684 17.3516 19.2363Z" fill="#000000" class="bmwfcol"/><path d="M26.2476 8C23.8697 4.9582 20.1635 3 16 3C8.8203 3 3 8.8203 3 16C3 23.1797 8.8203 29 16 29C20.1635 29 23.8697 27.0418 26.2476 24H28.7037C30.1303 21.5338 30.9999 18.8748 30.9999 16C30.9999 13.1253 30.1303 10.4662 28.7037 8H26.2476ZM16 5C19.1959 5 22.0737 6.36219 24.0845 8.54053C23.8095 8.76552 23.5618 9.02313 23.3109 9.27386L21.9417 10.643C20.4775 9.02008 18.3579 8 16 8C11.5817 8 8 11.5817 8 16C8 20.4183 11.5817 24 16 24C18.3579 24 20.4775 22.9799 21.9417 21.357L23.3107 22.726C23.5617 22.9768 23.8095 23.2345 24.0845 23.4595C22.0737 25.6378 19.1959 27 16 27C9.92487 27 5 22.0751 5 16C5 9.92487 9.92487 5 16 5ZM23.1011 12.312C23.7838 11.6294 24.5674 10.459 25.447 10.0194C25.619 9.97397 25.8251 9.99999 25.9999 10H27.5357C28.4709 11.7942 28.9999 13.834 28.9999 16C28.9999 18.166 28.4709 20.2059 27.5357 22H25.9998C25.6968 22 25.4919 22.0414 25.2622 21.8348C24.5089 21.1575 23.817 20.4039 23.1011 19.688C23.6754 18.5844 24 17.3301 24 16C24 14.6699 23.6754 13.4156 23.1011 12.312ZM16 10C19.3137 10 22 12.6863 22 16C22 19.3137 19.3137 22 16 22C12.6863 22 10 19.3137 10 16C10 12.6863 12.6863 10 16 10Z" fill="#000000" class="bmwfcol"/><title>wear-&amp;-tear_rg_48</title></svg>