<svg width="48" height="48" viewBox="0 0 32 32" xmlns="http://www.w3.org/2000/svg"><path d="M12.2571 4.25711C12.1199 4.39433 12 4.62725 12 5C12 5.37275 12.1199 5.60567 12.2571 5.74289C12.3943 5.88011 12.6272 6 13 6C13.5159 6 14.0414 6.16222 14.4396 6.5604C14.8378 6.95857 15 7.48408 15 8V9C15 9.02537 15 9.05115 15.0001 9.0773C15.0007 9.5094 15.0015 10.0436 14.8376 10.5264C14.6316 11.1332 14.2171 11.5638 13.6327 11.9082C13.0881 12.2291 12.3359 12.5108 11.3444 12.8197C10.4852 13.0874 9.38911 13.3921 8.00024 13.7667V27C8.00024 27.3106 8.10421 27.4943 8.31816 27.6419C8.58443 27.8256 9.10314 28 10.0002 28H21.9997C22.8968 28 23.4155 27.8256 23.6818 27.6419C23.8958 27.4943 23.9997 27.3106 23.9997 27V13.7667C22.6109 13.3921 21.5148 13.0874 20.6556 12.8197C19.6641 12.5108 18.9119 12.2291 18.3673 11.9082C17.7828 11.5638 17.3684 11.1332 17.1624 10.5264C16.9985 10.0436 16.9993 9.5094 16.9999 9.0773C16.9999 9.05115 17 9.02537 17 9V8C17 7.48408 17.1622 6.95857 17.5604 6.5604C17.9585 6.16222 18.4841 6 19 6C19.3727 6 19.6057 5.88011 19.7429 5.74289C19.8801 5.60567 20 5.37275 20 5C20 4.62725 19.8801 4.39433 19.7429 4.25711C19.6057 4.11989 19.3727 4 19 4H13C12.6272 4 12.3943 4.11989 12.2571 4.25711ZM10.8429 2.84289C11.4057 2.28011 12.1727 2 13 2H19C19.8272 2 20.5943 2.28011 21.1571 2.84289C21.7199 3.40567 22 4.17275 22 5C22 5.82725 21.7199 6.59433 21.1571 7.15711C20.5943 7.71989 19.8272 8 19 8V9C19 9.55544 19.0114 9.75122 19.0563 9.88357C19.0567 9.88478 19.0571 9.88605 19.0576 9.88738C19.0708 9.92726 19.1015 10.0194 19.3826 10.1851C19.713 10.3797 20.2733 10.6058 21.2504 10.9102C22.2124 11.2099 23.5056 11.5643 25.2585 12.034L25.9997 12.2326V27C25.9997 27.9294 25.6037 28.7457 24.8177 29.2881C24.0839 29.7944 23.1026 30 21.9997 30H10.0002C8.89733 30 7.91605 29.7944 7.18232 29.2881C6.39627 28.7457 6.00024 27.9294 6.00024 27V12.2326L6.74143 12.034C8.49442 11.5643 9.78753 11.2099 10.7495 10.9102C11.7267 10.6058 12.287 10.3797 12.6174 10.1851C12.8985 10.0194 12.9291 9.92726 12.9424 9.88738C12.9428 9.88605 12.9433 9.88478 12.9437 9.88357C12.9886 9.75122 13 9.55544 13 9V8C12.1727 8 11.4057 7.71989 10.8429 7.15711C10.2801 6.59433 9.99999 5.82725 9.99999 5C9.99999 4.17275 10.2801 3.40567 10.8429 2.84289Z" fill="#000000" class="bmwfcol"/><title>weight_rg_48</title></svg>