<svg width="48" height="48" viewBox="0 0 32 32" xmlns="http://www.w3.org/2000/svg"><path d="M13.0388 10.0518H15.4412L16.0001 10.3157L16.5591 10.0518H18.9615L19.8483 10.8893L19.8483 13.0992L18.7749 14.7603H16.2243L16.0001 14.5486L15.7759 14.7603H13.2632L12.152 13.1077V10.8893L13.0388 10.0518ZM13.852 11.7518V12.5893L14.1687 13.0603H15V11.7518H13.852ZM17.8494 13.0603L18.1483 12.5978L18.1483 11.7518H17V13.0603H17.8494Z" fill="#000000" class="bmwfcol"/><path d="M20 18V17.1315C17.2145 17.2995 14.7855 17.2995 12 17.1315V18H7V11.0321C7 10.3094 7.40538 9.69696 7.76518 9.2581C7.93534 9.05056 8.12988 8.84178 8.33607 8.63477C8.08878 8.62352 7.77729 8.62399 7.34816 8.62463C7.2401 8.62479 7.12383 8.62497 7 8.62497V6.62497C7.10906 6.62497 7.21564 6.62472 7.31964 6.62449L7.32162 6.62448C7.90055 6.62314 8.39946 6.62199 8.79921 6.66394C9.08017 6.69343 9.35093 6.74689 9.6112 6.84756C9.71359 6.66455 9.82399 6.47653 9.94042 6.29092C10.1544 5.94974 10.402 5.59558 10.671 5.29004C10.9259 5.00063 11.2677 4.67593 11.685 4.49273C12.1087 4.3068 12.463 4.16308 13.1218 4.08637C13.7102 4.01787 14.5591 4 16 4C18.631 4 19.3393 4.06407 20.3154 4.49289L20.3166 4.49344C20.733 4.67707 21.0743 5.00141 21.3291 5.29089C21.598 5.59638 21.8455 5.95037 22.0595 6.29144C22.1759 6.47688 22.2862 6.66473 22.3886 6.84759C22.6489 6.74688 22.9197 6.69342 23.2007 6.66394C23.6005 6.62199 24.1 6.62314 24.679 6.62448C24.7833 6.62472 24.8906 6.62497 25 6.62497V8.62497C24.876 8.62497 24.7601 8.62479 24.6519 8.62463C24.2228 8.62399 23.9113 8.62352 23.6639 8.63477C23.8701 8.84178 24.0647 9.05056 24.2348 9.2581C24.5946 9.69696 25 10.3094 25 11.0321V18H20ZM12.489 6.32402C12.489 6.32402 12.4808 6.3278 12.4643 6.33843C12.4468 6.34976 12.4229 6.36692 12.3929 6.39177C12.3317 6.44244 12.2575 6.51474 12.172 6.61178C11.9996 6.80755 11.8162 7.06434 11.6347 7.35374L11.6122 7.38978C12.3322 7.36856 13.2797 7.37055 14.5167 7.37315C14.971 7.37411 15.4645 7.37514 16 7.37514C16.5355 7.37514 17.0289 7.37411 17.4831 7.37315C18.7204 7.37055 19.6677 7.36856 20.3875 7.3898L20.3654 7.35451C20.1839 7.0652 20.0004 6.80835 19.8279 6.61238C19.7423 6.51524 19.668 6.44276 19.6066 6.39186C19.5765 6.3669 19.5525 6.34961 19.5348 6.33815C19.5187 6.32769 19.5096 6.32339 19.5096 6.32339C18.9745 6.08836 18.6792 6 16 6C14.5349 6 13.8055 6.02028 13.3531 6.07295C12.9712 6.11741 12.822 6.17788 12.489 6.32402ZM10.2805 9.54073C10.0376 9.76641 9.82155 9.97304 9.63592 10.1655C10.1723 10.2546 10.7679 10.3181 11.5 10.3739V12.3795C10.5389 12.3095 9.74668 12.2249 9 12.0836V16H10V14.9869L11.0727 15.0651C14.591 15.3216 17.409 15.3216 20.9273 15.0651L22 14.9869V16H23V12.0838C22.2533 12.2251 21.4611 12.3096 20.5 12.3797V10.3741C21.2322 10.3183 21.8278 10.2547 22.3642 10.1656C22.179 9.97362 21.9635 9.76752 21.7212 9.54238C21.6982 9.53259 21.6558 9.51743 21.5855 9.50072C21.404 9.45756 21.118 9.4225 20.6524 9.4009C19.947 9.36817 18.9609 9.3702 17.5312 9.37314L17.5302 9.37315C17.0683 9.3741 16.56 9.37514 16 9.37514C15.4405 9.37514 14.932 9.3741 14.4703 9.37315L14.4688 9.37314C13.0389 9.3702 12.0523 9.36817 11.3464 9.4009C10.8805 9.4225 10.5942 9.45756 10.4123 9.50076C10.346 9.51653 10.3044 9.53093 10.2805 9.54073Z" fill="#000000" class="bmwfcol"/><path d="M12.7134 19.4966H10.3984L7.44152 24.5685C7.1646 24.9784 6.99902 25.4533 6.99902 26C6.99902 27.5834 8.3878 28.5638 9.8479 29.1113C11.4015 29.6939 13.533 30 15.999 30C18.4651 30 20.5966 29.6939 22.1501 29.1113C23.6102 28.5638 24.999 27.5834 24.999 26C24.999 25.4515 24.8324 24.9754 24.5538 24.5645L21.5994 19.4966H19.2844L21.0644 22.55C19.6597 22.1881 17.9322 22 15.999 22C14.0657 22 12.3381 22.1881 10.9333 22.5501L12.7134 19.4966ZM10.5501 24.7613C11.7966 24.2939 13.6651 24 15.999 24C18.333 24 20.2015 24.2939 21.4479 24.7613C22.7878 25.2638 22.999 25.7834 22.999 26C22.999 26.2166 22.7878 26.7362 21.4479 27.2387C20.2015 27.7061 18.333 28 15.999 28C13.6651 28 11.7966 27.7061 10.5501 27.2387C9.21025 26.7362 8.99902 26.2166 8.99902 26C8.99902 25.7834 9.21025 25.2638 10.5501 24.7613Z" fill="#000000" class="bmwfcol"/><title>welcome-light_rg_48</title></svg>