<svg width="48" height="48" viewBox="0 0 32 32" xmlns="http://www.w3.org/2000/svg"><path d="M9.672 24.6586L10.6373 25.2226C12.2653 26.1721 14.1168 26.6705 16.0013 26.6666C21.8924 26.6666 26.668 21.891 26.668 16C26.668 10.1089 21.8924 5.33329 16.0013 5.33329C10.1103 5.33329 5.33467 10.1089 5.33467 16C5.33467 17.9146 5.83734 19.7506 6.78 21.3653L7.34267 22.3306L6.472 25.532L9.672 24.6586ZM2.67334 29.3333L4.476 22.7093C3.28819 20.6731 2.66413 18.3573 2.66799 16C2.66799 8.63596 8.63734 2.66663 16.0013 2.66663C23.3653 2.66663 29.3347 8.63596 29.3347 16C29.3347 23.364 23.3653 29.3333 16.0013 29.3333C13.645 29.3371 11.3302 28.7135 9.29467 27.5266L2.67334 29.3333ZM11.1893 9.74396C11.368 9.73063 11.548 9.73063 11.7267 9.73863C11.7987 9.74396 11.8707 9.75196 11.9427 9.75996C12.1547 9.78396 12.388 9.91329 12.4667 10.092C12.864 10.9933 13.2507 11.9013 13.624 12.812C13.7067 13.0146 13.6573 13.2746 13.5 13.528C13.3918 13.6993 13.2748 13.8648 13.1493 14.024C12.9987 14.2173 12.6747 14.572 12.6747 14.572C12.6747 14.572 12.5427 14.7293 12.5933 14.9253C12.612 15 12.6733 15.108 12.7293 15.1986L12.808 15.3253C13.1493 15.8946 13.608 16.472 14.168 17.016C14.328 17.1706 14.484 17.3293 14.652 17.4773C15.276 18.028 15.9827 18.4773 16.7453 18.8106L16.752 18.8133C16.8653 18.8626 16.9227 18.8893 17.088 18.96C17.1707 18.9946 17.256 19.0253 17.3427 19.048C17.5258 19.0946 17.719 19.0262 17.832 18.8746C18.7973 17.7053 18.8853 17.6293 18.8933 17.6293V17.632C19.029 17.5054 19.2128 17.4437 19.3973 17.4626C19.4773 17.468 19.5587 17.4826 19.6333 17.516C20.3413 17.84 21.5 18.3453 21.5 18.3453L22.276 18.6933C22.4067 18.756 22.5253 18.904 22.5293 19.0466C22.5347 19.136 22.5427 19.28 22.512 19.544C22.4693 19.8893 22.3653 20.304 22.2613 20.5213C22.1901 20.6696 22.0956 20.8056 21.9813 20.924C21.8468 21.0652 21.6995 21.1938 21.5413 21.308C21.4866 21.3491 21.4311 21.3891 21.3747 21.428C21.2088 21.5332 21.0384 21.631 20.864 21.7213C20.5207 21.9036 20.1416 22.0083 19.7533 22.028C19.5067 22.0413 19.26 22.06 19.012 22.0466C19.0013 22.0466 18.2547 21.9306 18.2547 21.9306C16.359 21.432 14.6059 20.4979 13.1347 19.2026C12.8333 18.9373 12.5547 18.652 12.2693 18.368C11.0827 17.188 10.1867 15.9146 9.64267 14.712C9.36423 14.1217 9.21383 13.4792 9.20125 12.8266C9.19584 12.0171 9.46047 11.2288 9.95334 10.5866C10.0507 10.4613 10.1427 10.3306 10.3013 10.18C10.4707 10.02 10.5773 9.93463 10.6933 9.87596C10.8476 9.79867 11.0158 9.75332 11.188 9.74263L11.1893 9.74396Z" fill="#000000" class="bmwfcol"/><title>whatsapp_rg_48</title></svg>