<svg width="48" height="48" viewBox="0 0 32 32" xmlns="http://www.w3.org/2000/svg"><path d="M14.5005 15.9999C14.5005 15.1715 15.1721 14.4999 16.0005 14.4999C16.8289 14.4999 17.5005 15.1715 17.5005 15.9999C17.5005 16.8283 16.8289 17.4999 16.0005 17.4999C15.1721 17.4999 14.5005 16.8283 14.5005 15.9999Z" fill="#000000" class="bmwfcol"/><path d="M16.0012 11.5007C13.5159 11.5007 11.5012 13.5155 11.5012 16.0007C11.5012 18.486 13.5159 20.5007 16.0012 20.5007C18.4865 20.5007 20.5012 18.486 20.5012 16.0007C20.5012 13.5155 18.4865 11.5007 16.0012 11.5007ZM13.5012 16.0007C13.5012 14.62 14.6205 13.5007 16.0012 13.5007C17.3819 13.5007 18.5012 14.62 18.5012 16.0007C18.5012 17.3814 17.3819 18.5007 16.0012 18.5007C14.6205 18.5007 13.5012 17.3814 13.5012 16.0007Z" fill="#000000" class="bmwfcol"/><path d="M6 16C6 21.5228 10.4772 26 16 26C21.5228 26 26 21.5228 26 16C26 10.4772 21.5228 6 16 6C10.4772 6 6 10.4772 6 16ZM8.75839 12.5957C9.90205 10.1671 12.2314 8.40711 15.0001 8.06188V10.083C15.3253 10.0284 15.6593 10 16 10C16.3408 10 16.6749 10.0284 17.0001 10.083V8.0619C19.7687 8.40718 22.098 10.1672 23.2416 12.5957L21.3188 13.2205C21.6246 13.8046 21.8371 14.4453 21.9364 15.1228L23.8592 14.498C23.9516 14.9845 24 15.4866 24 16C24 18.3005 23.029 20.3742 21.4744 21.8336L20.2864 20.1985C19.8193 20.6754 19.2731 21.0746 18.6692 21.3751L19.8573 23.0104C18.7134 23.6411 17.3986 24 16 24C14.6014 24 13.2867 23.6411 12.1428 23.0104L13.3309 21.3752C12.727 21.0747 12.1809 20.6754 11.7137 20.1985L10.5257 21.8337C8.97106 20.3743 8 18.3005 8 16C8 15.4866 8.04836 14.9845 8.14079 14.4979L10.0637 15.1227C10.163 14.4453 10.3754 13.8046 10.6813 13.2205L8.75839 12.5957Z" fill="#000000" class="bmwfcol"/><path d="M16 2C8.26801 2 2 8.26801 2 16C2 23.732 8.26801 30 16 30C23.732 30 30 23.732 30 16C30 8.26801 23.732 2 16 2ZM4 16C4 9.37258 9.37258 4 16 4C22.6274 4 28 9.37258 28 16C28 22.6274 22.6274 28 16 28C9.37258 28 4 22.6274 4 16Z" fill="#000000" class="bmwfcol"/><title>wheel_centre_cap_rg_48</title></svg>