<svg width="48" height="48" viewBox="0 0 32 32" xmlns="http://www.w3.org/2000/svg"><path d="M21.0725 7V10.5H22.9225V7H21.0725Z" fill="#000000" class="bmwfcol"/><path d="M21.0725 11.5V13H22.9225V11.5H21.0725Z" fill="#000000" class="bmwfcol"/><path d="M20.0988 3.02174C20.8853 1.65942 22.8516 1.65942 23.6382 3.02174L29.3615 12.9348C30.148 14.2971 29.1648 16 27.5917 16H16.1452C14.5721 16 13.5889 14.2971 14.3755 12.9348L20.0988 3.02174ZM21.8405 4.00837C21.8405 4.00837 21.8356 4.01343 21.8308 4.02174L16.1075 13.9348C16.1027 13.9431 16.1008 13.9499 16.1008 13.9499L16.1002 13.953L16.1001 13.9553C16.1002 13.9595 16.1016 13.9681 16.1075 13.9783C16.1134 13.9885 16.1201 13.9939 16.1237 13.9961L16.126 13.9973L16.1287 13.9983C16.1287 13.9983 16.1356 14 16.1452 14H27.5917C27.5975 14 27.6015 13.9996 27.6043 13.9991L27.6082 13.9983C27.6102 13.9977 27.6132 13.9961 27.6132 13.9961C27.6168 13.9939 27.6235 13.9885 27.6294 13.9783C27.6353 13.9681 27.6367 13.9595 27.6368 13.9553C27.6368 13.9553 27.6366 13.9519 27.6361 13.9499C27.6361 13.9499 27.6342 13.9431 27.6294 13.9348L21.9061 4.02174C21.9013 4.01342 21.8964 4.00837 21.8964 4.00837C21.8949 4.00691 21.892 4.00507 21.892 4.00507C21.8883 4.00304 21.8802 4 21.8685 4C21.8567 4 21.8486 4.00304 21.8449 4.00507L21.8432 4.00614L21.8405 4.00837Z" fill="#000000" class="bmwfcol"/><path d="M14.5 7C14.8265 7 15.1497 7.0136 15.4693 7.04027L14.3371 9.00137C9.16552 9.08834 5 13.3077 5 18.5C5 23.7467 9.25329 28 14.5 28C19.7467 28 24 23.7467 24 18.5C24 18.3323 23.9957 18.1656 23.9871 18H25.9893C25.9964 18.1658 26 18.3325 26 18.5C26 24.8513 20.8513 30 14.5 30C8.14873 30 3 24.8513 3 18.5C3 12.1487 8.14873 7 14.5 7Z" fill="#000000" class="bmwfcol"/><path d="M6.23077 18.5C6.23077 14.2374 9.456 10.7281 13.5993 10.2793L12.6435 11.9348C12.5143 12.1585 12.4092 12.3869 12.327 12.6176C10.85 13.1634 9.63498 14.2495 8.92169 15.6361L12.0995 16.6686C12.2712 16.4438 12.4739 16.2438 12.7011 16.075C13.0682 16.6726 13.588 17.1771 14.2205 17.5196C13.7935 17.641 13.4808 18.034 13.4808 18.5C13.4808 19.0629 13.9371 19.5192 14.5 19.5192C15.0629 19.5192 15.5192 19.0629 15.5192 18.5C15.5192 18.2854 15.4529 18.0863 15.3396 17.922C15.5977 17.973 15.8668 18 16.1452 18H17.478C17.5051 18.1626 17.5192 18.3297 17.5192 18.5C17.5192 19.138 17.3214 19.7297 16.9837 20.2172L18.9468 22.9192C20.0732 21.7858 20.7692 20.2242 20.7692 18.5C20.7692 18.3317 20.7626 18.165 20.7496 18H22.7544C22.7642 18.1654 22.7692 18.3321 22.7692 18.5C22.7692 23.067 19.067 26.7692 14.5 26.7692C9.93303 26.7692 6.23077 23.067 6.23077 18.5ZM8.23077 18.5C8.23077 20.2242 8.9268 21.7858 10.0532 22.9192L12.0163 20.2172C11.6911 19.7478 11.4956 19.1817 11.4816 18.5707L8.30407 17.5383C8.25581 17.8518 8.23077 18.173 8.23077 18.5ZM15.366 21.3932C15.0917 21.4752 14.801 21.5192 14.5 21.5192C14.199 21.5192 13.9084 21.4752 13.634 21.3932L11.6704 24.0959C12.5205 24.5266 13.4819 24.7692 14.5 24.7692C15.5181 24.7692 16.4795 24.5266 17.3296 24.0959L15.366 21.3932Z" fill="#000000" class="bmwfcol"/><title>wheel_and_warning_sign_rg_48</title></svg>