<svg width="48" height="48" viewBox="0 0 32 32" xmlns="http://www.w3.org/2000/svg"><path d="M22.835 12.5C22.835 11.8565 23.3565 11.335 24 11.335C24.6434 11.335 25.165 11.8565 25.165 12.5C25.165 13.1434 24.6434 13.665 24 13.665C23.3565 13.665 22.835 13.1434 22.835 12.5Z" fill="#000000" class="bmwfcol"/><path d="M20 7.00003C20 5.87277 20.3801 4.85569 21.1179 4.1179C21.8557 3.38012 22.8728 3 24 3C25.1273 3 26.1444 3.38012 26.8822 4.1179C27.6199 4.85569 28.0001 5.87277 28.0001 7.00003V8.02797C28.43 8.0786 28.8434 8.20327 29.1929 8.44441C29.729 8.81428 30 9.38058 30 10V14.9999C30 15.6194 29.729 16.1857 29.1929 16.5555C28.7092 16.8893 28.1029 17 27.5 17L20.5 16.9999C19.8971 16.9999 19.2908 16.8893 18.8071 16.5555C18.271 16.1857 18 15.6193 18 14.9999V10C18 9.3806 18.271 8.81429 18.8071 8.44442C19.1566 8.20327 19.57 8.07859 20 8.02796V7.00003ZM22.5321 5.53211C22.2199 5.84434 22 6.32727 22 7.00003V8L26.0001 8V7.00003C26.0001 6.32727 25.7802 5.84434 25.4679 5.53211C25.1557 5.21989 24.6728 5 24 5C23.3273 5 22.8443 5.21989 22.5321 5.53211ZM27.5 10L20.5 10C20.2278 10 20.0746 10.0373 20 10.0644V14.9356C20.0746 14.9627 20.2278 14.9999 20.5 14.9999L27.5 15C27.7722 15 27.9254 14.9627 28 14.9356V10.0644C27.9254 10.0373 27.7722 10 27.5 10Z" fill="#000000" class="bmwfcol"/><path d="M14.5 7C15.078 7 15.646 7.04264 16.2011 7.12494V9.15187C15.6492 9.0521 15.0807 9 14.5 9C9.25329 9 5 13.2533 5 18.5C5 23.7467 9.25329 28 14.5 28C19.6462 28 23.8367 23.908 23.9953 18.8003H25.9962C25.8369 25.0128 20.7509 30 14.5 30C8.14873 30 3 24.8513 3 18.5C3 12.1487 8.14873 7 14.5 7Z" fill="#000000" class="bmwfcol"/><path d="M14.5 10.2308C15.0831 10.2308 15.6521 10.2911 16.2011 10.4059V12.4643C15.9724 12.4 15.7385 12.3483 15.5 12.3101V15.6503C16.676 16.063 17.5192 17.183 17.5192 18.5C17.5192 19.138 17.3214 19.7297 16.9837 20.2172L18.9468 22.9192C20.0075 21.8519 20.6865 20.405 20.7622 18.8001L20.8011 18.8003H22.7639C22.6058 23.2282 18.9664 26.7692 14.5 26.7692C9.93303 26.7692 6.23077 23.067 6.23077 18.5C6.23077 13.933 9.93303 10.2308 14.5 10.2308ZM8.23077 18.5C8.23077 20.2242 8.9268 21.7858 10.0532 22.9192L12.0163 20.2172C11.6911 19.7478 11.4956 19.1817 11.4816 18.5707L8.30407 17.5383C8.25581 17.8518 8.23077 18.173 8.23077 18.5ZM12.0995 16.6686C12.4536 16.2051 12.9389 15.8472 13.5 15.6503V12.3101C11.5002 12.6307 9.81629 13.8971 8.92169 15.6361L12.0995 16.6686ZM15.366 21.3932C15.0917 21.4752 14.801 21.5192 14.5 21.5192C14.199 21.5192 13.9084 21.4752 13.634 21.3932L11.6704 24.0959C12.5205 24.5266 13.4819 24.7692 14.5 24.7692C15.5181 24.7692 16.4795 24.5266 17.3296 24.0959L15.366 21.3932ZM13.4808 18.5C13.4808 19.0629 13.9371 19.5192 14.5 19.5192C15.0629 19.5192 15.5192 19.0629 15.5192 18.5C15.5192 17.9371 15.0629 17.4808 14.5 17.4808C13.9371 17.4808 13.4808 17.9371 13.4808 18.5Z" fill="#000000" class="bmwfcol"/><title>wheel_and_lock_rg_48</title></svg>