<svg width="48" height="48" viewBox="0 0 32 32" xmlns="http://www.w3.org/2000/svg"><path d="M18.8866 6.00001C20.4772 6.00015 22.0372 6.2011 23.5269 6.77906C24.935 7.32539 26.2382 8.11381 27.5411 8.86853L29.9999 9.08365L30 11C30 11.6995 30.5354 12.1211 31 12.5858L31.0003 15.5773C29.8034 16.2684 28.5866 16.9604 27.1655 16.9952C26.6047 18.1803 25.3981 19 24 19C22.6038 19 21.3986 18.1825 20.8368 17H19V24H30V26H2V24H4.55051C3.90223 23.3647 3.5 22.4793 3.5 21.5C3.5 19.567 5.067 18 7 18C8.933 18 10.5 19.567 10.5 21.5C10.5 22.4793 10.0978 23.3647 9.44949 24H13V17H8.50004V15.5C8.50004 14.6716 7.82847 14 7.00004 14C6.17162 14 5.50004 14.6716 5.50004 15.5V17.0009C3.92386 16.9995 2.52401 16.679 1 16.2707L1.00027 11.4226C2.20612 10.7264 3.38894 10.0076 4.76518 9.70177C5.93254 9.44232 7.57816 9.2954 10.6006 9.03115C12.2706 7.6468 13.4632 6.84618 14.7097 6.42714C15.9815 5.99962 17.2361 5.99979 18.8866 6.00001ZM17 24V17H15V24H17ZM25.5 15.5C25.5 14.6716 24.8285 14 24 14C23.1716 14 22.5 14.6832 22.5 15.5116C22.5063 16.3347 23.1754 17 24 17C24.8284 17 25.5 16.3284 25.5 15.5ZM27.4615 14.979C28.0216 14.9346 28.5134 14.6836 29.0002 14.4165L29.0001 13.3995C28.343 12.6705 28 11.9009 28 10.9163L26.9239 10.8222C25.583 10.0461 24.2524 9.20583 22.8035 8.64364C21.7104 8.21955 20.5964 8.00002 19 8.00002C17.2068 8.00002 16.2773 8.01015 15.347 8.3229C13.8445 8.82797 12.5943 9.96786 11.4015 10.9688C9.34668 11.1484 7.21884 11.2052 5.19911 11.6541C4.38084 11.836 3.89751 12.0682 3.00021 12.5788L3.00009 14.7328C3.22353 14.7904 3.40557 14.8356 3.55641 14.871C3.85272 13.2382 5.28178 12 7.00004 12C8.76328 12 10.222 13.3039 10.4646 15H20.5354C20.778 13.3039 22.2368 12 24 12C24.878 12 25.6805 12.3233 26.2949 12.8573C26.9093 13.3913 27.3357 14.1361 27.4615 14.979ZM5.5 21.5C5.5 22.3284 6.17157 23 7 23C7.82843 23 8.5 22.3284 8.5 21.5C8.5 20.6716 7.82843 20 7 20C6.17157 20 5.5 20.6716 5.5 21.5Z" fill="#000000" class="bmwfcol"/><title>wheels-&amp;-tyre-service_rg_48</title></svg>