<svg width="48" height="48" viewBox="0 0 32 32" xmlns="http://www.w3.org/2000/svg"><path d="M27.2824 30.0001C28.1152 27.8265 28.5714 25.4665 28.5714 23C28.5714 12.191 19.809 3.42859 9 3.42859C6.5335 3.42859 4.17357 3.88485 2 4.71758V6.87823C4.14483 5.94567 6.51203 5.42859 9 5.42859C18.7044 5.42859 26.5714 13.2956 26.5714 23C26.5714 25.488 26.0543 27.8552 25.1218 30.0001H27.2824Z" fill="#000000" class="bmwfcol"/><path d="M20.9617 30.0001C22.1665 27.9458 22.8572 25.5535 22.8572 23C22.8572 19.2943 21.4027 15.9284 19.0334 13.442L17.8349 15.0917C18.7046 16.0627 19.4166 17.1779 19.9306 18.397L12.9341 20.6703C12.301 19.6036 11.2465 18.8165 10 18.5383V11.1844C11.3394 11.2962 12.6155 11.6307 13.7913 12.1507L14.99 10.5008C13.1771 9.63039 11.1455 9.14282 9.00007 9.14282C6.44651 9.14282 4.05428 9.83353 2 11.0383V13.4287C3.70941 12.1763 5.76676 11.3709 8 11.1844V18.5383C6.75349 18.8165 5.69896 19.6036 5.06592 20.6703L2 19.6741V21.7771L4.44829 22.5726C4.43524 22.7133 4.42857 22.8559 4.42857 23C4.42857 24.1581 4.85918 25.2156 5.56903 26.0211L2.67813 30.0001H5.15026L7.1864 27.1976C7.74241 27.4381 8.35563 27.5714 9 27.5714C9.64437 27.5714 10.2576 27.4381 10.8136 27.1976L12.8497 30.0001H15.3219L12.431 26.0211C13.1408 25.2156 13.5714 24.1581 13.5714 23C13.5714 22.8559 13.5648 22.7133 13.5517 22.5726L20.5483 20.2992C20.7504 21.1668 20.8572 22.0709 20.8572 23C20.8572 25.6182 20.0086 28.0383 18.5714 30.0001H20.9617ZM9 20.4286C10.4202 20.4286 11.5714 21.5799 11.5714 23C11.5714 24.4202 10.4202 25.5714 9 25.5714C7.57984 25.5714 6.42857 24.4202 6.42857 23C6.42857 21.5799 7.57984 20.4286 9 20.4286Z" fill="#000000" class="bmwfcol"/><path d="M12.9677 15.8392L14.1433 14.2212L15.7613 15.3968L14.5858 17.0148L12.9677 15.8392Z" fill="#000000" class="bmwfcol"/><path d="M16.3468 14.5878L17.9281 12.4114C17.4191 11.9818 16.8787 11.5882 16.3109 11.2346L14.7288 13.4122L16.3468 14.5878Z" fill="#000000" class="bmwfcol"/><title>wheel_and_valve_rg_48</title></svg>