<svg width="48" height="48" viewBox="0 0 32 32" xmlns="http://www.w3.org/2000/svg"><path d="M15.2474 4.06418C14.5169 4.6045 13.8817 5.26623 13.3715 6.01956C8.14143 6.34391 4 10.6884 4 16.0001C4 18.3637 4.82 20.5357 6.19103 22.2473L6.18851 22.2493C6.46048 22.6087 6.66702 23.011 6.6944 23.4648C6.72534 23.9776 6.51609 24.3578 6.35533 24.5916C6.27356 24.7105 5.99307 24.9517 5.99996 25.0976L6.00004 25.1C6 25 6.02013 25.2411 6.02997 25.2687C6.0518 25.2817 6.11592 25.4135 6.25653 25.4425C6.42447 25.4771 6.66372 25.5 7.00004 25.5H21.0001C21.3364 25.5 21.5756 25.4771 21.7435 25.4425C21.8842 25.4135 21.9483 25.2817 21.9701 25.2687C21.98 25.2411 22 25.2632 22 25.1L22.0001 25.0976C22.007 24.9517 21.7265 24.7105 21.6447 24.5916C21.484 24.3578 21.2747 23.9776 21.3057 23.4648C21.3331 23.011 21.5396 22.6087 21.8115 22.2493L21.809 22.2473C22.788 21.0251 23.486 19.5682 23.8052 17.9744L25.6192 19.011C25.1981 20.6403 24.4435 22.1355 23.4323 23.4193L23.434 23.4206C23.3975 23.4667 23.3702 23.5048 23.3499 23.5355C23.4563 23.6712 23.5637 23.8061 23.6562 23.9519C23.8331 24.2307 24 24.6087 24 25.1C24 25.7621 23.8274 26.4966 23.1468 26.9866C22.5615 27.408 21.7819 27.5 21 27.5H7.00004C6.21813 27.5 5.43854 27.408 4.85324 26.9866C4.17273 26.4966 4.00004 25.7621 4.00004 25.1C4.00004 24.6087 4.16703 24.2307 4.34386 23.9519C4.43628 23.8062 4.54389 23.6712 4.65014 23.5355C4.62987 23.5048 4.60258 23.4667 4.56611 23.4206L4.56772 23.4193C2.9595 21.3775 2 18.8009 2 16.0001C2 9.3727 7.37258 4.00012 14 4.00012C14.4212 4.00012 14.8374 4.02183 15.2474 4.06418Z" fill="#000000" class="bmwfcol"/><path d="M22.3449 18.151C21.6419 18.3662 20.8978 18.4871 20.1272 18.4991C19.7871 19.3321 19.2822 20.0801 18.6528 20.7028L16.5435 17.7996C16.5581 17.7791 16.5724 17.7583 16.5865 17.7374C15.9775 17.4497 15.4107 17.0873 14.8978 16.6622C14.6947 16.9371 14.3682 17.1154 14.0002 17.1154C13.3841 17.1154 12.8848 16.6161 12.8848 16.0001C12.8848 15.5974 13.0981 15.2446 13.4179 15.0485C13.0396 14.5021 12.7276 13.9062 12.4935 13.2726C12.1049 13.4877 11.7672 13.7834 11.5028 14.1372L8.08846 13.0278C8.88984 11.437 10.3144 10.214 12.0416 9.67941C12.1193 8.91644 12.3043 8.1852 12.5812 7.50098C8.49818 8.17759 5.38477 11.7252 5.38477 16.0001C5.38477 20.7582 9.242 24.6154 14.0002 24.6154C18.0156 24.6154 21.3895 21.8683 22.3449 18.151ZM7.47085 14.9301L10.885 16.0394C10.8931 16.6947 11.1035 17.3012 11.4567 17.7995L9.34733 20.7027C8.13552 19.5036 7.38477 17.8395 7.38477 16.0001C7.38477 15.6358 7.41421 15.2784 7.47085 14.9301ZM17.0356 21.8795C16.1265 22.3498 15.0943 22.6154 14.0002 22.6154C12.9059 22.6154 11.8737 22.3498 10.9645 21.8794L13.0743 18.9756C13.3668 19.0665 13.6777 19.1154 14.0002 19.1154C14.3225 19.1154 14.6334 19.0665 14.9258 18.9756L17.0356 21.8795Z" fill="#000000" class="bmwfcol"/><path d="M23.1422 15.667L29.9996 19.6262V17.3168L22.9795 13.2637L22.4441 13.7057C21.2744 14.6716 19.6918 14.8296 18.0465 13.8797C17.4161 13.5157 16.9354 13.08 16.5942 12.6024L18.7799 13.188C19.5849 13.4043 20.377 13.3239 21.0044 12.7611C21.5418 12.2792 21.8032 11.5665 21.9718 10.9374C22.1509 10.269 22.2427 9.52521 21.9996 8.84677C21.7277 8.08836 21.1188 7.61976 20.3527 7.39797L20.3431 7.39519L18.0645 6.78463C18.4418 6.54666 18.8416 6.39884 19.2512 6.33118C20.0805 6.19419 21.0421 6.37163 22.0465 6.95152C23.6918 7.90144 24.3462 9.35098 24.0947 10.8469L23.9795 11.5316L29.9996 15.0074V12.698L26.1422 10.4708C26.236 8.33692 25.106 6.40852 23.0465 5.21947C21.7169 4.45183 20.2904 4.13242 18.9253 4.35792C17.5502 4.58506 16.3293 5.35073 15.4091 6.5835L15.0951 7.00431L15.4871 8.16459L19.8049 9.32153C19.9599 9.36738 20.0329 9.41664 20.0636 9.44279C20.0889 9.4644 20.1037 9.48487 20.1168 9.52158C20.1546 9.6268 20.182 9.88954 20.0399 10.4198C19.9688 10.6855 19.8974 10.8858 19.8258 11.034C19.754 11.1824 19.6969 11.2473 19.6691 11.2723C19.6516 11.2879 19.6439 11.2915 19.622 11.2953C19.5877 11.3011 19.4897 11.3078 19.2982 11.2563L14.861 10.0674L13.9258 10.892L14.0092 11.4327C14.275 13.1566 15.3578 14.6368 17.0465 15.6118C19.106 16.8008 21.341 16.8152 23.1422 15.667Z" fill="#000000" class="bmwfcol"/><title>wheel_and_wrench_rg_48</title></svg>