<svg width="48" height="48" viewBox="0 0 32 32" xmlns="http://www.w3.org/2000/svg"><path d="M16.0005 12.4999C14.4149 12.4999 13.0756 13.5542 12.6454 15H10.4995V17H12.6455C13.0758 18.4457 14.415 19.4999 16.0005 19.4999C17.586 19.4999 18.9252 18.4457 19.3555 17H21.5V15H19.3556C18.9254 13.5542 17.586 12.4999 16.0005 12.4999ZM14.5005 15.9999C14.5005 15.1715 15.1721 14.4999 16.0005 14.4999C16.8289 14.4999 17.5005 15.1715 17.5005 15.9999C17.5005 16.8283 16.8289 17.4999 16.0005 17.4999C15.1721 17.4999 14.5005 16.8283 14.5005 15.9999Z" fill="#000000" class="bmwfcol"/><path d="M16 6C21.5228 6 26 10.4772 26 16C26 21.5228 21.5228 26 16 26C10.4772 26 6 21.5228 6 16C6 10.4772 10.4772 6 16 6ZM15 8.06189C12.2313 8.40714 9.90205 10.1672 8.7584 12.5957L10.1998 13.064C9.9015 13.6522 9.69002 14.292 9.58225 14.9663L8.14079 14.4979C8.04837 14.9844 8 15.4866 8 16C8 18.3005 8.97103 20.3742 10.5256 21.8336L12.3114 19.3756C12.7631 19.8689 13.3124 20.2713 13.9288 20.5522L12.1428 23.0104C13.2866 23.6411 14.6014 24 16 24C17.3986 24 18.7134 23.6411 19.8572 23.0104L18.0712 20.5522C18.6876 20.2713 19.2369 19.8689 19.6886 19.3756L21.4744 21.8336C23.029 20.3742 24 18.3005 24 16C24 15.4866 23.9516 14.9844 23.8592 14.4979L22.4187 14.9659C22.3109 14.2916 22.0993 13.6519 21.801 13.0637L23.2416 12.5956C22.0979 10.1671 19.7686 8.40714 17 8.06189V11.1C16.6769 11.0344 16.3425 11 16 11C15.6575 11 15.3231 11.0344 15 11.1V8.06189Z" fill="#000000" class="bmwfcol"/><path d="M2 16C2 8.26801 8.26801 2 16 2C23.732 2 30 8.26801 30 16C30 23.732 23.732 30 16 30C8.26801 30 2 23.732 2 16ZM16 4C9.37258 4 4 9.37258 4 16C4 22.6274 9.37258 28 16 28C22.6274 28 28 22.6274 28 16C28 9.37258 22.6274 4 16 4Z" fill="#000000" class="bmwfcol"/><title>wheel_centre-lock_rg_48</title></svg>