<svg width="48" height="48" viewBox="0 0 32 32" xmlns="http://www.w3.org/2000/svg"><path d="M9.44102 2.06201C8.94554 2.06201 8.3219 2.15938 7.83277 2.62522C7.33663 3.09773 7.16602 3.76867 7.16602 4.48701C7.16602 5.20535 7.33663 5.87629 7.83277 6.3488C8.3219 6.81464 8.94554 6.91201 9.44101 6.91201C9.93649 6.91201 10.5601 6.81464 11.0493 6.3488C11.5454 5.87629 11.716 5.20536 11.716 4.48701C11.716 3.76867 11.5454 3.09773 11.0493 2.62522C10.5601 2.15938 9.93649 2.06201 9.44102 2.06201ZM9.01602 4.48701C9.01601 4.26204 9.04334 4.12444 9.06908 4.04692C9.08148 4.00957 9.09282 3.98822 9.09924 3.97775C9.1025 3.97243 9.10492 3.96921 9.10626 3.96754C9.1076 3.96588 9.10863 3.96487 9.10863 3.96487L9.11008 3.9637C9.11008 3.9637 9.11272 3.96184 9.11596 3.96005C9.12237 3.95649 9.1363 3.94977 9.16119 3.94237C9.21416 3.92664 9.30277 3.91201 9.44102 3.91201C9.57926 3.91201 9.66787 3.92664 9.72084 3.94237C9.74573 3.94977 9.75966 3.95649 9.76607 3.96005C9.76931 3.96184 9.77195 3.9637 9.77195 3.9637L9.7734 3.96488L9.77439 3.96591L9.77577 3.96754C9.77711 3.96921 9.77953 3.97243 9.78279 3.97775C9.78921 3.98822 9.80055 4.00957 9.81295 4.04692C9.83869 4.12444 9.86601 4.26204 9.86601 4.48701C9.86601 4.71199 9.83869 4.84958 9.81295 4.9271C9.80055 4.96445 9.78921 4.9858 9.78279 4.99627C9.77953 5.0016 9.77711 5.00481 9.77577 5.00649C9.77443 5.00814 9.7734 5.00915 9.7734 5.00915L9.77195 5.01033C9.77195 5.01033 9.76931 5.01218 9.76607 5.01398C9.75966 5.01753 9.74573 5.02426 9.72084 5.03165C9.66787 5.04738 9.57926 5.06201 9.44102 5.06201C9.30277 5.06201 9.21416 5.04738 9.16119 5.03165C9.1363 5.02426 9.12237 5.01753 9.11596 5.01398C9.11272 5.01218 9.11008 5.01033 9.11008 5.01033L9.10863 5.00915C9.10863 5.00915 9.1076 5.00814 9.10627 5.00649C9.10492 5.00481 9.1025 5.0016 9.09924 4.99627C9.09282 4.9858 9.08148 4.96445 9.06908 4.9271C9.04334 4.84958 9.01602 4.71199 9.01602 4.48701Z" fill="#000000" class="bmwfcol"/><path d="M20.1249 19.9573L18.1249 20.4932L15.5367 16.0104L10.9481 17.2399L10.6893 17.1706C10.0598 17.0019 9.54618 16.8534 9.13428 16.7001C8.72349 16.5473 8.34921 16.367 8.03625 16.1054C7.41228 15.5837 7.22596 14.8796 7.0635 14.2656C6.85977 13.4988 6.65251 12.733 6.44524 11.9672L6.35198 11.6226C6.24744 11.2361 6.14268 10.8498 6.03781 10.4634L6.03678 10.4596C5.86893 9.8332 6.02636 9.17431 6.5591 8.64744C7.02415 8.18751 7.73522 7.86419 8.64095 7.6215C9.54669 7.37881 10.3241 7.30328 10.9569 7.46907C11.6813 7.65888 12.147 8.15036 12.315 8.77633L13.8275 14.3979L16.5015 13.6814L20.1249 19.9573ZM7.99578 10.0419C8.32028 11.2376 8.64346 12.4337 8.96413 13.6304C9.18087 14.4393 9.23268 14.4987 9.31898 14.5709C9.38126 14.6229 9.51481 14.7078 9.83176 14.8257C10.1023 14.9264 10.4596 15.0347 10.9495 15.169L11.8956 14.9155L10.4104 9.39516C10.2501 9.36626 9.87604 9.36111 9.15859 9.55335C8.44189 9.74539 8.12045 9.93668 7.99578 10.0419Z" fill="#000000" class="bmwfcol"/><path d="M10.1827 22.0338C11.8667 21.5826 13.0011 20.1043 13.0927 18.4535L15.0918 17.9433C15.2289 20.6761 13.4504 23.2288 10.7004 23.9657C7.53537 24.8137 4.28216 22.9355 3.4341 19.7705C2.841 17.557 3.58135 15.3004 5.16272 13.8535L5.77854 16.2348C5.26008 17.1126 5.08123 18.1902 5.36595 19.2528C5.92812 21.3509 8.08467 22.596 10.1827 22.0338Z" fill="#000000" class="bmwfcol"/><path d="M4 26.6789V28.757L22.6383 23.5H28V21.5H22.3617L4 26.6789Z" fill="#000000" class="bmwfcol"/><title>wheelchair_ramp_rg_48</title></svg>