<svg width="48" height="48" viewBox="0 0 32 32" xmlns="http://www.w3.org/2000/svg"><path d="M16.0004 2.57544C15.3737 2.57544 14.6375 2.6996 14.0687 3.24133C13.4929 3.78973 13.2754 4.58567 13.2754 5.50044C13.2754 6.41521 13.4929 7.21115 14.0687 7.75955C14.6375 8.30128 15.3737 8.42544 16.0004 8.42544C16.6271 8.42544 17.3633 8.30128 17.9321 7.75955C18.5079 7.21115 18.7254 6.41521 18.7254 5.50044C18.7254 4.58567 18.5079 3.78973 17.9321 3.24133C17.3633 2.6996 16.6271 2.57544 16.0004 2.57544ZM15.1254 5.50044C15.1254 4.84378 15.2829 4.63972 15.3446 4.58098C15.4133 4.51557 15.5771 4.42544 16.0004 4.42544C16.4237 4.42544 16.5875 4.51557 16.6562 4.58098C16.7179 4.63972 16.8754 4.84378 16.8754 5.50044C16.8754 6.1571 16.7179 6.36116 16.6562 6.4199C16.5875 6.48531 16.4237 6.57544 16.0004 6.57544C15.5771 6.57544 15.4133 6.48531 15.3446 6.4199C15.2829 6.36116 15.1254 6.1571 15.1254 5.50044Z" fill="#000000" class="bmwfcol"/><path d="M27.1793 28H25.1087L23.2331 21L15.7326 21L15.5006 20.866C14.7486 20.4319 14.1503 20.0701 13.6867 19.7405C13.224 19.4116 12.8388 19.0759 12.5573 18.6755C11.9967 17.8781 11.9985 17.009 12.0002 16.1436L12.0004 16V11.5C12.0004 11.1769 12.0389 10.7972 12.2085 10.4271C12.3886 10.0341 12.682 9.72663 13.0667 9.50676C13.7553 9.1133 14.7476 9 16.0004 9C17.2532 9 18.2455 9.1133 18.934 9.50676C19.3188 9.72663 19.6121 10.0341 19.7923 10.4271C19.9619 10.7972 20.0004 11.1769 20.0004 11.5V19L24.7678 19L27.1793 28ZM14.0004 11.5V16C14.0004 17.0874 14.035 17.2999 14.1935 17.5253C14.2871 17.6584 14.4644 17.8395 14.8455 18.1105C15.1853 18.352 15.6422 18.6343 16.2696 19L18.0004 19V11.5C18.0004 11.3485 17.9828 11.2844 17.9763 11.266C17.9708 11.2615 17.96 11.2537 17.9417 11.2432C17.7553 11.1367 17.2476 11 16.0004 11C14.7532 11 14.2455 11.1367 14.059 11.2432C14.0408 11.2537 14.03 11.2615 14.0244 11.266C14.018 11.2844 14.0004 11.3485 14.0004 11.5Z" fill="#000000" class="bmwfcol"/><path d="M18.917 23C18.441 25.8377 15.973 28 13 28C9.68629 28 7 25.3137 7 22C7 19.7792 8.2066 17.8401 10 16.8027V14.5815C7.06817 15.7683 5 18.6426 5 22C5 26.4183 8.58172 30 13 30C17.0796 30 20.446 26.9463 20.9381 23H18.917Z" fill="#000000" class="bmwfcol"/><title>wheelchair_rg_48</title></svg>