<svg width="48" height="48" viewBox="0 0 32 32" xmlns="http://www.w3.org/2000/svg"><path d="M16 6C10.4772 6 6 10.4772 6 16C6 21.5228 10.4772 26 16 26C21.5228 26 26 21.5228 26 16C26 10.4772 21.5228 6 16 6ZM8 16C8 15.4866 8.04836 14.9845 8.14077 14.498L12.501 15.9148C12.5003 15.9431 12.5 15.9715 12.5 16C12.5 16.7994 12.768 17.5363 13.2191 18.1255L10.5253 21.8333C8.97089 20.3739 8 18.3003 8 16ZM13.1186 14.0125L8.75835 12.5958C9.90191 10.1674 12.231 8.40738 14.9994 8.06196V12.6451C14.227 12.8751 13.5664 13.3646 13.1186 14.0125ZM16.9994 12.6448V8.06182C19.7683 8.4069 22.0977 10.1669 23.2415 12.5955L18.8811 14.0122C18.4332 13.3642 17.7722 12.8746 16.9994 12.6448ZM19.499 15.9144L23.8592 14.4977C23.9516 14.9843 24 15.4865 24 16C24 18.3007 23.0288 20.3745 21.4741 21.8339L18.7803 18.1263C19.2318 17.5369 19.5 16.7998 19.5 16C19.5 15.9714 19.4997 15.9429 19.499 15.9144ZM17.1626 19.3023L19.8569 23.0106C18.7131 23.6412 17.3984 24 16 24C14.6012 24 13.2863 23.641 12.1424 23.0102L14.8365 19.302C15.2005 19.4302 15.5921 19.5 16 19.5C16.4076 19.5 16.7988 19.4303 17.1626 19.3023ZM14.5 16C14.5 15.1716 15.1716 14.5 16 14.5C16.8284 14.5 17.5 15.1716 17.5 16C17.5 16.8284 16.8284 17.5 16 17.5C15.1716 17.5 14.5 16.8284 14.5 16Z" fill="#000000" class="bmwfcol"/><path d="M16 2C8.26801 2 2 8.26801 2 16C2 23.732 8.26801 30 16 30C23.732 30 30 23.732 30 16C30 8.26801 23.732 2 16 2ZM4 16C4 9.37258 9.37258 4 16 4C22.6274 4 28 9.37258 28 16C28 22.6274 22.6274 28 16 28C9.37258 28 4 22.6274 4 16Z" fill="#000000" class="bmwfcol"/><title>wheel_rg_48</title></svg>