<svg width="48" height="48" viewBox="0 0 32 32" xmlns="http://www.w3.org/2000/svg"><path d="M30.2469 11.7535C30.0874 11.5799 29.9243 11.4097 29.7575 11.2429C26.3947 7.88011 21.6277 6 16.0004 6C10.3732 6 5.60605 7.88011 2.24327 11.2429C2.07648 11.4097 1.91335 11.5799 1.75391 11.7535L3.16962 13.1692C3.32826 12.9944 3.49091 12.8237 3.65748 12.6571C6.5947 9.71989 10.8277 8 16.0004 8C21.1732 8 25.4061 9.71989 28.3433 12.6571C28.5099 12.8237 28.6725 12.9944 28.8312 13.1692L30.2469 11.7535Z" fill="#000000" class="bmwfcol"/><path d="M25.892 16.1084C25.736 15.9317 25.5744 15.7598 25.4075 15.5929C23.0947 13.2801 19.8277 12 16.0004 12C12.1732 12 8.90605 13.2801 6.59327 15.5929C6.42636 15.7598 6.26482 15.9317 6.10876 16.1084L7.52635 17.526C7.6806 17.3465 7.84105 17.1735 8.00748 17.0071C9.8947 15.1199 12.6277 14 16.0004 14C19.3732 14 22.1061 15.1199 23.9933 17.0071C24.1597 17.1735 24.3202 17.3465 24.4744 17.526L25.892 16.1084Z" fill="#000000" class="bmwfcol"/><path d="M21.0575 19.9429C21.225 20.1104 21.3822 20.2867 21.529 20.4714L20.101 21.8995C19.9618 21.7035 19.8088 21.5226 19.6433 21.3571C18.8061 20.5199 17.5732 20 16.0004 20C14.4277 20 13.1947 20.5199 12.3575 21.3571C12.192 21.5226 12.039 21.7035 11.8999 21.8995L10.4718 20.4714C10.6186 20.2867 10.7758 20.1104 10.9433 19.9429C12.2061 18.6801 13.9732 18 16.0004 18C18.0277 18 19.7947 18.6801 21.0575 19.9429Z" fill="#000000" class="bmwfcol"/><path d="M14.5004 25C14.5004 24.1716 15.172 23.5 16.0004 23.5C16.8288 23.5 17.5004 24.1716 17.5004 25C17.5004 25.8284 16.8288 26.5 16.0004 26.5C15.172 26.5 14.5004 25.8284 14.5004 25Z" fill="#000000" class="bmwfcol"/><title>wifi-wave_rg_48</title></svg>