<svg width="48" height="48" viewBox="0 0 32 32" xmlns="http://www.w3.org/2000/svg"><path d="M12.495 1.51612L14.6724 0.932861L15.1151 1.88219C16.5581 4.97653 17.3488 6.67212 17.6712 7.87509C17.8479 8.53462 17.8981 9.08699 17.8411 9.66465C17.8132 9.94871 17.7592 10.2324 17.6916 10.5222C18.1079 10.8069 18.4488 11.1938 18.6781 11.6467L25.2119 13.3975C26.579 13.7638 27.113 14.6896 27.4737 15.3149L27.6993 15.7057L27.1157 17.8831L26.0722 17.7918C22.671 17.4943 20.8072 17.3313 19.6042 17.0089C18.9484 16.8332 18.4468 16.6021 17.9773 16.267L19 27.9564V28.0001H26V30.0001H6V28.0001H13V27.9564L13.8751 17.9542L11.0511 20.7782C10.0503 21.779 8.98146 21.7785 8.25965 21.7782L7.80837 21.7782L6.21454 20.1842L6.81534 19.3261C8.77365 16.5292 9.84667 14.9967 10.7273 14.1161C11.2101 13.6333 11.6634 13.3136 12.1921 13.0741C12.4518 12.9564 12.724 12.8614 13.0083 12.7751C13.047 12.2539 13.2188 11.7697 13.4899 11.3564L11.7397 4.82437C11.3734 3.45731 11.9082 2.53189 12.2693 1.90693L12.495 1.51612ZM15.0038 28.0001H16.9962L16 16.6136L15.0038 28.0001ZM16 14.0001C16.5523 14.0001 17 13.5524 17 13.0001C17 12.4478 16.5523 12.0001 16 12.0001C15.4477 12.0001 15 12.4478 15 13.0001C15 13.5524 15.4477 14.0001 16 14.0001ZM18.7122 14.2839C18.8655 14.426 18.9988 14.5385 19.1344 14.6357C19.3852 14.8154 19.6625 14.954 20.1218 15.0771C21.0241 15.3188 22.4561 15.4648 25.3487 15.7205C25.1816 15.5287 24.9933 15.4095 24.6943 15.3293L18.8986 13.7764C18.8516 13.9525 18.7889 14.1222 18.7122 14.2839ZM13.5322 14.7064C13.333 14.768 13.1692 14.8271 13.0175 14.8958C12.7364 15.0231 12.4778 15.194 12.1415 15.5303C11.481 16.1908 10.6386 17.3579 8.97093 19.7351C9.22053 19.6864 9.41793 19.5829 9.63684 19.364L13.8791 15.1218C13.7514 14.9942 13.6352 14.8552 13.5322 14.7064ZM15.8508 9.46855C15.881 9.1615 15.8624 8.85203 15.7393 8.39271C15.4976 7.49048 14.908 6.17734 13.6831 3.54447C13.6005 3.78501 13.5914 4.00769 13.6715 4.30673L15.2242 10.1014C15.3963 10.0554 15.5745 10.0244 15.7573 10.0098C15.8037 9.80615 15.8344 9.63454 15.8508 9.46855Z" fill="#000000" class="bmwfcol"/><title>wind_turbine_rg_48</title></svg>