<svg width="48" height="48" viewBox="0 0 32 32" xmlns="http://www.w3.org/2000/svg"><path d="M23.3054 2V3.65752L22.0804 2.95028V4.74006L23.3054 5.4473V6.37938L22.1984 7.0185L21.3915 6.5526V5.13807L19.8415 4.24318V5.65771L18.4059 4.82885L17.6309 6.17119L19.0663 6.99996L17.8413 7.7072L19.3913 8.6021L20.6163 7.89485L21.4235 8.36085V9.63914L20.6164 10.1051L19.3915 9.39784L17.8415 10.2927L19.0664 11L17.6309 11.8288L18.4059 13.1711L19.8413 12.3424V13.7569L21.3913 12.8621V11.4475L22.1985 10.9815L23.3054 11.6206V12.5527L22.0804 13.2599V15.0497L23.3054 14.3425V16H24.8554V14.3422L26.0804 15.0495V13.2597L24.8554 12.5524V11.6207L25.9625 10.9815L26.7696 11.4475V12.862L28.3196 13.7569V12.3424L29.7552 13.1712L30.5302 11.8288L29.0945 10.9999L30.3195 10.2927L28.7695 9.39779L27.5445 10.1051L26.7376 9.63916V8.36083L27.5447 7.89483L28.7697 8.6021L30.3197 7.70721L29.0947 6.99994L30.5301 6.17118L29.7551 4.82884L28.3196 5.65767V4.2432L26.7696 5.1381V6.55256L25.9626 7.01849L24.8554 6.37928V5.44758L26.0804 4.74031V2.95053L24.8554 3.65779V2H23.3054ZM23.2735 8.53403L24.0805 8.06808L24.8876 8.53403V9.46593L24.0805 9.93188L23.2735 9.46593V8.53403Z" fill="#000000" class="bmwfcol"/><path d="M15.9987 7.49633C15.3526 7.1785 14.6517 6.99951 13.9041 6.99951H9.05769C6.87602 6.99951 5.0914 8.52406 3.90807 10.5752C2.70944 12.6528 2 15.4566 2 18.4995C2 21.5424 2.70944 24.3462 3.90807 26.4239C5.0914 28.475 6.87602 29.9995 9.05769 29.9995H13.9041C16.0858 29.9995 17.8704 28.475 19.0538 26.4239C20.2524 24.3462 20.9618 21.5424 20.9618 18.4995C20.9618 17.6437 20.9057 16.8068 20.7984 15.9997H18.7786C18.8976 16.7935 18.9618 17.6311 18.9618 18.4995C18.9618 21.2556 18.3152 23.7018 17.3214 25.4244C16.3123 27.1736 15.068 27.9995 13.9041 27.9995H9.05769C7.8938 27.9995 6.64956 27.1736 5.64044 25.4244C4.64662 23.7018 4 21.2556 4 18.4995C4 15.7434 4.64662 13.2972 5.64044 11.5746C6.64956 9.82547 7.8938 8.99951 9.05769 8.99951H13.9041C14.596 8.99951 15.3163 9.29138 15.9987 9.89555V7.49633Z" fill="#000000" class="bmwfcol"/><path d="M13.9028 10.6343C14.6495 10.6343 15.2856 10.9789 15.7799 11.4494C16.2691 11.915 16.6642 12.5414 16.9742 13.239C17.5954 14.6366 17.9541 16.4974 17.9541 18.4997C17.9541 20.5019 17.5954 22.3627 16.9742 23.7604C16.6642 24.4579 16.2691 25.0844 15.7799 25.5499C15.2856 26.0204 14.6495 26.3651 13.9028 26.3651C13.1562 26.3651 12.5201 26.0204 12.0258 25.5499C11.5366 25.0844 11.1415 24.4579 10.8315 23.7604C10.2103 22.3627 9.85156 20.5019 9.85156 18.4997C9.85156 16.4974 10.2103 14.6366 10.8315 13.239C11.1415 12.5414 11.5366 11.915 12.0258 11.4494C12.5201 10.9789 13.1562 10.6343 13.9028 10.6343ZM12.1875 15.4803C11.9768 16.36 11.8516 17.3879 11.8516 18.4997C11.8516 19.6114 11.9768 20.6392 12.1875 21.5189C12.3845 20.6289 12.5007 19.6047 12.5007 18.4995C12.5007 17.3945 12.3845 16.3703 12.1875 15.4803ZM13.4318 24.1266C13.6532 24.3285 13.8107 24.3651 13.9028 24.3651C13.9988 24.3651 14.1654 24.3255 14.4012 24.1011C14.642 23.8719 14.9045 23.4929 15.1466 22.9481C15.6298 21.861 15.9541 20.2891 15.9541 18.4997C15.9541 16.7103 15.6298 15.1384 15.1466 14.0512C14.9045 13.5064 14.642 13.1274 14.4012 12.8982C14.1654 12.6738 13.9988 12.6343 13.9028 12.6343C13.8107 12.6343 13.6532 12.6708 13.4319 12.8727C14.1114 14.3598 14.5007 16.3579 14.5007 18.4995C14.5007 20.6412 14.1114 22.6394 13.4318 24.1266Z" fill="#000000" class="bmwfcol"/><title>winter_tyre_rg_48</title></svg>