<svg width="48" height="48" viewBox="0 0 32 32" xmlns="http://www.w3.org/2000/svg"><path d="M6.99986 3.99788V1.68848L9.00198 2.8444L10.9999 1.69092V4.00032L10.0018 4.57655V6.11267L10.998 6.6878L12.3274 5.92027V4.76782L14.3274 3.61312L14.3274 5.92029L16.3293 7.0761L14.3293 8.2308L13.3274 7.65233L12.0019 8.41761V9.57635L13.3295 10.3429L14.3271 9.76689L16.3271 10.9216L14.3294 12.0749L14.3294 14.3871L12.3294 13.2324V12.0749L11.0022 11.3086L10.0018 11.8862V13.422L10.9999 13.9983V16.3077L9.00198 15.1542L6.99986 16.3101V14.0007L8.00181 13.4222V11.8862L6.99797 11.3066L5.66731 12.0749V13.2318L3.66731 14.3865L3.66731 12.0754L1.66878 10.9216L3.66878 9.76687L4.66683 10.3431L6.00185 9.57231V8.42165L4.66937 7.65234L3.66697 8.23108L1.66697 7.07638L3.66937 5.92029V3.61366L5.66937 4.76836L5.66937 5.92029L7.00223 6.68982L8.00181 6.11272V4.57636L6.99986 3.99788ZM8.00185 8.42209V9.57679L9.00185 10.1541L10.0019 9.57679V8.42209L9.00185 7.84474L8.00185 8.42209Z" fill="#000000" class="bmwfcol"/><path d="M24.0001 11.4141L30.7072 4.70697L29.293 3.29275L24.0001 8.58565L21.7072 6.29275L20.293 7.70697L24.0001 11.4141Z" fill="#000000" class="bmwfcol"/><path d="M18.8866 14.9998C20.4772 14.9999 22.0372 15.2009 23.5269 15.7788C24.935 16.3252 26.2382 17.1136 27.5411 17.8683L29.9999 18.0834L30 19.9998C30 20.6993 30.5354 21.1209 31 21.5855L31.0003 24.5771C29.8034 25.2681 28.5865 25.9599 27.1655 25.995C26.6048 27.1801 25.3981 27.9998 24 27.9998C22.6038 27.9998 21.3986 27.1823 20.8369 25.9998H10.1632C9.6015 27.1823 8.39624 27.9998 7.00004 27.9998C5.588 27.9998 4.37127 27.1636 3.81799 25.9594C2.86097 25.8268 1.93052 25.5198 1 25.2705L1.00027 20.4224C2.20612 19.7262 3.38894 19.0074 4.76518 18.7016C5.93254 18.4421 7.57816 18.2952 10.6006 18.0309C12.2706 16.6466 13.4632 15.846 14.7097 15.4269C15.9815 14.9994 17.2361 14.9996 18.8866 14.9998ZM27.4615 23.9789C28.0215 23.9344 28.5135 23.6833 29.0002 23.4163L29.0001 22.3993C28.343 21.6703 28 20.9006 28 19.9161L26.9239 19.822C25.583 19.0459 24.2524 18.2056 22.8035 17.6434C21.7104 17.2193 20.5964 16.9998 19 16.9998C17.2068 16.9998 16.2773 17.0099 15.347 17.3227C13.8445 17.8278 12.5943 18.9676 11.4015 19.9685C9.34668 20.1482 7.21884 20.205 5.19911 20.6539C4.38084 20.8358 3.89751 21.068 3.00021 21.5786L3.00009 23.7327C3.22407 23.7905 3.40574 23.8356 3.55638 23.871C3.8526 22.2381 5.28171 20.9998 7.00004 20.9998C8.76328 20.9998 10.222 22.3037 10.4646 23.9998H20.5355C20.7781 22.3037 22.2368 20.9998 24 20.9998C25.756 20.9998 27.21 22.2929 27.4615 23.9789ZM5.50004 24.4998C5.50004 25.3282 6.17162 25.9998 7.00004 25.9998C7.82847 25.9998 8.50004 25.3282 8.50004 24.4998C8.50004 23.6714 7.82847 22.9998 7.00004 22.9998C6.17162 22.9998 5.50004 23.6714 5.50004 24.4998ZM22.5 24.4998C22.5 25.3282 23.1716 25.9998 24 25.9998C24.8285 25.9998 25.5 25.3282 25.5 24.4998C25.5 23.6714 24.8285 22.9998 24 22.9998C23.1716 22.9998 22.5 23.6714 22.5 24.4998Z" fill="#000000" class="bmwfcol"/><title>winter-check_rg_48</title></svg>