<svg width="48" height="48" viewBox="0 0 32 32" xmlns="http://www.w3.org/2000/svg"><path d="M23.3054 2V3.65752L22.0804 2.95028V4.74006L23.3054 5.4473V6.37938L22.1984 7.0185L21.3915 6.5526V5.13807L19.8415 4.24318V5.65771L18.4059 4.82885L17.6309 6.17119L19.0663 6.99996L17.8413 7.7072L19.3913 8.6021L20.6163 7.89485L21.4235 8.36085V9.63914L20.6164 10.1051L19.3915 9.39784L17.8415 10.2927L19.0664 11L17.6309 11.8288L18.4059 13.1711L19.8413 12.3424V13.7569L21.3913 12.8621V11.4475L22.1985 10.9815L23.3054 11.6206V12.5527L22.0804 13.2599V15.0497L23.3054 14.3425V16H24.8554V14.3422L26.0804 15.0495V13.2597L24.8554 12.5524V11.6207L25.9625 10.9815L26.7696 11.4475V12.862L28.3196 13.7569V12.3424L29.7552 13.1712L30.5302 11.8288L29.0945 10.9999L30.3195 10.2927L28.7695 9.39779L27.5445 10.1051L26.7376 9.63916V8.36083L27.5447 7.89483L28.7697 8.6021L30.3197 7.70721L29.0947 6.99994L30.5301 6.17118L29.7551 4.82884L28.3196 5.65767V4.2432L26.7696 5.1381V6.55256L25.9626 7.01849L24.8554 6.37928V5.44758L26.0804 4.74031V2.95053L24.8554 3.65779V2H23.3054ZM23.2735 8.53403L24.0805 8.06808L24.8876 8.53403V9.46593L24.0805 9.93188L23.2735 9.46593V8.53403Z" fill="#000000" class="bmwfcol"/><path d="M14.5 7C14.9126 7 15.3201 7.02173 15.7214 7.0641C15.5766 7.68596 15.5 8.33404 15.5 9L15.5002 9.05202C15.1715 9.01763 14.8378 9 14.5 9C9.25329 9 5 13.2533 5 18.5C5 23.7467 9.25329 28 14.5 28C19.7467 28 24 23.7467 24 18.5C24 18.1622 23.9824 17.8285 23.948 17.4998L24 17.5C24.666 17.5 25.314 17.4234 25.9359 17.2786C25.9783 17.6799 26 18.0874 26 18.5C26 24.8513 20.8513 30 14.5 30C8.14873 30 3 24.8513 3 18.5C3 12.1487 8.14873 7 14.5 7Z" fill="#000000" class="bmwfcol"/><path d="M14.5 10.2308C9.93303 10.2308 6.23077 13.933 6.23077 18.5C6.23077 23.067 9.93303 26.7692 14.5 26.7692C19.067 26.7692 22.7692 23.067 22.7692 18.5C22.7692 18.1273 22.7446 17.7604 22.6968 17.4007C21.3753 17.1974 20.1542 16.6897 19.1073 15.9515L16.9005 16.6686C16.5464 16.2051 16.0611 15.8472 15.5 15.6503V12.3101C15.7523 12.3505 15.9995 12.406 16.2408 12.4756C15.9351 11.7943 15.7166 11.0655 15.5993 10.3032C15.2396 10.2554 14.8727 10.2308 14.5 10.2308ZM8.23077 18.5C8.23077 18.173 8.25581 17.8518 8.30407 17.5383L11.4816 18.5707C11.4956 19.1817 11.6911 19.7478 12.0163 20.2172L10.0532 22.9192C8.9268 21.7858 8.23077 20.2242 8.23077 18.5ZM12.0995 16.6686L8.92169 15.6361C9.81629 13.8971 11.5002 12.6307 13.5 12.3101V15.6503C12.9389 15.8472 12.4536 16.2051 12.0995 16.6686ZM17.5184 18.5707L20.6959 17.5383C20.7442 17.8518 20.7692 18.173 20.7692 18.5C20.7692 20.2242 20.0732 21.7858 18.9468 22.9192L16.9837 20.2172C17.3089 19.7478 17.5044 19.1817 17.5184 18.5707ZM15.366 21.3932L17.3296 24.0959C16.4795 24.5266 15.5181 24.7692 14.5 24.7692C13.4819 24.7692 12.5205 24.5266 11.6704 24.0959L13.634 21.3932C13.9084 21.4752 14.199 21.5192 14.5 21.5192C14.801 21.5192 15.0917 21.4752 15.366 21.3932ZM13.4808 18.5C13.4808 17.9371 13.9371 17.4808 14.5 17.4808C15.0629 17.4808 15.5192 17.9371 15.5192 18.5C15.5192 19.0629 15.0629 19.5192 14.5 19.5192C13.9371 19.5192 13.4808 19.0629 13.4808 18.5Z" fill="#000000" class="bmwfcol"/><title>winter_wheel_rg_48</title></svg>