<svg width="48" height="48" viewBox="0 0 32 32" xmlns="http://www.w3.org/2000/svg"><path d="M10.4311 21.1562C10.1989 21.2636 9.97159 21.3783 9.74935 21.5H9.63949L4.0396 11.8007C5.14465 11.2069 6.32323 10.7005 7.57017 10.2883L14.621 25.4089C14.5431 25.5903 14.5 25.7901 14.5 26C14.5 26.8285 15.1716 27.5 16 27.5C16.8284 27.5 17.5 26.8285 17.5 26C17.5 25.3224 17.0506 24.7497 16.4336 24.5637L9.5189 9.73498C11.5314 9.25311 13.698 9.00003 16.0001 9.00003C20.5692 9.00003 24.6041 9.99689 27.9606 11.8007L22.3608 21.5H22.2509C20.5935 20.5921 18.6538 20.0794 16.5162 20.0085L17.4837 22.0833C19.0021 22.258 20.3456 22.7024 21.4863 23.3648L21.7192 23.5H23.5155L30.0002 12.268V10.657L29.4994 10.3685C25.7008 8.18033 21.1257 7.00003 16.0001 7.00003C10.8745 7.00003 6.29945 8.18033 2.50085 10.3685L2 10.657V12.268L8.48479 23.5H10.2811L10.5139 23.3648C10.7588 23.2226 11.0131 23.0905 11.2764 22.9689L10.4311 21.1562Z" fill="#000000" class="bmwfcol"/><path d="M14.6001 10.3004C13.7717 10.3004 13.1001 10.972 13.1001 11.8004C13.1001 12.6288 13.7717 13.3004 14.6001 13.3004C15.4285 13.3004 16.1001 12.6288 16.1001 11.8004C16.1001 10.972 15.4285 10.3004 14.6001 10.3004Z" fill="#000000" class="bmwfcol"/><path d="M19.5 10.4996C18.6716 10.4996 18 11.1712 18 11.9996C18 12.8281 18.6716 13.4996 19.5 13.4996C20.3284 13.4996 21 12.8281 21 11.9996C21 11.1712 20.3284 10.4996 19.5 10.4996Z" fill="#000000" class="bmwfcol"/><path d="M19.7999 17.6011C19.7999 16.7727 20.4715 16.1011 21.2999 16.1011C22.1284 16.1011 22.7999 16.7727 22.7999 17.6011C22.7999 18.4295 22.1284 19.1011 21.2999 19.1011C20.4715 19.1011 19.7999 18.4295 19.7999 17.6011Z" fill="#000000" class="bmwfcol"/><path d="M23.9005 11.7007C23.0721 11.7007 22.4005 12.3723 22.4005 13.2007C22.4005 14.0291 23.0721 14.7007 23.9005 14.7007C24.7289 14.7007 25.4005 14.0291 25.4005 13.2007C25.4005 12.3723 24.7289 11.7007 23.9005 11.7007Z" fill="#000000" class="bmwfcol"/><path d="M15.5005 16.6C15.5005 15.7716 16.1721 15.1 17.0005 15.1C17.8289 15.1 18.5005 15.7716 18.5005 16.6C18.5005 17.4285 17.8289 18.1 17.0005 18.1C16.1721 18.1 15.5005 17.4285 15.5005 16.6Z" fill="#000000" class="bmwfcol"/><title>wiper_with_water_particles_rg_48</title></svg>