<svg width="48" height="48" viewBox="0 0 32 32" xmlns="http://www.w3.org/2000/svg"><path d="M10.4311 21.1562L11.2764 22.9688C10.9341 23.1269 10.6067 23.3109 10.2811 23.5H8.48479L2 12.268V10.6569C6.29242 8.18435 11.0472 7 16.0001 7C20.953 7 25.7078 8.18435 30.0002 10.6569V12.268L23.5155 23.5H21.7192C20.407 22.7381 18.995 22.2572 17.4837 22.0832L16.5162 20.0085C18.6538 20.0794 20.6747 20.6389 22.332 21.5469L27.9606 11.8007C24.6041 9.99686 20.5692 9 16.0001 9C13.698 9 11.5315 9.25307 9.51905 9.73491L16.4338 24.5637C17.0507 24.7498 17.5 25.3224 17.5 26C17.5 26.8284 16.8284 27.5 16 27.5C15.1716 27.5 14.5 26.8284 14.5 26C14.5 25.79 14.5432 25.5901 14.6211 25.4086L7.57032 10.2882C6.32332 10.7004 5.14469 11.2068 4.0396 11.8007L9.63949 21.5C9.90827 21.5 10.1891 21.2682 10.4311 21.1562Z" fill="#000000" class="bmwfcol"/><title>wiper-blades_rg_48</title></svg>