<svg width="48" height="48" viewBox="0 0 32 32" xmlns="http://www.w3.org/2000/svg"><path d="M7.84289 1.84289C8.40567 1.28011 9.17275 1 10 1C10.8272 1 11.5943 1.28011 12.1571 1.84289C12.7199 2.40567 13 3.17275 13 4C13 4.82725 12.7199 5.59433 12.1571 6.15711C11.5943 6.71989 10.8272 7 10 7C9.17275 7 8.40567 6.71989 7.84289 6.15711C7.28011 5.59433 7 4.82725 7 4C7 3.17275 7.28011 2.40567 7.84289 1.84289ZM9.25711 3.25711C9.11989 3.39433 9 3.62725 9 4C9 4.37275 9.11989 4.60567 9.25711 4.74289C9.39433 4.88011 9.62725 5 10 5C10.3728 5 10.6057 4.88011 10.7429 4.74289C10.8801 4.60567 11 4.37275 11 4C11 3.62725 10.8801 3.39433 10.7429 3.25711C10.6057 3.11989 10.3728 3 10 3C9.62725 3 9.39433 3.11989 9.25711 3.25711Z" fill="#000000" class="bmwfcol"/><path d="M8.0003 10.267V17.1316L7.23173 20H9.5V30H7.5V22H5V20.6015L6.0003 16.8683V8.88494L6.62171 8.63076C7.63896 8.21466 8.77742 8 10 8C11.2226 8 12.361 8.21466 13.3783 8.63076L13.9997 8.88494V16.8683L15 20.6015V22H12.5V30H10.5V20H12.7683L11.9997 17.1316V10.267C11.3965 10.094 10.728 10 10 10C9.27195 10 8.60353 10.094 8.0003 10.267Z" fill="#000000" class="bmwfcol"/><path d="M21.268 16L27.0415 6H24.7321L18.9586 16H21.268Z" fill="#000000" class="bmwfcol"/><path d="M17.1148 6.22778C17.6628 5.58662 18.4298 5.5 19 5.5C19.5702 5.5 20.3372 5.58662 20.8852 6.22778C21.3839 6.81128 21.5 7.63384 21.5 8.5C21.5 9.36616 21.3839 10.1887 20.8852 10.7722C20.3372 11.4134 19.5702 11.5 19 11.5C18.4298 11.5 17.6628 11.4134 17.1148 10.7722C16.6161 10.1887 16.5 9.36616 16.5 8.5C16.5 7.63384 16.6161 6.81128 17.1148 6.22778ZM18.5671 7.71648C18.5287 7.87955 18.5 8.12823 18.5 8.5C18.5 8.87177 18.5287 9.12045 18.5671 9.28352C18.5918 9.38831 18.6165 9.4407 18.6285 9.46196C18.665 9.47544 18.7667 9.5 19 9.5C19.2333 9.5 19.335 9.47544 19.3715 9.46196C19.3835 9.4407 19.4082 9.38831 19.4329 9.28352C19.4713 9.12045 19.5 8.87177 19.5 8.5C19.5 8.12823 19.4713 7.87955 19.4329 7.71648C19.4082 7.61169 19.3835 7.5593 19.3715 7.53804C19.335 7.52456 19.2333 7.5 19 7.5C18.7667 7.5 18.665 7.52456 18.6285 7.53804C18.6165 7.5593 18.5918 7.61169 18.5671 7.71648ZM18.6113 7.54663C18.6113 7.54663 18.6135 7.54428 18.6209 7.54109C18.6154 7.5453 18.6113 7.54663 18.6113 7.54663ZM19.3887 7.54663C19.3887 7.54663 19.3846 7.5453 19.3791 7.54109C19.3865 7.54428 19.3887 7.54663 19.3887 7.54663ZM19.3887 9.45337C19.3887 9.45337 19.3865 9.45572 19.3791 9.45891C19.3846 9.4547 19.3887 9.45337 19.3887 9.45337ZM18.6113 9.45337C18.6113 9.45337 18.6154 9.4547 18.6209 9.45891C18.6135 9.45572 18.6113 9.45337 18.6113 9.45337Z" fill="#000000" class="bmwfcol"/><path d="M27 10.5C26.4298 10.5 25.6628 10.5866 25.1148 11.2278C24.6161 11.8113 24.5 12.6338 24.5 13.5C24.5 14.3662 24.6161 15.1887 25.1148 15.7722C25.6628 16.4134 26.4298 16.5 27 16.5C27.5702 16.5 28.3372 16.4134 28.8852 15.7722C29.3839 15.1887 29.5 14.3662 29.5 13.5C29.5 12.6338 29.3839 11.8113 28.8852 11.2278C28.3372 10.5866 27.5702 10.5 27 10.5ZM26.5 13.5C26.5 13.1282 26.5287 12.8795 26.5671 12.7165C26.5918 12.6117 26.6165 12.5593 26.6285 12.538C26.665 12.5246 26.7667 12.5 27 12.5C27.2333 12.5 27.335 12.5246 27.3715 12.538C27.3835 12.5593 27.4082 12.6117 27.4329 12.7165C27.4713 12.8795 27.5 13.1282 27.5 13.5C27.5 13.8718 27.4713 14.1205 27.4329 14.2835C27.4082 14.3883 27.3835 14.4407 27.3715 14.462C27.335 14.4754 27.2333 14.5 27 14.5C26.7667 14.5 26.665 14.4754 26.6285 14.462C26.6165 14.4407 26.5918 14.3883 26.5671 14.2835C26.5287 14.1205 26.5 13.8718 26.5 13.5ZM26.6113 12.5466C26.6113 12.5466 26.6135 12.5443 26.6209 12.5411C26.6154 12.5453 26.6113 12.5466 26.6113 12.5466ZM27.3791 12.5411C27.3846 12.5453 27.3887 12.5466 27.3887 12.5466L27.3871 12.5451C27.3871 12.5451 27.383 12.5428 27.3791 12.5411ZM27.3887 14.4534C27.3887 14.4534 27.3865 14.4557 27.3791 14.4589C27.3846 14.4547 27.3887 14.4534 27.3887 14.4534ZM26.6113 14.4534C26.6113 14.4534 26.6154 14.4547 26.6209 14.4589C26.6135 14.4557 26.6113 14.4534 26.6113 14.4534Z" fill="#000000" class="bmwfcol"/><title>woman-with-percent-sign_rg_48</title></svg>