<svg width="48" height="48" viewBox="0 0 32 32" xmlns="http://www.w3.org/2000/svg"><path d="M23.1997 6.29755L23.279 5.06018L22.847 4.73573C21.6574 3.84234 20.2917 3.42546 18.9142 3.54565C17.5394 3.66559 16.2317 4.31315 15.1356 5.40931C13.454 7.09088 12.8617 9.24601 13.5046 11.283L3.82187 20.9657C3.23692 21.5506 2.89258 22.2911 2.89258 23.087C2.89258 23.8829 3.23692 24.6233 3.82187 25.2083C4.40682 25.7933 5.1473 26.1376 5.94319 26.1376C6.73908 26.1376 7.47956 25.7933 8.06451 25.2083L17.7472 15.5256C19.7842 16.1685 21.9393 15.5762 23.6209 13.8946C24.9997 12.5158 25.6625 10.8058 25.4731 9.07182L25.4137 8.52797L24.2969 7.97352L20.3181 10.2707C20.1464 10.37 20.0507 10.3885 20.016 10.3918C19.9939 10.3938 19.9854 10.3923 19.9645 10.3817C19.9312 10.3648 19.8592 10.3169 19.7515 10.1922C19.644 10.0675 19.5232 9.89248 19.3857 9.6543C19.2482 9.41611 19.1568 9.22373 19.1025 9.06796C19.0482 8.91193 19.0426 8.82528 19.0446 8.78779C19.0459 8.76426 19.0488 8.75656 19.0612 8.7391C19.0809 8.71132 19.1443 8.63817 19.3159 8.53982L19.3173 8.53903L23.1997 6.29755ZM16.5498 6.82352C17.3593 6.01398 18.2428 5.61182 19.088 5.53808C19.4893 5.50307 19.8999 5.54041 20.3097 5.65666L18.3214 6.80461L18.3199 6.80549C17.5961 7.22079 17.0929 7.83826 17.0475 8.68022C17.0087 9.40099 17.328 10.0902 17.6536 10.6542C17.9792 11.2183 18.4162 11.839 19.06 12.1655C19.8115 12.5466 20.5973 12.4194 21.3187 12.0024L23.2789 10.8707C23.0729 11.4203 22.7214 11.9656 22.2066 12.4804C20.8633 13.8238 19.2938 14.0807 17.9139 13.4505L17.2823 13.1621L6.6503 23.7941C6.38672 24.0577 6.13725 24.1376 5.94319 24.1376C5.74913 24.1376 5.49966 24.0577 5.23608 23.7941C4.97251 23.5305 4.89258 23.281 4.89258 23.087C4.89258 22.8929 4.97251 22.6434 5.23608 22.3799L15.8681 11.7479L15.5797 11.1163C14.9495 9.73642 15.2064 8.16691 16.5498 6.82352Z" fill="#000000" class="bmwfcol"/><path d="M17.8517 18.6699C16.8472 18.6699 16.0087 18.9551 15.4508 19.6951L15.4504 19.6957C15.1632 20.0805 15.0176 20.5736 14.9418 21.1313C14.866 21.6892 14.8582 22.3275 14.8582 23.0109C14.8582 23.7727 14.8659 24.4378 14.9624 25.0119C15.0596 25.5896 15.2483 26.0852 15.6168 26.5049C16.1785 27.1468 16.9745 27.3306 17.8517 27.3306C18.7342 27.3306 19.5727 27.091 20.1113 26.4265C20.8179 25.5626 20.877 24.5533 20.877 23.0109C20.877 22.2482 20.8641 21.5505 20.7511 20.9487C20.6376 20.3443 20.4208 19.8229 20.0033 19.4225C19.4463 18.8883 18.6501 18.6699 17.8517 18.6699ZM16.7733 21.8166C16.7969 21.4629 16.8434 21.1835 16.929 20.9789C17.0186 20.7667 17.138 20.6386 17.2816 20.5604C17.4288 20.4802 17.6156 20.4447 17.8517 20.4447C18.2487 20.4447 18.539 20.5628 18.7022 20.8117C18.8322 21.0113 18.9053 21.2708 18.944 21.6278C18.9827 21.9856 18.9855 22.4253 18.9855 22.979C18.9855 23.5805 18.98 24.0375 18.9337 24.4004C18.8876 24.761 18.8028 25.0137 18.6545 25.2131L18.6543 25.2134C18.48 25.4486 18.184 25.5558 17.8517 25.5558C17.5053 25.5558 17.2134 25.4572 17.0408 25.2164C16.9079 25.0234 16.8325 24.7659 16.7926 24.4068C16.7526 24.0466 16.7497 23.6018 16.7497 23.0427C16.7497 22.5797 16.7498 22.1687 16.7733 21.8166Z" fill="#000000" class="bmwfcol"/><path d="M28.4191 23.2428H24.3207V25.0919H28.4191V23.2428Z" fill="#000000" class="bmwfcol"/><path d="M23.6997 24.9617H21.787V26.9684C21.787 27.812 21.6623 28.4363 21.5565 28.9655L21.5206 29.1449H22.9827L23.0248 29.0645C23.2589 28.6175 23.6997 27.7508 23.6997 26.7138V24.9617Z" fill="#000000" class="bmwfcol"/><title>wrench_zero_amount_rg_48</title></svg>