<svg width="48" height="48" viewBox="0 0 32 32" xmlns="http://www.w3.org/2000/svg"><path d="M27.2824 4.30664C27.4864 4.30664 27.6917 4.41064 27.7944 4.51331C27.8968 4.7054 27.8968 4.93588 27.7944 5.12797L19.6917 19.488L24.8197 28.9226C24.9226 29.1151 24.9226 29.3462 24.8197 29.5386C24.6796 29.6669 24.4976 29.7398 24.3077 29.744H20.6144C20.1024 29.744 19.7944 29.3333 19.5891 29.0253L14.3584 19.4866C14.6664 19.0773 22.5637 5.02664 22.5637 5.02664C22.7691 4.61731 23.0771 4.30931 23.5904 4.30931H27.2824V4.30664ZM11.8971 9.33331C12.4104 9.33331 12.7171 9.74397 12.9237 10.0506L15.4864 14.4613C15.2824 14.6666 11.4864 21.4346 11.4864 21.4346C11.2824 21.744 10.9744 22.1546 10.4611 22.1546H6.87174C6.68137 22.1508 6.49891 22.0778 6.35841 21.9493C6.25553 21.7569 6.25553 21.5258 6.35841 21.3333L10.1531 14.4613L7.69174 10.1546C7.58886 9.96219 7.58886 9.73109 7.69174 9.53864C7.83224 9.41013 8.0147 9.33715 8.20507 9.33331H11.8984H11.8971Z" fill="#000000" class="bmwfcol"/><title>xing_rg_48</title></svg>