<svg width="48" height="48" viewBox="0 0 32 32" xmlns="http://www.w3.org/2000/svg"><path d="M18 24.6893V22.3806C14.7853 24.2358 13.2326 25.1174 12.0224 25.5603C10.8485 25.99 10.0227 25.9993 8.00842 25.9994C8.05614 24.6766 8.30773 24.1106 8.78565 23.6901C9.09532 23.4176 9.56404 23.1515 10.3107 22.8658C11.0553 22.5808 12.0121 22.2995 13.2591 21.9654L14 21.7668V19.6963L12.7414 20.0335C11.4883 20.3693 10.445 20.6729 9.59581 20.9979C8.7486 21.3221 8.02977 21.6911 7.46441 22.1886C6.08817 23.3996 6 25.2063 6 26.9136C6.3243 27.2379 6.63752 27.6236 7.05255 27.8313C7.3799 27.9951 7.73291 27.9994 8.08907 27.9994C10.0151 27.9995 11.1767 27.9996 12.7098 27.4385C13.3702 27.1968 14.1031 26.8495 15.0205 26.3611C16.4811 27.1114 17.5923 27.539 18.8655 27.7628C20.2112 27.9993 21.7037 27.9993 23.9057 27.9993C24.2634 27.9993 24.6182 27.9957 24.947 27.8312C25.362 27.6236 25.6753 27.2378 25.9996 26.9135C25.9996 25.2062 25.9114 23.3996 24.5352 22.1885C23.9698 21.691 23.251 21.322 22.4038 20.9978C21.5546 20.6728 20.5113 20.3692 19.2581 20.0334L18 19.6963V21.7668L18.7405 21.9653C19.9875 22.2994 20.9442 22.5807 21.6889 22.8657C22.4355 23.1514 22.9042 23.4174 23.2139 23.6899C23.6918 24.1105 23.9434 24.6765 23.9912 25.9993C21.677 25.9992 20.3643 25.9956 19.2118 25.793C18.5425 25.6754 17.9146 25.4875 17.166 25.1676C17.4313 25.0161 17.7089 24.8568 18 24.6893Z" fill="#000000" class="bmwfcol"/><path d="M15.2571 4.25711C15.1199 4.39433 15 4.62725 15 5C15 5.37275 15.1199 5.60567 15.2571 5.74289C15.3943 5.88011 15.6272 6 16 6C16.3728 6 16.6057 5.88011 16.7429 5.74289C16.8801 5.60567 17 5.37275 17 5C17 4.62725 16.8801 4.39433 16.7429 4.25711C16.6057 4.11989 16.3728 4 16 4C15.6272 4 15.3943 4.11989 15.2571 4.25711ZM13.8429 2.84289C14.4057 2.28011 15.1728 2 16 2C16.8272 2 17.5943 2.28011 18.1571 2.84289C18.7199 3.40567 19 4.17275 19 5C19 5.82725 18.7199 6.59433 18.1571 7.15711C17.5943 7.71989 16.8272 8 16 8C15.1728 8 14.4057 7.71989 13.8429 7.15711C13.2801 6.59433 13 5.82725 13 5C13 4.17275 13.2801 3.40567 13.8429 2.84289Z" fill="#000000" class="bmwfcol"/><path d="M6 19.6431V17.5726L11 16.2328V10.5162L11.468 10.2222C12.7431 9.42095 14.2888 9 16 9C17.7113 9 19.257 9.42095 20.5321 10.2222L21 10.5162V16.2327L26 17.5726V19.6431L19 17.7673V11.6533C18.1637 11.2372 17.1569 11 16 11C14.8431 11 13.8364 11.2372 13 11.6533V17.7675L6 19.6431Z" fill="#000000" class="bmwfcol"/><title>yoga_rg_48</title></svg>