<svg width="48" height="48" viewBox="0 0 32 32" xmlns="http://www.w3.org/2000/svg"><path d="M28.7253 8.66404C29.3346 11.04 29.3346 16 29.3346 16C29.3346 16 29.3346 20.96 28.7253 23.336C28.3866 24.6494 27.396 25.6827 26.1413 26.032C23.8626 26.6667 16.0013 26.6667 16.0013 26.6667C16.0013 26.6667 8.14397 26.6667 5.8613 26.032C4.6013 25.6774 3.61197 24.6454 3.2773 23.336C2.66797 20.96 2.66797 16 2.66797 16C2.66797 16 2.66797 11.04 3.2773 8.66404C3.61597 7.35071 4.60664 6.31737 5.8613 5.96804C8.14397 5.33337 16.0013 5.33337 16.0013 5.33337C16.0013 5.33337 23.8626 5.33337 26.1413 5.96804C27.4013 6.32271 28.3906 7.35471 28.7253 8.66404ZM13.3346 20.6667L21.3346 16L13.3346 11.3334V20.6667Z" fill="#000000" class="bmwfcol"/><title>youtube_rg_48</title></svg>