<svg width="48" height="48" viewBox="0 0 32 32" xmlns="http://www.w3.org/2000/svg"><path d="M25.5237 4H23.2152C22.8876 4.57076 22.6165 5.0508 22.3979 5.46131C22.073 6.07173 21.8331 6.58454 21.6938 7.06218C21.4338 7.95362 21.5601 8.6361 21.77 9.39974C20.684 10.9511 19.8413 12.1606 19.2407 13.1035C18.6158 14.0845 18.1542 14.921 18.0206 15.6304C17.9468 16.0217 17.9564 16.4504 18.1539 16.8618C18.3482 17.2667 18.6657 17.5317 18.9712 17.7119C19.2764 17.8919 19.6604 18.0356 20.0764 18.1639C20.0554 18.2128 20.0344 18.2608 20.0135 18.3082C19.9906 18.3599 19.9656 18.4151 19.9395 18.4727C19.8265 18.7224 19.692 19.0194 19.6146 19.2815C19.5039 19.6559 19.4432 20.1524 19.7061 20.668C19.779 20.8109 19.8695 20.9401 19.9723 21.0577C19.8913 21.16 19.8205 21.2718 19.7637 21.3944C19.5116 21.9391 19.6435 22.4425 19.8186 22.7819C19.9585 23.0529 20.1698 23.3028 20.3044 23.4619L20.3333 23.4961C20.421 23.6003 20.4927 23.6868 20.5519 23.7648C20.5818 24.9219 20.7866 25.8832 21.254 26.611C21.8024 27.465 22.6185 27.8583 23.5073 27.9665C24.3425 28.0681 25.2759 27.9252 26.2008 27.7178C26.8724 27.5671 27.6111 27.3644 28.3699 27.1562C28.6615 27.0761 28.9565 26.9952 29.2514 26.9161L30 26.7156V24.645L28.7338 24.9843C28.4071 25.0718 28.0939 25.1578 27.7925 25.2405C27.0538 25.4432 26.3856 25.6266 25.7631 25.7662C24.8816 25.9639 24.2275 26.0394 23.7489 25.9812C23.324 25.9294 23.1001 25.7846 22.9369 25.5304C22.7334 25.2135 22.548 24.6025 22.548 23.4575V23.1908L22.4152 22.9595C22.2412 22.6565 22.023 22.3976 21.8743 22.2211L21.8629 22.2076L21.7962 22.128L22.2855 21.8524V20.2581L21.7925 19.9681C21.6714 19.8969 21.5942 19.8417 21.5467 19.8037C21.5824 19.6971 21.6371 19.5755 21.7246 19.3811C21.7585 19.3055 21.7975 19.2189 21.8422 19.118C22.0006 18.7603 22.1878 18.3079 22.3382 17.7468L22.597 16.7812L21.6315 16.522C20.7159 16.2763 20.244 16.1403 19.9881 15.9897C20.0448 15.7088 20.2903 15.1785 20.9276 14.178C21.5482 13.2036 22.451 11.9141 23.6809 10.1575L23.9544 9.76693L23.8231 9.30857C23.53 8.28501 23.4866 8.05823 23.6138 7.62206C23.6935 7.34873 23.8533 6.98356 24.1633 6.40123C24.4708 5.82366 24.8958 5.08746 25.4797 4.07619L25.5237 4Z" fill="#000000" class="bmwfcol"/><path d="M25.9891 12.8163V10.7288C26.4233 10.5932 26.7554 10.474 27.0085 10.3707L25.5 9.49977V7.19037L29.617 9.56734L29.6168 10.145L29.6168 10.1626C29.6174 10.2779 29.6187 10.5754 29.4757 10.8968C29.3216 11.2434 29.0574 11.5074 28.7402 11.7226C28.222 12.0742 27.371 12.4201 25.9891 12.8163Z" fill="#000000" class="bmwfcol"/><path d="M4.45602 6.07919C3.73554 6.07919 3.11523 6.28455 2.70101 6.83402C2.48635 7.12166 2.38076 7.48571 2.32678 7.8828C2.27276 8.28023 2.26746 8.7328 2.26746 9.21009C2.26746 9.7416 2.27256 10.2147 2.34165 10.6253C2.41154 11.0407 2.54879 11.4056 2.82157 11.7163C3.24088 12.1954 3.83133 12.3262 4.45602 12.3262C5.08783 12.3262 5.70795 12.1546 6.10995 11.6588C6.6284 11.0249 6.66684 10.2846 6.66684 9.21009C6.66684 8.67749 6.65803 8.18117 6.57714 7.7504C6.49559 7.31608 6.33771 6.9304 6.0265 6.63198C5.61348 6.23583 5.02944 6.07919 4.45602 6.07919ZM5.11835 10.1698C5.08723 10.4135 5.03132 10.5722 4.94111 10.6934C4.84335 10.8254 4.67032 10.8948 4.45602 10.8948C4.22961 10.8948 4.06233 10.8306 3.9667 10.6978C3.88701 10.5817 3.83697 10.42 3.80984 10.1758C3.78255 9.93016 3.78046 9.62472 3.78046 9.23235C3.78046 8.90757 3.78055 8.62363 3.79671 8.38123C3.81301 8.13667 3.84479 7.95406 3.89839 7.82585C3.95396 7.69439 4.02399 7.6228 4.10278 7.57988C4.18638 7.53434 4.29921 7.51057 4.45602 7.51057C4.71629 7.51057 4.88144 7.58735 4.97122 7.72417C5.05027 7.8457 5.09899 8.01001 5.12532 8.25312C5.15176 8.49724 5.15384 8.79932 5.15384 9.18783C5.15384 9.60966 5.14984 9.92308 5.11835 10.1698Z" fill="#000000" class="bmwfcol"/><path d="M8.99516 12.2H10.5904L13.9932 6.20533H12.398L8.99516 12.2Z" fill="#000000" class="bmwfcol"/><path d="M18.5088 8.98618C18.8939 9.32659 18.9992 9.80204 18.9992 10.4344C18.9992 11.0548 18.882 11.4862 18.5346 11.8425C18.2423 12.1436 17.8358 12.2816 17.3523 12.2816C16.8781 12.2816 16.4572 12.1891 16.1498 11.8817C15.7786 11.5105 15.7054 11.0458 15.7054 10.4344C15.7054 9.85541 15.7953 9.40737 16.0974 9.06955C16.3958 8.735 16.8415 8.60941 17.3523 8.60941C17.8208 8.60941 18.201 8.71349 18.5088 8.98618ZM17.5896 9.92645C17.5646 9.89116 17.5416 9.87429 17.515 9.86325C17.4839 9.85037 17.4353 9.84045 17.3523 9.84045C17.2613 9.84045 17.2103 9.8533 17.1798 9.86768C17.1535 9.8801 17.1311 9.8989 17.1074 9.93766C17.0869 9.97117 17.0682 10.0258 17.056 10.1138C17.0441 10.2009 17.0403 10.3067 17.0403 10.4344C17.0403 10.6159 17.0462 10.7435 17.0645 10.8379C17.0818 10.9274 17.1068 10.9683 17.1324 10.9929C17.1703 11.0273 17.2174 11.0506 17.3523 11.0506C17.4598 11.0506 17.5122 11.0264 17.5571 10.9857C17.6331 10.9124 17.6642 10.7889 17.6642 10.4344C17.6642 10.3025 17.6604 10.1924 17.647 10.1022C17.6333 10.0105 17.6121 9.95772 17.5908 9.92821L17.5896 9.92645Z" fill="#000000" class="bmwfcol"/><path d="M15.5118 10.4344C15.5118 9.80204 15.4065 9.32659 15.0214 8.98618C14.7136 8.71349 14.3334 8.60941 13.8649 8.60941C13.3541 8.60941 12.9084 8.735 12.61 9.06955C12.3079 9.40737 12.218 9.8554 12.218 10.4344C12.218 11.0458 12.2912 11.5105 12.6624 11.8817C12.9698 12.1891 13.3907 12.2816 13.8649 12.2816C14.3484 12.2816 14.7549 12.1436 15.0472 11.8425C15.3946 11.4862 15.5118 11.0548 15.5118 10.4344ZM14.0276 9.86325C14.0542 9.87429 14.0772 9.89116 14.1022 9.92645L14.1034 9.92821C14.1247 9.95772 14.1459 10.0105 14.1596 10.1022C14.173 10.1924 14.1768 10.3025 14.1768 10.4344C14.1768 10.7889 14.1457 10.9124 14.0697 10.9857C14.0248 11.0264 13.9724 11.0506 13.8649 11.0506C13.73 11.0506 13.6829 11.0273 13.645 10.9929C13.6194 10.9683 13.5944 10.9274 13.5771 10.8379C13.5588 10.7435 13.5529 10.6159 13.5529 10.4344C13.5529 10.3067 13.5567 10.2009 13.5686 10.1138C13.5808 10.0258 13.5995 9.97117 13.62 9.93766C13.6437 9.8989 13.6661 9.8801 13.6924 9.86768C13.7229 9.8533 13.7739 9.84045 13.8649 9.84045C13.9479 9.84045 13.9965 9.85037 14.0276 9.86325Z" fill="#000000" class="bmwfcol"/><path d="M10.317 6.50033C10.7022 6.84075 10.8075 7.31625 10.8075 7.94869C10.8075 8.56922 10.6903 9.0007 10.3427 9.35707C10.0504 9.658 9.64395 9.79593 9.16059 9.79593C8.68647 9.79593 8.26548 9.70341 7.9581 9.39603C7.58689 9.02482 7.51369 8.5601 7.51369 7.94869C7.51369 7.36962 7.60366 6.92153 7.90589 6.58369C8.20427 6.24926 8.64992 6.12371 9.16059 6.12371C9.62904 6.12371 10.0091 6.22775 10.317 6.50033ZM9.39787 7.44075C9.37296 7.40546 9.34997 7.38859 9.32333 7.37755C9.29223 7.36467 9.24361 7.35475 9.16059 7.35475C9.06961 7.35475 9.01859 7.3676 8.98814 7.38198C8.96184 7.3944 8.93941 7.4132 8.91572 7.45196C8.89525 7.48547 8.87648 7.54009 8.86436 7.62815C8.85238 7.71523 8.84861 7.82096 8.84861 7.94869C8.84861 8.13018 8.85452 8.25781 8.87279 8.35218C8.89011 8.4417 8.91517 8.48265 8.94075 8.50724C8.97866 8.54159 9.02576 8.56489 9.16059 8.56489C9.26811 8.56489 9.32048 8.5407 9.36541 8.49997C9.44143 8.42674 9.47257 8.30321 9.47257 7.94869C9.47257 7.81678 9.46874 7.70674 9.45527 7.61647C9.4416 7.52479 9.42044 7.47202 9.39913 7.44251L9.39787 7.44075Z" fill="#000000" class="bmwfcol"/><path d="M17 19H7V21H15V22.5H7V24.5H17V19Z" fill="#000000" class="bmwfcol"/><path d="M26.5003 24.6405V22.2182C25.811 21.567 25.5 20.7604 25.5 19.9997C25.5 19.2391 25.8111 18.4327 26.5003 17.7816V15.3596C24.558 16.3719 23.5 18.1425 23.5 19.9997C23.5 21.857 24.5579 23.6279 26.5003 24.6405Z" fill="#000000" class="bmwfcol"/><title>zero_promille_blowing_face_rg_48</title></svg>