<svg width="48" height="48" viewBox="0 0 32 32" xmlns="http://www.w3.org/2000/svg"><path d="M9 13V15H19V13H9Z" fill="#000000" class="bmwfcol"/><path d="M5.96789 5.96789C7.91856 4.01722 10.6941 3 14 3C17.3059 3 20.0814 4.01722 22.0321 5.96789C23.9828 7.91856 25 10.6941 25 14C25 16.9049 24.2146 19.4003 22.7006 21.2864L28.7072 27.293L27.293 28.7073L21.2864 22.7006C19.4003 24.2146 16.9049 25 14 25C10.6941 25 7.91856 23.9828 5.96789 22.0321C4.01722 20.0814 3 17.3059 3 14C3 10.6941 4.01722 7.91856 5.96789 5.96789ZM7.38211 7.38211C5.88278 8.88144 5 11.1059 5 14C5 16.8941 5.88278 19.1186 7.38211 20.6179C8.88144 22.1172 11.1059 23 14 23C16.8941 23 19.1186 22.1172 20.6179 20.6179C22.1172 19.1186 23 16.8941 23 14C23 11.1059 22.1172 8.88144 20.6179 7.38211C19.1186 5.88278 16.8941 5 14 5C11.1059 5 8.88144 5.88278 7.38211 7.38211Z" fill="#000000" class="bmwfcol"/><title>zoom-out_rg_48</title></svg>