<svg width="48" height="48" viewBox="0 0 32 32" xmlns="http://www.w3.org/2000/svg"><path d="M7.81312 3.61713C7.0768 3.61713 6.01571 3.83478 5.48829 3.95081L5.33126 3.98536V5.39564L5.57656 5.33859C6.03875 5.23111 7.07638 4.99355 7.80251 4.99355C8.47256 4.99355 8.78567 5.10155 8.95979 5.26776C9.10725 5.40746 9.16267 5.58916 9.16267 5.83366C9.16267 6.11756 9.01483 6.43483 8.73413 6.81955L8.41237 7.2575H6.07419V8.62331H7.67515C8.14725 8.62331 8.42846 8.62842 8.66057 8.75737L8.66338 8.75887C8.86525 8.86685 9.00418 8.99646 9.09476 9.15524C9.18598 9.31514 9.23697 9.5201 9.23697 9.79243C9.23697 10.2035 9.10538 10.5181 8.82875 10.7256C8.58468 10.9087 8.17223 11.004 7.61147 11.004C6.89938 11.004 6.05701 10.8589 5.50169 10.7628L5.26758 10.7223V12.1145L5.43257 12.1439C5.90918 12.2286 6.76376 12.3804 7.62209 12.3804C8.68863 12.3804 9.46411 12.1518 10.0164 11.5759L10.0172 11.5752C10.4531 11.1157 10.6665 10.4464 10.6665 9.78182C10.6665 9.10644 10.4851 8.57991 10.1301 8.16579C9.98609 7.99779 9.84097 7.86777 9.69884 7.76481C9.80623 7.61238 9.94298 7.41632 10.0694 7.23039L10.0727 7.22525C10.3771 6.7469 10.5816 6.30437 10.5816 5.78059C10.5816 5.23244 10.4103 4.67625 10.0012 4.27897C9.49982 3.78952 8.84079 3.61713 7.81312 3.61713Z" fill="#000000" class="bmwfcol"/><path d="M21.5217 3.61713C20.5309 3.61713 19.7582 3.94299 19.2759 4.66016C19.0028 5.06126 18.8557 5.55359 18.7752 6.11017C18.6947 6.66681 18.6789 7.30278 18.6789 7.99878C18.6789 8.7904 18.7 9.47026 18.7929 10.0459C18.8861 10.6229 19.0537 11.1093 19.3567 11.5056C19.8453 12.149 20.5993 12.3804 21.511 12.3804C22.4884 12.3804 23.2636 12.0668 23.7364 11.3469C24.2951 10.5247 24.375 9.40152 24.375 7.96694C24.375 7.26923 24.3512 6.6161 24.2541 6.04178C24.1572 5.46816 23.9847 4.9578 23.6762 4.5558C23.1703 3.88563 22.4002 3.61713 21.5217 3.61713ZM20.4408 5.4908C20.6466 5.14772 21.0005 4.99355 21.511 4.99355C22.0244 4.99355 22.3881 5.16019 22.5715 5.46037L22.5736 5.46367C22.7102 5.67765 22.8057 5.98949 22.8652 6.41457C22.9243 6.83726 22.9455 7.35438 22.9455 7.96694C22.9455 8.58619 22.9295 9.09319 22.8768 9.50995C22.824 9.92666 22.736 10.2397 22.6006 10.4782C22.3833 10.8512 22.0092 11.004 21.5217 11.004C21.002 11.004 20.6657 10.8914 20.4675 10.5942L20.4659 10.5919C20.3186 10.3776 20.2252 10.0559 20.172 9.61334C20.1192 9.17409 20.1084 8.64092 20.1084 8.02001C20.1084 7.39385 20.1192 6.87346 20.1681 6.44823C20.2173 6.02095 20.3032 5.71111 20.4389 5.49392L20.4408 5.4908Z" fill="#000000" class="bmwfcol"/><path d="M27.5201 3.61713C26.8845 3.61713 26.345 3.81364 25.9635 4.18612C25.5815 4.55913 25.3779 5.08915 25.3779 5.71691C25.3779 6.34015 25.582 6.86059 25.9656 7.22449C26.3478 7.58715 26.8869 7.77425 27.5201 7.77425C28.1484 7.77425 28.6849 7.58689 29.0656 7.22421C29.4476 6.86039 29.6517 6.34013 29.6517 5.71691C29.6517 5.08917 29.4481 4.55933 29.0677 4.18639C28.6877 3.81392 28.1509 3.61713 27.5201 3.61713ZM26.6482 5.69569C26.6482 5.41405 26.735 5.2068 26.8738 5.06999C27.0129 4.93289 27.2261 4.84497 27.5201 4.84497C27.7959 4.84497 28.0077 4.93159 28.1497 5.07049C28.2911 5.20883 28.3814 5.4169 28.3814 5.69569C28.3814 5.98051 28.2906 6.18794 28.1502 6.32435C28.009 6.46157 27.7974 6.54641 27.5201 6.54641C27.2261 6.54641 27.0129 6.45849 26.8738 6.32138C26.735 6.18457 26.6482 5.97732 26.6482 5.69569Z" fill="#000000" class="bmwfcol"/><path d="M17.0439 5.01633V3.63022L16.8167 3.66144C15.4155 3.85397 14.0821 4.24272 13.1875 5.03666L13.1867 5.03736C12.0858 6.02483 11.8998 7.6064 11.8998 9.12379C11.8998 10.0758 12.072 10.8925 12.5139 11.474C13.0113 12.1253 13.7306 12.3804 14.7425 12.3804C15.7941 12.3804 16.4965 12.0677 16.9685 11.4666C17.4111 10.9185 17.5427 10.2406 17.5427 9.59078C17.5427 8.87831 17.3532 8.21826 16.9054 7.7352C16.4246 7.21834 15.708 7.00278 14.6045 7.00278C14.2537 7.00278 13.8562 7.01463 13.5624 7.02505C13.6824 6.60572 13.9291 6.20731 14.3622 5.88862L14.3636 5.88753C14.9157 5.47348 15.8486 5.21349 16.8765 5.04395L17.0439 5.01633ZM13.3292 9.2087C13.3292 8.83681 13.3358 8.59283 13.3531 8.38299C13.6504 8.37206 14.1048 8.35798 14.509 8.35798C15.2293 8.35798 15.6052 8.42957 15.8357 8.6848L15.8401 8.68929C16.0507 8.9084 16.1132 9.20343 16.1132 9.59078C16.1132 10.0169 16.0417 10.3533 15.8204 10.6191C15.586 10.8966 15.272 11.0146 14.7425 11.0146C14.1795 11.0146 13.8048 10.854 13.614 10.5729C13.4031 10.2514 13.3292 9.88597 13.3292 9.2087Z" fill="#000000" class="bmwfcol"/><path d="M23.3865 18.8962C23.0885 17.8385 22.5577 16.9163 21.8212 16.1798C20.6297 14.9883 18.9521 14.335 17.0009 14.335H15.3359V16C15.3359 17.9511 15.9892 19.6287 17.1807 20.8202C18.3722 22.0117 20.0498 22.665 22.0009 22.665H22.3359V25.708C20.6027 26.7506 18.4619 27.335 16.0009 27.335C12.5521 27.335 9.72967 26.1883 7.77116 24.2298C5.81266 22.2713 4.66594 19.4489 4.66594 16C4.66594 15.3074 4.71218 14.6401 4.80195 14H3.46029C3.37793 14.646 3.33594 15.3134 3.33594 16C3.33594 19.7511 4.58921 22.9287 6.83071 25.1702C9.07221 27.4117 12.2498 28.665 16.0009 28.665C18.832 28.665 21.3377 27.9517 23.3636 26.6337L23.6659 26.437L23.6659 23.665H24.0009C25.3521 23.665 26.5297 23.2117 27.3712 22.3702C28.2127 21.5287 28.6659 20.3511 28.6659 19V17.335H27.0009C25.6498 17.335 24.4722 17.7883 23.6307 18.6298C23.5453 18.7152 23.4639 18.8041 23.3865 18.8962ZM24.5712 19.5702C25.1297 19.0117 25.9521 18.665 27.0009 18.665H27.3359V19C27.3359 20.0489 26.9892 20.8713 26.4307 21.4298C25.8722 21.9883 25.0498 22.335 24.0009 22.335H23.6659V22C23.6659 20.9511 24.0127 20.1287 24.5712 19.5702ZM16.6659 16V15.665H17.0009C18.6498 15.665 19.9722 16.2117 20.8807 17.1202C21.7892 18.0287 22.3359 19.3511 22.3359 21V21.335H22.0009C20.3521 21.335 19.0297 20.7883 18.1212 19.8798C17.2127 18.9713 16.6659 17.6489 16.6659 16Z" fill="#000000" class="bmwfcol"/><title>360_sustainability_lt_48</title></svg>