<svg width="48" height="48" viewBox="0 0 32 32" xmlns="http://www.w3.org/2000/svg"><path d="M2.44532 3.9508C2.97274 3.83477 4.03383 3.61712 4.77016 3.61712C5.79782 3.61712 6.45685 3.78951 6.95824 4.27896C7.36729 4.67625 7.53858 5.23244 7.53858 5.78059C7.53858 6.30437 7.33085 6.75203 7.02644 7.23038C6.90001 7.41631 6.76326 7.61238 6.65587 7.76481C6.79801 7.86776 6.94312 7.99778 7.08713 8.16579C7.44208 8.5799 7.62349 9.10643 7.62349 9.78181C7.62349 10.4464 7.41012 11.1157 6.97424 11.5751C6.4219 12.151 5.64566 12.3804 4.57912 12.3804C3.7208 12.3804 2.86621 12.2286 2.3896 12.1438L2.22461 12.1145V10.7223L2.45872 10.7628C3.01404 10.8589 3.85641 11.004 4.5685 11.004C5.12926 11.004 5.54172 10.9086 5.78578 10.7256C6.06241 10.5181 6.194 10.2035 6.194 9.79243C6.194 9.52009 6.14301 9.31513 6.05179 9.15523C5.96121 8.99645 5.82228 8.86684 5.62041 8.75886C5.3883 8.62991 5.10428 8.62331 4.63218 8.62331H3.03122V7.25749H5.3694L5.69116 6.81955C5.97185 6.43484 6.1197 6.11754 6.1197 5.83365C6.1197 5.58915 6.06428 5.40745 5.91682 5.26775C5.7427 5.10154 5.42959 4.99355 4.75954 4.99355C4.03341 4.99355 2.99579 5.2311 2.53359 5.33859L2.28829 5.39563V3.98535L2.44532 3.9508Z" fill="#000000" class="bmwfcol"/><path d="M16.8697 4.66015C17.352 3.94299 18.1248 3.61712 19.1155 3.61712C19.994 3.61712 20.764 3.88559 21.2699 4.55565C21.5785 4.95767 21.751 5.46809 21.8479 6.04177C21.945 6.61609 21.9688 7.26923 21.9688 7.96693C21.9688 9.40151 21.8889 10.5247 21.3302 11.3469C20.8574 12.0668 20.0823 12.3804 19.1049 12.3804C18.1931 12.3804 17.4391 12.149 16.9505 11.5056C16.6475 11.1093 16.48 10.6229 16.3868 10.0459C16.2938 9.47025 16.2728 8.79039 16.2728 7.99877C16.2728 7.30278 16.2885 6.66681 16.369 6.11016C16.4495 5.55359 16.5966 5.06125 16.8697 4.66015ZM19.1049 4.99355C18.5943 4.99355 18.2405 5.14771 18.0346 5.49079C17.8989 5.70798 17.8112 6.02094 17.762 6.44822C17.713 6.87345 17.7023 7.39385 17.7023 8.02C17.7023 8.64092 17.713 9.17408 17.7658 9.61333C17.819 10.0559 17.9141 10.3799 18.0614 10.5942C18.2595 10.8914 18.5959 11.004 19.1155 11.004C19.603 11.004 19.9771 10.8512 20.1944 10.4782C20.3299 10.2397 20.4179 9.92666 20.4706 9.50994C20.5233 9.09318 20.5393 8.58618 20.5393 7.96693C20.5393 7.35437 20.5181 6.83725 20.459 6.41457C20.3996 5.98948 20.304 5.67765 20.1674 5.46366C19.984 5.16348 19.6182 4.99355 19.1049 4.99355Z" fill="#000000" class="bmwfcol"/><path d="M14.3193 3.63021V5.01633L14.1519 5.04395C13.1241 5.21349 12.1911 5.47348 11.6391 5.88752C11.206 6.20621 10.9578 6.60571 10.8378 7.02505C11.1317 7.01462 11.5291 7.00277 11.8799 7.00277C12.9835 7.00277 13.7001 7.21833 14.1809 7.73519C14.6286 8.21825 14.8182 8.87831 14.8182 9.59077C14.8182 10.2405 14.6865 10.9185 14.244 11.4665C13.772 12.0676 13.0695 12.3804 12.0179 12.3804C11.0061 12.3804 10.2867 12.1253 9.78935 11.474C9.34739 10.8924 9.17518 10.0757 9.17518 9.12379C9.17518 7.60639 9.3612 6.02483 10.4622 5.03735C11.3568 4.24341 12.691 3.85396 14.0921 3.66143L14.3193 3.63021ZM10.6286 8.38299C10.6112 8.59282 10.6047 8.8368 10.6047 9.20869C10.6047 9.88597 10.6786 10.2515 10.8895 10.573C11.0803 10.854 11.455 11.0146 12.0179 11.0146C12.5474 11.0146 12.8615 10.8966 13.0958 10.6191C13.3171 10.3533 13.3887 10.0169 13.3887 9.59077C13.3887 9.20342 13.3262 8.9084 13.1155 8.68929C12.885 8.43406 12.5048 8.35797 11.7844 8.35797C11.3802 8.35797 10.9258 8.37205 10.6286 8.38299Z" fill="#000000" class="bmwfcol"/><path d="M29.665 22.665H28.3261L24.862 20.665H23.665V27.665H7.72452L7.52974 27.4702C6.01425 25.9547 5.17027 24.8638 4.74411 23.5853C4.33475 22.3572 4.33484 21.0099 4.33497 19.1015V18.8985C4.33484 16.9901 4.33475 15.6428 4.74411 14.4147C4.84849 14.1016 4.97795 13.7996 5.1362 13.5H6.69253C6.36565 13.9714 6.15195 14.397 6.00585 14.8353C5.67242 15.8356 5.66497 16.9623 5.66497 19C5.66497 21.0377 5.67242 22.1644 6.00585 23.1647C6.31529 24.093 6.928 24.9643 8.27694 26.335H22.335L22.335 13.335L24.862 13.335L28.3261 11.335L29.665 11.335V22.665ZM25.2184 19.335L28.335 21.1343V12.8657L25.2184 14.665H23.665V19.335H25.2184Z" fill="#000000" class="bmwfcol"/><title>360-camera_lt_48</title></svg>