<svg width="48" height="48" viewBox="0 0 32 32" xmlns="http://www.w3.org/2000/svg"><path d="M22.5084 23.125C23.2282 22.8353 23.9154 22.4703 24.5583 22.036C26.6677 20.5942 27.8436 18.5421 27.8436 16H29.1737C29.1737 19.0179 27.7495 21.4658 25.3089 23.134C24.438 23.7206 23.4974 24.1965 22.5089 24.5509L22.5084 23.125Z" fill="#000000" class="bmwfcol"/><path d="M15.5084 24.335C11.6955 24.335 8.58995 23.4927 6.45845 22.0359C4.34905 20.5942 3.17315 18.542 3.17315 16C3.17315 13.458 4.34905 11.4057 6.45845 9.96396L6.50845 9.93015V8.36716C6.23118 8.52469 5.96452 8.69092 5.70845 8.86586C3.26785 10.5342 1.84375 12.982 1.84375 16C1.84375 19.018 3.26785 21.4657 5.70845 23.134C8.12725 24.7872 11.5216 25.665 15.5084 25.665H17.9031L13.568 29.9997H15.4489L20.4489 24.9997L15.4489 19.9997H13.568L17.903 24.3347L15.5084 24.335Z" fill="#000000" class="bmwfcol"/><path d="M14.2665 13.2969C14.6351 12.9083 14.8465 12.3175 14.8465 11.6763C14.8465 11.0896 14.6953 10.6415 14.3706 10.2663C14.2292 10.098 14.0644 9.9508 13.8814 9.82906L13.839 9.79996L13.869 9.75846C13.9541 9.64136 14.1359 9.37385 14.281 9.14565C14.5437 8.73565 14.7295 8.40846 14.7295 7.92056C14.7354 7.65232 14.6851 7.38581 14.5819 7.13815C14.4787 6.89049 14.3248 6.66714 14.1302 6.48246C13.6702 6.05246 13.0074 5.86976 11.9148 5.86976C11.2181 5.86976 10.0442 6.08755 9.55635 6.17975V7.55226C10.1043 7.44506 11.152 7.24476 11.8829 7.24476C12.5246 7.24476 12.8523 7.31376 13.0514 7.49086C13.2254 7.65316 13.2592 7.81796 13.2592 8.04806C13.2592 8.35246 13.0505 8.67566 12.825 8.97966L12.5555 9.34966H10.2995V10.682H11.6818C12.108 10.682 12.5106 10.682 12.797 10.8253C13.1884 11.0265 13.3552 11.2809 13.3552 11.6763C13.3552 12.049 13.2509 12.2863 13.0063 12.4696C12.7463 12.6647 12.3422 12.7555 11.7349 12.7555C10.9818 12.7416 10.2315 12.6596 9.49314 12.5106V13.8946C10.2417 14.0458 11.003 14.1247 11.7667 14.1303C12.9249 14.1303 13.7193 13.8655 14.2665 13.2969Z" fill="#000000" class="bmwfcol"/><path d="M16.415 11.0822C16.415 12.1352 16.6636 12.923 17.154 13.4239C17.636 13.9254 18.2464 14.13 19.2612 14.13C20.216 14.13 20.859 13.89 21.3461 13.3507C21.76 12.8984 21.9698 12.2958 21.9698 11.5593C21.9698 10.798 21.7567 10.1885 21.3364 9.74771C20.8953 9.28391 20.3033 9.09481 19.2931 9.09481C18.9312 9.09481 18.5609 9.10541 18.1924 9.12651L18.1246 9.13041C18.2546 8.60901 18.587 8.19061 19.1964 7.88601C19.7523 7.60801 20.5549 7.39761 21.4605 7.29201V5.91801C19.6974 6.12061 18.5397 6.51531 17.712 7.19511C16.7787 7.95971 16.415 9.04971 16.415 11.0822ZM17.932 10.4402C18.082 10.4327 18.6493 10.4062 19.1024 10.4062C19.6556 10.4062 19.9608 10.4481 20.1988 10.6862C20.4319 10.9304 20.4788 11.2014 20.4788 11.5597C20.4788 11.9143 20.4259 12.2057 20.1678 12.4749C19.8963 12.7588 19.5719 12.798 19.2617 12.798C18.8792 12.798 18.4902 12.7546 18.2361 12.4399C17.9961 12.1452 17.9067 11.829 17.9067 11.2732C17.9065 10.909 17.9105 10.6653 17.932 10.4402Z" fill="#000000" class="bmwfcol"/><path d="M26.0348 5.86963C25.021 5.86963 24.3223 6.16963 23.8361 6.81523C23.3245 7.50073 23.2838 8.61943 23.2838 10.0106C23.2838 11.6006 23.3315 12.6199 23.9928 13.3728C24.4512 13.8966 25.081 14.1302 26.0347 14.1302C26.9635 14.1302 27.6609 13.8509 28.1072 13.3002C28.7797 12.4784 28.8282 11.5093 28.8282 10.0108C28.8282 8.45023 28.7699 7.28963 28.016 6.56673C27.5476 6.11703 26.8439 5.86963 26.0348 5.86963ZM26.9662 12.3322C26.7611 12.6091 26.439 12.7555 26.0348 12.7555C25.6115 12.7555 25.3068 12.6168 25.103 12.3314C24.7905 11.879 24.7753 11.2014 24.7753 10.0424C24.7753 9.14313 24.7753 8.36653 24.9701 7.90113C25.167 7.43473 25.4755 7.24453 26.0347 7.24453C26.4965 7.24453 26.8191 7.39453 27.0209 7.70213C27.322 8.16463 27.3367 8.83463 27.3367 9.97883C27.3368 11.1637 27.3199 11.8574 26.9662 12.3322Z" fill="#000000" class="bmwfcol"/><title>360-view_lt_48</title></svg>