<svg width="48" height="48" viewBox="0 0 32 32" xmlns="http://www.w3.org/2000/svg"><path d="M26.3359 21.9687V13.5H27.6659V22.7365L16.0009 29.4713L4.33594 22.7365V9.26696L14.5 3.39874V4.93449L6.33083 9.65097L16.6654 15.616V27.552L26.3359 21.9687ZM15.3354 27.5513V16.384L5.66594 10.8028V21.9687L15.3354 27.5513Z" fill="#000000" class="bmwfcol"/><path d="M18.7565 3.61712C17.9211 3.61712 17.0869 3.80665 16.2746 3.98535V5.39563C17.0834 5.20755 17.9111 4.99355 18.7459 4.99355C19.4159 4.99355 19.729 5.10154 19.9031 5.26775C20.0506 5.40745 20.106 5.58915 20.106 5.83365C20.106 6.11755 19.9582 6.43482 19.6775 6.81955L19.3557 7.25749H17.0176V8.62331H18.6185C19.0906 8.62331 19.3718 8.62841 19.6039 8.75736C19.8058 8.86534 19.9475 8.99645 20.0381 9.15523C20.1293 9.31513 20.1803 9.52009 20.1803 9.79243C20.1803 10.2035 20.0487 10.5181 19.7721 10.7256C19.528 10.9086 19.1156 11.004 18.5548 11.004C17.7663 11.004 16.9854 10.8563 16.2109 10.7223V12.1145C16.9896 12.2529 17.7722 12.3804 18.5654 12.3804C19.632 12.3804 20.4082 12.151 20.9606 11.5751C21.3965 11.1157 21.6098 10.4464 21.6098 9.78181C21.6098 9.10643 21.4284 8.5799 21.0735 8.16579C20.9295 7.99778 20.7843 7.86776 20.6422 7.76481C20.7496 7.61238 20.8863 7.41631 21.0128 7.23038C21.3172 6.75203 21.5249 6.30437 21.5249 5.78059C21.5249 5.23244 21.3536 4.67625 20.9446 4.27896C20.4432 3.78951 19.7841 3.61712 18.7565 3.61712Z" fill="#000000" class="bmwfcol"/><path d="M25.9618 3.79755H22.9811V12.2H25.8769C26.9813 12.2 27.7654 12.0159 28.414 11.3907C29.1838 10.6551 29.505 9.47254 29.505 7.96693C29.505 6.47647 29.2176 5.32646 28.5243 4.62159C27.8953 3.98089 27.1282 3.79755 25.9618 3.79755ZM24.4 10.813V5.18459H25.9618C26.7087 5.18459 27.1681 5.27216 27.5092 5.6573C27.9136 6.12851 28.0649 6.94191 28.0649 7.96693C28.0649 9.00836 27.8834 9.78568 27.5373 10.2067C27.3606 10.4216 27.1653 10.5692 26.9132 10.6656C26.6568 10.7637 26.3309 10.813 25.8875 10.813H24.4Z" fill="#000000" class="bmwfcol"/><title>3d_lt_48</title></svg>