<svg width="48" height="48" viewBox="0 0 32 32" xmlns="http://www.w3.org/2000/svg"><path d="M23.9997 15.665H19.9997V14.335H23.9997V15.665Z" fill="#000000" class="bmwfcol"/><path d="M21.8914 4.33496C20.7336 4.33438 19.5793 4.3338 18.6126 4.9354C17.586 5.57424 16.9042 6.78694 16.3573 8.82787L16.3347 8.91244V8.99999C16.3347 10.2772 16.3361 11.0274 16.7237 12.8754C17.1033 14.6855 17.8591 17.5815 19.3571 23.1721L19.4891 23.665H24.5099L24.6419 23.1721C26.1398 17.5821 26.8956 14.6861 27.2752 12.8759C27.6628 11.0279 27.6644 10.2777 27.6644 9.00073V8.91318L27.6417 8.82862C27.0948 6.78765 26.4129 5.57484 25.3864 4.93582C24.4193 4.33383 23.2645 4.33439 22.1062 4.33496L21.8914 4.33496ZM18.0254 12.6024C17.6718 10.9166 17.6648 10.2552 17.6647 9.08835C18.1833 7.19051 18.7433 6.42057 19.3153 6.0646C19.9254 5.68489 20.6932 5.665 21.9993 5.665C23.3054 5.665 24.0733 5.68506 24.6835 6.06493C25.2557 6.42109 25.8158 7.19128 26.3344 9.0891C26.3342 10.2555 26.3271 10.917 25.9735 12.6029C25.6143 14.3162 24.9031 17.0539 23.4893 22.335H20.5097C19.0958 17.0534 18.3846 14.3156 18.0254 12.6024Z" fill="#000000" class="bmwfcol"/><path d="M17.6647 26.335V21H16.3347V27.665H27.6647V21H26.3347V26.335H17.6647Z" fill="#000000" class="bmwfcol"/><path d="M8.4571 2.335C7.23972 2.335 6.19442 2.60079 5.43736 3.23804C4.63142 3.91714 4.39345 4.84649 4.39345 5.78065C4.39345 6.54453 4.50496 7.22042 4.89227 7.807C5.14018 8.18257 5.48031 8.48817 5.88005 8.69462C5.53551 8.97476 5.21511 9.28535 4.92408 9.62119C4.34977 10.2863 4.0389 11.1386 4.0501 12.0172C4.05087 13.1504 4.34088 14.1236 5.20235 14.8083C6.03309 15.4685 7.15991 15.665 8.44009 15.665C9.71822 15.665 10.818 15.4317 11.6539 14.7158C12.4729 14.0162 12.8139 13.0862 12.8139 12.0211C12.8139 11.2119 12.6049 10.4072 12.0441 9.77949C11.7367 9.44904 11.374 9.17466 10.9724 8.96865L10.9348 8.94884C11.2243 8.65552 11.4937 8.34293 11.7412 8.01319C12.2384 7.37409 12.5017 6.58398 12.4873 5.77438C12.4861 4.90038 12.2502 4.06128 11.5863 3.40318C10.8007 2.6244 9.69018 2.335 8.4571 2.335ZM6.29385 4.25555C6.72031 3.89662 7.40939 3.665 8.4571 3.665C9.50802 3.665 10.2119 3.9135 10.65 4.34778C10.9936 4.68835 11.1572 5.14676 11.1572 5.78083L11.1574 5.7939C11.1674 6.3025 11.0018 6.79894 10.6887 7.19983L10.6807 7.2105C10.4371 7.53566 10.1684 7.84133 9.87731 8.12476L9.54404 8.43876C9.23976 8.35113 8.92924 8.26965 8.63393 8.19216L8.59948 8.18312C7.70609 7.94866 6.93701 7.74481 6.49796 7.51682C6.2986 7.41476 6.12548 7.26101 6.00211 7.07409C5.82112 6.80001 5.72345 6.42782 5.72345 5.78065C5.72345 5.06735 5.89816 4.58911 6.29385 4.25555ZM7.3676 9.22998C7.63465 9.30513 7.90557 9.37615 8.16591 9.44439L8.26187 9.46956C9.15378 9.70363 9.9305 9.9178 10.3611 10.1498C10.6249 10.2846 10.8633 10.4641 11.0657 10.6804C11.3395 10.9898 11.4839 11.4263 11.4839 12.0211C11.4839 12.7761 11.2573 13.3055 10.789 13.7055C10.3034 14.1214 9.58318 14.335 8.44009 14.335C7.24841 14.335 6.50057 14.1412 6.02983 13.7671C5.60192 13.4269 5.38016 12.9204 5.38016 12.0126C5.37236 11.4581 5.56803 10.9107 5.93033 10.4909C6.21896 10.1579 6.54163 9.85598 6.89307 9.59011C6.9711 9.53051 7.13135 9.40895 7.27074 9.30334L7.3676 9.22998Z" fill="#000000" class="bmwfcol"/><title>8-speed-automatic-gearbox_lt_48</title></svg>