<svg width="48" height="48" viewBox="0 0 32 32" xmlns="http://www.w3.org/2000/svg"><path d="M23.9602 3.01253L23.3794 2.35204C21.9282 2.55839 20.5792 3.07214 19.6106 4.22578C18.7806 5.21453 18.335 6.51775 18.335 8.00007C18.335 10.3409 19.4509 12.2069 21.335 13.099V27.0001C21.335 27.7512 21.5883 28.4288 22.0798 28.9203C22.5713 29.4118 23.2489 29.6651 24 29.6651C24.7511 29.6651 25.4287 29.4118 25.9202 28.9203C26.4117 28.4288 26.665 27.7512 26.665 27.0001V13.099C28.5491 12.2069 29.665 10.3409 29.665 8.00007C29.665 6.09484 28.8755 4.4934 27.4061 3.3135L26.5683 3.59542L25.4257 7.85948C25.311 8.2891 25.1538 8.38094 25.0347 8.41989C24.8391 8.48387 24.4997 8.47531 23.9202 8.32003C23.3407 8.16472 23.0416 8.00218 22.9038 7.84868C22.8202 7.75554 22.7301 7.59811 22.8463 7.16998L23.9602 3.01253ZM19.665 8.00007C19.665 6.7873 20.0265 5.79896 20.6293 5.08093C21.0625 4.56487 21.6378 4.16744 22.3384 3.92675L21.5624 6.82275C21.3647 7.55234 21.4472 8.21717 21.9141 8.7372C22.327 9.19712 22.9569 9.43878 23.5759 9.6047C24.1951 9.77062 24.8608 9.87611 25.4482 9.684C26.1121 9.46686 26.5157 8.93248 26.7107 8.20277L27.5025 5.24767C28.0285 5.95269 28.335 6.88207 28.335 8.00007C28.335 10.0714 27.2105 11.4974 25.335 12.1967V27.0001C25.335 27.7973 24.7972 28.3351 24 28.3351C23.2028 28.3351 22.665 27.7973 22.665 27.0001V12.1967C20.7895 11.4974 19.665 10.0714 19.665 8.00007Z" fill="#000000" class="bmwfcol"/><path d="M14.0009 6.33492C15.0134 6.33492 15.9958 6.46392 16.9325 6.70638C16.8668 7.12747 16.834 7.55986 16.834 8.00003C16.834 8.01941 16.834 8.03876 16.8342 8.0581C16.1386 7.86024 15.413 7.73342 14.6659 7.68598V14.3951C15.7721 14.5978 16.7046 15.2972 17.2239 16.2535L19.834 15.4054V16.8039L17.6346 17.5185C17.6553 17.676 17.6659 17.8367 17.6659 17.9999C17.6659 18.9788 17.2822 19.868 16.6569 20.5254L19.834 24.8982V27C19.834 27.3494 19.8722 27.6973 19.9507 28.0356C18.2087 29.0706 16.1742 29.6649 14.0009 29.6649C7.55854 29.6649 2.33594 24.4423 2.33594 17.9999C2.33594 11.5575 7.55854 6.33492 14.0009 6.33492ZM13.3359 7.68598C9.26598 7.94444 5.8361 10.5586 4.3948 14.1801L10.7777 16.254C11.297 15.2974 12.2296 14.5979 13.3359 14.3951V7.68598ZM3.98414 15.4451C3.77636 16.2622 3.66594 17.1182 3.66594 17.9999C3.66594 21.198 5.11854 24.0568 7.39996 25.9526L11.3439 20.5243C10.7192 19.867 10.3359 18.9782 10.3359 17.9999C10.3359 17.8369 10.3466 17.6764 10.3672 17.5191L3.98414 15.4451ZM8.47527 26.7353C10.0734 27.7484 11.9687 28.3349 14.0009 28.3349C16.0326 28.3349 17.9274 27.7487 19.5253 26.7361L15.5813 21.3076C15.1028 21.5367 14.5668 21.6649 14.0009 21.6649C13.4345 21.6649 12.898 21.5364 12.4192 21.307L8.47527 26.7353ZM14.0009 15.6649C12.7114 15.6649 11.6659 16.7103 11.6659 17.9999C11.6659 19.2895 12.7114 20.3349 14.0009 20.3349C15.2905 20.3349 16.3359 19.2895 16.3359 17.9999C16.3359 16.7103 15.2905 15.6649 14.0009 15.6649Z" fill="#000000" class="bmwfcol"/><title>accessory-configurator_lt_48</title></svg>