<svg width="48" height="48" viewBox="0 0 32 32" xmlns="http://www.w3.org/2000/svg"><path d="M16.0009 2.33501C10.6631 2.33501 6.33594 6.66217 6.33594 12C6.33594 16.4685 9.36838 20.2287 13.4876 21.335H6.33594V30H7.66594V22.665H24.3359V30H25.6659V21.335H18.5143C22.6335 20.2287 25.6659 16.4685 25.6659 12C25.6659 6.66217 21.3388 2.33501 16.0009 2.33501ZM7.66594 12C7.66594 11.3336 7.74414 10.6855 7.89188 10.0643L12.8523 11.676C12.8415 11.7826 12.8359 11.8906 12.8359 12C12.8359 12.812 13.1417 13.5525 13.6444 14.1128L10.5796 18.3312C8.79603 16.8025 7.66594 14.5332 7.66594 12ZM13.2631 10.4111L8.30262 8.79931C9.47659 5.97891 12.1553 3.94204 15.3364 3.69111V8.90489C14.4519 9.09388 13.7043 9.6524 13.2631 10.4111ZM16.6664 8.90509V3.69118C19.8472 3.94244 22.5256 5.97931 23.6994 8.79957L18.7389 10.4113C18.2978 9.65278 17.5506 9.09429 16.6664 8.90509ZM19.1496 11.6763L24.1101 10.0646C24.2578 10.6857 24.3359 11.3337 24.3359 12C24.3359 14.533 23.2061 16.802 21.4229 18.3307L18.358 14.1123C18.8604 13.552 19.1659 12.8117 19.1659 12C19.1659 11.8907 19.1604 11.7828 19.1496 11.6763ZM17.2826 14.8948L20.3475 19.1133C19.082 19.8883 17.5936 20.335 16.0009 20.335C14.4085 20.335 12.9204 19.8884 11.655 19.1137L14.72 14.8951C15.1116 15.0686 15.545 15.165 16.0009 15.165C16.4571 15.165 16.8908 15.0685 17.2826 14.8948ZM14.1659 12C14.1659 10.9866 14.9875 10.165 16.0009 10.165C17.0144 10.165 17.8359 10.9866 17.8359 12C17.8359 13.0134 17.0144 13.835 16.0009 13.835C14.9875 13.835 14.1659 13.0134 14.1659 12Z" fill="#000000" class="bmwfcol"/><title>accessory-showroom_lt_48</title></svg>