<svg width="48" height="48" viewBox="0 0 32 32" xmlns="http://www.w3.org/2000/svg"><path d="M1.75391 4.69349V3.36052C3.16508 3.44035 4.15806 3.72146 4.86457 4.39305C5.29178 4.79914 5.5684 5.30521 5.78684 5.86926C6.00229 6.42558 6.17937 7.08961 6.37645 7.82869C6.573 8.56574 8.228 14.7419 9.19101 18.3348H16.7539C18.7877 18.3348 20.2652 18.3335 21.4124 18.1841C22.5405 18.0372 23.2653 17.7558 23.8315 17.2527C24.4133 16.7357 24.9016 15.9201 25.4155 14.5478C25.9287 13.1775 26.4387 11.3356 27.1106 8.82768L27.3325 7.99968H28.7094L28.3953 9.17189C27.7277 11.6639 27.2011 13.5721 26.661 15.0143C26.1216 16.4545 25.5398 17.5139 24.7149 18.2469C23.8744 18.9938 22.8558 19.3374 21.5841 19.503C20.3413 19.6648 18.7775 19.6648 16.8011 19.6648H9.54752C9.70524 20.2531 9.81646 20.6679 9.85933 20.8276C10.1274 21.8264 10.3283 22.047 10.5445 22.1542C10.6834 22.223 10.8969 22.2768 11.273 22.3057C11.6487 22.3346 12.1195 22.335 12.7539 22.335L23.2539 22.3349C25.0019 22.3349 26.4189 23.7519 26.4189 25.4999C26.4189 27.2479 25.0019 28.6649 23.2539 28.6649C21.5059 28.6649 20.0889 27.2479 20.0889 25.4999C20.0889 24.8159 20.3058 24.1826 20.6747 23.665H12.8331C13.2019 24.1826 13.4189 24.8159 13.4189 25.4999C13.4189 27.2479 12.0019 28.6649 10.2539 28.6649C8.50589 28.6649 7.08887 27.2479 7.08887 25.4999C7.08887 24.1572 7.92496 23.0098 9.1049 22.5499C8.87256 22.1689 8.71686 21.7017 8.5748 21.1724C8.3064 20.1725 5.35819 9.17199 5.09136 8.17138C4.88851 7.41069 4.73047 6.82435 4.5466 6.34957C4.36566 5.88236 4.17853 5.57593 3.94825 5.35702C3.58314 5.00996 2.99127 4.77215 1.75391 4.69349ZM23.2538 23.665C22.2515 23.6779 21.4189 24.4945 21.4189 25.4999C21.4189 26.5133 22.2404 27.3349 23.2539 27.3349C24.2673 27.3349 25.0889 26.5133 25.0889 25.4999C25.0889 24.4864 24.2673 23.665 23.2538 23.665ZM8.41887 25.4999C8.41887 26.5133 9.24043 27.3349 10.2539 27.3349C11.2673 27.3349 12.0889 26.5133 12.0889 25.4999C12.0889 24.4864 11.2673 23.6649 10.2539 23.6649C9.24043 23.6649 8.41887 24.4864 8.41887 25.4999Z" fill="#000000" class="bmwfcol"/><path d="M16.754 2.33496C13.073 2.33496 10.089 5.31898 10.089 8.99996C10.089 12.6809 13.073 15.665 16.754 15.665C20.4349 15.665 23.419 12.6809 23.419 8.99996C23.419 5.31898 20.4349 2.33496 16.754 2.33496ZM16.089 3.706V8.08467L11.9239 6.73137C12.6866 5.11045 14.2412 3.93576 16.089 3.706ZM11.419 8.99996C11.419 8.6569 11.4513 8.32141 11.5132 7.99637L15.6779 9.34956L13.1045 12.8915C12.0671 11.9182 11.419 10.5348 11.419 8.99996ZM14.1799 13.6741L16.7539 10.1313L19.3279 13.6741C18.5647 14.0953 17.6873 14.335 16.754 14.335C15.8206 14.335 14.9432 14.0953 14.1799 13.6741ZM17.83 9.34956L21.9947 7.99635C22.0566 8.3214 22.089 8.6569 22.089 8.99996C22.089 10.5348 21.4408 11.9182 20.4034 12.8915L17.83 9.34956ZM17.419 3.706C19.2668 3.93576 20.8213 5.11044 21.584 6.73136L17.419 8.08466V3.706Z" fill="#000000" class="bmwfcol"/><title>accessory-shop_lt_48</title></svg>