<svg width="48" height="48" viewBox="0 0 32 32" xmlns="http://www.w3.org/2000/svg"><path d="M26.4413 13.2535L26.9455 14.3347C26.4562 14.3346 25.9669 14.3353 25.4777 14.3341L24.8606 13.0109L25.1524 12.3072L28.744 11L25.1524 9.69276L24.8607 8.9891L26.4761 5.5249L23.0119 7.14029L22.3082 6.84863L21.001 3.25699L19.6937 6.84863L18.9901 7.14029L15.5259 5.5249L17.1413 8.98917L16.8495 9.69279L13.7107 10.8352C12.7634 10.8363 11.9893 10.843 11.3359 10.8644V10.2842L15.5607 8.74654L13.6607 4.672L14.673 3.6597L18.7475 5.55969L20.2852 1.335H21.7168L23.2545 5.55969L27.329 3.65968L28.3413 4.67199L26.4413 8.74654L30.666 10.2842V11.7158L26.4413 13.2535Z" fill="#000000" class="bmwfcol"/><path d="M13.156 20.085H10.2235L9.33398 20.9745V23.6933L10.5861 25.665H13.5244L13.999 25.1905L14.4735 25.665H17.4568L18.664 23.6869L18.664 20.9745L17.7744 20.085H14.842L13.999 20.5065L13.156 20.085ZM10.664 21.5255L10.7744 21.415H12.842L13.3359 21.662V23.9726L12.9735 24.335H11.317L10.664 23.3067V21.5255ZM14.6659 23.9765V21.66L15.156 21.415H17.2235L17.334 21.5255L17.334 23.3131L16.7103 24.335H15.0244L14.6659 23.9765Z" fill="#000000" class="bmwfcol"/><path d="M3.20468 19.1013C3.70988 18.4851 4.3117 17.9311 4.89751 17.3906C4.73137 17.2997 4.52042 17.2407 4.19038 17.2061C3.69664 17.1542 3.03951 17.165 2 17.165V15.835C2.98383 15.835 3.74528 15.822 4.32919 15.8833C4.76833 15.9294 5.15259 16.0207 5.50549 16.2075C5.69523 15.8481 5.91513 15.4577 6.15432 15.0765C6.42884 14.6388 6.73747 14.1992 7.06389 13.8285C7.38088 13.4685 7.7591 13.1217 8.18278 12.9357C9.34058 12.4276 10.1504 12.3351 14.001 12.3351C17.8513 12.3351 18.6624 12.4276 19.8193 12.9358C20.2424 13.1224 20.6211 13.4694 20.9381 13.8295C21.2644 14.2002 21.573 14.6398 21.8475 15.0772C22.0864 15.4579 22.306 15.8476 22.4956 16.2064C22.8479 16.0204 23.2316 15.9294 23.6698 15.8834C24.2537 15.8221 25.0154 15.8351 25.9992 15.8351V17.1651C25.2698 17.1651 24.535 17.1299 23.8086 17.2061C23.4796 17.2406 23.269 17.2993 23.1033 17.3897C23.7289 17.9655 24.3392 18.5426 24.7972 19.1013C25.2574 19.6626 25.6659 20.3237 25.6659 21.0429V29.6651H20.3359V28.4629C16.0477 28.7458 11.9542 28.7458 7.66594 28.4629V29.6651H2.33594V21.0429C2.33594 20.3237 2.74443 19.6626 3.20468 19.1013ZM8.71732 14.1536C8.55786 14.2236 8.3336 14.3991 8.06206 14.7074C7.79991 15.0051 7.5339 15.3801 7.28098 15.7832C7.03945 16.1683 6.8178 16.5662 6.63072 16.9255C6.87743 16.9018 7.1481 16.8844 7.44494 16.8712C8.47624 16.8253 9.91636 16.8281 11.924 16.8322C13.308 16.835 14.6921 16.835 16.0762 16.8322C18.0835 16.8281 19.5226 16.8253 20.5533 16.8712C20.8516 16.8844 21.1235 16.902 21.3712 16.9259C21.1841 16.5668 20.9624 16.169 20.7209 15.7842C20.468 15.3811 20.202 15.0062 19.9397 14.7083C19.6684 14.4001 19.444 14.2241 19.284 14.1533C18.425 13.776 17.8999 13.6651 14.001 13.6651C10.1018 13.6651 9.5778 13.776 8.71732 14.1536ZM21.9097 18.349C21.5975 18.2778 21.1518 18.2291 20.4941 18.1998C19.4971 18.1554 18.1041 18.1582 16.1105 18.1622C14.704 18.165 13.2975 18.165 11.891 18.1622C9.89696 18.1582 8.50175 18.1554 7.50407 18.1998C6.84603 18.2291 6.39987 18.2778 6.08731 18.349C5.83131 18.4074 5.70015 18.4733 5.62598 18.5283C5.0344 19.0767 4.40849 19.6349 3.95888 20.3121C5.10314 20.5931 6.30104 20.7367 8 20.857V22.1903C6.23488 22.0676 4.9329 21.9184 3.66594 21.6096V28.3351H6.33594V27.0348L7.04929 27.0868C11.7727 27.4311 16.2292 27.4311 20.9526 27.0868L21.6659 27.0348V28.3351H24.3359V21.6105C23.0685 21.9195 21.7661 22.0686 20 22.1914V20.8581C21.7002 20.7377 22.8987 20.5941 24.0435 20.3129C23.6022 19.6478 22.9893 19.099 22.4088 18.5599C22.3438 18.4999 22.2165 18.419 21.9097 18.349Z" fill="#000000" class="bmwfcol"/><title>accident-service_lt_48</title></svg>