<svg width="48" height="48" viewBox="0 0 32 32" xmlns="http://www.w3.org/2000/svg"><path d="M30 18.1354V20.0331C29.842 19.8466 29.6768 19.6672 29.5047 19.4952C27.7212 17.7117 25.1488 16.665 22 16.665C18.8511 16.665 16.2787 17.7117 14.4952 19.4952C12.8389 21.1515 11.818 23.4881 11.6808 26.335H14V27.665H10.335V27C10.335 23.5488 11.4882 20.6212 13.5547 18.5547C15.6212 16.4882 18.5488 15.335 22 15.335C25.2102 15.335 27.9675 16.3329 30 18.1354Z" fill="#000000" class="bmwfcol"/><path d="M20.6159 24.6755L16.4702 20.5298L15.5298 21.4702L19.6755 25.6159C19.45 26.0209 19.335 26.4937 19.335 27C19.335 27.7511 19.5882 28.4287 20.0797 28.9202C20.5712 29.4117 21.2488 29.665 22 29.665C23.5881 29.665 24.665 28.4506 24.665 27C24.665 26.2488 24.4117 25.5712 23.9202 25.0797C23.4287 24.5882 22.7511 24.335 22 24.335C21.4937 24.335 21.0209 24.45 20.6159 24.6755ZM20.665 27C20.665 26.5511 20.8117 26.2287 21.0202 26.0202C21.2287 25.8117 21.5511 25.665 22 25.665C22.4488 25.665 22.7712 25.8117 22.9797 26.0202C23.1882 26.2287 23.335 26.5511 23.335 27C23.335 27.7584 22.8119 28.335 22 28.335C21.5511 28.335 21.2287 28.1882 21.0202 27.9797C20.8117 27.7712 20.665 27.4488 20.665 27Z" fill="#000000" class="bmwfcol"/><path d="M25.665 13.4063V11.0428C25.665 10.3236 25.2565 9.66253 24.7962 9.10116C24.3384 8.54276 23.7285 7.96589 23.1031 7.3903C23.269 7.29964 23.4797 7.24077 23.8093 7.20619C24.2267 7.16239 24.7605 7.1633 25.5435 7.16463C25.687 7.16487 25.8389 7.16513 25.9999 7.16513V5.83513C25.8484 5.83513 25.7022 5.83482 25.5612 5.83453C24.7856 5.8329 24.1647 5.83159 23.6705 5.88345C23.2318 5.92949 22.8477 6.02067 22.4951 6.20716C22.3054 5.84812 22.0856 5.4581 21.8465 5.07712C21.572 4.63966 21.2634 4.20013 20.9371 3.82941C20.6201 3.46934 20.2414 3.12226 19.8183 2.9357C18.6615 2.42745 17.8504 2.33496 14 2.33496C10.1495 2.33496 9.33968 2.42749 8.18188 2.93559C7.7582 3.12158 7.3799 3.46838 7.06292 3.82837C6.73649 4.19906 6.42786 4.63874 6.15334 5.07635C5.9142 5.45756 5.69434 5.84787 5.50463 6.20714C5.15197 6.0207 4.76797 5.92949 4.32919 5.88345C3.83506 5.83159 3.21426 5.8329 2.4388 5.83453C2.29784 5.83482 2.15135 5.83513 2 5.83513V7.16513C2.16096 7.16513 2.31275 7.16487 2.45617 7.16463C3.23909 7.1633 3.77306 7.16239 4.19038 7.20618C4.51991 7.24077 4.73071 7.29962 4.89673 7.39035C4.27143 7.96593 3.6615 8.54278 3.2037 9.10116C2.74345 9.66253 2.33496 10.3236 2.33496 11.0428V19.665H7.66496V17.6649H11.2026C11.4251 17.4025 11.6588 17.1486 11.9037 16.9037C12.1005 16.7069 12.3031 16.5172 12.5114 16.3349H6.33496V18.335H3.66496V11.665H10V10.335H3.94277C4.01996 10.2166 4.11552 10.0867 4.23222 9.9444C4.58824 9.51016 5.06987 9.04279 5.62715 8.52622C5.70715 8.46549 5.84966 8.39052 6.11813 8.31996C6.44035 8.23528 6.89776 8.16857 7.55812 8.12024C8.87923 8.02354 10.8893 8.00773 14.0001 8.00773C17.1108 8.00773 19.1209 8.02354 20.442 8.12024C21.1023 8.16857 21.5598 8.23528 21.882 8.31996C22.1493 8.39022 22.2917 8.46485 22.3719 8.52545C22.9296 9.04237 23.4115 9.50988 23.7677 9.9444C23.8844 10.0867 23.98 10.2166 24.0571 10.335H18V11.665H24.335V13.1602C24.7863 13.2236 25.23 13.3057 25.665 13.4063ZM14 3.66496C17.8989 3.66496 18.424 3.77587 19.283 4.15323C19.4431 4.22397 19.6675 4.39999 19.9388 4.7082C20.201 5.0061 20.4671 5.38102 20.72 5.78406C20.9495 6.14983 21.1611 6.52729 21.3421 6.87213C21.0975 6.84086 20.8295 6.81515 20.536 6.79367C19.1577 6.69279 17.0948 6.67773 14.0001 6.67773C10.9053 6.67773 8.84238 6.69279 7.46409 6.79367C7.17046 6.81517 6.90231 6.84089 6.65756 6.87218C6.83865 6.52706 7.05034 6.14923 7.28001 5.78312C7.53292 5.37995 7.79893 5.00503 8.06109 4.70732C8.33263 4.39895 8.55688 4.22351 8.71634 4.15348C9.57682 3.77586 10.1008 3.66496 14 3.66496Z" fill="#000000" class="bmwfcol"/><title>active-cruise-control_lt_48</title></svg>