<svg width="48" height="48" viewBox="0 0 32 32" xmlns="http://www.w3.org/2000/svg"><path d="M18.665 2V6H17.335V2H18.665Z" fill="#000000" class="bmwfcol"/><path d="M21.665 2V6H20.335V2H21.665Z" fill="#000000" class="bmwfcol"/><path d="M27.3334 7.33496C28.2845 7.33496 29.1288 7.6549 29.7369 8.26307C30.3451 8.87123 30.665 9.71551 30.665 10.6666C30.665 11.6177 30.3451 12.462 29.7369 13.0702C29.1288 13.6784 28.2845 13.9983 27.3334 13.9983H26.4637C26.3372 14.6442 26.1571 15.3164 25.9404 16.1251L25.5278 17.665H16.4723L16.0597 16.1252C15.6232 14.4964 15.335 13.4209 15.335 12V7.33496H27.3334ZM26.665 8.66496V12C26.665 12.2306 26.6574 12.4521 26.6429 12.6683H27.3334C27.9823 12.6683 28.4713 12.4549 28.7965 12.1297C29.1216 11.8046 29.335 11.3155 29.335 10.6666C29.335 10.0177 29.1216 9.52869 28.7965 9.20352C28.4713 8.87835 27.9823 8.66496 27.3334 8.66496H26.665ZM16.665 12C16.665 13.2324 16.9073 14.1497 17.3569 15.8277L17.4928 16.335H24.5072L24.6435 15.8265C25.0929 14.1493 25.335 13.2321 25.335 12V8.66496H16.665V12Z" fill="#000000" class="bmwfcol"/><path d="M24.665 6V2H23.335V6H24.665Z" fill="#000000" class="bmwfcol"/><path d="M13.7903 16.678L14.1467 18.0079C14.0981 18.0079 14.0492 18.0079 14.0001 18.0079C10.8894 18.0079 8.87929 18.0237 7.5582 18.1204C6.89785 18.1688 6.44043 18.2355 6.11822 18.3202C5.84914 18.3909 5.7066 18.466 5.6267 18.5268C5.06961 19.0432 4.58814 19.5105 4.23222 19.9446C4.11552 20.0869 4.01996 20.2168 3.94277 20.3352H10V21.6652H3.66496V28.3352H6.33496V26.3351H21.665V28.3352H24.335V21.6652H18V20.3352C19.3082 20.3352 25.5387 20.3352 25.5387 20.3352C25.5387 20.3352 25.665 20.7999 25.665 21.043V29.6652H20.335V27.6651H7.66496V29.6652H2.33496V21.043C2.33496 20.3238 2.74345 19.6627 3.2037 19.1014C3.6615 18.543 4.27143 17.9661 4.89673 17.3906C4.73071 17.2998 4.51991 17.241 4.19038 17.2064C3.77306 17.1626 3.23919 17.1635 2.45627 17.1648C2.31285 17.1651 2.16096 17.1653 2 17.1653V15.8353C2.15135 15.8353 2.2977 15.835 2.43867 15.8347C3.21413 15.8331 3.83506 15.8318 4.32919 15.8837C4.76797 15.9297 5.15197 16.0209 5.50463 16.2073C5.69434 15.8481 5.9142 15.4578 6.15334 15.0766C6.42786 14.6389 6.73649 14.1993 7.06292 13.8286C7.3799 13.4686 7.7582 13.1218 8.18188 12.9358C9.23233 12.4748 9.99628 12.3559 13.0046 12.3378C13.0174 12.8037 13.0562 13.2427 13.1146 13.6674C10.0135 13.6849 9.50692 13.8067 8.71634 14.1537C8.55688 14.2237 8.33263 14.3992 8.06109 14.7075C7.79893 15.0052 7.53292 15.3802 7.28001 15.7833C7.05034 16.1494 6.83865 16.5273 6.65756 16.8724C6.90233 16.8411 7.1705 16.8154 7.46417 16.7939C8.81106 16.6953 10.8118 16.6787 13.7903 16.678Z" fill="#000000" class="bmwfcol"/><title>active-protection_lt_48</title></svg>