<svg width="48" height="48" viewBox="0 0 32 32" xmlns="http://www.w3.org/2000/svg"><path d="M8.9578 6.11811C8.84348 5.77138 8.78516 5.39516 8.78516 4.99999C8.78516 4.09887 9.08843 3.29626 9.66743 2.71727C10.2464 2.13827 11.049 1.83499 11.9502 1.83499C12.8513 1.83499 13.6539 2.13827 14.2329 2.71727C14.8119 3.29626 15.1152 4.09887 15.1152 4.99999C15.1152 5.98804 14.6971 6.88161 13.9857 7.46533L15.0044 7.7383L11.8283 19.5919L10.8624 19.3331L9.79216 23.3271C9.59673 24.0596 9.19348 24.6596 8.58727 25.0094C9.00013 25.5536 9.21477 26.2419 9.21477 27C9.21477 28.7268 7.93787 30.165 6.04977 30.165C5.14865 30.165 4.34604 29.8617 3.76704 29.2827C3.18804 28.7037 2.88477 27.9011 2.88477 27C2.88477 26.0989 3.18804 25.2963 3.76704 24.7173C4.07541 24.4089 4.4472 24.1787 4.86352 24.031L4.84884 24.0058C4.49984 23.3999 4.44995 22.6802 4.64301 21.9505L5.71397 17.9536L4.74802 17.6948L7.92419 5.84116L8.9578 6.11811ZM10.1152 4.99999C10.1152 5.59887 10.3119 6.04626 10.6079 6.34227C10.7857 6.52008 11.0181 6.66206 11.3052 6.7471L11.4038 6.77352C11.5692 6.81331 11.7514 6.83499 11.9502 6.83499C13.0621 6.83499 13.7852 6.03462 13.7852 4.99999C13.7852 4.40111 13.5884 3.95372 13.2924 3.65772C12.9964 3.36172 12.549 3.16499 11.9502 3.16499C11.3513 3.16499 10.9039 3.36172 10.6079 3.65772C10.3119 3.95372 10.1152 4.40111 10.1152 4.99999ZM10.9543 8.02998L8.86464 7.47007L6.37693 16.7543L10.8878 17.963L13.3755 8.67875L11.064 8.05937C11.0271 8.05017 10.9905 8.04037 10.9543 8.02998ZM7.01178 23.9605C7.40901 24.0403 7.70797 23.981 7.92193 23.8578C8.15987 23.7207 8.38214 23.4531 8.50704 22.9845L9.57767 18.9889L6.99865 18.2978L5.92878 22.2906C5.80545 22.7576 5.86356 23.1028 6.00131 23.342C6.13463 23.5734 6.38993 23.7892 6.82997 23.916C6.89133 23.9292 6.95195 23.944 7.01178 23.9605ZM6.52799 25.2124C6.38536 25.1843 6.21563 25.165 6.04977 25.165C5.45089 25.165 5.00349 25.3617 4.70749 25.6577C4.41149 25.9537 4.21477 26.4011 4.21477 27C4.21477 27.5989 4.41149 28.0463 4.70749 28.3423C5.00349 28.6383 5.45089 28.835 6.04977 28.835C7.16166 28.835 7.88477 28.0346 7.88477 27C7.88477 26.4011 7.68804 25.9537 7.39204 25.6577C7.2141 25.4798 6.98146 25.3377 6.69409 25.2527C6.63881 25.2407 6.58343 25.2272 6.52799 25.2124Z" fill="#000000" class="bmwfcol"/><path d="M18 24.665H15.665V27H14.335V24.665H12V23.335H14.335V21H15.665V23.335H18V24.665Z" fill="#000000" class="bmwfcol"/><path d="M30 24.665H24V23.335H30V24.665Z" fill="#000000" class="bmwfcol"/><path d="M20.2518 28L23.1635 20H21.7482L18.8364 28H20.2518Z" fill="#000000" class="bmwfcol"/><title>adaptive-suspension_lt_48</title></svg>