<svg width="48" height="48" viewBox="0 0 32 32" xmlns="http://www.w3.org/2000/svg"><path d="M10.2245 17.085H13.1569L14 17.5065L14.843 17.085H17.7754L18.665 17.9745L18.665 21.1869L17.4578 23.165H14.4745L14 22.6905L13.5254 23.165H10.5871L9.33496 21.1933V17.9745L10.2245 17.085ZM10.7754 18.415L10.665 18.5255V20.8067L11.318 21.835H12.9745L13.335 21.4745V18.661L12.843 18.415H10.7754ZM14.665 18.661V21.4745L15.0254 21.835H16.7113L17.335 20.8131L17.335 18.5255L17.2245 18.415H15.1569L14.665 18.661Z" fill="#000000" class="bmwfcol"/><path d="M3.2037 16.1013C3.61011 15.6056 4.13643 15.0953 4.68695 14.5843C4.75683 14.5195 4.82679 14.4548 4.8969 14.3903C4.73085 14.2995 4.52002 14.2406 4.19038 14.2061C3.77306 14.1623 3.23919 14.1632 2.45627 14.1645C2.31291 14.1647 2.16088 14.165 2 14.165V12.835C2.15125 12.835 2.2975 12.8347 2.43837 12.8344C3.21383 12.8328 3.83506 12.8315 4.32919 12.8833C4.76801 12.9294 5.15204 13.0206 5.50472 13.2071C5.69441 12.8478 5.91424 12.4576 6.15334 12.0765C6.42786 11.6388 6.73649 11.1992 7.06292 10.8285C7.3799 10.4685 7.75812 10.1217 8.1818 9.93573C9.3396 9.42764 10.1495 9.33507 14 9.33507C17.8504 9.33507 18.6615 9.42756 19.8183 9.93581C20.2414 10.1224 20.6201 10.4694 20.9371 10.8295C21.2634 11.2002 21.572 11.6398 21.8465 12.0772C22.0856 12.4581 22.3053 12.8481 22.495 13.2071C22.8477 13.0206 23.2317 12.9294 23.6705 12.8833C24.1647 12.8315 24.7856 12.8328 25.5612 12.8344C25.7022 12.8347 25.8484 12.835 25.9999 12.835V14.165C25.8389 14.165 25.687 14.1647 25.5435 14.1645C24.7605 14.1632 24.2267 14.1623 23.8093 14.2061C23.4796 14.2407 23.2688 14.2996 23.103 14.3903C23.7283 14.9659 24.3384 15.5428 24.7962 16.1013C25.2565 16.6626 25.665 17.3237 25.665 18.0429V26.6651H20.335V25.4629C16.0467 25.7458 11.9532 25.7458 7.66496 25.4629V26.6651H2.33496V18.0429C2.33496 17.3237 2.74345 16.6626 3.2037 16.1013ZM14 10.6651C10.1008 10.6651 9.57682 10.776 8.71634 11.1536C8.55688 11.2236 8.33263 11.3991 8.06109 11.7074C7.79893 12.0051 7.53292 12.3801 7.28001 12.7832C7.0384 13.1684 6.81669 13.5665 6.62957 13.9258C6.87662 13.9021 7.14771 13.8846 7.44507 13.8714C8.47636 13.8255 9.91518 13.8284 11.9228 13.8324C12.5568 13.8337 13.2475 13.835 14.0001 13.835C14.7522 13.835 15.4436 13.8337 16.0773 13.8324C18.0846 13.8284 19.5227 13.8255 20.5534 13.8714C20.8513 13.8846 21.1229 13.9022 21.3703 13.926C21.1832 13.5669 20.9615 13.1691 20.72 12.7842C20.4671 12.3811 20.201 12.0062 19.9388 11.7083C19.6675 11.4001 19.4431 11.2241 19.283 11.1533C18.424 10.776 17.8989 10.6651 14 10.6651ZM6.08743 15.3492C5.82302 15.4095 5.69178 15.4778 5.61897 15.5339C5.06516 16.0475 4.58649 16.5124 4.23222 16.9445C4.12291 17.0778 4.03215 17.2002 3.95766 17.3124C5.10223 17.5936 6.30042 17.7372 8 17.8576V19.1909C6.2344 19.0681 4.93218 18.9189 3.66496 18.61V25.3351H6.33496V24.0348L7.04831 24.0868C11.7717 24.4312 16.2282 24.4312 20.9516 24.0868L21.665 24.0348V25.3351H24.335V18.61C23.0678 18.9189 21.7656 19.0681 20 19.1909V17.8576C21.6996 17.7372 22.8977 17.5936 24.0423 17.3125C23.9678 17.2002 23.877 17.0778 23.7677 16.9445C23.4194 16.5197 22.9509 16.0634 22.409 15.5601C22.3439 15.5001 22.2166 15.4192 21.9098 15.3492C21.5976 15.278 21.1519 15.2293 20.4943 15.2C19.4972 15.1556 18.1044 15.1584 16.1106 15.1624C15.4712 15.1636 14.7699 15.165 14.0001 15.165C13.2303 15.165 12.529 15.1636 11.8895 15.1624C9.8954 15.1584 8.50189 15.1556 7.50419 15.2C6.84615 15.2293 6.4 15.278 6.08743 15.3492Z" fill="#000000" class="bmwfcol"/><path d="M26.665 5.335V2H25.335V5.335L22 5.335V6.665L25.335 6.665V10H26.665V6.665L30 6.665V5.335L26.665 5.335Z" fill="#000000" class="bmwfcol"/><title>add-car_lt_48</title></svg>