<svg width="48" height="48" viewBox="0 0 32 32" xmlns="http://www.w3.org/2000/svg"><path d="M6.38148 22C5.29372 20.2599 4.66504 18.2034 4.66504 16C4.66504 9.73985 9.73989 4.665 16 4.665C22.2602 4.665 27.335 9.73985 27.335 16C27.335 22.2601 22.2602 27.335 16 27.335C14.0686 27.335 12.25 26.8519 10.6584 26H8.2272C10.3729 27.6702 13.0703 28.665 16 28.665C22.9947 28.665 28.665 22.9947 28.665 16C28.665 9.00531 22.9947 3.335 16 3.335C9.00535 3.335 3.33504 9.00531 3.33504 16C3.33504 18.1709 3.88123 20.2142 4.84368 22H6.38148Z" fill="#000000" class="bmwfcol"/><path d="M21.9999 19.353L23.5144 19.8451L23.9269 18.5754C24.0668 18.1447 24.1698 17.7113 24.2375 17.2785C23.6245 17.0944 23.1557 16.9952 22.6525 17.0105C22.0689 17.0282 21.3818 17.2044 20.3503 17.7066L20.255 17.9998H18.8566L19.2567 16.7684L19.5021 16.6433C20.7574 16.0038 21.7073 15.7086 22.6121 15.6811C23.5085 15.6538 24.2948 15.8944 25.1698 16.1773L25.6759 16.3409L25.6275 16.8705C25.5631 17.5763 25.4196 18.2853 25.1918 18.9864L24.3683 21.521L21.9999 20.7515V19.353Z" fill="#000000" class="bmwfcol"/><path d="M21.6808 8.18062C21.0844 7.7473 20.4543 7.39173 19.803 7.11236L19.3143 6.90271L19.0023 7.33343C18.4629 8.07818 17.9911 8.75172 17.74 9.61263C17.4866 10.4816 17.4738 11.4763 17.6941 12.8678L17.7372 13.1398L18.9919 14.0514L20.9329 13.744L23.8368 9.74706L21.6808 8.18062ZM19.0168 9.98499C19.1578 9.50171 19.397 9.08655 19.7615 8.56038C20.1522 8.75859 20.5326 8.99042 20.899 9.25661L21.9791 10.0413L20.1807 12.5166L19.328 12.6516L18.9674 12.3896C18.8086 11.2535 18.8533 10.5456 19.0168 9.98499Z" fill="#000000" class="bmwfcol"/><path d="M10.3189 8.18057C9.72247 8.61388 9.18961 9.1032 8.72264 9.63631L8.37222 10.0364L8.68546 10.4662C9.22708 11.2093 9.72185 11.8662 10.463 12.371C11.2112 12.8805 12.1532 13.2001 13.5447 13.4205L13.8167 13.4636L15.0714 12.552L15.3788 10.6111L12.4749 6.61412L10.3189 8.18057ZM11.2117 11.2717C10.7957 10.9883 10.4747 10.6325 10.087 10.1233C10.3962 9.81292 10.7343 9.52275 11.1006 9.25656L12.1807 8.47187L13.979 10.9471L13.844 11.7998L13.4834 12.0618C12.3538 11.8617 11.6944 11.6004 11.2117 11.2717Z" fill="#000000" class="bmwfcol"/><path d="M6.80788 18.9864C7.03568 19.6875 7.33639 20.3455 7.6991 20.9544L7.97129 21.4113L8.47685 21.2462C9.35098 20.9607 10.1286 20.6931 10.8377 20.1442C11.5535 19.5901 12.1486 18.793 12.7882 17.5377L12.9132 17.2923L12.434 15.8173L10.683 14.9251L5.98435 16.4518L6.80788 18.9864ZM10.0236 19.0925C9.62556 19.4006 9.18798 19.5959 8.58382 19.8073C8.38423 19.4173 8.21273 19.0061 8.07278 18.5754L7.66024 17.3058L10.5701 16.3603L11.3393 16.7522L11.477 17.1761C10.9377 18.1886 10.4854 18.735 10.0236 19.0925Z" fill="#000000" class="bmwfcol"/><path d="M16 14.835C15.3565 14.835 14.835 15.3566 14.835 16C14.835 16.6434 15.3565 17.165 16 17.165C16.6434 17.165 17.165 16.6434 17.165 16C17.165 15.3566 16.6434 14.835 16 14.835Z" fill="#000000" class="bmwfcol"/><path d="M14.375 20.625L15.625 19.375H20.625V24.375L19.375 25.625V21.5362C17.9558 22.8726 16.9004 23.6609 15.8951 24.1077C14.6406 24.6652 13.514 24.6651 12.0671 24.665L2 24.665V23.335H12C13.5207 23.335 14.3787 23.3262 15.3549 22.8923C16.1522 22.538 17.0588 21.8837 18.4021 20.625H14.375Z" fill="#000000" class="bmwfcol"/><title>aero-rims_lt_48</title></svg>