<svg width="48" height="48" viewBox="0 0 32 32" xmlns="http://www.w3.org/2000/svg"><path d="M9.09318 8.28632L5.32259 6.10941L1.33398 13.0179V15.6518L4.77827 17.6404L5.33047 16.684C6.13735 18.1371 7.33811 19.4496 8.90215 20.5447L11.9417 22.673L19.3759 24.665H20.2747L23.9703 20.9694C24.5537 20.386 25.0643 19.7751 25.4989 19.1414C26.0179 18.3847 26.4293 17.5971 26.731 16.7903L27.2219 17.6404L30.6662 15.6519V13.0179L26.6776 6.10947L22.8228 8.33501H19.6417L16.2404 6.37125L9.09318 8.28632ZM17.4533 8.60724L11.0605 15L11.5307 15.4702C13.3466 17.2864 16.2105 17.062 19.0557 15.4495L24.012 18.9199C23.7177 19.298 23.3901 19.6686 23.029 20.0298L19.7238 23.335H19.551L12.5124 21.449L9.66502 19.4552C7.97733 18.2735 6.80045 16.8444 6.12895 15.3011L9.4374 9.571L16.0525 7.79851L17.4533 8.60724ZM5.80941 7.92621L8.0908 9.24335L4.29148 15.8236L2.66398 14.8839V13.3743L5.80941 7.92621ZM18.2764 9.66501H22.617L25.8185 15.2097C25.619 16.0947 25.2689 16.9723 24.764 17.8229L19.112 13.8653L18.7406 14.0919C16.3029 15.5796 14.2855 15.7365 12.9967 14.9447L18.2764 9.66501ZM27.7087 15.8236L23.9094 9.24341L26.1908 7.92627L29.3362 13.3743V14.884L27.7087 15.8236Z" fill="#000000" class="bmwfcol"/><path d="M6 23.912V22.2884L10.5138 25.449L16 26.919V28.2959L9.94304 26.673L6 23.912Z" fill="#000000" class="bmwfcol"/><title>agreement_lt_48</title></svg>