<svg width="48" height="48" viewBox="0 0 32 32" xmlns="http://www.w3.org/2000/svg"><path d="M7.39388 2C7.04688 3.04036 6.789 3.80349 6.53399 4.3985C6.26767 5.01991 6.02154 5.41529 5.71841 5.71841C5.41529 6.02154 5.01991 6.26767 4.3985 6.53399C3.80349 6.789 3.04036 7.04688 2 7.39388V8.60612C3.04036 8.95312 3.80349 9.21101 4.3985 9.46601C5.01991 9.73233 5.41529 9.97846 5.71841 10.2816C6.02154 10.5847 6.26767 10.9801 6.53399 11.6015C6.789 12.1965 7.04688 12.9596 7.39388 14H8.60612C8.95312 12.9596 9.21101 12.1965 9.46601 11.6015C9.73233 10.9801 9.97846 10.5847 10.2816 10.2816C10.5847 9.97846 10.9801 9.73233 11.6015 9.46601C12.1965 9.21101 12.9596 8.95312 14 8.60612V7.39388C12.9596 7.04688 12.1965 6.789 11.6015 6.53399C10.9801 6.26767 10.5847 6.02154 10.2816 5.71841C9.97846 5.41529 9.73233 5.01991 9.46601 4.3985C9.21101 3.80349 8.95312 3.04036 8.60612 2H7.39388ZM4.8515 8.40899C4.53823 8.27473 4.18565 8.14115 3.78812 8C4.18565 7.85885 4.53823 7.72527 4.8515 7.59101C5.54259 7.29483 6.08471 6.97846 6.53159 6.53159C6.97846 6.08471 7.29483 5.54259 7.59101 4.8515C7.72527 4.53823 7.85885 4.18565 8 3.78812C8.14115 4.18565 8.27473 4.53823 8.40899 4.8515C8.70517 5.54259 9.02154 6.08471 9.46841 6.53159C9.91529 6.97846 10.4574 7.29483 11.1485 7.59101C11.4618 7.72527 11.8144 7.85885 12.2119 8C11.8144 8.14115 11.4618 8.27473 11.1485 8.40899C10.4574 8.70517 9.91529 9.02154 9.46841 9.46841C9.02154 9.91529 8.70517 10.4574 8.40899 11.1485C8.27473 11.4618 8.14115 11.8144 8 12.2119C7.85885 11.8144 7.72527 11.4618 7.59101 11.1485C7.29483 10.4574 6.97846 9.91529 6.53159 9.46841C6.08471 9.02154 5.54259 8.70517 4.8515 8.40899Z" fill="#000000" class="bmwfcol"/><path d="M22.3412 6C21.9341 7.22069 21.6313 8.11733 21.3318 8.8163C21.0199 9.54406 20.7299 10.0112 20.3706 10.3706C20.0112 10.7299 19.5441 11.0199 18.8163 11.3318C18.1173 11.6313 17.2207 11.9341 16 12.3412V13.6588C17.2207 14.0659 18.1173 14.3687 18.8163 14.6682C19.5441 14.9801 20.0112 15.2701 20.3706 15.6294C20.7299 15.9888 21.0199 16.4559 21.3318 17.1837C21.6313 17.8827 21.9341 18.7793 22.3412 20H23.6588C24.0659 18.7793 24.3687 17.8827 24.6682 17.1837C24.9801 16.4559 25.2701 15.9888 25.6294 15.6294C25.9888 15.2701 26.4559 14.9801 27.1837 14.6682C27.8827 14.3687 28.7793 14.0659 30 13.6588V12.3412C28.7793 11.9341 27.8827 11.6313 27.1837 11.3318C26.4559 11.0199 25.9888 10.7299 25.6294 10.3706C25.2701 10.0112 24.9801 9.54406 24.6682 8.8163C24.3687 8.11733 24.0659 7.22069 23.6588 6H22.3412ZM19.3087 13.5193C18.9125 13.3495 18.462 13.1805 17.9485 13C18.462 12.8195 18.9125 12.6505 19.3087 12.4807C20.1122 12.1364 20.7388 11.7701 21.2544 11.2544C21.7701 10.7388 22.1364 10.1122 22.4807 9.3087C22.6505 8.91245 22.8195 8.462 23 7.94855C23.1805 8.462 23.3495 8.91245 23.5193 9.3087C23.8636 10.1122 24.2299 10.7388 24.7456 11.2544C25.2612 11.7701 25.8878 12.1364 26.6913 12.4807C27.0875 12.6505 27.538 12.8195 28.0515 13C27.538 13.1805 27.0875 13.3495 26.6913 13.5193C25.8878 13.8636 25.2612 14.2299 24.7456 14.7456C24.2299 15.2612 23.8636 15.8878 23.5193 16.6913C23.3495 17.0875 23.1805 17.538 23 18.0515C22.8195 17.538 22.6505 17.0875 22.4807 16.6913C22.1364 15.8878 21.7701 15.2612 21.2544 14.7456C20.7388 14.2299 20.1122 13.8636 19.3087 13.5193Z" fill="#000000" class="bmwfcol"/><path d="M10.6386 17.238C10.9832 16.4341 11.3312 15.4025 11.7989 14H13.2009C13.6686 15.4025 14.0165 16.4341 14.3611 17.238C14.7188 18.0728 15.0532 18.6129 15.4701 19.0298C15.887 19.4466 16.4271 19.781 17.2618 20.1388C18.0658 20.4833 19.0974 20.8313 20.4999 21.299V22.701C19.0974 23.1687 18.0658 23.5167 17.2618 23.8612C16.4271 24.219 15.887 24.5534 15.4701 24.9702C15.0532 25.3871 14.7188 25.9272 14.3611 26.762C14.0165 27.5659 13.6686 28.5975 13.2009 30H11.7989C11.3312 28.5975 10.9832 27.5659 10.6386 26.762C10.2809 25.9272 9.94653 25.3871 9.52965 24.9702C9.11278 24.5534 8.57264 24.219 7.73792 23.8612C6.93393 23.5167 5.9024 23.1687 4.49988 22.701V21.299C5.9024 20.8313 6.93393 20.4833 7.73792 20.1388C8.57264 19.781 9.11278 19.4466 9.52965 19.0298C9.94653 18.6129 10.2809 18.0728 10.6386 17.238ZM6.57762 22C7.21924 22.2237 7.77633 22.4307 8.26183 22.6388C9.17712 23.031 9.88698 23.4467 10.4701 24.0298C11.0532 24.6129 11.4688 25.3228 11.8611 26.238C12.0692 26.7235 12.2762 27.2806 12.4999 27.9223C12.7236 27.2806 12.9306 26.7236 13.1386 26.238C13.5309 25.3228 13.9465 24.6129 14.5297 24.0298C15.1128 23.4467 15.8226 23.031 16.7379 22.6388C17.2234 22.4307 17.7805 22.2237 18.4221 22C17.7805 21.7763 17.2234 21.5693 16.7379 21.3612C15.8226 20.969 15.1128 20.5534 14.5297 19.9702C13.9465 19.3871 13.5309 18.6772 13.1386 17.762C12.9306 17.2765 12.7236 16.7194 12.4999 16.0777C12.2762 16.7194 12.0692 17.2765 11.8611 17.762C11.4688 18.6772 11.0532 19.3871 10.4701 19.9702C9.88698 20.5534 9.17712 20.969 8.26183 21.3612C7.77633 21.5693 7.21924 21.7763 6.57762 22Z" fill="#000000" class="bmwfcol"/><title>ai_sparks_lt_48</title></svg>