<svg width="48" height="48" viewBox="0 0 32 32" xmlns="http://www.w3.org/2000/svg"><path d="M28.4512 22.665L25.1162 26H26.884L30.884 22L26.884 18H25.1162L28.4512 21.335L16 21.335V22.665L28.4512 22.665Z" fill="#000000" class="bmwfcol"/><path d="M30 8.02027V6.45465C28.4997 7.34633 26.8328 8.60138 24.7337 10.3558C18.3732 10.9118 15.0155 11.2058 12.4426 11.8418C9.80141 12.4948 7.98722 13.5075 4.6677 15.4241L4.33523 15.616L4.33496 19.6694L5.00111 19.6683C5.52919 19.6675 5.82915 19.6722 6.06783 19.7372C6.25369 19.7879 6.41743 19.8805 6.61077 20.1445C6.78655 20.3846 6.97694 20.7543 7.19863 21.335L1 21.335V22.665H7.64774C7.79582 23.1465 7.95507 23.6994 8.13025 24.335H5V25.665H12.6801C13.7192 26.8886 15.2689 27.665 17 27.665C19.0269 27.665 20.8052 26.6005 21.8063 25H20.1292C19.3402 25.8228 18.2299 26.335 17 26.335C14.6058 26.335 12.665 24.3942 12.665 22C12.665 19.6058 14.6058 17.665 17 17.665C18.2299 17.665 19.3402 18.1772 20.1292 19H21.8063C20.8052 17.3995 19.0269 16.335 17 16.335C13.8713 16.335 11.335 18.8713 11.335 22C11.335 22.8325 11.5145 23.623 11.837 24.335H9.50918C9.1658 23.0725 8.87478 22.0843 8.60619 21.3138C8.30658 20.4544 8.01841 19.8157 7.68388 19.3588C7.32808 18.8729 6.91812 18.5905 6.41758 18.454C6.17748 18.3886 5.92259 18.3598 5.66505 18.3474L5.66518 16.3841C8.77906 14.5899 10.4102 13.7143 12.7618 13.133C15.2359 12.5213 18.5068 12.2352 25.0581 11.6625L25.267 11.6442L25.4277 11.5094C27.2607 9.97128 28.7245 8.84642 30 8.02027Z" fill="#000000" class="bmwfcol"/><title>air-curtain_lt_48</title></svg>