<svg width="48" height="48" viewBox="0 0 32 32" xmlns="http://www.w3.org/2000/svg"><path d="M25.0807 6.07978C25.5722 5.58828 26.2498 5.33501 27.0009 5.33501C27.7521 5.33501 28.4297 5.58828 28.9212 6.07978C29.4127 6.57128 29.6659 7.24889 29.6659 8.00001C29.6659 8.75113 29.4127 9.42873 28.9212 9.92023C28.4297 10.4117 27.7521 10.665 27.0009 10.665C26.2498 10.665 25.5722 10.4117 25.0807 9.92023C24.5892 9.42873 24.3359 8.75113 24.3359 8.00001C24.3359 7.24889 24.5892 6.57128 25.0807 6.07978ZM26.0212 7.02023C25.8127 7.22873 25.6659 7.55113 25.6659 8.00001C25.6659 8.44889 25.8127 8.77128 26.0212 8.97978C26.2297 9.18828 26.5521 9.33501 27.0009 9.33501C27.4498 9.33501 27.7722 9.18828 27.9807 8.97978C28.1892 8.77128 28.3359 8.44889 28.3359 8.00001C28.3359 7.55113 28.1892 7.22873 27.9807 7.02023C27.7722 6.81173 27.4498 6.66501 27.0009 6.66501C26.5521 6.66501 26.2297 6.81173 26.0212 7.02023Z" fill="#000000" class="bmwfcol"/><path d="M9.57091 28H8.03516L13.038 19.3348H13.6227L18.8747 20.7421L24.3144 11.3202C25.3765 11.5489 26.383 11.8749 27.3305 12.4219C28.2794 12.9698 29.0659 13.6796 29.7955 14.4866L26.4205 20.3323C25.8619 21.2999 25.4235 22.0197 24.5468 22.3678C24.1329 22.5321 23.6607 22.5997 23.1097 22.6323C22.3783 22.6756 21.6438 22.6648 20.9115 22.6648L13.7579 20.7479L9.57091 28ZM21.0866 21.3348C21.9249 21.3347 22.544 21.3335 23.0311 21.3047C23.5363 21.2748 23.8402 21.2174 24.0559 21.1317C24.4383 20.9798 24.6727 20.6996 25.2687 19.6673L28.1504 14.6761C27.7295 14.2731 27.2346 13.9023 26.6655 13.5738C26.0978 13.246 25.5307 13.0032 24.9726 12.8402L20.2047 21.0984L21.0866 21.3348Z" fill="#000000" class="bmwfcol"/><path d="M20 6.89616V8.27194C16.1842 9.27895 13.7748 9.86561 11.6711 10.204C8.47385 10.7184 5.22808 10.6654 2 10.6654V9.33541C6.51103 9.33541 8.70632 9.3339 11.4599 8.89093C13.5631 8.55257 15.9922 7.95664 20 6.89616Z" fill="#000000" class="bmwfcol"/><path d="M10 19.6174V21.1309C8.62251 20.3755 7.59374 19.8509 6.75076 19.4849C5.78341 19.065 5.08693 18.8664 4.40623 18.7674C3.71087 18.6663 3.01143 18.665 2 18.665V17.335C2.86631 17.335 3.7382 17.3263 4.59766 17.4513C5.42085 17.571 6.23216 17.8099 7.28038 18.2649C8.02405 18.5878 8.90004 19.0256 10 19.6174Z" fill="#000000" class="bmwfcol"/><path d="M2 14.665H16V13.335H2V14.665Z" fill="#000000" class="bmwfcol"/><title>air-conditioning-service_lt_48</title></svg>