<svg width="48" height="48" viewBox="0 0 32 32" xmlns="http://www.w3.org/2000/svg"><path d="M8 12.3356C6.62359 12.3388 5.73874 12.3575 5.0446 12.4683C4.13584 12.6133 3.54872 12.9153 2.66746 13.4241L2.33503 13.616L2.33496 13.9998C2.33477 15.049 2.60667 17.3861 4.66748 18.5759C5.80212 19.231 6.77376 19.4921 8 19.5961V18.2602C6.96225 18.1628 6.22418 17.9389 5.33248 17.4241C4.10134 16.7133 3.7468 15.3461 3.67846 14.3793C4.3087 14.029 4.69188 13.8714 5.25415 13.7817C5.84261 13.6878 6.62039 13.6694 8 13.6658V12.3356Z" fill="#000000" class="bmwfcol"/><path d="M12 18.335H13.9998C14.4486 18.335 14.771 18.1882 14.9795 17.9797C15.188 17.7712 15.3348 17.4488 15.3348 17V14.7754L14.2243 13.665H12V12.335H14.7752L16 13.5598L17.2248 12.335H20V13.665H17.7757L16.6652 14.7754V17C16.6652 17.4488 16.812 17.7712 17.0205 17.9797C17.229 18.1882 17.5514 18.335 18.0002 18.335H20V19.665L18.0002 19.665C17.2491 19.665 16.5715 19.4117 16.08 18.9202C16.0526 18.8928 16.0259 18.8648 16 18.8362C15.9741 18.8648 15.9474 18.8928 15.92 18.9202C15.4285 19.4117 14.7509 19.665 13.9998 19.665L12 19.665V18.335Z" fill="#000000" class="bmwfcol"/><path d="M24 12.3356C25.3764 12.3388 26.2613 12.3575 26.9554 12.4683C27.8642 12.6133 28.4513 12.9153 29.3325 13.4241L29.665 13.616L29.665 13.9998C29.6652 15.049 29.3933 17.3861 27.3325 18.5759C26.1979 19.231 25.2262 19.4921 24 19.5961V18.2602C25.0378 18.1628 25.7758 17.9389 26.6675 17.4241C27.8987 16.7133 28.2532 15.3461 28.3215 14.3793C27.6913 14.029 27.3081 13.8714 26.7458 13.7817C26.1574 13.6878 25.3796 13.6694 24 13.6658V12.3356Z" fill="#000000" class="bmwfcol"/><path d="M28.9405 28H27.0596L25.5157 26.4561C24.5277 25.468 23.7675 24.7079 23.1933 24.0699C22.6151 23.4274 22.1944 22.8757 21.9053 22.2974C21.3345 21.1558 21.3347 20.0061 21.3351 18.1391L21.3351 6.54879L18.0001 9.88378V8.11602L22 4.11611L26.0001 8.1162V9.88397L22.6651 6.54896V18C22.6651 20.0505 22.6797 20.8722 23.0949 21.7026C23.3057 22.1243 23.6351 22.5726 24.1819 23.1801C24.7299 23.7891 25.4653 24.5247 26.4703 25.5298L28.9405 28Z" fill="#000000" class="bmwfcol"/><path d="M3.05949 27.9999H4.94039L6.48428 26.456C7.47237 25.468 8.23252 24.7078 8.80673 24.0698C9.38495 23.4273 9.80558 22.8756 10.0947 22.2973C10.6655 21.1558 10.6653 20.006 10.665 18.139L10.6649 6.54876L13.9999 9.88373V8.11596L10 4.11606L5.99992 8.11615L5.99992 9.88392L9.33494 6.5489V17.9999C9.33494 20.0504 9.32034 20.8722 8.90515 21.7025C8.69429 22.1242 8.36492 22.5725 7.81815 23.1801C7.2701 23.789 6.53475 24.5247 5.52971 25.5297L3.05949 27.9999Z" fill="#000000" class="bmwfcol"/><title>air-vent-control_lt_48</title></svg>