<svg width="48" height="48" viewBox="0 0 32 32" xmlns="http://www.w3.org/2000/svg"><path d="M10 6.66499H18V5.33499H10V6.66499Z" fill="#000000" class="bmwfcol"/><path d="M10.8359 9.99999C10.8359 9.35658 11.3575 8.83499 12.0009 8.83499C12.6443 8.83499 13.1659 9.35658 13.1659 9.99999C13.1659 10.6434 12.6443 11.165 12.0009 11.165C11.3575 11.165 10.8359 10.6434 10.8359 9.99999Z" fill="#000000" class="bmwfcol"/><path d="M16.0009 8.83499C15.3575 8.83499 14.8359 9.35658 14.8359 9.99999C14.8359 10.6434 15.3575 11.165 16.0009 11.165C16.6443 11.165 17.1659 10.6434 17.1659 9.99999C17.1659 9.35658 16.6443 8.83499 16.0009 8.83499Z" fill="#000000" class="bmwfcol"/><path d="M10.8359 14C10.8359 13.3566 11.3575 12.835 12.0009 12.835C12.6443 12.835 13.1659 13.3566 13.1659 14C13.1659 14.6434 12.6443 15.165 12.0009 15.165C11.3575 15.165 10.8359 14.6434 10.8359 14Z" fill="#000000" class="bmwfcol"/><path d="M16.0009 12.835C15.3575 12.835 14.8359 13.3566 14.8359 14C14.8359 14.6434 15.3575 15.165 16.0009 15.165C16.6443 15.165 17.1659 14.6434 17.1659 14C17.1659 13.3566 16.6443 12.835 16.0009 12.835Z" fill="#000000" class="bmwfcol"/><path d="M10.8359 18C10.8359 17.3566 11.3575 16.835 12.0009 16.835C12.6443 16.835 13.1659 17.3566 13.1659 18C13.1659 18.6434 12.6443 19.165 12.0009 19.165C11.3575 19.165 10.8359 18.6434 10.8359 18Z" fill="#000000" class="bmwfcol"/><path d="M16.0009 16.835C15.3575 16.835 14.8359 17.3566 14.8359 18C14.8359 18.6434 15.3575 19.165 16.0009 19.165C16.6443 19.165 17.1659 18.6434 17.1659 18C17.1659 17.3566 16.6443 16.835 16.0009 16.835Z" fill="#000000" class="bmwfcol"/><path d="M10.8359 22C10.8359 21.3566 11.3575 20.835 12.0009 20.835C12.6443 20.835 13.1659 21.3566 13.1659 22C13.1659 22.6434 12.6443 23.165 12.0009 23.165C11.3575 23.165 10.8359 22.6434 10.8359 22Z" fill="#000000" class="bmwfcol"/><path d="M16.0009 20.835C15.3575 20.835 14.8359 21.3566 14.8359 22C14.8359 22.6434 15.3575 23.165 16.0009 23.165C16.6443 23.165 17.1659 22.6434 17.1659 22C17.1659 21.3566 16.6443 20.835 16.0009 20.835Z" fill="#000000" class="bmwfcol"/><path d="M18 26.665H10V25.335H18V26.665Z" fill="#000000" class="bmwfcol"/><path d="M9 11.6415V10.1553C7.17318 9.2329 5.00708 8.04009 2.33225 6.49578L2 6.30396V7.83941C4.81214 9.45788 7.07948 10.6959 9 11.6415Z" fill="#000000" class="bmwfcol"/><path d="M19 17.4043C20.2041 17.335 21.4771 17.335 22.9558 17.335H23.6647V20.8945L28.5593 16L23.6648 11.1055V14.665H22.9559C21.4772 14.665 20.2041 14.665 19 14.5956V13.2632C20.0089 13.3238 21.0863 13.3332 22.3348 13.3347V9.335H23.7752L30.4402 16L23.7752 22.665H22.3347V18.6653C21.0863 18.6668 20.0089 18.6762 19 18.7368V17.4043Z" fill="#000000" class="bmwfcol"/><path d="M2 24.1606V25.696L2.33224 25.5042C5.00707 23.9599 7.17317 22.7671 9 21.8447V20.3585C7.07948 21.3041 4.81214 22.5421 2 24.1606Z" fill="#000000" class="bmwfcol"/><title>air-filter-service_lt_48</title></svg>