<svg width="48" height="48" viewBox="0 0 32 32" xmlns="http://www.w3.org/2000/svg"><path d="M11.0001 4.335C9.64896 4.335 8.47136 4.78827 7.62986 5.62977C6.78836 6.47127 6.33508 7.64888 6.33508 9C6.33508 10.3511 6.78836 11.5287 7.62986 12.3702C8.47136 13.2117 9.64896 13.665 11.0001 13.665C12.3512 13.665 13.5288 13.2117 14.3703 12.3702C15.2118 11.5287 15.6651 10.3511 15.6651 9C15.6651 7.64888 15.2118 6.47127 14.3703 5.62977C13.5288 4.78827 12.3512 4.335 11.0001 4.335ZM7.66508 9C7.66508 7.95112 8.01181 7.12873 8.57031 6.57023C9.12881 6.01172 9.9512 5.665 11.0001 5.665C12.049 5.665 12.8714 6.01172 13.4299 6.57023C13.9884 7.12873 14.3351 7.95112 14.3351 9C14.3351 10.0489 13.9884 10.8713 13.4299 11.4298C12.8714 11.9883 12.049 12.335 11.0001 12.335C9.9512 12.335 9.12881 11.9883 8.57031 11.4298C8.01181 10.8713 7.66508 10.0489 7.66508 9Z" fill="#000000" class="bmwfcol"/><path d="M20.0799 6.07977C20.5714 5.58827 21.249 5.335 22.0001 5.335C22.7512 5.335 23.4288 5.58827 23.9203 6.07977C24.4118 6.57127 24.6651 7.24888 24.6651 8C24.6651 8.75112 24.4118 9.42873 23.9203 9.92023C23.4288 10.4117 22.7512 10.665 22.0001 10.665C21.249 10.665 20.5714 10.4117 20.0799 9.92023C19.5884 9.42873 19.3351 8.75112 19.3351 8C19.3351 7.24888 19.5884 6.57127 20.0799 6.07977ZM21.0203 7.02023C20.8118 7.22873 20.6651 7.55112 20.6651 8C20.6651 8.44888 20.8118 8.77127 21.0203 8.97977C21.2288 9.18827 21.5512 9.335 22.0001 9.335C22.449 9.335 22.7714 9.18827 22.9799 8.97977C23.1884 8.77127 23.3351 8.44888 23.3351 8C23.3351 7.55112 23.1884 7.22873 22.9799 7.02023C22.7714 6.81172 22.449 6.665 22.0001 6.665C21.5512 6.665 21.2288 6.81172 21.0203 7.02023Z" fill="#000000" class="bmwfcol"/><path d="M26.2036 12.5617L30.0001 10.4172V8.88145L25.2427 11.6281C25.5847 11.9207 25.9056 12.2321 26.2036 12.5617Z" fill="#000000" class="bmwfcol"/><path d="M19.5207 22.3786L19.5477 22.368C20.4244 22.0199 20.8628 21.3002 21.4215 20.3325L24.7965 14.4868L24.4718 14.1277C23.886 13.4799 23.169 12.9057 22.3315 12.4222C21.4955 11.9395 20.6414 11.606 19.789 11.4224L19.3154 11.3204L16.3249 16.5H17.8607L19.9735 12.8405C20.5316 13.0035 21.0988 13.2462 21.6665 13.574C22.2356 13.9026 22.7304 14.2734 23.1513 14.6763L20.2697 19.6675C19.7391 20.5866 19.4951 20.9095 19.1781 21.0765L19.5207 22.3786Z" fill="#000000" class="bmwfcol"/><path d="M13.7837 20.7177L8.62368 19.335H8.03899L3.03625 28H4.57201L8.75886 20.7481L14.24 22.2168L13.7837 20.7177Z" fill="#000000" class="bmwfcol"/><path d="M17.7229 28L15.0435 18H16.4204L19.0999 28H17.7229Z" fill="#000000" class="bmwfcol"/><title>airbag_lt_48</title></svg>