<svg width="48" height="48" viewBox="0 0 32 32" xmlns="http://www.w3.org/2000/svg"><path d="M25.8572 5.48143C25.3387 5.55545 24.6267 5.78542 23.8072 6.27713C22.1229 7.28775 21.4727 7.93309 18.3903 11.0155C18.3883 11.0174 18.3864 11.0193 18.3845 11.0212L18.1397 11.266L5.51622 9.04016L4.83072 9.72566L13.0205 12.7065L14.8616 14.5476L14.3879 15.0177L14.3872 15.0184L14.3832 15.0224L14.3653 15.0404C14.349 15.0569 14.324 15.0824 14.291 15.1166C14.2248 15.1849 14.1263 15.2882 13.9996 15.4249C13.7463 15.6984 13.3809 16.1056 12.938 16.6346C12.0518 17.6932 10.8573 19.2372 9.63035 21.1725L9.36867 21.5853L5.35916 20.5109L4.78077 21.0893L8.38632 23.6144L10.9114 27.2199L11.4898 26.6416L10.4154 22.632L10.8282 22.3704C12.7635 21.1434 14.3075 19.949 15.3661 19.0627C15.8951 18.6198 16.3023 18.2544 16.5758 18.0011C16.7125 17.8744 16.8158 17.7759 16.8841 17.7097C16.9183 17.6767 16.9438 17.6517 16.9603 17.6354L16.9783 17.6175L16.9823 17.6135L16.983 17.6128L17.4531 17.1391L19.2942 18.9802L22.275 27.17L22.9606 26.4845L20.7347 13.8612L21.0171 13.5785C24.066 10.5296 24.7177 9.86999 25.7236 8.19349C26.2153 7.37398 26.4453 6.66196 26.5193 6.14348C26.5565 5.88294 26.5522 5.68634 26.5317 5.55678C26.5269 5.52614 26.5217 5.50214 26.5169 5.48382C26.4986 5.47906 26.4746 5.47383 26.4439 5.46899C26.3144 5.44852 26.1178 5.44423 25.8572 5.48143ZM17.4434 19.0103C17.1562 19.2752 16.7449 19.6429 16.2199 20.0825C15.2018 20.9349 13.754 22.0593 11.9523 23.2292L12.9732 27.039L10.7312 29.2811L7.43137 24.5693L2.71962 21.2695L4.96168 19.0275L8.77146 20.0484C9.94146 18.2467 11.0658 16.7989 11.9182 15.7809C12.3578 15.2558 12.7255 14.8445 12.9904 14.5573L12.2886 13.8555L2.41406 10.2614L5.06533 7.61014L17.6888 9.836C17.8125 9.7124 17.9322 9.59272 18.0482 9.47678C20.6198 6.90792 21.4007 6.17001 23.1229 5.13667C24.0712 4.56769 24.9503 4.26743 25.6693 4.16478C26.0274 4.11364 26.3612 4.10942 26.6515 4.15528C26.9234 4.19824 27.2395 4.29837 27.4709 4.52977C27.7023 4.76117 27.8025 5.07735 27.8454 5.34922C27.8913 5.63951 27.8871 5.97326 27.8359 6.33145C27.7333 7.05045 27.433 7.92948 26.864 8.87778C25.7851 10.676 25.0214 11.4549 22.1647 14.3118L24.3906 26.9354L21.7393 29.5866L18.1453 19.7121L17.4434 19.0103Z" fill="#000000" class="bmwfcol"/><title>airplane_lt_48</title></svg>