<svg width="48" height="48" viewBox="0 0 32 32" xmlns="http://www.w3.org/2000/svg"><path d="M16 3.33496C9.00527 3.33496 3.33496 9.00527 3.33496 16C3.33496 22.9946 9.00527 28.665 16 28.665C22.9946 28.665 28.665 22.9946 28.665 16C28.665 9.00527 22.9946 3.33496 16 3.33496ZM4.66496 16C4.66496 9.73981 9.73981 4.66496 16 4.66496C22.2601 4.66496 27.335 9.73981 27.335 16C27.335 21.8787 22.8597 26.7121 17.1302 27.2793C22.1207 24.2355 24.165 19.8703 24.165 16C24.165 11.4906 20.5094 7.83496 16 7.83496C11.4906 7.83496 7.83496 11.4906 7.83496 16C7.83496 19.1707 9.64242 21.9181 12.2801 23.2702C12.9298 23.6032 13.335 24.1739 13.335 24.7531V27.0199C8.3607 25.8213 4.66496 21.3422 4.66496 16ZM9.16496 16C9.16496 12.2251 12.2251 9.16496 16 9.16496C19.7748 9.16496 22.835 12.2251 22.835 16C22.835 19.7623 20.6225 24.2711 14.665 27.0989V24.7531C14.665 23.533 13.8383 22.5743 12.8868 22.0866C10.6757 20.9532 9.16496 18.6524 9.16496 16Z" fill="#000000" class="bmwfcol"/><title>amazon_alexa_car_integration_lt_48</title></svg>