<svg width="48" height="48" viewBox="0 0 32 32" xmlns="http://www.w3.org/2000/svg"><path d="M8.93039 5.76858C9.99456 4.674 11.458 4.33499 13.0009 4.33499C14.5439 4.33499 16.0073 4.674 17.0715 5.76858C18.1295 6.85685 18.6659 8.56222 18.6659 11C18.6659 13.4378 18.1295 15.1431 17.0715 16.2314C16.0073 17.326 14.5439 17.665 13.0009 17.665C11.458 17.665 9.99456 17.326 8.93039 16.2314C7.87234 15.1431 7.33594 13.4378 7.33594 11C7.33594 8.56222 7.87234 6.85685 8.93039 5.76858ZM9.88399 6.69569C9.1712 7.42885 8.66594 8.72347 8.66594 11C8.66594 13.2765 9.1712 14.5711 9.88399 15.3043C10.5907 16.0311 11.6272 16.335 13.0009 16.335C14.3747 16.335 15.4112 16.0311 16.1179 15.3043C16.8307 14.5711 17.3359 13.2765 17.3359 11C17.3359 8.72347 16.8307 7.42885 16.1179 6.69569C15.4112 5.96884 14.3747 5.66499 13.0009 5.66499C11.6272 5.66499 10.5907 5.96884 9.88399 6.69569Z" fill="#000000" class="bmwfcol"/><path d="M4.35002 26H2.97266L3.01878 25.8279C3.68353 23.347 4.32458 21.7973 5.91873 21.0263C6.6799 20.6582 7.60429 20.4948 8.7294 20.4148C9.85198 20.335 11.2463 20.335 12.9755 20.335C14.7047 20.335 16.1492 20.335 17.2717 20.4148C18.3968 20.4948 19.3212 20.6582 20.0824 21.0263C21.6766 21.7973 22.3176 23.347 22.9824 25.8279L23.0285 26H21.6511C20.998 23.6093 20.4711 22.6917 19.5034 22.2237C18.9721 21.9668 18.2504 21.8177 17.1774 21.7414C16.1074 21.6654 14.7597 21.665 13.0006 21.665C11.2414 21.665 9.89377 21.6654 8.82371 21.7414C7.75076 21.8177 7.02899 21.9668 6.49776 22.2237C5.53002 22.6917 5.00313 23.6093 4.35002 26Z" fill="#000000" class="bmwfcol"/><path d="M25.7797 11.6905C25.2759 12.2474 25.1167 12.5789 25.0239 12.8176H23.6184C23.804 12.2872 24.0029 11.8629 24.5598 11.2397C25.0239 10.7225 25.4615 10.2319 25.8063 9.79433C26.1775 9.31697 26.456 8.85287 26.456 8.24291C26.456 7.88489 26.3764 7.59317 26.0582 7.31471C25.793 7.07603 25.3554 6.99647 24.7587 6.99647C24.0692 6.99647 23.1675 7.20863 22.3984 7.39427V6.14783C23.1012 5.97545 23.9896 5.77655 24.9046 5.77655C25.8063 5.77655 26.4427 5.94893 26.9599 6.35999C27.477 6.78431 27.7422 7.48709 27.7422 8.17661C27.7422 9.01199 27.5035 9.60869 26.9731 10.285C26.6284 10.7225 26.2969 11.1203 25.7797 11.6905Z" fill="#000000" class="bmwfcol"/><path d="M25.0504 13.9845V16H23.5786V13.9845H25.0504Z" fill="#000000" class="bmwfcol"/><title>anonymous_lt_48</title></svg>