<svg width="48" height="48" viewBox="0 0 32 32" xmlns="http://www.w3.org/2000/svg"><path d="M14.6799 17.9204C14.9438 18.1919 15.3554 18.335 16 18.335C16.6445 18.335 17.0561 18.1919 17.32 17.9204C17.5901 17.6426 17.835 17.0979 17.835 16H19.165C19.165 17.2592 18.889 18.2146 18.2736 18.8475C17.6522 19.4867 16.8137 19.665 16 19.665C15.1862 19.665 14.3477 19.4867 13.7263 18.8475C13.111 18.2146 12.835 17.2592 12.835 16H14.165C14.165 17.0979 14.4098 17.6426 14.6799 17.9204Z" fill="#000000" class="bmwfcol"/><path d="M12.835 13.335H10.0465L9.33472 21.4711L9.33508 22.665H22.6648L22.6652 21.4711L21.9534 13.335H19.165V13C19.165 11.7408 18.889 10.7854 18.2736 10.1525C17.6522 9.5133 16.8137 9.335 16 9.335C15.1862 9.335 14.3477 9.5133 13.7263 10.1525C13.111 10.7854 12.835 11.7408 12.835 13V13.335ZM14.165 13.335V13C14.165 11.9021 14.4098 11.3574 14.6799 11.0796C14.9438 10.8081 15.3554 10.665 16 10.665C16.6445 10.665 17.0561 10.8081 17.32 11.0796C17.5901 11.3574 17.835 11.9021 17.835 13V13.335H14.165ZM10.6817 21.335L11.2653 14.665H20.7347L21.3182 21.335H10.6817Z" fill="#000000" class="bmwfcol"/><path d="M11 4.335C8.89746 4.335 7.19843 4.86108 6.02974 6.02977C4.86104 7.19847 4.33496 8.89749 4.33496 11V21C4.33496 23.1025 4.86104 24.8015 6.02974 25.9702C7.19843 27.1389 8.89746 27.665 11 27.665H21C23.1025 27.665 24.8015 27.1389 25.9702 25.9702C27.1389 24.8015 27.665 23.1025 27.665 21V11C27.665 8.89749 27.1389 7.19847 25.9702 6.02977C24.8015 4.86108 23.1025 4.335 21 4.335H11ZM5.66496 11C5.66496 9.10251 6.13888 7.80153 6.97019 6.97023C7.80149 6.13892 9.10247 5.665 11 5.665H21C22.8975 5.665 24.1984 6.13892 25.0297 6.97023C25.861 7.80153 26.335 9.10251 26.335 11V21C26.335 22.8975 25.861 24.1985 25.0297 25.0298C24.1984 25.8611 22.8975 26.335 21 26.335H11C9.10247 26.335 7.80149 25.8611 6.97019 25.0298C6.13888 24.1985 5.66496 22.8975 5.66496 21V11Z" fill="#000000" class="bmwfcol"/><title>app-store_lt_48</title></svg>