<svg width="48" height="48" viewBox="0 0 32 32" xmlns="http://www.w3.org/2000/svg"><path d="M19.5003 29.665C18.9322 29.665 18.4037 29.5597 17.9983 29.2803C18.3174 28.9583 18.6159 28.6149 18.8913 28.2524C19.0168 28.2971 19.2114 28.335 19.5003 28.335H25.5004C25.932 28.335 26.1532 28.2504 26.2477 28.1852C26.3075 28.1439 26.3354 28.1042 26.3354 28V19C26.3354 18.007 26.3349 17.4521 26.1586 16.4609C25.9774 15.4422 25.6113 13.9704 24.8615 11.1721C24.1149 8.38559 23.731 6.85759 23.5364 5.77308C23.3838 4.92311 23.347 4.34176 23.3382 3.66496H21.6626C21.6537 4.34176 21.6169 4.92311 21.4644 5.77308C21.2697 6.85759 20.8859 8.38559 20.1392 11.1721C19.3952 13.9488 19.029 15.4193 18.8464 16.4372C18.4782 16.1061 18.0766 15.8333 17.6514 15.6178C17.8695 14.5737 18.2376 13.1304 18.8545 10.8279C19.6044 8.02931 19.9723 6.5573 20.1553 5.53809C20.2895 4.7904 20.3237 4.29084 20.3324 3.66496H19.0004V2.33496H26.0004V3.66496H24.6683C24.677 4.29084 24.7112 4.7904 24.8454 5.53809C25.0284 6.5573 25.3963 8.02931 26.1462 10.8279C26.8929 13.6148 27.2751 15.143 27.4681 16.228C27.6654 17.3376 27.6654 17.9896 27.6654 18.9922V28C27.6654 28.5158 27.4433 28.9761 27.0031 29.2798C26.5976 29.5596 26.0688 29.665 25.5004 29.665H19.5003Z" fill="#000000" class="bmwfcol"/><path d="M14.7689 12L14.5771 12.3322C13.5614 14.0914 13.1012 14.9029 12.8764 15.5249C12.7306 15.9283 12.6858 16.2447 12.672 16.7591C12.8756 16.7186 13.0918 16.6649 13.3295 16.6051L13.3537 16.599C13.8325 16.4785 14.4029 16.335 15.0009 16.335C16.281 16.335 17.4705 16.8227 18.3314 17.8139C19.1863 18.798 19.6659 20.2176 19.6659 22C19.6659 24.4858 18.6479 26.7434 17.0212 28.3702C16.1775 29.2139 15.2424 29.665 14.5009 29.665L14.4891 29.665C14.2323 29.665 13.8308 29.6651 13.3531 29.5058C12.9298 29.3647 12.4794 29.1111 12.0009 28.6796C11.5224 29.1111 11.0721 29.3647 10.6487 29.5058C10.171 29.6651 9.76956 29.665 9.5128 29.665L9.50094 29.665C8.75948 29.665 7.82439 29.2139 6.98071 28.3702C5.35395 26.7434 4.33594 24.4858 4.33594 22C4.33594 20.2176 4.8156 18.798 5.67046 17.8139C6.0833 17.3386 6.57166 16.9791 7.10934 16.7336C6.60434 15.975 6.33594 15.0392 6.33594 14V12.335H8.00094C9.35206 12.335 10.5297 12.7882 11.3712 13.6297C11.5871 13.8456 11.7774 14.0837 11.9411 14.3411C12.2264 13.7552 12.6414 13.0262 13.2332 12H14.7689ZM11.3297 16.759C11.2806 15.8246 10.9457 15.0852 10.4307 14.5702C9.87221 14.0117 9.04982 13.665 8.00094 13.665H7.66594V14C7.66594 15.0042 7.9834 15.8018 8.50392 16.36C8.66769 16.3433 8.83354 16.335 9.00094 16.335C9.59897 16.335 10.1694 16.4785 10.6482 16.599L10.6723 16.6051C10.91 16.6648 11.1261 16.7186 11.3297 16.759ZM5.66594 22C5.66594 24.1165 6.53185 26.0404 7.92116 27.4297C8.6257 28.1343 9.2424 28.335 9.50094 28.335C9.74477 28.335 9.96325 28.3324 10.2281 28.2441C10.4904 28.1567 10.8418 27.9686 11.2807 27.5297L11.4755 27.335H12.5264L12.7212 27.5297C13.16 27.9686 13.5114 28.1567 13.7737 28.2441C14.0386 28.3324 14.2571 28.335 14.5009 28.335C14.7595 28.335 15.3762 28.1343 16.0807 27.4297C17.47 26.0404 18.3359 24.1165 18.3359 22C18.3359 20.449 17.9202 19.3686 17.3273 18.6861C16.7405 18.0105 15.93 17.665 15.0009 17.665C14.5846 17.665 14.1641 17.7666 13.654 17.8949L13.6139 17.905C13.1413 18.024 12.5813 18.165 12.0009 18.165C11.4206 18.165 10.8606 18.024 10.388 17.905L10.3479 17.8949C9.83776 17.7666 9.41729 17.665 9.00094 17.665C8.0719 17.665 7.26133 18.0105 6.67456 18.6861C6.0817 19.3686 5.66594 20.449 5.66594 22Z" fill="#000000" class="bmwfcol"/><title>apple-and-bottle_lt_48</title></svg>