<svg width="48" height="48" viewBox="0 0 32 32" xmlns="http://www.w3.org/2000/svg"><path d="M17.9085 2.16595L18.0043 2H16.469C15.9923 2.82993 15.7021 3.35944 15.5404 3.80686C15.419 4.14273 15.369 4.43483 15.3484 4.74585C15.1995 4.70947 15.0447 4.66406 14.8787 4.61367L14.7965 4.58857C14.4292 4.4762 13.9676 4.335 13.499 4.335C12.495 4.335 11.5556 4.71859 10.8756 5.50141C10.2017 6.27723 9.83398 7.38427 9.83398 8.75C9.83398 10.6606 10.6165 12.3955 11.8663 13.6452C12.5164 14.2954 13.2575 14.665 13.874 14.665C14.6722 14.665 15.2895 14.3445 15.999 13.6832C16.7084 14.3445 17.3258 14.665 18.124 14.665C18.7404 14.665 19.4816 14.2954 20.1317 13.6452C21.3815 12.3955 22.164 10.6606 22.164 8.75C22.164 7.38427 21.7962 6.27723 21.1223 5.50141C20.4424 4.71859 19.5029 4.335 18.499 4.335C18.0304 4.335 17.5688 4.4762 17.2015 4.58857L17.1192 4.61367C16.9658 4.66026 16.8219 4.70258 16.6834 4.73746C16.7003 4.56048 16.732 4.42284 16.7912 4.25885C16.9326 3.86747 17.2262 3.3477 17.9085 2.16595ZM11.8797 6.37359C12.2855 5.90641 12.8461 5.665 13.499 5.665C13.763 5.665 14.0481 5.75146 14.4924 5.88633C14.8999 6.01003 15.4197 6.165 15.999 6.165C16.5782 6.165 17.0981 6.01003 17.5056 5.88633C17.9498 5.75146 18.235 5.665 18.499 5.665C19.1519 5.665 19.7125 5.90641 20.1183 6.37359C20.5301 6.84777 20.834 7.61573 20.834 8.75C20.834 10.2912 20.2036 11.6925 19.1913 12.7048C18.6802 13.2158 18.2575 13.335 18.124 13.335C17.7536 13.335 17.4136 13.2242 16.7192 12.5298L16.5244 12.335H15.4735L15.2788 12.5298C14.5844 13.2242 14.2444 13.335 13.874 13.335C13.7404 13.335 13.3177 13.2158 12.8067 12.7048C11.7944 11.6925 11.164 10.2912 11.164 8.75C11.164 7.61573 11.4678 6.84777 11.8797 6.37359Z" fill="#000000" class="bmwfcol"/><path d="M28.2492 14.7166C28.7909 14.9207 29.1811 15.2414 29.4695 15.5297L29.9398 15.9999L21.3795 24.5603C20.4661 25.4743 19.8601 26.0807 18.9594 26.3809C18.5014 26.5336 17.995 26.6003 17.3778 26.6328C16.7665 26.665 16.0021 26.665 15.0187 26.665H11.2745L9.2745 28.665H7.72359L2.05859 23L6.5381 18.5205C7.03025 18.0283 7.41179 17.6468 7.72115 17.3578C8.02999 17.0693 8.29691 16.8441 8.56046 16.6828C9.13013 16.3342 9.61853 16.3345 10.2045 16.335L10.3548 16.335L14.0869 17.335L18.999 17.335C19.4502 17.335 19.8778 17.4883 20.1943 17.8047C20.2265 17.8369 20.257 17.8702 20.2858 17.9045C22.9331 15.7816 24.8316 14.8372 26.2571 14.5825C27.0488 14.441 27.7029 14.5108 28.2492 14.7166ZM19.3343 18.9998C19.3342 18.8512 19.2875 18.7788 19.254 18.7453C19.2204 18.7117 19.1479 18.665 18.999 18.665L13.9118 18.665L10.1801 17.6651C9.6009 17.6665 9.47138 17.6846 9.25469 17.8172C9.10971 17.9059 8.92237 18.0557 8.62907 18.3297C8.33824 18.6014 7.97264 18.9669 7.46927 19.4702L3.9395 23L8.2745 27.335H8.72359L10.7236 25.335H14.999C16.0062 25.335 16.7357 25.3348 17.3079 25.3047C17.8782 25.2747 18.2469 25.2164 18.5389 25.1191C19.109 24.9291 19.4934 24.5654 20.5291 23.5298L27.9981 16.0607C27.9294 16.0235 27.857 15.9901 27.7803 15.9612C27.4829 15.8492 27.0744 15.7875 26.4911 15.8917C25.3238 16.1003 23.5029 16.9648 20.6642 19.3116L20.664 20.2755L20.4693 20.4702C19.4334 21.5061 18.5973 22.0849 17.7095 22.3809C16.8565 22.6652 16.0109 22.6651 15.0589 22.665L10.999 22.665V21.335H14.9993C16.0229 21.335 16.6598 21.3288 17.2889 21.1191C17.8588 20.9291 18.4736 20.5508 19.3341 19.7211L19.3343 18.9998Z" fill="#000000" class="bmwfcol"/><title>apple_on_hand_lt_48</title></svg>