<svg width="48" height="48" viewBox="0 0 32 32" xmlns="http://www.w3.org/2000/svg"><path d="M13.875 12.375H14.7215L21.0002 16L14.7215 19.625H13.875V12.375ZM15.125 14.0513V17.9487L18.5002 16L15.125 14.0513Z" fill="#000000" class="bmwfcol"/><path d="M16 22.335C17.9818 22.335 19.751 21.425 20.9126 20H22.5397C21.1922 22.1984 18.7674 23.665 16 23.665C11.7667 23.665 8.33496 20.2332 8.33496 16C8.33496 11.7667 11.7667 8.33496 16 8.33496C18.7674 8.33496 21.1923 9.80159 22.5398 12H20.9127C19.7511 10.575 17.9818 9.66496 16 9.66496C12.5012 9.66496 9.66496 12.5012 9.66496 16C9.66496 19.4987 12.5012 22.335 16 22.335Z" fill="#000000" class="bmwfcol"/><path d="M13.0689 4.33496H18.931C20.3521 4.33496 21.4607 4.33495 22.3496 4.40996C23.2531 4.48621 23.9899 4.64349 24.6508 4.99343C25.6544 5.52481 26.4751 6.34554 27.0065 7.34914C27.3564 8.01005 27.5137 8.74685 27.59 9.65033C27.665 10.5392 27.665 11.6478 27.665 13.0689V18.9309C27.665 20.352 27.665 21.4607 27.59 22.3496C27.5137 23.2531 27.3564 23.9899 27.0065 24.6508C26.4751 25.6544 25.6544 26.4751 24.6508 27.0065C23.9899 27.3564 23.2531 27.5137 22.3496 27.59C21.4607 27.665 20.3521 27.665 18.931 27.665H13.069C11.6479 27.665 10.5392 27.665 9.65033 27.59C8.74685 27.5137 8.01005 27.3564 7.34914 27.0065C6.34554 26.4751 5.52481 25.6544 4.99343 24.6508C4.64349 23.9899 4.48621 23.2531 4.40996 22.3496C4.33495 21.4607 4.33496 20.3521 4.33496 18.931V13.0689C4.33496 11.6479 4.33495 10.5392 4.40996 9.65033C4.48621 8.74685 4.64349 8.01005 4.99343 7.34914C5.52481 6.34554 6.34554 5.52481 7.34914 4.99343C8.01005 4.64349 8.74685 4.48621 9.65033 4.40996C10.5392 4.33495 11.6479 4.33496 13.0689 4.33496ZM9.76217 5.73525C8.94391 5.8043 8.40822 5.9376 7.97149 6.16884C7.20351 6.57546 6.57546 7.20351 6.16884 7.97149C5.9376 8.40822 5.8043 8.94391 5.73525 9.76217C5.66551 10.5886 5.66496 11.6413 5.66496 13.1V18.9C5.66496 20.3586 5.66551 21.4113 5.73525 22.2378C5.8043 23.056 5.9376 23.5917 6.16884 24.0284C6.57546 24.7964 7.20351 25.4245 7.97149 25.8311C8.40822 26.0623 8.94391 26.1956 9.76217 26.2647C10.5886 26.3344 11.6413 26.335 13.1 26.335H18.9C20.3586 26.335 21.4113 26.3344 22.2378 26.2647C23.056 26.1956 23.5917 26.0623 24.0284 25.8311C24.7964 25.4245 25.4245 24.7964 25.8311 24.0284C26.0623 23.5917 26.1956 23.056 26.2647 22.2378C26.3344 21.4113 26.335 20.3586 26.335 18.9V13.1C26.335 11.6413 26.3344 10.5886 26.2647 9.76217C26.1956 8.94391 26.0623 8.40822 25.8311 7.97149C25.4245 7.20351 24.7964 6.57546 24.0284 6.16884C23.5917 5.9376 23.056 5.8043 22.2378 5.73525C21.4113 5.66551 20.3586 5.66496 18.9 5.66496H13.1C11.6413 5.66496 10.5886 5.66551 9.76217 5.73525Z" fill="#000000" class="bmwfcol"/><title>apple-car-play_lt_48</title></svg>