<svg width="48" height="48" viewBox="0 0 32 32" xmlns="http://www.w3.org/2000/svg"><path d="M11.5459 17.3349C12.4664 17.335 13.2788 17.5658 13.8564 18.1435C14.4341 18.7212 14.665 19.5336 14.665 20.4541V24.5459C14.665 25.4664 14.4341 26.2787 13.8564 26.8564C13.2788 27.4341 12.4664 27.6649 11.5459 27.665H7.4541C6.5336 27.6649 5.72125 27.4341 5.14355 26.8564C4.56587 26.2787 4.33504 25.4664 4.33496 24.5459V20.4541C4.33504 19.5336 4.56587 18.7212 5.14355 18.1435C5.72125 17.5658 6.5336 17.335 7.4541 17.3349H11.5459ZM7.4541 18.665C6.73871 18.6651 6.32433 18.8436 6.08398 19.084C5.84364 19.3243 5.66512 19.7387 5.66504 20.4541V24.5459C5.66511 25.2613 5.84365 25.6756 6.08398 25.916C6.32433 26.1563 6.7387 26.3349 7.4541 26.3349H11.5459C12.2613 26.3349 12.6757 26.1563 12.916 25.916C13.1564 25.6756 13.3349 25.2613 13.335 24.5459V20.4541C13.3349 19.7387 13.1564 19.3243 12.916 19.084C12.6757 18.8436 12.2613 18.6651 11.5459 18.665H7.4541Z" fill="#000000" class="bmwfcol"/><path d="M23.165 21.8349H27.5V23.165H23.165V27.5H21.835V23.165H17.5V21.8349H21.835V17.5H23.165V21.8349Z" fill="#000000" class="bmwfcol"/><path d="M11.5459 4.33493C12.4664 4.335 13.2788 4.56584 13.8564 5.14352C14.4341 5.72121 14.665 6.53358 14.665 7.45407V11.5459C14.665 12.4664 14.4341 13.2787 13.8564 13.8564C13.2788 14.4341 12.4664 14.6649 11.5459 14.665H7.4541C6.5336 14.6649 5.72125 14.4341 5.14355 13.8564C4.56587 13.2787 4.33504 12.4664 4.33496 11.5459V7.45407C4.33504 6.53358 4.56587 5.72121 5.14355 5.14352C5.72125 4.56584 6.5336 4.335 7.4541 4.33493H11.5459ZM7.4541 5.66501C6.73871 5.66508 6.32433 5.84362 6.08398 6.08395C5.84364 6.32429 5.66512 6.73869 5.66504 7.45407V11.5459C5.66511 12.2613 5.84365 12.6756 6.08398 12.916C6.32433 13.1563 6.7387 13.3349 7.4541 13.3349H11.5459C12.2613 13.3349 12.6757 13.1563 12.916 12.916C13.1564 12.6756 13.3349 12.2613 13.335 11.5459V7.45407C13.3349 6.73869 13.1564 6.32429 12.916 6.08395C12.6757 5.84362 12.2613 5.66508 11.5459 5.66501H7.4541Z" fill="#000000" class="bmwfcol"/><path d="M24.5459 4.33493C25.4664 4.335 26.2788 4.56584 26.8564 5.14352C27.4341 5.72121 27.665 6.53358 27.665 7.45407V11.5459C27.665 12.4664 27.4341 13.2787 26.8564 13.8564C26.2787 14.4341 25.4664 14.6649 24.5459 14.665H20.4541C19.5336 14.6649 18.7212 14.4341 18.1436 13.8564C17.5659 13.2787 17.335 12.4664 17.335 11.5459V7.45407C17.335 6.53358 17.5659 5.72121 18.1436 5.14352C18.7212 4.56584 19.5336 4.335 20.4541 4.33493H24.5459ZM20.4541 5.66501C19.7387 5.66508 19.3243 5.84362 19.084 6.08395C18.8436 6.32429 18.6651 6.73869 18.665 7.45407V11.5459C18.6651 12.2613 18.8436 12.6756 19.084 12.916C19.3243 13.1563 19.7387 13.3349 20.4541 13.3349H24.5459C25.2613 13.3349 25.6757 13.1563 25.916 12.916C26.1564 12.6756 26.3349 12.2613 26.335 11.5459V7.45407C26.3349 6.73869 26.1564 6.32429 25.916 6.08395C25.6757 5.84362 25.2613 5.66508 24.5459 5.66501H20.4541Z" fill="#000000" class="bmwfcol"/><title>apps_plus_lt_48</title></svg>