<svg width="48" height="48" viewBox="0 0 32 32" xmlns="http://www.w3.org/2000/svg"><path d="M23 10.0595L16 3.05957L9 10.0596V11.9405L16 4.94047L23 11.9405V10.0595Z" fill="#000000" class="bmwfcol"/><path d="M23 21.9405V20.0596L16 27.0596L9 20.0595V21.9405L16 28.9405L23 21.9405Z" fill="#000000" class="bmwfcol"/><path d="M14.6577 14.6577C14.3617 14.9537 14.1649 15.4011 14.1649 16C14.1649 16.5989 14.3617 17.0463 14.6577 17.3423C14.9537 17.6383 15.4011 17.835 15.9999 17.835C17.1118 17.835 17.8349 17.0346 17.8349 16C17.8349 15.4011 17.6382 14.9537 17.3422 14.6577C17.0462 14.3617 16.5988 14.165 15.9999 14.165C15.4011 14.165 14.9537 14.3617 14.6577 14.6577ZM13.7172 13.7173C14.2962 13.1383 15.0988 12.835 15.9999 12.835C16.9011 12.835 17.7037 13.1383 18.2827 13.7173C18.8617 14.2963 19.1649 15.0989 19.1649 16C19.1649 17.7268 17.888 19.165 15.9999 19.165C15.0988 19.165 14.2962 18.8617 13.7172 18.2827C13.1382 17.7037 12.8349 16.9011 12.8349 16C12.8349 15.0989 13.1382 14.2963 13.7172 13.7173Z" fill="#000000" class="bmwfcol"/><title>arrows-scroll_lt_48</title></svg>