<svg width="48" height="48" viewBox="0 0 32 32" xmlns="http://www.w3.org/2000/svg"><path d="M14.0591 7H15.94L18.94 4L15.94 1H14.0591L16.394 3.33496H15.9995C9.00479 3.33496 3.33447 9.00527 3.33447 16H4.66447C4.66447 9.73981 9.73933 4.66496 15.9995 4.66496H16.3941L14.0591 7Z" fill="#000000" class="bmwfcol"/><path d="M16.0281 9L14.3747 15.1706L17.5536 13.3353H18.8665L17.0029 20.2903L17.8836 20.5263L15.6423 22.7676L14.8219 19.7059L15.7182 19.9461L16.9911 15.1958L13.5864 17.1615H12.4644L14.6512 9H16.0281Z" fill="#000000" class="bmwfcol"/><path d="M8.23521 20.5512L9.17567 22.1801L5.98569 21.3254L6.18323 21.6675C9.3133 27.089 16.2457 28.9465 21.6671 25.8164L22.3321 26.9682C16.2745 30.4656 8.52876 28.3901 5.03141 22.3325L4.8341 21.9907L3.97951 25.1801L3.03906 23.5512L4.13714 19.4531L8.23521 20.5512Z" fill="#000000" class="bmwfcol"/><path d="M25.8158 21.6674C28.9458 16.246 27.0883 9.31363 21.6669 6.18355L22.3319 5.03174C28.3894 8.52908 30.4649 16.2749 26.9676 22.3324L26.7701 22.6745L29.96 21.8198L29.0195 23.4487L24.9215 24.5468L23.8234 20.4487L24.7638 18.8198L25.6184 22.0092L25.8158 21.6674Z" fill="#000000" class="bmwfcol"/><title>arrows_circular_and_lightning_lt_48</title></svg>