<svg width="48" height="48" viewBox="0 0 32 32" xmlns="http://www.w3.org/2000/svg"><path d="M14.9401 9H13.0592L16.3942 5.66496H15.9996C10.2917 5.66496 5.66459 10.2921 5.66459 16H4.33459C4.33459 9.55756 9.55719 4.33496 15.9996 4.33496H16.3942L13.0592 1H14.9401L18.9401 5L14.9401 9Z" fill="#000000" class="bmwfcol"/><path d="M10.4673 20.4176L11.4077 22.0465L6.85205 20.8258L7.04932 21.1675C9.90325 26.1107 16.224 27.8043 21.1672 24.9504L21.8322 26.1022C16.2529 29.3234 9.1187 27.4118 5.8975 21.8325L5.70022 21.4908L4.47951 26.0465L3.53906 24.4176L5.00316 18.9535L10.4673 20.4176Z" fill="#000000" class="bmwfcol"/><path d="M24.95 21.1675C27.8039 16.2244 26.1103 9.90357 21.1671 7.04964L21.8321 5.89783C27.4114 9.11903 29.323 16.2532 26.1018 21.8325L25.9046 22.1741L30.4602 20.9535L29.5197 22.5824L24.0556 24.0465L22.5915 18.5824L23.532 16.9535L24.7527 21.5092L24.95 21.1675Z" fill="#000000" class="bmwfcol"/><title>arrows_three_clockwise_lt_48</title></svg>