<svg width="48" height="48" viewBox="0 0 32 32" xmlns="http://www.w3.org/2000/svg"><path d="M15.884 20.0001L12.549 23.3351H20.0002C22.2491 23.3351 24.0715 22.5883 25.33 21.3298C26.5885 20.0713 27.3352 18.2489 27.3352 16.0001H28.6652C28.6652 18.5512 27.812 20.7288 26.2705 22.2703C24.729 23.8118 22.5513 24.6651 20.0002 24.6651H12.5489L15.8839 28.0001H14.1162L10.1162 24.0001L14.1162 20.0001H15.884Z" fill="#000000" class="bmwfcol"/><path d="M16.1162 12.0001L19.4512 8.66508H12C9.75108 8.66508 7.92869 9.41181 6.67019 10.6703C5.41169 11.9288 4.66496 13.7512 4.66496 16.0001H3.33496C3.33496 13.449 4.18824 11.2714 5.72973 9.72986C7.27123 8.18836 9.44884 7.33508 12 7.33508H19.4513L16.1163 4.00006H17.884L21.884 8.00003L17.884 12.0001H16.1162Z" fill="#000000" class="bmwfcol"/><title>arrow-repeat_lt_48</title></svg>