<svg width="48" height="48" viewBox="0 0 32 32" xmlns="http://www.w3.org/2000/svg"><path d="M6.33594 11V22L7.66594 22L7.66594 11C7.66594 9.05108 8.31266 7.47869 9.39616 6.39519C10.4797 5.31169 12.0521 4.66496 14.0009 4.66496C15.9498 4.66496 17.5222 5.31169 18.6057 6.39519C19.6892 7.47869 20.3359 9.05108 20.3359 11V26.3945L14.0009 20.0595V21.9404L21.0009 28.9404L28.0009 21.9404V20.0595L21.6659 26.3945V11C21.6659 8.74884 20.9127 6.82123 19.5462 5.45473C18.1797 4.08824 16.2521 3.33496 14.0009 3.33496C11.7498 3.33496 9.82221 4.08824 8.45571 5.45473C7.08921 6.82123 6.33594 8.74884 6.33594 11Z" fill="#000000" class="bmwfcol"/><title>arrow-u-right-down_lt_48</title></svg>