<svg width="48" height="48" viewBox="0 0 32 32" xmlns="http://www.w3.org/2000/svg"><path d="M20.999 6.33496H9.99905V7.66496H20.999C22.9479 7.66496 24.5203 8.31169 25.6038 9.39519C26.6873 10.4787 27.334 12.0511 27.334 14C27.334 15.9488 26.6873 17.5212 25.6038 18.6047C24.5203 19.6882 22.9479 20.335 20.999 20.335H5.60451L11.9395 14H10.0586L3.05859 21L10.0586 28H11.9395L5.60448 21.665H20.999C23.2502 21.665 25.1778 20.9117 26.5443 19.5452C27.9108 18.1787 28.664 16.2511 28.664 14C28.664 11.7488 27.9108 9.82123 26.5443 8.45474C25.1778 7.08824 23.2502 6.33496 20.999 6.33496Z" fill="#000000" class="bmwfcol"/><title>arrow-u-down-left_lt_48</title></svg>