<svg width="48" height="48" viewBox="0 0 32 32" xmlns="http://www.w3.org/2000/svg"><path d="M28.0009 10.0596V11.9405L21.6659 5.60548V21C21.6659 23.2511 20.9127 25.1787 19.5462 26.5452C18.1797 27.9117 16.2521 28.665 14.0009 28.665C11.7498 28.665 9.82221 27.9117 8.45571 26.5452C7.08921 25.1787 6.33594 23.2511 6.33594 21V10L7.66594 10L7.66594 21C7.66594 22.9489 8.31266 24.5213 9.39616 25.6048C10.4797 26.6883 12.0521 27.335 14.0009 27.335C15.9498 27.335 17.5222 26.6883 18.6057 25.6048C19.6892 24.5213 20.3359 22.9489 20.3359 21V5.60547L14.0009 11.9405V10.0596L21.0009 3.05957L28.0009 10.0596Z" fill="#000000" class="bmwfcol"/><title>arrow-u-right-up_lt_48</title></svg>