<svg width="48" height="48" viewBox="0 0 32 32" xmlns="http://www.w3.org/2000/svg"><path d="M4 10.0596V11.9405L10.335 5.60546V21C10.335 23.2511 11.0883 25.1787 12.4548 26.5452C13.8213 27.9117 15.7489 28.665 18 28.665C20.2511 28.665 22.1787 27.9117 23.5452 26.5452C24.9117 25.1787 25.665 23.2511 25.665 21V10L24.335 10V21C24.335 22.9489 23.6883 24.5213 22.6048 25.6048C21.5213 26.6883 19.9489 27.335 18 27.335C16.0511 27.335 14.4787 26.6883 13.3952 25.6048C12.3117 24.5213 11.665 22.9489 11.665 21V5.60548L18 11.9405V10.0596L11 3.05957L4 10.0596Z" fill="#000000" class="bmwfcol"/><title>arrow-u-left-up_lt_48</title></svg>