<svg width="48" height="48" viewBox="0 0 32 32" xmlns="http://www.w3.org/2000/svg"><path d="M21.9414 4H20.0605L26.3955 10.335H11.0009C8.74982 10.335 6.82221 11.0883 5.45571 12.4548C4.08921 13.8213 3.33594 15.7489 3.33594 18C3.33594 20.2512 4.08921 22.1788 5.45571 23.5453C6.82221 24.9118 8.74982 25.665 11.0009 25.665H22.0009V24.335H11.0009C9.05206 24.335 7.47967 23.6883 6.39616 22.6048C5.31266 21.5213 4.66594 19.9489 4.66594 18C4.66594 16.0512 5.31266 14.4788 6.39616 13.3953C7.47967 12.3118 9.05206 11.665 11.0009 11.665H26.3955L20.0605 18H21.9414L28.9414 11L21.9414 4Z" fill="#000000" class="bmwfcol"/><title>arrow-u-up-right_lt_48</title></svg>