<svg width="48" height="48" viewBox="0 0 32 32" xmlns="http://www.w3.org/2000/svg"><path d="M11.0009 6.33496H22.0009V7.66496H11.0009C9.05206 7.66496 7.47967 8.31169 6.39616 9.39519C5.31266 10.4787 4.66594 12.0511 4.66594 14C4.66594 15.9488 5.31266 17.5212 6.39616 18.6047C7.47967 19.6882 9.05206 20.335 11.0009 20.335H26.3955L20.0605 14H21.9414L28.9414 21L21.9414 28H20.0605L26.3955 21.665H11.0009C8.74982 21.665 6.82221 20.9117 5.45571 19.5452C4.08921 18.1787 3.33594 16.2511 3.33594 14C3.33594 11.7488 4.08921 9.82123 5.45571 8.45474C6.82221 7.08824 8.74982 6.33496 11.0009 6.33496Z" fill="#000000" class="bmwfcol"/><title>arrow-u-down-right_lt_48</title></svg>