<svg width="48" height="48" viewBox="0 0 32 32" xmlns="http://www.w3.org/2000/svg"><path d="M25.665 11V22H24.335V11C24.335 9.05108 23.6883 7.47869 22.6048 6.39519C21.5213 5.31169 19.9489 4.66496 18 4.66496C16.0511 4.66496 14.4787 5.31169 13.3952 6.39519C12.3117 7.47869 11.665 9.05108 11.665 11V26.3945L18 20.0595V21.9404L11 28.9404L4 21.9404V20.0595L10.335 26.3945V11C10.335 8.74884 11.0883 6.82123 12.4548 5.45473C13.8213 4.08824 15.7489 3.33496 18 3.33496C20.2511 3.33496 22.1787 4.08824 23.5452 5.45473C24.9117 6.82123 25.665 8.74884 25.665 11Z" fill="#000000" class="bmwfcol"/><title>arrow-u-left-down_lt_48</title></svg>