<svg width="48" height="48" viewBox="0 0 32 32" xmlns="http://www.w3.org/2000/svg"><path d="M10.0586 4H11.9395L5.60449 10.335H20.9991C23.2502 10.335 25.1778 11.0883 26.5443 12.4548C27.9108 13.8213 28.6641 15.7489 28.6641 18C28.6641 20.2512 27.9108 22.1788 26.5443 23.5453C25.1778 24.9118 23.2502 25.665 20.9991 25.665H9.99906V24.335H20.9991C22.9479 24.335 24.5203 23.6883 25.6038 22.6048C26.6873 21.5213 27.3341 19.9489 27.3341 18C27.3341 16.0512 26.6873 14.4788 25.6038 13.3953C24.5203 12.3118 22.9479 11.665 20.9991 11.665H5.60452L11.9395 18H10.0586L3.0586 11L10.0586 4Z" fill="#000000" class="bmwfcol"/><title>arrow-u-up-left_lt_48</title></svg>