<svg width="48" height="48" viewBox="0 0 32 32" xmlns="http://www.w3.org/2000/svg"><path d="M19.4702 5.47004L6.9703 17.97C5.72715 19.2132 5.14006 20.6249 5.14006 21.9998C5.14006 23.3747 5.72715 24.7865 6.9703 26.0296C8.21345 27.2728 9.6252 27.8599 11.0001 27.8599C12.375 27.8599 13.7867 27.2728 15.0299 26.0296L25.5298 15.5296L26.4703 16.47L15.9704 26.9701C14.5135 28.4269 12.7752 29.1899 11.0001 29.1899C9.22498 29.1899 7.48671 28.4269 6.02984 26.9701C4.57298 25.5132 3.81006 23.7749 3.81006 21.9998C3.81006 20.2247 4.57298 18.4864 6.02984 17.0296L18.5297 4.52959C19.5366 3.52277 20.7498 2.98486 21.9999 2.98486C23.2499 2.98486 24.4632 3.52276 25.47 4.52959C26.4768 5.53642 27.0147 6.74965 27.0147 7.99972C27.0147 9.24978 26.4768 10.463 25.47 11.4698L14.9707 21.9704C14.4138 22.5273 13.7255 22.8403 13.0003 22.8403C12.2751 22.8403 11.5868 22.5273 11.0299 21.9704C10.473 21.4135 10.1601 20.7252 10.1601 20.0001C10.1601 19.2749 10.473 18.5866 11.0299 18.0297L19.5298 9.52956L20.4703 10.47L11.9704 18.9702C11.6272 19.3133 11.4901 19.6751 11.4901 20.0001C11.4901 20.325 11.6272 20.6868 11.9704 21.03C12.3136 21.3731 12.6754 21.5102 13.0003 21.5102C13.3252 21.5102 13.687 21.3732 14.0302 21.03L24.5295 10.5294C25.3226 9.73631 25.6847 8.84958 25.6847 7.99972C25.6847 7.14986 25.3226 6.26316 24.5295 5.47005C23.7364 4.67693 22.8497 4.31486 21.9999 4.31486C21.15 4.31486 20.2633 4.67693 19.4702 5.47004Z" fill="#000000" class="bmwfcol"/><title>attachment_lt_48</title></svg>