<svg width="48" height="48" viewBox="0 0 32 32" xmlns="http://www.w3.org/2000/svg"><path d="M19 6.18982V7.56687L12.665 5.86697V23.5C12.665 24.9299 12.1368 26.0162 11.1879 26.7213C10.2716 27.4021 9.0467 27.665 7.74997 27.665C5.96949 27.665 4.33473 26.3455 4.33496 24.2499C4.33512 22.8395 5.13338 21.8382 6.11186 21.2203C7.04413 20.6315 8.17204 20.3351 9.27113 20.335C9.66464 20.335 10.0432 20.3349 10.5175 20.4464C10.7643 20.5044 11.0291 20.5903 11.335 20.7138V4.13303L19 6.18982ZM10.2133 21.7411C9.89814 21.6671 9.65672 21.665 9.24996 21.665C8.48144 21.6636 7.5449 21.8883 6.82205 22.3448C6.11433 22.7918 5.66505 23.4171 5.66496 24.2501C5.66482 25.5358 6.62656 26.335 7.74995 26.335C8.89682 26.335 9.79694 26.0978 10.3947 25.6537C10.9599 25.2338 11.335 24.5701 11.335 23.5V22.1662C10.8181 21.9233 10.4798 21.8037 10.2133 21.7411Z" fill="#000000" class="bmwfcol"/><path d="M25.8957 6.10479C28.3122 8.52129 29.6655 11.9489 29.6655 16C29.6655 20.0511 28.3122 23.4787 25.8957 25.8952L24.9553 24.9548C27.0888 22.8213 28.3355 19.7489 28.3355 16C28.3355 12.2511 27.0888 9.17875 24.9553 7.04525L25.8957 6.10479Z" fill="#000000" class="bmwfcol"/><path d="M22.9957 22.9952C24.7122 21.2787 25.6655 18.8511 25.6655 16C25.6655 13.1489 24.7122 10.7213 22.9957 9.00479L22.0553 9.94525C23.4888 11.3787 24.3355 13.4511 24.3355 16C24.3355 18.5489 23.4888 20.6213 22.0553 22.0548L22.9957 22.9952Z" fill="#000000" class="bmwfcol"/><path d="M19.1553 12.8452L20.0957 11.9048C21.1122 12.9213 21.6655 14.3489 21.6655 16C21.6655 17.6511 21.1122 19.0787 20.0957 20.0952L19.1553 19.1548C19.8888 18.4213 20.3355 17.3489 20.3355 16C20.3355 14.6511 19.8888 13.5787 19.1553 12.8452Z" fill="#000000" class="bmwfcol"/><title>audio-stream_lt_48</title></svg>