<svg width="48" height="48" viewBox="0 0 32 32" xmlns="http://www.w3.org/2000/svg"><path d="M26.664 3.33496H24.9119L9.33398 7.48906V22.7137C9.02813 22.5903 8.76334 22.5043 8.51654 22.4463C8.0422 22.3349 7.66366 22.3349 7.27015 22.335C6.28388 22.3333 5.07403 22.612 4.11088 23.2202C3.1324 23.8382 2.33413 24.8394 2.33398 26.2499C2.33374 28.3455 3.9685 29.665 5.74899 29.6649C7.04571 29.6649 8.2706 29.4021 9.18693 28.7212C10.1359 28.0162 10.664 26.9299 10.664 25.5V8.51087L25.0862 4.66496H25.3339V18.717C25.0165 18.5908 24.7403 18.5036 24.4826 18.4452C23.9962 18.3349 23.6057 18.3349 23.2109 18.335C22.2217 18.3333 21.0253 18.6178 20.0755 19.2332C19.1095 19.8591 18.3341 20.8649 18.334 22.2675C18.3338 24.3863 20.054 25.665 21.8093 25.6649C23.1059 25.6649 24.319 25.4021 25.2223 24.7174C26.157 24.0087 26.664 22.9217 26.664 21.5V3.33496ZM25.3339 21.5C25.3339 22.5782 24.968 23.2412 24.4188 23.6575C23.8381 24.0977 22.9564 24.3349 21.8093 24.3349C20.6608 24.335 19.6639 23.5303 19.664 22.2677C19.6641 21.4269 20.1074 20.7973 20.7987 20.3494C21.5058 19.8912 22.4255 19.6636 23.1911 19.665C23.5974 19.665 23.856 19.6669 24.1885 19.7423C24.4667 19.8053 24.8164 19.9253 25.3339 20.1668V21.5ZM9.33398 25.5C9.33398 26.57 8.95889 27.2337 8.39372 27.6536C7.79595 28.0978 6.89584 28.3349 5.74897 28.3349C4.62557 28.335 3.66383 27.5358 3.66398 26.25C3.66407 25.4171 4.11334 24.7917 4.82107 24.3448C5.54392 23.8882 6.48046 23.6636 7.24898 23.665C7.65573 23.665 7.89715 23.667 8.21234 23.7411C8.47879 23.8037 8.81711 23.9233 9.33398 24.1662V25.5Z" fill="#000000" class="bmwfcol"/><title>audio_lt_48</title></svg>