<svg width="48" height="48" viewBox="0 0 32 32" xmlns="http://www.w3.org/2000/svg"><path d="M9.99902 27.1564C6.03082 25.0178 3.33398 20.8238 3.33398 16C3.33398 9.0053 9.0043 3.33499 15.999 3.33499C22.9937 3.33499 28.664 9.0053 28.664 16C28.664 19.4972 27.2457 22.6643 24.9545 24.9555L23.535 26.375H27.624L26.374 27.625H21.374V22.625L22.624 21.375V25.4051L24.014 24.015C26.066 21.9631 27.334 19.1302 27.334 16C27.334 9.73984 22.2591 4.66499 15.999 4.66499C9.73884 4.66499 4.66398 9.73984 4.66398 16C4.66398 20.0568 6.79517 23.6158 9.99902 25.6186L9.99902 27.1564Z" fill="#000000" class="bmwfcol"/><path d="M21.5277 21H20.1087L18.8685 17.665H13.1417L11.9014 21H10.4824L14.9452 9H17.065L21.5277 21ZM18.3738 16.335L16.0051 9.96559L13.6363 16.335H18.3738Z" fill="#000000" class="bmwfcol"/><title>auto-start-stop-function_lt_48</title></svg>