<svg width="48" height="48" viewBox="0 0 32 32" xmlns="http://www.w3.org/2000/svg"><path d="M16 8.33447C13.7488 8.33447 11.8212 9.08775 10.4547 10.4542C9.08824 11.8207 8.33496 13.7484 8.33496 15.9995C8.33496 18.2506 9.08824 20.1782 10.4547 21.5447L10.925 22.0149L16.665 16.2749V8.33447H16ZM9.66496 15.9995C9.66496 14.0506 10.3117 12.4782 11.3952 11.3947C12.3526 10.4373 13.6917 9.82093 15.335 9.69042V15.724L10.954 20.105C10.1385 19.0591 9.66496 17.6671 9.66496 15.9995Z" fill="#000000" class="bmwfcol"/><path d="M21.9402 5.71338L23.1943 6.43857L22.3447 3.26758L23.8756 4.15146L24.9737 8.24957L20.8757 9.34764L19.3447 8.46375L22.553 7.60409L21.2744 6.86476C19.7887 6.09121 18.0116 5.66447 16 5.66447C12.8511 5.66447 10.2787 6.7112 8.49519 8.4947C6.71168 10.2782 5.66496 12.8506 5.66496 15.9995C5.66496 19.1484 6.71168 21.7207 8.49519 23.5042C10.2787 25.2878 12.8511 26.3345 16 26.3345C19.1488 26.3345 21.7212 25.2878 23.5047 23.5042C25.2882 21.7208 26.335 19.1484 26.335 15.9995H27.665C27.665 19.4506 26.5117 22.3782 24.4452 24.4447C22.3787 26.5112 19.4511 27.6645 16 27.6645C12.5488 27.6645 9.62123 26.5112 7.55473 24.4447C5.48824 22.3782 4.33496 19.4506 4.33496 15.9995C4.33496 12.5484 5.48824 9.62074 7.55473 7.55425C9.62123 5.48775 12.5488 4.33447 16 4.33447C18.2283 4.33447 20.2392 4.81639 21.9402 5.71338Z" fill="#000000" class="bmwfcol"/><title>automate_my_habits_lt_48</title></svg>