<svg width="48" height="48" viewBox="0 0 32 32" xmlns="http://www.w3.org/2000/svg"><path d="M16.4516 4.32454C17.1062 4.16614 17.7226 4.38507 18.2368 4.68193C18.751 4.9788 19.2488 5.40321 19.439 6.04933C19.6309 6.70172 19.4609 7.41178 19.0244 8.16775C18.588 8.92372 18.0581 9.42601 17.3971 9.58595C16.7425 9.74436 16.126 9.52543 15.6118 9.22857C15.0976 8.9317 14.5998 8.50729 14.4097 7.86117C14.2177 7.20878 14.3878 6.49872 14.8242 5.74275C15.2607 4.98678 15.7906 4.48449 16.4516 4.32454ZM16.7455 5.53948C16.5509 5.58659 16.256 5.76282 15.9068 6.36775C15.5575 6.97268 15.5523 7.31614 15.6088 7.5083C15.6672 7.70674 15.8417 7.9179 16.2368 8.14603C16.632 8.37417 16.9021 8.41967 17.1031 8.37102C17.2978 8.32391 17.5927 8.14768 17.9419 7.54275C18.2912 6.93782 18.2964 6.59436 18.2398 6.4022C18.1814 6.20376 18.007 5.9926 17.6118 5.76446C17.2167 5.53633 16.9466 5.49083 16.7455 5.53948Z" fill="#000000" class="bmwfcol"/><path d="M15.0386 9.8697C14.4634 9.35417 13.5647 9.17633 12.7987 9.19014C12.0344 9.20393 11.1387 9.41348 10.5861 9.964C9.92687 10.6207 9.1795 11.7733 8.51951 12.896C7.86263 14.0135 7.25263 15.1715 6.84942 15.9369L6.82306 15.9869C5.95729 17.6304 5.83593 18.9271 5.83594 19.5914L5.83595 30.0008H7.16595L7.16594 19.5914C7.16593 19.1052 7.25099 18.0282 7.99976 16.6068L8.02276 16.5632C8.42719 15.7954 9.02509 14.6604 9.66608 13.57C10.3307 12.4394 11.0017 11.4273 11.5247 10.9063C11.7219 10.7099 12.2018 10.5311 12.8227 10.5199C13.442 10.5088 13.938 10.6692 14.1509 10.8601L14.35 11.0386V16.3836L18.9953 19.0726V17.5359L15.68 15.6167V10.4446L15.0386 9.8697Z" fill="#000000" class="bmwfcol"/><path d="M16.3205 21.3971L13.9648 20.0558V18.5253L17.6505 20.6239V22.0105C17.6505 22.8653 17.7672 23.1768 17.9182 23.3278C18.0735 23.4831 18.444 23.6455 19.4855 23.6455C20.2159 23.6455 20.7202 23.5685 21.0215 23.4307C21.1609 23.367 21.2267 23.3036 21.2596 23.2562C21.2892 23.2136 21.3205 23.1441 21.3205 23.0105V19.816H22.6505V23.0105C22.6505 23.377 22.5568 23.72 22.352 24.0148C22.1506 24.3049 21.8726 24.504 21.5745 24.6403C21.0008 24.9026 20.2551 24.9755 19.4855 24.9755C18.4271 24.9755 17.5475 24.838 16.9778 24.2683C16.4038 23.6943 16.3205 22.8558 16.3205 22.0105V21.3971Z" fill="#000000" class="bmwfcol"/><path d="M23.4482 23.1002C23.4482 23.5627 23.5401 24.0935 23.9287 24.5016C24.3218 24.9143 24.8968 25.0752 25.5732 25.0752C26.2497 25.0752 26.8247 24.9143 27.2178 24.5016C27.6064 24.0935 27.6982 23.5627 27.6982 23.1002C27.6982 22.6377 27.6064 22.1069 27.2178 21.6989C26.8247 21.2861 26.2497 21.1252 25.5732 21.1252C24.8968 21.1252 24.3218 21.2861 23.9287 21.6989C23.5401 22.1069 23.4482 22.6377 23.4482 23.1002ZM25.5732 23.8252C25.0712 23.8252 24.8961 23.7049 24.8339 23.6395C24.7671 23.5694 24.6982 23.4252 24.6982 23.1002C24.6982 22.7752 24.7671 22.631 24.8339 22.5609C24.8961 22.4956 25.0712 22.3752 25.5732 22.3752C26.0753 22.3752 26.2504 22.4956 26.3126 22.5609C26.3794 22.631 26.4482 22.7752 26.4482 23.1002C26.4482 23.4252 26.3794 23.5694 26.3126 23.6395C26.2504 23.7049 26.0753 23.8252 25.5732 23.8252Z" fill="#000000" class="bmwfcol"/><title>baby_changing_room_lt_48</title></svg>