<svg width="48" height="48" viewBox="0 0 32 32" xmlns="http://www.w3.org/2000/svg"><path d="M11.3359 9.33496H20.6659V10.665H11.3359V9.33496Z" fill="#000000" class="bmwfcol"/><path d="M16.0369 15.335H15.963C14.4943 15.335 13.3448 15.335 12.4711 15.4159C11.604 15.4963 10.8661 15.6649 10.3279 16.1147C9.76417 16.5859 9.54303 17.2566 9.44185 18.0222C9.34369 18.765 9.34372 19.7324 9.34375 20.9306L9.34375 21.0501C9.34373 22.2575 9.34372 23.2313 9.44318 23.9783C9.54517 24.7443 9.76747 25.4147 10.3315 25.8855C10.8701 26.335 11.608 26.5036 12.4749 26.584C13.3481 26.665 14.4965 26.665 15.9631 26.665H16.0369C17.5033 26.665 18.6516 26.665 19.5249 26.584C20.3918 26.5036 21.1296 26.335 21.6682 25.8855C22.2323 25.4148 22.4546 24.7444 22.5566 23.9783C22.656 23.2313 22.656 22.2575 22.656 21.0501L22.656 20.9306C22.656 19.7324 22.6561 18.765 22.5579 18.0222C22.4567 17.2566 22.2356 16.5858 21.6719 16.1147C21.1337 15.6649 20.3958 15.4963 19.5286 15.4159C18.655 15.335 17.5056 15.335 16.0369 15.335ZM10.7437 18.335C10.7489 18.2876 10.7544 18.2415 10.7604 18.1965C10.8451 17.5558 10.9967 17.2891 11.1808 17.1352C11.3904 16.9601 11.7752 16.8161 12.5939 16.7403C13.3988 16.6657 14.4863 16.665 15.9999 16.665C17.5135 16.665 18.601 16.6657 19.4059 16.7402C20.2245 16.8161 20.6094 16.96 20.819 17.1352C21.0031 17.2891 21.1547 17.5558 21.2394 18.1965C21.2453 18.2415 21.2509 18.2876 21.256 18.335H10.7437ZM10.6794 19.665H21.3204C21.3259 20.0559 21.326 20.4978 21.326 21C21.326 22.2694 21.3246 23.154 21.2382 23.8028C21.153 24.4431 21.0008 24.7102 20.816 24.8644C20.6057 25.0399 20.2202 25.1838 19.4021 25.2597C18.5977 25.3343 17.5113 25.335 15.9999 25.335C14.4885 25.335 13.4021 25.3343 12.5977 25.2597C11.7796 25.1838 11.3941 25.0399 11.1837 24.8644C10.9989 24.7101 10.8468 24.443 10.7615 23.8028C10.6752 23.1539 10.6738 22.2693 10.6738 21C10.6738 20.4978 10.6739 20.0559 10.6794 19.665Z" fill="#000000" class="bmwfcol"/><path d="M22.4227 2.25881C21.5345 2.02081 20.6215 2.54792 20.3835 3.43614L19.8619 5.3828C18.7975 5.33495 17.537 5.33495 16.0582 5.33496H15.9413C14.4627 5.33495 13.2023 5.33495 12.1379 5.38279L11.6164 3.43652C11.3784 2.5483 10.4654 2.02119 9.57723 2.25918L7.64538 2.77682C6.75715 3.01482 6.23005 3.9278 6.46804 4.81602L7.16891 7.43171C6.70143 8.28436 6.51571 9.40966 6.42996 10.8108C6.35041 12.1108 6.35463 13.7526 6.35988 15.7941C6.36127 16.3344 6.36273 16.9026 6.36273 17.5C6.36273 18.0973 6.36127 18.6656 6.35988 19.2058C6.35888 19.5968 6.35791 19.9731 6.35756 20.3352H6.00094C5.08138 20.3352 4.33594 21.0806 4.33594 22.0002V26.0002C4.33594 26.9198 5.08138 27.6652 6.00094 27.6652H7.22399C7.28342 27.7662 7.34711 27.8632 7.41538 27.9562C8.10004 28.8885 9.14209 29.2895 10.4983 29.4789C11.8306 29.665 13.6161 29.665 15.9413 29.665H16.0583C18.3837 29.665 20.1694 29.665 21.5018 29.4789C22.858 29.2894 23.9001 28.8884 24.5847 27.9561C24.653 27.8631 24.7166 27.7662 24.776 27.6652H26.0009C26.9205 27.6652 27.6659 26.9198 27.6659 26.0002V22.0002C27.6659 21.0806 26.9205 20.3352 26.0009 20.3352H25.6425C25.6422 19.9732 25.6412 19.5969 25.6402 19.2059C25.6388 18.6657 25.6374 18.0973 25.6374 17.5C25.6374 16.9027 25.6388 16.3344 25.6402 15.7942C25.6455 13.7528 25.6497 12.1109 25.5701 10.8109C25.4844 9.40959 25.2986 8.28418 24.831 7.43148L25.5319 4.81564C25.7699 3.92742 25.2428 3.01444 24.3546 2.77644L22.4227 2.25881ZM23.7664 6.26604C23.157 5.8638 22.398 5.64622 21.5018 5.52104C21.4073 5.50786 21.3107 5.4956 21.2117 5.48422L21.6682 3.78037C21.7161 3.60166 21.8998 3.4956 22.0785 3.54349L24.0103 4.06113C24.1891 4.10901 24.2951 4.2927 24.2472 4.47142L23.7664 6.26604ZM25.6395 21.6652H26.0009C26.186 21.6652 26.3359 21.8152 26.3359 22.0002V26.0002C26.3359 26.1852 26.186 26.3352 26.0009 26.3352H25.288C25.4383 25.7108 25.5208 24.9956 25.5701 24.189C25.6148 23.459 25.6331 22.6211 25.6395 21.6652ZM6.7121 26.3352H6.00094C5.81592 26.3352 5.66594 26.1852 5.66594 26.0002V22.0002C5.66594 21.8152 5.81592 21.6652 6.00094 21.6652H6.36054C6.36703 22.6211 6.38528 23.459 6.42996 24.1891C6.47932 24.9957 6.56181 25.7108 6.7121 26.3352ZM8.23351 6.26611L7.75272 4.47179C7.70484 4.29308 7.8109 4.10939 7.98961 4.0615L9.92146 3.54387C10.1002 3.49598 10.2839 3.60204 10.3317 3.78075L10.7882 5.48421C10.6893 5.49559 10.5927 5.50783 10.4983 5.52101C9.60201 5.64619 8.84291 5.86378 8.23351 6.26611ZM7.68989 15.7624C7.68476 13.7295 7.68076 12.1457 7.75748 10.892C7.85597 9.28272 8.08386 8.38051 8.4874 7.83097C8.85832 7.32586 9.4656 7.00815 10.6823 6.83822C11.9117 6.66652 13.6039 6.66496 16 6.66496C18.3962 6.66496 20.0883 6.66654 21.3178 6.83826C22.5345 7.0082 23.1418 7.32593 23.5127 7.83106C23.9162 8.38061 24.1441 9.28284 24.2426 10.8921C24.3193 12.1457 24.3153 13.7296 24.3102 15.7623C24.3088 16.3081 24.3073 16.8871 24.3073 17.5C24.3073 18.1125 24.3088 18.6913 24.3102 19.2369C24.3153 21.2696 24.3193 22.8542 24.2426 24.1078C24.1441 25.7171 23.9162 26.6193 23.5127 27.1689C23.1418 27.674 22.5345 27.9917 21.3178 28.1617C20.0883 28.3334 18.3962 28.335 16 28.335C13.6039 28.335 11.9117 28.3334 10.6823 28.1617C9.46558 27.9918 8.85831 27.6741 8.48739 27.169C8.08385 26.6194 7.85596 25.7172 7.75748 24.1079C7.68076 22.8543 7.68476 21.2704 7.68989 19.2376C7.69127 18.6916 7.69273 18.1131 7.69273 17.5C7.69273 16.8868 7.69127 16.3084 7.68989 15.7624Z" fill="#000000" class="bmwfcol"/><title>backpack_lt_48</title></svg>