<svg width="48" height="48" viewBox="0 0 32 32" xmlns="http://www.w3.org/2000/svg"><path d="M27.6659 24.1308V22.0002C27.6659 21.0806 26.9205 20.3352 26.0009 20.3352H25.6425C25.6422 19.9741 25.6412 19.5987 25.6402 19.2088L25.6402 19.2059C25.6388 18.6657 25.6374 18.0973 25.6374 17.5C25.6374 16.9027 25.6388 16.3344 25.6402 15.7942C25.6455 13.7528 25.6497 12.1109 25.5701 10.8109C25.4844 9.40959 25.2986 8.28418 24.831 7.43148L25.5319 4.81564C25.7699 3.92742 25.2428 3.01444 24.3546 2.77644L22.4227 2.25881C21.5345 2.02081 20.6215 2.54792 20.3835 3.43614L19.8619 5.3828C18.7975 5.33495 17.537 5.33495 16.0582 5.33496H15.9413C14.4627 5.33495 13.2023 5.33495 12.1379 5.38279L11.6164 3.43652C11.3784 2.5483 10.4654 2.02119 9.57723 2.25918L7.64538 2.77682C7.31421 2.86556 7.03324 3.04812 6.82341 3.28825L7.77461 4.23946C7.81553 4.1548 7.89165 4.08775 7.9896 4.0615L9.92146 3.54387C10.1002 3.49598 10.2839 3.60204 10.3317 3.78075L10.7882 5.48421C10.6893 5.49559 10.5927 5.50783 10.4983 5.52101C10.0701 5.58081 9.67317 5.66172 9.30894 5.77379L10.4148 6.87963C10.5005 6.86496 10.5896 6.85116 10.6823 6.83822C11.9117 6.66652 13.6039 6.66496 16 6.66496C18.3962 6.66496 20.0883 6.66654 21.3178 6.83826C22.5345 7.0082 23.1418 7.32593 23.5127 7.83106C23.9162 8.38061 24.1441 9.28284 24.2426 10.8921C24.3193 12.1457 24.3153 13.7295 24.3102 15.7621C24.3088 16.308 24.3073 16.8871 24.3073 17.5C24.3073 18.1125 24.3088 18.6913 24.3102 19.2369C24.3116 19.7818 24.3129 20.2946 24.3125 20.7774L25.6356 22.1005C25.6373 21.9582 25.6385 21.8131 25.6395 21.6652H26.0009C26.186 21.6652 26.3359 21.8152 26.3359 22.0002V22.8008L27.6659 24.1308ZM24.2472 4.47142L23.7664 6.26604C23.157 5.8638 22.398 5.64622 21.5018 5.52104C21.4073 5.50786 21.3107 5.4956 21.2117 5.48422L21.6682 3.78037C21.7161 3.60166 21.8998 3.4956 22.0785 3.54349L24.0103 4.06113C24.1891 4.10901 24.2951 4.2927 24.2472 4.47142Z" fill="#000000" class="bmwfcol"/><path d="M6.49231 10.0282L7.73705 11.273C7.68156 12.4627 7.68527 13.9302 7.68989 15.7624C7.69127 16.3082 7.69273 16.8871 7.69273 17.5C7.69273 18.1123 7.69127 18.69 7.68989 19.2354V19.2365C7.68476 21.2693 7.68076 22.8543 7.75748 24.1079C7.85596 25.7172 8.08385 26.6194 8.48739 27.169C8.85831 27.6741 9.46558 27.9918 10.6823 28.1617C11.9117 28.3334 13.6039 28.335 16 28.335C18.3962 28.335 20.0883 28.3334 21.3178 28.1617C22.5345 27.9917 23.1418 27.674 23.5127 27.1689C23.5295 27.1459 23.5461 27.1224 23.5623 27.0982L24.5135 28.0494C23.8287 28.9155 22.8118 29.2959 21.5018 29.4789C20.1694 29.665 18.3837 29.665 16.0583 29.665H15.9413C13.6161 29.665 11.8306 29.665 10.4983 29.4789C9.14209 29.2895 8.10004 28.8885 7.41538 27.9562C7.34711 27.8632 7.28342 27.7662 7.22399 27.6652H6.00094C5.08138 27.6652 4.33594 26.9198 4.33594 26.0002V22.0002C4.33594 21.0806 5.08138 20.3352 6.00094 20.3352H6.35756C6.35791 19.9731 6.35888 19.5968 6.35988 19.2058L6.35989 19.2033V19.1957C6.36128 18.6584 6.36273 18.0936 6.36273 17.5C6.36273 16.9061 6.36127 16.341 6.35989 15.8036V15.7966L6.35988 15.7941C6.35463 13.7527 6.35041 12.1108 6.42996 10.8108C6.44656 10.5396 6.4669 10.2788 6.49231 10.0282ZM6.42996 24.1891C6.38528 23.459 6.36703 22.6211 6.36054 21.6652H6.00094C5.81592 21.6652 5.66594 21.8152 5.66594 22.0002V26.0002C5.66594 26.1852 5.81592 26.3352 6.00094 26.3352H6.7121C6.56181 25.7108 6.47932 24.9957 6.42996 24.1891Z" fill="#000000" class="bmwfcol"/><path d="M21.6682 25.8855C21.7957 25.7791 21.9058 25.6625 22.0009 25.5368L21.0378 24.5737C20.9721 24.7071 20.8972 24.7966 20.816 24.8644C20.6057 25.0399 20.2202 25.1838 19.4021 25.2597C18.5977 25.3343 17.5113 25.335 15.9999 25.335C14.4885 25.335 13.4021 25.3343 12.5977 25.2597C11.7796 25.1838 11.3941 25.0399 11.1837 24.8644C10.9989 24.7101 10.8468 24.443 10.7615 23.8028C10.6752 23.1539 10.6738 22.2693 10.6738 21C10.6738 20.4978 10.6739 20.0559 10.6794 19.665H16.129L14.799 18.335H10.7437C10.7489 18.2876 10.7544 18.2415 10.7604 18.1965C10.8451 17.5558 10.9967 17.2891 11.1808 17.1352C11.3904 16.9601 11.7752 16.8161 12.5939 16.7403C12.7703 16.7239 12.9602 16.7111 13.1652 16.7011L11.9439 15.4798C11.3036 15.5793 10.7533 15.7591 10.3279 16.1147C9.76417 16.5859 9.54303 17.2566 9.44185 18.0222C9.34369 18.765 9.34372 19.7324 9.34375 20.9306V21.0501C9.34373 22.2575 9.34372 23.2313 9.44318 23.9783C9.54516 24.7443 9.76747 25.4147 10.3315 25.8855C10.8701 26.335 11.608 26.5036 12.4749 26.584C13.3481 26.665 14.4965 26.665 15.9631 26.665H16.0369C17.5033 26.665 18.6516 26.665 19.5249 26.584C20.3918 26.5036 21.1296 26.335 21.6682 25.8855Z" fill="#000000" class="bmwfcol"/><path d="M21.098 17.5629L22.6378 19.1026C22.6241 18.7008 22.6 18.3409 22.5579 18.0222C22.4567 17.2566 22.2356 16.5858 21.6719 16.1147C21.1337 15.6649 20.3958 15.4963 19.5286 15.4159C19.3355 15.398 19.1289 15.3841 18.9084 15.3732L20.4839 16.9488C20.6315 17.0049 20.7382 17.0677 20.819 17.1352C20.9249 17.2238 21.0201 17.3497 21.098 17.5629Z" fill="#000000" class="bmwfcol"/><path d="M14.2001 10.665L12.8701 9.33496H20.6659V10.665H14.2001Z" fill="#000000" class="bmwfcol"/><path d="M3.9395 3L29.9395 29H28.0586L2.05859 3H3.9395Z" fill="#000000" class="bmwfcol"/><title>backpack_crossed_out_lt_48</title></svg>