<svg width="48" height="48" viewBox="0 0 32 32" xmlns="http://www.w3.org/2000/svg"><path d="M13.999 9.83496C12.7979 9.83496 11.7453 10.2382 10.9913 10.9922C10.2373 11.7462 9.83398 12.7988 9.83398 14C9.83398 15.2011 10.2373 16.2537 10.9913 17.0077C11.7453 17.7617 12.7979 18.165 13.999 18.165C16.4871 18.165 18.164 16.279 18.164 14C18.164 12.7988 17.7607 11.7462 17.0067 10.9922C16.2527 10.2382 15.2001 9.83496 13.999 9.83496ZM11.164 14C11.164 13.1011 11.4607 12.4037 11.9317 11.9327C12.4027 11.4617 13.1001 11.165 13.999 11.165C14.8979 11.165 15.5953 11.4617 16.0663 11.9327C16.5373 12.4037 16.834 13.1011 16.834 14C16.834 15.5869 15.7109 16.835 13.999 16.835C13.1001 16.835 12.4027 16.5382 11.9317 16.0672C11.4607 15.5962 11.164 14.8988 11.164 14Z" fill="#000000" class="bmwfcol"/><path d="M3.99898 6.33496C3.55205 6.33496 3.11883 6.47466 2.79626 6.79723C2.47369 7.11981 2.33398 7.55302 2.33398 7.99996V20C2.33398 20.4469 2.47369 20.8801 2.79626 21.2027C3.11883 21.5253 3.55205 21.665 3.99898 21.665H23.999C24.4459 21.665 24.8791 21.5253 25.2017 21.2027C25.5243 20.8801 25.664 20.4469 25.664 20V7.99996C25.664 7.55302 25.5243 7.11981 25.2017 6.79724C24.8791 6.47466 24.4459 6.33496 23.999 6.33496H3.99898ZM3.66398 7.99996C3.66398 7.8269 3.71428 7.76012 3.73671 7.73769C3.75914 7.71526 3.82592 7.66496 3.99898 7.66496H7.17286L3.66398 10.6093V7.99996ZM3.66398 12.3455L9.24198 7.66496H18.7575L24.334 12.3442V15.6561L18.7579 20.335H9.24151L3.66398 15.6549V12.3455ZM24.334 10.608L20.8266 7.66496H23.999C24.172 7.66496 24.2388 7.71526 24.2613 7.73769C24.2837 7.76012 24.334 7.8269 24.334 7.99996V10.608ZM20.827 20.335L24.334 17.3923V20C24.334 20.173 24.2837 20.2398 24.2613 20.2622C24.2388 20.2847 24.172 20.335 23.999 20.335H20.827ZM3.66398 17.391L7.1724 20.335H3.99898C3.82592 20.335 3.75914 20.2847 3.73671 20.2622C3.71428 20.2398 3.66398 20.173 3.66398 20V17.391Z" fill="#000000" class="bmwfcol"/><path d="M6.33398 24V23.2999H7.66398V24C7.66398 24.173 7.71428 24.2398 7.73671 24.2622C7.75914 24.2847 7.82592 24.335 7.99898 24.335H27.999C28.172 24.335 28.2388 24.2847 28.2613 24.2622C28.2837 24.2398 28.334 24.173 28.334 24V12C28.334 11.8269 28.2837 11.7601 28.2613 11.7377C28.2388 11.7153 28.172 11.665 27.999 11.665H27.2999V10.335H27.999C28.4459 10.335 28.8791 10.4747 29.2017 10.7972C29.5243 11.1198 29.664 11.553 29.664 12V24C29.664 24.4469 29.5243 24.8801 29.2017 25.2027C28.8791 25.5253 28.4459 25.665 27.999 25.665H7.99898C7.55205 25.665 7.11883 25.5253 6.79626 25.2027C6.47369 24.8801 6.33398 24.4469 6.33398 24Z" fill="#000000" class="bmwfcol"/><title>banknotes_lt_48</title></svg>