<svg width="48" height="48" viewBox="0 0 32 32" xmlns="http://www.w3.org/2000/svg"><path d="M3.94145 3L29.9415 29H28.0605L2.06055 3H3.94145Z" fill="#000000" class="bmwfcol"/><path d="M11.2014 7.66496L9.87144 6.33496H26.0918C26.4998 6.33496 26.9054 6.45446 27.214 6.7454C27.5272 7.04078 27.6659 7.44277 27.6659 7.8571V18.1428C27.6659 18.5571 27.5272 18.9591 27.214 19.2545C26.9054 19.5455 26.4998 19.665 26.0918 19.665H23.2014L21.6257 18.0892L26.3359 14.3626V11.6373L21.315 7.66496H11.2014ZM23.4586 7.66496L26.3359 9.94138V7.8571C26.3359 7.74202 26.3016 7.71313 26.3016 7.71313C26.2965 7.70836 26.2475 7.66496 26.0918 7.66496H23.4586ZM26.3359 16.0585L23.4586 18.335H26.0918C26.2475 18.335 26.2965 18.2916 26.3016 18.2868C26.3016 18.2868 26.3359 18.2579 26.3359 18.1428V16.0585Z" fill="#000000" class="bmwfcol"/><path d="M6.33594 9.87052V14.6201C6.79006 14.5156 7.26111 14.4488 7.73659 14.4187L7.66594 14.3628V11.2005L6.33594 9.87052Z" fill="#000000" class="bmwfcol"/><path d="M20.6659 13C20.6659 14.1375 20.1896 15.165 19.3771 15.8407L18.4295 14.893C19.0023 14.4724 19.3359 13.7879 19.3359 13C19.3359 12.2511 19.0892 11.6787 18.7057 11.2952C18.3222 10.9117 17.7498 10.665 17.0009 10.665C16.2521 10.665 15.6797 10.9117 15.2962 11.2952C15.2196 11.3717 15.1485 11.4558 15.0838 11.5473L14.1351 10.5986C14.2043 10.5139 14.2779 10.4326 14.3557 10.3547C15.0222 9.68824 15.9498 9.33496 17.0009 9.33496C18.0521 9.33496 18.9797 9.68824 19.6462 10.3547C20.3127 11.0212 20.6659 11.9488 20.6659 13Z" fill="#000000" class="bmwfcol"/><path d="M17.884 21.4206L19.1885 22.7251V23.5855C19.1885 24.394 18.548 24.9712 17.8665 25.3119C17.1505 25.6699 16.2016 25.8747 15.1849 25.8747C14.1683 25.8747 13.2194 25.6699 12.5034 25.3119C12.2361 25.1783 11.975 25.0082 11.7565 24.8021C11.5379 25.0082 11.2769 25.1783 11.0095 25.3119C10.2935 25.6699 9.34469 25.8747 8.328 25.8747C7.31132 25.8747 6.36246 25.6699 5.64649 25.3119C4.96491 24.9712 4.32443 24.394 4.32443 23.5855V21.1257L4.32422 21.1002V18.3145H4.35485C4.4896 17.6616 5.05243 17.185 5.64649 16.888C6.36245 16.53 7.31132 16.3252 8.328 16.3252C9.34468 16.3252 10.2935 16.53 11.0095 16.888C11.6036 17.185 12.1664 17.6616 12.3012 18.3145H12.3314V18.5891L12.3316 18.6145L12.3314 18.6398V19.4654C12.3882 19.4332 12.4457 19.4026 12.5034 19.3737C13.2194 19.0157 14.1683 18.8109 15.1849 18.8109C15.215 18.8109 15.2449 18.8111 15.2749 18.8114L16.5907 20.1273C16.1782 20.0228 15.7009 19.9609 15.1849 19.9609C14.3081 19.9609 13.5426 20.1398 13.0177 20.4023C12.4714 20.6755 12.3375 20.9489 12.3316 21.0903V21.11C12.3375 21.2514 12.4714 21.5249 13.0177 21.7981C13.5426 22.0605 14.3081 22.2395 15.1849 22.2395C16.0618 22.2395 16.8272 22.0605 17.3522 21.7981C17.6133 21.6675 17.7802 21.5368 17.884 21.4206ZM11.1814 18.6046C11.1754 18.4632 11.0415 18.1897 10.4952 17.9166C9.97029 17.6541 9.20486 17.4752 8.328 17.4752C7.45114 17.4752 6.68571 17.6541 6.16078 17.9166C5.60146 18.1963 5.47443 18.4762 5.47443 18.6145C5.47443 18.7527 5.60146 19.0327 6.16078 19.3124C6.68571 19.5748 7.45114 19.7538 8.328 19.7538C9.20486 19.7538 9.97029 19.5748 10.4952 19.3124C11.0415 19.0392 11.1754 18.7658 11.1814 18.6244V18.6046ZM11.1814 20.2493C11.1246 20.2816 11.0672 20.3121 11.0095 20.341C10.2935 20.6989 9.34468 20.9038 8.328 20.9038C7.31132 20.9038 6.36245 20.6989 5.64649 20.341C5.58865 20.312 5.5311 20.2814 5.47422 20.2491L5.47443 21.1101C5.48042 21.2516 5.61437 21.525 6.16057 21.7981C6.6855 22.0605 7.45093 22.2395 8.32779 22.2395C9.20465 22.2395 9.97008 22.0605 10.495 21.7981C11.0543 21.5184 11.1814 21.2384 11.1814 21.1002V20.2493ZM5.64627 22.8267C5.58858 22.7978 5.53118 22.7673 5.47443 22.735V23.5855C5.47443 23.7237 5.60146 24.0037 6.16078 24.2834C6.68572 24.5458 7.45114 24.7248 8.328 24.7248C9.20487 24.7248 9.97029 24.5458 10.4952 24.2834C11.0424 24.0097 11.1759 23.7358 11.1814 23.5946L11.1814 23.5855V22.7349C11.1245 22.7672 11.0671 22.7978 11.0093 22.8267C10.2933 23.1846 9.34447 23.3895 8.32779 23.3895C7.31111 23.3895 6.36224 23.1846 5.64627 22.8267ZM12.3316 22.735V23.5855L12.3315 23.5946C12.3371 23.7358 12.4705 24.0097 13.0177 24.2834C13.5426 24.5458 14.3081 24.7248 15.1849 24.7248C16.0618 24.7248 16.8272 24.5458 17.3522 24.2834C17.9115 24.0037 18.0385 23.7237 18.0385 23.5855V22.7349C17.9817 22.7672 17.9242 22.7978 17.8665 22.8267C17.1505 23.1846 16.2016 23.3895 15.1849 23.3895C14.1683 23.3895 13.2194 23.1846 12.5034 22.8267C12.4457 22.7978 12.3883 22.7673 12.3316 22.735Z" fill="#000000" class="bmwfcol"/><title>banknote_and_coins_crossed_out_lt_48</title></svg>