<svg width="48" height="48" viewBox="0 0 32 32" xmlns="http://www.w3.org/2000/svg"><path d="M10.6649 10V22H9.33492V10H10.6649Z" fill="#000000" class="bmwfcol"/><path d="M14.6649 10V22H13.3349V10H14.6649Z" fill="#000000" class="bmwfcol"/><path d="M18.6649 10V22H17.3349V10H18.6649Z" fill="#000000" class="bmwfcol"/><path d="M22.6649 10V22H21.3349V10H22.6649Z" fill="#000000" class="bmwfcol"/><path d="M3.33496 20.0001H4.66496V23.0001C4.66496 23.9511 4.83782 24.463 5.15858 24.7685C5.49208 25.0862 6.14558 25.3351 7.49996 25.3351H10.9996L10.9999 26.6651H7.49996C6.05435 26.6651 4.95784 26.414 4.24134 25.7316C3.5121 25.0371 3.33496 24.0491 3.33496 23.0001V20.0001Z" fill="#000000" class="bmwfcol"/><path d="M3.33496 12.0001H4.66496V9.00008C4.66496 8.04906 4.83782 7.53712 5.15858 7.23163C5.49208 6.91402 6.14558 6.66508 7.49996 6.66508H10.9996L10.9999 5.33508H7.49996C6.05435 5.33508 4.95784 5.58615 4.24134 6.26853C3.5121 6.96304 3.33496 7.95111 3.33496 9.00008V12.0001Z" fill="#000000" class="bmwfcol"/><path d="M28.665 20.0001H27.335V23.0001C27.335 23.9511 27.1621 24.463 26.8413 24.7685C26.5078 25.0862 25.8543 25.3351 24.5 25.3351H21.0004L21 26.6651H24.5C25.9456 26.6651 27.0421 26.414 27.7586 25.7316C28.4878 25.0371 28.665 24.0491 28.665 23.0001V20.0001Z" fill="#000000" class="bmwfcol"/><path d="M28.665 12.0001H27.335V9.00008C27.335 8.04906 27.1621 7.53712 26.8413 7.23163C26.5078 6.91402 25.8543 6.66508 24.5 6.66508H21.0004L21 5.33508H24.5C25.9456 5.33508 27.0421 5.58615 27.7586 6.26853C28.4878 6.96304 28.665 7.95111 28.665 9.00008V12.0001Z" fill="#000000" class="bmwfcol"/><title>barcode_lt_48</title></svg>