<svg width="48" height="48" viewBox="0 0 32 32" xmlns="http://www.w3.org/2000/svg"><path d="M4 10.6962V9.1605L16.0002 2.23218L28 9.16025V10.696L16.0002 3.76793L4 10.6962Z" fill="#000000" class="bmwfcol"/><path d="M20.335 19.335V17H21.665V19.335H24V20.665H21.665V23H20.335V20.665H18V19.335H20.335Z" fill="#000000" class="bmwfcol"/><path d="M14 20.665H8V19.335H14V20.665Z" fill="#000000" class="bmwfcol"/><path d="M13.665 11.335H8.33496V13.335H4.33496V27.665H27.665V13.335H23.665V11.335H18.335V13.335H13.665V11.335ZM9.66496 14.665V12.665H12.335V14.665H19.665V12.665H22.335V14.665H26.335V26.335H5.66496V14.665H9.66496Z" fill="#000000" class="bmwfcol"/><title>battery_and_roof_lt_48</title></svg>