<svg width="48" height="48" viewBox="0 0 32 32" xmlns="http://www.w3.org/2000/svg"><path d="M24.9995 23.6648L12.369 23.6648C12.6506 23.2531 12.8861 22.8073 13.068 22.3348H24.9995C25.4825 22.3348 25.7993 22.1895 25.9942 21.9946C26.1892 21.7997 26.3345 21.4829 26.3345 20.9998V18.4895L26.8274 18.3574C27.3393 18.2203 27.6663 18.1273 27.8969 18.0299C28.1126 17.9387 28.1674 17.8739 28.1926 17.8353C28.228 17.7812 28.2778 17.6627 28.3059 17.3469C28.3339 17.0313 28.3345 16.6121 28.3345 15.9998C28.3345 15.3875 28.3339 14.9683 28.3059 14.6527C28.2778 14.3369 28.228 14.2184 28.1926 14.1642C28.1674 14.1256 28.1126 14.0608 27.8968 13.9697C27.6663 13.8722 27.3393 13.7793 26.8274 13.6421L26.3345 13.5101V10.9998C26.3345 10.5168 26.1892 10.2 25.9942 10.0051C25.7993 9.81014 25.4825 9.66484 24.9995 9.66484L6.99947 9.66484C6.51641 9.66484 6.19963 9.81014 6.0047 10.0051C5.80977 10.2 5.66447 10.5168 5.66447 10.9998L5.66447 13.6373C5.20111 13.7341 4.75586 13.8802 4.33447 14.0699V10.9998C4.33447 10.2429 4.56918 9.55969 5.06425 9.06461C5.55932 8.56954 6.24253 8.33484 6.99947 8.33484L24.9995 8.33484C25.7564 8.33484 26.4396 8.56954 26.9347 9.06462C27.4298 9.55969 27.6645 10.2429 27.6645 10.9998V12.4926C27.9478 12.5735 28.2002 12.654 28.4146 12.7446C28.7614 12.8911 29.0816 13.0929 29.3064 13.4373C29.5211 13.7662 29.5962 14.1471 29.6307 14.5351C29.6645 14.9166 29.6645 15.3952 29.6645 15.9694V16.0303C29.6645 16.6044 29.6645 17.0831 29.6307 17.4645C29.5962 17.8525 29.5211 18.2334 29.3064 18.5623C29.0816 18.9067 28.7614 19.1084 28.4146 19.255C28.2002 19.3456 27.9478 19.4261 27.6645 19.507V20.9998C27.6645 21.7568 27.4298 22.44 26.9347 22.9351C26.4396 23.4301 25.7564 23.6648 24.9995 23.6648Z" fill="#000000" class="bmwfcol"/><path d="M14.335 11.5V15.665H16.3349V17.435H15.2254L16.9999 20.3925L18.7744 17.435H17.6649V14.335H15.665V11.5H14.335Z" fill="#000000" class="bmwfcol"/><path d="M6.99996 15.335C5.64884 15.335 4.47123 15.7883 3.62973 16.6298C2.78824 17.4713 2.33496 18.6489 2.33496 20C2.33496 21.3511 2.78824 22.5287 3.62973 23.3702C4.07246 23.8129 4.60822 24.1482 5.21334 24.3665L3.70386 30H5.08077L6.51563 24.6451C6.67432 24.6583 6.83586 24.665 6.99996 24.665C7.16409 24.665 7.32566 24.6583 7.48438 24.645L8.91924 30H10.2962L8.78667 24.3665C9.39175 24.1482 9.92748 23.8129 10.3702 23.3702C11.2117 22.5287 11.665 21.3511 11.665 20C11.665 18.6489 11.2117 17.4713 10.3702 16.6298C9.52869 15.7883 8.35108 15.335 6.99996 15.335ZM3.66496 20C3.66496 18.9511 4.01169 18.1287 4.57019 17.5702C5.12869 17.0117 5.95108 16.665 6.99996 16.665C8.04884 16.665 8.87123 17.0117 9.42974 17.5702C9.98824 18.1287 10.335 18.9511 10.335 20C10.335 21.0489 9.98824 21.8713 9.42974 22.4298C8.87123 22.9883 8.04884 23.335 6.99996 23.335C5.95108 23.335 5.12869 22.9883 4.57019 22.4298C4.01169 21.8713 3.66496 21.0489 3.66496 20Z" fill="#000000" class="bmwfcol"/><title>battery_and_seal_lt_48</title></svg>