<svg width="48" height="48" viewBox="0 0 32 32" xmlns="http://www.w3.org/2000/svg"><path d="M15.665 18.9999V20.9999H14.335V18.9999H15.665Z" fill="#000000" class="bmwfcol"/><path d="M15.665 17.4999V10.9999H14.335V17.4999H15.665Z" fill="#000000" class="bmwfcol"/><path d="M26 24.665H3.99996C3.24302 24.665 2.55981 24.4303 2.06474 23.9352C1.56967 23.4401 1.33496 22.7569 1.33496 22L1.33496 9.99996C1.33496 9.24302 1.56967 8.55981 2.06474 8.06474C2.55981 7.56967 3.24302 7.33496 3.99996 7.33496H26C26.7569 7.33496 27.4401 7.56967 27.9352 8.06474C28.4303 8.55981 28.665 9.24303 28.665 9.99997V12.4927C28.9483 12.5736 29.2007 12.6541 29.4151 12.7447C29.7619 12.8913 30.0821 13.093 30.3069 13.4374C30.5215 13.7663 30.5967 14.1473 30.6311 14.5352C30.665 14.9167 30.665 15.3954 30.665 15.9695V16.0304C30.665 16.6045 30.665 17.0832 30.6311 17.4647C30.5967 17.8526 30.5215 18.2335 30.3069 18.5624C30.0821 18.9068 29.7619 19.1086 29.4151 19.2551C29.2007 19.3457 28.9483 19.4262 28.665 19.5071V22C28.665 22.7569 28.4303 23.4401 27.9352 23.9352C27.4401 24.4303 26.7569 24.665 26 24.665ZM3.99996 23.335L26 23.335C26.483 23.335 26.7998 23.1897 26.9947 22.9947C27.1897 22.7998 27.335 22.483 27.335 22L27.335 18.4896L27.8278 18.3576C28.3397 18.2204 28.6668 18.1275 28.8973 18.03C29.1131 17.9388 29.1679 17.8741 29.1931 17.8355C29.2284 17.7813 29.2783 17.6628 29.3064 17.347C29.3344 17.0314 29.335 16.6123 29.335 16C29.335 15.3876 29.3344 14.9684 29.3064 14.6529C29.2783 14.337 29.2284 14.2185 29.1931 14.1644C29.1679 14.1257 29.1131 14.061 28.8973 13.9698C28.6668 13.8723 28.3397 13.7794 27.8279 13.6422L27.335 13.5102V9.99997C27.335 9.5169 27.1897 9.20012 26.9947 9.00519C26.7998 8.81026 26.483 8.66496 26 8.66496L3.99996 8.66496C3.5169 8.66496 3.20012 8.81026 3.00519 9.00519C2.81026 9.20012 2.66496 9.5169 2.66496 9.99996L2.66496 22C2.66496 22.483 2.81026 22.7998 3.00519 22.9947C3.20012 23.1897 3.5169 23.335 3.99996 23.335Z" fill="#000000" class="bmwfcol"/><title>battery_cell_warning_lt_48</title></svg>