<svg width="48" height="48" viewBox="0 0 32 32" xmlns="http://www.w3.org/2000/svg"><path d="M6.66502 20.665V11.335H5.33502V20.665H6.66502Z" fill="#000000" class="bmwfcol"/><path d="M3.99996 24.665H26C26.7569 24.665 27.4401 24.4303 27.9352 23.9353C28.4303 23.4402 28.665 22.757 28.665 22V19.5072C28.9483 19.4263 29.2007 19.3458 29.4151 19.2552C29.7619 19.1086 30.082 18.9069 30.3069 18.5625C30.5215 18.2336 30.5967 17.8527 30.6311 17.4647C30.665 17.0833 30.665 16.6046 30.665 16.0305V15.9696C30.665 15.3954 30.665 14.9168 30.6311 14.5353C30.5967 14.1473 30.5215 13.7664 30.3069 13.4375C30.0821 13.0931 29.7619 12.8913 29.4151 12.7448C29.2007 12.6542 28.9483 12.5737 28.665 12.4928V10C28.665 9.2431 28.4303 8.55989 27.9352 8.06482C27.4401 7.56974 26.7569 7.33504 26 7.33504H3.99996C3.24302 7.33504 2.55981 7.56974 2.06473 8.06481C1.56966 8.55988 1.33496 9.2431 1.33496 10V22C1.33496 22.757 1.56966 23.4402 2.06474 23.9353C2.55981 24.4303 3.24302 24.665 3.99996 24.665ZM26 23.335L3.99996 23.335C3.5169 23.335 3.20012 23.1897 3.00519 22.9948C2.81026 22.7999 2.66496 22.4831 2.66496 22L2.66496 10C2.66496 9.51698 2.81026 9.20019 3.00519 9.00526C3.20012 8.81034 3.5169 8.66504 3.99996 8.66504L26 8.66504C26.483 8.66504 26.7998 8.81034 26.9947 9.00527C27.1897 9.2002 27.335 9.51698 27.335 10V13.5103L27.8278 13.6423C28.3397 13.7795 28.6668 13.8724 28.8973 13.9699C29.1131 14.061 29.1679 14.1258 29.1931 14.1644C29.2284 14.2186 29.2783 14.3371 29.3064 14.6529C29.3344 14.9685 29.335 15.3877 29.335 16C29.335 16.6123 29.3344 17.0315 29.3064 17.3471C29.2783 17.6629 29.2284 17.7814 29.1931 17.8355C29.1679 17.8741 29.1131 17.9389 28.8973 18.0301C28.6668 18.1275 28.3397 18.2205 27.8278 18.3576L27.335 18.4897L27.335 22C27.335 22.4831 27.1897 22.7999 26.9947 22.9948C26.7998 23.1897 26.483 23.335 26 23.335Z" fill="#000000" class="bmwfcol"/><title>battery_cell_5_lt_48</title></svg>