<svg width="48" height="48" viewBox="0 0 32 32" xmlns="http://www.w3.org/2000/svg"><path d="M3.99996 24.665H26C26.7569 24.665 27.4401 24.4303 27.9352 23.9352C28.4303 23.4401 28.665 22.7569 28.665 22V19.5071C28.9483 19.4262 29.2007 19.3457 29.4151 19.2551C29.7619 19.1086 30.082 18.9068 30.3069 18.5624C30.5215 18.2335 30.5967 17.8526 30.6311 17.4647C30.665 17.0832 30.665 16.6045 30.665 16.0304V15.9695C30.665 15.3954 30.665 14.9167 30.6311 14.5352C30.5967 14.1473 30.5215 13.7663 30.3069 13.4374C30.0821 13.093 29.7619 12.8913 29.4151 12.7447C29.2007 12.6541 28.9483 12.5736 28.665 12.4927V9.99997C28.665 9.24303 28.4303 8.55981 27.9352 8.06474C27.4401 7.56967 26.7569 7.33496 26 7.33496H3.99996C3.24302 7.33496 2.55981 7.56967 2.06473 8.06474C1.56966 8.55981 1.33496 9.24302 1.33496 9.99996V22C1.33496 22.7569 1.56966 23.4401 2.06474 23.9352C2.55981 24.4303 3.24302 24.665 3.99996 24.665ZM26 23.335L3.99996 23.335C3.5169 23.335 3.20012 23.1897 3.00519 22.9947C2.81026 22.7998 2.66496 22.483 2.66496 22L2.66496 9.99996C2.66496 9.5169 2.81026 9.20012 3.00519 9.00519C3.20012 8.81026 3.5169 8.66496 3.99996 8.66496L26 8.66496C26.483 8.66496 26.7998 8.81026 26.9947 9.00519C27.1897 9.20012 27.335 9.5169 27.335 9.99997V13.5102L27.8278 13.6422C28.3397 13.7794 28.6668 13.8723 28.8973 13.9698C29.1131 14.061 29.1679 14.1257 29.1931 14.1644C29.2284 14.2185 29.2783 14.337 29.3064 14.6529C29.3344 14.9684 29.335 15.3876 29.335 16C29.335 16.6123 29.3344 17.0314 29.3064 17.347C29.2783 17.6628 29.2284 17.7813 29.1931 17.8355C29.1679 17.8741 29.1131 17.9388 28.8973 18.03C28.6668 18.1275 28.3397 18.2204 27.8278 18.3576L27.335 18.4896L27.335 22C27.335 22.483 27.1897 22.7998 26.9947 22.9947C26.7998 23.1897 26.483 23.335 26 23.335Z" fill="#000000" class="bmwfcol"/><path d="M13.335 11.5V15.665L15.335 15.665V17.835H14.2255L16 20.7925L17.7746 17.835H16.665V14.335L14.665 14.335V11.5H13.335Z" fill="#000000" class="bmwfcol"/><title>battery_cell_loading_lt_48</title></svg>