<svg width="48" height="48" viewBox="0 0 32 32" xmlns="http://www.w3.org/2000/svg"><path d="M14.7204 20.665H29.665V6.33502H25.665V4.33502H20.335V6.33502H15.665V4.33502H10.335V6.33502H6.33496V11.0005C6.77407 10.9099 7.22136 10.8593 7.66496 10.7962V7.66502H11.665V5.66502H14.335V7.66502H21.665V5.66502H24.335V7.66502H28.335V19.335H15.061C14.9861 19.7962 14.8719 20.2409 14.7204 20.665Z" fill="#000000" class="bmwfcol"/><path d="M13.8541 13.665H15.999V12.335H12.5857C13.0663 12.7209 13.4955 13.1629 13.8541 13.665Z" fill="#000000" class="bmwfcol"/><path d="M22.335 16V13.665H19.999V12.335H22.335V10H23.665V12.335H25.999V13.665H23.665V16H22.335Z" fill="#000000" class="bmwfcol"/><path d="M10.6659 23.0985V28H9.33594V22.1963C11.2113 21.4968 12.3359 20.071 12.3359 17.9996C12.3359 16.8816 12.0295 15.9522 11.5034 15.2472L10.7116 18.2023C10.5166 18.932 10.113 19.4664 9.44912 19.6835C8.86175 19.8757 8.19603 19.7702 7.57688 19.6042C6.95779 19.4383 6.32797 19.1967 5.91505 18.7367C5.44818 18.2167 5.3656 17.5519 5.56331 16.8223L6.3393 13.9263C5.63876 14.167 5.06344 14.5644 4.63021 15.0805C4.02742 15.7985 3.66594 16.7868 3.66594 17.9996C3.66594 20.071 4.79055 21.4968 6.66594 22.1963V28H5.33594V23.0985C3.45188 22.2064 2.33594 20.3404 2.33594 17.9996C2.33594 16.5173 2.78151 15.2141 3.61157 14.2253C4.58009 13.0717 5.9292 12.5579 7.38033 12.3516L7.96118 13.0121L6.84746 17.1685C6.78796 17.3876 6.73814 17.6627 6.90472 17.8482C7.04253 18.0017 7.34165 18.1643 7.92116 18.3196C8.50059 18.4749 8.84006 18.4834 9.03567 18.4194C9.15476 18.3805 9.31189 18.2886 9.42668 17.859L10.5692 13.595L11.407 13.3131C12.8764 14.493 13.6659 16.0943 13.6659 17.9996C13.6659 20.3404 12.55 22.2064 10.6659 23.0985Z" fill="#000000" class="bmwfcol"/><title>battery-service_lt_48</title></svg>