<svg width="48" height="48" viewBox="0 0 32 32" xmlns="http://www.w3.org/2000/svg"><path d="M28.665 9.00001V25C28.665 25.447 28.5253 25.8802 28.2027 26.2027C27.8801 26.5253 27.4469 26.665 27 26.665L19 26.665C18.553 26.665 18.1198 26.5253 17.7972 26.2027C17.4747 25.8802 17.335 25.447 17.335 25L17.335 9.00001C17.335 8.55307 17.4747 8.11986 17.7972 7.79729C18.1198 7.47471 18.553 7.33501 19 7.33501H19.9911C20.0682 7.05775 20.1414 6.81387 20.219 6.60851C20.3412 6.28549 20.5063 5.9657 20.8009 5.73038C21.1 5.49149 21.4471 5.40735 21.7852 5.3702C22.1062 5.33492 22.5049 5.33494 22.9646 5.33496L23.0353 5.33496C23.495 5.33494 23.8937 5.33492 24.2148 5.3702C24.5528 5.40735 24.8999 5.49149 25.199 5.73038C25.4936 5.9657 25.6587 6.28549 25.7809 6.60851C25.8586 6.81387 25.9318 7.05775 26.0088 7.33501H27C27.4469 7.33501 27.8801 7.47472 28.2027 7.79729C28.5253 8.11986 28.665 8.55307 28.665 9.00001ZM27.335 25V9.00001C27.335 8.82695 27.2847 8.76017 27.2622 8.73774C27.2398 8.71531 27.173 8.66501 27 8.66501L24.9897 8.66501L24.8576 8.17213C24.7201 7.65896 24.6287 7.32188 24.5369 7.07899C24.4463 6.8395 24.3874 6.78428 24.369 6.76958C24.3551 6.75847 24.3002 6.71759 24.0695 6.69224C23.8299 6.66591 23.5053 6.66496 23 6.66496C22.4946 6.66496 22.17 6.66591 21.9305 6.69224C21.6998 6.71759 21.6449 6.75847 21.6309 6.76958C21.6125 6.78428 21.5536 6.8395 21.4631 7.07899C21.3712 7.32188 21.2798 7.65896 21.1423 8.17213L21.0102 8.66501L19 8.66501C18.8269 8.66501 18.7601 8.71531 18.7377 8.73774C18.7153 8.76017 18.665 8.82695 18.665 9.00001L18.665 25C18.665 25.1731 18.7153 25.2399 18.7377 25.2623C18.7601 25.2847 18.8269 25.335 19 25.335L27 25.335C27.173 25.335 27.2398 25.2847 27.2622 25.2623C27.2847 25.2399 27.335 25.1731 27.335 25Z" fill="#000000" class="bmwfcol"/><path d="M14.665 13V25C14.665 25.447 14.5253 25.8802 14.2027 26.2027C13.8801 26.5253 13.4469 26.665 13 26.665L4.99996 26.665C4.55302 26.665 4.11981 26.5253 3.79723 26.2027C3.47466 25.8802 3.33496 25.447 3.33496 25L3.33496 13C3.33496 12.5531 3.47466 12.1199 3.79724 11.7973C4.11981 11.4747 4.55302 11.335 4.99996 11.335L5.99114 11.335C6.06816 11.0578 6.14137 10.8139 6.21904 10.6085C6.3412 10.2855 6.50629 9.96568 6.80089 9.73036C7.09998 9.49145 7.44708 9.40731 7.78516 9.37015C8.10622 9.33486 8.50496 9.33488 8.96477 9.3349H9.03516C9.49497 9.33488 9.89371 9.33486 10.2148 9.37015C10.5528 9.40731 10.8999 9.49145 11.199 9.73036C11.4936 9.96568 11.6587 10.2855 11.7809 10.6085C11.8586 10.8139 11.9318 11.0578 12.0088 11.335H13C13.4469 11.335 13.8801 11.4747 14.2027 11.7973C14.5253 12.1199 14.665 12.5531 14.665 13ZM13.335 25V13C13.335 12.8269 13.2847 12.7602 13.2622 12.7377C13.2398 12.7153 13.173 12.665 13 12.665H10.9897L10.8576 12.1721C10.7201 11.659 10.6287 11.3219 10.5369 11.079C10.4463 10.8395 10.3874 10.7842 10.369 10.7695C10.355 10.7584 10.3001 10.7175 10.0694 10.6922C9.82989 10.6659 9.50529 10.6649 8.99996 10.6649C8.49464 10.6649 8.17003 10.6659 7.93048 10.6922C7.6998 10.7175 7.64488 10.7584 7.63096 10.7695C7.61255 10.7842 7.55363 10.8395 7.46305 11.079C7.37119 11.3219 7.2798 11.659 7.1423 12.1721L7.01023 12.665L4.99996 12.665C4.8269 12.665 4.76012 12.7153 4.73769 12.7377C4.71526 12.7602 4.66496 12.8269 4.66496 13L4.66496 25C4.66496 25.1731 4.71526 25.2399 4.73769 25.2623C4.76012 25.2847 4.8269 25.335 4.99996 25.335L13 25.335C13.173 25.335 13.2398 25.2847 13.2622 25.2623C13.2847 25.2399 13.335 25.1731 13.335 25Z" fill="#000000" class="bmwfcol"/><path d="M21.335 12.5V16.665L23.335 16.665V18.835H22.2255L24 21.7925L25.7746 18.835H24.665V15.335L22.665 15.335V12.5H21.335Z" fill="#000000" class="bmwfcol"/><title>battery_cell_sizes_lt_48</title></svg>