<svg width="48" height="48" viewBox="0 0 32 32" xmlns="http://www.w3.org/2000/svg"><path d="M14.6641 3.5C14.6641 3.56633 14.6653 3.57708 14.6668 3.58599C14.6672 3.58855 14.6696 3.60399 14.6877 3.6401C14.7067 3.67822 14.74 3.73339 14.7982 3.81069C14.9742 3.68978 15.1798 3.56207 15.4187 3.42412L15.573 3.33502L16.4252 3.33502L16.5795 3.42412C16.8184 3.56208 17.024 3.6898 17.2001 3.81072C17.2583 3.7334 17.2916 3.67822 17.3106 3.6401C17.3287 3.60398 17.331 3.58878 17.3314 3.58622C17.3329 3.57732 17.3342 3.56633 17.3342 3.5V2H18.6642V3.5C18.6642 3.65896 18.6634 3.90844 18.5002 4.2349C18.4112 4.41292 18.2805 4.60145 18.0986 4.81409C18.1042 4.83121 18.1094 4.84843 18.1142 4.86577C18.1534 5.00771 18.1597 5.14107 18.1623 5.19775L18.1631 5.21294C18.1661 5.26699 18.1657 5.5873 18.1653 5.84654L18.1633 6.65808L17.9885 6.84812C17.9396 6.90129 17.8886 6.95194 17.8357 7.00003C17.8641 7.02588 17.892 7.05245 17.9193 7.07977L21.4881 10.6486C21.9359 11.0963 22.1642 11.7114 22.1642 12.3875C22.1642 13.0637 21.9359 13.6788 21.4881 14.1265C21.0404 14.5743 20.4253 14.8025 19.7492 14.8025C19.1486 14.8025 18.5963 14.6225 18.1665 14.2685C18.1157 14.364 18.061 14.4559 18.0024 14.5439C17.5474 15.2264 16.8525 15.665 15.9991 15.665C15.1457 15.665 14.4508 15.2264 13.9958 14.5439C13.9372 14.4559 13.8825 14.3641 13.8317 14.2685C13.402 14.6225 12.8496 14.8025 12.2491 14.8025C11.573 14.8025 10.9579 14.5743 10.5101 14.1265C10.0624 13.6788 9.83411 13.0637 9.83411 12.3875C9.83411 11.7114 10.0624 11.0963 10.5101 10.6486L14.0789 7.07977C14.1062 7.05246 14.1341 7.02589 14.1626 7.00006C14.1096 6.95195 14.0586 6.9013 14.0097 6.84812L13.8349 6.65808L13.8329 5.84654C13.8325 5.5873 13.8321 5.26699 13.8351 5.21294L13.8359 5.19775C13.8385 5.14107 13.8448 5.00771 13.884 4.86577C13.8888 4.84842 13.894 4.83118 13.8996 4.81404C13.7177 4.60143 13.5871 4.41291 13.4981 4.2349C13.3348 3.90844 13.3341 3.65896 13.3341 3.5V2H14.6641V3.5ZM15.1634 6.10043C15.3673 6.24321 15.6437 6.33502 15.9991 6.33502C16.3545 6.33502 16.6309 6.24321 16.8348 6.10043L16.8353 5.84462C16.8355 5.70492 16.8356 5.56398 16.8355 5.45461C16.8354 5.39408 16.8352 5.35094 16.8351 5.32346C16.8349 5.29454 16.8349 5.28297 16.8351 5.28671C16.8335 5.25759 16.8323 5.23928 16.8316 5.22819C16.8293 5.2251 16.8264 5.22139 16.8228 5.21704C16.7556 5.13508 16.5672 4.96465 16.0662 4.66502L15.932 4.66502C15.4311 4.96465 15.2426 5.13508 15.1754 5.21704C15.1719 5.22139 15.169 5.2251 15.1666 5.22819C15.1659 5.23933 15.1647 5.25775 15.1631 5.28711C15.1633 5.28228 15.1633 5.29357 15.1632 5.32317C15.163 5.35064 15.1628 5.39408 15.1627 5.45461C15.1626 5.56398 15.1627 5.70492 15.1629 5.84462L15.1634 6.10043ZM14.6642 9.00002L14.6642 9.83502H17.3341V9.00002C17.3341 8.55113 17.1874 8.22874 16.9789 8.02024C16.7704 7.81174 16.448 7.66502 15.9992 7.66502C15.5503 7.66502 15.2279 7.81174 15.0194 8.02024C14.811 8.22874 14.6642 8.55113 14.6642 9.00002ZM18.9506 13.1861C19.1154 13.3508 19.3753 13.4725 19.7492 13.4725C20.123 13.4725 20.3829 13.3508 20.5477 13.1861C20.7124 13.0213 20.8342 12.7614 20.8342 12.3875C20.8342 12.0137 20.7124 11.7538 20.5477 11.589L18.6641 9.70545L18.6642 12.3875C18.6642 12.7614 18.7859 13.0213 18.9506 13.1861ZM14.6641 11.165L14.6641 12C14.6641 12.8114 14.8458 13.4212 15.1024 13.8061C15.3474 14.1736 15.6526 14.335 15.9991 14.335C16.3456 14.335 16.6508 14.1736 16.8958 13.8061C17.1524 13.4212 17.3341 12.8114 17.3341 12V11.165H14.6641ZM13.3341 12.3875L13.3342 9.7054L11.4506 11.589C11.2858 11.7538 11.1641 12.0137 11.1641 12.3875C11.1641 12.7614 11.2858 13.0213 11.4506 13.1861C11.6153 13.3508 11.8752 13.4725 12.2491 13.4725C12.623 13.4725 12.8829 13.3508 13.0476 13.1861C13.2124 13.0213 13.3341 12.7614 13.3341 12.3875Z" fill="#000000" class="bmwfcol"/><path d="M29.4695 15.5297C29.1811 15.2414 28.7909 14.9207 28.2492 14.7166C27.7029 14.5108 27.0488 14.441 26.2571 14.5825C24.8316 14.8372 22.9331 15.7816 20.2858 17.9045C20.257 17.8702 20.2265 17.8369 20.1943 17.8047C19.8778 17.4883 19.4502 17.335 18.999 17.335L14.0869 17.335L10.3548 16.335L10.2045 16.335C9.61853 16.3345 9.13013 16.3342 8.56046 16.6828C8.29691 16.8441 8.02999 17.0693 7.72115 17.3578C7.41179 17.6468 7.03025 18.0283 6.5381 18.5205L2.05859 23L7.72359 28.665H9.2745L11.2745 26.665H15.0186C16.002 26.665 16.7665 26.665 17.3778 26.6328C17.995 26.6003 18.5014 26.5336 18.9594 26.3809C19.8601 26.0807 20.4661 25.4743 21.3795 24.5603L29.9398 15.9999L29.4695 15.5297ZM19.254 18.7453C19.2875 18.7788 19.3342 18.8512 19.3343 18.9998L19.3341 19.7211C18.4736 20.5508 17.8588 20.9291 17.2889 21.1191C16.6598 21.3288 16.0229 21.335 14.9993 21.335H10.999V22.665L15.0589 22.665C16.0109 22.6651 16.8565 22.6652 17.7095 22.3809C18.5973 22.0849 19.4334 21.5061 20.4693 20.4702L20.664 20.2755L20.6642 19.3116C23.5029 16.9648 25.3238 16.1003 26.4911 15.8917C27.0744 15.7875 27.4829 15.8492 27.7803 15.9612C27.857 15.9901 27.9294 16.0235 27.9981 16.0607L20.5291 23.5298C19.4934 24.5654 19.109 24.9291 18.5389 25.1191C18.2469 25.2164 17.8782 25.2747 17.3079 25.3047C16.7357 25.3348 16.0062 25.335 14.999 25.335H10.7236L8.72359 27.335H8.2745L3.9395 23L7.46927 19.4702C7.97264 18.9669 8.33824 18.6014 8.62907 18.3297C8.92237 18.0557 9.10971 17.9059 9.25469 17.8172C9.47138 17.6846 9.6009 17.6665 10.1801 17.6651L13.9118 18.665L18.999 18.665C19.1479 18.665 19.2204 18.7117 19.254 18.7453Z" fill="#000000" class="bmwfcol"/><title>bee_on_hand_lt_48</title></svg>