<svg width="48" height="48" viewBox="0 0 32 32" xmlns="http://www.w3.org/2000/svg"><path d="M19.666 4C19.666 4.28396 19.6653 4.65844 19.4083 5.1724C19.2267 5.53556 18.9266 5.95174 18.4472 6.47473C18.7742 6.72675 19.0148 6.95431 19.1908 7.16882C19.3973 7.42056 19.522 7.66247 19.5901 7.90865C19.6474 8.11599 19.6571 8.30933 19.663 8.42696L19.6649 8.46288C19.6695 8.54601 19.6691 8.90072 19.6683 9.1928C19.6679 9.34812 19.6673 9.49972 19.6668 9.61243L19.6645 10.0566L19.4903 10.2459C19.2183 10.5416 18.9071 10.7938 18.5629 11C18.8577 11.1765 19.1284 11.387 19.3712 11.6297C19.3791 11.6377 19.3871 11.6457 19.395 11.6537L26.5087 18.7675C27.2627 19.5215 27.666 20.5741 27.666 21.7752C27.666 22.9763 27.2627 24.0289 26.5087 24.7829C25.7547 25.5369 24.7021 25.9402 23.501 25.9402C22.2999 25.9402 21.2473 25.5369 20.4933 24.7829C20.3614 24.6511 20.2403 24.5102 20.1302 24.3609C19.9492 24.8601 19.7233 25.3153 19.4543 25.7188C18.6492 26.9264 17.4544 27.665 16.0009 27.665C14.5475 27.665 13.3526 26.9264 12.5476 25.7188C12.2786 25.3153 12.0527 24.8601 11.8717 24.3609C11.7616 24.5102 11.6405 24.6511 11.5087 24.7829C10.7547 25.5369 9.70206 25.9402 8.50094 25.9402C7.29982 25.9402 6.24721 25.5369 5.49321 24.7829C4.73921 24.0289 4.33594 22.9763 4.33594 21.7752C4.33594 20.5741 4.73921 19.5215 5.49321 18.7675L12.604 11.6567L12.6307 11.6297C12.8735 11.387 13.1442 11.1766 13.4389 11C13.0947 10.7938 12.7835 10.5416 12.5115 10.2459L12.3373 10.0566L12.335 9.61243C12.3345 9.49972 12.3339 9.34812 12.3335 9.1928C12.3327 8.90072 12.3323 8.54601 12.3369 8.46288L12.3388 8.42697C12.3447 8.30935 12.3544 8.116 12.4117 7.90865C12.4798 7.66247 12.6045 7.42056 12.811 7.16882C12.987 6.95429 13.2277 6.72672 13.5547 6.47467C13.0753 5.95171 12.7752 5.53555 12.5936 5.1724C12.3367 4.65844 12.3359 4.28396 12.3359 4V3H13.6659V4.00394C13.6659 4.21757 13.6659 4.343 13.7832 4.5776C13.902 4.8151 14.148 5.16915 14.6708 5.72153C14.8275 5.6259 14.9946 5.52685 15.1726 5.42405L15.3269 5.33496L16.6748 5.33496L16.8292 5.42405C17.0072 5.52687 17.1743 5.62593 17.331 5.72159C17.8539 5.16917 18.0999 4.81511 18.2187 4.5776C18.336 4.343 18.336 4.21757 18.336 4.00394V3H19.666V4ZM20.666 21.7752C20.666 22.6741 20.9627 23.3715 21.4337 23.8425C21.9047 24.3135 22.6021 24.6102 23.501 24.6102C24.3999 24.6102 25.0973 24.3135 25.5683 23.8425C26.0393 23.3715 26.336 22.6741 26.336 21.7752C26.336 20.8763 26.0393 20.1789 25.5683 19.7079L20.6627 14.8023C20.6648 14.8678 20.6659 14.9337 20.6659 15L20.666 21.7752ZM18.4307 12.5703C18.4306 12.5703 18.4307 12.5704 18.4307 12.5703C17.8722 12.0118 17.0498 11.665 16.0009 11.665C14.9521 11.665 14.1298 12.0118 13.5713 12.5703L13.5493 12.5923C13.0036 13.1503 12.6659 13.9648 12.6659 15V15.335H19.3359V15C19.3359 13.9634 18.9973 13.148 18.4502 12.5899L18.4307 12.5703ZM19.3359 16.665H12.6659V20.335H19.3359V16.665ZM11.3359 15C11.3359 14.9337 11.337 14.8678 11.3392 14.8024L6.43366 19.7079C5.96266 20.1789 5.66594 20.8763 5.66594 21.7752C5.66594 22.6741 5.96266 23.3715 6.43366 23.8425C6.90467 24.3135 7.60206 24.6102 8.50094 24.6102C9.39982 24.6102 10.0972 24.3135 10.5682 23.8425C11.0392 23.3715 11.3359 22.6741 11.3359 21.7752V15ZM16.0009 10.335C16.9916 10.335 17.7809 10.0258 18.3372 9.51893L18.3383 9.18935C18.3387 9.03495 18.3389 8.87788 18.3386 8.75265C18.3385 8.68991 18.3382 8.63631 18.3378 8.5955C18.3375 8.56386 18.3371 8.54653 18.3369 8.53976L18.3369 8.538C18.3369 8.53715 18.3369 8.53667 18.3369 8.53654L18.3361 8.52281C18.328 8.37622 18.3251 8.32426 18.3081 8.26306C18.2951 8.21601 18.2652 8.13761 18.1624 8.01227C17.9438 7.74569 17.4499 7.32966 16.3172 6.66496L15.6846 6.66496C14.5519 7.32966 14.058 7.74569 13.8394 8.01227C13.7366 8.13762 13.7067 8.21601 13.6936 8.26307C13.6767 8.32426 13.6738 8.37625 13.6657 8.52281L13.6649 8.53657C13.6649 8.5362 13.6649 8.53732 13.6648 8.53997C13.6647 8.54673 13.6643 8.56385 13.664 8.59551C13.6636 8.63631 13.6633 8.68992 13.6632 8.75265C13.6629 8.87788 13.6631 9.03495 13.6635 9.18935L13.6646 9.51893C14.2209 10.0258 15.0101 10.335 16.0009 10.335ZM12.6859 21.665C12.7716 23.0656 13.1284 24.1923 13.6543 24.9811C14.2492 25.8736 15.0544 26.335 16.0009 26.335C16.9475 26.335 17.7526 25.8736 18.3476 24.9811C18.8735 24.1923 19.2303 23.0656 19.316 21.665H12.6859Z" fill="#000000" class="bmwfcol"/><title>bee_lt_48</title></svg>