<svg width="48" height="48" viewBox="0 0 32 32" xmlns="http://www.w3.org/2000/svg"><path d="M16 4.33496C13.1177 4.33496 10.6199 5.13132 8.89125 7.62065C7.22485 10.0203 6.35219 13.8905 6.33521 19.8229L4.33496 23.3234V24.665H11.3436C11.3378 24.7753 11.335 24.8869 11.335 24.9999C11.335 26.3736 11.7632 27.5561 12.6035 28.3964C13.4438 29.2366 14.6262 29.6649 16 29.6649C17.3737 29.6649 18.5562 29.2366 19.3964 28.3964C20.2367 27.5561 20.665 26.3736 20.665 24.9999C20.665 24.8869 20.6621 24.7753 20.6563 24.665H27.665V23.3234L25.6647 19.8229C25.6477 13.8905 24.7751 10.0203 23.1087 7.62065C21.38 5.13132 18.8822 4.33496 16 4.33496ZM7.66496 20.1766C7.66496 14.2092 8.54159 10.4559 9.98367 8.37927C11.38 6.3686 13.3822 5.66496 16 5.66496C18.6177 5.66496 20.6199 6.3686 22.0163 8.37927C23.4583 10.4559 24.335 14.2092 24.335 20.1766L26.1398 23.335H5.86016L7.66496 20.1766ZM19.324 24.665C19.3313 24.7736 19.335 24.8852 19.335 24.9999C19.335 26.0962 18.9982 26.9137 18.456 27.4559C17.9138 27.9982 17.0962 28.3349 16 28.3349C14.9037 28.3349 14.0862 27.9982 13.5439 27.4559C13.0017 26.9137 12.665 26.0962 12.665 24.9999C12.665 24.8852 12.6687 24.7736 12.6759 24.665H19.324Z" fill="#000000" class="bmwfcol"/><title>bell_lt_48</title></svg>