<svg width="48" height="48" viewBox="0 0 32 32" xmlns="http://www.w3.org/2000/svg"><path d="M18.749 2.33502C16.8714 2.33502 15.3478 3.85019 15.334 5.7245L9.33398 11.7245V12.7755L9.52876 12.9703L9.57507 13.0168C9.77807 13.2212 10.01 13.4547 10.3512 13.5685C10.528 13.6274 10.7062 13.6473 10.8781 13.6564C11.0442 13.6651 11.2465 13.6651 11.4821 13.6651H14.249C14.8624 13.6651 15.4594 13.5953 16.0327 13.4633L16.1845 14.0299L14.999 14.3476V15.7245L16.999 15.1886L19.4991 15.8585V14.4816L17.542 13.9572L17.3003 13.0555C20.1178 11.8773 22.109 9.11671 22.1629 5.88466L23.664 5.01798V3.33503H21.1635C20.5462 2.71793 19.692 2.33502 18.749 2.33502ZM16.6639 5.75004C16.6639 4.59852 17.5974 3.66502 18.749 3.66502C19.3962 3.66502 19.9742 3.95914 20.3576 4.42349L20.5571 4.66503H21.6153L20.7888 5.14223L20.8259 5.56442C20.8312 5.62543 20.834 5.68733 20.834 5.75004C20.834 9.38687 17.8858 12.3351 14.249 12.3351H11.499C11.2419 12.3351 11.0749 12.3349 10.948 12.3282C10.823 12.3216 10.7825 12.3103 10.7718 12.3067L10.7704 12.3064C10.7656 12.3053 10.7554 12.303 10.693 12.2464L16.6639 6.27549V5.75004Z" fill="#000000" class="bmwfcol"/><path d="M29.4695 15.5297C29.1811 15.2414 28.7909 14.9207 28.2492 14.7166C27.7029 14.5108 27.0488 14.441 26.2571 14.5825C24.8316 14.8372 22.9331 15.7816 20.2858 17.9045C20.257 17.8702 20.2265 17.8369 20.1943 17.8047C19.8778 17.4883 19.4502 17.335 18.999 17.335L14.0869 17.335L10.3548 16.335L10.2045 16.335C9.61853 16.3345 9.13013 16.3342 8.56046 16.6828C8.29691 16.8441 8.02999 17.0693 7.72115 17.3578C7.41179 17.6468 7.03025 18.0283 6.5381 18.5205L2.05859 23L7.72359 28.665H9.2745L11.2745 26.665H15.0186C16.002 26.665 16.7665 26.665 17.3778 26.6328C17.995 26.6003 18.5014 26.5336 18.9594 26.3809C19.8601 26.0807 20.4661 25.4743 21.3795 24.5603L29.9398 15.9999L29.4695 15.5297ZM19.254 18.7453C19.2875 18.7788 19.3342 18.8512 19.3343 18.9998L19.3341 19.7211C18.4736 20.5508 17.8588 20.9291 17.2889 21.1191C16.6598 21.3288 16.0229 21.335 14.9993 21.335H10.999V22.665L15.0589 22.665C16.0109 22.6651 16.8565 22.6652 17.7095 22.3809C18.5973 22.0849 19.4334 21.5061 20.4693 20.4702L20.664 20.2755L20.6642 19.3116C23.5029 16.9648 25.3238 16.1003 26.4911 15.8917C27.0744 15.7875 27.4829 15.8492 27.7803 15.9612C27.857 15.9901 27.9294 16.0235 27.9981 16.0607L20.5291 23.5298C19.4934 24.5654 19.109 24.9291 18.5389 25.1191C18.2469 25.2164 17.8782 25.2747 17.3079 25.3047C16.7357 25.3348 16.0062 25.335 14.999 25.335H10.7236L8.72359 27.335H8.2745L3.9395 23L7.46927 19.4702C7.97264 18.9669 8.33824 18.6014 8.62907 18.3297C8.92237 18.0557 9.10971 17.9059 9.25469 17.8172C9.47138 17.6846 9.6009 17.6665 10.1801 17.6651L13.9118 18.665L18.999 18.665C19.1479 18.665 19.2204 18.7117 19.254 18.7453Z" fill="#000000" class="bmwfcol"/><title>bird_on_hand_lt_48</title></svg>