<svg width="48" height="48" viewBox="0 0 32 32" xmlns="http://www.w3.org/2000/svg"><path d="M12.2617 10.3789C13.3911 9.53086 14.6763 9.14272 15.9639 9.25488C17.2497 9.36717 18.4872 9.97455 19.5352 11.0225C21.1897 12.6773 21.7183 14.7846 21.0176 16.7471L27.8486 23.5781C28.3796 24.1091 28.6786 24.768 28.6787 25.4629C28.6786 26.1577 28.3795 26.8157 27.8486 27.3467C27.3175 27.8778 26.659 28.1777 25.9639 28.1777C25.2689 28.1776 24.6101 27.8777 24.0791 27.3467L17.249 20.5166C15.2864 21.2175 13.1783 20.6888 11.5234 19.0342C10.2062 17.7168 9.59074 16.1025 9.76758 14.4834L9.80664 14.123L10.1318 13.96L10.2793 13.8877L10.5986 13.7295L14.4209 15.9355L14.4219 15.9365C14.8059 16.1585 14.982 16.1132 15.0938 16.0566C15.2543 15.9752 15.454 15.7762 15.7021 15.3799L15.8115 15.1973C16.1113 14.678 16.2083 14.3514 16.1973 14.1455C16.1905 14.0206 16.1422 13.8453 15.7578 13.625L15.7568 13.624L12.3389 11.6514L12.0303 11.4727L12.0078 11.1182L11.9971 10.9531L11.9746 10.5947L12.2617 10.3789ZM15.8486 10.5791C15.1781 10.5207 14.491 10.6482 13.8262 10.9727L16.4189 12.4707L16.6533 12.6191C17.1721 12.9817 17.4922 13.4628 17.5254 14.0732C17.5586 14.6904 17.2843 15.3082 16.9639 15.8633L16.8389 16.0703C16.5409 16.5501 16.1773 16.9978 15.6953 17.2422C15.0726 17.5578 14.4094 17.4666 13.7559 17.0889L11.1074 15.5586C11.2341 16.4287 11.6739 17.3026 12.4639 18.0928C13.8947 19.5234 15.6117 19.8255 17.1328 19.1309L17.5527 18.9395L25.0195 26.4062C25.3368 26.7235 25.6691 26.8476 25.9639 26.8477C26.2587 26.8477 26.5908 26.7237 26.9082 26.4062C27.2252 26.0891 27.3495 25.7576 27.3496 25.4629C27.3495 25.1682 27.2254 24.8358 26.9082 24.5186L19.4404 17.0508L19.6328 16.6318C20.3273 15.1109 20.0251 13.3936 18.5947 11.9629C17.7373 11.1056 16.7824 10.6606 15.8486 10.5791Z" fill="#000000" class="bmwfcol"/><path d="M8.16211 17.335C8.30958 17.7989 8.49917 18.2439 8.72754 18.665H5.66602V26.335H13.3359V22.3887C13.7651 22.5142 14.2093 22.6041 14.666 22.6533V27.665H4.33594V17.335H8.16211Z" fill="#000000" class="bmwfcol"/><path d="M29.5791 6.85938L26.9053 16.8369L23.1553 15.832C23.1846 15.5587 23.2012 15.2812 23.2012 15C23.2012 14.8187 23.192 14.6391 23.1797 14.4609L25.9648 15.208L27.9502 7.7998L20.542 5.81445L19.793 8.60742C19.4154 8.35341 19.0138 8.1331 18.5928 7.94824L19.6016 4.18555L29.5791 6.85938Z" fill="#000000" class="bmwfcol"/><path d="M14.666 7.3457C14.2094 7.39494 13.7651 7.48483 13.3359 7.61035V5.66504H5.66602V13.335H7.9834C7.88835 13.766 7.82806 14.2102 7.80859 14.665H4.33594V4.33496H14.666V7.3457Z" fill="#000000" class="bmwfcol"/><title>blocks_and_wrench_lt_48</title></svg>