<svg width="48" height="48" viewBox="0 0 32 32" xmlns="http://www.w3.org/2000/svg"><path d="M19.0008 2.37524C16.5816 2.57285 14.5176 3.49268 13.0055 5.00479C11.4934 6.51689 10.5736 8.58083 10.376 11H11.7109C11.9036 8.90642 12.7048 7.18637 13.946 5.94524C15.1871 4.7041 16.9072 3.90283 19.0008 3.71013V2.37524Z" fill="#000000" class="bmwfcol"/><path d="M28.2906 11C28.0979 8.90642 27.2966 7.18637 26.0555 5.94524C24.8144 4.70412 23.0943 3.90285 21.0008 3.71014V2.37525C23.4199 2.57287 25.4839 3.4927 26.996 5.00479C28.5081 6.51689 29.4279 8.58083 29.6255 11H28.2906Z" fill="#000000" class="bmwfcol"/><path d="M28.2906 13C28.1889 14.1058 27.9173 15.1074 27.5008 15.9893V18.4438C28.7129 16.9967 29.451 15.137 29.6255 13H28.2906Z" fill="#000000" class="bmwfcol"/><path d="M13.1579 20.085H10.2255L9.33594 20.9746V23.6933L10.5881 25.665H13.5264L14.0009 25.1905L14.4755 25.665H17.4587L18.6659 23.6869L18.6659 20.9746L17.7764 20.085H14.844L14.0009 20.5065L13.1579 20.085ZM10.6659 21.5255L10.7764 21.415H12.844L13.3359 21.661V23.9746L12.9755 24.335H11.319L10.6659 23.3067V21.5255ZM14.6659 23.9746V21.661L15.1579 21.415H17.2255L17.3359 21.5255L17.3359 23.3131L16.7123 24.335H15.0264L14.6659 23.9746Z" fill="#000000" class="bmwfcol"/><path d="M3.20468 19.1013C3.61107 18.6056 4.13736 18.0954 4.68786 17.5844C4.75819 17.5194 4.82768 17.4549 4.89787 17.3903C4.73183 17.2995 4.521 17.2407 4.19136 17.2061C3.77403 17.1623 3.24036 17.1632 2.45743 17.1645C2.31401 17.1648 2.16194 17.165 2.00098 17.165V15.835C2.15215 15.835 2.29806 15.8347 2.43887 15.8344C3.21433 15.8328 3.83603 15.8315 4.33017 15.8833C4.76899 15.9294 5.15302 16.0206 5.5057 16.2071C5.69539 15.8479 5.91522 15.4576 6.15432 15.0765C6.42884 14.6389 6.73747 14.1992 7.06389 13.8285C7.38088 13.4685 7.7591 13.1217 8.18278 12.9357C9.34058 12.4277 10.1504 12.3351 14.001 12.3351C17.8513 12.3351 18.6624 12.4276 19.8193 12.9358C20.2424 13.1224 20.6211 13.4695 20.9381 13.8295C21.2644 14.2003 21.573 14.6398 21.8475 15.0772C22.0866 15.4582 22.3064 15.8482 22.496 16.2072C22.8487 16.0206 23.2329 15.9294 23.6718 15.8833C24.1659 15.8315 24.7868 15.8328 25.5623 15.8344C25.7034 15.8347 25.8497 15.835 26.0011 15.835V17.165C25.8401 17.165 25.6883 17.1648 25.5448 17.1645C24.7618 17.1632 24.2279 17.1623 23.8105 17.2061C23.4807 17.2407 23.2699 17.2996 23.104 17.3903C23.7294 17.966 24.3394 18.5429 24.7972 19.1013C25.2574 19.6627 25.6659 20.3237 25.6659 21.0429V29.6651H20.3359V28.4629C16.0477 28.7458 11.9542 28.7458 7.66594 28.4629V29.6651H2.33594V21.0429C2.33594 20.3237 2.74443 19.6627 3.20468 19.1013ZM8.71732 14.1536C8.55786 14.2236 8.3336 14.3991 8.06206 14.7074C7.79991 15.0051 7.5339 15.3801 7.28098 15.7832C7.03938 16.1684 6.81767 16.5665 6.63055 16.9258C6.87757 16.9021 7.14862 16.8846 7.44592 16.8714C8.47722 16.8255 9.91677 16.8284 11.9244 16.8324C12.5582 16.8337 13.2487 16.8351 14.0009 16.8351C14.7535 16.8351 15.4442 16.8337 16.0781 16.8324C18.0855 16.8284 19.5236 16.8255 20.5543 16.8714C20.8522 16.8846 21.1238 16.9022 21.3712 16.9261C21.1841 16.5669 20.9625 16.1691 20.7209 15.7842C20.468 15.3811 20.202 15.0062 19.9397 14.7083C19.6684 14.4001 19.444 14.2241 19.284 14.1534C18.425 13.776 17.8999 13.6651 14.001 13.6651C10.1018 13.6651 9.5778 13.776 8.71732 14.1536ZM22.41 18.5599C22.3449 18.4999 22.2174 18.4192 21.9107 18.3492C21.5984 18.278 21.1527 18.2293 20.4951 18.2001C19.4981 18.1557 18.1052 18.1584 16.1115 18.1624C15.4729 18.1637 14.7695 18.1651 14.0009 18.1651C13.2311 18.1651 12.5299 18.1637 11.8904 18.1624C9.89626 18.1584 8.50275 18.1557 7.50504 18.2001C6.84701 18.2293 6.40085 18.278 6.08828 18.3493C5.82473 18.4093 5.69348 18.4774 5.62053 18.5334C5.06647 19.0472 4.58759 19.5123 4.23319 19.9445C4.12388 20.0779 4.03312 20.2002 3.95863 20.3125C5.10318 20.5936 6.30138 20.7371 8.00098 20.8576V22.1909C6.23536 22.0681 4.93313 21.9189 3.66594 21.61V28.3351H6.33594V27.0348L7.04929 27.0868C11.7727 27.4312 16.2292 27.4312 20.9526 27.0868L21.6659 27.0348V28.3351H24.3359V21.6099C23.0687 21.9189 21.7665 22.0681 20.001 22.1908V20.8575C21.7005 20.7371 22.8987 20.5935 24.0432 20.3124C23.9687 20.2002 23.878 20.0778 23.7687 19.9445C23.4203 19.5197 22.9519 19.0632 22.41 18.5599Z" fill="#000000" class="bmwfcol"/><title>bmw-efficient-dynamics-technologies_lt_48</title></svg>