<svg width="48" height="48" viewBox="0 0 32 32" xmlns="http://www.w3.org/2000/svg"><path d="M14 6C15.1046 6 16 5.10457 16 4C16 2.89543 15.1046 2 14 2C12.8954 2 12 2.89543 12 4C12 5.10457 12.8954 6 14 6ZM14 3.33C14.37 3.33 14.67 3.62997 14.67 4C14.67 4.37003 14.37 4.67 14 4.67C13.63 4.67 13.33 4.37003 13.33 4C13.33 3.62997 13.63 3.33 14 3.33Z" fill="#000000" class="bmwfcol"/><path d="M21.6601 16.2031V18H20.3301V17.2933L20.3281 17.293L20.3281 17.2958C20.2142 17.2808 20.0818 17.2648 19.931 17.2491C19.3732 17.1909 18.5629 17.1355 17.5 17.1355C16.3582 17.1355 15.5079 17.1995 14.949 17.2621C14.844 17.2738 14.7494 17.2855 14.665 17.2968L14.6649 24.6843C14.7468 24.6936 14.838 24.7032 14.9385 24.7129C15.2556 24.7433 15.6653 24.774 16.1678 24.7951C16.3034 25.2682 16.485 25.7181 16.697 26.1428C15.8997 26.1244 15.2711 26.0809 14.8114 26.0368C14.4157 25.9988 14.1452 25.9604 13.9999 25.9373C13.8547 25.9604 13.5842 25.9988 13.1885 26.0368C12.7026 26.0834 12.0281 26.1294 11.165 26.1456V28.335H18.2022C18.2022 28.335 18.5309 28.7312 18.7022 28.9108C18.953 29.1739 19.2108 29.4257 19.4693 29.665H4V28.335H9.83496V26.1456C8.43507 26.1193 7.5312 26.0147 7.12395 25.9561C6.91731 25.9263 6.71258 25.8862 6.5078 25.846C6.4502 25.8347 6.3926 25.8234 6.33495 25.8124L6.33496 16.1994C6.39443 16.186 6.45437 16.1722 6.51379 16.1585C6.65383 16.1262 6.79471 16.0937 6.93576 16.0663C7.01367 16.0512 7.14675 16.0273 7.33495 15.9999V14.2822C7.17632 14.2785 7.05666 14.2672 6.9765 14.2568C6.82298 14.2368 6.6715 14.2028 6.52027 14.1688C6.4585 14.1549 6.39677 14.1411 6.33495 14.1282V7.20798C6.77851 6.97586 7.21796 6.78978 7.70662 6.66192C8.22244 6.52696 8.93212 6.39602 9.83496 6.35123V3H11.165V6.35123C12.0678 6.39602 12.7775 6.52696 13.2933 6.66192C13.5964 6.74124 13.832 6.82178 13.9999 6.88668C14.1679 6.82178 14.4035 6.74124 14.7066 6.66192C15.2224 6.52696 15.9321 6.39602 16.835 6.35123V3H18.165V6.35123C19.0678 6.39602 19.7775 6.52696 20.2933 6.66192C20.78 6.78928 21.2205 6.97539 21.6649 7.20798V14.1282C21.6031 14.1411 21.5414 14.1549 21.4797 14.1688C21.3284 14.2027 21.1769 14.2368 21.0234 14.2568C20.9432 14.2672 20.8236 14.2785 20.665 14.2822V15.9999C20.8532 16.0272 20.9862 16.0512 21.0642 16.0663C21.1998 16.0926 21.3345 16.1237 21.4692 16.1548C21.4964 16.161 21.5282 16.1694 21.5601 16.1779C21.5951 16.1871 21.6302 16.1964 21.6601 16.2031ZM14.8009 12.9402C15.4087 12.8721 16.3084 12.8054 17.4999 12.8054C18.6092 12.8054 19.4656 12.8632 20.0689 12.9262C20.1665 12.9363 20.2552 12.9431 20.3349 12.9473V8.06063C20.2312 8.0259 20.1051 7.98746 19.9566 7.94861C19.4264 7.80987 18.6079 7.665 17.5 7.665C16.392 7.665 15.5735 7.80987 15.0433 7.94861C14.8948 7.98746 14.7687 8.0259 14.6649 8.06063L14.665 12.956C14.7085 12.9508 14.7538 12.9455 14.8009 12.9402ZM14.949 14.2619C14.844 14.2737 14.7494 14.2854 14.665 14.2966L14.665 15.9561C14.7085 15.9509 14.7539 15.9456 14.8009 15.9403C15.4087 15.8723 16.3084 15.8055 17.5 15.8055C18.2174 15.8055 18.8291 15.8297 19.335 15.8638V14.1969C18.8428 14.1616 18.2312 14.1354 17.4999 14.1354C16.3582 14.1354 15.5079 14.1993 14.949 14.2619ZM13.335 15.9561L13.335 14.2966C13.2505 14.2854 13.1559 14.2737 13.0509 14.2619C12.492 14.1993 11.6417 14.1354 10.4999 14.1354C9.76874 14.1354 9.15708 14.1616 8.66495 14.1969V15.8638C9.17079 15.8297 9.78247 15.8055 10.5 15.8055C11.6915 15.8055 12.5912 15.8723 13.199 15.9403C13.2461 15.9456 13.2914 15.9509 13.335 15.9561ZM13.335 12.956L13.3349 8.06063C13.2312 8.0259 13.1051 7.98746 12.9566 7.94861C12.4264 7.80987 11.6079 7.665 10.5 7.665C9.39199 7.665 8.57352 7.80987 8.04329 7.94861C7.89478 7.98746 7.76867 8.0259 7.66495 8.06063V12.9473C7.74472 12.9431 7.83339 12.9363 7.93098 12.9262C8.53432 12.8632 9.39067 12.8054 10.4999 12.8054C11.6915 12.8054 12.5912 12.8721 13.199 12.9402C13.2461 12.9455 13.2914 12.9508 13.335 12.956ZM13.335 17.2968C13.2505 17.2855 13.1559 17.2738 13.0509 17.2621C12.492 17.1995 11.6417 17.1355 10.5 17.1355C9.437 17.1355 8.62668 17.1909 8.06892 17.2491C7.91507 17.2651 7.78042 17.2814 7.66496 17.2968L7.66495 24.6843C7.74683 24.6936 7.838 24.7032 7.93848 24.7129C8.5008 24.7668 9.3546 24.8218 10.5 24.8218C11.6453 24.8218 12.4991 24.7668 13.0614 24.7129C13.1619 24.7032 13.2531 24.6936 13.3349 24.6843L13.335 17.2968Z" fill="#000000" class="bmwfcol"/><path d="M21.2738 19.335C20.2364 19.335 19.3201 19.6837 18.6616 20.3422C18.003 21.0008 17.6543 21.917 17.6543 22.9545C17.6543 24.8081 18.7699 26.446 19.9687 27.7032C21.1546 28.947 22.5307 29.9294 23.3308 30.5007L23.5607 30.665H24.4415L24.6714 30.5008C25.4715 29.9295 26.8476 28.947 28.0335 27.7032C29.2323 26.446 30.3479 24.8081 30.3479 22.9545C30.3479 21.917 29.9992 21.0008 29.3407 20.3422C28.6821 19.6837 27.7659 19.335 26.7284 19.335C25.6159 19.335 24.6545 19.7379 24.0011 20.4627C23.3478 19.7379 22.3863 19.335 21.2738 19.335ZM18.9843 22.9545C18.9843 22.2193 19.2265 21.6582 19.602 21.2827C19.9776 20.9071 20.5386 20.665 21.2738 20.665C22.311 20.665 23.0182 21.1429 23.3459 21.8655L23.5229 22.2559H24.4793L24.6563 21.8655C24.984 21.1429 25.6913 20.665 26.7284 20.665C27.4636 20.665 28.0247 20.9071 28.4002 21.2827C28.7758 21.6582 29.0179 22.2193 29.0179 22.9545C29.0179 24.2827 28.2018 25.5994 27.071 26.7854C26.033 27.874 24.8231 28.757 24.0152 29.335H23.987C23.1791 28.757 21.9693 27.874 20.9313 26.7854C19.8005 25.5994 18.9843 24.2827 18.9843 22.9545Z" fill="#000000" class="bmwfcol"/><title>bmw_and_heart_lt_48</title></svg>