<svg width="48" height="48" viewBox="0 0 32 32" xmlns="http://www.w3.org/2000/svg"><path d="M20.6919 20.6919C20.4027 20.9812 20.0949 21.2508 19.7697 21.5H17.3434C18.2869 21.074 19.1136 20.5026 19.8081 19.8081C20.5556 19.0605 21.1606 18.1598 21.5951 17.125H17.5726C17.3664 18.4145 17.0578 19.55 16.6565 20.4945C16.5047 20.8516 16.3359 21.1887 16.1502 21.5H14.6276C14.9406 21.1315 15.2371 20.6384 15.506 20.0055C15.8425 19.2139 16.1142 18.2456 16.3056 17.125H9.69429C9.8857 18.2458 10.1575 19.2142 10.494 20.0059C10.7629 20.6386 11.0593 21.1316 11.3722 21.5H9.84966C9.66399 21.1888 9.49527 20.8518 9.34355 20.4948C8.94212 19.5504 8.63354 18.4147 8.42735 17.125H4.40489C4.83936 18.1598 5.44436 19.0605 6.19194 19.8081C6.88645 20.5026 7.71305 21.074 8.6566 21.5H6.23026C5.9051 21.2508 5.59733 20.9812 5.30806 20.6919C3.42507 18.809 2.375 16.142 2.375 13C2.375 9.85797 3.42507 7.19105 5.30806 5.30806C7.19105 3.42507 9.85797 2.375 13 2.375C16.142 2.375 18.809 3.42507 20.6919 5.30806C22.5749 7.19105 23.625 9.85797 23.625 13C23.625 16.142 22.5749 18.809 20.6919 20.6919ZM3.625 13C3.625 14.0294 3.74824 14.9907 3.98151 15.875H8.26464C8.17243 14.9738 8.125 14.0121 8.125 13C8.125 11.9879 8.17243 11.0262 8.26464 10.125H3.9815C3.74824 11.0093 3.625 11.9706 3.625 13ZM22.0185 15.875C22.2518 14.9907 22.375 14.0294 22.375 13C22.375 11.9706 22.2518 11.0093 22.0185 10.125H17.7353C17.8276 11.0262 17.875 11.988 17.875 13C17.875 14.012 17.8276 14.9738 17.7353 15.875H22.0185ZM16.4784 15.875C16.5742 14.9887 16.625 14.0273 16.625 13C16.625 11.9727 16.5742 11.0113 16.4784 10.125H9.52153C9.42581 11.0113 9.375 11.9727 9.375 13C9.375 14.0273 9.42582 14.9887 9.52153 15.875H16.4784ZM8.42734 8.875C8.63354 7.58529 8.94211 6.44966 9.34355 5.50517C9.58798 4.93008 9.87653 4.40681 10.209 3.95974C8.60152 4.36887 7.24491 5.13897 6.19194 6.19194C5.44435 6.93953 4.83934 7.84018 4.40488 8.875H8.42734ZM9.69429 8.875H16.3056C16.1142 7.75441 15.8425 6.7861 15.506 5.99446C14.7948 4.32094 13.8911 3.625 13 3.625C12.1088 3.625 11.2052 4.32079 10.494 5.99412C10.1575 6.78579 9.8857 7.7542 9.69429 8.875ZM17.5726 8.875H21.5951C21.1607 7.84018 20.5557 6.93953 19.8081 6.19194C18.755 5.13893 17.3984 4.36881 15.7908 3.95969C16.1234 4.40687 16.412 4.9303 16.6565 5.50554C17.0578 6.44998 17.3664 7.58551 17.5726 8.875Z" fill="#000000" class="bmwfcol"/><path d="M8.0463 27.6098L7.74347 27.5444V28.7622L7.95784 28.807C8.44987 28.9099 9.2458 29.0762 9.90041 29.0762C10.6607 29.0762 11.2084 28.9462 11.6383 28.5689L11.6399 28.5676L11.6414 28.5662C12.0173 28.2252 12.2058 27.7698 12.2058 27.2383C12.2058 26.7721 12.075 26.3551 11.8045 26.0659C11.5501 25.7935 11.2209 25.6515 10.7374 25.4878L9.62406 25.1167C9.45957 25.0606 9.32979 25.0155 9.22513 24.9707C9.11956 24.9256 9.05756 24.8882 9.02054 24.8554C8.96121 24.8021 8.92611 24.7312 8.92611 24.5078C8.92611 24.311 8.97727 24.1727 9.09946 24.0723C9.23498 23.9667 9.42478 23.9193 9.86331 23.9193C10.3532 23.9193 11.1504 24.1097 11.6816 24.2387L11.9906 24.3138V23.0865L11.7952 23.0395C11.2159 22.9002 10.5053 22.7292 9.84847 22.7292C9.19438 22.7292 8.66523 22.8084 8.26502 23.1709C7.85138 23.5328 7.69895 23.9937 7.69895 24.5078C7.69895 24.9741 7.8189 25.416 8.13842 25.7186C8.39139 25.9703 8.69545 26.0886 9.09419 26.2215L10.2146 26.5999C10.4072 26.6641 10.552 26.7126 10.6668 26.7615C10.779 26.8094 10.8412 26.8493 10.8789 26.886C10.9477 26.9599 10.9786 27.0474 10.9786 27.2383C10.9786 27.4435 10.9046 27.602 10.7615 27.712C10.5956 27.8286 10.3916 27.8861 9.93009 27.8861C9.39736 27.8861 8.5999 27.7295 8.0463 27.6098Z" fill="#000000" class="bmwfcol"/><path d="M3.96152 22.8554L1.69824 28.9501H2.98101L3.46331 27.6516H5.72749L6.20979 28.9501H7.52314L5.24369 22.8554H3.96152ZM4.59458 24.5549L5.2982 26.4689H3.88605L4.59458 24.5549Z" fill="#000000" class="bmwfcol"/><path d="M12.8662 27.5444V28.7622L13.0805 28.807C13.5726 28.9099 14.3685 29.0762 15.0231 29.0762C15.7834 29.0762 16.3311 28.9462 16.761 28.5689L16.7626 28.5676L16.7641 28.5662C17.14 28.2252 17.3285 27.7698 17.3285 27.2383C17.3285 26.7721 17.1976 26.355 16.9271 26.0658C16.6728 25.7934 16.3436 25.6515 15.8601 25.4878L14.7476 25.117C14.5831 25.0609 14.4525 25.0155 14.3478 24.9707C14.2423 24.9256 14.1803 24.8882 14.1432 24.8554C14.0839 24.8021 14.0488 24.7312 14.0488 24.5078C14.0488 24.311 14.1 24.1727 14.2221 24.0723C14.3577 23.9667 14.5475 23.9193 14.986 23.9193C15.4759 23.9193 16.2731 24.1097 16.8043 24.2387L17.1133 24.3138V23.0865L16.9179 23.0395C16.3386 22.9002 15.628 22.7292 14.9712 22.7292C14.3171 22.7292 13.7879 22.8084 13.3877 23.1709C12.9741 23.5328 12.8216 23.9937 12.8216 24.5078C12.8216 24.9741 12.9416 25.416 13.2611 25.7186C13.5141 25.9703 13.8178 26.0885 14.2165 26.2214L15.3364 26.5996C15.5289 26.6638 15.6747 26.7126 15.7895 26.7615C15.9017 26.8094 15.9639 26.8493 16.0016 26.886C16.0704 26.9599 16.1013 27.0475 16.1013 27.2383C16.1013 27.4435 16.0273 27.602 15.8842 27.712C15.7183 27.8286 15.5143 27.8861 15.0528 27.8861C14.5201 27.8861 13.7226 27.7295 13.169 27.6098L12.8662 27.5444Z" fill="#000000" class="bmwfcol"/><path d="M18.204 28.9501H19.4164V22.8554H18.204V28.9501Z" fill="#000000" class="bmwfcol"/><path d="M20.3363 27.5444V28.7622L20.5507 28.807C21.0427 28.9099 21.8386 29.0762 22.4933 29.0762C23.2535 29.0762 23.8012 28.9462 24.2312 28.5689L24.2327 28.5676L24.2342 28.5662C24.6102 28.2252 24.7986 27.7698 24.7986 27.2383C24.7986 26.7721 24.6678 26.355 24.3973 26.0658C24.1429 25.7934 23.8137 25.6515 23.3302 25.4878L22.2178 25.117C22.0533 25.0609 21.9226 25.0155 21.818 24.9707C21.7124 24.9256 21.6504 24.8882 21.6134 24.8554C21.5541 24.8021 21.519 24.7312 21.519 24.5078C21.519 24.311 21.5701 24.1727 21.6923 24.0723C21.8278 23.9667 22.0176 23.9193 22.4562 23.9193C22.9461 23.9193 23.7433 24.1097 24.2744 24.2387L24.5834 24.3138V23.0865L24.3881 23.0395C23.8088 22.9002 23.0981 22.7292 22.4413 22.7292C21.7872 22.7292 21.2581 22.8084 20.8579 23.1709C20.4442 23.5328 20.2918 23.9937 20.2918 24.5078C20.2918 24.9741 20.4117 25.416 20.7313 25.7186C20.9842 25.9703 21.2879 26.0885 21.6867 26.2214L22.8065 26.5996C22.9991 26.6638 23.1449 26.7126 23.2596 26.7615C23.3718 26.8094 23.4341 26.8493 23.4717 26.886C23.5405 26.9599 23.5714 27.0475 23.5714 27.2383C23.5714 27.4435 23.4974 27.602 23.3544 27.712C23.1885 27.8286 22.9845 27.8861 22.5229 27.8861C21.9902 27.8861 21.1927 27.7295 20.6391 27.6098L20.3363 27.5444Z" fill="#000000" class="bmwfcol"/><path d="M26.9401 28.9501H28.1524V24.0454H30.1336V22.8554H24.959V24.0454H26.9401V28.9501Z" fill="#000000" class="bmwfcol"/><title>bmw_assist_lt_48</title></svg>