<svg width="48" height="48" viewBox="0 0 32 32" xmlns="http://www.w3.org/2000/svg"><path d="M29.9999 23.335V24.665H20.4998C19.9958 26.3983 18.3958 27.665 16.4999 27.665C14.6038 27.665 13.0036 26.398 12.4998 24.6645C12.1824 24.6619 11.8984 24.6472 11.445 24.5637C10.9243 24.4678 10.1714 24.28 8.82777 23.92L8.33488 23.7879V18.1166L8.70807 17.9005C10.5751 16.8196 11.6029 16.2245 13.3253 15.827C14.9823 15.4447 17.297 15.2414 21.7332 14.8557C24.28 12.7197 25.7174 11.5447 27.1993 10.9459C28.0607 10.5979 28.928 10.4481 29.9999 10.3836V11.7166C29.0634 11.7761 28.3782 11.9041 27.6976 12.1791C26.4261 12.6928 25.1426 13.731 22.4273 16.0094L22.2666 16.1443L22.0575 16.1625C17.4304 16.5649 15.1916 16.7613 13.6244 17.123C12.2002 17.4516 11.3463 17.9124 9.66488 18.8836V22.7666C10.7018 23.041 11.2855 23.182 11.6859 23.2557C11.9594 23.3061 12.1422 23.3245 12.3382 23.3312C12.4268 21.1092 14.2562 19.335 16.4999 19.335C18.7449 19.335 20.575 21.1112 20.6617 23.335H29.9999ZM16.4999 20.665C14.9342 20.665 13.6649 21.9343 13.6649 23.5C13.6649 25.0657 14.9342 26.335 16.4999 26.335C18.0656 26.335 19.3349 25.0657 19.3349 23.5C19.3349 21.9343 18.0656 20.665 16.4999 20.665Z" fill="#000000" class="bmwfcol"/><path d="M8.65988 11.665H7.32988V10.335H8.65988V11.665Z" fill="#000000" class="bmwfcol"/><path d="M13.6599 11.665H12.3299V10.335H13.6599V11.665Z" fill="#000000" class="bmwfcol"/><path d="M18.6599 11.665H17.3299V10.335H18.6599V11.665Z" fill="#000000" class="bmwfcol"/><path d="M3.66496 6.5V8H2.33496V6.5H3.66496ZM3.66496 9.5V16H2.33496V9.5H3.66496Z" fill="#000000" class="bmwfcol"/><title>bmw-head-up-display_lt_48</title></svg>