<svg width="48" height="48" viewBox="0 0 32 32" xmlns="http://www.w3.org/2000/svg"><path d="M27.2757 21.335H6.9949C6.04309 21.335 5.39703 20.3674 5.76187 19.4883L6.93353 16.665H22.6634C23.7413 16.665 24.713 16.0157 25.1255 15.0199L27.4803 9.33499H10.3149C9.23766 9.33499 8.26636 9.98353 7.85345 10.9785L5.8753 15.7451L4.53345 18.9785C3.80515 20.7334 5.09484 22.665 6.9949 22.665H26.7248L27.2757 21.335ZM9.08187 11.4883C9.28871 10.9899 9.77527 10.665 10.3149 10.665H25.4898L23.8968 14.5109C23.6901 15.0097 23.2033 15.335 22.6634 15.335H7.48548L9.08187 11.4883Z" fill="#000000" class="bmwfcol"/><title>bmw-edrive-technology_lt_48</title></svg>