<svg width="48" height="48" viewBox="0 0 32 32" xmlns="http://www.w3.org/2000/svg"><path d="M20 4.67C19.63 4.67 19.33 4.37003 19.33 4C19.33 3.62997 19.63 3.33 20 3.33C20.37 3.33 20.67 3.62997 20.67 4C20.67 4.37003 20.37 4.67 20 4.67ZM20 6C21.1046 6 22 5.10457 22 4C22 2.89543 21.1046 2 20 2C18.8954 2 18 2.89543 18 4C18 5.10457 18.8954 6 20 6Z" fill="#000000" class="bmwfcol"/><path d="M15.835 6.35123V3H17.165V6.35123C18.5984 6.42233 19.5461 6.71133 20 6.88668C20.4538 6.71134 21.4016 6.42233 22.835 6.35123V3H24.165V6.35123C25.3848 6.41175 26.5774 6.63881 27.665 7.20798V14.4229C27.3349 14.4923 27.0037 14.569 26.665 14.577V15.2946C27.0016 15.3436 27.3333 15.4198 27.665 15.4941V25.8124C26.5176 26.0326 25.3601 26.1232 24.165 26.1456V28.335H30V29.665H2V28.335H4.90639V26.9517L4.90257 26.95C3.69268 26.4198 2.33496 25.46 2.33496 24V20.8724C2.93889 20.745 3.53292 20.666 4.14982 20.623C5.06828 20.559 6.5851 20.4961 9.00292 20.4961C11.4207 20.4961 12.9361 20.5591 13.8531 20.6231C14.4693 20.6661 15.0618 20.7451 15.665 20.8729V24C15.665 25.4599 14.3072 26.4198 13.0974 26.95L13.0935 26.9517V28.335H15.835V26.7053C16.2906 26.2357 16.723 25.6107 16.907 24.8194C18.0417 24.8061 18.8509 24.7391 19.335 24.6844V16.5915C18.8014 16.5207 17.8563 16.4303 16.5 16.4303C15.1439 16.4303 14.1989 16.5202 13.665 16.5915V19.2729C13.2985 19.2504 12.8592 19.229 12.335 19.211V15.4941C12.6666 15.4196 12.9984 15.3435 13.335 15.2946V14.577C12.9963 14.569 12.6651 14.4924 12.335 14.4229V7.20798C13.4226 6.63876 14.6152 6.41174 15.835 6.35123ZM17.165 28.335H22.835V26.1456C21.269 26.1162 20.3237 25.9888 20 25.9373C19.6763 25.9888 18.731 26.1162 17.165 26.1456V28.335ZM11.7635 28.335V26.02C12.3201 25.8362 12.8571 25.6326 13.3511 25.3106C13.9623 24.9121 14.335 24.4605 14.335 24V21.997C13.6071 21.9263 12.034 21.8261 9.00289 21.8261C5.96933 21.8261 4.39376 21.9266 3.66496 21.9971V24C3.66496 24.4605 4.03764 24.9121 4.64886 25.3106C5.14286 25.6326 5.67987 25.8361 6.23639 26.02V28.335H11.7635ZM16.5 7.665C15.0817 7.665 14.139 7.90188 13.665 8.06063V13.2421C14.612 13.1916 15.5491 13.1001 16.5 13.1001C17.7838 13.1001 18.7289 13.1776 19.335 13.2508V8.06063C18.8609 7.90188 17.9183 7.665 16.5 7.665ZM16.5 14.4301C15.7688 14.4301 15.1571 14.4564 14.665 14.4917V15.1586C15.1708 15.1245 15.7825 15.1003 16.5 15.1003C17.7838 15.1003 18.7289 15.1777 19.335 15.2509V14.5914C18.8009 14.5203 17.8561 14.4301 16.5 14.4301ZM23.5 24.8218C24.85 24.8218 25.7949 24.7454 26.335 24.6844V16.5915C25.8009 16.5203 24.8562 16.4303 23.5 16.4303C22.1439 16.4303 21.1991 16.5206 20.665 16.5915V24.6844C21.2051 24.7454 22.15 24.8218 23.5 24.8218ZM23.5 15.1003C24.2175 15.1003 24.8291 15.1245 25.335 15.1586V14.4917C24.8428 14.4564 24.2312 14.4301 23.5 14.4301C22.1438 14.4301 21.199 14.5203 20.665 14.5914V15.2509C21.271 15.1777 22.2161 15.1003 23.5 15.1003ZM23.5 13.1001C24.4508 13.1001 25.388 13.1916 26.335 13.2421V8.06063C25.8609 7.90188 24.9183 7.665 23.5 7.665C22.0817 7.665 21.139 7.90188 20.665 8.06063V13.2508C21.271 13.1776 22.2161 13.1001 23.5 13.1001Z" fill="#000000" class="bmwfcol"/><title>bmw-four-cylinder_lt_48</title></svg>