<svg width="48" height="48" viewBox="0 0 32 32" xmlns="http://www.w3.org/2000/svg"><path d="M20.5 26.0042C20.4066 26.0148 20.3028 26.0258 20.1885 26.0368C19.7026 26.0834 19.0281 26.1294 18.165 26.1456V28.335H20.5V29.665H4V28.335H9.83496V26.1456C8.43507 26.1193 7.5312 26.0147 7.12395 25.9561C6.85919 25.918 6.59755 25.8628 6.33495 25.8124L6.33496 16.1994C6.53505 16.1545 6.73443 16.1054 6.93576 16.0663C7.01367 16.0512 7.14675 16.0273 7.33495 15.9999V14.2822C7.17632 14.2785 7.05666 14.2672 6.9765 14.2568C6.76027 14.2286 6.54814 14.1727 6.33495 14.1282V7.20798C6.77851 6.97586 7.21796 6.78978 7.70662 6.66192C8.22244 6.52696 8.93212 6.39601 9.83496 6.35123V3H11.165V6.35123C12.0678 6.39601 12.7775 6.52696 13.2933 6.66192C13.5964 6.74124 13.832 6.82178 13.9999 6.88668C14.1679 6.82178 14.4035 6.74124 14.7066 6.66192C15.2224 6.52696 15.9321 6.39601 16.835 6.35123V3H18.165V6.35123C19.0678 6.39601 19.7775 6.52696 20.2933 6.66192C20.78 6.78928 21.2205 6.97539 21.6649 7.20798V14.1282C21.4518 14.1726 21.2396 14.2286 21.0234 14.2568C20.9432 14.2672 20.8236 14.2785 20.665 14.2822V15.9999C20.8532 16.0272 20.9862 16.0512 21.0642 16.0663C21.2573 16.1038 21.4485 16.1509 21.6404 16.1939C21.2186 16.5235 20.9154 16.9003 20.7784 17.3636C20.76 17.3606 20.6733 17.3469 20.3281 17.293C20.3281 17.2939 20.3281 17.2949 20.3281 17.2958C20.2142 17.2808 20.0818 17.2648 19.931 17.2491C19.3732 17.1909 18.5629 17.1355 17.5 17.1355C16.3582 17.1355 15.5079 17.1995 14.949 17.2621C14.844 17.2738 14.7494 17.2855 14.665 17.2968L14.6649 24.6843C14.7468 24.6936 14.838 24.7032 14.9385 24.7129C15.5008 24.7668 16.3546 24.8218 17.5 24.8218C18.6453 24.8218 19.4991 24.7668 20.0614 24.7129C20.2089 24.6987 20.3536 24.6746 20.5 24.6517V26.0042ZM16.835 26.1456C15.9718 26.1294 15.2973 26.0834 14.8114 26.0368C14.4157 25.9988 14.1452 25.9604 13.9999 25.9373C13.8547 25.9604 13.5842 25.9988 13.1885 26.0368C12.7026 26.0834 12.0281 26.1294 11.165 26.1456V28.335H16.835V26.1456ZM14.665 12.956C14.7085 12.9508 14.7538 12.9455 14.8009 12.9402C15.4087 12.8721 16.3084 12.8054 17.4999 12.8054C18.6092 12.8054 19.4656 12.8632 20.0689 12.9262C20.1665 12.9363 20.2552 12.9431 20.3349 12.9473V8.06063C20.2312 8.0259 20.1051 7.98746 19.9566 7.94861C19.4264 7.80987 18.6079 7.665 17.5 7.665C16.392 7.665 15.5735 7.80987 15.0433 7.94861C14.8948 7.98746 14.7687 8.0259 14.6649 8.06063L14.665 12.956ZM17.4999 14.1354C16.3582 14.1354 15.5079 14.1993 14.949 14.2619C14.844 14.2737 14.7494 14.2854 14.665 14.2966L14.665 15.9561C14.7085 15.9509 14.7539 15.9456 14.8009 15.9403C15.4087 15.8723 16.3084 15.8055 17.5 15.8055C18.2174 15.8055 18.8291 15.8297 19.335 15.8638V14.1969C18.8428 14.1616 18.2312 14.1354 17.4999 14.1354ZM13.199 15.9403C13.2461 15.9456 13.2914 15.9509 13.335 15.9561L13.335 14.2966C13.2505 14.2854 13.1559 14.2737 13.0509 14.2619C12.492 14.1993 11.6417 14.1354 10.4999 14.1354C9.76874 14.1354 9.15708 14.1616 8.66495 14.1969V15.8638C9.17079 15.8297 9.78247 15.8055 10.5 15.8055C11.6915 15.8055 12.5912 15.8723 13.199 15.9403ZM13.199 12.9402C13.2461 12.9455 13.2914 12.9508 13.335 12.956L13.3349 8.06063C13.2312 8.0259 13.1051 7.98746 12.9566 7.94861C12.4264 7.80987 11.6079 7.665 10.5 7.665C9.39199 7.665 8.57353 7.80987 8.04329 7.94861C7.89478 7.98746 7.76867 8.0259 7.66495 8.06063V12.9473C7.74472 12.9431 7.83339 12.9363 7.93098 12.9262C8.53432 12.8632 9.39067 12.8054 10.4999 12.8054C11.6915 12.8054 12.5912 12.8721 13.199 12.9402ZM13.3349 24.6843L13.335 17.2968C13.2505 17.2855 13.1559 17.2738 13.0509 17.2621C12.492 17.1995 11.6417 17.1355 10.5 17.1355C9.437 17.1355 8.62668 17.1909 8.06892 17.2491C7.91507 17.2651 7.78042 17.2814 7.66496 17.2968L7.66495 24.6843C7.74683 24.6936 7.838 24.7032 7.93848 24.7129C8.5008 24.7668 9.3546 24.8218 10.5 24.8218C11.6453 24.8218 12.4991 24.7668 13.0614 24.7129C13.1619 24.7032 13.2531 24.6936 13.3349 24.6843Z" fill="#000000" class="bmwfcol"/><path d="M16 4C16 5.10457 15.1046 6 14 6C12.8954 6 12 5.10457 12 4C12 2.89543 12.8954 2 14 2C15.1046 2 16 2.89543 16 4ZM14.67 4C14.67 3.62997 14.37 3.33 14 3.33C13.63 3.33 13.33 3.62997 13.33 4C13.33 4.37003 13.63 4.67 14 4.67C14.37 4.67 14.67 4.37003 14.67 4Z" fill="#000000" class="bmwfcol"/><path d="M22.0001 28.1358V26.786C23.2116 26.9965 24.2536 27.1455 24.8317 27.1455C25.1935 27.1455 25.5172 27.1217 25.7838 27.069C26.0578 27.0149 26.2218 26.9399 26.3074 26.8736C26.4368 26.7734 26.502 26.6917 26.5383 26.6229C26.5727 26.5578 26.5998 26.4693 26.5998 26.3256C26.5998 25.961 26.507 25.8725 26.4102 25.814C26.3581 25.7824 26.3079 25.7516 26.2576 25.7206L26.2575 25.7205C26.155 25.6573 26.0518 25.5937 25.929 25.5231C25.8004 25.4492 25.6613 25.3744 25.5088 25.3022C25.201 25.1566 24.8926 25.0058 24.5822 24.8539L24.5714 24.8487C24.2633 24.698 23.9527 24.546 23.6313 24.3933C23.1069 24.1442 22.7779 23.9594 22.3332 23.6017C21.9048 23.2571 21.7193 22.7022 21.7072 22.1908C21.6931 21.5956 21.9432 21.1702 22.164 20.8642C22.2875 20.6931 22.4825 20.4554 22.6827 20.2224C22.3622 19.902 22.0652 19.3805 22.0652 18.7607C22.0652 18.1495 22.2643 17.556 22.8593 17.1504C23.203 16.9162 23.5958 16.8056 23.9572 16.7491C24.3201 16.6923 24.6964 16.6836 25.0302 16.6836C25.4981 16.6836 26.3609 16.7592 28.0001 17.0763V18.4317C26.227 18.0789 25.3973 18.0136 25.0302 18.0136C24.7097 18.0136 24.4189 18.023 24.1628 18.0631C23.9052 18.1034 23.727 18.1686 23.6084 18.2494C23.4719 18.3424 23.3952 18.4602 23.3952 18.7607C23.3952 18.8669 23.4245 18.976 23.4771 19.079C23.531 19.1842 23.5997 19.2642 23.652 19.3088C23.7065 19.3552 23.736 19.378 23.7704 19.4005C23.8079 19.4251 23.8646 19.458 23.9743 19.5129C24.0893 19.5704 24.2483 19.6451 24.4861 19.7544C25.5291 20.2337 26.7036 20.8153 27.514 21.3281C28.031 21.6553 28.2875 22.2736 28.2875 22.8315C28.2875 23.1151 28.2419 23.3669 28.1368 23.6111C28.0375 23.8421 27.8975 24.0355 27.7626 24.2084C27.6431 24.3617 27.4624 24.5769 27.2738 24.7964C27.7671 25.1811 27.9298 25.7438 27.9298 26.3256C27.9298 26.6531 27.8641 26.9604 27.7144 27.2439C27.5667 27.5236 27.3568 27.7432 27.1217 27.9252C26.8061 28.1695 26.4152 28.3 26.0414 28.3738C25.6601 28.4491 25.243 28.4755 24.8317 28.4755C24.181 28.4755 23.1346 28.3291 22.0001 28.1358ZM23.2426 21.6425C23.09 21.854 23.0328 21.9897 23.0368 22.1593C23.0429 22.4161 23.1365 22.5409 23.1667 22.5653C23.5052 22.8375 23.7364 22.9708 24.202 23.192C24.5304 23.348 24.8468 23.5028 25.153 23.6526L25.1666 23.6592C25.4783 23.8117 25.7789 23.9587 26.0775 24.1C26.0871 24.1045 26.0966 24.109 26.1061 24.1136C26.341 23.8431 26.579 23.5635 26.7138 23.3906C26.8338 23.2367 26.8859 23.1534 26.915 23.0857C26.9384 23.0313 26.9575 22.9625 26.9575 22.8315C26.9575 22.6248 26.8537 22.4842 26.8028 22.452C26.0716 21.9893 24.9649 21.4381 23.9308 20.9629C23.8988 20.9482 23.868 20.9341 23.8382 20.9203C23.6073 21.1829 23.3663 21.471 23.2426 21.6425Z" fill="#000000" class="bmwfcol"/><title>bmw_and_paragraph_lt_48</title></svg>