<svg width="48" height="48" viewBox="0 0 32 32" xmlns="http://www.w3.org/2000/svg"><path d="M30 16.665H2V15.335H30V16.665Z" fill="#000000" class="bmwfcol"/><path d="M16.6651 10.4513L20.0002 7.11625V8.88402L16.0003 12.8839L12.0002 8.88383V7.11606L15.3351 10.451L15.3351 2.00003L16.6651 2.00003L16.6651 10.4513Z" fill="#000000" class="bmwfcol"/><path d="M8.00016 19C7.44787 19 7.00016 19.4477 7.00016 20C7.00016 20.5523 7.44787 21 8.00016 21C8.55244 21 9.00016 20.5523 9.00016 20C9.00016 19.4477 8.55244 19 8.00016 19Z" fill="#000000" class="bmwfcol"/><path d="M16.0002 19C15.4479 19 15.0002 19.4477 15.0002 20C15.0002 20.5523 15.4479 21 16.0002 21C16.5524 21 17.0002 20.5523 17.0002 20C17.0002 19.4477 16.5524 19 16.0002 19Z" fill="#000000" class="bmwfcol"/><path d="M16.0002 27C15.4479 27 15.0002 27.4477 15.0002 28C15.0002 28.5523 15.4479 29 16.0002 29C16.5524 29 17.0002 28.5523 17.0002 28C17.0002 27.4477 16.5524 27 16.0002 27Z" fill="#000000" class="bmwfcol"/><path d="M8.00016 27C7.44787 27 7.00016 27.4477 7.00016 28C7.00016 28.5523 7.44787 29 8.00016 29C8.55244 29 9.00016 28.5523 9.00016 28C9.00016 27.4477 8.55244 27 8.00016 27Z" fill="#000000" class="bmwfcol"/><path d="M24.0002 19C23.4479 19 23.0002 19.4477 23.0002 20C23.0002 20.5523 23.4479 21 24.0002 21C24.5524 21 25.0002 20.5523 25.0002 20C25.0002 19.4477 24.5524 19 24.0002 19Z" fill="#000000" class="bmwfcol"/><path d="M24.0002 27C23.4479 27 23.0002 27.4477 23.0002 28C23.0002 28.5523 23.4479 29 24.0002 29C24.5524 29 25.0002 28.5523 25.0002 28C25.0002 27.4477 24.5524 27 24.0002 27Z" fill="#000000" class="bmwfcol"/><path d="M4.00016 23C3.44787 23 3.00016 23.4477 3.00016 24C3.00016 24.5523 3.44787 25 4.00016 25C4.55244 25 5.00016 24.5523 5.00016 24C5.00016 23.4477 4.55244 23 4.00016 23Z" fill="#000000" class="bmwfcol"/><path d="M12.0002 23C11.4479 23 11.0002 23.4477 11.0002 24C11.0002 24.5523 11.4479 25 12.0002 25C12.5524 25 13.0002 24.5523 13.0002 24C13.0002 23.4477 12.5524 23 12.0002 23Z" fill="#000000" class="bmwfcol"/><path d="M20.0002 23C19.4479 23 19.0002 23.4477 19.0002 24C19.0002 24.5523 19.4479 25 20.0002 25C20.5524 25 21.0002 24.5523 21.0002 24C21.0002 23.4477 20.5524 23 20.0002 23Z" fill="#000000" class="bmwfcol"/><path d="M28.0002 23C27.4479 23 27.0002 23.4477 27.0002 24C27.0002 24.5523 27.4479 25 28.0002 25C28.5524 25 29.0002 24.5523 29.0002 24C29.0002 23.4477 28.5524 23 28.0002 23Z" fill="#000000" class="bmwfcol"/><path d="M7.66008 8.66503H6.33008V7.33503H7.66008V8.66503Z" fill="#000000" class="bmwfcol"/><path d="M25.6601 8.66503H24.3301V7.33503H25.6601V8.66503Z" fill="#000000" class="bmwfcol"/><path d="M3.66008 4.66503H2.33008V3.33503H3.66008V4.66503Z" fill="#000000" class="bmwfcol"/><path d="M11.6601 4.66503H10.3301V3.33503H11.6601V4.66503Z" fill="#000000" class="bmwfcol"/><path d="M29.6601 4.66503H28.3301V3.33503H29.6601V4.66503Z" fill="#000000" class="bmwfcol"/><path d="M21.6601 4.66503H20.3301V3.33503H21.6601V4.66503Z" fill="#000000" class="bmwfcol"/><path d="M3.66008 12.665H2.33008V11.335H3.66008V12.665Z" fill="#000000" class="bmwfcol"/><path d="M29.6601 12.665H28.3301V11.335H29.6601V12.665Z" fill="#000000" class="bmwfcol"/><title>bmw-blueperformance_lt_48</title></svg>