<svg width="48" height="48" viewBox="0 0 32 32" xmlns="http://www.w3.org/2000/svg"><path d="M9.34355 20.4948C9.49527 20.8518 9.66399 21.1888 9.84966 21.5H11.3722C11.0593 21.1316 10.7629 20.6386 10.494 20.0059C10.1575 19.2142 9.8857 18.2458 9.69429 17.125H16.3056C16.1142 18.2456 15.8425 19.2139 15.506 20.0055C15.2371 20.6384 14.9406 21.1315 14.6276 21.5H16.1502C16.3359 21.1887 16.5047 20.8516 16.6565 20.4945C17.0578 19.55 17.3664 18.4145 17.5726 17.125H21.5951C21.1606 18.1598 20.5556 19.0605 19.8081 19.8081C19.1136 20.5026 18.287 21.074 17.3434 21.5H19.7697C20.0949 21.2508 20.4027 20.9812 20.6919 20.6919C22.5749 18.809 23.625 16.142 23.625 13C23.625 9.85797 22.5749 7.19105 20.6919 5.30806C18.809 3.42507 16.142 2.375 13 2.375C9.85797 2.375 7.19105 3.42507 5.30806 5.30806C3.42507 7.19105 2.375 9.85797 2.375 13C2.375 16.142 3.42507 18.809 5.30806 20.6919C6.44308 21.827 7.86294 22.6594 9.5 23.1416V21.8311C8.19981 21.3928 7.08634 20.7025 6.19194 19.8081C5.44436 19.0605 4.83936 18.1598 4.40489 17.125H8.42735C8.63354 18.4147 8.94212 19.5504 9.34355 20.4948ZM3.625 13C3.625 11.9706 3.74824 11.0093 3.9815 10.125H8.26464C8.17243 11.0262 8.125 11.9879 8.125 13C8.125 14.0121 8.17243 14.9738 8.26464 15.875H3.98151C3.74824 14.9907 3.625 14.0294 3.625 13ZM22.0185 15.875H17.7353C17.8276 14.9738 17.875 14.012 17.875 13C17.875 11.988 17.8276 11.0262 17.7353 10.125H22.0185C22.2518 11.0093 22.375 11.9706 22.375 13C22.375 14.0294 22.2518 14.9907 22.0185 15.875ZM16.4784 15.875H9.52153C9.42582 14.9887 9.375 14.0273 9.375 13C9.375 11.9727 9.42581 11.0113 9.52153 10.125H16.4784C16.5742 11.0113 16.625 11.9727 16.625 13C16.625 14.0273 16.5742 14.9887 16.4784 15.875ZM8.42734 8.875H4.40488C4.83934 7.84018 5.44435 6.93953 6.19194 6.19194C7.24491 5.13897 8.60152 4.36887 10.209 3.95974C9.87653 4.40681 9.58798 4.93008 9.34355 5.50517C8.94211 6.44966 8.63354 7.58529 8.42734 8.875ZM9.69429 8.875C9.8857 7.7542 10.1575 6.78579 10.494 5.99412C11.2052 4.32079 12.1088 3.625 13 3.625C13.8911 3.625 14.7948 4.32094 15.506 5.99446C15.8425 6.7861 16.1142 7.75441 16.3056 8.875H9.69429ZM17.5726 8.875C17.3664 7.58551 17.0578 6.44998 16.6565 5.50554C16.412 4.9303 16.1234 4.40687 15.7908 3.95969C17.3984 4.36881 18.755 5.13893 19.8081 6.19194C20.5557 6.93953 21.1607 7.84018 21.5951 8.875H17.5726Z" fill="#000000" class="bmwfcol"/><path d="M13.7168 23.0053H11.1572V29H13.6648C14.4027 29 14.9113 28.8717 15.283 28.5615C15.6749 28.2469 15.8608 27.7671 15.8608 27.1973C15.8608 26.7829 15.747 26.4426 15.5693 26.2027L15.5685 26.2017C15.46 26.0569 15.3393 25.9438 15.2109 25.8454C15.2769 25.7398 15.3482 25.625 15.4163 25.5131L15.4197 25.5069C15.5948 25.1947 15.7347 24.8979 15.7347 24.4964C15.7347 23.9661 15.4963 23.52 15.0832 23.2651L15.0805 23.2635C14.7181 23.0478 14.2905 23.0053 13.7168 23.0053ZM12.2695 25.402V24.0879H13.6723C13.859 24.0879 14.0122 24.0935 14.1376 24.1095C14.264 24.1256 14.3497 24.1509 14.408 24.1826L14.4114 24.1843C14.4903 24.2251 14.5339 24.2698 14.5606 24.3187C14.5887 24.3701 14.6075 24.4434 14.6075 24.5557C14.6075 24.7366 14.543 24.8826 14.4123 25.1077C14.3567 25.2022 14.2967 25.3012 14.2353 25.402H12.2695ZM12.2695 27.9174V26.4846H13.8355C14.1443 26.4846 14.3233 26.522 14.4573 26.613C14.5616 26.6846 14.6271 26.7623 14.6685 26.8497C14.7108 26.939 14.7337 27.0506 14.7337 27.1973C14.7337 27.4697 14.6579 27.6362 14.5173 27.7418C14.37 27.8508 14.1421 27.9174 13.6723 27.9174H12.2695Z" fill="#000000" class="bmwfcol"/><path d="M18.1768 23.0053H16.8524V29H17.9573V25.1248L19.1778 27.887H20.1284L21.3489 25.1248V29H22.4538V23.0053H21.1368L19.6568 26.3472L18.1768 23.0053Z" fill="#000000" class="bmwfcol"/><path d="M23.1498 23.0053H24.2853L25.1386 27.1178L26.056 23.8512H27.1677L28.0914 27.1183L28.9384 23.0053H30.0664L28.8341 29H27.5328L26.6089 25.7251L25.6915 29H24.3901L23.1498 23.0053Z" fill="#000000" class="bmwfcol"/><title>bmw_online_lt_48</title></svg>