<svg width="48" height="48" viewBox="0 0 32 32" xmlns="http://www.w3.org/2000/svg"><path d="M22.7945 13.4556C22.8058 13.4222 22.8178 13.3895 22.8307 13.3573C23.0139 12.8994 23.3724 12.514 24.3167 11.5679C23.9123 11.3562 23.4754 11.1982 23.0155 11.1033C22.3591 11.7706 21.9164 12.2775 21.6701 12.8931C21.6081 13.048 21.5592 13.2085 21.5205 13.378C21.2514 13.4268 20.9963 13.5161 20.7619 13.6393C20.7463 13.6077 20.7317 13.5761 20.7181 13.5443C20.5238 13.091 20.5048 12.565 20.5036 11.2283C20.0679 11.3644 19.6473 11.5616 19.2549 11.8197C19.2626 12.7558 19.308 13.4273 19.5692 14.0367C19.6349 14.1902 19.7139 14.3384 19.8064 14.4856C19.6552 14.7042 19.5358 14.9465 19.4549 15.2058C19.4219 15.1945 19.3895 15.1826 19.3577 15.1699C18.8998 14.9867 18.5144 14.6283 17.5686 13.6842C17.3569 14.0885 17.1989 14.5254 17.104 14.9854C17.7711 15.6417 18.278 16.0843 18.8934 16.3305C19.0482 16.3924 19.2084 16.4413 19.3776 16.4799C19.4265 16.7489 19.5158 17.0038 19.639 17.2381C19.6075 17.2537 19.5759 17.2682 19.5442 17.2818C19.0908 17.4761 18.5649 17.4951 17.2283 17.4964C17.3645 17.932 17.5617 18.3527 17.8199 18.745C18.7558 18.7373 19.4272 18.6919 20.0366 18.4308C20.1901 18.365 20.3383 18.2861 20.4855 18.1935C20.7043 18.3448 20.9469 18.4642 21.2064 18.545C21.1951 18.5784 21.1831 18.611 21.1703 18.6431C20.9871 19.1011 20.6286 19.4865 19.6843 20.4325C20.0887 20.6442 20.5255 20.8022 20.9855 20.8971C21.6419 20.2298 22.0846 19.7229 22.3309 19.1073C22.3929 18.9522 22.4419 18.7914 22.4806 18.6217C22.7494 18.5727 23.0041 18.4834 23.2382 18.3603C23.2539 18.3921 23.2686 18.4239 23.2823 18.456C23.4766 18.9093 23.4956 19.4354 23.4969 20.7721C23.9325 20.6359 24.3532 20.4387 24.7455 20.1806C24.7378 19.2445 24.6924 18.573 24.4312 17.9636C24.3653 17.8097 24.2862 17.6612 24.1933 17.5136C24.3444 17.2951 24.4636 17.0529 24.5444 16.7937C24.5783 16.8052 24.6115 16.8174 24.6442 16.8305C25.1022 17.0137 25.4875 17.3721 26.4333 18.3162C26.6451 17.9118 26.8031 17.4749 26.8979 17.0149C26.2308 16.3587 25.7239 15.9161 25.1085 15.6699C24.9528 15.6076 24.7916 15.5585 24.6214 15.5198C24.5725 15.2512 24.4834 14.9967 24.3605 14.7627C24.3923 14.7469 24.4241 14.7322 24.4562 14.7185C24.9095 14.5242 25.4355 14.5052 26.772 14.5039C26.6359 14.0683 26.4387 13.6476 26.1805 13.2553C25.2446 13.263 24.5731 13.3084 23.9638 13.5696C23.8101 13.6354 23.6618 13.7145 23.5143 13.8071C23.2958 13.6559 23.0537 13.5365 22.7945 13.4556ZM20.6645 16.0001C20.6645 15.2628 21.2622 14.6651 21.9995 14.6651C22.7368 14.6651 23.3345 15.2628 23.3345 16.0001C23.3345 16.7374 22.7368 17.3351 21.9995 17.3351C21.2622 17.3351 20.6645 16.7374 20.6645 16.0001Z" fill="#000000" class="bmwfcol"/><path d="M4.54898 16.665L7.88401 20H6.11624L2.11621 16L6.11618 12H7.88395L4.54897 15.335H16V16.665H4.54898Z" fill="#000000" class="bmwfcol"/><path d="M21.6677 3.42409L22 3.23224V4.76796C18.7778 6.62743 17.0049 7.62913 15.2089 8.13966C13.6396 8.5857 12.0661 8.65307 9.54721 8.66321L12.884 12H11.1162L7.11621 7.99997L11.1162 4H12.884L9.55122 7.33273C12.0614 7.32149 13.4574 7.2548 14.8452 6.86033C16.5063 6.38816 18.1743 5.44103 21.6677 3.42409Z" fill="#000000" class="bmwfcol"/><path d="M21.6677 28.576L22 28.7679V27.2321C18.7778 25.3727 17.0049 24.371 15.2089 23.8604C13.6396 23.4144 12.0661 23.347 9.5472 23.3369L12.884 20.0001H11.1162L7.11621 24.0001L11.1162 28.0001H12.884L9.55124 24.6674C12.0614 24.6786 13.4574 24.7453 14.8452 25.1398C16.5063 25.6119 18.1743 26.5591 21.6677 28.576Z" fill="#000000" class="bmwfcol"/><path d="M16.0959 13.7C17.0165 11.3384 19.313 9.66502 22.0004 9.66502C25.4992 9.66502 28.3354 12.5013 28.3354 16C28.3354 19.4987 25.4992 22.335 22.0004 22.335C19.313 22.335 17.0165 20.6616 16.0959 18.3H14.6865C15.6634 21.4095 18.5685 23.665 22.0004 23.665C26.2337 23.665 29.6654 20.2333 29.6654 16C29.6654 11.7668 26.2337 8.33502 22.0004 8.33502C18.5685 8.33502 15.6634 10.5905 14.6865 13.7H16.0959Z" fill="#000000" class="bmwfcol"/><title>bmw-twin-power-turbo_lt_48</title></svg>