<svg width="48" height="48" viewBox="0 0 32 32" xmlns="http://www.w3.org/2000/svg"><path d="M21.665 14.5V6.00002C21.665 4.89752 21.3889 3.94849 20.7202 3.2798C20.0515 2.6111 19.1025 2.33502 18 2.33502H7.99996C6.89746 2.33502 5.94843 2.6111 5.27974 3.2798C4.61104 3.94849 4.33496 4.89752 4.33496 6.00002V26C4.33496 27.1025 4.61104 28.0516 5.27974 28.7202C5.94843 29.3889 6.89746 29.665 7.99996 29.665H18C19.1025 29.665 20.0515 29.3889 20.7202 28.7202C21.3889 28.0516 21.665 27.1025 21.665 26V23.5H20.335V24.335H5.66496V7.66503L20.335 7.66502V14.5H21.665ZM5.66496 6.00002C5.66496 5.10253 5.88888 4.55155 6.22019 4.22025C6.55149 3.88895 7.10247 3.66502 7.99996 3.66502H18C18.8975 3.66502 19.4484 3.88895 19.7797 4.22025C20.111 4.55155 20.335 5.10253 20.335 6.00002V6.33502L5.66496 6.33503V6.00002ZM5.66496 25.665H20.335V26C20.335 26.8975 20.111 27.4485 19.7797 27.7798C19.4484 28.1111 18.8975 28.335 18 28.335H7.99996C7.10247 28.335 6.55149 28.1111 6.22019 27.7798C5.88888 27.4485 5.66496 26.8975 5.66496 26V25.665Z" fill="#000000" class="bmwfcol"/><path d="M11.3942 16.0053H8.83467V22H11.3423C12.0801 22 12.5888 21.8717 12.9604 21.5615C13.3524 21.2469 13.5383 20.7671 13.5383 20.1973C13.5383 19.7829 13.4245 19.4426 13.2467 19.2027C13.1381 19.0579 13.0168 18.9438 12.8883 18.8454C12.9543 18.7398 13.0256 18.625 13.0937 18.5131C13.2688 18.201 13.4121 17.8979 13.4121 17.4964C13.4121 16.9661 13.1738 16.52 12.7607 16.2651C12.3983 16.0494 11.968 16.0053 11.3942 16.0053ZM9.94699 18.402V17.0879H11.3497C11.5365 17.0879 11.6896 17.0935 11.8151 17.1095C11.9414 17.1256 12.0305 17.1527 12.0889 17.1843C12.1678 17.2251 12.2113 17.2698 12.238 17.3187C12.2661 17.3701 12.285 17.4434 12.285 17.5557C12.285 17.7366 12.2204 17.8826 12.0897 18.1077C12.0341 18.2022 11.9742 18.3012 11.9127 18.402H9.94699ZM9.94699 20.9174V19.4846H11.5129C11.8218 19.4846 12.0008 19.522 12.1348 19.613C12.239 19.6846 12.3045 19.7623 12.346 19.8497C12.3883 19.939 12.4111 20.0506 12.4111 20.1973C12.4111 20.4697 12.3353 20.6362 12.1948 20.7418C12.0474 20.8508 11.8196 20.9174 11.3497 20.9174H9.94699Z" fill="#000000" class="bmwfcol"/><path d="M15.8542 16.0053H14.5298V22H15.6347V18.1248L16.8552 20.887H17.8058L19.0263 18.1248V22H20.1312V16.0053H18.8142L17.3342 19.3472L15.8542 16.0053Z" fill="#000000" class="bmwfcol"/><path d="M21.9628 16.0053H20.8272L22.0675 22H23.3689L24.2864 18.7251L25.2102 22H26.5116L27.7439 16.0053H26.6158L25.7688 20.1183L24.8451 16.8512H23.7335L22.8161 20.1178L21.9628 16.0053Z" fill="#000000" class="bmwfcol"/><path d="M29.6427 16.0053H28.5304L28.523 17.1441H29.6353L29.6427 16.0053Z" fill="#000000" class="bmwfcol"/><path d="M29.6353 17.7822H28.5378V22H29.6353V17.7822Z" fill="#000000" class="bmwfcol"/><title>bmwi-remote-app_lt_48</title></svg>