<svg width="48" height="48" viewBox="0 0 32 32" xmlns="http://www.w3.org/2000/svg"><path d="M18.999 6.33499C17.6008 6.33494 16.1584 6.29319 14.8154 6.74466C13.6107 7.14964 12.4401 7.9348 10.7331 9.35573C7.6325 9.6268 5.99083 9.77228 4.83683 10.0288C3.55734 10.3131 2.45617 10.9683 1.33423 11.616L1.33398 16.0136C2.59132 16.3505 3.85292 16.6644 5.16401 16.6656V15.5C5.16401 14.4866 5.98557 13.665 6.99901 13.665C8.01246 13.665 8.83401 14.4866 8.83401 15.5V16.665H13.334V24.335H1.99805V25.665H29.998V24.335H18.664V16.665H22.164V15.5C22.164 14.4866 22.9856 13.665 23.999 13.665C25.0125 13.665 25.834 14.4866 25.834 15.5V16.665C26.6667 16.665 27.5319 16.7302 28.3431 16.5133C29.1772 16.2904 29.9227 15.8121 30.6643 15.3839L30.664 12.7245C30.1798 12.2403 29.664 11.7354 29.664 11L29.6639 9.3906L27.4366 9.19573C26.1274 8.43746 24.8197 7.64035 23.4047 7.09135C22.0965 6.58379 20.7751 6.33499 18.999 6.33499ZM17.334 16.665V24.335H14.664V16.665H17.334ZM15.2392 8.00533C16.2316 7.67173 17.2202 7.66499 18.999 7.66499C20.6315 7.66499 21.7873 7.89041 22.9236 8.3313C24.0319 8.76129 25.1325 9.39851 26.6675 10.2873L27.0263 10.4949L28.334 10.6093L28.334 11.0155C28.3339 11.2706 28.3338 11.6276 28.5066 12.0595C28.6556 12.432 28.9154 12.8209 29.334 13.269L29.3342 14.6136C28.6896 14.9755 28.3254 15.1414 27.9997 15.2284C27.7536 15.2942 27.5151 15.3196 27.1595 15.3292C27.0708 13.6606 25.6897 12.335 23.999 12.335C22.3064 12.335 20.9241 13.6637 20.8382 15.335H10.1598C10.074 13.6637 8.69165 12.335 6.99901 12.335C5.32631 12.335 3.95668 13.6326 3.84181 15.2761C3.59804 15.2291 3.24535 15.1444 2.66404 14.9919L2.66419 12.3843C3.67784 11.8026 4.20675 11.5313 5.12539 11.3271C7.12497 10.8827 9.23219 10.822 11.266 10.6442C12.4643 9.63871 13.7301 8.51265 15.2392 8.00533Z" fill="#000000" class="bmwfcol"/><title>body-works_lt_48</title></svg>