<svg width="48" height="48" viewBox="0 0 32 32" xmlns="http://www.w3.org/2000/svg"><path d="M12 5.335H2.33496V24.665H12C13.0488 24.665 13.8712 25.0117 14.4297 25.5702C14.9882 26.1287 15.335 26.9511 15.335 28V29H16.665V28C16.665 26.9511 17.0117 26.1287 17.5702 25.5702C18.1287 25.0117 18.9511 24.665 20 24.665H29.665V5.335H20C18.6488 5.335 17.4712 5.78827 16.6297 6.62977C16.387 6.87253 16.1765 7.14325 16 7.43804C15.8234 7.14325 15.6129 6.87253 15.3702 6.62977C14.5287 5.78827 13.3511 5.335 12 5.335ZM16.665 24.595V10C16.665 8.95112 17.0117 8.12873 17.5702 7.57023C18.1287 7.01172 18.9511 6.665 20 6.665H28.335V23.335H20C18.6676 23.335 17.504 23.7758 16.665 24.595ZM15.335 10V24.595C14.496 23.7758 13.3323 23.335 12 23.335H3.66496V6.665H12C13.0488 6.665 13.8712 7.01172 14.4297 7.57023C14.9882 8.12873 15.335 8.95112 15.335 10Z" fill="#000000" class="bmwfcol"/><title>book_lt_48</title></svg>