<svg width="48" height="48" viewBox="0 0 32 32" xmlns="http://www.w3.org/2000/svg"><path d="M2.05469 28C3.37307 26.6603 4.59079 25.34 5.69984 24.045V26.0637C5.12605 26.705 4.52827 27.3507 3.90758 28H2.05469Z" fill="#000000" class="bmwfcol"/><path d="M13.391 14.7H11.9441C12.7457 12.894 13.2072 11.2089 13.3116 9.66502H9.33436V8.22457L15.9994 1.55957L22.6644 8.22457V9.66502H18.6872C18.7915 11.2089 19.253 12.894 20.0546 14.7H18.6077C17.7809 12.7005 17.3344 10.7893 17.3344 9.00002V8.33502H20.8939L15.9994 3.44048L11.1048 8.33502H14.6644V9.00002C14.6644 10.7893 14.2178 12.7005 13.391 14.7Z" fill="#000000" class="bmwfcol"/><path d="M28.0911 28C27.4708 27.351 26.8733 26.7058 26.2998 26.0648V24.0462C27.4086 25.3408 28.626 26.6607 29.944 28H28.0911Z" fill="#000000" class="bmwfcol"/><path d="M16.6647 25V20H15.3347V25H16.6647Z" fill="#000000" class="bmwfcol"/><path d="M12.6647 20V25H11.3347V20H12.6647Z" fill="#000000" class="bmwfcol"/><path d="M20.6647 25V20H19.3347V25H20.6647Z" fill="#000000" class="bmwfcol"/><path d="M14.6647 16.335H9.33471V17.335H7.33471V27.665H24.6647V17.335H22.6647V16.335H17.3347V17.335H14.6647V16.335ZM10.6647 18.665V17.665H13.3347V18.665H18.6647V17.665H21.3347V18.665H23.3347V26.335H8.66471V18.665H10.6647Z" fill="#000000" class="bmwfcol"/><title>boost-function_lt_48</title></svg>