<svg width="48" height="48" viewBox="0 0 32 32" xmlns="http://www.w3.org/2000/svg"><path d="M12.666 9.99997V7.99997H11.336V9.99997C11.336 11.0489 10.9893 11.8712 10.4308 12.4297C9.87225 12.9882 9.04986 13.335 8.00098 13.335V14.665C9.3521 14.665 10.5297 14.2117 11.3712 13.3702C12.2127 12.5287 12.666 11.3511 12.666 9.99997Z" fill="#000000" class="bmwfcol"/><path d="M19.336 7.99997V9.99997C19.336 11.3511 19.7893 12.5287 20.6308 13.3702C21.4722 14.2117 22.6499 14.665 24.001 14.665V13.335C22.9521 13.335 22.1297 12.9882 21.5712 12.4297C21.0127 11.8712 20.666 11.0489 20.666 9.99997V7.99997H19.336Z" fill="#000000" class="bmwfcol"/><path d="M26.6659 23V22.7188C28.5655 21.585 29.6659 19.5291 29.6659 17C29.6659 15.5777 29.3193 14.2994 28.6659 13.2466V12C28.6659 9.19898 27.3157 6.98553 25.0445 5.95638C24.0154 3.68523 21.8019 2.33497 19.0009 2.33497L18.9715 2.33496C18.098 2.33486 17.0461 2.33474 16.0009 3.11981C14.9558 2.33474 13.9039 2.33486 13.0304 2.33496L13.0009 2.33497C10.2 2.33497 7.9865 3.68523 6.95735 5.95637C4.6862 6.98552 3.33594 9.19898 3.33594 12V13.2466C2.68259 14.2994 2.33594 15.5777 2.33594 17C2.33594 19.5291 3.43634 21.585 5.33594 22.7188V23C5.33594 24.6511 5.88921 26.0787 6.90571 27.0952C7.92221 28.1117 9.34982 28.665 11.0009 28.665C12.6521 28.665 14.0797 28.1117 15.0962 27.0952C15.4577 26.7336 15.7606 26.3201 16.0009 25.863C16.2412 26.3201 16.5442 26.7336 16.9057 27.0952C17.9222 28.1117 19.3498 28.665 21.0009 28.665C22.6521 28.665 24.0797 28.1117 25.0962 27.0952C26.1127 26.0787 26.6659 24.6511 26.6659 23ZM15.3359 4.29004V19.162C15.2591 19.0735 15.1792 18.9878 15.0962 18.9047C14.0797 17.8882 12.6521 17.335 11.0009 17.335V18.665C12.3498 18.665 13.4222 19.1117 14.1557 19.8452C14.8892 20.5787 15.3359 21.6511 15.3359 23C15.3359 24.3488 14.8892 25.4212 14.1557 26.1547C13.4222 26.8882 12.3498 27.335 11.0009 27.335C9.65206 27.335 8.57967 26.8882 7.84616 26.1547C7.17143 25.48 6.73936 24.5185 6.67446 23.3188C7.39048 23.5471 8.17127 23.665 9.00094 23.665H10.0009V22.335H9.00094C7.96334 22.335 7.05617 22.1179 6.30275 21.7342C4.68271 20.9091 3.66594 19.2522 3.66594 17C3.66594 15.7279 3.99189 14.6514 4.55361 13.812L4.66594 13.6441V12C4.66594 9.57231 5.8466 7.82926 7.7118 7.08004L7.97521 6.97423L8.08101 6.71083C8.83023 4.84563 10.5733 3.66497 13.0009 3.66497C13.9097 3.66497 14.6131 3.67506 15.3359 4.29004ZM16.6659 23C16.6659 21.6511 17.1127 20.5787 17.8462 19.8452C18.5797 19.1117 19.6521 18.665 21.0009 18.665V17.335C19.3498 17.335 17.9222 17.8882 16.9057 18.9047C16.8227 18.9878 16.7427 19.0735 16.6659 19.162V4.29004C17.3887 3.67506 18.0922 3.66497 19.0009 3.66497C21.4286 3.66497 23.1716 4.84563 23.9209 6.71083L24.0267 6.97423L24.2901 7.08004C26.1553 7.82926 27.3359 9.57231 27.3359 12V13.6441L27.4483 13.812C28.01 14.6514 28.3359 15.7279 28.3359 17C28.3359 19.2522 27.3192 20.9091 25.6991 21.7342C24.9457 22.1179 24.0385 22.335 23.0009 22.335H22.0009V23.665H23.0009C23.8306 23.665 24.6114 23.5471 25.3274 23.3188C25.2625 24.5185 24.8304 25.48 24.1557 26.1547C23.4222 26.8882 22.3498 27.335 21.0009 27.335C19.6521 27.335 18.5797 26.8882 17.8462 26.1547C17.1127 25.4212 16.6659 24.3488 16.6659 23Z" fill="#000000" class="bmwfcol"/><title>brain_lt_48</title></svg>