<svg width="48" height="48" viewBox="0 0 32 32" xmlns="http://www.w3.org/2000/svg"><path d="M6.33594 16C6.33594 10.6622 10.6631 6.33502 16.0009 6.33502C21.3388 6.33502 25.6659 10.6622 25.6659 16C25.6659 21.3379 21.3388 25.665 16.0009 25.665C10.6631 25.665 6.33594 21.3379 6.33594 16ZM16.0009 7.66502C11.3976 7.66502 7.66594 11.3967 7.66594 16C7.66594 17.1689 7.90653 18.2815 8.3409 19.2912C8.9132 19.1406 9.33528 18.6196 9.33528 18H10.6653C10.6653 18.7373 11.263 19.335 12.0003 19.335C12.7376 19.335 13.3353 18.7373 13.3353 18H14.6653C14.6653 18.7373 15.263 19.335 16.0003 19.335C16.7376 19.335 17.3353 18.7373 17.3353 18H18.6653C18.6653 18.7373 19.263 19.335 20.0003 19.335C20.7376 19.335 21.3353 18.7373 21.3353 18H22.6653C22.6653 18.62 23.0879 19.1413 23.6608 19.2915C24.0953 18.2817 24.3359 17.169 24.3359 16C24.3359 11.3967 20.6042 7.66502 16.0009 7.66502ZM23.0292 20.4825C22.6305 20.3265 22.2786 20.0771 22.0003 19.7614C21.5119 20.3155 20.7969 20.665 20.0003 20.665C19.2036 20.665 18.4886 20.3155 18.0003 19.7614C17.5119 20.3155 16.7969 20.665 16.0003 20.665C15.2036 20.665 14.4886 20.3155 14.0003 19.7614C13.5119 20.3155 12.7969 20.665 12.0003 20.665C11.2036 20.665 10.4886 20.3155 10.0003 19.7614C9.72221 20.0769 9.37067 20.326 8.97241 20.4821C10.4529 22.7989 13.0475 24.335 16.0009 24.335C18.9542 24.335 21.5486 22.7991 23.0292 20.4825Z" fill="#000000" class="bmwfcol"/><path d="M6.6117 8H4.92126C3.29467 10.2488 2.33594 13.0125 2.33594 16C2.33594 18.9876 3.29466 21.7512 4.92123 24H6.61166C4.77478 21.8462 3.66594 19.0526 3.66594 16C3.66594 12.9474 4.7748 10.1538 6.6117 8Z" fill="#000000" class="bmwfcol"/><path d="M25.3902 24C27.2271 21.8462 28.3359 19.0526 28.3359 16C28.3359 12.9474 27.2271 10.1538 25.3902 8H27.0806C28.7072 10.2488 29.6659 13.0125 29.6659 16C29.6659 18.9876 28.7072 21.7512 27.0806 24H25.3902Z" fill="#000000" class="bmwfcol"/><title>brake-liquid-service_lt_48</title></svg>