<svg width="48" height="48" viewBox="0 0 32 32" xmlns="http://www.w3.org/2000/svg"><path d="M16.0009 3.33502C14.868 3.33502 13.7687 3.48396 12.7223 3.76369L13.0657 5.04858C14.0012 4.79852 14.985 4.66502 16.0009 4.66502C17.0169 4.66502 18.0007 4.79852 18.9362 5.04858L19.2796 3.76369C18.2331 3.48396 17.1339 3.33502 16.0009 3.33502Z" fill="#000000" class="bmwfcol"/><path d="M16 11.125C15.5168 11.125 15.125 11.5168 15.125 12C15.125 12.4832 15.5168 12.875 16 12.875C16.4832 12.875 16.875 12.4832 16.875 12C16.875 11.5168 16.4832 11.125 16 11.125Z" fill="#000000" class="bmwfcol"/><path d="M16 14.75C15.3096 14.75 14.75 15.3096 14.75 16C14.75 16.6904 15.3096 17.25 16 17.25C16.6904 17.25 17.25 16.6904 17.25 16C17.25 15.3096 16.6904 14.75 16 14.75Z" fill="#000000" class="bmwfcol"/><path d="M12.1953 13.8887C11.7121 13.8887 11.3203 14.2804 11.3203 14.7637C11.3203 15.2469 11.7121 15.6387 12.1953 15.6387C12.6786 15.6387 13.0703 15.2469 13.0703 14.7637C13.0703 14.2804 12.6786 13.8887 12.1953 13.8887Z" fill="#000000" class="bmwfcol"/><path d="M13.6484 18.3613C13.1652 18.3613 12.7734 18.7531 12.7734 19.2363C12.7734 19.7196 13.1652 20.1113 13.6484 20.1113C14.1317 20.1113 14.5234 19.7196 14.5234 19.2363C14.5234 18.7531 14.1317 18.3613 13.6484 18.3613Z" fill="#000000" class="bmwfcol"/><path d="M19.8047 15.6387C19.3214 15.6387 18.9297 15.2469 18.9297 14.7637C18.9297 14.2804 19.3214 13.8887 19.8047 13.8887C20.2879 13.8887 20.6797 14.2804 20.6797 14.7637C20.6797 15.2469 20.2879 15.6387 19.8047 15.6387Z" fill="#000000" class="bmwfcol"/><path d="M18.3516 20.1113C17.8683 20.1113 17.4766 19.7196 17.4766 19.2363C17.4766 18.7531 17.8683 18.3613 18.3516 18.3613C18.8348 18.3613 19.2266 18.7531 19.2266 19.2363C19.2266 19.7196 18.8348 20.1113 18.3516 20.1113Z" fill="#000000" class="bmwfcol"/><path d="M22.3349 5.03036C23.7936 5.87434 25.0681 7.00075 26.0839 8.335H28.5099L28.702 8.66702C29.9501 10.8247 30.6643 13.33 30.6643 16C30.6643 18.67 29.9501 21.1753 28.702 23.333L28.5099 23.665H26.0839C25.0681 24.9993 23.7936 26.1257 22.3349 26.9697L21.6689 25.8185C22.771 25.1808 23.756 24.3627 24.5833 23.4048C24.4283 23.3121 24.2874 23.198 24.1484 23.073C23.9791 22.9207 23.7812 22.7231 23.542 22.4841L21.9237 20.8658C20.5179 22.575 18.3867 23.665 16.0009 23.665C11.7677 23.665 8.33594 20.2333 8.33594 16C8.33594 11.7668 11.7677 8.33502 16.0009 8.33502C18.3867 8.33502 20.5179 9.42502 21.9237 11.1342L23.542 9.51588C23.7813 9.27688 23.9791 9.07922 24.1484 8.92699C24.2874 8.802 24.4283 8.68788 24.5832 8.59523C23.7559 7.6373 22.771 6.81925 21.6689 6.18156L22.3349 5.03036ZM22.688 12.2508C23.3108 13.3592 23.6659 14.6381 23.6659 16C23.6659 17.3619 23.3108 18.6408 22.688 19.7492L24.4693 21.5305C24.7242 21.7851 24.8975 21.9579 25.0376 22.084C25.1764 22.2087 25.2497 22.2568 25.2965 22.2802C25.377 22.3204 25.449 22.335 25.9993 22.335H27.7365C28.7556 20.4511 29.3343 18.2941 29.3343 16C29.3343 13.706 28.7556 11.5489 27.7365 9.665H25.9993C25.4489 9.66498 25.377 9.67958 25.2965 9.71978C25.2498 9.74312 25.1765 9.79121 25.0377 9.91598C24.8975 10.042 24.7242 10.2148 24.4693 10.4695L22.688 12.2508ZM9.66594 16C9.66594 19.4987 12.5022 22.335 16.0009 22.335C19.4997 22.335 22.3359 19.4987 22.3359 16C22.3359 12.5013 19.4997 9.66502 16.0009 9.66502C12.5022 9.66502 9.66594 12.5013 9.66594 16Z" fill="#000000" class="bmwfcol"/><path d="M9.66694 5.03037C7.74524 6.14224 6.14316 7.74433 5.03128 9.66603L6.18247 10.3321C7.17785 8.61175 8.61267 7.17694 10.333 6.18156L9.66694 5.03037Z" fill="#000000" class="bmwfcol"/><path d="M3.7646 12.7213C3.48487 13.7678 3.33594 14.867 3.33594 16C3.33594 17.133 3.48487 18.2322 3.76461 19.2787L5.04949 18.9353C4.79944 17.9998 4.66594 17.016 4.66594 16C4.66594 14.984 4.79944 14.0002 5.04949 13.0648L3.7646 12.7213Z" fill="#000000" class="bmwfcol"/><path d="M5.03128 22.334C6.14316 24.2557 7.74525 25.8578 9.66694 26.9697L10.333 25.8185C8.61267 24.8231 7.17786 23.3883 6.18248 21.6679L5.03128 22.334Z" fill="#000000" class="bmwfcol"/><path d="M12.7223 28.2364C13.7687 28.5161 14.868 28.665 16.0009 28.665C17.1339 28.665 18.2331 28.5161 19.2796 28.2364L18.9362 26.9515C18.0007 27.2015 17.0169 27.335 16.0009 27.335C14.985 27.335 14.0012 27.2015 13.0657 26.9515L12.7223 28.2364Z" fill="#000000" class="bmwfcol"/><title>brake-pads_lt_48</title></svg>