<svg width="48" height="48" viewBox="0 0 32 32" xmlns="http://www.w3.org/2000/svg"><path d="M16.0009 8.33502C11.7677 8.33502 8.33594 11.7668 8.33594 16C8.33594 20.2333 11.7677 23.665 16.0009 23.665C20.2342 23.665 23.6659 20.2333 23.6659 16C23.6659 11.7668 20.2342 8.33502 16.0009 8.33502ZM9.66594 16C9.66594 12.5013 12.5022 9.66502 16.0009 9.66502C19.4997 9.66502 22.3359 12.5013 22.3359 16C22.3359 19.4987 19.4997 22.335 16.0009 22.335C12.5022 22.335 9.66594 19.4987 9.66594 16Z" fill="#000000" class="bmwfcol"/><path d="M16.0009 3.33502C9.00625 3.33502 3.33594 9.00534 3.33594 16C3.33594 22.9947 9.00625 28.665 16.0009 28.665C22.9956 28.665 28.6659 22.9947 28.6659 16C28.6659 9.00534 22.9956 3.33502 16.0009 3.33502ZM4.66594 16C4.66594 9.73987 9.74079 4.66502 16.0009 4.66502C22.2611 4.66502 27.3359 9.73987 27.3359 16C27.3359 22.2602 22.2611 27.335 16.0009 27.335C9.74079 27.335 4.66594 22.2602 4.66594 16Z" fill="#000000" class="bmwfcol"/><path d="M15.125 12C15.125 11.5168 15.5168 11.125 16 11.125C16.4832 11.125 16.875 11.5168 16.875 12C16.875 12.4832 16.4832 12.875 16 12.875C15.5168 12.875 15.125 12.4832 15.125 12Z" fill="#000000" class="bmwfcol"/><path d="M14.75 16C14.75 15.3096 15.3096 14.75 16 14.75C16.6904 14.75 17.25 15.3096 17.25 16C17.25 16.6904 16.6904 17.25 16 17.25C15.3096 17.25 14.75 16.6904 14.75 16Z" fill="#000000" class="bmwfcol"/><path d="M12.1953 13.8887C11.7121 13.8887 11.3203 14.2804 11.3203 14.7637C11.3203 15.2469 11.7121 15.6387 12.1953 15.6387C12.6786 15.6387 13.0703 15.2469 13.0703 14.7637C13.0703 14.2804 12.6786 13.8887 12.1953 13.8887Z" fill="#000000" class="bmwfcol"/><path d="M12.7734 19.2363C12.7734 18.7531 13.1652 18.3613 13.6484 18.3613C14.1317 18.3613 14.5234 18.7531 14.5234 19.2363C14.5234 19.7196 14.1317 20.1113 13.6484 20.1113C13.1652 20.1113 12.7734 19.7196 12.7734 19.2363Z" fill="#000000" class="bmwfcol"/><path d="M19.8047 15.6387C19.3214 15.6387 18.9297 15.2469 18.9297 14.7637C18.9297 14.2804 19.3214 13.8887 19.8047 13.8887C20.2879 13.8887 20.6797 14.2804 20.6797 14.7637C20.6797 15.2469 20.2879 15.6387 19.8047 15.6387Z" fill="#000000" class="bmwfcol"/><path d="M17.4766 19.2363C17.4766 19.7196 17.8683 20.1113 18.3516 20.1113C18.8348 20.1113 19.2266 19.7196 19.2266 19.2363C19.2266 18.7531 18.8348 18.3613 18.3516 18.3613C17.8683 18.3613 17.4766 18.7531 17.4766 19.2363Z" fill="#000000" class="bmwfcol"/><title>brake-discs_lt_48</title></svg>