<svg width="48" height="48" viewBox="0 0 32 32" xmlns="http://www.w3.org/2000/svg"><path d="M16.8052 20.4151H24.3359V21.6651H29.6659V13.0429C29.6659 12.3237 29.2574 11.6627 28.7972 11.1013C28.3392 10.5427 27.729 9.96557 27.1034 9.38976C27.2691 9.29941 27.4796 9.24071 27.8086 9.20619C28.3024 9.15437 28.9595 9.16513 29.9992 9.16513V7.83513C29.015 7.83513 28.2539 7.82216 27.6698 7.88345C27.2316 7.92943 26.8479 8.02045 26.4957 8.20648C26.0882 7.43535 25.5484 6.52288 24.9381 5.82953C24.6211 5.46946 24.2424 5.12238 23.8193 4.93582C22.6624 4.42758 21.8513 4.33508 18.001 4.33508C14.1504 4.33508 13.3406 4.42765 12.1828 4.93575C11.7591 5.12174 11.3809 5.4685 11.0639 5.82849C10.453 6.5222 9.91295 7.43582 9.50544 8.20757C9.15256 8.02084 8.76831 7.92953 8.32919 7.88345C7.74523 7.82217 6.98396 7.83513 6 7.83513V9.16513C7.03944 9.16513 7.69666 9.15437 8.19038 9.20618C8.52037 9.24081 8.7313 9.29979 8.89743 9.39073C8.31165 9.9312 7.70986 10.4851 7.20468 11.1013C7.04432 11.2969 6.89024 11.5046 6.75753 11.7226L8.41967 11.7266C8.74977 11.3552 9.16136 10.9591 9.62553 10.5288C9.69961 10.4737 9.83079 10.4076 10.0873 10.3491C10.3999 10.2779 10.846 10.2292 11.5041 10.1999C12.5018 10.1555 13.8953 10.1583 15.8894 10.1623C16.5289 10.1635 17.2301 10.1649 17.9999 10.1649C18.7698 10.1649 19.471 10.1635 20.1105 10.1623C22.1042 10.1583 23.4971 10.1555 24.4941 10.1999C25.1518 10.2292 25.5975 10.2779 25.9097 10.3491C26.2165 10.4191 26.3438 10.5 26.4088 10.56C26.9951 11.1044 27.6174 11.6594 28.0581 12.335H23V13.665H28.3359V20.3351H25.6659V19.0851H16.0373L16.8052 20.4151ZM18.001 5.66508C21.8999 5.66508 22.425 5.776 23.284 6.15335C23.9149 6.4322 24.3729 7.22948 24.7209 7.78418C24.9625 8.16906 25.1841 8.56689 25.3712 8.92603C25.1235 8.90213 24.8517 8.88453 24.5533 8.87125C23.5226 8.82536 22.0845 8.82825 20.0772 8.83228C19.3847 8.83313 18.6923 8.83494 17.9999 8.83494C17.2474 8.83494 16.5567 8.83355 15.9227 8.83228C13.9151 8.82825 12.4762 8.82536 11.4449 8.87125C11.1481 8.88446 10.8774 8.90193 10.6307 8.92562C10.8178 8.56633 11.0394 8.16831 11.281 7.78324C11.6284 7.2295 12.0866 6.4306 12.7173 6.1536C13.5778 5.77598 14.1018 5.66508 18.001 5.66508Z" fill="#000000" class="bmwfcol"/><path d="M14.0128 23.9275L9.99859 17.0346L5.98438 23.9275H14.0128ZM11.6992 22.5975H8.29802L9.99859 19.6774L11.6992 22.5975Z" fill="#000000" class="bmwfcol"/><path d="M8.5192 14.1893C9.17679 13.0503 10.8208 13.0503 11.4784 14.1893L17.2017 24.1023C17.8593 25.2413 17.0373 26.665 15.7221 26.665H15.6659V29H14.3359V26.665H5.66594V29H4.33594V26.665H4.27548C2.96029 26.665 2.1383 25.2413 2.79589 24.1023L8.5192 14.1893ZM10.3266 14.8543C10.1809 14.6019 9.81669 14.6019 9.67101 14.8543L3.94771 24.7673C3.80203 25.0196 3.98413 25.335 4.27548 25.335H15.7221C16.0134 25.335 16.1955 25.0196 16.0499 24.7673L10.3266 14.8543Z" fill="#000000" class="bmwfcol"/><title>breakdown-service_lt_48</title></svg>