<svg width="48" height="48" viewBox="0 0 32 32" xmlns="http://www.w3.org/2000/svg"><path d="M28.664 11V15.8202C28.2465 15.4996 27.8015 15.2214 27.334 14.9855V11C27.334 10.5857 27.1811 10.2961 26.8713 10.0823C26.5267 9.84456 25.9306 9.66496 24.999 9.66496H6.99898C6.06742 9.66496 5.47122 9.84456 5.12665 10.0823C4.81688 10.2961 4.66398 10.5857 4.66398 11V25C4.66398 25.4142 4.81688 25.7039 5.12665 25.9176C5.47122 26.1554 6.06742 26.335 6.99898 26.335H14.5578C14.7225 26.7962 14.9238 27.2408 15.1617 27.665H6.99898C5.93055 27.665 5.02675 27.4646 4.37131 27.0123C3.68109 26.5361 3.33398 25.8257 3.33398 25V11C3.33398 10.1742 3.68109 9.46386 4.37131 8.98761C5.02675 8.53536 5.93055 8.33496 6.99898 8.33496H9.92112L10.057 7.82782C10.4604 6.32249 10.9148 5.29554 11.9621 4.77864C12.4548 4.53546 13.0253 4.43306 13.6647 4.3838C14.2987 4.33495 15.0658 4.33496 15.9754 4.33496H16.0241C16.9337 4.33496 17.7008 4.33495 18.3348 4.3838C18.9741 4.43306 19.5446 4.53546 20.0373 4.77864C21.0846 5.29554 21.5391 6.32249 21.9424 7.82782L22.0783 8.33496H24.999C26.0674 8.33496 26.9712 8.53536 27.6267 8.98761C28.3169 9.46386 28.664 10.1742 28.664 11ZM20.7014 8.33496L20.6578 8.17205C20.2573 6.67741 19.9209 6.20437 19.4487 5.97128C19.1816 5.83946 18.8102 5.75437 18.2326 5.70987C17.6555 5.6654 16.9388 5.66496 15.9997 5.66496C15.0606 5.66496 14.344 5.6654 13.7668 5.70987C13.1893 5.75437 12.8178 5.83946 12.5508 5.97128C12.0785 6.20437 11.7422 6.67741 11.3417 8.17205L11.298 8.33496H20.7014Z" fill="#000000" class="bmwfcol"/><path d="M23.6659 22.335V19H22.3359V23.665L26.0009 23.665V22.335H23.6659Z" fill="#000000" class="bmwfcol"/><path d="M18.1807 18.1797C19.3722 16.9882 21.0498 16.335 23.0009 16.335C24.9521 16.335 26.6297 16.9882 27.8212 18.1797C29.0127 19.3712 29.6659 21.0488 29.6659 23C29.6659 24.9511 29.0127 26.6287 27.8212 27.8202C26.6297 29.0117 24.9521 29.665 23.0009 29.665C21.0498 29.665 19.3722 29.0117 18.1807 27.8202C16.9892 26.6287 16.3359 24.9511 16.3359 23C16.3359 21.0488 16.9892 19.3712 18.1807 18.1797ZM19.1212 19.1202C18.2127 20.0287 17.6659 21.3511 17.6659 23C17.6659 24.6488 18.2127 25.9712 19.1212 26.8797C20.0297 27.7882 21.3521 28.335 23.0009 28.335C24.6498 28.335 25.9722 27.7882 26.8807 26.8797C27.7892 25.9712 28.3359 24.6488 28.3359 23C28.3359 21.3511 27.7892 20.0287 26.8807 19.1202C25.9722 18.2117 24.6498 17.665 23.0009 17.665C21.3521 17.665 20.0297 18.2117 19.1212 19.1202Z" fill="#000000" class="bmwfcol"/><title>briefcase_and_clock_lt_48</title></svg>