<svg width="48" height="48" viewBox="0 0 32 32" xmlns="http://www.w3.org/2000/svg"><path d="M18 16.165H14V14.835H18V16.165Z" fill="#000000" class="bmwfcol"/><path d="M16 4.33496C16.9202 4.33496 17.6953 4.33451 18.335 4.38379C18.9741 4.43303 19.5445 4.53532 20.0371 4.77832C21.0844 5.29523 21.539 6.32279 21.9424 7.82813L22.0781 8.33496H25C26.0684 8.33496 26.9725 8.53506 27.6279 8.9873C28.3181 9.46356 28.665 10.1743 28.665 11V25L28.6611 25.1533C28.6205 25.9136 28.275 26.5662 27.6279 27.0127C26.9725 27.4649 26.0684 27.665 25 27.665H7C5.93156 27.665 5.0275 27.4649 4.37207 27.0127C3.68186 26.5364 3.33496 25.8257 3.33496 25V11C3.33496 10.1743 3.68186 9.46356 4.37207 8.9873C5.0275 8.53506 5.93156 8.33496 7 8.33496H9.9209C9.96649 8.16541 10.0169 7.98017 10.0576 7.82813L10.2119 7.28613C10.5834 6.074 11.0456 5.23067 11.9619 4.77832C12.4546 4.53514 13.0257 4.43304 13.665 4.38379C14.3047 4.33452 15.0798 4.33496 16 4.33496ZM27.335 18.2725C26.7532 18.6377 26.0086 18.8974 25.1426 19.0869C23.0622 19.542 19.9923 19.665 16 19.665C12.0077 19.665 8.93778 19.542 6.85742 19.0869C5.99142 18.8974 5.24683 18.6377 4.66504 18.2725V25C4.66504 25.4142 4.81815 25.7042 5.12793 25.918C5.47255 26.1556 6.06873 26.335 7 26.335H25C25.9313 26.335 26.5275 26.1556 26.8721 25.918C27.1432 25.7309 27.2947 25.4854 27.3281 25.1494L27.335 25V18.2725ZM7 9.66504C6.06873 9.66504 5.47255 9.84439 5.12793 10.082C4.81815 10.2958 4.66504 10.5858 4.66504 11V16C4.66504 16.4126 4.81492 16.7245 5.16406 17.0029C5.54698 17.3081 6.18137 17.5778 7.14258 17.7881C9.06223 18.2079 11.9927 18.335 16 18.335C20.0073 18.335 22.9378 18.2079 24.8574 17.7881C25.8186 17.5778 26.453 17.3081 26.8359 17.0029C27.1851 16.7245 27.335 16.4126 27.335 16V11L27.3281 10.8506C27.2947 10.5146 27.1432 10.2691 26.8721 10.082C26.5275 9.84439 25.9313 9.66504 25 9.66504H7ZM16 5.66504C15.0609 5.66504 14.3438 5.66549 13.7666 5.70996C13.1893 5.75446 12.8178 5.83989 12.5508 5.97168C12.1377 6.17569 11.8283 6.56325 11.4893 7.6582L11.3418 8.17188C11.3281 8.2231 11.3131 8.27804 11.2979 8.33496H20.7021L20.6582 8.17188C20.2578 6.67776 19.9213 6.20483 19.4492 5.97168C19.1821 5.83986 18.8099 5.75445 18.2324 5.70996C17.6553 5.66553 16.9389 5.66504 16 5.66504Z" fill="#000000" class="bmwfcol"/><title>briefcase_lt_48</title></svg>