<svg width="48" height="48" viewBox="0 0 32 32" xmlns="http://www.w3.org/2000/svg"><path d="M7 21.335H13V22.665H7V21.335Z" fill="#000000" class="bmwfcol"/><path d="M15 16.335H9V17.665H15V16.335Z" fill="#000000" class="bmwfcol"/><path d="M7 8.33496H13V9.66496H7V8.33496Z" fill="#000000" class="bmwfcol"/><path d="M21 22.665H25V21.335H21V22.665Z" fill="#000000" class="bmwfcol"/><path d="M25 17.665H21V16.335H25V17.665Z" fill="#000000" class="bmwfcol"/><path d="M3.33496 26.335V5.99996C3.33496 5.55302 3.47466 5.11981 3.79723 4.79724C4.11981 4.47466 4.55302 4.33496 4.99996 4.33496H17C17.4469 4.33496 17.8801 4.47466 18.2027 4.79724C18.5253 5.11981 18.665 5.55302 18.665 5.99996V12.335H27C27.4469 12.335 27.8801 12.4747 28.2027 12.7972C28.5253 13.1198 28.665 13.553 28.665 14V26.335H30V27.665H2V26.335H3.33496ZM4.66496 5.99996V26.335H17.335V5.99996C17.335 5.8269 17.2847 5.76012 17.2622 5.73769C17.2398 5.71526 17.173 5.66496 17 5.66496H4.99996C4.8269 5.66496 4.76012 5.71526 4.73769 5.73769C4.71526 5.76012 4.66496 5.8269 4.66496 5.99996ZM27.335 26.335V14C27.335 13.8269 27.2847 13.7601 27.2622 13.7377C27.2398 13.7153 27.173 13.665 27 13.665H18.665V26.335H27.335Z" fill="#000000" class="bmwfcol"/><title>building_lt_48</title></svg>