<svg width="48" height="48" viewBox="0 0 32 32" xmlns="http://www.w3.org/2000/svg"><path d="M13 21.665H11V20.335H13V21.665Z" fill="#000000" class="bmwfcol"/><path d="M11 17.665H13V16.335H11V17.665Z" fill="#000000" class="bmwfcol"/><path d="M21 21.665H15V20.335H21V21.665Z" fill="#000000" class="bmwfcol"/><path d="M15 17.665H21V16.335H15V17.665Z" fill="#000000" class="bmwfcol"/><path d="M26.665 14.9004C26.6652 13.7416 26.6654 12.884 26.3749 12.0852C26.0701 11.247 25.4725 10.5321 24.4702 9.52976L20.4702 5.52976C19.4678 4.5274 18.7529 3.92983 17.9147 3.62502C17.116 3.33457 16.2584 3.33474 15.0995 3.33497L5.33496 3.33499V28.665H26.665V14.9004ZM15.0176 4.66499C15.8488 4.66752 16.358 4.85012 16.6907 5.23489C17.0508 5.65134 17.335 6.45051 17.335 7.99996V12.665H22C23.5495 12.665 24.3486 12.9492 24.7651 13.3093C25.1493 13.6414 25.3319 14.1497 25.335 14.9787V27.335H6.66496V4.66499H15.0176ZM18.2645 5.32803C18.6024 5.58014 19.0012 5.94163 19.5297 6.47021L23.5297 10.4702C24.0583 10.9988 24.4198 11.3975 24.6719 11.7355C23.9678 11.4595 23.0802 11.335 22 11.335H18.665V7.99996C18.665 6.91972 18.5405 6.03211 18.2645 5.32803Z" fill="#000000" class="bmwfcol"/><title>bulletlist_lt_48</title></svg>