<svg width="48" height="48" viewBox="0 0 32 32" xmlns="http://www.w3.org/2000/svg"><path d="M7 26.2311V27.7677L6.66767 27.5758C4.70617 26.4433 3.46889 25.7098 2.87384 24.0452C2.58994 23.251 2.46163 22.2785 2.39831 21.0131C2.33496 19.7471 2.33496 18.1277 2.33496 16.0189C2.33496 13.91 2.33496 12.2529 2.39831 10.9869C2.46163 9.72147 2.58994 8.74891 2.87384 7.95476C3.46889 6.29019 4.70615 5.55669 6.66765 4.42412L7 4.23224V5.76886C5.20925 6.81316 4.50842 7.33332 4.12622 8.40246C3.91008 9.0071 3.78835 9.82022 3.72665 11.0533C3.66517 12.282 3.66496 13.868 3.66496 16C3.66496 18.1319 3.66517 19.7179 3.72665 20.9466C3.78835 22.1797 3.91008 22.9929 4.12622 23.5975C4.50842 24.6666 5.20925 25.1868 7 26.2311Z" fill="#000000" class="bmwfcol"/><path d="M25 5.76887V4.23224L25.3323 4.42409C27.2938 5.55666 28.531 6.29016 29.1261 7.95473C29.41 8.74888 29.5383 9.72144 29.6016 10.9868C29.665 12.2528 29.665 13.91 29.665 16.0188C29.665 18.1277 29.665 19.7471 29.6016 21.0131C29.5383 22.2785 29.41 23.251 29.1261 24.0452C28.531 25.7097 27.2938 26.4432 25.3323 27.5758L25 27.7677V26.231C26.7907 25.1867 27.4915 24.6666 27.8737 23.5975C28.0899 22.9928 28.2116 22.1797 28.2733 20.9466C28.3348 19.7179 28.335 18.1319 28.335 15.9999C28.335 13.868 28.3348 12.282 28.2733 11.0533C28.2116 9.8202 28.0899 9.00707 27.8737 8.40244C27.4915 7.3333 26.7907 6.81315 25 5.76887Z" fill="#000000" class="bmwfcol"/><path d="M8.96064 13.9606C8.79446 14.1268 8.665 14.4019 8.665 14.8333V22.1667C8.665 22.598 8.79446 22.8732 8.96064 23.0393C9.12682 23.2055 9.40194 23.335 9.83333 23.335H17.1667C17.5981 23.335 17.8732 23.2055 18.0394 23.0393C18.2055 22.8732 18.335 22.598 18.335 22.1667V14.8333C18.335 14.4019 18.2055 14.1268 18.0394 13.9606C17.8732 13.7944 17.5981 13.665 17.1667 13.665H9.83333C9.40194 13.665 9.12682 13.7944 8.96064 13.9606ZM8.02019 13.0202C8.48651 12.5539 9.12806 12.335 9.83333 12.335H17.1667C17.8719 12.335 18.5135 12.5539 18.9798 13.0202C19.4461 13.4865 19.665 14.128 19.665 14.8333V22.1667C19.665 22.8719 19.4461 23.5135 18.9798 23.9798C18.5135 24.4461 17.8719 24.665 17.1667 24.665H9.83333C9.12806 24.665 8.48651 24.4461 8.02019 23.9798C7.55387 23.5135 7.335 22.8719 7.335 22.1667V14.8333C7.335 14.128 7.55387 13.4865 8.02019 13.0202Z" fill="#000000" class="bmwfcol"/><path d="M13.9606 8.96063C13.7945 9.1268 13.665 9.40192 13.665 9.83332V11H12.335V9.83332C12.335 9.12804 12.5539 8.48649 13.0202 8.02017C13.4865 7.55385 14.1281 7.33498 14.8333 7.33498H22.1667C22.8719 7.33498 23.5135 7.55385 23.9798 8.02017C24.4461 8.48649 24.665 9.12804 24.665 9.83332V17.1666C24.665 17.8719 24.4461 18.5135 23.9798 18.9798C23.5135 19.4461 22.8719 19.665 22.1667 19.665H21V18.335H22.1667C22.5981 18.335 22.8732 18.2055 23.0394 18.0393C23.2055 17.8732 23.335 17.598 23.335 17.1666V9.83332C23.335 9.40192 23.2055 9.1268 23.0394 8.96063C22.8732 8.79445 22.5981 8.66498 22.1667 8.66498H14.8333C14.4019 8.66498 14.1268 8.79445 13.9606 8.96063Z" fill="#000000" class="bmwfcol"/><title>bundle_lt_48</title></svg>