<svg width="48" height="48" viewBox="0 0 32 32" xmlns="http://www.w3.org/2000/svg"><path d="M2.33624 9.33496L29.5113 9.33497L29.6433 9.82786C30.1413 11.6863 30.4012 12.7208 30.5326 13.5446C30.666 14.3803 30.6659 14.9942 30.6659 15.975V19.3839L30.3334 19.5758C29.4703 20.0742 28.9 20.3679 28.326 20.5182C27.7651 20.6651 27.2322 20.665 26.5111 20.6649L25.5823 20.6649C25.2869 21.815 24.2432 22.665 23.0009 22.665C21.7587 22.665 20.715 21.815 20.4196 20.6649H10.5823C10.2869 21.815 9.24318 22.665 8.00094 22.665C6.7587 22.665 5.71497 21.815 5.41957 20.6649H1.33594V17.9595C1.33593 16.4962 1.33592 15.6378 1.46719 14.6842C1.59689 13.742 1.85289 12.7183 2.33624 10.9124V9.33496ZM26.4507 19.3349C27.2488 19.3349 27.611 19.3306 27.9891 19.2316C28.3177 19.1455 28.683 18.98 29.3359 18.6135V16C29.3359 15.8819 29.3359 15.7706 29.3357 15.665H2.70519C2.66652 16.2713 2.66594 16.9595 2.66594 17.9999V19.3349H5.41958C5.715 18.1849 6.75871 17.335 8.00094 17.335C9.24316 17.335 10.2869 18.1849 10.5823 19.3349H20.4196C20.715 18.1849 21.7587 17.335 23.0009 17.335C24.2432 17.335 25.2869 18.1849 25.5823 19.3349L26.4507 19.3349ZM6.33594 14.335V10.665L3.66624 10.665V11.0875L3.64358 11.1721C3.24109 12.6742 3.00818 13.5885 2.87062 14.335H6.33594ZM7.66594 14.335H12.1343L11.151 10.665L7.66594 10.665V14.335ZM12.5279 10.665L13.5113 14.335H18.1343L17.151 10.665L12.5279 10.665ZM18.5279 10.665L19.5113 14.335H24.1343L23.151 10.665L18.5279 10.665ZM24.5279 10.665L25.5113 14.335H29.2924C29.2755 14.1475 29.2519 13.9591 29.2192 13.7542C29.1116 13.0791 28.9036 12.2207 28.4902 10.665L24.5279 10.665ZM8.00094 18.665C7.26364 18.665 6.66594 19.2627 6.66594 20C6.66594 20.7373 7.26364 21.335 8.00094 21.335C8.73824 21.335 9.33594 20.7373 9.33594 20C9.33594 19.2627 8.73824 18.665 8.00094 18.665ZM21.6659 20C21.6659 20.7373 22.2636 21.335 23.0009 21.335C23.7382 21.335 24.3359 20.7373 24.3359 20C24.3359 19.2627 23.7382 18.665 23.0009 18.665C22.2636 18.665 21.6659 19.2627 21.6659 20Z" fill="#000000" class="bmwfcol"/><title>bus_lt_48</title></svg>