<svg width="48" height="48" viewBox="0 0 32 32" xmlns="http://www.w3.org/2000/svg"><path d="M9.99996 19.835C9.35655 19.835 8.83496 20.3565 8.83496 21C8.83496 21.6434 9.35655 22.165 9.99996 22.165C10.6434 22.165 11.165 21.6434 11.165 21C11.165 20.3565 10.6434 19.835 9.99996 19.835Z" fill="#000000" class="bmwfcol"/><path d="M22 19.835C21.3565 19.835 20.835 20.3565 20.835 21C20.835 21.6434 21.3565 22.165 22 22.165C22.6434 22.165 23.165 21.6434 23.165 21C23.165 20.3565 22.6434 19.835 22 19.835Z" fill="#000000" class="bmwfcol"/><path d="M15.9199 3.33496H16.0782C19.508 3.33495 21.7995 3.33494 23.4752 3.59272C25.2249 3.86187 26.3597 4.41931 27.4702 5.52994L27.665 5.72471V27C27.665 27.4469 27.5253 27.8801 27.2027 28.2027C26.8801 28.5253 26.4469 28.665 26 28.665H23C22.553 28.665 22.1198 28.5253 21.7972 28.2027C21.4747 27.8801 21.335 27.4469 21.335 27V25.665L10.665 25.665V27C10.665 27.4469 10.5253 27.8801 10.2027 28.2027C9.88012 28.5253 9.4469 28.665 8.99996 28.665H5.99996C5.55302 28.665 5.11981 28.5253 4.79723 28.2027C4.47466 27.8801 4.33496 27.4469 4.33496 27L4.33497 5.72471L4.52972 5.52994C5.64027 4.41929 6.77446 3.8618 8.52391 3.59265C10.199 3.33494 12.49 3.33495 15.9199 3.33496ZM5.66497 6.28251L5.66497 8.33496H26.335V6.28252C25.5103 5.51728 24.6643 5.12128 23.273 4.90725C21.7109 4.66694 19.5245 4.66496 16 4.66496C12.4743 4.66496 10.288 4.6669 8.72615 4.90718C7.33521 5.12118 6.48967 5.51713 5.66497 6.28251ZM5.66496 16.335H26.335V9.66496H5.66497L5.66496 16.335ZM5.66496 17.665L5.66496 27C5.66496 27.173 5.71526 27.2398 5.73769 27.2622C5.76012 27.2847 5.8269 27.335 5.99996 27.335H8.99996C9.17302 27.335 9.2398 27.2847 9.26223 27.2622C9.28466 27.2398 9.33496 27.173 9.33496 27V24.335L22.665 24.335V27C22.665 27.173 22.7153 27.2398 22.7377 27.2622C22.7601 27.2847 22.8269 27.335 23 27.335H26C26.173 27.335 26.2398 27.2847 26.2622 27.2622C26.2847 27.2398 26.335 27.173 26.335 27V17.665H5.66496Z" fill="#000000" class="bmwfcol"/><title>bus-front_lt_48</title></svg>