<svg width="48" height="48" viewBox="0 0 32 32" xmlns="http://www.w3.org/2000/svg"><path d="M12.9396 16.4156V22H11.4122V10.0039H12.9396V14.936H19.0649V10.0039H20.5923V22H19.0649V16.4156H12.9396Z" fill="#000000" class="bmwfcol"/><path d="M16.0009 3.33496C9.00625 3.33496 3.33594 9.00527 3.33594 16C3.33594 22.9946 9.00625 28.665 16.0009 28.665C22.9956 28.665 28.6659 22.9946 28.6659 16C28.6659 9.00527 22.9956 3.33496 16.0009 3.33496ZM4.66594 16C4.66594 9.73981 9.74079 4.66496 16.0009 4.66496C22.2611 4.66496 27.3359 9.73981 27.3359 16C27.3359 22.2601 22.2611 27.335 16.0009 27.335C9.74079 27.335 4.66594 22.2601 4.66594 16Z" fill="#000000" class="bmwfcol"/><title>bus-stop_lt_48</title></svg>