<svg width="48" height="48" viewBox="0 0 32 32" xmlns="http://www.w3.org/2000/svg"><path d="M23.0236 2.33499H22.9783C22.5322 2.33498 22.1378 2.33498 21.8079 2.36039C21.4727 2.38621 21.1377 2.44174 20.835 2.59117C20.1676 2.92058 19.9108 3.57253 19.7084 4.32787L19.4386 5.33499H18.5009C17.9325 5.33499 17.4037 5.4404 16.9983 5.72014C16.558 6.0239 16.3359 6.48424 16.3359 6.99999V14C16.3359 14.5157 16.558 14.9761 16.9983 15.2798C17.4037 15.5596 17.9325 15.665 18.5009 15.665H27.5009C28.0694 15.665 28.5982 15.5596 29.0036 15.2798C29.4438 14.9761 29.6659 14.5157 29.6659 14V6.99999C29.6659 6.48424 29.4438 6.0239 29.0036 5.72014C28.5982 5.4404 28.0694 5.33499 27.5009 5.33499H26.5633L26.2935 4.32787C26.0911 3.57253 25.8343 2.92058 25.1669 2.59117C24.8642 2.44174 24.5291 2.38621 24.194 2.36039C23.8641 2.33498 23.4697 2.33498 23.0236 2.33499ZM25.1864 5.33499H20.8155L20.9931 4.6721C21.1926 3.92745 21.3313 3.8294 21.4236 3.78381C21.5008 3.74574 21.6367 3.70752 21.91 3.68646C22.183 3.66544 22.5267 3.66499 23.0009 3.66499C23.4752 3.66499 23.8189 3.66544 24.0919 3.68646C24.3652 3.70752 24.5011 3.74574 24.5783 3.78381C24.6706 3.8294 24.8093 3.92745 25.0088 4.6721L25.1864 5.33499ZM17.7536 6.81484C17.8482 6.74959 18.0694 6.66499 18.5009 6.66499H27.5009C27.9325 6.66499 28.1537 6.74959 28.2483 6.81484C28.308 6.85609 28.3359 6.89575 28.3359 7V14C28.3359 14.1042 28.308 14.1439 28.2483 14.1851C28.1537 14.2504 27.9325 14.335 27.5009 14.335H18.5009C18.0694 14.335 17.8482 14.2504 17.7536 14.1851C17.6938 14.1439 17.6659 14.1042 17.6659 14V6.99999C17.6659 6.89575 17.6938 6.85609 17.7536 6.81484Z" fill="#000000" class="bmwfcol"/><path d="M14.5 14.335H5.66594V7.99999C5.66594 7.82693 5.71623 7.76015 5.73866 7.73772C5.76109 7.71529 5.82788 7.66499 6.00094 7.66499H14.5V6.33499H6.00094C5.554 6.33499 5.12078 6.47469 4.79821 6.79727C4.47564 7.11984 4.33594 7.55305 4.33594 7.99999V28C4.33594 28.4469 4.47564 28.8801 4.79821 29.2027C5.12078 29.5253 5.554 29.665 6.00094 29.665H22.0009C22.4479 29.665 22.8811 29.5253 23.2037 29.2027C23.5262 28.8801 23.6659 28.4469 23.6659 28V17.5H22.3359V28C22.3359 28.1731 22.2856 28.2398 22.2632 28.2623C22.2408 28.2847 22.174 28.335 22.0009 28.335H6.00094C5.82788 28.335 5.76109 28.2847 5.73866 28.2623C5.71623 28.2398 5.66594 28.1731 5.66594 28V15.665H14.5V14.335Z" fill="#000000" class="bmwfcol"/><path d="M12.8359 20C12.8359 19.3566 13.3575 18.835 14.0009 18.835C14.6443 18.835 15.1659 19.3566 15.1659 20C15.1659 20.6434 14.6443 21.165 14.0009 21.165C13.3575 21.165 12.8359 20.6434 12.8359 20Z" fill="#000000" class="bmwfcol"/><path d="M7.83594 20C7.83594 19.3566 8.35753 18.835 9.00094 18.835C9.64435 18.835 10.1659 19.3566 10.1659 20C10.1659 20.6434 9.64435 21.165 9.00094 21.165C8.35753 21.165 7.83594 20.6434 7.83594 20Z" fill="#000000" class="bmwfcol"/><path d="M7.90172 25C7.90172 24.479 8.3443 24.1 8.83505 24.1H14.1684C14.6591 24.1 15.1017 24.479 15.1017 25C15.1017 25.521 14.6591 25.9 14.1684 25.9H8.83505C8.3443 25.9 7.90172 25.521 7.90172 25Z" fill="#000000" class="bmwfcol"/><path d="M17.8359 20C17.8359 19.3566 18.3575 18.835 19.0009 18.835C19.6443 18.835 20.1659 19.3566 20.1659 20C20.1659 20.6434 19.6443 21.165 19.0009 21.165C18.3575 21.165 17.8359 20.6434 17.8359 20Z" fill="#000000" class="bmwfcol"/><path d="M17.8359 25C17.8359 24.3566 18.3575 23.835 19.0009 23.835C19.6443 23.835 20.1659 24.3566 20.1659 25C20.1659 25.6434 19.6443 26.165 19.0009 26.165C18.3575 26.165 17.8359 25.6434 17.8359 25Z" fill="#000000" class="bmwfcol"/><title>business-drive-calculator_lt_48</title></svg>