<svg width="48" height="48" viewBox="0 0 32 32" xmlns="http://www.w3.org/2000/svg"><path d="M14.7364 10.5776C14.4752 10.9569 14.1716 11.274 13.8421 11.6023C14.063 12.0229 14.164 12.4911 14.164 13C14.164 13.8261 13.8857 14.5662 13.3505 15.1015C12.8152 15.6367 12.0751 15.915 11.249 15.915C10.4229 15.915 9.68276 15.6367 9.14751 15.1015C9.09629 15.0502 9.04744 14.9971 9.00095 14.9423C8.95445 14.9972 8.90558 15.0502 8.85437 15.1015C8.31912 15.6367 7.57901 15.915 6.75289 15.915C5.92677 15.915 5.18666 15.6367 4.65141 15.1015C4.11617 14.5662 3.83789 13.8261 3.83789 13C3.83789 12.4911 3.93891 12.0229 4.15977 11.6022C3.83033 11.274 3.52678 10.9569 3.26559 10.5776C2.89524 10.0396 2.61991 9.39926 2.35848 8.42358C2.10771 7.48768 1.93896 6.53622 2.10079 5.78582C2.1866 5.38793 2.37481 5.00136 2.7315 4.72206C3.08506 4.44521 3.52612 4.33499 4.00085 4.33499C4.83176 4.33499 5.77524 4.47511 6.75218 5.05251C7.28792 5.36914 7.81696 5.80732 8.33594 6.40058V4.5H9.66594V6.40067C10.1849 5.80737 10.714 5.36916 11.2498 5.05251C12.2267 4.47511 13.1702 4.33499 14.0011 4.33499C14.4758 4.33499 14.9169 4.44521 15.2705 4.72206C15.6271 5.00136 15.8153 5.38793 15.9012 5.78582C16.063 6.53622 15.8942 7.48768 15.6435 8.42358C15.382 9.39926 15.1067 10.0396 14.7364 10.5776ZM14.601 6.06621C14.5619 5.88447 14.5001 5.80803 14.4505 5.76923C14.3978 5.72797 14.2764 5.66499 14.0011 5.66499C13.332 5.66499 12.6415 5.77487 11.9265 6.19748C11.2306 6.60877 10.4604 7.34667 9.66594 8.68082V13H9.66789C9.66789 13.0353 9.66738 13.0705 9.66636 13.1055C9.68785 13.5759 9.85296 13.926 10.088 14.161C10.3402 14.4133 10.7251 14.585 11.249 14.585C11.7729 14.585 12.1578 14.4133 12.41 14.161C12.6623 13.9087 12.834 13.5239 12.834 13C12.834 12.488 12.6835 12.1289 12.3532 11.8222C12.0761 11.565 11.6463 11.3209 10.998 11.0963V9.69986C11.7926 9.93599 12.4517 10.225 12.961 10.6017C13.2468 10.3154 13.4549 10.0935 13.6409 9.82332C13.8956 9.45344 14.1203 8.96957 14.3588 8.07935C14.608 7.14934 14.6892 6.47508 14.601 6.06621ZM3.4009 6.06621C3.31273 6.47508 3.39396 7.14934 3.64316 8.07935C3.88169 8.96957 4.10638 9.45344 4.36105 9.82332C4.54705 10.0935 4.75515 10.3154 5.04093 10.6017C5.54956 10.2255 6.20772 9.93671 7.00098 9.70074V11.0973C6.35426 11.3217 5.92533 11.5654 5.64869 11.8222C5.31838 12.1289 5.16789 12.488 5.16789 13C5.16789 13.5239 5.33961 13.9088 5.59187 14.161C5.84412 14.4133 6.22901 14.585 6.75289 14.585C7.27677 14.585 7.66166 14.4133 7.91391 14.161C8.14892 13.926 8.31403 13.5759 8.33551 13.1055C8.33449 13.0705 8.33398 13.0353 8.33398 13H8.33594V8.68069C7.54155 7.34662 6.77135 6.60876 6.07548 6.19748C5.36043 5.77487 4.66994 5.66499 4.00085 5.66499C3.72558 5.66499 3.60415 5.72797 3.55146 5.76923C3.5019 5.80803 3.4401 5.88447 3.4009 6.06621Z" fill="#000000" class="bmwfcol"/><path d="M16.332 15.335H17.997C19.6482 15.335 21.0758 15.8883 22.0923 16.9048C22.6566 17.4691 23.0782 18.1602 23.3416 18.9459C23.431 18.8359 23.5261 18.7304 23.6268 18.6298C24.4683 17.7883 25.6459 17.335 26.997 17.335H28.662V19C28.662 20.3511 28.2088 21.5287 27.3673 22.3702C26.5258 23.2117 25.3482 23.665 23.997 23.665H23.662V24H23.6652V26.4369L23.3629 26.6336C21.337 27.9517 18.8312 28.665 16.0002 28.665C12.2491 28.665 9.07148 27.4117 6.82998 25.1702C4.8938 23.234 3.69497 20.5994 3.4043 17.5H4.74056C5.02518 20.2712 6.10392 22.5632 7.77043 24.2297C9.72894 26.1882 12.5513 27.335 16.0002 27.335C18.4597 27.335 20.5993 26.7513 22.332 25.7099V22.665H21.997C20.3459 22.665 18.9183 22.1117 17.9018 21.0952C16.8853 20.0787 16.332 18.6511 16.332 17V15.335ZM23.662 22.335H23.997C25.0459 22.335 25.8683 21.9883 26.4268 21.4298C26.9853 20.8713 27.332 20.0489 27.332 19V18.665H26.997C25.9482 18.665 25.1258 19.0117 24.5673 19.5702C24.0088 20.1287 23.662 20.9511 23.662 22V22.335ZM17.662 16.665V17C17.662 18.3489 18.1088 19.4213 18.8423 20.1548C19.5758 20.8883 20.6482 21.335 21.997 21.335H22.332V21C22.332 19.6511 21.8853 18.5787 21.1518 17.8452C20.4183 17.1117 19.3459 16.665 17.997 16.665H17.662Z" fill="#000000" class="bmwfcol"/><title>butterfly_and_plant_lt_48</title></svg>