<svg width="48" height="48" viewBox="0 0 32 32" xmlns="http://www.w3.org/2000/svg"><path d="M24.5009 6.33499C22.3865 6.33499 21.1756 6.37816 20.4471 6.46716C20.0817 6.51179 19.7982 6.57213 19.5681 6.66358C19.314 6.76455 19.1523 6.89249 19.0228 7.0219C18.9008 7.14394 18.7794 7.29466 18.6788 7.5123C18.5839 7.71789 18.5192 7.95773 18.4719 8.24774C18.3789 8.81755 18.3359 9.69493 18.3359 11.125V17.665H19.7685L21.7764 15.6571H24.5009C26.6154 15.6571 27.8263 15.614 28.5548 15.525C28.9202 15.4803 29.2037 15.42 29.4338 15.3285C29.6879 15.2276 29.8496 15.0996 29.979 14.9702C30.2583 14.691 30.4291 14.3589 30.5294 13.7645C30.623 13.2097 30.6659 12.3642 30.6659 11C30.6659 9.57218 30.6233 8.72157 30.5289 8.17846C30.4804 7.89962 30.4133 7.66979 30.3125 7.47095C30.2068 7.26265 30.0827 7.12554 29.979 7.0219C29.8496 6.89249 29.6879 6.76455 29.4338 6.66358C29.2037 6.57213 28.9202 6.51179 28.5548 6.46716C27.8263 6.37816 26.6154 6.33499 24.5009 6.33499ZM19.9633 7.96235C19.9923 7.93335 20.0064 7.92057 20.0592 7.89957C20.1361 7.86904 20.2907 7.82614 20.6083 7.78734C21.2458 7.70948 22.3804 7.66499 24.5009 7.66499C26.6215 7.66499 27.7561 7.70948 28.3936 7.78734C28.7111 7.82614 28.8658 7.86904 28.9426 7.89957C28.9955 7.92057 29.0096 7.93335 29.0386 7.96235C29.0934 8.01713 29.1099 8.0402 29.1263 8.07245C29.1474 8.11416 29.1836 8.20525 29.2185 8.40628C29.2909 8.82289 29.3359 9.56781 29.3359 11C29.3359 12.3629 29.2912 13.1091 29.2179 13.5432C29.1549 13.9166 29.0842 13.9854 29.0449 14.0235L29.0386 14.0298C29.0096 14.0588 28.9955 14.0715 28.9426 14.0926C28.8658 14.1231 28.7111 14.166 28.3936 14.2048C27.7561 14.2826 26.6215 14.3271 24.5009 14.3271H21.2255L19.6659 15.8867V11.125C19.6659 9.69505 19.7107 8.91441 19.7845 8.462C19.8206 8.24089 19.8592 8.12857 19.8862 8.07016C19.9076 8.02382 19.9269 7.99872 19.9633 7.96235Z" fill="#000000" class="bmwfcol"/><path d="M7.66434 9.4454C8.55238 8.58907 9.75939 8.33499 11.0009 8.33499C12.2425 8.33499 13.4495 8.58907 14.3375 9.4454C15.2288 10.3048 15.6659 11.6414 15.6659 13.5C15.6659 15.3586 15.2288 16.6952 14.3375 17.5546C13.4495 18.4109 12.2425 18.665 11.0009 18.665C9.75939 18.665 8.55238 18.4109 7.66434 17.5546C6.77311 16.6952 6.33594 15.3586 6.33594 13.5C6.33594 11.6414 6.77311 10.3048 7.66434 9.4454ZM8.58754 10.4028C8.0621 10.9095 7.66594 11.8228 7.66594 13.5C7.66594 15.1771 8.0621 16.0905 8.58754 16.5972C9.11616 17.1069 9.90916 17.335 11.0009 17.335C12.0927 17.335 12.8857 17.1069 13.4143 16.5972C13.9398 16.0905 14.3359 15.1771 14.3359 13.5C14.3359 11.8228 13.9398 10.9095 13.4143 10.4028C12.8857 9.89305 12.0927 9.66499 11.0009 9.66499C9.90916 9.66499 9.11616 9.89305 8.58754 10.4028Z" fill="#000000" class="bmwfcol"/><path d="M2.95504 26H1.57812L1.75801 25.3287C2.35321 23.0967 2.93509 21.6689 4.42838 20.9615C5.13612 20.6263 5.99559 20.4789 7.03751 20.4069C8.0776 20.335 9.42008 20.335 11.0248 20.335C12.6295 20.335 13.9235 20.335 14.9636 20.4069C16.0055 20.4789 16.865 20.6263 17.5727 20.9615C19.0659 21.6688 19.6478 23.0962 20.2429 25.3279L20.423 26H19.0461L18.9582 25.6721C18.833 25.2026 18.7137 24.795 18.5953 24.4402C18.1418 23.0808 17.7025 22.4947 17.0034 22.1635C16.5236 21.9363 15.8643 21.8024 14.8719 21.7338C14.4539 21.7049 13.9897 21.6881 13.4696 21.6784C12.7589 21.6651 11.944 21.665 11.0006 21.665C9.36661 21.665 8.11823 21.6654 7.12922 21.7338C6.13677 21.8024 5.47749 21.9363 4.99773 22.1635C4.11609 22.5811 3.64786 23.4035 3.0431 25.6714L2.95504 26Z" fill="#000000" class="bmwfcol"/><title>buying-tool_lt_48</title></svg>