<svg width="48" height="48" viewBox="0 0 32 32" xmlns="http://www.w3.org/2000/svg"><path d="M6.99996 14.335C7.27635 14.335 7.54811 14.3548 7.81391 14.393L8.76919 10.8278C9.03839 9.8232 9.28212 9.03224 9.54945 8.421C9.81796 7.80703 10.1324 7.32126 10.5724 6.97653C11.0192 6.62641 11.5283 6.47409 12.0833 6.40287C12.6127 6.33493 13.2434 6.33494 13.9622 6.33496H13.9997V7.66496C13.2341 7.66496 12.688 7.66618 12.2525 7.72205C11.8335 7.77584 11.584 7.87352 11.3927 8.0234C11.1946 8.17867 10.9915 8.4429 10.768 8.95393C10.6122 9.31023 10.4573 9.76045 10.288 10.335H20.1879L22.7624 14.794C23.4488 14.4986 24.2053 14.335 25 14.335C28.1287 14.335 30.665 16.8713 30.665 20C30.665 23.1287 28.1287 25.665 25 25.665C22.0508 25.665 19.6279 23.4113 19.3596 20.5322C18.0066 20.3972 17.0395 20.1185 16.1467 19.5195C15.1899 18.8775 14.3598 17.8881 13.1981 16.5035L9.73211 12.3729L9.0988 14.7365C11.1884 15.5705 12.665 17.6128 12.665 20C12.665 23.1287 10.1287 25.665 6.99996 25.665C3.87127 25.665 1.33496 23.1287 1.33496 20C1.33496 16.8713 3.87127 14.335 6.99996 14.335ZM7.68844 20H6.31152L7.46645 15.6898C7.3132 15.6734 7.15756 15.665 6.99996 15.665C4.60581 15.665 2.66496 17.6058 2.66496 20C2.66496 22.3941 4.60581 24.335 6.99996 24.335C9.39412 24.335 11.335 22.3941 11.335 20C11.335 18.2291 10.2731 16.7062 8.75132 16.0333L7.68844 20ZM19.3912 19.1983C19.6074 17.6722 20.4317 16.3417 21.6111 15.4599L19.7628 12.2585L17.9752 18.9297C18.3677 19.0508 18.8251 19.1375 19.3912 19.1983ZM16.76 18.3261L18.5449 11.665H10.8743L14.1531 15.5725C15.3284 16.9732 16.0269 17.7972 16.76 18.3261ZM22.2823 16.6224C21.296 17.417 20.665 18.6348 20.665 20C20.665 22.3941 22.6058 24.335 25 24.335C27.3941 24.335 29.335 22.3941 29.335 20C29.335 17.6058 27.3941 15.665 25 15.665C24.4476 15.665 23.9194 15.7683 23.4336 15.9566L25.7681 20H24.2323L22.2823 16.6224Z" fill="#000000" class="bmwfcol"/><path d="M17 8.66496H23V7.33496H17V8.66496Z" fill="#000000" class="bmwfcol"/><title>bycicle_lt_48</title></svg>