<svg width="48" height="48" viewBox="0 0 32 32" xmlns="http://www.w3.org/2000/svg"><path d="M12.8273 16.335H20C21.0123 16.335 21.566 16.3342 22.0714 16.2836C22.5631 16.2344 23.0218 16.1361 23.8279 15.9201L23.9411 15.8898L29.6649 16.3906L29.665 17.9999C29.665 18.2439 29.6687 18.3812 29.7424 18.5655C29.8216 18.7633 30.005 19.0645 30.4702 19.5297L30.665 19.7245L30.6652 22.3839L30.3327 22.5759C29.4695 23.0742 28.8992 23.368 28.3253 23.5183C27.8829 23.6341 27.4578 23.6586 26.9442 23.6637C26.4805 24.8358 25.3371 25.665 24 25.665C22.6634 25.665 21.5203 24.8365 21.0563 23.665H9.94366C9.47965 24.8365 8.33656 25.665 6.99996 25.665C5.65733 25.665 4.50996 24.829 4.05002 23.6491C3.9321 23.6386 3.80167 23.6211 3.64335 23.5919C3.27586 23.5242 2.75025 23.3928 1.82788 23.1457L1.33496 23.0136L1.33521 18.616L1.70098 18.4048C2.91526 17.7037 3.61277 17.301 4.83781 17.0287C5.99172 16.7723 7.63324 16.6268 10.7334 16.3558L14.7327 13H16.8018L12.8273 16.335ZM3.84276 22.2761C3.95763 20.6326 5.32726 19.335 6.99996 19.335C8.69259 19.335 10.0749 20.6637 10.1607 22.335H20.8392C20.925 20.6637 22.3073 19.335 24 19.335C25.6906 19.335 27.0717 20.6606 27.1604 22.3292C27.5095 22.3198 27.7456 22.2952 27.9883 22.2317C28.317 22.1456 28.6823 21.9801 29.3352 21.6136L29.335 20.269C28.9163 19.8209 28.6565 19.432 28.5075 19.0594C28.3348 18.6276 28.3349 18.2706 28.335 18.0155V17.6093L24.0584 17.2351C23.2948 17.4375 22.7761 17.5497 22.204 17.607C21.6249 17.665 21.0034 17.665 20.0368 17.665H11.0292C7.76106 17.9507 6.19391 18.0898 5.12637 18.3271C4.20773 18.5312 3.67881 18.8026 2.66517 19.3843L2.66502 21.9919C3.2475 22.1448 3.5975 22.2289 3.84276 22.2761ZM5.16496 22.5C5.16496 23.5134 5.98652 24.335 6.99996 24.335C8.0134 24.335 8.83496 23.5134 8.83496 22.5C8.83496 21.4865 8.0134 20.665 6.99996 20.665C5.98652 20.665 5.16496 21.4865 5.16496 22.5ZM22.165 22.5C22.165 23.5134 22.9865 24.335 24 24.335C25.0134 24.335 25.835 23.5134 25.835 22.5C25.835 21.4865 25.0134 20.665 24 20.665C22.9865 20.665 22.165 21.4865 22.165 22.5Z" fill="#000000" class="bmwfcol"/><path d="M20.2 7.33499H16V8.66499H20.2C21.2489 8.66499 22.0713 9.01172 22.6298 9.57022L25.4699 12.4103H21.4103L22.5603 13.5603H27.575V8.57502L26.425 7.42502V11.4845L23.5702 8.62977C22.7287 7.78827 21.5511 7.33499 20.2 7.33499Z" fill="#000000" class="bmwfcol"/><title>cabrio-roof-open_lt_48</title></svg>