<svg width="48" height="48" viewBox="0 0 32 32" xmlns="http://www.w3.org/2000/svg"><path d="M16.3764 1.33502H15.6255L15.4307 1.5298C14.647 2.31351 14.0098 3.10589 13.5642 3.84954C13.1275 4.57819 12.8359 5.32435 12.8359 6.00002C12.8359 6.63457 13.0024 7.24421 13.4764 7.85252C13.8783 8.36824 14.4841 8.86082 15.3359 9.37934V11.335H7.00094C5.80977 11.335 4.8499 11.8001 4.21245 12.6798C3.59853 13.527 3.33594 14.6858 3.33594 16C3.33594 17.1837 3.68385 18.2343 4.33594 19.0423V26C4.33592 26.6417 4.74983 27.0829 5.23853 27.3273C5.7119 27.564 6.32739 27.665 7.00094 27.665H25.0008C25.6744 27.665 26.29 27.564 26.7633 27.3273C27.252 27.0829 27.666 26.6417 27.6659 26V19H27.636C28.2943 18.186 28.6659 17.1371 28.6659 16C28.6659 14.6858 28.4033 13.527 27.7894 12.6798C27.152 11.8001 26.1921 11.335 25.0009 11.335H16.6659V9.37936C17.5178 8.86083 18.1236 8.36825 18.5255 7.85252C18.9995 7.24421 19.166 6.63457 19.166 6.00002C19.166 5.32435 18.8744 4.57819 18.4377 3.84954C17.9921 3.10589 17.3549 2.31351 16.5712 1.5298L16.3764 1.33502ZM26.1686 26.1377C25.9519 26.246 25.5669 26.335 25.0004 26.335H7.00094C6.43448 26.335 6.04997 26.246 5.83333 26.1377C5.72924 26.0857 5.68746 26.041 5.67414 26.023C5.66602 26.012 5.66594 26.0098 5.66594 26V20.1268C6.34515 20.48 7.13763 20.665 8.00094 20.665C9.78082 20.665 11.1894 19.8052 11.9753 18.5186C12.157 18.8302 12.3761 19.1156 12.6307 19.3702C13.4722 20.2117 14.6498 20.665 16.0009 20.665C17.7808 20.665 19.1893 19.8052 19.9753 18.5186C20.157 18.8302 20.3761 19.1156 20.6307 19.3702C21.4722 20.2117 22.6498 20.665 24.0009 20.665C24.8799 20.665 25.6683 20.4553 26.3359 20.0881V26C26.3359 26.0098 26.3359 26.012 26.3277 26.023C26.3144 26.041 26.2726 26.0857 26.1686 26.1377ZM16.001 2.85385C16.5507 3.44477 16.9868 4.01569 17.2969 4.53319C17.6827 5.17698 17.836 5.6757 17.836 6.00002C17.836 6.36547 17.7524 6.68083 17.4764 7.03503C17.2146 7.37098 16.7659 7.75869 16.001 8.22703C15.236 7.75869 14.7873 7.37098 14.5255 7.03503C14.2495 6.68083 14.1659 6.36547 14.1659 6.00002C14.1659 5.6757 14.3192 5.17698 14.705 4.53319C15.0151 4.01569 15.4513 3.44477 16.001 2.85385ZM11.3359 16C11.3359 17.8631 10.0128 19.335 8.00094 19.335C6.95206 19.335 6.12967 18.9883 5.57116 18.4298C5.01266 17.8713 4.66594 17.0489 4.66594 16C4.66594 14.8343 4.90335 13.993 5.28942 13.4602C5.65197 12.9599 6.19211 12.665 7.00094 12.665H25.0009C25.8098 12.665 26.3499 12.9599 26.7125 13.4602C27.0985 13.993 27.3359 14.8343 27.3359 16C27.3359 17.8631 26.0128 19.335 24.0009 19.335C22.9521 19.335 22.1297 18.9883 21.5712 18.4298C21.0127 17.8713 20.6659 17.0489 20.6659 16L19.3359 16C19.3359 17.8631 18.0128 19.335 16.0009 19.335C14.9521 19.335 14.1297 18.9883 13.5712 18.4298C13.0127 17.8713 12.6659 17.0489 12.6659 16H11.3359Z" fill="#000000" class="bmwfcol"/><title>cake_lt_48</title></svg>