<svg width="48" height="48" viewBox="0 0 32 32" xmlns="http://www.w3.org/2000/svg"><path d="M16.0009 13.835C15.3575 13.835 14.8359 14.3566 14.8359 15C14.8359 15.6434 15.3575 16.165 16.0009 16.165C16.6443 16.165 17.1659 15.6434 17.1659 15C17.1659 14.3566 16.6443 13.835 16.0009 13.835Z" fill="#000000" class="bmwfcol"/><path d="M16.0009 18.835C15.3575 18.835 14.8359 19.3566 14.8359 20C14.8359 20.6434 15.3575 21.165 16.0009 21.165C16.6443 21.165 17.1659 20.6434 17.1659 20C17.1659 19.3566 16.6443 18.835 16.0009 18.835Z" fill="#000000" class="bmwfcol"/><path d="M11.0009 18.835C10.3575 18.835 9.83594 19.3566 9.83594 20C9.83594 20.6434 10.3575 21.165 11.0009 21.165C11.6443 21.165 12.1659 20.6434 12.1659 20C12.1659 19.3566 11.6443 18.835 11.0009 18.835Z" fill="#000000" class="bmwfcol"/><path d="M11.0009 13.835C10.3575 13.835 9.83594 14.3566 9.83594 15C9.83594 15.6434 10.3575 16.165 11.0009 16.165C11.6443 16.165 12.1659 15.6434 12.1659 15C12.1659 14.3566 11.6443 13.835 11.0009 13.835Z" fill="#000000" class="bmwfcol"/><path d="M21.0009 18.835C20.3575 18.835 19.8359 19.3566 19.8359 20C19.8359 20.6434 20.3575 21.165 21.0009 21.165C21.6443 21.165 22.1659 20.6434 22.1659 20C22.1659 19.3566 21.6443 18.835 21.0009 18.835Z" fill="#000000" class="bmwfcol"/><path d="M21.0009 23.835C20.3575 23.835 19.8359 24.3566 19.8359 25C19.8359 25.6434 20.3575 26.165 21.0009 26.165C21.6443 26.165 22.1659 25.6434 22.1659 25C22.1659 24.3566 21.6443 23.835 21.0009 23.835Z" fill="#000000" class="bmwfcol"/><path d="M10.8337 24.1C10.343 24.1 9.90039 24.4791 9.90039 25C9.90039 25.521 10.343 25.9 10.8337 25.9H16.1671C16.6578 25.9 17.1004 25.521 17.1004 25C17.1004 24.4791 16.6578 24.1 16.1671 24.1H10.8337Z" fill="#000000" class="bmwfcol"/><path d="M21.0009 13.835C20.3575 13.835 19.8359 14.3566 19.8359 15C19.8359 15.6434 20.3575 16.165 21.0009 16.165C21.6443 16.165 22.1659 15.6434 22.1659 15C22.1659 14.3566 21.6443 13.835 21.0009 13.835Z" fill="#000000" class="bmwfcol"/><path fill-rule="evenodd" clip-rule="evenodd" d="M6.79821 2.7973C7.12078 2.47472 7.554 2.33502 8.00094 2.33502H24.0009C24.4479 2.33502 24.8811 2.47472 25.2037 2.7973C25.5262 3.11987 25.6659 3.55308 25.6659 4.00002V28C25.6659 28.447 25.5262 28.8802 25.2037 29.2027C24.8811 29.5253 24.4479 29.665 24.0009 29.665H8.00094C7.554 29.665 7.12078 29.5253 6.79821 29.2027C6.47564 28.8802 6.33594 28.447 6.33594 28V4.00002C6.33594 3.55308 6.47564 3.11987 6.79821 2.7973ZM7.73866 3.73775C7.71623 3.76018 7.66594 3.82696 7.66594 4.00002V9.33502H24.3359V4.00002C24.3359 3.82696 24.2856 3.76018 24.2632 3.73775C24.2408 3.71532 24.174 3.66502 24.0009 3.66502H8.00094C7.82788 3.66502 7.76109 3.71532 7.73866 3.73775ZM24.3359 10.665H7.66594V28C7.66594 28.1731 7.71623 28.2399 7.73866 28.2623C7.76109 28.2847 7.82788 28.335 8.00094 28.335H24.0009C24.174 28.335 24.2408 28.2847 24.2632 28.2623C24.2856 28.2399 24.3359 28.1731 24.3359 28V10.665Z" fill="#000000" class="bmwfcol"/><title>calculator_lt_48</title></svg>