<svg width="48" height="48" viewBox="0 0 32 32" xmlns="http://www.w3.org/2000/svg"><path d="M17.5409 16.9652V18.3268L19.5674 17.7114V23.9001H20.9589V15.9128L17.5409 16.9652Z" fill="#000000" class="bmwfcol"/><path d="M10.9792 16.221C11.5667 16.1108 12.6305 15.9198 13.2877 15.9198C14.3621 15.9198 15.0195 16.0996 15.4687 16.5189C15.8593 16.8794 16.0524 17.3823 16.0524 17.9206C16.0524 18.3885 15.8758 18.707 15.6119 19.1186C15.4642 19.3508 15.2848 19.6145 15.2015 19.7291L15.1411 19.8122L15.2257 19.8703C15.3904 19.9836 15.5421 20.1051 15.7045 20.298L15.7054 20.299C16.0262 20.67 16.1691 21.1015 16.1691 21.6765C16.1691 22.2832 15.9734 22.8716 15.6026 23.2626C15.087 23.7982 14.3327 24.0805 13.1391 24.0805C12.1978 24.0805 11.4762 23.9565 10.9155 23.8532V22.5703C11.5478 22.6821 12.2891 22.8057 13.1073 22.8057C13.6953 22.8057 14.1267 22.7213 14.4087 22.5098L14.4103 22.5086C14.6851 22.2935 14.7776 22.0161 14.7776 21.6765C14.7776 21.4712 14.7346 21.2943 14.6352 21.1428C14.5362 20.9921 14.3873 20.8757 14.1912 20.7804C14.0374 20.7036 13.8564 20.6676 13.6656 20.6499C13.4753 20.6322 13.2672 20.6322 13.0571 20.6322H11.7219V19.3999H13.954L14.2383 19.0089C14.3612 18.8432 14.4712 18.6814 14.5507 18.524C14.6301 18.3665 14.6821 18.2073 14.6821 18.0479C14.6821 17.9329 14.6741 17.8273 14.6411 17.7285C14.6074 17.6273 14.5496 17.5392 14.4593 17.4549L14.4575 17.4533C14.3445 17.3528 14.196 17.2889 14.0025 17.2496C13.8097 17.2105 13.5658 17.1946 13.2558 17.1946C12.5436 17.1946 11.5475 17.3806 10.9792 17.4914V16.221Z" fill="#000000" class="bmwfcol"/><path d="M21.335 5.335H10.665V3H9.33496V5.335H6.18178C5.376 5.335 4.65067 5.57408 4.12298 6.08083C3.59208 6.59067 3.33496 7.30084 3.33496 8.09524V25.9048C3.33496 26.6992 3.59208 27.4093 4.12298 27.9192C4.65067 28.4259 5.376 28.665 6.18178 28.665H25.8181C26.6239 28.665 27.3493 28.4259 27.8769 27.9192C28.4078 27.4093 28.665 26.6992 28.665 25.9048V8.09524C28.665 7.30084 28.4078 6.59067 27.8769 6.08083C27.3493 5.57408 26.6239 5.335 25.8181 5.335H22.665V3H21.335V5.335ZM4.66496 8.09524C4.66496 7.59059 4.82239 7.25314 5.04421 7.04012C5.26925 6.82401 5.63483 6.665 6.18178 6.665H25.8181C26.3651 6.665 26.7307 6.82401 26.9557 7.04012C27.1775 7.25314 27.335 7.59059 27.335 8.09524V11.335H4.66496V8.09524ZM4.66496 12.665H27.335V25.9048C27.335 26.4094 27.1775 26.7469 26.9557 26.9599C26.7307 27.176 26.3651 27.335 25.8181 27.335H6.18178C5.63483 27.335 5.26925 27.176 5.04421 26.9599C4.82239 26.7469 4.66496 26.4094 4.66496 25.9048V12.665Z" fill="#000000" class="bmwfcol"/><title>calendar_lt_48</title></svg>