<svg width="48" height="48" viewBox="0 0 32 32" xmlns="http://www.w3.org/2000/svg"><path d="M12.7683 15.9999C12.7683 15.4117 13.2451 14.9349 13.8333 14.9349C14.4215 14.9349 14.8983 15.4117 14.8983 15.9999C14.8983 16.5881 14.4215 17.0649 13.8333 17.0649C13.2451 17.0649 12.7683 16.5881 12.7683 15.9999Z" fill="#000000" class="bmwfcol"/><path d="M17.1017 15.9999C17.1017 15.4117 17.5785 14.9349 18.1667 14.9349C18.7549 14.9349 19.2317 15.4117 19.2317 15.9999C19.2317 16.5881 18.7549 17.0649 18.1667 17.0649C17.5785 17.0649 17.1017 16.5881 17.1017 15.9999Z" fill="#000000" class="bmwfcol"/><path d="M22.5001 14.9349C21.9119 14.9349 21.4351 15.4117 21.4351 15.9999C21.4351 16.5881 21.9119 17.0649 22.5001 17.0649C23.0882 17.0649 23.5651 16.5881 23.5651 15.9999C23.5651 15.4117 23.0882 14.9349 22.5001 14.9349Z" fill="#000000" class="bmwfcol"/><path d="M8.43506 19.9999C8.43506 19.4117 8.91188 18.9349 9.50006 18.9349C10.0882 18.9349 10.5651 19.4117 10.5651 19.9999C10.5651 20.5881 10.0882 21.0649 9.50006 21.0649C8.91188 21.0649 8.43506 20.5881 8.43506 19.9999Z" fill="#000000" class="bmwfcol"/><path d="M13.8333 18.9349C13.2451 18.9349 12.7683 19.4117 12.7683 19.9999C12.7683 20.5881 13.2451 21.0649 13.8333 21.0649C14.4215 21.0649 14.8983 20.5881 14.8983 19.9999C14.8983 19.4117 14.4215 18.9349 13.8333 18.9349Z" fill="#000000" class="bmwfcol"/><path d="M17.1017 19.9999C17.1017 19.4117 17.5785 18.9349 18.1667 18.9349C18.7549 18.9349 19.2317 19.4117 19.2317 19.9999C19.2317 20.5881 18.7549 21.0649 18.1667 21.0649C17.5785 21.0649 17.1017 20.5881 17.1017 19.9999Z" fill="#000000" class="bmwfcol"/><path d="M22.5001 18.9349C21.9119 18.9349 21.4351 19.4117 21.4351 19.9999C21.4351 20.5881 21.9119 21.0649 22.5001 21.0649C23.0882 21.0649 23.5651 20.5881 23.5651 19.9999C23.5651 19.4117 23.0882 18.9349 22.5001 18.9349Z" fill="#000000" class="bmwfcol"/><path d="M8.43506 23.9999C8.43506 23.4117 8.91188 22.9349 9.50006 22.9349C10.0882 22.9349 10.5651 23.4117 10.5651 23.9999C10.5651 24.5881 10.0882 25.0649 9.50006 25.0649C8.91188 25.0649 8.43506 24.5881 8.43506 23.9999Z" fill="#000000" class="bmwfcol"/><path d="M13.8333 22.9349C13.2451 22.9349 12.7683 23.4117 12.7683 23.9999C12.7683 24.5881 13.2451 25.0649 13.8333 25.0649C14.4215 25.0649 14.8983 24.5881 14.8983 23.9999C14.8983 23.4117 14.4215 22.9349 13.8333 22.9349Z" fill="#000000" class="bmwfcol"/><path d="M17.1017 23.9999C17.1017 23.4117 17.5785 22.9349 18.1667 22.9349C18.7549 22.9349 19.2317 23.4117 19.2317 23.9999C19.2317 24.5881 18.7549 25.0649 18.1667 25.0649C17.5785 25.0649 17.1017 24.5881 17.1017 23.9999Z" fill="#000000" class="bmwfcol"/><path d="M10.665 5.335H21.335V3H22.665V5.335H25.8181C26.6239 5.335 27.3493 5.57408 27.8769 6.08083C28.4078 6.59067 28.665 7.30084 28.665 8.09524V25.9048C28.665 26.6992 28.4078 27.4093 27.8769 27.9192C27.3493 28.4259 26.6239 28.665 25.8181 28.665H6.18178C5.376 28.665 4.65067 28.4259 4.12298 27.9192C3.59208 27.4093 3.33496 26.6992 3.33496 25.9048V8.09524C3.33496 7.30084 3.59208 6.59067 4.12298 6.08083C4.65067 5.57408 5.376 5.335 6.18178 5.335H9.33496V3H10.665V5.335ZM5.04421 7.04012C4.82239 7.25314 4.66496 7.59059 4.66496 8.09524V11.335H27.335V8.09524C27.335 7.59059 27.1775 7.25314 26.9557 7.04012C26.7307 6.82401 26.3651 6.665 25.8181 6.665H6.18178C5.63483 6.665 5.26925 6.82401 5.04421 7.04012ZM4.66496 25.9048C4.66496 26.4094 4.82239 26.7469 5.04421 26.9599C5.26925 27.176 5.63483 27.335 6.18178 27.335H25.8181C26.3651 27.335 26.7307 27.176 26.9557 26.9599C27.1775 26.7469 27.335 26.4094 27.335 25.9048V12.665H4.66496V25.9048Z" fill="#000000" class="bmwfcol"/><title>calendar_monthly_lt_48</title></svg>