<svg width="48" height="48" viewBox="0 0 32 32" xmlns="http://www.w3.org/2000/svg"><path d="M15.335 8V2H16.665V8H15.335Z" fill="#000000" class="bmwfcol"/><path d="M21.1865 9.87301L25.4292 5.63037L26.3696 6.57082L22.127 10.8135L21.1865 9.87301Z" fill="#000000" class="bmwfcol"/><path d="M5.63037 6.57082L9.87301 10.8135L10.8135 9.87301L6.57082 5.63037L5.63037 6.57082Z" fill="#000000" class="bmwfcol"/><path d="M12.6297 17.6298C13.4712 16.7883 14.6488 16.335 16 16.335C17.3511 16.335 18.5287 16.7883 19.3702 17.6298C20.2117 18.4713 20.665 19.6489 20.665 21C20.665 23.5552 18.7881 25.665 16 25.665C14.6488 25.665 13.4712 25.2117 12.6297 24.3702C11.7882 23.5287 11.335 22.3511 11.335 21C11.335 19.6489 11.7882 18.4713 12.6297 17.6298ZM13.5702 18.5702C13.0117 19.1287 12.665 19.9511 12.665 21C12.665 22.0489 13.0117 22.8713 13.5702 23.4298C14.1287 23.9883 14.9511 24.335 16 24.335C18.0119 24.335 19.335 22.8631 19.335 21C19.335 19.9511 18.9882 19.1287 18.4297 18.5702C17.8712 18.0117 17.0488 17.665 16 17.665C14.9511 17.665 14.1287 18.0117 13.5702 18.5702Z" fill="#000000" class="bmwfcol"/><path d="M16.0219 12.335C15.2903 12.335 14.644 12.335 14.1497 12.3677C13.6488 12.4009 13.2049 12.4699 12.8042 12.6353C12.0635 12.9411 11.6091 13.5217 11.1196 14.335H7.49996C6.93152 14.335 6.40272 14.4404 5.99729 14.7202C5.55708 15.0239 5.33497 15.4843 5.33496 16V27C5.33497 27.5158 5.55708 27.9761 5.9973 28.2799C6.40273 28.5596 6.93154 28.665 7.49997 28.665H24.5001C25.0685 28.665 25.5973 28.5596 26.0027 28.2799C26.4429 27.9761 26.6651 27.5158 26.6651 27V16C26.6651 15.4843 26.443 15.0239 26.0027 14.7202C25.5973 14.4404 25.0685 14.335 24.5001 14.335H20.8805C20.3909 13.5217 19.9366 12.9411 19.1958 12.6353C18.7952 12.47 18.3512 12.4009 17.8503 12.3677C17.356 12.335 16.7536 12.335 16.0219 12.335ZM12.0759 15.3325C12.6597 14.3211 12.9383 14.0188 13.3116 13.8647C13.5167 13.7801 13.7938 13.7242 14.2375 13.6948C14.6829 13.6654 15.2416 13.665 16 13.665C16.7584 13.665 17.3172 13.6654 17.7625 13.6948C18.2062 13.7242 18.4834 13.7801 18.6884 13.8647C19.0618 14.0188 19.3403 14.3211 19.9241 15.3325L20.1161 15.665H24.5001C24.9316 15.665 25.1528 15.7496 25.2474 15.8149C25.3072 15.8561 25.3351 15.8958 25.3351 16V27C25.3351 27.1043 25.3072 27.1439 25.2474 27.1852C25.1528 27.2504 24.9316 27.335 24.5001 27.335H7.49997C7.06841 27.335 6.84721 27.2504 6.75264 27.1852C6.69285 27.1439 6.66496 27.1043 6.66496 27V16C6.66496 15.8958 6.69286 15.8561 6.75264 15.8149C6.8472 15.7496 7.0684 15.665 7.49996 15.665H11.8839L12.0759 15.3325Z" fill="#000000" class="bmwfcol"/><title>camera-flashing_lt_48</title></svg>