<svg width="48" height="48" viewBox="0 0 32 32" xmlns="http://www.w3.org/2000/svg"><path d="M12.8315 12.8452C12.098 13.5787 11.6513 14.6511 11.6513 16C11.6513 17.3488 12.098 18.4212 12.8315 19.1547C13.565 19.8882 14.6374 20.335 15.9863 20.335C18.5982 20.335 20.3213 18.4153 20.3213 16C20.3213 14.6511 19.8745 13.5787 19.141 12.8452C18.4075 12.1117 17.3351 11.665 15.9863 11.665C14.6374 11.665 13.565 12.1117 12.8315 12.8452ZM11.891 11.9047C12.9075 10.8882 14.3351 10.335 15.9863 10.335C17.6374 10.335 19.065 10.8882 20.0815 11.9047C21.098 12.9212 21.6513 14.3488 21.6513 16C21.6513 19.1075 19.3744 21.665 15.9863 21.665C14.3351 21.665 12.9075 21.1117 11.891 20.0952C10.8745 19.0787 10.3213 17.6511 10.3213 16C10.3213 14.3488 10.8745 12.9212 11.891 11.9047Z" fill="#000000" class="bmwfcol"/><path d="M15.9863 4.33498C17.6362 4.33498 18.8319 4.32715 19.7411 4.61624C20.751 4.93732 21.367 5.5974 21.9847 6.66752L22.3701 7.33498H25.9863C27.0547 7.33498 27.9585 7.53539 28.614 7.98763C29.3042 8.46388 29.6513 9.17422 29.6513 9.99998V23C29.6513 23.8257 29.3042 24.5361 28.6139 25.0123C27.9585 25.4646 27.0547 25.665 25.9863 25.665H5.98628C4.91784 25.665 4.01404 25.4646 3.35861 25.0123C2.66839 24.5361 2.32129 23.8257 2.32129 23V9.99997C2.3213 9.17422 2.66842 8.46389 3.35864 7.98764C4.01407 7.53539 4.91787 7.33498 5.98631 7.33498H9.6026L9.98796 6.66752C10.6057 5.59741 11.2217 4.93732 12.2315 4.61624C13.1407 4.32715 14.3364 4.33498 15.9863 4.33498ZM12.6345 5.88372C12.0718 6.06263 11.6766 6.40255 11.1398 7.33244L10.3705 8.66498H5.98631C5.05475 8.66498 4.45855 8.84458 4.11398 9.08234C3.80419 9.29609 3.6513 9.58575 3.65129 9.99998V23C3.65129 23.4142 3.80418 23.7039 4.11395 23.9176C4.45852 24.1554 5.05471 24.335 5.98628 24.335H25.9863C26.9178 24.335 27.514 24.1554 27.8586 23.9176C28.1684 23.7039 28.3213 23.4142 28.3213 23V9.99998C28.3213 9.58573 28.1684 9.29608 27.8586 9.08233C27.5141 8.84458 26.9179 8.66498 25.9863 8.66498H21.6022L20.8329 7.33247C20.2961 6.40259 19.9009 6.06263 19.3381 5.88372C18.6748 5.67281 17.7362 5.66498 15.9863 5.66498C14.2364 5.66498 13.2979 5.67281 12.6345 5.88372Z" fill="#000000" class="bmwfcol"/><title>camera_lt_48</title></svg>