<svg width="48" height="48" viewBox="0 0 32 32" xmlns="http://www.w3.org/2000/svg"><path d="M11.1406 22.1127L9.89062 20.8627V17.2051H13.5473L14.7973 18.4551H12.0814C13.3269 19.6695 14.2792 20.3656 16.0018 20.3656C17.3593 20.3656 18.4388 19.916 19.1773 19.1775C19.6465 18.7083 19.9991 18.1014 20.1939 17.373H21.5597C21.3372 18.4524 20.8456 19.3901 20.1178 20.1179C19.0963 21.1394 17.6615 21.6956 16.0018 21.6956C13.7671 21.6956 12.4606 20.6927 11.1406 19.4006V22.1127Z" fill="#000000" class="bmwfcol"/><path d="M20.8618 9.89062L22.1118 11.1406V14.7982H18.4551L17.2051 13.5482H19.9227C18.6766 12.333 17.7245 11.6366 16.0012 11.6366C14.6438 11.6366 13.5642 12.0862 12.8257 12.8247C12.3565 13.2939 12.004 13.9008 11.8092 14.6291H10.4434C10.6658 13.5498 11.1574 12.6121 11.8853 11.8843C12.9068 10.8628 14.3415 10.3066 16.0012 10.3066C18.2356 10.3066 19.542 11.3092 20.8618 12.6009V9.89062Z" fill="#000000" class="bmwfcol"/><path d="M15.8728 4.33497C14.2882 4.33477 13.1309 4.33463 12.2452 4.61624C11.2353 4.93732 10.6194 5.59741 10.0016 6.66752L9.61627 7.33498H5.99998C4.93155 7.33498 4.02775 7.53539 3.37231 7.98764C2.6821 8.46388 2.33498 9.17422 2.33497 9.99997L2.33496 23C2.33496 23.8257 2.68207 24.5361 3.37229 25.0123C4.02772 25.4646 4.93152 25.665 5.99995 25.665H26C27.0684 25.665 27.9722 25.4646 28.6276 25.0123C29.3179 24.5361 29.665 23.8257 29.665 23V9.99998C29.665 9.17422 29.3179 8.46388 28.6277 7.98763C27.9722 7.53538 27.0684 7.33498 26 7.33498L22.3838 7.33498L21.9984 6.66752C21.3807 5.59739 20.7647 4.93732 19.7548 4.61623C18.8691 4.33463 17.7118 4.33477 16.1272 4.33497H15.8728ZM11.1535 7.33244C11.6903 6.40255 12.0855 6.06263 12.6482 5.88371C13.3116 5.67281 14.2501 5.66498 16 5.66498C17.7499 5.66498 18.6885 5.67281 19.3518 5.88371C19.9146 6.06263 20.3098 6.40259 20.8466 7.33247L21.6159 8.66498L26 8.66498C26.9315 8.66498 27.5277 8.84458 27.8723 9.08233C28.1821 9.29608 28.335 9.58573 28.335 9.99998V23C28.335 23.4142 28.1821 23.7039 27.8723 23.9176C27.5277 24.1554 26.9315 24.335 26 24.335H5.99995C5.06839 24.335 4.47219 24.1554 4.12763 23.9176C3.81785 23.7039 3.66496 23.4142 3.66496 23L3.66497 9.99998C3.66497 9.58575 3.81786 9.29609 4.12765 9.08234C4.47223 8.84458 5.06843 8.66498 5.99998 8.66498H10.3841L11.1535 7.33244Z" fill="#000000" class="bmwfcol"/><title>camera_change_lt_48</title></svg>