<svg width="48" height="48" viewBox="0 0 32 32" xmlns="http://www.w3.org/2000/svg"><path d="M9.87996 6.87996L10.0026 6.66752C10.6203 5.59741 11.2363 4.93732 12.2462 4.61624C13.1319 4.33463 14.2892 4.33477 15.8738 4.33497L16.1282 4.33497C17.7128 4.33477 18.8701 4.33463 19.7558 4.61624C20.7657 4.93732 21.3817 5.5974 21.9994 6.66752L22.3848 7.33498L26.001 7.33498C27.0694 7.33498 27.9732 7.53539 28.6286 7.98763C29.3189 8.46388 29.666 9.17422 29.666 9.99998V23C29.666 23.8257 29.3188 24.5361 28.6286 25.0123C28.5069 25.0963 28.3767 25.1715 28.2385 25.2385L27.2038 24.2038C27.4896 24.1302 27.7098 24.0304 27.8733 23.9176C28.1831 23.7039 28.336 23.4142 28.336 23V9.99998C28.336 9.58573 28.1831 9.29608 27.8733 9.08233C27.5287 8.84458 26.9325 8.66498 26.001 8.66498L21.6169 8.66498L20.8476 7.33247C20.3108 6.40259 19.9155 6.06263 19.3528 5.88372C18.6894 5.67281 17.7509 5.66498 16.001 5.66498C14.2511 5.66498 13.3125 5.67281 12.6492 5.88372C12.0865 6.06263 11.6913 6.40255 11.1545 7.33244L10.8536 7.85359L9.87996 6.87996Z" fill="#000000" class="bmwfcol"/><path d="M22.665 25.665H6.00093C4.93249 25.665 4.02869 25.4646 3.37326 25.0123C2.68304 24.5361 2.33594 23.8257 2.33594 23L2.33594 9.99997C2.33595 9.17422 2.68307 8.46389 3.37329 7.98764C3.69293 7.76709 4.07164 7.60643 4.49971 7.49971L5.67288 8.67288C4.92681 8.70996 4.4309 8.87377 4.12863 9.08234C3.81884 9.29609 3.66595 9.58575 3.66594 9.99998L3.66594 23C3.66594 23.4142 3.81883 23.7039 4.1286 23.9176C4.47317 24.1554 5.06936 24.335 6.00093 24.335H21.335L22.665 25.665Z" fill="#000000" class="bmwfcol"/><path d="M18.2455 21.2455C17.5731 21.5157 16.8194 21.665 16.0009 21.665C14.3498 21.665 12.9222 21.1117 11.9057 20.0952C10.8892 19.0787 10.3359 17.6511 10.3359 16C10.3359 15.1817 10.4718 14.4183 10.7326 13.7326L11.7968 14.7968C11.7113 15.1685 11.6659 15.5702 11.6659 16C11.6659 17.3488 12.1127 18.4212 12.8462 19.1547C13.5797 19.8882 14.6521 20.335 16.0009 20.335C16.422 20.335 16.8199 20.2851 17.1913 20.1913L18.2455 21.2455Z" fill="#000000" class="bmwfcol"/><path d="M21.2398 18.2398C21.5174 17.5514 21.6659 16.7936 21.6659 16C21.6659 14.3488 21.1127 12.9212 20.0962 11.9047C19.0797 10.8882 17.6521 10.335 16.0009 10.335C15.1821 10.335 14.4182 10.471 13.7322 10.7322L14.7962 11.7962C15.1683 11.7104 15.5705 11.665 16.0009 11.665C17.3498 11.665 18.4222 12.1117 19.1557 12.8452C19.8892 13.5787 20.3359 14.6511 20.3359 16C20.3359 16.4131 20.2855 16.8118 20.1888 17.1888L21.2398 18.2398Z" fill="#000000" class="bmwfcol"/><path d="M28.94 28H27.0591L3.05906 4H4.93996L28.94 28Z" fill="#000000" class="bmwfcol"/><title>camera-crossed-out_lt_48</title></svg>