<svg width="48" height="48" viewBox="0 0 32 32" xmlns="http://www.w3.org/2000/svg"><path d="M18.501 2.33497L18.4259 2.33496C16.9913 2.33487 15.9159 2.33479 14.8517 2.66481C13.7961 2.99215 12.8001 3.62501 11.4354 4.75566C8.98603 4.96981 7.67098 5.08676 6.74237 5.29315C5.74232 5.51542 5.16871 5.84662 4.20106 6.40534L3.83615 6.61602L3.83594 10.6129L4.32885 10.745C5.06587 10.9425 5.49148 11.049 5.79156 11.1043C5.90786 11.1257 6.00638 11.1396 6.09546 11.1485C6.52449 12.0454 7.44036 12.665 8.50094 12.665C9.55503 12.665 10.4662 12.053 10.8985 11.165H20.1034C20.5357 12.053 21.4468 12.665 22.5009 12.665C23.5552 12.665 24.4665 12.0528 24.8987 11.1645C25.4154 11.1618 25.8159 11.1451 26.2093 11.0441C26.7019 10.9175 27.1553 10.6674 27.8335 10.2759L28.166 10.0839L28.1658 7.52449L27.971 7.32974C27.6195 6.9782 27.5053 6.78954 27.461 6.68036C27.4221 6.58431 27.416 6.50861 27.416 6.25417V4.85921L25.5011 4.632C22.9349 3.14905 21.3936 2.33497 18.501 2.33497ZM25.1606 9.83059C25.0733 8.43767 23.9159 7.33498 22.5009 7.33498C21.0845 7.33498 19.9262 8.43998 19.841 9.83497H11.1609C11.0757 8.43998 9.91736 7.33498 8.50094 7.33498C7.11054 7.33498 5.96884 8.39974 5.84674 9.75836C5.68298 9.72227 5.4674 9.66928 5.16599 9.59079L5.16611 7.38455C5.93104 6.94718 6.33609 6.7459 7.03093 6.59147C7.87659 6.40352 9.12359 6.29284 11.759 6.06245L11.9679 6.04418L12.1286 5.90939C13.5401 4.72498 14.4076 4.19499 15.2456 3.93513C16.0978 3.67087 16.9732 3.66497 18.501 3.66497C21.064 3.66497 22.3466 4.34325 24.9537 5.85181L25.0723 5.92045L26.086 6.04073L26.0859 6.28127C26.0857 6.5153 26.0854 6.82705 26.2284 7.17983C26.3468 7.47204 26.5455 7.75411 26.8358 8.06814L26.8359 9.31388C26.3586 9.58213 26.1149 9.69512 25.8784 9.75588C25.689 9.80453 25.4921 9.82337 25.1606 9.83059ZM8.50094 8.66498C9.23824 8.66498 9.83594 9.26268 9.83594 9.99998C9.83594 10.7373 9.23824 11.335 8.50094 11.335C7.76364 11.335 7.16594 10.7373 7.16594 9.99998C7.16594 9.26268 7.76364 8.66498 8.50094 8.66498ZM22.5009 8.66498C23.2382 8.66498 23.8359 9.26268 23.8359 9.99998C23.8359 10.7373 23.2382 11.335 22.5009 11.335C21.7636 11.335 21.1659 10.7373 21.1659 9.99998C21.1659 9.26268 21.7636 8.66498 22.5009 8.66498Z" fill="#000000" class="bmwfcol"/><path d="M7.33582 19.8219L10.1198 15H11.6555L10.6621 16.7206L12.2519 18.3104C13.1436 18.2324 13.8622 18.1732 14.4445 18.1525C15.0873 18.1296 15.6227 18.1502 16.0789 18.2694C16.9679 18.5015 17.4247 19.0772 17.8815 19.835L19.1632 19.835L22.8953 18.835H26.6661L26.6657 21.3877L26.1729 21.5198C24.0965 22.0761 23.1103 22.3425 22.3093 22.6542C21.5708 22.9416 20.987 23.2686 19.8216 23.9387L19.5996 24.7662L20.6836 25.0566C21.2083 24.0344 22.273 23.335 23.5011 23.335C25.2491 23.335 26.6661 24.752 26.6661 26.5C26.6661 28.248 25.2491 29.665 23.5011 29.665C21.7531 29.665 20.3361 28.248 20.3361 26.5C20.3361 26.4468 20.3374 26.394 20.34 26.3415L19.2551 26.0508L18.9564 27.1649L15.2256 27.1651L15.0308 26.9703C12.6451 24.5846 11.2229 23.2671 10.2517 22.5354L9.9443 23.6824C10.9666 24.2071 11.6661 25.2719 11.6661 26.5C11.6661 28.248 10.2491 29.665 8.50107 29.665C6.75309 29.665 5.33607 28.248 5.33607 26.5C5.33607 24.752 6.75309 23.335 8.50107 23.335C8.55418 23.335 8.60698 23.3363 8.65944 23.3389L9.0659 21.822C9.00133 21.7971 8.94032 21.7767 8.88203 21.7598C8.61071 21.681 8.35826 21.6651 8.00104 21.6651H7.33616L7.33582 19.8219ZM10.918 18.8574L9.97366 17.9131L8.68374 20.1473L10.918 18.8574ZM12.2059 19.6496L10.12 20.8538C10.3113 20.9605 10.5115 21.0869 10.725 21.2357C11.7854 21.9748 13.2763 23.3412 15.7763 25.8351L17.9361 25.8349L18.6799 23.0611L18.986 22.885C20.2481 22.1586 20.9428 21.7588 21.8269 21.4148C22.6386 21.0989 23.607 20.8311 25.3359 20.3672L25.3359 20.165H23.0704L19.3383 21.165L17.117 21.165L16.925 20.8325C16.3795 19.8877 16.1662 19.6668 15.7429 19.5562C15.48 19.4875 15.1029 19.4599 14.4918 19.4816C13.9145 19.5022 13.1807 19.5639 12.2059 19.6496ZM9.58594 25.0199L9.32332 26H7.94641L8.30123 24.6757C7.3818 24.7753 6.66607 25.5541 6.66607 26.5C6.66607 27.5134 7.48763 28.335 8.50107 28.335C9.51452 28.335 10.3361 27.5134 10.3361 26.5C10.3361 25.8924 10.0408 25.3538 9.58594 25.0199ZM23.5011 24.665C22.8936 24.665 22.355 24.9602 22.021 25.415L23.001 25.6776V27.0545L21.6768 26.6997C21.7763 27.6192 22.5551 28.335 23.5011 28.335C24.5145 28.335 25.3361 27.5134 25.3361 26.5C25.3361 25.4865 24.5145 24.665 23.5011 24.665Z" fill="#000000" class="bmwfcol"/><title>car-and-motorcycle_lt_48</title></svg>