<svg width="48" height="48" viewBox="0 0 32 32" xmlns="http://www.w3.org/2000/svg"><path d="M14.6644 25.0614L14.5677 25.2217L13.6866 26.6649L11.287 26.6656L11.0004 26.379L10.9086 26.4708L10.7132 26.6649H8.34877L8.15335 26.3562L7.33507 25.0684V22.9125L7.52911 22.7171L7.90407 22.3421L8.09949 22.1481L10.4066 22.1474L11.0004 22.4443L11.452 22.2178L11.5929 22.1474H13.9007L14.6651 22.9118L14.6644 25.0614ZM10.0931 23.4774H8.66503V24.6817L9.07935 25.3349H10.1607L10.3347 25.1609V23.5989L10.0931 23.4774ZM11.9071 23.4781L11.6647 23.5989V25.1609L11.8387 25.3349H12.9408L13.3351 24.6879L13.3344 23.4774L11.9071 23.4781Z" fill="#000000" class="bmwfcol"/><path d="M19.9995 20.2899C19.213 20.2899 18.733 20.2812 18.3739 20.3189C18.2233 20.3347 18.1135 20.359 18.0273 20.3879L17.979 20.4404C18.3458 20.7843 18.6974 21.1307 18.9761 21.4707C19.326 21.8975 19.6645 22.432 19.6645 23.032V29.6652H15.3349V28.7717C12.2931 28.9685 9.70633 28.9685 6.66456 28.7717V29.6652H2.33491V23.032C2.335 22.4319 2.67477 21.8976 3.02475 21.4707C3.303 21.1313 3.65243 20.7845 4.01843 20.4411L3.96802 20.3865C3.88221 20.3583 3.77313 20.3351 3.62483 20.3196C3.26582 20.2819 2.78638 20.2899 2 20.2899V18.9599C2.7311 18.9599 3.31572 18.95 3.765 18.9972C4.12799 19.0353 4.45395 19.1143 4.75592 19.2851C4.89457 19.0245 5.05198 18.7433 5.2241 18.4689C5.43264 18.1365 5.67015 17.7989 5.92292 17.5118C6.16627 17.2355 6.4686 16.9532 6.81924 16.7992C7.22746 16.6201 7.54773 16.49 8.15956 16.4187C8.72517 16.3529 9.55482 16.3352 10.9997 16.3352C13.6391 16.3352 14.2786 16.4035 15.1809 16.7999C15.5311 16.9543 15.8339 17.2361 16.0772 17.5125C16.33 17.7997 16.5668 18.1379 16.7754 18.4703C16.9473 18.7443 17.1052 19.0249 17.2435 19.2851C17.5457 19.1141 17.8719 19.0346 18.2351 18.9965C18.6844 18.9494 19.2685 18.9599 19.9995 18.9599V20.2899ZM17.093 21.4313L16.7947 21.1537C16.5804 21.1142 16.2835 21.0847 15.8632 21.066C14.8805 21.0223 13.3817 21.0405 10.9997 21.0405C8.6181 21.0405 7.11892 21.0216 6.13561 21.0653C5.71632 21.084 5.41988 21.1151 5.20546 21.1544C4.73525 21.5874 4.33677 21.9662 4.05227 22.3131C4.03294 22.3367 4.01458 22.3598 3.99702 22.3822C4.71157 22.5382 5.48043 22.6317 6.50021 22.7088V24.0429C5.38146 23.9607 4.50484 23.8583 3.66488 23.6714V28.3353H5.33459V27.3478L6.0486 27.3989C9.58266 27.6565 12.4168 27.6565 15.9509 27.3989L16.6649 27.3478V28.3353H18.3346L18.3353 23.6721C17.4953 23.859 16.6179 23.9607 15.4992 24.0429L15.4999 22.7095C16.5191 22.6325 17.2875 22.5388 18.0017 22.3829C17.9842 22.3605 17.9665 22.3367 17.9472 22.3131C17.725 22.0422 17.4337 21.7518 17.093 21.4313ZM15.0787 18.3909C14.8812 18.1665 14.7323 18.0552 14.6451 18.0166C14.0358 17.749 13.6717 17.6651 10.9997 17.6651C9.53882 17.6651 8.78943 17.6851 8.31424 17.7404C7.88608 17.7903 7.70255 17.8652 7.3544 18.018C7.2678 18.0561 7.11864 18.1662 6.92074 18.3909C6.73227 18.605 6.53725 18.8774 6.35036 19.1753C6.23281 19.3627 6.12205 19.5551 6.02029 19.7402C6.03854 19.7393 6.05703 19.7383 6.07553 19.7374C7.09818 19.6919 8.6531 19.7098 11.0004 19.7098C13.3473 19.7098 14.9006 19.6919 15.9225 19.7374C15.9409 19.7383 15.9597 19.7393 15.9778 19.7402C15.8762 19.5557 15.7664 19.3636 15.6491 19.1767C15.4621 18.8788 15.2673 18.6052 15.0787 18.3909Z" fill="#000000" class="bmwfcol"/><path d="M26.371 10.9297C27.8961 12.4549 28.7305 13.7404 28.9357 14.9044C29.1038 15.8601 28.8355 16.6479 28.3515 17.3116L28.5331 17.4932C29.3539 18.3237 29.6648 19.5319 29.6649 21.0004C29.6647 22.4765 29.3509 23.6894 28.5206 24.5201C27.69 25.3506 26.4767 25.6649 25.0003 25.665H20.9994V24.335H25.0003C26.3228 24.3349 27.111 24.0485 27.5801 23.5796C28.0489 23.1104 28.3348 22.3225 28.3349 21.0004C28.3348 19.6874 28.0525 18.9011 27.5898 18.4309L27.4255 18.2666C26.7385 18.8042 25.9151 19.1136 24.9043 18.9357C23.7404 18.7306 22.4548 17.8962 20.9296 16.3711L20.46 15.9001L20.9296 15.4292L21.5835 14.7753L19.4298 12.6215L20.371 11.6803L22.5247 13.8341L23.834 12.5248L21.6802 10.371L22.6214 9.42845L24.7752 11.5836L25.4291 10.9297L25.9001 10.4601L26.371 10.9297ZM22.3493 15.8918C23.5742 17.0301 24.4706 17.5086 25.1356 17.6258C25.809 17.7441 26.352 17.5074 26.9297 16.9297C27.5073 16.3521 27.744 15.809 27.6257 15.1357C27.5086 14.4706 27.03 13.5743 25.8918 12.3494L22.3493 15.8918Z" fill="#000000" class="bmwfcol"/><path d="M15.3812 4.44072L19.9028 8.96234L18.9623 9.90285L14.4407 5.38123V8.68336L13.2916 7.53432V3.8662L13.2909 3.29099L13.8661 3.29168H17.5343L18.6833 4.44072H15.3812Z" fill="#000000" class="bmwfcol"/><title>car_plug_arrow_up_left_lt_48</title></svg>