<svg width="72" height="48" viewBox="0 0 48 32" xmlns="http://www.w3.org/2000/svg"><path d="M27.9238 8.83444C28.1113 8.83472 28.303 8.835 28.4995 8.835C32.4004 8.835 35.4456 9.0615 37.5203 9.28898C38.6515 9.41301 39.7862 9.55529 40.9013 9.78689L44.6647 13.3072V14.9999C44.6647 15.3956 44.6735 15.5038 44.7324 15.6363C44.9237 16.067 45.3357 16.3958 45.6643 16.7244L45.6647 20.3838C44.5963 21.0006 43.5159 21.6754 42.3023 21.9598C41.4767 22.1533 40.6111 22.1643 39.3189 22.1648C38.6765 23.6365 37.2083 24.665 35.5 24.665C33.7916 24.665 32.3235 23.6365 31.681 22.1649H14.3189C13.6765 23.6365 12.2083 24.665 10.5 24.665C8.79157 24.665 7.32342 23.6365 6.681 22.1648C5.8832 22.1642 5.36742 22.1583 4.86417 22.0977C4.00412 21.9941 3.16913 21.7346 2.33496 21.5091V16.6666C2.33496 16.3753 2.43887 15.9764 2.81279 15.5654C3.17291 15.1697 3.76448 14.7824 4.7096 14.4377C6.56848 13.7598 9.97458 13.183 16.2581 13.1686C18.848 11.0105 20.5797 9.89347 22.3444 9.34421C24.0007 8.82867 25.6461 8.83109 27.9238 8.83444ZM6.34815 20.8339C6.33941 20.7238 6.33496 20.6124 6.33496 20.5C6.33496 18.1998 8.19969 16.335 10.5 16.335C12.8002 16.335 14.665 18.1998 14.665 20.5C14.665 20.6127 14.6605 20.7244 14.6517 20.8349H31.3482C31.3394 20.7244 31.335 20.6127 31.335 20.5C31.335 18.1998 33.1997 16.335 35.5 16.335C37.8002 16.335 39.665 18.1998 39.665 20.5C39.665 20.6124 39.6605 20.7238 39.6518 20.834C40.7605 20.8298 41.3989 20.8055 41.9988 20.6649C42.6313 20.5167 43.2468 20.2316 44.3346 19.6144L44.3344 17.272C43.9402 16.8627 43.6721 16.5256 43.5169 16.1763C43.3339 15.7643 43.3343 15.3873 43.3346 15.0449L43.3347 13.8843L40.2692 11.0168L40.2615 11.0154C40.0632 10.9789 39.7085 10.9172 39.204 10.8432C39.5595 11.179 39.8402 11.4733 40.018 11.7504C40.2222 12.0686 40.3288 12.4256 40.2236 12.8234C40.1219 13.2082 39.8507 13.5182 39.6145 13.8287L34.0555 14.6339L17.9988 15.0015L16.7016 14.4983H16.4999C10.1048 14.4983 6.82437 15.0822 5.1653 15.6872C3.82433 16.1763 3.6766 16.6121 3.66496 16.6701V20.4893C4.28101 20.6508 4.64928 20.7322 5.02318 20.7772C5.37963 20.8201 5.74844 20.8311 6.34815 20.8339ZM33.7847 10.314L34.5121 13.2239L38.8769 12.5916C38.9047 12.5502 38.9298 12.5172 38.8986 12.4687C38.8119 12.3335 38.627 12.1257 38.2557 11.7771C37.9238 11.4655 37.4801 11.0748 36.892 10.56C36.0107 10.4704 34.9724 10.3834 33.7847 10.314ZM32.3964 10.2446C31.2166 10.1953 29.9158 10.165 28.4995 10.165L28.35 10.1649L27.7712 13.4474L33.1662 13.3239L32.3964 10.2446ZM26.4152 13.4785L26.9994 10.1654C25.2042 10.1724 23.9769 10.229 22.7396 10.6141C21.3991 11.0314 20.0111 11.8501 17.9137 13.5323L18.2637 13.6651L26.4152 13.4785ZM10.5 17.665C8.93423 17.665 7.66496 18.9343 7.66496 20.5C7.66496 22.0657 8.93423 23.335 10.5 23.335C12.0657 23.335 13.335 22.0657 13.335 20.5C13.335 18.9343 12.0657 17.665 10.5 17.665ZM35.5 17.665C33.9342 17.665 32.665 18.9343 32.665 20.5C32.665 22.0657 33.9342 23.335 35.5 23.335C37.0657 23.335 38.335 22.0657 38.335 20.5C38.335 18.9343 37.0657 17.665 35.5 17.665Z" fill="#000000" class="bmwfcol"/><title>car-model-touring_lt_48</title></svg>