<svg width="48" height="48" viewBox="0 0 32 32" xmlns="http://www.w3.org/2000/svg"><path d="M18.919 6.33496C17.2402 6.33486 16.0356 6.33479 14.8164 6.74463C13.6117 7.14962 12.441 7.93477 10.7341 9.3557C7.63348 9.62677 5.99181 9.77226 4.83781 10.0287C3.61276 10.301 2.91526 10.7037 1.70098 11.4048L1.33521 11.616L1.33496 16.0136L1.82788 16.1457C2.75025 16.3928 3.27586 16.5242 3.64335 16.5919C3.80169 16.621 3.93213 16.6386 4.05006 16.6491C4.51001 17.829 5.65737 18.665 6.99999 18.665C8.33659 18.665 9.47967 17.8364 9.94369 16.665H21.0563C21.5203 17.8364 22.6634 18.665 24 18.665C25.3371 18.665 26.4805 17.8358 26.9442 16.6637C27.4579 16.6586 27.8829 16.6341 28.3253 16.5183C28.8992 16.368 29.4695 16.0742 30.3327 15.5759L30.6652 15.3839L30.665 12.7245L30.4702 12.5297C30.005 12.0645 29.8216 11.7633 29.7424 11.5655C29.6687 11.3812 29.665 11.2439 29.665 10.9999L29.6649 9.39057L27.4376 9.19571L27.2897 9.11001C25.8 8.24716 24.6135 7.55996 23.4057 7.09133C22.0975 6.58377 20.776 6.33497 19 6.33497L18.919 6.33496ZM27.9883 15.2317C27.7456 15.2952 27.5095 15.3198 27.1605 15.3292C27.0717 13.6606 25.6907 12.335 24 12.335C22.3074 12.335 20.9251 13.6637 20.8392 15.335H10.1608C10.0749 13.6637 8.69263 12.335 6.99999 12.335C5.32728 12.335 3.95765 13.6326 3.84279 15.2761C3.59753 15.2289 3.24753 15.1448 2.66502 14.9919L2.66517 12.3843C3.67881 11.8026 4.20773 11.5312 5.12637 11.3271C6.19705 11.0891 7.77029 10.9499 11.0581 10.6624L11.267 10.6442L11.4276 10.5094C13.2076 9.01581 14.2515 8.33768 15.2402 8.00531C16.2326 7.67171 17.2212 7.66497 19 7.66497C20.6325 7.66497 21.7882 7.89039 22.9246 8.33127C24.0329 8.76127 25.1334 9.39848 26.6685 10.2873L27.0272 10.4949L28.335 10.6093L28.335 11.0155C28.3349 11.2706 28.3348 11.6276 28.5075 12.0594C28.6565 12.4319 28.9163 12.8209 29.335 13.269L29.3352 14.6136C28.6823 14.9801 28.317 15.1456 27.9883 15.2317ZM5.16499 15.5C5.16499 14.4865 5.98655 13.665 6.99999 13.665C8.01343 13.665 8.83499 14.4865 8.83499 15.5C8.83499 16.5134 8.01343 17.335 6.99999 17.335C5.98655 17.335 5.16499 16.5134 5.16499 15.5ZM22.165 15.5C22.165 14.4865 22.9865 13.665 24 13.665C25.0134 13.665 25.835 14.4865 25.835 15.5C25.835 16.5134 25.0134 17.335 24 17.335C22.9865 17.335 22.165 16.5134 22.165 15.5Z" fill="#000000" class="bmwfcol"/><path d="M19.3115 18H17.9346L19.1966 22.71C18.3393 22.4271 17.2185 22.2811 15.9449 22.2811C14.6561 22.2811 13.5238 22.4306 12.6627 22.7201L13.9274 18H12.5505L10.9428 24H10.9637C10.8819 24.1839 10.8354 24.3876 10.8354 24.6127C10.8354 25.5672 11.6714 26.1371 12.4892 26.4437C13.3691 26.7737 14.5676 26.9444 15.9449 26.9444C17.3222 26.9444 18.5207 26.7737 19.4006 26.4437C20.2184 26.1371 21.0543 25.5672 21.0543 24.6127C21.0543 24.373 21.0016 24.1576 20.9097 23.9645L19.3115 18ZM12.9562 24.0271C13.6318 23.7737 14.6555 23.6111 15.9449 23.6111C17.2343 23.6111 18.258 23.7737 18.9336 24.0271C19.6714 24.3037 19.7243 24.5672 19.7243 24.6127C19.7243 24.6583 19.6714 24.9217 18.9336 25.1984C18.258 25.4518 17.2343 25.6144 15.9449 25.6144C14.6555 25.6144 13.6318 25.4518 12.9562 25.1984C12.2184 24.9217 12.1654 24.6583 12.1654 24.6127C12.1654 24.5672 12.2184 24.3037 12.9562 24.0271Z" fill="#000000" class="bmwfcol"/><title>car_side_beam_lt_48</title></svg>