<svg width="48" height="48" viewBox="0 0 32 32" xmlns="http://www.w3.org/2000/svg"><path d="M24.5214 2.19836L20.189 4.68412L22.9194 14.7764L22.6168 18.496L23.4537 21.0769L28.995 17.8776L24.5214 2.19836ZM21.7408 5.32714L23.7089 4.19794L27.4313 17.2447L24.2119 19.1034L23.964 18.3387L24.2639 14.653L21.7408 5.32714Z" fill="#000000" class="bmwfcol"/><path d="M13.9656 3.886L14.0273 6.78496L15.6512 9.94679L18.6222 8.3098L18.9513 8.86224L18.38 9.20255C18.9513 8.86224 18.9513 8.86219 18.9513 8.86224L18.9525 8.86424L18.9554 8.86918L18.9663 8.8876L19.0069 8.95666C19.0418 9.0163 19.0917 9.10225 19.1526 9.20868C19.2741 9.42131 19.44 9.71684 19.6171 10.0483C19.9625 10.6949 20.381 11.5339 20.5731 12.1571C20.7688 12.792 20.789 13.6126 20.7735 14.2161C20.7654 14.5296 20.7467 14.8077 20.7301 15.0077C20.7218 15.1079 20.7139 15.1891 20.7081 15.2459C20.7051 15.2744 20.7027 15.2967 20.7009 15.3124L20.6989 15.3308L20.698 15.3377C20.698 15.3378 20.6979 15.3387 20.0376 15.2596L20.698 15.3377L20.6575 15.6762L15.2104 18.6986L14.3487 17.9293L14.3663 17.6099L14.3666 17.6055L14.3674 17.5895L14.3703 17.5244C14.3728 17.4671 14.3759 17.3834 14.3786 17.2797C14.3841 17.072 14.3879 16.7868 14.3812 16.4757C14.3671 15.8156 14.3066 15.1667 14.1804 14.8394C13.9962 14.362 13.6965 13.6923 13.4371 13.131C13.3085 12.8528 13.1918 12.6052 13.1072 12.4273C13.065 12.3384 13.0308 12.267 13.0072 12.2179L12.9802 12.1616L12.6963 11.5749L14.4859 10.5889L12.7041 7.11983L12.6359 3.91429L13.9656 3.886ZM14.6445 12.5732C14.9044 13.1358 15.2202 13.8396 15.4213 14.3607C15.6429 14.9353 15.6972 15.8096 15.7109 16.4472C15.7143 16.606 15.7152 16.7581 15.7146 16.8978L19.4087 14.848C19.4227 14.6715 19.4373 14.4392 19.4439 14.1818C19.4591 13.5937 19.4292 12.9611 19.3022 12.5489C19.1522 12.0625 18.7919 11.3263 18.444 10.675C18.3313 10.4641 18.2232 10.268 18.129 10.1001L14.4393 12.1331C14.5014 12.2653 14.571 12.4142 14.6445 12.5732Z" fill="#000000" class="bmwfcol"/><path d="M8.06884 11.677L13.6409 22.364L14.6141 26.0919L8.31349 29.7296L4.10596 13.965L8.06884 11.677ZM5.65388 14.607L9.15109 27.7103L13.0712 25.447L12.392 22.8455L7.53141 13.523L5.65388 14.607Z" fill="#000000" class="bmwfcol"/><title>car_pedals_lt_48</title></svg>