<svg width="48" height="48" viewBox="0 0 32 32" xmlns="http://www.w3.org/2000/svg"><path d="M10.2245 17.0849H13.1569L14 17.5064L14.843 17.0849H17.7754L18.665 17.9744V20.6868L17.4578 22.6649H14.4745L14 22.1903L13.5254 22.6649H10.5871L9.33496 20.6932V17.9744L10.2245 17.0849ZM10.7754 18.4149L10.665 18.5253V20.3066L11.318 21.3349H12.9745L13.335 20.9744V18.6609L12.843 18.4149H10.7754ZM14.665 18.6609V20.9744L15.0254 21.3349H16.7113L17.335 20.313V18.5253L17.2245 18.4149H15.1569L14.665 18.6609Z" fill="#000000" class="bmwfcol"/><path d="M4.68695 14.5842C4.13643 15.0952 3.61011 15.6055 3.2037 16.1012C2.74345 16.6626 2.33496 17.3236 2.33496 18.0428V26.665H7.66496V25.4628C11.9532 25.7457 16.0467 25.7457 20.335 25.4628V26.665H25.665V18.0428C25.665 17.3236 25.2565 16.6626 24.7962 16.1012C24.3384 15.5427 23.7283 14.9658 23.103 14.3902C23.2688 14.2995 23.4796 14.2406 23.8093 14.206C24.2267 14.1622 24.7605 14.1631 25.5435 14.1644C25.687 14.1647 25.8389 14.1649 25.9999 14.1649V12.8349C25.8484 12.8349 25.7022 12.8346 25.5612 12.8343C24.7856 12.8327 24.1647 12.8314 23.6705 12.8832C23.2317 12.9293 22.8477 13.0205 22.495 13.207C22.3053 12.848 22.0856 12.4581 21.8465 12.0771C21.572 11.6397 21.2634 11.2002 20.9371 10.8294C20.6201 10.4694 20.2414 10.1223 19.8183 9.9357C18.6615 9.42746 17.8504 9.33496 14 9.33496C10.1495 9.33496 9.3396 9.42753 8.1818 9.93563C7.75812 10.1216 7.3799 10.4684 7.06292 10.8284C6.73649 11.1991 6.42786 11.6388 6.15334 12.0764C5.91424 12.4575 5.69442 12.8478 5.50473 13.207C5.15204 13.0205 4.76802 12.9293 4.32919 12.8832C3.83506 12.8314 3.21426 12.8327 2.4388 12.8343C2.2978 12.8346 2.1514 12.8349 2 12.8349V14.1649C2.161 14.1649 2.31282 14.1647 2.45627 14.1644C3.23919 14.1631 3.77306 14.1622 4.19038 14.206C4.52002 14.2406 4.73085 14.2994 4.8969 14.3902C4.846 14.4371 4.79521 14.4839 4.74459 14.5308C4.72463 14.5476 4.70498 14.565 4.68567 14.5828L4.68695 14.5842ZM14 10.665C17.8989 10.665 18.424 10.7759 19.283 11.1533C19.4431 11.224 19.6675 11.4 19.9388 11.7082C20.201 12.0061 20.4671 12.381 20.72 12.7841C20.9615 13.169 21.1832 13.5668 21.3703 13.9259C21.1229 13.9021 20.8513 13.8845 20.5534 13.8713C19.5227 13.8254 18.0836 13.8283 16.0763 13.8323C15.4426 13.8336 14.7522 13.835 14.0001 13.835C13.2475 13.835 12.5567 13.8336 11.9227 13.8323C9.91513 13.8283 8.47636 13.8254 7.44507 13.8713C7.14771 13.8845 6.87662 13.902 6.62957 13.9258C6.81669 13.5664 7.0384 13.1683 7.28001 12.7831C7.53292 12.38 7.79893 12.005 8.06109 11.7073C8.33263 11.399 8.55688 11.2235 8.71634 11.1535C9.57682 10.7759 10.1008 10.665 14 10.665ZM22.409 15.56C22.9509 16.0633 23.4194 16.5196 23.7677 16.9444C23.877 17.0777 23.9678 17.2001 24.0422 17.3123C22.8977 17.5934 21.6995 17.737 20 17.8574V19.1907C21.7656 19.0679 23.0678 18.9188 24.335 18.6099V25.335H21.665V24.0347L20.9516 24.0867C16.2282 24.4311 11.7717 24.4311 7.04831 24.0867L6.33496 24.0347V25.335H3.66496V18.6099C4.93218 18.9188 6.2344 19.068 8 19.1908V17.8574C6.30043 17.737 5.10225 17.5934 3.95768 17.3123C4.03217 17.2001 4.12292 17.0777 4.23222 16.9444C4.58649 16.5123 5.06515 16.0474 5.61896 15.5338C5.69177 15.4778 5.82301 15.4094 6.08743 15.3492C6.4 15.2779 6.84615 15.2292 7.50419 15.2C8.50189 15.1556 9.8954 15.1583 11.8895 15.1623C12.529 15.1636 13.2303 15.165 14.0001 15.165C14.7699 15.165 15.4712 15.1636 16.1106 15.1623C18.1044 15.1583 19.4972 15.1556 20.4943 15.2C21.1519 15.2292 21.5976 15.2779 21.9098 15.3491C22.2166 15.4191 22.3439 15.5 22.409 15.56Z" fill="#000000" class="bmwfcol"/><path d="M11.8206 7.99988C11.9008 7.8961 11.9811 7.79812 12.0611 7.70732C12.3326 7.39895 12.5569 7.22351 12.7163 7.15348C13.5768 6.77586 14.1008 6.66496 18 6.66496C21.8989 6.66496 22.424 6.77588 23.283 7.15323C23.443 7.22397 23.6674 7.39999 23.9388 7.70821C24.201 8.0061 24.467 8.38103 24.72 8.78406C25.2255 9.58973 25.6441 10.4521 25.8407 10.8976L25.9435 11.1307L26.1317 11.3039C26.7913 11.9099 27.3612 12.4487 27.7677 12.9444C28.1892 13.4585 28.335 13.81 28.335 14.0428V21.335H27V22.665H29.665V14.0428C29.665 13.3236 29.2565 12.6626 28.7962 12.1012C28.325 11.5265 27.6927 10.9322 27.0483 10.3399C26.8307 9.84925 26.388 8.94 25.8465 8.07712C25.572 7.63967 25.2634 7.20014 24.9371 6.82941C24.6201 6.46934 24.2414 6.12226 23.8183 5.9357C22.6615 5.42746 21.8503 5.33496 18 5.33496C14.1494 5.33496 13.3396 5.42753 12.1818 5.93563C11.7581 6.12162 11.3799 6.46838 11.0629 6.82837C10.7555 7.17747 10.4639 7.58776 10.2016 7.99988H11.8206Z" fill="#000000" class="bmwfcol"/><title>car_front_double_lt_48</title></svg>