<svg width="48" height="48" viewBox="0 0 32 32" xmlns="http://www.w3.org/2000/svg"><path d="M28.6649 10.0005C28.6649 6.84936 27.6116 4.17177 25.7202 2.28027L24.7797 3.22073C26.3882 4.82923 27.3349 7.1516 27.3349 10.0005C27.3349 12.8493 26.3882 15.1717 24.7797 16.7802L25.7201 17.7207C27.6116 15.8292 28.6649 13.1516 28.6649 10.0005Z" fill="#000000" class="bmwfcol"/><path d="M23.6649 10.0005C23.6649 11.6516 23.1116 13.0792 22.0951 14.0957L21.1547 13.1552C21.8882 12.4217 22.3349 11.3493 22.3349 10.0005C22.3349 8.6516 21.8882 7.57923 21.1547 6.84573L22.0952 5.90527C23.1116 6.92177 23.6649 8.34936 23.6649 10.0005Z" fill="#000000" class="bmwfcol"/><path d="M2 23.8074H4.68054C5.26079 25.5079 6.87206 26.7308 8.76895 26.7308C10.6661 26.7308 12.2775 25.5076 12.8576 23.8069C13.7029 23.8033 14.3438 23.7783 15.0128 23.6031C15.8071 23.3951 16.6081 22.9859 17.871 22.2568L18.2036 22.0648L18.2032 18.4824L18.0084 18.2876C17.3124 17.5916 17.0136 17.1173 16.8768 16.7753C16.7454 16.4467 16.7417 16.1941 16.7417 15.8348L16.7416 13.7638L13.6985 13.4976L13.4323 13.3434C11.2457 12.077 9.53163 11.0843 7.78935 10.4083C6.05066 9.7337 4.29407 9.37663 2 9.3291V10.6594C4.14224 10.7063 5.73675 11.0385 7.30827 11.6482C8.95097 12.2856 10.5792 13.2283 12.811 14.5206L13.2881 14.7968L15.4116 14.9825L15.4117 15.8519C15.4116 16.2209 15.4115 16.6933 15.6419 17.2692C15.8503 17.7903 16.2279 18.3533 16.8732 19.0289L16.8735 21.2954C15.8174 21.8948 15.222 22.1734 14.6759 22.3164C14.2206 22.4357 13.7807 22.4667 13.0873 22.4747C13.0876 22.4538 13.0878 22.4329 13.0878 22.412C13.0878 20.0267 11.1542 18.0931 8.76895 18.0931C6.38372 18.0931 4.45011 20.0267 4.45011 22.412C4.45011 22.4338 4.45027 22.4557 4.4506 22.4774H2V23.8074ZM5.78011 22.412C5.78011 20.7613 7.11826 19.4231 8.76895 19.4231C10.4196 19.4231 11.7578 20.7613 11.7578 22.412C11.7578 24.0626 10.4196 25.4008 8.76895 25.4008C7.11826 25.4008 5.78011 24.0626 5.78011 22.412Z" fill="#000000" class="bmwfcol"/><path d="M28 21.165H21V19.835H28V21.165Z" fill="#000000" class="bmwfcol"/><path d="M27 24.165H20V22.835H27V24.165Z" fill="#000000" class="bmwfcol"/><title>car_side_moving_noise_lt_48</title></svg>