<svg width="48" height="48" viewBox="0 0 32 32" xmlns="http://www.w3.org/2000/svg"><path d="M19 6.33497C20.776 6.33497 22.0971 6.5843 23.4053 7.0918C24.6526 7.57574 25.8774 8.29248 27.4365 9.19532L29.0576 9.3379L29.665 9.39063V11L29.667 11.165C29.6715 11.3153 29.6869 11.4272 29.7422 11.5654C29.8213 11.7633 30.0055 12.0641 30.4707 12.5293L30.665 12.7246V15.3838L30.333 15.5762C29.4698 16.0745 28.8991 16.3682 28.3252 16.5186C27.8823 16.6345 27.4568 16.6581 26.9424 16.6631C26.4787 17.8352 25.3371 18.665 24 18.665C22.6636 18.665 21.5218 17.8363 21.0576 16.665H18.665V24.335H30V25.665H2V24.335H13.335V16.665H9.94238C9.47823 17.8363 8.33641 18.665 7 18.665C5.65679 18.665 4.50936 17.8281 4.0498 16.6475C3.93203 16.6369 3.80162 16.6209 3.64355 16.5918C3.27608 16.5241 2.75039 16.3926 1.82812 16.1455L1.33496 16.0137V11.6162L1.66797 11.4238C2.90268 10.711 3.6018 10.3031 4.83789 10.0283C5.99192 9.77186 7.63372 9.62655 10.7344 9.35547C12.4411 7.93476 13.6118 7.1501 14.8164 6.74512C16.0551 6.32872 17.2788 6.33497 19 6.33497ZM14.665 24.335H17.335V16.665H14.665V24.335ZM7 13.665C5.98656 13.665 5.16504 14.4866 5.16504 15.5C5.16504 16.5134 5.98656 17.335 7 17.335C8.01344 17.335 8.83496 16.5134 8.83496 15.5C8.83496 14.4866 8.01344 13.665 7 13.665ZM24 13.665C22.9866 13.665 22.165 14.4866 22.165 15.5C22.165 16.5134 22.9866 17.335 24 17.335C25.0134 17.335 25.835 16.5134 25.835 15.5C25.835 14.4866 25.0134 13.665 24 13.665ZM19 7.66504C17.2213 7.66504 16.2326 7.67134 15.2402 8.00489C14.2515 8.33727 13.2077 9.01619 11.4277 10.5098L11.2666 10.6445L11.0586 10.6621C7.77078 10.9495 6.19666 11.0892 5.12598 11.3272C4.20724 11.5314 3.67927 11.8046 2.66504 12.3867V14.9893C3.248 15.1423 3.59842 15.227 3.84375 15.2744C3.95947 13.6317 5.32789 12.335 7 12.335C8.69263 12.335 10.0753 13.6637 10.1611 15.335H20.8389C20.9247 13.6637 22.3074 12.335 24 12.335C25.6897 12.335 27.0699 13.659 27.1602 15.3262C27.5093 15.3167 27.7455 15.295 27.9883 15.2315C28.3171 15.1453 28.6813 14.9773 29.335 14.6104V13.2686C28.9165 12.8207 28.6568 12.432 28.5078 12.0596C28.3315 11.6189 28.335 11.2561 28.335 11V10.6084L27.0273 10.4951L26.8994 10.4209C25.2423 9.46203 24.0878 8.78231 22.9248 8.33106C21.7885 7.89018 20.6325 7.66505 19 7.66504Z" fill="#000000" class="bmwfcol"/><title>car_side_lifting_platform_lt_48</title></svg>