<svg width="48" height="48" viewBox="0 0 32 32" xmlns="http://www.w3.org/2000/svg"><path d="M16.665 2V6H15.335V2H16.665Z" fill="#000000" class="bmwfcol"/><path d="M24.5759 4.20799L22.5759 7.67209L21.4241 7.00709L23.4241 3.54299L24.5759 4.20799Z" fill="#000000" class="bmwfcol"/><path d="M8.57589 3.54299L10.5759 7.00709L9.42407 7.67209L7.42407 4.20799L8.57589 3.54299Z" fill="#000000" class="bmwfcol"/><path d="M7.42407 27.7974L9.42407 24.3333L10.5759 24.9983L8.57589 28.4624L7.42407 27.7974Z" fill="#000000" class="bmwfcol"/><path d="M15.335 30.0054V26.0054H16.665V30.0054H15.335Z" fill="#000000" class="bmwfcol"/><path d="M23.4241 28.4624L21.4241 24.9983L22.5759 24.3333L24.5759 27.7974L23.4241 28.4624Z" fill="#000000" class="bmwfcol"/><path d="M15.407 15.1477H13.0995L12.335 15.9123V18.0685L13.349 19.6652H15.713L16 19.3782L16.287 19.6652H18.6866L19.665 18.0621V15.9123L18.9005 15.1477H16.593L16 15.4442L15.407 15.1477ZM13.665 17.6819V16.4777H15.093L15.335 16.5987V18.1623L15.162 18.3352H14.0799L13.665 17.6819ZM16.665 18.1623V16.5987L16.907 16.4777H18.335V17.6883L17.9402 18.3352H16.838L16.665 18.1623Z" fill="#000000" class="bmwfcol"/><path d="M8.76424 11.9974C8.384 11.9575 7.90683 11.9585 7.32614 11.9598C7.22087 11.96 7.11216 11.9603 7 11.9603V13.2903C7.12193 13.2903 7.23647 13.2901 7.34434 13.2899C7.93255 13.2889 8.32199 13.2883 8.62543 13.3201C8.77207 13.3355 8.88031 13.357 8.96554 13.3848L9.01805 13.4416C8.65211 13.785 8.30244 14.1314 8.02424 14.4707C7.67421 14.8976 7.335 15.4321 7.335 16.0323V22.6652H11.665V21.7751C14.7066 21.9719 17.2934 21.9719 20.335 21.7751V22.6652H24.665V16.0323C24.665 15.4321 24.3258 14.8976 23.9758 14.4707C23.6972 14.131 23.3471 13.7842 22.9806 13.4404L23.031 13.3858C23.1167 13.3576 23.2258 13.3357 23.3744 13.3201C23.6779 13.2883 24.0675 13.2889 24.6557 13.2899C24.7634 13.2901 24.8783 13.2902 25 13.2902V11.9602C24.888 11.9602 24.7789 11.96 24.6738 11.9598C24.0931 11.9585 23.6159 11.9575 23.2356 11.9974C22.8729 12.0355 22.5473 12.1144 22.2455 12.2849C22.1068 12.0243 21.9479 11.7441 21.7757 11.4697C21.5672 11.1373 21.3304 10.7996 21.0776 10.5124C20.8383 10.2406 20.5418 9.96405 20.1991 9.80807C19.3796 9.397 18.5985 9.33521 16 9.33521C14.5546 9.33521 13.7019 9.35352 13.1248 9.41912C12.5084 9.48921 12.1812 9.6167 11.8012 9.80793C11.4582 9.96357 11.1616 10.24 10.9224 10.5116C10.6696 10.7988 10.4328 11.1366 10.2242 11.4691C10.052 11.7437 9.89306 12.0242 9.75434 12.2849C9.45253 12.1144 9.12704 12.0355 8.76424 11.9974ZM12.3869 11.0021C12.6576 10.8652 12.8335 10.7908 13.2751 10.7406C13.7639 10.685 14.5393 10.6652 16 10.6652C18.6985 10.6652 19.1256 10.7553 19.6127 11.0019L19.6286 11.0099L19.6448 11.0171C19.732 11.0555 19.8813 11.1663 20.0793 11.3912C20.268 11.6056 20.4622 11.8787 20.6492 12.1766C20.7667 12.3639 20.8779 12.5555 20.9797 12.7404L20.9224 12.7377C20.1452 12.7031 19.0609 12.7053 17.5538 12.7083C17.079 12.7093 16.5623 12.7103 16 12.7103C15.4378 12.7103 14.9209 12.7093 14.4462 12.7083C12.9388 12.7053 11.8541 12.7031 11.0764 12.7377L11.0201 12.7403C11.1219 12.5552 11.2333 12.3634 11.3509 12.1759C11.5379 11.8778 11.732 11.6047 11.9206 11.3906C12.1186 11.1657 12.2676 11.0556 12.3542 11.0175L12.3708 11.0103L12.3869 11.0021ZM21.794 14.1536C22.2647 14.587 22.6625 14.9667 22.9472 15.3139C22.967 15.338 22.9858 15.3615 23.0037 15.3844C22.289 15.5408 21.5201 15.6332 20.5 15.7104V17.0441C21.6187 16.962 22.4951 16.8604 23.335 16.6732V21.3352H21.665V20.3475L20.9517 20.3995C17.4171 20.6571 14.5829 20.6571 11.0483 20.3995L10.335 20.3475V21.3352H8.665V16.6732C9.5049 16.8604 10.3813 16.962 11.5 17.0441V15.7104C10.4799 15.6333 9.71097 15.5408 8.99627 15.3844C9.01418 15.3615 9.033 15.338 9.05276 15.3139C9.33756 14.9666 9.73562 14.5868 10.2065 14.1531C10.4208 14.114 10.717 14.085 11.1355 14.0664C11.8796 14.0333 12.9197 14.0354 14.4134 14.0383C14.8935 14.0393 15.4207 14.0403 16 14.0403C16.5795 14.0403 17.107 14.0393 17.5872 14.0383C19.0807 14.0354 20.1197 14.0333 20.8633 14.0664C21.2831 14.0851 21.5797 14.1142 21.794 14.1536Z" fill="#000000" class="bmwfcol"/><title>car_front_rays_lt_48</title></svg>