<svg width="48" height="48" viewBox="0 0 32 32" xmlns="http://www.w3.org/2000/svg"><path d="M6 19.665C4.46201 19.665 3.09397 19.259 2 18.5036V16.7548C2.03933 16.7973 2.07941 16.8389 2.12023 16.8797C2.60158 17.3611 3.19911 17.7409 3.89984 17.9916L3.12272 14.4298C3.09405 14.3416 3.06837 14.2529 3.04534 14.165L3 14.1651H2V12.835H2.84283C2.83719 12.7309 2.83451 12.634 2.83451 12.5469C2.83451 11.6352 3.50189 11.0398 3.9608 10.7301C4.28637 10.5103 4.6421 10.418 4.97851 10.3754C5.29829 10.3349 5.64661 10.335 5.97517 10.335H6.02385C6.35241 10.335 6.70074 10.3349 7.02051 10.3754C7.35693 10.418 7.71265 10.5103 8.03823 10.7301C8.49714 11.0398 9.16451 11.6352 9.16451 12.5469C9.16451 12.634 9.16184 12.7309 9.15619 12.835L11.3332 12.8351C11.2979 11.2628 10.7578 9.9982 9.87977 9.12019C8.97127 8.21169 7.64888 7.66496 6 7.66496C4.35112 7.66496 3.02873 8.21169 2.12023 9.12019C2.07941 9.161 2.03933 9.20264 2 9.24512V7.49636C3.09397 6.74088 4.46201 6.33496 6 6.33496C7.95112 6.33496 9.62873 6.98824 10.8202 8.17973C12.0117 9.37123 12.665 11.0488 12.665 13C12.665 14.9511 12.0117 16.6287 10.8202 17.8202C9.62873 19.0117 7.95112 19.665 6 19.665ZM4.57159 14.4312C4.60384 14.4801 4.71211 14.5865 4.97398 14.6814C5.22647 14.7729 5.57362 14.835 5.99951 14.835C6.4254 14.835 6.77255 14.7729 7.02505 14.6814C7.28691 14.5865 7.39519 14.4801 7.42743 14.4312C7.48691 14.3408 7.54362 14.2172 7.59491 14.0681L7.79122 13.1684C7.82161 12.927 7.83451 12.7067 7.83451 12.5469C7.83451 12.3335 7.66855 12.0852 7.29413 11.8324C7.20304 11.7709 7.07265 11.7226 6.85351 11.6949C6.62564 11.666 6.3583 11.665 5.99951 11.665C5.64072 11.665 5.37338 11.666 5.14551 11.6949C4.92637 11.7226 4.79599 11.7709 4.70489 11.8324C4.33047 12.0852 4.16451 12.3335 4.16451 12.5469C4.16451 12.7044 4.17704 12.9206 4.20649 13.1579L4.40676 14.0758C4.45735 14.2215 4.51313 14.3424 4.57159 14.4312ZM5.32919 18.3035C5.54628 18.3243 5.76996 18.335 6 18.335C6.23004 18.335 6.45372 18.3243 6.67081 18.3035L7.1674 16.0275C6.81355 16.1188 6.4185 16.165 5.99951 16.165C5.58093 16.165 5.18625 16.1189 4.83266 16.0278L5.32919 18.3035ZM8.10016 17.9916C8.80089 17.7409 9.39842 17.3611 9.87977 16.8797C10.563 16.1965 11.0416 15.2792 11.237 14.1651L8.95368 14.165C8.93146 14.2498 8.90676 14.3354 8.8793 14.4206L8.10016 17.9916Z" fill="#000000" class="bmwfcol"/><path d="M11.8622 7.33484C12.2523 7.74017 12.5901 8.18572 12.8747 8.66484H20.2672L21.9681 11.5915L21.2247 12.3348H13.9783C13.9933 12.5541 14.0008 12.7759 14.0008 12.9999C14.0008 13.2238 13.9933 13.4456 13.9783 13.6648H21.7756L23.6323 11.8082L21.0326 7.33484H11.8622Z" fill="#000000" class="bmwfcol"/><path d="M13.1466 16.8349C12.9121 17.3079 12.6301 17.7531 12.3011 18.1649H23.3753L24.9114 16.6288L29.9999 15.9412V14.5991L24.2884 15.3709L22.8244 16.8349H13.1466Z" fill="#000000" class="bmwfcol"/><path d="M29.9999 11.6649V10.3349H24.3197L25.0896 11.6649H29.9999Z" fill="#000000" class="bmwfcol"/><path d="M24.2587 27.9999H25.6356L23.358 19.4999H21.9811L24.2587 27.9999Z" fill="#000000" class="bmwfcol"/><path d="M14.383 19.4999L12.1054 27.9999H10.7285L13.0061 19.4999H14.383Z" fill="#000000" class="bmwfcol"/><path d="M21.0003 23.6649H15.5003V22.3349H21.0003V23.6649Z" fill="#000000" class="bmwfcol"/><title>car_cockpit_lt_48</title></svg>