<svg width="72" height="48" viewBox="0 0 48 32" xmlns="http://www.w3.org/2000/svg"><path d="M25.7784 9.1856C24.0155 9.18368 22.8686 9.18244 21.5476 9.66812C20.205 10.1618 18.6985 11.1505 16.047 13.0309C11.1823 13.048 7.86509 13.6535 5.73778 14.3099C4.65974 14.6425 3.88063 14.9903 3.3583 15.2859C2.93828 15.5236 2.33496 15.8506 2.33496 16.4088V21.5091C3.16912 21.7345 4.00412 21.994 4.86417 22.0976C5.36742 22.1582 5.8832 22.1642 6.68099 22.1648C7.32341 23.6364 8.79157 24.665 10.5 24.665C12.2083 24.665 13.6765 23.6364 14.3189 22.1648H31.681C32.3234 23.6364 33.7916 24.665 35.5 24.665C37.2083 24.665 38.6765 23.6364 39.3189 22.1648C40.6111 22.1642 41.4767 22.1532 42.3022 21.9598C43.5159 21.6754 44.5963 21.0006 45.6647 20.3837L45.6643 16.7244C45.1142 16.1743 44.6646 15.7997 44.6646 14.9999V12.5127L42.384 12.4698C41.4816 12.2006 40.6311 11.8877 39.7515 11.564C35.1854 9.88405 30.6509 9.18908 25.7784 9.1856ZM39.6518 20.834C39.6605 20.7238 39.665 20.6124 39.665 20.5C39.665 18.1997 37.8002 16.335 35.5 16.335C33.1997 16.335 31.335 18.1997 31.335 20.5C31.335 20.6127 31.3394 20.7244 31.3482 20.8348H14.6517C14.6605 20.7244 14.665 20.6127 14.665 20.5C14.665 18.1997 12.8002 16.335 10.5 16.335C8.19969 16.335 6.33496 18.1997 6.33496 20.5C6.33496 20.6124 6.33941 20.7237 6.34815 20.8339C5.11937 20.8281 4.8683 20.8048 3.66496 20.4892L3.66496 16.664C4.38311 16.1377 5.29119 15.8396 6.12993 15.5808C8.09578 14.9742 11.2498 14.3856 15.9568 14.3613L17.3398 14.9049C21.4883 14.7956 25.6399 14.7534 29.7863 14.5753C32.7673 14.4472 35.7664 14.2728 38.665 13.5236C38.665 13.2065 38.7009 12.8661 38.597 12.5609C39.7971 12.997 40.9677 13.4397 42.1796 13.7962L43.3346 13.8179L43.3346 15.0448C43.3336 15.9802 43.6935 16.6065 44.3344 17.2719L44.3346 19.6144C43.2468 20.2316 42.6313 20.5166 41.9988 20.6649C41.3989 20.8054 40.7604 20.8298 39.6518 20.834ZM17.5934 13.5677C19.775 12.0391 20.9755 11.2955 22.0066 10.9164C23.0989 10.5148 24.0134 10.5151 25.8876 10.5158C26.172 10.5159 26.4564 10.5161 26.7408 10.519L25.9765 13.3714C23.4353 13.4384 20.63 13.4886 17.5934 13.5677ZM27.364 13.3321L28.1093 10.5503C29.6504 10.6059 30.9824 10.7261 32.1609 10.8922L32.95 13.0604C31.9611 13.1366 30.8861 13.1968 29.7292 13.2465C28.972 13.279 28.1832 13.307 27.364 13.3321ZM34.321 12.9384L33.6676 11.1432C34.4724 11.2991 35.2019 11.4768 35.8808 11.668C36.2784 12.0887 36.5964 12.3777 36.8392 12.5854C36.0965 12.7269 35.2556 12.8426 34.321 12.9384ZM10.5 17.665C12.0657 17.665 13.335 18.9343 13.335 20.5C13.335 22.0657 12.0657 23.335 10.5 23.335C8.93423 23.335 7.66496 22.0657 7.66496 20.5C7.66496 18.9343 8.93423 17.665 10.5 17.665ZM35.5 17.665C37.0657 17.665 38.335 18.9343 38.335 20.5C38.335 22.0657 37.0657 23.335 35.5 23.335C33.9342 23.335 32.665 22.0657 32.665 20.5C32.665 18.9343 33.9342 17.665 35.5 17.665Z" fill="#000000" class="bmwfcol"/><title>car-model-gran-coupe_lt_48</title></svg>