<svg width="72" height="48" viewBox="0 0 48 32" xmlns="http://www.w3.org/2000/svg"><path d="M25.7784 9.18564C24.0155 9.18373 22.8686 9.18248 21.5476 9.66816C20.205 10.1618 18.6985 11.1506 16.047 13.0309C11.1823 13.0481 7.86509 13.6535 5.73778 14.3099C4.65974 14.6426 3.88063 14.9904 3.3583 15.2859C2.93828 15.5236 2.33496 15.8507 2.33496 16.4088V21.5091C3.16912 21.7346 4.00412 21.9941 4.86417 22.0977C5.36742 22.1583 5.88321 22.1642 6.68101 22.1648C7.32344 23.6364 8.79158 24.665 10.5 24.665C12.2083 24.665 13.6764 23.6365 14.3189 22.1649H31.681C32.3235 23.6365 33.7916 24.665 35.5 24.665C37.2083 24.665 38.6765 23.6365 39.3189 22.1648C40.6111 22.1643 41.4767 22.1533 42.3022 21.9598C43.5159 21.6754 44.5963 21.0006 45.6647 20.3838L45.6643 16.7244C45.3357 16.3958 44.9237 16.067 44.7323 15.6363C44.6735 15.5038 44.6646 15.3954 44.6646 14.9998L44.6641 12.9393L41.155 12.5155C39.0905 11.7669 36.9971 11.0956 34.8734 10.5353C31.8995 9.75303 28.8614 9.18785 25.7784 9.18564ZM29.8609 10.8308C31.2342 11.0402 32.7009 11.349 34.2287 11.7419C34.5274 12.0793 34.7429 12.3057 34.9675 12.5582C33.4419 12.8911 31.4355 13.0859 28.9931 13.2151L29.8609 10.8308ZM28.5099 10.654L27.5534 13.2821C24.6771 13.4003 21.3382 13.4545 17.6061 13.5589C19.7796 12.0363 20.9775 11.2948 22.0066 10.9165C23.0989 10.5149 24.0134 10.5152 25.8876 10.5158C26.7644 10.516 27.6379 10.5599 28.5099 10.654ZM17.0442 14.9055C20.837 14.7961 24.6331 14.7537 28.4235 14.5752C31.1668 14.4459 33.9233 14.263 36.5756 13.5114C36.5756 13.1208 36.6049 12.7239 36.444 12.3571C37.8579 12.7774 39.3084 13.2592 40.7724 13.7916L43.3344 14.1184L43.3346 15.0449C43.3342 15.3873 43.3339 15.7643 43.5169 16.1763C43.6721 16.5256 43.9402 16.8627 44.3344 17.2719L44.3346 19.6144C43.2468 20.2316 42.6313 20.5167 41.9988 20.6649C41.3989 20.8055 40.7604 20.8298 39.6518 20.834C39.6605 20.7238 39.665 20.6124 39.665 20.5C39.665 18.1997 37.8002 16.335 35.5 16.335C33.1997 16.335 31.335 18.1997 31.335 20.5C31.335 20.6127 31.3394 20.7244 31.3482 20.8349H14.6517C14.6605 20.7244 14.665 20.6127 14.665 20.5C14.665 18.1997 12.8002 16.335 10.5 16.335C8.19969 16.335 6.33496 18.1997 6.33496 20.5C6.33496 20.6124 6.33941 20.7238 6.34815 20.8339C5.11937 20.8282 4.8683 20.8048 3.66496 20.4893L3.66496 16.664C4.38311 16.1378 5.29119 15.8396 6.12993 15.5808C8.07162 14.9817 11.1725 14.4001 15.7839 14.3625L17.0442 14.9055ZM10.5 17.665C12.0657 17.665 13.335 18.9343 13.335 20.5C13.335 22.0657 12.0657 23.335 10.5 23.335C8.93423 23.335 7.66496 22.0657 7.66496 20.5C7.66496 18.9343 8.93423 17.665 10.5 17.665ZM35.5 17.665C37.0657 17.665 38.335 18.9343 38.335 20.5C38.335 22.0657 37.0657 23.335 35.5 23.335C33.9342 23.335 32.665 22.0657 32.665 20.5C32.665 18.9343 33.9342 17.665 35.5 17.665Z" fill="#000000" class="bmwfcol"/><title>car-model-coupe_lt_48</title></svg>