<svg width="72" height="48" viewBox="0 0 48 32" xmlns="http://www.w3.org/2000/svg"><path d="M28.9949 6.32981C29.3321 6.33239 29.6676 6.33495 30.0004 6.33496C36.0658 6.33496 38.388 6.8446 42.172 7.85852L42.6649 7.99059V9.30704L44.6654 12.4742C44.6654 12.8021 44.66 13.1315 44.6546 13.4615C44.6425 14.2054 44.6303 14.952 44.6796 15.6901C44.69 15.8476 44.7077 15.8743 44.8306 15.9699C45.1283 16.2014 45.3992 16.4583 45.6654 16.7245V19.2754L45.4706 19.4702C44.4653 20.4755 43.743 21.0805 42.7966 21.3833C41.9936 21.6403 41.0654 21.663 39.7597 21.6648C39.2486 23.538 37.5351 24.915 35.5 24.915C33.4649 24.915 31.7514 23.538 31.2403 21.665H14.7596C14.2485 23.538 12.5351 24.915 10.5 24.915C8.46467 24.915 6.75105 23.5378 6.24015 21.6644C5.50236 21.6614 4.8879 21.6424 4.3557 21.5241C3.53358 21.3414 2.91622 20.8567 2.33496 20.2754V14.8333C2.33496 14.4524 2.54737 14.0864 2.92754 13.772C3.30428 13.4604 3.89822 13.1506 4.81626 12.8544C6.63262 12.2684 9.89162 11.6817 15.7426 11.3484C18.618 8.94377 20.4242 7.65048 22.4006 6.99354C24.5008 6.29547 26.7853 6.31293 28.9949 6.32981ZM37 8.06876C36.177 7.9462 35.2973 7.85161 34.2907 7.78489L35.2929 11.525C36.2015 11.381 37.3807 11.1171 38.9989 10.5622C38.5327 9.61477 37.7843 8.76109 37 8.06876ZM28.6153 7.66691L27.4691 11.9444C27.8263 11.9369 28.1839 11.9305 28.5416 11.9241C30.3489 11.8918 32.1615 11.8594 33.9594 11.6871L32.8946 7.71347C31.4689 7.65999 30.0418 7.66093 28.6153 7.66691ZM27.2343 7.68199C25.3484 7.72054 24.0519 7.84623 22.8201 8.25565C21.1792 8.80105 19.6117 9.86711 16.9481 12.0754C19.1771 12.147 21.4175 12.0881 23.6523 12.0294C24.4642 12.008 25.2753 11.9867 26.0849 11.9717L27.2343 7.68199ZM7.41496 20.5C7.41496 22.2038 8.79616 23.585 10.5 23.585C12.2038 23.585 13.585 22.2038 13.585 20.5C13.585 18.7962 12.2038 17.415 10.5 17.415C8.79616 17.415 7.41496 18.7962 7.41496 20.5ZM32.415 20.5C32.415 22.2038 33.7962 23.585 35.5 23.585C37.2038 23.585 38.585 22.2038 38.585 20.5C38.585 18.7962 37.2038 17.415 35.5 17.415C33.7962 17.415 32.415 18.7962 32.415 20.5ZM39.9119 20.3339C41.1474 20.3287 41.826 20.2975 42.3913 20.1166C42.9661 19.9327 43.464 19.5767 44.3354 18.7226V17.2851C44.2554 17.2131 44.1694 17.1459 44.0833 17.0786C43.8849 16.9235 43.6855 16.7676 43.5552 16.5504C43.4081 16.3054 43.3698 16.0374 43.3525 15.7786C43.3071 15.0983 43.3171 14.4108 43.327 13.7258C43.3312 13.4362 43.3354 13.147 43.3354 12.8591L41.3349 9.6919V9.01189C40.5884 8.81438 39.8966 8.6387 39.2115 8.48477C39.6587 9.04687 40.1157 9.66822 40.3525 10.3524C40.5199 10.836 40.4717 11.4503 39.9125 11.651C36.8671 12.744 35.166 12.9073 34.0338 13.016C33.9267 13.0263 33.8247 13.036 33.7272 13.0461C32.4825 13.1742 28.2392 13.2687 24.3566 13.3319C21.8034 13.3734 19.25 13.4048 16.6965 13.4292L15.1981 12.7131C9.77923 13.0493 6.81886 13.6058 5.22465 14.1202C5.17573 14.136 5.12443 14.1521 5.07137 14.1688C4.59308 14.3192 3.97174 14.5146 3.66496 14.9046V19.7131C4.00269 20.01 4.2917 20.1475 4.64422 20.2258C5.00676 20.3064 5.44348 20.3275 6.08806 20.333C6.17581 17.972 8.11751 16.085 10.5 16.085C12.8831 16.085 14.8252 17.9731 14.9119 20.335H31.088C31.1748 17.9731 33.1169 16.085 35.5 16.085C37.8827 16.085 39.8246 17.9725 39.9119 20.3339Z" fill="#000000" class="bmwfcol"/><title>car-model-sav_lt_48</title></svg>