<svg width="72" height="48" viewBox="0 0 48 32" xmlns="http://www.w3.org/2000/svg"><path d="M26.9161 8.33467C24.491 8.33459 22.9915 8.33455 21.3108 8.93607C19.6656 9.52486 17.872 10.6799 14.769 12.8496C11.2205 13.1132 8.55833 13.7355 6.76155 14.3457C5.84928 14.6555 5.15194 14.965 4.67153 15.2279C4.25653 15.4549 3.66821 15.7697 3.66821 16.3193V21.5087C4.47835 21.7276 5.29044 21.9987 6.12585 22.0974C6.66057 22.1605 7.29194 22.1643 8.45555 22.1645C9.0812 23.4942 10.4331 24.4147 12 24.4147C13.5669 24.4147 14.9189 23.4941 15.5445 22.1643H32.4554C33.0811 23.4941 34.433 24.4147 36 24.4147C37.5669 24.4147 38.9189 23.4941 39.5445 22.1643H40.057C40.7656 22.0393 41.4779 21.924 42.1791 21.7611C42.6941 21.6415 43.1269 21.5055 43.4741 21.2888C44.2488 20.8054 44.4453 19.9128 44.665 19.0902V17.7272C44.3575 17.4197 43.9183 17.1022 43.7198 16.7052C43.6796 16.6248 43.665 16.5528 43.665 16.0026L43.6661 13.6931L40.6645 11.1745V9.99568L40.1716 9.86361C35.8566 8.70739 31.371 8.33495 26.9161 8.33467ZM39.9009 20.8343C39.9102 20.724 39.915 20.6124 39.915 20.4997C39.915 18.3375 38.1622 16.5847 36 16.5847C33.8378 16.5847 32.085 18.3375 32.085 20.4997C32.085 20.6124 32.0897 20.724 32.0991 20.8343H15.9009C15.9102 20.724 15.915 20.6124 15.915 20.4997C15.915 18.3375 14.1622 16.5847 12 16.5847C9.83777 16.5847 8.08496 18.3375 8.08496 20.4997C8.08496 20.6123 8.08972 20.7239 8.09905 20.8341C7.15459 20.8325 6.67974 20.8236 6.28185 20.7766C5.90476 20.732 5.60038 20.6541 4.99821 20.4909V16.582C5.65554 16.1354 6.44382 15.8582 7.18926 15.6051C9.75489 14.7337 12.4752 14.3434 15.1691 14.1544L16.6726 14.5759L36.288 13.651C36.5737 13.3653 36.8891 13.0896 37.1074 12.747C37.3154 12.4205 37.3793 12.035 37.256 11.6644C37.0884 11.1604 36.6772 10.7596 36.3162 10.3838C37.361 10.5627 38.3657 10.7748 39.3345 11.0199V11.7947L42.3358 14.3131L42.3349 16.085C42.334 16.5046 42.3332 16.9061 42.5302 17.3C42.7195 17.6787 43.04 17.9811 43.335 18.2777V18.9147C43.0803 19.8574 42.9978 20.0183 42.77 20.1605C42.617 20.2559 42.3626 20.3531 41.8781 20.4656C41.2542 20.6106 40.545 20.8343 39.9009 20.8343ZM33.3752 9.97951C33.6276 10.0062 33.8777 10.0346 34.1256 10.0647C34.7504 10.6894 35.5662 11.2547 35.977 12.0456C35.9303 12.1148 35.8512 12.2024 35.7099 12.3468L33.114 12.4692L33.3752 9.97951ZM32.0508 9.85658L31.77 12.5325L27.239 12.7462L27.8851 9.67007C29.338 9.68795 30.7245 9.75023 32.0508 9.85658ZM25.8664 12.8109L16.5345 13.2192C18.9773 11.5384 20.4886 10.6429 21.7589 10.1883C23.1093 9.70498 24.3098 9.66769 26.5271 9.6649L25.8664 12.8109ZM12 17.9147C13.4276 17.9147 14.585 19.072 14.585 20.4997C14.585 21.9273 13.4276 23.0847 12 23.0847C10.5723 23.0847 9.41496 21.9273 9.41496 20.4997C9.41496 19.072 10.5723 17.9147 12 17.9147ZM36 17.9147C37.4276 17.9147 38.585 19.072 38.585 20.4997C38.585 21.9273 37.4276 23.0847 36 23.0847C34.5723 23.0847 33.415 21.9273 33.415 20.4997C33.415 19.072 34.5723 17.9147 36 17.9147Z" fill="#000000" class="bmwfcol"/><title>car-model-compact_lt_48</title></svg>