<svg width="72" height="48" viewBox="0 0 48 32" xmlns="http://www.w3.org/2000/svg"><path d="M21.4607 9.33334H24.0195C22.9872 9.875 20.3418 11.336 17.6267 13.4048C19.3882 13.3358 21.148 13.2292 22.9079 13.1225C24.3352 13.0361 25.7625 12.9496 27.1908 12.8832L26.8935 10.8334H28.2374L28.526 12.8233C30.2084 12.7509 31.8817 12.6909 33.3781 12.658L33.2076 10.8334H34.5434L34.7118 12.6356C35.0157 12.6323 35.3083 12.6306 35.5879 12.6306C37.6826 12.6306 39.8 12.6721 41.8816 12.9357L44.6641 12.9728L44.6648 14.9999C44.6648 15.3956 44.6736 15.5039 44.7324 15.6364C44.8851 15.9799 45.1781 16.2587 45.4571 16.5241C45.528 16.5915 45.5979 16.658 45.6644 16.7245L45.6648 20.3839C45.5598 20.4445 45.4548 20.5057 45.3494 20.567C44.3828 21.1296 43.3968 21.7035 42.3023 21.96C41.4768 22.1534 40.6112 22.1644 39.3189 22.165C38.6764 23.6366 37.2083 24.6651 35.5 24.6651C33.7916 24.6651 32.3235 23.6366 31.6811 22.165H14.3189C13.6764 23.6366 12.2083 24.6651 10.5 24.6651C8.79157 24.6651 7.32341 23.6365 6.68099 22.1648C5.8832 22.1643 5.36742 22.1583 4.86417 22.0977C4.15202 22.0119 3.45705 21.8193 2.76551 21.6275C2.62189 21.5877 2.47841 21.5479 2.33496 21.5092V16.3167C2.33496 16.0265 2.4824 15.7882 2.60634 15.6339C3.26076 14.819 4.44363 14.4415 5.39706 14.1555C7.42154 13.5484 10.7555 13.0266 16.1113 13.0025C17.7999 11.6497 19.599 10.4345 21.4607 9.33334ZM7.66496 20.5001C7.66496 22.0658 8.93423 23.3351 10.5 23.3351C12.0657 23.3351 13.335 22.0658 13.335 20.5001C13.335 18.9344 12.0657 17.6651 10.5 17.6651C8.93423 17.6651 7.66496 18.9344 7.66496 20.5001ZM32.665 20.5001C32.665 22.0658 33.9342 23.3351 35.5 23.3351C37.0657 23.3351 38.335 22.0658 38.335 20.5001C38.335 18.9344 37.0657 17.6651 35.5 17.6651C33.9342 17.6651 32.665 18.9344 32.665 20.5001ZM41.9989 20.665C42.6314 20.5168 43.2469 20.2318 44.3347 19.6146L44.3345 17.2721C43.9403 16.8628 43.6722 16.5258 43.517 16.1764C43.334 15.7645 43.3344 15.3875 43.3347 15.045L43.3345 14.2852L41.7823 14.2645C39.7407 13.979 37.6437 13.9606 35.5879 13.9606C29.8291 13.9606 24.0596 14.3332 18.3119 14.7043C18.0384 14.722 17.765 14.7396 17.4916 14.7572L16.1516 14.3324C10.8458 14.3541 7.64112 14.8711 5.77911 15.4295C5.74011 15.4412 5.70037 15.453 5.66002 15.465C4.98855 15.665 4.1458 15.9159 3.66496 16.4416V20.4893C4.28101 20.6509 4.64928 20.7322 5.02318 20.7772C5.37963 20.8202 5.74844 20.8312 6.34815 20.834C6.33941 20.7238 6.33496 20.6125 6.33496 20.5001C6.33496 18.1998 8.19969 16.3351 10.5 16.3351C12.8002 16.3351 14.665 18.1998 14.665 20.5001C14.665 20.6128 14.6605 20.7245 14.6517 20.835H31.3482C31.3394 20.7245 31.335 20.6128 31.335 20.5001C31.335 18.1998 33.1997 16.3351 35.5 16.3351C37.8002 16.3351 39.665 18.1998 39.665 20.5001C39.665 20.6125 39.6605 20.724 39.6518 20.8342C40.7605 20.83 41.399 20.8056 41.9989 20.665Z" fill="#000000" class="bmwfcol"/><title>car-model-convertible_lt_48</title></svg>