<svg width="48" height="48" viewBox="0 0 32 32" xmlns="http://www.w3.org/2000/svg"><path d="M7.5 3.66496H24.5V2.33496H7.5V3.66496Z" fill="#000000" class="bmwfcol"/><path d="M2.88086 13.9999L7.49966 5.99994H9.03541L4.41661 13.9999H2.88086Z" fill="#000000" class="bmwfcol"/><path d="M10.1684 10.9999L11.5081 5.99994H12.885L11.5453 10.9999H10.1684Z" fill="#000000" class="bmwfcol"/><path d="M21.8319 10.9999H20.455L19.1152 5.99994H20.4921L21.8319 10.9999Z" fill="#000000" class="bmwfcol"/><path d="M27.583 13.9999H29.1187L24.4999 5.99994H22.9642L27.583 13.9999Z" fill="#000000" class="bmwfcol"/><path d="M15.3359 5.99994V9.99994H16.6659V5.99994H15.3359Z" fill="#000000" class="bmwfcol"/><path d="M15.156 20.085H12.2235L11.334 20.9745V23.6933L12.5861 25.665H15.5244L15.999 25.1904L16.4735 25.665H19.4568L20.664 23.6869L20.664 20.9745L19.7744 20.085H16.842L15.999 20.5065L15.156 20.085ZM12.664 21.5254L12.7744 21.415H14.842L15.3359 21.6619V23.9726L14.9735 24.335H13.317L12.664 23.3067V21.5254ZM16.6659 23.9765V21.66L17.156 21.415H19.2235L19.334 21.5254V23.3131L18.7103 24.335H17.0244L16.6659 23.9765Z" fill="#000000" class="bmwfcol"/><path d="M5.20468 19.1012C5.71394 18.4801 6.30844 17.9341 6.89751 17.3906C6.73137 17.2996 6.52043 17.2406 6.19038 17.206C5.69668 17.1542 5.03936 17.1649 4 17.1649V15.8349C4.98368 15.8349 5.74534 15.822 6.32919 15.8833C6.76833 15.9293 7.15259 16.0207 7.50549 16.2074C7.69523 15.8481 7.91513 15.4577 8.15432 15.0764C8.42884 14.6388 8.73747 14.1991 9.06389 13.8284C9.38088 13.4684 9.7591 13.1217 10.1828 12.9357C11.3406 12.4276 12.1504 12.335 16.001 12.335C19.8513 12.335 20.6624 12.4275 21.8193 12.9358C22.2424 13.1223 22.6211 13.4694 22.9381 13.8295C23.2644 14.2002 23.573 14.6397 23.8475 15.0772C24.0864 15.4579 24.306 15.8476 24.4956 16.2064C24.8479 16.0203 25.2316 15.9293 25.6698 15.8833C26.2537 15.8221 27.0154 15.835 27.9992 15.835V17.165C27.2698 17.165 26.535 17.1298 25.8086 17.2061C25.4796 17.2406 25.269 17.2993 25.1033 17.3897C25.7289 17.9655 26.3392 18.5426 26.7972 19.1012C27.2574 19.6626 27.6659 20.3236 27.6659 21.0429V29.665H22.3359V28.4628C18.0477 28.7458 13.9542 28.7458 9.66594 28.4628V29.665H4.33594V21.0429C4.33594 20.3236 4.74443 19.6626 5.20468 19.1012ZM10.7173 14.1535C10.0866 14.4305 9.62836 15.2294 9.28098 15.7832C9.03944 16.1682 8.81779 16.5662 8.6307 16.9255C8.87742 16.9018 9.14809 16.8843 9.44494 16.8711C10.4762 16.8252 11.915 16.8281 13.9226 16.8322C15.3071 16.8322 16.6917 16.8341 18.0762 16.8322C20.0835 16.8281 21.5226 16.8252 22.5533 16.8711C22.8516 16.8844 23.1235 16.902 23.3712 16.9259C23.1841 16.5668 22.9625 16.169 22.7209 15.7841C22.3729 15.2294 21.9149 14.4321 21.284 14.1533C20.425 13.7759 19.8999 13.665 16.001 13.665C12.1018 13.665 11.5778 13.7759 10.7173 14.1535ZM24.4088 18.5599C23.9759 18.1602 23.0232 18.2234 22.4941 18.1998C21.4971 18.1554 20.1042 18.1582 18.1105 18.1621C16.7045 18.1621 15.297 18.165 13.891 18.1622C12.4297 18.1596 10.9644 18.1348 9.50407 18.1998C8.95361 18.2243 8.10288 18.1743 7.62586 18.5284C7.03432 19.0768 6.40846 19.6349 5.95887 20.312C7.10314 20.593 8.30104 20.7366 10 20.857V22.1903C8.23488 22.0675 6.9329 21.9184 5.66594 21.6095V28.335H8.33594V27.0348C13.4452 27.4072 18.5574 27.4072 23.6659 27.0348V28.335H26.3359V21.6104C25.0685 21.9194 23.7661 22.0686 22 22.1914V20.8581C23.7002 20.7376 24.8987 20.594 26.0435 20.3128C25.6022 19.6477 24.9893 19.0989 24.4088 18.5599Z" fill="#000000" class="bmwfcol"/><title>car-wash_lt_48</title></svg>