<svg width="48" height="48" viewBox="0 0 32 32" xmlns="http://www.w3.org/2000/svg"><path d="M19 10.335H18.919C17.2402 10.3349 16.0356 10.3348 14.8164 10.7446C13.6117 11.1496 12.441 11.9348 10.7341 13.3557C7.63347 13.6268 5.99181 13.7723 4.83781 14.0287C3.61276 14.301 2.91526 14.7037 1.70098 15.4048L1.33521 15.616L1.33496 20.0136L1.82788 20.1457C2.75025 20.3928 3.27586 20.5242 3.64335 20.5919C3.80167 20.621 3.93211 20.6386 4.05004 20.6491C4.50998 21.829 5.65734 22.665 6.99996 22.665C8.33656 22.665 9.47964 21.8364 9.94366 20.665H21.0563C21.5203 21.8364 22.6634 22.665 24 22.665C25.3371 22.665 26.4805 21.8358 26.9442 20.6637C27.4578 20.6586 27.8829 20.6341 28.3253 20.5183C28.8992 20.368 29.4695 20.0742 30.3327 19.5759L30.6652 19.3839L30.665 16.7245L30.4702 16.5297C30.005 16.0645 29.8216 15.7633 29.7424 15.5655C29.6687 15.3812 29.665 15.2439 29.665 14.9999L29.6649 13.3906L27.4376 13.1957L27.2897 13.11C25.8 12.2472 24.6135 11.56 23.4057 11.0913C22.0975 10.5838 20.776 10.335 19 10.335ZM27.1604 19.3292C27.0717 17.6606 25.6906 16.335 24 16.335C22.3073 16.335 20.925 17.6637 20.8392 19.335H10.1607C10.0749 17.6637 8.6926 16.335 6.99996 16.335C5.32725 16.335 3.95762 17.6326 3.84276 19.2761C3.5975 19.2289 3.2475 19.1448 2.66502 18.9919L2.66517 16.3843C3.67881 15.8026 4.20773 15.5312 5.12637 15.3271C6.19705 15.0891 7.77029 14.9499 11.0581 14.6624L11.267 14.6442L11.4276 14.5094C13.2076 13.0158 14.2515 12.3377 15.2402 12.0053C16.2326 11.6717 17.2212 11.665 19 11.665C20.6325 11.665 21.7882 11.8904 22.9246 12.3313C24.0329 12.7613 25.1334 13.3985 26.6685 14.2873L27.0272 14.4949L28.335 14.6093V15.0155C28.3349 15.2706 28.3348 15.6276 28.5075 16.0594C28.6565 16.4319 28.9163 16.8209 29.335 17.269L29.3352 18.6136C28.6823 18.9801 28.317 19.1456 27.9883 19.2317C27.7456 19.2952 27.5095 19.3198 27.1604 19.3292ZM6.99996 17.665C8.0134 17.665 8.83496 18.4865 8.83496 19.5C8.83496 20.5134 8.0134 21.335 6.99996 21.335C5.98652 21.335 5.16496 20.5134 5.16496 19.5C5.16496 18.4865 5.98652 17.665 6.99996 17.665ZM24 17.665C25.0134 17.665 25.835 18.4865 25.835 19.5C25.835 20.5134 25.0134 21.335 24 21.335C22.9865 21.335 22.165 20.5134 22.165 19.5C22.165 18.4865 22.9865 17.665 24 17.665Z" fill="#000000" class="bmwfcol"/><title>car-side_lt_48</title></svg>