<svg width="48" height="48" viewBox="0 0 32 32" xmlns="http://www.w3.org/2000/svg"><path d="M16.665 6V2H15.335V6H16.665Z" fill="#000000" class="bmwfcol"/><path d="M24.5759 4.20799L22.5759 7.67209L21.4241 7.00709L23.4241 3.54299L24.5759 4.20799Z" fill="#000000" class="bmwfcol"/><path d="M19 10.335C20.776 10.335 22.0975 10.5838 23.4057 11.0914C24.6135 11.56 25.8 12.2472 27.2897 13.11L27.4376 13.1957L29.6649 13.3906L29.665 15C29.665 15.2439 29.6687 15.3812 29.7424 15.5655C29.8216 15.7634 30.005 16.0645 30.4702 16.5298L30.665 16.7245L30.6652 19.3839L30.3327 19.5759C29.4695 20.0743 28.8992 20.368 28.3253 20.5183C27.8829 20.6342 27.4578 20.6586 26.9442 20.6637C26.4805 21.8359 25.3371 22.665 24 22.665C22.6634 22.665 21.5203 21.8365 21.0563 20.665H9.94369C9.47967 21.8365 8.33659 22.665 6.99999 22.665C5.65737 22.665 4.51001 21.829 4.05006 20.6491C3.93213 20.6386 3.80169 20.6211 3.64335 20.5919C3.27586 20.5242 2.75025 20.3928 1.82788 20.1457L1.33496 20.0136L1.33521 15.616L1.70098 15.4049C2.91526 14.7038 3.61276 14.301 4.83781 14.0288C5.99181 13.7723 7.63348 13.6268 10.7341 13.3557C12.441 11.9348 13.6117 11.1497 14.8164 10.7447C16.0356 10.3348 17.2402 10.3349 18.919 10.335L19 10.335ZM27.1605 19.3292C27.5095 19.3198 27.7456 19.2953 27.9883 19.2317C28.317 19.1456 28.6823 18.9801 29.3352 18.6136L29.335 17.269C28.9163 16.8209 28.6565 16.432 28.5075 16.0595C28.3348 15.6276 28.3349 15.2706 28.335 15.0155L28.335 14.6093L27.0272 14.4949L26.6685 14.2873C25.1334 13.3985 24.0329 12.7613 22.9246 12.3313C21.7882 11.8904 20.6325 11.665 19 11.665C17.2212 11.665 16.2326 11.6717 15.2402 12.0053C14.2515 12.3377 13.2076 13.0158 11.4276 14.5094L11.267 14.6442L11.0581 14.6625C7.77029 14.9499 6.19705 15.0891 5.12637 15.3271C4.20773 15.5313 3.67881 15.8026 2.66517 16.3843L2.66502 18.9919C3.24753 19.1448 3.59753 19.2289 3.84279 19.2761C3.95765 17.6326 5.32728 16.335 6.99999 16.335C8.69263 16.335 10.0749 17.6637 10.1608 19.335H20.8392C20.9251 17.6637 22.3074 16.335 24 16.335C25.6907 16.335 27.0717 17.6606 27.1605 19.3292ZM6.99999 17.665C5.98655 17.665 5.16499 18.4866 5.16499 19.5C5.16499 20.5134 5.98655 21.335 6.99999 21.335C8.01343 21.335 8.83499 20.5134 8.83499 19.5C8.83499 18.4866 8.01343 17.665 6.99999 17.665ZM24 17.665C22.9865 17.665 22.165 18.4866 22.165 19.5C22.165 20.5134 22.9865 21.335 24 21.335C25.0134 21.335 25.835 20.5134 25.835 19.5C25.835 18.4866 25.0134 17.665 24 17.665Z" fill="#000000" class="bmwfcol"/><path d="M8.5759 3.54299L10.5759 7.00709L9.42408 7.67209L7.42408 4.20799L8.5759 3.54299Z" fill="#000000" class="bmwfcol"/><path d="M9.42408 24.3333L7.42408 27.7974L8.5759 28.4624L10.5759 24.9983L9.42408 24.3333Z" fill="#000000" class="bmwfcol"/><path d="M15.335 30.0054V26.0054H16.665V30.0054H15.335Z" fill="#000000" class="bmwfcol"/><path d="M21.4241 24.9983L23.4241 28.4624L24.5759 27.7974L22.5759 24.3333L21.4241 24.9983Z" fill="#000000" class="bmwfcol"/><title>car_side_rays_lt_48</title></svg>