<svg width="48" height="48" viewBox="0 0 32 32" xmlns="http://www.w3.org/2000/svg"><path d="M30 9.76005C28.4928 9.76118 27.585 9.77347 26.9253 9.87503C26.2868 9.97332 25.9133 10.1505 25.4616 10.5204L25.2493 10.7151L25.2623 10.7441L25.3712 10.8962C25.3939 10.9129 25.4161 10.9299 25.438 10.9472L25.4266 10.9616C26.4752 11.9261 27.477 12.8721 28.221 13.7795C28.9679 14.6905 29.5566 15.6808 29.5566 16.7095V30H24.5V28.704H28.2266V26.665H26.1429C25.4205 26.665 24.835 26.0795 24.835 25.3572C24.835 23.5942 23.4058 22.165 21.6429 22.165H16.3571C14.5942 22.165 13.165 23.5942 13.165 25.3572C13.165 26.0795 12.5795 26.665 11.8571 26.665H2V25.335H11.8351C11.847 22.8477 13.867 20.835 16.3571 20.835H21.6429C24.133 20.835 26.153 22.8477 26.1649 25.335H28.2266V17.0208H18.9904V15.6908H27.9263C27.7571 15.3698 27.5142 15.0152 27.1925 14.6228C26.5063 13.7858 25.5555 12.8866 24.4833 11.901C24.2938 11.7865 24.0061 11.6718 23.5513 11.571C22.9804 11.4444 22.1957 11.3497 21.1017 11.2822C18.9137 11.147 15.5976 11.1254 10.5033 11.1254C6.82215 11.1254 4.06947 11.1367 2 11.1939V9.86348C4.09572 9.80623 6.85697 9.79537 10.5033 9.79537C15.5836 9.79537 18.9458 9.81645 21.1837 9.9547C22.1366 10.0136 22.9056 10.0947 23.5275 10.2094C23.1729 9.5185 22.7142 8.69534 22.2005 7.90464C21.7768 7.25241 21.3245 6.63578 20.8712 6.1374C20.4096 5.6298 19.987 5.2897 19.631 5.13271L19.6211 5.12837L19.6114 5.12371C18.2538 4.4718 16.9442 4.29057 10.5034 4.29057C4.99806 4.29057 3.24289 4.42296 2 4.86869V3.47401C3.48043 3.05368 5.57559 2.96057 10.5034 2.96057C16.8397 2.96057 18.4948 3.11448 20.1779 3.92032C20.7804 4.18876 21.3484 4.68532 21.8552 5.24257C22.3733 5.81222 22.8692 6.49249 23.3159 7.18012C23.8243 7.96283 24.2802 8.7726 24.6433 9.47155C25.2661 8.96694 25.8552 8.69409 26.7229 8.56051C27.4988 8.44108 28.5196 8.43083 30 8.43001V9.76005Z" fill="#000000" class="bmwfcol"/><path d="M14.375 25.4999C14.375 24.3263 15.3264 23.3749 16.5 23.3749C17.6736 23.3749 18.625 24.3263 18.625 25.4999C18.625 26.6735 17.6736 27.6249 16.5 27.6249C15.3264 27.6249 14.375 26.6735 14.375 25.4999ZM16.5 24.6249C16.0168 24.6249 15.625 25.0167 15.625 25.4999C15.625 25.9832 16.0168 26.3749 16.5 26.3749C16.9832 26.3749 17.375 25.9832 17.375 25.4999C17.375 25.0167 16.9832 24.6249 16.5 24.6249Z" fill="#000000" class="bmwfcol"/><path d="M19.375 25.4999C19.375 24.3263 20.3264 23.3749 21.5 23.3749C22.6736 23.3749 23.625 24.3263 23.625 25.4999C23.625 26.6735 22.6736 27.6249 21.5 27.6249C20.3264 27.6249 19.375 26.6735 19.375 25.4999ZM21.5 24.6249C21.0168 24.6249 20.625 25.0167 20.625 25.4999C20.625 25.9832 21.0168 26.3749 21.5 26.3749C21.9832 26.3749 22.375 25.9832 22.375 25.4999C22.375 25.0167 21.9832 24.6249 21.5 24.6249Z" fill="#000000" class="bmwfcol"/><title>car_rear_exhaust_lt_48</title></svg>