<svg width="48" height="48" viewBox="0 0 32 32" xmlns="http://www.w3.org/2000/svg"><path d="M26.6552 10.4373L26.8965 10.4574L27.0771 10.6367L27.1017 10.6612L27.1943 10.7537C27.2738 10.8335 27.3874 10.9478 27.5241 11.0867C27.7971 11.3643 28.1634 11.7411 28.5347 12.1362C28.9046 12.5299 29.2859 12.9486 29.5859 13.3084C29.7352 13.4876 29.8719 13.6609 29.9787 13.8145C30.0656 13.9394 30.1973 14.1387 30.2467 14.3452C30.2774 14.4734 30.295 14.6427 30.3082 14.7968C30.3226 14.9641 30.3356 15.1664 30.3491 15.384L30.3567 15.5073C30.3796 15.8776 30.4053 16.2947 30.4425 16.7129L30.4613 16.7451C30.4871 16.7772 30.52 16.82 30.5497 16.866C30.5955 16.9368 30.6769 17.078 30.6941 17.2682C30.7545 17.9337 30.7363 18.576 30.7265 18.9229C30.724 19.0108 30.722 19.0797 30.722 19.1253V19.1355L30.7217 19.1456C30.7015 19.8055 30.3495 20.3417 29.8345 20.7537C29.3822 21.1156 28.7737 21.4097 28.0478 21.6541C27.5866 22.8312 26.4406 23.6647 25.0999 23.6647C23.8807 23.6647 22.8224 22.9753 22.2938 21.965H9.70599C9.17737 22.9753 8.11913 23.6647 6.89986 23.6647C5.55951 23.6647 4.41375 22.8316 3.95227 21.6549C3.63814 21.637 3.23763 21.5985 2.89936 21.563C2.66182 21.5381 2.44204 21.5133 2.28178 21.4946C2.20158 21.4853 2.13612 21.4775 2.09059 21.4721L2.03786 21.4657L1.49936 21.3995L1.43936 20.8796C1.30369 19.704 1.31034 19.0368 1.43939 17.9234L1.46987 17.6605L1.67272 17.4904C1.97194 17.2395 1.98477 17.1606 1.98803 17.1406L1.98855 17.1377C1.99875 17.0928 2.00403 17.0327 2.01185 16.8741L2.0126 16.859C2.0197 16.7144 2.02914 16.5223 2.06046 16.2835L2.09696 16.0053L2.32175 15.8373C2.35006 15.8161 2.38408 15.7892 2.42437 15.7572C2.63427 15.5909 3.01461 15.2894 3.64674 14.9699C4.37764 14.6005 5.43997 14.205 7.03772 13.8748C7.2996 13.6962 7.60229 13.477 7.94483 13.2289C8.0488 13.1536 8.15645 13.0757 8.26777 12.9953C8.78901 12.6193 9.37657 12.2023 9.9929 11.8074C11.2012 11.0333 12.6145 10.2798 13.929 10.1388C18.0856 9.6928 23.2543 10.1423 25.9375 10.3757C26.202 10.3987 26.4424 10.4196 26.6552 10.4373ZM28.2462 20.1536C28.5705 20.0096 28.8202 19.8619 29.0036 19.7152C29.306 19.4733 29.3849 19.273 29.3921 19.1126C29.3923 19.0331 29.3949 18.9374 29.3979 18.828C29.4068 18.4992 29.4191 18.0461 29.3814 17.5332L29.3665 17.5077C29.3403 17.4751 29.3065 17.4311 29.2759 17.3836C29.2296 17.3117 29.1499 17.1719 29.1319 16.9843C29.0851 16.4946 29.0546 16.0011 29.0294 15.5906L29.0217 15.4664C29.0081 15.2471 28.9959 15.0599 28.9831 14.9105C28.9767 14.836 28.9705 14.7756 28.9646 14.7284C28.9632 14.7178 28.9619 14.7083 28.9607 14.6998C28.96 14.6946 28.9593 14.6898 28.9586 14.6853L28.9476 14.6668C28.4709 14.6728 27.8313 14.6935 27.1971 14.7146L27.0637 14.7191C26.3669 14.7424 25.6894 14.765 25.3 14.765C24.627 14.765 24.1945 14.9814 23.6426 15.2806L23.5764 15.3165C23.0256 15.6158 22.3528 15.9813 21.354 16.0628C21.2271 16.0731 20.4425 16.1237 19.7029 16.1709L17.9421 16.2826L17.345 15.6854L9.26614 16.2766L7.1385 15.2127C5.72926 15.5159 4.83041 15.8619 4.24669 16.1569C3.81446 16.3754 3.55264 16.5647 3.35271 16.7199C3.34743 16.7937 3.34401 16.8632 3.34061 16.9321L3.33949 16.9549C3.333 17.0873 3.32453 17.2605 3.28552 17.4322C3.20522 17.7858 3.01876 18.0555 2.7329 18.327C2.66014 19.0254 2.64921 19.5225 2.70735 20.2045C2.80993 20.2159 2.92191 20.2281 3.03808 20.2403C3.27889 20.2656 3.52543 20.2894 3.74065 20.3068C3.84034 18.6487 5.21666 17.3347 6.89986 17.3347C8.64784 17.3347 10.0649 18.7518 10.0649 20.4997C10.0649 20.5451 10.0639 20.5901 10.062 20.635H21.9378C21.9359 20.5901 21.9349 20.5451 21.9349 20.4997C21.9349 18.7518 23.352 17.3347 25.0999 17.3347C26.731 17.3347 28.0738 18.5685 28.2462 20.1536ZM9.53383 14.9234L17.5777 14.3348L18.2567 11.2795C16.8309 11.2713 15.3956 11.3191 14.0709 11.4612C13.0899 11.5665 11.9033 12.163 10.7104 12.9273C10.1262 13.3016 9.56289 13.701 9.04593 14.0739C8.94179 14.1491 8.83888 14.2236 8.73775 14.2969L8.55105 14.432L9.53383 14.9234ZM18.8157 14.8946L19.6182 14.8436C20.3689 14.7957 21.1344 14.7463 21.2459 14.7372C21.9621 14.6788 22.4221 14.4294 22.9774 14.1283L23.0089 14.1112C23.5898 13.7964 24.273 13.435 25.3 13.435C25.666 13.435 26.3238 13.413 27.0372 13.3892L27.1528 13.3854C27.3874 13.3775 27.626 13.3697 27.8591 13.3625C27.7625 13.2576 27.6641 13.152 27.5655 13.047C27.2034 12.6616 26.8447 12.2926 26.576 12.0195C26.4678 11.9096 26.3745 11.8154 26.3016 11.7422C26.152 11.7294 25.9925 11.7156 25.8239 11.7009L25.8228 11.7008C24.297 11.5686 22.0256 11.3716 19.6139 11.3031L18.8157 14.8946ZM6.89986 18.6647C5.88642 18.6647 5.06486 19.4863 5.06486 20.4997C5.06486 21.5132 5.88642 22.3347 6.89986 22.3347C7.91331 22.3347 8.73486 21.5132 8.73486 20.4997C8.73486 19.4863 7.91331 18.6647 6.89986 18.6647ZM25.0999 18.6647C24.0865 18.6647 23.2649 19.4863 23.2649 20.4997C23.2649 21.5132 24.0865 22.3347 25.0999 22.3347C26.1134 22.3347 26.9349 21.5132 26.9349 20.4997C26.9349 19.4863 26.1134 18.6647 25.0999 18.6647Z" fill="#000000" class="bmwfcol"/><title>car_bmw_i3_side_lt_48</title></svg>