<svg width="72" height="48" viewBox="0 0 48 32" xmlns="http://www.w3.org/2000/svg"><path d="M20.5385 13.7086C21.9499 13.6277 26.0515 13.4003 29.8318 13.2672L29.3374 11.3333H30.7102L31.1934 13.2232C32.3746 13.1889 33.4825 13.1676 34.4136 13.1676C36.3531 13.1676 37.794 13.3311 38.9628 13.513C40.165 13.7002 40.964 13.8835 41.7781 13.9533L42.3863 14.0055V14.6159C42.3863 14.8389 42.5113 15.1017 42.8013 15.5332C43.1382 16.0345 43.4769 16.52 43.6642 17.0998C43.6642 18.0867 43.8516 19.2912 43.4858 20.2343C43.1751 21.0356 42.4129 21.4326 41.2602 21.7213C40.6958 21.8627 39.9875 21.997 39.1135 22.1511L38.3195 22.1634C37.6774 23.6358 36.2089 24.665 34.5 24.665C32.7915 24.665 31.3232 23.6363 30.6809 22.1645H15.3191C14.6767 23.6363 13.2085 24.665 11.5 24.665C9.79137 24.665 8.32307 23.6362 7.68076 22.1643C6.88234 22.1637 6.36633 22.1577 5.86275 22.0971C5.00286 21.9935 4.16801 21.734 3.33398 21.5086L3.33436 16.9995C3.33436 16.3561 4.12042 16.0498 4.60074 15.823C5.23462 15.5236 6.16699 15.1669 7.405 14.8242C9.88362 14.1379 13.7764 13.5197 18.832 13.5197C20.535 12.2224 22.5224 10.9224 23.991 10H26.2178C25.1791 10.6246 22.7408 12.1234 20.5385 13.7086ZM38.9386 20.8314C39.7858 20.6816 40.4345 20.557 40.9371 20.4312C41.4573 20.3009 41.7701 20.1809 41.9647 20.0625C42.3395 19.8347 42.3342 19.3971 42.3342 18.9995V17.319C42.2128 17.0089 41.9878 16.7071 41.6974 16.275C41.5089 15.9945 41.2776 15.6366 41.1507 15.2215C40.4215 15.1249 39.6306 14.963 38.7582 14.8272C37.6433 14.6536 36.2719 14.4976 34.4135 14.4976C29.6194 14.4975 24.8177 14.7905 20.0327 15.0704L18.6105 14.8312C13.6941 14.8358 10.1056 15.4565 7.75989 16.1059C6.71387 16.3955 5.5988 16.7177 4.66434 17.2921L4.66408 20.4887C5.86761 20.8044 6.1185 20.8277 7.34811 20.8334C7.3394 20.7234 7.33496 20.6122 7.33496 20.5C7.33496 18.1998 9.19969 16.335 11.5 16.335C13.8002 16.335 15.665 18.1998 15.665 20.5C15.665 20.6126 15.6605 20.7242 15.6517 20.8345H30.3482C30.3394 20.7242 30.335 20.6126 30.335 20.5C30.335 18.1998 32.1997 16.335 34.5 16.335C36.8002 16.335 38.665 18.1998 38.665 20.5C38.665 20.6119 38.6606 20.7227 38.6519 20.8323L38.9386 20.8314ZM8.66496 20.5C8.66496 22.0657 9.93423 23.335 11.5 23.335C13.0657 23.335 14.335 22.0657 14.335 20.5C14.335 18.9343 13.0657 17.665 11.5 17.665C9.93423 17.665 8.66496 18.9343 8.66496 20.5ZM31.665 20.5C31.665 22.0657 32.9342 23.335 34.5 23.335C36.0657 23.335 37.335 22.0657 37.335 20.5C37.335 18.9343 36.0657 17.665 34.5 17.665C32.9342 17.665 31.665 18.9343 31.665 20.5Z" fill="#000000" class="bmwfcol"/><title>car-model-roadster_lt_48</title></svg>