<svg width="48" height="48" viewBox="0 0 32 32" xmlns="http://www.w3.org/2000/svg"><path d="M26.665 26.3556V6.96384C26.6651 6.11916 26.6651 5.40456 26.5983 4.81778C26.5293 4.21162 26.3825 3.66601 26.0354 3.19499C25.6891 2.725 25.1969 2.40171 24.5786 2.1318C23.966 1.86436 23.173 1.62586 22.1722 1.35768L22.0876 1.33502H17.9125L17.8279 1.35768C16.8271 1.62586 16.0341 1.86436 15.4215 2.13181C14.8032 2.40172 14.311 2.72502 13.9647 3.19501C13.6176 3.66603 13.4708 4.21164 13.4018 4.8178C13.335 5.40458 13.335 6.11922 13.335 6.96389V10.7245L9 15.0596V16.9405L13.335 12.6054V26.3556L13.3577 26.4401C13.6079 27.3738 13.8404 28.1299 14.1297 28.7188C14.4279 29.3258 14.8044 29.7933 15.3564 30.1102C15.8886 30.4158 16.5197 30.5432 17.2491 30.6044C17.9723 30.665 18.8704 30.665 19.9711 30.665H20.0291C21.1298 30.665 22.0278 30.665 22.7509 30.6044C23.4803 30.5432 24.1114 30.4158 24.6437 30.1102C25.1956 29.7933 25.5721 29.3258 25.8703 28.7188C26.1596 28.1299 26.3922 27.3738 26.6424 26.4401L26.665 26.3556ZM25.2768 4.9682C25.3341 5.47121 25.335 6.1106 25.335 7.00009V10.759L25.2435 10.8694C23.8181 9.87313 22.0265 9.33502 20.0001 9.33502C17.9736 9.33502 16.182 9.87316 14.7566 10.8695L14.665 10.7591V7.00009C14.665 6.11061 14.666 5.47123 14.7233 4.96822C14.7793 4.47622 14.8825 4.19152 15.0354 3.98398C15.1891 3.77543 15.4469 3.57194 15.9536 3.35072C16.4514 3.13339 17.133 2.9224 18.0878 2.66502H21.9123C22.867 2.9224 23.5487 3.13339 24.0465 3.35072C24.5532 3.57193 24.811 3.77542 24.9647 3.98397C25.1176 4.1915 25.2208 4.47619 25.2768 4.9682ZM15.587 11.9125C16.7547 11.1188 18.2476 10.665 20.0001 10.665C21.7526 10.665 23.2453 11.1187 24.413 11.9124C23.5692 13.0231 23.0493 13.9101 22.7446 14.8165C22.3348 16.0357 22.3349 17.2403 22.335 18.9191V19.0001C22.335 20.7761 22.5838 22.0975 23.0913 23.4057C23.261 23.843 23.4593 24.2774 23.6841 24.7244C22.5899 25.1206 21.3549 25.335 20.0001 25.335C18.6452 25.335 17.4102 25.1206 16.3159 24.7244C16.5408 24.2774 16.739 23.843 16.9087 23.4057C17.4162 22.0975 17.665 20.7761 17.665 19.0001V18.9191C17.6651 17.2403 17.6652 16.0357 17.2554 14.8165C16.9507 13.9102 16.4309 13.0231 15.587 11.9125ZM24.3177 25.9077C24.5431 26.3099 24.786 26.7303 25.0452 27.1778C24.9213 27.5644 24.8023 27.8766 24.6766 28.1324C24.4592 28.5749 24.2419 28.8072 23.9814 28.9568C23.7011 29.1177 23.301 29.2236 22.6398 29.279C21.9786 29.3345 21.136 29.335 20 29.335C18.8641 29.335 18.0214 29.3345 17.3603 29.279C16.6991 29.2236 16.2989 29.1177 16.0187 28.9568C15.7581 28.8072 15.5409 28.5749 15.3235 28.1324C15.1978 27.8765 15.0787 27.5644 14.9549 27.1777C15.214 26.7302 15.4569 26.3098 15.6823 25.9076C16.9801 26.4045 18.4318 26.665 20.0001 26.665C21.5683 26.665 23.02 26.4045 24.3177 25.9077ZM24.0053 15.2403C24.234 14.5601 24.6262 13.8539 25.335 12.8998V25.0002C24.92 24.248 24.5885 23.5877 24.3313 22.9247C23.8904 21.7883 23.665 20.6326 23.665 19.0001C23.665 17.2213 23.6717 16.2327 24.0053 15.2403ZM14.665 12.8999C15.3738 13.8539 15.7661 14.5601 15.9947 15.2403C16.3283 16.2327 16.335 17.2213 16.335 19.0001C16.335 20.6326 16.1096 21.7883 15.6687 22.9247C15.4115 23.5877 15.0801 24.2479 14.665 25.0001V12.8999Z" fill="#000000" class="bmwfcol"/><path d="M4.07493 20.0155V24.075L2.92493 22.925V17.9398H7.93966L9.08966 19.0898H5.03012L7.87021 21.9298C8.42872 22.4883 9.25111 22.835 10.3 22.835H11.5V24.165H10.3C8.94887 24.165 7.77126 23.7117 6.92976 22.8702L4.07493 20.0155Z" fill="#000000" class="bmwfcol"/><title>car-door-open_lt_48</title></svg>