<svg width="48" height="48" viewBox="0 0 32 32" xmlns="http://www.w3.org/2000/svg"><path d="M9.44139 4.33496C8.80833 4.33496 8.33932 4.37892 8.00683 4.50067C7.82812 4.56611 7.64608 4.66892 7.50485 4.83873C7.35893 5.01418 7.30494 5.20281 7.28583 5.35198L6.335 12.4557V12.7409L6.22207 12.8638L6.16565 12.8137L6.15612 12.8059C5.67838 12.4123 5.22488 12.198 4.5626 12.096C3.95887 12.0031 3.15825 12.0015 2 12.0015V13.3315C3.20308 13.3315 3.88145 13.3368 4.36021 13.4106C4.77612 13.4746 5.00813 13.585 5.30138 13.8249L5.31956 13.8411C4.5785 14.5227 3.85964 15.2008 3.32341 15.8548C2.78968 16.5058 2.335 17.2512 2.335 18.0498V27.6648H8.33167V25.4683C13.2723 25.4649 18.7277 25.4649 23.6683 25.4683V27.6648H29.665V18.0498C29.665 17.2512 29.2103 16.5058 28.6766 15.8548C28.1404 15.2007 27.4215 14.5227 26.6804 13.841L26.6987 13.8248C26.9915 13.585 27.2234 13.4746 27.6394 13.4106C28.1183 13.3368 28.7968 13.3315 29.9999 13.3315V12.0015C28.8417 12.0015 28.0409 12.0031 27.4371 12.096C26.7748 12.198 26.3211 12.4123 25.8436 12.806L25.8342 12.8138L25.7779 12.8638L25.665 12.7409V12.4557L24.7146 5.35546L24.7142 5.35181C24.695 5.20267 24.641 5.01412 24.4952 4.83873C24.3539 4.66892 24.1719 4.56611 23.9932 4.50067C23.6607 4.37892 23.1917 4.33496 22.5586 4.33496H9.44139ZM25.665 14.7069L25.708 14.7537L25.7287 14.7728C26.4974 15.4791 27.1681 16.1127 27.6481 16.698C27.7765 16.8547 27.8837 17 27.9732 17.1348H25.665V14.7069ZM25.665 18.4648H28.335V26.3348H24.9983V24.1392L24.3338 24.1388C19.0002 24.1348 12.9998 24.1348 7.66617 24.1388L7.00167 24.1392V26.3348H3.665V18.4648H6.335V19C6.335 19.8169 6.44865 20.461 6.72051 20.9206C7.02771 21.44 7.50195 21.665 8 21.665H24C24.4981 21.665 24.9723 21.44 25.2795 20.9206C25.5513 20.461 25.665 19.8169 25.665 19V18.4648ZM6.335 17.1348H4.02596C4.11552 17 4.22352 16.8547 4.35192 16.698C4.83186 16.1127 5.50256 15.4791 6.27127 14.7728L6.29201 14.7537L6.335 14.7069V17.1348ZM8.51935 6.16136L8.77431 7.69144C8.79851 7.83667 8.85782 8.0206 9.00746 8.18974C9.15039 8.35129 9.33037 8.44788 9.50595 8.50922C9.83335 8.62359 10.2952 8.66492 10.9235 8.66492H21.0763C21.7045 8.66492 22.1664 8.6236 22.4938 8.50922C22.6694 8.44788 22.8494 8.35129 22.9923 8.18974C23.142 8.02061 23.2013 7.83666 23.2255 7.69144L23.4806 6.16107L24.2401 11.8351H7.75992L8.51935 6.16136ZM7.665 19V13.1651H24.335V19C24.335 19.7354 24.2248 20.0913 24.1347 20.2435C24.0806 20.335 24.0548 20.335 24.0019 20.335H7.99811C7.94516 20.335 7.91936 20.335 7.86527 20.2435C7.77521 20.0913 7.665 19.7354 7.665 19ZM22.215 5.66496L21.9455 7.28117C21.8004 7.3087 21.5363 7.33491 21.0763 7.33491H10.9235C10.4635 7.33491 10.1994 7.30871 10.0543 7.28117L9.78498 5.66496H22.215Z" fill="#000000" class="bmwfcol"/><title>car_rear_boot_lt_48</title></svg>