<svg width="48" height="48" viewBox="0 0 32 32" xmlns="http://www.w3.org/2000/svg"><path d="M2 21.665H7.50025C8.00428 23.3981 9.60425 24.6648 11.5001 24.6648C13.3967 24.6648 14.9972 23.397 15.5005 21.6627C16.1553 21.655 16.6843 21.6215 17.2342 21.4762C17.9621 21.2839 18.6935 20.9062 19.8349 20.2412L20.1652 20.0488L20.1649 16.7262L19.9722 16.5319C19.3462 15.9002 19.0817 15.474 18.9618 15.1716C18.8471 14.8822 18.8435 14.6607 18.8435 14.3333L18.8434 12.391L16.0495 12.1444L15.8198 12.0101C13.8449 10.856 12.2909 9.94782 10.7106 9.32917C9.009 8.66303 7.28881 8.33497 4.96426 8.33497L4.8799 8.33496C3.78494 8.33492 2.8521 8.33489 2 8.39755V9.73138C2.81446 9.66679 3.75657 9.66497 4.96426 9.66497C7.14388 9.66497 8.69706 9.96919 10.2257 10.5676C11.706 11.1471 13.1739 12.0047 15.1943 13.1851L15.636 13.4431L17.5134 13.6088L17.5135 14.35C17.5134 14.6872 17.5133 15.1266 17.7254 15.6617C17.9156 16.1415 18.2575 16.6563 18.8349 17.2689L18.8351 19.2827C17.8997 19.8171 17.3741 20.0636 16.8944 20.1904C16.5323 20.2861 16.181 20.3185 15.6616 20.3294C15.5723 18.1082 13.7433 16.3348 11.5001 16.3348C9.255 16.3348 7.42481 18.1111 7.33827 20.335H2V21.665ZM8.66507 20.4998C8.66507 18.934 9.93434 17.6648 11.5001 17.6648C13.0658 17.6648 14.3351 18.934 14.3351 20.4998C14.3351 22.0655 13.0658 23.3348 11.5001 23.3348C9.93434 23.3348 8.66507 22.0655 8.66507 20.4998Z" fill="#000000" class="bmwfcol"/><path d="M21.7592 10.9587C22.0724 10.5373 22.5252 10.335 23 10.335H25C25.4748 10.335 25.9276 10.5373 26.2408 10.9587C26.5371 11.3573 26.665 11.8912 26.665 12.5V14.5C26.665 15.1088 26.5371 15.6427 26.2408 16.0413C25.9276 16.4627 25.4748 16.665 25 16.665H23C22.5252 16.665 22.0724 16.4627 21.7592 16.0413C21.4629 15.6427 21.335 15.1088 21.335 14.5V12.5C21.335 11.8912 21.4629 11.3573 21.7592 10.9587ZM22.8266 11.7521C22.7609 11.8405 22.665 12.0565 22.665 12.5V14.5C22.665 14.9435 22.7609 15.1595 22.8266 15.2479C22.8753 15.3134 22.9226 15.335 23 15.335H25C25.0774 15.335 25.1247 15.3134 25.1734 15.2479C25.2391 15.1595 25.335 14.9435 25.335 14.5V12.5C25.335 12.0565 25.2391 11.8405 25.1734 11.7521C25.1247 11.6866 25.0774 11.665 25 11.665H23C22.9226 11.665 22.8753 11.6866 22.8266 11.7521Z" fill="#000000" class="bmwfcol"/><path d="M22 19.6654H26V18.3354H22V19.6654Z" fill="#000000" class="bmwfcol"/><title>car_side_rear_carrier_lt_48</title></svg>