<svg width="48" height="48" viewBox="0 0 32 32" xmlns="http://www.w3.org/2000/svg"><path d="M19 15.335C17.3211 15.3349 16.0356 15.3348 14.8164 15.7446C13.6117 16.1496 12.441 16.9348 10.7341 18.3557C7.63347 18.6268 5.99181 18.7723 4.83781 19.0287C3.61276 19.301 2.91526 19.7037 1.70098 20.4048L1.33521 20.616L1.33496 25.0136L1.82788 25.1457C2.75025 25.3928 3.27586 25.5242 3.64335 25.5919C3.80167 25.621 3.93211 25.6386 4.05004 25.6491C4.50998 26.829 5.65734 27.665 6.99996 27.665C8.33656 27.665 9.47964 26.8364 9.94366 25.665H21.0563C21.5203 26.8364 22.6634 27.665 24 27.665C25.3371 27.665 26.4805 26.8358 26.9442 25.6637C27.4578 25.6586 27.8829 25.6341 28.3253 25.5183C28.8992 25.368 29.4695 25.0742 30.3327 24.5759L30.6652 24.3839L30.665 21.7245L30.4702 21.5297C30.005 21.0645 29.8216 20.7633 29.7424 20.5655C29.6687 20.3812 29.665 20.2439 29.665 19.9999L29.6649 18.3906L27.4376 18.1957L27.2897 18.11C25.8 17.2472 24.6135 16.56 23.4057 16.0913C22.0975 15.5838 20.776 15.335 19 15.335ZM27.1604 24.3292C27.0717 22.6606 25.6906 21.335 24 21.335C22.3073 21.335 20.925 22.6637 20.8392 24.335H10.1607C10.0749 22.6637 8.6926 21.335 6.99996 21.335C5.32725 21.335 3.95762 22.6326 3.84276 24.2761C3.5975 24.2289 3.2475 24.1448 2.66502 23.9919L2.66517 21.3843C3.67881 20.8026 4.20773 20.5312 5.12637 20.3271C6.19705 20.0891 7.77029 19.9499 11.0581 19.6625L11.267 19.6442L11.4276 19.5094C13.2076 18.0158 14.2515 17.3377 15.2402 17.0053C16.2326 16.6717 17.2212 16.665 19 16.665C20.6325 16.665 21.7882 16.8904 22.9246 17.3313C24.0329 17.7613 25.1334 18.3985 26.6685 19.2873L27.0272 19.4949L28.335 19.6093L28.335 20.0155C28.3349 20.2706 28.3348 20.6276 28.5075 21.0594C28.6565 21.4319 28.9163 21.8209 29.335 22.269L29.3352 23.6136C28.6823 23.9801 28.317 24.1456 27.9883 24.2317C27.7456 24.2952 27.5095 24.3198 27.1604 24.3292ZM6.99996 22.665C8.0134 22.665 8.83496 23.4865 8.83496 24.5C8.83496 25.5134 8.0134 26.335 6.99996 26.335C5.98652 26.335 5.16496 25.5134 5.16496 24.5C5.16496 23.4865 5.98652 22.665 6.99996 22.665ZM24 22.665C25.0134 22.665 25.835 23.4865 25.835 24.5C25.835 25.5134 25.0134 26.335 24 26.335C22.9865 26.335 22.165 25.5134 22.165 24.5C22.165 23.4865 22.9865 22.665 24 22.665Z" fill="#000000" class="bmwfcol"/><path d="M25.895 6.1048C23.4785 3.6883 20.0509 2.33502 15.9998 2.33502C11.9487 2.33502 8.52108 3.68829 6.10459 6.10477L7.04504 7.04522C9.17854 4.91173 12.2509 3.66502 15.9998 3.66502C19.7487 3.66502 22.8211 4.91175 24.9546 7.04525L25.895 6.1048Z" fill="#000000" class="bmwfcol"/><path d="M22.995 9.0048C21.2785 7.2883 18.8509 6.33502 15.9998 6.33502C13.1487 6.33502 10.7211 7.28829 9.00459 9.00477L9.94504 9.94522C11.3785 8.51173 13.4509 7.66502 15.9998 7.66502C18.5487 7.66502 20.6211 8.51175 22.0546 9.94525L22.995 9.0048Z" fill="#000000" class="bmwfcol"/><path d="M20.095 11.9048C19.0785 10.8883 17.6509 10.335 15.9998 10.335C14.3487 10.335 12.9211 10.8883 11.9046 11.9048L12.845 12.8452C13.5785 12.1117 14.6509 11.665 15.9998 11.665C17.3487 11.665 18.4211 12.1117 19.1546 12.8452L20.095 11.9048Z" fill="#000000" class="bmwfcol"/><title>car-wifi-hotspot_lt_48</title></svg>