<svg width="48" height="48" viewBox="0 0 32 32" xmlns="http://www.w3.org/2000/svg"><path d="M26.5982 4.81775C26.665 5.40453 26.665 6.11913 26.665 6.96381V26.3555L26.6423 26.4401C26.3921 27.3737 26.1596 28.1299 25.8703 28.7188C25.5721 29.3258 25.1956 29.7933 24.6436 30.1102C24.1114 30.4158 23.4803 30.5432 22.7509 30.6044C22.0277 30.665 21.1296 30.665 20.0289 30.665H19.971C18.8702 30.665 17.9722 30.665 17.2491 30.6044C16.5197 30.5432 15.8886 30.4158 15.3563 30.1102C14.8044 29.7933 14.4279 29.3258 14.1296 28.7188C13.8404 28.1299 13.6078 27.3737 13.3576 26.4401L13.335 26.3555V12.6055L9 16.9405V15.0596L13.335 10.7246V6.96381C13.3349 6.11915 13.3349 5.40455 13.4017 4.81777C13.4707 4.21161 13.6175 3.666 13.9646 3.19498C14.3109 2.72499 14.8031 2.40169 15.4214 2.13178C16.034 1.86433 16.827 1.62583 17.8278 1.35765L17.9124 1.33499H22.0875L22.1721 1.35765C23.1729 1.62583 23.9659 1.86433 24.5785 2.13177C25.1968 2.40168 25.689 2.72497 26.0353 3.19496C26.3824 3.66598 26.5292 4.21159 26.5982 4.81775ZM25.335 7.00006C25.335 6.11057 25.334 5.47118 25.2767 4.96817C25.2207 4.47616 25.1175 4.19147 24.9646 3.98394C24.8109 3.77539 24.5531 3.5719 24.0464 3.35069C23.5486 3.13336 22.867 2.92237 21.9122 2.66499H18.0878C17.133 2.92237 16.4513 3.13336 15.9535 3.35069C15.4468 3.57191 15.189 3.7754 15.0353 3.98395C14.8824 4.19149 14.7792 4.47619 14.7232 4.96819C14.6659 5.4712 14.665 6.11058 14.665 7.00006V10.7591L14.7565 10.8695C16.1819 9.87313 17.9735 9.33499 20 9.33499C22.0265 9.33499 23.818 9.8731 25.2434 10.8694L25.335 10.759V7.00006ZM17.2553 14.8165C17.6651 16.0357 17.6651 17.2403 17.665 18.9191V19C17.665 20.7761 17.4162 22.0975 16.9086 23.4057C16.739 23.8429 16.5407 24.2773 16.3158 24.7243C17.4101 25.1205 18.6452 25.335 20 25.335C21.3548 25.335 22.5898 25.1206 23.6841 24.7244C23.4592 24.2774 23.2609 23.8429 23.0913 23.4057C22.5837 22.0975 22.3349 20.7761 22.3349 19V18.9191C22.3348 17.2403 22.3347 16.0357 22.7446 14.8165C23.0492 13.9101 23.5691 13.023 24.413 11.9124C23.2453 11.1187 21.7525 10.665 20 10.665C18.2475 10.665 16.7547 11.1187 15.5869 11.9125C16.4308 13.0231 16.9506 13.9101 17.2553 14.8165ZM20 26.665C18.4318 26.665 16.98 26.4045 15.6823 25.9076C15.4569 26.3098 15.214 26.7302 14.9548 27.1777C15.0786 27.5644 15.1977 27.8765 15.3234 28.1323C15.5408 28.5749 15.7581 28.8072 16.0186 28.9568C16.2989 29.1177 16.699 29.2236 17.3602 29.279C18.0214 29.3345 18.864 29.335 20 29.335C21.1359 29.335 21.9786 29.3345 22.6397 29.279C23.3009 29.2236 23.7011 29.1177 23.9813 28.9568C24.2419 28.8072 24.4591 28.5749 24.6765 28.1323C24.8022 27.8765 24.9213 27.5644 25.0451 27.1777C24.7859 26.7302 24.543 26.3099 24.3176 25.9076C23.0199 26.4045 21.5682 26.665 20 26.665ZM25.335 12.8998C24.6262 13.8538 24.2339 14.5601 24.0052 15.2403C23.6716 16.2326 23.6649 17.2213 23.6649 19C23.6649 20.6325 23.8903 21.7883 24.3312 22.9246C24.5885 23.5877 24.9199 24.248 25.335 25.0002V12.8998ZM14.665 25.0001C15.08 24.2479 15.4114 23.5876 15.6687 22.9246C16.1095 21.7883 16.335 20.6325 16.335 19C16.335 17.2213 16.3282 16.2326 15.9946 15.2403C15.766 14.5601 15.3737 13.8539 14.665 12.8999V25.0001Z" fill="#000000" class="bmwfcol"/><path d="M4.33508 20.1999V15.9999H5.66508V20.1999C5.66508 21.2488 6.01181 22.0712 6.57031 22.6297L9.41013 25.4696V21.4103L10.5601 22.5603V27.5751H5.57493L4.42493 26.4251H8.4847L5.62986 23.5702C4.78836 22.7287 4.33508 21.5511 4.33508 20.1999Z" fill="#000000" class="bmwfcol"/><title>car-door-close_lt_48</title></svg>