<svg width="48" height="48" viewBox="0 0 32 32" xmlns="http://www.w3.org/2000/svg"><path d="M9.72546 6.66502H2.00092V5.33502H10.2764L12.2764 7.33502H31.0009V8.66502H11.7255L9.72546 6.66502Z" fill="#000000" class="bmwfcol"/><path d="M23.201 10.585L23.1272 10.585C22.1419 10.5849 21.3794 10.5847 20.6061 10.8447C19.8503 11.0988 19.1306 11.5819 18.1355 12.4057C16.3369 12.563 15.3489 12.6514 14.6459 12.8076C13.8709 12.9799 13.4212 13.2396 12.6997 13.6562L12.3361 13.8661L12.3359 17.2123L12.8288 17.3444C13.3805 17.4922 13.7061 17.5739 13.9388 17.6168C14.0199 17.6317 14.0905 17.642 14.1546 17.6492C14.5064 18.3691 15.2458 18.865 16.101 18.865C16.95 18.865 17.6848 18.3764 18.0396 17.665H24.0624C24.4172 18.3764 25.152 18.865 26.0009 18.865C26.8501 18.865 27.585 18.3762 27.9397 17.6646C28.2669 17.6622 28.5589 17.6481 28.8635 17.5683C29.2466 17.468 29.6168 17.2743 30.1336 16.9759L30.4661 16.784L30.4659 14.5746L30.2712 14.3798C30.006 14.1146 29.9225 13.9634 29.8934 13.8906C29.8697 13.8312 29.866 13.7939 29.866 13.65L29.8659 12.4407L28.3457 12.3077L28.3007 12.2816C27.4145 11.7682 26.6853 11.3458 25.9406 11.0569C25.1213 10.739 24.2953 10.585 23.201 10.585ZM28.1345 16.3302C27.959 15.3107 27.0706 14.535 26.0009 14.535C24.9296 14.535 24.0401 15.3131 23.8666 16.335H18.2354C18.0619 15.3131 17.1723 14.535 16.101 14.535C15.0538 14.535 14.1803 15.2785 13.9795 16.2664C13.8949 16.2469 13.7926 16.2218 13.666 16.1894L13.6661 14.6351C14.1816 14.3429 14.4628 14.2108 14.9345 14.106C15.5551 13.968 16.4759 13.8859 18.459 13.7125L18.6679 13.6943L18.8285 13.5595C19.8935 12.6659 20.4873 12.2878 21.0299 12.1054C21.576 11.9218 22.1222 11.915 23.201 11.915C24.1518 11.915 24.8121 12.0456 25.4595 12.2968C26.1047 12.5471 26.7481 12.9196 27.68 13.4591L27.9353 13.6068L28.536 13.6594L28.536 13.663C28.5359 13.8205 28.5357 14.0774 28.6585 14.3845C28.7541 14.6235 28.9096 14.8603 29.136 15.1146L29.1361 16.0113C28.8369 16.1741 28.6702 16.2441 28.5266 16.2817C28.4154 16.3108 28.3067 16.3242 28.1345 16.3302ZM15.266 16.7C15.266 16.2389 15.6399 15.865 16.101 15.865C16.5622 15.865 16.936 16.2389 16.936 16.7C16.936 17.1612 16.5622 17.535 16.101 17.535C15.6399 17.535 15.266 17.1612 15.266 16.7ZM26.0009 15.865C26.4621 15.865 26.8359 16.2389 26.8359 16.7C26.8359 17.1612 26.4621 17.535 26.0009 17.535C25.5398 17.535 25.1659 17.1612 25.1659 16.7C25.1659 16.2389 25.5398 15.865 26.0009 15.865Z" fill="#000000" class="bmwfcol"/><path d="M10.6659 12.335L3.53559 12.3351L3.3706 12.7884C2.37879 15.5134 1.86865 16.915 1.61098 17.8174C1.33672 18.7778 1.33594 19.223 1.33594 20V23.665H3.41958C3.71499 24.8151 4.75871 25.665 6.00094 25.665C7.24317 25.665 8.28689 24.8151 8.5823 23.665H17.4196C17.715 24.8151 18.7587 25.665 20.0009 25.665C21.2432 25.665 22.2869 24.8151 22.5823 23.665H24.4196C24.715 24.8151 25.7587 25.665 27.0009 25.665C28.2432 25.665 29.2869 24.8151 29.5823 23.6651H31.0009V22.3351H29.5823C29.3978 21.6165 28.9211 21.0152 28.2865 20.665H31.0009V19.335H10.6659V12.335ZM21.2865 20.665H25.7154C25.0807 21.0152 24.6041 21.6165 24.4196 22.335H22.5823C22.3977 21.6165 21.9211 21.0152 21.2865 20.665ZM9.33594 20.665H18.7154C18.0807 21.0152 17.6041 21.6165 17.4196 22.335H8.5823C8.2869 21.185 7.24317 20.335 6.00094 20.335C4.7587 20.335 3.71498 21.185 3.41957 22.335H2.66594L2.66594 19.9856C2.66593 19.4312 2.66593 19.1228 2.77133 18.644C4.00419 18.5769 5.04133 18.3587 5.80858 18.1395C6.45496 17.9548 7.0656 17.7113 7.66592 17.4112V13.6651L9.33594 13.665V20.665ZM6.33592 13.6651V16.5621C6.12225 16.6456 5.82078 16.7528 5.44325 16.8606C4.85461 17.0288 4.08389 17.1977 3.17468 17.2812C3.44201 16.487 3.84785 15.3664 4.46689 13.6651L6.33592 13.6651ZM6.00094 21.665C6.73824 21.665 7.33594 22.2627 7.33594 23C7.33594 23.7373 6.73824 24.335 6.00094 24.335C5.26364 24.335 4.66594 23.7373 4.66594 23C4.66594 22.2627 5.26364 21.665 6.00094 21.665ZM20.0009 21.665C20.7382 21.665 21.3359 22.2627 21.3359 23C21.3359 23.7373 20.7382 24.335 20.0009 24.335C19.2636 24.335 18.6659 23.7373 18.6659 23C18.6659 22.2627 19.2636 21.665 20.0009 21.665ZM25.6659 23C25.6659 22.2627 26.2636 21.665 27.0009 21.665C27.7382 21.665 28.3359 22.2627 28.3359 23C28.3359 23.7373 27.7382 24.335 27.0009 24.335C26.2636 24.335 25.6659 23.7373 25.6659 23Z" fill="#000000" class="bmwfcol"/><title>car_transporter_lt_48</title></svg>