<svg width="48" height="48" viewBox="0 0 32 32" xmlns="http://www.w3.org/2000/svg"><path d="M10.6682 21.5099V22.4007L12.0752 24.661H15.4662L15.9999 24.1268L16.5336 24.661H19.9751L21.3316 22.4002V21.5099H20.0016V22.0318L19.222 23.331H17.0848L16.665 22.9108V21.5099H15.335V22.9106L14.9149 23.331H12.8139L11.9982 22.0206V21.5099H10.6682Z" fill="#000000" class="bmwfcol"/><path d="M5.12836 13.256L4.30412 5.75539C4.7532 5.30631 5.21345 4.63265 5.79594 4.35621C6.04439 4.23831 6.58045 4.03925 7.69856 3.8448C9.18644 3.58603 11.7274 3.33496 16 3.33496C20.2726 3.33496 22.8136 3.58603 24.3014 3.8448C25.6066 4.07177 26.1178 4.30298 26.3063 4.4087C26.8325 4.7037 27.2714 5.33087 27.6959 5.75539L26.8717 13.2559C27.5504 13.0375 28.4457 13.0312 29.9999 13.0312V14.3612C28.7968 14.3612 28.1183 14.3666 27.6394 14.4403C27.2224 14.5045 26.9904 14.6153 26.6967 14.8562C27.3648 15.5243 28.0762 16.1522 28.6766 16.8845C29.2103 17.5355 29.665 18.281 29.665 19.0795V28.6945H23.6683V27.5465C18.5618 27.8869 13.4382 27.8869 8.33167 27.5465V28.6945H2.335V19.0795C2.335 18.281 2.78968 17.5355 3.32341 16.8845C3.9238 16.1522 4.63521 15.5243 5.30328 14.8562C5.00914 14.6152 4.77702 14.5045 4.36021 14.4403C3.88145 14.3666 3.20308 14.3612 2 14.3612V13.0312C3.55448 13.0312 4.44968 13.0376 5.12836 13.256ZM5.69588 6.24453L6.55285 14.043C7.93717 13.8465 11.3816 13.4355 16 13.4355C20.6184 13.4355 24.0629 13.8465 25.4471 14.043L26.3041 6.24453C26.0368 5.97721 25.7826 5.59805 25.4171 5.47276C24.7176 5.23291 22.3385 4.66496 16 4.66496C9.6615 4.66496 7.28243 5.23291 6.58286 5.47276C6.21744 5.59805 5.9632 5.97721 5.69588 6.24453ZM25.3292 15.3696C24.0436 15.1846 20.6204 14.7655 16 14.7655C11.3796 14.7655 7.95637 15.1846 6.67077 15.3696C5.75588 16.2845 4.65312 17.1539 3.96451 18.26C5.4026 18.6409 6.86785 18.8233 8.99998 18.9742V20.3075C6.80243 20.1545 5.2295 19.9667 3.665 19.5564V27.3645H7.00167V26.1183L7.71501 26.1703C13.231 26.5724 18.769 26.5724 24.285 26.1703L24.9983 26.1183V27.3645H28.335V19.5563C26.7705 19.9667 25.1975 20.1545 23 20.3075V18.9742C25.1321 18.8233 26.5974 18.6409 28.0355 18.26C27.3469 17.1538 26.2441 16.2845 25.3292 15.3696Z" fill="#000000" class="bmwfcol"/><path d="M19 16.5L19.0662 15.8383L19.4124 15.8729L21.165 19.0276V20.365H10.835V19.0276L12.5876 15.8729L12.9338 15.8383L13 16.5C12.9338 15.8383 12.9338 15.8383 12.9338 15.8383L12.9355 15.8381L12.9387 15.8378L12.9496 15.8367L12.9889 15.8332C13.0228 15.8302 13.0725 15.8261 13.1377 15.8212C13.2682 15.8114 13.4612 15.7985 13.7168 15.7857C14.2278 15.7602 14.9889 15.7349 16 15.7349C17.0111 15.7349 17.7722 15.7602 18.2832 15.7857C18.5388 15.7985 18.7318 15.8114 18.8623 15.8212C18.9275 15.8261 18.9772 15.8302 19.0111 15.8332L19.0504 15.8367L19.0613 15.8378L19.0645 15.8381L19.0662 15.8383C19.0662 15.8383 19.0662 15.8383 19 16.5ZM13.4076 17.1356L12.3524 19.035H19.6476L18.5924 17.1356C18.4901 17.1289 18.3649 17.1215 18.2168 17.1141C17.7278 17.0896 16.9889 17.0649 16 17.0649C15.0111 17.0649 14.2722 17.0896 13.7832 17.1141C13.6351 17.1215 13.5099 17.1289 13.4076 17.1356Z" fill="#000000" class="bmwfcol"/><title>car_front_frunk_lt_48</title></svg>