<svg width="48" height="48" viewBox="0 0 32 32" xmlns="http://www.w3.org/2000/svg"><path d="M13 10.335H13.081C14.7598 10.3349 15.9644 10.3348 17.1836 10.7446C18.3883 11.1496 19.559 11.9348 21.2659 13.3557C24.3665 13.6268 26.0082 13.7723 27.1622 14.0287C28.3872 14.301 29.0847 14.7037 30.299 15.4048L30.6648 15.616L30.665 20.0136L30.1721 20.1457C29.2498 20.3928 28.7241 20.5242 28.3567 20.5919C28.1983 20.621 28.0679 20.6386 27.95 20.6491C27.49 21.829 26.3427 22.665 25 22.665C23.6634 22.665 22.5204 21.8364 22.0563 20.665H10.9437C10.4797 21.8364 9.33661 22.665 8.00001 22.665C6.66291 22.665 5.51951 21.8358 5.05581 20.6637C4.54221 20.6586 4.11711 20.6341 3.67471 20.5183C3.10081 20.368 2.5305 20.0742 1.6673 19.5759L1.33481 19.3839L1.33501 16.7245L1.52981 16.5297C1.99501 16.0645 2.17841 15.7633 2.25761 15.5655C2.33131 15.3812 2.33501 15.2439 2.33501 14.9999L2.33511 13.3906L4.56241 13.1957L4.71031 13.11C6.20001 12.2472 7.38651 11.56 8.59431 11.0913C9.90251 10.5838 11.224 10.335 13 10.335ZM4.83961 19.3292C4.92831 17.6606 6.30941 16.335 8.00001 16.335C9.69271 16.335 11.075 17.6637 11.1608 19.335H21.8393C21.9251 17.6637 23.3074 16.335 25 16.335C26.6728 16.335 28.0424 17.6326 28.1572 19.2761C28.4025 19.2289 28.7525 19.1448 29.335 18.9919L29.3348 16.3843C28.3212 15.8026 27.7923 15.5312 26.8736 15.3271C25.803 15.0891 24.2297 14.9499 20.9419 14.6624L20.733 14.6442L20.5724 14.5094C18.7924 13.0158 17.7485 12.3377 16.7598 12.0053C15.7674 11.6717 14.7788 11.665 13 11.665C11.3675 11.665 10.2118 11.8904 9.07541 12.3313C7.9671 12.7613 6.8666 13.3985 5.3315 14.2873L4.97281 14.4949L3.66501 14.6093V15.0155C3.66511 15.2706 3.66521 15.6276 3.49251 16.0594C3.34351 16.4319 3.08371 16.8209 2.66501 17.269L2.66481 18.6136C3.31771 18.9801 3.68301 19.1456 4.01171 19.2317C4.25441 19.2952 4.49051 19.3198 4.83961 19.3292ZM25 17.665C23.9866 17.665 23.165 18.4865 23.165 19.5C23.165 20.5134 23.9866 21.335 25 21.335C26.0135 21.335 26.835 20.5134 26.835 19.5C26.835 18.4865 26.0135 17.665 25 17.665ZM8.00001 17.665C6.98661 17.665 6.16501 18.4865 6.16501 19.5C6.16501 20.5134 6.98661 21.335 8.00001 21.335C9.01351 21.335 9.83501 20.5134 9.83501 19.5C9.83501 18.4865 9.01351 17.665 8.00001 17.665Z" fill="#000000" class="bmwfcol"/><title>car_side_right_lt_48</title></svg>