<svg width="48" height="48" viewBox="0 0 32 32" xmlns="http://www.w3.org/2000/svg"><path d="M10.2245 18.0841L9.335 18.9737V21.6925L10.5871 23.6641H13.5255L14 23.1896L14.4745 23.6641H17.4578L18.665 21.686L18.665 18.9737L17.7755 18.0841H14.843L14 18.5057L13.157 18.0841H10.2245ZM10.665 19.5246L10.7755 19.4141H12.843L13.335 19.6601V21.9737L12.9745 22.3341H11.318L10.665 21.3058V19.5246ZM14.665 21.9737V19.6601L15.157 19.4141H17.2245L17.335 19.5246V21.3123L16.7114 22.3341H15.0255L14.665 21.9737Z" fill="#000000" class="bmwfcol"/><path d="M4.68689 15.5835C4.1364 16.0944 3.61013 16.6047 3.20374 17.1003C2.74349 17.6617 2.335 18.3228 2.335 19.042V27.6641H7.665V26.4619C11.9532 26.7449 16.0468 26.7449 20.335 26.4619V27.6641H25.665V19.042C25.665 18.3228 25.2565 17.6617 24.7963 17.1003C24.3384 16.5419 23.7284 15.965 23.1031 15.3894C23.2689 15.2987 23.4797 15.2399 23.8094 15.2053C24.2268 15.1615 24.7606 15.1624 25.5436 15.1637C25.687 15.1639 25.8391 15.1642 26 15.1642V13.8342C25.8485 13.8342 25.7023 13.8339 25.5612 13.8336C24.7857 13.832 24.1648 13.8307 23.6706 13.8825C23.2318 13.9286 22.8477 14.0198 22.4951 14.2063C22.3054 13.8472 22.0856 13.4573 21.8466 13.0763C21.5721 12.6388 21.2635 12.1993 20.9371 11.8286C20.6202 11.4685 20.2422 11.1218 19.8192 10.9352C18.6623 10.427 17.8504 10.3341 14 10.3341C10.1495 10.3341 9.33972 10.4267 8.18192 10.9348C7.75824 11.1208 7.37994 11.4676 7.06296 11.8275C6.73653 12.1982 6.4279 12.6379 6.15338 13.0755C5.91425 13.4567 5.69441 13.847 5.5047 14.2063C5.15202 14.0198 4.76801 13.9286 4.32919 13.8825C3.83506 13.8307 3.21426 13.832 2.4388 13.8336C2.29772 13.8339 2.1515 13.8342 2 13.8342V15.1642C2.16092 15.1642 2.31267 15.1639 2.45606 15.1637C3.23898 15.1624 3.77306 15.1615 4.19038 15.2053C4.51998 15.2398 4.73079 15.2987 4.89683 15.3895C4.84585 15.4364 4.79497 15.4833 4.74427 15.5303C4.7244 15.5471 4.70484 15.5643 4.68561 15.5821L4.68689 15.5835ZM8.71638 12.1527C9.57686 11.775 10.1009 11.6641 14 11.6641C17.8989 11.6641 18.4241 11.7751 19.2831 12.1524C19.4431 12.2231 19.6675 12.3992 19.9388 12.7074C20.201 13.0053 20.4671 13.3802 20.72 13.7832C20.9616 14.1682 21.1833 14.5661 21.3704 14.9252C21.1229 14.9014 20.8514 14.8838 20.5534 14.8705C19.5227 14.8247 18.0845 14.8275 16.0772 14.8316L16.0761 14.8316C15.4425 14.8328 14.752 14.8342 14 14.8342C13.2481 14.8342 12.558 14.8328 11.9244 14.8316L11.9227 14.8316C9.91514 14.8275 8.4763 14.8247 7.44501 14.8705C7.14767 14.8838 6.8766 14.9013 6.62955 14.925C6.81668 14.5656 7.03841 14.1675 7.28005 13.7823C7.53296 13.3791 7.79897 13.0042 8.06112 12.7065C8.33267 12.3981 8.55692 12.2227 8.71638 12.1527ZM5.61876 16.5332C5.69154 16.4771 5.82278 16.4087 6.08738 16.3484C6.39994 16.2772 6.8461 16.2285 7.50414 16.1992C8.50184 16.1548 9.89535 16.1576 11.8894 16.1616C12.5289 16.1628 13.2302 16.1642 14 16.1642C14.7693 16.1642 15.4701 16.1628 16.1092 16.1616H16.1103C18.104 16.1576 19.4972 16.1548 20.4942 16.1992C21.1518 16.2285 21.5975 16.2772 21.9097 16.3484C22.2165 16.4184 22.3439 16.4993 22.4089 16.5593C22.9508 17.0626 23.4194 17.5187 23.7677 17.9436C23.8771 18.077 23.9679 18.1994 24.0424 18.3117C22.8978 18.5928 21.6996 18.7364 20 18.8568V20.1901C21.7656 20.0674 23.0678 19.9182 24.335 19.6093V26.3341H21.665V25.0339L20.9517 25.0859C16.2282 25.4302 11.7718 25.4302 7.04835 25.0859L6.335 25.0339V26.3341H3.665V19.6093C4.9322 19.9182 6.23441 20.0674 8 20.1902V18.8568C6.30037 18.7364 5.10218 18.5928 3.95758 18.3117C4.03209 18.1994 4.12289 18.077 4.23226 17.9436C4.58653 17.5115 5.065 17.0467 5.61876 16.5332Z" fill="#000000" class="bmwfcol"/><path d="M30.4702 3.46932L24 9.93955L20.5298 6.46932L21.4702 5.52887L24 8.05864L29.5298 2.52887L30.4702 3.46932Z" fill="#000000" class="bmwfcol"/><title>car_front_checkmark_lt_48</title></svg>