<svg width="48" height="48" viewBox="0 0 32 32" xmlns="http://www.w3.org/2000/svg"><path d="M12.7694 6.51287L11.7341 2.64917L13.0188 2.30494L14.054 6.16864L12.7694 6.51287Z" fill="#000000" class="bmwfcol"/><path d="M18.981 29.6951L17.9458 25.8314L19.2304 25.4872L20.2657 29.3509L18.981 29.6951Z" fill="#000000" class="bmwfcol"/><path d="M15.0477 14.664L12.8189 15.2612L12.2783 16.1976L12.8364 18.2804L14.2291 19.5602L16.5125 18.9484L16.7155 18.5968L17.067 18.7998L19.3849 18.1788L19.915 16.3771L19.3586 14.3005L18.4222 13.7598L16.1934 14.3571L15.6973 14.7969L15.0477 14.664ZM14.021 17.5627L13.7093 16.3996L15.0887 16.03L15.3537 16.0842L15.7584 17.5945L15.6361 17.8063L14.5909 18.0864L14.021 17.5627ZM17.0431 17.2502L16.6384 15.74L16.8409 15.5605L18.2202 15.1909L18.5336 16.3602L18.3196 17.0873L17.2549 17.3726L17.0431 17.2502Z" fill="#000000" class="bmwfcol"/><path d="M11.3953 9.71226C10.8221 9.93966 10.5466 10.1479 10.1984 10.4268C9.89945 10.6663 9.67972 11.0166 9.51614 11.3466C9.34623 11.6894 9.20494 12.0771 9.08952 12.4522C8.99422 12.762 8.9133 13.074 8.84678 13.3617C8.51113 13.2752 8.1763 13.2832 7.81599 13.3403C7.43837 13.4002 6.97831 13.5245 6.41771 13.6761C6.31591 13.7036 6.21079 13.732 6.10225 13.7611L6.44648 15.0457C6.56337 15.0144 6.67331 14.9848 6.77677 14.9569L6.77902 14.9563C7.34693 14.8031 7.72292 14.7017 8.02426 14.6539C8.16991 14.6308 8.28005 14.6236 8.36956 14.6283L8.43498 14.6696C8.17039 15.0961 7.92227 15.5211 7.74137 15.9209C7.51377 16.4239 7.32445 17.0279 7.4798 17.6077L9.19651 24.0146L13.379 22.8939L13.1486 22.0341C16.1375 21.437 18.6361 20.7675 21.5232 19.7901L21.7535 20.6499L25.936 19.5292L24.2193 13.1224C24.0639 12.5426 23.598 12.1141 23.1494 11.7923C22.7924 11.5362 22.3643 11.2919 21.9214 11.0546L21.9559 10.989C22.0314 10.9395 22.1311 10.8901 22.2706 10.8366C22.5555 10.7273 22.932 10.6271 23.5004 10.4758C23.6047 10.448 23.7153 10.4186 23.8331 10.387L23.4889 9.10232C23.3805 9.13136 23.2749 9.1594 23.1732 9.18644C22.6119 9.33553 22.1512 9.45789 21.7942 9.59486C21.4537 9.72551 21.1597 9.88597 20.9123 10.1288C20.7109 9.91303 20.4849 9.68344 20.2476 9.463C19.9601 9.19592 19.644 8.93098 19.3255 8.71904C19.0188 8.51496 18.6528 8.32136 18.2746 8.26284C17.3004 8.11346 16.6657 8.21297 14.1162 8.89609C12.7204 9.2701 11.9246 9.50225 11.3953 9.71226ZM11.7646 17.507L11.4194 16.2187C10.4142 16.4082 9.64756 16.5179 8.91679 16.5518C8.92816 16.5251 8.94025 16.4976 8.95309 16.4692C9.1383 16.0599 9.42453 15.59 9.76719 15.0492C9.96404 14.9559 10.2426 14.8513 10.6419 14.7251C11.3521 14.5005 12.357 14.2334 13.8007 13.8496L13.8029 13.849C14.2664 13.7258 14.7752 13.5906 15.3339 13.4408C15.8934 13.2909 16.403 13.1533 16.8664 13.0281C18.3083 12.6387 19.3114 12.3678 20.0382 12.2073C20.4486 12.1167 20.7426 12.0681 20.9597 12.0506C21.5266 12.3475 22.0092 12.6113 22.3741 12.873C22.3995 12.8912 22.4237 12.909 22.447 12.9265C21.7971 13.2626 21.0782 13.5509 20.1128 13.8894L20.458 15.1777C21.5174 14.8089 22.3376 14.4839 23.1005 14.0856L24.3071 18.5888L22.694 19.021L22.4384 18.0669L21.7628 18.3018C18.4154 19.4654 15.6777 20.199 12.1969 20.8649L11.4944 20.9993L11.7501 21.9534L10.137 22.3856L8.93033 17.8824C9.79003 17.8459 10.6628 17.7172 11.7646 17.507ZM19.8075 10.8963L19.7515 10.9086C18.9918 11.0763 17.945 11.3591 16.49 11.7521C16.0317 11.8759 15.5328 12.0106 14.9897 12.1562C14.4466 12.3017 13.9472 12.4344 13.4883 12.5564C12.0315 12.9436 10.9831 13.2222 10.2409 13.457L10.1873 13.474C10.2378 13.2688 10.2957 13.0548 10.3607 12.8433C10.4642 12.507 10.5811 12.1929 10.7078 11.9373C10.8408 11.6689 10.9562 11.5239 11.03 11.4647C11.3269 11.2269 11.485 11.1075 11.8858 10.9485C12.3305 10.7721 13.0491 10.5589 14.4605 10.1808C17.0415 9.48918 17.4146 9.47655 18.0725 9.57739C18.1667 9.59207 18.3394 9.66042 18.5887 9.82627C18.8264 9.98446 19.0847 10.198 19.3424 10.4374C19.5043 10.5879 19.6613 10.7441 19.8075 10.8963Z" fill="#000000" class="bmwfcol"/><path d="M14.642 2.06602L14.8772 3.45013C15.2491 3.41687 15.6237 3.40003 16.0001 3.40003C19.3418 3.40003 22.5467 4.72753 24.9096 7.09049L25.8996 6.10054C23.2741 3.47503 19.7131 2.00003 16.0001 2.00003C15.5446 2.00003 15.0914 2.02223 14.642 2.06602Z" fill="#000000" class="bmwfcol"/><path d="M6.10059 6.10054C7.28327 4.91786 8.65576 3.96863 10.1465 3.28251L10.5953 4.61808C9.30638 5.23012 8.11875 6.06227 7.09054 7.09049L6.10059 6.10054Z" fill="#000000" class="bmwfcol"/><path d="M16.0001 28.6C16.3385 28.6 16.6755 28.5864 17.0104 28.5595L17.2895 29.9406C16.8626 29.98 16.4323 30 16.0001 30C12.287 30 8.72609 28.525 6.10059 25.8995L7.09054 24.9096C9.45349 27.2725 12.6584 28.6 16.0001 28.6Z" fill="#000000" class="bmwfcol"/><path d="M21.7909 28.7463L21.3026 27.43C22.631 26.8137 23.8543 25.9649 24.9096 24.9096L25.8996 25.8995C24.7003 27.0988 23.3059 28.058 21.7909 28.7463Z" fill="#000000" class="bmwfcol"/><title>car_front_tilted_with_scale_lt_48</title></svg>