<svg width="48" height="48" viewBox="0 0 32 32" xmlns="http://www.w3.org/2000/svg"><path d="M28.6649 13.0005C28.6649 9.84936 27.6116 7.17177 25.7202 5.28027L24.7797 6.22073C26.3882 7.82923 27.3349 10.1516 27.3349 13.0005C27.3349 15.8493 26.3882 18.1717 24.7797 19.7802L25.7201 20.7207C27.6116 18.8292 28.6649 16.1516 28.6649 13.0005Z" fill="#000000" class="bmwfcol"/><path d="M23.6649 13.0005C23.6649 14.6516 23.1116 16.0792 22.0951 17.0957L21.1547 16.1552C21.8882 15.4217 22.3349 14.3493 22.3349 13.0005C22.3349 11.6516 21.8882 10.5792 21.1547 9.84573L22.0952 8.90527C23.1116 9.92177 23.6649 11.3494 23.6649 13.0005Z" fill="#000000" class="bmwfcol"/><path d="M11.6683 24.5461C8.44947 24.7606 5.22386 24.84 2 24.784V23.4538C5.42979 23.514 8.86161 23.4194 12.285 23.1698L12.9983 23.1178V24.3641H16.335V16.5561C14.7705 16.9665 13.1976 17.1542 11 17.3072V15.9739C13.1322 15.8231 14.5975 15.6406 16.0356 15.2597C15.9354 15.0987 15.8074 14.9217 15.6481 14.7273C15.2364 14.2252 14.6844 13.6877 14.0506 13.0992L14.0489 13.101C13.9483 13.0081 13.762 12.8961 13.3719 12.7952C12.9803 12.6939 12.4303 12.6155 11.645 12.5589C10.0739 12.4458 7.68645 12.4274 4 12.4274C3.28574 12.4274 2.62024 12.4281 2 12.43V11.1C2.62246 11.098 3.28811 11.0974 4 11.0974C7.67022 11.0974 10.1114 11.115 11.7405 11.2324C12.1827 11.2642 12.5743 11.3039 12.9209 11.3546C12.6916 10.9208 12.4128 10.4315 12.1061 9.95932C11.8099 9.50324 11.4966 9.07661 11.1857 8.73493C10.8664 8.38395 10.5898 8.16745 10.3753 8.07331C9.34856 7.62272 8.55099 7.49406 4 7.49406C3.23314 7.49406 2.57282 7.49772 2 7.50595V6.1751C2.5816 6.16715 3.24246 6.16406 4 6.16406C8.49023 6.16406 9.58213 6.27277 10.91 6.85549C11.3759 7.06001 11.8021 7.43609 12.1695 7.83993C12.5454 8.25306 12.9024 8.74347 13.2216 9.23497C13.5361 9.71929 13.8223 10.2178 14.0617 10.6671C14.4647 10.3787 14.876 10.2117 15.4371 10.1253C16.0409 10.0324 16.8417 10.0307 17.9999 10.0307V11.3607C16.7968 11.3607 16.1183 11.3661 15.6394 11.4398C15.2191 11.5045 14.9867 11.6166 14.6896 11.8615L14.5976 11.7499C14.6092 11.7757 14.6204 11.8008 14.6311 11.825C15.3895 12.5219 16.1285 13.2156 16.6766 13.8841C17.2103 14.5351 17.665 15.2805 17.665 16.0791V25.6941H11.6683V24.5461Z" fill="#000000" class="bmwfcol"/><path d="M3.4662 21.6607H2V20.3307H2.91497L3.335 19.9104V16.6851L2.79234 16.3607H2V15.0307H3.15949L3.99992 15.533L4.84034 15.0307H8.3327L9.33158 16.0296V19.3999L7.9751 21.6607H4.53364L3.99992 21.1266L3.4662 21.6607ZM5.08486 20.3307H7.22207L8.00159 19.0315V16.5805L7.7818 16.3607H5.2075L4.665 16.685V19.9105L5.08486 20.3307Z" fill="#000000" class="bmwfcol"/><title>car_front_noise_lt_48</title></svg>