<svg width="48" height="48" viewBox="0 0 32 32" xmlns="http://www.w3.org/2000/svg"><path d="M11 22.4443L11.5928 22.1475H13.9004L14.0957 22.3418L14.4707 22.7168L14.665 22.9121V25.0615L13.6865 26.665H11.2871L11.0918 26.4707L11 26.3789L10.9082 26.4707L10.7129 26.665H8.34863L8.15332 26.3564L7.33496 25.0684V22.9121L7.5293 22.7168L7.9043 22.3418L8.09961 22.1475H10.4072L11 22.4443ZM8.66504 24.6816L9.0791 25.335H10.1611L10.335 25.1611V23.5986L10.0928 23.4775H8.66504V24.6816ZM11.665 23.5986V25.1611L11.8389 25.335H12.9404L13.335 24.6875V23.4775H11.9072L11.665 23.5986Z" fill="#000000" class="bmwfcol"/><path d="M11 16.335C13.6394 16.335 14.2783 16.4034 15.1807 16.7998C15.5308 16.9542 15.8338 17.2362 16.0771 17.5127C16.3299 17.7998 16.5668 18.1373 16.7754 18.4697C16.9474 18.7439 17.1047 19.0247 17.2432 19.2852C17.5455 19.114 17.8719 19.0352 18.2354 18.9971C18.6847 18.9499 19.2688 18.96 20 18.96V20.29C19.2132 20.29 18.7332 20.2817 18.374 20.3193C18.2233 20.3352 18.1136 20.3588 18.0273 20.3877L17.9785 20.4404C18.3455 20.7844 18.6968 21.1307 18.9756 21.4707C19.3256 21.8976 19.665 22.432 19.665 23.0322V29.665H15.335V28.7715C12.2932 28.9683 9.70681 28.9683 6.66504 28.7715V29.665H2.33496V23.0322C2.33496 22.432 2.67439 21.8976 3.02441 21.4707C3.30269 21.1313 3.65247 20.7849 4.01855 20.4414L3.96777 20.3867C3.88197 20.3585 3.7733 20.3349 3.625 20.3193C3.26597 20.2817 2.78647 20.29 2 20.29V18.96C2.73116 18.96 3.31534 18.9499 3.76465 18.9971C4.12782 19.0352 4.45376 19.1143 4.75586 19.2852C4.89458 19.0244 5.05239 18.7433 5.22461 18.4688C5.43315 18.1363 5.67008 17.7988 5.92285 17.5117C6.1662 17.2354 6.46869 16.9538 6.81934 16.7998C7.22776 16.6206 7.54792 16.4903 8.16016 16.4189C8.72578 16.3531 9.55499 16.335 11 16.335ZM11 21.04C8.61828 21.04 7.11908 21.0217 6.13574 21.0654C5.71615 21.0841 5.41954 21.1149 5.20508 21.1543C4.73486 21.5873 4.33723 21.9665 4.05273 22.3135C4.03329 22.3372 4.01472 22.3603 3.99707 22.3828C4.71161 22.5389 5.48022 22.6319 6.5 22.709V24.043C5.38125 23.9608 4.505 23.8588 3.66504 23.6719V28.335H5.33496V27.3477L6.04883 27.3994C9.58294 27.657 12.4171 27.657 15.9512 27.3994L16.665 27.3477V28.335H18.335V23.6719C17.495 23.8588 16.6187 23.9608 15.5 24.043V22.709C16.5192 22.632 17.2877 22.5387 18.002 22.3828C17.9844 22.3604 17.9666 22.337 17.9473 22.3135C17.7251 22.0425 17.4336 21.7522 17.0928 21.4316L16.7949 21.1543C16.5806 21.1147 16.2838 21.0842 15.8633 21.0654C14.8806 21.0217 13.3819 21.04 11 21.04ZM11 17.665C9.53899 17.665 8.78966 17.6849 8.31445 17.7402C7.88621 17.7901 7.70267 17.8648 7.35449 18.0176C7.26792 18.0556 7.11891 18.1658 6.9209 18.3906C6.73232 18.6048 6.53757 18.8777 6.35059 19.1758C6.23303 19.3632 6.12227 19.5552 6.02051 19.7402C6.03894 19.7394 6.05749 19.7381 6.07617 19.7373C7.09882 19.6918 8.65268 19.71 11 19.71C13.3473 19.71 14.9008 19.6918 15.9229 19.7373C15.9412 19.7381 15.9594 19.7394 15.9775 19.7402C15.8759 19.5557 15.7667 19.3636 15.6494 19.1768C15.4624 18.8788 15.2678 18.6049 15.0791 18.3906C14.8816 18.1663 14.7327 18.0552 14.6455 18.0166C14.0361 17.7489 13.6723 17.665 11 17.665Z" fill="#000000" class="bmwfcol"/><path d="M24.7754 11.584L25.4297 10.9297L25.9004 10.46L26.3711 10.9297C27.8962 12.4549 28.7304 13.7403 28.9355 14.9043C29.1037 15.8601 28.8356 16.6478 28.3516 17.3115L28.5332 17.4932C29.354 18.3237 29.665 19.5314 29.665 21C29.665 22.4765 29.3511 23.6898 28.5205 24.5205C27.6898 25.3511 26.4766 25.665 25 25.665H21V24.335H25C26.3228 24.3349 27.1109 24.0491 27.5801 23.5801C28.0491 23.1109 28.3349 22.3227 28.335 21C28.3349 19.6868 28.0526 18.9008 27.5898 18.4307L27.4258 18.2666C26.7388 18.8043 25.9153 19.1135 24.9043 18.9355C23.7403 18.7304 22.4549 17.8962 20.9297 16.3711L20.46 15.9004L20.9297 15.4297L21.584 14.7754L19.4297 12.6211L20.3711 11.6797L22.5254 13.834L23.834 12.5254L21.6797 10.3711L22.6211 9.42871L24.7754 11.584ZM22.3496 15.8916C23.5745 17.0299 24.4706 17.5088 25.1357 17.626C25.8091 17.7443 26.352 17.5073 26.9297 16.9297C27.5074 16.352 27.7442 15.809 27.626 15.1357C27.5088 14.4707 27.0299 13.5745 25.8916 12.3496L22.3496 15.8916Z" fill="#000000" class="bmwfcol"/><path d="M11.9717 6.45898H15.6396L16.7891 7.6084H13.4863L17.3096 11.4307L16.3691 12.3711L12.5459 8.54883V11.8506L11.3975 10.7021V7.0332L11.3965 6.45801L11.9717 6.45898Z" fill="#000000" class="bmwfcol"/><path d="M21.4297 5.45117V2.14941L22.5781 3.29785V6.96582L22.5791 7.54102H18.3359L17.1865 6.3916H20.4893L16.6836 2.58594L17.624 1.64551L21.4297 5.45117Z" fill="#000000" class="bmwfcol"/><title>car_plug_arrows_double_lt_48</title></svg>