<svg width="72" height="48" viewBox="0 0 48 32" xmlns="http://www.w3.org/2000/svg"><path d="M27.9052 7.16736C25.2413 7.16728 23.4814 7.16722 21.734 7.76591C20.0019 8.35936 18.3296 9.52118 15.7467 11.6783C10.2844 11.9158 7.02539 12.5821 5.10678 13.2561C4.13393 13.5979 3.48695 13.9481 3.06869 14.2603C2.72948 14.5134 2.33496 14.873 2.33496 15.3332V20.2754C2.91622 20.8566 3.53357 21.3414 4.3557 21.5241C4.8879 21.6423 5.50235 21.6614 6.24012 21.6644C6.75098 23.5378 8.46463 24.915 10.5 24.915C12.5351 24.915 14.2486 23.538 14.7597 21.6649H31.2403C31.7513 23.538 33.4648 24.915 35.5 24.915C37.5351 24.915 39.2487 23.538 39.7597 21.6648C41.0654 21.6629 41.9936 21.6402 42.7966 21.3833C43.9572 21.0119 44.8254 20.1153 45.6654 19.2754V14.7245C45.4446 14.5036 45.2266 14.2975 44.9987 14.0621C44.9987 13.2031 44.9987 12.4945 44.9987 11.6307L44.4762 11.5161C44.0037 11.4125 43.3648 11.1209 42.4352 10.6794C40.7372 9.87232 38.8522 9.05477 37.0564 8.48791C34.0921 7.57241 31.0038 7.16743 27.9052 7.16736ZM34.0553 9.09065C34.9573 9.27526 35.7923 9.49283 36.5653 9.72842C36.8656 9.9839 37.2006 10.2245 37.4196 10.5575C36.7538 10.863 35.7748 11.2946 34.7117 11.5401L34.0553 9.09065ZM32.6096 8.83395L33.3847 11.7264C31.4439 11.8005 29.5023 11.864 27.5612 11.9348L28.4814 8.50082C29.9804 8.52242 31.353 8.64422 32.6096 8.83395ZM26.1707 11.9855L17.0591 12.3179C19.3597 10.4255 20.7744 9.50059 22.1651 9.02411C23.5103 8.56322 24.872 8.50552 27.1051 8.49836L26.1707 11.9855ZM16.8195 13.6576L33.1853 13.0605C35.1977 13.0567 37.2112 12.1216 38.1355 11.6924C38.6124 11.4709 38.8694 11.0456 38.8004 10.5128C39.9267 10.9595 40.8827 11.414 41.7072 11.806C42.351 12.112 42.9935 12.433 43.6687 12.6652C43.6687 13.2231 43.6687 13.7595 43.6687 14.3311C43.6687 14.7514 43.9947 15.0005 44.3354 15.2892V18.7226C43.464 19.5767 42.9661 19.9326 42.3913 20.1165C41.826 20.2974 41.1474 20.3287 39.9119 20.3339C39.8245 17.9725 37.8827 16.085 35.5 16.085C33.1169 16.085 31.1748 17.9731 31.088 20.3349H14.9119C14.8251 17.9731 12.883 16.085 10.5 16.085C8.11754 16.085 6.17587 17.9721 6.08807 20.333C5.21593 20.3256 4.35233 20.3173 3.66496 19.7131V15.497C4.1476 14.9972 4.9135 14.7337 5.54762 14.5109C7.22977 13.92 10.1758 13.2917 15.1939 13.0359L16.8195 13.6576ZM10.5 17.415C12.2038 17.415 13.585 18.7962 13.585 20.5C13.585 22.2038 12.2038 23.585 10.5 23.585C8.79616 23.585 7.41496 22.2038 7.41496 20.5C7.41496 18.7962 8.79616 17.415 10.5 17.415ZM35.5 17.415C37.2038 17.415 38.585 18.7962 38.585 20.5C38.585 22.2038 37.2038 23.585 35.5 23.585C33.7962 23.585 32.415 22.2038 32.415 20.5C32.415 18.7962 33.7962 17.415 35.5 17.415Z" fill="#000000" class="bmwfcol"/><title>car-model-sac_lt_48</title></svg>