<svg width="48" height="48" viewBox="0 0 32 32" xmlns="http://www.w3.org/2000/svg"><path d="M15.4726 5.62537L9.64437 8.99133L11.2999 11.8453C11.5344 12.2495 11.871 12.5849 12.2761 12.818L16.6465 15.3327L22.6342 11.8719L22.6337 10.7201L17.7997 7.93163L17.059 8.36137L15.4726 5.62537ZM12.4504 11.1779L11.4635 9.47662L14.988 7.44111L15.9997 9.18604C16.1096 9.37547 16.2713 9.52954 16.4658 9.63006C16.814 9.80997 17.2299 9.79984 17.5689 9.60318L17.8016 9.46814L20.9716 11.2967L16.645 13.7974L12.9394 11.6652C12.7365 11.5484 12.5678 11.3804 12.4504 11.1779Z" fill="#000000" class="bmwfcol"/><path d="M7.29882 10.345L1.55273 13.6581L3.18205 16.5163C3.41616 16.927 3.75529 17.268 4.16467 17.5044L8.54193 20.0319L14.4559 16.5851L14.4552 15.4357L9.65024 12.643L8.5684 13.2671V12.4905L7.29882 10.345ZM4.3375 15.8577L3.36361 14.1493L6.8239 12.1541L7.2384 12.8546V13.3438C7.2384 13.579 7.2992 13.8102 7.41488 14.0151L7.51358 14.1898C7.61539 14.37 7.76829 14.5161 7.953 14.6096C8.26874 14.7694 8.64378 14.7591 8.95029 14.5823L9.64778 14.1799L12.799 16.0114L8.53882 18.4944L4.82973 16.3527C4.62466 16.2342 4.45477 16.0634 4.3375 15.8577Z" fill="#000000" class="bmwfcol"/><path d="M23.382 12.7921L18.8089 15.4368L18.8094 16.5884L24.1447 19.6675L30.1316 16.2022L30.1319 15.0513L26.2603 12.8073L23.382 12.7921ZM20.4712 16.0118L23.7356 14.124L25.8995 14.1354L28.4716 15.6262L24.1437 18.1313L20.4712 16.0118Z" fill="#000000" class="bmwfcol"/><path d="M16.6448 16.6893L11.5556 19.6222L11.6478 21.8136L16.0282 24.3435L21.9748 20.9192L21.9764 19.7675L18.2417 17.6036L16.6448 16.6893ZM12.9183 20.3719L16.647 18.2231L17.5778 18.7561L20.3135 20.3411L16.0292 22.8082L12.9459 21.0275L12.9183 20.3719Z" fill="#000000" class="bmwfcol"/><title>car_floor_mats_lt_48</title></svg>