<svg width="48" height="48" viewBox="0 0 32 32" xmlns="http://www.w3.org/2000/svg"><path d="M10.6324 16.7182C11.622 16.4813 13.2259 16.4507 16 16.4507C18.7741 16.4507 20.3775 16.4813 21.3668 16.7182C21.8928 16.8442 22.3028 17.0395 22.6367 17.3555C22.9552 17.6569 23.1581 18.0275 23.3399 18.3914C23.7695 19.2512 23.7829 19.9995 23.6634 20.552C23.6048 20.8229 23.5163 21.0386 23.4389 21.1914C23.4002 21.2679 23.3639 21.3293 23.3349 21.3747C23.317 21.4028 23.2981 21.4305 23.2783 21.4574C23.2129 21.5442 22.9643 21.7003 22.8397 21.7182C20.5087 22.0533 18.3157 22.0725 16 22.0725C13.6843 22.0725 11.4913 22.0533 9.16037 21.7182C8.98744 21.6934 8.83124 21.6014 8.72554 21.4623L8.72455 21.461L8.72349 21.4596C8.70271 21.4319 8.6833 21.4031 8.66469 21.3738C8.63583 21.3285 8.59967 21.2671 8.56105 21.1906C8.48395 21.0379 8.39573 20.8223 8.33739 20.5516C8.2184 19.9995 8.23167 19.2517 8.65973 18.3922C8.84108 18.028 9.04366 17.6572 9.36224 17.3556C9.69617 17.0394 10.1064 16.8442 10.6324 16.7182ZM9.68755 20.4482C11.7903 20.7239 13.8003 20.7425 16 20.7425C18.1999 20.7425 20.2101 20.7239 22.3131 20.4481C22.3314 20.397 22.349 20.3377 22.3634 20.271C22.4229 19.996 22.4363 19.5586 22.1501 18.9858C21.9741 18.6335 21.8575 18.4493 21.7225 18.3215C21.6029 18.2083 21.4253 18.0999 21.0571 18.0117C20.2581 17.8203 18.8468 17.7807 16 17.7807C13.1533 17.7807 11.7414 17.8203 10.9421 18.0117C10.5736 18.0999 10.3961 18.2083 10.2767 18.3214C10.1419 18.4489 10.0256 18.6329 9.85027 18.9851C9.5649 19.5581 9.57818 19.996 9.63754 20.2714C9.6519 20.338 9.66943 20.3971 9.68755 20.4482Z" fill="#000000" class="bmwfcol"/><path d="M26.0744 13.1054C26.0386 13.0099 25.9979 12.8998 25.9526 12.7775L25.9517 12.775C25.8834 12.5906 25.8048 12.3784 25.7179 12.1471C25.9491 12.0531 26.3135 12.0348 27.4995 12.0348C27.8668 12.0348 28.1646 11.7371 28.1646 11.3698C28.1646 11.0025 27.8668 10.7048 27.4995 10.7048L27.357 10.7047C26.3469 10.7043 25.759 10.7041 25.238 10.9093C25.1143 10.6016 24.9835 10.2867 24.8485 9.97653C24.5473 9.28509 24.2131 8.5892 23.8691 8.01992C23.6971 7.73528 23.5148 7.46915 23.3245 7.24669C23.14 7.03119 22.9149 6.81769 22.65 6.68564C22.2942 6.50897 21.8288 6.4024 21.3486 6.33042C20.855 6.25642 20.2868 6.21102 19.6923 6.18265C18.6468 6.13275 17.4762 6.13383 16.4222 6.13479L16.0004 6.13506L15.5786 6.13479L12.309 6.18265C11.7145 6.21102 11.1464 6.25642 10.6527 6.33042C10.1725 6.40241 9.70701 6.50896 9.35114 6.6855C9.08574 6.81721 8.86108 7.03031 8.6766 7.24568C8.48613 7.46804 8.30382 7.73413 8.1318 8.01874C7.78777 8.58795 7.45349 9.28398 7.15236 9.97558C7.01715 10.2861 6.88628 10.6015 6.76242 10.9094C6.24134 10.7041 5.65338 10.7043 4.643 10.7047L4.50045 10.7048C4.13318 10.7048 3.83545 11.0025 3.83545 11.3698C3.83545 11.7371 4.13318 12.0348 4.50045 12.0348C5.68757 12.0348 6.05157 12.0531 6.28273 12.1473C6.19611 12.3779 6.11784 12.5894 6.04973 12.7734C6.00519 12.8937 5.96492 13.0025 5.92956 13.097C5.08036 13.3023 4.33691 13.9285 4.00089 14.7817C3.83484 15.2033 3.78355 15.6415 3.83542 16.0568V25.665H8.52917V24.5225C13.1282 24.8557 18.8726 24.8557 23.4717 24.5225V25.665H28.1654V16.0552C28.214 15.6435 28.1617 15.21 27.9973 14.7927C27.6618 13.9406 26.9213 13.3142 26.0744 13.1054ZM24.0529 13.468C23.154 14.101 22.8197 15.3008 23.2486 16.3899C23.7643 17.6991 25.2359 18.4756 26.5808 18.0232C26.669 17.9936 26.7539 17.9595 26.8354 17.9215V24.335H24.8017V23.082L24.0821 23.1413C19.2104 23.5427 12.7905 23.5427 7.91878 23.1413L7.19917 23.082V24.335H5.16542V17.9031C5.24476 17.9399 5.32726 17.9728 5.41284 18.0016C6.75347 18.4525 8.22022 17.6785 8.73409 16.3737C9.16004 15.2922 8.83086 14.1012 7.94226 13.4684C8.24811 13.4452 8.61674 13.4263 9.06274 13.4112C10.4967 13.3626 12.6685 13.3549 16.0003 13.3549C19.3322 13.3549 21.5039 13.3626 22.9379 13.4112C23.3813 13.4263 23.7481 13.445 24.0529 13.468ZM10.8499 7.64573C11.2812 7.58108 11.7997 7.53847 12.3724 7.51113C13.3828 7.4629 14.5179 7.46389 15.576 7.46481L16.0004 7.46506L16.4249 7.46481C17.483 7.46389 18.6183 7.4629 19.6289 7.51114C20.2017 7.53847 20.7202 7.58108 21.1515 7.64573C21.5957 7.71232 21.8932 7.79494 22.0577 7.87651C22.0939 7.89462 22.1815 7.95662 22.3139 8.11142C22.4408 8.25962 22.5809 8.4598 22.7308 8.70777C23.0304 9.20371 23.3376 9.83823 23.6291 10.5076C23.8747 11.0715 24.101 11.6402 24.2978 12.1534C23.9344 12.1226 23.501 12.0995 22.983 12.082C21.5216 12.0325 19.3245 12.0249 16.0003 12.0249C12.6761 12.0249 10.4791 12.0325 9.01771 12.082C8.49966 12.0995 8.06625 12.1226 7.70282 12.1534C7.89965 11.6399 8.12609 11.0708 8.37178 10.5065C8.6633 9.83701 8.97041 9.20246 9.27005 8.7067C9.41987 8.45883 9.55997 8.25884 9.68669 8.1109C9.81929 7.9561 9.90672 7.89459 9.94228 7.87691C10.1072 7.79513 10.4051 7.71239 10.8499 7.64573ZM6.83476 14.3913C7.41199 14.5854 7.74492 15.2605 7.47349 15.9497C7.20206 16.6389 6.47746 16.9583 5.90022 16.7641C5.32299 16.5699 4.99006 15.8949 5.26149 15.2057C5.53292 14.5165 6.25752 14.1971 6.83476 14.3913ZM26.7367 15.2167C27.0099 15.9103 26.6749 16.5901 26.0934 16.7857C25.5119 16.9813 24.7824 16.6595 24.5092 15.9659C24.2361 15.2723 24.571 14.5924 25.1526 14.3968C25.7341 14.2012 26.4636 14.523 26.7367 15.2167Z" fill="#000000" class="bmwfcol"/><title>car-front-mini_lt_48</title></svg>