<svg width="72" height="48" viewBox="0 0 48 32" xmlns="http://www.w3.org/2000/svg"><path d="M27.9238 8.83438C25.6462 8.83103 24.0007 8.82861 22.3444 9.34415C20.5797 9.89341 18.848 11.0105 16.2581 13.1685C9.97458 13.1829 6.56848 13.7597 4.7096 14.4377C3.76448 14.7824 3.17291 15.1696 2.81279 15.5654C2.43887 15.9763 2.33496 16.3753 2.33496 16.6666V21.5091C3.16913 21.7345 4.00412 21.994 4.86417 22.0976C5.36742 22.1582 5.8832 22.1642 6.681 22.1647C7.32342 23.6364 8.79157 24.665 10.5 24.665C12.2083 24.665 13.6765 23.6364 14.3189 22.1648H31.681C32.3235 23.6364 33.7916 24.665 35.5 24.665C37.2083 24.665 38.6765 23.6364 39.3189 22.1648C40.6111 22.1642 41.4767 22.1532 42.3023 21.9598C43.5159 21.6754 44.5963 21.0005 45.6647 20.3837L45.6643 16.7244C45.3357 16.3958 44.9237 16.0669 44.7324 15.6362C44.6735 15.5037 44.6647 15.3956 44.6647 14.9999V12.9863L41.2046 12.6836C39.2285 11.5433 37.2073 10.4188 35.0268 9.7166C32.7189 8.97335 30.3307 8.83792 27.9238 8.83438ZM34.7615 11.0292C35.0765 11.3425 35.65 11.8278 35.6917 12.3123C35.715 12.5841 35.4309 12.8674 35.2716 13.0551L32.8423 13.1405L33.1059 10.5778C33.6717 10.6988 34.2171 10.8483 34.7615 11.0292ZM31.792 10.3529L31.5004 13.1876L27.215 13.3382L27.7746 10.1645C28.0162 10.1646 28.2578 10.1648 28.4995 10.1649C29.7382 10.1649 30.8096 10.2239 31.792 10.3529ZM25.8561 13.386L17.9791 13.6628L17.8385 13.5926C19.9781 11.8696 21.3832 11.0363 22.7396 10.6141C23.8399 10.2716 24.9323 10.1889 26.4232 10.1699L25.8561 13.386ZM17.6877 15.0039L35.8915 14.3641C36.1952 14.022 36.5153 13.6849 36.7466 13.2876C36.9879 12.8731 37.0872 12.394 36.9712 11.9254C38.281 12.5423 39.5421 13.2581 40.7945 13.9828L43.3347 14.205L43.3346 15.0449C43.3343 15.3873 43.3339 15.7643 43.5169 16.1762C43.6721 16.5256 43.9402 16.8626 44.3344 17.2719L44.3346 19.6144C43.2468 20.2316 42.6313 20.5166 41.9988 20.6648C41.3989 20.8054 40.7605 20.8298 39.6518 20.834C39.6605 20.7238 39.665 20.6124 39.665 20.5C39.665 18.1997 37.8002 16.335 35.5 16.335C33.1997 16.335 31.335 18.1997 31.335 20.5C31.335 20.6127 31.3394 20.7243 31.3482 20.8348H14.6517C14.6605 20.7243 14.665 20.6127 14.665 20.5C14.665 18.1997 12.8002 16.335 10.5 16.335C8.19969 16.335 6.33496 18.1997 6.33496 20.5C6.33496 20.6124 6.33941 20.7237 6.34815 20.8338C5.74844 20.831 5.37963 20.8201 5.02318 20.7771C4.64928 20.7321 4.28101 20.6508 3.66496 20.4892V16.6701C3.6766 16.612 3.82433 16.1762 5.1653 15.6872C6.82437 15.0821 10.2799 14.4983 16.6749 14.4983L17.6877 15.0039ZM10.5 17.665C12.0657 17.665 13.335 18.9342 13.335 20.5C13.335 22.0657 12.0657 23.335 10.5 23.335C8.93423 23.335 7.66496 22.0657 7.66496 20.5C7.66496 18.9342 8.93423 17.665 10.5 17.665ZM35.5 17.665C37.0657 17.665 38.335 18.9342 38.335 20.5C38.335 22.0657 37.0657 23.335 35.5 23.335C33.9342 23.335 32.665 22.0657 32.665 20.5C32.665 18.9342 33.9342 17.665 35.5 17.665Z" fill="#000000" class="bmwfcol"/><title>car-model-sedan_lt_48</title></svg>