<svg width="48" height="48" viewBox="0 0 32 32" xmlns="http://www.w3.org/2000/svg"><path d="M9.08953 6.82519C10.4177 6.24232 11.5099 6.13367 16 6.13367C20.49 6.13367 21.5838 6.24228 22.9108 6.8253C23.3764 7.0306 23.8033 7.40724 24.1707 7.81123C24.5466 8.22448 24.9036 8.71481 25.2228 9.20617C25.5369 9.68975 25.8228 10.1874 26.0621 10.6361C26.4649 10.3481 26.8762 10.1813 27.4369 10.095C28.0409 10.002 28.8418 10.0004 30 10.0004V11.3334C28.7968 11.3334 28.1184 11.3387 27.6397 11.4124C27.2197 11.4771 26.9875 11.589 26.6906 11.8338C27.449 12.5306 28.1296 13.1857 28.6778 13.8543C29.2115 14.5053 29.6665 15.2511 29.6665 16.0502V25.6667H23.6669V23.4702C18.7271 23.4668 13.273 23.4668 8.33319 23.4702V25.6667H2.33353V16.0502C2.33353 15.2511 2.78851 14.5053 3.32227 13.8543C3.87041 13.1857 4.55127 12.5308 5.30959 11.834C5.0122 11.589 4.77996 11.4771 4.36002 11.4124C3.88139 11.3387 3.20316 11.3334 2.00003 11.3334V10.0004C3.15823 10.0004 3.95899 10.002 4.56286 10.095C5.12363 10.1813 5.53482 10.3482 5.93771 10.6361C6.17706 10.1872 6.46301 9.68912 6.77721 9.20526C7.09641 8.71372 7.45349 8.22323 7.82939 7.81003C8.19683 7.40613 8.62336 7.02983 9.08953 6.82519ZM9.62528 8.04578C9.41113 8.13982 9.13462 8.35617 8.81542 8.70704C8.50465 9.04865 8.19132 9.4752 7.89518 9.93124C7.61741 10.359 7.36243 10.8008 7.14642 11.2026C7.52051 11.1499 7.9542 11.1098 8.45718 11.0787C10.0418 10.9805 12.4188 10.9657 16 10.9657C19.5813 10.9657 21.9583 10.9805 23.5429 11.0787C24.0458 11.1098 24.4794 11.1499 24.8534 11.2026C24.6375 10.8011 24.3826 10.3598 24.1049 9.93233C23.8088 9.47645 23.4954 9.0499 23.1846 8.70808C22.8656 8.35732 22.589 8.14041 22.3743 8.04559C21.3495 7.59537 20.551 7.46667 16 7.46667C11.449 7.46667 10.6517 7.59534 9.62528 8.04578ZM6.20223 12.8387C5.46285 13.5192 4.81833 14.132 4.35311 14.6994C4.22547 14.8551 4.118 14.9996 4.02878 15.1337H10V16.4667H3.66653V24.3337H7.00019V22.1382L7.6662 22.1377C12.9999 22.1337 19.0002 22.1337 24.3339 22.1377L24.9999 22.1382V24.3337H28.3335V16.4667H22V15.1337H27.9713C27.8821 14.9996 27.7746 14.8551 27.6469 14.6994C27.1818 14.132 26.5371 13.5191 25.7978 12.8387C25.6904 12.7678 25.5039 12.6848 25.1662 12.6097C24.7763 12.523 24.233 12.4568 23.4645 12.4092C21.9276 12.3141 19.5946 12.2987 16 12.2987C12.4055 12.2987 10.0725 12.3141 8.53557 12.4092C7.76707 12.4568 7.22378 12.523 6.83387 12.6097C6.49606 12.6848 6.30962 12.7678 6.20223 12.8387Z" fill="#000000" class="bmwfcol"/><title>car-rear_lt_48</title></svg>