<svg width="48" height="48" viewBox="0 0 32 32" xmlns="http://www.w3.org/2000/svg"><path d="M19.1173 10L22.4523 6.66502L15.002 6.66502V5.33502L22.4524 5.33502L19.1174 2H20.8852L24.8851 5.99997L20.8851 10H19.1173Z" fill="#000000" class="bmwfcol"/><path d="M9.55191 10.665L12.8869 14H11.1192L7.11914 9.99997L11.1191 6H12.8869L9.5519 9.33498H17.002V10.665H9.55191Z" fill="#000000" class="bmwfcol"/><path d="M2 28.6696C3.76352 28.6507 5.53252 28.5818 7.33594 28.4628V29.665H12.6659V21.0428C12.6659 20.3236 12.2574 19.6626 11.7972 19.1012C11.3392 18.5426 10.729 17.9655 10.1034 17.3897C10.2691 17.2993 10.4796 17.2406 10.8086 17.2061C11.3025 17.1543 11.9594 17.165 12.9992 17.165V15.835C12.015 15.835 11.2539 15.8221 10.6698 15.8833C10.2316 15.9293 9.84793 16.0204 9.49565 16.2064C9.30606 15.8476 9.0864 15.4578 8.8475 15.0771C8.57299 14.6397 8.2644 14.2002 7.93805 13.8294C7.62109 13.4694 7.24235 13.1223 6.81928 12.9357C5.77013 12.4748 5.00534 12.3558 2 12.3376V13.668C4.99996 13.6878 5.50454 13.8108 6.284 14.1533C6.44403 14.224 6.66843 14.4 6.93974 14.7082C7.20197 15.0061 7.46803 15.381 7.72095 15.7841C7.96252 16.1691 8.18423 16.567 8.37136 16.9262C8.12364 16.9023 7.85171 16.8847 7.5533 16.8714C6.34714 16.8177 4.58135 16.8308 2 16.8343V18.1644C3.83044 18.1619 5.66514 18.1186 7.49414 18.2001C8.15176 18.2294 8.59746 18.278 8.90967 18.3493C9.21646 18.4192 9.34381 18.5001 9.40883 18.5601C9.95101 19.0636 10.4202 19.5194 10.7687 19.9444C10.878 20.0777 10.9688 20.2001 11.0432 20.3124C9.89846 20.5935 8.70006 20.7371 7 20.8576V22.1909C8.76606 22.0681 10.0685 21.9189 11.3359 21.6099V28.335H8.66594V27.0347L7.95259 27.0867C5.93352 27.2339 3.96322 27.3182 2 27.3395V28.6696Z" fill="#000000" class="bmwfcol"/><path d="M2 25.665H4.45873L5.66594 23.6869L5.66594 20.9745L4.77639 20.085H2V21.4939L2.15792 21.415H4.22548L4.33594 21.5254L4.33594 23.3131L3.71229 24.335H2.02639L2 24.3086V25.665Z" fill="#000000" class="bmwfcol"/><path d="M25.1828 12.9357C26.2326 12.475 26.9963 12.3559 30 12.3377V13.668C27.0017 13.6879 26.498 13.811 25.7173 14.1535C25.5579 14.2236 25.3336 14.399 25.0621 14.7074C24.7999 15.0051 24.5339 15.38 24.281 15.7832C24.0394 16.1683 23.8177 16.5665 23.6305 16.9258C23.8773 16.9021 24.148 16.8847 24.4449 16.8714C25.6521 16.8177 27.4175 16.8308 30 16.8344V18.1644C27.4011 18.1609 25.6768 18.1479 24.5041 18.2001C23.846 18.2294 23.3999 18.2781 23.0873 18.3493C22.8292 18.4082 22.698 18.4747 22.6242 18.5299C22.0686 19.0451 21.5884 19.5113 21.2332 19.9445C21.1239 20.0778 21.0331 20.2002 20.9586 20.3125C22.1029 20.5935 23.3009 20.7371 25 20.8575V22.1908C23.2349 22.068 21.9329 21.9189 20.6659 21.61V28.335H23.3359V27.0348C25.5548 27.1965 27.7749 27.3153 30 27.3396V28.6697C28.2371 28.6507 26.4687 28.5818 24.6659 28.4628V29.665H19.3359V21.0429C19.3359 20.3236 19.7444 19.6626 20.2047 19.1012C20.6109 18.6057 21.137 18.0957 21.6873 17.5849C21.7573 17.5202 21.8273 17.4554 21.8974 17.3907C21.7313 17.2997 21.5204 17.2408 21.1904 17.2061C20.6967 17.1543 20.0393 17.1651 19 17.1651V15.8351C19.9838 15.8351 20.7453 15.8221 21.3292 15.8834C21.7683 15.9295 22.1526 16.0208 22.5054 16.2075C22.6952 15.8482 22.9151 15.4577 23.1543 15.0764C23.4288 14.6388 23.7375 14.1991 24.0639 13.8284C24.3809 13.4685 24.7591 13.1217 25.1828 12.9357Z" fill="#000000" class="bmwfcol"/><path d="M27.2255 20.085H30V21.4931L29.844 21.415H27.7764L27.6659 21.5255V23.3067L28.319 24.335H29.9755L30 24.3105V25.665H27.5881L26.3359 23.6933V20.9746L27.2255 20.085Z" fill="#000000" class="bmwfcol"/><title>car-compare_lt_48</title></svg>