<svg width="48" height="48" viewBox="0 0 32 32" xmlns="http://www.w3.org/2000/svg"><path d="M10.2329 9.23698C12.9479 7.9839 15.9025 7.33496 18.8927 7.33496H25C26.4718 7.33496 27.665 8.52812 27.665 9.99996V11C27.665 11.9195 26.9196 12.665 26 12.665H22.665V13.8329C22.9143 13.9099 23.1602 13.9961 23.4057 14.0913C24.6135 14.5599 25.7999 15.2471 27.2896 16.11L27.4376 16.1957L29.6649 16.3905L29.665 17.9999C29.665 18.2438 29.6687 18.3811 29.7424 18.5655C29.8216 18.7633 30.005 19.0645 30.4702 19.5297L30.665 19.7244L30.6652 22.3838L30.3327 22.5758C29.4695 23.0742 28.8992 23.3679 28.3253 23.5182C27.8829 23.6341 27.4579 23.6585 26.9442 23.6636C26.4805 24.8358 25.3371 25.6649 24 25.6649C22.6634 25.6649 21.5203 24.8364 21.0563 23.6649H9.94369C9.47967 24.8364 8.33659 25.6649 6.99999 25.6649C5.65737 25.6649 4.51001 24.8289 4.05006 23.6491C3.93213 23.6385 3.80169 23.621 3.64335 23.5918C3.27586 23.5242 2.75025 23.3928 1.82788 23.1456L1.33496 23.0135L1.33521 18.616L1.70098 18.4048C2.91526 17.7037 3.61276 17.301 4.83781 17.0287C5.99181 16.7722 7.63348 16.6267 10.7341 16.3557C12.2134 15.1242 13.29 14.3702 14.335 13.9275V12.665H8.43866C7.82913 12.665 7.335 12.1708 7.335 11.5613C7.335 10.9597 7.68479 10.413 8.231 10.1609L10.2329 9.23698ZM18.8927 8.66496C16.095 8.66496 13.3305 9.27214 10.7902 10.4446L8.86106 11.335H26C26.185 11.335 26.335 11.185 26.335 11V9.99996C26.335 9.26266 25.7373 8.66496 25 8.66496H18.8927ZM15.665 12.665V13.5211C16.6174 13.3348 17.628 13.3348 18.919 13.3349L19 13.3349C19.8701 13.3349 20.6312 13.3947 21.335 13.5153V12.665H15.665ZM27.1605 22.3291C27.5095 22.3197 27.7456 22.2952 27.9883 22.2316C28.317 22.1456 28.6823 21.98 29.3352 21.6136L29.335 20.2689C28.9163 19.8209 28.6565 19.4319 28.5075 19.0594C28.3348 18.6276 28.3349 18.2706 28.335 18.0154L28.335 17.6093L27.0272 17.4948L26.6685 17.2872C25.1334 16.3984 24.0329 15.7612 22.9246 15.3312C21.7882 14.8903 20.6325 14.6649 19 14.6649C17.2212 14.6649 16.2326 14.6717 15.2402 15.0053C14.2515 15.3376 13.2076 16.0158 11.4276 17.5094L11.267 17.6441L11.0581 17.6624C7.77029 17.9498 6.19705 18.0891 5.12637 18.327C4.20773 18.5312 3.67881 18.8026 2.66517 19.3843L2.66502 21.9918C3.24753 22.1447 3.59753 22.2289 3.84279 22.276C3.95765 20.6325 5.32728 19.3349 6.99999 19.3349C8.69263 19.3349 10.0749 20.6636 10.1608 22.3349H20.8392C20.9251 20.6636 22.3074 19.3349 24 19.3349C25.6907 19.3349 27.0717 20.6606 27.1605 22.3291ZM6.99999 20.6649C5.98655 20.6649 5.16499 21.4865 5.16499 22.4999C5.16499 23.5134 5.98655 24.3349 6.99999 24.3349C8.01343 24.3349 8.83499 23.5134 8.83499 22.4999C8.83499 21.4865 8.01343 20.6649 6.99999 20.6649ZM24 20.6649C22.9865 20.6649 22.165 21.4865 22.165 22.4999C22.165 23.5134 22.9865 24.3349 24 24.3349C25.0134 24.3349 25.835 23.5134 25.835 22.4999C25.835 21.4865 25.0134 20.6649 24 20.6649Z" fill="#000000" class="bmwfcol"/><title>car_side_roof_box_lt_48</title></svg>