<svg width="48" height="48" viewBox="0 0 32 32" xmlns="http://www.w3.org/2000/svg"><path d="M22.5367 4.59627C22.1087 4.16823 21.594 3.86816 20.9998 3.86816C20.4057 3.86816 19.891 4.16823 19.4629 4.59627L17.5963 6.46294C17.1682 6.89098 16.8682 7.4057 16.8682 7.99983C16.8682 8.59396 17.1682 9.10869 17.5963 9.53672L19.4629 11.4034C19.891 11.8314 20.4057 12.1315 20.9998 12.1315C21.594 12.1315 22.1087 11.8314 22.5367 11.4034L24.4034 9.53672C24.8314 9.10869 25.1315 8.59396 25.1315 7.99983C25.1315 7.4057 24.8314 6.89098 24.4034 6.46294L22.5367 4.59627ZM20.4034 5.53672C20.6865 5.25365 20.8828 5.19816 20.9998 5.19816C21.1168 5.19816 21.3132 5.25365 21.5963 5.53672L23.4629 7.40339C23.746 7.68646 23.8015 7.88285 23.8015 7.99983C23.8015 8.11681 23.746 8.3132 23.4629 8.59627L21.5963 10.4629C21.3132 10.746 21.1168 10.8015 20.9998 10.8015C20.8828 10.8015 20.6865 10.746 20.4034 10.4629L18.5367 8.59627C18.2537 8.3132 18.1982 8.11681 18.1982 7.99983C18.1982 7.88285 18.2537 7.68646 18.5367 7.40339L20.4034 5.53672Z" fill="#000000" class="bmwfcol"/><path d="M25.1996 11.7349C25.7048 11.7349 26.1306 11.9905 26.4698 12.3296L27.8698 13.7296C28.209 14.0687 28.4646 14.4945 28.4646 14.9998C28.4646 15.505 28.209 15.9308 27.8698 16.27L26.4698 17.6699C26.1306 18.0091 25.7048 18.2647 25.1996 18.2647C24.6943 18.2647 24.2685 18.0091 23.9294 17.6699L22.5294 16.27C22.1902 15.9308 21.9346 15.505 21.9346 14.9998C21.9346 14.4945 22.1902 14.0687 22.5294 13.7296L23.9294 12.3296C24.2685 11.9905 24.6943 11.7349 25.1996 11.7349ZM25.1996 13.0649C25.1715 13.0649 25.064 13.0759 24.8698 13.2701L23.4698 14.67C23.2756 14.8642 23.2646 14.9717 23.2646 14.9998C23.2646 15.0279 23.2756 15.1353 23.4698 15.3295L24.8698 16.7295C25.064 16.9236 25.1715 16.9347 25.1996 16.9347C25.2277 16.9347 25.3352 16.9236 25.5294 16.7295L26.9294 15.3295C27.1235 15.1353 27.1346 15.0279 27.1346 14.9998C27.1346 14.9717 27.1235 14.8642 26.9294 14.67L25.5294 13.2701C25.3352 13.0759 25.2277 13.0649 25.1996 13.0649Z" fill="#000000" class="bmwfcol"/><path d="M28.3296 18.6088L28.335 18.6093L28.335 19.0155C28.3349 19.2706 28.3348 19.6276 28.5075 20.0594C28.6565 20.4319 28.9163 20.8209 29.335 21.269L29.3352 22.6136C28.6823 22.9801 28.317 23.1456 27.9883 23.2317C27.7456 23.2952 27.5095 23.3198 27.1604 23.3292C27.0717 21.6606 25.6906 20.335 24 20.335C22.3073 20.335 20.925 21.6637 20.8392 23.335H10.1607C10.0749 21.6637 8.6926 20.335 6.99996 20.335C5.32725 20.335 3.95762 21.6326 3.84276 23.2761C3.5975 23.2289 3.2475 23.1448 2.66502 22.9919L2.66517 20.3843C3.67881 19.8026 4.20773 19.5312 5.12637 19.3271C6.19705 19.0891 7.77029 18.9499 11.0581 18.6624L11.267 18.6442L11.4276 18.5094C13.2076 17.0158 14.2515 16.3377 15.2402 16.0053C16.2326 15.6717 17.2212 15.665 19 15.665C19.5614 15.665 20.0665 15.6916 20.5337 15.7445C20.4743 15.5132 20.44 15.2648 20.44 14.9998C20.44 14.7906 20.4614 14.5918 20.4996 14.4036C20.0332 14.3577 19.5374 14.335 19 14.335L18.919 14.335C17.2402 14.3349 16.0356 14.3348 14.8164 14.7446C13.6117 15.1496 12.441 15.9348 10.7341 17.3557C7.63347 17.6268 5.99181 17.7723 4.83781 18.0287C3.61276 18.301 2.91526 18.7037 1.70098 19.4048L1.33521 19.616L1.33496 24.0136L1.82788 24.1457C2.75025 24.3928 3.27586 24.5242 3.64335 24.5919C3.80167 24.621 3.93211 24.6386 4.05004 24.6491C4.50998 25.829 5.65734 26.665 6.99996 26.665C8.33656 26.665 9.47964 25.8364 9.94366 24.665H21.0563C21.5203 25.8364 22.6634 26.665 24 26.665C25.3371 26.665 26.4805 25.8358 26.9442 24.6637C27.4578 24.6586 27.8829 24.6341 28.3253 24.5183C28.8992 24.368 29.4695 24.0742 30.3327 23.5759L30.6652 23.3839L30.665 20.7245L30.4702 20.5297C30.005 20.0645 29.8216 19.7633 29.7424 19.5655C29.6687 19.3812 29.665 19.2439 29.665 18.9999L29.6649 17.3906L29.5323 17.379H28.8876L28.3296 17.9369V18.6088ZM5.16496 23.5C5.16496 22.4865 5.98652 21.665 6.99996 21.665C8.0134 21.665 8.83496 22.4865 8.83496 23.5C8.83496 24.5134 8.0134 25.335 6.99996 25.335C5.98652 25.335 5.16496 24.5134 5.16496 23.5ZM22.165 23.5C22.165 22.4865 22.9865 21.665 24 21.665C25.0134 21.665 25.835 22.4865 25.835 23.5C25.835 24.5134 25.0134 25.335 24 25.335C22.9865 25.335 22.165 24.5134 22.165 23.5Z" fill="#000000" class="bmwfcol"/><title>car_with_rhombuses_lt_48</title></svg>