<svg width="48" height="48" viewBox="0 0 32 32" xmlns="http://www.w3.org/2000/svg"><path d="M16.665 6V2H15.335V6H16.665Z" fill="#000000" class="bmwfcol"/><path d="M22.5759 7.67209L24.5759 4.20799L23.4241 3.54299L21.4241 7.00709L22.5759 7.67209Z" fill="#000000" class="bmwfcol"/><path d="M10.5759 7.00709L8.57589 3.54299L7.42407 4.20799L9.42407 7.67209L10.5759 7.00709Z" fill="#000000" class="bmwfcol"/><path d="M7.42407 27.7976L9.42407 24.3335L10.5759 24.9985L8.57589 28.4626L7.42407 27.7976Z" fill="#000000" class="bmwfcol"/><path d="M21.4241 24.9985L23.4241 28.4626L24.5759 27.7976L22.5759 24.3335L21.4241 24.9985Z" fill="#000000" class="bmwfcol"/><path d="M15.335 30.0056V26.0056H16.665V30.0056H15.335Z" fill="#000000" class="bmwfcol"/><path d="M9.75336 12.2846C9.89207 12.0239 10.051 11.7434 10.2232 11.4689C10.4318 11.1364 10.6686 10.7985 10.9215 10.5114C11.1649 10.235 11.4678 9.95348 11.8186 9.79948C12.2271 9.62021 12.5471 9.49039 13.1596 9.41908C13.7252 9.35323 14.554 9.33496 15.999 9.33496C18.6384 9.33496 19.2773 9.40312 20.1796 9.79956C20.5298 9.95398 20.8332 10.2357 21.0766 10.5122C21.3294 10.7993 21.5661 11.1371 21.7747 11.4695C21.9469 11.7438 22.1058 12.0241 22.2445 12.2846C22.5463 12.1141 22.8719 12.0352 23.2346 11.9971C23.6149 11.9572 24.0918 11.9583 24.6725 11.9595C24.7779 11.9598 24.8867 11.96 24.999 11.96V13.29C24.8774 13.29 24.7623 13.2898 24.6547 13.2896C24.0664 13.2887 23.6769 13.288 23.3734 13.3199C23.2248 13.3355 23.1157 13.3574 23.03 13.3856L22.9796 13.4401C23.346 13.784 23.6962 14.1307 23.9747 14.4705C24.3248 14.8974 24.664 15.4319 24.664 16.0321V22.665H20.334V21.665H11.664V22.665H7.33402V16.0321C7.33402 15.4319 7.67323 14.8974 8.02326 14.4705C8.30146 14.1311 8.65113 13.7848 9.01707 13.4414L8.96456 13.3845C8.87933 13.3568 8.77109 13.3353 8.62445 13.3199C8.32101 13.288 7.93157 13.2887 7.34336 13.2896C7.23553 13.2898 7.12091 13.29 6.99902 13.29V11.96C7.11131 11.96 7.22039 11.9598 7.32577 11.9595C7.90647 11.9583 8.38302 11.9572 8.76326 11.9972C9.12606 12.0352 9.45155 12.1141 9.75336 12.2846ZM13.3134 10.7402C12.885 10.79 12.7015 10.8645 12.3531 11.0173C12.2665 11.0554 12.1176 11.1655 11.9196 11.3903C11.7311 11.6045 11.5369 11.8776 11.3499 12.1757C11.2323 12.3632 11.121 12.555 11.0191 12.7401L11.0754 12.7375C11.8531 12.7029 12.9378 12.7051 14.4452 12.7081C14.92 12.709 15.4367 12.7101 15.999 12.7101C16.5613 12.7101 17.078 12.709 17.5528 12.7081C19.0599 12.7051 20.1442 12.7029 20.9214 12.7375L20.9787 12.7401C20.8769 12.5553 20.7657 12.3637 20.6482 12.1764C20.4612 11.8784 20.267 11.6053 20.0783 11.391C19.8805 11.1663 19.7314 11.0556 19.6441 11.017C19.0348 10.7493 18.6712 10.665 15.999 10.665C14.5379 10.665 13.7886 10.6848 13.3134 10.7402ZM22.9462 15.3137C22.6615 14.9664 22.2636 14.5868 21.7929 14.1533C21.5787 14.1139 21.2821 14.0849 20.8623 14.0662C20.1187 14.0331 19.0797 14.0351 17.5862 14.0381C17.106 14.039 16.5785 14.0401 15.999 14.0401C15.4201 14.0401 14.8933 14.039 14.4134 14.0381L14.4118 14.0381C12.918 14.0351 11.8786 14.0331 11.1345 14.0662C10.716 14.0848 10.4198 14.1137 10.2056 14.1529C9.73464 14.5865 9.33658 14.9663 9.05178 15.3137L9.03446 15.335H11.999V16.665H8.66402V21.335H10.334V20.335H21.664V21.335H23.334V16.665H19.999V15.335H22.9635L22.9462 15.3137Z" fill="#000000" class="bmwfcol"/><title>car_rear_rays_lt_48</title></svg>