<svg width="72" height="48" viewBox="0 0 48 32" xmlns="http://www.w3.org/2000/svg"><path d="M25.4232 8.68594C23.6834 8.68594 22.3546 8.93428 20.9023 9.64873C19.5264 10.3256 18.0588 11.4129 16.0263 13.031C11.1729 13.0498 7.86208 13.6545 5.73778 14.31C4.65974 14.6426 3.88063 14.9904 3.3583 15.286C2.9393 15.5231 2.33496 15.8523 2.33496 16.4089V21.5092C3.16912 21.7346 4.00412 21.9941 4.86417 22.0977C5.36742 22.1583 5.8832 22.1643 6.681 22.1648C7.32343 23.6365 8.79157 24.6651 10.5 24.6651C12.2083 24.6651 13.6765 23.6365 14.3189 22.1649H31.681C32.3235 23.6365 33.7916 24.6651 35.5 24.6651C37.2083 24.6651 38.6765 23.6365 39.3189 22.1649C40.6111 22.1643 41.4767 22.1533 42.3022 21.9599C43.5159 21.6755 44.5963 21.0007 45.6647 20.3838L45.6643 16.7244C45.3357 16.3958 44.9237 16.067 44.7323 15.6363C44.6119 15.3652 44.6646 15.0253 44.6646 14.7337L45.1646 13.9417V12.2495C43.9863 12.0931 42.8508 11.7759 41.7434 11.3413C40.8835 11.0037 39.4749 10.4508 37.4817 9.95622C34.7783 9.28539 30.9104 8.68594 25.4232 8.68594ZM39.6518 20.834C39.6605 20.7239 39.665 20.6125 39.665 20.5001C39.665 18.1998 37.8002 16.3351 35.5 16.3351C33.1997 16.3351 31.335 18.1998 31.335 20.5001C31.335 20.6128 31.3394 20.7244 31.3482 20.8349H14.6517C14.6605 20.7244 14.665 20.6128 14.665 20.5001C14.665 18.1998 12.8002 16.3351 10.5 16.3351C8.19969 16.3351 6.33496 18.1998 6.33496 20.5001C6.33496 20.6124 6.33941 20.7238 6.34815 20.8339C5.11937 20.8282 4.8683 20.8049 3.66496 20.4893L3.66496 16.6641C4.38311 16.1378 5.29119 15.8396 6.12993 15.5808C8.09579 14.9742 11.2498 14.3856 15.9568 14.3614L17.3398 14.9049C24.693 14.7113 32.2433 14.4844 39.5316 13.4167C39.5316 12.8057 39.3265 12.271 38.952 11.749C39.8863 12.0434 40.5905 12.32 41.1463 12.5383C42.022 12.8823 42.9168 13.168 43.8346 13.3788V13.557L43.3346 14.349L43.3346 15.0449C43.3342 15.3874 43.3339 15.7643 43.5169 16.1763C43.6721 16.5257 43.9402 16.8627 44.3344 17.272L44.3346 19.6144C43.2468 20.2317 42.6313 20.5167 41.9988 20.6649C41.3989 20.8055 40.7604 20.8299 39.6518 20.834ZM17.4932 13.5677C19.1744 12.2488 20.3965 11.3798 21.4894 10.8421C22.7212 10.2361 23.8402 10.0159 25.4232 10.0159C25.9198 10.0159 26.4025 10.0209 26.8717 10.0305L26.0002 13.2829C23.4943 13.3967 20.6473 13.4843 17.4932 13.5677ZM27.3952 13.2155L28.2374 10.0725C29.5998 10.1288 30.8381 10.2245 31.9626 10.3475L32.8712 12.8439C31.1546 12.9947 29.3522 13.1148 27.3952 13.2155ZM34.2398 12.7154L33.4457 10.5337C34.6331 10.7027 35.6735 10.9009 36.5834 11.1093C36.9569 11.5063 37.3447 11.8927 37.6987 12.3074C36.563 12.4626 35.418 12.5973 34.2398 12.7154ZM10.5 17.6651C12.0657 17.6651 13.335 18.9343 13.335 20.5001C13.335 22.0658 12.0657 23.3351 10.5 23.3351C8.93423 23.3351 7.66496 22.0658 7.66496 20.5001C7.66496 18.9343 8.93423 17.6651 10.5 17.6651ZM35.5 17.6651C37.0657 17.6651 38.335 18.9343 38.335 20.5001C38.335 22.0658 37.0657 23.3351 35.5 23.3351C33.9342 23.3351 32.665 22.0658 32.665 20.5001C32.665 18.9343 33.9342 17.6651 35.5 17.6651Z" fill="#000000" class="bmwfcol"/><title>car-model-gt_lt_48</title></svg>