<svg width="48" height="48" viewBox="0 0 32 32" xmlns="http://www.w3.org/2000/svg"><path d="M13 15.665C10.9758 15.665 9.33496 14.0241 9.33496 12C9.33496 9.97588 10.9758 8.335 13 8.335C13.1124 8.335 13.2236 8.34006 13.3335 8.34997C13.5197 7.61544 13.7014 6.91144 13.8578 6.32792C14.0121 5.75184 14.1559 5.28231 14.3178 4.91214C14.4809 4.53924 14.6845 4.21419 14.9876 3.9766C15.2977 3.73362 15.6443 3.63488 15.9905 3.59045C16.3114 3.54926 16.6878 3.54929 17.0882 3.54932L17.1219 3.54932V4.87932C16.6778 4.87932 16.3865 4.88054 16.1598 4.90963C15.9494 4.93662 15.8625 4.98074 15.808 5.02347C15.7466 5.0716 15.6544 5.17512 15.5363 5.44507C15.4424 5.6599 15.3463 5.94606 15.2354 6.33496L21.2975 6.33496L22.6098 8.60785C23.0385 8.43197 23.5079 8.335 24 8.335C26.0241 8.335 27.665 9.97588 27.665 12C27.665 14.0241 26.0241 15.665 24 15.665L22.665 15.665V16.8329C22.9143 16.91 23.1602 16.9961 23.4057 17.0913C24.6135 17.56 25.7999 18.2471 27.2896 19.11L27.4376 19.1957L29.6649 19.3906L29.665 20.9999C29.665 21.2439 29.6687 21.3812 29.7424 21.5655C29.8216 21.7633 30.005 22.0645 30.4702 22.5297L30.665 22.7245L30.6652 25.3839L30.3327 25.5759C29.4695 26.0742 28.8992 26.368 28.3253 26.5183C27.8829 26.6341 27.4579 26.6586 26.9442 26.6637C26.4805 27.8358 25.3371 28.665 24 28.665C22.6634 28.665 21.5203 27.8364 21.0563 26.665H9.94369C9.47967 27.8364 8.33659 28.665 6.99999 28.665C5.65737 28.665 4.51001 27.829 4.05006 26.6491C3.93213 26.6386 3.80169 26.621 3.64335 26.5919C3.27586 26.5242 2.75025 26.3928 1.82788 26.1457L1.33496 26.0136L1.33521 21.616L1.70098 21.4048C2.91526 20.7037 3.61276 20.301 4.83781 20.0287C5.99181 19.7723 7.63348 19.6268 10.7341 19.3557C12.2134 18.1242 13.29 17.3703 14.335 16.9275V15.665L13 15.665ZM12.3049 12.4996C12.4158 12.0442 12.5608 11.4513 12.7223 10.7969C12.8118 10.4345 12.9063 10.0529 13.003 9.66501L13 9.665C11.7104 9.665 10.665 10.7104 10.665 12C10.665 13.2896 11.7104 14.335 13 14.335H13.0021C14.2907 14.3338 15.335 13.2889 15.335 12C15.335 11.1825 14.9149 10.4631 14.2788 10.046C14.1876 10.4119 14.0984 10.7721 14.0136 11.1156C13.8875 11.6266 13.7714 12.1001 13.6739 12.4996H12.3049ZM15.665 16.5212C16.6174 16.3348 17.628 16.3349 18.919 16.335L19 16.335C19.8701 16.335 20.6312 16.3947 21.335 16.5153V15.665H15.665V16.5212ZM15.825 14.335H21.1749C20.7633 13.8375 20.4805 13.2294 20.3778 12.5619H19.3263C18.7235 12.5619 18.1677 12.236 17.8733 11.7099L15.6103 7.66497L14.8816 7.66496C14.7953 7.99851 14.7055 8.35001 14.6146 8.70891C15.8291 9.30588 16.665 10.5553 16.665 12C16.665 12.8873 16.3497 13.7009 15.825 14.335ZM23.9978 14.335L24 14.335C25.2895 14.335 26.335 13.2896 26.335 12C26.335 10.7104 25.2895 9.665 24 9.665C23.7504 9.665 23.51 9.70415 23.2846 9.77663L24.8569 12.5H23.3211L22.1846 10.5314C21.9785 10.7858 21.8248 11.0844 21.74 11.4107V12.5619H21.733C21.9844 13.5794 22.9029 14.334 23.9978 14.335ZM20.4156 11.2319C20.5739 10.4895 20.9571 9.83027 21.4904 9.32899L20.8147 8.15873L19.7903 11.2319H20.4156ZM18.6652 10.4014L19.5774 7.66497L17.1343 7.66497L18.6652 10.4014ZM27.9883 25.2317C28.317 25.1456 28.6823 24.9801 29.3352 24.6136L29.335 23.269C28.9163 22.8209 28.6565 22.4319 28.5075 22.0594C28.3348 21.6276 28.3349 21.2706 28.335 21.0155L28.335 20.6093L27.0272 20.4949L26.6685 20.2873C25.1334 19.3985 24.0329 18.7613 22.9246 18.3313C21.7882 17.8904 20.6325 17.665 19 17.665C17.2212 17.665 16.2326 17.6717 15.2402 18.0053C14.2515 18.3377 13.2076 19.0158 11.4276 20.5094L11.267 20.6442L11.0581 20.6624C7.77029 20.9499 6.19705 21.0891 5.12637 21.3271C4.20773 21.5312 3.67881 21.8026 2.66517 22.3843L2.66502 24.9919C3.24753 25.1448 3.59753 25.2289 3.84279 25.2761C3.95765 23.6326 5.32728 22.335 6.99999 22.335C8.69263 22.335 10.0749 23.6637 10.1608 25.335H20.8392C20.9251 23.6637 22.3074 22.335 24 22.335C25.6907 22.335 27.0717 23.6606 27.1605 25.3292C27.5095 25.3198 27.7456 25.2952 27.9883 25.2317ZM5.16499 25.5C5.16499 26.5134 5.98655 27.335 6.99999 27.335C8.01343 27.335 8.83499 26.5134 8.83499 25.5C8.83499 24.4865 8.01343 23.665 6.99999 23.665C5.98655 23.665 5.16499 24.4865 5.16499 25.5ZM22.165 25.5C22.165 26.5134 22.9865 27.335 24 27.335C25.0134 27.335 25.835 26.5134 25.835 25.5C25.835 24.4865 25.0134 23.665 24 23.665C22.9865 23.665 22.165 24.4865 22.165 25.5Z" fill="#000000" class="bmwfcol"/><path d="M19 5.66598H22.4285V4.33598H19V5.66598Z" fill="#000000" class="bmwfcol"/><title>car_side_roof_bike_rack_lt_48</title></svg>