<svg width="48" height="48" viewBox="0 0 32 32" xmlns="http://www.w3.org/2000/svg"><path d="M21 24.335H24.9996C26.3223 24.335 27.111 24.0492 27.5801 23.5803C28.0491 23.1111 28.3348 22.3224 28.3349 20.9997C28.3348 19.6867 28.0526 18.9004 27.5898 18.4303L27.4262 18.2666C26.7392 18.8043 25.9153 19.113 24.9043 18.935C23.7405 18.7299 22.4553 17.896 20.9303 16.3711L20.46 15.9008L20.9296 15.4299L21.5842 14.7753L19.4298 12.6208L20.371 11.6796L22.5254 13.8341L23.834 12.5255L21.6795 10.371L22.6214 9.42916L24.7752 11.5843L25.4298 10.9297L25.9008 10.4601L26.3717 10.9297C27.8964 12.4545 28.7304 13.74 28.9357 14.9037C29.1038 15.8594 28.8361 16.6479 28.3522 17.3116L28.5338 17.4932C29.3544 18.3237 29.6648 19.5314 29.6649 20.9997C29.6648 22.4763 29.3512 23.69 28.5206 24.5208C27.6899 25.3513 26.4761 25.6649 24.9996 25.665H21V24.335ZM22.35 15.8919C23.5748 17.0299 24.4713 17.5087 25.1363 17.6258C25.8095 17.7439 26.3528 17.5073 26.9303 16.9297C27.5078 16.3522 27.7446 15.8089 27.6264 15.1357C27.5093 14.4707 27.0298 13.5749 25.8918 12.3501L22.35 15.8919Z" fill="#000000" class="bmwfcol"/><path d="M17.613 8.55011L13.0914 4.02849L14.0319 3.08798L18.5535 7.6096V4.30747L19.7025 5.45651V9.12463L19.7032 9.69984L19.128 9.69915H15.4599L14.3108 8.55011H17.613Z" fill="#000000" class="bmwfcol"/><path d="M8.15335 26.3569L7.33507 25.0677V22.9118L7.52911 22.7164L7.90407 22.3414L8.09949 22.1474H10.4073L10.9997 22.4443L11.5929 22.1481L13.9 22.1474L14.0961 22.3421L14.471 22.7171L14.6651 22.9125V25.0615L13.6866 26.6656L11.287 26.6649L11.0916 26.4708L10.9997 26.379L10.9079 26.4708L10.7125 26.6649L8.34877 26.6656L8.15335 26.3569ZM12.9401 25.3349L13.3351 24.6872V23.4774H11.9071L11.6654 23.5989V25.1609L11.8394 25.3349H12.9401ZM10.1614 25.3349L10.3354 25.1609V23.5989L10.0924 23.4774L8.66503 23.4781L8.66572 24.6817L9.07866 25.3349H10.1614Z" fill="#000000" class="bmwfcol"/><path d="M2.33491 23.0327C2.33491 22.4326 2.6741 21.8976 3.02406 21.4707C3.30226 21.1314 3.65246 20.7852 4.01843 20.4418L3.96802 20.3872C3.8823 20.3591 3.77359 20.3351 3.62552 20.3196C3.26649 20.2819 2.78647 20.2906 2 20.2906L2.00069 18.9599C2.73135 18.9599 3.31519 18.9501 3.76431 18.9972C4.12749 19.0353 4.45451 19.1143 4.75661 19.2851C4.89528 19.0245 5.05266 18.7433 5.22479 18.4689C5.43333 18.1365 5.67015 17.7982 5.92292 17.5112C6.16618 17.235 6.4688 16.9539 6.81924 16.7999C7.22766 16.6207 7.54802 16.4901 8.16025 16.4187C8.72588 16.3529 9.55543 16.3352 11.0004 16.3352C13.6392 16.3352 14.2781 16.4037 15.1802 16.7999C15.5304 16.9543 15.8339 17.2368 16.0772 17.5132C16.3299 17.8003 16.5669 18.1374 16.7754 18.4696C16.9474 18.7437 17.1044 19.0248 17.2428 19.2851C17.5451 19.114 17.8718 19.0354 18.2351 18.9972C18.6845 18.95 19.269 18.9599 20.0001 18.9599V20.2899C19.2133 20.2899 18.7331 20.2819 18.3739 20.3196C18.2234 20.3354 18.1135 20.3584 18.0273 20.3872L17.9783 20.4404C18.3452 20.7843 18.6966 21.1307 18.9754 21.4707C19.3254 21.8976 19.6652 22.4319 19.6652 23.032V29.6653L15.3349 29.6646V28.771C12.2932 28.9679 9.70692 28.9685 6.66525 28.7717V29.6653L2.33491 29.6646V23.0327ZM6.07622 19.7374C7.09882 19.6919 8.65261 19.7098 10.9997 19.7098C13.347 19.7098 14.9012 19.6919 15.9232 19.7374C15.9413 19.7383 15.9593 19.7394 15.9771 19.7402C15.8755 19.5558 15.767 19.3635 15.6498 19.1767C15.4629 18.8789 15.268 18.6052 15.0794 18.3909C14.882 18.1667 14.733 18.0553 14.6457 18.0166C14.0363 17.7489 13.6725 17.6652 11.0004 17.6652C9.53977 17.6652 8.79015 17.6851 8.31493 17.7404C7.88669 17.7903 7.70258 17.8645 7.3544 18.0173C7.26783 18.0554 7.11866 18.1655 6.92074 18.3902C6.73217 18.6044 6.53735 18.878 6.35036 19.176C6.23293 19.3633 6.12266 19.5553 6.02098 19.7402C6.03927 19.7393 6.05769 19.7383 6.07622 19.7374ZM5.33528 28.3353V27.3478L6.0486 27.3996C9.58258 27.6572 12.4169 27.6572 15.9509 27.3996L16.6656 27.3478L16.6649 28.3346L18.3353 28.3353V23.6714C17.4953 23.8583 16.6186 23.9608 15.4999 24.0429V22.7088C16.5191 22.6318 17.2881 22.5388 18.0024 22.3829C17.9849 22.3605 17.9665 22.3373 17.9472 22.3138C17.7251 22.0429 17.4337 21.7525 17.093 21.432L16.7947 21.1544C16.5804 21.1149 16.2834 21.0841 15.8632 21.0653C14.8805 21.0216 13.3815 21.0398 10.9997 21.0398C8.61859 21.0398 7.11959 21.0216 6.1363 21.0653C5.71671 21.084 5.41923 21.115 5.20477 21.1544C4.7348 21.5872 4.33738 21.9663 4.05296 22.3131C4.03351 22.3369 4.01468 22.3604 3.99702 22.3829C4.71157 22.5389 5.48043 22.6324 6.50021 22.7095L6.49952 24.0429C5.38104 23.9608 4.50469 23.859 3.66488 23.6721V28.3346L5.33528 28.3353Z" fill="#000000" class="bmwfcol"/><title>car_plug_arrow_down_right_lt_48</title></svg>