<svg width="48" height="48" viewBox="0 0 32 32" xmlns="http://www.w3.org/2000/svg"><path d="M20 17.8576V19.1909C21.7656 19.0681 23.0678 18.9189 24.335 18.61V25.3351H21.665V24.0348L20.9516 24.0868C16.2282 24.4311 11.7717 24.4311 7.04831 24.0868L6.33496 24.0348V25.3351H3.66496V18.61C4.93218 18.9189 6.2344 19.0681 8 19.1909V17.8576C6.30042 17.7372 5.10223 17.5936 3.95766 17.3124C4.03215 17.2002 4.12291 17.0778 4.23222 16.9445C4.58649 16.5124 5.06516 16.0475 5.61897 15.5339C5.69178 15.4778 5.82302 15.4095 6.08743 15.3492C6.4 15.278 6.84615 15.2293 7.50419 15.2C8.50189 15.1556 9.8954 15.1584 11.8895 15.1624C12.5289 15.1636 13.2304 15.165 14.0001 15.165C14.17 15.165 14.3366 15.165 14.5 15.1649V13.8348C14.3364 13.835 14.1698 13.835 14.0001 13.835C13.2475 13.835 12.5568 13.8337 11.9228 13.8324C9.91518 13.8284 8.47636 13.8255 7.44507 13.8714C7.14771 13.8846 6.87662 13.9021 6.62957 13.9258C6.81669 13.5665 7.0384 13.1684 7.28001 12.7832C7.53292 12.3801 7.79893 12.0051 8.06109 11.7074C8.33263 11.3991 8.55688 11.2236 8.71634 11.1536C9.57682 10.776 10.1008 10.6651 14 10.6651C14.1732 10.6651 14.3398 10.6653 14.5 10.6657V9.33565C14.3392 9.33525 14.1727 9.33507 14 9.33507C10.1495 9.33507 9.3396 9.42763 8.1818 9.93573C7.75812 10.1217 7.3799 10.4685 7.06292 10.8285C6.73649 11.1992 6.42786 11.6388 6.15334 12.0765C5.91424 12.4576 5.69441 12.8478 5.50472 13.2071C5.15204 13.0206 4.76801 12.9294 4.32919 12.8833C3.83506 12.8315 3.21383 12.8328 2.43837 12.8344C2.29781 12.8347 2.15089 12.835 2 12.835V14.165C2.16088 14.165 2.31291 14.1647 2.45627 14.1645C3.23919 14.1632 3.77306 14.1623 4.19038 14.2061C4.52002 14.2406 4.73085 14.2995 4.8969 14.3903C4.84601 14.4371 4.79522 14.484 4.74461 14.5308C4.72464 14.5477 4.70499 14.5651 4.68567 14.5829L4.68695 14.5843C4.13643 15.0953 3.61011 15.6056 3.2037 16.1013C2.74345 16.6626 2.33496 17.3237 2.33496 18.0429V26.6651H7.66496V25.4629C11.9532 25.7458 16.0467 25.7458 20.335 25.4629V26.6651H25.665V18.0429C25.665 17.6785 25.5601 17.3291 25.3968 17C23.6038 17.4136 21.8413 17.7271 20 17.8576Z" fill="#000000" class="bmwfcol"/><path d="M13.1569 17.085H10.2245L9.33496 17.9745V21.1933L10.5871 23.165H13.5254L14 22.6904L14.4745 23.165H17.4578L18.665 21.1869V17.9745L17.7754 17.085H14.843L14 17.5065L13.1569 17.085ZM10.665 18.5254L10.7754 18.415H12.843L13.335 18.661V21.4745L12.9745 21.835H11.318L10.665 20.8067V18.5254ZM14.665 21.4745V18.661L15.1569 18.415H17.2245L17.335 18.5254V20.8131L16.7113 21.835H15.0254L14.665 21.4745Z" fill="#000000" class="bmwfcol"/><path d="M21 4.33496H16.335V14.665H21C21.4489 14.665 21.7713 14.8117 21.9798 15.0202C22.1883 15.2287 22.335 15.5511 22.335 15.9999L23.665 16C23.665 15.5511 23.8118 15.2287 24.0203 15.0202C24.2288 14.8117 24.5512 14.665 25 14.665H29.665V4.33496H25C24.2489 4.33496 23.5713 4.58824 23.0798 5.07973C23.0525 5.10706 23.0259 5.13497 23 5.16343C22.9742 5.13497 22.9476 5.10706 22.9203 5.07973C22.4288 4.58824 21.7512 4.33496 21 4.33496ZM23.665 13.6489V6.99994C23.665 6.55107 23.8118 6.22869 24.0203 6.02019C24.2288 5.81169 24.5512 5.66496 25 5.66496H28.335V13.335H25C24.5141 13.335 24.0589 13.441 23.665 13.6489ZM22.335 6.99996V13.6489C21.9411 13.441 21.486 13.335 21 13.335H17.665V5.66496H21C21.4489 5.66496 21.7713 5.81169 21.9798 6.02019C22.1883 6.22869 22.335 6.55109 22.335 6.99996Z" fill="#000000" class="bmwfcol"/><title>car-manual_lt_48</title></svg>