<svg width="72" height="48" viewBox="0 0 48 32" xmlns="http://www.w3.org/2000/svg"><path d="M42.5646 8.6337C37.875 7.92907 33.1478 7.5076 28.405 7.50218C25.7984 7.4992 24.1968 7.49737 22.3042 8.07321C20.3156 8.6783 18.017 9.91578 13.7729 12.3647C9.71794 13.0344 7.19764 13.7456 5.67253 14.3693C4.90437 14.6835 4.363 14.9858 4.00091 15.2675C3.66796 15.5265 3.33521 15.8848 3.33521 16.3338V21.5097C3.45509 21.5421 3.57496 21.575 3.69491 21.608C4.44397 21.8139 5.19592 22.0206 5.97 22.0996C6.52723 22.1564 7.16546 22.1643 8.1815 22.1654C8.82406 23.6367 10.292 24.665 12.0002 24.665C13.7084 24.665 15.1764 23.6367 15.8189 22.1653H32.1815C32.824 23.6367 34.292 24.665 36.0002 24.665C37.7084 24.665 39.1764 23.6367 39.8189 22.1653H40.5561C40.6782 22.1438 40.8005 22.1225 40.9228 22.1012C41.5099 21.9992 42.0979 21.897 42.6782 21.7621C44.1954 21.4097 44.7655 20.5835 45.1641 19.0912V17.7282C45.1038 17.6679 45.0432 17.608 44.9825 17.548C44.7896 17.3573 44.5965 17.1664 44.4152 16.965C44.162 16.6837 44.1628 16.4462 44.1639 16.081C44.164 16.0558 44.1641 16.0301 44.1641 16.0036V12.7326L41.931 10.4059L42.5646 8.6337ZM40.4397 20.8353H40.1519C40.1607 20.7247 40.1652 20.6129 40.1652 20.5C40.1652 18.1997 38.3005 16.335 36.0002 16.335C33.6999 16.335 31.8352 18.1997 31.8352 20.5C31.8352 20.6129 31.8397 20.7247 31.8485 20.8353H16.1519C16.1607 20.7247 16.1652 20.6129 16.1652 20.5C16.1652 18.1997 14.3005 16.335 12.0002 16.335C9.69994 16.335 7.83521 18.1997 7.83521 20.5C7.83521 20.6126 7.83968 20.7242 7.84845 20.8345C6.18943 20.8287 5.87661 20.8059 4.66521 20.4896L4.66521 16.4531C5.01932 16.0697 5.57933 15.8426 6.06131 15.647C6.1001 15.6313 6.13839 15.6158 6.17602 15.6004C7.58532 15.024 10.1122 14.3117 14.1895 13.6441L15.4238 14.4011C19.1868 14.3649 22.9516 14.2531 26.7087 14.0403C28.9619 13.9127 31.2744 13.7402 33.3178 13.4503C35.3166 13.1667 37.229 12.7245 39.0301 11.8055C38.8517 11.4676 38.3511 10.675 37.9736 10.0772C37.7067 9.65465 37.5012 9.32938 37.5145 9.33075C38.9091 9.47551 40.0524 9.62027 40.7651 9.71609L40.4015 10.7331L42.8341 13.2676L42.834 16.086C42.8331 16.5056 42.8323 16.9071 43.0293 17.301C43.2022 17.647 43.4846 17.9292 43.757 18.2016C43.7828 18.2274 43.8086 18.2531 43.8341 18.2788V18.9157C43.5647 19.9129 43.3693 20.2362 42.3772 20.4667C41.9095 20.5753 41.2919 20.685 40.4397 20.8353ZM35.6544 9.15343C36.4523 10.1763 36.8664 10.7161 37.1806 11.2102C36.5462 11.4522 35.7704 11.6597 34.8843 11.8376L33.8565 9.01377C34.4734 9.05593 35.0757 9.10328 35.6544 9.15343ZM25.808 12.7573C22.4731 12.9305 19.1327 13.0312 15.7934 13.0675L15.5155 12.8971C19.093 10.8505 21.0355 9.84944 22.6914 9.34562C24.01 8.9444 25.1523 8.85568 26.8585 8.83695L25.808 12.7573ZM9.16521 20.5C9.16521 18.9343 10.4345 17.665 12.0002 17.665C13.5659 17.665 14.8352 18.9343 14.8352 20.5C14.8352 22.0657 13.5659 23.335 12.0002 23.335C10.4345 23.335 9.16521 22.0657 9.16521 20.5ZM33.1652 20.5C33.1652 18.9343 34.4345 17.665 36.0002 17.665C37.5659 17.665 38.8352 18.9343 38.8352 20.5C38.8352 22.0657 37.5659 23.335 36.0002 23.335C34.4345 23.335 33.1652 22.0657 33.1652 20.5ZM27.2059 12.6791L28.2367 8.83223C29.6286 8.83296 31.019 8.85499 32.4094 8.92673L33.5539 12.0711C31.6447 12.364 29.4219 12.546 27.2059 12.6791Z" fill="#000000" class="bmwfcol"/><title>car-model-mpv_lt_48</title></svg>