<svg width="48" height="48" viewBox="0 0 32 32" xmlns="http://www.w3.org/2000/svg"><path d="M11 6.18665L7.66504 9.52161V2H6.33504V9.52181L3 6.18677V7.81311L6.99994 11.8131L11 7.81299V6.18665Z" fill="#000000" class="bmwfcol"/><path d="M18.919 15.335H19C20.776 15.335 22.0975 15.5838 23.4057 16.0913C24.6135 16.56 25.7999 17.2472 27.2896 18.11L27.4376 18.1957L29.6649 18.3906L29.665 19.9999C29.665 20.2439 29.6687 20.3812 29.7424 20.5655C29.8216 20.7633 30.005 21.0645 30.4702 21.5297L30.665 21.7245L30.6652 24.3839L30.3327 24.5759C29.4695 25.0742 28.8992 25.368 28.3253 25.5183C27.8829 25.6341 27.4578 25.6586 26.9442 25.6637C26.4805 26.8358 25.3371 27.665 24 27.665C22.6634 27.665 21.5203 26.8364 21.0563 25.665H9.94366C9.47964 26.8364 8.33656 27.665 6.99996 27.665C5.65734 27.665 4.50998 26.829 4.05004 25.6491C3.93211 25.6386 3.80167 25.621 3.64335 25.5919C3.27586 25.5242 2.75025 25.3928 1.82788 25.1457L1.33496 25.0136L1.33521 20.616L1.70098 20.4048C2.91526 19.7037 3.61276 19.301 4.83781 19.0287C5.99181 18.7723 7.63347 18.6268 10.7341 18.3557C12.441 16.9348 13.6117 16.1496 14.8164 15.7446C16.0356 15.3348 17.2402 15.3349 18.919 15.335ZM27.9883 24.2317C28.317 24.1456 28.6823 23.9801 29.3352 23.6136L29.335 22.269C28.9163 21.8209 28.6565 21.4319 28.5075 21.0594C28.3348 20.6276 28.3349 20.2706 28.335 20.0155V19.6093L27.0272 19.4949L26.6685 19.2873C25.1334 18.3985 24.0329 17.7613 22.9246 17.3313C21.7882 16.8904 20.6325 16.665 19 16.665C17.2212 16.665 16.2326 16.6717 15.2402 17.0053C14.2515 17.3377 13.2076 18.0158 11.4276 19.5094L11.267 19.6442L11.0581 19.6624C7.77029 19.9499 6.19705 20.0891 5.12637 20.3271C4.20773 20.5312 3.67881 20.8026 2.66517 21.3843L2.66502 23.9919C3.2475 24.1448 3.5975 24.2289 3.84276 24.2761C3.95762 22.6326 5.32725 21.335 6.99996 21.335C8.6926 21.335 10.0749 22.6637 10.1607 24.335H20.8392C20.925 22.6637 22.3073 21.335 24 21.335C25.6906 21.335 27.0717 22.6606 27.1604 24.3292C27.5095 24.3198 27.7456 24.2952 27.9883 24.2317ZM5.16496 24.5C5.16496 25.5134 5.98652 26.335 6.99996 26.335C8.0134 26.335 8.83496 25.5134 8.83496 24.5C8.83496 23.4865 8.0134 22.665 6.99996 22.665C5.98652 22.665 5.16496 23.4865 5.16496 24.5ZM22.165 24.5C22.165 25.5134 22.9865 26.335 24 26.335C25.0134 26.335 25.835 25.5134 25.835 24.5C25.835 23.4865 25.0134 22.665 24 22.665C22.9865 22.665 22.165 23.4865 22.165 24.5Z" fill="#000000" class="bmwfcol"/><path d="M2 14.665H12V13.335H2V14.665Z" fill="#000000" class="bmwfcol"/><title>car-update_lt_48</title></svg>