<svg width="48" height="48" viewBox="0 0 32 32" xmlns="http://www.w3.org/2000/svg"><path d="M26.0065 9.5L25.958 9.59703C25.7319 10.0493 25.2696 10.335 24.7639 10.335H20.665V9.5H19.335V10.335H17.665V9.5H16.335V10.335H11V11.665H14.335V12.9275C13.29 13.3703 12.2134 14.1242 10.7341 15.3557C7.63348 15.6268 5.99181 15.7723 4.83781 16.0287C3.61276 16.301 2.91526 16.7037 1.70098 17.4048L1.33521 17.616L1.33496 22.0136L1.82788 22.1457C2.75025 22.3928 3.27586 22.5242 3.64335 22.5919C3.80169 22.621 3.93213 22.6386 4.05006 22.6491C4.51001 23.829 5.65737 24.665 6.99999 24.665C8.33659 24.665 9.47967 23.8364 9.94369 22.665H21.0563C21.5203 23.8364 22.6634 24.665 24 24.665C25.3371 24.665 26.4805 23.8358 26.9442 22.6637C27.4579 22.6586 27.8829 22.6341 28.3253 22.5183C28.8992 22.368 29.4695 22.0742 30.3327 21.5759L30.6652 21.3839L30.665 18.7245L30.4702 18.5297C30.005 18.0645 29.8216 17.7633 29.7424 17.5655C29.6687 17.3812 29.665 17.2439 29.665 17L29.6649 15.3906L27.4376 15.1957L27.2897 15.11C25.8 14.2472 24.6135 13.56 23.4057 13.0913C23.1602 12.9961 22.9143 12.91 22.665 12.8329V11.665H24.7639C25.7734 11.665 26.6962 11.0947 27.1476 10.1918L27.4935 9.5H26.0065ZM21.335 12.5153C20.6312 12.3947 19.8701 12.335 19 12.335L18.919 12.335C17.628 12.3349 16.6174 12.3348 15.665 12.5212V11.665H21.335V12.5153ZM27.9883 21.2317C27.7456 21.2952 27.5095 21.3198 27.1605 21.3292C27.0717 19.6606 25.6907 18.335 24 18.335C22.3074 18.335 20.9251 19.6637 20.8392 21.335H10.1608C10.0749 19.6637 8.69263 18.335 6.99999 18.335C5.32728 18.335 3.95765 19.6326 3.84279 21.2761C3.59753 21.2289 3.24753 21.1448 2.66502 20.9919L2.66517 18.3843C3.67881 17.8026 4.20773 17.5312 5.12637 17.3271C6.19705 17.0891 7.77029 16.9499 11.0581 16.6624L11.267 16.6442L11.4276 16.5094C13.2076 15.0158 14.2515 14.3377 15.2402 14.0053C16.2326 13.6717 17.2212 13.665 19 13.665C20.6325 13.665 21.7882 13.8904 22.9246 14.3313C24.0329 14.7613 25.1334 15.3985 26.6685 16.2873L27.0272 16.4949L28.335 16.6093L28.335 17.0155C28.3349 17.2706 28.3348 17.6276 28.5075 18.0594C28.6565 18.4319 28.9163 18.8209 29.335 19.269L29.3352 20.6136C28.6823 20.9801 28.317 21.1456 27.9883 21.2317ZM5.16499 21.5C5.16499 20.4865 5.98655 19.665 6.99999 19.665C8.01343 19.665 8.83499 20.4865 8.83499 21.5C8.83499 22.5134 8.01343 23.335 6.99999 23.335C5.98655 23.335 5.16499 22.5134 5.16499 21.5ZM22.165 21.5C22.165 20.4865 22.9865 19.665 24 19.665C25.0134 19.665 25.835 20.4865 25.835 21.5C25.835 22.5134 25.0134 23.335 24 23.335C22.9865 23.335 22.165 22.5134 22.165 21.5Z" fill="#000000" class="bmwfcol"/><title>car_side_roof_ski_rack_lt_48</title></svg>