<svg width="48" height="48" viewBox="0 0 32 32" xmlns="http://www.w3.org/2000/svg"><path d="M19 6.33508L18.974 6.33508C18.0154 6.33508 17.2106 6.33507 16.4882 6.40391L15.4741 6.50054L17.4301 10.005L15.5304 13.3045L16.8352 15.6345L16.8351 24.335H15.1649V16.6413L15.17 16.6412V15.2801L14.07 13.2958L15.9703 9.99529L14.26 6.9311L13.6834 7.24139C12.8354 7.69771 11.9132 8.37437 10.7341 9.35582C7.63348 9.62689 5.99181 9.77237 4.83781 10.0289C3.61276 10.3011 2.91526 10.7039 1.70098 11.405L1.33521 11.6161L1.33496 16.0137L1.82788 16.1458C3.62084 16.6262 3.89122 16.6645 4.49939 16.6651L5.16499 16.6657V15.5001C5.16499 14.4866 5.98655 13.6651 6.99999 13.6651C8.01343 13.6651 8.83499 14.4866 8.83499 15.5001V16.6651L13.8349 16.6463V24.335H2V25.665H30V24.335H18.1651V16.6651H22.165V15.5001C22.165 14.4866 22.9865 13.6651 24 13.6651C25.0134 13.6651 25.835 14.4866 25.835 15.5001V16.6651L26.5201 16.6651C27.2437 16.665 27.777 16.665 28.3441 16.5134C28.9114 16.3618 29.4788 16.069 30.3327 15.576L30.6652 15.384L30.665 12.7246L30.4702 12.5299C30.005 12.0646 29.8216 11.7634 29.7424 11.5656C29.6687 11.3813 29.665 11.244 29.665 11L29.6649 9.39069L27.4376 9.19583L27.2729 9.10043C25.7515 8.2194 24.546 7.52129 23.3035 7.05233C22.0274 6.57072 20.7285 6.33508 19 6.33508ZM18.959 10.0152L17.6521 7.67377C18.0507 7.66525 18.493 7.66508 19 7.66508C20.5904 7.66508 21.7274 7.87906 22.8338 8.29665C23.9636 8.72304 25.0776 9.36609 26.644 10.2732L27.0272 10.495L28.335 10.6094L28.335 11.0156C28.3349 11.2707 28.3348 11.6277 28.5075 12.0596C28.6565 12.4321 28.9163 12.821 29.335 13.2691L29.3352 14.6137C28.6906 14.9755 28.3264 15.1414 28.0006 15.2285C27.7546 15.2943 27.5161 15.3196 27.1605 15.3293C27.0717 13.6607 25.6907 12.3351 24 12.3351C22.3074 12.3351 20.9251 13.6638 20.8392 15.3351H18.1652V15.2874L17.0599 13.3136L18.959 10.0152ZM11.4276 10.5095C12.3746 9.71495 13.1134 9.15046 13.7494 8.74522L14.4415 9.9851L12.5405 13.2867L13.6876 15.3351H10.1608C10.0749 13.6638 8.69263 12.3351 6.99999 12.3351C5.32729 12.3351 3.95765 13.6327 3.84279 15.2762C3.59901 15.2291 3.24632 15.1445 2.66502 14.9919L2.66517 12.3844C3.67881 11.8027 4.20773 11.5313 5.12637 11.3272C6.19705 11.0892 7.77029 10.95 11.0581 10.6626L11.267 10.6443L11.4276 10.5095Z" fill="#000000" class="bmwfcol"/><title>car_wreck_on_lifting_platform_lt_48</title></svg>