<svg width="48" height="48" viewBox="0 0 32 32" xmlns="http://www.w3.org/2000/svg"><path d="M1.9808 8.99096L1.32031 8.41011L1.37089 8.0544C1.5698 6.65565 2.20391 5.47259 3.19406 4.64136C4.18281 3.81129 5.48602 3.36572 6.96834 3.36572C9.30917 3.36572 11.1752 4.48166 12.0673 6.36572L25.9683 6.36572C26.7195 6.36572 27.3971 6.619 27.8886 7.1105C28.3801 7.602 28.6333 8.2796 28.6333 9.03072C28.6333 9.78184 28.3801 10.4595 27.8886 10.9509C27.3971 11.4424 26.7195 11.6957 25.9683 11.6957L12.0673 11.6957C11.1752 13.5798 9.30917 14.6957 6.96834 14.6957C5.10525 14.6957 3.5295 13.9905 2.50958 12.7205L2.28178 12.4368L2.56369 11.599L6.82775 10.4565C7.25737 10.3417 7.34922 10.1845 7.38817 10.0655C7.45215 9.86985 7.44358 9.53038 7.2883 8.95095C7.133 8.37144 6.97046 8.07232 6.81696 7.93451C6.72381 7.85088 6.56638 7.7608 6.13826 7.87697L6.13724 7.87725L1.9808 8.99096ZM6.96834 4.69572C5.75557 4.69572 4.76723 5.05721 4.04921 5.65999C3.53315 6.09323 3.13571 6.66854 2.89502 7.36908L5.78996 6.59339L5.79102 6.5931C6.52061 6.39539 7.18544 6.47797 7.70547 6.94484C8.1654 7.35775 8.40706 7.98758 8.57297 8.60667C8.73889 9.22582 8.84438 9.89154 8.65227 10.4789C8.43514 11.1428 7.90076 11.5464 7.17105 11.7414L4.21594 12.5332C4.92097 13.0593 5.85034 13.3657 6.96834 13.3657C8.9919 13.3657 10.4192 12.3652 11.0036 10.7983L11.165 10.3657L25.9683 10.3657C26.4172 10.3657 26.7396 10.219 26.9481 10.0105C27.1566 9.80199 27.3033 9.4796 27.3033 9.03072C27.3033 8.58184 27.1566 8.25945 26.9481 8.05095C26.7396 7.84245 26.4172 7.69572 25.9683 7.69572L11.165 7.69572L11.0036 7.26312C10.4192 5.69627 8.9919 4.69572 6.96834 4.69572Z" fill="#000000" class="bmwfcol"/><path d="M18.9181 16.335L18.999 16.335C20.7751 16.335 22.0965 16.5838 23.4047 17.0913C24.6125 17.56 25.799 18.2471 27.2886 19.11L27.4366 19.1957L29.6639 19.3906L29.664 20.9999C29.664 21.2439 29.6677 21.3812 29.7414 21.5655C29.8206 21.7633 30.004 22.0645 30.4692 22.5297L30.664 22.7245L30.6643 25.3839L30.3317 25.5759C29.4685 26.0742 28.8983 26.368 28.3243 26.5183C27.8819 26.6341 27.4569 26.6586 26.9432 26.6637C26.4795 27.8358 25.3361 28.665 23.999 28.665C22.6624 28.665 21.5193 27.8364 21.0553 26.665H9.94268C9.47866 27.8364 8.33558 28.665 6.99898 28.665C5.65636 28.665 4.50901 27.829 4.04906 26.6491C3.93113 26.6386 3.8007 26.621 3.64238 26.5919C3.27488 26.5242 2.74927 26.3928 1.8269 26.1457L1.33398 26.0136L1.33423 21.616L1.7 21.4048C2.91428 20.7037 3.61179 20.301 4.83683 20.0287C5.99083 19.7723 7.6325 19.6268 10.7331 19.3557C12.4401 17.9348 13.6107 17.1496 14.8154 16.7446C16.0346 16.3348 17.2392 16.3349 18.9181 16.335ZM27.9874 25.2317C28.316 25.1456 28.6813 24.9801 29.3342 24.6136L29.334 23.269C28.9154 22.8209 28.6556 22.4319 28.5066 22.0594C28.3338 21.6276 28.3339 21.2706 28.334 21.0155L28.334 20.6093L27.0263 20.4949L26.6675 20.2873C25.1325 19.3985 24.0319 18.7613 22.9236 18.3313C21.7873 17.8904 20.6315 17.665 18.999 17.665C17.2202 17.665 16.2316 17.6717 15.2392 18.0053C14.2505 18.3377 13.2066 19.0158 11.4267 20.5094L11.266 20.6442L11.0571 20.6624C7.76931 20.9499 6.19608 21.0891 5.12539 21.3271C4.20675 21.5312 3.67784 21.8026 2.66419 22.3843L2.66404 24.9919C3.24653 25.1448 3.59653 25.2289 3.84178 25.2761C3.95664 23.6326 5.32628 22.335 6.99898 22.335C8.69162 22.335 10.0739 23.6637 10.1598 25.335H20.8382C20.924 23.6637 22.3063 22.335 23.999 22.335C25.6897 22.335 27.0707 23.6606 27.1595 25.3292C27.5085 25.3198 27.7446 25.2952 27.9874 25.2317ZM5.16398 25.5C5.16398 26.5134 5.98554 27.335 6.99898 27.335C8.01243 27.335 8.83398 26.5134 8.83398 25.5C8.83398 24.4865 8.01243 23.665 6.99898 23.665C5.98554 23.665 5.16398 24.4865 5.16398 25.5ZM22.164 25.5C22.164 26.5134 22.9855 27.335 23.999 27.335C25.0124 27.335 25.834 26.5134 25.834 25.5C25.834 24.4865 25.0124 23.665 23.999 23.665C22.9855 23.665 22.164 24.4865 22.164 25.5Z" fill="#000000" class="bmwfcol"/><title>car_and_wrench_lt_48</title></svg>