<svg width="48" height="48" viewBox="0 0 32 32" xmlns="http://www.w3.org/2000/svg"><path d="M5.32059 11.8232L5.32695 11.8313L5.32067 11.84C4.57923 12.522 3.85991 13.2004 3.32341 13.8548C2.78968 14.5058 2.335 15.2512 2.335 16.0498V25.6648H8.33167V24H7.00167V24.3348H3.665V21.9855C3.66855 21.3295 3.91381 20.8944 4.23599 20.6146C4.5752 20.32 5.0394 20.165 5.49996 20.165H8.99996C9.51928 20.165 9.97646 20.3248 10.2948 20.6087C10.6009 20.8817 10.835 21.3185 10.835 22V23.665H21.165V22C21.165 21.3185 21.399 20.8817 21.7051 20.6087C22.0235 20.3248 22.4806 20.165 23 20.165H26.5C26.9605 20.165 27.4247 20.32 27.7639 20.6146C28.0885 20.8964 28.335 21.3359 28.335 22V24.3348H24.9983V24H23.6683V25.6648H29.665V16.0498C29.665 15.2512 29.2103 14.5058 28.6766 13.8548C28.1401 13.2004 27.4208 12.522 26.6793 11.84L26.673 11.8313L26.6794 11.8232C26.6704 11.8161 26.6613 11.809 26.6521 11.802L26.604 11.7348L26.5976 11.7206L26.6896 11.8322C26.9867 11.5873 27.2191 11.4753 27.6394 11.4106C28.1183 11.3368 28.7968 11.3315 29.9999 11.3315V10.0015C28.8417 10.0015 28.0409 10.0031 27.4371 10.096C26.8759 10.1824 26.4646 10.3495 26.0616 10.6379C25.8221 10.1889 25.536 9.69066 25.2215 9.20659C24.9023 8.71526 24.5453 8.22501 24.1696 7.81184C23.805 7.41093 23.3826 7.03744 22.9214 6.83127C21.6842 6.23954 20.4633 6.13477 16 6.13477C11.5368 6.13477 10.3174 6.23957 9.07922 6.83097C8.61755 7.03654 8.19501 7.40992 7.83047 7.81063C7.45465 8.22376 7.09761 8.71417 6.77844 9.20568C6.46391 9.69004 6.17769 10.1886 5.9382 10.6379C5.53506 10.3495 5.12378 10.1824 4.5626 10.096C3.95887 10.0031 3.15825 10.0015 2 10.0015V11.3315C3.20308 11.3315 3.88145 11.3368 4.36021 11.4106C4.78043 11.4753 5.01292 11.5873 5.31051 11.8324L5.40214 11.7212L5.39599 11.7349L5.34792 11.802C5.33873 11.809 5.32962 11.8161 5.32059 11.8232ZM16 7.46477C20.5671 7.46477 21.4431 7.59681 22.3548 8.03457L22.3645 8.03923L22.3743 8.04357C22.5894 8.13839 22.8663 8.35555 23.1856 8.70667C23.4966 9.04857 23.81 9.47519 24.1062 9.93111C24.3837 10.3583 24.6384 10.7993 24.8542 11.2006C24.4838 11.1494 24.0563 11.1103 23.5628 11.0798C21.9733 10.9816 19.5896 10.9668 16 10.9668C12.4104 10.9668 10.0267 10.9816 8.43725 11.0798C7.94358 11.1103 7.51599 11.1494 7.14555 11.2006C7.36146 10.799 7.61628 10.3575 7.89389 9.93002C8.19006 9.47394 8.50345 9.04732 8.81429 8.70563C9.13358 8.35465 9.4102 8.13815 9.62465 8.04401L9.63485 8.03953L9.6449 8.03471C10.5581 7.59676 11.4332 7.46477 16 7.46477ZM28.335 16.4648V19.3807C27.7786 19.0088 27.1229 18.835 26.5 18.835H23C22.2193 18.835 21.4265 19.0751 20.8198 19.6162C20.2009 20.1682 19.835 20.9814 19.835 22V22.335H12.165V22C12.165 20.9814 11.799 20.1682 11.1801 19.6162C10.5735 19.0751 9.78064 18.835 8.99996 18.835H5.49996C4.8771 18.835 4.22135 19.0088 3.665 19.3806V16.4648H10V15.1348H4.02596C4.11552 15 4.22352 14.8547 4.35192 14.698C4.82396 14.1223 5.48052 13.4999 6.23337 12.8076C6.34374 12.7441 6.52187 12.6728 6.81762 12.6072C7.20647 12.521 7.74944 12.4548 8.51925 12.4073C10.0588 12.3122 12.3965 12.2968 16 12.2968C19.6035 12.2968 21.9412 12.3122 23.4808 12.4073C24.2506 12.4548 24.7935 12.521 25.1824 12.6072C25.4781 12.6728 25.6563 12.7441 25.7666 12.8076C26.5195 13.4999 27.176 14.1223 27.6481 14.698C27.7765 14.8547 27.8845 15 27.974 15.1348H22V16.4648H28.335Z" fill="#000000" class="bmwfcol"/><path d="M4.33447 22C4.33447 21.3565 4.85606 20.835 5.49947 20.835C6.14288 20.835 6.66447 21.3565 6.66447 22C6.66447 22.6434 6.14288 23.165 5.49947 23.165C4.85606 23.165 4.33447 22.6434 4.33447 22Z" fill="#000000" class="bmwfcol"/><path d="M7.83398 22C7.83398 21.3565 8.35557 20.835 8.99898 20.835C9.6424 20.835 10.164 21.3565 10.164 22C10.164 22.6434 9.6424 23.165 8.99898 23.165C8.35557 23.165 7.83398 22.6434 7.83398 22Z" fill="#000000" class="bmwfcol"/><path d="M23 20.835C22.3566 20.835 21.835 21.3565 21.835 22C21.835 22.6434 22.3566 23.165 23 23.165C23.6434 23.165 24.165 22.6434 24.165 22C24.165 21.3565 23.6434 20.835 23 20.835Z" fill="#000000" class="bmwfcol"/><path d="M25.3354 22C25.3354 21.3565 25.857 20.835 26.5005 20.835C27.1439 20.835 27.6655 21.3565 27.6655 22C27.6655 22.6434 27.1439 23.165 26.5005 23.165C25.857 23.165 25.3354 22.6434 25.3354 22Z" fill="#000000" class="bmwfcol"/><title>car_rear_sports_exhaust_lt_48</title></svg>