<svg width="48" height="48" viewBox="0 0 32 32" xmlns="http://www.w3.org/2000/svg"><path d="M4.68465 11.335C4.81932 9.08955 5.63847 7.25195 6.94519 5.94523C8.37869 4.51173 10.4511 3.66501 13 3.66501C15.5488 3.66501 17.6212 4.51173 19.0547 5.94523C20.4882 7.37873 21.335 9.45113 21.335 12H22.665C22.665 9.14889 21.7117 6.72128 19.9952 5.00478C18.2787 3.28828 15.8511 2.33501 13 2.33501C10.1488 2.33501 7.72123 3.28828 6.00473 5.00478C4.28824 6.72128 3.33496 9.14889 3.33496 12V12.665H6.45451V11.335H4.68465Z" fill="#000000" class="bmwfcol"/><path d="M10.7508 11.4693C10.7161 11.6402 10.6986 11.8179 10.6986 12C10.6986 12.642 10.9155 13.2287 11.3434 13.6566C11.7712 14.0845 12.3579 14.3014 13 14.3014C14.3699 14.3014 15.3013 13.2498 15.3013 12C15.3013 11.358 15.0844 10.7713 14.6566 10.3434C14.2287 9.91555 13.642 9.69864 13 9.69864C12.3795 9.69864 11.8108 9.9012 11.3871 10.3009L7.66817 8.15381L7.00317 9.30562L10.7508 11.4693ZM12.0286 12C12.0286 11.6602 12.139 11.4287 12.2838 11.2839C12.4287 11.139 12.6602 11.0286 13 11.0286C13.3398 11.0286 13.5712 11.139 13.7161 11.2839C13.861 11.4287 13.9713 11.6602 13.9713 12C13.9713 12.5577 13.5937 12.9714 13 12.9714C12.6602 12.9714 12.4287 12.861 12.2838 12.7161C12.139 12.5713 12.0286 12.3398 12.0286 12Z" fill="#000000" class="bmwfcol"/><path d="M7 27.7474L29 21.8525V23.2295L7 29.1243V27.7474Z" fill="#000000" class="bmwfcol"/><path d="M17.6897 14.5824C16.5173 14.8964 15.6397 15.1314 14.8306 15.6686C14.0357 16.1964 13.3475 16.9845 12.4236 18.2888C10.3216 19.0537 9.18632 19.4689 8.41232 19.8724C7.57322 20.3098 7.13921 20.7438 6.41738 21.4657L6.11975 21.7633L7.12539 25.5172H7.63569C8.3336 25.5172 8.73733 25.5106 9.01831 25.4882C9.15096 25.4776 9.25779 25.4633 9.35282 25.446C9.95461 26.1848 10.9547 26.5437 11.9348 26.2811C12.9108 26.0196 13.5959 25.2142 13.7514 24.2784L21.0288 22.3284C21.6314 23.0611 22.6274 23.416 23.6034 23.1545C24.5795 22.893 25.2646 22.0875 25.42 21.1517C25.8407 21.0376 26.1902 20.9318 26.5332 20.7363C26.9339 20.508 27.2966 20.176 27.812 19.6607L28.0835 19.3891L27.4231 16.9254L27.1846 16.7877C26.7789 16.5534 26.6144 16.3896 26.5408 16.2912C26.4759 16.2044 26.4541 16.1375 26.4083 15.9666L26.061 14.6708L24.3273 14.9765L24.239 14.9527C23.0278 14.6263 22.0456 14.3616 21.0883 14.2575C20.0424 14.1438 19.0385 14.221 17.764 14.5625L17.6897 14.5824ZM25.8747 19.5807C25.7161 19.6711 25.5543 19.7308 25.2724 19.8118C24.8087 18.6565 23.5443 18.0036 22.3117 18.3339C21.0782 18.6644 20.3094 19.8634 20.487 21.0967L13.6047 22.9408C13.1419 21.7839 11.8765 21.1299 10.6431 21.4604C9.42764 21.7861 8.66338 22.9551 8.81116 24.1692C8.65934 24.1777 8.45227 24.183 8.14553 24.1855L7.60334 22.1616C8.16008 21.6105 8.46474 21.3449 9.02708 21.0518C9.72592 20.6875 10.7974 20.2959 13.0746 19.4672L13.2716 19.3955L13.3919 19.2237C14.3661 17.8324 14.9598 17.1792 15.5662 16.7766C16.1758 16.3719 16.8428 16.1862 18.1082 15.8472C19.2441 15.5428 20.0819 15.4859 20.9445 15.5797C21.7956 15.6723 22.682 15.9109 23.9439 16.2506L24.2671 16.3376L25.0918 16.1922L25.1272 16.3243C25.1762 16.5074 25.2511 16.7876 25.4758 17.0879C25.6591 17.3329 25.9173 17.5612 26.2788 17.7931L26.5991 18.9882C26.2561 19.3186 26.058 19.4763 25.8747 19.5807ZM21.8319 21.0458C21.6653 20.4241 22.0343 19.7851 22.6559 19.6185C23.2776 19.452 23.9166 19.8209 24.0832 20.4426C24.2498 21.0642 23.8808 21.7032 23.2592 21.8698C22.6375 22.0364 21.9985 21.6675 21.8319 21.0458ZM10.1633 24.1724C9.9967 23.5507 10.3656 22.9117 10.9873 22.7451C11.609 22.5785 12.248 22.9475 12.4145 23.5691C12.5811 24.1908 12.2122 24.8298 11.5905 24.9964C10.9689 25.163 10.3299 24.794 10.1633 24.1724Z" fill="#000000" class="bmwfcol"/><title>car_on_ramp_and_gauge_lt_48</title></svg>