<svg width="48" height="48" viewBox="0 0 32 32" xmlns="http://www.w3.org/2000/svg"><path d="M29.9947 11.3333V9.99996C27.7993 9.99996 26.9467 10.008 26.0613 10.6406C25.3773 9.35063 24.166 7.37396 22.908 6.82463C21.5827 6.24329 20.4847 6.1333 15.9974 6.1333C11.51 6.1333 10.412 6.24329 9.08667 6.82463C7.82867 7.37663 6.62002 9.34996 5.93335 10.6406C5.04535 10.008 4.19267 9.99996 2 9.99996V11.3333C4.36333 11.3333 4.74066 11.3646 5.31266 11.8346L5.394 11.7353L5.36735 11.7939C3.59068 13.4279 2.33333 14.6886 2.33333 16.05V25.6666H8.33333V24.2C9.462 24.2906 11.9113 24.4373 16 24.4373C20.0887 24.4373 22.538 24.2906 23.6667 24.2V25.6666H29.6667V16.05C29.6667 14.6886 28.41 13.4279 26.6326 11.7939L26.606 11.7353L26.6873 11.8346C27.254 11.3646 27.6313 11.3333 29.9947 11.3333ZM9.61999 8.04594C10.674 7.58327 11.5347 7.46663 15.9947 7.46663C20.4547 7.46663 21.3153 7.58327 22.3693 8.04594C23.138 8.38327 24.1873 9.95329 24.9147 11.3266C23.3613 11.1013 20.7507 11.0666 15.9947 11.0666C11.2387 11.0666 8.62867 11.1013 7.07467 11.3266C7.802 9.95329 8.85133 8.38327 9.61999 8.04594ZM28.02 15.2273C26.2621 15.647 24.4673 15.8942 22.6613 15.9653V17.2986C24.571 17.225 26.4689 16.9651 28.328 16.5226V24.3333H24.9947V22.7186C19.0059 23.2368 12.9835 23.2368 6.99467 22.7186V24.3333H3.66134V16.5253C5.52047 16.9678 7.41836 17.2277 9.328 17.3013V15.968C7.5218 15.8969 5.72685 15.6497 3.96867 15.2299C4.5403 14.4359 5.20354 13.712 5.94466 13.0733C6.61133 12.4613 9.37134 12.4006 15.9927 12.4006C22.614 12.4006 25.3773 12.4613 26.0406 13.0733C26.7832 13.7108 27.4471 14.4338 28.02 15.2273Z" fill="#000000" class="bmwfcol"/><path d="M16.8373 15.2333L15.9973 15.7353L15.1573 15.2333H11.664L10.664 16.2333V19.5887L12.052 22.0667H15.464L15.9973 21.5333L16.5306 22.0667H19.9973L21.3306 19.5887V16.2333L20.3306 15.2333H16.8373ZM12.8326 20.7333L11.9973 19.2413V16.7853L12.216 16.5667H14.7893L15.3306 16.89V20.314L14.912 20.7333H12.8326ZM19.9973 19.2513L19.1973 20.7333H17.0813L16.6626 20.314V16.89L17.204 16.5667H19.7773L19.996 16.7853L19.9973 19.2513Z" fill="#000000" class="bmwfcol"/><title>car-front_lt_48</title></svg>