<svg width="48" height="48" viewBox="0 0 32 32" xmlns="http://www.w3.org/2000/svg"><path d="M20.0009 2.33502C20.4479 2.33502 20.8811 2.47472 21.2037 2.7973C21.5262 3.11987 21.6659 3.55308 21.6659 4.00002V13.7246L23.5714 15.6299C24.3495 16.4064 24.9503 17.006 25.0501 17.9948C25.0986 18.4757 25.0277 19.0114 24.891 19.6531C24.7551 20.2915 24.5392 21.0969 24.2611 22.1347L22.6659 28.0876V30H21.3359V27.9125L22.9664 21.8279C23.2532 20.7575 23.4615 19.9802 23.5902 19.376C23.7199 18.7674 23.7539 18.397 23.7268 18.1283C23.6795 17.6598 23.4543 17.3939 22.5307 16.4702L21.6659 15.6055V17C21.6659 17.447 21.5262 17.8802 21.2037 18.2027C20.8811 18.5253 20.4479 18.665 20.0009 18.665V17.335C20.174 17.335 20.2408 17.2847 20.2632 17.2623C20.2856 17.2399 20.3359 17.1731 20.3359 17V4.00002C20.3359 3.82696 20.2856 3.76018 20.2632 3.73775C20.2408 3.71532 20.174 3.66502 20.0009 3.66502H12.0009C11.8279 3.66502 11.7611 3.71532 11.7387 3.73775C11.7162 3.76018 11.6659 3.82696 11.6659 4.00002V17C11.6659 17.1731 11.7162 17.2399 11.7387 17.2623C11.7611 17.2847 11.8279 17.335 12.0009 17.335V18.665C11.554 18.665 11.1208 18.5253 10.7982 18.2027C10.4756 17.8802 10.3359 17.447 10.3359 17V4.00002C10.3359 3.55308 10.4756 3.11987 10.7982 2.7973C11.1208 2.47472 11.554 2.33502 12.0009 2.33502H20.0009Z" fill="#000000" class="bmwfcol"/><path d="M16.0649 30H14.6879L12.8282 23.0588L13.1591 19.2815C13.3408 17.2071 13.5653 14.6446 13.7361 12.6921C13.7939 12.0311 14.0524 11.435 14.5057 11.0013C14.9618 10.5651 15.5719 10.335 16.2509 10.335C16.927 10.335 17.5421 10.5633 17.9899 11.011C18.4376 11.4588 18.6659 12.0739 18.6659 12.75V21H17.3359V12.75C17.3359 12.3761 17.2142 12.1163 17.0494 11.9515C16.8847 11.7867 16.6248 11.665 16.2509 11.665C15.8799 11.665 15.6097 11.7858 15.425 11.9624C15.2376 12.1417 15.0949 12.4205 15.061 12.808C14.8902 14.7606 14.6658 17.3232 14.4841 19.3975L14.1736 22.9412L16.0649 30Z" fill="#000000" class="bmwfcol"/><title>card-present_lt_48</title></svg>