<svg width="48" height="48" viewBox="0 0 32 32" xmlns="http://www.w3.org/2000/svg"><path d="M9.66496 7.99996C9.66496 7.8269 9.71526 7.76012 9.73769 7.73769C9.76012 7.71526 9.8269 7.66496 9.99996 7.66496H22.9998C23.1729 7.66496 23.2398 7.71526 23.2622 7.73769C23.2847 7.76012 23.335 7.8269 23.335 7.99996V16C23.335 16.173 23.2847 16.2398 23.2622 16.2622C23.2398 16.2847 23.173 16.335 23 16.335H22.5V17.665H23C23.4469 17.665 23.8801 17.5253 24.2027 17.2027C24.5253 16.8801 24.665 16.4469 24.665 16V15.6054L25.5298 16.4702C26.4534 17.3939 26.6786 17.6598 26.7259 18.1283C26.753 18.397 26.7189 18.7674 26.5893 19.376C26.4606 19.9802 26.2523 20.7575 25.9655 21.8279L24.335 27.9125V30H25.665V28.0876L27.2602 22.1347C27.5383 21.0969 27.7541 20.2915 27.8901 19.6531C28.0268 19.0114 28.0977 18.4757 28.0492 17.9948C27.9494 17.006 27.3486 16.4064 26.5705 15.6299L24.665 13.7245V7.99996C24.665 7.55302 24.5253 7.11981 24.2027 6.79723C23.8801 6.47466 23.4464 6.33496 22.9995 6.33496H9.99996C9.55302 6.33496 9.11981 6.47466 8.79724 6.79724C8.47466 7.11981 8.33496 7.55302 8.33496 7.99996V16C8.33496 16.4469 8.47466 16.8801 8.79724 17.2027C9.11981 17.5253 9.55302 17.665 9.99996 17.665H14.5V16.335H9.99996C9.8269 16.335 9.76012 16.2847 9.73769 16.2622C9.71526 16.2398 9.66496 16.173 9.66496 16V7.99996Z" fill="#000000" class="bmwfcol"/><path d="M17.687 30H19.064L17.1727 22.9412L17.4831 19.3975C17.6649 17.3231 17.8893 14.7606 18.0601 12.8079C18.094 12.4205 18.2367 12.1416 18.4241 11.9624C18.6088 11.7857 18.8789 11.665 19.25 11.665C19.6239 11.665 19.8837 11.7867 20.0485 11.9514C20.2133 12.1162 20.335 12.3761 20.335 12.75V21H21.665V12.75C21.665 12.0738 21.4367 11.4587 20.989 11.011C20.5412 10.5632 19.9261 10.335 19.25 10.335C18.571 10.335 17.9609 10.565 17.5048 11.0012C17.0514 11.4349 16.793 12.031 16.7352 12.692C16.5643 14.6446 16.3399 17.2071 16.1582 19.2814L15.8273 23.0588L17.687 30Z" fill="#000000" class="bmwfcol"/><path d="M7.00001 27.9405L13.4702 21.4702L12.5298 20.5298L7.00001 26.0596L3.97024 23.0298L3.02979 23.9702L7.00001 27.9405Z" fill="#000000" class="bmwfcol"/><title>card_hand_checkmark_lt_48</title></svg>