<svg width="48" height="48" viewBox="0 0 32 32" xmlns="http://www.w3.org/2000/svg"><path d="M8.94124 5.49992L11.4709 2.97024L10.5305 2.02979L8.00078 4.55947L7.001 3.55968L6.53077 4.02991C5.10547 5.45521 4.27822 6.62022 4.04972 7.68009C3.85224 8.59608 4.11439 9.34051 4.59797 9.97836C4.04704 10.5729 3.63157 11.1269 3.34364 11.7027C2.97811 12.4338 2.83686 13.1618 2.83594 13.9919V15.0001H4.16594V14.0001C4.16594 13.3337 4.27498 12.814 4.53323 12.2975C4.74233 11.8793 5.06065 11.4401 5.54142 10.9172C6.17513 11.3918 6.91397 11.647 7.82104 11.4514C8.88091 11.2229 10.0459 10.3957 11.4712 8.97036L11.9415 8.50013L10.9413 7.50001L13.4711 4.97024L12.5307 4.02979L10.0009 6.55956L8.94124 5.49992ZM7.00824 5.44783L10.0533 8.49289C8.9117 9.56315 8.11929 10.0266 7.54074 10.1513C6.98681 10.2707 6.53691 10.0956 5.97122 9.52991C5.40554 8.96422 5.23042 8.51432 5.34985 7.96039C5.47458 7.38184 5.93799 6.58943 7.00824 5.44783Z" fill="#000000" class="bmwfcol"/><path d="M8.33933 15.335L28.5112 15.335L28.6433 15.8279C29.1412 17.6863 29.4011 18.7208 29.5326 19.5447C29.6659 20.3803 29.6659 20.9942 29.6659 21.975L29.6662 23.3839L29.3336 23.5759C28.47 24.0744 27.9105 24.3611 27.421 24.5109C26.9261 24.6623 26.527 24.665 26.0618 24.665C25.7812 25.5353 24.9646 26.165 24.0009 26.165C23.0372 26.165 22.2205 25.5353 21.9399 24.665H14.0618C13.7812 25.5353 12.9646 26.165 12.0009 26.165C11.0372 26.165 10.2205 25.5353 9.93992 24.665H7.33587V21.9873C7.33587 21.241 7.33586 20.753 7.47116 19.9762C7.60066 19.2328 7.8542 18.222 8.33933 16.4095V15.335ZM27.0319 23.2391C27.3148 23.1525 27.6819 22.9816 28.336 22.6138L28.3359 22.0001C28.3359 21.4454 28.3355 21.0393 28.3158 20.665H8.71416C8.6663 21.0847 8.66587 21.4431 8.66587 21.9999V23.335H9.93992C10.2205 22.4646 11.0372 21.835 12.0009 21.835C12.9646 21.835 13.7812 22.4646 14.0618 23.335H21.9399C22.2205 22.4646 23.0372 21.835 24.0009 21.835C24.9646 21.835 25.7812 22.4646 26.0618 23.3349C26.5275 23.3345 26.7435 23.3273 27.0319 23.2391ZM28.1441 19.335C28.0227 18.7182 27.823 17.9176 27.4901 16.665L25.3317 16.665L26.0471 19.335H28.1441ZM24.6702 19.335L23.9547 16.665L20.8292 16.665L21.5447 19.335H24.6702ZM20.1678 19.335L19.4523 16.665L16.3316 16.665L17.047 19.335H20.1678ZM15.6701 19.335L14.9547 16.665L12.6659 16.665V19.335H15.6701ZM11.3359 19.335V16.665L9.64779 16.665L9.64667 16.6691C9.32256 17.8787 9.10667 18.712 8.96213 19.335H11.3359ZM12.0009 23.165C11.5397 23.165 11.1659 23.5388 11.1659 24C11.1659 24.4611 11.5397 24.835 12.0009 24.835C12.462 24.835 12.8359 24.4611 12.8359 24C12.8359 23.5388 12.462 23.165 12.0009 23.165ZM24.0009 23.165C23.5397 23.165 23.1659 23.5388 23.1659 24C23.1659 24.4611 23.5397 24.835 24.0009 24.835C24.462 24.835 24.8359 24.4611 24.8359 24C24.8359 23.5388 24.462 23.165 24.0009 23.165Z" fill="#000000" class="bmwfcol"/><title>charging-bus_lt_48</title></svg>