<svg width="48" height="48" viewBox="0 0 32 32" xmlns="http://www.w3.org/2000/svg"><path d="M13.5596 9.50002L8.52979 4.47024L9.47024 3.52979L14.5 8.55957L17 6.05957L17.4702 6.5298C20.6935 9.75309 22.3462 12.3532 22.7188 14.6301C23.0663 16.7538 22.286 18.4708 20.9279 19.9875C22.652 21.7134 23.8207 22.9071 24.5533 24.0061C25.3908 25.2624 25.665 26.3979 25.665 28V30H24.335V28C24.335 26.6021 24.1092 25.7376 23.4467 24.7439C22.7973 23.7697 21.7348 22.6781 19.9873 20.928C18.4706 22.286 16.7537 23.0663 14.6301 22.7188C12.3532 22.3462 9.75309 20.6935 6.5298 17.4702L6.05957 17L8.55957 14.5L3.52979 9.47024L4.47024 8.52979L9.50002 13.5596L13.5596 9.50002ZM14.8449 21.4062C16.6178 21.6964 18.0646 20.995 19.5298 19.5298C20.995 18.0646 21.6964 16.6178 21.4062 14.8449C21.1191 13.0899 19.8445 10.8824 16.9964 7.94408L7.94408 16.9964C10.8824 19.8445 13.0899 21.1191 14.8449 21.4062Z" fill="#000000" class="bmwfcol"/><title>charge_lt_48</title></svg>