<svg width="48" height="48" viewBox="0 0 32 32" xmlns="http://www.w3.org/2000/svg"><path d="M25.665 7.33496V4H24.335V7.33496H23.335V7.99996C23.335 10.031 23.6204 11.4545 24.2593 12.3782C24.7987 13.1582 25.5324 13.5074 26.335 13.6208V21C26.335 21.4831 26.1897 21.7998 25.9948 21.9948C25.7998 22.1897 25.4831 22.335 25 22.335C24.5169 22.335 24.2002 22.1897 24.0052 21.9948C23.8103 21.7998 23.665 21.4831 23.665 21V16C23.665 15.2431 23.4303 14.5598 22.9352 14.0648C22.4402 13.5697 21.7569 13.335 21 13.335H19.665V6.99996C19.665 6.24302 19.4303 5.55981 18.9352 5.06473C18.7981 4.92769 18.6281 4.79362 18.3599 4.68749C18.1158 4.59088 17.8124 4.52614 17.4158 4.47794C16.6249 4.38181 15.3069 4.33496 13 4.33496C10.693 4.33496 9.37506 4.38181 8.5841 4.47794C8.18755 4.52614 7.88409 4.59088 7.63999 4.68749C7.37186 4.79362 7.20178 4.92769 7.06473 5.06473C6.56966 5.55981 6.33496 6.24302 6.33496 6.99996V26.335H4V27.665H22V26.335H19.665V14.665H21C21.4831 14.665 21.7998 14.8103 21.9948 15.0052C22.1897 15.2002 22.335 15.5169 22.335 16V21C22.335 21.7569 22.5697 22.4402 23.0648 22.9352C23.5598 23.4303 24.2431 23.665 25 23.665C25.7569 23.665 26.4402 23.4303 26.9352 22.9352C27.4303 22.4402 27.665 21.7569 27.665 21V13.6208C28.4675 13.5073 29.2012 13.1581 29.7406 12.3782C30.3795 11.4545 30.665 10.031 30.665 7.99996V7.33496H29.665V4H28.335V7.33496H25.665ZM24.6769 8.66496H29.323C29.2646 10.2178 28.998 11.1139 28.6468 11.6217C28.2949 12.1305 27.7942 12.335 27 12.335C26.2057 12.335 25.705 12.1305 25.3531 11.6217C25.0019 11.1139 24.7353 10.2178 24.6769 8.66496ZM18.335 6.99996V26.335H7.66496V6.99996C7.66496 6.5169 7.81026 6.20012 8.00519 6.00519C8.04064 5.96973 8.06244 5.95068 8.12946 5.92415C8.22052 5.88811 8.3955 5.84066 8.74457 5.79823C9.44487 5.71311 10.6869 5.66496 13 5.66496C15.313 5.66496 16.5551 5.71311 17.2554 5.79823C17.6044 5.84066 17.7794 5.88811 17.8705 5.92415C17.9375 5.95068 17.9593 5.96973 17.9947 6.00519C18.1897 6.20012 18.335 6.5169 18.335 6.99996Z" fill="#000000" class="bmwfcol"/><path d="M11.3349 10.5V14.665L13.3349 14.665V16.835H12.2255L13.9999 19.7925L15.7746 16.835H14.6649V13.335L12.6649 13.335V10.5H11.3349Z" fill="#000000" class="bmwfcol"/><title>charging_electric_lt_48</title></svg>