<svg width="48" height="48" viewBox="0 0 32 32" xmlns="http://www.w3.org/2000/svg"><path d="M8.94124 5.49992L11.4709 2.97024L10.5305 2.02979L8.00078 4.55947L7.001 3.55968L6.53077 4.02991C5.10547 5.45521 4.27822 6.62022 4.04972 7.68009C3.85224 8.59608 4.11439 9.34051 4.59797 9.97836C4.04704 10.5729 3.63157 11.1269 3.34364 11.7027C2.97811 12.4338 2.83686 13.1618 2.83594 13.9919V15.0001H4.16594V14.0001C4.16594 13.3337 4.27498 12.814 4.53323 12.2975C4.74233 11.8793 5.06065 11.4401 5.54142 10.9172C6.17513 11.3918 6.91397 11.647 7.82104 11.4514C8.88091 11.2229 10.0459 10.3957 11.4712 8.97036L11.9415 8.50013L10.9413 7.50001L13.4711 4.97024L12.5307 4.02979L10.0009 6.55956L8.94124 5.49992ZM7.00824 5.44783L10.0533 8.49289C8.9117 9.56315 8.11929 10.0266 7.54074 10.1513C6.98681 10.2707 6.53691 10.0956 5.97122 9.52991C5.40554 8.96422 5.23042 8.51432 5.34985 7.96039C5.47458 7.38184 5.93799 6.58943 7.00824 5.44783Z" fill="#000000" class="bmwfcol"/><path d="M29.6659 13.335H13.3359V14.335L9.03545 14.335L8.86677 14.7985C8.12758 16.8294 7.74342 17.8848 7.54854 18.5673C7.33675 19.309 7.33587 19.6604 7.33587 20.25V24.665H8.93992C9.22054 25.5353 10.0372 26.165 11.0009 26.165C11.9646 26.165 12.7812 25.5353 13.0618 24.665H21.9399C22.2205 25.5353 23.0372 26.165 24.0009 26.165C24.9646 26.165 25.7812 25.5353 26.0618 24.665L26.394 24.665C26.9255 24.6651 27.345 24.6652 27.7868 24.5495C28.2414 24.4305 28.6867 24.1992 29.3334 23.8259L29.6659 23.6339V13.335ZM26.0618 23.335C25.7812 22.4646 24.9646 21.835 24.0009 21.835C23.0372 21.835 22.2205 22.4646 21.9399 23.335H13.0618C12.7812 22.4646 11.9646 21.835 11.0009 21.835C10.0372 21.835 9.22054 22.4646 8.93992 23.335H8.66587L8.66589 20.164C9.2731 20.1612 9.70613 20.149 10.1312 20.0976C10.666 20.033 11.1777 19.9078 12.0009 19.6883V18.3115L11.8287 18.3576C10.8894 18.6094 10.4342 18.7213 9.97157 18.7772C9.65902 18.815 9.3377 18.8281 8.85658 18.8326C9.03048 18.2481 9.354 17.3494 9.96676 15.665L13.3359 15.665V21.665H28.3359V22.8625C27.9032 23.102 27.6622 23.2073 27.4499 23.2629C27.1911 23.3307 26.9426 23.335 26.3382 23.335L26.0618 23.335ZM14.6659 20.335L14.6659 14.665H28.3359V20.335H14.6659ZM11.0009 23.165C11.462 23.165 11.8359 23.5388 11.8359 24C11.8359 24.4611 11.462 24.835 11.0009 24.835C10.5397 24.835 10.1659 24.4611 10.1659 24C10.1659 23.5388 10.5397 23.165 11.0009 23.165ZM24.0009 23.165C24.462 23.165 24.8359 23.5388 24.8359 24C24.8359 24.4611 24.462 24.835 24.0009 24.835C23.5397 24.835 23.1659 24.4611 23.1659 24C23.1659 23.5388 23.5397 23.165 24.0009 23.165Z" fill="#000000" class="bmwfcol"/><title>charging-truck_lt_48</title></svg>