<svg width="48" height="48" viewBox="0 0 32 32" xmlns="http://www.w3.org/2000/svg"><path d="M12.8786 6.23828C13.3026 6.00924 13.8449 5.88623 14.5629 5.88623C15.019 5.88623 15.471 5.95863 15.8597 6.02838C16.2782 6.09988 16.6842 6.21168 16.9328 6.2813L17.0789 6.3222V7.68757L16.828 7.62155C16.4495 7.52193 16.0384 7.41437 15.6288 7.33634L15.627 7.33599C15.28 7.26661 14.9589 7.21065 14.6324 7.21065C14.1854 7.21065 13.8629 7.27123 13.6201 7.39315C13.3831 7.51219 13.2051 7.69829 13.0619 7.98475C12.8463 8.41587 12.755 9.1882 12.755 10.0622C12.755 10.8932 12.8455 11.5906 13.0344 11.9955C13.1676 12.2794 13.3451 12.4722 13.5887 12.5982C13.8377 12.727 14.1723 12.7945 14.6324 12.7945C15.2924 12.7945 16.1443 12.6116 16.8364 12.4611L17.0789 12.4084V13.7626L16.9208 13.7964C16.226 13.9453 15.3719 14.119 14.533 14.119C13.7687 14.119 13.1984 13.9779 12.762 13.718C12.324 13.4571 12.0402 13.0879 11.8297 12.6671C11.5198 12.0576 11.3809 11.0947 11.3809 10.0722C11.3809 8.95484 11.5084 7.89266 11.936 7.17651C12.1628 6.7966 12.4525 6.46846 12.8786 6.23828Z" fill="#000000" class="bmwfcol"/><path d="M19.7216 6.25536C20.1864 6.01423 20.7719 5.88623 21.5197 5.88623C22.1729 5.88623 22.7 5.97534 23.1377 6.16927C23.5786 6.36462 23.916 6.66068 24.1971 7.05323C24.4632 7.42274 24.6349 7.90512 24.741 8.41629C24.8476 8.92987 24.8906 9.48573 24.8906 10.0125C24.8906 10.5248 24.8475 11.0705 24.7436 11.5761C24.6401 12.0794 24.4736 12.5563 24.2181 12.9205C23.9216 13.3389 23.5682 13.6434 23.121 13.8399C22.677 14.035 22.1524 14.119 21.5197 14.119C20.7783 14.119 20.2076 14.0203 19.757 13.8152C19.3014 13.6079 18.9822 13.298 18.7356 12.9013C18.3072 12.2155 18.1389 11.1043 18.1389 10.0125C18.1389 9.53212 18.1717 9.01843 18.2536 8.54114C18.335 8.06649 18.4672 7.6144 18.6739 7.26638C18.9232 6.84721 19.2546 6.49765 19.7216 6.25536ZM21.5197 7.21065C20.7481 7.21065 20.1694 7.38386 19.8457 7.96261C19.7286 8.17539 19.6437 8.48564 19.5891 8.85284C19.5351 9.21688 19.513 9.62159 19.513 10.0125C19.513 10.3934 19.535 10.8132 19.5916 11.1973C19.6489 11.5858 19.7389 11.9192 19.8645 12.1402C20.1722 12.6807 20.7368 12.7945 21.5197 12.7945C22.1912 12.7945 22.6648 12.6703 23.0265 12.2397C23.2131 12.0192 23.3389 11.6899 23.4157 11.2906C23.4918 10.8945 23.5164 10.4489 23.5164 10.0125C23.5164 9.60206 23.4919 9.19167 23.4286 8.82248C23.3649 8.45118 23.264 8.13418 23.1192 7.90162C22.805 7.39205 22.286 7.21065 21.5197 7.21065Z" fill="#000000" class="bmwfcol"/><path d="M3.66594 24V9H2.33594V24C2.33594 24.4469 2.47564 24.8802 2.79821 25.2027C3.12078 25.5253 3.554 25.665 4.00094 25.665H19.0009V24.335H15.6659V20H14.3359V24.335H11.6659V18H10.3359V24.335H7.66594L7.66594 16H6.33594L6.33594 24.335H4.00094C3.82788 24.335 3.76109 24.2847 3.73866 24.2623C3.71623 24.2398 3.66594 24.1731 3.66594 24Z" fill="#000000" class="bmwfcol"/><path d="M27.8422 10.568C27.2799 10.568 26.6738 10.7023 26.3921 10.7727L26.2406 10.8106V12.0208L26.4911 11.9555C26.7225 11.8951 27.3149 11.7433 27.8123 11.7433C28.0552 11.7433 28.1559 11.792 28.1977 11.8338C28.2422 11.8782 28.2684 11.9325 28.2684 12.0403C28.2684 12.1688 28.209 12.3051 27.8697 12.6444C27.488 13.0261 26.728 13.6974 26.2103 14.1454L26.1412 14.2053V15.2422H29.732V14.0768H28.0548C28.3412 13.8206 28.6804 13.5022 28.9856 13.1573C29.1606 12.9616 29.2928 12.7821 29.3795 12.5857C29.4675 12.3861 29.5033 12.1811 29.5033 11.9409C29.5033 11.5434 29.3448 11.165 29.0635 10.9323C28.7665 10.6832 28.3565 10.568 27.8422 10.568Z" fill="#000000" class="bmwfcol"/><title>chart_co2_lt_48</title></svg>