<svg width="48" height="48" viewBox="0 0 32 32" xmlns="http://www.w3.org/2000/svg"><path d="M23.665 7.335V4H22.335V7.335H21.335V8C21.335 10.031 21.6204 11.4546 22.2593 12.3783C22.7987 13.1582 23.5324 13.5074 24.335 13.6208V23C24.335 24.3489 23.8882 25.4213 23.1547 26.1548C22.4212 26.8883 21.3488 27.335 20 27.335H16C14.6511 27.335 13.5787 26.8883 12.8452 26.1548C12.1117 25.4213 11.665 24.3489 11.665 23V21.6635C13.5661 21.6551 14.7042 21.6085 15.4158 21.522C15.8124 21.4738 16.1158 21.409 16.3599 21.3124C16.6281 21.2063 16.7981 21.0722 16.9352 20.9352C17.4303 20.4401 17.665 19.7569 17.665 19V6.99996C17.665 6.24302 17.4303 5.55981 16.9352 5.06473C16.7981 4.92769 16.6281 4.79362 16.3599 4.68749C16.1158 4.59088 15.8124 4.52614 15.4158 4.47794C14.6249 4.38181 13.3069 4.33496 11 4.33496C8.69303 4.33496 7.37506 4.38181 6.5841 4.47794C6.18755 4.52614 5.88409 4.59088 5.63999 4.68749C5.37186 4.79362 5.20178 4.92769 5.06473 5.06473C4.56966 5.55981 4.33496 6.24302 4.33496 6.99996V19C4.33496 19.7569 4.56966 20.4401 5.06473 20.9352C5.20178 21.0722 5.37186 21.2063 5.63999 21.3124C5.88409 21.409 6.18755 21.4738 6.5841 21.522C7.29569 21.6085 8.43385 21.6551 10.335 21.6635V23C10.335 24.6511 10.8882 26.0787 11.9047 27.0952C12.9212 28.1117 14.3488 28.665 16 28.665H20C21.6511 28.665 23.0787 28.1117 24.0952 27.0952C25.1117 26.0787 25.665 24.6511 25.665 23V13.6208C26.4675 13.5074 27.2012 13.1582 27.7406 12.3783C28.3795 11.4546 28.665 10.031 28.665 8V7.335H27.665V4H26.335V7.335H23.665ZM22.6769 8.665H27.323C27.2646 10.2178 26.998 11.1139 26.6468 11.6217C26.2949 12.1305 25.7942 12.335 25 12.335C24.2057 12.335 23.705 12.1305 23.3531 11.6217C23.0019 11.1139 22.7353 10.2178 22.6769 8.665ZM6.00519 6.00519C6.04064 5.96973 6.06244 5.95068 6.12946 5.92415C6.22052 5.88811 6.3955 5.84066 6.74457 5.79823C7.44487 5.71311 8.6869 5.66496 11 5.66496C13.313 5.66496 14.5551 5.71311 15.2554 5.79823C15.6044 5.84066 15.7794 5.88811 15.8705 5.92415C15.9375 5.95068 15.9593 5.96973 15.9947 6.00519C16.1897 6.20012 16.335 6.5169 16.335 6.99996V19C16.335 19.483 16.1897 19.7998 15.9947 19.9947C15.9593 20.0302 15.9375 20.0492 15.8705 20.0758C15.7794 20.1118 15.6044 20.1593 15.2554 20.2017C14.5551 20.2868 13.313 20.335 11 20.335C8.6869 20.335 7.44487 20.2868 6.74457 20.2017C6.3955 20.1593 6.22052 20.1118 6.12946 20.0758C6.06244 20.0492 6.04064 20.0302 6.00519 19.9947C5.81026 19.7998 5.66496 19.483 5.66496 19V6.99996C5.66496 6.5169 5.81026 6.20012 6.00519 6.00519Z" fill="#000000" class="bmwfcol"/><path d="M9.33496 8.5V12.665L11.335 12.665V14.835H10.2255L12 17.7925L13.7746 14.835H12.665V11.335L10.665 11.335V8.5H9.33496Z" fill="#000000" class="bmwfcol"/><title>charging_wallbox_lt_48</title></svg>