<svg width="48" height="48" viewBox="0 0 32 32" xmlns="http://www.w3.org/2000/svg"><path d="M8.94124 5.49992L11.4709 2.97024L10.5305 2.02979L8.00078 4.55947L7.001 3.55968L6.53077 4.02991C5.10547 5.45521 4.27822 6.62022 4.04972 7.68009C3.85224 8.59608 4.11439 9.34051 4.59797 9.97836C4.04704 10.5729 3.63157 11.1269 3.34364 11.7027C2.97811 12.4338 2.83686 13.1618 2.83594 13.9919V15.0001H4.16594V14.0001C4.16594 13.3337 4.27498 12.814 4.53323 12.2975C4.74233 11.8793 5.06065 11.4401 5.54142 10.9172C6.17513 11.3918 6.91397 11.647 7.82104 11.4514C8.88091 11.2229 10.0459 10.3957 11.4712 8.97036L11.9415 8.50013L10.9413 7.50001L13.4711 4.97024L12.5307 4.02979L10.0009 6.55956L8.94124 5.49992ZM7.00824 5.44783L10.0533 8.49289C8.9117 9.56315 8.11929 10.0266 7.54074 10.1513C6.98681 10.2707 6.53691 10.0956 5.97122 9.52991C5.40554 8.96422 5.23042 8.51432 5.34985 7.96039C5.47458 7.38184 5.93799 6.58943 7.00824 5.44783Z" fill="#000000" class="bmwfcol"/><path d="M10.3357 15.8219L13.1196 11H14.6553L13.6619 12.7206L15.2518 14.3105C16.1436 14.2324 16.8622 14.1732 17.4445 14.1525C18.0873 14.1296 18.6227 14.1502 19.0789 14.2694C19.9679 14.5015 20.4247 15.0772 20.8815 15.835L21.9132 15.835L25.6452 14.835H29.416L29.4156 17.3878L28.9228 17.5198C26.8464 18.0762 25.8602 18.3425 25.0592 18.6542C24.3207 18.9416 23.7369 19.2686 22.5715 19.9387L22.3663 20.7036L23.6835 21.0566C24.2082 20.0344 25.2729 19.335 26.5009 19.335C28.2489 19.335 29.6659 20.752 29.6659 22.5C29.6659 24.248 28.2489 25.665 26.5009 25.665C24.7529 25.665 23.3359 24.248 23.3359 22.5C23.3359 22.4468 23.3372 22.3939 23.3398 22.3414L22.0218 21.9882L21.7063 23.1649L18.2254 23.165L18.0307 22.9702C15.6451 20.5846 14.2229 19.2671 13.2516 18.5354L12.9442 19.6825C13.9665 20.2073 14.6659 21.2719 14.6659 22.5C14.6659 24.248 13.2489 25.665 11.5009 25.665C9.7529 25.665 8.33588 24.248 8.33588 22.5C8.33588 20.752 9.7529 19.335 11.5009 19.335C11.554 19.335 11.6069 19.3363 11.6594 19.3389L12.0659 17.8219C12.0013 17.7971 11.9402 17.7766 11.8819 17.7597C11.6106 17.6809 11.3581 17.665 11.0009 17.665H10.336L10.3357 15.8219ZM13.9179 14.8575L12.9735 13.913L11.6834 16.1475L13.9179 14.8575ZM13.7249 17.2357C14.7852 17.9747 16.2762 19.3411 18.7761 21.835L20.686 21.8349L21.4298 19.0612L21.7359 18.885C22.998 18.1587 23.6927 17.7589 24.5768 17.4148C25.3885 17.0989 26.3569 16.8312 28.0858 16.3672L28.0858 16.165H25.8203L22.0882 17.165L20.1169 17.165L19.925 16.8325C19.3795 15.8878 19.1662 15.6668 18.7429 15.5562C18.48 15.4876 18.1029 15.4599 17.4918 15.4817C16.9145 15.5022 16.1807 15.5639 15.2059 15.6496L13.12 16.8538C13.3113 16.9605 13.5114 17.0869 13.7249 17.2357ZM11.3012 20.6757C10.3817 20.7752 9.66588 21.554 9.66588 22.5C9.66588 23.5134 10.4874 24.335 11.5009 24.335C12.5143 24.335 13.3359 23.5134 13.3359 22.5C13.3359 21.8925 13.0407 21.354 12.5859 21.02L12.3233 22H10.9464L11.3012 20.6757ZM26.0009 23.0544L24.6766 22.6996C24.7761 23.6191 25.5549 24.335 26.5009 24.335C27.5143 24.335 28.3359 23.5134 28.3359 22.5C28.3359 21.4866 27.5143 20.665 26.5009 20.665C25.8934 20.665 25.3549 20.9602 25.0209 21.4149L26.0009 21.6775V23.0544Z" fill="#000000" class="bmwfcol"/><title>charging-motorcycle_lt_48</title></svg>