<svg width="48" height="48" viewBox="0 0 32 32" xmlns="http://www.w3.org/2000/svg"><path d="M11.4709 2.97024L8.94124 5.49992L10.0009 6.55956L12.5307 4.02979L13.4711 4.97024L10.9413 7.50001L11.9415 8.50013L11.4712 8.97036C10.0459 10.3957 8.88091 11.2229 7.82104 11.4514C6.91397 11.647 6.17513 11.3918 5.54142 10.9172C5.06065 11.4401 4.74233 11.8793 4.53323 12.2975C4.27498 12.814 4.16594 13.3337 4.16594 14.0001V15.0001H2.83594V13.9919C2.83686 13.1618 2.97811 12.4338 3.34364 11.7027C3.63157 11.1269 4.04704 10.5729 4.59797 9.97836C4.11439 9.34051 3.85224 8.59608 4.04972 7.68009C4.27822 6.62022 5.10547 5.45521 6.53077 4.02991L7.001 3.55968L8.00078 4.55947L10.5305 2.02979L11.4709 2.97024ZM7.00824 5.44783C5.93799 6.58943 5.47458 7.38184 5.34985 7.96039C5.23042 8.51432 5.40554 8.96422 5.97122 9.52991C6.53691 10.0956 6.98681 10.2707 7.54074 10.1513C8.11929 10.0266 8.9117 9.56315 10.0533 8.49289L7.00824 5.44783Z" fill="#000000" class="bmwfcol"/><path d="M8.59541 24.1485C8.50632 24.1396 8.40778 24.1257 8.29148 24.1043C7.99139 24.049 7.56578 23.9425 6.82876 23.745L6.33585 23.6129L6.33606 19.616L6.70097 19.4053C7.66861 18.8466 8.24223 18.5154 9.24228 18.2932C10.1709 18.0868 11.4859 17.9698 13.9353 17.7557C15.3001 16.625 16.296 15.9921 17.3516 15.6648C18.4158 15.3348 19.4912 15.3349 20.9258 15.335L21.0009 15.335C23.8935 15.335 25.4348 16.1491 28.001 17.632L29.9159 17.8592V19.2542C29.9159 19.5086 29.922 19.5843 29.9609 19.6804C30.0052 19.7895 30.1194 19.9782 30.4709 20.3297L30.6657 20.5245L30.6659 23.0839L30.3334 23.2759C29.6552 23.6674 29.2018 23.9175 28.7092 24.0441C28.3158 24.1451 27.9153 24.1618 27.3987 24.1645C26.9664 25.0528 26.0552 25.665 25.0009 25.665C23.9468 25.665 23.0356 25.053 22.6033 24.165H13.3984C12.9661 25.053 12.055 25.665 11.0009 25.665C9.94031 25.665 9.02443 25.0454 8.59541 24.1485ZM9.66588 23C9.66588 23.7373 10.2636 24.335 11.0009 24.335C11.7382 24.335 12.3359 23.7373 12.3359 23C12.3359 22.2627 11.7382 21.665 11.0009 21.665C10.2636 21.665 9.66588 22.2627 9.66588 23ZM8.34668 22.7584C8.46877 21.3997 9.61048 20.335 11.0009 20.335C12.4173 20.335 13.5756 21.44 13.6609 22.835H22.3409C22.4261 21.44 23.5844 20.335 25.0009 20.335C26.4158 20.335 27.5732 21.4377 27.6606 22.8306C27.992 22.8234 28.1889 22.8045 28.3783 22.7559C28.6148 22.6951 28.8585 22.5821 29.3358 22.3139L29.3357 21.0681C29.0454 20.7541 28.8467 20.472 28.7283 20.1798C28.5853 19.827 28.5856 19.5153 28.5859 19.2813L28.5859 19.0407L27.5722 18.9204L27.4536 18.8518C24.8466 17.3432 23.5639 16.665 21.0009 16.665C19.4731 16.665 18.5977 16.6709 17.7455 16.9351C16.9075 17.195 16.04 17.725 14.6285 18.9094L14.4679 19.0442L14.259 19.0624C11.6235 19.2928 10.3765 19.4035 9.53084 19.5915C8.836 19.7459 8.43095 19.9472 7.66602 20.3846L7.6659 22.5908C7.96734 22.6693 8.18292 22.7223 8.34668 22.7584ZM25.0009 21.665C24.2636 21.665 23.6659 22.2627 23.6659 23C23.6659 23.7373 24.2636 24.335 25.0009 24.335C25.7382 24.335 26.3359 23.7373 26.3359 23C26.3359 22.2627 25.7382 21.665 25.0009 21.665Z" fill="#000000" class="bmwfcol"/><title>charging-car_lt_48</title></svg>