<svg width="48" height="48" viewBox="0 0 32 32" xmlns="http://www.w3.org/2000/svg"><path d="M8.94124 5.49992L11.4709 2.97024L10.5305 2.02979L8.00078 4.55947L7.001 3.55968L6.53077 4.02991C5.10547 5.45521 4.27822 6.62022 4.04972 7.68009C3.85224 8.59608 4.11439 9.34051 4.59797 9.97836C4.04704 10.5729 3.63157 11.1269 3.34364 11.7027C2.97811 12.4338 2.83686 13.1618 2.83594 13.9919V15.0001H4.16594V14.0001C4.16594 13.3337 4.27498 12.814 4.53323 12.2975C4.74233 11.8793 5.06065 11.4401 5.54142 10.9172C6.17513 11.3918 6.91397 11.647 7.82104 11.4514C8.88091 11.2229 10.0459 10.3957 11.4712 8.97036L11.9415 8.50013L10.9413 7.50001L13.4711 4.97024L12.5307 4.02979L10.0009 6.55956L8.94124 5.49992ZM7.00824 5.44783L10.0533 8.49289C8.9117 9.56315 8.11929 10.0266 7.54074 10.1513C6.98681 10.2707 6.53691 10.0956 5.97122 9.52991C5.40554 8.96422 5.23042 8.51432 5.34985 7.96039C5.47458 7.38184 5.93799 6.58943 7.00824 5.44783Z" fill="#000000" class="bmwfcol"/><path d="M10.5009 17.335C10.7491 17.335 10.9923 17.3567 11.2286 17.3984L11.9174 14.8278C12.1196 14.0732 12.305 13.4697 12.5109 12.9991C12.7179 12.5258 12.9677 12.1338 13.3278 11.8515C13.6949 11.5639 14.1092 11.4428 14.5424 11.3872C14.9502 11.3349 15.4324 11.3349 15.9652 11.335L16.0009 11.335V12.665C15.4228 12.665 15.0253 12.6662 14.7117 12.7064C14.4143 12.7446 14.2597 12.811 14.1482 12.8984C14.0298 12.9912 13.8914 13.1617 13.7294 13.5321C13.6358 13.7461 13.5418 14.009 13.4409 14.335H20.8848L22.8206 17.6878C23.3345 17.461 23.903 17.335 24.5009 17.335C26.8011 17.335 28.6659 19.1997 28.6659 21.5C28.6659 23.8003 26.8011 25.665 24.5009 25.665C22.5904 25.665 20.9803 24.3786 20.4895 22.6248C19.4667 22.5214 18.7152 22.3071 18.0179 21.8393C17.2804 21.3445 16.6441 20.586 15.7846 19.5615L12.9357 16.1663L12.4876 17.8385C13.7852 18.544 14.6659 19.9192 14.6659 21.5C14.6659 23.8003 12.8011 25.665 10.5009 25.665C8.20061 25.665 6.33587 23.8003 6.33587 21.5C6.33587 19.1997 8.20061 17.335 10.5009 17.335ZM11.3726 22H9.99564L10.8824 18.6905C10.7576 18.6737 10.6303 18.665 10.5009 18.665C8.93514 18.665 7.66587 19.9343 7.66587 21.5C7.66587 23.0657 8.93514 24.335 10.5009 24.335C12.0666 24.335 13.3359 23.0657 13.3359 21.5C13.3359 20.54 12.8587 19.6914 12.1286 19.1785L11.3726 22ZM20.3422 21.2687C20.4041 20.138 20.9169 19.1275 21.704 18.4138L20.3862 16.1314L19.1 20.9315C19.4251 21.0896 19.8094 21.1975 20.3422 21.2687ZM17.9627 20.0374L19.1343 15.665H14.2512L16.7426 18.6341C17.2472 19.2355 17.6296 19.6884 17.9627 20.0374ZM22.3919 19.6054C21.9405 20.1075 21.6659 20.7717 21.6659 21.5C21.6659 23.0657 22.9351 24.335 24.5009 24.335C26.0666 24.335 27.3359 23.0657 27.3359 21.5C27.3359 19.9343 26.0666 18.665 24.5009 18.665C24.1453 18.665 23.8051 18.7304 23.4915 18.8499L25.3102 22H23.7745L22.3919 19.6054Z" fill="#000000" class="bmwfcol"/><path d="M19.0009 12.665H23.0009V11.335H19.0009V12.665Z" fill="#000000" class="bmwfcol"/><title>charging-bicycle_lt_48</title></svg>