<svg width="48" height="48" viewBox="0 0 32 32" xmlns="http://www.w3.org/2000/svg"><path d="M20.9991 14.3349C19.9061 14.3349 18.9959 14.0411 18.3028 13.5437L17.5273 14.6243C18.4745 15.304 19.6645 15.6649 20.9991 15.6649C22.3337 15.6649 23.5237 15.304 24.4709 14.6243L23.6954 13.5437C23.0023 14.0411 22.0921 14.3349 20.9991 14.3349Z" fill="#000000" class="bmwfcol"/><path d="M18.999 8.83496C18.3556 8.83496 17.834 9.35655 17.834 9.99996C17.834 10.6434 18.3556 11.165 18.999 11.165C19.6424 11.165 20.164 10.6434 20.164 9.99996C20.164 9.35655 19.6424 8.83496 18.999 8.83496Z" fill="#000000" class="bmwfcol"/><path d="M22.999 8.83496C22.3556 8.83496 21.834 9.35655 21.834 9.99996C21.834 10.6434 22.3556 11.165 22.999 11.165C23.6424 11.165 24.164 10.6434 24.164 9.99996C24.164 9.35655 23.6424 8.83496 22.999 8.83496Z" fill="#000000" class="bmwfcol"/><path d="M15.4538 6.45474C16.8203 5.08824 18.7479 4.33496 20.999 4.33496C23.2501 4.33496 25.1777 5.08824 26.5442 6.45474C27.9107 7.82123 28.664 9.74884 28.664 12C28.664 14.2511 27.9107 16.1787 26.5442 17.5452C25.1777 18.9117 23.2501 19.665 20.999 19.665C18.7479 19.665 16.8203 18.9117 15.4538 17.5452C14.0873 16.1787 13.334 14.2511 13.334 12C13.334 9.74884 14.0873 7.82123 15.4538 6.45474ZM16.3942 7.39519C15.3107 8.47869 14.664 10.0511 14.664 12C14.664 13.9488 15.3107 15.5212 16.3942 16.6047C17.4777 17.6882 19.0501 18.335 20.999 18.335C22.9479 18.335 24.5203 17.6882 25.6038 16.6047C26.6873 15.5212 27.334 13.9488 27.334 12C27.334 10.0511 26.6873 8.47869 25.6038 7.39519C24.5203 6.31169 22.9479 5.66496 20.999 5.66496C19.0501 5.66496 17.4777 6.31169 16.3942 7.39519Z" fill="#000000" class="bmwfcol"/><path d="M5.99757 9.9404L9.9678 5.97018L9.02734 5.02972L5.99757 8.0595L4.4678 6.52972L3.52734 7.47018L5.99757 9.9404Z" fill="#000000" class="bmwfcol"/><path d="M13.998 24.665L27.998 24.665V23.335L13.998 23.335V24.665Z" fill="#000000" class="bmwfcol"/><path d="M9.9678 13.9702L5.99757 17.9404L3.52734 15.4702L4.4678 14.5297L5.99757 16.0595L9.02734 13.0297L9.9678 13.9702Z" fill="#000000" class="bmwfcol"/><path d="M5.99757 25.9404L9.9678 21.9702L9.02734 21.0297L5.99757 24.0595L4.4678 22.5297L3.52734 23.4702L5.99757 25.9404Z" fill="#000000" class="bmwfcol"/><title>checklist-smiley_lt_48</title></svg>