<svg width="48" height="48" viewBox="0 0 32 32" xmlns="http://www.w3.org/2000/svg"><path d="M26.4697 10.4702L24.4697 12.4702L23.5293 11.5298L25.5293 9.52979L26.4697 10.4702ZM23.4697 13.4702L21.4697 15.4702L20.5293 14.5298L22.5293 12.5298L23.4697 13.4702ZM6.46975 15.5298L8.46975 17.5298L7.5293 18.4702L5.5293 16.4702L6.46975 15.5298ZM20.4697 16.4702L18.4697 18.4702L17.5293 17.5298L19.5293 15.5298L20.4697 16.4702ZM9.46975 18.5298L11.4697 20.5298L10.5293 21.4702L8.5293 19.4702L9.46975 18.5298ZM17.4697 19.4702L15.4697 21.4702L14.5293 20.5298L16.5293 18.5298L17.4697 19.4702ZM11.5293 22.4702L12.4697 21.5298L12.9995 22.0596L13.5293 21.5298L14.4697 22.4702L12.9995 23.9405L11.5293 22.4702Z" fill="#000000" class="bmwfcol"/><title>checkmark-dashed_lt_48</title></svg>