<svg width="48" height="48" viewBox="0 0 32 32" xmlns="http://www.w3.org/2000/svg"><path d="M27.2562 3.63411H26.1302V7.44662C26.1302 8.21528 26.136 8.49509 26.2471 8.83861C26.3697 9.21732 26.6238 9.68052 27.2351 10.7393L29.712 15.0293L29.7123 15.7815L29.5174 15.9764L29.4651 16.029C29.2188 16.2765 28.9629 16.5338 28.5859 16.6594C28.3909 16.7244 28.1915 16.7474 27.9907 16.7579C27.7959 16.7682 27.5572 16.7682 27.2735 16.7682H21.8388V15.4382H27.2562C27.5618 15.4382 27.7652 15.438 27.9208 15.4298C28.0746 15.4217 28.1364 15.4073 28.1653 15.3977C28.1938 15.3882 28.2179 15.3794 28.3227 15.2831L26.7638 12.583C25.3113 12.5369 24.5042 12.2366 23.7393 11.9498L23.7279 11.9455C23.177 11.7389 22.6501 11.5413 21.8361 11.4492L20.4904 13.7801L19.7776 12.3546L20.7102 10.7393C21.3215 9.68052 21.5757 9.21732 21.6982 8.83861C21.8094 8.49509 21.8152 8.21528 21.8152 7.44662V3.63411H20.6892V2.30411H27.2562V3.63411ZM23.1452 3.63411L23.1452 7.50972C23.1453 8.19978 23.1454 8.68617 22.9636 9.2481C22.8708 9.53484 22.7316 9.8381 22.5353 10.2087C23.2137 10.3332 23.7186 10.5216 24.2063 10.7045L24.2176 10.7087C24.7335 10.9022 25.2283 11.0877 25.9575 11.1862C25.4506 10.3058 25.1446 9.75149 24.9817 9.2481C24.7999 8.68617 24.8 8.19978 24.8002 7.50972L24.8002 3.63411H23.1452Z" fill="#000000" class="bmwfcol"/><path d="M11.8841 11.0716C12.1972 10.5294 12.9797 10.5294 13.2928 11.0716L16.6088 16.8152L14.1013 16.1433L14.9145 17.5518L18.3257 18.4658L19.2418 15.0469L18.4286 13.6385L17.7572 16.1443L14.4446 10.4066C13.6197 8.97784 11.5574 8.97798 10.7323 10.4066L8.15442 14.8678L9.30598 15.5332L11.8841 11.0716Z" fill="#000000" class="bmwfcol"/><path d="M3.77614 25.1151L7.08789 19.379L7.75672 21.875L8.56989 20.4666L7.65585 17.0554L4.23694 17.9715L3.42377 19.3799L5.94099 18.7054L2.62432 24.4501C1.79938 25.8789 2.83056 27.665 4.48044 27.665H9.63194V26.335H4.48044C3.85439 26.335 3.46311 25.6573 3.77614 25.1151Z" fill="#000000" class="bmwfcol"/><path d="M22.5526 24.4501L19.9793 19.9889L18.8272 20.6535L21.4008 25.1151C21.7138 25.6573 21.3225 26.335 20.6965 26.335H14.0676L15.9026 24.5H14.2763L11.7763 27L14.2763 29.5H15.9026L14.0676 27.665H20.6965C22.3463 27.665 23.3775 25.8789 22.5526 24.4501Z" fill="#000000" class="bmwfcol"/><title>chemical_recycling_lt_48</title></svg>