<svg width="48" height="48" viewBox="0 0 32 32" xmlns="http://www.w3.org/2000/svg"><path d="M13.9899 13.1053H15.2027L17.4447 19.1H16.2382L15.7559 17.8015H13.4222L12.9399 19.1H11.7638L13.9899 13.1053ZM13.8079 16.7189H15.3635L14.5884 14.6104L13.8079 16.7189Z" fill="#000000" class="bmwfcol"/><path d="M19.5598 13.1053H18.4475V19.1H19.5598V13.1053Z" fill="#000000" class="bmwfcol"/><path d="M17.335 5.335H14.665V3H13.335V5.335H10.665V3H9.33496V5.335H6.72451L5.33496 6.72455V9.335H3V10.665H5.33496V13.335H3V14.665H5.33496V17.335H3V18.665H5.33496V21.335H3V22.665H5.33496V25.2755L6.72451 26.665H9.33496V29H10.665V26.665H13.335V29H14.665V26.665H17.335V29H18.665V26.665H21.335V29H22.665V26.665H25.2754L26.665 25.2755V22.665H29V21.335H26.665V18.665H29V17.335H26.665V14.665H29V13.335H26.665V10.665H29V9.335H26.665V6.72455L25.2754 5.335H22.665V3H21.335V5.335H18.665V3H17.335V5.335ZM7.27541 6.665H24.7245L25.335 7.27545V24.7245L24.7245 25.335H7.27541L6.66496 24.7245V7.27545L7.27541 6.665Z" fill="#000000" class="bmwfcol"/><title>chip_with_ai_lt_48</title></svg>