<svg width="48" height="48" viewBox="0 0 32 32" xmlns="http://www.w3.org/2000/svg"><path d="M3.9395 3L29.9395 29H28.0586L2.05859 3H3.9395Z" fill="#000000" class="bmwfcol"/><path d="M23.164 6H21.834C21.8343 8.27514 23.0048 9.44544 24.0068 10.4474L24.0288 10.4694C25.0218 11.4624 25.834 12.2925 25.834 14L27.164 13.999C27.164 11.7234 25.9934 10.553 24.9912 9.5509L24.9692 9.5289C23.9764 8.53608 23.1643 7.707 23.164 6Z" fill="#000000" class="bmwfcol"/><path d="M24.664 15.335H18.8682L20.1982 16.665H23.334V19.335H22.8682L24.1982 20.665H24.664V15.335Z" fill="#000000" class="bmwfcol"/><path d="M5.66398 19.335H15.7971L17.1271 20.665H4.33398V15.335H11.7971L13.1271 16.665H5.66398V19.335Z" fill="#000000" class="bmwfcol"/><path d="M27.164 20.665V15.335H25.834V20.665H27.164Z" fill="#000000" class="bmwfcol"/><title>cigarette_crossed_out_lt_48</title></svg>