<svg width="48" height="48" viewBox="0 0 32 32" xmlns="http://www.w3.org/2000/svg"><path d="M20.3736 3.24853C21.0842 2.53798 22.0448 2.33501 23.0001 2.33501C23.9553 2.33501 24.916 2.53798 25.6266 3.24853C26.335 3.95695 26.6651 5.04011 26.6651 6.50001C26.6651 7.9599 26.335 9.04307 25.6266 9.75148C24.916 10.462 23.9553 10.665 23.0001 10.665C22.0448 10.665 21.0842 10.462 20.3736 9.75148C19.6652 9.04307 19.3351 7.9599 19.3351 6.50001C19.3351 5.04011 19.6652 3.95695 20.3736 3.24853ZM21.3141 4.18898C20.96 4.54307 20.6651 5.2099 20.6651 6.50001C20.6651 7.79011 20.96 8.45695 21.3141 8.81103C21.666 9.16298 22.2053 9.33501 23.0001 9.33501C23.7948 9.33501 24.3342 9.16298 24.6861 8.81103C25.0402 8.45695 25.3351 7.79011 25.3351 6.50001C25.3351 5.2099 25.0402 4.54307 24.6861 4.18898C24.3342 3.83703 23.7948 3.66501 23.0001 3.66501C22.2053 3.66501 21.666 3.83703 21.3141 4.18898Z" fill="#000000" class="bmwfcol"/><path d="M9.94531 9.94523C9.24137 10.6492 8.67893 11.5072 8.28877 12.5H6.87488C7.32421 11.1462 8.04527 9.96437 9.00486 9.00478C10.7214 7.28828 13.149 6.33501 16.0001 6.33501C16.5144 6.33501 17.015 6.36603 17.5001 6.42696V7.76864C17.0208 7.70029 16.5204 7.66501 16.0001 7.66501C13.4512 7.66501 11.3788 8.51173 9.94531 9.94523Z" fill="#000000" class="bmwfcol"/><path d="M14.5001 24.2314V25.573C14.9852 25.634 15.4857 25.665 16.0001 25.665C18.8512 25.665 21.2788 24.7117 22.9953 22.9952C24.4022 21.5884 25.2963 19.7039 25.5731 17.5H24.2314C23.9649 19.3684 23.1957 20.9139 22.0549 22.0548C20.6214 23.4883 18.549 24.335 16.0001 24.335C15.4798 24.335 14.9793 24.2997 14.5001 24.2314Z" fill="#000000" class="bmwfcol"/><path d="M16.8116 16H18.1893C18.57 14.6311 18.8807 14.1962 19.3407 13.9736C19.6146 13.841 20.0021 13.7549 20.6145 13.7101C21.2252 13.6654 21.9908 13.665 23 13.665C24.0092 13.665 24.7748 13.6654 25.3855 13.7101C25.998 13.7549 26.3854 13.841 26.6594 13.9736C27.1194 14.1962 27.43 14.6311 27.8108 16H29.1884L29.1424 15.8282C28.7426 14.3332 28.3095 13.2947 27.2389 12.7764C26.7381 12.534 26.151 12.4326 25.4826 12.3837C24.8179 12.335 24.0042 12.335 23.0242 12.335H22.9759C21.9959 12.335 21.1822 12.335 20.5175 12.3837C19.849 12.4326 19.262 12.534 18.7612 12.7764C17.6905 13.2947 17.2575 14.3332 16.8576 15.8282L16.8116 16Z" fill="#000000" class="bmwfcol"/><path d="M4.01841 15.0673C4.51899 14.5416 5.22229 14.3359 5.99996 14.3359H9.99996C10.7776 14.3359 11.4809 14.5416 11.9815 15.0673C12.4763 15.5868 12.665 16.3063 12.665 17.1009V26.9009C12.665 27.6955 12.4763 28.415 11.9815 28.9345C11.4809 29.4601 10.7776 29.6659 9.99996 29.6659H5.99996C5.22229 29.6659 4.51899 29.4601 4.01841 28.9345C3.5236 28.415 3.33496 27.6955 3.33496 26.9009V17.1009C3.33496 16.3063 3.5236 15.5868 4.01841 15.0673ZM4.98151 15.9845C4.80965 16.165 4.66496 16.4955 4.66496 17.1009V25.3368H11.335V17.1009C11.335 16.4955 11.1903 16.165 11.0184 15.9845C10.8523 15.8101 10.5556 15.6659 9.99996 15.6659H5.99996C5.4443 15.6659 5.14759 15.8101 4.98151 15.9845ZM4.66496 26.9009C4.66496 27.5063 4.80965 27.8368 4.98151 28.0173C5.14759 28.1916 5.4443 28.3359 5.99996 28.3359H9.99996C10.5556 28.3359 10.8523 28.1916 11.0184 28.0173C11.1903 27.8368 11.335 27.5063 11.335 26.9009V26.6668H4.66496V26.9009Z" fill="#000000" class="bmwfcol"/><title>circle_with_person_and_mobile_phone_lt_48</title></svg>