<svg width="48" height="48" viewBox="0 0 32 32" xmlns="http://www.w3.org/2000/svg"><path d="M4.65047 13C5.12369 10.8443 6.11898 8.99143 7.55567 7.55473C9.62217 5.48824 12.5498 4.33496 16.0009 4.33496C21.2524 4.33496 23.9624 6.97444 27.3359 10.3851V6.335L28.6659 7.665V12.665H23.6659L22.3359 11.335H26.4026C23.0062 7.91129 20.6759 5.66496 16.0009 5.66496C12.852 5.66496 10.2796 6.71169 8.49612 8.49519C7.31822 9.67309 6.4617 11.1951 6.01582 13H4.65047Z" fill="#000000" class="bmwfcol"/><path d="M23.5058 23.5048C24.6837 22.3269 25.5402 20.8049 25.986 19H27.3514C26.8782 21.1557 25.8829 23.0086 24.4462 24.4453C22.3797 26.5118 19.4521 27.665 16.001 27.665C10.7495 27.665 8.03946 25.0256 4.66594 21.6149V25.665L3.33594 24.335V19.335H8.33594L9.66594 20.665H5.5993C8.99571 24.0887 11.326 26.335 16.001 26.335C19.1499 26.335 21.7222 25.2883 23.5058 23.5048Z" fill="#000000" class="bmwfcol"/><path d="M9.33594 10.335H10.0009C11.5021 10.335 12.8047 10.8382 13.7337 11.7672C14.6627 12.6962 15.1659 13.9988 15.1659 15.5V15.9134C16.0477 15.2166 17.1964 14.835 18.5014 14.835H23.6664V15.5C23.6664 17.0012 23.1631 18.3038 22.2341 19.2328C21.3052 20.1618 20.0025 20.665 18.5014 20.665H14.5014C13.0003 20.665 11.6972 20.1617 10.7682 19.2327C9.83921 18.3037 9.33594 17.0011 9.33594 15.5V10.335ZM15.1659 19.335H18.5014C19.7003 19.335 20.6477 18.9383 21.2937 18.2923C21.8152 17.7709 22.1742 17.053 22.2932 16.165H18.5014C16.9267 16.165 15.7732 16.8464 15.1659 17.9266V19.335ZM10.6659 11.7081V15.5C10.6659 16.6988 11.0627 17.6462 11.7087 18.2922C12.2301 18.8137 12.948 19.1727 13.8359 19.2918V15.5C13.8359 14.3011 13.4392 13.3537 12.7932 12.7077C12.2718 12.1862 11.5539 11.8272 10.6659 11.7081Z" fill="#000000" class="bmwfcol"/><title>circular_arrows_and_plant_lt_48</title></svg>