<svg width="48" height="48" viewBox="0 0 32 32" xmlns="http://www.w3.org/2000/svg"><path d="M24.335 3.09999C24.335 2.67749 24.6775 2.33499 25.1 2.33499H28.9C29.3225 2.33499 29.665 2.67749 29.665 3.09999V10.4C29.665 10.8225 29.3225 11.165 28.9 11.165H25.665V14.665H24.335V3.09999ZM25.665 3.66499V9.83499H28.335V3.66499H25.665Z" fill="#000000" class="bmwfcol"/><path d="M12.1 5.83499C11.6775 5.83499 11.335 6.17749 11.335 6.59999V14.665H22.665V6.59999C22.665 6.17749 22.3225 5.83499 21.9 5.83499H12.1ZM12.665 13.335V7.16499H21.335V13.335H19.665V10.6C19.665 10.1775 19.3225 9.83499 18.9 9.83499L15.1 9.83499C14.6775 9.83499 14.335 10.1775 14.335 10.6V13.335H12.665ZM18.335 11.165V13.335H15.665V11.165L18.335 11.165Z" fill="#000000" class="bmwfcol"/><path d="M13.2 21.375C14.29 21.375 15.1111 21.5283 15.9252 21.8441C16.6669 22.1319 17.3935 22.5528 18.2808 23.0668L18.3324 23.0967L19.825 23.2273L19.825 24.4C19.825 24.5443 19.8285 24.5884 19.8553 24.6554C19.8872 24.7351 19.9746 24.8908 20.242 25.1581L20.425 25.3411L20.4252 27.5108L20.1127 27.6913C19.5957 27.9897 19.2297 28.1808 18.8525 28.2796C18.5448 28.3602 18.2504 28.3728 17.9138 28.3747C17.5699 29.0851 16.8422 29.575 16 29.575C15.1579 29.575 14.4303 29.0852 14.0863 28.375H8.41365C8.06972 29.0852 7.34206 29.575 6.5 29.575C5.60868 29.575 4.84553 29.0262 4.52998 28.2482L4.53002 28.375C4.35245 28.375 4.20334 28.375 3.94511 28.3274C3.71426 28.2849 3.3902 28.2036 2.83826 28.0557L2.375 27.9316L2.37516 24.6392L2.71715 24.4417C3.43964 24.0245 3.88463 23.7676 4.65369 23.5967C5.35507 23.4408 6.34269 23.3525 8.15043 23.1945C9.14979 22.3665 9.86692 21.885 10.6179 21.6326C11.3849 21.3748 12.1414 21.3749 13.1298 21.375L13.2 21.375ZM18.0997 27.1213C18.2942 27.1158 18.4135 27.1024 18.5358 27.0704C18.6872 27.0308 18.8617 26.9565 19.1751 26.7851L19.175 25.8493C18.9452 25.5931 18.7895 25.3567 18.6947 25.1196C18.5748 24.8198 18.5749 24.5692 18.575 24.4125L18.575 24.3727L17.9467 24.3177L17.6973 24.1734C16.7671 23.6349 16.1212 23.261 15.473 23.0095C14.8204 22.7563 14.1551 22.625 13.2 22.625C12.123 22.625 11.5697 22.6313 11.0162 22.8174C10.466 23.0024 9.86728 23.3848 8.80189 24.2788L8.65091 24.4055L8.45458 24.4226C6.47305 24.5959 5.5488 24.6782 4.92489 24.8169C4.44133 24.9244 4.15474 25.0609 3.62513 25.3618L3.62505 26.9704C3.89089 27.0387 4.05447 27.0765 4.17153 27.0981C4.26815 27.1159 4.32705 27.1219 4.39986 27.124C4.55674 26.1051 5.43726 25.325 6.5 25.325C7.5631 25.325 8.44386 26.1057 8.6003 27.125H13.8997C14.0561 26.1057 14.9369 25.325 16 25.325C17.0618 25.325 17.9417 26.1038 18.0997 27.1213ZM6.5 26.575C6.01675 26.575 5.625 26.9668 5.625 27.45C5.625 27.9333 6.01675 28.325 6.5 28.325C6.98325 28.325 7.375 27.9333 7.375 27.45C7.375 26.9668 6.98325 26.575 6.5 26.575ZM16 26.575C15.5168 26.575 15.125 26.9668 15.125 27.45C15.125 27.9333 15.5168 28.325 16 28.325C16.4832 28.325 16.875 27.9333 16.875 27.45C16.875 26.9668 16.4832 26.575 16 26.575Z" fill="#000000" class="bmwfcol"/><path d="M9.50001 8.54749V10.4339C8.33813 11.8338 7.66508 13.7275 7.66508 16C7.66508 17.739 8.05923 19.2562 8.76495 20.5001H7.27052C6.65947 19.1822 6.33508 17.6632 6.33508 16C6.33508 13.1489 7.28836 10.7213 9.00486 9.00476C9.16388 8.84573 9.32901 8.69326 9.50001 8.54749Z" fill="#000000" class="bmwfcol"/><path d="M21.5 24.1868V22.5543C21.6943 22.3969 21.8794 22.2302 22.0549 22.0548C23.3934 20.7162 24.2204 18.8205 24.324 16.5H25.6552C25.55 19.135 24.6106 21.38 22.9953 22.9952C22.5442 23.4463 22.0441 23.8446 21.5 24.1868Z" fill="#000000" class="bmwfcol"/><title>circle_with_dealer_and_car_lt_48</title></svg>