<svg width="48" height="48" viewBox="0 0 32 32" xmlns="http://www.w3.org/2000/svg"><path d="M20.3735 3.24852C21.084 2.53797 22.0447 2.335 23 2.335C23.9552 2.335 24.9159 2.53797 25.6264 3.24852C26.3349 3.95694 26.665 5.0401 26.665 6.5C26.665 7.9599 26.3349 9.04306 25.6264 9.75147C24.9159 10.462 23.9552 10.665 23 10.665C22.0447 10.665 21.084 10.462 20.3735 9.75147C19.6651 9.04306 19.335 7.9599 19.335 6.5C19.335 5.0401 19.6651 3.95694 20.3735 3.24852ZM21.3139 4.18898C20.9599 4.54306 20.665 5.2099 20.665 6.5C20.665 7.7901 20.9599 8.45694 21.3139 8.81102C21.6659 9.16297 22.2052 9.335 23 9.335C23.7947 9.335 24.334 9.16297 24.686 8.81102C25.0401 8.45694 25.335 7.7901 25.335 6.5C25.335 5.2099 25.0401 4.54306 24.686 4.18898C24.334 3.83703 23.7947 3.665 23 3.665C22.2052 3.665 21.6659 3.83703 21.3139 4.18898Z" fill="#000000" class="bmwfcol"/><path d="M7.66508 16C7.66508 17.739 8.05921 19.2562 8.76491 20.5H7.27048C6.65946 19.1822 6.33508 17.6631 6.33508 16C6.33508 13.1489 7.28836 10.7213 9.00486 9.00477C10.7214 7.28827 13.149 6.335 16.0001 6.335C16.5144 6.335 17.015 6.36602 17.5001 6.42695V7.76864C17.0208 7.70028 16.5204 7.665 16.0001 7.665C13.4512 7.665 11.3788 8.51172 9.94531 9.94522C8.51181 11.3787 7.66508 13.4511 7.66508 16Z" fill="#000000" class="bmwfcol"/><path d="M21.5 22.5543V24.1868C22.0441 23.8446 22.5443 23.4463 22.9953 22.9952C24.4022 21.5884 25.2963 19.7039 25.5731 17.5H24.2314C23.9649 19.3684 23.1957 20.9139 22.0549 22.0548C21.8794 22.2302 21.6944 22.3969 21.5 22.5543Z" fill="#000000" class="bmwfcol"/><path d="M16.8116 16H18.1893C18.57 14.6311 18.8807 14.1962 19.3407 13.9736C19.6146 13.841 20.0021 13.7549 20.6145 13.7101C21.2252 13.6654 21.9908 13.665 23 13.665C24.0092 13.665 24.7748 13.6654 25.3855 13.7101C25.998 13.7549 26.3854 13.841 26.6594 13.9736C27.1194 14.1962 27.43 14.6311 27.8108 16H29.1884L29.1424 15.8282C28.7426 14.3332 28.3095 13.2947 27.2389 12.7764C26.7381 12.534 26.151 12.4326 25.4826 12.3836C24.8179 12.335 24.0042 12.335 23.0242 12.335H22.9759C21.9959 12.335 21.1822 12.335 20.5175 12.3836C19.849 12.4326 19.262 12.534 18.7612 12.7764C17.6905 13.2947 17.2575 14.3332 16.8576 15.8282L16.8116 16Z" fill="#000000" class="bmwfcol"/><path d="M13.1298 21.375C12.1414 21.3748 11.3849 21.3747 10.6179 21.6326C9.86692 21.885 9.14979 22.3665 8.15043 23.1944C6.34269 23.3525 5.35507 23.4408 4.65369 23.5966C3.88463 23.7676 3.43964 24.0245 2.71715 24.4417L2.37516 24.6391L2.375 27.9316L2.83826 28.0557C3.3902 28.2036 3.71426 28.2849 3.94511 28.3274C4.20334 28.375 4.35245 28.375 4.53002 28.375L4.52998 28.2481C4.84553 29.0262 5.60868 29.575 6.5 29.575C7.34206 29.575 8.06972 29.0852 8.41365 28.375H14.0863C14.4303 29.0852 15.1579 29.575 16 29.575C16.8422 29.575 17.5699 29.0851 17.9138 28.3747C18.2504 28.3728 18.5448 28.3602 18.8525 28.2796C19.2297 28.1808 19.5957 27.9897 20.1127 27.6913L20.4252 27.5108L20.425 25.3411L20.242 25.1581C19.9746 24.8907 19.8872 24.7351 19.8553 24.6554C19.8285 24.5883 19.825 24.5443 19.825 24.4L19.825 23.2273L18.3324 23.0967L18.2808 23.0668C17.3935 22.5528 16.6669 22.1319 15.9252 21.8441C15.1111 21.5283 14.29 21.375 13.2 21.375L13.1298 21.375ZM18.5358 27.0704C18.4135 27.1024 18.2942 27.1158 18.0997 27.1213C17.9417 26.1038 17.0618 25.325 16 25.325C14.9369 25.325 14.0561 26.1057 13.8997 27.125H8.6003C8.44386 26.1057 7.5631 25.325 6.5 25.325C5.43726 25.325 4.55674 26.1051 4.39986 27.124C4.32705 27.1219 4.26815 27.1159 4.17153 27.0981C4.05447 27.0765 3.89089 27.0387 3.62505 26.9704L3.62513 25.3618C4.15474 25.0609 4.44133 24.9243 4.92489 24.8169C5.5488 24.6782 6.47305 24.5959 8.45458 24.4226L8.65091 24.4055L8.80189 24.2788C9.86728 23.3848 10.466 23.0024 11.0162 22.8174C11.5697 22.6313 12.123 22.625 13.2 22.625C14.1551 22.625 14.8204 22.7563 15.473 23.0095C16.1212 23.2609 16.7671 23.6349 17.6973 24.1734L17.9467 24.3177L18.575 24.3727L18.575 24.4125C18.5749 24.5692 18.5748 24.8198 18.6947 25.1196C18.7895 25.3566 18.9452 25.5931 19.175 25.8492L19.1751 26.7851C18.8617 26.9565 18.6872 27.0307 18.5358 27.0704ZM5.625 27.45C5.625 26.9667 6.01675 26.575 6.5 26.575C6.98325 26.575 7.375 26.9667 7.375 27.45C7.375 27.9332 6.98325 28.325 6.5 28.325C6.01675 28.325 5.625 27.9332 5.625 27.45ZM15.125 27.45C15.125 26.9667 15.5168 26.575 16 26.575C16.4832 26.575 16.875 26.9667 16.875 27.45C16.875 27.9332 16.4832 28.325 16 28.325C15.5168 28.325 15.125 27.9332 15.125 27.45Z" fill="#000000" class="bmwfcol"/><title>circle_with_person_and_car_lt_48</title></svg>