<svg width="48" height="48" viewBox="0 0 32 32" xmlns="http://www.w3.org/2000/svg"><path d="M19.165 7.33496H12.835V10.5C12.835 10.912 12.8693 11.2164 12.9314 11.4755C12.9842 11.6952 13.0557 11.8706 13.1091 12.0015L13.1325 12.0594C13.2227 12.2849 13.335 12.5749 13.335 13.5C13.335 14.425 13.2227 14.715 13.1325 14.9405L13.1091 14.9984C13.0557 15.1293 12.9842 15.3047 12.9314 15.5245C12.8693 15.7835 12.835 16.0879 12.835 16.5V24.665H19.165V16.5C19.165 16.0879 19.1306 15.7835 19.0685 15.5245C19.0157 15.3047 18.9442 15.1293 18.8909 14.9984L18.8674 14.9405C18.7772 14.715 18.665 14.425 18.665 13.5C18.665 12.5749 18.7772 12.2849 18.8674 12.0594L18.8909 12.0015C18.9442 11.8707 19.0157 11.6952 19.0685 11.4755C19.1306 11.2164 19.165 10.912 19.165 10.5V7.33496ZM14.165 10.335V8.66496H17.835V10.335H14.165ZM14.4061 11.665H17.5938C17.4511 12.0443 17.335 12.5129 17.335 13.5C17.335 14.5749 17.4727 15.0349 17.6325 15.4344L17.6628 15.5096C17.7152 15.6392 17.7474 15.719 17.7752 15.8348C17.8068 15.9664 17.835 16.162 17.835 16.5V23.335H14.165V16.5C14.165 16.162 14.1931 15.9664 14.2247 15.8348C14.2525 15.719 14.2848 15.6392 14.3371 15.5096L14.3674 15.4344C14.5272 15.0349 14.665 14.5749 14.665 13.5C14.665 12.5129 14.5488 12.0443 14.4061 11.665Z" fill="#000000" class="bmwfcol"/><title>cleaner_bottle_50ml_lt_48</title></svg>