<svg width="48" height="48" viewBox="0 0 32 32" xmlns="http://www.w3.org/2000/svg"><path d="M19.665 4.33496H12.335V9.49996C12.335 10.2906 12.4638 10.7366 12.5838 11.1523L12.6105 11.2452C12.7221 11.6354 12.835 12.0733 12.835 13C12.835 13.9267 12.7221 14.3645 12.6105 14.7548L12.5838 14.8476C12.4638 15.2633 12.335 15.7093 12.335 16.5V28.665H19.665V16.5C19.665 15.7093 19.5362 15.2633 19.4161 14.8476L19.3894 14.7548C19.2779 14.3645 19.165 13.9267 19.165 13C19.165 12.0733 19.2779 11.6354 19.3894 11.2452L19.4161 11.1523C19.5362 10.7366 19.665 10.2906 19.665 9.49996V4.33496ZM13.665 8.33496V5.66496H18.335V8.33496H13.665ZM13.6673 9.66496H18.3326C18.3181 10.16 18.2377 10.4388 18.1377 10.7852L18.1105 10.8798C17.9721 11.3645 17.835 11.9267 17.835 13C17.835 14.0733 17.9721 14.6354 18.1105 15.1202L18.1377 15.2147C18.2483 15.5978 18.335 15.8982 18.335 16.5V27.335H13.665V16.5C13.665 15.8982 13.7516 15.5978 13.8622 15.2147L13.8894 15.1202C14.0279 14.6354 14.165 14.0733 14.165 13C14.165 11.9267 14.0279 11.3645 13.8894 10.8798L13.8622 10.7852C13.7622 10.4388 13.6818 10.16 13.6673 9.66496Z" fill="#000000" class="bmwfcol"/><title>cleaner_bottle_250ml_lt_48</title></svg>