<svg width="48" height="48" viewBox="0 0 32 32" xmlns="http://www.w3.org/2000/svg"><path d="M20.665 2.33496H11.335V7.49996C11.335 8.29058 11.4638 8.7366 11.5838 9.15232L11.6105 9.24515C11.7221 9.63542 11.835 10.0733 11.835 11C11.835 11.9267 11.7221 12.3645 11.6105 12.7548L11.5838 12.8476C11.4638 13.2633 11.335 13.7093 11.335 14.5V29.665H20.665V14.5C20.665 13.7093 20.5362 13.2633 20.4161 12.8476L20.3894 12.7548C20.2779 12.3645 20.165 11.9267 20.165 11C20.165 10.0733 20.2779 9.63542 20.3894 9.24515L20.4161 9.15232C20.5362 8.73659 20.665 8.29058 20.665 7.49996V2.33496ZM12.665 7.33496V3.66496H19.335V7.33496H12.665ZM12.8277 8.66496H19.1722C19.1611 8.70442 19.1495 8.74436 19.1377 8.78523L19.1105 8.87977C18.9721 9.3645 18.835 9.92667 18.835 11C18.835 12.0733 18.9721 12.6354 19.1105 13.1202L19.1377 13.2147C19.2483 13.5978 19.335 13.8982 19.335 14.5V28.335H12.665V14.5C12.665 13.8982 12.7516 13.5978 12.8622 13.2147L12.8894 13.1202C13.0279 12.6354 13.165 12.0733 13.165 11C13.165 9.92667 13.0279 9.3645 12.8894 8.87977L12.8622 8.78523C12.8504 8.74436 12.8389 8.70442 12.8277 8.66496Z" fill="#000000" class="bmwfcol"/><title>cleaner_bottle_500ml_1000ml_lt_48</title></svg>