<svg width="48" height="48" viewBox="0 0 32 32" xmlns="http://www.w3.org/2000/svg"><path d="M13.6659 8.99996C13.6659 8.25108 13.9127 7.67869 14.2962 7.29519C14.6797 6.91169 15.2521 6.66496 16.0009 6.66496C16.7498 6.66496 17.3222 6.91169 17.7057 7.29519C18.0892 7.67869 18.3359 8.25108 18.3359 8.99996C18.3359 9.74884 18.0892 10.3212 17.7057 10.7047C16.8434 11.567 16.3507 12.237 16.0921 12.8893C15.8356 13.5362 15.8358 14.1093 15.8359 14.6616L15.8359 15.423L27.3435 20.8234L27.345 20.824C27.6936 20.9866 27.9304 21.2021 28.0848 21.4579C28.2408 21.7167 28.3362 22.0563 28.3362 22.5C28.3362 23.0989 28.1395 23.5463 27.8435 23.8423C27.5474 24.1383 27.1001 24.335 26.5012 24.335H16.0009V25.665H26.5012C27.4023 25.665 28.2049 25.3617 28.7839 24.7827C29.3629 24.2037 29.6662 23.4011 29.6662 22.5C29.6662 21.8636 29.528 21.2756 29.2236 20.771C28.9175 20.2636 28.4663 19.8796 27.9071 19.6187L17.1661 14.578C17.1676 14.0652 17.1833 13.7456 17.3285 13.3794C17.4887 12.9754 17.8334 12.4579 18.6462 11.6452C19.3127 10.9787 19.6659 10.0511 19.6659 8.99996C19.6659 7.94884 19.3127 7.02123 18.6462 6.35473C17.9797 5.68824 17.0521 5.33496 16.0009 5.33496C14.9498 5.33496 14.0222 5.68824 13.3557 6.35473C12.6892 7.02123 12.3359 7.94884 12.3359 8.99996H13.6659Z" fill="#000000" class="bmwfcol"/><path d="M4.09307 19.6187L14.3 14.8591V16.3266L4.65516 20.8241C4.30657 20.9866 4.06974 21.2021 3.91541 21.458C3.75933 21.7167 3.66398 22.0563 3.66398 22.5001C3.66398 23.0989 3.86071 23.5463 4.15671 23.8423C4.45272 24.1383 4.90011 24.3351 5.49898 24.3351H15.9992V25.6651H5.49898C4.59786 25.6651 3.79525 25.3618 3.21626 24.7828C2.63726 24.2038 2.33398 23.4012 2.33398 22.5001C2.33398 21.8637 2.47213 21.2757 2.77658 20.771C3.08278 20.2634 3.53351 19.8796 4.09307 19.6187Z" fill="#000000" class="bmwfcol"/><title>cloakroom_lt_48</title></svg>