<svg width="48" height="48" viewBox="0 0 32 32" xmlns="http://www.w3.org/2000/svg"><path d="M7.77019 7.77019C5.81169 9.72869 4.66496 12.5511 4.66496 16C4.66496 19.4488 5.81169 22.2712 7.77019 24.2297C9.72869 26.1882 12.5511 27.335 16 27.335C19.4489 27.335 22.2713 26.1882 24.2298 24.2297C26.1883 22.2712 27.335 19.4488 27.335 16C27.335 12.5511 26.1883 9.72869 24.2298 7.77019C22.2713 5.81169 19.4489 4.66496 16 4.66496C12.5511 4.66496 9.72869 5.81169 7.77019 7.77019ZM6.82974 6.82973C9.07123 4.58824 12.2489 3.33496 16 3.33496C19.7511 3.33496 22.9287 4.58824 25.1702 6.82973C27.4117 9.07123 28.665 12.2488 28.665 16C28.665 19.7511 27.4117 22.9287 25.1702 25.1702C22.9287 27.4117 19.7511 28.665 16 28.665C12.2489 28.665 9.07123 27.4117 6.82974 25.1702C4.58824 22.9287 3.33496 19.7511 3.33496 16C3.33496 12.2488 4.58824 9.07123 6.82974 6.82973Z" fill="#000000" class="bmwfcol"/><path d="M16.415 15.835V8.49996H15.085V17.165H21.75V15.835H16.415Z" fill="#000000" class="bmwfcol"/><title>clock_lt_48</title></svg>