<svg width="48" height="48" viewBox="0 0 32 32" xmlns="http://www.w3.org/2000/svg"><path d="M13.999 11.3351V12.6651H17.999V11.3351H13.999Z" fill="#000000" class="bmwfcol"/><path d="M11.334 18.0001H12.664V14.0001H11.334V18.0001Z" fill="#000000" class="bmwfcol"/><path d="M19.334 18.0001H20.664V14.0001H19.334V18.0001Z" fill="#000000" class="bmwfcol"/><path d="M13.999 20.6651H17.999V19.3351H13.999V20.6651Z" fill="#000000" class="bmwfcol"/><path d="M15.999 14.8351C15.3556 14.8351 14.834 15.3567 14.834 16.0001C14.834 16.6435 15.3556 17.1651 15.999 17.1651C16.6424 17.1651 17.164 16.6435 17.164 16.0001C17.164 15.3567 16.6424 14.8351 15.999 14.8351Z" fill="#000000" class="bmwfcol"/><path d="M3.33398 16.0001C3.33398 9.0054 9.0043 3.33508 15.999 3.33508C22.9937 3.33508 28.664 9.0054 28.664 16.0001C28.664 22.9948 22.9937 28.6651 15.999 28.6651C9.0043 28.6651 3.33398 22.9948 3.33398 16.0001ZM6.3286 10.0838C5.27272 11.806 4.66398 13.8319 4.66398 16.0001C4.66398 17.4408 4.93278 18.8188 5.42296 20.0865H9.51298C8.76616 18.9037 8.33398 17.5024 8.33398 16.0001C8.33398 15.3115 8.42477 14.6442 8.59504 14.0094L6.3286 10.0838ZM6.03942 21.4165C7.69536 24.455 10.7012 26.6517 14.2513 27.2012L16.2961 23.6594C16.1975 23.6632 16.0985 23.6651 15.999 23.6651C13.8806 23.6651 11.9629 22.8057 10.5755 21.4165H6.03942ZM15.7118 27.3315C15.8072 27.3339 15.903 27.3351 15.999 27.3351C19.5654 27.3351 22.7472 25.688 24.825 23.1129L22.7817 19.5737C21.7957 21.4412 20.0611 22.8522 17.9774 23.4073L15.7118 27.3315ZM25.6697 21.9159C26.7254 20.1938 27.334 18.168 27.334 16.0001C27.334 14.559 27.065 13.1806 26.5746 11.9126H22.4844C23.2316 13.0957 23.664 14.4974 23.664 16.0001C23.664 16.6884 23.5733 17.3555 23.4031 17.9901L25.6697 21.9159ZM25.958 10.5826C24.302 7.54473 21.2964 5.34841 17.7468 4.79901L15.702 8.34073C15.8005 8.33698 15.8995 8.33508 15.999 8.33508C18.1169 8.33508 20.0342 9.19404 21.4214 10.5826H25.958ZM16.2863 4.66865C16.1908 4.66628 16.095 4.66508 15.999 4.66508C12.4327 4.66508 9.25113 6.31203 7.1733 8.88684L9.21657 12.4259C10.2026 10.5587 11.9371 9.14786 14.0207 8.59281L16.2863 4.66865ZM15.999 9.66508C12.5003 9.66508 9.66398 12.5014 9.66398 16.0001C9.66398 19.4988 12.5003 22.3351 15.999 22.3351C19.4977 22.3351 22.334 19.4988 22.334 16.0001C22.334 12.5014 19.4977 9.66508 15.999 9.66508Z" fill="#000000" class="bmwfcol"/><title>clutch_lt_48</title></svg>