<svg width="48" height="48" viewBox="0 0 32 32" xmlns="http://www.w3.org/2000/svg"><path d="M7.66598 14.3945L12.001 10.0595V11.9405L7.00095 16.9405L2.00098 11.9405L2.00098 10.0596L6.33598 14.3946V5H7.66598V14.3945Z" fill="#000000" class="bmwfcol"/><path d="M29.3359 19C29.3359 19.7199 29.2477 20.3885 29.0818 21H30.4514C30.593 20.3694 30.6659 19.7003 30.6659 19C30.6659 16.7488 29.9127 14.8212 28.5462 13.4547C27.2209 12.1295 25.368 11.381 23.2041 11.337C22.0444 7.6278 18.7999 5.33496 14.5009 5.33496C13.6223 5.33496 12.7858 5.43053 12.001 5.61558V6.98793C12.7655 6.77698 13.6015 6.66496 14.5009 6.66496C18.4383 6.66496 21.205 8.8057 22.0574 12.1681L22.1888 12.6866L22.7234 12.6694C22.815 12.6665 22.9076 12.665 23.0009 12.665C24.9498 12.665 26.5222 13.3117 27.6057 14.3952C28.6892 15.4787 29.3359 17.0511 29.3359 19Z" fill="#000000" class="bmwfcol"/><path d="M8.00094 25.335H9.00098V26.665H8.00094C6.04982 26.665 4.37221 26.0117 3.18071 24.8202C1.98921 23.6287 1.33594 21.9511 1.33594 20C1.33594 18.8954 1.54594 17.8835 1.93834 17H3.43391C2.93953 17.819 2.66594 18.8312 2.66594 20C2.66594 21.6488 3.21266 22.9712 4.12116 23.8797C5.02967 24.7882 6.35206 25.335 8.00094 25.335Z" fill="#000000" class="bmwfcol"/><path d="M12.8786 19.2383C13.3026 19.0092 13.8449 18.8862 14.5629 18.8862C15.019 18.8862 15.471 18.9586 15.8597 19.0284C16.2782 19.0999 16.6842 19.2117 16.9328 19.2813L17.0789 19.3222V20.6876L16.828 20.6215C16.4495 20.5219 16.0384 20.4144 15.6288 20.3363L15.627 20.336C15.28 20.2666 14.9589 20.2107 14.6324 20.2107C14.1854 20.2107 13.8629 20.2712 13.6201 20.3931C13.3831 20.5122 13.2051 20.6983 13.0619 20.9848C12.8463 21.4159 12.755 22.1882 12.755 23.0622C12.755 23.8932 12.8455 24.5906 13.0344 24.9955C13.1676 25.2794 13.3451 25.4722 13.5887 25.5982C13.8377 25.727 14.1723 25.7945 14.6324 25.7945C15.2924 25.7945 16.1443 25.6116 16.8364 25.4611L17.0789 25.4084V26.7626L16.9208 26.7964C16.226 26.9453 15.3719 27.1189 14.533 27.1189C13.7687 27.1189 13.1984 26.9779 12.762 26.718C12.324 26.4571 12.0402 26.0879 11.8297 25.6671C11.5198 25.0576 11.3809 24.0947 11.3809 23.0722C11.3809 21.9548 11.5084 20.8927 11.936 20.1765C12.1628 19.7966 12.4525 19.4685 12.8786 19.2383Z" fill="#000000" class="bmwfcol"/><path d="M19.7216 19.2554C20.1864 19.0142 20.7719 18.8862 21.5197 18.8862C22.1729 18.8862 22.7 18.9753 23.1377 19.1693C23.5786 19.3646 23.916 19.6607 24.1971 20.0532C24.4632 20.4227 24.6349 20.9051 24.741 21.4163C24.8476 21.9299 24.8906 22.4857 24.8906 23.0125C24.8906 23.5248 24.8475 24.0705 24.7436 24.5761C24.6401 25.0794 24.4736 25.5563 24.2181 25.9205C23.9216 26.3389 23.5682 26.6434 23.121 26.8399C22.677 27.035 22.1524 27.1189 21.5197 27.1189C20.7783 27.1189 20.2076 27.0203 19.757 26.8152C19.3014 26.6079 18.9822 26.298 18.7356 25.9013C18.3072 25.2155 18.1389 24.1043 18.1389 23.0125C18.1389 22.5321 18.1717 22.0184 18.2536 21.5411C18.335 21.0665 18.4672 20.6144 18.6739 20.2664C18.9232 19.8472 19.2546 19.4977 19.7216 19.2554ZM21.5197 20.2107C20.7481 20.2107 20.1694 20.3839 19.8457 20.9626C19.7286 21.1754 19.6437 21.4856 19.5891 21.8528C19.5351 22.2169 19.513 22.6216 19.513 23.0125C19.513 23.3934 19.535 23.8132 19.5916 24.1973C19.6489 24.5858 19.7389 24.9192 19.8645 25.1402C20.1722 25.6807 20.7368 25.7945 21.5197 25.7945C22.1912 25.7945 22.6648 25.6703 23.0265 25.2397C23.2131 25.0192 23.3389 24.6899 23.4157 24.2906C23.4918 23.8945 23.5164 23.4489 23.5164 23.0125C23.5164 22.6021 23.4919 22.1917 23.4286 21.8225C23.3649 21.4512 23.264 21.1342 23.1192 20.9016C22.805 20.392 22.286 20.2107 21.5197 20.2107Z" fill="#000000" class="bmwfcol"/><path d="M27.8422 23.568C27.2799 23.568 26.6738 23.7023 26.3921 23.7727L26.2406 23.8106V25.0208L26.4911 24.9555C26.7225 24.8951 27.3149 24.7433 27.8123 24.7433C28.0552 24.7433 28.1559 24.792 28.1977 24.8338C28.2422 24.8782 28.2684 24.9325 28.2684 25.0403C28.2684 25.1688 28.209 25.3051 27.8697 25.6444C27.488 26.0261 26.728 26.6974 26.2103 27.1454L26.1412 27.2053V28.2422H29.732V27.0768H28.0548C28.3412 26.8206 28.6804 26.5022 28.9856 26.1573C29.1606 25.9616 29.2928 25.7821 29.3795 25.5857C29.4675 25.3861 29.5033 25.1811 29.5033 24.9409C29.5033 24.5434 29.3448 24.165 29.0635 23.9323C28.7665 23.6832 28.3565 23.568 27.8422 23.568Z" fill="#000000" class="bmwfcol"/><title>co2_and_arrow_down_lt_48</title></svg>