<svg width="48" height="48" viewBox="0 0 32 32" xmlns="http://www.w3.org/2000/svg"><path d="M17.1288 26.8164L17.2869 26.7825V25.4284L17.0444 25.4811C16.3532 25.6313 15.6001 25.7946 14.9399 25.7946C14.4797 25.7946 14.1451 25.7271 13.8961 25.5983C13.6525 25.4722 13.475 25.2794 13.3418 24.9954C13.1529 24.5905 13.0624 23.8931 13.0624 23.0623C13.0624 22.1883 13.1538 21.4159 13.3693 20.9848C13.5125 20.6983 13.6905 20.5122 13.9275 20.3932C14.1703 20.2713 14.4928 20.2107 14.9399 20.2107C15.6408 20.2107 16.3628 20.4145 17.036 20.5918L17.2869 20.6578V19.2924L17.1408 19.2515C16.4141 19.0482 15.6268 18.8863 14.8703 18.8863C14.1523 18.8863 13.6101 19.0093 13.1861 19.2383C12.76 19.4685 12.4703 19.7966 12.2434 20.1766C11.8158 20.8927 11.6883 21.9549 11.6883 23.0722C11.6883 24.0947 11.8272 25.0575 12.1371 25.6671C12.3476 26.0879 12.6314 26.4572 13.0694 26.7181C13.5058 26.978 14.0761 27.119 14.8405 27.119C15.6789 27.119 16.4329 26.9655 17.1288 26.8164Z" fill="#000000" class="bmwfcol"/><path d="M18.7774 20.2664C18.5708 20.6145 18.4386 21.0665 18.3572 21.5412C18.2753 22.0185 18.2425 22.5322 18.2425 23.0126C18.2425 24.1045 18.4108 25.216 18.8395 25.9018C19.086 26.2982 19.4052 26.608 19.8606 26.8153C20.3112 27.0203 20.8819 27.119 21.6233 27.119C22.256 27.119 22.7806 27.035 23.2246 26.8399C23.6718 26.6434 24.0246 26.3397 24.3211 25.9214C24.5766 25.5572 24.7437 25.0795 24.8472 24.5762C24.9511 24.0705 24.9941 23.5248 24.9941 23.0126C24.9941 22.4858 24.9512 21.9299 24.8446 21.4163C24.7385 20.905 24.5667 20.4224 24.3004 20.0528C24.0193 19.6605 23.682 19.3646 23.2413 19.1693C22.8036 18.9754 22.2765 18.8863 21.6233 18.8863C20.8755 18.8863 20.29 19.0143 19.8252 19.2554C19.3582 19.4977 19.0268 19.8473 18.7774 20.2664ZM23.2228 20.9017C23.3676 21.1342 23.4685 21.4512 23.5322 21.8225C23.5955 22.1917 23.62 22.6021 23.62 23.0126C23.62 23.448 23.593 23.8912 23.5156 24.2862C23.4379 24.6834 23.3126 25.014 23.129 25.2411C22.7674 25.6706 22.294 25.7946 21.6233 25.7946C20.8456 25.7946 20.2855 25.673 19.9673 25.1387C19.8414 24.9166 19.752 24.5975 19.6951 24.2192C19.6387 23.8432 19.6166 23.4238 19.6166 23.0126C19.6166 22.6005 19.6363 22.1961 19.689 21.8377C19.7336 21.5346 19.8035 21.2323 19.9501 20.9611C20.2636 20.3849 20.8495 20.2107 21.6233 20.2107C22.3896 20.2107 22.9086 20.3921 23.2228 20.9017Z" fill="#000000" class="bmwfcol"/><path d="M26.1404 28.2422H29.7311V27.0768H28.049C28.3649 26.7897 28.7135 26.4883 28.9843 26.1578C29.1595 25.9619 29.2919 25.7823 29.3786 25.5858C29.4667 25.3862 29.5025 25.1811 29.5025 24.9409C29.5025 24.5434 29.3439 24.1651 29.0626 23.9323C28.7656 23.6833 28.3556 23.568 27.8413 23.568C27.279 23.568 26.673 23.7024 26.3912 23.7728L26.2397 23.8107V25.0209L26.4902 24.9555C26.7217 24.8952 27.3141 24.7433 27.8115 24.7433C28.0544 24.7433 28.1551 24.792 28.1969 24.8339C28.2413 24.8783 28.2675 24.9326 28.2675 25.0403C28.2675 25.1689 28.2082 25.3051 27.8688 25.6444C27.4871 26.0262 26.7272 26.6975 26.2095 27.1455L26.1404 27.2053V28.2422Z" fill="#000000" class="bmwfcol"/><path d="M29.0808 20.9999C29.2467 20.3884 29.335 19.7199 29.335 18.9999C29.335 17.0511 28.6882 15.4787 27.6047 14.3952C26.5212 13.3117 24.9488 12.6649 23 12.6649C22.9066 12.6649 22.8141 12.6664 22.7224 12.6694L22.1878 12.6866L22.0564 12.1681C21.2041 8.80567 18.4374 6.66493 14.5 6.66493C12.1362 6.66493 10.211 7.43855 8.86783 8.74827C7.5249 10.0577 6.71319 11.9523 6.66704 14.2889L6.65742 14.7757L6.1905 14.9136C4.03805 15.5492 2.66496 17.3816 2.66496 19.9999C2.66496 21.6488 3.21169 22.9712 4.12019 23.8797C5.02869 24.7882 6.35108 25.3349 7.99996 25.3349H9V26.6649H7.99996C6.04884 26.6649 4.37123 26.0117 3.17973 24.8202C1.98824 23.6287 1.33496 21.951 1.33496 19.9999C1.33496 17.0287 2.85449 14.7286 5.35613 13.791C5.50316 11.3566 6.41188 9.28539 7.93932 7.79602C9.56422 6.21162 11.8388 5.33493 14.5 5.33493C18.7989 5.33493 22.0434 7.62777 23.2031 11.337C25.367 11.381 27.22 12.1295 28.5452 13.4547C29.9117 14.8212 30.665 16.7488 30.665 18.9999C30.665 19.7003 30.592 20.3694 30.4504 20.9999H29.0808Z" fill="#000000" class="bmwfcol"/><title>co2_lt_48</title></svg>