<svg width="48" height="48" viewBox="0 0 32 32" xmlns="http://www.w3.org/2000/svg"><path d="M21.0483 2.33496H22.2508L22.3857 2.39873C23.9533 3.13967 24.8659 4.68644 24.8659 6.59996V6.73274C24.9714 6.57458 25.0984 6.36807 25.2598 6.09493L25.6838 5.37718L26.2894 5.95015C27.1825 6.79526 27.6659 8.00485 27.6659 9.39996C27.6659 10.7511 27.2127 11.9287 26.3712 12.7702C25.5297 13.6117 24.3521 14.065 23.0009 14.065C21.6498 14.065 20.4722 13.6117 19.6307 12.7702C18.7892 11.9287 18.3359 10.7511 18.3359 9.39996C18.3359 7.95259 19.1806 6.76487 19.8636 5.82816L19.9801 5.66867C20.2942 5.23924 20.5717 4.8597 20.7843 4.48305C21.02 4.06565 21.1359 3.71758 21.1359 3.39996C21.1359 3.28434 21.1305 3.17259 21.1199 3.06484L21.0483 2.33496ZM22.406 3.96895C22.3185 4.38983 22.1439 4.78013 21.9425 5.13687C21.6886 5.58675 21.3612 6.03387 21.0546 6.45267L20.9383 6.61176C20.2213 7.59505 19.6659 8.44733 19.6659 9.39996C19.6659 10.4488 20.0127 11.2712 20.5712 11.8297C21.1297 12.3882 21.9521 12.735 23.0009 12.735C24.0498 12.735 24.8722 12.3882 25.4307 11.8297C25.9892 11.2712 26.3359 10.4488 26.3359 9.39996C26.3359 8.68558 26.1752 8.07606 25.8957 7.58321L25.879 7.60698C25.7287 7.81988 25.572 8.00909 25.3873 8.15327C24.9847 8.46763 24.5664 8.46617 24.2538 8.46508L24.2009 8.46496H23.5359V6.59996C23.5359 5.43237 23.1086 4.5353 22.406 3.96895Z" fill="#000000" class="bmwfcol"/><path d="M22.643 29.7676L21.8226 26.7059L22.7187 26.946L23.9915 22.1956L20.5869 24.1613H19.4648L21.6516 16H23.0286L21.3752 22.1704L24.5541 20.335H25.867L24.0034 27.2902L24.8843 27.5263L22.643 29.7676Z" fill="#000000" class="bmwfcol"/><path d="M5.52893 2.33496H10.473L11.666 15.9709V16.335H16.5009V17.665H10.336V16.029L9.25424 3.66496H6.74765L5.66594 16.029V17V26.335H16.5V27.665H2V26.335H4.33594V17V15.9709L5.52893 2.33496Z" fill="#000000" class="bmwfcol"/><title>combined_heat_and_power_lt_48</title></svg>