<svg width="48" height="48" viewBox="0 0 32 32" xmlns="http://www.w3.org/2000/svg"><path d="M19 6.33502C22.2745 6.33502 25.3344 9.38828 26.0693 13.335H28.5V14.665H24.913L24.8401 14.0825C24.3682 10.3072 21.5661 7.66502 19 7.66502H4V6.33502H19Z" fill="#000000" class="bmwfcol"/><path d="M19 25.665C22.2745 25.665 25.3344 22.6118 26.0693 18.665H28.5V17.335H24.913L24.8401 17.9175C24.3682 21.6928 21.5661 24.335 19 24.335H4V25.665H19Z" fill="#000000" class="bmwfcol"/><path d="M4.28693 9.50002H5.58102L7.05474 15H5.76065L4.28693 9.50002Z" fill="#000000" class="bmwfcol"/><path d="M9.26068 15H10.5548L9.08105 9.50002H7.78696L9.26068 15Z" fill="#000000" class="bmwfcol"/><path d="M14.0547 15H12.7606L11.2869 9.50002H12.581L14.0547 15Z" fill="#000000" class="bmwfcol"/><path d="M16.2606 15H17.5547L16.081 9.50002H14.7869L16.2606 15Z" fill="#000000" class="bmwfcol"/><path d="M7.28128 22.5H5.98719L7.46091 17H8.755L7.28128 22.5Z" fill="#000000" class="bmwfcol"/><path d="M10.9609 17H12.255L10.7813 22.5H9.48722L10.9609 17Z" fill="#000000" class="bmwfcol"/><path d="M15.755 17H14.4609L12.9872 22.5H14.2813L15.755 17Z" fill="#000000" class="bmwfcol"/><path d="M17.9609 17H19.255L17.7813 22.5H16.4872L17.9609 17Z" fill="#000000" class="bmwfcol"/><path d="M18.3406 11.1154L19.947 11.5458L18.9357 13.2975L19.3988 14.9955L21.8441 10.7601L17.9598 9.71926L18.3406 11.1154Z" fill="#000000" class="bmwfcol"/><path d="M20.6175 18.769L22 21.1635V21.2517L19.778 21.8471L20.6175 18.769Z" fill="#000000" class="bmwfcol"/><title>compounder_lt_48</title></svg>