<svg width="48" height="48" viewBox="0 0 32 32" xmlns="http://www.w3.org/2000/svg"><path d="M16 3C12.1728 3 8.90567 4.28011 6.59289 6.59289C4.28011 8.90567 3 12.1728 3 16C3 19.8272 4.28011 23.0943 6.59289 25.4071C8.90567 27.7199 12.1728 29 16 29C19.8272 29 23.0943 27.7199 25.4071 25.4071C27.7199 23.0943 29 19.8272 29 16C29 12.1728 27.7199 8.90567 25.4071 6.59289C23.0943 4.28011 19.8272 3 16 3ZM9.54892 12.665L12.8839 16H11.1161L7.11621 12.0001L11.1163 8H12.8841L9.54904 11.335L24 11.335V12.665L9.54892 12.665ZM22.4514 20.665L8 20.665V19.335H22.4512L19.1162 16H20.884L24.8841 20.0001L20.8842 24H19.1164L22.4514 20.665Z" fill="#000000" class="bmwfcol"/><title>compare_filled_lt_48</title></svg>