<svg width="48" height="48" viewBox="0 0 32 32" xmlns="http://www.w3.org/2000/svg"><path d="M25 5.76856V4.23193L25.3328 4.42406C27.2943 5.55663 28.5315 6.29013 29.1266 7.9547C29.4105 8.74886 29.5388 9.72141 29.6021 10.9868C29.6655 12.2528 29.6655 13.8722 29.6655 15.981V16.0188C29.6655 18.1276 29.6655 19.747 29.6021 21.013C29.5388 22.2784 29.4105 23.251 29.1266 24.0451C28.5315 25.7097 27.2943 26.4432 25.3328 27.5758L25 27.7679V26.2313C26.7911 25.1868 27.492 24.6667 27.8742 23.5974C28.0904 22.9928 28.2121 22.1797 28.2738 20.9466C28.3353 19.7179 28.3355 18.1319 28.3355 15.9999C28.3355 13.868 28.3353 12.282 28.2738 11.0533C28.2121 9.82017 28.0904 9.00704 27.8742 8.40241C27.492 7.33318 26.7911 6.81302 25 5.76856Z" fill="#000000" class="bmwfcol"/><path d="M7 26.2313V27.7679L6.66767 27.576C4.70617 26.4435 3.46889 25.7099 2.87384 24.0454C2.58994 23.2512 2.46163 22.2787 2.39831 21.0133C2.33496 19.7473 2.33496 18.1279 2.33496 16.019V15.9813C2.33496 13.8724 2.33496 12.253 2.39831 10.987C2.46163 9.72165 2.58994 8.74909 2.87384 7.95494C3.46889 6.29037 4.70615 5.55687 6.66765 4.4243L7 4.23242V5.76905C5.20925 6.81335 4.50842 7.3335 4.12622 8.40265C3.91008 9.00728 3.78835 9.82041 3.72665 11.0535C3.66517 12.2822 3.66496 13.8682 3.66496 16.0002C3.66496 18.1321 3.66517 19.7181 3.72665 20.9468C3.78835 22.1799 3.91008 22.993 4.12622 23.5977C4.50842 24.6668 5.20925 25.187 7 26.2313Z" fill="#000000" class="bmwfcol"/><path d="M16.0241 11.535L18.0294 9.52965C18.9823 8.57608 19.6045 7.95351 20.4411 7.63979C20.8785 7.47576 21.3459 7.40381 21.9018 7.36907C22.4476 7.33496 23.1211 7.33496 23.977 7.33496H24.6646V8.02237C24.6646 8.87832 24.6646 9.55193 24.6305 10.0977C24.5957 10.6536 24.5238 11.121 24.3597 11.5585C24.046 12.395 23.4235 13.0172 22.47 13.9701L20.4646 15.9754L20.4646 19.964C20.4648 20.4315 20.465 20.8664 20.3515 21.2639C20.2203 21.7229 19.9594 22.0806 19.5698 22.4702L17.975 24.065H16.9147L15.7033 19.544L12.4555 16.2962L7.93457 15.0848V14.0245L9.52934 12.4297C9.91897 12.0401 10.2766 11.7792 10.7356 11.648C11.1331 11.5345 11.568 11.5347 12.0355 11.5349L16.0241 11.535ZM20.9081 8.88511C20.3736 9.08555 19.9596 9.4804 18.8698 10.5702L13.7406 15.7004L16.3001 18.2599L21.4293 13.1297C22.5191 12.04 22.914 11.626 23.1144 11.0915C23.2129 10.8289 23.2722 10.5088 23.3031 10.0147C23.3258 9.65075 23.3321 9.21637 23.3339 8.66564C22.7832 8.6674 22.3488 8.67373 21.9848 8.69648C21.4907 8.72735 21.1706 8.78665 20.9081 8.88511ZM19.1346 17.3064L17.0415 19.3995L17.8272 22.3319L18.6293 21.5297C18.9397 21.2194 19.0288 21.052 19.0727 20.8985C19.1289 20.7016 19.1346 20.4581 19.1346 19.9V17.3064ZM12.0996 12.865C11.5414 12.865 11.298 12.8706 11.101 12.9269C10.9475 12.9707 10.7802 13.0598 10.4698 13.3702L9.66768 14.1723L12.6016 14.9584L14.6951 12.865H12.0996Z" fill="#000000" class="bmwfcol"/><path d="M9.86184 18.3621C10.3875 17.8365 11.004 17.4109 11.6947 17.0947L12.7158 18.1158C11.9617 18.3804 11.3189 18.786 10.8023 19.3026C9.97333 20.1315 9.4303 21.2852 9.29673 22.7027C10.7142 22.5691 11.8679 22.0261 12.6968 21.1971C13.2135 20.6805 13.619 20.0378 13.8836 19.2836L14.9047 20.3047C14.5885 20.9954 14.163 21.6119 13.6373 22.1376C12.3933 23.3816 10.6407 24.0649 8.59957 24.0649H7.93457V23.3999C7.93457 21.3587 8.61785 19.6061 9.86184 18.3621Z" fill="#000000" class="bmwfcol"/><title>connected-booster-package_lt_48</title></svg>