<svg width="48" height="48" viewBox="0 0 32 32" xmlns="http://www.w3.org/2000/svg"><path d="M16 3.375C12.258 3.375 9.09105 4.62507 6.85806 6.85806C4.62507 9.09105 3.375 12.258 3.375 16C3.375 19.742 4.62507 22.909 6.85806 25.1419C9.09105 27.3749 12.258 28.625 16 28.625C19.742 28.625 22.909 27.3749 25.1419 25.1419C27.3749 22.909 28.625 19.742 28.625 16C28.625 12.258 27.3749 9.09105 25.1419 6.85806C22.909 4.62507 19.742 3.375 16 3.375ZM4.625 16C4.625 14.7958 4.76445 13.6674 5.02928 12.625H10.5325C10.4286 13.6833 10.375 14.8121 10.375 16C10.375 17.1879 10.4286 18.3167 10.5325 19.375H5.02928C4.76445 18.3326 4.625 17.2042 4.625 16ZM5.42177 20.625H10.6834C10.9236 22.2895 11.3001 23.7456 11.7981 24.9408C12.1385 25.7578 12.55 26.4816 13.0317 27.0667C10.9026 26.602 9.11213 25.6282 7.74194 24.2581C6.74354 23.2597 5.95564 22.0381 5.42177 20.625ZM11.947 20.625H20.0529C19.8248 22.1265 19.4823 23.4174 19.0481 24.4596C18.2026 26.4888 17.1093 27.375 16 27.375C14.8907 27.375 13.7974 26.489 12.9519 24.46C12.5176 23.4178 12.1752 22.1267 11.947 20.625ZM21.3166 20.625H26.5782C26.0444 22.0381 25.2565 23.2597 24.2581 24.2581C22.8878 25.6283 21.0973 26.602 18.9681 27.0668C19.4498 26.4815 19.8615 25.7575 20.2019 24.9404C20.6999 23.7452 21.0763 22.2892 21.3166 20.625ZM26.9707 19.375H21.4674C21.5714 18.3166 21.625 17.1878 21.625 16C21.625 14.8122 21.5714 13.6834 21.4674 12.625H26.9707C27.2356 13.6674 27.375 14.7958 27.375 16C27.375 17.2042 27.2356 18.3326 26.9707 19.375ZM20.2111 19.375H11.7888C11.6816 18.3307 11.625 17.2022 11.625 16C11.625 14.7978 11.6816 13.6693 11.7888 12.625H20.2111C20.3183 13.6694 20.375 14.7979 20.375 16C20.375 17.2021 20.3183 18.3306 20.2111 19.375ZM10.6834 11.375H5.42177C5.95564 9.96188 6.74354 8.74035 7.74194 7.74194C9.11213 6.37175 10.9026 5.39804 13.0317 4.9333C12.55 5.5184 12.1385 6.24224 11.7981 7.05917C11.3001 8.25436 10.9236 9.71052 10.6834 11.375ZM11.947 11.375C12.1752 9.87328 12.5176 8.58217 12.9519 7.53997C13.7974 5.51101 14.8907 4.625 16 4.625C17.1093 4.625 18.2026 5.51121 19.0481 7.54038C19.4823 8.58256 19.8248 9.87354 20.0529 11.375H11.947ZM21.3166 11.375C21.0763 9.71079 20.6999 8.25476 20.2019 7.05962C19.8615 6.24251 19.4499 5.51849 18.9681 4.93325C21.0973 5.39797 22.8878 6.3717 24.2581 7.74194C25.2565 8.74035 26.0444 9.96188 26.5782 11.375H21.3166Z" fill="#000000" class="bmwfcol"/><title>connected_drive_lt_48</title></svg>