<svg width="48" height="48" viewBox="0 0 32 32" xmlns="http://www.w3.org/2000/svg"><path d="M16.4784 10.125C16.5585 10.866 16.6071 11.6594 16.6209 12.5H17.8711C17.858 11.6702 17.8122 10.8765 17.7353 10.125H22.0185C22.2136 10.8645 22.3317 11.6579 22.3652 12.5H23.616C23.5103 9.57495 22.4742 7.09034 20.6919 5.30806C18.809 3.42507 16.142 2.375 13 2.375C9.85797 2.375 7.19105 3.42507 5.30806 5.30806C3.42507 7.19105 2.375 9.85797 2.375 13C2.375 16.142 3.42507 18.809 5.30806 20.6919C7.09034 22.4742 9.57495 23.5103 12.5 23.616V22.3001C11.7775 22.0805 11.0721 21.3662 10.494 20.0059C10.1575 19.2142 9.8857 18.2458 9.69429 17.125H12.5V15.875H9.52153C9.42582 14.9887 9.375 14.0273 9.375 13C9.375 11.9727 9.42581 11.0113 9.52153 10.125H16.4784ZM3.625 13C3.625 11.9706 3.74824 11.0093 3.9815 10.125H8.26464C8.17243 11.0262 8.125 11.9879 8.125 13C8.125 14.0121 8.17243 14.9738 8.26464 15.875H3.98151C3.74824 14.9907 3.625 14.0294 3.625 13ZM4.40489 17.125H8.42735C8.63354 18.4147 8.94212 19.5504 9.34355 20.4948C9.58798 21.0699 9.87654 21.5932 10.209 22.0403C8.60152 21.6311 7.24491 20.861 6.19194 19.8081C5.44436 19.0605 4.83936 18.1598 4.40489 17.125ZM8.42734 8.875H4.40488C4.83934 7.84018 5.44435 6.93953 6.19194 6.19194C7.24491 5.13897 8.60152 4.36887 10.209 3.95974C9.87653 4.40681 9.58798 4.93008 9.34355 5.50517C8.94211 6.44966 8.63354 7.58529 8.42734 8.875ZM9.69429 8.875C9.8857 7.7542 10.1575 6.78579 10.494 5.99412C11.2052 4.32079 12.1088 3.625 13 3.625C13.8911 3.625 14.7948 4.32094 15.506 5.99446C15.8425 6.7861 16.1142 7.75441 16.3056 8.875H9.69429ZM17.5726 8.875C17.3664 7.58551 17.0578 6.44998 16.6565 5.50554C16.412 4.9303 16.1234 4.40687 15.7908 3.95969C17.3984 4.36881 18.755 5.13893 19.8081 6.19194C20.5557 6.93953 21.1607 7.84018 21.5951 8.875H17.5726Z" fill="#000000" class="bmwfcol"/><path d="M22.3582 18.335L19.335 18.3349V26H20.665V23.4337C21.4156 23.4322 22.2243 23.4266 22.5609 23.4057C23.1179 23.371 23.7819 23.2321 24.3095 22.7573C24.6313 22.4677 24.7918 22.0965 24.8744 21.763C24.9567 21.4309 24.9727 21.092 24.9727 20.8146C24.9727 20.2067 24.8214 19.5153 24.3475 18.9983C23.8249 18.4281 23.1223 18.3324 22.3582 18.335ZM22.4783 22.0782C22.1814 22.0967 21.4126 22.1021 20.665 22.1036V19.665L22.3593 19.665L22.3617 19.665C23.0597 19.6625 23.2491 19.7682 23.3671 19.897C23.5342 20.0792 23.6427 20.3941 23.6427 20.8146C23.6427 21.0513 23.6275 21.2653 23.5834 21.4433C23.5397 21.6197 23.4787 21.7157 23.4198 21.7687C23.216 21.9521 22.907 22.0515 22.4783 22.0782Z" fill="#000000" class="bmwfcol"/><path d="M29.665 14.335H14.335V29.665H29.665V14.335ZM15.665 28.335V15.665H28.335V28.335H15.665Z" fill="#000000" class="bmwfcol"/><title>connected_parking_lt_48</title></svg>