<svg width="48" height="48" viewBox="0 0 32 32" xmlns="http://www.w3.org/2000/svg"><path d="M27.335 16C27.335 19.3155 26.2753 22.0525 24.452 24H26.1872C27.7869 21.8772 28.665 19.1396 28.665 16C28.665 12.2488 27.4117 9.07123 25.1702 6.82974C22.9287 4.58824 19.7511 3.33496 16 3.33496C12.2488 3.33496 9.07123 4.58824 6.82973 6.82974C4.58824 9.07123 3.33496 12.2488 3.33496 16C3.33496 19.7511 4.58824 22.9287 6.82973 25.1702C9.07123 27.4117 12.2488 28.665 16 28.665H16.665L16.665 12.6055L21 16.9405V15.0596L16 10.0596L11 15.0595V16.9405L15.335 12.6054L15.335 27.3205C12.1876 27.1823 9.60129 26.0608 7.77019 24.2297C5.81168 22.2712 4.66496 19.4488 4.66496 16C4.66496 12.5511 5.81169 9.72869 7.77019 7.77019C9.72869 5.81169 12.5511 4.66496 16 4.66496C19.4488 4.66496 22.2712 5.81169 24.2297 7.77019C26.1882 9.72869 27.335 12.5511 27.335 16Z" fill="#000000" class="bmwfcol"/><title>connected-drive-upgrades_lt_48</title></svg>