<svg width="48" height="48" viewBox="0 0 32 32" xmlns="http://www.w3.org/2000/svg"><path d="M20.6919 5.30806C22.1728 6.78887 23.1385 8.75451 23.4834 11.0548L23 11.5H22.2832C22.2233 11.0234 22.1345 10.5647 22.0185 10.125H17.7353C17.8276 11.0262 17.875 11.988 17.875 13C17.875 13.3363 17.8698 13.667 17.8594 13.9918C17.0164 14.9706 16.3398 15.9658 15.8961 17.125H9.69429C9.8857 18.2458 10.1575 19.2142 10.494 20.0059C11.2052 21.6792 12.1088 22.375 13 22.375C13.8911 22.375 14.7948 21.6791 15.506 20.0055C15.5307 19.9476 15.5549 19.8887 15.5789 19.8289C15.6441 20.4451 15.7632 21.1716 15.9808 21.7694C15.9192 21.8625 15.8558 21.9529 15.7908 22.0403L15.8096 22.0355C15.4112 22.4837 14.8059 23.1668 14.5588 23.5351C14.054 23.5947 13.5338 23.625 13 23.625C9.85797 23.625 7.19105 22.5749 5.30806 20.6919C3.42507 18.809 2.375 16.142 2.375 13C2.375 9.85797 3.42507 7.19105 5.30806 5.30806C7.19105 3.42507 9.85797 2.375 13 2.375C16.142 2.375 18.809 3.42507 20.6919 5.30806ZM3.625 13C3.625 14.0294 3.74824 14.9907 3.98151 15.875H8.26464C8.17243 14.9738 8.125 14.0121 8.125 13C8.125 11.9879 8.17243 11.0262 8.26464 10.125H3.9815C3.74824 11.0093 3.625 11.9706 3.625 13ZM4.40489 17.125C4.83936 18.1598 5.44436 19.0605 6.19194 19.8081C7.24491 20.861 8.60152 21.6311 10.209 22.0403C9.87654 21.5932 9.58798 21.0699 9.34355 20.4948C8.94212 19.5504 8.63354 18.4147 8.42735 17.125H4.40489ZM16.4784 15.875C16.5742 14.9887 16.625 14.0273 16.625 13C16.625 11.9727 16.5742 11.0113 16.4784 10.125H9.52153C9.42581 11.0113 9.375 11.9727 9.375 13C9.375 14.0273 9.42582 14.9887 9.52153 15.875H16.4784ZM8.42734 8.875C8.63354 7.58529 8.94211 6.44966 9.34355 5.50517C9.58798 4.93008 9.87653 4.40681 10.209 3.95974C8.60152 4.36887 7.24491 5.13897 6.19194 6.19194C5.44435 6.93953 4.83934 7.84018 4.40488 8.875H8.42734ZM9.69429 8.875H16.3056C16.1142 7.75441 15.8425 6.7861 15.506 5.99446C14.7948 4.32094 13.8911 3.625 13 3.625C12.1088 3.625 11.2052 4.32079 10.494 5.99412C10.1575 6.78579 9.8857 7.7542 9.69429 8.875ZM17.5726 8.875H21.5951C21.1607 7.84018 20.5557 6.93953 19.8081 6.19194C18.755 5.13893 17.3984 4.36881 15.7908 3.95969C16.1234 4.40687 16.412 4.9303 16.6565 5.50554C17.0578 6.44998 17.3664 7.58551 17.5726 8.875Z" fill="#000000" class="bmwfcol"/><path d="M25.5288 11.5298L22.4992 14.5593L20.9995 13.0596L20.5292 13.5298C18.5037 15.5553 17.4319 17.2278 17.1707 18.7108C16.9401 20.02 17.3541 21.0812 18.0821 21.9768C17.1022 22.9595 16.4253 23.6628 16.0004 24.3305C15.471 25.1625 15.334 25.9274 15.334 27V30H16.664V27C16.664 26.0726 16.777 25.5875 17.1225 25.0445C17.4629 24.5097 18.0293 23.9148 19.0227 22.9174C19.9183 23.6454 20.9794 24.0594 22.2887 23.8288C23.7717 23.5676 25.4441 22.4958 27.4697 20.4702L27.9399 20L26.4397 18.4998L29.4692 15.4702L28.5288 14.5298L25.4992 17.5593L23.4397 15.4998L26.4692 12.4702L25.5288 11.5298ZM26.053 19.994C24.3221 21.6359 23.0379 22.3464 22.058 22.519C21.0654 22.6938 20.2722 22.3324 19.4697 21.5298C18.6671 20.7272 18.3057 19.9341 18.4805 18.9415C18.6531 17.9616 19.3636 16.6773 21.0055 14.9465L26.053 19.994Z" fill="#000000" class="bmwfcol"/><title>connected_charging_lt_48</title></svg>