<svg width="48" height="48" viewBox="0 0 32 32" xmlns="http://www.w3.org/2000/svg"><path d="M20.6919 20.6919C20.4027 20.9812 20.0949 21.2508 19.7697 21.5H17.3434C18.287 21.074 19.1136 20.5026 19.8081 19.8081C20.5556 19.0605 21.1606 18.1598 21.5951 17.125H17.5726C17.3664 18.4145 17.0578 19.55 16.6565 20.4945C16.5047 20.8516 16.3359 21.1887 16.1502 21.5H14.6276C14.9406 21.1315 15.2371 20.6384 15.506 20.0055C15.8425 19.2139 16.1142 18.2456 16.3056 17.125H9.69429C9.8857 18.2458 10.1575 19.2142 10.494 20.0059C10.7629 20.6386 11.0593 21.1316 11.3722 21.5H9.84966C9.66399 21.1888 9.49527 20.8518 9.34355 20.4948C8.94212 19.5504 8.63354 18.4147 8.42735 17.125H4.40489C4.83936 18.1598 5.44436 19.0605 6.19194 19.8081C6.88645 20.5026 7.71305 21.074 8.6566 21.5H6.23026C5.9051 21.2508 5.59733 20.9812 5.30806 20.6919C3.42507 18.809 2.375 16.142 2.375 13C2.375 9.85797 3.42507 7.19105 5.30806 5.30806C7.19105 3.42507 9.85797 2.375 13 2.375C16.142 2.375 18.809 3.42507 20.6919 5.30806C22.5749 7.19105 23.625 9.85797 23.625 13C23.625 16.142 22.5749 18.809 20.6919 20.6919ZM3.625 13C3.625 14.0294 3.74824 14.9907 3.98151 15.875H8.26464C8.17243 14.9738 8.125 14.0121 8.125 13C8.125 11.9879 8.17243 11.0262 8.26464 10.125H3.9815C3.74824 11.0093 3.625 11.9706 3.625 13ZM22.0185 15.875C22.2518 14.9907 22.375 14.0294 22.375 13C22.375 11.9706 22.2518 11.0093 22.0185 10.125H17.7353C17.8276 11.0262 17.875 11.988 17.875 13C17.875 14.012 17.8276 14.9738 17.7353 15.875H22.0185ZM16.4784 15.875C16.5742 14.9887 16.625 14.0273 16.625 13C16.625 11.9727 16.5742 11.0113 16.4784 10.125H9.52153C9.42581 11.0113 9.375 11.9727 9.375 13C9.375 14.0273 9.42582 14.9887 9.52153 15.875H16.4784ZM8.42734 8.875C8.63354 7.58529 8.94211 6.44966 9.34355 5.50517C9.58798 4.93008 9.87653 4.40681 10.209 3.95974C8.60152 4.36887 7.24491 5.13897 6.19194 6.19194C5.44435 6.93953 4.83934 7.84018 4.40488 8.875H8.42734ZM9.69429 8.875H16.3056C16.1142 7.75441 15.8425 6.7861 15.506 5.99446C14.7948 4.32094 13.8911 3.625 13 3.625C12.1088 3.625 11.2052 4.32079 10.494 5.99412C10.1575 6.78579 9.8857 7.7542 9.69429 8.875ZM17.5726 8.875H21.5951C21.1607 7.84018 20.5557 6.93953 19.8081 6.19194C18.755 5.13893 17.3984 4.36881 15.7908 3.95969C16.1234 4.40687 16.412 4.9303 16.6565 5.50554C17.0578 6.44998 17.3664 7.58551 17.5726 8.875Z" fill="#000000" class="bmwfcol"/><path d="M18.5133 22.8793C17.8609 22.8793 17.3485 22.9589 16.963 23.3083C16.5624 23.6586 16.4138 24.1046 16.4138 24.6078C16.4138 25.0669 16.532 25.4931 16.838 25.7827C17.082 26.0256 17.3758 26.1411 17.7748 26.2741L18.8952 26.6525C19.0871 26.7165 19.2342 26.7657 19.3512 26.8156C19.4664 26.8647 19.5354 26.9077 19.5795 26.9511C19.6612 27.0384 19.6934 27.1409 19.6934 27.3384C19.6934 27.5574 19.6134 27.7317 19.4559 27.8523C19.2772 27.9782 19.0608 28.0362 18.5949 28.0362C18.0559 28.0362 17.2532 27.8782 16.7005 27.7587L16.4583 27.7063V28.8216L16.6309 28.8577C17.124 28.9607 17.9161 29.1262 18.5652 29.1262C19.3204 29.1262 19.8535 28.9971 20.2702 28.6314L20.2726 28.6292C20.6372 28.2985 20.8206 27.857 20.8206 27.3384C20.8206 26.8808 20.6922 26.4774 20.4327 26.2C20.1877 25.9376 19.8685 25.7985 19.3853 25.6349L18.2728 25.2641C18.1086 25.2081 17.977 25.1623 17.8703 25.1167C17.7628 25.0708 17.6951 25.0309 17.6521 24.9927C17.5765 24.9249 17.5409 24.8356 17.5409 24.6078C17.5409 24.4014 17.5952 24.2462 17.733 24.1332C17.883 24.0162 18.0881 23.9693 18.5281 23.9693C19.0254 23.9693 19.8294 24.1617 20.3582 24.2902L20.6054 24.3502V23.2259L20.4512 23.1888C19.8701 23.0491 19.1641 22.8793 18.5133 22.8793Z" fill="#000000" class="bmwfcol"/><path d="M26.3841 22.8793C25.8426 22.8793 25.4288 22.972 25.1028 23.1482C24.7746 23.3254 24.5524 23.578 24.3796 23.8671C24.0529 24.4145 23.9581 25.2196 23.9581 26.0547C23.9581 26.8202 24.0618 27.5488 24.2986 28.0147C24.4587 28.3346 24.6764 28.6188 25.0139 28.8198C25.3497 29.0199 25.7852 29.1262 26.3618 29.1262C26.9936 29.1262 27.5612 29.0105 28.0807 28.8992L28.2388 28.8653V27.7506L27.9963 27.8033C27.4789 27.9158 26.9224 28.0362 26.436 28.0362C26.0969 28.0362 25.8561 27.9863 25.6802 27.8953C25.5097 27.8071 25.3844 27.6722 25.2891 27.4689C25.1531 27.1774 25.0853 26.6665 25.0853 26.0473C25.0853 25.395 25.1539 24.8293 25.309 24.5192C25.4119 24.3133 25.5376 24.1833 25.7031 24.1002C25.8744 24.0142 26.1062 23.9693 26.436 23.9693C26.6743 23.9693 26.9098 24.0102 27.1685 24.0619L27.1703 24.0623C27.4753 24.1204 27.7077 24.1784 27.9879 24.2521L28.2388 24.3182V23.1947L28.0927 23.1538C27.9005 23.1 27.6723 23.0469 27.3648 22.9868L27.3618 22.9863C27.0712 22.9341 26.7297 22.8793 26.3841 22.8793Z" fill="#000000" class="bmwfcol"/><path d="M5.38304 23.0054H4.05859V29.0001H5.16349V25.1249L6.38399 27.8871H7.33462L8.55511 25.1249V29.0001H9.66001V23.0054H8.34299L6.86301 26.3473L5.38304 23.0054Z" fill="#000000" class="bmwfcol"/><path d="M11.9889 23.0054H10.8765V26.6706C10.8765 27.4885 10.9689 28.1461 11.4417 28.6022C11.8788 29.0303 12.4378 29.1262 13.169 29.1262C13.887 29.1262 14.4279 29.0044 14.8595 28.6236L14.861 28.6223C15.3775 28.1573 15.454 27.5156 15.454 26.6706V23.0054H14.3417V26.6706C14.3417 27.336 14.288 27.6257 14.0698 27.8175C13.8827 27.9756 13.5979 28.0362 13.169 28.0362C12.713 28.0362 12.4336 27.9863 12.2595 27.8231L12.2584 27.8221C12.0418 27.6222 11.9889 27.3279 11.9889 26.6706V23.0054Z" fill="#000000" class="bmwfcol"/><path d="M22.9085 23.0054H21.7962V29.0001H22.9085V23.0054Z" fill="#000000" class="bmwfcol"/><title>connected_music_lt_48</title></svg>