<svg width="48" height="48" viewBox="0 0 32 32" xmlns="http://www.w3.org/2000/svg"><path d="M7.5 21.5V22.3215C6.68607 21.8813 5.95132 21.3352 5.30806 20.6919C3.42507 18.809 2.375 16.142 2.375 13C2.375 9.85797 3.42507 7.19105 5.30806 5.30806C7.19105 3.42507 9.85797 2.375 13 2.375C16.142 2.375 18.809 3.42507 20.6919 5.30806C22.5749 7.19105 23.625 9.85797 23.625 13C23.625 16.142 22.5749 18.809 20.6919 20.6919C20.4027 20.9812 20.0949 21.2508 19.7697 21.5H17.3434C18.287 21.074 19.1136 20.5026 19.8081 19.8081C20.5556 19.0605 21.1606 18.1598 21.5951 17.125H17.5726C17.3664 18.4145 17.0578 19.55 16.6565 20.4945C16.5047 20.8516 16.3359 21.1887 16.1502 21.5H14.6276C14.9406 21.1315 15.2371 20.6384 15.506 20.0055C15.8425 19.2139 16.1142 18.2456 16.3056 17.125H9.69429C9.8857 18.2458 10.1575 19.2142 10.494 20.0059C10.7629 20.6386 11.0593 21.1316 11.3722 21.5H9.84966C9.66399 21.1888 9.49527 20.8518 9.34355 20.4948C8.94212 19.5504 8.63354 18.4147 8.42735 17.125H4.40489C4.83936 18.1598 5.44436 19.0605 6.19194 19.8081C6.88645 20.5026 7.71305 21.074 8.6566 21.5H7.5ZM3.625 13C3.625 14.0294 3.74824 14.9907 3.98151 15.875H8.26464C8.17243 14.9738 8.125 14.0121 8.125 13C8.125 11.9879 8.17243 11.0262 8.26464 10.125H3.9815C3.74824 11.0093 3.625 11.9706 3.625 13ZM22.0185 15.875C22.2518 14.9907 22.375 14.0294 22.375 13C22.375 11.9706 22.2518 11.0093 22.0185 10.125H17.7353C17.8276 11.0262 17.875 11.988 17.875 13C17.875 14.012 17.8276 14.9738 17.7353 15.875H22.0185ZM16.4784 15.875C16.5742 14.9887 16.625 14.0273 16.625 13C16.625 11.9727 16.5742 11.0113 16.4784 10.125H9.52153C9.42581 11.0113 9.375 11.9727 9.375 13C9.375 14.0273 9.42582 14.9887 9.52153 15.875H16.4784ZM8.42734 8.875C8.63354 7.58529 8.94211 6.44966 9.34355 5.50517C9.58798 4.93008 9.87653 4.40681 10.209 3.95974C8.60152 4.36887 7.24491 5.13897 6.19194 6.19194C5.44435 6.93953 4.83934 7.84018 4.40488 8.875H8.42734ZM9.69429 8.875H16.3056C16.1142 7.75441 15.8425 6.7861 15.506 5.99446C14.7948 4.32094 13.8911 3.625 13 3.625C12.1088 3.625 11.2052 4.32079 10.494 5.99412C10.1575 6.78579 9.8857 7.7542 9.69429 8.875ZM17.5726 8.875H21.5951C21.1607 7.84018 20.5557 6.93953 19.8081 6.19194C18.755 5.13893 17.3984 4.36881 15.7908 3.95969C16.1234 4.40687 16.412 4.9303 16.6565 5.50554C17.0578 6.44998 17.3664 7.58551 17.5726 8.875Z" fill="#000000" class="bmwfcol"/><path d="M11.3935 23.0052H8.83398V28.9999H11.3416C12.0794 28.9999 12.5881 28.8717 12.9597 28.5614C13.3517 28.2469 13.5376 27.767 13.5376 27.1972C13.5376 26.7829 13.4238 26.4426 13.246 26.2026L13.2453 26.2016C13.1367 26.0569 13.0161 25.9438 12.8876 25.8453C12.9537 25.7397 13.0249 25.6249 13.093 25.513L13.0965 25.5068C13.2716 25.1947 13.4114 24.8979 13.4114 24.4963C13.4114 23.966 13.1731 23.5199 12.76 23.265L12.7572 23.2634C12.3949 23.0477 11.9673 23.0052 11.3935 23.0052ZM9.9463 25.4019V24.0879H11.349C11.5358 24.0879 11.6889 24.0935 11.8144 24.1095C11.9407 24.1256 12.0264 24.1509 12.0848 24.1825L12.0882 24.1843C12.1671 24.2251 12.2106 24.2697 12.2374 24.3186C12.2654 24.37 12.2843 24.4433 12.2843 24.5557C12.2843 24.7365 12.2198 24.8825 12.0891 25.1076C12.0335 25.2022 11.9735 25.3011 11.912 25.4019H9.9463ZM9.9463 27.9173V26.4845H11.5123C11.8211 26.4845 12.0001 26.522 12.1341 26.613C12.2383 26.6845 12.3039 26.7623 12.3453 26.8497C12.3876 26.939 12.4104 27.0505 12.4104 27.1972C12.4104 27.4696 12.3347 27.6361 12.1941 27.7418C12.0467 27.8507 11.8189 27.9173 11.349 27.9173H9.9463Z" fill="#000000" class="bmwfcol"/><path d="M15.8536 23.0052H14.5291V28.9999H15.634V25.1248L16.8545 27.8869H17.8051L19.0256 25.1248V28.9999H20.1305V23.0052H18.8135L17.3335 26.3471L15.8536 23.0052Z" fill="#000000" class="bmwfcol"/><path d="M20.8266 23.0052H21.9621L22.8154 27.1178L23.7328 23.8511H24.8444L25.7682 27.1183L26.6152 23.0052H27.7432L26.5109 28.9999H25.2096L24.2857 25.725L23.3682 28.9999H22.0668L20.8266 23.0052Z" fill="#000000" class="bmwfcol"/><path d="M29.6421 23.0052H28.5297L28.5223 24.144H29.6346L29.6421 23.0052Z" fill="#000000" class="bmwfcol"/><path d="M28.5372 24.7822H29.6346V28.9999H28.5372V24.7822Z" fill="#000000" class="bmwfcol"/><title>connected_mobilty_lt_48</title></svg>