<svg width="48" height="48" viewBox="0 0 32 32" xmlns="http://www.w3.org/2000/svg"><path d="M19 15.3351C17.3211 15.335 16.0356 15.3349 14.8164 15.7447C13.6117 16.1497 12.441 16.9349 10.7341 18.3558C7.63347 18.6269 5.99181 18.7724 4.83781 19.0288C3.61276 19.3011 2.91526 19.7038 1.70098 20.4049L1.33521 20.6161L1.33496 25.0137L1.82788 25.1458C2.75025 25.3929 3.27586 25.5243 3.64335 25.592C3.80167 25.6211 3.93211 25.6387 4.05004 25.6492C4.50998 26.8291 5.65734 27.6651 6.99996 27.6651C8.33656 27.6651 9.47964 26.8365 9.94366 25.6651H21.0563C21.5203 26.8365 22.6634 27.6651 24 27.6651C25.3371 27.6651 26.4805 26.8359 26.9442 25.6638C27.4578 25.6587 27.8829 25.6342 28.3253 25.5184C28.8992 25.3681 29.4695 25.0743 30.3327 24.576L30.6652 24.384L30.665 21.7246L30.4702 21.5298C30.005 21.0646 29.8216 20.7634 29.7424 20.5656C29.6687 20.3813 29.665 20.244 29.665 20L29.6649 18.3907L27.4376 18.1958L27.2897 18.1101C25.8 17.2473 24.6135 16.5601 23.4057 16.0914C22.0975 15.5839 20.776 15.3351 19 15.3351ZM27.1604 24.3293C27.0717 22.6607 25.6906 21.3351 24 21.3351C22.3073 21.3351 20.925 22.6638 20.8392 24.3351H10.1607C10.0749 22.6638 8.6926 21.3351 6.99996 21.3351C5.32725 21.3351 3.95762 22.6327 3.84276 24.2762C3.5975 24.229 3.2475 24.1449 2.66502 23.992L2.66517 21.3844C3.67881 20.8027 4.20773 20.5313 5.12637 20.3272C6.19705 20.0892 7.77029 19.95 11.0581 19.6625L11.267 19.6443L11.4276 19.5095C13.2076 18.0159 14.2515 17.3378 15.2402 17.0054C16.2326 16.6718 17.2212 16.6651 19 16.6651C20.6325 16.6651 21.7882 16.8905 22.9246 17.3314C24.0329 17.7614 25.1334 18.3986 26.6685 19.2874L27.0272 19.495L28.335 19.6094L28.335 20.0156C28.3349 20.2707 28.3348 20.6277 28.5075 21.0595C28.6565 21.432 28.9163 21.821 29.335 22.2691L29.3352 23.6137C28.6823 23.9802 28.317 24.1457 27.9883 24.2318C27.7456 24.2953 27.5095 24.3199 27.1604 24.3293ZM6.99996 22.6651C8.0134 22.6651 8.83496 23.4866 8.83496 24.5001C8.83496 25.5135 8.0134 26.3351 6.99996 26.3351C5.98652 26.3351 5.16496 25.5135 5.16496 24.5001C5.16496 23.4866 5.98652 22.6651 6.99996 22.6651ZM24 22.6651C25.0134 22.6651 25.835 23.4866 25.835 24.5001C25.835 25.5135 25.0134 26.3351 24 26.3351C22.9865 26.3351 22.165 25.5135 22.165 24.5001C22.165 23.4866 22.9865 22.6651 24 22.6651Z" fill="#000000" class="bmwfcol"/><path d="M7.66507 9.45112L11 6.11616V7.88392L7.00012 11.8838L3.00003 7.88373L3.00003 6.11597L6.33507 9.45101L6.33507 2L7.66507 2L7.66507 9.45112Z" fill="#000000" class="bmwfcol"/><path d="M12 14.2651H1.99998V12.9351H12V14.2651Z" fill="#000000" class="bmwfcol"/><title>connected-drive-store_lt_48</title></svg>