<svg width="48" height="48" viewBox="0 0 32 32" xmlns="http://www.w3.org/2000/svg"><path d="M24.335 12V7.66496L20 7.66496V6.33496H24.335V2H25.665V6.33496H30V7.66496L25.665 7.66496V12H24.335Z" fill="#000000" class="bmwfcol"/><path d="M27.375 16C27.375 15.1254 27.3014 14.2908 27.1597 13.5H28.4276C28.5581 14.2996 28.625 15.1344 28.625 16C28.625 19.742 27.3749 22.909 25.1419 25.1419C22.909 27.3749 19.742 28.625 16 28.625C12.258 28.625 9.09105 27.3749 6.85806 25.1419C4.62507 22.909 3.375 19.742 3.375 16C3.375 12.258 4.62507 9.09105 6.85806 6.85806C9.09105 4.62507 12.258 3.375 16 3.375C16.8656 3.375 17.7004 3.44189 18.5 3.57235V4.8403C17.7092 4.69856 16.8746 4.625 16 4.625C14.8907 4.625 13.7974 5.51101 12.9519 7.53997C12.5176 8.58217 12.1752 9.87328 11.947 11.375H21.3223L21.3899 11.9236C21.5443 13.1769 21.625 14.5423 21.625 16C21.625 17.1878 21.5714 18.3166 21.4674 19.375H26.9707C27.2356 18.3326 27.375 17.2042 27.375 16ZM4.625 16C4.625 17.2042 4.76445 18.3326 5.02928 19.375H10.5325C10.4286 18.3167 10.375 17.1879 10.375 16C10.375 14.8121 10.4286 13.6833 10.5325 12.625H5.02928C4.76445 13.6674 4.625 14.7958 4.625 16ZM5.42177 20.625C5.95564 22.0381 6.74354 23.2597 7.74194 24.2581C9.11213 25.6282 10.9026 26.602 13.0317 27.0667C12.55 26.4816 12.1385 25.7578 11.7981 24.9408C11.3001 23.7456 10.9236 22.2895 10.6834 20.625H5.42177ZM11.947 20.625C12.1752 22.1267 12.5176 23.4178 12.9519 24.46C13.7974 26.489 14.8907 27.375 16 27.375C17.1093 27.375 18.2026 26.4888 19.0481 24.4596C19.4823 23.4174 19.8248 22.1265 20.0529 20.625H11.947ZM21.3166 20.625C21.0763 22.2892 20.6999 23.7452 20.2019 24.9404C19.8615 25.7575 19.4498 26.4815 18.9681 27.0668C21.0973 26.602 22.8878 25.6283 24.2581 24.2581C25.2565 23.2597 26.0444 22.0381 26.5782 20.625H21.3166ZM20.2111 19.375C20.3183 18.3306 20.375 17.2021 20.375 16C20.375 14.8003 20.3186 13.6715 20.2111 12.625H11.7888C11.6816 13.6693 11.625 14.7978 11.625 16C11.625 17.2022 11.6816 18.3307 11.7888 19.375H20.2111ZM10.6834 11.375C10.9236 9.71052 11.3001 8.25436 11.7981 7.05917C12.1385 6.24224 12.55 5.5184 13.0317 4.9333C10.9026 5.39804 9.11213 6.37175 7.74194 7.74194C6.74354 8.74035 5.95564 9.96188 5.42177 11.375H10.6834Z" fill="#000000" class="bmwfcol"/><title>connected_plus_lt_48</title></svg>