<svg width="48" height="48" viewBox="0 0 32 32" xmlns="http://www.w3.org/2000/svg"><path d="M17.875 13C17.875 13.9892 17.8297 14.9304 17.7415 15.8139C17.3221 15.8206 16.9014 15.8358 16.4789 15.8703C16.5743 14.9853 16.625 14.0255 16.625 13C16.625 11.9727 16.5742 11.0113 16.4784 10.125H9.52153C9.42581 11.0113 9.375 11.9727 9.375 13C9.375 14.0273 9.42582 14.9887 9.52153 15.875H16.4229C15.6459 15.9416 14.863 16.0749 14.0724 16.3407C13.4789 16.5402 12.9097 16.8024 12.3419 17.125H9.69429C9.79167 17.6952 9.90985 18.226 10.0468 18.7141C9.96896 18.7757 9.89066 18.8382 9.81184 18.9017C9.46687 18.932 9.13862 18.9609 8.82583 18.9891C8.66675 18.4119 8.53348 17.7889 8.42735 17.125H4.40489C4.74778 17.9417 5.19688 18.6748 5.73847 19.3151C5.21246 19.3872 4.75331 19.4653 4.34128 19.5564C3.06935 17.7958 2.375 15.555 2.375 13C2.375 9.85797 3.42507 7.19105 5.30806 5.30806C7.19105 3.42507 9.85797 2.375 13 2.375C16.142 2.375 18.809 3.42507 20.6919 5.30806C22.5749 7.19105 23.625 9.85797 23.625 13C23.625 14.194 23.4733 15.3195 23.182 16.3593C22.7838 16.2423 22.38 16.1446 21.9646 16.0657L22.0185 15.875C22.2518 14.9907 22.375 14.0294 22.375 13C22.375 11.9706 22.2518 11.0093 22.0185 10.125H17.7353C17.8276 11.0262 17.875 11.988 17.875 13ZM3.625 13C3.625 14.0294 3.74824 14.9907 3.98151 15.875H8.26464C8.17243 14.9738 8.125 14.0121 8.125 13C8.125 11.9879 8.17243 11.0262 8.26464 10.125H3.9815C3.74824 11.0093 3.625 11.9706 3.625 13ZM8.42734 8.875C8.63354 7.58529 8.94211 6.44966 9.34355 5.50517C9.58798 4.93008 9.87653 4.40681 10.209 3.95974C8.60152 4.36887 7.24491 5.13897 6.19194 6.19194C5.44435 6.93953 4.83934 7.84018 4.40488 8.875H8.42734ZM9.69429 8.875H16.3056C16.1142 7.75441 15.8425 6.7861 15.506 5.99446C14.7948 4.32094 13.8911 3.625 13 3.625C12.1088 3.625 11.2052 4.32079 10.494 5.99412C10.1575 6.78579 9.8857 7.7542 9.69429 8.875ZM17.5726 8.875H21.5951C21.1607 7.84018 20.5557 6.93953 19.8081 6.19194C18.755 5.13893 17.3984 4.36881 15.7908 3.95969C16.1234 4.40687 16.412 4.9303 16.6565 5.50554C17.0578 6.44998 17.3664 7.58551 17.5726 8.875Z" fill="#000000" class="bmwfcol"/><path d="M18.919 17.335L19 17.335C20.776 17.335 22.0975 17.5838 23.4057 18.0913C24.6135 18.56 25.8 19.2472 27.2897 20.11L27.4376 20.1957L29.6649 20.3906L29.665 21.9999C29.665 22.2439 29.6687 22.3812 29.7424 22.5655C29.8216 22.7633 30.005 23.0645 30.4702 23.5297L30.665 23.7245L30.6652 26.3839L30.3327 26.5759C29.4695 27.0742 28.8992 27.368 28.3253 27.5183C27.8829 27.6341 27.4578 27.6586 26.9442 27.6637C26.4805 28.8358 25.3371 29.665 24 29.665C22.6634 29.665 21.5203 28.8364 21.0563 27.665H9.94366C9.47964 28.8364 8.33656 29.665 6.99996 29.665C5.65734 29.665 4.50998 28.829 4.05004 27.6491C3.93211 27.6386 3.80167 27.621 3.64335 27.5919C3.27586 27.5242 2.75025 27.3928 1.82788 27.1457L1.33496 27.0136L1.33521 22.616L1.70098 22.4048C2.91526 21.7037 3.61276 21.301 4.83781 21.0287C5.99181 20.7723 7.63347 20.6268 10.7341 20.3557C12.441 18.9348 13.6117 18.1496 14.8164 17.7446C16.0356 17.3348 17.2402 17.3349 18.919 17.335ZM27.9883 26.2317C28.317 26.1456 28.6823 25.9801 29.3352 25.6136L29.335 24.269C28.9163 23.8209 28.6565 23.4319 28.5075 23.0594C28.3348 22.6276 28.3349 22.2706 28.335 22.0155L28.335 21.6093L27.0272 21.4949L26.6685 21.2873C25.1334 20.3985 24.0329 19.7613 22.9246 19.3313C21.7882 18.8904 20.6325 18.665 19 18.665C17.2212 18.665 16.2326 18.6717 15.2402 19.0053C14.2515 19.3377 13.2076 20.0158 11.4276 21.5094L11.267 21.6442L11.0581 21.6624C7.77029 21.9499 6.19705 22.0891 5.12637 22.3271C4.20773 22.5312 3.67881 22.8026 2.66517 23.3843L2.66502 25.9919C3.2475 26.1448 3.5975 26.2289 3.84276 26.2761C3.95762 24.6326 5.32725 23.335 6.99996 23.335C8.6926 23.335 10.0749 24.6637 10.1607 26.335H20.8392C20.925 24.6637 22.3073 23.335 24 23.335C25.6906 23.335 27.0717 24.6606 27.1604 26.3292C27.5095 26.3198 27.7456 26.2952 27.9883 26.2317ZM5.16496 26.5C5.16496 27.5134 5.98652 28.335 6.99996 28.335C8.0134 28.335 8.83496 27.5134 8.83496 26.5C8.83496 25.4865 8.0134 24.665 6.99996 24.665C5.98652 24.665 5.16496 25.4865 5.16496 26.5ZM22.165 26.5C22.165 27.5134 22.9865 28.335 24 28.335C25.0134 28.335 25.835 27.5134 25.835 26.5C25.835 25.4865 25.0134 24.665 24 24.665C22.9865 24.665 22.165 25.4865 22.165 26.5Z" fill="#000000" class="bmwfcol"/><title>connected_drive_services_lt_48</title></svg>