<svg width="48" height="48" viewBox="0 0 32 32" xmlns="http://www.w3.org/2000/svg"><path d="M13 23.625C14.645 23.625 16.1598 23.3372 17.5 22.7927V21.4275C16.9679 21.6803 16.3972 21.886 15.7908 22.0403C16.1234 21.5931 16.412 21.0697 16.6565 20.4945C17.0578 19.55 17.3664 18.4145 17.5726 17.125H17.5755L17.7491 15.7369C17.8323 14.8758 17.875 13.9605 17.875 13C17.875 11.988 17.8276 11.0262 17.7353 10.125H22.0185C22.2518 11.0093 22.375 11.9706 22.375 13C22.375 13.4335 22.3531 13.855 22.3104 14.2637L23.5958 13.8971C23.6152 13.6027 23.625 13.3036 23.625 13C23.625 9.85797 22.5749 7.19105 20.6919 5.30806C18.809 3.42507 16.142 2.375 13 2.375C9.85797 2.375 7.19105 3.42507 5.30806 5.30806C3.42507 7.19105 2.375 9.85797 2.375 13C2.375 16.142 3.42507 18.809 5.30806 20.6919C7.19105 22.5749 9.85797 23.625 13 23.625ZM3.625 13C3.625 11.9706 3.74824 11.0093 3.9815 10.125H8.26464C8.17243 11.0262 8.125 11.9879 8.125 13C8.125 14.0121 8.17243 14.9738 8.26464 15.875H3.98151C3.74824 14.9907 3.625 14.0294 3.625 13ZM4.40489 17.125H8.42735C8.63354 18.4147 8.94212 19.5504 9.34355 20.4948C9.58798 21.0699 9.87654 21.5932 10.209 22.0403C8.60152 21.6311 7.24491 20.861 6.19194 19.8081C5.44436 19.0605 4.83936 18.1598 4.40489 17.125ZM9.69429 17.125H16.3056C16.1142 18.2456 15.8425 19.2139 15.506 20.0055C14.7948 21.6791 13.8911 22.375 13 22.375C12.1088 22.375 11.2052 21.6792 10.494 20.0059C10.1575 19.2142 9.8857 18.2458 9.69429 17.125ZM16.4784 15.875H9.52153C9.42582 14.9887 9.375 14.0273 9.375 13C9.375 11.9727 9.42581 11.0113 9.52153 10.125H16.4784C16.5742 11.0113 16.625 11.9727 16.625 13C16.625 14.0273 16.5742 14.9887 16.4784 15.875ZM8.42734 8.875H4.40488C4.83934 7.84018 5.44435 6.93953 6.19194 6.19194C7.24491 5.13897 8.60152 4.36887 10.209 3.95974C9.87653 4.40681 9.58798 4.93008 9.34355 5.50517C8.94211 6.44966 8.63354 7.58529 8.42734 8.875ZM9.69429 8.875C9.8857 7.7542 10.1575 6.78579 10.494 5.99412C11.2052 4.32079 12.1088 3.625 13 3.625C13.8911 3.625 14.7948 4.32094 15.506 5.99446C15.8425 6.7861 16.1142 7.75441 16.3056 8.875H9.69429ZM17.5726 8.875C17.3664 7.58551 17.0578 6.44998 16.6565 5.50554C16.412 4.9303 16.1234 4.40687 15.7908 3.95969C17.3984 4.36881 18.755 5.13893 19.8081 6.19194C20.5557 6.93953 21.1607 7.84018 21.5951 8.875H17.5726Z" fill="#000000" class="bmwfcol"/><path d="M28.4153 14.3356L29.665 14.3354V25.0005C29.6639 26.0712 29.2649 26.9059 28.5332 27.4495C27.8332 27.9697 26.9119 28.1611 25.9643 28.1611C24.5986 28.1611 23.3348 27.1443 23.335 25.5318C23.3351 24.4418 23.9551 23.6729 24.6927 23.2071C25.415 22.751 26.3007 22.5442 27.0363 22.5454H27.0552C27.3348 22.5454 27.6241 22.5453 27.9845 22.63C28.0962 22.6562 28.2119 22.6898 28.335 22.732V15.7341L20.665 17.7892V27.5005C20.665 28.5733 20.2659 29.4096 19.5332 29.9539C18.8332 30.4741 17.9119 30.6655 16.9643 30.6655C15.5986 30.6655 14.3348 29.6487 14.335 28.0362C14.3351 26.9462 14.9551 26.1773 15.6927 25.7115C16.415 25.2553 17.3007 25.0486 18.0362 25.0498H18.0552C18.3348 25.0498 18.6241 25.0497 18.9845 25.1344C19.0962 25.1606 19.2119 25.1942 19.335 25.2364V16.7687L28.4153 14.3356ZM28.335 24.1649C28.0347 24.0289 27.8353 23.9612 27.6803 23.9247C27.4792 23.8775 27.327 23.8754 27.0357 23.8754L27.0345 23.8754C26.5167 23.8745 25.8849 24.0272 25.4029 24.3316C24.9361 24.6265 24.665 25.0195 24.665 25.5319C24.6649 26.3346 25.2557 26.8311 25.9642 26.8311C26.762 26.8311 27.3586 26.6654 27.74 26.382C28.0889 26.1227 28.335 25.709 28.335 24.9961V24.1649ZM19.335 26.6693C19.0347 26.5333 18.8353 26.4656 18.6803 26.4291C18.4792 26.3819 18.327 26.3798 18.0357 26.3798L18.0345 26.3798C17.5167 26.3789 16.8849 26.5316 16.4029 26.836C15.9361 27.1309 15.665 27.5238 15.665 28.0363C15.6649 28.839 16.2557 29.3355 16.9642 29.3355C17.762 29.3355 18.3586 29.1698 18.74 28.8864C19.0889 28.6271 19.335 28.2134 19.335 27.5005V26.6693Z" fill="#000000" class="bmwfcol"/><title>connected_entertainment_lt_48</title></svg>