<svg width="48" height="48" viewBox="0 0 32 32" xmlns="http://www.w3.org/2000/svg"><path d="M20.1238 2.18335L25.2754 7.33496H28.9999V8.66496H22.6249V27.335H24.9999V28.665H14.9999V27.335H17.3749V8.66496H9.66496V17.335H12.665V19C12.665 20.1902 12.4315 21.168 11.7476 21.8248C11.0697 22.4758 10.099 22.665 8.99996 22.665C7.90092 22.665 6.93026 22.4758 6.2523 21.8248C5.56839 21.168 5.33496 20.1902 5.33496 19V17.335H8.33496V8.66496H4V7.33496H10.3357L20.1238 2.18335ZM18.6249 26.2589V27.335H21.3749V23.5089L18.6249 26.2589ZM18.6249 24.4911L21.3749 21.7411V20.2589L18.6249 17.5089V24.4911ZM18.6249 15.7411L21.3749 18.4911V11.5089L18.6249 14.2589V15.7411ZM18.6249 12.4911L21.3749 9.74115V8.66496H18.6249V12.4911ZM20.6249 7.33496H23.3945L20.6249 4.56542V7.33496ZM19.3749 4.08044L13.1913 7.33496H19.3749V4.08044ZM6.66496 18.665V19C6.66496 20.0634 6.88213 20.5856 7.17351 20.8655C7.47085 21.151 8.0002 21.335 8.99996 21.335C9.99972 21.335 10.5291 21.151 10.8264 20.8655C11.1178 20.5856 11.335 20.0634 11.335 19V18.665H6.66496Z" fill="#000000" class="bmwfcol"/><title>construction_crane_lt_48</title></svg>