<svg width="48" height="48" viewBox="0 0 32 32" xmlns="http://www.w3.org/2000/svg"><path d="M25 4.23193V5.76856C26.7911 6.81302 27.492 7.33318 27.8742 8.40241C28.0904 9.00704 28.2121 9.82017 28.2738 11.0533C28.3353 12.282 28.3355 13.868 28.3355 15.9999C28.3355 18.1319 28.3353 19.7179 28.2738 20.9466C28.2121 22.1797 28.0904 22.9928 27.8742 23.5974C27.492 24.6667 26.7911 25.1868 25 26.2313V27.7679L25.3328 27.5758C27.2943 26.4432 28.5315 25.7097 29.1266 24.0451C29.4105 23.251 29.5388 22.2784 29.6021 21.013C29.6655 19.747 29.6655 18.1276 29.6655 16.0188V15.981C29.6655 13.8722 29.6655 12.2528 29.6021 10.9868C29.5388 9.72141 29.4105 8.74886 29.1266 7.9547C28.5315 6.29013 27.2943 5.55663 25.3328 4.42406L25 4.23193Z" fill="#000000" class="bmwfcol"/><path d="M7 26.2313V27.7679L6.66767 27.576C4.70617 26.4435 3.46889 25.7099 2.87384 24.0454C2.58994 23.2512 2.46163 22.2787 2.39831 21.0133C2.33496 19.7473 2.33496 18.1279 2.33496 16.019V15.9813C2.33496 13.8724 2.33496 12.253 2.39831 10.987C2.46163 9.72165 2.58994 8.74909 2.87384 7.95494C3.46889 6.29037 4.70615 5.55687 6.66765 4.4243L7 4.23242V5.76905C5.20925 6.81335 4.50842 7.3335 4.12622 8.40265C3.91008 9.00728 3.78835 9.82041 3.72665 11.0535C3.66517 12.2822 3.66496 13.8682 3.66496 16.0002C3.66496 18.1321 3.66517 19.7181 3.72665 20.9468C3.78835 22.1799 3.91008 22.993 4.12622 23.5977C4.50842 24.6668 5.20925 25.187 7 26.2313Z" fill="#000000" class="bmwfcol"/><path d="M18.5811 12.4167C18.5811 11.9104 18.9915 11.5 19.4977 11.5C20.004 11.5 20.4144 11.9104 20.4144 12.4167C20.4144 12.9229 20.004 13.3333 19.4977 13.3333C18.9915 13.3333 18.5811 12.9229 18.5811 12.4167Z" fill="#000000" class="bmwfcol"/><path d="M11.835 12V13.835H10V15.165H11.835V17H13.165V15.165H15V13.835H13.165V12H11.835Z" fill="#000000" class="bmwfcol"/><path d="M17.4167 13.5835C16.9104 13.5835 16.5 13.9939 16.5 14.5002C16.5 15.0064 16.9104 15.4168 17.4167 15.4168C17.9229 15.4168 18.3333 15.0064 18.3333 14.5002C18.3333 13.9939 17.9229 13.5835 17.4167 13.5835Z" fill="#000000" class="bmwfcol"/><path d="M21.5837 13.5835C21.0774 13.5835 20.667 13.9939 20.667 14.5002C20.667 15.0064 21.0774 15.4168 21.5837 15.4168C22.0899 15.4168 22.5003 15.0064 22.5003 14.5002C22.5003 13.9939 22.0899 13.5835 21.5837 13.5835Z" fill="#000000" class="bmwfcol"/><path d="M19.4977 15.6665C18.9915 15.6665 18.5811 16.0769 18.5811 16.5832C18.5811 17.0894 18.9915 17.4998 19.4977 17.4998C20.004 17.4998 20.4144 17.0894 20.4144 16.5832C20.4144 16.0769 20.004 15.6665 19.4977 15.6665Z" fill="#000000" class="bmwfcol"/><path d="M13.0016 8.02386L12.8078 7.83496L12.0603 7.83507L11.9715 7.86018C10.1159 8.38525 8.94962 9.00976 8.10345 10.2954C7.31617 11.4915 6.83837 13.2296 6.13505 15.7881L6.12525 15.8238C5.65617 17.5301 5.22545 19.1039 5.35993 20.4746C5.42974 21.1862 5.65048 21.8561 6.08923 22.4735C6.52392 23.0853 7.14884 23.6124 7.97901 24.0795L8.41283 24.3237L8.76931 23.9762C9.7362 23.0338 10.4431 22.3451 11.028 21.8319C11.6113 21.3203 12.0405 21.0131 12.4437 20.8166C13.2388 20.4291 14.0263 20.415 15.9997 20.415C17.973 20.415 18.7605 20.4291 19.5556 20.8165C19.9588 21.0131 20.388 21.3203 20.9713 21.8319C21.5562 22.3451 22.2631 23.0338 23.23 23.9762L23.5865 24.3237L24.0203 24.0795C24.8504 23.6124 25.4754 23.0853 25.9101 22.4735C26.3488 21.8561 26.5695 21.1862 26.6394 20.4746C26.7738 19.1039 26.3431 17.5301 25.874 15.8238L25.8642 15.7881C25.1609 13.2296 24.6831 11.4915 23.8958 10.2954C23.0497 9.00976 21.8834 8.38525 20.0278 7.86018L19.939 7.83507L19.1915 7.83496L18.9977 8.02386C18.6725 8.34091 18.4954 8.4422 18.1807 8.50357C17.7794 8.58182 17.1882 8.58506 15.9996 8.58505C14.8111 8.58506 14.2199 8.58182 13.8186 8.50357C13.5039 8.4422 13.3267 8.34091 13.0016 8.02386ZM9.21441 11.0266C9.7958 10.1433 10.5835 9.64465 12.2458 9.16504L12.2763 9.16504C12.6463 9.48997 13.0167 9.70227 13.564 9.80899C14.1088 9.91521 14.8378 9.91515 15.9066 9.91506H16.0927C17.1615 9.91515 17.8905 9.91521 18.4352 9.80899C18.9825 9.70227 19.353 9.48997 19.7229 9.16504L19.7535 9.16504C21.4158 9.64465 22.2035 10.1433 22.7849 11.0266C23.4317 12.0093 23.8571 13.5043 24.5916 16.1763C25.0822 17.9609 25.421 19.2711 25.3157 20.3447C25.2656 20.8552 25.1141 21.2975 24.8259 21.7032C24.596 22.0267 24.2645 22.3475 23.7887 22.6637C23.0083 21.9038 22.3838 21.3018 21.8484 20.8321C21.2294 20.2891 20.6968 19.8932 20.1382 19.621C19.0374 19.0845 17.9293 19.0847 16.1362 19.085H15.8631C14.07 19.0847 12.9619 19.0845 11.8611 19.621C11.3024 19.8932 10.7699 20.2891 10.1509 20.8321C9.61552 21.3018 8.99099 21.9038 8.21056 22.6637C7.7348 22.3475 7.40325 22.0267 7.17341 21.7032C6.88517 21.2975 6.73366 20.8552 6.68357 20.3447C6.57824 19.2711 6.91708 17.9609 7.40768 16.1763C8.1422 13.5043 8.56762 12.0093 9.21441 11.0266Z" fill="#000000" class="bmwfcol"/><title>controller_and_brackets_lt_48</title></svg>