<svg width="48" height="48" viewBox="0 0 32 32" xmlns="http://www.w3.org/2000/svg"><path d="M3.33594 10H4.66594V12.835H8.66594V17.335H8.77639L10.7764 19.335H25.6684L27.1684 17.335H30.7859L30.6569 18.1093C30.1288 21.2782 28.5433 23.3981 27.4712 24.4702L27.2764 24.665H3.33594V22.4833L2.33594 21.2333V17.335H3.33594L3.33594 10ZM4.66594 17.335H7.33594V14.165H4.66594V17.335ZM3.66594 18.665V20.7668L4.66594 22.0168V23.335H26.7191C27.5472 22.4504 28.6528 20.8936 29.1878 18.665H27.8334L26.3334 20.665H10.2255L8.22549 18.665H3.66594Z" fill="#000000" class="bmwfcol"/><path d="M11.0009 18.1649H15.0009V16.8349H11.0009V18.1649Z" fill="#000000" class="bmwfcol"/><path d="M15.0009 15.1649H11.0009V13.8349H15.0009V15.1649Z" fill="#000000" class="bmwfcol"/><path d="M16.0009 18.1649H20.0009V16.8349H16.0009V18.1649Z" fill="#000000" class="bmwfcol"/><path d="M20.0009 15.1649H16.0009V13.8349H20.0009V15.1649Z" fill="#000000" class="bmwfcol"/><path d="M21.0009 18.1649H25.0009V16.8349H21.0009V18.1649Z" fill="#000000" class="bmwfcol"/><path d="M25.0009 15.1649H21.0009V13.8349H25.0009V15.1649Z" fill="#000000" class="bmwfcol"/><title>container_ship_lt_48</title></svg>