<svg width="48" height="48" viewBox="0 0 32 32" xmlns="http://www.w3.org/2000/svg"><path d="M10.3359 13.335V11H11.6659V13.335H14V14.665H11.6659V17H10.3359V14.665H8V13.335H10.3359Z" fill="#000000" class="bmwfcol"/><path d="M18.502 13C17.9497 13 17.502 13.4477 17.502 14C17.502 14.5523 17.9497 15 18.502 15C19.0542 15 19.502 14.5523 19.502 14C19.502 13.4477 19.0542 13 18.502 13Z" fill="#000000" class="bmwfcol"/><path d="M23.502 13C22.9497 13 22.502 13.4477 22.502 14C22.502 14.5523 22.9497 15 23.502 15C24.0542 15 24.502 14.5523 24.502 14C24.502 13.4477 24.0542 13 23.502 13Z" fill="#000000" class="bmwfcol"/><path d="M21 10.5C20.4477 10.5 20 10.9478 20 11.5C20 12.0523 20.4477 12.5 21 12.5C21.5523 12.5 22 12.0523 22 11.5C22 10.9478 21.5523 10.5 21 10.5Z" fill="#000000" class="bmwfcol"/><path d="M21 15.5C20.4477 15.5 20 15.9478 20 16.5C20 17.0523 20.4477 17.5 21 17.5C21.5523 17.5 22 17.0523 22 16.5C22 15.9478 21.5523 15.5 21 15.5Z" fill="#000000" class="bmwfcol"/><path d="M11.7765 5.33492C12.1742 5.73267 12.5584 6.10831 13.1313 6.22292C13.6748 6.33163 14.4656 6.33504 16.0008 6.33503C17.536 6.33504 18.3269 6.33163 18.8703 6.22292C19.4432 6.10831 19.8274 5.73267 20.2251 5.33492L21.0952 5.33505C23.4902 6.03033 25.0416 6.87132 26.1007 8.52219C27.1045 10.0869 27.7174 12.3741 28.6426 15.8271C29.2561 18.1164 29.8 20.1685 29.6303 21.9428C29.5431 22.8553 29.2684 23.7088 28.7228 24.4965C28.1808 25.2791 27.3948 25.9631 26.3333 26.5759L25.8914 26.8311L25.5306 26.4703C24.2755 25.2152 23.3524 24.2924 22.5872 23.6037C21.8234 22.9163 21.2501 22.4932 20.7034 22.2198C19.623 21.6796 18.5513 21.665 16.0008 21.665C13.4504 21.665 12.3786 21.6796 11.2982 22.2198C10.7515 22.4932 10.1782 22.9163 9.41444 23.6037C8.64924 24.2924 7.72609 25.2152 6.47106 26.4703L6.11024 26.8311L5.66833 26.5759C4.6068 25.9631 3.82081 25.2791 3.2788 24.4965C2.73328 23.7088 2.45855 22.8553 2.37129 21.9428C2.20161 20.1685 2.74536 18.1172 3.35879 15.8279C4.28401 12.3749 4.89709 10.0869 5.9009 8.52219C6.96001 6.87132 8.51143 6.03033 10.9065 5.33505L11.7765 5.33492ZM11.2328 6.665C9.03821 7.31183 7.81888 7.99565 7.02034 9.24036C6.15572 10.5881 5.59378 12.6255 4.64347 16.1721C4.00967 18.5375 3.55327 20.3315 3.69525 21.8162C3.76382 22.5333 3.97286 23.1627 4.37217 23.7392C4.70966 24.2265 5.19953 24.6997 5.90149 25.159C6.96757 24.0936 7.8085 23.2597 8.52472 22.6151C9.32344 21.8963 10.0001 21.3819 10.7034 21.0302C12.3289 20.2175 14.2358 20.335 16.0008 20.335C17.7659 20.335 19.6728 20.2175 21.2982 21.0302C22.0015 21.3819 22.6782 21.8963 23.4769 22.6151C24.1931 23.2597 25.0341 24.0936 26.1001 25.159C26.8021 24.6997 27.292 24.2265 27.6295 23.7392C28.0288 23.1627 28.2378 22.5333 28.3064 21.8162C28.4484 20.3315 27.992 18.5375 27.3582 16.1721C26.4079 12.6255 25.8459 10.5881 24.9813 9.24036C24.1828 7.99565 22.9634 7.31183 20.7688 6.665C20.2892 7.10862 19.8288 7.38754 19.1312 7.52708C18.1127 7.73082 17.033 7.66504 16.0008 7.66504C14.9687 7.66504 13.8889 7.73082 12.8704 7.52708C12.1729 7.38754 11.7124 7.10862 11.2328 6.665Z" fill="#000000" class="bmwfcol"/><title>controller_lt_48</title></svg>