<svg width="48" height="48" viewBox="0 0 32 32" xmlns="http://www.w3.org/2000/svg"><path d="M26.998 5.66508H25.664V7.33512H29.664V26.6651H2.33398V7.33512H20.334V5.66508H18.998V4.33508H26.998V5.66508ZM21.664 5.66508V8.66512H3.66398V20.3114C3.77318 20.327 3.88499 20.3351 3.99895 20.3351C5.28854 20.3351 6.33395 19.2897 6.33395 18.0001H7.66395C7.66395 19.2897 8.70937 20.3351 9.99895 20.3351C11.2885 20.3351 12.334 19.2897 12.334 18.0001H13.664C13.664 19.2897 14.7094 20.3351 15.999 20.3351C17.2885 20.3351 18.334 19.2897 18.334 18.0001H19.664C19.664 19.2897 20.7094 20.3351 21.999 20.3351C23.2885 20.3351 24.334 19.2897 24.334 18.0001H25.664C25.664 19.2897 26.7094 20.3351 27.999 20.3351C28.1129 20.3351 28.2248 20.327 28.334 20.3114V8.66512H24.334V5.66508H21.664ZM3.66398 21.65V25.3351H28.334V21.65C28.2236 21.66 28.1118 21.6651 27.999 21.6651C26.7586 21.6651 25.6621 21.0489 24.999 20.1059C24.3358 21.0489 23.2393 21.6651 21.999 21.6651C20.7586 21.6651 19.6621 21.0489 18.999 20.1059C18.3358 21.0489 17.2393 21.6651 15.999 21.6651C14.7586 21.6651 13.6621 21.0489 12.999 20.1059C12.3358 21.0489 11.2393 21.6651 9.99895 21.6651C8.75856 21.6651 7.66209 21.0489 6.99895 20.1059C6.33581 21.0489 5.23934 21.6651 3.99895 21.6651C3.88612 21.6651 3.77439 21.66 3.66398 21.65Z" fill="#000000" class="bmwfcol"/><title>coolant_lt_48</title></svg>