<svg width="48" height="48" viewBox="0 0 32 32" xmlns="http://www.w3.org/2000/svg"><path d="M15.3359 2V8H16.6659V2H15.3359Z" fill="#000000" class="bmwfcol"/><path d="M15.156 20.085H12.2235L11.334 20.9745V23.6933L12.5861 25.665H15.5244L15.999 25.1904L16.4735 25.665H19.4568L20.664 23.6869L20.664 20.9745L19.7744 20.085H16.842L15.999 20.5065L15.156 20.085ZM12.664 21.5254L12.7744 21.415H14.842L15.3359 21.6619V23.9726L14.9735 24.335H13.317L12.664 23.3067V21.5254ZM16.6659 23.9765V21.66L17.156 21.415H19.2235L19.334 21.5254L19.334 23.3131L18.7103 24.335H17.0244L16.6659 23.9765Z" fill="#000000" class="bmwfcol"/><path d="M5.20468 19.1013C5.70989 18.4851 6.3117 17.9311 6.89751 17.3907C6.73137 17.2997 6.52043 17.2407 6.19038 17.2061C5.69668 17.1543 5.03936 17.165 4 17.165V15.835C4.98368 15.835 5.74534 15.8221 6.32919 15.8833C6.76833 15.9294 7.15259 16.0207 7.50549 16.2075C7.69523 15.8481 7.91513 15.4578 8.15432 15.0765C8.42884 14.6389 8.73747 14.1992 9.06389 13.8285C9.38088 13.4685 9.7591 13.1217 10.1828 12.9357C11.3406 12.4277 12.1504 12.3351 16.001 12.3351C19.8513 12.3351 20.6624 12.4276 21.8193 12.9358C22.2424 13.1224 22.6211 13.4695 22.9381 13.8295C23.2644 14.2003 23.573 14.6398 23.8475 15.0772C24.0864 15.4579 24.3061 15.8477 24.4957 16.2065C24.8479 16.0205 25.2316 15.9294 25.6698 15.8834C26.2537 15.8222 27.0154 15.8351 27.9992 15.8351V17.1651C27.2698 17.1651 26.535 17.13 25.8086 17.2062C25.4796 17.2407 25.2691 17.2994 25.1034 17.3898C25.729 17.9656 26.3392 18.5427 26.7972 19.1013C27.2574 19.6627 27.6659 20.3237 27.6659 21.0429V29.6651H22.3359V28.4629C18.0477 28.7458 13.9542 28.7458 9.66594 28.4629V29.6651H4.33594V21.0429C4.33594 20.3237 4.74443 19.6627 5.20468 19.1013ZM10.7173 14.1536C10.0866 14.4306 9.62836 15.2295 9.28098 15.7832C9.03946 16.1683 8.81781 16.5662 8.63074 16.9255C8.87744 16.9018 9.14811 16.8843 9.44494 16.8711C10.9362 16.8048 12.4318 16.8322 13.924 16.8322C15.3074 16.8349 16.6908 16.8349 18.0742 16.8322C19.5662 16.8301 21.0621 16.8047 22.5533 16.8711C22.8516 16.8844 23.1235 16.902 23.3712 16.9259C23.1841 16.5668 22.9624 16.169 22.7209 15.7842C22.3729 15.2295 21.9149 14.4322 21.284 14.1534C20.425 13.776 19.8999 13.6651 16.001 13.6651C12.1018 13.6651 11.5778 13.776 10.7173 14.1536ZM24.4088 18.5599C23.9759 18.1602 23.0232 18.2234 22.4941 18.1998C21.4971 18.1554 20.1041 18.1582 18.1105 18.1621C16.704 18.1676 15.2975 18.1649 13.891 18.1622C12.4299 18.1574 10.9643 18.1348 9.50407 18.1998C8.95347 18.2243 8.10351 18.1744 7.62619 18.5281C7.03444 19.0767 6.40829 19.635 5.95863 20.3125C7.10282 20.5933 8.30085 20.7368 10 20.8571V22.1904C8.2348 22.0677 6.93275 21.9187 5.66594 21.61V28.3351H8.33594V27.0348L9.04929 27.0868C13.7727 27.4312 18.2292 27.4312 22.9526 27.0868L23.6659 27.0348V28.3351H26.3359V21.61C25.0684 21.9192 23.766 22.0684 22 22.1912V20.8579C23.7 20.7375 24.8983 20.5938 26.0432 20.3124C25.6019 19.6475 24.9892 19.0988 24.4088 18.5599Z" fill="#000000" class="bmwfcol"/><path d="M21.1875 9.87289L25.4301 5.63025L26.3706 6.5707L22.128 10.8133L21.1875 9.87289Z" fill="#000000" class="bmwfcol"/><path d="M5.63086 6.57082L9.8735 10.8135L10.814 9.87301L6.57131 5.63037L5.63086 6.57082Z" fill="#000000" class="bmwfcol"/><title>cosmetic-repair_lt_48</title></svg>