<svg width="48" height="48" viewBox="0 0 32 32" xmlns="http://www.w3.org/2000/svg"><path d="M16.0009 3.23224L29.6659 11.1159V12.8841L27.6659 14.0379V20C27.6659 22.3678 26.4129 24.3124 24.333 25.636C24.1192 25.7721 23.8966 25.9017 23.6655 26.0248V30H22.3355V26.6259C20.552 27.3044 18.4018 27.665 16.0009 27.665C12.6174 27.665 9.73185 26.9488 7.66891 25.636C5.58894 24.3124 4.33594 22.3678 4.33594 20V14.0379L2.33594 12.8841V11.1159L16.0009 3.23224ZM23.6655 24.4841C25.4055 23.3602 26.3359 21.816 26.3359 20V14.8052L23.6655 16.3459V24.4841ZM22.3355 17.1132L16.0009 20.7677L5.66594 14.8052V20C5.66594 21.8322 6.61293 23.3876 8.38296 24.514C10.17 25.6512 12.7844 26.335 16.0009 26.335C18.5167 26.335 20.6641 25.9167 22.3355 25.1903V17.1132ZM22.9317 15.2337L28.3359 12.1159V11.8841L16.0009 4.76771L3.66594 11.8841V12.1159L16.0009 19.2322L21.6012 16.0013L16 12.7675V11.2318L22.9317 15.2337Z" fill="#000000" class="bmwfcol"/><title>courses_lt_48</title></svg>