<svg width="48" height="48" viewBox="0 0 32 32" xmlns="http://www.w3.org/2000/svg"><path d="M12.6659 24.1128C13.0899 23.9633 13.5242 23.7754 14 23.5417V22.0474C12.9856 22.5852 12.2663 22.8864 11.5312 23.0651C10.5501 23.3036 9.51574 23.3314 7.66572 23.3346V17.335H7.00072C6.4936 17.335 6.13912 17.3347 5.86384 17.3202C5.59046 17.3059 5.44057 17.2789 5.33616 17.2441C5.19527 17.1971 5.08613 17.1248 4.83445 16.8863L7.71378 11.8992L7.72834 11.7579C7.98431 9.27427 9.01135 7.26229 10.5945 5.86978C12.1788 4.47629 14.3639 3.66496 17.0007 3.66496C19.8496 3.66496 22.172 4.61168 23.7805 6.22019C25.389 7.82869 26.3357 10.1511 26.3357 13C26.3357 16.8983 24.5662 19.825 21.6989 21.2854L21.3357 21.4704V30H22.6657V22.276C25.8145 20.5036 27.6657 17.1743 27.6657 13C27.6657 9.84884 26.6124 7.17123 24.7209 5.27973C22.8294 3.38824 20.1518 2.33496 17.0007 2.33496C14.0858 2.33496 11.5752 3.23599 9.71615 4.87112C7.88797 6.47911 6.73223 8.76012 6.42091 11.4785L3.16992 17.1094L3.60083 17.5404C4.03268 17.9732 4.38889 18.3302 4.91552 18.5058C5.18605 18.596 5.4736 18.6315 5.79393 18.6484C5.95415 18.6568 6.13389 18.661 6.33572 18.663V24.665H7.0878C8.96888 24.665 10.2135 24.665 11.3359 24.4645V30H12.6659V24.1128Z" fill="#000000" class="bmwfcol"/><path d="M17.0009 6.33496C15.469 6.33496 14.1608 6.80716 13.2345 7.73349C12.3081 8.65981 11.8359 9.96802 11.8359 11.5C11.8359 13.2508 12.4547 14.7034 13.6401 15.6244C13.9292 16.7032 14.1545 17.5389 14.3484 18.179C14.5522 18.852 14.7374 19.3661 14.9539 19.7379C15.189 20.1418 15.4869 20.4217 15.9094 20.5582C16.2426 20.6658 16.6196 20.6654 16.9446 20.665L17.0009 20.665L17.0572 20.665C17.3822 20.6654 17.7593 20.6658 18.0925 20.5582C18.515 20.4217 18.8129 20.1418 19.048 19.7379C19.2645 19.3661 19.4497 18.852 19.6535 18.179C19.8474 17.5389 20.0726 16.7032 20.3618 15.6244C21.5472 14.7034 22.1659 13.2508 22.1659 11.5C22.1659 9.96802 21.6937 8.65981 20.7674 7.73349C19.8411 6.80716 18.5329 6.33496 17.0009 6.33496ZM13.1659 11.5C13.1659 10.2419 13.5487 9.30012 14.1749 8.67394C14.8011 8.04776 15.7429 7.66496 17.0009 7.66496C18.259 7.66496 19.2008 8.04776 19.827 8.67394C20.4531 9.30012 20.8359 10.2419 20.8359 11.5C20.8359 13.0096 20.287 14.0693 19.4025 14.6791L19.2009 14.818L19.1376 15.0545C19.0105 15.5289 18.8966 15.9538 18.793 16.335H15.2088C15.1053 15.9538 14.9914 15.5289 14.8643 15.0545L14.8009 14.818L14.5994 14.6791C13.7148 14.0693 13.1659 13.0096 13.1659 11.5ZM15.5827 17.665H18.4192C18.4062 17.7087 18.3933 17.7515 18.3806 17.7934C18.1779 18.4629 18.0295 18.8439 17.8986 19.0687C17.7878 19.259 17.7247 19.2794 17.6852 19.2921L17.6837 19.2926C17.5745 19.3278 17.4138 19.335 17.0009 19.335C16.5881 19.335 16.4274 19.3278 16.3182 19.2926L16.3166 19.2921C16.2772 19.2794 16.2141 19.259 16.1033 19.0687C15.9724 18.8439 15.824 18.4629 15.6213 17.7934C15.6086 17.7515 15.5957 17.7087 15.5827 17.665Z" fill="#000000" class="bmwfcol"/><title>creative_space_lt_48</title></svg>