<svg width="48" height="48" viewBox="0 0 32 32" xmlns="http://www.w3.org/2000/svg"><path d="M20.0009 21.665H26.0009V20.335H20.0009V21.665Z" fill="#000000" class="bmwfcol"/><path d="M18.0009 21.665H14.0009V20.335H18.0009V21.665Z" fill="#000000" class="bmwfcol"/><path d="M5.00094 6.33496C4.244 6.33496 3.56079 6.56966 3.06572 7.06473C2.57064 7.55981 2.33594 8.24302 2.33594 8.99996V23C2.33594 23.7569 2.57064 24.4401 3.06572 24.9352C3.56079 25.4303 4.244 25.665 5.00094 25.665H27.0009C27.7578 25.665 28.441 25.4303 28.9361 24.9352C29.4312 24.4401 29.6659 23.7569 29.6659 23V8.99996C29.6659 8.24302 29.4312 7.55981 28.9361 7.06473C28.441 6.56966 27.7578 6.33496 27.0009 6.33496H5.00094ZM3.66594 8.99996C3.66594 8.5169 3.81124 8.20012 4.00617 8.00519C4.2011 7.81026 4.51788 7.66496 5.00094 7.66496H27.0009C27.484 7.66496 27.8007 7.81026 27.9957 8.00519C28.1906 8.20012 28.3359 8.5169 28.3359 8.99996V12.335H3.66594V8.99996ZM3.66594 13.665H28.3359V23C28.3359 23.483 28.1906 23.7998 27.9957 23.9947C27.8007 24.1897 27.484 24.335 27.0009 24.335H5.00094C4.51788 24.335 4.2011 24.1897 4.00617 23.9947C3.81124 23.7998 3.66594 23.483 3.66594 23V13.665Z" fill="#000000" class="bmwfcol"/><title>credit-card_lt_48</title></svg>