<svg width="48" height="48" viewBox="0 0 32 32" xmlns="http://www.w3.org/2000/svg"><path d="M12.6297 12.6297C13.4712 11.7882 14.6488 11.335 16 11.335C17.3511 11.335 18.5287 11.7882 19.3702 12.6297C20.2117 13.4712 20.665 14.6488 20.665 16C20.665 18.5552 18.7881 20.665 16 20.665C14.6488 20.665 13.4712 20.2117 12.6297 19.3702C11.7882 18.5287 11.335 17.3511 11.335 16C11.335 14.6488 11.7882 13.4712 12.6297 12.6297ZM13.5702 13.5702C13.0117 14.1287 12.665 14.9511 12.665 16C12.665 17.0488 13.0117 17.8712 13.5702 18.4297C14.1287 18.9882 14.9511 19.335 16 19.335C18.0119 19.335 19.335 17.863 19.335 16C19.335 14.9511 18.9882 14.1287 18.4297 13.5702C17.8712 13.0117 17.0488 12.665 16 12.665C14.9511 12.665 14.1287 13.0117 13.5702 13.5702Z" fill="#000000" class="bmwfcol"/><path d="M16.665 5.35086C19.528 5.48901 21.9632 6.52275 23.7202 8.27973C25.4772 10.0367 26.5109 12.472 26.6491 15.335H30V16.665H26.6491C26.5109 19.528 25.4772 21.9632 23.7202 23.7202C21.9632 25.4772 19.528 26.5109 16.665 26.6491V30H15.335V26.6491C12.472 26.5109 10.0367 25.4772 8.27973 23.7202C6.52275 21.9632 5.48901 19.528 5.35086 16.665H2V15.335H5.35086C5.48901 12.472 6.52275 10.0367 8.27973 8.27973C10.0367 6.52275 12.472 5.48901 15.335 5.35086V2H16.665V5.35086ZM6.66496 16C6.66496 18.8488 7.61169 21.1712 9.22019 22.7797C10.8287 24.3882 13.1511 25.335 16 25.335C18.8488 25.335 21.1712 24.3882 22.7797 22.7797C24.3882 21.1712 25.335 18.8488 25.335 16C25.335 13.1511 24.3882 10.8287 22.7797 9.22019C21.1712 7.61169 18.8488 6.66496 16 6.66496C13.1511 6.66496 10.8287 7.61169 9.22019 9.22019C7.61169 10.8287 6.66496 13.1511 6.66496 16Z" fill="#000000" class="bmwfcol"/><title>crosshair_lt_48</title></svg>