<svg width="48" height="48" viewBox="0 0 32 32" xmlns="http://www.w3.org/2000/svg"><path d="M11.6659 2L11.666 2.54778C11.6661 3.52055 11.6663 4.65632 11.0957 5.79743C10.6755 6.63756 10.6659 7.48317 10.6659 8.5V9H9.33595L9.33594 8.45158C9.33578 7.47903 9.3356 6.34345 9.90611 5.20257C10.3262 4.36241 10.3359 3.51675 10.3359 2.5V2H11.6659Z" fill="#000000" class="bmwfcol"/><path d="M15.6659 2L15.666 2.54778C15.6661 3.52055 15.6663 4.65632 15.0957 5.79743C14.6755 6.63756 14.6659 7.48317 14.6659 8.5V9H13.3359L13.3359 8.45158C13.3358 7.47903 13.3356 6.34345 13.9061 5.20257C14.3262 4.36241 14.3359 3.51675 14.3359 2.5V2H15.6659Z" fill="#000000" class="bmwfcol"/><path d="M19.666 2.54778L19.6659 2H18.3359V2.5C18.3359 3.51675 18.3262 4.36241 17.9061 5.20257C17.3356 6.34345 17.3358 7.47903 17.3359 8.45158L17.3359 9H18.6659V8.5C18.6659 7.48317 18.6755 6.63756 19.0957 5.79743C19.6663 4.65632 19.6661 3.52055 19.666 2.54778Z" fill="#000000" class="bmwfcol"/><path d="M28.9594 11.7404C28.3584 10.8054 27.3676 10.335 26 10.335H4.33594V11.665H4.33801C4.3736 17.3254 4.86544 21.1959 5.61398 23.6911C6.00222 24.9852 6.4726 25.9548 7.02132 26.6132C7.57863 27.282 8.25132 27.665 9.00094 27.665H19.0009C19.7506 27.665 20.4232 27.282 20.9806 26.6132C21.5293 25.9548 21.9997 24.9852 22.3879 23.6911C22.7105 22.6156 22.9855 21.2846 23.1968 19.665H26C27.3676 19.665 28.3584 19.1945 28.9594 18.2596C29.5183 17.3901 29.665 16.2248 29.665 15C29.665 13.7751 29.5183 12.6098 28.9594 11.7404ZM23.3491 18.335C23.5364 16.4581 23.6476 14.2479 23.6639 11.665H26C27.0324 11.665 27.5416 11.9945 27.8406 12.4596C28.1817 12.9901 28.335 13.8248 28.335 15C28.335 16.1751 28.1817 17.0098 27.8406 17.5404C27.5416 18.0054 27.0324 18.335 26 18.335H23.3491ZM22.3338 11.665C22.2981 17.2688 21.8093 20.9911 21.114 23.3089C20.7522 24.5148 20.3476 25.2952 19.9588 25.7618C19.5786 26.218 19.2513 26.335 19.0009 26.335H9.00094C8.75056 26.335 8.42324 26.218 8.04305 25.7618C7.65428 25.2952 7.24966 24.5148 6.88789 23.3089C6.19254 20.9911 5.70378 17.2688 5.66804 11.665H22.3338Z" fill="#000000" class="bmwfcol"/><title>cup_lt_48</title></svg>