<svg width="48" height="48" viewBox="0 0 32 32" xmlns="http://www.w3.org/2000/svg"><path d="M22.9997 24.2818V25.6254C20.4344 25.9894 18.0733 26.1345 16.2211 26.1649C14.0689 26.1649 12.5778 25.8014 11.5238 25.1741C10.5913 24.619 9.94786 23.78 9.49994 22.8057C8.79453 20.6434 8.481 18.3615 8.58927 16.089C8.59049 12.8505 8.96111 10.3982 9.79472 8.91981C10.2183 8.16553 10.8049 7.39233 11.8586 6.82422C12.8964 6.26472 14.3374 5.93799 16.3873 5.93799C18.1763 5.97306 20.4636 6.18357 22.9997 6.78964V8.15884C20.4509 7.52088 18.1489 7.30329 16.3677 7.26795C14.4505 7.26864 13.2656 7.57664 12.4898 7.99492C11.7293 8.40492 11.3007 8.95411 10.9534 9.57266C10.5097 10.3593 10.1914 11.6053 10.033 13.335H19.9993V14.665H9.94708C9.91111 15.5518 9.88352 16.4475 9.90177 17.335H19.9996V18.665H9.98025C10.1013 19.9046 10.3556 21.1301 10.7404 22.3198C11.0558 22.9966 11.4598 23.5882 12.2041 24.0312C12.977 24.4912 14.1903 24.8344 16.2049 24.835C18.0541 24.8044 20.4273 24.6563 22.9997 24.2818Z" fill="#000000" class="bmwfcol"/><title>currency-euro_lt_48</title></svg>