<svg width="48" height="48" viewBox="0 0 32 32" xmlns="http://www.w3.org/2000/svg"><path d="M8.00117 2.37561C7.40744 2.37561 6.7641 2.49425 6.27639 2.95874C5.78394 3.42774 5.57617 4.12769 5.57617 5.00061C5.57617 5.87353 5.78394 6.57348 6.27639 7.04248C6.7641 7.50697 7.40744 7.62561 8.00117 7.62561C8.59491 7.62561 9.23824 7.50697 9.72596 7.04248C10.2184 6.57348 10.4262 5.87353 10.4262 5.00061C10.4262 4.12769 10.2184 3.42774 9.72596 2.95874C9.23824 2.49425 8.59491 2.37561 8.00117 2.37561ZM6.82617 5.00061C6.82617 4.3021 6.99341 4.00205 7.13846 3.86391C7.28824 3.72126 7.54491 3.62561 8.00117 3.62561C8.45744 3.62561 8.7141 3.72126 8.86389 3.86391C9.00894 4.00205 9.17617 4.3021 9.17617 5.00061C9.17617 5.69912 9.00894 5.99917 8.86389 6.13731C8.7141 6.27996 8.45744 6.37561 8.00117 6.37561C7.54491 6.37561 7.28824 6.27996 7.13846 6.13731C6.99341 5.99917 6.82617 5.69912 6.82617 5.00061Z" fill="#000000" class="bmwfcol"/><path d="M11.5994 8.64622C11.9269 8.31878 12.2462 8.05035 12.5242 7.92659C12.6549 7.86843 12.7387 7.85987 12.7867 7.8644C12.8218 7.8677 12.8744 7.88001 12.9524 7.9548L12.9555 7.95782L13.3112 8.30398C13.5373 8.52425 13.8534 8.8326 14.2135 9.18487C14.934 9.88987 15.8288 10.7691 16.5298 11.4701C17.5274 12.4678 17.9298 13.003 18.125 13.5398C18.3168 14.0672 18.3338 14.6517 18.3349 15.822L16.335 19.2863V26H17.665V19.6426L19.665 16.1782L19.665 15.9005C19.6653 14.7416 19.6654 13.884 19.375 13.0853C19.0702 12.2471 18.4726 11.5321 17.4702 10.5297C16.7639 9.82328 15.8649 8.93991 15.1436 8.23421C14.7827 7.88113 14.4659 7.5721 14.2393 7.35132L13.876 6.99777L13.8728 6.99474C13.5946 6.72797 13.267 6.57375 12.9114 6.54026C12.5687 6.50798 12.2512 6.59235 11.9835 6.7115C11.4647 6.94236 10.9986 7.36612 10.659 7.70577C10.3312 8.03356 9.90164 8.48098 9.65285 8.96075C9.52503 9.20723 9.41819 9.51121 9.43075 9.84631C9.44413 10.203 9.59077 10.5311 9.85984 10.8001L12.3351 13.2754V13.335H7V14.665H13.6651V12.7245L10.8002 9.85957C10.7575 9.81692 10.7594 9.80014 10.7598 9.79648C10.7589 9.77292 10.7662 9.70288 10.8335 9.57302C10.9751 9.30009 11.2601 8.98551 11.5994 8.64622Z" fill="#000000" class="bmwfcol"/><path d="M7.00094 16.335C3.87224 16.335 1.33594 18.8713 1.33594 22C1.33594 25.1287 3.87224 27.665 7.00094 27.665C10.1296 27.665 12.6659 25.1287 12.6659 22C12.6659 18.8713 10.1296 16.335 7.00094 16.335ZM2.66594 22C2.66594 19.6058 4.60678 17.665 7.00094 17.665C9.39509 17.665 11.3359 19.6058 11.3359 22C11.3359 24.3941 9.39509 26.335 7.00094 26.335C4.60678 26.335 2.66594 24.3941 2.66594 22Z" fill="#000000" class="bmwfcol"/><path d="M19.3359 22C19.3359 18.8713 21.8722 16.335 25.0009 16.335C28.1296 16.335 30.6659 18.8713 30.6659 22C30.6659 25.1287 28.1296 27.665 25.0009 27.665C21.8722 27.665 19.3359 25.1287 19.3359 22ZM25.0009 17.665C22.6068 17.665 20.6659 19.6058 20.6659 22C20.6659 24.3941 22.6068 26.335 25.0009 26.335C27.3951 26.335 29.3359 24.3941 29.3359 22C29.3359 19.6058 27.3951 17.665 25.0009 17.665Z" fill="#000000" class="bmwfcol"/><title>cyclist_lt_48</title></svg>