<svg width="48" height="48" viewBox="0 0 32 32" xmlns="http://www.w3.org/2000/svg"><path d="M15.335 4.5C15.335 3.85659 15.8565 3.335 16.5 3.335C17.1434 3.335 17.665 3.85659 17.665 4.5C17.665 5.14341 17.1434 5.665 16.5 5.665C15.8565 5.665 15.335 5.14341 15.335 4.5Z" fill="#000000" class="bmwfcol"/><path d="M18.335 9.00039C18.335 8.35698 18.8565 7.83539 19.5 7.83539C20.1434 7.83539 20.665 8.35698 20.665 9.00039C20.665 9.6438 20.1434 10.1654 19.5 10.1654C18.8565 10.1654 18.335 9.6438 18.335 9.00039Z" fill="#000000" class="bmwfcol"/><path d="M25.5 7.83539C24.8565 7.83539 24.335 8.35698 24.335 9.00039C24.335 9.6438 24.8565 10.1654 25.5 10.1654C26.1434 10.1654 26.665 9.6438 26.665 9.00039C26.665 8.35698 26.1434 7.83539 25.5 7.83539Z" fill="#000000" class="bmwfcol"/><path d="M21.335 13.5C21.335 12.8566 21.8565 12.335 22.5 12.335C23.1434 12.335 23.665 12.8566 23.665 13.5C23.665 14.1434 23.1434 14.665 22.5 14.665C21.8565 14.665 21.335 14.1434 21.335 13.5Z" fill="#000000" class="bmwfcol"/><path d="M22.5 3.335C21.8565 3.335 21.335 3.85659 21.335 4.5C21.335 5.14341 21.8565 5.665 22.5 5.665C23.1434 5.665 23.665 5.14341 23.665 4.5C23.665 3.85659 23.1434 3.335 22.5 3.335Z" fill="#000000" class="bmwfcol"/><path d="M27.335 4.5C27.335 3.85659 27.8565 3.335 28.5 3.335C29.1434 3.335 29.665 3.85659 29.665 4.5C29.665 5.14341 29.1434 5.665 28.5 5.665C27.8565 5.665 27.335 5.14341 27.335 4.5Z" fill="#000000" class="bmwfcol"/><path d="M5.99996 28.665C4.46199 28.665 3.09396 28.2591 2 27.5036V25.7548C2.03932 25.7973 2.07939 25.8389 2.12019 25.8797C2.60154 26.3611 3.19908 26.7409 3.8998 26.9916L3.12268 23.4298C3.09401 23.3416 3.06833 23.2529 3.0453 23.165L2.99996 23.1651H2V21.835H2.8428C2.83715 21.7309 2.83447 21.634 2.83447 21.5469C2.83447 20.6352 3.50185 20.0398 3.96076 19.7301C4.28633 19.5103 4.64206 19.418 4.97847 19.3754C5.29823 19.3349 5.64654 19.335 5.97508 19.335H6.02381C6.35236 19.335 6.70071 19.3349 7.02047 19.3754C7.35689 19.418 7.71261 19.5103 8.03819 19.7301C8.4971 20.0398 9.16447 20.6352 9.16447 21.5469C9.16447 21.634 9.1618 21.7309 9.15615 21.835L11.3331 21.8351C11.2979 20.2628 10.7577 18.9982 9.87973 18.1202C8.97123 17.2117 7.64884 16.665 5.99996 16.665C4.35108 16.665 3.02869 17.2117 2.12019 18.1202C2.07939 18.161 2.03932 18.2026 2 18.2451V16.4963C3.09396 15.7409 4.46199 15.335 5.99996 15.335C7.95108 15.335 9.62869 15.9882 10.8202 17.1797C12.0117 18.3712 12.665 20.0488 12.665 22C12.665 23.9511 12.0117 25.6287 10.8202 26.8202C9.62869 28.0117 7.95108 28.665 5.99996 28.665ZM4.20646 22.1579L4.40672 23.0758C4.45731 23.2215 4.51309 23.3424 4.57155 23.4312C4.6038 23.4801 4.71207 23.5865 4.97394 23.6814C5.22644 23.7729 5.57358 23.835 5.99947 23.835C6.42536 23.835 6.77251 23.7729 7.02501 23.6814C7.28687 23.5865 7.39515 23.4801 7.42739 23.4312C7.48687 23.3408 7.54358 23.2172 7.59487 23.0681L7.79118 22.1684C7.82157 21.927 7.83447 21.7067 7.83447 21.5469C7.83447 21.3335 7.66851 21.0852 7.29409 20.8324C7.203 20.7709 7.07261 20.7226 6.85347 20.6949C6.6256 20.666 6.35826 20.665 5.99947 20.665C5.64068 20.665 5.37334 20.666 5.14547 20.6949C4.92633 20.7226 4.79595 20.7709 4.70486 20.8324C4.33043 21.0852 4.16447 21.3335 4.16447 21.5469C4.16447 21.7044 4.177 21.9206 4.20646 22.1579ZM4.83262 25.0278L5.32915 27.3035C5.54624 27.3243 5.76992 27.335 5.99996 27.335C6.23 27.335 6.45368 27.3243 6.67078 27.3035L7.16736 25.0275C6.81351 25.1188 6.41846 25.165 5.99947 25.165C5.58089 25.165 5.18621 25.1189 4.83262 25.0278ZM9.87973 25.8797C10.5629 25.1965 11.0416 24.2792 11.2369 23.1651H8.99996L8.95364 23.165C8.93142 23.2498 8.90672 23.3354 8.87926 23.4206L8.10012 26.9916C8.80085 26.7409 9.39838 26.3611 9.87973 25.8797Z" fill="#000000" class="bmwfcol"/><path d="M30 24.9413V23.5992L24.2887 24.371L22.8247 25.835H13.1467C12.9122 26.3081 12.6302 26.7533 12.3012 27.165H23.3756L24.9117 25.6289L30 24.9413Z" fill="#000000" class="bmwfcol"/><path d="M30 19.3351V20.6651H25.0899L24.32 19.3351H30Z" fill="#000000" class="bmwfcol"/><path d="M11.8623 16.335C12.2524 16.7403 12.5902 17.1858 12.8748 17.665H20.2676L21.9684 20.5916L21.225 21.335H13.9784C13.9933 21.5543 14.0008 21.7761 14.0008 22C14.0008 22.224 13.9933 22.4457 13.9784 22.665H21.7759L23.6326 20.8083L21.0329 16.335H11.8623Z" fill="#000000" class="bmwfcol"/><title>dashboard_and_air_particles_lt_48</title></svg>