<svg width="48" height="48" viewBox="0 0 32 32" xmlns="http://www.w3.org/2000/svg"><path d="M4.33496 9.99999V22C4.33496 24.1188 5.6435 25.8085 7.70652 26.9338C9.76075 28.0543 12.6312 28.665 16 28.665C19.3687 28.665 22.2392 28.0543 24.2934 26.9338C26.3564 25.8085 27.665 24.1188 27.665 22V9.99999C27.665 7.88119 26.3564 6.19148 24.2934 5.06619C22.2392 3.94571 19.3687 3.33499 16 3.33499C12.6312 3.33499 9.76075 3.94571 7.70652 5.06619C5.6435 6.19148 4.33496 7.88119 4.33496 9.99999ZM5.66496 9.99999C5.66496 8.5188 6.55642 7.20851 8.3434 6.23379C10.1392 5.25428 12.7687 4.66499 16 4.66499C19.2312 4.66499 21.8607 5.25428 23.6565 6.23379C25.4435 7.20851 26.335 8.5188 26.335 9.99999C26.335 11.4812 25.4435 12.7915 23.6565 13.7662C21.8607 14.7457 19.2312 15.335 16 15.335C12.7687 15.335 10.1392 14.7457 8.3434 13.7662C6.55642 12.7915 5.66496 11.4812 5.66496 9.99999ZM26.335 13.3622V16C26.335 17.4812 25.4435 18.7915 23.6565 19.7662C21.8607 20.7457 19.2312 21.335 16 21.335C12.7687 21.335 10.1392 20.7457 8.3434 19.7662C6.55642 18.7915 5.66496 17.4812 5.66496 16V13.3622C6.20791 13.967 6.89949 14.4936 7.70652 14.9338C9.76075 16.0543 12.6312 16.665 16 16.665C19.3687 16.665 22.2392 16.0543 24.2934 14.9338C25.1004 14.4936 25.792 13.967 26.335 13.3622ZM5.66496 22V19.3622C6.20791 19.967 6.89949 20.4936 7.70652 20.9338C9.76075 22.0543 12.6312 22.665 16 22.665C19.3687 22.665 22.2392 22.0543 24.2934 20.9338C25.1004 20.4936 25.792 19.967 26.335 19.3622V22C26.335 23.4812 25.4435 24.7915 23.6565 25.7662C21.8607 26.7457 19.2312 27.335 16 27.335C12.7687 27.335 10.1392 26.7457 8.3434 25.7662C6.55642 24.7915 5.66496 23.4812 5.66496 22Z" fill="#000000" class="bmwfcol"/><title>data_lt_48</title></svg>