<svg width="48" height="48" viewBox="0 0 32 32" xmlns="http://www.w3.org/2000/svg"><path d="M24.334 10.5001C24.334 9.85667 24.8556 9.33508 25.499 9.33508C26.1424 9.33508 26.664 9.85667 26.664 10.5001C26.664 11.1435 26.1424 11.6651 25.499 11.6651C24.8556 11.6651 24.334 11.1435 24.334 10.5001Z" fill="#000000" class="bmwfcol"/><path d="M21.334 7.10008C21.334 6.67759 21.6765 6.33508 22.099 6.33508H28.899C29.3215 6.33508 29.664 6.67759 29.664 7.10008V18.9001C29.664 19.3226 29.3215 19.6651 28.899 19.6651H22.664V25.6651L21.334 25.6651V7.10008ZM22.664 7.66508V18.3351H28.334V7.66508H22.664Z" fill="#000000" class="bmwfcol"/><path d="M3.09898 11.3351C2.67648 11.3351 2.33398 11.6776 2.33398 12.1001V25.6651H18.664V12.1001C18.664 11.6776 18.3215 11.3351 17.899 11.3351H3.09898ZM3.66398 24.3351V12.6651H17.334V24.3351H14.664V19.1001C14.664 18.6776 14.3215 18.3351 13.899 18.3351L7.09898 18.3351C6.67648 18.3351 6.33398 18.6776 6.33398 19.1001V24.3351H3.66398ZM13.334 19.6651V24.3351H7.66398L7.66398 19.6651L13.334 19.6651Z" fill="#000000" class="bmwfcol"/><title>dealer_lt_48</title></svg>