<svg width="48" height="48" viewBox="0 0 32 32" xmlns="http://www.w3.org/2000/svg"><path d="M21.999 6.33508C20.934 6.33508 20.0015 6.66771 19.3341 7.33517C18.6666 8.00263 18.334 8.9351 18.334 10.0001C18.334 11.0651 18.6666 11.9975 19.3341 12.665C20.0015 13.3325 20.934 13.6651 21.999 13.6651C23.064 13.6651 23.9964 13.3325 24.6639 12.665C25.3314 11.9975 25.664 11.0651 25.664 10.0001C25.664 8.9351 25.3314 8.00263 24.6639 7.33517C23.9964 6.66771 23.064 6.33508 21.999 6.33508ZM19.664 10.0001C19.664 9.21256 19.9051 8.64504 20.2745 8.27562C20.6439 7.9062 21.2115 7.66508 21.999 7.66508C22.7865 7.66508 23.354 7.9062 23.7234 8.27562C24.0929 8.64504 24.334 9.21256 24.334 10.0001C24.334 10.7876 24.0929 11.3551 23.7234 11.7245C23.354 12.094 22.7865 12.3351 21.999 12.3351C21.2115 12.3351 20.6439 12.094 20.2745 11.7245C19.9051 11.3551 19.664 10.7876 19.664 10.0001Z" fill="#000000" class="bmwfcol"/><path d="M21.999 2.33508C19.6997 2.33508 17.768 3.04045 16.4091 4.38438C15.0494 5.72916 14.334 7.64342 14.334 9.92316C14.334 12.2769 15.3846 14.4902 16.7338 16.4245C18.0862 18.3635 19.7882 20.0912 21.1811 21.4723L21.3755 21.6651H22.6225L22.8169 21.4723C24.2097 20.0912 25.9118 18.3635 27.2642 16.4245C28.6133 14.4902 29.664 12.2769 29.664 9.92316C29.664 7.64342 28.9486 5.72916 27.5889 4.38438C26.23 3.04045 24.2983 2.33508 21.999 2.33508ZM15.664 9.92316C15.664 7.92444 16.2856 6.37716 17.3444 5.33002C18.404 4.28203 19.9723 3.66508 21.999 3.66508C24.0257 3.66508 25.594 4.28203 26.6536 5.33002C27.7124 6.37716 28.334 7.92444 28.334 9.92316C28.334 11.8857 27.4527 13.8294 26.1733 15.6637C24.9559 17.409 23.4229 18.9933 22.0745 20.3351H21.9234C20.5751 18.9933 19.042 17.409 17.8247 15.6637C16.5453 13.8294 15.664 11.8857 15.664 9.92316Z" fill="#000000" class="bmwfcol"/><path d="M3.10094 11.335H11.6016C11.6657 11.7876 11.7589 12.2312 11.8762 12.665H3.66594V24.335H6.33594L6.33594 19.1C6.33594 18.6775 6.67844 18.335 7.10094 18.335L13.9009 18.335C14.3234 18.335 14.6659 18.6775 14.6659 19.1L14.6659 24.335H17.3359V21.1972C17.7986 21.6829 18.2483 22.136 18.6659 22.5517V25.665H2.33594V12.1C2.33594 11.6775 2.67844 11.335 3.10094 11.335ZM13.3359 24.335L13.3359 19.665L7.66594 19.665L7.66594 24.335H13.3359Z" fill="#000000" class="bmwfcol"/><title>dealer_location_lt_48</title></svg>