<svg width="48" height="48" viewBox="0 0 32 32" xmlns="http://www.w3.org/2000/svg"><path d="M7.38051 5.33496H24.6171L29.6636 12.5421L29.6635 13.497L16.9361 28.6649H15.0615L2.3341 13.497L2.33398 12.5421L7.38051 5.33496ZM4.10268 12.335H8.20195L7.35727 7.68693L4.10268 12.335ZM4.21124 13.665L14.0442 25.3834L8.57558 13.665H4.21124ZM15.9991 26.4274L21.9549 13.665H10.0433L15.9991 26.4274ZM17.9548 25.3818L27.7864 13.665H23.4226L17.9548 25.3818ZM27.8949 12.335L24.6401 7.68663L23.7954 12.335H27.8949ZM22.5714 11.6315L23.474 6.66496H17.6049L22.5714 11.6315ZM21.394 12.335L15.9995 6.94046L10.605 12.335H21.394ZM9.42616 11.6329L14.3941 6.66496H8.52333L9.42616 11.6329Z" fill="#000000" class="bmwfcol"/><title>diamond_lt_48</title></svg>