<svg width="48" height="48" viewBox="0 0 32 32" xmlns="http://www.w3.org/2000/svg"><path d="M15.001 4.66499L6.66594 4.66499V22.2893C6.17224 22.4727 5.72265 22.7292 5.33594 23.044V3.33499L15.1005 3.33497C16.2593 3.33474 17.117 3.33457 17.9157 3.62502C18.7539 3.92983 19.4688 4.5274 20.4712 5.52976L24.4712 9.52976C25.4735 10.5321 26.0711 11.247 26.3759 12.0852C26.6664 12.884 26.6662 13.7416 26.666 14.9004L26.6659 28.665H12.0754C12.4602 28.2809 12.7616 27.8309 12.9542 27.335H25.3359V14.9788C25.3329 14.1497 25.1503 13.6415 24.766 13.3093C24.3496 12.9492 23.5504 12.665 22.001 12.665H17.336V7.99999C17.336 6.45054 17.0517 5.65137 16.6917 5.23492C16.3567 4.84744 15.8426 4.66499 15.001 4.66499ZM24.6729 11.7355C24.4208 11.3976 24.0593 10.9988 23.5307 10.4702L19.5307 6.47021C19.0021 5.94163 18.6034 5.58013 18.2654 5.32802C18.5414 6.0321 18.666 6.91973 18.666 7.99999V11.335H22.001C23.0812 11.335 23.9689 11.4595 24.6729 11.7355Z" fill="#000000" class="bmwfcol"/><path d="M15 15.3848V16.7619L11.665 15.867V25.5C11.665 26.4709 11.3679 27.309 10.6757 27.8858C10.0067 28.4433 9.07593 28.6649 7.99997 28.665C6.74095 28.665 5.33478 27.7606 5.33496 26.1666C5.33508 25.13 5.92542 24.3999 6.62286 23.9594C7.28604 23.5406 8.07154 23.3351 8.8531 23.335C9.1751 23.335 9.51976 23.3349 9.91418 23.4089C10.0505 23.4344 10.1898 23.4681 10.335 23.5118V14.133L15 15.3848ZM9.66908 24.7161C9.40494 24.6666 9.17228 24.665 8.83328 24.665C8.35725 24.6641 7.77486 24.8049 7.33305 25.0839C6.90636 25.3534 6.66501 25.7077 6.66496 26.1667C6.66489 26.8269 7.25897 27.335 7.99995 27.335C8.92399 27.3349 9.49322 27.1399 9.82424 26.8641C10.132 26.6076 10.335 26.1957 10.335 25.5V24.9248C10.064 24.8109 9.85222 24.7504 9.66908 24.7161Z" fill="#000000" class="bmwfcol"/><title>document-audio_lt_48</title></svg>