<svg width="48" height="48" viewBox="0 0 32 32" xmlns="http://www.w3.org/2000/svg"><path d="M14.9004 3.334C13.7416 3.33377 12.884 3.33359 12.0852 3.62405C11.247 3.92885 10.5321 4.52642 9.52976 5.52878L5.52976 9.52878C4.5274 10.5311 3.92982 11.246 3.62502 12.0843C3.33457 12.883 3.33474 13.7406 3.33497 14.8994L3.33499 28.664H24.665V20.8696L23.335 22.1997V27.334H4.66499V14.9956C4.66547 14.156 4.84796 13.6429 5.23492 13.3083C5.65137 12.9483 6.45053 12.664 7.99999 12.664H12.665V7.99901C12.665 6.44956 12.9492 5.65039 13.3093 5.23394C13.6443 4.84646 14.1584 4.66401 15 4.66401H23.335V7.1318C23.6637 6.82241 24.1019 6.5005 24.665 6.29665V3.33401L14.9004 3.334ZM10.4702 6.46924C10.9988 5.94062 11.3976 5.57912 11.7355 5.32701C11.4595 6.03109 11.335 6.91873 11.335 7.99901V11.334H7.99999C6.91971 11.334 6.03207 11.4586 5.32798 11.7346C5.58009 11.3966 5.9416 10.9979 6.47021 10.4692L10.4702 6.46924Z" fill="#000000" class="bmwfcol"/><path d="M18.2754 24.6643L22.3592 20.5803C24.5722 18.3673 27.3222 15.6173 29.4702 13.4695C29.7076 13.2321 29.9099 12.9516 30.0099 12.612C30.1129 12.2623 30.0895 11.911 29.9753 11.569C29.7639 10.9365 29.2182 10.2771 28.4702 9.52905C27.7217 8.78056 27.0617 8.23559 26.4289 8.0247C26.0869 7.91075 25.7358 7.88754 25.3865 7.99029C25.047 8.09011 24.7668 8.29196 24.5297 8.52903L13.335 19.7238V23.334H7V24.664L18.2754 24.6643ZM25.4702 9.4695C25.608 9.33169 25.7027 9.2836 25.7617 9.26625C25.8108 9.25183 25.8816 9.24422 26.0084 9.28648C26.3131 9.38801 26.7782 9.71792 27.5297 10.4695C28.2817 11.2215 28.6121 11.686 28.7138 11.9905C28.7561 12.117 28.7485 12.1874 28.7341 12.2363C28.7167 12.2953 28.6684 12.3904 28.5298 12.529L27 14.0586L23.9405 10.9991L25.4702 9.4695ZM23.0001 11.9396L26.0596 14.9991L17.7245 23.3343H14.665V20.2747L23.0001 11.9396Z" fill="#000000" class="bmwfcol"/><title>document_pen_signature_lt_48</title></svg>