<svg width="48" height="48" viewBox="0 0 32 32" xmlns="http://www.w3.org/2000/svg"><path d="M15.0176 4.66499C15.8488 4.66752 16.358 4.85012 16.6907 5.23489C17.0508 5.65134 17.335 6.45051 17.335 7.99996V12.665H22C23.5495 12.665 24.3486 12.9492 24.7651 13.3093C25.1493 13.6414 25.3319 14.1497 25.335 14.9787V27.335H21.3V28.665H26.665L26.665 14.9004C26.6652 13.7416 26.6654 12.884 26.3749 12.0852C26.0701 11.247 25.4725 10.5321 24.4702 9.52976L20.4702 5.52976C19.4678 4.5274 18.7529 3.92983 17.9147 3.62502C17.116 3.33457 16.2584 3.33474 15.0995 3.33497L5.33496 3.33499V17.7H6.66496V4.66499L15.0176 4.66499ZM24.6719 11.7355C23.9678 11.4595 23.0802 11.335 22 11.335H18.665V7.99996C18.665 6.91972 18.5405 6.03211 18.2645 5.32803C18.6024 5.58014 19.0012 5.94163 19.5297 6.47021L23.5297 10.4702C24.0583 10.9988 24.4198 11.3975 24.6719 11.7355Z" fill="#000000" class="bmwfcol"/><path d="M6.22453 19.335H15.665V21.335H15.8419L17.574 20.335L18.665 20.335V26.665H17.574L15.8419 25.665H15.665V28.665H6.22453L6.02976 28.4702C5.26426 27.7047 4.79528 27.1137 4.55662 26.3978C4.33458 25.7316 4.33475 25.0082 4.33497 24.088V23.9119C4.33475 22.9918 4.33458 22.2683 4.55662 21.6022C4.79528 20.8862 5.26426 20.2952 6.02976 19.5297L6.22453 19.335ZM15.665 24.335H16.1983L17.335 24.9912V22.0087L16.1983 22.665H15.665V24.335ZM6.77871 20.665C6.18523 21.28 5.94216 21.6514 5.81837 22.0228C5.67244 22.4605 5.66499 22.9623 5.66499 24C5.66499 25.0377 5.67244 25.5394 5.81837 25.9772C5.94216 26.3486 6.18523 26.72 6.77871 27.335H14.335V20.665H6.77871Z" fill="#000000" class="bmwfcol"/><title>document-video_lt_48</title></svg>