<svg width="48" height="48" viewBox="0 0 32 32" xmlns="http://www.w3.org/2000/svg"><path d="M26.6659 14.9777C26.6662 13.8189 26.6664 12.884 26.3759 12.0852C26.0711 11.247 25.4735 10.5321 24.4712 9.52976L20.4712 5.52976C19.4688 4.5274 18.7539 3.92983 17.9157 3.62502C17.117 3.33457 16.2593 3.33474 15.1005 3.33497L5.33594 3.33499V28.665H26.6659L26.6659 14.9777ZM15.0192 4.66499C15.8504 4.66752 16.359 4.85012 16.6917 5.23489C17.0517 5.65134 17.336 6.45051 17.336 7.99996V12.665H22.001C23.5504 12.665 24.3496 12.9492 24.766 13.3093C25.1503 13.6414 25.3329 14.1497 25.3359 14.9787V27.335H6.66594V4.66499H15.0192ZM18.2655 5.32803C18.6034 5.58014 19.0021 5.94163 19.5307 6.47021L23.5307 10.4702C24.0593 10.9988 24.4208 11.3975 24.6729 11.7355C23.9688 11.4595 23.0812 11.335 22.001 11.335H18.666V7.99996C18.666 6.91972 18.5414 6.03211 18.2655 5.32803Z" fill="#000000" class="bmwfcol"/><path d="M15.3364 22.4512L12.0014 19.1161V20.8839L16.0013 24.8838L20.0014 20.8837V19.116L16.6664 22.4509V15H15.3364V22.4512Z" fill="#000000" class="bmwfcol"/><title>document-download_lt_48</title></svg>