<svg width="48" height="48" viewBox="0 0 32 32" xmlns="http://www.w3.org/2000/svg"><path d="M16.6917 5.23489C16.359 4.85012 15.8497 4.66752 15.0185 4.66499L6.66594 4.66499V19.6H5.33594V3.33499L15.1005 3.33497C16.2593 3.33474 17.117 3.33457 17.9157 3.62502C18.7539 3.92983 19.4688 4.5274 20.4712 5.52976L24.4712 9.52976C25.4735 10.5321 26.0711 11.247 26.3759 12.0852C26.6664 12.884 26.6662 13.7416 26.666 14.9004L26.6659 28.995H19.3309V27.665H25.3359V14.9787C25.3329 14.1497 25.1503 13.6414 24.766 13.3093C24.3496 12.9492 23.5504 12.665 22.001 12.665H17.336V7.99996C17.336 6.45051 17.0517 5.65134 16.6917 5.23489ZM23.5307 10.4702L19.5307 6.47021C19.0021 5.94163 18.6034 5.58014 18.2655 5.32803C18.5414 6.03211 18.666 6.91972 18.666 7.99996V11.335H22.001C23.0812 11.335 23.9688 11.4595 24.6729 11.7355C24.4208 11.3975 24.0593 10.9988 23.5307 10.4702Z" fill="#000000" class="bmwfcol"/><path d="M8.17469 21.0552H2.39715V22.3796H6.34768L2.24805 27.7479V28.9499H8.24427V27.6255H4.07505L8.17469 22.2572V21.0552Z" fill="#000000" class="bmwfcol"/><path d="M10.7722 21.0552H9.41797V28.9499H10.7722V21.0552Z" fill="#000000" class="bmwfcol"/><path d="M12.4036 21.0552H15.5657C16.4505 21.0552 17.0377 21.2415 17.4964 21.7002C17.9352 22.139 18.1315 22.8355 18.1315 23.5215C18.1315 24.2303 17.9882 24.9057 17.5225 25.4157C17.0835 25.8994 16.4837 26.0655 15.7688 26.1165C15.356 26.1447 14.5843 26.1467 13.7579 26.1468V28.9499H12.4036V21.0552ZM13.7579 22.3796V24.8224C14.486 24.8221 15.1836 24.819 15.6392 24.7833C16.1202 24.744 16.3772 24.6583 16.5396 24.4443C16.6965 24.2403 16.7573 23.9481 16.7573 23.5215C16.7573 23.1028 16.6449 22.7884 16.4611 22.6123C16.2759 22.4345 16.0051 22.3796 15.4763 22.3796H13.7579Z" fill="#000000" class="bmwfcol"/><title>document-zip_lt_48</title></svg>