<svg width="48" height="48" viewBox="0 0 32 32" xmlns="http://www.w3.org/2000/svg"><path d="M16.6907 5.23489C16.358 4.85012 15.8488 4.66752 15.0176 4.66499L6.66496 4.66499V18.7H5.33496V3.33499L15.0995 3.33497C16.2584 3.33474 17.116 3.33457 17.9147 3.62502C18.7529 3.92983 19.4678 4.5274 20.4702 5.52976L24.4702 9.52976C25.4725 10.5321 26.0701 11.247 26.3749 12.0852C26.6654 12.884 26.6652 13.7416 26.665 14.9004L26.665 28.665H21.3V27.335H25.335V14.9787C25.3319 14.1497 25.1493 13.6414 24.7651 13.3093C24.3486 12.9492 23.5495 12.665 22 12.665H17.335V7.99996C17.335 6.45051 17.0508 5.65134 16.6907 5.23489ZM23.5297 10.4702L19.5297 6.47021C19.0012 5.94163 18.6024 5.58014 18.2645 5.32803C18.5405 6.03211 18.665 6.91972 18.665 7.99996V11.335H22C23.0802 11.335 23.9678 11.4595 24.6719 11.7355C24.4198 11.3975 24.0583 10.9988 23.5297 10.4702Z" fill="#000000" class="bmwfcol"/><path d="M13.7452 18.335H12.2561L9.50064 22.2702L8.14558 20.335H6.85571L2.33572 26.7902L2.33496 28.665H19.6656V26.7903L13.7452 18.335ZM10.1476 23.665L12.9485 19.665H13.0528L18.3356 27.2096V27.335H3.6655L3.66555 27.2098L7.50065 21.7327L8.85363 23.665H10.1476Z" fill="#000000" class="bmwfcol"/><title>document-image_lt_48</title></svg>