<svg width="48" height="48" viewBox="0 0 32 32" xmlns="http://www.w3.org/2000/svg"><path d="M21 21.665H11V20.335H21V21.665Z" fill="#000000" class="bmwfcol"/><path d="M11 17.665H21V16.335H11V17.665Z" fill="#000000" class="bmwfcol"/><path d="M26.665 14.9004C26.6652 13.7416 26.6654 12.884 26.3749 12.0852C26.0701 11.247 25.4725 10.5321 24.4702 9.52976L20.4702 5.52976C19.4678 4.5274 18.7529 3.92983 17.9147 3.62502C17.116 3.33457 16.2584 3.33474 15.0995 3.33497L5.33496 3.33499V28.665H26.665L26.665 14.9004ZM15 4.66499C15.8416 4.66499 16.3557 4.84747 16.6907 5.23495C17.0508 5.6514 17.335 6.45057 17.335 8.00002V12.665H22C23.5495 12.665 24.3486 12.9493 24.7651 13.3093C25.1493 13.6415 25.3319 14.1498 25.335 14.9788V27.335H6.66496V4.66499H15ZM24.672 11.7356C23.9679 11.4596 23.0803 11.335 22 11.335H18.665V8.00002C18.665 6.91974 18.5404 6.0321 18.2645 5.32801C18.6024 5.58012 19.0011 5.94162 19.5297 6.47021L23.5297 10.4702C24.0584 10.9988 24.4199 11.3976 24.672 11.7356Z" fill="#000000" class="bmwfcol"/><title>document-text-lines_lt_48</title></svg>