<svg width="48" height="48" viewBox="0 0 32 32" xmlns="http://www.w3.org/2000/svg"><path d="M6.66496 4.66499L15 4.66499C15.8416 4.66499 16.3557 4.84744 16.6907 5.23492C17.0508 5.65137 17.335 6.45054 17.335 7.99999V12.665H22C23.5495 12.665 24.3486 12.9492 24.7651 13.3093C25.1493 13.6415 25.3319 14.1497 25.335 14.9788V27.335H17.3V28.665H26.665L26.665 14.9004C26.6652 13.7416 26.6654 12.884 26.3749 12.0852C26.0701 11.247 25.4725 10.5321 24.4702 9.52976L20.4702 5.52976C19.4678 4.5274 18.7529 3.92983 17.9147 3.62502C17.116 3.33457 16.2584 3.33474 15.0995 3.33497L5.33496 3.33499V14.7H6.66496V4.66499ZM23.5297 10.4702C24.0583 10.9988 24.4199 11.3976 24.672 11.7355C23.9679 11.4595 23.0803 11.335 22 11.335H18.665V7.99999C18.665 6.91973 18.5405 6.0321 18.2645 5.32802C18.6024 5.58013 19.0011 5.94163 19.5297 6.47021L23.5297 10.4702Z" fill="#000000" class="bmwfcol"/><path d="M7.66496 17.335V16H6.33496V17.335H5.99996C5.55302 17.335 5.11981 17.4747 4.79723 17.7973C4.47466 18.1199 4.33496 18.5531 4.33496 19V27C4.33496 27.447 4.47466 27.8802 4.79723 28.2027C5.11981 28.5253 5.55302 28.665 5.99996 28.665H14C14.4469 28.665 14.8801 28.5253 15.2027 28.2027C15.5253 27.8802 15.665 27.447 15.665 27V19C15.665 18.5531 15.5253 18.1199 15.2027 17.7973C14.8801 17.4747 14.4469 17.335 14 17.335H13.665V16H12.335V17.335H7.66496ZM5.73769 18.7377C5.76012 18.7153 5.8269 18.665 5.99996 18.665H14C14.173 18.665 14.2398 18.7153 14.2622 18.7377C14.2847 18.7602 14.335 18.827 14.335 19V21.335H5.66496V19C5.66496 18.827 5.71526 18.7602 5.73769 18.7377ZM5.66496 27V22.665H14.335V27C14.335 27.1731 14.2847 27.2399 14.2622 27.2623C14.2398 27.2847 14.173 27.335 14 27.335H5.99996C5.8269 27.335 5.76012 27.2847 5.73769 27.2623C5.71526 27.2399 5.66496 27.1731 5.66496 27Z" fill="#000000" class="bmwfcol"/><title>document-calendar_lt_48</title></svg>