<svg width="48" height="48" viewBox="0 0 32 32" xmlns="http://www.w3.org/2000/svg"><path d="M15.0176 4.66505C15.8488 4.66758 16.358 4.85018 16.6907 5.23495C17.0508 5.6514 17.335 6.45057 17.335 8.00002V12.665H22C23.5495 12.665 24.3486 12.9493 24.7651 13.3093C25.1493 13.6415 25.3319 14.1498 25.335 14.9788V27.335H18.3V28.665H26.665L26.665 14.9005C26.6652 13.7417 26.6654 12.884 26.3749 12.0853C26.0701 11.2471 25.4725 10.5322 24.4702 9.52982L20.4702 5.52982C19.4678 4.52746 18.7529 3.92989 17.9147 3.62509C17.116 3.33463 16.2584 3.3348 15.0995 3.33503L5.33496 3.33505V15.7H6.66496V4.66505L15.0176 4.66505ZM24.6719 11.7355C23.9678 11.4596 23.0802 11.335 22 11.335H18.665V8.00002C18.665 6.91978 18.5405 6.03217 18.2645 5.32809C18.6024 5.5802 19.0012 5.94169 19.5297 6.47027L23.5297 10.4703C24.0583 10.9989 24.4198 11.3976 24.6719 11.7355Z" fill="#000000" class="bmwfcol"/><path d="M5.33496 17.335V28.665H16.665V17.335H5.33496ZM6.66496 18.665H10.335V22.335H6.66496V18.665ZM10.335 23.665V27.335H6.66496V23.665H10.335ZM11.665 18.665H15.335V22.335H11.665V18.665ZM15.335 23.665V27.335H11.665V23.665H15.335Z" fill="#000000" class="bmwfcol"/><title>document-chart_lt_48</title></svg>