<svg width="48" height="48" viewBox="0 0 32 32" xmlns="http://www.w3.org/2000/svg"><path d="M19.835 15.0002C19.835 14.8276 19.8278 14.661 19.8137 14.5003H21.1477C21.1592 14.664 21.165 14.8308 21.165 15.0002C21.165 16.751 20.5462 18.2037 19.3608 19.1247C19.0717 20.2035 18.8464 21.0392 18.6525 21.6792C18.4487 22.3523 18.2635 22.8663 18.047 23.2381C17.8119 23.642 17.514 23.922 17.0915 24.0585C16.7583 24.1661 16.3813 24.1656 16.0563 24.1653L16 24.1652L15.9437 24.1653C15.6187 24.1656 15.2416 24.1661 14.9084 24.0585C14.4859 23.922 14.188 23.642 13.9529 23.2381C13.7364 22.8663 13.5512 22.3523 13.3474 21.6792C13.1535 21.0392 12.9283 20.2035 12.6391 19.1247C11.4537 18.2037 10.835 16.751 10.835 15.0002C10.835 13.4683 11.3072 12.1601 12.2335 11.2338C13.0573 10.4099 14.1833 9.94526 15.5 9.85254V11.1865C14.4894 11.2749 13.7142 11.6339 13.1739 12.1742C12.5478 12.8004 12.165 13.7422 12.165 15.0002C12.165 16.5099 12.7139 17.5696 13.5984 18.1794L13.8 18.3183L13.8633 18.5548C13.9904 19.0291 14.1043 19.4541 14.2079 19.8352H17.7921C17.8956 19.4541 18.0095 19.0291 18.1366 18.5548L18.2 18.3183L18.4015 18.1794C19.2861 17.5696 19.835 16.5099 19.835 15.0002ZM14.5817 21.1652C14.5947 21.209 14.6076 21.2518 14.6203 21.2937C14.823 21.9631 14.9714 22.3441 15.1023 22.569C15.2131 22.7593 15.2762 22.7796 15.3157 22.7923L15.3172 22.7928C15.4264 22.8281 15.5871 22.8352 16 22.8352C16.4128 22.8352 16.5735 22.8281 16.6827 22.7928L16.6843 22.7923C16.7237 22.7796 16.7868 22.7593 16.8976 22.569C17.0285 22.3441 17.1769 21.9631 17.3796 21.2937C17.3923 21.2518 17.4052 21.209 17.4182 21.1652H14.5817Z" fill="#000000" class="bmwfcol"/><path d="M26.665 14.9004C26.6652 13.7416 26.6654 12.884 26.3749 12.0852C26.0701 11.247 25.4725 10.5321 24.4702 9.52976L20.4702 5.52976C19.4678 4.5274 18.7529 3.92983 17.9147 3.62502C17.116 3.33457 16.2584 3.33474 15.0995 3.33497L15.0182 3.33498L15 3.33496L5.33496 3.33499V28.665H26.665L26.665 14.9004ZM16.6907 5.23489C17.0508 5.65134 17.335 6.45051 17.335 7.99996V12.665H22C23.5495 12.665 24.3486 12.9492 24.7651 13.3093C25.1493 13.6414 25.3319 14.1497 25.335 14.9787V27.335H6.66496V4.66499L15.0176 4.66499C15.8488 4.66752 16.358 4.85012 16.6907 5.23489ZM18.665 7.99996C18.665 6.91972 18.5405 6.03211 18.2645 5.32803C18.6024 5.58014 19.0012 5.94163 19.5297 6.47021L23.5297 10.4702C24.0583 10.9988 24.4198 11.3975 24.6719 11.7355C23.9678 11.4595 23.0802 11.335 22 11.335H18.665V7.99996Z" fill="#000000" class="bmwfcol"/><title>document_with_light_bulb_lt_48</title></svg>