<svg width="48" height="48" viewBox="0 0 32 32" xmlns="http://www.w3.org/2000/svg"><path d="M14.0174 5.66499C14.8486 5.66752 15.3578 5.85012 15.6905 6.23489C16.0506 6.65134 16.3348 7.45051 16.3348 8.99996V13.665H20.9998C22.5493 13.665 23.3484 13.9492 23.7649 14.3093C24.1491 14.6414 24.3317 15.1497 24.3348 15.9787V27.33H22.3348V28.66H25.6648L25.6648 15.9004C25.665 14.7416 25.6652 13.884 25.3747 13.0852C25.0699 12.247 24.4724 11.5321 23.47 10.5298L19.47 6.52976C18.4676 5.5274 17.7527 4.92983 16.9145 4.62502C16.1158 4.33457 15.2582 4.33474 14.0993 4.33497L4.33477 4.33499V19.5H5.66477V5.66499L14.0174 5.66499ZM23.6717 12.7355C22.9677 12.4595 22.08 12.335 20.9998 12.335H17.6648V8.99996C17.6648 7.91972 17.5403 7.03211 17.2643 6.32803C17.6022 6.58014 18.001 6.94163 18.5295 7.47021L22.5295 11.4702C23.0581 11.9988 23.4196 12.3975 23.6717 12.7355Z" fill="#000000" class="bmwfcol"/><path d="M4.16017 20.7552H0.998047V28.65H2.35229V25.8469C3.17872 25.8468 3.95039 25.8447 4.36328 25.8166C5.07817 25.7655 5.67794 25.5995 6.11694 25.1158C6.58266 24.6057 6.72589 23.9303 6.72589 23.2216C6.72589 22.5356 6.52962 21.8391 6.09079 21.4003C5.63208 20.9416 5.04496 20.7552 4.16017 20.7552ZM2.35229 24.5225V22.0797H4.07071C4.5995 22.0797 4.87033 22.1345 5.05555 22.3123C5.23932 22.4884 5.35177 22.8029 5.35177 23.2216C5.35177 23.6482 5.2909 23.9404 5.13399 24.1444C4.97164 24.3584 4.71464 24.4441 4.23361 24.4834C3.778 24.5191 3.08041 24.5222 2.35229 24.5225Z" fill="#000000" class="bmwfcol"/><path d="M10.859 20.7552H8.05467V28.65H10.7794C11.815 28.65 12.5533 28.4774 13.164 27.8889C13.889 27.1963 14.1901 26.0844 14.1901 24.6728C14.1901 23.2759 13.9208 22.1946 13.268 21.5308C12.6753 20.9271 11.9526 20.7552 10.859 20.7552ZM9.40891 27.3256V22.0797H10.859C11.558 22.0797 11.9831 22.1618 12.2986 22.518C12.6741 22.9555 12.8159 23.7131 12.8159 24.6728C12.8159 25.6476 12.6459 26.3717 12.3247 26.7624C12.1604 26.9622 11.9794 27.099 11.7455 27.1884C11.5073 27.2795 11.2038 27.3256 10.7894 27.3256H9.40891Z" fill="#000000" class="bmwfcol"/><path d="M21.2119 20.7552H15.7624V28.6401H17.1166V25.3897H20.864V24.0653H17.1166V22.0797H21.2119V20.7552Z" fill="#000000" class="bmwfcol"/><title>document-pdf_lt_48</title></svg>