<svg width="48" height="48" viewBox="0 0 32 32" xmlns="http://www.w3.org/2000/svg"><path d="M15.0995 3.33503C16.2583 3.3348 17.1159 3.33463 17.9146 3.62509C18.7528 3.92989 19.4678 4.52746 20.4701 5.52982L24.4701 9.52982C25.4725 10.5322 26.07 11.2471 26.3748 12.0853C26.6653 12.884 26.6651 13.7417 26.6649 14.9005L26.6649 28.665H20.2999V27.335H25.3349V14.9788C25.3318 14.1498 25.1492 13.6415 24.765 13.3093C24.3485 12.9493 23.5494 12.665 21.9999 12.665H17.3349V8.00002C17.3349 6.45057 17.0507 5.6514 16.6906 5.23495C16.358 4.85018 15.8487 4.66758 15.0175 4.66505L6.66488 4.66505V15.7H5.33488V3.33505L15.0995 3.33503ZM24.6719 11.7355C24.4197 11.3976 24.0582 10.9989 23.5297 10.4703L19.5297 6.47027C19.0011 5.94169 18.6023 5.5802 18.2644 5.3281C18.5404 6.03217 18.6649 6.91978 18.6649 8.00002V11.335H21.9999C23.0802 11.335 23.9678 11.4596 24.6719 11.7355Z" fill="#000000" class="bmwfcol"/><path d="M17.665 19V25C17.665 25.447 17.5253 25.8802 17.2027 26.2027C16.8801 26.5253 16.4469 26.665 16 26.665H14.1524L15.5005 29H13.9648L12.6167 26.665H9.38475L8.03665 29H6.5009L7.849 26.665H5.99996C5.55303 26.665 5.11981 26.5253 4.79724 26.2027C4.47467 25.8802 4.33496 25.447 4.33496 25V19C4.33496 18.5531 4.47466 18.1199 4.79724 17.7973C5.11981 17.4747 5.55303 17.335 5.99996 17.335H16C16.4469 17.335 16.8801 17.4747 17.2027 17.7973C17.5253 18.1199 17.665 18.5531 17.665 19ZM16.335 25V19C16.335 18.827 16.2847 18.7602 16.2622 18.7377C16.2398 18.7153 16.173 18.665 16 18.665H5.99996C5.8269 18.665 5.76012 18.7153 5.73769 18.7377C5.71526 18.7602 5.66496 18.827 5.66496 19L5.66496 25C5.66496 25.1731 5.71526 25.2399 5.73769 25.2623C5.76012 25.2847 5.8269 25.335 5.99996 25.335H16C16.173 25.335 16.2398 25.2847 16.2622 25.2623C16.2847 25.2399 16.335 25.1731 16.335 25Z" fill="#000000" class="bmwfcol"/><title>document-presentation_lt_48</title></svg>