<svg width="48" height="48" viewBox="0 0 32 32" xmlns="http://www.w3.org/2000/svg"><path d="M16.6897 5.23495C16.3571 4.85018 15.8478 4.66758 15.0166 4.66505L6.66398 4.66505V19.5H5.33398V3.33505L15.0986 3.33503C16.2574 3.3348 17.115 3.33463 17.9137 3.62509C18.7519 3.92989 19.4669 4.52746 20.4692 5.52982L24.4692 9.52982C25.4716 10.5322 26.0691 11.2471 26.3739 12.0853C26.6644 12.884 26.6642 13.7417 26.664 14.9005L26.664 28.995H23.999V27.665H25.334V14.9788C25.3309 14.1498 25.1483 13.6415 24.7641 13.3093C24.3476 12.9493 23.5485 12.665 21.999 12.665H17.334V8.00002C17.334 6.45057 17.0498 5.6514 16.6897 5.23495ZM23.5288 10.4703L19.5288 6.47027C19.0002 5.94169 18.6014 5.5802 18.2635 5.3281C18.5395 6.03217 18.664 6.91978 18.664 8.00002V11.335H21.999C23.0793 11.335 23.9669 11.4596 24.6709 11.7355C24.4188 11.3976 24.0573 10.9989 23.5288 10.4703Z" fill="#000000" class="bmwfcol"/><path d="M8.66904 21.0553H2.00684V22.3797H4.66082V28.9501H6.01506V22.3797H8.66904V21.0553Z" fill="#000000" class="bmwfcol"/><path d="M10.7241 21.0553H9.08242L11.6378 24.9511L8.92645 28.9501H10.5533L12.6126 25.8895L14.6435 28.9501H16.2977L13.5894 24.8928L16.1267 21.0553H14.5136L12.6141 23.9515L10.7241 21.0553Z" fill="#000000" class="bmwfcol"/><path d="M16.5484 21.0553H23.2106V22.3797H20.5567V28.9501H19.2024V22.3797H16.5484V21.0553Z" fill="#000000" class="bmwfcol"/><title>document-text_lt_48</title></svg>