<svg width="48" height="48" viewBox="0 0 32 32" xmlns="http://www.w3.org/2000/svg"><path d="M18.0968 14.7675H12.6568V15.9115H14.7928V21.1995H15.9608V15.9115H18.0968V14.7675Z" fill="#000000" class="bmwfcol"/><path d="M18.9686 14.7675H20.3707L21.9766 18.3936L23.5824 14.7675H24.9766V21.1995H23.8166V16.963L22.4748 19.9995H21.4703L20.1286 16.963V21.1995H18.9686V14.7675Z" fill="#000000" class="bmwfcol"/><path fill-rule="evenodd" clip-rule="evenodd" d="M6.99996 15.3349C5.64884 15.3349 4.47123 15.7882 3.62973 16.6296C2.78824 17.4711 2.33496 18.6488 2.33496 19.9999C2.33496 21.351 2.78824 22.5286 3.62973 23.3701C4.0723 23.8127 4.60783 24.1479 5.21268 24.3662L3.70312 29.9999H5.08004L6.51492 24.6449C6.67384 24.6582 6.83562 24.6649 6.99996 24.6649C7.1638 24.6649 7.32508 24.6582 7.48353 24.645L8.91837 29.9999H10.2953L8.78587 24.3667C9.39128 24.1484 9.92729 23.813 10.3702 23.3701C11.2117 22.5286 11.665 21.351 11.665 19.9999C11.665 18.6488 11.2117 17.4711 10.3702 16.6296C9.52869 15.7882 8.35108 15.3349 6.99996 15.3349ZM3.66496 19.9999C3.66496 18.951 4.01169 18.1286 4.57019 17.5701C5.12869 17.0116 5.95108 16.6649 6.99996 16.6649C8.04884 16.6649 8.87123 17.0116 9.42974 17.5701C9.98824 18.1286 10.335 18.951 10.335 19.9999C10.335 21.0488 9.98824 21.8711 9.42974 22.4296C8.87123 22.9882 8.04884 23.3349 6.99996 23.3349C5.95108 23.3349 5.12869 22.9882 4.57019 22.4296C4.01169 21.8711 3.66496 21.0488 3.66496 19.9999Z" fill="#000000" class="bmwfcol"/><path fill-rule="evenodd" clip-rule="evenodd" d="M17.0992 3.33497L7.33458 3.33499V13.5072C7.78798 13.5269 8.23324 13.5869 8.66458 13.6876V4.66499H16.9996C17.8412 4.66499 18.3553 4.84744 18.6903 5.23492C19.0503 5.65137 19.3346 6.45053 19.3346 7.99999V12.665H23.9996C25.549 12.665 26.3482 12.9492 26.7647 13.3093C27.1521 13.6443 27.3346 14.1584 27.3346 15V27.335H11.4996V28.665H28.6646L28.6646 14.9004C28.6648 13.7416 28.665 12.884 28.3745 12.0852C28.0697 11.247 27.4722 10.5321 26.4698 9.52976L22.4698 5.52976C21.4674 4.5274 20.7525 3.92983 19.9143 3.62502C19.1156 3.33457 18.258 3.33474 17.0992 3.33497ZM25.5294 10.4702C26.058 10.9988 26.4195 11.3976 26.6716 11.7355C25.9675 11.4595 25.0799 11.335 23.9996 11.335H20.6646V7.99999C20.6646 6.91971 20.54 6.03207 20.264 5.32798C20.602 5.58009 21.0007 5.9416 21.5294 6.47021L25.5294 10.4702Z" fill="#000000" class="bmwfcol"/><title>document_with_tm_and_seal_lt_48</title></svg>