<svg width="48" height="48" viewBox="0 0 32 32" xmlns="http://www.w3.org/2000/svg"><path d="M17.0995 3.33497L7.33496 3.33499V13.5072C7.78835 13.5269 8.23362 13.5869 8.66496 13.6876V4.66499H17C17.8416 4.66499 18.3557 4.84744 18.6907 5.23492C19.0507 5.65137 19.335 6.45053 19.335 7.99999V12.665H24C25.5494 12.665 26.3486 12.9492 26.765 13.3093C27.1525 13.6443 27.335 14.1584 27.335 15V27.335H11.5V28.665H28.665L28.665 14.9004C28.6652 13.7416 28.6654 12.884 28.3749 12.0852C28.0701 11.247 27.4725 10.5321 26.4702 9.52976L22.4702 5.52976C21.4678 4.5274 20.7529 3.92983 19.9147 3.62502C19.116 3.33457 18.2584 3.33474 17.0995 3.33497ZM25.5297 10.4702C26.0584 10.9988 26.4199 11.3976 26.672 11.7355C25.9679 11.4595 25.0802 11.335 24 11.335H20.665V7.99999C20.665 6.91971 20.5404 6.03207 20.2644 5.32798C20.6024 5.58009 21.0011 5.9416 21.5297 6.47021L25.5297 10.4702Z" fill="#000000" class="bmwfcol"/><path d="M21.8137 14.4993C21.8278 14.66 21.835 14.8266 21.835 14.9993C21.835 16.5089 21.2861 17.5686 20.4015 18.1784L20.2 18.3173L20.1366 18.5538C20.0095 19.0282 19.8956 19.4531 19.7921 19.8343H16.2079C16.1043 19.4531 15.9904 19.0282 15.8633 18.5538L15.8 18.3173L15.5984 18.1784C14.7139 17.5686 14.165 16.5089 14.165 14.9993C14.165 13.7412 14.5478 12.7994 15.1739 12.1732C15.7142 11.633 16.4894 11.2739 17.5 11.1855V9.85156C16.1833 9.94428 15.0573 10.4089 14.2335 11.2328C13.3072 12.1591 12.835 13.4673 12.835 14.9993C12.835 16.7501 13.4537 18.2027 14.6391 19.1237C14.9283 20.2025 15.1535 21.0382 15.3474 21.6782C15.5512 22.3513 15.7364 22.8653 15.9529 23.2372C16.188 23.6411 16.4859 23.921 16.9084 24.0575C17.2416 24.1651 17.6187 24.1647 17.9437 24.1643L18 24.1643L18.0563 24.1643C18.3813 24.1647 18.7583 24.1651 19.0915 24.0575C19.514 23.921 19.8119 23.6411 20.047 23.2372C20.2635 22.8653 20.4487 22.3513 20.6525 21.6782C20.8464 21.0382 21.0717 20.2025 21.3608 19.1237C22.5462 18.2027 23.165 16.7501 23.165 14.9993C23.165 14.8298 23.1592 14.6631 23.1477 14.4993H21.8137ZM16.6203 21.2927C16.6076 21.2508 16.5947 21.208 16.5817 21.1643H19.4182C19.4052 21.208 19.3923 21.2508 19.3796 21.2927C19.1769 21.9622 19.0285 22.3431 18.8976 22.568C18.7868 22.7583 18.7237 22.7787 18.6843 22.7914L18.6827 22.7919C18.5735 22.8271 18.4128 22.8343 18 22.8343C17.5871 22.8343 17.4264 22.8271 17.3172 22.7919L17.3157 22.7914C17.2762 22.7787 17.2131 22.7583 17.1023 22.568C16.9714 22.3431 16.823 21.9622 16.6203 21.2927Z" fill="#000000" class="bmwfcol"/><path d="M3.62973 16.6297C4.47123 15.7882 5.64884 15.335 6.99996 15.335C8.35108 15.335 9.52869 15.7882 10.3702 16.6297C11.2117 17.4712 11.665 18.6488 11.665 20C11.665 21.3511 11.2117 22.5287 10.3702 23.3702C9.92729 23.8131 9.39128 24.1484 8.78587 24.3668L10.2953 30H8.91837L7.48353 24.6451C7.32508 24.6583 7.1638 24.665 6.99996 24.665C6.83562 24.665 6.67384 24.6583 6.51492 24.645L5.08004 30H3.70312L5.21268 24.3663C4.60783 24.1479 4.0723 23.8128 3.62973 23.3702C2.78824 22.5287 2.33496 21.3511 2.33496 20C2.33496 18.6488 2.78824 17.4712 3.62973 16.6297ZM4.57019 17.5702C4.01169 18.1287 3.66496 18.9511 3.66496 20C3.66496 21.0488 4.01169 21.8712 4.57019 22.4297C5.12869 22.9882 5.95108 23.335 6.99996 23.335C8.04884 23.335 8.87123 22.9882 9.42974 22.4297C9.98824 21.8712 10.335 21.0488 10.335 20C10.335 18.9511 9.98824 18.1287 9.42974 17.5702C8.87123 17.0117 8.04884 16.665 6.99996 16.665C5.95108 16.665 5.12869 17.0117 4.57019 17.5702Z" fill="#000000" class="bmwfcol"/><title>document_with_light_bulb_and_seal_lt_48</title></svg>