<svg width="48" height="48" viewBox="0 0 32 32" xmlns="http://www.w3.org/2000/svg"><path d="M3.9395 3L29.9395 29H28.0586L2.05859 3H3.9395Z" fill="#000000" class="bmwfcol"/><path d="M11.2473 16.5H12.64L12.0738 18.3218C12.0674 18.3424 12.0609 18.3629 12.0543 18.3833L15.859 19.3955L17.7341 21.2706L11.4889 19.6092C10.9818 20.4333 10.2677 21.1208 9.40727 21.597L6.16405 23.392V27.9999H4.83405V22.608L8.76324 20.4334C9.74104 19.8922 10.4721 18.9943 10.8037 17.9271L11.2473 16.5Z" fill="#000000" class="bmwfcol"/><path d="M20.0056 9.8776C19.506 11.4941 18.1835 12.6854 16.5837 13.0491L15.3696 11.835H15.5487C17.0112 11.835 18.3031 10.8821 18.735 9.48484L19.3459 7.50831C19.5615 6.81072 20.2065 6.335 20.9366 6.335H23.5537C24.0257 6.335 24.4755 6.53533 24.7913 6.88617L26.1352 8.37946L29.664 8.93083V9.91695C29.664 10.7256 29.4909 11.5249 29.1563 12.2611L28.9801 12.6487L25.6609 13.6589C24.9002 13.8904 24.3097 14.4931 24.0936 15.2583L22.9265 19.3919L21.8488 18.3142L22.8136 14.8969C23.1528 13.6958 24.0797 12.7499 25.2736 12.3865L28.0136 11.5526C28.2059 11.0806 28.3135 10.5783 28.3314 10.0687L25.4629 9.62054L24.4998 8.55049L23.7413 11.3089C23.6022 11.8146 23.1424 12.165 22.618 12.165H21.6662C21.1571 12.165 20.707 11.8344 20.5546 11.3486L20.0491 9.73692L20.0056 9.8776ZM23.364 7.665H20.9366C20.8892 7.665 20.8436 7.67497 20.802 7.69321L21.7874 10.835L22.4922 10.835L23.364 7.665Z" fill="#000000" class="bmwfcol"/><path d="M8.64566 5.11107L10.4945 6.95987L11.2625 4.935H8.80959L8.64566 5.11107Z" fill="#000000" class="bmwfcol"/><path d="M20.866 24.4025L22.2141 25.7506L22.2441 27.9999H20.914L20.866 24.4025Z" fill="#000000" class="bmwfcol"/><path d="M2.33405 27.9999H3.66405L3.66405 22.2131L5.32074 19.8937C5.84798 19.1556 6.21899 18.3176 6.41107 17.4311L7.18341 13.8664L7.11193 10.6484L5.77612 9.3126C5.76318 9.45182 5.75815 9.59232 5.76128 9.73346L5.85025 13.7386L5.11123 17.1495C4.95748 17.8591 4.6605 18.5299 4.23848 19.1207L2.33405 21.7869L2.33405 27.9999Z" fill="#000000" class="bmwfcol"/><path d="M19.6803 23.2168L19.7441 27.9999H18.414L18.3329 21.9158L18.3428 21.8793L19.6803 23.2168Z" fill="#000000" class="bmwfcol"/><title>dog_crossed_out_lt_48</title></svg>