<svg width="48" height="48" viewBox="0 0 32 32" xmlns="http://www.w3.org/2000/svg"><path d="M11.2644 4.93506L9.9619 8.36895C9.90055 8.5307 9.87122 8.70284 9.87554 8.87578L9.94952 11.8351H15.5506C17.0131 11.8351 18.305 10.8822 18.7369 9.4849L19.3478 7.50837C19.5634 6.81078 20.2084 6.33506 20.9385 6.33506H23.5556C24.0276 6.33506 24.4774 6.53539 24.7932 6.88623L26.1371 8.37952L29.6659 8.9309V9.91701C29.6659 10.7257 29.4928 11.525 29.1582 12.2612L28.982 12.6488L25.6628 13.659C24.9021 13.8905 24.3115 14.4931 24.0955 15.2583L22.1672 22.0878L22.246 28H20.9159L20.8347 21.9123L22.8155 14.8969C23.1546 13.6959 24.0816 12.75 25.2755 12.3866L28.0155 11.5527C28.2078 11.0806 28.3154 10.5783 28.3333 10.0688L25.4648 9.6206L24.5017 8.55056L23.7432 11.309C23.6041 11.8146 23.1443 12.1651 22.6199 12.1651L21.6681 12.1651C21.159 12.1651 20.7089 11.8345 20.5565 11.3487L20.051 9.73698L20.0075 9.87766C19.4034 11.8322 17.5963 13.1651 15.5506 13.1651H8.65236L8.54596 8.90902C8.53732 8.56378 8.59587 8.22016 8.71835 7.89726L9.30107 6.36101L7.7183 8.06102C7.30374 8.50629 7.07934 9.09577 7.09285 9.70399L7.18531 13.8665L6.41296 17.4312C6.22088 18.3177 5.84987 19.1557 5.32264 19.8938L3.66594 22.2132L3.66594 28H2.33594L2.33594 21.7869L4.24037 19.1207C4.66239 18.5299 4.95937 17.8592 5.11312 17.1495L5.85214 13.7387L5.76318 9.73353C5.74197 8.77886 6.0942 7.85362 6.74488 7.15474L8.81148 4.93506H11.2644ZM22.4941 10.8351L23.3659 7.66506H20.9385C20.8911 7.66506 20.8455 7.67503 20.8039 7.69327L21.7893 10.8351L22.4941 10.8351Z" fill="#000000" class="bmwfcol"/><path d="M4.83594 28V22.6081L8.76513 20.4334C9.74293 19.8923 10.474 18.9944 10.8056 17.9271L11.2492 16.5001H12.6419L12.0757 18.3219C12.0693 18.3424 12.0628 18.3629 12.0562 18.3834L18.8058 20.179L19.5323 17.5001H20.9103L19.6671 22.0843L19.746 28H18.4159L18.3348 21.9158L18.4577 21.4627L11.4908 19.6093C10.9837 20.4334 10.2695 21.1209 9.40916 21.5971L6.16594 23.3921V28H4.83594Z" fill="#000000" class="bmwfcol"/><title>dog_lt_48</title></svg>