<svg width="48" height="48" viewBox="0 0 32 32" xmlns="http://www.w3.org/2000/svg"><path d="M14.843 17.1544H16.1459V15.544C17.1561 15.4708 17.8588 15.2512 18.4591 14.7388C19.0886 14.2118 19.396 13.4212 19.396 12.4989C19.396 11.723 19.1764 11.1081 18.7519 10.6543C18.3419 10.1858 17.8149 9.92225 16.8633 9.61481L14.8723 8.95601C14.1842 8.72177 13.7157 8.56073 13.4083 8.32649C13.1008 8.09225 13.0423 7.75553 13.0423 7.30169C13.0423 6.80393 13.1594 6.39401 13.5107 6.11585C13.8767 5.82305 14.4916 5.73521 15.3993 5.73521C16.468 5.73521 18.0199 6.10121 19.0593 6.35009V4.95929C18.3273 4.78361 17.1268 4.52009 16.1459 4.41761V2.95361H14.843V4.38833C13.8035 4.43225 13.0569 4.63721 12.5152 5.10569C11.8564 5.69129 11.6075 6.46721 11.6075 7.36025C11.6075 8.16545 11.8125 8.75105 12.2663 9.23417C12.647 9.61481 13.2326 9.89297 14.0231 10.1565L16.1459 10.8739C16.8926 11.1227 17.3611 11.2838 17.6392 11.5619C17.8881 11.8108 17.9613 12.1036 17.9613 12.5428C17.9613 13.0699 17.7563 13.553 17.3318 13.8311C16.8633 14.1386 16.2484 14.2118 15.4139 14.2118C14.1842 14.2118 12.7934 13.9336 11.71 13.714V15.1048C12.5445 15.2659 13.7743 15.5001 14.843 15.5587V17.1544Z" fill="#000000" class="bmwfcol"/><path d="M29.4704 16.5297C29.1821 16.2414 28.7919 15.9207 28.2502 15.7166C27.7038 15.5108 27.0498 15.441 26.2581 15.5825C24.8326 15.8372 22.9341 16.7816 20.2868 18.9045C20.2579 18.8702 20.2275 18.8369 20.1953 18.8047C19.8787 18.4883 19.4511 18.335 19 18.335L14.0878 18.335L10.3558 17.335L10.2055 17.335C9.6195 17.3345 9.13111 17.3342 8.56144 17.6828C8.29789 17.8441 8.03096 18.0693 7.72213 18.3578C7.41277 18.6468 7.03122 19.0283 6.53908 19.5205L2.05957 24L7.72457 29.665H9.27547L11.2755 27.665H15.0196C16.003 27.665 16.7675 27.665 17.3788 27.6328C17.996 27.6003 18.5023 27.5336 18.9604 27.3809C19.8611 27.0807 20.4671 26.4743 21.3805 25.5603L29.9408 16.9999L29.4704 16.5297ZM19.255 19.7453C19.2885 19.7788 19.3352 19.8512 19.3352 19.9998L19.3351 20.7211C18.4746 21.5508 17.8598 21.9291 17.2898 22.1191C16.6607 22.3288 16.0238 22.335 15.0003 22.335H11V23.665L15.0598 23.665C16.0119 23.6651 16.8574 23.6652 17.7105 23.3809C18.5983 23.0849 19.4344 22.5061 20.4702 21.4702L20.665 21.2755L20.6652 20.3116C23.5039 17.9648 25.3248 17.1003 26.4921 16.8917C27.0753 16.7875 27.4838 16.8492 27.7813 16.9612C27.858 16.9901 27.9304 17.0235 27.9991 17.0607L20.53 24.5298C19.4944 25.5654 19.11 25.9291 18.5399 26.1191C18.2479 26.2164 17.8792 26.2747 17.3089 26.3047C16.7367 26.3348 16.0071 26.335 15 26.335H10.7246L8.72457 28.335H8.27547L3.94047 24L7.47025 20.4702C7.97361 19.9669 8.33922 19.6014 8.63005 19.3297C8.92335 19.0557 9.11069 18.9059 9.25566 18.8172C9.47236 18.6846 9.60188 18.6665 10.1811 18.6651L13.9127 19.665L19 19.665C19.1489 19.665 19.2214 19.7117 19.255 19.7453Z" fill="#000000" class="bmwfcol"/><title>dollar_symbol_on_hand_lt_48</title></svg>