<svg width="48" height="48" viewBox="0 0 32 32" xmlns="http://www.w3.org/2000/svg"><path d="M16.6641 4.99996V11.8359L15.302 13.198C15.3192 13.1568 15.3341 13.0941 15.3341 13L15.3341 4.99996C15.3341 4.76577 15.2333 4.66496 14.9991 4.66496H11.6659V13.335H14.9991C15.0932 13.335 15.1559 13.3201 15.1971 13.3029L13.835 14.665H11.6659V15.665H6.33594V14.665H3.00094C2.554 14.665 2.12078 14.5253 1.79821 14.2027C1.47564 13.8801 1.33594 13.4469 1.33594 13V4.99996C1.33594 4.55302 1.47564 4.11981 1.79821 3.79723C2.12078 3.47466 2.554 3.33496 3.00094 3.33496H6.33594V2.33496H11.6659V3.33496H14.9991C15.446 3.33496 15.8792 3.47466 16.2018 3.79723C16.5244 4.11981 16.6641 4.55302 16.6641 4.99996ZM10.3359 7.66496H7.66594V10.335H10.3359V7.66496ZM7.66594 6.33496H10.3359V3.66496H7.66594V6.33496ZM6.33594 4.66496H3.00094C2.76675 4.66496 2.66594 4.76577 2.66594 4.99996L2.66594 13C2.66594 13.2342 2.76675 13.335 3.00094 13.335H6.33594V4.66496ZM7.66594 11.665V14.335H10.3359V11.665H7.66594Z" fill="#000000" class="bmwfcol"/><path d="M18.2516 12.3086L19.6664 13.7233C19.6664 15.3567 19.3978 16.9694 18.5425 18.3799C20.3563 18.5352 22.5146 19.1103 27.1421 20.3502L30.164 20.8831L30.1637 21.4414C30.1635 21.713 30.1636 21.8921 30.1703 22.0284C30.177 22.1637 30.1888 22.2114 30.1939 22.2273L30.1945 22.2294C30.2331 22.4001 30.5326 22.5941 30.663 22.7246C30.663 24.1783 30.4217 25.5655 29.8847 26.9151L27.4826 27.5587C27.047 28.786 25.8756 29.665 24.499 29.665C23.1626 29.665 22.0196 28.8367 21.5555 27.6654H10.4425C9.97837 28.8367 8.83541 29.665 7.49898 29.665C6.12257 29.665 4.95136 28.7863 4.51563 27.5594L1.33398 26.7068V23.0733C2.67532 22.4478 4.02252 21.8192 5.46419 21.4596C6.59764 21.1768 7.83765 21.0246 9.70204 20.8582L18.2516 12.3086ZM27.6436 26.1387L28.8867 25.8056C29.1506 25.0434 29.3044 24.1946 29.3294 23.2697C29.1691 23.0997 29.013 22.9005 28.9273 22.633C28.8618 22.4286 28.8448 22.2132 28.8382 21.9998L26.9393 21.665C25.4693 21.6652 24.7563 21.6745 23.788 22.0044C22.9025 22.3062 21.8026 22.8776 19.8351 24H17.1699L18.1675 23.4241C19.8452 22.4554 21.5498 21.3568 23.397 20.7327C20.4259 19.9619 19.0311 19.6834 17.6398 19.666C17.2989 20.1032 16.9206 20.5549 16.5108 21.0433C15.4823 22.2691 15.0883 22.7556 14.8864 23.3997C14.6989 23.998 14.6709 24.7498 14.667 26.3354H21.3382C21.4238 24.6639 22.8062 23.335 24.499 23.335C26.1248 23.335 27.4643 24.5608 27.6436 26.1387ZM13.3366 26.3354C13.3388 24.7838 13.3634 23.812 13.6173 23.0019C13.9588 21.9123 14.7732 21.0447 15.492 20.1884C16.5037 18.9826 17.1996 18.1378 17.6587 17.2368C18.0735 16.4227 18.3048 15.5386 18.3334 14.2712L18.2516 14.1895L10.3004 22.1407C8.79137 22.2727 7.26033 22.3822 5.78612 22.75C4.81855 22.9914 3.94069 23.3364 2.66398 23.922V25.6863L4.35432 26.1392C4.53337 24.5611 5.87299 23.335 7.49898 23.335C9.19178 23.335 10.5742 24.6639 10.6598 26.3354H13.3366ZM5.66398 26.5C5.66398 27.5134 6.48554 28.335 7.49898 28.335C8.51243 28.335 9.33398 27.5134 9.33398 26.5C9.33398 25.4865 8.51243 24.665 7.49898 24.665C6.48554 24.665 5.66398 25.4865 5.66398 26.5ZM22.664 26.5C22.664 27.5134 23.4855 28.335 24.499 28.335C25.5124 28.335 26.334 27.5134 26.334 26.5C26.334 25.4865 25.5124 24.665 24.499 24.665C23.4855 24.665 22.664 25.4865 22.664 26.5Z" fill="#000000" class="bmwfcol"/><title>door-hinge_lt_48</title></svg>