<svg width="48" height="48" viewBox="0 0 32 32" xmlns="http://www.w3.org/2000/svg"><path d="M23.2275 4.33057L23.1107 4.33057C18.3495 4.3305 15.3132 4.33046 12.4893 5.34034C9.62694 6.36394 7.03974 8.39925 3.03672 12.2859C2.78259 12.5326 2.56185 12.7813 2.4431 13.1235C2.33495 13.4351 2.33496 13.7693 2.33496 14.0926V24.903C2.33496 25.3544 2.70706 25.6647 3.09996 25.6647H14.5V24.3347H3.66496V14.6649H16.5068C16.5254 14.2112 16.5821 13.766 16.6785 13.3349H3.86863C3.89548 13.307 3.92674 13.2755 3.9632 13.2401C7.96018 9.35934 10.3694 7.51093 12.9371 6.59267C15.5202 5.66891 18.3212 5.66057 23.2275 5.66057L23.335 5.66066V8.50688C23.785 8.52552 24.2307 8.58218 24.665 8.67971V4.34247L24.0075 4.33498C23.751 4.33205 23.491 4.33057 23.2275 4.33057Z" fill="#000000" class="bmwfcol"/><path d="M23.0009 21.335C22.3575 21.335 21.8359 21.8566 21.8359 22.5C21.8359 23.1434 22.3575 23.665 23.0009 23.665C23.6443 23.665 24.1659 23.1434 24.1659 22.5C24.1659 21.8566 23.6443 21.335 23.0009 21.335Z" fill="#000000" class="bmwfcol"/><path d="M18.335 17.3583V15C18.335 13.5959 18.7841 12.4122 19.6349 11.5797C20.4833 10.7494 21.6631 10.335 23 10.335C24.3368 10.335 25.5166 10.7494 26.3651 11.5797C27.2158 12.4122 27.665 13.5959 27.665 15V17.3583C28.1548 17.4099 28.5947 17.55 28.9453 17.8092C29.4333 18.17 29.665 18.7002 29.665 19.2857V25.7142C29.665 26.2997 29.4333 26.83 28.9453 27.1908C28.4869 27.5296 27.8757 27.665 27.1999 27.665L18.8 27.665C18.1242 27.665 17.513 27.5296 17.0546 27.1908C16.5666 26.8299 16.335 26.2997 16.335 25.7142V19.2857C16.335 18.7002 16.5666 18.17 17.0546 17.8092C17.4052 17.55 17.8451 17.4099 18.335 17.3583ZM19.665 15V17.335L26.335 17.335V15C26.335 13.884 25.9841 13.0677 25.4349 12.5303C24.8833 11.9905 24.0631 11.665 23 11.665C21.9368 11.665 21.1166 11.9905 20.5651 12.5303C20.0158 13.0677 19.665 13.884 19.665 15ZM18.8 18.665C18.2757 18.665 17.9869 18.7739 17.8453 18.8786C17.7333 18.9614 17.665 19.074 17.665 19.2857L17.665 25.7142C17.665 25.9259 17.7333 26.0385 17.8453 26.1213C17.9869 26.226 18.2757 26.335 18.8 26.335L27.1999 26.335C27.7242 26.335 28.013 26.226 28.1546 26.1213C28.2666 26.0385 28.335 25.9259 28.335 25.7142V19.2857C28.335 19.074 28.2666 18.9614 28.1546 18.8786C28.013 18.7739 27.7242 18.665 27.1999 18.665L18.8 18.665Z" fill="#000000" class="bmwfcol"/><title>door_and_lock_lt_48</title></svg>