<svg width="48" height="48" viewBox="0 0 32 32" xmlns="http://www.w3.org/2000/svg"><path d="M21.9999 11.0596L16.665 16.3945L16.665 4H15.335L15.335 16.3947L9.99992 11.0596V12.9405L15.9999 18.9405L21.9999 12.9405V11.0596Z" fill="#000000" class="bmwfcol"/><path d="M26.335 17V25C26.335 25.4142 26.1821 25.7039 25.8723 25.9177C25.5277 26.1554 24.9315 26.335 24 26.335H7.99996C7.0684 26.335 6.4722 26.1554 6.12763 25.9177C5.81785 25.7039 5.66496 25.4142 5.66496 25L5.66496 17H4.33496L4.33496 25C4.33496 25.8258 4.68207 26.5361 5.37229 27.0123C6.02772 27.4646 6.93153 27.665 7.99996 27.665H24C25.0684 27.665 25.9722 27.4646 26.6276 27.0123C27.3179 26.5361 27.665 25.8258 27.665 25V17H26.335Z" fill="#000000" class="bmwfcol"/><title>download_lt_48</title></svg>