<svg width="48" height="48" viewBox="0 0 32 32" xmlns="http://www.w3.org/2000/svg"><path d="M8.27876 3.27986C8.94746 2.61116 9.89648 2.33508 10.999 2.33508H20.999C22.1015 2.33508 23.0505 2.61116 23.7192 3.27986C24.3879 3.94855 24.664 4.89758 24.664 6.00008V26.0001C24.664 27.1026 24.3879 28.0516 23.7192 28.7203C23.0505 29.389 22.1015 29.6651 20.999 29.6651H10.999C9.89648 29.6651 8.94746 29.389 8.27876 28.7203C7.61006 28.0516 7.33398 27.1026 7.33398 26.0001V6.00008C7.33398 4.89758 7.61006 3.94855 8.27876 3.27986ZM9.21921 4.22031C8.88791 4.55161 8.66398 5.10259 8.66398 6.00008V6.33508H23.334V6.00008C23.334 5.10259 23.1101 4.55161 22.7788 4.22031C22.4475 3.88901 21.8965 3.66508 20.999 3.66508H10.999C10.1015 3.66508 9.55051 3.88901 9.21921 4.22031ZM23.334 7.66508H8.66398V24.3351H23.334V7.66508ZM8.66398 26.0001C8.66398 26.8976 8.88791 27.4486 9.21921 27.7799C9.55051 28.1112 10.1015 28.3351 10.999 28.3351H20.999C21.8965 28.3351 22.4475 28.1112 22.7788 27.7799C23.1101 27.4486 23.334 26.8976 23.334 26.0001V25.6651H8.66398V26.0001Z" fill="#000000" class="bmwfcol"/><path d="M15.334 19.5216L11 15.1876V16.8139L15.9993 21.8133L21 16.8126V15.1862L16.664 19.5222V10.0001H15.334V19.5216Z" fill="#000000" class="bmwfcol"/><title>download-completed_lt_48</title></svg>