<svg width="48" height="48" viewBox="0 0 32 32" xmlns="http://www.w3.org/2000/svg"><path d="M14.665 7.335H18V8.665H16.3325L17.8052 14.1611L17.8686 14.1977L17.832 14.2611L21.2849 27.1476L21.6096 27.335H24V28.665H4V27.335H6.44112L8.52046 19.5748L8.51377 19.5632L8.52536 19.5565L11.4437 8.665H10V7.335H13.335V3H14.665V7.335ZM9.66575 20.4392L19.656 26.2071L16.9779 16.2122L9.66745 20.4329L9.66575 20.4392ZM11.8567 12.2625L10.1543 18.6161L16.5078 14.9478L11.8567 12.2625ZM16.1763 13.2207L14.9575 8.67212L14.9841 8.665H12.7922L12.8187 8.67212L12.2131 10.9325L16.1763 13.2207ZM7.81804 27.335H18.9496L9.30938 21.7692L7.81804 27.335Z" fill="#000000" class="bmwfcol"/><path d="M25 19.665C24.2446 19.665 23.5618 19.43 23.0666 18.9356C22.5713 18.4409 22.335 17.7579 22.335 17C22.335 16.5498 22.4766 16.1403 22.6549 15.7811C22.8317 15.4252 23.066 15.0779 23.2863 14.7579L23.3473 14.6694C23.7872 14.031 24.1778 13.4643 24.35 12.8267L24.4828 12.335H25.5173L25.65 12.8267C25.8222 13.4643 26.2128 14.031 26.6528 14.6694L26.7138 14.7579C26.9341 15.0779 27.1684 15.4252 27.3451 15.7811C27.5235 16.1403 27.665 16.5498 27.665 17C27.665 17.7579 27.4287 18.4409 26.9334 18.9356C26.4382 19.43 25.7554 19.665 25 19.665ZM23.665 17C23.665 17.4821 23.8107 17.7991 24.0064 17.9944C24.2022 18.19 24.5194 18.335 25 18.335C25.4806 18.335 25.7978 18.19 25.9936 17.9944C26.1893 17.7991 26.335 17.4821 26.335 17C26.335 16.8302 26.2816 16.6297 26.1539 16.3726C26.0247 16.1123 25.842 15.8371 25.6183 15.5121L25.5268 15.3797C25.3597 15.1383 25.1756 14.8721 25 14.5831C24.8245 14.8721 24.6403 15.1383 24.4732 15.3797L24.3818 15.5121C24.1581 15.8371 23.9754 16.1123 23.8461 16.3726C23.7185 16.6297 23.665 16.8302 23.665 17Z" fill="#000000" class="bmwfcol"/><title>drilltower_with_oil_drop_lt_48</title></svg>