<svg width="48" height="48" viewBox="0 0 32 32" xmlns="http://www.w3.org/2000/svg"><path d="M7.86634 5.33496L8.67725 2.30858L7.39257 1.96436L5.32202 9.69176L6.6067 10.036L7.50997 6.66496H12.8931C13.0067 7.29406 13.2852 7.85063 13.7172 8.28269C14.1493 8.71474 14.7059 8.99327 15.335 9.10681L15.335 22.8931C14.7059 23.0067 14.1493 23.2852 13.7172 23.7172C13.2852 24.1493 13.0067 24.7059 12.8931 25.335H7.66496V22H6.33496V30H7.66496V26.665H12.8931C13.0066 27.2941 13.2852 27.8506 13.7172 28.2827C14.2962 28.8617 15.0988 29.165 16 29.165C17.6392 29.165 18.8178 28.0808 19.1 26.665H24.335V30H25.665V22H24.335V25.335H19.1068C18.9933 24.7059 18.7147 24.1493 18.2827 23.7172C17.8506 23.2852 17.2941 23.0067 16.665 22.8931L16.665 9.10235C17.9539 8.8525 18.8576 7.88111 19.1 6.66496H24.1687L23.3577 9.69176L24.6423 10.036L26.7129 2.30858L25.4282 1.96436L24.5251 5.33496H19.1068C18.9933 4.70586 18.7147 4.14929 18.2827 3.71723C17.7037 3.13824 16.9011 2.83496 16 2.83496C15.0988 2.83496 14.2962 3.13824 13.7172 3.71723C13.2852 4.14929 13.0066 4.70586 12.8931 5.33496H7.86634ZM14.165 5.99996C14.165 5.40108 14.3617 4.95369 14.6577 4.65769C14.9537 4.36169 15.4011 4.16496 16 4.16496C16.5988 4.16496 17.0462 4.36169 17.3422 4.65769C17.6382 4.95369 17.835 5.40108 17.835 5.99996C17.835 7.03459 17.1119 7.83496 16 7.83496C15.4011 7.83496 14.9537 7.63824 14.6577 7.34224C14.3617 7.04623 14.165 6.59884 14.165 5.99996ZM14.6577 24.6577C14.9537 24.3617 15.4011 24.165 16 24.165C16.5988 24.165 17.0462 24.3617 17.3422 24.6577C17.6382 24.9537 17.835 25.4011 17.835 26C17.835 27.0346 17.1119 27.835 16 27.835C15.4011 27.835 14.9537 27.6382 14.6577 27.3422C14.3617 27.0462 14.165 26.5988 14.165 26C14.165 25.4011 14.3617 24.9537 14.6577 24.6577Z" fill="#000000" class="bmwfcol"/><title>drivetrain-awd_lt_48</title></svg>