<svg width="48" height="48" viewBox="0 0 32 32" xmlns="http://www.w3.org/2000/svg"><path d="M15.9996 29.6649C18.2923 29.6649 20.3853 29.2315 22.2083 28.4172L21.6128 27.2263C19.9844 27.9443 18.098 28.3349 15.9996 28.3349C13.9013 28.3349 12.0149 27.9443 10.3865 27.2263L9.79102 28.4172C11.614 29.2315 13.707 29.6649 15.9996 29.6649Z" fill="#000000" class="bmwfcol"/><path d="M15.9996 26.1649C17.7011 26.1649 19.2584 25.8424 20.6169 25.2344L20.0214 24.0435C18.8575 24.5553 17.5067 24.8349 15.9996 24.8349C14.4925 24.8349 13.1418 24.5553 11.9779 24.0435L11.3824 25.2344C12.7409 25.8425 14.2982 26.1649 15.9996 26.1649Z" fill="#000000" class="bmwfcol"/><path d="M13.0985 15.1475H15.406L15.999 15.444L16.592 15.1475H18.8994L19.664 15.912V18.0619L18.6856 19.665H16.286L15.999 19.3779L15.7119 19.665H13.348L12.334 18.0683V15.912L13.0985 15.1475ZM13.664 16.4775V17.6817L14.0789 18.335H15.161L15.334 18.162V16.5985L15.092 16.4775H13.664ZM16.664 16.5985V18.162L16.8369 18.335H17.9392L18.334 17.6881L18.334 16.4775H16.906L16.664 16.5985Z" fill="#000000" class="bmwfcol"/><path d="M15.999 9.33496C14.554 9.33496 13.7252 9.35323 13.1595 9.41908C12.5471 9.49039 12.227 9.62021 11.8185 9.79948C11.4678 9.95348 11.1648 10.235 10.9214 10.5114C10.6686 10.7985 10.4318 11.1364 10.2232 11.4689C10.051 11.7434 9.89209 12.0238 9.75339 12.2845C9.45157 12.114 9.12608 12.0351 8.76327 11.997C8.38301 11.9571 7.90645 11.9581 7.32574 11.9594C7.22058 11.9596 7.11106 11.9599 6.99902 11.9599V13.2899C7.12091 13.2899 7.23542 13.2897 7.34325 13.2895C7.93141 13.2885 8.32103 13.2879 8.62446 13.3198C8.77092 13.3351 8.87908 13.3566 8.96427 13.3843L9.01701 13.4414C8.65108 13.7848 8.30142 14.1311 8.02323 14.4705C7.67319 14.8974 7.33398 15.4319 7.33398 16.0321V22.665H11.664V21.7748C14.7056 21.9717 17.2923 21.9717 20.334 21.7748V22.665H24.664V16.0321C24.664 15.4319 24.3248 14.8974 23.9747 14.4705C23.6962 14.1307 23.346 13.784 22.9796 13.4401L23.0301 13.3855C23.1158 13.3573 23.2249 13.3354 23.3736 13.3198C23.6771 13.2879 24.0666 13.2885 24.6548 13.2895C24.7626 13.2897 24.8773 13.2899 24.9992 13.2899V11.9599C24.8869 11.9599 24.7781 11.9596 24.6727 11.9594C24.092 11.9581 23.6151 11.9571 23.2348 11.997C22.872 12.0351 22.5463 12.114 22.2445 12.2846C22.1058 12.0241 21.9469 11.7438 21.7747 11.4695C21.5661 11.1371 21.3294 10.7993 21.0766 10.5122C20.8332 10.2357 20.5298 9.95398 20.1796 9.79956C19.2773 9.40312 18.6384 9.33496 15.999 9.33496ZM20.9787 12.7401L20.9214 12.7375C20.1442 12.7029 19.0599 12.7051 17.5528 12.7081L17.5508 12.7081C17.0766 12.7091 16.5605 12.7101 15.999 12.7101C15.4374 12.7101 14.9213 12.7091 14.447 12.7081L14.4451 12.7081C12.9377 12.7051 11.853 12.7029 11.0753 12.7375L11.0191 12.7401C11.1209 12.555 11.2323 12.3631 11.3499 12.1757C11.5368 11.8776 11.731 11.6045 11.9196 11.3903C12.1176 11.1655 12.2666 11.0553 12.3532 11.0173C12.7015 10.8645 12.885 10.79 13.3133 10.7402C13.7886 10.6848 14.5379 10.665 15.999 10.665C18.6711 10.665 19.0348 10.7493 19.6441 11.017C19.7313 11.0556 19.8805 11.1663 20.0783 11.391C20.267 11.6053 20.4612 11.8784 20.6482 12.1764C20.7657 12.3637 20.8769 12.5552 20.9787 12.7401ZM10.2055 14.1529C10.4198 14.1137 10.716 14.0848 11.1344 14.0662C11.8785 14.0331 12.9184 14.0351 14.4122 14.0381H14.4145C14.8941 14.0391 15.4205 14.0401 15.999 14.0401C16.5782 14.0401 17.106 14.0391 17.5861 14.0381C19.0796 14.0351 20.1186 14.0331 20.8622 14.0662C21.2821 14.0849 21.5787 14.114 21.793 14.1533C22.2637 14.5868 22.6615 14.9664 22.9462 15.3137C22.966 15.3378 22.9848 15.3613 23.0027 15.3841C22.288 15.5405 21.5191 15.6329 20.499 15.71V17.0438C21.6177 16.9616 22.4941 16.8601 23.334 16.6729V21.335H21.664V20.3472L20.9506 20.3992C17.4161 20.6569 14.5818 20.6569 11.0473 20.3992L10.334 20.3472V21.335H8.66398V16.6728C9.5039 16.86 10.3803 16.9616 11.499 17.0437V15.71C10.479 15.6329 9.71003 15.5404 8.99535 15.384C9.01323 15.3612 9.03201 15.3378 9.05174 15.3137C9.33654 14.9663 9.7346 14.5865 10.2055 14.1529Z" fill="#000000" class="bmwfcol"/><path d="M20.6167 6.76587C19.2581 6.15758 17.7005 5.83496 15.9987 5.83496C14.2975 5.83496 12.7405 6.15731 11.3822 6.76513L11.9777 7.95606C13.1414 7.44447 14.4919 7.16496 15.9987 7.16496C17.5062 7.16496 18.8572 7.44473 20.0213 7.95679L20.6167 6.76587Z" fill="#000000" class="bmwfcol"/><path d="M22.2083 3.58269C20.3853 2.7684 18.2923 2.33496 15.9996 2.33496C13.707 2.33496 11.614 2.76839 9.79102 3.58266L10.3865 4.77359C12.0149 4.05554 13.9013 3.66496 15.9996 3.66496C18.098 3.66496 19.9844 4.05556 21.6129 4.77362L22.2083 3.58269Z" fill="#000000" class="bmwfcol"/><title>driving_assistant_plus_lt_48</title></svg>