<svg width="48" height="48" viewBox="0 0 32 32" xmlns="http://www.w3.org/2000/svg"><path d="M11.1797 5.17973C12.3712 3.98824 14.0488 3.33496 16 3.33496C17.9511 3.33496 19.6287 3.98824 20.8202 5.17973C22.0117 6.37123 22.665 8.04884 22.665 9.99996C22.665 11.9511 22.0117 13.6287 20.8202 14.8202C19.6287 16.0117 17.9511 16.665 16 16.665C14.0488 16.665 12.3712 16.0117 11.1797 14.8202C9.98824 13.6287 9.33496 11.9511 9.33496 9.99996C9.33496 8.04884 9.98824 6.37123 11.1797 5.17973ZM12.714 9.33496C12.7814 9.15646 12.8667 8.97712 12.9701 8.79811C13.3334 8.16936 13.7247 7.73859 14.2983 7.51998C14.7859 7.33416 15.3479 7.33458 15.9184 7.335H16.0815C16.652 7.33458 17.214 7.33416 17.7016 7.51998C18.2752 7.73859 18.6665 8.16936 19.0298 8.79811C19.1332 8.97712 19.2185 9.15646 19.2859 9.33496H21.3041C21.1769 7.99331 20.6626 6.90307 19.8797 6.12019C18.9712 5.21169 17.6488 4.66496 16 4.66496C14.3511 4.66496 13.0287 5.21169 12.1202 6.12019C11.3373 6.90307 10.8231 7.99331 10.6958 9.33496H12.714ZM19.4502 10.665C19.4113 10.932 19.3264 11.1892 19.1958 11.4317C18.7919 12.1813 18.0197 12.6616 17.1604 12.8749C16.9842 12.9186 16.8213 12.9559 16.665 12.9847V15.3041C18.0066 15.1769 19.0968 14.6626 19.8797 13.8797C20.6626 13.0968 21.1769 12.0066 21.3041 10.665H19.4502ZM15.335 12.9847C15.1787 12.9559 15.0159 12.9186 14.8398 12.8749C13.9805 12.6616 13.2082 12.1814 12.8043 11.4318C12.6736 11.1892 12.5887 10.932 12.5497 10.665H10.6958C10.8231 12.0066 11.3373 13.0968 12.1202 13.8797C12.9031 14.6626 13.9933 15.1769 15.335 15.3041V12.9847ZM14.7719 8.76279C14.6038 8.82686 14.4118 8.96147 14.1218 9.46347C13.7716 10.0695 13.8156 10.5049 13.9751 10.8009C14.1509 11.1271 14.5472 11.432 15.1601 11.5841C15.5675 11.6852 15.7936 11.7211 16 11.7211C16.2065 11.7211 16.4326 11.6852 16.84 11.5841C17.4529 11.432 17.8491 11.1272 18.0249 10.8009C18.1843 10.5049 18.2283 10.0695 17.8781 9.46347C17.5881 8.96147 17.3961 8.82686 17.228 8.76279C16.9969 8.67476 16.689 8.66504 16 8.66504C15.3109 8.66504 15.003 8.67476 14.7719 8.76279Z" fill="#000000" class="bmwfcol"/><path d="M10.335 30H11.665V29.4179L14.3145 19.53L13.6721 19.3578C12.5383 19.054 11.5346 19.4105 10.6715 20.2144C9.89338 20.9389 9.19846 22.0492 8.53068 23.4375L7 23.8476V25.2245L9.47164 24.5622L9.60269 24.2812C10.2929 22.8011 10.9409 21.7808 11.5778 21.1877C11.9486 20.8424 12.2979 20.6551 12.6511 20.599L10.335 29.2428V30Z" fill="#000000" class="bmwfcol"/><path d="M6.17219 12.3577L5.52984 12.1855L3.19427 20.9019C3.03002 21.5141 2.91461 21.9443 2.9258 22.4171C2.93663 22.8744 3.06606 23.3559 3.26288 24.0881L4.33458 28.0875V30H5.66458V27.9124L4.57013 23.8279C4.34185 22.9779 4.26196 22.6618 4.25543 22.3856C4.24929 22.1264 4.30727 21.887 4.49882 21.1721L6.40461 14.0596C6.59348 14.2891 6.79029 14.6381 6.94936 15.167C7.3101 16.3665 7.45055 18.4316 6.84176 21.8842L6.7301 22.5175L8.1429 22.1643L8.15156 22.1152C8.77701 18.5681 8.66913 16.2673 8.223 14.7839C7.77127 13.2818 6.94917 12.5659 6.17219 12.3577Z" fill="#000000" class="bmwfcol"/><path d="M21.665 30H20.335V29.4179L17.6855 19.53L18.3279 19.3578C19.4617 19.054 20.4654 19.4105 21.3285 20.2144C22.1066 20.9389 22.8015 22.0492 23.4693 23.4375L25 23.8476V25.2245L22.5284 24.5622L22.3973 24.2812C21.7071 22.8011 21.0591 21.7808 20.4222 21.1877C20.0514 20.8424 19.7021 20.6551 19.3489 20.599L21.665 29.2428V30Z" fill="#000000" class="bmwfcol"/><path d="M25.8278 12.3577L26.4702 12.1855L28.8057 20.9019C28.97 21.5141 29.0854 21.9443 29.0742 22.4171C29.0634 22.8744 28.9339 23.3559 28.7371 24.0881L27.6654 28.0875V30H26.3354V27.9124L27.4299 23.8279C27.6582 22.9779 27.738 22.6618 27.7446 22.3856C27.7507 22.1264 27.6927 21.887 27.5012 21.1721L25.5954 14.0596C25.4065 14.2891 25.2097 14.6381 25.0506 15.167C24.6899 16.3665 24.5495 18.4316 25.1582 21.8842L25.2699 22.5175L23.8571 22.1643L23.8484 22.1152C23.223 18.5681 23.3309 16.2673 23.777 14.7839C24.2287 13.2818 25.0508 12.5659 25.8278 12.3577Z" fill="#000000" class="bmwfcol"/><title>driving-assistance_lt_48</title></svg>