<svg width="48" height="48" viewBox="0 0 32 32" xmlns="http://www.w3.org/2000/svg"><path d="M7.86634 5.33496L8.67725 2.30858L7.39257 1.96436L5.32202 9.69176L6.6067 10.036L7.50997 6.66496H12.8931C13.0067 7.29406 13.2852 7.85063 13.7172 8.28269C14.1493 8.71474 14.7059 8.99327 15.335 9.10681L15.335 25.335L7.66496 25.335V22H6.33496V30H7.66496V26.665L24.335 26.665V30H25.665V22H24.335V25.335L16.665 25.335L16.665 9.10236C17.9539 8.8525 18.8576 7.88111 19.1 6.66496H24.1687L23.3577 9.69176L24.6423 10.036L26.7129 2.30858L25.4282 1.96436L24.5251 5.33496H19.1068C18.9933 4.70586 18.7147 4.14929 18.2827 3.71723C17.7037 3.13824 16.9011 2.83496 16 2.83496C15.0988 2.83496 14.2962 3.13824 13.7172 3.71723C13.2852 4.14929 13.0066 4.70586 12.8931 5.33496H7.86634ZM14.165 5.99996C14.165 5.40108 14.3617 4.95369 14.6577 4.65769C14.9537 4.36169 15.4011 4.16496 16 4.16496C16.5988 4.16496 17.0462 4.36169 17.3422 4.65769C17.6382 4.95369 17.835 5.40108 17.835 5.99996C17.835 7.03459 17.1119 7.83496 16 7.83496C15.4011 7.83496 14.9537 7.63824 14.6577 7.34224C14.3617 7.04623 14.165 6.59884 14.165 5.99996Z" fill="#000000" class="bmwfcol"/><title>drivetrain-fwd_lt_48</title></svg>