<svg width="48" height="48" viewBox="0 0 32 32" xmlns="http://www.w3.org/2000/svg"><path d="M17.5129 4.37744C16.8833 4.37744 16.4005 4.48531 16.0192 4.69128C15.6353 4.89868 15.3755 5.1941 15.1741 5.53129C14.7926 6.17021 14.6829 7.10778 14.6829 8.07604C14.6829 8.96408 14.8031 9.81196 15.0796 10.3559C15.2662 10.7289 15.5205 11.0613 15.9155 11.2965C16.3084 11.5306 16.8167 11.6542 17.4871 11.6542C18.2215 11.6542 18.881 11.5197 19.4831 11.3907L19.6807 11.3483V10.0191L19.3776 10.0849C18.7775 10.2154 18.1345 10.3544 17.5731 10.3544C17.1816 10.3544 16.9058 10.2968 16.7055 10.1932C16.5118 10.093 16.3693 9.93996 16.2602 9.70737C16.1044 9.3734 16.0257 8.78469 16.0257 8.06744C16.0257 7.31151 16.1055 6.65974 16.2832 6.30444C16.401 6.06876 16.544 5.92125 16.7318 5.82695C16.9267 5.72907 17.1922 5.67724 17.5731 5.67724C17.8474 5.67724 18.1187 5.72423 18.4185 5.78419L18.4208 5.78463C18.7737 5.85186 19.0426 5.919 19.3671 6.00441L19.6807 6.08694V4.74743L19.4982 4.6963C19.2748 4.63375 19.0098 4.57206 18.653 4.50244L18.6493 4.50177C18.3124 4.4413 17.9152 4.37744 17.5129 4.37744Z" fill="#000000" class="bmwfcol"/><path d="M4.72992 4.52364H2.01172V11.508H3.33732V9.00544H4.74417L6.26637 11.508H7.83238L6.11795 8.69413C6.28774 8.51393 6.49873 8.28485 6.684 8.06527L6.68566 8.06326C7.02915 7.64746 7.31052 7.1878 7.31052 6.52804C7.31052 5.91663 7.09415 5.32356 6.62708 4.97027C6.15267 4.60722 5.57982 4.52364 4.72992 4.52364ZM3.33732 7.70564V5.82344H4.66112C5.29288 5.82344 5.54538 5.8644 5.70682 5.96604C5.80597 6.02801 5.86662 6.09964 5.90517 6.18226C5.94531 6.26827 5.96772 6.3798 5.96772 6.52804C5.96772 6.80748 5.83456 7.03361 5.62458 7.27589L5.62229 7.27861C5.50949 7.41256 5.37755 7.55374 5.23329 7.70564H3.33732Z" fill="#000000" class="bmwfcol"/><path d="M8.66899 4.52364H13.555V5.82344H9.99459V7.30144H13.3658V8.60124H9.99459V10.2082H13.6926V11.508H8.66899V4.52364Z" fill="#000000" class="bmwfcol"/><path d="M5.42795 13H7.0677C6.51907 13.683 6.20171 14.2477 6.00585 14.8353C5.67242 15.8355 5.66497 16.9623 5.66497 19C5.66497 21.0377 5.67242 22.1644 6.00585 23.1647C6.31529 24.093 6.928 24.9642 8.27694 26.335H22.335V11.665H21V10.335H23.665V13.335H24.8621L28.3262 11.335L29.665 11.335V22.665H28.3262L24.8621 20.665H23.665V27.665H7.72452L7.52974 27.4702C6.01425 25.9547 5.17027 24.8637 4.74411 23.5853C4.33475 22.3572 4.33484 21.0098 4.33497 19.1015V18.8984C4.33484 16.9901 4.33475 15.6427 4.74411 14.4147C4.90661 13.9272 5.12987 13.4669 5.42795 13ZM23.665 14.665V19.335H25.2184L28.335 21.1343V12.8656L25.2184 14.665H23.665Z" fill="#000000" class="bmwfcol"/><title>drive-recorder_lt_48</title></svg>