<svg width="48" height="48" viewBox="0 0 32 32" xmlns="http://www.w3.org/2000/svg"><path d="M7.83398 21.0001C7.83398 19.2521 9.251 17.8351 10.999 17.8351C12.747 17.8351 14.164 19.2521 14.164 21.0001C14.164 22.7481 12.747 24.1651 10.999 24.1651C9.251 24.1651 7.83398 22.7481 7.83398 21.0001ZM10.999 19.1651C9.98554 19.1651 9.16398 19.9866 9.16398 21.0001C9.16398 22.0135 9.98554 22.8351 10.999 22.8351C12.0124 22.8351 12.834 22.0135 12.834 21.0001C12.834 19.9866 12.0124 19.1651 10.999 19.1651Z" fill="#000000" class="bmwfcol"/><path d="M18.05 26.0405C16.4781 28.2357 13.9049 29.6651 10.999 29.6651C6.21344 29.6651 2.33398 25.7856 2.33398 21.0001C2.33398 19.8917 2.5421 18.8319 2.92139 17.8576L7.54198 4.77856C8.04502 3.35493 9.40311 2.33508 10.999 2.33508H24.002C27.1293 2.33669 29.664 4.87238 29.664 8.00008C29.664 9.22874 29.2746 10.3673 28.61 11.2955L18.05 26.0405ZM19.664 8.00008C19.664 10.3942 21.6048 12.3351 23.999 12.3351C26.3931 12.3351 28.334 10.3942 28.334 8.00008C28.334 5.60593 26.3931 3.66508 23.999 3.66508C21.6048 3.66508 19.664 5.60593 19.664 8.00008ZM20.3519 3.66508H13.824C14.3487 4.29915 14.664 5.11279 14.664 6.00008C14.664 8.02421 13.0231 9.66508 10.999 9.66508C9.66412 9.66508 8.49594 8.95145 7.85513 7.88489L5.6226 14.2043C7.09995 13.0339 8.96785 12.3351 10.999 12.3351C15.9262 12.3351 19.9413 16.6173 19.6484 21.5245L25.4026 13.4898C24.9538 13.6043 24.4835 13.6651 23.999 13.6651C20.8703 13.6651 18.334 11.1288 18.334 8.00008C18.334 6.26062 19.118 4.70426 20.3519 3.66508ZM3.66398 21.0001C3.66398 25.0511 6.94798 28.3351 10.999 28.3351C15.05 28.3351 18.334 25.0511 18.334 21.0001C18.334 16.9491 15.05 13.6651 10.999 13.6651C7.92286 13.6651 5.10997 15.6554 4.08607 18.5536C3.81514 19.3191 3.66398 20.1417 3.66398 21.0001ZM10.999 3.66508C9.7094 3.66508 8.66398 4.7105 8.66398 6.00008C8.66398 7.28967 9.7094 8.33508 10.999 8.33508C12.2886 8.33508 13.334 7.28967 13.334 6.00008C13.334 4.7105 12.2886 3.66508 10.999 3.66508Z" fill="#000000" class="bmwfcol"/><title>drive-belt_lt_48</title></svg>