<svg width="48" height="48" viewBox="0 0 32 32" xmlns="http://www.w3.org/2000/svg"><path d="M26.5 14.665H22.5V13.335H26.5V14.665Z" fill="#000000" class="bmwfcol"/><path d="M22.5 18.665H26.5V17.335H22.5V18.665Z" fill="#000000" class="bmwfcol"/><path d="M13.5009 11.335C12.5055 11.335 11.8787 11.3506 11.4138 11.4083C10.9146 11.4703 10.6018 11.5809 10.2367 11.7411C9.9426 11.8702 9.68132 12.0836 9.46488 12.2987C9.24258 12.5197 9.03465 12.7758 8.85133 13.0294C8.69678 13.2432 8.55333 13.4641 8.42775 13.674C7.8676 13.4126 7.13606 13.335 6 13.335V14.665C6.8266 14.665 7.30394 14.7138 7.60408 14.7891L7.56947 14.8227L7.54883 14.8414L7.54952 14.8421C7.32967 15.0568 7.12301 15.2725 6.94825 15.4857C6.64545 15.855 6.33594 16.3353 6.33594 16.8845V21.665H10.6659V20.665H16.3359V21.665H20.6659V16.8845C20.6659 16.3353 20.3564 15.855 20.0536 15.4857C19.8644 15.2549 19.6377 15.021 19.3974 14.7887C19.6976 14.7136 20.1748 14.665 21 14.665V13.335C19.8649 13.335 19.1337 13.4125 18.5737 13.6733C18.4482 13.4636 18.3049 13.243 18.1505 13.0294C17.9672 12.7758 17.7593 12.5197 17.537 12.2987C17.3205 12.0836 17.0592 11.8702 16.7651 11.7411C16.4 11.5809 16.0873 11.4703 15.5881 11.4083C15.1231 11.3506 14.4963 11.335 13.5009 11.335ZM8.46504 15.8071C8.5141 15.7721 8.68677 15.6952 9.42767 15.6687C9.93553 15.6505 10.6202 15.654 11.5831 15.6589C12.1271 15.6616 12.7599 15.6648 13.4999 15.6648C14.2399 15.6648 14.8728 15.6616 15.4168 15.6589C16.3797 15.654 17.0643 15.6505 17.5722 15.6687C18.3784 15.6975 18.5118 15.786 18.5452 15.8153C18.7314 15.9978 18.893 16.1678 19.0251 16.3289C19.2891 16.651 19.3359 16.8217 19.3359 16.8845V20.335H17.6659V19.335H9.33594V20.335H7.66594V16.8845C7.66594 16.8217 7.71275 16.651 7.97676 16.3289C8.11083 16.1654 8.27532 15.9927 8.46504 15.8071ZM17.4188 14.3336C16.9066 14.3213 16.2375 14.3247 15.3654 14.329C14.8252 14.3317 14.207 14.3348 13.4999 14.3348C12.7929 14.3348 12.1747 14.3317 11.6344 14.329C10.7635 14.3247 10.095 14.3213 9.58305 14.3336C9.68501 14.1645 9.80221 13.9843 9.92918 13.8086C10.0849 13.5932 10.2464 13.3971 10.4025 13.242C10.5643 13.0811 10.6904 12.9945 10.7713 12.959C11.0548 12.8345 11.2406 12.77 11.5777 12.7282C11.949 12.6821 12.4963 12.665 13.5009 12.665C14.5055 12.665 15.0529 12.6821 15.4242 12.7282C15.7613 12.77 15.9471 12.8345 16.2307 12.959C16.3115 12.9945 16.4375 13.0811 16.5994 13.242C16.7555 13.3971 16.917 13.5932 17.0727 13.8086C17.1997 13.9842 17.3169 14.1645 17.4188 14.3336Z" fill="#000000" class="bmwfcol"/><path d="M2.79821 6.79723C3.12078 6.47466 3.554 6.33496 4.00094 6.33496H28.0009C28.4479 6.33496 28.8811 6.47466 29.2037 6.79724C29.5262 7.11981 29.6659 7.55302 29.6659 7.99996V24C29.6659 24.4469 29.5262 24.8801 29.2037 25.2027C28.8811 25.5253 28.4479 25.665 28.0009 25.665H4.00094C3.554 25.665 3.12078 25.5253 2.79821 25.2027C2.47564 24.8801 2.33594 24.4469 2.33594 24V7.99996C2.33594 7.55302 2.47564 7.11981 2.79821 6.79723ZM3.73866 7.73769C3.71623 7.76012 3.66594 7.8269 3.66594 7.99996V24C3.66594 24.173 3.71623 24.2398 3.73866 24.2622C3.76109 24.2847 3.82788 24.335 4.00094 24.335H28.0009C28.174 24.335 28.2408 24.2847 28.2632 24.2622C28.2856 24.2398 28.3359 24.173 28.3359 24V7.99996C28.3359 7.8269 28.2856 7.76012 28.2632 7.73769C28.2408 7.71526 28.174 7.66496 28.0009 7.66496H4.00094C3.82788 7.66496 3.76109 7.71526 3.73866 7.73769Z" fill="#000000" class="bmwfcol"/><title>driving-license_lt_48</title></svg>