<svg width="48" height="48" viewBox="0 0 32 32" xmlns="http://www.w3.org/2000/svg"><path d="M15.999 15.665C14.6246 15.665 13.442 15.2374 12.6018 14.3972C11.7615 13.557 11.334 12.3743 11.334 11C11.334 9.54581 12.1361 8.06004 12.9071 6.73106C13.0159 6.54358 13.1246 6.35839 13.232 6.17533C13.929 4.98751 14.5737 3.88885 14.8564 2.82862L14.9881 2.33496H17.0099L17.1415 2.82862C17.4243 3.88885 18.069 4.9875 18.766 6.17533C18.8734 6.35839 18.9821 6.54357 19.0909 6.73106C19.8619 8.06004 20.664 9.54581 20.664 11C20.664 12.3743 20.2364 13.557 19.3962 14.3972C18.556 15.2374 17.3734 15.665 15.999 15.665ZM12.664 11C12.664 12.0976 13.0004 12.915 13.5422 13.4567C14.084 13.9985 14.9014 14.335 15.999 14.335C17.0966 14.335 17.914 13.9985 18.4558 13.4567C18.9975 12.915 19.334 12.0976 19.334 11C19.334 9.9603 18.7416 8.77941 17.9405 7.3985C17.8395 7.22445 17.7352 7.04734 17.6295 6.86766C17.032 5.85261 16.3862 4.75547 16.0083 3.66496H15.9896C15.6117 4.75546 14.966 5.85255 14.3685 6.8676C14.2628 7.04731 14.1585 7.22443 14.0575 7.3985C13.2563 8.77941 12.664 9.9603 12.664 11Z" fill="#000000" class="bmwfcol"/><path d="M29.4695 16.5296C29.1811 16.2413 28.7909 15.9206 28.2492 15.7165C27.7029 15.5107 27.0488 15.4409 26.2571 15.5824C24.8316 15.8371 22.9331 16.7816 20.2858 18.9045C20.257 18.8701 20.2265 18.8368 20.1943 18.8046C19.8778 18.4882 19.4502 18.3349 18.999 18.3349L14.0869 18.3349L10.3548 17.3349L10.2045 17.3349C9.61853 17.3345 9.13013 17.3341 8.56046 17.6827C8.29691 17.844 8.02999 18.0692 7.72115 18.3577C7.41179 18.6467 7.03025 19.0283 6.5381 19.5204L2.05859 23.9999L7.72359 29.6649H9.2745L11.2745 27.6649H15.0186C16.002 27.6649 16.7665 27.6649 17.3778 27.6328C17.995 27.6003 18.5014 27.5335 18.9594 27.3808C19.8601 27.0806 20.4661 26.4742 21.3795 25.5602L29.9398 16.9999L29.4695 16.5296ZM19.254 19.7452C19.2875 19.7788 19.3342 19.8511 19.3343 19.9998L19.3341 20.721C18.4736 21.5508 17.8588 21.9291 17.2889 22.1191C16.6598 22.3288 16.0229 22.3349 14.9993 22.3349H10.999V23.6649L15.0589 23.6649C16.0109 23.665 16.8565 23.6652 17.7095 23.3808C18.5973 23.0848 19.4334 22.506 20.4693 21.4702L20.664 21.2754L20.6642 20.3115C23.5029 17.9647 25.3238 17.1002 26.4911 16.8916C27.0744 16.7874 27.4829 16.8491 27.7803 16.9611C27.857 16.99 27.9294 17.0234 27.9981 17.0606L20.5291 24.5297C19.4934 25.5653 19.109 25.929 18.5389 26.119C18.2469 26.2164 17.8782 26.2746 17.3079 26.3046C16.7357 26.3347 16.0062 26.3349 14.999 26.3349H10.7236L8.72359 28.3349H8.2745L3.9395 23.9999L7.46927 20.4701C7.97264 19.9668 8.33824 19.6013 8.62907 19.3296C8.92237 19.0556 9.10971 18.9059 9.25469 18.8171C9.47138 18.6845 9.6009 18.6664 10.1801 18.665L13.9118 19.6649L18.999 19.6649C19.1479 19.6649 19.2204 19.7117 19.254 19.7452Z" fill="#000000" class="bmwfcol"/><title>drop_on_hand_lt_48</title></svg>