<svg width="48" height="48" viewBox="0 0 32 32" xmlns="http://www.w3.org/2000/svg"><path d="M13 30.3851C10.5783 29.8625 8.65756 28.7576 7.24233 27.5645C4.68173 25.2639 3.60596 21.8061 3.60596 16.641C3.60596 12.3141 4.65995 8.64552 6.69394 6.41854C7.55934 5.49635 8.58493 4.7069 10.0727 4.1635C11.5451 3.62571 13.4415 3.33501 16.047 3.33501C19.6283 3.33501 24.2891 4.9261 27.2283 6.00053L27.665 6.16016V15.648C27.665 16.4937 27.6325 17.424 27.4733 18.3102C27.3146 19.1938 27.0222 20.0794 26.4698 20.8041C25.3103 22.3254 23.5096 23.1222 21.7241 23.383C21.5165 23.4133 21.3058 23.4438 21.0941 23.4721L20.3409 23.5729V21.0853C19.7649 21.5635 19.1399 22.0669 18.7143 22.3816C17.4982 23.2811 16.0332 23.977 14.4189 23.977C13.0663 23.977 11.4619 23.3771 10.8407 21.9422C10.0984 20.2278 9.9299 18.405 9.9299 16.641C9.9299 14.9297 10.118 13.0636 11.0134 11.4494C11.403 10.7469 11.9224 10.1877 12.7561 9.8257C13.5552 9.47871 14.5938 9.33501 15.9829 9.33501C17.8245 9.33501 19.597 9.84444 21.2439 10.4755L21.6709 10.6392V22.0454C23.172 21.799 24.5503 21.1285 25.4121 19.9979C25.7885 19.504 26.0257 18.8465 26.1643 18.0751C26.3024 17.3062 26.335 16.4693 26.335 15.648V7.09103C23.3726 6.02175 19.1961 4.66501 16.047 4.66501C13.5304 4.66501 11.8034 4.9473 10.529 5.41277C9.27172 5.87199 8.42183 6.52147 7.67298 7.31877C5.95677 9.20033 4.93596 12.4803 4.93596 16.641C4.93596 21.6478 5.96555 24.6248 8.10769 26.5544C9.3222 27.5765 10.9519 28.5283 13 29.021V30.3851ZM20.3409 11.558C18.8963 11.0337 17.4432 10.665 15.9829 10.665C14.6581 10.665 13.8357 10.8069 13.2858 11.0457C12.7706 11.2694 12.4529 11.5962 12.1764 12.0945C11.4475 13.4087 11.2599 14.9981 11.2599 16.641C11.2599 18.3337 11.4249 19.9441 12.0612 21.4138C12.388 22.1687 13.3479 22.647 14.4189 22.647C15.6466 22.647 16.8379 22.1152 17.9235 21.3123C18.5484 20.8501 19.6649 19.9277 20.3409 19.3443V11.558Z" fill="#000000" class="bmwfcol"/><title>e-mail_lt_48</title></svg>