<svg width="48" height="48" viewBox="0 0 32 32" xmlns="http://www.w3.org/2000/svg"><path d="M12.2134 14.9571C12.6994 15.178 13.3429 15.3029 14.5008 15.3296V16.7035L14.4891 16.6598C13.251 16.6329 12.39 16.4983 11.663 16.1679C10.8648 15.805 10.2879 15.2278 9.58326 14.5228L9.33594 14.2754V11.8218L9.46387 11.6003C9.93208 10.7895 10.2899 10.1699 11.0701 9.67853C11.8135 9.21043 12.9217 8.8701 14.8282 8.35778L15.1993 8.25806L15.471 8.52977C15.7337 8.79246 15.8762 8.93191 16.0199 9.03136C16.1393 9.11406 16.2712 9.17593 16.5061 9.22292C16.9997 9.32166 17.7977 9.33355 19.4787 9.33489C19.5414 9.03729 19.5675 8.81277 19.5664 8.6405C19.5649 8.40179 19.512 8.31166 19.4713 8.26254C19.4152 8.19477 19.2953 8.10329 19.0059 7.99207C18.7161 7.88072 18.3411 7.7795 17.8289 7.64226L13.8933 6.58772L13.0779 8H11.5421L13.2775 4.99431C8.33274 6.21385 4.66594 10.6787 4.66594 16C4.66594 22.2601 9.74079 27.335 16.0009 27.335C17.7775 27.335 19.4585 26.9263 20.9553 26.1978C21.1501 26.239 21.3347 26.2759 21.5008 26.3087V27.4117C19.8374 28.2148 17.9718 28.665 16.0009 28.665C9.00625 28.665 3.33594 22.9947 3.33594 16C3.33594 9.00531 9.00625 3.335 16.0009 3.335C22.9956 3.335 28.6659 9.00531 28.6659 16C28.6659 16.5075 28.6361 17.0081 28.578 17.5H28.0008C27.7691 17.5 27.5081 17.5097 27.2337 17.5292C27.3011 17.0291 27.3359 16.5186 27.3359 16C27.3359 14.4102 27.0086 12.8968 26.4178 11.5236L24.6063 13.3351L24.6659 13.3351V15.1783L23.9175 16.4746C23.5757 16.1392 23.2291 15.8584 22.8729 15.6239L23.3359 14.8219V14.665L21.9262 14.665L19.6168 10.6651C17.8986 10.6649 16.9054 10.6591 16.2453 10.5271C15.8552 10.4491 15.5496 10.3234 15.2628 10.1249C15.1018 10.0134 14.9521 9.88166 14.8057 9.74173C13.0958 10.2082 12.283 10.4865 11.7788 10.804C11.3269 11.0885 11.115 11.4059 10.6659 12.1788V13.7241C11.3159 14.3704 11.7052 14.7261 12.2134 14.9571ZM14.6659 4.74279L14.666 5.41785L18.2048 6.36608C18.6805 6.49351 19.1213 6.61162 19.4829 6.75056C19.8529 6.89271 20.2243 7.08649 20.4957 7.41424C20.7825 7.76064 20.8935 8.17628 20.8964 8.63196C20.8988 9.00197 20.8305 9.4239 20.7128 9.90352L22.6941 13.335L22.7255 13.335L25.7858 10.2747C23.8179 6.91855 20.1726 4.665 16.0009 4.665C15.5493 4.665 15.1038 4.69141 14.6659 4.74279Z" fill="#000000" class="bmwfcol"/><path d="M18.0009 16.335H16.3359V18C16.3359 19.9511 16.9892 21.6287 18.1807 22.8202C19.3722 24.0117 21.0498 24.665 23.0009 24.665H23.3359V28H24.6659V25.665H25.0009C26.3521 25.665 27.5297 25.2117 28.3712 24.3702C29.2127 23.5287 29.6659 22.3511 29.6659 21V19.335H28.0009C26.6498 19.335 25.4722 19.7883 24.6307 20.6298C24.5453 20.7152 24.4639 20.8041 24.3865 20.8962C24.0885 19.8385 23.5577 18.9163 22.8212 18.1798C21.6297 16.9883 19.9521 16.335 18.0009 16.335ZM24.6659 24C24.6659 22.9511 25.0127 22.1287 25.5712 21.5702C26.1297 21.0117 26.9521 20.665 28.0009 20.665H28.3359V21C28.3359 22.0489 27.9892 22.8713 27.4307 23.4298C26.8722 23.9883 26.0498 24.335 25.0009 24.335H24.6659V24ZM17.6659 18V17.665H18.0009C19.6498 17.665 20.9722 18.2117 21.8807 19.1202C22.7892 20.0287 23.3359 21.3511 23.3359 23V23.335H23.0009C21.3521 23.335 20.0297 22.7883 19.1212 21.8798C18.2127 20.9713 17.6659 19.6489 17.6659 18Z" fill="#000000" class="bmwfcol"/><title>earth_and_plant_lt_48</title></svg>