<svg width="48" height="48" viewBox="0 0 32 32" xmlns="http://www.w3.org/2000/svg"><path d="M16.0009 3.33496C22.1398 3.33496 27.2586 7.70261 28.4192 13.5H27.0593C26.9053 12.8157 26.6894 12.1548 26.4177 11.5235L24.6062 13.335L24.4508 13.5H21.2536L19.6168 10.665C17.8986 10.6648 16.9054 10.6591 16.2453 10.527C15.8552 10.449 15.5496 10.3234 15.2628 10.1248C15.1018 10.0133 14.9521 9.88162 14.8057 9.74169C13.0958 10.2082 12.283 10.4865 11.7788 10.804C11.3269 11.0885 11.115 11.4058 10.6659 12.1787V13.7241C11.3159 14.3703 11.7052 14.7261 12.2134 14.9571C12.7653 15.2079 13.5202 15.335 15.0008 15.335L15.511 15.335L17.6518 23.3247C17.9536 23.3048 18.0979 23.2478 18.2876 23.0877C18.573 22.8469 18.9251 22.3828 19.501 21.4396V23.6438L19.4923 23.6583L19.4856 23.6694C19.434 23.7553 19.3852 23.8408 19.3389 23.9258C19.274 23.9907 19.2095 24.05 19.1453 24.1042C18.4796 24.6659 17.8453 24.6655 17.199 24.665L16.6341 24.665L14.4891 16.6598C13.251 16.6328 12.39 16.4983 11.663 16.1679C10.8648 15.805 10.2879 15.2278 9.58327 14.5228L9.33594 14.2754V11.8217L9.46387 11.6003C9.93208 10.7894 10.2898 10.1698 11.0701 9.67849C11.8135 9.21039 12.9217 8.87006 14.8282 8.35774L15.1993 8.25802L15.471 8.52973C15.7337 8.79242 15.8762 8.93187 16.0199 9.03132C16.1393 9.11402 16.2712 9.17589 16.5061 9.22288C16.9997 9.32162 17.7977 9.33351 19.4787 9.33485C19.5414 9.03725 19.5675 8.81273 19.5664 8.64046C19.5649 8.40175 19.512 8.31161 19.4713 8.26249C19.4152 8.19473 19.2953 8.10325 19.0059 7.99203C18.7161 7.88068 18.3411 7.77946 17.8288 7.64222L13.8933 6.58769L13.0779 7.99996H11.5422L13.2775 4.99426C8.33278 6.21377 4.66594 10.6786 4.66594 16C4.66594 22.2601 9.74079 27.335 16.0009 27.335C16.86 27.335 17.6966 27.2394 18.501 27.0583V28.4183C17.6928 28.5801 16.8568 28.665 16.0009 28.665C9.00625 28.665 3.33594 22.9946 3.33594 16C3.33594 9.00527 9.00625 3.33496 16.0009 3.33496ZM16.0009 4.66496C15.5493 4.66496 15.1038 4.69138 14.666 4.74275L14.666 5.41781L18.2048 6.36603C18.6805 6.49347 19.1213 6.61158 19.4829 6.75052C19.8529 6.89267 20.2243 7.08645 20.4957 7.4142C20.7825 7.7606 20.8935 8.17624 20.8964 8.63192C20.8988 9.00193 20.8305 9.42386 20.7128 9.90348L22.6941 13.335L22.7254 13.335L25.7858 10.2746C23.8178 6.91847 20.1725 4.66496 16.0009 4.66496Z" fill="#000000" class="bmwfcol"/><path d="M29.6657 15.335H20.3357V16C20.3357 17.2641 20.3917 18.1547 21.0418 19.1261C21.5399 19.8702 22.3828 20.6507 23.7212 21.7899C22.3316 23.1629 21.4782 24.0528 20.9878 24.8704C20.3938 25.8607 20.3357 26.7315 20.3357 28V28.665H29.6657V28C29.6657 26.7363 29.612 25.8617 28.9611 24.8982C28.4641 24.1625 27.6187 23.3808 26.2725 22.2165C27.6665 20.8398 28.5221 19.9485 29.0135 19.1296C29.6076 18.1393 29.6657 17.2684 29.6657 16V15.335ZM22.1283 25.5545C22.5309 24.8834 23.2753 24.1 24.7404 22.6528C26.5363 24.1939 27.406 24.9722 27.859 25.6427C28.1862 26.1269 28.2949 26.5529 28.3253 27.335H21.6759C21.7058 26.5421 21.8119 26.0821 22.1283 25.5545ZM27.873 18.4453C27.4702 19.1166 26.7253 19.9002 25.2588 21.3481C23.468 19.8411 22.5992 19.0618 22.1471 18.3863C21.8174 17.8937 21.7072 17.4534 21.6763 16.665H28.3256C28.2957 17.4578 28.1895 17.9178 27.873 18.4453Z" fill="#000000" class="bmwfcol"/><title>earth_and_hourglass_lt_48</title></svg>