<svg width="48" height="48" viewBox="0 0 32 32" xmlns="http://www.w3.org/2000/svg"><path d="M21.4297 12.9286C21.6562 12.7021 21.8993 12.5306 22.1547 12.4008L20.7128 9.90348C20.8305 9.42386 20.8988 9.00193 20.8964 8.63192C20.8935 8.17624 20.7825 7.7606 20.4957 7.4142C20.2243 7.08645 19.8529 6.89267 19.4829 6.75052C19.1213 6.61158 18.6805 6.49347 18.2048 6.36603L14.666 5.41781L14.666 4.74275C15.1038 4.69138 15.5493 4.66496 16.0009 4.66496C20.853 4.66496 24.9931 7.71365 26.61 12H28.0213C26.3468 6.96546 21.5978 3.33496 16.0009 3.33496C9.00625 3.33496 3.33594 9.00527 3.33594 16C3.33594 22.9946 9.00625 28.665 16.0009 28.665C17.2151 28.665 18.3894 28.4941 19.501 28.1751V26.7843C18.3987 27.1418 17.2224 27.335 16.0009 27.335C9.74079 27.335 4.66594 22.2601 4.66594 16C4.66594 10.6786 8.33278 6.21377 13.2775 4.99426L11.5422 7.99996H13.0779L13.8933 6.58769L17.8288 7.64222C18.3411 7.77946 18.7161 7.88068 19.0059 7.99203C19.2953 8.10325 19.4152 8.19473 19.4713 8.26249C19.512 8.31161 19.5649 8.40175 19.5664 8.64046C19.5675 8.81273 19.5414 9.03725 19.4787 9.33485C17.7977 9.33351 16.9997 9.32162 16.5061 9.22288C16.2712 9.17589 16.1393 9.11402 16.0199 9.03132C15.8762 8.93187 15.7337 8.79242 15.471 8.52973L15.1993 8.25802L14.8282 8.35774C12.9217 8.87006 11.8135 9.21038 11.0701 9.67849C10.2898 10.1698 9.93208 10.7894 9.46387 11.6003L9.33594 11.8217V14.2754L9.58326 14.5228C10.2879 15.2278 10.8648 15.805 11.663 16.1679C12.39 16.4983 13.251 16.6328 14.4891 16.6598L16.6341 24.665L17.199 24.665C17.4671 24.6652 17.7331 24.6654 18.0002 24.6254L17.668 23.3242L17.6682 23.3236C17.6628 23.3239 17.6573 23.3243 17.6518 23.3247L15.511 15.335L15.0008 15.335C13.5202 15.335 12.7653 15.2079 12.2134 14.9571C11.7052 14.7261 11.3159 14.3703 10.6659 13.7241V12.1787C11.115 11.4058 11.3269 11.0885 11.7788 10.804C12.283 10.4865 13.0958 10.2082 14.8057 9.74169C14.9521 9.88162 15.1018 10.0133 15.2628 10.1248C15.5496 10.3234 15.8552 10.449 16.2453 10.527C16.9054 10.6591 17.8986 10.6648 19.6168 10.665L21.1218 13.2717C21.2111 13.1592 21.3131 13.0452 21.4297 12.9286Z" fill="#000000" class="bmwfcol"/><path d="M25.0007 13.3349C24.2496 13.3349 23.572 13.5882 23.0805 14.0797C22.589 14.5712 22.3357 15.2488 22.3357 15.9999V22.1893C21.3707 22.9407 20.8357 24.1186 20.8357 25.4999C20.8357 26.7011 21.239 27.7537 21.993 28.5077C22.747 29.2617 23.7996 29.6649 25.0007 29.6649C26.2019 29.6649 27.2545 29.2617 28.0085 28.5077C28.7625 27.7537 29.1657 26.7011 29.1657 25.4999C29.1657 24.1186 28.6308 22.9407 27.6657 22.1893V15.9999C27.6657 15.2488 27.4125 14.5712 26.921 14.0797C26.4295 13.5882 25.7519 13.3349 25.0007 13.3349ZM23.6657 15.9999C23.6657 15.5511 23.8125 15.2287 24.021 15.0202C24.2295 14.8117 24.5519 14.6649 25.0007 14.6649C25.4496 14.6649 25.772 14.8117 25.9805 15.0202C26.189 15.2287 26.3357 15.5511 26.3357 15.9999V22.9019L26.6469 23.0975C27.3687 23.551 27.8357 24.3698 27.8357 25.4999C27.8357 26.3988 27.539 27.0962 27.068 27.5672C26.597 28.0382 25.8996 28.3349 25.0007 28.3349C24.1019 28.3349 23.4045 28.0382 22.9335 27.5672C22.4625 27.0962 22.1657 26.3988 22.1657 25.4999C22.1657 24.3698 22.6328 23.551 23.3546 23.0975L23.6657 22.9019V15.9999Z" fill="#000000" class="bmwfcol"/><title>earth_and_thermometer_lt_48</title></svg>