<svg width="48" height="48" viewBox="0 0 32 32" xmlns="http://www.w3.org/2000/svg"><path d="M2.33496 18.335H27.2754L30.9404 22L27.2754 25.665H2.33496V18.335ZM3.66496 19.665V24.335H12.7245L15.0595 22L12.7245 19.665H3.66496ZM14.6054 19.665L16.9404 22L14.6054 24.335H19.7245L22.0595 22L19.7245 19.665H14.6054ZM26.7245 24.335L29.0595 22L26.7245 19.665H21.6054L23.9404 22L21.6054 24.335H26.7245Z" fill="#000000" class="bmwfcol"/><path d="M6.08817 14.3493H7.48582V11.887H9.89505V10.5106H7.48582V8.04828H6.08817V10.5106H3.67894V11.887H6.08817V14.3493Z" fill="#000000" class="bmwfcol"/><path d="M11.5931 15.4H12.9908V11.0573C13.1902 10.9586 13.4182 10.8497 13.6485 10.7604C13.9264 10.6526 14.1874 10.5816 14.3934 10.5816C14.542 10.5816 14.6442 10.5925 14.7215 10.6195C14.7906 10.6436 14.8455 10.6827 14.8956 10.7578C14.9348 10.8165 14.9663 10.9089 14.9859 11.0554C15.0052 11.2005 15.0106 11.3802 15.0106 11.6021V15.4H16.4083V11.0741C16.5878 10.9779 16.8029 10.8663 17.0249 10.7728C17.2963 10.6585 17.5551 10.5816 17.7578 10.5816C18.0431 10.5816 18.187 10.626 18.286 10.7645C18.3423 10.8421 18.3813 10.9575 18.4033 11.1253C18.4252 11.2923 18.4281 11.4895 18.4281 11.7188V15.4H19.8258V11.6764C19.8258 10.7864 19.7453 10.196 19.3743 9.76319C19.0144 9.3536 18.5644 9.21575 17.917 9.21575C17.5407 9.21575 17.1551 9.32675 16.8071 9.46788C16.5337 9.57872 16.2753 9.71164 16.0534 9.83309C15.9962 9.74821 15.9232 9.6626 15.8378 9.59135C15.5263 9.32985 15.1786 9.21575 14.5951 9.21575C14.27 9.21575 13.9267 9.30371 13.6057 9.41845C13.3931 9.49446 13.1844 9.58442 12.9908 9.67341V9.39617H11.5931V15.4Z" fill="#000000" class="bmwfcol"/><path d="M21.6881 15.4H23.0857V6.99756H21.6881V15.4Z" fill="#000000" class="bmwfcol"/><path d="M24.9428 13.9139V15.2782L25.1061 15.3118C25.518 15.3962 26.416 15.5804 27.1593 15.5804C27.9945 15.5804 28.567 15.451 29.0212 15.1043C29.472 14.751 29.6624 14.2503 29.6624 13.6929C29.6624 13.2377 29.5004 12.7814 29.2249 12.4933C28.9539 12.2223 28.6221 12.0805 28.0672 11.9098L27.0473 11.6017C26.7169 11.5026 26.5376 11.4468 26.4184 11.3702C26.3324 11.3165 26.2874 11.2299 26.2874 11.0502C26.2874 10.9573 26.3007 10.8896 26.3252 10.8358C26.3488 10.7838 26.3881 10.733 26.4592 10.6817C26.57 10.5986 26.753 10.5497 27.2336 10.5497C27.7978 10.5497 28.7575 10.7856 29.191 10.894L29.4395 10.9561V9.59274L29.2931 9.55206C28.9074 9.44491 27.8987 9.21575 27.2124 9.21575C26.4327 9.21575 25.9093 9.32305 25.4737 9.67391C25.0299 10.0314 24.8791 10.5336 24.8791 11.0502C24.8791 11.5325 25.028 11.9845 25.3334 12.2772C25.593 12.5244 25.9323 12.6633 26.4426 12.8228L27.4319 13.1206C27.6136 13.1741 27.7653 13.2197 27.8896 13.267C28.0137 13.3141 28.0932 13.3567 28.1411 13.3969C28.2161 13.4668 28.2541 13.5561 28.2541 13.7035C28.2541 13.8054 28.2352 13.8803 28.2035 13.9395C28.1721 13.9983 28.1213 14.0543 28.0382 14.1084C27.8602 14.2213 27.6204 14.2465 27.223 14.2465C26.5469 14.2465 25.6976 14.0712 25.1836 13.9641L24.9428 13.9139Z" fill="#000000" class="bmwfcol"/><title>eco-pro-mode-miles_lt_48</title></svg>