<svg width="48" height="48" viewBox="0 0 32 32" xmlns="http://www.w3.org/2000/svg"><path d="M2.33496 18.335H27.2754L30.9404 22L27.2754 25.665H2.33496V18.335ZM3.66496 19.665V24.335H12.7245L15.0595 22L12.7245 19.665H3.66496ZM14.6054 19.665L16.9404 22L14.6054 24.335H19.7245L22.0595 22L19.7245 19.665H14.6054ZM26.7245 24.335L29.0595 22L26.7245 19.665H21.6054L23.9404 22L21.6054 24.335H26.7245Z" fill="#000000" class="bmwfcol"/><path d="M8.91763 14.3493H10.3153V11.887H12.7245V10.5106H10.3153V8.04828H8.91763V10.5106H6.5084V11.887H8.91763V14.3493Z" fill="#000000" class="bmwfcol"/><path d="M14.7682 15.4H16.1659V12.8556L18.4558 15.4H20.3425L17.4393 12.1806L20.155 9.39617H18.2376L16.1659 11.5239V6.99756H14.7682V15.4Z" fill="#000000" class="bmwfcol"/><path d="M21.1748 15.4H22.5724V11.0573C22.7718 10.9586 22.9999 10.8497 23.2301 10.7604C23.508 10.6526 23.769 10.5816 23.975 10.5816C24.1236 10.5816 24.2259 10.5925 24.3031 10.6195C24.3723 10.6436 24.4272 10.6827 24.4773 10.7578C24.5164 10.8165 24.548 10.9089 24.5675 11.0554C24.5868 11.2005 24.5923 11.3802 24.5923 11.6021V15.4H25.9899V11.0741C26.1694 10.9779 26.3846 10.8663 26.6065 10.7728C26.878 10.6585 27.1368 10.5816 27.3395 10.5816C27.6248 10.5816 27.7676 10.6246 27.8666 10.7631C27.923 10.8407 27.9629 10.9575 27.9849 11.1253C28.0069 11.2923 28.0098 11.4895 28.0098 11.7188V15.4H29.4074V11.6764C29.4074 10.7864 29.327 10.196 28.956 9.76319C28.5961 9.3536 28.1461 9.21575 27.4987 9.21575C27.1223 9.21575 26.7367 9.32675 26.3887 9.46788C26.1154 9.57872 25.857 9.71164 25.6351 9.83309C25.5778 9.74821 25.5048 9.6626 25.4194 9.59135C25.108 9.32985 24.7602 9.21575 24.1767 9.21575C23.8517 9.21575 23.5083 9.30371 23.1873 9.41845C22.9747 9.49446 22.766 9.58442 22.5724 9.67341V9.39617H21.1748V15.4Z" fill="#000000" class="bmwfcol"/><title>eco-pro-mode-km_lt_48</title></svg>