<svg width="48" height="48" viewBox="0 0 32 32" xmlns="http://www.w3.org/2000/svg"><path d="M19.802 4.33496L18.3694 5.66496H5.66496V26.335H17.0178C17.8488 26.3324 18.3581 26.1498 18.6907 25.7651C19.0508 25.3486 19.335 24.5494 19.335 23V19.335H23C24.5495 19.335 25.3486 19.0507 25.7651 18.6907C26.1493 18.3585 26.3319 17.8502 26.335 17.0212V13.2287C26.4499 13.1287 26.5611 13.0329 26.6721 12.9373C26.979 12.6731 27.2847 12.4098 27.665 12.0598V17.0995C27.6652 18.2583 27.6654 19.116 27.3749 19.9147C27.0701 20.7529 26.4725 21.4678 25.4702 22.4702L22.4702 25.4702C21.4678 26.4725 20.7529 27.0701 19.9147 27.3749C19.116 27.6654 18.2584 27.6652 17.0995 27.665H4.33496V4.33496H19.802ZM23 20.665H20.665V23C20.665 24.0802 20.5405 24.9678 20.2645 25.6719C20.6024 25.4198 21.0012 25.0583 21.5297 24.5297L24.5297 21.5297C25.0583 21.0011 25.4198 20.6024 25.6719 20.2645C24.9679 20.5404 24.0802 20.665 23 20.665Z" fill="#000000" class="bmwfcol"/><path d="M23.3865 3.99102C23.047 4.09085 22.7668 4.2927 22.5297 4.52976L11.335 15.7246V20.665H16.2754L17.3965 19.5439C20.7543 16.1859 24.1121 12.828 27.4702 9.47024C27.7076 9.23282 27.9099 8.95238 28.0099 8.61275C28.1129 8.263 28.0895 7.91172 27.9753 7.56973C27.7639 6.93725 27.2182 6.27783 26.4702 5.52978C25.7217 4.78129 25.0617 4.23632 24.4289 4.02543C24.0869 3.91148 23.7358 3.88827 23.3865 3.99102ZM23.4702 5.47024C23.6302 5.3102 23.7841 5.21246 24.0084 5.28722C24.3131 5.38875 24.7782 5.71865 25.5297 6.47022C26.2817 7.22222 26.6121 7.68673 26.7138 7.9912C26.7889 8.21571 26.6898 8.36967 26.5298 8.52975L24.9997 10.0597L21.9402 7.00022L23.4702 5.47024ZM12.665 16.2754L20.9997 7.94067L24.0592 11.0001L15.7245 19.335H12.665V16.2754Z" fill="#000000" class="bmwfcol"/><title>edit-sheet_lt_48</title></svg>