<svg width="48" height="48" viewBox="0 0 32 32" xmlns="http://www.w3.org/2000/svg"><path d="M25.4702 6.52987C24.8332 5.8929 24.2707 5.39351 23.7563 5.03343C23.2432 4.67426 22.7435 4.42901 22.2343 4.34414C21.1445 4.16252 20.3077 4.75195 19.5298 5.52987L4.33496 20.7246V27.6651H11.2754L26.4702 12.4703C27.2481 11.6924 27.8376 10.8555 27.6559 9.76577C27.5711 9.25656 27.3258 8.75685 26.9666 8.24374C26.6066 7.72934 26.1072 7.16685 25.4702 6.52987ZM23.0593 14.0003L10.7245 26.3351H5.66496V21.2755L17.9998 8.94073L23.0593 14.0003ZM23.9998 13.0598L18.9402 8.00028L20.4702 6.47032C21.1923 5.74824 21.6054 5.58768 22.0157 5.65605C22.2564 5.69618 22.5692 5.82594 22.9936 6.12301C23.4167 6.41918 23.9167 6.8573 24.5298 7.47032C25.1428 8.08335 25.5809 8.58335 25.8771 9.00645C26.1741 9.43084 26.3039 9.74364 26.344 9.98442C26.4124 10.3946 26.2518 10.8078 25.5298 11.5299L23.9998 13.0598Z" fill="#000000" class="bmwfcol"/><title>edit_lt_48</title></svg>