<svg width="48" height="48" viewBox="0 0 32 32" xmlns="http://www.w3.org/2000/svg"><path d="M5.02717 14.0052H2.46761V19.9999H4.97523C5.71303 19.9999 6.22172 19.8717 6.59334 19.5614C6.9853 19.2469 7.17121 18.767 7.17121 18.1972C7.17121 17.7829 7.0574 17.4426 6.87965 17.2026C6.77107 17.0578 6.64973 16.9438 6.52126 16.8453C6.58729 16.7397 6.65856 16.6249 6.72664 16.513C6.90175 16.2009 7.04507 15.8979 7.04507 15.4963C7.04507 14.966 6.80671 14.5199 6.39361 14.265C6.03123 14.0493 5.60092 14.0052 5.02717 14.0052ZM3.57993 16.4019V15.0879H4.98265C5.1694 15.0879 5.32256 15.0935 5.448 15.1095C5.57434 15.1256 5.66004 15.1509 5.71842 15.1825C5.79733 15.2233 5.84426 15.2697 5.87098 15.3186C5.89906 15.37 5.91791 15.4433 5.91791 15.5557C5.91791 15.7365 5.85337 15.8825 5.72265 16.1077C5.66705 16.2022 5.60712 16.3011 5.54567 16.4019H3.57993ZM3.57993 18.9173V17.4845H5.14589C5.45476 17.4845 5.63376 17.522 5.76775 17.613C5.87198 17.6845 5.9375 17.7623 5.9789 17.8497C6.0212 17.939 6.04405 18.0505 6.04405 18.1972C6.04405 18.4696 5.96828 18.6361 5.82772 18.7418C5.68034 18.8507 5.45252 18.9173 4.98265 18.9173H3.57993Z" fill="#000000" class="bmwfcol"/><path d="M9.4872 14.0052H8.16275V19.9999H9.26765V16.1248L10.4882 18.8869H11.4388L12.6593 16.1247V19.9999H13.7642V14.0052H12.4471L10.9672 17.3471L9.4872 14.0052Z" fill="#000000" class="bmwfcol"/><path d="M15.5957 14.0052H14.4602L15.7005 19.9999H17.0019L17.9193 16.725L18.8432 19.9999H20.1445L21.3768 14.0052H20.2488L19.4018 18.1183L18.4781 14.8511H17.3664L16.449 18.1178L15.5957 14.0052Z" fill="#000000" class="bmwfcol"/><path d="M9.11843 22.0052H6.97439V27.9999H9.05907C9.83782 27.9999 10.4048 27.8701 10.8745 27.4174C11.4304 26.8861 11.6557 26.0389 11.6557 24.9803C11.6557 23.9337 11.4545 23.1093 10.9528 22.5992C10.4962 22.1343 9.93989 22.0052 9.11843 22.0052ZM8.08671 26.9099V23.0953H9.11843C9.63853 23.0953 9.93517 23.1573 10.1548 23.4051C10.422 23.7167 10.5286 24.2651 10.5286 24.9803C10.5286 25.7056 10.4014 26.2307 10.1734 26.508C10.0558 26.651 9.92761 26.7475 9.76209 26.8108C9.5923 26.8758 9.37256 26.9099 9.06649 26.9099H8.08671Z" fill="#000000" class="bmwfcol"/><path d="M16.7136 22.0052H15.6013V23.4515H16.7136V22.0052Z" fill="#000000" class="bmwfcol"/><path d="M4.15903 23.556C3.32756 23.556 2.7971 23.854 2.51548 24.3556C2.25083 24.827 2.21533 25.3774 2.21533 25.8633C2.21533 26.54 2.28154 26.9909 2.54526 27.3908C2.69926 27.6239 2.8934 27.8136 3.17604 27.9414C3.45365 28.0669 3.80224 28.1261 4.25549 28.1261C4.77205 28.1261 5.32883 28.034 5.64993 27.9743L5.81335 27.9439V26.8915L5.57677 26.9355C5.25511 26.9953 4.75354 27.0879 4.30001 27.0879C4.04091 27.0879 3.85697 27.0591 3.72238 27.0044C3.59447 26.9524 3.50402 26.8742 3.43341 26.7559C3.36539 26.6396 3.33053 26.5081 3.31529 26.3675H5.90548L5.93607 26.2044C5.98305 25.9538 6.01369 25.5779 6.01369 25.3662C6.01369 25.0986 6.00168 24.651 5.75142 24.2704C5.46783 23.8282 4.96425 23.556 4.15903 23.556ZM3.44344 24.892C3.50996 24.7737 3.59103 24.6991 3.6952 24.6506C3.80443 24.5998 3.95208 24.5719 4.15903 24.5719C4.52535 24.5719 4.73787 24.6816 4.84228 24.8556C4.90876 24.963 4.93105 25.1096 4.93105 25.2771C4.93105 25.3143 4.92959 25.3525 4.92739 25.3888H3.31661C3.32203 25.3366 3.32952 25.2819 3.33935 25.2271C3.36366 25.0917 3.39953 24.9718 3.44344 24.892Z" fill="#000000" class="bmwfcol"/><path d="M23.5626 23.556C22.7311 23.556 22.2007 23.854 21.9191 24.3556C21.6544 24.827 21.6189 25.3774 21.6189 25.8633C21.6189 26.54 21.6851 26.9909 21.9489 27.3908C22.1028 27.6239 22.297 27.8136 22.5796 27.9414C22.8572 28.0669 23.2058 28.1261 23.6591 28.1261C24.1756 28.1261 24.7324 28.034 25.0535 27.9743L25.2169 27.9439V26.8915L24.9804 26.9355C24.6587 26.9953 24.1571 27.0879 23.7036 27.0879C23.4445 27.0879 23.2606 27.0591 23.126 27.0044C22.9981 26.9524 22.9076 26.8742 22.837 26.7559C22.769 26.6396 22.7341 26.5081 22.7189 26.3675H25.3091L25.3397 26.2044C25.3866 25.9538 25.4173 25.5779 25.4173 25.3662C25.4173 25.0985 25.4053 24.6509 25.1549 24.2703C24.8713 23.8281 24.3678 23.556 23.5626 23.556ZM22.847 24.892C22.9135 24.7737 22.9946 24.6991 23.0988 24.6506C23.208 24.5998 23.3557 24.5719 23.5626 24.5719C23.9289 24.5719 24.1415 24.6816 24.2459 24.8556C24.3123 24.963 24.3346 25.1096 24.3346 25.2771C24.3346 25.3143 24.3332 25.3525 24.331 25.3888H22.7202C22.7256 25.3366 22.7331 25.2819 22.7429 25.2271C22.7672 25.0917 22.8031 24.9719 22.847 24.892Z" fill="#000000" class="bmwfcol"/><path d="M15.0869 24.6653V23.5604L14.8568 23.5954C14.5022 23.6494 14.1663 23.7451 13.9219 23.8591C13.8418 23.8991 13.769 23.9392 13.6994 23.9809V23.6822H12.6019V27.9999H13.6994V25.1755C13.8435 25.0809 14.0113 24.9861 14.1933 24.9122C14.4253 24.8138 14.6484 24.744 14.9222 24.6949L15.0869 24.6653Z" fill="#000000" class="bmwfcol"/><path d="M16.7062 23.6822H15.6087V27.9999H16.7062V23.6822Z" fill="#000000" class="bmwfcol"/><path d="M18.3037 23.6822H17.1212L18.6586 27.9999H19.9276L21.465 23.6822H20.3048L19.3042 26.5539L18.3037 23.6822Z" fill="#000000" class="bmwfcol"/><path d="M25.1308 16L29.7691 3.17647L28.8235 2.23083L12.335 8.19476V9.76876L20.1106 11.8894L20.4134 13H21.792L21.1937 10.8062L14.2562 8.91416L28.0892 3.91075L23.7165 16H25.1308Z" fill="#000000" class="bmwfcol"/><title>edrive_lt_48</title></svg>