<svg width="48" height="48" viewBox="0 0 32 32" xmlns="http://www.w3.org/2000/svg"><path d="M23.9612 3.01205L23.3803 2.35156C21.9292 2.55791 20.5801 3.07164 19.6116 4.2253C18.7815 5.21406 18.3359 6.51727 18.3359 7.99959C18.3359 10.3404 19.4519 12.2064 21.3359 13.0985V26.9996C21.3359 27.7507 21.5892 28.4283 22.0807 28.9198C22.5722 29.4113 23.2498 29.6646 24.0009 29.6646C24.7521 29.6646 25.4297 29.4113 25.9212 28.9198C26.4127 28.4283 26.6659 27.7507 26.6659 26.9996V13.0985C28.55 12.2064 29.6659 10.3404 29.6659 7.99959C29.6659 6.09432 28.8764 4.49301 27.407 3.31303L26.5692 3.59494L25.4267 7.859C25.3119 8.28862 25.1548 8.38047 25.0357 8.41942C24.8401 8.4834 24.5006 8.47483 23.9212 8.31955C23.3417 8.16425 23.0425 8.00171 22.9047 7.84821C22.7381 7.66257 22.7881 7.38766 22.8475 7.16849L23.9612 3.01205ZM19.6659 7.99959C19.6659 6.78682 20.0274 5.79848 20.6302 5.08046C21.0634 4.5644 21.6388 4.16696 22.3393 3.92627L21.5633 6.82227C21.3656 7.55186 21.4482 8.21669 21.9151 8.73672C22.328 9.19665 22.9578 9.43831 23.5769 9.60422C24.196 9.77014 24.8618 9.87563 25.4491 9.68352C26.113 9.46639 26.5166 8.93201 26.7116 8.2023L27.5034 5.24719C28.0295 5.95222 28.3359 6.88159 28.3359 7.99959C28.3359 10.071 27.2113 11.4968 25.3359 12.1963V26.9996C25.3359 27.4485 25.1892 27.7709 24.9807 27.9794C24.7722 28.1879 24.4498 28.3346 24.0009 28.3346C23.5521 28.3346 23.2297 28.1879 23.0212 27.9794C22.8127 27.7709 22.6659 27.4485 22.6659 26.9996V12.1963C20.7906 11.4968 19.6659 10.071 19.6659 7.99959Z" fill="#000000" class="bmwfcol"/><path d="M13.815 4.33497H7.43811L4.33594 15.9124V17.665H8.86634L6.18686 27.665H9.16775L16.6657 14.6782L16.6657 13.335H11.6656V12.3566L13.815 4.33497ZM5.66594 16.0875L8.45865 5.66497H12.0817L10.3356 12.1815V14.665H15.1376L8.39988 26.335H7.92015L10.5996 16.335H5.66594V16.0875Z" fill="#000000" class="bmwfcol"/><title>electrical-repair_lt_48</title></svg>