<svg width="48" height="48" viewBox="0 0 32 32" xmlns="http://www.w3.org/2000/svg"><path d="M13.665 8.33496H11.9518L11.8013 8.41848C9.13915 9.8957 7.33496 12.7367 7.33496 16C7.33496 19.2632 9.13915 22.1042 11.8013 23.5814L11.9518 23.665H13.665V19.665H18.335V23.665H20.0481L20.1986 23.5814C22.8608 22.1042 24.665 19.2632 24.665 16C24.665 12.7367 22.8608 9.8957 20.1986 8.41848L20.0481 8.33496H18.335V12.335H13.665V8.33496ZM8.66496 16C8.66496 13.2994 10.1242 10.9387 12.3001 9.66496H12.335V13.665H19.665V9.66496H19.6998C21.8758 10.9387 23.335 13.2994 23.335 16C23.335 18.7006 21.8758 21.0612 19.6998 22.335H19.665V18.335H12.335V22.335H12.3001C10.1242 21.0612 8.66496 18.7006 8.66496 16Z" fill="#000000" class="bmwfcol"/><path d="M16 3.33496C9.00527 3.33496 3.33496 9.00527 3.33496 16C3.33496 22.9946 9.00527 28.665 16 28.665C22.9946 28.665 28.665 22.9946 28.665 16C28.665 9.00527 22.9946 3.33496 16 3.33496ZM4.66496 16C4.66496 9.73981 9.73981 4.66496 16 4.66496C22.2601 4.66496 27.335 9.73981 27.335 16C27.335 22.2601 22.2601 27.335 16 27.335C9.73981 27.335 4.66496 22.2601 4.66496 16Z" fill="#000000" class="bmwfcol"/><title>electric-motor-rotor_lt_48</title></svg>