<svg width="48" height="48" viewBox="0 0 32 32" xmlns="http://www.w3.org/2000/svg"><path d="M15.5985 22.9318L14.7019 19.5858L15.7406 19.8641L16.9915 15.1956L13.5869 17.1613H12.4648L14.6516 9H16.0286L14.3752 15.1704L17.5541 13.335H18.867L17.0253 20.2083L18.0479 20.4823L15.5985 22.9318Z" fill="#000000" class="bmwfcol"/><path d="M16 3.33496C12.2488 3.33496 9.07123 4.58824 6.82973 6.82973C4.58824 9.07123 3.33496 12.2488 3.33496 16C3.33496 19.7511 4.58824 22.9287 6.82973 25.1702C9.07123 27.4117 12.2488 28.665 16 28.665C19.7511 28.665 22.9287 27.4117 25.1702 25.1702C27.4117 22.9287 28.665 19.7511 28.665 16C28.665 12.2488 27.4117 9.07123 25.1702 6.82973C22.9287 4.58824 19.7511 3.33496 16 3.33496ZM4.66496 16C4.66496 12.5511 5.81169 9.72869 7.77019 7.77019C9.72869 5.81169 12.5511 4.66496 16 4.66496C19.4488 4.66496 22.2712 5.81169 24.2297 7.77019C26.1882 9.72869 27.335 12.5511 27.335 16C27.335 19.4488 26.1882 22.2712 24.2297 24.2297C22.2712 26.1882 19.4488 27.335 16 27.335C12.5511 27.335 9.72869 26.1882 7.77019 24.2297C5.81169 22.2712 4.66496 19.4488 4.66496 16Z" fill="#000000" class="bmwfcol"/><title>electricity_lt_48</title></svg>