<svg width="48" height="48" viewBox="0 0 32 32" xmlns="http://www.w3.org/2000/svg"><path d="M14.4994 19.9999C14.4994 19.1715 15.1709 18.4999 15.9994 18.4999C16.8278 18.4999 17.4994 19.1715 17.4994 19.9999C17.4994 20.8284 16.8278 21.4999 15.9994 21.4999C15.1709 21.4999 14.4994 20.8284 14.4994 19.9999Z" fill="#000000" class="bmwfcol"/><path d="M15.9991 10.335C13.148 10.335 10.7204 11.2882 9.00387 13.0047C7.28737 14.7212 6.3341 17.1488 6.3341 20C6.3341 22.8511 7.28737 25.2787 9.00387 26.9952C10.7204 28.7117 13.148 29.665 15.9991 29.665C18.8502 29.665 21.2778 28.7117 22.9943 26.9952C24.7108 25.2787 25.6641 22.8511 25.6641 20C25.6641 17.1488 24.7108 14.7212 22.9943 13.0047C21.2778 11.2882 18.8502 10.335 15.9991 10.335ZM7.79271 18.335C8.08009 16.5405 8.83721 15.0523 9.94432 13.9452C11.3778 12.5117 13.4502 11.665 15.9991 11.665C18.548 11.665 20.6204 12.5117 22.0539 13.9452C23.161 15.0523 23.9181 16.5405 24.2055 18.335H20.639V18.4373C20.5252 18.1739 20.374 17.9127 20.2055 17.6214L20.1653 17.5519C19.6277 16.6215 19.1785 15.9704 18.4775 15.6355C18.1296 15.4694 17.761 15.3997 17.368 15.3668C16.9881 15.335 16.5401 15.335 16.024 15.335H15.975C15.4589 15.335 15.011 15.335 14.631 15.3668C14.2381 15.3997 13.8695 15.4694 13.5216 15.6355C12.8206 15.9704 12.3713 16.6215 11.8337 17.5519L11.7936 17.6214C11.6269 17.9094 11.4772 18.1681 11.3639 18.4285V18.335H7.79271ZM7.66903 19.665H11.1567C11.1745 19.8733 11.213 20.0907 11.2643 20.3253C11.34 20.6712 11.4531 21.0955 11.5946 21.6259L11.617 21.7098C11.6713 21.9136 11.7323 22.1434 11.7941 22.3771L7.74017 21.2908C7.68992 20.8756 7.6641 20.4451 7.6641 20C7.6641 19.8874 7.66575 19.7757 7.66903 19.665ZM8.03243 22.746L12.1858 23.8589L12.187 23.8635L12.1949 23.8614L13.3463 24.1698L13.6884 28.0798C12.1806 27.7282 10.9158 27.0262 9.94432 26.0547C9.06788 25.1783 8.41077 24.063 8.03243 22.746ZM15.0422 28.2937L14.7111 24.5097C15.1859 24.6103 15.5914 24.665 15.9992 24.665C16.4073 24.665 16.8131 24.6102 17.2883 24.5095L16.9573 28.2936C16.646 28.321 16.3265 28.335 15.9991 28.335C15.6722 28.335 15.3531 28.321 15.0422 28.2937ZM18.3111 28.0795L18.6532 24.1696L19.8039 23.8613L19.8121 23.8635L19.8133 23.8588L23.9657 22.7461C23.5874 24.0631 22.9303 25.1783 22.0539 26.0547C21.0827 27.0259 19.8183 27.7278 18.3111 28.0795ZM24.258 21.2909L20.205 22.3769C20.2668 22.1433 20.3277 21.9135 20.3821 21.7098L20.4045 21.6257C20.546 21.0954 20.6591 20.6712 20.7347 20.3253C20.786 20.0907 20.8245 19.8733 20.8423 19.665H24.3292C24.3324 19.7757 24.3341 19.8874 24.3341 20C24.3341 20.4451 24.3083 20.8757 24.258 21.2909ZM12.9853 18.2173C13.5366 17.2632 13.8095 16.972 14.0948 16.8357C14.2401 16.7663 14.4307 16.7182 14.7419 16.6922C15.0601 16.6655 15.4531 16.665 15.9995 16.665C16.546 16.665 16.9389 16.6655 17.2572 16.6922C17.5684 16.7182 17.759 16.7663 17.9042 16.8357C18.1896 16.972 18.4625 17.2632 19.0137 18.2173C19.4243 18.928 19.5126 19.1155 19.5224 19.376C19.5279 19.5207 19.5068 19.7147 19.4354 20.0412C19.3665 20.3567 19.2606 20.7536 19.1135 21.3053L19.097 21.3671C19.0006 21.7283 18.8839 22.1702 18.7784 22.5698L18.7246 22.7736L18.698 22.7807C17.2283 23.1745 16.609 23.335 15.9992 23.335C15.3894 23.335 14.7701 23.1745 13.3006 22.7807L13.2745 22.7737L13.2207 22.5698C13.1152 22.1702 12.9984 21.7283 12.9021 21.3671L12.8857 21.3055C12.7385 20.7537 12.6326 20.3567 12.5636 20.0412C12.4922 19.7147 12.4712 19.5207 12.4766 19.376C12.4864 19.1155 12.5747 18.928 12.9853 18.2173Z" fill="#000000" class="bmwfcol"/><path d="M15.335 5.66496V7.99994H16.665V5.66496H19V4.33496H16.665V1.99994H15.335V4.33496H13V5.66496H15.335Z" fill="#000000" class="bmwfcol"/><path d="M2.375 11.6249V6.62488L3.625 5.37488V9.43395L4.5293 8.52965C6.25079 6.80815 8.46422 5.60984 11 4.94709V6.32554C8.80654 6.95167 6.92648 8.01337 5.46975 9.4701L4.56497 10.3749H8.625L7.375 11.6249H2.375Z" fill="#000000" class="bmwfcol"/><path d="M29.625 11.6249V6.62488L28.375 5.37488V9.43395L27.4707 8.52965C25.7492 6.80815 23.5358 5.60984 21 4.94709V6.32554C23.1935 6.95167 25.0735 8.01337 26.5303 9.4701L27.435 10.3749H23.375L24.625 11.6249H29.625Z" fill="#000000" class="bmwfcol"/><title>electric-steering-assistance_lt_48</title></svg>