<svg width="48" height="48" viewBox="0 0 32 32" xmlns="http://www.w3.org/2000/svg"><path d="M2.00145 13.7862V15.1359C3.13563 15.3291 4.18158 15.4755 4.83215 15.4755C5.24342 15.4755 5.66053 15.4491 6.04183 15.3738C6.4156 15.3 6.80654 15.1695 7.12208 14.9252C7.35717 14.7431 7.56714 14.5236 7.71485 14.2438C7.86451 13.9604 7.93026 13.6531 7.93026 13.3256C7.93026 12.7438 7.76751 12.1811 7.27424 11.7963C7.46279 11.5768 7.64355 11.3616 7.76304 11.2084C7.8979 11.0354 8.03795 10.842 8.13726 10.6111C8.24231 10.3668 8.28793 10.1151 8.28793 9.83148C8.28793 9.27356 8.03142 8.65524 7.51441 8.32809C6.70403 7.81531 5.52955 7.2337 4.48654 6.75438C4.24869 6.64508 4.08967 6.57037 3.97471 6.51285C3.76461 6.40771 3.76655 6.40598 3.65243 6.30872C3.54891 6.22049 3.39557 5.97541 3.39557 5.7607C3.39557 5.46019 3.47232 5.3424 3.60881 5.24937C3.72742 5.16851 3.90557 5.10339 4.16324 5.06307C4.41936 5.02299 4.71016 5.01359 5.03065 5.01359C5.39775 5.01359 6.22769 5.07886 8.00145 5.43189V4.07649C6.3616 3.75924 5.49865 3.68359 5.03065 3.68359C4.6968 3.68359 4.32056 3.69227 3.95764 3.74906C3.59627 3.8056 3.20339 3.91612 2.85969 4.1504C2.26469 4.55599 2.06557 5.1495 2.06557 5.7607C2.06557 6.3805 2.36263 6.90201 2.68309 7.22235C2.48289 7.45534 2.28795 7.69306 2.16445 7.8642C1.94366 8.17017 1.6935 8.59556 1.7076 9.19074C1.71972 9.70216 1.90524 10.2571 2.33357 10.6016C2.7783 10.9593 3.10729 11.1441 3.63171 11.3933C4.27856 11.7006 4.88543 12.0071 5.50922 12.3022C5.82262 12.4504 6.11448 12.6349 6.41065 12.8139C6.50738 12.8724 6.60026 12.961 6.60026 13.3256C6.60026 13.4693 6.5731 13.5577 6.53873 13.6228C6.50242 13.6916 6.43723 13.7734 6.30785 13.8735C6.22222 13.9398 6.05826 14.0149 5.78417 14.069C5.51761 14.1216 5.19389 14.1455 4.83215 14.1455C4.25421 14.1455 3.2126 13.9965 2.00145 13.7862ZM3.83865 7.92027C4.84647 8.38439 5.86404 8.85769 6.80324 9.45199C6.85411 9.48417 6.95793 9.6248 6.95793 9.83148C6.95793 9.96243 6.93884 10.0313 6.91546 10.0856C6.88634 10.1534 6.83423 10.2366 6.71422 10.3905C6.57937 10.5635 6.34145 10.843 6.10653 11.1135C5.79243 10.964 5.47954 10.8121 5.16705 10.6592C4.84612 10.5022 4.52515 10.3453 4.20243 10.1919C3.73684 9.97075 3.50559 9.83747 3.16716 9.56526C3.13688 9.5409 3.04332 9.4161 3.03723 9.15923C3.03321 8.98968 3.09038 8.85393 3.24297 8.64247C3.36673 8.47096 3.60774 8.1829 3.83865 7.92027Z" fill="#000000" class="bmwfcol"/><path d="M24.3352 28.415H20.5012V27.085H25.6652V28.335H28.3352V21.6648H22.9993V20.3348H28.0573C27.6133 19.6541 26.9858 19.0948 26.3949 18.5465C25.9425 18.1656 25.0337 18.2238 24.4954 18.1998C23.4983 18.1554 22.1055 18.1582 20.1117 18.1621C18.7054 18.1649 17.2991 18.165 15.8929 18.1622C13.8988 18.1582 12.503 18.1554 11.5053 18.1998C10.9603 18.2241 10.0811 18.1698 9.61552 18.5372C9.32809 18.8038 9.06096 19.0573 8.82102 19.2999H7.04688C7.59951 18.5723 8.28145 17.9561 8.95181 17.3399C9.16944 16.8494 9.61208 15.9396 10.1536 15.0763C10.4281 14.6387 10.7367 14.1991 11.0632 13.8284C11.3801 13.4684 11.7584 13.1216 12.182 12.9356C13.3398 12.4275 14.1497 12.335 18.0002 12.335C21.8506 12.335 22.6617 12.4275 23.8185 12.9357C24.2416 13.1223 24.6204 13.4693 24.9373 13.8294C25.2637 14.2001 25.5723 14.6397 25.8468 15.0771C26.0858 15.4581 26.3057 15.8481 26.4953 16.2072C26.848 16.0206 27.2322 15.9294 27.671 15.8833C28.2549 15.8221 29.0167 15.835 30.0004 15.835V17.165C29.271 17.165 28.5362 17.1298 27.8098 17.2061C27.48 17.2407 27.2692 17.2996 27.1034 17.3903C27.7261 17.9635 28.3385 18.5426 28.7965 19.1012C29.2567 19.6625 29.6652 20.3236 29.6652 21.0428V29.665H24.3352V28.415ZM18.0002 13.665C14.1011 13.665 13.5771 13.7759 12.7166 14.1535C12.5571 14.2235 12.3329 14.3989 12.0613 14.7073C11.7992 15.005 11.5332 15.3799 11.2802 15.7831C11.0386 16.1683 10.8169 16.5663 10.6298 16.9257C10.8771 16.9019 11.1485 16.8844 11.4462 16.8711C12.4775 16.8252 13.9175 16.8281 15.9251 16.8322C17.3095 16.8349 18.6939 16.8341 20.0784 16.8322C22.0857 16.8281 23.5238 16.8252 24.5545 16.8711C24.852 16.8844 25.1233 16.9019 25.3704 16.9257C25.1833 16.5666 24.9617 16.1689 24.7202 15.7841C24.4673 15.381 24.2012 15.0061 23.939 14.7082C23.6677 14.4 23.4433 14.224 23.2833 14.1532C22.4243 13.7759 21.8991 13.665 18.0002 13.665Z" fill="#000000" class="bmwfcol"/><path d="M11.2098 22.8351L11.2491 22.835C12.2252 22.835 13.0903 23.1632 13.713 23.786C14.3358 24.4087 14.6641 25.2738 14.6641 26.25C14.6641 27.2261 14.3358 28.0912 13.713 28.7139C13.0903 29.3367 12.2252 29.665 11.2491 29.665H6.99906C5.64794 29.665 4.47034 29.2117 3.62884 28.3702C2.78734 27.5287 2.33406 26.3511 2.33406 25C2.33406 23.6488 2.78734 22.4712 3.62884 21.6297C4.47034 20.7882 5.64794 20.335 6.99906 20.335C8.93086 20.335 10.4784 21.2655 11.2098 22.8351ZM6.99906 21.665C5.95018 21.665 5.12779 22.0117 4.56929 22.5702C4.01079 23.1287 3.66406 23.9511 3.66406 25C3.66406 26.0488 4.01079 26.8712 4.56929 27.4297C5.12779 27.9882 5.95018 28.335 6.99906 28.335H11.2491C11.9229 28.335 12.4328 28.1132 12.7726 27.7735C13.1123 27.4337 13.3341 26.9238 13.3341 26.25C13.3341 25.5761 13.1123 25.0662 12.7726 24.7264C12.4958 24.4497 12.1061 24.2512 11.6068 24.1872C11.6449 24.45 11.6641 24.7214 11.6641 25H10.3341C10.3341 24.5341 10.2653 24.1135 10.1416 23.7426C9.72054 22.4801 8.61255 21.665 6.99906 21.665Z" fill="#000000" class="bmwfcol"/><path d="M16.0022 29.665C15.4676 29.665 14.9703 29.5367 14.5508 29.2855C14.8557 28.9512 15.0972 28.5745 15.2763 28.1683C15.4658 28.2713 15.7066 28.335 16.0022 28.335C16.4511 28.335 16.7735 28.1882 16.982 27.9797C17.1905 27.7712 17.3372 27.4488 17.3372 27C17.3372 26.5511 17.1905 26.2287 16.982 26.0202C16.7735 25.8117 16.4511 25.665 16.0022 25.665C15.8692 25.665 15.7474 25.6778 15.6363 25.7014C15.5882 25.2518 15.48 24.8176 15.3106 24.4115C15.5313 24.3606 15.763 24.335 16.0022 24.335C16.7533 24.335 17.4309 24.5882 17.9224 25.0797C18.4139 25.5712 18.6672 26.2488 18.6672 27C18.6672 27.7511 18.4139 28.4287 17.9224 28.9202C17.4309 29.4117 16.7533 29.665 16.0022 29.665Z" fill="#000000" class="bmwfcol"/><title>emission-inspection_lt_48</title></svg>