<svg width="48" height="48" viewBox="0 0 32 32" xmlns="http://www.w3.org/2000/svg"><path d="M11.5 5.55956L14.5297 2.52979L15.4702 3.47024L12.4404 6.50001L14.5 8.55956L17.5297 5.52979L18.4702 6.47024L15.4404 9.50001L16.9404 11L16.4702 11.4702C14.4446 13.4958 12.7722 14.5676 11.2892 14.8288C9.98095 15.0592 8.92038 14.646 8.02528 13.919C6.907 15.0586 6.34158 15.7357 6.03644 16.328C5.7171 16.9479 5.66496 17.5087 5.66496 18.625V19.9999L4.33496 20V18.625C4.33496 17.4913 4.37657 16.6459 4.85411 15.7189C5.2572 14.9364 5.95546 14.1276 7.08429 12.9788C6.35524 12.0828 5.94044 11.021 6.1712 9.71082C6.43238 8.2278 7.5042 6.55533 9.52974 4.52979L9.99997 4.05956L11.5 5.55956ZM15.0535 10.994L10.006 5.94649C8.36407 7.67734 7.65362 8.96158 7.48104 9.9415C7.30623 10.9341 7.66764 11.7272 8.47019 12.5298C9.27275 13.3323 10.0659 13.6938 11.0585 13.5189C12.0384 13.3464 13.3226 12.6359 15.0535 10.994Z" fill="#000000" class="bmwfcol"/><path d="M14.335 16.335H20.335V12.335H27.665V27.665H8.33496V20.335H14.335V16.335ZM15.665 17.665V26.335H20.335V17.665H15.665ZM26.335 26.335V13.665H21.665V26.335H26.335ZM14.335 21.665H9.66496V26.335H14.335V21.665Z" fill="#000000" class="bmwfcol"/><title>energy-consumption_lt_48</title></svg>