<svg width="48" height="48" viewBox="0 0 32 32" xmlns="http://www.w3.org/2000/svg"><path d="M17.665 7.66496H20V6.33496H10V7.66496H12.335V9.3351C10.788 9.3362 9.86785 9.34825 9.24454 9.47291C8.85446 9.55093 8.54887 9.67656 8.26206 9.87512C8.00891 10.0504 7.7838 10.2756 7.55533 10.5042L7.33496 10.7245V11.335H5.33496V16.335H2.66496L2.66496 12H1.33496V22H2.66496L2.66496 17.665H5.33496V22.665L8.49203 22.665C8.63846 23.1889 8.77656 23.6312 8.92962 23.9933C9.13193 24.4719 9.38735 24.8784 9.78962 25.166C10.188 25.4508 10.6524 25.5627 11.1539 25.6146C11.6411 25.665 12.2446 25.665 12.9655 25.665L18.0344 25.665C18.7553 25.665 19.3588 25.665 19.846 25.6146C20.3475 25.5627 20.8119 25.4508 21.2103 25.166C21.6125 24.8784 21.868 24.4719 22.0703 23.9933C22.2234 23.6311 22.3615 23.1889 22.5079 22.665H24.665V20.665H26.335V22.665L29.3839 22.665L29.5759 22.3325C30.0769 21.4646 30.377 20.884 30.5258 20.1745C30.6651 19.5104 30.665 18.7557 30.665 17.5832V17.4168C30.665 16.2443 30.6651 15.4896 30.5258 14.8255C30.377 14.116 30.0769 13.5354 29.5759 12.6675L29.3839 12.335L26.335 12.335V14.335H24.665V11.335H22.665V10.7245L22.4446 10.5042C22.2161 10.2756 21.991 10.0504 21.7379 9.87512C21.4511 9.67656 21.1455 9.55093 20.7554 9.47291C20.1321 9.34825 19.2119 9.3362 17.665 9.3351V7.66496ZM16.335 7.66496V10.665H17C19.0431 10.665 19.9524 10.6687 20.4945 10.7771C20.7295 10.8241 20.8614 10.8859 20.9808 10.9686C21.0843 11.0403 21.1873 11.1327 21.335 11.277V12.665H23.335V15.665H27.665V13.665L28.6134 13.665C28.9761 14.3131 29.1368 14.6824 29.2241 15.0985C29.3316 15.6108 29.335 16.2203 29.335 17.5C29.335 18.7797 29.3316 19.3892 29.2241 19.9015C29.1368 20.3176 28.9761 20.6869 28.6134 21.335L27.665 21.335V19.335H23.335V21.335H21.4898L21.3577 21.8279C21.1553 22.5833 21.0029 23.1023 20.8452 23.4755C20.6909 23.8405 20.5591 23.9966 20.4368 24.084C20.3106 24.1742 20.1132 24.2498 19.709 24.2916C19.2983 24.3342 18.7637 24.335 17.9999 24.335L13 24.335C12.2361 24.335 11.7015 24.3342 11.2908 24.2917C10.8867 24.2498 10.6893 24.1742 10.5631 24.084C10.4409 23.9966 10.309 23.8406 10.1547 23.4755C9.99697 23.1024 9.84465 22.5833 9.64223 21.8279L9.51017 21.335L6.66496 21.335V12.665H8.66496V11.277C8.81267 11.1327 8.91561 11.0403 9.01911 10.9686C9.13856 10.8859 9.27046 10.8241 9.50538 10.7771C10.0475 10.6687 10.9568 10.665 13 10.665H13.665V7.66496H16.335Z" fill="#000000" class="bmwfcol"/><path d="M13.3349 12.5V16.665L15.3349 16.665V18.835H14.2255L15.9999 21.7925L17.7746 18.835H16.6649V15.335L14.6649 15.335V12.5H13.3349Z" fill="#000000" class="bmwfcol"/><title>engine_mhev_lt_48</title></svg>