<svg width="48" height="48" viewBox="0 0 32 32" xmlns="http://www.w3.org/2000/svg"><path d="M24.498 3.66496H7.49805V2.33496H24.498V3.66496Z" fill="#000000" class="bmwfcol"/><path d="M9.0802 6L4.48677 14H2.95312L7.54656 6H9.0802Z" fill="#000000" class="bmwfcol"/><path d="M24.4487 6H22.915L27.5083 14H29.0419L24.4487 6Z" fill="#000000" class="bmwfcol"/><path d="M11.5449 11L12.8846 6H11.5077L10.168 11H11.5449Z" fill="#000000" class="bmwfcol"/><path d="M19.114 6H20.4909L21.8306 11H20.4537L19.114 6Z" fill="#000000" class="bmwfcol"/><path d="M15.334 10V6H16.664V10H15.334Z" fill="#000000" class="bmwfcol"/><path d="M18.6632 14.665H19.9994V13.335H11.9961V14.665H13.3159V15.8353C12.8052 15.8361 12.3903 15.8388 12.051 15.8483C11.581 15.8615 11.2123 15.8882 10.9098 15.9546C10.2841 16.0919 9.97633 16.4064 9.64915 16.7408C9.60945 16.7814 9.56948 16.8222 9.52861 16.8631L9.33383 17.0579V17.835H7.35938V21.835H5.66398V18.5H4.33398V26.5022H5.66398V23.165H7.35938V27.165L10.3249 27.165C10.4392 27.5685 10.5494 27.9154 10.6715 28.2042C10.844 28.6125 11.0672 28.9721 11.4258 29.2284C11.7804 29.482 12.1897 29.5783 12.6157 29.6224C13.0275 29.665 13.5353 29.665 14.1319 29.6649L18.3657 29.6649C18.9623 29.665 19.4701 29.665 19.8819 29.6223C20.3079 29.5782 20.7171 29.482 21.0718 29.2284C21.4304 28.9721 21.6536 28.6125 21.8262 28.2042C21.9482 27.9154 22.0584 27.5684 22.1727 27.165H23.664V25.665H25.3237V27.1649L28.0393 27.165L28.2313 26.8325C28.649 26.1089 28.9074 25.6117 29.0354 25.0015C29.1539 24.4366 29.1538 23.797 29.1537 22.8301V22.6698C29.1538 21.703 29.1539 21.0634 29.0354 20.4985C28.9074 19.8883 28.649 19.391 28.2313 18.6675L28.0393 18.3349L25.3237 18.335V19.8318H23.664V17.835H22.3305V17.0579L22.1357 16.8631C22.0433 16.7707 21.9688 16.6893 21.8971 16.6106L21.8832 16.5953C21.8192 16.525 21.7453 16.4438 21.6694 16.3711C21.4764 16.1864 21.2594 16.0454 20.9385 15.961C20.6605 15.8879 20.3175 15.8614 19.8802 15.8483C19.5622 15.8388 19.1643 15.8361 18.6632 15.8353V14.665ZM17.3332 14.665V17.165H17.9982C18.8362 17.165 19.4178 17.1651 19.8404 17.1777C20.273 17.1907 20.4821 17.2162 20.6001 17.2473C20.6752 17.267 20.6979 17.2823 20.7499 17.332C20.7909 17.3712 20.8355 17.4202 20.9136 17.5059C20.9401 17.535 20.9689 17.5667 21.0005 17.6007V19.165H22.334V21.1618H26.6537V19.665L27.2681 19.665C27.5461 20.1666 27.6669 20.4528 27.7337 20.7715C27.8203 21.1844 27.8237 21.6786 27.8237 22.75C27.8237 23.8214 27.8203 24.3155 27.7337 24.7285C27.6669 25.0472 27.5461 25.3334 27.2681 25.835L26.6537 25.835V24.335H22.334V25.835H21.1552L21.0232 26.3278C20.8543 26.9583 20.7291 27.3835 20.6011 27.6864C20.4765 27.9811 20.3769 28.0903 20.2984 28.1465C20.2159 28.2054 20.0736 28.2654 19.7449 28.2994C19.4097 28.3341 18.9709 28.3349 18.3321 28.3349L14.1655 28.3349C13.5266 28.3349 13.0879 28.3341 12.7526 28.2994C12.4239 28.2654 12.2817 28.2054 12.1992 28.1465C12.1207 28.0903 12.0211 27.9811 11.8965 27.6864C11.7685 27.3836 11.6434 26.9583 11.4744 26.3279L11.3424 25.835L8.68937 25.835V19.165H10.6638V17.6084C10.9384 17.3342 10.9885 17.299 11.1949 17.2537C11.3671 17.2159 11.6294 17.1906 12.0883 17.1778C12.5411 17.1651 13.1434 17.165 13.9809 17.165H14.6459V14.665H17.3332Z" fill="#000000" class="bmwfcol"/><title>engine_shower_lt_48</title></svg>