<svg width="48" height="48" viewBox="0 0 32 32" xmlns="http://www.w3.org/2000/svg"><path d="M19.9999 9.66496H17.6648L17.6648 11.3351C19.2118 11.3362 20.132 11.3483 20.7553 11.4729C21.1453 11.5509 21.4509 11.6766 21.7377 11.8751C21.9909 12.0504 22.216 12.2756 22.4445 12.5042L22.6648 12.7245V13.335L24.6648 13.335L24.6648 16.335H26.9998V17.665H23.3348V14.665L21.3348 14.665V13.277C21.1871 13.1327 21.0842 13.0403 20.9807 12.9686C20.8612 12.8859 20.7293 12.8241 20.4944 12.7771C19.9523 12.6687 19.043 12.665 16.9998 12.665H16.3348V9.66496H13.6648L13.6648 12.665H12.9998C10.9567 12.665 10.0474 12.6687 9.50526 12.7771C9.27033 12.8241 9.13843 12.8859 9.01899 12.9686C8.91549 13.0403 8.81255 13.1327 8.66484 13.277L8.66484 14.665H6.66484L6.66484 23.335L9.51004 23.335L9.64211 23.8279C9.84453 24.5833 9.99685 25.1024 10.1546 25.4755C10.3089 25.8406 10.4407 25.9966 10.563 26.084C10.6891 26.1742 10.8866 26.2498 11.2907 26.2917C11.7014 26.3342 12.236 26.335 12.9998 26.335L17.9998 26.335C18.7636 26.335 19.2982 26.3342 19.7089 26.2916C20.1131 26.2498 20.3105 26.1742 20.4367 26.084C20.5589 25.9966 20.6908 25.8405 20.8451 25.4755C21.0028 25.1023 21.1551 24.5833 21.3576 23.8279L21.4896 23.335H23.3348V21.335H27.6648L27.6648 23.335L28.6133 23.335C28.976 22.6869 29.1367 22.3176 29.224 21.9015C29.3314 21.3892 29.3348 20.7797 29.3348 19.5L29.3349 13.9995C29.3349 13.333 29.2259 12.8134 28.9676 12.2969C28.7585 11.8787 28.4402 11.4395 27.9594 10.9166C27.3257 11.3912 26.5868 11.6464 25.6797 11.4508C24.6199 11.2223 23.4549 10.3951 22.0296 8.96976L21.5593 8.49953L22.5594 7.49941L20.0298 4.96975L20.9702 4.0293L23.4999 6.55896L24.5595 5.49935L22.0299 2.96975L22.9704 2.0293L25.5 4.5589L26.4998 3.55908L26.97 4.02931C28.3953 5.45461 29.2226 6.61962 29.4511 7.67949C29.6485 8.59545 29.3864 9.33987 28.9028 9.97771C29.4538 10.5722 29.8693 11.1263 30.1572 11.7021C30.5227 12.4332 30.664 13.1612 30.6649 13.9913L30.6648 19.5832C30.6649 20.7557 30.665 21.5104 30.5257 22.1745C30.3769 22.884 30.0768 23.4646 29.5757 24.3325L29.3838 24.665L26.3348 24.665V22.665H24.6648L24.6648 24.665H22.5078C22.3613 25.1889 22.2232 25.6311 22.0702 25.9933C21.8678 26.4719 21.6124 26.8784 21.2101 27.166C20.8117 27.4508 20.3474 27.5627 19.8458 27.6146C19.3586 27.665 18.7552 27.665 18.0343 27.665L12.9654 27.665C12.2445 27.665 11.641 27.665 11.1538 27.6146C10.6523 27.5627 10.1879 27.4508 9.7895 27.166C9.38723 26.8784 9.13181 26.4719 8.92949 25.9933C8.77643 25.6312 8.63834 25.1889 8.49191 24.665L5.33484 24.665L5.33484 19.665H2.66484L2.66484 24H1.33484V14L2.66484 14L2.66484 18.335H5.33484L5.33484 13.335H7.33484L7.33484 12.7245L7.55521 12.5042C7.78368 12.2756 8.00879 12.0504 8.26194 11.8751C8.54874 11.6766 8.85434 11.5509 9.24442 11.4729C9.86772 11.3483 10.7879 11.3362 12.3348 11.3351L12.3348 9.66496H9.99988V8.33496H19.9999V9.66496ZM26.4925 5.44723L23.4475 8.49229C24.5891 9.56255 25.3815 10.026 25.96 10.1507C26.514 10.2701 26.9639 10.095 27.5296 9.52931C28.0952 8.96363 28.2704 8.51372 28.1509 7.95979C28.0262 7.38124 27.5628 6.58883 26.4925 5.44723Z" fill="#000000" class="bmwfcol"/><path d="M13.335 14.5V18.665L15.335 18.665V20.835H14.2255L16 23.7925L17.7746 20.835H16.665V17.335L14.665 17.335V14.5H13.335Z" fill="#000000" class="bmwfcol"/><title>engine_phev_lt_48</title></svg>