<svg width="48" height="48" viewBox="0 0 32 32" xmlns="http://www.w3.org/2000/svg"><path d="M25.6128 7.61477L24.3828 6.38477H27.4441C26.0219 4.98421 24.9588 4.16496 22.9976 4.16496C21.4987 4.16496 20.3013 4.66168 19.4803 5.48269C18.9553 6.00772 18.5629 6.68669 18.3482 7.5H16.9824C17.2248 6.33573 17.7562 5.32595 18.5399 4.54223C19.6439 3.43824 21.1965 2.83496 22.9976 2.83496C25.4807 2.83496 26.903 3.97447 28.3828 5.43756V2.38477L29.6128 3.61477V7.61477H25.6128Z" fill="#000000" class="bmwfcol"/><path d="M20.3828 10.3853L21.6128 11.6153H18.5491C19.9713 13.0158 21.0344 13.835 22.9956 13.835C24.4945 13.835 25.6919 13.3383 26.5129 12.5173C27.0379 11.9923 27.4303 11.3133 27.645 10.5H29.0108C28.7684 11.6643 28.2371 12.6741 27.4533 13.4578C26.3493 14.5618 24.7967 15.165 22.9956 15.165C20.5138 15.165 19.0918 14.0268 17.6128 12.5648V15.6153L16.3828 14.3853V10.3853H20.3828Z" fill="#000000" class="bmwfcol"/><path d="M23.3309 16.4927C23.7877 16.4729 24.2339 16.4121 24.6659 16.3141V18.335H26.3359V16.335L29.3849 16.335L29.5768 16.6675C30.0779 17.5354 30.378 18.116 30.5268 18.8255C30.6661 19.4896 30.666 20.2443 30.6659 21.4168V21.5832C30.666 22.7557 30.6661 23.5104 30.5268 24.1745C30.378 24.884 30.0779 25.4647 29.5768 26.3325L29.3849 26.665L26.3359 26.665V24.665H24.6659V26.665H22.5089C22.3624 27.1889 22.2243 27.6312 22.0713 27.9933C21.8689 28.4719 21.6135 28.8784 21.2112 29.166C20.8128 29.4508 20.3485 29.5627 19.8469 29.6146C19.3597 29.665 18.7563 29.665 18.0354 29.665L12.9664 29.665C12.2456 29.665 11.6421 29.665 11.1549 29.6146C10.6534 29.5627 10.189 29.4508 9.7906 29.166C9.38833 28.8784 9.13291 28.4719 8.93059 27.9933C8.77753 27.6312 8.63944 27.1889 8.49301 26.665L5.33594 26.665V21.665H2.66594L2.66594 26H1.33594V16H2.66594L2.66594 20.335H5.33594V15.335H7.33594V14.7246L7.55631 14.5042C7.78478 14.2756 8.00989 14.0504 8.26304 13.8751C8.54984 13.6766 8.85544 13.5509 9.24552 13.4729C9.86882 13.3483 10.789 13.3362 12.3359 13.3351V11.665H10.0009V10.335H15.0009V11.665H13.6659V14.665H13.0009C10.9578 14.665 10.0485 14.6687 9.50636 14.7771C9.27143 14.8241 9.13953 14.8859 9.02009 14.9686C8.91659 15.0403 8.81365 15.1327 8.66594 15.277V16.665H6.66594V25.335L9.51114 25.335L9.64321 25.8279C9.84562 26.5833 9.99795 27.1024 10.1557 27.4755C10.31 27.8406 10.4418 27.9966 10.5641 28.084C10.6902 28.1742 10.8877 28.2498 11.2918 28.2917C11.7025 28.3342 12.2371 28.335 13.0009 28.335L18.0009 28.335C18.7647 28.335 19.2993 28.3342 19.71 28.2917C20.1142 28.2498 20.3116 28.1742 20.4378 28.084C20.56 27.9966 20.6919 27.8406 20.8462 27.4755C21.0039 27.1023 21.1563 26.5833 21.3587 25.8279L21.4907 25.335H23.3359V23.335H27.6659V25.335L28.6144 25.335C28.9771 24.6869 29.1378 24.3176 29.2251 23.9015C29.3325 23.3892 29.3359 22.7797 29.3359 21.5C29.3359 20.2203 29.3325 19.6108 29.2251 19.0985C29.1378 18.6824 28.9771 18.3131 28.6144 17.665L27.6659 17.665V19.665H23.3359V16.665H23.3309V16.4927Z" fill="#000000" class="bmwfcol"/><title>engine_reconditioning_lt_48</title></svg>