<svg width="48" height="48" viewBox="0 0 32 32" xmlns="http://www.w3.org/2000/svg"><path d="M12.9645 22.665L14.0312 22.665C14.0105 22.4461 14 22.2243 14 22C14 21.7757 14.0105 21.5539 14.0312 21.335L12.999 21.335C12.2351 21.335 11.7006 21.3342 11.2899 21.2917C10.8857 21.2498 10.6883 21.1742 10.5621 21.084C10.4399 20.9966 10.308 20.8406 10.1537 20.4755C9.996 20.1024 9.84367 19.5833 9.64126 18.8279L9.50919 18.335L6.66398 18.335V9.665H8.66398V8.27701C8.81169 8.1327 8.91464 8.04029 9.01813 7.96863C9.13758 7.88594 9.26948 7.82407 9.5044 7.77709C10.0465 7.66866 10.9559 7.665 12.999 7.665H13.664V4.66496H16.334V7.665H16.999C19.0421 7.665 19.9514 7.66866 20.4936 7.77709C20.7285 7.82407 20.8604 7.88594 20.9798 7.96863C21.0833 8.04029 21.1863 8.1327 21.334 8.27701V9.665H23.334V12.665H27.664V10.665L28.6124 10.665C28.9751 11.3131 29.1359 11.6824 29.2231 12.0985C29.3306 12.6108 29.334 13.2203 29.334 14.5C29.334 15.7797 29.3306 16.3892 29.2231 16.9015C29.1359 17.3176 28.9751 17.6869 28.6124 18.335L27.664 18.335V18.33H26.9619C27.2197 18.7479 27.4348 19.1949 27.6011 19.665L29.3829 19.665L29.5749 19.3325C30.076 18.4646 30.376 17.884 30.5248 17.1745C30.6641 16.5104 30.6641 15.7557 30.664 14.5832V14.4168C30.6641 13.2443 30.6641 12.4896 30.5248 11.8255C30.376 11.116 30.076 10.5354 29.5749 9.66747L29.3829 9.33496L26.334 9.33501V11.335H24.664V8.335H22.664V7.72455L22.4436 7.50416C22.2151 7.27558 21.99 7.05037 21.7369 6.87512C21.4501 6.67656 21.1445 6.55093 20.7544 6.47291C20.1311 6.34825 19.211 6.3362 17.664 6.3351V4.66496H19.998V3.33496H9.99805V4.66496H12.334V6.3351C10.787 6.3362 9.86687 6.34825 9.24357 6.47291C8.85349 6.55093 8.54789 6.67656 8.26108 6.87512C8.00793 7.05038 7.78283 7.27559 7.55435 7.50417L7.33398 7.72455V8.335H5.33398V13.335H2.66398L2.66398 9H1.33398V19H2.66398L2.66398 14.665H5.33398V19.665L8.49106 19.665C8.63749 20.1889 8.77558 20.6312 8.92864 20.9933C9.13095 21.4719 9.38637 21.8784 9.78864 22.166C10.187 22.4508 10.6514 22.5627 11.1529 22.6146C11.6401 22.665 12.2436 22.665 12.9645 22.665Z" fill="#000000" class="bmwfcol"/><path d="M24.1925 20.692L20.2505 24.6339L17.8086 22.192L18.6925 21.3081L20.2505 22.8662L23.3086 19.8081L24.1925 20.692Z" fill="#000000" class="bmwfcol"/><path d="M21.0009 16.335C19.3498 16.335 17.9222 16.8882 16.9057 17.9047C15.8892 18.9212 15.3359 20.3488 15.3359 22C15.3359 23.6511 15.8892 25.0787 16.9057 26.0952C17.9222 27.1117 19.3498 27.665 21.0009 27.665C22.4032 27.665 23.6151 27.2269 24.554 26.493L27.5312 29.4702L28.4717 28.5298L25.4914 25.5495C26.2433 24.5754 26.6659 23.3387 26.6659 22C26.6659 20.3488 26.1127 18.9212 25.0962 17.9047C24.0797 16.8882 22.6521 16.335 21.0009 16.335ZM16.6659 22C16.6659 20.6511 17.1127 19.5787 17.8462 18.8452C18.5797 18.1117 19.6521 17.665 21.0009 17.665C22.3498 17.665 23.4222 18.1117 24.1557 18.8452C24.8892 19.5787 25.3359 20.6511 25.3359 22C25.3359 24.4153 23.6128 26.335 21.0009 26.335C19.6521 26.335 18.5797 25.8882 17.8462 25.1547C17.1127 24.4212 16.6659 23.3488 16.6659 22Z" fill="#000000" class="bmwfcol"/><title>engine_check_lt_48</title></svg>