<svg width="48" height="48" viewBox="0 0 32 32" xmlns="http://www.w3.org/2000/svg"><path d="M16.665 2V6H15.335V2H16.665Z" fill="#000000" class="bmwfcol"/><path d="M24.5759 4.20799L22.5759 7.67209L21.4241 7.00709L23.4241 3.54299L24.5759 4.20799Z" fill="#000000" class="bmwfcol"/><path d="M8.57589 3.54299L10.5759 7.00709L9.42407 7.67209L7.42407 4.20799L8.57589 3.54299Z" fill="#000000" class="bmwfcol"/><path d="M7.42407 27.7975L9.42407 24.3334L10.5759 24.9984L8.57589 28.4625L7.42407 27.7975Z" fill="#000000" class="bmwfcol"/><path d="M15.335 30.0055V26.0055H16.665V30.0055H15.335Z" fill="#000000" class="bmwfcol"/><path d="M23.4241 28.4625L21.4241 24.9984L22.5759 24.3334L24.5759 27.7975L23.4241 28.4625Z" fill="#000000" class="bmwfcol"/><path d="M18.6644 9.165V10.3354C19.1655 10.3361 19.5635 10.3389 19.8814 10.3484C20.3187 10.3615 20.6618 10.388 20.9397 10.4611C21.2606 10.5455 21.4777 10.6865 21.6706 10.8712C21.7465 10.9438 21.8204 11.025 21.8844 11.0954L21.8983 11.1106C21.97 11.1894 22.0445 11.2708 22.1369 11.3632L22.3317 11.5579V12.3351H23.6652V14.3319H25.325V12.8351L28.0406 12.835L28.2325 13.1675C28.6503 13.8911 28.9086 14.3883 29.0366 14.9985C29.1551 15.5634 29.155 16.203 29.155 17.1699V17.3302C29.155 18.297 29.1551 18.9366 29.0366 19.5015C28.9086 20.1117 28.6503 20.609 28.2325 21.3326L28.0406 21.6651L25.325 21.665V20.1651H23.6652V21.665H22.1739C22.0597 22.0685 21.9494 22.4155 21.8274 22.7042C21.6548 23.1126 21.4316 23.4721 21.0731 23.7285C20.7184 23.982 20.3091 24.0783 19.8831 24.1224C19.4713 24.165 18.9635 24.165 18.3669 24.165L14.1331 24.165C13.5365 24.165 13.0287 24.165 12.6169 24.1224C12.1909 24.0783 11.7817 23.9821 11.427 23.7285C11.0684 23.4722 10.8453 23.1126 10.6727 22.7042C10.5506 22.4155 10.4404 22.0685 10.3261 21.665L7.3606 21.665V17.665H5.66496L5.66496 21.002H4.33496V12.9999H5.66496L5.66496 16.335H7.3606V12.3351H9.33506V11.5579L9.52983 11.3632C9.5707 11.3223 9.61067 11.2814 9.65037 11.2409C9.97755 10.9065 10.2853 10.592 10.911 10.4547C11.2135 10.3883 11.5822 10.3615 12.0522 10.3483C12.3916 10.3388 12.8064 10.3361 13.3171 10.3354V9.165H11.9965V7.835H19.9999V9.165H18.6644ZM17.3344 9.165H14.6471V11.6651H13.9821C13.1446 11.6651 12.5424 11.6651 12.0895 11.6778C11.6306 11.6907 11.3683 11.716 11.1961 11.7538C10.9897 11.7991 10.9396 11.8343 10.6651 12.1084V13.6651H8.6906V20.335L11.3436 20.335L11.4757 20.8279C11.6446 21.4583 11.7698 21.8836 11.8977 22.1864C12.0223 22.4812 12.1219 22.5904 12.2005 22.6465C12.2829 22.7055 12.4252 22.7655 12.7539 22.7995C13.0891 22.8342 13.5279 22.835 14.1667 22.835L18.3333 22.835C18.9721 22.835 19.4109 22.8342 19.7462 22.7995C20.0749 22.7655 20.2171 22.7055 20.2996 22.6465C20.3781 22.5904 20.4777 22.4812 20.6023 22.1864C20.7303 21.8836 20.8555 21.4583 21.0244 20.8279L21.1565 20.335H22.3352V18.8351H26.655V20.335L27.2693 20.335C27.5473 19.8334 27.6681 19.5473 27.7349 19.2285C27.8216 18.8156 27.825 18.3214 27.825 17.25C27.825 16.1786 27.8216 15.6845 27.7349 15.2715C27.6681 14.9528 27.5473 14.6667 27.2693 14.165L26.655 14.165V15.6619H22.3352V13.6651H21.0017V12.1008C20.9702 12.0667 20.9413 12.0351 20.9148 12.006C20.8367 11.9202 20.7921 11.8713 20.7511 11.8321C20.6992 11.7824 20.6765 11.7671 20.6014 11.7473C20.4833 11.7163 20.2742 11.6907 19.8416 11.6778C19.4191 11.6651 18.8374 11.6651 17.9994 11.6651H17.3344V9.165Z" fill="#000000" class="bmwfcol"/><title>engine_rays_lt_48</title></svg>