<svg width="48" height="48" viewBox="0 0 32 32" xmlns="http://www.w3.org/2000/svg"><path d="M20 7.66496H17.665V9.3351C19.2119 9.3362 20.1321 9.34825 20.7554 9.47291C21.1455 9.55093 21.4511 9.67656 21.7379 9.87512C21.991 10.0504 22.2161 10.2756 22.4446 10.5042L22.665 10.7245V11.335H24.665V14.335H26.335V12.335L29.3839 12.335L29.5759 12.6675C30.0769 13.5354 30.377 14.116 30.5258 14.8255C30.6651 15.4896 30.665 16.2443 30.665 17.4168V17.5832C30.665 18.7557 30.6651 19.5104 30.5258 20.1745C30.377 20.884 30.0769 21.4646 29.5759 22.3325L29.3839 22.665L26.335 22.665V20.665H24.665V22.665H22.5079C22.3615 23.1889 22.2234 23.6311 22.0703 23.9933C21.868 24.4719 21.6125 24.8784 21.2103 25.166C20.8119 25.4508 20.3475 25.5627 19.846 25.6146C19.3588 25.665 18.7553 25.665 18.0344 25.665L12.9655 25.665C12.2446 25.665 11.6411 25.665 11.1539 25.6146C10.6524 25.5627 10.188 25.4508 9.78962 25.166C9.38735 24.8784 9.13193 24.4719 8.92962 23.9933C8.77656 23.6312 8.63846 23.1889 8.49203 22.665L5.33496 22.665V17.665H2.66496L2.66496 22H1.33496V12H2.66496L2.66496 16.335H5.33496V11.335H7.33496V10.7245L7.55533 10.5042C7.7838 10.2756 8.00891 10.0504 8.26206 9.87512C8.54887 9.67656 8.85446 9.55093 9.24454 9.47291C9.86785 9.34825 10.788 9.3362 12.335 9.3351V7.66496H10V6.33496H20V7.66496ZM13.665 7.66496V10.665H13C10.9568 10.665 10.0475 10.6687 9.50538 10.7771C9.27046 10.8241 9.13856 10.8859 9.01911 10.9686C8.91561 11.0403 8.81267 11.1327 8.66496 11.277V12.665H6.66496V21.335L9.51017 21.335L9.64223 21.8279C9.84465 22.5833 9.99697 23.1024 10.1547 23.4755C10.309 23.8406 10.4409 23.9966 10.5631 24.084C10.6893 24.1742 10.8867 24.2498 11.2908 24.2917C11.7015 24.3342 12.2361 24.335 13 24.335L17.9999 24.335C18.7637 24.335 19.2983 24.3342 19.709 24.2916C20.1132 24.2498 20.3106 24.1742 20.4368 24.084C20.5591 23.9966 20.6909 23.8405 20.8452 23.4755C21.0029 23.1023 21.1553 22.5833 21.3577 21.8279L21.4898 21.335H23.335V19.335H27.665V21.335L28.6134 21.335C28.9761 20.6869 29.1368 20.3176 29.2241 19.9015C29.3316 19.3892 29.335 18.7797 29.335 17.5C29.335 16.2203 29.3316 15.6108 29.2241 15.0985C29.1368 14.6824 28.9761 14.3131 28.6134 13.665L27.665 13.665V15.665H23.335V12.665H21.335V11.277C21.1873 11.1327 21.0843 11.0403 20.9808 10.9686C20.8614 10.8859 20.7295 10.8241 20.4945 10.7771C19.9524 10.6687 19.0431 10.665 17 10.665H16.335V7.66496H13.665Z" fill="#000000" class="bmwfcol"/><title>engine-ice_lt_48</title></svg>