<svg width="48" height="48" viewBox="0 0 32 32" xmlns="http://www.w3.org/2000/svg"><path d="M25.0134 7.33497H10.9868C10.8636 7.3349 10.6995 7.33481 10.4933 7.38526C10.294 7.43399 10.0826 7.52217 9.81634 7.65413C9.28787 7.91604 8.3892 8.43016 6.66771 9.42406L6.33521 9.61603V13.335H2.33496V18.665H6.33521V22.3839L6.66771 22.5759C8.3892 23.5698 9.28787 24.0839 9.81634 24.3458C10.0826 24.4778 10.294 24.566 10.4933 24.6147C10.6995 24.6651 10.8636 24.665 10.9868 24.665H25.0134C25.1366 24.665 25.3007 24.6651 25.5069 24.6147C25.7062 24.566 25.9176 24.4778 26.1839 24.3458C26.7123 24.0839 27.611 23.5698 29.3325 22.5759L29.665 22.3839V9.61603L29.3325 9.42406C27.611 8.43016 26.7123 7.91604 26.1839 7.65413C25.9176 7.52217 25.7062 7.43399 25.5069 7.38526C25.3007 7.33481 25.1366 7.3349 25.0134 7.33497ZM7.66521 21.616V10.384C9.10739 9.5521 9.87659 9.11459 10.335 8.88193V23.118C9.87659 22.8854 9.10739 22.4478 7.66521 21.616ZM11.665 23.335V8.66497H24.335V23.335H11.665ZM25.665 8.88179C26.1233 9.11441 26.8925 9.55193 28.335 10.384V21.616C26.8925 22.448 26.1233 22.8855 25.665 23.1182V8.88179ZM3.66496 14.665H6.33496V17.335H3.66496V14.665Z" fill="#000000" class="bmwfcol"/><path d="M16.3349 11.5V15.665L18.3349 15.665V17.835H17.2255L18.9999 20.7925L20.7746 17.835H19.6649V14.335L17.6649 14.335V11.5H16.3349Z" fill="#000000" class="bmwfcol"/><title>engine_bee_lt_48</title></svg>