<svg width="48" height="48" viewBox="0 0 32 32" xmlns="http://www.w3.org/2000/svg"><path d="M21.0798 2.07973C21.5713 1.58824 22.2489 1.33496 23 1.33496C23.7511 1.33496 24.4287 1.58824 24.9202 2.07973C25.4117 2.57123 25.665 3.24884 25.665 3.99996C25.665 4.75108 25.4117 5.42869 24.9202 5.92019C24.4287 6.41169 23.7511 6.66496 23 6.66496C22.2489 6.66496 21.5713 6.41169 21.0798 5.92019C20.5883 5.42869 20.335 4.75108 20.335 3.99996C20.335 3.24884 20.5883 2.57123 21.0798 2.07973ZM22.0202 3.02019C21.8117 3.22869 21.665 3.55108 21.665 3.99996C21.665 4.44884 21.8117 4.77123 22.0202 4.97973C22.2287 5.18824 22.5511 5.33496 23 5.33496C23.4489 5.33496 23.7713 5.18824 23.9798 4.97973C24.1883 4.77123 24.335 4.44884 24.335 3.99996C24.335 3.55108 24.1883 3.22869 23.9798 3.02019C23.7713 2.81169 23.4489 2.66496 23 2.66496C22.5511 2.66496 22.2287 2.81169 22.0202 3.02019Z" fill="#000000" class="bmwfcol"/><path d="M19.665 10.4499V18.335H21.665V30H20.335V19.665H18.335V9.70133L18.6462 9.50579C19.8616 8.74205 21.344 8.33496 23 8.33496C24.656 8.33496 26.1384 8.74205 27.3538 9.50579L27.665 9.70133V19.665H25.665V30H24.335V18.335H26.335V10.4499C25.4113 9.94808 24.2884 9.66496 23 9.66496C21.7116 9.66496 20.5887 9.94808 19.665 10.4499Z" fill="#000000" class="bmwfcol"/><path d="M2 16.665H16V15.335H9.665V12.665H13C13.4469 12.665 13.8802 12.5253 14.2027 12.2027C14.5253 11.8801 14.665 11.4469 14.665 11V6.99996C14.665 6.55302 14.5253 6.11981 14.2027 5.79724C13.8802 5.47466 13.4469 5.33496 13 5.33496H5C4.55306 5.33496 4.11984 5.47466 3.79727 5.79724C3.4747 6.11981 3.335 6.55302 3.335 6.99996V11C3.335 11.4469 3.4747 11.8801 3.79727 12.2027C4.11984 12.5253 4.55306 12.665 5 12.665H8.335V15.335H2V16.665ZM4.73773 6.73769C4.76015 6.71526 4.82694 6.66496 5 6.66496H13C13.1731 6.66496 13.2398 6.71526 13.2623 6.73769C13.2847 6.76012 13.335 6.8269 13.335 6.99996V11C13.335 11.173 13.2847 11.2398 13.2623 11.2622C13.2398 11.2847 13.1731 11.335 13 11.335H5C4.82694 11.335 4.76015 11.2847 4.73773 11.2622C4.7153 11.2398 4.665 11.173 4.665 11V6.99996C4.665 6.8269 4.7153 6.76012 4.73773 6.73769Z" fill="#000000" class="bmwfcol"/><title>ereception_lt_48</title></svg>