<svg width="48" height="48" viewBox="0 0 32 32" xmlns="http://www.w3.org/2000/svg"><path d="M12.4415 23.4395L15.9996 19.8815L19.5576 23.4395L20.4415 22.5557L16.8834 18.9976L20.4415 15.4395L19.5576 14.5557L15.9996 18.1137L12.4415 14.5557L11.5576 15.4395L15.1157 18.9976L11.5576 22.5557L12.4415 23.4395Z" fill="#000000" class="bmwfcol"/><path d="M18.3079 4.66746C17.2822 2.89079 14.7178 2.89079 13.692 4.66746L2.72235 23.6675C1.69659 25.4441 2.97879 27.665 5.0303 27.665H26.9696C29.0211 27.665 30.3033 25.4441 29.2776 23.6675L18.3079 4.66746ZM14.8438 5.33246C15.3577 4.44246 16.6423 4.44246 17.1561 5.33246L28.1258 24.3325C28.6396 25.2225 27.9973 26.335 26.9696 26.335H5.0303C4.00262 26.335 3.36032 25.2225 3.87416 24.3325L14.8438 5.33246Z" fill="#000000" class="bmwfcol"/><title>error_warning_sign_lt_48</title></svg>