<svg width="48" height="48" viewBox="0 0 32 32" xmlns="http://www.w3.org/2000/svg"><path d="M7.55256 3.16715C7.96944 2.77012 8.51278 2.67529 8.98984 2.67529C9.46691 2.67529 10.0102 2.77012 10.4271 3.16715C10.8487 3.56869 11.0148 4.15754 11.0148 4.85585C11.0148 5.55416 10.8487 6.14301 10.4271 6.54455C10.0102 6.94158 9.46691 7.0364 8.98984 7.0364C8.51278 7.0364 7.96944 6.94158 7.55256 6.54455C7.13094 6.14301 6.96484 5.55416 6.96484 4.85585C6.96484 4.15754 7.13094 3.56869 7.55256 3.16715ZM8.41463 4.07232C8.34041 4.14301 8.21484 4.33194 8.21484 4.85585C8.21484 5.37976 8.34041 5.56869 8.41463 5.63937C8.49358 5.71457 8.65024 5.7864 8.98984 5.7864C9.32944 5.7864 9.48611 5.71457 9.56506 5.63937C9.63928 5.56869 9.76484 5.37976 9.76484 4.85585C9.76484 4.33194 9.63928 4.14301 9.56506 4.07232C9.48611 3.99713 9.32944 3.92529 8.98984 3.92529C8.65024 3.92529 8.49358 3.99713 8.41463 4.07232Z" fill="#000000" class="bmwfcol"/><path d="M27.5717 7.57483V14.575H20.5719L19.4219 13.425H25.4821L18.5273 6.47024L19.4678 5.52979L26.4217 12.4837V6.42483L27.5717 7.57483Z" fill="#000000" class="bmwfcol"/><path d="M11.999 12.3354H6.49902C5.2979 12.3354 4.24526 12.7387 3.49126 13.4927C2.73726 14.2467 2.33398 15.2993 2.33398 16.5004C2.33398 17.7016 2.73726 18.7542 3.49126 19.5082C4.24526 20.2622 5.29786 20.6654 6.49898 20.6654L10.2235 20.6654L16.0828 26.5247C16.7846 27.2267 17.3316 27.7738 17.8965 28.1269C18.5275 28.5212 19.1579 28.6654 19.999 28.6654L25.499 28.6654C26.7001 28.6654 27.7527 28.2622 28.5067 27.5082C29.2607 26.7542 29.664 25.7016 29.664 24.5005C29.664 23.2993 29.2607 22.2467 28.5067 21.4927C27.7527 20.7387 26.7001 20.3354 25.4989 20.3354H21.7744L15.9151 14.4761C15.2133 13.7742 14.6663 13.2271 14.1014 12.874C13.4705 12.4797 12.8401 12.3354 11.999 12.3354ZM3.66398 16.5004C3.66398 15.6016 3.96071 14.9042 4.43171 14.4332C4.90271 13.9622 5.60072 13.6654 6.4996 13.6654H11.999C12.6579 13.6654 13.0275 13.7712 13.3965 14.0019C13.8172 14.2648 14.2567 14.6986 15.0288 15.4707L21.2235 21.6654H25.499C26.3979 21.6654 27.0953 21.9622 27.5663 22.4332C28.0373 22.9042 28.334 23.6016 28.334 24.5005C28.334 25.3993 28.0373 26.0967 27.5663 26.5677C27.0953 27.0387 26.3979 27.3354 25.499 27.3354L19.999 27.3354C19.3401 27.3354 18.9705 27.2297 18.6014 26.999C18.1807 26.7361 17.7413 26.3023 16.9692 25.5302L10.7744 19.3354H6.49898C5.6001 19.3354 4.90271 19.0387 4.43171 18.5677C3.96071 18.0967 3.66398 17.3993 3.66398 16.5004Z" fill="#000000" class="bmwfcol"/><path d="M7.16398 11.0006V9.68644C7.18043 9.66057 7.23585 9.60042 7.39956 9.52382C7.69557 9.38531 8.22428 9.26555 9.04898 9.26555C9.87588 9.26555 10.3712 9.38608 10.634 9.51685C10.7606 9.57987 10.8104 9.63381 10.8262 9.6553C10.831 9.66187 10.8332 9.66603 10.834 9.66784V11.0006H12.164V9.66797C12.164 9.05522 11.7682 8.59567 11.2265 8.32613C10.7018 8.06504 9.97209 7.93555 9.04898 7.93555C8.12369 7.93555 7.37739 8.0658 6.83591 8.31917C6.30024 8.56981 5.83398 9.01819 5.83398 9.66797V11.0006H7.16398ZM7.158 9.70023C7.1574 9.70007 7.15816 9.69636 7.16209 9.68956C7.16058 9.69698 7.15861 9.70039 7.158 9.70023Z" fill="#000000" class="bmwfcol"/><title>escalator_downwards_arrow_lt_48</title></svg>