<svg width="48" height="48" viewBox="0 0 32 32" xmlns="http://www.w3.org/2000/svg"><path d="M20.574 2.42529H13.5748L12.4248 3.57529L18.4856 3.57529L11.5312 10.5298L12.4716 11.4702L19.424 4.51787V10.5761L20.574 9.42607V2.42529Z" fill="#000000" class="bmwfcol"/><path d="M25.5009 12.335H20.0009C19.1599 12.335 18.5294 12.4792 17.8985 12.8735C17.3336 13.2266 16.7866 13.7737 16.0848 14.4756L10.2255 20.335H6.50101C5.29987 20.335 4.24721 20.7382 3.49321 21.4922C2.73921 22.2462 2.33594 23.2988 2.33594 24.5C2.33594 25.7011 2.73921 26.7537 3.49321 27.5077C4.24721 28.2617 5.29982 28.665 6.50094 28.665L12.0009 28.665C12.842 28.665 13.4725 28.5207 14.1034 28.1264C14.6683 27.7733 15.2153 27.2262 15.9171 26.5243L21.7764 20.665L25.5009 20.665C26.7021 20.665 27.7547 20.2617 28.5087 19.5077C29.2627 18.7537 29.6659 17.7011 29.6659 16.5C29.6659 15.2988 29.2627 14.2462 28.5087 13.4922C27.7547 12.7382 26.702 12.335 25.5009 12.335ZM27.5682 14.4327C28.0392 14.9037 28.3359 15.6011 28.3359 16.5C28.3359 17.3988 28.0392 18.0962 27.5682 18.5672C27.0972 19.0382 26.3998 19.335 25.5009 19.335H21.2255L15.0307 25.5297C14.2587 26.3018 13.8192 26.7356 13.3985 26.9985C13.0294 27.2292 12.6598 27.335 12.0009 27.335L6.50094 27.335C5.60206 27.335 4.90467 27.0382 4.43366 26.5672C3.96266 26.0962 3.66594 25.3988 3.66594 24.5C3.66594 23.6011 3.96266 22.9037 4.43366 22.4327C4.90467 21.9617 5.60206 21.665 6.50095 21.665H10.7764L16.9712 15.4702C17.7432 14.6981 18.1827 14.2643 18.6034 14.0014C18.9725 13.7707 19.342 13.665 20.0009 13.665H25.5003C26.3992 13.665 27.0972 13.9617 27.5682 14.4327Z" fill="#000000" class="bmwfcol"/><path d="M6.99113 9.6748C6.51406 9.6748 5.97073 9.76963 5.55385 10.1667C5.13223 10.5682 4.96613 11.157 4.96613 11.8554C4.96613 12.5537 5.13223 13.1425 5.55385 13.5441C5.97073 13.9411 6.51406 14.0359 6.99113 14.0359C7.4682 14.0359 8.01154 13.9411 8.42842 13.5441C8.85003 13.1425 9.01613 12.5537 9.01613 11.8554C9.01613 11.157 8.85003 10.5682 8.42842 10.1667C8.01154 9.76963 7.4682 9.6748 6.99113 9.6748ZM6.21613 11.8554C6.21613 11.3315 6.3417 11.1425 6.41592 11.0718C6.49487 10.9966 6.65153 10.9248 6.99113 10.9248C7.33073 10.9248 7.48739 10.9966 7.56635 11.0718C7.64056 11.1425 7.76613 11.3315 7.76613 11.8554C7.76613 12.3793 7.64056 12.5682 7.56635 12.6389C7.48739 12.7141 7.33073 12.7859 6.99113 12.7859C6.65153 12.7859 6.49487 12.7141 6.41592 12.6389C6.3417 12.5682 6.21613 12.3793 6.21613 11.8554Z" fill="#000000" class="bmwfcol"/><path d="M3.83586 19.4747C4.17168 19.3223 4.61264 19.1731 5.16586 19.0838V16.6857C5.1823 16.6599 5.23773 16.5997 5.40144 16.5231C5.69745 16.3846 6.22616 16.2649 7.05086 16.2649C7.87776 16.2649 8.37304 16.3854 8.63585 16.5162C8.76249 16.5792 8.81227 16.6331 8.82804 16.6546C8.83286 16.6612 8.83586 16.6673 8.83586 16.6673V19H9.49992L10.1659 18.3341V16.6673C10.1659 16.0545 9.77004 15.595 9.22837 15.3254C8.70368 15.0643 7.97396 14.9349 7.05086 14.9349C6.12557 14.9349 5.37927 15.0651 4.83778 15.3185C4.30211 15.5691 3.83586 16.0185 3.83586 16.6683V19.4747Z" fill="#000000" class="bmwfcol"/><title>escalator_upwards_arrow_lt_48</title></svg>