<svg width="48" height="48" viewBox="0 0 32 32" xmlns="http://www.w3.org/2000/svg"><path d="M15.4068 12.0942V10.6755L15.6491 10.7279C16.4381 10.8985 17.5952 11.1267 18.3769 11.1267C19.0505 11.1267 19.3818 11.0432 19.6595 10.8471C19.9095 10.6562 20.0342 10.3798 20.0342 10.0425C20.0342 9.74901 19.986 9.57646 19.8468 9.42849C19.7725 9.35489 19.6621 9.28792 19.4924 9.21556C19.3211 9.14251 19.107 9.07098 18.8337 8.97987L18.8329 8.97962L17.2311 8.43859L17.2308 8.43851C16.6593 8.248 16.2573 8.08795 15.9239 7.75561C15.5092 7.36381 15.3431 6.7811 15.3431 6.1368C15.3431 5.43561 15.5492 4.8236 16.1 4.34237C16.6259 3.8652 17.33 3.75045 18.2601 3.75045C19.1796 3.75045 20.1798 3.99068 21.0133 4.19115L21.1665 4.228V5.65887L20.9193 5.59883C20.167 5.41612 19.0054 5.13749 18.2814 5.13749C17.6496 5.13749 17.3296 5.20351 17.0903 5.39083C16.8663 5.57407 16.7832 5.82496 16.7832 6.1368C16.7832 6.47005 16.8347 6.62958 16.9711 6.75169C17.0427 6.81534 17.1496 6.87682 17.3066 6.94392C17.4628 7.01069 17.6543 7.07724 17.8889 7.15719L17.8895 7.15742L19.4811 7.68794C20.172 7.92179 20.6085 8.11488 20.9429 8.47324C21.2949 8.84959 21.4743 9.403 21.4743 10.0425C21.4743 10.7624 21.2207 11.3699 20.7188 11.8251L20.7176 11.8262L20.7164 11.8273C20.1432 12.3303 19.4057 12.5138 18.3344 12.5138C17.4145 12.5138 16.2887 12.2785 15.5817 12.1308L15.4068 12.0942Z" fill="#000000" class="bmwfcol"/><path d="M14.7529 12.3333H8.77031V3.93088H14.5831V5.31792H10.1892V7.35899H14.3496V8.74603H10.1892V10.9463H14.7529V12.3333Z" fill="#000000" class="bmwfcol"/><path d="M28.6112 12.246L28.7804 12.2197V7.65616H27.3616V11.0122C26.9385 11.0635 26.3251 11.1267 25.8104 11.1267C25.3236 11.1267 24.9628 11.0546 24.6931 10.9186C24.4287 10.7852 24.2385 10.5837 24.1018 10.2963L24.1016 10.2958C23.8887 9.85058 23.7922 9.15693 23.7922 8.19579C23.7922 7.2441 23.8996 6.4361 24.1319 5.97152L24.1325 5.97042C24.2869 5.65672 24.4762 5.45671 24.7297 5.32997C24.9896 5.20001 25.336 5.13749 25.821 5.13749C26.1391 5.13749 26.4708 5.19718 26.8244 5.26146C27.3169 5.35581 27.8318 5.48185 28.256 5.5879L28.5045 5.65002V4.22005L28.3545 4.18133C28.022 4.09553 27.5609 3.98828 27.0776 3.90232C26.6834 3.82776 26.2225 3.75045 25.7467 3.75045C24.993 3.75045 24.4195 3.87597 23.9683 4.11461C23.5147 4.3545 23.2012 4.69992 22.9539 5.1102L22.9535 5.11092C22.4996 5.87119 22.3521 6.95821 22.3521 8.2064C22.3521 9.40141 22.4997 10.3891 22.865 11.041C23.0934 11.464 23.3864 11.8389 23.8416 12.1044C24.2955 12.3692 24.8907 12.5138 25.7042 12.5138C26.6964 12.5138 27.7912 12.3738 28.6112 12.246Z" fill="#000000" class="bmwfcol"/><path d="M23.3865 18.8962C23.0885 17.8385 22.5577 16.9163 21.8212 16.1798C20.6297 14.9883 18.9521 14.335 17.0009 14.335H15.3359V16C15.3359 17.9511 15.9892 19.6287 17.1807 20.8202C18.3722 22.0117 20.0498 22.665 22.0009 22.665H22.3359V25.708C20.6027 26.7506 18.4619 27.335 16.0009 27.335C12.5521 27.335 9.72966 26.1883 7.77116 24.2298C5.81266 22.2713 4.66594 19.4489 4.66594 16C4.66594 12.7135 5.70724 9.99585 7.5 8.05254V6.21332C7.26853 6.40959 7.04533 6.61515 6.83071 6.82977C4.58921 9.07127 3.33594 12.2489 3.33594 16C3.33594 19.7511 4.58921 22.9287 6.83071 25.1702C9.07221 27.4117 12.2498 28.665 16.0009 28.665C18.832 28.665 21.3377 27.9517 23.3636 26.6337L23.6659 26.437L23.6659 23.665H24.0009C25.3521 23.665 26.5297 23.2117 27.3712 22.3702C28.2127 21.5287 28.6659 20.3511 28.6659 19V17.335H27.0009C25.6498 17.335 24.4722 17.7883 23.6307 18.6298C23.5453 18.7152 23.4639 18.8041 23.3865 18.8962ZM24.5712 19.5702C25.1297 19.0117 25.9521 18.665 27.0009 18.665H27.3359V19C27.3359 20.0489 26.9892 20.8713 26.4307 21.4298C25.8722 21.9883 25.0498 22.335 24.0009 22.335H23.6659V22C23.6659 20.9511 24.0127 20.1287 24.5712 19.5702ZM16.6659 16V15.665H17.0009C18.6498 15.665 19.9722 16.2117 20.8807 17.1202C21.7892 18.0287 22.3359 19.3511 22.3359 21V21.335H22.0009C20.3521 21.335 19.0297 20.7883 18.1212 19.8798C17.2127 18.9713 16.6659 17.6489 16.6659 16Z" fill="#000000" class="bmwfcol"/><title>esg_lt_48</title></svg>