<svg width="48" height="48" viewBox="0 0 32 32" xmlns="http://www.w3.org/2000/svg"><path d="M21.6064 7.665L24.9414 11H23.0605L19.0605 7.00002L23.0605 3H24.9414L21.6064 6.335H30.001V7.665H21.6064Z" fill="#000000" class="bmwfcol"/><path d="M9.27639 3.33496H3.33594V28.665H21.2764L24.9414 25L21.2764 21.335H18.6064L20.9414 19L17.2764 15.335H14.6064L16.9414 13L13.2764 9.33496H10.6064L12.9414 6.99996L9.27639 3.33496ZM16.7255 21.335H4.66594V16.665H16.7255L19.0605 19L16.7255 21.335ZM4.66594 22.665H20.7255L23.0605 25L20.7255 27.335H4.66594V22.665ZM12.7255 15.335H4.66594V10.665H12.7255L15.0605 13L12.7255 15.335ZM8.72549 9.33496H4.66594V4.66496H8.72549L11.0605 6.99996L8.72549 9.33496Z" fill="#000000" class="bmwfcol"/><title>eu_energy_label_lt_48</title></svg>