<svg width="48" height="48" viewBox="0 0 32 32" xmlns="http://www.w3.org/2000/svg"><path d="M19.5 13.8554V15.2342C18.1621 15.5824 16.9544 15.7019 16.0138 15.7214L16 15.7217C14.9381 15.7217 14.1583 15.5427 13.5705 15.2073C12.9693 14.8643 12.6397 14.3977 12.4126 13.9696C11.9439 13.0863 11.775 11.7485 11.775 10.0283C11.775 8.30805 11.9439 6.97027 12.4126 6.08692C12.6397 5.65888 12.9693 5.19227 13.5705 4.84923C14.1583 4.51383 14.9381 4.33496 16 4.33496H16.0138C16.9544 4.35448 18.1621 4.47415 19.5 4.82236V6.20116C18.1483 5.81293 16.9241 5.68479 15.9932 5.66496C15.0739 5.66574 14.5482 5.82258 14.2296 6.0044C13.9235 6.17904 13.7459 6.41174 13.5875 6.71028C13.3285 7.19828 13.1592 8.03462 13.116 9.33496H18V10.665H13.1142C13.1544 11.9977 13.3248 12.8512 13.5875 13.3463C13.7459 13.6448 13.9235 13.8775 14.2296 14.0521C14.5482 14.234 15.0739 14.3908 15.9932 14.3916C16.9241 14.3718 18.1483 14.2436 19.5 13.8554Z" fill="#000000" class="bmwfcol"/><path d="M29.4704 16.5297C29.1821 16.2414 28.7919 15.9206 28.2502 15.7166C27.7038 15.5108 27.0498 15.441 26.2581 15.5824C24.8326 15.8372 22.9341 16.7816 20.2868 18.9045C20.2579 18.8701 20.2275 18.8368 20.1953 18.8047C19.8787 18.4882 19.4511 18.335 19 18.335L14.0878 18.335L10.3558 17.335L10.2055 17.3349C9.6195 17.3345 9.13111 17.3341 8.56144 17.6827C8.29789 17.844 8.03096 18.0693 7.72213 18.3578C7.41277 18.6468 7.03122 19.0283 6.53908 19.5205L2.05957 24L7.72457 29.665H9.27547L11.2755 27.665H15.0196C16.003 27.665 16.7675 27.665 17.3788 27.6328C17.996 27.6003 18.5023 27.5335 18.9604 27.3808C19.8611 27.0806 20.4671 26.4743 21.3805 25.5603L29.9408 16.9999L29.4704 16.5297ZM19.255 19.7453C19.2885 19.7788 19.3352 19.8511 19.3352 19.9998L19.3351 20.721C18.4746 21.5508 17.8598 21.9291 17.2898 22.1191C16.6607 22.3288 16.0238 22.335 15.0003 22.335H11V23.665L15.0598 23.665C16.0119 23.6651 16.8574 23.6652 17.7105 23.3808C18.5983 23.0849 19.4344 22.506 20.4702 21.4702L20.665 21.2755L20.6652 20.3116C23.5039 17.9647 25.3248 17.1003 26.4921 16.8917C27.0753 16.7875 27.4838 16.8491 27.7813 16.9612C27.858 16.9901 27.9304 17.0235 27.9991 17.0607L20.53 24.5297C19.4944 25.5654 19.11 25.9291 18.5399 26.1191C18.2479 26.2164 17.8792 26.2746 17.3089 26.3046C16.7367 26.3348 16.0071 26.335 15 26.335H10.7246L8.72457 28.335H8.27547L3.94047 24L7.47025 20.4702C7.97361 19.9668 8.33922 19.6014 8.63005 19.3297C8.92335 19.0557 9.11069 18.9059 9.25566 18.8172C9.47236 18.6846 9.60188 18.6665 10.1811 18.6651L13.9127 19.665L19 19.665C19.1489 19.665 19.2214 19.7117 19.255 19.7453Z" fill="#000000" class="bmwfcol"/><title>euro_symbol_on_hand_lt_48</title></svg>