<svg width="48" height="48" viewBox="0 0 32 32" xmlns="http://www.w3.org/2000/svg"><path d="M26.5846 14.5C27.3677 13.817 27.9749 13.1235 28.4355 12.4049C29.3755 10.9383 29.6659 9.42717 29.6659 7.81814V2.33496H16.3359V7.81814C16.3359 8.75136 16.4336 9.65165 16.6991 10.5294C17.2422 10.5473 17.713 10.5756 18.1376 10.6199C17.7932 9.74821 17.6659 8.83156 17.6659 7.81814V3.66496H28.3359V7.81814C28.3359 9.25275 28.0809 10.4934 27.3158 11.6873C26.7265 12.6066 25.8127 13.5326 24.4095 14.5H26.5846Z" fill="#000000" class="bmwfcol"/><path d="M23.6659 8.33496V6H22.3359V8.33496H20V9.66496H22.3359V12H23.6659V9.66496L26 9.66496V8.33496L23.6659 8.33496Z" fill="#000000" class="bmwfcol"/><path d="M13.156 20.085H10.2235L9.33398 20.9745V23.6933L10.5861 25.665H13.5244L13.999 25.1904L14.4735 25.665H17.4568L18.664 23.6869L18.664 20.9745L17.7744 20.085H14.842L13.999 20.5065L13.156 20.085ZM10.664 21.5254L10.7744 21.415H12.842L13.3359 21.6619V23.9726L12.9735 24.335H11.317L10.664 23.3067V21.5254ZM14.6659 23.9765V21.66L15.156 21.415H17.2235L17.334 21.5254L17.334 23.3131L16.7103 24.335H15.0244L14.6659 23.9765Z" fill="#000000" class="bmwfcol"/><path d="M3.20468 19.1013C3.70989 18.4851 4.3117 17.9311 4.89751 17.3907C4.73137 17.2997 4.52043 17.2407 4.19038 17.2061C3.69664 17.1542 3.03951 17.165 2 17.165V15.835C2.98383 15.835 3.74528 15.822 4.32919 15.8833C4.76833 15.9294 5.15259 16.0207 5.50549 16.2075C5.69523 15.8481 5.91513 15.4578 6.15432 15.0765C6.42884 14.6389 6.73747 14.1992 7.06389 13.8285C7.38088 13.4685 7.7591 13.1217 8.18278 12.9357C9.34058 12.4277 10.1504 12.3351 14.001 12.3351C17.8513 12.3351 18.6624 12.4276 19.8193 12.9358C20.2424 13.1224 20.6211 13.4695 20.9381 13.8295C21.2644 14.2003 21.573 14.6398 21.8475 15.0772C22.0864 15.4579 22.3061 15.8477 22.4957 16.2065C22.8479 16.0205 23.2316 15.9294 23.6698 15.8834C24.2537 15.8222 25.0154 15.8351 25.9992 15.8351V17.1651C25.2698 17.1651 24.535 17.13 23.8086 17.2062C23.4796 17.2407 23.2691 17.2994 23.1034 17.3898C23.729 17.9656 24.3392 18.5427 24.7972 19.1013C25.2574 19.6627 25.6659 20.3237 25.6659 21.0429V29.6651H20.3359V28.4629C16.0477 28.7458 11.9542 28.7458 7.66594 28.4629V29.6651H2.33594V21.0429C2.33594 20.3237 2.74443 19.6627 3.20468 19.1013ZM8.71732 14.1536C8.55786 14.2236 8.3336 14.3991 8.06206 14.7074C7.79991 15.0051 7.5339 15.3801 7.28098 15.7832C7.03946 16.1683 6.81781 16.5662 6.63074 16.9255C6.87744 16.9018 7.14811 16.8843 7.44494 16.8711C8.93623 16.8048 10.4318 16.8322 11.924 16.8322C13.3081 16.8349 14.6921 16.8341 16.0762 16.8322C18.0835 16.8281 19.5226 16.8252 20.5533 16.8711C20.8516 16.8844 21.1235 16.902 21.3712 16.9259C21.1841 16.5668 20.9624 16.169 20.7209 15.7842C20.468 15.3811 20.202 15.0062 19.9397 14.7083C19.6684 14.4001 19.444 14.2241 19.284 14.1534C18.425 13.776 17.8999 13.6651 14.001 13.6651C10.1018 13.6651 9.5778 13.776 8.71732 14.1536ZM21.9097 18.349C21.5975 18.2778 21.1518 18.2291 20.4941 18.1998C19.0327 18.1347 17.5701 18.1622 16.1079 18.1622C14.7023 18.1649 13.2966 18.1649 11.891 18.1622C10.4297 18.1596 8.96445 18.1348 7.50407 18.1998C6.84603 18.2291 6.39987 18.2778 6.08731 18.349C5.83155 18.4073 5.70039 18.4732 5.62619 18.5281C5.03455 19.0766 4.40858 19.6348 3.95891 20.3121C5.10316 20.593 6.30106 20.7366 8 20.857V22.1903C6.23488 22.0675 4.9329 21.9184 3.66594 21.6095V28.3351H6.33594V27.0348L7.04929 27.0868C11.7727 27.4312 16.2292 27.4312 20.9526 27.0868L21.6659 27.0348V28.3351H24.3359V21.6104C23.0685 21.9194 21.7661 22.0686 20 22.1914V20.8581C21.7002 20.7376 22.8986 20.594 24.0435 20.3128C23.6022 19.6478 22.9893 19.0989 22.4088 18.5599C22.3438 18.4998 22.2165 18.419 21.9097 18.349Z" fill="#000000" class="bmwfcol"/><title>extended-warraty_lt_48</title></svg>