<svg width="48" height="48" viewBox="0 0 32 32" xmlns="http://www.w3.org/2000/svg"><path d="M2.96281 15.6895V16.3104C6.11728 21.3426 11.0365 24.335 16 24.335C20.9635 24.335 25.8827 21.3426 29.0372 16.3104V15.6895C25.8827 10.6573 20.9635 7.66496 16 7.66496C11.0365 7.66496 6.11728 10.6573 2.96281 15.6895ZM1.73118 15.1519C5.07249 9.71257 10.4332 6.33496 16 6.33496C21.5668 6.33496 26.9275 9.71257 30.2688 15.1519L30.3672 15.312V16.6879L30.2688 16.848C26.9275 22.2874 21.5668 25.665 16 25.665C10.4332 25.665 5.07249 22.2874 1.73118 16.848L1.63281 16.6879V15.312L1.73118 15.1519Z" fill="#000000" class="bmwfcol"/><path d="M12.8452 12.8452C12.1117 13.5787 11.665 14.6511 11.665 16C11.665 17.3488 12.1117 18.4212 12.8452 19.1547C13.5787 19.8882 14.6511 20.335 16 20.335C18.6119 20.335 20.335 18.4153 20.335 16C20.335 14.6511 19.8883 13.5787 19.1548 12.8452C18.4213 12.1117 17.3489 11.665 16 11.665C14.6511 11.665 13.5787 12.1117 12.8452 12.8452ZM11.9048 11.9047C12.9213 10.8882 14.3489 10.335 16 10.335C17.6511 10.335 19.0787 10.8882 20.0952 11.9047C21.1117 12.9212 21.665 14.3488 21.665 16C21.665 19.1075 19.3881 21.665 16 21.665C14.3489 21.665 12.9213 21.1117 11.9048 20.0952C10.8883 19.0787 10.335 17.6511 10.335 16C10.335 14.3488 10.8883 12.9212 11.9048 11.9047Z" fill="#000000" class="bmwfcol"/><title>eye_lt_48</title></svg>