<svg width="48" height="48" viewBox="0 0 32 32" xmlns="http://www.w3.org/2000/svg"><path d="M10.4575 7.45752C12.2334 6.72646 14.1048 6.33496 16 6.33496C21.5668 6.33496 26.9275 9.71257 30.2688 15.1519L30.3672 15.312V16.6879L30.2688 16.848C28.9181 19.0468 27.2375 20.9086 25.3467 22.3467L24.3972 21.3972C26.1607 20.0865 27.7466 18.3692 29.0372 16.3104V15.6895C25.8827 10.6573 20.9635 7.66496 16 7.66496C14.4743 7.66496 12.9528 7.94768 11.4855 8.48546L10.4575 7.45752Z" fill="#000000" class="bmwfcol"/><path d="M21.5424 24.5424C19.7665 25.2735 17.8952 25.665 16 25.665C10.4332 25.665 5.07249 22.2874 1.73118 16.848L1.63281 16.6879V15.312L1.73118 15.1519C3.08183 12.9532 4.76246 11.0913 6.65328 9.65328L7.60274 10.6027C5.83926 11.9134 4.25335 13.6308 2.96281 15.6895V16.3104C6.11728 21.3426 11.0365 24.335 16 24.335C17.5257 24.335 19.0471 24.0522 20.5145 23.5145L21.5424 24.5424Z" fill="#000000" class="bmwfcol"/><path d="M18.2452 21.2452C17.5727 21.5156 16.8188 21.665 16 21.665C14.3488 21.665 12.9212 21.1117 11.9047 20.0952C10.8882 19.0787 10.335 17.6511 10.335 16C10.335 15.1814 10.4709 14.4178 10.7319 13.7319L11.796 14.796C11.7104 15.1679 11.665 15.5699 11.665 16C11.665 17.3488 12.1117 18.4212 12.8452 19.1547C13.5787 19.8882 14.6511 20.335 16 20.335C16.4213 20.335 16.8195 20.285 17.1911 20.1911L18.2452 21.2452Z" fill="#000000" class="bmwfcol"/><path d="M21.2391 18.2391C21.5165 17.5509 21.665 16.7933 21.665 16C21.665 14.3488 21.1117 12.9212 20.0952 11.9047C19.0787 10.8882 17.6511 10.335 16 10.335C15.1814 10.335 14.4178 10.4709 13.7319 10.7319L14.796 11.796C15.1679 11.7104 15.5699 11.665 16 11.665C17.3488 11.665 18.4212 12.1117 19.1547 12.8452C19.8882 13.5787 20.335 14.6511 20.335 16C20.335 16.4129 20.2846 16.8113 20.1881 17.1881L21.2391 18.2391Z" fill="#000000" class="bmwfcol"/><path d="M28.9404 28H27.0595L3.05953 4H4.94043L28.9404 28Z" fill="#000000" class="bmwfcol"/><title>eye-crossed-out_lt_48</title></svg>