<svg width="48" height="48" viewBox="0 0 32 32" xmlns="http://www.w3.org/2000/svg"><path d="M6.99996 5.66499H11V4.33499H6.99996C6.23495 4.33499 5.542 4.5425 5.04223 5.04227C4.54247 5.54203 4.33496 6.23498 4.33496 6.99999V11H5.66496V6.99999C5.66496 6.465 5.80745 6.15795 5.98269 5.98272C6.15792 5.80748 6.46497 5.66499 6.99996 5.66499Z" fill="#000000" class="bmwfcol"/><path d="M25 5.66499H21V4.33499H25C25.765 4.33499 26.4579 4.5425 26.9577 5.04227C27.4575 5.54203 27.665 6.23498 27.665 6.99999V11H26.335V6.99999C26.335 6.465 26.1925 6.15795 26.0172 5.98272C25.842 5.80748 25.535 5.66499 25 5.66499Z" fill="#000000" class="bmwfcol"/><path d="M25 26.335H21V27.665H25C25.765 27.665 26.4579 27.4575 26.9577 26.9577C27.4575 26.4579 27.665 25.765 27.665 25V21H26.335V25C26.335 25.535 26.1925 25.842 26.0172 26.0173C25.842 26.1925 25.535 26.335 25 26.335Z" fill="#000000" class="bmwfcol"/><path d="M6.99996 26.335H11V27.665H6.99996C6.23495 27.665 5.542 27.4575 5.04223 26.9577C4.54247 26.4579 4.33496 25.765 4.33496 25V21H5.66496V25C5.66496 25.535 5.80745 25.842 5.98269 26.0173C6.15792 26.1925 6.46497 26.335 6.99996 26.335Z" fill="#000000" class="bmwfcol"/><path d="M9.83472 11C9.83472 10.3566 10.3563 9.83502 10.9997 9.83502C11.6431 9.83502 12.1647 10.3566 12.1647 11C12.1647 11.6434 11.6431 12.165 10.9997 12.165C10.3563 12.165 9.83472 11.6434 9.83472 11Z" fill="#000000" class="bmwfcol"/><path d="M19.8347 11C19.8347 10.3566 20.3563 9.83502 20.9997 9.83502C21.6431 9.83502 22.1647 10.3566 22.1647 11C22.1647 11.6434 21.6431 12.165 20.9997 12.165C20.3563 12.165 19.8347 11.6434 19.8347 11Z" fill="#000000" class="bmwfcol"/><path d="M15.045 11L13.2585 17.6991L13.5491 17.9897C14.0538 18.4946 14.7239 19.165 15.9999 19.165H16.9999V17.835H15.9999C15.4296 17.835 15.1052 17.6322 14.7427 17.2955L16.4215 11H15.045Z" fill="#000000" class="bmwfcol"/><path d="M10.9999 21.4189V22.8817C12.3342 23.4255 14.0552 23.7082 15.9999 23.7082C17.9445 23.7082 19.6655 23.4255 20.9999 22.8817V21.4189C19.8732 22.0051 18.1632 22.3782 15.9999 22.3782C13.8365 22.3782 12.1265 22.0051 10.9999 21.4189Z" fill="#000000" class="bmwfcol"/><title>face_in_target_frame_lt_48</title></svg>