<svg width="48" height="48" viewBox="0 0 32 32" xmlns="http://www.w3.org/2000/svg"><path d="M4.07589 1.87326L7.07589 7.06941L5.92407 7.73441L2.92407 2.53826L4.07589 1.87326Z" fill="#000000" class="bmwfcol"/><path d="M8.00002 8.83501C7.35661 8.83501 6.83502 9.3566 6.83502 10C6.83502 10.6434 7.35661 11.165 8.00002 11.165C8.64343 11.165 9.16502 10.6434 9.16502 10C9.16502 9.3566 8.64343 8.83501 8.00002 8.83501Z" fill="#000000" class="bmwfcol"/><path d="M24 23.165H20.5V21.835H24V23.165Z" fill="#000000" class="bmwfcol"/><path d="M15 23.165H18.5V21.835H15V23.165Z" fill="#000000" class="bmwfcol"/><path d="M13.1766 15.335H11.335V26.335H8.66502L8.66502 13.95L8.00003 13.95L7.33502 15.1304V26.335H2V27.665H30V26.335H27.665V17.6141L23.6766 15.335H21.835V17.335H21.7014L18.7014 15.335H16.835V17.335H16.6766L13.1766 15.335ZM26.335 26.335H12.665V16.665H12.8234L16.3234 18.665H18.165V16.665H18.2987L21.2987 18.665H23.165V16.665H23.3234L26.335 18.3859V26.335Z" fill="#000000" class="bmwfcol"/><path d="M5.92405 12.2655L2.92405 17.4617L4.07587 18.1267L7.07587 12.9305L5.92405 12.2655Z" fill="#000000" class="bmwfcol"/><path d="M16.9999 10.665H10.9999V9.33501H16.9999V10.665Z" fill="#000000" class="bmwfcol"/><title>factory_building_and_wind_turbine_lt_48</title></svg>