<svg width="48" height="48" viewBox="0 0 32 32" xmlns="http://www.w3.org/2000/svg"><path d="M20.668 9.3335H19.3335V12.3335H19.1573L13.1573 9.3335H11.8335V12.3335H11.6573L5.65734 9.3335H4.3335L4.3335 26.3335H2V27.6665H20V26.3335H5.6665L5.6665 10.8284L11.3427 13.6665H13.1665V10.8284L18.8427 13.6665H20.6665V10.8466L26.3335 13.8981L26.3335 16H27.6665L27.6665 13.1019L20.668 9.3335Z" fill="#000000" class="bmwfcol"/><path d="M12 18.6665H8V17.3335H12V18.6665Z" fill="#000000" class="bmwfcol"/><path d="M8 22.6665H12V21.3335H8V22.6665Z" fill="#000000" class="bmwfcol"/><path d="M17 15.3335H15.3335V17C15.3335 18.9515 15.9869 20.6295 17.1787 21.8213C18.3705 23.0131 20.0485 23.6665 22 23.6665H22.3335V28H23.6665V24.6665H24C25.3515 24.6665 26.5295 24.2131 27.3713 23.3713C28.2131 22.5295 28.6665 21.3515 28.6665 20V18.3335H27C25.6485 18.3335 24.4705 18.7869 23.6287 19.6287C23.5439 19.7135 23.4631 19.8017 23.3863 19.8931C23.088 18.8363 22.5573 17.9148 21.8213 17.1787C20.6295 15.9869 18.9515 15.3335 17 15.3335ZM23.6665 23C23.6665 21.9515 24.0131 21.1295 24.5713 20.5713C25.1295 20.0131 25.9515 19.6665 27 19.6665H27.3335V20C27.3335 21.0485 26.9869 21.8705 26.4287 22.4287C25.8705 22.9869 25.0485 23.3335 24 23.3335H23.6665V23ZM16.6665 17V16.6665H17C18.6485 16.6665 19.9705 17.2131 20.8787 18.1213C21.7869 19.0295 22.3335 20.3515 22.3335 22V22.3335H22C20.3515 22.3335 19.0295 21.7869 18.1213 20.8787C17.2131 19.9705 16.6665 18.6485 16.6665 17Z" fill="#000000" class="bmwfcol"/><title>factory_building_and_leafs_lt_48</title></svg>