<svg width="48" height="48" viewBox="0 0 32 32" xmlns="http://www.w3.org/2000/svg"><path d="M8.00024 18.665H12.0002V17.335H8.00024V18.665Z" fill="#000000" class="bmwfcol"/><path d="M18.0002 18.665H14.0002V17.335H18.0002V18.665Z" fill="#000000" class="bmwfcol"/><path d="M20.0002 18.665H24.0002V17.335H20.0002V18.665Z" fill="#000000" class="bmwfcol"/><path d="M12.0002 22.665H8.00024V21.335H12.0002V22.665Z" fill="#000000" class="bmwfcol"/><path d="M14.0002 22.665H18.0002V21.335H14.0002V22.665Z" fill="#000000" class="bmwfcol"/><path d="M24.0002 22.665H20.0002V21.335H24.0002V22.665Z" fill="#000000" class="bmwfcol"/><path d="M19.3352 9.335H20.6679L27.6652 13.1028L27.6653 26.335H30.3652V27.665H2.36523V26.335H4.33527L4.33522 9.335H5.6572L11.6572 12.335H11.8352V9.335H13.1572L19.1572 12.335H19.3352V9.335ZM5.66527 26.335H26.3353L26.3352 13.8972L20.6652 10.8441V13.665H18.8432L13.1652 10.826V13.665H11.3432L5.66522 10.826L5.66527 26.335Z" fill="#000000" class="bmwfcol"/><title>factory_building_lt_48</title></svg>