<svg width="48" height="48" viewBox="0 0 32 32" xmlns="http://www.w3.org/2000/svg"><path d="M11.665 8V4H10.335V8H11.665Z" fill="#000000" class="bmwfcol"/><path d="M7.93469 8.99424L5.10626 6.16581L4.16581 7.10626L6.99424 9.93469L7.93469 8.99424Z" fill="#000000" class="bmwfcol"/><path d="M15.0058 9.93469L17.8342 7.10627L16.8937 6.16581L14.0653 8.99424L15.0058 9.93469Z" fill="#000000" class="bmwfcol"/><path d="M6 12.335H2V13.665H6V12.335Z" fill="#000000" class="bmwfcol"/><path d="M6.99424 16.0653L4.16581 18.8937L5.10627 19.8342L7.93469 17.0058L6.99424 16.0653Z" fill="#000000" class="bmwfcol"/><path d="M9.5 16.345C8.22379 15.7718 7.33502 14.4897 7.33502 13C7.33502 10.9759 8.9759 9.33499 11 9.33499C13.0241 9.33499 14.665 10.9759 14.665 13C14.665 13.1696 14.6535 13.3365 14.6312 13.5H13.2814C13.3165 13.3389 13.335 13.1716 13.335 13C13.335 11.7104 12.2896 10.665 11 10.665C9.71044 10.665 8.66502 11.7104 8.66502 13C8.66502 13.7185 8.98954 14.3612 9.5 14.7895V16.345Z" fill="#000000" class="bmwfcol"/><path d="M24 23.165H20.5V21.835H24V23.165Z" fill="#000000" class="bmwfcol"/><path d="M15 23.165H18.5V21.835H15V23.165Z" fill="#000000" class="bmwfcol"/><path d="M13.1766 15.335H11.335V26.335H9V27.665H30V26.335H27.665V17.6141L23.6766 15.335H21.835V17.335H21.7014L18.7014 15.335H16.835V17.335H16.6766L13.1766 15.335ZM26.335 26.335H12.665V16.665H12.8234L16.3234 18.665H18.165V16.665H18.2987L21.2987 18.665H23.165V16.665H23.3234L26.335 18.3859V26.335Z" fill="#000000" class="bmwfcol"/><title>factory_building_and_sun_lt_48</title></svg>