<svg width="48" height="48" viewBox="0 0 32 32" xmlns="http://www.w3.org/2000/svg"><path d="M19.664 6.33496V17.4593C19.2022 17.4581 18.7392 17.4574 18.334 17.484V7.61962C17.913 7.55948 17.5509 7.44255 17.2268 7.28697C16.7673 7.06641 16.4044 6.77599 16.1022 6.53422C15.7831 6.27889 15.5078 6.06183 15.1955 5.91197C15.0416 5.83805 14.8683 5.77458 14.664 5.73049V15.0516C14.2723 14.9635 13.8491 14.9107 13.334 14.8793V4.33496C14.1728 4.33496 14.9954 4.34061 15.7711 4.71294C16.2305 4.93349 16.5935 5.2239 16.8956 5.46566C17.2147 5.72099 17.4901 5.93807 17.8023 6.08794C18.389 6.36952 19.0311 6.33496 19.664 6.33496Z" fill="#000000" class="bmwfcol"/><path d="M24.773 4.71294C25.2325 4.93349 25.6142 5.23891 25.9163 5.48067C26.2355 5.73599 26.492 5.93807 26.8043 6.08794C27.3909 6.36952 28.0331 6.33496 28.6659 6.33496V19.665C27.8271 19.665 27.0045 19.6593 26.2288 19.287C25.8114 19.0866 25.4451 18.807 25.0854 18.5192C24.7663 18.2639 24.5097 18.0618 24.1975 17.912C24.0435 17.838 23.8702 17.7746 23.6659 17.7305V30H22.3359L22.3359 4.33496C23.1748 4.33496 23.9973 4.34061 24.773 4.71294ZM25.0854 6.51922C24.7663 6.26389 24.5097 6.06183 24.1975 5.91197C24.0435 5.83805 23.8703 5.77458 23.6659 5.73049V16.3803C24.0869 16.4404 24.4489 16.5574 24.773 16.7129C25.1904 16.9133 25.5566 17.1929 25.9163 17.4807C26.2355 17.736 26.492 17.9381 26.8043 18.0879C26.9583 18.1619 27.1315 18.2253 27.3359 18.2694V7.61962C26.9149 7.55948 26.5529 7.44255 26.2288 7.28697C25.7693 7.06641 25.3876 6.76099 25.0854 6.51922Z" fill="#000000" class="bmwfcol"/><path d="M10.4079 22.1475H8.10049L7.33594 22.912V25.0683L8.34991 26.665H10.7139L11.0009 26.3779L11.288 26.665H13.6876L14.6659 25.0619V22.912L13.9014 22.1475H11.594L11.0009 22.444L10.4079 22.1475ZM8.66594 24.6817V23.4775H10.094L10.3359 23.5985V25.162L10.163 25.335H9.08082L8.66594 24.6817ZM11.6659 25.162V23.5985L11.9079 23.4775H13.3359L13.3359 24.6881L12.9411 25.335H11.8389L11.6659 25.162Z" fill="#000000" class="bmwfcol"/><path d="M8.1615 16.4191C8.72713 16.3532 9.55594 16.335 11.001 16.335C13.6404 16.335 14.2792 16.4031 15.1816 16.7996C15.5317 16.954 15.8352 17.2357 16.0786 17.5122C16.3313 17.7993 16.5681 18.1371 16.7767 18.4695C16.9487 18.7436 17.1074 19.0236 17.246 19.2839C17.5475 19.1139 17.8726 19.0351 18.2348 18.9971C18.6842 18.95 19.268 18.96 19.9992 18.96V20.29C19.2129 20.29 18.7326 20.2822 18.3736 20.3199C18.2373 20.3342 18.0777 20.3358 17.9815 20.4401C18.3479 20.7839 18.6981 21.1307 18.9767 21.4705C19.3267 21.8974 19.6659 22.4319 19.6659 23.0321V29.665H15.3359V28.7748C12.2943 28.9717 9.70757 28.9717 6.66594 28.7748V29.665H2.33594V23.0321C2.33594 22.4319 2.67514 21.8974 3.02518 21.4705C3.30339 21.1311 3.65307 20.7848 4.01902 20.4413C3.92201 20.3363 3.76296 20.3343 3.62543 20.3199C3.2665 20.2822 2.78619 20.29 2 20.29V18.96C2.73083 18.96 3.31508 18.95 3.76424 18.9971C4.12733 19.0352 4.45305 19.1143 4.75506 19.285C4.89383 19.0242 5.05283 18.7436 5.22514 18.4689C5.43373 18.1364 5.67053 17.7985 5.92338 17.5114C6.1668 17.235 6.46971 16.9535 6.82049 16.7995C7.229 16.6202 7.54902 16.4904 8.1615 16.4191ZM15.6501 19.1764C15.409 18.7921 15.0847 18.211 14.6461 18.017C14.0367 17.7493 13.6731 17.665 11.001 17.665C9.53985 17.665 8.7905 17.6848 8.3153 17.7402C7.88698 17.79 7.70341 17.8645 7.35511 18.0173C6.91677 18.2099 6.59233 18.7923 6.35181 19.1757C6.23423 19.3631 6.12293 19.5549 6.02107 19.74C7.16254 19.6874 8.30775 19.7057 9.45001 19.708C10.4849 19.7101 11.5198 19.7101 12.5547 19.708C13.696 19.7057 14.8402 19.6874 15.9806 19.74C15.8788 19.5552 15.7676 19.3636 15.6501 19.1764ZM5.20762 21.1527C4.78581 21.5411 4.35168 21.9315 3.99702 22.3844C4.71145 22.5406 5.48024 22.633 6.5 22.7101V24.0438C5.38166 23.9617 4.5055 23.8602 3.66594 23.6732V28.335H5.33594V27.3472C9.11333 27.6226 12.8877 27.6226 16.6659 27.3472V28.335H18.3359V23.6726C17.4957 23.86 16.6191 23.9617 15.5 24.0439V22.7101C16.5204 22.6329 17.2895 22.5404 18.0044 22.3839C17.65 21.9313 17.2162 21.5413 16.7948 21.1532C16.5805 21.1138 16.284 21.0848 15.8642 21.0661C15.1206 21.033 14.0794 21.035 12.5858 21.038C11.529 21.0401 10.4721 21.0401 9.41521 21.038C7.9215 21.035 6.88045 21.033 6.1364 21.0661C5.71803 21.0847 5.42189 21.1136 5.20762 21.1527Z" fill="#000000" class="bmwfcol"/><title>fairs_lt_48</title></svg>