<svg width="48" height="48" viewBox="0 0 32 32" xmlns="http://www.w3.org/2000/svg"><path d="M9.00094 5.33496C8.0457 5.33496 7.08501 5.53793 6.37446 6.24848C5.66604 6.9569 5.33594 8.04006 5.33594 9.49996C5.33594 10.9599 5.66604 12.043 6.37446 12.7514C7.08501 13.462 8.0457 13.665 9.00094 13.665C9.95617 13.665 10.9169 13.462 11.6274 12.7514C12.3358 12.043 12.6659 10.9599 12.6659 9.49996C12.6659 8.04006 12.3358 6.9569 11.6274 6.24848C10.9169 5.53793 9.95617 5.33496 9.00094 5.33496ZM6.66594 9.49996C6.66594 8.20986 6.96083 7.54302 7.31491 7.18894C7.66686 6.83699 8.20617 6.66496 9.00094 6.66496C9.7957 6.66496 10.335 6.83699 10.687 7.18894C11.041 7.54302 11.3359 8.20986 11.3359 9.49996C11.3359 10.7901 11.041 11.4569 10.687 11.811C10.335 12.1629 9.7957 12.335 9.00094 12.335C8.20617 12.335 7.66686 12.1629 7.31491 11.811C6.96083 11.4569 6.66594 10.7901 6.66594 9.49996Z" fill="#000000" class="bmwfcol"/><path d="M2.33398 23H3.66398V19.0881C4.05445 17.655 4.36593 17.214 4.88425 16.9819C5.19319 16.8435 5.63209 16.7557 6.31967 16.7104C7.00355 16.6653 7.86557 16.665 8.99903 16.665C10.0361 16.665 10.8459 16.6652 11.5 16.6998V15.3681C10.8174 15.335 9.99772 15.335 9.02165 15.335H8.97653C7.87025 15.335 6.96479 15.335 6.23215 15.3833C5.49823 15.4317 4.86883 15.5314 4.34057 15.7681C3.19444 16.2814 2.75786 17.3279 2.35657 18.8281L2.33398 18.9126V23Z" fill="#000000" class="bmwfcol"/><path d="M20.5 16.6997V15.3681C21.1822 15.335 22.0013 15.335 22.9764 15.335H23.0215C24.1278 15.335 25.0333 15.335 25.7659 15.3833C26.4998 15.4317 27.1292 15.5314 27.6575 15.7681C28.7181 16.2431 29.1711 17.1747 29.5508 18.5H28.1603C27.844 17.5256 27.5532 17.1787 27.1138 16.9819C26.8049 16.8435 26.366 16.7557 25.6784 16.7104C24.9945 16.6653 24.1325 16.665 22.999 16.665C21.963 16.665 21.1537 16.6652 20.5 16.6997Z" fill="#000000" class="bmwfcol"/><path d="M23.0009 5.33496C22.0457 5.33496 21.085 5.53793 20.3745 6.24848C19.666 6.9569 19.3359 8.04006 19.3359 9.49996C19.3359 10.9599 19.666 12.043 20.3745 12.7514C21.085 13.462 22.0457 13.665 23.0009 13.665C23.9562 13.665 24.9169 13.462 25.6274 12.7514C26.3358 12.043 26.6659 10.9599 26.6659 9.49996C26.6659 8.04006 26.3358 6.9569 25.6274 6.24848C24.9169 5.53793 23.9562 5.33496 23.0009 5.33496ZM20.6659 9.49996C20.6659 8.20986 20.9608 7.54302 21.3149 7.18894C21.6669 6.83699 22.2062 6.66496 23.0009 6.66496C23.7957 6.66496 24.335 6.83699 24.687 7.18894C25.041 7.54302 25.3359 8.20986 25.3359 9.49996C25.3359 10.7901 25.041 11.4569 24.687 11.811C24.335 12.1629 23.7957 12.335 23.0009 12.335C22.2062 12.335 21.6669 12.1629 21.3149 11.811C20.9608 11.4569 20.6659 10.7901 20.6659 9.49996Z" fill="#000000" class="bmwfcol"/><path d="M18.9651 18.6048C18.5305 18.8208 18.1293 19.1048 17.7757 19.4584C17.4453 19.7888 17.1756 20.1608 16.9655 20.5628C16.6495 20.6368 16.3223 20.665 15.999 20.665C15.1852 20.665 14.3468 20.4867 13.7253 19.8474C13.11 19.2145 12.834 18.2592 12.834 17C12.834 15.7408 13.11 14.7854 13.7253 14.1525C14.3468 13.5133 15.1852 13.335 15.999 13.335C16.8128 13.335 17.6512 13.5133 18.2727 14.1525C18.888 14.7854 19.164 15.7408 19.164 17C19.164 17.606 19.1001 18.1416 18.9651 18.6048ZM14.6789 15.0796C14.4088 15.3574 14.164 15.902 14.164 17C14.164 18.0979 14.4088 18.6425 14.6789 18.9203C14.9429 19.1918 15.3544 19.335 15.999 19.335C16.6435 19.335 17.0551 19.1918 17.3191 18.9203C17.5891 18.6425 17.834 18.0979 17.834 17C17.834 15.902 17.5891 15.3574 17.3191 15.0796C17.0551 14.8081 16.6435 14.665 15.999 14.665C15.3544 14.665 14.9429 14.8081 14.6789 15.0796Z" fill="#000000" class="bmwfcol"/><path d="M16.436 22.3352C16.4135 22.5392 16.4023 22.746 16.4023 22.9545C16.4023 23.1958 16.4171 23.4328 16.445 23.6652C16.3027 23.665 16.1541 23.665 15.999 23.665C15.1139 23.665 14.4453 23.6655 13.9085 23.7096C13.3725 23.7537 13.0366 23.8373 12.7972 23.9634C12.3822 24.1819 12.0701 24.6265 11.6882 26H10.3105L10.3565 25.8281C10.7554 24.337 11.1849 23.3092 12.1775 22.7865C12.6504 22.5376 13.1952 22.4338 13.7995 22.3841C14.3969 22.335 15.1194 22.335 15.973 22.335H16.0249C16.1654 22.335 16.3025 22.335 16.436 22.3352Z" fill="#000000" class="bmwfcol"/><path d="M21.2738 19.335C20.2364 19.335 19.3201 19.6837 18.6616 20.3422C18.003 21.0008 17.6543 21.917 17.6543 22.9545C17.6543 24.8081 18.7699 26.446 19.9687 27.7032C21.1546 28.947 22.5307 29.9294 23.3308 30.5007L23.5607 30.665H24.4415L24.6714 30.5008C25.4715 29.9295 26.8476 28.947 28.0335 27.7032C29.2323 26.446 30.3479 24.8081 30.3479 22.9545C30.3479 21.917 29.9992 21.0008 29.3407 20.3422C28.6821 19.6837 27.7659 19.335 26.7284 19.335C25.6159 19.335 24.6545 19.7379 24.0011 20.4627C23.3478 19.7379 22.3863 19.335 21.2738 19.335ZM18.9843 22.9545C18.9843 22.2193 19.2265 21.6582 19.602 21.2827C19.9776 20.9071 20.5386 20.665 21.2738 20.665C22.311 20.665 23.0182 21.1429 23.3459 21.8655L23.5229 22.2559H24.4793L24.6563 21.8655C24.984 21.1429 25.6913 20.665 26.7284 20.665C27.4636 20.665 28.0247 20.9071 28.4002 21.2827C28.7758 21.6582 29.0179 22.2193 29.0179 22.9545C29.0179 24.2827 28.2018 25.5994 27.071 26.7854C26.033 27.874 24.8231 28.757 24.0152 29.335H23.987C23.1791 28.757 21.9693 27.874 20.9313 26.7854C19.8005 25.5994 18.9843 24.2827 18.9843 22.9545Z" fill="#000000" class="bmwfcol"/><title>family_and_heart_lt_48</title></svg>