<svg width="48" height="48" viewBox="0 0 32 32" xmlns="http://www.w3.org/2000/svg"><path d="M3.66496 28H2.33496V25.0514C2.33496 24.3152 2.40632 23.5243 2.68476 22.7657C2.8831 22.2254 3.12262 21.7598 3.46796 21.3886C3.82325 21.0067 4.25333 20.7642 4.767 20.6118C5.26488 20.464 5.84866 20.3988 6.52537 20.3669C7.20151 20.335 8.05271 20.335 9.02249 20.335C9.77064 20.335 10.4269 20.335 11 20.3499V21.6803C10.4434 21.6651 9.78717 21.665 9 21.665C8.01244 21.665 7.22936 21.6651 6.58808 21.6954C5.94392 21.7258 5.48774 21.7852 5.1454 21.8868C4.81883 21.9838 4.6084 22.1153 4.4417 22.2945C4.26506 22.4844 4.1011 22.7669 3.93331 23.224C3.73073 23.7759 3.66496 24.3917 3.66496 25.0514V28Z" fill="#000000" class="bmwfcol"/><path d="M7.31398 12.189C6.95989 12.5431 6.665 13.2099 6.665 14.5C6.665 15.7901 6.95989 16.4569 7.31398 16.811C7.66593 17.163 8.20524 17.335 9 17.335C9.79476 17.335 10.3341 17.163 10.686 16.811C11.0401 16.4569 11.335 15.7901 11.335 14.5C11.335 13.2099 11.0401 12.5431 10.686 12.189C10.3341 11.837 9.79476 11.665 9 11.665C8.20524 11.665 7.66593 11.837 7.31398 12.189ZM6.37352 11.2485C7.08407 10.538 8.04476 10.335 9 10.335C9.95524 10.335 10.9159 10.538 11.6265 11.2485C12.3349 11.9569 12.665 13.0401 12.665 14.5C12.665 15.9599 12.3349 17.0431 11.6265 17.7515C10.9159 18.462 9.95524 18.665 9 18.665C8.04476 18.665 7.08407 18.462 6.37352 17.7515C5.66511 17.0431 5.335 15.9599 5.335 14.5C5.335 13.0401 5.66511 11.9569 6.37352 11.2485Z" fill="#000000" class="bmwfcol"/><path d="M21 21.6803V20.3499C21.5731 20.335 22.2294 20.335 22.9775 20.335C23.9473 20.335 24.7985 20.335 25.4746 20.3669C26.1513 20.3988 26.7351 20.464 27.233 20.6118C27.7467 20.7642 28.1768 21.0067 28.5321 21.3886C28.8774 21.7598 29.1169 22.2254 29.3152 22.7657C29.5937 23.5243 29.665 24.3152 29.665 25.0514V28H28.335V25.0514C28.335 24.3917 28.2693 23.7759 28.0667 23.224C27.8989 22.7669 27.735 22.4844 27.5583 22.2945C27.3916 22.1153 27.1812 21.9838 26.8546 21.8868C26.5123 21.7852 26.0561 21.7258 25.4119 21.6954C24.7706 21.6651 23.9876 21.665 23 21.665C22.2128 21.665 21.5566 21.6651 21 21.6803Z" fill="#000000" class="bmwfcol"/><path d="M21.314 12.189C20.9599 12.5431 20.665 13.2099 20.665 14.5C20.665 15.7901 20.9599 16.4569 21.314 16.811C21.6659 17.163 22.2052 17.335 23 17.335C23.7948 17.335 24.3341 17.163 24.686 16.811C25.0401 16.4569 25.335 15.7901 25.335 14.5C25.335 13.2099 25.0401 12.5431 24.686 12.189C24.3341 11.837 23.7948 11.665 23 11.665C22.2052 11.665 21.6659 11.837 21.314 12.189ZM20.3735 11.2485C21.0841 10.538 22.0448 10.335 23 10.335C23.9552 10.335 24.9159 10.538 25.6265 11.2485C26.3349 11.9569 26.665 13.0401 26.665 14.5C26.665 15.9599 26.3349 17.0431 25.6265 17.7515C24.9159 18.462 23.9552 18.665 23 18.665C22.0448 18.665 21.0841 18.462 20.3735 17.7515C19.6651 17.0431 19.335 15.9599 19.335 14.5C19.335 13.0401 19.6651 11.9569 20.3735 11.2485Z" fill="#000000" class="bmwfcol"/><path d="M11.6888 30H10.3112L10.3572 29.8281C10.756 28.337 11.1856 27.3092 12.1782 26.7865C12.651 26.5376 13.1959 26.4338 13.8001 26.3841C14.3976 26.335 15.1201 26.335 15.9738 26.335C16.8274 26.335 17.6017 26.335 18.1991 26.3841C18.8034 26.4338 19.3482 26.5376 19.8211 26.7865C20.8137 27.3092 21.2432 28.337 21.6421 29.8281L21.6881 30H20.3104C19.9285 28.6265 19.6164 28.1819 19.2014 27.9634C18.9621 27.8373 18.6261 27.7537 18.0901 27.7096C17.5533 27.6655 16.8847 27.665 15.9996 27.665C15.1145 27.665 14.4459 27.6655 13.9091 27.7096C13.3731 27.7537 13.0372 27.8373 12.7978 27.9634C12.3829 28.1819 12.0708 28.6265 11.6888 30Z" fill="#000000" class="bmwfcol"/><path d="M14.6799 19.0796C14.4098 19.3574 14.165 19.9021 14.165 21C14.165 22.0979 14.4098 22.6426 14.6799 22.9204C14.9439 23.1919 15.3554 23.335 16 23.335C16.6446 23.335 17.0561 23.1919 17.3201 22.9204C17.5902 22.6426 17.835 22.0979 17.835 21C17.835 19.9021 17.5902 19.3574 17.3201 19.0796C17.0561 18.8081 16.6446 18.665 16 18.665C15.3554 18.665 14.9439 18.8081 14.6799 19.0796ZM13.7263 18.1525C14.3478 17.5133 15.1862 17.335 16 17.335C16.8138 17.335 17.6522 17.5133 18.2737 18.1525C18.889 18.7854 19.165 19.7408 19.165 21C19.165 22.2592 18.889 23.2146 18.2737 23.8475C17.6522 24.4867 16.8138 24.665 16 24.665C15.1862 24.665 14.3478 24.4867 13.7263 23.8475C13.111 23.2146 12.835 22.2592 12.835 21C12.835 19.7408 13.111 18.7854 13.7263 18.1525Z" fill="#000000" class="bmwfcol"/><path d="M2 11.8512V10.3155L16.0007 2.23218L30 10.3147V11.8505L16.0007 3.76793L2 11.8512Z" fill="#000000" class="bmwfcol"/><title>family_lt_48</title></svg>