<svg width="48" height="48" viewBox="0 0 32 32" xmlns="http://www.w3.org/2000/svg"><path d="M11.5309 11.5298C15.5571 7.5036 20.722 3.33508 28.0009 3.33508H28.6659V4.00008C28.6659 9.10632 26.6145 13.1722 23.9999 16.5345V16.665H23.8979C22.8134 18.0445 21.6363 19.305 20.4712 20.4701C18.4645 22.4768 17.1153 23.5837 15.3214 24.1356C13.6244 24.6578 11.5695 24.6651 8.27599 24.6651L4.47073 28.4704L3.53027 27.5299L7.33594 23.7242C7.33595 20.4312 7.34322 18.3765 7.86538 16.6796C8.41736 14.8857 9.52419 13.5366 11.5309 11.5298ZM23.2427 15.335C25.4764 12.3621 27.159 8.89964 27.3228 4.67819C20.9526 4.9254 16.3106 8.63108 12.4714 12.4703C10.4779 14.4638 9.58462 15.6146 9.13656 17.0707C8.74874 18.331 8.68043 19.8519 8.66847 22.3917L17.5303 13.5299L18.4707 14.4704L9.60852 23.3326C12.1488 23.3206 13.6698 23.2523 14.9303 22.8645C16.0747 22.5123 17.0306 21.8851 18.3552 20.665L14.335 20.665L15.665 19.335H19.7246C20.5649 18.4875 21.396 17.6008 22.1831 16.665L18.335 16.665L19.665 15.335H23.2427Z" fill="#000000" class="bmwfcol"/><title>feather_lt_48</title></svg>