<svg width="48" height="48" viewBox="0 0 32 32" xmlns="http://www.w3.org/2000/svg"><path d="M18.5 10.0491C17.9063 10.0491 17.425 10.5304 17.425 11.1241C17.425 11.7178 17.9063 12.1991 18.5 12.1991C19.0937 12.1991 19.575 11.7178 19.575 11.1241C19.575 10.5304 19.0937 10.0491 18.5 10.0491Z" fill="#000000" class="bmwfcol"/><path d="M23.5 10.0491C22.9063 10.0491 22.425 10.5304 22.425 11.1241C22.425 11.7178 22.9063 12.1991 23.5 12.1991C24.0937 12.1991 24.575 11.7178 24.575 11.1241C24.575 10.5304 24.0937 10.0491 23.5 10.0491Z" fill="#000000" class="bmwfcol"/><path d="M21.0002 16.789C19.5549 16.789 18.2856 16.4977 17.4771 15.8936L18.2732 14.8281C18.7489 15.1835 19.6791 15.459 21.0002 15.459C22.3212 15.459 23.2515 15.1835 23.7271 14.8281L24.5232 15.8936C23.7147 16.4977 22.4455 16.789 21.0002 16.789Z" fill="#000000" class="bmwfcol"/><path d="M21 4.83409C18.5989 4.83409 16.5463 5.63737 15.0923 7.09137C13.6383 8.54536 12.835 10.598 12.835 12.9991C12.835 15.4002 13.6383 17.4528 15.0923 18.9068C16.5463 20.3608 18.5989 21.1641 21 21.1641C23.4012 21.1641 25.4538 20.3608 26.9078 18.9068C28.3618 17.4528 29.165 15.4002 29.165 12.9991C29.165 10.598 28.3618 8.54536 26.9078 7.09137C25.4538 5.63737 23.4012 4.83409 21 4.83409ZM14.165 12.9991C14.165 10.9002 14.8618 9.20282 16.0328 8.03182C17.2038 6.86082 18.9012 6.16409 21 6.16409C23.0989 6.16409 24.7963 6.86082 25.9673 8.03182C27.1383 9.20282 27.835 10.9002 27.835 12.9991C27.835 15.098 27.1383 16.7954 25.9673 17.9664C24.7963 19.1374 23.0989 19.8341 21 19.8341C18.9012 19.8341 17.2038 19.1374 16.0328 17.9664C14.8618 16.7954 14.165 15.098 14.165 12.9991Z" fill="#000000" class="bmwfcol"/><path d="M14.2306 5.38584C14.0813 5.51657 13.936 5.65257 13.7947 5.79382C13.5851 6.00343 13.3871 6.22206 13.2006 6.44909C12.5303 6.26303 11.7962 6.16405 11.0051 6.16405C8.90621 6.16405 7.20882 6.86077 6.03781 8.03177C4.86681 9.20277 4.17009 10.9002 4.17009 12.999C4.17009 15.0979 4.86681 16.7953 6.03781 17.9663C7.20882 19.1373 8.90621 19.834 11.0051 19.834C11.7962 19.834 12.5302 19.7351 13.2006 19.549C13.387 19.7761 13.5851 19.9947 13.7947 20.2044C13.936 20.3456 14.0813 20.4816 14.2305 20.6123C13.2568 20.9743 12.1721 21.164 11.0051 21.164C8.60397 21.164 6.55136 20.3608 5.09736 18.9068C3.64336 17.4528 2.84009 15.4002 2.84009 12.999C2.84009 10.5979 3.64336 8.54532 5.09736 7.09132C6.55136 5.63732 8.60397 4.83405 11.0051 4.83405C12.1722 4.83405 13.2569 5.02382 14.2306 5.38584Z" fill="#000000" class="bmwfcol"/><path d="M11.0601 14.2093C11.1061 14.6655 11.1784 15.1122 11.2767 15.5476C11.1881 15.5419 11.0975 15.539 11.0051 15.539C9.8123 15.539 8.93484 16.02 8.43276 16.7703L7.32741 16.0306C8.10948 14.8619 9.43151 14.209 11.0051 14.209C11.0235 14.209 11.0418 14.2091 11.0601 14.2093Z" fill="#000000" class="bmwfcol"/><path d="M7.25509 11.7397V10.3834L9.75509 9.88337V11.2397L7.25509 11.7397Z" fill="#000000" class="bmwfcol"/><path d="M3.33504 25.9991V22.9991H4.66504V25.9991H3.33504ZM15.335 25.9991V22.9991H16.665V25.9991H15.335ZM27.335 25.9991V22.9991H28.665V25.9991H27.335ZM7.33504 25.9991V23.9991H8.66504V25.9991H7.33504ZM11.335 25.9991V23.9991H12.665V25.9991H11.335ZM19.335 25.9991V23.9991H20.665V25.9991H19.335ZM23.335 25.9991V23.9991H24.665V25.9991H23.335Z" fill="#000000" class="bmwfcol"/><path d="M23.0001 28.1V30H25.0001V28.1L24.3 27.4L23.7001 27.4L23.0001 28.1Z" fill="#000000" class="bmwfcol"/><title>feedback_score_lt_48</title></svg>