<svg width="48" height="48" viewBox="0 0 32 32" xmlns="http://www.w3.org/2000/svg"><path d="M12.0009 11.835C11.3575 11.835 10.8359 12.3565 10.8359 13C10.8359 13.6434 11.3575 14.165 12.0009 14.165C12.6443 14.165 13.1659 13.6434 13.1659 13C13.1659 12.3565 12.6443 11.835 12.0009 11.835Z" fill="#000000" class="bmwfcol"/><path d="M20.0009 11.835C19.3575 11.835 18.8359 12.3565 18.8359 13C18.8359 13.6434 19.3575 14.165 20.0009 14.165C20.6444 14.165 21.1659 13.6434 21.1659 13C21.1659 12.3565 20.6444 11.835 20.0009 11.835Z" fill="#000000" class="bmwfcol"/><path d="M15.9996 20.665C13.8486 20.665 12.2585 21.1105 11.3977 21.7538L10.6016 20.6883C11.7953 19.7964 13.7244 19.335 15.9996 19.335C18.2748 19.335 20.2039 19.7964 21.3977 20.6883L20.6016 21.7538C19.7407 21.1105 18.1506 20.665 15.9996 20.665Z" fill="#000000" class="bmwfcol"/><path d="M16.0009 3.33496C12.2498 3.33496 9.07221 4.58824 6.83071 6.82973C4.58921 9.07123 3.33594 12.2488 3.33594 16C3.33594 19.7511 4.58921 22.9287 6.83071 25.1702C9.07221 27.4117 12.2498 28.665 16.0009 28.665C19.7521 28.665 22.9297 27.4117 25.1712 25.1702C27.4127 22.9287 28.6659 19.7511 28.6659 16C28.6659 12.2488 27.4127 9.07123 25.1712 6.82973C22.9297 4.58824 19.7521 3.33496 16.0009 3.33496ZM4.66594 16C4.66594 12.5511 5.81266 9.72869 7.77116 7.77019C9.72967 5.81169 12.5521 4.66496 16.0009 4.66496C19.4498 4.66496 22.2722 5.81169 24.2307 7.77019C26.1892 9.72869 27.3359 12.5511 27.3359 16C27.3359 19.4488 26.1892 22.2712 24.2307 24.2297C22.2722 26.1882 19.4498 27.335 16.0009 27.335C12.5521 27.335 9.72967 26.1882 7.77116 24.2297C5.81266 22.2712 4.66594 19.4488 4.66594 16Z" fill="#000000" class="bmwfcol"/><title>feedback-2-bad_lt_48</title></svg>