<svg width="48" height="48" viewBox="0 0 32 32" xmlns="http://www.w3.org/2000/svg"><path d="M12.0009 11.835C11.3575 11.835 10.8359 12.3565 10.8359 13C10.8359 13.6434 11.3575 14.165 12.0009 14.165C12.6443 14.165 13.1659 13.6434 13.1659 13C13.1659 12.3565 12.6443 11.835 12.0009 11.835Z" fill="#000000" class="bmwfcol"/><path d="M20.0009 11.835C19.3575 11.835 18.8359 12.3565 18.8359 13C18.8359 13.6434 19.3575 14.165 20.0009 14.165C20.6444 14.165 21.1659 13.6434 21.1659 13C21.1659 12.3565 20.6444 11.835 20.0009 11.835Z" fill="#000000" class="bmwfcol"/><path d="M15.9999 24.665C19.6048 24.665 22.694 22.4642 24 19.3343V18.3L22.789 18.3075C20.9668 18.8995 18.6646 19.235 15.9999 19.235C13.3353 19.235 11.0331 18.8995 9.21084 18.3075L8 18.3V19.3347C9.30609 22.4644 12.3953 24.665 15.9999 24.665ZM22.2444 19.8506C20.9518 21.9421 18.638 23.335 15.9999 23.335C13.3619 23.335 11.048 21.9421 9.75548 19.8506C11.5516 20.3169 13.6614 20.565 15.9999 20.565C18.3385 20.565 20.4482 20.3169 22.2444 19.8506Z" fill="#000000" class="bmwfcol"/><path d="M6.83071 6.82973C9.07221 4.58824 12.2498 3.33496 16.0009 3.33496C19.7521 3.33496 22.9297 4.58824 25.1712 6.82973C27.4127 9.07123 28.6659 12.2488 28.6659 16C28.6659 19.7511 27.4127 22.9287 25.1712 25.1702C22.9297 27.4117 19.7521 28.665 16.0009 28.665C12.2498 28.665 9.07221 27.4117 6.83071 25.1702C4.58921 22.9287 3.33594 19.7511 3.33594 16C3.33594 12.2488 4.58921 9.07123 6.83071 6.82973ZM7.77116 7.77019C5.81266 9.72869 4.66594 12.5511 4.66594 16C4.66594 19.4488 5.81266 22.2712 7.77116 24.2297C9.72967 26.1882 12.5521 27.335 16.0009 27.335C19.4498 27.335 22.2722 26.1882 24.2307 24.2297C26.1892 22.2712 27.3359 19.4488 27.3359 16C27.3359 12.5511 26.1892 9.72869 24.2307 7.77019C22.2722 5.81169 19.4498 4.66496 16.0009 4.66496C12.5521 4.66496 9.72967 5.81169 7.77116 7.77019Z" fill="#000000" class="bmwfcol"/><title>feedback-5-very-good_lt_48</title></svg>