<svg width="48" height="48" viewBox="0 0 32 32" xmlns="http://www.w3.org/2000/svg"><path d="M11.5526 21.812C12.4399 20.486 13.9772 19.665 15.9999 19.665C18.0226 19.665 19.56 20.486 20.4473 21.812L21.5526 21.0723C20.3853 19.3279 18.4034 18.335 15.9999 18.335C13.5965 18.335 11.6146 19.3279 10.4473 21.0723L11.5526 21.812Z" fill="#000000" class="bmwfcol"/><path d="M10 13.5781V12.2218L14 11.4218V12.7781L10 13.5781Z" fill="#000000" class="bmwfcol"/><path d="M22 12.2218V13.5781L18 12.7781V11.4218L22 12.2218Z" fill="#000000" class="bmwfcol"/><path d="M16.0009 3.33496C12.2498 3.33496 9.07221 4.58824 6.83071 6.82973C4.58921 9.07123 3.33594 12.2488 3.33594 16C3.33594 19.7511 4.58921 22.9287 6.83071 25.1702C9.07221 27.4117 12.2498 28.665 16.0009 28.665C19.7521 28.665 22.9297 27.4117 25.1712 25.1702C27.4127 22.9287 28.6659 19.7511 28.6659 16C28.6659 12.2488 27.4127 9.07123 25.1712 6.82973C22.9297 4.58824 19.7521 3.33496 16.0009 3.33496ZM4.66594 16C4.66594 12.5511 5.81266 9.72869 7.77116 7.77019C9.72967 5.81169 12.5521 4.66496 16.0009 4.66496C19.4498 4.66496 22.2722 5.81169 24.2307 7.77019C26.1892 9.72869 27.3359 12.5511 27.3359 16C27.3359 19.4488 26.1892 22.2712 24.2307 24.2297C22.2722 26.1882 19.4498 27.335 16.0009 27.335C12.5521 27.335 9.72967 26.1882 7.77116 24.2297C5.81266 22.2712 4.66594 19.4488 4.66594 16Z" fill="#000000" class="bmwfcol"/><title>feedback-1-very-bad_lt_48</title></svg>