<svg width="48" height="48" viewBox="0 0 32 32" xmlns="http://www.w3.org/2000/svg"><path d="M27.5897 6.34064C27.6038 6.34233 27.6257 6.34533 27.6516 6.3506L28.665 6.557V25.6652H27.509C27.463 25.6652 27.4172 25.6611 27.3721 25.6529C23.8178 25.0066 20.1729 24.9789 16.6097 25.5728L15.6089 25.7396C11.901 26.3576 8.10877 26.3298 4.41023 25.6598C4.39612 25.6581 4.37422 25.6551 4.34835 25.6498L3.33496 25.4434V6.33521H4.49094C4.5369 6.33521 4.58271 6.33936 4.62781 6.34756C8.18217 6.9938 11.827 7.02154 15.3902 6.42766L16.391 6.26086C20.099 5.64287 23.8912 5.67059 27.5897 6.34064ZM24.665 7.28167V9.94617C25.5585 10.0258 26.4493 10.1423 27.335 10.2955V7.64614C26.4496 7.48628 25.5588 7.36477 24.665 7.28167ZM23.335 7.18647C22.4457 7.14177 21.5548 7.13493 20.665 7.16599V9.83521C21.5548 9.80541 22.4456 9.81198 23.335 9.85486V7.18647ZM19.335 7.24072C18.4417 7.30997 17.5509 7.41759 16.665 7.5636V10.2164C17.5512 10.0765 18.442 9.97329 19.335 9.90689V7.24072ZM15.335 7.78402C14.4487 7.92398 13.5579 8.02714 12.665 8.09354V10.7597C13.5582 10.6905 14.4491 10.5828 15.335 10.4368V7.78402ZM11.335 8.16522C10.4451 8.19501 9.55429 8.18845 8.66496 8.14557V10.814C9.55425 10.8587 10.4451 10.8655 11.335 10.8344V8.16522ZM7.33496 8.05426C6.44146 7.97459 5.55065 7.85812 4.66496 7.7049V10.3543C5.55027 10.5141 6.44116 10.6357 7.33496 10.7188V8.05426ZM4.66496 11.7049V20.3543C8.18918 20.9907 11.8017 21.0192 15.335 20.4368V11.784C11.7995 12.3424 8.19162 12.315 4.66496 11.7049ZM4.66496 21.7049V24.3543C5.55027 24.5142 6.44116 24.6357 7.33496 24.7188V22.0543C6.44146 21.9746 5.55065 21.8581 4.66496 21.7049ZM8.66496 24.814C9.55425 24.8587 10.4451 24.8655 11.335 24.8344V22.1652C10.4451 22.195 9.55429 22.1884 8.66496 22.1456V24.814ZM12.665 24.7597C13.5582 24.6905 14.4491 24.5828 15.335 24.4368V21.784C14.4487 21.924 13.5579 22.0271 12.665 22.0935V24.7597ZM16.665 24.2164C17.5512 24.0764 18.442 23.9733 19.335 23.9069V21.2407C18.4417 21.31 17.5509 21.4176 16.665 21.5636V24.2164ZM20.665 23.8352C21.5548 23.8054 22.4456 23.812 23.335 23.8549V21.1865C22.4457 21.1418 21.5548 21.1349 20.665 21.166V23.8352ZM24.665 23.9462C25.5585 24.0258 26.4493 24.1423 27.335 24.2955V21.6461C26.4496 21.4863 25.5588 21.3648 24.665 21.2817V23.9462ZM27.335 20.2955V11.6461C23.8107 11.0098 20.1982 10.9812 16.665 11.5636V20.2164C20.2004 19.6581 23.8083 19.6854 27.335 20.2955Z" fill="#000000" class="bmwfcol"/><title>film_strip_lt_48</title></svg>