<svg width="48" height="48" viewBox="0 0 32 32" xmlns="http://www.w3.org/2000/svg"><path d="M3.08887 5.33496H28.4189V6.77541L21.2241 13.9702C20.2604 14.9339 19.8522 15.5601 19.6458 16.3235C19.4243 17.1431 19.4189 18.163 19.4189 20V25.3819L13.7908 28.665H12.0889V20C12.0889 18.163 12.0834 17.1431 11.8619 16.3235C11.6556 15.5601 11.2474 14.9339 10.2837 13.9702L3.08887 6.77541V5.33496ZM4.85932 6.66496L11.2241 13.0297C12.2604 14.066 12.8522 14.8898 13.1458 15.9765C13.4191 16.9873 13.419 18.1905 13.4189 19.9005L13.4312 27.335L18.0889 24.618V19.9005C18.0888 18.1905 18.0887 16.9873 18.3619 15.9765C18.6556 14.8898 19.2474 14.066 20.2837 13.0297L26.6484 6.66496H4.85932Z" fill="#000000" class="bmwfcol"/><title>filter_lt_48</title></svg>