<svg width="48" height="48" viewBox="0 0 32 32" xmlns="http://www.w3.org/2000/svg"><path d="M7.77019 7.77023C6.63506 8.90536 5.77262 10.3307 5.2481 12H3.86112C4.42751 9.97365 5.43819 8.22133 6.82973 6.82978C9.07123 4.58828 12.2488 3.33501 16 3.33501C19.7511 3.33501 22.9287 4.58828 25.1702 6.82978C27.4117 9.07128 28.665 12.2489 28.665 16H27.335C27.335 12.5511 26.1882 9.72873 24.2297 7.77023C22.2712 5.81173 19.4488 4.66501 16 4.66501C12.5511 4.66501 9.72869 5.81173 7.77019 7.77023Z" fill="#000000" class="bmwfcol"/><path d="M3.45931 14H4.80097C4.7112 14.6401 4.66496 15.3074 4.66496 16C4.66496 17.4499 4.86764 18.7892 5.2481 20H3.86112C3.51516 18.7623 3.33496 17.4224 3.33496 16C3.33496 15.3134 3.37695 14.646 3.45931 14Z" fill="#000000" class="bmwfcol"/><path d="M19 7.77623C18.0406 7.47426 17.0287 7.33501 16 7.33501C13.4488 7.33501 11.2712 8.18828 9.72973 9.72978C8.18823 11.2713 7.33496 13.4489 7.33496 16C7.33496 17.2996 7.62284 18.2628 7.86562 19.075C7.89122 19.1607 7.91641 19.245 7.94062 19.3275C8.00873 19.5596 8.07028 19.7811 8.11969 20H9.47714C9.41055 19.6346 9.31578 19.2903 9.21684 18.9531C9.19193 18.8682 9.16683 18.7838 9.14179 18.6997C8.90025 17.8882 8.66496 17.0977 8.66496 16C8.66496 13.7511 9.41168 11.9287 10.6702 10.6702C11.9287 9.41173 13.7511 8.66501 16 8.66501C17.0555 8.66501 18.0677 8.82949 19 9.18303V7.77623Z" fill="#000000" class="bmwfcol"/><path d="M23.7181 26C24.1236 24.1201 24.335 22.1153 24.335 20C24.335 15.7003 23.3078 12.8777 21.7978 11.1382C21.5467 10.849 21.2802 10.5873 21 10.352V8.70482C21.6503 9.12008 22.2561 9.63724 22.8021 10.2663C24.5921 12.3283 25.665 15.5058 25.665 20C25.665 22.101 25.4646 24.1062 25.0769 26H23.7181Z" fill="#000000" class="bmwfcol"/><path d="M9.47715 22H8.11853C7.85278 23.1645 7.34736 24.1782 6.63605 25H8.29447C8.8334 24.1633 9.22629 23.2022 9.45008 22.1367C9.45973 22.0907 9.46875 22.0452 9.47715 22Z" fill="#000000" class="bmwfcol"/><path d="M9.45202 28H11.1871C12.4196 26.3643 13.2257 24.3611 13.5292 22.088C13.6967 20.834 13.4448 19.8473 13.1867 18.925L13.1374 18.7497C12.8957 17.891 12.6649 17.0712 12.6649 16C12.6649 14.9511 13.0117 14.1287 13.5702 13.5702C14.1287 13.0117 14.9511 12.665 15.9999 12.665C17.0532 12.665 18.0878 12.9868 18.8807 13.9779C19.6963 14.9974 20.3349 16.821 20.3349 19.9999C20.3349 22.9456 19.8412 25.6309 18.9219 28H20.3416C21.2075 25.5896 21.6649 22.9032 21.6649 19.9999C21.6649 16.6789 21.0036 14.5026 19.9192 13.1471C18.8121 11.7632 17.3467 11.335 15.9999 11.335C14.6488 11.335 13.4712 11.7883 12.6297 12.6298C11.7882 13.4713 11.3349 14.6489 11.3349 16C11.3349 17.2607 11.6117 18.2411 11.852 19.0922L11.9059 19.2835C12.157 20.1806 12.3402 20.9439 12.2109 21.912C11.8823 24.3727 10.9145 26.4381 9.45202 28Z" fill="#000000" class="bmwfcol"/><path d="M16.3349 20C16.3349 18.6629 15.9208 17.2395 15.4149 16H16.8429C17.3026 17.2313 17.6649 18.6321 17.6649 20C17.6649 20.6817 17.6336 21.3488 17.5718 22H16.2356C16.3014 21.352 16.3349 20.6849 16.3349 20Z" fill="#000000" class="bmwfcol"/><path d="M15.9186 24H17.2774C16.8232 26.2473 15.9785 28.2668 14.7893 30H13.1368C14.4596 28.3336 15.4126 26.3136 15.9186 24Z" fill="#000000" class="bmwfcol"/><title>fingerprint_lt_48</title></svg>