<svg width="48" height="48" viewBox="0 0 32 32" xmlns="http://www.w3.org/2000/svg"><path d="M10.4998 3.33496C8.21111 3.33496 6.30689 4.02953 4.33496 5.10517V28H5.66496V20.8956C6.88393 20.2399 8.13799 19.665 10.4998 19.665C12.4049 19.665 14.0294 20.1769 15.6812 21.0837C17.0935 21.854 18.5855 22.665 21.4998 22.665C23.7884 22.665 25.6932 21.9708 27.6649 20.8947V5.33496H25.8966C24.5026 6.02154 23.0568 6.33496 21.4998 6.33496C18.9193 6.33496 17.6611 5.64865 16.3263 4.92062C14.4754 3.90737 12.6322 3.33496 10.4998 3.33496ZM5.66496 19.3983V5.89555C6.88393 5.2399 8.13799 4.66496 10.4998 4.66496C13.0802 4.66496 14.3383 5.35121 15.673 6.07922C17.5206 7.09554 19.3701 7.66496 21.4998 7.66496C23.6549 7.66496 25.1669 7.22315 26.3349 6.66496V20.1043C25.116 20.76 23.8618 21.335 21.4998 21.335C19.5945 21.335 17.9702 20.8228 16.3181 19.9161C14.9059 19.1458 13.4139 18.335 10.4998 18.335C8.24317 18.335 6.83934 18.8212 5.66496 19.3983Z" fill="#000000" class="bmwfcol"/><title>flag_lt_48</title></svg>