<svg width="48" height="48" viewBox="0 0 32 32" xmlns="http://www.w3.org/2000/svg"><path d="M21.5001 5.66502H19.1651V12.5C19.1651 13.7724 19.1709 14.315 19.3828 14.9698C19.6061 15.6599 20.0617 16.483 21.076 18.2397L25.1648 25.3217L25.1652 26.2753L24.9004 26.5402C24.4684 26.9732 24.1122 27.3303 23.5854 27.5059C23.3148 27.5961 23.0273 27.6316 22.7069 27.6485C22.3925 27.665 22.003 27.665 21.5189 27.665H10.4816C9.9974 27.665 9.60766 27.665 9.29327 27.6485C8.97292 27.6316 8.68535 27.5961 8.4148 27.5059C7.88802 27.3303 7.53174 26.9732 7.09975 26.5402L6.83496 26.2753L6.83542 25.3217L10.9242 18.2397C11.9385 16.483 12.3941 15.6599 12.6174 14.9698C12.8293 14.315 12.8351 13.7724 12.8351 12.5V5.66502H10.5001V4.33502H21.5001V5.66502ZM14.1651 5.66502L14.1651 12.571C14.1652 13.7572 14.1653 14.5064 13.8828 15.3793C13.6948 15.9601 13.3834 16.5908 12.894 17.4707C14.3192 17.6607 15.2884 18.0228 16.2337 18.3773L16.245 18.3816C17.321 18.7851 18.3655 19.1768 20.1509 19.2973L19.9242 18.9047C18.9385 17.1974 18.3941 16.2344 18.1174 15.3793C17.8349 14.5064 17.835 13.7572 17.8351 12.571L17.8351 5.66502H14.1651ZM12.1776 18.7286C12.1443 18.7864 12.1104 18.8451 12.076 18.9047L8.16525 25.6783L8.16523 25.7234C8.5431 26.0951 8.66644 26.1878 8.83539 26.2441C8.93984 26.2789 9.08977 26.3059 9.36317 26.3203C9.63848 26.3348 9.99297 26.335 10.5001 26.335H21.5001C22.0072 26.335 22.3617 26.3348 22.637 26.3203C22.9104 26.3059 23.0604 26.2789 23.1648 26.2441C23.3337 26.1878 23.4571 26.0951 23.835 25.7234L23.8349 25.6783L20.9384 20.6613C18.4162 20.6137 17.0689 20.111 15.7667 19.6227L15.7555 19.6184C14.747 19.2403 13.7663 18.8725 12.1776 18.7286Z" fill="#000000" class="bmwfcol"/><title>flask_lt_48</title></svg>