<svg width="48" height="48" viewBox="0 0 32 32" xmlns="http://www.w3.org/2000/svg"><path d="M28.4991 13.8554V15.2342C27.1612 15.5824 25.9535 15.7019 25.0129 15.7214L24.9991 15.7217C23.9372 15.7217 23.1574 15.5427 22.5696 15.2073C21.9684 14.8643 21.6388 14.3977 21.4117 13.9696C20.943 13.0863 20.7741 11.7485 20.7741 10.0283C20.7741 8.30805 20.943 6.97027 21.4117 6.08692C21.6388 5.65888 21.9684 5.19227 22.5696 4.84923C23.1574 4.51383 23.9372 4.33496 24.9991 4.33496H25.0129C25.9535 4.35448 27.1612 4.47415 28.4991 4.82236V6.20116C27.1475 5.81293 25.9232 5.68479 24.9923 5.66496C24.073 5.66574 23.5474 5.82258 23.2287 6.0044C22.9227 6.17904 22.745 6.41174 22.5866 6.71028C22.3277 7.19828 22.1584 8.03462 22.1151 9.33496H26.9991V10.665H22.1133C22.1535 11.9977 22.3239 12.8512 22.5866 13.3463C22.745 13.6448 22.9227 13.8775 23.2287 14.0521C23.5474 14.234 24.073 14.3908 24.9923 14.3916C25.9232 14.3718 27.1475 14.2436 28.4991 13.8554Z" fill="#000000" class="bmwfcol"/><path d="M18.9991 5.66501H16.6641V12.5C16.6641 13.7724 16.6699 14.315 16.8818 14.9698C17.1051 15.6599 17.5608 16.483 18.575 18.2397L22.6638 25.3217L22.6643 26.2753L22.3995 26.5402C21.9675 26.9732 21.6112 27.3303 21.0844 27.5059C20.8139 27.5961 20.5263 27.6316 20.2059 27.6485C19.8916 27.665 19.5021 27.665 19.018 27.665H7.98058C7.49645 27.665 7.10667 27.665 6.79229 27.6485C6.47194 27.6316 6.18438 27.5961 5.91383 27.5059C5.38705 27.3303 5.03077 26.9732 4.59877 26.5402L4.33398 26.2753L4.33445 25.3217L4.42345 25.1675L8.42321 18.2397C9.43748 16.483 9.89312 15.6599 10.1164 14.9698C10.3283 14.315 10.3341 13.7724 10.3341 12.5V5.66501H7.99912V4.33501H18.9991V5.66501ZM11.6641 5.66501L11.6641 12.571C11.6642 13.7572 11.6643 14.5064 11.3818 15.3793C11.1939 15.9601 10.8824 16.5908 10.393 17.4707C11.8182 17.6607 12.7874 18.0228 13.7327 18.3773L13.744 18.3815C14.8201 18.7851 15.8645 19.1768 17.6499 19.2973L17.4232 18.9047C16.4375 17.1974 15.8931 16.2344 15.6164 15.3793C15.3339 14.5064 15.334 13.7572 15.3341 12.571L15.3341 5.66501H11.6641ZM9.67668 18.7286L5.66427 25.6783L5.66425 25.7234C6.04212 26.0951 6.16547 26.1878 6.33441 26.2441C6.43886 26.2789 6.58879 26.3059 6.8622 26.3203C7.1375 26.3348 7.49199 26.335 7.99912 26.335H18.9991C19.5062 26.335 19.8607 26.3348 20.136 26.3203C20.4094 26.3059 20.5594 26.2789 20.6638 26.2441C20.8328 26.1878 20.9561 26.0951 21.334 25.7234L21.334 25.6783L18.4374 20.6613C15.9152 20.6137 14.5679 20.1109 13.2657 19.6226L13.2545 19.6184C12.246 19.2402 11.2653 18.8725 9.67668 18.7286Z" fill="#000000" class="bmwfcol"/><title>flask_with_euro_symbol_lt_48</title></svg>