<svg width="48" height="48" viewBox="0 0 32 32" xmlns="http://www.w3.org/2000/svg"><path d="M4.33496 4.33506V27.665H27.6649L27.665 10.8858C27.6656 9.9955 27.666 9.3451 27.3447 8.70265C26.924 7.86101 26.1379 7.19744 25.4837 6.54338C24.8196 5.87905 24.1518 5.08246 23.2974 4.65526C22.6549 4.33404 22.0045 4.33445 21.1142 4.33501L4.33496 4.33506ZM21.665 11.665V5.66997C22.2125 5.68188 22.4551 5.72113 22.7026 5.84485C22.8743 5.9307 23.0726 6.07257 23.3676 6.3381C23.664 6.6049 24.0247 6.96524 24.5297 7.47028C25.0348 7.97531 25.3951 8.33596 25.6619 8.63241C25.9274 8.92744 26.0693 9.12574 26.1552 9.29744C26.3203 9.62783 26.3349 9.94958 26.3349 11V26.335H23.665V17C23.665 16.243 23.4303 15.5598 22.9352 15.0647C22.4401 14.5697 21.7569 14.335 21 14.335H11C10.243 14.335 9.55981 14.5697 9.06474 15.0647C8.56966 15.5598 8.33496 16.243 8.33496 17V26.335H5.66496V5.66505H10.335V11.665H21.665ZM11.665 10.335V5.66505H20.335V10.335H11.665ZM9.66496 26.335V17C9.66496 16.5169 9.81026 16.2001 10.0052 16.0052C10.2001 15.8103 10.5169 15.665 11 15.665H21C21.483 15.665 21.7998 15.8103 21.9947 16.0052C22.1897 16.2001 22.335 16.5169 22.335 17V26.335H9.66496Z" fill="#000000" class="bmwfcol"/><title>floppy-disk_lt_48</title></svg>