<svg width="48" height="48" viewBox="0 0 32 32" xmlns="http://www.w3.org/2000/svg"><path d="M22.9993 5.55957L24.7407 7.30104C25.3228 6.70831 26.0592 6.33502 26.9992 6.33502H27.6642V12C27.6642 13.3511 27.211 14.5287 26.3695 15.3702C25.6692 16.0705 24.7362 16.5019 23.6642 16.627V20.6647C23.8094 20.4784 23.9659 20.3013 24.1332 20.134C25.2955 18.9716 26.9314 18.335 28.8326 18.335H30.6642V20.1667C30.6642 22.0678 30.0276 23.7038 28.8653 24.8661C27.703 26.0284 26.067 26.665 24.1659 26.665H1.99927L1.99927 25.335H4.33623C4.30791 22.5369 4.09135 20.6005 3.55407 18.7616C3.11748 17.2673 2.46302 15.8154 1.49219 14H2.99543C3.81594 15.5849 4.41339 16.9603 4.8307 18.3886C5.41646 20.3934 5.63802 22.469 5.66631 25.335H8.33623C8.30791 22.5369 8.09135 20.6005 7.55407 18.7616C7.11748 17.2673 6.46302 15.8154 5.49219 14H6.99543C7.81594 15.5849 8.41339 16.9603 8.8307 18.3886C9.41646 20.3934 9.63802 22.469 9.66631 25.335H12.3362C12.3079 22.5369 12.0914 20.6005 11.5541 18.7616C11.1175 17.2673 10.463 15.8154 9.49219 14H10.9954C11.8159 15.5849 12.4134 16.9603 12.8307 18.3886C13.4165 20.3934 13.638 22.469 13.6663 25.335H17.664C17.4777 25.1898 17.3006 25.0334 17.1332 24.8661C15.9709 23.7038 15.3343 22.0678 15.3343 20.1667V18.335H17.166C19.0671 18.335 20.703 18.9716 21.8654 20.134C22.0327 20.3013 22.1891 20.4783 22.3342 20.6646V16.627C21.2622 16.5019 20.3292 16.0705 19.629 15.3702C18.7875 14.5287 18.3342 13.3511 18.3342 12V6.33502H18.9992C19.9392 6.33502 20.6757 6.70833 21.2578 7.30108L22.9993 5.55957ZM22.3342 24.7997C22.3268 23.2165 21.7981 21.9476 20.9249 21.0744C20.0456 20.1951 18.7649 19.665 17.166 19.665H16.6643V20.1667C16.6643 21.7656 17.1944 23.0463 18.0737 23.9256C18.9521 24.804 20.231 25.3339 21.8274 25.335H22.3342V24.7997ZM22.9993 7.44047L22.0513 8.38843C22.4267 9.05998 22.7305 9.86423 22.9992 10.7379C23.268 9.86421 23.5718 9.05994 23.9472 8.38838L22.9993 7.44047ZM19.6642 12C19.6642 13.0489 20.011 13.8713 20.5695 14.4298C21.128 14.9883 21.9503 15.335 22.9992 15.335C24.0481 15.335 24.8705 14.9883 25.429 14.4298C25.9875 13.8713 26.3342 13.0489 26.3342 12V7.78745C25.9337 7.94823 25.5886 8.2708 25.2648 8.77527C24.7553 9.56913 24.3591 10.7297 23.9726 12.1721L23.8405 12.665H22.1579L22.0259 12.1721C21.6394 10.7297 21.2432 9.56913 20.7336 8.77527C20.4098 8.2708 20.0647 7.94823 19.6642 7.78745V12ZM23.6643 24.8334V25.335H24.1659C25.7648 25.335 27.0455 24.805 27.9248 23.9256C28.8042 23.0463 29.3342 21.7656 29.3342 20.1667V19.665H28.8326C27.2337 19.665 25.953 20.1951 25.0736 21.0744C24.1988 21.9492 23.6697 23.2213 23.6643 24.8086L23.6643 24.8334Z" fill="#000000" class="bmwfcol"/><title>flowering_meadow_lt_48</title></svg>