<svg width="48" height="48" viewBox="0 0 32 32" xmlns="http://www.w3.org/2000/svg"><path d="M7.99996 18.8354C7.35655 18.8354 6.83496 19.3569 6.83496 20.0003C6.83496 20.6438 7.35655 21.1653 7.99996 21.1653C8.64337 21.1653 9.16496 20.6438 9.16496 20.0003C9.16496 19.3569 8.64337 18.8354 7.99996 18.8354Z" fill="#000000" class="bmwfcol"/><path d="M18.5649 4.80715C21.1108 4.82533 23.165 6.89426 23.165 9.44014V9.50711C23.165 10.331 22.947 11.1329 22.5425 11.8353H22.8838C24.5435 11.8353 26.1435 12.4545 27.3708 13.5719L28.8845 14.95L28.9103 16.0304L17.7754 27.1653H16.5853L15.843 26.3671C14.8336 25.2818 13.4184 24.6653 11.9363 24.6653L7.99996 24.6653C5.42355 24.6653 3.33496 22.5767 3.33496 20.0003C3.33496 18.8546 3.74794 17.8054 4.43314 16.9935L4.42974 16.99C8.03495 13.3848 11.6474 9.77238 15.2557 6.16404C16.1327 5.28705 17.3247 4.79829 18.5649 4.80715ZM5.85 17.4507L5.45038 17.8503C4.96033 18.4309 4.66496 19.1811 4.66496 20.0003C4.66496 21.8421 6.15809 23.3353 7.99996 23.3353C9.84183 23.3353 11.335 21.8421 11.335 20.0003C11.335 18.1584 9.84183 16.6653 7.99996 16.6653C7.18076 16.6653 6.43054 16.9606 5.85 17.4507ZM12.6643 20.0786L20.5913 12.1515L20.5858 12.1461L20.8917 11.8313C21.4966 11.2088 21.835 10.3751 21.835 9.50711V9.44014C21.835 7.62509 20.3704 6.15008 18.5554 6.13711C17.6712 6.1308 16.8214 6.47925 16.1962 7.10449L7.96529 15.3354L7.99996 15.3353C10.5764 15.3353 12.665 17.4239 12.665 20.0003C12.665 20.0264 12.6647 20.0525 12.6643 20.0786ZM21.4585 13.1653L11.2886 23.3353L11.9363 23.3353C13.7878 23.3353 15.5559 24.1055 16.8169 25.4613L17.1646 25.8353H17.2245L27.5375 15.5223L26.4754 14.5554C25.4931 13.661 24.2123 13.1653 22.8838 13.1653L21.4585 13.1653Z" fill="#000000" class="bmwfcol"/><title>foil_roll_lt_48</title></svg>