<svg width="48" height="48" viewBox="0 0 32 32" xmlns="http://www.w3.org/2000/svg"><path d="M13.8359 2.99996C13.8359 2.35655 14.3575 1.83496 15.0009 1.83496C15.6443 1.83496 16.1659 2.35655 16.1659 2.99996C16.1659 3.64337 15.6443 4.16496 15.0009 4.16496C14.3575 4.16496 13.8359 3.64337 13.8359 2.99996Z" fill="#000000" class="bmwfcol"/><path d="M12.8787 19.2383C13.3027 19.0092 13.8449 18.8862 14.5629 18.8862C15.019 18.8862 15.4711 18.9586 15.8597 19.0284C16.2782 19.0999 16.6842 19.2117 16.9328 19.2813L17.0789 19.3222V20.6876L16.828 20.6215C16.4495 20.5219 16.0385 20.4144 15.6288 20.3363L15.627 20.336C15.2801 20.2666 14.9589 20.2106 14.6325 20.2106C14.1854 20.2106 13.8629 20.2712 13.6201 20.3931C13.3831 20.5122 13.2051 20.6983 13.0619 20.9847C12.8463 21.4159 12.755 22.1882 12.755 23.0622C12.755 23.8931 12.8455 24.5906 13.0344 24.9955C13.1676 25.2794 13.3451 25.4722 13.5887 25.5982C13.8377 25.727 14.1723 25.7945 14.6325 25.7945C15.2924 25.7945 16.1443 25.6116 16.8364 25.4611L17.0789 25.4084V26.7625L16.9208 26.7964C16.2261 26.9453 15.3719 27.1189 14.5331 27.1189C13.7687 27.1189 13.1984 26.9779 12.762 26.718C12.324 26.4571 12.0402 26.0879 11.8297 25.6671C11.5198 25.0576 11.3809 24.0947 11.3809 23.0722C11.3809 21.9548 11.5084 20.8927 11.936 20.1765C12.1629 19.7966 12.4526 19.4685 12.8787 19.2383Z" fill="#000000" class="bmwfcol"/><path d="M19.7216 19.2554C20.1864 19.0142 20.7719 18.8862 21.5197 18.8862C22.1729 18.8862 22.7 18.9753 23.1377 19.1693C23.5786 19.3646 23.916 19.6607 24.1971 20.0532C24.4632 20.4227 24.635 20.9051 24.741 21.4163C24.8476 21.9299 24.8906 22.4857 24.8906 23.0125C24.8906 23.5248 24.8475 24.0704 24.7436 24.5761C24.6401 25.0794 24.4736 25.5563 24.2181 25.9205C23.9216 26.3389 23.5682 26.6434 23.121 26.8399C22.677 27.035 22.1524 27.1189 21.5197 27.1189C20.7783 27.1189 20.2076 27.0203 19.757 26.8152C19.3014 26.6079 18.9822 26.298 18.7356 25.9013C18.3072 25.2154 18.1389 24.1043 18.1389 23.0125C18.1389 22.5321 18.1717 22.0184 18.2536 21.5411C18.3351 21.0665 18.4672 20.6144 18.6739 20.2664C18.9233 19.8472 19.2547 19.4976 19.7216 19.2554ZM21.5197 20.2106C20.7481 20.2106 20.1694 20.3839 19.8457 20.9626C19.7286 21.1754 19.6437 21.4856 19.5891 21.8528C19.5351 22.2169 19.513 22.6216 19.513 23.0125C19.513 23.3934 19.5351 23.8132 19.5917 24.1973C19.6489 24.5858 19.7389 24.9192 19.8646 25.1401C20.1723 25.6807 20.7368 25.7945 21.5197 25.7945C22.1912 25.7945 22.6648 25.6703 23.0266 25.2397C23.2131 25.0192 23.3389 24.6898 23.4157 24.2906C23.4918 23.8944 23.5164 23.4489 23.5164 23.0125C23.5164 22.6021 23.492 22.1917 23.4286 21.8225C23.3649 21.4512 23.264 21.1342 23.1193 20.9016C22.805 20.392 22.286 20.2106 21.5197 20.2106Z" fill="#000000" class="bmwfcol"/><path d="M17.8359 3.99996C17.8359 3.35655 18.3575 2.83496 19.0009 2.83496C19.6444 2.83496 20.1659 3.35655 20.1659 3.99996C20.1659 4.64337 19.6444 5.16496 19.0009 5.16496C18.3575 5.16496 17.8359 4.64337 17.8359 3.99996Z" fill="#000000" class="bmwfcol"/><path d="M9.83594 3.99996C9.83594 3.35655 10.3575 2.83496 11.0009 2.83496C11.6443 2.83496 12.1659 3.35655 12.1659 3.99996C12.1659 4.64337 11.6443 5.16496 11.0009 5.16496C10.3575 5.16496 9.83594 4.64337 9.83594 3.99996Z" fill="#000000" class="bmwfcol"/><path d="M5.83594 5.99996C5.83594 5.35655 6.35753 4.83496 7.00094 4.83496C7.64435 4.83496 8.16594 5.35655 8.16594 5.99996C8.16594 6.64337 7.64435 7.16496 7.00094 7.16496C6.35753 7.16496 5.83594 6.64337 5.83594 5.99996Z" fill="#000000" class="bmwfcol"/><path d="M2.83594 8.99996C2.83594 8.35655 3.35753 7.83496 4.00094 7.83496C4.64435 7.83496 5.16594 8.35655 5.16594 8.99996C5.16594 9.64337 4.64435 10.165 4.00094 10.165C3.35753 10.165 2.83594 9.64337 2.83594 8.99996Z" fill="#000000" class="bmwfcol"/><path d="M13.5307 16.5297L13.0604 17H14.9411C16.1774 15.7614 17.0747 14.8407 17.667 14.0114C18.3662 13.0326 18.6659 12.1492 18.6659 10.9999C18.6659 9.89374 18.3862 8.90653 17.5413 8.23064C16.7358 7.58627 15.5453 7.33492 14.0009 7.33492C11.1315 7.33492 8.96552 8.11868 7.50562 9.37002C6.04306 10.6236 5.3359 12.3093 5.3359 13.9999C5.3359 15.5407 5.4645 16.6129 5.80367 17.6983C6.12501 18.7266 6.63055 19.7461 7.3359 21.1569V25.9999C7.3359 27.051 7.68917 27.9786 8.35567 28.6451C9.02217 29.3116 9.94978 29.6649 11.0009 29.6649V28.3349C10.252 28.3349 9.67963 28.0882 9.29612 27.7047C8.91262 27.3212 8.6659 26.7488 8.6659 25.9999V20.8429L8.59569 20.7025C7.83781 19.1868 7.36622 18.2395 7.07313 17.3016C6.78729 16.3869 6.6659 15.4591 6.6659 13.9999C6.6659 12.6905 7.20874 11.3762 8.37117 10.3798C9.53628 9.38117 11.3703 8.66492 14.0009 8.66492C15.4565 8.66492 16.2659 8.91358 16.7105 9.2692C17.1156 9.59331 17.3359 10.1061 17.3359 10.9999C17.3359 11.8507 17.1356 12.4672 16.5848 13.2384C15.9997 14.0575 15.0489 15.0114 13.5307 16.5297Z" fill="#000000" class="bmwfcol"/><path d="M27.8422 23.568C27.2799 23.568 26.6738 23.7023 26.3921 23.7727L26.2406 23.8106V25.0208L26.4911 24.9555C26.7226 24.8951 27.3149 24.7433 27.8124 24.7433C28.0553 24.7433 28.1559 24.792 28.1978 24.8338C28.2422 24.8782 28.2684 24.9325 28.2684 25.0403C28.2684 25.1688 28.209 25.3051 27.8697 25.6444C27.488 26.0261 26.7281 26.6974 26.2104 27.1454L26.1412 27.2052V28.2422H29.732V27.0768H28.0548C28.3412 26.8206 28.6804 26.5022 28.9856 26.1573C29.1606 25.9616 29.2928 25.7821 29.3795 25.5857C29.4675 25.3861 29.5034 25.1811 29.5034 24.9409C29.5034 24.5434 29.3448 24.165 29.0635 23.9323C28.7665 23.6832 28.3565 23.568 27.8422 23.568Z" fill="#000000" class="bmwfcol"/><title>footprint_and_co2_lt_48</title></svg>