<svg width="48" height="48" viewBox="0 0 32 32" xmlns="http://www.w3.org/2000/svg"><path d="M19.9609 4.05518H18.6067V11.9499H19.9609V8.461H23.3878V11.9499H24.7421V4.05518H23.3878V7.13658H19.9609V4.05518Z" fill="#000000" class="bmwfcol"/><path d="M27.8405 8.56794C27.2782 8.56794 26.6722 8.70228 26.3905 8.77271L26.239 8.81058V10.0208L26.4895 9.95546C26.7209 9.89508 27.3133 9.74326 27.8107 9.74326C28.0536 9.74326 28.1543 9.79196 28.1961 9.83378C28.2405 9.8782 28.2667 9.93251 28.2667 10.0403C28.2667 10.1688 28.2074 10.305 27.8681 10.6443C27.4863 11.0261 26.7264 11.6974 26.2087 12.1454L26.1396 12.2052V13.2421H29.7303V12.0768H28.0531C28.3395 11.8206 28.6788 11.5022 28.9839 11.1573C29.159 10.9616 29.2912 10.7821 29.3778 10.5857C29.4659 10.3861 29.5017 10.181 29.5017 9.94086C29.5017 9.54337 29.3432 9.165 29.0618 8.93227C28.7649 8.6832 28.3548 8.56794 27.8405 8.56794Z" fill="#000000" class="bmwfcol"/><path d="M18.018 12.3048L21.4694 25.1854L24.4492 24.387L24.7935 25.6716L20.5289 26.8143L16.7333 12.649L18.018 12.3048Z" fill="#000000" class="bmwfcol"/><path d="M15.2595 13.3349L7.33427 13.3349V19.3944L7.27473 19.3349H3.33427L3.33427 22.9999L3.33413 23.0683C3.33318 23.3754 3.33212 23.7151 3.49823 24.0473C3.58092 24.2126 3.69124 24.3534 3.80731 24.4837C3.50904 24.9141 3.33427 25.4366 3.33427 25.9999C3.33427 27.4717 4.52743 28.6649 5.99927 28.6649C7.24151 28.6649 8.28523 27.8149 8.58064 26.6649H12.5556C13.0196 27.8364 14.1627 28.6649 15.4993 28.6649C17.2473 28.6649 18.6643 27.2479 18.6643 25.4999C18.6643 24.5834 18.2747 23.7578 17.6521 23.1798C17.5944 22.192 17.2647 20.8185 15.3916 13.8278L15.2595 13.3349ZM4.81284 23.6129L4.80997 23.6097C4.72023 23.51 4.69554 23.4679 4.68782 23.4525L4.68666 23.4502C4.67768 23.4331 4.66427 23.4075 4.66427 22.9999L4.66427 20.6649H6.72435C8.35072 22.2823 9.36015 23.1678 10.1642 23.6368C11.0696 24.1649 11.7199 24.1649 12.4836 24.1649H12.6288C12.4617 24.5235 12.3599 24.9185 12.3385 25.3349H8.58064C8.28523 24.1848 7.24151 23.3349 5.99927 23.3349C5.57302 23.3349 5.17014 23.4349 4.81284 23.6129ZM13.7912 22.8349H12.4993C11.7697 22.8349 11.4228 22.8312 10.8343 22.488C10.3395 22.1993 9.69025 21.6747 8.66427 20.6988V14.6649L14.2389 14.6649C15.5169 19.4404 16.0156 21.3982 16.2101 22.415C15.9816 22.3626 15.7437 22.3349 15.4993 22.3349C14.8702 22.3349 14.2839 22.5184 13.7912 22.8349ZM5.99927 24.6649C6.73657 24.6649 7.33427 25.2626 7.33427 25.9999C7.33427 26.7372 6.73657 27.3349 5.99927 27.3349C5.26197 27.3349 4.66427 26.7372 4.66427 25.9999C4.66427 25.2626 5.26197 24.6649 5.99927 24.6649ZM13.6643 25.4999C13.6643 24.4864 14.4858 23.6649 15.4993 23.6649C16.5127 23.6649 17.3343 24.4864 17.3343 25.4999C17.3343 26.5133 16.5127 27.3349 15.4993 27.3349C14.4858 27.3349 13.6643 26.5133 13.6643 25.4999Z" fill="#000000" class="bmwfcol"/><title>forklift_hydrogen_lt_48</title></svg>