<svg width="48" height="48" viewBox="0 0 32 32" xmlns="http://www.w3.org/2000/svg"><path d="M11.4936 13.665C11.2582 13.665 11.0565 13.665 10.8914 13.6563C10.7204 13.6472 10.5424 13.6272 10.3658 13.5674C10.0319 13.4543 9.80238 13.2226 9.60516 13.0235L9.55224 12.9702L9.34424 12.7622L9.35822 12.4684C9.55478 8.33662 12.0563 5.34634 15.886 4.54737C15.9636 4.12438 16.1529 3.74235 16.453 3.4423C16.857 3.0383 17.4096 2.83502 18.0107 2.83502C18.6118 2.83502 19.1644 3.0383 19.5684 3.4423C19.8685 3.74235 20.0578 4.12439 20.1354 4.54739C20.9151 4.71011 21.6442 4.96466 22.3126 5.30509L22.6758 5.49008V6.364L22.5941 6.51318C21.8055 7.95413 20.6154 9.07674 19.1218 9.78903C18.8915 10.653 18.8328 10.9336 18.8699 11.193C18.9044 11.4345 19.026 11.6868 19.3956 12.335H21.0107V13.665L11.4936 13.665ZM17.3934 4.38275C17.2724 4.50375 17.1757 4.70114 17.1757 5.00002V5.682L16.6106 5.76786C13.2296 6.28154 10.9855 8.68803 10.7053 12.237C10.7791 12.3056 10.7881 12.307 10.7915 12.3075C10.7994 12.3101 10.8381 12.3216 10.9618 12.3281C11.0874 12.3348 11.2534 12.335 11.5107 12.335L14.0148 12.335L14.5135 11.8363C14.7232 11.6264 14.8457 11.3503 14.8457 11C14.8457 10.6022 14.6877 10.2932 14.4078 10.0693C14.1152 9.83518 13.6483 9.66502 13.0107 9.66502V8.33502C13.8732 8.33502 14.6563 8.56487 15.2387 9.03074C15.8338 9.50687 16.1757 10.1979 16.1757 11C16.1757 11.4928 16.0466 11.9466 15.8052 12.335L17.8797 12.335C17.7132 12.0003 17.5983 11.6962 17.5533 11.3812C17.4711 10.8064 17.626 10.2301 17.8359 9.44875L18.002 8.82935L18.2985 8.70209C19.5228 8.17672 20.5089 7.34135 21.2011 6.25705C20.6522 6.03114 20.054 5.86558 19.4108 5.76786L18.8457 5.682V5.00002C18.8457 4.70114 18.749 4.50375 18.628 4.38275C18.507 4.26175 18.3096 4.16502 18.0107 4.16502C17.7118 4.16502 17.5144 4.26175 17.3934 4.38275Z" fill="#000000" class="bmwfcol"/><path d="M28.2492 14.7166C28.7909 14.9207 29.1811 15.2414 29.4695 15.5297L29.9398 15.9999L21.3795 24.5603C20.4661 25.4743 19.8601 26.0807 18.9594 26.3809C18.5014 26.5336 17.995 26.6003 17.3778 26.6328C16.7665 26.665 16.0021 26.665 15.0187 26.665H11.2745L9.2745 28.665H7.72359L2.05859 23L6.5381 18.5205C7.03025 18.0283 7.41179 17.6468 7.72115 17.3578C8.02999 17.0693 8.29691 16.8441 8.56046 16.6828C9.13013 16.3342 9.61853 16.3345 10.2045 16.335L10.3548 16.335L14.0869 17.335L18.999 17.335C19.4502 17.335 19.8778 17.4883 20.1943 17.8047C20.2265 17.8369 20.257 17.8702 20.2858 17.9045C22.9331 15.7816 24.8316 14.8372 26.2571 14.5825C27.0488 14.441 27.7029 14.5108 28.2492 14.7166ZM19.3343 18.9998C19.3342 18.8512 19.2875 18.7788 19.254 18.7453C19.2204 18.7117 19.1479 18.665 18.999 18.665L13.9118 18.665L10.1801 17.6651C9.6009 17.6665 9.47138 17.6846 9.25469 17.8172C9.10971 17.9059 8.92237 18.0557 8.62907 18.3297C8.33824 18.6014 7.97264 18.9669 7.46927 19.4702L3.9395 23L8.2745 27.335H8.72359L10.7236 25.335H14.999C16.0062 25.335 16.7357 25.3348 17.3079 25.3047C17.8782 25.2747 18.2469 25.2164 18.5389 25.1191C19.109 24.9291 19.4934 24.5654 20.5291 23.5298L27.9981 16.0607C27.9294 16.0235 27.857 15.9901 27.7803 15.9612C27.4829 15.8492 27.0744 15.7875 26.4911 15.8917C25.3238 16.1003 23.5029 16.9648 20.6642 19.3116L20.664 20.2755L20.4693 20.4702C19.4334 21.5061 18.5973 22.0849 17.7095 22.3809C16.8565 22.6652 16.0109 22.6651 15.0589 22.665L10.999 22.665V21.335H14.9993C16.0229 21.335 16.6598 21.3288 17.2889 21.1191C17.8588 20.9291 18.4736 20.5508 19.3341 19.7211L19.3343 18.9998Z" fill="#000000" class="bmwfcol"/><title>frog_on_hand_lt_48</title></svg>