<svg width="48" height="48" viewBox="0 0 32 32" xmlns="http://www.w3.org/2000/svg"><path d="M19.665 20V14.665H21C21.4831 14.665 21.7999 14.8103 21.9948 15.0052C22.1897 15.2001 22.335 15.5169 22.335 16V21C22.335 21.7569 22.5697 22.4401 23.0648 22.9352C23.5599 23.4303 24.2431 23.665 25 23.665C25.757 23.665 26.4402 23.4303 26.9352 22.9352C27.4303 22.4401 27.665 21.7569 27.665 21V11.9275C27.6652 11.2421 27.6654 10.6581 27.5144 10.1298C27.3458 9.53954 27.0099 9.06936 26.4703 8.52974L23 5.05951V6.94041L25.5298 9.47019C25.9902 9.93057 26.1542 10.2104 26.2356 10.4952C26.3294 10.8234 26.335 11.2168 26.335 12V21C26.335 21.483 26.1897 21.7998 25.9948 21.9947C25.7999 22.1897 25.4831 22.335 25 22.335C24.517 22.335 24.2002 22.1897 24.0053 21.9947C23.8103 21.7998 23.665 21.483 23.665 21V16C23.665 15.243 23.4303 14.5598 22.9352 14.0647C22.4402 13.5697 21.757 13.335 21 13.335H19.665V6.99996C19.665 6.24302 19.4303 5.55981 18.9353 5.06473C18.7982 4.92769 18.6281 4.79362 18.36 4.68749C18.1159 4.59088 17.8124 4.52614 17.4159 4.47794C16.6249 4.38181 15.307 4.33496 13 4.33496C10.6931 4.33496 9.37512 4.38181 8.58417 4.47794C8.18762 4.52614 7.88415 4.59088 7.64005 4.68749C7.37192 4.79362 7.20185 4.92769 7.0648 5.06473C6.56973 5.55981 6.33503 6.24302 6.33503 6.99996V20H7.66503V6.99996C7.66503 6.5169 7.81032 6.20012 8.00525 6.00519C8.04071 5.96973 8.06251 5.95068 8.12953 5.92415C8.22059 5.88811 8.39556 5.84066 8.74464 5.79823C9.44493 5.71311 10.687 5.66496 13 5.66496C15.3131 5.66496 16.5551 5.71311 17.2554 5.79823C17.6045 5.84066 17.7795 5.88811 17.8705 5.92415C17.9375 5.95068 17.9593 5.96973 17.9948 6.00519C18.1897 6.20012 18.335 6.5169 18.335 6.99996V20H19.665Z" fill="#000000" class="bmwfcol"/><path d="M16 13.335V14.665H10V13.335H16Z" fill="#000000" class="bmwfcol"/><path d="M9.37549 27.9991L9.53359 27.9652V26.8504L9.2911 26.9032C8.77374 27.0156 8.2172 27.136 7.73087 27.136C7.39171 27.136 7.15096 27.0862 6.97502 26.9952C6.80445 26.9069 6.6792 26.772 6.58383 26.5686C6.44788 26.2771 6.38009 25.7662 6.38009 25.1471C6.38009 24.4949 6.44876 23.9292 6.60383 23.619C6.70675 23.4132 6.83239 23.2832 6.99793 23.2C7.16919 23.114 7.40102 23.0692 7.73087 23.0692C7.96915 23.0692 8.2055 23.1102 8.46423 23.162C8.76927 23.2201 9.00253 23.2783 9.28269 23.352L9.53359 23.418V22.2946L9.38752 22.2537C9.19529 22.1998 8.96717 22.1467 8.65957 22.0867C8.36898 22.0345 8.02452 21.9791 7.67893 21.9791C7.13739 21.9791 6.72363 22.0719 6.3976 22.248C6.06946 22.4253 5.84718 22.6778 5.67447 22.967C5.34771 23.5143 5.25293 24.3195 5.25293 25.1546C5.25293 25.92 5.3566 26.6485 5.59342 27.1145C5.75351 27.4345 5.97117 27.7186 6.30869 27.9197C6.64455 28.1197 7.08006 28.2261 7.65667 28.2261C8.28844 28.2261 8.85601 28.1104 9.37549 27.9991Z" fill="#000000" class="bmwfcol"/><path d="M10.3556 28.1H11.4605V24.0725L13.8246 28.1H15.0295V22.1053H13.9246V26.1328L11.5605 22.1053H10.3556V28.1Z" fill="#000000" class="bmwfcol"/><path d="M20.4095 28.0382L20.5787 28.0118V24.7097H19.4663V27.0627C19.1748 27.0972 18.7775 27.136 18.442 27.136C18.107 27.136 17.8651 27.0863 17.6881 26.997C17.5162 26.9103 17.3923 26.7799 17.3019 26.5898C17.1592 26.2914 17.0913 25.8177 17.0913 25.1471C17.0913 24.4828 17.1668 23.9303 17.3224 23.619C17.4257 23.4091 17.5502 23.279 17.7134 23.1974C17.8831 23.1126 18.1145 23.0692 18.4495 23.0692C18.6654 23.0692 18.8918 23.1097 19.1399 23.1548C19.4824 23.2205 19.8408 23.3082 20.1372 23.3823L20.3857 23.4444V22.321L20.2357 22.2823C20.0022 22.222 19.6785 22.1467 19.3389 22.0863C19.0628 22.0341 18.7361 21.9791 18.3975 21.9791C17.8642 21.9791 17.4528 22.0679 17.1261 22.2407C16.797 22.4147 16.5705 22.6652 16.3935 22.9589C16.0673 23.5052 15.9641 24.28 15.9641 25.1546C15.9641 25.992 16.067 26.6955 16.3302 27.1653C16.4931 27.467 16.7047 27.7388 17.0354 27.9317C17.3646 28.1238 17.7923 28.2261 18.3678 28.2261C19.0663 28.2261 19.8353 28.1277 20.4095 28.0382Z" fill="#000000" class="bmwfcol"/><title>fuel-station-gas_lt_48</title></svg>