<svg width="48" height="48" viewBox="0 0 32 32" xmlns="http://www.w3.org/2000/svg"><path d="M7.66416 18.275H6.34096V28.325H7.66416V23.6698H12.7202V28.325H14.0434V18.275H12.7202V22.3864H7.66416V18.275Z" fill="#000000" class="bmwfcol"/><path d="M17.7563 24.2962C17.0369 24.2962 16.252 24.4693 15.8802 24.5622L15.8926 25.6717C16.198 25.592 17.0172 25.3807 17.7165 25.3807C18.0594 25.3807 18.2763 25.4469 18.4017 25.5723C18.5155 25.686 18.5668 25.825 18.5668 26.0188C18.5668 26.2993 18.4152 26.5447 17.9641 26.9958C17.4476 27.5123 16.4183 28.4211 15.7286 29.018V30.0491H20.0359V28.9779H17.3984C17.8266 28.6024 18.5005 28.0002 19.1009 27.3487C19.3271 27.0958 19.4852 26.8778 19.5862 26.6489C19.6873 26.4196 19.7309 26.1807 19.7309 25.8862C19.7309 25.4158 19.5428 24.9839 19.2311 24.7264C18.8935 24.4428 18.4095 24.2962 17.7563 24.2962Z" fill="#000000" class="bmwfcol"/><path d="M19.665 20V14.665H21C21.483 14.665 21.7998 14.8103 21.9947 15.0052C22.1897 15.2001 22.335 15.5169 22.335 16V21C22.335 21.7569 22.5697 22.4401 23.0647 22.9352C23.5598 23.4303 24.243 23.665 25 23.665C25.7569 23.665 26.4401 23.4303 26.9352 22.9352C27.4303 22.4401 27.665 21.7569 27.665 21V11.9275C27.6652 11.2421 27.6653 10.6581 27.5144 10.1298C27.3457 9.53954 27.0098 9.06936 26.4702 8.52974L23 5.05951V6.94041L25.5297 9.47019C25.9901 9.93057 26.1542 10.2104 26.2355 10.4952C26.3293 10.8234 26.335 11.2168 26.335 12V21C26.335 21.483 26.1897 21.7998 25.9947 21.9947C25.7998 22.1897 25.483 22.335 25 22.335C24.5169 22.335 24.2001 22.1897 24.0052 21.9947C23.8103 21.7998 23.665 21.483 23.665 21V16C23.665 15.243 23.4303 14.5598 22.9352 14.0647C22.4401 13.5697 21.7569 13.335 21 13.335H19.665V6.99996C19.665 6.24302 19.4303 5.55981 18.9352 5.06473C18.7981 4.92769 18.6281 4.79362 18.3599 4.68749C18.1158 4.59088 17.8124 4.52614 17.4158 4.47794C16.6249 4.38181 15.3069 4.33496 13 4.33496C10.693 4.33496 9.37506 4.38181 8.5841 4.47794C8.18755 4.52614 7.88409 4.59088 7.63999 4.68749C7.37186 4.79362 7.20178 4.92769 7.06474 5.06473C6.56966 5.55981 6.33496 6.24302 6.33496 6.99996V16H7.66496V6.99996C7.66496 6.5169 7.81026 6.20012 8.00519 6.00519C8.04064 5.96973 8.06244 5.95068 8.12946 5.92415C8.22052 5.88811 8.3955 5.84066 8.74457 5.79823C9.44487 5.71311 10.6869 5.66496 13 5.66496C15.313 5.66496 16.5551 5.71311 17.2554 5.79823C17.6044 5.84066 17.7794 5.88811 17.8705 5.92415C17.9375 5.95068 17.9593 5.96973 17.9947 6.00519C18.1897 6.20012 18.335 6.5169 18.335 6.99996V20H19.665Z" fill="#000000" class="bmwfcol"/><path d="M16 13.335V14.665H9.99996V13.335H16Z" fill="#000000" class="bmwfcol"/><title>fuel-station-h2_lt_48</title></svg>