<svg width="48" height="48" viewBox="0 0 32 32" xmlns="http://www.w3.org/2000/svg"><path d="M23.5598 6.49978L21.03 3.96999L21.9705 3.02954L24.5003 5.55933L25.5 4.55957L25.9702 5.0298C27.3955 6.4551 28.2228 7.62011 28.4513 8.67998C28.6488 9.59598 28.3866 10.3404 27.903 10.9783C28.454 11.5728 28.8694 12.1268 29.1573 12.7026C29.5241 13.4361 29.665 14.1665 29.665 15V16H28.335V15C28.335 14.3335 28.226 13.8139 27.9677 13.2974C27.7586 12.8792 27.4403 12.44 26.9596 11.9171C26.3259 12.3917 25.587 12.6469 24.68 12.4513C23.6201 12.2228 22.4551 11.3955 21.0298 9.97025L20.5596 9.50002L21.5598 8.49984L19.0299 5.96999L19.9704 5.02954L22.5002 7.55939L23.5598 6.49978ZM27.1512 8.96028C27.0264 8.38173 26.563 7.58932 25.4928 6.44772L22.4477 9.49278C23.5893 10.563 24.3817 11.0264 24.9603 11.1512C25.5142 11.2706 25.9641 11.0955 26.5298 10.5298C27.0955 9.96411 27.2706 9.51421 27.1512 8.96028Z" fill="#000000" class="bmwfcol"/><path d="M18.335 10.335V26.335H7.66496V6.99996C7.66496 6.5169 7.81026 6.20012 8.00519 6.00519C8.04064 5.96973 8.06244 5.95068 8.12946 5.92415C8.22052 5.88811 8.3955 5.84066 8.74457 5.79823C9.44487 5.71311 10.6869 5.66496 13 5.66496C15.055 5.66496 16.2646 5.70297 17 5.77114V4.43609C16.1841 4.36819 14.9427 4.33496 13 4.33496C10.693 4.33496 9.37506 4.38181 8.5841 4.47794C8.18755 4.52614 7.88409 4.59088 7.63999 4.68749C7.37186 4.79362 7.20178 4.92769 7.06473 5.06473C6.56966 5.55981 6.33496 6.24302 6.33496 6.99996V26.335H4V27.665H22V26.335H19.665V11.665L18.335 10.335Z" fill="#000000" class="bmwfcol"/><path d="M23 14.0596V15.9405L25.335 18.2755L25.335 21.0833C25.3348 21.8071 25.3346 22.3944 25.487 22.9126C25.659 23.4972 26.0024 23.9429 26.5298 24.4702L28.335 26.2755V28H29.665L29.665 22.9168C29.6652 22.1929 29.6654 21.6057 29.513 21.0874C29.341 20.5028 28.9976 20.0572 28.4702 19.5298L23 14.0596ZM28.335 24.3946L27.4702 23.5298C26.9976 23.0571 26.841 22.8028 26.763 22.5374C26.6712 22.2254 26.665 21.8377 26.665 21V19.6055L27.5298 20.4703C28.0024 20.9429 28.159 21.1973 28.237 21.4627C28.3288 21.7747 28.335 22.1623 28.335 23V24.3946Z" fill="#000000" class="bmwfcol"/><path d="M11.3349 10.5V14.665L13.3349 14.665V16.835H12.2255L13.9999 19.7925L15.7746 16.835H14.6649V13.335L12.6649 13.335V10.5H11.3349Z" fill="#000000" class="bmwfcol"/><title>fuel_station_phev_lt_48</title></svg>