<svg width="48" height="48" viewBox="0 0 32 32" xmlns="http://www.w3.org/2000/svg"><path d="M24.2297 7.77019C26.1882 9.72869 27.335 12.5511 27.335 16H28.665C28.665 12.2488 27.4117 9.07123 25.1702 6.82973C22.9287 4.58824 19.7511 3.33496 16 3.33496C12.2488 3.33496 9.07123 4.58824 6.82973 6.82973C4.58824 9.07123 3.33496 12.2488 3.33496 16C3.33496 19.7511 4.58824 22.9287 6.82973 25.1702C9.07123 27.4117 12.2488 28.665 16 28.665C16.3526 28.665 16.7002 28.6539 17.0425 28.632L17.665 28.5921V23C17.665 22.1665 17.524 21.4361 17.1573 20.7026C16.8694 20.1267 16.4539 19.5727 15.9029 18.9782C16.3865 18.3404 16.6486 17.5959 16.4512 16.68C16.2227 15.6201 15.3954 14.4551 13.9701 13.0298L13.4999 12.5596L12.5001 13.5594L9.97046 11.0298L9.03001 11.9702L11.5596 14.4998L10.5 15.5594L7.97034 13.0298L7.02988 13.9702L9.55955 16.4999L8.55943 17.5L9.02965 17.9702C10.455 19.3955 11.62 20.2228 12.6798 20.4513C13.5869 20.6469 14.3258 20.3917 14.9595 19.9171C15.4403 20.44 15.7586 20.8792 15.9677 21.2974C16.226 21.8139 16.335 22.3335 16.335 23V27.3313C16.224 27.3337 16.1123 27.335 16 27.335C12.5511 27.335 9.72869 26.1882 7.77019 24.2297C5.81169 22.2712 4.66496 19.4488 4.66496 16C4.66496 12.5511 5.81169 9.72869 7.77019 7.77019C9.72869 5.81169 12.5511 4.66496 16 4.66496C19.4488 4.66496 22.2712 5.81169 24.2297 7.77019ZM15.151 16.9603C15.2705 17.5142 15.0953 17.9641 14.5297 18.5298C13.964 19.0955 13.5141 19.2706 12.9601 19.1512C12.3816 19.0264 11.5892 18.563 10.4476 17.4928L13.4926 14.4477C14.5629 15.5893 15.0263 16.3817 15.151 16.9603Z" fill="#000000" class="bmwfcol"/><path d="M20 28.1389V26.7517C20.8426 26.487 21.6229 26.1363 22.335 25.708V22.2754L19.5298 19.4702C19.0024 18.9429 18.659 18.4972 18.487 17.9126C18.3346 17.3943 18.3348 16.8071 18.335 16.0832V11.2755L16 8.94047V7.05957L22.4702 13.5298C22.9976 14.0572 23.341 14.5028 23.513 15.0874C23.6654 15.6057 23.6652 16.1929 23.665 16.9167V26.4369L23.3626 26.6336C22.355 27.2892 21.2276 27.7957 20 28.1389ZM22.335 20.3946V17C22.335 16.1623 22.3288 15.7747 22.237 15.4627C22.159 15.1973 22.0024 14.9429 21.5298 14.4703L19.665 12.6055V16C19.665 16.8377 19.6712 17.2254 19.763 17.5373C19.841 17.8027 19.9976 18.0571 20.4702 18.5298L22.335 20.3946Z" fill="#000000" class="bmwfcol"/><title>fuel-type-phev_lt_48</title></svg>