<svg width="48" height="48" viewBox="0 0 32 32" xmlns="http://www.w3.org/2000/svg"><path d="M11.8574 14.0218C11.7308 13.3874 11.6647 12.7123 11.6647 12C11.6647 9.45108 12.5114 7.37869 13.9449 5.94519C15.3784 4.51168 17.4508 3.66496 19.9997 3.66496C22.5486 3.66496 24.621 4.51168 26.0545 5.94519C27.488 7.37869 28.3347 9.45112 28.3347 12C28.3347 13.9235 27.8527 15.5757 27 16.8867V18.9904C28.7135 17.2741 29.665 14.8484 29.665 12C29.665 11.3069 29.6086 10.6389 29.4987 10C29.1564 8.01064 28.2942 6.30398 26.9949 5.00473C25.2784 3.28824 22.8508 2.33496 19.9997 2.33496C17.1486 2.33496 14.721 3.28824 13.0045 5.00473C11.288 6.72123 10.3347 9.14884 10.3347 12C10.3347 12.6933 10.3911 13.3616 10.5011 14.0008C10.661 14.0002 10.8272 14 11 14C11.3052 14 11.59 14.0075 11.8574 14.0218Z" fill="#000000" class="bmwfcol"/><path d="M21.6147 16.625C21.5435 16.2068 21.3949 15.8269 21.1585 15.446C20.9101 15.0459 20.5674 14.6505 20.1459 14.2125C20.4748 13.7311 20.6491 13.1629 20.5005 12.4738C20.3182 11.6284 19.6665 10.7254 18.5947 9.65368L18.1245 9.18345L17.3746 9.93333L15.595 8.15367L14.6545 9.09412L16.4342 10.8738L15.8743 11.4336L14.0948 9.65415L13.1544 10.5946L14.9339 12.3741L14.1841 13.1239L14.6543 13.5941C15.726 14.6659 16.6291 15.3176 17.4744 15.4999C18.159 15.6475 18.7243 15.4764 19.2036 15.1517C19.5906 15.555 19.8516 15.8625 20.0285 16.1474C20.128 16.3078 20.2012 16.4617 20.251 16.625H21.6147ZM18.1144 11.0745C18.8257 11.8543 19.1206 12.3841 19.2004 12.7541C19.2735 13.0936 19.1815 13.3765 18.7793 13.7787C18.3771 14.1808 18.0942 14.2729 17.7547 14.1997C17.3847 14.12 16.8549 13.8251 16.0751 13.1138L18.1144 11.0745Z" fill="#000000" class="bmwfcol"/><path d="M19.9998 6.94045V5.05955L24.72 9.77978C25.1223 10.1821 25.4033 10.5403 25.544 11.0186C25.6653 11.431 25.6651 11.8941 25.6648 12.4248L25.6647 20.0899L25.3418 20.2836C24.6293 20.7111 23.8448 21.0446 22.9998 21.2767V19.8894C23.4729 19.7375 23.9185 19.5488 24.3347 19.3262V16.5254L22.2795 14.4702C21.8772 14.0678 21.5962 13.7097 21.4555 13.2314C21.3342 12.819 21.3345 12.3559 21.3347 11.8252L21.3348 8.27546L19.9998 6.94045ZM24.3348 12.5C24.3348 11.8623 24.3286 11.5996 24.268 11.3939C24.2212 11.2348 24.1272 11.0679 23.7795 10.7202L22.6648 9.60546V11.75C22.6648 12.3877 22.671 12.6503 22.7315 12.8561C22.7783 13.0152 22.8723 13.1821 23.22 13.5297L24.3348 14.6445V12.5Z" fill="#000000" class="bmwfcol"/><path d="M8.09951 22.1475H10.4069L11 22.444L11.593 22.1475H13.9004L14.665 22.912V25.0619L13.6866 26.665H11.287L11 26.3779L10.7129 26.665H8.34893L7.33496 25.0683V22.912L8.09951 22.1475ZM8.66496 23.4775V24.6817L9.07984 25.335H10.162L10.335 25.162V23.5985L10.093 23.4775H8.66496ZM11.665 23.5985V25.162L11.8379 25.335H12.9402L13.335 24.6881V23.4775H11.9069L11.665 23.5985Z" fill="#000000" class="bmwfcol"/><path d="M8.16052 16.4191C8.72615 16.3532 9.55496 16.335 11 16.335C13.6394 16.335 14.2782 16.4031 15.1806 16.7996C15.5308 16.954 15.8342 17.2357 16.0776 17.5122C16.3304 17.7993 16.5671 18.1371 16.7757 18.4695C16.9479 18.7438 17.1067 19.0241 17.2454 19.2846C17.5473 19.114 17.8729 19.0351 18.2357 18.997C18.6159 18.9571 19.0925 18.9581 19.6732 18.9594C19.7787 18.9596 19.8877 18.9599 20 18.9599V20.2899C19.8796 20.2899 19.7664 20.2897 19.6597 20.2895C19.0715 20.2885 18.6779 20.2879 18.3744 20.3198C18.1773 20.3404 18.0496 20.3722 17.9539 20.4152C18.33 20.7672 18.6904 21.1225 18.9757 21.4705C19.3258 21.8974 19.665 22.4319 19.665 23.0321V29.665H15.335V28.7748C12.2933 28.9717 9.7066 28.9717 6.66496 28.7748V29.665H2.33496V23.0321C2.33496 22.4319 2.67417 21.8974 3.0242 21.4705C3.30948 21.1225 3.66991 20.7672 4.04597 20.4152C3.95024 20.3722 3.82252 20.3404 3.62543 20.3198C3.322 20.2879 2.9257 20.2885 2.33753 20.2895C2.23166 20.2897 2.11936 20.2899 2 20.2899V18.9599C2.11212 18.9599 2.22078 18.9596 2.32601 18.9594C2.90671 18.9581 3.384 18.9571 3.76424 18.997C4.12705 19.0351 4.45255 19.114 4.75436 19.2845C4.89307 19.0238 5.05197 18.7434 5.22416 18.4689C5.43275 18.1364 5.66956 17.7985 5.92241 17.5114C6.16582 17.235 6.46873 16.9535 6.81951 16.7995C7.22802 16.6202 7.54804 16.4904 8.16052 16.4191ZM7.35413 18.0173C7.26755 18.0553 7.11853 18.1655 6.92058 18.3903C6.732 18.6045 6.53781 18.8776 6.35083 19.1757C6.23083 19.367 6.11737 19.5628 6.01381 19.7514C6.09578 19.7462 6.18052 19.7416 6.26811 19.7375C7.01545 19.7029 8.05819 19.7051 9.50667 19.7081C9.963 19.7091 10.4597 19.7101 11 19.7101C11.5405 19.7101 12.0371 19.7091 12.4934 19.7081C13.9418 19.7051 14.9839 19.7029 15.7308 19.7375C15.8187 19.7416 15.9037 19.7462 15.9859 19.7515C15.8824 19.5631 15.7691 19.3675 15.6491 19.1764C15.4622 18.8784 15.2679 18.6053 15.0793 18.391C14.8815 18.1663 14.7323 18.0556 14.6451 18.017C14.0358 17.7493 13.6721 17.665 11 17.665C9.53887 17.665 8.78953 17.6848 8.31433 17.7402C7.88601 17.79 7.70243 17.8645 7.35413 18.0173ZM16.6658 21.1741C16.4551 21.124 16.1454 21.088 15.674 21.0662C14.9593 21.0331 13.9602 21.0351 12.5248 21.0381C12.064 21.0391 11.5559 21.0401 11 21.0401C10.4439 21.0401 9.93717 21.0391 9.47609 21.0381C8.04054 21.0351 7.04001 21.0331 6.32493 21.0662C5.85317 21.088 5.54312 21.1241 5.33214 21.1741C5.20585 21.204 5.13356 21.2349 5.09217 21.2584C4.67108 21.6486 4.31417 21.9948 4.05272 22.3137C4.03298 22.3378 4.0142 22.3612 3.99631 22.384C4.71099 22.5404 5.47992 22.6329 6.5 22.71V24.0438C5.38125 23.9616 4.50487 23.8601 3.66496 23.6728V28.335H5.33496V27.3472L6.04831 27.3992C9.58282 27.6569 12.4171 27.6569 15.9516 27.3992L16.665 27.3472V28.335H18.335V23.673C17.4951 23.8602 16.6187 23.9618 15.5 24.0439V22.7102C16.5201 22.6331 17.289 22.5406 18.0037 22.3842C17.9858 22.3613 17.967 22.3378 17.9472 22.3137C17.6865 21.9957 17.3309 21.6505 16.9114 21.2618C16.8711 21.2378 16.7981 21.2055 16.6658 21.1741Z" fill="#000000" class="bmwfcol"/><title>fuel-car-phev_lt_48</title></svg>