<svg width="48" height="48" viewBox="0 0 32 32" xmlns="http://www.w3.org/2000/svg"><path d="M13.6833 21.7303C14.261 22.3525 15.0742 22.665 16 22.665C16.9258 22.665 17.7389 22.3525 18.3166 21.7303C18.889 21.114 19.165 20.2645 19.165 19.3077C19.165 18.2422 18.553 17.2525 18.0176 16.4159C17.9698 16.3413 17.9222 16.2673 17.875 16.1939C17.3518 15.3804 16.8687 14.6294 16.652 13.8267L16.5192 13.335H15.4807L15.348 13.8267C15.1312 14.6294 14.6526 15.3735 14.1294 16.187C14.0807 16.2626 14.0316 16.3389 13.9824 16.4159C13.4469 17.2525 12.835 18.2422 12.835 19.3077C12.835 20.2645 13.1109 21.114 13.6833 21.7303ZM14.6579 20.8253C14.3665 20.5115 14.165 20.0148 14.165 19.3077C14.165 18.6948 14.528 18.0306 15.1026 17.1329C15.1534 17.0535 15.2061 16.9719 15.2595 16.8893C15.5006 16.5159 15.7624 16.1104 16 15.6779C16.2375 16.1104 16.4994 16.5159 16.7405 16.8893C16.7939 16.9721 16.8464 17.0533 16.8974 17.1329C17.4719 18.0306 17.835 18.6948 17.835 19.3077C17.835 20.0148 17.6334 20.5115 17.342 20.8253C17.056 21.1334 16.6192 21.335 16 21.335C15.3808 21.335 14.9439 21.1334 14.6579 20.8253Z" fill="#000000" class="bmwfcol"/><path d="M2 7.61648V6.23954L2.27506 6.31324C4.17722 6.82283 5.25748 7.11223 6.20967 7.6662C7.06889 8.16608 7.81088 8.87392 8.99979 10.0597L10.4048 8.65463C10.6543 7.73501 10.8804 6.99828 11.1322 6.42143C11.402 5.80318 11.7252 5.31097 12.1952 4.96463C12.6661 4.61753 13.2117 4.47072 13.8178 4.40173C14.4046 4.33494 15.1191 4.33495 15.9638 4.33496L24 4.33472C24.447 4.33472 24.8803 4.47455 25.2028 4.79717C25.5253 5.11977 25.6651 5.553 25.6651 5.99996L25.665 25.9997C25.665 26.4466 25.5253 26.8799 25.2027 27.2024C24.8801 27.525 24.4469 27.6647 24 27.6647H7.99996C7.55302 27.6647 7.11981 27.525 6.79724 27.2024C6.47466 26.8799 6.33496 26.4466 6.33496 25.9997V12.7245L8.05916 11.0003C6.85456 9.80043 6.23805 9.22142 5.54086 8.8158C4.78268 8.37471 3.91362 8.12973 2 7.61648ZM16.0001 5.66496C15.1106 5.66496 14.4712 5.66594 13.9683 5.72319C13.4763 5.77919 13.1917 5.88238 12.9842 6.03527C12.7758 6.18893 12.5723 6.44672 12.3511 6.95347C12.1959 7.30923 12.0438 7.75886 11.8757 8.33496H24.3351V5.99996C24.3351 5.82692 24.2848 5.76003 24.2623 5.7375C24.2398 5.71501 24.1729 5.66472 24 5.66472L16.0001 5.66496ZM11.2754 9.66496L7.66496 13.2754V25.9997C7.66496 26.1728 7.71526 26.2396 7.73769 26.262C7.76012 26.2844 7.8269 26.3347 7.99996 26.3347H24C24.173 26.3347 24.2398 26.2844 24.2622 26.262C24.2847 26.2396 24.335 26.1728 24.335 25.9997V9.66496H11.2754Z" fill="#000000" class="bmwfcol"/><title>fuel_lt_48</title></svg>