<svg width="48" height="48" viewBox="0 0 32 32" xmlns="http://www.w3.org/2000/svg"><path d="M6 11.665H10V10.335H6V11.665Z" fill="#000000" class="bmwfcol"/><path d="M7.99996 4.33496C6.50278 4.33496 5.62509 4.36978 5.08168 4.4448C4.80688 4.48274 4.58008 4.5355 4.38705 4.6189C4.17474 4.71063 4.03727 4.8247 3.93098 4.93098C3.52216 5.33981 3.33496 5.89802 3.33496 6.49996V18.335H2V19.665L14 19.665V18.335H12.665V11.665H13C13.4831 11.665 13.7998 11.8103 13.9948 12.0052C14.1897 12.2002 14.335 12.517 14.335 13V15C14.335 15.757 14.5697 16.4402 15.0648 16.9352C15.5598 17.4303 16.2431 17.665 17 17.665C17.7569 17.665 18.4402 17.4303 18.9352 16.9352C19.4303 16.4402 19.665 15.757 19.665 15L19.665 10.9276C19.6652 10.2422 19.6654 9.65812 19.5144 9.12983C19.3458 8.5396 19.0098 8.06942 18.4702 7.5298L16 5.05957V6.94047L17.5298 8.47025C17.9902 8.93063 18.1542 9.21045 18.2356 9.49521C18.3294 9.82342 18.335 10.2169 18.335 11V15C18.335 15.4831 18.1897 15.7999 17.9948 15.9948C17.7998 16.1897 17.4831 16.335 17 16.335C16.5169 16.335 16.2002 16.1897 16.0052 15.9948C15.8103 15.7999 15.665 15.4831 15.665 15V13C15.665 12.2431 15.4303 11.5599 14.9352 11.0648C14.4402 10.5697 13.7569 10.335 13 10.335H12.665V6.49996C12.665 5.89802 12.4778 5.33981 12.0689 4.93098C11.9627 4.8247 11.8252 4.71063 11.6129 4.6189C11.4198 4.5355 11.193 4.48274 10.9182 4.4448C10.3748 4.36978 9.49714 4.33496 7.99996 4.33496ZM11.335 18.335L4.66496 18.335V6.49996C4.66496 6.1719 4.76276 5.98012 4.87144 5.87144C4.89432 5.84856 4.89703 5.84739 4.91456 5.83981C4.9518 5.82372 5.04601 5.79234 5.26356 5.76231C5.70483 5.70139 6.49714 5.66496 7.99996 5.66496C9.50278 5.66496 10.2951 5.70139 10.7364 5.76231C10.9539 5.79234 11.0486 5.82393 11.0858 5.84002C11.1034 5.84759 11.1056 5.84856 11.1285 5.87144C11.2372 5.98012 11.335 6.1719 11.335 6.49996V18.335Z" fill="#000000" class="bmwfcol"/><path d="M11.335 24.6666V21.5H12.665V24.6666C12.665 24.9467 12.7468 25.0984 12.8245 25.1777C12.9008 25.2554 13.043 25.335 13.3077 25.335H27.6923C27.957 25.335 28.0991 25.2554 28.1754 25.1777C28.2531 25.0984 28.335 24.9467 28.335 24.6666V18.665H19.7258C19.9024 18.5375 20.072 18.3939 20.233 18.233C20.5095 17.9564 20.7351 17.6539 20.9151 17.335H28.335V15.3333C28.335 15.0532 28.2531 14.9015 28.1754 14.8223C28.0991 14.7445 27.957 14.665 27.6923 14.665H21.5002V13.335H27.6923C28.2383 13.335 28.75 13.5087 29.1249 13.891C29.4983 14.2717 29.665 14.7867 29.665 15.3333V24.6666C29.665 25.2132 29.4983 25.7282 29.1249 26.1089C28.75 26.4912 28.2383 26.665 27.6923 26.665H13.3077C12.7616 26.665 12.2499 26.4912 11.875 26.1089C11.5016 25.7282 11.335 25.2132 11.335 24.6666Z" fill="#000000" class="bmwfcol"/><path d="M22.1666 23.665H19V22.335H22.1666V23.665Z" fill="#000000" class="bmwfcol"/><path d="M26.9583 23.665H23V22.335H26.9583V23.665Z" fill="#000000" class="bmwfcol"/><title>fueling_payments_lt_48</title></svg>