<svg width="48" height="48" viewBox="0 0 32 32" xmlns="http://www.w3.org/2000/svg"><path d="M11 14C11.3039 14 11.5876 14.0005 11.8539 14.0025C11.7298 13.3738 11.665 12.7051 11.665 12C11.665 9.45108 12.5117 7.37869 13.9452 5.94519C15.3787 4.51169 17.4511 3.66496 20 3.66496C22.5488 3.66496 24.6212 4.51169 26.0547 5.94519C27.1299 7.02031 27.8749 8.45484 28.1803 10.1802C28.282 10.7553 28.335 11.3628 28.335 12C28.335 14.5488 27.4882 16.6212 26.0547 18.0547C26.0366 18.0729 26.0183 18.0909 26 18.1089C24.9692 19.1176 23.6164 19.828 22 20.1466V21.4987C23.5159 21.2379 24.8676 20.6753 26 19.8474C26.3537 19.5888 26.686 19.3044 26.9952 18.9952C28.7117 17.2787 29.665 14.8511 29.665 12C29.665 11.3069 29.6086 10.6389 29.4987 10C29.1564 8.01064 28.2944 6.30399 26.9952 5.00473C25.2787 3.28824 22.8511 2.33496 20 2.33496C17.1488 2.33496 14.7212 3.28824 13.0047 5.00473C11.2882 6.72123 10.335 9.14884 10.335 12C10.335 12.6933 10.3913 13.3616 10.5014 14.0008C10.6612 14.0002 10.8273 14 11 14Z" fill="#000000" class="bmwfcol"/><path d="M16.3269 14.7601C15.8785 14.8314 15.3311 14.871 14.842 14.7601C14.291 14.6352 14.1091 14.4099 13.9028 14.0875C13.8638 14.0266 13.8285 13.9635 13.7962 13.899C13.5982 13.5093 13.5149 12.9098 13.5149 12.291C13.5149 11.6177 13.5906 10.9532 13.8638 10.4955C14.0073 10.2552 14.1944 10.0417 14.4721 9.89164C14.7474 9.74293 15.0925 9.66699 15.5359 9.66699C15.8202 9.66699 16.0997 9.71203 16.3338 9.75402C16.5911 9.79801 16.8395 9.86651 16.9889 9.90834L17.1569 9.95538V11.0013L16.8684 10.9254C16.6406 10.8654 16.3973 10.8018 16.1555 10.7558C15.9476 10.7142 15.762 10.6822 15.5777 10.6822C15.3175 10.6822 15.1432 10.7177 15.019 10.7801C14.9013 10.8392 14.81 10.9317 14.7327 11.0864C14.6159 11.32 14.56 11.7604 14.56 12.285C14.56 12.7816 14.6148 13.1795 14.7174 13.3994C14.7886 13.5513 14.8794 13.6475 15.0013 13.7105C15.1293 13.7767 15.3107 13.8161 15.5777 13.8161C15.9598 13.8161 16.459 13.7095 16.878 13.6184L17.1569 13.5578V14.5962L16.9751 14.6352C16.7788 14.6773 16.5588 14.7232 16.3269 14.7601Z" fill="#000000" class="bmwfcol"/><path d="M17.8324 9.76848V14.7299H18.8596V11.6725L20.6592 14.7299H21.7311V9.76848H20.704V12.8259L18.9044 9.76848H17.8324Z" fill="#000000" class="bmwfcol"/><path d="M22.5538 12.291C22.5538 12.9718 22.6437 13.5431 22.8556 13.9396C22.9906 14.1898 23.1691 14.4212 23.45 14.5851C23.7287 14.7477 24.0859 14.8314 24.5569 14.8314C25.1243 14.8314 25.7473 14.7515 26.2102 14.6794L26.4048 14.649V11.864H25.3717V13.7647C25.146 13.7902 24.8602 13.8161 24.6166 13.8161C24.3531 13.8161 24.1704 13.7769 24.0411 13.7117C23.9178 13.6495 23.8282 13.556 23.7615 13.4156C23.6538 13.1904 23.5989 12.8229 23.5989 12.285C23.5989 11.7517 23.6607 11.3201 23.7782 11.0851C23.8561 10.927 23.9459 10.8357 24.0613 10.7781C24.1841 10.7167 24.3579 10.6822 24.6226 10.6822C24.7889 10.6822 24.9647 10.7134 25.1655 10.7499C25.4388 10.8023 25.7254 10.8724 25.9638 10.932L26.2496 11.0035V9.95761L26.0771 9.91309C25.888 9.86429 25.6259 9.80332 25.3507 9.75435C25.128 9.71224 24.8599 9.66699 24.5808 9.66699C24.1443 9.66699 23.8013 9.73963 23.5256 9.88546C23.2471 10.0327 23.056 10.2453 22.9087 10.4895C22.6362 10.9461 22.5538 11.5851 22.5538 12.291Z" fill="#000000" class="bmwfcol"/><path d="M8.09951 22.1475H10.4069L11 22.444L11.593 22.1475H13.9004L14.665 22.912V25.0619L13.6866 26.665H11.287L11 26.3779L10.7129 26.665H8.34893L7.33496 25.0683V22.912L8.09951 22.1475ZM8.66496 23.4775V24.6817L9.07984 25.335H10.162L10.335 25.162V23.5985L10.093 23.4775H8.66496ZM11.665 23.5985V25.162L11.8379 25.335H12.9402L13.335 24.6881V23.4775H11.9069L11.665 23.5985Z" fill="#000000" class="bmwfcol"/><path d="M8.16052 16.4191C8.72615 16.3532 9.55496 16.335 11 16.335C13.6394 16.335 14.2782 16.4031 15.1806 16.7996C15.5308 16.954 15.8342 17.2357 16.0776 17.5122C16.3304 17.7993 16.5671 18.1371 16.7757 18.4695C16.9479 18.7438 17.1067 19.0241 17.2454 19.2846C17.5473 19.114 17.8729 19.0351 18.2357 18.997C18.616 18.9571 19.0926 18.9581 19.6734 18.9594C19.7788 18.9596 19.8877 18.9599 20 18.9599V20.2899C19.8781 20.2899 19.7636 20.2897 19.6557 20.2895C19.0675 20.2885 18.6779 20.2879 18.3744 20.3198C18.1773 20.3404 18.0496 20.3722 17.9539 20.4152C18.33 20.7672 18.6904 21.1225 18.9757 21.4705C19.3258 21.8974 19.665 22.4319 19.665 23.0321V29.665H15.335V28.7748C12.2933 28.9717 9.7066 28.9717 6.66496 28.7748V29.665H2.33496V23.0321C2.33496 22.4319 2.67417 21.8974 3.0242 21.4705C3.30948 21.1225 3.66991 20.7672 4.04597 20.4152C3.95024 20.3722 3.82252 20.3404 3.62543 20.3198C3.322 20.2879 2.93246 20.2885 2.34429 20.2895C2.23646 20.2897 2.12188 20.2899 2 20.2899V18.9599C2.11212 18.9599 2.22078 18.9596 2.32601 18.9594C2.90673 18.9581 3.38399 18.9571 3.76424 18.997C4.12705 19.0351 4.45255 19.114 4.75436 19.2845C4.89307 19.0238 5.05197 18.7434 5.22416 18.4689C5.43275 18.1364 5.66956 17.7985 5.92241 17.5114C6.16582 17.235 6.46873 16.9535 6.81951 16.7995C7.22802 16.6202 7.54804 16.4904 8.16052 16.4191ZM7.35413 18.0173C7.26755 18.0553 7.11853 18.1655 6.92058 18.3903C6.732 18.6045 6.53781 18.8776 6.35083 19.1757C6.23083 19.367 6.11737 19.5628 6.01381 19.7514C6.09578 19.7462 6.18052 19.7416 6.26811 19.7375C7.01545 19.7029 8.06007 19.7051 9.50855 19.7081C9.96436 19.7091 10.4604 19.7101 11 19.7101C11.5397 19.7101 12.0376 19.7091 12.4934 19.7081C13.9418 19.7051 14.9839 19.7029 15.7308 19.7375C15.8187 19.7416 15.9037 19.7462 15.9859 19.7515C15.8824 19.5631 15.7691 19.3675 15.6491 19.1764C15.4622 18.8784 15.2679 18.6053 15.0793 18.391C14.8815 18.1663 14.7323 18.0556 14.6451 18.017C14.0358 17.7493 13.6721 17.665 11 17.665C9.53887 17.665 8.78953 17.6848 8.31433 17.7402C7.88601 17.79 7.70243 17.8645 7.35413 18.0173ZM16.6658 21.1741C16.4551 21.124 16.1454 21.088 15.674 21.0662C14.9593 21.0331 13.9608 21.0351 12.5254 21.0381C12.064 21.0391 11.5567 21.0401 11 21.0401C10.4439 21.0401 9.93717 21.0391 9.47609 21.0381C8.04054 21.0351 7.04001 21.0331 6.32493 21.0662C5.85317 21.088 5.54312 21.1241 5.33214 21.1741C5.20585 21.204 5.13356 21.2349 5.09217 21.2584C4.67108 21.6486 4.31417 21.9948 4.05272 22.3137C4.03298 22.3378 4.0142 22.3612 3.99631 22.384C4.71099 22.5404 5.47992 22.6329 6.5 22.71V24.0438C5.38125 23.9616 4.50487 23.8601 3.66496 23.6728V28.335H5.33496V27.3472L6.04831 27.3992C9.58282 27.6569 12.4171 27.6569 15.9516 27.3992L16.665 27.3472V28.335H18.335V23.673C17.4951 23.8602 16.6187 23.9618 15.5 24.0439V22.7102C16.5201 22.6331 17.289 22.5406 18.0037 22.3842C17.9858 22.3613 17.967 22.3378 17.9472 22.3137C17.6865 21.9957 17.3309 21.6505 16.9114 21.2618C16.8711 21.2378 16.7981 21.2055 16.6658 21.1741Z" fill="#000000" class="bmwfcol"/><title>fuel-car-gas_lt_48</title></svg>