<svg width="48" height="48" viewBox="0 0 32 32" xmlns="http://www.w3.org/2000/svg"><path d="M27.335 16C27.335 12.5511 26.1882 9.72869 24.2297 7.77019C22.2712 5.81169 19.4488 4.66496 16 4.66496C12.5511 4.66496 9.72869 5.81169 7.77019 7.77019C5.81169 9.72869 4.66496 12.5511 4.66496 16C4.66496 19.4488 5.81169 22.2712 7.77019 24.2297C9.72869 26.1882 12.5511 27.335 16 27.335C18.4609 27.335 20.6017 26.7506 22.335 25.708V22.2754L19.5298 19.4702C19.0024 18.9429 18.659 18.4972 18.487 17.9126C18.3346 17.3943 18.3348 16.8071 18.335 16.0832V11.2755L16 8.94047V7.05957L22.4702 13.5298C22.9976 14.0572 23.341 14.5028 23.513 15.0874C23.6654 15.6057 23.6652 16.1929 23.665 16.9167V26.4369L23.3626 26.6336C21.3368 27.9517 18.831 28.665 16 28.665C12.2488 28.665 9.07123 27.4117 6.82973 25.1702C4.58824 22.9287 3.33496 19.7511 3.33496 16C3.33496 12.2488 4.58824 9.07123 6.82973 6.82973C9.07123 4.58824 12.2488 3.33496 16 3.33496C19.7511 3.33496 22.9287 4.58824 25.1702 6.82973C27.4117 9.07123 28.665 12.2488 28.665 16H27.335ZM22.335 17C22.335 16.1623 22.3288 15.7747 22.237 15.4627C22.159 15.1973 22.0024 14.9429 21.5298 14.4703L19.665 12.6055V16C19.665 16.8377 19.6712 17.2254 19.763 17.5373C19.841 17.8027 19.9976 18.0571 20.4702 18.5298L22.335 20.3946V17Z" fill="#000000" class="bmwfcol"/><path d="M8.85754 11.8398H11.7974C12.9594 11.8398 13.7129 12.0225 14.3306 12.6517C15.0123 13.3448 15.2995 14.481 15.2995 15.968C15.2995 17.4692 14.979 18.6377 14.2211 19.3619C13.5836 19.9765 12.8122 20.1598 11.7125 20.1598H8.85754V11.8398ZM13.3737 13.632C13.0324 13.226 12.5501 13.1466 11.7974 13.1466H10.1961V18.8531H11.7231C12.1689 18.8531 12.5001 18.8036 12.7627 18.7031C13.0219 18.604 13.2226 18.452 13.4032 18.2324C13.7586 17.8002 13.9397 17.0109 13.9397 15.968C13.9397 14.9418 13.7889 14.1148 13.3737 13.632Z" fill="#000000" class="bmwfcol"/><title>fuel-type-diesel_lt_48</title></svg>