<svg width="48" height="48" viewBox="0 0 32 32" xmlns="http://www.w3.org/2000/svg"><path d="M24.2297 7.77019C26.1882 9.72869 27.335 12.5511 27.335 16H28.665C28.665 12.2488 27.4117 9.07123 25.1702 6.82973C22.9287 4.58824 19.7511 3.33496 16 3.33496C12.2488 3.33496 9.07123 4.58824 6.82973 6.82973C4.58824 9.07123 3.33496 12.2488 3.33496 16C3.33496 19.7511 4.58824 22.9287 6.82973 25.1702C9.07123 27.4117 12.2488 28.665 16 28.665C18.831 28.665 21.3368 27.9517 23.3626 26.6336L23.665 26.4369V25C23.665 23.9274 23.528 23.1624 22.9985 22.3304C22.5737 21.6628 21.8969 20.9596 20.9172 19.977C21.6453 19.0814 22.0594 18.0202 21.8288 16.7108C21.5676 15.2278 20.4958 13.5553 18.4702 11.5298L18 11.0596L16.5 12.5596L13.4702 9.52979L12.5298 10.4702L15.5596 13.5L13.5 15.5596L10.4702 12.5298L9.52979 13.4702L12.5596 16.5L11.0596 18L11.5298 18.4702C13.5553 20.4958 15.2278 21.5676 16.7108 21.8288C18.0199 22.0593 19.081 21.6455 19.9765 20.9176C20.9697 21.9149 21.5361 22.5097 21.8764 23.0445C22.222 23.5875 22.335 24.0726 22.335 25V25.708C20.6017 26.7506 18.4609 27.335 16 27.335C12.5511 27.335 9.72869 26.1882 7.77019 24.2297C5.81169 22.2712 4.66496 19.4488 4.66496 16C4.66496 12.5511 5.81169 9.72869 7.77019 7.77019C9.72869 5.81169 12.5511 4.66496 16 4.66496C19.4488 4.66496 22.2712 5.81169 24.2297 7.77019ZM16.9415 20.519C15.9616 20.3464 14.6773 19.6359 12.9465 17.994L17.994 12.9465C19.6359 14.6773 20.3464 15.9616 20.519 16.9415C20.6938 17.9341 20.3324 18.7272 19.5298 19.5298C18.7272 20.3324 17.9341 20.6938 16.9415 20.519Z" fill="#000000" class="bmwfcol"/><title>fuel-type-bev_lt_48</title></svg>