<svg width="48" height="48" viewBox="0 0 32 32" xmlns="http://www.w3.org/2000/svg"><path d="M27.335 16C27.335 12.5511 26.1882 9.72869 24.2297 7.77019C22.2712 5.81169 19.4488 4.66496 16 4.66496C12.5511 4.66496 9.72869 5.81169 7.77019 7.77019C5.81169 9.72869 4.66496 12.5511 4.66496 16C4.66496 19.4488 5.81169 22.2712 7.77019 24.2297C9.72869 26.1882 12.5511 27.335 16 27.335C18.4609 27.335 20.6017 26.7506 22.335 25.708V22.2754L19.5298 19.4702C19.0024 18.9429 18.659 18.4972 18.487 17.9126C18.3346 17.3943 18.3348 16.8071 18.335 16.0832V11.2755L16 8.94047V7.05957L22.4702 13.5298C22.9976 14.0572 23.341 14.5028 23.513 15.0874C23.6654 15.6057 23.6652 16.1929 23.665 16.9167V26.4369L23.3626 26.6336C21.3368 27.9517 18.831 28.665 16 28.665C12.2488 28.665 9.07123 27.4117 6.82973 25.1702C4.58824 22.9287 3.33496 19.7511 3.33496 16C3.33496 12.2488 4.58824 9.07123 6.82973 6.82973C9.07123 4.58824 12.2488 3.33496 16 3.33496C19.7511 3.33496 22.9287 4.58824 25.1702 6.82973C27.4117 9.07123 28.665 12.2488 28.665 16H27.335ZM22.335 17C22.335 16.1623 22.3288 15.7747 22.237 15.4627C22.159 15.1973 22.0024 14.9429 21.5298 14.4703L19.665 12.6055V16C19.665 16.8377 19.6712 17.2254 19.763 17.5373C19.841 17.8027 19.9976 18.0571 20.4702 18.5298L22.335 20.3946V17Z" fill="#000000" class="bmwfcol"/><path d="M12.5 20.665C11.5742 20.665 10.761 20.3525 10.1833 19.7303C9.61095 19.114 9.33496 18.2645 9.33496 17.3077C9.33496 16.2422 9.94692 15.2525 10.4824 14.4159C10.5316 14.3391 10.5805 14.263 10.6291 14.1874C11.1523 13.374 11.6312 12.6294 11.848 11.8267L11.9807 11.335H13.0192L13.152 11.8267C13.3687 12.6294 13.8472 13.3734 14.3704 14.1868C14.4191 14.2625 14.4683 14.3389 14.5176 14.4159C15.053 15.2525 15.665 16.2422 15.665 17.3077C15.665 18.2645 15.389 19.114 14.8166 19.7303C14.2389 20.3525 13.4258 20.665 12.5 20.665ZM10.665 17.3077C10.665 18.0148 10.8665 18.5115 11.1579 18.8253C11.4439 19.1334 11.8808 19.335 12.5 19.335C13.1192 19.335 13.556 19.1334 13.842 18.8253C14.1334 18.5115 14.335 18.0148 14.335 17.3077C14.335 16.6948 13.9719 16.0306 13.3974 15.1329C13.3465 15.0534 13.294 14.9722 13.2406 14.8895C12.9995 14.5161 12.7375 14.1104 12.5 13.6779C12.2624 14.1104 12.0006 14.5159 11.7595 14.8893C11.706 14.9721 11.6535 15.0533 11.6026 15.1329C11.028 16.0306 10.665 16.6948 10.665 17.3077Z" fill="#000000" class="bmwfcol"/><title>fuel-type-petrol_lt_48</title></svg>