<svg width="48" height="48" viewBox="0 0 32 32" xmlns="http://www.w3.org/2000/svg"><path d="M11.665 12C11.665 12.7051 11.7298 13.3738 11.8539 14.0025C11.5876 14.0005 11.3039 14 11 14C10.8273 14 10.6612 14.0002 10.5014 14.0008C10.3913 13.3616 10.335 12.6933 10.335 12C10.335 9.14884 11.2882 6.72123 13.0047 5.00473C14.7212 3.28824 17.1488 2.33496 20 2.33496C22.8511 2.33496 25.2787 3.28824 26.9952 5.00473C28.402 6.41158 29.2962 8.29612 29.573 10.5C29.6339 10.9851 29.665 11.4856 29.665 12C29.665 13.2572 29.4796 14.4321 29.1252 15.5H27.7113C28.1157 14.471 28.335 13.2972 28.335 12C28.335 9.45112 27.4882 7.37869 26.0547 5.94519C24.6212 4.51169 22.5488 3.66496 20 3.66496C17.4511 3.66496 15.3787 4.51169 13.9452 5.94519C12.5117 7.37869 11.665 9.45108 11.665 12Z" fill="#000000" class="bmwfcol"/><path d="M24 20.9438C23.3724 21.1914 22.7039 21.3776 22 21.4987V20.1466C22.7208 20.0045 23.3892 19.7845 24 19.4949V20.9438Z" fill="#000000" class="bmwfcol"/><path d="M28.4103 21.4757H24.9813V20.6071L25.0415 20.5423C25.5936 19.9482 26.5303 18.9343 26.8408 18.5534C27.0962 18.2371 27.2081 18.0684 27.2081 17.8359C27.2081 17.6853 27.1808 17.6076 27.114 17.5422C27.0292 17.4696 26.8863 17.4221 26.5675 17.4221C26.232 17.4221 25.6782 17.5617 25.4113 17.63L25.1306 17.7018V16.6701L25.2999 16.6269C25.581 16.5551 26.1784 16.4229 26.6033 16.4229C27.1993 16.4229 27.5751 16.5304 27.8857 16.8479C28.1422 17.105 28.2432 17.4678 28.2432 17.8001C28.2432 18.4026 27.9714 18.8133 27.5743 19.2776C27.2132 19.7058 26.8205 20.1364 26.4971 20.4765H28.4103V21.4757Z" fill="#000000" class="bmwfcol"/><path d="M16.9312 15.7002H18.2861V12.2089H21.7156V15.7002H23.0705V7.80029H21.7156V10.8838H18.2861V7.80029H16.9312V15.7002Z" fill="#000000" class="bmwfcol"/><path d="M8.09951 22.1475H10.4069L11 22.444L11.593 22.1475H13.9004L14.665 22.912V25.0619L13.6866 26.665H11.287L11 26.3779L10.7129 26.665H8.34893L7.33496 25.0683V22.912L8.09951 22.1475ZM8.66496 23.4775V24.6817L9.07984 25.335H10.162L10.335 25.162V23.5985L10.093 23.4775H8.66496ZM11.665 23.5985V25.162L11.8379 25.335H12.9402L13.335 24.6881V23.4775H11.9069L11.665 23.5985Z" fill="#000000" class="bmwfcol"/><path d="M8.16052 16.4191C8.72615 16.3532 9.55496 16.335 11 16.335C13.6394 16.335 14.2782 16.4031 15.1806 16.7996C15.5308 16.954 15.8342 17.2357 16.0776 17.5122C16.3304 17.7993 16.5671 18.1371 16.7757 18.4695C16.9479 18.7438 17.1067 19.0241 17.2454 19.2846C17.5473 19.114 17.8729 19.0351 18.2357 18.997C18.6159 18.9571 19.0925 18.9581 19.6732 18.9594C19.7787 18.9596 19.8877 18.9599 20 18.9599V20.2899C19.8796 20.2899 19.7664 20.2897 19.6597 20.2895C19.0715 20.2885 18.6779 20.2879 18.3744 20.3198C18.1773 20.3404 18.0496 20.3722 17.9539 20.4152C18.33 20.7672 18.6904 21.1225 18.9757 21.4705C19.3258 21.8974 19.665 22.4319 19.665 23.0321V29.665H15.335V28.7748C12.2933 28.9717 9.7066 28.9717 6.66496 28.7748V29.665H2.33496V23.0321C2.33496 22.4319 2.67417 21.8974 3.0242 21.4705C3.30948 21.1225 3.66991 20.7672 4.04597 20.4152C3.95024 20.3722 3.82252 20.3404 3.62543 20.3198C3.322 20.2879 2.93246 20.2885 2.34429 20.2895C2.23842 20.2897 2.11936 20.2899 2 20.2899V18.9599C2.11212 18.9599 2.22078 18.9596 2.32601 18.9594C2.90671 18.9581 3.384 18.9571 3.76424 18.997C4.12705 19.0351 4.45255 19.114 4.75436 19.2845C4.89307 19.0238 5.05197 18.7434 5.22416 18.4689C5.43275 18.1364 5.66956 17.7985 5.92241 17.5114C6.16582 17.235 6.46873 16.9535 6.81951 16.7995C7.22802 16.6202 7.54804 16.4904 8.16052 16.4191ZM7.35413 18.0173C7.26755 18.0553 7.11853 18.1655 6.92058 18.3903C6.732 18.6045 6.53781 18.8776 6.35083 19.1757C6.23083 19.367 6.11737 19.5628 6.01381 19.7514C6.09578 19.7462 6.18052 19.7416 6.26811 19.7375C7.01545 19.7029 8.05819 19.7051 9.50667 19.7081C9.963 19.7091 10.4597 19.7101 11 19.7101C11.5405 19.7101 12.0371 19.7091 12.4934 19.7081C13.9418 19.7051 14.9839 19.7029 15.7308 19.7375C15.8187 19.7416 15.9037 19.7462 15.9859 19.7515C15.8824 19.5631 15.7691 19.3675 15.6491 19.1764C15.4622 18.8784 15.2679 18.6053 15.0793 18.391C14.8815 18.1663 14.7323 18.0556 14.6451 18.017C14.0358 17.7493 13.6721 17.665 11 17.665C9.53887 17.665 8.78953 17.6848 8.31433 17.7402C7.88601 17.79 7.70243 17.8645 7.35413 18.0173ZM16.6658 21.1741C16.4551 21.124 16.1454 21.088 15.674 21.0662C14.9593 21.0331 13.9602 21.0351 12.5248 21.0381C12.064 21.0391 11.5559 21.0401 11 21.0401C10.4439 21.0401 9.93595 21.0391 9.47487 21.0381C8.03932 21.0351 7.04001 21.0331 6.32493 21.0662C5.85317 21.088 5.54312 21.1241 5.33214 21.1741C5.20585 21.204 5.13356 21.2349 5.09217 21.2584C4.67108 21.6486 4.31417 21.9948 4.05272 22.3137C4.03298 22.3378 4.0142 22.3612 3.99631 22.384C4.71099 22.5404 5.47992 22.6329 6.5 22.71V24.0438C5.38125 23.9616 4.50487 23.8601 3.66496 23.6728V28.335H5.33496V27.3472L6.04831 27.3992C9.58282 27.6569 12.4171 27.6569 15.9516 27.3992L16.665 27.3472V28.335H18.335V23.673C17.4951 23.8602 16.6187 23.9618 15.5 24.0439V22.7102C16.5201 22.6331 17.289 22.5406 18.0037 22.3842C17.9858 22.3613 17.967 22.3378 17.9472 22.3137C17.6865 21.9957 17.3309 21.6505 16.9114 21.2618C16.8711 21.2378 16.7981 21.2055 16.6658 21.1741Z" fill="#000000" class="bmwfcol"/><title>fuel-car-h2_lt_48</title></svg>