<svg width="48" height="48" viewBox="0 0 32 32" xmlns="http://www.w3.org/2000/svg"><path d="M25.1631 3.59009L23.82 4.36554L23.4539 5.73158L19.3623 8.09385C18.4723 8.60773 18.0555 8.84386 17.6209 8.97518C16.958 9.1755 16.2374 9.13874 15.5525 9.13873L14.2936 9.86555C14.1954 10.2321 14.0892 10.5976 14.0104 10.9689C13.9619 11.1975 13.9295 11.4202 13.9431 11.6471C13.9571 11.8794 14.0199 12.086 14.1071 12.2826L11.4922 13.7924L14.1571 18.4081L17.1767 16.6647C19.0322 16.6645 20.0841 16.6583 20.9194 16.4858C21.8035 16.3033 22.4389 15.9364 23.463 15.345C24.8325 14.5542 26.202 13.7635 27.5716 12.9729C28.2442 12.5845 28.9169 12.1962 29.5895 11.8078C29.9766 11.5844 30.2819 11.2468 30.4 10.8061C30.518 10.3655 30.4224 9.92046 30.199 9.5334L27.6579 5.13188C27.4488 4.76808 27.2487 4.41995 26.8812 4.1773C26.6915 4.05206 26.4825 3.96873 26.2602 3.89645C25.8992 3.77908 25.5296 3.68831 25.1631 3.59009ZM23.6051 7.18006C23.7245 7.63982 23.813 8.00836 23.8681 8.31933C23.9529 8.79809 23.9407 9.05495 23.8866 9.23265C23.8365 9.3969 23.7263 9.57267 23.433 9.8334C23.128 10.1044 22.6925 10.4106 22.0482 10.8618C20.7062 11.8014 20.2974 12.0453 19.6626 11.953C19.3019 11.9005 18.8323 11.7276 18.1016 11.3557C17.6462 11.124 17.1134 10.828 16.4682 10.4596C17.077 10.4407 17.5464 10.3871 18.0056 10.2483C18.6044 10.0674 19.1565 9.74856 19.9634 9.28256L23.6051 7.18006ZM15.2707 11.5674C15.2681 11.5231 15.2713 11.4531 15.2962 11.3206C16.18 11.8295 16.8987 12.2359 17.4984 12.5411C18.2563 12.9268 18.886 13.184 19.4712 13.2692C20.7786 13.4593 21.8378 12.6334 22.8457 11.9269C23.4483 11.505 23.9475 11.1555 24.3166 10.8275C24.7043 10.4828 25.0094 10.1105 25.1588 9.62036C25.3041 9.14365 25.2755 8.6397 25.1777 8.08747C25.0869 7.5743 24.9211 6.9458 24.7134 6.1698L24.962 5.2419L25.3507 5.01753C25.6077 5.08719 25.9223 5.13789 26.1484 5.2872C26.2234 5.33672 26.2719 5.39156 26.5471 5.86827L29.0471 10.1984C29.1642 10.4012 29.1273 10.5389 28.9245 10.656L22.8624 14.156C21.7594 14.7928 21.3048 15.0482 20.6505 15.1833C19.4108 15.4392 18.077 15.3347 16.8204 15.3347L14.6439 16.5913L13.309 14.2792L15.9071 12.7792L15.5746 12.2033C15.2993 11.7266 15.2761 11.6571 15.2707 11.5674Z" fill="#000000" class="bmwfcol"/><path d="M5.33594 28.4151H2V27.0851H6.66594V28.3351H9.33594V21.665H4V20.335H9.05805C8.61735 19.6593 7.99512 19.1044 7.40883 18.56C7.34381 18.5 7.21646 18.4191 6.90967 18.3491C6.59746 18.2779 6.15176 18.2292 5.49414 18.1999C4.65254 18.1625 3.52895 18.1586 2 18.1607V16.8306C3.53545 16.8286 4.68798 16.8327 5.5533 16.8712C5.85166 16.8845 6.12354 16.9021 6.37122 16.926C6.18413 16.5669 5.96247 16.1691 5.72095 15.7842C5.46803 15.3811 5.20197 15.0062 4.93974 14.7083C4.66843 14.4001 4.44403 14.2241 4.284 14.1533C3.72366 13.9072 3.30538 13.7744 2 13.7118V12.3795C3.44075 12.4455 4.05446 12.5998 4.81928 12.9358C5.24235 13.1224 5.62109 13.4694 5.93805 13.8295C6.2644 14.2002 6.57299 14.6398 6.8475 15.0772C7.0864 15.4579 7.30606 15.8476 7.49565 16.2065C7.84793 16.0204 8.23158 15.9294 8.6698 15.8834C9.2539 15.8221 10.015 15.8351 10.9992 15.8351V17.1651C9.95955 17.1651 9.30244 17.1544 8.80859 17.2062C8.47962 17.2407 8.26906 17.2994 8.10339 17.3897C8.72896 17.9656 9.33921 18.5427 9.7972 19.1013C10.2574 19.6626 10.6659 20.3237 10.6659 21.0429V29.6651H5.33594V28.4151Z" fill="#000000" class="bmwfcol"/><title>fuel-additive_lt_48</title></svg>