<svg width="48" height="48" viewBox="0 0 32 32" xmlns="http://www.w3.org/2000/svg"><path d="M27.335 16C27.335 12.5511 26.1882 9.72869 24.2297 7.77019C22.2712 5.81169 19.4488 4.66496 16 4.66496C12.5511 4.66496 9.72869 5.81169 7.77019 7.77019C5.81169 9.72869 4.66496 12.5511 4.66496 16C4.66496 19.4488 5.81169 22.2712 7.77019 24.2297C9.72869 26.1882 12.5511 27.335 16 27.335C19.3162 27.335 22.0533 26.2747 24 24.452V26.1872C21.8766 27.7872 19.1391 28.665 16 28.665C12.2488 28.665 9.07123 27.4117 6.82973 25.1702C4.58824 22.9287 3.33496 19.7511 3.33496 16C3.33496 12.2488 4.58824 9.07123 6.82973 6.82973C9.07123 4.58824 12.2488 3.33496 16 3.33496C19.7511 3.33496 22.9287 4.58824 25.1702 6.82973C27.4117 9.07123 28.665 12.2488 28.665 16H27.335Z" fill="#000000" class="bmwfcol"/><path d="M11.9306 19.19L12.1677 19.1392V17.7682L11.804 17.8473C11.2467 17.9685 10.6592 18.0952 10.1484 18.0952C9.7918 18.0952 9.54876 18.0426 9.37678 17.9536C9.21289 17.8688 9.0908 17.7394 8.99531 17.5358C8.85792 17.2412 8.78474 16.7094 8.78474 16.047C8.78474 15.3475 8.85921 14.7589 9.01575 14.4459C9.1194 14.2386 9.24209 14.1141 9.40045 14.0345C9.56738 13.9507 9.80101 13.9033 10.1484 13.9033C10.3949 13.9033 10.6402 13.9455 10.9174 14.0009C11.2418 14.0627 11.4916 14.1249 11.7914 14.2038L12.1677 14.3029V12.922L11.9486 12.8607C11.7396 12.8021 11.4925 12.7446 11.161 12.6799C10.8487 12.6239 10.4716 12.563 10.0927 12.563C9.50225 12.563 9.04329 12.6641 8.67747 12.8617C8.3085 13.061 8.05987 13.3447 7.86896 13.6644C7.50563 14.273 7.40466 15.1574 7.40466 16.0549C7.40466 16.8798 7.5158 17.6778 7.77909 18.196C7.95583 18.5492 8.1991 18.8685 8.57898 19.0947C8.95637 19.3195 9.44003 19.4355 10.0688 19.4355C10.7565 19.4355 11.3733 19.3094 11.9306 19.19Z" fill="#000000" class="bmwfcol"/><path d="M13.0777 19.3001H14.4339V15.2085L16.8357 19.3001H18.2627V12.6983H16.9065V16.79L14.5047 12.6983H13.0777V19.3001Z" fill="#000000" class="bmwfcol"/><path d="M24.1608 19.2329L24.4146 19.1933V15.4923H23.0505V18.0259C22.7485 18.0601 22.3643 18.0952 22.0371 18.0952C21.6851 18.0952 21.4404 18.0428 21.2667 17.9552C21.1008 17.8715 20.9804 17.7457 20.8908 17.5573C20.7465 17.2556 20.6734 16.7643 20.6734 16.047C20.6734 15.3359 20.755 14.7607 20.9124 14.4459C21.0167 14.2341 21.1383 14.1095 21.2937 14.0318C21.4587 13.9493 21.6916 13.9033 22.045 13.9033C22.2675 13.9033 22.5025 13.9451 22.7701 13.9937C23.1348 14.0636 23.5171 14.1571 23.8349 14.2366L24.2077 14.3298V12.949L23.9826 12.8909C23.7306 12.8259 23.3814 12.7446 23.0146 12.6794C22.7178 12.6232 22.3608 12.563 21.9893 12.563C21.408 12.563 20.9518 12.6597 20.5854 12.8535C20.2154 13.0492 19.9614 13.3315 19.7656 13.6564C19.4032 14.2635 19.2934 15.114 19.2934 16.0549C19.2934 16.956 19.4034 17.7292 19.6967 18.2532C19.8761 18.5853 20.1126 18.8908 20.485 19.108C20.8552 19.324 21.3303 19.4355 21.9575 19.4355C22.7135 19.4355 23.5437 19.3291 24.1608 19.2329Z" fill="#000000" class="bmwfcol"/><title>fuel-type-gas_lt_48</title></svg>