<svg width="48" height="48" viewBox="0 0 32 32" xmlns="http://www.w3.org/2000/svg"><path d="M16 10.665H12V9.33496H16V10.665Z" fill="#000000" class="bmwfcol"/><path d="M11.0827 3.4448C11.6261 3.36978 12.5038 3.33496 14.0009 3.33496C15.4981 3.33496 16.3758 3.36978 16.9192 3.4448C17.194 3.48274 17.4208 3.5355 17.6139 3.6189C17.8262 3.71063 17.9636 3.8247 18.0699 3.93098C18.4787 4.33981 18.6659 4.89802 18.6659 5.49996V9.33502H19C19.7569 9.33502 20.4402 9.56973 20.9352 10.0648C21.4303 10.5599 21.665 11.2431 21.665 12V14C21.665 14.4831 21.8103 14.7999 22.0052 14.9948C22.2002 15.1897 22.5169 15.335 23 15.335C23.4831 15.335 23.7998 15.1897 23.9948 14.9948C24.1897 14.7999 24.335 14.4831 24.335 14V10C24.335 9.2169 24.3294 8.82342 24.2356 8.49521C24.1542 8.21045 23.9902 7.93063 23.5298 7.47025L22 5.94047V4.05957L24.4702 6.5298C25.0098 7.06942 25.3458 7.5396 25.5144 8.12983C25.6654 8.65812 25.6652 9.24215 25.665 9.9276L25.665 14C25.665 14.757 25.4303 15.4402 24.9352 15.9352C24.4402 16.4303 23.7569 16.665 23 16.665C22.2431 16.665 21.5598 16.4303 21.0648 15.9352C20.5697 15.4402 20.335 14.757 20.335 14V12C20.335 11.517 20.1897 11.2002 19.9948 11.0052C19.7998 10.8103 19.4831 10.665 19 10.665H18.6659V17.335H20V18.665L8 18.665V17.335H9.33594V5.49996C9.33594 4.89802 9.52314 4.33981 9.93196 3.93098C10.0382 3.8247 10.1757 3.71063 10.388 3.6189C10.5811 3.5355 10.8079 3.48274 11.0827 3.4448ZM17.3359 5.49996C17.3359 5.1719 17.2381 4.98012 17.1295 4.87144C17.1066 4.84856 17.1044 4.84759 17.0868 4.84002C17.0496 4.82393 16.9549 4.79234 16.7373 4.76231C16.2961 4.70139 15.5038 4.66496 14.0009 4.66496C12.4981 4.66496 11.7058 4.70139 11.2645 4.76231C11.047 4.79234 10.9528 4.82372 10.9155 4.83981C10.898 4.84739 10.8953 4.84856 10.8724 4.87144C10.7637 4.98012 10.6659 5.1719 10.6659 5.49996V17.335L17.3359 17.335V5.49996Z" fill="#000000" class="bmwfcol"/><path d="M6.66398 29V21H5.33398V29H6.66398Z" fill="#000000" class="bmwfcol"/><path d="M8.83398 23C8.83398 22.3565 9.35557 21.835 9.99898 21.835C10.6424 21.835 11.164 22.3565 11.164 23C11.164 23.6434 10.6424 24.165 9.99898 24.165C9.35557 24.165 8.83398 23.6434 8.83398 23Z" fill="#000000" class="bmwfcol"/><path d="M9.99898 25.835C9.35557 25.835 8.83398 26.3565 8.83398 27C8.83398 27.6434 9.35557 28.165 9.99898 28.165C10.6424 28.165 11.164 27.6434 11.164 27C11.164 26.3565 10.6424 25.835 9.99898 25.835Z" fill="#000000" class="bmwfcol"/><path d="M12.834 23C12.834 22.3565 13.3556 21.835 13.999 21.835C14.6424 21.835 15.164 22.3565 15.164 23C15.164 23.6434 14.6424 24.165 13.999 24.165C13.3556 24.165 12.834 23.6434 12.834 23Z" fill="#000000" class="bmwfcol"/><path d="M13.999 25.835C13.3556 25.835 12.834 26.3565 12.834 27C12.834 27.6434 13.3556 28.165 13.999 28.165C14.6424 28.165 15.164 27.6434 15.164 27C15.164 26.3565 14.6424 25.835 13.999 25.835Z" fill="#000000" class="bmwfcol"/><path d="M16.834 23C16.834 22.3565 17.3556 21.835 17.999 21.835C18.6424 21.835 19.164 22.3565 19.164 23C19.164 23.6434 18.6424 24.165 17.999 24.165C17.3556 24.165 16.834 23.6434 16.834 23Z" fill="#000000" class="bmwfcol"/><path d="M17.999 25.835C17.3556 25.835 16.834 26.3565 16.834 27C16.834 27.6434 17.3556 28.165 17.999 28.165C18.6424 28.165 19.164 27.6434 19.164 27C19.164 26.3565 18.6424 25.835 17.999 25.835Z" fill="#000000" class="bmwfcol"/><path d="M20.834 23C20.834 22.3565 21.3556 21.835 21.999 21.835C22.6424 21.835 23.164 22.3565 23.164 23C23.164 23.6434 22.6424 24.165 21.999 24.165C21.3556 24.165 20.834 23.6434 20.834 23Z" fill="#000000" class="bmwfcol"/><path d="M21.999 25.835C21.3556 25.835 20.834 26.3565 20.834 27C20.834 27.6434 21.3556 28.165 21.999 28.165C22.6424 28.165 23.164 27.6434 23.164 27C23.164 26.3565 22.6424 25.835 21.999 25.835Z" fill="#000000" class="bmwfcol"/><path d="M26.664 21V29H25.334V21H26.664Z" fill="#000000" class="bmwfcol"/><title>fuel-filter-service_lt_48</title></svg>