<svg width="48" height="48" viewBox="0 0 32 32" xmlns="http://www.w3.org/2000/svg"><path d="M27.335 16C27.335 12.5511 26.1882 9.72869 24.2297 7.77019C22.2712 5.81169 19.4488 4.66496 16 4.66496C12.5511 4.66496 9.72869 5.81169 7.77019 7.77019C5.81169 9.72869 4.66496 12.5511 4.66496 16C4.66496 19.4488 5.81169 22.2712 7.77019 24.2297C9.72869 26.1882 12.5511 27.335 16 27.335C18.4609 27.335 20.6017 26.7506 22.335 25.708V22.2754L19.5298 19.4702C19.0024 18.9429 18.659 18.4972 18.487 17.9126C18.3346 17.3943 18.3348 16.8071 18.335 16.0832V11.2755L16 8.94047V7.05957L22.4702 13.5298C22.9976 14.0572 23.341 14.5028 23.513 15.0874C23.6654 15.6057 23.6652 16.1929 23.665 16.9167V26.4369L23.3626 26.6336C21.3368 27.9517 18.831 28.665 16 28.665C12.2488 28.665 9.07123 27.4117 6.82973 25.1702C4.58824 22.9287 3.33496 19.7511 3.33496 16C3.33496 12.2488 4.58824 9.07123 6.82973 6.82973C9.07123 4.58824 12.2488 3.33496 16 3.33496C19.7511 3.33496 22.9287 4.58824 25.1702 6.82973C27.4117 9.07123 28.665 12.2488 28.665 16H27.335ZM22.335 17C22.335 16.1623 22.3288 15.7747 22.237 15.4627C22.159 15.1973 22.0024 14.9429 21.5298 14.4703L19.665 12.6055V16C19.665 16.8377 19.6712 17.2254 19.763 17.5373C19.841 17.8027 19.9976 18.0571 20.4702 18.5298L22.335 20.3946V17Z" fill="#000000" class="bmwfcol"/><path d="M13.665 10.335H10.335V11.335H9.33496V21.665H14.665V11.335H13.665V10.335ZM11.665 12.665V11.665H12.335V12.665H13.335V20.335H10.665V12.665H11.665Z" fill="#000000" class="bmwfcol"/><title>fuel-type-mhev_lt_48</title></svg>