<svg width="48" height="48" viewBox="0 0 32 32" xmlns="http://www.w3.org/2000/svg"><path d="M10 14.665H16V13.335H10V14.665Z" fill="#000000" class="bmwfcol"/><path d="M8.5841 4.47794C9.37506 4.38181 10.693 4.33496 13 4.33496C15.3069 4.33496 16.6249 4.38181 17.4158 4.47794C17.8124 4.52614 18.1158 4.59088 18.3599 4.68749C18.6281 4.79362 18.7981 4.92769 18.9352 5.06473C19.4303 5.55981 19.665 6.24302 19.665 6.99996V13.335H21C21.7569 13.335 22.4402 13.5697 22.9352 14.0648C23.4303 14.5599 23.665 15.2431 23.665 16V21C23.665 21.4831 23.8103 21.7999 24.0052 21.9948C24.2002 22.1897 24.5169 22.335 25 22.335C25.4831 22.335 25.7998 22.1897 25.9948 21.9948C26.1897 21.7999 26.335 21.4831 26.335 21V12C26.335 11.2169 26.3294 10.8234 26.2356 10.4952C26.1542 10.2104 25.9902 9.93063 25.5298 9.47025L23 6.94047V5.05957L26.4702 8.5298C27.0098 9.06942 27.3458 9.5396 27.5144 10.1298C27.6654 10.6581 27.6652 11.2422 27.665 11.9276V21C27.665 21.757 27.4303 22.4402 26.9352 22.9352C26.4402 23.4303 25.7569 23.665 25 23.665C24.2431 23.665 23.5598 23.4303 23.0648 22.9352C22.5697 22.4402 22.335 21.757 22.335 21V16C22.335 15.517 22.1897 15.2002 21.9948 15.0052C21.7998 14.8103 21.4831 14.665 21 14.665H19.665V26.335H22V27.665H4V26.335H6.33496V6.99996C6.33496 6.24302 6.56966 5.55981 7.06473 5.06473C7.20178 4.92769 7.37186 4.79362 7.63999 4.68749C7.88409 4.59088 8.18755 4.52614 8.5841 4.47794ZM18.335 6.99996C18.335 6.5169 18.1897 6.20012 17.9947 6.00519C17.9593 5.96973 17.9375 5.95068 17.8705 5.92415C17.7794 5.88811 17.6044 5.84066 17.2554 5.79823C16.5551 5.71311 15.313 5.66496 13 5.66496C10.6869 5.66496 9.44487 5.71311 8.74457 5.79823C8.3955 5.84066 8.22052 5.88811 8.12946 5.92415C8.06244 5.95068 8.04064 5.96973 8.00519 6.00519C7.81026 6.20012 7.66496 6.5169 7.66496 6.99996V26.335H18.335V6.99996Z" fill="#000000" class="bmwfcol"/><title>fuel-pump_lt_48</title></svg>