<svg width="48" height="48" viewBox="0 0 32 32" xmlns="http://www.w3.org/2000/svg"><path d="M11.8604 14.0353C11.732 13.397 11.665 12.7174 11.665 12C11.665 9.45108 12.5117 7.37869 13.9452 5.94519C15.3787 4.51169 17.4511 3.66496 20 3.66496C22.5488 3.66496 24.6212 4.51169 26.0547 5.94519C27.1299 7.02031 27.8749 8.45484 28.1803 10.1802C28.282 10.7553 28.335 11.3628 28.335 12C28.335 13.9235 27.8527 15.5757 27 16.8867V18.9904C28.7135 17.2741 29.665 14.8484 29.665 12C29.665 11.3069 29.6086 10.6389 29.4987 10C29.1564 8.01064 28.2944 6.30398 26.9952 5.00473C25.2787 3.28824 22.8511 2.33496 20 2.33496C17.1488 2.33496 14.7212 3.28824 13.0047 5.00473C11.2882 6.72123 10.335 9.14884 10.335 12C10.335 12.6933 10.3913 13.3616 10.5014 14.0008C10.6612 14.0002 10.8273 14 11 14C11.3106 14 11.5961 14.0124 11.8604 14.0353Z" fill="#000000" class="bmwfcol"/><path d="M22 21.4988C23.231 21.287 24.3548 20.8759 25.3421 20.2836L25.665 20.0899V12.4248C25.6653 11.8942 25.6655 11.431 25.5442 11.0186C25.4035 10.5403 25.1226 10.1822 24.7202 9.77981L20 5.05957V6.94047L21.335 8.27549V11.8252C21.3347 12.3559 21.3345 12.819 21.4558 13.2314C21.5965 13.7098 21.8774 14.0679 22.2798 14.4703L24.335 16.5254V19.3262C23.6371 19.6995 22.8558 19.9778 22 20.1465V21.4988ZM24.335 14.6446L23.2202 13.5298C22.8726 13.1822 22.7785 13.0153 22.7317 12.8561C22.6712 12.6504 22.665 12.3877 22.665 11.75V9.60548L23.7798 10.7203C24.1274 11.0679 24.2215 11.2348 24.2683 11.3939C24.3288 11.5997 24.335 11.8623 24.335 12.5V14.6446Z" fill="#000000" class="bmwfcol"/><path d="M17.375 15.665C16.6423 15.665 15.9854 15.4167 15.5157 14.9108C15.0513 14.4108 14.835 13.7296 14.835 12.9808C14.835 12.125 15.3251 11.3421 15.7218 10.7223L15.8295 10.5545C16.2254 9.93865 16.57 9.40244 16.7255 8.82666L16.8582 8.335H17.8918L18.0245 8.82666C18.18 9.40244 18.5246 9.93865 18.9205 10.5545L19.0282 10.7223C19.4249 11.3421 19.915 12.125 19.915 12.9808C19.915 13.7296 19.6987 14.4108 19.2343 14.9108C18.7646 15.4167 18.1077 15.665 17.375 15.665ZM16.165 12.9808C16.165 13.4799 16.3068 13.8083 16.4903 14.0058C16.6683 14.1976 16.9489 14.335 17.375 14.335C17.8011 14.335 18.0817 14.1976 18.2597 14.0058C18.4432 13.8083 18.585 13.4799 18.585 12.9808C18.585 12.5776 18.3438 12.1202 17.908 11.4393C17.87 11.3798 17.8305 11.3188 17.7901 11.2563C17.6574 11.0509 17.5142 10.8292 17.375 10.5938C17.2359 10.8292 17.0926 11.0508 16.9599 11.2562C16.9196 11.3186 16.8799 11.38 16.842 11.4393C16.4062 12.1202 16.165 12.5776 16.165 12.9808Z" fill="#000000" class="bmwfcol"/><path d="M8.09951 22.1475H10.4069L11 22.444L11.593 22.1475H13.9004L14.665 22.912V25.0619L13.6866 26.665H11.287L11 26.3779L10.7129 26.665H8.34893L7.33496 25.0683V22.912L8.09951 22.1475ZM8.66496 23.4775V24.6817L9.07984 25.335H10.162L10.335 25.162V23.5985L10.093 23.4775H8.66496ZM11.665 23.5985V25.162L11.8379 25.335H12.9402L13.335 24.6881V23.4775H11.9069L11.665 23.5985Z" fill="#000000" class="bmwfcol"/><path d="M8.16052 16.4191C8.72615 16.3532 9.55496 16.335 11 16.335C13.6394 16.335 14.2782 16.4031 15.1806 16.7996C15.5308 16.954 15.8342 17.2357 16.0776 17.5122C16.3304 17.7993 16.5671 18.1371 16.7757 18.4695C16.9479 18.7438 17.1067 19.0241 17.2454 19.2846C17.5473 19.114 17.8729 19.0351 18.2357 18.997C18.6159 18.9571 19.0925 18.9581 19.6732 18.9594C19.7787 18.9596 19.8877 18.9599 20 18.9599V20.2899C19.8796 20.2899 19.7664 20.2897 19.6597 20.2895C19.0715 20.2885 18.6779 20.2879 18.3744 20.3198C18.1773 20.3404 18.0496 20.3722 17.9539 20.4152C18.33 20.7672 18.6904 21.1225 18.9757 21.4705C19.3258 21.8974 19.665 22.4319 19.665 23.0321V29.665H15.335V28.7748C12.2933 28.9717 9.7066 28.9717 6.66496 28.7748V29.665H2.33496V23.0321C2.33496 22.4319 2.67417 21.8974 3.0242 21.4705C3.30948 21.1225 3.66991 20.7672 4.04597 20.4152C3.95024 20.3722 3.82252 20.3404 3.62543 20.3198C3.322 20.2879 2.93246 20.2885 2.34429 20.2895C2.23842 20.2897 2.11936 20.2899 2 20.2899V18.9599C2.11212 18.9599 2.22078 18.9596 2.32601 18.9594C2.90671 18.9581 3.384 18.9571 3.76424 18.997C4.12705 19.0351 4.45255 19.114 4.75436 19.2845C4.89307 19.0238 5.05197 18.7434 5.22416 18.4689C5.43275 18.1364 5.66956 17.7985 5.92241 17.5114C6.16582 17.235 6.46873 16.9535 6.81951 16.7995C7.22802 16.6202 7.54804 16.4904 8.16052 16.4191ZM7.35413 18.0173C7.26755 18.0553 7.11853 18.1655 6.92058 18.3903C6.732 18.6045 6.53781 18.8776 6.35083 19.1757C6.23083 19.367 6.11737 19.5628 6.01381 19.7514C6.09578 19.7462 6.18052 19.7416 6.26811 19.7375C7.01545 19.7029 8.05819 19.7051 9.50667 19.7081C9.963 19.7091 10.4597 19.7101 11 19.7101C11.5405 19.7101 12.0371 19.7091 12.4934 19.7081C13.9418 19.7051 14.9839 19.7029 15.7308 19.7375C15.8187 19.7416 15.9037 19.7462 15.9859 19.7515C15.8824 19.5631 15.7691 19.3675 15.6491 19.1764C15.4622 18.8784 15.2679 18.6053 15.0793 18.391C14.8815 18.1663 14.7323 18.0556 14.6451 18.017C14.0358 17.7493 13.6721 17.665 11 17.665C9.53887 17.665 8.78953 17.6848 8.31433 17.7402C7.88601 17.79 7.70243 17.8645 7.35413 18.0173ZM16.6658 21.1741C16.4551 21.124 16.1454 21.088 15.674 21.0662C14.9593 21.0331 13.9602 21.0351 12.5248 21.0381C12.064 21.0391 11.5559 21.0401 11 21.0401C10.4439 21.0401 9.93717 21.0391 9.47609 21.0381C8.04054 21.0351 7.04001 21.0331 6.32493 21.0662C5.85317 21.088 5.54312 21.1241 5.33214 21.1741C5.20585 21.204 5.13356 21.2349 5.09217 21.2584C4.67108 21.6486 4.31417 21.9948 4.05272 22.3137C4.03298 22.3378 4.0142 22.3612 3.99631 22.384C4.71099 22.5404 5.47992 22.6329 6.5 22.71V24.0438C5.38125 23.9616 4.50487 23.8601 3.66496 23.6728V28.335H5.33496V27.3472L6.04831 27.3992C9.58282 27.6569 12.4171 27.6569 15.9516 27.3992L16.665 27.3472V28.335H18.335V23.673C17.4951 23.8602 16.6187 23.9618 15.5 24.0439V22.7102C16.5201 22.6331 17.289 22.5406 18.0037 22.3842C17.9858 22.3613 17.967 22.3378 17.9472 22.3137C17.6865 21.9957 17.3309 21.6505 16.9114 21.2618C16.8711 21.2378 16.7981 21.2055 16.6658 21.1741Z" fill="#000000" class="bmwfcol"/><title>fuel-car-petrol_lt_48</title></svg>