<svg width="48" height="48" viewBox="0 0 32 32" xmlns="http://www.w3.org/2000/svg"><path d="M22.335 20V15.9999C22.335 15.5169 22.1897 15.2001 21.9947 15.0052C21.7998 14.8102 21.483 14.6649 21 14.6649H19.665V20H18.335V6.99996C18.335 6.5169 18.1897 6.20012 17.9947 6.00519C17.9593 5.96973 17.9375 5.95068 17.8705 5.92415C17.7794 5.88811 17.6044 5.84066 17.2554 5.79823C16.5551 5.71311 15.313 5.66496 13 5.66496C10.6869 5.66496 9.44487 5.71311 8.74457 5.79823C8.3955 5.84066 8.22052 5.88811 8.12946 5.92415C8.06244 5.95068 8.04064 5.96973 8.00519 6.00519C7.81026 6.20012 7.66496 6.5169 7.66496 6.99996V20H6.33496V6.99996C6.33496 6.24302 6.56967 5.55981 7.06474 5.06473C7.20178 4.92769 7.37186 4.79362 7.63999 4.68749C7.88409 4.59088 8.18755 4.52614 8.5841 4.47794C9.37506 4.38181 10.693 4.33496 13 4.33496C15.3069 4.33496 16.6249 4.38181 17.4158 4.47794C17.8124 4.52614 18.1158 4.59088 18.3599 4.68749C18.6281 4.79362 18.7981 4.92769 18.9352 5.06473C19.4303 5.55981 19.665 6.24302 19.665 6.99996V13.3349H21C21.7569 13.3349 22.4401 13.5697 22.9352 14.0647C23.4303 14.5598 23.665 15.243 23.665 15.9999V20H22.335Z" fill="#000000" class="bmwfcol"/><path d="M27.665 20V11.9275C27.6652 11.2421 27.6653 10.658 27.5144 10.1298C27.3457 9.53952 27.0098 9.06934 26.4702 8.52972L23 5.0595V6.9404L25.5297 9.47017C25.9901 9.93055 26.1542 10.2104 26.2355 10.4951C26.3293 10.8233 26.335 11.2168 26.335 11.9999V20H27.665Z" fill="#000000" class="bmwfcol"/><path d="M16 13.335V14.665H9.99996V13.335H16Z" fill="#000000" class="bmwfcol"/><path d="M15.4033 26.6062L15.6456 26.6586C16.1983 26.7781 17.001 26.936 17.54 26.936C18.0058 26.936 18.2223 26.8781 18.401 26.7522C18.5585 26.6315 18.6385 26.4573 18.6385 26.2382C18.6385 26.0407 18.6062 25.9383 18.5245 25.851C18.4804 25.8076 18.4115 25.7646 18.2963 25.7154C18.1793 25.6655 18.0322 25.6163 17.8403 25.5524L16.7199 25.174C16.3208 25.041 16.027 24.9255 15.7831 24.6826C15.477 24.393 15.3588 23.9668 15.3588 23.5076C15.3588 23.0044 15.5075 22.5585 15.9081 22.2082C16.2936 21.8588 16.806 21.7791 17.4583 21.7791C18.1092 21.7791 18.8152 21.9489 19.3962 22.0887L19.5504 22.1257V23.2501L19.3032 23.19C18.7745 23.0616 17.9705 22.8692 17.4732 22.8692C17.0331 22.8692 16.828 22.916 16.6781 23.0331C16.5403 23.1461 16.486 23.3012 16.486 23.5076C16.486 23.7355 16.5215 23.8248 16.5972 23.8927C16.6402 23.9308 16.7079 23.9707 16.8154 24.0166C16.9221 24.0622 17.0538 24.108 17.218 24.164L18.3312 24.5351C18.8146 24.6987 19.1329 24.8375 19.3779 25.1C19.6373 25.3774 19.7656 25.7807 19.7656 26.2382C19.7656 26.7569 19.5822 27.1984 19.2177 27.529C18.801 27.8947 18.2654 28.0261 17.5103 28.0261C16.8609 28.0261 16.069 27.8606 15.576 27.7576L15.4033 27.7215V26.6062Z" fill="#000000" class="bmwfcol"/><path d="M6.70031 22.4993C6.24372 22.0343 5.68742 21.9053 4.86596 21.9053H2.72192V27.8999H4.8066C5.58529 27.8999 6.15224 27.7702 6.62193 27.3175C7.1779 26.7862 7.40326 25.9389 7.40326 24.8803C7.40326 23.8337 7.20197 23.0093 6.70031 22.4993ZM3.83424 26.8099V22.9953H4.86596C5.38608 22.9953 5.68273 23.0573 5.90241 23.3052C6.16955 23.6167 6.2761 24.1651 6.2761 24.8803C6.2761 25.6056 6.14895 26.1307 5.92094 26.408C5.8033 26.5511 5.67514 26.6475 5.50962 26.7109C5.33983 26.7758 5.12009 26.8099 4.81402 26.8099H3.83424Z" fill="#000000" class="bmwfcol"/><path d="M9.45431 27.8999H8.34199V21.9053H9.45431V27.8999Z" fill="#000000" class="bmwfcol"/><path d="M11.6905 24.3019V22.9953H14.7623V21.9053H10.5781V27.8999H14.8811V26.8099H11.6905V25.392H14.5991V24.3019H11.6905Z" fill="#000000" class="bmwfcol"/><path d="M21.7422 24.3019V22.9953H24.8141V21.9053H20.6299V27.8999H24.9328V26.8099H21.7422V25.392H24.6509V24.3019H21.7422Z" fill="#000000" class="bmwfcol"/><path d="M29.7358 27.8999H25.6703V21.9053H26.7826V26.8099H29.7358V27.8999Z" fill="#000000" class="bmwfcol"/><title>fuel-station-diesel_lt_48</title></svg>