<svg width="48" height="48" viewBox="0 0 32 32" xmlns="http://www.w3.org/2000/svg"><path d="M27.335 16C27.335 12.5511 26.1882 9.72869 24.2297 7.77019C22.2712 5.81169 19.4488 4.66496 16 4.66496C12.5511 4.66496 9.72869 5.81169 7.77019 7.77019C5.81169 9.72869 4.66496 12.5511 4.66496 16C4.66496 19.4488 5.81169 22.2712 7.77019 24.2297C9.72869 26.1882 12.5511 27.335 16 27.335C17.4499 27.335 18.7891 27.1323 20 26.7518V28.1388C18.7623 28.4848 17.4224 28.665 16 28.665C12.2488 28.665 9.07123 27.4117 6.82973 25.1702C4.58824 22.9287 3.33496 19.7511 3.33496 16C3.33496 12.2488 4.58824 9.07123 6.82973 6.82973C9.07123 4.58824 12.2488 3.33496 16 3.33496C19.7511 3.33496 22.9287 4.58824 25.1702 6.82973C27.4117 9.07123 28.665 12.2488 28.665 16H27.335Z" fill="#000000" class="bmwfcol"/><path d="M22.8254 28H27.0363V26.8856H24.4334C24.9985 26.3602 25.4522 25.9304 25.9298 25.4209C26.5109 24.8 26.8293 24.3304 26.8293 23.5185C26.8293 23.1046 26.6781 22.619 26.3438 22.3324C25.9696 22.0061 25.5398 21.8628 24.6881 21.8628C24.1548 21.8628 23.3826 21.9981 22.9369 22.0857V23.2001C23.3428 23.1205 24.0752 22.9772 24.5687 22.9772C24.9508 22.9772 25.2532 23.0011 25.4363 23.1603C25.5876 23.2876 25.6274 23.4468 25.6274 23.6299C25.6274 23.9165 25.4841 24.1234 25.2771 24.3782C24.7199 25.0627 23.4463 26.2965 22.8254 26.8856V28Z" fill="#000000" class="bmwfcol"/><path d="M13.448 16.3448V20.9999H12.1748V11H13.448V15.1114H18.5541V11H19.8273V20.9999H18.5541V16.3448H13.448Z" fill="#000000" class="bmwfcol"/><title>fuel-type-h2_lt_48</title></svg>