<svg width="48" height="48" viewBox="0 0 32 32" xmlns="http://www.w3.org/2000/svg"><path d="M5 11.335H11C11.1731 11.335 11.2398 11.2847 11.2623 11.2623C11.2847 11.2398 11.335 11.1731 11.335 11V5H12.665V11C12.665 11.4469 12.5253 11.8802 12.2027 12.2027C11.8802 12.5253 11.4469 12.665 11 12.665H5V11.335Z" fill="#000000" class="bmwfcol"/><path d="M5 20.665H11C11.1731 20.665 11.2398 20.7153 11.2623 20.7377C11.2847 20.7601 11.335 20.8269 11.335 21V27H12.665V21C12.665 20.553 12.5253 20.1198 12.2027 19.7973C11.8802 19.4747 11.4469 19.335 11 19.335H5V20.665Z" fill="#000000" class="bmwfcol"/><path d="M21 20.665H27V19.335H21C20.5531 19.335 20.1198 19.4747 19.7973 19.7973C19.4747 20.1198 19.335 20.553 19.335 21V27H20.665V21C20.665 20.8269 20.7153 20.7601 20.7377 20.7377C20.7602 20.7153 20.8269 20.665 21 20.665Z" fill="#000000" class="bmwfcol"/><path d="M27 11.335H21C20.8269 11.335 20.7602 11.2847 20.7377 11.2623C20.7153 11.2398 20.665 11.1731 20.665 11V5H19.335V11C19.335 11.4469 19.4747 11.8802 19.7973 12.2027C20.1198 12.5253 20.5531 12.665 21 12.665H27V11.335Z" fill="#000000" class="bmwfcol"/><title>fullscreen-exit_lt_48</title></svg>