<svg width="48" height="48" viewBox="0 0 32 32" xmlns="http://www.w3.org/2000/svg"><path d="M4.73671 6.73772C4.71428 6.76015 4.66398 6.82693 4.66398 6.99999V25C4.66398 25.1731 4.71428 25.2398 4.73671 25.2623C4.75914 25.2847 4.82592 25.335 4.99898 25.335H26.999C27.172 25.335 27.2388 25.2847 27.2612 25.2623C27.2837 25.2398 27.334 25.1731 27.334 25V6.99999C27.334 6.82693 27.2837 6.76015 27.2612 6.73772C27.2388 6.71529 27.172 6.66499 26.999 6.66499H4.99898C4.82592 6.66499 4.75914 6.71529 4.73671 6.73772ZM3.79625 5.79727C4.11883 5.4747 4.55204 5.33499 4.99898 5.33499H26.999C27.4459 5.33499 27.8791 5.4747 28.2017 5.79727C28.5243 6.11984 28.664 6.55305 28.664 6.99999V25C28.664 25.4469 28.5243 25.8801 28.2017 26.2027C27.8791 26.5253 27.4459 26.665 26.999 26.665H4.99898C4.55204 26.665 4.11883 26.5253 3.79625 26.2027C3.47368 25.8801 3.33398 25.4469 3.33398 25V6.99999C3.33398 6.55305 3.47368 6.11984 3.79625 5.79727Z" fill="#000000" class="bmwfcol"/><path d="M8.66398 21.335V18H7.33398V22.665H11.999V21.335H8.66398Z" fill="#000000" class="bmwfcol"/><path d="M19.999 9.33499H24.664V14H23.334V10.665H19.999V9.33499Z" fill="#000000" class="bmwfcol"/><title>fullscreen_lt_48</title></svg>