<svg width="48" height="48" viewBox="0 0 32 32" xmlns="http://www.w3.org/2000/svg"><path d="M22.0433 11.665H19.9999C17.969 11.665 16.8861 11.6725 15.7867 12.0639C14.683 12.4569 13.5144 13.2577 11.4275 15.0093L11.2667 15.1443L11.0576 15.1625C7.82772 15.4438 6.25307 15.583 5.16034 15.7658C4.22967 15.9215 3.66049 16.1064 2.66521 16.466V19.7235C3.04936 20.1027 3.1743 20.2035 3.30946 20.2575C3.4157 20.3 3.54381 20.3199 3.83952 20.3287C3.92847 18.6604 5.30943 17.335 6.99996 17.335C8.6926 17.335 10.0749 18.6637 10.1607 20.335H21.2754L22.7936 21.8532C22.8606 21.8412 22.9295 21.835 23 21.835C23.6434 21.835 24.165 22.3565 24.165 23C24.165 23.6434 23.6434 24.165 23 24.165C22.3565 24.165 21.835 23.6434 21.835 23C21.835 22.9296 21.8412 22.8606 21.8532 22.7936L20.7245 21.665H9.94366C9.47964 22.8364 8.33656 23.665 6.99996 23.665C5.66314 23.665 4.5199 22.8362 4.05603 21.6644C3.5726 21.6603 3.17222 21.6351 2.81547 21.4924C2.37315 21.3154 2.02994 20.9714 1.60772 20.5481L1.33521 20.2754V15.5343L1.81201 15.3608C3.06891 14.9033 3.76079 14.6515 4.94088 14.454C6.07387 14.2645 7.67022 14.1225 10.7336 13.8556C12.7248 12.1931 14.0221 11.2804 15.3406 10.811C16.6781 10.3348 17.9904 10.3349 19.9106 10.335L22.0433 10.335C22.2537 10.0327 22.6038 9.83496 23 9.83496C23.6434 9.83496 24.165 10.3565 24.165 11C24.165 11.6434 23.6434 12.165 23 12.165C22.6038 12.165 22.2538 11.9672 22.0433 11.665ZM6.99996 18.665C5.98652 18.665 5.16496 19.4865 5.16496 20.5C5.16496 21.5134 5.98652 22.335 6.99996 22.335C8.0134 22.335 8.83496 21.5134 8.83496 20.5C8.83496 19.4865 8.0134 18.665 6.99996 18.665Z" fill="#000000" class="bmwfcol"/><path d="M25.8532 11.2064C25.8412 11.1394 25.835 11.0704 25.835 11C25.835 10.3565 26.3565 9.83496 27 9.83496C27.6434 9.83496 28.165 10.3565 28.165 11C28.165 11.6434 27.6434 12.165 27 12.165C26.9296 12.165 26.8607 12.1587 26.7937 12.1468L23.2755 15.665H19.9566C19.7461 15.9672 19.3961 16.165 19 16.165C18.3565 16.165 17.835 15.6434 17.835 15C17.835 14.3565 18.3565 13.835 19 13.835C19.3962 13.835 19.7462 14.0328 19.9567 14.335H22.7245L25.8532 11.2064Z" fill="#000000" class="bmwfcol"/><path d="M28.0433 14.335C28.2537 14.0327 28.6038 13.835 29 13.835C29.6434 13.835 30.165 14.3565 30.165 15C30.165 15.6434 29.6434 16.165 29 16.165C28.6038 16.165 28.2537 15.9672 28.0433 15.665H25.035L26.365 14.335H28.0433Z" fill="#000000" class="bmwfcol"/><path d="M27 17.835C26.6038 17.835 26.2537 18.0327 26.0433 18.335H23V19.665L26.0433 19.665C26.2537 19.9672 26.6038 20.165 27 20.165C27.6434 20.165 28.165 19.6434 28.165 19C28.165 18.3565 27.6434 17.835 27 17.835Z" fill="#000000" class="bmwfcol"/><title>functions-on-demand_lt_48</title></svg>