<svg width="48" height="48" viewBox="0 0 32 32" xmlns="http://www.w3.org/2000/svg"><path d="M8 6.66496H27C27.1731 6.66496 27.2398 6.71526 27.2623 6.73769C27.2847 6.76012 27.335 6.8269 27.335 6.99996V22H28.665V6.99996C28.665 6.55302 28.5253 6.11981 28.2027 5.79724C27.8802 5.47466 27.4469 5.33496 27 5.33496H8V6.66496Z" fill="#000000" class="bmwfcol"/><path d="M12 12.835C11.3565 12.835 10.835 13.3565 10.835 14C10.835 14.6434 11.3565 15.165 12 15.165C12.6434 15.165 13.165 14.6434 13.165 14C13.165 13.3565 12.6434 12.835 12 12.835Z" fill="#000000" class="bmwfcol"/><path d="M3.79723 9.79724C4.11981 9.47466 4.55302 9.33496 4.99996 9.33496H23C23.4469 9.33496 23.8801 9.47466 24.2027 9.79724C24.5253 10.1198 24.665 10.553 24.665 11V25C24.665 25.4469 24.5253 25.8801 24.2027 26.2027C23.8801 26.5253 23.4469 26.665 23 26.665H4.99996C4.55302 26.665 4.11981 26.5253 3.79723 26.2027C3.47466 25.8801 3.33496 25.4469 3.33496 25V11C3.33496 10.553 3.47466 10.1198 3.79723 9.79724ZM4.73769 10.7377C4.71526 10.7601 4.66496 10.8269 4.66496 11V21.3941L8.99952 17.0596L12.9995 21.0596L18.9995 15.0596L23.335 19.395V11C23.335 10.8269 23.2847 10.7601 23.2622 10.7377C23.2398 10.7153 23.173 10.665 23 10.665H4.99996C4.8269 10.665 4.76012 10.7153 4.73769 10.7377ZM4.66496 25C4.66496 25.173 4.71526 25.2398 4.73769 25.2622C4.76012 25.2847 4.8269 25.335 4.99996 25.335H23C23.173 25.335 23.2398 25.2847 23.2622 25.2622C23.2847 25.2398 23.335 25.173 23.335 25V21.2759L18.9995 16.9405L12.9995 22.9405L8.99952 18.9405L4.66496 23.275V25Z" fill="#000000" class="bmwfcol"/><title>gallery_lt_48</title></svg>