<svg width="48" height="48" viewBox="0 0 32 32" xmlns="http://www.w3.org/2000/svg"><path d="M12.0788 3.07986C12.5703 2.58836 13.2479 2.33508 13.999 2.33508C14.7501 2.33508 15.4277 2.58836 15.9192 3.07986C16.4107 3.57136 16.664 4.24896 16.664 5.00008C16.664 6.45074 15.5871 7.66508 13.999 7.66508C13.4929 7.66508 13.0202 7.55011 12.6153 7.32477L11.4397 8.50038L12.164 9.22463V10.7755L9.39934 13.5403C8.96734 13.9733 8.61106 14.3304 8.08428 14.506C7.81373 14.5961 7.52616 14.6317 7.20581 14.6485C7.04097 14.6572 6.85547 14.6613 6.64651 14.6633C6.65814 14.7736 6.66398 14.886 6.66398 15.0001C6.66398 16.4507 5.58709 17.6651 3.99898 17.6651C3.24786 17.6651 2.57026 17.4118 2.07876 16.9203C1.58726 16.4288 1.33398 15.7512 1.33398 15.0001C1.33398 14.249 1.58726 13.5714 2.07876 13.0799C2.57026 12.5884 3.24786 12.3351 3.99898 12.3351C4.11307 12.3351 4.22546 12.3409 4.33576 12.3526C4.33773 12.1436 4.34185 11.9581 4.35053 11.7933C4.36739 11.4729 4.40293 11.1853 4.49311 10.9148C4.6687 10.388 5.0258 10.0317 5.45878 9.59973L8.22353 6.83508H9.77444L10.4993 7.55993L11.6747 6.38449C11.4491 5.97943 11.334 5.50646 11.334 5.00008C11.334 4.24896 11.5873 3.57136 12.0788 3.07986ZM13.0192 4.02031C12.8107 4.22881 12.664 4.5512 12.664 5.00008C12.664 5.44896 12.8107 5.77136 13.0192 5.97986C13.2277 6.18836 13.5501 6.33508 13.999 6.33508C14.8109 6.33508 15.334 5.75857 15.334 5.00008C15.334 4.5512 15.1873 4.22881 14.9788 4.02031C14.7703 3.81181 14.4479 3.66508 13.999 3.66508C13.5501 3.66508 13.2277 3.81181 13.0192 4.02031ZM3.01921 14.0203C2.81071 14.2288 2.66398 14.5512 2.66398 15.0001C2.66398 15.449 2.81071 15.7714 3.01921 15.9799C3.22771 16.1884 3.5501 16.3351 3.99898 16.3351C4.81088 16.3351 5.33398 15.7586 5.33398 15.0001C5.33398 14.5512 5.18726 14.2288 4.97876 14.0203C4.77026 13.8118 4.44786 13.6651 3.99898 13.6651C3.5501 13.6651 3.22771 13.8118 3.01921 14.0203ZM6.14089 13.3351C6.57345 13.3349 6.88703 13.3335 7.13591 13.3204C7.40931 13.306 7.55924 13.279 7.66369 13.2442C7.85879 13.1792 7.99308 13.0655 8.52876 12.5299L10.834 10.2246V9.77553L9.22353 8.16508H8.77444L6.46921 10.4703C5.93353 11.006 5.81989 11.1403 5.75486 11.3354C5.72004 11.4398 5.69308 11.5898 5.67869 11.8632C5.66559 12.112 5.66416 12.4256 5.664 12.8582C5.84342 12.9932 6.0059 13.1557 6.14089 13.3351Z" fill="#000000" class="bmwfcol"/><path d="M18.2516 12.3086L19.6664 13.7233C19.6664 15.1533 19.501 16.5506 18.8433 17.8412C18.7506 18.0231 18.6501 18.2021 18.5424 18.3799C20.3562 18.5352 22.5145 19.1103 27.1421 20.3502L30.164 20.8831C30.1638 21.2642 30.1516 21.6476 30.1703 22.0284C30.1872 22.3704 30.434 22.4956 30.663 22.7246C30.663 24.1783 30.4217 25.5655 29.8847 26.9151L27.4826 27.5587C27.047 28.786 25.8756 29.665 24.499 29.665C23.1626 29.665 22.0196 28.8367 21.5555 27.6654H10.4425C9.97837 28.8367 8.83541 29.665 7.49898 29.665C6.12257 29.665 4.95136 28.7863 4.51563 27.5594L1.33398 26.7068V23.0733C2.67532 22.4478 4.02252 21.8192 5.46419 21.4596C6.59764 21.1768 7.83765 21.0246 9.70204 20.8582L18.2516 12.3086ZM27.6436 26.1387L28.8867 25.8056C29.1506 25.0434 29.3044 24.1946 29.3294 23.2697C29.1691 23.0997 29.013 22.9005 28.9273 22.633C28.8618 22.4286 28.8448 22.2132 28.8382 21.9998C27.1536 21.7028 25.4553 21.4356 23.7861 22.0044C22.9006 22.3062 21.8006 22.8776 19.8332 24H17.168L18.1655 23.4241C20.7454 21.9346 22.2206 21.1329 23.3959 20.7324C20.4255 19.9619 19.0309 19.6834 17.6398 19.666C17.2986 20.1035 16.9201 20.5555 16.51 21.0443C15.4814 22.2701 15.0877 22.7564 14.886 23.4001C14.6986 23.9982 14.6709 24.7498 14.667 26.3354H21.3382C21.4238 24.6639 22.8062 23.335 24.499 23.335C26.1248 23.335 27.4643 24.5608 27.6436 26.1387ZM13.3366 26.3354C13.3388 24.7839 13.3631 23.8123 13.6169 23.0024C13.9582 21.913 14.7725 21.0456 15.4911 20.1894C16.5029 18.9836 17.199 18.1386 17.6583 17.2373C18.0733 16.4228 18.3048 15.5386 18.3334 14.2712L18.2516 14.1895L10.3004 22.1407C8.79137 22.2727 7.26033 22.3822 5.78612 22.75C4.81855 22.9914 3.94069 23.3364 2.66398 23.922V25.6863L4.35432 26.1392C4.53337 24.5611 5.87299 23.335 7.49898 23.335C9.19178 23.335 10.5742 24.6639 10.6598 26.3354H13.3366ZM5.66398 26.5C5.66398 27.5134 6.48554 28.335 7.49898 28.335C8.51243 28.335 9.33398 27.5134 9.33398 26.5C9.33398 25.4865 8.51243 24.665 7.49898 24.665C6.48554 24.665 5.66398 25.4865 5.66398 26.5ZM22.664 26.5C22.664 27.5134 23.4855 28.335 24.499 28.335C25.5124 28.335 26.334 27.5134 26.334 26.5C26.334 25.4865 25.5124 24.665 24.499 24.665C23.4855 24.665 22.664 25.4865 22.664 26.5Z" fill="#000000" class="bmwfcol"/><title>gas-pressure-spring-front-door_lt_48</title></svg>