<svg width="48" height="48" viewBox="0 0 32 32" xmlns="http://www.w3.org/2000/svg"><path d="M3.66496 16C3.66496 12.2511 4.91168 9.17869 7.04519 7.04519C9.17869 4.91168 12.2511 3.66496 16 3.66496C19.7488 3.66496 22.8212 4.91168 24.9547 7.04519C27.0882 9.17869 28.335 12.2511 28.335 16C28.335 19.4736 27.2646 22.3664 25.4102 24.4697L23.4702 22.5297L22.5297 23.4702L25.425 26.3654L25.8952 25.8952C28.3117 23.4787 29.665 20.0511 29.665 16C29.665 11.9488 28.3117 8.52123 25.8952 6.10473C23.4787 3.68824 20.0511 2.33496 16 2.33496C11.9488 2.33496 8.52123 3.68824 6.10473 6.10473C3.68824 8.52123 2.33496 11.9488 2.33496 16C2.33496 20.0511 3.68824 23.4787 6.10473 25.8952L6.57496 26.3654L9.47019 23.4702L8.52974 22.5297L6.58974 24.4697C4.73534 22.3664 3.66496 19.4736 3.66496 16Z" fill="#000000" class="bmwfcol"/><path d="M23.4703 9.47024L18.6973 14.2432C19.0056 14.7452 19.165 15.3467 19.165 16C19.165 17.7268 17.8881 19.165 16 19.165C15.0988 19.165 14.2962 18.8617 13.7172 18.2827C13.1382 17.7037 12.835 16.9011 12.835 16C12.835 15.0988 13.1382 14.2962 13.7172 13.7172C14.2962 13.1382 15.0988 12.835 16 12.835C16.6533 12.835 17.2548 12.9944 17.7569 13.3027L22.5298 8.52979L23.4703 9.47024ZM14.6577 14.6577C14.3617 14.9537 14.165 15.4011 14.165 16C14.165 16.5988 14.3617 17.0462 14.6577 17.3422C14.9537 17.6382 15.4011 17.835 16 17.835C17.1119 17.835 17.835 17.0346 17.835 16C17.835 15.4011 17.6382 14.9537 17.3422 14.6577C17.0462 14.3617 16.5988 14.165 16 14.165C15.4011 14.165 14.9537 14.3617 14.6577 14.6577Z" fill="#000000" class="bmwfcol"/><title>gauge_lt_48</title></svg>