<svg width="48" height="48" viewBox="0 0 32 32" xmlns="http://www.w3.org/2000/svg"><path d="M21.851 4.53624L23.0695 2.42578L24.2213 3.09077L22.373 6.29212L21.8076 5.99569C20.175 5.13984 18.2176 4.66518 16 4.66518C12.5511 4.66518 9.72868 5.81191 7.77018 7.77041C5.81167 9.72891 4.66495 12.5513 4.66495 16.0002H3.33495C3.33495 12.2491 4.58823 9.07146 6.82972 6.82996C9.07122 4.58846 12.2488 3.33518 16 3.33518C18.1627 3.33518 20.1359 3.75139 21.851 4.53624Z" fill="#000000" class="bmwfcol"/><path d="M14.0797 14.0799C14.5712 13.5884 15.2488 13.3352 16 13.3352C16.2504 13.3352 16.4926 13.3633 16.7225 13.4191L19.5017 8.60541L20.6535 9.27041L17.8925 14.0527C17.9018 14.0617 17.911 14.0708 17.9202 14.0799C18.4117 14.5714 18.665 15.249 18.665 16.0002C18.665 17.4508 17.5881 18.6652 16 18.6652C15.2488 18.6652 14.5712 18.4119 14.0797 17.9204C13.5882 17.4289 13.335 16.7513 13.335 16.0002C13.335 15.249 13.5882 14.5714 14.0797 14.0799ZM15.0202 15.0204C14.8117 15.2289 14.665 15.5513 14.665 16.0002C14.665 16.449 14.8117 16.7714 15.0202 16.9799C15.2287 17.1884 15.5511 17.3352 16 17.3352C16.8118 17.3352 17.335 16.7586 17.335 16.0002C17.335 15.5513 17.1882 15.2289 16.9797 15.0204C16.7712 14.8119 16.4488 14.6652 16 14.6652C15.5511 14.6652 15.2287 14.8119 15.0202 15.0204Z" fill="#000000" class="bmwfcol"/><path d="M7.55965 20.4999L6.50001 21.5596L3.97024 19.0298L3.02979 19.9703L5.55956 22.5L4.55944 23.5002L5.02966 23.9704C6.45496 25.3957 7.61997 26.2229 8.67984 26.4514C9.58692 26.647 10.3258 26.3918 10.9595 25.9172C11.4402 26.4402 11.7586 26.8794 11.9677 27.2976C12.2259 27.8141 12.335 28.3337 12.335 29.0002V30.0002H13.665V28.9919C13.664 28.1618 13.5228 27.4338 13.1572 26.7028C12.8693 26.1269 12.4539 25.5729 11.9029 24.9784C12.3865 24.3405 12.6487 23.5961 12.4512 22.6801C12.2227 21.6202 11.3954 20.4552 9.97011 19.0299L9.49989 18.5597L8.5001 19.5595L5.97042 17.0298L5.02997 17.9703L7.55965 20.4999ZM9.49265 20.4479C10.5629 21.5895 11.0263 22.3819 11.151 22.9604C11.2705 23.5143 11.0953 23.9643 10.5297 24.5299C9.96398 25.0956 9.51407 25.2707 8.96014 25.1513C8.38159 25.0266 7.58918 24.5632 6.44758 23.4929L9.49265 20.4479Z" fill="#000000" class="bmwfcol"/><path d="M24.7718 8.35888C26.2798 10.1374 27.1964 12.5098 27.3205 15.3351H25V16.6651H28.6649V16.0001C28.6649 12.6097 27.6414 9.68674 25.7862 7.49874L24.7718 8.35888Z" fill="#000000" class="bmwfcol"/><title>gauge_plug_limit_lt_48</title></svg>