<svg width="48" height="48" viewBox="0 0 32 32" xmlns="http://www.w3.org/2000/svg"><path d="M23.1644 17.514L22 17.412V18.7471L23.8789 18.9117L24.0939 18.5604C24.1609 18.4508 24.2259 18.3401 24.2889 18.2283L24.5307 18.4702C25.4543 19.3938 25.6795 19.6597 25.7268 20.1282C25.7539 20.3969 25.7199 20.7673 25.5902 21.3759C25.4615 21.9801 25.2533 22.7574 24.9664 23.8278L23.3359 29.9124V30H24.6894L26.2611 24.1346C26.5392 23.0969 26.7551 22.2914 26.8911 21.653C27.0277 21.0114 27.0986 20.4757 27.0501 19.9947C26.9503 19.0059 26.3495 18.4064 25.5714 17.6298L24.8975 16.956C25.0868 16.4815 25.2418 15.9933 25.3611 15.495L25.4567 15.0952L23.7162 13.634C23.7465 13.212 23.7465 12.7884 23.7161 12.3664L25.4571 10.904L25.3609 10.5039C25.1006 9.42239 24.6719 8.3886 24.0904 7.44033L23.8754 7.08968L21.6111 7.28747C21.3341 6.96726 21.0343 6.66748 20.7141 6.39047L20.9127 4.12414L20.5614 3.90917C19.6124 3.32855 18.578 2.90092 17.496 2.64198L17.0962 2.5463L15.6349 4.28689C15.213 4.25652 14.7894 4.25652 14.3674 4.2869L12.905 2.5459L12.5049 2.64217C11.4234 2.90241 10.3896 3.3311 9.44131 3.91256L9.09066 4.12757L9.28845 6.3919C8.96823 6.66892 8.66846 6.96872 8.39145 7.28892L6.12512 7.09027L5.91015 7.44163C5.32952 8.3906 4.90189 9.42509 4.64296 10.507L4.54728 10.9068L6.28787 12.3681C6.2575 12.7901 6.2575 13.2137 6.28787 13.6356L4.54688 15.098L4.64315 15.4981C4.90339 16.5796 5.33207 17.6134 5.91353 18.5617L6.12855 18.9124L8.39288 18.7146C8.6699 19.0348 8.96969 19.3346 9.2899 19.6116L9.09125 21.8779L9.44261 22.0929C10.3892 22.6721 11.421 23.099 12.5 23.3582V21.873L12.4242 21.9633C11.751 21.7706 11.1018 21.5023 10.489 21.1634L10.6764 19.0246L10.3968 18.8021C9.95472 18.4505 9.55402 18.0498 9.20241 17.6078L8.98001 17.3282L6.84228 17.515C6.50278 16.9025 6.23369 16.2536 6.04016 15.5806L7.68297 14.2007L7.64278 13.8462C7.57919 13.2851 7.57919 12.7186 7.64278 12.1575L7.68298 11.8028L6.03975 10.4232C6.23244 9.75002 6.50078 9.10079 6.83963 8.488L8.97843 8.67547L9.2009 8.39579C9.55254 7.95374 9.95321 7.55304 10.3952 7.20143L10.6748 6.97903L10.4881 4.8413C11.1005 4.5018 11.7494 4.23271 12.4224 4.03918L13.8023 5.68199L14.1569 5.64181C14.718 5.57822 15.2845 5.57822 15.8456 5.64181L16.2003 5.682L17.5798 4.03877C18.253 4.23146 18.9022 4.4998 19.515 4.83866L19.3276 6.97745L19.6072 7.19993C20.0493 7.55155 20.4499 7.95221 20.8016 8.39424L21.024 8.67382L23.1617 8.48709C23.5012 9.09952 23.7703 9.74842 23.9639 10.4214L22.3211 11.8013L22.3612 12.1559C22.4248 12.717 22.4248 13.2835 22.3612 13.8446L22.321 14.1993L23.9643 15.5788C23.7716 16.252 23.5032 16.9012 23.1644 17.514Z" fill="#000000" class="bmwfcol"/><path d="M15.0009 8.33545C16.6576 8.33545 18.1125 9.19899 18.9402 10.5005H17.2084C16.6203 9.98083 15.8474 9.66545 15.0009 9.66545C13.1591 9.66545 11.6659 11.1586 11.6659 13.0004C11.6659 14.3024 12.412 15.4302 13.5 15.9794V17.4187C11.6599 16.7938 10.3359 15.0518 10.3359 13.0004C10.3359 10.424 12.4245 8.33545 15.0009 8.33545Z" fill="#000000" class="bmwfcol"/><path d="M15.652 30H17.0289L15.6735 24.9411L16.5382 15.0579C16.5787 14.5949 16.7511 14.2539 16.9856 14.0312C17.2178 13.8105 17.5533 13.665 18.0005 13.665C18.4494 13.665 18.7718 13.8117 18.9803 14.0202C19.1888 14.2287 19.3355 14.5511 19.3355 15V23H20.6655V15C20.6655 14.2488 20.4122 13.5712 19.9207 13.0797C19.4292 12.5882 18.7516 12.335 18.0005 12.335C17.2477 12.335 16.5734 12.5882 16.0695 13.067C15.5679 13.5436 15.2779 14.2027 15.2132 14.942L14.3281 25.0588L15.652 30Z" fill="#000000" class="bmwfcol"/><title>gear_in_hand_lt_48</title></svg>