<svg width="48" height="48" viewBox="0 0 32 32" xmlns="http://www.w3.org/2000/svg"><path d="M17.2685 4.26849C18.5398 2.99716 20.348 2.33496 22.5 2.33496C24.6519 2.33496 26.4601 2.99716 27.7314 4.26849C29.0028 5.53981 29.665 7.34802 29.665 9.49996C29.665 11.9959 28.772 14.0235 27.0951 15.2838C26.6645 16.8906 26.3328 18.1234 26.0486 19.0617C25.7544 20.0332 25.4951 20.7461 25.2014 21.2505C24.8891 21.787 24.511 22.1332 23.9858 22.3028C23.5506 22.4434 23.0501 22.4431 22.5668 22.4428H22.4332C21.9498 22.4431 21.4493 22.4434 21.0141 22.3028C20.489 22.1332 20.1109 21.787 19.7985 21.2505C19.5049 20.7461 19.2455 20.0332 18.9513 19.0617C18.6672 18.1234 18.3354 16.8906 17.9048 15.2838C16.2279 14.0235 15.335 11.9959 15.335 9.49996C15.335 7.34802 15.9972 5.53981 17.2685 4.26849ZM18.2089 5.20894C17.2378 6.18012 16.665 7.6219 16.665 9.49996C16.665 11.7559 17.4892 13.3881 18.8633 14.3354L19.0648 14.4743L19.1282 14.7108C19.3361 15.4868 19.5199 16.1726 19.6855 16.7793H25.3144C25.48 16.1726 25.6638 15.4868 25.8717 14.7108L25.9351 14.4743L26.1366 14.3354C27.5107 13.3881 28.335 11.7559 28.335 9.49996C28.335 7.6219 27.7622 6.18012 26.791 5.20894C25.8198 4.23776 24.378 3.66496 22.5 3.66496C20.6219 3.66496 19.1801 4.23776 18.2089 5.20894ZM20.2242 18.6762C20.5173 19.644 20.7398 20.2239 20.9479 20.5813C21.1373 20.9067 21.2809 20.9913 21.4229 21.0372C21.6347 21.1056 21.9205 21.1127 22.5 21.1127C23.0795 21.1127 23.3652 21.1056 23.577 21.0372C23.719 20.9913 23.8626 20.9067 24.052 20.5813C24.2601 20.2239 24.4826 19.644 24.7757 18.6762C24.8295 18.4986 24.8851 18.3099 24.943 18.1093H20.057C20.1148 18.3099 20.1705 18.4986 20.2242 18.6762Z" fill="#000000" class="bmwfcol"/><path d="M13.5739 8.18207C13.5319 8.18471 13.4898 8.18763 13.4478 8.19083L11.8249 6.25879L11.4248 6.35506C10.2285 6.64293 9.0849 7.11713 8.03593 7.76033L7.68528 7.97534L7.90478 10.4882C7.53035 10.8095 7.18097 11.1589 6.85965 11.5334L4.34462 11.3129L4.12965 11.6643C3.48738 12.714 3.01435 13.8583 2.72792 15.0551L2.63224 15.4549L4.56387 17.0766C4.52654 17.5682 4.52654 18.0619 4.56387 18.5535L2.63184 20.1764L2.72811 20.5765C3.01598 21.7727 3.49018 22.9164 4.13338 23.9653L4.34839 24.316L6.86124 24.0965C7.18258 24.4709 7.53199 24.8203 7.90641 25.1416L7.68596 27.6566L8.03732 27.8716C9.08704 28.5139 10.2314 28.9869 11.4282 29.2733L11.828 29.369L13.4496 27.4374C13.9412 27.4747 14.4349 27.4747 14.9265 27.4374L16.5494 29.3694L16.9495 29.2732C18.1458 28.9853 19.2894 28.511 20.3384 27.8678L20.689 27.6528L20.4695 25.14C20.7956 24.8602 21.1026 24.5591 21.3887 24.2388C21.0869 24.2069 20.7631 24.15 20.45 24.0489C20.2653 23.9892 20.0914 23.9183 19.9276 23.8374C19.7469 24.0097 19.5584 24.1739 19.3627 24.3296L19.0831 24.552L19.2917 26.9401C18.5782 27.3401 17.8199 27.6546 17.0327 27.877L15.4911 26.0416L15.1365 26.0818C14.5062 26.1533 13.8698 26.1533 13.2395 26.0818L12.8849 26.0416L11.3437 27.8774C10.5562 27.656 9.79757 27.3424 9.08359 26.9432L9.29303 24.5538L9.01335 24.3313C8.51677 23.9363 8.06663 23.4862 7.67164 22.9896L7.44924 22.7101L5.06107 22.9187C4.66111 22.2051 4.34669 21.4469 4.12431 20.6597L5.95963 19.118L5.91945 18.7635C5.84801 18.1332 5.84801 17.4968 5.91945 16.8665L5.95964 16.5118L4.1239 14.9706C4.34529 14.1832 4.65886 13.4245 5.05807 12.7105L7.44749 12.92L7.66997 12.6403C8.06499 12.1437 8.51508 11.6936 9.01163 11.2986L9.29121 11.0762L9.0826 8.68802C9.79614 8.28806 10.5544 7.97363 11.3416 7.75126L12.8833 9.58658L13.2378 9.5464C13.3251 9.53651 13.4124 9.528 13.4998 9.52085L13.4998 9.49982C13.4998 9.05308 13.5243 8.61307 13.5739 8.18207Z" fill="#000000" class="bmwfcol"/><path d="M13.7859 12.0241C10.7678 12.2299 8.38349 14.7433 8.38349 17.8136C8.38349 21.0187 10.9817 23.6168 14.1867 23.6168C15.7172 23.6168 17.1093 23.0244 18.1461 22.0563C17.9305 21.665 17.7429 21.2207 17.5697 20.7403C16.7495 21.6876 15.5381 22.2868 14.1867 22.2868C11.7162 22.2868 9.71349 20.2841 9.71349 17.8136C9.71349 15.3432 11.7162 13.3404 14.1867 13.3404L14.2043 13.3405C14.0336 12.918 13.8942 12.4782 13.7859 12.0241Z" fill="#000000" class="bmwfcol"/><title>gear_and_bulb_lt_48</title></svg>