<svg width="48" height="48" viewBox="0 0 32 32" xmlns="http://www.w3.org/2000/svg"><path d="M8.99944 6.16802C7.43574 6.16802 6.16811 7.43565 6.16811 8.99935C6.16811 10.563 7.43574 11.8307 8.99944 11.8307C10.5631 11.8307 11.8308 10.563 11.8308 8.99935C11.8308 7.43565 10.5631 6.16802 8.99944 6.16802ZM7.41811 8.99935C7.41811 8.126 8.1261 7.41802 8.99944 7.41802C9.87279 7.41802 10.5808 8.126 10.5808 8.99935C10.5808 9.87269 9.87279 10.5807 8.99944 10.5807C8.1261 10.5807 7.41811 9.87269 7.41811 8.99935Z" fill="#000000" class="bmwfcol"/><path d="M7.78315 2.30188L7.40712 2.39236C6.71718 2.55839 6.05766 2.83187 5.45269 3.20282L5.12313 3.4049L5.24744 4.82802C5.10002 4.96068 4.95969 5.10101 4.82705 5.24843L3.40254 5.12357L3.2005 5.45379C2.83007 6.05922 2.55726 6.71919 2.39206 7.40944L2.30214 7.78518L3.39607 8.70357C3.38569 8.90142 3.3857 9.09968 3.39608 9.29753L2.30176 10.2167L2.39224 10.5928C2.55826 11.2827 2.83174 11.9423 3.2027 12.5472L3.40478 12.8768L4.8279 12.7525C4.96056 12.8999 5.10089 13.0402 5.24831 13.1729L5.12345 14.5974L5.45367 14.7994C6.05909 15.1698 6.71907 15.4427 7.40932 15.6079L7.78506 15.6978L8.70345 14.6038C8.9013 14.6142 9.09956 14.6142 9.29741 14.6038L10.2166 15.6982L10.5926 15.6077C11.2826 15.4416 11.9421 15.1681 12.5471 14.7972L12.8767 14.5951L12.7524 13.172C12.8998 13.0393 13.0401 12.899 13.1728 12.7516L14.5973 12.8764L14.7993 12.5462C15.1697 11.9408 15.4425 11.2809 15.6077 10.5906L15.6977 10.2149L14.6037 9.29647C14.6141 9.09861 14.6141 8.90035 14.6037 8.7025L15.698 7.78327L15.6076 7.40724C15.4415 6.71729 15.168 6.05776 14.7971 5.45281L14.595 5.12325L13.1719 5.24756C13.0392 5.10014 12.8989 4.95982 12.7515 4.82716L12.8763 3.40266L12.5461 3.20062C11.9407 2.8302 11.2807 2.55738 10.5905 2.39218L10.2147 2.30226L9.29635 3.39619C9.09849 3.38581 8.90023 3.38582 8.70238 3.3962L7.78315 2.30188ZM10.6659 3.70899C10.9749 3.80591 11.2749 3.92988 11.5622 4.07946L11.4487 5.37478L11.7116 5.58387C11.9719 5.791 12.208 6.02702 12.4151 6.28741L12.6241 6.55017L13.9189 6.43706C14.0689 6.72425 14.1932 7.02409 14.2905 7.33309L13.2956 8.1688L13.3334 8.50204C13.3709 8.83265 13.3709 9.16643 13.3334 9.49704L13.2956 9.83039L14.2909 10.666C14.194 10.9751 14.07 11.275 13.9205 11.5623L12.6251 11.4488L12.416 11.7117C12.2089 11.9721 11.9729 12.2081 11.7125 12.4152L11.4497 12.6242L11.5629 13.9191C11.2757 14.069 10.9758 14.1933 10.6668 14.2907L9.83112 13.2958L9.49788 13.3335C9.16727 13.371 8.83348 13.371 8.50288 13.3335L8.16953 13.2957L7.33394 14.291C7.02485 14.1941 6.72489 14.0702 6.43756 13.9206L6.5511 12.6253L6.28824 12.4162C6.02784 12.209 5.7918 11.973 5.58468 11.7126L5.37566 11.4499L4.08083 11.563C3.93091 11.2758 3.80657 10.9759 3.70926 10.6669L4.70416 9.83124L4.66639 9.498C4.62892 9.16739 4.62892 8.8336 4.66639 8.503L4.70417 8.16965L3.70887 7.33406C3.80579 7.02497 3.92976 6.72501 4.07934 6.43768L5.37465 6.55122L5.58375 6.28836C5.7909 6.02796 6.02692 5.79192 6.28729 5.5848L6.55005 5.37578L6.43694 4.08095C6.72413 3.93103 7.02396 3.80669 7.33296 3.70938L8.16868 4.70428L8.50192 4.66651C8.83253 4.62904 9.16631 4.62904 9.49692 4.66651L9.83027 4.70429L10.6659 3.70899Z" fill="#000000" class="bmwfcol"/><path d="M28.2502 15.7166C28.7919 15.9207 29.1821 16.2414 29.4704 16.5297L29.9408 16.9999L21.3805 25.5603C20.4671 26.4743 19.8611 27.0807 18.9604 27.3809C18.5023 27.5336 17.996 27.6003 17.3788 27.6328C16.7675 27.665 16.0031 27.665 15.0197 27.665H11.2755L9.27547 29.665H7.72457L2.05957 24L6.53908 19.5205C7.03122 19.0283 7.41277 18.6468 7.72213 18.3578C8.03096 18.0693 8.29789 17.8441 8.56144 17.6828C9.13111 17.3342 9.6195 17.3345 10.2055 17.335L10.3558 17.335L14.0878 18.335L19 18.335C19.4511 18.335 19.8787 18.4883 20.1953 18.8047C20.2275 18.8369 20.2579 18.8702 20.2868 18.9045C22.9341 16.7816 24.8326 15.8372 26.2581 15.5825C27.0498 15.441 27.7038 15.5108 28.2502 15.7166ZM19.3352 19.9998C19.3352 19.8512 19.2885 19.7788 19.255 19.7453C19.2214 19.7117 19.1489 19.665 19 19.665L13.9127 19.665L10.1811 18.6651C9.60188 18.6665 9.47236 18.6846 9.25566 18.8172C9.11069 18.9059 8.92335 19.0557 8.63005 19.3297C8.33922 19.6014 7.97361 19.9669 7.47025 20.4702L3.94047 24L8.27547 28.335H8.72457L10.7246 26.335H15C16.0071 26.335 16.7367 26.3348 17.3089 26.3047C17.8792 26.2747 18.2479 26.2164 18.5399 26.1191C19.11 25.9291 19.4944 25.5654 20.53 24.5298L27.9991 17.0607C27.9304 17.0235 27.858 16.9901 27.7813 16.9612C27.4838 16.8492 27.0753 16.7875 26.4921 16.8917C25.3248 17.1003 23.5039 17.9648 20.6652 20.3116L20.665 21.2755L20.4702 21.4702C19.4344 22.5061 18.5983 23.0849 17.7105 23.3809C16.8574 23.6652 16.0119 23.6651 15.0598 23.665L11 23.665V22.335H15.0003C16.0238 22.335 16.6607 22.3288 17.2898 22.1191C17.8598 21.9291 18.4746 21.5508 19.3351 20.7211L19.3352 19.9998Z" fill="#000000" class="bmwfcol"/><path d="M22.6648 13.7025L21.0496 16.5H19.5139L21.9625 12.2589L22.4178 12.3354C23.7953 12.5671 25.1197 11.956 25.9736 10.4769C26.4043 9.73099 26.5805 8.99616 26.5428 8.31845L24.8111 10.0502L24.8014 10.0592C24.3508 10.4751 23.8084 10.6826 23.2145 10.5862C22.6617 10.4966 22.1727 10.1597 21.7494 9.73634C21.3276 9.3145 20.9797 8.81542 20.8811 8.26103C20.7739 7.65787 20.9805 7.09544 21.4546 6.65567L23.1442 4.96603C22.597 4.88701 22.0745 4.94284 21.5967 5.11661C20.8613 5.38408 20.1824 5.94932 19.6697 6.8373C18.8157 8.31644 18.9487 9.76885 19.8381 10.846L20.132 11.202L17.0732 16.5H15.5375L18.5306 11.3157C17.5203 9.81521 17.5051 7.92644 18.5179 6.1723C19.1653 5.05088 20.0745 4.25499 21.1421 3.86671C22.2114 3.4778 23.39 3.51617 24.5377 3.97769L24.8711 4.11174L25.0394 4.95177L22.375 7.61614L22.3641 7.62611C22.1844 7.79048 22.1698 7.91137 22.1906 8.02827C22.2209 8.19893 22.3563 8.46232 22.6898 8.79593C23.0219 9.12799 23.2686 9.24763 23.4275 9.27342C23.5436 9.29226 23.6864 9.27505 23.8904 9.09L26.6022 6.37817L27.4464 6.54844L27.5782 6.88755C28.0976 8.22436 27.9394 9.73206 27.1255 11.1419C26.1127 12.896 24.4694 13.8273 22.6648 13.7025Z" fill="#000000" class="bmwfcol"/><title>gear_and_wrench_on_hand_lt_48</title></svg>