<svg width="48" height="48" viewBox="0 0 32 32" xmlns="http://www.w3.org/2000/svg"><path d="M15.6282 11.9998C15.6282 9.58539 17.5854 7.62814 19.9998 7.62814C22.4142 7.62814 24.3714 9.58539 24.3714 11.9998C24.3714 14.4142 22.4142 16.3714 19.9998 16.3714C17.5854 16.3714 15.6282 14.4142 15.6282 11.9998ZM19.9998 8.95814C18.32 8.95814 16.9582 10.3199 16.9582 11.9998C16.9582 13.6796 18.32 15.0414 19.9998 15.0414C21.6797 15.0414 23.0414 13.6796 23.0414 11.9998C23.0414 10.3199 21.6797 8.95814 19.9998 8.95814Z" fill="#000000" class="bmwfcol"/><path d="M18.0753 2.25732L19.4339 3.87472C19.8108 3.84874 20.1889 3.84874 20.5658 3.87471L21.9233 2.25773L22.3231 2.35341C23.3307 2.59454 24.294 2.99278 25.1777 3.53349L25.5291 3.74846L25.3446 5.85388C25.6297 6.10209 25.8973 6.36972 26.1455 6.65487L28.2491 6.47112L28.4641 6.82178C29.0056 7.70485 29.4048 8.66758 29.6472 9.67473L29.7435 10.0748L28.1261 11.4334C28.152 11.8103 28.152 12.1885 28.1261 12.5653L29.743 13.9228L29.6474 14.3226C29.4062 15.3302 29.008 16.2935 28.4673 17.1772L28.2523 17.5286L26.1469 17.3441C25.8987 17.6292 25.6311 17.8968 25.3459 18.145L25.5297 20.2486L25.179 20.4636C24.2959 21.0051 23.3331 21.4043 22.326 21.6467L21.9259 21.743L20.5673 20.1256C20.1905 20.1516 19.8123 20.1516 19.4355 20.1256L18.078 21.7426L17.6782 21.6469C16.6706 21.4057 15.7073 21.0075 14.8235 20.4668L14.4722 20.2518L14.6567 18.1464C14.3716 17.8982 14.1039 17.6306 13.8557 17.3454L11.7522 17.5292L11.5371 17.1785C10.9956 16.2954 10.5964 15.3326 10.3541 14.3255L10.2578 13.9254L11.8752 12.5668C11.8492 12.19 11.8492 11.8118 11.8752 11.435L10.2582 10.0775L10.3539 9.67771C10.595 8.67014 10.9933 7.70676 11.534 6.82302L11.749 6.47166L13.8544 6.65621C14.1026 6.37106 14.3702 6.10341 14.6554 5.8552L14.4716 3.75166L14.8223 3.53665C15.7054 2.99516 16.6681 2.59595 17.6752 2.3536L18.0753 2.25732ZM22.4063 3.75083L21.1315 5.26931L20.7769 5.22911C20.2606 5.1706 19.7393 5.1706 19.223 5.22911L18.8684 5.2693L17.5932 3.75124C16.9942 3.92593 16.416 4.16569 15.8691 4.46623L16.0417 6.44166L15.7621 6.66406C15.3554 6.98758 14.9867 7.35628 14.6632 7.76302L14.4407 8.0427L12.4643 7.86946C12.1643 8.41668 11.9253 8.99513 11.7513 9.59443L13.2698 10.8692L13.2296 11.2239C13.1711 11.7402 13.1711 12.2615 13.2296 12.7778L13.2698 13.1324L11.7517 14.4075C11.9264 15.0066 12.1662 15.5848 12.4667 16.1317L14.4422 15.9591L14.6645 16.2387C14.9881 16.6454 15.3568 17.0141 15.7635 17.3376L16.0432 17.5601L15.87 19.5365C16.4172 19.8364 16.9956 20.0755 17.5949 20.2495L18.8697 18.731L19.2244 18.7712C19.7407 18.8297 20.262 18.8297 20.7783 18.7712L21.1329 18.731L22.408 20.249C23.0071 20.0743 23.5853 19.8346 24.1322 19.534L23.9596 17.5586L24.2392 17.3362C24.6459 17.0126 25.0146 16.644 25.3381 16.2373L25.5606 15.9576L27.537 16.1308C27.8369 15.5836 28.076 15.0051 28.2499 14.4059L26.7315 13.131L26.7717 12.7764C26.8302 12.2601 26.8302 11.7388 26.7717 11.2225L26.7315 10.8679L28.2495 9.59276C28.0748 8.99368 27.8351 8.41551 27.5345 7.86861L25.5591 8.04116L25.3367 7.76158C25.0131 7.35486 24.6445 6.98621 24.2378 6.66267L23.9581 6.44019L24.1313 4.46381C23.5841 4.16386 23.0056 3.92477 22.4063 3.75083Z" fill="#000000" class="bmwfcol"/><path d="M4.06719 8.93573C4.56237 9.43019 5.24516 9.66516 6.00057 9.66516C6.75599 9.66516 7.43878 9.43019 7.93396 8.93573C8.42929 8.44111 8.66557 7.75806 8.66557 7.00016C8.66557 6.55001 8.52403 6.14044 8.34568 5.78128C8.16893 5.42532 7.93462 5.0781 7.71434 4.7581L7.65334 4.66956C7.21335 4.0312 6.82276 3.4645 6.65058 2.82682L6.51783 2.33516H5.48331L5.35056 2.82682C5.17839 3.4645 4.78779 4.0312 4.34781 4.66955L4.28681 4.7581C4.06652 5.0781 3.83221 5.42532 3.65546 5.78128C3.47712 6.14044 3.33557 6.55001 3.33557 7.00016C3.33557 7.75806 3.57185 8.44111 4.06719 8.93573ZM5.00696 7.99459C4.81129 7.79922 4.66557 7.48227 4.66557 7.00016C4.66557 6.83032 4.71903 6.62988 4.84668 6.37279C4.97593 6.1125 5.15862 5.83722 5.38234 5.51223L5.47375 5.3799C5.64086 5.13843 5.82504 4.87228 6.00057 4.58322C6.1761 4.87228 6.36029 5.13844 6.5274 5.37991L6.61881 5.51223C6.84252 5.83722 7.02521 6.1125 7.15446 6.37279C7.28212 6.62988 7.33557 6.83032 7.33557 7.00016C7.33557 7.48227 7.18985 7.79922 6.99419 7.99459C6.79837 8.19013 6.48116 8.33516 6.00057 8.33516C5.51999 8.33516 5.20278 8.19013 5.00696 7.99459Z" fill="#000000" class="bmwfcol"/><path d="M9.27924 17.3554L9.6182 16.9516C9.82368 17.3817 10.0551 17.797 10.3104 18.1956L9.84783 18.7466L9.49315 18.7064C9.16554 18.6693 8.83477 18.6693 8.50716 18.7064L8.1526 18.7466L7.32029 17.7557C7.03097 17.8484 6.74985 17.965 6.47986 18.1043L6.5925 19.3938L6.31292 19.6162C6.05492 19.8215 5.82105 20.0554 5.61579 20.3134L5.39331 20.5931L4.10328 20.48C3.96433 20.7501 3.8481 21.0313 3.75581 21.3207L4.74707 22.1529L4.70687 22.5076C4.66974 22.8352 4.66974 23.166 4.70687 23.4936L4.74705 23.8482L3.75622 24.6805C3.84889 24.9698 3.96547 25.2509 4.10475 25.5209L5.39432 25.4083L5.61672 25.6879C5.82195 25.9459 6.05584 26.1797 6.31388 26.385L6.59356 26.6075L6.48048 27.8975C6.75061 28.0364 7.03183 28.1527 7.32124 28.245L8.15344 27.2537L8.50812 27.2939C8.83573 27.331 9.16649 27.331 9.49411 27.2939L9.84868 27.2537L10.681 28.2446C10.9703 28.1519 11.2514 28.0353 11.5214 27.896L11.4088 26.6064L11.6883 26.384C11.9464 26.1788 12.1802 25.9449 12.3855 25.6869L12.608 25.4072L13.898 25.5203C14.0369 25.2502 14.1532 24.9689 14.2455 24.6795L13.2542 23.8473L13.2944 23.4927C13.3315 23.165 13.3315 22.8343 13.2944 22.5067L13.2542 22.1521L13.8045 21.6899C14.2029 21.9452 14.6182 22.1766 15.0482 22.3821L14.6454 22.7205C14.6545 22.9064 14.6545 23.0928 14.6454 23.2787L15.743 24.2002L15.6474 24.6C15.4812 25.2944 15.2068 25.9582 14.8342 26.5672L14.6192 26.9186L13.1898 26.7933C13.0647 26.9314 12.9328 27.0633 12.7947 27.1885L12.9194 28.6164L12.5687 28.8314C11.9602 29.2045 11.2968 29.4797 10.6027 29.6467L10.2026 29.743L9.28031 28.6449C9.09433 28.654 8.90801 28.654 8.72203 28.6449L7.80053 29.7426L7.40075 29.6469C6.70641 29.4807 6.04254 29.2063 5.43353 28.8337L5.08217 28.6187L5.20746 27.1893C5.06934 27.0642 4.93746 26.9323 4.81229 26.7942L3.38435 26.9189L3.16933 26.5683C2.79619 25.9597 2.52109 25.2963 2.35409 24.6022L2.25781 24.2022L3.35586 23.2798C3.34675 23.0938 3.34675 22.9075 3.35585 22.7215L2.25822 21.8L2.3539 21.4003C2.52007 20.7059 2.7945 20.042 3.16711 19.433L3.38209 19.0817L4.81144 19.207C4.9366 19.0688 5.06848 18.937 5.2066 18.8118L5.08186 17.3839L5.43252 17.1688C6.04106 16.7957 6.70448 16.5206 7.3985 16.3536L7.79859 16.2573L8.72095 17.3554C8.90694 17.3463 9.09326 17.3463 9.27924 17.3554Z" fill="#000000" class="bmwfcol"/><path d="M9.00018 20.1281C7.41439 20.1281 6.12885 21.4137 6.12885 22.9995C6.12885 24.5853 7.41439 25.8708 9.00018 25.8708C10.586 25.8708 11.8715 24.5853 11.8715 22.9995C11.8715 21.4137 10.586 20.1281 9.00018 20.1281ZM7.45885 22.9995C7.45885 22.1482 8.14892 21.4581 9.00018 21.4581C9.85143 21.4581 10.5415 22.1482 10.5415 22.9995C10.5415 23.8507 9.85143 24.5408 9.00018 24.5408C8.14892 24.5408 7.45885 23.8507 7.45885 22.9995Z" fill="#000000" class="bmwfcol"/><title>gear_oil_service_lt_48</title></svg>