<svg width="48" height="48" viewBox="0 0 32 32" xmlns="http://www.w3.org/2000/svg"><path d="M16.0011 8.33496C11.1941 8.33496 6.5099 9.44618 2.33594 11.8505V13.1782L8.67914 24.165H10.1918C11.9651 23.1353 13.9549 22.665 16.0011 22.665C18.0472 22.665 20.037 23.1353 21.8103 24.165H23.323L29.6662 13.1782V11.8505C25.4922 9.44619 20.8081 8.33496 16.0011 8.33496ZM3.66594 12.8218V12.6233C7.11923 10.7159 11.285 9.66496 16.0011 9.66496C17.1939 9.66496 18.3516 9.7322 19.4714 9.86353L20.2259 12.6793L17.1016 14.4832L18.3118 19H19.6888L18.6504 15.1247L21.7747 13.3208L20.9036 10.0697C23.6428 10.5391 26.1343 11.4071 28.3362 12.6233V12.8218L22.5551 22.835H22.1654C20.4149 21.8579 18.3261 21.335 16.0011 21.335C13.676 21.335 11.5872 21.8579 9.83674 22.835H9.44702L3.66594 12.8218Z" fill="#000000" class="bmwfcol"/><title>glas-repair_lt_48</title></svg>