<svg width="48" height="48" viewBox="0 0 32 32" xmlns="http://www.w3.org/2000/svg"><path d="M15.6659 4V12C15.6659 13.0531 15.6826 13.5002 15.8962 13.8904C16.101 14.2646 16.5404 14.6673 17.6761 15.335H18.3257C19.4615 14.6673 19.9008 14.2646 20.1057 13.8904C20.3192 13.5002 20.3359 13.0531 20.3359 12V4H21.6659L21.666 12.1069C21.6666 13.0097 21.6671 13.8077 21.2723 14.529C20.8622 15.2782 20.0836 15.8566 18.8378 16.5759L18.6835 16.665H18.6659V28H17.3359L17.3359 16.665H17.3184L17.1641 16.5759C15.9182 15.8566 15.1397 15.2782 14.7296 14.529C14.3348 13.8077 14.3353 13.0097 14.3359 12.1069L14.3359 4H15.6659Z" fill="#000000" class="bmwfcol"/><path d="M28.2255 4.335H29.6659V28H28.3359V19.665H24.3359L24.3359 11.9076C24.3357 10.4894 24.3355 9.47834 24.8358 8.40628C25.3311 7.34491 26.2955 6.26498 28.0307 4.52977L28.2255 4.335ZM28.3359 18.335V6.11252C27.0105 7.47059 26.3718 8.26004 26.0411 8.96872C25.6771 9.74854 25.6659 10.467 25.6659 12V18.3342L28.3359 18.335Z" fill="#000000" class="bmwfcol"/><path d="M18.6659 4V11H17.3359V4H18.6659Z" fill="#000000" class="bmwfcol"/><path d="M3.00094 27.665H11.0009V26.335H7.66594V18.634C9.27976 18.4815 10.6328 17.7693 11.5285 16.6021L11.6659 16.423V4.33496H2.33594V16.423L2.47336 16.6021C3.36903 17.7693 4.72212 18.4815 6.33594 18.634V26.335H3.00094V27.665ZM3.66594 15.9609V5.66496H10.3359V15.9609C9.59804 16.8133 8.45981 17.3349 7.00094 17.3349C5.54207 17.3349 4.40384 16.8133 3.66594 15.9609Z" fill="#000000" class="bmwfcol"/><title>glas-fork-knife_lt_48</title></svg>