<svg width="48" height="48" viewBox="0 0 32 32" xmlns="http://www.w3.org/2000/svg"><path d="M20.6919 20.6919C20.4027 20.9812 20.0949 21.2508 19.7697 21.5H17.3434C18.2869 21.074 19.1135 20.5026 19.8081 19.8081C20.5557 19.0605 21.1607 18.1598 21.5951 17.125H17.5726C17.3664 18.4145 17.0578 19.55 16.6565 20.4945C16.5047 20.8516 16.3359 21.1887 16.1502 21.5H14.6276C14.9406 21.1315 15.2371 20.6384 15.506 20.0055C15.8425 19.2139 16.1142 18.2456 16.3056 17.125H9.69429C9.8857 18.2458 10.1575 19.2142 10.494 20.0059C11.2052 21.6792 12.1088 22.375 13 22.375V23.625C9.85797 23.625 7.19105 22.5749 5.30806 20.6919C3.42507 18.809 2.375 16.142 2.375 13C2.375 9.85797 3.42507 7.19105 5.30806 5.30806C7.19105 3.42507 9.85797 2.375 13 2.375C16.142 2.375 18.809 3.42507 20.6919 5.30806C22.5749 7.19105 23.625 9.85797 23.625 13C23.625 16.142 22.5749 18.809 20.6919 20.6919ZM3.625 13C3.625 14.0294 3.74824 14.9907 3.9815 15.875H8.26464C8.17243 14.9738 8.125 14.0121 8.125 13C8.125 11.9879 8.17243 11.0262 8.26464 10.125H3.9815C3.74824 11.0093 3.625 11.9706 3.625 13ZM4.40488 17.125C4.83934 18.1598 5.44435 19.0605 6.19194 19.8081C7.24491 20.861 8.60152 21.6311 10.209 22.0403C9.87654 21.5932 9.58798 21.0699 9.34355 20.4948C8.94211 19.5503 8.63354 18.4147 8.42734 17.125H4.40488ZM22.0185 15.875C22.2518 14.9907 22.375 14.0294 22.375 13C22.375 11.9706 22.2518 11.0093 22.0185 10.125H17.7353C17.8276 11.0262 17.875 11.988 17.875 13C17.875 14.012 17.8276 14.9738 17.7353 15.875H22.0185ZM16.4784 15.875C16.5742 14.9887 16.625 14.0273 16.625 13C16.625 11.9727 16.5742 11.0113 16.4784 10.125H9.52153C9.42581 11.0113 9.375 11.9727 9.375 13C9.375 14.0273 9.42581 14.9887 9.52153 15.875H16.4784ZM8.42734 8.875C8.63354 7.58529 8.94211 6.44966 9.34355 5.50517C9.58798 4.93008 9.87653 4.40681 10.209 3.95974C8.60152 4.36887 7.24491 5.13897 6.19194 6.19194C5.44435 6.93953 4.83934 7.84018 4.40488 8.875H8.42734ZM9.69429 8.875H16.3056C16.1142 7.75441 15.8425 6.7861 15.506 5.99446C14.7948 4.32094 13.8911 3.625 13 3.625C12.1088 3.625 11.2052 4.32079 10.494 5.99412C10.1575 6.78579 9.8857 7.7542 9.69429 8.875ZM17.5726 8.875H21.5951C21.1607 7.84018 20.5557 6.93953 19.8081 6.19194C18.755 5.13893 17.3984 4.36881 15.7908 3.95969C16.1234 4.40687 16.412 4.9303 16.6565 5.50554C17.0578 6.44998 17.3664 7.58551 17.5726 8.875Z" fill="#000000" class="bmwfcol"/><path d="M16.2954 23.1478C16.6215 22.9717 17.0352 22.8789 17.5768 22.8789C17.9224 22.8789 18.2639 22.9338 18.5545 22.9859L18.5574 22.9865C18.865 23.0465 19.0931 23.0996 19.2854 23.1534L19.4314 23.1943V24.3178L19.1805 24.2518C18.9004 24.178 18.668 24.12 18.363 24.0619L18.3612 24.0615C18.1024 24.0098 17.867 23.969 17.6287 23.969C17.2989 23.969 17.067 24.0138 16.8958 24.0998C16.7302 24.1829 16.6046 24.313 16.5017 24.5188C16.3466 24.8289 16.2779 25.3946 16.2779 26.0469C16.2779 26.6661 16.3458 27.1771 16.4817 27.4685C16.5771 27.6718 16.7023 27.8067 16.8729 27.8949C17.0488 27.9859 17.2896 28.0358 17.6287 28.0358C18.1151 28.0358 18.6716 27.9154 19.189 27.8029L19.4314 27.7502V28.8649L19.2733 28.8988C18.7539 29.0101 18.1863 29.1259 17.5545 29.1259C16.9779 29.1259 16.5424 29.0195 16.2065 28.8194C15.869 28.6184 15.6514 28.3343 15.4913 28.0143C15.2545 27.5484 15.1508 26.8198 15.1508 26.0543C15.1508 25.2192 15.2456 24.4141 15.5723 23.8668C15.745 23.5776 15.9673 23.3251 16.2954 23.1478Z" fill="#000000" class="bmwfcol"/><path d="M21.0667 23.1602C21.4228 22.9754 21.8684 22.8789 22.4322 22.8789C22.9241 22.8789 23.3253 22.946 23.6606 23.0945C23.9991 23.2445 24.2577 23.4719 24.4721 23.7712C24.6765 24.0551 24.8066 24.4228 24.8865 24.8079C24.967 25.1955 24.9992 25.614 24.9992 26.0098C24.9992 26.3948 24.9669 26.8057 24.8885 27.1872C24.8105 27.5664 24.6838 27.9307 24.4875 28.2105C24.2615 28.5293 23.9912 28.7624 23.648 28.9133C23.3079 29.0627 22.9087 29.1259 22.4322 29.1259C21.8748 29.1259 21.4408 29.0518 21.0954 28.8946C20.7451 28.7351 20.4995 28.4964 20.3109 28.193C19.9833 27.6684 19.8578 26.8269 19.8578 26.0098C19.8578 25.6491 19.8825 25.2627 19.9442 24.9029C20.0055 24.5457 20.1056 24.2012 20.2644 23.9338C20.4545 23.6142 20.7084 23.3461 21.0667 23.1602ZM22.4322 23.969C21.8601 23.969 21.4481 24.0978 21.2278 24.5027L21.2258 24.5063C21.1398 24.6567 21.0778 24.8732 21.0385 25.1402C20.9996 25.4043 20.985 25.7036 20.985 26.0098C20.985 26.3152 21.0014 26.6256 21.0431 26.903C21.0851 27.1827 21.1506 27.4135 21.2399 27.5714C21.4623 27.9444 21.8537 28.0358 22.4322 28.0358C22.9266 28.0358 23.2614 27.9446 23.5171 27.641C23.6466 27.4807 23.7378 27.2433 23.7951 26.9508C23.852 26.6603 23.8721 26.3331 23.8721 26.0098C23.8721 25.7052 23.8539 25.4019 23.8072 25.13C23.7602 24.8561 23.686 24.6259 23.5828 24.4601C23.3618 24.1017 22.9969 23.969 22.4322 23.969Z" fill="#000000" class="bmwfcol"/><path d="M27.256 23.005H25.9315V28.9997H27.0364V25.1245L28.2569 27.8867H29.2075L30.428 25.1245V28.9997H31.5329V23.005H30.2159L28.7359 26.3469L27.256 23.005Z" fill="#000000" class="bmwfcol"/><path d="M13.3154 27.4719H14.5687V28.9997H13.3154V27.4719Z" fill="#000000" class="bmwfcol"/><title>globe_with_com_lt_48</title></svg>