<svg width="48" height="48" viewBox="0 0 32 32" xmlns="http://www.w3.org/2000/svg"><path d="M20.7192 5.27973C22.3028 6.86331 23.2988 8.99787 23.5812 11.5H22.2419C22.1835 11.0376 22.0979 10.5923 21.9866 10.165H17.7786C17.868 11.055 17.914 12.0033 17.914 13L17.914 13.0245C17.4005 13.5942 16.9366 14.1692 16.5312 14.7611C16.566 14.1988 16.584 13.6111 16.584 13C16.584 11.9876 16.5346 11.0397 16.4415 10.165H9.55646C9.4634 11.0396 9.41398 11.9876 9.41398 13C9.41398 14.0124 9.4634 14.9603 9.55646 15.835H15.8732C15.6407 16.2654 15.4394 16.7074 15.2723 17.165H9.74074C9.93124 18.2633 10.1993 19.2128 10.5297 19.9902C11.2389 21.6586 12.1324 22.335 12.999 22.335C13.0064 22.335 13.0138 22.3349 13.0212 22.3348C13.0268 22.3347 13.0324 22.3346 13.038 22.3345C13.5382 22.3296 14.5109 22.2008 14.5109 22.2008V23.5808C14.0206 23.6366 13.5162 23.665 12.999 23.665C9.84786 23.665 7.17026 22.6117 5.27876 20.7202C3.38726 18.8287 2.33398 16.1511 2.33398 13C2.33398 9.84884 3.38726 7.17123 5.27876 5.27973C7.17026 3.38824 9.84786 2.33496 12.999 2.33496C16.1501 2.33496 18.8277 3.38824 20.7192 5.27973ZM3.66398 13C3.66398 14.0146 3.78406 14.9624 4.01135 15.835H8.21936C8.12992 14.9449 8.08398 13.9966 8.08398 13C8.08398 12.0033 8.12992 11.055 8.21936 10.165H4.01135C3.78406 11.0375 3.66398 11.9854 3.66398 13ZM4.46426 17.165C4.89505 18.172 5.48893 19.0495 6.21921 19.7797C7.24298 20.8035 8.55595 21.5592 10.1098 21.9733C9.80262 21.5434 9.53458 21.0489 9.30572 20.5104C8.90634 19.5708 8.59885 18.4435 8.39224 17.165H4.46426ZM8.39224 8.83496C8.59885 7.55643 8.90634 6.42914 9.30572 5.48948C9.53458 4.95102 9.80262 4.45649 10.1098 4.0266C8.55595 4.44073 7.24298 5.19642 6.21921 6.22019C5.48893 6.95047 4.89505 7.82791 4.46426 8.83496H8.39224ZM9.74074 8.83496H16.2572C16.0667 7.73682 15.7986 6.78747 15.4682 6.01007C14.759 4.34144 13.8655 3.66496 12.999 3.66496C12.1324 3.66496 11.2389 4.34129 10.5297 6.00973C10.1993 6.78716 9.93124 7.73661 9.74074 8.83496ZM17.6057 8.83496H21.5337C21.1029 7.82791 20.509 6.95047 19.7788 6.22019C18.7549 5.19637 17.4419 4.44066 15.888 4.02655C16.1952 4.45655 16.4633 4.95124 16.6923 5.48985C17.0916 6.42947 17.3991 7.55664 17.6057 8.83496Z" fill="#000000" class="bmwfcol"/><path d="M25.5307 11.5298L22.5012 14.5593L21.0014 13.0596L20.5312 13.5298C18.5056 15.5553 17.4338 17.2278 17.1726 18.7108C16.9421 20.02 17.356 21.0812 18.0841 21.9768C17.1042 22.9595 16.4273 23.6628 16.0024 24.3305C15.4729 25.1625 15.3359 25.9274 15.3359 27V30H16.6659V27C16.6659 26.0726 16.7789 25.5875 17.1245 25.0445C17.4648 24.5097 18.0313 23.9148 19.0247 22.9174C19.9202 23.6454 20.9814 24.0594 22.2906 23.8288C23.7736 23.5676 25.4461 22.4958 27.4716 20.4702L27.9419 20L26.4416 18.4998L29.4712 15.4702L28.5307 14.5298L25.5012 17.5593L23.4416 15.4998L26.4712 12.4702L25.5307 11.5298ZM26.0549 19.994C24.3241 21.6359 23.0398 22.3464 22.0599 22.519C21.0673 22.6938 20.2742 22.3324 19.4716 21.5298C18.6691 20.7272 18.3077 19.9341 18.4825 18.9415C18.6551 17.9616 19.3655 16.6773 21.0074 14.9465L26.0549 19.994Z" fill="#000000" class="bmwfcol"/><title>globe_and_plug_lt_48</title></svg>