<svg width="48" height="48" viewBox="0 0 32 32" xmlns="http://www.w3.org/2000/svg"><path d="M16 28.625C15.0523 28.625 14.1415 28.5448 13.2733 28.3888L13.7052 27.1948C14.4348 27.3136 15.2007 27.375 16 27.375C17.1093 27.375 18.2026 26.4888 19.0481 24.4596C19.4823 23.4174 19.8248 22.1265 20.0529 20.625H16.0815L16.5337 19.375H20.2111C20.3183 18.3306 20.375 17.2021 20.375 16C20.375 14.7979 20.3183 13.6694 20.2111 12.625H11.7888C11.6868 13.6194 11.6305 14.6901 11.6254 15.828L10.376 16.2799C10.3753 16.187 10.375 16.0937 10.375 16C10.375 14.8121 10.4286 13.6833 10.5325 12.625H5.02928C4.76445 13.6674 4.625 14.7958 4.625 16C4.625 16.7993 4.68645 17.5653 4.80523 18.2949L3.61122 18.7267C3.45519 17.8586 3.375 16.9477 3.375 16C3.375 12.258 4.62507 9.09105 6.85806 6.85806C9.09105 4.62507 12.258 3.375 16 3.375C19.742 3.375 22.909 4.62507 25.1419 6.85806C27.3749 9.09105 28.625 12.258 28.625 16C28.625 19.742 27.3749 22.909 25.1419 25.1419C22.909 27.3749 19.742 28.625 16 28.625ZM5.42177 11.375H10.6834C10.9236 9.71052 11.3001 8.25436 11.7981 7.05917C12.1385 6.24224 12.55 5.5184 13.0317 4.9333C10.9026 5.39804 9.11213 6.37175 7.74194 7.74194C6.74354 8.74035 5.95564 9.96188 5.42177 11.375ZM18.9681 27.0668C21.0973 26.602 22.8878 25.6283 24.2581 24.2581C25.2565 23.2597 26.0444 22.0381 26.5782 20.625H21.3166C21.0763 22.2892 20.6999 23.7452 20.2019 24.9404C19.8615 25.7575 19.4498 26.4815 18.9681 27.0668ZM21.4674 19.375H26.9707C27.2356 18.3326 27.375 17.2042 27.375 16C27.375 14.7958 27.2356 13.6674 26.9707 12.625H21.4674C21.5714 13.6834 21.625 14.8122 21.625 16C21.625 17.1878 21.5714 18.3167 21.4674 19.375ZM21.3166 11.375H26.5782C26.0444 9.96188 25.2565 8.74035 24.2581 7.74194C22.8878 6.3717 21.0973 5.39797 18.9681 4.93325C19.4499 5.51849 19.8615 6.24251 20.2019 7.05962C20.6999 8.25476 21.0763 9.71079 21.3166 11.375ZM20.0529 11.375C19.8248 9.87354 19.4823 8.58256 19.0481 7.54038C18.2026 5.51121 17.1093 4.625 16 4.625C14.8907 4.625 13.7974 5.51101 12.9519 7.53997C12.5176 8.58217 12.1752 9.87328 11.947 11.375H20.0529Z" fill="#000000" class="bmwfcol"/><path d="M15.7691 17.0788L14.9213 16.231L2.83496 20.6026V22.008L8.45838 23.5417L9.99204 29.1651H11.3974L15.7691 17.0788ZM9.54154 22.4585L5.02196 21.2259L14.0337 17.9663L10.7742 26.9781L9.54154 22.4585Z" fill="#000000" class="bmwfcol"/><title>globe_and_navigation_arrow_lt_48</title></svg>