<svg width="48" height="48" viewBox="0 0 32 32" xmlns="http://www.w3.org/2000/svg"><path d="M29.665 5.33504L28.335 6.66504H26.2751L16.24 16.7001H15.2988V15.7604L25.3359 5.72327V3.66411L26.6659 2.33411V4.39327L28.0293 3.02991L28.9698 3.97036L27.6051 5.33504H29.665Z" fill="#000000" class="bmwfcol"/><path d="M23.5261 5.47388C21.4757 4.08918 18.9109 3.33496 16.0009 3.33496C12.2498 3.33496 9.07221 4.58824 6.83071 6.82973C4.58921 9.07123 3.33594 12.2488 3.33594 16C3.33594 19.7511 4.58921 22.9287 6.83071 25.1702C9.07221 27.4117 12.2498 28.665 16.0009 28.665C19.7521 28.665 22.9297 27.4117 25.1712 25.1702C27.4127 22.9287 28.6659 19.7511 28.6659 16C28.6659 13.0895 27.9115 10.5243 26.5263 8.47371L25.5658 9.4342C26.6998 11.2098 27.3359 13.4311 27.3359 16C27.3359 19.4488 26.1892 22.2712 24.2307 24.2297C22.2722 26.1882 19.4498 27.335 16.0009 27.335C12.5521 27.335 9.72967 26.1882 7.77116 24.2297C5.81266 22.2712 4.66594 19.4488 4.66594 16C4.66594 12.5511 5.81266 9.72869 7.77116 7.77019C9.72967 5.81169 12.5521 4.66496 16.0009 4.66496C18.5693 4.66496 20.7902 5.30088 22.5656 6.4344L23.5261 5.47388Z" fill="#000000" class="bmwfcol"/><path d="M19.0439 9.95607C18.1459 9.5492 17.1183 9.33496 16.0009 9.33496C14.0498 9.33496 12.3722 9.98824 11.1807 11.1797C9.98921 12.3712 9.33594 14.0488 9.33594 16C9.33594 17.9511 9.98921 19.6287 11.1807 20.8202C12.3722 22.0117 14.0498 22.665 16.0009 22.665C17.9521 22.665 19.6297 22.0117 20.8212 20.8202C22.0127 19.6287 22.6659 17.9511 22.6659 16C22.6659 14.8821 22.4515 13.854 22.0443 12.9557L21.0204 13.9796C21.2251 14.5816 21.3359 15.2577 21.3359 16C21.3359 17.6488 20.7892 18.9712 19.8807 19.8797C18.9722 20.7882 17.6498 21.335 16.0009 21.335C14.3521 21.335 13.0297 20.7882 12.1212 19.8797C11.2127 18.9712 10.6659 17.6488 10.6659 16C10.6659 14.3511 11.2127 13.0287 12.1212 12.1202C13.0297 11.2117 14.3521 10.665 16.0009 10.665C16.7427 10.665 17.4183 10.7756 18.02 10.98L19.0439 9.95607Z" fill="#000000" class="bmwfcol"/><title>goal_lt_48</title></svg>