<svg width="48" height="48" viewBox="0 0 32 32" xmlns="http://www.w3.org/2000/svg"><path d="M9.33594 17V11H10.6659V17H9.33594Z" fill="#000000" class="bmwfcol"/><path d="M13.3359 11V17H14.6659V11H13.3359Z" fill="#000000" class="bmwfcol"/><path d="M17.3359 17V11H18.6659V17H17.3359Z" fill="#000000" class="bmwfcol"/><path d="M21.3359 11V17H22.6659V11H21.3359Z" fill="#000000" class="bmwfcol"/><path d="M26.6659 8.33496H5.33594V18.335H3.66594V17H2.33594V21H3.66594V19.665H28.3359V21H29.6659V17H28.3359V18.335H26.6659V8.33496ZM6.66594 18.335V9.66496H25.3359V18.335H6.66594Z" fill="#000000" class="bmwfcol"/><path d="M9.56421 22.1251H8.43811C8.55891 22.392 8.62616 22.6883 8.62616 23.0004C8.62616 24.174 7.67476 25.1254 6.50116 25.1254C5.32755 25.1254 4.37616 24.174 4.37616 23.0004C4.37616 21.8268 5.32749 20.8754 6.50104 20.8754L11.501 20.8751C12.6746 20.8751 13.6262 21.8268 13.6262 23.0004C13.6262 24.174 12.6748 25.1254 11.5012 25.1254C10.3276 25.1254 9.37616 24.174 9.37616 23.0004C9.37616 22.6883 9.44341 22.392 9.56421 22.1251ZM6.50116 22.1254C6.01791 22.1254 5.62616 22.5171 5.62616 23.0004C5.62616 23.4836 6.01791 23.8754 6.50116 23.8754C6.98441 23.8754 7.37616 23.4836 7.37616 23.0004C7.37616 22.5171 6.98441 22.1254 6.50116 22.1254ZM11.5012 22.1254C11.0179 22.1254 10.6262 22.5171 10.6262 23.0004C10.6262 23.4836 11.0179 23.8754 11.5012 23.8754C11.9844 23.8754 12.3762 23.4836 12.3762 23.0004C12.3762 22.5171 11.9844 22.1254 11.5012 22.1254Z" fill="#000000" class="bmwfcol"/><path d="M23.3757 23.0004C23.3757 22.6883 23.4429 22.392 23.5637 22.1251H22.4376C22.5584 22.392 22.6257 22.6883 22.6257 23.0004C22.6257 24.174 21.6743 25.1254 20.5007 25.1254C19.3271 25.1254 18.3757 24.174 18.3757 23.0004C18.3757 21.8268 19.3271 20.8754 20.5007 20.8754L25.5008 20.8751C26.6743 20.8752 27.6257 21.8268 27.6257 23.0004C27.6257 24.174 26.6743 25.1254 25.5007 25.1254C24.3271 25.1254 23.3757 24.174 23.3757 23.0004ZM25.5007 22.1254C25.0174 22.1254 24.6257 22.5171 24.6257 23.0004C24.6257 23.4836 25.0174 23.8754 25.5007 23.8754C25.9839 23.8754 26.3757 23.4836 26.3757 23.0004C26.3757 22.5171 25.9839 22.1254 25.5007 22.1254ZM19.6257 23.0004C19.6257 23.4836 20.0174 23.8754 20.5007 23.8754C20.9839 23.8754 21.3757 23.4836 21.3757 23.0004C21.3757 22.5171 20.9839 22.1254 20.5007 22.1254C20.0174 22.1254 19.6257 22.5171 19.6257 23.0004Z" fill="#000000" class="bmwfcol"/><title>goods_wagon_lt_48</title></svg>