<svg width="48" height="48" viewBox="0 0 32 32" xmlns="http://www.w3.org/2000/svg"><path d="M23.664 6.40454L15.999 1.98242L8.33398 6.40454L8.33399 7.59577L10.334 8.74962V11.3182C10.334 12.5406 10.987 13.5306 12.017 14.1861C13.0299 14.8307 14.4155 15.165 15.999 15.165C17.5825 15.165 18.9681 14.8307 19.981 14.1861L19.999 14.1746V12.3868C19.8247 12.6366 19.5814 12.8639 19.267 13.064C18.5299 13.5331 17.4155 13.835 15.999 13.835C14.5825 13.835 13.4681 13.5331 12.731 13.064C12.011 12.6058 11.664 12.0049 11.664 11.3182L11.664 9.51693L15.999 12.0179L22.334 8.36308V14.0002H23.664V6.40454ZM15.999 10.4824L9.96306 7.00016L15.999 3.51789L22.0349 7.00016L15.999 10.4824Z" fill="#000000" class="bmwfcol"/><path d="M29.4695 16.53C29.1811 16.2416 28.7909 15.9209 28.2492 15.7168C27.7029 15.511 27.0488 15.4412 26.2571 15.5827C24.8316 15.8374 22.9331 16.7819 20.2858 18.9048C20.257 18.8704 20.2265 18.8371 20.1943 18.8049C19.8778 18.4885 19.4502 18.3352 18.999 18.3352L14.0869 18.3352L10.3548 17.3352L10.2045 17.3352C9.61853 17.3348 9.13013 17.3344 8.56046 17.683C8.29691 17.8443 8.02999 18.0695 7.72115 18.358C7.41179 18.647 7.03025 19.0286 6.5381 19.5207L2.05859 24.0002L7.72359 29.6652H9.2745L11.2745 27.6652H15.0186C16.002 27.6652 16.7665 27.6652 17.3778 27.6331C17.995 27.6006 18.5014 27.5338 18.9594 27.3811C19.8601 27.0809 20.4661 26.4745 21.3795 25.5606L29.9398 17.0002L29.4695 16.53ZM19.254 19.7455C19.2875 19.7791 19.3342 19.8514 19.3343 20.0001L19.3341 20.7213C18.4736 21.5511 17.8588 21.9294 17.2889 22.1194C16.6598 22.3291 16.0229 22.3352 14.9993 22.3352H10.999V23.6652L15.0589 23.6652C16.0109 23.6654 16.8565 23.6655 17.7095 23.3811C18.5973 23.0851 19.4334 22.5063 20.4693 21.4705L20.664 21.2758L20.6642 20.3119C23.5029 17.965 25.3238 17.1005 26.4911 16.892C27.0744 16.7877 27.4829 16.8494 27.7803 16.9615C27.857 16.9904 27.9294 17.0237 27.9981 17.0609L20.5291 24.53C19.4934 25.5657 19.109 25.9293 18.5389 26.1194C18.2469 26.2167 17.8782 26.2749 17.3079 26.3049C16.7357 26.335 16.0062 26.3352 14.999 26.3352H10.7236L8.72359 28.3352H8.2745L3.9395 24.0002L7.46927 20.4705C7.97264 19.9671 8.33824 19.6016 8.62907 19.3299C8.92237 19.0559 9.10971 18.9062 9.25469 18.8175C9.47138 18.6849 9.6009 18.6667 10.1801 18.6653L13.9118 19.6652L18.999 19.6652C19.1479 19.6652 19.2204 19.712 19.254 19.7455Z" fill="#000000" class="bmwfcol"/><title>graduation_cap_on_hand_lt_48</title></svg>