<svg width="48" height="48" viewBox="0 0 32 32" xmlns="http://www.w3.org/2000/svg"><path d="M3.33496 16C3.33496 9.00527 9.00527 3.33496 16 3.33496C22.9946 3.33496 28.665 9.00527 28.665 16C28.665 22.9946 22.9946 28.665 16 28.665C9.00527 28.665 3.33496 22.9946 3.33496 16ZM15.335 4.68414C9.38434 5.0284 4.66496 9.96305 4.66496 16C4.66496 17.8277 5.09756 19.5544 5.86594 21.0833L15.335 15.6163V4.68414ZM16.665 4.68414V14.8484L25.4682 9.7659C23.555 6.86611 20.3455 4.89707 16.665 4.68414ZM16 27.335C22.2601 27.335 27.335 22.2601 27.335 16C27.335 14.1724 26.9025 12.4459 26.1342 10.9171L6.53202 22.2344C8.55957 25.3074 12.043 27.335 16 27.335Z" fill="#000000" class="bmwfcol"/><title>graph-pie_lt_48</title></svg>