<svg width="48" height="48" viewBox="0 0 32 32" xmlns="http://www.w3.org/2000/svg"><path d="M5.66594 4V14.2873C7.58898 14.0024 8.68061 12.4727 9.95216 10.6231L10.013 10.5346C11.3383 8.60589 12.8987 6.33496 16 6.33496C19.1013 6.33496 20.6617 8.6059 21.987 10.5347L22.0478 10.6231C23.4592 12.6761 24.6489 14.335 27 14.335H28V15.665H27C23.8985 15.665 22.338 13.3939 21.0126 11.4651L20.9519 11.3766C19.5405 9.32374 18.3509 7.66496 16 7.66496C13.6491 7.66496 12.4595 9.32374 11.0481 11.3766L10.9874 11.4651C9.76045 13.2506 8.33197 15.3296 5.66594 15.6285V26C5.66594 26.1731 5.71623 26.2398 5.73866 26.2623C5.76109 26.2847 5.82788 26.335 6.00094 26.335H9.33594L9.33594 19H10.6659L10.6659 26.335H15.3359L15.3359 15H16.6659L16.6659 26.335H21.3359V19H22.6659V26.335H28.0009V27.665H6.00094C5.554 27.665 5.12078 27.5253 4.79821 27.2027C4.47564 26.8802 4.33594 26.4469 4.33594 26V4H5.66594Z" fill="#000000" class="bmwfcol"/><title>graph-normal-distribution_lt_48</title></svg>