<svg width="48" height="48" viewBox="0 0 32 32" xmlns="http://www.w3.org/2000/svg"><path d="M16.8359 22V27H18.1659V22H16.8359Z" fill="#000000" class="bmwfcol"/><path d="M18.001 10.7487V9.40268C18.3242 9.35773 18.658 9.33496 19.0009 9.33496C19.9079 9.33496 20.7507 9.4942 21.5025 9.8017L21.9157 9.97073V16.9124L22.6659 19.7123V20.665H21.1659V27H19.8359V19.335H21.1879L20.5857 17.0875V10.8866C20.1091 10.743 19.5791 10.665 19.0009 10.665C18.6494 10.665 18.3157 10.6938 18.001 10.7487Z" fill="#000000" class="bmwfcol"/><path d="M17.4432 4.44223C17.8472 4.03824 18.3998 3.83496 19.0009 3.83496C19.6021 3.83496 20.1547 4.03824 20.5587 4.44223C20.9627 4.84623 21.1659 5.39884 21.1659 5.99996C21.1659 6.60108 20.9627 7.15369 20.5587 7.55769C20.1547 7.96169 19.6021 8.16496 19.0009 8.16496C18.3998 8.16496 17.8472 7.96169 17.4432 7.55769C17.0392 7.15369 16.8359 6.60108 16.8359 5.99996C16.8359 5.39884 17.0392 4.84623 17.4432 4.44223ZM18.3837 5.38269C18.2627 5.50369 18.1659 5.70108 18.1659 5.99996C18.1659 6.29884 18.2627 6.49623 18.3837 6.61723C18.5047 6.73824 18.7021 6.83496 19.0009 6.83496C19.2998 6.83496 19.4972 6.73824 19.6182 6.61723C19.7392 6.49623 19.8359 6.29884 19.8359 5.99996C19.8359 5.70108 19.7392 5.50369 19.6182 5.38269C19.4972 5.26169 19.2998 5.16496 19.0009 5.16496C18.7021 5.16496 18.5047 5.26169 18.3837 5.38269Z" fill="#000000" class="bmwfcol"/><path d="M22.8359 22V27H24.1659V22H22.8359Z" fill="#000000" class="bmwfcol"/><path d="M23.501 11.8619V10.4917C23.976 10.388 24.4777 10.335 25.0009 10.335C26.2704 10.335 27.4136 10.6472 28.3547 11.2386L28.6659 11.4341V19.165H27.1659L27.1659 27H25.8359V17.835H27.3359V12.1876C26.6865 11.8543 25.9021 11.665 25.0009 11.665C24.4571 11.665 23.9558 11.7339 23.501 11.8619Z" fill="#000000" class="bmwfcol"/><path d="M23.4432 5.44223C23.8472 5.03824 24.3998 4.83496 25.0009 4.83496C25.6021 4.83496 26.1547 5.03824 26.5587 5.44223C26.9627 5.84623 27.1659 6.39884 27.1659 6.99996C27.1659 7.60108 26.9627 8.15369 26.5587 8.55769C26.1547 8.96169 25.6021 9.16496 25.0009 9.16496C24.3998 9.16496 23.8472 8.96169 23.4432 8.55769C23.0392 8.15369 22.8359 7.60108 22.8359 6.99996C22.8359 6.39884 23.0392 5.84623 23.4432 5.44223ZM24.3837 6.38269C24.2627 6.50369 24.1659 6.70108 24.1659 6.99996C24.1659 7.29884 24.2627 7.49623 24.3837 7.61723C24.5047 7.73824 24.7021 7.83496 25.0009 7.83496C25.2998 7.83496 25.4972 7.73824 25.6182 7.61723C25.7392 7.49623 25.8359 7.29884 25.8359 6.99996C25.8359 6.70108 25.7392 6.50369 25.6182 6.38269C25.4972 6.26169 25.2998 6.16496 25.0009 6.16496C24.7021 6.16496 24.5047 6.26169 24.3837 6.38269Z" fill="#000000" class="bmwfcol"/><path d="M10.8359 27V22H12.1659V27H10.8359Z" fill="#000000" class="bmwfcol"/><path d="M11.501 11.4917V12.8619C11.9558 12.7339 12.4571 12.665 13.0009 12.665C13.9021 12.665 14.6865 12.8543 15.3359 13.1876V17.835H13.8359L13.8359 27H15.1659L15.1659 19.165H16.6659V12.4341L16.3547 12.2386C15.4136 11.6472 14.2704 11.335 13.0009 11.335C12.4777 11.335 11.976 11.388 11.501 11.4917Z" fill="#000000" class="bmwfcol"/><path d="M13.0009 5.83496C12.3998 5.83496 11.8472 6.03824 11.4432 6.44223C11.0392 6.84623 10.8359 7.39884 10.8359 7.99996C10.8359 8.60108 11.0392 9.15369 11.4432 9.55769C11.8472 9.96169 12.3998 10.165 13.0009 10.165C13.6021 10.165 14.1547 9.96169 14.5587 9.55769C14.9627 9.15369 15.1659 8.60108 15.1659 7.99996C15.1659 7.39884 14.9627 6.84623 14.5587 6.44223C14.1547 6.03824 13.6021 5.83496 13.0009 5.83496ZM12.1659 7.99996C12.1659 7.70108 12.2627 7.50369 12.3837 7.38269C12.5047 7.26169 12.7021 7.16496 13.0009 7.16496C13.2998 7.16496 13.4972 7.26169 13.6182 7.38269C13.7392 7.50369 13.8359 7.70108 13.8359 7.99996C13.8359 8.29884 13.7392 8.49623 13.6182 8.61724C13.4972 8.73824 13.2998 8.83496 13.0009 8.83496C12.7021 8.83496 12.5047 8.73824 12.3837 8.61724C12.2627 8.49623 12.1659 8.29884 12.1659 7.99996Z" fill="#000000" class="bmwfcol"/><path d="M5.41616 11.8866V17.0875L4.81396 19.335H6.16594V27H4.83594V20.665H3.33594V19.7123L4.08616 16.9124V10.9707L4.4994 10.8017C5.25117 10.4942 6.09397 10.335 7.00094 10.335C7.90791 10.335 8.7507 10.4942 9.50248 10.8017L9.91572 10.9707V16.9124L10.6659 19.7123V20.665H9.16594V27H7.83594V19.335H9.18792L8.58572 17.0875V11.8866C8.1091 11.743 7.5791 11.665 7.00094 11.665C6.42278 11.665 5.89278 11.743 5.41616 11.8866Z" fill="#000000" class="bmwfcol"/><path d="M7.00094 4.83496C6.39982 4.83496 5.84721 5.03824 5.44321 5.44223C5.03921 5.84623 4.83594 6.39884 4.83594 6.99996C4.83594 7.60108 5.03921 8.15369 5.44321 8.55769C5.84721 8.96169 6.39982 9.16496 7.00094 9.16496C7.60206 9.16496 8.15466 8.96169 8.55866 8.55769C8.96266 8.15369 9.16594 7.60108 9.16594 6.99996C9.16594 6.39884 8.96266 5.84623 8.55866 5.44223C8.15466 5.03824 7.60206 4.83496 7.00094 4.83496ZM6.16594 6.99996C6.16594 6.70108 6.26266 6.50369 6.38366 6.38269C6.50467 6.26169 6.70206 6.16496 7.00094 6.16496C7.29982 6.16496 7.49721 6.26169 7.61821 6.38269C7.73921 6.50369 7.83594 6.70108 7.83594 6.99996C7.83594 7.29884 7.73921 7.49623 7.61821 7.61723C7.49721 7.73824 7.29982 7.83496 7.00094 7.83496C6.70206 7.83496 6.50467 7.73824 6.38366 7.61723C6.26266 7.49623 6.16594 7.29884 6.16594 6.99996Z" fill="#000000" class="bmwfcol"/><title>group_of_diverse_people_lt_48</title></svg>