<svg width="48" height="48" viewBox="0 0 32 32" xmlns="http://www.w3.org/2000/svg"><path d="M20.443 3.44272C20.847 3.03873 21.3996 2.83545 22.0007 2.83545C22.6018 2.83545 23.1544 3.03873 23.5584 3.44272C23.9624 3.84672 24.1657 4.39933 24.1657 5.00045C24.1657 5.60157 23.9624 6.15418 23.5584 6.55818C23.1544 6.96217 22.6018 7.16545 22.0007 7.16545C21.3996 7.16545 20.847 6.96217 20.443 6.55818C20.039 6.15418 19.8357 5.60157 19.8357 5.00045C19.8357 4.39933 20.039 3.84672 20.443 3.44272ZM21.3834 4.38318C21.2624 4.50418 21.1657 4.70157 21.1657 5.00045C21.1657 5.29933 21.2624 5.49672 21.3834 5.61772C21.5044 5.73872 21.7018 5.83545 22.0007 5.83545C22.2996 5.83545 22.497 5.73872 22.618 5.61772C22.739 5.49672 22.8357 5.29933 22.8357 5.00045C22.8357 4.70157 22.739 4.50418 22.618 4.38318C22.497 4.26217 22.2996 4.16545 22.0007 4.16545C21.7018 4.16545 21.5044 4.26217 21.3834 4.38318Z" fill="#000000" class="bmwfcol"/><path d="M7.08594 15.5005H8.41594V10.8871C8.89256 10.7435 9.42255 10.6654 10.0007 10.6654C10.5789 10.6654 11.1089 10.7435 11.5855 10.8871V15.5005H12.9155V9.97122L12.5023 9.80219C11.7505 9.49468 10.9077 9.33545 10.0007 9.33545C9.09374 9.33545 8.25095 9.49468 7.49917 9.80219L7.08594 9.97122V15.5005Z" fill="#000000" class="bmwfcol"/><path d="M18.3357 15.5005H19.6657V11.4346L19.3545 11.2391C18.4134 10.6476 17.2701 10.3354 16.0007 10.3354C15.4779 10.3354 14.9764 10.3884 14.5017 10.492V11.8621C14.9563 11.7343 15.4573 11.6654 16.0007 11.6654C16.9018 11.6654 17.6863 11.8548 18.3357 12.1881V15.5005Z" fill="#000000" class="bmwfcol"/><path d="M21.0017 8.40304V9.74901C21.3162 9.69423 21.6496 9.66545 22.0007 9.66545C22.5789 9.66545 23.1089 9.74347 23.5855 9.88707V14.5005H24.9155V8.97122L24.5023 8.80219C23.7505 8.49468 22.9077 8.33545 22.0007 8.33545C21.6581 8.33545 21.3246 8.35818 21.0017 8.40304Z" fill="#000000" class="bmwfcol"/><path d="M16.0007 4.83545C15.3996 4.83545 14.847 5.03872 14.443 5.44272C14.039 5.84672 13.8357 6.39933 13.8357 7.00045C13.8357 7.60157 14.039 8.15418 14.443 8.55818C14.847 8.96217 15.3996 9.16545 16.0007 9.16545C16.6018 9.16545 17.1544 8.96217 17.5584 8.55818C17.9624 8.15418 18.1657 7.60157 18.1657 7.00045C18.1657 6.39933 17.9624 5.84672 17.5584 5.44272C17.1544 5.03872 16.6018 4.83545 16.0007 4.83545ZM15.1657 7.00045C15.1657 6.70157 15.2624 6.50418 15.3834 6.38318C15.5044 6.26217 15.7018 6.16545 16.0007 6.16545C16.2996 6.16545 16.497 6.26217 16.618 6.38318C16.739 6.50418 16.8357 6.70157 16.8357 7.00045C16.8357 7.29933 16.739 7.49672 16.618 7.61772C16.497 7.73872 16.2996 7.83545 16.0007 7.83545C15.7018 7.83545 15.5044 7.73872 15.3834 7.61772C15.2624 7.49672 15.1657 7.29933 15.1657 7.00045Z" fill="#000000" class="bmwfcol"/><path d="M10.0007 3.83545C9.39959 3.83545 8.84699 4.03873 8.44299 4.44272C8.03899 4.84672 7.83571 5.39933 7.83571 6.00045C7.83571 6.60157 8.03899 7.15418 8.44299 7.55818C8.84699 7.96217 9.39959 8.16545 10.0007 8.16545C10.6018 8.16545 11.1544 7.96217 11.5584 7.55818C11.9624 7.15418 12.1657 6.60157 12.1657 6.00045C12.1657 5.39933 11.9624 4.84672 11.5584 4.44272C11.1544 4.03873 10.6018 3.83545 10.0007 3.83545ZM9.16571 6.00045C9.16571 5.70157 9.26244 5.50418 9.38344 5.38318C9.50444 5.26217 9.70183 5.16545 10.0007 5.16545C10.2996 5.16545 10.497 5.26217 10.618 5.38318C10.739 5.50418 10.8357 5.70157 10.8357 6.00045C10.8357 6.29933 10.739 6.49672 10.618 6.61772C10.497 6.73872 10.2996 6.83545 10.0007 6.83545C9.70183 6.83545 9.50444 6.73872 9.38344 6.61772C9.26244 6.49672 9.16571 6.29933 9.16571 6.00045Z" fill="#000000" class="bmwfcol"/><path d="M29.4714 16.5302C29.183 16.2419 28.7928 15.9211 28.2512 15.7171C27.7048 15.5113 27.0508 15.4415 26.2591 15.583C24.8336 15.8377 22.9351 16.7821 20.2877 18.905C20.2589 18.8707 20.2284 18.8373 20.1963 18.8052C19.8797 18.4887 19.4521 18.3355 19.001 18.3355L14.0888 18.3355L10.3568 17.3355L10.2064 17.3355C9.62048 17.335 9.13208 17.3347 8.56242 17.6833C8.29887 17.8445 8.03194 18.0698 7.7231 18.3583C7.41375 18.6473 7.0322 19.0288 6.54005 19.521L2.06055 24.0005L7.72555 29.6655H9.27645L11.2765 27.6655H15.0206C16.004 27.6655 16.7685 27.6655 17.3797 27.6333C17.997 27.6008 18.5033 27.534 18.9614 27.3814C19.8621 27.0812 20.4681 26.4748 21.3814 25.5608L29.9418 17.0004L29.4714 16.5302ZM19.256 19.7458C19.2895 19.7793 19.3362 19.8517 19.3362 20.0003L19.3361 20.7216C18.4756 21.5513 17.8608 21.9296 17.2908 22.1196C16.6617 22.3293 16.0248 22.3355 15.0013 22.3355H11.001V23.6655L15.0608 23.6655C16.0129 23.6656 16.8584 23.6657 17.7114 23.3814C18.5993 23.0854 19.4354 22.5066 20.4712 21.4707L20.6659 21.276L20.6662 20.3121C23.5049 17.9652 25.3258 17.1008 26.493 16.8922C27.0763 16.788 27.4848 16.8496 27.7823 16.9617C27.859 16.9906 27.9314 17.024 28.0001 17.0612L20.531 24.5303C19.4954 25.5659 19.111 25.9296 18.5408 26.1196C18.2489 26.2169 17.8801 26.2751 17.3098 26.3052C16.7376 26.3353 16.0081 26.3355 15.001 26.3355H10.7255L8.72555 28.3355H8.27645L3.94145 24.0005L7.47122 20.4707C7.97459 19.9673 8.34019 19.6019 8.63103 19.3302C8.92432 19.0562 9.11166 18.9064 9.25664 18.8177C9.47333 18.6851 9.60285 18.667 10.182 18.6656L13.9137 19.6655L19.001 19.6655C19.1499 19.6655 19.2224 19.7122 19.256 19.7458Z" fill="#000000" class="bmwfcol"/><title>group_on_hand_lt_48</title></svg>