<svg width="48" height="48" viewBox="0 0 32 32" xmlns="http://www.w3.org/2000/svg"><path d="M17.1717 18H15.7948L16.0862 16.9124V10.9707L16.4995 10.8017C17.2512 10.4942 18.094 10.335 19.001 10.335C19.908 10.335 20.7508 10.4942 21.5025 10.8017L21.9158 10.9707V16.9124L22.666 19.7123V20.665H21.166V27H19.836V19.335H21.188L20.5858 17.0875V11.8866C20.1092 11.743 19.5792 11.665 19.001 11.665C18.4228 11.665 17.8928 11.743 17.4162 11.8866V17.0875L17.1717 18Z" fill="#000000" class="bmwfcol"/><path d="M17.4433 5.44223C17.8473 5.03824 18.3999 4.83496 19.001 4.83496C19.6021 4.83496 20.1547 5.03824 20.5587 5.44223C20.9627 5.84623 21.166 6.39884 21.166 6.99996C21.166 7.60108 20.9627 8.15369 20.5587 8.55769C20.1547 8.96169 19.6021 9.16496 19.001 9.16496C18.3999 9.16496 17.8473 8.96169 17.4433 8.55769C17.0393 8.15369 16.836 7.60108 16.836 6.99996C16.836 6.39884 17.0393 5.84623 17.4433 5.44223ZM18.3837 6.38269C18.2627 6.50369 18.166 6.70108 18.166 6.99996C18.166 7.29884 18.2627 7.49623 18.3837 7.61723C18.5047 7.73824 18.7021 7.83496 19.001 7.83496C19.2999 7.83496 19.4973 7.73824 19.6183 7.61723C19.7393 7.49623 19.836 7.29884 19.836 6.99996C19.836 6.70108 19.7393 6.50369 19.6183 6.38269C19.4973 6.26169 19.2999 6.16496 19.001 6.16496C18.7021 6.16496 18.5047 6.26169 18.3837 6.38269Z" fill="#000000" class="bmwfcol"/><path d="M22.8359 22V27H24.1659V22H22.8359Z" fill="#000000" class="bmwfcol"/><path d="M23.501 11.8619V10.4917C23.976 10.388 24.4777 10.335 25.0009 10.335C26.2704 10.335 27.4136 10.6472 28.3547 11.2386L28.6659 11.4341V19.165H27.1659L27.1659 27H25.8359V17.835H27.3359V12.1876C26.6865 11.8543 25.9021 11.665 25.0009 11.665C24.4571 11.665 23.9558 11.7339 23.501 11.8619Z" fill="#000000" class="bmwfcol"/><path d="M23.4432 5.44223C23.8472 5.03824 24.3998 4.83496 25.0009 4.83496C25.6021 4.83496 26.1547 5.03824 26.5587 5.44223C26.9627 5.84623 27.1659 6.39884 27.1659 6.99996C27.1659 7.60108 26.9627 8.15369 26.5587 8.55769C26.1547 8.96169 25.6021 9.16496 25.0009 9.16496C24.3998 9.16496 23.8472 8.96169 23.4432 8.55769C23.0392 8.15369 22.8359 7.60108 22.8359 6.99996C22.8359 6.39884 23.0392 5.84623 23.4432 5.44223ZM24.3837 6.38269C24.2627 6.50369 24.1659 6.70108 24.1659 6.99996C24.1659 7.29884 24.2627 7.49623 24.3837 7.61723C24.5047 7.73824 24.7021 7.83496 25.0009 7.83496C25.2998 7.83496 25.4972 7.73824 25.6182 7.61723C25.7392 7.49623 25.8359 7.29884 25.8359 6.99996C25.8359 6.70108 25.7392 6.50369 25.6182 6.38269C25.4972 6.26169 25.2998 6.16496 25.0009 6.16496C24.7021 6.16496 24.5047 6.26169 24.3837 6.38269Z" fill="#000000" class="bmwfcol"/><path d="M11.0009 6.83496C10.3998 6.83496 9.84721 7.03824 9.44321 7.44223C9.03921 7.84623 8.83594 8.39884 8.83594 8.99996C8.83594 9.60108 9.03921 10.1537 9.44321 10.5577C9.84721 10.9617 10.3998 11.165 11.0009 11.165C11.6021 11.165 12.1547 10.9617 12.5587 10.5577C12.9627 10.1537 13.1659 9.60108 13.1659 8.99996C13.1659 8.39884 12.9627 7.84623 12.5587 7.44223C12.1547 7.03824 11.6021 6.83496 11.0009 6.83496ZM10.1659 8.99996C10.1659 8.70108 10.2627 8.50369 10.3837 8.38269C10.5047 8.26169 10.7021 8.16496 11.0009 8.16496C11.2998 8.16496 11.4972 8.26169 11.6182 8.38269C11.7392 8.50369 11.8359 8.70108 11.8359 8.99996C11.8359 9.29884 11.7392 9.49623 11.6182 9.61724C11.4972 9.73824 11.2998 9.83496 11.0009 9.83496C10.7021 9.83496 10.5047 9.73824 10.3837 9.61724C10.2627 9.49623 10.1659 9.29884 10.1659 8.99996Z" fill="#000000" class="bmwfcol"/><path d="M8.50094 27.0849C11.0331 27.0849 13.0859 25.0321 13.0859 22.4999H14.4159C14.4159 25.7667 11.7677 28.4149 8.50094 28.4149C5.23417 28.4149 2.58594 25.7666 2.58594 22.4999C2.58594 20.0297 4.10013 17.9132 6.25098 17.0278V18.504C4.85709 19.2905 3.91594 20.7853 3.91594 22.4999C3.91594 25.0321 5.96871 27.0849 8.50094 27.0849Z" fill="#000000" class="bmwfcol"/><path d="M18.2972 27H16.9203L15.4908 21.665L10.573 21.665L10.4187 21.5759C9.8549 21.2504 9.4092 20.9808 9.065 20.7361C8.72144 20.4918 8.44139 20.2467 8.23828 19.9577C7.83383 19.3824 7.83485 18.7565 7.83593 18.1015L7.83604 18V12.7208L8.24924 12.5518C9.00108 12.2442 9.84396 12.085 10.751 12.085C11.6581 12.085 12.501 12.2442 13.2528 12.5518L13.666 12.7208V20.335L16.5113 20.335L18.2972 27ZM9.16604 18C9.16604 18.8081 9.18909 18.9976 9.32633 19.1928C9.40449 19.304 9.54635 19.4464 9.83564 19.6521C10.0972 19.838 10.4487 20.0548 10.93 20.335L12.336 20.335V13.6366C11.8594 13.493 11.3293 13.415 10.751 13.415C10.1728 13.415 9.64271 13.493 9.16604 13.6366V18Z" fill="#000000" class="bmwfcol"/><title>group_of_people_and_wheelchair_lt_48</title></svg>