<svg width="48" height="48" viewBox="0 0 32 32" xmlns="http://www.w3.org/2000/svg"><path d="M11.7683 23.9194C11.9173 24.3578 12.0798 24.7673 12.2547 25.1463C13.2567 27.3172 14.5792 28.335 16.0009 28.335C17.4227 28.335 18.7452 27.3172 19.7471 25.1463C20.1172 24.3444 20.4317 23.4061 20.6808 22.3461C19.2472 22.5559 17.6781 22.665 16.0009 22.665C12.0449 22.665 8.68994 22.0581 6.29726 20.9538C3.91818 19.8557 2.33594 18.1782 2.33594 16C2.33594 13.8218 3.91818 12.1442 6.29726 11.0462C6.90448 10.7659 7.57367 10.5177 8.29893 10.3033C8.21464 10.7786 8.14178 11.2671 8.0804 11.7677C7.64241 11.9166 7.23329 12.079 6.85461 12.2538C4.68369 13.2557 3.66594 14.5782 3.66594 16C3.66594 17.4218 4.68369 18.7442 6.85461 19.7462C9.01193 20.7419 12.157 21.335 16.0009 21.335C17.8199 21.335 19.4823 21.2022 20.9577 20.9568C21.2031 19.4814 21.3359 17.8189 21.3359 16C21.3359 14.181 21.2031 12.5186 20.9577 11.0432C19.4823 10.7978 17.8199 10.665 16.0009 10.665C14.797 10.665 13.6616 10.7232 12.6037 10.8337C12.6948 10.3508 12.7986 9.89503 12.9136 9.46748C13.8934 9.37989 14.9249 9.33499 16.0009 9.33499C17.6781 9.33499 19.2472 9.44407 20.6808 9.65389C20.4317 8.5939 20.1172 7.65555 19.7471 6.85367C18.7452 4.68275 17.4227 3.66499 16.0009 3.66499C14.5792 3.66499 13.2567 4.68275 12.2547 6.85367C11.259 9.01099 10.6659 12.1561 10.6659 16C10.6659 17.2035 10.7241 18.3385 10.8345 19.3961C10.3516 19.305 9.89586 19.2011 9.46831 19.0861C9.3808 18.1067 9.33594 17.0755 9.33594 16C9.33594 12.0439 9.94283 8.68899 11.0471 6.29632C12.1452 3.91724 13.8227 2.33499 16.0009 2.33499C18.1792 2.33499 19.8567 3.91724 20.9547 6.29632C21.4314 7.32901 21.8153 8.54095 22.0978 9.9031C23.46 10.1856 24.6719 10.5696 25.7046 11.0462C28.0837 12.1442 29.6659 13.8218 29.6659 16C29.6659 18.1782 28.0837 19.8557 25.7046 20.9538C24.6719 21.4304 23.46 21.8144 22.0978 22.0969C21.8153 23.459 21.4314 24.671 20.9547 25.7037C19.8567 28.0827 18.1792 29.665 16.0009 29.665C13.8227 29.665 12.1452 28.0827 11.0471 25.7037C10.7667 25.0961 10.5184 24.4265 10.3039 23.7008C10.7792 23.7851 11.2676 23.858 11.7683 23.9194ZM22.347 20.6798C23.407 20.4308 24.3454 20.1163 25.1473 19.7462C27.3182 18.7442 28.3359 17.4218 28.3359 16C28.3359 14.5782 27.3182 13.2557 25.1473 12.2538C24.3454 11.8837 23.407 11.5692 22.347 11.3201C22.5569 12.7537 22.6659 14.3228 22.6659 16C22.6659 17.6772 22.5569 19.2463 22.347 20.6798Z" fill="#000000" class="bmwfcol"/><path d="M16.0009 14.835C15.3575 14.835 14.8359 15.3566 14.8359 16C14.8359 16.6434 15.3575 17.165 16.0009 17.165C16.6443 17.165 17.1659 16.6434 17.1659 16C17.1659 15.3566 16.6443 14.835 16.0009 14.835Z" fill="#000000" class="bmwfcol"/><title>gyro_lt_48</title></svg>