<svg width="48" height="48" viewBox="0 0 32 32" xmlns="http://www.w3.org/2000/svg"><path d="M23.4524 6.66496L20.1174 10H21.8851L25.885 6.00009L21.885 2H20.1172L23.4521 5.33496L18.001 5.33496V6.66496L23.4524 6.66496Z" fill="#000000" class="bmwfcol"/><path d="M12.0805 6.07974C12.572 5.58824 13.2496 5.33496 14.0007 5.33496C14.7519 5.33496 15.4295 5.58824 15.921 6.07974C16.4125 6.57123 16.6657 7.24884 16.6657 7.99996V11.6489C17.0597 11.441 17.5148 11.335 18.0008 11.335C18.7519 11.335 19.4295 11.5882 19.921 12.0797C20.2316 12.3903 20.447 12.7752 20.5636 13.206C20.9801 12.9604 21.4722 12.835 22.0008 12.835C22.7519 12.835 23.4295 13.0882 23.921 13.5797C24.4125 14.0712 24.6658 14.7488 24.6658 15.5V18.9999C24.6658 21.551 23.8125 23.7286 22.271 25.2701C20.7295 26.8116 18.5519 27.6649 16.0008 27.6649C12.9069 27.6649 10.3653 26.185 9.02789 23.8668L4.69238 16.3566L5.26817 16.0241C6.30715 15.4241 7.49767 15.4174 8.66144 15.8663C9.57265 16.2177 10.4793 16.8501 11.3357 17.7153V7.99996C11.3357 7.24884 11.589 6.57124 12.0805 6.07974ZM20.6658 15.5V15.7999H19.3358V14C19.3358 13.5511 19.1891 13.2287 18.9806 13.0202C18.7721 12.8117 18.4497 12.665 18.0008 12.665C17.5519 12.665 17.2295 12.8117 17.021 13.0202C16.8129 13.2283 16.6664 13.5497 16.6657 13.9972V14.9999H15.3357V7.99996C15.3357 7.55108 15.189 7.22869 14.9805 7.02019C14.772 6.81169 14.4496 6.66496 14.0007 6.66496C13.5519 6.66496 13.2295 6.81169 13.021 7.02019C12.8125 7.22869 12.6657 7.55108 12.6657 7.99996V19.6681H11.292C10.4177 18.6333 9.47799 17.6067 8.18282 17.1072C7.58777 16.8777 7.04422 16.8259 6.56033 16.9321L10.1797 23.2019C11.2623 25.0785 13.3465 26.3349 16.0008 26.3349C18.2497 26.3349 20.0721 25.5882 21.3306 24.3297C22.5891 23.0712 23.3358 21.2488 23.3358 18.9999V15.5C23.3358 15.0511 23.1891 14.7287 22.9806 14.5202C22.7721 14.3117 22.4497 14.165 22.0008 14.165C21.5519 14.165 21.2295 14.3117 21.021 14.5202C20.8125 14.7287 20.6658 15.0511 20.6658 15.5Z" fill="#000000" class="bmwfcol"/><path d="M7.88486 10L4.5499 6.66504H10.001V5.33504H4.55001L7.88505 2H6.11728L2.11719 6.00009L6.11709 10H7.88486Z" fill="#000000" class="bmwfcol"/><title>hand-swipe_lt_48</title></svg>