<svg width="48" height="48" viewBox="0 0 32 32" xmlns="http://www.w3.org/2000/svg"><path d="M11.2174 3.21724C11.7964 2.63824 12.599 2.33496 13.5001 2.33496C14.4012 2.33496 15.2038 2.63824 15.7828 3.21723C16.3618 3.79623 16.6651 4.59884 16.6651 5.49996V9.85238C17.1824 9.51151 17.8126 9.33496 18.5001 9.33496C19.4013 9.33496 20.2039 9.63824 20.7829 10.2172C21.2265 10.6608 21.5082 11.2357 21.6157 11.8856C22.1421 11.523 22.7906 11.3349 23.5001 11.3349C24.4013 11.3349 25.2039 11.6382 25.7829 12.2172C26.3619 12.7962 26.6651 13.5988 26.6651 14.4999V18.9999C26.6651 22.151 25.6119 24.8286 23.7204 26.7201C21.8289 28.6116 19.1513 29.6649 16.0001 29.6649C12.1877 29.6649 9.06795 27.843 7.42806 25.0004L2.0918 15.7566L2.66759 15.4241C3.91437 14.7041 5.34848 14.6912 6.7662 15.238C7.97873 15.7057 9.19358 16.5848 10.3351 17.807V5.49996C10.3351 4.59884 10.6384 3.79623 11.2174 3.21724ZM20.3351 15V12.5C20.3351 11.9011 20.1384 11.4537 19.8424 11.1577C19.5464 10.8617 19.099 10.665 18.5001 10.665C17.9013 10.665 17.4539 10.8617 17.1578 11.1577C16.8625 11.453 16.666 11.8991 16.6651 12.496V14H15.3351V5.49996C15.3351 4.90108 15.1384 4.45369 14.8424 4.15769C14.5464 3.86169 14.099 3.66496 13.5001 3.66496C12.9012 3.66496 12.4538 3.86169 12.1578 4.15769C11.8618 4.45369 11.6651 4.90108 11.6651 5.49996V19.6689H10.1914C8.99318 18.2417 7.4219 16.9164 6.28758 16.4789C5.42953 16.148 4.64163 16.0992 3.94659 16.3093L8.58001 24.3356C9.96509 26.7366 12.6274 28.3349 16.0001 28.3349C18.849 28.3349 21.1714 27.3882 22.7799 25.7797C24.3884 24.1712 25.3351 21.8488 25.3351 18.9999V14.4999C25.3351 13.901 25.1384 13.4536 24.8424 13.1576C24.5464 12.8616 24.099 12.6649 23.5001 12.6649C22.9013 12.6649 22.4539 12.8616 22.1579 13.1576C21.8619 13.4536 21.6651 13.901 21.6651 14.4999V15H20.3351Z" fill="#000000" class="bmwfcol"/><title>hand-pointing-up_lt_48</title></svg>