<svg width="48" height="48" viewBox="0 0 32 32" xmlns="http://www.w3.org/2000/svg"><path d="M17.397 5.29832L22.5505 14.2245C22.928 12.5952 23.5406 11.2265 24.3568 10.2152C25.3112 9.03278 26.5596 8.3269 27.9993 8.32704L28.6642 8.3271L28.6648 19.0006C28.6659 22.2823 26.8751 25.42 23.5734 27.3262C20.8445 28.9018 17.9989 29.3284 15.4151 28.6361C12.8313 27.9438 10.5803 26.1515 9.00474 23.4226L4.25474 15.1953C3.80418 14.415 3.66552 13.5682 3.87745 12.7773C4.08938 11.9864 4.63282 11.3224 5.41321 10.8719C6.00864 10.5281 6.64267 10.3659 7.26107 10.4025L6.58489 9.23129C6.13433 8.45089 5.99567 7.60418 6.2076 6.81325C6.41953 6.02232 6.96297 5.35838 7.74336 4.90782C8.52375 4.45726 9.37047 4.3186 10.1614 4.53053C10.7674 4.6929 11.2989 5.0499 11.7169 5.55898C11.9914 4.98175 12.459 4.49464 13.0735 4.13985C13.8539 3.68929 14.7006 3.55063 15.4916 3.76256C16.2825 3.97449 16.9464 4.51793 17.397 5.29832ZM21.2674 22.0005H19.7881C19.2762 20.8005 19.1695 19.5685 19.4769 18.4213C19.798 17.2228 20.5569 16.1701 21.6781 15.3735L16.2452 5.96332C15.9457 5.44468 15.5517 5.15559 15.1473 5.04724C14.743 4.9389 14.2572 4.99222 13.7385 5.29167C13.2199 5.5911 12.9308 5.98517 12.8224 6.38952C12.7141 6.79386 12.7674 7.27968 13.0669 7.79832L17.225 15.0005H15.6892L10.915 6.73129C10.6156 6.21264 10.2215 5.92355 9.81717 5.81521C9.41282 5.70686 8.92701 5.76019 8.40836 6.05963C7.88972 6.35907 7.60063 6.75313 7.49228 7.15748C7.38394 7.56182 7.43727 8.04764 7.73671 8.56629L13.1835 18.0003H11.6477L8.58487 12.6953C8.28543 12.1767 7.89137 11.8876 7.48702 11.7793C7.08267 11.6709 6.59686 11.7242 6.07821 12.0237C5.55957 12.3231 5.27048 12.7172 5.16213 13.1215C5.05379 13.5259 5.10712 14.0117 5.40656 14.5303L10.1566 22.7576C11.581 25.2248 13.5621 26.7627 15.7593 27.3514C17.9566 27.9402 20.4412 27.5989 22.9084 26.1744C25.8293 24.4881 27.3358 21.7727 27.3348 19.0009L27.3343 9.73318C26.6273 9.89869 25.9694 10.3349 25.3918 11.0505C24.6282 11.9966 24.0224 13.4168 23.6982 15.2518C23.6462 15.5462 23.4871 15.7499 23.3242 15.8896C23.2023 15.9941 23.0516 16.0831 22.9466 16.1452L22.6412 16.3267C21.6291 16.9836 21.0093 17.841 20.7616 18.7656C20.4998 19.7426 20.6352 20.8623 21.2674 22.0005Z" fill="#000000" class="bmwfcol"/><path d="M25.9998 5.34329C24.7932 4.5392 23.4931 3.94841 22.1271 3.58239C21.4311 3.39589 20.7207 3.26849 19.9998 3.20068V4.53741C20.6058 4.60091 21.2011 4.71119 21.7829 4.86707C23.2789 5.26792 24.7015 5.97458 25.9998 6.98102V5.34329Z" fill="#000000" class="bmwfcol"/><path d="M6.27692 24.0004C6.40692 24.2532 6.54477 24.506 6.69056 24.7585C8.03339 27.0843 9.72954 28.8371 11.6398 30.0004H9.35013C7.8955 28.8058 6.60617 27.2723 5.53875 25.4235C5.26599 24.951 5.0183 24.4763 4.79556 24.0004H6.27692Z" fill="#000000" class="bmwfcol"/><title>hand-waving_lt_48</title></svg>