<svg width="48" height="48" viewBox="0 0 32 32" xmlns="http://www.w3.org/2000/svg"><path d="M9.99995 16.335H12V17.665H9.99995C9.39883 17.665 8.84623 17.4617 8.44223 17.0577C8.03824 16.6538 7.83496 16.1011 7.83496 15.5C7.83496 15.2062 7.88352 14.924 7.98036 14.665H7.49995C6.89883 14.665 6.34623 14.4618 5.94223 14.0578C5.53824 13.6538 5.33496 13.1012 5.33496 12.5001C5.33496 11.8989 5.53824 11.3463 5.94223 10.9423C6.23096 10.6536 6.5956 10.4674 6.9996 10.3846C6.88995 10.1123 6.83495 9.81274 6.83495 9.50005C6.83495 8.89894 7.03822 8.34633 7.44222 7.94233C7.84622 7.53834 8.39882 7.33506 8.99994 7.33506L15.6452 7.33506C15.1215 6.7638 14.7288 6.16366 14.4942 5.55544C14.1433 4.64562 14.1437 3.69871 14.6237 2.86754L14.9562 2.29175L20.7326 5.62635C21.4659 6.04937 22.0933 6.63045 22.5772 7.33506H27V8.66506H21.8349L21.6416 8.33958C21.2506 7.68109 20.7114 7.14953 20.068 6.7784L15.5787 4.18682C15.5614 4.45581 15.61 4.75247 15.7351 5.07682C15.9768 5.70323 16.4995 6.40932 17.333 7.10918C17.5297 7.27437 17.6108 7.48041 17.6426 7.64956C17.6651 7.76948 17.6661 7.89998 17.6667 7.96993L17.6668 7.98776C17.7298 8.62387 17.9867 9.11421 18.3607 9.4487C18.7445 9.79199 19.2956 10.0102 19.9994 10.0102V11.3402C19.0138 11.3402 18.1334 11.0298 17.474 10.44C16.9574 9.97795 16.6034 9.36826 16.4348 8.66506L8.99994 8.66506C8.70106 8.66506 8.50367 8.76179 8.38267 8.88279C8.26167 9.00379 8.16495 9.20118 8.16495 9.50005C8.16495 9.79893 8.26167 9.99632 8.38267 10.1173C8.50367 10.2383 8.70106 10.335 8.99994 10.335L15 10.3351V11.6651H7.49995C7.20107 11.6651 7.00368 11.7618 6.88268 11.8828C6.76168 12.0038 6.66496 12.2012 6.66496 12.5001C6.66496 12.7989 6.76168 12.9963 6.88268 13.1173C7.00368 13.2383 7.20107 13.335 7.49995 13.335H15V14.665H9.99995C9.70107 14.665 9.50368 14.7618 9.38268 14.8828C9.26168 15.0038 9.16496 15.2012 9.16496 15.5C9.16496 15.7989 9.26168 15.9963 9.38268 16.1173C9.50368 16.2383 9.70107 16.335 9.99995 16.335Z" fill="#000000" class="bmwfcol"/><path d="M19 16.199V17.5422C20.3991 17.355 21.3364 16.9815 22.2467 16.6174L22.2579 16.6129C23.4677 16.129 24.6277 15.665 26.9995 15.665V14.335C24.379 14.335 23.0388 14.8681 21.7527 15.3826L21.7415 15.387C20.9316 15.711 20.1439 16.0261 19 16.199Z" fill="#000000" class="bmwfcol"/><path d="M13.835 17C13.835 16.3565 14.3565 15.835 15 15.835C15.6434 15.835 16.165 16.3565 16.165 17C16.165 17.6434 15.6434 18.165 15 18.165C14.3565 18.165 13.835 17.6434 13.835 17Z" fill="#000000" class="bmwfcol"/><path d="M16.835 20C16.835 19.3565 17.3565 18.835 18 18.835C18.6434 18.835 19.165 19.3565 19.165 20C19.165 20.6434 18.6434 21.165 18 21.165C17.3565 21.165 16.835 20.6434 16.835 20Z" fill="#000000" class="bmwfcol"/><path d="M2 21.665H8.48135C8.79316 23.3746 9.59481 24.8196 10.7992 25.8664C12.1388 27.0305 13.9335 27.665 16 27.665C18.0665 27.665 19.8612 27.0305 21.2008 25.8664C22.4052 24.8196 23.2068 23.3746 23.5187 21.665H30V20.335H22.3507L22.284 20.9253C22.0951 22.596 21.3929 23.9373 20.3283 24.8625C19.2626 25.7887 17.7906 26.335 16 26.335C14.2094 26.335 12.7374 25.7887 11.6717 24.8625C10.6071 23.9373 9.9049 22.596 9.71603 20.9253L9.6493 20.335H2V21.665Z" fill="#000000" class="bmwfcol"/><path d="M13.835 23C13.835 22.3565 14.3565 21.835 15 21.835C15.6434 21.835 16.165 22.3565 16.165 23C16.165 23.6434 15.6434 24.165 15 24.165C14.3565 24.165 13.835 23.6434 13.835 23Z" fill="#000000" class="bmwfcol"/><title>hand_and_seeds_lt_48</title></svg>