<svg width="48" height="48" viewBox="0 0 32 32" xmlns="http://www.w3.org/2000/svg"><path d="M11.2155 5.21675C10.7789 5.6533 10.4991 6.21698 10.3878 6.85416L11.6632 8.1295V7.49947C11.6632 6.90059 11.8599 6.4532 12.1559 6.1572C12.4519 5.8612 12.8993 5.66447 13.4982 5.66447C14.0971 5.66447 14.5445 5.8612 14.8405 6.1572C15.1365 6.4532 15.3332 6.90059 15.3332 7.49947L15.3332 11.7995L16.6632 13.1295V5.49947C16.6632 4.90059 16.8599 4.4532 17.1559 4.1572C17.452 3.8612 17.8993 3.66447 18.4982 3.66447C19.0971 3.66447 19.5445 3.8612 19.8405 4.1572C20.1365 4.4532 20.3332 4.90059 20.3332 5.49947V15.9995H21.6632V9.49942C21.6632 8.90054 21.8599 8.45315 22.1559 8.15715C22.4519 7.86115 22.8993 7.66442 23.4982 7.66442C24.0971 7.66442 24.5445 7.86115 24.8405 8.15715C25.1365 8.45315 25.3332 8.90054 25.3332 9.49942V18.9994C25.3332 19.8961 25.2394 20.7406 25.0608 21.5271L26.1473 22.6136C26.4863 21.5028 26.6632 20.2909 26.6632 18.9994V9.49942C26.6632 8.5983 26.3599 7.7957 25.7809 7.2167C25.2019 6.6377 24.3993 6.33442 23.4982 6.33442C22.8107 6.33442 22.1805 6.51097 21.6632 6.85183V5.49947C21.6632 4.59835 21.3599 3.79575 20.7809 3.21675C20.202 2.63775 19.3993 2.33447 18.4982 2.33447C17.5971 2.33447 16.7945 2.63775 16.2155 3.21675C15.7719 3.66037 15.4901 4.23528 15.3826 4.88518C14.8563 4.52253 14.2078 4.33447 13.4982 4.33447C12.5971 4.33447 11.7945 4.63775 11.2155 5.21675Z" fill="#000000" class="bmwfcol"/><path d="M15.9982 28.3344C18.6889 28.3344 20.91 27.4899 22.5035 26.0409L23.4449 26.9823C21.5727 28.7084 19.0004 29.6644 15.9982 29.6644C12.1858 29.6644 9.066 27.8425 7.42611 24.9999L2.08984 15.7561L2.66563 15.4236C3.91241 14.7036 5.34653 14.6907 6.76425 15.2375C7.97678 15.7052 9.19163 16.5843 10.3332 17.8065V13.8706L11.6632 15.2006V19.6684H10.1895L9.85425 19.2717L9.8529 19.2701C8.65464 17.8429 7.41994 16.9159 6.28563 16.4784C5.42758 16.1475 4.63967 16.0987 3.94463 16.3088L8.57796 24.335C9.96304 26.736 12.6255 28.3344 15.9982 28.3344Z" fill="#000000" class="bmwfcol"/><path d="M3.9395 2.99951L29.9395 28.9995H28.0586L2.05859 2.99951H3.9395Z" fill="#000000" class="bmwfcol"/><title>hand_crossed_out_lt_48</title></svg>