<svg width="48" height="48" viewBox="0 0 32 32" xmlns="http://www.w3.org/2000/svg"><path d="M12.5423 12.9423C12.9463 12.5383 13.4989 12.335 14.1 12.335C14.7012 12.335 15.2538 12.5383 15.6578 12.9423C16.0618 13.3463 16.265 13.8989 16.265 14.5V16.9804C16.524 16.8836 16.8062 16.835 17.1001 16.835C17.7012 16.835 18.2538 17.0383 18.6578 17.4423C18.8645 17.649 19.0187 17.8947 19.12 18.1659C19.4171 18.0288 19.7504 17.96 20.1001 17.96C20.7012 17.96 21.2538 18.1633 21.6578 18.5673C22.0618 18.9713 22.265 19.5239 22.265 20.125V22.75C22.265 24.7011 21.6118 26.3787 20.4203 27.5702C19.2288 28.7617 17.5512 29.4149 15.6001 29.4149C13.2247 29.4149 11.2613 28.2771 10.2264 26.4832L6.8917 20.7066L7.46749 20.3741C8.29867 19.8941 9.24558 19.8937 10.1554 20.2446C10.7636 20.4792 11.3638 20.8719 11.935 21.3956V14.5C11.935 13.8989 12.1383 13.3463 12.5423 12.9423ZM19.2651 20.125V20.35H17.9351V19C17.9351 18.7011 17.8383 18.5037 17.7173 18.3827C17.5963 18.2617 17.3989 18.165 17.1001 18.165C16.8012 18.165 16.6038 18.2617 16.4828 18.3827C16.362 18.5035 16.2654 18.7004 16.265 18.9984V19.75H14.935V14.5C14.935 14.2011 14.8383 14.0038 14.7173 13.8828C14.5963 13.7618 14.3989 13.665 14.1 13.665C13.8012 13.665 13.6038 13.7618 13.4828 13.8828C13.3618 14.0038 13.265 14.2011 13.265 14.5V23.4173H11.9913L11.7105 23.085L11.7092 23.0834C11.0093 22.2499 10.3032 21.7271 9.67679 21.4855C9.35243 21.3604 9.05576 21.3118 8.78677 21.3291L11.3783 25.8183C12.1584 27.1706 13.6644 28.0849 15.6001 28.0849C17.2489 28.0849 18.5713 27.5382 19.4798 26.6297C20.3883 25.7212 20.935 24.3988 20.935 22.75V20.125C20.935 19.8261 20.8383 19.6287 20.7173 19.5077C20.5963 19.3867 20.3989 19.29 20.1001 19.29C19.8012 19.29 19.6038 19.3867 19.4828 19.5077C19.3618 19.6287 19.2651 19.8261 19.2651 20.125Z" fill="#000000" class="bmwfcol"/><path d="M2.83496 14C2.83496 13.3566 3.35655 12.835 3.99996 12.835C4.64337 12.835 5.16496 13.3566 5.16496 14C5.16496 14.6434 4.64337 15.165 3.99996 15.165C3.35655 15.165 2.83496 14.6434 2.83496 14Z" fill="#000000" class="bmwfcol"/><path d="M3.99996 7.83499C3.35655 7.83499 2.83496 8.35658 2.83496 8.99999C2.83496 9.6434 3.35655 10.165 3.99996 10.165C4.64337 10.165 5.16496 9.6434 5.16496 8.99999C5.16496 8.35658 4.64337 7.83499 3.99996 7.83499Z" fill="#000000" class="bmwfcol"/><path d="M12.835 3.99999C12.835 3.35658 13.3565 2.83499 14 2.83499C14.6434 2.83499 15.165 3.35658 15.165 3.99999C15.165 4.6434 14.6434 5.16499 14 5.16499C13.3565 5.16499 12.835 4.6434 12.835 3.99999Z" fill="#000000" class="bmwfcol"/><path d="M8.99996 2.83499C8.35655 2.83499 7.83496 3.35658 7.83496 3.99999C7.83496 4.6434 8.35655 5.16499 8.99996 5.16499C9.64337 5.16499 10.165 4.6434 10.165 3.99999C10.165 3.35658 9.64337 2.83499 8.99996 2.83499Z" fill="#000000" class="bmwfcol"/><path d="M3.99996 2.83499C3.35655 2.83499 2.83496 3.35658 2.83496 3.99999C2.83496 4.6434 3.35655 5.16499 3.99996 5.16499C4.64337 5.16499 5.16496 4.6434 5.16496 3.99999C5.16496 3.35658 4.64337 2.83499 3.99996 2.83499Z" fill="#000000" class="bmwfcol"/><path d="M7.83496 8.99999C7.83496 8.35658 8.35655 7.83499 8.99996 7.83499C9.64337 7.83499 10.165 8.35658 10.165 8.99999C10.165 9.6434 9.64337 10.165 8.99996 10.165C8.35655 10.165 7.83496 9.6434 7.83496 8.99999Z" fill="#000000" class="bmwfcol"/><path d="M14 7.83499C13.3566 7.83499 12.835 8.35658 12.835 8.99999C12.835 9.6434 13.3566 10.165 14 10.165C14.6434 10.165 15.165 9.6434 15.165 8.99999C15.165 8.35658 14.6434 7.83499 14 7.83499Z" fill="#000000" class="bmwfcol"/><path d="M8.99996 12.835C8.35655 12.835 7.83496 13.3566 7.83496 14C7.83496 14.6434 8.35655 15.165 8.99996 15.165C9.64337 15.165 10.165 14.6434 10.165 14C10.165 13.3566 9.64337 12.835 8.99996 12.835Z" fill="#000000" class="bmwfcol"/><path d="M19.3899 13.6755L18.1399 12.4255V8.99701H21.5685L22.8185 10.247H20.3304C21.5077 11.3977 22.3902 12.0493 24.0002 12.0493C25.2633 12.0493 26.2643 11.6312 26.9478 10.9476C27.3329 10.5626 27.6337 10.0767 27.823 9.5H29.2049C28.9771 10.4326 28.5301 11.2463 27.8883 11.8881C26.9218 12.8546 25.5656 13.3793 24.0002 13.3793C21.8758 13.3793 20.6376 12.4175 19.3899 11.1928V13.6755Z" fill="#000000" class="bmwfcol"/><path d="M28.6103 2.32446L29.8603 3.57446V7.00299H26.4316L25.1816 5.75299H27.67C26.4927 4.60229 25.6101 3.9507 24.0002 3.9507C22.737 3.9507 21.7361 4.36885 21.0526 5.05235C20.6675 5.43743 20.3666 5.92327 20.1773 6.5H18.7954C19.0233 5.56736 19.4703 4.75371 20.1121 4.1119C21.0786 3.1454 22.4348 2.6207 24.0002 2.6207C26.1245 2.6207 27.3626 3.58239 28.6103 4.80701V2.32446Z" fill="#000000" class="bmwfcol"/><title>hand_on_keypad_with_arrows_lt_48</title></svg>