<svg width="48" height="48" viewBox="0 0 32 32" xmlns="http://www.w3.org/2000/svg"><path d="M12.0795 6.07978C12.571 5.58828 13.2486 5.335 13.9998 5.335C14.7509 5.335 15.4285 5.58828 15.92 6.07977C16.4115 6.57127 16.6648 7.24888 16.6648 8V11.6489C17.0587 11.441 17.5139 11.335 17.9998 11.335C18.7509 11.335 19.4285 11.5883 19.92 12.0798C20.2306 12.3903 20.446 12.7752 20.5626 13.206C20.9791 12.9604 21.4713 12.835 21.9998 12.835C22.7509 12.835 23.4285 13.0883 23.92 13.5798C24.4115 14.0713 24.6648 14.7489 24.6648 15.5V18.9999C24.6648 21.5511 23.8115 23.7287 22.27 25.2702C20.7285 26.8117 18.5509 27.665 15.9998 27.665C12.9059 27.665 10.3643 26.185 9.02691 23.8668L4.69141 16.3566L5.2672 16.0241C6.30618 15.4241 7.49669 15.4174 8.66047 15.8663C9.57167 16.2178 10.4784 16.8501 11.3348 17.7154V8C11.3348 7.24888 11.588 6.57127 12.0795 6.07978ZM20.6648 15.5L20.6648 15.8H19.3348V14C19.3348 13.5511 19.1881 13.2287 18.9796 13.0202C18.7711 12.8117 18.4487 12.665 17.9998 12.665C17.5509 12.665 17.2285 12.8117 17.02 13.0202C16.8119 13.2283 16.6654 13.5498 16.6648 13.9972V15H15.3348V8C15.3348 7.55112 15.188 7.22873 14.9795 7.02023C14.771 6.81173 14.4486 6.665 13.9998 6.665C13.5509 6.665 13.2285 6.81172 13.02 7.02023C12.8115 7.22873 12.6648 7.55112 12.6648 8V19.6681H11.291C10.4205 18.6379 9.47009 17.6041 8.18185 17.1072C7.58679 16.8777 7.04324 16.8259 6.55935 16.9321L10.1788 23.2019C11.2613 25.0785 13.3456 26.3349 15.9998 26.3349C18.2487 26.3349 20.0711 25.5882 21.3296 24.3297C22.5881 23.0712 23.3348 21.2488 23.3348 18.9999V15.5C23.3348 15.0511 23.1881 14.7287 22.9796 14.5202C22.7711 14.3117 22.4487 14.165 21.9998 14.165C21.5509 14.165 21.2285 14.3117 21.02 14.5202C20.8115 14.7287 20.6648 15.0511 20.6648 15.5Z" fill="#000000" class="bmwfcol"/><path d="M19.0517 10C19.2359 9.40937 19.3349 8.74179 19.3349 7.99996C19.3349 6.28619 18.8069 4.96867 17.919 4.08081C17.0312 3.19296 15.7136 2.66496 13.9999 2.66496C12.2861 2.66496 10.9686 3.19296 10.0807 4.08081C9.19285 4.96867 8.66486 6.28619 8.66486 7.99996C8.66486 9.66108 9.16091 10.9499 9.9999 11.8361V13.564C9.69032 13.3574 9.40309 13.1224 9.14026 12.8596C7.95436 11.6737 7.33486 9.99119 7.33486 7.99996C7.33486 6.00873 7.95436 4.32625 9.14026 3.14036C10.3262 1.95447 12.0086 1.33496 13.9999 1.33496C15.9911 1.33496 17.6736 1.95447 18.8595 3.14036C20.0454 4.32625 20.6649 6.00873 20.6649 7.99996C20.6649 8.70856 20.5864 9.37806 20.4319 10H19.0517Z" fill="#000000" class="bmwfcol"/><title>hand-touch_lt_48</title></svg>