<svg width="48" height="48" viewBox="0 0 32 32" xmlns="http://www.w3.org/2000/svg"><path d="M14 23.5417C13.5242 23.7754 13.0899 23.9633 12.6659 24.1128V30H11.3359V24.4645C10.2135 24.665 8.9689 24.665 7.08783 24.665H6.33572V18.663C6.13389 18.661 5.95415 18.6568 5.79393 18.6484C5.4736 18.6315 5.18605 18.596 4.91552 18.5058C4.38889 18.3302 4.03268 17.9732 3.60083 17.5404L3.16992 17.1094L6.42091 11.4785C6.73223 8.76012 7.88797 6.47911 9.71615 4.87112C11.5752 3.23599 14.0858 2.33496 17.0007 2.33496C20.1518 2.33496 22.8294 3.38824 24.7209 5.27973C24.7932 5.35201 24.8643 5.42544 24.9341 5.5H22.9542C21.4152 4.33293 19.3937 3.66496 17.0007 3.66496C14.3639 3.66496 12.1788 4.47629 10.5945 5.86978C9.01135 7.26229 7.98431 9.27427 7.72834 11.7579L7.71378 11.8992L4.83445 16.8863C5.08613 17.1248 5.19527 17.1971 5.33616 17.2441C5.44057 17.2789 5.59046 17.3059 5.86384 17.3202C6.13912 17.3347 6.4936 17.335 7.00072 17.335H7.66572V23.3346C9.51574 23.3314 10.5501 23.3036 11.5312 23.0651C12.2663 22.8864 12.9856 22.5852 14 22.0474V23.5417Z" fill="#000000" class="bmwfcol"/><path d="M24.0465 19.5H25.7491C24.9452 20.6379 23.9062 21.5778 22.6657 22.276V30H21.3357V21.4704L21.6989 21.2854C22.5957 20.8286 23.3851 20.2285 24.0465 19.5Z" fill="#000000" class="bmwfcol"/><path d="M14.334 7.33496H18.999C19.7501 7.33496 20.4277 7.58824 20.9192 8.07973C20.9465 8.10706 20.9731 8.13497 20.999 8.16343C21.0248 8.13497 21.0514 8.10706 21.0788 8.07973C21.5703 7.58824 22.2479 7.33496 22.999 7.33496H27.664V17.665H22.999C22.5501 17.665 22.2277 17.8117 22.0192 18.0202C21.8107 18.2287 21.664 18.5511 21.664 19L20.334 19C20.334 18.5511 20.1873 18.2287 19.9788 18.0202C19.7703 17.8117 19.4479 17.665 18.999 17.665H14.334V7.33496ZM22.999 16.335H26.334V8.66496H22.999C22.5501 8.66496 22.2277 8.81169 22.0192 9.02019C21.8107 9.22869 21.664 9.55108 21.664 9.99996V16.6489C22.0579 16.441 22.5131 16.335 22.999 16.335ZM19.9788 9.02019C19.7703 8.81169 19.4479 8.66496 18.999 8.66496H15.664V16.335H18.999C19.4849 16.335 19.9401 16.441 20.334 16.6489V9.99996C20.334 9.55108 20.1873 9.22869 19.9788 9.02019Z" fill="#000000" class="bmwfcol"/><title>head_and_book_lt_48</title></svg>