<svg width="48" height="48" viewBox="0 0 32 32" xmlns="http://www.w3.org/2000/svg"><path d="M18 8.665C19.2376 8.665 20.3325 8.77713 21.3001 8.97405V7.61955C20.3087 7.43626 19.2114 7.335 17.9997 7.335H15.3876L15.2026 7.69819C13.9862 10.0864 13.335 12.8914 13.335 16C13.335 19.1086 13.9862 21.9136 15.2026 24.3018L15.3876 24.665H18C19.2117 24.665 20.3087 24.5637 21.3001 24.3804V23.026C20.3325 23.2229 19.2376 23.335 18 23.335H16.2092C15.2113 21.2307 14.665 18.7617 14.665 16C14.665 13.2383 15.2113 10.7693 16.2092 8.665H18Z" fill="#000000" class="bmwfcol"/><path d="M24.9226 23.152C25.8632 22.65 26.6404 22.0519 27.2754 21.4024C29.0533 19.5841 29.665 17.4144 29.665 16C29.665 14.5856 29.0533 12.4159 27.2754 10.5976C26.6404 9.94813 25.8632 9.34996 24.9226 8.84804H28.5907L27.4407 7.69804L23.1331 7.69804V11.8756L24.2831 13.0256L24.2831 10.0146C25.1173 10.4581 25.7884 10.9791 26.3245 11.5274C27.8466 13.0841 28.335 14.9144 28.335 16C28.335 17.0856 27.8466 18.9159 26.3245 20.4726C25.7884 21.0209 25.1173 21.5419 24.2831 21.9854L24.2831 18.9744L23.1331 20.1244V24.302H27.4407L28.5907 23.152H24.9226Z" fill="#000000" class="bmwfcol"/><path d="M2 9.335H12.5358C12.3906 9.77006 12.2604 10.2136 12.1454 10.665H2V9.335Z" fill="#000000" class="bmwfcol"/><path d="M2 13.335H11.6535C11.602 13.7727 11.5633 14.2161 11.5377 14.665H2V13.335Z" fill="#000000" class="bmwfcol"/><path d="M11.5377 17.335H2V18.665H11.6535C11.602 18.2273 11.5633 17.7839 11.5377 17.335Z" fill="#000000" class="bmwfcol"/><path d="M2 21.335H12.1454C12.2604 21.7864 12.3906 22.2299 12.5358 22.665H2V21.335Z" fill="#000000" class="bmwfcol"/><title>headlight_with_double_arrow_lt_48</title></svg>