<svg width="48" height="48" viewBox="0 0 32 32" xmlns="http://www.w3.org/2000/svg"><path d="M12.665 24.1128C13.0892 23.9632 13.5239 23.7752 14 23.5413V22.0469C12.9851 22.585 12.2656 22.8864 11.5302 23.0651C10.5491 23.3036 9.51476 23.3314 7.66474 23.3346V17.335H6.99974C6.49262 17.335 6.13815 17.3347 5.86286 17.3202C5.58948 17.3059 5.43959 17.2789 5.33519 17.2441C5.1943 17.1971 5.08515 17.1248 4.83347 16.8863L7.7128 11.8992L7.72737 11.7579C7.98333 9.27427 9.01038 7.26229 10.5936 5.86978C12.1779 4.47629 14.3629 3.66496 16.9997 3.66496C19.8486 3.66496 22.171 4.61168 23.7795 6.22019C25.388 7.82869 26.3347 10.1511 26.3347 13C26.3347 16.8983 24.5653 19.825 21.6979 21.2854L21.3347 21.4704V30H22.6647V22.276C25.8135 20.5036 27.6647 17.1743 27.6647 13C27.6647 9.84884 26.6115 7.17123 24.72 5.27973C22.8285 3.38824 20.1509 2.33496 16.9997 2.33496C14.0848 2.33496 11.5742 3.23599 9.71517 4.87112C7.887 6.47911 6.73125 8.76012 6.41993 11.4785L3.16895 17.1094L3.59985 17.5404C4.0317 17.9732 4.38791 18.3302 4.91454 18.5058C5.18508 18.596 5.47263 18.6315 5.79295 18.6484C5.95317 18.6568 6.13291 18.661 6.33474 18.663V24.665H7.08681C8.9679 24.665 10.2125 24.665 11.335 24.4645V30H12.665V24.1128Z" fill="#000000" class="bmwfcol"/><path d="M17 10.375C15.5503 10.375 14.375 11.5503 14.375 13C14.375 14.4497 15.5503 15.625 17 15.625C18.4497 15.625 19.625 14.4497 19.625 13C19.625 11.5503 18.4497 10.375 17 10.375ZM15.625 13C15.625 12.2406 16.2406 11.625 17 11.625C17.7594 11.625 18.375 12.2406 18.375 13C18.375 13.7594 17.7594 14.375 17 14.375C16.2406 14.375 15.625 13.7594 15.625 13Z" fill="#000000" class="bmwfcol"/><path d="M16.6729 7.13768L15.7082 5.98926L15.3322 6.07974C14.6096 6.25362 13.9188 6.54006 13.2852 6.92857L12.9556 7.13065L13.0861 8.62415C12.9234 8.76976 12.7689 8.92429 12.6232 9.087L11.1283 8.95597L10.9263 9.28619C10.5383 9.92028 10.2526 10.6115 10.0796 11.3344L9.98964 11.7102L11.1377 12.674C11.1256 12.8918 11.1256 13.1101 11.1377 13.3279L9.98926 14.2926L10.0797 14.6686C10.2536 15.3912 10.5401 16.082 10.9286 16.7156L11.1307 17.0452L12.6242 16.9147C12.7698 17.0774 12.9243 17.2319 13.087 17.3776L12.956 18.8725L13.2862 19.0745C13.9203 19.4625 14.6115 19.7482 15.3344 19.9212L15.7102 20.0112L16.674 18.8631C16.8918 18.8752 17.1101 18.8752 17.3279 18.8631L18.2926 20.0115L18.6686 19.9211C19.3912 19.7472 20.082 19.4607 20.7156 19.0722L21.0452 18.8701L20.9147 17.3766C21.0774 17.231 21.2319 17.0765 21.3776 16.9138L22.8725 17.0448L23.0745 16.7146C23.4625 16.0805 23.7482 15.3893 23.9212 14.6664L24.0112 14.2906L22.8631 13.3268C22.8752 13.109 22.8752 12.8907 22.8631 12.6729L24.0115 11.7082L23.9211 11.3322C23.7472 10.6095 23.4607 9.91879 23.0722 9.28519L22.8701 8.95563L21.3766 9.08609C21.231 8.92337 21.0765 8.76885 20.9138 8.62324L21.0448 7.12831L20.7146 6.92627C20.0805 6.53831 19.3893 6.25258 18.6664 6.07956L18.2906 5.98964L17.3268 7.13767C17.109 7.12565 16.8907 7.12565 16.6729 7.13768ZM17.8604 8.44621L18.7422 7.39577C19.0836 7.5014 19.4145 7.63816 19.7308 7.80434L19.611 9.17143L19.8738 9.38053C20.1497 9.6 20.3998 9.85008 20.6193 10.126L20.8283 10.3887L22.1948 10.2694C22.3614 10.5855 22.4986 10.9163 22.6046 11.2575L21.5546 12.1395L21.5924 12.4728C21.6321 12.8231 21.6321 13.1767 21.5924 13.527L21.5546 13.8604L22.605 14.7422C22.4994 15.0836 22.3626 15.4145 22.1965 15.7308L20.8294 15.611L20.6203 15.8738C20.4008 16.1497 20.1507 16.3998 19.8748 16.6193L19.6121 16.8283L19.7314 18.1948C19.4153 18.3614 19.0845 18.4986 18.7433 18.6046L17.8613 17.5546L17.528 17.5924C17.1777 17.6321 16.8241 17.6321 16.4738 17.5924L16.1404 17.5546L15.2586 18.605C14.9172 18.4994 14.5863 18.3626 14.27 18.1965L14.3898 16.8294L14.127 16.6203C13.8511 16.4008 13.601 16.1507 13.3815 15.8748L13.1725 15.6121L11.8059 15.7314C11.6394 15.4153 11.5022 15.0845 11.3962 14.7433L12.4462 13.8613L12.4084 13.528C12.3687 13.1777 12.3687 12.8241 12.4084 12.4738L12.4462 12.1404L11.3958 11.2586C11.5014 10.9172 11.6382 10.5863 11.8043 10.27L13.1714 10.3898L13.3805 10.127C13.6 9.85107 13.8501 9.60096 14.126 9.3815L14.3887 9.17248L14.2694 7.80593C14.5855 7.63939 14.9163 7.50222 15.2575 7.39616L16.1395 8.44619L16.4728 8.40843C16.8231 8.36873 17.1767 8.36873 17.527 8.40843L17.8604 8.44621Z" fill="#000000" class="bmwfcol"/><title>head-with-gear_lt_48</title></svg>