<svg width="48" height="48" viewBox="0 0 32 32" xmlns="http://www.w3.org/2000/svg"><path d="M10.5938 5.86976C9.01062 7.26226 7.98358 9.27425 7.72761 11.7578L7.71305 11.8991L4.83371 16.8863C5.0854 17.1248 5.19454 17.1971 5.33543 17.2441C5.43984 17.2789 5.58973 17.3058 5.86311 17.3202C6.13839 17.3347 6.49286 17.3349 6.99999 17.3349H7.66499V23.3322C9.49905 23.3163 10.5849 23.231 11.3993 23.0658C12.2873 22.8857 12.8736 22.6079 13.8266 22.1492C14.539 21.8064 15.2156 21.3719 15.9013 20.9776C16.0042 20.6352 16.1983 19.9642 16.3919 19.1638C16.4439 18.9489 16.4953 18.7265 16.5448 18.5H17.9047C17.8339 18.8407 17.7588 19.1698 17.6846 19.4764C17.4897 20.2823 17.2671 21.0807 17.0155 21.8706L16.465 22.1876C15.2369 22.8932 14.0126 23.6441 12.665 24.1005V30H11.335V24.4299C10.3305 24.5979 9.02658 24.6649 6.99999 24.6649H6.33499V18.663C6.13315 18.661 5.95342 18.6568 5.7932 18.6484C5.47287 18.6315 5.18532 18.596 4.91479 18.5058C4.38816 18.3302 4.03194 17.9732 3.60009 17.5403L3.16919 17.1093L6.42018 11.4785C6.7315 8.76009 7.88724 6.47908 9.71541 4.87109C11.5744 3.23597 14.085 2.33494 17 2.33494C20.1511 2.33494 22.8287 3.38821 24.7202 5.27971C26.6117 7.17121 27.665 9.84882 27.665 12.9999C27.665 17.1742 25.8137 20.5036 22.665 22.2759V29.9999H21.335V21.4704L21.6982 21.2854C24.5655 19.825 26.335 16.8983 26.335 12.9999C26.335 10.1511 25.3883 7.82866 23.7798 6.22016C22.1713 4.61166 19.8489 3.66494 17 3.66494C14.3631 3.66494 12.1781 4.47627 10.5938 5.86976Z" fill="#000000" class="bmwfcol"/><path d="M18.1662 17H16.8231C16.9021 16.4628 16.9515 15.9445 16.9515 15.4899C16.9515 14.497 16.644 13.4335 16.2643 12.5H17.6891C18.0234 13.4245 18.2815 14.4669 18.2815 15.4899C18.2815 15.96 18.2371 16.4755 18.1662 17Z" fill="#000000" class="bmwfcol"/><path d="M10.5293 15.0187C10.5784 15.1862 10.6225 15.3447 10.6584 15.5H12.0154C11.9627 15.1979 11.8853 14.9165 11.8055 14.6443C11.7864 14.5792 11.7672 14.5147 11.7482 14.4507C11.5632 13.829 11.3891 13.2437 11.3891 12.4266C11.3891 10.7397 11.9485 9.38563 12.8792 8.45496C13.8099 7.52429 15.1639 6.9649 16.8508 6.9649C17.6072 6.9649 18.3311 7.07728 19 7.31717V5.92175C18.3076 5.72571 17.5839 5.6349 16.8508 5.6349C14.8617 5.6349 13.1524 6.30085 11.9387 7.51451C10.7251 8.72818 10.0591 10.4375 10.0591 12.4266C10.0591 13.4456 10.2858 14.2035 10.4719 14.8257C10.4915 14.8914 10.5108 14.9559 10.5293 15.0187Z" fill="#000000" class="bmwfcol"/><path d="M23.0195 14H24.3535C24.1478 11.3035 23.3712 9.30829 22.1777 7.93344C21.676 7.35544 21.1102 6.89819 20.5 6.54879V8.15485C20.738 8.34655 20.963 8.56299 21.1734 8.80531C22.1163 9.89153 22.8181 11.5592 23.0195 14Z" fill="#000000" class="bmwfcol"/><path d="M9.73865 19C10.1723 18.4339 10.4848 17.7602 10.6601 17H12.0175C12.0084 17.052 11.9983 17.1048 11.9871 17.1583C11.8465 17.8274 11.6208 18.444 11.3195 19H9.73865Z" fill="#000000" class="bmwfcol"/><path d="M12.8149 19.9999H14.3006C14.6993 19.1186 14.974 18.1498 15.1129 17.1096C15.2457 16.1158 15.0448 15.334 14.8462 14.6247L14.8092 14.493C14.6238 13.8338 14.4524 13.2248 14.4524 12.4266C14.4524 11.6587 14.7055 11.0705 15.1001 10.6759C15.4947 10.2813 16.0829 10.0282 16.8508 10.0282C17.623 10.0282 18.3649 10.2622 18.9353 10.9753C19.5285 11.7167 20.015 13.072 20.015 15.4898C20.015 16.7232 19.9011 17.8955 19.6823 18.9999H21.0359C21.24 17.8839 21.345 16.7114 21.345 15.4898C21.345 12.9298 20.8359 11.2219 19.9739 10.1444C19.0893 9.03863 17.9166 8.69823 16.8508 8.69823C15.7807 8.69823 14.8372 9.05784 14.1596 9.73542C13.4821 10.413 13.1224 11.3564 13.1224 12.4266C13.1224 13.4143 13.3398 14.184 13.5238 14.8354L13.5654 14.9831C13.7569 15.6672 13.8892 16.2257 13.7947 16.9335C13.6419 18.0772 13.3065 19.1052 12.8149 19.9999Z" fill="#000000" class="bmwfcol"/><title>head_with_fingerprint_lt_48</title></svg>