<svg width="48" height="48" viewBox="0 0 32 32" xmlns="http://www.w3.org/2000/svg"><path d="M8.66972 20.4786C8.06358 19.8429 7.48924 19.182 6.96628 18.5H5.3203C6.0349 19.5318 6.85365 20.5012 7.70715 21.3964C10.2632 24.0771 13.2386 26.2017 15.0004 27.4596L15.2878 27.665H16.714L17.0015 27.4596C18.7632 26.2017 21.7387 24.0771 24.2947 21.3964C26.8912 18.6732 29.1659 15.2626 29.1659 11.5C29.1659 9.39884 28.4627 7.59623 27.1837 6.31723C25.9047 5.03824 24.1021 4.33496 22.0009 4.33496C19.3824 4.33496 17.2426 5.43008 16.0009 7.32168C14.7592 5.43008 12.6195 4.33496 10.0009 4.33496C7.89982 4.33496 6.09721 5.03824 4.81821 6.31723C3.53921 7.59623 2.83594 9.39884 2.83594 11.5C2.83594 12.1788 2.90997 12.8461 3.04657 13.5H4.40993C4.25155 12.8415 4.16594 12.1739 4.16594 11.5C4.16594 9.70108 4.76266 8.25369 5.75866 7.25769C6.75467 6.26169 8.20206 5.66496 10.0009 5.66496C12.5562 5.66496 14.4204 6.86513 15.2862 8.77458L15.4632 9.16496H16.5386L16.7156 8.77458C17.5814 6.86513 19.4457 5.66496 22.0009 5.66496C23.7998 5.66496 25.2472 6.26169 26.2432 7.25769C27.2392 8.25369 27.8359 9.70108 27.8359 11.5C27.8359 14.7373 25.8607 17.8267 23.3322 20.4786C20.9003 23.0291 18.0591 25.0699 16.2879 26.335H15.714C13.9428 25.0699 11.1016 23.0291 8.66972 20.4786Z" fill="#000000" class="bmwfcol"/><path d="M12.6522 12.335H11.3484L9.61633 15.335H2V16.665H10.3842L12.0003 13.8659L15.3484 19.665H16.6522L18.3839 16.6654H22V15.3354H17.6161L16.0003 18.1341L12.6522 12.335Z" fill="#000000" class="bmwfcol"/><title>heartbeat_lt_48</title></svg>