<svg width="48" height="48" viewBox="0 0 32 32" xmlns="http://www.w3.org/2000/svg"><path d="M5.74401 7.25769C4.74801 8.25369 4.15129 9.70108 4.15129 11.5C4.15129 14.7373 6.12655 17.8267 8.65507 20.4786C11.0869 23.0291 13.9281 25.0699 15.6993 26.335H16.2732C18.0444 25.0699 20.8856 23.0291 23.3175 20.4786C25.846 17.8267 27.8213 14.7373 27.8213 11.5C27.8213 9.70108 27.2245 8.25369 26.2285 7.25769C25.2325 6.26169 23.7851 5.66496 21.9863 5.66496C19.431 5.66496 17.5668 6.86513 16.701 8.77458L16.524 9.16496H15.4486L15.2716 8.77458C14.4058 6.86513 12.5415 5.66496 9.98629 5.66496C8.18741 5.66496 6.74001 6.26169 5.74401 7.25769ZM4.80356 6.31723C6.08256 5.03824 7.88517 4.33496 9.98629 4.33496C12.6048 4.33496 14.7446 5.43008 15.9863 7.32168C17.228 5.43008 19.3677 4.33496 21.9863 4.33496C24.0874 4.33496 25.89 5.03824 27.169 6.31723C28.448 7.59623 29.1513 9.39884 29.1513 11.5C29.1513 15.2626 26.8765 18.6732 24.2801 21.3964C21.724 24.0771 18.7486 26.2017 16.9868 27.4596C16.9482 27.4872 16.9102 27.5144 16.8728 27.5411L16.6994 27.665H15.2732L15.0997 27.5411C15.0623 27.5144 15.0243 27.4872 14.9857 27.4596C13.224 26.2017 10.2485 24.0771 7.6925 21.3964C5.09603 18.6732 2.82129 15.2626 2.82129 11.5C2.82129 9.39884 3.52456 7.59623 4.80356 6.31723Z" fill="#000000" class="bmwfcol"/><title>heart_lt_48</title></svg>