<svg width="48" height="48" viewBox="0 0 32 32" xmlns="http://www.w3.org/2000/svg"><path d="M15.9991 14.335H16.0131C16.8209 13.757 18.0308 12.874 19.0688 11.7854C20.1996 10.5994 21.0158 9.28275 21.0158 7.95451C21.0158 7.21926 20.7736 6.65823 20.3981 6.28269C20.0225 5.90714 19.4615 5.66496 18.7262 5.66496C17.6891 5.66496 16.9818 6.14285 16.6542 6.86548L16.4772 7.25587H15.5208L15.3437 6.86548C15.0161 6.14285 14.3088 5.66496 13.2717 5.66496C12.5364 5.66496 11.9754 5.90714 11.5999 6.28269C11.4085 6.4741 11.2517 6.7137 11.144 7H9.75806C9.90713 6.35687 10.2117 5.78999 10.6594 5.34223C11.318 4.68369 12.2342 4.33496 13.2717 4.33496C14.3842 4.33496 15.3456 4.73795 15.999 5.46268C16.6523 4.73795 17.6138 4.33496 18.7262 4.33496C19.7637 4.33496 20.68 4.68369 21.3385 5.34223C21.9971 6.00078 22.3458 6.91702 22.3458 7.95451C22.3458 9.80808 21.2301 11.446 20.0314 12.7032C18.8454 13.947 17.4694 14.9295 16.6693 15.5007L16.4393 15.665H15.9991V14.335Z" fill="#000000" class="bmwfcol"/><path d="M28.2492 15.7166C28.7909 15.9207 29.1811 16.2414 29.4695 16.5297L29.9398 16.9999L21.3795 25.5603C20.4661 26.4743 19.8601 27.0807 18.9594 27.3809C18.5014 27.5336 17.995 27.6003 17.3778 27.6328C16.7665 27.665 16.0021 27.665 15.0187 27.665H11.2745L9.2745 29.665H7.72359L2.05859 24L6.5381 19.5205C7.03025 19.0283 7.41179 18.6468 7.72115 18.3578C8.02999 18.0693 8.29691 17.8441 8.56046 17.6828C9.13013 17.3342 9.61853 17.3345 10.2045 17.335L10.3548 17.335L14.0869 18.335L18.999 18.335C19.4502 18.335 19.8778 18.4883 20.1943 18.8047C20.2265 18.8369 20.257 18.8702 20.2858 18.9045C22.9331 16.7816 24.8316 15.8372 26.2571 15.5825C27.0488 15.441 27.7029 15.5108 28.2492 15.7166ZM19.3343 19.9998C19.3342 19.8512 19.2875 19.7788 19.254 19.7453C19.2204 19.7117 19.1479 19.665 18.999 19.665L13.9118 19.665L10.1801 18.6651C9.6009 18.6665 9.47138 18.6846 9.25469 18.8172C9.10971 18.9059 8.92237 19.0557 8.62907 19.3297C8.33824 19.6014 7.97264 19.9669 7.46927 20.4702L3.9395 24L8.2745 28.335H8.72359L10.7236 26.335H14.999C16.0062 26.335 16.7357 26.3348 17.3079 26.3047C17.8782 26.2747 18.2469 26.2164 18.5389 26.1191C19.109 25.9291 19.4934 25.5654 20.5291 24.5298L27.9981 17.0607C27.9294 17.0235 27.857 16.9901 27.7803 16.9612C27.4829 16.8492 27.0744 16.7875 26.4911 16.8917C25.3238 17.1003 23.5029 17.9648 20.6642 20.3116L20.664 21.2755L20.4693 21.4702C19.4334 22.5061 18.5973 23.0849 17.7095 23.3809C16.8565 23.6652 16.0109 23.6651 15.0589 23.665L10.999 23.665V22.335H14.9993C16.0229 22.335 16.6598 22.3288 17.2889 22.1191C17.8588 21.9291 18.4736 21.5508 19.3341 20.7211L19.3343 19.9998Z" fill="#000000" class="bmwfcol"/><path d="M10.8951 8.33472H9.76998L8.61526 10.3348L5.99902 10.3348V11.6648L9.38314 11.6648L10.3325 10.0203L12.4366 13.6647H13.5618L14.7163 11.665H16.999V10.335H13.9484L12.9992 11.9791L10.8951 8.33472Z" fill="#000000" class="bmwfcol"/><title>heartbeat_on_hand_lt_48</title></svg>