<svg width="48" height="48" viewBox="0 0 32 32" xmlns="http://www.w3.org/2000/svg"><path d="M4.81723 6.31723C6.09623 5.03824 7.89884 4.33496 9.99996 4.33496C12.6185 4.33496 14.7583 5.43008 16 7.32168C17.2417 5.43008 19.3814 4.33496 22 4.33496C24.1011 4.33496 25.9037 5.03824 27.1827 6.31723C28.4617 7.59623 29.165 9.39884 29.165 11.5C29.165 15.2626 26.8902 18.6732 24.2937 21.3964C21.7377 24.0771 18.7622 26.2017 17.0005 27.4596C16.9047 27.5281 16.8089 27.5965 16.7131 27.665H15.2869C15.191 27.5965 15.0952 27.5281 14.9994 27.4596C13.2377 26.2017 10.2622 24.0771 7.70618 21.3964C5.1097 18.6732 2.83496 15.2626 2.83496 11.5C2.83496 9.39884 3.53824 7.59623 4.81723 6.31723Z" fill="#000000" class="bmwfcol"/><title>heart-filled_lt_48</title></svg>