<svg width="48" height="48" viewBox="0 0 32 32" xmlns="http://www.w3.org/2000/svg"><path d="M16.0001 3.33472C12.549 3.33472 9.62136 4.48799 7.55486 6.55449C5.48836 8.62099 4.33508 11.5486 4.33508 14.9997L4.33508 23.9814L7.03899 28.6647L7.50135 28.6647C8.71789 28.6648 9.46241 28.6649 10.32 28.381C11.1404 28.1094 12.0595 27.5788 13.6989 26.6322L27.1267 18.8796L27.1989 18.6159C27.506 17.4934 27.6651 16.2825 27.6651 14.9997C27.6651 11.5486 26.5118 8.62099 24.4453 6.55449C22.3788 4.48799 19.4512 3.33472 16.0001 3.33472ZM5.93785 12.334C6.35734 10.3822 7.24539 8.74486 8.49531 7.49494C10.2788 5.71144 12.8512 4.66472 16.0001 4.66472C19.149 4.66472 21.7214 5.71144 23.5049 7.49494C25.2884 9.27844 26.3351 11.8508 26.3351 14.9997C26.3351 16.0711 26.2137 17.0754 25.9841 18.0036L13.1319 25.4238C11.3688 26.4417 10.5759 26.8954 9.90206 27.1184C9.3332 27.3067 8.84775 27.3312 7.80662 27.3343L5.66508 23.625L5.66508 23.1178C8.31814 22.4061 9.81139 21.9895 11.0753 21.2807C12.4058 20.5346 13.4665 19.4739 15.3935 17.5471L15.5966 17.344L15.6428 17.1718C15.7761 16.6743 15.9135 16.1772 16.0392 15.7223C16.1545 15.305 16.2602 14.9224 16.3438 14.6082C16.436 14.2616 16.5141 13.9521 16.5695 13.6936C16.6219 13.4489 16.6651 13.2013 16.6651 12.9998C16.6653 12.2486 16.4119 11.571 15.9204 11.0795C15.4289 10.588 14.7512 10.3347 14.0001 10.3347C13.249 10.3347 12.5714 10.588 12.0799 11.0795C11.4929 11.6665 10.7554 11.9875 9.65253 12.1568C8.68349 12.3056 7.48896 12.33 5.93785 12.334ZM5.73041 13.6645C7.37397 13.6624 8.73401 13.6434 9.85437 13.4714C11.1313 13.2754 12.1689 12.8714 13.0203 12.0199C13.2288 11.8114 13.5512 11.6647 14.0001 11.6647C14.449 11.6647 14.7715 11.8115 14.98 12.02C15.1885 12.2285 15.3352 12.5508 15.3351 12.9996C15.3351 13.0481 15.3203 13.1755 15.269 13.4152C15.2206 13.641 15.1493 13.9253 15.0585 14.2662C14.9674 14.6088 14.8674 14.9702 14.7575 15.3673C14.6499 15.756 14.5326 16.1796 14.4044 16.6552C12.4668 18.5922 11.5527 19.4882 10.4248 20.1207C9.37721 20.7081 8.13218 21.0756 5.66508 21.7404L5.66508 14.9997C5.66508 14.5422 5.68718 14.0969 5.73041 13.6645Z" fill="#000000" class="bmwfcol"/><title>helmet_lt_48</title></svg>