<svg width="48" height="48" viewBox="0 0 32 32" xmlns="http://www.w3.org/2000/svg"><path d="M7.77019 8.27019C5.81169 10.2287 4.66496 13.0511 4.66496 16.5C4.66496 19.9488 5.81169 22.7712 7.77019 24.7297C9.72869 26.6882 12.5511 27.835 16 27.835C19.4488 27.835 22.2712 26.6882 24.2297 24.7297C26.1882 22.7712 27.335 19.9488 27.335 16.5C27.335 13.0511 26.1882 10.2287 24.2297 8.27019C22.2712 6.31169 19.4488 5.16496 16 5.16496C12.5511 5.16496 9.72869 6.31169 7.77019 8.27019ZM6.82973 7.32973C9.07123 5.08824 12.2488 3.83496 16 3.83496C19.7511 3.83496 22.9287 5.08824 25.1702 7.32973C27.4117 9.57123 28.665 12.7488 28.665 16.5C28.665 20.2511 27.4117 23.4287 25.1702 25.6702C22.9287 27.9117 19.7511 29.165 16 29.165C12.2488 29.165 9.07123 27.9117 6.82973 25.6702C4.58824 23.4287 3.33496 20.2511 3.33496 16.5C3.33496 12.7488 4.58824 9.57123 6.82973 7.32973Z" fill="#000000" class="bmwfcol"/><path d="M16.6487 18.508C16.7536 18.2381 16.9336 17.8632 17.5035 17.2333C18.0883 16.5885 18.4632 16.1386 18.8532 15.6437C19.453 14.8788 19.723 14.204 19.723 13.2592C19.723 12.4794 19.423 11.6846 18.8382 11.2047C18.2533 10.7398 17.5335 10.5448 16.5137 10.5448C15.4789 10.5448 14.4741 10.7698 13.6793 10.9647V12.3744C14.5491 12.1645 15.5689 11.9245 16.3487 11.9245C17.0236 11.9245 17.5185 12.0145 17.8184 12.2844C18.1783 12.5994 18.2683 12.9293 18.2683 13.3342C18.2683 14.024 17.9534 14.5489 17.5335 15.0888C17.1435 15.5837 16.6487 16.1386 16.1238 16.7234C15.4939 17.4283 15.269 17.9082 15.059 18.508H16.6487ZM16.6786 22.3248V20.0453H15.014V22.3248H16.6786Z" fill="#000000" class="bmwfcol"/><title>help_lt_48</title></svg>