<svg width="48" height="48" viewBox="0 0 32 32" xmlns="http://www.w3.org/2000/svg"><path d="M6.82973 6.82973C9.07123 4.58824 12.2488 3.33496 16 3.33496C19.7511 3.33496 22.9287 4.58824 25.1702 6.82973C27.4117 9.07123 28.665 12.2488 28.665 16C28.665 19.7511 27.4117 22.9287 25.1702 25.1702C22.9287 27.4117 19.7511 28.665 16 28.665C12.2488 28.665 9.07123 27.4117 6.82973 25.1702C4.58824 22.9287 3.33496 19.7511 3.33496 16C3.33496 12.2488 4.58824 9.07123 6.82973 6.82973ZM16.6487 18.008C16.7536 17.7381 16.9336 17.3632 17.5035 16.7333C18.0883 16.0885 18.4632 15.6386 18.8532 15.1437C19.453 14.3788 19.723 13.704 19.723 12.7592C19.723 11.9794 19.423 11.1846 18.8382 10.7047C18.2533 10.2398 17.5335 10.0448 16.5137 10.0448C15.4789 10.0448 14.4741 10.2698 13.6793 10.4647V11.8744C14.5491 11.6645 15.5689 11.4245 16.3487 11.4245C17.0236 11.4245 17.5185 11.5145 17.8184 11.7844C18.1783 12.0994 18.2683 12.4293 18.2683 12.8342C18.2683 13.524 17.9534 14.0489 17.5335 14.5888C17.1435 15.0837 16.6487 15.6386 16.1238 16.2234C15.4939 16.9283 15.269 17.4082 15.059 18.008H16.6487ZM16.6786 19.5453H15.014V21.8248H16.6786V19.5453Z" fill="#000000" class="bmwfcol"/><title>help-filled_lt_48</title></svg>