<svg width="48" height="48" viewBox="0 0 32 32" xmlns="http://www.w3.org/2000/svg"><path d="M12.335 5.99996C12.335 5.55302 12.4747 5.11981 12.7972 4.79723C13.1198 4.47466 13.553 4.33496 14 4.33496H18C18.4469 4.33496 18.8801 4.47466 19.2027 4.79723C19.5253 5.11981 19.665 5.55302 19.665 5.99996V9.99996C19.665 10.4469 19.5253 10.8801 19.2027 11.2027C18.8801 11.5253 18.4469 11.665 18 11.665H16.665V15.335H20C21.3511 15.335 22.5287 15.7883 23.3702 16.6298C24.2117 17.4713 24.665 18.6489 24.665 20V20.335H26C26.4469 20.335 26.8801 20.4747 27.2027 20.7972C27.5253 21.1198 27.665 21.553 27.665 22V26C27.665 26.4469 27.5253 26.8801 27.2027 27.2027C26.8801 27.5253 26.4469 27.665 26 27.665H22C21.553 27.665 21.1198 27.5253 20.7972 27.2027C20.4747 26.8801 20.335 26.4469 20.335 26V22C20.335 21.553 20.4747 21.1198 20.7972 20.7972C21.1198 20.4747 21.553 20.335 22 20.335H23.335V20C23.335 18.9511 22.9882 18.1287 22.4297 17.5702C21.8712 17.0117 21.0488 16.665 20 16.665H12C10.9511 16.665 10.1287 17.0117 9.57019 17.5702C9.01169 18.1287 8.66496 18.9511 8.66496 20V20.335H9.99996C10.4469 20.335 10.8801 20.4747 11.2027 20.7972C11.5253 21.1198 11.665 21.553 11.665 22L11.665 26C11.665 26.4469 11.5253 26.8801 11.2027 27.2027C10.8801 27.5253 10.4469 27.665 9.99996 27.665H5.99996C5.55302 27.665 5.11981 27.5253 4.79724 27.2027C4.47467 26.8801 4.33496 26.4469 4.33496 26V22C4.33496 21.553 4.47466 21.1198 4.79724 20.7972C5.11981 20.4747 5.55302 20.335 5.99996 20.335H7.33496V20C7.33496 18.6489 7.78824 17.4713 8.62973 16.6298C9.47123 15.7883 10.6488 15.335 12 15.335H15.335V11.665H14C13.553 11.665 13.1198 11.5253 12.7972 11.2027C12.4747 10.8801 12.335 10.4469 12.335 9.99996V5.99996ZM14 5.66496C13.8269 5.66496 13.7601 5.71526 13.7377 5.73769C13.7153 5.76012 13.665 5.8269 13.665 5.99996V9.99996C13.665 10.173 13.7153 10.2398 13.7377 10.2622C13.7601 10.2847 13.8269 10.335 14 10.335L18 10.335C18.173 10.335 18.2398 10.2847 18.2622 10.2622C18.2847 10.2398 18.335 10.173 18.335 9.99996V5.99996C18.335 5.8269 18.2847 5.76012 18.2622 5.73769C18.2398 5.71526 18.173 5.66496 18 5.66496L14 5.66496ZM5.73769 21.7377C5.71526 21.7601 5.66496 21.8269 5.66496 22L5.66496 26C5.66496 26.173 5.71526 26.2398 5.73769 26.2622C5.76012 26.2847 5.8269 26.335 5.99996 26.335H9.99996C10.173 26.335 10.2398 26.2847 10.2622 26.2622C10.2847 26.2398 10.335 26.173 10.335 26L10.335 22C10.335 21.8269 10.2847 21.7601 10.2622 21.7377C10.2398 21.7153 10.173 21.665 9.99996 21.665H5.99996C5.8269 21.665 5.76012 21.7153 5.73769 21.7377ZM22 21.665C21.8269 21.665 21.7601 21.7153 21.7377 21.7377C21.7153 21.7601 21.665 21.8269 21.665 22V26C21.665 26.173 21.7153 26.2398 21.7377 26.2622C21.7601 26.2847 21.8269 26.335 22 26.335H26C26.173 26.335 26.2398 26.2847 26.2622 26.2622C26.2847 26.2398 26.335 26.173 26.335 26V22C26.335 21.8269 26.2847 21.7601 26.2622 21.7377C26.2398 21.7153 26.173 21.665 26 21.665H22Z" fill="#000000" class="bmwfcol"/><title>hierarchy_lt_48</title></svg>