<svg width="48" height="48" viewBox="0 0 32 32" xmlns="http://www.w3.org/2000/svg"><path d="M29.5277 15H28.1087L26.8684 11.665H21.1417L19.9014 15H18.4824L22.9452 3H25.065L29.5277 15ZM26.3738 10.335L24.0051 3.96559L21.6363 10.335H26.3738Z" fill="#000000" class="bmwfcol"/><path d="M28.3049 16.5C28.3258 16.6795 28.3355 16.8471 28.3355 17C28.3355 18.0856 27.8471 19.9159 26.325 21.4725C24.8205 23.0112 22.2529 24.335 18.0004 24.335H16.2097C15.2118 22.2307 14.6654 19.7617 14.6654 17C14.6654 14.2382 15.2118 11.7692 16.2097 9.66496H18.0004C18.2872 9.66496 18.5663 9.67098 18.8379 9.68268L19.2863 8.37479C18.8727 8.34855 18.4441 8.33496 18.0002 8.33496H15.3881L15.2031 8.69815C13.9867 11.0864 13.3354 13.8913 13.3354 17C13.3354 20.1086 13.9867 22.9136 15.2031 25.3018L15.3881 25.665H18.0004C22.548 25.665 25.4804 24.2387 27.2759 22.4024C29.0538 20.5841 29.6655 18.4144 29.6655 17C29.6655 16.8422 29.6578 16.675 29.6419 16.5H28.3049Z" fill="#000000" class="bmwfcol"/><path d="M12.4927 11.665H2.00049V10.335H12.8908C12.7427 10.7696 12.61 11.2131 12.4927 11.665Z" fill="#000000" class="bmwfcol"/><path d="M2.00049 15.665H11.8747C11.9007 15.2158 11.9399 14.7724 11.9922 14.335H2.00049V15.665Z" fill="#000000" class="bmwfcol"/><path d="M11.9922 19.665H2.00049V18.335H11.8747C11.9007 18.7841 11.9399 19.2276 11.9922 19.665Z" fill="#000000" class="bmwfcol"/><path d="M12.8908 23.665H2.00049V22.335H12.4927C12.61 22.7868 12.7427 23.2303 12.8908 23.665Z" fill="#000000" class="bmwfcol"/><title>high-beam-assistant_lt_48</title></svg>