<svg width="48" height="48" viewBox="0 0 32 32" xmlns="http://www.w3.org/2000/svg"><path d="M6.84341 6.82973C9.0849 4.58824 12.2625 3.33496 16.0136 3.33496C19.7648 3.33496 22.9424 4.58824 25.1839 6.82973C27.4254 9.07123 28.6786 12.2488 28.6786 16C28.6786 19.7511 27.4254 22.9287 25.1839 25.1702C22.9424 27.4117 19.7648 28.665 16.0136 28.665C12.2625 28.665 9.0849 27.4117 6.84341 25.1702C4.60191 22.9287 3.34863 19.7511 3.34863 16C3.34863 12.2488 4.60191 9.07123 6.84341 6.82973ZM16.6786 18V9.99996H15.3486V18H16.6786ZM16.6786 20H15.3486V22H16.6786V20Z" fill="#000000" class="bmwfcol"/><title>highlight-filled_lt_48</title></svg>