<svg width="48" height="48" viewBox="0 0 32 32" xmlns="http://www.w3.org/2000/svg"><path d="M8.40856 3.22016L8.24111 3.24778C7.27859 3.40655 6.40761 3.64971 5.89326 4.03547L5.8918 4.03656C5.49445 4.32895 5.26575 4.69325 5.15227 5.07738C5.42573 5.06777 5.78939 5.05713 6.11122 5.05713C7.14607 5.05713 7.82161 5.25922 8.27548 5.74713C8.6976 6.20258 8.87574 6.82425 8.87574 7.49363C8.87574 8.10369 8.75214 8.74191 8.33519 9.25833C7.8901 9.82506 7.22808 10.119 6.24044 10.119C5.29054 10.119 4.61229 9.87936 4.14319 9.26505C3.72682 8.7172 3.56538 7.94897 3.56538 7.05627C3.56538 5.63516 3.73928 4.14853 4.77494 3.21964L4.77572 3.21894C5.61643 2.47281 6.86839 2.10829 8.18133 1.92789L8.40856 1.89667V3.22016ZM7.24021 8.4486C7.44468 8.20296 7.51156 7.89145 7.51156 7.49363C7.51156 7.13186 7.4531 6.85973 7.25925 6.65813L7.25493 6.65363C7.04325 6.41927 6.69699 6.35173 6.02176 6.35173C5.64851 6.35173 5.22946 6.36456 4.95098 6.37473C4.93543 6.56822 4.92956 6.79423 4.92956 7.13579C4.92956 7.76931 4.99876 8.10854 5.19416 8.40648C5.3695 8.66466 5.71525 8.81445 6.24044 8.81445C6.73422 8.81445 7.02403 8.70452 7.24021 8.4486Z" fill="#000000" class="bmwfcol"/><path d="M30 13.665H2V12.335H30V13.665Z" fill="#000000" class="bmwfcol"/><path d="M30 27.665H2V26.335H30V27.665Z" fill="#000000" class="bmwfcol"/><path d="M29.665 9.66501L18.335 9.66501V5.72456L18.5424 5.51719C18.7817 5.27788 18.9795 5.08 19.1489 4.92759C19.3226 4.77124 19.4993 4.63186 19.7026 4.53021C20.0965 4.33326 20.498 4.33406 20.9176 4.3349C20.945 4.33495 20.9725 4.33501 21 4.33501H29.665V9.66501ZM28.335 5.66501H21C20.4495 5.66501 20.3778 5.67961 20.2974 5.7198C20.2507 5.74315 20.1774 5.79127 20.0386 5.91617C19.9374 6.00727 19.819 6.1227 19.665 6.27582V8.33501H28.335V5.66501Z" fill="#000000" class="bmwfcol"/><path d="M10.665 17.665V22.335H13.335V17.665H12.335V17.165H11.665V17.665H10.665ZM13.665 16.335H14.665V23.665H9.335V16.335H10.335V15.835H13.665V16.335Z" fill="#000000" class="bmwfcol"/><path d="M17.665 17.665V22.335H20.335V17.665H19.335V17.165H18.665V17.665H17.665ZM20.665 16.335H21.665V23.665H16.335V16.335H17.335V15.835H20.665V16.335Z" fill="#000000" class="bmwfcol"/><path d="M24.665 17.665V22.335H27.335V17.665H26.335V17.165H25.665V17.665H24.665ZM27.665 16.335H28.665V23.665H23.335V16.335H24.335V15.835H27.665V16.335Z" fill="#000000" class="bmwfcol"/><path d="M3.665 17.665V22.335H6.335V17.665H5.335V17.165H4.665V17.665H3.665ZM6.665 16.335H7.665V23.665H2.335V16.335H3.335V15.835H6.665V16.335Z" fill="#000000" class="bmwfcol"/><title>battery-module-gen-6_lt_48</title></svg>