<svg width="48" height="48" viewBox="0 0 32 32" xmlns="http://www.w3.org/2000/svg"><path d="M16.6786 9.99996V18H15.3486V9.99996H16.6786ZM16.6786 20V22H15.3486V20H16.6786Z" fill="#000000" class="bmwfcol"/><path d="M7.78386 7.77019C5.82536 9.72869 4.67863 12.5511 4.67863 16C4.67863 19.4488 5.82536 22.2712 7.78386 24.2297C9.74236 26.1882 12.5648 27.335 16.0136 27.335C19.4625 27.335 22.2849 26.1882 24.2434 24.2297C26.2019 22.2712 27.3486 19.4488 27.3486 16C27.3486 12.5511 26.2019 9.72869 24.2434 7.77019C22.2849 5.81169 19.4625 4.66496 16.0136 4.66496C12.5648 4.66496 9.74236 5.81169 7.78386 7.77019ZM6.84341 6.82973C9.0849 4.58824 12.2625 3.33496 16.0136 3.33496C19.7648 3.33496 22.9424 4.58824 25.1839 6.82973C27.4254 9.07123 28.6786 12.2488 28.6786 16C28.6786 19.7511 27.4254 22.9287 25.1839 25.1702C22.9424 27.4117 19.7648 28.665 16.0136 28.665C12.2625 28.665 9.0849 27.4117 6.84341 25.1702C4.60191 22.9287 3.34863 19.7511 3.34863 16C3.34863 12.2488 4.60191 9.07123 6.84341 6.82973Z" fill="#000000" class="bmwfcol"/><title>highlight_lt_48</title></svg>