<svg width="48" height="48" viewBox="0 0 32 32" xmlns="http://www.w3.org/2000/svg"><path d="M28.335 10.665V13.665H29.665V9.335H24C22.9274 9.335 22.1625 9.472 21.3304 10.0015C20.607 10.4618 19.8417 11.218 18.7245 12.335H2.33496L2.33496 13.665H19.2754L19.4702 13.4702C20.7457 12.1947 21.4342 11.5119 22.0445 11.1235C22.5875 10.778 23.0726 10.665 24 10.665H28.335Z" fill="#000000" class="bmwfcol"/><path d="M3.33496 16.335H7.66496V17.335H9.33496V16.335H13.665V17.335H14.665V23.665H2.33496V17.335H3.33496V16.335ZM3.66496 18.665V22.335H13.335V18.665H12.335V17.665H10.665V18.665H6.33496V17.665H4.66496V18.665H3.66496Z" fill="#000000" class="bmwfcol"/><path d="M18.335 16.335H22.665V17.335H24.335V16.335H28.665V17.335H29.665V23.665H17.335V17.335H18.335V16.335ZM18.665 18.665V22.335H28.335V18.665H27.335V17.665H25.665V18.665H21.335V17.665H19.665V18.665H18.665Z" fill="#000000" class="bmwfcol"/><path d="M2.33496 26.335H29.665V27.665H2.33496V26.335Z" fill="#000000" class="bmwfcol"/><path d="M2.59516 9.88854V8.54455L2.83224 8.58928C3.35974 8.68881 4.02876 8.8045 4.62412 8.8045C5.18376 8.8045 5.53093 8.70656 5.7613 8.46922C5.98356 8.22978 6.07416 7.94754 6.07416 7.5135C6.07416 7.10911 5.97442 6.83376 5.73425 6.64782L5.73111 6.64539C5.61227 6.54956 5.45196 6.47953 5.18819 6.43461C4.9213 6.38916 4.56277 6.3716 4.05754 6.3716H2.7045V2.05524H7.21966V3.36972H4.0488V5.05712H4.57442C5.52131 5.05712 6.15832 5.23988 6.5949 5.57571L6.59639 5.57687C7.16344 6.02161 7.43834 6.74314 7.43834 7.50356C7.43834 8.23388 7.24992 8.86247 6.82143 9.3459L6.82028 9.3472C6.30915 9.91387 5.58583 10.119 4.66388 10.119C3.93906 10.119 3.27763 10.0067 2.76105 9.91725L2.59516 9.88854Z" fill="#000000" class="bmwfcol"/><title>battery-module-gen-5_lt_48</title></svg>