<svg width="48" height="48" viewBox="0 0 32 32" xmlns="http://www.w3.org/2000/svg"><path d="M4.99952 10.9405L11.4697 4.47024L10.5293 3.52979L4.99952 9.05956L2.46975 6.52979L1.5293 7.47024L4.99952 10.9405Z" fill="#000000" class="bmwfcol"/><path d="M24.0984 8.47163C25.0353 8.64948 25.8494 9.14574 26.664 9.61605L26.6637 12.2755L26.4434 12.4958C25.9495 12.99 25.4571 13.3865 24.7541 13.5271C24.0639 13.6651 23.0097 13.6651 21.1433 13.665L14.8548 13.665C12.9882 13.6651 11.9338 13.6651 11.2436 13.5271C10.8535 13.4491 10.5479 13.3234 10.2611 13.1249C9.91603 12.886 9.62957 12.571 9.33398 12.2754V10.4897L9.82687 10.3577C13.5525 9.35938 15.5824 8.85083 17.0593 8.59475C18.3971 8.36279 19.7334 8.335 21.0875 8.33496C22.505 8.33491 23.378 8.33487 24.0984 8.47163ZM23.8504 9.7783C23.2688 9.66789 22.5289 9.66497 20.9987 9.66497C19.5021 9.66497 18.6676 9.66574 17.2865 9.9052C15.9427 10.1382 14.0854 10.597 10.664 11.5105C10.664 11.7709 10.801 11.8811 11.0181 12.0314C11.1376 12.1141 11.2695 12.1759 11.5044 12.2229C12.0465 12.3313 12.9559 12.335 14.999 12.335L20.9987 12.335C23.0419 12.335 23.9512 12.3313 24.4933 12.2229C24.8449 12.1526 25.0831 11.9679 25.3338 11.723L25.3339 10.3866C24.6889 10.0262 24.3154 9.86657 23.8504 9.7783Z" fill="#000000" class="bmwfcol"/><path d="M18.999 15.335C17.6008 15.3349 16.1584 15.2932 14.8154 15.7446C13.6107 16.1496 12.4401 16.9348 10.7331 18.3557C7.6325 18.6268 5.99083 18.7723 4.83683 19.0287C3.55734 19.3131 2.45617 19.9683 1.33423 20.616L1.33398 25.0136C2.22397 25.2521 3.12614 25.5667 4.04906 25.6491C4.50901 26.829 5.65636 27.665 6.99898 27.665C8.33558 27.665 9.47866 26.8364 9.94268 25.665H21.0553C21.5193 26.8364 22.6624 27.665 23.999 27.665C25.3361 27.665 26.4795 26.8358 26.9432 25.6637C28.365 25.6496 29.4481 25.086 30.6643 24.3839L30.664 21.7245C30.1579 21.2184 29.664 20.7497 29.664 19.9999L29.6639 18.3906L27.4366 18.1957C26.1274 17.4374 24.8197 16.6403 23.4047 16.0913C22.0965 15.5838 20.7751 15.335 18.999 15.335ZM27.1595 24.3292C27.0707 22.6606 25.6897 21.335 23.999 21.335C22.3063 21.335 20.924 22.6637 20.8382 24.335H10.1598C10.0739 22.6637 8.69162 21.335 6.99898 21.335C5.32628 21.335 3.95664 22.6326 3.84178 24.2761C3.59653 24.2289 3.24653 24.1448 2.66404 23.9919L2.66419 21.3843C3.67784 20.8026 4.20675 20.5312 5.12539 20.3271C7.12497 19.8826 9.23219 19.822 11.266 19.6442C12.4643 18.6387 13.7301 17.5126 15.2392 17.0053C16.2316 16.6717 17.2202 16.665 18.999 16.665C20.6315 16.665 21.7873 16.8904 22.9236 17.3313C24.3658 17.8908 25.6916 18.7224 27.0263 19.4949L28.334 19.6093L28.334 20.0155C28.3338 20.9175 28.7263 21.6186 29.334 22.269L29.3342 23.6136C28.6813 23.9801 28.316 24.1456 27.9874 24.2317C27.7446 24.2952 27.5085 24.3198 27.1595 24.3292ZM6.99898 22.665C8.01243 22.665 8.83398 23.4865 8.83398 24.5C8.83398 25.5134 8.01243 26.335 6.99898 26.335C5.98554 26.335 5.16398 25.5134 5.16398 24.5C5.16398 23.4865 5.98554 22.665 6.99898 22.665ZM23.999 22.665C25.0124 22.665 25.834 23.4865 25.834 24.5C25.834 25.5134 25.0124 26.335 23.999 26.335C22.9855 26.335 22.164 25.5134 22.164 24.5C22.164 23.4865 22.9855 22.665 23.999 22.665Z" fill="#000000" class="bmwfcol"/><title>holiday-check_lt_48</title></svg>