<svg width="48" height="48" viewBox="0 0 32 32" xmlns="http://www.w3.org/2000/svg"><path d="M15.9999 4.13184L25.5323 12.1303C26.4313 12.8837 27.0623 13.4127 27.3742 14.2623C27.5327 14.6941 27.6001 15.1765 27.6327 15.7569C27.6649 16.3319 27.6649 17.0542 27.6649 17.9789V27.6649H4.33496V17.979C4.33496 17.0542 4.33496 16.3319 4.36726 15.7569C4.39986 15.1765 4.46719 14.6941 4.62569 14.2623C4.93757 13.4127 5.56861 12.8838 6.46756 12.1303L15.9999 4.13184ZM15.9999 5.86802L7.4274 13.0611C6.38228 13.9381 6.05036 14.2408 5.87423 14.7206C5.78274 14.9698 5.72507 15.2991 5.69517 15.8315C5.66521 16.3648 5.66496 17.0497 5.66496 17.9999V26.3349H26.3349V17.9999C26.3349 17.0497 26.3347 16.3648 26.3047 15.8315C26.2749 15.2991 26.2172 14.9698 26.1257 14.7206C25.9495 14.2408 25.6177 13.9381 24.5725 13.0611L15.9999 5.86802Z" fill="#000000" class="bmwfcol"/><title>home_lt_48</title></svg>