<svg width="48" height="48" viewBox="0 0 32 32" xmlns="http://www.w3.org/2000/svg"><path d="M12.502 5.2349C12.6652 4.90844 12.6659 4.65896 12.6659 4.5V3H11.3359V4.5C11.3359 4.56633 11.3347 4.57732 11.3332 4.58622C11.3328 4.58878 11.3305 4.60398 11.3124 4.6401C11.2933 4.67822 11.2601 4.73339 11.2019 4.81069C11.0258 4.68977 10.8202 4.56206 10.5813 4.42409L10.427 4.335L9.57484 4.335L9.42052 4.42409C9.18158 4.56205 8.97602 4.68975 8.79999 4.81066C8.74179 4.73338 8.70854 4.67821 8.68948 4.6401C8.67142 4.60399 8.66901 4.58855 8.66861 4.58599C8.66712 4.57708 8.66594 4.56633 8.66594 4.5V3H7.33594V4.5C7.33594 4.65896 7.33666 4.90844 7.49989 5.2349C7.58889 5.4129 7.71954 5.60141 7.9014 5.81401C7.89583 5.83115 7.89064 5.84839 7.88585 5.86574C7.8466 6.00769 7.84035 6.14105 7.83769 6.19773L7.83694 6.21292C7.83392 6.26696 7.83432 6.58728 7.8347 6.84651L7.83667 7.65806L8.01149 7.8481C8.06044 7.9013 8.11145 7.95197 8.16441 8.00009C8.13599 8.02592 8.10811 8.05248 8.08081 8.07978L4.51196 11.6486C4.06421 12.0963 3.83594 12.7114 3.83594 13.3875C3.83594 14.0637 4.06421 14.6788 4.51196 15.1265C4.95971 15.5743 5.57482 15.8025 6.25094 15.8025C6.85143 15.8025 7.4038 15.6225 7.83354 15.2685C7.88431 15.364 7.93901 15.4559 7.99764 15.5439C8.45267 16.2264 9.14751 16.665 10.0009 16.665C10.8544 16.665 11.5492 16.2264 12.0042 15.5439C12.0629 15.4559 12.1176 15.364 12.1683 15.2685C12.5981 15.6225 13.1504 15.8025 13.7509 15.8025C14.4271 15.8025 15.0422 15.5743 15.4899 15.1265C15.9377 14.6788 16.1659 14.0637 16.1659 13.3875C16.1659 12.7114 15.9377 12.0963 15.4899 11.6486L11.9319 8.09054C11.9283 8.08694 11.9248 8.08336 11.9212 8.07978C11.8939 8.05245 11.866 8.02586 11.8375 8C11.8904 7.95191 11.9414 7.90127 11.9903 7.8481L12.1651 7.65806L12.1671 6.84651C12.1675 6.58728 12.1679 6.26696 12.1649 6.21292L12.1641 6.19773C12.1615 6.14105 12.1552 6.00769 12.116 5.86574C12.1112 5.84841 12.106 5.83119 12.1004 5.81407C12.2823 5.60144 12.413 5.41291 12.502 5.2349ZM10.9807 9.02023L10.9878 9.02733C11.1925 9.23602 11.3359 9.55619 11.3359 10V10.835H8.66603L8.66607 10C8.66607 9.55111 8.81279 9.22872 9.02128 9.02022C9.22977 8.81172 9.55215 8.665 10.001 8.665C10.4498 8.665 10.7722 8.81174 10.9807 9.02023ZM12.6659 10.7055L14.5495 12.589C14.7142 12.7538 14.8359 13.0137 14.8359 13.3875C14.8359 13.7614 14.7142 14.0213 14.5495 14.1861C14.3847 14.3508 14.1248 14.4725 13.7509 14.4725C13.3771 14.4725 13.1172 14.3508 12.9524 14.1861C12.7877 14.0213 12.6659 13.7614 12.6659 13.3875V13.0036C12.6659 13.0024 12.6659 13.0012 12.6659 13V10.7055ZM11.3359 12.165L11.3359 13.0039C11.3353 13.8133 11.1539 14.4218 10.8976 14.8061C10.6526 15.1736 10.3475 15.335 10.0009 15.335C9.65441 15.335 9.34925 15.1736 9.10426 14.8061C8.84761 14.4211 8.66594 13.8113 8.66594 13L8.66597 12.165H11.3359ZM5.45241 12.589L7.33604 10.7054L7.33594 13.3875C7.33594 13.7614 7.21421 14.0213 7.04946 14.1861C6.88471 14.3508 6.62482 14.4725 6.25094 14.4725C5.87706 14.4725 5.61717 14.3508 5.45241 14.1861C5.28766 14.0213 5.16594 13.7614 5.16594 13.3875C5.16594 13.0137 5.28766 12.7538 5.45241 12.589ZM9.1652 7.1004L9.1647 6.8446C9.16449 6.7049 9.16439 6.56396 9.16454 6.45459C9.16463 6.39405 9.16482 6.35091 9.16495 6.32344C9.16509 6.29362 9.16514 6.28225 9.16487 6.28708C9.16651 6.25773 9.16768 6.23931 9.16843 6.22817C9.17075 6.22508 9.17365 6.22137 9.17722 6.21702C9.24445 6.13506 9.43286 5.96463 9.93383 5.665H10.068C10.569 5.96463 10.7574 6.13506 10.8246 6.21702C10.8282 6.22137 10.8311 6.22508 10.8334 6.22817C10.8341 6.23926 10.8353 6.25756 10.8369 6.28669C10.8367 6.28295 10.8367 6.29452 10.8369 6.32344C10.837 6.35092 10.8372 6.39406 10.8373 6.45459C10.8374 6.56396 10.8373 6.7049 10.8371 6.8446L10.8366 7.1004C10.6327 7.24319 10.3563 7.335 10.0009 7.335C9.64553 7.335 9.36907 7.24319 9.1652 7.1004Z" fill="#000000" class="bmwfcol"/><path d="M16.001 19.8496V19.8527L12.0009 17.5433L7.33594 20.2367V25.6233L12.0009 28.3167L16.0009 26.0073L20.0009 28.3167L24.6659 25.6233V21.0015L28.6659 18.6921V13.3054L24.6659 10.996V6.37547L20.0009 3.68213L15.3359 6.37547V9.00006H16.6659V7.14334L20.0009 5.21788L23.3359 7.14334V10.9943L20.0009 12.9197L18.001 11.7651V13.3025L19.3359 14.0733V17.9242L16.001 19.8496ZM24.0009 19.8496L20.6659 17.9242V14.0733L24.0009 12.1478L27.3359 14.0733V17.9242L24.0009 19.8496ZM16.6659 24.8555V21.0045L20.0009 19.0791L23.3359 21.0045V24.8555L20.0009 26.7809L16.6659 24.8555ZM12.0009 19.0791L15.3359 21.0045V24.8555L12.0009 26.7809L8.66594 24.8555V21.0045L12.0009 19.0791Z" fill="#000000" class="bmwfcol"/><title>honeycombs_and_bee_lt_48</title></svg>