<svg width="48" height="48" viewBox="0 0 32 32" xmlns="http://www.w3.org/2000/svg"><path d="M24.0009 29.165C22.781 29.165 21.7234 28.7852 20.9695 28.0314C20.2157 27.2775 19.8359 26.2199 19.8359 25C19.8359 23.6574 20.6826 22.4427 21.4315 21.4151C21.5032 21.3167 21.5744 21.2196 21.6448 21.1235C22.3695 20.1345 23.0141 19.2549 23.2611 18.3287L23.3927 17.835H24.609L24.7406 18.3287C24.9876 19.2549 25.6319 20.134 26.3566 21.123C26.427 21.2191 26.4985 21.3167 26.5702 21.4151C27.3192 22.4427 28.1659 23.6574 28.1659 25C28.1659 26.2199 27.7861 27.2775 27.0322 28.0314C26.2784 28.7852 25.2207 29.165 24.0009 29.165ZM21.1659 25C21.1659 25.9431 21.4546 26.6355 21.91 27.0909C22.3654 27.5463 23.0577 27.835 24.0009 27.835C24.944 27.835 25.6364 27.5463 26.0918 27.0909C26.5472 26.6355 26.8359 25.9431 26.8359 25C26.8359 24.1605 26.2923 23.2919 25.4954 22.1984C25.4216 22.0971 25.3456 21.9939 25.2683 21.8889C24.8405 21.308 24.3717 20.6713 24.0009 19.991C23.6301 20.6713 23.1612 21.308 22.7335 21.8889C22.6561 21.9939 22.5802 22.0971 22.5063 22.1984C21.7094 23.2919 21.1659 24.1605 21.1659 25Z" fill="#000000" class="bmwfcol"/><path d="M27.1039 19.5954L28.6639 18.6947V13.308L24.6659 10.9998L24.6659 6.37675L20.0009 3.68341L16.0009 5.99281L12.0009 3.68341L7.33594 6.37675L7.33594 10.9986L3.33594 13.308L3.33594 18.6947L7.33391 21.0029L7.33391 25.6246L11.9989 28.318L16.6639 25.6246L16.6639 21.0041L19.9989 19.0786L20.8967 19.597C21.2081 19.1581 21.4439 18.7995 21.6068 18.4712L20.6639 17.9268L20.6639 14.0759L23.9989 12.1504L27.3339 14.0759V17.9268L26.3941 18.4694C26.5568 18.7978 26.7925 19.1564 27.1039 19.5954ZM12.6659 14.0747L15.9989 12.1504L19.3339 14.0759L19.3339 17.9268L15.9989 19.8523L12.6659 17.928V14.0747ZM8.00094 12.1504L11.3339 14.0747L11.3339 17.928L8.00094 19.8523L4.66594 17.9268L4.66594 14.0759L8.00094 12.1504ZM15.3339 21.0058L15.3339 24.8567L11.9989 26.7822L8.66391 24.8567L8.66391 21.0058L11.9989 19.0804L15.3339 21.0058ZM16.6659 10.9956V7.14463L20.0009 5.21916L23.3359 7.14463L23.3359 10.9956L20.0009 12.921L16.6659 10.9956ZM12.0009 5.21916L15.3359 7.14463V10.9956L12.0009 12.921L8.66594 10.9956L8.66594 7.14463L12.0009 5.21916Z" fill="#000000" class="bmwfcol"/><title>honeycombs_and_drop_lt_48</title></svg>