<svg width="48" height="48" viewBox="0 0 32 32" xmlns="http://www.w3.org/2000/svg"><path d="M24.665 3.33496H7.33496V3.99996C7.33496 6.51409 7.45342 8.11719 8.63482 9.88234C9.64085 11.3855 11.4137 12.9948 14.4253 15.5428C11.3201 18.6015 9.53366 20.4334 8.54431 22.0829C7.45556 23.8982 7.33496 25.4815 7.33496 28V28.665H24.665V28C24.665 25.4863 24.5508 23.917 23.3696 22.1686C22.3653 20.6821 20.5891 19.0711 17.5632 16.4657C20.675 13.4019 22.4646 11.5682 23.4552 9.9171C24.5444 8.10182 24.665 6.51838 24.665 3.99996V3.33496ZM9.68489 22.767C10.5804 21.2739 12.2475 19.5545 15.4467 16.4037C19.2372 19.6528 21.2702 21.437 22.2675 22.9132C23.1194 24.1741 23.304 25.2859 23.3311 27.335H8.66887C8.69579 25.2798 8.87758 24.113 9.68489 22.767ZM22.3147 9.23282C21.4189 10.7259 19.7511 12.4453 16.5506 15.5961C12.7695 12.42 10.7375 10.6328 9.7401 9.14258C8.8846 7.86436 8.6966 6.72008 8.66895 4.66496H23.3311C23.3041 6.72015 23.1223 7.88684 22.3147 9.23282Z" fill="#000000" class="bmwfcol"/><title>hourglass_lt_48</title></svg>