<svg width="48" height="48" viewBox="0 0 32 32" xmlns="http://www.w3.org/2000/svg"><path d="M26.3057 15.8316C26.3169 16.0312 26.324 16.252 26.3284 16.5H27.6586C27.6539 16.2278 27.6462 15.9812 27.6336 15.757C27.601 15.1766 27.5337 14.6942 27.3752 14.2624C27.0633 13.4128 26.4323 12.8839 25.5333 12.1304L16.0009 4.13196L6.46854 12.1304C5.56959 12.8839 4.93854 13.4128 4.62667 14.2624C4.46816 14.6942 4.40084 15.1766 4.36824 15.757C4.33594 16.332 4.33594 17.0544 4.33594 17.9791V27.6651H19.5V26.335H5.66594L5.66594 18.0001C5.66594 17.0499 5.66619 16.3649 5.69614 15.8316C5.72604 15.2992 5.78372 14.9699 5.87521 14.7207C6.05133 14.2409 6.38325 13.9383 7.42839 13.0613L16.0009 5.86814L24.5735 13.0613C25.6186 13.9382 25.9505 14.2409 26.1267 14.7207C26.2182 14.9699 26.2758 15.2992 26.3057 15.8316Z" fill="#000000" class="bmwfcol"/><path d="M16.999 15.3351H15.334V17.0001C15.334 18.9512 15.9873 20.6288 17.1788 21.8203C18.3703 23.0118 20.0479 23.6651 21.999 23.6651H22.334V28.0001H23.664V24.6651H23.999C25.3501 24.6651 26.5277 24.2118 27.3692 23.3703C28.2107 22.5288 28.664 21.3512 28.664 20.0001V18.3351H26.999C25.6479 18.3351 24.4703 18.7884 23.6288 19.6299C23.5433 19.7153 23.4619 19.8041 23.3846 19.8963C23.0866 18.8386 22.5557 17.9163 21.8192 17.1799C20.6277 15.9884 18.9501 15.3351 16.999 15.3351ZM23.664 23.0001C23.664 21.9512 24.0107 21.1288 24.5692 20.5703C25.1277 20.0118 25.9501 19.6651 26.999 19.6651H27.334V20.0001C27.334 21.049 26.9873 21.8714 26.4288 22.4299C25.8703 22.9884 25.0479 23.3351 23.999 23.3351H23.664V23.0001ZM16.664 17.0001V16.6651H16.999C18.6479 16.6651 19.9703 17.2118 20.8788 18.1203C21.7873 19.0288 22.334 20.3512 22.334 22.0001V22.3351H21.999C20.3501 22.3351 19.0277 21.7884 18.1192 20.8799C17.2107 19.9714 16.664 18.649 16.664 17.0001Z" fill="#000000" class="bmwfcol"/><title>house_and_plant_lt_48</title></svg>