<svg width="48" height="48" viewBox="0 0 32 32" xmlns="http://www.w3.org/2000/svg"><path d="M23.7118 10.4409C24.377 10.9984 24.8906 11.4287 25.2134 12H23.4825C23.2965 11.8312 23.0599 11.6303 22.7553 11.3746L15.0009 4.86802L7.24657 11.3746C6.29235 12.1753 6.00588 12.4398 5.85248 12.8577C5.77235 13.076 5.72036 13.3684 5.6933 13.8502C5.66619 14.3329 5.66594 14.9536 5.66594 15.8181L5.66594 23.3349H9.00098V24.6649H4.33594V15.7973C4.33594 14.9582 4.33594 14.3 4.36539 13.7756C4.39515 13.2458 4.4568 12.8002 4.60394 12.3994C4.89315 11.6115 5.47887 11.1207 6.2901 10.4409L15.0009 3.13184L23.7118 10.4409Z" fill="#000000" class="bmwfcol"/><path d="M12.6659 16.5C12.6659 16.2011 12.7627 16.0037 12.8837 15.8827C13.0047 15.7617 13.2021 15.665 13.5009 15.665C13.7998 15.665 13.9972 15.7617 14.1182 15.8827C14.2392 16.0037 14.3359 16.2011 14.3359 16.5V25.5C14.3359 26.1011 14.5392 26.6537 14.9432 27.0577C15.3472 27.4617 15.8998 27.665 16.5009 27.665C17.1021 27.665 17.6547 27.4617 18.0587 27.0577C18.4627 26.6537 18.6659 26.1011 18.6659 25.5V16.5C18.6659 16.2011 18.7627 16.0037 18.8837 15.8827C19.0047 15.7617 19.2021 15.665 19.5009 15.665C19.7998 15.665 19.9972 15.7617 20.1182 15.8827C20.2392 16.0037 20.3359 16.2011 20.3359 16.5V25.5C20.3359 26.1011 20.5392 26.6537 20.9432 27.0577C21.3472 27.4617 21.8998 27.665 22.5009 27.665C23.1021 27.665 23.6547 27.4617 24.0587 27.0577C24.4627 26.6537 24.6659 26.1011 24.6659 25.5V16.5C24.6659 16.2011 24.7627 16.0037 24.8837 15.8827C25.0047 15.7617 25.2021 15.665 25.5009 15.665C25.7998 15.665 25.9972 15.7617 26.1182 15.8827C26.2392 16.0037 26.3359 16.2011 26.3359 16.5V27H27.6659V24.665H30.001V23.335H27.6659V16.5C27.6659 15.8988 27.4627 15.3462 27.0587 14.9422C26.6547 14.5382 26.1021 14.335 25.5009 14.335C24.8998 14.335 24.3472 14.5382 23.9432 14.9422C23.5392 15.3462 23.3359 15.8988 23.3359 16.5V25.5C23.3359 25.7988 23.2392 25.9962 23.1182 26.1172C22.9972 26.2382 22.7998 26.335 22.5009 26.335C22.2021 26.335 22.0047 26.2382 21.8837 26.1172C21.7627 25.9962 21.6659 25.7988 21.6659 25.5V16.5C21.6659 15.8988 21.4627 15.3462 21.0587 14.9422C20.6547 14.5382 20.1021 14.335 19.5009 14.335C18.8998 14.335 18.3472 14.5382 17.9432 14.9422C17.5392 15.3462 17.3359 15.8988 17.3359 16.5V25.5C17.3359 25.7988 17.2392 25.9962 17.1182 26.1172C16.9972 26.2382 16.7998 26.335 16.5009 26.335C16.2021 26.335 16.0047 26.2382 15.8837 26.1172C15.7627 25.9962 15.6659 25.7988 15.6659 25.5V16.5C15.6659 15.8988 15.4627 15.3462 15.0587 14.9422C14.6547 14.5382 14.1021 14.335 13.5009 14.335C12.8998 14.335 12.3472 14.5382 11.9432 14.9422C11.5392 15.3462 11.3359 15.8988 11.3359 16.5V17.335H9.00098V18.665H11.3359V27H12.6659V16.5Z" fill="#000000" class="bmwfcol"/><title>house_and_radiator_lt_48</title></svg>