<svg width="48" height="48" viewBox="0 0 32 32" xmlns="http://www.w3.org/2000/svg"><path d="M12.0062 10.5552H10.652V18.4499H12.0062V14.961H15.4331V18.4499H16.7874V10.5552H15.4331V13.6366H12.0062V10.5552Z" fill="#000000" class="bmwfcol"/><path d="M19.8858 15.0679C19.3235 15.0679 18.7175 15.2023 18.4358 15.2727L18.2843 15.3106V16.5208L18.5348 16.4555C18.7662 16.3951 19.3586 16.2433 19.856 16.2433C20.0989 16.2433 20.1996 16.292 20.2414 16.3338C20.2858 16.3782 20.312 16.4325 20.312 16.5403C20.312 16.6688 20.2527 16.805 19.9134 17.1443C19.5316 17.5261 18.7717 18.1974 18.254 18.6454L18.1849 18.7052V19.7421H21.7756V18.5768H20.0984C20.3848 18.3206 20.7241 18.0022 21.0292 17.6573C21.2043 17.4616 21.3365 17.2821 21.4231 17.0857C21.5112 16.8861 21.547 16.681 21.547 16.4409C21.547 16.0434 21.3885 15.6651 21.1072 15.4323C20.8102 15.1832 20.4002 15.0679 19.8858 15.0679Z" fill="#000000" class="bmwfcol"/><path d="M6.36154 6.33496H25.6403L25.7819 6.40662C28.8516 7.96015 30.6659 11.0701 30.6659 15C30.6659 18.9299 28.8516 22.0398 25.7819 23.5933L25.6403 23.665H22.6659V26H21.3359V23.665H10.6659V26H9.33594V23.665H6.36154L6.21995 23.5933C3.15024 22.0398 1.33594 18.9299 1.33594 15C1.33594 11.0701 3.15024 7.96015 6.21995 6.40662L6.36154 6.33496ZM6.68242 7.66496C4.19751 8.98668 2.66594 11.5684 2.66594 15C2.66594 18.4315 4.19751 21.0132 6.68242 22.335H25.3195C27.8044 21.0132 29.3359 18.4315 29.3359 15C29.3359 11.5684 27.8044 8.98668 25.3195 7.66496H6.68242Z" fill="#000000" class="bmwfcol"/><title>hydrogen_storage_lt_48</title></svg>