<svg width="48" height="48" viewBox="0 0 32 32" xmlns="http://www.w3.org/2000/svg"><path d="M13.7426 1.33496H15.0249L15.1599 1.39873C17.0541 2.29406 18.165 4.16408 18.165 6.49996V7.16411C18.2194 7.10449 18.2881 7.01909 18.3754 6.89558C18.5285 6.6788 18.7156 6.37817 18.9666 5.95324L19.3907 5.23549L19.9962 5.80846C21.075 6.82919 21.665 8.29518 21.665 9.99996C21.665 11.6511 21.1117 13.0787 20.0952 14.0952C19.0787 15.1117 17.6511 15.665 16 15.665C14.3488 15.665 12.9212 15.1117 11.9047 14.0952C10.8882 13.0787 10.335 11.6511 10.335 9.99996C10.335 8.25259 11.3546 6.80987 12.2126 5.63316L12.3585 5.43352C12.75 4.89827 13.1031 4.41547 13.374 3.93555C13.6752 3.4019 13.835 2.93758 13.835 2.49996C13.835 2.35018 13.8279 2.20508 13.8141 2.06484L13.7426 1.33496ZM15.1379 2.91537C15.0598 3.51762 14.8217 4.07654 14.5322 4.58937C14.2199 5.14255 13.8165 5.69356 13.4324 6.21824C13.3837 6.28484 13.3352 6.35103 13.2873 6.41676C12.3953 7.64005 11.665 8.74733 11.665 9.99996C11.665 11.3488 12.1117 12.4212 12.8452 13.1547C13.5787 13.8882 14.6511 14.335 16 14.335C17.3488 14.335 18.4212 13.8882 19.1547 13.1547C19.8882 12.4212 20.335 11.3488 20.335 9.99996C20.335 8.97059 20.0749 8.10199 19.625 7.42186C19.5684 7.50841 19.5142 7.58864 19.4618 7.66283C19.2775 7.92378 19.0926 8.14502 18.8806 8.31056C18.4238 8.66721 17.9541 8.66604 17.5606 8.66506L17.5 8.66496H16.835V6.49996C16.835 4.87679 16.1908 3.64193 15.1379 2.91537Z" fill="#000000" class="bmwfcol"/><path d="M19.9617 21.0552H18.6074V28.9499H19.9617V25.461H23.3886V28.9499H24.7428V21.0552H23.3886V24.1366H19.9617V21.0552Z" fill="#000000" class="bmwfcol"/><path d="M13.335 18.335H18V19.665H14.665V27C14.665 27.6106 14.8975 27.9394 15.2781 28.335H16V29.665H6V28.335H13.6354C13.4566 27.9772 13.335 27.5436 13.335 27V18.335Z" fill="#000000" class="bmwfcol"/><path d="M29.7311 29.0768H28.0538C28.3403 28.8206 28.6795 28.5022 28.9847 28.1573C29.1597 27.9616 29.2919 27.7821 29.3786 27.5857C29.4666 27.3861 29.5024 27.181 29.5024 26.9409C29.5024 26.5434 29.3439 26.165 29.0626 25.9323C28.7656 25.6832 28.3556 25.5679 27.8413 25.5679C27.279 25.5679 26.6729 25.7023 26.3912 25.7727L26.2397 25.8106V27.0208L26.4902 26.9555C26.7216 26.8951 27.314 26.7433 27.8114 26.7433C28.0543 26.7433 28.155 26.792 28.1968 26.8338C28.2413 26.8782 28.2675 26.9325 28.2675 27.0403C28.2675 27.1688 28.2081 27.305 27.8688 27.6443C27.4871 28.0261 26.7271 28.6974 26.2094 29.1454L26.1403 29.2052V30.2421H29.7311V29.0768Z" fill="#000000" class="bmwfcol"/><title>hydrogen_burner_lt_48</title></svg>