<svg width="48" height="48" viewBox="0 0 32 32" xmlns="http://www.w3.org/2000/svg"><path d="M27.6659 18V6.33496L23.6659 6.33496V3.99996C23.6659 3.55302 23.5262 3.11981 23.2037 2.79724C22.8811 2.47466 22.4479 2.33496 22.0009 2.33496H20.0009C19.554 2.33496 19.1208 2.47466 18.7982 2.79724C18.4756 3.11981 18.3359 3.55302 18.3359 3.99996V6.33496H13.6659V3.99996C13.6659 3.55302 13.5262 3.11981 13.2037 2.79724C12.8811 2.47466 12.4479 2.33496 12.0009 2.33496H10.0009C9.554 2.33496 9.12078 2.47466 8.79821 2.79724C8.47564 3.11981 8.33594 3.55302 8.33594 3.99996V6.33496H4.33594V21C4.33594 21.7569 4.57064 22.4401 5.06571 22.9352C5.56078 23.4303 6.244 23.665 7.00094 23.665H15.001V22.335H7.00094C6.51788 22.335 6.20109 22.1897 6.00616 21.9947C5.81123 21.7998 5.66594 21.483 5.66594 21V7.66496H8.33594V9.99996C8.33594 10.4469 8.47564 10.8801 8.79821 11.2027C9.12078 11.5253 9.554 11.665 10.0009 11.665H12.0009C12.4479 11.665 12.8811 11.5253 13.2037 11.2027C13.5262 10.8801 13.6659 10.4469 13.6659 9.99996V7.66496H18.3359V9.99996C18.3359 10.4469 18.4756 10.8801 18.7982 11.2027C19.1208 11.5253 19.554 11.665 20.0009 11.665H22.0009C22.4479 11.665 22.8811 11.5253 23.2037 11.2027C23.5262 10.8801 23.6659 10.4469 23.6659 9.99996V7.66496L26.3359 7.66496V18H27.6659ZM9.66594 3.99996C9.66594 3.8269 9.71624 3.76012 9.73866 3.73769C9.76109 3.71526 9.82788 3.66496 10.0009 3.66496H12.0009C12.174 3.66496 12.2408 3.71526 12.2632 3.73769C12.2856 3.76012 12.3359 3.8269 12.3359 3.99996V9.99996C12.3359 10.173 12.2856 10.2398 12.2632 10.2622C12.2408 10.2847 12.174 10.335 12.0009 10.335H10.0009C9.82788 10.335 9.76109 10.2847 9.73866 10.2622C9.71623 10.2398 9.66594 10.173 9.66594 9.99996V3.99996ZM19.7387 3.73769C19.7611 3.71526 19.8279 3.66496 20.0009 3.66496H22.0009C22.174 3.66496 22.2408 3.71526 22.2632 3.73769C22.2856 3.76012 22.3359 3.8269 22.3359 3.99996V9.99996C22.3359 10.173 22.2856 10.2398 22.2632 10.2622C22.2408 10.2847 22.174 10.335 22.0009 10.335H20.0009C19.8279 10.335 19.7611 10.2847 19.7387 10.2622C19.7162 10.2398 19.6659 10.173 19.6659 9.99996V3.99996C19.6659 3.8269 19.7162 3.76012 19.7387 3.73769Z" fill="#000000" class="bmwfcol"/><path d="M10.336 17.665V20H11.666V17.665H14.001V16.335H11.666V14H10.336V16.335H8.00098V17.665H10.336Z" fill="#000000" class="bmwfcol"/><path d="M24.001 17.665H18.001V16.335H24.001V17.665Z" fill="#000000" class="bmwfcol"/><path d="M19.9626 20.0552H18.6084V27.9499H19.9626V24.461H23.3895V27.9499H24.7438V20.0552H23.3895V23.1366H19.9626V20.0552Z" fill="#000000" class="bmwfcol"/><path d="M28.0548 28.0768H29.732V29.2421H26.1413V28.2052L26.2104 28.1454C26.7281 27.6974 27.488 27.0261 27.8698 26.6443C28.2091 26.305 28.2684 26.1688 28.2684 26.0403C28.2684 25.9325 28.2422 25.8782 28.1978 25.8338C28.156 25.792 28.0553 25.7433 27.8124 25.7433C27.315 25.7433 26.7226 25.8951 26.4912 25.9555L26.2407 26.0208V24.8106L26.3922 24.7727C26.6739 24.7023 27.2799 24.5679 27.8422 24.5679C28.3565 24.5679 28.7666 24.6832 29.0635 24.9323C29.3449 25.165 29.5034 25.5434 29.5034 25.9409C29.5034 26.181 29.4676 26.3861 29.3795 26.5857C29.2929 26.7821 29.1607 26.9616 28.9857 27.1573C28.6805 27.5022 28.3412 27.8206 28.0548 28.0768Z" fill="#000000" class="bmwfcol"/><title>hydrogen_production_lt_48</title></svg>