<svg width="48" height="48" viewBox="0 0 32 32" xmlns="http://www.w3.org/2000/svg"><path d="M19.9617 4.05518H18.6074V11.9499H19.9617V8.461H23.3886V11.9499H24.7428V4.05518H23.3886V7.13658H19.9617V4.05518Z" fill="#000000" class="bmwfcol"/><path d="M27.8413 8.56794C27.279 8.56794 26.6729 8.70228 26.3912 8.77271L26.2397 8.81058V10.0208L26.4902 9.95546C26.7216 9.89508 27.314 9.74326 27.8114 9.74326C28.0543 9.74326 28.155 9.79196 28.1968 9.83378C28.2413 9.8782 28.2675 9.93251 28.2675 10.0403C28.2675 10.1688 28.2081 10.305 27.8688 10.6443C27.4871 11.0261 26.7271 11.6974 26.2094 12.1454L26.1403 12.2052V13.2421H29.7311V12.0768H28.0538C28.3403 11.8206 28.6795 11.5022 28.9847 11.1573C29.1597 10.9616 29.2919 10.7821 29.3786 10.5857C29.4666 10.3861 29.5024 10.181 29.5024 9.94086C29.5024 9.54337 29.3439 9.165 29.0626 8.93227C28.7656 8.6832 28.3556 8.56794 27.8413 8.56794Z" fill="#000000" class="bmwfcol"/><path d="M10 8.33496H2V9.66496H3.335V16C3.335 17.2048 3.74803 18.4169 4.66556 19.3344C5.5831 20.2519 6.79515 20.665 8 20.665H13.335V22H14.665V21.995H17.335V22H18.665V20.665L23 20.665C23.185 20.665 23.335 20.8149 23.335 21V26.335H22V27.665H30V26.335H28.665V20C28.665 18.7951 28.252 17.5831 27.3344 16.6655C26.4169 15.748 25.2049 15.335 24 15.335H18.665V14H18V13.995H14V14H13.335V15.335H9C8.81498 15.335 8.665 15.185 8.665 15V9.66496H10V8.33496ZM17.335 15.325L17.335 20.665L14.665 20.665V15.325H17.335ZM18.665 16.665H24C24.9041 16.665 25.7604 16.9724 26.394 17.606C27.0276 18.2396 27.335 19.0958 27.335 20V26.335H24.665V21C24.665 20.0804 23.9196 19.335 23 19.335H18.665V16.665ZM13.335 16.665V19.335H8C7.09586 19.335 6.23959 19.0275 5.60601 18.3939C4.97243 17.7604 4.665 16.9041 4.665 16V9.66496H7.335V15C7.335 15.9195 8.08045 16.665 9 16.665H13.335Z" fill="#000000" class="bmwfcol"/><title>hydrogen_pipeline_lt_48</title></svg>