<svg width="48" height="48" viewBox="0 0 32 32" xmlns="http://www.w3.org/2000/svg"><path d="M16.0002 5.99996C15.4479 5.99996 15.0002 6.44768 15.0002 6.99996C15.0002 7.55225 15.4479 7.99996 16.0002 7.99996C16.5525 7.99996 17.0002 7.55225 17.0002 6.99996C17.0002 6.44768 16.5525 5.99996 16.0002 5.99996Z" fill="#000000" class="bmwfcol"/><path d="M11.5002 14.335C10.8568 14.335 10.3352 14.8565 10.3352 15.5C10.3352 16.1434 10.8568 16.665 11.5002 16.665C12.1436 16.665 12.6652 16.1434 12.6652 15.5C12.6652 14.8565 12.1436 14.335 11.5002 14.335Z" fill="#000000" class="bmwfcol"/><path d="M20.5002 14.335C19.8568 14.335 19.3352 14.8565 19.3352 15.5C19.3352 16.1434 19.8568 16.665 20.5002 16.665C21.1436 16.665 21.6652 16.1434 21.6652 15.5C21.6652 14.8565 21.1436 14.335 20.5002 14.335Z" fill="#000000" class="bmwfcol"/><path d="M13.4896 21.3455C14.0498 21.9544 14.901 22.335 16.0002 22.335C17.0995 22.335 17.9506 21.9544 18.5108 21.3455L19.4896 22.2459C18.6434 23.1658 17.4177 23.665 16.0002 23.665C14.5827 23.665 13.357 23.1658 12.5108 22.2459L13.4896 21.3455Z" fill="#000000" class="bmwfcol"/><path d="M7.55501 6.55473C9.62151 4.48824 12.5491 3.33496 16.0002 3.33496C19.4514 3.33496 22.379 4.48824 24.4455 6.55473C25.1445 7.25378 25.6395 7.9093 26.075 8.486C26.257 8.72692 26.4285 8.95411 26.6002 9.16494C27.1929 9.8927 27.9068 10.6009 29.3325 11.4241L29.665 11.616V13.2237L28.2898 21.0232L27.3325 21.5759C26.4807 22.0676 25.9805 22.4127 25.5854 22.7821C25.1921 23.1497 24.8771 23.5655 24.423 24.2415C22.5457 27.0363 19.5962 28.665 16.0002 28.665C12.4042 28.665 9.45475 27.0363 7.57748 24.2415C7.1234 23.5655 6.80833 23.1497 6.41508 22.7821C6.02001 22.4127 5.51973 22.0676 4.66794 21.5759L3.71072 21.0232L2.33545 13.2237V11.616L2.66795 11.4241C4.09367 10.6009 4.80759 9.8927 5.40024 9.16494C5.57194 8.9541 5.74349 8.72693 5.92543 8.48601C6.36093 7.90931 6.85596 7.25378 7.55501 6.55473ZM16.0002 4.66496C13.1283 4.66496 10.7359 5.53565 8.98424 7.04188C10.1652 8.21283 10.7486 8.72664 11.4837 9.0023C11.8963 9.15702 12.3851 9.24444 13.1042 9.28938C13.8287 9.33466 14.7419 9.33496 16.0002 9.33496C17.2585 9.33496 18.1718 9.33466 18.8962 9.28938C19.6153 9.24444 20.1042 9.15702 20.5167 9.0023C21.2518 8.72664 21.8352 8.21283 23.0162 7.04188C21.2645 5.53565 18.8721 4.66496 16.0002 4.66496ZM7.04976 9.20671C6.85426 9.46614 6.65677 9.72821 6.43154 10.0048C5.79316 10.7887 5.02804 11.5479 3.66545 12.3787V13.1073L4.91282 20.1815L5.33294 20.4241C6.2132 20.9323 6.81711 21.3372 7.32338 21.8105C7.83148 22.2856 8.21492 22.8052 8.68154 23.4999C10.3111 25.926 12.8461 27.335 16.0002 27.335C19.1544 27.335 21.6894 25.926 23.3189 23.4999C23.7856 22.8052 24.169 22.2856 24.6771 21.8105C25.1834 21.3372 25.7873 20.9323 26.6675 20.4241L27.0877 20.1815L28.335 13.1073V12.3787C26.9724 11.5479 26.2073 10.7887 25.5689 10.0048C25.3437 9.7282 25.1462 9.46615 24.9507 9.20672C24.6484 8.80551 24.3507 8.41055 23.9624 7.97771C22.7962 9.13804 22.0074 9.86374 20.9837 10.2476C20.3963 10.4679 19.7601 10.568 18.9792 10.6168C18.2084 10.665 17.2538 10.665 16.0232 10.665H15.9773C14.7467 10.665 13.792 10.665 13.0212 10.6168C12.2403 10.568 11.6042 10.4679 11.0167 10.2476C9.99306 9.86374 9.20428 9.13805 8.03807 7.97771C7.64973 8.41055 7.3521 8.80551 7.04976 9.20671Z" fill="#000000" class="bmwfcol"/><title>i4x4_lt_48</title></svg>