<svg width="48" height="48" viewBox="0 0 32 32" xmlns="http://www.w3.org/2000/svg"><path d="M24.665 3.33496H7.33496V6.87541L7.52973 7.07019C7.52873 7.06918 7.53065 7.07127 7.53545 7.07648C7.55433 7.097 7.61758 7.16574 7.72272 7.28527C7.84813 7.42784 8.0234 7.63159 8.23163 7.88483C8.64866 8.39198 9.19456 9.09356 9.73608 9.89672C10.2788 10.7016 10.8091 11.5969 11.2019 12.4921C11.5977 13.3941 11.835 14.2541 11.835 15V25.5C11.835 26.301 11.9641 27.0938 12.3963 27.699C12.8605 28.3488 13.586 28.665 14.5 28.665H17.5C18.4139 28.665 19.1394 28.3488 19.6036 27.699C20.0358 27.0938 20.165 26.301 20.165 25.5L20.165 15C20.165 14.2541 20.4023 13.3941 20.798 12.4921C21.1908 11.5969 21.7211 10.7016 22.2638 9.89672C22.8054 9.09356 23.3513 8.39198 23.7683 7.88483C23.9765 7.63159 24.1518 7.42784 24.2772 7.28527C24.3822 7.16594 24.4454 7.09726 24.4643 7.07662C24.4692 7.07136 24.4712 7.06918 24.4702 7.07019L24.665 6.87542V3.33496ZM8.66496 6.34317V4.66496H10.8351V7H12.1651V4.66496H13.8351V7H15.1651V4.66496H16.8351V7H18.1651V4.66496H19.8351V7H21.1651V4.66496H23.335V6.34317C22.9467 6.78019 22.0489 7.83642 21.1611 9.1532C20.5913 9.99829 20.0154 10.9655 19.5801 11.9578C19.1477 12.9433 18.835 13.9958 18.835 15L18.835 25.5C18.835 26.1989 18.7141 26.6561 18.5213 26.9259C18.3605 27.1511 18.086 27.335 17.5 27.335H14.5C13.9139 27.335 13.6394 27.1511 13.4786 26.9259C13.2858 26.6561 13.165 26.1989 13.165 25.5V15C13.165 13.9958 12.8523 12.9433 12.4199 11.9578C11.9845 10.9655 11.4086 9.99829 10.8388 9.1532C9.95101 7.83642 9.05324 6.78019 8.66496 6.34317Z" fill="#000000" class="bmwfcol"/><title>ice_scraper_lt_48</title></svg>