<svg width="48" height="48" viewBox="0 0 32 32" xmlns="http://www.w3.org/2000/svg"><path d="M26 10.3696V11.9009C24.8002 11.2104 23.8652 10.6962 22.9246 10.3313C21.7882 9.89038 20.6325 9.66496 19 9.66496C17.2212 9.66496 16.2326 9.6717 15.2402 10.0053C14.2515 10.3377 13.2076 11.0158 11.4276 12.5094L11.267 12.6442L11.0581 12.6624C7.77029 12.9499 6.19705 13.0891 5.12637 13.3271C4.20773 13.5312 3.67881 13.8026 2.66517 14.3843L2.66502 16.9919C3.2475 17.1448 3.5975 17.2289 3.84276 17.2761C3.95762 15.6326 5.32725 14.335 6.99996 14.335C8.74794 14.335 10.165 15.752 10.165 17.5C10.165 19.2479 8.74794 20.665 6.99996 20.665C5.65734 20.665 4.50998 19.829 4.05004 18.6491C3.93211 18.6386 3.80167 18.621 3.64335 18.5919C3.27586 18.5242 2.75025 18.3928 1.82788 18.1457L1.33496 18.0136L1.33521 13.616L1.70098 13.4048C2.91526 12.7037 3.61276 12.301 4.83781 12.0287C5.99181 11.7723 7.63347 11.6268 10.7341 11.3557C12.441 9.93477 13.6117 9.14962 14.8164 8.74463C16.0356 8.33478 17.3211 8.33486 19 8.33496C20.776 8.33496 22.0975 8.58377 23.4057 9.09132C24.2445 9.41679 25.073 9.84767 26 10.3696ZM6.99996 15.665C5.98652 15.665 5.16496 16.4865 5.16496 17.5C5.16496 18.5134 5.98652 19.335 6.99996 19.335C8.0134 19.335 8.83496 18.5134 8.83496 17.5C8.83496 16.4865 8.0134 15.665 6.99996 15.665Z" fill="#000000" class="bmwfcol"/><path d="M13.665 16V20H12.335V16H13.665Z" fill="#000000" class="bmwfcol"/><path d="M17.665 14V22H16.335V14H17.665Z" fill="#000000" class="bmwfcol"/><path d="M21.665 12V24H20.335L20.335 12H21.665Z" fill="#000000" class="bmwfcol"/><path d="M25.665 15V21H24.335V15H25.665Z" fill="#000000" class="bmwfcol"/><path d="M29.665 12V24H28.335V12H29.665Z" fill="#000000" class="bmwfcol"/><title>iconic-sound_lt_48</title></svg>