<svg width="48" height="48" viewBox="0 0 32 32" xmlns="http://www.w3.org/2000/svg"><path d="M8.37446 11.2485C9.08501 10.5379 10.0457 10.335 11.0009 10.335C11.9562 10.335 12.9169 10.5379 13.6274 11.2485C14.3358 11.9569 14.6659 13.0401 14.6659 14.5C14.6659 15.9599 14.3358 17.043 13.6274 17.7514C12.9169 18.462 11.9562 18.665 11.0009 18.665C10.0457 18.665 9.08501 18.462 8.37446 17.7514C7.66604 17.043 7.33594 15.9599 7.33594 14.5C7.33594 13.0401 7.66604 11.9569 8.37446 11.2485ZM9.31491 12.1889C8.96083 12.543 8.66594 13.2099 8.66594 14.5C8.66594 15.7901 8.96083 16.4569 9.31491 16.811C9.66686 17.1629 10.2062 17.335 11.0009 17.335C11.7957 17.335 12.335 17.1629 12.687 16.811C13.041 16.4569 13.3359 15.7901 13.3359 14.5C13.3359 13.2099 13.041 12.543 12.687 12.1889C12.335 11.837 11.7957 11.665 11.0009 11.665C10.2062 11.665 9.66686 11.837 9.31491 12.1889Z" fill="#000000" class="bmwfcol"/><path d="M26 14.665H18V13.335H26V14.665Z" fill="#000000" class="bmwfcol"/><path d="M18 18.665H26V17.335H18V18.665Z" fill="#000000" class="bmwfcol"/><path d="M4.00094 6.33496C3.554 6.33496 3.12078 6.47466 2.79821 6.79723C2.47564 7.11981 2.33594 7.55302 2.33594 7.99996V24C2.33594 24.4469 2.47564 24.8801 2.79821 25.2027C3.12078 25.5253 3.554 25.665 4.00094 25.665H28.0009C28.4479 25.665 28.8811 25.5253 29.2037 25.2027C29.5262 24.8801 29.6659 24.4469 29.6659 24V7.99996C29.6659 7.55302 29.5262 7.11981 29.2037 6.79724C28.8811 6.47466 28.4479 6.33496 28.0009 6.33496H4.00094ZM3.66594 7.99996C3.66594 7.8269 3.71623 7.76012 3.73866 7.73769C3.76109 7.71526 3.82788 7.66496 4.00094 7.66496H28.0009C28.174 7.66496 28.2408 7.71526 28.2632 7.73769C28.2856 7.76012 28.3359 7.8269 28.3359 7.99996V24C28.3359 24.173 28.2856 24.2398 28.2632 24.2622C28.2408 24.2847 28.174 24.335 28.0009 24.335H17.2777L17.1422 23.8281C16.7423 22.3331 16.3093 21.2947 15.2386 20.7764C14.7378 20.534 14.1507 20.4325 13.4823 20.3836C12.8176 20.335 12.0039 20.335 11.0239 20.335C10.0439 20.335 9.18193 20.335 8.51718 20.3836C7.84877 20.4325 7.2617 20.534 6.76093 20.7764C5.69025 21.2947 5.25722 22.3331 4.85734 23.8281L4.72176 24.335H4.00094C3.82788 24.335 3.76109 24.2847 3.73866 24.2622C3.71623 24.2398 3.66594 24.173 3.66594 24V7.99996ZM6.09852 24.335L6.14217 24.1718C6.54473 22.6668 6.86171 22.2052 7.34041 21.9735C7.61434 21.8409 8.00181 21.7549 8.61427 21.7101C9.22494 21.6654 9.99055 21.665 10.9998 21.665C12.009 21.665 12.7746 21.6654 13.3852 21.7101C13.9977 21.7549 14.3852 21.8409 14.6591 21.9735C15.1378 22.2052 15.4548 22.6668 15.8573 24.1718L15.901 24.335H6.09852Z" fill="#000000" class="bmwfcol"/><title>id-card_lt_48</title></svg>