<svg width="48" height="48" viewBox="0 0 32 32" xmlns="http://www.w3.org/2000/svg"><path d="M16.0009 4.66496C13.4794 4.66496 11.1502 5.48829 9.26749 6.88078L8.41472 5.85744C10.5293 4.27331 13.1555 3.33496 16.0009 3.33496C18.8465 3.33496 21.4728 4.27338 23.5874 5.85761L22.7346 6.88094C20.8518 5.48835 18.5225 4.66496 16.0009 4.66496Z" fill="#000000" class="bmwfcol"/><path d="M7.39342 6.70941L8.24619 7.73274C6.04252 9.80063 4.66594 12.7395 4.66594 16C4.66594 17.7824 5.07734 19.4687 5.81036 20.9691L4.64917 21.6223C3.80854 19.9283 3.33594 18.0193 3.33594 16C3.33594 12.3289 4.89786 9.02259 7.39342 6.70941Z" fill="#000000" class="bmwfcol"/><path d="M6.46344 22.1277L5.30225 22.7809C7.54867 26.3178 11.5007 28.665 16.0009 28.665C20.5012 28.665 24.4532 26.3178 26.6996 22.7809L25.5384 22.1277C23.6341 25.0856 20.3913 27.1003 16.6659 27.3158V20H15.3359V27.3158C11.6106 27.1003 8.36779 25.0856 6.46344 22.1277Z" fill="#000000" class="bmwfcol"/><path d="M27.3527 21.6223L26.1915 20.9691C26.9245 19.4687 27.3359 17.7824 27.3359 16C27.3359 12.7396 25.9594 9.80081 23.7559 7.73293L24.6087 6.7096C27.1041 9.02277 28.6659 12.329 28.6659 16C28.6659 18.0193 28.1933 19.9283 27.3527 21.6223Z" fill="#000000" class="bmwfcol"/><path d="M16.0009 14.335C15.0814 14.335 14.3359 15.0804 14.3359 16C14.3359 16.9195 15.0814 17.665 16.0009 17.665C16.9205 17.665 17.6659 16.9195 17.6659 16C17.6659 15.0804 16.9205 14.335 16.0009 14.335Z" fill="#000000" class="bmwfcol"/><title>ifactory_logo_lt_48</title></svg>