<svg width="48" height="48" viewBox="0 0 32 32" xmlns="http://www.w3.org/2000/svg"><path d="M13 10.835C12.3565 10.835 11.835 11.3565 11.835 12C11.835 12.6434 12.3565 13.165 13 13.165C13.6434 13.165 14.165 12.6434 14.165 12C14.165 11.3565 13.6434 10.835 13 10.835Z" fill="#000000" class="bmwfcol"/><path d="M4.99996 5.33496C4.55302 5.33496 4.11981 5.47466 3.79723 5.79723C3.47466 6.11981 3.33496 6.55302 3.33496 6.99996V25C3.33496 25.4469 3.47466 25.8801 3.79723 26.2027C4.11981 26.5253 4.55302 26.665 4.99996 26.665H27C27.4469 26.665 27.8801 26.5253 28.2027 26.2027C28.5253 25.8801 28.665 25.4469 28.665 25V6.99996C28.665 6.55302 28.5253 6.11981 28.2027 5.79724C27.8801 5.47466 27.4469 5.33496 27 5.33496H4.99996ZM4.66496 6.99996C4.66496 6.8269 4.71526 6.76012 4.73769 6.73769C4.76012 6.71526 4.8269 6.66496 4.99996 6.66496H27C27.173 6.66496 27.2398 6.71526 27.2622 6.73769C27.2847 6.76012 27.335 6.8269 27.335 6.99996V19.395L20.9995 13.0596L13.9995 20.0596L9.99952 16.0596L4.66496 21.3941V6.99996ZM4.66496 23.275L9.99952 17.9405L13.9995 21.9405L20.9995 14.9405L27.335 21.2759V25C27.335 25.173 27.2847 25.2398 27.2622 25.2622C27.2398 25.2847 27.173 25.335 27 25.335H4.99996C4.8269 25.335 4.76012 25.2847 4.73769 25.2622C4.71526 25.2398 4.66496 25.173 4.66496 25V23.275Z" fill="#000000" class="bmwfcol"/><title>image_lt_48</title></svg>