<svg width="48" height="48" viewBox="0 0 32 32" xmlns="http://www.w3.org/2000/svg"><path d="M8.99898 2.33496C6.69203 2.33496 5.37452 2.38212 4.5839 2.4787C4.18746 2.52712 3.88411 2.59215 3.64002 2.68914C3.37196 2.79566 3.20224 2.93 3.06563 3.06661C2.93639 3.19585 2.8086 3.35456 2.70249 3.5842C2.60195 3.80179 2.53263 4.05764 2.4815 4.37088C2.3809 4.98715 2.33398 5.9399 2.33398 7.49996V14.665H3.77444L5.77444 12.665H8.99898C11.3059 12.665 12.6235 12.6178 13.4141 12.5212C13.8105 12.4728 14.1139 12.4078 14.3579 12.3108C14.626 12.2043 14.7957 12.0699 14.9323 11.9333C15.0616 11.8041 15.1894 11.6454 15.2955 11.4157C15.396 11.1981 15.4653 10.9423 15.5165 10.629C15.6171 10.0128 15.664 9.06002 15.664 7.49996C15.664 5.9399 15.6171 4.98715 15.5165 4.37088C15.4653 4.05764 15.396 3.80179 15.2955 3.5842C15.1894 3.35456 15.0616 3.19585 14.9323 3.06661C14.7957 2.93 14.626 2.79566 14.3579 2.68914C14.1139 2.59215 13.8105 2.52712 13.4141 2.4787C12.6235 2.38212 11.3059 2.33496 8.99898 2.33496ZM4.13117 3.92513C4.22195 3.88906 4.39652 3.84147 4.74517 3.79888C5.4447 3.71343 6.68594 3.66496 8.99898 3.66496C11.312 3.66496 12.5533 3.71343 13.2528 3.79888C13.6014 3.84147 13.776 3.88906 13.8668 3.92513C13.9662 3.96463 14.0435 4.0454 14.0881 4.14207C14.1207 4.21247 14.164 4.3408 14.2038 4.58514C14.2853 5.08402 14.334 5.94002 14.334 7.49996C14.334 9.0599 14.2853 9.9159 14.2038 10.4148C14.164 10.6591 14.1207 10.7875 14.0881 10.8579C14.0435 10.9545 13.9662 11.0353 13.8668 11.0748C13.776 11.1109 13.6014 11.1585 13.2528 11.201C12.5533 11.2865 11.312 11.335 8.99898 11.335H5.22353L3.66398 12.8945V7.49996C3.66398 5.94002 3.71269 5.08402 3.79413 4.58514C3.83401 4.3408 3.87731 4.21247 3.90984 4.14207C3.9545 4.0454 4.03177 3.96463 4.13117 3.92513Z" fill="#000000" class="bmwfcol"/><path d="M18.999 15.335C20.7751 15.335 22.0965 15.5838 23.4047 16.0913C24.8197 16.6403 26.1274 17.4374 27.4366 18.1957L29.6639 18.3906L29.664 19.9999C29.664 20.7354 30.1798 21.2403 30.664 21.7245L30.6643 24.3839C29.4481 25.086 28.365 25.6496 26.9432 25.6637C26.4795 26.8358 25.3361 27.665 23.999 27.665C22.6624 27.665 21.5193 26.8364 21.0553 25.665H9.94268C9.47866 26.8364 8.33558 27.665 6.99898 27.665C5.65636 27.665 4.50901 26.829 4.04906 25.6491C3.12764 25.5668 2.22496 25.2523 1.33398 25.0136L1.33423 20.616C2.45617 19.9683 3.55734 19.3131 4.83683 19.0287C5.99083 18.7723 7.6325 18.6268 10.7331 18.3557C12.4401 16.9348 13.6107 16.1496 14.8154 15.7446C16.0346 15.3348 17.3202 15.3349 18.999 15.335ZM27.9874 24.2317C28.316 24.1456 28.6813 23.9801 29.3342 23.6136L29.334 22.269C28.9154 21.8209 28.6556 21.4319 28.5066 21.0594C28.3192 20.591 28.334 20.1029 28.334 19.6093L27.0263 19.4949C25.6916 18.7224 24.3658 17.8908 22.9236 17.3313C21.7873 16.8904 20.6315 16.665 18.999 16.665C17.2202 16.665 16.2316 16.6717 15.2392 17.0053C13.7301 17.5126 12.4643 18.6387 11.266 19.6442C9.23219 19.822 7.12497 19.8826 5.12539 20.3271C4.20675 20.5312 3.67784 20.8026 2.66419 21.3843L2.66404 23.9919C3.24653 24.1448 3.59653 24.2289 3.84178 24.2761C3.95664 22.6326 5.32628 21.335 6.99898 21.335C8.69162 21.335 10.0739 22.6637 10.1598 24.335H20.8382C20.924 22.6637 22.3063 21.335 23.999 21.335C25.6897 21.335 27.0707 22.6606 27.1595 24.3292C27.5085 24.3198 27.7446 24.2952 27.9874 24.2317ZM5.16398 24.5C5.16398 25.5134 5.98554 26.335 6.99898 26.335C8.01243 26.335 8.83398 25.5134 8.83398 24.5C8.83398 23.4865 8.01243 22.665 6.99898 22.665C5.98554 22.665 5.16398 23.4865 5.16398 24.5ZM22.164 24.5C22.164 25.5134 22.9855 26.335 23.999 26.335C25.0124 26.335 25.834 25.5134 25.834 24.5C25.834 23.4865 25.0124 22.665 23.999 22.665C22.9855 22.665 22.164 23.4865 22.164 24.5Z" fill="#000000" class="bmwfcol"/><title>in-car-communication_lt_48</title></svg>