<svg width="48" height="48" viewBox="0 0 32 32" xmlns="http://www.w3.org/2000/svg"><path d="M9.64859 3.83496C9.00518 3.83496 8.48359 4.35655 8.48359 4.99996C8.48359 5.64337 9.00518 6.16496 9.64859 6.16496C10.292 6.16496 10.8136 5.64337 10.8136 4.99996C10.8136 4.35655 10.292 3.83496 9.64859 3.83496Z" fill="#000000" class="bmwfcol"/><path d="M7.49805 8.66496H9.33305V14.335H6.99805V15.665H12.998V14.335H10.663V7.33496H7.49805V8.66496Z" fill="#000000" class="bmwfcol"/><path d="M3.99805 27.665L27.998 27.665V26.335H25.664V21.8354C25.664 21.5726 25.6356 21.2462 25.4931 20.9144C25.3459 20.5718 25.0954 20.2655 24.7178 20.0186C23.9995 19.5489 22.833 19.3015 20.999 19.3015C19.1649 19.3015 17.9985 19.5489 17.2802 20.0186C16.9026 20.2655 16.6521 20.5718 16.5049 20.9144C16.3624 21.2462 16.334 21.5726 16.334 21.8354V26.335L3.99805 26.335V27.665ZM24.334 21.8354V26.335H17.664V21.8354C17.664 21.6638 17.684 21.5393 17.727 21.4393C17.7653 21.35 17.8374 21.2433 18.0081 21.1317C18.3866 20.8842 19.2202 20.6315 20.999 20.6315C22.7778 20.6315 23.6113 20.8842 23.9898 21.1317C24.1606 21.2433 24.2327 21.35 24.271 21.4393C24.314 21.5393 24.334 21.6638 24.334 21.8354Z" fill="#000000" class="bmwfcol"/><path d="M20.9992 12.875C20.4055 12.875 19.7621 12.9936 19.2744 13.4581C18.782 13.9271 18.5742 14.6271 18.5742 15.5C18.5742 16.3729 18.782 17.0729 19.2744 17.5419C19.7621 18.0064 20.4055 18.125 20.9992 18.125C21.593 18.125 22.2363 18.0064 22.724 17.5419C23.2165 17.0729 23.4242 16.3729 23.4242 15.5C23.4242 14.6271 23.2165 13.9271 22.724 13.4581C22.2363 12.9936 21.593 12.875 20.9992 12.875ZM19.8242 15.5C19.8242 14.8015 19.9915 14.5014 20.1365 14.3633C20.2863 14.2206 20.543 14.125 20.9992 14.125C21.4555 14.125 21.7121 14.2206 21.8619 14.3633C22.007 14.5014 22.1742 14.8015 22.1742 15.5C22.1742 16.1985 22.007 16.4986 21.8619 16.6367C21.7121 16.7794 21.4555 16.875 20.9992 16.875C20.543 16.875 20.2863 16.7794 20.1365 16.6367C19.9915 16.4986 19.8242 16.1985 19.8242 15.5Z" fill="#000000" class="bmwfcol"/><title>information_desk_lt_48</title></svg>