<svg width="48" height="48" viewBox="0 0 32 32" xmlns="http://www.w3.org/2000/svg"><path d="M28.665 6.33499H20.335V8.8587L20.6997 9.04328C21.4748 9.43551 22.0099 10.0982 22.3554 10.8143C22.7039 11.5366 22.835 12.2645 22.835 12.706V19.2942C22.835 19.7274 22.6982 20.4488 22.3446 21.1705C21.9941 21.8859 21.4566 22.5498 20.6935 22.9461L20.335 23.1323V25.665H28.665V6.33499ZM21.665 8.06258V7.66499H27.335V24.335H21.665V23.9193C22.5483 23.3547 23.151 22.5475 23.539 21.7556C23.9743 20.8671 24.165 19.9466 24.165 19.2942V12.706C24.165 12.0566 23.9853 11.1318 23.5533 10.2364C23.1682 9.43828 22.5639 8.62583 21.665 8.06258Z" fill="#000000" class="bmwfcol"/><path d="M3 11.335V12.665H6.52455L8.05955 14.2H9.94045L7.07545 11.335H3Z" fill="#000000" class="bmwfcol"/><path d="M9.94045 17.8H8.05955L6.52455 19.335H3V20.665H7.07545L9.94045 17.8Z" fill="#000000" class="bmwfcol"/><path d="M16.835 16.665L16.835 19.0193C16.8348 19.2712 16.8343 19.885 17.0763 20.4494C17.2059 20.752 17.415 21.0658 17.7501 21.3016C18.0892 21.5403 18.5092 21.665 19 21.665C19.4908 21.665 19.9107 21.5403 20.2499 21.3016C20.585 21.0658 20.794 20.752 20.9237 20.4494C21.1656 19.885 21.1652 19.2712 21.165 19.0193V12.9807C21.1652 12.7288 21.1656 12.115 20.9237 11.5505C20.794 11.2479 20.585 10.9342 20.2499 10.6983C19.9107 10.4597 19.4908 10.335 19 10.335C18.5092 10.335 18.0892 10.4597 17.7501 10.6983C17.415 10.9342 17.2059 11.2479 17.0763 11.5505C16.8343 12.115 16.8348 12.7288 16.835 12.9807L16.835 15.335H3V16.665H16.835ZM18.165 13C18.165 12.7385 18.1721 12.37 18.2987 12.0744C18.3565 11.9395 18.4288 11.8471 18.5155 11.786C18.5982 11.7278 18.7408 11.665 19 11.665C19.2592 11.665 19.4017 11.7278 19.4845 11.786C19.5712 11.8471 19.6434 11.9395 19.7013 12.0744C19.8279 12.37 19.835 12.7385 19.835 13V19C19.835 19.2615 19.8279 19.63 19.7013 19.9255C19.6434 20.0604 19.5712 20.1529 19.4845 20.214C19.4017 20.2722 19.2592 20.335 19 20.335C18.7408 20.335 18.5982 20.2722 18.5155 20.214C18.4288 20.1529 18.3565 20.0604 18.2987 19.9255C18.1721 19.63 18.165 19.2615 18.165 19V13Z" fill="#000000" class="bmwfcol"/><path d="M17.665 6.33499H9.33498V10.7754L12.7245 14.165H15.165L15.165 12.706C15.165 12.2645 15.2961 11.5366 15.6446 10.8143C15.9901 10.0982 16.5252 9.43551 17.3003 9.04328L17.665 8.8587V6.33499ZM16.335 7.66499V8.06258C15.4361 8.62583 14.8318 9.43828 14.4467 10.2364C14.0147 11.1318 13.835 12.0566 13.835 12.706L13.835 12.835H13.2754L10.665 10.2245V7.66499H16.335Z" fill="#000000" class="bmwfcol"/><path d="M15.165 17.835H12.7245L9.33498 21.2245V25.665H17.665V23.1323L17.3065 22.9461C16.5434 22.5498 16.0059 21.8859 15.6554 21.1705C15.3018 20.4488 15.165 19.7274 15.165 19.2942L15.165 17.835ZM13.835 19.165L13.835 19.2942C13.835 19.9466 14.0257 20.8671 14.461 21.7556C14.849 22.5475 15.4517 23.3547 16.335 23.9193V24.335H10.665V21.7754L13.2754 19.165H13.835Z" fill="#000000" class="bmwfcol"/><title>injection_molding_lt_48</title></svg>