<svg width="48" height="48" viewBox="0 0 32 32" xmlns="http://www.w3.org/2000/svg"><path d="M4 4.57129V5.95348C4.76814 6.17688 5.26274 6.37406 5.90797 6.78463C6.66873 7.26872 7.62249 8.04019 9.3425 9.47824C7.11677 9.67667 5.80636 9.81369 4.83879 10.0287C3.55929 10.3131 2.45812 10.9683 1.33619 11.616L1.33594 16.0136C2.22593 16.2521 3.12811 16.5667 4.05104 16.6491C4.51099 17.829 5.65834 18.665 7.00097 18.665C8.33756 18.665 9.48065 17.8364 9.94466 16.665H13.3359V24.335H2V25.665H30V24.335H18.6659V16.665H21.0573C21.5213 17.8364 22.6644 18.665 24.001 18.665C25.3381 18.665 26.4815 17.8358 26.9452 16.6637C28.3209 16.65 29.5037 16.0551 30.6662 15.3839L30.6659 12.7245C30.1598 12.2184 29.666 11.7497 29.666 10.9999L29.6659 9.39057L27.4386 9.19571C26.1293 8.43743 24.8216 7.64033 23.4066 7.09133C21.9671 6.53282 20.4575 6.33503 18.92 6.33496C17.2412 6.33486 16.0366 6.33479 14.8174 6.74463C13.6767 7.12807 12.5667 7.8523 11.003 9.13427C8.78842 7.2762 7.58185 6.27332 6.62198 5.66254C5.72076 5.08908 5.02298 4.85272 4 4.57129ZM27.9893 15.2317C27.7466 15.2952 27.5105 15.3198 27.1614 15.3292C27.0727 13.6606 25.6916 12.335 24.001 12.335C22.3083 12.335 20.926 13.6637 20.8402 15.335H10.1617C10.0759 13.6637 8.6936 12.335 7.00097 12.335C5.32826 12.335 3.95863 13.6326 3.84376 15.2761C3.59851 15.2289 3.2485 15.1448 2.666 14.9919L2.66614 12.3843C3.67979 11.8026 4.20871 11.5312 5.12735 11.3271C7.13396 10.8811 9.55541 11.2852 11.4286 10.5094C13.2086 9.01581 14.2524 8.33768 15.2412 8.00531C16.2336 7.67171 17.2222 7.66497 19.001 7.66497C20.6335 7.66497 21.7892 7.89039 22.9256 8.33127C24.3678 8.89083 25.6936 9.7224 27.0282 10.4949L28.3359 10.6093C28.336 11.6983 28.5824 12.4625 29.336 13.269L29.3361 14.6136C28.6833 14.9801 28.318 15.1456 27.9893 15.2317ZM14.6659 16.665H17.3359V24.335H14.6659V16.665ZM7.00097 13.665C8.01441 13.665 8.83597 14.4865 8.83597 15.5C8.83597 16.5134 8.01441 17.335 7.00097 17.335C5.98752 17.335 5.16597 16.5134 5.16597 15.5C5.16597 14.4865 5.98752 13.665 7.00097 13.665ZM22.166 15.5C22.166 14.4865 22.9875 13.665 24.001 13.665C25.0144 13.665 25.836 14.4865 25.836 15.5C25.836 16.5134 25.0144 17.335 24.001 17.335C22.9875 17.335 22.166 16.5134 22.166 15.5Z" fill="#000000" class="bmwfcol"/><title>inspection_lt_48</title></svg>