<svg width="48" height="48" viewBox="0 0 32 32" xmlns="http://www.w3.org/2000/svg"><path d="M24.668 8.99999C24.668 9.92046 23.9218 10.6667 23.0013 10.6667C22.0808 10.6667 21.3346 9.92046 21.3346 8.99999C21.3346 8.07952 22.0808 7.33332 23.0013 7.33332C23.9218 7.33332 24.668 8.07952 24.668 8.99999Z" fill="#000000" class="bmwfcol"/><path d="M16.0013 2.66666C19.624 2.66666 20.076 2.67999 21.4973 2.74666C22.9173 2.81332 23.884 3.03599 24.7346 3.36666C25.6146 3.70532 26.356 4.16399 27.0973 4.90399C27.7753 5.57052 28.2999 6.37678 28.6346 7.26666C28.964 8.11599 29.188 9.08399 29.2546 10.504C29.3173 11.9253 29.3346 12.3773 29.3346 16C29.3346 19.6227 29.3213 20.0747 29.2546 21.496C29.188 22.916 28.964 23.8827 28.6346 24.7333C28.3009 25.6237 27.7761 26.4301 27.0973 27.096C26.4306 27.7738 25.6244 28.2983 24.7346 28.6333C23.8853 28.9627 22.9173 29.1867 21.4973 29.2533C20.076 29.316 19.624 29.3333 16.0013 29.3333C12.3786 29.3333 11.9266 29.32 10.5053 29.2533C9.0853 29.1867 8.11864 28.9627 7.26797 28.6333C6.37774 28.2993 5.57134 27.7746 4.9053 27.096C4.22718 26.4296 3.70254 25.6233 3.36797 24.7333C3.0373 23.884 2.81464 22.916 2.74797 21.496C2.6853 20.0747 2.66797 19.6227 2.66797 16C2.66797 12.3773 2.6813 11.9253 2.74797 10.504C2.81464 9.08266 3.0373 8.11732 3.36797 7.26666C3.70162 6.37623 4.22637 5.56975 4.9053 4.90399C5.57153 4.22563 6.37787 3.70096 7.26797 3.36666C8.11864 3.03599 9.08397 2.81332 10.5053 2.74666C11.9266 2.68399 12.3786 2.66666 16.0013 2.66666ZM10.6293 5.41066C9.58397 5.45999 8.88264 5.59999 8.23197 5.85332C7.6533 6.07732 7.23597 6.34532 6.79197 6.79066C6.37464 7.19386 6.05377 7.6861 5.8533 8.23066C5.59997 8.88399 5.45997 9.58399 5.41197 10.628C5.34264 12.1 5.33464 12.6147 5.33464 16C5.33464 19.2987 5.34397 19.8373 5.41197 21.372C5.4613 22.416 5.6013 23.1187 5.8533 23.768C6.07997 24.348 6.34664 24.7653 6.7893 25.208C7.23864 25.656 7.65597 25.924 8.2293 26.1453C8.88797 26.4 9.5893 26.5413 10.6293 26.5893C12.1013 26.6587 12.616 26.6667 16.0013 26.6667C19.3 26.6667 19.8386 26.6573 21.3733 26.5893C22.416 26.54 23.1186 26.4 23.7693 26.148C24.3466 25.9227 24.7666 25.6547 25.2093 25.212C25.6586 24.7627 25.9266 24.3453 26.148 23.772C26.4013 23.1147 26.5426 22.412 26.5906 21.372C26.66 19.9 26.668 19.3853 26.668 16C26.668 12.7013 26.6586 12.1627 26.5906 10.628C26.5413 9.58532 26.4013 8.88132 26.148 8.23066C25.947 7.68666 25.6267 7.1946 25.2106 6.79066C24.8076 6.37312 24.3153 6.05221 23.7706 5.85199C23.1173 5.59866 22.416 5.45866 21.3733 5.41066C19.9013 5.34132 19.3866 5.33332 16.0013 5.33332C12.7026 5.33332 12.164 5.34266 10.6293 5.41066Z" fill="#000000" class="bmwfcol"/><path d="M16.0013 9.33332C19.6832 9.33332 22.668 12.3181 22.668 16C22.668 19.6819 19.6832 22.6667 16.0013 22.6667C12.3194 22.6667 9.33464 19.6819 9.33464 16C9.33464 12.3181 12.3194 9.33332 16.0013 9.33332ZM12.0013 16C12.0013 18.2091 13.7922 20 16.0013 20C18.2104 20 20.0013 18.2091 20.0013 16C20.0013 13.7909 18.2104 12 16.0013 12C13.7922 12 12.0013 13.7909 12.0013 16Z" fill="#000000" class="bmwfcol"/><title>instagram_lt_48</title></svg>