<svg width="48" height="48" viewBox="0 0 32 32" xmlns="http://www.w3.org/2000/svg"><path d="M27.666 2.33496H16.336L16.3359 8.18177C16.3359 9.53717 16.5809 10.819 17.3788 12.0639C18.1677 13.2948 19.4595 14.4306 21.4431 15.5759L21.5975 15.665H22.4044L22.5587 15.5759C24.5424 14.4306 25.8341 13.2948 26.6231 12.0639C27.421 10.819 27.6659 9.53717 27.6659 8.18178L27.666 2.33496ZM17.6659 8.18178L17.666 3.66496H26.336L26.3359 8.18177C26.3359 9.36275 26.1264 10.3741 25.5033 11.3462C24.8886 12.3053 23.8353 13.2825 22.0466 14.335H21.9553C20.1665 13.2825 19.1133 12.3053 18.4986 11.3462C17.8755 10.3741 17.6659 9.36275 17.6659 8.18178Z" fill="#000000" class="bmwfcol"/><path d="M6.00094 6.33496H14.8359L14.8359 7.66496H6.00094C5.82788 7.66496 5.76109 7.71526 5.73866 7.73769C5.71623 7.76012 5.66594 7.8269 5.66594 7.99996V14.335H17.2886C17.7389 14.7958 18.2523 15.2372 18.8303 15.665H5.66594V28C5.66594 28.173 5.71623 28.2398 5.73866 28.2622C5.76109 28.2847 5.82788 28.335 6.00094 28.335H22.0009C22.174 28.335 22.2408 28.2847 22.2632 28.2622C22.2856 28.2398 22.3359 28.173 22.3359 28V17.165H22.8063L23.3087 16.8749C23.4297 16.805 23.5488 16.7349 23.6659 16.6646V28C23.6659 28.4469 23.5262 28.8801 23.2037 29.2027C22.8811 29.5253 22.4479 29.665 22.0009 29.665H6.00094C5.554 29.665 5.12078 29.5253 4.79821 29.2027C4.47564 28.8801 4.33594 28.4469 4.33594 28V7.99996C4.33594 7.55302 4.47564 7.11981 4.79821 6.79724C5.12078 6.47466 5.554 6.33496 6.00094 6.33496Z" fill="#000000" class="bmwfcol"/><path d="M14.0009 18.835C13.3575 18.835 12.8359 19.3565 12.8359 20C12.8359 20.6434 13.3575 21.165 14.0009 21.165C14.6443 21.165 15.1659 20.6434 15.1659 20C15.1659 19.3565 14.6443 18.835 14.0009 18.835Z" fill="#000000" class="bmwfcol"/><path d="M9.00094 18.835C8.35753 18.835 7.83594 19.3565 7.83594 20C7.83594 20.6434 8.35753 21.165 9.00094 21.165C9.64435 21.165 10.1659 20.6434 10.1659 20C10.1659 19.3565 9.64435 18.835 9.00094 18.835Z" fill="#000000" class="bmwfcol"/><path d="M8.83505 24.1C8.3443 24.1 7.90172 24.479 7.90172 25C7.90172 25.5209 8.3443 25.9 8.83505 25.9H14.1684C14.6591 25.9 15.1017 25.5209 15.1017 25C15.1017 24.479 14.6591 24.1 14.1684 24.1H8.83505Z" fill="#000000" class="bmwfcol"/><path d="M19.0009 18.835C18.3575 18.835 17.8359 19.3565 17.8359 20C17.8359 20.6434 18.3575 21.165 19.0009 21.165C19.6443 21.165 20.1659 20.6434 20.1659 20C20.1659 19.3565 19.6443 18.835 19.0009 18.835Z" fill="#000000" class="bmwfcol"/><path d="M19.0009 23.835C18.3575 23.835 17.8359 24.3565 17.8359 25C17.8359 25.6434 18.3575 26.165 19.0009 26.165C19.6443 26.165 20.1659 25.6434 20.1659 25C20.1659 24.3565 19.6443 23.835 19.0009 23.835Z" fill="#000000" class="bmwfcol"/><title>insurance-calculator_lt_48</title></svg>