<svg width="48" height="48" viewBox="0 0 32 32" xmlns="http://www.w3.org/2000/svg"><path d="M12.5582 10.5L16.7285 6.32973C18.0353 5.02288 19.5986 4.33496 21.1987 4.33496C22.7988 4.33496 24.3621 5.02288 25.6689 6.32973C26.9758 7.63659 27.6637 9.19985 27.6637 10.8C27.6637 12.4001 26.9758 13.9633 25.6689 15.2702L23.269 17.6701C21.9622 18.977 20.3989 19.665 18.7988 19.665H12.9988V18.335H18.7988C19.9987 18.335 21.2354 17.8228 22.3286 16.7297L24.7285 14.3297C25.8216 13.2366 26.3337 11.9998 26.3337 10.8C26.3337 9.60007 25.8216 8.36333 24.7285 7.27019C23.6353 6.17704 22.3986 5.66496 21.1987 5.66496C19.9988 5.66496 18.7621 6.17704 17.6689 7.27019L14.4391 10.5H12.5582Z" fill="#000000" class="bmwfcol"/><path d="M19.4404 21.5L15.2702 25.6703C13.9633 26.9771 12.4001 27.665 10.8 27.665C9.19985 27.665 7.63659 26.9771 6.32973 25.6703C5.02288 24.3634 4.33496 22.8001 4.33496 21.2C4.33496 19.5999 5.02288 18.0367 6.32973 16.7298L8.72962 14.3299C10.0365 13.023 11.5997 12.335 13.1999 12.335H18.9999V13.665H13.1999C12 13.665 10.7632 14.1772 9.67008 15.2703L7.27019 17.6703C6.17705 18.7634 5.66496 20.0002 5.66496 21.2C5.66496 22.3999 6.17704 23.6367 7.27019 24.7298C8.36333 25.823 9.60007 26.335 10.8 26.335C11.9998 26.335 13.2366 25.823 14.3297 24.7298L17.5595 21.5H19.4404Z" fill="#000000" class="bmwfcol"/><title>internal-link_lt_48</title></svg>