<svg width="48" height="48" viewBox="0 0 32 32" xmlns="http://www.w3.org/2000/svg"><path d="M14.7053 1.2583L15.0761 1.35751C16.921 1.8512 18.4537 2.41408 19.9656 3.30097C21.4744 4.18606 22.9344 5.37737 24.6552 7.09816C26.376 8.81895 27.5673 10.279 28.4524 11.7877C29.3392 13.2996 29.9021 14.8323 30.3958 16.6773L30.495 17.048L27.8372 19.7059C27.4115 20.1315 26.8844 20.3939 26.3063 20.3939C25.7281 20.3939 25.201 20.1315 24.7754 19.7059L22.6541 17.5845C22.3928 17.3233 22.1725 17.0215 22.0524 16.6467C21.9316 16.2698 21.9305 15.8773 22.0134 15.464C22.1529 14.7687 22.5536 13.9177 23.1765 12.8037L18.9496 8.57687C17.8357 9.19975 16.9846 9.60044 16.2893 9.73991C15.8761 9.8228 15.4836 9.82176 15.1067 9.70093C14.7319 9.58078 14.43 9.36049 14.1688 9.09927L12.0474 6.97792C11.6218 6.55229 11.3595 6.0252 11.3595 5.44704C11.3595 4.86888 11.6218 4.3418 12.0475 3.91617L14.7053 1.2583ZM15.1013 2.74327L12.9879 4.85662C12.7559 5.0886 12.6895 5.29336 12.6895 5.44705C12.6895 5.60074 12.7559 5.8055 12.9879 6.03747L15.1092 8.1588C15.273 8.32258 15.3996 8.39818 15.5127 8.43443C15.6237 8.47 15.7784 8.4859 16.0277 8.43588C16.5681 8.32748 17.3713 7.95252 18.7308 7.17199L19.1722 6.91856L24.8348 12.5811L24.5813 13.0225C23.8008 14.382 23.4258 15.1852 23.3174 15.7256C23.2674 15.9749 23.2833 16.1297 23.3189 16.2406C23.3551 16.3537 23.4307 16.4803 23.5945 16.6441L25.7159 18.7654C25.9478 18.9974 26.1526 19.0639 26.3063 19.0639C26.46 19.0639 26.6647 18.9974 26.8967 18.7654L29.0101 16.6521C28.5611 15.0483 28.0552 13.7392 27.3052 12.4607C26.4967 11.0825 25.388 9.71193 23.7147 8.03861C22.0414 6.36529 20.6708 5.25663 19.2926 4.44814C18.0142 3.69816 16.705 3.19227 15.1013 2.74327Z" fill="#000000" class="bmwfcol"/><path d="M2.20089 26.5422V27.9608L2.3758 27.9974C3.08279 28.1451 4.20861 28.3804 5.12851 28.3804C6.19978 28.3804 6.9373 28.1969 7.51048 27.6939C8.01235 27.2387 8.26841 26.629 8.26841 25.9091C8.26841 25.2696 8.08896 24.7162 7.73696 24.3398C7.4025 23.9815 6.96518 23.7881 6.27432 23.5543L4.68296 23.0238C4.44843 22.9439 4.25691 22.8773 4.10068 22.8105C3.94371 22.7435 3.83685 22.682 3.76516 22.6183C3.62883 22.4962 3.57731 22.3367 3.57731 22.0034C3.57731 21.6916 3.66038 21.4407 3.88436 21.2575C4.12368 21.0701 4.44368 21.0041 5.07545 21.0041C5.79948 21.0041 6.9611 21.2828 7.71342 21.4655L7.96062 21.5255V20.0946L7.80739 20.0578C6.97386 19.8573 5.97373 19.6171 5.05422 19.6171C4.12408 19.6171 3.42005 19.7318 2.89407 20.209C2.34333 20.6902 2.13721 21.3022 2.13721 22.0034C2.13721 22.6477 2.30329 23.2304 2.71797 23.6222C3.05132 23.9546 3.4537 24.1147 4.02516 24.3052L5.62778 24.8465C5.9011 24.9376 6.11522 25.0091 6.28651 25.0822C6.45619 25.1545 6.56656 25.2215 6.64089 25.2951C6.78004 25.4431 6.8283 25.6157 6.8283 25.9091C6.8283 26.2464 6.70361 26.5228 6.45356 26.7137C6.17589 26.9098 5.84458 26.9933 5.17097 26.9933C4.38931 26.9933 3.23216 26.7652 2.44315 26.5946L2.20089 26.5422Z" fill="#000000" class="bmwfcol"/><path d="M10.8288 20.0097C10.3328 20.2671 9.98076 20.6382 9.71555 21.0839C9.49612 21.4535 9.35526 21.9345 9.26843 22.4406C9.18115 22.9493 9.14615 23.4969 9.14615 24.0093C9.14615 25.1745 9.32587 26.3577 9.78126 27.0867C10.0433 27.5082 10.3822 27.8372 10.8659 28.0573C11.3446 28.2751 11.9519 28.3804 12.7424 28.3804C13.4169 28.3804 13.975 28.2908 14.4467 28.0836C14.9217 27.8748 15.2971 27.5515 15.6126 27.1066C15.8839 26.7198 16.0611 26.2126 16.1714 25.6761C16.2822 25.1373 16.3281 24.5556 16.3281 24.0093C16.3281 23.4475 16.2822 22.855 16.1687 22.3077C16.0556 21.7627 15.8727 21.2495 15.5899 20.857C15.2909 20.4398 14.9326 20.1255 14.4645 19.9181C13.9995 19.7121 13.4387 19.6171 12.7424 19.6171C11.9455 19.6171 11.3226 19.7535 10.8288 20.0097ZM12.7424 21.0041C13.5626 21.0041 14.1222 21.1976 14.4614 21.7476C14.6173 21.9979 14.7259 22.3391 14.794 22.7364C14.8618 23.1316 14.888 23.5706 14.888 24.0093C14.888 24.4747 14.8591 24.9489 14.7763 25.3719C14.6931 25.7969 14.5587 26.1525 14.3606 26.3974C13.9707 26.8606 13.4603 26.9933 12.7424 26.9933C11.9116 26.9933 11.3063 26.8636 10.9625 26.2862C10.8269 26.047 10.731 25.7044 10.6703 25.2997C10.6099 24.8973 10.5863 24.4489 10.5863 24.0093C10.5863 23.569 10.6073 23.1364 10.6637 22.7529C10.7206 22.3666 10.8114 22.0447 10.942 21.8161C11.2805 21.1941 11.9148 21.0041 12.7424 21.0041Z" fill="#000000" class="bmwfcol"/><path d="M17.2606 26.5422V27.9608L17.4355 27.9974C18.1425 28.1451 19.2683 28.3804 20.1883 28.3804C21.2595 28.3804 21.997 28.1969 22.5702 27.6939C23.0721 27.2387 23.3281 26.629 23.3281 25.9091C23.3281 25.2696 23.1487 24.7162 22.7968 24.3399C22.4623 23.9815 22.025 23.7881 21.3341 23.5543L19.7427 23.0238C19.5082 22.9439 19.3167 22.8773 19.1604 22.8105C19.0034 22.7434 18.8966 22.682 18.8249 22.6183C18.6886 22.4962 18.6371 22.3367 18.6371 22.0034C18.6371 21.6916 18.7201 21.4407 18.9441 21.2574C19.1834 21.0701 19.5034 21.0041 20.1352 21.0041C20.8592 21.0041 22.0208 21.2828 22.7732 21.4655L23.0204 21.5255V20.0946L22.8671 20.0578C22.0336 19.8573 21.0335 19.6171 20.114 19.6171C19.1838 19.6171 18.4798 19.7318 17.9538 20.209C17.4031 20.6902 17.1969 21.3022 17.1969 22.0034C17.1969 22.6477 17.363 23.2304 17.7777 23.6222C18.1111 23.9546 18.5134 24.1147 19.0849 24.3052L20.6875 24.8465C20.9608 24.9376 21.175 25.0091 21.3463 25.0822C21.5159 25.1545 21.6263 25.2215 21.7006 25.2951C21.8398 25.4431 21.888 25.6156 21.888 25.9091C21.888 26.2464 21.7633 26.5228 21.5133 26.7137C21.2356 26.9098 20.9043 26.9933 20.2307 26.9933C19.449 26.9933 18.2919 26.7652 17.5029 26.5946L17.2606 26.5422Z" fill="#000000" class="bmwfcol"/><title>intelligent-emergency-call_lt_48</title></svg>