<svg width="48" height="48" viewBox="0 0 32 32" xmlns="http://www.w3.org/2000/svg"><path d="M20.6919 20.6919C20.4027 20.9812 20.0949 21.2508 19.7697 21.5H17.3434C18.287 21.074 19.1136 20.5026 19.8081 19.8081C20.5556 19.0605 21.1606 18.1598 21.5951 17.125H17.5726C17.3664 18.4145 17.0578 19.55 16.6565 20.4945C16.5047 20.8516 16.3359 21.1887 16.1502 21.5H14.6276C14.9406 21.1315 15.2371 20.6384 15.506 20.0055C15.8425 19.2139 16.1142 18.2456 16.3056 17.125H9.69429C9.8857 18.2458 10.1575 19.2142 10.494 20.0059C10.7629 20.6386 11.0593 21.1316 11.3722 21.5H9.84966C9.66399 21.1888 9.49527 20.8518 9.34355 20.4948C8.94212 19.5504 8.63354 18.4147 8.42735 17.125H4.40489C4.83936 18.1598 5.44436 19.0605 6.19194 19.8081C6.88645 20.5026 7.71305 21.074 8.6566 21.5H6.23026C5.9051 21.2508 5.59733 20.9812 5.30806 20.6919C3.42507 18.809 2.375 16.142 2.375 13C2.375 9.85797 3.42507 7.19105 5.30806 5.30806C7.19105 3.42507 9.85797 2.375 13 2.375C16.142 2.375 18.809 3.42507 20.6919 5.30806C22.5749 7.19105 23.625 9.85797 23.625 13C23.625 16.142 22.5749 18.809 20.6919 20.6919ZM3.625 13C3.625 14.0294 3.74824 14.9907 3.98151 15.875H8.26464C8.17243 14.9738 8.125 14.0121 8.125 13C8.125 11.9879 8.17243 11.0262 8.26464 10.125H3.9815C3.74824 11.0093 3.625 11.9706 3.625 13ZM22.0185 15.875C22.2518 14.9907 22.375 14.0294 22.375 13C22.375 11.9706 22.2518 11.0093 22.0185 10.125H17.7353C17.8276 11.0262 17.875 11.988 17.875 13C17.875 14.012 17.8276 14.9738 17.7353 15.875H22.0185ZM16.4784 15.875C16.5742 14.9887 16.625 14.0273 16.625 13C16.625 11.9727 16.5742 11.0113 16.4784 10.125H9.52153C9.42581 11.0113 9.375 11.9727 9.375 13C9.375 14.0273 9.42582 14.9887 9.52153 15.875H16.4784ZM8.42734 8.875C8.63354 7.58529 8.94211 6.44966 9.34355 5.50517C9.58798 4.93008 9.87653 4.40681 10.209 3.95974C8.60152 4.36887 7.24491 5.13897 6.19194 6.19194C5.44435 6.93953 4.83934 7.84018 4.40488 8.875H8.42734ZM9.69429 8.875H16.3056C16.1142 7.75441 15.8425 6.7861 15.506 5.99446C14.7948 4.32094 13.8911 3.625 13 3.625C12.1088 3.625 11.2052 4.32079 10.494 5.99412C10.1575 6.78579 9.8857 7.7542 9.69429 8.875ZM17.5726 8.875H21.5951C21.1607 7.84018 20.5557 6.93953 19.8081 6.19194C18.755 5.13893 17.3984 4.36881 15.7908 3.95969C16.1234 4.40687 16.412 4.9303 16.6565 5.50554C17.0578 6.44998 17.3664 7.58551 17.5726 8.875Z" fill="#000000" class="bmwfcol"/><path d="M6.13065 23.0051H4.99512L6.2354 28.9998H7.53678L8.45426 25.7249L9.37811 28.9998H10.6794L11.9117 23.0051H10.7837L9.93671 27.1182L9.01299 23.851H7.90134L6.98395 27.1176L6.13065 23.0051Z" fill="#000000" class="bmwfcol"/><path d="M13.6767 23.0051H12.5412L13.7815 28.9998H15.0829L16.0003 25.7249L16.9242 28.9998H18.2255L19.4578 23.0051H18.3298L17.4828 27.1182L16.5591 23.851H15.4474L14.53 27.1176L13.6767 23.0051Z" fill="#000000" class="bmwfcol"/><path d="M20.0873 23.0051H21.2228L22.0761 27.1176L22.9935 23.851H24.1052L25.0289 27.1182L25.8759 23.0051H27.0039L25.7716 28.9998H24.4703L23.5464 25.7249L22.6289 28.9998H21.3276L20.0873 23.0051Z" fill="#000000" class="bmwfcol"/><title>internet_lt_48</title></svg>