<svg width="48" height="48" viewBox="0 0 32 32" xmlns="http://www.w3.org/2000/svg"><path d="M21.5 2.5C20.9477 2.5 20.5 2.94772 20.5 3.5C20.5 4.05228 20.9477 4.5 21.5 4.5C22.0523 4.5 22.5 4.05228 22.5 3.5C22.5 2.94772 22.0523 2.5 21.5 2.5Z" fill="#000000" class="bmwfcol"/><path d="M2 5.46004V6.79004C2.12181 6.79004 2.23657 6.78986 2.34434 6.78968C2.93254 6.78872 3.322 6.78808 3.62543 6.81992C3.82247 6.8406 3.95018 6.87236 4.0459 6.91532C3.66987 7.26728 3.30949 7.62257 3.02424 7.97049C2.67421 8.39743 2.335 8.93191 2.335 9.53212V16.165H6.665V15.2749C9.70663 15.4717 12.2934 15.4717 15.335 15.2749V15.3119C15.5524 15.1371 15.805 14.9685 16.0921 14.8343C16.2785 14.7413 16.4643 14.657 16.665 14.5829V13.8473L15.9517 13.8993C12.4171 14.1569 9.58286 14.1569 6.04835 13.8993L5.335 13.8473V14.835H3.665V9.53212C3.665 9.41833 3.74151 9.19337 4.05276 8.81374C4.34901 8.45239 4.76806 8.05572 5.26392 7.60011L5.43048 7.4469L5.52165 7.24004C5.667 6.91079 5.97717 6.27142 6.35087 5.67571C6.53785 5.37764 6.73204 5.10454 6.92061 4.89038C7.11863 4.66551 7.2676 4.55534 7.35417 4.51734L7.37077 4.51005L7.38694 4.50187C7.65762 4.365 7.8335 4.29061 8.27508 4.2404C8.7639 4.18483 9.53932 4.165 11 4.165C13.6985 4.165 14.1256 4.25505 14.6127 4.50172L14.6286 4.50973L14.6448 4.5169C14.732 4.55534 14.8813 4.66606 15.0793 4.89103C15.268 5.10535 15.4622 5.37847 15.6492 5.67644C16.0229 6.27199 16.3332 6.91124 16.4785 7.24036L16.5695 7.4469L16.7364 7.60036C17.2322 8.05597 17.651 8.45239 17.9472 8.81374C18.2585 9.19337 18.335 9.41833 18.335 9.53212V14.2582C18.7044 14.2312 19.1403 14.2161 19.665 14.208V9.53212C19.665 8.93191 19.3258 8.39743 18.9758 7.97049C18.6905 7.62255 18.3301 7.26725 17.9541 6.91527C18.0496 6.87236 18.1773 6.8406 18.3744 6.81992C18.6779 6.78808 19.0674 6.78872 19.6557 6.78968C19.7635 6.78985 19.8781 6.79004 20 6.79004V5.46004C19.8876 5.46004 19.7788 5.4598 19.6733 5.45958C19.0926 5.45832 18.6159 5.45728 18.2356 5.49719C17.8729 5.53525 17.5473 5.61415 17.2455 5.78466C17.1068 5.52414 16.9479 5.24387 16.7757 4.9695C16.5672 4.63711 16.3304 4.29938 16.0776 4.01223C15.8383 3.74039 15.5418 3.46384 15.1991 3.30786C14.3796 2.89679 13.5985 2.835 11 2.835C9.55459 2.835 8.70186 2.85331 8.12484 2.91892C7.50836 2.98901 7.18116 3.11649 6.80117 3.30772C6.45818 3.46337 6.1616 3.73984 5.92245 4.01143C5.66959 4.29858 5.43279 4.63643 5.2242 4.96894C5.05198 5.24348 4.89306 5.52395 4.75434 5.78464C4.45253 5.61418 4.12704 5.53526 3.76424 5.49719C3.38399 5.45728 2.90742 5.45832 2.32671 5.45958C2.22126 5.45981 2.11237 5.46004 2 5.46004Z" fill="#000000" class="bmwfcol"/><path d="M24.7697 4.05896L24.035 7.03504L21.059 7.76972C21.0202 8.00741 21 8.25135 21 8.5C21 8.74864 21.0202 8.99257 21.059 9.23025L24.035 9.96493L24.7697 12.941C25.0074 12.9798 25.2513 13 25.5 13C25.7486 13 25.9925 12.9798 26.2302 12.9411L26.9649 9.96493L29.9411 9.23022C29.9798 8.99255 30 8.74863 30 8.5C30 8.25136 29.9798 8.00743 29.941 7.76975L26.9649 7.03504L26.2302 4.05894C25.9925 4.02016 25.7486 4 25.5 4C25.2513 4 25.0074 4.02017 24.7697 4.05896ZM25.4999 5.8991L26.0149 7.98504L28.1008 8.49998L26.0149 9.01493L25.4999 11.1009L24.985 9.01493L22.8991 8.49998L24.985 7.98504L25.4999 5.8991Z" fill="#000000" class="bmwfcol"/><path d="M8.22181 22.335L5.88681 20H7.51315L10.5132 23L7.51315 26H5.88681L8.22181 23.665H6.99997C5.41085 23.665 4.19096 23.2951 3.38702 22.4268C2.59297 21.5692 2.33497 20.3631 2.33497 19V18H3.66497V19C3.66497 20.2369 3.90696 21.0308 4.36292 21.5232C4.80898 22.0049 5.58909 22.335 6.99997 22.335H8.22181Z" fill="#000000" class="bmwfcol"/><path d="M21.5 12.5C21.5 11.9477 21.9477 11.5 22.5 11.5C23.0523 11.5 23.5 11.9477 23.5 12.5C23.5 13.0523 23.0523 13.5 22.5 13.5C21.9477 13.5 21.5 13.0523 21.5 12.5Z" fill="#000000" class="bmwfcol"/><path d="M28.5 13.5C27.9477 13.5 27.5 13.9477 27.5 14.5C27.5 15.0523 27.9477 15.5 28.5 15.5C29.0523 15.5 29.5 15.0523 29.5 14.5C29.5 13.9477 29.0523 13.5 28.5 13.5Z" fill="#000000" class="bmwfcol"/><path d="M27.5 4.5C27.5 3.94772 27.9477 3.5 28.5 3.5C29.0523 3.5 29.5 3.94772 29.5 4.5C29.5 5.05228 29.0523 5.5 28.5 5.5C27.9477 5.5 27.5 5.05228 27.5 4.5Z" fill="#000000" class="bmwfcol"/><path d="M20.3987 21.6475H18.1113L17.335 22.3781V24.457L18.3609 25.9775H20.7012L21 25.6963L21.2988 25.9775H23.6748L24.665 24.4504V22.3781L23.8887 21.6475H21.6013L21 21.9305L20.3987 21.6475ZM18.665 24.0503V22.9775H20.1013L20.1493 23H20.075V24.6475H19.0679L18.665 24.0503ZM21.925 23H21.8507L21.8987 22.9775H23.335V24.0569L22.9521 24.6475H21.925V23Z" fill="#000000" class="bmwfcol"/><path d="M13.7642 18.4972C13.384 18.4573 12.9068 18.4583 12.3261 18.4596C12.2208 18.4598 12.1121 18.46 12 18.46V19.79C12.1219 19.79 12.2364 19.7898 12.3442 19.7897C12.9324 19.7887 13.322 19.7881 13.6254 19.8199C13.7721 19.8353 13.8804 19.8568 13.9656 19.8846L14.0181 19.9414C13.6521 20.2848 13.3025 20.6311 13.0242 20.9705C12.6742 21.3974 12.335 21.9319 12.335 22.5321V29.165H16.665V28.2748C19.7066 28.4717 22.2934 28.4717 25.335 28.2748V29.165H29.665V22.5321C29.665 21.9319 29.3258 21.3974 28.9758 20.9705C28.6972 20.6307 28.347 20.284 27.9806 19.9401L28.0309 19.8856C28.1166 19.8574 28.2258 19.8355 28.3744 19.8199C28.6779 19.7881 29.0675 19.7887 29.6557 19.7897C29.7635 19.7898 29.8781 19.79 30 19.79V18.46C29.8879 18.46 29.7785 18.4598 29.6733 18.4596C29.0926 18.4583 28.6159 18.4573 28.2356 18.4972C27.8729 18.5352 27.5473 18.6141 27.2455 18.7846C27.1068 18.5241 26.9479 18.2438 26.7757 17.9695C26.5672 17.6371 26.3304 17.2994 26.0776 17.0122C25.8383 16.7404 25.5418 16.4638 25.1991 16.3078C24.3796 15.8968 23.5985 15.835 21 15.835C19.5546 15.835 18.7019 15.8533 18.1248 15.9189C17.5084 15.989 17.1812 16.1165 16.8012 16.3077C16.4582 16.4633 16.1616 16.7398 15.9224 17.0114C15.6696 17.2986 15.4328 17.6364 15.2242 17.9689C15.052 18.2435 14.8931 18.5239 14.7543 18.7846C14.4525 18.6142 14.127 18.5352 13.7642 18.4972ZM17.3869 17.5019C17.6576 17.365 17.8335 17.2906 18.2751 17.2404C18.7639 17.1848 19.5393 17.165 21 17.165C23.6985 17.165 24.1256 17.255 24.6127 17.5017L24.6286 17.5097L24.6448 17.5169C24.732 17.5553 24.8813 17.666 25.0793 17.891C25.268 18.1053 25.4622 18.3784 25.6492 18.6764C25.7667 18.8637 25.8779 19.0552 25.9797 19.2401L25.9224 19.2374C25.1452 19.2028 24.0609 19.205 22.5538 19.208C22.079 19.209 21.5623 19.21 21 19.21C20.4377 19.21 19.9209 19.209 19.4461 19.208C17.939 19.205 16.854 19.2028 16.0764 19.2374L16.0201 19.24C16.122 19.0549 16.2333 18.8632 16.3509 18.6757C16.5379 18.3776 16.732 18.1045 16.9206 17.8904C17.1186 17.6655 17.2676 17.5553 17.3542 17.5173L17.3708 17.51L17.3869 17.5019ZM26.7939 20.6532C27.2646 21.0867 27.6625 21.4664 27.9472 21.8137C27.967 21.8378 27.9858 21.8613 28.0038 21.8842C27.2891 22.0406 26.5201 22.1331 25.5 22.2102V23.5439C26.6187 23.4618 27.4951 23.3602 28.335 23.173V27.835H26.665V26.8472L25.9517 26.8992C22.4171 27.1569 19.5829 27.1569 16.0483 26.8992L15.335 26.8472V27.835H13.665V23.1728C14.5049 23.3601 15.3813 23.4616 16.5 23.5438V22.21C15.4799 22.1329 14.711 22.0404 13.9964 21.8841C14.0142 21.8612 14.033 21.8378 14.0528 21.8137C14.3376 21.4663 14.7357 21.0865 15.2066 20.6528C15.4209 20.6137 15.7171 20.5847 16.1355 20.5661C16.8796 20.533 17.9191 20.5351 19.4129 20.538L19.4157 20.538H19.4178C19.8968 20.539 20.4224 20.54 21 20.54C21.578 20.54 22.1041 20.539 22.5833 20.538H22.5846L22.5872 20.538C24.0807 20.5351 25.1197 20.533 25.8633 20.5661C26.2831 20.5848 26.5797 20.6139 26.7939 20.6532Z" fill="#000000" class="bmwfcol"/><title>intelligent_car_recommendation_lt_48</title></svg>