<svg width="48" height="48" viewBox="0 0 32 32" xmlns="http://www.w3.org/2000/svg"><path d="M28.1557 5.33499C27.0549 5.33499 26.2259 5.53214 25.6679 5.98389C25.0738 6.46496 24.9185 7.12215 24.9185 7.70834L24.9185 7.80102C24.9184 8.92833 24.9184 9.67535 25.0169 10.2222C25.0914 10.6356 25.2224 10.9441 25.4133 11.2271C25.3172 11.3469 25.2211 11.4751 25.124 11.6119C24.763 12.1202 24.3612 12.7847 23.8682 13.6401C22.9545 15.2255 22.3516 16.4219 21.986 17.674C21.6674 18.7652 21.5372 19.8695 21.5081 21.2744L21.2976 21.2395C21.1085 21.2082 20.8367 21.1636 20.5054 21.1101C19.8431 21.003 18.9422 20.8603 17.9889 20.7174C16.1122 20.4362 13.9453 20.1406 13.0555 20.1406C12.5655 20.1406 12.0976 20.2935 11.751 20.64C11.4045 20.9866 11.2516 21.4545 11.2516 21.9445L11.2515 22.1125C11.2505 23.84 11.2497 25.0653 12.3006 26.1162C12.7892 26.6049 13.2479 26.8962 13.8306 27.0391C14.3451 27.1653 14.9315 27.1652 15.6177 27.165L25.5678 27.165L28.8707 14.8451C29.2537 13.4164 29.4552 12.6417 29.5577 12.0818C29.665 11.495 29.665 11.1341 29.665 10.5682L29.665 9.06537L28.666 5.33499H28.1557ZM28.3349 9.89332C27.6259 9.90614 27.0029 9.97308 26.42 10.3121C26.3768 10.2153 26.3486 10.1127 26.3258 9.98628C26.2513 9.57267 26.2485 8.95333 26.2485 7.70834C26.2485 7.35204 26.335 7.15505 26.5048 7.01757C26.6719 6.88232 27.004 6.73459 27.6503 6.68354L28.335 9.24033L28.3349 9.89332ZM21.2975 22.5877L21.4278 22.6095H22.8316V21.9445C22.8316 20.2671 22.9455 19.133 23.2627 18.0468C23.5819 16.9537 24.1179 15.8703 25.0205 14.3043C25.5121 13.4514 25.8869 12.8346 26.2083 12.382C26.5302 11.9287 26.7728 11.6776 26.9876 11.5267C27.3032 11.3048 27.6238 11.2427 28.3246 11.2262C28.314 11.4235 28.2926 11.6063 28.2494 11.8424C28.1589 12.337 27.9746 13.0515 27.5861 14.5007L24.5474 25.835L15.6835 25.835C14.909 25.8351 14.4871 25.8307 14.1474 25.7474C13.8595 25.6768 13.6064 25.5411 13.241 25.1757C12.6176 24.5523 12.5816 23.9137 12.5816 21.9445C12.5816 21.7284 12.6451 21.6269 12.6915 21.5805C12.7379 21.5341 12.8394 21.4706 13.0555 21.4706C13.8215 21.4706 15.8686 21.7445 17.7918 22.0327C18.7385 22.1746 19.6341 22.3165 20.2933 22.423C20.6228 22.4763 20.893 22.5206 21.0807 22.5517L21.2975 22.5877Z" fill="#000000" class="bmwfcol"/><path d="M10.1463 8.77478C10.0512 8.42002 10.2618 8.05538 10.6165 7.96032C10.9713 7.86527 11.3359 8.07579 11.431 8.43055L13.4863 16.1012C13.5814 16.4559 13.3708 16.8206 13.0161 16.9156C12.6613 17.0107 12.2967 16.8001 12.2016 16.4454L10.1463 8.77478Z" fill="#000000" class="bmwfcol"/><path d="M7.98909 12.2172L2 12.2171L2 10.8871L9.01089 10.8872L10.1004 14.9725L9.02713 18.3263L3.47475 20.0158V18.6256L7.97291 17.2569L8.7148 14.9385L7.98909 12.2172Z" fill="#000000" class="bmwfcol"/><title>interior_seat_and_dashboard_side_lt_48</title></svg>