<svg width="48" height="48" viewBox="0 0 32 32" xmlns="http://www.w3.org/2000/svg"><path d="M15.999 3.33496C14.8394 3.33496 13.7343 3.45456 12.6938 3.68667L12.9834 4.98476C13.9231 4.77512 14.9309 4.66496 15.999 4.66496C17.0671 4.66496 18.0748 4.77512 19.0146 4.98476L19.3042 3.68666C18.2637 3.45456 17.1586 3.33496 15.999 3.33496Z" fill="#000000" class="bmwfcol"/><path d="M27.1658 9.54513C26.0942 7.51513 24.4838 5.90474 22.4538 4.83314L21.8329 6.00932C23.6262 6.95593 25.043 8.37279 25.9896 10.166L27.1658 9.54513Z" fill="#000000" class="bmwfcol"/><path d="M9.54416 4.83314C7.51415 5.90474 5.90376 7.51513 4.83216 9.54513L6.00834 10.166C6.95496 8.37279 8.37181 6.95593 10.165 6.00932L9.54416 4.83314Z" fill="#000000" class="bmwfcol"/><path d="M28.664 16C28.664 14.8404 28.5444 13.7352 28.3123 12.6948L27.0142 12.9844C27.2238 13.9241 27.334 14.9318 27.334 16C27.334 17.0681 27.2238 18.0758 27.0142 19.0156L28.3123 19.3051C28.5444 18.2647 28.664 17.1596 28.664 16Z" fill="#000000" class="bmwfcol"/><path d="M3.68569 12.6948C3.45359 13.7352 3.33398 14.8404 3.33398 16C3.33398 17.1596 3.45359 18.2647 3.68569 19.3051L4.98378 19.0156C4.77414 18.0758 4.66398 17.0681 4.66398 16C4.66398 14.9318 4.77414 13.9241 4.98378 12.9844L3.68569 12.6948Z" fill="#000000" class="bmwfcol"/><path d="M4.83216 22.4548C5.90376 24.4848 7.51415 26.0952 9.54416 27.1668L10.165 25.9906C8.37181 25.044 6.95496 23.6271 6.00834 21.8339L4.83216 22.4548Z" fill="#000000" class="bmwfcol"/><path d="M22.4538 27.1668C24.4838 26.0952 26.0942 24.4848 27.1658 22.4548L25.9896 21.8339C25.043 23.6271 23.6262 25.044 21.8329 25.9906L22.4538 27.1668Z" fill="#000000" class="bmwfcol"/><path d="M12.6938 28.3133C13.7343 28.5454 14.8394 28.665 15.999 28.665C17.1586 28.665 18.2637 28.5454 19.3042 28.3133L19.0146 27.0152C18.0748 27.2248 17.0671 27.335 15.999 27.335C14.9309 27.335 13.9231 27.2248 12.9834 27.0152L12.6938 28.3133Z" fill="#000000" class="bmwfcol"/><path d="M15.999 7.33496C13.4479 7.33496 11.2703 8.18824 9.72876 9.72973C8.18726 11.2712 7.33398 13.4488 7.33398 16C7.33398 18.5511 8.18726 20.7287 9.72876 22.2702C11.2703 23.8117 13.4479 24.665 15.999 24.665C18.5501 24.665 20.7277 23.8117 22.2692 22.2702C23.8107 20.7287 24.664 18.5511 24.664 16C24.664 13.4488 23.8107 11.2712 22.2692 9.72973C20.7277 8.18824 18.5501 7.33496 15.999 7.33496ZM8.68637 15.335C8.81925 13.3905 9.53719 11.8022 10.6692 10.6702C11.4579 9.88151 12.468 9.29382 13.6658 8.96494C13.4882 9.27442 13.3338 9.6128 13.2013 9.96616C12.6898 11.3301 12.3921 13.1767 12.3417 15.335H8.68637ZM8.68637 16.665H12.3417C12.3921 18.8232 12.6898 20.6698 13.2013 22.0338C13.3338 22.3871 13.4882 22.7255 13.6658 23.035C12.468 22.7061 11.4579 22.1184 10.6692 21.3297C9.53719 20.1977 8.81925 18.6095 8.68637 16.665ZM13.672 16.665H18.3259C18.2755 18.717 17.9914 20.393 17.5513 21.5665C17.0413 22.9265 16.4445 23.335 15.999 23.335C15.5534 23.335 14.9566 22.9266 14.4466 21.5667C14.0066 20.3933 13.7225 18.7173 13.672 16.665ZM13.672 15.335C13.7225 13.2826 14.0066 11.6066 14.4466 10.4332C14.9566 9.07333 15.5534 8.66496 15.999 8.66496C16.4445 8.66496 17.0413 9.07343 17.5513 10.4335C17.9914 11.607 18.2755 13.283 18.3259 15.335H13.672ZM19.6563 15.335C19.6059 13.1771 19.3081 11.3304 18.7966 9.96646C18.6641 9.61299 18.5097 9.27449 18.332 8.9649C19.5299 9.29377 20.54 9.88148 21.3288 10.6702C22.4608 11.8022 23.1787 13.3905 23.3116 15.335H19.6563ZM19.6563 16.665H23.3116C23.1787 18.6095 22.4608 20.1977 21.3288 21.3297C20.54 22.1184 19.5299 22.7062 18.332 23.035C18.5097 22.7254 18.6641 22.3869 18.7966 22.0335C19.3081 20.6695 19.6059 18.8229 19.6563 16.665Z" fill="#000000" class="bmwfcol"/><title>intranet_lt_48</title></svg>