<svg width="48" height="48" viewBox="0 0 32 32" xmlns="http://www.w3.org/2000/svg"><path d="M22 2.33496C20.9489 2.33496 20.0212 2.68824 19.3547 3.35473C18.6882 4.02123 18.335 4.94884 18.335 5.99996V11C18.335 12.0511 18.6882 12.9787 19.3547 13.6452C20.0212 14.3117 20.9489 14.665 22 14.665C23.0511 14.665 23.9787 14.3117 24.6452 13.6452C25.3117 12.9787 25.665 12.0511 25.665 11V5.99996C25.665 4.94884 25.3117 4.02123 24.6452 3.35473C23.9787 2.68824 23.0511 2.33496 22 2.33496ZM19.665 5.99996C19.665 5.25108 19.9117 4.67869 20.2952 4.29519C20.6787 3.91168 21.2511 3.66496 22 3.66496C22.7488 3.66496 23.3212 3.91168 23.7047 4.29519C24.0882 4.67869 24.335 5.25108 24.335 5.99996V11C24.335 11.7488 24.0882 12.3212 23.7047 12.7047C23.3212 13.0882 22.7488 13.335 22 13.335C21.2511 13.335 20.6787 13.0882 20.2952 12.7047C19.9117 12.3212 19.665 11.7488 19.665 11V5.99996Z" fill="#000000" class="bmwfcol"/><path d="M27.5452 16.5452C26.3153 17.7752 24.6308 18.5083 22.665 18.6426V23H21.335V18.6426C19.3692 18.5083 17.6847 17.7752 16.4547 16.5452C15.0882 15.1787 14.335 13.2511 14.335 11H15.665C15.665 12.9489 16.3117 14.5213 17.3952 15.6048C18.4787 16.6883 20.0511 17.335 22 17.335C23.9489 17.335 25.5212 16.6883 26.6047 15.6048C27.6882 14.5213 28.335 12.9489 28.335 11H29.665C29.665 13.2511 28.9117 15.1787 27.5452 16.5452Z" fill="#000000" class="bmwfcol"/><path d="M2.88257 28.4H3.94059V19.9975H2.88257V28.4Z" fill="#000000" class="bmwfcol"/><path d="M5.70173 28.4H6.75976V25.2691C7.77021 25.2689 8.77116 25.2666 9.22032 25.2258C9.95375 25.1601 10.5405 24.9698 10.9514 24.4502C11.3856 23.8987 11.4933 23.2171 11.4933 22.5113C11.4933 21.8338 11.2843 21.1071 10.8644 20.6745C10.4097 20.1964 9.82723 19.9975 8.88408 19.9975H5.70173V28.4ZM6.75976 24.2322V21.0343H8.83102C9.43131 21.0343 9.78283 21.1116 10.0189 21.3392C10.2627 21.5743 10.4141 22.0113 10.4141 22.5113C10.4141 23.0223 10.3498 23.4182 10.1709 23.6964C9.96651 24.002 9.65038 24.1291 9.11977 24.1801C8.6064 24.2285 7.67845 24.232 6.75976 24.2322Z" fill="#000000" class="bmwfcol"/><path d="M12.2742 28.4H11.157L14.333 19.9975H15.4797L18.6557 28.4H17.5172L16.7106 26.2773H13.0808L12.2742 28.4ZM13.4654 25.2405H16.316L14.8951 21.4456L13.4654 25.2405Z" fill="#000000" class="bmwfcol"/><title>ipa_lt_48</title></svg>