<svg width="48" height="48" viewBox="0 0 32 32" xmlns="http://www.w3.org/2000/svg"><path d="M6.66398 5.33496V2H5.33398V5.33496L1.99805 5.33496V6.66496L5.33398 6.66496V10H6.66398V6.66496L9.99805 6.66496V5.33496L6.66398 5.33496Z" fill="#000000" class="bmwfcol"/><path d="M19.3548 3.35483C20.0213 2.68833 20.9489 2.33506 22.0001 2.33506C23.0512 2.33506 23.9788 2.68833 24.6453 3.35483C25.3118 4.02133 25.6651 4.94894 25.6651 6.00006V11.0001C25.6651 12.0512 25.3118 12.9788 24.6453 13.6453C23.9788 14.3118 23.0512 14.6651 22.0001 14.6651C20.9489 14.6651 20.0213 14.3118 19.3548 13.6453C18.6883 12.9788 18.3351 12.0512 18.3351 11.0001V6.00006C18.3351 4.94894 18.6883 4.02133 19.3548 3.35483ZM20.2953 4.29528C19.9118 4.67879 19.6651 5.25118 19.6651 6.00006V11.0001C19.6651 11.7489 19.9118 12.3213 20.2953 12.7048C20.6788 13.0883 21.2512 13.3351 22.0001 13.3351C22.7489 13.3351 23.3213 13.0883 23.7048 12.7048C24.0883 12.3213 24.3351 11.7489 24.3351 11.0001V6.00006C24.3351 5.25118 24.0883 4.67879 23.7048 4.29528C23.3213 3.91178 22.7489 3.66506 22.0001 3.66506C21.2512 3.66506 20.6788 3.91178 20.2953 4.29528Z" fill="#000000" class="bmwfcol"/><path d="M22.6651 18.6427C24.6309 18.5084 26.3154 17.7753 27.5453 16.5453C28.9118 15.1788 29.6651 13.2512 29.6651 11.0001H28.3351C28.3351 12.949 27.6883 14.5214 26.6048 15.6049C25.5213 16.6884 23.9489 17.3351 22.0001 17.3351C20.0512 17.3351 18.4788 16.6884 17.3953 15.6049C16.3118 14.5214 15.6651 12.949 15.6651 11.0001H14.3351C14.3351 13.2512 15.0883 15.1788 16.4548 16.5453C17.6848 17.7753 19.3693 18.5084 21.3351 18.6427V23.0001H22.6651V18.6427Z" fill="#000000" class="bmwfcol"/><path d="M2.88262 19.9976H3.94064V28.4H2.88262V19.9976Z" fill="#000000" class="bmwfcol"/><path d="M14.333 19.9976H15.4797L18.6557 28.4H17.5173L16.7107 26.2773H13.0809L12.2742 28.4H11.157L14.333 19.9976ZM13.4655 25.2405H16.3161L14.8952 21.4456L13.4655 25.2405Z" fill="#000000" class="bmwfcol"/><path d="M5.70178 19.9976H8.88413C9.82728 19.9976 10.4097 20.1964 10.8644 20.6745C11.2844 21.1071 11.4934 21.8338 11.4934 22.5113C11.4934 23.2172 11.3858 23.8983 10.9517 24.4499L10.9514 24.4502C10.5406 24.9698 9.9538 25.1601 9.22037 25.2258C8.77121 25.2666 7.77026 25.2689 6.75981 25.2691V28.4H5.70178V19.9976ZM6.75981 21.0344V24.2323C7.6785 24.232 8.60645 24.2285 9.11982 24.1801C9.65043 24.1291 9.96656 24.002 10.1709 23.6964C10.3498 23.4182 10.4141 23.0223 10.4141 22.5113C10.4141 22.0114 10.2628 21.5743 10.0189 21.3392C9.78288 21.1116 9.43136 21.0344 8.83106 21.0344H6.75981Z" fill="#000000" class="bmwfcol"/><title>ipa_plus_lt_48</title></svg>