<svg width="48" height="48" viewBox="0 0 32 32" xmlns="http://www.w3.org/2000/svg"><path d="M9.99937 3.79881V2.38477C11.4019 2.3925 13.2984 2.58053 14.9326 3.22433C16.4186 3.80974 17.7865 4.81882 18.2547 6.4917C19.752 6.24129 21.2065 6.58479 22.3951 7.08817C23.4443 7.53249 24.3289 8.1189 24.9139 8.59965V10.0402C24.279 10.0402 21.909 10.0412 19.5478 10.3878C20.3071 11.2845 20.8928 12.272 21.126 13.4966C21.4105 14.99 21.1542 16.7444 20.2249 18.9997H18.7317C18.2107 16.5848 17.5864 15.2586 16.9904 14.3645C16.9232 14.2637 16.856 14.1678 16.7887 14.0757C15.8506 16.2787 15.4187 18.5327 15.228 20.3329C15.117 21.3807 15.0884 22.2674 15.0875 22.8901C15.0872 23.0636 15.0891 23.2165 15.092 23.3465C15.3886 23.3386 15.691 23.3347 15.9994 23.3347C22.0168 23.3347 25.772 24.822 27.9639 27.9997H26.2808C24.3702 25.8258 21.2402 24.6647 15.9994 24.6647C10.7587 24.6647 7.62868 25.8258 5.71809 27.9997H4.03501C5.40132 26.0189 7.37507 24.6949 10.1255 23.9785C10.1366 23.8013 10.1539 23.5704 10.1807 23.2929C10.2465 22.611 10.37 21.6462 10.6012 20.5052C10.939 18.8379 11.5091 16.7824 12.4723 14.6793C12.2058 14.8509 11.9413 15.015 11.6806 15.1698C10.971 15.5914 10.28 15.9506 9.65039 16.2061C9.0731 16.4404 8.50411 16.6056 8 16.6265V14.297C8.68528 12.9788 9.41739 12.0818 10.2444 11.1936C8.11312 11.3412 5.74292 11.7617 4 12.1904V10.3831C4.97733 9.37656 6.39959 8.27095 7.94492 7.50191C9.53435 6.71092 11.3982 6.20908 13.0705 6.70293C12.8622 6.25559 12.5308 5.82975 12.1084 5.41664C11.4846 4.80646 10.7226 4.28128 9.99937 3.79881ZM15.4714 12.5053C15.2237 12.7045 14.9709 12.9027 14.7147 13.0984C13.1071 15.7701 12.2652 18.5871 11.8263 20.7534C11.605 21.8457 11.4872 22.7671 11.4249 23.413C11.4149 23.5159 11.4064 23.6117 11.3991 23.7001C12.1606 23.563 12.9743 23.4649 13.843 23.4051C13.8396 23.2591 13.8372 23.0859 13.8375 22.8883C13.8385 22.23 13.8686 21.2993 13.9849 20.2012C14.2 18.1711 14.7123 15.5436 15.8981 13.0043C15.7567 12.8443 15.6129 12.6796 15.4714 12.5053ZM12.0765 3.76487C12.3856 4.00612 12.6886 4.26351 12.9685 4.53732C13.8218 5.37192 14.5483 6.44117 14.5483 7.77801L13.5922 8.28972C12.231 7.38229 10.3699 7.66898 8.49293 8.60308C7.39994 9.14701 6.37791 9.8752 5.56724 10.5895C7.52888 10.2095 9.8177 9.90816 11.7371 9.90816L12.1805 10.9494C12.0835 11.0503 11.9883 11.149 11.8948 11.2458C10.6945 12.4896 9.7854 13.4316 8.94121 15.1615C9.02043 15.1326 9.10267 15.1009 9.18788 15.0664C9.7421 14.8415 10.3757 14.5143 11.0524 14.1123C12.4053 13.3086 13.8886 12.2306 15.1868 11.1488L16.0922 11.2801C16.3274 11.633 16.5914 11.9316 16.9043 12.2854L16.9507 12.3379C17.2789 12.7093 17.6459 13.1303 18.0138 13.6822C18.5631 14.5061 19.095 15.5914 19.5615 17.2351C20.0228 15.7674 20.093 14.6467 19.9177 13.7267C19.6776 12.4657 18.9571 11.4754 17.8908 10.4091L18.2051 9.37114C19.9257 9.02701 21.7794 8.89398 23.1264 8.84255C22.7673 8.62456 22.359 8.40862 21.9155 8.22079C20.7034 7.70751 19.2993 7.43354 17.9456 7.8203L17.1664 7.30525C16.9864 5.86554 15.9476 4.94618 14.4818 4.36873C13.7266 4.07121 12.8913 3.88021 12.0765 3.76487Z" fill="#000000" class="bmwfcol"/><title>island_lt_48</title></svg>