<svg width="48" height="48" viewBox="0 0 32 32" xmlns="http://www.w3.org/2000/svg"><path d="M19.9997 3.9002C18.0804 3.9002 16.1277 4.72084 14.4242 6.42437C11.8959 8.95269 11.2938 12.0425 12.4986 14.8124L12.6615 15.187L4.59991 23.2487L4.59994 27.4001H8.39994V24.4001H11.3999V21.4001H14.7514L16.8131 19.3384L17.1878 19.5013C19.9575 20.7058 23.0471 20.1036 25.5753 17.5754C27.2788 15.8719 28.0995 13.9193 28.0995 11.9999C28.0995 10.0805 27.2788 8.1279 25.5753 6.42437C23.8718 4.72084 21.9191 3.9002 19.9997 3.9002ZM19.9997 2.7002C22.2802 2.7002 24.5275 3.67949 26.4238 5.57584C28.3202 7.4722 29.2995 9.71943 29.2995 11.9999C29.2995 14.2804 28.3202 16.5276 26.4238 18.424C23.6983 21.1495 20.2608 21.9627 17.0912 20.7574L15.2485 22.6001H12.5999V25.6001H9.59994V28.6001H3.39995L3.3999 22.7516L11.2425 14.909C10.0369 11.7393 10.85 8.30157 13.5757 5.57584C15.472 3.67949 17.7193 2.7002 19.9997 2.7002ZM21.9999 8.60011C21.2267 8.60011 20.5999 9.22691 20.5999 10.0001C20.5999 10.7733 21.2267 11.4001 21.9999 11.4001C22.7731 11.4001 23.3999 10.7733 23.3999 10.0001C23.3999 9.22691 22.7731 8.60011 21.9999 8.60011ZM19.3999 10.0001C19.3999 8.56417 20.564 7.40011 21.9999 7.40011C23.4359 7.40011 24.5999 8.56417 24.5999 10.0001C24.5999 11.436 23.4359 12.6001 21.9999 12.6001C20.564 12.6001 19.3999 11.436 19.3999 10.0001Z" fill="#000000" class="bmwfcol"/><title>key_lt_48</title></svg>