<svg width="48" height="48" viewBox="0 0 32 32" xmlns="http://www.w3.org/2000/svg"><path d="M14.835 7.99996C14.835 7.35655 15.3565 6.83496 16 6.83496C16.6434 6.83496 17.165 7.35655 17.165 7.99996C17.165 8.64337 16.6434 9.16496 16 9.16496C15.3565 9.16496 14.835 8.64337 14.835 7.99996Z" fill="#000000" class="bmwfcol"/><path d="M14.835 20C14.835 19.3565 15.3565 18.835 16 18.835C16.6434 18.835 17.165 19.3565 17.165 20C17.165 20.6434 16.6434 21.165 16 21.165C15.3565 21.165 14.835 20.6434 14.835 20Z" fill="#000000" class="bmwfcol"/><path d="M16 10.835C14.252 10.835 12.835 12.252 12.835 14C12.835 15.7479 14.252 17.165 16 17.165C17.7479 17.165 19.165 15.7479 19.165 14C19.165 12.252 17.7479 10.835 16 10.835ZM14.165 14C14.165 12.9865 14.9865 12.165 16 12.165C17.0134 12.165 17.835 12.9865 17.835 14C17.835 15.0134 17.0134 15.835 16 15.835C14.9865 15.835 14.165 15.0134 14.165 14Z" fill="#000000" class="bmwfcol"/><path d="M16 2.33496C13.873 2.33496 11.8881 2.63976 10.0811 3.22224L9.69493 3.34671L9.62895 3.74702C8.77454 8.93054 8.33496 14.3569 8.33496 20C8.33496 22.6614 8.43274 25.2746 8.6257 27.8369L8.65691 28.2515L9.04326 28.405C11.1182 29.2294 13.4576 29.665 16 29.665C18.5424 29.665 20.8817 29.2294 22.9567 28.405L23.343 28.2515L23.3742 27.8369C23.5672 25.2746 23.665 22.6614 23.665 20C23.665 14.3569 23.2254 8.93054 22.371 3.74702L22.305 3.34671L21.9188 3.22224C20.1118 2.63976 18.1269 2.33496 16 2.33496ZM9.66496 20C9.66496 14.5733 10.0765 9.35535 10.8753 4.36908C12.438 3.90922 14.1535 3.66496 16 3.66496C17.8464 3.66496 19.5619 3.90922 21.1246 4.36908C21.9234 9.35535 22.335 14.5733 22.335 20C22.335 21.0881 22.3184 22.1679 22.2855 23.2391C20.4246 23.9509 18.3152 24.3349 15.9999 24.3349C13.6847 24.3349 11.5753 23.9509 9.71441 23.2391C9.68151 22.1679 9.66496 21.0881 9.66496 20ZM9.76845 24.6735C11.6581 25.3237 13.7495 25.6649 15.9999 25.6649C18.2504 25.6649 20.3418 25.3237 22.2315 24.6735C22.1918 25.5606 22.1409 26.4416 22.0787 27.3165C20.2689 27.9787 18.2299 28.335 16 28.335C13.77 28.335 11.731 27.9787 9.92117 27.3165C9.85902 26.4416 9.80808 25.5606 9.76845 24.6735Z" fill="#000000" class="bmwfcol"/><title>key-car_lt_48</title></svg>