<svg width="48" height="48" viewBox="0 0 32 32" xmlns="http://www.w3.org/2000/svg"><path d="M19.6112 10.6664C19.9329 11.2236 19.742 11.9361 19.1847 12.2578C18.6275 12.5795 17.915 12.3886 17.5933 11.8314C17.2716 11.2742 17.4625 10.5617 18.0197 10.24C18.577 9.91825 19.2895 10.1092 19.6112 10.6664Z" fill="#000000" class="bmwfcol"/><path d="M24.5089 10.1486L23.8414 8.99254L29.3277 5.82503L28.6627 4.67322L23.1764 7.84072L22.5089 6.68453C22.0491 5.88817 21.0308 5.61532 20.2345 6.07509L16.7704 8.07509C15.2771 8.93723 14.62 10.6915 15.0838 12.276C14.1909 12.689 13.1306 12.6202 12.2887 12.0589L12.0547 11.9029L12.8073 10.5994C13.267 9.80301 12.9942 8.78471 12.1978 8.32493L7.00168 5.32493C6.20533 4.86515 5.18703 5.13801 4.72725 5.93436L2.72725 9.39847C2.26748 10.1948 2.54033 11.2131 3.33668 11.6729L8.53284 14.6729C9.32919 15.1327 10.3475 14.8598 10.8073 14.0635L11.3883 13.0571L11.5509 13.1656C12.796 13.9956 14.3674 14.0898 15.6826 13.4642C16.7818 14.9171 18.8168 15.3575 20.4354 14.4231L23.8995 12.4231C24.6958 11.9633 24.9687 10.945 24.5089 10.1486ZM17.4354 9.22691L20.8995 7.22691C21.0597 7.1344 21.2646 7.1893 21.3571 7.34952L23.3571 10.8136C23.4496 10.9739 23.3947 11.1787 23.2345 11.2712L19.7704 13.2712C18.6535 13.916 17.2255 13.5334 16.5807 12.4166C15.9359 11.2998 16.3185 9.8717 17.4354 9.22691ZM5.87907 6.59936C5.97157 6.43914 6.17646 6.38424 6.33668 6.47675L11.5328 9.47675C11.6931 9.56925 11.748 9.77414 11.6555 9.93436L9.65546 13.3985C9.56295 13.5587 9.35807 13.6136 9.19784 13.5211L4.00168 10.5211C3.84146 10.4286 3.78656 10.2237 3.87907 10.0635L5.87907 6.59936Z" fill="#000000" class="bmwfcol"/><path d="M29.4704 16.5287C29.1821 16.2404 28.7919 15.9197 28.2502 15.7156C27.7038 15.5098 27.0498 15.44 26.2581 15.5815C24.8326 15.8362 22.9341 16.7807 20.2868 18.9036C20.2579 18.8692 20.2275 18.8359 20.1953 18.8037C19.8787 18.4873 19.4511 18.334 19 18.334L14.0878 18.334L10.3558 17.334L10.2055 17.334C9.6195 17.3336 9.13111 17.3332 8.56144 17.6818C8.29789 17.8431 8.03096 18.0683 7.72213 18.3568C7.41277 18.6458 7.03122 19.0274 6.53908 19.5195L2.05957 23.999L7.72457 29.664H9.27547L11.2755 27.664H15.0196C16.003 27.664 16.7675 27.664 17.3788 27.6319C17.996 27.5994 18.5023 27.5326 18.9604 27.3799C19.8611 27.0797 20.4671 26.4733 21.3805 25.5593L29.9408 16.999L29.4704 16.5287ZM19.255 19.7443C19.2885 19.7779 19.3352 19.8502 19.3352 19.9989L19.3351 20.7201C18.4746 21.5499 17.8598 21.9282 17.2898 22.1182C16.6607 22.3279 16.0238 22.334 15.0003 22.334H11V23.664L15.0598 23.664C16.0119 23.6642 16.8574 23.6643 17.7105 23.3799C18.5983 23.0839 19.4344 22.5051 20.4702 21.4693L20.665 21.2745L20.6652 20.3106C23.5039 17.9638 25.3248 17.0993 26.4921 16.8907C27.0753 16.7865 27.4838 16.8482 27.7813 16.9602C27.858 16.9891 27.9304 17.0225 27.9991 17.0597L20.53 24.5288C19.4944 25.5645 19.11 25.9281 18.5399 26.1181C18.2479 26.2155 17.8792 26.2737 17.3089 26.3037C16.7367 26.3338 16.0071 26.334 15 26.334H10.7246L8.72457 28.334H8.27547L3.94047 23.999L7.47025 20.4692C7.97361 19.9659 8.33922 19.6004 8.63005 19.3287C8.92335 19.0547 9.11069 18.905 9.25566 18.8162C9.47236 18.6836 9.60188 18.6655 10.1811 18.6641L13.9127 19.664L19 19.664C19.1489 19.664 19.2214 19.7108 19.255 19.7443Z" fill="#000000" class="bmwfcol"/><title>key_with_pendant_hand_lt_48</title></svg>