<svg width="48" height="48" viewBox="0 0 32 32" xmlns="http://www.w3.org/2000/svg"><path d="M7.665 14V2H6.335L6.33498 14.0556C6.33459 14.7722 6.33422 15.4731 6.91259 16.2147C7.44173 16.8931 8.43239 17.5767 10.1631 18.5759L10.3175 18.665L10.335 30H11.665L11.6826 18.665L11.8369 18.5759C13.5676 17.5767 14.5583 16.8931 15.0874 16.2147C15.6658 15.4731 15.6654 14.7722 15.665 14.0556V2H14.335V14C14.335 14.764 14.3193 15.037 14.0387 15.3967C13.7041 15.8257 12.9811 16.3718 11.3256 17.335H10.6744C9.01889 16.3718 8.29591 15.8257 7.96132 15.3967C7.68075 15.037 7.665 14.764 7.665 14Z" fill="#000000" class="bmwfcol"/><path d="M25.665 2.33496H24.2245L24.0297 2.52973C21.298 5.26145 19.8521 6.82592 19.112 8.10427C18.3348 9.44664 18.3349 10.4795 18.335 11.9501V21.665H24.335V30H25.665V2.33496ZM24.335 4.10803V20.335H19.665V12C19.665 10.4972 19.6739 9.78816 20.263 8.77065C20.8472 7.76153 21.998 6.46545 24.335 4.10803Z" fill="#000000" class="bmwfcol"/><path d="M11.665 14V2H10.335V14H11.665Z" fill="#000000" class="bmwfcol"/><title>knife-and-fork_lt_48</title></svg>