<svg width="48" height="48" viewBox="0 0 32 32" xmlns="http://www.w3.org/2000/svg"><path d="M16.8143 6L2.81015 26H1.18652L15.1907 6H16.8143Z" fill="#000000" class="bmwfcol"/><path d="M15.9931 22.9144L15.2381 26H13.8689L14.8235 22.0988C14.0238 21.5174 13.2833 20.9131 12.7277 20.2837C11.8506 19.2901 11.3018 18.0688 11.9313 16.7188L11.9564 16.6652H10.7687L13.9788 13.5884L14.3213 16.6652H13.4239L13.1367 17.2809C12.8336 17.9309 13.0018 18.5846 13.7248 19.4035C14.1033 19.8324 14.5973 20.2607 15.1667 20.6961L15.5817 19H16.951L16.3308 21.5346C16.5292 21.6713 16.7323 21.8091 16.939 21.9482C17.1119 22.0646 17.2872 22.1818 17.4637 22.2999C18.5911 23.054 19.7686 23.8416 20.6973 24.6562C21.7474 25.5773 22.6651 26.6874 22.6651 27.9999H21.3351C21.3351 27.3123 20.8364 26.5474 19.8202 25.656C18.9626 24.9038 17.8682 24.1712 16.7331 23.4115C16.5549 23.2922 16.3757 23.1723 16.1963 23.0515C16.1286 23.006 16.0609 22.9603 15.9931 22.9144Z" fill="#000000" class="bmwfcol"/><path d="M17.4404 17L18.6639 12H17.2946L16.0711 17H17.4404Z" fill="#000000" class="bmwfcol"/><path d="M20.1321 6L19.1533 10H17.784L18.7628 6H20.1321Z" fill="#000000" class="bmwfcol"/><path d="M29.3686 26.0002L24.0096 6.00022H22.6327L27.9917 26.0002H29.3686Z" fill="#000000" class="bmwfcol"/><title>lane-change-warning_lt_48</title></svg>