<svg width="48" height="48" viewBox="0 0 32 32" xmlns="http://www.w3.org/2000/svg"><path d="M7.71161 18.9995L2.81015 25.9995H1.18652L6.08797 18.9995H7.71161Z" fill="#000000" class="bmwfcol"/><path d="M12.613 11.9995L9.11202 16.9995H7.48839L10.9894 11.9995H12.613Z" fill="#000000" class="bmwfcol"/><path d="M16.8143 5.99951L14.0135 9.99951H12.3898L15.1907 5.99951H16.8143Z" fill="#000000" class="bmwfcol"/><path d="M27.4929 18.9998L29.3685 25.9998H27.9916L26.1159 18.9998H27.4929Z" fill="#000000" class="bmwfcol"/><path d="M25.6172 11.9998L26.957 16.9998H25.5801L24.2403 11.9998H25.6172Z" fill="#000000" class="bmwfcol"/><path d="M24.0095 5.99983L25.0813 9.99983H23.7044L22.6326 5.99983H24.0095Z" fill="#000000" class="bmwfcol"/><path d="M7.24599 6.83476V9.16486H8.18349L10.2801 7.99976L8.18349 6.83476H7.24599Z" fill="#000000" class="bmwfcol"/><path d="M29.6385 6.83476L27.5419 7.99976L29.6385 9.16486H30.576V6.83476H29.6385Z" fill="#000000" class="bmwfcol"/><title>lane-departure-warning_lt_48</title></svg>