<svg width="48" height="48" viewBox="0 0 32 32" xmlns="http://www.w3.org/2000/svg"><path d="M16.335 16.3945L9.45632 9.51588C8.71808 8.77764 8.14539 8.20495 7.66361 7.77135C7.17739 7.33375 6.7507 7.00687 6.2974 6.78022C5.40553 6.33429 4.50555 6.33456 3.12982 6.33499L3 6.33501V7.66501C4.55046 7.66501 5.12222 7.67961 5.7026 7.96981C5.9993 8.11816 6.32261 8.35378 6.77389 8.75993C7.22659 9.16736 7.77474 9.7152 8.52977 10.4702L13.3945 15.335H4.33496L4.33496 17.1782L4.50795 17.4779C5.74405 19.6194 6.46661 20.8712 7.57637 21.7035C8.65892 22.5154 10.0821 22.9066 12.5164 23.5588C12.952 24.7861 14.1233 25.665 15.5 25.665C16.4105 25.665 17.2312 25.2805 17.8087 24.665H25.919C26.4074 25.2746 27.1581 25.665 28 25.665C29.4718 25.665 30.665 24.4718 30.665 23C30.665 21.5281 29.4718 20.335 28 20.335H27.9988L27.9988 20.3316L26.0001 20.335L25.665 20.3348V17.7245L25.4603 17.5199C24.7187 16.7783 24.1493 16.2089 23.6875 15.7789C23.2258 15.3491 22.841 15.0291 22.4671 14.8048C21.6831 14.3344 21.0128 14.3346 20.0788 14.335L16.335 14.335V16.3945ZM16.1426 18.083L16.335 18.2754V18.3839L16.6675 18.5759C19.2463 20.0648 20.6876 20.8567 21.932 21.2579C23.1337 21.6454 24.1397 21.6641 25.6929 21.665C25.4653 22.0575 25.335 22.5135 25.335 23C25.335 23.1134 25.3421 23.2252 25.3558 23.335H18.5537C18.6262 23.0689 18.665 22.789 18.665 22.5C18.665 20.752 17.2479 19.335 15.5 19.335C15.4729 19.335 15.446 19.3353 15.4192 19.336L16.1426 18.083ZM15.1689 17.1094L13.448 20.0902C12.8533 20.5971 12.4486 21.3202 12.3554 22.1379C10.1852 21.5501 9.15446 21.2246 8.37435 20.6395C7.52832 20.005 6.9483 19.0431 5.66496 16.8218L5.66496 16.665H14.7245L15.1689 17.1094ZM21.7828 15.9452C22.0339 16.0959 22.3366 16.3384 22.7812 16.7523C23.1845 17.1279 23.6796 17.6203 24.335 18.2755V20.3153C23.5668 20.2838 22.9928 20.2025 22.3402 19.9921C21.3053 19.6584 20.0626 18.9958 17.665 17.6158V15.665H20C21.0245 15.665 21.3387 15.6788 21.7828 15.9452ZM15.5 20.665C16.5134 20.665 17.335 21.4865 17.335 22.5C17.335 23.5134 16.5134 24.335 15.5 24.335C14.4865 24.335 13.665 23.5134 13.665 22.5C13.665 21.4865 14.4865 20.665 15.5 20.665ZM28 21.665C28.7373 21.665 29.335 22.2627 29.335 23C29.335 23.7373 28.7373 24.335 28 24.335C27.2627 24.335 26.665 23.7373 26.665 23C26.665 22.2627 27.2627 21.665 28 21.665Z" fill="#000000" class="bmwfcol"/><title>lawn_mower_lt_48</title></svg>