<svg width="48" height="48" viewBox="0 0 32 32" xmlns="http://www.w3.org/2000/svg"><path d="M5.66594 16C5.66594 12.8511 6.71266 10.2787 8.49616 8.49519C10.2797 6.71169 12.8521 5.66496 16.0009 5.66496C17.2692 5.66496 18.5242 5.85207 19.5979 6.17958C20.3926 6.42198 21.0589 6.73231 21.5558 7.07828C21.0994 7.70349 20.8581 8.43088 21.0497 9.31987C21.2782 10.3797 22.1055 11.5447 23.5308 12.97L24.001 13.4403L25.0011 12.4402L27.5308 14.9699L28.4713 14.0295L25.9415 11.4998L27.0012 10.4401L29.5308 12.9698L30.4713 12.0293L27.9416 9.49968L28.9415 8.49982L28.4712 8.0296C27.0459 6.6043 25.8809 5.77705 24.8211 5.54854C23.8921 5.34826 23.1396 5.62075 22.4957 6.11752C21.8169 5.60265 20.9401 5.19848 19.986 4.90745C19.069 4.62777 18.0486 4.44266 17.0009 4.36984V4.33496H16.0009C12.5498 4.33496 9.62221 5.48824 7.55571 7.55473C5.48921 9.62123 4.33594 12.5488 4.33594 16C4.33594 19.4511 5.48921 22.3787 7.55571 24.4452C9.62221 26.5117 12.5498 27.665 16.0009 27.665C17.9415 27.665 19.7177 27.3008 21.2707 26.6116L21.6659 26.4362V23C21.6659 21.9274 21.5289 21.1624 20.9995 20.3304C20.9027 20.1784 20.7929 20.0245 20.6694 19.8659C21.0315 19.3715 21.3075 18.792 21.4801 18.1476C21.5985 17.706 21.6603 17.2697 21.6656 16.8451C21.6913 14.7835 20.3905 13.1545 18.2691 12.586C17.8367 12.4702 17.5242 12.403 17.1789 12.3687C16.8457 12.3356 16.4957 12.335 16.0048 12.335C14.6365 12.335 13.9573 11.9933 12.3377 11.1785C12.191 11.1047 12.0366 11.027 11.8733 10.9454L11.2183 10.6179L10.9553 11.3014C10.8399 11.6013 10.7386 11.9133 10.652 12.2367C10.0874 14.3437 10.2857 16.3705 11.1977 18.0286C12.1116 19.6902 13.7104 20.9228 15.8327 21.4914C17.1188 21.836 18.364 21.6621 19.3809 21.0502C19.4991 20.9791 19.6136 20.9024 19.7242 20.8204C19.7799 20.8968 19.8308 20.9712 19.8774 21.0445C20.2229 21.5875 20.3359 22.0726 20.3359 23V25.5612C19.0611 26.0625 17.6063 26.335 16.0009 26.335C12.8521 26.335 10.2797 25.2882 8.49616 23.5047C6.71266 21.7212 5.66594 19.1488 5.66594 16ZM19.7602 18.8351C19.4115 18.47 19.0073 18.0658 18.5433 17.6018L17.4712 16.5297L16.5307 17.4702L17.5307 18.4702C18.069 19.0085 18.5018 19.4423 18.8514 19.8097C18.8002 19.8451 18.7481 19.8788 18.6951 19.9106C18.0075 20.3244 17.1373 20.4641 16.177 20.2067C14.3681 19.722 13.0849 18.7001 12.3631 17.3876C11.6392 16.0717 11.4479 14.4051 11.9366 12.5809C11.9457 12.5472 11.9549 12.5137 11.9642 12.4803C13.4355 13.222 14.3782 13.665 16.0048 13.665C16.5133 13.665 16.7928 13.6669 17.0475 13.6922C17.2902 13.7163 17.5242 13.7633 17.9249 13.8707C19.5126 14.2962 20.3532 15.4289 20.3357 16.8285C20.3319 17.1352 20.2871 17.4614 20.1954 17.8034C20.0923 18.1882 19.9442 18.5331 19.7602 18.8351ZM24.5408 6.84867C25.1193 6.9734 25.9117 7.43681 27.0533 8.50707L24.0083 11.5521C22.938 10.4105 22.4746 9.61812 22.3499 9.03957C22.2304 8.48564 22.4056 8.03573 22.9712 7.47005C23.5369 6.90437 23.9868 6.72925 24.5408 6.84867Z" fill="#000000" class="bmwfcol"/><title>leaf_and_plug_lt_48</title></svg>