<svg width="48" height="48" viewBox="0 0 32 32" xmlns="http://www.w3.org/2000/svg"><path d="M18.6084 2.05518H19.9626V5.13658H23.3895V2.05518H24.7438V9.94994H23.3895V6.461H19.9626V9.94994H18.6084V2.05518Z" fill="#000000" class="bmwfcol"/><path d="M26.3922 6.77271C26.6739 6.70228 27.2799 6.56794 27.8422 6.56794C28.3565 6.56794 28.7666 6.68319 29.0635 6.93225C29.3449 7.16498 29.5034 7.54336 29.5034 7.94086C29.5034 8.18103 29.4676 8.38607 29.3795 8.58568C29.2928 8.78223 29.1605 8.96185 28.9853 9.15767L28.9843 9.15877L28.9833 9.15985C28.6717 9.49799 28.3347 9.81795 28.0499 10.0768H29.732V11.2421H26.1413V10.2052L26.2104 10.1454C26.7281 9.6974 27.488 9.02608 27.8698 8.64433C28.2091 8.30503 28.2684 8.16878 28.2684 8.04026C28.2684 7.93251 28.2422 7.8782 28.1978 7.83378C28.156 7.79196 28.0553 7.74326 27.8124 7.74326C27.315 7.74326 26.7226 7.89508 26.4912 7.95546L26.2407 8.0208V6.81058L26.3922 6.77271Z" fill="#000000" class="bmwfcol"/><path d="M17.0009 4.36974V5.70327C16.6706 5.67799 16.3362 5.66491 16.0009 5.66491C12.8521 5.66491 10.2797 6.71164 8.49616 8.49514C6.71266 10.2786 5.66594 12.851 5.66594 15.9999C5.66594 19.1488 6.71266 21.7212 8.49616 23.5047C10.2797 25.2882 12.8521 26.3349 16.0009 26.3349C17.6063 26.3349 19.0611 26.0625 20.3359 25.5612V22.9999C20.3359 22.0725 20.2229 21.5874 19.8774 21.0444C19.8308 20.9712 19.7799 20.8968 19.7243 20.8204C19.6136 20.9023 19.4991 20.979 19.3809 21.0501C18.3641 21.662 17.1189 21.8359 15.8328 21.4913C13.7105 20.9227 12.1117 19.6901 11.1978 18.0285C10.2858 16.3705 10.0875 14.3436 10.652 12.2366C10.7387 11.9132 10.84 11.6012 10.9554 11.3013L11.2184 10.6178L11.8734 10.9453C12.0367 11.027 12.1911 11.1046 12.3378 11.1784C13.9574 11.9932 14.6366 12.3349 16.0049 12.3349C16.4957 12.3349 16.8457 12.3356 17.179 12.3687C17.5243 12.4029 17.8368 12.4701 18.2692 12.586C20.3906 13.1544 21.6914 14.7834 21.6657 16.8451C21.6604 17.2697 21.5985 17.7059 21.4802 18.1476C21.3075 18.7919 21.0315 19.3715 20.6694 19.8659C20.7929 20.0245 20.9027 20.1784 20.9995 20.3304C21.5289 21.1624 21.6659 21.9273 21.6659 22.9999V26.4361L21.2707 26.6115C19.7176 27.3007 17.9415 27.6649 16.0009 27.6649C12.5498 27.6649 9.62221 26.5116 7.55571 24.4451C5.48921 22.3786 4.33594 19.451 4.33594 15.9999C4.33594 12.5488 5.48921 9.62118 7.55571 7.55469C9.62221 5.48819 12.5498 4.33491 16.0009 4.33491C16.3354 4.33491 16.6695 4.34671 17.0009 4.36974ZM18.5434 17.6019C19.0074 18.0658 19.4116 18.47 19.7603 18.8351C19.9443 18.533 20.0924 18.1882 20.1955 17.8033C20.2872 17.4613 20.332 17.1351 20.3358 16.8285C20.3533 15.4288 19.5127 14.2961 17.925 13.8707C17.5242 13.7633 17.2903 13.7162 17.0476 13.6922C16.7928 13.6669 16.5133 13.6649 16.0049 13.6649C14.3783 13.6649 13.4356 13.2219 11.9643 12.4803C11.9549 12.5136 11.9457 12.5471 11.9367 12.5808C11.4479 14.405 11.6393 16.0716 12.3631 17.3875C13.085 18.7 14.3681 19.722 16.177 20.2067C17.1374 20.464 18.0076 20.3243 18.6952 19.9106C18.7481 19.8787 18.8002 19.8451 18.8514 19.8097C18.5018 19.4422 18.0691 19.0085 17.5307 18.4701L16.5307 17.4701L17.4712 16.5297L18.5434 17.6019Z" fill="#000000" class="bmwfcol"/><title>leaf_and_h2_lt_48</title></svg>