<svg width="48" height="48" viewBox="0 0 32 32" xmlns="http://www.w3.org/2000/svg"><path d="M18.9658 24.6637C19.4999 24.6904 20.0114 24.6771 20.4998 24.6272V23.2893C20.0391 23.3443 19.5501 23.3613 19.0322 23.3354C16.2948 23.1985 14.6636 22.0534 13.6073 20.6197C12.5232 19.1483 12.0196 17.3402 11.6441 15.8383C10.8673 12.7311 9.32008 10.0308 7.98126 8.11821C7.30994 7.15917 6.68619 6.39136 6.22883 5.86178C6.11255 5.72715 6.00694 5.6078 5.91393 5.50453C9.96781 5.56287 14.8078 6.02533 18.7701 7.47812C23.0316 9.04067 26.1052 11.6704 26.3349 16.0345C26.4331 17.9 25.8516 19.7933 24.6384 21.1783C24.3486 21.5091 24.0208 21.8133 23.6541 22.0828C23.5458 19.829 22.5628 18.1231 21.2748 16.6494C20.5976 15.8746 19.8293 15.1558 19.0587 14.4557C18.9095 14.3201 18.7602 14.1852 18.6114 14.0508C18.0649 13.5571 17.5234 13.0679 17 12.5571V14.3842C17.2447 14.6086 17.489 14.8293 17.7301 15.0471C17.8763 15.1792 18.0213 15.3101 18.1644 15.4401C18.9314 16.137 19.6505 16.8119 20.2733 17.5246C21.5071 18.9364 22.3341 20.462 22.3341 22.4995V27.9995H23.6641V23.6549C24.4269 23.2287 25.0866 22.6851 25.6388 22.0546C27.1055 20.3803 27.7774 18.1362 27.6631 15.9646C27.3928 10.8288 23.7164 7.87516 19.2279 6.22941C14.7429 4.58494 9.27506 4.16797 4.99899 4.16797H4.33398V5.77502L4.52876 5.96979L4.53018 5.97122L4.53799 5.97913L4.5721 6.01411C4.60283 6.04585 4.64923 6.09431 4.70947 6.15876C4.82998 6.28767 5.00575 6.4804 5.22226 6.7311C5.65552 7.23277 6.25051 7.96496 6.89168 8.88092C8.17785 10.7183 9.6306 13.268 10.3538 16.1609C10.7283 17.6589 11.2803 19.7036 12.5365 21.4086C13.8205 23.1513 15.8144 24.5062 18.9658 24.6637Z" fill="#000000" class="bmwfcol"/><title>leaf_lt_48</title></svg>