<svg width="48" height="48" viewBox="0 0 32 32" xmlns="http://www.w3.org/2000/svg"><path d="M13.4795 7.58005C14.9169 6.14258 16.8666 5.33502 18.8995 5.33502H24C26.5764 5.33502 28.665 7.42361 28.665 10V11.2996C28.665 13.197 28.0422 15.0418 26.8924 16.551L22.63 22.1453C21.1803 24.0482 18.9252 25.165 16.533 25.165H8.49996C5.73123 25.165 3.47132 22.9865 3.34091 20.25H3.33496C3.33496 20.2068 3.33542 20.1636 3.33634 20.1204C3.33542 20.0804 3.33496 20.0403 3.33496 20C3.33496 19.0095 3.6138 18.084 4.09728 17.298C4.37082 16.8036 4.71408 16.3454 5.12072 15.9388L13.4795 7.58005ZM5.24469 17.9716C4.88821 18.6268 4.68759 19.3618 4.66677 20.1188C4.72953 22.1819 6.42169 23.835 8.49996 23.835H16.533C18.5101 23.835 20.3739 22.912 21.5721 21.3393L25.8345 15.745C26.8078 14.4674 27.335 12.9057 27.335 11.2996V10C27.335 8.15815 25.8418 6.66502 24 6.66502H18.8995C17.2193 6.66502 15.608 7.33246 14.4199 8.5205L8.08933 14.8511C8.2248 14.8404 8.36175 14.835 8.49996 14.835H17C19.0241 14.835 20.665 16.4759 20.665 18.5C20.665 20.5241 19.0241 22.165 17 22.165H8.49996C7.30427 22.165 6.33496 21.1957 6.33496 20C6.33496 18.8043 7.30426 17.835 8.49996 17.835H17C17.3672 17.835 17.665 18.1327 17.665 18.5C17.665 18.8673 17.3672 19.165 17 19.165H8.49996C8.0388 19.165 7.66496 19.5389 7.66496 20C7.66496 20.4612 8.0388 20.835 8.49996 20.835H17C18.2895 20.835 19.335 19.7896 19.335 18.5C19.335 17.2104 18.2895 16.165 17 16.165H8.49996C7.12674 16.165 5.9221 16.8868 5.24469 17.9716Z" fill="#000000" class="bmwfcol"/><title>leather_cloth_lt_48</title></svg>