<svg width="48" height="48" viewBox="0 0 32 32" xmlns="http://www.w3.org/2000/svg"><path d="M10.0029 5.33496H8.33709L9.66709 6.66496H10.0029C12.1447 6.66496 13.7992 5.52177 14.4116 3.66496H17.5939C18.2063 5.52177 19.8608 6.66496 22.0026 6.66496H23.727L25.1747 8.11261C23.3536 9.91623 22.3376 12.4805 22.3376 15.5C22.3376 17.3195 22.7064 18.9738 23.3984 20.3963L25.0021 22V20.5518C24.1477 19.1819 23.6676 17.4751 23.6676 15.5C23.6676 12.5991 24.7032 10.2763 26.4414 8.74891L26.6675 8.55028V7.72451L24.2779 5.33496H22.0026C20.2434 5.33496 19.0693 4.36562 18.7538 2.86328L18.6428 2.33496H13.3627L13.2518 2.86328C12.9362 4.36562 11.7621 5.33496 10.0029 5.33496Z" fill="#000000" class="bmwfcol"/><path d="M23.0026 26.665H23.6671L22.3558 25.3536C19.7696 25.5045 17.6157 26.5644 16.1887 28.335H15.8168C14.2724 26.4187 11.8766 25.335 9.00291 25.335H8.54157L7.01811 22.6962C8.72215 20.9038 9.66791 18.4136 9.66791 15.5C9.66791 14.3341 9.51644 13.2361 9.22564 12.2235L8.00213 11H7.31772C7.97481 12.2672 8.33791 13.7823 8.33791 15.5C8.33791 18.3071 7.36805 20.5723 5.73228 22.0988L5.3457 22.4596L7.77369 26.665H9.00291C11.6473 26.665 13.706 27.6962 14.954 29.3939L15.1533 29.665H16.8522L17.0515 29.3939C18.2996 27.6962 20.3583 26.665 23.0026 26.665Z" fill="#000000" class="bmwfcol"/><path d="M27.0605 28H28.9415L4.94145 4H3.06055L27.0605 28Z" fill="#000000" class="bmwfcol"/><title>leather_slash_lt_48</title></svg>