<svg width="48" height="48" viewBox="0 0 32 32" xmlns="http://www.w3.org/2000/svg"><path d="M23.6655 15.5C23.6655 12.5991 24.7011 10.2763 26.4393 8.74891L26.6653 8.55028V7.72451L24.2758 5.33496H22.0005C20.2413 5.33496 19.0672 4.36562 18.7516 2.86328L18.6407 2.33496H13.3606L13.2496 2.86328C12.9341 4.36562 11.76 5.33496 10.0008 5.33496H7.72549L5.33594 7.72451V8.55028L5.56198 8.74891C7.30021 10.2763 8.33578 12.5991 8.33578 15.5C8.33578 18.3071 7.36591 20.5723 5.73015 22.0988L5.34357 22.4596L7.77156 26.665H9.00078C11.6451 26.665 13.7038 27.6962 14.9519 29.3939L15.1512 29.665H16.8501L17.0494 29.3939C17.4514 28.8471 17.9374 28.3695 18.5 27.9732V26.4096C17.602 26.8987 16.8222 27.5463 16.1866 28.335H15.8147C14.2703 26.4187 11.8745 25.335 9.00078 25.335H8.53944L7.01597 22.6962C8.72001 20.9038 9.66578 18.4136 9.66578 15.5C9.66578 12.4805 8.64982 9.91623 6.82874 8.11261L8.27639 6.66496H10.0008C12.1426 6.66496 13.7971 5.52177 14.4095 3.66496H17.5917C18.2042 5.52177 19.8586 6.66496 22.0005 6.66496H23.7249L25.1725 8.11261C23.3514 9.91623 22.3355 12.4805 22.3355 15.5H23.6655Z" fill="#000000" class="bmwfcol"/><path d="M18.9395 18L19.4693 18.5298C20.5252 19.5857 21.2667 20.6598 21.804 22.003C22.0795 22.6918 22.2985 23.4444 22.4806 24.291C22.6919 23.1616 22.954 22.1954 23.3359 21.3243V21C23.3359 19.9488 23.6892 19.0212 24.3557 18.3547C25.0222 17.6882 25.9498 17.335 27.0009 17.335H28.6659V19C28.6659 20.0511 28.3127 20.9787 27.6462 21.6452C26.9797 22.3117 26.0521 22.665 25.0009 22.665H24.2481C23.8772 23.8001 23.6457 25.1886 23.4089 27.0825L23.3361 27.665H21.662L21.5892 27.0825C21.3417 25.1027 21.0378 23.6686 20.5691 22.497C20.1064 21.3402 19.4729 20.4143 18.5288 19.4702L17.0586 18H18.9395ZM24.6659 21V21.335H25.0009C25.7498 21.335 26.3222 21.0882 26.7057 20.7047C27.0892 20.3212 27.3359 19.7488 27.3359 19V18.665H27.0009C26.2521 18.665 25.6797 18.9117 25.2962 19.2952C24.9127 19.6787 24.6659 20.2511 24.6659 21Z" fill="#000000" class="bmwfcol"/><title>leather_and_plant_lt_48</title></svg>