<svg width="48" height="48" viewBox="0 0 32 32" xmlns="http://www.w3.org/2000/svg"><path d="M13.3596 2.33499H18.6397L18.7506 2.86331C19.0662 4.36565 20.2403 5.33499 21.9995 5.33499H24.2748L26.6643 7.72454V8.55031L26.4383 8.74894C24.7001 10.2764 23.6645 12.5991 23.6645 15.5C23.6645 18.3071 24.6344 20.5723 26.2701 22.0988L26.6567 22.4596L24.2287 26.665H22.9995C20.3552 26.665 18.2965 27.6962 17.0484 29.3939L16.8491 29.665H15.1502L14.9509 29.3939C13.7028 27.6962 11.6441 26.665 8.9998 26.665H7.77058L5.34259 22.4596L5.72917 22.0988C7.36494 20.5723 8.3348 18.3071 8.3348 15.5C8.3348 12.5991 7.29923 10.2764 5.561 8.74894L5.33496 8.55031V7.72454L7.72451 5.33499H9.9998C11.759 5.33499 12.9331 4.36565 13.2487 2.86331L13.3596 2.33499ZM14.4085 3.66499C13.7961 5.5218 12.1416 6.66499 9.9998 6.66499H8.27541L6.82776 8.11264C8.64885 9.91626 9.6648 12.4805 9.6648 15.5C9.6648 18.4136 8.71904 20.9039 7.015 22.6963L8.53846 25.335H8.9998C11.8735 25.335 14.2693 26.4188 15.8137 28.335H16.1856C17.73 26.4188 20.1258 25.335 22.9995 25.335H23.4608L24.9843 22.6963C23.2803 20.9039 22.3345 18.4136 22.3345 15.5C22.3345 12.4805 23.3505 9.91626 25.1715 8.11264L23.7239 6.66499H21.9995C19.8577 6.66499 18.2032 5.5218 17.5908 3.66499H14.4085Z" fill="#000000" class="bmwfcol"/><title>leather_lt_48</title></svg>