<svg width="48" height="48" viewBox="0 0 32 32" xmlns="http://www.w3.org/2000/svg"><path d="M26.0508 13.0994L26.0489 13.1015C25.9483 13.0086 25.762 12.8966 25.3719 12.7957C24.9803 12.6944 24.4303 12.616 23.645 12.5594C22.0739 12.4463 19.6864 12.4279 16 12.4279C12.3136 12.4279 9.92606 12.4463 8.35503 12.5594C7.5697 12.616 7.01969 12.6944 6.6281 12.7957C6.23805 12.8966 6.0517 13.0086 5.9511 13.1015L5.94913 13.0994C5.31546 13.6878 4.76344 14.2254 4.35188 14.7273C4.1924 14.9219 4.06437 15.099 3.96409 15.2601C5.40232 15.6411 6.86766 15.8236 9 15.9744V17.3078C6.80243 17.1547 5.22948 16.967 3.66496 16.5566V24.3641H7.49996V25.6941H2.33496V16.0791C2.33496 15.2805 2.78964 14.5351 3.32337 13.8841C3.86174 13.2274 4.5842 12.5466 5.32839 11.8622H5.31051C5.01292 11.6171 4.78043 11.505 4.36021 11.4403C3.88145 11.3666 3.20308 11.3612 2 11.3612V10.0312C3.15825 10.0312 3.95887 10.0329 4.5626 10.1258C5.12368 10.2122 5.53491 10.3792 5.93798 10.6675C6.17751 10.2182 6.46379 9.71946 6.7784 9.23497C7.09757 8.74347 7.45461 8.25306 7.83044 7.83993C8.19781 7.43609 8.62418 7.05998 9.09007 6.85545C10.4179 6.27274 11.5097 6.16406 16 6.16406C20.49 6.16406 21.5834 6.2727 22.9101 6.85557C23.3754 7.06075 23.8022 7.4372 24.1696 7.84114C24.5453 8.25431 24.9023 8.74456 25.2215 9.23588C25.536 9.72009 25.8222 10.2185 26.0618 10.6676C26.4647 10.3792 26.876 10.2122 27.4371 10.1258C28.0409 10.0329 28.8417 10.0312 29.9999 10.0312V11.3612C28.7968 11.3612 28.1183 11.3666 27.6394 11.4403C27.2191 11.505 26.9867 11.6171 26.6896 11.862L26.6799 11.8699C26.6636 11.8549 26.6961 11.8848 26.6799 11.8699C27.4211 12.5517 28.1402 13.2299 28.6766 13.8841C29.2103 14.5351 29.665 15.2805 29.665 16.0791V25.6941H24.5V24.3641H28.335V16.5566C26.7705 16.967 25.1975 17.1547 23 17.3078V15.9744C25.1323 15.8236 26.5976 15.6411 28.0358 15.2601C27.9356 15.099 27.8075 14.9219 27.648 14.7273C27.2364 14.2253 26.6845 13.6878 26.0508 13.0994ZM16 7.49406C11.449 7.49406 10.6514 7.62272 9.62461 8.07331C9.41018 8.16747 9.1335 8.38399 8.81425 8.73493C8.50341 9.07661 8.19002 9.50324 7.89385 9.95932C7.58708 10.4317 7.30812 10.9212 7.07876 11.3551C7.42549 11.3045 7.81716 11.2647 8.25947 11.2329C9.88861 11.1155 12.3298 11.0979 16 11.0979C19.6702 11.0979 22.1114 11.1155 23.7405 11.2329C24.1827 11.2647 24.5743 11.3045 24.9209 11.3551C24.6916 10.9215 24.4128 10.4324 24.1061 9.96041C23.81 9.50448 23.4965 9.07786 23.1856 8.73597C22.8666 8.38515 22.5898 8.16806 22.3749 8.07311C21.3497 7.62274 20.5509 7.49406 16 7.49406Z" fill="#000000" class="bmwfcol"/><path d="M11.6671 15.0312H15.1595L15.9999 15.5335L16.8403 15.0312H20.3327L21.3316 16.0301V18H20.0016V16.581L19.7818 16.3612H17.2075L16.665 16.6855V18H15.335V16.6856L14.7923 16.3612H12.218L11.9983 16.581V18H10.6683V16.0301L11.6671 15.0312Z" fill="#000000" class="bmwfcol"/><path d="M9.99996 19.335C9.63269 19.335 9.33496 19.6327 9.33496 20V23C9.33496 23.3672 9.63269 23.665 9.99996 23.665H22C22.3672 23.665 22.665 23.3672 22.665 23V20C22.665 19.6327 22.3672 19.335 22 19.335H9.99996ZM10.665 22.335V20.665H21.335V22.335H10.665Z" fill="#000000" class="bmwfcol"/><title>license_plate_lt_48</title></svg>