<svg width="48" height="48" viewBox="0 0 32 32" xmlns="http://www.w3.org/2000/svg"><path d="M6.82973 6.82973C9.07123 4.58824 12.2488 3.33496 16 3.33496C19.7511 3.33496 22.9287 4.58824 25.1702 6.82973C27.4117 9.07123 28.665 12.2488 28.665 16C28.665 19.7511 27.4117 22.9287 25.1702 25.1702C22.9287 27.4117 19.7511 28.665 16 28.665C12.2488 28.665 9.07123 27.4117 6.82973 25.1702C4.58824 22.9287 3.33496 19.7511 3.33496 16C3.33496 12.2488 4.58824 9.07123 6.82973 6.82973ZM7.31606 8.25651C5.63561 10.1841 4.66496 12.8269 4.66496 16C4.66496 19.1732 5.63573 21.8161 7.31638 23.7438L10.7365 20.3237C9.82722 19.1812 9.33496 17.6936 9.33496 16C9.33496 14.3065 9.82711 12.819 10.7362 11.6766L7.31606 8.25651ZM8.25651 7.31606L11.6766 10.7362C12.819 9.82711 14.3065 9.33496 16 9.33496C17.6936 9.33496 19.1812 9.82722 20.3237 10.7365L23.7438 7.31638C21.8161 5.63573 19.1732 4.66496 16 4.66496C12.8269 4.66496 10.1841 5.63561 8.25651 7.31606ZM24.6842 8.25688L21.264 11.677C22.1729 12.8193 22.665 14.3067 22.665 16C22.665 17.6935 22.1728 19.1809 21.2637 20.3233L24.6839 23.7434C26.3643 21.8158 27.335 19.173 27.335 16C27.335 12.8271 26.3644 10.1845 24.6842 8.25688ZM23.7434 24.6839L20.3233 21.2637C19.1809 22.1728 17.6935 22.665 16 22.665C14.3067 22.665 12.8193 22.1729 11.677 21.264L8.25688 24.6842C10.1845 26.3644 12.8271 27.335 16 27.335C19.173 27.335 21.8158 26.3643 23.7434 24.6839ZM12.1202 12.1202C11.2117 13.0287 10.665 14.3511 10.665 16C10.665 17.6488 11.2117 18.9712 12.1202 19.8797C13.0287 20.7882 14.3511 21.335 16 21.335C17.6488 21.335 18.9712 20.7882 19.8797 19.8797C20.7882 18.9712 21.335 17.6488 21.335 16C21.335 14.3511 20.7882 13.0287 19.8797 12.1202C18.9712 11.2117 17.6488 10.665 16 10.665C14.3511 10.665 13.0287 11.2117 12.1202 12.1202Z" fill="#000000" class="bmwfcol"/><title>life-ring_lt_48</title></svg>