<svg width="48" height="48" viewBox="0 0 32 32" xmlns="http://www.w3.org/2000/svg"><path d="M10.625 23.0003C10.625 21.4326 11.556 20.0823 12.8953 19.4722V20.9228C12.2746 21.4029 11.875 22.1549 11.875 23.0003C11.875 24.4501 13.0503 25.6253 14.5 25.6253C15.557 25.6253 16.4681 25.0006 16.8842 24.1002H18.2167C17.7426 25.7046 16.258 26.8753 14.5 26.8753C12.3599 26.8753 10.625 25.1404 10.625 23.0003Z" fill="#000000" class="bmwfcol"/><path d="M21.2212 26.5114H19.9271L19.0207 23.129L15.8358 23.1289L15.6907 23.0452C15.3138 22.8276 15.0097 22.6439 14.7722 22.4751C14.5354 22.3067 14.3295 22.129 14.1769 21.9118C13.8726 21.479 13.8739 21.0057 13.8752 20.5794L13.8753 18.1789C13.8753 17.9314 13.8832 17.4348 14.2918 17.0533C14.6716 16.6985 15.2566 16.5752 16.0031 16.5752C16.7496 16.5752 17.3346 16.6985 17.7145 17.0533C18.123 17.4348 18.1309 17.9314 18.1309 18.1789V21.8789L19.9799 21.879L21.2212 26.5114ZM15.1995 21.1929C15.2347 21.243 15.3106 21.3242 15.4965 21.4563C15.657 21.5704 15.8731 21.7045 16.1715 21.8789L16.8809 21.8789V18.1789C16.8809 18.0426 16.8661 17.9776 16.8616 17.9671C16.8457 17.9522 16.6789 17.8252 16.0031 17.8252C15.3274 17.8252 15.1609 17.9519 15.1449 17.9668C15.1441 17.9688 15.142 17.9737 15.1399 17.9817L15.1253 20.5002C15.1253 21.0558 15.147 21.1183 15.1995 21.1929Z" fill="#000000" class="bmwfcol"/><path d="M6.33594 10.335H25.6659V29.665H6.33594V10.335ZM7.66594 11.665V28.335H24.3359V11.665H7.66594Z" fill="#000000" class="bmwfcol"/><path d="M15.8183 14.086C15.8049 14.0988 15.7281 14.1809 15.7281 14.5005C15.7281 14.8201 15.8049 14.9021 15.8183 14.915C15.8358 14.9316 15.8984 14.9755 16.1031 14.9755C16.3079 14.9755 16.3705 14.9316 16.3879 14.915C16.4014 14.9021 16.4781 14.8201 16.4781 14.5005C16.4781 14.1809 16.4014 14.0988 16.3879 14.086C16.3705 14.0694 16.3079 14.0255 16.1031 14.0255C15.8984 14.0255 15.8358 14.0694 15.8183 14.086ZM15.0942 13.3257C15.3955 13.0387 15.7829 12.9755 16.1031 12.9755C16.4234 12.9755 16.8108 13.0387 17.1121 13.3257C17.4174 13.6164 17.5281 14.0344 17.5281 14.5005C17.5281 14.9666 17.4174 15.3846 17.1121 15.6753C16.8108 15.9623 16.4234 16.0255 16.1031 16.0255C15.7829 16.0255 15.3955 15.9623 15.0942 15.6753C14.7889 15.3846 14.6781 14.9666 14.6781 14.5005C14.6781 14.0344 14.7889 13.6164 15.0942 13.3257Z" fill="#000000" class="bmwfcol"/><path d="M12.6621 6.87317L14.998 4.53723V6.16358L11.9987 9.16291L8.99805 6.16223V4.53589L11.3321 6.86995V2H12.6621V6.87317Z" fill="#000000" class="bmwfcol"/><path d="M22.998 6.46259L20.664 4.12853L20.664 9H19.334L19.334 4.12799L16.998 6.46393V4.83759L19.9987 1.83691L22.998 4.83624V6.46259Z" fill="#000000" class="bmwfcol"/><title>lift_for_disabled_lt_48</title></svg>