<svg width="48" height="48" viewBox="0 0 32 32" xmlns="http://www.w3.org/2000/svg"><path d="M12.6621 6.87317L14.998 4.53723V6.16358L11.9987 9.16291L8.99805 6.16223V4.53589L11.3321 6.86995V2H12.6621V6.87317Z" fill="#000000" class="bmwfcol"/><path d="M17.4171 16.4788C17.7835 16.2131 18.3063 16.075 18.998 16.075C19.6898 16.075 20.2126 16.2131 20.579 16.4788C20.9608 16.7557 21.123 17.1381 21.123 17.4782V22.125H19.623V27H18.373V22.125H16.873V17.4782C16.873 17.1381 17.0353 16.7557 17.4171 16.4788ZM18.123 17.5141V20.875H19.873V17.5141C19.8676 17.5085 19.8588 17.5006 19.8452 17.4907C19.7709 17.4368 19.5437 17.325 18.998 17.325C18.4524 17.325 18.2252 17.4368 18.1509 17.4907C18.1373 17.5006 18.1285 17.5085 18.123 17.5141Z" fill="#000000" class="bmwfcol"/><path d="M12.998 16.075C12.3063 16.075 11.7835 16.2131 11.4171 16.4788C11.0353 16.7557 10.873 17.1381 10.873 17.4782L10.8732 20.4177L10.373 22.2842V23.1249H12.373V26.9999H13.623V23.1249H15.623V22.2842L15.1229 20.4177L15.123 17.4782C15.123 17.1381 14.9608 16.7557 14.579 16.4788C14.2126 16.2131 13.6898 16.075 12.998 16.075ZM12.1232 20.5822L12.123 17.5141C12.1285 17.5085 12.1373 17.5005 12.1509 17.4907C12.2252 17.4368 12.4524 17.325 12.998 17.325C13.5437 17.325 13.7709 17.4368 13.8452 17.4907C13.8587 17.5005 13.8675 17.5085 13.873 17.5141L13.8729 20.5822L14.2193 21.8749H11.7768L12.1232 20.5822Z" fill="#000000" class="bmwfcol"/><path d="M6.33398 10.335H25.664V29.665H6.33398V10.335ZM7.66398 11.665V28.335H24.334V11.665H7.66398Z" fill="#000000" class="bmwfcol"/><path d="M22.998 6.46259L20.664 4.12853L20.664 9H19.334L19.334 4.12799L16.998 6.46393V4.83759L19.9987 1.83691L22.998 4.83624V6.46259Z" fill="#000000" class="bmwfcol"/><path d="M18.7191 13.6855C18.7056 13.6984 18.6289 13.7804 18.6289 14.1C18.6289 14.4196 18.7056 14.5016 18.7191 14.5145C18.7365 14.5311 18.7991 14.575 19.0039 14.575C19.2087 14.575 19.2713 14.5311 19.2887 14.5145C19.3022 14.5016 19.3789 14.4196 19.3789 14.1C19.3789 13.7804 19.3022 13.6984 19.2887 13.6855C19.2713 13.6689 19.2087 13.625 19.0039 13.625C18.7991 13.625 18.7365 13.6689 18.7191 13.6855ZM17.995 12.9252C18.2963 12.6382 18.6837 12.575 19.0039 12.575C19.3241 12.575 19.7115 12.6382 20.0129 12.9252C20.3181 13.2159 20.4289 13.6339 20.4289 14.1C20.4289 14.5661 20.3181 14.9841 20.0129 15.2748C19.7115 15.5618 19.3241 15.625 19.0039 15.625C18.6837 15.625 18.2963 15.5618 17.995 15.2748C17.6897 14.9841 17.5789 14.5661 17.5789 14.1C17.5789 13.6339 17.6897 13.2159 17.995 12.9252Z" fill="#000000" class="bmwfcol"/><path d="M12.7191 13.6855C12.7056 13.6984 12.6289 13.7804 12.6289 14.1C12.6289 14.4196 12.7056 14.5016 12.7191 14.5145C12.7365 14.5311 12.7991 14.575 13.0039 14.575C13.2087 14.575 13.2713 14.5311 13.2887 14.5145C13.3022 14.5016 13.3789 14.4196 13.3789 14.1C13.3789 13.7804 13.3022 13.6984 13.2887 13.6855C13.2713 13.6689 13.2087 13.625 13.0039 13.625C12.7991 13.625 12.7365 13.6689 12.7191 13.6855ZM11.995 12.9252C12.2963 12.6382 12.6837 12.575 13.0039 12.575C13.3241 12.575 13.7115 12.6382 14.0129 12.9252C14.3181 13.2159 14.4289 13.6339 14.4289 14.1C14.4289 14.5661 14.3181 14.9841 14.0129 15.2748C13.7115 15.5618 13.3241 15.625 13.0039 15.625C12.6837 15.625 12.2963 15.5618 11.995 15.2748C11.6897 14.9841 11.5789 14.5661 11.5789 14.1C11.5789 13.6339 11.6897 13.2159 11.995 12.9252Z" fill="#000000" class="bmwfcol"/><title>lift_lt_48</title></svg>