<svg width="48" height="48" viewBox="0 0 32 32" xmlns="http://www.w3.org/2000/svg"><path d="M14.0797 4.07973C14.5712 3.58824 15.2488 3.33496 15.9999 3.33496C16.7511 3.33496 17.4287 3.58824 17.9202 4.07973C18.4117 4.57123 18.6649 5.24884 18.6649 5.99996C18.6649 6.75108 18.4117 7.42869 17.9202 7.92019C17.4287 8.41169 16.7511 8.66496 15.9999 8.66496C15.2488 8.66496 14.5712 8.41169 14.0797 7.92019C13.5882 7.42869 13.3349 6.75108 13.3349 5.99996C13.3349 5.24884 13.5882 4.57123 14.0797 4.07973ZM15.0202 5.02019C14.8117 5.22869 14.6649 5.55108 14.6649 5.99996C14.6649 6.44884 14.8117 6.77123 15.0202 6.97973C15.2287 7.18824 15.5511 7.33496 15.9999 7.33496C16.4488 7.33496 16.7712 7.18824 16.9797 6.97973C17.1882 6.77123 17.3349 6.44884 17.3349 5.99996C17.3349 5.55108 17.1882 5.22869 16.9797 5.02019C16.7712 4.81169 16.4488 4.66496 15.9999 4.66496C15.5511 4.66496 15.2287 4.81169 15.0202 5.02019Z" fill="#000000" class="bmwfcol"/><path d="M6.15611 13.6679L9.26609 8.28125L9.70845 8.34146C10.7505 8.48329 11.8027 8.85086 12.8276 9.44258C13.8385 10.0262 14.6738 10.7419 15.3142 11.5593L21.2851 17.5302L20.3447 18.4706L14.3149 12.4408L14.2891 12.4075C14.2299 12.331 14.1683 12.2553 14.1045 12.1804L10.1295 19.3354H13.665V28.0004H12.335V20.6654H4.33497L4.33496 19.9387C4.3349 18.7429 4.33485 17.9137 4.57389 17.0167C4.8155 16.11 5.29071 15.1668 6.15611 13.6679ZM8.60806 19.3354L13.1101 11.2318C12.8211 11.0055 12.5053 10.7923 12.1626 10.5944C11.4223 10.167 10.6829 9.88412 9.96304 9.73409L7.30792 14.3329C6.44128 15.834 6.05046 16.6408 5.85905 17.3591C5.7054 17.9357 5.67333 18.4766 5.66669 19.3354H8.60806Z" fill="#000000" class="bmwfcol"/><path d="M27.6649 12.335H17.8349L19.1649 13.665H26.3349V22.335H17.6649V17.665L16.3349 16.335V23.665H27.6649V12.335Z" fill="#000000" class="bmwfcol"/><title>lifting-person_lt_48</title></svg>