<svg width="48" height="48" viewBox="0 0 32 32" xmlns="http://www.w3.org/2000/svg"><path d="M17.9997 7.33447H15.3876L15.2026 7.69766C13.9862 10.0859 13.335 12.8908 13.335 15.9995C13.335 19.1081 13.9862 21.9131 15.2026 24.3013L15.3876 24.6645H18C22.5475 24.6645 25.4799 23.2382 27.2754 21.4019C29.0533 19.5836 29.665 17.4139 29.665 15.9995C29.665 14.5851 29.0533 12.4154 27.2754 10.5971C25.4799 8.76075 22.5472 7.33447 17.9997 7.33447ZM14.665 15.9995C14.665 13.2377 15.2113 10.7687 16.2092 8.66447H18C22.2524 8.66447 24.82 9.9882 26.3245 11.5269C27.8466 13.0836 28.335 14.9139 28.335 15.9995C28.335 17.0851 27.8466 18.9154 26.3245 20.4721C24.82 22.0107 22.2524 23.3345 18 23.3345H16.2092C15.2113 21.2302 14.665 18.7612 14.665 15.9995Z" fill="#000000" class="bmwfcol"/><path d="M12.4779 10.7204L2 13.528V12.151L12.9289 9.22266C12.7591 9.71084 12.6086 10.2103 12.4779 10.7204Z" fill="#000000" class="bmwfcol"/><path d="M2 17.528L11.8625 14.8853C11.8854 14.4099 11.923 13.9407 11.9751 13.4782L2 16.151V17.528Z" fill="#000000" class="bmwfcol"/><path d="M12.014 18.8447L2 21.528V20.151L11.8846 17.5025C11.9142 17.9559 11.9575 18.4034 12.014 18.8447Z" fill="#000000" class="bmwfcol"/><path d="M12.8732 22.6145L2 25.528V24.151L12.4934 21.3393C12.6059 21.7722 12.7325 22.1974 12.8732 22.6145Z" fill="#000000" class="bmwfcol"/><title>light-low-beam_lt_48</title></svg>