<svg width="48" height="48" viewBox="0 0 32 32" xmlns="http://www.w3.org/2000/svg"><path d="M8.93626 4.93724C10.6388 3.23466 13.072 2.33496 15.999 2.33496C18.9259 2.33496 21.3591 3.23466 23.0617 4.93724C24.7643 6.63981 25.664 9.07302 25.664 12C25.664 15.4281 24.4277 18.1728 22.1375 19.8562C21.5297 22.1244 21.0648 23.854 20.6677 25.1652C20.2605 26.5095 19.9086 27.471 19.5184 28.1412C19.1096 28.8434 18.6311 29.2726 17.9777 29.4836C17.4147 29.6655 16.7591 29.6652 16.0741 29.665H15.9239C15.2388 29.6652 14.5833 29.6655 14.0203 29.4836C13.3668 29.2726 12.8884 28.8434 12.4796 28.1412C12.0894 27.471 11.7374 26.5095 11.3303 25.1652C10.9332 23.854 10.4683 22.1244 9.86051 19.8562C7.57029 18.1728 6.33398 15.4281 6.33398 12C6.33398 9.07302 7.23369 6.63981 8.93626 4.93724ZM9.87671 5.87769C8.47428 7.28012 7.66398 9.3469 7.66398 12C7.66398 15.1888 8.83234 17.5365 10.8184 18.9057L11.02 19.0447L11.0833 19.2811C11.3928 20.436 11.6639 21.4477 11.9069 22.335H15.3359V17.2769L11 12.9409V11.06L15.9995 16.0596L21 11.0591V12.94L16.6659 17.274V22.335H20.0911C20.3341 21.4477 20.6052 20.436 20.9146 19.2811L20.978 19.0447L21.1795 18.9057C23.1656 17.5365 24.334 15.1888 24.334 12C24.334 9.3469 23.5237 7.28012 22.1213 5.87769C20.7188 4.47526 18.652 3.66496 15.999 3.66496C13.3459 3.66496 11.2791 4.47526 9.87671 5.87769ZM12.6032 24.7797C13.0092 26.1204 13.3244 26.9489 13.629 27.472C13.9149 27.9631 14.1588 28.1307 14.429 28.218C14.7691 28.3278 15.2112 28.335 15.999 28.335C16.7868 28.335 17.2288 28.3278 17.5689 28.218C17.8392 28.1307 18.0831 27.9631 18.369 27.472C18.6736 26.9489 18.9887 26.1204 19.3948 24.7797C19.4981 24.4385 19.6063 24.0679 19.7208 23.665H12.2771C12.3917 24.0679 12.4999 24.4385 12.6032 24.7797Z" fill="#000000" class="bmwfcol"/><title>light-bulb_lt_48</title></svg>