<svg width="48" height="48" viewBox="0 0 32 32" xmlns="http://www.w3.org/2000/svg"><path d="M22.4976 15.441L30.9678 6.97073L30.0273 6.03027L22.4976 13.56L19.9678 11.0303L19.0273 11.9707L22.4976 15.441Z" fill="#000000" class="bmwfcol"/><path d="M20.7693 8.53073C19.921 8.40381 18.9998 8.33496 18.0006 8.33496H15.3885L15.2036 8.69815C13.9872 11.0864 13.3359 13.8913 13.3359 17C13.3359 20.1086 13.9872 22.9136 15.2036 25.3018L15.3885 25.665H18.0009C22.5485 25.665 25.4809 24.2387 27.2764 22.4024C29.0543 20.5841 29.6659 18.4144 29.6659 17C29.6659 15.7927 29.2204 14.0352 27.9843 12.4157L27.0338 13.3662C28.0038 14.7031 28.3359 16.1047 28.3359 17C28.3359 18.0856 27.8476 19.9159 26.3255 21.4725C24.821 23.0112 22.2534 24.335 18.0009 24.335H16.2101C15.2123 22.2307 14.6659 19.7617 14.6659 17C14.6659 14.2382 15.2123 11.7692 16.2101 9.66496H18.0009C18.5521 9.66496 19.0749 9.68719 19.5707 9.72925L20.7693 8.53073Z" fill="#000000" class="bmwfcol"/><path d="M12.4778 11.7209L2 14.5284V13.1515L12.9287 10.2231C12.759 10.7113 12.6086 11.2108 12.4778 11.7209Z" fill="#000000" class="bmwfcol"/><path d="M2 18.5284L11.8625 15.8858C11.8854 15.4103 11.9229 14.9412 11.9751 14.4787L2 17.1515V18.5284Z" fill="#000000" class="bmwfcol"/><path d="M12.0141 19.8451L2 22.5284V21.1515L11.8846 18.5029C11.9143 18.9563 11.9575 19.4039 12.0141 19.8451Z" fill="#000000" class="bmwfcol"/><path d="M12.8733 23.6149L2 26.5284V25.1515L12.4935 22.3398C12.606 22.7726 12.7326 23.1978 12.8733 23.6149Z" fill="#000000" class="bmwfcol"/><title>light-check_lt_48</title></svg>