<svg width="48" height="48" viewBox="0 0 32 32" xmlns="http://www.w3.org/2000/svg"><path d="M16.665 5V1H15.335V5H16.665Z" fill="#000000" class="bmwfcol"/><path d="M8.49523 7.55477L5.59523 4.65477L4.65477 5.59523L7.55477 8.49523L8.49523 7.55477Z" fill="#000000" class="bmwfcol"/><path d="M24.4452 8.49523L27.3452 5.59523L26.4048 4.65477L23.5048 7.55477L24.4452 8.49523Z" fill="#000000" class="bmwfcol"/><path d="M1 16.665H5V15.335H1V16.665Z" fill="#000000" class="bmwfcol"/><path d="M27 16.665H31V15.335H27V16.665Z" fill="#000000" class="bmwfcol"/><path d="M5.59523 27.3452L8.49523 24.4452L7.55477 23.5048L4.65477 26.4048L5.59523 27.3452Z" fill="#000000" class="bmwfcol"/><path d="M27.3452 26.4048L24.4452 23.5048L23.5048 24.4452L26.4048 27.3452L27.3452 26.4048Z" fill="#000000" class="bmwfcol"/><path d="M10.4022 10.2909C11.7598 8.93334 13.693 8.22363 16 8.22363C18.3069 8.22363 20.2401 8.93334 21.5977 10.2909C22.9553 11.6485 23.665 13.5817 23.665 15.8886C23.665 18.571 22.7034 20.7421 20.9037 22.0871C20.4449 23.7983 20.0918 25.1099 19.7886 26.1075C19.4753 27.1381 19.1987 27.8918 18.8843 28.4238C18.55 28.9894 18.1481 29.3458 17.5959 29.5197C17.1338 29.6653 16.5994 29.665 16.0684 29.6648H15.9315C15.4006 29.665 14.8661 29.6653 14.404 29.5197C13.8519 29.3458 13.4499 28.9894 13.1156 28.4238C12.8012 27.8918 12.5247 27.1381 12.2114 26.1075C11.9081 25.1099 11.555 23.7983 11.0962 22.0871C9.29657 20.7421 8.33496 18.571 8.33496 15.8886C8.33496 13.5817 9.04466 11.6485 10.4022 10.2909ZM11.3427 11.2314C10.2853 12.2888 9.66496 13.8556 9.66496 15.8886C9.66496 18.3312 10.558 20.1064 12.0545 21.1381L12.256 21.277L12.3194 21.5134C12.4985 22.1815 12.6607 22.7866 12.8095 23.335H19.1904C19.3392 22.7866 19.5014 22.1815 19.6805 21.5134L19.7439 21.277L19.9454 21.1381C21.4419 20.1064 22.335 18.3312 22.335 15.8886C22.335 13.8556 21.7147 12.2888 20.6572 11.2314C19.5998 10.1739 18.033 9.55363 16 9.55363C13.9669 9.55363 12.4001 10.1739 11.3427 11.2314ZM13.4839 25.7207C13.7959 26.7472 14.0347 27.3649 14.2606 27.7471C14.4667 28.0958 14.6301 28.1965 14.8036 28.2512C15.0472 28.3279 15.3723 28.3347 16 28.3347C16.6277 28.3347 16.9527 28.3279 17.1963 28.2512C17.3698 28.1965 17.5333 28.0958 17.7393 27.7471C17.9653 27.3649 18.204 26.7472 18.516 25.7207C18.6124 25.4036 18.7143 25.053 18.8237 24.665H13.1762C13.2857 25.053 13.3875 25.4036 13.4839 25.7207Z" fill="#000000" class="bmwfcol"/><title>light_bulb_radiating_lt_48</title></svg>