<svg width="48" height="48" viewBox="0 0 32 32" xmlns="http://www.w3.org/2000/svg"><path d="M17.9997 7.33496H15.3876L15.2026 7.69815C13.9862 10.0864 13.335 12.8913 13.335 16C13.335 19.1086 13.9862 21.9136 15.2026 24.3018L15.3876 24.665H18C22.5475 24.665 25.4799 23.2387 27.2754 21.4024C29.0533 19.5841 29.665 17.4144 29.665 16C29.665 14.5856 29.0533 12.4159 27.2754 10.5975C25.4799 8.76123 22.5472 7.33496 17.9997 7.33496ZM14.665 16C14.665 13.2382 15.2113 10.7692 16.2092 8.66496H18C22.2524 8.66496 24.82 9.98869 26.3245 11.5274C27.8466 13.0841 28.335 14.9144 28.335 16C28.335 17.0856 27.8466 18.9159 26.3245 20.4725C24.82 22.0112 22.2524 23.335 18 23.335H16.2092C15.2113 21.2307 14.665 18.7617 14.665 16Z" fill="#000000" class="bmwfcol"/><path d="M12.8903 22.665H2V21.335H12.4922C12.6095 21.7868 12.7423 22.2303 12.8903 22.665Z" fill="#000000" class="bmwfcol"/><path d="M11.9918 18.665H2V17.335H11.8742C11.9002 17.7841 11.9395 18.2276 11.9918 18.665Z" fill="#000000" class="bmwfcol"/><path d="M11.8742 14.665H2V13.335H11.9918C11.9395 13.7724 11.9002 14.2158 11.8742 14.665Z" fill="#000000" class="bmwfcol"/><path d="M12.4922 10.665H2V9.33496H12.8903C12.7423 9.76961 12.6095 10.2131 12.4922 10.665Z" fill="#000000" class="bmwfcol"/><title>light-high-beam_lt_48</title></svg>