<svg width="48" height="48" viewBox="0 0 32 32" xmlns="http://www.w3.org/2000/svg"><path d="M20.8519 4.335H13.4922L10.3356 15.911V17.665H15.6484L13.1484 27.665H15.8767L23.6651 14.6842V12.835H18.7269L20.8519 4.335ZM11.6656 16.089L14.5081 5.665H19.1484L17.3351 12.9181V14.165H22.3351V14.3158L15.1236 26.335H14.8519L17.3519 16.335H11.6656V16.089Z" fill="#000000" class="bmwfcol"/><path d="M7.88398 14L4.54898 10.665L10.0001 10.665V9.335L4.54898 9.335L7.88398 6L6.11621 6L2.11621 10L6.11621 14H7.88398Z" fill="#000000" class="bmwfcol"/><path d="M24.1162 26L27.4512 22.665H21.5001V21.335H27.4512L24.1162 18H25.884L29.884 22L25.884 26H24.1162Z" fill="#000000" class="bmwfcol"/><title>lightning_bolt_two_arrows_lt_48</title></svg>