<svg width="48" height="48" viewBox="0 0 32 32" xmlns="http://www.w3.org/2000/svg"><path d="M22.6643 5.33499V10.3348L21.3343 11.6648V7.60522L16.999 11.9405L14.999 9.94045L10.4693 14.4702L9.52881 13.5298L14.999 8.05955L16.999 10.0595L20.3936 6.66499H16.334L17.664 5.33499H22.6643Z" fill="#000000" class="bmwfcol"/><path d="M28.2492 14.7166C28.7909 14.9207 29.1811 15.2414 29.4695 15.5297L29.9398 15.9999L21.3795 24.5603C20.4661 25.4743 19.8601 26.0807 18.9594 26.3809C18.5014 26.5336 17.995 26.6003 17.3778 26.6328C16.7665 26.665 16.0021 26.665 15.0187 26.665H11.2745L9.2745 28.665H7.72359L2.05859 23L6.5381 18.5205C7.03025 18.0283 7.41179 17.6468 7.72115 17.3578C8.02999 17.0693 8.29691 16.8441 8.56046 16.6828C9.13013 16.3342 9.61853 16.3345 10.2045 16.335L10.3548 16.335L14.0869 17.335L18.999 17.335C19.4502 17.335 19.8778 17.4883 20.1943 17.8047C20.2265 17.8369 20.257 17.8702 20.2858 17.9045C22.9331 15.7816 24.8316 14.8372 26.2571 14.5825C27.0488 14.441 27.7029 14.5108 28.2492 14.7166ZM19.3343 18.9998C19.3342 18.8512 19.2875 18.7788 19.254 18.7453C19.2204 18.7117 19.1479 18.665 18.999 18.665L13.9118 18.665L10.1801 17.6651C9.6009 17.6665 9.47138 17.6846 9.25469 17.8172C9.10971 17.9059 8.92237 18.0557 8.62907 18.3297C8.33824 18.6014 7.97264 18.9669 7.46927 19.4702L3.9395 23L8.2745 27.335H8.72359L10.7236 25.335H14.999C16.0062 25.335 16.7357 25.3348 17.3079 25.3047C17.8782 25.2747 18.2469 25.2164 18.5389 25.1191C19.109 24.9291 19.4934 24.5654 20.5291 23.5298L27.9981 16.0607C27.9294 16.0235 27.857 15.9901 27.7803 15.9612C27.4829 15.8492 27.0744 15.7875 26.4911 15.8917C25.3238 16.1003 23.5029 16.9648 20.6642 19.3116L20.664 20.2755L20.4693 20.4702C19.4334 21.5061 18.5973 22.0849 17.7095 22.3809C16.8565 22.6652 16.0109 22.6651 15.0589 22.665L10.999 22.665V21.335H14.9993C16.0229 21.335 16.6598 21.3288 17.2889 21.1191C17.8588 20.9291 18.4736 20.5508 19.3341 19.7211L19.3343 18.9998Z" fill="#000000" class="bmwfcol"/><title>line_up_arrow_on_hand_lt_48</title></svg>