<svg width="48" height="48" viewBox="0 0 32 32" xmlns="http://www.w3.org/2000/svg"><path d="M24.4467 24.452H20.8933V18.8827C20.8933 17.5547 20.8667 15.8453 19.04 15.8453C17.188 15.8453 16.9053 17.2907 16.9053 18.7853V24.452H13.3507V13H16.764V14.56H16.8107C17.288 13.6613 18.448 12.7107 20.1813 12.7107C23.7813 12.7107 24.448 15.0813 24.448 18.1653V24.452H24.4467ZM9.33733 11.4333C8.78948 11.434 8.26388 11.2166 7.87661 10.8291C7.48934 10.4416 7.27227 9.91585 7.27333 9.368C7.27407 8.22808 8.19875 7.3046 9.33867 7.30533C10.4786 7.30607 11.4021 8.23075 11.4013 9.37067C11.4006 10.5106 10.4759 11.4341 9.336 11.4333H9.33733ZM11.1187 24.452H7.55467V13H11.12V24.452H11.1187ZM26.2267 4H5.772C4.79067 4 4 4.77333 4 5.72933V26.2707C4 27.2267 4.792 28 5.77067 28H26.2213C27.2 28 28 27.2267 28 26.2707V5.72933C28 4.77333 27.2 4 26.2213 4H26.2253H26.2267Z" fill="#000000" class="bmwfcol"/><title>linkedin_lt_48</title></svg>