<svg width="48" height="48" viewBox="0 0 32 32" xmlns="http://www.w3.org/2000/svg"><path d="M5.99952 9.93997L9.96975 5.96975L9.0293 5.0293L5.99952 8.05907L4.46975 6.5293L3.5293 7.46975L5.99952 9.93997Z" fill="#000000" class="bmwfcol"/><path d="M14 8.66496H28V7.33496H14V8.66496Z" fill="#000000" class="bmwfcol"/><path d="M14 16.665H28V15.335H14V16.665Z" fill="#000000" class="bmwfcol"/><path d="M28 24.665H14V23.335H28V24.665Z" fill="#000000" class="bmwfcol"/><path d="M9.96975 13.9697L5.99952 17.94L3.5293 15.4697L4.46975 14.5293L5.99952 16.0591L9.0293 13.0293L9.96975 13.9697Z" fill="#000000" class="bmwfcol"/><path d="M5.99952 25.94L9.96975 21.9697L9.0293 21.0293L5.99952 24.0591L4.46975 22.5293L3.5293 23.4697L5.99952 25.94Z" fill="#000000" class="bmwfcol"/><title>list-checkmarks_lt_48</title></svg>