<svg width="48" height="48" viewBox="0 0 32 32" xmlns="http://www.w3.org/2000/svg"><path d="M5.79736 8.78215C5.79736 8.14532 6.31362 7.62906 6.95046 7.62906C7.5873 7.62906 8.10355 8.14532 8.10355 8.78215C8.10355 9.41899 7.5873 9.93525 6.95046 9.93525C6.31362 9.93525 5.79736 9.41899 5.79736 8.78215Z" fill="#000000" class="bmwfcol"/><path d="M3.61007 5.55655C4.43868 4.74533 5.60173 4.33501 6.95002 4.33501C8.29831 4.33501 9.46136 4.74533 10.29 5.55655C11.1202 6.36938 11.5436 7.5152 11.5436 8.84616C11.5436 10.2427 10.9151 11.5331 10.1425 12.6297C9.36639 13.7312 8.39357 14.7075 7.61211 15.4746L7.41811 15.665H6.48192L6.28793 15.4746C5.50646 14.7075 4.53365 13.7312 3.75757 12.6297C2.98492 11.5331 2.35645 10.2427 2.35645 8.84616C2.35645 7.5152 2.77983 6.36938 3.61007 5.55655ZM4.5405 6.50692C4.01342 7.02294 3.68645 7.8002 3.68645 8.84616C3.68645 9.84755 4.14223 10.8665 4.8448 11.8637C5.46477 12.7436 6.23746 13.5522 6.95002 14.2595C7.66257 13.5522 8.43526 12.7436 9.05523 11.8637C9.7578 10.8665 10.2136 9.84755 10.2136 8.84616C10.2136 7.8002 9.88661 7.02294 9.35953 6.50692C8.83082 5.9893 8.02958 5.66501 6.95002 5.66501C5.87045 5.66501 5.06921 5.9893 4.5405 6.50692Z" fill="#000000" class="bmwfcol"/><path d="M24.0006 16.8275C23.2902 16.8275 22.7144 17.4033 22.7144 18.1137C22.7144 18.824 23.2902 19.3999 24.0006 19.3999C24.7109 19.3999 25.2868 18.824 25.2868 18.1137C25.2868 17.4033 24.7109 16.8275 24.0006 16.8275Z" fill="#000000" class="bmwfcol"/><path d="M19.876 14.1379C20.8897 13.1455 22.3206 12.635 24 12.635C25.6793 12.635 27.1102 13.1455 28.1239 14.1379C29.1393 15.132 29.665 16.54 29.665 18.1951C29.665 19.9186 28.8886 21.524 27.9148 22.9061C26.9376 24.293 25.7103 25.5255 24.7156 26.5019L24.5216 26.6923H23.4783L23.2843 26.5019C22.2896 25.5255 21.0623 24.293 20.0851 22.9061C19.1113 21.524 18.335 19.9186 18.335 18.1951C18.335 16.54 18.8607 15.132 19.876 14.1379ZM20.8064 15.0883C20.0943 15.7855 19.665 16.825 19.665 18.1951C19.665 19.5235 20.2686 20.8574 21.1723 22.14C22.0082 23.3263 23.0573 24.4091 24 25.34C24.9426 24.4091 25.9917 23.3263 26.8276 22.14C27.7313 20.8574 28.335 19.5235 28.335 18.1951C28.335 16.825 27.9057 15.7855 27.1935 15.0883C26.4797 14.3895 25.4106 13.965 24 13.965C22.5893 13.965 21.5202 14.3895 20.8064 15.0883Z" fill="#000000" class="bmwfcol"/><path d="M13 15.335H9.99996V16.665H13C13.5402 16.665 14.335 17.2674 14.335 18.5C14.335 19.7326 13.5402 20.335 13 20.335H8.99996C8.18817 20.335 7.27505 20.5561 6.55143 21.1498C5.80571 21.7617 5.33496 22.7097 5.33496 24C5.33496 25.2903 5.80571 26.2383 6.55143 26.8502C7.27505 27.4439 8.18817 27.665 8.99996 27.665H20V26.335H8.99996C8.40718 26.335 7.8203 26.1709 7.39506 25.822C6.99193 25.4912 6.66496 24.9392 6.66496 24C6.66496 23.0608 6.99193 22.5088 7.39506 22.178C7.8203 21.8291 8.40718 21.665 8.99996 21.665H13C14.4597 21.665 15.665 20.2674 15.665 18.5C15.665 16.7326 14.4597 15.335 13 15.335Z" fill="#000000" class="bmwfcol"/><title>location_path_lt_48</title></svg>