<svg width="48" height="48" viewBox="0 0 32 32" xmlns="http://www.w3.org/2000/svg"><path d="M23.5 6.33496C22.8981 6.33496 22.3406 6.52415 21.9324 6.93239C21.5242 7.34063 21.335 7.89811 21.335 8.49996C21.335 9.10182 21.5242 9.65929 21.9324 10.0675C22.3406 10.4758 22.8981 10.665 23.5 10.665C24.1018 10.665 24.6593 10.4758 25.0675 10.0675C25.4758 9.65929 25.665 9.10182 25.665 8.49996C25.665 7.89811 25.4758 7.34063 25.0675 6.93239C24.6593 6.52415 24.1018 6.33496 23.5 6.33496ZM22.665 8.49996C22.665 8.17557 22.7626 7.98304 22.8728 7.87284C22.983 7.76264 23.1756 7.66496 23.5 7.66496C23.8244 7.66496 24.0169 7.76264 24.1271 7.87284C24.2373 7.98304 24.335 8.17557 24.335 8.49996C24.335 8.82436 24.2373 9.01688 24.1271 9.12708C24.0169 9.23728 23.8244 9.33496 23.5 9.33496C23.1756 9.33496 22.983 9.23728 22.8728 9.12708C22.7626 9.01688 22.665 8.82436 22.665 8.49996Z" fill="#000000" class="bmwfcol"/><path d="M19.0101 3.9692C20.1102 2.89221 21.6661 2.33496 23.5 2.33496C25.3338 2.33496 26.8897 2.89221 27.9898 3.9692C29.0915 5.04779 29.665 6.57823 29.665 8.38458C29.665 10.2607 28.8196 12.013 27.7519 13.5283C26.6808 15.0485 25.3348 16.4005 24.2406 17.4745L24.0466 17.665H22.9534L22.7594 17.4745C21.6651 16.4005 20.3191 15.0485 19.248 13.5283C18.1803 12.013 17.335 10.2607 17.335 8.38458C17.335 6.57823 17.9084 5.04779 19.0101 3.9692ZM19.9406 4.91957C19.142 5.70136 18.665 6.86323 18.665 8.38458C18.665 9.86554 19.3376 11.3464 20.3352 12.7623C21.2713 14.0909 22.4489 15.3008 23.4975 16.335H23.5025C24.551 15.3008 25.7286 14.0909 26.6647 12.7623C27.6623 11.3464 28.335 9.86554 28.335 8.38458C28.335 6.86323 27.8579 5.70136 27.0594 4.91957C26.2592 4.13618 25.0651 3.66496 23.5 3.66496C21.9348 3.66496 20.7407 4.13618 19.9406 4.91957Z" fill="#000000" class="bmwfcol"/><path d="M16.078 6.27717L12.714 4.33496H11.3763L3.33496 6.48962V25.6643L4.58752 25.6642L12.0489 23.6649H12.3574L19.2857 27.665H20.6234L28.6647 25.5103V14.8235C28.2401 15.3906 27.7876 15.9301 27.3347 16.4352V24.4898L20.665 26.2769V17.5018C20.2322 17.0576 19.7801 16.5749 19.335 16.0604V26.1577L12.7138 22.3349H12.665V5.8424L15.86 7.68706C15.8952 7.20378 15.9675 6.73235 16.078 6.27717ZM11.335 5.72294V22.4793L4.66496 24.2666L4.66496 7.51016L11.335 5.72294Z" fill="#000000" class="bmwfcol"/><title>location-map_lt_48</title></svg>