<svg width="48" height="48" viewBox="0 0 32 32" xmlns="http://www.w3.org/2000/svg"><path d="M9.15269 6.15269C7.57442 7.73096 6.66496 10.0483 6.66496 13C6.66496 15.9238 7.96207 18.7922 9.80488 21.4637C11.585 24.0443 13.8297 26.3785 15.7766 28.335H16.2233C18.1702 26.3785 20.4149 24.0443 22.195 21.4637C24.0379 18.7922 25.335 15.9238 25.335 13C25.335 10.0483 24.4255 7.73096 22.8472 6.15269C21.269 4.57442 18.9516 3.66496 16 3.66496C13.0483 3.66496 10.731 4.57442 9.15269 6.15269ZM8.21223 5.21223C10.089 3.33551 12.7716 2.33496 16 2.33496C19.2283 2.33496 21.911 3.33551 23.7877 5.21223C25.6644 7.08896 26.665 9.77159 26.665 13C26.665 16.3107 25.2021 19.4467 23.2898 22.2189C21.3745 24.9954 18.9603 27.4744 16.9704 29.4696L16.7755 29.665H15.2244L15.0296 29.4696C13.0396 27.4744 10.6254 24.9954 8.71009 22.2189C6.79781 19.4467 5.33496 16.3107 5.33496 13C5.33496 9.77159 6.33551 7.08896 8.21223 5.21223Z" fill="#000000" class="bmwfcol"/><path d="M13.5439 10.5439C13.0017 11.0862 12.665 11.9037 12.665 13C12.665 14.0962 13.0017 14.9138 13.5439 15.456C14.0862 15.9982 14.9037 16.335 16 16.335C17.0962 16.335 17.9138 15.9982 18.456 15.456C18.9982 14.9138 19.335 14.0962 19.335 13C19.335 11.9037 18.9982 11.0862 18.456 10.5439C17.9138 10.0017 17.0962 9.66496 16 9.66496C14.9037 9.66496 14.0862 10.0017 13.5439 10.5439ZM12.6035 9.60348C13.4438 8.76322 14.6262 8.33496 16 8.33496C17.3737 8.33496 18.5562 8.76322 19.3964 9.60348C20.2367 10.4438 20.665 11.6262 20.665 13C20.665 14.3737 20.2367 15.5562 19.3964 16.3964C18.5562 17.2367 17.3737 17.665 16 17.665C14.6262 17.665 13.4438 17.2367 12.6035 16.3964C11.7632 15.5562 11.335 14.3737 11.335 13C11.335 11.6262 11.7632 10.4438 12.6035 9.60348Z" fill="#000000" class="bmwfcol"/><title>location-pin_lt_48</title></svg>