<svg width="48" height="48" viewBox="0 0 32 32" xmlns="http://www.w3.org/2000/svg"><path d="M14.835 20C14.835 19.3565 15.3565 18.835 16 18.835C16.6434 18.835 17.165 19.3565 17.165 20C17.165 20.6434 16.6434 21.165 16 21.165C15.3565 21.165 14.835 20.6434 14.835 20Z" fill="#000000" class="bmwfcol"/><path d="M9.33496 8.99996V12.3632C8.55464 12.4327 7.88691 12.6325 7.37229 12.9876C6.68207 13.4639 6.33496 14.1742 6.33496 14.9999V24.9997C6.33496 25.8255 6.68207 26.5358 7.37229 27.0121C8.02772 27.4643 8.93152 27.6647 9.99995 27.6647H22C23.0684 27.6647 23.9722 27.4643 24.6276 27.0121C25.3179 26.5358 25.665 25.8255 25.665 24.9997V14.9999C25.665 14.1742 25.3179 13.4638 24.6276 12.9876C24.113 12.6325 23.4453 12.4327 22.665 12.3632V8.99996C22.665 7.04884 22.0117 5.37123 20.8202 4.17973C19.6287 2.98824 17.9511 2.33496 16 2.33496C14.0488 2.33496 12.3712 2.98824 11.1797 4.17973C9.98824 5.37123 9.33496 7.04884 9.33496 8.99996ZM12.1202 5.12019C13.0287 4.21169 14.3511 3.66496 16 3.66496C17.6488 3.66496 18.9712 4.21169 19.8797 5.12019C20.7882 6.02869 21.335 7.35108 21.335 8.99996V12.335H10.665V8.99996C10.665 7.35108 11.2117 6.02869 12.1202 5.12019ZM22 13.665C22.9315 13.665 23.5277 13.8446 23.8723 14.0823C24.1821 14.2961 24.335 14.5857 24.335 14.9999V24.9997C24.335 25.414 24.1821 25.7036 23.8723 25.9174C23.5277 26.1551 22.9315 26.3347 22 26.3347H9.99995C9.06839 26.3347 8.47219 26.1551 8.12763 25.9174C7.81785 25.7036 7.66496 25.414 7.66496 24.9997V14.9999C7.66496 14.5857 7.81785 14.296 8.12763 14.0823C8.47219 13.8446 9.06839 13.665 9.99995 13.665H22Z" fill="#000000" class="bmwfcol"/><title>lock-locked_lt_48</title></svg>