<svg width="48" height="48" viewBox="0 0 32 32" xmlns="http://www.w3.org/2000/svg"><path d="M12.5009 9.33496C11.8575 9.33496 11.3359 9.85655 11.3359 10.5C11.3359 11.1434 11.8575 11.665 12.5009 11.665C13.1443 11.665 13.6659 11.1434 13.6659 10.5C13.6659 9.85655 13.1443 9.33496 12.5009 9.33496Z" fill="#000000" class="bmwfcol"/><path d="M12.5009 20.335C11.8575 20.335 11.3359 20.8565 11.3359 21.5C11.3359 22.1434 11.8575 22.665 12.5009 22.665C13.1443 22.665 13.6659 22.1434 13.6659 21.5C13.6659 20.8565 13.1443 20.335 12.5009 20.335Z" fill="#000000" class="bmwfcol"/><path d="M16.6659 27.665V5.66496H26.0009C26.174 5.66496 26.2408 5.71526 26.2632 5.73769C26.2856 5.76012 26.3359 5.8269 26.3359 5.99996V14H27.6659V5.99996C27.6659 5.55302 27.5262 5.11981 27.2037 4.79724C26.8811 4.47466 26.4479 4.33496 26.0009 4.33496H6.00094C5.554 4.33496 5.12078 4.47466 4.79821 4.79723C4.47564 5.11981 4.33594 5.55302 4.33594 5.99996V26C4.33594 26.4469 4.47564 26.8801 4.79821 27.2027C5.12078 27.5253 5.554 27.665 6.00094 27.665H16.6659ZM5.73866 5.73769C5.76109 5.71526 5.82788 5.66496 6.00094 5.66496H15.3359V15.335H5.66594V5.99996C5.66594 5.8269 5.71623 5.76012 5.73866 5.73769ZM15.3359 16.665L15.3359 26.335H6.00094C5.82788 26.335 5.76109 26.2847 5.73866 26.2622C5.71623 26.2398 5.66594 26.173 5.66594 26V16.665H15.3359Z" fill="#000000" class="bmwfcol"/><path d="M23.5009 9.33496C22.8575 9.33496 22.3359 9.85655 22.3359 10.5C22.3359 11.1434 22.8575 11.665 23.5009 11.665C24.1443 11.665 24.6659 11.1434 24.6659 10.5C24.6659 9.85655 24.1443 9.33496 23.5009 9.33496Z" fill="#000000" class="bmwfcol"/><path d="M25.0009 24.335C24.3575 24.335 23.8359 24.8565 23.8359 25.5C23.8359 26.1434 24.3575 26.665 25.0009 26.665C25.6443 26.665 26.1659 26.1434 26.1659 25.5C26.1659 24.8565 25.6443 24.335 25.0009 24.335Z" fill="#000000" class="bmwfcol"/><path d="M28.666 21.3381V20C28.666 18.9489 28.3127 18.0212 27.6462 17.3547C26.9797 16.6882 26.0521 16.335 25.001 16.335C23.9498 16.335 23.0222 16.6882 22.3557 17.3547C21.6892 18.0212 21.3359 18.9489 21.3359 20V21.3381C20.8306 21.3572 20.3642 21.4677 19.9983 21.7202C19.558 22.0239 19.3359 22.4843 19.3359 23L19.3359 28C19.3359 28.5157 19.558 28.9761 19.9983 29.2798C20.4037 29.5596 20.9325 29.665 21.5009 29.665L28.5009 29.665C29.0694 29.665 29.5982 29.5596 30.0036 29.2798C30.4438 28.9761 30.666 28.5157 30.666 28V23C30.666 22.4842 30.4438 22.0239 30.0036 21.7202C29.6377 21.4677 29.1713 21.3572 28.666 21.3381ZM23.2962 18.2952C23.6797 17.9117 24.2521 17.665 25.001 17.665C25.7499 17.665 26.3223 17.9117 26.7058 18.2952C27.0893 18.6787 27.336 19.2511 27.336 20V21.335L22.6659 21.335V20C22.6659 19.2511 22.9127 18.6787 23.2962 18.2952ZM21.5009 22.665L28.5009 22.665C28.9325 22.665 29.1537 22.7496 29.2483 22.8149C29.3081 22.8561 29.336 22.8958 29.336 23V28C29.336 28.1042 29.3081 28.1439 29.2483 28.1851C29.1537 28.2504 28.9325 28.335 28.5009 28.335L21.5009 28.335C21.0694 28.335 20.8482 28.2504 20.7536 28.1851C20.6938 28.1439 20.6659 28.1042 20.6659 28L20.6659 23C20.6659 22.8958 20.6938 22.8561 20.7536 22.8149C20.8482 22.7496 21.0694 22.665 21.5009 22.665Z" fill="#000000" class="bmwfcol"/><title>locker_lt_48</title></svg>