<svg width="48" height="48" viewBox="0 0 32 32" xmlns="http://www.w3.org/2000/svg"><path d="M10.835 20C10.835 19.3565 11.3565 18.835 12 18.835C12.6434 18.835 13.165 19.3565 13.165 20C13.165 20.6434 12.6434 21.165 12 21.165C11.3565 21.165 10.835 20.6434 10.835 20Z" fill="#000000" class="bmwfcol"/><path d="M17.665 8.99996C17.665 7.35108 18.2117 6.02869 19.1202 5.12019C20.0287 4.21169 21.3511 3.66496 23 3.66496C24.6488 3.66496 25.9712 4.21169 26.8797 5.12019C27.7882 6.02869 28.335 7.35108 28.335 8.99996V14H29.665V8.99996C29.665 7.04884 29.0117 5.37123 27.8202 4.17973C26.6287 2.98824 24.9511 2.33496 23 2.33496C21.0488 2.33496 19.3712 2.98824 18.1797 4.17973C16.9882 5.37123 16.335 7.04884 16.335 8.99996V12.335H5.99995C4.93152 12.335 4.02772 12.5354 3.37229 12.9876C2.68207 13.4639 2.33496 14.1742 2.33496 14.9999V24.9997C2.33496 25.8255 2.68207 26.5358 3.37229 27.0121C4.02772 27.4643 4.93152 27.6647 5.99995 27.6647H18C19.0684 27.6647 19.9722 27.4643 20.6276 27.0121C21.3179 26.5358 21.665 25.8255 21.665 24.9997V14.9999C21.665 14.1742 21.3179 13.4638 20.6276 12.9876C19.9722 12.5354 19.0684 12.335 18 12.335H17.665V8.99996ZM5.99995 13.665H18C18.9315 13.665 19.5277 13.8446 19.8723 14.0823C20.1821 14.2961 20.335 14.5857 20.335 14.9999V24.9997C20.335 25.414 20.1821 25.7036 19.8723 25.9174C19.5277 26.1551 18.9315 26.3347 18 26.3347H5.99995C5.06839 26.3347 4.47219 26.1551 4.12763 25.9174C3.81785 25.7036 3.66496 25.414 3.66496 24.9997V14.9999C3.66496 14.5857 3.81785 14.296 4.12763 14.0823C4.47219 13.8446 5.06839 13.665 5.99995 13.665Z" fill="#000000" class="bmwfcol"/><title>lock-unlocked_lt_48</title></svg>