<svg width="48" height="48" viewBox="0 0 32 32" xmlns="http://www.w3.org/2000/svg"><path d="M17 5.66496H25C25.4142 5.66496 25.7039 5.81785 25.9177 6.12763C26.1554 6.4722 26.335 7.0684 26.335 7.99996V24C26.335 24.9315 26.1554 25.5277 25.9177 25.8723C25.7039 26.1821 25.4142 26.335 25 26.335H17V27.665H25C25.8258 27.665 26.5361 27.3179 27.0123 26.6276C27.4646 25.9722 27.665 25.0684 27.665 24V7.99996C27.665 6.93152 27.4646 6.02772 27.0123 5.37229C26.5361 4.68207 25.8258 4.33496 25 4.33496H17V5.66496Z" fill="#000000" class="bmwfcol"/><path d="M11.0736 22.1875L16.4288 16.665H4V15.335H16.4289L11.0738 9.8125H12.9264L18.9263 15.9999L12.9262 22.1875H11.0736Z" fill="#000000" class="bmwfcol"/><title>login_lt_48</title></svg>