<svg width="48" height="48" viewBox="0 0 32 32" xmlns="http://www.w3.org/2000/svg"><path d="M25.3946 16.6649L20.0596 21.9999H21.9405L27.9405 15.9999L21.9404 9.99992H20.0595L25.3945 15.3349H13V16.6649H25.3946Z" fill="#000000" class="bmwfcol"/><path d="M6.99996 5.66496H15V4.33496H6.99996C6.17421 4.33496 5.46386 4.68207 4.98761 5.37229C4.53536 6.02772 4.33496 6.93152 4.33496 7.99996V24C4.33496 25.0684 4.53536 25.9722 4.98761 26.6276C5.46386 27.3179 6.17421 27.665 6.99996 27.665H15V26.335H6.99996C6.58571 26.335 6.29606 26.1821 6.08231 25.8723C5.84456 25.5277 5.66496 24.9315 5.66496 24V7.99996C5.66496 7.0684 5.84456 6.4722 6.08231 6.12763C6.29606 5.81785 6.58571 5.66496 6.99996 5.66496Z" fill="#000000" class="bmwfcol"/><title>logout_lt_48</title></svg>