<svg width="48" height="48" viewBox="0 0 32 32" xmlns="http://www.w3.org/2000/svg"><path d="M18.3 23.9796C19.1239 24.2114 20.027 24.335 21 24.335C23.5488 24.335 25.6212 23.4882 27.0547 22.0547C28.4882 20.6212 29.335 18.5488 29.335 16C29.335 13.4511 28.4882 11.3787 27.0547 9.94519C25.6212 8.51169 23.5488 7.66496 21 7.66496C19.405 7.66496 17.9977 7.99704 16.8195 8.5933L16.6779 8.66496H15.322L15.1804 8.5933C14.0022 7.99704 12.595 7.66496 11 7.66496C8.45108 7.66496 6.37869 8.51169 4.94519 9.94519C3.51169 11.3787 2.66496 13.4511 2.66496 16C2.66496 18.5488 3.51169 20.6212 4.94519 22.0547C6.37869 23.4882 8.45108 24.335 11 24.335C11.973 24.335 12.8761 24.2114 13.7 23.9796V25.3542C12.8536 25.5592 11.9501 25.665 11 25.665C8.14884 25.665 5.72123 24.7117 4.00473 22.9952C2.28824 21.2787 1.33496 18.8511 1.33496 16C1.33496 13.1488 2.28824 10.7212 4.00473 9.00473C5.72123 7.28824 8.14884 6.33496 11 6.33496C12.7187 6.33496 14.2846 6.68089 15.6362 7.33496H16.3637C17.7153 6.68089 19.2812 6.33496 21 6.33496C23.8511 6.33496 26.2787 7.28824 27.9952 9.00473C29.7117 10.7212 30.665 13.1488 30.665 16C30.665 18.8511 29.7117 21.2787 27.9952 22.9952C26.2787 24.7117 23.8511 25.665 21 25.665C20.0498 25.665 19.1464 25.5592 18.3 25.3542V23.9796Z" fill="#000000" class="bmwfcol"/><path d="M16.665 12V14.5H15.335V12H16.665ZM16.665 16V26H15.335V16H16.665Z" fill="#000000" class="bmwfcol"/><path d="M27.3142 19.3739C27.1149 19.8042 26.8768 20.1953 26.6061 20.5468L20.0593 14H21.9402L27.3142 19.3739Z" fill="#000000" class="bmwfcol"/><path d="M4.68603 19.3733L10.0593 14H11.9402L5.39393 20.5463C5.12332 20.1948 4.88528 19.8035 4.68603 19.3733Z" fill="#000000" class="bmwfcol"/><title>look-ahead_lt_48</title></svg>