<svg width="48" height="48" viewBox="0 0 32 32" xmlns="http://www.w3.org/2000/svg"><path d="M16.6659 20V22H15.3359V20H16.6659Z" fill="#000000" class="bmwfcol"/><path d="M16.6659 17V19H15.3359V17H16.6659Z" fill="#000000" class="bmwfcol"/><path d="M16.6659 14V16H15.3359V14H16.6659Z" fill="#000000" class="bmwfcol"/><path d="M4.94616 9.94519C3.51266 11.3787 2.66594 13.4511 2.66594 16C2.66594 18.5488 3.51266 20.6212 4.94616 22.0547C6.37967 23.4882 8.45206 24.335 11.0009 24.335C12.5959 24.335 14.0032 24.0029 15.1814 23.4066L15.323 23.335H16.6789L16.8205 23.4066C17.9987 24.0029 19.4059 24.335 21.0009 24.335C23.5498 24.335 25.6222 23.4882 27.0557 22.0547C28.4892 20.6212 29.3359 18.5488 29.3359 16C29.3359 13.4511 28.4892 11.3787 27.0557 9.94519C25.6222 8.51169 23.5498 7.66496 21.0009 7.66496C19.4059 7.66496 17.9987 7.99704 16.8205 8.5933L16.6789 8.66496H15.323L15.1814 8.5933C14.0032 7.99704 12.5959 7.66496 11.0009 7.66496C8.45206 7.66496 6.37967 8.51169 4.94616 9.94519ZM4.00571 9.00473C5.72221 7.28824 8.14982 6.33496 11.0009 6.33496C12.7197 6.33496 14.2856 6.68089 15.6372 7.33496H16.3647C17.7163 6.68089 19.2822 6.33496 21.0009 6.33496C23.8521 6.33496 26.2797 7.28824 27.9962 9.00473C29.7127 10.7212 30.6659 13.1488 30.6659 16C30.6659 18.8511 29.7127 21.2787 27.9962 22.9952C26.2797 24.7117 23.8521 25.665 21.0009 25.665C19.2822 25.665 17.7163 25.319 16.3647 24.665H15.6372C14.2856 25.319 12.7196 25.665 11.0009 25.665C8.14982 25.665 5.72221 24.7117 4.00571 22.9952C2.28921 21.2787 1.33594 18.8511 1.33594 16C1.33594 13.1488 2.28921 10.7212 4.00571 9.00473Z" fill="#000000" class="bmwfcol"/><path d="M21.9411 14H20.0602L26.6071 20.5468C26.8777 20.1953 27.1158 19.8041 27.3151 19.3739L21.9411 14Z" fill="#000000" class="bmwfcol"/><path d="M5.39487 20.5463L11.9412 14H10.0603L4.68696 19.3733C4.88622 19.8035 5.12426 20.1947 5.39487 20.5463Z" fill="#000000" class="bmwfcol"/><title>look-ahead-assistant_lt_48</title></svg>