<svg width="48" height="48" viewBox="0 0 32 32" xmlns="http://www.w3.org/2000/svg"><path d="M16 2.33496C13.4549 2.33496 11.4485 4.50162 11.6437 7.03919L12.3842 16.665H19.6158L20.3563 7.03918C20.5515 4.50162 18.5451 2.33496 16 2.33496ZM12.9698 6.93718C12.834 5.17207 14.2297 3.66496 16 3.66496C17.7703 3.66496 19.1659 5.17207 19.0302 6.93718L18.3842 15.335H16.665L16.665 6.99996C16.665 6.63269 16.3673 6.33496 16 6.33496C15.6328 6.33496 15.335 6.63269 15.335 6.99996L15.335 15.335H13.6158L12.9698 6.93718Z" fill="#000000" class="bmwfcol"/><path d="M15.335 29L15.335 18H16.665L16.665 29H15.335Z" fill="#000000" class="bmwfcol"/><title>loop_brush_lt_48</title></svg>