<svg width="48" height="48" viewBox="0 0 32 32" xmlns="http://www.w3.org/2000/svg"><path d="M9.44139 4.33496H22.5586C23.1917 4.33496 23.6607 4.37892 23.9932 4.50067C24.1719 4.56611 24.3539 4.66892 24.4952 4.83873C24.641 5.01412 24.695 5.20267 24.7142 5.35181L24.7146 5.35546L25.665 12.4557V12.7409L25.7779 12.8638L25.8342 12.8138L25.8436 12.806C26.3211 12.4123 26.7748 12.198 27.4371 12.096C28.0409 12.0031 28.8417 12.0015 29.9999 12.0015V13.3315C28.7968 13.3315 28.1183 13.3368 27.6394 13.4106C27.2234 13.4746 26.9915 13.585 26.6987 13.8248L26.6804 13.841C27.4215 14.5227 28.1404 15.2007 28.6766 15.8548C29.2103 16.5058 29.665 17.2512 29.665 18.0498V27.6648H23.6683V25.4683C18.7277 25.4649 13.2723 25.4649 8.33167 25.4683V27.6648H2.335V18.0498C2.335 17.2512 2.78968 16.5058 3.32341 15.8548C3.85964 15.2008 4.5785 14.5227 5.31956 13.8411L5.30138 13.8249C5.00813 13.585 4.77612 13.4746 4.36021 13.4106C3.88145 13.3368 3.20308 13.3315 2 13.3315V12.0015C3.15825 12.0015 3.95887 12.0031 4.5626 12.096C5.22488 12.198 5.67838 12.4123 6.15612 12.8059L6.16565 12.8137L6.22207 12.8638L6.335 12.7409V12.4557L7.28583 5.35198C7.30494 5.20281 7.35893 5.01418 7.50485 4.83873C7.64608 4.66892 7.82812 4.56611 8.00683 4.50067C8.33932 4.37892 8.80833 4.33496 9.44139 4.33496ZM25.665 14.7069V17.1348H27.9732C27.8837 17 27.7765 16.8547 27.6481 16.698C27.1681 16.1127 26.4974 15.4791 25.7287 14.7728L25.708 14.7537L25.665 14.7069ZM25.665 18.4648V19C25.665 19.8169 25.5513 20.461 25.2795 20.9206C24.9723 21.44 24.4981 21.665 24 21.665H8C7.50195 21.665 7.02771 21.44 6.72051 20.9206C6.44865 20.461 6.335 19.8169 6.335 19V18.4648H3.665V26.3348H7.00167V24.1392L7.66617 24.1388C12.9998 24.1348 19.0002 24.1348 24.3338 24.1388L24.9983 24.1392V26.3348H28.335V18.4648H25.665ZM6.335 17.1348V14.7069L6.29201 14.7537L6.27127 14.7728C5.50256 15.4791 4.83186 16.1127 4.35192 16.698C4.22352 16.8547 4.11552 17 4.02596 17.1348H6.335ZM9.98358 20.335H22.0163L20.6803 18.665H11.3196L9.98358 20.335ZM23.665 20.335H24.0019C24.0548 20.335 24.0806 20.335 24.1347 20.2435C24.2248 20.0913 24.335 19.7354 24.335 19V13.1651H7.665V19C7.665 19.7354 7.77521 20.0913 7.86527 20.2435C7.91936 20.335 7.94516 20.335 7.99811 20.335H8.33496V20.2667L10.6803 17.335H21.3196L23.665 20.2667V20.335ZM8.51935 6.16136L7.75992 11.8351H24.2401L23.4806 6.16107L23.2255 7.69144C23.2013 7.83666 23.142 8.02061 22.9923 8.18974C22.8494 8.35129 22.6694 8.44788 22.4938 8.50922C22.1664 8.6236 21.7045 8.66492 21.0763 8.66492H10.9235C10.2952 8.66492 9.83335 8.62359 9.50595 8.50922C9.33037 8.44788 9.15039 8.35129 9.00746 8.18974C8.85782 8.0206 8.79851 7.83667 8.77431 7.69144L8.51935 6.16136ZM22.215 5.66496H9.78498L10.0543 7.28117C10.1994 7.30871 10.4635 7.33491 10.9235 7.33491H21.0763C21.5363 7.33491 21.8004 7.3087 21.9455 7.28117L22.215 5.66496Z" fill="#000000" class="bmwfcol"/><title>luggage_compartment_lt_48</title></svg>