<svg width="48" height="48" viewBox="0 0 32 32" xmlns="http://www.w3.org/2000/svg"><path d="M15.1152 4.99996C15.1152 5.98809 14.697 6.88172 13.9855 7.46544L15.0044 7.73846L11.8283 19.5921L10.8624 19.3333L9.79216 23.3273C9.59674 24.0597 9.19352 24.6597 8.58736 25.0095C9.00016 25.5536 9.21477 26.2419 9.21477 27C9.21477 28.7268 7.93787 30.165 6.04977 30.165C5.14865 30.165 4.34604 29.8617 3.76704 29.2827C3.18804 28.7037 2.88477 27.9011 2.88477 27C2.88477 26.0988 3.18804 25.2962 3.76704 24.7172C4.07538 24.4089 4.44715 24.1787 4.86343 24.031L4.84884 24.006C4.49984 23.4001 4.44995 22.6804 4.64301 21.9506L4.64356 21.9486L5.71397 17.9538L4.74802 17.6949L7.92419 5.84131L8.95787 6.11828C8.8435 5.7715 8.78516 5.39521 8.78516 4.99996C8.78516 4.09884 9.08843 3.29623 9.66743 2.71723C10.2464 2.13824 11.049 1.83496 11.9502 1.83496C12.8513 1.83496 13.6539 2.13824 14.2329 2.71723C14.8119 3.29623 15.1152 4.09884 15.1152 4.99996ZM10.1152 4.99996C10.1152 5.59884 10.3119 6.04623 10.6079 6.34224C10.7871 6.52149 11.0219 6.66433 11.3122 6.74913L11.3966 6.77175C11.564 6.81265 11.7485 6.83496 11.9502 6.83496C13.0621 6.83496 13.7852 6.03459 13.7852 4.99996C13.7852 4.40108 13.5884 3.95369 13.2924 3.65769C12.9964 3.36169 12.549 3.16496 11.9502 3.16496C11.3513 3.16496 10.9039 3.36169 10.6079 3.65769C10.3119 3.95369 10.1152 4.40108 10.1152 4.99996ZM11.0528 8.05654C11.0234 8.04909 10.9943 8.04128 10.9653 8.03308L8.86464 7.47022L6.37693 16.7545L10.8878 17.9632L13.3755 8.67891L11.0528 8.05654ZM6.52799 25.2125L6.51009 25.2077C6.36814 25.1799 6.2147 25.165 6.04977 25.165C5.45089 25.165 5.00349 25.3617 4.70749 25.6577C4.41149 25.9537 4.21477 26.4011 4.21477 27C4.21477 27.5988 4.41149 28.0462 4.70749 28.3422C5.00349 28.6382 5.45089 28.835 6.04977 28.835C7.16166 28.835 7.88477 28.0346 7.88477 27C7.88477 26.4011 7.68804 25.9537 7.39204 25.6577C7.21457 25.4802 6.98269 25.3384 6.69636 25.2533C6.64033 25.2412 6.58419 25.2276 6.52799 25.2125ZM7.92193 23.8579C8.15987 23.7209 8.38214 23.4532 8.50704 22.9847L9.57767 18.989L6.99865 18.298L5.92878 22.2908C5.80545 22.7578 5.86356 23.103 6.00131 23.3421C6.13438 23.5731 6.38898 23.7885 6.82749 23.9154C6.89054 23.9289 6.9528 23.9442 7.01422 23.9611C7.41024 24.0402 7.70841 23.9809 7.92193 23.8579Z" fill="#000000" class="bmwfcol"/><path d="M14.9641 21H16.4999L13.0358 27H11.5L14.9641 21Z" fill="#000000" class="bmwfcol"/><path d="M14.5 27H16.0358L19.4999 21H17.9641L14.5 27Z" fill="#000000" class="bmwfcol"/><path d="M19.0358 27H17.5L20.9641 21H22.4999L19.0358 27Z" fill="#000000" class="bmwfcol"/><path d="M20.5 27H22.0358L24.3344 23.0187V27H26.0358L28.3344 23.0187V27H29.6644V21H27.9641L25.6644 24.9833V21H23.9641L20.5 27Z" fill="#000000" class="bmwfcol"/><title>m-suspension_lt_48</title></svg>