<svg width="48" height="48" viewBox="0 0 32 32" xmlns="http://www.w3.org/2000/svg"><path d="M21.6837 21.4268C21.3606 20.6689 20.9343 20.113 20.239 19.7764C19.7382 19.534 19.1511 19.4326 18.4827 19.3837C17.818 19.335 17.0043 19.335 16.0243 19.335H15.976C14.996 19.335 14.1823 19.335 13.5176 19.3837C12.8492 19.4326 12.2621 19.534 11.7613 19.7764C11.0661 20.113 10.6397 20.6689 10.3166 21.4268C10.3582 21.4711 10.4003 21.5146 10.4429 21.5572C10.7227 21.837 11.0402 22.0948 11.3973 22.3249C11.6917 21.4758 11.9669 21.1546 12.3408 20.9736C12.6147 20.841 13.0022 20.7549 13.6147 20.7101C14.2253 20.6654 14.991 20.665 16.0002 20.665C17.0094 20.665 17.775 20.6654 18.3856 20.7101C18.9981 20.7549 19.3856 20.841 19.6595 20.9736C20.0334 21.1546 20.3086 21.4758 20.6031 22.3249C20.9601 22.0948 21.2776 21.837 21.5574 21.5572C21.6 21.5146 21.6421 21.4711 21.6837 21.4268Z" fill="#000000" class="bmwfcol"/><path d="M13.3737 10.2485C14.0842 9.53798 15.0449 9.33501 16.0002 9.33501C16.9554 9.33501 17.9161 9.53798 18.6266 10.2485C19.335 10.957 19.6652 12.0401 19.6652 13.5C19.6652 14.9599 19.335 16.0431 18.6266 16.7515C17.9161 17.462 16.9554 17.665 16.0002 17.665C15.0449 17.665 14.0842 17.462 13.3737 16.7515C12.6653 16.0431 12.3352 14.9599 12.3352 13.5C12.3352 12.0401 12.6653 10.957 13.3737 10.2485ZM14.3141 11.189C13.96 11.5431 13.6652 12.2099 13.6652 13.5C13.6652 14.7901 13.96 15.457 14.3141 15.811C14.6661 16.163 15.2054 16.335 16.0002 16.335C16.7949 16.335 17.3342 16.163 17.6862 15.811C18.0403 15.457 18.3352 14.7901 18.3352 13.5C18.3352 12.2099 18.0403 11.5431 17.6862 11.189C17.3342 10.837 16.7949 10.665 16.0002 10.665C15.2054 10.665 14.6661 10.837 14.3141 11.189Z" fill="#000000" class="bmwfcol"/><path d="M18.5002 5.55103C17.7107 5.40775 16.8757 5.33497 16.0001 5.33497C15.3073 5.33497 14.6398 5.38055 14.0002 5.47057V6.81492C14.6295 6.71601 15.2966 6.66497 16.0001 6.66497C16.893 6.66497 17.7272 6.74718 18.5002 6.90515V5.55103Z" fill="#000000" class="bmwfcol"/><path d="M24.4611 11.5009H25.8994C26.4048 12.833 26.6651 14.344 26.6651 16C26.6651 18.9658 25.83 21.4668 24.2478 23.3073L28.4704 27.5298L27.5299 28.4703L23.3074 24.2477C21.467 25.8299 18.966 26.665 16.0001 26.665C12.7632 26.665 10.08 25.6703 8.20489 23.7952C6.32982 21.9201 5.33512 19.2369 5.33512 16C5.33512 15.3071 5.38069 14.6396 5.47071 14H6.81506C6.71615 14.6294 6.66512 15.2965 6.66512 16C6.66512 18.963 7.57041 21.2798 9.14534 22.8547C10.7203 24.4297 13.0371 25.335 16.0001 25.335C18.9632 25.335 21.28 24.4297 22.8549 22.8547C24.4298 21.2798 25.3351 18.963 25.3351 16C25.3351 14.275 25.0283 12.769 24.4611 11.5009Z" fill="#000000" class="bmwfcol"/><path d="M30.4704 3.47024L24.0002 9.94046L20.5299 6.47024L21.4704 5.52979L24.0002 8.05956L29.5299 2.52979L30.4704 3.47024Z" fill="#000000" class="bmwfcol"/><path d="M10.1756 3.39816H3.82409L1.8999 6.14618L1.89997 6.7279L6.50296 12.2135H7.49674L12.0997 6.7279L12.0998 6.14618L10.1756 3.39816ZM3.52234 5.92123L4.44877 4.59816H9.55093L10.4774 5.92123H3.52234ZM3.7965 7.12123H10.2032L6.99985 10.9388L3.7965 7.12123Z" fill="#000000" class="bmwfcol"/><title>magnifying_glass_diamond_person_check_mark_lt_48</title></svg>