<svg width="48" height="48" viewBox="0 0 32 32" xmlns="http://www.w3.org/2000/svg"><path d="M16.1683 19.2685C16.1176 19.364 16.0629 19.4559 16.0042 19.5439C15.5492 20.2264 14.8544 20.665 14.0009 20.665C13.1475 20.665 12.4527 20.2264 11.9976 19.5439C11.939 19.4559 11.8843 19.364 11.8335 19.2685C11.4038 19.6225 10.8514 19.8025 10.2509 19.8025C9.57482 19.8025 8.95971 19.5743 8.51196 19.1265C8.06421 18.6788 7.83594 18.0637 7.83594 17.3875C7.83594 16.7114 8.06421 16.0963 8.51196 15.6486L12.0808 12.0798C12.1081 12.0525 12.136 12.0259 12.1644 12.0001C12.1115 11.952 12.0604 11.9013 12.0115 11.8481L11.8367 11.6581L11.8347 10.8465C11.8343 10.5873 11.8339 10.267 11.8369 10.2129L11.8377 10.1977C11.8403 10.141 11.8466 10.0077 11.8858 9.86574C11.8906 9.84839 11.8958 9.83115 11.9014 9.81401C11.7195 9.60141 11.5889 9.4129 11.4999 9.2349C11.3367 8.90844 11.3359 8.65896 11.3359 8.5V7H12.6659V8.5C12.6659 8.56633 12.6671 8.57708 12.6686 8.58599C12.669 8.58855 12.6714 8.60399 12.6895 8.6401C12.7085 8.67821 12.7418 8.73337 12.8 8.81066C12.976 8.68975 13.1816 8.56205 13.4205 8.42409L13.5748 8.335L14.427 8.335L14.5813 8.42409C14.8202 8.56206 15.0258 8.68977 15.2019 8.81069C15.2601 8.73339 15.2933 8.67822 15.3124 8.6401C15.3305 8.60398 15.3328 8.58878 15.3332 8.58622C15.3347 8.57732 15.3359 8.56633 15.3359 8.5V7H16.6659V8.5C16.6659 8.65896 16.6652 8.90844 16.502 9.2349C16.413 9.41291 16.2823 9.60144 16.1004 9.81407C16.106 9.83119 16.1112 9.84841 16.116 9.86574C16.1552 10.0077 16.1615 10.141 16.1641 10.1977L16.1649 10.2129C16.1679 10.267 16.1675 10.5873 16.1671 10.8465L16.1651 11.6581L15.9903 11.8481C15.9414 11.9013 15.8904 11.9519 15.8375 12C15.866 12.0259 15.8939 12.0525 15.9212 12.0798C15.9248 12.0834 15.9283 12.0869 15.9319 12.0905L19.4899 15.6486C19.9377 16.0963 20.1659 16.7114 20.1659 17.3875C20.1659 18.0637 19.9377 18.6788 19.4899 19.1265C19.0422 19.5743 18.4271 19.8025 17.7509 19.8025C17.1504 19.8025 16.5981 19.6225 16.1683 19.2685ZM14.9878 13.0273L14.9807 13.0202C14.7722 12.8117 14.4498 12.665 14.001 12.665C13.5521 12.665 13.2298 12.8117 13.0213 13.0202C12.8128 13.2287 12.6661 13.5511 12.6661 14L12.666 14.835H15.3359V14C15.3359 13.5562 15.1925 13.236 14.9878 13.0273ZM16.6659 14.7055V17C16.6659 17.0012 16.6659 17.0024 16.6659 17.0036V17.3875C16.6659 17.7614 16.7877 18.0213 16.9524 18.1861C17.1172 18.3508 17.3771 18.4725 17.7509 18.4725C18.1248 18.4725 18.3847 18.3508 18.5495 18.1861C18.7142 18.0213 18.8359 17.7614 18.8359 17.3875C18.8359 17.0137 18.7142 16.7538 18.5495 16.589L16.6659 14.7055ZM15.3359 16.165H12.666L12.6659 17C12.6659 17.8113 12.8476 18.4211 13.1043 18.8061C13.3492 19.1736 13.6544 19.335 14.0009 19.335C14.3475 19.335 14.6526 19.1736 14.8976 18.8061C15.1539 18.4216 15.3355 17.813 15.3359 17.0032C15.3359 17.0021 15.3359 17.0011 15.3359 17V16.165ZM11.336 14.7054L9.45241 16.589C9.28766 16.7538 9.16594 17.0137 9.16594 17.3875C9.16594 17.7614 9.28766 18.0213 9.45241 18.1861C9.61717 18.3508 9.87706 18.4725 10.2509 18.4725C10.6248 18.4725 10.8847 18.3508 11.0495 18.1861C11.2142 18.0213 11.3359 17.7614 11.3359 17.3875L11.336 14.7054ZM13.1652 11.1004C13.3691 11.2432 13.6455 11.335 14.0009 11.335C14.3563 11.335 14.6327 11.2432 14.8366 11.1004L14.8371 10.8446C14.8373 10.7049 14.8374 10.564 14.8373 10.4546C14.8372 10.3941 14.837 10.3509 14.8369 10.3234C14.8367 10.2945 14.8367 10.2829 14.8369 10.2867C14.8353 10.2576 14.8341 10.2393 14.8334 10.2282C14.8311 10.2251 14.8282 10.2214 14.8246 10.217C14.7574 10.1351 14.569 9.96463 14.068 9.665H13.9338C13.4329 9.96463 13.2444 10.1351 13.1772 10.217L13.1723 10.2231L13.1684 10.2282C13.1677 10.2393 13.1665 10.2577 13.1649 10.2871C13.1651 10.2823 13.1651 10.2935 13.165 10.3228C13.1648 10.3503 13.1646 10.3941 13.1645 10.4546C13.1644 10.564 13.1645 10.7049 13.1647 10.8446L13.1652 11.1004Z" fill="#000000" class="bmwfcol"/><path d="M6.20571 6.20474C8.08078 4.32966 10.764 3.33496 14.0009 3.33496C17.2379 3.33496 19.9211 4.32966 21.7962 6.20474C23.6712 8.07981 24.6659 10.763 24.6659 14C24.6659 16.9658 23.8309 19.4668 22.2487 21.3072L28.4713 27.5297L27.5308 28.4702L21.3083 22.2476C19.4678 23.8299 16.9668 24.665 14.0009 24.665C10.764 24.665 8.08078 23.6703 6.20571 21.7952C4.33064 19.9201 3.33594 17.2369 3.33594 14C3.33594 10.763 4.33064 8.07981 6.20571 6.20474ZM7.14616 7.14519C5.57123 8.72012 4.66594 11.0369 4.66594 14C4.66594 16.963 5.57123 19.2798 7.14616 20.8547C8.72109 22.4297 11.0379 23.335 14.0009 23.335C16.964 23.335 19.2808 22.4297 20.8557 20.8547C22.4306 19.2798 23.3359 16.963 23.3359 14C23.3359 11.0369 22.4306 8.72012 20.8557 7.14519C19.2808 5.57026 16.964 4.66496 14.0009 4.66496C11.0379 4.66496 8.72109 5.57026 7.14616 7.14519Z" fill="#000000" class="bmwfcol"/><title>magnifying_glass_and_bee_lt_48</title></svg>