<svg width="48" height="48" viewBox="0 0 32 32" xmlns="http://www.w3.org/2000/svg"><path d="M21.6835 21.4259C21.3605 20.668 20.9341 20.1121 20.2388 19.7755C19.7381 19.5331 19.151 19.4317 18.4826 19.3827C17.8178 19.3341 17.0042 19.3341 16.0241 19.3341H15.9759C14.9959 19.3341 14.1822 19.3341 13.5174 19.3827C12.849 19.4317 12.262 19.5331 11.7612 19.7755C11.0659 20.1121 10.6395 20.668 10.3165 21.4259C10.3581 21.4702 10.4002 21.5137 10.4428 21.5563C10.7225 21.8361 11.0401 22.0938 11.3971 22.324C11.6915 21.4748 11.9668 21.1536 12.3407 20.9727C12.6146 20.8401 13.0021 20.754 13.6145 20.7092C14.2252 20.6645 14.9908 20.6641 16 20.6641C17.0092 20.6641 17.7748 20.6645 18.3855 20.7092C18.998 20.754 19.3854 20.8401 19.6593 20.9727C20.0332 21.1536 20.3085 21.4748 20.6029 22.3239C20.9599 22.0938 21.2775 21.8361 21.5572 21.5563C21.5998 21.5137 21.6419 21.4702 21.6835 21.4259Z" fill="#000000" class="bmwfcol"/><path d="M13.3735 10.2476C14.0841 9.53707 15.0448 9.3341 16 9.3341C16.9552 9.3341 17.9159 9.53707 18.6265 10.2476C19.3349 10.956 19.665 12.0392 19.665 13.4991C19.665 14.959 19.3349 16.0422 18.6265 16.7506C17.9159 17.4611 16.9552 17.6641 16 17.6641C15.0448 17.6641 14.0841 17.4611 13.3735 16.7506C12.6651 16.0422 12.335 14.959 12.335 13.4991C12.335 12.0392 12.6651 10.956 13.3735 10.2476ZM14.314 11.1881C13.9599 11.5422 13.665 12.209 13.665 13.4991C13.665 14.7892 13.9599 15.456 14.314 15.8101C14.6659 16.1621 15.2052 16.3341 16 16.3341C16.7948 16.3341 17.3341 16.1621 17.686 15.8101C18.0401 15.456 18.335 14.7892 18.335 13.4991C18.335 12.209 18.0401 11.5422 17.686 11.1881C17.3341 10.8361 16.7948 10.6641 16 10.6641C15.2052 10.6641 14.6659 10.8361 14.314 11.1881Z" fill="#000000" class="bmwfcol"/><path d="M18.5 5.55011C17.7105 5.40683 16.8755 5.33406 16 5.33406C12.763 5.33406 10.0798 6.32876 8.20474 8.20383C6.32966 10.0789 5.33496 12.7621 5.33496 15.9991C5.33496 19.236 6.32966 21.9192 8.20474 23.7943C10.0798 25.6694 12.763 26.6641 16 26.6641C18.9658 26.6641 21.4668 25.829 23.3072 24.2468L27.5298 28.4694L28.4702 27.5289L24.2477 23.3063C25.8299 21.4659 26.665 18.9649 26.665 15.9991C26.665 14.3431 26.4046 12.8321 25.8993 11.5H24.461C25.0281 12.7681 25.335 14.2741 25.335 15.9991C25.335 18.9621 24.4297 21.2789 22.8547 22.8538C21.2798 24.4288 18.963 25.3341 16 25.3341C13.0369 25.3341 10.7201 24.4288 9.14519 22.8538C7.57026 21.2789 6.66496 18.9621 6.66496 15.9991C6.66496 13.036 7.57026 10.7192 9.14519 9.14428C10.7201 7.56935 13.0369 6.66406 16 6.66406C16.8929 6.66406 17.7271 6.74627 18.5 6.90424V5.55011Z" fill="#000000" class="bmwfcol"/><path d="M30.4702 3.46932L24 9.93955L20.5298 6.46932L21.4702 5.52887L24 8.05864L29.5298 2.52887L30.4702 3.46932Z" fill="#000000" class="bmwfcol"/><title>magnifying_glass_person_check_mark_lt_48</title></svg>