<svg width="48" height="48" viewBox="0 0 32 32" xmlns="http://www.w3.org/2000/svg"><path d="M30.4702 3.47024L24 9.94046L20.5298 6.47024L21.4702 5.52979L24 8.05956L29.5298 2.52979L30.4702 3.47024Z" fill="#000000" class="bmwfcol"/><path d="M16 5.33496C16.8755 5.33496 17.7105 5.40773 18.5 5.55102V6.90514C17.7271 6.74717 16.8929 6.66496 16 6.66496C13.534 6.66496 11.5156 7.29199 10 8.41021V6.8181C11.6551 5.84326 13.686 5.33496 16 5.33496Z" fill="#000000" class="bmwfcol"/><path d="M25.8993 11.5009H24.461C25.0281 12.769 25.335 14.275 25.335 16C25.335 18.963 24.4297 21.2798 22.8547 22.8547C21.2798 24.4297 18.963 25.335 16 25.335C13.0369 25.335 10.7201 24.4297 9.14519 22.8547C7.57026 21.2798 6.66496 18.963 6.66496 16C6.66496 15.9278 6.6655 15.856 6.66657 15.7846C7.38523 15.6495 8.02674 15.3029 8.49512 14.5771C9.08298 13.6661 9.32182 12.2573 9.32182 10.2417V9.57666H7.90775V5.99921H6.57775V9.57666H5.07926V5.99908H3.74926V9.57666H2.33496V10.2417C2.33496 12.2573 2.57379 13.6661 3.16166 14.5771C3.70396 15.4175 4.47834 15.7494 5.33584 15.8335C5.33525 15.8888 5.33496 15.9443 5.33496 16C5.33496 19.2369 6.32966 21.9201 8.20473 23.7952C10.0798 25.6703 12.763 26.665 16 26.665C18.9658 26.665 21.4668 25.8299 23.3072 24.2477L27.5298 28.4703L28.4702 27.5298L24.2477 23.3072C25.8299 21.4668 26.665 18.9658 26.665 16C26.665 14.344 26.4046 12.833 25.8993 11.5009ZM7.37759 13.856C7.07034 14.3321 6.62838 14.5264 5.82839 14.5264C5.02839 14.5264 4.58643 14.3321 4.27919 13.856C3.95829 13.3587 3.72565 12.4707 3.6752 10.9067H7.98158C7.93112 12.4707 7.69848 13.3587 7.37759 13.856Z" fill="#000000" class="bmwfcol"/><path d="M16 9.33502C15.0448 9.33502 14.0841 9.538 13.3736 10.2485C12.6651 10.957 12.335 12.0401 12.335 13.5C12.335 14.9599 12.6651 16.0431 13.3736 16.7515C14.0841 17.462 15.0448 17.665 16 17.665C16.9553 17.665 17.916 17.462 18.6265 16.7515C19.3349 16.0431 19.665 14.9599 19.665 13.5C19.665 12.0401 19.3349 10.957 18.6265 10.2485C17.916 9.538 16.9553 9.33502 16 9.33502ZM13.665 13.5C13.665 12.2099 13.9599 11.5431 14.314 11.189C14.666 10.837 15.2053 10.665 16 10.665C16.7948 10.665 17.3341 10.837 17.6861 11.189C18.0401 11.5431 18.335 12.2099 18.335 13.5C18.335 14.7901 18.0401 15.457 17.6861 15.811C17.3341 16.163 16.7948 16.335 16 16.335C15.2053 16.335 14.666 16.163 14.314 15.811C13.9599 15.457 13.665 14.7901 13.665 13.5Z" fill="#000000" class="bmwfcol"/><path d="M20.2389 19.7765C20.9341 20.113 21.3605 20.6689 21.6836 21.4268C21.642 21.4712 21.5999 21.5146 21.5573 21.5573C21.2775 21.837 20.96 22.0948 20.6029 22.3249C20.3085 21.4758 20.0333 21.1546 19.6594 20.9736C19.3855 20.841 18.998 20.755 18.3855 20.7101C17.7749 20.6654 17.0093 20.665 16 20.665C14.9908 20.665 14.2252 20.6654 13.6146 20.7101C13.0021 20.755 12.6146 20.841 12.3407 20.9736C11.9668 21.1546 11.6916 21.4758 11.3972 22.3249C11.0401 22.0948 10.7226 21.837 10.4428 21.5573C10.4002 21.5146 10.3581 21.4712 10.3165 21.4268C10.6396 20.6689 11.0659 20.113 11.7612 19.7765C12.262 19.5341 12.8491 19.4326 13.5175 19.3837C14.1822 19.335 14.9959 19.335 15.9759 19.335H16.0242C17.0042 19.335 17.8179 19.335 18.4826 19.3837C19.151 19.4326 19.7381 19.5341 20.2389 19.7765Z" fill="#000000" class="bmwfcol"/><title>magnifying_glass_plug_person_check_mark_lt_48</title></svg>