<svg width="48" height="48" viewBox="0 0 32 32" xmlns="http://www.w3.org/2000/svg"><path d="M16 9.33409C15.0448 9.33409 14.0841 9.53707 13.3736 10.2476C12.6651 10.956 12.335 12.0392 12.335 13.4991C12.335 14.959 12.6651 16.0422 13.3736 16.7506C14.0841 17.4611 15.0448 17.6641 16 17.6641C16.9553 17.6641 17.916 17.4611 18.6265 16.7506C19.3349 16.0422 19.665 14.959 19.665 13.4991C19.665 12.0392 19.3349 10.956 18.6265 10.2476C17.916 9.53707 16.9553 9.33409 16 9.33409ZM13.665 13.4991C13.665 12.209 13.9599 11.5422 14.314 11.1881C14.666 10.8361 15.2053 10.6641 16 10.6641C16.7948 10.6641 17.3341 10.8361 17.6861 11.1881C18.0401 11.5422 18.335 12.209 18.335 13.4991C18.335 14.7892 18.0401 15.456 17.6861 15.8101C17.3341 16.1621 16.7948 16.3341 16 16.3341C15.2053 16.3341 14.666 16.1621 14.314 15.8101C13.9599 15.456 13.665 14.7892 13.665 13.4991Z" fill="#000000" class="bmwfcol"/><path d="M20.2389 19.7755C20.9341 20.1121 21.3605 20.668 21.6836 21.4259C21.642 21.4702 21.5999 21.5137 21.5573 21.5563C21.2775 21.8361 20.96 22.0938 20.6029 22.3239C20.3085 21.4748 20.0333 21.1536 19.6594 20.9727C19.3855 20.8401 18.998 20.754 18.3855 20.7092C17.7749 20.6645 17.0093 20.6641 16 20.6641C14.9908 20.6641 14.2252 20.6645 13.6146 20.7092C13.0021 20.754 12.6146 20.8401 12.3407 20.9727C11.9668 21.1536 11.6916 21.4748 11.3971 22.3239C11.0401 22.0938 10.7226 21.8361 10.4428 21.5563C10.4002 21.5137 10.3581 21.4702 10.3165 21.4259C10.6396 20.668 11.0659 20.1121 11.7612 19.7755C12.262 19.5331 12.8491 19.4317 13.5175 19.3827C14.1822 19.3341 14.9959 19.3341 15.9759 19.3341H16.0242C17.0042 19.3341 17.8179 19.3341 18.4826 19.3827C19.151 19.4317 19.7381 19.5331 20.2389 19.7755Z" fill="#000000" class="bmwfcol"/><path d="M8.20474 8.20387C10.0798 6.32879 12.763 5.33409 16 5.33409C19.2369 5.33409 21.9201 6.32879 23.7952 8.20387C25.6703 10.0789 26.665 12.7622 26.665 15.9991C26.665 18.9649 25.8299 21.4659 24.2478 23.3063L28.4703 27.5288L27.5298 28.4693L23.3073 24.2467C21.4669 25.829 18.9659 26.6641 16 26.6641C12.763 26.6641 10.0798 25.6694 8.20474 23.7943C6.32966 21.9192 5.33496 19.236 5.33496 15.9991C5.33496 12.7622 6.32966 10.0789 8.20474 8.20387ZM9.14519 9.14432C7.57026 10.7192 6.66496 13.036 6.66496 15.9991C6.66496 18.9622 7.57026 21.2789 9.14519 22.8539C10.7201 24.4288 13.0369 25.3341 16 25.3341C18.963 25.3341 21.2798 24.4288 22.8547 22.8539C24.4297 21.2789 25.335 18.9622 25.335 15.9991C25.335 13.036 24.4297 10.7192 22.8547 9.14432C21.2798 7.56939 18.963 6.66409 16 6.66409C13.0369 6.66409 10.7201 7.56939 9.14519 9.14432Z" fill="#000000" class="bmwfcol"/><title>magnifying_glass_person_lt_48</title></svg>