<svg width="48" height="48" viewBox="0 0 32 32" xmlns="http://www.w3.org/2000/svg"><path d="M18.5009 11.835C17.1498 11.835 15.9722 12.2883 15.1307 13.1298C15.1023 13.1582 15.0744 13.1869 15.0469 13.2161C14.8337 12.1085 14.3384 11.147 13.5962 10.4048C12.5797 9.38827 11.1521 8.83499 9.50094 8.83499H7.83594V10.5C7.83594 12.1511 8.38921 13.5787 9.40571 14.5952C10.4222 15.6117 11.8498 16.165 13.5009 16.165H13.8454C13.8391 16.2754 13.8359 16.3871 13.8359 16.5V20.5L15.1659 20.5V18.165H15.5009C16.8521 18.165 18.0297 17.7117 18.8712 16.8702C19.7127 16.0287 20.1659 14.8511 20.1659 13.5V11.835H18.5009ZM15.1659 16.5C15.1659 15.4511 15.5127 14.6287 16.0712 14.0702C16.6297 13.5117 17.4521 13.165 18.5009 13.165H18.8359V13.5C18.8359 14.5489 18.4892 15.3713 17.9307 15.9298C17.3722 16.4883 16.5498 16.835 15.5009 16.835H15.1659V16.5ZM9.16594 10.165H9.50094C10.8498 10.165 11.9222 10.6117 12.6557 11.3452C13.3892 12.0787 13.8359 13.1511 13.8359 14.5V14.835H13.5009C12.1521 14.835 11.0797 14.3883 10.3462 13.6548C9.61266 12.9213 9.16594 11.8489 9.16594 10.5V10.165Z" fill="#000000" class="bmwfcol"/><path d="M6.20571 6.20477C8.08078 4.32969 10.764 3.33499 14.0009 3.33499C17.2379 3.33499 19.9211 4.32969 21.7962 6.20477C23.6712 8.07984 24.6659 10.7631 24.6659 14C24.6659 16.9658 23.8309 19.4668 22.2487 21.3072L28.4713 27.5297L27.5308 28.4702L21.3083 22.2477C19.4679 23.8299 16.9668 24.665 14.0009 24.665C10.764 24.665 8.08078 23.6703 6.20571 21.7952C4.33064 19.9201 3.33594 17.2369 3.33594 14C3.33594 10.7631 4.33064 8.07984 6.20571 6.20477ZM7.14616 7.14522C5.57123 8.72015 4.66594 11.0369 4.66594 14C4.66594 16.9631 5.57123 19.2798 7.14616 20.8548C8.72109 22.4297 11.0379 23.335 14.0009 23.335C16.964 23.335 19.2808 22.4297 20.8557 20.8548C22.4306 19.2798 23.3359 16.9631 23.3359 14C23.3359 11.0369 22.4306 8.72015 20.8557 7.14522C19.2808 5.57029 16.964 4.66499 14.0009 4.66499C11.0379 4.66499 8.72109 5.57029 7.14616 7.14522Z" fill="#000000" class="bmwfcol"/><title>magnifying_glass_and_plant_lt_48</title></svg>