<svg width="48" height="48" viewBox="0 0 32 32" xmlns="http://www.w3.org/2000/svg"><path d="M28.665 6.33496H3.33496V23C3.33496 23.8257 3.68207 24.5361 4.37229 25.0123C5.02772 25.4646 5.93152 25.665 6.99996 25.665H25C26.0684 25.665 26.9722 25.4646 27.6277 25.0123C28.3179 24.5361 28.665 23.8257 28.665 23V6.33496ZM5.8368 7.66496H26.1631L16.3592 15.8349H15.6407L5.8368 7.66496ZM27.335 8.41966V23C27.335 23.4142 27.1821 23.7039 26.8723 23.9176C26.5277 24.1554 25.9315 24.335 25 24.335H6.99996C6.06839 24.335 5.4722 24.1554 5.12763 23.9176C4.81785 23.7039 4.66496 23.4142 4.66496 23V8.4197L15.1592 17.1649H16.8407L27.335 8.41966Z" fill="#000000" class="bmwfcol"/><title>mail_lt_48</title></svg>