<svg width="48" height="48" viewBox="0 0 32 32" xmlns="http://www.w3.org/2000/svg"><path d="M16.0002 5.66496H13.6652V7.33495H16.2756L17.1575 8.21684L28.1992 5.25823L29.4704 6.52978L28.5299 7.47011L27.8016 6.74168L26.9785 6.96224C23.2636 10.6771 21.3468 12.5928 20.1175 13.5669C19.4845 14.0685 18.9815 14.3643 18.4655 14.518C17.9712 14.6652 17.5104 14.6651 17.0417 14.665L8.33516 14.6649V10.5104L2.77148 9.01959L3.98984 4.47261L4.63218 4.64472C6.88275 5.24776 8.13652 5.70084 8.8171 6.18194C9.18792 6.44408 9.43272 6.74316 9.55869 7.10925C9.58465 7.18469 9.60434 7.26037 9.61927 7.33495H12.3352V5.66496H10.0002V4.33496H16.0002V5.66496ZM8.33516 7.87215C8.33291 7.69137 8.32441 7.60986 8.30106 7.54199C8.28513 7.49571 8.24614 7.40709 8.04937 7.26799C7.63961 6.97833 6.77329 6.6219 4.92935 6.10504L4.4004 8.07914L8.33516 9.13345V7.87215ZM16.76 9.70026L15.7247 8.66495H9.66516V13.3349L17.0002 13.335C17.517 13.335 17.7937 13.3303 18.0859 13.2433C18.371 13.1584 18.7202 12.9772 19.2915 12.5245C20.2631 11.7546 21.725 10.3275 24.4074 7.65115L16.76 9.70026Z" fill="#000000" class="bmwfcol"/><path d="M28.6486 21.3794L27.9881 21.9602L23.8317 20.8465L23.8307 20.8462C23.4026 20.73 23.2451 20.8201 23.152 20.9037C22.9985 21.0416 22.8359 21.3407 22.6806 21.9202C22.5254 22.4996 22.5168 22.8391 22.5808 23.0347C22.6197 23.1538 22.7116 23.3109 23.1412 23.4257L27.4053 24.5682L27.6872 25.4061L27.4594 25.6897C26.4394 26.9597 24.8637 27.665 23.0006 27.665C20.6598 27.665 18.7938 26.549 17.9017 24.665L6.0006 24.665C5.24948 24.665 4.57188 24.4117 4.08038 23.9202C3.58888 23.4287 3.3356 22.7511 3.3356 22C3.3356 21.2488 3.58888 20.5712 4.08038 20.0797C4.57188 19.5882 5.24948 19.335 6.0006 19.335L17.9017 19.335C18.7938 17.4509 20.6598 16.335 23.0006 16.335C24.4829 16.335 25.7861 16.7805 26.7749 17.6106C27.765 18.4418 28.3991 19.6249 28.5981 21.0236L28.6486 21.3794ZM25.9197 18.6292C25.2017 18.0264 24.2134 17.665 23.0006 17.665C20.977 17.665 19.5497 18.6655 18.9653 20.2324L18.8039 20.665L6.0006 20.665C5.55172 20.665 5.22933 20.8117 5.02083 21.0202C4.81233 21.2287 4.6656 21.5511 4.6656 22C4.6656 22.4488 4.81233 22.7712 5.02083 22.9797C5.22933 23.1882 5.55172 23.335 6.0006 23.335L18.8039 23.335L18.9653 23.7676C19.5497 25.3344 20.977 26.335 23.0006 26.335C24.1186 26.335 25.048 26.0285 25.753 25.5024L22.7979 24.7106C22.0682 24.5157 21.5338 24.112 21.3167 23.4481C21.1246 22.8608 21.2301 22.1951 21.396 21.5759C21.5619 20.9568 21.8035 20.327 22.2635 19.9141C22.7835 19.4472 23.4483 19.3646 24.1779 19.5623L24.179 19.5626L27.0739 20.3383C26.8332 19.6378 26.4358 19.0625 25.9197 18.6292Z" fill="#000000" class="bmwfcol"/><path d="M29.0002 13.1649C28.6924 13.1649 28.3792 13.0581 28.147 12.808C27.9201 12.5637 27.8352 12.2527 27.8352 11.9615C27.8352 11.7718 27.8858 11.5835 27.9285 11.4481C27.9751 11.2999 28.0356 11.1448 28.0925 11.0047C28.124 10.9271 28.1536 10.8555 28.1808 10.7895C28.2642 10.5879 28.326 10.4381 28.3561 10.3266L28.4889 9.83494H29.5114L29.6442 10.3266C29.6743 10.4381 29.7362 10.5878 29.8194 10.7895C29.8467 10.8555 29.8763 10.9271 29.9078 11.0047C29.9647 11.1448 30.0252 11.2999 30.0718 11.4481C30.1145 11.5835 30.1652 11.7718 30.1652 11.9615C30.1652 12.2527 30.0802 12.5637 29.8533 12.808C29.6211 13.0581 29.308 13.1649 29.0002 13.1649Z" fill="#000000" class="bmwfcol"/><title>maintenance_lt_48</title></svg>