<svg width="48" height="48" viewBox="0 0 32 32" xmlns="http://www.w3.org/2000/svg"><path d="M8.09951 20.1475H10.4069L11 20.444L11.593 20.1475H13.9004L14.665 20.912V23.0619L13.6866 24.665H11.287L11 24.378L10.7129 24.665H8.34893L7.33496 23.0683V20.912L8.09951 20.1475ZM8.66496 21.4775V22.6817L9.07984 23.335H10.162L10.335 23.162V21.5985L10.093 21.4775H8.66496ZM11.665 21.5985V23.162L11.8379 23.335H12.9402L13.335 22.6881L13.335 21.4775H11.9069L11.665 21.5985Z" fill="#000000" class="bmwfcol"/><path d="M11 14.335C9.55496 14.335 8.72615 14.3533 8.16052 14.4191C7.54804 14.4904 7.22802 14.6202 6.81951 14.7995C6.46873 14.9535 6.16582 15.235 5.92241 15.5114C5.66956 15.7986 5.43275 16.1364 5.22416 16.4689C5.05193 16.7435 4.89299 17.024 4.75426 17.2847C4.45248 17.1143 4.12701 17.0354 3.76424 16.9973C3.38399 16.9574 2.90743 16.9584 2.32671 16.9597C2.22126 16.9599 2.11237 16.9602 2 16.9602V18.2902C2.12188 18.2902 2.23639 18.29 2.34422 18.2898C2.93243 18.2888 3.32199 18.2882 3.62543 18.32C3.77208 18.3354 3.88033 18.357 3.96557 18.3847L4.01799 18.4414C3.65205 18.7849 3.3024 19.1312 3.0242 19.4705C2.67417 19.8974 2.33496 20.4319 2.33496 21.0321V27.665H6.66496V26.7749C9.7066 26.9717 12.2933 26.9717 15.335 26.7749V27.665H19.665V21.0321C19.665 20.4319 19.3258 19.8974 18.9757 19.4705C18.6972 19.1308 18.347 18.784 17.9806 18.4402L18.0307 18.3859C18.1165 18.3576 18.2257 18.3357 18.3746 18.32C18.6781 18.2882 19.0676 18.2888 19.6559 18.2898C19.7637 18.29 19.8783 18.2902 20.0002 18.2902V16.9602C19.8878 16.9602 19.7789 16.9599 19.6735 16.9597C19.0927 16.9584 18.6161 16.9574 18.2358 16.9973C17.873 17.0354 17.5474 17.1143 17.2456 17.2848C17.1068 17.0243 16.9479 16.7439 16.7757 16.4695C16.5671 16.1371 16.3304 15.7994 16.0776 15.5122C15.8342 15.2357 15.5308 14.954 15.1806 14.7996C14.2782 14.4032 13.6394 14.335 11 14.335ZM15.9797 17.7402L15.9224 17.7375C15.1451 17.7029 14.0609 17.7051 12.5537 17.7081C12.079 17.7091 11.5622 17.7101 10.9999 17.7101C10.4376 17.7101 9.92088 17.7091 9.44606 17.7081C7.93873 17.7051 6.85398 17.7029 6.0763 17.7375L6.02003 17.7401C6.12191 17.555 6.23323 17.3632 6.35083 17.1757C6.53781 16.8776 6.732 16.6045 6.92058 16.3904C7.11853 16.1656 7.26755 16.0554 7.35413 16.0173C7.70243 15.8645 7.88601 15.7901 8.31433 15.7402C8.78953 15.6849 9.53887 15.665 11 15.665C13.6721 15.665 14.0358 15.7494 14.6451 16.017C14.7323 16.0556 14.8815 16.1663 15.0793 16.391C15.2679 16.6053 15.4622 16.8785 15.6491 17.1764C15.7667 17.3637 15.8779 17.5553 15.9797 17.7402ZM5.20648 19.1529C5.42076 19.1138 5.71695 19.0848 6.13542 19.0662C6.87951 19.0331 7.91935 19.0352 9.41316 19.0381C9.89338 19.0391 10.4205 19.0401 10.9999 19.0401C11.5792 19.0401 12.107 19.0391 12.5871 19.0381C14.0806 19.0352 15.1196 19.0331 15.8632 19.0662C16.2831 19.0849 16.5797 19.114 16.7939 19.1534C17.2646 19.5868 17.6625 19.9665 17.9472 20.3137C17.967 20.3379 17.9858 20.3614 18.0038 20.3843C17.2891 20.5407 16.5201 20.6331 15.5 20.7103V22.044C16.6187 21.9619 17.4951 21.8603 18.335 21.6731V26.335H16.665V25.3473L15.9516 25.3993C12.4171 25.6569 9.58282 25.6569 6.04831 25.3993L5.33496 25.3473V26.335H3.66496V21.6728C4.50487 21.8601 5.38126 21.9616 6.5 22.0438V20.71C5.47993 20.6329 4.71101 20.5405 3.99633 20.3841C4.01421 20.3612 4.03299 20.3378 4.05272 20.3137C4.33752 19.9664 4.73558 19.5866 5.20648 19.1529Z" fill="#000000" class="bmwfcol"/><path d="M8.335 4.33496H23C23.7569 4.33496 24.4402 4.56966 24.9352 5.06473C25.4303 5.55981 25.665 6.24302 25.665 6.99996V25C25.665 25.7569 25.4303 26.4401 24.9352 26.9352C24.4402 27.4303 23.7569 27.665 23 27.665H21.3V26.335H23C23.4831 26.335 23.7998 26.1897 23.9948 25.9947C24.1897 25.7998 24.335 25.483 24.335 25V6.99996C24.335 6.5169 24.1897 6.20012 23.9948 6.00519C23.7998 5.81026 23.4831 5.66496 23 5.66496H9.665V12.7H8.335V4.33496Z" fill="#000000" class="bmwfcol"/><path d="M28.665 7.99996V12H27.335V7.99996H28.665Z" fill="#000000" class="bmwfcol"/><path d="M28.665 20V24L27.335 24V20H28.665Z" fill="#000000" class="bmwfcol"/><path d="M28.665 14L28.665 18H27.335V14H28.665Z" fill="#000000" class="bmwfcol"/><title>manual_lt_48</title></svg>