<svg width="48" height="48" viewBox="0 0 32 32" xmlns="http://www.w3.org/2000/svg"><path d="M11.5753 7.57505L10.4253 6.42505H13.4874C12.0446 4.99993 10.98 4.16496 9.00004 4.16496C7.50116 4.16496 6.30377 4.66169 5.48277 5.48269C4.95773 6.00772 4.56531 6.68669 4.35062 7.5H2.98486C3.22722 6.33573 3.75861 5.32595 4.54232 4.54223C5.64632 3.43824 7.19892 2.83496 9.00004 2.83496C11.5056 2.83496 12.931 3.9951 14.4253 5.47721V2.42505L15.5753 3.57505V7.57505H11.5753Z" fill="#000000" class="bmwfcol"/><path d="M13.4577 13.4578C14.2414 12.6741 14.7728 11.6643 15.0152 10.5H13.6494C13.4347 11.3133 13.0423 11.9923 12.5173 12.5173C11.6963 13.3383 10.4989 13.835 9.00001 13.835C7.02025 13.835 5.95564 13.0002 4.513 11.5753H7.5748L6.4248 10.4253H2.4248V14.4253L3.5748 15.5753V12.5228C5.0691 14.0049 6.4945 15.165 9.00001 15.165C10.8011 15.165 12.3537 14.5618 13.4577 13.4578Z" fill="#000000" class="bmwfcol"/><path d="M11.335 16.5H12.665L12.7138 22.335L19.335 26.1577V9.66501L17 8.34527V6.80952L19.6422 8.33501H19.9507L27.4121 6.33573L28.6647 6.33569V25.5103L20.6234 27.665H19.2857L12.3574 23.665H12.0489L4.58752 25.6643H3.33496V16.5H4.66496V24.2666L11.335 22.4794V16.5ZM20.665 26.2769L27.3347 24.4898V7.7334L20.665 9.52055V26.2769Z" fill="#000000" class="bmwfcol"/><title>map-update_lt_48</title></svg>