<svg width="48" height="48" viewBox="0 0 32 32" xmlns="http://www.w3.org/2000/svg"><path d="M6.5 26.2313V27.7679L6.16767 27.576C4.20617 26.4435 2.96889 25.7099 2.37384 24.0454C2.08994 23.2512 1.96163 22.2787 1.89831 21.0133C1.83496 19.7473 1.83496 18.1279 1.83496 16.019C1.83496 13.9102 1.83496 12.2531 1.89831 10.987C1.96163 9.72165 2.08994 8.74909 2.37384 7.95494C2.96889 6.29037 4.20615 5.55687 6.16765 4.4243L6.5 4.23242V5.76905C4.70925 6.81335 4.00842 7.3335 3.62622 8.40265C3.41008 9.00728 3.28835 9.82041 3.22665 11.0535C3.16517 12.2822 3.16496 13.8682 3.16496 16.0002C3.16496 18.1321 3.16517 19.7181 3.22665 20.9468C3.28835 22.1799 3.41008 22.993 3.62622 23.5977C4.00842 24.6668 4.70925 25.187 6.5 26.2313Z" fill="#000000" class="bmwfcol"/><path d="M24.5 5.76911V4.23249L24.8323 4.42434C26.7938 5.5569 28.031 6.29041 28.6261 7.95497C28.91 8.74913 29.0383 9.72168 29.1016 10.9871C29.165 12.2531 29.165 13.9102 29.165 16.0191C29.165 18.1279 29.165 19.7473 29.1016 21.0133C29.0383 22.2787 28.91 23.2513 28.6261 24.0454C28.031 25.71 26.7938 26.4435 24.8323 27.576L24.5 27.7679V26.2313C26.2907 25.187 26.9915 24.6668 27.3737 23.5977C27.5899 22.9931 27.7116 22.1799 27.7733 20.9468C27.8348 19.7181 27.835 18.1321 27.835 16.0002C27.835 13.8683 27.8348 12.2822 27.7733 11.0535C27.7116 9.82044 27.5899 9.00731 27.3737 8.40268C26.9915 7.33355 26.2907 6.81339 24.5 5.76911Z" fill="#000000" class="bmwfcol"/><path d="M12.0104 7.83514H13.0801L18.3169 10.8351L23.9152 9.33509H25.1648V22.5105L18.9895 24.1651H17.9197L12.7236 21.1651L7.08467 22.6652H5.83506V9.48982L12.0104 7.83514ZM7.16506 10.5104V21.2667L11.8346 20.0155V9.25917L7.16506 10.5104ZM17.8346 22.5802V12.1159L13.1646 9.41965V19.884L17.8346 22.5802ZM19.1646 22.7413L23.8348 21.4899V10.7335L19.1646 11.9849V22.7413Z" fill="#000000" class="bmwfcol"/><title>map-update-package_lt_48</title></svg>