<svg width="48" height="48" viewBox="0 0 32 32" xmlns="http://www.w3.org/2000/svg"><path d="M22.7025 3.39617L21.7833 2.30185L21.4072 2.39233C20.7173 2.55836 20.0578 2.83184 19.4528 3.20279L19.1232 3.40487L19.2475 4.82799C19.1001 4.96065 18.9598 5.10098 18.8272 5.2484L17.4026 5.12354L17.2006 5.45376C16.8302 6.05918 16.5574 6.71916 16.3922 7.40941L16.3022 7.78515L17.3962 8.70354C17.3858 8.90139 17.3858 9.09965 17.3962 9.2975L16.7486 9.84148L17.4 10.9001L18.0676 10.366L18.7043 9.83121L18.6665 9.49797C18.629 9.16736 18.629 8.83357 18.6665 8.50297L18.7043 8.16962L17.709 7.33403C17.8059 7.02494 17.9299 6.72498 18.0794 6.43765L19.3748 6.55119L19.5839 6.28833C19.791 6.02793 20.027 5.79189 20.2874 5.58477L20.5502 5.37575L20.437 4.08092C20.7242 3.931 21.0241 3.80666 21.3331 3.70935L22.1688 4.70425L22.502 4.66648C22.8326 4.62901 23.1664 4.62901 23.497 4.66648L23.8304 4.70426L24.666 3.70896C24.975 3.80588 25.275 3.92985 25.5623 4.07943L25.4488 5.37475L25.7117 5.58384C25.972 5.79097 26.2081 6.02699 26.4152 6.28738L26.6242 6.55014L27.919 6.43703C28.069 6.72422 28.1933 7.02406 28.2906 7.33306L27.2957 8.16877L27.3335 8.50201C27.371 8.83262 27.371 9.1664 27.3335 9.49701L27.2957 9.83036L28.291 10.6659C28.1941 10.975 28.0701 11.275 27.9206 11.5623L26.6252 11.4488L26.4161 11.7116C26.209 11.972 25.973 12.208 25.7126 12.4152L25.4499 12.6242L25.563 13.919C25.2758 14.069 24.9759 14.1933 24.6669 14.2906L23.8312 13.2957L23.498 13.3335C23.1674 13.371 22.8336 13.371 22.503 13.3335L22.1696 13.2957L21.338 14.2863L21.9807 15.4648L22.7036 14.6038C22.9014 14.6142 23.0997 14.6142 23.2975 14.6038L24.2167 15.6981L24.5928 15.6076C25.2827 15.4416 25.9422 15.1681 26.5472 14.7972L26.8768 14.5951L26.7525 13.172C26.8999 13.0393 27.0402 12.899 27.1729 12.7516L28.5974 12.8764L28.7994 12.5462C29.1698 11.9408 29.4426 11.2808 29.6078 10.5906L29.6978 10.2148L28.6038 9.29644C28.6142 9.09858 28.6142 8.90032 28.6038 8.70247L29.6981 7.78324L29.6077 7.40721C29.4416 6.71726 29.1681 6.05773 28.7972 5.45278L28.5951 5.12322L27.172 5.24753C27.0393 5.10011 26.899 4.95979 26.7516 4.82713L26.8764 3.40263L26.5462 3.20059C25.9408 2.83017 25.2808 2.55735 24.5906 2.39215L24.2148 2.30223L23.2965 3.39616C23.0986 3.38578 22.9003 3.38578 22.7025 3.39617Z" fill="#000000" class="bmwfcol"/><path d="M22.9995 6.16799C21.4358 6.16799 20.1682 7.43562 20.1682 8.99932C20.1682 10.563 21.4358 11.8306 22.9995 11.8306C24.5632 11.8306 25.8309 10.563 25.8309 8.99932C25.8309 7.43562 24.5632 6.16799 22.9995 6.16799ZM21.4182 8.99932C21.4182 8.12597 22.1262 7.41799 22.9995 7.41799C23.8729 7.41799 24.5809 8.12597 24.5809 8.99932C24.5809 9.87266 23.8729 10.5806 22.9995 10.5806C22.1262 10.5806 21.4182 9.87266 21.4182 8.99932Z" fill="#000000" class="bmwfcol"/><path d="M11.8841 11.0716C12.1972 10.5294 12.9797 10.5294 13.2928 11.0716L16.6088 16.8152L14.1013 16.1433L14.9145 17.5518L18.3257 18.4658L19.2418 15.0469L18.4286 13.6385L17.7572 16.1443L14.4446 10.4066C13.6197 8.97784 11.5574 8.97798 10.7323 10.4066L8.15442 14.8678L9.30598 15.5332L11.8841 11.0716Z" fill="#000000" class="bmwfcol"/><path d="M3.77614 25.1151L7.08789 19.379L7.75672 21.875L8.56989 20.4666L7.65585 17.0554L4.23694 17.9715L3.42377 19.3799L5.94099 18.7054L2.62432 24.4501C1.79938 25.8789 2.83056 27.665 4.48044 27.665H9.63194V26.335H4.48044C3.85439 26.335 3.46311 25.6573 3.77614 25.1151Z" fill="#000000" class="bmwfcol"/><path d="M19.9793 19.9889L22.5526 24.4501C23.3775 25.8789 22.3463 27.665 20.6965 27.665H14.0676L15.9026 29.5H14.2763L11.7763 27L14.2763 24.5H15.9026L14.0676 26.335H20.6965C21.3225 26.335 21.7138 25.6573 21.4008 25.1151L18.8272 20.6535L19.9793 19.9889Z" fill="#000000" class="bmwfcol"/><title>material_recycling_lt_48</title></svg>