<svg width="48" height="48" viewBox="0 0 32 32" xmlns="http://www.w3.org/2000/svg"><path d="M23.9602 3.01205L23.3794 2.35156C21.9282 2.55791 20.5791 3.07164 19.6106 4.2253C18.7805 5.21406 18.335 6.51727 18.335 7.99959C18.335 10.3404 19.4509 12.2064 21.335 13.0985V26.9996C21.335 27.7507 21.5882 28.4283 22.0797 28.9198C22.5712 29.4113 23.2488 29.6646 24 29.6646C24.7511 29.6646 25.4287 29.4113 25.9202 28.9198C26.4117 28.4283 26.665 27.7507 26.665 26.9996V13.0985C28.549 12.2064 29.665 10.3404 29.665 7.99959C29.665 6.09432 28.8754 4.49301 27.4061 3.31303L26.5682 3.59494L25.4257 7.859C25.3109 8.28862 25.1538 8.38047 25.0347 8.41942C24.8391 8.4834 24.4996 8.47483 23.9202 8.31955C23.3407 8.16425 23.0416 8.00171 22.9037 7.84821C22.8201 7.75506 22.73 7.59763 22.8462 7.16951L22.8465 7.16849L23.9602 3.01205ZM19.665 7.99959C19.665 6.78682 20.0264 5.79848 20.6292 5.08046C21.0625 4.5644 21.6378 4.16696 22.3383 3.92627L21.5626 6.82121L21.5623 6.82227C21.3646 7.55186 21.4472 8.21669 21.9141 8.73672C22.327 9.19665 22.9568 9.43831 23.5759 9.60422C24.1951 9.77014 24.8608 9.87563 25.4481 9.68352C26.112 9.46639 26.5157 8.93201 26.7106 8.2023L27.5024 5.24719C28.0285 5.95222 28.335 6.88159 28.335 7.99959C28.335 10.071 27.2103 11.4968 25.335 12.1963V26.9996C25.335 27.4485 25.1882 27.7709 24.9797 27.9794C24.7712 28.1879 24.4488 28.3346 24 28.3346C23.5511 28.3346 23.2287 28.1879 23.0202 27.9794C22.8117 27.7709 22.665 27.4485 22.665 26.9996V12.1963C20.7896 11.4968 19.665 10.071 19.665 7.99959Z" fill="#000000" class="bmwfcol"/><path d="M17.0442 6.14029C16.9413 6.58156 16.8766 7.03777 16.85 7.50452C16.4388 7.31851 16.0143 7.16262 15.5798 7.03826L14.2003 8.68149C13.3948 8.5902 12.606 8.5904 11.8023 8.68147L10.4224 7.03867C9.74938 7.2322 9.10049 7.50128 8.48806 7.84079L8.6748 9.97852C8.04001 10.4835 7.48223 11.0416 6.97843 11.675L4.83963 11.4875C4.50078 12.1003 4.23244 12.7495 4.03975 13.4227L5.68298 14.8023C5.5917 15.6077 5.59189 16.3966 5.68297 17.2002L4.04016 18.5801C4.23369 19.2531 4.50278 19.902 4.84228 20.5145L6.98001 20.3277C7.48497 20.9625 8.04311 21.5203 8.67645 22.0241L8.48898 24.1629C9.10177 24.5017 9.75099 24.7701 10.4242 24.9628L11.8038 23.3195C12.6092 23.4108 13.398 23.4106 14.2017 23.3196L15.5816 24.9624C16.2546 24.7688 16.9035 24.4997 17.516 24.1602L17.3292 22.0225C17.964 21.5175 18.5218 20.9594 19.0256 20.3261L19.8359 20.3971V21.7322L19.6126 21.7126C19.3356 22.0328 19.0358 22.3326 18.7156 22.6096L18.9134 24.8739C17.7201 25.6056 16.4629 26.1275 15.099 26.4557L13.6366 24.7147C13.2146 24.745 12.791 24.745 12.3691 24.7147L10.9078 26.4552C9.54631 26.1294 8.28805 25.6097 7.09125 24.8774L7.2899 22.6111C6.96969 22.3341 6.6699 22.0343 6.39288 21.7141L4.12855 21.9119C3.39688 20.7186 2.87507 19.4614 2.54688 18.0975L4.28787 16.6351C4.2575 16.2132 4.2575 15.7895 4.28787 15.3676L2.54728 13.9063C2.87312 12.5448 3.39287 11.2866 4.12512 10.0898L6.39145 10.2884C6.66846 9.9682 6.96823 9.66841 7.28845 9.39139L7.09065 7.12706C8.28389 6.3954 9.54108 5.87358 10.905 5.54539L12.3674 7.28638C12.7894 7.25601 13.213 7.25601 13.6349 7.28638L15.0962 5.54579C15.7588 5.70437 16.412 5.88156 17.0442 6.14029Z" fill="#000000" class="bmwfcol"/><path d="M13.0009 11.3352C10.4245 11.3352 8.33594 13.4238 8.33594 16.0002C8.33594 18.5766 10.4245 20.6652 13.0009 20.6652C15.5773 20.6652 17.6659 18.5766 17.6659 16.0002C17.6659 13.4238 15.5773 11.3352 13.0009 11.3352ZM9.66594 16.0002C9.66594 14.1583 11.1591 12.6652 13.0009 12.6652C14.8428 12.6652 16.3359 14.1583 16.3359 16.0002C16.3359 17.8421 14.8428 19.3352 13.0009 19.3352C11.1591 19.3352 9.66594 17.8421 9.66594 16.0002Z" fill="#000000" class="bmwfcol"/><title>mechanical-repair_lt_48</title></svg>