<svg width="48" height="48" viewBox="0 0 32 32" xmlns="http://www.w3.org/2000/svg"><path d="M20 3.96519H16V2.63519H20V3.96519Z" fill="#000000" class="bmwfcol"/><path d="M16.0856 5.03496L15.9115 5.16028C13.3777 6.98447 12.8349 8.158 12.8349 8.99988L12.8349 11C12.8349 11.1032 12.859 11.205 12.9052 11.2974L13.335 12.157L13.335 14.843L12.9052 15.7025C12.859 15.7949 12.8349 15.8967 12.8349 16L12.835 22H14.165L14.1649 16.157L14.5948 15.2974C14.641 15.205 14.665 15.1032 14.665 14.9999L14.665 11.9999C14.665 11.8967 14.6409 11.7949 14.5948 11.7025L14.1649 10.843L14.1649 8.99988C14.1649 8.84539 14.2195 8.0543 16.5164 6.36496H19.4837C21.7804 8.05426 21.8349 8.84536 21.8349 8.99988L21.835 10.843L21.4052 11.7025C21.359 11.7949 21.3349 11.8967 21.3349 12V15C21.3349 15.1032 21.359 15.205 21.4052 15.2974L21.835 16.157L21.835 26C21.835 26.4013 21.7327 26.7647 21.5717 27.0061C21.4239 27.2278 21.2421 27.335 21.0001 27.335L18 27.335V28.665L21.0001 28.665C21.758 28.665 22.3262 28.2721 22.6784 27.7438C23.0174 27.2353 23.165 26.5986 23.165 26L23.165 16C23.165 15.8967 23.141 15.7949 23.0948 15.7025L22.6649 14.843V12.157L23.0948 11.2974C23.141 11.205 23.165 11.1032 23.165 10.9999L23.1649 8.99988C23.1649 8.15804 22.6223 6.98451 20.0886 5.16028L19.9145 5.03496H16.0856Z" fill="#000000" class="bmwfcol"/><path d="M2.33496 11.5C2.33496 10.8566 2.85655 10.335 3.49996 10.335C4.14337 10.335 4.66496 10.8566 4.66496 11.5C4.66496 12.1434 4.14337 12.665 3.49996 12.665C2.85655 12.665 2.33496 12.1434 2.33496 11.5Z" fill="#000000" class="bmwfcol"/><path d="M2.33496 21.5C2.33496 20.8566 2.85655 20.335 3.49996 20.335C4.14337 20.335 4.66496 20.8566 4.66496 21.5C4.66496 22.1434 4.14337 22.665 3.49996 22.665C2.85655 22.665 2.33496 22.1434 2.33496 21.5Z" fill="#000000" class="bmwfcol"/><path d="M13.5 23.335C12.8565 23.335 12.335 23.8566 12.335 24.5C12.335 25.1434 12.8565 25.665 13.5 25.665C14.1434 25.665 14.665 25.1434 14.665 24.5C14.665 23.8566 14.1434 23.335 13.5 23.335Z" fill="#000000" class="bmwfcol"/><path d="M7.33496 23.5C7.33496 22.8566 7.85655 22.335 8.49996 22.335C9.14337 22.335 9.66496 22.8566 9.66496 23.5C9.66496 24.1434 9.14337 24.665 8.49996 24.665C7.85655 24.665 7.33496 24.1434 7.33496 23.5Z" fill="#000000" class="bmwfcol"/><path d="M10.5 26.335C9.85655 26.335 9.33496 26.8566 9.33496 27.5C9.33496 28.1434 9.85655 28.665 10.5 28.665C11.1434 28.665 11.665 28.1434 11.665 27.5C11.665 26.8566 11.1434 26.335 10.5 26.335Z" fill="#000000" class="bmwfcol"/><path d="M3.33496 27.5C3.33496 26.8566 3.85655 26.335 4.49996 26.335C5.14337 26.335 5.66496 26.8566 5.66496 27.5C5.66496 28.1434 5.14337 28.665 4.49996 28.665C3.85655 28.665 3.33496 28.1434 3.33496 27.5Z" fill="#000000" class="bmwfcol"/><path d="M15.5 26.8355C14.8565 26.8355 14.335 27.3571 14.335 28.0005C14.335 28.6439 14.8565 29.1655 15.5 29.1655C16.1434 29.1655 16.665 28.6439 16.665 28.0005C16.665 27.3571 16.1434 26.8355 15.5 26.8355Z" fill="#000000" class="bmwfcol"/><path d="M6.33496 17.5C6.33496 16.8566 6.85655 16.335 7.49996 16.335C8.14337 16.335 8.66496 16.8566 8.66496 17.5C8.66496 18.1434 8.14337 18.665 7.49996 18.665C6.85655 18.665 6.33496 18.1434 6.33496 17.5Z" fill="#000000" class="bmwfcol"/><title>microplastic_lt_48</title></svg>