<svg width="48" height="48" viewBox="0 0 32 32" xmlns="http://www.w3.org/2000/svg"><path d="M15.4227 3.33502H16.4988L16.6866 3.68685C17.333 4.8978 18.3399 6.54085 19.3851 8.24642C19.8235 8.96188 20.2687 9.68835 20.6968 10.3985C21.4145 11.589 22.0825 12.7313 22.5724 13.6749C22.8171 14.1461 23.0236 14.5798 23.1706 14.9524C23.3084 15.3018 23.4271 15.677 23.4271 16C23.4271 16.7848 23.1521 17.4723 22.759 18.0828L24.165 21.3635V21.5C24.165 21.8379 23.9917 22.0993 23.8459 22.2658C23.6926 22.4408 23.4954 22.5957 23.2935 22.7317C22.8877 23.0054 22.3471 23.2788 21.7793 23.5416C21.2979 23.7644 20.7715 23.9909 20.2573 24.2122C20.1598 24.2541 20.0627 24.2959 19.9665 24.3374C19.356 24.6008 18.7784 24.8543 18.2974 25.0948L18.2421 25.1563C18.1064 25.4568 17.9966 25.6368 17.8602 25.9164C17.6605 26.326 17.4717 26.6985 17.3044 27.0284C17.0421 27.5459 16.8326 27.9589 16.7174 28.247L16.5502 28.665H15.4319L15.3431 28.1039C15.2605 27.5817 15.1815 27.0955 15.1067 26.6351C14.9665 25.7724 14.8411 25.0002 14.7341 24.2505C14.6537 24.1879 14.5623 24.1163 14.4622 24.037C14.082 23.7361 13.573 23.3225 13.0621 22.8755C12.5544 22.4313 12.0302 21.9413 11.6279 21.4887C11.4276 21.2633 11.2433 21.0316 11.1055 20.8075C10.9808 20.6049 10.835 20.3166 10.835 20C10.835 19.4434 11.0414 18.4018 11.3349 17.1732C11.6361 15.9119 12.0518 14.3658 12.5115 12.7479C13.4311 9.51208 14.5343 5.9646 15.2699 3.78717L15.4227 3.33502ZM14.5048 22.3584C14.3958 21.2247 14.335 20.0137 14.335 18.5C14.335 16.6885 14.5453 13.0269 14.8031 9.66259C14.4592 10.8013 14.1137 11.9756 13.7909 13.1115C13.3336 14.7206 12.9236 16.2467 12.6285 17.4822C12.3334 18.7177 12.1734 19.5848 12.1653 19.9703C12.1708 19.9848 12.1884 20.0296 12.2382 20.1105C12.3191 20.2419 12.4473 20.4086 12.622 20.6051C12.9697 20.9963 13.4456 21.4438 13.9379 21.8746C14.129 22.0418 14.3204 22.2046 14.5048 22.3584ZM16.4545 5.97411C16.0789 9.82735 15.665 16.0046 15.665 18.5C15.665 21.6025 15.9235 23.3569 16.3469 25.9734C16.4526 25.7636 16.5598 25.5487 16.6647 25.3336C17.1499 24.3384 17.6229 23.2665 17.8548 22.3387C18.0428 21.587 18.4522 20.9432 18.9118 20.38C19.2947 19.9107 19.7423 19.4633 20.1595 19.0463C20.238 18.9678 20.3154 18.8904 20.3912 18.8142C21.4119 17.7861 22.0971 16.9669 22.0971 16C22.0971 15.9481 22.0656 15.7756 21.9333 15.4404C21.8102 15.1283 21.6269 14.7401 21.392 14.2878C20.9229 13.3842 20.2735 12.2724 19.5578 11.0852C19.1454 10.4012 18.7103 9.69121 18.2775 8.98485C17.638 7.9413 17.0035 6.90577 16.4545 5.97411ZM18.9513 23.3283C19.113 23.2574 19.2764 23.1866 19.4397 23.1162C19.5386 23.0735 19.6374 23.031 19.736 22.9885C20.2505 22.7671 20.7572 22.5491 21.2207 22.3346C21.7778 22.0767 22.2373 21.8398 22.5501 21.6289C22.6423 21.5668 22.712 21.5133 22.7632 21.4691L21.8152 19.257C21.6541 19.4285 21.4921 19.593 21.335 19.7513C21.2517 19.8351 21.1692 19.9177 21.0877 19.9992C20.6701 20.417 20.2787 20.8086 19.9422 21.2209C19.5446 21.7081 19.2666 22.1754 19.1451 22.6613C19.0904 22.88 19.025 23.1032 18.9513 23.3283Z" fill="#000000" class="bmwfcol"/><title>microfibre_cloth_lt_48</title></svg>