<svg width="48" height="48" viewBox="0 0 32 32" xmlns="http://www.w3.org/2000/svg"><path d="M11.9047 3.90473C12.9212 2.88824 14.3488 2.33496 16 2.33496C17.6511 2.33496 19.0787 2.88824 20.0952 3.90473C21.1117 4.92123 21.665 6.34884 21.665 7.99996V16C21.665 17.6511 21.1117 19.0787 20.0952 20.0952C19.0787 21.1117 17.6511 21.665 16 21.665C14.3488 21.665 12.9212 21.1117 11.9047 20.0952C10.8882 19.0787 10.335 17.6511 10.335 16V7.99996C10.335 6.34884 10.8882 4.92123 11.9047 3.90473ZM12.8452 4.84519C12.1117 5.57869 11.665 6.65108 11.665 7.99996V16C11.665 17.3488 12.1117 18.4212 12.8452 19.1547C13.5787 19.8882 14.6511 20.335 16 20.335C17.3488 20.335 18.4212 19.8882 19.1547 19.1547C19.8882 18.4212 20.335 17.3488 20.335 16V7.99996C20.335 6.65108 19.8882 5.57869 19.1547 4.84519C18.4212 4.11169 17.3488 3.66496 16 3.66496C14.6511 3.66496 13.5787 4.11169 12.8452 4.84519Z" fill="#000000" class="bmwfcol"/><path d="M16.665 25.6474C19.2287 25.5103 21.4137 24.5767 22.9952 22.9952C24.7117 21.2787 25.665 18.8511 25.665 16H24.335C24.335 18.5489 23.4882 20.6213 22.0547 22.0548C20.6212 23.4883 18.5488 24.335 16 24.335C13.4511 24.335 11.3787 23.4883 9.94519 22.0548C8.51169 20.6213 7.66496 18.5489 7.66496 16H6.33496C6.33496 18.8511 7.28824 21.2787 9.00473 22.9952C10.5862 24.5767 12.7712 25.5103 15.335 25.6474V30H16.665V25.6474Z" fill="#000000" class="bmwfcol"/><title>microphone_lt_48</title></svg>