<svg width="48" height="48" viewBox="0 0 32 32" xmlns="http://www.w3.org/2000/svg"><path d="M15.9998 4.2559C12.7174 4.2559 9.64585 5.54368 7.60571 7.67974C5.57882 9.80194 4.55001 12.7778 5.34794 16.2511L4.05171 16.5489C3.14959 12.6221 4.32079 9.19348 6.64391 6.76114C8.95378 4.34266 12.3822 2.9259 15.9998 2.9259C19.6174 2.9259 23.0459 4.34266 25.3557 6.76114C27.6788 9.19348 28.85 12.6221 27.9479 16.5489L26.6517 16.2511C27.4496 12.7778 26.4208 9.80194 24.3939 7.67974C22.3538 5.54368 19.2822 4.2559 15.9998 4.2559Z" fill="#000000" class="bmwfcol"/><path d="M16.0283 10.8349C15.1272 10.8349 14.3246 11.1382 13.7456 11.7172C13.1666 12.2962 12.8633 13.0988 12.8633 13.9999V17.9999C12.8633 18.901 13.1666 19.7036 13.7456 20.2826C14.3246 20.8616 15.1272 21.1649 16.0283 21.1649C16.9294 21.1649 17.732 20.8616 18.311 20.2826C18.89 19.7036 19.1933 18.901 19.1933 17.9999V13.9999C19.1933 13.0988 18.89 12.2962 18.311 11.7172C17.732 11.1382 16.9294 10.8349 16.0283 10.8349ZM14.1933 13.9999C14.1933 13.401 14.39 12.9536 14.686 12.6576C14.982 12.3616 15.4294 12.1649 16.0283 12.1649C16.6272 12.1649 17.0746 12.3616 17.3706 12.6576C17.6666 12.9536 17.8633 13.401 17.8633 13.9999V17.9999C17.8633 18.5988 17.6666 19.0462 17.3706 19.3422C17.0746 19.6382 16.6272 19.8349 16.0283 19.8349C15.4294 19.8349 14.982 19.6382 14.686 19.3422C14.39 19.0462 14.1933 18.5988 14.1933 17.9999V13.9999Z" fill="#000000" class="bmwfcol"/><path d="M20.8202 22.82C19.7664 23.8739 18.3322 24.5067 16.665 24.6388V27.9999H15.335V24.6388C13.6677 24.5067 12.2336 23.8739 11.1797 22.82C9.98824 21.6285 9.33496 19.9509 9.33496 17.9998H10.665C10.665 19.6487 11.2117 20.9711 12.1202 21.8796C13.0287 22.7881 14.3511 23.3348 16 23.3348C17.6488 23.3348 18.9712 22.7881 19.8797 21.8796C20.7882 20.9711 21.335 19.6487 21.335 17.9998H22.665C22.665 19.9509 22.0117 21.6285 20.8202 22.82Z" fill="#000000" class="bmwfcol"/><path d="M6.52221 26.0187L4.45166 18.2913L5.73634 17.9471L7.80689 25.6745L6.52221 26.0187Z" fill="#000000" class="bmwfcol"/><path d="M26.2637 17.9471L24.1931 25.6745L25.4778 26.0187L27.5484 18.2913L26.2637 17.9471Z" fill="#000000" class="bmwfcol"/><title>microphone_and_headphone_lt_48</title></svg>