<svg width="48" height="48" viewBox="0 0 32 32" xmlns="http://www.w3.org/2000/svg"><path d="M6 3.66496H14V2.33496H6V3.66496Z" fill="#000000" class="bmwfcol"/><path d="M6.83594 6.99996C6.83594 6.35655 7.35753 5.83496 8.00094 5.83496C8.64435 5.83496 9.16594 6.35655 9.16594 6.99996C9.16594 7.64337 8.64435 8.16496 8.00094 8.16496C7.35753 8.16496 6.83594 7.64337 6.83594 6.99996Z" fill="#000000" class="bmwfcol"/><path d="M25.0807 8.07973C25.5722 7.58824 26.2498 7.33496 27.0009 7.33496C27.7521 7.33496 28.4297 7.58824 28.9212 8.07973C29.4127 8.57123 29.6659 9.24884 29.6659 9.99996C29.6659 10.7511 29.4127 11.4287 28.9212 11.9202C28.4297 12.4117 27.7521 12.665 27.0009 12.665C26.2498 12.665 25.5722 12.4117 25.0807 11.9202C24.5892 11.4287 24.3359 10.7511 24.3359 9.99996C24.3359 9.24884 24.5892 8.57123 25.0807 8.07973ZM26.0212 9.02019C25.8127 9.22869 25.6659 9.55108 25.6659 9.99996C25.6659 10.4488 25.8127 10.7712 26.0212 10.9797C26.2297 11.1882 26.5521 11.335 27.0009 11.335C27.4498 11.335 27.7722 11.1882 27.9807 10.9797C28.1892 10.7712 28.3359 10.4488 28.3359 9.99996C28.3359 9.55108 28.1892 9.22869 27.9807 9.02019C27.7722 8.81169 27.4498 8.66496 27.0009 8.66496C26.5521 8.66496 26.2297 8.81169 26.0212 9.02019Z" fill="#000000" class="bmwfcol"/><path d="M10.8359 6.99996C10.8359 6.35655 11.3575 5.83496 12.0009 5.83496C12.6443 5.83496 13.1659 6.35655 13.1659 6.99996C13.1659 7.64337 12.6443 8.16496 12.0009 8.16496C11.3575 8.16496 10.8359 7.64337 10.8359 6.99996Z" fill="#000000" class="bmwfcol"/><path d="M8.00094 9.83496C7.35753 9.83496 6.83594 10.3565 6.83594 11C6.83594 11.6434 7.35753 12.165 8.00094 12.165C8.64435 12.165 9.16594 11.6434 9.16594 11C9.16594 10.3565 8.64435 9.83496 8.00094 9.83496Z" fill="#000000" class="bmwfcol"/><path d="M10.8359 11C10.8359 10.3565 11.3575 9.83496 12.0009 9.83496C12.6443 9.83496 13.1659 10.3565 13.1659 11C13.1659 11.6434 12.6443 12.165 12.0009 12.165C11.3575 12.165 10.8359 11.6434 10.8359 11Z" fill="#000000" class="bmwfcol"/><path d="M8.00094 13.835C7.35753 13.835 6.83594 14.3565 6.83594 15C6.83594 15.6434 7.35753 16.165 8.00094 16.165C8.64435 16.165 9.16594 15.6434 9.16594 15C9.16594 14.3565 8.64435 13.835 8.00094 13.835Z" fill="#000000" class="bmwfcol"/><path d="M10.8359 15C10.8359 14.3565 11.3575 13.835 12.0009 13.835C12.6443 13.835 13.1659 14.3565 13.1659 15C13.1659 15.6434 12.6443 16.165 12.0009 16.165C11.3575 16.165 10.8359 15.6434 10.8359 15Z" fill="#000000" class="bmwfcol"/><path d="M6 19.665H14V18.335H6V19.665Z" fill="#000000" class="bmwfcol"/><path d="M9.57091 30H8.03516L13.0381 21.3347H13.6228L18.8747 22.742L24.3145 13.3201L24.7881 13.4221C25.6404 13.6056 26.4946 13.9392 27.3306 14.4219C28.1681 14.9054 28.8851 15.4795 29.4709 16.1273L29.7956 16.4865L26.4206 22.3322C25.8619 23.2998 25.4235 24.0196 24.5468 24.3677C24.133 24.5321 23.6608 24.5996 23.1097 24.6323C22.5619 24.6647 21.8775 24.6647 21.0204 24.6647H20.9116L13.758 22.7478L9.57091 30ZM21.0867 23.3347C21.9249 23.3346 22.5441 23.3334 23.0312 23.3046C23.5363 23.2747 23.8403 23.2173 24.056 23.1316C24.4384 22.9797 24.6728 22.6995 25.2688 21.6672L28.1504 16.676C27.7295 16.273 27.2347 15.9022 26.6656 15.5737C26.0979 15.2459 25.5307 15.0031 24.9726 14.8401L20.2047 23.0983L21.0867 23.3347Z" fill="#000000" class="bmwfcol"/><path d="M16.1154 15L19.4505 11.665L15 11.665V10.335H19.4502L16.1152 7H17.883L21.8831 11.0001L17.8832 15H16.1154Z" fill="#000000" class="bmwfcol"/><path d="M1 11.665H5V10.335H1V11.665Z" fill="#000000" class="bmwfcol"/><title>micro-filter-service_lt_48</title></svg>