<svg width="48" height="48" viewBox="0 0 32 32" xmlns="http://www.w3.org/2000/svg"><path d="M18.9991 3.05957L21.2745 5.33502H23.2004L24.9228 6.48323L26.0996 7.66004L26.5183 9.33496H27.7268L27.648 10.2361C27.3154 14.0374 27.0871 16.6474 26.8631 18.5H25.5236C25.7359 16.7821 25.9549 14.3246 26.2754 10.665H5.7249C6.21037 16.2094 6.46309 18.9947 6.81244 20.6297C6.99039 21.4625 7.18424 21.9462 7.4206 22.3254C7.63091 22.6628 7.89001 22.9446 8.27639 23.3349H8.55728C9.02132 22.1634 10.1644 21.335 11.5009 21.335C12.8375 21.335 13.9806 22.1634 14.4446 23.3349H16V24.6649H14.6617C14.5759 26.3362 13.1936 27.665 11.5009 27.665C9.80826 27.665 8.42594 26.3362 8.34016 24.6649H7.72474L7.52282 24.4629C7.04764 23.9878 6.628 23.5681 6.29192 23.029C6.04984 22.6406 5.86061 22.2076 5.70109 21.665H3V20.335H5.40076C5.07409 18.4868 4.81338 15.5067 4.35193 10.2322L4.27344 9.33496H5.58813L6.37165 7.76792L6.9163 5.58932L8.95132 4.23264L10.8678 5.19088L11.7236 4.33502H14.7236L15.8678 3.19088L17.8678 4.19088L18.9991 3.05957ZM24.8986 8.34L24.0754 7.51681L22.7977 6.66502H20.7236L18.9991 4.94047L18.1304 5.80917L16.1304 4.80917L15.2745 5.66502H12.2745L11.1304 6.80917L9.04687 5.7674L8.08188 6.41073L7.62653 8.23213L7.07511 9.33496H25.1474L24.8986 8.34ZM11.5009 22.665C10.4875 22.665 9.66594 23.4865 9.66594 24.5C9.66594 25.5134 10.4875 26.335 11.5009 26.335C12.5144 26.335 13.3359 25.5134 13.3359 24.5C13.3359 23.4865 12.5144 22.665 11.5009 22.665Z" fill="#000000" class="bmwfcol"/><path d="M17.999 17.335H16.334V19C16.334 20.9511 16.9873 22.6287 18.1788 23.8202C19.3703 25.0117 21.0479 25.665 22.999 25.665H23.334V30H24.664V26.665H24.999C26.3501 26.665 27.5277 26.2117 28.3692 25.3702C29.2107 24.5287 29.664 23.3511 29.664 22V20.335H27.999C26.6479 20.335 25.4703 20.7882 24.6288 21.6297C24.5433 21.7151 24.4619 21.804 24.3846 21.8962C24.0866 20.8384 23.5557 19.9162 22.8192 19.1797C21.6277 17.9882 19.9501 17.335 17.999 17.335ZM24.664 25C24.664 23.9511 25.0107 23.1287 25.5692 22.5702C26.1277 22.0117 26.9501 21.665 27.999 21.665H28.334V22C28.334 23.0488 27.9873 23.8712 27.4288 24.4297C26.8703 24.9882 26.0479 25.335 24.999 25.335H24.664V25ZM17.664 19V18.665H17.999C19.6479 18.665 20.9703 19.2117 21.8788 20.1202C22.7873 21.0287 23.334 22.3511 23.334 24V24.335H22.999C21.3501 24.335 20.0277 23.7882 19.1192 22.8797C18.2107 21.9712 17.664 20.6488 17.664 19Z" fill="#000000" class="bmwfcol"/><title>mine_cart_and_plant_lt_48</title></svg>