<svg width="48" height="48" viewBox="0 0 32 32" xmlns="http://www.w3.org/2000/svg"><path d="M19.8069 12.0001V5.78418L17.3145 6.5708V7.70159L18.6946 7.27123V12.0001H19.8069Z" fill="#000000" class="bmwfcol"/><path d="M23.0927 5.87928C22.4699 5.87928 21.9756 6.01959 21.6029 6.31602C21.2084 6.64042 21.06 7.11696 21.06 7.60038C21.06 8.01632 21.1307 8.35346 21.3431 8.64552C21.4184 8.74906 21.5042 8.83749 21.5986 8.91195C21.5048 8.99589 21.4124 9.0893 21.3252 9.18952C21.0361 9.51312 20.9116 9.91115 20.9116 10.3161C20.9116 10.9233 21.0994 11.3905 21.4929 11.7053C21.8858 12.0128 22.4143 12.1262 23.0779 12.1262C23.7645 12.1262 24.2968 11.9863 24.7113 11.6142C25.0882 11.2715 25.2442 10.8121 25.2442 10.3161C25.2442 9.89653 25.1306 9.48437 24.8405 9.17666C24.741 9.07192 24.6329 8.9848 24.5165 8.90752C24.5993 8.81719 24.6802 8.72359 24.7486 8.637C24.9808 8.33019 25.1032 8.00311 25.1032 7.60038C25.1032 7.1613 24.9727 6.74242 24.6604 6.42917C24.2816 6.03425 23.7367 5.87928 23.0927 5.87928ZM22.3419 7.14212C22.4728 7.02173 22.7188 6.93966 23.0853 6.93966C23.4323 6.93966 23.6764 7.01674 23.8238 7.15243C23.9391 7.26333 23.9835 7.40058 23.9835 7.62264C23.9835 7.85303 23.9211 8.01614 23.8041 8.17623C23.726 8.28852 23.6168 8.41116 23.5377 8.49515C23.2907 8.44365 23.0585 8.39403 22.86 8.34262C22.6259 8.28201 22.4652 8.22514 22.3835 8.1734C22.3044 8.1249 22.2573 8.06812 22.2283 7.9935C22.1962 7.9111 22.1797 7.79575 22.1797 7.62264C22.1797 7.37858 22.22 7.24941 22.3419 7.14212ZM22.2384 9.72301C22.3375 9.60187 22.4717 9.48209 22.5921 9.38017C22.8667 9.43272 23.1026 9.48211 23.2998 9.53383C23.5211 9.59187 23.6807 9.6497 23.7874 9.71069C23.9253 9.78588 24.0064 9.86696 24.0526 9.95127C24.0998 10.0373 24.1244 10.1473 24.1244 10.3013C24.1244 10.5834 24.0418 10.7507 23.8681 10.8851C23.7154 11.0051 23.4605 11.0659 23.0853 11.0659C22.67 11.0659 22.3968 11.005 22.2308 10.8723C22.0805 10.752 22.0313 10.5935 22.0313 10.2938C22.0313 10.0876 22.0973 9.89482 22.2384 9.72301Z" fill="#000000" class="bmwfcol"/><path d="M27.8533 6.74H28.9508V8.46144H30.6352V9.54408H28.9508V11.2655H27.8533V9.54408H26.169V8.46144H27.8533V6.74Z" fill="#000000" class="bmwfcol"/><path d="M7.6634 9.44541C8.55145 8.58908 9.75845 8.335 11 8.335C12.2416 8.335 13.4486 8.58908 14.3366 9.44541C15.2278 10.3048 15.665 11.6414 15.665 13.5C15.665 15.3586 15.2278 16.6952 14.3366 17.5546C13.4486 18.4109 12.2416 18.665 11 18.665C9.75845 18.665 8.55145 18.4109 7.6634 17.5546C6.77217 16.6952 6.335 15.3586 6.335 13.5C6.335 11.6414 6.77217 10.3048 7.6634 9.44541ZM8.5866 10.4028C8.06117 10.9095 7.665 11.8229 7.665 13.5C7.665 15.1771 8.06117 16.0905 8.5866 16.5972C9.11522 17.1069 9.90822 17.335 11 17.335C12.0918 17.335 12.8848 17.1069 13.4134 16.5972C13.9388 16.0905 14.335 15.1771 14.335 13.5C14.335 11.8229 13.9388 10.9095 13.4134 10.4028C12.8848 9.89306 12.0918 9.665 11 9.665C9.90822 9.665 9.11522 9.89306 8.5866 10.4028Z" fill="#000000" class="bmwfcol"/><path d="M2.95504 26H1.57812L1.75801 25.3286C2.35322 23.0967 2.9351 21.6688 4.42838 20.9615C5.13613 20.6262 5.99559 20.4789 7.03751 20.4069C8.07765 20.335 9.41999 20.335 11.0248 20.335C12.6296 20.335 13.9235 20.335 14.9636 20.4069C16.0055 20.4789 16.865 20.6262 17.5728 20.9615C19.0659 21.6688 19.648 23.0969 20.2431 25.3286L20.423 26H19.0461L18.9583 25.6721C18.8332 25.2032 18.7138 24.7953 18.5956 24.4408C18.1421 23.0812 17.7026 22.4947 17.0034 22.1634C16.5236 21.9362 15.8644 21.8023 14.8719 21.7337C14.454 21.7048 13.9894 21.688 13.4692 21.6783C12.7587 21.6651 11.9439 21.665 11.0006 21.665C9.36661 21.665 8.11823 21.6653 7.12923 21.7337C6.13677 21.8023 5.47749 21.9362 4.99774 22.1634C4.11609 22.5811 3.64787 23.4035 3.0431 25.6713L2.95504 26Z" fill="#000000" class="bmwfcol"/><title>minimum-age_lt_48</title></svg>