<svg width="48" height="48" viewBox="0 0 32 32" xmlns="http://www.w3.org/2000/svg"><path d="M7.5373 4.53723C7.68899 4.0538 7.93098 3.62865 8.27984 3.2798C8.94853 2.6111 9.89756 2.33502 11.0001 2.33502H21.0001C22.1026 2.33502 23.0516 2.6111 23.7203 3.2798C24.389 3.94849 24.6651 4.89752 24.6651 6.00002V21.665L23.3351 20.335V7.66502H10.6651L9.33509 6.33502H23.3351V6.00002C23.3351 5.10253 23.1111 4.55155 22.7798 4.22025C22.4485 3.88895 21.8976 3.66502 21.0001 3.66502H11.0001C10.1026 3.66502 9.55159 3.88895 9.22029 4.22025C8.93093 4.5096 8.72349 4.96653 8.67559 5.67552L7.5373 4.53723Z" fill="#000000" class="bmwfcol"/><path d="M24.4628 27.4628C24.3112 27.9462 24.0692 28.3714 23.7203 28.7202C23.0516 29.3889 22.1026 29.665 21.0001 29.665H11.0001C9.89756 29.665 8.94853 29.3889 8.27984 28.7202C7.61114 28.0516 7.33506 27.1025 7.33506 26V10.335L8.66506 11.665V24.335H21.3351L22.6651 25.665H8.66506V26C8.66506 26.8975 8.88898 27.4485 9.22029 27.7798C9.55159 28.1111 10.1026 28.335 11.0001 28.335H21.0001C21.8976 28.335 22.4485 28.1111 22.7798 27.7798C23.0692 27.4904 23.2766 27.0335 23.3245 26.3245L24.4628 27.4628Z" fill="#000000" class="bmwfcol"/><path d="M28.9405 28H27.0596L3.05957 4.00001H4.94047L28.9405 28Z" fill="#000000" class="bmwfcol"/><title>mobile-phone-crossed-out_lt_48</title></svg>