<svg width="48" height="48" viewBox="0 0 32 32" xmlns="http://www.w3.org/2000/svg"><path d="M17.442 13.2413C17.846 12.8373 18.3986 12.634 18.9997 12.634C19.6008 12.634 20.1534 12.8373 20.5574 13.2413C20.9614 13.6453 21.1647 14.1979 21.1647 14.799V17.2794C21.4237 17.1826 21.7059 17.134 21.9997 17.134C22.6008 17.134 23.1534 17.3373 23.5574 17.7413C23.7642 17.948 23.9184 18.1937 24.0196 18.4648C24.3168 18.3278 24.65 18.259 24.9997 18.259C25.6008 18.259 26.1534 18.4623 26.5574 18.8663C26.9614 19.2703 27.1647 19.8229 27.1647 20.424V23.0489C27.1647 25 26.5114 26.6777 25.3199 27.8691C24.1284 29.0606 22.4508 29.7139 20.4997 29.7139C18.1244 29.7139 16.161 28.576 15.1261 26.7822L11.7914 21.0056L12.3672 20.6731C13.1983 20.1931 14.1452 20.1927 15.0551 20.5436C15.6633 20.7782 16.2634 21.1709 16.8347 21.6946V14.799C16.8347 14.1979 17.038 13.6453 17.442 13.2413ZM24.1647 20.424V20.649H22.8347V19.299C22.8347 19.0001 22.738 18.8027 22.617 18.6817C22.496 18.5607 22.2986 18.464 21.9997 18.464C21.7008 18.464 21.5034 18.5607 21.3824 18.6817C21.2616 18.8025 21.165 18.9994 21.1647 19.2974V20.049H19.8347V14.799C19.8347 14.5001 19.738 14.3027 19.617 14.1817C19.496 14.0607 19.2986 13.964 18.9997 13.964C18.7008 13.964 18.5034 14.0607 18.3824 14.1817C18.2614 14.3027 18.1647 14.5001 18.1647 14.799V23.7163H16.891L16.6102 23.384L16.6088 23.3824C15.909 22.5488 15.2029 22.0261 14.5764 21.7845C14.2521 21.6594 13.9554 21.6108 13.6864 21.6281L16.278 26.1174C17.0581 27.4697 18.564 28.3839 20.4997 28.3839C22.1486 28.3839 23.471 27.8372 24.3795 26.9287C25.288 26.0202 25.8347 24.6978 25.8347 23.0489V20.424C25.8347 20.1251 25.738 19.9277 25.617 19.8067C25.496 19.6857 25.2986 19.589 24.9997 19.589C24.7008 19.589 24.5034 19.6857 24.3824 19.8067C24.2614 19.9277 24.1647 20.1251 24.1647 20.424Z" fill="#000000" class="bmwfcol"/><path d="M8.27974 3.27882C8.94843 2.61012 9.89746 2.33405 11 2.33405H21C22.1025 2.33405 23.0515 2.61012 23.7202 3.27882C24.3889 3.94752 24.665 4.89654 24.665 5.99905V16.2663C24.2642 15.9164 23.8107 15.668 23.335 15.5106V5.99905C23.335 5.10155 23.111 4.55057 22.7797 4.21927C22.4484 3.88797 21.8975 3.66405 21 3.66405H11C10.1025 3.66405 9.55149 3.88797 9.22019 4.21927C8.88888 4.55057 8.66496 5.10155 8.66496 5.99905V24.334H11.5938L12.3616 25.664H8.66496V25.999C8.66496 26.8965 8.88888 27.4475 9.22019 27.7788C9.55149 28.1101 10.1025 28.334 11 28.334H13.9464C14.3024 28.8287 14.7144 29.2738 15.1734 29.664H11C9.89746 29.664 8.94843 29.388 8.27974 28.7193C7.61104 28.0506 7.33496 27.1016 7.33496 25.999V5.99905C7.33496 4.89654 7.61104 3.94752 8.27974 3.27882Z" fill="#000000" class="bmwfcol"/><title>mobile_phone_pointing_hand_lt_48</title></svg>