<svg width="48" height="48" viewBox="0 0 32 32" xmlns="http://www.w3.org/2000/svg"><path d="M11.165 23C11.165 22.3566 10.6434 21.835 9.99996 21.835C9.35655 21.835 8.83496 22.3566 8.83496 23C8.83496 23.6434 9.35655 24.165 9.99996 24.165C10.6434 24.165 11.165 23.6434 11.165 23Z" fill="#000000" class="bmwfcol"/><path d="M7.33496 10.7245L9.22451 8.83499H10.7754L12.665 10.7245V11.7754L11.6904 12.75L12.665 13.7245L12.665 14.7754L11.6904 15.75L12.665 16.7245V18.0637C13.9389 18.8761 14.665 20.293 14.665 22C14.665 23.3511 14.2117 24.5287 13.3702 25.3702C12.5287 26.2117 11.3511 26.665 9.99996 26.665C8.64884 26.665 7.47123 26.2117 6.62973 25.3702C5.78824 24.5287 5.33496 23.3511 5.33496 22C5.33496 20.293 6.06106 18.8761 7.33496 18.0637L7.33496 10.7245ZM11.3095 11.25L10.2245 10.165H9.77541L8.66496 11.2754L8.66496 18.8564L8.30177 19.0414C7.30538 19.5489 6.66496 20.5709 6.66496 22C6.66496 23.0489 7.01168 23.8713 7.57019 24.4298C8.12869 24.9883 8.95108 25.335 9.99996 25.335C11.0488 25.335 11.8712 24.9883 12.4297 24.4298C12.9882 23.8713 13.335 23.0489 13.335 22C13.335 20.5709 12.6945 19.5489 11.6981 19.0414L11.335 18.8564V17.2754L10.335 16.2754V15.2245L11.3095 14.25L10.335 13.2754V12.2245L11.3095 11.25Z" fill="#000000" class="bmwfcol"/><path d="M8.49996 4.83501C8.13269 4.83501 7.83496 5.13274 7.83496 5.50001C7.83496 5.86728 8.13269 6.16501 8.49996 6.16501H11.5C11.8672 6.16501 12.165 5.86728 12.165 5.50001C12.165 5.13274 11.8672 4.83501 11.5 4.83501H8.49996Z" fill="#000000" class="bmwfcol"/><path d="M5.99996 2.335C4.89746 2.335 3.94843 2.61108 3.27974 3.27977C2.61104 3.94847 2.33496 4.89749 2.33496 6V26C2.33496 27.1025 2.61104 28.0515 3.27974 28.7202C3.94843 29.3889 4.89746 29.665 5.99996 29.665H14C15.1025 29.665 16.0515 29.3889 16.7202 28.7202C17.3889 28.0515 17.665 27.1025 17.665 26V6C17.665 4.89749 17.3889 3.94847 16.7202 3.27977C16.0515 2.61108 15.1025 2.335 14 2.335H5.99996ZM3.66496 6C3.66496 5.10251 3.88888 4.55153 4.22019 4.22023C4.55149 3.88892 5.10247 3.665 5.99996 3.665H14C14.8975 3.665 15.4484 3.88892 15.7797 4.22023C16.111 4.55153 16.335 5.10251 16.335 6V26C16.335 26.8975 16.111 27.4485 15.7797 27.7798C15.4484 28.1111 14.8975 28.335 14 28.335H5.99996C5.10247 28.335 4.55149 28.1111 4.22019 27.7798C3.88888 27.4485 3.66496 26.8975 3.66496 26V6Z" fill="#000000" class="bmwfcol"/><path d="M25.8952 6.10477L24.9548 7.04523C27.0883 9.17873 28.335 12.2511 28.335 16C28.335 19.7489 27.0883 22.8213 24.9548 24.9548L25.8952 25.8952C28.3117 23.4787 29.665 20.0511 29.665 16C29.665 11.9489 28.3117 8.52127 25.8952 6.10477Z" fill="#000000" class="bmwfcol"/><path d="M22.9952 22.9952C24.7117 21.2787 25.665 18.8511 25.665 16C25.665 13.1489 24.7117 10.7213 22.9952 9.00477L22.0548 9.94523C23.4883 11.3787 24.335 13.4511 24.335 16C24.335 18.5489 23.4883 20.6213 22.0548 22.0548L22.9952 22.9952Z" fill="#000000" class="bmwfcol"/><path d="M20.0952 20.0952C21.1117 19.0787 21.665 17.6511 21.665 16C21.665 14.3489 21.1117 12.9213 20.0952 11.9048L19.1548 12.8452C19.8883 13.5787 20.335 14.6511 20.335 16C20.335 17.3489 19.8883 18.4213 19.1548 19.1548L20.0952 20.0952Z" fill="#000000" class="bmwfcol"/><title>mobile_phone_with_key_and_waves_lt_48</title></svg>