<svg width="48" height="48" viewBox="0 0 32 32" xmlns="http://www.w3.org/2000/svg"><path d="M13.8349 5.49992C13.8349 5.13265 14.1327 4.83492 14.4999 4.83492H17.4999C17.8672 4.83492 18.1649 5.13265 18.1649 5.49992C18.1649 5.86719 17.8672 6.16492 17.4999 6.16492H14.4999C14.1327 6.16492 13.8349 5.86719 13.8349 5.49992Z" fill="#000000" class="bmwfcol"/><path d="M9.27974 3.27973C9.94843 2.61104 10.8975 2.33496 12 2.33496H20C21.1025 2.33496 22.0515 2.61104 22.7202 3.27973C23.3889 3.94843 23.665 4.89745 23.665 5.99996V26C23.665 27.1025 23.3889 28.0515 22.7202 28.7202C22.0515 29.3889 21.1025 29.665 20 29.665H12C10.8975 29.665 9.94843 29.3889 9.27974 28.7202C8.61104 28.0515 8.33496 27.1025 8.33496 26V5.99996C8.33496 4.89745 8.61104 3.94843 9.27974 3.27973ZM10.2202 4.22019C9.88888 4.55149 9.66496 5.10247 9.66496 5.99996V26C9.66496 26.8975 9.88888 27.4484 10.2202 27.7797C10.5515 28.111 11.1025 28.335 12 28.335H20C20.8975 28.335 21.4484 28.111 21.7797 27.7797C22.111 27.4484 22.335 26.8975 22.335 26V5.99996C22.335 5.10247 22.111 4.55149 21.7797 4.22019C21.4484 3.88888 20.8975 3.66496 20 3.66496H12C11.1025 3.66496 10.5515 3.88888 10.2202 4.22019Z" fill="#000000" class="bmwfcol"/><path d="M6.49996 11.7782V10.3955C5.9639 10.5134 5.32862 10.8007 4.78274 11.2224C4.02911 11.8046 3.33496 12.7306 3.33496 14.0004V18.0004C3.33496 19.2702 4.02911 20.1961 4.78274 20.7783C5.32862 21.2001 5.9639 21.4873 6.49996 21.6052V20.2226C6.23215 20.1268 5.90678 19.9661 5.59586 19.7258C5.0566 19.3092 4.66496 18.7352 4.66496 18.0004V14.0004C4.66496 13.2656 5.0566 12.6915 5.59586 12.2749C5.90678 12.0347 6.23215 11.874 6.49996 11.7782Z" fill="#000000" class="bmwfcol"/><path d="M25.5 11.7782V10.3955C26.036 10.5134 26.6713 10.8007 27.2172 11.2224C27.9708 11.8046 28.665 12.7306 28.665 14.0004V18.0004C28.665 19.2702 27.9708 20.1961 27.2172 20.7783C26.6713 21.2001 26.036 21.4873 25.5 21.6052V20.2226C25.7678 20.1268 26.0931 19.9661 26.4041 19.7258C26.9433 19.3092 27.335 18.7352 27.335 18.0004V14.0004C27.335 13.2656 26.9433 12.6915 26.4041 12.2749C26.0931 12.0347 25.7678 11.874 25.5 11.7782Z" fill="#000000" class="bmwfcol"/><title>mobile_phone_holder_lt_48</title></svg>