<svg width="48" height="48" viewBox="0 0 32 32" xmlns="http://www.w3.org/2000/svg"><path d="M8.27974 3.27977C8.94843 2.61107 9.89746 2.33499 11 2.33499H21C22.1025 2.33499 23.0515 2.61107 23.7202 3.27977C24.3889 3.94846 24.665 4.89749 24.665 5.99999V26C24.665 27.1025 24.3889 28.0515 23.7202 28.7202C23.0515 29.3889 22.1025 29.665 21 29.665H11C9.89746 29.665 8.94843 29.3889 8.27974 28.7202C7.61104 28.0515 7.33496 27.1025 7.33496 26V5.99999C7.33496 4.89749 7.61104 3.94846 8.27974 3.27977ZM9.22019 4.22022C8.88888 4.55152 8.66496 5.1025 8.66496 5.99999V6.335L23.335 6.33499V5.99999C23.335 5.1025 23.111 4.55152 22.7797 4.22022C22.4484 3.88891 21.8975 3.66499 21 3.66499H11C10.1025 3.66499 9.55149 3.88891 9.22019 4.22022ZM23.335 7.66499L8.66496 7.665V24.335H23.335V7.66499ZM8.66496 26C8.66496 26.8975 8.88888 27.4485 9.22019 27.7798C9.55149 28.1111 10.1025 28.335 11 28.335H21C21.8975 28.335 22.4484 28.1111 22.7797 27.7798C23.111 27.4485 23.335 26.8975 23.335 26V25.665H8.66496V26Z" fill="#000000" class="bmwfcol"/><title>mobile-phone_lt_48</title></svg>