<svg width="48" height="48" viewBox="0 0 32 32" xmlns="http://www.w3.org/2000/svg"><path d="M4.99996 5.33408C4.55302 5.33408 4.11981 5.47379 3.79723 5.79636C3.47466 6.11893 3.33496 6.55215 3.33496 6.99908V22.9991C3.33496 23.446 3.47466 23.8792 3.79723 24.2018C4.11981 24.5244 4.55302 24.6641 4.99996 24.6641H13.8622L13.0944 23.3341H4.99996C4.8269 23.3341 4.76012 23.2838 4.73769 23.2614C4.71526 23.2389 4.66496 23.1721 4.66496 22.9991V6.99908C4.66496 6.82602 4.71526 6.75924 4.73769 6.73681C4.76012 6.71438 4.8269 6.66408 4.99996 6.66408H27C27.173 6.66408 27.2398 6.71438 27.2622 6.73681C27.2847 6.75924 27.335 6.82602 27.335 6.99908V15.5044C27.7975 15.5952 28.2495 15.7647 28.665 16.0218V6.99908C28.665 6.55215 28.5253 6.11893 28.2027 5.79636C27.8801 5.47379 27.4469 5.33408 27 5.33408H4.99996Z" fill="#000000" class="bmwfcol"/><path d="M11 27.3341H15.447C15.803 27.8287 16.215 28.2739 16.6741 28.6641H11V27.3341Z" fill="#000000" class="bmwfcol"/><path d="M20.5002 11.634C19.8991 11.634 19.3465 11.8373 18.9425 12.2413C18.5385 12.6453 18.3352 13.1979 18.3352 13.799V20.6946C17.7639 20.1709 17.1638 19.7782 16.5556 19.5436C15.6457 19.1927 14.6988 19.1931 13.8677 19.6731L13.2919 20.0056L16.6266 25.7822C17.6615 27.576 19.6249 28.7139 22.0002 28.7139C23.9513 28.7139 25.6289 28.0606 26.8204 26.8691C28.0119 25.6777 28.6652 24 28.6652 22.0489V19.424C28.6652 18.8229 28.4619 18.2703 28.0579 17.8663C27.6539 17.4623 27.1013 17.259 26.5002 17.259C26.1505 17.259 25.8173 17.3278 25.5201 17.4648C25.4189 17.1937 25.2647 16.948 25.0579 16.7413C24.6539 16.3373 24.1013 16.134 23.5002 16.134C23.2064 16.134 22.9242 16.1826 22.6652 16.2794V13.799C22.6652 13.1979 22.4619 12.6453 22.0579 12.2413C21.6539 11.8373 21.1013 11.634 20.5002 11.634ZM25.8829 18.8067C26.0039 18.6857 26.2013 18.589 26.5002 18.589C26.7991 18.589 26.9965 18.6857 27.1175 18.8067C27.2385 18.9277 27.3352 19.1251 27.3352 19.424V22.0489C27.3352 23.6978 26.7885 25.0202 25.88 25.9287C24.9715 26.8372 23.6491 27.3839 22.0002 27.3839C20.0645 27.3839 18.5586 26.4697 17.7785 25.1174L15.1869 20.6281C15.4559 20.6108 15.7526 20.6594 16.077 20.7845C16.7034 21.0261 17.4095 21.5488 18.1093 22.3824L18.1107 22.384L18.3915 22.7163H19.6652V13.799C19.6652 13.5001 19.7619 13.3027 19.8829 13.1817C20.0039 13.0607 20.2013 12.964 20.5002 12.964C20.7991 12.964 20.9965 13.0607 21.1175 13.1817C21.2385 13.3027 21.3352 13.5001 21.3352 13.799V19.049H22.6652L22.6652 18.299L22.6652 18.2974C22.6656 17.9994 22.7621 17.8025 22.8829 17.6817C23.0039 17.5607 23.2013 17.464 23.5002 17.464C23.7991 17.464 23.9965 17.5607 24.1175 17.6817C24.2385 17.8027 24.3352 18.0001 24.3352 18.299V19.649H25.6652V19.424C25.6652 19.1251 25.7619 18.9277 25.8829 18.8067Z" fill="#000000" class="bmwfcol"/><title>monitor_pointing_hand_lt_48</title></svg>