<svg width="48" height="48" viewBox="0 0 32 32" xmlns="http://www.w3.org/2000/svg"><path d="M2 3.23705V1.90002C2.73148 1.96621 3.273 2.11192 3.6721 2.37157C4.29129 2.77442 4.45221 3.37915 4.56746 3.81225L4.58294 3.87026L4.655 4.13876H13.6577L13.433 4.97609C13.1295 6.10752 12.8882 6.9967 12.6387 7.67343C12.3899 8.34825 12.1029 8.90074 11.6584 9.29591C11.1983 9.70484 10.6477 9.8777 10.0189 9.95793C9.41747 10.0347 8.66538 10.0346 7.75147 10.0346H4.86018L3.29849 4.21532C3.1628 3.71027 3.10754 3.59097 2.94679 3.48639C2.80208 3.39224 2.53192 3.29458 2 3.23705ZM5.88032 8.70462L7.70755 8.70462C8.67621 8.70462 9.34315 8.70336 9.85055 8.63862C10.3401 8.57617 10.5928 8.46366 10.7748 8.30186C10.9723 8.1263 11.1661 7.82269 11.3908 7.21336C11.5562 6.76465 11.7221 6.19829 11.922 5.46876H5.01193L5.88032 8.70462Z" fill="#000000" class="bmwfcol"/><path d="M4.335 14.9991V22.9991C4.335 23.446 4.4747 23.8792 4.79727 24.2018C5.11984 24.5244 5.55306 24.6641 6 24.6641H28C28.4469 24.6641 28.8802 24.5244 29.2027 24.2018C29.5253 23.8792 29.665 23.446 29.665 22.9991V6.99907C29.665 6.55213 29.5253 6.11891 29.2027 5.79634C28.8802 5.47377 28.4469 5.33407 28 5.33407H14.844L14.4893 6.66407H28C28.1731 6.66407 28.2398 6.71437 28.2623 6.73679C28.2847 6.75922 28.335 6.82601 28.335 6.99907V22.9991C28.335 23.1721 28.2847 23.2389 28.2623 23.2613C28.2398 23.2838 28.1731 23.3341 28 23.3341H6C5.82694 23.3341 5.76015 23.2838 5.73773 23.2613C5.7153 23.2389 5.665 23.1721 5.665 22.9991V14.9991H4.335Z" fill="#000000" class="bmwfcol"/><path d="M22 28.6641H12V27.3341H22V28.6641Z" fill="#000000" class="bmwfcol"/><path d="M4.18542 12.5332C4.18542 11.8898 4.70701 11.3682 5.35042 11.3682C5.99384 11.3682 6.51542 11.8898 6.51542 12.5332C6.51542 13.1766 5.99384 13.6982 5.35042 13.6982C4.70701 13.6982 4.18542 13.1766 4.18542 12.5332Z" fill="#000000" class="bmwfcol"/><path d="M10.6772 11.3682C10.0338 11.3682 9.51221 11.8898 9.51221 12.5332C9.51221 13.1766 10.0338 13.6982 10.6772 13.6982C11.3206 13.6982 11.8422 13.1766 11.8422 12.5332C11.8422 11.8898 11.3206 11.3682 10.6772 11.3682Z" fill="#000000" class="bmwfcol"/><path d="M18.8295 13.6236L18.8997 13.6236C19.9898 13.6236 20.8108 13.7769 21.6249 14.0927C22.3666 14.3805 23.0932 14.8014 23.9805 15.3154L24.0321 15.3453L25.5247 15.4759L25.5247 16.6486C25.5247 16.7929 25.5282 16.837 25.555 16.904C25.5869 16.9837 25.6744 17.1393 25.9417 17.4067L26.1247 17.5897L26.1249 19.7594L25.8124 19.9399C25.2954 20.2383 24.9294 20.4294 24.5522 20.5282C24.2446 20.6088 23.9501 20.6214 23.6135 20.6233C23.2696 21.3337 22.5419 21.8236 21.6997 21.8236C20.8577 21.8236 20.13 21.3338 19.7861 20.6236H14.1134C13.7694 21.3338 13.0418 21.8236 12.1997 21.8236C11.3084 21.8236 10.5452 21.2748 10.2297 20.4967L10.2297 20.6236C10.0522 20.6236 9.90304 20.6236 9.64481 20.576C9.41397 20.5335 9.0899 20.4522 8.53797 20.3043L8.07471 20.1802L8.07487 16.8878L8.41685 16.6903C9.13935 16.2731 9.58434 16.0162 10.3534 15.8453C11.0548 15.6894 12.0424 15.6011 13.8501 15.4431C14.8495 14.6151 15.5666 14.1336 16.3176 13.8812C17.0846 13.6234 17.8411 13.6235 18.8295 13.6236ZM24.2355 19.319C24.3869 19.2793 24.5614 19.2051 24.8748 19.0337L24.8748 18.0979C24.6449 17.8417 24.4892 17.6053 24.3944 17.3682C24.2745 17.0684 24.2746 16.8178 24.2747 16.6611L24.2747 16.6213L23.6464 16.5663L23.397 16.422C22.4668 15.8835 21.8209 15.5096 21.1727 15.2581C20.5201 15.0049 19.8548 14.8736 18.8997 14.8736C17.8227 14.8736 17.2694 14.8799 16.7159 15.066C16.1657 15.251 15.567 15.6334 14.5016 16.5274L14.3506 16.6541L14.1543 16.6712C12.1728 16.8445 11.2485 16.9268 10.6246 17.0655C10.141 17.173 9.85445 17.3095 9.32484 17.6104L9.32476 19.219C9.5906 19.2873 9.75417 19.3251 9.87124 19.3467C9.96786 19.3645 10.0268 19.3705 10.0996 19.3726C10.2564 18.3537 11.137 17.5736 12.1997 17.5736C13.2628 17.5736 14.1436 18.3543 14.3 19.3736H19.5994C19.7558 18.3543 20.6366 17.5736 21.6997 17.5736C22.7615 17.5736 23.6414 18.3524 23.7994 19.3699C23.9939 19.3644 24.1132 19.351 24.2355 19.319ZM11.3247 19.6986C11.3247 20.1819 11.7165 20.5736 12.1997 20.5736C12.683 20.5736 13.0747 20.1819 13.0747 19.6986C13.0747 19.2154 12.683 18.8236 12.1997 18.8236C11.7165 18.8236 11.3247 19.2154 11.3247 19.6986ZM20.8247 19.6986C20.8247 20.1819 21.2165 20.5736 21.6997 20.5736C22.183 20.5736 22.5747 20.1819 22.5747 19.6986C22.5747 19.2154 22.183 18.8236 21.6997 18.8236C21.2165 18.8236 20.8247 19.2154 20.8247 19.6986Z" fill="#000000" class="bmwfcol"/><title>monitor_car_shopping_cart_lt_48</title></svg>