<svg width="48" height="48" viewBox="0 0 32 32" xmlns="http://www.w3.org/2000/svg"><path d="M3.79723 5.79723C4.11981 5.47466 4.55302 5.33496 4.99996 5.33496H27C27.4469 5.33496 27.8801 5.47466 28.2027 5.79723C28.5253 6.11981 28.665 6.55302 28.665 6.99996V14.2705C28.3989 13.8538 28.0875 13.4641 27.7306 13.1072C27.6029 12.9794 27.4709 12.8575 27.335 12.7414V6.99996C27.335 6.8269 27.2847 6.76012 27.2622 6.73769C27.2398 6.71526 27.173 6.66496 27 6.66496H4.99996C4.8269 6.66496 4.76012 6.71526 4.73769 6.73769C4.71526 6.76012 4.66496 6.8269 4.66496 6.99996V23C4.66496 23.173 4.71526 23.2398 4.73769 23.2622C4.76012 23.2847 4.8269 23.335 4.99996 23.335H16.445C16.6004 23.5286 16.7671 23.7147 16.9451 23.8927C17.2318 24.1795 17.5398 24.4369 17.8659 24.665H4.99996C4.55302 24.665 4.11981 24.5253 3.79723 24.2027C3.47466 23.8801 3.33496 23.4469 3.33496 23V6.99996C3.33496 6.55302 3.47466 6.11981 3.79723 5.79723Z" fill="#000000" class="bmwfcol"/><path d="M18.2426 14.4047C19.2591 13.3882 20.6867 12.835 22.3379 12.835C23.989 12.835 25.4166 13.3882 26.4331 14.4047C27.4496 15.4212 28.0029 16.8488 28.0029 18.5C28.0029 19.8388 27.5802 21.0756 26.8281 22.0497L29.8076 25.0293L28.8672 25.9697L25.8907 22.9932C24.9518 23.727 23.74 24.165 22.3379 24.165C20.6867 24.165 19.2591 23.6117 18.2426 22.5952C17.2261 21.5787 16.6729 20.1511 16.6729 18.5C16.6729 16.8488 17.2261 15.4212 18.2426 14.4047ZM19.1831 15.3452C18.4496 16.0787 18.0029 17.1511 18.0029 18.5C18.0029 19.8488 18.4496 20.9212 19.1831 21.6547C19.9166 22.3882 20.989 22.835 22.3379 22.835C24.9498 22.835 26.6729 20.9153 26.6729 18.5C26.6729 17.1511 26.2261 16.0787 25.4926 15.3452C24.7591 14.6117 23.6867 14.165 22.3379 14.165C20.989 14.165 19.9166 14.6117 19.1831 15.3452Z" fill="#000000" class="bmwfcol"/><path d="M11 28.665H21V27.335H11V28.665Z" fill="#000000" class="bmwfcol"/><title>monitor_with_magnifying_glass_lt_48</title></svg>