<svg width="48" height="48" viewBox="0 0 32 32" xmlns="http://www.w3.org/2000/svg"><path d="M3.79723 5.79632C4.11981 5.47375 4.55302 5.33405 4.99996 5.33405H27C27.4469 5.33405 27.8801 5.47375 28.2027 5.79632C28.5253 6.11889 28.665 6.55211 28.665 6.99905V16.0218C28.2495 15.7647 27.7975 15.5952 27.335 15.5044V6.99905C27.335 6.82598 27.2847 6.7592 27.2622 6.73677C27.2398 6.71434 27.173 6.66405 27 6.66405H4.99996C4.8269 6.66405 4.76012 6.71434 4.73769 6.73677C4.71526 6.7592 4.66496 6.82598 4.66496 6.99905V22.999C4.66496 23.1721 4.71526 23.2389 4.73769 23.2613C4.76012 23.2837 4.8269 23.334 4.99996 23.334H13.0944L13.8622 24.664H4.99996C4.55302 24.664 4.11981 24.5243 3.79723 24.2018C3.47466 23.8792 3.33496 23.446 3.33496 22.999V6.99905C3.33496 6.55211 3.47466 6.11889 3.79723 5.79632Z" fill="#000000" class="bmwfcol"/><path d="M15.447 27.334H11V28.664H16.6741C16.215 28.2738 15.803 27.8287 15.447 27.334Z" fill="#000000" class="bmwfcol"/><path d="M18.9425 12.2413C19.3465 11.8373 19.8991 11.634 20.5002 11.634C21.1013 11.634 21.6539 11.8373 22.0579 12.2413C22.4619 12.6453 22.6652 13.1979 22.6652 13.799V16.2794C22.9241 16.1826 23.2064 16.134 23.5002 16.134C24.1013 16.134 24.6539 16.3373 25.0579 16.7413C25.2647 16.948 25.4188 17.1937 25.5201 17.4648C25.8173 17.3278 26.1505 17.259 26.5002 17.259C27.1013 17.259 27.6539 17.4623 28.0579 17.8663C28.4619 18.2703 28.6652 18.8229 28.6652 19.424V22.0489C28.6652 24 28.0119 25.6777 26.8204 26.8691C25.6289 28.0606 23.9513 28.7139 22.0002 28.7139C19.6248 28.7139 17.6615 27.576 16.6266 25.7822L13.2919 20.0056L13.8676 19.6731C14.6988 19.1931 15.6457 19.1927 16.5556 19.5436C17.1638 19.7782 17.7639 20.1709 18.3352 20.6946V13.799C18.3352 13.1979 18.5385 12.6453 18.9425 12.2413ZM25.6652 19.424V19.649H24.3352V18.299C24.3352 18.0001 24.2385 17.8027 24.1175 17.6817C23.9965 17.5607 23.7991 17.464 23.5002 17.464C23.2013 17.464 23.0039 17.5607 22.8829 17.6817C22.7621 17.8025 22.6655 17.9994 22.6652 18.2974V19.049H21.3352V13.799C21.3352 13.5001 21.2385 13.3027 21.1175 13.1817C20.9965 13.0607 20.7991 12.964 20.5002 12.964C20.2013 12.964 20.0039 13.0607 19.8829 13.1817C19.7619 13.3027 19.6652 13.5001 19.6652 13.799V22.7163H18.3915L18.1106 22.384L18.1093 22.3824C17.4094 21.5488 16.7034 21.0261 16.0769 20.7845C15.7526 20.6594 15.4559 20.6108 15.1869 20.6281L17.7785 25.1174C18.5586 26.4697 20.0645 27.3839 22.0002 27.3839C23.6491 27.3839 24.9715 26.8372 25.88 25.9287C26.7885 25.0202 27.3352 23.6978 27.3352 22.0489V19.424C27.3352 19.1251 27.2385 18.9277 27.1175 18.8067C26.9965 18.6857 26.7991 18.589 26.5002 18.589C26.2013 18.589 26.0039 18.6857 25.8829 18.8067C25.7619 18.9277 25.6652 19.1251 25.6652 19.424Z" fill="#000000" class="bmwfcol"/><path d="M9.65745 15.7248C10.1613 16.4013 10.9088 16.9378 12 17.1085V15.7549C11.3838 15.6122 10.9964 15.2959 10.7242 14.9304C10.3488 14.4264 10.1648 13.792 10.0162 13.2037C9.69248 11.9226 9.05156 10.8204 8.50628 10.0497C8.41715 9.92372 8.33005 9.80586 8.24662 9.69676C9.60679 9.76764 11.0758 9.96879 12.3067 10.4153C13.9257 11.0026 14.9533 11.934 15.0314 13.402C15.0622 13.981 14.8971 14.5585 14.5625 14.9999C14.383 14.2797 13.9886 13.6784 13.5459 13.1646C13.2446 12.8148 12.9092 12.492 12.5881 12.193C12.5005 12.1114 12.4147 12.0323 12.3307 11.9549C12.2174 11.8504 12.1073 11.7488 12 11.648V13.4682C12.1933 13.656 12.3742 13.8422 12.5383 14.0326C13.0391 14.6139 13.3351 15.1795 13.3351 15.8392V17.9999H14.6651V16.6611C14.9662 16.4818 15.2315 16.2598 15.458 16.0039C16.1155 15.2612 16.4097 14.2758 16.3595 13.3313C16.24 11.0843 14.5996 9.83233 12.7602 9.16505C10.9219 8.49818 8.70554 8.33496 7 8.33496H6.335V9.53817L6.53229 9.73336L6.53367 9.73475L6.54481 9.74605C6.55537 9.75685 6.57208 9.7741 6.59421 9.79753C6.6385 9.8444 6.70438 9.91584 6.78619 10.0096C6.95006 10.1973 7.1764 10.4728 7.42054 10.8179C7.91278 11.5136 8.45759 12.4644 8.72673 13.5295C8.87453 14.1144 9.10777 14.9866 9.65745 15.7248Z" fill="#000000" class="bmwfcol"/><title>monitor_leaf_pointing_hand_lt_48</title></svg>