<svg width="48" height="48" viewBox="0 0 32 32" xmlns="http://www.w3.org/2000/svg"><path d="M16.0067 4.70707C15.2758 4.34162 14.3126 4.13477 13.285 4.13477C12.2574 4.13477 11.2941 4.34162 10.5632 4.70707C9.87207 5.05265 9.19141 5.65308 9.19141 6.51405V7.21428L9.14932 7.19291C8.4184 6.82745 7.45518 6.62061 6.42756 6.62061C5.39993 6.62061 4.43671 6.82745 3.70579 7.19291C3.09787 7.49687 2.49806 7.99802 2.36242 8.7002H2.33398V11.4859C2.33398 12.3469 3.01465 12.9473 3.70579 13.2929C4.43671 13.6583 5.39993 13.8652 6.42756 13.8652C7.45518 13.8652 8.4184 13.6583 9.14932 13.2929C9.39653 13.1693 9.64241 13.0131 9.85627 12.824C10.0701 13.0131 10.316 13.1693 10.5632 13.2929C11.2941 13.6583 12.2574 13.8652 13.285 13.8652C14.3126 13.8652 15.2758 13.6583 16.0067 13.2929C16.6979 12.9473 17.3785 12.3469 17.3785 11.4859V6.51416C17.3785 5.65319 16.6979 5.05265 16.0067 4.70707ZM10.5214 6.51405C10.5214 6.42825 10.6083 6.17154 11.158 5.89666C11.668 5.64167 12.4191 5.46477 13.285 5.46477C14.1509 5.46477 14.902 5.64167 15.4119 5.89666C15.9617 6.17154 16.0485 6.42835 16.0485 6.51416C16.0485 6.60007 15.9615 6.85668 15.4119 7.13144C14.902 7.38643 14.1509 7.56334 13.285 7.56334C12.4191 7.56334 11.668 7.38643 11.158 7.13144C10.6085 6.85668 10.5215 6.59997 10.5214 6.51405ZM16.0067 8.32103L16.0485 8.2998V8.99987C16.0485 9.08568 15.9617 9.34238 15.4119 9.61726C14.902 9.87225 14.1509 10.0492 13.285 10.0492C12.4191 10.0492 11.668 9.87225 11.158 9.61726C10.6083 9.34238 10.5214 9.08568 10.5214 8.99987V8.2998L10.5632 8.32103C11.2941 8.68649 12.2574 8.89334 13.285 8.89334C14.3126 8.89334 15.2758 8.68649 16.0067 8.32103ZM16.0067 10.8069L16.0485 10.7856V11.4859C16.0485 11.5717 15.9617 11.8284 15.4119 12.1033C14.902 12.3583 14.1509 12.5352 13.285 12.5352C12.4191 12.5352 11.668 12.3583 11.158 12.1033C10.6083 11.8284 10.5214 11.5717 10.5214 11.4859V10.7856L10.5632 10.8069C11.2941 11.1723 12.2574 11.3792 13.285 11.3792C14.3126 11.3792 15.2758 11.1723 16.0067 10.8069ZM3.66398 11.4859V10.7856L3.70579 10.8069C4.43671 11.1723 5.39993 11.3792 6.42756 11.3792C7.45518 11.3792 8.4184 11.1723 9.14932 10.8069L9.19113 10.7856V11.4859C9.19113 11.5717 9.10428 11.8284 8.55452 12.1033C8.04454 12.3583 7.29348 12.5352 6.42756 12.5352C5.56163 12.5352 4.81057 12.3583 4.30059 12.1033C3.75083 11.8284 3.66398 11.5717 3.66398 11.4859ZM8.55453 9.61728C8.04454 9.87227 7.29348 10.0492 6.42756 10.0492C5.56163 10.0492 4.81057 9.87227 4.30059 9.61728C3.75083 9.3424 3.66398 9.0857 3.66398 8.99989C3.66398 8.91408 3.75083 8.65738 4.30059 8.3825C4.81057 8.12751 5.56163 7.95061 6.42756 7.95061C7.29348 7.95061 8.04454 8.12751 8.55453 8.3825C9.10354 8.65701 9.19089 8.91409 9.19113 9.00024C9.19089 9.08639 9.10354 9.34277 8.55453 9.61728Z" fill="#000000" class="bmwfcol"/><path d="M18.501 5.33496V6.66496H27.0009C27.174 6.66496 27.2408 6.71526 27.2632 6.73769C27.2856 6.76012 27.3359 6.8269 27.3359 6.99996V15.9649C27.808 16.0693 28.2625 16.2663 28.6659 16.5663V6.99996C28.6659 6.55302 28.5262 6.11981 28.2037 5.79724C27.8811 5.47466 27.4479 5.33496 27.0009 5.33496H18.501Z" fill="#000000" class="bmwfcol"/><path d="M3.33594 23V15.4999H4.66594V23C4.66594 23.173 4.71623 23.2398 4.73866 23.2622C4.76109 23.2847 4.82788 23.335 5.00094 23.335H13.6149L14.3827 24.665H5.00094C4.554 24.665 4.12078 24.5253 3.79821 24.2027C3.47564 23.8801 3.33594 23.4469 3.33594 23Z" fill="#000000" class="bmwfcol"/><path d="M16.012 27.335C16.4137 27.8412 16.8816 28.2872 17.4035 28.665H11.0009V27.335H16.012Z" fill="#000000" class="bmwfcol"/><path d="M18.9416 12.242C19.3456 11.838 19.8982 11.6348 20.4994 11.6348C21.1005 11.6348 21.6531 11.838 22.0571 12.242C22.4611 12.646 22.6644 13.1986 22.6644 13.7998V16.2802C22.9233 16.1833 23.2055 16.1348 23.4994 16.1348C24.1005 16.1348 24.6531 16.338 25.0571 16.742C25.2638 16.9488 25.418 17.1944 25.5193 17.4656C25.8164 17.3285 26.1497 17.2597 26.4994 17.2597C27.1005 17.2597 27.6531 17.463 28.0571 17.867C28.4611 18.271 28.6644 18.8236 28.6644 19.4247V22.0497C28.6644 24.0008 28.0111 25.6784 26.8196 26.8699C25.6281 28.0614 23.9505 28.7147 21.9994 28.7147C19.624 28.7147 17.6606 27.5768 16.6257 25.783L13.291 20.0063L13.8668 19.6738C14.698 19.1939 15.6449 19.1934 16.5547 19.5444C17.1629 19.779 17.7631 20.1717 18.3344 20.6954V13.7998C18.3344 13.1986 18.5376 12.646 18.9416 12.242ZM25.6644 19.4247V19.6497H24.3344V18.2997C24.3344 18.0009 24.2376 17.8035 24.1166 17.6825C23.9956 17.5615 23.7982 17.4648 23.4994 17.4648C23.2005 17.4648 23.0031 17.5615 22.8821 17.6825C22.7613 17.8033 22.6647 18.0002 22.6644 18.2981L22.6643 18.2997L22.6644 19.0497H21.3344V13.7998C21.3344 13.5009 21.2376 13.3035 21.1166 13.1825C20.9956 13.0615 20.7982 12.9648 20.4994 12.9648C20.2005 12.9648 20.0031 13.0615 19.8821 13.1825C19.7611 13.3035 19.6644 13.5009 19.6644 13.7998V22.7171H18.3906L18.1098 22.3847L18.1085 22.3831C17.4086 21.5496 16.7025 21.0269 16.0761 20.7853C15.7517 20.6602 15.4551 20.6115 15.1861 20.6289L17.7777 25.1182C18.5578 26.4705 20.0637 27.3847 21.9994 27.3847C23.6482 27.3847 24.9706 26.838 25.8791 25.9295C26.7876 25.021 27.3344 23.6986 27.3344 22.0497V19.4247C27.3344 19.1259 27.2376 18.9285 27.1166 18.8075C26.9956 18.6865 26.7982 18.5897 26.4994 18.5897C26.2005 18.5897 26.0031 18.6865 25.8821 18.8075C25.7611 18.9285 25.6644 19.1259 25.6644 19.4247Z" fill="#000000" class="bmwfcol"/><title>monitor_coins_pointing_hand_lt_48</title></svg>