<svg width="48" height="48" viewBox="0 0 32 32" xmlns="http://www.w3.org/2000/svg"><path d="M4.99996 5.33405C4.55302 5.33405 4.11981 5.47375 3.79723 5.79632C3.47466 6.11889 3.33496 6.55211 3.33496 6.99905V22.999C3.33496 23.446 3.47466 23.8792 3.79723 24.2018C4.11981 24.5243 4.55302 24.664 4.99996 24.664H13.8621L13.0944 23.334H4.99996C4.8269 23.334 4.76012 23.2837 4.73769 23.2613C4.71526 23.2389 4.66496 23.1721 4.66496 22.999V6.99905C4.66496 6.82598 4.71526 6.7592 4.73769 6.73677C4.76012 6.71434 4.8269 6.66405 4.99996 6.66405H27C27.173 6.66405 27.2398 6.71434 27.2622 6.73677C27.2847 6.7592 27.335 6.82598 27.335 6.99905V15.5044C27.7975 15.5952 28.2495 15.7647 28.665 16.0218V6.99905C28.665 6.55211 28.5253 6.11889 28.2027 5.79632C27.8801 5.47375 27.4469 5.33405 27 5.33405H4.99996Z" fill="#000000" class="bmwfcol"/><path d="M15.447 27.334C15.803 27.8287 16.215 28.2738 16.674 28.664H11V27.334H15.447Z" fill="#000000" class="bmwfcol"/><path d="M18.3 9.13142C18.1705 9.12652 18.0372 9.12408 17.8997 9.12408L17.8294 9.12408C16.8411 9.12394 16.0845 9.12383 15.3176 9.38166C14.5666 9.6341 13.8495 10.1156 12.8501 10.9435C11.0424 11.1016 10.0548 11.1898 9.35337 11.3457C8.58431 11.5167 8.13932 11.7736 7.41683 12.1908L7.07485 12.3882L7.07468 15.6807L7.53795 15.8048C8.08988 15.9527 8.41394 16.034 8.64479 16.0765C8.90302 16.1241 9.05214 16.1241 9.22971 16.1241V15.9973C9.54527 16.7753 10.3084 17.3241 11.1997 17.3241C12.0418 17.3241 12.7694 16.8343 13.1134 16.1241H16.5V14.8741H13.3C13.1436 13.8547 12.2628 13.0741 11.1997 13.0741C10.137 13.0741 9.25645 13.8542 9.09956 14.873C9.02674 14.871 8.96785 14.865 8.87121 14.8472C8.75415 14.8256 8.59058 14.7878 8.32473 14.7195L8.32481 13.1109C8.85443 12.81 9.14101 12.6734 9.62457 12.566C10.2485 12.4273 11.1727 12.3449 13.1543 12.1717L13.3506 12.1545L13.5016 12.0279C14.567 11.1339 15.1657 10.7514 15.7159 10.5665C16.2694 10.3804 16.8227 10.3741 17.8997 10.3741C18.039 10.3741 18.1721 10.3769 18.3 10.3824V9.13142ZM11.1997 14.3241C11.683 14.3241 12.0747 14.7158 12.0747 15.1991C12.0747 15.6823 11.683 16.0741 11.1997 16.0741C10.7165 16.0741 10.3247 15.6823 10.3247 15.1991C10.3247 14.7158 10.7165 14.3241 11.1997 14.3241Z" fill="#000000" class="bmwfcol"/><path d="M18.9425 12.2413C19.3465 11.8373 19.8991 11.634 20.5002 11.634C21.1013 11.634 21.6539 11.8373 22.0579 12.2413C22.4619 12.6453 22.6652 13.1979 22.6652 13.799V16.2794C22.9241 16.1826 23.2064 16.134 23.5002 16.134C24.1013 16.134 24.6539 16.3373 25.0579 16.7413C25.2647 16.948 25.4188 17.1937 25.5201 17.4648C25.8173 17.3278 26.1505 17.259 26.5002 17.259C27.1013 17.259 27.6539 17.4623 28.0579 17.8663C28.4619 18.2703 28.6652 18.8229 28.6652 19.424V22.0489C28.6652 24 28.0119 25.6777 26.8204 26.8691C25.6289 28.0606 23.9513 28.7139 22.0002 28.7139C19.6248 28.7139 17.6615 27.576 16.6266 25.7822L13.2919 20.0056L13.8676 19.6731C14.6988 19.1931 15.6457 19.1927 16.5556 19.5436C17.1638 19.7782 17.7639 20.1709 18.3352 20.6946V13.799C18.3352 13.1979 18.5385 12.6453 18.9425 12.2413ZM25.6652 19.424V19.649H24.3352V18.299C24.3352 18.0001 24.2385 17.8027 24.1175 17.6817C23.9965 17.5607 23.7991 17.464 23.5002 17.464C23.2013 17.464 23.0039 17.5607 22.8829 17.6817C22.7621 17.8025 22.6655 17.9994 22.6652 18.2974V19.049H21.3352V13.799C21.3352 13.5001 21.2385 13.3027 21.1175 13.1817C20.9965 13.0607 20.7991 12.964 20.5002 12.964C20.2013 12.964 20.0039 13.0607 19.8829 13.1817C19.7619 13.3027 19.6652 13.5001 19.6652 13.799V22.7163H18.3915L18.1106 22.384L18.1093 22.3824C17.4094 21.5488 16.7034 21.0261 16.0769 20.7845C15.7526 20.6594 15.4559 20.6108 15.1869 20.6281L17.7785 25.1174C18.5586 26.4697 20.0645 27.3839 22.0002 27.3839C23.6491 27.3839 24.9715 26.8372 25.88 25.9287C26.7885 25.0202 27.3352 23.6978 27.3352 22.0489V19.424C27.3352 19.1251 27.2385 18.9277 27.1175 18.8067C26.9965 18.6857 26.7991 18.589 26.5002 18.589C26.2013 18.589 26.0039 18.6857 25.8829 18.8067C25.7619 18.9277 25.6652 19.1251 25.6652 19.424Z" fill="#000000" class="bmwfcol"/><title>monitor_car_pointing_hand_lt_48</title></svg>