<svg width="48" height="48" viewBox="0 0 32 32" xmlns="http://www.w3.org/2000/svg"><path d="M11.0575 4.33496H13.2358L13.022 5.16572C12.789 6.07088 12.665 7.02044 12.665 7.99995C12.665 14.2601 17.7398 19.3349 24 19.3349C24.9795 19.3349 25.929 19.2109 26.8342 18.9779L27.665 18.7641V20.9424C25.7104 25.4121 21.1931 28.665 16 28.665C9.00527 28.665 3.33496 22.9946 3.33496 15.9999C3.33496 10.8069 6.58777 6.28953 11.0575 4.33496ZM11.5499 5.66496C7.61408 7.44342 4.66496 11.4028 4.66496 15.9999C4.66496 22.2601 9.73981 27.3349 16 27.3349C20.5971 27.3349 24.5565 24.3859 26.335 20.45C25.5777 20.5912 24.7972 20.6649 24 20.6649C17.0053 20.6649 11.335 14.9946 11.335 7.99995C11.335 7.20271 11.4087 6.42218 11.5499 5.66496Z" fill="#000000" class="bmwfcol"/><title>moon_lt_48</title></svg>