<svg width="48" height="48" viewBox="0 0 32 32" xmlns="http://www.w3.org/2000/svg"><path d="M8.00094 14.835C7.35753 14.835 6.83594 15.3566 6.83594 16C6.83594 16.6434 7.35753 17.165 8.00094 17.165C8.64435 17.165 9.16594 16.6434 9.16594 16C9.16594 15.3566 8.64435 14.835 8.00094 14.835Z" fill="#000000" class="bmwfcol"/><path d="M16.0009 14.835C15.3575 14.835 14.8359 15.3566 14.8359 16C14.8359 16.6434 15.3575 17.165 16.0009 17.165C16.6443 17.165 17.1659 16.6434 17.1659 16C17.1659 15.3566 16.6443 14.835 16.0009 14.835Z" fill="#000000" class="bmwfcol"/><path d="M24.0009 14.835C23.3575 14.835 22.8359 15.3566 22.8359 16C22.8359 16.6434 23.3575 17.165 24.0009 17.165C24.6444 17.165 25.1659 16.6434 25.1659 16C25.1659 15.3566 24.6444 14.835 24.0009 14.835Z" fill="#000000" class="bmwfcol"/><title>more_lt_48</title></svg>