<svg width="48" height="48" viewBox="0 0 32 32" xmlns="http://www.w3.org/2000/svg"><path d="M16 22.835C16.6434 22.835 17.165 23.3566 17.165 24C17.165 24.6032 16.7066 25.0995 16.1191 25.1592L16 25.165L15.8809 25.1592C15.2934 25.0995 14.835 24.6032 14.835 24L14.8408 23.8809C14.9005 23.2934 15.3968 22.835 16 22.835Z" fill="#000000" class="bmwfcol"/><path d="M16 14.835C16.6434 14.835 17.165 15.3566 17.165 16C17.165 16.6032 16.7066 17.0995 16.1191 17.1592L16 17.165L15.8809 17.1592C15.2934 17.0995 14.835 16.6032 14.835 16L14.8408 15.8809C14.9005 15.2934 15.3968 14.835 16 14.835Z" fill="#000000" class="bmwfcol"/><path d="M16 6.83496C16.6434 6.83496 17.165 7.35659 17.165 8C17.165 8.6032 16.7066 9.09952 16.1191 9.15918L16 9.16504L15.8809 9.15918C15.2934 9.09952 14.835 8.6032 14.835 8L14.8408 7.88086C14.9005 7.2934 15.3968 6.83496 16 6.83496Z" fill="#000000" class="bmwfcol"/><title>more_vertical_lt_48</title></svg>