<svg width="48" height="48" viewBox="0 0 32 32" xmlns="http://www.w3.org/2000/svg"><path d="M3.99949 13.7862V15.1359C5.13367 15.3291 6.17963 15.4755 6.8302 15.4755C7.24147 15.4755 7.65858 15.4491 8.03987 15.3738C8.41364 15.3 8.80459 15.1695 9.12013 14.9252C9.35522 14.7431 9.56518 14.5236 9.7129 14.2438C9.86255 13.9604 9.92831 13.6531 9.92831 13.3256C9.92831 12.7438 9.76555 12.1811 9.27228 11.7963C9.46083 11.5768 9.6416 11.3616 9.76109 11.2084C9.89595 11.0354 10.036 10.842 10.1353 10.6111C10.2404 10.3668 10.286 10.1151 10.286 9.83148C10.286 9.27356 10.0295 8.65524 9.51245 8.32809C8.70208 7.81531 7.52759 7.2337 6.48459 6.75438C6.24673 6.64508 6.08772 6.57037 5.97276 6.51285C5.67671 6.36471 5.39361 6.12734 5.39361 5.7607C5.39361 5.46019 5.47037 5.3424 5.60686 5.24937C5.72547 5.16851 5.90362 5.10339 6.16129 5.06307C6.41741 5.02299 6.70821 5.01359 7.0287 5.01359C7.39579 5.01359 8.22574 5.07886 9.99949 5.43189V4.07649C8.35965 3.75924 7.4967 3.68359 7.0287 3.68359C6.69485 3.68359 6.3186 3.69227 5.95568 3.74906C5.59431 3.8056 5.20143 3.91612 4.85774 4.1504C4.26274 4.55599 4.06361 5.1495 4.06361 5.7607C4.06361 6.3805 4.36068 6.90201 4.68114 7.22235C4.48094 7.45534 4.286 7.69306 4.1625 7.8642C3.94171 8.17017 3.69154 8.59556 3.70565 9.19074C3.71777 9.70216 3.90329 10.2571 4.33162 10.6016C4.77635 10.9593 5.10534 11.1441 5.62976 11.3933C6.5116 11.8122 7.42447 12.2081 8.25597 12.7204C8.69252 12.9894 8.70931 13.5612 8.3059 13.8735C8.22027 13.9398 8.05631 14.0149 7.78222 14.069C7.51565 14.1216 7.19194 14.1455 6.8302 14.1455C6.25226 14.1455 5.21065 13.9965 3.99949 13.7862ZM5.8367 7.92027C6.84452 8.38439 7.86209 8.85769 8.80129 9.45199C9.13687 9.66433 8.88243 10.1723 8.71227 10.3905C8.57742 10.5635 8.3395 10.843 8.10458 11.1135C7.79048 10.964 7.47758 10.8121 7.1651 10.6592C6.84416 10.5022 6.5232 10.3453 6.20048 10.1919C5.73488 9.97075 5.50363 9.83747 5.1652 9.56526C5.13492 9.5409 5.04136 9.4161 5.03527 9.15923C5.03126 8.98968 5.08842 8.85393 5.24101 8.64247C5.36478 8.47096 5.60579 8.1829 5.8367 7.92027Z" fill="#000000" class="bmwfcol"/><path d="M18.9161 15.335C20.4536 15.335 21.9632 15.5328 23.4027 16.0913C24.8177 16.6403 26.1254 17.4374 27.4347 18.1957L29.662 18.3906L29.6621 19.9999C29.6621 20.7354 30.1778 21.2403 30.662 21.7245L30.6623 24.3839C29.4462 25.086 28.363 25.6496 26.9412 25.6637C26.4776 26.8358 25.3341 27.665 23.997 27.665C22.6604 27.665 21.5174 26.8364 21.0533 25.665H9.94073C9.47671 26.8364 8.33363 27.665 6.99703 27.665C5.65441 27.665 4.50705 26.829 4.04711 25.6491C3.12419 25.5667 2.22202 25.2521 1.33203 25.0136L1.33228 20.616C2.45422 19.9683 3.55539 19.3131 4.83488 19.0287C5.98888 18.7723 7.63055 18.6268 10.7311 18.3557C12.4381 16.9348 13.6087 16.1496 14.8135 15.7446C16.0327 15.3348 17.2373 15.3349 18.9161 15.335ZM27.9854 24.2317C28.3141 24.1456 28.6794 23.9801 29.3322 23.6136L29.3321 22.269C28.5785 21.4625 28.3321 20.6983 28.332 19.6093L27.0243 19.4949C25.6897 18.7224 24.3639 17.8908 22.9216 17.3313C21.7853 16.8904 20.6296 16.665 18.997 16.665C17.2183 16.665 16.2297 16.6717 15.2373 17.0053C13.7281 17.5126 12.4624 18.6387 11.2641 19.6442C9.23023 19.822 7.12302 19.8826 5.12344 20.3271C4.2048 20.5312 3.67588 20.8026 2.66224 21.3843L2.66209 23.9919C3.24457 24.1448 3.59457 24.2289 3.83983 24.2761C3.95469 22.6326 5.32432 21.335 6.99703 21.335C8.68967 21.335 10.072 22.6637 10.1578 24.335H20.8363C20.9221 22.6637 22.3044 21.335 23.997 21.335C25.6877 21.335 27.0688 22.6606 27.1575 24.3292C27.5066 24.3198 27.7427 24.2952 27.9854 24.2317ZM5.16203 24.5C5.16203 25.5134 5.98359 26.335 6.99703 26.335C8.01047 26.335 8.83203 25.5134 8.83203 24.5C8.83203 23.4865 8.01047 22.665 6.99703 22.665C5.98359 22.665 5.16203 23.4865 5.16203 24.5ZM22.162 24.5C22.162 25.5134 22.9836 26.335 23.997 26.335C25.0105 26.335 25.832 25.5134 25.832 24.5C25.832 23.4865 25.0105 22.665 23.997 22.665C22.9836 22.665 22.162 23.4865 22.162 24.5Z" fill="#000000" class="bmwfcol"/><title>mot_lt_48</title></svg>