<svg width="48" height="48" viewBox="0 0 32 32" xmlns="http://www.w3.org/2000/svg"><path d="M13.174 10.5858L8.96761 3.30005H7.98904L3.19995 11.595V12.665H12.0225L7.89584 19.8126V20.8827H13.5561C13.6037 20.4223 13.681 19.9785 13.7865 19.5527H9.58163L13.1741 13.3303L15.1102 16.6836C15.3887 16.3052 15.7004 15.9564 16.043 15.6394L14.3258 12.665H23.1V11.5116L18.359 3.30005H17.3804L13.174 10.5858ZM8.47832 5.11258L12.0708 11.335H4.88582L8.47832 5.11258ZM17.8697 5.11258L21.4622 11.335H14.2772L17.8697 5.11258Z" fill="#000000" class="bmwfcol"/><path d="M20.6567 24.8697H19.5444V20.1408L18.1643 20.5712V19.4404L20.6567 18.6538V24.8697Z" fill="#000000" class="bmwfcol"/><path d="M21.3978 24.8697H25.5004V23.7871H23.0158C23.4382 23.3479 23.9839 22.7545 24.4808 22.1651C24.9709 21.592 25.2926 21.1002 25.2926 20.381C25.2926 19.982 25.1712 19.554 24.8713 19.2535C24.5051 18.8791 24.0098 18.7489 23.3341 18.7489C22.8019 18.7489 22.0826 18.9109 21.7338 19L21.5833 19.0384V20.1578L21.834 20.0921C22.1525 20.0087 22.8678 19.8315 23.2896 19.8315C23.6918 19.8315 23.8946 19.8909 24.0226 20.0016C24.1284 20.1042 24.1655 20.2257 24.1655 20.4255C24.1655 20.7464 24.0067 20.9767 23.6908 21.368C23.3024 21.8442 22.1363 23.1064 21.4513 23.8435L21.3978 23.9011V24.8697Z" fill="#000000" class="bmwfcol"/><path d="M17.1798 17.1798C18.3713 15.9883 20.0489 15.335 22 15.335C23.9511 15.335 25.6287 15.9883 26.8202 17.1798C28.0117 18.3713 28.665 20.0489 28.665 22C28.665 23.9511 28.0117 25.6287 26.8202 26.8202C25.6287 28.0117 23.9511 28.665 22 28.665C20.0489 28.665 18.3713 28.0117 17.1798 26.8202C15.9883 25.6287 15.335 23.9511 15.335 22C15.335 20.0489 15.9883 18.3713 17.1798 17.1798ZM18.1202 18.1202C17.2117 19.0287 16.665 20.3511 16.665 22C16.665 23.6489 17.2117 24.9713 18.1202 25.8798C19.0287 26.7883 20.3511 27.335 22 27.335C23.6489 27.335 24.9713 26.7883 25.8798 25.8798C26.7883 24.9713 27.335 23.6489 27.335 22C27.335 20.3511 26.7883 19.0287 25.8798 18.1202C24.9713 17.2117 23.6489 16.665 22 16.665C20.3511 16.665 19.0287 17.2117 18.1202 18.1202Z" fill="#000000" class="bmwfcol"/><title>mot_12_lt_48</title></svg>