<svg width="48" height="48" viewBox="0 0 32 32" xmlns="http://www.w3.org/2000/svg"><path d="M18.6651 3.66472H20.0001V2.33472H13.0001V3.66472H14.3351V4.84935C13.681 4.87924 13.0956 4.95756 12.6284 5.10217C12.066 5.27627 11.3351 5.66726 11.3351 6.49994V6.83494H9.83506V9.33502H8.66508L8.66508 6.00002H7.33508V14L8.66508 14V10.665H9.83506V13.1649H12.4874L12.5099 13.2516C12.5831 13.5339 12.6484 13.7854 12.709 13.9942C12.8083 14.3362 12.9227 14.6695 13.1061 14.9396C13.3141 15.2461 13.5907 15.4447 13.9439 15.5518C14.2573 15.6468 14.6187 15.6649 15.0001 15.6649H19.0001C19.3814 15.6649 19.7428 15.6468 20.0563 15.5518C20.4094 15.4447 20.686 15.2461 20.8941 14.9396C21.0775 14.6695 21.1918 14.3362 21.2911 13.9942C21.3517 13.7855 21.417 13.5338 21.4903 13.2516L21.5128 13.1649H23.6651L23.6651 12.1649H24.8351L24.8351 13.1649H26.0428L26.2136 12.7565C26.4818 12.115 26.6323 11.6772 26.7042 11.2139C26.7665 10.8128 26.766 10.4079 26.7652 9.88069L26.7651 9.69994L26.7652 9.5176C26.766 8.9973 26.7666 8.61093 26.7031 8.22905C26.63 7.78912 26.4773 7.3739 26.2136 6.74337L26.0428 6.33494H24.8351L24.8351 7.33494H23.6651V6.33494H21.6551C21.5657 5.6147 20.8956 5.26434 20.3717 5.10217C19.9045 4.95756 19.3192 4.87924 18.6651 4.84935V3.66472ZM17.3351 3.66472V6.16494H18.0001C18.8782 6.16494 19.5491 6.23982 19.9784 6.3727C20.2105 6.44452 20.3024 6.50685 20.3351 6.53815V7.66494H22.3351V8.66494H25.4178C25.4354 8.87757 25.4353 9.13434 25.4351 9.55493L25.4351 9.85002C25.4354 10.3086 25.4355 10.5898 25.4119 10.8349H22.3351L22.3351 11.8349H20.4898L20.3577 12.3278C20.2954 12.5606 20.2422 12.7655 20.1949 12.9482C20.1268 13.2108 20.0703 13.4289 20.0138 13.6234C19.9178 13.9541 19.8499 14.1098 19.7937 14.1926C19.7621 14.2391 19.7418 14.2574 19.6705 14.279C19.5594 14.3126 19.3687 14.3349 19.0001 14.3349H15.0001C14.6314 14.3349 14.4407 14.3126 14.3297 14.279C14.2583 14.2574 14.238 14.2391 14.2064 14.1926C14.1502 14.1098 14.0823 13.9541 13.9863 13.6234C13.9299 13.4289 13.8733 13.2109 13.8052 12.9482C13.7579 12.7654 13.7049 12.5609 13.6424 12.3278L13.5103 11.8349H11.1651V8.16494H12.6651V6.53815C12.6977 6.50685 12.7897 6.44452 13.0217 6.3727C13.451 6.23982 14.1219 6.16494 15.0001 6.16494H15.6651V3.66472H17.3351ZM20.3507 6.55961C20.3496 6.55991 20.3455 6.55533 20.3417 6.54497C20.35 6.55412 20.3519 6.5593 20.3507 6.55961ZM12.6494 6.55961C12.6482 6.5593 12.6501 6.55412 12.6584 6.54495C12.6547 6.55533 12.6505 6.55991 12.6494 6.55961Z" fill="#000000" class="bmwfcol"/><path d="M29.4704 16.5297C29.1821 16.2413 28.7919 15.9206 28.2502 15.7165C27.7038 15.5107 27.0498 15.4409 26.2581 15.5824C24.8326 15.8371 22.9341 16.7816 20.2868 18.9045C20.2579 18.8701 20.2275 18.8368 20.1953 18.8046C19.8787 18.4882 19.4511 18.3349 19 18.3349L14.0878 18.3349L10.3558 17.3349L10.2055 17.3349C9.6195 17.3345 9.13111 17.3341 8.56144 17.6827C8.29789 17.844 8.03096 18.0692 7.72213 18.3577C7.41277 18.6467 7.03122 19.0283 6.53908 19.5204L2.05957 23.9999L7.72457 29.6649H9.27547L11.2755 27.6649H15.0196C16.003 27.6649 16.7675 27.6649 17.3788 27.6328C17.996 27.6003 18.5023 27.5335 18.9604 27.3808C19.8611 27.0806 20.4671 26.4742 21.3805 25.5602L29.9408 16.9999L29.4704 16.5297ZM19.255 19.7452C19.2885 19.7788 19.3352 19.8511 19.3352 19.9998L19.3351 20.721C18.4746 21.5508 17.8598 21.9291 17.2898 22.1191C16.6607 22.3288 16.0238 22.3349 15.0003 22.3349H11V23.6649L15.0598 23.6649C16.0119 23.6651 16.8574 23.6652 17.7105 23.3808C18.5983 23.0848 19.4344 22.506 20.4702 21.4702L20.665 21.2755L20.6652 20.3115C23.5039 17.9647 25.3248 17.1002 26.4921 16.8917C27.0753 16.7874 27.4838 16.8491 27.7813 16.9612C27.858 16.99 27.9304 17.0234 27.9991 17.0606L20.53 24.5297C19.4944 25.5654 19.11 25.929 18.5399 26.1191C18.2479 26.2164 17.8792 26.2746 17.3089 26.3046C16.7367 26.3347 16.0071 26.3349 15 26.3349H10.7246L8.72457 28.3349H8.27547L3.94047 23.9999L7.47025 20.4702C7.97361 19.9668 8.33922 19.6013 8.63005 19.3296C8.92335 19.0556 9.11069 18.9059 9.25566 18.8172C9.47236 18.6846 9.60188 18.6664 10.1811 18.665L13.9127 19.6649L19 19.6649C19.1489 19.6649 19.2214 19.7117 19.255 19.7452Z" fill="#000000" class="bmwfcol"/><title>motor_on_hand_lt_48</title></svg>