<svg width="48" height="48" viewBox="0 0 32 32" xmlns="http://www.w3.org/2000/svg"><path d="M27.5 28.3487C26.3238 28.6637 25.2276 28.9536 24.2557 29.1242C23.2441 29.3017 22.2859 29.3665 21.4577 29.1511C20.5863 28.9245 19.8981 28.3976 19.452 27.5043C19.0424 26.684 18.8508 25.5842 18.836 24.1788C18.7286 23.9891 18.6137 23.7696 18.5599 23.5538C18.5197 23.3929 18.5045 23.2089 18.549 23.0116C18.5931 22.8162 18.6858 22.652 18.7958 22.5145C18.9969 22.2633 19.3072 22.0412 19.6605 21.8163C19.8597 21.6894 20.0968 21.5471 20.3735 21.3848C19.9894 21.2784 19.6592 21.1807 19.3826 21.0842C18.9165 20.9215 18.4772 20.7231 18.185 20.3861C17.8502 19.9998 17.8003 19.5499 17.8428 19.1245C17.8657 18.8947 17.9196 18.6356 17.9891 18.3536C17.3185 18.1679 16.7266 17.9807 16.3002 17.7292C16.001 17.5527 15.7221 17.312 15.5545 16.963C15.385 16.6096 15.3698 16.2295 15.441 15.8515C15.5743 15.1443 16.0493 14.2621 16.7677 13.1342C17.4706 12.0309 18.469 10.601 19.7736 8.73767C19.5033 7.78447 19.3423 7.08037 19.6242 6.11377C19.769 5.61713 20.0238 5.0668 20.3913 4.37655C20.7239 3.75194 21.1656 2.98221 21.7325 2H23.2682L23.0762 2.33257C22.4112 3.48422 21.9212 4.33318 21.5653 5.0016C21.2077 5.67318 21.0062 6.12531 20.901 6.4861C20.712 7.13419 20.8087 7.52192 21.1394 8.67644L21.2267 8.98124L21.0448 9.24096C19.6432 11.2427 18.6052 12.7252 17.8895 13.8488C17.1572 14.9984 16.8272 15.6775 16.748 16.0978C16.713 16.2836 16.7398 16.3588 16.7536 16.3875C16.7695 16.4206 16.8154 16.4889 16.9759 16.5836C17.3379 16.7971 17.9563 16.9692 18.9718 17.2418L19.6138 17.4141L19.4417 18.0562C19.2857 18.6381 19.1922 18.9951 19.1662 19.2564C19.1444 19.4751 19.1835 19.5092 19.19 19.5149C19.2355 19.5674 19.3775 19.6737 19.8208 19.8285C20.2462 19.9769 20.8359 20.1346 21.6717 20.3575L22.1653 20.4891V21.8839L21.8329 22.0759C21.1823 22.4516 20.7135 22.7224 20.3749 22.9381C20.0924 23.118 19.9479 23.231 19.8761 23.3005C19.906 23.3658 19.9642 23.4728 20.0767 23.6688L20.1651 23.8226V24C20.1651 25.4087 20.35 26.3255 20.6419 26.9101C20.9146 27.4562 21.2889 27.733 21.7924 27.8639C22.3392 28.0061 23.0685 27.9822 24.0257 27.8142C24.9753 27.6475 26.0694 27.3551 27.328 27.0179L27.5 26.9718V28.3487Z" fill="#000000" class="bmwfcol"/><path d="M23.5 10.1147C24.3631 9.88173 24.9441 9.72048 25.3379 9.59682L23 8.24704V6.71129L27.1654 9.11617L27.1652 9.50029L27.1654 9.52116C27.1669 9.6287 27.1709 9.92474 26.9778 10.1937C26.7925 10.4517 26.5007 10.5893 26.2433 10.6904C25.7799 10.8725 24.9497 11.1027 23.5 11.4922V10.1147Z" fill="#000000" class="bmwfcol"/><path d="M5.60473 11.1047C3.18824 13.5212 1.83496 16.9488 1.83496 21C1.83496 25.0511 3.18824 28.4787 5.60473 30.8952L6.54523 29.9548C4.41172 27.8213 3.16496 24.7488 3.16496 21C3.16496 17.2511 4.41168 14.1787 6.54519 12.0452L5.60473 11.1047Z" fill="#000000" class="bmwfcol"/><path d="M8.50473 14.0047C6.78824 15.7212 5.83496 18.1488 5.83496 21C5.83496 23.8511 6.78824 26.2787 8.50473 27.9952L9.44523 27.0548C8.01172 25.6213 7.16496 23.5488 7.16496 21C7.16496 18.4511 8.01168 16.3787 9.44519 14.9452L8.50473 14.0047Z" fill="#000000" class="bmwfcol"/><path d="M11.4047 16.9047C10.3882 17.9212 9.83496 19.3488 9.83496 21C9.83496 22.6511 10.3882 24.0787 11.4047 25.0952L12.3452 24.1548C11.6117 23.4213 11.165 22.3488 11.165 21C11.165 19.6511 11.6117 18.5787 12.3452 17.8452L11.4047 16.9047Z" fill="#000000" class="bmwfcol"/><title>natural-language-assistant_lt_48</title></svg>