<svg width="48" height="48" viewBox="0 0 32 32" xmlns="http://www.w3.org/2000/svg"><path d="M7.77116 7.77068C5.81266 9.72918 4.66594 12.5516 4.66594 16.0004C4.66594 17.8351 4.99043 19.4924 5.58899 20.9368L4.5252 21.8258C3.74908 20.1188 3.33594 18.1542 3.33594 16.0004C3.33594 12.2493 4.58921 9.07172 6.83071 6.83022C9.07221 4.58872 12.2498 3.33545 16.0009 3.33545C19.7521 3.33545 22.9297 4.58873 25.1712 6.83022C27.4127 9.07172 28.6659 12.2493 28.6659 16.0004C28.6659 19.7516 27.4127 22.9292 25.1712 25.1707C23.5366 26.8052 21.4044 27.9142 18.9149 28.395L18.9122 27.0386C21.0559 26.5796 22.8561 25.6049 24.2307 24.2302C26.1892 22.2717 27.3359 19.4493 27.3359 16.0004C27.3359 12.5516 26.1892 9.72918 24.2307 7.77068C22.2722 5.81217 19.4498 4.66545 16.0009 4.66545C12.5521 4.66545 9.72967 5.81217 7.77116 7.77068Z" fill="#000000" class="bmwfcol"/><path d="M17.0534 15.1804L15.9528 14.6672L5.69144 23.2425L6.17853 24.5808L12.2344 24.0781L15.7419 29.0403L17.0802 28.5532L17.0534 15.1804ZM12.8817 22.6898L7.93563 23.1004L15.7262 16.5898L15.7466 26.7426L12.8817 22.6898Z" fill="#000000" class="bmwfcol"/><title>navigation_arrow_in_circle_lt_48</title></svg>