<svg width="48" height="48" viewBox="0 0 32 32" xmlns="http://www.w3.org/2000/svg"><path d="M23.9697 4.97024L19.9995 8.94046L17.5293 6.47024L18.4697 5.52979L19.9995 7.05956L23.0293 4.02979L23.9697 4.97024Z" fill="#000000" class="bmwfcol"/><path d="M10.999 8.33496C9.75743 8.33496 8.55043 8.58904 7.66238 9.44537C6.77115 10.3048 6.33398 11.6414 6.33398 13.5C6.33398 15.3585 6.77115 16.6951 7.66238 17.5546C8.55043 18.4109 9.75743 18.665 10.999 18.665C12.2405 18.665 13.4475 18.4109 14.3356 17.5546C15.2268 16.6951 15.664 15.3585 15.664 13.5C15.664 11.6414 15.2268 10.3048 14.3356 9.44537C13.4475 8.58904 12.2405 8.33496 10.999 8.33496ZM7.66398 13.5C7.66398 11.8228 8.06015 10.9094 8.58558 10.4028C9.11421 9.89302 9.9072 9.66496 10.999 9.66496C12.0908 9.66496 12.8838 9.89302 13.4124 10.4028C13.9378 10.9094 14.334 11.8228 14.334 13.5C14.334 15.1771 13.9378 16.0905 13.4124 16.5972C12.8838 17.1069 12.0908 17.335 10.999 17.335C9.9072 17.335 9.11421 17.1069 8.58558 16.5972C8.06015 16.0905 7.66398 15.1771 7.66398 13.5Z" fill="#000000" class="bmwfcol"/><path d="M1.57617 26H2.95309L3.04116 25.6713C3.64592 23.4035 4.11415 22.5811 4.99579 22.1634C5.47555 21.9362 6.13483 21.8023 7.12729 21.7337C8.11629 21.6653 9.36467 21.665 10.9986 21.665C11.9421 21.665 12.757 21.6651 13.4676 21.6783C13.9877 21.6881 14.452 21.7048 14.87 21.7337C15.8624 21.8023 16.5217 21.9362 17.0015 22.1634C17.7006 22.4946 18.1399 23.0808 18.5934 24.4401C18.7118 24.795 18.8311 25.2026 18.9563 25.6721L19.0442 26H20.4211L20.241 25.3278C19.6458 23.0961 19.064 21.6688 17.5708 20.9615C16.8631 20.6262 16.0036 20.4789 14.9617 20.4069C13.9216 20.335 12.6276 20.335 11.0229 20.335C9.41815 20.335 8.07566 20.335 7.03557 20.4069C5.99365 20.4789 5.13418 20.6262 4.42644 20.9615C2.93316 21.6688 2.35127 23.0967 1.75607 25.3286L1.57617 26Z" fill="#000000" class="bmwfcol"/><path d="M19.9995 14.9405L23.9697 10.9702L23.0293 10.0298L19.9995 13.0596L18.4697 11.5298L17.5293 12.4702L19.9995 14.9405Z" fill="#000000" class="bmwfcol"/><path d="M29.998 7.66496H24.998V6.33496H29.998V7.66496Z" fill="#000000" class="bmwfcol"/><path d="M24.998 13.665H29.998V12.335H24.998V13.665Z" fill="#000000" class="bmwfcol"/><title>need-analyzer_lt_48</title></svg>