<svg width="48" height="48" viewBox="0 0 32 32" xmlns="http://www.w3.org/2000/svg"><path d="M16 10.335C14.935 10.335 14.0025 10.6677 13.335 11.3351C12.6676 12.0026 12.335 12.935 12.335 14C12.335 15.065 12.6676 15.9975 13.335 16.6649C14.0025 17.3324 14.935 17.665 16 17.665C17.0649 17.665 17.9974 17.3324 18.6649 16.6649C19.3323 15.9975 19.665 15.065 19.665 14C19.665 12.935 19.3323 12.0026 18.6649 11.3351C17.9974 10.6677 17.0649 10.335 16 10.335ZM13.665 14C13.665 13.2125 13.9061 12.645 14.2755 12.2756C14.6449 11.9061 15.2124 11.665 16 11.665C16.7875 11.665 17.355 11.9061 17.7244 12.2756C18.0938 12.645 18.335 13.2125 18.335 14C18.335 14.7875 18.0938 15.3551 17.7244 15.7245C17.355 16.0939 16.7875 16.335 16 16.335C15.2124 16.335 14.6449 16.0939 14.2755 15.7245C13.9061 15.3551 13.665 14.7875 13.665 14Z" fill="#000000" class="bmwfcol"/><path d="M16 19.835C15.3565 19.835 14.835 20.3566 14.835 21C14.835 21.6434 15.3565 22.165 16 22.165C16.6434 22.165 17.165 21.6434 17.165 21C17.165 20.3566 16.6434 19.835 16 19.835Z" fill="#000000" class="bmwfcol"/><path d="M5 13.0984V11.3622L16.0003 2.1319L27 11.3618V13.098L24.665 11.1386V29.665H7.33496V11.1391L5 13.0984ZM16.0003 3.86809L8.66496 10.0231V28.335H23.335V10.0226L16.0003 3.86809Z" fill="#000000" class="bmwfcol"/><title>nesting_box_lt_48</title></svg>