<svg width="48" height="48" viewBox="0 0 32 32" xmlns="http://www.w3.org/2000/svg"><path d="M22.665 10.335H9.33496V19.665H22.665V10.335ZM10.665 18.335V12.33L16 16.3313L21.335 12.33V18.335H10.665ZM16 14.6688L11.9949 11.665H20.005L16 14.6688Z" fill="#000000" class="bmwfcol"/><path d="M4.99996 5.33496C4.55302 5.33496 4.11981 5.47466 3.79723 5.79723C3.47466 6.11981 3.33496 6.55302 3.33496 6.99996V23C3.33496 23.4469 3.47466 23.8801 3.79723 24.2027C4.11981 24.5253 4.55302 24.665 4.99996 24.665H27C27.4469 24.665 27.8801 24.5253 28.2027 24.2027C28.5253 23.8801 28.665 23.4469 28.665 23V6.99996C28.665 6.55302 28.5253 6.11981 28.2027 5.79723C27.8801 5.47466 27.4469 5.33496 27 5.33496H4.99996ZM4.66496 6.99996C4.66496 6.8269 4.71526 6.76012 4.73769 6.73769C4.76012 6.71526 4.8269 6.66496 4.99996 6.66496H27C27.173 6.66496 27.2398 6.71526 27.2622 6.73769C27.2847 6.76012 27.335 6.8269 27.335 6.99996V23C27.335 23.173 27.2847 23.2398 27.2622 23.2622C27.2398 23.2847 27.173 23.335 27 23.335H4.99996C4.8269 23.335 4.76012 23.2847 4.73769 23.2622C4.71526 23.2398 4.66496 23.173 4.66496 23V6.99996Z" fill="#000000" class="bmwfcol"/><path d="M11 28.665H21V27.335H11V28.665Z" fill="#000000" class="bmwfcol"/><title>newsletter_lt_48</title></svg>