<svg width="48" height="48" viewBox="0 0 32 32" xmlns="http://www.w3.org/2000/svg"><path d="M21 28.665H11V27.335H21V28.665Z" fill="#000000" class="bmwfcol"/><path d="M3.79723 5.79723C4.11981 5.47466 4.55302 5.33496 4.99996 5.33496H27C27.4469 5.33496 27.8801 5.47466 28.2027 5.79723C28.5253 6.11981 28.665 6.55302 28.665 6.99996V23C28.665 23.4469 28.5253 23.8801 28.2027 24.2027C27.8801 24.5253 27.4469 24.665 27 24.665H4.99996C4.55302 24.665 4.11981 24.5253 3.79723 24.2027C3.47466 23.8801 3.33496 23.4469 3.33496 23V6.99996C3.33496 6.55302 3.47466 6.11981 3.79723 5.79723ZM4.73769 6.73769C4.71526 6.76012 4.66496 6.8269 4.66496 6.99996V23C4.66496 23.173 4.71526 23.2398 4.73769 23.2622C4.76012 23.2847 4.8269 23.335 4.99996 23.335H27C27.173 23.335 27.2398 23.2847 27.2622 23.2622C27.2847 23.2398 27.335 23.173 27.335 23V6.99996C27.335 6.8269 27.2847 6.76012 27.2622 6.73769C27.2398 6.71526 27.173 6.66496 27 6.66496H4.99996C4.8269 6.66496 4.76012 6.71526 4.73769 6.73769Z" fill="#000000" class="bmwfcol"/><path d="M22.031 13.3855L21.9805 13.4402C22.347 13.784 22.6971 14.1308 22.9757 14.4705C23.3257 14.8974 23.6649 15.4319 23.6649 16.0321V20.665H19.3349V19.665H12.6649V20.665H8.33492V16.0321C8.33492 15.4319 8.67413 14.8974 9.02416 14.4705C9.30236 14.1312 9.65201 13.7849 10.0179 13.4414L9.9652 13.3843C9.88001 13.3567 9.77186 13.3352 9.62539 13.3198C9.32195 13.2879 8.93251 13.2886 8.3443 13.2895C8.23647 13.2897 8.12184 13.2899 7.99996 13.2899V11.9599C8.11233 11.9599 8.22122 11.9597 8.32668 11.9594C8.90739 11.9582 9.38395 11.9571 9.76421 11.9971C10.1186 12.0342 10.4373 12.1104 10.7332 12.2727C10.9401 11.8313 11.1265 11.4532 11.3072 11.1358C11.6058 10.611 11.9247 10.1847 12.3642 9.88471C12.8094 9.58085 13.31 9.45293 13.8823 9.39288C14.4341 9.33498 15.1923 9.33499 16.0364 9.335C16.8804 9.33499 17.5658 9.33498 18.1176 9.39288C18.6899 9.45293 19.1905 9.58085 19.6357 9.88472C20.0752 10.1847 20.3941 10.611 20.6927 11.1358C20.8733 11.4532 21.0598 11.8314 21.2667 12.2728C21.5626 12.1104 21.8814 12.0342 22.2357 11.9971C22.616 11.9571 23.0927 11.9582 23.6734 11.9594C23.7789 11.9597 23.8878 11.9599 24.0001 11.9599V13.2899C23.8782 13.2899 23.7637 13.2897 23.6558 13.2895C23.0676 13.2886 22.678 13.2879 22.3745 13.3198C22.2259 13.3354 22.1167 13.3573 22.031 13.3855ZM11.9852 12.7359C12.6684 12.7029 13.581 12.7052 14.7781 12.7082C15.1564 12.7091 15.5632 12.7101 15.9999 12.7101C16.4367 12.7101 16.8434 12.7091 17.2216 12.7082C18.4192 12.7052 19.3318 12.7029 20.0147 12.7359C19.8366 12.3588 19.6829 12.0504 19.5367 11.7936C19.2797 11.3419 19.0823 11.1172 18.8859 10.9832C18.6953 10.8531 18.4404 10.7641 17.9788 10.7156C17.5045 10.6659 16.8892 10.665 15.9999 10.665C15.1107 10.665 14.4953 10.6659 14.0211 10.7156C13.5595 10.7641 13.3046 10.8531 13.1139 10.9832C12.9176 11.1172 12.7202 11.3419 12.4631 11.7936C12.3169 12.0504 12.1632 12.3587 11.9852 12.7359ZM20.7877 14.1477C20.5938 14.1111 20.3347 14.0839 19.9839 14.066C19.3358 14.0331 18.4634 14.0352 17.2581 14.0382C16.8739 14.0391 16.4554 14.0401 15.9999 14.0401C15.5447 14.0401 15.1269 14.0391 14.7428 14.0382C13.5373 14.0352 12.6633 14.0331 12.0146 14.066C11.6651 14.0838 11.4065 14.1109 11.2127 14.1472C10.7391 14.5831 10.3387 14.9649 10.0527 15.3137C9.74143 15.6934 9.66492 15.9183 9.66492 16.0321V19.335H11.3349V18.335H20.6649V19.335H22.3349V16.0321C22.3349 15.9183 22.2584 15.6934 21.9472 15.3137C21.6612 14.965 21.2611 14.5835 20.7877 14.1477Z" fill="#000000" class="bmwfcol"/><title>newsletter-car_lt_48</title></svg>