<svg width="48" height="48" viewBox="0 0 32 32" xmlns="http://www.w3.org/2000/svg"><path d="M24 14.665H12V13.335H24V14.665Z" fill="#000000" class="bmwfcol"/><path d="M12 18.665H24V17.335H12V18.665Z" fill="#000000" class="bmwfcol"/><path d="M6.33496 6.33496H29.665V23C29.665 23.7511 29.4117 24.4287 28.9202 24.9202C28.4287 25.4117 27.7511 25.665 27 25.665H4.99996C4.24884 25.665 3.57123 25.4117 3.07973 24.9202C2.58824 24.4287 2.33496 23.7511 2.33496 23V10.335H3.66496V23C3.66496 23.4488 3.81169 23.7712 4.02019 23.9797C4.22869 24.1882 4.55108 24.335 4.99996 24.335C5.44884 24.335 5.77123 24.1882 5.97973 23.9797C6.18824 23.7712 6.33496 23.4488 6.33496 23V6.33496ZM7.35103 24.335H27C27.4488 24.335 27.7712 24.1882 27.9797 23.9797C28.1882 23.7712 28.335 23.4488 28.335 23V7.66496H7.66496V23C7.66496 23.4859 7.55896 23.9411 7.35103 24.335Z" fill="#000000" class="bmwfcol"/><title>newspaper_lt_48</title></svg>