<svg width="48" height="48" viewBox="0 0 32 32" xmlns="http://www.w3.org/2000/svg"><path d="M16.3143 5.99992L2.31015 25.9999H0.686523L14.6907 5.99992H16.3143Z" fill="#000000" class="bmwfcol"/><path d="M16.4512 18.9999L14.7383 25.9999H13.3691L15.082 18.9999H16.4512Z" fill="#000000" class="bmwfcol"/><path d="M18.1641 11.9999L16.9406 16.9999H15.5713L16.7948 11.9999H18.1641Z" fill="#000000" class="bmwfcol"/><path d="M19.6323 5.99992L18.6535 9.99992H17.2842L18.263 5.99992H19.6323Z" fill="#000000" class="bmwfcol"/><path d="M23.5097 5.99992L28.8687 25.9999H27.4918L22.1328 5.99992H23.5097Z" fill="#000000" class="bmwfcol"/><path d="M3.86427 2.33496H5.2721L5.05828 3.16572C4.98626 3.44554 4.94777 3.73951 4.94777 4.04344C4.94777 5.98136 6.51877 7.55235 8.45669 7.55235C8.76062 7.55235 9.05459 7.51386 9.33441 7.44184L10.1652 7.22802V8.63584L10.1095 8.76324C9.36305 10.4701 7.65884 11.665 5.67408 11.665C3.00162 11.665 0.835163 9.49851 0.835163 6.82605C0.835163 4.84129 2.03 3.13708 3.73687 2.39067L3.86427 2.33496ZM3.61816 3.98204C2.73719 4.62003 2.16516 5.65673 2.16516 6.82605C2.16516 8.76397 3.73616 10.335 5.67408 10.335C6.8434 10.335 7.8801 9.76293 8.51809 8.88197C8.49765 8.88222 8.53858 8.88197 8.51809 8.88197C5.84563 8.88197 3.61816 6.6545 3.61816 3.98204C3.6179 4.00248 3.61816 3.96154 3.61816 3.98204Z" fill="#000000" class="bmwfcol"/><title>night-vision_lt_48</title></svg>