<svg width="48" height="48" viewBox="0 0 32 32" xmlns="http://www.w3.org/2000/svg"><path d="M28.665 3.33496V18C28.665 19.2096 28.6737 20.0936 28.375 20.915C28.0702 21.7531 27.473 22.4684 26.4707 23.4707L23.4707 26.4707C22.4684 27.473 21.7531 28.0702 20.915 28.375C20.0936 28.6737 19.2096 28.665 18 28.665H3.33496V3.33496H28.665ZM4.66504 4.66504V27.335H18C18.8416 27.335 19.3554 27.1521 19.6904 26.7646C20.0504 26.3482 20.335 25.5493 20.335 24V20.335H24C25.5493 20.335 26.3482 20.0504 26.7646 19.6904C27.1521 19.3554 27.335 18.8416 27.335 18V4.66504H4.66504ZM26.6699 21.2627C25.966 21.5383 25.0796 21.665 24 21.665H21.665V24C21.665 25.0796 21.5383 25.966 21.2627 26.6699C21.6006 26.4177 22.0007 26.0579 22.5293 25.5293L25.5293 22.5293C26.0579 22.0007 26.4177 21.6006 26.6699 21.2627Z" fill="#000000" class="bmwfcol"/><title>note_lt_48</title></svg>