<svg width="48" height="48" viewBox="0 0 32 32" xmlns="http://www.w3.org/2000/svg"><path d="M14.335 5.33496H9.66496V2H8.33496V5.33496H4.33496V26C4.33496 26.7569 4.56966 27.4401 5.06473 27.9352C5.55981 28.4303 6.24302 28.665 6.99996 28.665H23C23.7569 28.665 24.4401 28.4303 24.9352 27.9352C25.4303 27.4401 25.665 26.7569 25.665 26V18.3969L24.335 19.7269V26C24.335 26.483 24.1897 26.7998 23.9947 26.9947C23.7998 27.1897 23.483 27.335 23 27.335H6.99996C6.5169 27.335 6.20012 27.1897 6.00519 26.9947C5.81026 26.7998 5.66496 26.483 5.66496 26V6.66496H23.2735L23.9691 5.96936C24.1873 5.75116 24.4604 5.52269 24.7947 5.33496H21.665V2H20.335V5.33496H15.665V2H14.335V5.33496Z" fill="#000000" class="bmwfcol"/><path d="M19.6035 10.335H8V11.665H18.2735L19.6035 10.335Z" fill="#000000" class="bmwfcol"/><path d="M8 14.335H15.6035L14.2735 15.665H8V14.335Z" fill="#000000" class="bmwfcol"/><path d="M11.835 18.335H8V19.665H11.835V18.335Z" fill="#000000" class="bmwfcol"/><path d="M11.835 22.335H8V23.665H11.835V22.335Z" fill="#000000" class="bmwfcol"/><path d="M13.335 23.6652V18.7248L25.0297 7.03C25.2668 6.79294 25.547 6.59109 25.8865 6.49126C26.2358 6.38852 26.5869 6.41172 26.9289 6.52567C27.5617 6.73657 28.2217 7.28153 28.9702 8.03002C29.7182 8.77807 30.2639 9.4375 30.4753 10.07C30.5895 10.412 30.6129 10.7632 30.5099 11.113C30.4099 11.4526 30.2076 11.7331 29.9702 11.9705L18.2754 23.6652H13.335ZM25.9702 7.97048L24.4401 9.50059L27.4996 12.5601L29.0298 11.03C29.1898 10.8699 29.2888 10.716 29.2138 10.4914C29.1121 10.187 28.7817 9.72246 28.0297 8.97046C27.2782 8.2189 26.8131 7.88899 26.5084 7.78746C26.2841 7.71271 26.1302 7.81045 25.9702 7.97048ZM14.665 19.2757V22.3352H17.7245L26.5591 13.5005L23.4996 10.441L14.665 19.2757Z" fill="#000000" class="bmwfcol"/><title>notepad_lt_48</title></svg>