<svg width="48" height="48" viewBox="0 0 32 32" xmlns="http://www.w3.org/2000/svg"><path d="M5.335 28.665V25.665L2 25.665V24.335H5.335L5.335 19.665H2V18.335H5.335L5.335 13.665H2V12.335H5.335L5.335 7.66496L2 7.66496V6.33496L5.335 6.33496V3.33496H24C24.7569 3.33496 25.4402 3.56966 25.9352 4.06473C26.4303 4.55981 26.665 5.24302 26.665 5.99996V6.10825C26.2952 6.06849 25.9059 6.09404 25.5098 6.21052C25.4501 6.22808 25.3919 6.24724 25.335 6.26784V5.99996C25.335 5.5169 25.1897 5.20012 24.9948 5.00519C24.7998 4.81026 24.4831 4.66496 24 4.66496L6.665 4.66496L6.665 27.335H24C24.4831 27.335 24.7998 27.1897 24.9948 26.9947C25.1897 26.7998 25.335 26.483 25.335 26V19.4935L26.665 18.1635V26C26.665 26.7569 26.4303 27.4401 25.9352 27.9352C25.4402 28.4303 24.7569 28.665 24 28.665L5.335 28.665Z" fill="#000000" class="bmwfcol"/><path d="M14.9697 7.97024L10.9995 11.9405L8.5293 9.47024L9.46975 8.52979L10.9995 10.0596L14.0293 7.02979L14.9697 7.97024Z" fill="#000000" class="bmwfcol"/><path d="M10.9995 17.9405L14.9697 13.9702L14.0293 13.0298L10.9995 16.0596L9.46975 14.5298L8.5293 15.4702L10.9995 17.9405Z" fill="#000000" class="bmwfcol"/><path d="M25.0307 8.03C25.2678 7.79294 25.548 7.59109 25.8874 7.49126C26.2368 7.38852 26.5879 7.41172 26.9298 7.52567C27.5627 7.73657 28.2227 8.28153 28.9712 9.03002C29.7192 9.77807 30.2649 10.4375 30.4762 11.07C30.5905 11.412 30.6139 11.7632 30.5109 12.113C30.4109 12.4526 30.2086 12.7331 29.9711 12.9705L18.2764 24.6652H13.3359V19.7248L25.0307 8.03ZM26.2627 8.76723C26.2037 8.78458 26.109 8.83267 25.9712 8.97048L24.441 10.5006L27.5005 13.5601L29.0307 12.03C29.1694 11.8914 29.2177 11.7963 29.2351 11.7373C29.2494 11.6884 29.2571 11.6179 29.2148 11.4914C29.1131 11.187 28.7827 10.7225 28.0307 9.97046C27.2792 9.2189 26.8141 8.88899 26.5094 8.78746C26.3826 8.7452 26.3117 8.7528 26.2627 8.76723ZM14.6659 20.2757V23.3352H17.7255L26.5601 14.5005L23.5006 11.441L14.6659 20.2757Z" fill="#000000" class="bmwfcol"/><title>notebook_with_checkmarks_lt_48</title></svg>