<svg width="48" height="48" viewBox="0 0 32 32" xmlns="http://www.w3.org/2000/svg"><path d="M21.9995 13.9405L30.4697 5.47024L29.5293 4.52979L21.9995 12.0596L18.4697 8.52979L17.5293 9.47024L21.9995 13.9405Z" fill="#000000" class="bmwfcol"/><path d="M2.83883 13.9284L2.18212 13.7524L0.837891 18.7692L7.33594 20.5104V25.665L18.0425 25.6651C18.5112 25.6652 18.972 25.6653 19.4663 25.5181C19.9823 25.3644 20.4853 25.0686 21.1183 24.567C22.3476 23.5929 24.2644 21.6772 27.9793 17.9623L28.8024 17.7418L29.5307 18.4702L30.4712 17.5299L29.2 16.2583L18.1583 19.2169L16.2764 17.335H13.6659V15.665H16V14.335H10V15.665H12.3359V17.335H8.6555C8.64353 17.0938 8.61689 16.8598 8.55773 16.6448C8.42603 16.1663 8.14771 15.8044 7.6909 15.5112C7.27413 15.2436 6.69632 15.0252 5.94064 14.7913C5.1763 14.5547 4.16318 14.2833 2.83883 13.9284ZM7.33513 17.9999L7.33594 19.1334L2.4668 17.8288L3.12254 15.3815C4.14499 15.6562 4.93335 15.8718 5.54739 16.0618C6.29577 16.2935 6.72067 16.4688 6.97239 16.6304C7.18405 16.7663 7.23998 16.869 7.2754 16.9977C7.32974 17.1952 7.33513 17.4661 7.33513 17.9999ZM17.7608 20.7003L25.4082 18.6512C22.7258 21.3276 21.2639 22.7547 20.2923 23.5246C19.721 23.9773 19.3718 24.1585 19.0867 24.2434C18.7945 24.3304 18.5178 24.335 18.0009 24.335L8.66594 24.335V18.665H15.7255L17.7608 20.7003Z" fill="#000000" class="bmwfcol"/><path d="M29.1478 23.8081C29.38 24.0582 29.6931 24.165 30.0009 24.165C30.3087 24.165 30.6219 24.0582 30.8541 23.8081C31.0809 23.5638 31.1659 23.2528 31.1659 22.9616C31.1659 22.7719 31.1153 22.5836 31.0726 22.4482C31.026 22.3 30.9655 22.1449 30.9086 22.0048C30.8771 21.9272 30.8475 21.8556 30.8203 21.7896C30.737 21.588 30.675 21.4382 30.6449 21.3267L30.5122 20.835H29.4897L29.3569 21.3267C29.3268 21.4382 29.2649 21.588 29.1816 21.7896C29.1543 21.8556 29.1248 21.9272 29.0933 22.0048C29.0364 22.1449 28.9759 22.3 28.9293 22.4482C28.8866 22.5836 28.8359 22.7719 28.8359 22.9616C28.8359 23.2528 28.9209 23.5638 29.1478 23.8081Z" fill="#000000" class="bmwfcol"/><title>oil-inclusive_lt_48</title></svg>