<svg width="48" height="48" viewBox="0 0 32 32" xmlns="http://www.w3.org/2000/svg"><path d="M16 6.66496H13.6659V8.33502H16.2764L17.1583 9.21692L28.2 6.2583L29.4712 7.52985L28.5307 8.47019L27.8024 7.74175L26.9793 7.96231C23.2644 11.6772 21.3476 13.5929 20.1183 14.567C19.4853 15.0686 18.9823 15.3644 18.4663 15.5181C17.972 15.6653 17.5112 15.6652 17.0425 15.665L8.33594 15.665V11.5106L2.77148 10.0196L3.98984 5.47266L4.63218 5.64477C6.88275 6.24781 8.13652 6.70089 8.8171 7.18199C9.18792 7.44413 9.43272 7.74321 9.55869 8.1093C9.58465 8.18475 9.60434 8.26044 9.61927 8.33502H12.3359V6.66496H10V5.33496H16V6.66496ZM8.33594 9.0004C8.33594 8.72635 8.32933 8.6242 8.30106 8.54204C8.28513 8.49575 8.24614 8.40714 8.04937 8.26804C7.63961 7.97838 6.77329 7.62194 4.92935 7.10509L4.4004 9.07918L8.33594 10.1337V9.0004ZM16.7608 10.7003L15.7255 9.66502H9.66594V14.335L17.0009 14.335C17.5178 14.335 17.7945 14.3304 18.0867 14.2434C18.3718 14.1585 18.721 13.9772 19.2923 13.5246C20.2639 12.7547 21.7258 11.3276 24.4082 8.65123L16.7608 10.7003Z" fill="#000000" class="bmwfcol"/><path d="M6.66398 19V27H5.33398V19H6.66398Z" fill="#000000" class="bmwfcol"/><path d="M9.99898 19.835C9.35557 19.835 8.83398 20.3565 8.83398 21C8.83398 21.6434 9.35557 22.165 9.99898 22.165C10.6424 22.165 11.164 21.6434 11.164 21C11.164 20.3565 10.6424 19.835 9.99898 19.835Z" fill="#000000" class="bmwfcol"/><path d="M8.83398 25C8.83398 24.3565 9.35557 23.835 9.99898 23.835C10.6424 23.835 11.164 24.3565 11.164 25C11.164 25.6434 10.6424 26.165 9.99898 26.165C9.35557 26.165 8.83398 25.6434 8.83398 25Z" fill="#000000" class="bmwfcol"/><path d="M13.999 19.835C13.3556 19.835 12.834 20.3565 12.834 21C12.834 21.6434 13.3556 22.165 13.999 22.165C14.6424 22.165 15.164 21.6434 15.164 21C15.164 20.3565 14.6424 19.835 13.999 19.835Z" fill="#000000" class="bmwfcol"/><path d="M12.834 25C12.834 24.3565 13.3556 23.835 13.999 23.835C14.6424 23.835 15.164 24.3565 15.164 25C15.164 25.6434 14.6424 26.165 13.999 26.165C13.3556 26.165 12.834 25.6434 12.834 25Z" fill="#000000" class="bmwfcol"/><path d="M17.999 19.835C17.3556 19.835 16.834 20.3565 16.834 21C16.834 21.6434 17.3556 22.165 17.999 22.165C18.6424 22.165 19.164 21.6434 19.164 21C19.164 20.3565 18.6424 19.835 17.999 19.835Z" fill="#000000" class="bmwfcol"/><path d="M16.834 25C16.834 24.3565 17.3556 23.835 17.999 23.835C18.6424 23.835 19.164 24.3565 19.164 25C19.164 25.6434 18.6424 26.165 17.999 26.165C17.3556 26.165 16.834 25.6434 16.834 25Z" fill="#000000" class="bmwfcol"/><path d="M21.999 19.835C21.3556 19.835 20.834 20.3565 20.834 21C20.834 21.6434 21.3556 22.165 21.999 22.165C22.6424 22.165 23.164 21.6434 23.164 21C23.164 20.3565 22.6424 19.835 21.999 19.835Z" fill="#000000" class="bmwfcol"/><path d="M20.834 25C20.834 24.3565 21.3556 23.835 21.999 23.835C22.6424 23.835 23.164 24.3565 23.164 25C23.164 25.6434 22.6424 26.165 21.999 26.165C21.3556 26.165 20.834 25.6434 20.834 25Z" fill="#000000" class="bmwfcol"/><path d="M26.664 27V19H25.334V27H26.664Z" fill="#000000" class="bmwfcol"/><path d="M29.0009 14.165C28.6931 14.165 28.38 14.0582 28.1478 13.8081C27.9209 13.5638 27.8359 13.2528 27.8359 12.9616C27.8359 12.7719 27.8866 12.5836 27.9293 12.4482C27.9759 12.3 28.0364 12.1449 28.0933 12.0048C28.1248 11.9272 28.1543 11.8556 28.1816 11.7896C28.2649 11.588 28.3268 11.4382 28.3569 11.3267L28.4897 10.835H29.5122L29.6449 11.3267C29.675 11.4382 29.7369 11.5879 29.8202 11.7896C29.8475 11.8556 29.8771 11.9272 29.9086 12.0048C29.9655 12.1449 30.026 12.3 30.0726 12.4482C30.1153 12.5836 30.1659 12.7719 30.1659 12.9616C30.1659 13.2528 30.0809 13.5638 29.8541 13.8081C29.6219 14.0582 29.3087 14.165 29.0009 14.165Z" fill="#000000" class="bmwfcol"/><title>oil-filter-service_lt_48</title></svg>