<svg width="48" height="48" viewBox="0 0 32 32" xmlns="http://www.w3.org/2000/svg"><path d="M2.18212 9.75293L2.83883 9.92889C4.16334 10.2838 5.17624 10.5552 5.94064 10.7918C6.69632 11.0257 7.27413 11.2441 7.6909 11.5116C8.14771 11.8049 8.42603 12.1667 8.55773 12.6453C8.61685 12.8601 8.6435 13.094 8.65548 13.335H12.3359V11.665H10V10.335H16V11.665H13.6659V13.335H16.2764L18.1583 15.2169L29.2 12.2583L30.4712 13.5299L29.5307 14.4702L28.8024 13.7418L27.9793 13.9623C24.2644 17.6772 22.3476 19.5929 21.1183 20.567C20.4853 21.0686 19.9823 21.3644 19.4663 21.5181C18.972 21.6653 18.5112 21.6652 18.0425 21.6651L7.33594 21.665V16.5108L0.837891 14.7697L2.18212 9.75293ZM7.33594 14.0004C7.33594 13.4666 7.32974 13.1957 7.2754 12.9982C7.23998 12.8695 7.18405 12.7667 6.97239 12.6309C6.72067 12.4693 6.29577 12.294 5.54739 12.0623C4.93335 11.8723 4.14499 11.6567 3.12254 11.382L2.4668 13.8292L7.33594 15.1339V14.0004ZM25.4082 14.6512L17.7608 16.7003L15.7255 14.665H8.66594V20.335L18.0009 20.335C18.5178 20.335 18.7945 20.3304 19.0867 20.2434C19.3718 20.1585 19.721 19.9773 20.2923 19.5246C21.2639 18.7547 22.7258 17.3276 25.4082 14.6512Z" fill="#000000" class="bmwfcol"/><path d="M30.0009 20.165C29.6931 20.165 29.38 20.0582 29.1478 19.8081C28.9209 19.5638 28.8359 19.2528 28.8359 18.9616C28.8359 18.7719 28.8866 18.5836 28.9293 18.4482C28.9759 18.3 29.0364 18.1449 29.0933 18.0048C29.1248 17.9272 29.1543 17.8556 29.1816 17.7896C29.2649 17.588 29.3268 17.4382 29.3569 17.3267L29.4897 16.835H30.5122L30.6449 17.3267C30.675 17.4382 30.7369 17.5879 30.8202 17.7896C30.8475 17.8556 30.8771 17.9272 30.9086 18.0048C30.9655 18.1449 31.026 18.3 31.0726 18.4482C31.1153 18.5836 31.1659 18.7719 31.1659 18.9616C31.1659 19.2528 31.0809 19.5638 30.8541 19.8081C30.6219 20.0582 30.3087 20.165 30.0009 20.165Z" fill="#000000" class="bmwfcol"/><title>oil-service_lt_48</title></svg>