<svg width="48" height="48" viewBox="0 0 32 32" xmlns="http://www.w3.org/2000/svg"><path d="M12.375 2.375L14.8768 2.37505C15.4897 2.37296 16.0858 2.44846 16.5309 2.93401C16.9301 3.36957 17.0536 3.94699 17.0536 4.4443C17.0536 4.66803 17.0408 4.94675 16.9726 5.22216C16.904 5.49893 16.7691 5.81414 16.4941 6.06167C16.0508 6.46059 15.4968 6.57393 15.0443 6.60211C14.7879 6.61808 14.1947 6.62293 13.625 6.62439V8.40001H12.375V2.375ZM13.625 5.37434C14.1884 5.37286 14.7457 5.36828 14.9666 5.35453C15.2986 5.33385 15.519 5.25756 15.6579 5.13254C15.6859 5.10738 15.7273 5.05081 15.7592 4.92167C15.7916 4.79116 15.8036 4.62982 15.8036 4.4443C15.8036 4.1231 15.7203 3.89962 15.6094 3.77864C15.5446 3.70795 15.4309 3.62308 14.8801 3.62505L13.625 3.62503V5.37434Z" fill="#000000" class="bmwfcol"/><path d="M13.3115 29L15.5315 20.7149L9.72916 10.665H5.26531L8.80737 16.8H7.27162L3.72956 10.665H2V9.33496H8.96129L6.4585 5H7.99425L10.497 9.33496H26V10.665H18.2653L20.3842 14.335H26.3839L28.3845 17.8H26.8488L25.6161 15.665L14.1517 15.665L16.9587 20.5269L16.2063 23.335H20.7V24.665H15.85L14.6884 29H13.3115ZM18.8484 14.335L16.7296 10.665H11.2649L13.3838 14.335H18.8484Z" fill="#000000" class="bmwfcol"/><path d="M22.335 19.335L26.0323 19.335C27.0053 19.3317 27.8354 19.4561 28.4497 20.1262C29.0151 20.7431 29.2034 21.5783 29.2034 22.3331C29.2034 22.6839 29.183 23.1018 29.0827 23.5068C28.9821 23.9131 28.7899 24.351 28.4138 24.6896C27.7816 25.2585 26.9786 25.4313 26.2808 25.4748C25.8255 25.5032 24.6804 25.5094 23.665 25.5108V29H22.335V19.335ZM23.665 24.1807C24.6826 24.1793 25.7852 24.1731 26.1981 24.1474C26.7677 24.1119 27.2157 23.9785 27.5241 23.701C27.6373 23.599 27.73 23.4363 27.7917 23.187C27.8538 22.9363 27.8734 22.6433 27.8734 22.3331C27.8734 21.7656 27.7278 21.3071 27.4692 21.0249C27.2596 20.7963 26.9428 20.6618 26.0358 20.665L23.665 20.665V24.1807Z" fill="#000000" class="bmwfcol"/><path d="M8.35817 18.335L5.33496 18.335V26H6.66496V23.4337C7.4156 23.4322 8.22432 23.4266 8.56092 23.4057C9.1179 23.371 9.7819 23.2321 10.3095 22.7573C10.6313 22.4677 10.7918 22.0965 10.8744 21.763C10.9567 21.4309 10.9727 21.092 10.9727 20.8146C10.9727 20.2067 10.8214 19.5153 10.3476 18.9983C9.82491 18.4281 9.12228 18.3324 8.35817 18.335ZM8.47826 22.0782C8.18143 22.0967 7.4126 22.1021 6.66496 22.1036V19.665L8.3617 19.665C9.05975 19.6625 9.2491 19.7682 9.36711 19.897C9.53418 20.0793 9.64265 20.3941 9.64265 20.8146C9.64265 21.0514 9.6275 21.2654 9.58344 21.4433C9.53973 21.6197 9.47874 21.7157 9.41984 21.7687C9.21602 21.9521 8.907 22.0515 8.47826 22.0782Z" fill="#000000" class="bmwfcol"/><title>on-street-parking-information_lt_48</title></svg>