<svg width="48" height="48" viewBox="0 0 32 32" xmlns="http://www.w3.org/2000/svg"><path d="M19.7807 4.22019C19.9652 4.40469 20.1164 4.65733 20.2142 5H21.5787C21.451 4.32291 21.1775 3.73605 20.7212 3.27973C20.0525 2.61104 19.1034 2.33496 18.0009 2.33496H8.00094C6.89843 2.33496 5.94941 2.61104 5.28071 3.27973C4.61201 3.94843 4.33594 4.89745 4.33594 5.99996V26C4.33594 27.1025 4.61201 28.0515 5.28071 28.7202C5.94941 29.3889 6.89843 29.665 8.00094 29.665H18.0009C19.1034 29.665 20.0525 29.3889 20.7212 28.7202C21.3899 28.0515 21.6659 27.1025 21.6659 26V23.5H20.3359V24.335H5.66594V5.99996C5.66594 5.10247 5.88986 4.55149 6.22116 4.22019C6.55247 3.88888 7.10344 3.66496 8.00094 3.66496H18.0009C18.8984 3.66496 19.4494 3.88888 19.7807 4.22019ZM5.66594 25.665H20.3359V26C20.3359 26.8975 20.112 27.4484 19.7807 27.7797C19.4494 28.111 18.8984 28.335 18.0009 28.335H8.00094C7.10344 28.335 6.55247 28.111 6.22116 27.7797C5.88986 27.4484 5.66594 26.8975 5.66594 26V25.665Z" fill="#000000" class="bmwfcol"/><path d="M18.664 8.33496V6H17.334V8.33496H15.999C15.552 8.33496 15.1188 8.47466 14.7963 8.79724C14.4737 9.11981 14.334 9.55302 14.334 9.99996V20C14.334 20.4469 14.4737 20.8801 14.7963 21.2027C15.1188 21.5253 15.552 21.665 15.999 21.665H25.999C26.4459 21.665 26.8791 21.5253 27.2017 21.2027C27.5243 20.8801 27.664 20.4469 27.664 20V9.99996C27.664 9.55302 27.5243 9.11981 27.2017 8.79724C26.8791 8.47466 26.4459 8.33496 25.999 8.33496H24.664V6H23.334V8.33496H18.664ZM15.7367 9.73769C15.7591 9.71526 15.8259 9.66496 15.999 9.66496H25.999C26.172 9.66496 26.2388 9.71526 26.2613 9.73769C26.2837 9.76012 26.334 9.8269 26.334 9.99996V12.335H15.664V9.99996C15.664 9.8269 15.7143 9.76012 15.7367 9.73769ZM15.664 20V13.665H26.334V20C26.334 20.173 26.2837 20.2398 26.2613 20.2622C26.2388 20.2847 26.172 20.335 25.999 20.335H15.999C15.8259 20.335 15.7591 20.2847 15.7367 20.2622C15.7143 20.2398 15.664 20.173 15.664 20Z" fill="#000000" class="bmwfcol"/><title>online-appointment-scheduling_lt_48</title></svg>