<svg width="48" height="48" viewBox="0 0 32 32" xmlns="http://www.w3.org/2000/svg"><path d="M23.0904 9.07251C23.9655 9.93012 24.4993 11.0875 24.6322 12.4273L23.3257 12.7758C23.2587 11.6126 22.8299 10.6794 22.1595 10.0224C21.4268 9.30435 20.3528 8.86496 19 8.86496C18.9351 8.86496 18.871 8.86597 18.8074 8.86798L18.2758 8.88477L18.1426 8.36984C17.5603 6.11837 15.6715 4.66496 12.9285 4.66496C11.2787 4.66496 9.9519 5.1936 9.0334 6.0713C8.11631 6.94764 7.55552 8.22015 7.52354 9.80646L7.51368 10.2958L7.04354 10.4318C5.58948 10.8526 4.66496 12.0557 4.66496 13.8C4.66496 14.9048 5.03747 15.7756 5.64398 16.37C6.2517 16.9656 7.1471 17.335 8.28568 17.335H17.7V18.665H8.28568C6.85283 18.665 5.60536 18.1943 4.71308 17.3199C3.8196 16.4443 3.33496 15.2152 3.33496 13.8C3.33496 11.6819 4.42328 10.0218 6.21674 9.31041C6.34917 7.61538 7.01201 6.16328 8.11455 5.10973C9.31611 3.96154 10.9891 3.33496 12.9285 3.33496C16.0146 3.33496 18.3878 4.92806 19.2815 7.5403C20.8095 7.59856 22.1315 8.13282 23.0904 9.07251Z" fill="#000000" class="bmwfcol"/><path d="M28.4153 13.3356L29.665 13.3354V24.0005C29.6639 25.0712 29.2649 25.9059 28.5332 26.4495C27.8332 26.9697 26.9119 27.1611 25.9643 27.1611C24.5986 27.1611 23.3348 26.1443 23.335 24.5318C23.3351 23.4418 23.9551 22.6729 24.6927 22.2071C25.415 21.751 26.3007 21.5442 27.0363 21.5454H27.0552C27.3348 21.5454 27.6241 21.5453 27.9845 21.63C28.0962 21.6562 28.2119 21.6898 28.335 21.732V14.7341L20.665 16.7892V26.5005C20.665 27.5733 20.2659 28.4096 19.5332 28.9539C18.8332 29.4741 17.9119 29.6655 16.9643 29.6655C15.5986 29.6655 14.3348 28.6487 14.335 27.0362C14.3351 25.9462 14.9551 25.1773 15.6927 24.7115C16.415 24.2553 17.3007 24.0486 18.0362 24.0498H18.0552C18.3348 24.0498 18.6241 24.0497 18.9845 24.1344C19.0962 24.1606 19.2119 24.1942 19.335 24.2364V15.7687L28.4153 13.3356ZM28.335 23.1649C28.0347 23.0289 27.8353 22.9612 27.6803 22.9247C27.4792 22.8775 27.327 22.8754 27.0357 22.8754L27.0345 22.8754C26.5167 22.8745 25.8849 23.0272 25.4029 23.3316C24.9361 23.6265 24.665 24.0195 24.665 24.5319C24.6649 25.3346 25.2557 25.8311 25.9642 25.8311C26.762 25.8311 27.3586 25.6654 27.74 25.382C28.0889 25.1227 28.335 24.709 28.335 23.9961V23.1649ZM19.335 25.6693C19.0347 25.5333 18.8353 25.4656 18.6803 25.4291C18.4792 25.3819 18.327 25.3798 18.0357 25.3798L18.0345 25.3798C17.5167 25.3789 16.8849 25.5316 16.4029 25.836C15.9361 26.1309 15.665 26.5238 15.665 27.0363C15.6649 27.839 16.2557 28.3355 16.9642 28.3355C17.762 28.3355 18.3586 28.1698 18.74 27.8864C19.0889 27.6271 19.335 27.2134 19.335 26.5005V25.6693Z" fill="#000000" class="bmwfcol"/><title>online-entertainment_lt_48</title></svg>