<svg width="48" height="48" viewBox="0 0 32 32" xmlns="http://www.w3.org/2000/svg"><path d="M26.665 13.335V11C26.665 10.5531 26.5253 10.1199 26.2027 9.79728C25.8801 9.47471 25.4469 9.33501 25 9.33501H15.2754C14.6234 8.68329 14.1053 8.16887 13.6636 7.77134C13.1774 7.33375 12.7507 7.00687 12.2974 6.78022C11.4055 6.33429 10.5055 6.33456 9.12978 6.33499L4.99996 6.33501C4.55303 6.33501 4.11981 6.47472 3.79724 6.79729C3.47467 7.11986 3.33496 7.55307 3.33496 8.00001V26.665L26.5103 26.665L29.6421 14.9771C29.7513 14.5695 29.7114 14.1006 29.3642 13.7473C29.0499 13.4276 28.6081 13.335 28.2138 13.335L26.665 13.335ZM25.335 13.335L9.21352 13.335C8.36941 13.335 7.58918 13.7668 7.35712 14.6328L4.66496 24.6801L4.66496 8.00001C4.66496 7.82695 4.71526 7.76017 4.73769 7.73774C4.76012 7.71531 4.8269 7.66501 4.99996 7.66501L8.99996 7.66501C10.5504 7.66501 11.1222 7.67961 11.7026 7.96981C11.9993 8.11816 12.3226 8.35378 12.7739 8.75993C13.2266 9.16735 13.7747 9.7152 14.5297 10.4702L14.7245 10.665L25 10.665C25.173 10.665 25.2398 10.7153 25.2622 10.7377C25.2847 10.7602 25.335 10.8269 25.335 11V13.335ZM5.8664 25.335L8.64181 14.977C8.67982 14.8352 8.80962 14.665 9.21352 14.665L28.3465 14.6736L25.4898 25.335L5.8664 25.335Z" fill="#000000" class="bmwfcol"/><title>open_lt_48</title></svg>