<svg width="48" height="48" viewBox="0 0 32 32" xmlns="http://www.w3.org/2000/svg"><path d="M21.2207 7.2526C21.2048 7.3401 21.1875 7.42253 21.1688 7.5H22.5275L22.5294 7.48952C22.665 6.74019 22.665 5.961 22.665 5.51434V4.33503H20.4966C20.3886 4.0118 20.2532 3.70616 20.0541 3.44278C19.7303 3.01437 19.2907 2.76036 18.721 2.60769C18.1763 2.46173 17.4742 2.39813 16.5727 2.36668C15.6655 2.33502 14.5022 2.33502 13.0134 2.33502H12.9866C11.4978 2.33502 10.3344 2.33502 9.42722 2.36668C8.52573 2.39813 7.82366 2.46173 7.27898 2.60768C6.70922 2.76036 6.26964 3.01437 5.94581 3.44277C5.64758 3.83731 5.49222 4.32667 5.35792 4.82791L5.22203 5.33502H4V6.66502H5.92682L6.83503 27.4666V29.665H14.0186C14.5027 29.665 14.8925 29.665 15.2069 29.6485C15.5272 29.6316 15.8148 29.5961 16.0853 29.5059C16.338 29.4217 16.5515 29.2956 16.7529 29.1395C17.2536 29.4716 17.8542 29.665 18.5 29.665C20.248 29.665 21.665 28.248 21.665 26.5C21.665 25.0443 20.6823 23.8182 19.3441 23.4488L19.5659 19H18.2343L18.0162 23.3718C16.4979 23.6046 15.335 24.9165 15.335 26.5C15.335 27.1155 15.5107 27.6899 15.8146 28.1759C15.7632 28.2065 15.7161 28.227 15.6647 28.2441C15.5603 28.279 15.4104 28.3059 15.137 28.3203C14.8616 28.3348 14.5072 28.335 14 28.335H8.16503V27.4376L7.25808 6.66502H17V5.33502H6.59895L6.6426 5.17214C6.77624 4.67338 6.87983 4.41274 7.0068 4.24478C7.10816 4.11068 7.26004 3.98968 7.62323 3.89236C8.0115 3.78832 8.58388 3.72691 9.4736 3.69587C10.3549 3.66512 11.4952 3.66502 13 3.66502C14.5048 3.66502 15.6451 3.66512 16.5264 3.69587C17.4161 3.72691 17.9885 3.78832 18.3767 3.89236C18.7399 3.98968 18.8918 4.11067 18.9931 4.24477C19.1201 4.41273 19.2237 4.67338 19.3573 5.17214L19.4894 5.66503H21.3348C21.3332 6.10964 21.3206 6.70079 21.2207 7.2526ZM16.665 26.5C16.665 25.4866 17.4866 24.665 18.5 24.665C19.5135 24.665 20.335 25.4866 20.335 26.5C20.335 27.5135 19.5135 28.335 18.5 28.335C17.4866 28.335 16.665 27.5135 16.665 26.5Z" fill="#000000" class="bmwfcol"/><path d="M25.1874 8.88623C24.4396 8.88623 23.8541 9.01423 23.3894 9.25536C22.9224 9.49765 22.591 9.84721 22.3416 10.2664C22.135 10.6144 22.0028 11.0665 21.9213 11.5411C21.8395 12.0184 21.8066 12.5321 21.8066 13.0125C21.8066 14.1043 21.9749 15.2155 22.4034 15.9013C22.6499 16.298 22.9692 16.6079 23.4247 16.8152C23.8753 17.0203 24.4461 17.119 25.1874 17.119C25.8202 17.119 26.3447 17.035 26.7887 16.8399C27.236 16.6434 27.5893 16.3389 27.8859 15.9205C28.1413 15.5563 28.3078 15.0794 28.4113 14.5761C28.5153 14.0705 28.5583 13.5248 28.5583 13.0125C28.5583 12.4857 28.5153 11.9299 28.4088 11.4163C28.3027 10.9051 28.131 10.4227 27.8649 10.0532C27.5837 9.66068 27.2463 9.36462 26.8054 9.16927C26.3677 8.97534 25.8406 8.88623 25.1874 8.88623ZM23.5143 10.9611C23.8278 10.3849 24.4137 10.2107 25.1874 10.2107C25.9537 10.2107 26.4727 10.392 26.787 10.9016C26.9318 11.1342 27.0327 11.4512 27.0964 11.8225C27.1476 12.1212 27.1734 12.4469 27.1814 12.7778C27.1833 12.8559 27.1842 12.9342 27.1842 13.0125C27.1842 13.448 27.1572 13.8911 27.0798 14.2862C27.0021 14.6833 26.8768 15.0139 26.6932 15.241C26.3316 15.6705 25.8582 15.7945 25.1874 15.7945C24.4098 15.7945 23.8496 15.6729 23.5314 15.1386C23.4056 14.9165 23.3161 14.5975 23.2593 14.2191C23.2028 13.8431 23.1808 13.4238 23.1808 13.0125C23.1808 12.6004 23.2004 12.196 23.2532 11.8377L23.2537 11.8342C23.3069 11.4746 23.3915 11.1762 23.5123 10.9647L23.5143 10.9611Z" fill="#000000" class="bmwfcol"/><path d="M20.1653 9.05524H18.8111V16.95H20.1653V9.05524Z" fill="#000000" class="bmwfcol"/><path d="M14.4433 9.05524H11.0823V16.95H14.3737C15.3559 16.95 16.0183 16.7789 16.4983 16.378C17.0037 15.9727 17.2475 15.3517 17.2475 14.603C17.2475 14.0601 17.0984 13.619 16.8703 13.311L16.8696 13.31C16.715 13.104 16.5413 12.9467 16.3541 12.8087C16.4514 12.6534 16.5593 12.4799 16.6618 12.3115L16.6653 12.3053C16.8984 11.8898 17.0786 11.5048 17.0786 10.9848C17.0786 10.2957 16.7696 9.72112 16.2381 9.39315L16.2354 9.39152C15.7671 9.11282 15.211 9.05524 14.4433 9.05524ZM12.4366 12.2659V10.3697H14.3836C14.6346 10.3697 14.8432 10.3772 15.0156 10.3992C15.1889 10.4213 15.313 10.4566 15.4016 10.5046L15.405 10.5064C15.5205 10.5661 15.5898 10.6347 15.6333 10.7142C15.678 10.7961 15.7044 10.9066 15.7044 11.0643C15.7044 11.3258 15.6097 11.5348 15.4336 11.8381C15.3528 11.9754 15.2653 12.1195 15.176 12.2659H12.4366ZM12.4366 15.6355V13.5803H14.6023C15.0195 13.5803 15.2766 13.6304 15.4735 13.7641C15.6219 13.866 15.7183 13.979 15.7796 14.1083C15.8417 14.2395 15.8734 14.3996 15.8734 14.603C15.8734 14.9812 15.7674 15.2283 15.5563 15.3869C15.3409 15.5462 15.0173 15.6355 14.3836 15.6355H12.4366Z" fill="#000000" class="bmwfcol"/><title>organic_waste_bin_lt_48</title></svg>