<svg width="48" height="48" viewBox="0 0 32 32" xmlns="http://www.w3.org/2000/svg"><path d="M5.03026 4.00537H2.4707V10.0001H4.97832C5.71612 10.0001 6.22481 9.87178 6.59643 9.56157C6.98839 9.24702 7.1743 8.76713 7.1743 8.19733C7.1743 7.78298 7.06049 7.4427 6.88274 7.20272L6.88202 7.20177C6.77345 7.05701 6.65282 6.94388 6.52435 6.84542C6.59446 6.7333 6.66851 6.6223 6.73321 6.50696C6.90832 6.19481 7.04816 5.89799 7.04816 5.49645C7.04816 4.96612 6.8098 4.52006 6.3967 4.26516C5.98766 4.02168 5.49325 4.00537 5.03026 4.00537ZM3.58302 6.40203V5.08801H4.98574C5.1725 5.08801 5.32565 5.0936 5.45109 5.10959C5.57743 5.1257 5.66314 5.151 5.72151 5.18262C5.88375 5.26654 5.921 5.37858 5.921 5.55581C5.921 5.73665 5.85646 5.88265 5.72575 6.10783C5.67014 6.20234 5.61021 6.30126 5.54876 6.40203H3.58302ZM3.58302 8.91741V7.48467H5.14898C5.45785 7.48467 5.63685 7.52212 5.77084 7.61312C5.98154 7.75776 6.04714 7.9071 6.04714 8.19733C6.04714 8.46974 5.97137 8.63622 5.83081 8.74188C5.68343 8.85082 5.45561 8.91741 4.98574 8.91741H3.58302Z" fill="#000000" class="bmwfcol"/><path d="M9.49029 4.00537H8.16584V10.0001H9.27074V6.12487L10.4912 8.88705H11.4419L12.6624 6.12487V10.0001H13.7673V4.00537H12.4502L10.9703 7.34726L9.49029 4.00537Z" fill="#000000" class="bmwfcol"/><path d="M14.4633 4.00537H15.5988L16.4521 8.11789L17.3695 4.85125H18.4812L19.4049 8.11839L20.2519 4.00537H21.3799L20.1476 10.0001H18.8463L17.9224 6.72517L17.0049 10.0001H15.7036L14.4633 4.00537Z" fill="#000000" class="bmwfcol"/><path d="M25.0015 11.9407L30.4717 6.47048L29.5312 5.53003L25.0015 10.0598L22.9717 8.03003L22.0312 8.97048L25.0015 11.9407Z" fill="#000000" class="bmwfcol"/><path d="M6.83594 20.0002C6.83594 18.2522 8.25296 16.8352 10.0009 16.8352C11.7489 16.8352 13.1659 18.2522 13.1659 20.0002C13.1659 21.7482 11.7489 23.1652 10.0009 23.1652C8.25296 23.1652 6.83594 21.7482 6.83594 20.0002ZM10.0009 18.1652C8.98749 18.1652 8.16594 18.9868 8.16594 20.0002C8.16594 21.0136 8.98749 21.8352 10.0009 21.8352C11.0144 21.8352 11.8359 21.0136 11.8359 20.0002C11.8359 18.9868 11.0144 18.1652 10.0009 18.1652Z" fill="#000000" class="bmwfcol"/><path d="M9.64606 13.6955L8.60779 12.4595C7.55096 12.7138 6.58475 13.1138 5.65495 13.6839L5.79536 15.2914C5.61824 15.4497 5.45013 15.6178 5.29184 15.7949L3.68288 15.6539C3.11546 16.5812 2.71525 17.5475 2.46135 18.6085L3.69696 19.6458C3.68373 19.8828 3.68373 20.1203 3.69696 20.3572L2.46094 21.3955C2.71525 22.4523 3.11525 23.4185 3.68538 24.3483L5.29282 24.2079C5.45112 24.3851 5.61923 24.5532 5.79635 24.7114L5.65532 26.3204C6.58272 26.8878 7.54898 27.288 8.60992 27.5419L9.64726 26.3063C9.88422 26.3196 10.1217 26.3196 10.3587 26.3063L11.3969 27.5424C12.4538 27.288 13.42 26.888 14.3498 26.3179L14.2094 24.7104C14.3865 24.5522 14.5546 24.3841 14.7129 24.2069L16.3219 24.3479C16.8893 23.4205 17.2895 22.4543 17.5434 21.3934L16.3078 20.356C16.321 20.1191 16.321 19.8816 16.3078 19.6446L17.5438 18.6063C17.2886 17.5459 16.8876 16.5802 16.3193 15.6535L14.7119 15.7939C14.5536 15.6168 14.3855 15.4487 14.2084 15.2904L14.3494 13.6814C13.422 13.114 12.4558 12.7138 11.3948 12.4599L10.3575 13.6955C10.1205 13.6823 9.88302 13.6823 9.64606 13.6955ZM10.9251 15.0879L11.8755 13.9559C12.247 14.0705 12.6072 14.2194 12.9513 14.4005L12.8222 15.8738C13.3131 16.2643 13.7391 16.6907 14.1283 17.1799L15.601 17.0513C15.7826 17.3952 15.9319 17.7552 16.047 18.1267L14.9154 19.0772C14.986 19.7002 14.9858 20.3028 14.9154 20.9236L16.0474 21.874C15.9328 22.2456 15.7839 22.6057 15.6028 22.9498L14.1295 22.8207C13.739 23.3116 13.3126 23.7377 12.8234 24.1269L12.952 25.5996C12.6081 25.7811 12.2481 25.9304 11.8766 26.0456L10.9261 24.914C10.3031 24.9846 9.70051 24.9843 9.07966 24.9139L8.12928 26.046C7.7577 25.9313 7.39754 25.7825 7.05345 25.6013L7.18259 24.128C6.69165 23.7375 6.26559 23.3112 5.87638 22.8219L4.40369 22.9505C4.22214 22.6066 4.07286 22.2466 3.95774 21.8751L5.08933 20.9246C5.01874 20.3017 5.01899 19.699 5.08935 19.0782L3.95732 18.1278C4.07197 17.7562 4.22082 17.3961 4.40197 17.052L5.87525 17.1811C6.26578 16.6902 6.69212 16.2641 7.1814 15.8749L7.05276 14.4022C7.39667 14.2207 7.75668 14.0714 8.12814 13.9563L9.07869 15.0879C9.70163 15.0173 10.3042 15.0175 10.9251 15.0879Z" fill="#000000" class="bmwfcol"/><path d="M18.9499 22.3347C18.8337 22.7812 18.685 23.2146 18.5064 23.6321C18.6681 23.6539 18.8332 23.6652 19.0009 23.6652C19.9581 23.6652 20.8296 23.2982 21.4824 22.6973C21.6201 22.9323 21.742 23.1365 21.8517 23.3128C22.0705 23.6643 22.2672 23.9489 22.4736 24.1587C22.7217 24.4111 22.9976 24.5654 23.3292 24.6261C22.1962 25.6868 20.6742 26.3352 19.0009 26.3352C18.3089 26.3352 17.6428 26.2243 17.0195 26.0192C16.702 26.3889 16.3558 26.7333 15.9844 27.0488C16.9102 27.4456 17.9299 27.6652 19.0009 27.6652C21.4794 27.6652 23.683 26.4882 25.0832 24.6653H26.3135C27.1469 23.2246 27.6652 21.6819 27.6652 20.0003C27.6652 18.3186 27.1469 16.7759 26.3135 15.3353H25.0833C23.6831 13.5122 21.4795 12.3352 19.0009 12.3352C17.9299 12.3352 16.9103 12.5548 15.9846 12.9515C16.356 13.267 16.7022 13.6114 17.0196 13.9812C17.6429 13.7761 18.3089 13.6652 19.0009 13.6652C20.6743 13.6652 22.1963 14.3137 23.3293 15.3744C22.9975 15.4352 22.7215 15.5896 22.4733 15.8421C22.2669 16.052 22.0701 16.3368 21.8513 16.6884C21.7417 16.8645 21.6199 17.0685 21.4824 17.3031C20.8296 16.7022 19.9581 16.3352 19.0009 16.3352C18.8332 16.3352 18.6682 16.3465 18.5065 16.3683C18.6851 16.7858 18.8338 17.2192 18.9499 17.6658C20.2414 17.6381 21.3359 18.7078 21.3359 20.0002C21.3359 21.2839 20.2288 22.3549 18.9499 22.3347ZM22.6659 20.0002C22.6659 19.4579 22.5481 18.9431 22.3367 18.48C22.6032 18.0192 22.8093 17.6662 22.9804 17.3912C23.1929 17.0498 23.3253 16.8726 23.4217 16.7744C23.5698 16.6239 23.8061 16.6653 24.0002 16.6653H25.5351C26.0465 17.6652 26.3352 18.7982 26.3352 20.0003C26.3352 21.2023 26.0465 22.3353 25.5351 23.3353H24.0002C23.8063 23.3353 23.5698 23.3767 23.4219 23.2262C23.3255 23.1282 23.1932 22.9511 22.9809 22.61C22.8096 22.3349 22.6034 21.9817 22.3367 21.5204C22.5481 21.0573 22.6659 20.5425 22.6659 20.0002Z" fill="#000000" class="bmwfcol"/><title>original-bmw-parts_lt_48</title></svg>