<svg width="48" height="48" viewBox="0 0 32 32" xmlns="http://www.w3.org/2000/svg"><path d="M7.5929 13.7367C7.41499 14.0363 7.30533 14.4173 7.23877 14.8052C7.17152 15.1971 7.1449 15.6167 7.1449 16.0072C7.1449 16.8873 7.27916 17.8104 7.64383 18.3944C7.85384 18.7322 8.1294 19.0007 8.52259 19.1797C8.9083 19.3552 9.38737 19.4355 9.9921 19.4355C10.5103 19.4355 10.9514 19.3668 11.3306 19.2002C11.7148 19.0314 12.0164 18.7705 12.2666 18.4174C12.4865 18.104 12.6259 17.7001 12.7107 17.2875C12.7963 16.8713 12.8313 16.4246 12.8313 16.0072C12.8313 15.5784 12.7964 15.1234 12.7086 14.7005C12.6216 14.2812 12.4787 13.8739 12.2499 13.5559C12.0123 13.2243 11.7234 12.9696 11.3444 12.8016C10.9702 12.6358 10.527 12.563 9.9921 12.563C9.37774 12.563 8.88521 12.6681 8.4878 12.8743C8.08703 13.0822 7.80365 13.3824 7.5929 13.7367ZM9.9921 13.9033C10.5855 13.9033 10.9401 14.0433 11.1543 14.3907C11.2568 14.5553 11.3334 14.7893 11.3829 15.0778C11.4319 15.3632 11.4512 15.6834 11.4512 16.0072C11.4512 16.3511 11.4298 16.6961 11.3703 17.0003C11.3101 17.3074 11.2161 17.5463 11.09 17.7028C10.8396 17.9996 10.5116 18.0952 9.9921 18.0952C9.3749 18.0952 9.0001 17.9962 8.78687 17.6395C8.69883 17.4835 8.63069 17.2481 8.58632 16.9527C8.54247 16.6606 8.52498 16.3321 8.52498 16.0072C8.52498 15.681 8.5406 15.3645 8.58148 15.0867C8.62297 14.8048 8.68749 14.5846 8.77201 14.4367C8.98514 14.045 9.38745 13.9033 9.9921 13.9033Z" fill="#000000" class="bmwfcol"/><path d="M12.9863 4.33496C12.52 4.33496 12.1094 4.5614 11.8285 4.84223C11.5477 5.12307 11.3213 5.53368 11.3213 5.99996V9.33496H4.98629C4.53935 9.33496 4.10613 9.47466 3.78356 9.79724C3.46099 10.1198 3.32129 10.553 3.32129 11V21C3.32129 21.4469 3.46099 21.8801 3.78356 22.2027C4.10613 22.5253 4.53935 22.665 4.98629 22.665H9.32129V26C9.32129 26.4469 9.46099 26.8801 9.78356 27.2027C10.1061 27.5253 10.5393 27.665 10.9863 27.665H26.9863C27.4332 27.665 27.8664 27.5253 28.189 27.2027C28.5116 26.8801 28.6513 26.4469 28.6513 26V16.335H27.4686L26.6513 16.8068V5.99996C26.6513 5.53368 26.4248 5.12307 26.144 4.84223C25.8632 4.5614 25.4525 4.33496 24.9863 4.33496H12.9863ZM25.3213 17.5747L18.9865 21.2321L16.6513 19.8839V11C16.6513 10.553 16.5116 10.1198 16.189 9.79724C15.8664 9.47466 15.4332 9.33496 14.9863 9.33496H12.6513V5.99996C12.6513 5.96624 12.6748 5.87686 12.769 5.78269C12.8632 5.68852 12.9525 5.66496 12.9863 5.66496H24.9863C25.02 5.66496 25.1094 5.68852 25.2035 5.78269C25.2977 5.87686 25.3213 5.96624 25.3213 5.99996V17.5747ZM4.65129 11C4.65129 10.8269 4.70158 10.7601 4.72401 10.7377C4.74644 10.7153 4.81323 10.665 4.98629 10.665H14.9863C15.1593 10.665 15.2261 10.7153 15.2485 10.7377C15.271 10.7601 15.3213 10.8269 15.3213 11V20.9999C15.3213 21.1729 15.271 21.2398 15.2485 21.2622C15.2261 21.2847 15.1584 21.335 14.9853 21.335H4.98629C4.81323 21.335 4.74644 21.2847 4.72401 21.2622C4.70158 21.2398 4.65129 21.173 4.65129 21V11ZM14.9862 22.665C15.4331 22.665 15.8664 22.5253 16.189 22.2027C16.4143 21.9773 16.5504 21.6975 16.612 21.3969L25.165 26.335H10.9863C10.8132 26.335 10.7464 26.2847 10.724 26.2623C10.7016 26.2398 10.6513 26.173 10.6513 26V22.665H14.9862ZM27.3201 26.0435L20.3165 22L27.3213 17.9558V26C27.3213 26.0153 27.3209 26.0298 27.3201 26.0435Z" fill="#000000" class="bmwfcol"/><title>outlook_lt_48</title></svg>