<svg width="48" height="48" viewBox="0 0 32 32" xmlns="http://www.w3.org/2000/svg"><path d="M5.89996 4.33496C5.43485 4.33496 5.01249 4.52165 4.72143 4.88548C4.44443 5.23173 4.33496 5.6759 4.33496 6.12496V12.875C4.33496 13.324 4.44443 13.7682 4.72143 14.1144C5.01249 14.4783 5.43485 14.665 5.89996 14.665L13.1 14.665C13.5651 14.665 13.9874 14.4783 14.2785 14.1144C14.5555 13.7682 14.665 13.324 14.665 12.875V6.12496C14.665 5.6759 14.5555 5.23173 14.2785 4.88548C13.9874 4.52165 13.5651 4.33496 13.1 4.33496H5.89996ZM5.66496 6.12496C5.66496 5.95271 5.67731 5.66496 5.89996 5.66496H13.1C13.3226 5.66496 13.335 5.95271 13.335 6.12496V12.875C13.335 13.0472 13.3226 13.335 13.1 13.335L5.89996 13.335C5.67731 13.335 5.66496 13.0472 5.66496 12.875L5.66496 6.12496Z" fill="#000000" class="bmwfcol"/><path d="M18.9 4.33496C18.4348 4.33496 18.0125 4.52165 17.7214 4.88548C17.4444 5.23173 17.335 5.6759 17.335 6.12496L17.335 12.875C17.335 13.324 17.4444 13.7682 17.7214 14.1144C18.0125 14.4783 18.4348 14.665 18.9 14.665L26.1 14.665C26.5651 14.665 26.9874 14.4783 27.2785 14.1144C27.5555 13.7682 27.665 13.324 27.665 12.875V6.12496C27.665 5.6759 27.5555 5.23173 27.2785 4.88548C26.9874 4.52165 26.5651 4.33496 26.1 4.33496H18.9ZM18.665 6.12496C18.665 5.95271 18.6773 5.66496 18.9 5.66496H26.1C26.3226 5.66496 26.335 5.95271 26.335 6.12496V12.875C26.335 13.0472 26.3226 13.335 26.1 13.335L18.9 13.335C18.6773 13.335 18.665 13.0472 18.665 12.875L18.665 6.12496Z" fill="#000000" class="bmwfcol"/><path d="M4.72143 17.8855C5.01249 17.5217 5.43485 17.335 5.89996 17.335H13.1C13.5651 17.335 13.9874 17.5217 14.2785 17.8855C14.5555 18.2317 14.665 18.6759 14.665 19.125V25.875C14.665 26.324 14.5555 26.7682 14.2785 27.1144C13.9874 27.4783 13.5651 27.665 13.1 27.665L5.89996 27.665C5.43485 27.665 5.01249 27.4783 4.72143 27.1144C4.44443 26.7682 4.33496 26.324 4.33496 25.875V19.125C4.33496 18.6759 4.44443 18.2317 4.72143 17.8855ZM5.66496 19.125L5.66496 25.875C5.66496 26.0472 5.67731 26.335 5.89996 26.335L13.1 26.335C13.3226 26.335 13.335 26.0472 13.335 25.875V19.125C13.335 18.9527 13.3226 18.665 13.1 18.665H5.89996C5.67731 18.665 5.66496 18.9527 5.66496 19.125Z" fill="#000000" class="bmwfcol"/><path d="M18.9 17.335C18.4348 17.335 18.0125 17.5217 17.7214 17.8855C17.4444 18.2317 17.335 18.6759 17.335 19.125L17.335 25.875C17.335 26.324 17.4444 26.7682 17.7214 27.1144C18.0125 27.4783 18.4348 27.665 18.9 27.665L26.1 27.665C26.5651 27.665 26.9874 27.4783 27.2785 27.1144C27.5555 26.7682 27.665 26.324 27.665 25.875V19.125C27.665 18.6759 27.5555 18.2317 27.2785 17.8855C26.9874 17.5217 26.5651 17.335 26.1 17.335H18.9ZM18.665 19.125C18.665 18.9527 18.6773 18.665 18.9 18.665H26.1C26.3226 18.665 26.335 18.9527 26.335 19.125V25.875C26.335 26.0472 26.3226 26.335 26.1 26.335L18.9 26.335C18.6773 26.335 18.665 26.0472 18.665 25.875L18.665 19.125Z" fill="#000000" class="bmwfcol"/><title>overview_lt_48</title></svg>