<svg width="48" height="48" viewBox="0 0 32 32" xmlns="http://www.w3.org/2000/svg"><path d="M6.33595 2.33496H19.6659L19.666 7.1357C19.6661 10.0084 19.6662 11.7641 18.9221 13.4553C18.2847 14.9041 17.1164 16.2736 15.0967 18.335L21.9995 18.335V19.665L15.2766 19.665C14.6253 20.3174 14.2283 20.7259 13.9796 21.074C13.7412 21.4077 13.6659 21.6492 13.6659 22V26H12.3359V22C12.3359 21.3508 12.5106 20.8423 12.8973 20.301C13.0404 20.1006 13.216 19.8916 13.423 19.665L12.9995 19.665C11.981 19.665 11.3024 19.6676 10.6768 19.7927C10.0791 19.9122 9.50595 20.1505 8.75305 20.6717C7.37855 21.6233 5.51467 23.4331 2 26.9409V25.0629C4.91286 22.166 6.6507 20.5096 7.996 19.5782C8.8681 18.9744 9.60748 18.6502 10.416 18.4885C10.5985 18.452 10.7833 18.4242 10.9718 18.403C8.91116 16.3036 7.72422 14.9199 7.07976 13.4553C6.33565 11.7641 6.33576 10.0084 6.33594 7.1357L6.33595 2.33496ZM13.2253 18.335C15.8652 15.6884 17.0923 14.3116 17.7048 12.9196C18.109 12.0008 18.2545 11.0571 18.3067 9.66494C15.5444 9.66158 14.1305 9.13416 12.7664 8.6226C11.0977 7.9968 9.458 7.66496 7.66667 7.66496C7.67149 10.2679 7.72475 11.6188 8.29713 12.9196C8.9096 14.3116 10.1367 15.6884 12.7766 18.335H13.2253ZM18.3359 3.66496H7.66595V6.33496C9.62123 6.33496 11.4227 6.69826 13.2446 7.3815C14.5386 7.86675 15.7869 8.33488 18.3327 8.33496C18.3356 7.9256 18.3359 7.48262 18.3359 6.99996V3.66496Z" fill="#000000" class="bmwfcol"/><path d="M30 12.84V11.3042L24 14.7683V16.3041L30 12.84Z" fill="#000000" class="bmwfcol"/><path d="M30 18.335V19.665H24V18.335H30Z" fill="#000000" class="bmwfcol"/><path d="M30 26.6958L24 23.2317V21.696L30 25.1601V26.6958Z" fill="#000000" class="bmwfcol"/><title>paint-works_lt_48</title></svg>