<svg width="48" height="48" viewBox="0 0 32 32" xmlns="http://www.w3.org/2000/svg"><path d="M16 7.83496C15.3565 7.83496 14.835 8.35655 14.835 8.99996C14.835 9.64337 15.3565 10.165 16 10.165C16.6434 10.165 17.165 9.64337 17.165 8.99996C17.165 8.35655 16.6434 7.83496 16 7.83496Z" fill="#000000" class="bmwfcol"/><path d="M9.99996 11.335C9.35655 11.335 8.83496 11.8565 8.83496 12.5C8.83496 13.1434 9.35655 13.665 9.99996 13.665C10.6434 13.665 11.165 13.1434 11.165 12.5C11.165 11.8565 10.6434 11.335 9.99996 11.335Z" fill="#000000" class="bmwfcol"/><path d="M9.99996 18.335C9.35655 18.335 8.83496 18.8565 8.83496 19.5C8.83496 20.1434 9.35655 20.665 9.99996 20.665C10.6434 20.665 11.165 20.1434 11.165 19.5C11.165 18.8565 10.6434 18.335 9.99996 18.335Z" fill="#000000" class="bmwfcol"/><path d="M22 11.335C21.3565 11.335 20.835 11.8565 20.835 12.5C20.835 13.1434 21.3565 13.665 22 13.665C22.6434 13.665 23.165 13.1434 23.165 12.5C23.165 11.8565 22.6434 11.335 22 11.335Z" fill="#000000" class="bmwfcol"/><path d="M6.82973 6.82973C9.07123 4.58824 12.2488 3.33496 16 3.33496C19.7511 3.33496 22.9287 4.58824 25.1702 6.82973C27.4117 9.07123 28.665 12.2488 28.665 16C28.665 17.1148 28.5544 18.1793 28.3396 19.1844C28.1813 19.9251 27.8059 20.5596 27.2203 21.0043C26.6379 21.4465 25.8958 21.665 25.0606 21.665H21C20.1175 21.665 19.4619 21.6652 18.9428 21.6951C18.4229 21.7251 18.0942 21.7828 17.8537 21.8728C17.4528 22.0228 17.1859 22.2963 16.6652 23.1797L16.6651 25.0001C16.6651 26.1514 16.2701 27.1124 15.552 27.7318C14.8321 28.3527 13.8684 28.5593 12.883 28.3539C7.03763 27.135 3.33496 22.443 3.33496 16C3.33496 12.2488 4.58824 9.07123 6.82973 6.82973ZM7.77019 7.77019C5.81169 9.72869 4.66496 12.5511 4.66496 16C4.66496 21.863 7.9734 25.9715 13.1545 27.0519C13.791 27.1846 14.318 27.0398 14.6833 26.7247C15.0503 26.4081 15.3351 25.8487 15.3351 25.0001L15.3352 22.8218L15.4243 22.6675C15.9985 21.673 16.4745 20.9688 17.3875 20.6271C17.8151 20.4672 18.3011 20.3999 18.8663 20.3673C19.428 20.335 20.1216 20.335 20.9798 20.335H25.0606C25.6647 20.335 26.1082 20.1788 26.4159 19.9451C26.7204 19.7139 26.9397 19.3712 27.039 18.9065C27.2331 17.9979 27.335 17.0269 27.335 16C27.335 12.5511 26.1882 9.72869 24.2297 7.77019C22.2712 5.81169 19.4488 4.66496 16 4.66496C12.5511 4.66496 9.72869 5.81169 7.77019 7.77019Z" fill="#000000" class="bmwfcol"/><title>palette_lt_48</title></svg>