<svg width="48" height="48" viewBox="0 0 32 32" xmlns="http://www.w3.org/2000/svg"><path d="M21.001 19.665H15.001V18.335H21.001V19.665Z" fill="#000000" class="bmwfcol"/><path d="M11.001 23.665H21.001V22.335H11.001V23.665Z" fill="#000000" class="bmwfcol"/><path d="M15.1005 3.33497L5.33594 3.33499V28.665H26.6659L26.666 14.9004C26.6662 13.7416 26.6664 12.884 26.3759 12.0852C26.0711 11.247 25.4735 10.5321 24.4712 9.52976L20.4712 5.52976C19.4688 4.5274 18.7539 3.92983 17.9157 3.62502C17.117 3.33457 16.2593 3.33474 15.1005 3.33497ZM23.5307 10.4702C24.0593 10.9988 24.4208 11.3976 24.673 11.7355C23.9689 11.4595 23.0812 11.335 22.0009 11.335H18.6659V7.99999C18.6659 6.91971 18.5414 6.03207 18.2654 5.32798C18.6033 5.58009 19.0021 5.9416 19.5307 6.47021L23.5307 10.4702ZM24.766 13.3093C25.1535 13.6443 25.3359 14.1584 25.3359 15V27.335H6.66594V4.66499H15.0009C15.8425 4.66499 16.3566 4.84744 16.6916 5.23492C17.0517 5.65137 17.3359 6.45053 17.3359 7.99999V12.665H22.0009C23.5504 12.665 24.3496 12.9492 24.766 13.3093Z" fill="#000000" class="bmwfcol"/><path d="M10.3359 7.49998V11.665L12.3359 11.665V13.835H11.2265L13.001 16.7925L14.7756 13.835H13.6659V10.335L11.6659 10.335V7.49998H10.3359Z" fill="#000000" class="bmwfcol"/><title>paper_lightning_bolt_text_lt_48</title></svg>