<svg width="48" height="48" viewBox="0 0 32 32" xmlns="http://www.w3.org/2000/svg"><path d="M25.3311 15.5L25.3311 15C25.3311 14.1584 25.1486 13.6443 24.7612 13.3093C24.3447 12.9492 23.5455 12.665 21.9961 12.665H17.3311V7.99996C17.3311 6.45051 17.0468 5.65134 16.6868 5.23489C16.3541 4.85011 15.8449 4.66751 15.0136 4.66499L6.66203 4.66499V27.335H18.498V28.665H5.33203V3.33499L15.0966 3.33497C16.2554 3.33474 17.113 3.33457 17.9118 3.62502C18.75 3.92983 19.4649 4.5274 20.4673 5.52976L24.4673 9.52976C25.4696 10.5321 26.0672 11.247 26.372 12.0852C26.6624 12.884 26.6623 13.7416 26.662 14.9004V15.5H25.3311ZM23.5268 10.4702L19.5268 6.47021C18.9975 5.94091 18.5984 5.57916 18.2602 5.327C18.5364 6.03124 18.6611 6.91919 18.6611 7.99996V11.335H21.9961C23.077 11.335 23.9651 11.4597 24.6694 11.736C24.4173 11.398 24.0557 10.9991 23.5268 10.4702Z" fill="#000000" class="bmwfcol"/><path d="M20.9995 26.7862V28.1359C22.1337 28.3291 23.1796 28.4755 23.8302 28.4755C24.2415 28.4755 24.6586 28.4491 25.0399 28.3738C25.4136 28.3 25.8046 28.1695 26.1201 27.9252C26.3552 27.7431 26.5652 27.5236 26.7129 27.2438C26.8626 26.9604 26.9283 26.6531 26.9283 26.3256C26.9283 25.7438 26.7656 25.1811 26.2723 24.7963C26.4608 24.5769 26.6416 24.3616 26.7611 24.2084C26.896 24.0354 27.036 23.842 27.1353 23.6111C27.2404 23.3668 27.286 23.1151 27.286 22.8315C27.286 22.2736 27.0295 21.6552 26.5125 21.3281C25.7021 20.8153 24.5276 20.2337 23.4846 19.7544C23.2467 19.6451 23.0877 19.5704 22.9728 19.5128C22.8631 19.458 22.8063 19.425 22.7688 19.4004C22.7345 19.3779 22.705 19.3552 22.6505 19.3087C22.5981 19.2641 22.5294 19.1842 22.4756 19.0789C22.4229 18.9759 22.3936 18.8669 22.3936 18.7607C22.3936 18.4602 22.4704 18.3424 22.6069 18.2494C22.7255 18.1685 22.9036 18.1034 23.1613 18.0631C23.4174 18.023 23.7082 18.0136 24.0287 18.0136C24.3958 18.0136 25.2257 18.0789 26.9995 18.4319V17.0765C25.3596 16.7592 24.4967 16.6836 24.0287 16.6836C23.6948 16.6836 23.3186 16.6923 22.9557 16.7491C22.5943 16.8056 22.2014 16.9161 21.8577 17.1504C21.2627 17.556 21.0636 18.1495 21.0636 18.7607C21.0636 19.3805 21.3607 19.902 21.6811 20.2224C21.4809 20.4553 21.286 20.6931 21.1625 20.8642C20.9417 21.1702 20.6915 21.5956 20.7056 22.1907C20.7178 22.7022 20.9033 23.2571 21.3316 23.6016C21.7763 23.9593 22.1053 24.1441 22.6298 24.3933C22.9511 24.5459 23.2616 24.6978 23.5695 24.8485L23.5806 24.8539C23.891 25.0058 24.1994 25.1566 24.5073 25.3022C24.6598 25.3743 24.7988 25.4492 24.9274 25.5231C25.0502 25.5937 25.1535 25.6573 25.256 25.7204C25.3061 25.7513 25.3567 25.7825 25.4087 25.8139C25.5054 25.8724 25.5983 25.961 25.5983 26.3256C25.5983 26.4693 25.5712 26.5577 25.5368 26.6228C25.5005 26.6916 25.4353 26.7734 25.3059 26.8735C25.2203 26.9398 25.0563 27.0149 24.7822 27.069C24.5157 27.1216 24.1919 27.1455 23.8302 27.1455C23.2523 27.1455 22.2106 26.9965 20.9995 26.7862ZM22.8367 20.9203L22.9292 20.9629C23.9633 21.4381 25.0701 21.9893 25.8013 22.452C25.8522 22.4842 25.956 22.6248 25.956 22.8315C25.956 22.9624 25.9369 23.0313 25.9135 23.0856C25.8844 23.1534 25.8323 23.2366 25.7123 23.3905C25.5774 23.5635 25.3395 23.843 25.1046 24.1135L25.076 24.0999C24.7773 23.9586 24.4767 23.8117 24.1651 23.6592L24.1511 23.6524C23.845 23.5026 23.5287 23.3479 23.2005 23.1919C22.7349 22.9708 22.5036 22.8375 22.1652 22.5653C22.1349 22.5409 22.0414 22.4161 22.0353 22.1592C22.0313 21.9897 22.0884 21.8539 22.241 21.6425C22.3648 21.471 22.6058 21.1829 22.8367 20.9203Z" fill="#000000" class="bmwfcol"/><path d="M10.335 7.5V11.665L12.335 11.665V13.835H11.2255L13 16.7925L14.7746 13.835H13.665V10.335L11.665 10.335V7.5H10.335Z" fill="#000000" class="bmwfcol"/><title>paper_with_paragraph_and_electricity_lt_48</title></svg>