<svg width="48" height="48" viewBox="0 0 32 32" xmlns="http://www.w3.org/2000/svg"><path d="M5.38816 10.5L4.81632 12.8164L2.5 13.3882V14.6117L4.81632 15.1835L5.38818 17.5H6.61156L7.18342 15.1835L9.5 14.6116V13.3883L7.18342 12.8164L6.61158 10.5H5.38816ZM5.99987 12.6117L6.27472 13.7251L7.3881 13.9999L6.27472 14.2748L5.99987 15.3882L5.72501 14.2748L4.61164 13.9999L5.72501 13.7251L5.99987 12.6117Z" fill="#000000" class="bmwfcol"/><path d="M17.3357 14.5L16.5763 17.5762L13.5 18.3356V19.6642L16.5763 20.4236L17.3357 23.5H18.6643L19.4237 20.4236L22.5 19.6642V18.3356L19.4237 17.5762L18.6643 14.5H17.3357ZM18 16.8158L18.4324 18.5675L20.1841 18.9999L18.4324 19.4323L18 21.184L17.5676 19.4323L15.8159 18.9999L17.5676 18.5675L18 16.8158Z" fill="#000000" class="bmwfcol"/><path d="M8.34963 18L7.29046 22.2904L3 23.3496V24.6504L7.29046 25.7095L8.34963 30H9.65038L10.7096 25.7095L15 24.6504V23.3496L10.7096 22.2904L9.65038 18H8.34963ZM9.00001 20.5809L9.67694 23.323L12.4191 24L9.67694 24.6769L9.00001 27.419L8.32307 24.6769L5.58095 24L8.32307 23.323L9.00001 20.5809Z" fill="#000000" class="bmwfcol"/><path d="M15.0996 3.33497L5.335 3.33499V7.99999H6.665V4.66499H15C15.8416 4.66499 16.3557 4.84744 16.6907 5.23492C17.0508 5.65137 17.335 6.45053 17.335 7.99999V12.665H22C23.5495 12.665 24.3486 12.9492 24.7651 13.3093C25.1525 13.6443 25.335 14.1584 25.335 15V27.335H13V28.665H26.665L26.665 14.9004C26.6652 13.7416 26.6654 12.884 26.375 12.0852C26.0702 11.247 25.4726 10.5321 24.4702 9.52976L20.4702 5.52976C19.4679 4.5274 18.753 3.92983 17.9148 3.62502C17.116 3.33457 16.2584 3.33474 15.0996 3.33497ZM23.5298 10.4702C24.0584 10.9988 24.4199 11.3976 24.672 11.7355C23.9679 11.4595 23.0803 11.335 22 11.335H18.665V7.99999C18.665 6.91971 18.5404 6.03207 18.2645 5.32798C18.6024 5.58009 19.0012 5.9416 19.5298 6.47021L23.5298 10.4702Z" fill="#000000" class="bmwfcol"/><title>paper_and_stars_lt_48</title></svg>