<svg width="48" height="48" viewBox="0 0 32 32" xmlns="http://www.w3.org/2000/svg"><path d="M26.664 28.665H9.5V27.335H25.334L25.333 15C25.333 14.1584 25.1506 13.6443 24.7631 13.3093C24.3467 12.9492 23.5475 12.665 21.998 12.665H17.333V7.99996C17.333 6.45051 17.0488 5.65134 16.6887 5.23489C16.3561 4.85011 15.8468 4.66751 15.0156 4.66499L6.66398 4.66499V11.5H5.33398V3.33499L15.0986 3.33497C16.2574 3.33474 17.115 3.33457 17.9137 3.62502C18.7519 3.92983 19.4669 4.5274 20.4692 5.52976L24.4692 9.52976C25.4716 10.5321 26.0691 11.247 26.3739 12.0852C26.6644 12.884 26.6642 13.7416 26.664 14.9004L26.664 28.665ZM24.6713 11.736C24.4192 11.398 24.0576 10.9991 23.5288 10.4702L19.5288 6.47021C18.9995 5.94091 18.6004 5.57916 18.2621 5.327C18.5384 6.03124 18.663 6.91919 18.663 7.99996V11.335H21.998C23.079 11.335 23.9671 11.4597 24.6713 11.736Z" fill="#000000" class="bmwfcol"/><path d="M9.50071 15.5593L12.5303 12.5298L13.4707 13.4702L10.4412 16.4998L12.5007 18.5593L15.5303 15.5298L16.4707 16.4702L13.4412 19.4998L14.9414 21L14.4712 21.4702C12.4456 23.4958 10.7732 24.5676 9.29015 24.8288C7.98193 25.0592 6.92136 24.646 6.02626 23.919C4.90797 25.0586 4.34256 25.7357 4.03742 26.328C3.71808 26.9479 3.66594 27.5087 3.66594 28.625V29.9999L2.33594 30V28.625C2.33594 27.4913 2.37755 26.6459 2.85508 25.7189C3.25818 24.9364 3.95644 24.1276 5.08527 22.9788C4.35622 22.0829 3.94143 21.021 4.17218 19.7108C4.43337 18.2278 5.50518 16.5553 7.53073 14.5298L8.00095 14.0596L9.50071 15.5593ZM13.0545 20.994L8.00698 15.9465C6.36506 17.6773 5.6546 18.9616 5.48202 19.9415C5.30721 20.9341 5.66862 21.7272 6.47118 22.5298C7.27374 23.3324 8.06688 23.6938 9.05946 23.519C10.0394 23.3464 11.3236 22.6359 13.0545 20.994Z" fill="#000000" class="bmwfcol"/><title>paper_and_plug_lt_48</title></svg>