<svg width="48" height="48" viewBox="0 0 32 32" xmlns="http://www.w3.org/2000/svg"><path d="M25.3311 15.5L25.3311 15C25.3311 14.1584 25.1486 13.6443 24.7612 13.3093C24.3447 12.9492 23.5455 12.665 21.9961 12.665H17.3311V7.99996C17.3311 6.45051 17.0468 5.65134 16.6868 5.23489C16.3541 4.85011 15.8449 4.66751 15.0136 4.66499L6.66203 4.66499V27.335H13.498V28.665H5.33203V3.33499L15.0966 3.33497C16.2554 3.33474 17.113 3.33457 17.9118 3.62502C18.75 3.92983 19.4649 4.5274 20.4673 5.52976L24.4673 9.52976C25.4696 10.5321 26.0672 11.247 26.372 12.0852C26.6624 12.884 26.6623 13.7416 26.662 14.9004V15.5H25.3311ZM23.5268 10.4702L19.5268 6.47021C18.9975 5.94091 18.5984 5.57916 18.2602 5.327C18.5364 6.03124 18.6611 6.91919 18.6611 7.99996V11.335H21.9961C23.077 11.335 23.9651 11.4597 24.6694 11.736C24.4173 11.398 24.0557 10.9991 23.5268 10.4702Z" fill="#000000" class="bmwfcol"/><path d="M24.4749 28.6649L25.81 30H24.1836L22.1836 27.9999L24.1835 26H25.8099L24.475 27.3349H27.0376C27.336 27.3349 27.6116 27.1757 27.7608 26.9174L28.0512 26.4143C28.2003 26.1561 28.2004 25.838 28.0514 25.5797L27.0332 23.8141L28.1853 23.1497L29.2035 24.9152C29.5898 25.5849 29.5896 26.4098 29.203 27.0793L28.9126 27.5824C28.5258 28.2522 27.8111 28.6649 27.0376 28.6649H24.4749Z" fill="#000000" class="bmwfcol"/><path d="M19.7964 21.0476L20.5282 23.7787L19.715 25.1872L19.2264 23.3638L17.9458 25.582C17.7966 25.8403 17.7966 26.1586 17.9458 26.417L18.2347 26.9175C18.3839 27.1758 18.6595 27.335 18.9579 27.335H20.9987V28.665H18.9579C18.1844 28.665 17.4697 28.2523 17.0829 27.5825L16.794 27.082C16.4072 26.4121 16.4072 25.5868 16.794 24.917L18.0741 22.6997L16.25 23.1884L17.0632 21.78L19.7964 21.0476Z" fill="#000000" class="bmwfcol"/><path d="M26.9336 18.3145L26.4446 20.1394L25.1618 17.9175C24.7751 17.2476 24.0604 16.835 23.2869 16.835H22.7091C21.936 16.835 21.2215 17.2472 20.8347 17.9166L19.8125 19.6852L20.964 20.3507L21.9862 18.5821C22.1354 18.324 22.4109 18.165 22.7091 18.165H23.2869C23.5852 18.165 23.8609 18.3241 24.01 18.5825L25.2914 20.8018L23.4688 20.3134L24.2819 21.7219L27.015 22.4542L27.7468 19.7229L26.9336 18.3145Z" fill="#000000" class="bmwfcol"/><title>paper_and_recycling_symbol_lt_48</title></svg>