<svg width="48" height="48" viewBox="0 0 32 32" xmlns="http://www.w3.org/2000/svg"><path d="M10.8359 12.9997C10.8359 12.3563 11.3575 11.8347 12.0009 11.8347C12.6443 11.8347 13.1659 12.3563 13.1659 12.9997C13.1659 13.6431 12.6443 14.1647 12.0009 14.1647C11.3575 14.1647 10.8359 13.6431 10.8359 12.9997Z" fill="#000000" class="bmwfcol"/><path d="M18.8359 12.9997C18.8359 12.3563 19.3575 11.8347 20.0009 11.8347C20.6443 11.8347 21.1659 12.3563 21.1659 12.9997C21.1659 13.6431 20.6443 14.1647 20.0009 14.1647C19.3575 14.1647 18.8359 13.6431 18.8359 12.9997Z" fill="#000000" class="bmwfcol"/><path d="M11.3359 9.33496V7.28568C11.3359 5.50292 11.7775 4.21554 12.6761 3.39027C13.5642 2.57468 14.7661 2.33496 16.0009 2.33496C17.2358 2.33496 18.4377 2.57468 19.3257 3.39027C20.2244 4.21554 20.6659 5.50292 20.6659 7.28568V9.33496H26.6635L26.6641 10.5244L25.6736 23.8957L26.6641 26.372L26.6635 27.665H5.33477L5.33398 26.3721L6.32452 23.8957L5.33405 10.5243L5.33486 9.33496H11.3359ZM12.6659 7.28568V9.33496H19.3359V7.28568C19.3359 5.70108 18.9442 4.8456 18.4261 4.36986C17.8976 3.88443 17.0994 3.66496 16.0009 3.66496C14.9025 3.66496 14.1043 3.88443 13.5757 4.36986C13.0577 4.8456 12.6659 5.70108 12.6659 7.28568ZM7.6736 24.1042L6.78129 26.335H25.2168L24.3245 24.1042L25.32 10.665H6.67811L7.6736 24.1042Z" fill="#000000" class="bmwfcol"/><title>paper_bag_lt_48</title></svg>