<svg width="48" height="48" viewBox="0 0 32 32" xmlns="http://www.w3.org/2000/svg"><path d="M7.38047 2.33507L2.33496 2.33496V16H3.66496V10.6648C5.20014 10.6636 7.02839 10.6562 7.7206 10.6131C8.70003 10.5521 9.78105 10.3111 10.6222 9.55415C11.1071 9.11772 11.3625 8.54638 11.4993 7.99427C11.6356 7.44361 11.665 6.86777 11.665 6.36997C11.665 5.32135 11.4024 4.19868 10.6539 3.38203C9.85649 2.51211 8.77132 2.33021 7.38047 2.33507ZM7.63794 9.28565C6.99114 9.32593 5.20892 9.33346 3.66496 9.33473V3.66499L7.38401 3.66506C8.7089 3.66034 9.28073 3.85228 9.67343 4.28071C10.1152 4.76265 10.335 5.50874 10.335 6.36997C10.335 6.82711 10.3065 7.27807 10.2083 7.67454C10.1104 8.06958 9.95452 8.36572 9.73247 8.56555C9.21516 9.03111 8.48913 9.23264 7.63794 9.28565Z" fill="#000000" class="bmwfcol"/><path d="M14.335 8C14.335 10.9676 12.2119 13.335 9 13.335V14.665C12.9881 14.665 15.665 11.6598 15.665 8H14.335Z" fill="#000000" class="bmwfcol"/><path d="M9 17.335C14.6119 17.335 18.335 13.1768 18.335 8H19.665C19.665 13.8689 15.3881 18.665 9 18.665V17.335Z" fill="#000000" class="bmwfcol"/><path d="M9 21.335C17.0119 21.335 22.335 15.3859 22.335 8H23.665C23.665 16.0781 17.7881 22.665 9 22.665V21.335Z" fill="#000000" class="bmwfcol"/><path d="M24.0978 16.335H25.9029L29.1183 28.335H31V29.665H19V28.335H20.8824L24.0978 16.335ZM22.2593 28.335H27.7414L27.026 25.665H22.9747L22.2593 28.335ZM26.6696 24.335L25.0004 18.1052L23.3311 24.335H26.6696Z" fill="#000000" class="bmwfcol"/><title>park-distance-control_lt_48</title></svg>