<svg width="48" height="48" viewBox="0 0 32 32" xmlns="http://www.w3.org/2000/svg"><path d="M8.00094 13.0335V11.5939L16.0011 8.28009L24.0009 11.5937V13.0333L16.0011 9.71967L8.00094 13.0335Z" fill="#000000" class="bmwfcol"/><path d="M16.3438 13.3351L12.3359 13.335V24H13.6659V19.6647C14.783 19.6634 16.1171 19.657 16.6038 19.6267C17.3368 19.5811 18.1745 19.3997 18.8328 18.8073C19.5831 18.1321 19.6659 17.1081 19.6659 16.402C19.6659 15.5854 19.444 14.7864 18.8682 14.1582C18.231 13.4631 17.369 13.3315 16.3438 13.3351ZM16.5211 18.2993C16.0776 18.3269 14.7868 18.3333 13.6659 18.3347V14.665L16.3449 14.6651L16.3473 14.6651C17.3065 14.6616 17.6553 14.8033 17.8877 15.0569C18.1818 15.3777 18.3359 15.823 18.3359 16.402C18.3359 17.0916 18.2261 17.564 17.9431 17.8187C17.6086 18.1197 17.1259 18.2616 16.5211 18.2993Z" fill="#000000" class="bmwfcol"/><path d="M4.79821 4.79728C5.12078 4.47471 5.554 4.33501 6.00094 4.33501H26.0009C26.4479 4.33501 26.8811 4.47471 27.2037 4.79728C27.5262 5.11985 27.6659 5.55307 27.6659 6.00001V26C27.6659 26.4469 27.5262 26.8802 27.2037 27.2027C26.8811 27.5253 26.4479 27.665 26.0009 27.665H6.00094C5.554 27.665 5.12078 27.5253 4.79821 27.2027C4.47564 26.8802 4.33594 26.4469 4.33594 26V6.00001C4.33594 5.55307 4.47564 5.11985 4.79821 4.79728ZM5.73866 5.73773C5.71623 5.76016 5.66594 5.82695 5.66594 6.00001V26C5.66594 26.1731 5.71623 26.2399 5.73866 26.2623C5.76109 26.2847 5.82788 26.335 6.00094 26.335H26.0009C26.174 26.335 26.2408 26.2847 26.2632 26.2623C26.2856 26.2399 26.3359 26.1731 26.3359 26V6.00001C26.3359 5.82694 26.2856 5.76016 26.2632 5.73773C26.2408 5.7153 26.174 5.66501 26.0009 5.66501H6.00094C5.82788 5.66501 5.76109 5.7153 5.73866 5.73773Z" fill="#000000" class="bmwfcol"/><title>parking-garage_lt_48</title></svg>