<svg width="48" height="48" viewBox="0 0 32 32" xmlns="http://www.w3.org/2000/svg"><path d="M7.38047 4.33507L2.33496 4.33496V18H3.66496V12.6648C5.20014 12.6636 7.02839 12.6562 7.7206 12.6131C8.70003 12.5521 9.78105 12.3111 10.6222 11.5542C11.1071 11.1177 11.3625 10.5464 11.4993 9.99427C11.6356 9.44361 11.665 8.86777 11.665 8.36997C11.665 7.32135 11.4024 6.19868 10.6539 5.38203C9.85649 4.51211 8.77132 4.33021 7.38047 4.33507ZM7.63794 11.2856C6.99114 11.3259 5.20892 11.3335 3.66496 11.3347V5.66499L7.38163 5.66507L7.38401 5.66506C8.7089 5.66034 9.28073 5.85228 9.67343 6.28071C10.1152 6.76265 10.335 7.50874 10.335 8.36997C10.335 8.82711 10.3065 9.27807 10.2083 9.67454C10.1104 10.0696 9.95452 10.3657 9.73247 10.5656C9.21516 11.0311 8.48913 11.2326 7.63794 11.2856Z" fill="#000000" class="bmwfcol"/><path d="M22.1666 23.665H19V22.335H22.1666V23.665Z" fill="#000000" class="bmwfcol"/><path d="M23 23.665H26.9583V22.335H23V23.665Z" fill="#000000" class="bmwfcol"/><path d="M11.875 13.891C12.2499 13.5087 12.7616 13.335 13.3077 13.335H27.6923C28.2383 13.335 28.75 13.5087 29.1249 13.891C29.4983 14.2717 29.665 14.7867 29.665 15.3333V24.6666C29.665 25.2132 29.4983 25.7282 29.1249 26.1089C28.75 26.4912 28.2383 26.665 27.6923 26.665H13.3077C12.7616 26.665 12.2499 26.4912 11.875 26.1089C11.5016 25.7282 11.335 25.2132 11.335 24.6666V15.3333C11.335 14.7867 11.5016 14.2717 11.875 13.891ZM12.8245 14.8223C12.7468 14.9015 12.665 15.0532 12.665 15.3333V17.335H28.335V15.3333C28.335 15.0532 28.2531 14.9015 28.1754 14.8223C28.0991 14.7445 27.957 14.665 27.6923 14.665H13.3077C13.043 14.665 12.9008 14.7445 12.8245 14.8223ZM12.665 24.6666C12.665 24.9467 12.7468 25.0984 12.8245 25.1777C12.9008 25.2554 13.043 25.335 13.3077 25.335H27.6923C27.957 25.335 28.0991 25.2554 28.1754 25.1777C28.2531 25.0984 28.335 24.9467 28.335 24.6666V18.665H12.665V24.6666Z" fill="#000000" class="bmwfcol"/><title>parking_payments_lt_48</title></svg>