<svg width="48" height="48" viewBox="0 0 32 32" xmlns="http://www.w3.org/2000/svg"><path d="M5.73671 5.73769C5.71428 5.76012 5.66398 5.8269 5.66398 5.99996V26C5.66398 26.173 5.71428 26.2398 5.73671 26.2622C5.75914 26.2847 5.82592 26.335 5.99898 26.335H25.999C26.172 26.335 26.2388 26.2847 26.2612 26.2622C26.2837 26.2398 26.334 26.173 26.334 26V5.99996C26.334 5.8269 26.2837 5.76012 26.2612 5.73769C26.2388 5.71526 26.172 5.66496 25.999 5.66496H5.99898C5.82592 5.66496 5.75914 5.71526 5.73671 5.73769ZM4.79625 4.79723C5.11883 4.47466 5.55204 4.33496 5.99898 4.33496H25.999C26.4459 4.33496 26.8791 4.47466 27.2017 4.79724C27.5243 5.11981 27.664 5.55302 27.664 5.99996V26C27.664 26.4469 27.5243 26.8801 27.2017 27.2027C26.8791 27.5253 26.4459 27.665 25.999 27.665H5.99898C5.55204 27.665 5.11883 27.5253 4.79625 27.2027C4.47368 26.8801 4.33398 26.4469 4.33398 26V5.99996C4.33398 5.55302 4.47368 5.11981 4.79625 4.79723Z" fill="#000000" class="bmwfcol"/><path d="M11.334 8.33495L16.7482 8.33507C18.3689 8.32939 19.5943 8.5429 20.4924 9.5227C21.3291 10.4356 21.664 11.6079 21.664 12.8432C21.664 13.968 21.5233 15.4409 20.463 16.3951C19.5069 17.2555 18.273 17.5339 17.1387 17.6045C16.3184 17.6556 14.4135 17.6636 12.664 17.6648V24H11.334V8.33495ZM12.664 16.3348C14.4235 16.3335 16.2819 16.3253 17.056 16.2771C18.0621 16.2144 18.9411 15.9755 19.5733 15.4065C20.1663 14.8728 20.334 13.9515 20.334 12.8432C20.334 11.8455 20.0669 11.0269 19.5119 10.4214C19.0185 9.88308 18.3041 9.65953 16.7494 9.66507L12.664 9.66498V16.3348Z" fill="#000000" class="bmwfcol"/><title>parking_lt_48</title></svg>