<svg width="48" height="48" viewBox="0 0 32 32" xmlns="http://www.w3.org/2000/svg"><path d="M7.38047 2.33507L2.33496 2.33496V16H3.66496V10.6648C5.20014 10.6636 7.02839 10.6562 7.7206 10.6131C8.70003 10.5521 9.78105 10.3111 10.6222 9.55415C11.1071 9.11772 11.3625 8.54638 11.4993 7.99427C11.6356 7.44361 11.665 6.86777 11.665 6.36997C11.665 5.32135 11.4024 4.19868 10.6539 3.38203C9.85649 2.51211 8.77132 2.33021 7.38047 2.33507ZM7.63794 9.28565C6.99114 9.32593 5.20892 9.33346 3.66496 9.33473V3.66499L7.38401 3.66506C8.7089 3.66034 9.28073 3.85228 9.67343 4.28071C10.1152 4.76265 10.335 5.50874 10.335 6.36997C10.335 6.82711 10.3065 7.27807 10.2083 7.67454C10.1104 8.06958 9.95452 8.36572 9.73247 8.56555C9.21516 9.03111 8.48913 9.23264 7.63794 9.28565Z" fill="#000000" class="bmwfcol"/><path d="M19 17.835C18.3565 17.835 17.835 18.3565 17.835 19C17.835 19.6434 18.3565 20.165 19 20.165C19.6434 20.165 20.165 19.6434 20.165 19C20.165 18.3565 19.6434 17.835 19 17.835Z" fill="#000000" class="bmwfcol"/><path d="M19 8.33496C15.8488 8.33496 13.1712 9.38824 11.2797 11.2797C9.38824 13.1712 8.33496 15.8488 8.33496 19C8.33496 22.1511 9.38824 24.8287 11.2797 26.7202C13.1712 28.6117 15.8488 29.665 19 29.665C22.1511 29.665 24.8287 28.6117 26.7202 26.7202C28.6117 24.8287 29.665 22.1511 29.665 19C29.665 15.8488 28.6117 13.1712 26.7202 11.2797C24.8287 9.38824 22.1511 8.33496 19 8.33496ZM9.66496 19C9.66496 18.8875 9.66644 18.7758 9.66937 18.665H13.6571C13.6749 18.8733 13.7134 19.0906 13.7647 19.3253C13.8404 19.6712 13.9535 20.0954 14.095 20.6257L14.1174 20.7098C14.1958 21.0039 14.288 21.3522 14.3767 21.6881L9.7507 20.4486C9.69405 19.9826 9.66496 19.4994 9.66496 19ZM13.9065 17.335H9.77915C10.0757 15.2394 10.9375 13.5028 12.2202 12.2202C13.8287 10.6117 16.1511 9.66496 19 9.66496C21.8488 9.66496 24.1712 10.6117 25.7797 12.2202C27.0624 13.5028 27.9242 15.2394 28.2208 17.335H24.0934C23.9862 17.1057 23.8526 16.8749 23.7059 16.6214L23.6658 16.5519C23.0847 15.5462 22.4991 14.927 21.6781 14.6142C20.944 14.3344 20.0839 14.3347 19.0971 14.335H18.9028C17.916 14.3347 17.0559 14.3344 16.3218 14.6142C15.5009 14.927 14.9152 15.5462 14.3341 16.5519L14.294 16.6214C14.1473 16.8749 14.0137 17.1057 13.9065 17.335ZM24.2352 19.3253C24.2865 19.0906 24.325 18.8733 24.3428 18.665H28.3305C28.3335 18.7758 28.335 18.8875 28.335 19C28.335 19.4994 28.3059 19.9827 28.2492 20.4487L23.6231 21.6883C23.7119 21.3523 23.8041 21.0039 23.8825 20.7098L23.9049 20.6258C24.0463 20.0957 24.1596 19.6711 24.2352 19.3253ZM10.0296 21.9002L16.0559 23.515C16.0762 23.5204 16.0964 23.5259 16.1165 23.5312L16.5137 28.0718C14.7831 27.6862 13.3313 26.8909 12.2202 25.7797C11.1989 24.7584 10.4443 23.4492 10.0296 21.9002ZM17.4822 23.882C18.0591 24.0149 18.528 24.0881 19.0001 24.0881C19.4721 24.0881 19.941 24.0149 20.5178 23.882L20.1327 28.2831C19.7652 28.3174 19.3874 28.335 19 28.335C18.6125 28.335 18.2348 28.3174 17.8673 28.2831L17.4822 23.882ZM21.8835 23.5313C21.9037 23.5259 21.924 23.5205 21.9445 23.515L27.9703 21.9004C27.5555 23.4493 26.801 24.7584 25.7797 25.7797C24.6686 26.8908 23.2169 27.6862 21.4863 28.0718L21.8835 23.5313ZM15.857 22.0848L15.7211 21.5698C15.6156 21.1702 15.4988 20.7283 15.4025 20.3671L15.3861 20.3055C15.2389 19.7537 15.133 19.3567 15.064 19.0412C14.9926 18.7146 14.9716 18.5206 14.977 18.376C14.9868 18.1155 15.0751 17.928 15.4858 17.2173C15.9936 16.3383 16.38 16.0153 16.7954 15.857C17.2737 15.6747 17.8817 15.665 19 15.665C20.1182 15.665 20.7262 15.6747 21.2045 15.857C21.6199 16.0153 22.0063 16.3383 22.5141 17.2173C22.9248 17.928 23.0131 18.1155 23.0229 18.376C23.0283 18.5206 23.0073 18.7146 22.9359 19.0412C22.8669 19.3567 22.761 19.7537 22.6138 20.3055L22.5974 20.3671C22.5011 20.7283 22.3843 21.1702 22.2788 21.5698L22.1429 22.0849L21.6989 22.2039C20.2292 22.5977 19.6099 22.7581 19.0001 22.7581C18.3903 22.7581 17.771 22.5977 16.3015 22.2039L15.857 22.0848Z" fill="#000000" class="bmwfcol"/><title>parking-assistant_lt_48</title></svg>