<svg width="48" height="48" viewBox="0 0 32 32" xmlns="http://www.w3.org/2000/svg"><path d="M26.665 5.33496H5.335V11.335H2V12.665H6.665V6.66496H11.8423L14.2679 10.8662C14.1816 10.8458 14.0915 10.835 13.999 10.835C13.3556 10.835 12.834 11.3565 12.834 12C12.834 12.6434 13.3556 13.165 13.999 13.165C14.5263 13.165 14.9718 12.8146 15.1154 12.334L17.7318 16.8657C17.2172 16.9865 16.834 17.4485 16.834 18C16.834 18.6434 17.3556 19.165 17.999 19.165C18.3335 19.165 18.635 19.024 18.8475 18.7982L22.6215 25.335H6.665V19.335H2V20.665H5.335V26.665H26.665V20.665H30V19.335H25.335V25.335H24.1573L13.3781 6.66496H25.335V12.665H30V11.335H26.665V5.33496Z" fill="#000000" class="bmwfcol"/><path d="M9.99898 8.83496C9.35557 8.83496 8.83398 9.35655 8.83398 9.99996C8.83398 10.6434 9.35557 11.165 9.99898 11.165C10.6424 11.165 11.164 10.6434 11.164 9.99996C11.164 9.35655 10.6424 8.83496 9.99898 8.83496Z" fill="#000000" class="bmwfcol"/><path d="M4.83398 16C4.83398 15.3565 5.35557 14.835 5.99898 14.835C6.6424 14.835 7.16398 15.3565 7.16398 16C7.16398 16.6434 6.6424 17.165 5.99898 17.165C5.35557 17.165 4.83398 16.6434 4.83398 16Z" fill="#000000" class="bmwfcol"/><path d="M8.83398 14C8.83398 13.3565 9.35557 12.835 9.99898 12.835C10.6424 12.835 11.164 13.3565 11.164 14C11.164 14.6434 10.6424 15.165 9.99898 15.165C9.35557 15.165 8.83398 14.6434 8.83398 14Z" fill="#000000" class="bmwfcol"/><path d="M8.83398 18C8.83398 17.3565 9.35557 16.835 9.99898 16.835C10.6424 16.835 11.164 17.3565 11.164 18C11.164 18.6434 10.6424 19.165 9.99898 19.165C9.35557 19.165 8.83398 18.6434 8.83398 18Z" fill="#000000" class="bmwfcol"/><path d="M8.83398 22C8.83398 21.3565 9.35557 20.835 9.99898 20.835C10.6424 20.835 11.164 21.3565 11.164 22C11.164 22.6434 10.6424 23.165 9.99898 23.165C9.35557 23.165 8.83398 22.6434 8.83398 22Z" fill="#000000" class="bmwfcol"/><path d="M12.834 16C12.834 15.3565 13.3556 14.835 13.999 14.835C14.6424 14.835 15.164 15.3565 15.164 16C15.164 16.6434 14.6424 17.165 13.999 17.165C13.3556 17.165 12.834 16.6434 12.834 16Z" fill="#000000" class="bmwfcol"/><path d="M12.834 20C12.834 19.3565 13.3556 18.835 13.999 18.835C14.6424 18.835 15.164 19.3565 15.164 20C15.164 20.6434 14.6424 21.165 13.999 21.165C13.3556 21.165 12.834 20.6434 12.834 20Z" fill="#000000" class="bmwfcol"/><path d="M17.999 20.835C17.3556 20.835 16.834 21.3565 16.834 22C16.834 22.6434 17.3556 23.165 17.999 23.165C18.6424 23.165 19.164 22.6434 19.164 22C19.164 21.3565 18.6424 20.835 17.999 20.835Z" fill="#000000" class="bmwfcol"/><title>particle-filter_lt_48</title></svg>