<svg width="48" height="48" viewBox="0 0 32 32" xmlns="http://www.w3.org/2000/svg"><path d="M18.6347 19.568V21.6999H17.3047V18.6657L17.7373 18.5044C19.3041 17.9199 20.3047 16.4926 20.3047 14.469C20.3047 13.351 19.9982 12.4217 19.4722 11.7166L18.6804 14.6718C18.4854 15.4015 18.0818 15.9358 17.4179 16.153C16.8305 16.3451 16.1648 16.2396 15.5456 16.0737C14.9265 15.9078 14.2967 15.6661 13.8838 15.2062C13.4169 14.6861 13.3343 14.0213 13.5321 13.2917L14.308 10.3957C13.6075 10.6364 13.0322 11.0339 12.599 11.5499C11.9962 12.2679 11.6347 13.2563 11.6347 14.469C11.6347 16.4926 12.6352 17.9199 14.2021 18.5044L14.6347 18.6657V21.6999H13.3047V19.568C11.4206 18.6759 10.3047 16.8099 10.3047 14.469C10.3047 12.9867 10.7503 11.6835 11.5803 10.6948C12.4116 9.70462 13.5946 9.0705 14.9934 8.8716L15.3491 8.82102L15.9299 9.48151L14.8162 13.6379C14.7 14.0661 14.7898 14.2245 14.8735 14.3177C15.0113 14.4712 15.3104 14.6337 15.8899 14.789C16.4693 14.9443 16.8088 14.9529 17.0044 14.8889C17.1235 14.8499 17.2806 14.7581 17.3954 14.3285L18.538 10.0644L19.3758 9.78249L19.6595 10.0103C20.9295 11.0302 21.6347 12.606 21.6347 14.469C21.6347 16.8099 20.5187 18.6759 18.6347 19.568Z" fill="#000000" class="bmwfcol"/><path d="M3.79821 5.79723C4.12078 5.47466 4.554 5.33496 5.00094 5.33496H27.0009C27.4479 5.33496 27.8811 5.47466 28.2037 5.79723C28.5262 6.11981 28.6659 6.55302 28.6659 6.99996V23C28.6659 23.4469 28.5262 23.8801 28.2037 24.2027C27.8811 24.5253 27.4479 24.665 27.0009 24.665H5.00094C4.554 24.665 4.12078 24.5253 3.79821 24.2027C3.47564 23.8801 3.33594 23.4469 3.33594 23V6.99996C3.33594 6.55302 3.47564 6.11981 3.79821 5.79723ZM4.73866 6.73769C4.71623 6.76012 4.66594 6.8269 4.66594 6.99996V23C4.66594 23.173 4.71623 23.2398 4.73866 23.2622C4.76109 23.2847 4.82788 23.335 5.00094 23.335H27.0009C27.174 23.335 27.2408 23.2847 27.2632 23.2622C27.2856 23.2398 27.3359 23.173 27.3359 23V6.99996C27.3359 6.8269 27.2856 6.76012 27.2632 6.73769C27.2408 6.71526 27.174 6.66496 27.0009 6.66496H5.00094C4.82788 6.66496 4.76109 6.71526 4.73866 6.73769Z" fill="#000000" class="bmwfcol"/><path d="M21.001 28.665H11.001V27.335H21.001V28.665Z" fill="#000000" class="bmwfcol"/><title>parts-catalouge_lt_48</title></svg>