<svg width="48" height="48" viewBox="0 0 32 32" xmlns="http://www.w3.org/2000/svg"><path d="M22.8354 6.59994C22.8354 5.95652 23.357 5.43494 24.0005 5.43494C24.6439 5.43494 25.1654 5.95652 25.1654 6.59994C25.1654 7.24335 24.6439 7.76494 24.0005 7.76494C23.357 7.76494 22.8354 7.24335 22.8354 6.59994Z" fill="#000000" class="bmwfcol"/><path d="M23.9999 2.06055C22.622 2.06055 21.435 2.47983 20.5899 3.30726C19.7431 4.13629 19.3105 5.30556 19.3105 6.66551C19.3105 8.09126 19.9522 9.40988 20.7429 10.532C21.537 11.659 22.5325 12.6582 23.3331 13.444L23.5271 13.6344H24.4728L24.6668 13.444C25.4673 12.6582 26.4629 11.659 27.257 10.532C28.0476 9.40988 28.6893 8.09126 28.6893 6.66551C28.6893 5.30556 28.2568 4.13629 27.41 3.30726C26.5648 2.47983 25.3778 2.06055 23.9999 2.06055ZM20.6405 6.66551C20.6405 5.59056 20.9767 4.78985 21.5203 4.25763C22.0656 3.7238 22.8908 3.39055 23.9999 3.39055C25.1091 3.39055 25.9343 3.7238 26.4796 4.25763C27.0232 4.78985 27.3593 5.59056 27.3593 6.66551C27.3593 7.69614 26.8903 8.74329 26.1698 9.76594C25.5305 10.6732 24.7332 11.5063 23.9999 12.2337C23.2667 11.5063 22.4694 10.6732 21.8301 9.76594C21.1096 8.74329 20.6405 7.69614 20.6405 6.66551Z" fill="#000000" class="bmwfcol"/><path d="M29.4704 16.5297C29.1821 16.2414 28.7919 15.9207 28.2502 15.7166C27.7038 15.5108 27.0498 15.441 26.2581 15.5825C24.8326 15.8372 22.9341 16.7816 20.2868 18.9045C20.2579 18.8702 20.2275 18.8369 20.1953 18.8047C19.8787 18.4883 19.4511 18.335 19 18.335L14.0878 18.335L10.3558 17.335L10.2055 17.335C9.6195 17.3345 9.13111 17.3342 8.56144 17.6828C8.29789 17.8441 8.03096 18.0693 7.72213 18.3578C7.41277 18.6468 7.03122 19.0283 6.53908 19.5205L2.05957 24L7.72457 29.665H9.27547L11.2755 27.665H15.0196C16.003 27.665 16.7675 27.665 17.3788 27.6328C17.996 27.6003 18.5023 27.5336 18.9604 27.3809C19.8611 27.0807 20.4671 26.4743 21.3805 25.5603L29.9408 16.9999L29.4704 16.5297ZM19.255 19.7453C19.2885 19.7788 19.3352 19.8512 19.3352 19.9998L19.3351 20.7211C18.4746 21.5508 17.8598 21.9291 17.2898 22.1191C16.6607 22.3288 16.0238 22.335 15.0003 22.335H11V23.665L15.0598 23.665C16.0119 23.6651 16.8574 23.6652 17.7105 23.3809C18.5983 23.0849 19.4344 22.5061 20.4702 21.4702L20.665 21.2755L20.6652 20.3116C23.5039 17.9648 25.3248 17.1003 26.4921 16.8917C27.0753 16.7875 27.4838 16.8492 27.7813 16.9612C27.858 16.9901 27.9304 17.0235 27.9991 17.0607L20.53 24.5298C19.4944 25.5654 19.11 25.9291 18.5399 26.1191C18.2479 26.2164 17.8792 26.2747 17.3089 26.3047C16.7367 26.3348 16.0071 26.335 15 26.335H10.7246L8.72457 28.335H8.27547L3.94047 24L7.47025 20.4702C7.97361 19.9669 8.33922 19.6014 8.63005 19.3297C8.92335 19.0557 9.11069 18.9059 9.25566 18.8172C9.47236 18.6846 9.60188 18.6665 10.1811 18.6651L13.9127 19.665L19 19.665C19.1489 19.665 19.2214 19.7117 19.255 19.7453Z" fill="#000000" class="bmwfcol"/><path d="M2 4.33496H11C11.8508 4.33496 12.5466 4.61165 13.0219 5.14187C13.4859 5.65953 13.665 6.33565 13.665 6.99996C13.665 7.66427 13.4859 8.34039 13.0219 8.85805C12.5466 9.38827 11.8508 9.66496 11 9.66496H7C6.4462 9.66496 6.14204 9.83598 5.96847 10.0296C5.78363 10.2358 5.665 10.5597 5.665 11C5.665 11.4402 5.78363 11.7641 5.96847 11.9703C6.14204 12.1639 6.4462 12.335 7 12.335H17.4509L15.116 10H16.8837L19.8837 13L16.8837 16H15.116L17.451 13.665H7C6.14923 13.665 5.45339 13.3883 4.97811 12.858C4.51409 12.3404 4.335 11.6643 4.335 11C4.335 10.3357 4.51409 9.65953 4.97811 9.14187C5.45339 8.61165 6.14923 8.33496 7 8.33496H11C11.5538 8.33496 11.858 8.16394 12.0315 7.9703C12.2164 7.7641 12.335 7.44022 12.335 6.99996C12.335 6.5597 12.2164 6.23583 12.0315 6.02962C11.858 5.83598 11.5538 5.66496 11 5.66496H2V4.33496Z" fill="#000000" class="bmwfcol"/><title>path_and_location_on_hand_lt_48</title></svg>