<svg width="48" height="48" viewBox="0 0 32 32" xmlns="http://www.w3.org/2000/svg"><path d="M16.0004 1.87549C15.5379 1.87549 15.0071 1.96734 14.599 2.35594C14.1863 2.74905 14.0254 3.324 14.0254 4.00049C14.0254 4.67698 14.1863 5.25193 14.599 5.64504C15.0071 6.03364 15.5379 6.12549 16.0004 6.12549C16.4629 6.12549 16.9937 6.03364 17.4017 5.64504C17.8145 5.25193 17.9754 4.67698 17.9754 4.00049C17.9754 3.324 17.8145 2.74905 17.4017 2.35594C16.9937 1.96734 16.4629 1.87549 16.0004 1.87549ZM15.2754 4.00049C15.2754 3.4984 15.3958 3.32336 15.4611 3.26111C15.5312 3.19435 15.6754 3.12549 16.0004 3.12549C16.3254 3.12549 16.4696 3.19435 16.5397 3.26111C16.605 3.32336 16.7254 3.4984 16.7254 4.00049C16.7254 4.50257 16.605 4.67762 16.5397 4.73987C16.4696 4.80663 16.3254 4.87549 16.0004 4.87549C15.6754 4.87549 15.5312 4.80663 15.4611 4.73987C15.3958 4.67762 15.2754 4.50257 15.2754 4.00049Z" fill="#000000" class="bmwfcol"/><path d="M20.5008 22.1473V20.7961C21.0231 20.8866 21.5244 20.9926 22.0007 21.1127V22.4879C21.5317 22.3593 21.03 22.245 20.5008 22.1473Z" fill="#000000" class="bmwfcol"/><path d="M11.5008 20.7962C10.9784 20.8867 10.4771 20.9926 10.0007 21.1128V22.4879C10.4698 22.3593 10.9715 22.2451 11.5008 22.1473V20.7962Z" fill="#000000" class="bmwfcol"/><path d="M25.8358 25.0426C25.8358 25.0286 25.8354 25.0143 25.8346 24.9999H27.1653C27.1656 25.0141 27.1658 25.0284 27.1658 25.0426C27.1658 25.8458 26.7309 26.532 26.1177 27.0776C25.5038 27.6237 24.6535 28.0852 23.6596 28.4592C21.6671 29.2091 18.9592 29.6592 16.0008 29.6592C13.0425 29.6592 10.3346 29.2091 8.34206 28.4592C7.34823 28.0852 6.49784 27.6237 5.88403 27.0776C5.27084 26.532 4.83594 25.8458 4.83594 25.0426C4.83594 25.0284 4.83608 25.0141 4.83635 24.9999H6.16705C6.1663 25.0143 6.16594 25.0286 6.16594 25.0426C6.16594 25.3307 6.31866 25.684 6.76812 26.084C7.21695 26.4833 7.90424 26.8734 8.81052 27.2144C10.6182 27.8947 13.1602 28.3292 16.0008 28.3292C18.8415 28.3292 21.3835 27.8947 23.1912 27.2144C24.0975 26.8734 24.7847 26.4833 25.2336 26.084C25.683 25.684 25.8358 25.3307 25.8358 25.0426Z" fill="#000000" class="bmwfcol"/><path d="M13.6997 14.7202C13.6799 14.7662 13.6659 14.8343 13.6659 14.9517V19.335H15.1659V27H13.8359V20.665H12.3359V14.9517C12.3359 14.7432 12.3583 14.4732 12.4776 14.1953C12.6016 13.9067 12.8118 13.652 13.1209 13.4499C13.702 13.0698 14.6185 12.885 16.0009 12.885C17.3834 12.885 18.2998 13.0698 18.881 13.4499C19.1901 13.652 19.4003 13.9067 19.5243 14.1953C19.6436 14.4732 19.6659 14.7432 19.6659 14.9517V20.665H18.1659V27H16.8359V19.335H18.3359V14.9517C18.3359 14.8343 18.322 14.7662 18.3022 14.7202C18.2871 14.6849 18.2553 14.6298 18.1531 14.563C17.9117 14.4052 17.3281 14.215 16.0009 14.215C14.6738 14.215 14.0902 14.4052 13.8488 14.563C13.7466 14.6298 13.7148 14.6849 13.6997 14.7202Z" fill="#000000" class="bmwfcol"/><path d="M16.0013 7.875C15.5388 7.875 15.008 7.96685 14.6 8.35545C14.1872 8.74856 14.0263 9.32351 14.0263 10C14.0263 10.6765 14.1872 11.2514 14.6 11.6446C15.008 12.0331 15.5388 12.125 16.0013 12.125C16.4638 12.125 16.9946 12.0331 17.4027 11.6446C17.8154 11.2514 17.9763 10.6765 17.9763 10C17.9763 9.32351 17.8154 8.74856 17.4027 8.35545C16.9946 7.96685 16.4638 7.875 16.0013 7.875ZM15.2763 10C15.2763 9.49792 15.3967 9.32287 15.4621 9.26062C15.5321 9.19386 15.6763 9.125 16.0013 9.125C16.3263 9.125 16.4705 9.19386 16.5406 9.26062C16.606 9.32287 16.7263 9.49792 16.7263 10C16.7263 10.5021 16.606 10.6771 16.5406 10.7394C16.4705 10.8061 16.3263 10.875 16.0013 10.875C15.6763 10.875 15.5321 10.8061 15.4621 10.7394C15.3967 10.6771 15.2763 10.5021 15.2763 10Z" fill="#000000" class="bmwfcol"/><path d="M4.69967 11.7202C4.6799 11.7662 4.66594 11.8343 4.66594 11.9517V16.335H6.16594V24H4.83594V17.665H3.33594V11.9517C3.33594 11.7432 3.35827 11.4732 3.47762 11.1953C3.60158 10.9067 3.81176 10.652 4.12087 10.4499C4.70204 10.0698 5.61848 9.885 7.00094 9.885C8.3834 9.885 9.29983 10.0698 9.88101 10.4499C10.1901 10.652 10.4003 10.9067 10.5243 11.1953C10.6436 11.4732 10.6659 11.7432 10.6659 11.9517V17.665H9.16594V24H7.83594V16.335H9.33594V11.9517C9.33594 11.8343 9.32198 11.7662 9.30221 11.7202C9.28705 11.6849 9.25528 11.6298 9.1531 11.563C8.91168 11.4052 8.32812 11.215 7.00094 11.215C5.67376 11.215 5.0902 11.4052 4.84878 11.563C4.74659 11.6298 4.71482 11.6849 4.69967 11.7202Z" fill="#000000" class="bmwfcol"/><path d="M7.00133 4.875C6.53884 4.875 6.00801 4.96685 5.59998 5.35545C5.18722 5.74856 5.02633 6.32351 5.02633 7C5.02633 7.67649 5.18722 8.25144 5.59998 8.64455C6.00801 9.03315 6.53884 9.125 7.00133 9.125C7.46381 9.125 7.99465 9.03315 8.40267 8.64455C8.81544 8.25144 8.97633 7.67649 8.97633 7C8.97633 6.32351 8.81544 5.74856 8.40267 5.35545C7.99465 4.96685 7.46381 4.875 7.00133 4.875ZM6.27633 7C6.27633 6.49792 6.39669 6.32287 6.46205 6.26062C6.53215 6.19386 6.67631 6.125 7.00133 6.125C7.32634 6.125 7.47051 6.19386 7.54061 6.26062C7.60597 6.32287 7.72633 6.49792 7.72633 7C7.72633 7.50208 7.60597 7.67713 7.54061 7.73938C7.47051 7.80614 7.32634 7.875 7.00133 7.875C6.67631 7.875 6.53215 7.80614 6.46205 7.73938C6.39669 7.67713 6.27633 7.50208 6.27633 7Z" fill="#000000" class="bmwfcol"/><path d="M22.6997 11.7202C22.6799 11.7662 22.6659 11.8343 22.6659 11.9517V16.335H24.1659V24H22.8359V17.665H21.3359V11.9517C21.3359 11.7432 21.3583 11.4732 21.4776 11.1953C21.6016 10.9067 21.8118 10.652 22.1209 10.4499C22.702 10.0698 23.6185 9.885 25.0009 9.885C26.3834 9.885 27.2998 10.0698 27.881 10.4499C28.1901 10.652 28.4003 10.9067 28.5243 11.1953C28.6436 11.4732 28.6659 11.7432 28.6659 11.9517V17.665H27.1659V24H25.8359V16.335H27.3359V11.9517C27.3359 11.8343 27.322 11.7662 27.3022 11.7202C27.2871 11.6849 27.2553 11.6298 27.1531 11.563C26.9117 11.4052 26.3281 11.215 25.0009 11.215C23.6738 11.215 23.0902 11.4052 22.8488 11.563C22.7466 11.6298 22.7148 11.6849 22.6997 11.7202Z" fill="#000000" class="bmwfcol"/><path d="M25.0013 4.875C24.5388 4.875 24.008 4.96685 23.6 5.35545C23.1872 5.74856 23.0263 6.32351 23.0263 7C23.0263 7.67649 23.1872 8.25144 23.6 8.64455C24.008 9.03315 24.5388 9.125 25.0013 9.125C25.4638 9.125 25.9946 9.03315 26.4027 8.64455C26.8154 8.25144 26.9763 7.67649 26.9763 7C26.9763 6.32351 26.8154 5.74856 26.4027 5.35545C25.9946 4.96685 25.4638 4.875 25.0013 4.875ZM24.2763 7C24.2763 6.49792 24.3967 6.32287 24.462 6.26062C24.5321 6.19386 24.6763 6.125 25.0013 6.125C25.3263 6.125 25.4705 6.19386 25.5406 6.26062C25.606 6.32287 25.7263 6.49792 25.7263 7C25.7263 7.50208 25.606 7.67713 25.5406 7.73938C25.4705 7.80614 25.3263 7.875 25.0013 7.875C24.6763 7.875 24.5321 7.80614 24.462 7.73938C24.3967 7.67713 24.2763 7.50208 24.2763 7Z" fill="#000000" class="bmwfcol"/><title>people_group_on_circle_lt_48</title></svg>