<svg width="48" height="48" viewBox="0 0 32 32" xmlns="http://www.w3.org/2000/svg"><path d="M7.97443 5.45774C8.80572 4.62645 9.93687 4.38086 11.091 4.38086C12.2451 4.38086 13.3762 4.62645 14.2075 5.45774C15.0367 6.28689 15.4378 7.56892 15.4378 9.34133C15.4378 11.1137 15.0367 12.3958 14.2075 13.2249C13.3762 14.0562 12.2451 14.3018 11.091 14.3018C9.93687 14.3018 8.80572 14.0562 7.97443 13.2249C7.14527 12.3958 6.74414 11.1137 6.74414 9.34133C6.74414 7.56892 7.14527 6.28689 7.97443 5.45774ZM8.91488 6.39819C8.44006 6.87301 8.07414 7.73872 8.07414 9.34133C8.07414 10.9439 8.44006 11.8096 8.91488 12.2845C9.38757 12.7572 10.0973 12.9718 11.091 12.9718C12.0846 12.9718 12.7944 12.7572 13.2671 12.2845C13.7419 11.8096 14.1078 10.9439 14.1078 9.34133C14.1078 7.73872 13.7419 6.87301 13.2671 6.39819C12.7944 5.9255 12.0846 5.71086 11.091 5.71086C10.0973 5.71086 9.38757 5.9255 8.91488 6.39819Z" fill="#000000" class="bmwfcol"/><path d="M21.6109 6.22168C20.6102 6.22168 19.6105 6.43439 18.8724 7.17254C18.1364 7.90856 17.79 9.03718 17.79 10.5685C17.79 12.0998 18.1364 13.2285 18.8724 13.9645C19.6105 14.7026 20.6102 14.9153 21.6109 14.9153C22.6116 14.9153 23.6112 14.7026 24.3494 13.9645C25.0854 13.2285 25.4317 12.0998 25.4317 10.5685C25.4317 9.03718 25.0854 7.90856 24.3494 7.17254C23.6112 6.43439 22.6116 6.22168 21.6109 6.22168ZM19.12 10.5685C19.12 9.20697 19.4312 8.49468 19.8128 8.113C20.1924 7.73345 20.7707 7.55168 21.6109 7.55168C22.4511 7.55168 23.0294 7.73345 23.4089 8.113C23.7906 8.49468 24.1017 9.20697 24.1017 10.5685C24.1017 11.93 23.7906 12.6423 23.4089 13.024C23.0294 13.4036 22.4511 13.5853 21.6109 13.5853C20.7707 13.5853 20.1924 13.4036 19.8128 13.024C19.4312 12.6423 19.12 11.93 19.12 10.5685Z" fill="#000000" class="bmwfcol"/><path d="M26.7074 21.0005H28.085L28.0388 20.8277C27.618 19.2548 27.1655 18.1774 26.0546 17.6396C25.5337 17.3875 24.9213 17.2812 24.2196 17.2298C23.5216 17.1787 22.6667 17.1787 21.6348 17.1787H21.5864C20.5545 17.1787 19.6996 17.1787 19.0016 17.2298C18.8638 17.2399 18.7295 17.2521 18.5986 17.2671C18.8863 17.6599 19.1167 18.0909 19.3096 18.5428C19.9169 18.509 20.6622 18.5087 21.6106 18.5087C22.6718 18.5087 23.4786 18.5091 24.1226 18.5562C24.7683 18.6035 25.1811 18.6944 25.4751 18.8368C25.9749 19.0787 26.3054 19.5519 26.7074 21.0005Z" fill="#000000" class="bmwfcol"/><path d="M3.65234 21.0002H5.02981C5.50264 19.2863 5.89986 18.684 6.53389 18.3771C6.89586 18.2019 7.39407 18.0946 8.15208 18.0391C8.90831 17.9837 9.85428 17.9833 11.0908 17.9833C12.3273 17.9833 13.2732 17.9837 14.0295 18.0391C14.7875 18.0946 15.2857 18.2019 15.6476 18.3771C16.2817 18.684 16.6789 19.2863 17.1517 21.0002H18.5292L18.4832 20.8283C17.9921 18.9924 17.4739 17.7835 16.2271 17.18C15.6383 16.895 14.9405 16.7722 14.1265 16.7126C13.3162 16.6533 12.3222 16.6533 11.1152 16.6533H11.0663C9.8593 16.6533 8.86529 16.6533 8.055 16.7126C7.24103 16.7722 6.54321 16.895 5.95441 17.18C4.70766 17.7835 4.1894 18.9924 3.69833 20.8283L3.65234 21.0002Z" fill="#000000" class="bmwfcol"/><path d="M17.6592 23.2051H20.2187C20.7925 23.2051 21.2201 23.2475 21.5824 23.4632L21.5852 23.4649C21.9983 23.7198 22.2366 24.1658 22.2366 24.6962C22.2366 25.0977 22.0968 25.3945 21.9217 25.7067L21.9182 25.7129C21.8501 25.8247 21.7789 25.9395 21.7128 26.0451C21.8413 26.1436 21.9619 26.2567 22.0705 26.4015L22.0712 26.4024C22.249 26.6424 22.3628 26.9827 22.3628 27.397C22.3628 27.9668 22.1769 28.4467 21.7849 28.7613C21.4133 29.0715 20.9046 29.1998 20.1668 29.1998H17.6592V23.2051ZM18.7715 24.2877V25.6017H20.7372C20.7986 25.501 20.8585 25.4022 20.9141 25.3077C21.0449 25.0824 21.1095 24.9364 21.1095 24.7555C21.1095 24.6432 21.0906 24.5698 21.0626 24.5184C21.0358 24.4695 20.9923 24.4249 20.9134 24.3841L20.91 24.3823C20.8516 24.3507 20.7659 24.3254 20.6396 24.3093C20.5141 24.2933 20.361 24.2877 20.1742 24.2877H18.7715ZM18.7715 26.6844V28.1171H20.1742C20.6441 28.1171 20.872 28.0505 21.0193 27.9415C21.1599 27.8359 21.2356 27.6694 21.2356 27.397C21.2356 27.2504 21.2128 27.1388 21.1705 27.0495C21.1291 26.9621 21.0636 26.8844 20.9594 26.8129C20.8254 26.7218 20.6464 26.6844 20.3375 26.6844H18.7715Z" fill="#000000" class="bmwfcol"/><path d="M23.243 23.2051H25.5726C26.3054 23.2051 26.795 23.2773 27.1999 23.5872C27.5979 23.8882 27.7834 24.3945 27.7834 24.9188C27.7834 25.4827 27.5432 25.8759 27.2479 26.2333L27.2465 26.2349C27.0839 26.4276 26.8983 26.6289 26.7505 26.7856L28.2214 29.1998H26.907L25.5937 27.0405H24.3553V29.1998H23.243V23.2051ZM24.3553 24.2951V25.9505H26.0136C26.1399 25.8175 26.2557 25.6938 26.3545 25.5765L26.3563 25.5743C26.5384 25.3643 26.6562 25.1655 26.6562 24.9188C26.6562 24.7894 26.6367 24.6907 26.6008 24.6138C26.5662 24.5396 26.5117 24.4755 26.4237 24.4206C26.28 24.3301 26.0575 24.2951 25.5132 24.2951H24.3553Z" fill="#000000" class="bmwfcol"/><title>people_group_and_br_lt_48</title></svg>