<svg width="48" height="48" viewBox="0 0 32 32" xmlns="http://www.w3.org/2000/svg"><path d="M6.99996 4.33496C6.04472 4.33496 5.08403 4.53793 4.37349 5.24848C3.66507 5.9569 3.33496 7.04006 3.33496 8.49996C3.33496 9.95986 3.66507 11.043 4.37349 11.7514C5.08403 12.462 6.04472 12.665 6.99996 12.665C7.9552 12.665 8.91589 12.462 9.62644 11.7514C10.3349 11.043 10.665 9.95986 10.665 8.49996C10.665 7.04006 10.3349 5.9569 9.62644 5.24848C8.91589 4.53793 7.9552 4.33496 6.99996 4.33496ZM4.66496 8.49996C4.66496 7.20986 4.95985 6.54302 5.31394 6.18894C5.66589 5.83699 6.2052 5.66496 6.99996 5.66496C7.79472 5.66496 8.33403 5.83699 8.68599 6.18894C9.04007 6.54302 9.33496 7.20986 9.33496 8.49996C9.33496 9.79006 9.04007 10.4569 8.68599 10.811C8.33403 11.1629 7.79472 11.335 6.99996 11.335C6.2052 11.335 5.66589 11.1629 5.31394 10.811C4.95985 10.4569 4.66496 9.79006 4.66496 8.49996Z" fill="#000000" class="bmwfcol"/><path d="M16 10.335C14.7584 10.335 13.5514 10.589 12.6634 11.4454C11.7721 12.3048 11.335 13.6414 11.335 15.5C11.335 17.3585 11.7721 18.6951 12.6634 19.5546C13.5514 20.4109 14.7584 20.665 16 20.665C17.2415 20.665 18.4485 20.4109 19.3366 19.5546C20.2278 18.6951 20.665 17.3585 20.665 15.5C20.665 13.6414 20.2278 12.3048 19.3366 11.4454C18.4485 10.589 17.2415 10.335 16 10.335ZM12.665 15.5C12.665 13.8228 13.0611 12.9094 13.5866 12.4028C14.1152 11.893 14.9082 11.665 16 11.665C17.0917 11.665 17.8847 11.893 18.4134 12.4028C18.9388 12.9094 19.335 13.8228 19.335 15.5C19.335 17.1771 18.9388 18.0905 18.4134 18.5972C17.8847 19.1069 17.0917 19.335 16 19.335C14.9082 19.335 14.1152 19.1069 13.5866 18.5972C13.0611 18.0905 12.665 17.1771 12.665 15.5Z" fill="#000000" class="bmwfcol"/><path d="M6.97168 28H8.34904C9.0035 25.604 9.5317 24.674 10.3962 24.2112C10.8606 23.9626 11.4826 23.8163 12.4077 23.7409C13.333 23.6655 14.4893 23.665 15.9996 23.665C17.5099 23.665 18.6662 23.6655 19.5915 23.7409C20.5166 23.8163 21.1386 23.9626 21.603 24.2112C22.4675 24.674 22.9957 25.604 23.6502 28H25.0275L24.9814 27.8278C24.3179 25.3517 23.6807 23.815 22.2308 23.0387C21.5278 22.6623 20.6912 22.4961 19.6995 22.4153C18.7141 22.335 17.5043 22.335 16.027 22.335C14.5497 22.335 13.2851 22.335 12.2997 22.4153C11.308 22.4961 10.4714 22.6623 9.7684 23.0387C8.31847 23.815 7.68128 25.3517 7.01781 27.8278L6.97168 28Z" fill="#000000" class="bmwfcol"/><path d="M2.18917 18H0.811523L0.857499 17.8281C1.25738 16.3331 1.69041 15.2947 2.7611 14.7764C3.26186 14.534 3.84894 14.4325 4.51735 14.3836C5.18209 14.335 6.04402 14.3352 7.02403 14.3352C7.77873 14.3352 8.4348 14.335 9.00016 14.3572V15.6882C8.45912 15.6652 7.80752 15.665 6.99992 15.665C5.99071 15.665 5.2251 15.6654 4.61443 15.7101C4.00197 15.7549 3.61451 15.8409 3.34058 15.9735C2.88059 16.1962 2.56993 16.631 2.18917 18Z" fill="#000000" class="bmwfcol"/><path d="M23 15.6882V14.3572C23.5653 14.335 24.2212 14.335 24.9756 14.335C25.9556 14.335 26.8176 14.335 27.4823 14.3836C28.1507 14.4325 28.7378 14.534 29.2386 14.7764C30.3093 15.2947 30.7423 16.3331 31.1422 17.8281L31.1881 18H29.8105C29.4297 16.631 29.1191 16.1962 28.6591 15.9735C28.3852 15.8409 27.9977 15.7549 27.3852 15.7101C26.7746 15.6654 26.009 15.665 24.9998 15.665C24.1924 15.665 23.5409 15.6652 23 15.6882Z" fill="#000000" class="bmwfcol"/><path d="M25 4.33496C24.0447 4.33496 23.084 4.53793 22.3735 5.24848C21.6651 5.9569 21.335 7.04006 21.335 8.49996C21.335 9.95986 21.6651 11.043 22.3735 11.7514C23.084 12.462 24.0447 12.665 25 12.665C25.9552 12.665 26.9159 12.462 27.6264 11.7514C28.3349 11.043 28.665 9.95986 28.665 8.49996C28.665 7.04006 28.3349 5.9569 27.6264 5.24848C26.9159 4.53793 25.9552 4.33496 25 4.33496ZM22.665 8.49996C22.665 7.20986 22.9599 6.54302 23.3139 6.18894C23.6659 5.83699 24.2052 5.66496 25 5.66496C25.7947 5.66496 26.334 5.83699 26.686 6.18894C27.0401 6.54302 27.335 7.20986 27.335 8.49996C27.335 9.79006 27.0401 10.4569 26.686 10.811C26.334 11.1629 25.7947 11.335 25 11.335C24.2052 11.335 23.6659 11.1629 23.3139 10.811C22.9599 10.4569 22.665 9.79006 22.665 8.49996Z" fill="#000000" class="bmwfcol"/><title>people-group_lt_48</title></svg>