<svg width="48" height="48" viewBox="0 0 32 32" xmlns="http://www.w3.org/2000/svg"><path d="M21.0709 6.00586H22.1832V12.0005H21.0709V6.00586Z" fill="#000000" class="bmwfcol"/><path d="M23.4851 6.00586H28.5597V7.09592H26.5786V12.0005H25.4663V7.09592H23.4851V6.00586Z" fill="#000000" class="bmwfcol"/><path d="M9.66385 9.4459C10.5519 8.58957 11.7589 8.33549 13.0004 8.33549C14.242 8.33549 15.449 8.58957 16.337 9.4459C17.2283 10.3053 17.6654 11.6419 17.6654 13.5005C17.6654 15.3591 17.2283 16.6957 16.337 17.5551C15.449 18.4114 14.242 18.6655 13.0004 18.6655C11.7589 18.6655 10.5519 18.4114 9.66385 17.5551C8.77262 16.6957 8.33545 15.3591 8.33545 13.5005C8.33545 11.6419 8.77262 10.3053 9.66385 9.4459ZM10.587 10.4033C10.0616 10.91 9.66545 11.8233 9.66545 13.5005C9.66545 15.1776 10.0616 16.091 10.587 16.5977C11.1157 17.1074 11.9087 17.3355 13.0004 17.3355C14.0922 17.3355 14.8852 17.1074 15.4138 16.5977C15.9393 16.091 16.3354 15.1776 16.3354 13.5005C16.3354 11.8233 15.9393 10.91 15.4138 10.4033C14.8852 9.89355 14.0922 9.66549 13.0004 9.66549C11.9087 9.66549 11.1157 9.89355 10.587 10.4033Z" fill="#000000" class="bmwfcol"/><path d="M4.95504 26.0005H3.57812L3.75801 25.3291C4.35322 23.0972 4.9351 21.6693 6.42838 20.962C7.13613 20.6268 7.99559 20.4794 9.03751 20.4074C10.0776 20.3355 11.3714 20.3355 12.9761 20.3355H13.0248C14.6295 20.3355 15.9235 20.3355 16.9636 20.4074C18.0055 20.4794 18.865 20.6268 19.5728 20.962C21.0659 21.6693 21.6478 23.0967 22.2429 25.3284L22.423 26.0005H21.0461L20.9583 25.6726C20.8331 25.2031 20.7137 24.7955 20.5953 24.4406C20.1418 23.0813 19.7025 22.4951 19.0034 22.164C18.5236 21.9367 17.8644 21.8028 16.8719 21.7342C16.454 21.7053 15.9897 21.6886 15.4696 21.6789C14.7589 21.6656 13.944 21.6655 13.0006 21.6655C11.3666 21.6655 10.1182 21.6659 9.12923 21.7342C8.13677 21.8028 7.47749 21.9367 6.99774 22.164C6.11609 22.5816 5.64787 23.404 5.0431 25.6718L4.95504 26.0005Z" fill="#000000" class="bmwfcol"/><title>person_it_lt_48</title></svg>