<svg width="48" height="48" viewBox="0 0 32 32" xmlns="http://www.w3.org/2000/svg"><path d="M5.08423 28H3.70703L3.753 27.8282C4.55705 24.8222 5.39506 23.0337 7.33537 22.1454C8.26444 21.72 9.39477 21.5258 10.7811 21.4303C12.1649 21.335 13.8711 21.335 15.9765 21.335C18.0819 21.335 19.8357 21.335 21.2195 21.4303C22.6059 21.5258 23.7362 21.72 24.6652 22.1454C26.6055 23.0337 27.4435 24.8222 28.2476 27.8282L28.2936 28H26.9164C26.134 25.1311 25.4216 23.9544 24.1115 23.3546C23.4025 23.03 22.4637 22.8492 21.1281 22.7572C19.7951 22.6654 18.1339 22.665 16.0003 22.665C13.8666 22.665 12.2055 22.6654 10.8725 22.7572C9.53684 22.8492 8.59811 23.03 7.88904 23.3546C6.57898 23.9544 5.86657 25.1311 5.08423 28Z" fill="#000000" class="bmwfcol"/><path d="M12.158 5.90769C11.2726 6.793 10.6652 8.33487 10.6652 10.9999C10.6652 13.6651 11.2726 15.2069 12.158 16.0923C13.0412 16.9755 14.3305 17.3349 16.0002 17.3349C17.67 17.3349 18.9593 16.9755 19.8425 16.0923C20.7278 15.2069 21.3352 13.6651 21.3352 10.9999C21.3352 8.33487 20.7278 6.793 19.8425 5.90769C18.9593 5.02449 17.67 4.66496 16.0002 4.66496C14.3305 4.66496 13.0412 5.02449 12.158 5.90769ZM11.2175 4.96723C12.4593 3.72543 14.17 3.33496 16.0002 3.33496C17.8305 3.33496 19.5412 3.72543 20.783 4.96723C22.0226 6.2069 22.6652 8.16507 22.6652 10.9999C22.6652 13.8349 22.0226 15.793 20.783 17.0327C19.5412 18.2745 17.8305 18.6649 16.0002 18.6649C14.17 18.6649 12.4593 18.2745 11.2175 17.0327C9.97786 15.793 9.33526 13.8349 9.33526 10.9999C9.33526 8.16507 9.97786 6.2069 11.2175 4.96723Z" fill="#000000" class="bmwfcol"/><title>person_lt_48</title></svg>