<svg width="48" height="48" viewBox="0 0 32 32" xmlns="http://www.w3.org/2000/svg"><path d="M16.0048 3.33502C14.1746 3.33502 12.4639 3.7255 11.2221 4.9673C9.98245 6.20696 9.33984 8.16513 9.33984 11C9.33984 13.8349 9.98245 15.7931 11.2221 17.0327C12.4639 18.2745 14.1746 18.665 16.0048 18.665C17.8351 18.665 19.5458 18.2745 20.7876 17.0327C22.0272 15.7931 22.6698 13.8349 22.6698 11C22.6698 8.16513 22.0272 6.20696 20.7876 4.9673C19.5458 3.7255 17.8351 3.33502 16.0048 3.33502ZM10.6698 11C10.6698 8.33492 11.2772 6.79308 12.1626 5.90775C13.0458 5.02455 14.3351 4.66502 16.0048 4.66502C17.6746 4.66502 18.9639 5.02455 19.8471 5.90775C20.7325 6.79308 21.3398 8.33492 21.3398 11C21.3398 13.6651 20.7325 15.207 19.8471 16.0923C18.9639 16.9755 17.6746 17.335 16.0048 17.335C14.3351 17.335 13.0458 16.9755 12.1626 16.0923C11.2772 15.207 10.6698 13.6651 10.6698 11Z" fill="#000000" class="bmwfcol"/><path d="M3.71094 28H5.08814C5.87048 25.1311 6.58288 23.9544 7.89294 23.3546C8.602 23.03 9.54073 22.8492 10.8764 22.7572C11.9937 22.6802 13.3416 22.6675 15.0051 22.6654V21.3354C13.3401 21.3374 11.9486 21.3502 10.785 21.4303C9.39865 21.5258 8.26833 21.72 7.33927 22.1454C5.39896 23.0337 4.56094 24.8222 3.7569 27.8282L3.71094 28Z" fill="#000000" class="bmwfcol"/><path d="M24.5092 17.285H23.4931L22.1625 21.3797L17.857 21.3799L17.543 22.3463L21.0261 24.8771L19.6958 28.9719L20.5178 29.5692L24.0012 27.0386L27.4845 29.5692L28.3065 28.9719L26.9762 24.8771L30.4594 22.3463L30.1454 21.3799L25.8399 21.3797L24.5092 17.285ZM23.0706 22.6297L24.0012 19.7661L24.9317 22.6297L27.9426 22.6298L25.5068 24.3997L26.4371 27.2633L24.0012 25.4936L21.5652 27.2633L22.4955 24.3997L20.0597 22.6298L23.0706 22.6297Z" fill="#000000" class="bmwfcol"/><title>person_star_lt_48</title></svg>