<svg width="48" height="48" viewBox="0 0 32 32" xmlns="http://www.w3.org/2000/svg"><path d="M12.9778 23H11.5859C11.6978 22.6198 11.8079 22.289 11.9272 22.0068C12.1294 21.528 12.3849 21.1215 12.7873 20.8339C13.1858 20.5492 13.6503 20.4373 14.1518 20.3854C14.6391 20.3349 15.3116 20.3349 16.0325 20.335C16.7534 20.3349 17.357 20.3349 17.8442 20.3854C18.3458 20.4373 18.8103 20.5492 19.2088 20.8339C19.6111 21.1215 19.8666 21.528 20.0689 22.0068C20.1881 22.289 20.2982 22.6198 20.4102 23H19.0183C18.959 22.8187 18.9018 22.6617 18.8438 22.5244C18.6896 22.1594 18.5577 22.0034 18.4354 21.916C18.3092 21.8258 18.1116 21.7501 17.7073 21.7083C17.2965 21.6658 16.7619 21.665 15.998 21.665C15.2342 21.665 14.6995 21.6658 14.2887 21.7083C13.8844 21.7501 13.6869 21.8258 13.5607 21.916C13.4384 22.0034 13.3065 22.1594 13.1523 22.5244C13.0943 22.6617 13.0371 22.8187 12.9778 23Z" fill="#000000" class="bmwfcol"/><path d="M15.9989 13.085C15.3407 13.085 14.6337 13.2185 14.0998 13.7333C13.5627 14.2512 13.3339 15.0253 13.3339 16C13.3339 16.9746 13.5627 17.7487 14.0998 18.2666C14.6337 18.7814 15.3407 18.915 15.9989 18.915C16.6571 18.915 17.3641 18.7814 17.898 18.2666C18.4351 17.7487 18.6639 16.9746 18.6639 16C18.6639 15.0253 18.4351 14.2512 17.898 13.7333C17.3641 13.2185 16.6571 13.085 15.9989 13.085ZM14.6639 16C14.6639 15.2067 14.8517 14.8559 15.023 14.6907C15.1975 14.5225 15.4905 14.415 15.9989 14.415C16.5074 14.415 16.8004 14.5225 16.9748 14.6907C17.1461 14.8559 17.3339 15.2067 17.3339 16C17.3339 16.7932 17.1461 17.1441 16.9748 17.3092C16.8004 17.4774 16.5074 17.585 15.9989 17.585C15.4905 17.585 15.1975 17.4774 15.023 17.3092C14.8517 17.1441 14.6639 16.7932 14.6639 16Z" fill="#000000" class="bmwfcol"/><path d="M28.664 26.665V11C28.664 10.5531 28.5243 10.1198 28.2017 9.79727C27.8791 9.4747 27.4459 9.33499 26.999 9.33499L16.2744 9.33499C15.373 8.43371 14.671 7.73452 14.0907 7.19885C13.4706 6.62652 12.9578 6.21055 12.4539 5.92261C11.4246 5.33443 10.5087 5.33465 9.10083 5.33498L4.99899 5.33499C4.55205 5.33499 4.11884 5.47469 3.79626 5.79726C3.47369 6.11984 3.33398 6.55305 3.33398 6.99999V26.665L28.664 26.665ZM27.334 11V25.335L4.66399 25.335L4.66399 10.665L26.999 10.665C27.172 10.665 27.2388 10.7153 27.2613 10.7377C27.2837 10.7601 27.334 10.8269 27.334 11ZM14.39 9.33496H4.66399L4.66399 6.99999C4.66399 6.82693 4.71428 6.76015 4.73671 6.73772C4.75914 6.71529 4.82593 6.66499 4.99899 6.66499H8.99899C10.533 6.66499 11.098 6.67962 11.7941 7.07737C12.1652 7.28944 12.5898 7.62347 13.1886 8.17614C13.5338 8.49479 13.9263 8.87607 14.39 9.33496Z" fill="#000000" class="bmwfcol"/><title>personal-data-profile_lt_48</title></svg>