<svg width="48" height="48" viewBox="0 0 32 32" xmlns="http://www.w3.org/2000/svg"><path d="M11.2173 4.96727C12.4591 3.72547 14.1698 3.335 16.0001 3.335C17.8303 3.335 19.541 3.72547 20.7828 4.96727C22.0225 6.20694 22.6651 8.1651 22.6651 11C22.6651 13.8349 22.0225 15.7931 20.7828 17.0327C19.541 18.2745 17.8303 18.665 16.0001 18.665C14.1698 18.665 12.4591 18.2745 11.2173 17.0327C9.97767 15.7931 9.33506 13.8349 9.33506 11C9.33506 8.1651 9.97767 6.20694 11.2173 4.96727ZM12.1578 5.90773C11.2725 6.79306 10.6651 8.3349 10.6651 11C10.6651 13.6651 11.2725 15.2069 12.1578 16.0923C13.041 16.9755 14.3303 17.335 16.0001 17.335C17.6698 17.335 18.9591 16.9755 19.8423 16.0923C20.7277 15.2069 21.3351 13.6651 21.3351 11C21.3351 8.3349 20.7277 6.79306 19.8423 5.90773C18.9591 5.02453 17.6698 4.665 16.0001 4.665C14.3303 4.665 13.041 5.02453 12.1578 5.90773Z" fill="#000000" class="bmwfcol"/><path d="M5.08399 28H3.70679L3.75275 27.8282C4.55679 24.8222 5.39481 23.0337 7.33513 22.1454C8.26418 21.72 9.3945 21.5258 10.7809 21.4303C12.1647 21.335 13.871 21.335 15.9765 21.335H16.0001L16.0003 22.665C13.8666 22.665 12.2052 22.6654 10.8723 22.7572C9.53659 22.8492 8.59785 23.03 7.88879 23.3546C6.57873 23.9544 5.86633 25.1311 5.08399 28Z" fill="#000000" class="bmwfcol"/><path d="M29.4703 21.4702L28.5298 20.5298L23.0001 26.0595L20.4703 23.5298L19.5298 24.4702L23.0001 27.9405L29.4703 21.4702Z" fill="#000000" class="bmwfcol"/><title>person_checkmark_lt_48</title></svg>