<svg width="48" height="48" viewBox="0 0 32 32" xmlns="http://www.w3.org/2000/svg"><path d="M17 3.37378C19.7459 3.58806 22.246 4.67807 24.2211 6.36475L23.2774 7.30848C21.5478 5.85898 19.3792 4.91615 17 4.70838V3.37378Z" fill="#000000" class="bmwfcol"/><path d="M25.6354 7.7789C27.3223 9.75397 28.4126 12.254 28.627 15H27.2924C27.0845 12.6207 26.1414 10.4521 24.6917 8.72263L25.6354 7.7789Z" fill="#000000" class="bmwfcol"/><path d="M3.33594 16C3.33594 9.34215 8.47321 3.88421 15 3.37393V4.70854C9.20867 5.21525 4.66594 10.0771 4.66594 16C4.66594 22.2601 9.74079 27.335 16.0009 27.335C21.9241 27.335 26.7861 22.7918 27.2924 17H28.627C28.1172 23.5272 22.659 28.665 16.0009 28.665C9.00625 28.665 3.33594 22.9946 3.33594 16Z" fill="#000000" class="bmwfcol"/><path d="M13.3745 10.2485C14.085 9.53793 15.0457 9.33496 16.0009 9.33496C16.9562 9.33496 17.9169 9.53793 18.6274 10.2485C19.3358 10.9569 19.6659 12.0401 19.6659 13.5C19.6659 14.9599 19.3358 16.043 18.6274 16.7514C17.9169 17.462 16.9562 17.665 16.0009 17.665C15.0457 17.665 14.085 17.462 13.3745 16.7514C12.666 16.043 12.3359 14.9599 12.3359 13.5C12.3359 12.0401 12.666 10.9569 13.3745 10.2485ZM14.3149 11.1889C13.9608 11.543 13.6659 12.2099 13.6659 13.5C13.6659 14.7901 13.9608 15.4569 14.3149 15.811C14.6669 16.1629 15.2062 16.335 16.0009 16.335C16.7957 16.335 17.335 16.1629 17.687 15.811C18.041 15.4569 18.3359 14.7901 18.3359 13.5C18.3359 12.2099 18.041 11.543 17.687 11.1889C17.335 10.837 16.7957 10.665 16.0009 10.665C15.2062 10.665 14.6669 10.837 14.3149 11.1889Z" fill="#000000" class="bmwfcol"/><path d="M11.1901 23H9.8125L9.85848 22.8281C10.2584 21.3331 10.6914 20.2947 11.7621 19.7764C12.2628 19.534 12.8499 19.4325 13.5183 19.3836C14.1831 19.335 14.9967 19.335 15.9768 19.335C16.9568 19.335 17.8187 19.335 18.4835 19.3836C19.1519 19.4325 19.739 19.534 20.2397 19.7764C21.3104 20.2947 21.7434 21.3331 22.1433 22.8281L22.1893 23H20.8116C20.4309 21.631 20.1202 21.1962 19.6602 20.9735C19.3863 20.8409 18.9988 20.7549 18.3864 20.7101C17.7757 20.6654 17.0101 20.665 16.0009 20.665C14.9917 20.665 14.2261 20.6654 13.6154 20.7101C13.003 20.7549 12.6155 20.8409 12.3416 20.9735C11.8816 21.1962 11.5709 21.631 11.1901 23Z" fill="#000000" class="bmwfcol"/><title>personal-data-usage_lt_48</title></svg>