<svg width="48" height="48" viewBox="0 0 32 32" xmlns="http://www.w3.org/2000/svg"><path d="M16 3.33496C14.1697 3.33496 12.459 3.72543 11.2172 4.96723C9.97757 6.2069 9.33496 8.16506 9.33496 11C9.33496 13.8349 9.97757 15.793 11.2172 17.0327C12.459 18.2745 14.1697 18.665 16 18.665C17.8302 18.665 19.5409 18.2745 20.7827 17.0327C22.0224 15.793 22.665 13.8349 22.665 11C22.665 8.16506 22.0224 6.2069 20.7827 4.96723C19.5409 3.72543 17.8302 3.33496 16 3.33496ZM10.665 11C10.665 8.33486 11.2724 6.79302 12.1577 5.90769C13.0409 5.02449 14.3302 4.66496 16 4.66496C17.6697 4.66496 18.959 5.02449 19.8422 5.90769C20.7276 6.79302 21.335 8.33486 21.335 11C21.335 13.6651 20.7276 15.2069 19.8422 16.0922C18.959 16.9754 17.6697 17.335 16 17.335C14.3302 17.335 13.0409 16.9754 12.1577 16.0922C11.2724 15.2069 10.665 13.6651 10.665 11Z" fill="#000000" class="bmwfcol"/><path d="M3.70605 28.0004H5.08325C5.82718 25.2724 6.50786 24.0744 7.69928 23.4477V21.9941C7.57431 22.0411 7.45273 22.0915 7.33441 22.1457C5.39409 23.034 4.55607 24.8225 3.75203 27.8285L3.70605 28.0004Z" fill="#000000" class="bmwfcol"/><path d="M9.33496 18.7368H10.6781L15.1783 21.335H16.8218L21.3219 18.7368H22.6651V22.2367C22.1934 22.4104 21.747 22.6405 21.3351 22.9276V20.265L18.3299 22L20.7491 23.3967C20.6881 23.4527 20.628 23.5101 20.5691 23.5691C20.3048 23.8334 20.0709 24.1194 19.8673 24.4234L16.8216 22.665H15.1784L10.6781 25.2632H9.33496V18.7368ZM10.665 20.265V23.7351L13.6702 22L10.665 20.265Z" fill="#000000" class="bmwfcol"/><path d="M29.665 28V28.335H31V29.665L19 29.665V28.335H20.335V28C20.335 26.6488 20.7882 25.4712 21.6297 24.6297C22.33 23.9295 23.2629 23.4981 24.335 23.373V22H25.665V23.373C26.737 23.4981 27.67 23.9295 28.3702 24.6297C29.2117 25.4712 29.665 26.6488 29.665 28ZM21.665 28V28.335L28.335 28.335V28C28.335 26.9511 27.9882 26.1287 27.4297 25.5702C26.8712 25.0117 26.0488 24.665 25 24.665C23.9511 24.665 23.1287 25.0117 22.5702 25.5702C22.0117 26.1287 21.665 26.9511 21.665 28Z" fill="#000000" class="bmwfcol"/><title>person-office_lt_48</title></svg>