<svg width="48" height="48" viewBox="0 0 32 32" xmlns="http://www.w3.org/2000/svg"><path d="M16.0009 4.32868C19.391 4.31875 22.2807 5.43379 24.3435 7.44735C26.4348 9.48876 27.6233 12.4022 27.665 15.8531C27.7066 19.304 26.5888 22.2453 24.5474 24.3366C22.506 26.4279 19.5925 27.6164 16.1416 27.658C10.8554 27.7218 8.11235 25.0799 4.66594 21.6776V27.665L3.33594 26.335V19.335H10.3359L11.6659 20.665H5.53524C9.03892 24.1144 11.3962 26.3852 16.1256 26.3281C19.2742 26.2901 21.8338 25.2124 23.5956 23.4075C25.3575 21.6026 26.3731 19.0178 26.3351 15.8692C26.2971 12.7205 25.2194 10.1609 23.4145 8.39909C21.6335 6.66058 19.0931 5.64868 16.0009 5.65868V4.32868Z" fill="#000000" class="bmwfcol"/><path d="M10.0771 5.70478C10.9623 5.24079 11.9312 4.88817 12.9714 4.65607L13.3148 5.94206C12.3819 6.14553 11.5214 6.45497 10.7411 6.85874L10.0771 5.70478Z" fill="#000000" class="bmwfcol"/><path d="M7.45429 7.6512C6.75868 8.36381 6.17029 9.17513 5.69848 10.0717L6.85237 10.7356C7.27151 9.92901 7.7937 9.20752 8.40602 8.58023C8.43338 8.55221 8.46094 8.52435 8.48868 8.49668L7.54766 7.55678C7.51634 7.58805 7.48522 7.61952 7.45429 7.6512Z" fill="#000000" class="bmwfcol"/><path d="M4.33564 16C4.33207 14.9311 4.44031 13.912 4.65327 12.9528L5.93895 13.298C5.75613 14.142 5.66213 15.0447 5.66564 16H4.33564Z" fill="#000000" class="bmwfcol"/><path d="M16.6659 8.99999V15.616L21.5296 18.4241L20.8646 19.5759L15.3359 16.3839V8.99999H16.6659Z" fill="#000000" class="bmwfcol"/><title>personal-data-storage_lt_48</title></svg>