<svg width="48" height="48" viewBox="0 0 32 32" xmlns="http://www.w3.org/2000/svg"><path d="M11.2163 4.96723C12.4581 3.72543 14.1687 3.33496 15.999 3.33496C17.8292 3.33496 19.5399 3.72543 20.7817 4.96723C22.0214 6.2069 22.664 8.16506 22.664 11C22.664 13.8349 22.0214 15.793 20.7817 17.0327C19.5399 18.2745 17.8292 18.665 15.999 18.665C14.1687 18.665 12.4581 18.2745 11.2163 17.0327C9.97659 15.793 9.33398 13.8349 9.33398 11C9.33398 8.16506 9.97659 6.2069 11.2163 4.96723ZM12.1567 5.90769C11.2714 6.79302 10.664 8.33486 10.664 11C10.664 13.6651 11.2714 15.2069 12.1567 16.0922C13.0399 16.9754 14.3292 17.335 15.999 17.335C17.6687 17.335 18.9581 16.9754 19.8413 16.0922C20.7266 15.2069 21.334 13.6651 21.334 11C21.334 8.33486 20.7266 6.79302 19.8413 5.90769C18.9581 5.02449 17.6687 4.66496 15.999 4.66496C14.3292 4.66496 13.0399 5.02449 12.1567 5.90769Z" fill="#000000" class="bmwfcol"/><path d="M5.08228 28H3.70508L3.75105 27.8281C4.5551 24.8222 5.39311 23.0337 7.33343 22.1453C8.26248 21.72 9.3928 21.5258 10.7792 21.4303C12.163 21.335 13.9166 21.335 16.022 21.335C16.7245 21.335 17.3828 21.335 17.9993 21.3385V22.6686C17.3822 22.665 16.7171 22.665 15.9984 22.665C13.8647 22.665 12.2035 22.6653 10.8706 22.7571C9.53489 22.8491 8.59615 23.03 7.88709 23.3546C6.57703 23.9544 5.86463 25.1311 5.08228 28Z" fill="#000000" class="bmwfcol"/><path d="M29.664 20.335H20.334V24.5454C20.334 25.6472 20.5335 26.6997 21.1893 27.7229C22.0201 29.0192 23.3306 29.9085 24.6406 30.665H25.3574C26.6674 29.9085 27.9778 29.0191 28.8087 27.7229C29.4645 26.6997 29.664 25.6472 29.664 24.5454V20.335ZM21.664 24.5454V21.665H28.334V24.5454C28.334 25.4727 28.1699 26.2548 27.6889 27.0052C27.2159 27.7433 26.4003 28.5061 24.9988 29.335C23.5972 28.5061 22.7821 27.7433 22.3091 27.0052C21.8281 26.2548 21.664 25.4727 21.664 24.5454Z" fill="#000000" class="bmwfcol"/><title>personal-data-protection_lt_48</title></svg>