<svg width="48" height="48" viewBox="0 0 32 32" xmlns="http://www.w3.org/2000/svg"><path d="M16 2.33496C15.1862 2.33496 14.3477 2.51326 13.7263 3.15248C13.111 3.78539 12.835 4.74076 12.835 5.99996C12.835 7.25916 13.111 8.21453 13.7263 8.84745C14.3477 9.48666 15.1862 9.66496 16 9.66496C16.8137 9.66496 17.6522 9.48666 18.2736 8.84745C18.889 8.21453 19.165 7.25916 19.165 5.99996C19.165 4.74076 18.889 3.78539 18.2736 3.15248C17.6522 2.51326 16.8137 2.33496 16 2.33496ZM14.165 5.99996C14.165 4.90202 14.4098 4.35739 14.6799 4.07959C14.9438 3.80809 15.3554 3.66496 16 3.66496C16.6445 3.66496 17.0561 3.80809 17.32 4.07959C17.5901 4.35739 17.835 4.90202 17.835 5.99996C17.835 7.09791 17.5901 7.64253 17.32 7.92033C17.0561 8.19183 16.6445 8.33496 16 8.33496C15.3554 8.33496 14.9438 8.19183 14.6799 7.92033C14.4098 7.64253 14.165 7.09791 14.165 5.99996Z" fill="#000000" class="bmwfcol"/><path d="M11.5545 15.5H10.1777L10.3575 14.8281C10.7563 13.337 11.1859 12.3092 12.1785 11.7865C12.6513 11.5376 13.1962 11.4338 13.8004 11.3841C14.3979 11.335 15.1204 11.335 15.974 11.335H16.0258C16.8794 11.335 17.602 11.335 18.1994 11.3841C18.8037 11.4338 19.3485 11.5376 19.8214 11.7865C20.8139 12.3092 21.2435 13.337 21.6424 14.8281L21.8221 15.5H20.4453L20.3575 15.1718C19.9539 13.6629 19.6335 13.1907 19.2017 12.9634C18.9623 12.8373 18.6264 12.7537 18.0904 12.7096C17.5536 12.6655 16.885 12.665 15.9999 12.665C15.1148 12.665 14.4462 12.6655 13.9094 12.7096C13.3734 12.7537 13.0375 12.8373 12.7981 12.9634C12.3663 13.1907 12.0459 13.6629 11.6423 15.1718L11.5545 15.5Z" fill="#000000" class="bmwfcol"/><path d="M28.2502 15.7161C28.7919 15.9202 29.1821 16.2409 29.4704 16.5292L29.9408 16.9995L21.3805 25.5598C20.4671 26.4738 19.8611 27.0802 18.9604 27.3804C18.5023 27.5331 17.996 27.5999 17.3788 27.6323C16.7675 27.6645 16.0031 27.6645 15.0197 27.6645H11.2755L9.27547 29.6645H7.72457L2.05957 23.9995L6.53908 19.52C7.03122 19.0279 7.41277 18.6463 7.72213 18.3573C8.03096 18.0688 8.29789 17.8436 8.56144 17.6823C9.13111 17.3337 9.6195 17.334 10.2055 17.3345L10.3558 17.3345L14.0878 18.3345L19 18.3345C19.4511 18.3345 19.8787 18.4878 20.1953 18.8042C20.2275 18.8364 20.2579 18.8697 20.2868 18.904C22.9341 16.7811 24.8326 15.8367 26.2581 15.582C27.0498 15.4405 27.7038 15.5103 28.2502 15.7161ZM19.3352 19.9994C19.3352 19.8507 19.2885 19.7783 19.255 19.7448C19.2214 19.7112 19.1489 19.6645 19 19.6645L13.9127 19.6645L10.1811 18.6646C9.60188 18.666 9.47236 18.6841 9.25566 18.8167C9.11069 18.9054 8.92335 19.0552 8.63005 19.3292C8.33922 19.6009 7.97361 19.9664 7.47025 20.4697L3.94047 23.9995L8.27547 28.3345H8.72457L10.7246 26.3345H15C16.0071 26.3345 16.7367 26.3343 17.3089 26.3042C17.8792 26.2742 18.2479 26.216 18.5399 26.1186C19.11 25.9286 19.4944 25.5649 20.53 24.5293L27.9991 17.0602C27.9304 17.023 27.858 16.9896 27.7813 16.9607C27.4838 16.8487 27.0753 16.787 26.4921 16.8912C25.3248 17.0998 23.5039 17.9643 20.6652 20.3111L20.665 21.275L20.4702 21.4697C19.4344 22.5056 18.5983 23.0844 17.7105 23.3804C16.8574 23.6647 16.0119 23.6646 15.0598 23.6645L11 23.6645V22.3345H15.0003C16.0238 22.3345 16.6607 22.3284 17.2898 22.1186C17.8598 21.9286 18.4746 21.5503 19.3351 20.7206L19.3352 19.9994Z" fill="#000000" class="bmwfcol"/><title>person-on-hand_lt_48</title></svg>