<svg width="48" height="48" viewBox="0 0 32 32" xmlns="http://www.w3.org/2000/svg"><path d="M3.33398 26.665H19.8649L18.5349 25.335H4.66399V10.665L26.999 10.665C27.2332 10.665 27.334 10.7658 27.334 11V21.7H28.664V11C28.664 10.5531 28.5243 10.1198 28.2017 9.79727C27.8791 9.4747 27.4459 9.33499 26.999 9.33499L16.2744 9.33499C15.373 8.43371 14.671 7.73452 14.0907 7.19885C13.4706 6.62652 12.9578 6.21055 12.4539 5.92261C11.4246 5.33443 10.5087 5.33465 9.10083 5.33498L4.99899 5.33499C4.55205 5.33499 4.11883 5.47469 3.79626 5.79726C3.47369 6.11984 3.33398 6.55305 3.33398 6.99999V26.665ZM14.39 9.33496H4.66399V6.99999C4.66399 6.7658 4.7648 6.66499 4.99899 6.66499H8.99899C10.533 6.66499 11.098 6.67962 11.7941 7.07737C12.1652 7.28944 12.5898 7.62347 13.1886 8.17614C13.5338 8.49479 13.9263 8.87607 14.39 9.33496Z" fill="#000000" class="bmwfcol"/><path d="M14.1018 13.7336C14.6357 13.2188 15.3427 13.0852 16.0009 13.0852C16.6592 13.0852 17.3662 13.2188 17.9 13.7336C18.4371 14.2514 18.6659 15.0256 18.6659 16.0002C18.6659 16.9748 18.4371 17.749 17.9 18.2668C17.3662 18.7817 16.6592 18.9152 16.0009 18.9152C15.3427 18.9152 14.6357 18.7817 14.1018 18.2668C13.5648 17.749 13.3359 16.9748 13.3359 16.0002C13.3359 15.0256 13.5648 14.2514 14.1018 13.7336ZM15.025 14.691C14.8538 14.8561 14.6659 15.207 14.6659 16.0002C14.6659 16.7934 14.8538 17.1443 15.025 17.3095C15.1995 17.4777 15.4925 17.5852 16.0009 17.5852C16.5094 17.5852 16.8024 17.4777 16.9768 17.3095C17.1481 17.1443 17.3359 16.7934 17.3359 16.0002C17.3359 15.207 17.1481 14.8561 16.9768 14.691C16.8024 14.5227 16.5094 14.4152 16.0009 14.4152C15.4925 14.4152 15.1995 14.5227 15.025 14.691Z" fill="#000000" class="bmwfcol"/><path d="M19.7714 21.4308C19.6205 21.1992 19.4393 20.9975 19.2108 20.8342C18.8123 20.5494 18.3478 20.4375 17.8463 20.3856C17.359 20.3352 16.7555 20.3352 16.0346 20.3352C15.3137 20.3352 14.6411 20.3352 14.1538 20.3856C13.6523 20.4375 13.1878 20.5494 12.7893 20.8342C12.387 21.1218 12.1315 21.5283 11.9292 22.007C11.81 22.2892 11.6999 22.6201 11.5879 23.0002H12.9798C13.0391 22.8189 13.0963 22.6619 13.1543 22.5246C13.3085 22.1597 13.4404 22.0036 13.5627 21.9162C13.6889 21.826 13.8865 21.7504 14.2908 21.7085C14.7016 21.666 15.2362 21.6652 16.0001 21.6652C16.7639 21.6652 17.2985 21.666 17.7094 21.7085C18.1136 21.7504 18.3112 21.826 18.4374 21.9162C18.5458 21.9937 18.6617 22.1251 18.7941 22.4081L19.7714 21.4308Z" fill="#000000" class="bmwfcol"/><path d="M24.8849 28L21.5499 24.665H30V23.335H21.55L24.885 20H23.1173L19.1172 24.0001L23.1171 28H24.8849Z" fill="#000000" class="bmwfcol"/><title>personal--data_lt_48</title></svg>