<svg width="48" height="48" viewBox="0 0 32 32" xmlns="http://www.w3.org/2000/svg"><path d="M6.08075 4.07973C6.57225 3.58824 7.24986 3.33496 8.00098 3.33496C8.7521 3.33496 9.4297 3.58824 9.9212 4.07973C10.4127 4.57123 10.666 5.24884 10.666 5.99996C10.666 6.75108 10.4127 7.42869 9.9212 7.92019C9.4297 8.41169 8.7521 8.66496 8.00098 8.66496C7.24986 8.66496 6.57225 8.41169 6.08075 7.92019C5.58925 7.42869 5.33598 6.75108 5.33598 5.99996C5.33598 5.24884 5.58925 4.57123 6.08075 4.07973ZM7.0212 5.02019C6.8127 5.22869 6.66598 5.55108 6.66598 5.99996C6.66598 6.44884 6.8127 6.77123 7.0212 6.97973C7.2297 7.18824 7.5521 7.33496 8.00098 7.33496C8.44986 7.33496 8.77225 7.18824 8.98075 6.97973C9.18925 6.77123 9.33598 6.44884 9.33598 5.99996C9.33598 5.55108 9.18925 5.22869 8.98075 5.02019C8.77225 4.81169 8.44986 4.66496 8.00098 4.66496C7.5521 4.66496 7.2297 4.81169 7.0212 5.02019Z" fill="#000000" class="bmwfcol"/><path d="M23.3815 4L21.9709 12H20.6204L22.031 4H23.3815Z" fill="#000000" class="bmwfcol"/><path d="M15.4562 30H16.8331L14.5113 21.335L8.17981 21.335C7.51032 20.9461 7.0186 20.6441 6.652 20.3835C6.25723 20.1028 6.04506 19.8958 5.92002 19.718C5.68902 19.3894 5.66597 19.0581 5.66597 18V12.0197C6.36442 11.7897 7.14617 11.665 8.00097 11.665C8.85577 11.665 9.63752 11.7897 10.336 12.0197V16.665H16.001V15.335H11.666V11.11L11.2528 10.9409C10.2794 10.5427 9.18442 10.335 8.00097 10.335C6.81752 10.335 5.72251 10.5427 4.74918 10.9409L4.33597 11.11L4.33589 18.1152C4.33499 19.0076 4.33421 19.7748 4.83197 20.4828C5.08196 20.8384 5.43232 21.1482 5.88136 21.4674C6.26238 21.7383 6.74151 22.0345 7.33598 22.3825V25.335H4.00098V26.665L12.001 26.665V25.335H8.66598V22.665L13.4907 22.665L15.4562 30Z" fill="#000000" class="bmwfcol"/><path d="M18.001 16.665L26.336 16.665V29H27.666L27.666 15.335H25.6659V8H24.3359V15.335L18.001 15.335V16.665Z" fill="#000000" class="bmwfcol"/><path d="M2.83594 29C2.83594 28.3565 3.35753 27.835 4.00094 27.835C4.64435 27.835 5.16594 28.3565 5.16594 29C5.16594 29.6434 4.64435 30.165 4.00094 30.165C3.35753 30.165 2.83594 29.6434 2.83594 29Z" fill="#000000" class="bmwfcol"/><path d="M6.83594 29C6.83594 28.3565 7.35753 27.835 8.00094 27.835C8.64435 27.835 9.16594 28.3565 9.16594 29C9.16594 29.6434 8.64435 30.165 8.00094 30.165C7.35753 30.165 6.83594 29.6434 6.83594 29Z" fill="#000000" class="bmwfcol"/><path d="M10.8359 29C10.8359 28.3565 11.3575 27.835 12.0009 27.835C12.6443 27.835 13.1659 28.3565 13.1659 29C13.1659 29.6434 12.6443 30.165 12.0009 30.165C11.3575 30.165 10.8359 29.6434 10.8359 29Z" fill="#000000" class="bmwfcol"/><title>person_sitting_at_desk_lt_48</title></svg>