<svg width="48" height="48" viewBox="0 0 32 32" xmlns="http://www.w3.org/2000/svg"><path d="M18.0009 3.66496C18.681 3.66496 19.1622 3.79355 19.4995 4H21.2444C21.1073 3.7342 20.9342 3.49275 20.7212 3.27973C20.0525 2.61104 19.1034 2.33496 18.0009 2.33496H8.00094C6.89843 2.33496 5.94941 2.61104 5.28071 3.27973C4.61201 3.94843 4.33594 4.89745 4.33594 5.99996V26C4.33594 27.1025 4.61201 28.0515 5.28071 28.7202C5.94941 29.3889 6.89843 29.665 8.00094 29.665H18.0009C19.1034 29.665 20.0525 29.3889 20.7212 28.7202C21.3899 28.0515 21.6659 27.1025 21.6659 26V24H20.3359V24.335H5.66594V5.99996C5.66594 5.10247 5.88986 4.55149 6.22116 4.22019C6.55247 3.88888 7.10344 3.66496 8.00094 3.66496H18.0009ZM5.66594 25.665H20.3359V26C20.3359 26.8975 20.112 27.4484 19.7807 27.7797C19.4494 28.111 18.8984 28.335 18.0009 28.335H8.00094C7.10344 28.335 6.55247 28.111 6.22116 27.7797C5.88986 27.4484 5.66594 26.8975 5.66594 26V25.665Z" fill="#000000" class="bmwfcol"/><path d="M25.6659 16.335H20.3359V17.665L25.6659 17.665V16.335Z" fill="#000000" class="bmwfcol"/><path d="M9.06571 7.06473C9.56078 6.56966 10.244 6.33496 11.0009 6.33496H27.0009C27.7579 6.33496 28.4411 6.56966 28.9362 7.06473C29.4312 7.55981 29.6659 8.24302 29.6659 8.99996V19C29.6659 19.7569 29.4312 20.4401 28.9362 20.9352C28.4411 21.4303 27.7579 21.665 27.0009 21.665H11.0009C10.244 21.665 9.56078 21.4303 9.06571 20.9352C8.57064 20.4401 8.33594 19.7569 8.33594 19V8.99996C8.33594 8.24302 8.57064 7.55981 9.06571 7.06473ZM9.66594 19C9.66594 19.483 9.81123 19.7998 10.0062 19.9947C10.2011 20.1897 10.5179 20.335 11.0009 20.335H27.0009C27.484 20.335 27.8008 20.1897 27.9957 19.9947C28.1906 19.7998 28.3359 19.483 28.3359 19V11.665H9.66594V19ZM9.66594 10.335H28.3359V8.99996C28.3359 8.5169 28.1906 8.20012 27.9957 8.00519C27.8008 7.81026 27.484 7.66496 27.0009 7.66496H11.0009C10.5179 7.66496 10.2011 7.81026 10.0062 8.00519C9.81123 8.20012 9.66594 8.5169 9.66594 8.99996V10.335Z" fill="#000000" class="bmwfcol"/><title>phone-credit-card_lt_48</title></svg>