<svg width="48" height="48" viewBox="0 0 32 32" xmlns="http://www.w3.org/2000/svg"><path d="M13.5498 5.66496L16.8849 9H15.1171L11.1172 5.00009L15.1173 1H16.885L13.5501 4.33496H22V5.66496H13.5498Z" fill="#000000" class="bmwfcol"/><path d="M27.4505 10.665L24.1154 14H25.8832L29.8831 10.0001L25.883 6H24.1152L27.4502 9.33496H19V10.665H27.4505Z" fill="#000000" class="bmwfcol"/><path d="M10.2235 20.0852H13.156L13.999 20.5067L14.842 20.0852H17.7744L18.664 20.9748L18.664 23.6871L17.4568 25.6652H14.4735L13.999 25.1907L13.5244 25.6652H10.5861L9.33398 23.6935V20.9748L10.2235 20.0852ZM10.7744 21.4152L10.664 21.5257V23.3069L11.317 24.3352H12.9735L13.3359 23.9728V21.6622L12.842 21.4152H10.7744ZM14.6659 21.6602V23.9767L15.0244 24.3352H16.7103L17.334 23.3133L17.334 21.5257L17.2235 21.4152H15.156L14.6659 21.6602Z" fill="#000000" class="bmwfcol"/><path d="M3.20468 19.1014C2.74443 19.6628 2.33594 20.3238 2.33594 21.043V29.6652H7.66594V28.463C11.9542 28.7459 16.0477 28.7459 20.3359 28.463V29.6652H25.6659V21.043C25.6659 20.3238 25.2574 19.6628 24.7972 19.1014C24.3392 18.5428 23.7289 17.9656 23.1033 17.3898C23.269 17.2994 23.4796 17.2407 23.8086 17.2062C24.5349 17.13 25.2699 17.1651 25.9992 17.1651V15.8351C25.0155 15.8351 24.2537 15.8222 23.6698 15.8834C23.2316 15.9294 22.8479 16.0205 22.4956 16.2065C22.306 15.8477 22.0864 15.458 21.8475 15.0774C21.573 14.6399 21.2644 14.2004 20.9381 13.8297C20.6211 13.4696 20.2424 13.1225 19.8193 12.9359C18.6624 12.4277 17.8513 12.3352 14.001 12.3352C10.1504 12.3352 9.34058 12.4278 8.18278 12.9359C7.7591 13.1219 7.38088 13.4686 7.06389 13.8286C6.73747 14.1993 6.42884 14.639 6.15432 15.0766C5.91513 15.4579 5.69523 15.8483 5.50549 16.2076C5.1526 16.0208 4.76833 15.9295 4.32919 15.8834C3.74523 15.8222 2.98397 15.8351 2 15.8351V17.1651C3.03972 17.1651 3.69659 17.1544 4.19038 17.2062C4.52043 17.2408 4.73137 17.2998 4.89751 17.3908C4.3117 17.9313 3.70988 18.4852 3.20468 19.1014ZM14.001 13.6652C17.8999 13.6652 18.425 13.7761 19.284 14.1535C19.9149 14.4323 20.3729 15.2296 20.7209 15.7843C20.9625 16.1692 21.1841 16.567 21.3712 16.9261C21.1235 16.9022 20.8517 16.8847 20.5533 16.8714C19.5226 16.8255 18.0835 16.8284 16.0762 16.8324C14.6921 16.8343 13.3081 16.8352 11.924 16.8324C10.4318 16.8324 8.93623 16.805 7.44494 16.8714C7.14808 16.8846 6.87739 16.902 6.63067 16.9257C6.81776 16.5664 7.03943 16.1684 7.28098 15.7834C7.62836 15.2296 8.08658 14.4307 8.71732 14.1537C9.5778 13.7761 10.1018 13.6652 14.001 13.6652ZM22.4088 18.5601C22.9893 19.0991 23.602 19.6478 24.0433 20.3127C22.8984 20.5941 21.7 20.7378 20 20.8583V22.1916C21.766 22.0688 23.0684 21.9195 24.3359 21.6103V28.3352H21.6659V27.035L20.9526 27.087C16.2292 27.4313 11.7727 27.4313 7.04929 27.087L6.33594 27.035V28.3352H3.66594V21.6104C4.93275 21.919 6.2348 22.0681 8 22.1908V20.8575C6.30078 20.7371 5.10272 20.5936 3.95849 20.3128C4.03301 20.2005 4.12382 20.0781 4.23319 19.9446C4.58866 19.5111 5.06935 19.0445 5.62553 18.5289C5.69961 18.4738 5.83079 18.4077 6.08731 18.3493C6.39987 18.278 6.84603 18.2293 7.50407 18.2001C8.96422 18.1351 10.4299 18.1572 11.891 18.1624C13.2976 18.1652 14.7042 18.167 16.1107 18.1624C18.1044 18.1584 19.4971 18.1557 20.4941 18.2001C21.1518 18.2293 21.5975 18.278 21.9097 18.3492C22.2165 18.4192 22.3438 18.5001 22.4088 18.5601Z" fill="#000000" class="bmwfcol"/><title>pick-up-&amp;-delivery_lt_48</title></svg>