<svg width="48" height="48" viewBox="0 0 32 32" xmlns="http://www.w3.org/2000/svg"><path d="M8.33484 13.5C8.33484 12.8566 8.85643 12.335 9.49984 12.335C10.1433 12.335 10.6648 12.8566 10.6648 13.5C10.6648 14.1434 10.1433 14.665 9.49984 14.665C8.85643 14.665 8.33484 14.1434 8.33484 13.5Z" fill="#000000" class="bmwfcol"/><path d="M9.57786 6.33509L7.93698 6.33496L7.93698 9.67852C6.58981 10.2617 5.56156 11.2899 4.97828 12.637L2.23487 12.6344L2.23487 13.3C2.23487 13.3391 2.2326 13.399 2.22967 13.4764C2.21245 13.9312 2.17239 14.9889 2.436 15.9606C2.59411 16.5434 2.87489 17.1616 3.38384 17.6373C3.81849 18.0435 4.38141 18.3098 5.07844 18.3886C5.56193 19.3923 6.30304 20.2075 7.24787 20.7744L8.48417 25.665H12.6649V22.5699L19.8349 22.5654V25.665H23.5072L24.8461 20.7784C26.6333 19.7097 27.6649 17.7754 27.6649 15.4032C27.6649 14.7413 27.5847 14.1124 27.4295 13.5263C28.7238 13.1292 29.6649 11.9245 29.6649 10.5C29.6649 8.75201 28.2479 7.33499 26.4999 7.33499H25.9999V8.66499H26.4999C27.5133 8.66499 28.3349 9.48655 28.3349 10.5C28.3349 11.3571 27.7472 12.077 26.9529 12.2787C26.6835 11.755 26.3406 11.2826 25.9295 10.8714C24.8076 9.74956 23.2295 9.13608 21.3977 9.13608H13.4987C12.8759 9.13608 12.2473 8.82035 11.5904 8.29169C11.1021 7.8987 10.6636 7.44551 10.2337 7.00121C10.0795 6.84188 9.92647 6.6837 9.77261 6.52984L9.57786 6.33509ZM9.26698 10.6087L9.26698 7.91571C9.70174 8.36517 10.213 8.89037 10.7566 9.32781C11.5009 9.92687 12.4249 10.4661 13.4987 10.4661H21.3977C22.9272 10.4661 24.1502 10.973 24.989 11.8119C25.8279 12.6508 26.3349 13.8737 26.3349 15.4032C26.3349 17.4607 25.4205 18.9757 23.9659 19.7483L23.7124 19.883L22.4925 24.335H21.1649V21.2346L11.3349 21.2407V24.335H9.51979L8.39532 19.8868L8.13481 19.7485C7.22196 19.2637 6.53512 18.4962 6.14161 17.503L5.97519 17.083H5.52337C4.91776 17.083 4.5437 16.9008 4.29196 16.6656C4.02555 16.4166 3.83943 16.0541 3.7196 15.6124C3.5633 15.0362 3.54273 14.4373 3.54877 13.9656L5.9081 13.9678L6.06233 13.5181C6.51963 12.1847 7.48426 11.2201 8.81771 10.7628L9.26698 10.6087Z" fill="#000000" class="bmwfcol"/><title>pig_lt_48</title></svg>