<svg width="48" height="48" viewBox="0 0 32 32" xmlns="http://www.w3.org/2000/svg"><path d="M14.7531 5.68109C13.8674 4.96751 13.0782 4.13803 12.2751 3.33512L10.3345 3.33496V8.01419C8.33478 8.82766 6.82707 10.3354 6.0136 12.335H2.33442C2.33442 13.371 2.29968 14.4144 2.39345 15.447C2.51353 16.7695 3.05535 17.774 4.12063 18.5732C4.62368 18.9506 5.26892 19.3432 6.07453 19.8108C6.7496 21.3848 7.86358 22.6461 9.3175 23.4883L10.4367 27.665H15.6645V24.665H19.3345V27.665H24.5626L25.6818 23.4881C28.1967 22.0315 29.6645 19.3428 29.6645 16C29.6645 13.8051 29.0328 11.8866 27.8746 10.4119C27.772 10.9787 27.6055 11.5283 27.3735 12.0489C27.9895 13.1402 28.3345 14.4716 28.3345 16C28.3345 18.8199 27.0516 21.2608 24.545 22.5921L23.542 26.335H20.6645V23.335H14.3345V26.335H11.4572L10.4544 22.5923C8.90755 21.7711 7.78414 20.5239 7.13605 18.8883C6.38391 18.4538 5.61485 18.0314 4.91879 17.5093C4.14926 16.9319 3.80469 16.2815 3.718 15.3267C3.67742 14.8798 3.66757 14.3456 3.66518 13.665H6.9494C7.67868 11.5384 9.02614 9.85478 11.2152 9.10407L11.6645 8.95V4.61328C12.6025 5.55098 13.4451 6.3763 14.2608 6.98057C14.382 6.53111 14.5458 6.09587 14.7531 5.68109Z" fill="#000000" class="bmwfcol"/><path d="M20.9995 4.33496C19.6483 4.33496 18.4707 4.78824 17.6292 5.62973C16.7877 6.47123 16.3345 7.64884 16.3345 8.99996C16.3345 9.49581 16.3953 9.9688 16.5149 10.4116L16.6148 10.7814L23.9597 12.7494L24.2284 12.505C25.159 11.6585 25.6645 10.4264 25.6645 8.99996C25.6645 7.64884 25.2112 6.47123 24.3697 5.62973C23.5282 4.78824 22.3506 4.33496 20.9995 4.33496ZM17.6645 8.99996C17.6645 7.95108 18.0112 7.12869 18.5697 6.57019C19.1282 6.01169 19.9506 5.66496 20.9995 5.66496C22.0483 5.66496 22.8707 6.01169 23.4292 6.57019C23.9877 7.12869 24.3345 7.95108 24.3345 8.99996C24.3345 9.95186 24.0491 10.7178 23.577 11.27L17.7201 9.70062C17.6837 9.4802 17.6645 9.24642 17.6645 8.99996Z" fill="#000000" class="bmwfcol"/><path d="M9.83442 13C9.83442 12.3565 10.356 11.835 10.9995 11.835C11.6429 11.835 12.1645 12.3565 12.1645 13C12.1645 13.6434 11.6429 14.165 10.9995 14.165C10.356 14.165 9.83442 13.6434 9.83442 13Z" fill="#000000" class="bmwfcol"/><title>piggy-bank_lt_48</title></svg>