<svg width="48" height="48" viewBox="0 0 32 32" xmlns="http://www.w3.org/2000/svg"><path d="M20.6883 3.62168C20.9284 3.76242 21.2707 3.97448 21.6915 4.26581C22.533 4.8484 23.6894 5.74856 24.9707 7.02984C26.252 8.31112 27.1521 9.46752 27.7347 10.309C28.026 10.7299 28.2381 11.0721 28.3788 11.3122C28.5352 11.5789 28.6712 11.8551 28.8096 12.1314L26.2759 14.6651C25.5855 14.6651 24.8635 14.8508 24.1825 14.7147C23.702 14.6186 23.3388 14.266 22.9996 13.9361L19.2722 18.3761C20.4274 19.7945 20.6655 21.5126 20.6655 23.2755L17.6035 26.3375L16.6828 25.762C16.3835 25.5598 15.951 25.2553 15.409 24.8408C14.4226 24.0866 13.0733 22.9677 11.503 21.437L4.93999 28H4V27.0591L10.5625 20.4966C9.0323 18.9266 7.91381 17.5777 7.15971 16.5915C6.74523 16.0495 6.44078 15.6171 6.2385 15.3177C6.03785 15.0207 5.85389 14.7145 5.66936 14.4074L5.66309 14.397L8.72502 11.335C10.4879 11.3351 12.206 11.5731 13.6244 12.7283L18.054 9.01149C17.7298 8.67822 17.3792 8.28476 17.2859 7.81798C17.1537 7.15703 17.3355 6.39475 17.3355 5.72461L19.8692 3.19092L20.6883 3.62168ZM11.503 19.556L12.4435 20.4965C13.9679 21.9814 15.2722 23.0619 16.2169 23.7843C16.7273 24.1747 17.1327 24.4604 17.4111 24.649L19.3342 22.7258C19.3225 21.7043 19.1993 20.1403 17.9209 18.8619L17.49 18.431L22.0099 13.0443L23.0031 12.0623L23.4707 12.5298C23.8559 12.9151 24.0809 13.1392 24.2485 13.2799C24.3925 13.4009 24.4301 13.4078 24.4434 13.4105C24.8302 13.4879 25.3287 13.3473 25.7218 13.3382L27.1733 11.8868C27.0492 11.6799 26.8734 11.4015 26.6412 11.0661C26.0988 10.2826 25.2489 9.189 24.0302 7.97029C22.8115 6.75158 21.7179 5.90174 20.9344 5.35933C20.599 5.12712 20.3206 4.95136 20.1138 4.82723L18.6623 6.27869C18.6534 6.66298 18.6276 6.94656 18.6081 7.16112C18.5817 7.45219 18.5818 7.51608 18.5901 7.55715C18.5927 7.57038 18.5996 7.60804 18.7206 7.75203C18.8614 7.9196 19.0855 8.14462 19.4707 8.52984L19.9383 8.99742L18.9562 9.99059L13.5696 14.5105L13.1387 14.0797C11.8603 12.8012 10.2963 12.678 9.27469 12.6663L7.35157 14.5894C7.54011 14.8678 7.82588 15.2732 8.2162 15.7836C8.93848 16.7281 10.0186 18.0321 11.503 19.556Z" fill="#000000" class="bmwfcol"/><title>pin_lt_48</title></svg>