<svg width="48" height="48" viewBox="0 0 32 32" xmlns="http://www.w3.org/2000/svg"><path d="M8.307 16.3349H4.33496V27.6649H27.665V16.3349H23.6929C23.4491 16.7951 23.1855 17.239 22.9104 17.6649H26.335V26.3349H5.66496V17.6649H9.08956C8.81441 17.239 8.55077 16.7951 8.307 16.3349Z" fill="#000000" class="bmwfcol"/><path d="M11.3454 6.32989C10.2866 7.37704 9.665 8.92431 9.665 10.923C9.665 12.8856 10.5463 14.8292 11.8257 16.6635C13.043 18.4089 14.5761 19.9932 15.9244 21.335H16.0756C17.4239 19.9932 18.957 18.4089 20.1743 16.6635C21.4537 14.8292 22.335 12.8856 22.335 10.923C22.335 8.92431 21.7134 7.37704 20.6546 6.32989C19.595 5.28191 18.0267 4.66496 16 4.66496C13.9733 4.66496 12.405 5.28191 11.3454 6.32989ZM10.4101 5.38426C11.769 4.04032 13.7007 3.33496 16 3.33496C18.2993 3.33496 20.231 4.04032 21.5899 5.38426C22.9496 6.72903 23.665 8.6433 23.665 10.923C23.665 13.2767 22.6143 15.49 21.2652 17.4244C19.9128 19.3634 18.2107 21.0911 16.8179 22.4722L16.6235 22.665H15.3765L15.1821 22.4722C13.7892 21.0911 12.0872 19.3634 10.7348 17.4244C9.38565 15.49 8.335 13.2767 8.335 10.923C8.335 8.6433 9.05041 6.72903 10.4101 5.38426Z" fill="#000000" class="bmwfcol"/><path d="M14.2755 9.2755C13.9061 9.64492 13.665 10.2124 13.665 11C13.665 11.7875 13.9061 12.355 14.2755 12.7244C14.645 13.0938 15.2125 13.335 16 13.335C16.7875 13.335 17.355 13.0938 17.7245 12.7244C18.0939 12.355 18.335 11.7875 18.335 11C18.335 10.2124 18.0939 9.64492 17.7245 9.2755C17.355 8.90608 16.7875 8.66496 16 8.66496C15.2125 8.66496 14.645 8.90608 14.2755 9.2755ZM13.3351 8.33505C14.0025 7.66759 14.935 7.33496 16 7.33496C17.065 7.33496 17.9975 7.66759 18.6649 8.33505C19.3324 9.0025 19.665 9.93498 19.665 11C19.665 12.0649 19.3324 12.9974 18.6649 13.6649C17.9975 14.3323 17.065 14.665 16 14.665C14.935 14.665 14.0025 14.3323 13.3351 13.6649C12.6676 12.9974 12.335 12.0649 12.335 11C12.335 9.93498 12.6676 9.0025 13.3351 8.33505Z" fill="#000000" class="bmwfcol"/><title>pin-square_lt_48</title></svg>