<svg width="48" height="48" viewBox="0 0 32 32" xmlns="http://www.w3.org/2000/svg"><path d="M17.8288 2.79199C11.2319 1.88451 4.97638 5.98196 3.17257 12.3921C1.36876 18.8022 4.56941 25.5606 10.6715 28.2267C10.5917 27.2024 10.6649 26.172 10.8888 25.1693C11.1355 24.0507 12.6168 17.8853 12.6168 17.8853C12.3219 17.2241 12.1744 16.5066 12.1848 15.7827C12.1848 13.8027 13.3275 12.3253 14.7488 12.3253C15.2655 12.3178 15.7599 12.5353 16.1034 12.9214C16.4469 13.3074 16.6056 13.8237 16.5382 14.336C16.5382 15.536 15.7675 17.352 15.3648 19.056C15.2035 19.6898 15.3528 20.3625 15.7672 20.8684C16.1816 21.3744 16.8117 21.6533 17.4648 21.62C19.9955 21.62 21.6915 18.3787 21.6915 14.552C21.6915 11.6187 19.7488 9.42133 16.1675 9.42133C14.436 9.35404 12.7526 9.99979 11.5102 11.2078C10.2679 12.4159 9.57533 14.0806 9.59417 15.8133C9.55599 16.7644 9.86284 17.6973 10.4582 18.44C10.6867 18.6106 10.7748 18.9118 10.6742 19.1787C10.6128 19.424 10.4582 20.0093 10.3968 20.224C10.371 20.3716 10.2765 20.4982 10.1423 20.565C10.0082 20.6318 9.85025 20.631 9.71683 20.5627C7.8715 19.824 7.00217 17.7933 7.00217 15.4747C7.00217 11.6787 10.1808 7.13466 16.5408 7.13466C21.6022 7.13466 24.9675 10.8373 24.9675 14.7973C24.9675 20.0093 22.0648 23.928 17.7755 23.928C16.4726 23.9696 15.2387 23.3431 14.5035 22.2667C14.5035 22.2667 13.7328 25.3547 13.5808 25.9387C13.2706 26.9476 12.8127 27.9051 12.2222 28.78C13.4528 29.1533 14.7315 29.34 16.0168 29.3348C19.5541 29.3375 22.9472 27.9329 25.4476 25.4308C27.948 22.9287 29.3501 19.5346 29.3448 15.9973C29.3414 9.33897 24.4274 3.70334 17.8315 2.79333L17.8288 2.79199Z" fill="#000000" class="bmwfcol"/><title>pinterest_lt_48</title></svg>