<svg width="48" height="48" viewBox="0 0 32 32" xmlns="http://www.w3.org/2000/svg"><path d="M10.835 12.335H12.2142C13.6511 12.335 14.9001 12.8168 15.7916 13.7083C16.2758 14.1925 16.6391 14.7821 16.8701 15.45C16.8832 15.4365 16.8964 15.4231 16.9097 15.4097C17.6112 14.7082 18.5888 14.335 19.7 14.335H21.165V15.8C21.165 16.9111 20.7917 17.8887 20.0902 18.5902C19.3887 19.2917 18.4111 19.665 17.3 19.665H17.165V22H15.835V18.665H15.7857C14.3488 18.665 13.0998 18.1831 12.2083 17.2916C11.3168 16.4001 10.835 15.1511 10.835 13.7142V12.335ZM17.165 18.335H17.3C18.1088 18.335 18.7312 18.0682 19.1497 17.6497C19.5682 17.2312 19.835 16.6088 19.835 15.8V15.665H19.7C18.8911 15.665 18.2687 15.9317 17.8502 16.3502C17.4317 16.7687 17.165 17.3911 17.165 18.2V18.335ZM12.165 13.665V13.7142C12.165 14.8488 12.5403 15.7427 13.1488 16.3512C13.7573 16.9597 14.6511 17.335 15.7857 17.335H15.835V17.2857C15.835 16.1511 15.4597 15.2573 14.8512 14.6488C14.2427 14.0403 13.3488 13.665 12.2142 13.665H12.165Z" fill="#000000" class="bmwfcol"/><path d="M23.665 3.33496H8.33496V9.33496H2V10.665H7.41948C6.1095 12.4363 5.33496 14.6277 5.33496 17C5.33496 19.3722 6.1095 21.5636 7.41948 23.335H2V24.665H8.58442C10.5037 26.5221 13.1183 27.665 16 27.665C18.8816 27.665 21.4963 26.5221 23.4155 24.665H30V23.335H24.5804C25.8904 21.5636 26.665 19.3722 26.665 17C26.665 14.6277 25.8904 12.4363 24.5804 10.665H30V9.33496H23.665V3.33496ZM22.335 8.41948C20.5636 7.1095 18.3722 6.33496 16 6.33496C13.6277 6.33496 11.4363 7.1095 9.66496 8.41948V4.66496H22.335V8.41948ZM16 7.66496C21.1555 7.66496 25.335 11.8444 25.335 17C25.335 22.1555 21.1555 26.335 16 26.335C10.8444 26.335 6.66496 22.1555 6.66496 17C6.66496 11.8444 10.8444 7.66496 16 7.66496Z" fill="#000000" class="bmwfcol"/><title>pipeline_and_plant_lt_48</title></svg>