<svg width="48" height="48" viewBox="0 0 32 32" xmlns="http://www.w3.org/2000/svg"><path d="M28 7.88352L24.665 4.54848V15.4508L28 12.1157V13.8835L24 17.8835L20 13.8835V12.1158L23.335 15.4507V4.5485L20 7.88346V6.1157L24 2.11572L28 6.11575V7.88352Z" fill="#000000" class="bmwfcol"/><path d="M17.665 10.335H6.33496V19.665H8.8839L9.07587 19.3325C9.50132 18.5956 9.64992 18.4525 9.86268 18.3698C9.99535 18.3182 10.1953 18.2785 10.5533 18.2576C10.7709 18.2448 11.0258 18.2397 11.335 18.2377V23.244C10.6009 23.3613 9.95462 23.6765 9.45827 24.1729C8.81677 24.8144 8.47778 25.7063 8.47778 26.7145C8.47778 27.7228 8.81677 28.6147 9.45827 29.2562C10.0998 29.8977 10.9917 30.2367 11.9999 30.2367C13.0082 30.2367 13.9001 29.8977 14.5416 29.2562C15.1831 28.6147 15.5221 27.7228 15.5221 26.7145C15.5221 25.7063 15.1831 24.8144 14.5416 24.1729C14.0452 23.6765 13.399 23.3613 12.665 23.244V18.2377C12.9742 18.2397 13.229 18.2448 13.4466 18.2576C13.8046 18.2786 14.0046 18.3182 14.1372 18.3698C14.35 18.4525 14.4986 18.5956 14.9241 19.3325L15.116 19.665H17.665V10.335ZM7.66496 13.335V11.665H16.335V13.335H7.66496ZM7.66496 14.665H16.335V18.335H15.8798C15.5506 17.795 15.2084 17.3592 14.6191 17.1301C14.2924 17.0031 13.9282 16.9535 13.5244 16.9298C13.124 16.9064 12.6282 16.9064 12.0202 16.9064H11.9797C11.3717 16.9064 10.8759 16.9064 10.4755 16.9298C10.0717 16.9535 9.70757 17.0031 9.38083 17.1301C8.79157 17.3592 8.44933 17.795 8.12008 18.335H7.66496V14.665ZM10.3987 25.1133C10.7572 24.7548 11.2939 24.5224 11.9999 24.5224C12.7059 24.5224 13.2426 24.7548 13.6011 25.1133C13.9596 25.4718 14.1921 26.0085 14.1921 26.7145C14.1921 27.4205 13.9596 27.9572 13.6011 28.3157C13.2426 28.6742 12.7059 28.9067 11.9999 28.9067C11.2939 28.9067 10.7572 28.6742 10.3987 28.3157C10.0402 27.9572 9.80778 27.4205 9.80778 26.7145C9.80778 26.0085 10.0402 25.4718 10.3987 25.1133Z" fill="#000000" class="bmwfcol"/><path d="M17.665 2.33496H6.33496V3.66496H17.665V2.33496Z" fill="#000000" class="bmwfcol"/><title>piston-displacement_lt_48</title></svg>