<svg width="48" height="48" viewBox="0 0 32 32" xmlns="http://www.w3.org/2000/svg"><path d="M23.665 2.33496H8.33496V14.665H11.8839L12.0759 14.3325C12.6598 13.321 12.9384 13.0188 13.3117 12.8647C13.5167 12.78 13.7938 12.7241 14.2375 12.6948C14.5414 12.6747 14.8981 12.6681 15.335 12.666V20.373C14.2629 20.4981 13.33 20.9295 12.6297 21.6297C11.7882 22.4712 11.335 23.6488 11.335 25C11.335 26.3511 11.7882 27.5287 12.6297 28.3702C13.4712 29.2117 14.6488 29.665 16 29.665C17.3511 29.665 18.5287 29.2117 19.3702 28.3702C20.2117 27.5287 20.665 26.3511 20.665 25C20.665 23.6488 20.2117 22.4712 19.3702 21.6297C18.67 20.9295 17.737 20.4981 16.665 20.373V12.666C17.1019 12.6681 17.4585 12.6747 17.7624 12.6948C18.2061 12.7241 18.4832 12.78 18.6882 12.8647C19.0616 13.0188 19.3401 13.321 19.9241 14.3325L20.116 14.665H23.665V2.33496ZM9.66496 6.33496V3.66496H22.335V6.33496H9.66496ZM9.66496 7.66496H22.335V13.335H20.8803C20.3907 12.5216 19.9364 11.941 19.1957 11.6353C18.795 11.4699 18.3511 11.4008 17.8502 11.3677C17.3559 11.335 16.7535 11.335 16.0219 11.335H15.978C15.2463 11.335 14.644 11.335 14.1497 11.3677C13.6488 11.4008 13.2049 11.4699 12.8042 11.6353C12.0636 11.941 11.6092 12.5216 11.1196 13.335H9.66496V7.66496ZM13.5702 22.5702C14.1287 22.0117 14.9511 21.665 16 21.665C17.0488 21.665 17.8712 22.0117 18.4297 22.5702C18.9882 23.1287 19.335 23.9511 19.335 25C19.335 26.0488 18.9882 26.8712 18.4297 27.4297C17.8712 27.9882 17.0488 28.335 16 28.335C14.9511 28.335 14.1287 27.9882 13.5702 27.4297C13.0117 26.8712 12.665 26.0488 12.665 25C12.665 23.9511 13.0117 23.1287 13.5702 22.5702Z" fill="#000000" class="bmwfcol"/><title>piston_lt_48</title></svg>