<svg width="48" height="48" viewBox="0 0 32 32" xmlns="http://www.w3.org/2000/svg"><path d="M8.33398 3.33496H9.99898C11.9501 3.33496 13.6277 3.98824 14.8192 5.17973C15.5557 5.91623 16.0866 6.83845 16.3846 7.89619C16.4619 7.80402 16.5433 7.71515 16.6288 7.62973C17.4703 6.78824 18.6479 6.33496 19.999 6.33496H21.664V7.99996C21.664 9.35108 21.2107 10.5287 20.3692 11.3702C19.5277 12.2117 18.3501 12.665 16.999 12.665H16.664V15H15.334V11.665H14.999C13.0479 11.665 11.3703 11.0117 10.1788 9.82019C8.98726 8.62869 8.33398 6.95108 8.33398 4.99996V3.33496ZM16.664 11.335H16.999C18.0479 11.335 18.8703 10.9882 19.4288 10.4297C19.9873 9.87123 20.334 9.04884 20.334 7.99996V7.66496H19.999C18.9501 7.66496 18.1277 8.01169 17.5692 8.57019C17.0107 9.12869 16.664 9.95108 16.664 11V11.335ZM9.66398 4.66496V4.99996C9.66398 6.64884 10.2107 7.97123 11.1192 8.87973C12.0277 9.78824 13.3501 10.335 14.999 10.335H15.334V9.99996C15.334 8.35108 14.7873 7.02869 13.8788 6.12019C12.9703 5.21169 11.6479 4.66496 9.99898 4.66496H9.66398Z" fill="#000000" class="bmwfcol"/><path d="M29.4695 14.5297C29.1811 14.2414 28.7909 13.9207 28.2492 13.7166C27.7029 13.5108 27.0488 13.441 26.2571 13.5825C24.8316 13.8372 22.9331 14.7816 20.2858 16.9045C20.257 16.8702 20.2265 16.8369 20.1943 16.8047C19.8778 16.4883 19.4502 16.335 18.999 16.335L14.0869 16.335L10.3548 15.335L10.2045 15.335C9.61853 15.3345 9.13013 15.3342 8.56046 15.6828C8.29691 15.8441 8.02999 16.0693 7.72115 16.3578C7.41179 16.6468 7.03025 17.0283 6.5381 17.5205L2.05859 22L7.72359 27.665H9.2745L11.2745 25.665H15.0186C16.002 25.665 16.7665 25.665 17.3778 25.6328C17.995 25.6003 18.5014 25.5336 18.9594 25.3809C19.8601 25.0807 20.4661 24.4743 21.3795 23.5603L29.9398 14.9999L29.4695 14.5297ZM19.254 17.7453C19.2875 17.7788 19.3342 17.8512 19.3343 17.9998L19.3341 18.7211C18.4736 19.5508 17.8588 19.9291 17.2889 20.1191C16.6598 20.3288 16.0229 20.335 14.9993 20.335H10.999V21.665L15.0589 21.665C16.0109 21.6651 16.8565 21.6652 17.7095 21.3809C18.5973 21.0849 19.4334 20.5061 20.4693 19.4702L20.664 19.2755L20.6642 18.3116C23.5029 15.9648 25.3238 15.1003 26.4911 14.8917C27.0744 14.7875 27.4829 14.8492 27.7803 14.9612C27.857 14.9901 27.9294 15.0235 27.9981 15.0607L20.5291 22.5298C19.4934 23.5654 19.109 23.9291 18.5389 24.1191C18.2469 24.2164 17.8782 24.2747 17.3079 24.3047C16.7357 24.3348 16.0062 24.335 14.999 24.335H10.7236L8.72359 26.335H8.2745L3.9395 22L7.46927 18.4702C7.97264 17.9669 8.33824 17.6014 8.62907 17.3297C8.92237 17.0557 9.10971 16.9059 9.25469 16.8172C9.47138 16.6846 9.6009 16.6665 10.1801 16.6651L13.9118 17.665L18.999 17.665C19.1479 17.665 19.2204 17.7117 19.254 17.7453Z" fill="#000000" class="bmwfcol"/><title>plant_on_hand_lt_48</title></svg>