<svg width="48" height="48" viewBox="0 0 32 32" xmlns="http://www.w3.org/2000/svg"><path d="M7.33594 3.33496H10.0009C11.9521 3.33496 13.6297 3.98824 14.8212 5.17973C15.9312 6.28981 16.5741 7.82183 16.6568 9.60386C17.4965 8.77895 18.6637 8.33496 20.0009 8.33496H22.6659V11C22.6659 12.3511 22.2127 13.5287 21.3712 14.3702C20.5297 15.2117 19.3521 15.665 18.0009 15.665H16.6659V17C16.6659 17.9873 17.1447 18.7541 17.9893 19.458C18.8558 20.18 20.0297 20.7709 21.2985 21.4053L21.3406 21.4264C22.5598 22.0359 23.8672 22.6896 24.8643 23.5205C25.8947 24.3792 26.666 25.4873 26.666 27H25.336C25.336 26.0128 24.8574 25.246 24.0128 24.5422C23.1464 23.8202 21.9725 23.2293 20.7037 22.5949L20.6617 22.5739C19.4425 21.9643 18.1349 21.3106 17.1378 20.4797C16.9732 20.3425 16.8152 20.199 16.6659 20.0485V24.7245L20.001 28.0595V29.9405L16.6659 26.6054V30H15.3359V24.6055L11.001 28.9405V27.0596L15.3359 22.7246V20.0485C15.1867 20.199 15.0287 20.3426 14.8641 20.4797C13.867 21.3106 12.5595 21.9643 11.3403 22.5739L11.2982 22.5949C10.0294 23.2293 8.85556 23.8202 7.98913 24.5422C7.14459 25.246 6.66594 26.0128 6.66594 27H5.33594C5.33594 25.4873 6.10726 24.3792 7.13768 23.5205C8.13473 22.6896 9.44216 22.0359 10.6614 21.4264L10.7035 21.4053C11.9723 20.7709 13.1462 20.18 14.0127 19.458C14.8572 18.7541 15.3359 17.9873 15.3359 17V13C15.3359 12.8871 15.3391 12.7754 15.3454 12.665H14.0009C12.0498 12.665 10.3722 12.0117 9.18071 10.8202C7.98921 9.62869 7.33594 7.95108 7.33594 5.99996V3.33496ZM8.66594 4.66496V5.99996C8.66594 7.64884 9.21266 8.97123 10.1212 9.87973C11.0297 10.7882 12.3521 11.335 14.0009 11.335H15.3359V9.99996C15.3359 8.35108 14.7892 7.02869 13.8807 6.12019C12.9722 5.21169 11.6498 4.66496 10.0009 4.66496H8.66594ZM17.5712 10.5702C17.0127 11.1287 16.6659 11.9511 16.6659 13V14.335H18.0009C19.0498 14.335 19.8722 13.9882 20.4307 13.4297C20.9892 12.8712 21.3359 12.0488 21.3359 11V9.66496H20.0009C18.9521 9.66496 18.1297 10.0117 17.5712 10.5702Z" fill="#000000" class="bmwfcol"/><title>plant_with_roots_lt_48</title></svg>