<svg width="48" height="48" viewBox="0 0 32 32" xmlns="http://www.w3.org/2000/svg"><path d="M14.5297 6.5298C13.6092 7.45028 12.8168 8.31994 12.1458 9.14577L13.0917 10.0917C13.6295 9.4219 14.2634 8.70767 15.0036 7.94408L24.0559 16.9964C23.2923 17.7366 22.5781 18.3704 21.9083 18.9083L22.8542 19.8542C23.68 19.1831 24.5497 18.3907 25.4702 17.4702L25.9404 17L23.4404 14.5L28.4702 9.47024L27.5297 8.52979L22.5 13.5596L18.4404 9.50002L23.4702 4.47024L22.5297 3.52979L17.4999 8.55957L14.9999 6.05957L14.5297 6.5298Z" fill="#000000" class="bmwfcol"/><path d="M17.1551 21.4062C17.4717 21.3544 17.8031 21.2705 18.1509 21.1509L19.1794 22.1794C18.5519 22.4456 17.9503 22.6238 17.3698 22.7188C15.2463 23.0663 13.5293 22.286 12.0126 20.928C10.2652 22.6781 9.20271 23.7697 8.55327 24.7439C7.89077 25.7376 7.66496 26.6021 7.66496 28V30H6.33496V28C6.33496 26.3979 6.60915 25.2624 7.44665 24.0061C8.17931 22.9071 9.34793 21.7134 11.0721 19.9875C9.71399 18.4708 8.93367 16.7538 9.28118 14.6301C9.37617 14.0496 9.55437 13.4481 9.8206 12.8206L10.8491 13.8491C10.7295 14.1968 10.6455 14.5282 10.5937 14.8449C10.3036 16.6178 11.005 18.0646 12.4702 19.5298C13.9354 20.995 15.3821 21.6964 17.1551 21.4062Z" fill="#000000" class="bmwfcol"/><path d="M27.0596 28H28.9405L4.94047 4H3.05957L27.0596 28Z" fill="#000000" class="bmwfcol"/><title>plug_crossed_out_lt_48</title></svg>