<svg width="48" height="48" viewBox="0 0 32 32" xmlns="http://www.w3.org/2000/svg"><path d="M16 7.665H11V6.335H16V7.665Z" fill="#000000" class="bmwfcol"/><path d="M16 11.665H8V10.335H16V11.665Z" fill="#000000" class="bmwfcol"/><path d="M16 15.665H4V14.335H16V15.665Z" fill="#000000" class="bmwfcol"/><path d="M4.33504 7.66502V11H5.66504V7.66502H9V6.33502H5.66504V3H4.33504V6.33502H1V7.66502H4.33504Z" fill="#000000" class="bmwfcol"/><path d="M28.0001 7.56689V6.18984L20.335 4.13306V20.7138C20.0292 20.5903 19.7644 20.5044 19.5176 20.4464C19.0433 20.335 18.6647 20.335 18.2712 20.335C17.2849 20.3334 16.0751 20.612 15.1119 21.2203C14.1335 21.8383 13.3352 22.8395 13.335 24.2499C13.3348 26.3455 14.9696 27.665 16.75 27.665C18.0468 27.665 19.2717 27.4021 20.188 26.7213C21.1369 26.0162 21.665 24.93 21.665 23.5V5.86699L28.0001 7.56689ZM20.335 22.1662V23.5C20.335 24.5701 19.96 25.2338 19.3948 25.6537C18.797 26.0979 17.8969 26.335 16.75 26.335C15.6266 26.335 14.6649 25.5359 14.665 24.2501C14.6651 23.4171 15.1144 22.7918 15.8221 22.3448C16.545 21.8883 17.4815 21.6636 18.25 21.665C18.6568 21.665 18.8982 21.6671 19.2134 21.7411C19.4799 21.8038 19.8182 21.9233 20.335 22.1662Z" fill="#000000" class="bmwfcol"/><title>plus-note_lt_48</title></svg>