<svg width="48" height="48" viewBox="0 0 32 32" xmlns="http://www.w3.org/2000/svg"><path d="M24.9985 3.83545C24.3974 3.83545 23.8448 4.03873 23.4408 4.44272C23.0368 4.84672 22.8335 5.39933 22.8335 6.00045C22.8335 6.60157 23.0368 7.15418 23.4408 7.55818C23.8448 7.96217 24.3974 8.16545 24.9985 8.16545C25.5996 8.16545 26.1522 7.96217 26.5562 7.55818C26.9602 7.15418 27.1635 6.60157 27.1635 6.00045C27.1635 5.39933 26.9602 4.84672 26.5562 4.44272C26.1522 4.03873 25.5996 3.83545 24.9985 3.83545ZM24.1635 6.00045C24.1635 5.70157 24.2602 5.50418 24.3812 5.38318C24.5022 5.26217 24.6996 5.16545 24.9985 5.16545C25.2974 5.16545 25.4948 5.26217 25.6158 5.38318C25.7368 5.50418 25.8335 5.70157 25.8335 6.00045C25.8335 6.29933 25.7368 6.49672 25.6158 6.61772C25.4948 6.73872 25.2974 6.83545 24.9985 6.83545C24.6996 6.83545 24.5022 6.73872 24.3812 6.61772C24.2602 6.49672 24.1635 6.29933 24.1635 6.00045Z" fill="#000000" class="bmwfcol"/><path d="M21.2236 14.6655L16.5586 10.0005H18.4395L21.3341 12.895V10.1846L21.6452 9.98911C22.5864 9.3977 23.7296 9.0855 24.9991 9.0855C26.2685 9.0855 27.4117 9.3977 28.3529 9.98911L28.6641 10.1846V17.0005H27.3341V10.9382C26.6846 10.6049 25.9002 10.4155 24.9991 10.4155C24.0979 10.4155 23.3135 10.6049 22.6641 10.9382V14.6655H21.2236Z" fill="#000000" class="bmwfcol"/><path d="M3.33398 4.33545H18.664V8.50045H17.334V5.66545H4.66398V13.3354H17.499V14.6654H3.33398V4.33545Z" fill="#000000" class="bmwfcol"/><path d="M24.999 18.3354C24.3979 18.3354 23.8453 18.5387 23.4413 18.9427C23.0373 19.3467 22.834 19.8993 22.834 20.5005C22.834 21.1016 23.0373 21.6542 23.4413 22.0582C23.8453 22.4622 24.3979 22.6654 24.999 22.6654C25.6001 22.6654 26.1527 22.4622 26.5567 22.0582C26.9607 21.6542 27.164 21.1016 27.164 20.5005C27.164 19.8993 26.9607 19.3467 26.5567 18.9427C26.1527 18.5387 25.6001 18.3354 24.999 18.3354ZM24.164 20.5005C24.164 20.2016 24.2607 20.0042 24.3817 19.8832C24.5027 19.7622 24.7001 19.6654 24.999 19.6654C25.2979 19.6654 25.4953 19.7622 25.6163 19.8832C25.7373 20.0042 25.834 20.2016 25.834 20.5005C25.834 20.7993 25.7373 20.9967 25.6163 21.1177C25.4953 21.2387 25.2979 21.3354 24.999 21.3354C24.7001 21.3354 24.5027 21.2387 24.3817 21.1177C24.2607 20.9967 24.164 20.7993 24.164 20.5005Z" fill="#000000" class="bmwfcol"/><path d="M22.664 27.0005V25.4381C23.3134 25.1048 24.0979 24.9154 24.999 24.9154C25.9001 24.9154 26.6845 25.1048 27.334 25.4381V27.0005H28.664V24.6846L28.3528 24.4891C27.4116 23.8976 26.2684 23.5854 24.999 23.5854C23.7296 23.5854 22.5863 23.8976 21.6452 24.4891L21.334 24.6846V27.0005H22.664Z" fill="#000000" class="bmwfcol"/><path d="M13.664 25.4381V27.0005H12.334V24.6846L12.6452 24.4891C13.5863 23.8976 14.7296 23.5854 15.999 23.5854C17.2684 23.5854 18.4116 23.8976 19.3528 24.4891L19.664 24.6846V27.0005H18.334V25.4381C17.6845 25.1048 16.9001 24.9154 15.999 24.9154C15.0979 24.9154 14.3134 25.1048 13.664 25.4381Z" fill="#000000" class="bmwfcol"/><path d="M15.999 18.3354C15.3979 18.3354 14.8453 18.5387 14.4413 18.9427C14.0373 19.3467 13.834 19.8993 13.834 20.5005C13.834 21.1016 14.0373 21.6542 14.4413 22.0582C14.8453 22.4622 15.3979 22.6654 15.999 22.6654C16.6001 22.6654 17.1527 22.4622 17.5567 22.0582C17.9607 21.6542 18.164 21.1016 18.164 20.5005C18.164 19.8993 17.9607 19.3467 17.5567 18.9427C17.1527 18.5387 16.6001 18.3354 15.999 18.3354ZM15.164 20.5005C15.164 20.2016 15.2607 20.0042 15.3817 19.8832C15.5027 19.7622 15.7001 19.6654 15.999 19.6654C16.2979 19.6654 16.4953 19.7622 16.6163 19.8832C16.7373 20.0042 16.834 20.2016 16.834 20.5005C16.834 20.7993 16.7373 20.9967 16.6163 21.1177C16.4953 21.2387 16.2979 21.3354 15.999 21.3354C15.7001 21.3354 15.5027 21.2387 15.3817 21.1177C15.2607 20.9967 15.164 20.7993 15.164 20.5005Z" fill="#000000" class="bmwfcol"/><path d="M4.66398 25.4381V27.0005H3.33398V24.6846L3.64517 24.4891C4.58634 23.8976 5.72957 23.5854 6.99898 23.5854C8.2684 23.5854 9.41163 23.8976 10.3528 24.4891L10.664 24.6846V27.0005H9.33398V25.4381C8.68454 25.1048 7.90011 24.9154 6.99898 24.9154C6.09786 24.9154 5.31343 25.1048 4.66398 25.4381Z" fill="#000000" class="bmwfcol"/><path d="M6.99898 18.3354C6.39786 18.3354 5.84526 18.5387 5.44126 18.9427C5.03726 19.3467 4.83398 19.8993 4.83398 20.5005C4.83398 21.1016 5.03726 21.6542 5.44126 22.0582C5.84526 22.4622 6.39786 22.6654 6.99898 22.6654C7.6001 22.6654 8.15271 22.4622 8.55671 22.0582C8.96071 21.6542 9.16398 21.1016 9.16398 20.5005C9.16398 19.8993 8.96071 19.3467 8.55671 18.9427C8.15271 18.5387 7.6001 18.3354 6.99898 18.3354ZM6.16398 20.5005C6.16398 20.2016 6.26071 20.0042 6.38171 19.8832C6.50271 19.7622 6.7001 19.6654 6.99898 19.6654C7.29786 19.6654 7.49526 19.7622 7.61626 19.8832C7.73726 20.0042 7.83398 20.2016 7.83398 20.5005C7.83398 20.7993 7.73726 20.9967 7.61626 21.1177C7.49526 21.2387 7.29786 21.3354 6.99898 21.3354C6.7001 21.3354 6.50271 21.2387 6.38171 21.1177C6.26071 20.9967 6.16398 20.7993 6.16398 20.5005Z" fill="#000000" class="bmwfcol"/><title>pointing_teacher_and_audience_lt_48</title></svg>