<svg width="48" height="48" viewBox="0 0 32 32" xmlns="http://www.w3.org/2000/svg"><path d="M2 14.1649C2.16088 14.1649 2.31259 14.1647 2.45594 14.1644C3.23887 14.1631 3.77306 14.1622 4.19038 14.206C4.52002 14.2406 4.73085 14.2995 4.8969 14.3902C4.846 14.4371 4.79521 14.4839 4.74459 14.5308C4.72463 14.5477 4.70498 14.565 4.68567 14.5828L4.68695 14.5842C4.13643 15.0952 3.61011 15.6055 3.2037 16.1012C2.74345 16.6626 2.33496 17.3236 2.33496 18.0428V26.665H7.66496V25.4628C11.9532 25.7457 16.0467 25.7457 20.335 25.4628V26.665H25.665V18.0428C25.665 17.8783 25.6436 17.7169 25.6051 17.559C24.6715 17.8488 23.6322 17.9999 22.5 17.9999C21.7854 17.9999 21.1079 17.9397 20.4706 17.8224C20.318 17.8344 20.1613 17.846 20 17.8574V19.1908C21.7656 19.068 23.0678 18.9188 24.335 18.6099V25.335H21.665V24.0348L20.9516 24.0868C16.2282 24.4311 11.7717 24.4311 7.04831 24.0868L6.33496 24.0348V25.335H3.66496V18.6099C4.93218 18.9188 6.2344 19.068 8 19.1908V17.8575C6.30043 17.737 5.10225 17.5934 3.95768 17.3123C4.03217 17.2001 4.12292 17.0778 4.23222 16.9444C4.58649 16.5123 5.06515 16.0474 5.61896 15.5339C5.69177 15.4778 5.82301 15.4095 6.08743 15.3492C6.4 15.2779 6.84615 15.2293 7.50419 15.2C8.50189 15.1556 9.8954 15.1583 11.8895 15.1623C12.529 15.1636 13.2303 15.165 14.0001 15.165C14.6402 15.165 15.2329 15.164 15.782 15.163C15.4561 14.7588 15.172 14.3151 14.9322 13.8343C14.6325 13.8347 14.3219 13.835 14.0001 13.835C13.2475 13.835 12.5567 13.8336 11.9227 13.8323C9.91516 13.8283 8.47635 13.8254 7.44507 13.8713C7.14771 13.8845 6.87662 13.902 6.62957 13.9258C6.81669 13.5664 7.0384 13.1683 7.28001 12.7832C7.53292 12.38 7.79893 12.0051 8.06109 11.7074C8.33263 11.399 8.55688 11.2235 8.71634 11.1535C9.57682 10.7759 10.1008 10.665 14 10.665C14.0188 10.665 14.0375 10.665 14.0561 10.665C14.0189 10.2886 14 9.90005 14 9.49988C14 9.44468 14.0004 9.38971 14.0011 9.33496C10.1506 9.33496 9.3396 9.42753 8.1818 9.93563C7.75812 10.1217 7.3799 10.4684 7.06292 10.8284C6.73649 11.1991 6.42786 11.6388 6.15334 12.0764C5.91424 12.4575 5.69442 12.8478 5.50473 13.207C5.15204 13.0205 4.76802 12.9293 4.32919 12.8832C3.83506 12.8314 3.21426 12.8327 2.4388 12.8343C2.29793 12.8346 2.15125 12.8349 2 12.8349V14.1649Z" fill="#000000" class="bmwfcol"/><path d="M13.1569 17.0849H10.2245L9.33496 17.9744V20.6932L10.5871 22.6649H13.5254L14 22.1903L14.4745 22.6649H17.4578L18.665 20.6868V17.9744L17.7754 17.0849H14.843L14 17.5064L13.1569 17.0849ZM10.665 18.5253L10.7754 18.4149H12.843L13.335 18.6609V20.9744L12.9745 21.3349H11.318L10.665 20.3066V18.5253ZM14.665 20.9744V18.6609L15.1569 18.4149H17.2245L17.335 18.5253V20.313L16.7113 21.3349H15.0254L14.665 20.9744Z" fill="#000000" class="bmwfcol"/><path d="M22.5 3.33496C20.6618 3.33496 19.1041 3.90543 18.0048 5.00474C16.9055 6.10404 16.335 7.66172 16.335 9.49996C16.335 11.3382 16.9055 12.8959 18.0048 13.9952C19.1041 15.0945 20.6618 15.665 22.5 15.665C24.0749 15.665 25.4438 15.2463 26.4949 14.4351L29.5299 17.4702L30.4704 16.5298L27.4354 13.4946C28.2464 12.4435 28.665 11.0747 28.665 9.49996C28.665 7.66172 28.0946 6.10404 26.9953 5.00474C25.896 3.90543 24.3383 3.33496 22.5 3.33496ZM17.665 9.49996C17.665 7.93821 18.1446 6.74588 18.9453 5.94519C19.746 5.1445 20.9383 4.66496 22.5 4.66496C24.0618 4.66496 25.2541 5.1445 26.0548 5.94519C26.8555 6.74588 27.335 7.93821 27.335 9.49996C27.335 11.0617 26.8555 12.2541 26.0548 13.0548C25.2541 13.8555 24.0618 14.335 22.5 14.335C20.9383 14.335 19.746 13.8555 18.9453 13.0548C18.1446 12.2541 17.665 11.0617 17.665 9.49996Z" fill="#000000" class="bmwfcol"/><title>pre-owned-car-search_lt_48</title></svg>