<svg width="48" height="48" viewBox="0 0 32 32" xmlns="http://www.w3.org/2000/svg"><path d="M5.95708 18.8976L17.0038 29.9444L29.9444 17.0038C26.2626 13.322 22.5803 9.64074 18.899 5.95842C18.2312 5.29046 17.6043 4.66346 16.8829 4.26847C16.0943 3.83665 15.2291 3.69498 14.1143 3.89165C11.2182 4.40257 8.32226 4.91452 5.42631 5.4263C4.91445 8.32226 4.40238 11.2182 3.89164 14.1143C3.69532 15.2272 3.83613 16.0914 4.26643 16.8792C4.66125 17.6021 5.28874 18.2294 5.95708 18.8976ZM17.0038 28.0635L6.94339 18.003C6.2166 17.2762 5.72692 16.7786 5.43366 16.2417C5.16676 15.753 5.05036 15.2017 5.20143 14.3453C5.65842 11.7548 6.11623 9.16442 6.57402 6.57405C9.16442 6.11631 11.7548 5.65844 14.3453 5.20142C15.203 5.05012 15.7548 5.16709 16.2442 5.43505C16.7823 5.72965 17.2805 6.22124 18.0103 6.95064L28.0635 17.0038L17.0038 28.0635Z" fill="#000000" class="bmwfcol"/><path d="M10.9999 9.83498C10.3565 9.83498 9.83488 10.3566 9.83488 11C9.83488 11.6434 10.3565 12.165 10.9999 12.165C11.6433 12.165 12.1649 11.6434 12.1649 11C12.1649 10.3566 11.6433 9.83498 10.9999 9.83498Z" fill="#000000" class="bmwfcol"/><title>price-tag_lt_48</title></svg>