<svg width="48" height="48" viewBox="0 0 32 32" xmlns="http://www.w3.org/2000/svg"><path d="M23.5 13.335C22.8565 13.335 22.335 13.8565 22.335 14.5C22.335 15.1434 22.8565 15.665 23.5 15.665C24.1434 15.665 24.665 15.1434 24.665 14.5C24.665 13.8565 24.1434 13.335 23.5 13.335Z" fill="#000000" class="bmwfcol"/><path d="M24.665 4.33496H7.33496V9.58646C7.05609 9.62578 6.79696 9.67144 6.55611 9.72453C5.63377 9.92783 4.92156 10.2522 4.38659 10.7997C3.85712 11.3416 3.56926 12.0338 3.35747 12.8288L3.33506 12.9129L3.33496 22.665H7.33496V27.665H24.665V22.665H28.6389L28.6388 12.9129L28.6164 12.8288C28.4048 12.0345 28.1173 11.3428 27.5887 10.8012C27.0546 10.2538 26.3436 9.9292 25.4228 9.72564C25.188 9.67373 24.9359 9.62891 24.665 9.59016V4.33496ZM23.335 9.45476C22.8722 9.42246 22.3686 9.39919 21.8202 9.38215C20.3008 9.33496 18.3487 9.33496 15.9632 9.33496C13.5839 9.33496 11.6835 9.33496 10.1661 9.38177C9.62322 9.39852 9.12403 9.42135 8.66496 9.45296V5.66496H23.335V9.45476ZM7.33496 18.335V21.335H4.66497L4.66506 13.0887C4.84768 12.4308 5.05434 12.0194 5.33788 11.7292C5.62758 11.4327 6.06499 11.1947 6.84239 11.0234C7.6284 10.8501 8.70142 10.7576 10.2072 10.7111C11.7017 10.665 13.5818 10.665 15.9739 10.665C18.3726 10.665 20.2825 10.665 21.7789 10.7115C23.2811 10.7582 24.3516 10.8509 25.1357 11.0243C25.9112 11.1957 26.3476 11.4336 26.6368 11.73C26.9199 12.0202 27.1264 12.4314 27.3088 13.0887L27.3089 21.335H24.665V18.335H7.33496ZM8.66496 19.665H23.335V26.335H8.66496V19.665Z" fill="#000000" class="bmwfcol"/><title>printer_lt_48</title></svg>