<svg width="48" height="48" viewBox="0 0 32 32" xmlns="http://www.w3.org/2000/svg"><path d="M19.3745 3.24848C20.085 2.53793 21.0457 2.33496 22.0009 2.33496C22.9562 2.33496 23.9169 2.53793 24.6274 3.24848C25.3358 3.9569 25.6659 5.04006 25.6659 6.49996C25.6659 7.95986 25.3358 9.04302 24.6274 9.75144C23.9169 10.462 22.9562 10.665 22.0009 10.665C21.0457 10.665 20.085 10.462 19.3745 9.75144C18.666 9.04302 18.3359 7.95986 18.3359 6.49996C18.3359 5.04006 18.666 3.9569 19.3745 3.24848ZM20.3149 4.18894C19.9608 4.54302 19.6659 5.20986 19.6659 6.49996C19.6659 7.79006 19.9608 8.4569 20.3149 8.81099C20.6669 9.16293 21.2062 9.33496 22.0009 9.33496C22.7957 9.33496 23.335 9.16293 23.687 8.81099C24.041 8.4569 24.3359 7.79006 24.3359 6.49996C24.3359 5.20986 24.041 4.54302 23.687 4.18894C23.335 3.83699 22.7957 3.66496 22.0009 3.66496C21.2062 3.66496 20.6669 3.83699 20.3149 4.18894Z" fill="#000000" class="bmwfcol"/><path d="M17.1882 16H15.8105L15.8565 15.8281C16.2564 14.3331 16.6894 13.2947 17.7601 12.7764C18.2609 12.534 18.848 12.4325 19.5164 12.3836C20.1811 12.335 20.9948 12.335 21.9748 12.335H22.0231C23.0031 12.335 23.8168 12.335 24.4815 12.3836C25.1499 12.4325 25.737 12.534 26.2378 12.7764C27.3084 13.2947 27.7415 14.3331 28.1414 15.8281L28.1873 16H26.8097C26.4289 14.631 26.1183 14.1962 25.6583 13.9735C25.3844 13.8409 24.9969 13.7549 24.3844 13.7101C23.7738 13.6654 23.0082 13.665 21.9989 13.665C20.9897 13.665 20.2241 13.6654 19.6135 13.7101C19.001 13.7549 18.6135 13.8409 18.3396 13.9735C17.8796 14.1962 17.569 14.631 17.1882 16Z" fill="#000000" class="bmwfcol"/><path d="M6.00094 6.33496H16.8372C16.8363 6.38984 16.8359 6.44485 16.8359 6.49996C16.8359 6.89554 16.8572 7.28546 16.9047 7.66496H6.00094C5.82788 7.66496 5.76109 7.71526 5.73866 7.73769C5.71623 7.76012 5.66594 7.8269 5.66594 7.99996V14.335H14.7424C14.6114 14.7055 14.5048 15.0791 14.4081 15.4405L14.3008 15.665H5.66594V28C5.66594 28.173 5.71623 28.2398 5.73866 28.2622C5.76109 28.2847 5.82788 28.335 6.00094 28.335H22.0009C22.174 28.335 22.2408 28.2847 22.2632 28.2622C22.2856 28.2398 22.3359 28.173 22.3359 28V16H23.6659V28C23.6659 28.4469 23.5262 28.8801 23.2037 29.2027C22.8811 29.5253 22.4479 29.665 22.0009 29.665H6.00094C5.554 29.665 5.12078 29.5253 4.79821 29.2027C4.47564 28.8801 4.33594 28.4469 4.33594 28V7.99996C4.33594 7.55302 4.47564 7.11981 4.79821 6.79724C5.12078 6.47466 5.554 6.33496 6.00094 6.33496Z" fill="#000000" class="bmwfcol"/><path d="M14.0009 18.835C13.3575 18.835 12.8359 19.3565 12.8359 20C12.8359 20.6434 13.3575 21.165 14.0009 21.165C14.6443 21.165 15.1659 20.6434 15.1659 20C15.1659 19.3565 14.6443 18.835 14.0009 18.835Z" fill="#000000" class="bmwfcol"/><path d="M9.00094 18.835C8.35753 18.835 7.83594 19.3565 7.83594 20C7.83594 20.6434 8.35753 21.165 9.00094 21.165C9.64435 21.165 10.1659 20.6434 10.1659 20C10.1659 19.3565 9.64435 18.835 9.00094 18.835Z" fill="#000000" class="bmwfcol"/><path d="M8.83505 24.1C8.3443 24.1 7.90172 24.479 7.90172 25C7.90172 25.5209 8.3443 25.9 8.83505 25.9H14.1684C14.6591 25.9 15.1017 25.5209 15.1017 25C15.1017 24.479 14.6591 24.1 14.1684 24.1H8.83505Z" fill="#000000" class="bmwfcol"/><path d="M19.0009 18.835C18.3575 18.835 17.8359 19.3565 17.8359 20C17.8359 20.6434 18.3575 21.165 19.0009 21.165C19.6443 21.165 20.1659 20.6434 20.1659 20C20.1659 19.3565 19.6443 18.835 19.0009 18.835Z" fill="#000000" class="bmwfcol"/><path d="M19.0009 23.835C18.3575 23.835 17.8359 24.3565 17.8359 25C17.8359 25.6434 18.3575 26.165 19.0009 26.165C19.6443 26.165 20.1659 25.6434 20.1659 25C20.1659 24.3565 19.6443 23.835 19.0009 23.835Z" fill="#000000" class="bmwfcol"/><title>private-leasing-calculator_lt_48</title></svg>