<svg width="48" height="48" viewBox="0 0 32 32" xmlns="http://www.w3.org/2000/svg"><path d="M15.3359 16.665H11V15.335H15.3359V11H16.6659V15.335H21V16.665H16.6659V21H15.3359V16.665Z" fill="#000000" class="bmwfcol"/><path d="M4.33594 5.33496H27.6659V14C27.6659 16.8772 27.1482 19.5349 25.4978 22.1101C23.8563 24.6712 21.1321 27.0915 16.8291 29.5759L16.6748 29.665H15.3271L15.1728 29.5759C10.8698 27.0915 8.14561 24.6712 6.50411 22.1101C4.85363 19.5349 4.33594 16.8772 4.33594 14V5.33496ZM5.66594 6.66496V14C5.66594 16.7028 6.14824 19.09 7.62386 21.3924C9.09026 23.6803 11.5747 25.9423 15.6841 28.335H16.3177C20.4272 25.9423 22.9116 23.6803 24.378 21.3924C25.8536 19.09 26.3359 16.7028 26.3359 14V6.66496H5.66594Z" fill="#000000" class="bmwfcol"/><title>protection-plus_lt_48</title></svg>