<svg width="48" height="48" viewBox="0 0 32 32" xmlns="http://www.w3.org/2000/svg"><path d="M3.66496 23H2.33496V20.0514C2.33496 19.3152 2.40632 18.5242 2.68476 17.7657C2.8831 17.2253 3.12262 16.7597 3.46796 16.3886C3.82325 16.0067 4.25333 15.7642 4.767 15.6118C5.26488 15.464 5.84866 15.3988 6.52537 15.3668C7.20151 15.3349 8.05271 15.3349 9.02249 15.3349C9.77064 15.3349 10.4269 15.3349 11 15.3499V16.6803C10.4434 16.6651 9.78717 16.6649 9 16.6649C8.01244 16.6649 7.22936 16.6651 6.58808 16.6954C5.94392 16.7258 5.48774 16.7852 5.1454 16.8868C4.81883 16.9837 4.6084 17.1153 4.4417 17.2945C4.26506 17.4844 4.1011 17.7668 3.93331 18.224C3.73073 18.7758 3.66496 19.3916 3.66496 20.0514V23Z" fill="#000000" class="bmwfcol"/><path d="M7.31398 7.18894C6.95989 7.54302 6.665 8.20986 6.665 9.49996C6.665 10.7901 6.95989 11.4569 7.31398 11.811C7.66593 12.1629 8.20524 12.335 9 12.335C9.79476 12.335 10.3341 12.1629 10.686 11.811C11.0401 11.4569 11.335 10.7901 11.335 9.49996C11.335 8.20986 11.0401 7.54302 10.686 7.18894C10.3341 6.83699 9.79476 6.66496 9 6.66496C8.20524 6.66496 7.66593 6.83699 7.31398 7.18894ZM6.37352 6.24848C7.08407 5.53793 8.04476 5.33496 9 5.33496C9.95524 5.33496 10.9159 5.53793 11.6265 6.24848C12.3349 6.9569 12.665 8.04006 12.665 9.49996C12.665 10.9599 12.3349 12.043 11.6265 12.7514C10.9159 13.462 9.95524 13.665 9 13.665C8.04476 13.665 7.08407 13.462 6.37352 12.7514C5.66511 12.043 5.335 10.9599 5.335 9.49996C5.335 8.04006 5.66511 6.9569 6.37352 6.24848Z" fill="#000000" class="bmwfcol"/><path d="M21 16.6803V15.3499C21.5731 15.3349 22.2294 15.3349 22.9775 15.3349C24.0838 15.3349 25.0342 15.3349 25.7669 15.3832C26.5008 15.4316 27.1302 15.5314 27.6585 15.768C28.5803 16.1809 29.0431 16.9387 29.3977 18H27.9787C27.7265 17.3965 27.4689 17.1404 27.1148 16.9818C26.8058 16.8434 26.3669 16.7557 25.6794 16.7104C24.9955 16.6653 24.1335 16.6649 23 16.6649C22.2128 16.6649 21.5566 16.6651 21 16.6803Z" fill="#000000" class="bmwfcol"/><path d="M21.314 7.18894C20.9599 7.54302 20.665 8.20986 20.665 9.49996C20.665 10.7901 20.9599 11.4569 21.314 11.811C21.6659 12.1629 22.2052 12.335 23 12.335C23.7948 12.335 24.3341 12.1629 24.686 11.811C25.0401 11.4569 25.335 10.7901 25.335 9.49996C25.335 8.20986 25.0401 7.54302 24.686 7.18894C24.3341 6.83699 23.7948 6.66496 23 6.66496C22.2052 6.66496 21.6659 6.83699 21.314 7.18894ZM20.3735 6.24848C21.0841 5.53793 22.0448 5.33496 23 5.33496C23.9552 5.33496 24.9159 5.53793 25.6265 6.24848C26.3349 6.9569 26.665 8.04006 26.665 9.49996C26.665 10.9599 26.3349 12.043 25.6265 12.7514C24.9159 13.462 23.9552 13.665 23 13.665C22.0448 13.665 21.0841 13.462 20.3735 12.7514C19.6651 12.043 19.335 10.9599 19.335 9.49996C19.335 8.04006 19.6651 6.9569 20.3735 6.24848Z" fill="#000000" class="bmwfcol"/><path d="M11.6888 26H10.3112L10.3572 25.8281C10.756 24.337 11.1856 23.3091 12.1782 22.7865C12.651 22.5375 13.1959 22.4337 13.8001 22.384C14.3976 22.3349 15.1718 22.3349 16.0255 22.3349C16.7863 22.3349 17.443 22.3349 17.9998 22.3697V23.7026C17.4787 23.6654 16.8358 23.6649 15.9996 23.6649C15.1145 23.6649 14.4459 23.6654 13.9091 23.7096C13.3731 23.7536 13.0372 23.8373 12.7978 23.9633C12.3829 24.1818 12.0708 24.6264 11.6888 26Z" fill="#000000" class="bmwfcol"/><path d="M14.6799 15.0796C14.4098 15.3574 14.165 15.902 14.165 17C14.165 18.0979 14.4098 18.6425 14.6799 18.9203C14.9439 19.1918 15.3554 19.335 16 19.335C16.6446 19.335 17.0561 19.1918 17.3201 18.9203C17.5902 18.6425 17.835 18.0979 17.835 17C17.835 15.902 17.5902 15.3574 17.3201 15.0796C17.0561 14.8081 16.6446 14.665 16 14.665C15.3554 14.665 14.9439 14.8081 14.6799 15.0796ZM13.7263 14.1525C14.3478 13.5133 15.1862 13.335 16 13.335C16.8138 13.335 17.6522 13.5133 18.2737 14.1525C18.889 14.7854 19.165 15.7408 19.165 17C19.165 18.2592 18.889 19.2145 18.2737 19.8474C17.6522 20.4867 16.8138 20.665 16 20.665C15.1862 20.665 14.3478 20.4867 13.7263 19.8474C13.111 19.2145 12.835 18.2592 12.835 17C12.835 15.7408 13.111 14.7854 13.7263 14.1525Z" fill="#000000" class="bmwfcol"/><path d="M20.335 20.335H29.665V24.5454C29.665 25.6472 29.4655 26.6997 28.8097 27.7229C28.1628 28.7321 27.1098 29.6538 25.5127 30.5759L25.3584 30.665H24.6416L24.4872 30.5759C22.8901 29.6538 21.8371 28.7321 21.1903 27.7229C20.5345 26.6997 20.335 25.6472 20.335 24.5454V20.335ZM21.665 21.665V24.5454C21.665 25.4727 21.8291 26.2548 22.31 27.0052C22.7831 27.7433 23.5982 28.5061 24.9998 29.335C26.4013 28.5061 27.2169 27.7433 27.6899 27.0052C28.1708 26.2548 28.335 25.4727 28.335 24.5454V21.665H21.665Z" fill="#000000" class="bmwfcol"/><title>protect-family_lt_48</title></svg>