<svg width="48" height="48" viewBox="0 0 32 32" xmlns="http://www.w3.org/2000/svg"><path d="M14.665 5.33496H5.33496V14.665H14.665V5.33496ZM6.66496 13.335V6.66496H13.335V13.335H6.66496Z" fill="#000000" class="bmwfcol"/><path d="M14.665 17.335H5.33496V26.665H14.665V17.335ZM6.66496 25.335V18.665H13.335V25.335H6.66496Z" fill="#000000" class="bmwfcol"/><path d="M17.335 5.33496H26.665V14.665H17.335V5.33496ZM18.665 6.66496V13.335H25.335V6.66496H18.665Z" fill="#000000" class="bmwfcol"/><path d="M22.665 17.335H21.335V19.335H17.335V20.665H21.335V26.665H26.665V25.335H22.665V17.335Z" fill="#000000" class="bmwfcol"/><path d="M26.665 17.335V22.665H25.335V17.335H26.665Z" fill="#000000" class="bmwfcol"/><path d="M18.665 26.665V23.335H17.335V26.665H18.665Z" fill="#000000" class="bmwfcol"/><title>qr-code_lt_48</title></svg>