<svg width="48" height="48" viewBox="0 0 32 32" xmlns="http://www.w3.org/2000/svg"><path d="M11.9712 11.8862C11.0996 11.8862 10.436 11.9936 9.93966 12.4438C9.42057 12.8974 9.22656 13.4744 9.22656 14.1339C9.22656 14.7391 9.38255 15.2888 9.77433 15.6591C10.0888 15.9726 10.4683 16.1233 11.0034 16.3017L12.5044 16.8086C12.7605 16.894 12.9605 16.9608 13.1203 17.029C13.4708 17.1784 13.62 17.4009 13.62 17.7918C13.62 18.1041 13.5048 18.359 13.2742 18.5351C13.0174 18.7164 12.7104 18.7945 12.0805 18.7945C11.1399 18.7945 10.2013 18.5668 9.2862 18.3689V19.7236C10.1917 19.9129 11.1113 20.119 12.0408 20.119C13.0454 20.119 13.7398 19.9469 14.28 19.4729C14.7529 19.044 14.9942 18.4692 14.9942 17.7918C14.9942 17.1906 14.8255 16.6687 14.4929 16.3133C14.1773 15.9752 13.7649 15.7933 13.1179 15.5743L11.6275 15.0775C11.187 14.9273 10.9033 14.8165 10.7723 14.7003C10.6488 14.5896 10.6007 14.4449 10.6007 14.1339C10.6007 13.8443 10.6777 13.6136 10.8835 13.4451C11.104 13.2726 11.3997 13.2107 11.9911 13.2107C12.9064 13.2107 13.822 13.4877 14.7059 13.7024V12.3362C13.8095 12.1206 12.8992 11.8862 11.9712 11.8862Z" fill="#000000" class="bmwfcol"/><path d="M19.3406 12.0552H16.5363V19.95H19.2611C20.2967 19.95 21.0349 19.7774 21.6457 19.1889C22.3707 18.4963 22.6717 17.3843 22.6717 15.9728C22.6717 14.5759 22.4025 13.4946 21.7497 12.8308C21.157 12.2271 20.4343 12.0552 19.3406 12.0552ZM17.8906 18.6256V13.3796H19.3406C20.0397 13.3796 20.4648 13.4618 20.7802 13.818C21.1558 14.2555 21.2976 15.013 21.2976 15.9728C21.2976 16.9475 21.1276 17.6717 20.8064 18.0624C20.6421 18.2621 20.461 18.3989 20.2271 18.4884C19.989 18.5795 19.6855 18.6256 19.271 18.6256H17.8906Z" fill="#000000" class="bmwfcol"/><path d="M2.79821 6.79723C3.12078 6.47466 3.554 6.33496 4.00094 6.33496H28.0009C28.4479 6.33496 28.8811 6.47466 29.2037 6.79724C29.5262 7.11981 29.6659 7.55302 29.6659 7.99996V24C29.6659 24.4469 29.5262 24.8801 29.2037 25.2027C28.8811 25.5253 28.4479 25.665 28.0009 25.665H4.00094C3.554 25.665 3.12078 25.5253 2.79821 25.2027C2.47564 24.8801 2.33594 24.4469 2.33594 24V7.99996C2.33594 7.55302 2.47564 7.11981 2.79821 6.79723ZM3.73866 7.73769C3.71623 7.76012 3.66594 7.8269 3.66594 7.99996V24C3.66594 24.173 3.71623 24.2398 3.73866 24.2622C3.76109 24.2847 3.82788 24.335 4.00094 24.335H28.0009C28.174 24.335 28.2408 24.2847 28.2632 24.2622C28.2856 24.2398 28.3359 24.173 28.3359 24V7.99996C28.3359 7.8269 28.2856 7.76012 28.2632 7.73769C28.2408 7.71526 28.174 7.66496 28.0009 7.66496H4.00094C3.82788 7.66496 3.76109 7.71526 3.73866 7.73769Z" fill="#000000" class="bmwfcol"/><title>quality-low_lt_48</title></svg>