<svg width="48" height="48" viewBox="0 0 32 32" xmlns="http://www.w3.org/2000/svg"><path d="M10.3992 12.0553H9.04492V19.9501H10.3992V16.4611H13.8261V19.9501H15.1803V12.0553H13.8261V15.1367H10.3992V12.0553Z" fill="#000000" class="bmwfcol"/><path d="M19.8692 12.0553H17.0649V19.9501H19.7896C20.8252 19.9501 21.5635 19.7775 22.1742 19.1889C22.8992 18.4964 23.2003 17.3844 23.2003 15.9729C23.2003 14.576 22.931 13.4947 22.2782 12.8309C21.6855 12.2272 20.9628 12.0553 19.8692 12.0553ZM18.4191 18.6256V13.3797H19.8692C20.5682 13.3797 20.9933 13.4619 21.3088 13.8181C21.6843 14.2556 21.8261 15.0131 21.8261 15.9729C21.8261 16.9476 21.6561 17.6717 21.3349 18.0625C21.1706 18.2622 20.9896 18.399 20.7557 18.4885C20.5175 18.5796 20.214 18.6256 19.7996 18.6256H18.4191Z" fill="#000000" class="bmwfcol"/><path d="M2.79821 6.79723C3.12078 6.47466 3.554 6.33496 4.00094 6.33496H28.0009C28.4479 6.33496 28.8811 6.47466 29.2037 6.79724C29.5262 7.11981 29.6659 7.55302 29.6659 7.99996V24C29.6659 24.4469 29.5262 24.8801 29.2037 25.2027C28.8811 25.5253 28.4479 25.665 28.0009 25.665H4.00094C3.554 25.665 3.12078 25.5253 2.79821 25.2027C2.47564 24.8801 2.33594 24.4469 2.33594 24V7.99996C2.33594 7.55302 2.47564 7.11981 2.79821 6.79723ZM3.73866 7.73769C3.71623 7.76012 3.66594 7.8269 3.66594 7.99996V24C3.66594 24.173 3.71623 24.2398 3.73866 24.2622C3.76109 24.2847 3.82788 24.335 4.00094 24.335H28.0009C28.174 24.335 28.2408 24.2847 28.2632 24.2622C28.2856 24.2398 28.3359 24.173 28.3359 24V7.99996C28.3359 7.8269 28.2856 7.76012 28.2632 7.73769C28.2408 7.71526 28.174 7.66496 28.0009 7.66496H4.00094C3.82788 7.66496 3.76109 7.71526 3.73866 7.73769Z" fill="#000000" class="bmwfcol"/><title>quality-high_lt_48</title></svg>