<svg width="48" height="48" viewBox="0 0 32 32" xmlns="http://www.w3.org/2000/svg"><path d="M24.0048 6H25.5406L25.3486 6.33247C23.0277 10.3523 21.6202 12.7949 20.7785 15.1028C20.7503 15.1803 20.7226 15.2577 20.6956 15.335H25.999C26.4459 15.335 26.8791 15.4747 27.2017 15.7972C27.5243 16.1198 27.664 16.553 27.664 17V23C27.664 23.4469 27.5243 23.8801 27.2017 24.2027C26.8791 24.5253 26.4459 24.665 25.999 24.665H19.999C19.552 24.665 19.1188 24.5253 18.7962 24.2027C18.4737 23.8801 18.334 23.4469 18.334 23C18.334 19.4586 18.6262 17.1229 19.529 14.6471C20.3945 12.2738 21.8161 9.79139 24.0048 6ZM19.664 23C19.664 23.173 19.7143 23.2398 19.7367 23.2622C19.7591 23.2847 19.8259 23.335 19.999 23.335H25.999C26.172 23.335 26.2388 23.2847 26.2612 23.2622C26.2837 23.2398 26.334 23.173 26.334 23V17C26.334 16.8269 26.2837 16.7601 26.2612 16.7377C26.2388 16.7153 26.172 16.665 25.999 16.665H20.2912C19.8335 18.4363 19.664 20.3335 19.664 23Z" fill="#000000" class="bmwfcol"/><path d="M11.5406 6L11.3486 6.33247C9.02776 10.3523 7.62018 12.7949 6.77856 15.1028C6.7503 15.1803 6.72267 15.2577 6.69566 15.335H11.999C12.4459 15.335 12.8791 15.4747 13.2017 15.7972C13.5243 16.1198 13.664 16.553 13.664 17V23C13.664 23.4469 13.5243 23.8801 13.2017 24.2027C12.8791 24.5253 12.4459 24.665 11.999 24.665H5.99898C5.55204 24.665 5.11883 24.5253 4.79625 24.2027C4.47368 23.8801 4.33398 23.4469 4.33398 23C4.33398 19.4586 4.62622 17.1229 5.52905 14.6471C6.39454 12.2738 7.81613 9.79139 10.0048 6H11.5406ZM5.66398 23C5.66398 23.173 5.71428 23.2398 5.73671 23.2622C5.75914 23.2847 5.82592 23.335 5.99898 23.335H11.999C12.172 23.335 12.2388 23.2847 12.2612 23.2622C12.2837 23.2398 12.334 23.173 12.334 23V17C12.334 16.8269 12.2837 16.7601 12.2612 16.7377C12.2388 16.7153 12.172 16.665 11.999 16.665H6.29124C5.83352 18.4363 5.66398 20.3335 5.66398 23Z" fill="#000000" class="bmwfcol"/><title>quotation-marks_lt_48</title></svg>