<svg width="48" height="48" viewBox="0 0 32 32" xmlns="http://www.w3.org/2000/svg"><path d="M6.33496 5.33496H7.99996C9.95108 5.33496 11.6287 5.98824 12.8202 7.17973C13.5567 7.91623 14.0875 8.83845 14.3856 9.89619C14.4629 9.80402 14.5443 9.71515 14.6297 9.62973C15.4712 8.78824 16.6488 8.33496 18 8.33496H19.665V9.99996C19.665 11.3511 19.2117 12.5287 18.3702 13.3702C17.5287 14.2117 16.3511 14.665 15 14.665H14.665V16.335H27.6651V18L27.6652 18.0823C27.666 18.5019 27.6668 18.9034 27.4699 19.2974C27.3682 19.5007 27.2288 19.6774 27.0725 19.8511C26.9606 19.9753 26.8243 20.115 26.6651 20.2751V24.335H30V25.665H2V24.335H5.33506V20.2751C5.17583 20.115 5.03949 19.9753 4.92764 19.8511C4.77129 19.6774 4.63191 19.5007 4.53026 19.2974C4.33331 18.9035 4.33411 18.5019 4.33495 18.0823L4.33506 18V16.335H13.335V13.665H13C11.0488 13.665 9.37123 13.0117 8.17974 11.8202C6.98824 10.6287 6.33496 8.95108 6.33496 6.99996V5.33496ZM6.66506 24.335H25.3351V19.7245L25.5298 19.5297C25.7849 19.2747 25.9577 19.1015 26.0839 18.9613C26.2088 18.8226 26.2569 18.7493 26.2803 18.7026C26.3205 18.6222 26.3351 18.5504 26.3351 18V17.665H5.66506V18C5.66506 18.5504 5.67966 18.6222 5.71985 18.7026C5.7432 18.7493 5.79132 18.8226 5.91622 18.9613C6.0424 19.1015 6.21525 19.2747 6.47028 19.5297L6.66506 19.7245V24.335ZM14.665 13.335H15C16.0488 13.335 16.8712 12.9882 17.4297 12.4297C17.9882 11.8712 18.335 11.0488 18.335 9.99996V9.66496H18C16.9511 9.66496 16.1287 10.0117 15.5702 10.5702C15.0117 11.1287 14.665 11.9511 14.665 13V13.335ZM7.66496 6.66496V6.99996C7.66496 8.64884 8.21169 9.97123 9.12019 10.8797C10.0287 11.7882 11.3511 12.335 13 12.335H13.335V12C13.335 10.3511 12.7882 9.02869 11.8797 8.12019C10.9712 7.21169 9.64884 6.66496 7.99996 6.66496H7.66496Z" fill="#000000" class="bmwfcol"/><title>raised_garden_bed_lt_48</title></svg>