<svg width="48" height="48" viewBox="0 0 32 32" xmlns="http://www.w3.org/2000/svg"><path d="M30 12.9404V11.0595L27.9097 8.96925C28.389 8.3334 28.6477 7.59166 28.4512 6.67998C28.2227 5.62011 27.3954 4.4551 25.9701 3.0298L25.4999 2.55957L24.5001 3.55939L21.9705 1.02979L21.03 1.97024L23.5596 4.49984L22.5 5.55951L19.9702 3.02979L19.0298 3.97024L21.5595 6.49996L20.5594 7.50002L21.0297 7.97025C22.455 9.39555 23.62 10.2228 24.6799 10.4513C25.5916 10.6479 26.3334 10.389 26.9693 9.90972L30 12.9404ZM27.1511 6.96028C27.2705 7.51421 27.0954 7.96411 26.5297 8.5298C25.964 9.09548 25.5141 9.2706 24.9602 9.15117C24.3816 9.02644 23.5892 8.56303 22.4476 7.49278L25.4927 4.44772C26.5629 5.58932 27.0263 6.38173 27.1511 6.96028Z" fill="#000000" class="bmwfcol"/><path d="M12 2.33496C10.1915 2.33496 9.11723 2.38165 8.44325 2.48006C8.10253 2.52982 7.83028 2.59717 7.60307 2.69635C7.35968 2.80259 7.1967 2.93277 7.06473 3.06473C6.56966 3.55981 6.33496 4.24302 6.33496 4.99996V20.335H4V21.665L20 21.665V20.335H17.665V4.99996C17.665 4.24302 17.4303 3.55981 16.9352 3.06473C16.8032 2.93277 16.6402 2.80259 16.3969 2.69635C16.1696 2.59717 15.8974 2.52982 15.5567 2.48006C14.8827 2.38165 13.8084 2.33496 12 2.33496ZM16.335 20.335L7.66496 20.335V4.99996C7.66496 4.5169 7.81026 4.20012 8.00519 4.00519C8.04572 3.96465 8.07461 3.94171 8.13514 3.91529C8.21182 3.88181 8.35552 3.83698 8.63542 3.79611C9.20269 3.71327 10.1884 3.66496 12 3.66496C13.8115 3.66496 14.7972 3.71327 15.3645 3.79611C15.6444 3.83698 15.7881 3.88181 15.8648 3.91529C15.9253 3.94171 15.9542 3.96465 15.9947 4.00519C16.1897 4.20012 16.335 4.5169 16.335 4.99996V20.335Z" fill="#000000" class="bmwfcol"/><path d="M26.2754 24.335H2.33496V29.665H26.2754L28.9404 27L26.2754 24.335ZM3.66496 28.335V25.665H13.7245L15.0596 27L13.7246 28.335H3.66496ZM16.9405 27L15.6054 25.665H19.7245L21.0596 27L19.7246 28.335H15.6055L16.9405 27ZM21.6055 28.335L22.9405 27L21.6054 25.665H25.7245L27.0595 27L25.7245 28.335H21.6055Z" fill="#000000" class="bmwfcol"/><path d="M21 10.0596L26.4702 15.5298C26.9976 16.0572 27.341 16.5028 27.513 17.0874C27.6654 17.6057 27.6652 18.1929 27.665 18.9168L27.665 22H26.335V21.7755L24.5298 19.9702C24.0024 19.4429 23.659 18.9973 23.487 18.4127C23.3346 17.8944 23.3348 17.3071 23.335 16.5833L23.335 14.2755L21 11.9405V10.0596ZM26.335 19C26.335 18.1623 26.3288 17.7747 26.237 17.4627C26.159 17.1973 26.0024 16.9429 25.5298 16.4703L24.665 15.6055V16.5C24.665 17.3377 24.6712 17.7254 24.763 18.0374C24.841 18.3028 24.9976 18.5571 25.4702 19.0298L26.335 19.8946V19Z" fill="#000000" class="bmwfcol"/><path d="M10.3349 7.5V11.665L12.3349 11.665V13.835H11.2255L12.9999 16.7925L14.7746 13.835H13.6649V10.335L11.6649 10.335V7.5H10.3349Z" fill="#000000" class="bmwfcol"/><title>range_phev_lt_48</title></svg>