<svg width="48" height="48" viewBox="0 0 32 32" xmlns="http://www.w3.org/2000/svg"><path d="M15.6456 20.6587L15.4034 20.6063V21.7216L15.576 21.7577C16.069 21.8607 16.8609 22.0262 17.5103 22.0262C18.2654 22.0262 18.7998 21.8959 19.2165 21.5302C19.5811 21.1996 19.7657 20.757 19.7657 20.2383C19.7657 19.7808 19.6373 19.3775 19.378 19.1002C19.1329 18.8376 18.8146 18.6988 18.3313 18.5352L17.2187 18.1643C17.0544 18.1083 16.9221 18.0623 16.8154 18.0167C16.708 17.9708 16.6402 17.9309 16.5973 17.8928C16.5216 17.8249 16.486 17.7356 16.486 17.5078C16.486 17.3014 16.5403 17.1462 16.6781 17.0332C16.828 16.9161 17.0332 16.8693 17.4732 16.8693C17.9705 16.8693 18.7745 17.0617 19.3033 17.1901L19.5505 17.2502V16.1259L19.3963 16.0888C18.8152 15.949 18.1093 15.7792 17.4584 15.7792C16.806 15.7792 16.2936 15.8589 15.9081 16.2083C15.5075 16.5586 15.3589 17.0045 15.3589 17.5078C15.3589 17.9669 15.4771 18.3931 15.7831 18.6827C16.0271 18.9256 16.3205 19.0409 16.7196 19.174L17.8396 19.5522C18.0315 19.6162 18.1793 19.6656 18.2963 19.7155C18.4115 19.7647 18.4805 19.8077 18.5246 19.8511C18.6063 19.9384 18.6385 20.0409 18.6385 20.2383C18.6385 20.4574 18.5585 20.6317 18.401 20.7523C18.2223 20.8782 18.0059 20.9361 17.54 20.9361C17.001 20.9361 16.1983 20.7782 15.6456 20.6587Z" fill="#000000" class="bmwfcol"/><path d="M4.866 15.9054C5.68746 15.9054 6.24376 16.0344 6.70035 16.4994C7.20201 17.0094 7.4033 17.8338 7.4033 18.8805C7.4033 19.9391 7.17794 20.7863 6.62196 21.3176C6.15228 21.7703 5.58533 21.9001 4.80664 21.9001H2.72196V15.9054H4.866ZM3.83428 16.9954V20.81H4.81406C5.12013 20.81 5.33987 20.7759 5.50965 20.711C5.67518 20.6477 5.80334 20.5512 5.92098 20.4081C6.14898 20.1308 6.27614 19.6058 6.27614 18.8805C6.27614 18.1652 6.16959 17.6169 5.90244 17.3053C5.68277 17.0575 5.38612 16.9954 4.866 16.9954H3.83428Z" fill="#000000" class="bmwfcol"/><path d="M8.34203 21.9001H9.45435V15.9054H8.34203V21.9001Z" fill="#000000" class="bmwfcol"/><path d="M11.6905 18.302V16.9954H14.7624V15.9054H10.5782V21.9001H14.8811V20.81H11.6905V19.3921H14.5991V18.302H11.6905Z" fill="#000000" class="bmwfcol"/><path d="M21.7423 18.302V16.9954H24.8142V15.9054H20.63V21.9001H24.9329V20.81H21.7423V19.3921H24.6509V18.302H21.7423Z" fill="#000000" class="bmwfcol"/><path d="M25.6703 21.9001H29.7358V20.81H26.7827V15.9054H25.6703V21.9001Z" fill="#000000" class="bmwfcol"/><path d="M20.335 14V13C20.335 12.517 20.1897 12.2002 19.9948 12.0052C19.7998 11.8103 19.4831 11.665 19 11.665H17.665V14H16.335V4.99996C16.335 4.5169 16.1897 4.20012 15.9947 4.00519C15.9542 3.96465 15.9253 3.94171 15.8648 3.91529C15.7881 3.88181 15.6444 3.83698 15.3645 3.79611C14.7972 3.71327 13.8115 3.66496 12 3.66496C10.1884 3.66496 9.20269 3.71327 8.63542 3.79611C8.35552 3.83698 8.21182 3.88181 8.13514 3.91529C8.07461 3.94171 8.04573 3.96465 8.00519 4.00519C7.81026 4.20012 7.66496 4.5169 7.66496 4.99996V14H6.33496V4.99996C6.33496 4.24302 6.56966 3.55981 7.06473 3.06473C7.1967 2.93277 7.35968 2.80259 7.60307 2.69635C7.83028 2.59717 8.10253 2.52982 8.44325 2.48006C9.11723 2.38165 10.1915 2.33496 12 2.33496C13.8084 2.33496 14.8827 2.38165 15.5567 2.48006C15.8974 2.52982 16.1696 2.59717 16.3969 2.69635C16.6402 2.80259 16.8032 2.93277 16.9352 3.06473C17.4303 3.55981 17.665 4.24302 17.665 4.99996V10.335H19C19.7569 10.335 20.4402 10.5697 20.9352 11.0648C21.4303 11.5599 21.665 12.2431 21.665 13V14H20.335Z" fill="#000000" class="bmwfcol"/><path d="M25.665 14V8.9276C25.6652 8.24215 25.6654 7.65812 25.5144 7.12983C25.3458 6.5396 25.0099 6.06942 24.4702 5.5298L21 2.05957V3.94047L23.5298 6.47025C23.9902 6.93063 24.1542 7.21045 24.2356 7.49521C24.3294 7.82342 24.335 8.2169 24.335 9.00002V14H25.665Z" fill="#000000" class="bmwfcol"/><path d="M14 11.665H10V10.335H14V11.665Z" fill="#000000" class="bmwfcol"/><path d="M2.33496 24.335H26.2754L28.9404 27L26.2754 29.665H2.33496V24.335ZM3.66496 25.665V28.335H13.7246L15.0596 27L13.7245 25.665H3.66496ZM15.6054 25.665L16.9405 27L15.6055 28.335H19.7246L21.0596 27L19.7245 25.665H15.6054ZM25.7245 28.335L27.0595 27L25.7245 25.665H21.6054L22.9405 27L21.6055 28.335H25.7245Z" fill="#000000" class="bmwfcol"/><title>range-diesel_lt_48</title></svg>