<svg width="48" height="48" viewBox="0 0 32 32" xmlns="http://www.w3.org/2000/svg"><path d="M6.4203 21.7992L6.57839 21.7653V20.6506L6.3359 20.7033C5.81854 20.8157 5.262 20.9361 4.77567 20.9361C4.43651 20.9361 4.19576 20.8863 4.01982 20.7953C3.84925 20.707 3.724 20.5721 3.62863 20.3687C3.49268 20.0772 3.42489 19.5663 3.42489 18.9472C3.42489 18.295 3.49356 17.7293 3.64863 17.4191C3.75155 17.2133 3.87719 17.0833 4.04273 17.0001C4.21399 16.9141 4.44582 16.8693 4.77567 16.8693C5.01395 16.8693 5.2512 16.9104 5.50993 16.9622C5.81497 17.0203 6.04733 17.0784 6.32749 17.1521L6.57839 17.2181V16.0947L6.43232 16.0538C6.24009 15.9999 6.01197 15.9468 5.70437 15.8868C5.41378 15.8346 5.06932 15.7792 4.72373 15.7792C4.18219 15.7792 3.76843 15.872 3.4424 16.0481C3.11426 16.2254 2.89198 16.4779 2.71927 16.7671C2.39251 17.3144 2.29773 18.1196 2.29773 18.9547C2.29773 19.7201 2.4014 20.4486 2.63822 20.9146C2.79831 21.2346 3.01596 21.5187 3.35349 21.7198C3.68935 21.9198 4.12486 22.0262 4.70147 22.0262C5.33324 22.0262 5.90081 21.9105 6.4203 21.7992Z" fill="#000000" class="bmwfcol"/><path d="M7.36333 21.9001H8.46823V17.8726L10.8323 21.9001H12.0372V15.9054H10.9323V19.9329L8.56824 15.9054H7.36333V21.9001Z" fill="#000000" class="bmwfcol"/><path d="M17.3801 21.8383L17.5493 21.8119V18.5098H16.4369V20.8628C16.1454 20.8973 15.7481 20.9361 15.4126 20.9361C15.0776 20.9361 14.8357 20.8864 14.6587 20.7971C14.4868 20.7104 14.3629 20.58 14.2725 20.3899C14.1298 20.0915 14.0619 19.6178 14.0619 18.9472C14.0619 18.283 14.1374 17.7304 14.293 17.4191C14.3963 17.2092 14.5208 17.0792 14.684 16.9975C14.8537 16.9127 15.0851 16.8693 15.4201 16.8693C15.636 16.8693 15.8624 16.9098 16.1105 16.9549C16.453 17.0206 16.8114 17.1083 17.1078 17.1824L17.3563 17.2445V16.1211L17.2063 16.0824C16.9728 16.0221 16.6491 15.9468 16.3095 15.8864C16.0334 15.8342 15.7067 15.7792 15.3681 15.7792C14.8348 15.7792 14.4234 15.868 14.0967 16.0408C13.7676 16.2148 13.5411 16.4653 13.3641 16.759C13.0379 17.3053 12.9347 18.0801 12.9347 18.9547C12.9347 19.7921 13.0376 20.4956 13.3008 20.9655C13.4637 21.2671 13.6753 21.539 14.006 21.7318C14.3352 21.9239 14.7629 22.0262 15.3384 22.0262C16.0369 22.0262 16.8059 21.9278 17.3801 21.8383Z" fill="#000000" class="bmwfcol"/><path d="M7.66498 14H6.33498V4.99996C6.33498 4.24302 6.56969 3.55981 7.06476 3.06473C7.19672 2.93277 7.35971 2.80259 7.60309 2.69635C7.83031 2.59717 8.10255 2.52982 8.44327 2.48006C9.11725 2.38165 10.1915 2.33496 12 2.33496C13.8085 2.33496 14.8827 2.38165 15.5567 2.48006C15.8974 2.52982 16.1697 2.59717 16.3969 2.69635C16.6403 2.80259 16.8032 2.93277 16.9352 3.06473C17.4303 3.55981 17.665 4.24302 17.665 4.99996V10.335H19C19.757 10.335 20.4402 10.5697 20.9352 11.0648C21.4303 11.5599 21.665 12.2431 21.665 13V17C21.665 17.4831 21.8103 17.7999 22.0052 17.9948C22.2002 18.1897 22.517 18.335 23 18.335C23.4831 18.335 23.7999 18.1897 23.9948 17.9948C24.1897 17.7999 24.335 17.4831 24.335 17V9.00002C24.335 8.2169 24.3294 7.82342 24.2356 7.49521C24.1542 7.21045 23.9902 6.93063 23.5298 6.47025L21 3.94047V2.05957L24.4702 5.5298C25.0099 6.06942 25.3458 6.5396 25.5144 7.12983C25.6654 7.65812 25.6652 8.24215 25.665 8.9276V17C25.665 17.757 25.4303 18.4402 24.9352 18.9352C24.4402 19.4303 23.757 19.665 23 19.665C22.2431 19.665 21.5599 19.4303 21.0648 18.9352C20.5697 18.4402 20.335 17.757 20.335 17V13C20.335 12.517 20.1897 12.2002 19.9948 12.0052C19.7999 11.8103 19.4831 11.665 19 11.665H17.665V14H16.335V4.99996C16.335 4.5169 16.1897 4.20012 15.9948 4.00519C15.9542 3.96465 15.9253 3.94171 15.8648 3.91529C15.7881 3.88181 15.6444 3.83698 15.3645 3.79611C14.7973 3.71327 13.8115 3.66496 12 3.66496C10.1885 3.66496 9.20271 3.71327 8.63544 3.79611C8.35554 3.83698 8.21185 3.88181 8.13516 3.91529C8.07463 3.94171 8.04575 3.96465 8.00521 4.00519C7.81028 4.20012 7.66498 4.5169 7.66498 4.99996V14Z" fill="#000000" class="bmwfcol"/><path d="M14 11.665H10V10.335H14V11.665Z" fill="#000000" class="bmwfcol"/><path d="M2.33498 24.335H26.2754L28.9404 27L26.2754 29.665H2.33498V24.335ZM3.66498 25.665V28.335H13.7246L15.0596 27L13.7245 25.665H3.66498ZM15.6054 25.665L16.9405 27L15.6055 28.335H19.7246L21.0596 27L19.7245 25.665H15.6054ZM25.7245 28.335L27.0595 27L25.7245 25.665H21.6054L22.9405 27L21.6055 28.335H25.7245Z" fill="#000000" class="bmwfcol"/><title>range-gas_lt_48</title></svg>