<svg width="48" height="48" viewBox="0 0 32 32" xmlns="http://www.w3.org/2000/svg"><path d="M10 11.665H14V10.335H10V11.665Z" fill="#000000" class="bmwfcol"/><path d="M21 3.94047V2.05957L24.4702 5.5298C25.0098 6.06942 25.3458 6.5396 25.5144 7.12983C25.6654 7.65812 25.6652 8.24215 25.665 8.9276V17C25.665 17.757 25.4303 18.4402 24.9352 18.9352C24.4402 19.4303 23.7569 19.665 23 19.665C22.2431 19.665 21.5598 19.4303 21.0648 18.9352C20.5697 18.4402 20.335 17.757 20.335 17V13C20.335 12.517 20.1897 12.2002 19.9948 12.0052C19.7998 11.8103 19.4831 11.665 19 11.665H17.665V20.335H20V21.665H4V20.335H6.33496V4.99996C6.33496 4.24302 6.56966 3.55981 7.06473 3.06473C7.1967 2.93277 7.35968 2.80259 7.60307 2.69635C7.83028 2.59717 8.10253 2.52982 8.44325 2.48006C9.11723 2.38165 10.1915 2.33496 12 2.33496C13.8084 2.33496 14.8827 2.38165 15.5567 2.48006C15.8974 2.52982 16.1696 2.59717 16.3969 2.69635C16.6402 2.80259 16.8032 2.93277 16.9352 3.06473C17.4303 3.55981 17.665 4.24302 17.665 4.99996V10.335H19C19.7569 10.335 20.4402 10.5697 20.9352 11.0648C21.4303 11.5599 21.665 12.2431 21.665 13V17C21.665 17.4831 21.8103 17.7999 22.0052 17.9948C22.2002 18.1897 22.5169 18.335 23 18.335C23.4831 18.335 23.7998 18.1897 23.9948 17.9948C24.1897 17.7999 24.335 17.4831 24.335 17V9.00002C24.335 8.2169 24.3294 7.82342 24.2356 7.49521C24.1542 7.21045 23.9902 6.93063 23.5298 6.47025L21 3.94047ZM16.335 20.335V4.99996C16.335 4.5169 16.1897 4.20012 15.9947 4.00519C15.9542 3.96465 15.9253 3.94171 15.8648 3.91529C15.7881 3.88181 15.6444 3.83698 15.3645 3.79611C14.7972 3.71327 13.8115 3.66496 12 3.66496C10.1884 3.66496 9.20269 3.71327 8.63542 3.79611C8.35552 3.83698 8.21182 3.88181 8.13514 3.91529C8.07461 3.94171 8.04572 3.96465 8.00519 4.00519C7.81026 4.20012 7.66496 4.5169 7.66496 4.99996V20.335H16.335Z" fill="#000000" class="bmwfcol"/><path d="M2.33496 24.335H26.2754L28.9404 27L26.2754 29.665H2.33496V24.335ZM3.66496 25.665V28.335H13.7246L15.0596 27L13.7245 25.665H3.66496ZM15.6054 25.665L16.9405 27L15.6055 28.335H19.7246L21.0596 27L19.7245 25.665H15.6054ZM25.7245 28.335L27.0595 27L25.7245 25.665H21.6054L22.9405 27L21.6055 28.335H25.7245Z" fill="#000000" class="bmwfcol"/><title>range-petrol_lt_48</title></svg>