<svg width="48" height="48" viewBox="0 0 32 32" xmlns="http://www.w3.org/2000/svg"><path d="M6.73468 20.3V15.6449H11.8407V20.3H13.1139V10.3001H11.8407V14.4114H6.73468V10.3001H5.46148V20.3H6.73468Z" fill="#000000" class="bmwfcol"/><path d="M19.1064 22.0241V21.0029H16.4274C16.8518 20.6316 17.5547 20.0082 18.178 19.3318C18.629 18.8279 18.8014 18.4698 18.8014 17.8862C18.8014 17.422 18.6157 16.9976 18.3107 16.7456C17.9791 16.4671 17.5017 16.3212 16.8518 16.3212C16.1356 16.3212 15.3531 16.4937 14.9818 16.5865V17.6475C15.2868 17.5679 16.1091 17.3557 16.812 17.3557C17.1568 17.3557 17.3823 17.422 17.5149 17.5547C17.6343 17.674 17.6873 17.8199 17.6873 18.0188C17.6873 18.3106 17.5282 18.5626 17.0773 19.0135C16.56 19.5308 15.5388 20.4326 14.8492 21.0294V22.0241H19.1064Z" fill="#000000" class="bmwfcol"/><path d="M6.33496 8H7.66496V4.99996C7.66496 4.5169 7.81026 4.20012 8.00519 4.00519C8.04572 3.96465 8.07461 3.94171 8.13514 3.91529C8.21182 3.88181 8.35552 3.83698 8.63542 3.79611C9.20269 3.71327 10.1884 3.66496 12 3.66496C13.8115 3.66496 14.7972 3.71327 15.3645 3.79611C15.6444 3.83698 15.7881 3.88181 15.8648 3.91529C15.9253 3.94171 15.9542 3.96465 15.9947 4.00519C16.1897 4.20012 16.335 4.5169 16.335 4.99996V14H17.665V11.665H19C19.4831 11.665 19.7998 11.8103 19.9948 12.0052C20.1897 12.2002 20.335 12.517 20.335 13V17C20.335 17.757 20.5697 18.4402 21.0648 18.9352C21.5598 19.4303 22.2431 19.665 23 19.665C23.7569 19.665 24.4402 19.4303 24.9352 18.9352C25.4303 18.4402 25.665 17.757 25.665 17V8.9276C25.6652 8.24215 25.6653 7.65812 25.5144 7.12983C25.3458 6.5396 25.0098 6.06942 24.4702 5.5298L21 2.05957V3.94047L23.5298 6.47025C23.9902 6.93063 24.1542 7.21045 24.2356 7.49521C24.3294 7.82342 24.335 8.2169 24.335 9.00002V17C24.335 17.4831 24.1897 17.7999 23.9948 17.9948C23.7998 18.1897 23.4831 18.335 23 18.335C22.5169 18.335 22.2002 18.1897 22.0052 17.9948C21.8103 17.7999 21.665 17.4831 21.665 17V13C21.665 12.2431 21.4303 11.5599 20.9352 11.0648C20.4402 10.5697 19.7569 10.335 19 10.335H17.665V4.99996C17.665 4.24302 17.4303 3.55981 16.9352 3.06473C16.8032 2.93277 16.6402 2.80259 16.3969 2.69635C16.1696 2.59717 15.8974 2.52982 15.5567 2.48006C14.8827 2.38165 13.8084 2.33496 12 2.33496C10.1915 2.33496 9.11723 2.38165 8.44325 2.48006C8.10253 2.52982 7.83028 2.59717 7.60307 2.69635C7.35968 2.80259 7.1967 2.93277 7.06473 3.06473C6.56966 3.55981 6.33496 4.24302 6.33496 4.99996V8Z" fill="#000000" class="bmwfcol"/><path d="M26.2754 24.335H2.33496V29.665H26.2754L28.9404 27L26.2754 24.335ZM3.66496 28.335V25.665H13.7245L15.0596 27L13.7246 28.335H3.66496ZM16.9405 27L15.6054 25.665H19.7245L21.0596 27L19.7246 28.335H15.6055L16.9405 27ZM21.6055 28.335L22.9405 27L21.6054 25.665H25.7245L27.0595 27L25.7245 28.335H21.6055Z" fill="#000000" class="bmwfcol"/><title>range-h2_lt_48</title></svg>