<svg width="48" height="48" viewBox="0 0 32 32" xmlns="http://www.w3.org/2000/svg"><path d="M13.165 14.25C13.165 13.6508 13.6508 13.165 14.25 13.165C14.8493 13.165 15.335 13.6508 15.335 14.25V17.75C15.335 19.0838 16.4163 20.165 17.75 20.165C19.0838 20.165 20.165 19.0838 20.165 17.75V12H18.835V17.75C18.835 18.3492 18.3493 18.835 17.75 18.835C17.1508 18.835 16.665 18.3492 16.665 17.75V14.25C16.665 12.9162 15.5838 11.835 14.25 11.835C12.9163 11.835 11.835 12.9162 11.835 14.25V20H13.165V14.25Z" fill="#000000" class="bmwfcol"/><path d="M16 2.33499C13.4696 2.33499 11.5136 2.70635 10.1993 3.80162C8.85142 4.92486 8.33502 6.66941 8.33502 8.99999V11.335H4V12.665H8.33502V23C8.33502 25.3306 8.85142 27.0751 10.1993 28.1984C11.5136 29.2936 13.4696 29.665 16 29.665C18.5304 29.665 20.4864 29.2936 21.8007 28.1984C23.1486 27.0751 23.665 25.3306 23.665 23V20.665H28V19.335H23.665V8.99999C23.665 6.66941 23.1486 4.92486 21.8007 3.80162C20.4864 2.70635 18.5304 2.33499 16 2.33499ZM9.68153 8.33499C9.77322 6.56787 10.2451 5.49475 11.0507 4.82336C11.9864 4.04363 13.5304 3.66499 16 3.66499C18.4696 3.66499 20.0136 4.04363 20.9493 4.82336C21.755 5.49475 22.2268 6.56787 22.3185 8.33499H9.68153ZM9.66502 9.66499H22.335V22.335H9.66502V9.66499ZM11.0507 27.1766C10.2451 26.5052 9.77322 25.4321 9.68153 23.665H22.3185C22.2268 25.4321 21.755 26.5052 20.9493 27.1766C20.0136 27.9564 18.4696 28.335 16 28.335C13.5304 28.335 11.9864 27.9564 11.0507 27.1766Z" fill="#000000" class="bmwfcol"/><title>reactor_lt_48</title></svg>