<svg width="48" height="48" viewBox="0 0 32 32" xmlns="http://www.w3.org/2000/svg"><path d="M5.79663 22.0073H2.70654V30.0001H4.07326V27.0697H5.86545L7.64784 30.0001H9.26431L7.30589 26.7857C7.51148 26.5685 7.78176 26.2768 8.01517 26.0002C8.41119 25.5208 8.7256 25.0031 8.7256 24.2616C8.7256 23.5651 8.47914 22.9025 7.96195 22.5114C7.43249 22.1061 6.78917 22.0073 5.79663 22.0073ZM4.07326 25.7332V23.3438H5.71607C6.45116 23.3438 6.77438 23.3894 6.98966 23.5249C7.12003 23.6064 7.20363 23.7036 7.25681 23.8175C7.31124 23.9342 7.33874 24.0792 7.33874 24.2616C7.33874 24.6223 7.1634 24.9107 6.91247 25.2002C6.77136 25.3678 6.60546 25.5444 6.42585 25.7332H4.07326Z" fill="#000000" class="bmwfcol"/><path d="M16.1281 22.0073H9.38398V23.3438H12.0727V30.0001H13.4394V23.3438H16.1281V22.0073Z" fill="#000000" class="bmwfcol"/><path d="M23.2573 22.0073H16.5132V23.3438H19.2019V30.0001H20.5686V23.3438H23.2573V22.0073Z" fill="#000000" class="bmwfcol"/><path d="M25.6235 22.0073H24.2567V30.0001H25.6235V22.0073Z" fill="#000000" class="bmwfcol"/><path d="M18.1605 6.41916C18.7262 6.35331 19.555 6.33504 21 6.33504C23.6394 6.33504 24.2782 6.4032 25.1806 6.79964C25.5308 6.95405 25.8342 7.23578 26.0776 7.51228C26.3304 7.79942 26.5671 8.13715 26.7757 8.46954C26.9479 8.74397 27.1068 9.02431 27.2456 9.28488C27.5474 9.11432 27.873 9.03541 28.2358 8.99734C28.6161 8.95744 29.0927 8.95847 29.6735 8.95973C29.7789 8.95996 29.8878 8.9602 30.0002 8.9602V10.2902C29.8783 10.2902 29.7637 10.29 29.6559 10.2898C29.0676 10.2889 28.6781 10.2882 28.3746 10.3201C28.2257 10.3357 28.1165 10.3576 28.0307 10.3859L27.9806 10.4402C28.347 10.784 28.6972 11.1308 28.9757 11.4705C29.3258 11.8975 29.665 12.4319 29.665 13.0322V19.665H25.335V18.665H16.665V19.665H12.335V13.0322C12.335 12.4319 12.6742 11.8975 13.0242 11.4705C13.3024 11.1312 13.6521 10.7849 14.018 10.4415L13.9656 10.3847C13.8803 10.357 13.7721 10.3355 13.6254 10.3201C13.322 10.2882 12.9326 10.2889 12.3443 10.2898C12.2365 10.29 12.1219 10.2902 12 10.2902V8.9602C12.1124 8.9602 12.2213 8.95996 12.3267 8.95973C12.9074 8.95847 13.384 8.95744 13.7642 8.99734C14.127 9.03541 14.4525 9.11432 14.7543 9.28475C14.893 9.02404 15.0519 8.74355 15.2242 8.46898C15.4328 8.13647 15.6696 7.79862 15.9224 7.51147C16.1658 7.23504 16.4687 6.95355 16.8195 6.79956C17.228 6.62029 17.548 6.49047 18.1605 6.41916ZM15.2065 11.1529C14.7356 11.5866 14.3202 11.9877 14.0354 12.335H17V13.665H13.665V18.335H15.335V17.335H26.665V18.335H28.335V13.665H25V12.335H27.9645C27.6798 11.9878 27.2646 11.5869 26.7939 11.1534C26.5797 11.114 26.2831 11.085 25.8632 11.0663C25.1196 11.0332 24.0806 11.0352 22.5871 11.0382C22.107 11.0391 21.5792 11.0402 20.9999 11.0402C20.4205 11.0402 19.8934 11.0391 19.4132 11.0382C17.9193 11.0352 16.8795 11.0332 16.1354 11.0663C15.7169 11.0849 15.4208 11.1138 15.2065 11.1529ZM25.9797 9.74022C25.8779 9.55532 25.7667 9.36374 25.6491 9.17648C25.4622 8.87851 25.2679 8.60539 25.0793 8.39107C24.8815 8.16637 24.7323 8.05564 24.6451 8.01708C24.0358 7.74941 23.6721 7.66504 21 7.66504C19.5389 7.66504 18.7895 7.68491 18.3143 7.74024C17.886 7.79011 17.7024 7.86453 17.3541 8.01738C17.2675 8.05542 17.1185 8.16562 16.9206 8.39043C16.732 8.60458 16.5378 8.87768 16.3508 9.17575C16.2332 9.36322 16.1219 9.55504 16.02 9.74017C16.7977 9.70556 17.9388 9.70515 19.4461 9.70818C20.482 9.71027 21.5179 9.71027 22.5537 9.70818C24.0609 9.70515 25.2025 9.70562 25.9797 9.74022Z" fill="#000000" class="bmwfcol"/><path d="M21.5356 5C21.3843 4.771 21.23 4.56223 21.0793 4.39099C20.8815 4.16629 20.7323 4.05557 20.6451 4.017C20.0358 3.74933 19.6721 3.66496 17 3.66496C15.5389 3.66496 14.7895 3.68484 14.3143 3.74016C13.886 3.79003 13.7024 3.86445 13.3541 4.0173C13.2675 4.05534 13.1185 4.16555 12.9206 4.39035C12.732 4.60451 12.5378 4.8776 12.3508 5.17568C11.9771 5.77139 11.6668 6.41106 11.5215 6.74032L11.4304 6.94686L11.2636 7.10032C10.7678 7.55593 10.349 7.95236 10.0527 8.3137C9.74147 8.69333 9.66496 8.9183 9.66496 9.03208V14.335H11V15.665H8.33496V9.03208C8.33496 8.43187 8.67417 7.8974 9.0242 7.47046C9.30944 7.12255 9.66979 6.76729 10.0458 6.41534C9.95008 6.37241 9.82239 6.34067 9.62543 6.32C9.32199 6.28815 8.93255 6.28879 8.34434 6.28975C8.2365 6.28993 8.12191 6.29012 8 6.29012V4.96012C8.11237 4.96012 8.22126 4.95988 8.32671 4.95965C8.90743 4.95839 9.38399 4.95736 9.76424 4.99726C10.127 5.03533 10.4525 5.11424 10.7543 5.28467C10.893 5.02397 11.0519 4.74347 11.2242 4.4689C11.4328 4.13639 11.6696 3.79854 11.9224 3.5114C12.1658 3.23496 12.4687 2.95348 12.8195 2.79948C13.228 2.62021 13.548 2.49039 14.1605 2.41908C14.7262 2.35323 15.555 2.33496 17 2.33496C19.6394 2.33496 20.2782 2.40312 21.1806 2.79956C21.5308 2.95398 21.8342 3.2357 22.0776 3.5122C22.3304 3.79935 22.5671 4.13707 22.7757 4.46946C22.8866 4.64614 22.9919 4.82527 23.09 5H21.5356Z" fill="#000000" class="bmwfcol"/><title>real-time-traffic-information_lt_48</title></svg>