<svg width="48" height="48" viewBox="0 0 32 32" xmlns="http://www.w3.org/2000/svg"><path d="M20.2144 7.33588C23.3289 8.33891 26.4025 9.77885 30 11.7394V13.2566C27.4282 11.8361 25.1593 10.6912 22.9842 9.78162C23.4147 10.2567 23.7555 10.6771 24.0125 11.0579C24.471 11.7374 24.7187 12.372 24.6552 13.0255C24.5929 13.6664 24.242 14.1844 23.8574 14.6474C23.6666 14.8771 23.4458 15.1177 23.2169 15.367L23.1978 15.3879C22.9584 15.6486 22.7032 15.9271 22.4343 16.2419L22.2447 16.4639L12.7512 16.8106C12.508 16.3443 12.205 15.9084 11.8413 15.5129L21.6154 15.156C21.8302 14.9111 22.0334 14.6896 22.2179 14.4885L22.2223 14.4838C22.4627 14.2219 22.6646 14.0019 22.8343 13.7976C23.1835 13.3772 23.3097 13.1206 23.3315 12.8969C23.352 12.6858 23.2905 12.3657 22.91 11.8019C22.5289 11.2371 21.8835 10.509 20.8713 9.50479C20.429 9.06599 19.5703 8.66008 18.7274 8.35282C18.3229 8.20535 17.9503 8.09039 17.6786 8.01232C17.5431 7.97337 17.4335 7.94383 17.3586 7.92422C17.3212 7.91442 17.2924 7.90712 17.2735 7.90237L17.2527 7.89719L17.2481 7.89605L17.2489 7.88919L17.2503 7.88359C14.3778 7.19378 11.3297 6.8506 7.62759 6.77898L6.50479 13.5157C6.03084 13.5464 5.5666 13.6215 5.11879 13.7417L6.2816 6.76483L6.09888 6.76464C5.7041 6.76464 5.31985 6.76425 4.94543 6.76387C3.89135 6.7628 2.91474 6.76181 2 6.76981V5.43879C2.90236 5.43105 3.85476 5.43228 4.87004 5.43359C5.26965 5.43411 5.67901 5.43464 6.09888 5.43464C11.7699 5.43464 16.0134 5.98293 20.2144 7.33588Z" fill="#000000" class="bmwfcol"/><path d="M21.5 22.3344C25.1374 22.3344 28.2193 24.713 29.2752 27.9995H27.8634C26.8654 25.4612 24.3925 23.6644 21.5 23.6644C18.6075 23.6644 16.1346 25.4612 15.1366 27.9995H13.7248C14.7807 24.713 17.8626 22.3344 21.5 22.3344Z" fill="#000000" class="bmwfcol"/><path d="M3.62973 16.6297C4.47123 15.7882 5.64884 15.335 6.99996 15.335C8.35108 15.335 9.52869 15.7882 10.3702 16.6297C11.2117 17.4712 11.665 18.6488 11.665 20C11.665 21.3511 11.2117 22.5287 10.3702 23.3702C9.92729 23.8131 9.39128 24.1484 8.78587 24.3668L10.2953 30H8.91837L7.48353 24.6451C7.32508 24.6583 7.1638 24.665 6.99996 24.665C6.83562 24.665 6.67384 24.6583 6.51492 24.645L5.08004 30H3.70312L5.21268 24.3663C4.60783 24.1479 4.0723 23.8128 3.62973 23.3702C2.78824 22.5287 2.33496 21.3511 2.33496 20C2.33496 18.6488 2.78824 17.4712 3.62973 16.6297ZM4.57019 17.5702C4.01169 18.1287 3.66496 18.9511 3.66496 20C3.66496 21.0488 4.01169 21.8712 4.57019 22.4297C5.12869 22.9882 5.95108 23.335 6.99996 23.335C8.04884 23.335 8.87123 22.9882 9.42974 22.4297C9.98824 21.8712 10.335 21.0488 10.335 20C10.335 18.9511 9.98824 18.1287 9.42974 17.5702C8.87123 17.0117 8.04884 16.665 6.99996 16.665C5.95108 16.665 5.12869 17.0117 4.57019 17.5702Z" fill="#000000" class="bmwfcol"/><title>rear_vehicle_side_window_with_seal_lt_48</title></svg>