<svg width="48" height="48" viewBox="0 0 32 32" xmlns="http://www.w3.org/2000/svg"><path d="M5.67345 17.5H4.34234C4.3349 17.9326 4.33493 18.3961 4.33497 18.8984V19.1015C4.33484 21.0098 4.33475 22.3572 4.74411 23.5853C5.17027 24.8637 6.01425 25.9547 7.52974 27.4702L7.72452 27.665H23.665V20.665H24.8621L28.3262 22.665H29.665V11.335L28.3262 11.335L24.8621 13.335H23.665V10.335H12.5V11.665H22.335V26.335H8.27694C6.928 24.9642 6.31529 24.093 6.00585 23.1647C5.67242 22.1644 5.66497 21.0377 5.66497 19C5.66497 18.4357 5.66554 17.9412 5.67345 17.5ZM23.665 19.335V14.665H25.2184L28.335 12.8656V21.1343L25.2184 19.335H23.665Z" fill="#000000" class="bmwfcol"/><path d="M3.66496 16H2.33496V4.33496L6.28777 4.33569C7.83476 4.3357 8.81773 4.51728 9.59505 5.11113C9.95874 5.43038 10.2443 5.8289 10.4295 6.276C10.6132 6.71913 10.6934 7.19821 10.6644 7.67686C10.6358 8.63959 10.2511 9.55735 9.58485 10.2525C9.28711 10.604 8.76453 11.1674 8.35651 11.601L11.0365 16H9.4791L6.8382 11.6651H3.66496V16ZM7.71961 10.3351C8.01731 10.0151 8.33193 9.67794 8.61367 9.34365C9.06071 8.88287 9.31823 8.27092 9.33519 7.62915C9.35331 7.34951 9.30811 7.04401 9.20085 6.78515C9.09647 6.53326 8.93712 6.30798 8.73455 6.12569C8.3337 5.8271 7.7758 5.66569 6.28777 5.66569L3.66496 5.66521V10.3351H7.71961Z" fill="#000000" class="bmwfcol"/><title>rear-view-camera_lt_48</title></svg>