<svg width="48" height="48" viewBox="0 0 32 32" xmlns="http://www.w3.org/2000/svg"><path d="M21.2207 7.2526C21.2048 7.3401 21.1875 7.42253 21.1688 7.5H22.5275L22.5294 7.48952C22.665 6.74019 22.665 5.961 22.665 5.51434V4.33503H20.4966C20.3886 4.0118 20.2532 3.70616 20.0541 3.44278C19.7303 3.01437 19.2907 2.76036 18.721 2.60769C18.1763 2.46173 17.4742 2.39813 16.5727 2.36668C15.6655 2.33502 14.5022 2.33502 13.0134 2.33502H12.9866C11.4978 2.33502 10.3344 2.33502 9.42722 2.36668C8.52573 2.39813 7.82366 2.46173 7.27898 2.60768C6.70922 2.76036 6.26964 3.01437 5.94581 3.44277C5.64758 3.83731 5.49222 4.32667 5.35792 4.82791L5.22203 5.33502H4V6.66502H5.92682L6.83503 27.4666V29.665H14.0186C14.5027 29.665 14.8925 29.665 15.2069 29.6485C15.5272 29.6316 15.8148 29.5961 16.0853 29.5059C16.338 29.4217 16.5515 29.2956 16.7529 29.1395C17.2536 29.4716 17.8542 29.665 18.5 29.665C20.248 29.665 21.665 28.248 21.665 26.5C21.665 25.0443 20.6823 23.8182 19.3441 23.4488L19.4163 22H18.0847L18.0162 23.3718C16.4979 23.6046 15.335 24.9165 15.335 26.5C15.335 27.1155 15.5107 27.6899 15.8146 28.1759C15.7632 28.2065 15.7161 28.227 15.6647 28.2441C15.5603 28.279 15.4104 28.3059 15.137 28.3203C14.8616 28.3348 14.5072 28.335 14 28.335H8.16503V27.4376L7.25808 6.66502H17V5.33502H6.59895L6.6426 5.17214C6.77624 4.67338 6.87983 4.41274 7.0068 4.24478C7.10816 4.11068 7.26004 3.98968 7.62323 3.89236C8.0115 3.78832 8.58388 3.72691 9.4736 3.69587C10.3549 3.66512 11.4952 3.66502 13 3.66502C14.5048 3.66502 15.6451 3.66512 16.5264 3.69587C17.4161 3.72691 17.9885 3.78832 18.3767 3.89236C18.7399 3.98968 18.8918 4.11067 18.9931 4.24477C19.1201 4.41273 19.2237 4.67338 19.3573 5.17214L19.4894 5.66503H21.3348C21.3332 6.10964 21.3206 6.70079 21.2207 7.2526ZM16.665 26.5C16.665 25.4866 17.4866 24.665 18.5 24.665C19.5135 24.665 20.335 25.4866 20.335 26.5C20.335 27.5135 19.5135 28.335 18.5 28.335C17.4866 28.335 16.665 27.5135 16.665 26.5Z" fill="#000000" class="bmwfcol"/><path d="M16.9365 9.41655C17.3234 8.74718 18.0378 8.3349 18.811 8.3349H19.3888C20.1623 8.3349 20.877 8.74755 21.2637 9.4174L22.5451 11.6369L23.0338 9.81311L23.847 11.2216L23.1149 13.954L20.3829 13.222L19.5698 11.8135L21.3935 12.3022L20.1119 10.0824C19.9627 9.82405 19.6871 9.6649 19.3888 9.6649H18.811C18.5128 9.6649 18.2373 9.8239 18.088 10.0821L17.0659 11.8507L15.9144 11.1851L16.9365 9.41655Z" fill="#000000" class="bmwfcol"/><path d="M15.8985 12.5475L16.6301 15.278L15.8169 16.6865L15.3283 14.8627L14.047 17.0819C13.8979 17.3403 13.8979 17.6586 14.047 17.9169L14.336 18.4174C14.4852 18.6758 14.7608 18.8349 15.0591 18.8349H17.1V20.1649H15.0591C14.2856 20.1649 13.5709 19.7523 13.1842 19.0824L12.8952 18.5819C12.5085 17.9121 12.5085 17.0868 12.8952 16.4169L14.1752 14.1999L12.3514 14.6886L13.1646 13.2801L15.8985 12.5475Z" fill="#000000" class="bmwfcol"/><path d="M21.9131 21.4999L20.5781 20.1649H23.1383C23.9118 20.1649 24.6265 19.7522 25.0133 19.0824L25.3037 18.5793C25.6903 17.9098 25.6905 17.0849 25.3042 16.4152L24.286 14.6497L23.1339 15.3141L24.1521 17.0797C24.3011 17.338 24.301 17.6561 24.1519 17.9143L23.8615 18.4174C23.7123 18.6757 23.4367 18.8349 23.1383 18.8349H20.5781L21.9131 17.4999H20.2868L18.2868 19.4999L20.2868 21.4999H21.9131Z" fill="#000000" class="bmwfcol"/><title>recycling_bin_lt_48</title></svg>