<svg width="48" height="48" viewBox="0 0 32 32" xmlns="http://www.w3.org/2000/svg"><path d="M15.2943 4.07197C15.6073 3.5298 16.3899 3.5298 16.7029 4.07197L20.0173 9.81259L18.1927 9.32369L19.0058 10.7322L21.7379 11.4642L22.47 8.73192L21.6568 7.32345L21.1684 9.14637L17.8547 3.40697C17.0298 1.9782 14.9675 1.97835 14.1425 3.40697L11.5646 7.86814L12.7161 8.53358L15.2943 4.07197Z" fill="#000000" class="bmwfcol"/><path d="M7.18629 18.1154L10.499 12.3777L10.9865 14.197L11.7996 12.7886L11.0681 10.0586L8.33382 10.7912L7.52065 12.1997L9.34884 11.7098L6.03448 17.4504C5.20954 18.8793 6.24072 20.6653 7.8906 20.6653H13.0421V19.3353H7.8906C7.26455 19.3353 6.87327 18.6576 7.18629 18.1154Z" fill="#000000" class="bmwfcol"/><path d="M25.9627 17.4504L23.3894 12.9893L22.2374 13.6538L24.8109 18.1154C25.1239 18.6576 24.7327 19.3353 24.1066 19.3353H17.478L18.8128 18.0005H17.1865L15.1865 20.0005L17.1865 22.0005H18.8128L17.4777 20.6653H24.1066C25.7565 20.6653 26.7877 18.8793 25.9627 17.4504Z" fill="#000000" class="bmwfcol"/><path d="M7.8396 30.0001H9.0157L9.498 28.7016H11.8317L12.314 30.0001H13.5205L11.2785 24.0054H10.0657L7.8396 30.0001ZM11.4393 27.6189H9.88367L10.6642 25.5104L11.4393 27.6189Z" fill="#000000" class="bmwfcol"/><path d="M14.1523 30.0001H18.2178V28.91H15.2646V24.0054H14.1523V30.0001Z" fill="#000000" class="bmwfcol"/><path d="M20.0337 24.0054H18.9213V27.6705C18.9213 28.4884 19.0137 29.1461 19.4865 29.6021C19.9236 30.0303 20.4826 30.1262 21.2138 30.1262C21.9318 30.1262 22.4727 30.0044 22.9043 29.6235L22.9058 29.6222C23.4224 29.1573 23.4988 28.5156 23.4988 27.6705V24.0054H22.3865V27.6705C22.3865 28.336 22.3328 28.6257 22.1146 28.8175C21.9275 28.9755 21.6427 29.0361 21.2138 29.0361C20.7579 29.0361 20.4784 28.9863 20.3043 28.8231L20.3032 28.8221C20.0867 28.6222 20.0337 28.3279 20.0337 27.6705V24.0054Z" fill="#000000" class="bmwfcol"/><title>recycled_aluminium_lt_48</title></svg>