<svg width="48" height="48" viewBox="0 0 32 32" xmlns="http://www.w3.org/2000/svg"><path d="M15.4226 4.33496C14.1138 4.33496 12.9043 5.03287 12.2494 6.16601L10.2051 9.7032L11.3566 10.3687L13.4009 6.83154C13.8182 6.10961 14.5887 5.66496 15.4226 5.66496H16.5782C17.4124 5.66496 18.1832 6.11001 18.6004 6.83246L21.8678 12.4919L17.3105 11.2707L18.1944 12.8017L23.6576 14.2655L25.1221 8.79997L24.2382 7.26904L23.0178 11.8237L19.7522 6.16746C19.0975 5.03351 17.8876 4.33496 16.5782 4.33496H15.4226Z" fill="#000000" class="bmwfcol"/><path d="M9.226 12.7385L10.6894 18.2001L9.80555 19.7311L8.58464 15.1746L5.31861 20.8315C4.9015 21.5539 4.9015 22.444 5.31861 23.1665L5.89654 24.1675C6.31365 24.8899 7.08449 25.335 7.91871 25.335H12.0005V26.665H7.91871C6.60933 26.665 5.39941 25.9664 4.74472 24.8325L4.1668 23.8315C3.51211 22.6975 3.51211 21.3004 4.1668 20.1665L7.4304 14.5137L2.875 15.7344L3.75888 14.2034L9.226 12.7385Z" fill="#000000" class="bmwfcol"/><path d="M20.8849 30L17.5497 26.6648H24.0773C25.3867 26.6648 26.5966 25.9663 27.2513 24.8323L27.8322 23.8262C28.4866 22.6928 28.4869 21.2964 27.833 20.1627L25.7966 16.6316L24.6445 17.296L26.6809 20.8271C27.0975 21.5494 27.0973 22.4391 26.6804 23.1612L26.0995 24.1673C25.6824 24.8898 24.9115 25.3348 24.0773 25.3348H17.5502L20.885 22H19.1173L15.1172 26.0001L19.1171 30H20.8849Z" fill="#000000" class="bmwfcol"/><title>recycling_lt_48</title></svg>