<svg width="48" height="48" viewBox="0 0 32 32" xmlns="http://www.w3.org/2000/svg"><path d="M16 28.6651C22.9947 28.6651 28.665 22.9948 28.665 16.0001H27.335C27.335 22.2602 22.2601 27.3351 16 27.3351C12.8697 27.3351 10.0369 26.0671 7.98493 24.0151L7.59491 23.6251H11.6255L10.3755 22.3751H5.37546L5.37546 27.3751L6.62546 28.6251V24.5366L7.04448 24.9556C9.33566 27.2468 12.5028 28.6651 16 28.6651Z" fill="#000000" class="bmwfcol"/><path d="M16 3.33521C9.00529 3.33521 3.33498 9.0055 3.33496 16.0002H4.66496C4.66498 9.74004 9.73982 4.66521 16 4.66521C19.1302 4.66521 21.9631 5.93319 24.015 7.98515L24.405 8.37512L20.375 8.37512L21.625 9.62512L26.625 9.62512V4.62512L25.375 3.37512V7.46423L24.9555 7.0447C22.6643 4.75351 19.4971 3.3352 16 3.33521Z" fill="#000000" class="bmwfcol"/><path d="M10.3351 11.3351H14.6651V12.3351H17.3351V11.3351H21.6651V12.3351H23.6651V20.6651H8.33506V12.3351H10.3351V11.3351ZM11.6651 12.6651V13.6651H9.66506V19.3351H22.3351V13.6651H20.3351V12.6651H18.6651V13.6651H13.3351V12.6651H11.6651Z" fill="#000000" class="bmwfcol"/><path d="M16.665 15V18H15.335V15H16.665Z" fill="#000000" class="bmwfcol"/><path d="M13.665 15V18H12.335V15H13.665Z" fill="#000000" class="bmwfcol"/><path d="M19.665 16V18H18.335V16H19.665Z" fill="#000000" class="bmwfcol"/><title>regenerative-braking_lt_48</title></svg>