<svg width="48" height="48" viewBox="0 0 32 32" xmlns="http://www.w3.org/2000/svg"><path d="M24.335 26.335V14.7264L25.665 13.3964V27.665H4.33496V6.33496H18.603L17.273 7.66496H5.66496V26.335H24.335Z" fill="#000000" class="bmwfcol"/><path d="M11.335 20.6648V15.7243L22.5297 4.52952C22.7668 4.29245 23.047 4.0906 23.3865 3.99078C23.7358 3.88803 24.0869 3.91123 24.4289 4.02519C25.0617 4.23608 25.7217 4.78105 26.4702 5.52954C27.2182 6.27758 27.7639 6.93701 27.9753 7.56949C28.0895 7.91148 28.1129 8.26275 28.0099 8.6125C27.9099 8.95214 27.7076 9.23257 27.4702 9.47L16.2754 20.6648H11.335ZM23.4702 5.46999L21.9401 7.0001L24.9996 10.0596L26.5298 8.5295C26.6898 8.36945 26.7888 8.21547 26.7138 7.99096C26.6121 7.68649 26.2817 7.22198 25.5297 6.46997C24.7782 5.71841 24.3131 5.3885 24.0084 5.28697C23.7841 5.21222 23.6302 5.30997 23.4702 5.46999ZM12.665 16.2752V19.3348H15.7245L24.0591 11L20.9996 7.94055L12.665 16.2752Z" fill="#000000" class="bmwfcol"/><title>register_lt_48</title></svg>