<svg width="48" height="48" viewBox="0 0 32 32" xmlns="http://www.w3.org/2000/svg"><path d="M19 13.3663C19.5792 13.3349 20.2064 13.335 20.9191 13.335L21 13.335C22.7761 13.335 24.0975 13.5838 25.4057 14.0914C25.9322 14.2957 26.4547 14.5415 27 14.8253V16.335C26.2479 15.92 25.5876 15.5886 24.9246 15.3313C23.7882 14.8905 22.6325 14.665 21 14.665C20.1965 14.665 19.5542 14.6664 19 14.6987V13.3663Z" fill="#000000" class="bmwfcol"/><path d="M15 14.6458C14.3336 15.0734 13.6034 15.6321 12.7341 16.3558C9.63349 16.6268 7.99183 16.7723 6.83783 17.0288C5.61278 17.3011 4.91528 17.7038 3.701 18.4049L3.33523 18.6161L3.33498 23.0136L3.8279 23.1457C4.75027 23.3929 5.27588 23.5243 5.64337 23.592C5.80169 23.6211 5.93213 23.6386 6.05006 23.6492C6.51 24.829 7.65736 25.665 8.99998 25.665C10.3366 25.665 11.4797 24.8365 11.9437 23.665H15V22.335H12.1608C12.0749 20.6637 10.6926 19.335 8.99998 19.335C7.32727 19.335 5.95764 20.6326 5.84278 22.2761C5.59752 22.229 5.24752 22.1448 4.66504 21.9919L4.66519 19.3844C5.67883 18.8027 6.20775 18.5313 7.12639 18.3271C8.19707 18.0892 9.77031 17.9499 13.0581 17.6625L13.267 17.6442L13.4277 17.5095C14.0264 17.007 14.5419 16.5969 15 16.2611V14.6458ZM7.16498 22.5C7.16498 21.4866 7.98654 20.665 8.99998 20.665C10.0134 20.665 10.835 21.4866 10.835 22.5C10.835 23.5135 10.0134 24.335 8.99998 24.335C7.98654 24.335 7.16498 23.5135 7.16498 22.5Z" fill="#000000" class="bmwfcol"/><path d="M20 8.33504C18.8975 8.33504 17.9485 8.61112 17.2798 9.27981C16.6111 9.94851 16.335 10.8975 16.335 12V26C16.335 27.1025 16.6111 28.0516 17.2798 28.7203C17.9485 29.389 18.8975 29.665 20 29.665H26C27.1025 29.665 28.0516 29.389 28.7203 28.7203C29.389 28.0516 29.665 27.1025 29.665 26V12C29.665 10.8975 29.389 9.94851 28.7203 9.27981C28.0516 8.61112 27.1025 8.33504 26 8.33504H20ZM17.665 12C17.665 11.1025 17.889 10.5516 18.2203 10.2203C18.5516 9.88896 19.1025 9.66504 20 9.66504H26C26.8975 9.66504 27.4485 9.88896 27.7798 10.2203C28.1111 10.5516 28.335 11.1025 28.335 12V24.335L17.665 24.335V12ZM17.665 25.665L28.335 25.665V26C28.335 26.8975 28.1111 27.4485 27.7798 27.7798C27.4485 28.1111 26.8975 28.335 26 28.335H20C19.1025 28.335 18.5516 28.1111 18.2203 27.7798C17.889 27.4485 17.665 26.8975 17.665 26V25.665Z" fill="#000000" class="bmwfcol"/><path d="M4.77016 1.61719C4.03383 1.61719 2.97274 1.83484 2.44532 1.95087L2.28829 1.98542V3.3957L2.53359 3.33866C2.99579 3.23117 4.03341 2.99361 4.75954 2.99361C5.42959 2.99361 5.7427 3.10161 5.91682 3.26782C6.06428 3.40752 6.1197 3.58922 6.1197 3.83372C6.1197 4.11761 5.97185 4.43491 5.69116 4.81961L5.3694 5.25756H3.03122V6.62337H4.63218C5.10428 6.62337 5.3883 6.62998 5.62041 6.75893C5.82228 6.86691 5.96121 6.99652 6.05179 7.1553C6.14301 7.3152 6.194 7.52016 6.194 7.79249C6.194 8.20359 6.06241 8.51819 5.78578 8.72567C5.54172 8.90872 5.12926 9.00407 4.5685 9.00407C3.85641 9.00407 3.01404 8.85901 2.45872 8.76289L2.22461 8.72237V10.1146L2.3896 10.1439C2.86621 10.2286 3.7208 10.3805 4.57912 10.3805C5.64566 10.3805 6.4219 10.1511 6.97424 9.57521C7.41012 9.11577 7.62349 8.44646 7.62349 7.78188C7.62349 7.1065 7.44208 6.57997 7.08713 6.16586C6.94312 5.99785 6.79801 5.86783 6.65587 5.76487C6.76326 5.61244 6.90328 5.41124 7.02972 5.22531C7.33412 4.74696 7.53858 4.30443 7.53858 3.78065C7.53858 3.2325 7.36729 2.67631 6.95824 2.27903C6.45685 1.78958 5.79782 1.61719 4.77016 1.61719Z" fill="#000000" class="bmwfcol"/><path d="M11.9754 1.79761H8.99476V10.2001H11.8905C12.995 10.2001 13.7791 10.016 14.4276 9.39082C15.1975 8.65516 15.5187 7.47261 15.5187 5.967C15.5187 4.47654 15.2312 3.32653 14.538 2.62166C13.909 1.98096 13.1419 1.79761 11.9754 1.79761ZM10.4136 8.81303V3.18465H11.9754C12.7224 3.18465 13.1818 3.27223 13.5228 3.65737C13.9273 4.12857 14.0785 4.94197 14.0785 5.967C14.0785 7.00843 13.8971 7.78575 13.5509 8.20675C13.3742 8.42167 13.179 8.56926 12.9269 8.6657C12.6705 8.76377 12.3445 8.81303 11.9012 8.81303H10.4136Z" fill="#000000" class="bmwfcol"/><title>remote-3d-view_lt_48</title></svg>