<svg width="48" height="48" viewBox="0 0 32 32" xmlns="http://www.w3.org/2000/svg"><path d="M18 10.3662C18.5792 10.3349 19.2873 10.3349 20 10.335C21.776 10.335 23.0975 10.5838 24.4057 11.0913C24.9322 11.2956 25.4547 11.5414 26 11.8253V13.3349C25.2478 12.9199 24.5876 12.5885 23.9246 12.3313C22.7882 11.8904 21.6325 11.665 20 11.665C19.1965 11.665 18.5542 11.6663 18 11.6986V10.3662Z" fill="#000000" class="bmwfcol"/><path d="M14 11.6457C13.3336 12.0733 12.6034 12.6321 11.7341 13.3557C8.63347 13.6268 6.99181 13.7722 5.83781 14.0287C4.61276 14.301 3.91526 14.7037 2.70098 15.4048L2.33521 15.616L2.33496 20.0136L2.82788 20.1456C3.75025 20.3928 4.27586 20.5242 4.64335 20.5919C4.80167 20.621 4.93211 20.6386 5.05004 20.6491C5.50998 21.8289 6.65734 22.6649 7.99996 22.6649C9.33656 22.6649 10.4796 21.8364 10.9437 20.665H14V19.335H11.1607C11.0749 17.6637 9.6926 16.3349 7.99996 16.3349C6.32725 16.3349 4.95762 17.6326 4.84276 19.2761C4.5975 19.2289 4.2475 19.1448 3.66502 18.9918L3.66517 16.3843C4.67881 15.8026 5.20773 15.5312 6.12637 15.327C7.19705 15.0891 8.77029 14.9499 12.0581 14.6624L12.267 14.6442L12.4276 14.5094C13.0264 14.0069 13.5419 13.5968 14 13.261V11.6457ZM6.16496 19.4999C6.16496 18.4865 6.98652 17.6649 7.99996 17.6649C9.0134 17.6649 9.83496 18.4865 9.83496 19.4999C9.83496 20.5134 9.0134 21.3349 7.99996 21.3349C6.98652 21.3349 6.16496 20.5134 6.16496 19.4999Z" fill="#000000" class="bmwfcol"/><path d="M19 5.33496C17.8975 5.33496 16.9485 5.61104 16.2798 6.27973C15.6111 6.94843 15.335 7.89745 15.335 8.99996V23C15.335 24.1025 15.6111 25.0515 16.2798 25.7202C16.9485 26.3889 17.8975 26.665 19 26.665H25C26.1025 26.665 27.0515 26.3889 27.7202 25.7202C28.3889 25.0515 28.665 24.1025 28.665 23V8.99996C28.665 7.89745 28.3889 6.94843 27.7202 6.27973C27.0515 5.61104 26.1025 5.33496 25 5.33496H19ZM16.665 8.99996C16.665 8.10247 16.8889 7.55149 17.2202 7.22019C17.5515 6.88888 18.1025 6.66496 19 6.66496H25C25.8975 6.66496 26.4485 6.88888 26.7798 7.22019C27.1111 7.55149 27.335 8.10247 27.335 8.99996V21.335L16.665 21.335V8.99996ZM16.665 22.665L27.335 22.665V23C27.335 23.8975 27.1111 24.4484 26.7798 24.7797C26.4485 25.111 25.8975 25.335 25 25.335H19C18.1025 25.335 17.5515 25.111 17.2202 24.7797C16.8889 24.4484 16.665 23.8975 16.665 23V22.665Z" fill="#000000" class="bmwfcol"/><title>remote-services_lt_48</title></svg>