<svg width="48" height="48" viewBox="0 0 32 32" xmlns="http://www.w3.org/2000/svg"><path d="M21.665 5.99996V14.7H20.335V7.66496L5.66496 7.66497V24.335H20.335V23.33H21.665V26C21.665 27.1025 21.3889 28.0515 20.7202 28.7202C20.0515 29.3889 19.1025 29.665 18 29.665H7.99996C6.89746 29.665 5.94843 29.3889 5.27974 28.7202C4.61104 28.0515 4.33496 27.1025 4.33496 26V5.99996C4.33496 4.89745 4.61104 3.94843 5.27974 3.27973C5.94843 2.61104 6.89746 2.33496 7.99996 2.33496H18C19.1025 2.33496 20.0515 2.61104 20.7202 3.27973C21.3889 3.94843 21.665 4.89745 21.665 5.99996ZM6.22019 4.22019C5.88888 4.55149 5.66496 5.10247 5.66496 5.99996V6.33497L20.335 6.33496V5.99996C20.335 5.10247 20.111 4.55149 19.7797 4.22019C19.4484 3.88888 18.8975 3.66496 18 3.66496H7.99996C7.10247 3.66496 6.55149 3.88888 6.22019 4.22019ZM5.66496 26C5.66496 26.8975 5.88888 27.4484 6.22019 27.7797C6.55149 28.111 7.10247 28.335 7.99996 28.335H18C18.8975 28.335 19.4484 28.111 19.7797 27.7797C20.111 27.4484 20.335 26.8975 20.335 26V25.665H5.66496V26Z" fill="#000000" class="bmwfcol"/><path d="M14.4301 16.0054H13.2174L10.9912 22.0001H12.1673L12.6496 20.7016H14.9833L15.4656 22.0001H16.6721L14.4301 16.0054ZM14.5909 19.6189H13.0353L13.8158 17.5104L14.5909 19.6189Z" fill="#000000" class="bmwfcol"/><path d="M24.9085 16.0054H22.4973V22.0001H23.6097V19.9076C24.2068 19.9074 24.762 19.9054 25.0637 19.8848C25.6022 19.8464 26.0659 19.7207 26.4066 19.3453C26.7665 18.9512 26.8745 18.432 26.8745 17.8971C26.8745 17.3775 26.7261 16.8423 26.3855 16.5017C26.0301 16.1463 25.5766 16.0054 24.9085 16.0054ZM23.6097 18.8175V17.0954H24.8417C25.2369 17.0954 25.4196 17.1377 25.5418 17.255C25.6651 17.3732 25.7473 17.5919 25.7473 17.8971C25.7473 18.2129 25.7024 18.4158 25.5959 18.5543L25.595 18.5554C25.4881 18.6963 25.3168 18.7593 24.9593 18.7885C24.6319 18.8142 24.135 18.8172 23.6097 18.8175Z" fill="#000000" class="bmwfcol"/><path d="M19.6409 16.0054H17.2297V22.0001H18.342V19.9076C18.9392 19.9074 19.4944 19.9054 19.7961 19.8848C20.3346 19.8464 20.7983 19.7207 21.139 19.3453C21.4989 18.9512 21.6068 18.432 21.6068 17.8971C21.6068 17.3775 21.4584 16.8423 21.1179 16.5017C20.7625 16.1463 20.309 16.0054 19.6409 16.0054ZM18.342 18.8175V17.0954H19.5741C19.9693 17.0954 20.152 17.1377 20.2742 17.255C20.3975 17.3732 20.4797 17.5919 20.4797 17.8971C20.4797 18.2129 20.4347 18.4158 20.3282 18.5543L20.3274 18.5554C20.2205 18.6963 20.0492 18.7593 19.6917 18.7885C19.3643 18.8142 18.8674 18.8172 18.342 18.8175Z" fill="#000000" class="bmwfcol"/><title>remote_app_lt_48</title></svg>