<svg width="48" height="48" viewBox="0 0 32 32" xmlns="http://www.w3.org/2000/svg"><path d="M21.998 7.88095L25.3326 4.54638V5.99805C25.3326 8.24693 24.5859 10.0693 23.3274 11.3278C23.2696 11.3856 23.2106 11.4424 23.1504 11.498H24.941C26.0557 10.0354 26.6626 8.14953 26.6626 5.99805V4.54572L29.998 7.88114V6.11338L25.998 2.11328L21.998 6.11319V7.88095Z" fill="#000000" class="bmwfcol"/><path d="M9.1289 6.33499C9.64412 6.33483 10.0926 6.33469 10.4989 6.35801V7.69151C10.1213 7.66755 9.64513 7.66501 8.99899 7.66501L4.99899 7.66501C4.82593 7.66501 4.75914 7.71531 4.73671 7.73774C4.71428 7.76017 4.66399 7.82695 4.66399 8.00001L4.66399 24.6801L7.35615 14.6328C7.58821 13.7668 8.36844 13.335 9.21254 13.335L28.2128 13.335C28.6071 13.335 29.049 13.4276 29.3632 13.7473C29.7104 14.1006 29.7503 14.5695 29.6411 14.9771L26.5094 26.665L3.33399 26.665L3.33398 8.00001C3.33398 7.55307 3.47369 7.11986 3.79626 6.79729C4.11883 6.47471 4.55205 6.33501 4.99899 6.33501L9.1289 6.33499ZM25.4888 25.335L28.3455 14.6736C28.3115 14.6686 28.2676 14.665 28.2128 14.665L9.21254 14.665C8.80865 14.665 8.67884 14.8352 8.64083 14.977L5.86542 25.335L25.4888 25.335Z" fill="#000000" class="bmwfcol"/><path d="M16.663 9.45046L19.998 6.11542V7.88319L15.9981 11.8831L11.998 7.883V6.11523L15.333 9.4502V7.99899C15.333 5.59355 16.0916 3.52019 17.4705 1.99902L19.4595 1.99902C19.1754 2.2022 18.9113 2.42616 18.6682 2.66921C17.4097 3.92771 16.663 5.7501 16.663 7.99899V9.45046Z" fill="#000000" class="bmwfcol"/><title>replace_lt_48</title></svg>