<svg width="48" height="48" viewBox="0 0 32 32" xmlns="http://www.w3.org/2000/svg"><path d="M10.3359 28.7748C7.40626 28.9644 4.89861 28.9714 2 28.7958V27.4633C5.10664 27.6547 7.74046 27.6334 10.9526 27.3992L11.6659 27.3472V28.335H13.3359V23.6727C12.4957 23.8601 11.6191 23.9618 10.5 24.044V22.7102C11.5204 22.6331 12.2896 22.5405 13.0045 22.3839C12.9866 22.3611 12.9679 22.3377 12.9482 22.3137C12.6633 21.9663 12.2652 21.5864 11.7943 21.1527C11.5801 21.1134 11.2837 21.0844 10.8642 21.0657C8.71966 20.9702 6.56274 21.0419 4.41641 21.0376C3.61095 21.0376 2.80542 21.0318 2 21.0428V19.7128C2.81627 19.7019 3.63268 19.7068 4.44899 19.7076C5.48425 19.7115 6.51946 19.7086 7.55472 19.7076C8.6959 19.7053 9.84002 19.6871 10.9804 19.7396C10.8787 19.5549 10.7675 19.3635 10.6501 19.1764C10.4631 18.8784 10.2689 18.6053 10.0803 18.391C9.88245 18.1663 9.7333 18.0556 9.64608 18.017C9.03673 17.7493 8.6731 17.665 6.00097 17.665C4.53985 17.665 3.7905 17.6848 3.3153 17.7402C2.88698 17.79 2.70341 17.8645 2.35511 18.0173C2.28037 18.0501 2.1591 18.1367 2 18.3044V16.722C2.33181 16.5825 2.64108 16.4797 3.1615 16.4191C3.72713 16.3532 4.55594 16.335 6.00097 16.335C8.64037 16.335 9.27922 16.4031 10.1816 16.7996C10.5317 16.954 10.8352 17.2357 11.0786 17.5122C11.3313 17.7993 11.5681 18.1371 11.7767 18.4695C11.9487 18.7435 12.1074 19.0235 12.246 19.2838C12.5474 19.1138 12.8726 19.035 13.2348 18.997C13.6841 18.9499 14.2681 18.9599 14.9992 18.9599V20.2899C14.2125 20.2899 13.7327 20.2821 13.3736 20.3198C13.2374 20.334 13.0775 20.3357 12.9813 20.4399C13.3478 20.7838 13.6981 21.1306 13.9767 21.4705C14.3267 21.8974 14.6659 22.4319 14.6659 23.0321V29.665H10.3359V28.7748Z" fill="#000000" class="bmwfcol"/><path d="M3.10048 22.1475H5.40792L6.00094 22.444L6.59395 22.1475H8.90139L9.66594 22.912V25.0619L8.68758 26.665H6.28799L6.00094 26.3779L5.71389 26.665H3.34991L2.33594 25.0683V22.912L3.10048 22.1475ZM3.66594 23.4775V24.6817L4.08082 25.335H5.16298L5.33594 25.162V23.5985L5.09395 23.4775H3.66594ZM6.66594 23.5985V25.162L6.83889 25.335H7.94115L8.33594 24.6881V23.4775H6.90792L6.66594 23.5985Z" fill="#000000" class="bmwfcol"/><path d="M26.001 2.33496C28.4605 2.33496 29.1828 2.39415 30 2.72299V4.30313C29.8419 4.13667 29.7211 4.05016 29.6461 4.017C29.0367 3.74933 28.6731 3.66496 26.001 3.66496C24.5398 3.66496 23.7905 3.68484 23.3153 3.74016C22.887 3.79003 22.7034 3.86445 22.3551 4.0173C22.2685 4.05534 22.1195 4.16554 21.9216 4.39035C21.733 4.60451 21.5388 4.8776 21.3518 5.17568C21.2343 5.36297 21.1231 5.55462 21.0213 5.73959C22.1623 5.687 23.3071 5.70533 24.449 5.70762C25.4842 5.7097 26.5195 5.70969 27.5547 5.70762C28.5396 5.70564 29.3439 5.70402 30 5.71279V7.04281C29.3641 7.03409 28.5755 7.03565 27.5884 7.03761C26.5303 7.03971 25.4722 7.03971 24.4141 7.03761C22.9203 7.03465 21.8805 7.03259 21.1364 7.06569C20.7184 7.0843 20.4223 7.11319 20.2081 7.15226C19.7861 7.5409 19.3517 7.93141 18.9969 8.3846C19.7113 8.54084 20.4802 8.63323 21.5 8.71031V10.0441C20.3817 9.96198 19.5055 9.86049 18.6659 9.67347V14.335H20.3359V13.3472L21.0493 13.3992C24.2608 13.6333 26.8942 13.6547 30 13.4634V14.7959C27.1022 14.9714 24.595 14.9644 21.6659 14.7748V15.665H17.3359V9.03208C17.3359 8.43187 17.6751 7.8974 18.0252 7.47046C18.3034 7.13106 18.6532 6.78466 19.0192 6.44118C18.9222 6.33612 18.7629 6.33418 18.6254 6.31975C18.2664 6.28208 17.7866 6.28987 17 6.28987V4.95987C17.7308 4.95987 18.3151 4.94988 18.7642 4.99702C19.1274 5.03512 19.4531 5.11414 19.7551 5.28491C19.8939 5.02414 20.0529 4.74355 20.2251 4.4689C20.4337 4.13639 20.6705 3.79854 20.9234 3.5114C21.1668 3.23496 21.4697 2.95348 21.8205 2.79948C22.229 2.62021 22.549 2.49039 23.1615 2.41908C23.7271 2.35323 24.5559 2.33496 26.001 2.33496Z" fill="#000000" class="bmwfcol"/><path d="M23.1005 8.14746H25.4079L26.0009 8.44397L26.594 8.14746H28.9014L29.6659 8.91201V11.0619L28.6876 12.665H26.288L26.0009 12.3779L25.7139 12.665H23.3499L22.3359 11.0683V8.91201L23.1005 8.14746ZM23.6659 9.47746V10.6817L24.0808 11.335H25.163L25.3359 11.162V9.59845L25.094 9.47746H23.6659ZM26.6659 9.59845V11.162L26.8389 11.335H27.9411L28.3359 10.6881V9.47746H26.9079L26.6659 9.59845Z" fill="#000000" class="bmwfcol"/><path d="M12.4485 8.66496L9.11347 12H10.8812L14.8811 8.00009L10.881 4H9.11328L12.4482 7.33496H8.99899C7.64787 7.33496 6.47026 7.78824 5.62876 8.62974C4.78726 9.47123 4.33398 10.6488 4.33398 12V14H5.66398V12C5.66398 10.9511 6.01071 10.1287 6.56921 9.57019C7.12771 9.01169 7.9501 8.66496 8.99899 8.66496H12.4485Z" fill="#000000" class="bmwfcol"/><path d="M22.8849 20L19.5499 23.335H23C24.0489 23.335 24.8713 22.9883 25.4298 22.4298C25.9883 21.8713 26.335 21.0489 26.335 20V18H27.665V20C27.665 21.3511 27.2117 22.5287 26.3702 23.3702C25.5287 24.2117 24.3511 24.665 23 24.665H19.55L22.885 28H21.1173L17.1172 23.9999L21.1171 20H22.8849Z" fill="#000000" class="bmwfcol"/><title>replacement-vehicle_lt_48</title></svg>