<svg width="48" height="48" viewBox="0 0 32 32" xmlns="http://www.w3.org/2000/svg"><path d="M18.664 19.598V21.6999H17.334V18.6957C19.2094 17.9962 20.334 16.5705 20.334 14.4991C20.334 13.3811 20.0275 12.4517 19.5015 11.7467L18.7097 14.7018C18.5147 15.4315 18.1111 15.9659 17.4472 16.183C16.8598 16.3751 16.1941 16.2696 15.5749 16.1037C14.9558 15.9378 14.326 15.6961 13.9131 15.2362C13.4462 14.7162 13.3636 14.0513 13.5614 13.3218L14.3373 10.4258C13.6368 10.6664 13.0615 11.0639 12.6283 11.5799C12.0255 12.298 11.664 13.2863 11.664 14.4991C11.664 16.5705 12.7886 17.9962 14.664 18.6957V21.6999H13.334V19.598C11.4499 18.7059 10.334 16.8399 10.334 14.4991C10.334 13.0168 10.7796 11.7135 11.6096 10.7248C12.5781 9.57113 13.9272 9.0574 15.3784 8.85105L15.9592 9.51154L14.8455 13.668C14.7293 14.0961 14.8191 14.2545 14.9028 14.3477C15.0406 14.5012 15.3397 14.6637 15.9192 14.819C16.4986 14.9743 16.8381 14.9829 17.0337 14.9189C17.1528 14.88 17.3099 14.7881 17.4247 14.3585L18.5673 10.0944L19.4051 9.81251C20.8744 10.9925 21.664 12.5938 21.664 14.4991C21.664 16.8399 20.548 18.7059 18.664 19.598Z" fill="#000000" class="bmwfcol"/><path d="M15.999 5.33496C11.382 5.33496 8.78514 5.42993 7.24944 5.61752C6.48047 5.71146 5.93815 5.83279 5.52663 5.99632C4.85514 6.26315 4.31222 6.79257 4.00967 7.44738C3.8426 7.80896 3.71697 8.2569 3.62033 8.84892C3.42871 10.0228 3.33398 11.8799 3.33398 15V28.665H4.77444L8.77444 24.665H15.999C20.6159 24.665 23.2128 24.57 24.7485 24.3824C25.5175 24.2885 26.0598 24.1671 26.4713 24.0036C27.1428 23.7368 27.6857 23.2073 27.9883 22.5525C28.1554 22.191 28.281 21.743 28.3776 21.151C28.5693 19.9771 28.664 18.12 28.664 15C28.664 11.8799 28.5693 10.0228 28.3776 8.84892C28.281 8.2569 28.1554 7.80896 27.9883 7.44738C27.6857 6.79257 27.1428 6.26315 26.4713 5.99632C26.0598 5.83279 25.5175 5.71146 24.7485 5.61752C23.2128 5.42993 20.6159 5.33496 15.999 5.33496ZM6.01778 7.23231C6.27599 7.12971 6.68953 7.02581 7.41071 6.93771C8.85533 6.76124 11.3759 6.66496 15.999 6.66496C20.622 6.66496 23.1426 6.76124 24.5873 6.93771C25.3084 7.02581 25.722 7.12971 25.9802 7.23231C26.3367 7.37397 26.6205 7.65799 26.781 8.00524C26.88 8.21964 26.9796 8.54006 27.065 9.06319C27.2375 10.1196 27.334 11.88 27.334 15C27.334 18.1199 27.2375 19.8803 27.065 20.9367C26.9796 21.4599 26.88 21.7803 26.781 21.9947C26.6205 22.3419 26.3367 22.626 25.9802 22.7676C25.722 22.8702 25.3084 22.9741 24.5873 23.0622C23.1426 23.2387 20.622 23.335 15.999 23.335H8.22353L4.66398 26.8945V15C4.66398 11.88 4.7605 10.1196 4.93295 9.06319C5.01835 8.54006 5.11795 8.21964 5.21701 8.00524C5.37746 7.65799 5.6613 7.37397 6.01778 7.23231Z" fill="#000000" class="bmwfcol"/><title>request-for-service-appointment_lt_48</title></svg>