<svg width="48" height="48" viewBox="0 0 32 32" xmlns="http://www.w3.org/2000/svg"><path d="M13 13.665H11V12.335H13V13.665Z" fill="#000000" class="bmwfcol"/><path d="M13 17.665H11V16.335H13V17.665Z" fill="#000000" class="bmwfcol"/><path d="M15 17.665H21V16.335H15V17.665Z" fill="#000000" class="bmwfcol"/><path d="M21 13.665H15V12.335H21V13.665Z" fill="#000000" class="bmwfcol"/><path d="M16.0009 5.33496C11.384 5.33496 8.78709 5.42993 7.2514 5.61752C6.48242 5.71146 5.9401 5.83279 5.52858 5.99632C5.0931 6.16937 4.82748 6.38047 4.60446 6.60348C4.38882 6.81913 4.18426 7.07374 4.01162 7.44738C3.84455 7.80896 3.71892 8.2569 3.62228 8.84892C3.43067 10.0228 3.33594 11.8799 3.33594 15V28.665H4.77639L8.77639 24.665H16.0009C20.6179 24.665 23.2148 24.57 24.7505 24.3824C25.5195 24.2885 26.0618 24.1671 26.4733 24.0036C26.9088 23.8305 27.1744 23.6195 27.3974 23.3964C27.6131 23.1808 27.8176 22.9262 27.9903 22.5525C28.1573 22.191 28.283 21.743 28.3796 21.151C28.5712 19.9771 28.6659 18.12 28.6659 15C28.6659 11.8799 28.5712 10.0228 28.3796 8.84892C28.283 8.2569 28.1573 7.80896 27.9903 7.44738C27.8176 7.07374 27.6131 6.81913 27.3974 6.60348C27.1744 6.38047 26.9088 6.16937 26.4733 5.99632C26.0618 5.83279 25.5195 5.71146 24.7505 5.61752C23.2148 5.42993 20.6179 5.33496 16.0009 5.33496ZM5.54491 7.54394C5.66752 7.42133 5.7855 7.32539 6.01974 7.23231C6.27794 7.12971 6.69149 7.02581 7.41267 6.93771C8.85728 6.76124 11.3779 6.66496 16.0009 6.66496C20.624 6.66496 23.1446 6.76124 24.5892 6.93771C25.3104 7.02581 25.7239 7.12971 25.9821 7.23231C26.2164 7.32539 26.3344 7.42133 26.457 7.54394C26.5869 7.67392 26.6894 7.8029 26.7829 8.00524C26.882 8.21964 26.9816 8.54006 27.067 9.06319C27.2394 10.1196 27.3359 11.88 27.3359 15C27.3359 18.1199 27.2394 19.8803 27.067 20.9367C26.9816 21.4599 26.882 21.7803 26.7829 21.9947C26.6894 22.197 26.5869 22.326 26.457 22.456C26.3344 22.5786 26.2164 22.6745 25.9821 22.7676C25.7239 22.8702 25.3104 22.9741 24.5892 23.0622C23.1446 23.2387 20.624 23.335 16.0009 23.335H8.22549L4.66594 26.8945V15C4.66594 11.88 4.76246 10.1196 4.93491 9.06319C5.0203 8.54006 5.1199 8.21964 5.21897 8.00524C5.31246 7.8029 5.41493 7.67392 5.54491 7.54394Z" fill="#000000" class="bmwfcol"/><title>request-for-offer_lt_48</title></svg>