<svg width="48" height="48" viewBox="0 0 32 32" xmlns="http://www.w3.org/2000/svg"><path d="M9.83398 15C9.83398 11.5951 12.5941 8.83496 15.999 8.83496C19.4038 8.83496 22.164 11.5951 22.164 15C22.164 18.4048 19.4038 21.165 15.999 21.165C12.5941 21.165 9.83398 18.4048 9.83398 15ZM15.334 10.2103C13.7083 10.4339 12.3404 11.4658 11.6487 12.8874L15.334 14.0848V10.2103ZM11.164 15C11.164 16.3685 11.7325 17.6042 12.6463 18.4838L14.9233 15.3498L11.238 14.1524C11.1894 14.4276 11.164 14.7108 11.164 15ZM13.7218 19.2662C14.4004 19.6292 15.1756 19.835 15.999 19.835C16.8224 19.835 17.5977 19.6291 18.2763 19.2661L15.9991 16.1318L13.7218 19.2662ZM20.834 15C20.834 14.7107 20.8086 14.4273 20.7599 14.152L17.0747 15.3494L19.3518 18.4836C20.2655 17.604 20.834 16.3684 20.834 15ZM20.3491 12.8871C19.6574 11.4657 18.2896 10.4339 16.664 10.2103V14.0844L20.3491 12.8871Z" fill="#000000" class="bmwfcol"/><path d="M7.24944 5.61752C8.78514 5.42993 11.382 5.33496 15.999 5.33496C20.6159 5.33496 23.2128 5.42993 24.7485 5.61752C25.5175 5.71146 26.0598 5.83279 26.4713 5.99632C26.9068 6.16937 27.1724 6.38047 27.3955 6.60348C27.6111 6.81913 27.8157 7.07374 27.9883 7.44738C28.1554 7.80896 28.281 8.2569 28.3776 8.84892C28.5693 10.0228 28.664 11.8799 28.664 15C28.664 18.12 28.5693 19.9771 28.3776 21.151C28.281 21.743 28.1554 22.191 27.9883 22.5525C27.8157 22.9262 27.6111 23.1808 27.3955 23.3964C27.1724 23.6195 26.9068 23.8305 26.4713 24.0036C26.0598 24.1671 25.5175 24.2885 24.7485 24.3824C23.2128 24.57 20.6159 24.665 15.999 24.665H8.77444L4.77444 28.665H3.33398V15C3.33398 11.8799 3.42871 10.0228 3.62033 8.84892C3.71697 8.2569 3.8426 7.80896 4.00967 7.44738C4.18231 7.07374 4.38686 6.81913 4.60251 6.60348C4.82552 6.38047 5.09114 6.16937 5.52663 5.99632C5.93815 5.83279 6.48047 5.71146 7.24944 5.61752ZM6.01778 7.23231C5.78354 7.32539 5.66557 7.42133 5.54296 7.54394C5.41298 7.67392 5.3105 7.8029 5.21701 8.00524C5.11795 8.21964 5.01835 8.54006 4.93295 9.06319C4.7605 10.1196 4.66398 11.88 4.66398 15V26.8945L8.22353 23.335H15.999C20.622 23.335 23.1426 23.2387 24.5873 23.0622C25.3084 22.9741 25.722 22.8702 25.9802 22.7676C26.2144 22.6745 26.3324 22.5786 26.455 22.456C26.585 22.326 26.6875 22.197 26.781 21.9947C26.88 21.7803 26.9796 21.4599 27.065 20.9367C27.2375 19.8803 27.334 18.1199 27.334 15C27.334 11.88 27.2375 10.1196 27.065 9.06319C26.9796 8.54006 26.88 8.21964 26.781 8.00524C26.6875 7.8029 26.585 7.67392 26.455 7.54394C26.3324 7.42133 26.2144 7.32539 25.9802 7.23231C25.722 7.12971 25.3084 7.02581 24.5873 6.93771C23.1426 6.76124 20.622 6.66496 15.999 6.66496C11.3759 6.66496 8.85533 6.76124 7.41071 6.93771C6.68953 7.02581 6.27599 7.12971 6.01778 7.23231Z" fill="#000000" class="bmwfcol"/><title>request-for-accessoires_lt_48</title></svg>