<svg width="48" height="48" viewBox="0 0 32 32" xmlns="http://www.w3.org/2000/svg"><path d="M11.1901 22H9.8125L9.85848 21.8281C10.2584 20.3331 10.6914 19.2947 11.7621 18.7764C12.2628 18.534 12.8499 18.4325 13.5183 18.3836C14.1831 18.335 14.9967 18.335 15.9768 18.335C16.9568 18.335 17.8187 18.335 18.4835 18.3836C19.1519 18.4325 19.739 18.534 20.2397 18.7764C21.3104 19.2947 21.7434 20.3331 22.1433 21.8281L22.1893 22H20.8116C20.4309 20.631 20.1202 20.1962 19.6602 19.9735C19.3863 19.8409 18.9988 19.7549 18.3864 19.7101C17.7757 19.6654 17.0101 19.665 16.0009 19.665C14.9917 19.665 14.2261 19.6654 13.6154 19.7101C13.003 19.7549 12.6155 19.8409 12.3416 19.9735C11.8816 20.1962 11.5709 20.631 11.1901 22Z" fill="#000000" class="bmwfcol"/><path d="M16.0009 8.33496C15.0457 8.33496 14.085 8.53793 13.3745 9.24849C12.666 9.9569 12.3359 11.0401 12.3359 12.5C12.3359 13.9599 12.666 15.043 13.3745 15.7514C14.085 16.462 15.0457 16.665 16.0009 16.665C16.9562 16.665 17.9169 16.462 18.6274 15.7514C19.3358 15.043 19.6659 13.9599 19.6659 12.5C19.6659 11.0401 19.3358 9.9569 18.6274 9.24849C17.9169 8.53793 16.9562 8.33496 16.0009 8.33496ZM13.6659 12.5C13.6659 11.2099 13.9608 10.543 14.3149 10.1889C14.6669 9.83699 15.2062 9.66496 16.0009 9.66496C16.7957 9.66496 17.335 9.83699 17.687 10.1889C18.041 10.543 18.3359 11.2099 18.3359 12.5C18.3359 13.7901 18.041 14.4569 17.687 14.811C17.335 15.1629 16.7957 15.335 16.0009 15.335C15.2062 15.335 14.6669 15.1629 14.3149 14.811C13.9608 14.4569 13.6659 13.7901 13.6659 12.5Z" fill="#000000" class="bmwfcol"/><path d="M7.2514 5.61752C8.78709 5.42993 11.384 5.33496 16.0009 5.33496C20.6179 5.33496 23.2148 5.42993 24.7505 5.61752C25.5195 5.71146 26.0618 5.83279 26.4733 5.99632C26.9088 6.16937 27.1744 6.38047 27.3974 6.60348C27.6131 6.81913 27.8176 7.07374 27.9903 7.44738C28.1573 7.80896 28.283 8.2569 28.3796 8.84892C28.5712 10.0228 28.6659 11.8799 28.6659 15C28.6659 18.12 28.5712 19.9771 28.3796 21.151C28.283 21.743 28.1573 22.191 27.9903 22.5525C27.8176 22.9262 27.6131 23.1808 27.3974 23.3964C27.1744 23.6195 26.9088 23.8305 26.4733 24.0036C26.0618 24.1671 25.5195 24.2885 24.7505 24.3824C23.2148 24.57 20.6179 24.665 16.0009 24.665H8.77639L4.77639 28.665H3.33594V15C3.33594 11.8799 3.43067 10.0228 3.62228 8.84892C3.71892 8.2569 3.84455 7.80896 4.01162 7.44738C4.18426 7.07374 4.38882 6.81913 4.60446 6.60348C4.82748 6.38047 5.0931 6.16937 5.52858 5.99632C5.9401 5.83279 6.48242 5.71146 7.2514 5.61752ZM6.01974 7.23231C5.7855 7.32539 5.66752 7.42133 5.54491 7.54394C5.41493 7.67392 5.31246 7.8029 5.21897 8.00524C5.1199 8.21964 5.0203 8.54006 4.93491 9.06319C4.76246 10.1196 4.66594 11.88 4.66594 15V26.8945L8.22549 23.335H16.0009C20.624 23.335 23.1446 23.2387 24.5892 23.0622C25.3104 22.9741 25.7239 22.8702 25.9821 22.7676C26.2164 22.6745 26.3344 22.5786 26.457 22.456C26.5869 22.326 26.6894 22.197 26.7829 21.9947C26.882 21.7803 26.9816 21.4599 27.067 20.9367C27.2394 19.8803 27.3359 18.1199 27.3359 15C27.3359 11.88 27.2394 10.1196 27.067 9.06319C26.9816 8.54006 26.882 8.21964 26.7829 8.00524C26.6894 7.8029 26.5869 7.67392 26.457 7.54394C26.3344 7.42133 26.2164 7.32539 25.9821 7.23231C25.7239 7.12971 25.3104 7.02581 24.5892 6.93771C23.1446 6.76124 20.624 6.66496 16.0009 6.66496C11.3779 6.66496 8.85728 6.76124 7.41267 6.93771C6.69149 7.02581 6.27794 7.12971 6.01974 7.23231Z" fill="#000000" class="bmwfcol"/><title>request-for-contact_lt_48</title></svg>