<svg width="48" height="48" viewBox="0 0 32 32" xmlns="http://www.w3.org/2000/svg"><path d="M26.6645 22.8368C26.9189 22.4397 27.1497 22.0304 27.3564 21.6111C27.6383 21.0417 27.8786 20.4481 28.0734 19.8342C28.2658 19.2284 28.4108 18.613 28.509 17.9933C28.7508 16.4884 28.7131 14.9851 28.4275 13.5455C28.3152 12.9749 28.1628 12.4092 27.9697 11.8524C27.7645 11.26 27.5165 10.6875 27.2295 10.1386C26.8627 9.43453 26.4272 8.76057 25.9245 8.12754C25.7869 7.95404 25.645 7.78463 25.4991 7.61939C24.5092 6.49508 23.3108 5.53647 21.9378 4.80996C21.8944 4.787 21.851 4.7643 21.8074 4.74186C21.04 4.34512 20.2268 4.02454 19.3778 3.79014C18.9916 3.68333 18.602 3.59547 18.2105 3.52636C17.4862 3.39725 16.7467 3.33075 16 3.33081C15.252 3.33067 14.5114 3.39731 13.786 3.52673C12.7256 3.71411 11.6797 4.03895 10.6753 4.50555C10.4686 4.60107 10.2641 4.70233 10.0622 4.80927C8.68832 5.53602 7.48926 6.49513 6.49886 7.62013C6.35475 7.78337 6.21457 7.9507 6.07851 8.12202C5.58234 8.74617 5.15144 9.41017 4.78743 10.1036C4.4676 10.7106 4.1956 11.3467 3.97647 12.0069C3.80805 12.5136 3.67314 13.0274 3.57122 13.5451C3.28559 14.9846 3.2478 16.4878 3.48952 17.9927C3.5768 18.5434 3.70094 19.0907 3.86256 19.6309C4.07177 20.3311 4.33993 21.0059 4.66127 21.6495C4.86334 22.0559 5.08801 22.4527 5.33496 22.8381C5.93366 23.773 6.64595 24.6126 7.44673 25.344C8.31721 26.1425 9.28174 26.8017 10.3075 27.3166C10.7095 27.5192 11.1238 27.7009 11.5489 27.8605C12.4349 28.1935 13.346 28.4217 14.2649 28.5479C14.8337 28.6269 15.4106 28.6675 15.992 28.6676C16.5784 28.6681 17.1604 28.6276 17.7341 28.5479C18.6746 28.4187 19.6069 28.1826 20.5125 27.8367C20.9081 27.6858 21.2942 27.5156 21.6696 27.3273C22.7033 26.811 23.675 26.1482 24.5515 25.3444C25.3528 24.6125 26.0655 23.7724 26.6645 22.8368ZM8.07811 24.1098C8.00207 24.0354 7.92715 23.96 7.85338 23.8836C7.50215 23.5198 7.17123 23.1283 6.86373 22.7095C6.01829 21.5563 5.3953 20.2505 5.03187 18.8647C4.85025 18.1678 4.73502 17.4549 4.68784 16.7363C4.67222 16.4927 4.66428 16.247 4.66428 15.9995C4.66428 15.8228 4.66833 15.647 4.67633 15.4723C4.70793 14.803 4.79851 14.1378 4.94678 13.485C4.97348 13.3682 5.00211 13.2515 5.03268 13.1348L12.3657 15.5175C12.345 15.6752 12.3343 15.8361 12.3343 15.9995C12.3343 16.9783 12.718 17.8675 13.3432 18.5249L8.81032 24.7639C8.55487 24.5547 8.31076 24.3364 8.07811 24.1098ZM9.91429 6.43619C10.6482 5.96974 11.4339 5.58826 12.2551 5.30013C12.3349 5.27227 12.4151 5.24523 12.4958 5.219C12.5364 5.2058 12.5771 5.19284 12.6178 5.18012C13.5 4.90514 14.4128 4.73859 15.3343 4.68392L15.3343 12.3947C14.2284 12.5974 13.296 13.2965 12.7766 14.2526L5.44368 11.8699C5.5636 11.5626 5.69572 11.2631 5.83932 10.972C5.94393 10.7606 6.05509 10.5525 6.17262 10.348C6.37131 10.0035 6.59001 9.66608 6.82897 9.33719C7.16693 8.87202 7.53365 8.44011 7.92492 8.04212C8.35485 7.60692 8.82581 7.20086 9.33692 6.82952C9.52663 6.69169 9.71918 6.56059 9.91429 6.43619ZM19.3798 5.17979C19.4209 5.19262 19.4619 5.20569 19.5029 5.219C19.5838 5.24531 19.6642 5.27243 19.7442 5.30037C20.5653 5.58854 21.3511 5.97005 22.0849 6.43652C22.2798 6.56083 22.4722 6.69181 22.6617 6.82952C22.8822 6.98967 23.0951 7.15628 23.3005 7.3289C23.8347 7.77916 24.3267 8.27788 24.7697 8.81828C24.9071 8.98636 25.0405 9.15934 25.1697 9.33719C25.4725 9.75405 25.7429 10.1846 25.9812 10.6259C26.195 11.0243 26.387 11.4393 26.555 11.8699L19.2219 14.2526C18.7026 13.2965 17.7702 12.5974 16.6643 12.3947L16.6643 4.68391C17.5854 4.73856 18.4979 4.905 19.3798 5.17979ZM26.9667 18.8648C26.6034 20.2503 25.9805 21.5559 25.1353 22.7089C25.0231 22.8617 24.9078 23.0109 24.7895 23.1565C24.583 23.4106 24.3674 23.6537 24.1435 23.8854C24.0703 23.9611 23.996 24.0359 23.9206 24.1097C23.688 24.3364 23.4438 24.5547 23.1883 24.7639L18.6554 18.5248C19.2806 17.8675 19.6643 16.9783 19.6643 15.9995C19.6643 15.8361 19.6536 15.6752 19.6329 15.5175L26.966 13.1348C26.996 13.2495 27.0242 13.3643 27.0505 13.4791C27.1957 14.1166 27.2858 14.7659 27.3197 15.4193C27.3294 15.6115 27.3343 15.8049 27.3343 15.9995C27.3343 16.2646 27.3252 16.5275 27.3073 16.788C27.258 17.4891 27.144 18.1846 26.9667 18.8648ZM21.475 25.9259C20.8566 26.2661 20.1973 26.5533 19.5012 26.7795C19.1574 26.8912 18.8121 26.9856 18.4663 27.0631C17.9153 27.1858 17.3556 27.2674 16.7923 27.3072C16.5303 27.3253 16.2659 27.3345 15.9993 27.3345C15.734 27.3345 15.4708 27.3254 15.2101 27.3075C14.6462 27.2678 14.086 27.1863 13.5344 27.0636C13.1879 26.9859 12.8419 26.8914 12.4974 26.7795C12.1488 26.6662 11.8094 26.5376 11.4797 26.3947C10.9272 26.1543 10.3943 25.8703 9.88638 25.5455L14.4188 19.3072C14.8973 19.5362 15.4333 19.6645 15.9993 19.6645C16.5653 19.6645 17.1013 19.5362 17.5798 19.3071L22.1123 25.5456C21.9027 25.6801 21.6901 25.8068 21.475 25.9259ZM13.6643 15.9995C13.6643 14.7099 14.7097 13.6645 15.9993 13.6645C17.2889 13.6645 18.3343 14.7099 18.3343 15.9995C18.3343 17.2891 17.2889 18.3345 15.9993 18.3345C14.7097 18.3345 13.6643 17.2891 13.6643 15.9995Z" fill="#000000" class="bmwfcol"/><title>rim_lt_48</title></svg>