<svg width="48" height="48" viewBox="0 0 32 32" xmlns="http://www.w3.org/2000/svg"><path d="M6.10478 6.10473C8.52128 3.68824 11.9489 2.33496 16 2.33496V3.66496C12.2511 3.66496 9.17874 4.91168 7.04524 7.04519C4.91173 9.17869 3.66501 12.2511 3.66501 16H2.33501C2.33501 11.9488 3.68828 8.52123 6.10478 6.10473Z" fill="#000000" class="bmwfcol"/><path d="M9.00478 9.00473C10.7213 7.28824 13.1489 6.33496 16 6.33496V7.66496C13.4511 7.66496 11.3787 8.51168 9.94524 9.94519C8.51173 11.3787 7.66501 13.4511 7.66501 16H6.33501C6.33501 13.1488 7.28829 10.7212 9.00478 9.00473Z" fill="#000000" class="bmwfcol"/><path d="M16 10.335C14.3489 10.335 12.9213 10.8882 11.9048 11.9047C10.8883 12.9212 10.335 14.3488 10.335 16H11.665C11.665 14.6511 12.1117 13.5787 12.8452 12.8452C13.5787 12.1117 14.6511 11.665 16 11.665V10.335Z" fill="#000000" class="bmwfcol"/><path d="M18.919 17.335C17.2402 17.3349 16.0356 17.3348 14.8164 17.7446C13.6117 18.1496 12.441 18.9348 10.7341 20.3557C7.63348 20.6268 5.99181 20.7723 4.83781 21.0287C3.61277 21.301 2.91526 21.7037 1.70098 22.4048L1.33521 22.616L1.33496 27.0136L1.82787 27.1457C2.75025 27.3928 3.27585 27.5242 3.64335 27.5919C3.80169 27.621 3.93214 27.6386 4.05008 27.6491C4.51003 28.829 5.65739 29.665 7.00001 29.665C8.33661 29.665 9.47969 28.8364 9.9437 27.665H21.0563C21.5203 28.8364 22.6634 29.665 24 29.665C25.3371 29.665 26.4805 28.8358 26.9442 27.6637C27.4579 27.6586 27.8829 27.6341 28.3253 27.5183C28.8992 27.368 29.4695 27.0742 30.3327 26.5759L30.6652 26.3839L30.665 23.7245L30.4702 23.5297C30.005 23.0645 29.8216 22.7633 29.7424 22.5655C29.6687 22.3812 29.665 22.2439 29.665 22L29.6649 20.3906L27.4376 20.1957L27.2897 20.11C25.8 19.2472 24.6135 18.56 23.4057 18.0913C22.0975 17.5838 20.6951 17.335 18.919 17.335ZM27.1605 26.3292C27.0718 24.6606 25.6907 23.335 24 23.335C22.3074 23.335 20.9251 24.6637 20.8392 26.335H10.1608C10.075 24.6637 8.69265 23.335 7.00001 23.335C5.3273 23.335 3.95766 24.6326 3.84281 26.2761C3.59755 26.2289 3.24754 26.1448 2.66502 25.9919L2.66517 23.3843C3.67881 22.8026 4.20773 22.5312 5.12637 22.3271C6.19705 22.0891 7.77029 21.9499 11.0581 21.6624L11.267 21.6442L11.4276 21.5094C13.2076 20.0158 14.2515 19.3377 15.2402 19.0053C16.2326 18.6717 17.2212 18.665 19 18.665C20.6325 18.665 21.7882 18.8904 22.9246 19.3313C24.0329 19.7613 25.1338 20.3987 26.6689 21.2875C26.7446 21.3313 26.8214 21.3758 26.8993 21.4209L27.0272 21.4949L28.335 21.6093L28.335 22.0155C28.3349 22.2706 28.3348 22.6276 28.5075 23.0594C28.6566 23.4319 28.9163 23.8209 29.335 24.269L29.3352 25.6136C28.6823 25.9801 28.317 26.1456 27.9883 26.2317C27.7456 26.2952 27.5095 26.3198 27.1605 26.3292ZM7.00001 24.665C8.01345 24.665 8.83501 25.4865 8.83501 26.5C8.83501 27.5134 8.01345 28.335 7.00001 28.335C5.98657 28.335 5.16501 27.5134 5.16501 26.5C5.16501 25.4865 5.98657 24.665 7.00001 24.665ZM24 24.665C25.0135 24.665 25.835 25.4865 25.835 26.5C25.835 27.5134 25.0135 28.335 24 28.335C22.9866 28.335 22.165 27.5134 22.165 26.5C22.165 25.4865 22.9866 24.665 24 24.665Z" fill="#000000" class="bmwfcol"/><path d="M28.0687 11.6957H30V10.3657H27.1665L27.0051 10.7983C26.4207 12.3652 24.9934 13.3657 22.9698 13.3657C21.8518 13.3657 20.9224 13.0592 20.2174 12.5332L23.1725 11.7414C23.9022 11.5464 24.4366 11.1428 24.6537 10.4789C24.8458 9.89152 24.7404 9.22579 24.5744 8.60664C24.4085 7.98755 24.1669 7.35773 23.7069 6.94481C23.1869 6.47794 22.5221 6.39536 21.7925 6.59307L18.8965 7.36906C19.1372 6.66852 19.5346 6.0932 20.0507 5.65997C20.7687 5.05718 21.757 4.6957 22.9698 4.6957C24.9934 4.6957 26.4207 5.69624 27.0051 7.26309L27.1665 7.6957H30V6.3657H28.0687C27.1766 4.48164 25.3106 3.3657 22.9698 3.3657C21.4875 3.3657 20.1843 3.81127 19.1955 4.64133C18.2054 5.47257 17.5713 6.65562 17.3724 8.05437L17.3218 8.41009L17.9823 8.99094L22.1397 7.87695C22.5678 7.76078 22.7253 7.85086 22.8184 7.93448C22.9719 8.07229 23.1345 8.37141 23.2898 8.95092C23.445 9.53036 23.4536 9.86982 23.3896 10.0654C23.3507 10.1845 23.2588 10.3417 22.8292 10.4564L18.5652 11.599L18.2832 12.4368L18.511 12.7205C19.531 13.9905 21.1067 14.6957 22.9698 14.6957C25.3106 14.6957 27.1766 13.5798 28.0687 11.6957Z" fill="#000000" class="bmwfcol"/><title>rmi-services_lt_48</title></svg>