<svg width="48" height="48" viewBox="0 0 32 32" xmlns="http://www.w3.org/2000/svg"><path d="M7.66502 6V9.375H24.335V6H25.665V9.375H26.5C27.0672 9.375 27.579 9.5076 27.9679 9.78255C28.3676 10.0652 28.625 10.4955 28.625 11V19C28.625 19.5045 28.3676 19.9348 27.9679 20.2174C27.579 20.4924 27.0672 20.625 26.5 20.625H25.665V28H24.335V20.625H7.66502V28H6.33502V20.625H5.5C4.93285 20.625 4.42099 20.4924 4.03209 20.2174C3.63237 19.9348 3.375 19.5045 3.375 19V11C3.375 10.4955 3.63237 10.0652 4.03209 9.78256C4.42099 9.5076 4.93284 9.375 5.5 9.375H6.33502V6H7.66502ZM4.71619 10.8323L13.2589 19.375H19.4911L10.7411 10.625H5.5C5.11487 10.625 4.87672 10.7163 4.7537 10.8032C4.73977 10.8131 4.72732 10.8228 4.71619 10.8323ZM21.2589 19.375H26.5C26.8851 19.375 27.1233 19.2837 27.2463 19.1968C27.2602 19.1869 27.2727 19.1772 27.2838 19.1677L18.7411 10.625H12.5089L21.2589 19.375ZM27.375 17.4911V11C27.375 10.9522 27.3585 10.8826 27.2463 10.8032C27.1233 10.7163 26.8851 10.625 26.5 10.625H20.5089L27.375 17.4911ZM4.625 12.5089V19C4.625 19.0478 4.64149 19.1174 4.7537 19.1968C4.87672 19.2837 5.11487 19.375 5.5 19.375H11.4911L4.625 12.5089Z" fill="#000000" class="bmwfcol"/><title>road_barrier_lt_48</title></svg>