<svg width="48" height="48" viewBox="0 0 32 32" xmlns="http://www.w3.org/2000/svg"><path d="M10.9992 2.9751C10.4054 2.9751 9.76209 3.09374 9.27437 3.55823C8.78192 4.02723 8.57416 4.72718 8.57416 5.6001C8.57416 6.47301 8.78192 7.17297 9.27437 7.64197C9.76209 8.10646 10.4054 8.2251 10.9992 8.2251C11.5929 8.2251 12.2362 8.10646 12.7239 7.64197C13.2164 7.17297 13.4242 6.47301 13.4242 5.6001C13.4242 4.72718 13.2164 4.02723 12.7239 3.55823C12.2362 3.09374 11.5929 2.9751 10.9992 2.9751ZM9.82416 5.6001C9.82416 4.90158 9.99139 4.60154 10.1364 4.4634C10.2862 4.32074 10.5429 4.2251 10.9992 4.2251C11.4554 4.2251 11.7121 4.32074 11.8619 4.4634C12.0069 4.60154 12.1742 4.90158 12.1742 5.6001C12.1742 6.29861 12.0069 6.59865 11.8619 6.7368C11.7121 6.87945 11.4554 6.9751 10.9992 6.9751C10.5429 6.9751 10.2862 6.87945 10.1364 6.7368C9.99139 6.59865 9.82416 6.29861 9.82416 5.6001Z" fill="#000000" class="bmwfcol"/><path d="M15.1648 18.732L20.0413 20.1716C21.4275 18.6688 23.8067 18.7292 25.1131 20.3526C25.8983 21.3284 26.7698 22.4904 27.4484 23.6082C27.7877 24.1671 28.0863 24.7273 28.3018 25.2567C28.5139 25.7776 28.6642 26.3137 28.6642 26.8115V27.995L16.3342 27.995V26.8115C16.3342 26.3137 16.4846 25.7776 16.6967 25.2567C16.9122 24.7273 17.2108 24.1671 17.5501 23.6082C18.0209 22.8326 18.5846 22.0357 19.1479 21.2946L5.10422 17.1489L4.32031 12.7347L4.7974 11.9396C5.51444 10.7445 6.6714 9.59821 8.25977 9.43905C8.5484 9.41012 8.84378 9.39551 9.14529 9.39551C10.237 9.39551 11.2484 9.58718 12.1482 9.9553L12.5614 10.1243V14.1811L15.1648 18.732ZM9.14529 10.7255C8.88676 10.7255 8.63566 10.738 8.39238 10.7624C7.4031 10.8616 6.55364 11.5975 5.93788 12.6238L5.71685 12.9922L6.26987 16.1063L13.3212 18.1878L11.2314 14.5346V11.0357C10.6065 10.8346 9.90833 10.7255 9.14529 10.7255ZM24.0769 21.1864C23.2525 20.1619 21.746 20.1619 20.9215 21.1864C20.1526 22.1419 19.322 23.2523 18.687 24.2984C18.3695 24.8214 18.1085 25.316 17.9285 25.7581C17.7784 26.1269 17.697 26.4297 17.6723 26.665H27.3261C27.3015 26.4297 27.2201 26.1269 27.0699 25.7581C26.89 25.316 26.629 24.8214 26.3115 24.2984C25.6765 23.2523 24.8458 22.1419 24.0769 21.1864Z" fill="#000000" class="bmwfcol"/><path d="M9.02051 19.3519L7.69051 19.0159L7.69051 22.3103L4.32928 27.9949L5.87439 27.9949L9.02051 22.6741V19.3519Z" fill="#000000" class="bmwfcol"/><path d="M14.4206 23.4134L13.6307 20.5169L12.1501 20.1428L13.0398 23.4051L11.7284 27.9949L13.1116 27.9949L14.4206 23.4134Z" fill="#000000" class="bmwfcol"/><title>road_worker_lt_48</title></svg>