<svg width="48" height="48" viewBox="0 0 32 32" xmlns="http://www.w3.org/2000/svg"><path d="M27.0009 4.66499L23.1776 4.66521L21.7764 7.00161L23.1775 9.3367H27.0009V10.6667H22.4245L20.6235 7.66518L18.582 7.66626C18.3227 8.67363 17.4892 9.45048 16.4512 9.62709L10.9258 15.6327L15.2278 19.3987C15.4793 19.3568 15.7376 19.335 16.0009 19.335C18.5773 19.335 20.6659 21.4236 20.6659 24V26.335H23.0009V27.665H9.00092V26.335H11.3359V24C11.3359 23.7366 11.3578 23.4784 11.3997 23.2269L7.40495 18.6635C5.70137 18.6128 4.33594 17.2158 4.33594 15.5C4.33594 13.9162 5.49923 12.6041 7.01798 12.3716L13.3749 6.54325C13.5915 5.28901 14.6848 4.33496 16.0009 4.33496C17.2436 4.33496 18.2877 5.18553 18.5826 6.33626L20.6252 6.33518L22.4243 3.33526L27.0008 3.33499L27.0009 4.66499ZM16.0009 5.66496C15.2636 5.66496 14.6659 6.26266 14.6659 6.99996C14.6659 7.73726 15.2636 8.33496 16.0009 8.33496C16.7382 8.33496 17.3359 7.73726 17.3359 6.99996C17.3359 6.26266 16.7382 5.66496 16.0009 5.66496ZM8.74778 12.59C9.48751 12.9074 10.0819 13.4986 10.4035 14.2361L14.8492 9.40393C14.3008 9.14073 13.8565 8.69543 13.5944 8.14638L8.74778 12.59ZM8.89238 18.3435L11.8984 21.7774C12.3295 20.9834 12.9843 20.3285 13.7783 19.8974L10.3444 16.8914C10.0354 17.5219 9.52281 18.0344 8.89238 18.3435ZM5.66594 15.5C5.66594 16.5134 6.48749 17.335 7.50094 17.335C8.51438 17.335 9.33594 16.5134 9.33594 15.5C9.33594 14.4865 8.51438 13.665 7.50094 13.665C6.48749 13.665 5.66594 14.4865 5.66594 15.5ZM12.6659 24V26.335H19.3359V24C19.3359 22.1581 17.8428 20.665 16.0009 20.665C14.1591 20.665 12.6659 22.1581 12.6659 24Z" fill="#000000" class="bmwfcol"/><title>robot_arm_lt_48</title></svg>