<svg width="48" height="48" viewBox="0 0 32 32" xmlns="http://www.w3.org/2000/svg"><path d="M9.82198 3.33496H12.665V3.99996C12.665 5.04884 13.0117 5.87123 13.5702 6.42973C14.1287 6.98824 14.9511 7.33496 16 7.33496C17.0488 7.33496 17.8712 6.98824 18.4297 6.42973C18.9882 5.87123 19.335 5.04884 19.335 3.99996V3.33496H22.1779L28.665 7.08025V8.85762L26.4233 13.6648L23.665 13.6649V22.9499L23.2157 23.104C20.9418 23.8838 19.3706 25.665 18.8514 28.1366L18.7405 28.665H13.2594L13.1485 28.1366C12.6294 25.665 11.0581 23.8838 8.78424 23.104L8.33496 22.9499V13.6649L5.57657 13.6648L3.33496 8.85762V7.08025L9.82198 3.33496ZM10.1784 4.66496L4.66496 7.84812V8.56276L6.4239 12.3348L9.66496 12.335V22.0141C11.9919 22.9607 13.6452 24.8438 14.323 27.335H17.677C18.3547 24.8438 20.008 22.9607 22.335 22.0141V12.335L25.576 12.3348L27.335 8.56277V7.84812L21.8216 4.66496H20.6269C20.5018 5.73698 20.0704 6.66995 19.3702 7.37019C18.5287 8.21169 17.3511 8.66496 16 8.66496C14.6488 8.66496 13.4712 8.21169 12.6297 7.37019C11.9295 6.66995 11.4981 5.73698 11.373 4.66496H10.1784Z" fill="#000000" class="bmwfcol"/><title>rompers_lt_48</title></svg>