<svg width="48" height="48" viewBox="0 0 32 32" xmlns="http://www.w3.org/2000/svg"><path d="M8.66398 6.07654V3H7.33398V5.43306C4.28245 7.93819 2.33398 11.7417 2.33398 16C2.33398 20.2268 4.25383 24.0058 7.26663 26.5113L7.33398 26.5673V29H8.66398V26.665H11.334V29H12.664V26.665H15.334V29H16.664V26.665H19.334V29H20.664V26.665H23.334V29H24.664V26.5673L24.7313 26.5113C27.7441 24.0058 29.664 20.2268 29.664 16C29.664 11.7417 27.7155 7.93819 24.664 5.43306V3H23.334V6.07654L23.5894 6.27622C26.4787 8.53497 28.334 12.0506 28.334 16C28.334 19.7296 26.6795 23.0722 24.0622 25.335H7.93578C5.31845 23.0722 3.66398 19.7296 3.66398 16C3.66398 12.0506 5.51929 8.53497 8.40856 6.27622L8.66398 6.07654Z" fill="#000000" class="bmwfcol"/><path d="M23 7.95264C25.2462 9.90788 26.6659 12.7881 26.6659 15.9999C26.6659 19.2117 25.2462 22.092 23 24.0472V22.1771C24.4537 20.5312 25.3359 18.3686 25.3359 15.9999C25.3359 13.6313 24.4537 11.4687 23 9.82275V7.95264Z" fill="#000000" class="bmwfcol"/><path d="M5.33594 15.9999C5.33594 12.789 6.75491 9.90949 9 7.95427V9.82487C7.54737 11.4705 6.66594 13.6323 6.66594 15.9999C6.66594 18.3676 7.54737 20.5293 9 22.175V24.0456C6.75491 22.0904 5.33594 19.2108 5.33594 15.9999Z" fill="#000000" class="bmwfcol"/><path d="M16.1404 12.8789C15.488 12.8789 14.9756 12.9585 14.5901 13.308C14.1895 13.6583 14.0409 14.1042 14.0409 14.6074C14.0409 15.0665 14.1591 15.4928 14.4651 15.7823C14.7091 16.0253 15.0028 16.1407 15.4019 16.2737L16.5223 16.6522C16.7142 16.7161 16.8613 16.7653 16.9783 16.8152C17.0935 16.8643 17.1625 16.9074 17.2065 16.9507C17.2883 17.038 17.3205 17.1405 17.3205 17.338C17.3205 17.5571 17.2405 17.7313 17.083 17.852C16.9043 17.9779 16.6879 18.0358 16.222 18.0358C15.683 18.0358 14.8803 17.8779 14.3276 17.7584L14.0854 17.706V18.8213L14.258 18.8573C14.751 18.9604 15.5429 19.1259 16.1923 19.1259C16.9474 19.1259 17.4806 18.9967 17.8973 18.631C18.2619 18.3004 18.4477 17.8567 18.4477 17.338C18.4477 16.8804 18.3193 16.477 18.0598 16.1997C17.8148 15.9372 17.4956 15.7981 17.0124 15.6346L15.9 15.2638C15.7358 15.2078 15.6041 15.162 15.4974 15.1164C15.3899 15.0704 15.3222 15.0305 15.2792 14.9924C15.2035 14.9246 15.168 14.8352 15.168 14.6074C15.168 14.401 15.2223 14.2459 15.3601 14.1329C15.51 14.0158 15.7152 13.969 16.1552 13.969C16.6525 13.969 17.4565 14.1614 17.9853 14.2898L18.2325 14.3498V13.2255L18.0783 13.1884C17.4972 13.0487 16.7913 12.8789 16.1404 12.8789Z" fill="#000000" class="bmwfcol"/><path d="M21.5525 12.8789C21.0109 12.8789 20.5972 12.9717 20.2711 13.1478C19.943 13.3251 19.7207 13.5776 19.548 13.8668C19.2212 14.4141 19.1265 15.2192 19.1265 16.0543C19.1265 16.8198 19.2301 17.5484 19.467 18.0143C19.6271 18.3343 19.8447 18.6184 20.1822 18.8194C20.5181 19.0195 20.9536 19.1259 21.5302 19.1259C22.162 19.1259 22.7295 19.0101 23.249 18.8988L23.4071 18.8649V17.7502L23.1646 17.8029C22.6473 17.9154 22.0907 18.0358 21.6044 18.0358C21.2652 18.0358 21.0245 17.9859 20.8485 17.8949C20.678 17.8067 20.5528 17.6718 20.4574 17.4685C20.3214 17.1771 20.2536 16.6661 20.2536 16.0469C20.2536 15.3946 20.3223 14.8289 20.4774 14.5188C20.5803 14.313 20.7059 14.1829 20.8715 14.0998C21.0427 14.0138 21.2745 13.969 21.6044 13.969C21.8427 13.969 22.0781 14.0098 22.3369 14.0615C22.6419 14.1196 22.8761 14.178 23.1562 14.2518L23.4071 14.3178V13.1943L23.261 13.1534C23.0688 13.0996 22.8407 13.0465 22.5331 12.9865C22.2425 12.9343 21.898 12.8789 21.5525 12.8789Z" fill="#000000" class="bmwfcol"/><path d="M8.89062 13.005H11.2202C11.953 13.005 12.4426 13.0773 12.8475 13.3872C13.2455 13.6882 13.431 14.1945 13.431 14.7187C13.431 15.2827 13.1894 15.6774 12.8941 16.0349C12.7315 16.2276 12.5459 16.4289 12.3981 16.5855L13.869 18.9997H12.5546L11.2413 16.8405H10.0029V18.9997H8.89062V13.005ZM10.0029 14.0951V15.7504H11.6612C11.7875 15.6175 11.9033 15.4938 12.0021 15.3764C12.1841 15.1664 12.3038 14.9655 12.3038 14.7187C12.3038 14.5893 12.2843 14.4907 12.2484 14.4138C12.2138 14.3396 12.1593 14.2755 12.0713 14.2205C11.9276 14.13 11.7051 14.0951 11.1608 14.0951H10.0029Z" fill="#000000" class="bmwfcol"/><title>run-flat-tyre_lt_48</title></svg>