<svg width="48" height="48" viewBox="0 0 32 32" xmlns="http://www.w3.org/2000/svg"><path d="M21.8614 4.33497L22.6648 4.33501V5.00001C22.6648 6.91226 22.5537 8.3386 22.1317 9.59282C21.7486 10.7314 21.1252 11.6834 20.1888 12.718C23.0167 17.5088 24.6988 19.523 27.4273 21.8124C28.4312 22.6548 29.0513 23.2923 29.3662 24.1122C29.6583 24.873 29.658 25.7337 29.6576 26.8742V27.6649H28.9572C26.9808 27.665 25.7926 27.665 24.0131 26.9976C22.2831 26.3488 19.9782 25.0646 15.6675 22.5759L5.6673 16.8022C5.0986 16.4739 4.5266 16.1292 4.10212 15.7136C3.56722 15.19 3.33496 14.5592 3.33496 13.8218L8.23486 5.33494C11.0277 5.33494 13.8598 5.22142 16.6454 5.47137C16.9552 5.49918 17.2325 5.53325 17.4833 5.57622C18.6966 4.36271 20.2441 4.33436 21.8614 4.33497ZM20.8711 9.16867C21.1776 8.25768 21.3032 7.18838 21.3294 5.66743C20.13 5.67906 19.4838 5.74407 18.9359 6.09C19.2091 6.26709 19.436 6.49567 19.6648 6.72448V11.2869C20.249 10.5632 20.6239 9.90351 20.8711 9.16867ZM9.00272 6.66496L4.67723 14.157C4.71164 14.3674 4.82071 14.5559 5.03257 14.7633C5.31965 15.0443 5.74757 15.3128 6.3323 15.6504L7.7932 16.4939C8.55939 15.1743 9.1804 14.1374 9.72577 13.329C10.3462 12.4094 10.8979 11.7402 11.4956 11.2754C12.7061 10.3339 13.9919 10.3344 15.8525 10.335H15.9998V11.665C13.9403 11.665 13.1279 11.6908 12.3121 12.3252C11.8809 12.6607 11.4226 13.1919 10.8283 14.0728C10.3092 14.8423 9.70843 15.8442 8.94502 17.1589L16.3325 21.424C20.6821 23.9353 22.8771 25.1511 24.4801 25.7523C25.8407 26.2626 26.7593 26.326 28.3255 26.3338C28.3177 25.4748 28.2821 24.9992 28.1246 24.589C27.9425 24.1148 27.5661 23.6651 26.5724 22.8312C23.0443 19.8708 20.62 16.1355 18.3348 12.1781V7.29418C17.8393 6.90066 17.1294 6.85015 16.5265 6.79605C15.1815 6.67536 12.9685 6.66546 9.00272 6.66496Z" fill="#000000" class="bmwfcol"/><path d="M16 27.665H4V26.335H16V27.665Z" fill="#000000" class="bmwfcol"/><path d="M2 23.665H12V22.335H2V23.665Z" fill="#000000" class="bmwfcol"/><title>running_lt_48</title></svg>