<svg width="48" height="48" viewBox="0 0 32 32" xmlns="http://www.w3.org/2000/svg"><path d="M11.8083 21.7L11.7976 21.6977V20.1863C12.9749 20.4408 14.7409 20.7908 15.9501 20.7908C16.9843 20.7908 17.557 20.6636 18.0502 20.3135C18.5116 19.9635 18.7344 19.4544 18.7344 18.8657C18.7344 18.3884 18.6548 18.0384 18.3684 17.7361C18.0661 17.4338 17.5411 17.2588 16.7297 16.9884L14.3273 16.1769C13.4681 15.8906 12.9272 15.6678 12.4817 15.2223C11.9408 14.7132 11.7021 13.9336 11.7021 13.0109C11.7021 12.0244 11.9885 11.1971 12.7363 10.5448C13.4363 9.90841 14.3909 9.7334 15.7751 9.7334C17.1115 9.7334 18.5753 10.0834 19.8321 10.3857V11.9131C18.7184 11.6426 16.9365 11.213 15.8069 11.213C14.8523 11.213 14.2796 11.3085 13.8341 11.6585C13.4045 12.0085 13.2613 12.4858 13.2613 13.0109C13.2613 13.5359 13.3409 13.8859 13.6432 14.1564C13.9295 14.4109 14.4227 14.5859 15.1228 14.8246L17.5093 15.6201C18.5434 15.9701 19.1321 16.2406 19.5776 16.7179C20.039 17.2111 20.2935 17.9589 20.2935 18.8657C20.2935 19.8681 19.9435 20.6954 19.2594 21.3159C18.4798 22 17.4616 22.2705 15.8865 22.2705C14.5386 22.2705 12.8747 21.9228 11.8083 21.7Z" fill="#000000" class="bmwfcol"/><path d="M16.0009 3.33496C9.00625 3.33496 3.33594 9.00527 3.33594 16C3.33594 22.9946 9.00625 28.665 16.0009 28.665C22.9956 28.665 28.6659 22.9946 28.6659 16C28.6659 9.00527 22.9956 3.33496 16.0009 3.33496ZM4.66594 16C4.66594 9.73981 9.74079 4.66496 16.0009 4.66496C22.2611 4.66496 27.3359 9.73981 27.3359 16C27.3359 22.2601 22.2611 27.335 16.0009 27.335C9.74079 27.335 4.66594 22.2601 4.66594 16Z" fill="#000000" class="bmwfcol"/><title>s-bahn_lt_48</title></svg>