<svg width="48" height="48" viewBox="0 0 32 32" xmlns="http://www.w3.org/2000/svg"><path d="M11.343 3.33496H12.6765L13.8492 4.00504C15.1819 4.76659 16.818 4.76659 18.1507 4.00504L19.3233 3.33496H20.6569L25.1649 5.58897V12.5581C25.1649 13.2674 25.4874 13.9383 26.0413 14.3814L27.6649 15.6803V28.665H18.9999C17.7595 28.665 16.6631 28.0488 15.9999 27.1058C15.3368 28.0488 14.2403 28.665 13 28.665H4.33496V15.6803L5.95862 14.3814C6.51252 13.9383 6.83496 13.2674 6.83496 12.5581V5.58897L11.343 3.33496ZM19.021 5.03958L18.8106 5.1598C17.069 6.15501 14.9309 6.15501 13.1893 5.1598L12.9789 5.03958L15.1235 12.7601L15.9999 14.5129L16.8764 12.7601L19.021 5.03958ZM16.665 25L16.6649 25.0113C16.671 26.2957 17.7141 27.335 18.9999 27.335H26.3349V23.665H18.9999V22.335H26.3349V19.665H18.9999V18.335H26.3349V16.3196L25.2104 15.42C24.341 14.7245 23.8349 13.6715 23.8349 12.5581V6.41095L20.4856 4.73628L18.1235 13.2399L16.665 16.1569V25ZM13.8764 13.2399L11.5143 4.73628L8.16496 6.41095V12.5581C8.16496 13.6715 7.65886 14.7245 6.78947 15.42L5.66496 16.3196V18.335H12.9999V19.665H5.66496V22.335H12.9999V23.665H5.66496V27.335H13C14.2858 27.335 15.3288 26.2957 15.3349 25.0113L15.3349 25V16.1569L13.8764 13.2399Z" fill="#000000" class="bmwfcol"/><title>safety_vest_lt_48</title></svg>