<svg width="48" height="48" viewBox="0 0 32 32" xmlns="http://www.w3.org/2000/svg"><path d="M10.6826 2.33508H9.335V6.9919C9.78793 7.2759 10.2315 7.58566 10.665 7.91926V3.86919C17.4436 8.01662 23.2774 16.436 26.1231 26.3351H9.335V27.6651H27.8649L27.6403 26.8278C24.7605 16.0892 18.4034 6.79272 10.8369 2.42418L10.6826 2.33508Z" fill="#000000" class="bmwfcol"/><path d="M7.68224 8.33503L7.83643 8.42391C12.2503 10.9682 15.9423 16.4657 17.6424 22.8282L17.866 23.6649H2.83496V21.9758L6.48997 8.33511L7.68224 8.33503ZM7.48444 9.76243L4.16496 22.1509V22.3349H16.1205C14.4405 16.7264 11.189 12.0472 7.48444 9.76243Z" fill="#000000" class="bmwfcol"/><title>sailing_lt_48</title></svg>