<svg width="48" height="48" viewBox="0 0 32 32" xmlns="http://www.w3.org/2000/svg"><path d="M4.35473 4.35478C5.02123 3.68828 5.94884 3.33501 6.99996 3.33501C8.05108 3.33501 8.97869 3.68828 9.64519 4.35478C10.3117 5.02128 10.665 5.94889 10.665 7.00001C10.665 7.77766 10.4423 8.50392 10.0419 9.10148L12.5156 11.5752C12.159 11.844 11.8439 12.159 11.5751 12.5156L9.10441 10.0449C8.52718 10.4357 7.81262 10.665 6.99996 10.665C5.94884 10.665 5.02123 10.3117 4.35473 9.64523C3.68824 8.97873 3.33496 8.05113 3.33496 7.00001C3.33496 5.94889 3.68824 5.02128 4.35473 4.35478ZM5.29519 5.29523C4.91169 5.67873 4.66496 6.25113 4.66496 7.00001C4.66496 7.74889 4.91169 8.32128 5.29519 8.70478C5.67869 9.08828 6.25108 9.33501 6.99996 9.33501C8.41186 9.33501 9.33496 8.31078 9.33496 7.00001C9.33496 6.25113 9.08824 5.67873 8.70474 5.29523C8.32123 4.91173 7.74884 4.66501 6.99996 4.66501C6.25108 4.66501 5.67869 4.91173 5.29519 5.29523Z" fill="#000000" class="bmwfcol"/><path d="M19.4843 11.5752C19.8409 11.844 20.1559 12.1591 20.4248 12.5157L23.6159 9.32449C24.0209 9.54996 24.4937 9.66501 25 9.66501C26.5881 9.66501 27.665 8.45066 27.665 7.00001C27.665 6.24889 27.4117 5.57128 26.9202 5.07978C26.4287 4.58828 25.7511 4.33501 25 4.33501C24.2488 4.33501 23.5712 4.58828 23.0797 5.07978C22.5882 5.57128 22.335 6.24889 22.335 7.00001C22.335 7.50623 22.45 7.97906 22.6755 8.38404L19.4843 11.5752ZM24.0202 6.02023C24.2287 5.81173 24.5511 5.66501 25 5.66501C25.4488 5.66501 25.7712 5.81173 25.9797 6.02023C26.1882 6.22873 26.335 6.55113 26.335 7.00001C26.335 7.75849 25.8119 8.33501 25 8.33501C24.5511 8.33501 24.2287 8.18828 24.0202 7.97978C23.8117 7.77128 23.665 7.44889 23.665 7.00001C23.665 6.55113 23.8117 6.22873 24.0202 6.02023Z" fill="#000000" class="bmwfcol"/><path d="M19.4393 20.3798C19.7933 20.1061 20.1073 19.7891 20.3769 19.4365L22.8731 21.9327C23.4697 21.5401 24.199 21.335 25 21.335C26.0511 21.335 26.9787 21.6883 27.6452 22.3548C28.3117 23.0213 28.665 23.9489 28.665 25C28.665 27.0029 27.1881 28.665 25 28.665C23.9488 28.665 23.0212 28.3117 22.3547 27.6452C21.6882 26.9787 21.335 26.0511 21.335 25C21.335 24.199 21.5401 23.4698 21.9326 22.8731L19.4393 20.3798ZM23.2952 23.2952C22.9117 23.6787 22.665 24.2511 22.665 25C22.665 25.7489 22.9117 26.3213 23.2952 26.7048C23.6787 27.0883 24.2511 27.335 25 27.335C26.4119 27.335 27.335 26.3108 27.335 25C27.335 24.2511 27.0882 23.6787 26.7047 23.2952C26.3212 22.9117 25.7488 22.665 25 22.665C24.2511 22.665 23.6787 22.9117 23.2952 23.2952Z" fill="#000000" class="bmwfcol"/><path d="M12.5156 20.4249C12.159 20.156 11.8439 19.841 11.5751 19.4844L8.38399 22.6755C7.97902 22.4501 7.50618 22.335 6.99996 22.335C6.24884 22.335 5.57123 22.5883 5.07973 23.0798C4.58824 23.5713 4.33496 24.2489 4.33496 25C4.33496 25.7511 4.58824 26.4287 5.07973 26.9202C5.57123 27.4117 6.24884 27.665 6.99996 27.665C8.58806 27.665 9.66496 26.4507 9.66496 25C9.66496 24.4938 9.54992 24.021 9.32444 23.616L12.5156 20.4249ZM5.66496 25C5.66496 24.5511 5.81169 24.2287 6.02019 24.0202C6.22869 23.8117 6.55108 23.665 6.99996 23.665C7.44884 23.665 7.77123 23.8117 7.97973 24.0202C8.18824 24.2287 8.33496 24.5511 8.33496 25C8.33496 25.7585 7.81186 26.335 6.99996 26.335C6.55108 26.335 6.22869 26.1883 6.02019 25.9798C5.81169 25.7713 5.66496 25.4489 5.66496 25Z" fill="#000000" class="bmwfcol"/><path d="M16.0001 11.835C14.799 11.835 13.7464 12.2383 12.9924 12.9923C12.2384 13.7462 11.8351 14.7989 11.8351 16C11.8351 17.2011 12.2384 18.2537 12.9924 19.0077C13.7464 19.7617 14.799 20.165 16.0001 20.165C18.4882 20.165 20.1651 18.2791 20.1651 16C20.1651 14.7989 19.7618 13.7462 19.0078 12.9923C18.2538 12.2383 17.2012 11.835 16.0001 11.835ZM13.1651 16C13.1651 15.1011 13.4618 14.4037 13.9328 13.9327C14.4038 13.4617 15.1012 13.165 16.0001 13.165C16.899 13.165 17.5964 13.4617 18.0674 13.9327C18.5384 14.4037 18.8351 15.1011 18.8351 16C18.8351 17.5869 17.712 18.835 16.0001 18.835C15.1012 18.835 14.4038 18.5383 13.9328 18.0673C13.4618 17.5962 13.1651 16.8989 13.1651 16Z" fill="#000000" class="bmwfcol"/><title>sales_channel_lt_48</title></svg>