<svg width="48" height="48" viewBox="0 0 32 32" xmlns="http://www.w3.org/2000/svg"><path d="M12.5 3.66502C13.1335 3.66502 13.538 3.802 13.796 4.00002H15.4019C15.2714 3.68307 15.0887 3.39829 14.8452 3.1548C14.2598 2.56943 13.4358 2.33502 12.5 2.33502H5.49996C4.56412 2.33502 3.7401 2.56943 3.15473 3.1548C2.56937 3.74016 2.33496 4.56418 2.33496 5.50002V22.5C2.33496 23.4359 2.56937 24.2599 3.15473 24.8452C3.7401 25.4306 4.56412 25.665 5.49996 25.665H12.5C13.4358 25.665 14.2598 25.4306 14.8452 24.8452C15.4306 24.2599 15.665 23.4359 15.665 22.5V21.335H3.66496V5.50002C3.66496 4.76919 3.84722 4.34322 4.09519 4.09525C4.34316 3.84728 4.76913 3.66502 5.49996 3.66502H12.5ZM3.66821 22.665H14.3317C14.3062 23.296 14.1334 23.6761 13.9047 23.9048C13.6568 24.1528 13.2308 24.335 12.5 24.335H5.49996C4.76913 24.335 4.34316 24.1528 4.09519 23.9048C3.8665 23.6761 3.6937 23.296 3.66821 22.665Z" fill="#000000" class="bmwfcol"/><path d="M23.6649 18.7239V14.75C23.6649 14.0739 23.4367 13.4588 22.9889 13.011C22.5412 12.5633 21.9261 12.335 21.2499 12.335C20.571 12.335 19.9608 12.565 19.5047 13.0013C19.0514 13.4349 18.793 14.0311 18.7351 14.6921C18.5643 16.6446 18.3399 19.2071 18.1582 21.2814L17.8272 25.0588L19.4191 31H20.796L19.1726 24.9412L19.4831 21.3975C19.6648 19.3232 19.8892 16.7606 20.0601 14.808C20.094 14.4205 20.2367 14.1417 20.4241 13.9624C20.6087 13.7858 20.8789 13.665 21.2499 13.665C21.6238 13.665 21.8837 13.7867 22.0485 13.9515C22.2132 14.1162 22.3349 14.3761 22.3349 14.75V23H23.6649V21.3839L26.146 17.0865L27.5297 18.4702C28.4534 19.3939 28.6786 19.6598 28.7258 20.1283C28.753 20.397 28.7189 20.7674 28.5893 21.376C28.4606 21.9801 28.2523 22.7575 27.9655 23.8279L26.335 29.9125V31H27.665V30.0876L29.2602 24.1347C29.5383 23.0969 29.7541 22.2915 29.8901 21.6531C30.0268 21.0114 30.0976 20.4757 30.0491 19.9948C29.9493 19.006 29.3486 18.4064 28.5704 17.6299L26.8345 15.8941L27.571 14.6184C27.7945 14.2314 27.8901 13.7863 27.772 13.3457C27.654 12.905 27.3486 12.5675 26.9616 12.344L15.7032 5.84398C15.3162 5.62052 14.8712 5.52489 14.4305 5.64296C13.9899 5.76103 13.6523 6.06636 13.4288 6.45342L10.8038 11H12.3396L14.5806 7.11842C14.6672 6.96854 14.7441 6.93585 14.7747 6.92764C14.8054 6.91944 14.8884 6.90927 15.0382 6.9958L26.2966 13.4958C26.4464 13.5823 26.4791 13.6593 26.4873 13.6899C26.4956 13.7206 26.5057 13.8035 26.4192 13.9534L23.6649 18.7239Z" fill="#000000" class="bmwfcol"/><path d="M13.5609 19.2285L14.7164 19.8957C15.3357 18.616 15.6649 17.1307 15.6649 15.5C15.6649 13.8694 15.3357 12.3841 14.7164 11.1044L13.5609 11.7716C14.0602 12.8385 14.3349 14.0914 14.3349 15.5C14.3349 16.9087 14.0602 18.1616 13.5609 19.2285Z" fill="#000000" class="bmwfcol"/><path d="M12.0662 18.3656C12.4585 17.5221 12.6649 16.5536 12.6649 15.5C12.6649 14.4465 12.4585 13.478 12.0662 12.6345L10.9085 13.3029C11.1831 13.9347 11.3349 14.6713 11.3349 15.5C11.3349 16.3288 11.1831 17.0654 10.9085 17.6971L12.0662 18.3656Z" fill="#000000" class="bmwfcol"/><path d="M9.41251 16.8334C9.57941 16.4292 9.66492 15.9785 9.66492 15.5C9.66492 15.0216 9.57941 14.5709 9.41252 14.1667L8.24305 14.8418C8.30208 15.036 8.33492 15.2554 8.33492 15.5C8.33492 15.7447 8.30208 15.9641 8.24304 16.1583L9.41251 16.8334Z" fill="#000000" class="bmwfcol"/><title>scan-card-with-phone_lt_48</title></svg>