<svg width="48" height="48" viewBox="0 0 32 32" xmlns="http://www.w3.org/2000/svg"><path d="M25.4248 4.30029V6.67529H27.2998V7.92529H24.1748V4.30029H25.4248Z" fill="#000000" class="bmwfcol"/><path d="M25 1.375C23.358 1.375 21.941 1.92507 20.9331 2.93306C19.9251 3.94105 19.375 5.35797 19.375 7C19.375 8.64203 19.9251 10.059 20.9331 11.0669C21.941 12.0749 23.358 12.625 25 12.625C26.642 12.625 28.059 12.0749 29.0669 11.0669C30.0749 10.059 30.625 8.64203 30.625 7C30.625 5.35797 30.0749 3.94105 29.0669 2.93306C28.059 1.92507 26.642 1.375 25 1.375ZM20.625 7C20.625 5.64203 21.0749 4.55895 21.8169 3.81694C22.559 3.07493 23.642 2.625 25 2.625C26.358 2.625 27.441 3.07493 28.1831 3.81694C28.9251 4.55895 29.375 5.64203 29.375 7C29.375 8.35797 28.9251 9.44105 28.1831 10.1831C27.441 10.9251 26.358 11.375 25 11.375C23.642 11.375 22.559 10.9251 21.8169 10.1831C21.0749 9.44105 20.625 8.35797 20.625 7Z" fill="#000000" class="bmwfcol"/><path d="M16 3.375C16.9442 3.375 17.8642 3.47865 18.7492 3.67519C18.5615 4.05242 18.4094 4.44753 18.2926 4.85612C17.552 4.70458 16.7853 4.625 16 4.625C9.71776 4.625 4.625 9.71776 4.625 16C4.625 20.08 6.77308 23.6583 10 25.6657V27.1109C6.05471 24.9759 3.375 20.8009 3.375 16C3.375 9.0274 9.0274 3.375 16 3.375Z" fill="#000000" class="bmwfcol"/><path d="M27.375 16C27.375 15.2147 27.2954 14.448 27.1439 13.7074C27.5525 13.5906 27.9476 13.4385 28.3248 13.2508C28.5213 14.1358 28.625 15.0558 28.625 16C28.625 19.4861 27.2112 22.6432 24.9272 24.9272L23.4794 26.375H27.625L26.375 27.625H21.375V22.625L22.625 21.375V25.4617L24.0433 24.0433C26.1025 21.9842 27.375 19.1413 27.375 16Z" fill="#000000" class="bmwfcol"/><path d="M18.076 9.75977C18.1922 9.69269 18.3107 9.63175 18.4312 9.57724C18.5809 9.99671 18.7698 10.3995 18.9982 10.7804C18.9119 10.8187 18.8261 10.8625 18.741 10.9116C18.4147 11.1 18.2095 11.295 17.9925 11.7272C17.7885 12.1337 17.5862 12.727 17.3126 13.6803C17.534 13.8059 17.7357 13.9623 17.9117 14.1437C18.5158 13.8566 19.0697 13.7219 19.728 13.7433C20.4491 13.7668 21.2781 13.9811 22.3968 14.2806L22.8238 14.0341C22.8218 13.9092 22.8179 13.798 22.8102 13.694C23.2441 13.8212 23.6934 13.9085 24.1528 13.9563C24.1558 14.0974 24.1558 14.2396 24.1558 14.3841V14.8008L22.5847 15.7079L22.3035 15.6325C20.99 15.2805 20.2685 15.0916 19.6848 15.0726C19.3112 15.0605 18.9856 15.1189 18.5726 15.3033C18.6325 15.5254 18.6645 15.7589 18.6645 15.9999L18.6643 16.0352C19.6403 16.3146 20.3434 16.5482 20.8653 16.8102C21.53 17.1439 21.9179 17.5312 22.2361 18.0823C22.4745 18.4952 22.6353 18.9377 22.706 19.3933L21.1421 20.9571C21.2159 20.8224 21.2731 20.6884 21.3155 20.5567C21.5062 19.9652 21.426 19.3392 21.0843 18.7473C20.8958 18.421 20.7008 18.2158 20.2686 17.9988C19.8622 17.7948 19.269 17.5925 18.3157 17.319C18.1897 17.5398 18.033 17.7409 17.8514 17.9164C18.139 18.5211 18.2739 19.0754 18.2525 19.7343C18.2291 20.4554 18.0148 21.2844 17.7153 22.4031L17.9617 22.8301C18.2288 22.8259 18.4331 22.8128 18.6376 22.773C18.9139 22.7191 19.2192 22.6092 19.6679 22.3501C19.7128 22.3242 19.7567 22.2981 19.7995 22.2718V23.78C19.4821 23.9256 19.1896 24.0204 18.8919 24.0784C18.462 24.1622 18.0476 24.1622 17.6117 24.1621L17.195 24.1621L16.288 22.591L16.3633 22.3098C16.7153 20.9963 16.9043 20.2748 16.9232 19.6911C16.9354 19.3162 16.8765 18.9896 16.6906 18.5745C16.4702 18.6335 16.2385 18.6649 15.9995 18.6649L15.9612 18.6646C15.6821 19.6394 15.4486 20.3419 15.1869 20.8634C14.8532 21.5281 14.4658 21.9159 13.9147 22.2341C13.0349 22.7421 12.0208 22.898 11.0324 22.5795C10.0493 22.2626 9.17185 21.503 8.49515 20.331C8.18315 19.7906 8.00756 19.3464 7.91863 18.89C7.83486 18.4601 7.83491 18.0457 7.83496 17.6097L7.83497 17.1931L9.40602 16.286L9.68726 16.3614C11.0008 16.7133 11.7223 16.9023 12.306 16.9213C12.6813 16.9335 13.0083 16.8744 13.4242 16.6879C13.3657 16.4684 13.3345 16.2378 13.3345 15.9999C12.3595 15.7208 11.6572 15.4472 11.1356 15.1854C10.4709 14.8517 10.083 14.4644 9.7648 13.9133C9.25683 13.0334 9.10087 12.0194 9.41947 11.0309C9.73634 10.0478 10.4959 9.17038 11.6679 8.49369C12.2083 8.18169 12.6525 8.00609 13.1089 7.91716C13.5389 7.8334 13.9532 7.83345 14.3892 7.8335L14.8058 7.8335L15.7129 9.40455L15.6416 9.67062C15.2879 10.9908 15.0975 11.7153 15.0778 12.3012C15.0651 12.6786 15.1242 13.0067 15.3118 13.4245C15.5312 13.3661 15.7901 13.3351 16.0279 13.3351C16.3078 12.3573 16.5416 11.6531 16.8039 11.1305C17.1376 10.4658 17.5249 10.0779 18.076 9.75977ZM10.6853 11.4389C10.4947 12.0304 10.5749 12.6564 10.9166 13.2483C11.105 13.5746 11.3001 13.7798 11.7322 13.9968C12.1388 14.2008 12.7321 14.4031 13.6857 14.6768C13.8119 14.4565 13.9687 14.2559 14.1503 14.0809C13.8614 13.474 13.7263 12.9181 13.7485 12.2565C13.7727 11.537 13.9866 10.7092 14.2856 9.59245L14.0391 9.16551C13.7721 9.16974 13.5678 9.18277 13.3633 9.22261C13.0869 9.27646 12.7817 9.38641 12.3329 9.6455C11.3729 10.1998 10.8777 10.8421 10.6853 11.4389ZM14.6778 18.3146C14.4571 18.1883 14.2561 18.0313 14.0807 17.8494C13.476 18.137 12.9217 18.272 12.2627 18.2506C11.5417 18.2271 10.7127 18.0128 9.59392 17.7133L9.16698 17.9598C9.17121 18.2268 9.18424 18.4311 9.22408 18.6356C9.27792 18.912 9.38787 19.2172 9.64697 19.666C10.2013 20.626 10.8436 21.1212 11.4404 21.3136C12.0319 21.5042 12.6579 21.424 13.2497 21.0823C13.5761 20.8939 13.7813 20.6988 13.9982 20.2667C14.2022 19.8604 14.4044 19.2674 14.6778 18.3146ZM14.6645 15.9999C14.6645 16.7372 15.2622 17.3349 15.9995 17.3349C16.7368 17.3349 17.3345 16.7372 17.3345 15.9999C17.3345 15.2626 16.7368 14.6649 15.9995 14.6649C15.2622 14.6649 14.6645 15.2626 14.6645 15.9999Z" fill="#000000" class="bmwfcol"/><title>scheduled-remote-engine-start_lt_48</title></svg>