<svg width="48" height="48" viewBox="0 0 32 32" xmlns="http://www.w3.org/2000/svg"><path d="M10.0387 16.8939C10.5351 16.4437 11.1987 16.3363 12.0702 16.3363C12.9332 16.3363 13.8714 16.5617 14.6517 16.7494L14.8049 16.7863V18.1525L14.5577 18.0925C13.8526 17.9212 12.7664 17.6608 12.0901 17.6608C11.4988 17.6608 11.203 17.7227 10.9825 17.8952C10.7767 18.0637 10.6997 18.2944 10.6997 18.584C10.6997 18.8949 10.7479 19.0397 10.8713 19.1503C10.937 19.2086 11.0356 19.2656 11.1822 19.3282C11.328 19.3905 11.5069 19.4527 11.7266 19.5276L13.217 20.0244C13.864 20.2434 14.2764 20.4253 14.592 20.7634C14.9245 21.1188 15.0932 21.6407 15.0932 22.2419C15.0932 22.9193 14.8544 23.4919 14.3815 23.9208L14.379 23.923C13.8389 24.397 13.1444 24.5691 12.1398 24.5691C11.277 24.5691 10.2217 24.3485 9.55979 24.2102L9.38525 24.1737V22.819L9.62751 22.8714C10.3667 23.0313 11.4491 23.2446 12.1796 23.2446C12.8094 23.2446 13.1165 23.1665 13.3733 22.9852C13.6038 22.8091 13.7191 22.5542 13.7191 22.2419C13.7191 21.9686 13.6742 21.8109 13.5472 21.6757C13.4792 21.6085 13.3776 21.5466 13.2194 21.4791C13.0595 21.4109 12.8596 21.3441 12.6034 21.2587L11.1025 20.7518C10.5673 20.5734 10.1879 20.4227 9.87337 20.1092C9.4816 19.7389 9.32561 19.1892 9.32561 18.584C9.32561 17.9245 9.51961 17.3475 10.0387 16.8939Z" fill="#000000" class="bmwfcol"/><path d="M19.4397 16.5053H16.6354V24.4001H19.3601C20.3959 24.4001 21.1343 24.2274 21.7451 23.6386C22.4698 22.946 22.7708 21.8342 22.7708 20.4229C22.7708 19.026 22.5015 17.9447 21.8487 17.2809C21.256 16.6772 20.5334 16.5053 19.4397 16.5053ZM17.9896 23.0757V17.8297H19.4397C20.1388 17.8297 20.5639 17.9119 20.8793 18.2681C21.2548 18.7056 21.3966 19.4632 21.3966 20.4229C21.3966 21.3976 21.2267 22.1218 20.9054 22.5125C20.7411 22.7122 20.5601 22.8491 20.3262 22.9385C20.088 23.0296 19.7845 23.0757 19.3701 23.0757H17.9896Z" fill="#000000" class="bmwfcol"/><path d="M21.5 3.33501C21.8603 3.33501 22.1637 3.41292 22.4596 3.60312C22.6961 3.75515 22.9168 3.97613 23.1356 4.1952L24.8048 5.86433C25.0238 6.08317 25.2448 6.30391 25.3968 6.5404C25.587 6.83627 25.665 7.13969 25.665 7.50001V26C25.665 26.765 25.4575 27.458 24.9577 27.9577C24.4579 28.4575 23.765 28.665 23 28.665H8.99996C8.23495 28.665 7.542 28.4575 7.04224 27.9577C6.54247 27.458 6.33496 26.765 6.33496 26V6.00001C6.33496 5.23499 6.54247 4.54205 7.04224 4.04228C7.542 3.54251 8.23495 3.33501 8.99996 3.33501H21.5ZM22.2297 5.17023C21.9599 4.90043 21.8414 4.78685 21.7404 4.72189C21.6862 4.68709 21.6396 4.66501 21.5 4.66501H8.99996C8.46497 4.66501 8.15792 4.8075 7.98269 4.98273C7.80745 5.15797 7.66496 5.46502 7.66496 6.00001V26C7.66496 26.535 7.80745 26.842 7.98269 27.0173C8.15792 27.1925 8.46497 27.335 8.99996 27.335H23C23.535 27.335 23.842 27.1925 24.0172 27.0173C24.1925 26.842 24.335 26.535 24.335 26V7.50001C24.335 7.36033 24.3129 7.31375 24.2781 7.25961C24.2131 7.15855 24.0995 7.04004 23.8297 6.77023L22.2297 5.17023Z" fill="#000000" class="bmwfcol"/><title>sd_card_front_lt_48</title></svg>