<svg width="48" height="48" viewBox="0 0 32 32" xmlns="http://www.w3.org/2000/svg"><path d="M12.0703 16.3363C11.1988 16.3363 10.5351 16.4437 10.0388 16.8939C9.51969 17.3475 9.32568 17.9245 9.32568 18.584C9.32568 19.1892 9.48167 19.7389 9.87345 20.1092C10.188 20.4227 10.5674 20.5734 11.1025 20.7518L12.6035 21.2587C12.8596 21.3441 13.0596 21.4109 13.2195 21.4791C13.3777 21.5466 13.4793 21.6085 13.5472 21.6757C13.6743 21.8109 13.7192 21.9686 13.7192 22.2419C13.7192 22.5542 13.6039 22.8091 13.3734 22.9852C13.1166 23.1665 12.8095 23.2446 12.1797 23.2446C11.4492 23.2446 10.3668 23.0313 9.62759 22.8714L9.38532 22.819V24.1737L9.55976 24.2102C10.2216 24.3485 11.277 24.5691 12.1399 24.5691C13.1445 24.5691 13.8389 24.397 14.3791 23.923L14.3815 23.9208C14.8545 23.4919 15.0933 22.9193 15.0933 22.2419C15.0933 21.6407 14.9246 21.1188 14.592 20.7634C14.2764 20.4253 13.8641 20.2434 13.217 20.0244L11.7266 19.5276C11.5069 19.4527 11.3281 19.3905 11.1823 19.3282C11.0357 19.2656 10.937 19.2086 10.8714 19.1503C10.7479 19.0397 10.6998 18.8949 10.6998 18.584C10.6998 18.2944 10.7768 18.0637 10.9826 17.8952C11.2031 17.7227 11.4989 17.6608 12.0902 17.6608C12.7664 17.6608 13.8526 17.9212 14.5578 18.0925L14.805 18.1525V16.7863L14.6518 16.7494C13.8715 16.5617 12.9333 16.3363 12.0703 16.3363Z" fill="#000000" class="bmwfcol"/><path d="M16.6355 16.5053H19.4397C20.5334 16.5053 21.2561 16.6772 21.8488 17.2809C22.5016 17.9447 22.7708 19.026 22.7708 20.4229C22.7708 21.8342 22.4699 22.946 21.7452 23.6386C21.1344 24.2274 20.396 24.4001 19.3602 24.4001H16.6355V16.5053ZM17.9897 17.8297V23.0757H19.3702C19.7846 23.0757 20.0881 23.0296 20.3263 22.9385C20.5601 22.8491 20.7412 22.7122 20.9055 22.5125C21.2267 22.1218 21.3967 21.3976 21.3967 20.4229C21.3967 19.4632 21.2549 18.7056 20.8794 18.2681C20.5639 17.9119 20.1388 17.8297 19.4397 17.8297H17.9897Z" fill="#000000" class="bmwfcol"/><path d="M21.3351 11V6H22.6651V11H21.3351Z" fill="#000000" class="bmwfcol"/><path d="M17.8351 6V11H19.1651V6H17.8351Z" fill="#000000" class="bmwfcol"/><path d="M14.3351 11V6H15.6651V11H14.3351Z" fill="#000000" class="bmwfcol"/><path d="M10.8351 6V11H12.1651V6H10.8351Z" fill="#000000" class="bmwfcol"/><path d="M9.54036 3.60312C9.83622 3.41292 10.1396 3.335 10.5 3.335H23C23.765 3.335 24.4579 3.54251 24.9577 4.04227C25.4575 4.54204 25.665 5.23499 25.665 6V26C25.665 26.765 25.4575 27.458 24.9577 27.9577C24.4579 28.4575 23.765 28.665 23 28.665H8.99996C8.23495 28.665 7.542 28.4575 7.04223 27.9577C6.54247 27.458 6.33496 26.765 6.33496 26V7.5C6.33496 7.13968 6.41288 6.83626 6.60308 6.5404C6.75511 6.3039 6.97608 6.08317 7.19516 5.86433L8.86429 4.1952C9.08313 3.97612 9.30386 3.75515 9.54036 3.60312ZM10.2596 4.72188C10.1585 4.78685 10.04 4.90042 9.77019 5.17023L8.17019 6.77022C7.90038 7.04003 7.78681 7.15855 7.72184 7.2596C7.68704 7.31374 7.66496 7.36032 7.66496 7.5V26C7.66496 26.535 7.80745 26.842 7.98269 27.0173C8.15792 27.1925 8.46497 27.335 8.99996 27.335H23C23.535 27.335 23.842 27.1925 24.0172 27.0173C24.1925 26.842 24.335 26.535 24.335 26V6C24.335 5.46501 24.1925 5.15796 24.0172 4.98273C23.842 4.80749 23.535 4.665 23 4.665H10.5C10.3603 4.665 10.3137 4.68708 10.2596 4.72188Z" fill="#000000" class="bmwfcol"/><title>sd_card_back_lt_48</title></svg>