<svg width="48" height="48" viewBox="0 0 32 32" xmlns="http://www.w3.org/2000/svg"><path d="M10.2843 9.11243C10.7781 9.00381 11.7732 8.79962 12.4644 8.79962C13.4281 8.79962 14.0494 8.96124 14.5225 9.42309C14.9087 9.79815 15.0698 10.3227 15.0698 10.8385C15.0698 11.3327 14.8768 11.7496 14.5913 12.1983L14.588 12.2035C14.4724 12.3736 14.3475 12.5527 14.248 12.694C14.3787 12.7898 14.5119 12.91 14.644 13.0641C14.9787 13.4547 15.1494 13.9509 15.1494 14.5859C15.1494 15.2108 14.9488 15.841 14.5378 16.2742L14.5371 16.275C14.0164 16.8178 13.286 17.0323 12.2854 17.0323C11.4803 17.0323 10.6789 16.8899 10.2326 16.8106L10.0676 16.7812V15.4517L10.3017 15.4922C10.822 15.5822 11.6099 15.7179 12.2755 15.7179C12.7999 15.7179 13.1827 15.6286 13.4079 15.4597C13.663 15.2683 13.7852 14.978 13.7852 14.5958C13.7852 14.3424 13.7377 14.1527 13.6537 14.0054C13.5702 13.8591 13.4421 13.7393 13.2547 13.639L13.2519 13.6375C13.038 13.5187 12.7783 13.5136 12.3351 13.5136H10.8231V12.209H13.0192L13.3167 11.8041C13.5792 11.4443 13.7156 11.1499 13.7156 10.8882C13.7156 10.6612 13.6642 10.495 13.5296 10.3674C13.3703 10.2154 13.0814 10.1141 12.4544 10.1141C11.7761 10.1141 10.8058 10.3362 10.3726 10.4369L10.1273 10.494V9.14698L10.2843 9.11243Z" fill="#000000" class="bmwfcol"/><path d="M21.4192 10.1335V8.81002L21.192 8.84124C19.879 9.02165 18.6271 9.38616 17.7864 10.1323L17.7856 10.133C16.7499 11.0619 16.576 12.5485 16.576 13.9696C16.576 14.8623 16.7375 15.6306 17.1538 16.1784C17.623 16.7927 18.3012 17.0323 19.2511 17.0323C20.2388 17.0323 20.9008 16.7384 21.3459 16.1716C21.7628 15.6552 21.8864 15.017 21.8864 14.407C21.8864 13.7376 21.7083 13.1159 21.2861 12.6605C20.8323 12.1726 20.1567 11.9705 19.1219 11.9705C18.8001 11.9705 18.4364 11.9811 18.1629 11.9907C18.2764 11.6066 18.5051 11.2423 18.9025 10.9499L18.9039 10.9488C19.4183 10.5631 20.2892 10.3199 21.2518 10.1611L21.4192 10.1335ZM17.9402 14.0491C17.9402 13.7076 17.9461 13.4816 17.9616 13.2881C18.2401 13.2779 18.6592 13.2651 19.0324 13.2651C19.7077 13.2651 20.0539 13.3326 20.2656 13.567L20.2699 13.5715C20.4638 13.7731 20.5222 14.0452 20.5222 14.407C20.5222 14.8048 20.4553 15.1163 20.2509 15.3619C20.0347 15.6179 19.7449 15.7278 19.2511 15.7278C18.7259 15.7278 18.3802 15.578 18.2048 15.3198C18.0094 15.0219 17.9402 14.6827 17.9402 14.0491Z" fill="#000000" class="bmwfcol"/><path d="M16 3.33496C13.1488 3.33496 10.7212 4.28824 9.00473 6.00473C7.28824 7.72123 6.33496 10.1488 6.33496 13C6.33496 15.8511 7.28824 18.2787 9.00473 19.9952C9.19163 20.1821 9.38696 20.3599 9.59035 20.5285L7.40979 27.6625H10.5073L12.8832 29.1656L14.8592 22.6124C15.2311 22.6473 15.6116 22.665 16 22.665C16.3883 22.665 16.7688 22.6473 17.1408 22.6124L19.1168 29.1656L21.4927 27.6625H24.5902L22.4096 20.5284C22.613 20.3599 22.8083 20.1821 22.9952 19.9952C24.7117 18.2787 25.665 15.8511 25.665 13C25.665 10.1488 24.7117 7.72123 22.9952 6.00473C21.2787 4.28824 18.8511 3.33496 16 3.33496ZM7.66496 13C7.66496 10.4511 8.51169 8.37869 9.94519 6.94519C11.3787 5.51169 13.4511 4.66496 16 4.66496C18.5488 4.66496 20.6212 5.51169 22.0547 6.94519C23.4882 8.37869 24.335 10.4511 24.335 13C24.335 15.5488 23.4882 17.6212 22.0547 19.0547C20.6212 20.4882 18.5488 21.335 16 21.335C13.4511 21.335 11.3787 20.4882 9.94519 19.0547C8.51169 17.6212 7.66496 15.5488 7.66496 13ZM19.8848 27.1059L18.4681 22.4074C19.4863 22.1852 20.4242 21.8221 21.2639 21.3301L22.7929 26.3325H21.1073L19.8848 27.1059ZM9.20706 26.3325L10.7361 21.3301C11.5758 21.8222 12.5137 22.1852 13.5319 22.4075L12.1152 27.1059L10.8927 26.3325H9.20706Z" fill="#000000" class="bmwfcol"/><title>seal_36_lt_48</title></svg>