<svg width="48" height="48" viewBox="0 0 32 32" xmlns="http://www.w3.org/2000/svg"><path d="M19.4023 8.79962C18.4714 8.79962 17.7431 9.106 17.2884 9.78217C17.0311 10.16 16.893 10.6232 16.8175 11.1454C16.7419 11.6677 16.7272 12.2641 16.7272 12.916C16.7272 13.6574 16.7469 14.295 16.8341 14.8352C16.9216 15.3768 17.079 15.8346 17.3645 16.2081C17.8256 16.8151 18.5364 17.0323 19.3923 17.0323C20.3104 17.0323 21.0411 16.7376 21.487 16.0588C22.0127 15.2851 22.0873 14.2292 22.0873 12.8862C22.0873 12.2326 22.065 11.62 21.9739 11.081C21.8829 10.5427 21.7208 10.0624 21.4301 9.68362C20.9532 9.05193 20.2276 8.79962 19.4023 8.79962ZM18.4008 10.5736C18.5905 10.2575 18.9168 10.1141 19.3923 10.1141C19.8707 10.1141 20.206 10.2693 20.3747 10.5452L20.3768 10.5485C20.5033 10.7467 20.5924 11.0366 20.648 11.434C20.7032 11.829 20.7231 12.3127 20.7231 12.8862C20.7231 13.466 20.7081 13.9402 20.6588 14.3297C20.6095 14.7191 20.5274 15.0104 20.4018 15.2317C20.2013 15.5758 19.8561 15.7179 19.4023 15.7179C18.917 15.7179 18.6075 15.6126 18.4256 15.3397L18.424 15.3374C18.2878 15.1392 18.2006 14.8404 18.1508 14.4266C18.1015 14.016 18.0914 13.5174 18.0914 12.9359C18.0914 12.3494 18.1015 11.8627 18.1472 11.4653C18.1932 11.0657 18.2733 10.7778 18.399 10.5768L18.4008 10.5736Z" fill="#000000" class="bmwfcol"/><path d="M14.7243 8.81002V10.1335L14.5568 10.1611C13.5943 10.3199 12.7233 10.5631 12.209 10.9488L12.2075 10.9499C11.8102 11.2423 11.5815 11.6066 11.468 11.9907C11.7414 11.9811 12.1051 11.9705 12.4269 11.9705C13.4618 11.9705 14.1373 12.1726 14.5912 12.6605C15.0133 13.1159 15.1915 13.7376 15.1915 14.407C15.1915 15.017 15.0679 15.6552 14.6509 16.1716C14.2059 16.7384 13.5438 17.0323 12.5562 17.0323C11.6063 17.0323 10.928 16.7927 10.4589 16.1784C10.0425 15.6306 9.8811 14.8623 9.8811 13.9696C9.8811 12.5485 10.055 11.0619 11.0907 10.133L11.0914 10.1323C11.9322 9.38616 13.1841 9.02165 14.4971 8.84124L14.7243 8.81002ZM11.2667 13.2881C11.2512 13.4816 11.2453 13.7076 11.2453 14.0491C11.2453 14.6827 11.3145 15.0219 11.5099 15.3198C11.6852 15.578 12.031 15.7278 12.5562 15.7278C13.0499 15.7278 13.3398 15.6179 13.5559 15.362C13.7604 15.1163 13.8273 14.8048 13.8273 14.407C13.8273 14.0452 13.7688 13.7731 13.575 13.5715L13.5707 13.567C13.359 13.3326 13.0127 13.2651 12.3375 13.2651C11.9642 13.2651 11.5452 13.2779 11.2667 13.2881Z" fill="#000000" class="bmwfcol"/><path d="M16 3.33496C13.1488 3.33496 10.7212 4.28824 9.00473 6.00473C7.28824 7.72123 6.33496 10.1488 6.33496 13C6.33496 15.8511 7.28824 18.2787 9.00473 19.9952C9.19163 20.1821 9.38696 20.3599 9.59035 20.5285L7.40979 27.6625H10.5073L12.8832 29.1656L14.8592 22.6124C15.2311 22.6473 15.6116 22.665 16 22.665C16.3883 22.665 16.7688 22.6473 17.1408 22.6124L19.1168 29.1656L21.4927 27.6625H24.5902L22.4096 20.5284C22.613 20.3599 22.8083 20.1821 22.9952 19.9952C24.7117 18.2787 25.665 15.8511 25.665 13C25.665 10.1488 24.7117 7.72123 22.9952 6.00473C21.2787 4.28824 18.8511 3.33496 16 3.33496ZM7.66496 13C7.66496 10.4511 8.51169 8.37869 9.94519 6.94519C11.3787 5.51169 13.4511 4.66496 16 4.66496C18.5488 4.66496 20.6212 5.51169 22.0547 6.94519C23.4882 8.37869 24.335 10.4511 24.335 13C24.335 15.5488 23.4882 17.6212 22.0547 19.0547C20.6212 20.4882 18.5488 21.335 16 21.335C13.4511 21.335 11.3787 20.4882 9.94519 19.0547C8.51169 17.6212 7.66496 15.5488 7.66496 13ZM19.8848 27.1059L18.4681 22.4074C19.4863 22.1852 20.4242 21.8221 21.2639 21.3301L22.7929 26.3325H21.1073L19.8848 27.1059ZM9.20706 26.3325L10.7361 21.3301C11.5758 21.8222 12.5137 22.1852 13.5319 22.4075L12.1152 27.1059L10.8927 26.3325H9.20706Z" fill="#000000" class="bmwfcol"/><title>seal_60_lt_48</title></svg>