<svg width="48" height="48" viewBox="0 0 32 32" xmlns="http://www.w3.org/2000/svg"><path d="M10.3321 9.13389C10.7994 9.01459 11.7555 8.79965 12.4591 8.79965C13.3565 8.79965 13.998 8.9727 14.47 9.45547C14.8556 9.8416 15.0148 10.3957 15.0148 10.9181C15.0148 11.8566 14.5974 12.4995 13.9435 13.2642C13.2343 14.1053 12.4507 14.9526 11.8727 15.5489H15.2932V16.8634H9.93311V15.6604L9.9866 15.6028C10.9035 14.6162 12.4677 12.9231 12.9896 12.2831C13.4114 11.7608 13.6407 11.4347 13.6407 10.9777C13.6407 10.6997 13.5885 10.5153 13.4272 10.3598C13.2363 10.1937 12.9431 10.1141 12.3994 10.1141C11.8239 10.1141 10.8566 10.3543 10.4323 10.4654L10.1816 10.5311V9.17232L10.3321 9.13389Z" fill="#000000" class="bmwfcol"/><path d="M21.4618 8.96863H19.8016L16.2271 14.1057V15.2829H20.1732V16.8634H21.5175V12.3284H20.1732V13.9685H17.9828L21.4618 8.96863Z" fill="#000000" class="bmwfcol"/><path d="M16 3.335C13.1488 3.335 10.7212 4.28827 9.00473 6.00477C7.28824 7.72127 6.33496 10.1489 6.33496 13C6.33496 15.8511 7.28824 18.2787 9.00473 19.9952C9.19163 20.1821 9.38696 20.36 9.59035 20.5285L7.40979 27.6625H10.5073L12.8832 29.1657L14.8592 22.6124C15.2311 22.6473 15.6116 22.665 16 22.665C16.3883 22.665 16.7688 22.6473 17.1408 22.6124L19.1168 29.1657L21.4927 27.6625H24.5902L22.4096 20.5285C22.613 20.3599 22.8083 20.1821 22.9952 19.9952C24.7117 18.2787 25.665 15.8511 25.665 13C25.665 10.1489 24.7117 7.72127 22.9952 6.00477C21.2787 4.28827 18.8511 3.335 16 3.335ZM7.66496 13C7.66496 10.4511 8.51169 8.37873 9.94519 6.94523C11.3787 5.51172 13.4511 4.665 16 4.665C18.5488 4.665 20.6212 5.51172 22.0547 6.94523C23.4882 8.37873 24.335 10.4511 24.335 13C24.335 15.5489 23.4882 17.6213 22.0547 19.0548C20.6212 20.4883 18.5488 21.335 16 21.335C13.4511 21.335 11.3787 20.4883 9.94519 19.0548C8.51169 17.6213 7.66496 15.5489 7.66496 13ZM19.8848 27.1059L18.4681 22.4075C19.4863 22.1852 20.4242 21.8222 21.2639 21.3301L22.7929 26.3325H21.1073L19.8848 27.1059ZM13.5319 22.4075L12.1152 27.1059L10.8927 26.3325H9.20706L10.7361 21.3302C11.5758 21.8222 12.5137 22.1853 13.5319 22.4075Z" fill="#000000" class="bmwfcol"/><title>seal_24_lt_48</title></svg>