<svg width="48" height="48" viewBox="0 0 32 32" xmlns="http://www.w3.org/2000/svg"><path d="M19.3186 8.79962C18.4943 8.79962 17.8487 8.98529 17.3652 9.36992L17.3627 9.37196C16.8547 9.78959 16.6635 10.4027 16.6635 11.0373C16.6635 11.5868 16.7569 12.0222 17.0297 12.3975C17.144 12.5546 17.2769 12.6847 17.4248 12.7903C17.2799 12.9143 17.1363 13.0565 17.0017 13.2111C16.627 13.6305 16.4647 14.1469 16.4647 14.6754C16.4647 15.4741 16.7088 16.0761 17.2156 16.4816L17.2173 16.4829C17.7262 16.8811 18.416 17.0323 19.2988 17.0323C20.2097 17.0323 20.9024 16.8479 21.4403 16.3649L21.4412 16.364C21.929 15.9206 22.1329 15.325 22.1329 14.6754C22.1329 14.1247 21.9845 13.5922 21.6112 13.1963C21.4633 13.0405 21.2997 12.9137 21.1211 12.8016C21.2499 12.6639 21.3781 12.5174 21.4835 12.3839L21.486 12.3806C21.7888 11.9806 21.944 11.561 21.944 11.0373C21.944 10.4622 21.7731 9.9198 21.3701 9.51581C20.8804 9.00497 20.1717 8.79962 19.3186 8.79962ZM18.2712 10.3694C18.4651 10.1911 18.8112 10.0843 19.3087 10.0843C19.7818 10.0843 20.1292 10.1891 20.3446 10.3878C20.5178 10.5541 20.5798 10.7594 20.5798 11.0671C20.5798 11.3908 20.495 11.6181 20.3301 11.8437L20.3274 11.8475C20.2112 12.0145 20.0462 12.1968 19.9379 12.3102C19.5933 12.2384 19.2674 12.1693 18.9898 12.0974C18.6767 12.0163 18.4517 11.938 18.3323 11.8624L18.3298 11.8608C18.2116 11.7884 18.1417 11.7029 18.0973 11.5886C18.0498 11.4665 18.0276 11.302 18.0276 11.0671C18.0276 10.7324 18.083 10.5351 18.2679 10.3724L18.2712 10.3694ZM18.1216 13.8378C18.2653 13.6622 18.4611 13.4901 18.6289 13.3488C19.0109 13.4215 19.3393 13.4898 19.6133 13.5617C19.9115 13.6399 20.1322 13.7191 20.283 13.8053L20.2865 13.8072C20.4798 13.9127 20.5946 14.0271 20.6641 14.154C20.7346 14.2825 20.7687 14.4423 20.7687 14.6555C20.7687 15.051 20.6507 15.2964 20.399 15.4913L20.3978 15.4922C20.1745 15.6677 19.8149 15.7477 19.3087 15.7477C18.7498 15.7477 18.3631 15.6667 18.1216 15.4734C17.8957 15.2927 17.8288 15.0535 17.8288 14.6455C17.8288 14.3537 17.9225 14.0802 18.1216 13.8378Z" fill="#000000" class="bmwfcol"/><path d="M13.0386 8.9686H14.6988L11.2198 13.9684H13.4103V12.3283H14.7546V16.8634H13.4103V15.2829H9.46411V14.1057L13.0386 8.9686Z" fill="#000000" class="bmwfcol"/><path d="M16 3.33496C13.1488 3.33496 10.7212 4.28824 9.00473 6.00473C7.28824 7.72123 6.33496 10.1488 6.33496 13C6.33496 15.8511 7.28824 18.2787 9.00473 19.9952C9.19163 20.1821 9.38696 20.3599 9.59035 20.5285L7.40979 27.6625H10.5073L12.8832 29.1656L14.8592 22.6124C15.2311 22.6473 15.6116 22.665 16 22.665C16.3883 22.665 16.7688 22.6473 17.1408 22.6124L19.1168 29.1656L21.4927 27.6625H24.5902L22.4096 20.5284C22.613 20.3599 22.8083 20.1821 22.9952 19.9952C24.7117 18.2787 25.665 15.8511 25.665 13C25.665 10.1488 24.7117 7.72123 22.9952 6.00473C21.2787 4.28824 18.8511 3.33496 16 3.33496ZM7.66496 13C7.66496 10.4511 8.51169 8.37869 9.94519 6.94519C11.3787 5.51169 13.4511 4.66496 16 4.66496C18.5488 4.66496 20.6212 5.51169 22.0547 6.94519C23.4882 8.37869 24.335 10.4511 24.335 13C24.335 15.5488 23.4882 17.6212 22.0547 19.0547C20.6212 20.4882 18.5488 21.335 16 21.335C13.4511 21.335 11.3787 20.4882 9.94519 19.0547C8.51169 17.6212 7.66496 15.5488 7.66496 13ZM19.8848 27.1059L18.4681 22.4074C19.4863 22.1852 20.4242 21.8221 21.2639 21.3301L22.7929 26.3325H21.1073L19.8848 27.1059ZM9.20706 26.3325L10.7361 21.3301C11.5758 21.8222 12.5137 22.1852 13.5319 22.4075L12.1152 27.1059L10.8927 26.3325H9.20706Z" fill="#000000" class="bmwfcol"/><title>seal_48_lt_48</title></svg>