<svg width="48" height="48" viewBox="0 0 32 32" xmlns="http://www.w3.org/2000/svg"><path d="M14.0083 8.69701V16.8634H12.654V10.5041L10.8052 11.0806V9.70791L14.0083 8.69701Z" fill="#000000" class="bmwfcol"/><path d="M17.9114 8.79967C17.2078 8.79967 16.2517 9.01461 15.7844 9.13391L15.6339 9.17234V10.5311L15.8846 10.4655C16.3089 10.3543 17.2763 10.1142 17.8517 10.1142C18.3954 10.1142 18.6887 10.1937 18.8796 10.3598C19.0408 10.5153 19.093 10.6997 19.093 10.9777C19.093 11.4347 18.8638 11.7607 18.442 12.283C17.9202 12.9229 16.3558 14.6162 15.4389 15.6028L15.3854 15.6604V16.8634H20.7455V15.5489H17.325C17.903 14.9527 18.6866 14.1053 19.3958 13.2642C20.0497 12.4996 20.4672 11.8566 20.4672 10.9181C20.4672 10.3957 20.3079 9.84162 19.9224 9.45549C19.4503 8.97272 18.8088 8.79967 17.9114 8.79967Z" fill="#000000" class="bmwfcol"/><path d="M16 3.33502C13.1488 3.33502 10.7212 4.2883 9.00473 6.0048C7.28824 7.72129 6.33496 10.1489 6.33496 13C6.33496 15.8511 7.28824 18.2788 9.00473 19.9952C9.19163 20.1821 9.38696 20.36 9.59035 20.5286L7.40979 27.6625H10.5073L12.8832 29.1657L14.8592 22.6124C15.2311 22.6473 15.6116 22.665 16 22.665C16.3883 22.665 16.7688 22.6473 17.1408 22.6124L19.1168 29.1657L21.4927 27.6625H24.5902L22.4096 20.5285C22.613 20.36 22.8083 20.1821 22.9952 19.9952C24.7117 18.2788 25.665 15.8511 25.665 13C25.665 10.1489 24.7117 7.72129 22.9952 6.0048C21.2787 4.2883 18.8511 3.33502 16 3.33502ZM7.66496 13C7.66496 10.4511 8.51169 8.37875 9.94519 6.94525C11.3787 5.51175 13.4511 4.66502 16 4.66502C18.5488 4.66502 20.6212 5.51175 22.0547 6.94525C23.4882 8.37875 24.335 10.4511 24.335 13C24.335 15.5489 23.4882 17.6213 22.0547 19.0548C20.6212 20.4883 18.5488 21.335 16 21.335C13.4511 21.335 11.3787 20.4883 9.94519 19.0548C8.51169 17.6213 7.66496 15.5489 7.66496 13ZM19.8848 27.1059L18.4681 22.4075C19.4863 22.1853 20.4242 21.8222 21.2639 21.3302L22.7929 26.3325H21.1073L19.8848 27.1059ZM9.20706 26.3325L10.7361 21.3302C11.5758 21.8222 12.5137 22.1853 13.5319 22.4075L12.1152 27.1059L10.8927 26.3325H9.20706Z" fill="#000000" class="bmwfcol"/><title>seal_12_lt_48</title></svg>