<svg width="48" height="48" viewBox="0 0 32 32" xmlns="http://www.w3.org/2000/svg"><path d="M18.9046 19.9647L21.4697 22.5298L20.5293 23.4702L17.9673 20.9082C17.2985 21.3841 16.4591 21.665 15.499 21.665C14.2979 21.665 13.2453 21.2617 12.4913 20.5077C11.7373 19.7537 11.334 18.7011 11.334 17.5C11.334 16.2988 11.7373 15.2462 12.4913 14.4922C13.2453 13.7382 14.2979 13.335 15.499 13.335C16.7001 13.335 17.7527 13.7382 18.5067 14.4922C19.2607 15.2462 19.664 16.2988 19.664 17.5C19.664 18.4178 19.392 19.2719 18.9046 19.9647ZM12.664 17.5C12.664 18.3988 12.9607 19.0962 13.4317 19.5672C13.9027 20.0382 14.6001 20.335 15.499 20.335C17.2109 20.335 18.334 19.0869 18.334 17.5C18.334 16.6011 18.0373 15.9037 17.5663 15.4327C17.0953 14.9617 16.3979 14.665 15.499 14.665C14.6001 14.665 13.9027 14.9617 13.4317 15.4327C12.9607 15.9037 12.664 16.6011 12.664 17.5Z" fill="#000000" class="bmwfcol"/><path d="M15.9754 4.33496C15.0658 4.33496 14.2987 4.33495 13.6647 4.3838C13.0253 4.43306 12.4548 4.53546 11.9621 4.77864C10.9148 5.29554 10.4604 6.32249 10.057 7.82782L9.92112 8.33496H6.99898C5.93055 8.33496 5.02675 8.53536 4.37131 8.98761C3.68109 9.46386 3.33398 10.1742 3.33398 11V25C3.33398 25.8257 3.68109 26.5361 4.37131 27.0123C5.02675 27.4646 5.93055 27.665 6.99898 27.665H24.999C26.0674 27.665 26.9712 27.4646 27.6267 27.0123C28.3169 26.5361 28.664 25.8257 28.664 25V11C28.664 10.1742 28.3169 9.46386 27.6267 8.98761C26.9712 8.53536 26.0674 8.33496 24.999 8.33496H22.0783L21.9424 7.82782C21.5391 6.32249 21.0846 5.29554 20.0373 4.77864C19.5446 4.53546 18.9741 4.43306 18.3348 4.3838C17.7008 4.33495 16.8849 4.33496 15.9754 4.33496ZM20.7014 8.33496H11.298L11.3417 8.17205C11.7422 6.67741 12.0785 6.20437 12.5508 5.97128C12.8178 5.83946 13.1893 5.75436 13.7668 5.70987C14.344 5.6654 15.0606 5.66496 15.9997 5.66496C16.9388 5.66496 17.6555 5.6654 18.2326 5.70987C18.8102 5.75436 19.1816 5.83946 19.4487 5.97128C19.9209 6.20437 20.2573 6.67741 20.6578 8.17205L20.7014 8.33496ZM4.66398 11C4.66398 10.5857 4.81688 10.2961 5.12665 10.0823C5.47122 9.84456 6.06742 9.66496 6.99898 9.66496H24.999C25.9306 9.66496 26.5267 9.84456 26.8713 10.0823C27.1811 10.2961 27.334 10.5857 27.334 11V25C27.334 25.4142 27.1811 25.7039 26.8713 25.9176C26.5267 26.1554 25.9306 26.335 24.999 26.335H6.99898C6.06742 26.335 5.47122 26.1554 5.12665 25.9176C4.81688 25.7039 4.66398 25.4142 4.66398 25V11Z" fill="#000000" class="bmwfcol"/><title>search-job-portal_lt_48</title></svg>