<svg width="48" height="48" viewBox="0 0 32 32" xmlns="http://www.w3.org/2000/svg"><path d="M8.49898 4.33496C7.29786 4.33496 6.24526 4.73824 5.49126 5.49223C4.73726 6.24623 4.33398 7.29884 4.33398 8.49996C4.33398 9.70108 4.73726 10.7537 5.49126 11.5077C6.24526 12.2617 7.29786 12.665 8.49898 12.665C9.45913 12.665 10.2985 12.3841 10.9673 11.9082L13.5293 14.4702L14.4697 13.5298L11.9046 10.9647C12.392 10.2719 12.664 9.41779 12.664 8.49996C12.664 7.29884 12.2607 6.24623 11.5067 5.49223C10.7527 4.73824 9.7001 4.33496 8.49898 4.33496ZM5.66398 8.49996C5.66398 7.60108 5.96071 6.90369 6.43171 6.43269C6.90271 5.96169 7.6001 5.66496 8.49898 5.66496C9.39786 5.66496 10.0953 5.96169 10.5663 6.43269C11.0373 6.90369 11.334 7.60108 11.334 8.49996C11.334 10.0869 10.2109 11.335 8.49898 11.335C7.6001 11.335 6.90271 11.0382 6.43171 10.5672C5.96071 10.0962 5.66398 9.39884 5.66398 8.49996Z" fill="#000000" class="bmwfcol"/><path d="M28.664 17C28.664 15.784 27.6955 14.8621 26.539 14.2838C25.3428 13.6857 23.7367 13.335 21.999 13.335C20.2613 13.335 18.6552 13.6857 17.4589 14.2838C16.3025 14.8621 15.334 15.784 15.334 17V18.7629C15.0873 18.5836 14.8187 18.4237 14.539 18.2838C13.3428 17.6857 11.7367 17.335 9.99898 17.335C8.26128 17.335 6.6552 17.6857 5.45895 18.2838C4.30247 18.8621 3.33398 19.784 3.33398 21V25C3.33398 26.216 4.30247 27.1379 5.45895 27.7161C6.6552 28.3142 8.26128 28.665 9.99898 28.665C11.7367 28.665 13.3428 28.3142 14.539 27.7161C15.0994 27.4359 15.6157 27.075 15.999 26.6391C16.3823 27.075 16.8985 27.4359 17.4589 27.7161C18.6552 28.3142 20.2613 28.665 21.999 28.665C23.7367 28.665 25.3428 28.3142 26.539 27.7161C27.6955 27.1379 28.664 26.216 28.664 25V17ZM18.0537 15.4734C19.0291 14.9858 20.423 14.665 21.999 14.665C23.575 14.665 24.9689 14.9858 25.9442 15.4734C26.9593 15.981 27.334 16.5592 27.334 17C27.334 17.4408 26.9593 18.019 25.9442 18.5265C24.9689 19.0141 23.575 19.335 21.999 19.335C20.423 19.335 19.0291 19.0141 18.0537 18.5265C17.0387 18.019 16.664 17.4408 16.664 17C16.664 16.5591 17.0386 15.981 18.0537 15.4734ZM27.334 19.237V21C27.334 21.4408 26.9593 22.019 25.9442 22.5265C24.9689 23.0142 23.575 23.335 21.999 23.335C20.423 23.335 19.0291 23.0142 18.0537 22.5265C17.0386 22.019 16.664 21.4408 16.664 21V19.237C16.9106 19.4163 17.1793 19.5762 17.4589 19.7161C18.6552 20.3142 20.2613 20.665 21.999 20.665C23.7367 20.665 25.3428 20.3142 26.539 19.7161C26.8187 19.5762 27.0873 19.4163 27.334 19.237ZM27.334 23.237V25C27.334 25.4408 26.9593 26.019 25.9442 26.5265C24.9689 27.0142 23.575 27.335 21.999 27.335C20.423 27.335 19.0291 27.0142 18.0537 26.5265C17.0386 26.019 16.664 25.4408 16.664 25V23.237C16.9106 23.4164 17.1793 23.5763 17.4589 23.7161C18.6552 24.3142 20.2613 24.665 21.999 24.665C23.7367 24.665 25.3428 24.3142 26.539 23.7161C26.8187 23.5763 27.0873 23.4164 27.334 23.237ZM15.334 21C15.334 21.4408 14.9593 22.019 13.9442 22.5265C12.9689 23.0141 11.575 23.335 9.99898 23.335C8.42298 23.335 7.02906 23.0141 6.05374 22.5265C5.03868 22.019 4.66401 21.4408 4.66398 21C4.66398 20.5591 5.03865 19.981 6.05374 19.4734C7.02906 18.9858 8.42298 18.665 9.99898 18.665C11.575 18.665 12.9689 18.9858 13.9442 19.4734C14.9593 19.981 15.334 20.5591 15.334 21ZM15.334 23.237V25C15.334 25.4408 14.9593 26.019 13.9442 26.5265C12.9689 27.0142 11.575 27.335 9.99898 27.335C8.42298 27.335 7.02906 27.0142 6.05374 26.5265C5.03865 26.019 4.66398 25.4408 4.66398 25V23.237C4.91062 23.4163 5.17929 23.5762 5.45895 23.7161C6.6552 24.3142 8.26128 24.665 9.99898 24.665C11.7367 24.665 13.3428 24.3142 14.539 23.7161C14.8187 23.5762 15.0873 23.4163 15.334 23.237Z" fill="#000000" class="bmwfcol"/><title>search-offer_lt_48</title></svg>