<svg width="48" height="48" viewBox="0 0 32 32" xmlns="http://www.w3.org/2000/svg"><path d="M8.5 11.0007H7.6789C7.80541 11.9045 7.62858 12.7048 7.39398 13.4159C7.311 13.6674 7.21969 13.9112 7.13384 14.1393L7.12062 14.1744C7.03828 14.3931 6.96184 14.596 6.89415 14.7968C6.75135 15.2202 6.66496 15.5852 6.66496 15.9353C6.66496 17.2624 7.27392 18.6145 7.9783 19.5005H6.37058C5.76922 18.4827 5.33496 17.2163 5.33496 15.9353C5.33496 15.3722 5.47357 14.8471 5.6339 14.3717C5.70928 14.1482 5.79338 13.9249 5.87364 13.7118L5.88912 13.6707C5.97554 13.4411 6.05768 13.2213 6.13094 12.9992C6.34593 12.3475 6.47364 11.7108 6.32991 11.0007H5.5V10.3236L6.99993 7.32373L8.5 10.3239V11.0007Z" fill="#000000" class="bmwfcol"/><path d="M11.6789 11.0007H12.5V10.3239L10.9999 7.32373L9.5 10.3236V11.0007H10.3299C10.4736 11.7108 10.3459 12.3475 10.1309 12.9992C10.0577 13.2213 9.97554 13.4411 9.88912 13.6707L9.87364 13.7118C9.79338 13.9249 9.70928 14.1482 9.6339 14.3717C9.47357 14.8471 9.33496 15.3722 9.33496 15.9353C9.33496 17.2163 9.76922 18.4827 10.3706 19.5005H11.9783C11.2739 18.6145 10.665 17.2624 10.665 15.9353C10.665 15.5852 10.7514 15.2202 10.8942 14.7968C10.9618 14.596 11.0382 14.3931 11.1206 14.1745L11.1338 14.1393C11.2197 13.9112 11.311 13.6674 11.394 13.4159C11.6286 12.7048 11.8054 11.9045 11.6789 11.0007Z" fill="#000000" class="bmwfcol"/><path d="M16.5 11.0007H15.6789C15.8054 11.9045 15.6286 12.7048 15.394 13.4159C15.311 13.6674 15.2197 13.9112 15.1338 14.1393L15.1206 14.1744C15.0383 14.3931 14.9618 14.596 14.8942 14.7968C14.7514 15.2202 14.665 15.5852 14.665 15.9353C14.665 17.2624 15.2739 18.6145 15.9783 19.5005H14.3706C13.7692 18.4827 13.335 17.2163 13.335 15.9353C13.335 15.3722 13.4736 14.8471 13.6339 14.3717C13.7093 14.1482 13.7934 13.9249 13.8736 13.7118L13.8891 13.6707C13.9755 13.4411 14.0577 13.2213 14.1309 12.9992C14.3459 12.3475 14.4736 11.7108 14.3299 11.0007H13.5V10.3236L14.9999 7.32373L16.5 10.3239V11.0007Z" fill="#000000" class="bmwfcol"/><path d="M26.9281 2.33496C25.5529 2.33496 24.4445 2.54115 23.655 2.96617C22.8327 3.40889 22.334 4.11113 22.334 4.99996L22.334 5.03141C22.334 5.69643 22.3339 6.31461 22.4494 6.95144C22.544 7.47282 22.7124 7.99228 22.9991 8.57412C22.675 8.8885 22.3652 9.27005 22.0445 9.7242C21.5278 10.4559 20.9539 11.4191 20.2342 12.668C19.3954 14.1231 18.3985 15.6167 17.9544 17.2545C17.7825 17.8886 17.735 18.492 17.8403 19.1154C17.9445 19.7318 18.1923 20.3311 18.5586 20.965L19.7443 23.0224L19.6465 23.2181L19.1455 23.0846C18.554 22.927 17.8037 22.727 17.1703 22.5575C12.6116 21.3418 11.1538 21.3351 8.99899 21.3351C8.55161 21.3351 8.11899 21.4761 7.79701 21.7981C7.47503 22.1201 7.33398 22.5527 7.33398 23.0001V23.0423C7.33397 24.2082 7.33395 25.2502 7.46651 26.125C7.60314 27.0266 7.89087 27.8324 8.52875 28.4703C9.11996 29.0615 9.69267 29.3807 10.561 29.5304C11.3425 29.6651 12.3903 29.6651 13.9165 29.6651H23.5092L27.6627 14.1723C28.1507 12.3522 28.4052 11.3179 28.5339 10.4826C28.664 9.63839 28.664 9.00575 28.664 8.02428L28.6639 6.91117L27.4385 2.33496H26.9281ZM27.3339 7.08617V7.33536C26.0081 7.3395 24.9908 7.38311 24.1028 7.79718C23.9214 7.39593 23.8188 7.04907 23.7581 6.71408C23.6659 6.20556 23.664 5.70037 23.664 4.99996C23.664 4.69344 23.8054 4.39569 24.2855 4.13724C24.7271 3.8995 25.423 3.72107 26.4207 3.67603L27.3339 7.08617ZM20.3515 24.782L21.2536 22.9777L19.7101 20.2995C19.3936 19.7518 19.2212 19.3052 19.1517 18.8937C19.0833 18.489 19.1082 18.0815 19.2381 17.6026C19.5116 16.5938 20.2138 15.3668 21.3865 13.3321C22.1087 12.079 22.6544 11.1663 23.1309 10.4914C23.6068 9.81741 23.9846 9.42386 24.355 9.17689C25.0038 8.7443 25.7351 8.67651 27.3321 8.66664C27.3266 9.28174 27.305 9.72474 27.2194 10.28C27.1035 11.0322 26.8687 11.9979 26.3781 13.8279L22.4888 28.3351H13.999C12.37 28.3351 11.4415 28.3326 10.787 28.2197C10.2053 28.1194 9.87799 27.9386 9.46922 27.5298C9.10715 27.1677 8.89487 26.6739 8.7815 25.9257C8.66564 25.1612 8.66399 24.2178 8.66399 23.0001C8.66399 22.8294 8.71394 22.7621 8.73746 22.7385C8.76098 22.715 8.82836 22.6651 8.99899 22.6651H9.0338C11.0594 22.665 12.4116 22.665 16.8276 23.8426C17.4615 24.0122 18.2116 24.2122 18.8031 24.3698L20.3515 24.782Z" fill="#000000" class="bmwfcol"/><title>seat-heating_lt_48</title></svg>