<svg width="48" height="48" viewBox="0 0 32 32" xmlns="http://www.w3.org/2000/svg"><path d="M15.2587 6.33496C14.2725 6.33496 13.4522 6.51393 12.8539 6.86682C12.2389 7.22949 11.835 7.83482 11.835 8.53508C11.8349 9.04634 11.8349 9.51395 11.9352 10.0043C12.0082 10.3615 12.1302 10.7149 12.3214 11.1114C11.6697 11.637 11.1158 12.4673 10.4238 13.668C9.63523 15.0362 9.10211 16.0608 8.92238 16.9763C8.72744 17.9693 8.95299 18.7824 9.47949 19.6935L10.0887 20.7506C9.72033 20.6529 9.21443 20.5182 8.55645 20.3421C6.72323 19.8517 5.71085 19.5971 4.97196 19.468C4.2107 19.335 3.72401 19.335 3 19.335C2.55306 19.335 2.11985 19.4748 1.79728 19.7973C1.47471 20.1199 1.335 20.5531 1.335 21L1.33492 21.1613C1.33375 22.6645 1.33289 23.7733 2.27977 24.7203C2.74224 25.1828 3.19782 25.4408 3.86101 25.5606C4.43902 25.665 5.19205 25.665 6.23034 25.6649H13.0486L15.9648 14.7875C16.3008 13.5343 16.4788 12.8504 16.5694 12.3548C16.665 11.8323 16.665 11.5093 16.665 11.0126V9.68082L15.7691 6.33496H15.2587ZM15.335 10.3362C14.6497 10.3415 14.0501 10.3697 13.5093 10.5127C13.3629 10.2055 13.2842 9.9628 13.2382 9.73782C13.1674 9.39154 13.165 9.05242 13.165 8.49996C13.165 8.37267 13.2235 8.19288 13.5295 8.01244C13.783 7.86291 14.1827 7.73376 14.7538 7.68534L15.335 9.85578V10.3362ZM10.396 22.2077L11.0535 22.38L11.7547 20.9777L10.631 19.0281C10.2119 18.3029 10.1124 17.8189 10.2275 17.2325C10.3578 16.5685 10.7699 15.7309 11.5761 14.3321C12.4507 12.8147 12.9317 12.2326 13.4346 11.9594C13.855 11.731 14.3502 11.6791 15.3207 11.6679C15.3102 11.8081 15.2922 11.9455 15.2612 12.1154C15.1824 12.5457 15.0217 13.1694 14.6802 14.4431L12.0282 24.3349H6.30766C5.17064 24.3349 4.54276 24.3323 4.0975 24.2518C3.72318 24.1842 3.50762 24.0672 3.22024 23.7798C2.70095 23.2605 2.665 22.7384 2.665 21C2.665 20.827 2.7153 20.7602 2.73773 20.7378C2.76016 20.7153 2.82694 20.665 3 20.665C3.72307 20.6651 4.09966 20.6658 4.74308 20.7782C5.41303 20.8952 6.36602 21.1329 8.21271 21.627C9.02091 21.8432 9.6003 21.9972 9.97778 22.0972C10.1665 22.1472 10.3048 22.1837 10.396 22.2077Z" fill="#000000" class="bmwfcol"/><path d="M30.665 9.68082L29.7691 6.33496H29.2587C28.2853 6.33496 27.5347 6.50876 27.0233 6.92279C26.4758 7.36614 26.3352 7.97124 26.3352 8.49996V8.59006C26.3351 9.5717 26.3351 10.2342 26.4229 10.7216C26.4863 11.0733 26.5955 11.342 26.7509 11.5851C26.6775 11.6784 26.6043 11.7769 26.5306 11.8807C26.2112 12.3304 25.8568 12.9168 25.4238 13.668C24.6208 15.0612 24.0875 16.1186 23.7636 17.2277C23.4895 18.1663 23.3733 19.1144 23.3433 20.3007C23.2344 20.274 23.0889 20.2385 22.9152 20.197C22.5191 20.1025 21.9751 19.9762 21.3845 19.8498C20.2327 19.6034 18.8107 19.3351 18.0001 19.3351C17.5532 19.3351 17.12 19.4748 16.7974 19.7974C16.4748 20.12 16.3351 20.5532 16.3351 21.0001L16.335 21.1614C16.3339 22.6646 16.333 23.7734 17.2799 24.7203C17.7165 25.157 18.1317 25.4223 18.6613 25.5522C19.1229 25.6654 19.6468 25.6652 20.2441 25.665H27.0486L29.9648 14.7876C30.3008 13.5344 30.4788 12.8504 30.5694 12.3548C30.665 11.8324 30.665 11.5093 30.665 11.0127V9.68082ZM29.335 10.3392C28.7724 10.3534 28.2595 10.4145 27.7768 10.6703C27.7583 10.6145 27.7442 10.5545 27.7318 10.4857C27.668 10.1316 27.6652 9.59711 27.6652 8.49996C27.6652 8.20113 27.737 8.05623 27.8602 7.95647C27.9843 7.85603 28.2411 7.73541 28.7542 7.68682L29.335 9.85578V10.3392ZM23.2263 21.6421L23.3172 21.6651H24.665V21.0001C24.665 19.5308 24.7649 18.5437 25.0403 17.6005C25.3177 16.6504 25.7843 15.7061 26.5761 14.3322C27.0076 13.5834 27.3351 13.0448 27.615 12.6508C27.8952 12.2561 28.102 12.0441 28.2797 11.9192C28.5247 11.747 28.7715 11.6903 29.3203 11.6726C29.3098 11.8112 29.2919 11.9475 29.2612 12.1155C29.1824 12.5458 29.0217 13.1695 28.6802 14.4432L26.0282 24.335H20.3076C19.6239 24.3351 19.2647 24.3307 18.9782 24.2605C18.7434 24.2029 18.5336 24.0932 18.2204 23.7799C17.7011 23.2606 17.6651 22.7385 17.6651 21.0001C17.6651 20.8271 17.7154 20.7603 17.7379 20.7378C17.7603 20.7154 17.8271 20.6651 18.0001 20.6651C18.6434 20.6651 19.9214 20.8969 21.1062 21.1504C21.6838 21.274 22.2172 21.3978 22.6064 21.4907C22.8009 21.5371 22.959 21.5758 23.0683 21.6028L23.194 21.634L23.2263 21.6421Z" fill="#000000" class="bmwfcol"/><title>seats_lt_48</title></svg>