<svg width="48" height="48" viewBox="0 0 32 32" xmlns="http://www.w3.org/2000/svg"><path d="M26.6662 7.335V4H25.3362V7.335L22.0012 7.335V8.665L25.3362 8.665V12H26.6662V8.665L30.0012 8.665V7.335L26.6662 7.335Z" fill="#000000" class="bmwfcol"/><path d="M18.8362 10.5V12.335H17.6661L17.6662 11.6808L16.7702 8.33496H16.2598C15.2737 8.33496 14.4534 8.51393 13.855 8.86682C13.24 9.22949 12.8361 9.7997 12.8361 10.5L12.8361 10.5351C12.836 11.0464 12.836 11.514 12.9363 12.0043C13.0093 12.3614 13.1314 12.7148 13.3225 13.1113C12.6708 13.6369 12.1169 14.4672 11.4249 15.6679C10.6363 17.0361 10.1032 18.0607 9.92348 18.9762C9.72854 19.9692 9.95409 20.7823 10.4806 21.6935L11.0898 22.7506C10.7214 22.6528 10.2155 22.5181 9.55755 22.3421C7.72433 21.8516 6.71195 21.597 5.97306 21.4679C5.2118 21.335 4.73708 21.335 4.01307 21.335H4.0011C3.55416 21.335 3.12095 21.4747 2.79838 21.7972C2.4758 22.1198 2.3361 22.553 2.3361 23L2.33602 23.1612C2.33485 24.6644 2.33399 25.7733 3.28087 26.7202C3.74334 27.1827 4.19892 27.4407 4.86211 27.5605C5.44012 27.665 6.1932 27.6649 7.23148 27.6649L14.0497 27.6649L16.9659 16.7874C17.3019 15.5342 17.4799 14.8503 17.5705 14.3547C17.619 14.0897 17.6429 13.8761 17.6547 13.665H18.8362V18H20.1662V10.5H18.8362ZM16.3362 11.8558L16.3361 12.3361C15.6508 12.3414 15.0512 12.3696 14.5104 12.5126C14.364 12.2055 14.2853 11.9628 14.2393 11.7378C14.1685 11.3915 14.1661 11.0524 14.1661 10.5C14.1661 10.3727 14.2247 10.1929 14.5306 10.0124C14.7842 9.86291 15.1839 9.73376 15.755 9.68534L16.3362 11.8558ZM9.21381 23.6269C10.1602 23.8801 11.107 24.1316 12.0546 24.38L12.7558 22.9776L11.6321 21.028C11.213 20.3028 11.1135 19.8188 11.2286 19.2324C11.3589 18.5684 11.771 17.7309 12.5772 16.332C13.4518 14.8146 13.9328 14.2325 14.4357 13.9593C14.8561 13.7309 15.3513 13.679 16.3218 13.6678C16.3113 13.808 16.2933 13.9454 16.2623 14.1153C16.1835 14.5456 16.0227 15.1693 15.6813 16.443L13.0293 26.3348H7.30876C6.17174 26.3348 5.54385 26.3322 5.0986 26.2517C4.72427 26.1841 4.50872 26.0671 4.22134 25.7797C3.70205 25.2604 3.6661 24.7383 3.6661 23C3.6661 22.8269 3.7164 22.7601 3.73883 22.7377C3.76126 22.7153 3.82804 22.665 4.0011 22.665C4.72417 22.665 5.10076 22.6657 5.74417 22.7781C6.41413 22.8951 7.36712 23.1328 9.21381 23.6269Z" fill="#000000" class="bmwfcol"/><title>seat_accessory_plus_lt_48</title></svg>