<svg width="48" height="48" viewBox="0 0 32 32" xmlns="http://www.w3.org/2000/svg"><path d="M15.9548 2.33496C15.3672 2.33491 14.8073 2.33485 14.3233 2.42413C13.7931 2.52194 13.3115 2.73249 12.9038 3.17361C12.5172 3.59183 12.2425 4.16955 12.0098 4.91004C11.7846 5.62692 11.5823 6.55297 11.3707 7.74C10.1308 9.50264 9.43302 10.4971 9.02999 11.5704C8.62157 12.6581 8.52203 13.8096 8.34624 15.8432L8.3314 16.0149C8.23681 17.1086 8.16367 17.9541 8.12934 18.6193C8.09446 19.2948 8.0965 19.8297 8.17012 20.2813C8.28115 20.9623 8.55306 21.4124 8.93749 21.8525C8.76255 21.9581 8.60629 22.0564 8.46894 22.1501C8.1609 22.3602 7.8915 22.5839 7.69665 22.8762C7.49371 23.1806 7.40894 23.5023 7.37041 23.8436C7.33492 24.158 7.33494 24.5351 7.33496 24.9661V25C7.33496 26.0561 7.46651 26.8091 7.85615 27.5105C8.21434 28.1553 8.77334 28.7141 9.47367 29.4142L9.72451 29.6651H22.2754L22.5263 29.4142C23.2266 28.7141 23.7856 28.1553 24.1438 27.5105C24.5334 26.8091 24.665 26.0561 24.665 25V24.9662C24.665 24.5351 24.665 24.1581 24.6295 23.8436C24.591 23.5023 24.5062 23.1806 24.3033 22.8762C24.1084 22.5839 23.839 22.3602 23.531 22.1501C23.3937 22.0564 23.2375 21.9582 23.0627 21.8527C23.4447 21.4154 23.716 20.9678 23.8282 20.2936C23.9029 19.845 23.9061 19.3149 23.8724 18.6468C23.8387 17.9775 23.7649 17.1245 23.6692 16.0174L23.6541 15.8433C23.4784 13.8112 23.3789 12.6599 22.9713 11.573C22.5683 10.4984 21.8703 9.50376 20.6293 7.73956C20.4177 6.55273 20.2154 5.62683 19.9903 4.91004C19.7576 4.16955 19.4829 3.59183 19.0963 3.17361C18.6886 2.73249 18.207 2.52194 17.6768 2.42413C17.1928 2.33485 16.6329 2.33491 16.0453 2.33496H15.9548ZM19.2027 7.33843L12.7987 7.33155C12.9624 6.48054 13.1176 5.82152 13.2787 5.30865C13.4879 4.64288 13.6894 4.2831 13.8805 4.07632C14.0504 3.89245 14.2478 3.7905 14.5646 3.73206C14.9152 3.66738 15.3542 3.66497 16.0001 3.66497C16.6459 3.66497 17.0849 3.66738 17.4355 3.73206C17.7523 3.7905 17.9497 3.89245 18.1196 4.07632C18.3107 4.2831 18.5122 4.64288 18.7214 5.30865C18.8829 5.8229 19.0386 6.48409 19.2027 7.33843ZM19.7715 24.1947C20.6629 23.8979 21.3988 23.4483 22.0957 22.8252C22.3831 22.9938 22.6045 23.1281 22.7814 23.2488C23.0359 23.4224 23.1415 23.5312 23.1967 23.6139C23.2437 23.6845 23.2839 23.7803 23.3079 23.9928C23.334 24.2238 23.335 24.5252 23.335 25C23.335 25.944 23.2165 26.441 22.9811 26.8646C22.7463 27.2873 22.3753 27.6814 21.7242 28.3351H10.2757C9.62462 27.6814 9.25363 27.2873 9.01878 26.8646C8.78342 26.441 8.66496 25.944 8.66496 25C8.66496 24.5252 8.66594 24.2238 8.69202 23.9928C8.71599 23.7803 8.75622 23.6845 8.80328 23.6139C8.85843 23.5312 8.96403 23.4224 9.21849 23.2488C9.39544 23.128 9.61697 22.9937 9.90447 22.8251C10.6014 23.4483 11.3374 23.8978 12.2288 24.1947C13.2646 24.5397 14.471 24.665 16.0002 24.665C17.5293 24.665 18.7357 24.5397 19.7715 24.1947ZM19.6569 8.66892C20.0107 9.17256 20.3082 9.59836 20.5601 9.97045C19.5197 11.7971 18.949 12.9948 18.6507 14.1206C18.335 15.312 18.335 16.3894 18.3351 17.9426V23.1787C17.6905 23.2857 16.9313 23.335 16.0002 23.335C15.0689 23.335 14.3095 23.2857 13.6649 23.1787V17.9426C13.665 16.3894 13.665 15.312 13.3493 14.1206C13.051 12.9948 12.4804 11.7972 11.4401 9.97072C11.6933 9.59663 11.9926 9.16826 12.349 8.66107L19.6569 8.66892ZM19.6651 22.8173V18.0001C19.6651 16.3796 19.669 15.47 19.9363 14.4613C20.1582 13.6242 20.5688 12.6956 21.3636 11.2562C21.5127 11.5304 21.6297 11.7833 21.726 12.04C22.0617 12.935 22.1506 13.894 22.3376 16.0573L22.3429 16.118C22.4401 17.2419 22.5117 18.0711 22.5441 18.7137C22.5767 19.3604 22.5665 19.7733 22.5162 20.0753C22.4302 20.5924 22.2368 20.823 21.5299 21.5298C20.9275 22.1322 20.3467 22.541 19.6651 22.8173ZM10.2751 12.038C10.3712 11.782 10.488 11.5299 10.6366 11.2565C11.4312 12.6957 11.8419 13.6242 12.0637 14.4613C12.331 15.47 12.3349 16.3796 12.3349 18.0001V22.8172C11.6534 22.5408 11.0727 22.1321 10.4704 21.5298C9.76105 20.8205 9.56805 20.5903 9.48279 20.0673C9.43292 19.7614 9.42374 19.3431 9.45757 18.6878C9.4907 18.046 9.56211 17.2203 9.65851 16.1058L9.66269 16.0573C9.84993 13.8923 9.93884 12.9335 10.2751 12.038Z" fill="#000000" class="bmwfcol"/><title>seat-front_lt_48</title></svg>