<svg width="48" height="48" viewBox="0 0 32 32" xmlns="http://www.w3.org/2000/svg"><path d="M24.9296 2.33496C23.5544 2.33496 22.4459 2.54115 21.6565 2.96617C20.8342 3.40889 20.3355 4.11113 20.3355 4.99996C20.3354 5.66498 20.3354 6.31461 20.4509 6.95144C20.5455 7.47272 20.7138 7.99209 21.0004 8.5738C20.6762 8.88824 20.3663 9.26989 20.0455 9.7242C19.5288 10.4559 18.9549 11.4191 18.2351 12.668L18.1669 12.7863C17.0714 14.687 16.2788 16.062 15.9554 17.2545C15.7835 17.8886 15.7359 18.492 15.8413 19.1154C15.9455 19.7318 16.1933 20.3311 16.5596 20.965L17.7453 23.0224L17.6475 23.2181L17.1465 23.0846C16.555 22.927 15.8047 22.727 15.1713 22.5575C10.6126 21.3418 9.15478 21.3351 6.99996 21.3351C6.55259 21.3351 6.11997 21.4761 5.79799 21.7981C5.47601 22.1201 5.33496 22.5527 5.33496 23.0001V23.0423C5.33494 24.2082 5.33493 25.2502 5.46748 26.125C5.60412 27.0266 5.89185 27.8324 6.52973 28.4703C7.12094 29.0615 7.69364 29.3807 8.56197 29.5304C9.34345 29.6651 10.3913 29.6651 11.9175 29.6651H21.5102L25.6637 14.1723C26.1516 12.3522 26.4061 11.3179 26.5349 10.4826C26.665 9.63839 26.665 9.00575 26.6649 8.02428L26.6654 6.91117L25.4399 2.33496H24.9296ZM25.3354 7.33536C24.0095 7.33949 22.9922 7.38304 22.1041 7.79699C21.9228 7.39582 21.8203 7.04902 21.7596 6.71408C21.6673 6.20556 21.6655 5.70037 21.6655 4.99996C21.6655 4.69344 21.8069 4.39569 22.287 4.13724C22.7285 3.8995 23.4245 3.72107 24.4222 3.67603L25.3354 7.08617V7.33536ZM14.8285 23.8426C15.4625 24.0122 16.2125 24.2122 16.804 24.3698L18.3525 24.782L19.2546 22.9777L17.7111 20.2995C17.3946 19.7518 17.2222 19.3052 17.1527 18.8937C17.0843 18.489 17.1092 18.0815 17.239 17.6026C17.5126 16.5938 18.2148 15.3668 19.3875 13.3321C20.1097 12.079 20.6554 11.1663 21.1319 10.4914C21.6078 9.81741 21.9856 9.42386 22.356 9.17689C23.0048 8.7443 23.736 8.67651 25.3331 8.66664C25.3276 9.28174 25.306 9.72474 25.2204 10.28C25.1045 11.0322 24.8697 11.9979 24.3791 13.8279L20.4898 28.3351H12C10.371 28.3351 9.44246 28.3326 8.78794 28.2197C8.20626 28.1194 7.87896 27.9386 7.4702 27.5298C7.10812 27.1677 6.89585 26.6739 6.78247 25.9257C6.66662 25.1612 6.66496 24.2178 6.66496 23.0001C6.66496 22.8294 6.71492 22.7621 6.73844 22.7385C6.76196 22.715 6.82933 22.6651 6.99996 22.6651H7.03478C9.06041 22.665 10.4126 22.665 14.8285 23.8426Z" fill="#000000" class="bmwfcol"/><title>seat-side_lt_48</title></svg>