<svg width="48" height="48" viewBox="0 0 32 32" xmlns="http://www.w3.org/2000/svg"><path d="M19.0001 3.05957L21.2755 5.33502H23.2014L24.9237 6.48323L26.1005 7.66004L26.5193 9.33501H27.7276L27.6488 10.2362C27.3451 13.7077 27.1283 16.1851 26.9224 18H25.584C25.7784 16.3135 25.9856 13.9835 26.2762 10.665H5.72568C6.21115 16.2095 6.46387 18.9948 6.81322 20.6297C6.99118 21.4625 7.18502 21.9463 7.42138 22.3255C7.63169 22.6629 7.89079 22.9447 8.27717 23.3349H8.55652C9.02057 22.1635 10.1636 21.3351 11.5002 21.3351C12.8367 21.3351 13.9797 22.1635 14.4438 23.3349H20V24.6649H14.6609C14.5752 26.3363 13.1928 27.6651 11.5002 27.6651C9.80747 27.6651 8.42513 26.3363 8.33938 24.6649H7.72552L7.5236 24.463C7.04843 23.9878 6.62878 23.5682 6.29271 23.029C6.05062 22.6407 5.86139 22.2077 5.70187 21.665H3V20.335H5.40155C5.07487 18.4869 4.81416 15.5068 4.35272 10.2323L4.27422 9.33501H5.58908L6.37263 7.76792L6.91728 5.58932L8.95229 4.23264L10.8688 5.19088L11.7246 4.33502H14.7246L15.8688 3.19088L17.8688 4.19088L19.0001 3.05957ZM24.8996 8.34L24.0764 7.51681L22.7987 6.66502H20.7246L19.0001 4.94047L18.1314 5.80917L16.1314 4.80917L15.2755 5.66502H12.2755L11.1314 6.80917L9.04784 5.7674L8.08286 6.41073L7.62751 8.23213L7.07607 9.33501H25.1483L24.8996 8.34ZM11.5002 22.6651C10.4867 22.6651 9.66516 23.4866 9.66516 24.5001C9.66516 25.5135 10.4867 26.3351 11.5002 26.3351C12.5136 26.3351 13.3352 25.5135 13.3352 24.5001C13.3352 23.4866 12.5136 22.6651 11.5002 22.6651Z" fill="#000000" class="bmwfcol"/><path d="M21.619 20.1736C22.1179 20.0462 23.1373 19.8171 23.8866 19.8171C24.8433 19.8171 25.5238 20.0016 26.0242 20.5133C26.4327 20.9224 26.602 21.5101 26.602 22.0655C26.602 23.0626 26.1589 23.746 25.4613 24.5618C24.6951 25.4705 23.8475 26.386 23.2285 27.0236H26.8992V28.4H21.2031V27.1344L21.2566 27.0768C22.2354 26.0235 23.9061 24.2152 24.4637 23.5315C24.9138 22.9742 25.1619 22.6225 25.1619 22.1292C25.1619 21.8303 25.1056 21.6291 24.9296 21.4595C24.7218 21.2785 24.4044 21.1936 23.823 21.1936C23.2064 21.1936 22.1717 21.4506 21.7191 21.5691L21.4685 21.6348V20.212L21.619 20.1736Z" fill="#000000" class="bmwfcol"/><title>secondary_raw_materials_lt_48</title></svg>