<svg width="48" height="48" viewBox="0 0 32 32" xmlns="http://www.w3.org/2000/svg"><path d="M15 23.665H9V22.335H15V23.665Z" fill="#000000" class="bmwfcol"/><path d="M14.664 14.335H9.33398V19.665H14.664V14.335ZM10.664 18.335V15.665H13.334V18.335H10.664Z" fill="#000000" class="bmwfcol"/><path d="M7.99898 2.33496C7.55205 2.33496 7.11883 2.47466 6.79626 2.79723C6.47369 3.11981 6.33398 3.55302 6.33398 3.99996V7.99996C6.33398 8.4469 6.47369 8.88012 6.79626 9.20269C7.11883 9.52526 7.55205 9.66496 7.99898 9.66496H11.334V11.335H7.72375C7.30666 11.752 6.79809 12.1652 6.52941 12.7026C6.33245 13.0965 6.33326 13.498 6.33409 13.9176L6.3342 29.665H17.6642L17.6643 13.9176C17.6651 13.498 17.666 13.0965 17.469 12.7026C17.2003 12.1652 16.6917 11.752 16.2747 11.335H12.664V9.66496H15.999C16.4459 9.66496 16.8791 9.52526 17.2017 9.20269C17.5243 8.88012 17.664 8.4469 17.664 7.99996V3.99996C17.664 3.55302 17.5243 3.11981 17.2017 2.79723C16.8791 2.47466 16.4459 2.33496 15.999 2.33496H7.99898ZM7.66398 3.99996C7.66398 3.76577 7.76479 3.66496 7.99898 3.66496H15.999C16.2332 3.66496 16.334 3.76577 16.334 3.99996V7.99996C16.334 8.23415 16.2332 8.33496 15.999 8.33496H7.99898C7.76479 8.33496 7.66398 8.23415 7.66398 7.99996V3.99996ZM8.27501 12.665H15.7234C15.9112 12.8538 16.1582 13.055 16.2794 13.2974C16.3196 13.3777 16.3342 13.4495 16.3342 14V28.335H7.6642V14C7.6642 13.4495 7.6788 13.3777 7.719 13.2974C7.84018 13.055 8.08723 12.8538 8.27501 12.665Z" fill="#000000" class="bmwfcol"/><path d="M24.999 19.835C24.3556 19.835 23.834 20.3565 23.834 21C23.834 21.6434 24.3556 22.165 24.999 22.165C25.6424 22.165 26.164 21.6434 26.164 21C26.164 20.3565 25.6424 19.835 24.999 19.835Z" fill="#000000" class="bmwfcol"/><path d="M27.664 8.72457L24.999 6.05957L22.334 8.72457V9.77547L23.3085 10.75L22.334 11.7246V12.7755L23.3085 13.75L22.334 14.7246V16.0638C21.0601 16.8761 20.334 18.293 20.334 20C20.334 21.3511 20.7873 22.5288 21.6288 23.3702C22.4703 24.2117 23.6479 24.665 24.999 24.665C26.3501 24.665 27.5277 24.2117 28.3692 23.3702C29.2107 22.5288 29.664 21.3511 29.664 20C29.664 18.293 28.9379 16.8761 27.664 16.0638V8.72457ZM24.664 10.2246L23.6894 9.25002L24.999 7.94047L26.334 9.27547V16.8564L26.6972 17.0414C27.6936 17.5489 28.334 18.5709 28.334 20C28.334 21.0489 27.9873 21.8713 27.4288 22.4298C26.8703 22.9883 26.0479 23.335 24.999 23.335C23.9501 23.335 23.1277 22.9883 22.5692 22.4298C22.0107 21.8713 21.664 21.0489 21.664 20C21.664 18.5709 22.3044 17.5489 23.3008 17.0414L23.664 16.8564V15.2755L24.664 14.2755V13.2246L23.6894 12.25L24.664 11.2755V10.2246Z" fill="#000000" class="bmwfcol"/><title>self-service-kiosk_lt_48</title></svg>