<svg width="48" height="48" viewBox="0 0 32 32" xmlns="http://www.w3.org/2000/svg"><path d="M12.4288 20.5133L10.9853 21.9564C10.5093 21.8127 10.0611 21.6328 9.64238 21.4184L12.0166 19.0446C12.6714 19.2131 13.3218 19.335 14.0021 19.335C15.5739 19.335 16.8485 18.838 17.75 18.0064C18.4949 17.3193 19.0171 16.3743 19.2302 15.2139L15.8395 17.1715C15.0938 17.6031 14.2687 17.5981 13.5152 17.2353C12.7852 16.8839 12.144 16.2122 11.6361 15.3325C11.1283 14.4528 10.8727 13.5702 10.9437 12.7701C11.0171 11.9426 11.4411 11.2474 12.1766 10.8267L15.5934 8.85393C15.1051 8.73075 14.5734 8.66496 14.0021 8.66496C12.3532 8.66496 11.0308 9.21169 10.1223 10.1202C9.21382 11.0287 8.66709 12.3511 8.66709 14C8.66709 14.6806 8.78905 15.3313 8.95773 15.9864L6.58331 18.36C6.36884 17.9414 6.18891 17.4933 6.04512 17.0174L7.48896 15.5741C7.38838 15.0736 7.33709 14.5474 7.33709 14C7.33709 12.0488 7.99037 10.3712 9.18187 9.17973C10.3734 7.98824 12.051 7.33496 14.0021 7.33496C15.3125 7.33496 16.5102 7.67631 17.6671 8.26559V9.19244L12.8376 11.9808C12.4956 12.1761 12.3052 12.4745 12.2685 12.8877C12.2294 13.3288 12.3658 13.9362 12.788 14.6675C13.2101 15.3988 13.6769 15.8371 14.0921 16.037C14.4836 16.2255 14.8407 16.2129 15.1733 16.0204L18.9585 13.835H20.6952C20.5716 15.7659 20.1351 17.6157 18.6518 18.984C17.472 20.0722 15.8609 20.665 14.0021 20.665C13.455 20.665 12.9291 20.6137 12.4288 20.5133Z" fill="#000000" class="bmwfcol"/><path d="M6.20571 6.20473C8.08078 4.32966 10.764 3.33496 14.0009 3.33496C17.2379 3.33496 19.9211 4.32966 21.7962 6.20473C23.6712 8.07981 24.6659 10.763 24.6659 14C24.6659 16.9658 23.8309 19.4668 22.2486 21.3073L28.4712 27.5298L27.5307 28.4703L21.3082 22.2477C19.4678 23.8299 16.9668 24.665 14.0009 24.665C10.764 24.665 8.08078 23.6703 6.20571 21.7952C4.33064 19.9201 3.33594 17.2369 3.33594 14C3.33594 10.763 4.33064 8.07981 6.20571 6.20473ZM7.14616 7.14519C5.57123 8.72012 4.66594 11.0369 4.66594 14C4.66594 16.963 5.57123 19.2798 7.14616 20.8547C8.72109 22.4297 11.0379 23.335 14.0009 23.335C16.964 23.335 19.2808 22.4297 20.8557 20.8547C22.4306 19.2798 23.3359 16.963 23.3359 14C23.3359 11.0369 22.4306 8.72012 20.8557 7.14519C19.2808 5.57026 16.964 4.66496 14.0009 4.66496C11.0379 4.66496 8.72109 5.57026 7.14616 7.14519Z" fill="#000000" class="bmwfcol"/><title>service-finder_lt_48</title></svg>