<svg width="48" height="48" viewBox="0 0 32 32" xmlns="http://www.w3.org/2000/svg"><path d="M11.2172 4.96723C12.459 3.72543 14.1697 3.33496 16 3.33496C17.8302 3.33496 19.5409 3.72543 20.7827 4.96723C22.0224 6.2069 22.665 8.16506 22.665 11C22.665 13.8349 22.0224 15.793 20.7827 17.0327C19.5409 18.2745 17.8302 18.665 16 18.665C14.1697 18.665 12.459 18.2745 11.2172 17.0327C9.97757 15.793 9.33496 13.8349 9.33496 11C9.33496 8.16506 9.97757 6.2069 11.2172 4.96723ZM12.1577 5.90769C11.2724 6.79302 10.665 8.33486 10.665 11C10.665 13.6651 11.2724 15.2069 12.1577 16.0922C13.0409 16.9754 14.3302 17.335 16 17.335C17.6697 17.335 18.959 16.9754 19.8422 16.0922C20.7276 15.2069 21.335 13.6651 21.335 11C21.335 8.33486 20.7276 6.79302 19.8422 5.90769C18.959 5.02449 17.6697 4.66496 16 4.66496C14.3302 4.66496 13.0409 5.02449 12.1577 5.90769Z" fill="#000000" class="bmwfcol"/><path d="M26.9164 28.0001C26.1341 25.1312 25.4217 23.9545 24.1116 23.3547C23.4025 23.0301 22.4638 22.8493 21.1281 22.7573C21.0858 22.7544 21.0432 22.7515 21.0003 22.7488V21.4163C21.0742 21.4207 21.1473 21.4254 21.2195 21.4304C22.6059 21.5259 23.7362 21.7201 24.6653 22.1455C26.6056 23.0338 27.4436 24.8223 28.2477 27.8283L28.2936 28.0001H26.9164Z" fill="#000000" class="bmwfcol"/><path d="M5.08423 28.0001H3.70703L3.75301 27.8283C4.55705 24.8223 5.39507 23.0338 7.33538 22.1455C7.54641 22.0488 7.76782 21.9641 8.00025 21.8898V23.3058C7.96256 23.3217 7.9255 23.338 7.88905 23.3547C6.57898 23.9545 5.86658 25.1312 5.08423 28.0001Z" fill="#000000" class="bmwfcol"/><path d="M7.99996 10.335H5.33496V11C5.33496 14.0374 5.68571 16.1414 6.84534 17.9036C7.9907 19.6441 9.86936 20.9604 12.6675 22.5759L12.8218 22.665H17.9999V21.335H13.1786C10.4733 19.764 8.89396 18.5973 7.95636 17.1725C7.088 15.8529 6.72255 14.2351 6.67133 11.665H7.99996V10.335Z" fill="#000000" class="bmwfcol"/><title>services_lt_48</title></svg>