<svg width="48" height="48" viewBox="0 0 32 32" xmlns="http://www.w3.org/2000/svg"><path d="M26.6659 5.33496V2H25.3359V5.33496L22 5.33496V6.66496L25.3359 6.66496V10H26.6659V6.66496L30 6.66496V5.33496L26.6659 5.33496Z" fill="#000000" class="bmwfcol"/><path d="M4 5.95348V4.57129C5.02298 4.85272 5.72076 5.08908 6.62198 5.66254C7.58185 6.27332 8.78842 7.2762 11.003 9.13427C12.5667 7.8523 13.6767 7.12807 14.8174 6.74463C16.0366 6.33479 17.2412 6.33486 18.92 6.33496C19.5146 6.33499 20.1089 6.3571 20.7 6.42479V7.76456C20.1869 7.69835 19.6292 7.66497 19.001 7.66497C17.2222 7.66497 16.2336 7.67171 15.2412 8.00531C13.732 8.51262 12.4663 9.63869 11.268 10.6442C9.23414 10.822 7.12693 10.8826 5.12735 11.3271C4.20871 11.5312 3.67979 11.8026 2.66614 12.3843L2.666 14.9919C3.24848 15.1448 3.59848 15.2289 3.84373 15.2761C3.9586 13.6326 5.32823 12.335 7.00094 12.335C8.69358 12.335 10.0759 13.6637 10.1617 15.335H20.8402C20.926 13.6637 22.3083 12.335 24.0009 12.335C25.6916 12.335 27.0727 13.6606 27.1614 15.3292C27.5105 15.3198 27.7466 15.2952 27.9893 15.2317C28.318 15.1456 28.6833 14.9801 29.3361 14.6136L29.336 13.269C28.9173 12.8209 28.6575 12.4319 28.5085 12.0594C28.3358 11.6276 28.3359 11.2706 28.336 11.0155V11H29.666C29.666 11.7497 30.1598 12.2184 30.6659 12.7245L30.6662 15.3839C29.5037 16.0551 28.3209 16.65 26.9451 16.6637C26.4815 17.8358 25.338 18.665 24.0009 18.665C22.6643 18.665 21.5213 17.8364 21.0572 16.665H18.665V25.665H2V24.335H13.3359V16.665H9.94463C9.48062 17.8364 8.33753 18.665 7.00094 18.665C5.65832 18.665 4.51096 17.829 4.05101 16.6491C3.1281 16.5667 2.22592 16.2521 1.33594 16.0136L1.33619 11.616C2.45813 10.9683 3.55929 10.3131 4.83879 10.0287C5.80636 9.81369 7.11677 9.67667 9.3425 9.47824C7.62249 8.04019 6.66873 7.26872 5.90797 6.78463C5.26274 6.37406 4.76814 6.17688 4 5.95348ZM17.335 16.665H14.6659V24.335H17.335V16.665ZM5.16594 15.5C5.16594 16.5134 5.98749 17.335 7.00094 17.335C8.01438 17.335 8.83594 16.5134 8.83594 15.5C8.83594 14.4865 8.01438 13.665 7.00094 13.665C5.98749 13.665 5.16594 14.4865 5.16594 15.5ZM24.0009 13.665C22.9875 13.665 22.1659 14.4865 22.1659 15.5C22.1659 16.5134 22.9875 17.335 24.0009 17.335C25.0144 17.335 25.8359 16.5134 25.8359 15.5C25.8359 14.4865 25.0144 13.665 24.0009 13.665Z" fill="#000000" class="bmwfcol"/><path d="M23.9995 27.9405L30.4697 21.4702L29.5293 20.5298L23.9995 26.0596L21.4697 23.5298L20.5293 24.4702L23.9995 27.9405Z" fill="#000000" class="bmwfcol"/><title>service-inclusive-plus_lt_48</title></svg>