<svg width="48" height="48" viewBox="0 0 32 32" xmlns="http://www.w3.org/2000/svg"><path d="M4.00097 5.95348V4.57129C5.02395 4.85272 5.72173 5.08908 6.62294 5.66254C7.58275 6.27328 8.78923 7.27607 11.0036 9.1339C12.5669 7.85221 13.6769 7.1281 14.8174 6.7447C16.1604 6.29323 17.6027 6.33498 19.001 6.33503C20.777 6.33503 22.0984 6.58384 23.4066 7.09139C24.8216 7.64039 26.1293 8.4375 27.4386 9.19578L29.6659 9.39064L29.666 11C29.666 11.7498 30.1598 12.2184 30.6659 12.7246L30.6662 15.3839C29.5037 16.0551 28.3209 16.6501 26.9452 16.6637C26.4815 17.8359 25.3381 18.665 24.001 18.665C22.6644 18.665 21.5213 17.8365 21.0573 16.665H18.666V25.665H2.00097V24.335H13.336V16.665H9.94466C9.48065 17.8365 8.33756 18.665 7.00097 18.665C5.65834 18.665 4.51099 17.829 4.05104 16.6492C3.12811 16.5667 2.22593 16.2521 1.33594 16.0136L1.33619 11.6161C2.45812 10.9683 3.55929 10.3132 4.83879 10.0288C5.8065 9.81373 7.11714 9.6767 9.34345 9.47822C7.62344 8.04018 6.66969 7.26872 5.90893 6.78463C5.26371 6.37406 4.76911 6.17688 4.00097 5.95348ZM27.1614 15.3292C27.9775 15.3072 28.6276 15.0114 29.3361 14.6137L29.336 13.269C28.9173 12.821 28.6575 12.432 28.5085 12.0595C28.3212 11.5911 28.336 11.103 28.3359 10.6094L27.0282 10.495C25.6936 9.72246 24.3678 8.8909 22.9256 8.33134C21.7892 7.89045 20.6335 7.66503 19.001 7.66503C17.2222 7.66503 16.2336 7.67177 15.2412 8.00537C13.732 8.51269 12.4663 9.63875 11.268 10.6443C9.23414 10.8221 7.12693 10.8827 5.12735 11.3271C4.20871 11.5313 3.67979 11.8027 2.66614 12.3844L2.666 14.9919C3.2485 15.1448 3.59851 15.229 3.84376 15.2761C3.95863 13.6326 5.32826 12.335 7.00097 12.335C8.6936 12.335 10.0759 13.6637 10.1617 15.335H20.8402C20.926 13.6637 22.3083 12.335 24.001 12.335C25.6916 12.335 27.0727 13.6607 27.1614 15.3292ZM17.336 16.665H14.666V24.335H17.336V16.665ZM5.16597 15.5C5.16597 16.5135 5.98752 17.335 7.00097 17.335C8.01441 17.335 8.83597 16.5135 8.83597 15.5C8.83597 14.4866 8.01441 13.665 7.00097 13.665C5.98752 13.665 5.16597 14.4866 5.16597 15.5ZM24.001 13.665C22.9875 13.665 22.166 14.4866 22.166 15.5C22.166 16.5135 22.9875 17.335 24.001 17.335C25.0144 17.335 25.836 16.5135 25.836 15.5C25.836 14.4866 25.0144 13.665 24.001 13.665Z" fill="#000000" class="bmwfcol"/><path d="M23.9995 27.9405L30.4697 21.4703L29.5293 20.5298L23.9995 26.0596L21.4697 23.5298L20.5293 24.4703L23.9995 27.9405Z" fill="#000000" class="bmwfcol"/><title>service-inclusive_lt_48</title></svg>