<svg width="48" height="48" viewBox="0 0 32 32" xmlns="http://www.w3.org/2000/svg"><path d="M17.2255 2.33496H26.666V4.33496H26.8429L28.575 3.33496L29.666 3.33496V9.66496H28.575L26.8429 8.66496H26.666V11.665H17.2255L17.0307 11.4702C16.2652 10.7047 15.7963 10.1137 15.5576 9.39775C15.3356 8.73165 15.3357 8.00818 15.336 7.08805V6.91188C15.3357 5.99176 15.3356 5.26827 15.5576 4.60217C15.7963 3.88619 16.2652 3.29524 17.0307 2.52974L17.2255 2.33496ZM26.666 7.33496H27.1993L28.336 7.99123V5.0087L27.1993 5.66496H26.666V7.33496ZM17.7797 3.66496C17.1862 4.27997 16.9431 4.65137 16.8193 5.02275C16.6734 5.46053 16.666 5.96226 16.666 6.99996C16.666 8.03767 16.6734 8.53939 16.8193 8.97717C16.9431 9.34855 17.1862 9.71995 17.7797 10.335H25.336V3.66496H17.7797Z" fill="#000000" class="bmwfcol"/><path d="M4.00097 12.5713V13.9535C4.76911 14.1769 5.26371 14.374 5.90893 14.7846C6.66969 15.2687 7.62345 16.0402 9.34345 17.4782C7.11714 17.6767 5.8065 17.8137 4.83879 18.0288C3.55929 18.3132 2.45813 18.9683 1.33619 19.6161L1.33594 24.0136C2.22593 24.2521 3.12811 24.5667 4.05104 24.6492C4.51099 25.829 5.65834 26.665 7.00097 26.665C8.33756 26.665 9.48065 25.8365 9.94466 24.665H13.336V30H14.666V24.665H17.336V30H18.666V24.665H21.0573C21.5213 25.8365 22.6644 26.665 24.001 26.665C25.3381 26.665 26.4815 25.8359 26.9452 24.6637C28.3209 24.6501 29.5037 24.0551 30.6662 23.3839L30.6659 20.7245C30.3209 20.3795 29.928 20.0271 29.7434 19.5655C29.6697 19.3812 29.666 19.2439 29.666 19L29.6659 17.3906L27.4386 17.1958C26.1293 16.4375 24.8216 15.6404 23.4066 15.0914C22.0984 14.5838 20.777 14.335 19.001 14.335C17.6028 14.335 16.1604 14.2932 14.8174 14.7447C13.6769 15.1281 12.5669 15.8522 11.0036 17.1339C8.78923 15.2761 7.58275 14.2733 6.62294 13.6625C5.72173 13.0891 5.02395 12.8527 4.00097 12.5713ZM27.1614 23.3292C27.0727 21.6607 25.6916 20.335 24.001 20.335C22.3083 20.335 20.926 21.6637 20.8402 23.335H10.1617C10.0759 21.6637 8.6936 20.335 7.00097 20.335C5.32826 20.335 3.95863 21.6326 3.84376 23.2761C3.59851 23.2289 3.2485 23.1448 2.666 22.9919L2.66614 20.3844C3.67979 19.8026 4.20871 19.5313 5.12735 19.3271C7.12693 18.8827 9.23414 18.822 11.268 18.6442C12.4663 17.6387 13.732 16.5127 15.2412 16.0054C16.2336 15.6718 17.2222 15.665 19.001 15.665C20.6335 15.665 21.7892 15.8904 22.9256 16.3313C24.3678 16.8909 25.6936 17.7224 27.0282 18.4949L28.3359 18.6093C28.336 19.6984 28.5824 20.4625 29.336 21.269L29.3361 22.6137C28.6276 23.0114 27.9775 23.3072 27.1614 23.3292ZM7.00097 21.665C8.01441 21.665 8.83597 22.4866 8.83597 23.5C8.83597 24.5135 8.01441 25.335 7.00097 25.335C5.98752 25.335 5.16597 24.5135 5.16597 23.5C5.16597 22.4866 5.98752 21.665 7.00097 21.665ZM22.166 23.5C22.166 22.4866 22.9875 21.665 24.001 21.665C25.0144 21.665 25.836 22.4866 25.836 23.5C25.836 24.5135 25.0144 25.335 24.001 25.335C22.9875 25.335 22.166 24.5135 22.166 23.5Z" fill="#000000" class="bmwfcol"/><title>service-video-consultation_lt_48</title></svg>