<svg width="48" height="48" viewBox="0 0 32 32" xmlns="http://www.w3.org/2000/svg"><path d="M13.2002 2.63135L15.0878 4.87853C15.694 4.8294 16.3032 4.8294 16.9094 4.87852L18.7957 2.63175L19.1955 2.72743C20.5816 3.05917 21.9069 3.60705 23.1227 4.35093L23.4741 4.5659L23.2177 7.49118C23.6816 7.88521 24.1127 8.31631 24.5067 8.78021L27.4296 8.5249L27.6446 8.87555C28.3895 10.0905 28.9388 11.415 29.2722 12.8006L29.3685 13.2006L27.1213 15.0883C27.1705 15.6945 27.1705 16.3037 27.1213 16.9099L29.3681 18.7962L29.2724 19.1959C28.9407 20.5821 28.3928 21.9074 27.6489 23.1232L27.434 23.4746L24.5087 23.2182C24.1146 23.6821 23.6836 24.1132 23.2197 24.5072L23.475 27.43L23.1243 27.6451C21.9094 28.39 20.5848 28.9393 19.1992 29.2727L18.7991 29.369L16.9116 27.1218C16.3054 27.1709 15.6962 27.1709 15.0899 27.1218L13.2037 29.3686L12.8039 29.2729C11.4178 28.9412 10.0924 28.3933 8.87659 27.6494L8.52523 27.4344L8.78164 24.5092C8.31774 24.1151 7.88662 23.684 7.49257 23.2201L4.56976 23.4755L4.35474 23.1248C3.60978 21.9099 3.06055 20.5853 2.72714 19.1997L2.63086 18.7996L4.87804 16.9121C4.82892 16.3058 4.82891 15.6966 4.87803 15.0904L2.63127 13.2042L2.72694 12.8044C3.05869 11.4182 3.60656 10.0929 4.35044 8.87708L4.56542 8.52572L7.49069 8.78212C7.88472 8.31823 8.31581 7.88711 8.77972 7.49306L8.52441 4.57024L8.87506 4.35523C10.09 3.61027 11.4145 3.06104 12.8001 2.72762L13.2002 2.63135ZM19.2808 4.12239L17.4735 6.27515L17.1188 6.23495C16.3744 6.15059 15.6229 6.15059 14.8786 6.23495L14.524 6.27513L12.716 4.1228C11.7403 4.39224 10.8017 4.78147 9.92161 5.2816L10.1662 8.08216L9.88667 8.30456C9.30023 8.77106 8.76865 9.30269 8.30212 9.88917L8.07965 10.1688L5.27754 9.92323C4.77831 10.8038 4.39014 11.743 4.1219 12.7191L6.27466 14.5264L6.23446 14.8811C6.15011 15.6254 6.15011 16.3769 6.23446 17.1213L6.27465 17.4759L4.12231 19.2838C4.39176 20.2595 4.78098 21.1982 5.28111 22.0783L8.08168 21.8336L8.30408 22.1132C8.77058 22.6996 9.3022 23.2312 9.88868 23.6977L10.1684 23.9202L9.92275 26.7223C10.8034 27.2215 11.7425 27.6097 12.7186 27.878L14.5259 25.7252L14.8806 25.7654C15.6249 25.8498 16.3765 25.8498 17.1208 25.7654L17.4754 25.7252L19.2833 27.8775C20.259 27.6081 21.1977 27.2188 22.0778 26.7187L21.8331 23.9181L22.1127 23.6957C22.6992 23.2292 23.2307 22.6976 23.6973 22.1112L23.9197 21.8315L26.7218 22.0771C27.2211 21.1965 27.6092 20.2574 27.8775 19.2813L25.7247 17.474L25.7649 17.1193C25.8493 16.3749 25.8493 15.6234 25.7649 14.879L25.7247 14.5245L27.8771 12.7165C27.6076 11.7408 27.2184 10.8022 26.7182 9.9221L23.9176 10.1667L23.6952 9.88715C23.2287 9.3007 22.6972 8.76912 22.1107 8.30261L21.831 8.08014L22.0766 5.27803C21.196 4.7788 20.2569 4.39062 19.2808 4.12239Z" fill="#000000" class="bmwfcol"/><path d="M15.9987 10.6642C13.0522 10.6642 10.6637 13.0527 10.6637 15.9992C10.6637 18.9456 13.0522 21.3342 15.9987 21.3342C18.9451 21.3342 21.3337 18.9456 21.3337 15.9992C21.3337 13.0527 18.9451 10.6642 15.9987 10.6642ZM9.33368 15.9992C9.33368 12.3182 12.3177 9.33417 15.9987 9.33417C19.6797 9.33417 22.6637 12.3182 22.6637 15.9992C22.6637 19.6801 19.6797 22.6642 15.9987 22.6642C12.3177 22.6642 9.33368 19.6801 9.33368 15.9992Z" fill="#000000" class="bmwfcol"/><title>settings_lt_48</title></svg>