<svg width="48" height="48" viewBox="0 0 32 32" xmlns="http://www.w3.org/2000/svg"><path d="M26.3945 12.335H21C17.2488 12.335 14.0712 13.5883 11.8297 15.8298C9.99853 17.661 8.82688 20.117 8.45931 23H9.80097C10.1582 20.4524 11.205 18.3354 12.7702 16.7702C14.7287 14.8117 17.5511 13.665 21 13.665H26.3946L20.0596 20H21.9405L28.9404 13L21.9404 6H20.0595L26.3945 12.335Z" fill="#000000" class="bmwfcol"/><path d="M24 27.665H6.99996C5.93153 27.665 5.02772 27.4646 4.37229 27.0124C3.68207 26.5361 3.33496 25.8258 3.33496 25V9.00002H4.66496V25C4.66496 25.4143 4.81785 25.7039 5.12763 25.9177C5.4722 26.1554 6.0684 26.335 6.99996 26.335H24V27.665Z" fill="#000000" class="bmwfcol"/><title>share_lt_48</title></svg>