<svg width="48" height="48" viewBox="0 0 32 32" xmlns="http://www.w3.org/2000/svg"><path d="M18.6297 4.62973C19.4712 3.78824 20.6488 3.33496 22 3.33496C23.3511 3.33496 24.5287 3.78824 25.3702 4.62973C26.2117 5.47123 26.665 6.64884 26.665 7.99996C26.665 10.5552 24.7881 12.665 22 12.665C20.6488 12.665 19.4712 12.2117 18.6297 11.3702C18.4757 11.2162 18.3347 11.0509 18.2071 10.8753L12.3766 14.2416C12.5666 14.7791 12.665 15.3707 12.665 16C12.665 16.6159 12.5559 17.2059 12.3513 17.7468L18.2055 21.1267C18.3336 20.9504 18.4751 20.7844 18.6297 20.6297C19.4712 19.7882 20.6488 19.335 22 19.335C23.3511 19.335 24.5287 19.7882 25.3702 20.6297C26.2117 21.4712 26.665 22.6488 26.665 24C26.665 26.5552 24.7881 28.665 22 28.665C20.6488 28.665 19.4712 28.2117 18.6297 27.3702C17.7882 26.5287 17.335 25.3511 17.335 24C17.335 23.3982 17.4249 22.8308 17.599 22.3122L11.7059 18.9099C10.8879 19.9765 9.59261 20.665 7.99996 20.665C6.64884 20.665 5.47123 20.2117 4.62973 19.3702C3.78824 18.5287 3.33496 17.3511 3.33496 16C3.33496 14.6488 3.78824 13.4712 4.62973 12.6297C5.47123 11.7882 6.64884 11.335 7.99996 11.335C9.35108 11.335 10.5287 11.7882 11.3702 12.6297C11.5074 12.7669 11.6342 12.913 11.7505 13.0673L17.5998 9.69019C17.4252 9.17094 17.335 8.60272 17.335 7.99996C17.335 6.64884 17.7882 5.47123 18.6297 4.62973ZM19.5702 5.57019C19.0117 6.12869 18.665 6.95108 18.665 7.99996C18.665 9.04884 19.0117 9.87123 19.5702 10.4297C20.1287 10.9882 20.9511 11.335 22 11.335C24.0119 11.335 25.335 9.86301 25.335 7.99996C25.335 6.95108 24.9882 6.12869 24.4297 5.57019C23.8712 5.01169 23.0488 4.66496 22 4.66496C20.9511 4.66496 20.1287 5.01169 19.5702 5.57019ZM5.57019 13.5702C5.01169 14.1287 4.66496 14.9511 4.66496 16C4.66496 17.0488 5.01169 17.8712 5.57019 18.4297C6.12869 18.9882 6.95108 19.335 7.99996 19.335C10.0119 19.335 11.335 17.863 11.335 16C11.335 14.9511 10.9882 14.1287 10.4297 13.5702C9.87123 13.0117 9.04884 12.665 7.99996 12.665C6.95108 12.665 6.12869 13.0117 5.57019 13.5702ZM18.665 24C18.665 25.0488 19.0117 25.8712 19.5702 26.4297C20.1287 26.9882 20.9511 27.335 22 27.335C24.0119 27.335 25.335 25.863 25.335 24C25.335 22.9511 24.9882 22.1287 24.4297 21.5702C23.8712 21.0117 23.0488 20.665 22 20.665C20.9511 20.665 20.1287 21.0117 19.5702 21.5702C19.0117 22.1287 18.665 22.9511 18.665 24Z" fill="#000000" class="bmwfcol"/><title>share-social_lt_48</title></svg>