<svg width="48" height="48" viewBox="0 0 32 32" xmlns="http://www.w3.org/2000/svg"><path d="M16.0001 3.11523L11 8.11533V9.8831L15.335 5.54813L15.335 20H16.665L16.665 5.54787L21 9.88291V8.11514L16.0001 3.11523Z" fill="#000000" class="bmwfcol"/><path d="M11 12.335H13.498V13.665H11C9.95032 13.665 9.4282 13.8622 9.14519 14.1452C8.86218 14.4282 8.66496 14.9503 8.66496 16V24C8.66496 25.0496 8.86218 25.5717 9.14519 25.8547C9.4282 26.1377 9.95032 26.335 11 26.335H21C22.0496 26.335 22.5717 26.1377 22.8547 25.8547C23.1377 25.5717 23.335 25.0496 23.335 24L23.335 16C23.335 14.9503 23.1377 14.4282 22.8547 14.1452C22.5717 13.8622 22.0496 13.665 21 13.665H18.498V12.335H21C22.1503 12.335 23.1282 12.5377 23.7952 13.2047C24.4622 13.8717 24.665 14.8496 24.665 16L24.665 24C24.665 25.1503 24.4622 26.1282 23.7952 26.7952C23.1282 27.4622 22.1503 27.665 21 27.665H11C9.8496 27.665 8.87172 27.4622 8.20473 26.7952C7.53774 26.1282 7.33496 25.1503 7.33496 24V16C7.33496 14.8496 7.53774 13.8717 8.20473 13.2047C8.87172 12.5377 9.8496 12.335 11 12.335Z" fill="#000000" class="bmwfcol"/><title>share_ios_lt_48</title></svg>