<svg width="48" height="48" viewBox="0 0 32 32" xmlns="http://www.w3.org/2000/svg"><path d="M8.75341 16.924C8.68933 16.9169 8.61876 16.9066 8.53765 16.8917C8.30497 16.8488 7.97937 16.7671 7.4277 16.6193L6.93479 16.4872L6.93496 13.141L7.29851 12.9311C8.02005 12.5144 8.46971 12.2548 9.2448 12.0825C9.94771 11.9263 10.9357 11.8379 12.7343 11.6806C13.7295 10.8568 14.4492 10.3736 15.2049 10.1196C15.9782 9.85962 16.7407 9.85974 17.7261 9.8599L17.7998 9.85991C18.8942 9.85991 19.7201 10.0139 20.5394 10.3317C21.2842 10.6207 22.0134 11.0431 22.8996 11.5565L22.9445 11.5825L24.4648 11.7155L24.4648 12.9249C24.4648 13.0688 24.4685 13.1061 24.4923 13.1654C24.5214 13.2383 24.6048 13.3895 24.87 13.6547L25.0648 13.8494L25.065 16.0588L24.7324 16.2508C24.2157 16.5492 23.8454 16.7429 23.4624 16.8432C23.1577 16.923 22.8658 16.9371 22.5387 16.9395C22.184 17.6512 21.449 18.1401 20.5998 18.1401C19.7508 18.1401 19.0159 17.6514 18.6611 16.9399H12.6386C12.2838 17.6514 11.5489 18.1401 10.6999 18.1401C9.84458 18.1401 9.1051 17.6441 8.75341 16.924ZM9.86491 15.9751C9.86491 16.4363 10.2388 16.8101 10.6999 16.8101C11.1611 16.8101 11.5349 16.4363 11.5349 15.9751C11.5349 15.5139 11.1611 15.1401 10.6999 15.1401C10.2388 15.1401 9.86491 15.5139 9.86491 15.9751ZM8.57838 15.5413C8.77928 14.5535 9.65278 13.8101 10.6999 13.8101C11.7711 13.8101 12.6607 14.5881 12.8342 15.6099H18.4655C18.6391 14.5881 19.5286 13.8101 20.5998 13.8101C21.6694 13.8101 22.5578 14.5857 22.7333 15.6051C22.9055 15.5991 23.0143 15.5857 23.1254 15.5566C23.2691 15.519 23.4357 15.4489 23.7349 15.2862L23.7348 14.3894C23.5084 14.1352 23.353 13.8984 23.2574 13.6594C23.1346 13.3523 23.1347 13.0953 23.1348 12.9379L23.1348 12.9342L22.5341 12.8817L22.2788 12.734C21.3469 12.1944 20.7035 11.822 20.0584 11.5717C19.4109 11.3205 18.7506 11.1899 17.7998 11.1899C16.721 11.1899 16.1749 11.1966 15.6287 11.3802C15.0862 11.5626 14.4923 11.9407 13.4274 12.8343L13.2668 12.9691L13.0579 12.9874C11.0748 13.1607 10.154 13.2429 9.53336 13.3808C9.0616 13.4857 8.78048 13.6178 8.26492 13.91L8.26484 15.4643C8.39147 15.4966 8.49376 15.5218 8.57838 15.5413ZM20.5998 15.1401C20.1387 15.1401 19.7648 15.5139 19.7648 15.9751C19.7648 16.4363 20.1387 16.8101 20.5998 16.8101C21.061 16.8101 21.4348 16.4363 21.4348 15.9751C21.4348 15.5139 21.061 15.1401 20.5998 15.1401Z" fill="#000000" class="bmwfcol"/><path d="M16 3.36426L4.33496 6.48989V14.0002C4.33496 16.8774 4.85265 19.5351 6.50313 22.1103C8.14463 24.6714 10.8688 27.0917 15.1718 29.5761L15.3261 29.6652H16.6738L16.8281 29.5761C21.1311 27.0917 23.8553 24.6714 25.4968 22.1103C27.1473 19.5351 27.665 16.8774 27.665 14.0002V6.48989L16 3.36426ZM5.66496 14.0002V7.51043L16 4.74118L26.335 7.51043V14.0002C26.335 16.703 25.8527 19.0902 24.377 21.3926C22.9106 23.6805 20.4262 25.9425 16.3168 28.3352H15.6832C11.5737 25.9425 9.08928 23.6805 7.62288 21.3926C6.14727 19.0902 5.66496 16.703 5.66496 14.0002Z" fill="#000000" class="bmwfcol"/><title>shield_with_car_lt_48</title></svg>