<svg width="48" height="48" viewBox="0 0 32 32" xmlns="http://www.w3.org/2000/svg"><path d="M12.4404 11.0068H13.8071V18.9996H12.4404V11.0068Z" fill="#000000" class="bmwfcol"/><path d="M18.4243 11.0068H15.2234V18.9996H16.5902V16.1599C17.4284 16.1597 18.2113 16.1577 18.6299 16.1292C19.3539 16.0774 19.9607 15.9093 20.4047 15.42C20.8759 14.904 21.021 14.2206 21.021 13.5028C21.021 12.8082 20.8222 12.1034 20.3783 11.6595C19.9143 11.1955 19.3203 11.0068 18.4243 11.0068ZM16.5902 14.8233V12.3433H18.3337C18.8694 12.3433 19.1447 12.3989 19.3332 12.5798C19.5201 12.7589 19.6341 13.0783 19.6341 13.5028C19.6341 13.9352 19.5733 14.2308 19.4138 14.4382L19.4129 14.4393C19.2478 14.657 18.9864 14.7439 18.4991 14.7837C18.0368 14.82 17.3288 14.8231 16.5902 14.8233Z" fill="#000000" class="bmwfcol"/><path d="M27.665 6.48989L16 3.36426L4.33496 6.48989V14.0002C4.33496 16.8774 4.85266 19.5351 6.50313 22.1103C8.14463 24.6714 10.8688 27.0917 15.1718 29.5761L15.3261 29.6652H16.6738L16.8281 29.5761C21.1311 27.0917 23.8553 24.6714 25.4968 22.1103C27.1473 19.5351 27.665 16.8774 27.665 14.0002V6.48989ZM5.66496 14.0002V7.51043L16 4.74118L26.335 7.51043V14.0002C26.335 16.703 25.8527 19.0902 24.377 21.3926C22.9106 23.6805 20.4262 25.9425 16.3168 28.3352H15.6832C11.5737 25.9425 9.08928 23.6805 7.62288 21.3926C6.14727 19.0902 5.66496 16.703 5.66496 14.0002Z" fill="#000000" class="bmwfcol"/><title>shield_with_ip_lt_48</title></svg>