<svg width="48" height="48" viewBox="0 0 32 32" xmlns="http://www.w3.org/2000/svg"><path d="M16 2.31152L8.83496 4.23139V8.87806C8.83496 10.6139 9.14811 12.2397 10.1592 13.8172C10.6045 14.5121 11.1778 15.1859 11.9024 15.8501L14.3297 16.5005L14.949 16.5005C13.1346 15.3266 11.9909 14.2104 11.2789 13.0995C10.4427 11.7949 10.165 10.4395 10.165 8.87806V5.25193L16 3.68844L21.835 5.25193V8.87806C21.835 10.4395 21.5572 11.7949 20.721 13.0995C20.0091 14.2104 18.8653 15.3266 17.0509 16.5005L19.0003 16.5005C19.1058 16.5005 19.212 16.5049 19.3184 16.514C20.4241 15.6345 21.2464 14.7446 21.8408 13.8172C22.8518 12.2397 23.165 10.6139 23.165 8.87806V4.23139L16 2.31152Z" fill="#000000" class="bmwfcol"/><path d="M13.7586 5.96973H12.5781V12.4997H13.7586V5.96973Z" fill="#000000" class="bmwfcol"/><path d="M19.8653 6.50797C19.4808 6.12348 18.9896 5.96973 18.2604 5.96973H15.6377V12.4997H16.8182V10.2071C17.4799 10.2069 18.0961 10.2049 18.4292 10.1822C19.0174 10.1402 19.5194 10.0031 19.8878 9.59723C20.2775 9.17042 20.3954 8.60727 20.3954 8.02337C20.3954 7.45683 20.2335 6.87621 19.8653 6.50797ZM16.8182 7.12582H18.1873C18.6201 7.12582 18.8276 7.17162 18.9676 7.30598C19.1079 7.44047 19.1986 7.68615 19.1986 8.02337C19.1986 8.37038 19.1494 8.59815 19.0287 8.75507L19.0279 8.75614C18.9054 8.91764 18.7099 8.98706 18.3177 9.01911C17.9542 9.0476 17.4007 9.05063 16.8182 9.05096V7.12582Z" fill="#000000" class="bmwfcol"/><path d="M29.4704 16.5302C29.1821 16.2419 28.7919 15.9211 28.2502 15.7171C27.7038 15.5113 27.0498 15.4415 26.2581 15.583C24.8326 15.8377 22.9341 16.7821 20.2868 18.905C20.2579 18.8707 20.2275 18.8373 20.1953 18.8052C19.8787 18.4887 19.4511 18.3355 19 18.3355L14.0878 18.3355L10.3558 17.3355L10.2055 17.3355C9.6195 17.335 9.13111 17.3347 8.56144 17.6833C8.29789 17.8445 8.03096 18.0698 7.72213 18.3583C7.41277 18.6473 7.03122 19.0288 6.53908 19.521L2.05957 24.0005L7.72457 29.6655H9.27547L11.2755 27.6655H15.0196C16.003 27.6655 16.7675 27.6655 17.3788 27.6333C17.996 27.6008 18.5023 27.534 18.9604 27.3814C19.8611 27.0812 20.4671 26.4748 21.3805 25.5608L29.9408 17.0004L29.4704 16.5302ZM19.255 19.7458C19.2885 19.7793 19.3352 19.8517 19.3352 20.0003L19.3351 20.7216C18.4746 21.5513 17.8598 21.9296 17.2898 22.1196C16.6607 22.3293 16.0238 22.3355 15.0003 22.3355H11V23.6655L15.0598 23.6655C16.0119 23.6656 16.8574 23.6657 17.7105 23.3814C18.5983 23.0854 19.4344 22.5066 20.4702 21.4707L20.665 21.276L20.6652 20.3121C23.5039 17.9652 25.3248 17.1008 26.4921 16.8922C27.0753 16.788 27.4838 16.8496 27.7813 16.9617C27.858 16.9906 27.9304 17.024 27.9991 17.0612L20.53 24.5303C19.4944 25.5659 19.11 25.9296 18.5399 26.1196C18.2479 26.2169 17.8792 26.2751 17.3089 26.3052C16.7367 26.3353 16.0071 26.3355 15 26.3355H10.7246L8.72457 28.3355H8.27547L3.94047 24.0005L7.47025 20.4707C7.97361 19.9673 8.33922 19.6019 8.63005 19.3302C8.92335 19.0562 9.11069 18.9064 9.25566 18.8177C9.47236 18.6851 9.60188 18.667 10.1811 18.6656L13.9127 19.6655L19 19.6655C19.1489 19.6655 19.2214 19.7122 19.255 19.7458Z" fill="#000000" class="bmwfcol"/><title>shield_with_ip_on_hand_lt_48</title></svg>