<svg width="48" height="48" viewBox="0 0 32 32" xmlns="http://www.w3.org/2000/svg"><path d="M5.99898 2.83496C5.09786 2.83496 4.29526 3.13824 3.71626 3.71723C3.13726 4.29623 2.83398 5.09884 2.83398 5.99996C2.83398 6.90108 3.13726 7.70369 3.71626 8.28269C4.29526 8.86169 5.09786 9.16496 5.99898 9.16496C6.11405 9.16496 6.22684 9.15962 6.33721 9.1492C6.33949 9.38047 6.34339 9.58761 6.35003 9.7737C6.36608 10.2229 6.39898 10.5918 6.47884 10.9112C6.64892 11.5916 7.01933 11.9614 7.47907 12.4205L8.67761 13.619L12.3111 7.32562L11.8726 6.9679C11.4669 6.63691 11.0699 6.47384 10.4669 6.40026C10.1266 6.35874 9.70022 6.34361 9.14746 6.3381C9.15841 6.22687 9.16398 6.11405 9.16398 5.99996C9.16398 5.09884 8.86071 4.29623 8.28171 3.71723C7.70271 3.13824 6.9001 2.83496 5.99898 2.83496ZM4.16398 5.99996C4.16398 5.40108 4.36071 4.95369 4.65671 4.65769C4.95271 4.36169 5.4001 4.16496 5.99898 4.16496C6.59786 4.16496 7.04526 4.36169 7.34126 4.65769C7.63726 4.95369 7.83398 5.40108 7.83398 5.99996C7.83398 7.03459 7.11088 7.83496 5.99898 7.83496C5.4001 7.83496 4.95271 7.63824 4.65671 7.34224C4.36071 7.04623 4.16398 6.59884 4.16398 5.99996ZM8.71858 7.66571C9.48052 7.66812 9.95963 7.67823 10.3058 7.72047C10.3896 7.73069 10.4624 7.74239 10.5269 7.75598L8.39251 11.4529C7.94076 10.9987 7.83916 10.8688 7.76913 10.5887C7.72399 10.4081 7.69439 10.152 7.67919 9.72623C7.66941 9.45238 7.66592 9.12583 7.66467 8.7246C8.10468 8.46326 8.46281 8.09851 8.71858 7.66571Z" fill="#000000" class="bmwfcol"/><path d="M20.321 15.3818L16.6875 21.6753L17.1261 22.033C17.5318 22.3639 17.9289 22.5268 18.5318 22.6004C19.0672 22.6657 19.8157 22.6656 20.9344 22.6656H21.2748L21.4998 22.4407L23.3335 24.2744C23.0376 24.7701 22.8848 25.3602 22.8848 26C22.8848 26.9011 23.188 27.7037 23.767 28.2827C24.346 28.8617 25.1486 29.165 26.0498 29.165C27.9379 29.165 29.2148 27.7268 29.2148 26C29.2148 25.0988 28.9115 24.2962 28.3325 23.7172C27.7535 23.1382 26.9509 22.835 26.0498 22.835C25.383 22.835 24.7701 23.001 24.2619 23.322L22.4402 21.5002L22.6644 21.2761V20.9869C22.6644 20.2485 22.6644 19.6763 22.6483 19.2269C22.6323 18.7777 22.5994 18.4088 22.5195 18.0893C22.3494 17.409 21.979 17.0391 21.5193 16.58L20.321 15.3818ZM18.4719 21.2447L20.6061 17.548C21.0576 18.0019 21.1592 18.1318 21.2292 18.4119C21.2744 18.5925 21.304 18.8485 21.3192 19.2744C21.3324 19.644 21.3341 20.1096 21.3343 20.7252L20.724 21.3356C19.6965 21.3351 19.1018 21.33 18.6928 21.2801C18.6091 21.2699 18.5363 21.2583 18.4719 21.2447ZM24.7075 24.6577C25.0035 24.3617 25.4509 24.165 26.0498 24.165C26.6486 24.165 27.096 24.3617 27.392 24.6577C27.688 24.9537 27.8848 25.4011 27.8848 26C27.8848 27.0346 27.1617 27.835 26.0498 27.835C25.4509 27.835 25.0035 27.6382 24.7075 27.3422C24.4115 27.0462 24.2148 26.5988 24.2148 26C24.2148 25.4011 24.4115 24.9537 24.7075 24.6577Z" fill="#000000" class="bmwfcol"/><path d="M13.6956 8.28052L14.6692 9.25415L10.7041 16.1219L9.73047 15.1483L13.6956 8.28052Z" fill="#000000" class="bmwfcol"/><path d="M12.1075 17.5253L13.0812 18.499L17.0463 11.6312L16.0726 10.6576L12.1075 17.5253Z" fill="#000000" class="bmwfcol"/><path d="M15.3012 20.719L14.3276 19.7454L18.2927 12.8776L19.2663 13.8512L15.3012 20.719Z" fill="#000000" class="bmwfcol"/><title>shock-absorber_lt_48</title></svg>