<svg width="48" height="48" viewBox="0 0 32 32" xmlns="http://www.w3.org/2000/svg"><path d="M2 4.69332V3.36035C3.41117 3.44019 4.40415 3.72129 5.11066 4.39288C5.53788 4.79898 5.8145 5.30505 6.03293 5.86909C6.24838 6.42542 6.42546 7.08944 6.62255 7.82852C6.64681 7.9195 6.69329 8.09334 6.75794 8.33496H28.8657L28.6414 9.17205C27.9738 11.6641 27.4473 13.5722 26.9072 15.0144C26.3678 16.4547 25.786 17.5141 24.9611 18.2471C24.1206 18.9939 23.1019 19.3376 21.8303 19.5031C20.5874 19.665 19.0237 19.665 17.0472 19.665H9.7937C9.95138 20.2531 10.0626 20.6678 10.1054 20.8275C10.3735 21.8262 10.5744 22.0469 10.7906 22.154C10.9295 22.2228 11.1429 22.2767 11.5191 22.3056C11.8948 22.3344 12.3655 22.3349 13 22.3349H23.4993C25.2473 22.3349 26.665 23.752 26.665 25.5C26.665 27.2479 25.2479 28.665 23.5 28.665C21.752 28.665 20.335 27.2479 20.335 25.5C20.335 24.8159 20.552 24.1825 20.921 23.6649H13.079C13.4479 24.1825 13.665 24.8159 13.665 25.5C13.665 27.2479 12.2479 28.665 10.5 28.665C8.75198 28.665 7.33496 27.2479 7.33496 25.5C7.33496 24.1572 8.1711 23.0098 9.35112 22.5499C9.11871 22.1689 8.96298 21.7016 8.82089 21.1723C8.55249 20.1723 5.60428 9.17182 5.33745 8.17122C5.1346 7.41052 4.97656 6.82419 4.79269 6.3494C4.61176 5.88219 4.42462 5.57576 4.19434 5.35686C3.82923 5.0098 3.23736 4.77199 2 4.69332ZM9.43719 18.335H17C19.0339 18.335 20.5114 18.3337 21.6585 18.1843C22.7867 18.0374 23.5114 17.756 24.0776 17.2529C24.6595 16.7359 25.1477 15.9202 25.6616 14.548C26.116 13.3349 26.5678 11.7522 27.1316 9.66496H7.11404C7.72641 11.9514 8.75531 15.7909 9.43719 18.335ZM8.66496 25.5C8.66496 26.5134 9.48652 27.335 10.5 27.335C11.5134 27.335 12.335 26.5134 12.335 25.5C12.335 24.4865 11.5134 23.665 10.5 23.665C9.48652 23.665 8.66496 24.4865 8.66496 25.5ZM21.665 25.5C21.665 26.5134 22.4865 27.335 23.5 27.335C24.5134 27.335 25.335 26.5134 25.335 25.5C25.335 24.4865 24.5134 23.665 23.5 23.665C22.4865 23.665 21.665 24.4865 21.665 25.5Z" fill="#000000" class="bmwfcol"/><title>shopping-cart_lt_48</title></svg>