<svg width="48" height="48" viewBox="0 0 32 32" xmlns="http://www.w3.org/2000/svg"><path d="M12.884 17.3043C13.5907 18.0312 14.6272 18.335 16.0009 18.335C17.3747 18.335 18.4112 18.0312 19.1179 17.3043C19.8307 16.5711 20.3359 15.2765 20.3359 13H21.6659C21.6659 15.4378 21.1295 17.1431 20.0715 18.2314C19.0073 19.326 17.5439 19.665 16.0009 19.665C14.458 19.665 12.9946 19.326 11.9304 18.2314C10.8723 17.1431 10.3359 15.4378 10.3359 13H11.6659C11.6659 15.2765 12.1712 16.5711 12.884 17.3043Z" fill="#000000" class="bmwfcol"/><path d="M10.3359 9.33496V8.99996C10.3359 6.56219 10.8723 4.85682 11.9304 3.76855C12.9946 2.67397 14.458 2.33496 16.0009 2.33496C17.5439 2.33496 19.0073 2.67397 20.0715 3.76855C21.1295 4.85682 21.6659 6.56219 21.6659 8.99996V9.33496H26.2111L27.6666 25.971L27.666 27.665H4.33646L4.33594 25.971L5.7914 9.33496H10.3359ZM11.6659 8.99996V9.33496H20.3359V8.99996C20.3359 6.72344 19.8307 5.42882 19.1179 4.69566C18.4112 3.96881 17.3747 3.66496 16.0009 3.66496C14.6272 3.66496 13.5907 3.96881 12.884 4.69566C12.1712 5.42882 11.6659 6.72344 11.6659 8.99996ZM7.01012 10.665L5.66596 26.0289L5.66605 26.335H26.3365L26.3365 26.0289L24.9924 10.665H7.01012Z" fill="#000000" class="bmwfcol"/><title>shopping-bag_lt_48</title></svg>