<svg width="48" height="48" viewBox="0 0 32 32" xmlns="http://www.w3.org/2000/svg"><path d="M12.8831 4.69566C12.1703 5.42882 11.665 6.72344 11.665 8.99996C11.665 11.2765 12.1703 12.5711 12.8831 13.3043C13.5897 14.0311 14.6263 14.335 16 14.335C17.3737 14.335 18.4103 14.0311 19.1169 13.3043C19.8297 12.5711 20.335 11.2765 20.335 8.99996C20.335 6.72344 19.8297 5.42882 19.1169 4.69566C18.4103 3.96881 17.3737 3.66496 16 3.66496C14.6263 3.66496 13.5897 3.96881 12.8831 4.69566ZM11.9294 3.76855C12.9936 2.67397 14.4571 2.33496 16 2.33496C17.5429 2.33496 19.0064 2.67397 20.0706 3.76855C21.1286 4.85682 21.665 6.56219 21.665 8.99996C21.665 11.4377 21.1286 13.1431 20.0706 14.2314C19.0064 15.326 17.5429 15.665 16 15.665C14.4571 15.665 12.9936 15.326 11.9294 14.2314C10.8714 13.1431 10.335 11.4377 10.335 8.99996C10.335 6.56219 10.8714 4.85682 11.9294 3.76855Z" fill="#000000" class="bmwfcol"/><path d="M6.99996 27.8349C6.35655 27.8349 5.83496 28.3565 5.83496 28.9999C5.83496 29.6433 6.35655 30.1649 6.99996 30.1649C7.64337 30.1649 8.16496 29.6433 8.16496 28.9999C8.16496 28.3565 7.64337 27.8349 6.99996 27.8349Z" fill="#000000" class="bmwfcol"/><path d="M14 27.8349C13.3565 27.8349 12.835 28.3565 12.835 28.9999C12.835 29.6433 13.3565 30.1649 14 30.1649C14.6434 30.1649 15.165 29.6433 15.165 28.9999C15.165 28.3565 14.6434 27.8349 14 27.8349Z" fill="#000000" class="bmwfcol"/><path d="M28.5608 25.9999H27.184L26.9625 25.1717C26.1616 22.1777 25.4472 20.9662 24.1113 20.3545C23.4022 20.0299 22.4635 19.8491 21.1278 19.7571C20.6616 19.7249 20.1552 19.704 19.6026 19.6904L19.9564 18.3697C20.4047 18.3836 20.825 18.403 21.2192 18.4302C22.6056 18.5257 23.7359 18.7199 24.6649 19.1452C26.6053 20.0336 27.4433 21.8221 28.2473 24.828L28.5608 25.9999Z" fill="#000000" class="bmwfcol"/><path d="M2.5 16.731V15.394C3.432 15.48 4.09997 15.6646 4.5831 15.9789C5.32811 16.4636 5.52118 17.1868 5.67433 17.7605L5.82843 18.3349H17.5468L17.3221 19.1723C16.9224 20.6622 16.6079 21.8203 16.284 22.6987C15.9609 23.5752 15.5984 24.2622 15.053 24.747C14.4922 25.2455 13.8154 25.4632 13.0109 25.5658C12.2339 25.665 11.2569 25.665 10.0453 25.6649H6.41849L4.40777 18.1725C4.23239 17.5196 4.14545 17.2808 3.85779 17.0937C3.62926 16.945 3.23279 16.8084 2.5 16.731ZM7.43862 24.3349H10C11.2674 24.3349 12.1595 24.3337 12.8426 24.2465C13.5077 24.1617 13.8866 24.0044 14.1694 23.7529C14.4678 23.4877 14.7371 23.0497 15.0361 22.2387C15.2762 21.5875 15.5161 20.7531 15.8118 19.6649H6.18536L7.43862 24.3349Z" fill="#000000" class="bmwfcol"/><title>shopping-cart-user_lt_48</title></svg>