<svg width="48" height="48" viewBox="0 0 32 32" xmlns="http://www.w3.org/2000/svg"><path d="M2.33594 8.09316V6.33502H7.98172C10.4106 6.33502 12.7279 7.35443 14.3692 9.14487L15.2229 10.0762L14.6337 11.4018L13.3888 10.0436C11.9994 8.52796 10.0378 7.66502 7.98172 7.66502H3.66594V7.90689L5.59301 14.6516L10.1659 19.2246V20.665H5.75094C4.14103 20.665 2.83594 19.3599 2.83594 17.75C2.83594 17.1193 3.04051 16.5056 3.41894 16.001L4.27081 14.8652L2.33594 8.09316ZM5.07289 16.0124L4.48294 16.799C4.27717 17.0734 4.16594 17.4071 4.16594 17.75C4.16594 18.6254 4.87557 19.335 5.75094 19.335H8.39549L5.07289 16.0124Z" fill="#000000" class="bmwfcol"/><path d="M23.6659 10.335H16.5688L15.5999 12.515C14.7665 14.3901 14.3359 16.4191 14.3359 18.471V20.665H28.6659V14.335H23.6659V10.335ZM16.8153 13.0552L17.4331 11.665H19.3359V15.6525C19.2232 15.7151 19.06 15.7936 18.8362 15.875C18.2754 16.0789 17.3294 16.3021 15.8387 16.3317C16.0218 15.205 16.3493 14.1036 16.8153 13.0552ZM20.6659 16.2755V11.665H22.3359V15.665H27.3359V19.335H15.6659C15.6659 18.778 15.6566 18.2204 15.6904 17.664C17.398 17.6467 18.5449 17.3962 19.2907 17.125C19.8209 16.9321 20.2677 16.6737 20.6659 16.2755Z" fill="#000000" class="bmwfcol"/><path d="M12.0009 22.335C10.5291 22.335 9.33594 23.5282 9.33594 25C9.33594 26.4719 10.5291 27.665 12.0009 27.665H25.0009C26.4728 27.665 27.6659 26.4719 27.6659 25C27.6659 23.5282 26.4728 22.335 25.0009 22.335H12.0009ZM10.6659 25C10.6659 24.2627 11.2636 23.665 12.0009 23.665H25.0009C25.7382 23.665 26.3359 24.2627 26.3359 25C26.3359 25.7373 25.7382 26.335 25.0009 26.335H12.0009C11.2636 26.335 10.6659 25.7373 10.6659 25Z" fill="#000000" class="bmwfcol"/><title>shovel_excavator_lt_48</title></svg>