<svg width="48" height="48" viewBox="0 0 32 32" xmlns="http://www.w3.org/2000/svg"><path d="M27.1485 9.665L23.8135 13H25.6944L29.6944 9.00002L25.6944 5H23.8135L27.1485 8.335L22.6904 8.33498C21.9362 8.33461 21.2359 8.33426 20.4836 8.81446C19.7696 9.27019 19.0519 10.1291 18.0098 11.6177L16.8432 13.2711L17.6539 14.429L19.0987 12.3814C20.1562 10.8706 20.7383 10.2297 21.1992 9.93555C21.6008 9.6792 21.9324 9.665 22.7539 9.665H27.1485Z" fill="#000000" class="bmwfcol"/><path d="M8.75387 9.66501C9.5767 9.66501 9.90586 9.67963 10.3006 9.934C10.7544 10.2264 11.3255 10.8649 12.3608 12.3759L18.0098 20.3824C19.0519 21.8709 19.7696 22.7298 20.4836 23.1856C21.2359 23.6658 21.9362 23.6654 22.6904 23.665H27.1485L23.8135 27H25.6944L29.6944 23L25.6944 19H23.8135L27.1485 22.335H22.7539C21.9324 22.335 21.6008 22.3208 21.1992 22.0645C20.7383 21.7703 20.1562 21.1294 19.0987 19.6187L13.4555 11.6204C12.4366 10.1337 11.7306 9.27321 11.021 8.81601C10.2734 8.33422 9.57131 8.33459 8.81881 8.33498L2.75391 8.33501L2.75449 9.66501H8.75387Z" fill="#000000" class="bmwfcol"/><path d="M12.3608 19.6241L13.8318 17.5393L14.6425 18.6972L13.4555 20.3797C12.4366 21.8663 11.7306 22.7268 11.021 23.184C10.2734 23.6658 9.57131 23.6654 8.81881 23.665H2.75391L2.75449 22.335H8.75387C9.5767 22.335 9.90586 22.3204 10.3006 22.066C10.7544 21.7736 11.3255 21.1352 12.3608 19.6241Z" fill="#000000" class="bmwfcol"/><title>shuffle_lt_48</title></svg>