<svg width="48" height="48" viewBox="0 0 32 32" xmlns="http://www.w3.org/2000/svg"><path d="M5.85396 15.4H4.50138C4.33476 16.3778 4.33483 17.4841 4.33493 18.8984V19.1014C4.3348 21.0098 4.33471 22.3572 4.74407 23.5852C5.17023 24.8637 6.01421 25.9546 7.5297 27.4701L7.72448 27.6649H23.6649V20.6649H24.862L28.3261 22.6649H29.665V11.3349L28.3261 11.3349L24.862 13.3349H23.6649V10.3349H17.4V11.6649H22.3349V26.3349H8.2769C6.92796 24.9642 6.31525 24.0929 6.00581 23.1646C5.67238 22.1643 5.66493 21.0376 5.66493 18.9999C5.66493 17.3339 5.66991 16.2768 5.85396 15.4ZM23.6649 19.3349V14.6649H25.2184L28.335 12.8656V21.1343L25.2184 19.3349H23.6649Z" fill="#000000" class="bmwfcol"/><path d="M3.66496 6.56746V13.1581C5.28969 12.6177 7.07957 12.335 8.99996 12.335C10.9204 12.335 12.7102 12.6177 14.335 13.1581V6.56746C12.7502 5.98113 10.9607 5.66496 8.99996 5.66496C7.03927 5.66496 5.24971 5.98113 3.66496 6.56746ZM2.74817 5.49736C4.60749 4.73672 6.71101 4.33496 8.99996 4.33496C11.2889 4.33496 13.3924 4.73672 15.2518 5.49736L15.665 5.6664V14.665H14.5919L14.477 14.6209C12.8575 14.0004 11.0195 13.665 8.99996 13.665C6.9804 13.665 5.14242 14.0004 3.52293 14.6209L3.40803 14.665H2.33496V5.6664L2.74817 5.49736Z" fill="#000000" class="bmwfcol"/><title>side-view_lt_48</title></svg>