<svg width="48" height="48" viewBox="0 0 32 32" xmlns="http://www.w3.org/2000/svg"><path d="M2.33594 4.835V15.5C2.33594 17.6011 3.03917 19.4038 4.31817 20.6827C5.59717 21.9617 7.39978 22.665 9.5009 22.665C11.602 22.665 13.4046 21.9617 14.6836 20.6827L15.336 20.0304V20.165H15.5421C15.2149 20.6109 15.0039 21.152 14.8502 21.7255L14.6781 22.3678L19.6103 23.6894C19.9897 23.7911 20.3796 23.806 20.754 23.7413C20.2566 25.297 20.1245 26.5117 20.3729 27.4626C20.6773 28.6277 21.5083 29.2562 22.5004 29.6173L23.1253 29.8447L25.4406 23.4833C25.565 24.4945 25.8063 25.282 26.1976 25.8689C26.8699 26.8773 27.8844 27.165 29.0009 27.165H29.6659L29.666 16.5C29.666 14.3989 28.9627 12.5962 27.6837 11.3173C26.4047 10.0383 24.6021 9.33498 22.501 9.33498C20.3999 9.33498 18.5972 10.0383 17.3183 11.3173L16.6659 11.9696V11.835H16.4598C16.787 11.3891 16.998 10.848 17.1516 10.2745L17.3237 9.63217L12.3916 8.3106C12.0122 8.20894 11.6223 8.19397 11.2479 8.25872C11.7453 6.70296 11.8773 5.48828 11.629 4.53743C11.3246 3.37231 10.4935 2.74379 9.50149 2.38272L8.87659 2.15527L6.56124 8.51666C6.43689 7.50555 6.19553 6.71805 5.80425 6.13112C5.13197 5.1227 4.11752 4.835 3.00094 4.835H2.33594ZM6.34479 13L6.62633 12.2265L9.6489 3.92204C10.0124 4.15749 10.2341 4.46005 10.3421 4.87357C10.5205 5.55624 10.4263 6.66814 9.75938 8.50055L9.44019 9.37752L7.81771 11H9.69861L10.7578 9.9408C11.0951 9.60355 11.5866 9.47183 12.0473 9.59528L15.6557 10.5621C15.4532 11.0408 15.2072 11.3149 14.8966 11.4673C14.4335 11.6944 13.6357 11.7497 12.173 11.3578L11.8022 11.2584L9.25911 13.8013L9.38702 14.2786C9.73075 15.5615 9.91382 16.2448 10.0432 16.6333C10.1106 16.8359 10.1774 17.0031 10.2664 17.1485C10.3574 17.2973 10.4561 17.3958 10.5216 17.4611L10.8022 17.7417L13.9522 16.8976L14.0515 16.5268C14.4602 15.0017 14.8333 14.1375 15.1779 13.6625C15.233 13.5865 15.2858 13.5229 15.3359 13.4695L15.3359 18.1496L13.7432 19.7423C12.7472 20.7383 11.2998 21.335 9.5009 21.335C7.70202 21.335 6.25463 20.7383 5.25862 19.7423C4.26262 18.7463 3.66594 17.2989 3.66594 15.5V6.21848C4.14876 6.309 4.46348 6.51766 4.69762 6.86888C5.08003 7.44248 5.33594 8.51637 5.33594 10.5V11.8831L4.92944 13H6.34479ZM28.336 16.5L28.3359 25.7815C27.8531 25.691 27.5384 25.4823 27.3043 25.1311C26.9218 24.5575 26.6659 23.4836 26.6659 21.5V20.1168L27.0724 19H25.6571L25.3755 19.7735L22.353 28.078C21.9895 27.8425 21.7678 27.54 21.6597 27.1264C21.4814 26.4438 21.5756 25.3319 22.2425 23.4994L22.5617 22.6225L24.1842 21H22.3033L21.2441 22.0592C20.9068 22.3965 20.4152 22.5282 19.9546 22.4047L16.3462 21.4379C16.5486 20.9592 16.7947 20.6851 17.1053 20.5327C17.5683 20.3056 18.3662 20.2503 19.8288 20.6422L20.1997 20.7416L22.7428 18.1987L22.6149 17.7214C22.2711 16.4385 22.0881 15.7552 21.9587 15.3667C21.8913 15.1641 21.8244 14.9969 21.7355 14.8515C21.6445 14.7027 21.5458 14.6042 21.4803 14.5389L21.1997 14.2583L18.0497 15.1024L17.9503 15.4732C17.5417 16.9983 17.1686 17.8625 16.824 18.3375C16.7688 18.4135 16.7161 18.4771 16.666 18.5305L16.666 13.8504L18.2587 12.2577C19.2547 11.2617 20.7021 10.665 22.501 10.665C24.2999 10.665 25.7472 11.2617 26.7433 12.2577C27.7393 13.2537 28.336 14.7011 28.336 16.5ZM14.0359 12.9746C13.6089 13.6004 13.2348 14.521 12.8692 15.8109L11.3102 16.2286L11.3051 16.2131C11.1994 15.8957 11.0455 15.3285 10.7426 14.1988L12.204 12.7374C12.8826 12.8985 13.4917 12.9823 14.0359 12.9746ZM17.966 19.0254C18.393 18.3996 18.7671 17.479 19.1326 16.1891L20.6916 15.7714L20.6968 15.7869C20.8025 16.1043 20.9564 16.6715 21.2593 17.8012L19.7978 19.2626C19.1193 19.1015 18.5102 19.0177 17.966 19.0254Z" fill="#000000" class="bmwfcol"/><title>sign_language_lt_48</title></svg>