<svg width="48" height="48" viewBox="0 0 32 32" xmlns="http://www.w3.org/2000/svg"><path d="M21.9745 6.83496C21.6106 6.27098 21.1914 5.75096 20.7202 5.27973C18.8287 3.38824 16.1511 2.33496 13 2.33496C9.84884 2.33496 7.17123 3.38824 5.27973 5.27973C3.38824 7.17123 2.33496 9.84884 2.33496 13C2.33496 16.1511 3.38824 18.8287 5.27973 20.7202C7.17123 22.6117 9.84884 23.665 13 23.665C13.6315 23.665 14.244 23.6227 14.835 23.5398V22.1954C14.2512 22.2874 13.6388 22.335 13 22.335C12.6125 22.335 12.2347 22.3174 11.8672 22.2831L11.4821 17.8819C12.0592 18.0149 12.5282 18.0881 13.0003 18.0881C13.5558 18.0881 14.107 17.9867 14.835 17.806V16.4329C13.9543 16.6612 13.4744 16.7581 13.0003 16.7581C12.3906 16.7581 11.7713 16.5977 10.3017 16.2039L9.85724 16.0848L9.7213 15.5698C9.61582 15.1702 9.49907 14.7283 9.40273 14.3671L9.38632 14.3055C9.23914 13.7537 9.13326 13.3567 9.06429 13.0412C8.99289 12.7146 8.97183 12.5206 8.97728 12.376C8.98709 12.1155 9.07537 11.928 9.486 11.2173C9.99381 10.3383 10.3803 10.0153 10.7957 9.85698C11.2739 9.67472 11.882 9.665 13.0002 9.665C14.1045 9.665 14.7113 9.67448 15.1869 9.85029C15.3389 9.43704 15.5468 9.04025 15.8234 8.67372C15.7759 8.65276 15.7275 8.63291 15.6783 8.61416C14.9443 8.33442 14.0842 8.33468 13.0974 8.33498H12.903C11.9162 8.33468 11.0561 8.33442 10.322 8.61416C9.50109 8.92701 8.91544 9.54623 8.33439 10.5519L8.29422 10.6214C8.14752 10.8749 8.01398 11.1057 7.90678 11.335L3.77915 11.335C4.07569 9.23944 4.93754 7.50284 6.22019 6.22019C7.82869 4.61169 10.1511 3.66496 13 3.66496C15.8488 3.66496 18.1712 4.61169 19.7797 6.22019C19.9743 6.41477 20.1592 6.61981 20.3339 6.83496H21.9745ZM3.66937 12.665L7.65738 12.665C7.67518 12.8733 7.71368 13.0906 7.76498 13.3253C7.84061 13.6712 7.95378 14.0955 8.09526 14.6259L8.11764 14.7098C8.19607 15.0039 8.28824 15.3522 8.37697 15.6881L3.75069 14.4485C3.69405 13.9825 3.66496 13.4993 3.66496 13C3.66496 12.8875 3.66644 12.7758 3.66937 12.665ZM10.1163 17.5311L10.5136 22.0718C8.78301 21.6861 7.33128 20.8908 6.22019 19.7797C5.19884 18.7584 4.44431 17.4492 4.02955 15.9002L10.1163 17.5311Z" fill="#000000" class="bmwfcol"/><path d="M11.835 13C11.835 12.3565 12.3565 11.835 13 11.835C13.6434 11.835 14.165 12.3565 14.165 13C14.165 13.6434 13.6434 14.165 13 14.165C12.3565 14.165 11.835 13.6434 11.835 13Z" fill="#000000" class="bmwfcol"/><path d="M19.5 13.665H26.5V12.335H19.5V13.665Z" fill="#000000" class="bmwfcol"/><path d="M17.2797 9.27973C17.9484 8.61104 18.8975 8.33496 20 8.33496H26C27.1025 8.33496 28.0515 8.61104 28.7202 9.27974C29.3889 9.94843 29.665 10.8975 29.665 12V26C29.665 27.1025 29.3889 28.0515 28.7202 28.7202C28.0515 29.3889 27.1025 29.665 26 29.665H20C18.8975 29.665 17.9484 29.3889 17.2797 28.7202C16.611 28.0515 16.335 27.1025 16.335 26V12C16.335 10.8975 16.611 9.94843 17.2797 9.27973ZM18.2202 10.2202C17.8889 10.5515 17.665 11.1025 17.665 12V24.335L28.335 24.335V12C28.335 11.1025 28.111 10.5515 27.7797 10.2202C27.4484 9.88888 26.8975 9.66496 26 9.66496H20C19.1025 9.66496 18.5515 9.88888 18.2202 10.2202ZM17.665 26C17.665 26.8975 17.8889 27.4484 18.2202 27.7797C18.5515 28.111 19.1025 28.335 20 28.335H26C26.8975 28.335 27.4484 28.111 27.7797 27.7797C28.111 27.4484 28.335 26.8975 28.335 26V25.665L17.665 25.665V26Z" fill="#000000" class="bmwfcol"/><title>smartphone-integration_lt_48</title></svg>