<svg width="48" height="48" viewBox="0 0 32 32" xmlns="http://www.w3.org/2000/svg"><path d="M3.94145 3L29.9415 29H28.0605L2.06055 3H3.94145Z" fill="#000000" class="bmwfcol"/><path d="M17.3359 10.779L17.6255 14.0884L19.0886 15.5514L19.0335 14.9224C19.182 14.9175 19.337 14.915 19.4993 14.915C21.3787 14.915 22.2937 15.2581 23.2543 15.6184L23.2657 15.6226C24.3009 16.0108 25.3861 16.415 27.4993 16.415C27.6155 16.415 27.7286 16.4137 27.8387 16.4114L27.204 23.6669L28.4316 24.8945L29.6666 10.779V9.33496H26.8022C26.8287 9.09475 26.8561 8.88159 26.8869 8.68935C26.9689 8.17767 27.0666 7.87268 27.1966 7.64534C27.3216 7.42675 27.5038 7.23212 27.8386 6.9907C28.1864 6.73982 28.6539 6.46907 29.3343 6.07622L30.0007 5.69151V4.15576L28.6382 4.94238C27.995 5.31375 27.4692 5.61731 27.0606 5.91199C26.6323 6.22086 26.2922 6.54749 26.042 6.98517C25.7967 7.4141 25.6663 7.90039 25.5737 8.47905C25.5329 8.73384 25.4978 9.01782 25.4646 9.33496H17.3359V10.779ZM18.9175 13.5958L18.6659 10.7209V10.665H28.3366V10.7209L27.9554 15.0778C27.8098 15.0825 27.658 15.085 27.4993 15.085C25.6197 15.085 24.7046 14.7418 23.7439 14.3815L23.7326 14.3773C22.6975 13.9891 21.6123 13.585 19.4993 13.585C19.2961 13.585 19.1025 13.5887 18.9175 13.5958Z" fill="#000000" class="bmwfcol"/><path d="M19.857 24.335H20.801L22.131 25.665H18.6383L18.3034 21.8374L19.7665 23.3005L19.857 24.335Z" fill="#000000" class="bmwfcol"/><path d="M15.2076 18.7415C15.0887 18.9379 14.9472 19.1192 14.7837 19.2827C14.6068 19.4595 14.4091 19.6107 14.1941 19.7353L13.1485 25.6649H4.85353L3.80802 19.7354C3.59292 19.6108 3.39513 19.4596 3.21821 19.2827C2.63921 18.7037 2.33594 17.9011 2.33594 17C2.33594 16.0988 2.63921 15.2962 3.21821 14.7172C3.79721 14.1382 4.59982 13.835 5.50094 13.835C5.56339 13.835 5.62539 13.8364 5.68689 13.8393C6.40178 12.9183 7.50547 12.3871 8.80465 12.3386L10.4535 13.9874C10.0511 13.7811 9.5647 13.665 9.00094 13.665C7.85497 13.665 7.02855 14.145 6.5785 14.8861L6.34486 15.2708L5.90087 15.1969C5.77642 15.1761 5.64302 15.165 5.50094 15.165C4.90206 15.165 4.45467 15.3617 4.15866 15.6577C3.86266 15.9537 3.66594 16.4011 3.66594 17C3.66594 17.5988 3.86266 18.0462 4.15866 18.3422C4.45467 18.6382 4.90206 18.835 5.50094 18.835C5.85959 18.835 6.16295 18.7639 6.40944 18.6464L6.78884 18.4657L7.11496 18.7308C7.57441 19.1042 8.20898 19.335 9.00094 19.335C9.7929 19.335 10.4275 19.1042 10.8869 18.7308L11.213 18.4657L11.5924 18.6464C11.8389 18.7639 12.1423 18.835 12.5009 18.835C13.0998 18.835 13.5472 18.6382 13.8432 18.3422C13.9992 18.1863 14.1276 17.9882 14.2142 17.7482L15.2076 18.7415ZM12.5009 20.165C12.1139 20.165 11.7444 20.1093 11.4018 19.9986C10.7276 20.4363 9.90599 20.665 9.00094 20.665C8.09589 20.665 7.27429 20.4363 6.60007 19.9986C6.25748 20.1093 5.88797 20.165 5.50094 20.165C5.41048 20.165 5.32101 20.1619 5.23266 20.1558L5.96954 24.3349H12.0325L12.7694 20.1558C12.681 20.1619 12.5915 20.165 12.5009 20.165Z" fill="#000000" class="bmwfcol"/><path d="M11.657 15.2708L11.7254 15.2594L11.5336 15.0675L11.657 15.2708Z" fill="#000000" class="bmwfcol"/><title>snack_and_drink_crossed_out_lt_48</title></svg>