<svg width="48" height="48" viewBox="0 0 32 32" xmlns="http://www.w3.org/2000/svg"><path d="M25.4626 9.33496C25.4959 9.01782 25.5309 8.73384 25.5717 8.47905C25.6644 7.90039 25.7948 7.4141 26.04 6.98517C26.2903 6.54749 26.6304 6.22086 27.0586 5.91199C27.4672 5.61731 27.993 5.31374 28.6363 4.94237L29.9987 4.15576V5.69151L29.3324 6.07622C28.6519 6.46907 28.1845 6.73982 27.8366 6.9907C27.5019 7.23212 27.3196 7.42675 27.1946 7.64534C27.0646 7.87268 26.9669 8.17767 26.885 8.68935C26.8542 8.88159 26.8268 9.09475 26.8002 9.33496H29.6646V10.779L28.3623 25.665H18.6363L17.334 10.779V9.33496H25.4626ZM19.0316 14.9224L19.8551 24.335H27.1436L27.8368 16.4114C27.7266 16.4137 27.6135 16.415 27.4973 16.415C25.3841 16.415 24.2989 16.0108 23.2637 15.6226L23.2524 15.6184C22.2917 15.2581 21.3767 14.915 19.4973 14.915C19.3351 14.915 19.1801 14.9175 19.0316 14.9224ZM18.9155 13.5958C19.1005 13.5887 19.2942 13.585 19.4973 13.585C21.6104 13.585 22.6955 13.9891 23.7307 14.3773L23.742 14.3815C24.7026 14.7418 25.6178 15.085 27.4973 15.085C27.656 15.085 27.8079 15.0825 27.9535 15.0778L28.3346 10.7209V10.665H18.664V10.7209L18.9155 13.5958Z" fill="#000000" class="bmwfcol"/><path d="M14.1921 19.7353C14.4071 19.6107 14.6049 19.4595 14.7817 19.2827C15.3607 18.7037 15.664 17.9011 15.664 17C15.664 16.0988 15.3607 15.2962 14.7817 14.7172C14.2027 14.1382 13.4001 13.835 12.499 13.835C12.4365 13.835 12.3745 13.8364 12.313 13.8393C11.5624 12.8722 10.3831 12.335 8.99898 12.335C7.61484 12.335 6.43557 12.8722 5.68494 13.8393C5.62343 13.8364 5.56143 13.835 5.49898 13.835C4.59786 13.835 3.79526 14.1382 3.21626 14.7172C2.63726 15.2962 2.33398 16.0988 2.33398 17C2.33398 17.9011 2.63726 18.7037 3.21626 19.2827C3.39317 19.4596 3.59096 19.6108 3.80606 19.7354L4.85158 25.6649H13.1466L14.1921 19.7353ZM12.7675 20.1558L12.0306 24.3349H5.96758L5.23071 20.1558C5.31906 20.1619 5.40852 20.165 5.49898 20.165C5.88601 20.165 6.25553 20.1093 6.59812 19.9986C7.27234 20.4363 8.09393 20.665 8.99898 20.665C9.90404 20.665 10.7256 20.4363 11.3999 19.9986C11.7424 20.1093 12.112 20.165 12.499 20.165C12.5895 20.165 12.6791 20.1619 12.7675 20.1558ZM6.57654 14.8861C7.0266 14.145 7.85302 13.665 8.99898 13.665C10.1449 13.665 10.9714 14.145 11.4214 14.8861L11.6551 15.2708L12.0991 15.1969C12.2235 15.1761 12.3569 15.165 12.499 15.165C13.0979 15.165 13.5453 15.3617 13.8413 15.6577C14.1373 15.9537 14.334 16.4011 14.334 17C14.334 17.5988 14.1373 18.0462 13.8413 18.3422C13.5453 18.6382 13.0979 18.835 12.499 18.835C12.1403 18.835 11.837 18.7639 11.5905 18.6464L11.2111 18.4657L10.885 18.7308C10.4255 19.1042 9.79094 19.335 8.99898 19.335C8.20702 19.335 7.57245 19.1042 7.11301 18.7308L6.78689 18.4657L6.40749 18.6464C6.161 18.7639 5.85763 18.835 5.49898 18.835C4.9001 18.835 4.45271 18.6382 4.15671 18.3422C3.86071 18.0462 3.66398 17.5988 3.66398 17C3.66398 16.4011 3.86071 15.9537 4.15671 15.6577C4.45271 15.3617 4.9001 15.165 5.49898 15.165C5.64107 15.165 5.77447 15.1761 5.89891 15.1969L6.34291 15.2708L6.57654 14.8861Z" fill="#000000" class="bmwfcol"/><title>snack_and_drink_lt_48</title></svg>