<svg width="48" height="48" viewBox="0 0 32 32" xmlns="http://www.w3.org/2000/svg"><path d="M19.499 29.665H12.499C10.0895 29.665 8.03483 27.9776 6.61967 25.5247C5.19434 23.0541 4.33398 19.6852 4.33398 16C4.33398 12.3148 5.19434 8.94587 6.61967 6.4753C8.03483 4.02236 10.0895 2.335 12.499 2.335H19.499C21.9085 2.335 23.9631 4.02236 25.3783 6.4753C26.8036 8.94587 27.664 12.3148 27.664 16C27.664 19.6852 26.8036 23.0541 25.3783 25.5247C23.9631 27.9776 21.9085 29.665 19.499 29.665ZM5.66398 16C5.66398 17.3292 5.78242 18.6058 6.00012 19.8005L10.9115 16L6.00012 12.1995C5.78241 13.3942 5.66398 14.6708 5.66398 16ZM6.82117 20.8469L12.7553 23.7483C11.9946 21.8837 11.5055 19.688 11.3714 17.3258L6.82117 20.8469ZM6.82117 11.1532L11.3714 14.6742C11.5055 12.312 11.9946 10.1163 12.7553 8.25172L6.82117 11.1532ZM12.8191 6.74007L9.66867 4.79605C8.98082 5.3707 8.33857 6.15735 7.7717 7.13993C7.32322 7.91728 6.9317 8.80315 6.61178 9.77507L12.8191 6.74007ZM13.9777 5.89218C14.5525 5.01245 15.2158 4.25335 15.952 3.665H12.499C11.9661 3.665 11.4368 3.78064 10.9215 4.0063L13.9777 5.89218ZM12.6739 15.335H15.3444C15.4101 13.2444 15.7838 11.3232 16.3803 9.80305L14.3716 7.89323C13.3912 9.89911 12.7593 12.4807 12.6739 15.335ZM15.0418 6.69529L16.981 8.53897C17.2764 8.02606 17.611 7.58011 17.9836 7.22554C18.3595 6.86773 18.7877 6.59152 19.2589 6.44693L18.9169 3.71104C17.5072 3.93428 16.1496 4.96455 15.0418 6.69529ZM22.0144 7.22554C22.3422 7.53746 22.6406 7.92011 22.9087 8.35684L24.0097 6.77993C22.9392 5.07299 21.629 4.02826 20.2614 3.74404L20.5942 6.407C21.1227 6.53626 21.6002 6.83139 22.0144 7.22554ZM23.5826 9.71486C24.1995 11.2486 24.5866 13.2038 24.6536 15.335H26.3241C26.2413 12.5718 25.6466 10.0642 24.7192 8.08707L23.5826 9.71486ZM24.6536 16.665C24.5866 18.7962 24.1995 20.7514 23.5826 22.2851L24.7192 23.9129C25.6466 21.9358 26.2413 19.4282 26.3241 16.665H24.6536ZM22.9087 23.6432C22.6406 24.0799 22.3422 24.4625 22.0144 24.7745C21.6002 25.1686 21.1227 25.4637 20.5942 25.593L20.2614 28.256C21.629 27.9717 22.9392 26.927 24.0097 25.2201L22.9087 23.6432ZM19.2589 25.5531C18.7877 25.4085 18.3595 25.1323 17.9836 24.7745C17.611 24.4199 17.2764 23.9739 16.981 23.461L15.0418 25.3047C16.1496 27.0355 17.5072 28.0657 18.9169 28.289L19.2589 25.5531ZM10.9215 27.9937C11.4368 28.2194 11.9661 28.335 12.499 28.335H15.952C15.2158 27.7467 14.5525 26.9876 13.9777 26.1078L10.9215 27.9937ZM12.8191 25.2599L6.61178 22.2249C6.9317 23.1969 7.32322 24.0827 7.7717 24.8601C8.33857 25.8427 8.98082 26.6293 9.66867 27.204L12.8191 25.2599ZM16.3803 22.1969C15.7838 20.6768 15.4101 18.7556 15.3444 16.665H12.6739C12.7593 19.5193 13.3912 22.1009 14.3716 24.1068L16.3803 22.1969ZM18.0238 9.40095C18.1746 9.35842 18.3332 9.335 18.499 9.335C19.0758 9.335 19.5652 9.61839 19.9458 10.0048C20.3242 10.3889 20.6344 10.9106 20.8806 11.5016C21.3743 12.6865 21.664 14.2773 21.664 16C21.664 17.7227 21.3743 19.3135 20.8806 20.4984C20.6344 21.0894 20.3242 21.6111 19.9458 21.9952C19.5652 22.3816 19.0758 22.665 18.499 22.665C18.3332 22.665 18.1746 22.6416 18.0238 22.599C18.2992 23.1164 18.5971 23.5224 18.9004 23.811C19.293 24.1846 19.6631 24.335 19.999 24.335C20.3349 24.335 20.705 24.1846 21.0975 23.811C21.4935 23.4342 21.8804 22.8574 22.2197 22.0939C22.8977 20.5685 23.334 18.4145 23.334 16C23.334 13.5855 22.8977 11.4315 22.2197 9.90612C21.8804 9.14257 21.4935 8.56584 21.0975 8.18899C20.705 7.8154 20.3349 7.665 19.999 7.665C19.6631 7.665 19.293 7.8154 18.9004 8.18899C18.5971 8.47765 18.2992 8.8836 18.0238 9.40095ZM16.664 16C16.664 17.591 16.9339 19.0002 17.3451 19.9869C17.5512 20.4817 17.7798 20.8387 17.9996 21.0618C18.2171 21.2826 18.3855 21.335 18.499 21.335C18.6125 21.335 18.7809 21.2826 18.9984 21.0618C19.2182 20.8387 19.4467 20.4817 19.6529 19.9869C20.064 19.0002 20.334 17.591 20.334 16C20.334 14.409 20.064 12.9998 19.6529 12.0131C19.4467 11.5183 19.2182 11.1613 18.9984 10.9382C18.7809 10.7174 18.6125 10.665 18.499 10.665C18.3855 10.665 18.2171 10.7174 17.9996 10.9382C17.7798 11.1613 17.5512 11.5183 17.3451 12.0131C16.9339 12.9998 16.664 14.409 16.664 16Z" fill="#000000" class="bmwfcol"/><title>snow-chains_lt_48</title></svg>