<svg width="48" height="48" viewBox="0 0 32 32" xmlns="http://www.w3.org/2000/svg"><path d="M15.4254 2V7.00375L12.0002 5.02623V6.35413L15.4254 8.33165V10.945L11.9098 12.9747L9.64664 11.668V7.71327L8.49663 7.04932L8.49664 11.0041L4.16301 8.50207L3.58801 9.498L7.92156 12L4.49649 13.9774L5.64649 14.6414L9.07156 12.6639L11.335 13.9707V18.0293L9.07147 19.3362L5.64649 17.3588L4.49649 18.0227L7.92147 20.0001L3.58801 22.502L4.16301 23.498L8.49648 20.996V24.9509L9.64648 24.287V20.3321L11.91 19.0253L15.4254 21.0549V23.6681L12.0002 25.6456V26.9735L15.4254 24.996V30H16.5754V24.9956L20.0002 26.973V25.6451L16.5754 23.6677V21.0544L20.0898 19.0253L22.3531 20.332V24.287L23.5031 24.9509V20.996L27.8366 23.4979L28.4116 22.502L24.0778 19.9999L27.5027 18.0225L26.3527 17.3585L22.9278 19.3359L20.665 18.0295V13.9706L22.9281 12.6639L26.3532 14.6414L27.5032 13.9774L24.0781 12L28.4117 9.49798L27.8367 8.50205L23.503 11.0041V7.04932L22.353 7.71327V11.6681L20.09 12.9746L16.5754 10.9455V8.33201L20.0002 6.35468V5.02678L16.5754 7.0041V2H15.4254ZM12.665 17.9254V14.0745L16 12.149L19.335 14.0745V17.9254L16 19.8509L12.665 17.9254Z" fill="#000000" class="bmwfcol"/><title>snowflake_lt_48</title></svg>