<svg width="48" height="48" viewBox="0 0 32 32" xmlns="http://www.w3.org/2000/svg"><path d="M14.5682 11.5672C14.2896 11.8458 13.9318 12.0634 13.5 12.1947V13.5655C14.2847 13.403 14.9722 13.0441 15.5087 12.5077C16.2627 11.7537 16.6659 10.7011 16.6659 9.49996C16.6659 8.29884 16.2627 7.24623 15.5087 6.49224C14.8274 5.81099 13.9024 5.41605 12.8443 5.34618C12.1603 3.47428 10.4478 2.33496 8.25094 2.33496C6.84599 2.33496 5.62137 2.79908 4.73849 3.65995C3.95381 4.42507 3.479 5.46473 3.36356 6.66539C2.09188 7.2306 1.33594 8.46641 1.33594 9.99996C1.33594 11.0511 1.68921 11.9787 2.35571 12.6452C2.91415 13.2036 3.65589 13.5422 4.5 13.6373V12.2951C3.99221 12.2108 3.58909 11.9977 3.29616 11.7047C2.91266 11.3212 2.66594 10.7488 2.66594 9.99996C2.66594 8.82331 3.26923 8.04768 4.19038 7.77566L4.6573 7.63778L4.66691 7.15102C4.6885 6.05819 5.06609 5.19812 5.667 4.61219C6.26817 4.026 7.14343 3.66496 8.25094 3.66496C10.0813 3.66496 11.3214 4.64507 11.7069 6.16576L11.8383 6.68423C12.059 6.67712 12.2801 6.66496 12.5009 6.66496C13.3998 6.66496 14.0972 6.96169 14.5682 7.43269C15.0392 7.90369 15.3359 8.60108 15.3359 9.49996C15.3359 10.3988 15.0392 11.0962 14.5682 11.5672Z" fill="#000000" class="bmwfcol"/><path d="M12.002 11.1152L9.66602 13.4512V8H8.33602V13.4511L6.00195 11.117V12.8848L9.00107 15.8839L12.002 12.883V11.1152Z" fill="#000000" class="bmwfcol"/><path d="M18.92 15.335C20.4575 15.335 21.9671 15.5328 23.4066 16.0913C24.8216 16.6403 26.1293 17.4374 27.4386 18.1957L29.6659 18.3906L29.666 19.9999C29.666 20.7497 30.1598 21.2184 30.6659 21.7245L30.6662 24.3839C29.5037 25.0551 28.3209 25.65 26.9451 25.6637C26.4815 26.8358 25.338 27.665 24.0009 27.665C22.6643 27.665 21.5213 26.8364 21.0572 25.665H9.94463C9.48062 26.8364 8.33753 27.665 7.00094 27.665C5.65832 27.665 4.51096 26.829 4.05101 25.6491C3.1281 25.5667 2.22592 25.2521 1.33594 25.0136L1.33619 20.616C2.45813 19.9683 3.55929 19.3131 4.83879 19.0287C5.99278 18.7723 7.63445 18.6268 10.7351 18.3557C12.442 16.9348 13.6126 16.1496 14.8174 15.7446C16.0366 15.3348 17.2412 15.3349 18.92 15.335ZM27.1614 24.3292C27.9774 24.3072 28.6276 24.0113 29.3361 23.6136L29.336 22.269C28.5824 21.4625 28.336 20.6983 28.3359 19.6093L27.0282 19.4949C25.6936 18.7224 24.3678 17.8908 22.9256 17.3313C21.7892 16.8904 20.6335 16.665 19.001 16.665C17.2222 16.665 16.2336 16.6717 15.2412 17.0053C13.732 17.5126 12.4663 18.6387 11.268 19.6442C9.23414 19.822 7.12693 19.8826 5.12735 20.3271C4.20871 20.5312 3.67979 20.8026 2.66614 21.3843L2.666 23.9919C3.24848 24.1448 3.59848 24.2289 3.84373 24.2761C3.9586 22.6326 5.32823 21.335 7.00094 21.335C8.69358 21.335 10.0759 22.6637 10.1617 24.335H20.8402C20.926 22.6637 22.3083 21.335 24.0009 21.335C25.6916 21.335 27.0727 22.6606 27.1614 24.3292ZM5.16594 24.5C5.16594 25.5134 5.98749 26.335 7.00094 26.335C8.01438 26.335 8.83594 25.5134 8.83594 24.5C8.83594 23.4865 8.01438 22.665 7.00094 22.665C5.98749 22.665 5.16594 23.4865 5.16594 24.5ZM22.1659 24.5C22.1659 25.5134 22.9875 26.335 24.0009 26.335C25.0144 26.335 25.8359 25.5134 25.8359 24.5C25.8359 23.4865 25.0144 22.665 24.0009 22.665C22.9875 22.665 22.1659 23.4865 22.1659 24.5Z" fill="#000000" class="bmwfcol"/><title>software-update_lt_48</title></svg>