<svg width="48" height="48" viewBox="0 0 32 32" xmlns="http://www.w3.org/2000/svg"><path d="M8.83398 2.99996C8.83398 2.35655 9.35557 1.83496 9.99898 1.83496C10.6424 1.83496 11.164 2.35655 11.164 2.99996C11.164 3.39616 10.9662 3.74617 10.664 3.95664L10.664 5.33496H11.3829C11.8264 6.10299 12.3172 6.87535 12.5217 7.7479C12.6644 8.35693 12.6643 8.99439 12.6642 9.92622L12.6642 12.795C13.034 13.06 13.3434 13.4038 13.664 13.7245V15.0254L12.6895 16L13.664 16.9745V18.2754C13.3433 18.5962 13.0339 18.9401 12.664 19.2051V25.665C12.6621 26.4049 12.699 27.1882 12.5182 27.9113C12.3338 28.649 11.7909 29.1477 11.2735 29.665H8.99805V28.335H10.721C11.0748 27.9735 11.1643 27.843 11.2279 27.5887C11.273 27.4082 11.3026 27.1521 11.3178 26.7263C11.3281 26.439 11.3314 26.0937 11.3325 25.665H10.3652V27.33H9.03516V25.665H7.33398V19.205C6.96411 18.94 6.65466 18.5962 6.33398 18.2754V16.9745L7.30853 16L6.33398 15.0254V13.7245C6.65467 13.4037 6.96412 13.0599 7.33399 12.7949L7.33399 9.92621C7.33389 8.99439 7.33383 8.35693 7.47657 7.7479C7.68108 6.87535 8.17188 6.10299 8.6153 5.33496H9.33398L9.33398 3.95664C9.03177 3.74617 8.83398 3.39616 8.83398 2.99996ZM11.3342 10C11.3342 8.97221 11.3303 8.49334 11.2268 8.05141C11.1403 7.68241 10.9775 7.31612 10.6125 6.66496H9.3857C9.02073 7.31612 8.85796 7.68241 8.77148 8.05141C8.6679 8.49334 8.66399 8.97221 8.66399 10V12.3595C9.54078 12.296 10.4574 12.296 11.3342 12.3595V10ZM7.66398 14.4745L8.66398 15.4745V16.5254L7.66398 17.5254V17.7232C8.05338 18.1062 8.32082 18.2918 8.86208 18.3203C9.61411 18.3598 10.3839 18.3598 11.1359 18.3203C11.6772 18.2918 11.9446 18.1062 12.334 17.7232V17.5254L11.334 16.5254V15.4745L12.334 14.4745V14.2767C11.9446 13.8937 11.6772 13.7082 11.1359 13.6797C10.3839 13.6401 9.61411 13.6401 8.86207 13.6797C8.32082 13.7082 8.05338 13.8937 7.66398 14.2767V14.4745ZM11.334 19.6405C10.4482 19.7046 9.54996 19.7046 8.66398 19.6405V24.335H11.334V19.6405Z" fill="#000000" class="bmwfcol"/><path d="M25.625 14.625L24.375 13.375H27.4361C26.0189 11.9804 24.9562 11.165 22.9996 11.165C21.5007 11.165 20.3033 11.6617 19.4823 12.4827C18.9572 13.0077 18.5648 13.6867 18.3501 14.5H16.9844C17.2267 13.3357 17.7581 12.3259 18.5418 11.5422C19.6458 10.4382 21.1984 9.83496 22.9996 9.83496C25.4772 9.83496 26.8987 10.9695 28.375 12.4279V9.375L29.625 10.625V14.625H25.625Z" fill="#000000" class="bmwfcol"/><path d="M20.375 17.375L21.625 18.625H18.5629C19.9802 20.0196 21.0429 20.835 22.9995 20.835C24.4984 20.835 25.6958 20.3383 26.5168 19.5173C27.0418 18.9923 27.4342 18.3133 27.6489 17.5H29.0147C28.7723 18.6643 28.241 19.6741 27.4572 20.4578C26.3533 21.5618 24.8006 22.165 22.9995 22.165C20.5224 22.165 19.101 21.031 17.625 19.573V22.625L16.375 21.375V17.375H20.375Z" fill="#000000" class="bmwfcol"/><title>spark-plug-service_lt_48</title></svg>