<svg width="48" height="48" viewBox="0 0 32 32" xmlns="http://www.w3.org/2000/svg"><path d="M18.3593 4.33496H19.6639V27.665H18.3593L9.78929 21.665H4.99898C4.17323 21.665 3.46288 21.3179 2.98663 20.6276C2.53438 19.9722 2.33398 19.0684 2.33398 18V14C2.33398 12.9315 2.53438 12.0277 2.98663 11.3723C3.46288 10.6821 4.17323 10.335 4.99898 10.335H9.78929L18.3593 4.33496ZM9.33394 11.665H4.99898C4.58473 11.665 4.29508 11.8179 4.08133 12.1276C3.84358 12.4722 3.66398 13.0684 3.66398 14V18C3.66398 18.9315 3.84358 19.5277 4.08133 19.8723C4.29508 20.1821 4.58473 20.335 4.99898 20.335H9.33394V11.665ZM18.3339 5.97627L10.6639 11.3462V20.6538L18.3339 26.0237V5.97627Z" fill="#000000" class="bmwfcol"/><path d="M29.664 16C29.664 12.8489 28.6107 10.1713 26.7193 8.27979L25.7788 9.22024C27.3873 10.8287 28.334 13.1511 28.334 16C28.334 18.8489 27.3873 21.1712 25.7788 22.7797L26.7192 23.7202C28.6107 21.8287 29.664 19.1511 29.664 16Z" fill="#000000" class="bmwfcol"/><path d="M24.664 16C24.664 17.6511 24.1107 19.0787 23.0942 20.0952L22.1538 19.1547C22.8873 18.4212 23.334 17.3489 23.334 16C23.334 14.6511 22.8873 13.5787 22.1538 12.8452L23.0943 11.9048C24.1107 12.9213 24.664 14.3489 24.664 16Z" fill="#000000" class="bmwfcol"/><title>speaker-waves_lt_48</title></svg>