<svg width="48" height="48" viewBox="0 0 32 32" xmlns="http://www.w3.org/2000/svg"><path d="M27.0586 28H28.9395L4.93949 4H3.05859L27.0586 28Z" fill="#000000" class="bmwfcol"/><path d="M18.3593 4.33496L12.4624 8.46343L13.4174 9.4184L18.3339 5.97627V14.3349L19.6639 15.6649V4.33496H18.3593Z" fill="#000000" class="bmwfcol"/><path d="M19.6639 27.665V23.6649L18.3339 22.3349V26.0237L10.6639 20.6538V14.6649L9.33394 13.3349V20.335H4.99898C4.58473 20.335 4.29508 20.1821 4.08133 19.8723C3.84358 19.5277 3.66398 18.9315 3.66398 18V14C3.66398 13.0684 3.84358 12.4722 4.08133 12.1276C4.29508 11.8179 4.58473 11.665 4.99898 11.665H7.66398L6.33398 10.335H4.99898C4.17323 10.335 3.46288 10.6821 2.98663 11.3723C2.53438 12.0277 2.33398 12.9315 2.33398 14V18C2.33398 19.0684 2.53438 19.9722 2.98663 20.6276C3.46288 21.3179 4.17323 21.665 4.99898 21.665H9.78929L18.3593 27.665H19.6639Z" fill="#000000" class="bmwfcol"/><path d="M22.6052 18.6062C23.0662 17.9224 23.3339 17.044 23.3339 16C23.3339 14.6511 22.8871 13.5787 22.1537 12.8452L23.0941 11.9048C24.1106 12.9213 24.6639 14.3489 24.6639 16C24.6639 17.3789 24.278 18.6018 23.5587 19.5597L22.6052 18.6062Z" fill="#000000" class="bmwfcol"/><path d="M28.3339 16C28.3339 18.554 27.573 20.6848 26.2565 22.2575L27.2002 23.2012C28.7883 21.3523 29.6639 18.873 29.6639 16C29.6639 12.8489 28.6106 10.1713 26.7191 8.27979L25.7787 9.22024C27.3871 10.8287 28.3339 13.1511 28.3339 16Z" fill="#000000" class="bmwfcol"/><title>speaker-muted_lt_48</title></svg>