<svg width="48" height="48" viewBox="0 0 32 32" xmlns="http://www.w3.org/2000/svg"><path d="M18.6072 4.05518H19.9615V7.13658H23.3884V4.05518H24.7426V11.9499H23.3884V8.461H19.9615V11.9499H18.6072V4.05518Z" fill="#000000" class="bmwfcol"/><path d="M26.391 8.77271C26.6727 8.70228 27.2788 8.56794 27.8411 8.56794C28.3554 8.56794 28.7654 8.68319 29.0623 8.93225C29.3437 9.16498 29.5022 9.54336 29.5022 9.94086C29.5022 10.181 29.4664 10.3861 29.3784 10.5857C29.2917 10.7822 29.1593 10.9619 28.9841 11.1577L28.9831 11.1588L28.9821 11.1599C28.6705 11.498 28.3336 11.818 28.0487 12.0768H29.7309V13.2421H26.1401V12.2052L26.2092 12.1454C26.7269 11.6974 27.4869 11.0261 27.8686 10.6443C28.2079 10.305 28.2673 10.1688 28.2673 10.0403C28.2673 9.93251 28.2411 9.8782 28.1966 9.83378C28.1548 9.79196 28.0541 9.74326 27.8112 9.74326C27.3138 9.74326 26.7215 9.89508 26.49 9.95546L26.2395 10.0208V8.81058L26.391 8.77271Z" fill="#000000" class="bmwfcol"/><path d="M14.1569 18.085H11.2245L10.335 18.9745V21.6933L11.5871 23.665H14.5254L15 23.1904L15.4745 23.665H18.4578L19.665 21.6869V18.9745L18.7754 18.085H15.843L15 18.5065L14.1569 18.085ZM11.665 19.5254L11.7754 19.415H13.843L14.335 19.661V21.9745L13.9745 22.335H12.318L11.665 21.3067V19.5254ZM15.665 21.9745V19.661L16.1569 19.415H18.2245L18.335 19.5254V21.3131L17.7113 22.335H16.0254L15.665 21.9745Z" fill="#000000" class="bmwfcol"/><path d="M21.72 13.7841C21.6594 13.6876 21.598 13.5926 21.5362 13.5H23.1024C23.5261 14.2248 23.8661 14.9291 24.0483 15.34C24.6927 15.9323 25.325 16.5265 25.7962 17.1012C26.2565 17.6626 26.665 18.3236 26.665 19.0428V27.665H21.335V26.4628C17.0467 26.7457 12.9532 26.7457 8.66496 26.4628V27.665H3.33496V19.0428C3.33496 18.3236 3.74345 17.6626 4.2037 17.1012C4.6101 16.6055 5.1364 16.0953 5.6869 15.5843L5.68555 15.5828C5.7054 15.5645 5.7256 15.5467 5.74613 15.5294C5.79624 15.483 5.84652 15.4366 5.8969 15.3902C5.73085 15.2995 5.52002 15.2406 5.19038 15.206C4.77306 15.1622 4.23938 15.1631 3.45646 15.1644C3.31295 15.1647 3.16107 15.1649 3 15.1649V13.8349C3.1515 13.8349 3.2977 13.8346 3.43879 13.8343C4.21425 13.8327 4.83506 13.8314 5.32919 13.8833C5.76802 13.9293 6.15204 14.0205 6.50473 14.207C6.69442 13.8478 6.91424 13.4575 7.15334 13.0764C7.42786 12.6388 7.73649 12.1991 8.06292 11.8284C8.26723 11.5964 8.49699 11.3698 8.74796 11.1883L8.33508 10.7754L8.33496 9.91243L8.35763 9.82782C8.62454 8.83173 8.91532 8.13258 9.4069 7.73361C9.90235 7.3315 10.4905 7.33339 10.9262 7.33479C10.9514 7.33487 10.976 7.33495 11 7.33495H16.5V8.66495H13.665V10.3402C14.065 10.3365 14.5076 10.335 15 10.335C15.561 10.335 16.0575 10.337 16.5 10.3419V11.6725C16.0639 11.6674 15.5677 11.665 15 11.665C11.1009 11.665 10.5769 11.7759 9.71642 12.1535C9.55695 12.2235 9.33267 12.3989 9.06109 12.7074C8.79893 13.0051 8.53292 13.38 8.28001 13.7832C8.03841 14.1683 7.8167 14.5664 7.62959 14.9257C7.8766 14.902 8.14764 14.8845 8.44494 14.8713C9.47621 14.8254 10.915 14.8283 12.9225 14.8323H12.9227C13.5567 14.8336 14.2474 14.835 14.9999 14.835C15.7525 14.835 16.4432 14.8336 17.0772 14.8323C19.0845 14.8283 20.5226 14.8254 21.5533 14.8713C21.8513 14.8845 22.1228 14.9021 22.3703 14.926C22.1832 14.5669 21.9615 14.169 21.72 13.7841ZM12.335 8.66495H11C10.4414 8.66495 10.3371 8.69159 10.245 8.76629C10.1241 8.86446 9.92307 9.15131 9.66499 10.0886L9.665 10.2245L10.0617 10.6211C10.6069 10.4778 11.2593 10.4029 12.335 10.3662V8.66495ZM23.4088 16.56C23.3438 16.5 23.2165 16.4191 22.9097 16.3491C22.5975 16.2779 22.1518 16.2292 21.4941 16.2C20.4971 16.1556 19.1042 16.1583 17.1105 16.1623C16.471 16.1636 15.7698 16.165 14.9999 16.165C14.2301 16.165 13.5289 16.1636 12.8894 16.1623C10.8953 16.1583 9.50177 16.1556 8.50407 16.2C7.84603 16.2292 7.39987 16.2779 7.08731 16.3492C6.82392 16.4092 6.69267 16.4772 6.61969 16.5332C6.06552 17.0471 5.5867 17.5121 5.23222 17.9445C5.12291 18.0778 5.03214 18.2002 4.95765 18.3124C6.10222 18.5935 7.30041 18.7371 9 18.8575V20.1908C7.23439 20.068 5.93217 19.9189 4.66496 19.6099V26.335H7.33496V25.0348L8.04831 25.0868C12.7717 25.4311 17.2282 25.4311 21.9516 25.0868L22.665 25.0348V26.335H25.335V19.6098C24.0677 19.9188 22.7655 20.068 21 20.1908V18.8575C22.6995 18.737 23.8976 18.5934 25.0422 18.3123C24.9677 18.2001 24.877 18.0777 24.7677 17.9445C24.4194 17.5196 23.951 17.0632 23.409 16.5599L23.4088 16.56Z" fill="#000000" class="bmwfcol"/><title>special_vehicle_hydrogen_lt_48</title></svg>