<svg width="48" height="48" viewBox="0 0 32 32" xmlns="http://www.w3.org/2000/svg"><path d="M6.01876 7.23237C5.78452 7.32545 5.66655 7.42139 5.54394 7.544C5.41396 7.67398 5.31148 7.80297 5.21799 8.0053C5.11893 8.2197 5.01932 8.54012 4.93393 9.06325C4.76148 10.1197 4.66496 11.8801 4.66496 15V26.8946L8.22451 23.335H16C20.623 23.335 23.1436 23.2387 24.5882 23.0623C25.3094 22.9742 25.723 22.8703 25.9812 22.7677C26.2154 22.6746 26.3334 22.5787 26.456 22.456C26.586 22.3261 26.6884 22.1971 26.7819 21.9947C26.881 21.7803 26.9806 21.4599 27.066 20.9368C27.2384 19.8803 27.335 18.12 27.335 15C27.335 11.8801 27.2384 10.1197 27.066 9.06325C26.9806 8.54012 26.881 8.2197 26.7819 8.0053C26.6884 7.80297 26.586 7.67398 26.456 7.544C26.3334 7.42139 26.2154 7.32545 25.9812 7.23237C25.723 7.12977 25.3094 7.02587 24.5882 6.93777C23.1436 6.7613 20.623 6.66502 16 6.66502C11.3769 6.66502 8.85631 6.7613 7.41169 6.93777C6.69051 7.02587 6.27697 7.12977 6.01876 7.23237ZM7.25042 5.61758C8.78612 5.42999 11.383 5.33502 16 5.33502C20.6169 5.33502 23.2138 5.42999 24.7495 5.61758C25.5185 5.71152 26.0608 5.83286 26.4723 5.99638C26.9078 6.16943 27.1734 6.38053 27.3964 6.60355C27.6121 6.81919 27.8166 7.0738 27.9893 7.44744C28.1564 7.80902 28.282 8.25696 28.3786 8.84898C28.5702 10.0228 28.665 11.88 28.665 15C28.665 18.1201 28.5702 19.9772 28.3786 21.1511C28.282 21.7431 28.1564 22.191 27.9893 22.5526C27.8166 22.9262 27.6121 23.1809 27.3964 23.3965C27.1734 23.6195 26.9078 23.8306 26.4723 24.0037C26.0608 24.1672 25.5185 24.2885 24.7495 24.3825C23.2138 24.5701 20.6169 24.665 16 24.665H8.77541L4.77541 28.665H3.33496V15C3.33496 11.88 3.42969 10.0228 3.6213 8.84898C3.71794 8.25696 3.84357 7.80902 4.01064 7.44744C4.18329 7.0738 4.38784 6.81919 4.60348 6.60355C4.8265 6.38053 5.09212 6.16943 5.52761 5.99638C5.93913 5.83286 6.48144 5.71152 7.25042 5.61758Z" fill="#000000" class="bmwfcol"/><title>speech-bubble_lt_48</title></svg>