<svg width="48" height="48" viewBox="0 0 32 32" xmlns="http://www.w3.org/2000/svg"><path d="M21.341 3C20.9652 4.12674 20.6859 4.95318 20.4097 5.59755C20.1213 6.27063 19.8548 6.69868 19.5266 7.02681C19.1985 7.35493 18.7705 7.62145 18.0974 7.90991C17.453 8.18607 16.6266 8.46537 15.4998 8.84118V10.1588C16.6266 10.5346 17.453 10.8139 18.0974 11.0901C18.7705 11.3786 19.1985 11.6451 19.5266 11.9732C19.8548 12.3013 20.1213 12.7294 20.4097 13.4025C20.6859 14.0468 20.9652 14.8733 21.341 16H22.6587C23.0345 14.8733 23.3138 14.0468 23.5899 13.4025C23.8784 12.7294 24.1449 12.3013 24.473 11.9732C24.8012 11.6451 25.2292 11.3786 25.9023 11.0901C26.5467 10.8139 27.3731 10.5346 28.4998 10.1588V8.84118C27.3731 8.46537 26.5467 8.18607 25.9023 7.90991C25.2292 7.62145 24.8012 7.35493 24.473 7.02681C24.1449 6.69868 23.8784 6.27063 23.5899 5.59755C23.3138 4.95318 23.0345 4.12674 22.6587 3H21.341ZM18.5898 9.94116C18.2518 9.79631 17.8716 9.6522 17.4432 9.5C17.8716 9.3478 18.2518 9.20369 18.5898 9.05884C19.3386 8.73793 19.9262 8.39507 20.4105 7.91069C20.8949 7.42632 21.2378 6.83875 21.5587 6.08995C21.7035 5.75198 21.8476 5.37178 21.9998 4.94335C22.152 5.37178 22.2962 5.75198 22.441 6.08995C22.7619 6.83875 23.1048 7.42632 23.5891 7.91069C24.0735 8.39507 24.6611 8.73793 25.4099 9.05884C25.7479 9.20369 26.1281 9.3478 26.5565 9.5C26.1281 9.6522 25.7479 9.79631 25.4099 9.94116C24.6611 10.2621 24.0735 10.6049 23.5891 11.0893C23.1048 11.5737 22.7619 12.1613 22.441 12.9101C22.2962 13.248 22.152 13.6282 21.9998 14.0566C21.8476 13.6282 21.7035 13.248 21.5587 12.9101C21.2378 12.1613 20.8949 11.5737 20.4105 11.0893C19.9262 10.6049 19.3386 10.2621 18.5898 9.94116Z" fill="#000000" class="bmwfcol"/><path d="M14.5001 5.33869C10.8054 5.35783 8.61127 5.45133 7.25042 5.61756C6.48144 5.7115 5.93913 5.83283 5.52761 5.99636C5.09212 6.16941 4.8265 6.38051 4.60348 6.60352C4.38784 6.81917 4.18329 7.07378 4.01064 7.44742C3.84357 7.809 3.71794 8.25693 3.6213 8.84896C3.42969 10.0228 3.33496 11.8799 3.33496 15V28.665H4.77541L8.77541 24.665H16C20.6169 24.665 23.2138 24.57 24.7495 24.3824C25.5185 24.2885 26.0608 24.1672 26.4723 24.0036C26.9078 23.8306 27.1734 23.6195 27.3964 23.3965C27.6121 23.1808 27.8166 22.9262 27.9893 22.5526C28.1564 22.191 28.282 21.7431 28.3786 21.151C28.5702 19.9772 28.665 18.1201 28.665 15C28.665 14.2659 28.6597 13.6018 28.6492 13H27.3189C27.3295 13.596 27.335 14.2597 27.335 15C27.335 18.1199 27.2384 19.8803 27.066 20.9368C26.9806 21.4599 26.881 21.7803 26.7819 21.9947C26.6884 22.1971 26.586 22.326 26.456 22.456C26.3334 22.5786 26.2154 22.6746 25.9812 22.7677C25.723 22.8703 25.3094 22.9742 24.5882 23.0623C23.1436 23.2387 20.623 23.335 16 23.335H8.22451L4.66496 26.8945V15C4.66496 11.8801 4.76148 10.1197 4.93393 9.06323C5.01932 8.5401 5.11893 8.21968 5.21799 8.00528C5.31148 7.80294 5.41396 7.67395 5.54394 7.54398C5.66655 7.42137 5.78452 7.32543 6.01876 7.23235C6.27697 7.12975 6.69051 7.02585 7.41169 6.93775C8.69171 6.78139 10.8165 6.68798 14.5001 6.66873V5.33869Z" fill="#000000" class="bmwfcol"/><path d="M10.6902 12.961C10.8984 12.4751 11.1095 11.8523 11.3938 11H12.6061C12.8904 11.8523 13.1015 12.4751 13.3097 12.961C13.5292 13.473 13.7284 13.7903 13.969 14.0309C14.2097 14.2715 14.5269 14.4708 15.039 14.6902C15.5248 14.8984 16.1476 15.1095 17 15.3939V16.6061C16.1476 16.8905 15.5248 17.1015 15.039 17.3097C14.5269 17.5292 14.2097 17.7284 13.969 17.9691C13.7284 18.2097 13.5292 18.5269 13.3097 19.039C13.1015 19.5248 12.8904 20.1476 12.6061 21H11.3938C11.1095 20.1476 10.8984 19.5248 10.6902 19.039C10.4708 18.5269 10.2715 18.2097 10.0309 17.9691C9.79025 17.7284 9.473 17.5292 8.96096 17.3097C8.47509 17.1015 7.85229 16.8905 6.99996 16.6061V15.3938C7.85229 15.1095 8.47509 14.8984 8.96096 14.6902C9.473 14.4708 9.79025 14.2715 10.0309 14.0309C10.2715 13.7903 10.4708 13.473 10.6902 12.961ZM8.77225 16C9.00532 16.0857 9.21866 16.169 9.41396 16.2527C9.99567 16.502 10.4597 16.7715 10.844 17.1559C11.2284 17.5403 11.4979 18.0043 11.7472 18.586C11.8309 18.7813 11.9143 18.9946 12 19.2277C12.0857 18.9946 12.169 18.7813 12.2527 18.586C12.502 18.0043 12.7715 17.5403 13.1559 17.1559C13.5402 16.7715 14.0043 16.502 14.586 16.2527C14.7813 16.169 14.9946 16.0857 15.2277 16C14.9946 15.9143 14.7813 15.8309 14.586 15.7472C14.0043 15.4979 13.5402 15.2284 13.1559 14.8441C12.7715 14.4597 12.502 13.9957 12.2527 13.414C12.169 13.2187 12.0857 13.0053 12 12.7723C11.9143 13.0053 11.8309 13.2187 11.7472 13.414C11.4979 13.9957 11.2284 14.4597 10.844 14.8441C10.4597 15.2284 9.99567 15.4979 9.41396 15.7472C9.21866 15.8309 9.00532 15.9143 8.77225 16Z" fill="#000000" class="bmwfcol"/><title>speech_bubble_sparkles_lt_48</title></svg>