<svg width="48" height="48" viewBox="0 0 32 32" xmlns="http://www.w3.org/2000/svg"><path d="M20.665 9V3.33496H3.33496V20.665H9V19.335H4.66496V4.66496H19.335V9H20.665Z" fill="#000000" class="bmwfcol"/><path d="M14.6115 9C14.7603 8.74347 14.8412 8.42066 14.8412 8.04701C14.8412 7.56101 14.7067 7.16301 14.4635 6.88501C14.3392 6.74546 14.1858 6.63476 14.0143 6.56066C13.8427 6.48655 13.657 6.45084 13.4702 6.45602C13.2819 6.4511 13.0948 6.48728 12.9219 6.56206C12.749 6.63684 12.5945 6.74842 12.4692 6.88901C12.2235 7.16901 12.0868 7.56902 12.0868 8.05502C12.0868 8.42605 12.1651 8.74579 12.3107 9H14.6115ZM13.2286 7.28024C13.3 7.24594 13.3786 7.22939 13.4578 7.23201C13.5383 7.23007 13.6181 7.2474 13.6905 7.28253C13.763 7.31767 13.826 7.3696 13.8743 7.43401C13.9974 7.61686 14.0573 7.83494 14.045 8.05502C14.0579 8.27339 14.0001 8.49011 13.8801 8.67301C13.8327 8.73645 13.7706 8.7875 13.6992 8.8218C13.6278 8.8561 13.5492 8.87263 13.4701 8.87001C13.3896 8.87196 13.3098 8.85464 13.2373 8.81951C13.1649 8.78437 13.1019 8.73244 13.0536 8.66802C12.9304 8.4852 12.8704 8.2671 12.8828 8.04701C12.8699 7.82863 12.9277 7.61191 13.0478 7.42902C13.0952 7.36558 13.1572 7.31454 13.2286 7.28024Z" fill="#000000" class="bmwfcol"/><path d="M11.5886 9C11.7636 8.75895 11.8684 8.44389 11.8684 8.05085C11.8684 7.50185 11.709 7.10885 11.4253 6.85485C11.1436 6.60185 10.7553 6.50185 10.3277 6.50185H9.32101V9H11.5886ZM10.1006 8.83685V7.26485H10.307C10.5991 7.26485 10.7834 7.33485 10.897 7.45485C11.0106 7.57485 11.0725 7.76685 11.0725 8.05085C11.0857 8.25887 11.0185 8.46401 10.8847 8.62385C10.7628 8.75385 10.5709 8.83685 10.2863 8.83685H10.1006Z" fill="#000000" class="bmwfcol"/><path d="M9 10.9349L8.73947 10.5462L8.70947 10.5022H8.00127V13.5998H8.77247V12.2248C8.77247 12.1573 8.77107 12.0548 8.76937 11.9512L9 12.2948V10.9349Z" fill="#000000" class="bmwfcol"/><path d="M9 14.8029C8.98321 14.7859 8.96577 14.7696 8.94771 14.7539C8.7294 14.5819 8.45729 14.4926 8.17951 14.5019H6.81271V17.5999H7.59271V16.5729H8.13031C8.42155 16.5872 8.70872 16.4999 8.94271 16.3259C8.96262 16.3094 8.98172 16.2921 9 16.2741V14.8029ZM8.40821 15.7419C8.33887 15.7933 8.25309 15.8175 8.16711 15.8099H7.59231V15.2649H8.1588C8.24537 15.2584 8.33153 15.282 8.40261 15.3319C8.43031 15.357 8.45181 15.3883 8.46543 15.4232C8.47905 15.458 8.48441 15.4956 8.48111 15.5329C8.48494 15.5709 8.48041 15.6093 8.46781 15.6455C8.45522 15.6816 8.43487 15.7145 8.40821 15.7419Z" fill="#000000" class="bmwfcol"/><path d="M10.335 10.335H29.665V29.665H10.335V10.335ZM11.665 11.665V28.335H28.335V11.665H11.665Z" fill="#000000" class="bmwfcol"/><path d="M13.7605 16.105V17.412H17.6457C16.2846 19.219 15.4288 21.336 15.3863 23.9H16.7363C16.7746 21.5413 17.6906 19.1487 19.2662 17.393V16.105H13.7605Z" fill="#000000" class="bmwfcol"/><path d="M25.1434 19.43C24.6834 18.981 24.0027 18.72 23.1151 18.72C22.5885 18.7098 22.0667 18.8211 21.5901 19.0453L21.721 17.39H25.3742V16.105H20.5155L20.2438 19.982L21.6239 20.473C22.0247 20.1618 22.5215 20.0002 23.0287 20.016C23.486 20.016 23.8451 20.126 24.0887 20.332C24.3294 20.536 24.4698 20.845 24.4698 21.272C24.4698 21.732 24.3231 22.087 24.0469 22.329C23.7686 22.572 23.3451 22.712 22.7687 22.712C22.04 22.6917 21.327 22.4951 20.6909 22.139L20.6053 22.091L19.9536 23.2021L20.0346 23.2541C20.8401 23.7693 21.7799 24.0351 22.7359 24.0181C23.6292 24.0181 24.4038 23.8031 24.9566 23.3401C25.5123 22.8741 25.8305 22.1681 25.8305 21.2171C25.83 20.507 25.603 19.88 25.1434 19.43Z" fill="#000000" class="bmwfcol"/><title>speed-limit-info-us_lt_48</title></svg>