<svg width="48" height="48" viewBox="0 0 32 32" xmlns="http://www.w3.org/2000/svg"><path d="M20.8133 8.02713C19.298 4.67079 15.9218 2.33496 12 2.33496C6.66213 2.33496 2.33496 6.66213 2.33496 12C2.33496 15.9218 4.67079 19.298 8.02713 20.8133C8.00914 20.5445 8 20.2733 8 20C8 19.7733 8.00629 19.5481 8.0187 19.3244C5.42502 17.9117 3.66496 15.1614 3.66496 12C3.66496 7.39667 7.39667 3.66496 12 3.66496C15.1614 3.66496 17.9117 5.42502 19.3244 8.0187C19.5481 8.00629 19.7733 8 20 8C20.2733 8 20.5445 8.00914 20.8133 8.02713Z" fill="#000000" class="bmwfcol"/><path d="M11.1618 11.8828C11.1332 11.357 10.9178 10.8653 10.6999 10.4907C10.4605 10.0789 10.1743 9.73374 9.97027 9.5297L9.7755 9.33492H7.22459L7.02982 9.5297C6.82578 9.73374 6.53957 10.0789 6.30015 10.4907C6.06623 10.893 5.83504 11.4303 5.83504 11.9999V13.9999H7.16504V13.1649H9.83504V13.6194C10.2246 13.0002 10.6691 12.419 11.1618 11.8828ZM9.55015 11.1592C9.69176 11.4027 9.78497 11.6354 9.81976 11.8349H7.18033C7.21512 11.6354 7.30833 11.4027 7.44994 11.1592C7.56063 10.9688 7.68557 10.7979 7.79528 10.6649H9.20481C9.31452 10.7979 9.43946 10.9688 9.55015 11.1592Z" fill="#000000" class="bmwfcol"/><path d="M20 10.665C14.8444 10.665 10.665 14.8444 10.665 20C10.665 25.1556 14.8444 29.335 20 29.335C25.1556 29.335 29.335 25.1556 29.335 20C29.335 14.8444 25.1556 10.665 20 10.665ZM9.335 20C9.335 14.1099 14.1099 9.335 20 9.335C25.8901 9.335 30.665 14.1099 30.665 20C30.665 25.8901 25.8901 30.665 20 30.665C14.1099 30.665 9.335 25.8901 9.335 20Z" fill="#000000" class="bmwfcol"/><path d="M16.047 23.3001V16.7001H14.8419L13.4978 17.8681V19.1659L14.8419 17.9979V23.3001H16.047ZM21.6362 21.3901V18.6092C21.6362 17.3485 20.7093 16.644 19.634 16.644C18.5587 16.644 17.6225 17.3485 17.6225 18.6092V21.3901C17.6225 22.6507 18.5587 23.3552 19.634 23.3552C20.7093 23.3552 21.6362 22.651 21.6362 21.3901ZM20.4312 21.3808C20.4312 21.937 20.1067 22.2708 19.634 22.2708C19.1613 22.2708 18.8275 21.9371 18.8275 21.3808V18.6277C18.8275 18.0716 19.1612 17.7286 19.634 17.7286C20.1068 17.7286 20.4312 18.0716 20.4312 18.6277V21.3808ZM26.9474 21.3901V18.6092C26.9474 17.3485 26.0205 16.644 24.9452 16.644C23.8699 16.644 22.9337 17.3485 22.9337 18.6092V21.3901C22.9337 22.6507 23.8699 23.3552 24.9452 23.3552C26.0205 23.3552 26.9474 22.651 26.9474 21.3901ZM25.7424 21.3808C25.7424 21.937 25.4179 22.2708 24.9452 22.2708C24.4725 22.2708 24.1387 21.9371 24.1387 21.3808V18.6277C24.1387 18.0716 24.4724 17.7286 24.9452 17.7286C25.418 17.7286 25.7424 18.0716 25.7424 18.6277V21.3808Z" fill="#000000" class="bmwfcol"/><title>speed-limit-info-ece_lt_48</title></svg>