<svg width="48" height="48" viewBox="0 0 32 32" xmlns="http://www.w3.org/2000/svg"><path d="M10.835 12.5C10.835 11.8565 11.3565 11.335 12 11.335C12.6434 11.335 13.165 11.8565 13.165 12.5C13.165 13.1434 12.6434 13.665 12 13.665C11.3565 13.665 10.835 13.1434 10.835 12.5Z" fill="#000000" class="bmwfcol"/><path d="M18.835 12.5C18.835 11.8565 19.3565 11.335 20 11.335C20.6434 11.335 21.165 11.8565 21.165 12.5C21.165 13.1434 20.6434 13.665 20 13.665C19.3565 13.665 18.835 13.1434 18.835 12.5Z" fill="#000000" class="bmwfcol"/><path d="M10.6021 18.3115C11.7958 19.2035 13.7249 19.6649 16.0001 19.6649C18.2753 19.6649 20.2044 19.2035 21.3981 18.3115L20.6021 17.2461C19.7412 17.8894 18.1511 18.3349 16.0001 18.3349C13.8491 18.3349 12.259 17.8894 11.3981 17.2461L10.6021 18.3115Z" fill="#000000" class="bmwfcol"/><path d="M16 5.33496C11.383 5.33496 8.78612 5.42993 7.25042 5.61752C6.48144 5.71146 5.93913 5.83279 5.52761 5.99632C5.09212 6.16937 4.8265 6.38047 4.60348 6.60348C4.38784 6.81913 4.18329 7.07374 4.01064 7.44738C3.84357 7.80896 3.71794 8.2569 3.6213 8.84892C3.42969 10.0228 3.33496 11.8799 3.33496 15V28.665H4.77541L8.77541 24.665H16C20.6169 24.665 23.2138 24.57 24.7495 24.3824C25.5185 24.2885 26.0608 24.1671 26.4723 24.0036C26.9078 23.8305 27.1734 23.6195 27.3964 23.3964C27.6121 23.1808 27.8166 22.9262 27.9893 22.5525C28.1564 22.191 28.282 21.743 28.3786 21.151C28.5702 19.9771 28.665 18.12 28.665 15C28.665 11.8799 28.5702 10.0228 28.3786 8.84892C28.282 8.2569 28.1564 7.80896 27.9893 7.44738C27.8166 7.07374 27.6121 6.81913 27.3964 6.60348C27.1734 6.38047 26.9078 6.16937 26.4723 5.99632C26.0608 5.83279 25.5185 5.71146 24.7495 5.61752C23.2138 5.42993 20.6169 5.33496 16 5.33496ZM5.54394 7.54394C5.66655 7.42133 5.78452 7.32539 6.01876 7.23231C6.27697 7.12971 6.69051 7.02581 7.41169 6.93771C8.85631 6.76124 11.3769 6.66496 16 6.66496C20.623 6.66496 23.1436 6.76124 24.5882 6.93771C25.3094 7.02581 25.723 7.12971 25.9812 7.23231C26.2154 7.32539 26.3334 7.42133 26.456 7.54394C26.586 7.67392 26.6884 7.8029 26.7819 8.00524C26.881 8.21964 26.9806 8.54006 27.066 9.06319C27.2384 10.1196 27.335 11.88 27.335 15C27.335 18.1199 27.2384 19.8803 27.066 20.9367C26.9806 21.4599 26.881 21.7803 26.7819 21.9947C26.6884 22.197 26.586 22.326 26.456 22.456C26.3334 22.5786 26.2154 22.6745 25.9812 22.7676C25.723 22.8702 25.3094 22.9741 24.5882 23.0622C23.1436 23.2387 20.623 23.335 16 23.335H8.22451L4.66496 26.8945V15C4.66496 11.88 4.76148 10.1196 4.93393 9.06319C5.01932 8.54006 5.11893 8.21964 5.21799 8.00524C5.31148 7.8029 5.41396 7.67392 5.54394 7.54394Z" fill="#000000" class="bmwfcol"/><title>speech_bubble_face_lt_48</title></svg>