<svg width="48" height="48" viewBox="0 0 32 32" xmlns="http://www.w3.org/2000/svg"><path d="M5.55535 6.08154C5.41209 6.13901 5.34751 6.19298 5.26983 6.27055C5.18392 6.35632 5.12218 6.43331 5.06415 6.55486C5.00082 6.68755 4.93039 6.89839 4.86785 7.26231C4.74087 8.00119 4.66496 9.25111 4.66496 11.5V20.8945L8.22451 17.335H13C16.5026 17.335 18.3893 17.2591 19.4558 17.1272C19.9882 17.0614 20.2764 16.9858 20.4446 16.9184C20.5878 16.8609 20.6524 16.8069 20.7301 16.7294C20.816 16.6436 20.8777 16.5666 20.9358 16.4451C20.9991 16.3124 21.0695 16.1015 21.1321 15.7376C21.2591 14.9987 21.335 13.7488 21.335 11.5C21.335 9.25111 21.2591 8.00119 21.1321 7.26231C21.0695 6.89839 20.9991 6.68755 20.9358 6.55486C20.8777 6.43331 20.816 6.35632 20.7301 6.27055C20.6524 6.19298 20.5878 6.13901 20.4446 6.08154C20.2764 6.01409 19.9882 5.93856 19.4558 5.87272C18.3893 5.7408 16.5026 5.66496 13 5.66496C9.49735 5.66496 7.61067 5.7408 6.54409 5.87272C6.01176 5.93856 5.72351 6.01409 5.55535 6.08154ZM6.38083 4.55278C7.53925 4.4095 9.50257 4.33496 13 4.33496C16.4974 4.33496 18.4607 4.4095 19.6191 4.55278C20.1993 4.62453 20.6173 4.7178 20.9397 4.84715C21.2871 4.98649 21.4975 5.15732 21.6698 5.32938C21.8339 5.49322 21.9972 5.69104 22.136 5.98191C22.2696 6.26166 22.3679 6.60087 22.4429 7.03704C22.5909 7.89835 22.665 9.24881 22.665 11.5C22.665 13.7511 22.5909 15.1016 22.4429 15.9629C22.3679 16.3991 22.2696 16.7383 22.136 17.018C21.9972 17.3089 21.8339 17.5067 21.6698 17.6705C21.4975 17.8426 21.2871 18.0134 20.9397 18.1528C20.6173 18.2821 20.1993 18.3754 19.6191 18.4471C18.4607 18.5904 16.4974 18.665 13 18.665H8.77541L4.77541 22.665H3.33496V11.5C3.33496 9.24881 3.40905 7.89835 3.55707 7.03704C3.63203 6.60087 3.73036 6.26166 3.86389 5.98191C4.00274 5.69104 4.166 5.49322 4.33009 5.32938C4.50241 5.15732 4.71283 4.98649 5.0602 4.84715C5.38266 4.7178 5.80066 4.62453 6.38083 4.55278Z" fill="#000000" class="bmwfcol"/><path d="M24.5004 11.7852V10.4523C25.2138 10.4984 25.7442 10.5582 26.1486 10.6322C26.5425 10.7043 26.8468 10.7949 27.0967 10.9163C27.3593 11.0438 27.5312 11.1907 27.6699 11.3292C27.834 11.493 27.9973 11.6908 28.1361 11.9817C28.2697 12.2615 28.368 12.6007 28.4429 13.0368C28.591 13.8981 28.6651 15.2486 28.6651 17.4998V28.6648H27.2246L23.2246 24.6648H19.0001C15.5027 24.6648 13.5393 24.5902 12.3809 24.4469C11.8008 24.3752 11.3828 24.2819 11.0603 24.1526C10.7129 24.0132 10.5025 23.8424 10.3302 23.6703C10.1731 23.5135 10.0153 23.3241 9.8795 23.0497C9.74824 22.7846 9.65038 22.4663 9.57489 22.0617C9.50074 21.6642 9.44397 21.1586 9.40431 20.5H10.7368C10.7734 21.0751 10.8228 21.4985 10.8823 21.8177C10.9437 22.1465 11.0113 22.3382 11.0715 22.4597C11.127 22.5719 11.1866 22.646 11.2699 22.7292C11.3476 22.8067 11.4122 22.8607 11.5554 22.9182C11.7236 22.9856 12.0119 23.0612 12.5442 23.127C13.6108 23.2589 15.4974 23.3348 19.0001 23.3348H23.7755L27.3351 26.8943V17.4998C27.3351 15.2509 27.2591 14.001 27.1322 13.2621C27.0696 12.8982 26.9992 12.6873 26.9359 12.5547C26.8778 12.4331 26.8161 12.3561 26.7302 12.2703C26.6605 12.2007 26.6066 12.1568 26.5156 12.1126C26.4119 12.0622 26.2349 12.0001 25.9091 11.9405C25.5799 11.8802 25.13 11.8277 24.5004 11.7852Z" fill="#000000" class="bmwfcol"/><title>speech-bubbles_lt_48</title></svg>