<svg width="48" height="48" viewBox="0 0 32 32" xmlns="http://www.w3.org/2000/svg"><path d="M6.01876 7.23146C5.78452 7.32454 5.66655 7.42047 5.54394 7.54308C5.41396 7.67306 5.31148 7.80205 5.21799 8.00438C5.11893 8.21878 5.01932 8.5392 4.93393 9.06233C4.76148 10.1188 4.66496 11.8792 4.66496 14.9991V26.8937L8.22451 23.3341H16C20.623 23.3341 23.1436 23.2378 24.5882 23.0614C25.3094 22.9733 25.723 22.8694 25.9812 22.7668C26.2154 22.6737 26.3334 22.5777 26.456 22.4551C26.586 22.3252 26.6884 22.1962 26.7819 21.9938C26.881 21.7794 26.9806 21.459 27.066 20.9359C27.2384 19.8794 27.335 18.119 27.335 14.9991C27.335 11.8792 27.2384 10.1188 27.066 9.06233C26.9806 8.5392 26.881 8.21878 26.7819 8.00438C26.6884 7.80205 26.586 7.67306 26.456 7.54308C26.3334 7.42047 26.2154 7.32454 25.9812 7.23146C25.723 7.12885 25.3094 7.02495 24.5882 6.93686C23.1436 6.76039 20.623 6.66411 16 6.66411C11.3769 6.66411 8.85631 6.76039 7.41169 6.93686C6.69051 7.02495 6.27697 7.12885 6.01876 7.23146ZM7.25042 5.61667C8.78612 5.42908 11.383 5.33411 16 5.33411C20.6169 5.33411 23.2138 5.42908 24.7495 5.61667C25.5185 5.7106 26.0608 5.83194 26.4723 5.99547C26.9078 6.16852 27.1734 6.37962 27.3964 6.60263C27.6121 6.81828 27.8166 7.07288 27.9893 7.44652C28.1564 7.8081 28.282 8.25604 28.3786 8.84807C28.5702 10.0219 28.665 11.879 28.665 14.9991C28.665 18.1192 28.5702 19.9763 28.3786 21.1501C28.282 21.7422 28.1564 22.1901 27.9893 22.5517C27.8166 22.9253 27.6121 23.1799 27.3964 23.3956C27.1734 23.6186 26.9078 23.8297 26.4723 24.0027C26.0608 24.1663 25.5185 24.2876 24.7495 24.3815C23.2138 24.5691 20.6169 24.6641 16 24.6641H8.77541L4.77541 28.6641H3.33496V14.9991C3.33496 11.879 3.42969 10.0219 3.6213 8.84807C3.71794 8.25604 3.84357 7.8081 4.01064 7.44652C4.18329 7.07288 4.38784 6.81828 4.60348 6.60263C4.8265 6.37962 5.09212 6.16852 5.52761 5.99547C5.93913 5.83194 6.48144 5.7106 7.25042 5.61667Z" fill="#000000" class="bmwfcol"/><path d="M11.8378 21.5H10.4478C10.8238 20.185 11.2603 19.2692 12.1785 18.7857C12.6513 18.5367 13.1962 18.4329 13.8005 18.3832C14.3979 18.3341 15.1204 18.3341 15.9741 18.3341H16.0258C16.8794 18.3341 17.602 18.3341 18.1994 18.3832C18.8037 18.4329 19.3486 18.5367 19.8214 18.7857C20.7396 19.2692 21.176 20.185 21.552 21.5H20.1621C19.8442 20.5116 19.5617 20.152 19.2017 19.9625C18.9624 19.8365 18.6264 19.7528 18.0904 19.7087C17.5537 19.6646 16.8851 19.6641 15.9999 19.6641C15.1148 19.6641 14.4462 19.6646 13.9094 19.7087C13.3735 19.7528 13.0375 19.8365 12.7982 19.9625C12.4382 20.152 12.1557 20.5116 11.8378 21.5Z" fill="#000000" class="bmwfcol"/><path d="M14.6799 11.0787C14.4098 11.3565 14.165 11.9012 14.165 12.9991C14.165 14.0971 14.4098 14.6417 14.6799 14.9195C14.9438 15.191 15.3554 15.3341 16 15.3341C16.6445 15.3341 17.0561 15.191 17.32 14.9195C17.5901 14.6417 17.835 14.0971 17.835 12.9991C17.835 11.9012 17.5901 11.3565 17.32 11.0787C17.0561 10.8072 16.6445 10.6641 16 10.6641C15.3554 10.6641 14.9438 10.8072 14.6799 11.0787ZM13.7263 10.1516C14.3477 9.5124 15.1862 9.33411 16 9.33411C16.8137 9.33411 17.6522 9.5124 18.2736 10.1516C18.889 10.7845 19.165 11.7399 19.165 12.9991C19.165 14.2583 18.889 15.2137 18.2736 15.8466C17.6522 16.4858 16.8137 16.6641 16 16.6641C15.1862 16.6641 14.3477 16.4858 13.7263 15.8466C13.111 15.2137 12.835 14.2583 12.835 12.9991C12.835 11.7399 13.111 10.7845 13.7263 10.1516Z" fill="#000000" class="bmwfcol"/><title>speech_bubble_with_person_lt_48</title></svg>