<svg width="48" height="48" viewBox="0 0 32 32" xmlns="http://www.w3.org/2000/svg"><path fill-rule="evenodd" clip-rule="evenodd" d="M6.01876 7.23231C5.78452 7.32539 5.66655 7.42133 5.54394 7.54394C5.41396 7.67392 5.31148 7.8029 5.21799 8.00524C5.11893 8.21964 5.01932 8.54006 4.93393 9.06319C4.76148 10.1196 4.66496 11.88 4.66496 15V26.8945L8.22451 23.335H16C20.623 23.335 23.1436 23.2387 24.5882 23.0622C25.3094 22.9741 25.723 22.8702 25.9812 22.7676C26.2154 22.6745 26.3334 22.5786 26.456 22.456C26.586 22.326 26.6884 22.197 26.7819 21.9947C26.881 21.7803 26.9806 21.4599 27.066 20.9367C27.2384 19.8803 27.335 18.1199 27.335 15C27.335 11.88 27.2384 10.1196 27.066 9.06319C26.9806 8.54006 26.881 8.21964 26.7819 8.00524C26.6884 7.8029 26.586 7.67392 26.456 7.54394C26.3334 7.42133 26.2154 7.32539 25.9812 7.23231C25.723 7.12971 25.3094 7.02581 24.5882 6.93771C23.1436 6.76124 20.623 6.66496 16 6.66496C11.3769 6.66496 8.85631 6.76124 7.41169 6.93771C6.69051 7.02581 6.27697 7.12971 6.01876 7.23231ZM7.25042 5.61752C8.78612 5.42993 11.383 5.33496 16 5.33496C20.6169 5.33496 23.2138 5.42993 24.7495 5.61752C25.5185 5.71146 26.0608 5.83279 26.4723 5.99632C26.9078 6.16937 27.1734 6.38047 27.3964 6.60348C27.6121 6.81913 27.8166 7.07374 27.9893 7.44738C28.1564 7.80896 28.282 8.2569 28.3786 8.84892C28.5702 10.0228 28.665 11.8799 28.665 15C28.665 18.12 28.5702 19.9771 28.3786 21.151C28.282 21.743 28.1564 22.191 27.9893 22.5525C27.8166 22.9262 27.6121 23.1808 27.3964 23.3964C27.1734 23.6195 26.9078 23.8305 26.4723 24.0036C26.0608 24.1671 25.5185 24.2885 24.7495 24.3824C23.2138 24.57 20.6169 24.665 16 24.665H8.77541L4.77541 28.665H3.33496V15C3.33496 11.8799 3.42969 10.0228 3.6213 8.84892C3.71794 8.2569 3.84357 7.80896 4.01064 7.44738C4.18329 7.07374 4.38784 6.81913 4.60348 6.60348C4.8265 6.38047 5.09212 6.16937 5.52761 5.99632C5.93913 5.83279 6.48144 5.71146 7.25042 5.61752Z" fill="#000000" class="bmwfcol"/><path fill-rule="evenodd" clip-rule="evenodd" d="M15.0931 16.6245H16.5646L16.6107 16.4505C16.6733 16.2894 16.7833 16.1595 17.1574 15.7461C17.5586 15.3037 17.817 14.9937 18.0852 14.6532C18.5154 14.1047 18.7172 13.6057 18.7172 12.9146C18.7172 12.3416 18.4976 11.7416 18.0467 11.3716C17.6039 11.0197 17.0645 10.8801 16.3457 10.8801C15.6167 10.8801 14.9135 11.0384 14.3709 11.1714L14.2295 11.2061V12.5478L14.4588 12.4925C15.0575 12.3479 15.7288 12.1912 16.2333 12.1912C16.6913 12.1912 16.9645 12.2576 17.112 12.3904C17.215 12.4805 17.2727 12.5664 17.3065 12.6528C17.341 12.7411 17.355 12.8409 17.355 12.9656C17.355 13.3715 17.173 13.6874 16.894 14.0462C16.6328 14.3777 16.2997 14.7512 15.9416 15.1503C15.4939 15.6513 15.3293 15.894 15.1796 16.3218L15.0931 16.6245Z" fill="#000000" class="bmwfcol"/><path fill-rule="evenodd" clip-rule="evenodd" d="M15.1387 19.7547H16.6439V17.8308H15.1387V19.7547Z" fill="#000000" class="bmwfcol"/><title>speech-bubble-question_lt_48</title></svg>