<svg width="48" height="48" viewBox="0 0 32 32" xmlns="http://www.w3.org/2000/svg"><path d="M10.835 12.5C10.835 11.8565 11.3565 11.335 12 11.335C12.6434 11.335 13.165 11.8565 13.165 12.5C13.165 13.1434 12.6434 13.665 12 13.665C11.3565 13.665 10.835 13.1434 10.835 12.5Z" fill="#000000" class="bmwfcol"/><path d="M18.835 12.5C18.835 11.8565 19.3565 11.335 20 11.335C20.6434 11.335 21.165 11.8565 21.165 12.5C21.165 13.1434 20.6434 13.665 20 13.665C19.3565 13.665 18.835 13.1434 18.835 12.5Z" fill="#000000" class="bmwfcol"/><path d="M10.6021 18.3115C11.7958 19.2035 13.7249 19.6649 16.0001 19.6649C18.2753 19.6649 20.2044 19.2035 21.3981 18.3115L20.6021 17.2461C19.7412 17.8894 18.1511 18.3349 16.0001 18.3349C13.8491 18.3349 12.259 17.8894 11.3981 17.2461L10.6021 18.3115Z" fill="#000000" class="bmwfcol"/><path d="M16.665 5.33565V2H15.335V5.33565C11.1308 5.3445 8.71082 5.43913 7.25047 5.61752C6.48149 5.71146 5.93917 5.83279 5.52765 5.99632C5.09217 6.16937 4.82654 6.38047 4.60353 6.60349C4.16327 7.04375 3.85516 7.56957 3.65509 8.65449C3.4787 9.61096 3.37672 11.0512 3.34541 13.3458C3.18468 13.3558 3.01918 13.3768 2.8549 13.4313C2.51142 13.5452 2.2787 13.7794 2.07386 13.9854L2.02973 14.0297L1.83496 14.2245V19.7754L2.02973 19.9702L2.07602 20.0167C2.27904 20.2211 2.51099 20.4546 2.8522 20.5683C3.01393 20.6222 3.17682 20.6435 3.33501 20.6537V28.665H4.77546L8.77546 24.665H16C20.617 24.665 23.2139 24.57 24.7495 24.3824C25.5185 24.2885 26.0608 24.1671 26.4724 24.0036C26.9078 23.8305 27.1735 23.6195 27.3965 23.3964C27.6764 23.1165 27.9224 22.785 28.1138 22.2453C28.2565 21.8431 28.3657 21.3342 28.4484 20.6582C28.6602 20.6488 28.8545 20.627 29.0301 20.5766C29.4234 20.4637 29.6814 20.2285 29.9397 19.9702L30.1345 19.7754V14.2245L29.9397 14.0297C29.92 14.01 29.8999 13.9896 29.8794 13.9688C29.6891 13.776 29.4625 13.5463 29.1378 13.434C28.9753 13.3778 28.8119 13.3563 28.6546 13.3461C28.6233 11.0514 28.5213 9.61101 28.3449 8.65449C28.1448 7.56957 27.8367 7.04375 27.3965 6.60349C27.1735 6.38047 26.9078 6.16937 26.4724 5.99632C26.0608 5.83279 25.5185 5.71146 24.7495 5.61752C23.2892 5.43913 20.8692 5.3445 16.665 5.33565ZM6.01881 7.23231C6.27701 7.12971 6.69055 7.02581 7.41173 6.93771C8.85635 6.76124 11.377 6.66496 16 6.66496C20.6231 6.66496 23.1437 6.76124 24.5883 6.93771C25.3095 7.02581 25.723 7.12971 25.9812 7.23231C26.2154 7.32539 26.3334 7.42133 26.456 7.54394C26.6683 7.75621 26.8752 8.01825 27.037 8.8957C27.2064 9.8144 27.3113 11.3315 27.3314 14.005L27.3364 14.665H27.9964C28.2538 14.665 28.4187 14.6652 28.5426 14.6718C28.6647 14.6784 28.6992 14.6895 28.7034 14.6909C28.7047 14.6906 28.7105 14.6892 28.8045 14.7789V19.2122C28.7216 19.2815 28.6901 19.2905 28.6631 19.2983C28.5579 19.3285 28.3942 19.335 27.8487 19.335H27.2401L27.1863 19.9411C27.1024 20.885 26.9873 21.4428 26.8603 21.8007C26.7428 22.1322 26.6133 22.2987 26.456 22.456C26.3334 22.5786 26.2154 22.6745 25.9812 22.7676C25.723 22.8702 25.3095 22.9741 24.5883 23.0622C23.1437 23.2387 20.6231 23.335 16 23.335H8.22455L4.66501 26.8945V19.335H4.00001C3.74288 19.335 3.57589 19.3347 3.44901 19.3281C3.32404 19.3215 3.28348 19.3102 3.27276 19.3066L3.27139 19.3062C3.26589 19.305 3.25344 19.3022 3.16496 19.2196V14.7805C3.25298 14.6986 3.26609 14.6955 3.27214 14.694L3.27366 14.6936C3.28522 14.6898 3.32661 14.6784 3.45196 14.6719C3.57923 14.6652 3.7465 14.665 4.00359 14.665H4.66361L4.66857 14.005C4.68868 11.3315 4.79361 9.8144 4.96303 8.8957C5.12485 8.01825 5.33171 7.75621 5.54398 7.54394C5.66659 7.42133 5.78457 7.32539 6.01881 7.23231Z" fill="#000000" class="bmwfcol"/><title>speech_bubble_robot_lt_48</title></svg>