<svg width="48" height="48" viewBox="0 0 32 32" xmlns="http://www.w3.org/2000/svg"><path d="M11.0297 11.5298C11.1544 11.4051 11.3236 11.335 11.5 11.335H24.5C24.8672 11.335 25.165 11.6327 25.165 12V17C25.165 17.1764 25.0949 17.3455 24.9702 17.4702L20.9702 21.4702C20.8455 21.5949 20.6763 21.665 20.5 21.665H7.49996C7.13269 21.665 6.83496 21.3673 6.83496 21V16C6.83496 15.8236 6.90502 15.6545 7.02973 15.5298L11.0297 11.5298ZM11.7754 12.665L9.10541 15.335H20.2245L22.8945 12.665H11.7754ZM23.835 13.6054L21.165 16.2754V19.3945L23.835 16.7245V13.6054ZM19.835 20.335V16.665H8.16496V20.335H19.835Z" fill="#000000" class="bmwfcol"/><title>sponge_lt_48</title></svg>