<svg width="48" height="48" viewBox="0 0 32 32" xmlns="http://www.w3.org/2000/svg"><path d="M20.7001 3.49764C20.0814 3.09411 19.4221 2.83102 18.5689 2.66038C16.9415 2.3349 14.5131 2.33493 10.1428 2.33496H9.33594V5.07438L11.0923 6.08843L8.83398 10H10.3697L12.2441 6.75343L13.3362 7.38392V10.8219C11.9048 13.3041 11.1314 14.7225 10.7375 16.0753C10.3358 17.4547 10.3359 18.7434 10.3359 20.9151L10.3359 29.665H21.6659L21.6659 20.9151C21.666 18.7434 21.666 17.4547 21.2644 16.0753C20.8705 14.7225 20.0971 13.3041 18.6657 10.8219V7.6643C19.5335 7.66093 20.1821 7.64092 20.7077 7.52413C21.5144 7.34487 22.0985 6.84283 22.6659 6.27542V5.22451C22.0496 4.60815 21.4339 3.97615 20.7001 3.49764ZM17.3357 7.66496V11.1782C18.3033 12.8542 19.4412 14.5714 19.9874 16.4471C20.3306 17.6257 20.3359 18.7232 20.3359 21V28.335H11.6659V21C11.6659 18.7232 11.6713 17.6257 12.0145 16.4471C12.5606 14.5714 13.6986 12.8542 14.6662 11.1782V7.66496L17.3357 7.66496ZM10.6659 4.3065V3.66503C14.7681 3.66605 16.902 3.68334 18.308 3.96455C19.0173 4.10641 19.5142 4.31207 19.9736 4.61166C20.3895 4.88289 20.7915 5.24136 21.3041 5.74531C20.9815 6.03356 20.7433 6.15378 20.4192 6.2258C19.946 6.33095 19.2871 6.33496 18.0009 6.33496L14.1793 6.33496L10.6659 4.3065Z" fill="#000000" class="bmwfcol"/><title>spray-bottle_lt_48</title></svg>