<svg width="48" height="48" viewBox="0 0 32 32" xmlns="http://www.w3.org/2000/svg"><path d="M14.8741 5.33657C15.431 5.6961 15.9332 6.17145 16.5133 6.75151L16.708 6.94629V7.96148L16.5133 8.15626C16.0262 8.64328 15.6041 8.99983 14.9397 9.1883C14.5857 9.28871 14.1743 9.33715 13.665 9.36005V11.8223C14.9984 14.1422 15.6495 15.5192 15.944 16.8489C16.188 17.9503 16.1803 19.0082 16.1698 20.4754C16.1501 23.2051 16.165 25.9353 16.165 28.6651H5.835C5.835 25.9353 5.84991 23.2051 5.83024 20.4754C5.81966 19.0082 5.81204 17.9503 6.05599 16.8489C6.35051 15.5192 7.00158 14.1422 8.335 11.8223V9.26337L7.19978 8.60795L5.24132 12.0001H3.70557L6.04456 7.94886L4.335 6.98969V4.33528C4.90419 4.33528 5.47337 4.33521 6.04256 4.33485C9.52409 4.33268 11.534 4.33142 12.9065 4.58667C13.6918 4.73271 14.3 4.96595 14.8741 5.33657ZM9.665 9.37962V12.1783C8.76679 13.7341 7.748 15.36 7.35452 17.1365C7.14577 18.079 7.15135 18.9571 7.1606 20.4108C7.17528 22.7188 7.165 25.0271 7.165 27.3351H14.835C14.835 25.027 14.8247 22.7187 14.8394 20.4106C14.8486 18.957 14.8542 18.079 14.6455 17.1365C14.252 15.36 13.2332 13.7341 12.335 12.1783V9.37962L9.665 9.37962ZM5.665 5.66513V6.21087L8.89272 8.04962L12.4287 8.04962C13.6127 8.04962 14.1854 8.01979 14.5767 7.90879C14.8402 7.83404 15.0363 7.7185 15.3291 7.45051C14.8713 7.00209 14.5162 6.68859 14.1528 6.45397C13.7445 6.19042 13.304 6.01339 12.6634 5.89425C11.4188 5.66279 9.54012 5.66355 5.9332 5.66503L5.665 5.66513Z" fill="#000000" class="bmwfcol"/><path d="M27.165 13C27.165 12.0733 27.2779 11.6354 27.3894 11.2452C27.5552 10.6691 27.665 10.1031 27.665 9.49996V4.33496H20.335V9.49996C20.335 10.1031 20.4448 10.6691 20.6105 11.2452C20.7221 11.6354 20.835 12.0733 20.835 13C20.835 13.9267 20.7221 14.3645 20.6105 14.7548C20.4448 15.3308 20.335 15.8968 20.335 16.5V28.665H27.665V16.5C27.665 15.8968 27.5551 15.3308 27.3894 14.7548C27.2779 14.3645 27.165 13.9267 27.165 13ZM21.665 8.33496V5.66496H26.335V8.33496H21.665ZM21.8622 10.7852C21.7622 10.4388 21.6818 10.16 21.6673 9.66496H26.3326C26.3203 10.085 26.2259 10.4786 26.1105 10.8798C25.9721 11.3645 25.835 11.9267 25.835 13C25.835 14.0733 25.9721 14.6354 26.1105 15.1202C26.242 15.5772 26.335 16.0208 26.335 16.5V27.335H21.665V16.5C21.665 16.0208 21.7579 15.5772 21.8894 15.1202C22.0279 14.6354 22.165 14.0733 22.165 13C22.165 12.2416 22.0714 11.5129 21.8622 10.7852Z" fill="#000000" class="bmwfcol"/><title>spray_and_cleaner_bottle_lt_48</title></svg>