<svg width="48" height="48" viewBox="0 0 32 32" xmlns="http://www.w3.org/2000/svg"><path d="M6.85294 2.03778L5.89956 5.89968L2.03766 6.85306C2.01279 7.06529 2 7.28121 2 7.50012C2 7.71902 2.01279 7.93493 2.03766 8.14715L5.89956 9.10053L6.85295 12.9625C7.06517 12.9873 7.28109 13.0001 7.5 13.0001C7.7189 13.0001 7.93481 12.9873 8.14702 12.9625L9.10041 9.10053L12.9623 8.14714C12.9872 7.93493 13 7.71902 13 7.50012C13 7.28122 12.9872 7.06529 12.9623 6.85307L9.10041 5.89968L8.14703 2.03778C7.93481 2.01291 7.7189 2.00012 7.5 2.00012C7.28109 2.00012 7.06517 2.01291 6.85294 2.03778ZM7.49998 3.79774L8.23302 6.76708L11.2023 7.50011L8.23302 8.23314L7.49998 11.2025L6.76695 8.23314L3.79762 7.50011L6.76695 6.76708L7.49998 3.79774Z" fill="#000000" class="bmwfcol"/><path d="M22.2752 5.0372L21.0401 10.0402L16.0371 11.2753C16.0126 11.5135 16 11.7554 16 12.0001C16 12.2449 16.0126 12.4867 16.0371 12.725L21.0401 13.96L22.2752 18.9631C22.5134 18.9876 22.7553 19.0001 23 19.0001C23.2448 19.0001 23.4866 18.9876 23.7249 18.963L24.9599 13.96L29.9629 12.725C29.9874 12.4867 30 12.2449 30 12.0001C30 11.7554 29.9874 11.5135 29.9629 11.2753L24.9599 10.0402L23.7249 5.0372C23.4866 5.01268 23.2448 5.00012 23 5.00012C22.7553 5.00012 22.5134 5.01268 22.2752 5.0372ZM23 6.89922L24.0099 10.9902L28.1009 12.0001L24.0099 13.01L23 17.101L21.9901 13.01L17.8991 12.0001L21.9901 10.9902L23 6.89922Z" fill="#000000" class="bmwfcol"/><path d="M11.1886 12.0362L9.57453 18.5746L3.03608 20.1887C3.0122 20.456 3 20.7266 3 21.0001C3 21.2736 3.0122 21.5442 3.03608 21.8115L9.57453 23.4256L11.1887 29.964C11.4559 29.9879 11.7265 30.0001 12 30.0001C12.2735 30.0001 12.5441 29.9879 12.8114 29.964L14.4255 23.4256L20.9639 21.8115C20.9878 21.5442 21 21.2736 21 21.0001C21 20.7266 20.9878 20.456 20.9639 20.1887L14.4255 18.5746L12.8114 12.0362C12.5441 12.0123 12.2735 12.0001 12 12.0001C11.7265 12.0001 11.4559 12.0123 11.1886 12.0362ZM12 13.965L13.3929 19.6072L19.0351 21.0001L13.3929 22.393L12 28.0352L10.6071 22.393L4.96489 21.0001L10.6071 19.6072L12 13.965Z" fill="#000000" class="bmwfcol"/><title>stars_lt_48</title></svg>