<svg width="48" height="48" viewBox="0 0 32 32" xmlns="http://www.w3.org/2000/svg"><path d="M16.0001 14.835C15.3567 14.835 14.8351 15.3566 14.8351 16C14.8351 16.6434 15.3567 17.165 16.0001 17.165C16.6435 17.165 17.1651 16.6434 17.1651 16C17.1651 15.3566 16.6435 14.835 16.0001 14.835Z" fill="#000000" class="bmwfcol"/><path d="M6.10486 6.10474C8.52136 3.68824 11.949 2.33496 16.0001 2.33496C20.0512 2.33496 23.4788 3.68824 25.8953 6.10474C28.3118 8.52124 29.6651 11.9489 29.6651 16C29.6651 20.0511 28.3118 23.4787 25.8953 25.8952C23.4788 28.3117 20.0512 29.665 16.0001 29.665C11.949 29.665 8.52136 28.3117 6.10486 25.8952C3.68836 23.4787 2.33508 20.0511 2.33508 16C2.33508 11.9489 3.68836 8.52124 6.10486 6.10474ZM7.04531 7.04519C5.23677 8.85373 4.06544 11.337 3.75058 14.335H9.70651C9.85142 13.9079 10.0899 13.4956 10.3787 12.9962L10.4243 12.9173C11.1046 11.7399 11.7558 11.0211 12.7049 10.6598C13.5594 10.3345 14.594 10.3347 15.8853 10.335H16.1149C17.4062 10.3347 18.4408 10.3345 19.2952 10.6598C20.2444 11.0211 20.8956 11.7399 21.5759 12.9173L21.6214 12.996C21.9101 13.4952 22.1487 13.9078 22.2937 14.335H28.2496C27.9347 11.337 26.7634 8.85373 24.9549 7.04519C22.8214 4.91169 19.749 3.66496 16.0001 3.66496C12.2512 3.66496 9.17881 4.91169 7.04531 7.04519ZM28.3317 15.665H22.4216C22.3978 15.879 22.3575 16.1044 22.3052 16.348C22.2071 16.8049 22.0567 17.3688 21.865 18.0874L21.3904 19.8672L28.2052 18.0412C28.291 17.3859 28.3351 16.7049 28.3351 16C28.3351 15.8877 28.334 15.776 28.3317 15.665ZM3.66508 16C3.66508 16.7048 3.70915 17.3858 3.79491 18.041L10.6097 19.8671L10.1364 18.0922C9.94831 17.3869 9.80004 16.831 9.70185 16.3797C9.64617 16.1238 9.60342 15.8882 9.57855 15.665H3.66843C3.6662 15.776 3.66508 15.8877 3.66508 16ZM27.9387 19.4895L19.8013 21.6699C19.6239 21.7175 19.454 21.763 19.291 21.8064L18.7416 28.096C21.2604 27.6386 23.3675 26.5421 24.9549 24.9548C26.3824 23.5272 27.413 21.6792 27.9387 19.4895ZM17.3908 28.2758L17.9257 22.1527C17.1864 22.323 16.5949 22.4149 16.0002 22.4149C15.4039 22.4149 14.8108 22.3225 14.0686 22.1512L14.6035 28.2753C15.0578 28.3148 15.5235 28.335 16.0001 28.335C16.4747 28.335 16.9384 28.315 17.3908 28.2758ZM12.1994 21.6699L4.06148 19.4894C4.58714 21.6792 5.6177 23.5271 7.04531 24.9548C8.63145 26.5409 10.7365 27.6369 13.2527 28.0949L12.7032 21.8047C12.5422 21.7618 12.3745 21.7169 12.1994 21.6699ZM19.908 20.2644L20.5753 17.7621C20.7726 17.0223 20.9144 16.4899 21.0048 16.0687C21.0951 15.6484 21.1239 15.3825 21.1144 15.1733C21.0964 14.7797 20.9484 14.4898 20.4243 13.5827C19.8046 12.5101 19.3506 12.1039 18.8221 11.9028C18.2241 11.6751 17.4446 11.665 16.0001 11.665C14.5556 11.665 13.7761 11.6751 13.1781 11.9028C12.6496 12.1039 12.1956 12.5101 11.5759 13.5827C11.0481 14.4962 10.9012 14.7846 10.8854 15.1827C10.8769 15.3957 10.9079 15.667 11.0014 16.0969C11.0929 16.5173 11.2341 17.0466 11.4287 17.7763L12.0921 20.2643L12.4404 20.3576C14.3405 20.8668 15.1751 21.0849 16.0002 21.0849C16.8254 21.0849 17.66 20.8668 19.5603 20.3576L19.908 20.2644Z" fill="#000000" class="bmwfcol"/><title>steering-wheel_lt_48</title></svg>