<svg width="48" height="48" viewBox="0 0 32 32" xmlns="http://www.w3.org/2000/svg"><path d="M16 2.83496C14.0488 2.83496 12.3712 3.48824 11.1797 4.67973C9.98824 5.87123 9.33496 7.54884 9.33496 9.49996C9.33496 11.4511 9.98824 13.1287 11.1797 14.3202C12.3712 15.5117 14.0488 16.165 16 16.165C17.9511 16.165 19.6287 15.5117 20.8202 14.3202C22.0117 13.1287 22.665 11.4511 22.665 9.49996C22.665 7.54884 22.0117 5.87123 20.8202 4.67973C19.6287 3.48824 17.9511 2.83496 16 2.83496ZM10.6958 8.83496C10.8231 7.49331 11.3373 6.40307 12.1202 5.62019C13.0287 4.71169 14.3511 4.16496 16 4.16496C17.6488 4.16496 18.9712 4.71169 19.8797 5.62019C20.6626 6.40307 21.1769 7.49331 21.3041 8.83496H19.2859C19.2186 8.65644 19.1332 8.47708 19.0298 8.29804C18.6665 7.6693 18.2752 7.23853 17.7016 7.01992C17.214 6.8341 16.652 6.83452 16.0815 6.83494H15.9184C15.3479 6.83452 14.7859 6.8341 14.2983 7.01992C13.7247 7.23853 13.3334 7.6693 12.9701 8.29804C12.8667 8.47708 12.7813 8.65644 12.714 8.83496H10.6958ZM19.4502 10.165H21.3041C21.1769 11.5066 20.6626 12.5968 19.8797 13.3797C19.0968 14.1626 18.0066 14.6769 16.665 14.8041V12.4847C16.8213 12.4558 16.9842 12.4186 17.1604 12.3748C18.0197 12.1616 18.7919 11.6813 19.1958 10.9317C19.3264 10.6891 19.4113 10.432 19.4502 10.165ZM10.6958 10.165H12.5497C12.5887 10.432 12.6736 10.6892 12.8043 10.9317C13.2082 11.6813 13.9805 12.1616 14.8398 12.3748C15.0159 12.4186 15.1787 12.4558 15.335 12.4846V14.8041C13.9933 14.6769 12.9031 14.1626 12.1202 13.3797C11.3373 12.5968 10.8231 11.5066 10.6958 10.165ZM14.1218 8.96341C14.4118 8.46141 14.6038 8.3268 14.7719 8.26273C15.003 8.1747 15.3109 8.16498 16 8.16498C16.689 8.16498 16.9969 8.1747 17.228 8.26273C17.3961 8.3268 17.5881 8.46141 17.8781 8.96341C18.2283 9.56943 18.1843 10.0049 18.0249 10.3008C17.8491 10.6271 17.4529 10.9319 16.84 11.084C16.4326 11.1851 16.2065 11.2211 16 11.2211C15.7936 11.2211 15.5675 11.1851 15.1601 11.084C14.5472 10.9319 14.1509 10.6271 13.9751 10.3008C13.8156 10.0048 13.7716 9.56939 14.1218 8.96341Z" fill="#000000" class="bmwfcol"/><path d="M29.4704 16.5297C29.1821 16.2413 28.7919 15.9206 28.2502 15.7165C27.7038 15.5107 27.0498 15.4409 26.2581 15.5824C24.8326 15.8371 22.9341 16.7816 20.2868 18.9045C20.2579 18.8701 20.2275 18.8368 20.1953 18.8046C19.8787 18.4882 19.4511 18.3349 19 18.3349L14.0878 18.3349L10.3558 17.3349L10.2055 17.3349C9.6195 17.3345 9.13111 17.3341 8.56144 17.6827C8.29789 17.844 8.03096 18.0692 7.72213 18.3577C7.41277 18.6467 7.03122 19.0283 6.53908 19.5204L2.05957 23.9999L7.72457 29.6649H9.27547L11.2755 27.6649H15.0196C16.003 27.6649 16.7675 27.6649 17.3788 27.6328C17.996 27.6003 18.5023 27.5335 18.9604 27.3808C19.8611 27.0806 20.4671 26.4742 21.3805 25.5602L29.9408 16.9999L29.4704 16.5297ZM19.255 19.7452C19.2885 19.7788 19.3352 19.8511 19.3352 19.9998L19.3351 20.721C18.4746 21.5508 17.8598 21.9291 17.2898 22.1191C16.6607 22.3288 16.0238 22.3349 15.0003 22.3349H11V23.6649L15.0598 23.6649C16.0119 23.6651 16.8574 23.6652 17.7105 23.3808C18.5983 23.0848 19.4344 22.506 20.4702 21.4702L20.665 21.2755L20.6652 20.3115C23.5039 17.9647 25.3248 17.1002 26.4921 16.8917C27.0753 16.7874 27.4838 16.8491 27.7813 16.9612C27.858 16.99 27.9304 17.0234 27.9991 17.0606L20.53 24.5297C19.4944 25.5654 19.11 25.929 18.5399 26.1191C18.2479 26.2164 17.8792 26.2746 17.3089 26.3046C16.7367 26.3347 16.0071 26.3349 15 26.3349H10.7246L8.72457 28.3349H8.27547L3.94047 23.9999L7.47025 20.4702C7.97361 19.9668 8.33922 19.6013 8.63005 19.3296C8.92335 19.0556 9.11069 18.9059 9.25566 18.8172C9.47236 18.6846 9.60188 18.6664 10.1811 18.665L13.9127 19.6649L19 19.6649C19.1489 19.6649 19.2214 19.7117 19.255 19.7452Z" fill="#000000" class="bmwfcol"/><title>steering_wheel_on_hand_lt_48</title></svg>