<svg width="48" height="48" viewBox="0 0 32 32" xmlns="http://www.w3.org/2000/svg"><path d="M24.501 6.50025H25.3219C25.1953 7.404 25.3722 8.20426 25.6068 8.91538C25.6898 9.16695 25.7811 9.41074 25.8669 9.63878L25.8801 9.67391C25.9625 9.89256 26.0389 10.0956 26.1066 10.2963C26.2494 10.7197 26.3358 11.0847 26.3358 11.4348C26.3358 12.7619 25.7268 14.114 25.0225 15H26.6302C27.2315 13.9822 27.6658 12.7158 27.6658 11.4348C27.6658 10.8717 27.5272 10.3466 27.3669 9.87122C27.2915 9.6477 27.2074 9.42443 27.1271 9.21131L27.1116 9.1702C27.0252 8.94064 26.9431 8.72079 26.8698 8.49871C26.6548 7.84702 26.5271 7.21032 26.6709 6.50025H27.501V5.82309L26.001 2.82324L24.501 5.82339V6.50025Z" fill="#000000" class="bmwfcol"/><path d="M13 8.33496C14.1901 8.33496 15.3128 8.48522 16.351 8.77415C16.4141 9.02734 16.4904 9.27183 16.5664 9.49609C16.6721 9.80782 16.7656 10.0742 16.8627 10.3424C15.7231 9.90272 14.4276 9.66496 13 9.66496C10.1511 9.66496 7.82869 10.6117 6.22019 12.2202C4.93754 13.5028 4.07569 15.2394 3.77915 17.335L7.90678 17.335C8.01398 17.1057 8.14752 16.8749 8.29422 16.6214L8.33439 16.5519C8.91544 15.5462 9.50109 14.927 10.322 14.6142C11.0561 14.3344 11.9162 14.3347 12.903 14.335H13.0974C14.0502 14.3347 14.885 14.3344 15.6022 14.5863L15.2505 15.0785V15.8752C15.2353 15.8689 15.22 15.8628 15.2047 15.857C14.7265 15.6747 14.1184 15.665 13.0002 15.665C11.882 15.665 11.2739 15.6747 10.7957 15.857C10.3803 16.0153 9.99381 16.3383 9.486 17.2173C9.07537 17.928 8.98709 18.1155 8.97728 18.376C8.97183 18.5206 8.99289 18.7146 9.06429 19.0412C9.13326 19.3567 9.23914 19.7537 9.38632 20.3055L9.40273 20.3671C9.49907 20.7283 9.61582 21.1702 9.7213 21.5698L9.85728 22.0849L10.3012 22.2039C11.7708 22.5977 12.3901 22.7581 12.9999 22.7581C13.6096 22.7581 14.229 22.5977 15.6986 22.2039L16.1431 22.0848L16.2791 21.5698C16.3846 21.1702 16.5013 20.7283 16.5977 20.3671L16.6141 20.3054C16.7613 19.7537 16.8671 19.3567 16.9361 19.0412C17.0075 18.7146 17.0286 18.5206 17.0231 18.376C17.0133 18.1155 16.925 17.928 16.5144 17.2173C16.3365 16.9094 16.1736 16.6698 16.019 16.4815L17.6024 16.4435C17.6236 16.4791 17.6448 16.5152 17.666 16.5519L17.7062 16.6214C17.8529 16.8749 17.9864 17.1057 18.0936 17.335L22.2208 17.335C22.1723 16.9926 22.1088 16.6599 22.0308 16.3371L23.3873 16.3045C23.5705 17.1549 23.665 18.0562 23.665 19C23.665 22.1511 22.6117 24.8287 20.7202 26.7202C18.8287 28.6117 16.1511 29.665 13 29.665C9.84884 29.665 7.17123 28.6117 5.27973 26.7202C3.38824 24.8287 2.33496 22.1511 2.33496 19C2.33496 15.8488 3.38824 13.1712 5.27973 11.2797C7.17123 9.38824 9.84884 8.33496 13 8.33496ZM18.343 18.665C18.3252 18.8733 18.2867 19.0906 18.2354 19.3253C18.1598 19.6712 18.0466 20.0955 17.9051 20.6258L17.8827 20.7098C17.8043 21.0039 17.7121 21.3522 17.6234 21.6881L22.2492 20.4487C22.3059 19.9826 22.335 19.4994 22.335 19C22.335 18.8875 22.3335 18.7758 22.3306 18.665L18.343 18.665ZM3.66937 18.665C3.66644 18.7758 3.66496 18.8875 3.66496 19C3.66496 19.4994 3.69406 19.9826 3.75071 20.4487L8.37701 21.6883C8.28827 21.3523 8.19609 21.0039 8.11764 20.7098L8.09526 20.6259C7.95378 20.0955 7.84061 19.6712 7.76498 19.3253C7.71368 19.0906 7.67518 18.8733 7.65738 18.665L3.66937 18.665ZM21.9703 21.9003L15.8839 23.5312L15.4867 28.0717C17.2171 27.686 18.6687 26.8908 19.7797 25.7797C20.8011 24.7584 21.5556 23.4493 21.9703 21.9003ZM14.5181 23.8819C13.941 24.0149 13.472 24.0881 12.9999 24.0881C12.528 24.0881 12.0592 24.0149 11.4826 23.8821L11.8676 28.2832C12.235 28.3175 12.6126 28.335 13 28.335C13.3876 28.335 13.7654 28.3174 14.1331 28.2831L14.5181 23.8819ZM10.5141 28.0719L10.1168 23.5314L4.02959 21.9003C4.44435 23.4493 5.19887 24.7584 6.22019 25.7797C7.33138 26.8909 8.78327 27.6863 10.5141 28.0719Z" fill="#000000" class="bmwfcol"/><path d="M11.5 19C11.5 18.1716 12.1716 17.5 13 17.5C13.8284 17.5 14.5 18.1716 14.5 19C14.5 19.8284 13.8284 20.5 13 20.5C12.1716 20.5 11.5 19.8284 11.5 19Z" fill="#000000" class="bmwfcol"/><path d="M21.3219 6.50025H20.501V5.82339L22.001 2.82324L23.501 5.82309V6.50025H22.6709C22.5271 7.21032 22.6548 7.84702 22.8698 8.49871C22.9431 8.72079 23.0252 8.94064 23.1116 9.1702L23.1271 9.21131C23.2074 9.42443 23.2915 9.6477 23.3669 9.87122C23.5272 10.3466 23.6658 10.8717 23.6658 11.4348C23.6658 12.7158 23.2315 13.9822 22.6302 15H21.0225C21.7268 14.114 22.3358 12.7619 22.3358 11.4348C22.3358 11.0847 22.2494 10.7197 22.1066 10.2963C22.0389 10.0956 21.9625 9.89265 21.8802 9.67399L21.8669 9.63878C21.7811 9.41074 21.6898 9.16695 21.6068 8.91538C21.3722 8.20426 21.1953 7.404 21.3219 6.50025Z" fill="#000000" class="bmwfcol"/><path d="M16.501 6.50025H17.3219C17.1953 7.404 17.3722 8.20426 17.6068 8.91538C17.6898 9.16695 17.7811 9.41074 17.8669 9.63878L17.8801 9.67391C17.9625 9.89259 18.0389 10.0955 18.1066 10.2963C18.2494 10.7197 18.3358 11.0847 18.3358 11.4348C18.3358 12.7619 17.7268 14.114 17.0225 15H18.6302C19.2315 13.9822 19.6658 12.7158 19.6658 11.4348C19.6658 10.8717 19.5272 10.3466 19.3669 9.87122C19.2915 9.6477 19.2074 9.42443 19.1271 9.21131L19.1116 9.1702C19.0252 8.94064 18.9431 8.72079 18.8698 8.49871C18.6548 7.84702 18.5271 7.21032 18.6709 6.50025H19.501V5.82309L18.001 2.82324L16.501 5.82339V6.50025Z" fill="#000000" class="bmwfcol"/><title>steering-wheel-heating_lt_48</title></svg>