<svg width="48" height="48" viewBox="0 0 32 32" xmlns="http://www.w3.org/2000/svg"><path d="M14.0009 24.6654H17V23.3354H14.0009C13.5521 23.3354 13.2297 23.1887 13.0212 22.9802C12.8127 22.7717 12.6659 22.4493 12.6659 22.0004V12.0004C12.6659 11.5515 12.8127 11.2291 13.0212 11.0206C13.2297 10.8121 13.5521 10.6654 14.0009 10.6654H20.1791L28 6.15001V4.61426L19.8228 9.33539H14.0009C13.2498 9.33539 12.5722 9.58867 12.0807 10.0802C12.0534 10.1075 12.0268 10.1354 12.0009 10.1639C11.9751 10.1354 11.9485 10.1075 11.9212 10.0802C11.4297 9.58867 10.7521 9.33539 10.0009 9.33539H6.48275L12 6.15001V4.61426L4.33594 9.03911V10.6654H10.0009C10.4498 10.6654 10.7722 10.8121 10.9807 11.0206C11.1892 11.2291 11.3359 11.5515 11.3359 12.0004V18.9973L4.33594 23.0387V24.6654L10.0009 24.6654C10.7521 24.6654 11.4297 24.4121 11.9212 23.9206C11.9485 23.8933 11.9751 23.8654 12.0009 23.8369C12.0268 23.8654 12.0534 23.8933 12.0807 23.9206C12.5722 24.4121 13.2498 24.6654 14.0009 24.6654ZM11.3359 20.533V22.0004C11.3359 22.4493 11.1892 22.7717 10.9807 22.9802C10.7722 23.1887 10.4498 23.3354 10.0009 23.3354L6.48207 23.3354L11.3359 20.533Z" fill="#000000" class="bmwfcol"/><path d="M17.999 15.335H16.334V17C16.334 18.9511 16.9873 20.6287 18.1788 21.8202C19.3703 23.0117 21.0479 23.665 22.999 23.665H23.334V28H24.664V24.665H24.999C26.3501 24.665 27.5277 24.2117 28.3692 23.3702C29.2107 22.5287 29.664 21.3511 29.664 20V18.335H27.999C26.6479 18.335 25.4703 18.7882 24.6288 19.6297C24.5433 19.7151 24.4619 19.804 24.3846 19.8962C24.0866 18.8384 23.5557 17.9162 22.8192 17.1797C21.6277 15.9882 19.9501 15.335 17.999 15.335ZM24.664 23C24.664 21.9511 25.0107 21.1287 25.5692 20.5702C26.1277 20.0117 26.9501 19.665 27.999 19.665H28.334V20C28.334 21.0488 27.9873 21.8712 27.4288 22.4297C26.8703 22.9882 26.0479 23.335 24.999 23.335H24.664V23ZM17.664 17V16.665H17.999C19.6479 16.665 20.9703 17.2117 21.8788 18.1202C22.7873 19.0287 23.334 20.3511 23.334 22V22.335H22.999C21.3501 22.335 20.0277 21.7882 19.1192 20.8797C18.2107 19.9712 17.664 18.6488 17.664 17Z" fill="#000000" class="bmwfcol"/><title>steel_beam_and_plant_lt_48</title></svg>