<svg width="48" height="48" viewBox="0 0 32 32" xmlns="http://www.w3.org/2000/svg"><path d="M3.33496 3.33496H6.99996V4.66496H4.66496V11C4.66496 12.9488 5.31169 14.5212 6.39519 15.6047C7.47869 16.6882 9.05108 17.335 11 17.335C12.9488 17.335 14.5212 16.6882 15.6047 15.6047C16.6882 14.5212 17.335 12.9488 17.335 11V4.66496H15V3.33496H18.665V11C18.665 13.2511 17.9117 15.1787 16.5452 16.5452C15.3153 17.7751 13.6308 18.5083 11.665 18.6425V21C11.665 22.9489 12.3117 24.5213 13.3952 25.6048C14.4787 26.6883 16.0511 27.335 18 27.335C19.9488 27.335 21.5212 26.6883 22.6047 25.6048C23.6882 24.5213 24.335 22.9489 24.335 21V19.6155C23.5588 19.497 22.8767 19.1672 22.3547 18.6452C21.6882 17.9787 21.335 17.0511 21.335 16C21.335 14.9488 21.6882 14.0212 22.3547 13.3547C23.0212 12.6882 23.9488 12.335 25 12.335C26.0511 12.335 26.9787 12.6882 27.6452 13.3547C28.3117 14.0212 28.665 14.9488 28.665 16C28.665 17.0511 28.3117 17.9787 27.6452 18.6452C27.1232 19.1672 26.4411 19.497 25.665 19.6155V21C25.665 23.2511 24.9117 25.1787 23.5452 26.5452C22.1787 27.9117 20.2511 28.665 18 28.665C15.7488 28.665 13.8212 27.9117 12.4547 26.5452C11.0882 25.1787 10.335 23.2511 10.335 21V18.6425C8.36915 18.5083 6.68467 17.7751 5.45474 16.5452C4.08824 15.1787 3.33496 13.2511 3.33496 11V3.33496ZM22.665 16C22.665 16.7488 22.9117 17.3212 23.2952 17.7047C23.6787 18.0882 24.2511 18.335 25 18.335C25.7488 18.335 26.3212 18.0882 26.7047 17.7047C27.0882 17.3212 27.335 16.7488 27.335 16C27.335 15.2511 27.0882 14.6787 26.7047 14.2952C26.3212 13.9117 25.7488 13.665 25 13.665C24.2511 13.665 23.6787 13.9117 23.2952 14.2952C22.9117 14.6787 22.665 15.2511 22.665 16Z" fill="#000000" class="bmwfcol"/><title>stetoscope_lt_48</title></svg>