<svg width="48" height="48" viewBox="0 0 32 32" xmlns="http://www.w3.org/2000/svg"><path d="M14 3.66496H18V2.33496H14V3.66496Z" fill="#000000" class="bmwfcol"/><path d="M24.2197 5.95022L27.0497 8.78022L27.9902 7.83977L25.1602 5.00977L24.2197 5.95022Z" fill="#000000" class="bmwfcol"/><path d="M16.665 16.0433V9H15.335V16.0433C15.0327 16.2537 14.835 16.6038 14.835 17C14.835 17.6434 15.3565 18.165 16 18.165C16.6434 18.165 17.165 17.6434 17.165 17C17.165 16.6038 16.9672 16.2537 16.665 16.0433Z" fill="#000000" class="bmwfcol"/><path d="M7.55473 8.55473C9.62123 6.48824 12.5488 5.33496 16 5.33496C19.4511 5.33496 22.3787 6.48824 24.4452 8.55473C26.5117 10.6212 27.665 13.5488 27.665 17C27.665 20.4511 26.5117 23.3787 24.4452 25.4452C22.3787 27.5117 19.4511 28.665 16 28.665C12.5488 28.665 9.62123 27.5117 7.55473 25.4452C5.48824 23.3787 4.33496 20.4511 4.33496 17C4.33496 13.5488 5.48824 10.6212 7.55473 8.55473ZM8.49519 9.49519C6.71169 11.2787 5.66496 13.8511 5.66496 17C5.66496 20.1488 6.71169 22.7212 8.49519 24.5047C10.2787 26.2882 12.8511 27.335 16 27.335C19.1488 27.335 21.7212 26.2882 23.5047 24.5047C25.2882 22.7212 26.335 20.1488 26.335 17C26.335 13.8511 25.2882 11.2787 23.5047 9.49519C21.7212 7.71169 19.1488 6.66496 16 6.66496C12.8511 6.66496 10.2787 7.71169 8.49519 9.49519Z" fill="#000000" class="bmwfcol"/><title>stop-watch_lt_48</title></svg>