<svg width="48" height="48" viewBox="0 0 32 32" xmlns="http://www.w3.org/2000/svg"><path d="M18.0025 4.01939C17.429 3.86572 16.7769 3.81381 16.1856 4.13624C15.5885 4.46181 15.2067 5.08414 14.9808 5.92731C14.7548 6.77048 14.7744 7.50036 15.1286 8.08084C15.4795 8.65573 16.0702 8.93683 16.6437 9.0905C17.2172 9.24417 17.8694 9.29608 18.4607 8.97365C19.0577 8.64809 19.4396 8.02575 19.6655 7.18258C19.8914 6.33941 19.8719 5.60953 19.5176 5.02906C19.1667 4.45417 18.576 4.17306 18.0025 4.01939ZM16.1882 6.25083C16.369 5.57612 16.6081 5.32959 16.784 5.23369C16.9656 5.13467 17.2383 5.10871 17.679 5.2268C18.1197 5.34489 18.3429 5.50371 18.4506 5.68027C18.555 5.85124 18.6389 6.18435 18.4581 6.85906C18.2773 7.53377 18.0381 7.78031 17.8622 7.8762C17.6806 7.97523 17.408 8.00119 16.9672 7.8831C16.5265 7.765 16.3034 7.60619 16.1956 7.42963C16.0913 7.25865 16.0074 6.92555 16.1882 6.25083Z" fill="#000000" class="bmwfcol"/><path d="M25.8308 5.66462C26.7714 5.63798 27.051 5.85386 27.1489 5.97726C27.2807 6.14339 27.3359 6.42954 27.3359 6.99988V7.99988H28.6659V6.99988C28.6659 6.46566 28.6447 5.72298 28.191 5.15083C27.7033 4.53595 26.8885 4.30413 25.7931 4.33515C25.1874 4.35231 24.7403 4.48408 24.3759 4.70494C24.0999 4.87226 23.8821 5.09246 23.7365 5.23973C23.7067 5.26991 23.6798 5.29709 23.6562 5.32006L7.33594 21.2193V22.4185C6.18587 22.7139 5.33594 23.7576 5.33594 24.9999C5.33594 26.4717 6.5291 27.6649 8.00094 27.6649C9.47278 27.6649 10.6659 26.4717 10.6659 24.9999C10.6659 23.7576 9.816 22.7139 8.66594 22.4185V21.7804L10.0786 20.4043C10.8439 20.5928 11.6088 20.7845 12.3752 20.9765L12.3778 20.9771L12.3788 20.9774C13.2316 21.1911 14.0863 21.4052 14.9422 21.6152C15.7256 21.8074 16.4125 21.9439 17.0114 21.9755C17.6164 22.0075 18.1795 21.9356 18.6844 21.6679C19.6866 21.1364 20.1928 19.9754 20.6426 18.3799L21.4222 15.5948C21.8755 13.9741 22.4565 11.8958 22.9668 10.0656C23.1315 9.47464 23.0408 8.83804 22.9429 8.40882C22.9063 8.24816 22.8655 8.10347 22.8281 7.98353L24.5826 6.27433C24.6394 6.2192 24.6874 6.17123 24.7299 6.12876C24.8623 5.99648 24.9415 5.91738 25.0653 5.84233C25.1973 5.76233 25.4099 5.67654 25.8308 5.66462ZM12.6984 19.6864C12.1995 19.5614 11.7 19.4362 11.1999 19.3118L21.7105 9.07237C21.7381 9.30889 21.7349 9.53182 21.6856 9.70846C21.1755 11.5381 20.5947 13.616 20.1413 15.2365L19.3624 18.0195C18.9021 19.6521 18.5075 20.2563 18.0613 20.4928C17.8421 20.6091 17.5441 20.6718 17.0816 20.6474C16.6129 20.6226 16.0258 20.5116 15.2591 20.3235C14.406 20.1142 13.5527 19.9004 12.6984 19.6864ZM8.00094 23.6649C8.73824 23.6649 9.33594 24.2626 9.33594 24.9999C9.33594 25.7372 8.73824 26.3349 8.00094 26.3349C7.26364 26.3349 6.66594 25.7372 6.66594 24.9999C6.66594 24.2626 7.26364 23.6649 8.00094 23.6649Z" fill="#000000" class="bmwfcol"/><path d="M22.0009 22.3349C20.5291 22.3349 19.3359 23.528 19.3359 24.9999C19.3359 26.4717 20.5291 27.6649 22.0009 27.6649C23.4728 27.6649 24.6659 26.4717 24.6659 24.9999C24.6659 23.528 23.4728 22.3349 22.0009 22.3349ZM20.6659 24.9999C20.6659 24.2626 21.2636 23.6649 22.0009 23.6649C22.7382 23.6649 23.3359 24.2626 23.3359 24.9999C23.3359 25.7372 22.7382 26.3349 22.0009 26.3349C21.2636 26.3349 20.6659 25.7372 20.6659 24.9999Z" fill="#000000" class="bmwfcol"/><path d="M6.95084 16.665L4.41683 23H2.98438L6.05039 15.335H11.6657L10.3357 16.665H6.95084Z" fill="#000000" class="bmwfcol"/><title>stroller_lt_48</title></svg>