<svg width="48" height="48" viewBox="0 0 32 32" xmlns="http://www.w3.org/2000/svg"><path d="M3.33398 6.33496H28.664V25.665H3.33398V6.33496ZM4.66398 7.66496V24.335H27.334V7.66496H4.66398Z" fill="#000000" class="bmwfcol"/><path d="M15.403 21.0635V19.4598C14.3898 19.6798 13.3611 19.931 12.3184 19.931C11.6801 19.931 11.202 19.8376 10.8386 19.6496C10.4793 19.4637 10.2197 19.1791 10.0284 18.771C9.75874 18.1929 9.63583 17.218 9.63583 16.0814C9.63583 14.8878 9.75941 13.8079 10.0674 13.1918C10.2724 12.7818 10.5322 12.5068 10.8827 12.3308C11.2376 12.1526 11.699 12.069 12.3184 12.069C12.7769 12.069 13.2267 12.1479 13.7009 12.2427C14.2742 12.3519 14.839 12.4953 15.403 12.6438V11.0256C14.9318 10.8936 14.4553 10.7863 13.975 10.6926C13.4448 10.5974 12.8351 10.5 12.2234 10.5C11.2565 10.5 10.5373 10.6657 9.98099 10.9662C9.42301 11.2676 9.04175 11.6977 8.73988 12.2032C8.1741 13.1508 7.99898 14.572 7.99898 16.0949C7.99898 17.4857 8.1888 18.7772 8.59893 19.5837C8.8793 20.1443 9.25306 20.6281 9.82613 20.9695C10.3979 21.31 11.1535 21.5 12.1827 21.5C13.2735 21.5 14.3411 21.2909 15.403 21.0635Z" fill="#000000" class="bmwfcol"/><path d="M23.6721 21.0635V19.4598C22.6589 19.6796 21.6302 19.931 20.5875 19.931C19.9492 19.931 19.4711 19.8376 19.1077 19.6496C18.7483 19.4637 18.4888 19.179 18.2975 18.7709C18.0278 18.1928 17.9049 17.218 17.9049 16.0814C17.9049 14.8878 18.0285 13.8079 18.3365 13.1918C18.5415 12.7818 18.8013 12.5068 19.1518 12.3308C19.5067 12.1526 19.9681 12.069 20.5875 12.069C21.046 12.069 21.4944 12.1475 21.9686 12.2424C22.5423 12.3517 23.1076 12.4952 23.6721 12.6438V11.0256C23.2013 10.8938 22.7251 10.7864 22.2452 10.6928L22.2441 10.6926L22.779 10.8025C22.2488 10.7073 21.1042 10.5 20.4925 10.5C19.5256 10.5 18.8064 10.6657 18.2501 10.9662C17.6921 11.2676 17.3108 11.6977 17.0089 12.2032C16.4432 13.1508 16.268 14.572 16.268 16.0949C16.268 17.4857 16.4579 18.7772 16.868 19.5837C17.1484 20.1443 17.5221 20.6281 18.0952 20.9695C18.667 21.31 19.4225 21.5 20.4518 21.5C21.5426 21.5 22.6102 21.291 23.6721 21.0635Z" fill="#000000" class="bmwfcol"/><title>subtitel-on_lt_48</title></svg>