<svg width="48" height="48" viewBox="0 0 32 32" xmlns="http://www.w3.org/2000/svg"><path d="M9.33403 6.33496H28.664V25.665L27.334 24.335V7.66496H10.664L9.33403 6.33496Z" fill="#000000" class="bmwfcol"/><path d="M3.33403 6.33496V25.665H22.664L21.334 24.335H4.66403V7.66496L3.33403 6.33496Z" fill="#000000" class="bmwfcol"/><path d="M8.92187 11.9228C8.08389 13.1083 7.99906 14.6926 7.99906 16.095C7.99906 17.4857 8.18888 18.7772 8.59902 19.5837C8.87938 20.1443 9.25315 20.6282 9.82622 20.9695C10.398 21.3101 11.1535 21.5 12.1828 21.5C13.2736 21.5 14.3411 21.291 15.4031 21.0635V19.4598C14.3901 19.6801 13.3611 19.931 12.3185 19.931C11.6802 19.931 11.2021 19.8376 10.8386 19.6496C10.4794 19.4638 10.2198 19.1791 10.0285 18.771C9.75882 18.1929 9.63591 17.2181 9.63591 16.0814C9.63591 15.1194 9.63822 13.9812 10.1097 13.1107L8.92187 11.9228Z" fill="#000000" class="bmwfcol"/><path d="M13.6325 10.6334L15.4031 12.404V11.0256C14.8202 10.8625 14.2297 10.7316 13.6325 10.6334Z" fill="#000000" class="bmwfcol"/><path d="M23.6721 20.6731V19.4598C23.339 19.5323 23.0061 19.6056 22.6718 19.6728L23.6721 20.6731Z" fill="#000000" class="bmwfcol"/><path d="M17.9476 14.9486L16.5111 13.5121C16.6258 13.0181 16.7875 12.5743 17.009 12.2032C17.3109 11.6977 17.6922 11.2677 18.2501 10.9662C18.8065 10.6657 19.5257 10.5 20.4926 10.5C21.1043 10.5 21.7129 10.5972 22.2431 10.6924C22.725 10.78 23.2006 10.8935 23.6721 11.0256V12.6438C23.108 12.4955 22.5434 12.3519 21.9701 12.2427C21.4959 12.1479 21.0461 12.069 20.5876 12.069C19.9682 12.069 19.5068 12.1526 19.1519 12.3309C18.8014 12.5069 18.5416 12.7819 18.3366 13.1919C18.1303 13.6044 18.0067 14.2251 17.9476 14.9486Z" fill="#000000" class="bmwfcol"/><path d="M28.9395 28H27.0586L3.05859 4H4.93949L28.9395 28Z" fill="#000000" class="bmwfcol"/><title>subtitle-off_lt_48</title></svg>