<svg width="48" height="48" viewBox="0 0 32 32" xmlns="http://www.w3.org/2000/svg"><path d="M10.999 19.835C10.3555 19.835 9.83398 20.3565 9.83398 21C9.83398 21.6434 10.3555 22.165 10.999 22.165C11.6424 22.165 12.164 21.6434 12.164 21C12.164 20.3565 11.6424 19.835 10.999 19.835Z" fill="#000000" class="bmwfcol"/><path d="M20.999 19.835C20.3555 19.835 19.834 20.3565 19.834 21C19.834 21.6434 20.3555 22.165 20.999 22.165C21.6424 22.165 22.164 21.6434 22.164 21C22.164 20.3565 21.6424 19.835 20.999 19.835Z" fill="#000000" class="bmwfcol"/><path d="M6.06375 4.06473C6.55883 3.56966 7.24204 3.33496 7.99898 3.33496H23.999C24.7559 3.33496 25.4391 3.56966 25.9342 4.06473C26.4293 4.55981 26.664 5.24302 26.664 5.99996V24C26.664 24.7569 26.4293 25.4401 25.9342 25.9352C25.4391 26.4303 24.7559 26.665 23.999 26.665H22.1501L24.0756 30H22.5398L20.6144 26.665H11.3831L9.45762 30H7.92187L9.84736 26.665H7.99898C7.24204 26.665 6.55883 26.4303 6.06375 25.9352C5.56868 25.4401 5.33398 24.7569 5.33398 24V5.99996C5.33398 5.24302 5.56868 4.55981 6.06375 4.06473ZM7.00421 5.00519C6.80928 5.20012 6.66398 5.5169 6.66398 5.99996V8.33496H25.334V5.99996C25.334 5.5169 25.1887 5.20012 24.9937 5.00519C24.7988 4.81026 24.482 4.66496 23.999 4.66496H7.99898C7.51592 4.66496 7.19914 4.81026 7.00421 5.00519ZM6.66398 16.335H15.334V9.66496H6.66398V16.335ZM6.66398 24C6.66398 24.483 6.80928 24.7998 7.00421 24.9947C7.19914 25.1897 7.51592 25.335 7.99898 25.335H23.999C24.482 25.335 24.7988 25.1897 24.9937 24.9947C25.1887 24.7998 25.334 24.483 25.334 24V17.665H6.66398V24ZM25.334 9.66496H16.664V16.335H25.334V9.66496Z" fill="#000000" class="bmwfcol"/><title>subway-front_lt_48</title></svg>