<svg width="48" height="48" viewBox="0 0 32 32" xmlns="http://www.w3.org/2000/svg"><path d="M24.665 5V2H23.335V5H24.665Z" fill="#000000" class="bmwfcol"/><path d="M21.6418 5.70135L19.5205 3.58003L18.58 4.52048L20.7013 6.6418L21.6418 5.70135Z" fill="#000000" class="bmwfcol"/><path d="M27.2987 6.6418L29.42 4.52048L28.4795 3.58003L26.3582 5.70135L27.2987 6.6418Z" fill="#000000" class="bmwfcol"/><path d="M20 8.335H17V9.665H20V8.335Z" fill="#000000" class="bmwfcol"/><path d="M28 9.665H31V8.335H28V9.665Z" fill="#000000" class="bmwfcol"/><path d="M26.3582 12.2987L28.4795 14.42L29.42 13.4795L27.2986 11.3582L26.3582 12.2987Z" fill="#000000" class="bmwfcol"/><path d="M20.7014 11.3582L18.58 13.4795L19.5205 14.42L21.6418 12.2987L20.7014 11.3582Z" fill="#000000" class="bmwfcol"/><path d="M23.335 13V16H24.665V13H23.335Z" fill="#000000" class="bmwfcol"/><path d="M24 6.375C22.5503 6.375 21.375 7.55025 21.375 9C21.375 10.4497 22.5503 11.625 24 11.625C25.4497 11.625 26.625 10.4497 26.625 9C26.625 7.55025 25.4497 6.375 24 6.375ZM22.625 9C22.625 8.24061 23.2406 7.625 24 7.625C24.7594 7.625 25.375 8.24061 25.375 9C25.375 9.75939 24.7594 10.375 24 10.375C23.2406 10.375 22.625 9.75939 22.625 9Z" fill="#000000" class="bmwfcol"/><path d="M3.66594 18.4995C3.66594 15.6953 4.32308 13.1893 5.35121 11.4072C6.38951 9.60744 7.72426 8.66447 9.05863 8.66447H13.9051C14.443 8.66447 14.981 8.81772 15.4996 9.11858V7.64154C14.9956 7.44261 14.4625 7.33447 13.9051 7.33447H9.05863C7.04743 7.33447 5.35333 8.74201 4.19918 10.7425C3.03486 12.7607 2.33594 15.5046 2.33594 18.4995C2.33594 21.4943 3.03486 24.2382 4.19918 26.2564C5.35333 28.2569 7.04743 29.6645 9.05863 29.6645H13.9051C15.9163 29.6645 17.6104 28.2569 18.7645 26.2564C19.9288 24.2382 20.6278 21.4943 20.6278 18.4995C20.6278 17.818 20.5916 17.1495 20.5219 16.4996H19.1838C19.2584 17.1442 19.2978 17.8129 19.2978 18.4995C19.2978 21.3036 18.6406 23.8097 17.6125 25.5918C16.5742 27.3915 15.2394 28.3345 13.9051 28.3345H9.05863C7.72426 28.3345 6.38951 27.3915 5.35121 25.5918C4.32308 23.8097 3.66594 21.3036 3.66594 18.4995Z" fill="#000000" class="bmwfcol"/><path d="M13.9038 10.9692C14.5415 10.9692 15.0989 11.2628 15.5499 11.692C15.9975 12.118 16.3704 12.703 16.669 13.375C17.2671 14.7206 17.6201 16.533 17.6201 18.4996C17.6201 20.4662 17.2671 22.2786 16.669 23.6243C16.3704 24.2963 15.9975 24.8812 15.5499 25.3072C15.0989 25.7365 14.5415 26.03 13.9038 26.03C13.2661 26.03 12.7087 25.7365 12.2576 25.3072C11.81 24.8812 11.4372 24.2963 11.1385 23.6243C10.5404 22.2786 10.1875 20.4662 10.1875 18.4996C10.1875 16.533 10.5404 14.7206 11.1385 13.375C11.4372 12.703 11.81 12.118 12.2576 11.692C12.7087 11.2628 13.2661 10.9692 13.9038 10.9692ZM12.2028 14.2831C11.7829 15.3911 11.5175 16.863 11.5175 18.4996C11.5175 20.1362 11.7829 21.608 12.2028 22.716C12.5931 21.5759 12.8366 20.1153 12.8366 18.4995C12.8366 16.8838 12.5931 15.4233 12.2028 14.2831ZM13.0303 24.1934C13.0783 24.2479 13.1265 24.298 13.1745 24.3438C13.4536 24.6093 13.6989 24.7 13.9038 24.7C14.1087 24.7 14.354 24.6093 14.633 24.3438C14.9155 24.0749 15.2002 23.6545 15.4537 23.0841C15.96 21.945 16.2901 20.3247 16.2901 18.4996C16.2901 16.6746 15.96 15.0543 15.4537 13.9151C15.2002 13.3447 14.9155 12.9243 14.633 12.6555C14.354 12.3899 14.1087 12.2992 13.9038 12.2992C13.6989 12.2992 13.4536 12.3899 13.1745 12.6555C13.1265 12.7012 13.0784 12.7513 13.0304 12.8058C13.7437 14.2534 14.1666 16.2877 14.1666 18.4995C14.1666 20.7114 13.7437 22.7458 13.0303 24.1934Z" fill="#000000" class="bmwfcol"/><title>summer_tyre_lt_48</title></svg>