<svg width="48" height="48" viewBox="0 0 32 32" xmlns="http://www.w3.org/2000/svg"><path d="M8.33594 4V2H9.66594V4H8.33594Z" fill="#000000" class="bmwfcol"/><path d="M9.66594 14V16H8.33594V14H9.66594Z" fill="#000000" class="bmwfcol"/><path d="M30.4697 4.47024L23.9995 10.9405L20.5293 7.47024L21.4697 6.52979L23.9995 9.05956L29.5293 3.52979L30.4697 4.47024Z" fill="#000000" class="bmwfcol"/><path d="M19.001 15.335C17.6028 15.3349 16.1604 15.2932 14.8174 15.7446C13.6126 16.1496 12.442 16.9348 10.7351 18.3557C7.63445 18.6268 5.99278 18.7723 4.83879 19.0287C3.55929 19.3131 2.45813 19.9683 1.33619 20.616L1.33594 25.0136C2.22593 25.2521 3.12811 25.5667 4.05104 25.6491C4.51099 26.829 5.65834 27.665 7.00097 27.665C8.33756 27.665 9.48065 26.8364 9.94466 25.665H21.0573C21.5213 26.8364 22.6644 27.665 24.001 27.665C25.3381 27.665 26.4815 26.8358 26.9452 25.6637C28.3209 25.65 29.5037 25.0551 30.6662 24.3839L30.6659 21.7245C30.1598 21.2184 29.666 20.7497 29.666 19.9999L29.6659 18.3906L27.4386 18.1957C26.1293 17.4374 24.8216 16.6403 23.4066 16.0913C22.0984 15.5838 20.777 15.335 19.001 15.335ZM27.1614 24.3292C27.0727 22.6606 25.6916 21.335 24.001 21.335C22.3083 21.335 20.926 22.6637 20.8402 24.335H10.1617C10.0759 22.6637 8.6936 21.335 7.00097 21.335C5.32826 21.335 3.95863 22.6326 3.84376 24.2761C3.59851 24.2289 3.2485 24.1448 2.666 23.9919L2.66614 21.3843C3.67979 20.8026 4.20871 20.5312 5.12735 20.3271C7.12693 19.8826 9.23414 19.822 11.268 19.6442C12.4663 18.6387 13.732 17.5126 15.2412 17.0053C16.2336 16.6717 17.2222 16.665 19.001 16.665C20.6335 16.665 21.7892 16.8904 22.9256 17.3313C24.3678 17.8908 25.6936 18.7224 27.0282 19.4949L28.3359 19.6093C28.336 20.6983 28.5824 21.4625 29.336 22.269L29.3361 23.6136C28.6276 24.0113 27.9775 24.3072 27.1614 24.3292ZM7.00097 22.665C8.01441 22.665 8.83597 23.4865 8.83597 24.5C8.83597 25.5134 8.01441 26.335 7.00097 26.335C5.98752 26.335 5.16597 25.5134 5.16597 24.5C5.16597 23.4865 5.98752 22.665 7.00097 22.665ZM24.001 22.665C25.0144 22.665 25.836 23.4865 25.836 24.5C25.836 25.5134 25.0144 26.335 24.001 26.335C22.9875 26.335 22.166 25.5134 22.166 24.5C22.166 23.4865 22.9875 22.665 24.001 22.665Z" fill="#000000" class="bmwfcol"/><path d="M9.00094 5.83496C7.25296 5.83496 5.83594 7.25198 5.83594 8.99996C5.83594 10.7479 7.25296 12.165 9.00094 12.165C10.7489 12.165 12.1659 10.7479 12.1659 8.99996C12.1659 7.25198 10.7489 5.83496 9.00094 5.83496ZM7.16594 8.99996C7.16594 7.98652 7.98749 7.16496 9.00094 7.16496C10.0144 7.16496 10.8359 7.98652 10.8359 8.99996C10.8359 10.0134 10.0144 10.835 9.00094 10.835C7.98749 10.835 7.16594 10.0134 7.16594 8.99996Z" fill="#000000" class="bmwfcol"/><path d="M3.58008 4.52002L4.99429 5.93423L5.93474 4.99378L4.52053 3.57957L3.58008 4.52002Z" fill="#000000" class="bmwfcol"/><path d="M14.42 13.4791L13.0058 12.0648L12.0654 13.0053L13.4796 14.4195L14.42 13.4791Z" fill="#000000" class="bmwfcol"/><path d="M4 9.66504H2V8.33504H4V9.66504Z" fill="#000000" class="bmwfcol"/><path d="M14 8.33504H16V9.66504H14V8.33504Z" fill="#000000" class="bmwfcol"/><path d="M4.52148 14.4204L5.9357 13.0062L4.99525 12.0657L3.58103 13.48L4.52148 14.4204Z" fill="#000000" class="bmwfcol"/><path d="M13.4805 3.58046L12.0663 4.99468L13.0068 5.93513L14.421 4.52092L13.4805 3.58046Z" fill="#000000" class="bmwfcol"/><title>summer-check_lt_48</title></svg>