<svg width="48" height="48" viewBox="0 0 32 32" xmlns="http://www.w3.org/2000/svg"><path d="M16 9.665C12.5013 9.665 9.665 12.5013 9.665 16C9.665 19.4987 12.5013 22.335 16 22.335C19.4987 22.335 22.335 19.4987 22.335 16C22.335 12.5013 19.4987 9.665 16 9.665ZM8.335 16C8.335 11.7667 11.7667 8.335 16 8.335C20.2333 8.335 23.665 11.7667 23.665 16C23.665 20.2333 20.2333 23.665 16 23.665C11.7667 23.665 8.335 20.2333 8.335 16Z" fill="#000000" class="bmwfcol"/><path d="M16.665 1V5H15.335V1H16.665ZM7.7516 8.69205L4.92317 5.86362L5.86362 4.92317L8.69205 7.7516L7.7516 8.69205ZM27.0768 5.86362L24.2484 8.69205L23.3079 7.7516L26.1364 4.92317L27.0768 5.86362ZM5 16.665H1V15.335H5V16.665ZM31 16.665H27V15.335H31V16.665ZM8.69205 24.2484L5.86362 27.0768L4.92317 26.1364L7.7516 23.3079L8.69205 24.2484ZM26.1364 27.0768L23.3079 24.2484L24.2484 23.3079L27.0768 26.1364L26.1364 27.0768ZM16.665 27V31H15.335V27H16.665Z" fill="#000000" class="bmwfcol"/><title>sun_lt_48</title></svg>