<svg width="48" height="48" viewBox="0 0 32 32" xmlns="http://www.w3.org/2000/svg"><path d="M12.665 7V3H11.335V7H12.665Z" fill="#000000" class="bmwfcol"/><path d="M8.93469 7.99424L6.10626 5.16581L5.16581 6.10626L7.99424 8.93469L8.93469 7.99424Z" fill="#000000" class="bmwfcol"/><path d="M16.0058 8.93469L18.8342 6.10627L17.8937 5.16581L15.0653 7.99424L16.0058 8.93469Z" fill="#000000" class="bmwfcol"/><path d="M7 11.335H3V12.665H7V11.335Z" fill="#000000" class="bmwfcol"/><path d="M7.99424 15.0653L5.16581 17.8937L6.10627 18.8342L8.93469 16.0058L7.99424 15.0653Z" fill="#000000" class="bmwfcol"/><path d="M15.5269 11C15.0916 9.46189 13.6774 8.33496 12 8.33496C9.97584 8.33496 8.33496 9.97584 8.33496 12C8.33496 13.6774 9.46189 15.0916 11 15.5269V14.1106C10.2107 13.736 9.66496 12.9317 9.66496 12C9.66496 10.7104 10.7104 9.66496 12 9.66496C12.9317 9.66496 13.736 10.2107 14.1106 11H15.5269Z" fill="#000000" class="bmwfcol"/><path d="M28.665 12.335H12.335V23.665H19.835V26.335H4V27.665H28V26.335H21.165V23.665H28.665V12.335ZM13.665 17.335V13.665H17.335V17.335H13.665ZM18.665 17.335V13.665H22.335V17.335H18.665ZM22.335 18.665V22.335H18.665V18.665H22.335ZM23.665 22.335V18.665H27.335V22.335H23.665ZM23.665 17.335V13.665H27.335V17.335H23.665ZM13.665 18.665L17.335 18.665V22.335H13.665V18.665Z" fill="#000000" class="bmwfcol"/><title>sun_and_solar_panel_lt_48</title></svg>