<svg width="48" height="48" viewBox="0 0 32 32" xmlns="http://www.w3.org/2000/svg"><path d="M18.335 6.66502H2V5.33502H30V6.66502H19.665V11.1355L26.6378 9.26711L29.829 21.177L14.1929 25.3667C13.7277 25.4913 13.3009 25.6057 12.92 25.6728C12.5284 25.7417 12.1366 25.7704 11.7449 25.6935C11.0439 25.5559 10.506 25.1147 9.97045 24.4275L4.8445 25.801L2.94736 18.7208L5.48487 18.0408L4.43386 16.5398L4.10242 15.3054L18.335 11.4918V6.66502ZM9.1472 23.2712L6.29669 19.2002L4.57627 19.6612L5.78495 24.1721L9.1472 23.2712ZM10.7814 23.2863C11.3693 24.1259 11.7086 24.331 12.0012 24.3885C12.1669 24.421 12.377 24.4179 12.6894 24.3629C13.0066 24.3071 13.3785 24.208 13.8706 24.0761L28.2001 20.2365L25.6973 10.896L5.83265 16.2188L10.7814 23.2863Z" fill="#000000" class="bmwfcol"/><title>surveillance-camera_lt_48</title></svg>