<svg width="48" height="48" viewBox="0 0 32 32" xmlns="http://www.w3.org/2000/svg"><path d="M17.1149 5.00002C17.1149 5.98805 16.6969 6.8816 15.9855 7.46532L17.0042 7.73827L13.828 19.5919L12.8621 19.3331L11.7919 23.3271C11.5965 24.0594 11.1934 24.6594 10.5873 25.0092C11.0003 25.5534 11.215 26.2418 11.215 27C11.215 28.7268 9.93811 30.165 8.05001 30.165C7.14889 30.165 6.34628 29.8617 5.76728 29.2827C5.18829 28.7038 4.88501 27.9011 4.88501 27C4.88501 26.0989 5.18829 25.2963 5.76728 24.7173C6.07556 24.409 6.44722 24.1789 6.86339 24.0311L6.84859 24.0058C6.49959 23.3999 6.44971 22.6802 6.64277 21.9504L6.64331 21.9484L7.71372 17.9536L6.74778 17.6948L9.92395 5.84113L10.9575 6.11807C10.8432 5.77136 10.7849 5.39516 10.7849 5.00002C10.7849 4.0989 11.0882 3.29629 11.6672 2.7173C12.2462 2.1383 13.0488 1.83502 13.9499 1.83502C14.851 1.83502 15.6536 2.1383 16.2326 2.7173C16.8116 3.29629 17.1149 4.0989 17.1149 5.00002ZM12.1149 5.00002C12.1149 5.5989 12.3116 6.04629 12.6076 6.3423C12.785 6.51967 13.0168 6.6614 13.3029 6.74651L13.4058 6.77407C13.5706 6.81353 13.752 6.83502 13.9499 6.83502C15.0618 6.83502 15.7849 6.03465 15.7849 5.00002C15.7849 4.40114 15.5882 3.95375 15.2922 3.65775C14.9962 3.36175 14.5488 3.16502 13.9499 3.16502C13.351 3.16502 12.9036 3.36175 12.6076 3.65775C12.3116 3.95375 12.1149 4.40114 12.1149 5.00002ZM13.067 8.06021C13.0279 8.05051 12.9892 8.04013 12.9508 8.02909L10.8644 7.47004L8.37669 16.7543L12.8876 17.963L15.3753 8.67872L13.067 8.06021ZM8.52775 25.2123L8.51179 25.208C8.36943 25.18 8.2155 25.165 8.05001 25.165C7.45113 25.165 7.00374 25.3617 6.70774 25.6577C6.41173 25.9538 6.21501 26.4011 6.21501 27C6.21501 27.5989 6.41173 28.0463 6.70774 28.3423C7.00374 28.6383 7.45113 28.835 8.05001 28.835C9.16191 28.835 9.88501 28.0346 9.88501 27C9.88501 26.4011 9.68829 25.9538 9.39228 25.6577C9.21446 25.4799 8.98201 25.3379 8.6949 25.2529C8.63927 25.2408 8.58354 25.2273 8.52775 25.2123ZM9.92169 23.8578C10.1596 23.7207 10.3819 23.453 10.5068 22.9845L11.5774 18.9889L8.9984 18.2978L7.92854 22.2906C7.8052 22.7576 7.86331 23.1028 8.00107 23.3419C8.13432 23.5733 8.38945 23.789 8.82909 23.9157C8.89099 23.9291 8.95213 23.944 9.01247 23.9606C9.40923 24.0402 9.70789 23.9809 9.92169 23.8578Z" fill="#000000" class="bmwfcol"/><path d="M23.665 2V4.33502H26V5.66502H23.665V8H22.335V5.66502H20V4.33502H22.335V2H23.665Z" fill="#000000" class="bmwfcol"/><path d="M20 26.335V27.665H26V26.335L20 26.335Z" fill="#000000" class="bmwfcol"/><path d="M26 19.4163L23.665 21.7513V18H22.335V21.7513L20 19.4163V21.1841L23 24.1841L26 21.1841V19.4163Z" fill="#000000" class="bmwfcol"/><path d="M23.665 12.2862L26 14.6212V12.8534L23 9.85341L20 12.8534V14.6212L22.335 12.2862V16.0375H23.665V12.2862Z" fill="#000000" class="bmwfcol"/><title>suspension_arrows_plus_minus_lt_48</title></svg>