<svg width="48" height="48" viewBox="0 0 32 32" xmlns="http://www.w3.org/2000/svg"><path d="M3.00094 6.33496H2.33594V16C2.33594 18.8511 3.28921 21.2787 5.00571 22.9952C6.72221 24.7117 9.14982 25.665 12.0009 25.665H20.0009C22.8521 25.665 25.2797 24.7117 26.9962 22.9952C28.7127 21.2787 29.6659 18.8511 29.6659 16V15.335L20.0009 15.335C16.9444 15.335 14.384 16.4324 12.6659 18.3644V16C12.6659 13.1488 11.7127 10.7212 9.99616 9.00473C8.27967 7.28824 5.85206 6.33496 3.00094 6.33496ZM12.6659 20.6814C13.9877 18.1965 16.5694 16.665 20.0009 16.665L28.3162 16.665C28.1816 18.9104 27.3624 20.748 26.0557 22.0547C24.6222 23.4882 22.5498 24.335 20.0009 24.335H12.6659V20.6814ZM3.66594 16V7.68465C5.9114 7.81932 7.74899 8.63847 9.05571 9.94519C10.4892 11.3787 11.3359 13.4511 11.3359 16V24.3153C9.09048 24.1806 7.25288 23.3615 5.94616 22.0547C4.51266 20.6212 3.66594 18.5488 3.66594 16Z" fill="#000000" class="bmwfcol"/><title>sustainability_logo_lt_48</title></svg>