<svg width="48" height="48" viewBox="0 0 32 32" xmlns="http://www.w3.org/2000/svg"><path d="M27.0596 28H28.9405L4.94047 4H3.05957L27.0596 28Z" fill="#000000" class="bmwfcol"/><path d="M14.8164 9.74463C14.3503 9.90133 13.8892 10.1149 13.4003 10.4003L14.3781 11.3781C14.6799 11.2195 14.9622 11.0988 15.2402 11.0053C16.2326 10.6717 17.2212 10.665 19 10.665C20.6325 10.665 21.7882 10.8904 22.9246 11.3313C24.0329 11.7613 25.1334 12.3985 26.6685 13.2873L27.0272 13.4949L28.335 13.6093L28.335 14.0155C28.3349 14.2706 28.3348 14.6276 28.5075 15.0594C28.6565 15.4319 28.9163 15.8209 29.335 16.269L29.3352 17.6136C29.2141 17.6816 29.1029 17.7426 29 17.7975V19.2789C29.3792 19.1129 29.8002 18.8833 30.3327 18.5759L30.6652 18.3839L30.665 15.7245L30.4702 15.5297C30.005 15.0645 29.8216 14.7633 29.7424 14.5655C29.6687 14.3812 29.665 14.2439 29.665 13.9999L29.6649 12.3906L27.4376 12.1957L27.2897 12.11C25.8 11.2472 24.6135 10.56 23.4057 10.0913C22.0975 9.58377 20.776 9.33497 19 9.33497L18.919 9.33496C17.2402 9.33486 16.0356 9.33479 14.8164 9.74463Z" fill="#000000" class="bmwfcol"/><path d="M26.665 22C26.665 22.4469 26.5253 22.8801 26.2027 23.2027L25.2622 22.2622C25.2847 22.2398 25.335 22.173 25.335 22V16C25.335 15.8269 25.2847 15.7601 25.2622 15.7377C25.2398 15.7153 25.173 15.665 25 15.665H18.665L17.335 14.335H25C25.4469 14.335 25.8801 14.4747 26.2027 14.7972C26.5253 15.1198 26.665 15.553 26.665 16V22Z" fill="#000000" class="bmwfcol"/><path d="M19.335 22.335L20.665 23.665H15C14.553 23.665 14.1198 23.5253 13.7972 23.2027C13.4747 22.8801 13.335 22.4469 13.335 22V16.335L14.665 17.665V22C14.665 22.173 14.7153 22.2398 14.7377 22.2622C14.7601 22.2847 14.8269 22.335 15 22.335H19.335Z" fill="#000000" class="bmwfcol"/><path d="M4.83781 13.0287C5.82344 12.8097 7.16481 12.6716 9.46707 12.4671L10.6943 13.6943C7.65263 13.9605 6.15678 14.098 5.12637 14.3271C4.20773 14.5312 3.67881 14.8026 2.66517 15.3843L2.66502 17.9919C3.2475 18.1448 3.5975 18.2289 3.84276 18.2761C3.95762 16.6326 5.32725 15.335 6.99996 15.335C8.6926 15.335 10.0749 16.6637 10.1607 18.335H11V19.665H9.94366C9.47964 20.8364 8.33656 21.665 6.99996 21.665C5.65734 21.665 4.50998 20.829 4.05004 19.6491C3.93211 19.6386 3.80167 19.621 3.64335 19.5919C3.27586 19.5242 2.75025 19.3928 1.82788 19.1457L1.33496 19.0136L1.33521 14.616L1.70098 14.4048C2.91526 13.7037 3.61276 13.301 4.83781 13.0287ZM5.16496 18.5C5.16496 19.5134 5.98652 20.335 6.99996 20.335C8.0134 20.335 8.83496 19.5134 8.83496 18.5C8.83496 17.4865 8.0134 16.665 6.99996 16.665C5.98652 16.665 5.16496 17.4865 5.16496 18.5Z" fill="#000000" class="bmwfcol"/><title>take-card-out-of-car_lt_48</title></svg>