<svg width="48" height="48" viewBox="0 0 32 32" xmlns="http://www.w3.org/2000/svg"><path d="M25 6.66496H20V5.33496H25C25.4469 5.33496 25.8801 5.47466 26.2027 5.79724C26.5253 6.11981 26.665 6.55302 26.665 6.99996V12H25.335V6.99996C25.335 6.8269 25.2847 6.76012 25.2622 6.73769C25.2398 6.71526 25.173 6.66496 25 6.66496Z" fill="#000000" class="bmwfcol"/><path d="M25 25.335H20V26.665H25C25.4469 26.665 25.8801 26.5253 26.2027 26.2027C26.5253 25.8801 26.665 25.4469 26.665 25V20H25.335V25C25.335 25.173 25.2847 25.2398 25.2622 25.2622C25.2398 25.2847 25.173 25.335 25 25.335Z" fill="#000000" class="bmwfcol"/><path d="M6.99996 6.66496H12V5.33496H6.99996C6.55302 5.33496 6.11981 5.47466 5.79724 5.79724C5.47466 6.11981 5.33496 6.55302 5.33496 6.99996V12H6.66496V6.99996C6.66496 6.8269 6.71526 6.76012 6.73769 6.73769C6.76012 6.71526 6.8269 6.66496 6.99996 6.66496Z" fill="#000000" class="bmwfcol"/><path d="M6.99996 25.335H12V26.665H6.99996C6.55302 26.665 6.11981 26.5253 5.79724 26.2027C5.47466 25.8801 5.33496 25.4469 5.33496 25V20H6.66496V25C6.66496 25.173 6.71526 25.2398 6.73769 25.2622C6.76012 25.2847 6.8269 25.335 6.99996 25.335Z" fill="#000000" class="bmwfcol"/><title>target-frame_lt_48</title></svg>