<svg width="48" height="48" viewBox="0 0 32 32" xmlns="http://www.w3.org/2000/svg"><path d="M20.6659 11.335H11.3359V20.665H20.6659V11.335ZM12.6659 19.335V12.665H19.3359V19.335H12.6659Z" fill="#000000" class="bmwfcol"/><path d="M13.6659 2V6.33496H18.3359V2H19.6659V6.33496H24.0009C24.4479 6.33496 24.8811 6.47466 25.2037 6.79724C25.5262 7.11981 25.6659 7.55302 25.6659 7.99996V12.335H30V13.665H25.6659V18.335H30V19.665H25.6659V24C25.6659 24.4469 25.5262 24.8801 25.2037 25.2027C24.8811 25.5253 24.4479 25.665 24.0009 25.665H19.6659V30H18.3359V25.665H13.6659V30H12.3359V25.665H8.00094C7.554 25.665 7.12078 25.5253 6.79821 25.2027C6.47564 24.8801 6.33594 24.4469 6.33594 24V19.665H2V18.335H6.33594V13.665H2V12.335H6.33594V7.99996C6.33594 7.55302 6.47564 7.11981 6.79821 6.79724C7.12078 6.47466 7.554 6.33496 8.00094 6.33496H12.3359V2H13.6659ZM7.66594 7.99996V24C7.66594 24.173 7.71623 24.2398 7.73866 24.2622C7.76109 24.2847 7.82788 24.335 8.00094 24.335H24.0009C24.174 24.335 24.2408 24.2847 24.2632 24.2622C24.2856 24.2398 24.3359 24.173 24.3359 24V7.99996C24.3359 7.8269 24.2856 7.76012 24.2632 7.73769C24.2408 7.71526 24.174 7.66496 24.0009 7.66496H8.00094C7.82788 7.66496 7.76109 7.71526 7.73866 7.73769C7.71624 7.76012 7.66594 7.8269 7.66594 7.99996Z" fill="#000000" class="bmwfcol"/><title>technologies_lt_48</title></svg>