<svg width="48" height="48" viewBox="0 0 32 32" xmlns="http://www.w3.org/2000/svg"><path d="M6.10376 6.10473C8.52026 3.68824 11.9479 2.33496 15.999 2.33496V3.66496C12.2501 3.66496 9.17771 4.91169 7.04421 7.04519C4.91071 9.17869 3.66398 12.2511 3.66398 16H2.33398C2.33398 11.9488 3.68726 8.52123 6.10376 6.10473Z" fill="#000000" class="bmwfcol"/><path d="M9.00376 9.00473C10.7203 7.28824 13.1479 6.33496 15.999 6.33496L15.999 7.66496C13.4501 7.66496 11.3777 8.51168 9.94421 9.94519C8.51071 11.3787 7.66398 13.4511 7.66398 16H6.33398C6.33398 13.1488 7.28726 10.7212 9.00376 9.00473Z" fill="#000000" class="bmwfcol"/><path d="M15.999 10.335C14.3479 10.335 12.9203 10.8882 11.9038 11.9047C10.8873 12.9212 10.334 14.3488 10.334 16H11.664C11.664 14.6511 12.1107 13.5787 12.8442 12.8452C13.5777 12.1117 14.6501 11.665 15.999 11.665L15.999 10.335Z" fill="#000000" class="bmwfcol"/><path d="M18.9181 17.3349C17.2392 17.3348 16.0346 17.3347 14.8154 17.7446C13.6107 18.1496 12.4401 18.9347 10.7331 20.3557C7.6325 20.6267 5.99083 20.7722 4.83683 21.0287C3.55734 21.3131 2.45617 21.9682 1.33423 22.616L1.33398 27.0135C2.22397 27.252 3.12614 27.5666 4.04906 27.6491C4.509 28.8289 5.65636 29.6649 6.99898 29.6649C8.33558 29.6649 9.47866 28.8364 9.94268 27.6649H21.0553C21.5193 28.8364 22.6624 29.6649 23.999 29.6649C25.3361 29.6649 26.4795 28.8358 26.9432 27.6636C28.3189 27.65 29.5017 27.055 30.6643 26.3838L30.664 23.7244C30.1579 23.2183 29.664 22.7497 29.664 21.9999L29.6639 20.3905L27.4366 20.1957C26.1274 19.4374 24.8197 18.6403 23.4047 18.0913C21.9652 17.5328 20.4555 17.335 18.9181 17.3349ZM27.1595 26.3291C27.0707 24.6606 25.6897 23.3349 23.999 23.3349C22.3063 23.3349 20.924 24.6636 20.8382 26.3349H10.1598C10.0739 24.6636 8.69162 23.3349 6.99898 23.3349C5.32628 23.3349 3.95664 24.6325 3.84178 26.276C3.59653 26.2288 3.24653 26.1447 2.66404 25.9918L2.66419 23.3843C3.67784 22.8025 4.20675 22.5312 5.12539 22.327C7.12497 21.8826 9.23218 21.8219 11.266 21.6441C12.4643 20.6386 13.7301 19.5126 15.2392 19.0053C16.2316 18.6717 17.2202 18.6649 18.999 18.6649C20.6315 18.6649 21.7873 18.8903 22.9236 19.3312C24.0866 19.7824 25.2415 20.462 26.8984 21.4208L28.334 21.6092C28.334 22.6983 28.5805 23.4625 29.334 24.2689L29.3342 25.6136C28.6813 25.98 28.316 26.1455 27.9874 26.2316C27.7446 26.2952 27.5085 26.3197 27.1595 26.3291ZM6.99898 24.6649C8.01243 24.6649 8.83398 25.4865 8.83398 26.4999C8.83398 27.5134 8.01243 28.3349 6.99898 28.3349C5.98554 28.3349 5.16398 27.5134 5.16398 26.4999C5.16398 25.4865 5.98554 24.6649 6.99898 24.6649ZM23.999 24.6649C25.0124 24.6649 25.834 25.4865 25.834 26.4999C25.834 27.5134 25.0124 28.3349 23.999 28.3349C22.9855 28.3349 22.164 27.5134 22.164 26.4999C22.164 25.4865 22.9855 24.6649 23.999 24.6649Z" fill="#000000" class="bmwfcol"/><path d="M28.0663 11.6957H29.999V10.3657H27.164C26.4645 12.2411 25.0387 13.3657 22.9674 13.3657C21.8494 13.3657 20.92 13.0593 20.215 12.5332L23.1701 11.7414C23.8998 11.5464 24.4342 11.1428 24.6513 10.4789C24.8434 9.89154 24.7379 9.22582 24.572 8.60667C24.4061 7.98758 24.1644 7.35775 23.7045 6.94484C23.1845 6.47797 22.5186 6.39567 21.789 6.59339L18.894 7.36908C19.1347 6.66854 19.5322 6.09323 20.0482 5.65999C20.7663 5.05721 21.7546 4.69572 22.9674 4.69572C25.0387 4.69572 26.4645 5.82034 27.164 7.69572H29.999V6.36572H28.0663C27.1742 4.48166 25.3082 3.36572 22.9674 3.36572C21.485 3.36572 20.1818 3.81129 19.1931 4.64136C18.0394 5.60987 17.5257 6.95899 17.3193 8.41011L17.9798 8.99096L22.1373 7.87697C22.5654 7.7608 22.7228 7.85088 22.816 7.93451C22.9695 8.07232 23.132 8.37144 23.2873 8.95095C23.4426 9.53038 23.4512 9.86985 23.3872 10.0655C23.3482 10.1845 23.2564 10.3417 22.8268 10.4565L18.5627 11.599L18.2808 12.4368C19.4608 13.9062 21.0621 14.6957 22.9674 14.6957C25.3082 14.6957 27.1742 13.5798 28.0663 11.6957Z" fill="#000000" class="bmwfcol"/><title>teleservice-call_lt_48</title></svg>