<svg width="48" height="48" viewBox="0 0 32 32" xmlns="http://www.w3.org/2000/svg"><path d="M25.8955 6.10428C23.479 3.68807 20.0516 2.33496 16.0007 2.33496C11.9496 2.33496 8.52201 3.68824 6.10552 6.10473L7.04548 7.04568C9.17898 4.91217 12.2519 3.66496 16.0007 3.66496C19.7494 3.66496 22.8216 4.91151 24.9551 7.04474L25.8955 6.10428Z" fill="#000000" class="bmwfcol"/><path d="M22.9955 9.00429C21.279 7.28807 18.8516 6.33496 16.0007 6.33496C13.1496 6.33496 10.722 7.28824 9.00552 9.00473L9.94548 9.94567C11.379 8.51217 13.4519 7.66496 16.0007 7.66496C18.5494 7.66496 20.6216 8.51151 22.0551 9.94474L22.9955 9.00429Z" fill="#000000" class="bmwfcol"/><path d="M16.0007 10.335C17.6516 10.335 19.079 10.8881 20.0955 11.9043L19.1551 12.8447C18.4216 12.1115 17.3493 11.665 16.0007 11.665C14.6519 11.665 13.579 12.1122 12.8455 12.8457L11.9055 11.9047C12.922 10.8882 14.3496 10.335 16.0007 10.335Z" fill="#000000" class="bmwfcol"/><path d="M19.3359 26V23.665H17V22.335H19.3359V20H20.6659V22.335H23V23.665H20.6659V26H19.3359Z" fill="#000000" class="bmwfcol"/><path d="M9 23.665H14.5V22.335H9V23.665Z" fill="#000000" class="bmwfcol"/><path d="M8.33594 15.335H13.6659V17.335H18.3359V15.335H23.6659V17.335H26.6659V29.665H5.33594V17.335H8.33594V15.335ZM9.66594 16.665V18.665H6.66594V28.335H25.3359V18.665H22.3359V16.665H19.6659V18.665H12.3359V16.665H9.66594Z" fill="#000000" class="bmwfcol"/><title>teleservice-battery-guard_lt_48</title></svg>