<svg width="48" height="48" viewBox="0 0 32 32" xmlns="http://www.w3.org/2000/svg"><path d="M16.0007 2.33496C20.0516 2.33496 23.479 3.68807 25.8955 6.10428L24.955 7.04474C22.8215 4.91151 19.7493 3.66496 16.0007 3.66496C12.2518 3.66496 9.17893 4.91217 7.04543 7.04568L6.10547 6.10473C8.52197 3.68824 11.9496 2.33496 16.0007 2.33496Z" fill="#000000" class="bmwfcol"/><path d="M16.0007 6.33496C18.8516 6.33496 21.279 7.28807 22.9955 9.00429L22.055 9.94474C20.6215 8.51151 18.5493 7.66496 16.0007 7.66496C13.4518 7.66496 11.3789 8.51217 9.94543 9.94567L9.00547 9.00473C10.722 7.28824 13.1496 6.33496 16.0007 6.33496Z" fill="#000000" class="bmwfcol"/><path d="M16.0007 10.335C17.6516 10.335 19.079 10.8881 20.0955 11.9043L19.155 12.8447C18.4215 12.1115 17.3493 11.665 16.0007 11.665C14.6518 11.665 13.5789 12.1122 12.8454 12.8457L11.9055 11.9047C12.922 10.8882 14.3496 10.335 16.0007 10.335Z" fill="#000000" class="bmwfcol"/><path d="M20.0128 24.9276L15.9986 18.0347L11.9844 24.9276H20.0128ZM17.6992 23.5976H14.298L15.9986 20.6775L17.6992 23.5976Z" fill="#000000" class="bmwfcol"/><path d="M14.4936 15.1808C15.167 14.053 16.8313 14.053 17.5047 15.1808L23.4239 25.0938C24.1241 26.2665 23.2255 27.665 21.9183 27.665H21.6659V30H20.3359V27.665H11.6659V30H10.3359V27.665H10.0799C8.77274 27.665 7.87414 26.2665 8.57437 25.0938L14.4936 15.1808ZM16.3628 15.8626C16.2054 15.5991 15.7929 15.5991 15.6355 15.8626L9.71629 25.7757C9.58575 25.9943 9.72561 26.335 10.0799 26.335H21.9183C22.2727 26.335 22.4125 25.9943 22.282 25.7757L16.3628 15.8626Z" fill="#000000" class="bmwfcol"/><title>teleservice-accident-assistance-call_lt_48</title></svg>