<svg width="48" height="48" viewBox="0 0 32 32" xmlns="http://www.w3.org/2000/svg"><path d="M21.3794 2.35205L21.9603 3.01254L20.8463 7.16999C20.7301 7.59812 20.8202 7.75555 20.9038 7.8487C21.0416 8.0022 21.3407 8.16474 21.9202 8.32004C22.4997 8.47532 22.8391 8.48388 23.0347 8.41991C23.1538 8.38096 23.311 8.28911 23.4257 7.85949L24.5683 3.59543L25.4061 3.31352L25.6898 3.54132C26.9598 4.56124 27.665 6.13699 27.665 8.00008C27.665 10.3409 26.5491 12.2069 24.665 13.099V27.0001C24.665 27.7512 24.4117 28.4288 23.9202 28.9203C23.4287 29.4118 22.7511 29.6651 22 29.6651C21.2489 29.6651 20.5713 29.4118 20.0798 28.9203C19.5883 28.4288 19.335 27.7512 19.335 27.0001V13.099C17.451 12.2069 16.335 10.3409 16.335 8.00008C16.335 6.51776 16.7806 5.21454 17.6106 4.22579C18.4419 3.23565 19.6249 2.60153 21.0237 2.40263L21.3794 2.35205ZM18.6293 5.08094C18.0265 5.79897 17.665 6.78731 17.665 8.00008C17.665 10.0236 18.6656 11.451 20.2324 12.0354L20.665 12.1967V27.0001C20.665 27.449 20.8117 27.7714 21.0202 27.9799C21.2287 28.1884 21.5511 28.3351 22 28.3351C22.4489 28.3351 22.7713 28.1884 22.9798 27.9799C23.1883 27.7714 23.335 27.449 23.335 27.0001V12.1967L23.7676 12.0354C25.3345 11.451 26.335 10.0236 26.335 8.00008C26.335 6.88208 26.0285 5.95271 25.5025 5.24768L24.7107 8.20278C24.5157 8.9325 24.1121 9.46687 23.4482 9.68401C22.8608 9.87612 22.1951 9.77063 21.576 9.60471C20.9569 9.4388 20.327 9.19713 19.9141 8.73721C19.4473 8.21718 19.3647 7.55235 19.5624 6.82276L20.3384 3.92676C19.6378 4.16745 19.0625 4.56488 18.6293 5.08094Z" fill="#000000" class="bmwfcol"/><path d="M3.66496 15.9999C3.66496 12.2511 4.91168 9.17867 7.04519 7.04516L6.10473 6.10471C3.68824 8.52121 2.33496 11.9488 2.33496 15.9999C2.33496 20.0511 3.68824 23.4787 6.10473 25.8952L7.04523 24.9548C4.91172 22.8213 3.66496 19.7488 3.66496 15.9999Z" fill="#000000" class="bmwfcol"/><path d="M9.00473 9.00471C7.28824 10.7212 6.33496 13.1488 6.33496 15.9999C6.33496 18.8511 7.28824 21.2787 9.00473 22.9952L9.94523 22.0548C8.51172 20.6213 7.66496 18.5488 7.66496 15.9999C7.66496 13.4511 8.51168 11.3787 9.94519 9.94516L9.00473 9.00471Z" fill="#000000" class="bmwfcol"/><path d="M11.9047 11.9047C10.8882 12.9212 10.335 14.3488 10.335 15.9999C10.335 17.6511 10.8882 19.0787 11.9047 20.0952L12.8452 19.1548C12.1117 18.4212 11.665 17.3488 11.665 15.9999C11.665 14.6511 12.1117 13.5787 12.8452 12.8452L11.9047 11.9047Z" fill="#000000" class="bmwfcol"/><title>tele-services_lt_48</title></svg>