<svg width="48" height="48" viewBox="0 0 32 32" xmlns="http://www.w3.org/2000/svg"><path d="M14.3346 4.33496V13.8889C14.3346 14.432 14.5612 14.9197 15.0217 15.2456C15.4491 15.548 16.0119 15.665 16.6246 15.665H26.3746C26.9873 15.665 27.5501 15.548 27.9775 15.2456C28.438 14.9197 28.6646 14.432 28.6646 13.8889L28.6646 4.33496H14.3346ZM15.6646 13.8889V7.22306L20.9781 10.665H22.0212L27.3346 7.22306L27.3346 13.8888C27.3346 14.0346 27.2904 14.1025 27.2092 14.1599C27.095 14.2408 26.8452 14.335 26.3746 14.335H16.6246C16.154 14.335 15.9043 14.2408 15.79 14.1599C15.7089 14.1025 15.6646 14.0346 15.6646 13.8889ZM15.7056 5.66496H27.2936L21.6281 9.33496H21.3712L15.7056 5.66496Z" fill="#000000" class="bmwfcol"/><path d="M22.1102 23.9362C22.1102 23.358 21.8478 22.8309 21.4222 22.4053L19.3008 20.284C19.0396 20.0227 18.7378 19.8024 18.363 19.6823C17.9861 19.5615 17.5936 19.5604 17.1803 19.6433C16.485 19.7828 15.634 20.1835 14.52 20.8064L10.2932 16.5796C10.9161 15.4656 11.3167 14.6145 11.4562 13.9192C11.5391 13.506 11.5381 13.1135 11.4172 12.7366C11.2971 12.3618 11.0768 12.0599 10.8156 11.7987L8.69423 9.67735C8.26859 9.25171 7.7415 8.98937 7.16334 8.98938C6.58519 8.98938 6.0581 9.25174 5.63247 9.67736L2.97461 12.3352L3.07382 12.706C3.56751 14.5509 4.13039 16.0836 5.01727 17.5955C5.90236 19.1043 7.09367 20.5643 8.81445 22.2851C10.5352 24.0059 11.9953 25.1972 13.504 26.0823C15.0159 26.9691 16.5486 27.532 18.3936 28.0257L18.7643 28.1249L21.4222 25.4671C21.8478 25.0414 22.1101 24.5143 22.1102 23.9362ZM17.9569 20.9488C18.07 20.985 18.1966 21.0606 18.3604 21.2244L20.4817 23.3457C20.7137 23.5777 20.7802 23.7825 20.7802 23.9362C20.7801 24.0899 20.7137 24.2946 20.4817 24.5266L18.3684 26.64C16.7646 26.191 15.4555 25.6851 14.177 24.9351C12.7988 24.1266 11.4282 23.0179 9.75491 21.3446C8.08159 19.6713 6.97293 18.3007 6.16445 16.9225C5.41447 15.6441 4.90858 14.3349 4.45958 12.7312L6.57293 10.6178C6.80491 10.3858 7.00967 10.3194 7.16336 10.3194C7.31705 10.3194 7.5218 10.3858 7.75377 10.6178L9.87512 12.7391C10.0389 12.9029 10.1145 13.0295 10.1507 13.1426C10.1863 13.2536 10.2022 13.4083 10.1522 13.6576C10.0438 14.198 9.66882 15.0012 8.8883 16.3607L8.63487 16.8022L14.2974 22.4647L14.7388 22.2112C16.0983 21.4307 16.9015 21.0557 17.4419 20.9473C17.6912 20.8973 17.846 20.9132 17.9569 20.9488Z" fill="#000000" class="bmwfcol"/><title>telephone_and_mail_lt_48</title></svg>