<svg width="48" height="48" viewBox="0 0 32 32" xmlns="http://www.w3.org/2000/svg"><path d="M24.7223 18.5917L27.5508 21.4201C27.8924 21.7617 28.0136 22.0884 28.0136 22.3641C28.0136 22.6398 27.8923 22.9665 27.5508 23.3081L24.6415 26.2174C22.4342 25.6067 20.6347 24.9191 18.8756 23.8872C17.0162 22.7964 15.1739 21.3044 12.9348 19.0654C10.6958 16.8264 9.20381 14.984 8.11307 13.1247C7.0811 11.3655 6.39351 9.56602 5.78285 7.35877L8.69216 4.44947C9.03374 4.10789 9.36048 3.98662 9.63615 3.98662C9.91181 3.98662 10.2386 4.10787 10.5802 4.44944L13.4086 7.27791C13.4086 7.27791 13.4086 7.2779 13.4086 7.27791C13.6432 7.51252 13.7681 7.71055 13.8304 7.90492C13.8921 8.09719 13.9108 8.34315 13.8386 8.70291C13.6859 9.46417 13.1668 10.5652 12.1283 12.3739L11.8749 12.8153L19.185 20.1253L19.6264 19.8719C21.4351 18.8335 22.5361 18.3143 23.2973 18.1616C23.6571 18.0895 23.903 18.1082 24.0953 18.1698C24.2897 18.2321 24.4877 18.3571 24.7223 18.5917ZM25.3093 27.4305L28.4912 24.2485C29.0264 23.7133 29.3436 23.0642 29.3436 22.3641C29.3436 21.664 29.0265 21.0149 28.4912 20.4797L25.6628 17.6512C25.3307 17.3191 24.9574 17.0495 24.5013 16.9033C24.0431 16.7564 23.5594 16.7526 23.0357 16.8576C22.1153 17.0422 20.9642 17.5894 19.4071 18.4665L13.5337 12.5932C14.4109 11.0361 14.958 9.88491 15.1427 8.96448C15.2477 8.44081 15.2438 7.9571 15.0969 7.49889C14.9507 7.04279 14.6811 6.66953 14.3491 6.33746L11.5206 3.50899C10.9854 2.97375 10.3363 2.65661 9.63613 2.65662C8.936 2.65663 8.28694 2.97379 7.75171 3.50902L4.29834 6.96237L4.39755 7.33312C5.05266 9.78136 5.79675 11.8047 6.96589 13.7977C8.13325 15.7876 9.70788 17.7194 11.9944 20.0059C14.2809 22.2923 16.2127 23.867 18.2026 25.0343C20.1956 26.2035 22.2189 26.9476 24.6671 27.6027L25.0379 27.7019L25.3093 27.4305Z" fill="#000000" class="bmwfcol"/><title>telephone_lt_48</title></svg>