<svg width="48" height="48" viewBox="0 0 32 32" xmlns="http://www.w3.org/2000/svg"><path d="M10.6578 5.33496H2.33398V19.665H9.93125C10.0695 20.0076 10.2319 20.3415 10.419 20.6652L15.7561 29.9083L16.332 29.5759C17.5789 28.8561 18.3071 27.6206 18.5424 26.1194C18.747 24.8144 18.5846 23.2947 18.0777 21.665H26.4996C27.4007 21.665 28.2033 21.3617 28.7823 20.7827C29.3613 20.2037 29.6646 19.4011 29.6646 18.5C29.6646 17.4312 29.6675 16.3608 29.5429 15.2976C29.4204 14.2512 29.1767 13.0908 28.7043 11.3278C28.2039 9.46011 27.2564 8.00144 26.4421 7.01428C25.9307 6.39449 25.3636 5.8223 24.724 5.33496H15.9995C14.005 5.33496 12.1992 5.75659 10.661 6.54817L10.6578 5.33496ZM3.66398 18.335V6.66496H9.33126L9.32954 16.5021C9.33155 17.1272 9.39554 17.7402 9.52356 18.335H3.66398ZM15.9995 6.66496H24.2605C24.4888 6.86209 24.9273 7.26817 25.4161 7.86064C26.1485 8.74847 26.9823 10.0398 27.4197 11.6721C27.8851 13.4091 28.1103 14.4987 28.222 15.4523C28.3339 16.4074 28.3346 17.2436 28.3346 18.5C28.3346 19.0989 28.1378 19.5463 27.8418 19.8423C27.5458 20.1383 27.0984 20.335 26.4996 20.335L16.5544 20.3349V21.3182C17.0826 22.7685 17.4714 24.3633 17.2285 25.9135C17.0861 26.822 16.7344 27.5288 16.2048 28.0256L11.5706 19.9998C10.9674 18.9559 10.6644 17.7721 10.6601 16.499L10.6643 8.07419C12.1093 7.17349 13.9126 6.66496 15.9995 6.66496Z" fill="#000000" class="bmwfcol"/><title>thumbs-down_lt_48</title></svg>