<svg width="48" height="48" viewBox="0 0 32 32" xmlns="http://www.w3.org/2000/svg"><path d="M16.332 2.4237L15.7561 2.09131L10.4189 11.3346C10.2319 11.6582 10.0695 11.9919 9.93129 12.3345H2.33398V26.6645H10.6578L10.661 25.4514C12.1992 26.243 14.005 26.6646 15.9995 26.6646H24.724C25.3636 26.1773 25.9307 25.6051 26.4421 24.9853C27.2564 23.9982 28.2039 22.5395 28.7043 20.6718C29.1767 18.9088 29.4204 17.7484 29.5429 16.702C29.6675 15.6388 29.6646 14.5684 29.6646 13.4996C29.6646 12.5985 29.3613 11.7959 28.7823 11.2169C28.2033 10.6379 27.4007 10.3346 26.4996 10.3346H18.0777C18.5846 8.70493 18.747 7.18525 18.5424 5.88017C18.3071 4.37897 17.5789 3.14345 16.332 2.4237ZM24.2606 25.3346H15.9995C13.9126 25.3346 12.1093 24.8261 10.6643 23.9254L10.6601 15.5006C10.6644 14.2275 10.9675 13.0435 11.5707 11.9996L16.2048 3.97397C16.7344 4.47081 17.0861 5.17755 17.2285 6.08612C17.4714 7.63632 17.0826 9.2311 16.5544 10.6814V11.6646H26.4996C27.5864 11.6646 28.3346 12.4128 28.3346 13.4996C28.3346 14.756 28.3339 15.5922 28.222 16.5472C28.1103 17.5009 27.8851 18.5905 27.4197 20.3275C26.9823 21.9598 26.1485 23.2511 25.4161 24.139C24.9273 24.7314 24.4887 25.1377 24.2606 25.3346ZM3.66398 25.3345V13.6645H9.52356C9.39554 14.2592 9.33155 14.8722 9.32954 15.4973L9.33126 25.3345H3.66398Z" fill="#000000" class="bmwfcol"/><title>thumbs-up_lt_48</title></svg>