<svg width="48" height="48" viewBox="0 0 32 32" xmlns="http://www.w3.org/2000/svg"><path d="M22 3V9H16V3H22ZM20.67 4.33H17.33V7.67H20.67V4.33Z" fill="#000000" class="bmwfcol"/><path d="M22 11V17H16V11H22ZM20.67 12.33H17.33V15.67H20.67V12.33Z" fill="#000000" class="bmwfcol"/><path d="M24 3H30V9H24V3ZM28.67 4.33H25.33V7.67H28.67V4.33Z" fill="#000000" class="bmwfcol"/><path d="M26.335 12.835V11H27.665V15.335H30V16.665H26.335V14.165H24V12.835H26.335Z" fill="#000000" class="bmwfcol"/><path d="M10.9423 8.44539L14.4995 12.0027V13.8836L10.0018 9.38584C9.84425 9.22828 9.76262 9.22746 9.75483 9.22746C9.74703 9.22746 9.66541 9.22828 9.50784 9.38584L8.5096 10.3841C8.67548 10.7909 8.73588 11.223 8.67579 11.6601C8.59155 12.2727 8.27904 12.8362 7.80029 13.3149C7.32154 13.7937 6.75803 14.1062 6.1454 14.1904C5.70836 14.2505 5.27629 14.1901 4.86944 14.0243L3.87119 15.0225C3.71363 15.1801 3.71281 15.2617 3.71281 15.2695C3.71281 15.2773 3.71363 15.3589 3.87119 15.5165L15.5688 27.214C15.7263 27.3716 15.8079 27.3724 15.8157 27.3724C15.8235 27.3724 15.9052 27.3716 16.0627 27.214L17.0604 26.2163C16.8942 25.8094 16.8336 25.3771 16.8935 24.9398C16.9776 24.3269 17.2902 23.7631 17.7691 23.2841C18.2481 22.8051 18.8119 22.4925 19.4249 22.4085C19.8622 22.3485 20.2944 22.4091 20.7014 22.5754L21.6994 21.5774C21.8569 21.4198 21.8578 21.3382 21.8578 21.3304C21.8578 21.3226 21.8569 21.241 21.6994 21.0834L19.116 18.5H20.9969L22.6398 20.143C22.9531 20.4563 23.1878 20.8564 23.1878 21.3304C23.1878 21.8044 22.9531 22.2045 22.6398 22.5178L20.9145 24.2431L20.4622 23.9466C20.1607 23.7489 19.8722 23.6896 19.6056 23.7261C19.3341 23.7634 19.0253 23.9088 18.7096 24.2245C18.3939 24.5403 18.2484 24.849 18.2112 25.1205C18.1746 25.3871 18.234 25.6756 18.4316 25.9771L18.7282 26.4295L17.0032 28.1545C16.6899 28.4678 16.2897 28.7024 15.8157 28.7024C15.3418 28.7024 14.9416 28.4678 14.6283 28.1545L2.93074 16.4569C2.61743 16.1436 2.38281 15.7434 2.38281 15.2695C2.38281 14.7955 2.61743 14.3954 2.93074 14.082L4.65585 12.3569L5.1081 12.653C5.40945 12.8503 5.69776 12.9095 5.96423 12.8728C6.23564 12.8355 6.54426 12.6901 6.85984 12.3745C7.17542 12.0589 7.32086 11.7503 7.35818 11.4789C7.39482 11.2124 7.33566 10.9241 7.13837 10.6227L6.84228 10.1705L8.56739 8.44539C8.88071 8.13208 9.28085 7.89746 9.75483 7.89746C10.2288 7.89746 10.6289 8.13208 10.9423 8.44539Z" fill="#000000" class="bmwfcol"/><path d="M11.7348 13.2896C12.1253 12.899 12.7584 12.899 13.149 13.2896C13.5395 13.6801 13.5395 14.3133 13.149 14.7038C12.7584 15.0943 12.1253 15.0943 11.7348 14.7038C11.3442 14.3133 11.3442 13.6801 11.7348 13.2896Z" fill="#000000" class="bmwfcol"/><path d="M9.75485 15.2695C10.1454 14.8789 10.7785 14.8789 11.1691 15.2695C11.5596 15.66 11.5596 16.2932 11.1691 16.6837C10.7785 17.0742 10.1454 17.0742 9.75485 16.6837C9.36433 16.2932 9.36433 15.66 9.75485 15.2695Z" fill="#000000" class="bmwfcol"/><path d="M7.77495 17.2494C8.16548 16.8588 8.79864 16.8588 9.18917 17.2494C9.57969 17.6399 9.57969 18.2731 9.18917 18.6636C8.79864 19.0541 8.16548 19.0541 7.77495 18.6636C7.38443 18.2731 7.38443 17.6399 7.77495 17.2494Z" fill="#000000" class="bmwfcol"/><title>ticket_and_qr_code_lt_48</title></svg>