<svg width="48" height="48" viewBox="0 0 32 32" xmlns="http://www.w3.org/2000/svg"><path d="M15.8812 9.51721C16.3362 9.06225 17.0738 9.06225 17.5288 9.51721C17.9837 9.97217 17.9837 10.7098 17.5288 11.1648C17.0738 11.6197 16.3362 11.6197 15.8812 11.1648C15.4263 10.7098 15.4263 9.97217 15.8812 9.51721Z" fill="#000000" class="bmwfcol"/><path d="M13.7601 11.6385C14.2151 11.1836 14.9527 11.1836 15.4077 11.6385C15.8626 12.0935 15.8626 12.8311 15.4077 13.2861C14.9527 13.7411 14.2151 13.7411 13.7601 13.2861C13.3052 12.8311 13.3052 12.0935 13.7601 11.6385Z" fill="#000000" class="bmwfcol"/><path d="M13.2866 13.7599C12.8316 13.3049 12.094 13.3049 11.639 13.7599C11.1841 14.2148 11.1841 14.9525 11.639 15.4074C12.094 15.8624 12.8316 15.8624 13.2866 15.4074C13.7416 14.9525 13.7416 14.2148 13.2866 13.7599Z" fill="#000000" class="bmwfcol"/><path d="M9.51794 15.8812C9.9729 15.4263 10.7105 15.4263 11.1655 15.8812C11.6205 16.3362 11.6205 17.0738 11.1655 17.5288C10.7105 17.9837 9.9729 17.9837 9.51794 17.5288C9.06298 17.0738 9.06298 16.3362 9.51794 15.8812Z" fill="#000000" class="bmwfcol"/><path d="M12.9334 2.09295C12.6226 1.78221 12.225 1.55225 11.756 1.55225C11.2871 1.55225 10.8895 1.78221 10.5787 2.09295L8.01951 4.65215L8.31567 5.10442C8.6233 5.5742 8.72548 6.04174 8.66455 6.48505C8.60294 6.9333 8.36591 7.41638 7.89142 7.89087C7.41693 8.36536 6.93385 8.60239 6.4856 8.66399C6.04229 8.72492 5.57476 8.62275 5.10497 8.31512L4.6527 8.01896L2.09343 10.5782C1.78269 10.889 1.55273 11.2866 1.55273 11.7556C1.55273 12.2246 1.78269 12.6222 2.09344 12.9329L19.064 29.9035C19.3747 30.2142 19.7723 30.4442 20.2413 30.4442C20.7103 30.4442 21.1079 30.2142 21.4187 29.9035L23.9779 27.3442L23.6816 26.8919C23.3739 26.4221 23.2716 25.9545 23.3325 25.5111C23.3941 25.0628 23.6311 24.5796 24.1057 24.1051C24.5802 23.6306 25.0633 23.3935 25.5116 23.332C25.955 23.2711 26.4226 23.3733 26.8925 23.6811L27.3448 23.9774L29.9039 21.4182C30.2147 21.1074 30.4446 20.7098 30.4446 20.2408C30.4446 19.7718 30.2147 19.3742 29.9039 19.0635L12.9334 2.09295ZM11.5192 3.0334C11.6697 2.8829 11.7485 2.88225 11.756 2.88225C11.7635 2.88225 11.8424 2.8829 11.9929 3.0334L28.9635 20.004C29.114 20.1545 29.1146 20.2333 29.1146 20.2408C29.1146 20.2483 29.114 20.3272 28.9635 20.4777L27.141 22.3002C26.5643 22.0313 25.9498 21.9293 25.3307 22.0143C24.5411 22.1228 23.8029 22.5269 23.1652 23.1646C22.5275 23.8024 22.1233 24.5405 22.0149 25.3301C21.9298 25.9493 22.0318 26.5638 22.3008 27.1405L20.4782 28.963C20.3277 29.1135 20.2488 29.1142 20.2413 29.1142C20.2338 29.1142 20.1549 29.1135 20.0044 28.963L3.03389 11.9924C2.88339 11.8419 2.88273 11.7631 2.88273 11.7556C2.88273 11.7481 2.88339 11.6692 3.03389 11.5187L4.85657 9.696C5.43318 9.96481 6.04764 10.0667 6.6667 9.98161C7.4562 9.8731 8.1942 9.46899 8.83187 8.83132C9.46954 8.19365 9.87365 7.45565 9.98216 6.66614C10.0672 6.04709 9.96536 5.43263 9.69655 4.85602L11.5192 3.0334Z" fill="#000000" class="bmwfcol"/><title>ticket_lt_48</title></svg>