<svg width="48" height="48" viewBox="0 0 32 32" xmlns="http://www.w3.org/2000/svg"><path d="M11.6659 3.99996C11.6659 3.8269 11.7162 3.76012 11.7387 3.73769C11.7611 3.71526 11.8279 3.66496 12.0009 3.66496H20.0009C20.1739 3.66496 20.2408 3.71526 20.2632 3.73769C20.2856 3.76012 20.3359 3.8269 20.3359 3.99996V17C20.3359 17.173 20.2856 17.2398 20.2632 17.2622C20.2408 17.2847 20.174 17.335 20.0009 17.335V18.665C20.4479 18.665 20.8811 18.5253 21.2037 18.2027C21.5262 17.8801 21.6659 17.4469 21.6659 17V15.6069L22.5293 16.4702C23.4529 17.3939 23.6781 17.6598 23.7254 18.1283C23.7525 18.397 23.7185 18.7674 23.5888 19.376C23.4601 19.9802 23.2518 20.7575 22.965 21.8279L21.3345 27.9125V30H22.6645V28.0876L24.2597 22.1347C24.5378 21.0969 24.7536 20.2915 24.8896 19.6531C25.0263 19.0114 25.0972 18.4757 25.0487 17.9948C24.9489 17.006 24.3481 16.4064 23.57 15.6299L21.6659 13.726V3.99996C21.6659 3.55302 21.5262 3.11981 21.2037 2.79723C20.8811 2.47466 20.4479 2.33496 20.0009 2.33496H19.9999H12.0009C11.554 2.33496 11.1208 2.47466 10.7982 2.79724C10.4756 3.11981 10.3359 3.55302 10.3359 3.99996V17C10.3359 17.4469 10.4756 17.8801 10.7982 18.2027C11.1208 18.5253 11.554 18.665 12.0009 18.665V17.335C11.8279 17.335 11.7611 17.2847 11.7387 17.2622C11.7162 17.2398 11.6659 17.173 11.6659 17V3.99996Z" fill="#000000" class="bmwfcol"/><path d="M14.6879 30H16.0648L14.1735 22.9412L14.484 19.3975C14.6657 17.3231 14.8901 14.7606 15.061 12.8079C15.0949 12.4205 15.2376 12.1416 15.425 11.9624C15.6096 11.7857 15.8798 11.665 16.2508 11.665C16.6247 11.665 16.8846 11.7867 17.0494 11.9514C17.2141 12.1162 17.3358 12.3761 17.3358 12.75V21H18.6658V12.75C18.6658 12.0738 18.4376 11.4587 17.9898 11.011C17.5421 10.5632 16.927 10.335 16.2508 10.335C15.5719 10.335 14.9617 10.565 14.5056 11.0012C14.0523 11.4349 13.7939 12.031 13.736 12.692C13.5652 14.6446 13.3408 17.2071 13.1591 19.2814L12.8281 23.0588L14.6879 30Z" fill="#000000" class="bmwfcol"/><path d="M16.2644 4.73535H14.7344V6.26535H16.2644V4.73535Z" fill="#000000" class="bmwfcol"/><path d="M14.7344 7.73535H16.2644V9.26535H14.7344V7.73535Z" fill="#000000" class="bmwfcol"/><path d="M19.2644 4.73535H17.7344V6.26535H19.2644V4.73535Z" fill="#000000" class="bmwfcol"/><path d="M6.81322 4.49951L9.31322 6.99951L6.81322 9.49951H5.18688L7.02179 7.6646L2.0001 7.66499L2 6.33499L7.02196 6.3346L5.18688 4.49951H6.81322Z" fill="#000000" class="bmwfcol"/><path d="M22.627 6.99951L25.127 4.49951H26.7533L24.9182 6.3346L29.9996 6.33499L29.9995 7.66499L24.9184 7.6646L26.7533 9.49951H25.127L22.627 6.99951Z" fill="#000000" class="bmwfcol"/><title>ticket_with_code_lt_48</title></svg>