<svg width="48" height="48" viewBox="0 0 32 32" xmlns="http://www.w3.org/2000/svg"><path d="M8.06571 4.06473C8.56078 3.56966 9.244 3.33496 10.0009 3.33496H26.0009C26.7579 3.33496 27.4411 3.56966 27.9362 4.06473C28.4312 4.55981 28.6659 5.24302 28.6659 5.99996V16C28.6659 16.7569 28.4312 17.4401 27.9362 17.9352C27.4411 18.4303 26.7579 18.665 26.0009 18.665H23.5583L22.2283 17.335H26.0009C26.484 17.335 26.8008 17.1897 26.9957 16.9947C27.1906 16.7998 27.3359 16.483 27.3359 16V8.66496H13.5583L12.7412 7.84779C12.5663 7.67293 12.3573 7.4949 12.1155 7.33496H27.3359V5.99996C27.3359 5.5169 27.1906 5.20012 26.9957 5.00519C26.8008 4.81026 26.484 4.66496 26.0009 4.66496L10.0009 4.66496C9.51788 4.66496 9.20109 4.81026 9.00616 5.00519C8.81123 5.20012 8.66594 5.5169 8.66594 5.99996V7.17294C8.30719 7.36854 8.00793 7.61107 7.77122 7.84779L7.33594 8.28307V5.99996C7.33594 5.24302 7.57064 4.55981 8.06571 4.06473Z" fill="#000000" class="bmwfcol"/><path d="M24.6659 14.665H19.3359V13.335H24.6659L24.6659 14.665Z" fill="#000000" class="bmwfcol"/><path d="M12.2351 13.9897C12.6256 13.5991 13.2588 13.5991 13.6493 13.9897C14.0399 14.3802 14.0399 15.0134 13.6493 15.4039C13.2588 15.7944 12.6256 15.7944 12.2351 15.4039C11.8446 15.0134 11.8446 14.3802 12.2351 13.9897Z" fill="#000000" class="bmwfcol"/><path d="M10.2552 15.9696C10.6457 15.579 11.2789 15.579 11.6694 15.9696C12.06 16.3601 12.06 16.9933 11.6694 17.3838C11.2789 17.7743 10.6457 17.7743 10.2552 17.3838C9.86469 16.9933 9.86469 16.3601 10.2552 15.9696Z" fill="#000000" class="bmwfcol"/><path d="M9.68953 17.9495C9.299 17.5589 8.66584 17.5589 8.27531 17.9495C7.88479 18.34 7.88479 18.9732 8.27531 19.3637C8.66584 19.7542 9.299 19.7542 9.68953 19.3637C10.0801 18.9732 10.0801 18.34 9.68953 17.9495Z" fill="#000000" class="bmwfcol"/><path d="M10.2529 8.59814C10.7268 8.59814 11.127 8.83276 11.4403 9.14607L23.1379 20.8436C23.4512 21.157 23.6858 21.5571 23.6858 22.0311C23.6858 22.505 23.4512 22.9052 23.1379 23.2185L21.4126 24.9438L20.9602 24.6473C20.6587 24.4496 20.3702 24.3903 20.1036 24.4268C19.8321 24.4641 19.5234 24.6095 19.2076 24.9252C18.8919 25.241 18.7465 25.5497 18.7092 25.8212C18.6727 26.0878 18.732 26.3763 18.9297 26.6778L19.2262 27.1302L17.5012 28.8552C17.1879 29.1685 16.7878 29.4031 16.3138 29.4031C15.8398 29.4031 15.4397 29.1685 15.1264 28.8552L3.42879 17.1576C3.11548 16.8443 2.88086 16.4441 2.88086 15.9702C2.88086 15.4962 3.11548 15.096 3.42879 14.7827L5.1539 13.0576L5.60615 13.3537C5.9075 13.551 6.1958 13.6102 6.46228 13.5735C6.73368 13.5362 7.0423 13.3908 7.35789 13.0752C7.67347 12.7596 7.81891 12.451 7.85623 12.1796C7.89287 11.9131 7.83371 11.6248 7.63641 11.3234L7.34033 10.8712L9.06544 9.14607C9.37875 8.83276 9.7789 8.59814 10.2529 8.59814ZM10.2529 9.92814C10.2451 9.92814 10.1635 9.92897 10.0059 10.0865L9.00765 11.0848C9.17353 11.4916 9.23393 11.9237 9.17383 12.3607C9.08959 12.9734 8.77709 13.5369 8.29834 14.0156C7.81959 14.4944 7.25608 14.8069 6.64345 14.8911C6.20641 14.9512 5.77434 14.8908 5.36748 14.7249L4.36924 15.7232C4.21168 15.8807 4.21086 15.9624 4.21086 15.9702C4.21086 15.978 4.21168 16.0596 4.36924 16.2171L16.0668 27.9147C16.2244 28.0723 16.306 28.0731 16.3138 28.0731C16.3216 28.0731 16.4032 28.0723 16.5608 27.9147L17.5585 26.917C17.3923 26.51 17.3316 26.0778 17.3916 25.6405C17.4756 25.0276 17.7882 24.4637 18.2672 23.9848C18.7462 23.5058 19.31 23.1932 19.9229 23.1092C20.3602 23.0492 20.7925 23.1098 21.1994 23.276L22.1974 22.2781C22.355 22.1205 22.3558 22.0389 22.3558 22.0311C22.3558 22.0233 22.355 21.9417 22.1974 21.7841L10.4999 10.0865C10.3423 9.92897 10.2607 9.92814 10.2529 9.92814Z" fill="#000000" class="bmwfcol"/><title>ticket_and_card_lt_48</title></svg>