<svg width="48" height="48" viewBox="0 0 32 32" xmlns="http://www.w3.org/2000/svg"><path d="M13.2868 9.0944L11.3145 5.67815V3.22451C11.8751 2.66375 12.429 2.08181 13.1682 1.7581C13.8602 1.45506 14.7208 1.33496 16 1.33496C17.2792 1.33496 18.1397 1.45506 18.8318 1.7581C19.571 2.0818 20.1249 2.66375 20.6855 3.22451V5.67815L18.7131 9.09446L22.665 23.9129C22.665 24.2833 22.5292 24.5956 22.3183 24.8969C22.1265 25.1711 21.8345 25.5115 21.4251 25.9525C19.9245 27.569 18.3356 29.1062 16.7759 30.6651H15.224C13.6647 29.1058 12.0756 27.5689 10.5748 25.9525C10.1654 25.5115 9.8734 25.1711 9.68159 24.8969C9.47071 24.5956 9.33496 24.2833 9.33496 23.9129L13.2868 9.0944ZM12.6445 5.32177L14.3841 8.33496H17.6159L19.3555 5.32177V3.77666C18.9484 3.37611 18.6746 3.1412 18.2983 2.97642C17.8602 2.7846 17.2208 2.66496 16 2.66496C14.7792 2.66496 14.1397 2.7846 13.7017 2.97642C13.3253 3.1412 13.0516 3.37611 12.6445 3.77666V5.32177ZM10.6874 24.003C10.9047 24.3924 11.2495 24.7244 11.5495 25.0476C12.3278 25.8859 13.6354 27.1955 15.7749 29.3351H16.225C18.3646 27.1955 19.6721 25.8859 20.4504 25.0476C20.7504 24.7244 21.0952 24.3924 21.3125 24.003L17.4888 9.66496H14.5111L10.6874 24.003Z" fill="#000000" class="bmwfcol"/><title>tie_lt_48</title></svg>