<svg width="48" height="48" viewBox="0 0 32 32" xmlns="http://www.w3.org/2000/svg"><path d="M29.369 8.83496H28.4415L22.9243 12.02C22.6789 12.1694 22.3733 12.2107 22.0969 12.1319C21.5537 11.9867 21.0005 11.4665 20.539 10.6671C20.0891 9.88836 19.9198 9.17146 20.0612 8.64836C20.1354 8.36429 20.3309 8.11713 20.59 7.97957L26.4182 4.61396V3.70146C24.9971 2.80799 23.4419 2.33496 21.7531 2.33496C17.1684 2.33496 14.0881 5.41496 14.0881 9.99996C14.0838 10.8133 14.1905 11.6233 14.4052 12.4078L3.28318 23.53C1.82868 24.9844 1.82688 27.0145 3.28138 28.4684C4.00858 29.1956 4.88008 29.5592 5.75138 29.5592C6.62268 29.5592 7.49598 29.1972 8.22298 28.4701L19.3457 17.348C20.1301 17.5627 20.94 17.6693 21.7531 17.665C26.3379 17.665 29.4182 14.585 29.4182 9.99996C29.4182 9.61115 29.3905 9.22301 29.369 8.83496ZM21.7531 16.335C20.794 16.3433 19.8824 16.1375 18.9803 15.8329L7.28318 27.53C6.33948 28.4736 5.16568 28.4719 4.22158 27.5283C3.27748 26.5847 3.27988 25.4139 4.22348 24.4698L15.9204 12.7728C15.6158 11.8706 15.4099 10.9589 15.4183 9.99956C15.4183 6.15126 17.905 3.66456 21.7534 3.66456C22.699 3.65149 23.6379 3.82539 24.5161 4.17626L19.9277 6.82626C19.3657 7.13798 18.943 7.68013 18.7778 8.30126C18.5398 9.18126 18.7507 10.229 19.3878 11.332C20.0362 12.4554 20.8543 13.1763 21.7539 13.4168C22.3678 13.5858 23.0426 13.4957 23.5904 13.1715L28.0688 10.5859C27.8271 14.0989 25.4023 16.335 21.7531 16.335Z" fill="#000000" class="bmwfcol"/><title>tool_lt_48</title></svg>