<svg width="48" height="48" viewBox="0 0 32 32" xmlns="http://www.w3.org/2000/svg"><path d="M20.9308 2.79247L19.6367 7.6221L18.352 7.27787L19.6461 2.44824L20.9308 2.79247Z" fill="#000000" class="bmwfcol"/><path d="M22.8345 10.1061L26.37 6.57056L25.4296 5.63011L21.894 9.16564L22.8345 10.1061Z" fill="#000000" class="bmwfcol"/><path d="M24.7223 13.6481L29.5519 12.354L29.2077 11.0693L24.378 12.3634L24.7223 13.6481Z" fill="#000000" class="bmwfcol"/><path d="M12.0551 19.9443C11.6001 19.4894 11.6001 18.7517 12.0551 18.2968C12.51 17.8418 13.2477 17.8418 13.7026 18.2968C14.1576 18.7517 14.1576 19.4894 13.7026 19.9443C13.2477 20.3993 12.51 20.3993 12.0551 19.9443Z" fill="#000000" class="bmwfcol"/><path d="M4.63017 22.1871C3.58942 23.2278 3.58942 24.9152 4.63017 25.956L6.04438 27.3702C7.08513 28.4109 8.77252 28.4109 9.81326 27.3702L17.4647 19.7187L21.3189 18.6933L23.7187 16.2935L15.7071 8.28199L13.3074 10.6818L12.2822 14.5351L4.63017 22.1871ZM12.8786 15.8196L16.1808 19.1218L8.87281 26.4297C8.35146 26.9511 7.50619 26.9511 6.98484 26.4297L5.57062 25.0155C5.04927 24.4942 5.04927 23.6489 5.57062 23.1275L12.8786 15.8196ZM20.6313 17.5L17.3207 18.3808L13.6199 14.68L14.5007 11.3693L15.7071 10.1629L21.8378 16.2935L20.6313 17.5Z" fill="#000000" class="bmwfcol"/><title>torch_lt_48</title></svg>