<svg width="48" height="48" viewBox="0 0 32 32" xmlns="http://www.w3.org/2000/svg"><path d="M4.72437 13C6.04819 8.01134 10.5948 4.33496 16 4.33496C18.3704 4.33496 20.2424 4.86775 22.1632 6.05995C23.7646 7.05392 25.3937 8.50361 27.375 10.4445V4.375L28.625 5.625V12.625H21.625L20.375 11.375H26.4241C24.4674 9.45966 22.9336 8.1035 21.4618 7.18997C19.7576 6.13217 18.1296 5.66496 16 5.66496C11.3354 5.66496 7.39264 8.75515 6.10711 13H4.72437Z" fill="#000000" class="bmwfcol"/><path d="M18 9.64022C17.3687 9.44188 16.6969 9.33496 16.0001 9.33496C12.3191 9.33496 9.33508 12.319 9.33508 16C9.33508 19.6809 12.3191 22.665 16.0001 22.665C19.6811 22.665 22.6651 19.6809 22.6651 16C22.6651 15.6601 22.6396 15.3262 22.5906 15H21.2415C21.3029 15.3239 21.3351 15.6582 21.3351 16C21.3351 18.9464 18.9465 21.335 16.0001 21.335C13.0536 21.335 10.6651 18.9464 10.6651 16C10.6651 13.0535 13.0536 10.665 16.0001 10.665C16.7073 10.665 17.3824 10.8026 18 11.0525V9.64022Z" fill="#000000" class="bmwfcol"/><path d="M27.2289 15H25.7791C25.8504 15.7051 25.8461 16.4159 25.7663 17.1203L25.7261 17.4749L27.8788 19.2823C27.6106 20.2583 27.2224 21.1974 26.7232 22.078L23.9211 21.8325L23.6986 22.1122C23.2321 22.6986 22.7005 23.2302 22.1141 23.6967L21.8345 23.9191L22.0791 26.7197C21.199 27.2198 20.2604 27.6091 19.2846 27.8785L17.4767 25.7262L17.1222 25.7664C16.3778 25.8507 15.6263 25.8507 14.8819 25.7664L14.5272 25.7262L12.7199 27.8789C11.7438 27.6107 10.8047 27.2225 9.92409 26.7233L10.1697 23.9212L9.89002 23.6987C9.30355 23.2322 8.77192 22.7006 8.30542 22.1142L8.08302 21.8346L5.28245 22.0792C4.78233 21.1992 4.3931 20.2605 4.12366 19.2848L6.27599 17.4769L6.23581 17.1223C6.19355 16.7494 6.17246 16.3747 6.17254 16H4.84254C4.84248 16.3046 4.85476 16.6092 4.87938 16.913L2.6322 18.8006L2.72848 19.2007C3.06189 20.5863 3.61112 21.9108 4.35609 23.1258L4.5711 23.4764L7.49391 23.2211C7.88796 23.685 8.31908 24.1161 8.78298 24.5101L8.52657 27.4354L8.87793 27.6504C10.0937 28.3943 11.4191 28.9422 12.8053 29.2739L13.205 29.3696L15.0913 27.1228C15.6975 27.1719 16.3067 27.1719 16.9129 27.1228L18.8005 29.37L19.2006 29.2737C20.5862 28.9403 21.9107 28.391 23.1257 27.646L23.4763 27.431L23.221 24.5082C23.6849 24.1142 24.116 23.6831 24.51 23.2192L27.4353 23.4755L27.6503 23.1242C28.3942 21.9084 28.942 20.5831 29.2738 19.1969L29.3694 18.7971L27.1227 16.9109C27.1718 16.3047 27.1718 15.6955 27.1227 15.0893L27.2289 15Z" fill="#000000" class="bmwfcol"/><title>torque_lt_48</title></svg>