<svg width="48" height="48" viewBox="0 0 32 32" xmlns="http://www.w3.org/2000/svg"><path d="M7.7116 19L2.81015 26H1.18652L6.08797 19H7.7116Z" fill="#000000" class="bmwfcol"/><path d="M12.613 12L9.11202 17H7.48839L10.9894 12H12.613Z" fill="#000000" class="bmwfcol"/><path d="M16.8143 6L14.0134 10H12.3898L15.1906 6H16.8143Z" fill="#000000" class="bmwfcol"/><path d="M27.4929 19.0002L29.3686 26.0002H27.9917L26.116 19.0002H27.4929Z" fill="#000000" class="bmwfcol"/><path d="M25.6173 12.0002L26.957 17.0002H25.5801L24.2404 12.0002H25.6173Z" fill="#000000" class="bmwfcol"/><path d="M24.0096 6.00022L25.0814 10.0002H23.7045L22.6327 6.00022H24.0096Z" fill="#000000" class="bmwfcol"/><path d="M12.1799 16.1798C13.3714 14.9883 15.049 14.335 17.0001 14.335C18.9512 14.335 20.6288 14.9883 21.8203 16.1798C23.0118 17.3713 23.6651 19.0489 23.6651 21C23.6651 22.9511 23.0118 24.6287 21.8203 25.8202C20.6288 27.0117 18.9512 27.665 17.0001 27.665C15.049 27.665 13.3714 27.0117 12.1799 25.8202C10.9884 24.6287 10.3351 22.9511 10.3351 21C10.3351 19.0489 10.9884 17.3713 12.1799 16.1798ZM13.1203 17.1202C12.3375 17.9031 11.8232 18.9933 11.696 20.335H13.7142C13.7815 20.1565 13.8669 19.9771 13.9703 19.7981C14.3336 19.1694 14.7248 18.7386 15.2985 18.52C15.7861 18.3342 16.348 18.3346 16.9186 18.335H17.0816C17.6522 18.3346 18.2141 18.3342 18.7017 18.52C19.2754 18.7386 19.6666 19.1694 20.0299 19.7981C20.1333 19.9771 20.2187 20.1565 20.286 20.335H22.3042C22.177 18.9933 21.6628 17.9031 20.8799 17.1202C19.9714 16.2117 18.649 15.665 17.0001 15.665C15.3512 15.665 14.0288 16.2117 13.1203 17.1202ZM22.3042 21.665H20.4504C20.4115 21.932 20.3266 22.1892 20.1959 22.4317C19.792 23.1814 19.0198 23.6617 18.1605 23.8749C17.9843 23.9187 17.8214 23.9559 17.6651 23.9848V26.3041C19.0068 26.1769 20.097 25.6626 20.8799 24.8798C21.6628 24.0969 22.177 23.0066 22.3042 21.665ZM13.1203 24.8798C13.9032 25.6626 14.9935 26.1769 16.3351 26.3041V23.9847C16.1789 23.9559 16.016 23.9186 15.8399 23.8749C14.9806 23.6617 14.2084 23.1814 13.8044 22.4318C13.6737 22.1892 13.5888 21.932 13.5499 21.665H11.696C11.8232 23.0066 12.3375 24.0969 13.1203 24.8798ZM15.7721 19.7628C15.604 19.8269 15.4119 19.9615 15.1219 20.4635C14.7718 21.0695 14.8158 21.5049 14.9753 21.8009C15.1511 22.1272 15.5474 22.432 16.1603 22.5841C16.5677 22.6852 16.7937 22.7211 17.0002 22.7211C17.2067 22.7211 17.4327 22.6852 17.8401 22.5841C18.453 22.432 18.8493 22.1272 19.025 21.8009C19.1845 21.505 19.2284 21.0695 18.8783 20.4635C18.5883 19.9615 18.3962 19.8269 18.2281 19.7628C17.9971 19.6748 17.6891 19.6651 17.0001 19.6651C16.3111 19.6651 16.0031 19.6748 15.7721 19.7628Z" fill="#000000" class="bmwfcol"/><title>traffic-jam-assistant_lt_48</title></svg>