<svg width="48" height="48" viewBox="0 0 32 32" xmlns="http://www.w3.org/2000/svg"><path d="M4.05627 20.665H1V19.335H3.83919C3.92502 17.6637 5.30732 16.335 6.99996 16.335C8.69064 16.335 10.0717 17.6606 10.1604 19.3292C10.5095 19.3198 10.7456 19.2952 10.9883 19.2317C11.317 19.1456 11.6823 18.9801 12.3352 18.6136L12.335 17.269C11.9163 16.8209 11.6565 16.4319 11.5075 16.0594C11.3348 15.6276 11.3349 15.2706 11.335 15.0155L11.335 14.6093L10.0272 14.4949L9.66851 14.2873C8.13345 13.3985 7.03287 12.7613 5.92458 12.3313C4.78823 11.8904 3.6325 11.665 1.99998 11.665C1.6358 11.665 1.30475 11.6653 1 11.6686V10.3378C1.29114 10.3349 1.59633 10.3349 1.91904 10.335L1.99998 10.335C3.77603 10.335 5.09746 10.5838 6.40566 11.0913C7.61352 11.56 8.79996 12.2472 10.2896 13.11L10.4376 13.1957L12.6649 13.3906L12.665 14.9999C12.665 15.2439 12.6687 15.3812 12.7424 15.5655C12.8216 15.7633 13.005 16.0645 13.4702 16.5297L13.665 16.7245L13.6652 19.3839L13.3327 19.5759C12.4695 20.0742 11.8992 20.368 11.3253 20.5183C10.8829 20.6341 10.4578 20.6586 9.94417 20.6637C9.48049 21.8358 8.33706 22.665 6.99996 22.665C5.66337 22.665 4.52028 21.8364 4.05627 20.665ZM6.99996 17.665C5.98652 17.665 5.16496 18.4865 5.16496 19.5C5.16496 20.5134 5.98652 21.335 6.99996 21.335C8.0134 21.335 8.83496 20.5134 8.83496 19.5C8.83496 18.4865 8.0134 17.665 6.99996 17.665Z" fill="#000000" class="bmwfcol"/><path d="M17.335 13V19.335H15V20.665L21.0563 20.665C21.5203 21.8364 22.6634 22.665 24 22.665C25.3366 22.665 26.4796 21.8364 26.9437 20.665H29.2754L29.4828 20.4576C29.7221 20.2183 29.92 20.0204 30.0724 19.8511C30.2287 19.6774 30.3681 19.5007 30.4698 19.2974C30.6667 18.9035 30.6659 18.5019 30.6651 18.0823L30.665 18V13C30.665 12.553 30.5253 12.1198 30.2027 11.7972C29.8801 11.4747 29.4469 11.335 29 11.335H19C18.553 11.335 18.1198 11.4747 17.7972 11.7972C17.4747 12.1198 17.335 12.553 17.335 13ZM18.7377 12.7377C18.7601 12.7153 18.8269 12.665 19 12.665H29C29.173 12.665 29.2398 12.7153 29.2622 12.7377C29.2847 12.7601 29.335 12.8269 29.335 13V18C29.335 18.5504 29.3204 18.6222 29.2802 18.7026C29.2568 18.7493 29.2087 18.8226 29.0838 18.9613C28.9927 19.0626 28.8773 19.181 28.7241 19.335H27.1607C27.0749 17.6637 25.6926 16.335 24 16.335C22.3073 16.335 20.925 17.6637 20.8392 19.335H18.665V13C18.665 12.8269 18.7153 12.7601 18.7377 12.7377ZM22.165 19.5C22.165 18.4865 22.9865 17.665 24 17.665C25.0134 17.665 25.835 18.4865 25.835 19.5C25.835 20.5134 25.0134 21.335 24 21.335C22.9865 21.335 22.165 20.5134 22.165 19.5Z" fill="#000000" class="bmwfcol"/><title>trailer-load_lt_48</title></svg>