<svg width="48" height="48" viewBox="0 0 32 32" xmlns="http://www.w3.org/2000/svg"><path d="M14.8359 17C14.8359 16.3565 15.3575 15.835 16.0009 15.835C16.6443 15.835 17.1659 16.3565 17.1659 17C17.1659 17.6434 16.6443 18.165 16.0009 18.165C15.3575 18.165 14.8359 17.6434 14.8359 17Z" fill="#000000" class="bmwfcol"/><path d="M9.83594 21C9.83594 20.3565 10.3575 19.835 11.0009 19.835C11.6443 19.835 12.1659 20.3565 12.1659 21C12.1659 21.6434 11.6443 22.165 11.0009 22.165C10.3575 22.165 9.83594 21.6434 9.83594 21Z" fill="#000000" class="bmwfcol"/><path d="M21.0009 19.835C20.3575 19.835 19.8359 20.3565 19.8359 21C19.8359 21.6434 20.3575 22.165 21.0009 22.165C21.6443 22.165 22.1659 21.6434 22.1659 21C22.1659 20.3565 21.6443 19.835 21.0009 19.835Z" fill="#000000" class="bmwfcol"/><path d="M9.00092 4.76028L12.3359 3.86667V6.39275C12.1529 6.40349 11.9771 6.41624 11.8083 6.43137C10.7247 6.52846 9.84215 6.72881 9.12093 7.18956C8.38453 7.66002 7.89551 8.35001 7.49283 9.26283C7.09666 10.1609 6.7588 11.3352 6.35884 12.8279L6.33618 12.9124L6.33594 23.9999C6.33594 24.7569 6.57064 25.4401 7.06571 25.9352C7.56078 26.4303 8.244 26.665 9.00094 26.665H9.84937L7.92389 30H9.45964L11.3851 26.665H20.617L22.5424 30H24.0782L22.1527 26.665H23.0009C23.7579 26.665 24.4411 26.4303 24.9362 25.9352C25.4312 25.4401 25.6659 24.7569 25.6659 24L25.6657 12.9124L25.643 12.8279C25.2431 11.3352 24.9052 10.1609 24.509 9.26283C24.1064 8.35001 23.6173 7.66002 22.8809 7.18956C22.1597 6.72881 21.2771 6.52846 20.1935 6.43137C20.0248 6.41624 19.849 6.40349 19.6659 6.39275V3.86673L23.0009 4.76034V3.38342L19.0882 2.33502L12.9136 2.33496L9.00092 3.38337V4.76028ZM13.6659 6.34666V3.66497L18.3359 3.66501V6.34666C17.651 6.33496 16.8867 6.33496 16.0341 6.33496H15.9678C15.1151 6.33496 14.3509 6.33496 13.6659 6.34666ZM7.66594 24L7.66617 13.665H24.3357L24.3359 24C24.3359 24.483 24.1906 24.7998 23.9957 24.9947C23.8008 25.1897 23.484 25.335 23.0009 25.335H9.00094C8.51788 25.335 8.20109 25.1897 8.00616 24.9947C7.81123 24.7998 7.66594 24.483 7.66594 24ZM23.2922 9.79963C23.5722 10.4344 23.8301 11.2544 24.1304 12.335H16.6659V7.66519C18.0971 7.66665 19.1966 7.67736 20.0748 7.75606C21.0837 7.84646 21.7122 8.02112 22.1649 8.31037C22.6025 8.58992 22.9504 9.02493 23.2922 9.79963ZM11.927 7.75606C12.8053 7.67736 13.9048 7.66665 15.3359 7.66519V12.335H7.87144C8.17174 11.2544 8.42965 10.4344 8.70969 9.79963C9.05144 9.02493 9.39938 8.58992 9.83696 8.31037C10.2897 8.02112 10.9181 7.84646 11.927 7.75606Z" fill="#000000" class="bmwfcol"/><title>train_front_lt_48</title></svg>