<svg width="48" height="48" viewBox="0 0 32 32" xmlns="http://www.w3.org/2000/svg"><path d="M11.9066 13.0054H6.83203V14.0954H8.81317V19.0001H9.92549V14.0954H11.9066V13.0054Z" fill="#000000" class="bmwfcol"/><path d="M20.3258 14.7014C20.553 14.6202 20.8005 14.5562 21.0377 14.5562C21.4554 14.5562 21.7138 14.6384 21.9455 14.833C21.9946 14.8741 22.0382 14.9213 22.0752 14.9697C22.2206 14.8913 22.3866 14.8078 22.5616 14.7368C22.8082 14.6368 23.0861 14.5562 23.3602 14.5562C23.8224 14.5562 24.1558 14.6538 24.4231 14.958L24.4247 14.9599C24.6999 15.281 24.7548 15.7149 24.7548 16.3366V19.0001H23.6573V16.3663C23.6573 16.2056 23.6553 16.0715 23.6405 15.9592C23.6256 15.8461 23.6003 15.7769 23.5695 15.7345L23.5685 15.7331C23.5174 15.6616 23.4448 15.6314 23.2489 15.6314C23.1197 15.6314 22.9479 15.6812 22.7598 15.7604C22.6199 15.8193 22.4836 15.8888 22.3656 15.9516V19.0001H21.2681V16.2847C21.2681 16.1299 21.2643 16.0076 21.2513 15.9104C21.2382 15.8119 21.2178 15.7578 21.1978 15.7278C21.1701 15.6862 21.1423 15.6671 21.1063 15.6545C21.0622 15.6391 20.999 15.6314 20.8968 15.6314C20.7642 15.6314 20.5902 15.6777 20.3977 15.7523C20.2518 15.8089 20.1068 15.8771 19.9763 15.9412V19.0001H18.8789V14.6823H19.9763V14.843C20.0881 14.7932 20.206 14.7442 20.3258 14.7014Z" fill="#000000" class="bmwfcol"/><path d="M13.8557 15.695L14.0204 15.6654V14.5605L13.7903 14.5955C13.4357 14.6495 13.1046 14.7428 12.8602 14.8568L12.8554 14.8592C12.7753 14.8993 12.7025 14.9393 12.6329 14.9811V14.6823H11.5354V19.0001H12.6329V16.1757C12.777 16.0811 12.9419 15.9875 13.124 15.9135L13.1268 15.9123C13.3588 15.8139 13.5819 15.7442 13.8557 15.695Z" fill="#000000" class="bmwfcol"/><path d="M16.0452 14.5562C15.6884 14.5562 15.379 14.6024 15.1146 14.7212C14.8462 14.8418 14.637 15.0315 14.4733 15.2956C14.2125 15.7085 14.1312 16.29 14.1312 16.8635C14.1312 17.4559 14.2118 18.0488 14.4238 18.4228C14.5357 18.6257 14.6832 18.8049 14.8893 18.9322C15.0963 19.06 15.3477 19.1262 15.652 19.1262C16.0899 19.1262 16.3942 18.9365 16.7244 18.7039L16.728 18.7012C16.7643 18.6744 16.7989 18.6483 16.8321 18.6227V19.0001H17.9296V15.0317L17.7981 14.9838C17.1747 14.7564 16.6212 14.5562 16.0452 14.5562ZM15.2361 16.8634C15.2361 16.4363 15.2879 16.1358 15.4045 15.9206C15.4672 15.8068 15.5443 15.7361 15.642 15.6905C15.7446 15.6426 15.8829 15.6165 16.0749 15.6165C16.3245 15.6165 16.5798 15.6925 16.8321 15.7804V17.3724C16.6894 17.4941 16.5222 17.6346 16.3611 17.7585L16.3599 17.7595C16.1227 17.9447 15.9113 18.0584 15.7484 18.0584C15.6244 18.0584 15.5491 18.0351 15.4977 18.0021C15.4472 17.9696 15.3983 17.9131 15.3532 17.8079C15.3166 17.7233 15.2859 17.5885 15.2653 17.4157C15.2452 17.2466 15.2361 17.0544 15.2361 16.8634Z" fill="#000000" class="bmwfcol"/><path d="M6.00094 4.33502C5.554 4.33502 5.12078 4.47472 4.79821 4.7973C4.47564 5.11987 4.33594 5.55308 4.33594 6.00002V26C4.33594 26.447 4.47564 26.8802 4.79821 27.2027C5.12078 27.5253 5.554 27.665 6.00094 27.665H26.0009C26.4479 27.665 26.8811 27.5253 27.2037 27.2027C27.5262 26.8802 27.6659 26.447 27.6659 26V6.00002C27.6659 5.55308 27.5262 5.11987 27.2037 4.7973C26.8811 4.47472 26.4479 4.33502 26.0009 4.33502H6.00094ZM5.66594 6.00002C5.66594 5.82696 5.71623 5.76018 5.73866 5.73775C5.76109 5.71532 5.82788 5.66502 6.00094 5.66502H26.0009C26.174 5.66502 26.2408 5.71532 26.2632 5.73775C26.2856 5.76018 26.3359 5.82696 26.3359 6.00002V26C26.3359 26.1731 26.2856 26.2399 26.2632 26.2623C26.2408 26.2847 26.174 26.335 26.0009 26.335H6.00094C5.82788 26.335 5.76109 26.2847 5.73866 26.2623C5.71623 26.2399 5.66594 26.1731 5.66594 26V6.00002Z" fill="#000000" class="bmwfcol"/><title>tram_lt_48</title></svg>