<svg width="48" height="48" viewBox="0 0 32 32" xmlns="http://www.w3.org/2000/svg"><path d="M6.33496 2L6.33496 30H7.66496L7.66496 2H6.33496Z" fill="#000000" class="bmwfcol"/><path fill-rule="evenodd" clip-rule="evenodd" d="M13.614 2.19849H16.1986C16.9872 2.19849 17.5377 2.27519 17.9961 2.6259C18.4504 2.96961 18.6557 3.54203 18.6557 4.12233C18.6557 4.75592 18.3842 5.19659 18.0616 5.58699L18.0607 5.58819L18.0596 5.58939C17.8999 5.77869 17.7199 5.97531 17.5691 6.13614L19.1923 8.80033H17.5821L16.1732 6.48397H14.9782V8.80033H13.614V2.19849ZM14.9782 3.53877V5.14369H16.635C16.7604 5.01142 16.8742 4.88901 16.972 4.77285L16.9734 4.77122L16.9748 4.76961C17.1654 4.54966 17.2756 4.35617 17.2756 4.12233C17.2756 3.99164 17.2558 3.8991 17.2242 3.83129C17.1944 3.76754 17.1476 3.71109 17.0664 3.66033C16.9364 3.57847 16.7231 3.53877 16.1349 3.53877H14.9782Z" fill="#000000" class="bmwfcol"/><path d="M13.408 12.898H14.835L17.2368 16.9897V12.898H18.593V19.4998H17.166L14.7642 15.4081V19.4998H13.408V12.898Z" fill="#000000" class="bmwfcol"/><path fill-rule="evenodd" clip-rule="evenodd" d="M25.4222 18.698H22.7501V25.2998H24.1142V23.0551C24.7215 23.0547 25.2815 23.0518 25.5938 23.0305C26.1798 22.9887 26.7053 22.8507 27.0927 22.4237C27.4992 21.9784 27.6166 21.3964 27.6166 20.8129C27.6166 20.2426 27.4543 19.6427 27.0671 19.2555C26.664 18.8524 26.1516 18.698 25.4222 18.698ZM24.1142 21.7147V20.0383H25.3505C25.7754 20.0383 25.9382 20.0856 26.0422 20.1855C26.1511 20.2899 26.2366 20.4976 26.2366 20.8129C26.2366 21.1471 26.1882 21.3405 26.0918 21.4658L26.0912 21.4666L26.0906 21.4674C26 21.5868 25.8507 21.6528 25.4698 21.684C25.1399 21.7098 24.6459 21.714 24.1142 21.7147Z" fill="#000000" class="bmwfcol"/><path fill-rule="evenodd" clip-rule="evenodd" d="M13.5013 23.5979H15.8869C16.7768 23.5979 17.4021 23.7375 17.9158 24.2608C18.478 24.8325 18.6943 25.7456 18.6943 26.8749C18.6943 28.0189 18.4513 28.9569 17.8299 29.551C17.3028 30.0589 16.6679 30.1997 15.8232 30.1997H13.5013V23.5979ZM14.8655 24.9381V28.8594H15.8311C16.1539 28.8594 16.3781 28.8233 16.5468 28.7588C16.7091 28.6967 16.8348 28.6027 16.9526 28.4594C17.1773 28.1861 17.3142 27.649 17.3142 26.8749C17.3142 26.1096 17.1988 25.5501 16.9343 25.2412C16.7253 25.0058 16.4418 24.9381 15.8869 24.9381H14.8655Z" fill="#000000" class="bmwfcol"/><title>transmission-automatic_lt_48</title></svg>