<svg width="48" height="48" viewBox="0 0 32 32" xmlns="http://www.w3.org/2000/svg"><path d="M7.00094 9.66496C6.24552 9.66496 5.56273 9.42999 5.06755 8.93553C4.57222 8.44091 4.33594 7.75786 4.33594 6.99996C4.33594 6.54981 4.47748 6.14024 4.65582 5.78108C4.85038 5.38927 5.10053 5.0288 5.34817 4.66936C5.78816 4.031 6.17875 3.4643 6.35093 2.82662L6.48367 2.33496H7.5182L7.65095 2.82662C7.82312 3.4643 8.21372 4.031 8.65371 4.66936C8.90135 5.0288 9.1515 5.38927 9.34605 5.78108C9.52439 6.14024 9.66594 6.54981 9.66594 6.99996C9.66594 7.75786 9.42966 8.44091 8.93432 8.93553C8.43914 9.42999 7.75635 9.66496 7.00094 9.66496ZM5.66594 6.99996C5.66594 7.48207 5.81166 7.79902 6.00732 7.99439C6.20314 8.18993 6.52035 8.33496 7.00094 8.33496C7.48152 8.33496 7.79873 8.18993 7.99455 7.99439C8.19022 7.79902 8.33594 7.48207 8.33594 6.99996C8.33594 6.83012 8.28248 6.62968 8.15482 6.37259C7.98057 6.02166 7.74994 5.70132 7.52776 5.37971C7.36066 5.13824 7.17646 4.87208 7.00094 4.58302C6.82541 4.87208 6.64122 5.13823 6.47412 5.3797C6.25194 5.70131 6.0213 6.02166 5.84705 6.37259C5.71939 6.62968 5.66594 6.83012 5.66594 6.99996Z" fill="#000000" class="bmwfcol"/><path d="M18.4177 5.27433L17.8656 7.33488L28.4887 7.33488L29.133 4.9301L30.4177 5.27433L28.8648 11.07L27.5801 10.7258L28.1323 8.66488H23.6642V13.4055C24.1472 13.512 24.5782 13.7384 24.9194 14.0797C25.4109 14.5712 25.6642 15.2488 25.6642 15.9999C25.6642 17.2374 24.8805 18.303 23.6642 18.5894V23.3349H28.3342V20.9994H29.6642V26.9994H28.3342V24.6649H17.6642V26.9994H16.3342V20.9994H17.6642V23.3349H22.3342V18.5943C21.8512 18.4878 21.4202 18.2614 21.079 17.9201C20.5875 17.4286 20.3342 16.751 20.3342 15.9999C20.3342 15.2488 20.5875 14.5712 21.079 14.0797C21.4202 13.7384 21.8512 13.512 22.3342 13.4055V8.66488L17.5092 8.66488L16.8648 11.07L15.5801 10.7258L17.133 4.9301L18.4177 5.27433ZM21.6642 15.9999C21.6642 16.4488 21.8109 16.7712 22.0194 16.9797C22.2279 17.1882 22.5503 17.3349 22.9992 17.3349C23.8111 17.3349 24.3342 16.7584 24.3342 15.9999C24.3342 15.551 24.1875 15.2286 23.979 15.0201C23.7705 14.8116 23.4481 14.6649 22.9992 14.6649C22.5503 14.6649 22.2279 14.8116 22.0194 15.0201C21.8109 15.2286 21.6642 15.551 21.6642 15.9999Z" fill="#000000" class="bmwfcol"/><path d="M10.4505 16.6649L7.11542 19.9999H8.88319L12.8831 16L8.883 11.9999H7.11523L10.4502 15.3349H2V16.6649H10.4505Z" fill="#000000" class="bmwfcol"/><title>transfer-box-oil_lt_48</title></svg>