<svg width="48" height="48" viewBox="0 0 32 32" xmlns="http://www.w3.org/2000/svg"><path d="M2 7.33496H10.4502L7.11523 4H8.883L12.8831 8.00009L8.88319 12H7.11542L10.4505 8.66496H2V7.33496Z" fill="#000000" class="bmwfcol"/><path d="M17.8656 7.33496L18.4177 5.27441L17.133 4.93018L15.5801 10.7258L16.8648 11.0701L17.5092 8.66496L20.4048 8.66496C20.5113 9.14796 20.7377 9.57893 21.079 9.92019C21.4202 10.2614 21.8512 10.4879 22.3342 10.5944V23.335H17.6642V20.9995H16.3342V26.9995H17.6642V24.665H28.3342V26.9995H29.6642V20.9995H28.3342V23.335H23.6642V10.5894C24.6556 10.356 25.3596 9.60492 25.586 8.66496H28.1323L27.5801 10.7258L28.8648 11.0701L30.4177 5.27441L29.133 4.93018L28.4887 7.33496L25.5936 7.33496C25.4871 6.85196 25.2607 6.42099 24.9194 6.07973C24.4279 5.58824 23.7503 5.33496 22.9992 5.33496C22.2481 5.33496 21.5705 5.58824 21.079 6.07973C20.7377 6.42099 20.5113 6.85196 20.4048 7.33496L17.8656 7.33496ZM22.0194 7.02019C22.2279 6.81169 22.5503 6.66496 22.9992 6.66496C23.4481 6.66496 23.7705 6.81169 23.979 7.02019C24.1875 7.22869 24.3342 7.55108 24.3342 7.99996C24.3342 8.75844 23.8111 9.33496 22.9992 9.33496C22.5503 9.33496 22.2279 9.18824 22.0194 8.97973C21.8109 8.77123 21.6642 8.44884 21.6642 7.99996C21.6642 7.55108 21.8109 7.22869 22.0194 7.02019Z" fill="#000000" class="bmwfcol"/><path d="M7.00094 21.665C6.24552 21.665 5.56273 21.4301 5.06755 20.9356C4.57222 20.441 4.33594 19.7579 4.33594 19C4.33594 18.5499 4.47748 18.1403 4.65582 17.7812C4.85038 17.3893 5.10053 17.0289 5.34817 16.6694C5.78816 16.0311 6.17875 15.4644 6.35093 14.8267L6.48367 14.335H7.5182L7.65095 14.8267C7.82312 15.4644 8.21372 16.0311 8.65371 16.6694C8.90135 17.0289 9.1515 17.3893 9.34605 17.7812C9.52439 18.1403 9.66594 18.5499 9.66594 19C9.66594 19.7579 9.42966 20.441 8.93432 20.9356C8.43914 21.4301 7.75635 21.665 7.00094 21.665ZM5.66594 19C5.66594 19.4821 5.81166 19.7991 6.00732 19.9945C6.20314 20.19 6.52035 20.335 7.00094 20.335C7.48152 20.335 7.79873 20.19 7.99455 19.9945C8.19022 19.7991 8.33594 19.4821 8.33594 19C8.33594 18.8302 8.28248 18.6298 8.15482 18.3727C8.02558 18.1124 7.84289 17.8371 7.61917 17.5121C7.40773 17.206 7.19411 16.9012 7.00094 16.5831C6.80777 16.9012 6.59415 17.206 6.3827 17.5121C6.15899 17.8371 5.9763 18.1124 5.84705 18.3727C5.71939 18.6298 5.66594 18.8302 5.66594 19Z" fill="#000000" class="bmwfcol"/><title>transmission-oil-front-axle_lt_48</title></svg>