<svg width="48" height="48" viewBox="0 0 32 32" xmlns="http://www.w3.org/2000/svg"><path d="M17.8673 7.33496L18.4194 5.27441L17.1348 4.93018L15.5818 10.7258L16.8665 11.0701L17.511 8.66496L22.3359 8.66496V21.4055C21.8529 21.5121 21.422 21.7385 21.0807 22.0797C20.7395 22.421 20.513 22.852 20.4065 23.335H17.6659V20.9995H16.3359V26.9995H17.6659V24.665H20.4065C20.513 25.148 20.7395 25.5789 21.0807 25.9202C21.5722 26.4117 22.2498 26.665 23.0009 26.665C24.3385 26.665 25.3135 25.8035 25.5878 24.665H28.3359V26.9995H29.6659V20.9995H28.3359V23.335H25.5954C25.4888 22.852 25.2624 22.421 24.9212 22.0797C24.5799 21.7385 24.1489 21.5121 23.6659 21.4055V8.66496L28.134 8.66496L27.5818 10.7258L28.8665 11.0701L30.4194 5.27441L29.1348 4.93018L28.4904 7.33496L17.8673 7.33496ZM22.0212 23.0202C22.2297 22.8117 22.5521 22.665 23.0009 22.665C23.4498 22.665 23.7722 22.8117 23.9807 23.0202C24.1892 23.2287 24.3359 23.5511 24.3359 24C24.3359 24.7584 23.8128 25.335 23.0009 25.335C22.5521 25.335 22.2297 25.1882 22.0212 24.9797C21.8127 24.7712 21.6659 24.4488 21.6659 24C21.6659 23.5511 21.8127 23.2287 22.0212 23.0202Z" fill="#000000" class="bmwfcol"/><path d="M7.11542 27.9995L10.4505 24.6645H2V23.3345H10.4502L7.11523 19.9995H8.883L12.8831 23.9996L8.88319 27.9995H7.11542Z" fill="#000000" class="bmwfcol"/><path d="M7.00094 17.6646C6.24552 17.6646 5.56273 17.4296 5.06755 16.9351C4.57222 16.4405 4.33594 15.7574 4.33594 14.9996C4.33594 14.5494 4.47748 14.1398 4.65582 13.7807C4.85038 13.3889 5.10053 13.0284 5.34817 12.669C5.78816 12.0306 6.17875 11.4639 6.35093 10.8262L6.48367 10.3346H7.5182L7.65095 10.8262C7.82312 11.4639 8.21372 12.0306 8.65371 12.669C8.90135 13.0284 9.1515 13.3889 9.34605 13.7807C9.52439 14.1398 9.66594 14.5494 9.66594 14.9996C9.66594 15.7574 9.42966 16.4405 8.93432 16.9351C8.43914 17.4296 7.75635 17.6646 7.00094 17.6646ZM5.66594 14.9996C5.66594 15.4817 5.81166 15.7986 6.00732 15.994C6.20314 16.1895 6.52035 16.3346 7.00094 16.3346C7.48152 16.3346 7.79873 16.1895 7.99455 15.994C8.19022 15.7986 8.33594 15.4817 8.33594 14.9996C8.33594 14.8297 8.28248 14.6293 8.15482 14.3722C7.98057 14.0213 7.74994 13.7009 7.52776 13.3793C7.36066 13.1378 7.17647 12.8717 7.00094 12.5826C6.82541 12.8717 6.64122 13.1378 6.47412 13.3793C6.25194 13.7009 6.0213 14.0213 5.84705 14.3722C5.71939 14.6293 5.66594 14.8297 5.66594 14.9996Z" fill="#000000" class="bmwfcol"/><title>transmission-oil-rear-axle_lt_48</title></svg>