<svg width="48" height="48" viewBox="0 0 32 32" xmlns="http://www.w3.org/2000/svg"><path d="M15.9984 7.33546C11.2128 7.33546 7.3334 11.2149 7.3334 16.0005C7.3334 20.786 11.2128 24.6655 15.9984 24.6655C20.7839 24.6655 24.6634 20.786 24.6634 16.0005C24.6634 11.2149 20.7839 7.33546 15.9984 7.33546ZM9.42278 19.2543C9.63796 19.1182 9.8323 18.9521 9.99993 18.7619C10.4883 19.316 11.2033 19.6655 11.9999 19.6655C12.7966 19.6655 13.5116 19.316 13.9999 18.7619C14.4883 19.316 15.2033 19.6655 15.9999 19.6655C16.7966 19.6655 17.5116 19.316 17.9999 18.7619C18.4883 19.316 19.2033 19.6655 19.9999 19.6655C20.7966 19.6655 21.5116 19.316 21.9999 18.7619C22.167 18.9514 22.3605 19.117 22.5747 19.2528C21.376 21.6722 18.8814 23.3355 15.9984 23.3355C13.116 23.3355 10.6219 21.6728 9.42278 19.2543ZM8.92808 17.9601C8.75557 17.3363 8.6634 16.6791 8.6634 16.0005C8.6634 11.9495 11.9474 8.66546 15.9984 8.66546C20.0494 8.66546 23.3334 11.9495 23.3334 16.0005C23.3334 16.6783 23.2415 17.3346 23.0694 17.9577C22.8199 17.7152 22.6649 17.3759 22.6649 17.0005H21.3349C21.3349 17.7378 20.7372 18.3355 19.9999 18.3355C19.2626 18.3355 18.6649 17.7378 18.6649 17.0005H17.3349C17.3349 17.7378 16.7372 18.3355 15.9999 18.3355C15.2626 18.3355 14.6649 17.7378 14.6649 17.0005H13.3349C13.3349 17.7378 12.7372 18.3355 11.9999 18.3355C11.2626 18.3355 10.6649 17.7378 10.6649 17.0005H9.33493C9.33493 17.3772 9.17896 17.7174 8.92808 17.9601Z" fill="#000000" class="bmwfcol"/><path d="M8.29738 4.72045L10.9013 6.07421C11.4426 5.79683 12.0054 5.5637 12.5843 5.37709L13.4671 2.57952L13.8731 2.51492C15.2807 2.29095 16.7148 2.28995 18.1227 2.51194L18.5296 2.57609L19.4122 5.37679C19.9916 5.56331 20.5548 5.79662 21.0964 6.07442L23.699 4.72003L24.0318 4.96171C25.185 5.79906 26.1993 6.81253 27.0376 7.96506L27.2797 8.29785L25.9259 10.9018C26.2033 11.443 26.4364 12.0059 26.623 12.5847L29.4206 13.4676L29.4852 13.8735C29.7092 15.2812 29.7102 16.7152 29.4882 18.1232L29.424 18.53L26.6233 19.4127C26.4368 19.992 26.2035 20.5553 25.9257 21.0968L27.2801 23.6995L27.0384 24.0323C26.2011 25.1855 25.1875 26.1998 24.035 27.0381L23.7022 27.2802L21.0984 25.9264C20.5571 26.2038 19.9943 26.4369 19.4154 26.6235L18.5326 29.4211L18.1266 29.4857C16.719 29.7097 15.2848 29.7107 13.8769 29.4887L13.47 29.4245L12.5875 26.6238C12.0081 26.4373 11.4448 26.204 10.9032 25.9262L8.30062 27.2806L7.96778 27.0389C6.81458 26.2016 5.80028 25.188 4.96201 24.0355L4.71995 23.7027L6.07373 21.0988C5.79636 20.5576 5.56322 19.9947 5.37661 19.4159L2.57904 18.533L2.51445 18.1271C2.29047 16.7195 2.28945 15.2853 2.51144 13.8774L2.57559 13.4705L5.37632 12.5879C5.56282 12.0086 5.79612 11.4453 6.07392 10.9037L4.71953 8.30109L4.96121 7.96826C5.79857 6.81507 6.81207 5.80078 7.96458 4.96251L8.29738 4.72045ZM14.4857 3.77104L13.6398 6.45155L13.2968 6.55015C12.5768 6.75707 11.8825 7.04466 11.2271 7.40745L10.9149 7.58026L8.42084 6.28365C7.6225 6.90598 6.90428 7.62476 6.2826 8.42361L7.58034 10.9174L7.40715 11.2298C7.04387 11.8853 6.75621 12.5798 6.54963 13.3002L6.45111 13.6437L3.76831 14.4891C3.64408 15.4938 3.64484 16.5099 3.77056 17.5144L6.45108 18.3603L6.54967 18.7034C6.75659 19.4233 7.04419 20.1177 7.40698 20.7731L7.57979 21.0853L6.28315 23.5792C6.90549 24.3776 7.62429 25.0958 8.42314 25.7175L10.9169 24.4198L11.2294 24.593C11.8848 24.9563 12.5794 25.2439 13.2997 25.4505L13.6433 25.549L14.4887 28.2318C15.4933 28.3561 16.5095 28.3553 17.5139 28.2296L18.3598 25.5491L18.7029 25.4505C19.4229 25.2435 20.1172 24.9559 20.7726 24.5932L21.0848 24.4203L23.5788 25.717C24.3771 25.0946 25.0953 24.3758 25.717 23.5769L24.4193 21.0832L24.5925 20.7707C24.9558 20.1153 25.2435 19.4208 25.45 18.7004L25.5485 18.3569L28.2313 17.5114C28.3556 16.5068 28.3548 15.4907 28.2291 14.4862L25.5486 13.6403L25.45 13.2972C25.2431 12.5773 24.9555 11.8829 24.5927 11.2275L24.4199 10.9153L25.7165 8.42132C25.0942 7.62299 24.3753 6.90478 23.5765 6.2831L21.0827 7.58084L20.7702 7.40765C20.1148 7.04436 19.4203 6.75668 18.6999 6.5501L18.3564 6.45159L17.511 3.76881C16.5063 3.64458 15.4902 3.64532 14.4857 3.77104Z" fill="#000000" class="bmwfcol"/><title>transmission-oil_lt_48</title></svg>