<svg width="48" height="48" viewBox="0 0 32 32" xmlns="http://www.w3.org/2000/svg"><path d="M16.0227 2.39746C16.9336 2.39746 17.6908 2.39746 18.3091 2.44005C18.9299 2.48281 19.4783 2.57152 19.9466 2.78595C20.9655 3.25243 21.3669 4.19718 21.7196 5.51562L21.9387 6.33496H27V7.66496H25.1236C25.1021 7.99495 25.0726 8.44561 25.0362 8.99161C24.9556 10.1994 24.8412 11.8739 24.7062 13.7409C24.4363 17.4718 24.0831 21.9822 23.7512 25.071C23.64 26.1054 23.4436 26.9508 23.0932 27.6207C22.7304 28.3144 22.2161 28.7936 21.5353 29.1048C20.8801 29.4043 20.0962 29.5364 19.2046 29.6008C18.3152 29.665 17.2541 29.665 16.0215 29.665C14.7912 29.665 13.6828 29.665 12.7936 29.601C11.901 29.5367 11.1159 29.4048 10.4599 29.1056C9.77826 28.7945 9.26304 28.3153 8.9006 27.6208C8.55064 26.9501 8.35615 26.1038 8.24856 25.0687C7.93767 22.0778 7.58453 17.5686 7.30948 13.8138C7.17185 11.935 7.0536 10.2426 6.96975 9.01995C6.93144 8.46125 6.9003 8.00058 6.87779 7.66496H5V6.33496H10.0613L10.2804 5.51562C10.6331 4.19718 11.0345 3.25243 12.0534 2.78595C12.5217 2.57152 13.0701 2.48281 13.6909 2.44005C14.3092 2.39746 15.1118 2.39746 16.0227 2.39746ZM8.21078 7.66496C8.23267 7.99066 8.26165 8.41887 8.29663 8.92896C8.38038 10.1501 8.49848 11.8404 8.63592 13.7166C8.91102 17.472 9.26288 21.9628 9.57144 24.9312C9.67181 25.8969 9.84256 26.551 10.0797 27.0055C10.3044 27.436 10.5982 27.7067 11.012 27.8955C11.4515 28.0961 12.0484 28.2139 12.8891 28.2744C13.7265 28.3347 14.7417 28.335 16 28.335C17.2583 28.335 18.2725 28.3346 19.1088 28.2742C19.9482 28.2136 20.5438 28.0957 20.9823 27.8952C21.3953 27.7064 21.6891 27.4356 21.9147 27.0043C22.1528 26.5492 22.325 25.8946 22.4288 24.9289C22.758 21.8655 23.1098 17.3759 23.3796 13.6449C23.5145 11.781 23.6286 10.109 23.7091 8.90305C23.7424 8.40406 23.7699 7.98489 23.7908 7.66496H8.21078ZM20.562 6.33496C20.3507 5.54529 20.2139 4.37113 19.393 3.99523C19.1446 3.88153 18.7878 3.80617 18.2177 3.7669C17.6503 3.72782 16.9384 3.72746 16 3.72746C15.0616 3.72746 14.3497 3.72782 13.7823 3.7669C13.2122 3.80617 12.8554 3.88153 12.607 3.99523C11.7861 4.37113 11.6493 5.54529 11.438 6.33496H20.562Z" fill="#000000" class="bmwfcol"/><title>trash-can_lt_48</title></svg>