<svg width="48" height="48" viewBox="0 0 32 32" xmlns="http://www.w3.org/2000/svg"><path d="M13.0779 19.258C12.6956 19.258 12.3361 19.2215 12.001 19.1524V20.5041C12.3472 20.5597 12.7069 20.588 13.0779 20.588C14.7059 20.588 16.1143 20.0425 17.1173 19.0394C18.1204 18.0364 18.6659 16.628 18.6659 15C18.6659 12.4929 17.3676 10.5451 15.2292 9.77166C14.4558 7.63331 12.508 6.33496 10.0009 6.33496C7.49388 6.33496 5.54611 7.63331 4.77263 9.77166C2.63428 10.5451 1.33594 12.4929 1.33594 15C1.33594 16.628 1.88152 18.0364 2.88456 19.0394C3.88759 20.0425 5.29597 20.588 6.92401 20.588C7.80072 20.588 8.61432 20.43 9.33605 20.1263V24.335H2.00098V25.665H30.001V24.335H29.6659V21.665H31.001V20.335L19.001 20.335V21.665H20.3359V24.335H10.666L10.666 16.8345L14.0009 14.9092V13.3734L10.666 15.2988V11.9999H9.33605V16.8974L6.00085 14.9718V16.5076L9.33605 18.4332L9.33605 18.6375C8.68952 19.0304 7.87778 19.258 6.92401 19.258C5.59821 19.258 4.54505 18.819 3.82501 18.099C3.10497 17.3789 2.66594 16.3258 2.66594 15C2.66594 12.8942 3.76787 11.4389 5.48618 10.9372L5.836 10.835L5.93814 10.4852C6.43985 8.7669 7.89517 7.66496 10.0009 7.66496C12.1067 7.66496 13.562 8.7669 14.0637 10.4852L14.1659 10.835L14.5157 10.9372C16.234 11.4389 17.3359 12.8942 17.3359 15C17.3359 16.3258 16.8969 17.3789 16.1769 18.099C15.4568 18.819 14.4037 19.258 13.0779 19.258ZM28.3359 21.665V24.335H21.6659V21.665L28.3359 21.665Z" fill="#000000" class="bmwfcol"/><path d="M21.6659 18C21.6659 17.8511 21.7127 17.7787 21.7462 17.7452C21.7797 17.7117 21.8521 17.665 22.0009 17.665H28.0009C28.1498 17.665 28.2222 17.7117 28.2557 17.7452C28.2892 17.7787 28.3359 17.8511 28.3359 18V19H29.6659V18C29.6659 17.5488 29.5127 17.1212 29.1962 16.8047C28.8797 16.4882 28.4521 16.335 28.0009 16.335H22.0009C21.5498 16.335 21.1222 16.4882 20.8057 16.8047C20.4892 17.1212 20.3359 17.5488 20.3359 18V19H21.6659V18Z" fill="#000000" class="bmwfcol"/><title>tree_and_bench_lt_48</title></svg>