<svg width="48" height="48" viewBox="0 0 32 32" xmlns="http://www.w3.org/2000/svg"><path d="M19.001 23.1186C19.6219 23.2603 20.29 23.335 21.0009 23.335C23.2498 23.335 25.0722 22.5882 26.3307 21.3297C27.5892 20.0712 28.3359 18.2488 28.3359 16C28.3359 12.4119 26.4406 9.87099 23.4539 8.99895L23.1041 8.89681L23.0019 8.54699C22.1299 5.56034 19.589 3.66496 16.0009 3.66496C12.4129 3.66496 9.87197 5.56034 8.99993 8.54699L8.89779 8.89681L8.54797 8.99895C5.56131 9.87099 3.66594 12.4119 3.66594 16C3.66594 18.2488 4.41266 20.0712 5.67116 21.3297C6.92967 22.5882 8.75206 23.335 11.0009 23.335C12.7155 23.335 14.181 22.9005 15.3359 22.1398V21.3837L10.001 18.3036V16.7678L15.3359 19.848V11H16.6659V16.8484L22.001 13.7682V15.3039L16.6659 18.3841L16.6659 30H15.3359V23.678C14.0843 24.3228 12.6172 24.665 11.0009 24.665C8.44982 24.665 6.27221 23.8117 4.73071 22.2702C3.18921 20.7287 2.33594 18.5511 2.33594 16C2.33594 12.0126 4.42525 8.9767 7.83125 7.83028C8.97767 4.42428 12.0136 2.33496 16.0009 2.33496C19.9883 2.33496 23.0242 4.42428 24.1706 7.83027C27.5766 8.97669 29.6659 12.0126 29.6659 16C29.6659 18.5511 28.8127 20.7287 27.2712 22.2702C25.7297 23.8117 23.5521 24.665 21.0009 24.665C20.3049 24.665 19.6364 24.6015 19.001 24.4777V23.1186Z" fill="#000000" class="bmwfcol"/><title>tree_lt_48</title></svg>