<svg width="48" height="48" viewBox="0 0 32 32" xmlns="http://www.w3.org/2000/svg"><path d="M30.6659 10.335H9.33594V12.335L3.53559 12.3351L3.37063 12.7883C2.37882 15.5133 1.86865 16.9149 1.61098 17.8173C1.33672 18.7778 1.33594 19.2229 1.33594 20V23.665H3.41958C3.715 24.815 4.75872 25.665 6.00094 25.665C7.24316 25.665 8.28687 24.815 8.58229 23.665H20.4196C20.715 24.815 21.7587 25.665 23.0009 25.665C24.2432 25.665 25.2869 24.8151 25.5823 23.665L26.5111 23.665C27.2322 23.6651 27.7651 23.6652 28.326 23.5183C28.9 23.368 29.4703 23.0743 30.3334 22.5759L30.6659 22.3839V10.335ZM25.5823 22.335C25.3978 21.6165 24.9212 21.0152 24.2866 20.665H29.3359V21.6136C28.683 21.9801 28.3177 22.1456 27.9891 22.2317C27.611 22.3307 27.2488 22.335 26.4507 22.335L25.5823 22.335ZM10.6659 19.335V11.665H29.3359V19.335H10.6659ZM7.66592 13.665L9.33594 13.665V20.665H21.7153C21.0807 21.0152 20.6041 21.6165 20.4196 22.335H8.58231C8.28691 21.1849 7.24318 20.335 6.00094 20.335C4.75869 20.335 3.71497 21.1849 3.41957 22.335H2.66594L2.66594 19.9855C2.66593 19.4311 2.66593 19.1228 2.77133 18.644C4.00419 18.5769 5.04133 18.3587 5.80858 18.1395C6.31465 17.9949 6.82182 17.8259 7.29651 17.5958L7.66592 17.4112V13.665ZM6.33592 13.665V16.5621C6.12225 16.6456 5.82078 16.7528 5.44325 16.8606C4.85461 17.0288 4.08389 17.1977 3.17466 17.2812C3.442 16.487 3.84784 15.3664 4.46689 13.6651L6.33592 13.665ZM6.00094 21.665C6.73824 21.665 7.33594 22.2627 7.33594 23C7.33594 23.7373 6.73824 24.335 6.00094 24.335C5.26364 24.335 4.66594 23.7373 4.66594 23C4.66594 22.2627 5.26364 21.665 6.00094 21.665ZM23.0009 21.665C23.7382 21.665 24.3359 22.2627 24.3359 23C24.3359 23.7373 23.7382 24.335 23.0009 24.335C22.2636 24.335 21.6659 23.7373 21.6659 23C21.6659 22.2627 22.2636 21.665 23.0009 21.665Z" fill="#000000" class="bmwfcol"/><title>truck_lt_48</title></svg>