<svg width="48" height="48" viewBox="0 0 32 32" xmlns="http://www.w3.org/2000/svg"><path d="M22.4521 8.665L19.1171 12H20.8848L24.8848 8L20.8848 4H19.1171L22.4521 7.335H14.0009V8.665H22.4521Z" fill="#000000" class="bmwfcol"/><path d="M8.33594 14.335V15.335L4.03552 15.3351L3.86683 15.7985C3.12765 17.8294 2.74349 18.8849 2.54861 19.5674C2.33682 20.3091 2.33594 20.6605 2.33594 21.25V25.665H3.93998C4.22061 26.5353 5.03724 27.165 6.00094 27.165C6.96464 27.165 7.78127 26.5353 8.06189 25.665H16.94C17.2206 26.5353 18.0372 27.165 19.0009 27.165C19.9646 27.165 20.7813 26.5354 21.0619 25.665L21.3941 25.665C21.9256 25.6651 22.3451 25.6653 22.7869 25.5496C23.2415 25.4305 23.6868 25.1993 24.3334 24.8259L24.6659 24.6339V14.335H8.33594ZM21.0619 24.335C20.7813 23.4647 19.9646 22.835 19.0009 22.835C18.0372 22.835 17.2206 23.4647 16.94 24.335H8.06189C7.78127 23.4647 6.96464 22.835 6.00094 22.835C5.03724 22.835 4.22061 23.4647 3.93998 24.335H3.66594L3.66595 21.1641C4.27316 21.1613 4.70619 21.1491 5.1313 21.0977C5.66606 21.033 6.17772 20.9078 7.00094 20.6884V19.3116L6.82876 19.3577C5.88951 19.6095 5.43424 19.7214 4.97164 19.7773C4.65909 19.8151 4.33776 19.8281 3.85663 19.8326C4.03054 19.2482 4.35406 18.3495 4.96683 16.665L8.33594 16.665V22.665H23.3359V23.8625C22.9032 24.102 22.6622 24.2073 22.4499 24.2629C22.1911 24.3307 21.9426 24.335 21.3383 24.335L21.0619 24.335ZM9.66594 21.335V15.665H23.3359V21.335H9.66594ZM6.00094 24.165C6.4621 24.165 6.83594 24.5388 6.83594 25C6.83594 25.4612 6.4621 25.835 6.00094 25.835C5.53978 25.835 5.16594 25.4612 5.16594 25C5.16594 24.5388 5.53978 24.165 6.00094 24.165ZM19.0009 24.165C19.4621 24.165 19.8359 24.5388 19.8359 25C19.8359 25.4612 19.4621 25.835 19.0009 25.835C18.5398 25.835 18.1659 25.4612 18.1659 25C18.1659 24.5388 18.5398 24.165 19.0009 24.165Z" fill="#000000" class="bmwfcol"/><path d="M29.6659 8V27H28.3359V22.665H26.0009V21.335H28.3359V8H29.6659Z" fill="#000000" class="bmwfcol"/><title>truck-station_lt_48</title></svg>