<svg width="48" height="48" viewBox="0 0 32 32" xmlns="http://www.w3.org/2000/svg"><path d="M18.6084 4.05518H19.9626V7.13658H23.3895V4.05518H24.7438V11.9499H23.3895V8.461H19.9626V11.9499H18.6084V4.05518Z" fill="#000000" class="bmwfcol"/><path d="M4.93998 25.665H3.33594V21.25C3.33594 20.6604 3.33682 20.309 3.54861 19.5673C3.74349 18.8848 4.12764 17.8294 4.86682 15.7985L5.03552 15.335L9.33594 15.335V14.335H25.6659V24.6339L25.3334 24.8259C24.6868 25.1992 24.2415 25.4305 23.7869 25.5495C23.3451 25.6652 22.9256 25.6651 22.3941 25.665L22.0619 25.665C21.7813 26.5353 20.9646 27.165 20.0009 27.165C19.0372 27.165 18.2206 26.5353 17.94 25.665H9.06189C8.78127 26.5353 7.96464 27.165 7.00094 27.165C6.03724 27.165 5.2206 26.5353 4.93998 25.665ZM6.16594 25C6.16594 25.4611 6.53978 25.835 7.00094 25.835C7.4621 25.835 7.83594 25.4611 7.83594 25C7.83594 24.5388 7.4621 24.165 7.00094 24.165C6.53978 24.165 6.16594 24.5388 6.16594 25ZM9.06189 24.335H17.94C18.2206 23.4646 19.0372 22.835 20.0009 22.835C20.9646 22.835 21.7813 23.4646 22.0619 24.335L22.3383 24.335C22.9426 24.335 23.1911 24.3307 23.4499 24.2629C23.6622 24.2073 23.9032 24.102 24.3359 23.8625V22.665H9.33594V16.665L5.96683 16.665C5.35407 18.3494 5.03055 19.2481 4.85664 19.8326C5.33777 19.8281 5.65909 19.815 5.97164 19.7772C6.43424 19.7213 6.88951 19.6094 7.82876 19.3576L8.00094 19.3115V20.6883C7.17772 20.9078 6.66606 21.033 6.1313 21.0976C5.70619 21.149 5.27316 21.1612 4.66595 21.164C4.66594 21.1874 4.66594 21.2114 4.66594 21.2361L4.66594 24.335H4.93998C5.2206 23.4646 6.03724 22.835 7.00094 22.835C7.96464 22.835 8.78127 23.4646 9.06189 24.335ZM10.6659 21.335H24.3359V15.665H10.6659V21.335ZM20.0009 24.165C19.5398 24.165 19.1659 24.5388 19.1659 25C19.1659 25.4611 19.5398 25.835 20.0009 25.835C20.4621 25.835 20.8359 25.4611 20.8359 25C20.8359 24.5388 20.4621 24.165 20.0009 24.165Z" fill="#000000" class="bmwfcol"/><path d="M27.8422 8.56794C27.2799 8.56794 26.6739 8.70228 26.3922 8.77271L26.2407 8.81058V10.0208L26.4912 9.95546C26.7226 9.89508 27.315 9.74326 27.8124 9.74326C28.0553 9.74326 28.156 9.79196 28.1978 9.83378C28.2422 9.8782 28.2684 9.93251 28.2684 10.0403C28.2684 10.1688 28.2091 10.305 27.8698 10.6443C27.488 11.0261 26.7281 11.6974 26.2104 12.1454L26.1413 12.2052V13.2421H29.732V12.0768H28.0548C28.3412 11.8206 28.6805 11.5022 28.9857 11.1573C29.1607 10.9616 29.2929 10.7821 29.3795 10.5857C29.4676 10.3861 29.5034 10.181 29.5034 9.94086C29.5034 9.54337 29.3449 9.165 29.0635 8.93227C28.7666 8.6832 28.3565 8.56794 27.8422 8.56794Z" fill="#000000" class="bmwfcol"/><title>truck_hydrogen_lt_48</title></svg>