<svg width="48" height="48" viewBox="0 0 32 32" xmlns="http://www.w3.org/2000/svg"><path d="M23.0226 2.33496H22.9774C22.5313 2.33495 22.1368 2.33495 21.8069 2.36036C21.4718 2.38618 21.1368 2.44171 20.834 2.59114C20.1666 2.92055 19.9099 3.5725 19.7075 4.32784L19.4376 5.33496H18.5C17.9315 5.33496 17.4027 5.44036 16.9973 5.72011C16.5571 6.02387 16.335 6.48421 16.335 6.99996V14C16.335 14.5157 16.5571 14.9761 16.9973 15.2798C17.4027 15.5596 17.9315 15.665 18.5 15.665H27.5C28.0684 15.665 28.5972 15.5596 29.0026 15.2798C29.4428 14.9761 29.665 14.5157 29.665 14V6.99996C29.665 6.48421 29.4428 6.02386 29.0026 5.72011C28.5972 5.44037 28.0684 5.33496 27.5 5.33496H26.5624L26.2925 4.32784C26.0901 3.5725 25.8334 2.92055 25.166 2.59114C24.8632 2.44171 24.5282 2.38618 24.1931 2.36036C23.8632 2.33495 23.4687 2.33495 23.0226 2.33496ZM25.1855 5.33496H20.8145L20.9921 4.67206C21.1917 3.92742 21.3303 3.82937 21.4227 3.78378C21.4998 3.74571 21.6358 3.70749 21.9091 3.68643C22.182 3.6654 22.5257 3.66496 23 3.66496C23.4743 3.66496 23.8179 3.6654 24.0909 3.68643C24.3642 3.70749 24.5002 3.74571 24.5773 3.78378C24.6697 3.82937 24.8083 3.92742 25.0078 4.67206L25.1855 5.33496ZM17.7526 6.81481C17.8472 6.74956 18.0684 6.66496 18.5 6.66496H27.5C27.9315 6.66496 28.1527 6.74956 28.2473 6.81481C28.3071 6.85606 28.335 6.89572 28.335 6.99996V14C28.335 14.1042 28.3071 14.1439 28.2473 14.1851C28.1527 14.2504 27.9315 14.335 27.5 14.335H18.5C18.0684 14.335 17.8472 14.2504 17.7526 14.1851C17.6929 14.1439 17.665 14.1042 17.665 14V6.99996C17.665 6.89571 17.6929 6.85606 17.7526 6.81481Z" fill="#000000" class="bmwfcol"/><path d="M2 27.6651H6.05627C6.52028 28.8366 7.66337 29.6651 8.99996 29.6651C10.3371 29.6651 11.4805 28.836 11.9442 27.6638C12.4578 27.6587 12.8829 27.6343 13.3253 27.5184C13.8992 27.3681 14.4695 27.0744 15.3327 26.576L15.6652 26.384L15.665 23.7246L15.4702 23.5299C15.005 23.0647 14.8216 22.7635 14.7424 22.5656C14.6687 22.3813 14.665 22.244 14.665 22.0001L14.6649 20.3907L12.6489 20.2143L12.7845 18.665L15 18.665L15 17.335L11.5658 17.335L11.3694 19.5794C10.2898 18.9625 9.35435 18.4595 8.40566 18.0915C7.09746 17.5839 5.77603 17.3351 3.99998 17.3351L3.91904 17.3351C3.20637 17.3351 2.57915 17.335 2 17.3663V18.6987C2.55422 18.6665 3.19648 18.6651 3.99998 18.6651C5.6325 18.6651 6.78823 18.8905 7.92458 19.3314C9.03287 19.7614 10.1334 20.3986 11.6685 21.2874L12.0272 21.495L13.335 21.6094L13.335 22.0156C13.3349 22.2707 13.3348 22.6277 13.5075 23.0596C13.6565 23.4321 13.9163 23.821 14.335 24.2691L14.3352 25.6138C13.6823 25.9802 13.317 26.1457 12.9883 26.2318C12.7456 26.2954 12.5095 26.3199 12.1604 26.3293C12.0717 24.6607 10.6906 23.3351 8.99996 23.3351C7.30732 23.3351 5.92502 24.6638 5.83919 26.3351H2V27.6651ZM8.99996 24.6651C10.0134 24.6651 10.835 25.4867 10.835 26.5001C10.835 27.5135 10.0134 28.3351 8.99996 28.3351C7.98652 28.3351 7.16496 27.5135 7.16496 26.5001C7.16496 25.4867 7.98652 24.6651 8.99996 24.6651Z" fill="#000000" class="bmwfcol"/><title>trunk-capacity_lt_48</title></svg>