<svg width="48" height="48" viewBox="0 0 32 32" xmlns="http://www.w3.org/2000/svg"><path d="M15.999 17.335C15.3556 17.335 14.834 17.8565 14.834 18.5C14.834 19.1434 15.3556 19.665 15.999 19.665C16.6424 19.665 17.164 19.1434 17.164 18.5C17.164 17.8565 16.6424 17.335 15.999 17.335Z" fill="#000000" class="bmwfcol"/><path d="M19.664 14.338V13C19.664 11.9489 19.3108 11.0212 18.6443 10.3547C17.9778 9.68824 17.0501 9.33496 15.999 9.33496C14.9479 9.33496 14.0203 9.68824 13.3538 10.3547C12.6873 11.0212 12.334 11.9489 12.334 13V14.338C11.8286 14.3572 11.3622 14.4676 10.9963 14.7201C10.5561 15.0239 10.334 15.4842 10.334 16L10.334 20.9999C10.334 21.5157 10.5561 21.976 10.9963 22.2798C11.4018 22.5595 11.9306 22.6649 12.499 22.6649L19.499 22.6649C20.0674 22.6649 20.5962 22.5595 21.0017 22.2798C21.4419 21.976 21.664 21.5157 21.664 20.9999V16C21.664 15.4842 21.4419 15.0239 21.0017 14.7201C20.6358 14.4676 20.1694 14.3572 19.664 14.338ZM14.2942 11.2952C14.6777 10.9117 15.2501 10.665 15.999 10.665C16.7479 10.665 17.3203 10.9117 17.7038 11.2952C18.0873 11.6787 18.334 12.2511 18.334 13V14.335L13.664 14.335V13C13.664 12.2511 13.9107 11.6787 14.2942 11.2952ZM12.499 15.665L19.499 15.665C19.9306 15.665 20.1518 15.7496 20.2463 15.8148C20.3061 15.8561 20.334 15.8957 20.334 16V20.9999C20.334 21.1041 20.3061 21.1438 20.2463 21.1851C20.1518 21.2503 19.9306 21.3349 19.499 21.3349L12.499 21.3349C12.0674 21.3349 11.8462 21.2503 11.7517 21.1851C11.6919 21.1438 11.664 21.1042 11.664 20.9999L11.664 16C11.664 15.8957 11.6919 15.8561 11.7517 15.8148C11.8462 15.7496 12.0674 15.665 12.499 15.665Z" fill="#000000" class="bmwfcol"/><path d="M4.33398 5.33496H27.664V14C27.664 16.8772 27.1463 19.5349 25.4958 22.1101C23.8543 24.6712 21.1302 27.0915 16.8271 29.5759L16.6728 29.665H15.3252L15.1708 29.5759C10.8678 27.0915 8.14365 24.6712 6.50215 22.1101C4.85168 19.5349 4.33398 16.8772 4.33398 14V5.33496ZM5.66398 6.66496V14C5.66398 16.7028 6.14629 19.09 7.62191 21.3924C9.08831 23.6803 11.5727 25.9423 15.6822 28.335H16.3158C20.4252 25.9423 22.9097 23.6803 24.3761 21.3924C25.8517 19.09 26.334 16.7028 26.334 14V6.66496H5.66398Z" fill="#000000" class="bmwfcol"/><title>trust_lt_48</title></svg>