<svg width="48" height="48" viewBox="0 0 32 32" xmlns="http://www.w3.org/2000/svg"><path d="M23.1818 7.93567C24.3156 7.43812 26.0909 7.03501 30 7.035V8.365C26.1594 8.36501 24.6009 8.76536 23.7164 9.15352C23.6047 9.20259 23.4558 9.33117 23.2885 9.61004C23.125 9.88257 22.9808 10.2364 22.8482 10.6382C22.7324 10.9891 22.6338 11.3499 22.5382 11.6996L22.4981 11.8462C22.4638 11.9709 22.4288 12.0974 22.3927 12.2215C22.4584 12.2162 22.5251 12.2113 22.5928 12.2066C23.7634 12.1265 25.3963 12.1316 27.6644 12.1386C28.3782 12.1408 29.155 12.1432 30 12.1432V13.4732C29.1287 13.4732 28.3354 13.4708 27.6133 13.4686C25.3659 13.4617 23.8026 13.457 22.6836 13.5335C22.1468 13.5703 21.7481 13.6249 21.4476 13.6935C21.1778 13.9463 20.9283 14.1872 20.7051 14.4182C21.8215 14.5312 22.8214 14.7565 23.6448 15.0792C24.8268 15.5424 25.8358 16.2876 26.0521 17.3696C26.1171 17.6946 25.9843 17.9691 25.804 18.1433C25.6521 18.2901 25.4672 18.3701 25.33 18.4175C25.0456 18.5158 24.6798 18.5678 24.3175 18.5999C23.5827 18.665 22.6347 18.665 21.8207 18.665L21.7295 18.665C20.9948 18.6651 20.2408 18.6652 19.665 18.5399V23.335H21.835V22.085H30V23.415H23.165V24.665H18.335V17.2405C18.3276 17.1518 18.3278 17.0617 18.335 16.9708V16.0428C18.335 15.4322 18.6294 14.8635 19 14.3622V14.335L19.0202 14.335C19.0799 14.2553 19.1413 14.1773 19.2037 14.1012C19.3473 13.9261 19.5058 13.7492 19.675 13.5711C19.675 13.4443 19.6566 13.2743 19.595 13.1605C19.5143 13.0116 19.4558 12.9412 19.3971 12.8943C19.2774 12.7985 18.9863 12.665 18 12.665V11.335C19.0137 11.335 19.7226 11.4515 20.2279 11.8557C20.474 12.0526 20.6321 12.2862 20.7531 12.5064L20.7807 12.4974C20.8374 12.445 20.8943 12.3926 20.9513 12.3403C21.0276 12.1604 21.1099 11.879 21.2155 11.4942L21.2546 11.3511C21.3494 11.0042 21.4577 10.6077 21.5852 10.2214C21.7301 9.78241 21.9105 9.3216 22.1481 8.92573C22.3818 8.53626 22.7104 8.14262 23.1818 7.93567ZM19.7524 15.6819C19.6909 15.8255 19.665 15.9447 19.665 16.0428V17.139C19.6729 17.1446 19.6853 17.1524 19.7039 17.1617C19.7454 17.1826 19.8086 17.2066 19.9009 17.2294C20.3086 17.3303 20.9359 17.335 21.8 17.335C22.6383 17.335 23.5304 17.3344 24.2001 17.2751C24.3372 17.2629 24.4562 17.2489 24.5574 17.2339C24.3292 16.9314 23.8916 16.6044 23.1596 16.3175C22.288 15.976 21.1202 15.7443 19.7524 15.6819Z" fill="#000000" class="bmwfcol"/><path d="M28 17.335H30V18.665H28V17.335Z" fill="#000000" class="bmwfcol"/><path d="M8.335 23.4628C6.19089 23.6043 4.09544 23.675 2 23.675V22.345C4.29497 22.345 6.58995 22.2589 8.95165 22.0868L9.665 22.0348V23.335H12.335V16.61C11.0678 16.9189 9.76559 17.0681 8 17.1909V15.8576C9.69959 15.7371 10.8978 15.5935 12.0423 15.3124C11.9679 15.2002 11.8771 15.0778 11.7677 14.9444C11.4194 14.5196 10.9508 14.0634 10.4089 13.5601C10.3439 13.5001 10.2165 13.4192 9.90974 13.3493C9.59753 13.278 9.15182 13.2294 8.49421 13.2001C7.49717 13.1557 6.10403 13.1584 4.11032 13.1624H4.10919C3.4702 13.1637 2.76916 13.1651 2 13.1651V11.8351C2.75204 11.8351 3.4425 11.8337 4.07607 11.8324L4.07722 11.8324C6.08455 11.8284 7.52269 11.8255 8.55337 11.8714C8.85135 11.8847 9.12294 11.9022 9.37037 11.9261C9.18328 11.5669 8.96159 11.1691 8.72001 10.7841C8.46709 10.3811 8.20104 10.0061 7.93881 9.70823C7.66749 9.40002 7.44309 9.224 7.28306 9.15326C6.42408 8.7759 5.8989 8.66499 2 8.66499L2.00004 7.33499C5.85039 7.33499 6.66232 7.42785 7.81916 7.93609C8.24224 8.12266 8.62015 8.46937 8.93711 8.82944C9.26346 9.20016 9.57205 9.63969 9.84656 10.0771C10.0856 10.4581 10.3054 10.8481 10.4951 11.2071C10.8477 11.0206 11.2318 10.9294 11.6706 10.8834C12.1648 10.8315 12.7857 10.8328 13.5612 10.8344C13.7023 10.8347 13.8485 10.835 14 10.835V12.165C13.8391 12.165 13.687 12.1648 13.5436 12.1645C12.7606 12.1632 12.2268 12.1623 11.8094 12.2061C11.4797 12.2407 11.2689 12.2996 11.1031 12.3903C11.7284 12.9659 12.3384 13.5428 12.7963 14.1012C13.2565 14.6626 13.665 15.3236 13.665 16.0428V24.665H8.335V23.4628Z" fill="#000000" class="bmwfcol"/><path d="M2.47455 20.665L2 20.1904V15.5065L2.84301 15.085H5.77545L6.665 15.9745L6.665 18.6869L5.45779 20.665H2.47455ZM2.965 16.661V18.9745L3.32545 19.335H4.71135L5.335 18.3131V16.5254L5.22455 16.415H3.45699L2.965 16.661Z" fill="#000000" class="bmwfcol"/><title>two_different_cars_lt_48</title></svg>