<svg width="48" height="48" viewBox="0 0 32 32" xmlns="http://www.w3.org/2000/svg"><path d="M28.3074 19C28.5411 18.0379 28.665 17.0331 28.665 16C28.665 9.00528 22.9947 3.33496 16 3.33496C9.00528 3.33496 3.33496 9.00527 3.33496 16C3.33496 20.9619 6.18844 25.2574 10.344 27.335L2 27.335V28.665L16 28.665C19.4971 28.665 22.6643 27.2466 24.9555 24.9555L26.375 23.5359V27.625L27.625 26.375V21.375H22.625L21.375 22.625H25.405L24.015 24.015C21.9631 26.067 19.1302 27.335 16 27.335C9.73981 27.335 4.66496 22.2601 4.66496 16C4.66496 9.73981 9.73982 4.66496 16 4.66496C22.2601 4.66496 27.335 9.73981 27.335 16C27.335 17.0391 27.1953 18.0449 26.9339 19H28.3074Z" fill="#000000" class="bmwfcol"/><path d="M16 10.665C13.0536 10.665 10.665 13.0536 10.665 16C10.665 18.9465 13.0536 21.335 16 21.335C18.9464 21.335 21.335 18.9465 21.335 16C21.335 13.0536 18.9464 10.665 16 10.665ZM9.33499 16C9.33499 12.319 12.319 9.33502 16 9.33502C19.681 9.33502 22.665 12.319 22.665 16C22.665 19.681 19.681 22.665 16 22.665C12.319 22.665 9.33499 19.681 9.33499 16Z" fill="#000000" class="bmwfcol"/><title>tyres-with-reduced-rolling-resistance_lt_48</title></svg>