<svg width="48" height="48" viewBox="0 0 32 32" xmlns="http://www.w3.org/2000/svg"><path d="M8.66398 3V6.07654L8.40856 6.27622C5.51929 8.53497 3.66398 12.0506 3.66398 16C3.66398 19.7296 5.31845 23.0722 7.93578 25.335H24.0622C26.6795 23.0722 28.334 19.7296 28.334 16C28.334 12.0506 26.4787 8.53497 23.5894 6.27622L23.334 6.07654V3H24.664V5.43306C27.7155 7.93819 29.664 11.7417 29.664 16C29.664 20.2268 27.7441 24.0058 24.7313 26.5113L24.664 26.5673V29H23.334V26.665H20.664V29H19.334V26.665H16.664V29H15.334V26.665H12.664V29H11.334V26.665H8.66398V29H7.33398V26.5673L7.26663 26.5113C4.25383 24.0058 2.33398 20.2268 2.33398 16C2.33398 11.7417 4.28245 7.93819 7.33398 5.43306V3H8.66398Z" fill="#000000" class="bmwfcol"/><path d="M16.664 17.5V8H15.334V17.5H16.664Z" fill="#000000" class="bmwfcol"/><path d="M16.664 22V19H15.334V22H16.664Z" fill="#000000" class="bmwfcol"/><title>tyre-pressure-monitoring-system_lt_48</title></svg>