<svg width="48" height="48" viewBox="0 0 32 32" xmlns="http://www.w3.org/2000/svg"><path d="M4 9.1608V10.6965L16.0012 3.76769L28 10.6952V9.15946L16.0012 2.23193L4 9.1608Z" fill="#000000" class="bmwfcol"/><path d="M16.0009 11.835C12.0438 11.835 8.83594 15.0428 8.83594 19C8.83594 22.9571 12.0438 26.165 16.0009 26.165C19.9581 26.165 23.1659 22.9571 23.1659 19C23.1659 15.0428 19.9581 11.835 16.0009 11.835ZM16.0009 17.665C16.7382 17.665 17.3359 18.2627 17.3359 19C17.3359 19.7373 16.7382 20.335 16.0009 20.335C15.2636 20.335 14.6659 19.7373 14.6659 19C14.6659 18.2627 15.2636 17.665 16.0009 17.665ZM13.3359 19C13.3359 19.6446 13.5648 20.2357 13.9457 20.6966L12.0552 23.2986C10.8938 22.2321 10.1659 20.701 10.1659 19C10.1659 18.6031 10.2056 18.2155 10.2811 17.8408L13.341 18.8351C13.3376 18.8896 13.3359 18.9446 13.3359 19ZM13.7516 17.5701L10.6918 16.5758C11.5243 14.7554 13.2656 13.4375 15.3353 13.2025V16.4188C14.6726 16.5891 14.1097 17.008 13.7516 17.5701ZM16.6653 16.4184V13.2024C18.7355 13.437 20.4772 14.7549 21.31 16.5755L18.25 17.5697C17.8917 17.0075 17.3284 16.5886 16.6653 16.4184ZM18.6609 18.8347L21.7207 17.8405C21.7963 18.2152 21.8359 18.603 21.8359 19C21.8359 20.7014 21.1077 22.2327 19.946 23.2993L18.0556 20.6973C18.4368 20.2364 18.6659 19.6449 18.6659 19C18.6659 18.9445 18.6642 18.8894 18.6609 18.8347ZM16.9798 21.4794L18.8705 24.0818C18.0232 24.5613 17.044 24.835 16.0009 24.835C14.9575 24.835 13.978 24.5611 13.1305 24.0813L15.0211 21.4791C15.3244 21.599 15.655 21.665 16.0009 21.665C16.3465 21.665 16.6768 21.5992 16.9798 21.4794Z" fill="#000000" class="bmwfcol"/><path d="M5.33594 19C5.33594 13.1098 10.1108 8.33496 16.0009 8.33496C21.8911 8.33496 26.6659 13.1098 26.6659 19C26.6659 24.8901 21.8911 29.665 16.0009 29.665C10.1108 29.665 5.33594 24.8901 5.33594 19ZM16.0009 9.66496C10.8454 9.66496 6.66594 13.8444 6.66594 19C6.66594 24.1555 10.8454 28.335 16.0009 28.335C21.1565 28.335 25.3359 24.1555 25.3359 19C25.3359 13.8444 21.1565 9.66496 16.0009 9.66496Z" fill="#000000" class="bmwfcol"/><title>tyre_storage_lt_48</title></svg>