<svg width="48" height="48" viewBox="0 0 32 32" xmlns="http://www.w3.org/2000/svg"><path d="M11.5195 10.0039V17.4339C11.5195 19.184 11.7264 20.425 12.6014 21.2682C13.4128 22.0637 14.4629 22.2705 16.0062 22.2705C17.5017 22.2705 18.5358 22.016 19.3473 21.3C20.3019 20.4409 20.4769 19.2476 20.4769 17.4339V10.0039H18.9495V17.4339C18.9495 18.834 18.854 19.6613 18.2176 20.2181C17.6926 20.6636 16.9448 20.7909 16.0062 20.7909C15.0356 20.7909 14.272 20.6954 13.7628 20.2181C13.1424 19.6454 13.0469 18.818 13.0469 17.4339V10.0039H11.5195Z" fill="#000000" class="bmwfcol"/><path d="M6.00094 4.33502C5.554 4.33502 5.12078 4.47472 4.79821 4.7973C4.47564 5.11987 4.33594 5.55308 4.33594 6.00002V26C4.33594 26.447 4.47564 26.8802 4.79821 27.2027C5.12078 27.5253 5.554 27.665 6.00094 27.665H26.0009C26.4479 27.665 26.8811 27.5253 27.2037 27.2027C27.5262 26.8802 27.6659 26.447 27.6659 26V6.00002C27.6659 5.55308 27.5262 5.11987 27.2037 4.7973C26.8811 4.47472 26.4479 4.33502 26.0009 4.33502H6.00094ZM5.66594 6.00002C5.66594 5.82696 5.71623 5.76018 5.73866 5.73775C5.76109 5.71532 5.82788 5.66502 6.00094 5.66502H26.0009C26.174 5.66502 26.2408 5.71532 26.2632 5.73775C26.2856 5.76018 26.3359 5.82696 26.3359 6.00002V26C26.3359 26.1731 26.2856 26.2399 26.2632 26.2623C26.2408 26.2847 26.174 26.335 26.0009 26.335H6.00094C5.82788 26.335 5.76109 26.2847 5.73866 26.2623C5.71623 26.2399 5.66594 26.1731 5.66594 26V6.00002Z" fill="#000000" class="bmwfcol"/><title>underground_lt_48</title></svg>