<svg width="48" height="48" viewBox="0 0 32 32" xmlns="http://www.w3.org/2000/svg"><path d="M27.3509 19C26.8777 21.1557 25.8824 23.0086 24.4457 24.4453C22.3792 26.5118 19.4516 27.665 16.0005 27.665C10.7487 27.665 8.03872 25.0253 4.66496 21.6144V27.665L3.33496 26.335V19.335H10.335L11.665 20.665H5.59878C8.99489 24.0884 11.3258 26.335 16.0005 26.335C19.1494 26.335 21.7218 25.2883 23.5053 23.5048C24.6832 22.3269 25.5397 20.8049 25.9856 19H27.3509Z" fill="#000000" class="bmwfcol"/><path d="M7.55462 7.55474C6.11793 8.99142 5.12264 10.8443 4.64941 13H6.01477C6.46064 11.1951 7.31717 9.67309 8.49507 8.49519C10.2786 6.71169 12.851 5.66496 15.9998 5.66496C20.6746 5.66496 23.0054 7.91161 26.4015 11.335H20.335L21.665 12.665H28.665V5.66496L27.335 4.33496V10.3852C23.9614 6.97448 21.2514 4.33496 15.9998 4.33496C12.5487 4.33496 9.62111 5.48824 7.55462 7.55474Z" fill="#000000" class="bmwfcol"/><title>update_lt_48</title></svg>