<svg width="48" height="48" viewBox="0 0 32 32" xmlns="http://www.w3.org/2000/svg"><path d="M21.7539 11.9405L16.4189 6.60541V19H15.0889V6.60554L9.75391 11.9405V10.0596L15.7539 4.05957L21.7539 10.0595V11.9405Z" fill="#000000" class="bmwfcol"/><path d="M5.41887 17V25C5.41887 25.4142 5.57176 25.7039 5.88154 25.9177C6.22611 26.1554 6.8223 26.335 7.75387 26.335H23.7539C24.6854 26.335 25.2816 26.1554 25.6262 25.9177C25.936 25.7039 26.0889 25.4142 26.0889 25V17H27.4189V25C27.4189 25.8258 27.0718 26.5361 26.3816 27.0124C25.7261 27.4646 24.8223 27.665 23.7539 27.665H7.75387C6.68543 27.665 5.78163 27.4646 5.1262 27.0123C4.43598 26.5361 4.08887 25.8258 4.08887 25V17H5.41887Z" fill="#000000" class="bmwfcol"/><title>upload_lt_48</title></svg>