<svg width="48" height="48" viewBox="0 0 32 32" xmlns="http://www.w3.org/2000/svg"><path d="M22.3702 8.42975L21.1702 7.22975L20.2298 8.1702L21.4298 9.3702L22.3702 8.42975Z" fill="#000000" class="bmwfcol"/><path d="M24.7703 10.8298L23.5703 9.62976L22.6298 10.5702L23.8298 11.7702L24.7703 10.8298Z" fill="#000000" class="bmwfcol"/><path d="M16.4994 8.56016L22.5 2.55954L29.4405 9.49999L23.4398 15.5006L24.4392 16.5L14.4568 26.4824C13.1506 27.7829 11.5895 28.4664 9.99222 28.4641C8.39499 28.4619 6.83492 27.7741 5.53039 26.4696C4.22371 25.1629 3.53589 23.5999 3.53589 22C3.53589 20.4001 4.22371 18.8371 5.53039 17.5304L15.5 7.56076L16.4994 8.56016ZM17.4398 9.50061L22.4994 14.5602L27.5596 9.49999L22.5 4.44044L17.4398 9.50061ZM6.47084 25.5292C7.56203 26.6204 8.79631 27.1324 9.99408 27.1341C11.1916 27.1358 12.4259 26.6274 13.5178 25.5405L22.5583 16.5L15.5 9.44167L6.47084 18.4708C5.37788 19.5638 4.86589 20.8003 4.86589 22C4.86589 23.1997 5.37788 24.4362 6.47084 25.5292Z" fill="#000000" class="bmwfcol"/><title>usb_stick_lt_48</title></svg>