<svg width="48" height="48" viewBox="0 0 32 32" xmlns="http://www.w3.org/2000/svg"><path d="M18.25 7.835C17.4988 7.835 16.8212 8.08827 16.3297 8.57977C15.9885 8.92103 15.7621 9.35202 15.6555 9.83503C14.8807 9.83682 14.2884 9.86233 13.7026 10.1552C13.3743 10.3194 13.0726 10.5525 12.7426 10.8495C12.4171 11.1425 12.0319 11.5277 11.5433 12.0162L8.22456 15.335H8.10681C7.99327 14.7059 7.71474 14.1493 7.28269 13.7173C6.70369 13.1383 5.90108 12.835 4.99996 12.835C4.09884 12.835 3.29623 13.1383 2.71723 13.7173C2.13824 14.2963 1.83496 15.0989 1.83496 16C1.83496 16.9011 2.13824 17.7037 2.71723 18.2827C3.29623 18.8617 4.09884 19.165 4.99996 19.165C6.63925 19.165 7.81781 18.0809 8.09996 16.665H10.7246L14.0433 19.9838C14.5319 20.4723 14.9171 20.8575 15.2426 21.1505C15.5726 21.4475 15.8743 21.6806 16.2026 21.8448C16.8328 22.1599 17.4706 22.1655 18.335 22.1651V24.165H23.165V19.335H18.335V20.8348C17.4145 20.833 17.1098 20.8114 16.7974 20.6552C16.6257 20.5694 16.4274 20.4275 16.1324 20.162C15.8359 19.8952 15.4753 19.5348 14.9702 19.0298L12.6055 16.665H24.96V19.165H25.9621L30.665 16.4498V15.5502L25.9621 12.835H24.96V15.335L10.1055 15.335L12.4702 12.9702C12.9753 12.4652 13.3359 12.1048 13.6324 11.838C13.9274 11.5725 14.1257 11.4306 14.2974 11.3448C14.5886 11.1992 14.8731 11.1706 15.6557 11.1658C15.7623 11.6485 15.9887 12.0792 16.3297 12.4202C16.8212 12.9117 17.4988 13.165 18.25 13.165C19.8381 13.165 20.915 11.9507 20.915 10.5C20.915 9.74888 20.6617 9.07127 20.1702 8.57977C19.6787 8.08827 19.0011 7.835 18.25 7.835ZM16.915 10.5C16.915 10.0511 17.0617 9.72873 17.2702 9.52023C17.4787 9.31172 17.8011 9.165 18.25 9.165C18.6988 9.165 19.0212 9.31172 19.2297 9.52023C19.4382 9.72873 19.585 10.0511 19.585 10.5C19.585 11.2585 19.0619 11.835 18.25 11.835C17.8011 11.835 17.4787 11.6883 17.2702 11.4798C17.0617 11.2713 16.915 10.9489 16.915 10.5ZM3.65769 14.6577C3.95369 14.3617 4.40108 14.165 4.99996 14.165C5.59884 14.165 6.04623 14.3617 6.34224 14.6577C6.63824 14.9537 6.83496 15.4011 6.83496 16C6.83496 17.0346 6.11186 17.835 4.99996 17.835C4.40108 17.835 3.95369 17.6383 3.65769 17.3423C3.36169 17.0463 3.16496 16.5989 3.16496 16C3.16496 15.4011 3.36169 14.9537 3.65769 14.6577ZM19.665 20.665H21.835V22.835H19.665V20.665ZM28.7841 16L26.29 17.44V14.56L28.7841 16Z" fill="#000000" class="bmwfcol"/><title>usb_logo_lt_48</title></svg>