<svg width="48" height="48" viewBox="0 0 32 32" xmlns="http://www.w3.org/2000/svg"><path d="M10.3024 4C10.4779 4.30576 10.6401 4.5698 10.7991 4.80023C11.1443 5.3003 11.4489 5.60338 11.7951 5.80781C12.1441 6.01395 12.5884 6.15115 13.2631 6.23242C13.9445 6.31451 14.8153 6.335 16.0002 6.335C17.1849 6.335 18.0558 6.31416 18.7373 6.23167C19.412 6.14999 19.8568 6.01233 20.2062 5.8058C20.5527 5.60096 20.8575 5.29758 21.2025 4.79779C21.3611 4.56793 21.5229 4.30468 21.6978 4H23.2194C22.8907 4.60621 22.594 5.12305 22.2971 5.55328C21.8865 6.14806 21.4509 6.61497 20.883 6.95072C20.3179 7.28477 19.6741 7.45798 18.8971 7.55203C18.1268 7.64526 17.1828 7.665 16.0002 7.665C14.8177 7.665 13.8739 7.64562 13.104 7.55288C12.3274 7.45932 11.6838 7.28672 11.1187 6.953C10.5507 6.61756 10.1152 6.1507 9.70452 5.55566C9.40731 5.12501 9.11023 4.60741 8.78094 4H10.3024Z" fill="#000000" class="bmwfcol"/><path d="M24.373 20.4883C24.797 20.2593 25.3393 20.1363 26.0572 20.1363C26.5137 20.1363 26.9661 20.2088 27.3549 20.2786L27.3564 20.2788L27.3579 20.2791C27.7688 20.3593 28.0726 20.43 28.3278 20.5015L28.4738 20.5424V21.9078L28.223 21.8418C27.847 21.7428 27.534 21.6646 27.1231 21.5864L27.1222 21.5862L27.1213 21.586C26.7744 21.5166 26.4533 21.4607 26.1268 21.4607C25.6798 21.4607 25.3572 21.5213 25.1145 21.6432C24.8774 21.7622 24.6995 21.9483 24.5563 22.2348C24.3407 22.6659 24.2493 23.4382 24.2493 24.3123C24.2493 25.1431 24.3398 25.8405 24.5287 26.2454C24.6619 26.5294 24.8394 26.7222 25.083 26.8482C25.3321 26.977 25.6667 27.0446 26.1268 27.0446C26.787 27.0446 27.5401 26.8813 28.2314 26.731L28.4738 26.6783V28.0325L28.3158 28.0663C27.6199 28.2155 26.8658 28.369 26.0274 28.369C25.2631 28.369 24.6927 28.228 24.2564 27.9681C23.8184 27.7072 23.5346 27.338 23.3241 26.9173C23.0142 26.3077 22.8752 25.3448 22.8752 24.3222C22.8752 23.2049 23.0028 22.1427 23.4303 21.4265C23.6572 21.0466 23.9469 20.7185 24.373 20.4883Z" fill="#000000" class="bmwfcol"/><path d="M21.5187 24.6888H18.087V26.0331H21.5187V24.6888Z" fill="#000000" class="bmwfcol"/><path d="M12.2508 20.3052H10.7795L13.7321 28.2H15.1825L18.1352 20.3052H16.6741L14.4577 26.2715L12.2508 20.3052Z" fill="#000000" class="bmwfcol"/><path d="M5.26147 20.3052H3.90723V25.1472C3.90723 26.2423 4.03236 27.0965 4.64374 27.6862C5.20937 28.2403 5.93468 28.369 6.91031 28.369C7.86526 28.369 8.56987 28.2069 9.13003 27.7126L9.13077 27.712L9.1315 27.7113C9.79928 27.1103 9.90345 26.2796 9.90345 25.1472V20.3052H8.54921V25.1472C8.54921 26.0346 8.48043 26.4552 8.16141 26.7352C7.89116 26.9638 7.48793 27.0446 6.91031 27.0446C6.30066 27.0446 5.90025 26.9796 5.64555 26.7408L5.64499 26.7403L5.64442 26.7398C5.32958 26.4491 5.26147 26.0238 5.26147 25.1472V20.3052Z" fill="#000000" class="bmwfcol"/><path d="M11.0748 9.86393L8.07485 15.0601L6.92303 14.3951L9.92303 9.19893L11.0748 9.86393Z" fill="#000000" class="bmwfcol"/><path d="M22.0773 9.19893L25.0773 14.3951L23.9255 15.0601L20.9255 9.86393L22.0773 9.19893Z" fill="#000000" class="bmwfcol"/><path d="M16.6652 11.0055V17.0055H15.3352V11.0055H16.6652Z" fill="#000000" class="bmwfcol"/><title>uv-c_light_lt_48</title></svg>