<svg width="48" height="48" viewBox="0 0 32 32" xmlns="http://www.w3.org/2000/svg"><path d="M22.5 11.2046L22.4951 11.2072C22.3054 10.8481 22.0856 10.4581 21.8465 10.0771C21.572 9.63966 21.2634 9.20013 20.9371 8.82941C20.6201 8.46934 20.2414 8.12226 19.8183 7.9357C18.6615 7.42745 17.8504 7.33496 14 7.33496C10.1495 7.33496 9.3396 7.42753 8.1818 7.93563C7.75812 8.12162 7.3799 8.46838 7.06292 8.82837C6.73649 9.19906 6.42786 9.63874 6.15334 10.0763C5.9142 10.4576 5.69434 10.8479 5.50463 11.2071C5.15197 11.0207 4.76797 10.9295 4.32919 10.8834C3.83506 10.8316 3.21426 10.8329 2.4388 10.8345C2.29793 10.8348 2.15125 10.8351 2 10.8351V12.1651C2.16069 12.1651 2.31222 12.1649 2.45542 12.1646C3.23835 12.1633 3.77306 12.1624 4.19038 12.2062C4.51991 12.2408 4.73071 12.2996 4.89673 12.3903C4.84639 12.4367 4.79615 12.483 4.74608 12.5294C4.7256 12.5466 4.70546 12.5644 4.68567 12.5827L4.68701 12.5841C4.13647 13.0952 3.61013 13.6054 3.2037 14.1012C2.74345 14.6625 2.33496 15.3236 2.33496 16.0428V24.665H7.66496V23.4627C11.9532 23.7457 16.0467 23.7457 20.335 23.4627V24.665H22.5V23.335H21.665V22.0347L20.9516 22.0867C16.2282 22.431 11.7717 22.431 7.04831 22.0867L6.33496 22.0347V23.335H3.66496V16.6098C4.93218 16.9188 6.2344 17.0679 8 17.1907V15.8574C6.30043 15.737 5.10225 15.5934 3.95768 15.3123C4.03217 15.2001 4.12292 15.0777 4.23222 14.9444C4.58666 14.5121 5.0656 14.0469 5.61973 13.5331C5.69269 13.4771 5.82394 13.4091 6.08743 13.349C6.4 13.2778 6.84615 13.2291 7.50419 13.1998C8.50189 13.1554 9.8954 13.1582 11.8895 13.1621C12.529 13.1634 13.2303 13.1648 14.0001 13.1648C14.7699 13.1648 15.4712 13.1634 16.1106 13.1621C18.1044 13.1582 19.4972 13.1554 20.4943 13.1998C21.1519 13.2291 21.5976 13.2778 21.9098 13.349C22.2166 13.419 22.3439 13.4998 22.409 13.5599L22.5 13.6446V11.2046ZM8.71634 9.15348C9.57682 8.77586 10.1008 8.66496 14 8.66496C17.8989 8.66496 18.424 8.77587 19.283 9.15323C19.4431 9.22397 19.6675 9.39999 19.9388 9.7082C20.201 10.0061 20.4671 10.381 20.72 10.7841C20.9615 11.1689 21.1831 11.5667 21.3702 11.9258C21.1228 11.9019 20.8513 11.8844 20.5534 11.8711C19.5227 11.8252 18.0836 11.8281 16.0763 11.8322C15.4428 11.8334 14.752 11.8348 14.0001 11.8348C13.2475 11.8348 12.5567 11.8334 11.9227 11.8322C9.91516 11.8281 8.47635 11.8252 7.44507 11.8711C7.14774 11.8844 6.87667 11.9019 6.62964 11.9256C6.81674 11.5663 7.03843 11.1682 7.28001 10.7831C7.53292 10.3799 7.79893 10.005 8.06109 9.70732C8.33263 9.39895 8.55688 9.22351 8.71634 9.15348Z" fill="#000000" class="bmwfcol"/><path d="M22.5 15.6078C21.7743 15.7127 20.9685 15.7888 20 15.8574V17.1907C20.944 17.1251 21.7555 17.0519 22.5 16.9508V15.6078Z" fill="#000000" class="bmwfcol"/><path d="M10.2245 15.085H13.1569L14 15.5065L14.843 15.085H17.7754L18.665 15.9745L18.665 18.6869L17.4578 20.665H14.4745L14 20.1904L13.5254 20.665H10.5871L9.33496 18.6933V15.9745L10.2245 15.085ZM10.7754 16.415L10.665 16.5254V18.3067L11.318 19.335H12.9745L13.335 18.9745V16.661L12.843 16.415H10.7754ZM14.665 16.661V18.9745L15.0254 19.335H16.7113L17.335 18.3131L17.335 16.5254L17.2245 16.415H15.1569L14.665 16.661Z" fill="#000000" class="bmwfcol"/><path d="M30 8.66496L24 8.66496V7.33496H30V8.66496Z" fill="#000000" class="bmwfcol"/><path d="M27 9.11621L30 12.1162V13.884L27.665 11.549V20.4512L30 18.1162V19.884L27 22.884L24 19.884V18.1162L26.335 20.4512V11.549L24 13.884V12.1162L27 9.11621Z" fill="#000000" class="bmwfcol"/><path d="M30 24.665H24V23.335H30V24.665Z" fill="#000000" class="bmwfcol"/><title>vehicle-dimension-height_lt_48</title></svg>