<svg width="48" height="48" viewBox="0 0 32 32" xmlns="http://www.w3.org/2000/svg"><path d="M6.41605 8L8.75105 5.665H3.99976V4.335H8.75105L6.41605 2H8.18382L11.1838 5L8.18382 8H6.41605Z" fill="#000000" class="bmwfcol"/><path d="M22.2741 5.42683C21.268 5.42667 20.4921 5.42655 19.7054 5.69101C18.9361 5.94963 18.2028 6.44194 17.1863 7.28365C15.3486 7.44432 14.3409 7.53447 13.6244 7.69372C12.8357 7.86899 12.3786 8.13295 11.6423 8.55813L11.2786 8.76809L11.2784 12.1635L11.7714 12.2956C12.3342 12.4464 12.6658 12.5296 12.9025 12.5732C13.1684 12.6222 13.3225 12.6222 13.5042 12.6222V12.5359C13.8444 13.3076 14.6161 13.8463 15.5137 13.8463C16.3774 13.8463 17.1246 13.3475 17.4829 12.6222H23.2351C23.5935 13.3475 24.3406 13.8463 25.2043 13.8463C26.0682 13.8463 26.8155 13.3473 27.1738 12.6218C27.5105 12.6196 27.8092 12.6057 28.121 12.524C28.5098 12.4222 28.886 12.2255 29.4132 11.9211L29.7458 11.7291L29.7456 9.4886L29.5508 9.29385C29.2796 9.0226 29.1931 8.8669 29.1625 8.79031C29.1373 8.72722 29.1336 8.68693 29.1336 8.54L29.1335 7.31857L27.592 7.18371L27.5439 7.15587C26.6396 6.63197 25.8966 6.20158 25.1379 5.90723C24.3039 5.58365 23.463 5.42683 22.3482 5.42683L22.2741 5.42683ZM27.784 11.2374C27.667 11.2681 27.5525 11.2817 27.3695 11.2877C27.1963 10.2484 26.2928 9.45611 25.2043 9.45611C24.1143 9.45611 23.2098 10.2507 23.0385 11.2922H17.6796C17.5083 10.2507 16.6038 9.45611 15.5137 9.45611C14.4243 9.45611 13.5203 10.2497 13.3481 11.2903C13.2854 11.2876 13.2295 11.2811 13.1435 11.2652C13.0279 11.2439 12.8672 11.207 12.6085 11.1407L12.6086 9.5371C13.1392 9.23608 13.4278 9.09986 13.9129 8.99204C14.5471 8.85109 15.4875 8.76723 17.5099 8.59043L17.7188 8.57217L17.8794 8.43738C18.9659 7.52574 19.5733 7.13858 20.1292 6.95169C20.6888 6.76357 21.2483 6.75683 22.3482 6.75683C23.3195 6.75683 23.9947 6.89027 24.6569 7.14717C25.316 7.40289 25.9731 7.78331 26.9231 8.33331L27.1816 8.48288L27.8036 8.5373L27.8036 8.55309C27.8035 8.71345 27.8033 8.97342 27.9276 9.28425C28.0249 9.52739 28.1835 9.76887 28.4156 10.0288L28.4157 10.9566C28.1057 11.1255 27.9331 11.1984 27.784 11.2374ZM14.6486 11.6512C14.6486 11.1734 15.0359 10.7861 15.5137 10.7861C15.9915 10.7861 16.3788 11.1734 16.3788 11.6512C16.3788 12.129 15.9915 12.5163 15.5137 12.5163C15.0359 12.5163 14.6486 12.129 14.6486 11.6512ZM24.3392 11.6512C24.3392 11.1734 24.7266 10.7861 25.2043 10.7861C25.6821 10.7861 26.0695 11.1734 26.0695 11.6512C26.0695 12.129 25.6821 12.5163 25.2043 12.5163C24.7266 12.5163 24.3392 12.129 24.3392 11.6512Z" fill="#000000" class="bmwfcol"/><path d="M29.4703 16.5297C29.1819 16.2414 28.7917 15.9207 28.2501 15.7166C27.7037 15.5108 27.0497 15.441 26.258 15.5825C24.8325 15.8372 22.934 16.7816 20.2866 18.9045C20.2578 18.8702 20.2273 18.8369 20.1952 18.8047C19.8786 18.4883 19.451 18.335 18.9999 18.335L14.0877 18.335L10.3557 17.335L10.2053 17.335C9.61938 17.3345 9.13098 17.3342 8.56132 17.6828C8.29777 17.8441 8.03084 18.0693 7.722 18.3578C7.41265 18.6468 7.0311 19.0283 6.53895 19.5205L2.05945 24L7.72445 29.665H9.27535L11.2754 27.665H15.0195C16.0028 27.665 16.7674 27.665 17.3786 27.6328C17.9959 27.6003 18.5022 27.5336 18.9603 27.3809C19.861 27.0807 20.467 26.4743 21.3803 25.5603L29.9407 16.9999L29.4703 16.5297ZM19.2549 19.7453C19.2884 19.7788 19.3351 19.8512 19.3351 19.9998L19.335 20.7211C18.4745 21.5508 17.8597 21.9291 17.2897 22.1191C16.6606 22.3288 16.0237 22.335 15.0002 22.335H10.9999V23.665L15.0597 23.665C16.0118 23.6651 16.8573 23.6652 17.7103 23.3809C18.5982 23.0849 19.4343 22.5061 20.4701 21.4702L20.6648 21.2755L20.6651 20.3116C23.5038 17.9648 25.3247 17.1003 26.4919 16.8917C27.0752 16.7875 27.4837 16.8492 27.7812 16.9612C27.8579 16.9901 27.9303 17.0235 27.999 17.0607L20.5299 24.5298C19.4943 25.5654 19.1099 25.9291 18.5397 26.1191C18.2478 26.2164 17.879 26.2747 17.3087 26.3047C16.7365 26.3348 16.007 26.335 14.9999 26.335H10.7244L8.72445 28.335H8.27535L3.94035 24L7.47013 20.4702C7.97349 19.9669 8.3391 19.6014 8.62993 19.3297C8.92322 19.0557 9.11056 18.9059 9.25554 18.8172C9.47223 18.6846 9.60176 18.6665 10.1809 18.6651L13.9126 19.665L18.9999 19.665C19.1488 19.665 19.2213 19.7117 19.2549 19.7453Z" fill="#000000" class="bmwfcol"/><path d="M4.24869 13.665L6.58369 16H4.81592L1.81592 13L4.81592 10H6.58369L4.24869 12.335H8.99998V13.665H4.24869Z" fill="#000000" class="bmwfcol"/><title>vehicle_double_arrow_on_hand_lt_48</title></svg>