<svg width="48" height="48" viewBox="0 0 32 32" xmlns="http://www.w3.org/2000/svg"><path d="M19 5.33497L18.919 5.33496C17.2402 5.33486 16.0356 5.33479 14.8164 5.74463C13.6117 6.14962 12.441 6.93477 10.7341 8.3557C7.63347 8.62677 5.99181 8.77226 4.83781 9.02874C3.61276 9.30101 2.91526 9.70374 1.70098 10.4048L1.33521 10.616L1.33496 15.0136L1.82788 15.1457C2.75025 15.3928 3.27586 15.5242 3.64335 15.5919C3.80167 15.621 3.93211 15.6386 4.05004 15.6491C4.50998 16.829 5.65734 17.665 6.99996 17.665C8.33656 17.665 9.47964 16.8364 9.94366 15.665H21.0563C21.5203 16.8364 22.6634 17.665 24 17.665C25.3371 17.665 26.4805 16.8358 26.9442 15.6637C27.4578 15.6586 27.8829 15.6341 28.3253 15.5183C28.8992 15.368 29.4695 15.0742 30.3327 14.5759L30.6652 14.3839L30.665 11.7245L30.4702 11.5297C30.005 11.0645 29.8216 10.7633 29.7424 10.5655C29.6687 10.3812 29.665 10.2439 29.665 9.99993L29.6649 8.39057L27.4376 8.19571L27.2897 8.11001C25.8 7.24716 24.6135 6.55996 23.4057 6.09133C22.0975 5.58377 20.776 5.33497 19 5.33497ZM27.1604 14.3292C27.0717 12.6606 25.6906 11.335 24 11.335C22.3073 11.335 20.925 12.6637 20.8392 14.335H10.1607C10.0749 12.6637 8.6926 11.335 6.99996 11.335C5.32725 11.335 3.95762 12.6326 3.84276 14.2761C3.5975 14.2289 3.2475 14.1448 2.66502 13.9919L2.66517 11.3843C3.67881 10.8026 4.20773 10.5312 5.12637 10.3271C6.19705 10.0891 7.77029 9.94987 11.0581 9.66245L11.267 9.64418L11.4276 9.50939C13.2076 8.01581 14.2515 7.33768 15.2402 7.00531C16.2326 6.67171 17.2212 6.66497 19 6.66497C20.6325 6.66497 21.7882 6.89039 22.9246 7.33127C24.0329 7.76127 25.1334 8.39848 26.6685 9.28725L27.0272 9.49488L28.335 9.6093L28.335 10.0155C28.3349 10.2706 28.3348 10.6276 28.5075 11.0594C28.6565 11.4319 28.9163 11.8209 29.335 12.269L29.3352 13.6136C28.6823 13.9801 28.317 14.1456 27.9883 14.2317C27.7456 14.2952 27.5095 14.3198 27.1604 14.3292ZM6.99996 12.665C8.0134 12.665 8.83496 13.4865 8.83496 14.5C8.83496 15.5134 8.0134 16.335 6.99996 16.335C5.98652 16.335 5.16496 15.5134 5.16496 14.5C5.16496 13.4865 5.98652 12.665 6.99996 12.665ZM24 12.665C25.0134 12.665 25.835 13.4865 25.835 14.5C25.835 15.5134 25.0134 16.335 24 16.335C22.9865 16.335 22.165 15.5134 22.165 14.5C22.165 13.4865 22.9865 12.665 24 12.665Z" fill="#000000" class="bmwfcol"/><path d="M11.1162 20H12.884L10.5489 22.335H20.451L18.116 20H19.8838L22.8839 23.0001L19.8839 26H18.1162L20.4511 23.665H10.5488L12.8838 26H11.116L8.11609 23.0001L11.1162 20Z" fill="#000000" class="bmwfcol"/><path d="M7.66496 20V26H6.33496V20H7.66496Z" fill="#000000" class="bmwfcol"/><path d="M24.665 26V20H23.335V26H24.665Z" fill="#000000" class="bmwfcol"/><title>vehicle-wheel-distance_lt_48</title></svg>