<svg width="48" height="48" viewBox="0 0 32 32" xmlns="http://www.w3.org/2000/svg"><path d="M18.8316 7.33497C17.4686 7.33484 16.465 7.33475 15.4485 7.67645C14.4475 8.01295 13.4818 8.66107 12.0988 9.81023C9.59031 10.0295 8.24561 10.1491 7.29653 10.36C6.27602 10.5868 5.69115 10.9245 4.70109 11.4962L4.33609 11.7069L4.33588 15.4675L4.82879 15.5996C5.58266 15.8016 6.01736 15.9104 6.32358 15.9668C6.42511 15.9855 6.51331 15.9986 6.59356 16.0076C7.00459 16.9815 7.96838 17.6649 9.0918 17.6649C10.2071 17.6649 11.1651 16.9913 11.5811 16.0286H20.5116C20.9276 16.9913 21.8856 17.6649 23.0009 17.6649C24.1171 17.6649 25.0756 16.9903 25.4911 16.0266C25.8803 16.0205 26.2188 15.9967 26.5704 15.9046C27.0576 15.7771 27.5369 15.5288 28.2427 15.1213L28.5752 14.9293L28.575 12.6336L28.3802 12.4388C28.0059 12.0645 27.8679 11.8315 27.8115 11.6905C27.7605 11.563 27.7568 11.4711 27.7568 11.2727L27.7567 9.84512L25.8508 9.67838L25.7496 9.61974C24.5343 8.91579 23.5557 8.34895 22.5584 7.962C21.4724 7.54066 20.3762 7.33497 18.91 7.33497L18.8316 7.33497ZM26.2335 14.618C26.0732 14.66 25.9165 14.6802 25.6986 14.6898C25.5656 13.3171 24.4086 12.244 23.0009 12.244C21.5903 12.244 20.4313 13.3217 20.3024 14.6986H11.7903C11.6614 13.3217 10.5025 12.244 9.0918 12.244C7.70611 12.244 6.56328 13.2839 6.40107 14.6258C6.22813 14.5884 5.99713 14.5318 5.66593 14.4454L5.66605 12.4754C6.45361 12.0249 6.86992 11.8173 7.58508 11.6583C8.4512 11.4658 9.72786 11.3526 12.4226 11.117L12.6315 11.0987L12.7922 10.9639C14.2471 9.74309 15.0864 9.20132 15.8723 8.93713C16.6619 8.67171 17.4494 8.66497 18.91 8.66497C20.2326 8.66497 21.1632 8.84728 22.0773 9.20194C22.9751 9.55026 23.8678 10.0671 25.1285 10.797L25.4404 10.9776L26.4268 11.0639L26.4268 11.2873C26.4267 11.4978 26.4266 11.8093 26.5766 12.1844C26.7017 12.4972 26.9145 12.8173 27.245 13.1766L27.2451 14.1584C26.7522 14.4326 26.4773 14.5542 26.2335 14.618ZM7.71135 14.9545C7.71135 14.1921 8.3294 13.574 9.0918 13.574C9.85421 13.574 10.4723 14.1921 10.4723 14.9545C10.4723 15.7169 9.85421 16.3349 9.0918 16.3349C8.3294 16.3349 7.71135 15.7169 7.71135 14.9545ZM21.6205 14.9545C21.6205 14.1921 22.2385 13.574 23.0009 13.574C23.7633 13.574 24.3814 14.1921 24.3814 14.9545C24.3814 15.7169 23.7633 16.3349 23.0009 16.3349C22.2385 16.3349 21.6205 15.7169 21.6205 14.9545Z" fill="#000000" class="bmwfcol"/><path d="M9.56421 22.1251C9.44341 22.392 9.37616 22.6883 9.37616 23.0004C9.37616 24.174 10.3276 25.1254 11.5012 25.1254C12.6748 25.1254 13.6262 24.174 13.6262 23.0004C13.6262 21.8268 12.6748 20.8754 11.5012 20.8754L6.50104 20.8751C5.32749 20.8752 4.37616 21.8268 4.37616 23.0004C4.37616 24.174 5.32755 25.1254 6.50116 25.1254C7.67476 25.1254 8.62616 24.174 8.62616 23.0004C8.62616 22.6883 8.55891 22.392 8.43811 22.1251H9.56421ZM10.6262 23.0004C10.6262 22.5171 11.0179 22.1254 11.5012 22.1254C11.9844 22.1254 12.3762 22.5171 12.3762 23.0004C12.3762 23.4836 11.9844 23.8754 11.5012 23.8754C11.0179 23.8754 10.6262 23.4836 10.6262 23.0004ZM6.50116 22.1254C6.98441 22.1254 7.37616 22.5171 7.37616 23.0004C7.37616 23.4836 6.98441 23.8754 6.50116 23.8754C6.01791 23.8754 5.62616 23.4836 5.62616 23.0004C5.62616 22.5171 6.01791 22.1254 6.50116 22.1254Z" fill="#000000" class="bmwfcol"/><path d="M23.3757 23.0004C23.3757 22.6883 23.4429 22.392 23.5637 22.1251H22.4376C22.5584 22.392 22.6257 22.6883 22.6257 23.0004C22.6257 24.174 21.6743 25.1254 20.5007 25.1254C19.3271 25.1254 18.3757 24.174 18.3757 23.0004C18.3757 21.8268 19.3271 20.8754 20.5007 20.8754L25.5008 20.8751C26.6743 20.8752 27.6257 21.8268 27.6257 23.0004C27.6257 24.174 26.6743 25.1254 25.5007 25.1254C24.3271 25.1254 23.3757 24.174 23.3757 23.0004ZM25.5007 22.1254C25.0174 22.1254 24.6257 22.5171 24.6257 23.0004C24.6257 23.4836 25.0174 23.8754 25.5007 23.8754C25.9839 23.8754 26.3757 23.4836 26.3757 23.0004C26.3757 22.5171 25.9839 22.1254 25.5007 22.1254ZM19.6257 23.0004C19.6257 23.4836 20.0174 23.8754 20.5007 23.8754C20.9839 23.8754 21.3757 23.4836 21.3757 23.0004C21.3757 22.5171 20.9839 22.1254 20.5007 22.1254C20.0174 22.1254 19.6257 22.5171 19.6257 23.0004Z" fill="#000000" class="bmwfcol"/><path d="M3.66594 17V18.335H28.3359V17H29.6659V21H28.3359V19.665H3.66594V21H2.33594V17H3.66594Z" fill="#000000" class="bmwfcol"/><title>vehicle_transport_wagon_lt_48</title></svg>