<svg width="48" height="48" viewBox="0 0 32 32" xmlns="http://www.w3.org/2000/svg"><path d="M17.665 8.99996C17.665 9.52081 17.6184 10.0222 17.5275 10.5H16.1683C16.2773 10.0364 16.335 9.53539 16.335 8.99996C16.335 7.35108 15.7882 6.02869 14.8797 5.12019C13.9712 4.21169 12.6488 3.66496 11 3.66496C9.35108 3.66496 8.02869 4.21169 7.12019 5.12019C6.21169 6.02869 5.66496 7.35108 5.66496 8.99996C5.66496 10.5278 6.13439 11.7754 6.92611 12.6731L6.92731 12.6719C7.31182 13.0564 7.68574 13.4303 8.07102 13.8156V10.514L9.32102 11.7645L9.32102 16.0075H5.0782L3.82812 14.7575H7.13203C6.81701 14.4425 6.49457 14.135 6.17974 13.8202C4.98824 12.6287 4.33496 10.9511 4.33496 8.99996C4.33496 7.04884 4.98824 5.37123 6.17974 4.17973C7.37123 2.98824 9.04884 2.33496 11 2.33496C12.9511 2.33496 14.6287 2.98824 15.8202 4.17973C17.0117 5.37123 17.665 7.04884 17.665 8.99996Z" fill="#000000" class="bmwfcol"/><path d="M11.665 8.33496V4.99996H10.335V9.66496H14V8.33496H11.665Z" fill="#000000" class="bmwfcol"/><path d="M14.4999 17.86C13.4023 18.2921 12.2914 19.0593 10.7341 20.3557C7.63348 20.6267 5.99181 20.7722 4.83781 21.0287C3.61276 21.301 2.91526 21.7037 1.70098 22.4048L1.33521 22.616L1.33496 27.0135L1.82788 27.1456C2.75025 27.3928 3.27586 27.5242 3.64335 27.5918C3.80169 27.621 3.93213 27.6385 4.05006 27.6491C4.51001 28.8289 5.65737 29.6649 6.99999 29.6649C8.33659 29.6649 9.47967 28.8364 9.94369 27.6649H14.4999V26.3349H10.1608C10.0749 24.6636 8.69263 23.3349 6.99999 23.3349C5.32728 23.3349 3.95765 24.6325 3.84279 26.276C3.59753 26.2289 3.24753 26.1447 2.66502 25.9918L2.66517 23.3843C3.67881 22.8026 4.20773 22.5312 5.12637 22.327C6.19705 22.0891 7.77029 21.9498 11.0581 21.6624L11.267 21.6441L11.4276 21.5094C12.7751 20.3787 13.7007 19.7153 14.4999 19.3155V17.86ZM5.16499 26.4999C5.16499 25.4865 5.98655 24.6649 6.99999 24.6649C8.01343 24.6649 8.83499 25.4865 8.83499 26.4999C8.83499 27.5134 8.01343 28.3349 6.99999 28.3349C5.98655 28.3349 5.16499 27.5134 5.16499 26.4999Z" fill="#000000" class="bmwfcol"/><path d="M25.4699 16.4702L21.4996 20.4405L19.0294 17.9702L19.9699 17.0298L21.4996 18.5596L24.5294 15.5298L25.4699 16.4702Z" fill="#000000" class="bmwfcol"/><path d="M25.4699 21.9702L21.4996 25.9405L19.0294 23.4702L19.9699 22.5298L21.4996 24.0596L24.5294 21.0298L25.4699 21.9702Z" fill="#000000" class="bmwfcol"/><path d="M16.335 12.335H29.665V29.665H16.335V12.335ZM17.665 13.665V28.335H28.335V13.665H17.665Z" fill="#000000" class="bmwfcol"/><title>vehicle_history_clock_checklist_lt_48</title></svg>