<svg width="48" height="48" viewBox="0 0 32 32" xmlns="http://www.w3.org/2000/svg"><path d="M14 21.335H10.1617C10.0759 19.6637 8.69358 18.335 7.00094 18.335C5.32823 18.335 3.9586 19.6326 3.84373 21.2761C3.59848 21.2289 3.24848 21.1448 2.666 20.9919L2.66614 18.3843C3.67979 17.8026 4.20871 17.5312 5.12735 17.3271C6.19803 17.0891 7.77126 16.9499 11.0591 16.6624L11.268 16.6442L11.4286 16.5094C13.2086 15.0158 14.2524 14.3377 15.2412 14.0053C16.2336 13.6717 17.2222 13.665 19.001 13.665C20.6335 13.665 21.7892 13.8904 22.9256 14.3313C24.0338 14.7613 25.1344 15.3985 26.6695 16.2873L27.0282 16.4949L28.3359 16.6093L28.336 17.0155C28.3359 17.2706 28.3358 17.6276 28.5085 18.0594C28.6575 18.4319 28.9173 18.8209 29.336 19.269L29.3361 20.6136C28.6903 20.9761 28.3259 21.142 28 21.2288V22.5885C28.1088 22.5699 28.217 22.5469 28.3263 22.5183C28.9002 22.368 29.4705 22.0742 30.3337 21.5759L30.6662 21.3839L30.6659 18.7245L30.4712 18.5297C30.006 18.0645 29.8225 17.7633 29.7434 17.5655C29.6697 17.3812 29.666 17.2439 29.666 16.9999L29.6659 15.3906L27.4386 15.1957L27.2906 15.11C25.8009 14.2472 24.6145 13.56 23.4066 13.0913C22.0984 12.5838 20.777 12.335 19.001 12.335L18.92 12.335C17.2412 12.3349 16.0366 12.3348 14.8174 12.7446C13.6126 13.1496 12.442 13.9348 10.7351 15.3557C7.63445 15.6268 5.99278 15.7723 4.83879 16.0287C3.61374 16.301 2.91623 16.7037 1.70196 17.4048L1.33619 17.616L1.33594 22.0136L1.82885 22.1457C2.75123 22.3928 3.27683 22.5242 3.64433 22.5919C3.80265 22.621 3.93309 22.6386 4.05101 22.6491C4.51096 23.829 5.65832 24.665 7.00094 24.665C8.33753 24.665 9.48062 23.8364 9.94463 22.665H14V21.335ZM7.00094 19.665C8.01438 19.665 8.83594 20.4865 8.83594 21.5C8.83594 22.5134 8.01438 23.335 7.00094 23.335C5.98749 23.335 5.16594 22.5134 5.16594 21.5C5.16594 20.4865 5.98749 19.665 7.00094 19.665Z" fill="#000000" class="bmwfcol"/><path d="M20.2486 24.6339L24.1905 20.692L23.3066 19.8081L20.2486 22.8662L18.6905 21.3081L17.8066 22.192L20.2486 24.6339Z" fill="#000000" class="bmwfcol"/><path d="M16.9038 17.9047C17.9203 16.8882 19.3479 16.335 20.999 16.335C22.6501 16.335 24.0777 16.8882 25.0942 17.9047C26.1107 18.9212 26.664 20.3488 26.664 22C26.664 23.3387 26.2414 24.5754 25.4894 25.5495L28.4697 28.5298L27.5293 29.4702L24.5521 26.493C23.6132 27.2269 22.4012 27.665 20.999 27.665C19.3479 27.665 17.9203 27.1117 16.9038 26.0952C15.8873 25.0787 15.334 23.6511 15.334 22C15.334 20.3488 15.8873 18.9212 16.9038 17.9047ZM17.8442 18.8452C17.1107 19.5787 16.664 20.6511 16.664 22C16.664 23.3488 17.1107 24.4212 17.8442 25.1547C18.5777 25.8882 19.6501 26.335 20.999 26.335C23.6109 26.335 25.334 24.4153 25.334 22C25.334 20.6511 24.8873 19.5787 24.1538 18.8452C23.4203 18.1117 22.3479 17.665 20.999 17.665C19.6501 17.665 18.5777 18.1117 17.8442 18.8452Z" fill="#000000" class="bmwfcol"/><title>vehicle-check_lt_48</title></svg>