<svg width="48" height="48" viewBox="0 0 32 32" xmlns="http://www.w3.org/2000/svg"><path d="M17.9643 3.47339L18.037 3.4734C19.3187 3.4734 20.279 3.65333 21.2307 4.02254C22.1026 4.36085 22.9578 4.8562 24.0148 5.46846L24.0954 5.51516L25.7868 5.66314L25.7869 6.94837C25.7869 7.12079 25.7904 7.19297 25.8313 7.29515C25.8772 7.41003 25.9928 7.60785 26.3163 7.93141L26.4994 8.11445L26.4996 10.5748L26.187 10.7552C25.5727 11.1099 25.1504 11.3292 24.7195 11.442C24.3464 11.5397 23.9901 11.5503 23.5597 11.5514C23.1842 12.3912 22.3414 12.9765 21.3619 12.9765C20.3825 12.9765 19.5397 12.3913 19.1642 11.5515H11.7786C11.4031 12.3913 10.5603 12.9765 9.58089 12.9765C8.59704 12.9765 7.7511 12.386 7.37812 11.5401C7.2884 11.5323 7.18884 11.5191 7.06808 11.4969C6.79932 11.4474 6.41901 11.3521 5.76282 11.1763L5.29956 11.0522L5.29975 7.30001L5.64249 7.10212C6.50342 6.60502 7.01812 6.30784 7.91371 6.10878C8.74203 5.92469 9.91356 5.82039 12.0873 5.63034C13.2866 4.63463 14.1306 4.06811 15.008 3.77316C15.9004 3.47318 16.7812 3.47327 17.9643 3.47339ZM24.4028 10.2328C24.6058 10.1796 24.8361 10.0788 25.2495 9.84987L25.2494 8.62417C24.966 8.31387 24.7807 8.0345 24.6707 7.75939C24.5367 7.42445 24.5368 7.14579 24.5369 6.9617L24.5369 6.80856L23.7097 6.73619L23.4311 6.57498C22.3314 5.93828 21.5569 5.4899 20.7785 5.1879C19.9884 4.88135 19.1838 4.7234 18.037 4.7234C16.7631 4.7234 16.0854 4.72973 15.4063 4.95801C14.7307 5.18513 14.0054 5.65195 12.7389 6.71466L12.5879 6.84134L12.3916 6.85851C10.0431 7.06381 8.93539 7.16221 8.18491 7.32901C7.57587 7.46437 7.21958 7.63983 6.54971 8.02238L6.54961 10.0914C6.8471 10.1687 7.04796 10.2172 7.19603 10.2481C7.35344 9.07151 8.36119 8.164 9.58089 8.164C10.819 8.164 11.8386 9.09904 11.9723 10.3015H18.9705C19.1042 9.09903 20.1239 8.16399 21.3619 8.16399C22.5993 8.16399 23.6185 9.09792 23.7531 10.2993C24.0515 10.2945 24.2246 10.2795 24.4028 10.2328ZM20.2057 10.5702C20.2057 11.2088 20.7234 11.7265 21.3619 11.7265C22.0005 11.7265 22.5182 11.2088 22.5182 10.5702C22.5182 9.93165 22.0005 9.41399 21.3619 9.41399C20.7234 9.41399 20.2057 9.93165 20.2057 10.5702ZM8.42466 10.5702C8.42466 11.2088 8.94232 11.7265 9.58089 11.7265C10.2195 11.7265 10.7371 11.2088 10.7371 10.5702C10.7371 9.93166 10.2195 9.414 9.58089 9.414C8.94232 9.414 8.42466 9.93166 8.42466 10.5702Z" fill="#000000" class="bmwfcol"/><path d="M8.12104 21.9999L5.78606 19.665H6.93725C8.34813 19.665 9.12824 19.995 9.5743 20.4768C10.0303 20.9692 10.2723 21.763 10.2723 23C10.2723 24.2369 10.0303 25.0307 9.5743 25.5232C9.12824 26.0049 8.34813 26.335 6.93725 26.335H4V27.665H6.93725C8.52637 27.665 9.74626 27.295 10.5502 26.4268C11.3443 25.5692 11.6023 24.363 11.6023 23C11.6023 21.6369 11.3443 20.4307 10.5502 19.5732C9.74626 18.7049 8.52637 18.335 6.93725 18.335H5.78602L8.12104 15.9999H6.35327L3.35327 18.9999L6.35327 21.9999H8.12104Z" fill="#000000" class="bmwfcol"/><path d="M25.5634 19.6982C25.1824 19.1939 24.6058 18.9987 23.9695 18.9987C23.2514 18.9987 22.6713 19.2365 22.3081 19.7764C22.1042 20.076 21.9978 20.4385 21.9403 20.836C21.8828 21.2336 21.8719 21.6851 21.8719 22.1721C21.8719 22.7261 21.8865 23.209 21.953 23.6209C22.0198 24.0345 22.1416 24.3941 22.3683 24.6907C22.7394 25.1792 23.3077 25.3456 23.9621 25.3456C24.6693 25.3456 25.2523 25.1173 25.6094 24.5741C26.0214 23.9674 26.0745 23.1481 26.0745 22.1499C26.0745 21.6607 26.0579 21.1965 25.9884 20.7856C25.9191 20.3754 25.7941 19.999 25.5634 19.6982ZM23.3071 20.4774L23.3083 20.4754C23.4253 20.2805 23.6279 20.1813 23.9621 20.1813C24.2997 20.1813 24.5088 20.2902 24.6095 20.4549L24.6107 20.457L24.6121 20.4591C24.6951 20.5892 24.759 20.7889 24.7997 21.0798C24.8399 21.3678 24.8548 21.7233 24.8548 22.1499C24.8548 22.5819 24.8435 22.9306 24.8076 23.2148C24.7716 23.4988 24.7128 23.7015 24.6283 23.8506C24.5029 24.0655 24.2865 24.163 23.9695 24.163C23.6181 24.163 23.4315 24.0865 23.3242 23.9256L23.3232 23.9241L23.3222 23.9226C23.2345 23.7951 23.1719 23.5917 23.1353 23.2878C23.0993 22.9879 23.0917 22.6211 23.0917 22.187C23.0917 21.7492 23.0992 21.3911 23.1327 21.1007C23.1664 20.8078 23.224 20.6105 23.3059 20.4793L23.3071 20.4774Z" fill="#000000" class="bmwfcol"/><path d="M17.0275 23.9453V25.1419L17.2352 25.1788C17.5682 25.238 18.1736 25.3456 18.7837 25.3456C19.5439 25.3456 20.1216 25.1826 20.5372 24.7493L20.5381 24.7483C20.8667 24.402 21.0223 23.9045 21.0223 23.4187C21.0223 22.9253 20.8891 22.5302 20.6208 22.2172C20.5429 22.1264 20.4643 22.0502 20.3862 21.9858C20.449 21.8961 20.5194 21.7945 20.5858 21.6969L20.5879 21.6937L20.5899 21.6905C20.8067 21.3498 20.9629 21.0188 20.9629 20.6214C20.9629 20.2167 20.8364 19.7961 20.5237 19.4925C20.1426 19.1205 19.6463 18.9987 18.9173 18.9987C18.3886 18.9987 17.6352 19.1538 17.2683 19.2345L17.072 19.2777V20.491L17.3786 20.4197C17.7049 20.3438 18.4173 20.1813 18.9099 20.1813C19.3732 20.1813 19.5535 20.2572 19.6425 20.3422C19.7157 20.4115 19.7506 20.5048 19.7506 20.6585C19.7506 20.8204 19.6654 21.0178 19.4725 21.2824L19.2805 21.5437H17.5914V22.7189H18.8208C19.1595 22.7189 19.324 22.7253 19.4563 22.7988L19.458 22.7997L19.4598 22.8007C19.5864 22.8684 19.6665 22.9457 19.7176 23.0352C19.7695 23.1262 19.8025 23.2494 19.8025 23.4261C19.8025 23.6886 19.7199 23.8714 19.5612 23.9904C19.4198 24.0964 19.1615 24.163 18.7763 24.163C18.2896 24.163 17.7102 24.0635 17.3201 23.996L17.0275 23.9453Z" fill="#000000" class="bmwfcol"/><path d="M17.665 13.9999V15.3349H25.335V13.9999H26.665V15.3349H27C27.4469 15.3349 27.8801 15.4746 28.2027 15.7972C28.5253 16.1198 28.665 16.553 28.665 16.9999V26.9999C28.665 27.4469 28.5253 27.8801 28.2027 28.2027C27.8801 28.5252 27.4469 28.6649 27 28.6649H16C15.553 28.6649 15.1198 28.5252 14.7972 28.2027C14.4747 27.8801 14.335 27.4469 14.335 26.9999V16.9999C14.335 16.553 14.4747 16.1198 14.7972 15.7972C15.1198 15.4746 15.553 15.3349 16 15.3349H16.335V13.9999H17.665ZM15.7377 16.7377C15.7153 16.7601 15.665 16.8269 15.665 16.9999V26.9999C15.665 27.173 15.7153 27.2398 15.7377 27.2622C15.7601 27.2846 15.8269 27.3349 16 27.3349H27C27.173 27.3349 27.2398 27.2846 27.2622 27.2622C27.2847 27.2398 27.335 27.173 27.335 26.9999V16.9999C27.335 16.8269 27.2847 16.7601 27.2622 16.7377C27.2398 16.7152 27.173 16.6649 27 16.6649H16C15.8269 16.6649 15.7601 16.7152 15.7377 16.7377Z" fill="#000000" class="bmwfcol"/><title>vehicle_return_arrow_30_lt_48</title></svg>