<svg width="48" height="48" viewBox="0 0 32 32" xmlns="http://www.w3.org/2000/svg"><path d="M6.24792 3.59459C6.66968 3.5018 7.52366 3.32642 8.11839 3.32642C8.94515 3.32642 9.48579 3.46495 9.8984 3.8676C10.2357 4.19516 10.3754 4.65211 10.3754 5.09892C10.3754 5.52971 10.2069 5.89193 9.96162 6.27729L9.95999 6.27986L9.95828 6.28238C9.86547 6.41886 9.76581 6.56214 9.68356 6.67916C9.78968 6.75946 9.89742 6.85863 10.0042 6.98326C10.2958 7.32341 10.4434 7.75484 10.4434 8.30342C10.4434 8.84331 10.2702 9.39004 9.91249 9.76707L9.91211 9.76747L9.91173 9.76786C9.45872 10.2401 8.82483 10.4244 7.96539 10.4244C7.27413 10.4244 6.58659 10.3022 6.20505 10.2344L6.20489 10.2343L6.03989 10.205V9.00933L6.274 9.04985C6.71943 9.12694 7.39062 9.24242 7.95689 9.24242C8.40353 9.24242 8.723 9.16609 8.90789 9.02742C9.1169 8.87066 9.21889 8.63214 9.21889 8.31192C9.21889 8.09876 9.179 7.94187 9.11023 7.82133C9.04211 7.70192 8.937 7.60295 8.78056 7.51927L8.77916 7.51852L8.77776 7.51775C8.60271 7.4205 8.38912 7.41542 8.00789 7.41542H6.68589V6.24192H8.57816L8.82383 5.90752L8.82401 5.90729C9.04767 5.60074 9.15939 5.35559 9.15939 5.14142C9.15939 4.95186 9.11665 4.81877 9.00934 4.71711L9.00907 4.71685L9.0088 4.71659C8.88117 4.59476 8.64469 4.50842 8.10989 4.50842C7.53381 4.50842 6.70752 4.69736 6.33619 4.78372L6.09089 4.84076V3.62913L6.24792 3.59459Z" fill="#000000" class="bmwfcol"/><path d="M24.5388 3.32642C24.0215 3.32642 23.5787 3.48647 23.2643 3.79344C22.9494 4.10094 22.7833 4.53638 22.7833 5.04792C22.7833 5.55598 22.95 5.98396 23.2664 6.28419C23.5815 6.58319 24.0239 6.73542 24.5388 6.73542C25.0499 6.73542 25.4902 6.58293 25.8041 6.28392C26.1192 5.98376 26.2858 5.55595 26.2858 5.04792C26.2858 4.53641 26.1197 4.10113 25.8061 3.79372C25.493 3.48675 25.0523 3.32642 24.5388 3.32642ZM23.8803 5.03092C23.8803 4.81374 23.947 4.65879 24.0491 4.55817C24.1515 4.45726 24.3114 4.38942 24.5388 4.38942C24.7512 4.38942 24.9102 4.45596 25.0152 4.55867C25.1196 4.66083 25.1888 4.81658 25.1888 5.03092C25.1888 5.25022 25.1191 5.40535 25.0157 5.50584C24.9114 5.60713 24.7527 5.67242 24.5388 5.67242C24.3114 5.67242 24.1515 5.60457 24.0491 5.50366C23.947 5.40304 23.8803 5.24809 23.8803 5.03092Z" fill="#000000" class="bmwfcol"/><path d="M19.5223 3.32642C18.7196 3.32642 18.0863 3.59105 17.6906 4.17941C17.4672 4.50756 17.3482 4.90844 17.2833 5.35717C17.2184 5.80603 17.2058 6.31784 17.2058 6.87542C17.2058 7.50959 17.2226 8.05684 17.2976 8.52124C17.3728 8.98709 17.5087 9.38368 17.7567 9.70817C18.1587 10.2374 18.7774 10.4244 19.5138 10.4244C20.3052 10.4244 20.9408 10.17 21.3291 9.57901C21.7843 8.909 21.8473 7.99711 21.8473 6.84992C21.8473 6.29063 21.8282 5.76482 21.7499 5.30145C21.6717 4.83874 21.532 4.42291 21.2794 4.09381C20.8644 3.54418 20.2339 3.32642 19.5223 3.32642ZM18.6908 4.88732C18.8459 4.62877 19.1131 4.50842 19.5138 4.50842C19.9172 4.50842 20.1922 4.63911 20.3291 4.86321L20.3301 4.86487L20.3312 4.86652C20.4361 5.03085 20.5115 5.274 20.5588 5.61217C20.6058 5.94795 20.6228 6.35993 20.6228 6.84992C20.6228 7.34554 20.6099 7.74951 20.568 8.08068C20.5261 8.41178 20.4566 8.65663 20.3519 8.84126C20.1874 9.12338 19.9041 9.24242 19.5223 9.24242C19.1104 9.24242 18.8586 9.15306 18.7112 8.93198L18.7104 8.93079L18.7096 8.92961C18.5971 8.76604 18.5233 8.51618 18.4809 8.16373C18.4389 7.81456 18.4303 7.3897 18.4303 6.89242C18.4303 6.39095 18.4389 5.97622 18.4778 5.63817C18.517 5.29806 18.5848 5.05689 18.6889 4.89042L18.6898 4.88887L18.6908 4.88732Z" fill="#000000" class="bmwfcol"/><path d="M15.7635 4.52063V3.33106L15.5362 3.36228C14.4119 3.51676 13.3342 3.82944 12.6087 4.47333L12.6083 4.47368L12.6079 4.47403C11.7119 5.27764 11.564 6.56123 11.564 7.77642C11.564 8.5424 11.7021 9.20658 12.0637 9.68243L12.064 9.6828C12.4726 10.2179 13.063 10.4244 13.8805 10.4244C14.7313 10.4244 15.3069 10.1708 15.6944 9.67751C16.0566 9.22878 16.163 8.67552 16.163 8.15042C16.163 7.5732 16.0096 7.03387 15.6421 6.63746L15.642 6.63733L15.6419 6.6372C15.2456 6.21121 14.6579 6.03792 13.77 6.03792C13.51 6.03792 13.2182 6.04602 12.9896 6.05384C13.0887 5.74512 13.2786 5.45362 13.5995 5.2175L13.6002 5.21696L13.601 5.21642C14.0347 4.89113 14.7732 4.68398 15.596 4.54825L15.7635 4.52063ZM12.7885 7.84442C12.7885 7.56767 12.793 7.38035 12.8047 7.22163C13.0422 7.21311 13.3861 7.20292 13.6935 7.20292C14.2722 7.20292 14.5552 7.26176 14.7265 7.45147L14.7286 7.45379L14.7308 7.45604C14.8886 7.6202 14.9385 7.84337 14.9385 8.15042C14.9385 8.48774 14.8817 8.74597 14.7132 8.94841C14.5359 9.15826 14.2979 9.25092 13.8805 9.25092C13.4359 9.25092 13.1521 9.12418 13.0098 8.91491C12.8476 8.66738 12.7885 8.38429 12.7885 7.84442Z" fill="#000000" class="bmwfcol"/><path d="M13.5 21.3349H10.1608C10.0749 19.6636 8.69263 18.3349 6.99999 18.3349C5.32728 18.3349 3.95765 19.6325 3.84279 21.276C3.59753 21.2289 3.24753 21.1447 2.66502 20.9918L2.66517 18.3843C3.67881 17.8026 4.20773 17.5312 5.12637 17.327C6.19705 17.0891 7.77029 16.9498 11.0581 16.6624L11.267 16.6442L11.4276 16.5094C13.2076 15.0158 14.2515 14.3377 15.2402 14.0053C16.2326 13.6717 17.2212 13.6649 19 13.6649C20.6325 13.6649 21.7882 13.8904 22.9246 14.3312C24.0329 14.7612 25.1334 15.3984 26.6685 16.2872C26.7444 16.3311 26.8213 16.3757 26.8993 16.4208L27.0272 16.4949L28.335 16.6093L28.335 17.0155C28.3349 17.2706 28.3348 17.6276 28.5075 18.0594C28.6565 18.4319 28.9163 18.8209 29.335 19.2689L29.3352 20.6136C28.988 20.8084 28.7222 20.9464 28.5 21.0459V22.4681C29.0178 22.3063 29.557 22.0237 30.3327 21.5758L30.6652 21.3838L30.665 18.7245L30.4702 18.5297C30.005 18.0645 29.8216 17.7633 29.7424 17.5655C29.6687 17.3811 29.665 17.2439 29.665 16.9999L29.6649 15.3905L27.4376 15.1957C27.3962 15.1717 27.355 15.1478 27.314 15.1241L27.2897 15.11L27.2896 15.11C25.7999 14.2471 24.6135 13.5599 23.4057 13.0913C22.0975 12.5837 20.776 12.3349 19 12.3349L18.919 12.3349C17.2402 12.3348 16.0356 12.3348 14.8164 12.7446C13.6117 13.1496 12.441 13.9347 10.7341 15.3557C7.63348 15.6267 5.99181 15.7722 4.83781 16.0287C3.61276 16.301 2.91526 16.7037 1.70098 17.4048L1.33521 17.616L1.33496 22.0135L1.82788 22.1456C2.75025 22.3928 3.27585 22.5242 3.64335 22.5919C3.80168 22.621 3.93213 22.6385 4.05006 22.6491C4.51001 23.8289 5.65737 24.6649 6.99999 24.6649C8.33659 24.6649 9.47967 23.8364 9.94369 22.6649H13.5V21.3349ZM6.99999 19.6649C8.01343 19.6649 8.83499 20.4865 8.83499 21.4999C8.83499 22.5134 8.01343 23.3349 6.99999 23.3349C5.98655 23.3349 5.16499 22.5134 5.16499 21.4999C5.16499 20.4865 5.98655 19.6649 6.99999 19.6649Z" fill="#000000" class="bmwfcol"/><path d="M20.25 24.6338L24.1919 20.6919L23.308 19.808L20.25 22.8661L18.6919 21.308L17.808 22.1919L20.25 24.6338Z" fill="#000000" class="bmwfcol"/><path d="M16.9048 17.9047C17.9213 16.8882 19.3489 16.3349 21 16.3349C22.6511 16.3349 24.0787 16.8882 25.0952 17.9047C26.1117 18.9212 26.665 20.3488 26.665 21.9999C26.665 23.3388 26.2423 24.5756 25.4902 25.5497L28.4702 28.5297L27.5298 29.4702L24.5528 26.4932C23.6139 27.2269 22.4021 27.6649 21 27.6649C19.3489 27.6649 17.9213 27.1117 16.9048 26.0952C15.8883 25.0787 15.335 23.6511 15.335 21.9999C15.335 20.3488 15.8883 18.9212 16.9048 17.9047ZM17.8452 18.8452C17.1117 19.5787 16.665 20.6511 16.665 21.9999C16.665 23.3488 17.1117 24.4212 17.8452 25.1547C18.5787 25.8882 19.6511 26.3349 21 26.3349C23.6119 26.3349 25.335 24.4153 25.335 21.9999C25.335 20.6511 24.8883 19.5787 24.1548 18.8452C23.4213 18.1117 22.3489 17.6649 21 17.6649C19.6511 17.6649 18.5787 18.1117 17.8452 18.8452Z" fill="#000000" class="bmwfcol"/><title>vehicle_check_magnifier_360_lt_48</title></svg>