<svg width="48" height="48" viewBox="0 0 32 32" xmlns="http://www.w3.org/2000/svg"><path d="M9.12594 3.68456L11.2807 1.52979L12.2212 2.47024L10.0664 4.62501L11.3759 5.93456L13.5307 3.77979L14.4712 4.72024L12.3164 6.87501L13.4414 8.00001L12.9712 8.47024C11.4456 9.99578 10.1608 10.8303 8.99667 11.0353C8.01467 11.2083 7.21001 10.9217 6.53526 10.4123C5.88569 11.0828 5.56398 11.4805 5.38898 11.8202C5.20245 12.1823 5.16594 12.5087 5.16594 13.25V14.605C4.94682 14.6427 4.74218 14.6827 4.54913 14.7256C4.2949 14.7821 4.05888 14.8442 3.83594 14.9119V13.25C3.83594 12.4913 3.86192 11.8803 4.20664 11.2111C4.47366 10.6928 4.91843 10.1676 5.59368 9.47239C5.08113 8.79627 4.79211 7.98954 4.96563 7.00428C5.17066 5.84011 6.00517 4.55533 7.53071 3.02979L8.00094 2.55956L9.12594 3.68456ZM8.76598 9.72548C9.43116 9.60833 10.3271 9.1303 11.5522 7.99174L8.00921 4.44874C6.87065 5.67389 6.39262 6.56979 6.27547 7.23497C6.15681 7.9087 6.39322 8.45184 6.97116 9.02979C7.5491 9.60773 8.09224 9.84414 8.76598 9.72548Z" fill="#000000" class="bmwfcol"/><path d="M14.001 21.335H10.1617C10.0759 19.6637 8.69358 18.335 7.00094 18.335C5.32823 18.335 3.9586 19.6326 3.84373 21.2761C3.59848 21.2289 3.24848 21.1448 2.666 20.9919L2.66614 18.3843C3.67979 17.8026 4.20871 17.5313 5.12735 17.3271C6.19803 17.0891 7.77126 16.9499 11.0591 16.6625L11.268 16.6442L11.4286 16.5094C13.2086 15.0158 14.2524 14.3377 15.2412 14.0053C16.2336 13.6717 17.2222 13.665 19.001 13.665C20.6335 13.665 21.7892 13.8904 22.9256 14.3313C24.0338 14.7613 25.1344 15.3985 26.6695 16.2873L27.0282 16.4949L28.3359 16.6093L28.336 17.0155C28.3359 17.2706 28.3358 17.6276 28.5085 18.0595C28.6575 18.432 28.9173 18.8209 29.336 19.269L29.3361 20.6136C28.691 20.9758 28.3266 21.1417 28.001 21.2286V22.5883C28.1094 22.5698 28.2173 22.5468 28.3263 22.5183C28.9002 22.368 29.4705 22.0743 30.3337 21.5759L30.6662 21.3839L30.6659 18.7245L30.4712 18.5298C30.006 18.0645 29.8225 17.7634 29.7434 17.5655C29.6697 17.3812 29.666 17.2439 29.666 17L29.6659 15.3906L27.4386 15.1957L27.2906 15.11C25.8009 14.2472 24.6145 13.56 23.4066 13.0914C22.0984 12.5838 20.777 12.335 19.001 12.335L18.92 12.335C17.2412 12.3349 16.0366 12.3348 14.8174 12.7447C13.6126 13.1496 12.442 13.9348 10.7351 15.3557C7.63445 15.6268 5.99278 15.7723 4.83879 16.0288C3.61374 16.301 2.91623 16.7038 1.70196 17.4049L1.33619 17.616L1.33594 22.0136L1.82885 22.1457C2.75123 22.3928 3.27683 22.5242 3.64433 22.5919C3.80265 22.6211 3.93309 22.6386 4.05101 22.6491C4.51096 23.829 5.65832 24.665 7.00094 24.665C8.33753 24.665 9.48062 23.8365 9.94463 22.665H14.001V21.335ZM7.00094 19.665C8.01438 19.665 8.83594 20.4865 8.83594 21.5C8.83594 22.5134 8.01438 23.335 7.00094 23.335C5.98749 23.335 5.16594 22.5134 5.16594 21.5C5.16594 20.4865 5.98749 19.665 7.00094 19.665Z" fill="#000000" class="bmwfcol"/><path d="M20.2509 24.6339L24.1928 20.6919L23.309 19.808L20.2509 22.8661L18.6928 21.308L17.809 22.1919L20.2509 24.6339Z" fill="#000000" class="bmwfcol"/><path d="M16.9057 17.9048C17.9222 16.8883 19.3498 16.335 21.0009 16.335C22.6521 16.335 24.0797 16.8883 25.0962 17.9048C26.1127 18.9213 26.6659 20.3489 26.6659 22C26.6659 23.3389 26.2433 24.5756 25.4912 25.5497L28.4712 28.5298L27.5308 29.4702L24.5538 26.4932C23.6149 27.227 22.4031 27.665 21.0009 27.665C19.3498 27.665 17.9222 27.1117 16.9057 26.0952C15.8892 25.0787 15.3359 23.6511 15.3359 22C15.3359 20.3489 15.8892 18.9213 16.9057 17.9048ZM17.8462 18.8452C17.1127 19.5787 16.6659 20.6511 16.6659 22C16.6659 23.3489 17.1127 24.4213 17.8462 25.1548C18.5797 25.8883 19.6521 26.335 21.0009 26.335C23.6128 26.335 25.3359 24.4153 25.3359 22C25.3359 20.6511 24.8892 19.5787 24.1557 18.8452C23.4222 18.1117 22.3498 17.665 21.0009 17.665C19.6521 17.665 18.5797 18.1117 17.8462 18.8452Z" fill="#000000" class="bmwfcol"/><title>vehicle_check_bev_lt_48</title></svg>