<svg width="48" height="48" viewBox="0 0 32 32" xmlns="http://www.w3.org/2000/svg"><path d="M15.1569 11.085H12.2245L11.335 11.9745V14.6933L12.5871 16.665H15.5254L16 16.1904L16.4745 16.665H19.4578L20.665 14.6869L20.665 11.9745L19.7754 11.085H16.843L16 11.5065L15.1569 11.085ZM12.665 12.5254L12.7754 12.415H14.843L15.335 12.661V14.9745L14.9745 15.335H13.318L12.665 14.3067V12.5254ZM16.665 14.9745V12.661L17.1569 12.415H19.2245L19.335 12.5254L19.335 14.3131L18.7113 15.335H17.0254L16.665 14.9745Z" fill="#000000" class="bmwfcol"/><path d="M5.2037 10.1012C5.61013 9.60544 6.13647 9.09515 6.68701 8.58413L6.68567 8.58267C6.70546 8.56439 6.7256 8.54664 6.74608 8.52938C6.79615 8.48304 6.84639 8.43669 6.89673 8.39035C6.73071 8.29962 6.51991 8.24077 6.19038 8.20618C5.77306 8.16239 5.23938 8.1633 4.45646 8.16463C4.31304 8.16487 4.16096 8.16513 4 8.16513V6.83513C4.1514 6.83513 4.29752 6.83483 4.43852 6.83453C5.21398 6.8329 5.83506 6.83159 6.32919 6.88345C6.76797 6.92949 7.15197 7.0207 7.50463 7.20714C7.69434 6.84787 7.9142 6.45756 8.15334 6.07635C8.42786 5.63874 8.73649 5.19906 9.06292 4.82837C9.3799 4.46838 9.75812 4.12162 10.1818 3.93563C11.3396 3.42753 12.1495 3.33496 16 3.33496C19.8504 3.33496 20.6615 3.42745 21.8183 3.9357C22.2414 4.12226 22.6201 4.46934 22.9371 4.82941C23.2634 5.20013 23.572 5.63966 23.8465 6.07712C24.0856 6.4581 24.3054 6.84812 24.4951 7.20716C24.8477 7.02067 25.2318 6.92949 25.6705 6.88345C26.1647 6.83159 26.7856 6.8329 27.5612 6.83453C27.7022 6.83482 27.8484 6.83513 27.9999 6.83513V8.16513C27.8389 8.16513 27.6871 8.16487 27.5437 8.16463C26.7607 8.1633 26.2267 8.16239 25.8093 8.20619C25.4797 8.24077 25.269 8.29964 25.1031 8.3903C25.7285 8.96589 26.3384 9.54276 26.7962 10.1012C27.2565 10.6625 27.665 11.3236 27.665 12.0428V20.665H22.335V19.4627C18.0467 19.7457 13.9532 19.7457 9.66496 19.4627V20.665H4.33496V12.0428C4.33496 11.3236 4.74345 10.6625 5.2037 10.1012ZM10.7163 5.15348C10.5569 5.22351 10.3326 5.39895 10.0611 5.70732C9.79893 6.00503 9.53292 6.37995 9.28001 6.78312C9.03843 7.16822 8.81674 7.56629 8.62964 7.92561C8.87667 7.90186 9.14774 7.88436 9.44507 7.87113C10.4764 7.82524 11.9152 7.82813 13.9228 7.83215C14.5568 7.83343 15.2475 7.83481 16.0001 7.83481C16.7522 7.83481 17.4425 7.83343 18.0761 7.83216L18.0773 7.83215C20.0846 7.82813 21.5227 7.82524 22.5534 7.87113C22.8513 7.88439 23.1228 7.90195 23.3702 7.92579C23.1831 7.56669 22.9615 7.1689 22.72 6.78406C22.4671 6.38102 22.201 6.0061 21.9388 5.7082C21.6675 5.39999 21.4431 5.22397 21.283 5.15323C20.424 4.77587 19.8989 4.66496 16 4.66496C12.1008 4.66496 11.5768 4.77586 10.7163 5.15348ZM24.409 9.55982C24.344 9.4998 24.2166 9.41898 23.9098 9.34899C23.5976 9.27776 23.1519 9.22909 22.4943 9.19981C21.4972 9.15542 20.1044 9.15819 18.1106 9.16215C17.4712 9.16342 16.7699 9.16481 16.0001 9.16481C15.2303 9.16481 14.529 9.16342 13.8895 9.16215C11.8954 9.15819 10.5019 9.15542 9.50419 9.19981C8.84615 9.22909 8.4 9.27777 8.08743 9.34902C7.82394 9.40908 7.69269 9.47714 7.61973 9.5331C7.0656 10.0469 6.58666 10.5121 6.23222 10.9444C6.12292 11.0777 6.03217 11.2001 5.95768 11.3123C7.10225 11.5934 8.30043 11.737 10 11.8574V13.1907C8.2344 13.0679 6.93218 12.9188 5.66496 12.6098V19.335H8.33496V18.0347L9.04831 18.0867C13.7717 18.431 18.2282 18.431 22.9516 18.0867L23.665 18.0347V19.335H26.335V12.6099C25.0678 12.9188 23.7656 13.068 22 13.1907V11.8574C23.6995 11.737 24.8977 11.5934 26.0423 11.3123C25.9678 11.2001 25.877 11.0777 25.7677 10.9444C25.4194 10.5195 24.951 10.0631 24.409 9.55982Z" fill="#000000" class="bmwfcol"/><path d="M5.66496 23V29H4.33496V23H5.66496Z" fill="#000000" class="bmwfcol"/><path d="M10.8839 23H9.11614L6.11605 26.0001L9.11595 29H10.8837L8.54876 26.665L23.4511 26.665L21.1161 29H22.8839L25.8838 26.0001L22.8837 23H21.116L23.451 25.335L8.54887 25.335L10.8839 23Z" fill="#000000" class="bmwfcol"/><path d="M27.665 23V29H26.335V23H27.665Z" fill="#000000" class="bmwfcol"/><title>vehicle-dimension-width_lt_48</title></svg>