<svg width="48" height="48" viewBox="0 0 32 32" xmlns="http://www.w3.org/2000/svg"><path d="M3.73769 7.73769C3.71526 7.76012 3.66496 7.8269 3.66496 7.99996V24C3.66496 24.173 3.71526 24.2398 3.73769 24.2622C3.76012 24.2847 3.8269 24.335 3.99996 24.335H28C28.173 24.335 28.2398 24.2847 28.2622 24.2622C28.2847 24.2398 28.335 24.173 28.335 24V7.99996C28.335 7.8269 28.2847 7.76012 28.2622 7.73769C28.2398 7.71526 28.173 7.66496 28 7.66496H3.99996C3.8269 7.66496 3.76012 7.71526 3.73769 7.73769ZM2.79723 6.79723C3.11981 6.47466 3.55302 6.33496 3.99996 6.33496H28C28.4469 6.33496 28.8801 6.47466 29.2027 6.79724C29.5253 7.11981 29.665 7.55302 29.665 7.99996V24C29.665 24.4469 29.5253 24.8801 29.2027 25.2027C28.8801 25.5253 28.4469 25.665 28 25.665H3.99996C3.55302 25.665 3.11981 25.5253 2.79723 25.2027C2.47466 24.8801 2.33496 24.4469 2.33496 24V7.99996C2.33496 7.55302 2.47466 7.11981 2.79723 6.79723Z" fill="#000000" class="bmwfcol"/><path d="M12.335 11.585H13.6832L21.3302 16L13.6832 20.4149L12.335 20.415V11.585ZM13.665 13.1102V18.8897L18.6702 16L13.665 13.1102Z" fill="#000000" class="bmwfcol"/><title>video_lt_48</title></svg>