<svg width="48" height="48" viewBox="0 0 32 32" xmlns="http://www.w3.org/2000/svg"><path d="M9.33496 10.335H8.1377L4.82812 8.42383L4.67383 8.33496H3.33496V19.665H4.67383L4.82812 19.5762L8.1377 17.665H9.33496V24.665H25.2754L25.4707 24.4707C26.9862 22.9552 27.8297 21.8634 28.2559 20.585C28.6723 19.3353 28.665 17.9621 28.665 16C28.665 14.0379 28.6723 12.6647 28.2559 11.415C27.8297 10.1366 26.9862 9.04479 25.4707 7.5293L25.2754 7.33496H9.33496V10.335ZM24.7197 8.66504C26.0696 10.0366 26.6846 10.9064 26.9941 11.835C27.3276 12.8352 27.335 13.9623 27.335 16C27.335 18.0377 27.3276 19.1648 26.9941 20.165C26.6846 21.0936 26.0696 21.9634 24.7197 23.335H10.665V8.66504H24.7197ZM7.62695 11.5762L7.78125 11.665H9.33496V16.335H7.78125L7.62695 16.4238L4.66504 18.1338V9.86523L7.62695 11.5762Z" fill="#000000" class="bmwfcol"/><title>video_camera_lt_48</title></svg>