<svg width="48" height="48" viewBox="0 0 32 32" xmlns="http://www.w3.org/2000/svg"><path d="M25.8956 6.10486C28.3121 8.52135 29.6654 11.9489 29.6654 16C29.6654 20.0512 28.3121 23.4788 25.8956 25.8953L24.9551 24.9548C27.0886 22.8213 28.3354 19.7489 28.3354 16C28.3354 12.2512 27.0887 9.17881 24.9552 7.04531L25.8956 6.10486Z" fill="#000000" class="bmwfcol"/><path d="M22.9956 22.9953C24.7121 21.2788 25.6654 18.8512 25.6654 16C25.6654 13.1489 24.7121 10.7214 22.9956 9.00486L22.0552 9.94531C23.4887 11.3788 24.3354 13.4512 24.3354 16C24.3354 18.5489 23.4886 20.6213 22.0551 22.0548L22.9956 22.9953Z" fill="#000000" class="bmwfcol"/><path d="M20.0956 11.9049L19.1552 12.8453C19.8887 13.5788 20.3354 14.6512 20.3354 16C20.3354 17.3489 19.8886 18.4213 19.1551 19.1548L20.0956 20.0953C21.1121 19.0788 21.6654 17.6512 21.6654 16C21.6654 14.3489 21.1121 12.9214 20.0956 11.9049Z" fill="#000000" class="bmwfcol"/><path d="M2.33496 8.33505H3.33652L16.6097 16L3.33652 23.665H2.33496V8.33505ZM3.66496 10.0606V21.9395L13.9502 16L3.66496 10.0606Z" fill="#000000" class="bmwfcol"/><title>video-stream_lt_48</title></svg>