<svg width="48" height="48" viewBox="0 0 32 32" xmlns="http://www.w3.org/2000/svg"><path d="M25.8012 23.134C24.9859 23.6912 24.0598 24.1604 23.0375 24.5375L21.9911 23.4911C23.1596 23.1175 24.1855 22.6274 25.0507 22.036C27.16 20.5942 28.3359 18.542 28.3359 16C28.3359 13.4579 27.16 11.4057 25.0507 9.96397C22.9195 8.50724 19.8139 7.66496 16.0009 7.66496C12.188 7.66496 9.08242 8.50724 6.95119 9.96397C4.84184 11.4057 3.66594 13.4579 3.66594 16C3.66594 18.542 4.84184 20.5942 6.95119 22.036C9.08225 23.4926 12.1875 24.3348 16 24.335H18.4502L14.1152 20H15.883L20.883 25L15.8831 30H14.1153L18.4504 25.665L16 25.665C12.0133 25.6648 8.61926 24.7871 6.20068 23.134C3.76004 21.4657 2.33594 19.0179 2.33594 16C2.33594 12.982 3.76004 10.5342 6.20068 8.86595C8.61945 7.21268 12.0139 6.33496 16.0009 6.33496C19.988 6.33496 23.3824 7.21268 25.8012 8.86595C28.2418 10.5342 29.6659 12.982 29.6659 16C29.6659 19.0179 28.2418 21.4657 25.8012 23.134Z" fill="#000000" class="bmwfcol"/><title>view_lt_48</title></svg>