<svg width="48" height="48" viewBox="0 0 32 32" xmlns="http://www.w3.org/2000/svg"><path d="M16 12.665H19.5V11.335H16V12.665Z" fill="#000000" class="bmwfcol"/><path d="M19 5.33497C20.776 5.33497 22.0975 5.58377 23.4057 6.09133C24.6135 6.55996 25.8 7.24716 27.2897 8.11001L27.4376 8.19571L29.6649 8.39057L29.665 9.99993C29.665 10.2439 29.6687 10.3812 29.7424 10.5655C29.8216 10.7633 30.005 11.0645 30.4702 11.5297L30.665 11.7245L30.6652 14.3839L30.3327 14.5759C29.4695 15.0742 28.8992 15.368 28.3253 15.5183C27.8829 15.6341 27.4578 15.6586 26.9442 15.6637C26.4805 16.8358 25.3371 17.665 24 17.665C22.6634 17.665 21.5203 16.8364 21.0563 15.665H9.94366C9.47964 16.8364 8.33656 17.665 6.99996 17.665C5.65734 17.665 4.50998 16.829 4.05004 15.6491C3.93211 15.6386 3.80167 15.621 3.64335 15.5919C3.27586 15.5242 2.75025 15.3928 1.82788 15.1457L1.33496 15.0136L1.33521 10.616L1.70098 10.4048C2.91526 9.70374 3.61276 9.30101 4.83781 9.02874C5.99181 8.77226 7.63347 8.62677 10.7341 8.3557C12.441 6.93477 13.6117 6.14962 14.8164 5.74463C16.0356 5.33479 17.2402 5.33486 18.919 5.33496L19 5.33497ZM27.1604 14.3292C27.5095 14.3198 27.7456 14.2952 27.9883 14.2317C28.317 14.1456 28.6823 13.9801 29.3352 13.6136L29.335 12.269C28.9163 11.8209 28.6565 11.4319 28.5075 11.0594C28.3348 10.6276 28.3349 10.2706 28.335 10.0155L28.335 9.6093L27.0272 9.49488L26.6685 9.28725C25.1334 8.39848 24.0329 7.76127 22.9246 7.33127C21.7882 6.89039 20.6325 6.66497 19 6.66497C17.2212 6.66497 16.2326 6.67171 15.2402 7.00531C14.2515 7.33768 13.2076 8.01581 11.4276 9.50939L11.267 9.64418L11.0581 9.66245C7.77029 9.94987 6.19705 10.0891 5.12637 10.3271C4.20773 10.5312 3.67881 10.8026 2.66517 11.3843L2.66502 13.9919C3.2475 14.1448 3.5975 14.2289 3.84276 14.2761C3.95762 12.6326 5.32725 11.335 6.99996 11.335C8.6926 11.335 10.0749 12.6637 10.1607 14.335H20.8392C20.925 12.6637 22.3073 11.335 24 11.335C25.6906 11.335 27.0717 12.6606 27.1604 14.3292ZM6.99996 12.665C5.98652 12.665 5.16496 13.4865 5.16496 14.5C5.16496 15.5134 5.98652 16.335 6.99996 16.335C8.0134 16.335 8.83496 15.5134 8.83496 14.5C8.83496 13.4865 8.0134 12.665 6.99996 12.665ZM24 12.665C22.9865 12.665 22.165 13.4865 22.165 14.5C22.165 15.5134 22.9865 16.335 24 16.335C25.0134 16.335 25.835 15.5134 25.835 14.5C25.835 13.4865 25.0134 12.665 24 12.665Z" fill="#000000" class="bmwfcol"/><path d="M9.1676 22.0051H10.3743L11.9866 26.3636L13.6056 22.0051H14.8047L12.5627 27.9998H11.4096L9.1676 22.0051Z" fill="#000000" class="bmwfcol"/><path d="M15.1599 22.0051H16.2723V27.9998H15.1599V22.0051Z" fill="#000000" class="bmwfcol"/><path d="M18.601 22.0051H17.3961V27.9998H18.501V23.9723L20.8651 27.9998H22.07V22.0051H20.9651V26.0326L18.601 22.0051Z" fill="#000000" class="bmwfcol"/><title>vin_lt_48</title></svg>