<svg width="48" height="48" viewBox="0 0 32 32" xmlns="http://www.w3.org/2000/svg"><path d="M2.81783 20H4.19479C3.84834 18.776 3.66496 17.4377 3.66496 16C3.66496 12.2511 4.91168 9.17869 7.04519 7.04519C9.17869 4.91169 12.2511 3.66496 16 3.66496C19.7488 3.66496 22.8212 4.91169 24.9547 7.04519C27.0882 9.17869 28.335 12.2511 28.335 16C28.335 17.4377 28.1516 18.776 27.8051 20H29.1821C29.4999 18.7537 29.665 17.4149 29.665 16C29.665 11.9488 28.3117 8.52123 25.8952 6.10473C23.4787 3.68824 20.0511 2.33496 16 2.33496C11.9488 2.33496 8.52123 3.68824 6.10473 6.10473C3.68824 8.52123 2.33496 11.9488 2.33496 16C2.33496 17.4149 2.50004 18.7537 2.81783 20Z" fill="#000000" class="bmwfcol"/><path d="M18.6973 14.2431L23.4702 9.47019L22.5298 8.52974L17.7569 13.3027C17.2548 12.9944 16.6533 12.835 16 12.835C15.0988 12.835 14.2962 13.1382 13.7172 13.7172C13.1382 14.2962 12.835 15.0988 12.835 16C12.835 16.9011 13.1382 17.7037 13.7172 18.2827C14.2962 18.8617 15.0988 19.165 16 19.165C17.8881 19.165 19.165 17.7268 19.165 16C19.165 15.3467 19.0056 14.7452 18.6973 14.2431ZM14.165 16C14.165 15.4011 14.3617 14.9537 14.6577 14.6577C14.9537 14.3617 15.4011 14.165 16 14.165C16.5988 14.165 17.0462 14.3617 17.3422 14.6577C17.6382 14.9537 17.835 15.4011 17.835 16C17.835 17.0346 17.1119 17.835 16 17.835C15.4011 17.835 14.9537 17.6382 14.6577 17.3422C14.3617 17.0462 14.165 16.5988 14.165 16Z" fill="#000000" class="bmwfcol"/><path d="M5.45265 21.9051H4.24596L6.488 27.8998H7.64102L9.88306 21.9051H8.68399L7.06491 26.2636L5.45265 21.9051Z" fill="#000000" class="bmwfcol"/><path d="M11.5627 21.9051H10.2383V27.8998H11.3432V24.0246L12.5637 26.7868H13.5143L14.7348 24.0246V27.8998H15.8397V21.9051H14.5227L13.0427 25.247L11.5627 21.9051Z" fill="#000000" class="bmwfcol"/><path d="M18.5121 21.9051H19.7248L21.9669 27.8998H20.7604L20.2781 26.6013H17.9444L17.4621 27.8998H16.286L18.5121 21.9051ZM18.33 25.5186H19.8857L19.1106 23.4101L18.33 25.5186Z" fill="#000000" class="bmwfcol"/><path d="M23.597 21.9051H22.2502L24.1907 24.8635L22.1321 27.8998H23.4691L24.979 25.6557L26.4681 27.8998H27.825L25.7694 24.8203L27.6969 21.9051H26.371L24.9806 24.0251L23.597 21.9051Z" fill="#000000" class="bmwfcol"/><title>vmax_lt_48</title></svg>