<svg width="48" height="48" viewBox="0 0 32 32" xmlns="http://www.w3.org/2000/svg"><path fill-rule="evenodd" clip-rule="evenodd" d="M23.665 4V7.335H26.335V4H27.665V7.335H28.665V8C28.665 10.031 28.3795 11.4546 27.7406 12.3783C27.2012 13.1582 26.4675 13.5074 25.665 13.6208V23C25.665 23.28 25.649 23.5536 25.6177 23.8199L24.335 21.5982V13.6208C23.5324 13.5074 22.7987 13.1582 22.2593 12.3783C21.6204 11.4546 21.335 10.031 21.335 8V7.335H22.335V4H23.665ZM27.323 8.665H22.6769C22.7353 10.2178 23.0019 11.1139 23.3531 11.6217C23.705 12.1305 24.2057 12.335 25 12.335C25.7942 12.335 26.2949 12.1305 26.6468 11.6217C26.998 11.1139 27.2646 10.2178 27.323 8.665Z" fill="#000000" class="bmwfcol"/><path d="M13.1743 21.6457C12.7334 21.6551 12.2333 21.661 11.665 21.6635V23C11.665 23.3826 11.7009 23.7429 11.7691 24.0795L10.8799 25.6197C10.5225 24.8469 10.335 23.9614 10.335 23V21.6635C8.43385 21.6551 7.29569 21.6085 6.5841 21.522C6.18755 21.4738 5.88409 21.409 5.63999 21.3124C5.37186 21.2063 5.20178 21.0722 5.06473 20.9352C4.56966 20.4401 4.33496 19.7569 4.33496 19V6.99996C4.33496 6.24302 4.56966 5.55981 5.06473 5.06473C5.20178 4.92769 5.37186 4.79362 5.63999 4.68749C5.88409 4.59088 6.18755 4.52614 6.5841 4.47794C7.37506 4.38181 8.69303 4.33496 11 4.33496C13.3069 4.33496 14.6249 4.38181 15.4158 4.47794C15.8124 4.52614 16.1158 4.59088 16.3599 4.68749C16.6281 4.79362 16.7981 4.92769 16.9352 5.06473C17.4303 5.55981 17.665 6.24302 17.665 6.99996V15.2036C17.1555 15.3993 16.6907 15.736 16.335 16.2138V6.99996C16.335 6.5169 16.1897 6.20012 15.9947 6.00519C15.9593 5.96973 15.9375 5.95068 15.8705 5.92415C15.7794 5.88811 15.6044 5.84066 15.2554 5.79823C14.5551 5.71311 13.313 5.66496 11 5.66496C8.6869 5.66496 7.44487 5.71311 6.74457 5.79823C6.3955 5.84066 6.22052 5.88811 6.12946 5.92415C6.06244 5.95068 6.04064 5.96973 6.00519 6.00519C5.81026 6.20012 5.66496 6.5169 5.66496 6.99996V19C5.66496 19.483 5.81026 19.7998 6.00519 19.9947C6.04064 20.0302 6.06244 20.0492 6.12946 20.0758C6.22052 20.1118 6.3955 20.1593 6.74457 20.2017C7.44487 20.2868 8.6869 20.335 11 20.335C12.2859 20.335 13.2409 20.3201 13.9557 20.2922L13.1743 21.6457Z" fill="#000000" class="bmwfcol"/><path d="M9.33496 8.5V12.665L11.335 12.665V14.835H10.2255L12 17.7925L13.7746 14.835H12.665V11.335L10.665 11.335V8.5H9.33496Z" fill="#000000" class="bmwfcol"/><path d="M18.2723 21V24.5H19.5223V21H18.2723Z" fill="#000000" class="bmwfcol"/><path d="M18.2723 25.5V27H19.5223V25.5H18.2723Z" fill="#000000" class="bmwfcol"/><path fill-rule="evenodd" clip-rule="evenodd" d="M17.2887 17.1892C17.9463 16.0502 19.5903 16.0502 20.2479 17.1892L25.9712 27.1022C26.6288 28.2412 25.8068 29.665 24.4916 29.665H13.045C11.7298 29.665 10.9078 28.2412 11.5654 27.1022L17.2887 17.1892ZM19.0961 17.8542C18.9504 17.6019 18.5862 17.6019 18.4405 17.8542L12.7172 27.7672C12.5716 28.0196 12.7537 28.335 13.045 28.335H24.4916C24.783 28.335 24.965 28.0196 24.8194 27.7672L19.0961 17.8542Z" fill="#000000" class="bmwfcol"/><title>wallbox_warning_lt_48</title></svg>