<svg width="48" height="48" viewBox="0 0 32 32" xmlns="http://www.w3.org/2000/svg"><path d="M15.8476 3.34814C15.315 3.33936 14.7034 3.335 14 3.335C11.693 3.335 10.3751 3.38185 9.5841 3.47798C9.18755 3.52618 8.88409 3.59092 8.63999 3.68753C8.37186 3.79366 8.20178 3.92773 8.06473 4.06477C7.56966 4.55984 7.33496 5.24306 7.33496 6V18C7.33496 18.7569 7.56966 19.4402 8.06473 19.9352C8.20178 20.0723 8.37186 20.2063 8.63999 20.3125C8.88409 20.4091 9.18755 20.4738 9.5841 20.522C10.2957 20.6085 11.4339 20.6551 13.335 20.6636L13.335 22.7742C13.335 23.5841 13.0596 24.2105 12.6209 24.635C12.261 24.9833 11.756 25.2296 11.1169 25.3082C10.9995 24.5161 10.6495 23.7928 9.87825 23.2593C8.95452 22.6204 7.53099 22.335 5.49996 22.335H4.83496L4.83496 23.335H1.5V24.665L4.83496 24.665V27.335H1.5V28.665L4.83496 28.665L4.83496 29.665H5.49996C7.53099 29.665 8.95452 29.3796 9.87825 28.7407C10.6647 28.1967 11.0132 27.4552 11.1236 26.6447C12.0792 26.5584 12.918 26.1983 13.5458 25.5908C14.2738 24.8862 14.665 23.8997 14.665 22.7742L14.665 20.6636C16.5661 20.6551 17.7042 20.6085 18.4158 20.522C18.4444 20.5185 18.4724 20.515 18.5 20.5113V19.1669C18.4298 19.1787 18.3488 19.1904 18.2554 19.2017C17.5551 19.2868 16.313 19.335 14 19.335C11.6869 19.335 10.4449 19.2868 9.74457 19.2017C9.3955 19.1593 9.22052 19.1119 9.12946 19.0758C9.06244 19.0493 9.04064 19.0302 9.00519 18.9948C8.81026 18.7998 8.66496 18.4831 8.66496 18V6C8.66496 5.51694 8.81026 5.20015 9.00519 5.00523C9.04064 4.96977 9.06244 4.95071 9.12946 4.92419C9.22052 4.88815 9.3955 4.84069 9.74457 4.79827C10.4449 4.71315 11.6869 4.665 14 4.665C14.3579 4.665 14.6902 4.66615 14.9989 4.66842L15.8476 3.34814ZM9.12167 24.3532C9.63045 24.7051 9.83496 25.2057 9.83496 26C9.83496 26.7943 9.63045 27.2949 9.12167 27.6468C8.61391 27.998 7.71779 28.2646 6.16496 28.323V23.677C7.71779 23.7354 8.61391 24.002 9.12167 24.3532Z" fill="#000000" class="bmwfcol"/><path d="M25.2104 13.3021V11.6976C25.2104 11.1328 25.0193 10.6105 24.6365 10.2277C24.2537 9.84495 23.7314 9.65379 23.1666 9.65379C22.599 9.65379 22.0823 9.84662 21.6941 10.2179C21.3088 10.5865 21.0929 11.0898 21.0448 11.6396C20.9102 13.178 20.7334 15.1969 20.5902 16.8312L20.3273 19.8321L21.5781 24.5006H22.955L21.6727 19.7145L21.9151 16.9473C22.0583 15.313 22.2351 13.294 22.3697 11.7555C22.3939 11.4793 22.494 11.2932 22.6135 11.179C22.7302 11.0673 22.907 10.9838 23.1666 10.9838C23.4292 10.9838 23.5962 11.0684 23.696 11.1682C23.7958 11.268 23.8804 11.4351 23.8804 11.6976V18.1976H25.2104V15.9621L26.6884 13.4022L28.0146 14.7284C28.7526 15.4664 28.8851 15.6397 28.9164 15.9492C28.9355 16.1384 28.9125 16.4127 28.8112 16.8887C28.7107 17.3602 28.5478 17.9685 28.3214 18.8133L27.0319 23.6252V24.5006H28.3619V23.8003L29.6149 19.1244C29.8332 18.3099 30.0041 17.6724 30.112 17.1657C30.2204 16.6567 30.2802 16.2171 30.2397 15.8157C30.1558 14.9852 29.6475 14.4784 29.0456 13.8784L28.9551 13.788L27.3793 12.2122L27.3702 12.2213L28.2691 10.6644C28.4596 10.3343 28.5462 9.94527 28.4415 9.55461C28.3369 9.16396 28.0674 8.87033 27.7373 8.67974L18.8671 3.55853C18.537 3.36794 18.1479 3.28138 17.7573 3.38605C17.3666 3.49073 17.073 3.76021 16.8824 4.09032L14.9138 7.5H16.4496L18.0342 4.75532C18.0615 4.70804 18.0843 4.68535 18.0952 4.67624C18.098 4.67393 18.1017 4.67135 18.1017 4.67135C18.1017 4.67135 18.1061 4.67175 18.1097 4.67236C18.1237 4.67478 18.1548 4.68304 18.2021 4.71034L27.0723 9.83155C27.1195 9.85885 27.1422 9.88161 27.1513 9.89257L27.1539 9.89579L27.1562 9.89901C27.1562 9.89901 27.1558 9.90348 27.1552 9.90702C27.1528 9.92108 27.1445 9.95213 27.1172 9.99941L25.2104 13.3021Z" fill="#000000" class="bmwfcol"/><path d="M18.7164 7.60502L17.5609 8.27218C18.0602 9.33909 18.3349 10.592 18.3349 12.0006C18.3349 13.4092 18.0602 14.6622 17.5609 15.7291L18.7164 16.3963C19.3357 15.1166 19.6649 13.6312 19.6649 12.0006C19.6649 10.37 19.3357 8.88465 18.7164 7.60502Z" fill="#000000" class="bmwfcol"/><path d="M16.0662 14.8661C16.4585 14.0227 16.6649 13.0542 16.6649 12.0006C16.6649 10.9471 16.4585 9.97857 16.0662 9.13513L14.9085 9.80354C15.1831 10.4353 15.3349 11.1719 15.3349 12.0006C15.3349 12.8294 15.1831 13.566 14.9085 14.1977L16.0662 14.8661Z" fill="#000000" class="bmwfcol"/><path d="M13.6649 12.0006C13.6649 12.4791 13.5794 12.9298 13.4125 13.334L12.243 12.6588C12.3021 12.4647 12.3349 12.2453 12.3349 12.0006C12.3349 11.756 12.3021 11.5366 12.243 11.3424L13.4125 10.6672C13.5794 11.0714 13.6649 11.5222 13.6649 12.0006Z" fill="#000000" class="bmwfcol"/><title>wallbox_and_card_lt_48</title></svg>