<svg width="48" height="48" viewBox="0 0 32 32" xmlns="http://www.w3.org/2000/svg"><path fill-rule="evenodd" clip-rule="evenodd" d="M23.665 4V7.335H26.335V4H27.665V7.335H28.665V8C28.665 10.031 28.3795 11.4546 27.7406 12.3783C27.2012 13.1582 26.4675 13.5074 25.665 13.6208V18.5737C25.2878 18.007 24.8403 17.4911 24.335 17.0385V13.6208C23.5324 13.5074 22.7987 13.1582 22.2593 12.3783C21.6204 11.4546 21.335 10.031 21.335 8V7.335H22.335V4H23.665ZM22.6769 8.665C22.7353 10.2178 23.0019 11.1139 23.3531 11.6217C23.705 12.1305 24.2057 12.335 25 12.335C25.7942 12.335 26.2949 12.1305 26.6468 11.6217C26.998 11.1139 27.2646 10.2178 27.323 8.665H22.6769Z" fill="#000000" class="bmwfcol"/><path d="M17.665 15.1109V6.99996C17.665 6.24302 17.4303 5.55981 16.9352 5.06473C16.7981 4.92769 16.6281 4.79362 16.3599 4.68749C16.1158 4.59088 15.8124 4.52614 15.4158 4.47794C14.6249 4.38181 13.3069 4.33496 11 4.33496C8.69303 4.33496 7.37506 4.38181 6.5841 4.47794C6.18755 4.52614 5.88409 4.59088 5.63999 4.68749C5.37186 4.79362 5.20178 4.92769 5.06473 5.06473C4.56966 5.55981 4.33496 6.24302 4.33496 6.99996V19C4.33496 19.7569 4.56966 20.4401 5.06473 20.9352C5.20178 21.0722 5.37186 21.2063 5.63999 21.3124C5.88409 21.409 6.18755 21.4738 6.5841 21.522C7.29569 21.6085 8.43385 21.6551 10.335 21.6635H11.1111C11.1881 21.2061 11.3038 20.7619 11.4549 20.3343C11.308 20.3347 11.1564 20.335 11 20.335C8.6869 20.335 7.44487 20.2868 6.74457 20.2017C6.3955 20.1593 6.22052 20.1118 6.12946 20.0758C6.06244 20.0492 6.04064 20.0302 6.00519 19.9947C5.81026 19.7998 5.66496 19.483 5.66496 19V6.99996C5.66496 6.5169 5.81026 6.20012 6.00519 6.00519C6.04064 5.96973 6.06244 5.95068 6.12946 5.92415C6.22052 5.88811 6.3955 5.84066 6.74457 5.79823C7.44487 5.71311 8.6869 5.66496 11 5.66496C13.313 5.66496 14.5551 5.71311 15.2554 5.79823C15.6044 5.84066 15.7794 5.88811 15.8705 5.92415C15.9375 5.95068 15.9593 5.96973 15.9947 6.00519C16.1897 6.20012 16.335 6.5169 16.335 6.99996V15.4546C16.7628 15.3035 17.2073 15.1878 17.665 15.1109Z" fill="#000000" class="bmwfcol"/><path d="M9.33496 12.665L11.335 12.665V14.835H10.2255L12 17.7925L13.7746 14.835H12.665V11.335L10.665 11.335V8.5H9.33496V12.665Z" fill="#000000" class="bmwfcol"/><path d="M16.835 26H18.165V20H16.835V26Z" fill="#000000" class="bmwfcol"/><path d="M21.165 26H19.835V20H21.165V26Z" fill="#000000" class="bmwfcol"/><path fill-rule="evenodd" clip-rule="evenodd" d="M19 16.335C15.319 16.335 12.335 19.319 12.335 23C12.335 26.6809 15.319 29.665 19 29.665C22.6809 29.665 25.665 26.6809 25.665 23C25.665 19.319 22.6809 16.335 19 16.335ZM13.665 23C13.665 20.0535 16.0535 17.665 19 17.665C21.9464 17.665 24.335 20.0535 24.335 23C24.335 25.9464 21.9464 28.335 19 28.335C16.0535 28.335 13.665 25.9464 13.665 23Z" fill="#000000" class="bmwfcol"/><title>wallbox_pause_lt_48</title></svg>