<svg width="48" height="48" viewBox="0 0 32 32" xmlns="http://www.w3.org/2000/svg"><path d="M16.0001 5.57001L19.957 12.4234H12.0433L16.0001 5.57001ZM16.0001 8.23001L14.347 11.0934H17.6533L16.0001 8.23001Z" fill="#000000" class="bmwfcol"/><path d="M14.2117 2.76748C15.0065 1.39082 16.9936 1.39082 17.7884 2.76749L23.1578 12.0675C23.9526 13.4442 22.9591 15.165 21.3694 15.165H10.6307C9.04106 15.165 8.04754 13.4442 8.84236 12.0675L14.2117 2.76748ZM16.6366 3.43249C16.3537 2.94248 15.6464 2.94249 15.3635 3.43248L9.99417 12.7325C9.71127 13.2225 10.0649 13.835 10.6307 13.835H21.3694C21.9352 13.835 22.2888 13.2225 22.0059 12.7325L16.6366 3.43249Z" fill="#000000" class="bmwfcol"/><path d="M29.4704 16.5297C29.1821 16.2414 28.7919 15.9207 28.2502 15.7166C27.7038 15.5108 27.0498 15.441 26.2581 15.5825C24.8326 15.8372 22.9341 16.7816 20.2868 18.9045C20.2579 18.8702 20.2275 18.8369 20.1953 18.8047C19.8787 18.4883 19.4511 18.335 19 18.335L14.0878 18.335L10.3558 17.335L10.2055 17.335C9.6195 17.3345 9.13111 17.3342 8.56144 17.6828C8.29789 17.8441 8.03096 18.0693 7.72213 18.3578C7.41277 18.6468 7.03122 19.0283 6.53908 19.5205L2.05957 24L7.72457 29.665H9.27547L11.2755 27.665H15.0196C16.003 27.665 16.7675 27.665 17.3788 27.6328C17.996 27.6003 18.5023 27.5336 18.9604 27.3809C19.8611 27.0807 20.4671 26.4743 21.3805 25.5603L29.9408 16.9999L29.4704 16.5297ZM19.255 19.7453C19.2885 19.7788 19.3352 19.8512 19.3352 19.9998L19.3351 20.7211C18.4746 21.5508 17.8598 21.9291 17.2898 22.1191C16.6607 22.3288 16.0238 22.335 15.0003 22.335H11V23.665L15.0598 23.665C16.0119 23.6651 16.8574 23.6652 17.7105 23.3809C18.5983 23.0849 19.4344 22.5061 20.4702 21.4702L20.665 21.2755L20.6652 20.3116C23.5039 17.9648 25.3248 17.1003 26.4921 16.8917C27.0753 16.7875 27.4838 16.8492 27.7813 16.9612C27.858 16.9901 27.9304 17.0235 27.9991 17.0607L20.53 24.5298C19.4944 25.5654 19.11 25.9291 18.5399 26.1191C18.2479 26.2164 17.8792 26.2747 17.3089 26.3047C16.7367 26.3348 16.0071 26.335 15 26.335H10.7246L8.72457 28.335H8.27547L3.94047 24L7.47025 20.4702C7.97361 19.9669 8.33922 19.6014 8.63005 19.3297C8.92335 19.0557 9.11069 18.9059 9.25566 18.8172C9.47236 18.6846 9.60188 18.6665 10.1811 18.6651L13.9127 19.665L19 19.665C19.1489 19.665 19.2214 19.7117 19.255 19.7453Z" fill="#000000" class="bmwfcol"/><title>warning_triangle_on_hand_lt_48</title></svg>