<svg width="48" height="48" viewBox="0 0 32 32" xmlns="http://www.w3.org/2000/svg"><path d="M17.1561 5.83344C16.6423 4.94344 15.3577 4.94344 14.8438 5.83344L3.87416 24.8334C3.36032 25.7234 4.00262 26.8359 5.0303 26.8359H26.9696C27.9973 26.8359 28.6396 25.7234 28.1258 24.8334L17.1561 5.83344ZM13.692 5.16844C14.7178 3.39177 17.2822 3.39177 18.3079 5.16844L29.2776 24.1684C30.3034 25.9451 29.0212 28.1659 26.9696 28.1659H5.0303C2.97879 28.1659 1.69659 25.9451 2.72235 24.1684L13.692 5.16844Z" fill="#000000" class="bmwfcol"/><path d="M15.335 20V12H16.665V20H15.335ZM15.335 24V22H16.665V24H15.335Z" fill="#000000" class="bmwfcol"/><title>warning-sign_lt_48</title></svg>