<svg width="48" height="48" viewBox="0 0 32 32" xmlns="http://www.w3.org/2000/svg"><path d="M26.5846 14.5005C27.3677 13.8175 27.9749 13.124 28.4355 12.4054C29.3755 10.9388 29.6659 9.42766 29.6659 7.81863V2.33545H16.3359V7.81863C16.3359 8.87269 16.4606 9.88473 16.8108 10.8698C17.3879 10.8912 17.8688 10.9251 18.2926 10.9783C17.8307 9.99948 17.6659 8.97169 17.6659 7.81863V3.66545H28.3359V7.81863C28.3359 9.25324 28.0809 10.4939 27.3158 11.6877C26.7265 12.6071 25.8127 13.533 24.4095 14.5005H26.5846Z" fill="#000000" class="bmwfcol"/><path d="M26.4697 7.47073L21.9995 11.941L19.5293 9.47073L20.4697 8.53027L21.9995 10.06L25.5293 6.53027L26.4697 7.47073Z" fill="#000000" class="bmwfcol"/><path d="M13.156 20.0854H10.2235L9.33398 20.975V23.6938L10.5861 25.6654H13.5244L13.999 25.1909L14.4735 25.6654H17.4568L18.664 23.6873L18.664 20.975L17.7744 20.0854H14.842L13.999 20.507L13.156 20.0854ZM10.664 21.5259L10.7744 21.4154H12.842L13.3359 21.6624V23.973L12.9735 24.3354H11.317L10.664 23.3071V21.5259ZM14.6659 23.977V21.6605L15.156 21.4154H17.2235L17.334 21.5259L17.334 23.3136L16.7103 24.3354H15.0244L14.6659 23.977Z" fill="#000000" class="bmwfcol"/><path d="M3.20468 19.1017C3.70983 18.4855 4.3116 17.9316 4.89734 17.3912C4.73123 17.3003 4.52032 17.2413 4.19038 17.2067C3.69664 17.1549 3.03951 17.1656 2 17.1656V15.8356C2.98383 15.8356 3.74528 15.8227 4.32919 15.8839C4.76829 15.93 5.15252 16.0213 5.50539 16.208C5.69515 15.8487 5.91509 15.4582 6.15432 15.0768C6.65683 14.2758 7.28447 13.3305 8.18278 12.9361C9.34058 12.428 10.1504 12.3354 14.001 12.3354C17.8513 12.3354 18.6624 12.4279 19.8193 12.9362C20.7171 13.3321 21.3446 14.2762 21.8475 15.0776C22.0864 15.4583 22.3061 15.8481 22.4957 16.2069C22.848 16.0209 23.2316 15.9299 23.6698 15.8839C24.2537 15.8227 25.0154 15.8356 25.9992 15.8356V17.1656C25.2698 17.1656 24.535 17.1305 23.8086 17.2067C23.4797 17.2412 23.2691 17.2999 23.1035 17.3902C23.729 17.966 24.3392 18.5431 24.7972 19.1017C25.2574 19.663 25.6659 20.3241 25.6659 21.0433V29.6655H20.3359V28.4632C16.0477 28.7462 11.9542 28.7462 7.66594 28.4632V29.6655H2.33594V21.0433C2.33594 20.3241 2.74443 19.663 3.20468 19.1017ZM8.71732 14.154C8.08658 14.431 7.62836 15.2299 7.28098 15.7836C7.03943 16.1687 6.81776 16.5667 6.63067 16.926C6.87739 16.9023 7.14808 16.8848 7.44494 16.8716C8.93623 16.8053 10.4318 16.8326 11.924 16.8326C13.3074 16.8354 14.6908 16.8354 16.0742 16.8326C17.5662 16.8305 19.0621 16.8052 20.5533 16.8716C20.8517 16.8849 21.1235 16.9025 21.3712 16.9264C21.1841 16.5673 20.9625 16.1694 20.7209 15.7846C20.3729 15.2298 19.9149 14.4326 19.284 14.1537C18.425 13.7764 17.8999 13.6654 14.001 13.6654C10.1018 13.6654 9.5778 13.7763 8.71732 14.154ZM21.9097 18.3495C21.5975 18.2783 21.1518 18.2296 20.4941 18.2003C19.4971 18.1559 18.1042 18.1587 16.1105 18.1626C14.704 18.1642 13.2975 18.1654 11.891 18.1626C10.4297 18.16 8.96445 18.1353 7.50407 18.2003C6.84603 18.2296 6.39987 18.2783 6.08731 18.3495C5.83079 18.408 5.69961 18.474 5.62553 18.5291C5.03411 19.0774 4.40841 19.6354 3.95891 20.3124C5.10316 20.5934 6.30106 20.737 8 20.8574V22.1907C6.23488 22.0679 4.9329 21.9188 3.66594 21.6099V28.3354H6.33594V27.0352L7.04929 27.0872C11.7727 27.4315 16.2292 27.4315 20.9526 27.0872L21.6659 27.0352V28.3354H24.3359V21.6108C23.0685 21.9198 21.7661 22.0689 20 22.1917V20.8584C21.7002 20.738 22.8986 20.5944 24.0435 20.3132C23.6022 19.6481 22.9893 19.0994 22.4088 18.5604C22.3438 18.5003 22.2165 18.4195 21.9097 18.3495Z" fill="#000000" class="bmwfcol"/><title>warranty_lt_48</title></svg>