<svg width="48" height="48" viewBox="0 0 32 32" xmlns="http://www.w3.org/2000/svg"><path d="M21.2207 7.25254C21.2049 7.34005 21.1876 7.42248 21.1689 7.49995H22.5276L22.5295 7.48946C22.6651 6.74011 22.6651 5.96091 22.6651 5.51425V4.33496H20.4967C20.3887 4.01174 20.2533 3.7061 20.0542 3.44272C19.7304 3.01431 19.2908 2.7603 18.721 2.60762C18.1764 2.46167 17.4743 2.39807 16.5728 2.36662C15.6656 2.33496 14.5022 2.33496 13.0135 2.33496H12.9866C11.4979 2.33496 10.3345 2.33496 9.42729 2.36662C8.5258 2.39807 7.82373 2.46167 7.27905 2.60762C6.70929 2.7603 6.26972 3.01431 5.94588 3.44271C5.64765 3.83725 5.4923 4.3266 5.35799 4.82785L5.22211 5.33496H4V6.66496H5.92597L6.83419 27.4666V29.665H14.0177C14.502 29.665 14.8916 29.665 15.206 29.6484C15.5264 29.6315 15.8139 29.596 16.0845 29.5058C16.3374 29.4215 16.551 29.2954 16.7525 29.1391C17.2533 29.4714 17.8541 29.665 18.5001 29.665C20.2481 29.665 21.6651 28.2479 21.6651 26.5C21.6651 25.0443 20.6823 23.8181 19.3441 23.4488L19.566 19H18.2344L18.0163 23.3717C16.498 23.6046 15.3351 24.9165 15.3351 26.5C15.3351 27.1152 15.5107 27.6895 15.8144 28.1754C15.7628 28.2063 15.7155 28.2269 15.6639 28.2441C15.5594 28.2789 15.4095 28.3059 15.1361 28.3202C14.8608 28.3347 14.5063 28.335 13.9992 28.335H8.16419V27.4375L7.25724 6.66496H17V5.33496H6.59902L6.64267 5.17208C6.77631 4.67332 6.8799 4.41268 7.00687 4.24471C7.10823 4.11062 7.26011 3.98962 7.6233 3.8923C8.01157 3.78826 8.58395 3.72685 9.47367 3.69581C10.3549 3.66506 11.4953 3.66496 13.0001 3.66496C14.5049 3.66496 15.6452 3.66506 16.5264 3.69581C17.4162 3.72685 17.9885 3.78826 18.3768 3.8923C18.74 3.98962 18.8918 4.11061 18.9932 4.24471C19.1201 4.41267 19.2237 4.67332 19.3574 5.17208L19.4894 5.66496H21.3349C21.3333 6.10958 21.3206 6.70073 21.2207 7.25254ZM16.6651 26.5C16.6651 25.4865 17.4866 24.665 18.5001 24.665C19.5135 24.665 20.3351 25.4865 20.3351 26.5C20.3351 27.5134 19.5135 28.335 18.5001 28.335C17.4866 28.335 16.6651 27.5134 16.6651 26.5Z" fill="#000000" class="bmwfcol"/><path d="M25.3281 16.8219L25.1589 16.8482C24.3907 16.968 23.3646 17.0991 22.4344 17.0991C21.671 17.0991 21.1111 16.9634 20.6836 16.714C20.2546 16.4638 19.9788 16.1107 19.7642 15.7133C19.4204 15.0998 19.2822 14.172 19.2822 13.0523C19.2822 11.8829 19.4203 10.8619 19.8472 10.1467L19.8477 10.146C20.0801 9.76032 20.3753 9.43493 20.8027 9.20893C21.2276 8.98418 21.7669 8.8664 22.4741 8.8664C22.921 8.8664 23.3536 8.939 23.7229 9.00884C24.1759 9.08942 24.608 9.18993 24.9197 9.27035L25.0697 9.30906V10.6744L24.8212 10.6123C24.4239 10.513 23.942 10.395 23.4811 10.3067C23.1498 10.2465 22.8403 10.1908 22.5437 10.1908C22.0904 10.1908 21.7682 10.2493 21.5273 10.3698C21.2929 10.487 21.1174 10.672 20.9737 10.9638L20.9732 10.9649C20.757 11.3972 20.6563 12.1513 20.6563 13.0424C20.6563 13.9423 20.7467 14.5895 20.9449 15.0038L20.9451 15.0042C21.072 15.2711 21.2482 15.4576 21.4932 15.5812C21.7433 15.7073 22.079 15.7747 22.5338 15.7747C23.0106 15.7747 23.5782 15.7167 23.9739 15.6689V12.5243H25.3281V16.8219Z" fill="#000000" class="bmwfcol"/><path d="M14.0687 16.9301H12.7144V9.03538H14.0687V12.2852L17.0916 9.03538H18.9101L15.2985 12.9192L19.2466 16.9301H17.3535L14.0687 13.5996V16.9301Z" fill="#000000" class="bmwfcol"/><title>waste_volume_lt_48</title></svg>