<svg width="48" height="48" viewBox="0 0 32 32" xmlns="http://www.w3.org/2000/svg"><path d="M17.1338 13.665L15.9742 18H17.3509L18.8663 12.335H15.2928L15.882 9H14.5314L13.7073 13.665H17.1338Z" fill="#000000" class="bmwfcol"/><path d="M11.5168 5.58359C12.0593 3.58117 13.7638 2.33496 16.0001 2.33496H16.6651V4.36037C17.1388 4.39663 17.6103 4.4717 18.0742 4.58561C19.8738 3.55332 21.9602 3.87736 23.5415 5.45867L24.0118 5.92889L22.5796 7.36102C22.889 7.7215 23.1694 8.1078 23.4169 8.51642C25.4194 9.05895 26.6656 10.7634 26.6656 12.9997V13.6647H24.6401C24.6038 14.1385 24.5286 14.6099 24.4147 15.0737C25.447 16.8733 25.1229 18.9597 23.5416 20.541L23.0715 21.0112L21.6391 19.5792C21.2784 19.8886 20.892 20.1688 20.4834 20.4163C19.9409 22.4188 18.2364 23.665 16.0001 23.665H15.3351V21.6396C14.8614 21.6033 14.3901 21.5282 13.9263 21.4143C12.1267 22.4466 10.0402 22.1226 8.45894 20.5413L7.98871 20.071L9.42095 18.6388C9.11165 18.2781 8.83157 17.8916 8.58418 17.4831C6.58177 16.9405 5.33557 15.236 5.33557 12.9997V12.3347H7.36094C7.39714 11.8611 7.47211 11.3897 7.586 10.9258C6.55371 9.12622 6.87775 7.03976 8.45906 5.45845L8.92936 4.98814L10.3613 6.42055C10.7219 6.11126 11.1082 5.83105 11.5168 5.58359ZM15.3351 3.71456C13.9419 3.93061 13.0193 4.83791 12.7486 6.14931L12.6872 6.44674L12.4222 6.59511C11.8308 6.92628 11.2896 7.33717 10.8135 7.81333L10.3431 8.28364L8.96428 6.9043C8.13201 8.04216 8.1212 9.33607 8.85706 10.4548L9.02395 10.7085L8.9415 11.0008C8.75749 11.653 8.66557 12.3262 8.66557 12.9997V13.6647H6.71517C6.93122 15.0579 7.83852 15.9805 9.14992 16.2512L9.44735 16.3126L9.59572 16.5776C9.92701 17.1693 10.3376 17.7106 10.8136 18.1866L11.2838 18.6568L9.90469 20.036C11.0426 20.8683 12.3365 20.8791 13.4552 20.1433L13.709 19.9764L14.0013 20.0588C14.6537 20.2429 15.3267 20.335 16.0001 20.335H16.6651V22.2854C18.0582 22.0693 18.9809 21.162 19.2516 19.8506L19.313 19.5532L19.578 19.4048C20.1694 19.0736 20.7105 18.6628 21.1867 18.1866L21.6569 17.7164L23.0363 19.0954C23.8687 17.9575 23.8795 16.6635 23.1436 15.5447L22.9767 15.291L23.0592 14.9987C23.2433 14.3462 23.3356 13.673 23.3356 12.9997V12.3347H25.286C25.0699 10.9416 24.1626 10.019 22.8512 9.74824L22.5538 9.68685L22.4054 9.42186C22.0744 8.83063 21.6632 8.28967 21.1869 7.81333L20.7166 7.34311L22.0958 5.96397C20.9579 5.13162 19.6639 5.12079 18.5452 5.85667L18.2915 6.02356L17.9992 5.94111C17.3468 5.75706 16.6735 5.66496 16.0001 5.66496H15.3351V3.71456Z" fill="#000000" class="bmwfcol"/><path d="M28 25.665C27.2924 25.665 26.9633 25.9772 26.4703 26.4702L26.4509 26.4896C25.9461 26.9945 25.276 27.665 24 27.665C22.724 27.665 22.0539 26.9945 21.5491 26.4896L21.5297 26.4702C21.0367 25.9772 20.7076 25.665 20 25.665C19.2924 25.665 18.9633 25.9772 18.4703 26.4702L18.4509 26.4896C17.9461 26.9945 17.276 27.665 16 27.665C14.724 27.665 14.0539 26.9945 13.5491 26.4896L13.5297 26.4702C13.0367 25.9772 12.7076 25.665 12 25.665C11.2924 25.665 10.9633 25.9772 10.4703 26.4702L10.4509 26.4896C9.94614 26.9945 9.27599 27.665 8 27.665C6.72401 27.665 6.05386 26.9945 5.54913 26.4896L5.52972 26.4702C5.03671 25.9772 4.70757 25.665 4 25.665V24.335C5.27592 24.335 5.94603 25.0054 6.45074 25.5103L6.47017 25.5297C6.96318 26.0227 7.29237 26.335 8 26.335C8.70763 26.335 9.03682 26.0227 9.52983 25.5297L9.54926 25.5103C10.054 25.0054 10.7241 24.335 12 24.335C13.2759 24.335 13.946 25.0054 14.4507 25.5103L14.4702 25.5297C14.9632 26.0227 15.2924 26.335 16 26.335C16.7076 26.335 17.0368 26.0227 17.5298 25.5297L17.5492 25.5103C18.054 25.0054 18.7241 24.335 20 24.335C21.2759 24.335 21.946 25.0054 22.4508 25.5103L22.4702 25.5297C22.9632 26.0227 23.2924 26.335 24 26.335C24.7076 26.335 25.0368 26.0227 25.5298 25.5297L25.5492 25.5103C26.054 25.0054 26.7241 24.335 28 24.335V25.665Z" fill="#000000" class="bmwfcol"/><title>water_wheel_electricity_lt_48</title></svg>