<svg width="48" height="48" viewBox="0 0 32 32" xmlns="http://www.w3.org/2000/svg"><path d="M24.6946 4.14804C25.0207 3.97192 25.4344 3.87915 25.976 3.87915C26.3215 3.87915 26.663 3.93402 26.9536 3.98618L26.9566 3.98671C27.2642 4.04673 27.4923 4.09986 27.6845 4.15368L27.8306 4.19458V5.31803L27.5797 5.25201C27.2996 5.17828 27.0672 5.12024 26.7621 5.06214L26.7603 5.06179C26.5016 5.01004 26.2662 4.96921 26.0279 4.96921C25.698 4.96921 25.4662 5.01404 25.295 5.10005C25.1294 5.18318 25.0038 5.31321 24.9009 5.51903C24.7458 5.82919 24.6771 6.39488 24.6771 7.04715C24.6771 7.66635 24.7449 8.17731 24.8809 8.46877C24.9763 8.67209 25.1015 8.80696 25.272 8.89517C25.448 8.98617 25.6887 9.03605 26.0279 9.03605C26.5142 9.03605 27.0708 8.91565 27.5881 8.80317L27.8306 8.75046V9.86519L27.6725 9.89907C27.153 10.0104 26.5855 10.1261 25.9537 10.1261C25.3771 10.1261 24.9416 10.0197 24.6057 9.81969C24.2682 9.61867 24.0506 9.33452 23.8905 9.01456C23.6536 8.54863 23.55 7.82009 23.55 7.05457C23.55 6.21948 23.6447 5.41434 23.9715 4.86703C24.1442 4.57784 24.3665 4.3253 24.6946 4.14804Z" fill="#000000" class="bmwfcol"/><path d="M16.4902 4.00529H17.6258L18.4791 8.11781L19.3965 4.85117H20.5081L21.4318 8.11831L22.2788 4.00529H23.4069L22.1745 9.99997H20.8732L19.9494 6.72509L19.0319 9.99997H17.7305L16.4902 4.00529Z" fill="#000000" class="bmwfcol"/><path d="M10.8477 5.87451C10.3852 5.87451 9.85434 5.96636 9.44631 6.35496C9.03355 6.74807 8.87266 7.32302 8.87266 7.99951C8.87266 8.676 9.03355 9.25095 9.44631 9.64406C9.85434 10.0327 10.3852 10.1245 10.8477 10.1245C11.3101 10.1245 11.841 10.0327 12.249 9.64406C12.6618 9.25095 12.8227 8.676 12.8227 7.99951C12.8227 7.32302 12.6618 6.74807 12.249 6.35496C11.841 5.96636 11.3101 5.87451 10.8477 5.87451ZM10.1227 7.99951C10.1227 7.49743 10.243 7.32238 10.3084 7.26013C10.3785 7.19337 10.5226 7.12451 10.8477 7.12451C11.1727 7.12451 11.3168 7.19337 11.3869 7.26013C11.4523 7.32238 11.5727 7.49743 11.5727 7.99951C11.5727 8.5016 11.4523 8.67664 11.3869 8.73889C11.3168 8.80565 11.1727 8.87451 10.8477 8.87451C10.5226 8.87451 10.3785 8.80565 10.3084 8.73889C10.243 8.67664 10.1227 8.5016 10.1227 7.99951Z" fill="#000000" class="bmwfcol"/><path d="M18.2954 26H16.9184L15.4889 20.665L10.5712 20.665L10.4169 20.5759C9.85307 20.2504 9.40737 19.9808 9.06317 19.7361C8.71961 19.4919 8.43956 19.2467 8.23645 18.9578C7.832 18.3824 7.83302 17.7565 7.83409 17.1015L7.83421 17V12.7673C7.83421 12.241 8.09061 11.7555 8.63865 11.4431C9.13169 11.1621 9.83252 11.0349 10.7492 11.0349C11.6659 11.0349 12.3667 11.1621 12.8598 11.4431C13.4078 11.7555 13.6642 12.241 13.6642 12.7673V19.335L16.5095 19.335L18.2954 26ZM9.16421 12.7673V17C9.16421 17.8081 9.18726 17.9977 9.3245 18.1929C9.40266 18.3041 9.54452 18.4465 9.83381 18.6521C10.0954 18.8381 10.4468 19.0548 10.9282 19.335L12.3342 19.335V12.7673L12.3342 12.7622C12.3345 12.7222 12.3348 12.6748 12.2011 12.5986C12.0067 12.4878 11.5825 12.3649 10.7492 12.3649C9.91589 12.3649 9.49172 12.4878 9.29726 12.5986C9.16362 12.6748 9.16392 12.7222 9.16418 12.7622L9.16421 12.7673Z" fill="#000000" class="bmwfcol"/><path d="M13.0328 22.1999C12.6958 24.3999 10.7951 26.0849 8.50094 26.0849C5.96871 26.0849 3.91594 24.0321 3.91594 21.4999C3.91594 19.745 4.90185 18.2204 6.35 17.4497V15.9881C4.14675 16.8486 2.58594 18.992 2.58594 21.4999C2.58594 24.7666 5.23417 27.4149 8.50094 27.4149C11.5308 27.4149 14.0287 25.1367 14.3749 22.1999H13.0328Z" fill="#000000" class="bmwfcol"/><title>wc_disabled_lt_48</title></svg>