<svg width="48" height="48" viewBox="0 0 32 32" xmlns="http://www.w3.org/2000/svg"><path d="M12.8639 9.0064C13.4441 8.30194 14.4753 8.03394 16.0029 8.03394C17.5297 8.03394 18.5646 8.3016 19.1449 9.01776C19.433 9.37327 19.5567 9.77887 19.6138 10.1619C19.6678 10.5246 19.6677 10.9161 19.6677 11.2708L19.6661 16.9064L20.6661 20.4063V21.6639H18.1661V29.9989H16.8361V20.3339L19.2622 20.3339L18.3361 17.0925L18.3377 11.2989C18.3377 10.9111 18.3364 10.6136 18.2983 10.3578C18.2618 10.1127 18.1983 9.96211 18.1116 9.85511C17.9424 9.64627 17.4773 9.36394 16.0029 9.36394C14.5291 9.36394 14.0602 9.64593 13.8905 9.85191C13.8048 9.95604 13.7426 10.1011 13.7067 10.3358C13.669 10.582 13.6676 10.8673 13.6677 11.2406L13.6659 17.0927L12.7398 20.3339L15.1659 20.3339V29.9989H13.8359V21.6639H11.3359V20.4063L12.336 16.9062L12.3377 11.2408C12.3377 11.2319 12.3377 11.2226 12.3377 11.2137C12.3376 10.8729 12.3375 10.4909 12.392 10.1348C12.4496 9.75775 12.5747 9.35749 12.8639 9.0064Z" fill="#000000" class="bmwfcol"/><path d="M16.0012 1.87549C15.4074 1.87549 14.7641 1.99413 14.2764 2.45862C13.7839 2.92762 13.5762 3.62757 13.5762 4.50049C13.5762 5.3734 13.7839 6.07336 14.2764 6.54236C14.7641 7.00685 15.4074 7.12549 16.0012 7.12549C16.5949 7.12549 17.2382 7.00685 17.726 6.54236C18.2184 6.07336 18.4262 5.3734 18.4262 4.50049C18.4262 3.62757 18.2184 2.92762 17.726 2.45862C17.2382 1.99413 16.5949 1.87549 16.0012 1.87549ZM14.8262 4.50049C14.8262 3.80198 14.9934 3.50193 15.1385 3.36379C15.2882 3.22113 15.5449 3.12549 16.0012 3.12549C16.4574 3.12549 16.7141 3.22113 16.8639 3.36379C17.0089 3.50193 17.1762 3.80198 17.1762 4.50049C17.1762 5.199 17.0089 5.49905 16.8639 5.63719C16.7141 5.77984 16.4574 5.87549 16.0012 5.87549C15.5449 5.87549 15.2882 5.77984 15.1385 5.63719C14.9934 5.49905 14.8262 5.199 14.8262 4.50049Z" fill="#000000" class="bmwfcol"/><title>wc_female_lt_48</title></svg>