<svg width="48" height="48" viewBox="0 0 32 32" xmlns="http://www.w3.org/2000/svg"><path d="M6.86389 9.0064C7.44405 8.30194 8.47527 8.03394 10.0029 8.03394C11.5297 8.03394 12.5646 8.3016 13.1449 9.01776C13.433 9.37327 13.5567 9.77887 13.6138 10.1619C13.6678 10.5246 13.6677 10.9161 13.6677 11.2708L13.6661 16.9064L14.6661 20.4063V21.6639H12.1661V29.9989H10.8361V20.3339L13.2622 20.3339L12.3361 17.0925L12.3377 11.2989C12.3377 10.9111 12.3364 10.6136 12.2983 10.3578C12.2618 10.1127 12.1983 9.9621 12.1116 9.85511C11.9424 9.64627 11.4773 9.36394 10.0029 9.36394C8.52913 9.36394 8.06018 9.64593 7.89054 9.85191C7.80478 9.95604 7.74259 10.1011 7.70669 10.3358C7.66904 10.582 7.66765 10.8673 7.66769 11.2406L7.66591 17.0927L6.73983 20.3339L9.16594 20.3339V29.9989H7.83594V21.6639H5.33594V20.4063L6.33597 16.9062L6.33769 11.2137C6.3376 10.8729 6.33751 10.4909 6.39198 10.1348C6.44964 9.75775 6.57475 9.35749 6.86389 9.0064Z" fill="#000000" class="bmwfcol"/><path d="M22.0011 8.03491C19.9657 8.03491 18.7087 8.40684 18.0075 9.18498C17.3332 9.93334 17.3348 10.9024 17.3358 11.5685L17.3359 11.6418L17.334 19.6649H19.3341V29.9999H20.6641V18.3349L18.6643 18.3349L18.6659 11.6416C18.6658 10.8666 18.6945 10.4095 18.9956 10.0753C19.295 9.74299 20.0381 9.36491 22.0011 9.36491C23.9648 9.36491 24.7046 9.74333 25.0034 10.0793C25.3069 10.4207 25.3359 10.8929 25.3359 11.6999L25.3345 18.3349L23.3343 18.3349V29.9999H24.6643V19.6649H26.6642L26.666 11.6222C26.667 10.9318 26.6684 9.9503 25.9973 9.19552C25.2957 8.4065 24.0356 8.03491 22.0011 8.03491Z" fill="#000000" class="bmwfcol"/><path d="M10.0012 1.87549C9.40744 1.87549 8.7641 1.99413 8.27639 2.45862C7.78394 2.92762 7.57617 3.62757 7.57617 4.50049C7.57617 5.3734 7.78394 6.07336 8.27639 6.54236C8.7641 7.00685 9.40744 7.12549 10.0012 7.12549C10.5949 7.12549 11.2382 7.00685 11.726 6.54236C12.2184 6.07336 12.4262 5.3734 12.4262 4.50049C12.4262 3.62757 12.2184 2.92762 11.726 2.45862C11.2382 1.99413 10.5949 1.87549 10.0012 1.87549ZM8.82617 4.50049C8.82617 3.80198 8.99341 3.50193 9.13846 3.36379C9.28824 3.22113 9.54491 3.12549 10.0012 3.12549C10.4574 3.12549 10.7141 3.22113 10.8639 3.36379C11.0089 3.50193 11.1762 3.80198 11.1762 4.50049C11.1762 5.199 11.0089 5.49905 10.8639 5.63719C10.7141 5.77984 10.4574 5.87549 10.0012 5.87549C9.54491 5.87549 9.28824 5.77984 9.13846 5.63719C8.99341 5.49905 8.82617 5.199 8.82617 4.50049Z" fill="#000000" class="bmwfcol"/><path d="M22.0012 1.87549C21.4074 1.87549 20.7641 1.99413 20.2764 2.45862C19.7839 2.92762 19.5762 3.62757 19.5762 4.50049C19.5762 5.3734 19.7839 6.07336 20.2764 6.54236C20.7641 7.00685 21.4074 7.12549 22.0012 7.12549C22.5949 7.12549 23.2382 7.00685 23.726 6.54236C24.2184 6.07336 24.4262 5.3734 24.4262 4.50049C24.4262 3.62757 24.2184 2.92762 23.726 2.45862C23.2382 1.99413 22.5949 1.87549 22.0012 1.87549ZM20.8262 4.50049C20.8262 3.80198 20.9934 3.50193 21.1385 3.36379C21.2882 3.22114 21.5449 3.12549 22.0012 3.12549C22.4574 3.12549 22.7141 3.22114 22.8639 3.36379C23.0089 3.50193 23.1762 3.80198 23.1762 4.50049C23.1762 5.199 23.0089 5.49905 22.8639 5.63719C22.7141 5.77984 22.4574 5.87549 22.0012 5.87549C21.5449 5.87549 21.2882 5.77984 21.1385 5.63719C20.9934 5.49905 20.8262 5.199 20.8262 4.50049Z" fill="#000000" class="bmwfcol"/><title>wc_lt_48</title></svg>