<svg width="48" height="48" viewBox="0 0 32 32" xmlns="http://www.w3.org/2000/svg"><path d="M16.0012 1.87549C15.4074 1.87549 14.7641 1.99413 14.2764 2.45862C13.7839 2.92762 13.5762 3.62757 13.5762 4.50049C13.5762 5.3734 13.7839 6.07336 14.2764 6.54236C14.7641 7.00685 15.4074 7.12549 16.0012 7.12549C16.5949 7.12549 17.2382 7.00685 17.726 6.54236C18.2184 6.07336 18.4262 5.3734 18.4262 4.50049C18.4262 3.62757 18.2184 2.92762 17.726 2.45862C17.2382 1.99413 16.5949 1.87549 16.0012 1.87549ZM14.8262 4.50049C14.8262 3.80198 14.9934 3.50193 15.1385 3.36379C15.2882 3.22114 15.5449 3.12549 16.0012 3.12549C16.4574 3.12549 16.7141 3.22114 16.8639 3.36379C17.0089 3.50193 17.1762 3.80198 17.1762 4.50049C17.1762 5.199 17.0089 5.49905 16.8639 5.63719C16.7141 5.77984 16.4574 5.87549 16.0012 5.87549C15.5449 5.87549 15.2882 5.77984 15.1385 5.63719C14.9934 5.49905 14.8262 5.199 14.8262 4.50049Z" fill="#000000" class="bmwfcol"/><path d="M16.0011 8.03491C13.9657 8.03491 12.7087 8.40684 12.0075 9.18498C11.3332 9.93334 11.3348 10.9024 11.3358 11.5685L11.3359 11.6418L11.334 19.6649H13.3341V29.9999H14.6641V18.3349L12.6643 18.3349L12.6659 11.6416C12.6658 10.8666 12.6945 10.4095 12.9956 10.0753C13.295 9.74299 14.0381 9.36491 16.0011 9.36491C17.9648 9.36491 18.7046 9.74333 19.0034 10.0793C19.3069 10.4207 19.3359 10.8929 19.3359 11.6999L19.3345 18.3349L17.3343 18.3349V29.9999H18.6643V19.6649H20.6642L20.666 11.6222C20.667 10.9318 20.6684 9.9503 19.9973 9.19552C19.2957 8.4065 18.0356 8.03491 16.0011 8.03491Z" fill="#000000" class="bmwfcol"/><title>wc_male_lt_48</title></svg>