<svg width="96" height="48" viewBox="0 0 64 32" xmlns="http://www.w3.org/2000/svg"><path d="M33.0029 8.03394C31.4753 8.03394 30.4441 8.30194 29.8639 9.0064C29.5747 9.35749 29.4496 9.75775 29.392 10.1348C29.3375 10.4909 29.3376 10.8729 29.3377 11.2137L29.336 16.9062L28.3359 20.4063V21.6639H30.8359V29.9989H32.1659V20.3339L29.7398 20.3339L30.6659 17.0927L30.6677 11.2406C30.6676 10.8673 30.669 10.582 30.7067 10.3358C30.7426 10.1011 30.8048 9.95604 30.8905 9.85191C31.0602 9.64593 31.5291 9.36394 33.0029 9.36394C34.4773 9.36394 34.9424 9.64627 35.1116 9.85511C35.1983 9.9621 35.2618 10.1127 35.2983 10.3578C35.3364 10.6136 35.3377 10.9111 35.3377 11.2989L35.3361 17.0925L36.2622 20.3339L33.8361 20.3339V29.9989H35.1661V21.6639H37.6661V20.4063L36.6661 16.9064L36.6677 11.2708C36.6677 10.9161 36.6678 10.5246 36.6138 10.1619C36.5567 9.77887 36.433 9.37327 36.1449 9.01776C35.5646 8.3016 34.5297 8.03394 33.0029 8.03394Z" fill="#000000" class="bmwfcol"/><path d="M40.0075 9.18498C40.7087 8.40684 41.9657 8.03491 44.0011 8.03491C46.0356 8.03491 47.2957 8.4065 47.9973 9.19552C48.6684 9.9503 48.667 10.9318 48.666 11.6222L48.6642 19.6649H46.6643V29.9999H45.3343V18.3349L47.3345 18.3349L47.3359 11.6999C47.3359 10.8929 47.3069 10.4207 47.0034 10.0793C46.7046 9.74333 45.9648 9.36491 44.0011 9.36491C42.0381 9.36491 41.295 9.74299 40.9956 10.0753C40.6945 10.4095 40.6658 10.8666 40.6659 11.6416L40.6643 18.3349L42.6641 18.3349V29.9999H41.3341V19.6649H39.334L39.3359 11.6418L39.3358 11.5685C39.3348 10.9024 39.3332 9.93334 40.0075 9.18498Z" fill="#000000" class="bmwfcol"/><path d="M51.9135 9.22927C52.5463 8.4153 53.6946 8.03491 55.5009 8.03491C57.3074 8.03491 58.4558 8.41536 59.0891 9.2289C59.67 9.97504 59.6687 10.9325 59.6678 11.62L59.666 19.6649H57.6661V29.9999H56.3361V18.3349L58.3363 18.3349L58.3377 11.6999C58.3377 10.8916 58.3117 10.3954 58.0397 10.0459C57.7972 9.73447 57.1946 9.36491 55.5009 9.36491C53.8071 9.36491 53.2054 9.73453 52.9636 10.0456C52.6921 10.3948 52.6667 10.8907 52.6675 11.6992L52.6659 17.0927L51.7398 20.3339L54.1659 20.3339V29.9989H52.8359V21.6639H50.3359V20.4063L51.336 16.9062L51.3375 11.7002L51.3374 11.6205C51.3357 10.9332 51.3334 9.97558 51.9135 9.22927Z" fill="#000000" class="bmwfcol"/><path d="M13.0009 29.3348C16.4996 29.3348 19.3359 26.4986 19.3359 22.9998H20.6659C20.6659 27.2331 17.2342 30.6648 13.0009 30.6648C8.76767 30.6648 5.33594 27.2331 5.33594 22.9998C5.33594 19.4588 7.73709 16.4786 11 15.5986V16.9873C8.48183 17.8249 6.66594 20.2003 6.66594 22.9998C6.66594 26.4985 9.50221 29.3348 13.0009 29.3348Z" fill="#000000" class="bmwfcol"/><path d="M27.0992 30H25.7223L23.4889 21.6649L15.8212 21.6649L15.6668 21.5758C14.9155 21.142 14.3292 20.787 13.8795 20.4674C13.4305 20.1481 13.0801 19.8384 12.8301 19.4827C12.3324 18.7747 12.3332 18.0075 12.3341 17.1151L12.3341 12.1999C12.3341 11.9013 12.3702 11.5755 12.5118 11.2665C12.6604 10.9424 12.9026 10.6856 13.2317 10.4975C13.8362 10.1521 14.7473 10.0349 15.9991 10.0349C17.251 10.0349 18.1621 10.1521 18.7666 10.4975C19.0957 10.6856 19.3379 10.9424 19.4865 11.2665C19.6281 11.5755 19.6641 11.9013 19.6641 12.1999V20.3349L24.5095 20.3349L27.0992 30ZM13.6641 12.1999V16.9999C13.6641 18.058 13.6872 18.3893 13.9182 18.7179C14.0432 18.8957 14.2554 19.1027 14.6502 19.3834C15.0168 19.644 15.5085 19.946 16.178 20.3349L18.3341 20.3349V12.1999C18.3341 11.9985 18.3077 11.8868 18.2774 11.8207C18.2541 11.7699 18.2151 11.7142 18.1067 11.6523C17.8362 11.4977 17.2473 11.3649 15.9991 11.3649C14.751 11.3649 14.1621 11.4977 13.8916 11.6523C13.7832 11.7142 13.7442 11.7699 13.7209 11.8207C13.6906 11.8868 13.6641 11.9985 13.6641 12.1999Z" fill="#000000" class="bmwfcol"/><path d="M16.0012 3.83545C15.403 3.83545 14.7473 3.95482 14.2488 4.42961C13.7452 4.9092 13.5362 5.62195 13.5362 6.50045C13.5362 7.37895 13.7452 8.0917 14.2488 8.57129C14.7473 9.04607 15.403 9.16545 16.0012 9.16545C16.5993 9.16545 17.255 9.04607 17.7535 8.57129C18.2571 8.0917 18.4662 7.37895 18.4662 6.50045C18.4662 5.62195 18.2571 4.9092 17.7535 4.42961C17.255 3.95482 16.5993 3.83545 16.0012 3.83545ZM14.8662 6.50045C14.8662 5.80752 15.0321 5.52027 15.166 5.39272C15.305 5.26036 15.5493 5.16545 16.0012 5.16545C16.453 5.16545 16.6973 5.26036 16.8363 5.39272C16.9702 5.52027 17.1362 5.80752 17.1362 6.50045C17.1362 7.19338 16.9702 7.48063 16.8363 7.60818C16.6973 7.74054 16.453 7.83545 16.0012 7.83545C15.5493 7.83545 15.305 7.74054 15.166 7.60818C15.0321 7.48063 14.8662 7.19338 14.8662 6.50045Z" fill="#000000" class="bmwfcol"/><path d="M33.0012 1.87549C32.4074 1.87549 31.7641 1.99413 31.2764 2.45862C30.7839 2.92762 30.5762 3.62757 30.5762 4.50049C30.5762 5.3734 30.7839 6.07336 31.2764 6.54236C31.7641 7.00685 32.4074 7.12549 33.0012 7.12549C33.5949 7.12549 34.2382 7.00685 34.726 6.54236C35.2184 6.07336 35.4262 5.3734 35.4262 4.50049C35.4262 3.62757 35.2184 2.92762 34.726 2.45862C34.2382 1.99413 33.5949 1.87549 33.0012 1.87549ZM31.8262 4.50049C31.8262 3.80198 31.9934 3.50193 32.1385 3.36379C32.2882 3.22114 32.5449 3.12549 33.0012 3.12549C33.4574 3.12549 33.7141 3.22114 33.8639 3.36379C34.0089 3.50193 34.1762 3.80198 34.1762 4.50049C34.1762 5.199 34.0089 5.49905 33.8639 5.63719C33.7141 5.77984 33.4574 5.87549 33.0012 5.87549C32.5449 5.87549 32.2882 5.77984 32.1385 5.63719C31.9934 5.49905 31.8262 5.199 31.8262 4.50049Z" fill="#000000" class="bmwfcol"/><path d="M44.0012 1.87549C43.4074 1.87549 42.7641 1.99413 42.2764 2.45862C41.7839 2.92762 41.5762 3.62757 41.5762 4.50049C41.5762 5.3734 41.7839 6.07336 42.2764 6.54236C42.7641 7.00685 43.4074 7.12549 44.0012 7.12549C44.5949 7.12549 45.2382 7.00685 45.726 6.54236C46.2184 6.07336 46.4262 5.3734 46.4262 4.50049C46.4262 3.62757 46.2184 2.92762 45.726 2.45862C45.2382 1.99413 44.5949 1.87549 44.0012 1.87549ZM42.8262 4.50049C42.8262 3.80198 42.9934 3.50193 43.1385 3.36379C43.2882 3.22114 43.5449 3.12549 44.0012 3.12549C44.4574 3.12549 44.7141 3.22114 44.8639 3.36379C45.0089 3.50193 45.1762 3.80198 45.1762 4.50049C45.1762 5.199 45.0089 5.49905 44.8639 5.63719C44.7141 5.77984 44.4574 5.87549 44.0012 5.87549C43.5449 5.87549 43.2882 5.77984 43.1385 5.63719C42.9934 5.49905 42.8262 5.199 42.8262 4.50049Z" fill="#000000" class="bmwfcol"/><path d="M55.4012 1.87549C54.8074 1.87549 54.1641 1.99413 53.6764 2.45862C53.1839 2.92762 52.9762 3.62757 52.9762 4.50049C52.9762 5.3734 53.1839 6.07336 53.6764 6.54236C54.1641 7.00685 54.8074 7.12549 55.4012 7.12549C55.9949 7.12549 56.6382 7.00685 57.1259 6.54236C57.6184 6.07336 57.8262 5.3734 57.8262 4.50049C57.8262 3.62757 57.6184 2.92762 57.1259 2.45862C56.6382 1.99413 55.9949 1.87549 55.4012 1.87549ZM54.2262 4.50049C54.2262 3.80198 54.3934 3.50193 54.5385 3.36379C54.6882 3.22114 54.9449 3.12549 55.4012 3.12549C55.8574 3.12549 56.1141 3.22114 56.2639 3.36379C56.4089 3.50193 56.5762 3.80198 56.5762 4.50049C56.5762 5.199 56.4089 5.49905 56.2639 5.63719C56.1141 5.77984 55.8574 5.87549 55.4012 5.87549C54.9449 5.87549 54.6882 5.77984 54.5385 5.63719C54.3934 5.49905 54.2262 5.199 54.2262 4.50049Z" fill="#000000" class="bmwfcol"/><title>wc_unisex_and_disabled_lt_48</title></svg>