<svg width="48" height="48" viewBox="0 0 32 32" xmlns="http://www.w3.org/2000/svg"><path d="M1.86389 9.0064C2.44405 8.30194 3.47527 8.03394 5.00286 8.03394C6.52971 8.03394 7.56458 8.3016 8.14493 9.01776C8.43302 9.37327 8.55675 9.77887 8.61378 10.1619C8.66778 10.5246 8.66773 10.9161 8.6677 11.2708L8.66614 16.9064L9.66611 20.4063V21.6639H7.16611V29.9989H5.83611V20.3339L8.26222 20.3339L7.33609 17.0925L7.33769 11.2989C7.33769 10.9111 7.33636 10.6136 7.29828 10.3578C7.2618 10.1127 7.19832 9.96211 7.11162 9.85511C6.94237 9.64627 6.47733 9.36394 5.00286 9.36394C3.52913 9.36394 3.06018 9.64593 2.89054 9.85191C2.80478 9.95604 2.74259 10.1011 2.70669 10.3358C2.66904 10.582 2.66765 10.8673 2.66769 11.2406L2.66591 17.0927L1.73983 20.3339L4.16594 20.3339V29.9989H2.83594V21.6639H0.335938V20.4063L1.33597 16.9062L1.33769 11.2408C1.33769 11.2319 1.33769 11.2226 1.33769 11.2137C1.3376 10.8729 1.33751 10.4909 1.39198 10.1348C1.44964 9.75775 1.57475 9.35749 1.86389 9.0064Z" fill="#000000" class="bmwfcol"/><path d="M12.0128 9.18498C12.714 8.40684 13.9711 8.03491 16.0064 8.03491C18.0409 8.03491 19.301 8.4065 20.0026 9.19552C20.6737 9.9503 20.6723 10.9318 20.6713 11.6222C20.6712 11.6485 20.6712 11.6744 20.6712 11.6999L20.6695 19.6649H18.6696V29.9999H17.3396V18.3349L19.3398 18.3349L19.3412 11.6999C19.3412 10.8929 19.3123 10.4207 19.0087 10.0793C18.7099 9.74333 17.9701 9.36491 16.0064 9.36491C14.0434 9.36491 13.3003 9.74299 13.0009 10.0753C12.6998 10.4095 12.6711 10.8666 12.6712 11.6416L12.6696 18.3349L14.6695 18.3349V29.9999H13.3395V19.6649H11.3393L11.3412 11.6418C11.3412 11.6179 11.3412 11.5933 11.3411 11.5685C11.3401 10.9024 11.3385 9.93334 12.0128 9.18498Z" fill="#000000" class="bmwfcol"/><path d="M23.9135 9.22932C24.5463 8.41535 25.6946 8.03496 27.5009 8.03496C29.3074 8.03496 30.4558 8.41541 31.0891 9.22894C31.67 9.97508 31.6687 10.9326 31.6678 11.62C31.6678 11.6471 31.6677 11.6738 31.6677 11.7L31.666 19.665L29.6661 19.665V30H28.3361V18.335H30.3363L30.3377 11.7C30.3377 10.8917 30.3117 10.3954 30.0397 10.046C29.7972 9.73451 29.1946 9.36496 27.5009 9.36496C25.8071 9.36496 25.2054 9.73457 24.9636 10.0456C24.6921 10.3948 24.6667 10.8907 24.6675 11.6992L24.6659 17.0927L23.7398 20.334H26.1659V29.999H24.8359V21.664L22.3359 21.664V20.4063L23.336 16.9062L23.3375 11.7002C23.3375 11.6741 23.3374 11.6475 23.3374 11.6205C23.3357 10.9332 23.3334 9.97563 23.9135 9.22932Z" fill="#000000" class="bmwfcol"/><path d="M16.0012 1.87549C15.4074 1.87549 14.7641 1.99413 14.2764 2.45862C13.7839 2.92762 13.5762 3.62757 13.5762 4.50049C13.5762 5.3734 13.7839 6.07336 14.2764 6.54236C14.7641 7.00685 15.4074 7.12549 16.0012 7.12549C16.5949 7.12549 17.2382 7.00685 17.726 6.54236C18.2184 6.07336 18.4262 5.3734 18.4262 4.50049C18.4262 3.62757 18.2184 2.92762 17.726 2.45862C17.2382 1.99413 16.5949 1.87549 16.0012 1.87549ZM14.8262 4.50049C14.8262 3.80198 14.9934 3.50193 15.1385 3.36379C15.2882 3.22113 15.5449 3.12549 16.0012 3.12549C16.4574 3.12549 16.7141 3.22113 16.8639 3.36379C17.0089 3.50193 17.1762 3.80198 17.1762 4.50049C17.1762 5.199 17.0089 5.49905 16.8639 5.63719C16.7141 5.77984 16.4574 5.87549 16.0012 5.87549C15.5449 5.87549 15.2882 5.77984 15.1385 5.63719C14.9934 5.49905 14.8262 5.199 14.8262 4.50049Z" fill="#000000" class="bmwfcol"/><path d="M5.00117 1.87549C4.40744 1.87549 3.7641 1.99413 3.27639 2.45862C2.78394 2.92762 2.57617 3.62757 2.57617 4.50049C2.57617 5.3734 2.78394 6.07336 3.27639 6.54236C3.7641 7.00685 4.40744 7.12549 5.00117 7.12549C5.59491 7.12549 6.23824 7.00685 6.72596 6.54236C7.21841 6.07336 7.42617 5.3734 7.42617 4.50049C7.42617 3.62757 7.21841 2.92762 6.72596 2.45862C6.23824 1.99413 5.59491 1.87549 5.00117 1.87549ZM3.82617 4.50049C3.82617 3.80198 3.99341 3.50193 4.13846 3.36379C4.28824 3.22114 4.54491 3.12549 5.00117 3.12549C5.45744 3.12549 5.7141 3.22114 5.86389 3.36379C6.00894 3.50193 6.17617 3.80198 6.17617 4.50049C6.17617 5.199 6.00894 5.49905 5.86389 5.63719C5.7141 5.77984 5.45744 5.87549 5.00117 5.87549C4.54491 5.87549 4.28824 5.77984 4.13846 5.63719C3.99341 5.49905 3.82617 5.199 3.82617 4.50049Z" fill="#000000" class="bmwfcol"/><path d="M27.4012 1.87549C26.8074 1.87549 26.1641 1.99413 25.6764 2.45862C25.1839 2.92762 24.9762 3.62757 24.9762 4.50049C24.9762 5.3734 25.1839 6.07336 25.6764 6.54236C26.1641 7.00685 26.8074 7.12549 27.4012 7.12549C27.9949 7.12549 28.6382 7.00685 29.126 6.54236C29.6184 6.07336 29.8262 5.3734 29.8262 4.50049C29.8262 3.62757 29.6184 2.92762 29.126 2.45862C28.6382 1.99413 27.9949 1.87549 27.4012 1.87549ZM26.2262 4.50049C26.2262 3.80198 26.3934 3.50193 26.5385 3.36379C26.6882 3.22114 26.9449 3.12549 27.4012 3.12549C27.8574 3.12549 28.1141 3.22114 28.2639 3.36379C28.4089 3.50193 28.5762 3.80198 28.5762 4.50049C28.5762 5.199 28.4089 5.49905 28.2639 5.63719C28.1141 5.77984 27.8574 5.87549 27.4012 5.87549C26.9449 5.87549 26.6882 5.77984 26.5385 5.63719C26.3934 5.49905 26.2262 5.199 26.2262 4.50049Z" fill="#000000" class="bmwfcol"/><title>wc_unisex_lt_48</title></svg>