<svg width="48" height="48" viewBox="0 0 32 32" xmlns="http://www.w3.org/2000/svg"><path d="M15.125 12C15.125 11.5168 15.5168 11.125 16 11.125C16.4832 11.125 16.875 11.5168 16.875 12C16.875 12.4832 16.4832 12.875 16 12.875C15.5168 12.875 15.125 12.4832 15.125 12Z" fill="#000000" class="bmwfcol"/><path d="M14.75 16C14.75 15.3096 15.3096 14.75 16 14.75C16.6904 14.75 17.25 15.3096 17.25 16C17.25 16.6904 16.6904 17.25 16 17.25C15.3096 17.25 14.75 16.6904 14.75 16Z" fill="#000000" class="bmwfcol"/><path d="M12.1953 13.8887C11.7121 13.8887 11.3203 14.2804 11.3203 14.7637C11.3203 15.2469 11.7121 15.6387 12.1953 15.6387C12.6786 15.6387 13.0703 15.2469 13.0703 14.7637C13.0703 14.2804 12.6786 13.8887 12.1953 13.8887Z" fill="#000000" class="bmwfcol"/><path d="M12.7734 19.2363C12.7734 18.7531 13.1652 18.3613 13.6484 18.3613C14.1317 18.3613 14.5234 18.7531 14.5234 19.2363C14.5234 19.7196 14.1317 20.1113 13.6484 20.1113C13.1652 20.1113 12.7734 19.7196 12.7734 19.2363Z" fill="#000000" class="bmwfcol"/><path d="M19.8047 15.6387C19.3214 15.6387 18.9297 15.2469 18.9297 14.7637C18.9297 14.2804 19.3214 13.8887 19.8047 13.8887C20.2879 13.8887 20.6797 14.2804 20.6797 14.7637C20.6797 15.2469 20.2879 15.6387 19.8047 15.6387Z" fill="#000000" class="bmwfcol"/><path d="M17.4766 19.2363C17.4766 19.7196 17.8683 20.1113 18.3516 20.1113C18.8348 20.1113 19.2266 19.7196 19.2266 19.2363C19.2266 18.7531 18.8348 18.3613 18.3516 18.3613C17.8683 18.3613 17.4766 18.7531 17.4766 19.2363Z" fill="#000000" class="bmwfcol"/><path d="M15.999 3.33496C20.1135 3.33496 23.7697 5.29765 26.0821 8.33518H28.5099L28.702 8.6672C29.9501 10.8249 30.6643 13.3302 30.6643 16.0002C30.6643 18.6702 29.9501 21.1755 28.702 23.3332L28.5099 23.6652H26.0818C23.7693 26.7025 20.1133 28.665 15.999 28.665C9.0043 28.665 3.33398 22.9946 3.33398 16C3.33398 9.00527 9.0043 3.33496 15.999 3.33496ZM4.66398 16C4.66398 22.2601 9.73884 27.335 15.999 27.335C19.4286 27.335 22.5025 25.8124 24.5819 23.4041C24.4275 23.3116 24.287 23.1978 24.1484 23.0731C23.979 22.9209 23.7812 22.7232 23.542 22.4842L21.9225 20.8648C20.5168 22.5746 18.3852 23.665 15.999 23.665C11.7657 23.665 8.33398 20.2332 8.33398 16C8.33398 11.7667 11.7657 8.33496 15.999 8.33496C18.3853 8.33496 20.517 9.42547 21.9228 11.1353L23.542 9.51606C23.7813 9.27708 23.9791 9.0794 24.1484 8.92717C24.2871 8.80249 24.4277 8.68861 24.5821 8.59609C22.5027 6.18767 19.4287 4.66496 15.999 4.66496C9.73884 4.66496 4.66398 9.73981 4.66398 16ZM23.664 16C23.664 17.3614 23.309 18.6399 22.6867 19.748L24.4693 21.5307C24.7242 21.7853 24.8975 21.9581 25.0376 22.0841C25.1764 22.2089 25.2497 22.257 25.2965 22.2804C25.377 22.3206 25.449 22.3352 25.9993 22.3352H27.7365C28.7556 20.4513 29.3343 18.2942 29.3343 16.0002C29.3343 13.7061 28.7556 11.5491 27.7365 9.66518H25.9993C25.4489 9.66517 25.377 9.67976 25.2965 9.71996C25.2498 9.74331 25.1765 9.79139 25.0377 9.91617C24.8975 10.0422 24.7242 10.215 24.4693 10.4697L22.6868 12.2522C23.3091 13.3602 23.664 14.6387 23.664 16ZM9.66398 16C9.66398 19.4987 12.5003 22.335 15.999 22.335C19.4977 22.335 22.334 19.4987 22.334 16C22.334 12.5012 19.4977 9.66496 15.999 9.66496C12.5003 9.66496 9.66398 12.5012 9.66398 16Z" fill="#000000" class="bmwfcol"/><title>wear-&amp;-tear_lt_48</title></svg>