<svg width="48" height="48" viewBox="0 0 32 32" xmlns="http://www.w3.org/2000/svg"><path d="M12.0202 4.02019C11.8117 4.22869 11.665 4.55108 11.665 4.99996C11.665 5.44884 11.8117 5.77123 12.0202 5.97973C12.2287 6.18824 12.5511 6.33496 13 6.33496C13.4469 6.33496 13.8801 6.47467 14.2027 6.79724C14.5252 7.11981 14.6649 7.55302 14.665 7.99996V8.99996C14.665 9.02083 14.665 9.04179 14.665 9.06282C14.6653 9.50868 14.6657 9.99043 14.5203 10.4187C14.3467 10.9302 13.9978 11.3042 13.4626 11.6195C12.9539 11.9193 12.2338 12.1917 11.2447 12.4998C10.3417 12.7811 9.17224 13.1046 7.66521 13.5099V27C7.66521 27.4142 7.81809 27.7039 8.12787 27.9176C8.47243 28.1554 9.06863 28.335 10.0002 28.335H21.9997C22.9313 28.335 23.5275 28.1554 23.872 27.9176C24.1818 27.7039 24.3347 27.4142 24.3347 27V13.5099C22.8277 13.1046 21.6582 12.7811 20.7552 12.4998C19.7661 12.1917 19.046 11.9193 18.5373 11.6195C18.0021 11.3042 17.6532 10.9302 17.4796 10.4187C17.3342 9.99043 17.3346 9.50868 17.3349 9.06282C17.3349 9.04179 17.3349 9.02083 17.3349 8.99996V7.99996C17.3349 7.55302 17.4746 7.11981 17.7972 6.79724C18.1198 6.47467 18.553 6.33496 18.9999 6.33496C19.4488 6.33496 19.7712 6.18824 19.9797 5.97973C20.1882 5.77123 20.3349 5.44884 20.3349 4.99996C20.3349 4.55108 20.1882 4.22869 19.9797 4.02019C19.7712 3.81169 19.4488 3.66496 18.9999 3.66496H13C12.5511 3.66496 12.2287 3.81169 12.0202 4.02019ZM11.0797 3.07973C11.5712 2.58824 12.2488 2.33496 13 2.33496H18.9999C19.7511 2.33496 20.4287 2.58824 20.9202 3.07973C21.4117 3.57123 21.6649 4.24884 21.6649 4.99996C21.6649 5.75108 21.4117 6.42869 20.9202 6.92019C20.4287 7.41168 19.7511 7.66496 18.9999 7.66496C18.8269 7.66496 18.7601 7.71526 18.7377 7.73769C18.7152 7.76012 18.6649 7.8269 18.6649 7.99996V8.99996C18.6649 9.53683 18.6725 9.79525 18.739 9.9912C18.7842 10.1242 18.8728 10.2735 19.2125 10.4737C19.5788 10.6895 20.1712 10.9248 21.1508 11.23C22.1202 11.532 23.4198 11.8881 25.1718 12.3576L25.6647 12.4896V27C25.6647 27.8257 25.3176 28.5361 24.6274 29.0123C23.9719 29.4646 23.0681 29.665 21.9997 29.665H10.0002C8.93176 29.665 8.02796 29.4646 7.37253 29.0123C6.68231 28.5361 6.33521 27.8257 6.33521 27V12.4896L6.82809 12.3576C8.58006 11.8881 9.87965 11.532 10.8491 11.23C11.8287 10.9248 12.4211 10.6895 12.7874 10.4737C13.1271 10.2735 13.2157 10.1242 13.2609 9.9912C13.3274 9.79525 13.335 9.53683 13.335 8.99996V7.99996C13.3349 7.8269 13.2847 7.76012 13.2622 7.73769C13.2398 7.71526 13.173 7.66496 13 7.66496C12.2488 7.66496 11.5712 7.41168 11.0797 6.92019C10.5882 6.42869 10.335 5.75108 10.335 4.99996C10.335 4.24884 10.5882 3.57123 11.0797 3.07973Z" fill="#000000" class="bmwfcol"/><title>weight_lt_48</title></svg>