<svg width="48" height="48" viewBox="0 0 32 32" xmlns="http://www.w3.org/2000/svg"><path d="M15.4069 10.1475H13.0995L12.335 10.912V13.0683L13.3489 14.665H15.7129L16 14.3779L16.287 14.665H18.6866L19.665 13.0619V10.912L18.9004 10.1475H16.593L16 10.444L15.4069 10.1475ZM13.665 12.6817V11.4775H15.093L15.335 11.5985V13.162L15.162 13.335H14.0798L13.665 12.6817ZM16.665 13.162V11.5985L16.9069 11.4775H18.335L18.335 12.6881L17.9402 13.335H16.8379L16.665 13.162Z" fill="#000000" class="bmwfcol"/><path d="M16 4.33496C14.555 4.33496 13.7262 4.35323 13.1605 4.41908C12.548 4.49039 12.228 4.62021 11.8195 4.79948C11.4687 4.95348 11.1658 5.23496 10.9224 5.5114C10.6696 5.79854 10.4328 6.13639 10.2242 6.4689C10.052 6.7434 9.89307 7.02383 9.75436 7.28448C9.45255 7.11401 9.12705 7.03509 8.76424 6.99702C8.384 6.95711 7.90671 6.95815 7.32601 6.95941C7.22085 6.95964 7.11203 6.95987 7 6.95987V8.28987C7.11881 8.28987 7.23061 8.28969 7.33605 8.28952L7.33753 8.28951H7.34027L7.34429 8.28951C7.93245 8.28855 8.32201 8.28791 8.62543 8.31975C8.82252 8.34044 8.95024 8.3722 9.04597 8.41518C8.66991 8.76717 8.30948 9.1225 8.0242 9.47046C7.67417 9.8974 7.33496 10.4319 7.33496 11.0321V17.665H11.665V16.7748C14.7066 16.9717 17.2933 16.9717 20.335 16.7748V17.665H24.665V11.0321C24.665 10.4319 24.3258 9.8974 23.9757 9.47046C23.6904 9.12249 23.33 8.76717 22.9539 8.41517C23.0496 8.37223 23.1773 8.34045 23.3744 8.31976C23.6779 8.28791 24.0675 8.28855 24.6557 8.28951L24.661 8.28952C24.7672 8.28969 24.8802 8.28987 25 8.28987V6.95987C24.8877 6.95987 24.7787 6.95964 24.6732 6.95941C24.0926 6.95815 23.6159 6.95711 23.2357 6.99702C22.8729 7.03509 22.5473 7.114 22.2454 7.28456C22.1067 7.02406 21.9479 6.74381 21.7757 6.46946C21.5671 6.13707 21.3304 5.79935 21.0776 5.5122C20.8342 5.2357 20.5308 4.95398 20.1806 4.79956C19.2782 4.40312 18.6394 4.33496 16 4.33496ZM13.3143 5.74016C13.7895 5.68484 14.5389 5.66496 16 5.66496C18.6721 5.66496 19.0358 5.74933 19.6451 6.017C19.7323 6.05557 19.8815 6.16629 20.0793 6.39099C20.2679 6.60531 20.4622 6.87843 20.6491 7.1764C20.7691 7.36749 20.8824 7.56307 20.9859 7.75146C20.9037 7.74619 20.8187 7.74157 20.7308 7.7375C19.9839 7.70289 18.9418 7.70507 17.4934 7.70811C17.0371 7.70906 16.5405 7.7101 16 7.7101C15.4597 7.7101 14.963 7.70906 14.5067 7.70811C13.0582 7.70507 12.0155 7.70289 11.2681 7.7375C11.1805 7.74155 11.0958 7.74615 11.0138 7.7514C11.1174 7.56278 11.2308 7.36696 11.3508 7.17568C11.5378 6.8776 11.732 6.60451 11.9206 6.39035C12.1185 6.16555 12.2675 6.05534 12.3541 6.0173C12.7024 5.86445 12.886 5.79003 13.3143 5.74016ZM21.9114 9.26179C22.3309 9.65055 22.6865 9.99571 22.9472 10.3137C22.967 10.3378 22.9858 10.3613 23.0037 10.3842C22.289 10.5406 21.5201 10.6331 20.5 10.7102V12.0439C21.6187 11.9618 22.4951 11.8602 23.335 11.673V16.335H21.665V15.3472L20.9516 15.3992C17.4171 15.6569 14.5828 15.6569 11.0483 15.3992L10.335 15.3472V16.335H8.66496V11.6728C9.50487 11.8601 10.3813 11.9616 11.5 12.0438V10.71C10.4799 10.6329 9.71099 10.5404 8.99631 10.384C9.0142 10.3612 9.03298 10.3378 9.05272 10.3137C9.31417 9.9948 9.67108 9.64857 10.0922 9.25844C10.1336 9.23487 10.2058 9.20405 10.3321 9.17409C10.5431 9.12405 10.8532 9.08803 11.3249 9.06618C12.04 9.03307 13.0393 9.03514 14.4749 9.0381H14.4761C14.9372 9.03905 15.4439 9.0401 16 9.0401C16.5554 9.0401 17.0617 9.03905 17.5222 9.0381L17.5234 9.0381H17.5248C18.9602 9.03514 19.9593 9.03308 20.674 9.06618C21.1454 9.08802 21.4551 9.12405 21.6658 9.17407C21.7981 9.20546 21.8711 9.23782 21.9114 9.26179Z" fill="#000000" class="bmwfcol"/><path d="M12.6119 19H11.0719L7.61523 24.9219H7.61896C7.43757 25.2439 7.33496 25.6025 7.33496 26C7.33496 27.3544 8.5265 28.2576 9.96646 28.7976C11.4686 29.3609 13.556 29.665 16 29.665C18.4439 29.665 20.5313 29.3609 22.0335 28.7976C23.4734 28.2576 24.665 27.3544 24.665 26C24.665 25.6025 24.5623 25.2439 24.381 24.9219H24.3843L20.9283 19H19.3884L21.7899 23.115C20.3092 22.6077 18.3145 22.335 16 22.335C13.6854 22.335 11.6906 22.6077 10.2099 23.115L12.6119 19ZM10.4335 24.4476C11.7313 23.9609 13.6439 23.665 16 23.665C18.356 23.665 20.2686 23.9609 21.5665 24.4476C22.9265 24.9576 23.335 25.5544 23.335 26C23.335 26.4455 22.9265 27.0423 21.5665 27.5523C20.2686 28.039 18.356 28.335 16 28.335C13.6439 28.335 11.7313 28.039 10.4335 27.5523C9.07343 27.0423 8.66496 26.4455 8.66496 26C8.66496 25.5544 9.07343 24.9576 10.4335 24.4476Z" fill="#000000" class="bmwfcol"/><title>welcome-light_lt_48</title></svg>