<svg width="48" height="48" viewBox="0 0 32 32" xmlns="http://www.w3.org/2000/svg"><path d="M16.0009 6.33496C10.6631 6.33496 6.33594 10.6621 6.33594 16C6.33594 21.3378 10.6631 25.665 16.0009 25.665C21.3388 25.665 25.6659 21.3378 25.6659 16C25.6659 10.6621 21.3388 6.33496 16.0009 6.33496ZM7.66594 16C7.66594 15.3336 7.74414 14.6855 7.89187 14.0643L12.8523 15.676C12.8415 15.7825 12.8359 15.8906 12.8359 16C12.8359 16.8119 13.1417 17.5525 13.6444 18.1128L10.5796 22.3311C8.79604 20.8025 7.66594 18.5332 7.66594 16ZM13.2631 14.4111L8.30261 12.7993C9.47656 9.97889 12.1553 7.942 15.3364 7.69107V12.9048C14.4519 13.0938 13.7043 13.6524 13.2631 14.4111ZM16.6664 12.905V7.69114C19.8472 7.9424 22.5256 9.97929 23.6994 12.7996L18.7389 14.4113C18.2979 13.6528 17.5506 13.0942 16.6664 12.905ZM19.1496 15.6763L24.1101 14.0646C24.2578 14.6857 24.3359 15.3337 24.3359 16C24.3359 18.5329 23.2061 20.802 21.4228 22.3307L18.358 18.1122C18.8604 17.552 19.1659 16.8117 19.1659 16C19.1659 15.8907 19.1604 15.7827 19.1496 15.6763ZM17.2825 18.8947L20.3475 23.1133C19.0819 23.8883 17.5936 24.335 16.0009 24.335C14.4085 24.335 12.9204 23.8884 11.655 23.1137L14.72 18.895C15.1116 19.0686 15.545 19.165 16.0009 19.165C16.4571 19.165 16.8907 19.0685 17.2825 18.8947ZM14.1659 16C14.1659 14.9865 14.9875 14.165 16.0009 14.165C17.0144 14.165 17.8359 14.9865 17.8359 16C17.8359 17.0134 17.0144 17.835 16.0009 17.835C14.9875 17.835 14.1659 17.0134 14.1659 16Z" fill="#000000" class="bmwfcol"/><path d="M16.0009 2.33496C8.45397 2.33496 2.33594 8.45299 2.33594 16C2.33594 23.5469 8.45397 29.665 16.0009 29.665C23.5479 29.665 29.6659 23.5469 29.6659 16C29.6659 8.45299 23.5479 2.33496 16.0009 2.33496ZM3.66594 16C3.66594 9.18753 9.18851 3.66496 16.0009 3.66496C22.8134 3.66496 28.3359 9.18753 28.3359 16C28.3359 22.8124 22.8134 28.335 16.0009 28.335C9.18851 28.335 3.66594 22.8124 3.66594 16Z" fill="#000000" class="bmwfcol"/><title>wheel_lt_48</title></svg>