<svg width="48" height="48" viewBox="0 0 32 32" xmlns="http://www.w3.org/2000/svg"><path d="M26.9231 30C27.771 27.8307 28.2364 25.4697 28.2364 23C28.2364 12.376 19.624 3.76355 9 3.76355C6.53033 3.76355 4.16935 4.22895 2 5.07684V6.51345C4.1503 5.5993 6.51609 5.09355 9 5.09355C18.8895 5.09355 26.9064 13.1105 26.9064 23C26.9064 25.4839 26.4007 27.8497 25.4865 30H26.9231Z" fill="#000000" class="bmwfcol"/><path d="M20.5716 30C21.8095 27.9581 22.5222 25.5622 22.5222 22.9999C22.5222 19.2236 20.9742 15.8088 18.4782 13.3555L17.6868 14.4448C18.8467 15.6225 19.769 17.035 20.3759 18.6045L12.7745 21.0744C12.1697 19.8911 11.0248 19.0298 9.665 18.8154V10.8256C11.3786 10.9177 12.9983 11.3637 14.4521 12.0917L15.2436 11.0023C13.3759 10.0284 11.2523 9.47778 9.00007 9.47778C6.4378 9.47778 4.04197 10.1904 2 11.4284V13.0163C3.81138 11.7439 5.98476 10.952 8.335 10.8256V18.8154C6.97517 19.0298 5.83033 19.8911 5.22549 21.0744L2 20.0263V21.4248L4.81478 22.3394C4.78107 22.5546 4.76357 22.7753 4.76357 23C4.76357 24.169 5.23708 25.2275 6.00278 25.994L3.09221 30H4.73618L7.07824 26.7765C7.65503 27.0706 8.30815 27.2364 9 27.2364C9.69185 27.2364 10.345 27.0706 10.9218 26.7765L13.2638 30H14.9078L11.9972 25.994C12.7629 25.2275 13.2364 24.169 13.2364 23C13.2364 22.7753 13.2189 22.5546 13.1852 22.3394L20.7866 19.8695C21.0512 20.8685 21.1922 21.9177 21.1922 22.9999C21.1922 25.6048 20.3753 28.0189 18.9837 30H20.5716ZM9 20.0935C10.6052 20.0935 11.9064 21.3948 11.9064 23C11.9064 24.6052 10.6052 25.9064 9 25.9064C7.39482 25.9064 6.09357 24.6052 6.09357 23C6.09357 21.3948 7.39482 20.0935 9 20.0935Z" fill="#000000" class="bmwfcol"/><path d="M13.6326 15.4942L14.4143 14.4182L15.4903 15.2L14.7085 16.276L13.6326 15.4942Z" fill="#000000" class="bmwfcol"/><path d="M16.0757 14.3908L17.669 12.198C17.3237 11.9205 16.9648 11.6593 16.5936 11.4154L14.9998 13.6091L16.0757 14.3908Z" fill="#000000" class="bmwfcol"/><title>wheel_and_valve_lt_48</title></svg>