<svg width="48" height="48" viewBox="0 0 32 32" xmlns="http://www.w3.org/2000/svg"><path d="M18.9181 6.33496C20.4555 6.33503 21.9652 6.53282 23.4047 7.09133C24.8197 7.64033 26.1274 8.43743 27.4366 9.19571L29.6639 9.39057L29.664 10.9999C29.664 11.7497 30.1578 12.2184 30.664 12.7245L30.6643 15.3839C29.5017 16.0551 28.319 16.6501 26.9432 16.6636C26.4795 17.8358 25.3361 18.665 23.999 18.665C22.6624 18.665 21.5193 17.8364 21.0553 16.665H18.664V24.335H29.998V25.665H1.99805V24.335H5.59029C4.54925 23.8167 3.83398 22.7418 3.83398 21.5C3.83398 19.752 5.251 18.335 6.99898 18.335C8.74697 18.335 10.164 19.752 10.164 21.5C10.164 22.7418 9.44872 23.8167 8.40768 24.335H13.334V16.665H8.83401V15.5C8.83401 14.4865 8.01246 13.665 6.99901 13.665C5.98557 13.665 5.16401 14.4865 5.16401 15.5V16.6656C3.82748 16.6643 2.62244 16.3588 1.33398 16.0136L1.33423 11.616C2.45617 10.9683 3.55734 10.3131 4.83683 10.0287C5.99083 9.77226 7.6325 9.62677 10.7331 9.3557C12.4401 7.93477 13.6107 7.14962 14.8154 6.74463C16.0346 6.33479 17.2392 6.33486 18.9181 6.33496ZM17.334 24.335V16.665H14.664V24.335H17.334ZM23.999 13.665C22.9856 13.665 22.164 14.4972 22.164 15.5107C22.1698 16.5192 22.9891 17.335 23.999 17.335C25.0124 17.335 25.834 16.5134 25.834 15.5C25.834 14.4865 25.0124 13.665 23.999 13.665ZM27.1595 15.3292C27.9759 15.307 28.6255 15.0114 29.3342 14.6136L29.334 13.269C28.5805 12.4625 28.334 11.6983 28.334 10.6093L27.0263 10.4949C25.6916 9.7224 24.3658 8.89083 22.9236 8.33127C21.7873 7.89039 20.6315 7.66497 18.999 7.66497C17.2202 7.66497 16.2316 7.67171 15.2392 8.00531C13.7301 8.51262 12.4643 9.63868 11.266 10.6442C9.23219 10.822 7.12497 10.8826 5.12539 11.3271C4.20675 11.5312 3.67784 11.8026 2.66419 12.3843L2.66404 14.9918C3.24535 15.1443 3.59804 15.229 3.84181 15.2761C3.95668 13.6326 5.32631 12.335 6.99901 12.335C8.69165 12.335 10.074 13.6637 10.1598 15.335H20.8382C20.924 13.6637 22.3064 12.335 23.999 12.335C25.6897 12.335 27.0708 13.6606 27.1595 15.3292ZM5.16398 21.5C5.16398 22.5134 5.98554 23.335 6.99898 23.335C8.01243 23.335 8.83398 22.5134 8.83398 21.5C8.83398 20.4865 8.01243 19.665 6.99898 19.665C5.98554 19.665 5.16398 20.4865 5.16398 21.5Z" fill="#000000" class="bmwfcol"/><title>wheels-&amp;-tyre-service_lt_48</title></svg>