<svg width="48" height="48" viewBox="0 0 32 32" xmlns="http://www.w3.org/2000/svg"><path d="M23.1302 15.2728L30 19.2391V17.7033L23.0138 13.6699L22.6578 13.9638C21.3682 15.0285 19.6318 15.1814 17.8794 14.1696C16.9112 13.6106 16.2595 12.8805 15.912 12.0724L18.8676 12.8644L18.88 12.8676C19.6337 13.054 20.3101 12.9872 20.8288 12.5022C21.2769 12.0832 21.4899 11.4426 21.6486 10.8504C21.8144 10.2313 21.9201 9.56507 21.7282 8.97751C21.5113 8.31318 20.9768 7.90925 20.2461 7.71568L20.2451 7.71539L17.3501 6.93969C17.9088 6.45335 18.5407 6.15384 19.2042 6.03667C20.1274 5.87366 21.1641 6.05477 22.2144 6.66116C23.9668 7.67294 24.7027 9.2531 24.4254 10.9022L24.3488 11.3576L30 14.6203V13.0845L25.7952 10.6569C25.9646 8.57919 24.9066 6.67976 22.8794 5.50934C21.5957 4.76818 20.2443 4.50245 18.9729 4.72693C17.6998 4.95173 16.5592 5.65923 15.6875 6.77113L15.4659 7.0539L15.7474 7.88717L19.9029 9.00062L19.9049 9.00116C20.3337 9.11462 20.425 9.27134 20.4639 9.39034C20.5279 9.58644 20.5191 9.92675 20.3639 10.5063C20.2014 11.1128 20.0606 11.3996 19.9204 11.5307C19.8511 11.5955 19.7058 11.7006 19.2053 11.5779L14.9482 10.4373L14.2852 11.0219L14.3406 11.3814C14.5889 12.9913 15.6009 14.3899 17.2144 15.3214C19.2416 16.4918 21.4156 16.4584 23.1302 15.2728Z" fill="#000000" class="bmwfcol"/><path d="M15.0342 4.8801C14.6019 5.26243 14.2141 5.69386 13.8794 6.16566C8.22754 6.23079 3.66594 10.8327 3.66594 16.5C3.66594 18.9427 4.5134 21.1875 5.93036 22.9564L5.92775 22.9585C6.1751 23.2871 6.33917 23.6245 6.36091 23.9848C6.3854 24.3907 6.22164 24.6959 6.08018 24.9016C6.0223 24.9858 5.9572 25.0684 5.90706 25.132L5.88531 25.1596C5.82698 25.2339 5.78502 25.2896 5.75079 25.3435C5.69017 25.4391 5.66594 25.5104 5.66594 25.5998C5.66594 25.6994 5.67251 25.7632 5.67876 25.8014C5.74707 25.8165 5.86545 25.83 6.07173 25.835C6.22886 25.8388 6.40137 25.8377 6.60713 25.8364H6.60831C6.72691 25.8356 6.85661 25.8348 7.00093 25.8348H21.0009C21.1453 25.8348 21.275 25.8356 21.3936 25.8364H21.3949C21.6006 25.8377 21.7731 25.8388 21.9301 25.835C22.1364 25.83 22.2548 25.8165 22.3231 25.8014C22.3294 25.7632 22.3359 25.6994 22.3359 25.5998C22.3359 25.5104 22.3117 25.4391 22.2511 25.3435C22.2169 25.2896 22.1749 25.2339 22.1166 25.1596L22.0948 25.132C22.0447 25.0684 21.9796 24.9858 21.9217 24.9016C21.7802 24.6959 21.6165 24.3907 21.641 23.9848C21.6627 23.6245 21.8268 23.2871 22.0741 22.9585L22.0715 22.9564C23.2273 21.5135 24.0042 19.754 24.2513 17.8287L25.4889 18.5359C25.1491 20.4662 24.3348 22.2329 23.1706 23.7112L23.1722 23.7125C22.9898 23.9429 22.9706 24.0478 22.9688 24.0629L22.9692 24.0642C22.9728 24.0742 22.984 24.0991 23.0176 24.1481C23.0491 24.1939 23.0846 24.239 23.1369 24.3055L23.1628 24.3385C23.2234 24.4157 23.3014 24.5164 23.3742 24.6312C23.5277 24.8731 23.6659 25.1893 23.6659 25.5998C23.6659 25.8875 23.6333 26.2005 23.4856 26.4764C23.3178 26.7895 23.0516 26.9668 22.7661 27.0582C22.5125 27.1393 22.2271 27.1582 21.9624 27.1646C21.786 27.1689 21.5785 27.1676 21.3561 27.1663L21.3548 27.1663C21.2401 27.1655 21.1214 27.1648 21.0009 27.1648H7.00095C6.88048 27.1648 6.76163 27.1655 6.6469 27.1663L6.64581 27.1663C6.42337 27.1676 6.2159 27.1689 6.03952 27.1646C5.77475 27.1582 5.48934 27.1393 5.23577 27.0582C4.95027 26.9668 4.68409 26.7895 4.51632 26.4764C4.36853 26.2005 4.33594 25.8875 4.33594 25.5998C4.33594 25.1893 4.4742 24.8731 4.62766 24.6312C4.70046 24.5164 4.77843 24.4157 4.83905 24.3385L4.86488 24.3056C4.91725 24.239 4.95271 24.1939 4.98424 24.1481C5.01788 24.0991 5.02904 24.0742 5.03267 24.0642L5.03312 24.0629C5.03123 24.0478 5.01208 23.9429 4.82969 23.7125L4.83131 23.7112C3.26839 21.7265 2.33594 19.2221 2.33594 16.5C2.33594 10.0576 7.55854 4.83496 14.0009 4.83496C14.3491 4.83496 14.6937 4.85022 15.0342 4.8801Z" fill="#000000" class="bmwfcol"/><path d="M22.1991 17.6727C21.7487 17.8105 21.2803 17.9071 20.7983 17.9581C20.4827 19.4362 19.6972 20.7403 18.6056 21.7063L16.1259 18.2933C16.3839 17.9878 16.5773 17.626 16.6849 17.2289C16.2479 17.0131 15.8348 16.756 15.451 16.4626C15.4513 16.475 15.4515 16.4874 15.4515 16.4999C15.4515 17.3009 14.8021 17.9503 14.0011 17.9503C13.2001 17.9503 12.5507 17.3009 12.5507 16.4999C12.5507 15.6989 13.2001 15.0495 14.0011 15.0495C14.0135 15.0495 14.0259 15.0497 14.0383 15.05C13.745 14.6661 13.4878 14.2531 13.272 13.8161C12.586 14.002 12.0052 14.444 11.6386 15.0331L7.625 13.729C8.50778 11.7005 10.3303 10.1751 12.5428 9.70276C12.5937 9.22074 12.6903 8.75233 12.8282 8.30195C8.81051 8.87163 5.7207 12.3249 5.7207 16.4999C5.7207 21.073 9.42796 24.7803 14.0011 24.7803C18.1761 24.7803 21.6295 21.6904 22.1991 17.6727ZM7.21428 14.994L11.2279 16.2981C11.2231 16.3648 11.2207 16.432 11.2207 16.4999C11.2207 17.1832 11.4672 17.809 11.8762 18.2931L9.39639 21.7062C7.9577 20.4328 7.0507 18.5723 7.0507 16.4999C7.0507 15.9828 7.10717 15.4789 7.21428 14.994ZM17.5302 22.4889C16.4958 23.0998 15.2894 23.4503 14.0011 23.4503C12.7127 23.4503 11.5062 23.0997 10.4718 22.4888L12.9517 19.0755C13.2755 19.2075 13.6298 19.2803 14.0011 19.2803C14.3723 19.2803 14.7265 19.2075 15.0503 19.0755L17.5302 22.4889Z" fill="#000000" class="bmwfcol"/><title>wheel_and_wrench_lt_48</title></svg>