<svg width="48" height="48" viewBox="0 0 32 32" xmlns="http://www.w3.org/2000/svg"><path d="M16.0005 12.8349C14.4806 12.8349 13.2109 13.9063 12.9054 15.335H10.4995V16.665H12.9055C13.211 18.0936 14.4807 19.1649 16.0005 19.1649C17.5203 19.1649 18.7899 18.0936 19.0955 16.665H21.5V15.335H19.0955C18.7901 13.9063 17.5204 12.8349 16.0005 12.8349ZM14.1655 15.9999C14.1655 14.9865 14.987 14.1649 16.0005 14.1649C17.0139 14.1649 17.8355 14.9865 17.8355 15.9999C17.8355 17.0133 17.0139 17.8349 16.0005 17.8349C14.987 17.8349 14.1655 17.0133 14.1655 15.9999Z" fill="#000000" class="bmwfcol"/><path d="M16 6.33502C21.3378 6.33502 25.665 10.6622 25.665 16C25.665 21.3379 21.3378 25.665 16 25.665C10.6621 25.665 6.33496 21.3379 6.33496 16C6.33496 10.6622 10.6621 6.33502 16 6.33502ZM15.335 7.69116C12.154 7.94226 9.47545 9.97914 8.30158 12.7995L10.0549 13.3692C9.87685 13.7711 9.7383 14.1944 9.64424 14.6342L7.89086 14.0645C7.74315 14.6856 7.66496 15.3337 7.66496 16C7.66496 18.5331 8.79494 20.8023 10.5783 22.3309L12.8462 19.2094C13.1626 19.5204 13.5247 19.7849 13.9216 19.992L11.6537 23.1135C12.9192 23.8884 14.4074 24.335 16 24.335C17.5925 24.335 19.0807 23.8884 20.3462 23.1135L18.0785 19.9923C18.4754 19.7853 18.8376 19.5208 19.1541 19.2099L21.4216 22.3309C23.205 20.8023 24.335 18.5331 24.335 16C24.335 15.3337 24.2568 14.6856 24.1091 14.0645L22.3567 14.6339C22.2626 14.1941 22.124 13.7707 21.9459 13.3689L23.6983 12.7995C22.5245 9.97913 19.8459 7.94226 16.665 7.69116V11.5486C16.4481 11.5165 16.2262 11.4999 16.0004 11.4999C15.7743 11.4999 15.5521 11.5166 15.335 11.5487V7.69116Z" fill="#000000" class="bmwfcol"/><path d="M2.33496 16C2.33496 8.45305 8.45299 2.33502 16 2.33502C23.5469 2.33502 29.665 8.45305 29.665 16C29.665 23.547 23.5469 29.665 16 29.665C8.45299 29.665 2.33496 23.547 2.33496 16ZM16 3.66502C9.18753 3.66502 3.66496 9.18759 3.66496 16C3.66496 22.8125 9.18753 28.335 16 28.335C22.8124 28.335 28.335 22.8125 28.335 16C28.335 9.18759 22.8124 3.66502 16 3.66502Z" fill="#000000" class="bmwfcol"/><title>wheel_centre-lock_lt_48</title></svg>