<svg width="48" height="48" viewBox="0 0 32 32" xmlns="http://www.w3.org/2000/svg"><path d="M14.8354 15.9998C14.8354 15.3564 15.357 14.8348 16.0004 14.8348C16.6439 14.8348 17.1654 15.3564 17.1654 15.9998C17.1654 16.6433 16.6439 17.1648 16.0004 17.1648C15.357 17.1648 14.8354 16.6433 14.8354 15.9998Z" fill="#000000" class="bmwfcol"/><path d="M16.0012 11.8357C13.7009 11.8357 11.8362 13.7004 11.8362 16.0007C11.8362 18.301 13.7009 20.1657 16.0012 20.1657C18.3014 20.1657 20.1662 18.301 20.1662 16.0007C20.1662 13.7004 18.3014 11.8357 16.0012 11.8357ZM13.1662 16.0007C13.1662 14.435 14.4355 13.1657 16.0012 13.1657C17.5669 13.1657 18.8362 14.435 18.8362 16.0007C18.8362 17.5664 17.5669 18.8357 16.0012 18.8357C14.4355 18.8357 13.1662 17.5664 13.1662 16.0007Z" fill="#000000" class="bmwfcol"/><path d="M6.33496 16C6.33496 21.3378 10.6621 25.665 16 25.665C21.3378 25.665 25.665 21.3378 25.665 16C25.665 10.6621 21.3378 6.33496 16 6.33496C10.6621 6.33496 6.33496 10.6621 6.33496 16ZM8.30156 12.7995C9.47543 9.97908 12.154 7.94217 15.335 7.6911V10.0364C15.5534 10.0124 15.7752 10 16 10C16.2248 10 16.4467 10.0124 16.665 10.0364V7.69111C19.846 7.94223 22.5245 9.97915 23.6984 12.7995L21.4671 13.5245C21.6486 13.9246 21.7874 14.3482 21.8778 14.7895L24.1091 14.0645C24.2568 14.6856 24.335 15.3337 24.335 16C24.335 18.533 23.205 20.8022 21.4216 22.3309L20.043 20.4334C19.7157 20.732 19.3551 20.995 18.9676 21.2159L20.3462 23.1135C19.0808 23.8883 17.5925 24.335 16 24.335C14.4075 24.335 12.9193 23.8883 11.6538 23.1135L13.0325 21.216C12.6449 20.995 12.2844 20.7321 11.9571 20.4334L10.5784 22.3309C8.79497 20.8023 7.66496 18.5331 7.66496 16C7.66496 15.3336 7.74315 14.6856 7.89085 14.0645L10.1222 14.7895C10.2126 14.3482 10.3514 13.9246 10.5329 13.5245L8.30156 12.7995Z" fill="#000000" class="bmwfcol"/><path d="M16 2.33496C8.45299 2.33496 2.33496 8.45299 2.33496 16C2.33496 23.5469 8.45299 29.665 16 29.665C23.5469 29.665 29.665 23.5469 29.665 16C29.665 8.45299 23.5469 2.33496 16 2.33496ZM3.66496 16C3.66496 9.18753 9.18753 3.66496 16 3.66496C22.8124 3.66496 28.335 9.18753 28.335 16C28.335 22.8124 22.8124 28.335 16 28.335C9.18753 28.335 3.66496 22.8124 3.66496 16Z" fill="#000000" class="bmwfcol"/><title>wheel_centre_cap_lt_48</title></svg>