<svg width="48" height="48" viewBox="0 0 32 32" xmlns="http://www.w3.org/2000/svg"><path d="M22.835 12.5C22.835 11.8565 23.3565 11.335 24 11.335C24.6434 11.335 25.165 11.8565 25.165 12.5C25.165 13.1434 24.6434 13.665 24 13.665C23.3565 13.665 22.835 13.1434 22.835 12.5Z" fill="#000000" class="bmwfcol"/><path d="M20.335 6.99999C20.335 5.94886 20.6882 5.02125 21.3547 4.35474C22.0212 3.68824 22.9489 3.33496 24 3.33496C25.0511 3.33496 25.9787 3.68824 26.6452 4.35474C27.3117 5.02125 27.665 5.94886 27.665 6.99999V8.33803C28.1703 8.35717 28.6367 8.46764 29.0026 8.72011C29.4429 9.02386 29.665 9.4842 29.665 9.99996V14.9999C29.665 15.5157 29.4429 15.976 29.0026 16.2798C28.5972 16.5595 28.0684 16.6649 27.5 16.6649L20.5 16.6649C19.9315 16.6649 19.4027 16.5595 18.9973 16.2798C18.5571 15.976 18.335 15.5157 18.335 14.9999V9.99996C18.335 9.48421 18.5571 9.02386 18.9973 8.72011C19.3632 8.46763 19.8296 8.35717 20.335 8.33803V6.99999ZM22.2952 5.29519C21.9117 5.6787 21.665 6.2511 21.665 6.99999V8.33496L26.335 8.33496V6.99999C26.335 6.2511 26.0883 5.6787 25.7048 5.29519C25.3213 4.91169 24.7489 4.66496 24 4.66496C23.2511 4.66496 22.6787 4.91169 22.2952 5.29519ZM27.5 9.66496L20.5 9.66496C20.0684 9.66496 19.8472 9.74956 19.7526 9.81481C19.6929 9.85606 19.665 9.89571 19.665 9.99996L19.665 14.9999C19.665 15.1042 19.6929 15.1438 19.7526 15.1851C19.8472 15.2503 20.0684 15.3349 20.5 15.3349L27.5 15.3349C27.9315 15.3349 28.1527 15.2503 28.2473 15.1851C28.3071 15.1438 28.335 15.1041 28.335 14.9999V9.99996C28.335 9.89572 28.3071 9.85607 28.2473 9.81481C28.1527 9.74956 27.9315 9.66496 27.5 9.66496Z" fill="#000000" class="bmwfcol"/><path d="M14.5 7.33496C15.3594 7.33496 16.1963 7.43208 17 7.61594V8.98553C16.2017 8.77634 15.3638 8.66496 14.5 8.66496C9.06824 8.66496 4.66496 13.0682 4.66496 18.5C4.66496 23.9317 9.06824 28.335 14.5 28.335C19.9317 28.335 24.335 23.9317 24.335 18.5C24.335 18.3323 24.3308 18.1656 24.3225 18H25.654C25.6613 18.1657 25.665 18.3324 25.665 18.5C25.665 24.6662 20.6662 29.665 14.5 29.665C8.3337 29.665 3.33496 24.6662 3.33496 18.5C3.33496 12.3337 8.3337 7.33496 14.5 7.33496Z" fill="#000000" class="bmwfcol"/><path d="M14.5 10.5657C15.3735 10.5657 16.214 10.7069 17 10.9676V12.3853C16.4245 12.1498 15.8083 11.9931 15.165 11.9288V15.8987C15.8363 16.0699 16.4066 16.4941 16.7681 17.0638L17.4773 16.8333C17.785 17.2784 18.2229 17.6266 18.736 17.8228L17.1788 18.3287C17.1824 18.3854 17.1842 18.4425 17.1842 18.5C17.1842 19.1512 16.9523 19.7482 16.5666 20.213L18.9001 23.4249C20.2528 22.2156 21.1042 20.4572 21.1042 18.5C21.1042 18.3318 21.0979 18.165 21.0856 18H22.4187C22.429 18.1653 22.4342 18.332 22.4342 18.5C22.4342 22.8819 18.8819 26.4342 14.5 26.4342C10.118 26.4342 6.56573 22.8819 6.56573 18.5C6.56573 14.118 10.118 10.5657 14.5 10.5657ZM8.04407 17.1016C7.9469 17.5523 7.89573 18.0202 7.89573 18.5C7.89573 20.4572 8.74714 22.2156 10.0998 23.4249L12.4334 20.2131C12.0476 19.7482 11.8157 19.1512 11.8157 18.5C11.8157 18.4425 11.8175 18.3854 11.8211 18.3288L8.04407 17.1016ZM8.45479 15.8366L12.2318 17.0638C12.5933 16.4941 13.1636 16.0699 13.835 15.8987V11.9288C11.4232 12.1699 9.39369 13.7086 8.45479 15.8366ZM17.8247 24.2075L15.491 20.9953C15.1844 21.1172 14.85 21.1842 14.5 21.1842C14.1499 21.1842 13.8156 21.1172 13.509 20.9953L11.1752 24.2075C12.1517 24.7776 13.2877 25.1042 14.5 25.1042C15.7122 25.1042 16.8482 24.7776 17.8247 24.2075ZM14.5 17.1457C13.752 17.1457 13.1457 17.752 13.1457 18.5C13.1457 19.2479 13.752 19.8542 14.5 19.8542C15.2479 19.8542 15.8542 19.2479 15.8542 18.5C15.8542 17.752 15.2479 17.1457 14.5 17.1457Z" fill="#000000" class="bmwfcol"/><title>wheel_and_lock_lt_48</title></svg>