<svg width="48" height="48" viewBox="0 0 32 32" xmlns="http://www.w3.org/2000/svg"><path d="M21.3723 7V10.5H22.6223V7H21.3723Z" fill="#000000" class="bmwfcol"/><path d="M21.3723 11.5V13H22.6223V11.5H21.3723Z" fill="#000000" class="bmwfcol"/><path d="M20.3888 3.1892C21.0464 2.05022 22.6904 2.05021 23.348 3.1892L29.0713 13.1022C29.7289 14.2412 28.9069 15.665 27.5917 15.665H16.1451C14.8299 15.665 14.0079 14.2412 14.6655 13.1022L20.3888 3.1892ZM22.1962 3.8542C22.0505 3.60188 21.6863 3.60188 21.5406 3.8542L15.8173 13.7672C15.6717 14.0196 15.8538 14.335 16.1451 14.335H27.5917C27.8831 14.335 28.0651 14.0196 27.9195 13.7672L22.1962 3.8542Z" fill="#000000" class="bmwfcol"/><path d="M14.5 7.33496C14.9504 7.33496 15.3947 7.36164 15.8312 7.4135L15.0983 8.68286C14.9004 8.67099 14.7009 8.66496 14.5 8.66496C9.06824 8.66496 4.66496 13.0682 4.66496 18.5C4.66496 23.9317 9.06824 28.335 14.5 28.335C19.9317 28.335 24.335 23.9317 24.335 18.5C24.335 18.1624 24.318 17.8288 24.2848 17.5H25.6208C25.65 17.8294 25.665 18.1629 25.665 18.5C25.665 24.6662 20.6662 29.665 14.5 29.665C8.3337 29.665 3.33496 24.6662 3.33496 18.5C3.33496 12.3337 8.3337 7.33496 14.5 7.33496Z" fill="#000000" class="bmwfcol"/><path d="M6.56573 18.5C6.56573 14.2851 9.85221 10.8379 14.0023 10.5811L13.1655 12.0306C11.0512 12.4645 9.30542 13.9087 8.45479 15.8366L12.2318 17.0638C12.4958 16.6478 12.871 16.3094 13.3157 16.0905C13.6476 16.5328 14.0825 16.9003 14.5951 17.149C14.5637 17.1468 14.5319 17.1457 14.5 17.1457C13.752 17.1457 13.1457 17.752 13.1457 18.5C13.1457 19.2479 13.752 19.8542 14.5 19.8542C15.2479 19.8542 15.8542 19.2479 15.8542 18.5C15.8542 18.0458 15.6306 17.6438 15.2875 17.3982C15.5593 17.4645 15.8461 17.5 16.1452 17.5H16.9917C17.1159 17.809 17.1842 18.1465 17.1842 18.5C17.1842 19.1512 16.9523 19.7482 16.5666 20.213L18.9001 23.4249C20.2528 22.2156 21.1042 20.4572 21.1042 18.5C21.1042 18.16 21.0785 17.8261 21.029 17.5H22.3718C22.413 17.8275 22.4342 18.1613 22.4342 18.5C22.4342 22.8819 18.8819 26.4342 14.5 26.4342C10.118 26.4342 6.56573 22.8819 6.56573 18.5ZM7.89573 18.5C7.89573 20.4572 8.74714 22.2156 10.0998 23.4249L12.4334 20.2131C12.0476 19.7482 11.8157 19.1512 11.8157 18.5C11.8157 18.4425 11.8175 18.3854 11.8211 18.3288L8.04407 17.1016C7.9469 17.5523 7.89573 18.0202 7.89573 18.5ZM15.491 20.9953C15.1844 21.1172 14.85 21.1842 14.5 21.1842C14.1499 21.1842 13.8156 21.1172 13.509 20.9953L11.1752 24.2075C12.1517 24.7776 13.2877 25.1042 14.5 25.1042C15.7122 25.1042 16.8482 24.7776 17.8247 24.2075L15.491 20.9953Z" fill="#000000" class="bmwfcol"/><title>wheel_and_warning_sign_lt_48</title></svg>