<svg width="48" height="48" viewBox="0 0 32 32" xmlns="http://www.w3.org/2000/svg"><path d="M16.0012 2.87549C15.4074 2.87549 14.7641 2.99413 14.2764 3.45862C13.7839 3.92762 13.5762 4.62757 13.5762 5.50049C13.5762 6.3734 13.7839 7.07336 14.2764 7.54236C14.7641 8.00685 15.4074 8.12549 16.0012 8.12549C16.5949 8.12549 17.2382 8.00685 17.726 7.54236C18.2184 7.07336 18.4262 6.3734 18.4262 5.50049C18.4262 4.62757 18.2184 3.92762 17.726 3.45862C17.2382 2.99413 16.5949 2.87549 16.0012 2.87549ZM14.8262 5.50049C14.8262 4.80198 14.9934 4.50193 15.1385 4.36379C15.2882 4.22114 15.5449 4.12549 16.0012 4.12549C16.4574 4.12549 16.7141 4.22114 16.8639 4.36379C17.0089 4.50193 17.1762 4.80198 17.1762 5.50049C17.1762 6.199 17.0089 6.49905 16.8639 6.63719C16.7141 6.77984 16.4574 6.87549 16.0012 6.87549C15.5449 6.87549 15.2882 6.77984 15.1385 6.63719C14.9934 6.49905 14.8262 6.199 14.8262 5.50049Z" fill="#000000" class="bmwfcol"/><path d="M26.8312 28H25.4543L23.4889 20.665L15.8212 20.665L15.6668 20.5759C14.9155 20.1422 14.3292 19.7872 13.8795 19.4675C13.4305 19.1483 13.0801 18.8385 12.8301 18.4829C12.3324 17.7748 12.3332 17.0077 12.3341 16.1153L12.3341 11.2C12.3341 10.9015 12.3702 10.5756 12.5118 10.2667C12.6604 9.94254 12.9026 9.68574 13.2317 9.49765C13.8362 9.15225 14.7473 9.03503 15.9991 9.03503C17.251 9.03503 18.1621 9.15225 18.7666 9.49765C19.0957 9.68574 19.3379 9.94254 19.4865 10.2667C19.6281 10.5756 19.6641 10.9015 19.6641 11.2V19.335L24.5095 19.335L26.8312 28ZM13.6641 11.2V16C13.6641 17.0582 13.6872 17.3894 13.9182 17.718C14.0432 17.8959 14.2554 18.1029 14.6502 18.3835C15.0168 18.6442 15.5085 18.9462 16.178 19.335L18.3341 19.335V11.2C18.3341 10.9986 18.3077 10.8869 18.2774 10.8209C18.2541 10.77 18.2151 10.7143 18.1067 10.6524C17.8362 10.4978 17.2473 10.365 15.9991 10.365C14.751 10.365 14.1621 10.4978 13.8916 10.6524C13.7832 10.7143 13.7442 10.77 13.7209 10.8209C13.6906 10.8869 13.6641 10.9986 13.6641 11.2Z" fill="#000000" class="bmwfcol"/><path d="M19.3359 22C19.3359 25.4987 16.4996 28.335 13.0009 28.335C9.50221 28.335 6.66594 25.4987 6.66594 22C6.66594 19.2005 8.48183 16.8251 11 15.9874V14.5988C7.73709 15.4787 5.33594 18.4589 5.33594 22C5.33594 26.2332 8.76767 29.665 13.0009 29.665C17.2342 29.665 20.6659 26.2332 20.6659 22H19.3359Z" fill="#000000" class="bmwfcol"/><title>wheelchair_lt_48</title></svg>