<svg width="48" height="48" viewBox="0 0 32 32" xmlns="http://www.w3.org/2000/svg"><path d="M9.43789 2.36182C8.97541 2.36182 8.44457 2.45367 8.03654 2.84227C7.62378 3.23537 7.46289 3.81033 7.46289 4.48682C7.46289 5.1633 7.62378 5.73826 8.03654 6.13137C8.44457 6.51996 8.97541 6.61182 9.43789 6.61182C9.90037 6.61182 10.4312 6.51996 10.8392 6.13137C11.252 5.73826 11.4129 5.1633 11.4129 4.48682C11.4129 3.81033 11.252 3.23537 10.8392 2.84227C10.4312 2.45367 9.90038 2.36182 9.43789 2.36182ZM8.71289 4.48682C8.71289 3.98473 8.83325 3.80969 8.89861 3.74744C8.96871 3.68068 9.11288 3.61182 9.43789 3.61182C9.76291 3.61182 9.90707 3.68068 9.97717 3.74744C10.0425 3.80969 10.1629 3.98473 10.1629 4.48682C10.1629 4.9889 10.0425 5.16394 9.97717 5.22619C9.90707 5.29295 9.76291 5.36182 9.43789 5.36182C9.11288 5.36182 8.96871 5.29295 8.89861 5.22619C8.83325 5.16394 8.71289 4.9889 8.71289 4.48682Z" fill="#000000" class="bmwfcol"/><path d="M19.7892 20.0466L18.4592 20.403L15.6977 15.6199L10.9475 16.8927L10.7754 16.8466C10.1466 16.6781 9.64628 16.533 9.25048 16.3858C8.8554 16.2388 8.52144 16.0744 8.25047 15.8479C7.7109 15.3969 7.54989 14.792 7.3814 14.159L7.35523 14.061L6.25973 9.97252C6.12351 9.46414 6.24552 8.9288 6.69404 8.48522C7.09754 8.08616 7.74157 7.78193 8.62702 7.54467C9.51248 7.30741 10.2223 7.24887 10.7713 7.39271C11.3815 7.5526 11.7549 7.95522 11.8911 8.46361L13.5909 14.8075L16.3392 14.0711L19.7892 20.0466ZM7.54442 9.62829L8.63991 13.7167C8.84907 14.4973 8.92039 14.6744 9.10349 14.8275C9.20776 14.9147 9.38163 15.0155 9.7143 15.1393C10.0151 15.2512 10.4107 15.3696 10.9481 15.5156L12.3062 15.1517L10.6064 8.80784L10.6051 8.80283C10.595 8.76416 10.583 8.71827 10.4342 8.67928C10.2177 8.62255 9.77617 8.61367 8.97125 8.82935C8.16633 9.04503 7.78841 9.27347 7.62926 9.43086C7.51989 9.53903 7.53246 9.58476 7.54306 9.6233L7.54442 9.62829Z" fill="#000000" class="bmwfcol"/><path d="M10.3512 22.6643C12.5673 22.0705 13.967 19.9509 13.7232 17.7387L15.0195 17.3913C15.4452 20.3177 13.6221 23.1648 10.6954 23.949C7.53998 24.7945 4.29656 22.9219 3.45106 19.7664C2.80181 17.3434 3.75529 14.8685 5.66164 13.4673L6.03987 14.8788C4.83966 15.998 4.28138 17.7265 4.73574 19.4222C5.39113 21.8681 7.90526 23.3197 10.3512 22.6643Z" fill="#000000" class="bmwfcol"/><path d="M3.99805 27.027L3.99805 28.4089L22.59 23.165H27.998L27.998 21.835H22.4061L3.99805 27.027Z" fill="#000000" class="bmwfcol"/><title>wheelchair_ramp_lt_48</title></svg>