<svg width="48" height="48" viewBox="0 0 32 32" xmlns="http://www.w3.org/2000/svg"><path d="M30.009 11.9906C29.8496 11.8168 29.6866 11.6465 29.5198 11.4797C26.2283 8.18824 21.5507 6.33496 15.9996 6.33496C10.4484 6.33496 5.77086 8.18824 2.47936 11.4797C2.31261 11.6465 2.14955 11.8168 1.99023 11.9906L2.93167 12.932C3.09046 12.7574 3.2532 12.5868 3.41982 12.4202C6.42832 9.41168 10.7507 7.66496 15.9996 7.66496C21.2484 7.66496 25.5708 9.41168 28.5793 12.4202C28.746 12.5868 28.9087 12.7575 29.0675 12.9321L30.009 11.9906Z" fill="#000000" class="bmwfcol"/><path d="M25.6538 16.3457C25.498 16.1687 25.3367 15.9966 25.1698 15.8297C22.9283 13.5882 19.7507 12.335 15.9996 12.335C12.2484 12.335 9.07086 13.5882 6.82936 15.8297C6.66251 15.9966 6.50113 16.1686 6.34534 16.3457L7.28802 17.2884C7.44261 17.1095 7.60328 16.9367 7.76982 16.7702C9.72832 14.8117 12.5507 13.665 15.9996 13.665C19.4484 13.665 22.2708 14.8117 24.2293 16.7702C24.3959 16.9367 24.5566 17.1095 24.7112 17.2884L25.6538 16.3457Z" fill="#000000" class="bmwfcol"/><path d="M20.8198 20.1797C20.9871 20.3471 21.1439 20.524 21.2897 20.7099L20.3402 21.6594C20.1994 21.4662 20.0454 21.2863 19.8793 21.1202C18.9708 20.2117 17.6484 19.665 15.9996 19.665C14.3507 19.665 13.0283 20.2117 12.1198 21.1202C11.9537 21.2863 11.7997 21.4662 11.659 21.6594L10.7095 20.7099C10.8553 20.524 11.012 20.3471 11.1793 20.1797C12.3708 18.9882 14.0484 18.335 15.9996 18.335C17.9507 18.335 19.6283 18.9882 20.8198 20.1797Z" fill="#000000" class="bmwfcol"/><path d="M14.8346 25C14.8346 24.3565 15.3561 23.835 15.9996 23.835C16.643 23.835 17.1646 24.3565 17.1646 25C17.1646 25.6434 16.643 26.165 15.9996 26.165C15.3561 26.165 14.8346 25.6434 14.8346 25Z" fill="#000000" class="bmwfcol"/><title>wifi-wave_lt_48</title></svg>