<svg width="48" height="48" viewBox="0 0 32 32" xmlns="http://www.w3.org/2000/svg"><path d="M12.7157 1.80373L14.4876 1.3291L14.7862 1.96951C16.2527 5.11435 17.0329 6.78744 17.3476 7.96171C17.5153 8.5877 17.5602 9.09939 17.5078 9.63172C17.4743 9.97156 17.4011 10.3127 17.3089 10.6781C17.8092 10.9607 18.209 11.4004 18.4415 11.9301L25.1252 13.721C26.3577 14.0512 26.8315 14.8722 27.1883 15.4906L27.3398 15.753L26.8649 17.5248L26.161 17.4632C22.7042 17.1608 20.8652 16.9999 19.6909 16.6853C19.0649 16.5175 18.5993 16.3006 18.1645 15.989C17.9616 15.8435 17.7686 15.6793 17.5738 15.4989L18.665 27.971V28.3351H26V29.6651H6V28.3351H13.335V27.971L14.289 17.0665L10.8142 20.5413C9.91195 21.4435 8.96405 21.4433 8.25011 21.4432L7.94716 21.4431L6.65018 20.146L7.05548 19.5672C9.04573 16.7247 10.1046 15.2125 10.9642 14.3529C11.4225 13.8946 11.8431 13.5999 12.3304 13.3791C12.6412 13.2383 12.9729 13.1312 13.3351 13.0284L13.335 13.0001C13.335 12.4085 13.5277 11.862 13.8538 11.4199L12.0633 4.73759C11.733 3.50511 12.2071 2.68431 12.5642 2.06609L12.7157 1.80373ZM14.665 28.3351H17.335V28.0291L16.2533 15.6651H15.7467L14.665 28.0291V28.3351ZM16 14.3351C16.7373 14.3351 17.335 13.7374 17.335 13.0001C17.335 12.2628 16.7373 11.6651 16 11.6651C15.2627 11.6651 14.665 12.2628 14.665 13.0001C14.665 13.7374 15.2627 14.3351 16 14.3351ZM18.2973 14.3517C18.5387 14.5858 18.7354 14.7618 18.9393 14.9079C19.2271 15.1142 19.5423 15.2685 20.0351 15.4006C21.0269 15.6663 22.6188 15.8174 25.8692 16.1025L25.9118 15.9434C25.6283 15.4734 25.3709 15.1637 24.781 15.0057L18.6408 13.3604C18.5924 13.7183 18.473 14.0536 18.2973 14.3517ZM13.6804 14.3132C13.3577 14.405 13.1074 14.4872 12.8792 14.5906C12.5567 14.7367 12.2654 14.9325 11.9046 15.2933C11.1786 16.0194 10.2519 17.3224 8.37975 19.9948L8.49622 20.1112C9.04501 20.1007 9.44192 20.0326 9.87373 19.6008L14.3677 15.1069C14.0894 14.891 13.8551 14.6212 13.6804 14.3132ZM16.1842 9.50132C16.2189 9.14894 16.1949 8.79879 16.0629 8.30593C15.7971 7.31413 15.1321 5.86005 13.7538 2.90256L13.5947 2.94518C13.3294 3.42572 13.1899 3.8035 13.3479 4.39336L14.9928 10.532C15.3035 10.405 15.6436 10.3351 16 10.3351L16.0235 10.3352C16.1055 10.0092 16.1596 9.75089 16.1842 9.50132Z" fill="#000000" class="bmwfcol"/><title>wind_turbine_lt_48</title></svg>