<svg width="48" height="48" viewBox="0 0 32 32" xmlns="http://www.w3.org/2000/svg"><path d="M23.5052 2V3.94623L22.0803 3.12351V4.56689L23.5052 5.38961V6.61024L22.2982 7.30716L21.2413 6.69696V5.05152L19.9913 4.32983V5.97527L18.3056 5.00206L17.7306 5.99799L19.4161 6.97111L17.9911 7.79384L19.2411 8.51552L20.6661 7.69279L21.7231 8.30309V9.69688L20.6661 10.3072L19.2411 9.48443L17.9911 10.2061L19.4161 11.0288L17.7305 12.0021L18.3055 12.998L19.9909 12.0249V13.6703L21.2409 12.9486V11.3032L22.2981 10.6928L23.5052 11.3897V12.6104L22.0803 13.4331V14.8765L23.5052 14.0538V16H24.6552V14.0536L26.0803 14.8763V13.4329L24.6552 12.6102V11.3897L25.8623 10.6928L26.9195 11.3032V12.9486L28.1695 13.6703V12.0249L29.8549 12.998L30.4299 12.002L28.7443 11.0288L30.1693 10.2061L28.9193 9.48443L27.4943 10.3072L26.4372 9.69687V8.3031L27.4943 7.69278L28.9193 8.5155L30.1693 7.79381L28.7443 6.97109L30.4298 5.99799L29.8548 5.00206L28.1692 5.97525V4.32979L26.9192 5.05148V6.69693L25.8623 7.30717L24.6552 6.6103V5.38981L26.0803 4.56708V3.12371L24.6552 3.94644V2H23.5052ZM22.9731 8.36083L24.0802 7.72167L25.1872 8.36083V9.63914L24.0802 10.2783L22.9731 9.63914V8.36083Z" fill="#000000" class="bmwfcol"/><path d="M3.66594 18.4995C3.66594 15.6953 4.32308 13.1893 5.35121 11.4072C6.38951 9.60744 7.72426 8.66447 9.05863 8.66447H13.9051C14.7996 8.66447 15.6942 9.0882 16.4996 9.90969V8.17721C15.7196 7.64329 14.8471 7.33447 13.9051 7.33447H9.05863C7.04743 7.33447 5.35333 8.74201 4.19918 10.7425C3.03486 12.7607 2.33594 15.5046 2.33594 18.4995C2.33594 21.4943 3.03486 24.2382 4.19918 26.2564C5.35333 28.2569 7.04743 29.6645 9.05863 29.6645H13.9051C15.9163 29.6645 17.6104 28.2569 18.7645 26.2564C19.9288 24.2382 20.6278 21.4943 20.6278 18.4995C20.6278 17.4629 20.544 16.4564 20.3863 15.4996H19.0368C19.2058 16.443 19.2978 17.4504 19.2978 18.4995C19.2978 21.3036 18.6406 23.8097 17.6125 25.5918C16.5742 27.3915 15.2394 28.3345 13.9051 28.3345H9.05863C7.72426 28.3345 6.38951 27.3915 5.35121 25.5918C4.32308 23.8097 3.66594 21.3036 3.66594 18.4995Z" fill="#000000" class="bmwfcol"/><path d="M13.9038 10.9692C14.5415 10.9692 15.0989 11.2628 15.5499 11.692C15.9975 12.118 16.3704 12.703 16.669 13.375C17.2671 14.7206 17.6201 16.533 17.6201 18.4996C17.6201 20.4662 17.2671 22.2786 16.669 23.6243C16.3704 24.2963 15.9975 24.8812 15.5499 25.3072C15.0989 25.7365 14.5415 26.03 13.9038 26.03C13.2661 26.03 12.7087 25.7365 12.2576 25.3072C11.81 24.8812 11.4372 24.2963 11.1385 23.6243C10.5404 22.2786 10.1875 20.4662 10.1875 18.4996C10.1875 16.533 10.5404 14.7206 11.1385 13.375C11.4372 12.703 11.81 12.118 12.2576 11.692C12.7087 11.2628 13.2661 10.9692 13.9038 10.9692ZM12.2028 14.2831C11.7829 15.3911 11.5175 16.863 11.5175 18.4996C11.5175 20.1362 11.7829 21.608 12.2028 22.716C12.5931 21.5759 12.8366 20.1153 12.8366 18.4995C12.8366 16.8838 12.5931 15.4233 12.2028 14.2831ZM13.0303 24.1934C13.0783 24.2479 13.1265 24.298 13.1745 24.3438C13.4536 24.6093 13.6989 24.7 13.9038 24.7C14.1087 24.7 14.354 24.6093 14.633 24.3438C14.9155 24.0749 15.2002 23.6545 15.4537 23.0841C15.96 21.945 16.2901 20.3247 16.2901 18.4996C16.2901 16.6746 15.96 15.0543 15.4537 13.9151C15.2002 13.3447 14.9155 12.9243 14.633 12.6555C14.354 12.3899 14.1087 12.2992 13.9038 12.2992C13.6989 12.2992 13.4536 12.3899 13.1745 12.6555C13.1265 12.7012 13.0784 12.7513 13.0304 12.8058C13.7437 14.2534 14.1666 16.2877 14.1666 18.4995C14.1666 20.7114 13.7437 22.7458 13.0303 24.1934Z" fill="#000000" class="bmwfcol"/><title>winter_tyre_lt_48</title></svg>