<svg width="48" height="48" viewBox="0 0 32 32" xmlns="http://www.w3.org/2000/svg"><path d="M7 3.61095V2.0752L9.00259 3.23139L11 2.07818V3.61393L9.66789 4.38303V6.3063L10.9986 7.07459L12.6616 6.11448V4.57598L13.9916 3.80811V6.11455L15.9941 7.27073L14.6641 8.0386L13.3265 7.26633L11.6679 8.22394V9.76883L13.3319 10.7295L14.6641 9.96036L15.9941 10.7282L13.9959 11.8819L13.9959 14.1934L12.6659 13.4255L12.6659 11.8808L11.0042 10.9214L9.66789 11.693V13.6154L11 14.3845V15.9202L9.00259 14.767L7 15.9232V14.3874L8.33789 13.615V11.693L6.99861 10.9197L5.33126 11.8824V13.4269L4.00126 14.1948V11.8824L2.00391 10.7292L3.33391 9.96131L4.66629 10.7306L6.33789 9.76546V8.22731L4.67166 7.26531L3.33391 8.03766L2.00391 7.26978L4.00557 6.11413L4.00557 3.80664L5.33557 4.57452L5.33557 6.11286L7.00425 7.07628L8.33789 6.3063V4.38338L7 3.61095ZM7.66789 8.22888V9.7704L9.00289 10.5412L10.3379 9.7704V8.22888L9.00289 7.45812L7.66789 8.22888Z" fill="#000000" class="bmwfcol"/><path d="M30.4697 4.46975L23.9995 10.94L20.5293 7.46975L21.4697 6.5293L23.9995 9.05907L29.5293 3.5293L30.4697 4.46975Z" fill="#000000" class="bmwfcol"/><path d="M18.92 15.3345C17.2412 15.3344 16.0366 15.3343 14.8174 15.7441C13.6126 16.1491 12.442 16.9343 10.7351 18.3552C7.63445 18.6263 5.99278 18.7718 4.83879 19.0282C3.55929 19.3126 2.45813 19.9678 1.33619 20.6155L1.33594 25.0131C2.22592 25.2516 3.1281 25.5662 4.05101 25.6486C4.51096 26.8285 5.65832 27.6645 7.00094 27.6645C8.33753 27.6645 9.48062 26.836 9.94463 25.6645H21.0572C21.5213 26.836 22.6643 27.6645 24.0009 27.6645C25.338 27.6645 26.4815 26.8353 26.9451 25.6632C28.3209 25.6495 29.5037 25.0546 30.6662 24.3834L30.6659 21.724C30.1598 21.2179 29.666 20.7492 29.666 19.9994L29.6659 18.3901L27.4386 18.1952C26.1293 17.4369 24.8216 16.6398 23.4066 16.0908C21.9671 15.5323 20.4575 15.3345 18.92 15.3345ZM27.1614 24.3287C27.0727 22.6601 25.6916 21.3345 24.0009 21.3345C22.3083 21.3345 20.926 22.6632 20.8402 24.3345H10.1617C10.0759 22.6632 8.69358 21.3345 7.00094 21.3345C5.32823 21.3345 3.9586 22.6321 3.84373 24.2756C3.59848 24.2284 3.24848 24.1443 2.666 23.9914L2.66614 21.3838C3.67979 20.8021 4.20871 20.5307 5.12735 20.3266C7.12693 19.8822 9.23414 19.8215 11.268 19.6437C12.4663 18.6382 13.732 17.5121 15.2412 17.0048C16.2336 16.6712 17.2222 16.6645 19.001 16.6645C20.6335 16.6645 21.7892 16.8899 22.9256 17.3308C24.3678 17.8903 25.6936 18.7219 27.0282 19.4944L28.3359 19.6088C28.336 20.6978 28.5824 21.462 29.336 22.2685L29.3361 23.6131C28.6276 24.0108 27.9774 24.3067 27.1614 24.3287ZM7.00094 22.6645C8.01438 22.6645 8.83594 23.486 8.83594 24.4995C8.83594 25.5129 8.01438 26.3345 7.00094 26.3345C5.98749 26.3345 5.16594 25.5129 5.16594 24.4995C5.16594 23.486 5.98749 22.6645 7.00094 22.6645ZM24.0009 22.6645C25.0144 22.6645 25.8359 23.486 25.8359 24.4995C25.8359 25.5129 25.0144 26.3345 24.0009 26.3345C22.9875 26.3345 22.1659 25.5129 22.1659 24.4995C22.1659 23.486 22.9875 22.6645 24.0009 22.6645Z" fill="#000000" class="bmwfcol"/><title>winter-check_lt_48</title></svg>