<svg width="48" height="48" viewBox="0 0 32 32" xmlns="http://www.w3.org/2000/svg"><path d="M23.5052 2V3.94623L22.0803 3.12351V4.56689L23.5052 5.38961V6.61024L22.2982 7.30716L21.2413 6.69696V5.05152L19.9913 4.32983V5.97527L18.3056 5.00206L17.7306 5.99799L19.4161 6.97111L17.9911 7.79384L19.2411 8.51552L20.6661 7.69279L21.7231 8.30309V9.69688L20.6661 10.3072L19.2411 9.48443L17.9911 10.2061L19.4161 11.0288L17.7305 12.0021L18.3055 12.998L19.9909 12.0249V13.6703L21.2409 12.9486V11.3032L22.2981 10.6928L23.5052 11.3897V12.6104L22.0803 13.4331V14.8765L23.5052 14.0538V16H24.6552V14.0536L26.0803 14.8763V13.4329L24.6552 12.6102V11.3897L25.8623 10.6928L26.9195 11.3032V12.9486L28.1695 13.6703V12.0249L29.8549 12.998L30.4299 12.002L28.7443 11.0288L30.1693 10.2061L28.9193 9.48443L27.4943 10.3072L26.4372 9.69687V8.3031L27.4943 7.69278L28.9193 8.5155L30.1693 7.79381L28.7443 6.97109L30.4298 5.99799L29.8548 5.00206L28.1692 5.97525V4.32979L26.9192 5.05148V6.69693L25.8623 7.30717L24.6552 6.6103V5.38981L26.0803 4.56708V3.12371L24.6552 3.94644V2H23.5052ZM22.9731 8.36083L24.0802 7.72167L25.1872 8.36083V9.63914L24.0802 10.2783L22.9731 9.63914V8.36083Z" fill="#000000" class="bmwfcol"/><path d="M14.5009 7.33496C15.0608 7.33496 15.6111 7.37618 16.1489 7.45574C16.0649 7.88548 16.0152 8.32755 16.003 8.77894C15.5133 8.70389 15.0117 8.66496 14.5009 8.66496C9.06922 8.66496 4.66594 13.0682 4.66594 18.5C4.66594 23.9317 9.06922 28.335 14.5009 28.335C19.9327 28.335 24.3359 23.9317 24.3359 18.5C24.3359 17.9889 24.297 17.487 24.2218 16.997C24.6732 16.9847 25.1153 16.935 25.545 16.8509C25.6247 17.3891 25.6659 17.9397 25.6659 18.5C25.6659 24.6662 20.6672 29.665 14.5009 29.665C8.33468 29.665 3.33594 24.6662 3.33594 18.5C3.33594 12.3337 8.33468 7.33496 14.5009 7.33496Z" fill="#000000" class="bmwfcol"/><path d="M14.5009 10.5657C10.119 10.5657 6.56671 14.118 6.56671 18.5C6.56671 22.8819 10.119 26.4342 14.5009 26.4342C18.8829 26.4342 22.4352 22.8819 22.4352 18.5C22.4352 17.9197 22.3729 17.3539 22.2546 16.809C21.4871 16.6383 20.7611 16.3572 20.0942 15.9834L16.7691 17.0638C16.4076 16.4941 15.8373 16.0699 15.1659 15.8987V11.9288C15.6972 11.9819 16.2098 12.098 16.6964 12.2694C16.4793 11.7853 16.309 11.2756 16.1911 10.7461C15.6465 10.628 15.081 10.5657 14.5009 10.5657ZM7.89671 18.5C7.89671 18.0202 7.94788 17.5523 8.04505 17.1016L11.8221 18.3288C11.8185 18.3854 11.8167 18.4425 11.8167 18.5C11.8167 19.1512 12.0486 19.7482 12.4343 20.2131L10.1008 23.4249C8.74812 22.2156 7.89671 20.4572 7.89671 18.5ZM12.2328 17.0638L8.45577 15.8366C9.39467 13.7086 11.4242 12.1699 13.8359 11.9288V15.8987C13.1646 16.0699 12.5943 16.4941 12.2328 17.0638ZM17.1798 18.3288L20.9568 17.1016C21.054 17.5523 21.1052 18.0202 21.1052 18.5C21.1052 20.4572 20.2538 22.2156 18.9011 23.4249L16.5675 20.213C16.9533 19.7482 17.1852 19.1512 17.1852 18.5C17.1852 18.4425 17.1834 18.3854 17.1798 18.3288ZM15.4919 20.9953L17.8257 24.2075C16.8492 24.7776 15.7132 25.1042 14.5009 25.1042C13.2887 25.1042 12.1527 24.7776 11.1762 24.2075L13.5099 20.9953C13.8165 21.1172 14.1509 21.1842 14.5009 21.1842C14.851 21.1842 15.1853 21.1172 15.4919 20.9953ZM13.1467 18.5C13.1467 17.752 13.753 17.1457 14.5009 17.1457C15.2489 17.1457 15.8552 17.752 15.8552 18.5C15.8552 19.2479 15.2489 19.8542 14.5009 19.8542C13.753 19.8542 13.1467 19.2479 13.1467 18.5Z" fill="#000000" class="bmwfcol"/><title>winter_wheel_lt_48</title></svg>