<svg width="48" height="48" viewBox="0 0 32 32" xmlns="http://www.w3.org/2000/svg"><path d="M10.5726 21.4598C10.3209 21.5763 10.0752 21.7014 9.83577 21.835H9.44604L3.66496 11.8219V11.6233C4.93281 10.9231 6.2967 10.3382 7.7486 9.87847L14.829 25.0625C14.6231 25.3193 14.5 25.6453 14.5 26C14.5 26.8285 15.1716 27.5 16 27.5C16.8284 27.5 17.5 26.8285 17.5 26C17.5 25.1831 16.847 24.5187 16.0344 24.5004L9.04326 9.50782C11.1945 8.95537 13.5213 8.66502 16.0001 8.66502C20.7161 8.66502 24.8819 9.716 28.3352 11.6233V11.8219L22.5541 21.835H22.1644C20.5851 20.9535 18.7305 20.4417 16.6754 20.35L17.3183 21.7287C18.9616 21.8908 20.4191 22.3578 21.6545 23.0751L21.8093 23.165H23.322L29.6652 12.1783V10.8506L29.3321 10.6587C25.5901 8.50321 21.074 7.33502 16.0001 7.33502C10.9262 7.33502 6.41002 8.50321 2.66803 10.6587L2.33496 10.8506V12.1783L8.67817 23.165H10.1908L10.3457 23.0751C10.5994 22.9278 10.8626 22.791 11.1347 22.6652L10.5726 21.4598Z" fill="#000000" class="bmwfcol"/><path d="M14.5999 10.6354C13.9565 10.6354 13.4349 11.157 13.4349 11.8004C13.4349 12.4438 13.9565 12.9654 14.5999 12.9654C15.2433 12.9654 15.7649 12.4438 15.7649 11.8004C15.7649 11.157 15.2433 10.6354 14.5999 10.6354Z" fill="#000000" class="bmwfcol"/><path d="M19.4998 10.8346C18.8564 10.8346 18.3348 11.3562 18.3348 11.9996C18.3348 12.643 18.8564 13.1646 19.4998 13.1646C20.1432 13.1646 20.6648 12.643 20.6648 11.9996C20.6648 11.3562 20.1432 10.8346 19.4998 10.8346Z" fill="#000000" class="bmwfcol"/><path d="M20.1348 17.6011C20.1348 16.9577 20.6564 16.4361 21.2998 16.4361C21.9432 16.4361 22.4648 16.9577 22.4648 17.6011C22.4648 18.2445 21.9432 18.7661 21.2998 18.7661C20.6564 18.7661 20.1348 18.2445 20.1348 17.6011Z" fill="#000000" class="bmwfcol"/><path d="M23.9004 12.0357C23.2569 12.0357 22.7354 12.5573 22.7354 13.2007C22.7354 13.8441 23.2569 14.3657 23.9004 14.3657C24.5438 14.3657 25.0654 13.8441 25.0654 13.2007C25.0654 12.5573 24.5438 12.0357 23.9004 12.0357Z" fill="#000000" class="bmwfcol"/><path d="M15.8353 16.6C15.8353 15.9566 16.3569 15.435 17.0003 15.435C17.6437 15.435 18.1653 15.9566 18.1653 16.6C18.1653 17.2434 17.6437 17.765 17.0003 17.765C16.3569 17.765 15.8353 17.2434 15.8353 16.6Z" fill="#000000" class="bmwfcol"/><title>wiper_with_water_particles_lt_48</title></svg>