<svg width="48" height="48" viewBox="0 0 32 32" xmlns="http://www.w3.org/2000/svg"><path d="M9.83674 21.835C10.3348 21.5569 10.8603 21.3157 11.4109 21.1128L11.9752 22.3229C11.3524 22.5449 10.7627 22.8334 10.1918 23.165H8.67914L2.33594 12.1782V10.8505C6.5099 8.44618 11.1941 7.33496 16.0011 7.33496C20.8081 7.33496 25.4922 8.44619 29.6662 10.8505V12.1782L23.323 23.165H21.8103C20.1226 22.185 18.2383 21.7081 16.29 21.6679L15.6701 20.3385C15.7799 20.3361 15.8902 20.335 16.0011 20.335C18.3261 20.335 20.4149 20.8579 22.1654 21.835H22.5551L28.3362 11.8218V11.6233C24.8829 9.71594 20.7171 8.66496 16.0011 8.66496C13.5217 8.66496 11.1944 8.95544 9.04278 9.50813L16.1975 24.8515C16.7473 24.9449 17.1659 25.4235 17.1659 26C17.1659 26.6434 16.6443 27.165 16.0009 27.165C15.3575 27.165 14.8359 26.6434 14.8359 26C14.8359 25.7869 14.8931 25.5872 14.993 25.4154L7.74816 9.87885C6.29679 10.3386 4.93337 10.9232 3.66594 11.6233V11.8218L9.44702 21.835H9.83674Z" fill="#000000" class="bmwfcol"/><title>wiper-blades_lt_48</title></svg>