<svg width="48" height="48" viewBox="0 0 32 32" xmlns="http://www.w3.org/2000/svg"><path d="M8.08071 2.07973C8.57221 1.58824 9.24982 1.33496 10.0009 1.33496C10.7521 1.33496 11.4297 1.58824 11.9212 2.07973C12.4127 2.57123 12.6659 3.24884 12.6659 3.99996C12.6659 4.75108 12.4127 5.42869 11.9212 5.92019C11.4297 6.41169 10.7521 6.66496 10.0009 6.66496C9.24982 6.66496 8.57221 6.41169 8.08071 5.92019C7.58921 5.42869 7.33594 4.75108 7.33594 3.99996C7.33594 3.24884 7.58921 2.57123 8.08071 2.07973ZM9.02116 3.02019C8.81266 3.22869 8.66594 3.55108 8.66594 3.99996C8.66594 4.44884 8.81266 4.77123 9.02116 4.97973C9.22967 5.18824 9.55206 5.33496 10.0009 5.33496C10.4498 5.33496 10.7722 5.18824 10.9807 4.97973C11.1892 4.77123 11.3359 4.44884 11.3359 3.99996C11.3359 3.55108 11.1892 3.22869 10.9807 3.02019C10.7722 2.81169 10.4498 2.66496 10.0009 2.66496C9.55206 2.66496 9.22967 2.81169 9.02116 3.02019Z" fill="#000000" class="bmwfcol"/><path d="M7.66623 10.0196V17.0875L6.79609 20.3349H9.16594V30H7.83594V21.6649H5.33594V20.6456L6.33623 16.9124V9.10981L6.74947 8.94078C7.72272 8.54268 8.81762 8.33496 10.0009 8.33496C11.1843 8.33496 12.2792 8.54268 13.2524 8.94078L13.6656 9.10981V16.9124L14.6659 20.6456V21.6649H12.1659V30H10.8359V20.3349H13.2058L12.3356 17.0875V10.0196C11.6373 9.78963 10.8556 9.66496 10.0009 9.66496C9.14626 9.66496 8.36461 9.78963 7.66623 10.0196Z" fill="#000000" class="bmwfcol"/><path d="M20.8821 16L26.6556 5.99996H25.1198L19.3463 16H20.8821Z" fill="#000000" class="bmwfcol"/><path d="M17.3704 6.4454C17.8186 5.92104 18.4543 5.83496 19.0009 5.83496C19.5476 5.83496 20.1833 5.92104 20.6315 6.4454C21.0469 6.93141 21.1659 7.64591 21.1659 8.49996C21.1659 9.35401 21.0469 10.0685 20.6315 10.5545C20.1833 11.0789 19.5476 11.165 19.0009 11.165C18.4543 11.165 17.8186 11.0789 17.3704 10.5545C16.955 10.0685 16.8359 9.35401 16.8359 8.49996C16.8359 7.64591 16.955 6.93141 17.3704 6.4454ZM18.3815 7.30953C18.2969 7.40851 18.1659 7.69401 18.1659 8.49996C18.1659 9.30591 18.2969 9.59141 18.3815 9.6904C18.4333 9.75104 18.5476 9.83496 19.0009 9.83496C19.4543 9.83496 19.5686 9.75104 19.6204 9.6904C19.705 9.59141 19.8359 9.30591 19.8359 8.49996C19.8359 7.69401 19.705 7.40851 19.6204 7.30953C19.5686 7.24888 19.4543 7.16496 19.0009 7.16496C18.5476 7.16496 18.4333 7.24888 18.3815 7.30953Z" fill="#000000" class="bmwfcol"/><path d="M27.0009 10.835C26.4543 10.835 25.8186 10.921 25.3704 11.4454C24.955 11.9314 24.8359 12.6459 24.8359 13.5C24.8359 14.354 24.955 15.0685 25.3704 15.5545C25.8186 16.0789 26.4543 16.165 27.0009 16.165C27.5476 16.165 28.1833 16.0789 28.6315 15.5545C29.0469 15.0685 29.1659 14.354 29.1659 13.5C29.1659 12.6459 29.0469 11.9314 28.6315 11.4454C28.1833 10.921 27.5476 10.835 27.0009 10.835ZM26.1659 13.5C26.1659 12.694 26.2969 12.4085 26.3815 12.3095C26.4333 12.2489 26.5476 12.165 27.0009 12.165C27.4543 12.165 27.5686 12.2489 27.6204 12.3095C27.705 12.4085 27.8359 12.694 27.8359 13.5C27.8359 14.3059 27.705 14.5914 27.6204 14.6904C27.5686 14.751 27.4543 14.835 27.0009 14.835C26.5476 14.835 26.4333 14.751 26.3815 14.6904C26.2969 14.5914 26.1659 14.3059 26.1659 13.5Z" fill="#000000" class="bmwfcol"/><title>woman-with-percent-sign_lt_48</title></svg>