<svg width="48" height="48" viewBox="0 0 32 32" xmlns="http://www.w3.org/2000/svg"><path d="M18.9442 3.87933C20.2321 3.76696 21.5171 4.15512 22.6468 5.00354L22.9341 5.21931L22.8778 6.09706L19.1512 8.24859L19.1503 8.24912C18.7654 8.4697 18.7178 8.64472 18.7111 8.76972C18.7 8.9757 18.7965 9.30215 19.0965 9.82174C19.3964 10.3413 19.6304 10.5874 19.814 10.6804C19.9257 10.7371 20.1018 10.7833 20.4867 10.5606L24.3098 8.3534L25.1015 8.74648L25.141 9.10814C25.3179 10.7274 24.7023 12.3403 23.3849 13.6577C21.7297 15.3129 19.6212 15.8432 17.6581 15.1418L7.82856 24.9714C7.29744 25.5025 6.63921 25.8025 5.94413 25.8025C5.24904 25.8025 4.59081 25.5025 4.05969 24.9714C3.52856 24.4402 3.22852 23.782 3.22852 23.0869C3.22852 22.3918 3.52856 21.7336 4.05969 21.2025L13.8892 11.3729C13.1878 9.4099 13.7182 7.30136 15.3734 5.64614C16.4216 4.59798 17.6581 3.99154 18.9442 3.87933ZM16.3138 6.58659C14.883 8.01746 14.5812 9.73423 15.2759 11.2554L15.4677 11.6754L5.00014 22.1429C4.68273 22.4604 4.55852 22.7921 4.55852 23.0869C4.55852 23.3818 4.68273 23.7135 5.00014 24.0309C5.31754 24.3483 5.64926 24.4725 5.94413 24.4725C6.23899 24.4725 6.57071 24.3483 6.88811 24.0309L17.3556 13.5634L17.7756 13.7552C19.2968 14.4499 21.0136 14.1481 22.4445 12.7172C23.235 11.9267 23.6755 11.0528 23.802 10.1823L21.1521 11.7122C20.4984 12.0901 19.8353 12.1825 19.2125 11.8666C18.6613 11.5872 18.2651 11.0418 17.9447 10.4867C17.6242 9.93161 17.3497 9.31538 17.383 8.69819C17.4206 8.00037 17.8322 7.47188 18.4879 7.0958L18.4889 7.09521L21.0845 5.59667C20.4189 5.27151 19.7311 5.14573 19.0598 5.2043C18.1259 5.28578 17.1714 5.72904 16.3138 6.58659Z" fill="#000000" class="bmwfcol"/><path d="M15.7012 19.6384C15.4161 20.0386 15.2561 20.542 15.1726 21.1194C15.0926 21.672 15.0769 22.3047 15.0769 23.0003C15.0769 23.7914 15.0979 24.4676 15.1902 25.0388C15.2826 25.611 15.448 26.0884 15.7441 26.4758C16.2193 27.1014 16.9544 27.3306 17.8581 27.3306C18.8243 27.3306 19.5806 27.0212 20.0412 26.3197C20.5901 25.5122 20.6712 24.4048 20.6712 22.9684C20.6712 22.2716 20.6474 21.6221 20.5511 21.0522C20.4549 20.4828 20.2844 19.9814 19.9828 19.5885C19.4894 18.9349 18.737 18.6699 17.8687 18.6699C16.9146 18.6699 16.1737 18.9751 15.7012 19.6384ZM16.7454 20.4674C16.9634 20.1041 17.3374 19.946 17.8581 19.946C18.3809 19.946 18.765 20.1161 18.9609 20.4366L18.9625 20.4391C19.1046 20.6618 19.2015 20.9818 19.2613 21.4096C19.3209 21.8356 19.3421 22.3553 19.3421 22.9684C19.3421 23.5879 19.3261 24.0973 19.273 24.5172C19.2198 24.9371 19.1307 25.2573 18.9907 25.5037C18.7615 25.8974 18.3669 26.0545 17.8687 26.0545C17.3439 26.0545 16.9856 25.9409 16.7734 25.6226L16.7722 25.6208C16.618 25.3965 16.5234 25.0651 16.4699 24.6203C16.4167 24.1779 16.406 23.6422 16.406 23.0215C16.406 22.3955 16.4167 21.8727 16.466 21.4445C16.5155 21.0147 16.6024 20.6962 16.744 20.4697L16.7454 20.4674Z" fill="#000000" class="bmwfcol"/><path d="M28.2963 23.5293H24.7602V24.8373H28.2963V23.5293Z" fill="#000000" class="bmwfcol"/><path d="M22.145 25.2375H23.5697V26.735C23.5697 27.6513 23.2272 28.4206 22.9835 28.9611L22.9436 29.0494H21.8544L21.8938 28.8677C22.0307 28.2359 22.145 27.6959 22.145 26.6607V25.2375Z" fill="#000000" class="bmwfcol"/><title>wrench_zero_amount_lt_48</title></svg>