<svg width="48" height="48" viewBox="0 0 32 32" xmlns="http://www.w3.org/2000/svg"><path d="M14.8137 15.5H16.2191V11.2983L17.0829 9.83431H19.7913V8.56063H17.8295L20.2598 4.46143H18.6347L15.5457 9.76111L12.3981 4.46143H10.7438L13.1887 8.56063H11.2269V9.83431H13.9499L14.8137 11.2983V15.5Z" fill="#000000" class="bmwfcol"/><path d="M29.4704 16.5296C29.1821 16.2413 28.7919 15.9205 28.2502 15.7165C27.7038 15.5107 27.0498 15.4409 26.2581 15.5823C24.8326 15.8371 22.9341 16.7815 20.2868 18.9044C20.2579 18.87 20.2275 18.8367 20.1953 18.8046C19.8787 18.4881 19.4511 18.3349 19 18.3349L14.0878 18.3349L10.3558 17.3349L10.2055 17.3348C9.6195 17.3344 9.13111 17.334 8.56144 17.6827C8.29789 17.8439 8.03096 18.0692 7.72213 18.3577C7.41277 18.6467 7.03122 19.0282 6.53908 19.5204L2.05957 23.9999L7.72457 29.6649H9.27547L11.2755 27.6649H15.0196C16.003 27.6649 16.7675 27.6649 17.3788 27.6327C17.996 27.6002 18.5023 27.5334 18.9604 27.3808C19.8611 27.0805 20.4671 26.4742 21.3805 25.5602L29.9408 16.9998L29.4704 16.5296ZM19.255 19.7452C19.2885 19.7787 19.3352 19.8511 19.3352 19.9997L19.3351 20.721C18.4746 21.5507 17.8598 21.929 17.2898 22.119C16.6607 22.3287 16.0238 22.3349 15.0003 22.3349H11V23.6649L15.0598 23.6649C16.0119 23.665 16.8574 23.6651 17.7105 23.3807C18.5983 23.0848 19.4344 22.5059 20.4702 21.4701L20.665 21.2754L20.6652 20.3115C23.5039 17.9646 25.3248 17.1002 26.4921 16.8916C27.0753 16.7874 27.4838 16.849 27.7813 16.9611C27.858 16.99 27.9304 17.0234 27.9991 17.0606L20.53 24.5296C19.4944 25.5653 19.11 25.929 18.5399 26.119C18.2479 26.2163 17.8792 26.2745 17.3089 26.3045C16.7367 26.3347 16.0071 26.3349 15 26.3349H10.7246L8.72457 28.3349H8.27547L3.94047 23.9999L7.47025 20.4701C7.97361 19.9667 8.33922 19.6013 8.63005 19.3296C8.92335 19.0556 9.11069 18.9058 9.25566 18.8171C9.47236 18.6845 9.60188 18.6664 10.1811 18.665L13.9127 19.6649L19 19.6649C19.1489 19.6649 19.2214 19.7116 19.255 19.7452Z" fill="#000000" class="bmwfcol"/><title>yen_symbol_on_hand_lt_48</title></svg>