<svg width="48" height="48" viewBox="0 0 32 32" xmlns="http://www.w3.org/2000/svg"><path d="M18 24.3035V22.7682C14.9086 24.5519 13.3588 25.4287 12.1375 25.8757C10.8981 26.3293 10.0131 26.3352 7.99952 26.3352C7.85092 26.3353 7.77352 26.3279 7.66729 26.2252C7.69393 24.706 7.95176 23.9784 8.5643 23.4394C8.91681 23.1292 9.42742 22.8459 10.1909 22.5537C10.9531 22.262 11.9243 21.977 13.1723 21.6426L14 21.4208V20.0439L12.8281 20.3579C11.576 20.6934 10.5472 20.9933 9.7155 21.3116C8.88515 21.6294 8.20821 21.9811 7.68568 22.4409C6.42926 23.5466 6.33496 25.2133 6.33496 26.7756C6.60285 27.0436 6.85935 27.361 7.20241 27.5325C7.47255 27.6677 7.76848 27.6657 8.0625 27.6652C10.01 27.6652 11.1176 27.6653 12.5946 27.1247C13.2755 26.8755 14.0378 26.5103 15.0181 25.9833C16.5418 26.7764 17.6524 27.2103 18.9243 27.4339C20.2409 27.6653 21.7073 27.6653 23.9353 27.6653C24.2301 27.6658 24.527 27.6681 24.7979 27.5326C25.1409 27.3611 25.3974 27.0436 25.6653 26.7757C25.6653 25.2135 25.5711 23.5466 24.3146 22.441C23.7921 21.9812 23.1151 21.6295 22.2848 21.3117C21.4531 20.9934 20.4243 20.6935 19.1722 20.358L18 20.0439V21.4208L18.828 21.6427C20.076 21.9771 21.0472 22.2621 21.8094 22.5538C22.5729 22.846 23.0835 23.1293 23.436 23.4395C24.0485 23.9785 24.3064 24.7061 24.333 26.2253C24.216 26.3386 24.165 26.3353 24.0003 26.3353C21.692 26.3353 20.3437 26.333 19.1545 26.124C18.2781 25.9699 17.4746 25.7001 16.4289 25.202C16.9056 24.9324 17.4264 24.6339 18 24.3035Z" fill="#000000" class="bmwfcol"/><path d="M15.0202 4.02019C14.8117 4.22869 14.665 4.55108 14.665 4.99996C14.665 5.44884 14.8117 5.77123 15.0202 5.97973C15.2287 6.18824 15.5511 6.33496 16 6.33496C16.4489 6.33496 16.7713 6.18824 16.9798 5.97973C17.1883 5.77123 17.335 5.44884 17.335 4.99996C17.335 4.55108 17.1883 4.22869 16.9798 4.02019C16.7713 3.81169 16.4489 3.66496 16 3.66496C15.5511 3.66496 15.2287 3.81169 15.0202 4.02019ZM14.0798 3.07973C14.5713 2.58824 15.2489 2.33496 16 2.33496C16.7511 2.33496 17.4287 2.58824 17.9202 3.07973C18.4117 3.57123 18.665 4.24884 18.665 4.99996C18.665 5.75108 18.4117 6.42869 17.9202 6.92019C17.4287 7.41169 16.7511 7.66496 16 7.66496C15.2489 7.66496 14.5713 7.41169 14.0798 6.92019C13.5883 6.42869 13.335 5.75108 13.335 4.99996C13.335 4.24884 13.5883 3.57123 14.0798 3.07973Z" fill="#000000" class="bmwfcol"/><path d="M6 19.2963V17.9194L11.3352 16.4898V10.7013L11.6464 10.5058C12.8618 9.74202 14.3442 9.33492 16.0002 9.33492C17.6563 9.33492 19.1387 9.74202 20.3541 10.5058L20.6652 10.7013V16.4897L26 17.9192V19.2962L19.3352 17.5102V11.4499C18.4115 10.948 17.2887 10.6649 16.0002 10.6649C14.7118 10.6649 13.589 10.948 12.6652 11.4499V17.5103L6 19.2963Z" fill="#000000" class="bmwfcol"/><title>yoga_lt_48</title></svg>