<svg width="48" height="48" viewBox="0 0 32 32" xmlns="http://www.w3.org/2000/svg"><path d="M23.6016 4H25.1369C24.581 4.96283 24.1691 5.67768 23.8677 6.2438C23.5551 6.83083 23.382 7.22073 23.2923 7.52828C23.1343 8.06991 23.2108 8.38719 23.5011 9.40081L23.5884 9.70562L23.4066 9.96533C22.1785 11.7192 21.2706 13.0159 20.6451 13.998C20.0028 15.0063 19.7228 15.5884 19.6568 15.9387C19.6288 16.0874 19.652 16.1353 19.655 16.1415C19.6595 16.1508 19.6852 16.1999 19.8172 16.2778C20.1221 16.4576 20.65 16.6054 21.5447 16.8456L22.1868 17.0179L22.0147 17.66C21.8707 18.1972 21.6912 18.6317 21.5359 18.9823C21.4962 19.0721 21.46 19.1526 21.4273 19.2252C21.3227 19.4574 21.2532 19.6118 21.2114 19.7534C21.1877 19.8333 21.1847 19.8746 21.185 19.8922C21.1852 19.903 21.1861 19.9052 21.1894 19.9117C21.2049 19.942 21.2848 20.0581 21.6227 20.2568L21.9506 20.4497V21.6566L21.6119 21.8474C21.4484 21.9394 21.361 22.0087 21.3162 22.0505C21.3662 22.1343 21.4537 22.2418 21.6067 22.4234L21.6135 22.4315C21.7642 22.6103 21.9659 22.8497 22.1248 23.1264L22.2131 23.2802V23.4575C22.2131 24.6276 22.4005 25.315 22.6551 25.7114C22.8828 26.066 23.2059 26.2525 23.7085 26.3137C24.2469 26.3792 24.9477 26.2924 25.8365 26.0931C26.4672 25.9517 27.147 25.7651 27.8894 25.5613L27.8908 25.561L27.8927 25.5604C28.1916 25.4784 28.5006 25.3936 28.8206 25.3079L30 24.9918V26.3688L29.1648 26.5926C28.8649 26.6729 28.5666 26.7548 28.2734 26.8352C27.5177 27.0427 26.7909 27.2421 26.1275 27.3909C25.2099 27.5967 24.3233 27.7283 23.5479 27.634C22.7367 27.5353 22.0198 27.1836 21.5359 26.43C21.1025 25.755 20.9041 24.8292 20.8847 23.6526C20.8041 23.5368 20.7056 23.4181 20.5895 23.2803L20.5637 23.2497C20.4255 23.086 20.2379 22.8638 20.1164 22.6283C19.9706 22.3458 19.8733 21.9552 20.0678 21.5351C20.1536 21.3497 20.2833 21.1899 20.4405 21.0492C20.2589 20.8937 20.1083 20.7191 20.0046 20.5158C19.7954 20.1055 19.8385 19.706 19.9359 19.3764C20.006 19.1391 20.1266 18.8724 20.2394 18.623C20.2669 18.562 20.2941 18.5021 20.3198 18.4438C20.3884 18.2889 20.4584 18.1246 20.5257 17.9467C19.9834 17.7937 19.4988 17.6341 19.1415 17.4234C18.8709 17.2637 18.6121 17.0422 18.4559 16.7169C18.2977 16.3872 18.2852 16.0354 18.3498 15.6924C18.4699 15.0552 18.8949 14.27 19.5233 13.2835C20.1359 12.3217 21.0041 11.0778 22.1354 9.46197C21.9044 8.64388 21.7656 8.01288 22.0154 7.15596C22.1447 6.71255 22.3712 6.22446 22.6937 5.61875C22.9309 5.17327 23.2312 4.64398 23.6016 4Z" fill="#000000" class="bmwfcol"/><path d="M25.9892 10.9189V12.3173C27.0103 11.9984 27.6512 11.7175 28.0523 11.4454C28.3366 11.2525 28.5489 11.0325 28.6698 10.7607C28.7828 10.5065 28.7822 10.2713 28.782 10.1605L28.7819 10.1449L28.7821 9.76073L25.5001 7.86583V9.40159L27.224 10.3969C26.9966 10.5344 26.6167 10.707 25.9892 10.9189Z" fill="#000000" class="bmwfcol"/><path d="M5.99523 6.75907C5.62667 6.27103 5.06738 6.07919 4.44113 6.07919C3.73458 6.07919 3.17257 6.31249 2.82116 6.83492C2.62317 7.12583 2.51839 7.48002 2.46147 7.87369C2.40452 8.26748 2.39355 8.71584 2.39355 9.20267C2.39355 9.75639 2.40819 10.2359 2.47402 10.6434C2.54008 11.0524 2.65972 11.4031 2.87967 11.6909C3.2374 12.1618 3.787 12.3262 4.43371 12.3262C5.13008 12.3262 5.69444 12.1019 6.0395 11.5769C6.44177 10.9846 6.49614 10.1807 6.49614 9.18041C6.49614 8.69187 6.47954 8.23113 6.41079 7.82446C6.34215 7.41843 6.21915 7.05092 5.99523 6.75907ZM3.73707 7.48025C3.86628 7.2649 4.08924 7.16183 4.43371 7.16183C4.78101 7.16183 5.01059 7.27416 5.12378 7.45938L5.12585 7.4627C5.21454 7.60164 5.27974 7.80969 5.32082 8.10345C5.36155 8.39482 5.3764 8.75306 5.3764 9.18041C5.3764 9.61285 5.36519 9.96417 5.32882 10.2516C5.29246 10.5389 5.23242 10.749 5.14331 10.906C5.00585 11.1418 4.76896 11.2435 4.44113 11.2435C4.08436 11.2435 3.87571 11.166 3.75424 10.9838L3.75264 10.9815C3.65801 10.8438 3.59415 10.6307 3.55731 10.3243C3.52086 10.0211 3.51329 9.65162 3.51329 9.21751C3.51329 8.77977 3.52085 8.41904 3.55465 8.12554C3.58868 7.82998 3.64736 7.62392 3.7352 7.48337L3.73707 7.48025Z" fill="#000000" class="bmwfcol"/><path d="M10.5107 9.32979C10.2573 9.63742 9.8836 9.79591 9.39912 9.79591C8.95524 9.79591 8.56463 9.70351 8.30038 9.40288C8.00094 9.07497 7.9303 8.63322 7.9303 7.97093C7.9303 7.36699 7.9869 6.93492 8.24585 6.59561L8.24648 6.59479C8.49903 6.26741 8.93478 6.12369 9.39912 6.12369C9.85179 6.12369 10.2433 6.25402 10.5084 6.56484C10.8188 6.92839 10.8754 7.38807 10.8754 7.97093C10.8754 8.54119 10.793 8.98573 10.5107 9.32979ZM8.97227 7.46834C8.95573 7.59405 8.95358 7.75316 8.95358 7.97093C8.95358 8.17943 8.95755 8.34213 8.97651 8.47154C8.99541 8.60058 9.02637 8.67388 9.06331 8.71878C9.11691 8.78295 9.1817 8.81715 9.39912 8.81715C9.49365 8.81715 9.55889 8.80438 9.60736 8.78345C9.653 8.76374 9.69406 8.73243 9.73425 8.67727C9.82428 8.55187 9.85208 8.35126 9.85208 7.97093C9.85208 7.77026 9.84815 7.61601 9.83082 7.49224C9.81366 7.36966 9.78532 7.29349 9.74789 7.24065L9.74462 7.23603C9.69171 7.15666 9.59932 7.10245 9.39912 7.10245C9.18723 7.10245 9.10675 7.14841 9.0584 7.21748L9.05456 7.22279C9.01628 7.27382 8.98844 7.34547 8.97227 7.46834Z" fill="#000000" class="bmwfcol"/><path d="M10.6631 12.2H9.47783L12.5944 6.20531H13.7876L10.6631 12.2Z" fill="#000000" class="bmwfcol"/><path d="M13.8214 12.2816C14.3059 12.2816 14.6797 12.1231 14.933 11.8155C15.2153 11.4714 15.2977 11.0269 15.2977 10.4566C15.2977 9.87377 15.2411 9.41409 14.9307 9.05054C14.6656 8.73972 14.2741 8.60939 13.8214 8.60939C13.3571 8.60939 12.9213 8.75311 12.6688 9.08049L12.6682 9.08131C12.4092 9.42062 12.3526 9.85269 12.3526 10.4566C12.3526 11.1189 12.4233 11.5607 12.7227 11.8886C12.9869 12.1892 13.3776 12.2816 13.8214 12.2816ZM13.3946 9.95404C13.4108 9.83117 13.4386 9.75952 13.4769 9.70849L13.4807 9.70318C13.5291 9.63411 13.6095 9.58815 13.8214 9.58815C14.0216 9.58815 14.114 9.64236 14.1669 9.72173L14.1702 9.72635C14.2076 9.77919 14.236 9.85536 14.2531 9.97794C14.2705 10.1017 14.2744 10.256 14.2744 10.4566C14.2744 10.8369 14.2466 11.0375 14.1566 11.1629C14.1164 11.2181 14.0753 11.2494 14.0297 11.2692C13.9812 11.2901 13.916 11.3028 13.8214 11.3028C13.6041 11.3028 13.5393 11.2687 13.4857 11.2045C13.4487 11.1596 13.4177 11.0863 13.3988 10.9572C13.3799 10.8278 13.3759 10.6651 13.3759 10.4566C13.3759 10.2389 13.3781 10.0797 13.3946 9.95404Z" fill="#000000" class="bmwfcol"/><path d="M18.1384 11.8155C17.8851 12.1231 17.5114 12.2816 17.0269 12.2816C16.583 12.2816 16.1924 12.1892 15.9282 11.8886C15.6287 11.5607 15.5581 11.1189 15.5581 10.4566C15.5581 9.85269 15.6147 9.42062 15.8736 9.08131L15.8742 9.08049C16.1268 8.75311 16.5625 8.60939 17.0269 8.60939C17.4795 8.60939 17.871 8.73972 18.1362 9.05054C18.4465 9.41409 18.5031 9.87377 18.5031 10.4566C18.5031 11.0269 18.4208 11.4714 18.1384 11.8155ZM16.6823 9.70849C16.644 9.75952 16.6162 9.83117 16.6 9.95404C16.5835 10.0797 16.5813 10.2389 16.5813 10.4566C16.5813 10.6651 16.5853 10.8278 16.6043 10.9572C16.6232 11.0863 16.6541 11.1596 16.6911 11.2045C16.7447 11.2687 16.8095 11.3028 17.0269 11.3028C17.1214 11.3028 17.1866 11.2901 17.2351 11.2692C17.2808 11.2494 17.3218 11.2181 17.362 11.163C17.452 11.0376 17.4798 10.837 17.4798 10.4566C17.4798 10.256 17.4759 10.1017 17.4586 9.97794C17.4414 9.85536 17.4131 9.77919 17.3757 9.72635L17.3724 9.72173C17.3195 9.64236 17.2271 9.58815 17.0269 9.58815C16.815 9.58815 16.7345 9.63411 16.6862 9.70318L16.6823 9.70849Z" fill="#000000" class="bmwfcol"/><path d="M26.0004 22.6629V24.26C24.2587 23.2892 23.335 21.6716 23.3351 19.9997C23.3351 18.328 24.2588 16.7106 26.0004 15.74V17.3371C25.0905 18.0752 24.6651 19.0558 24.6651 19.9997C24.6651 20.9437 25.0905 21.9245 26.0004 22.6629Z" fill="#000000" class="bmwfcol"/><path d="M16.665 19.335H7V20.665H15.335V22.335H7V23.665H16.665V19.335Z" fill="#000000" class="bmwfcol"/><title>zero_promille_blowing_face_lt_48</title></svg>