<svg width="48" height="48" viewBox="0 0 32 32" xmlns="http://www.w3.org/2000/svg"><path d="M9 14.665H19V13.335H9V14.665Z" fill="#000000" class="bmwfcol"/><path d="M6.20474 6.20474C8.07981 4.32966 10.763 3.33496 14 3.33496C17.2369 3.33496 19.9201 4.32966 21.7952 6.20474C23.6703 8.07981 24.665 10.763 24.665 14C24.665 16.9658 23.8299 19.4668 22.2477 21.3072L28.4698 27.5294L27.5293 28.4698L21.3072 22.2477C19.4668 23.8299 16.9658 24.665 14 24.665C10.763 24.665 8.07981 23.6703 6.20474 21.7952C4.32966 19.9201 3.33496 17.2369 3.33496 14C3.33496 10.763 4.32966 8.07981 6.20474 6.20474ZM7.14519 7.14519C5.57026 8.72012 4.66496 11.0369 4.66496 14C4.66496 16.963 5.57026 19.2798 7.14519 20.8547C8.72012 22.4297 11.0369 23.335 14 23.335C16.963 23.335 19.2798 22.4297 20.8547 20.8547C22.4297 19.2798 23.335 16.963 23.335 14C23.335 11.0369 22.4297 8.72012 20.8547 7.14519C19.2798 5.57026 16.963 4.66496 14 4.66496C11.0369 4.66496 8.72012 5.57026 7.14519 7.14519Z" fill="#000000" class="bmwfcol"/><title>zoom-out_lt_48</title></svg>