<svg width="48" height="48" viewBox="0 0 32 32" xmlns="http://www.w3.org/2000/svg"><path d="M13.335 14.665H9V13.335H13.335V9H14.665V13.335H19V14.665H14.665V19H13.335V14.665Z" fill="#000000" class="bmwfcol"/><path d="M14 3.33496C10.763 3.33496 8.07981 4.32966 6.20474 6.20474C4.32966 8.07981 3.33496 10.763 3.33496 14C3.33496 17.2369 4.32966 19.9201 6.20474 21.7952C8.07981 23.6703 10.763 24.665 14 24.665C16.9658 24.665 19.4668 23.8299 21.3072 22.2477L27.5293 28.4698L28.4698 27.5294L22.2477 21.3072C23.8299 19.4668 24.665 16.9658 24.665 14C24.665 10.763 23.6703 8.07981 21.7952 6.20474C19.9201 4.32966 17.2369 3.33496 14 3.33496ZM4.66496 14C4.66496 11.0369 5.57026 8.72012 7.14519 7.14519C8.72012 5.57026 11.0369 4.66496 14 4.66496C16.963 4.66496 19.2798 5.57026 20.8547 7.14519C22.4297 8.72012 23.335 11.0369 23.335 14C23.335 16.963 22.4297 19.2798 20.8547 20.8547C19.2798 22.4297 16.963 23.335 14 23.335C11.0369 23.335 8.72012 22.4297 7.14519 20.8547C5.57026 19.2798 4.66496 16.963 4.66496 14Z" fill="#000000" class="bmwfcol"/><title>zoom-in_lt_48</title></svg>