<?xml version="1.0" encoding="UTF-8"?>
<svg version="1.1" viewBox="0 0 2048 658" width="1792" height="576" xmlns="http://www.w3.org/2000/svg">
<path transform="translate(0)" d="m0 0h2048v658h-2048z" fill="#131213"/>
<path transform="translate(0)" d="m0 0h2048v658h-2048zm822 11-10 3-6 4-8 8-7 11-11 21-2 7h-83l-19-2-26-4-11-1h-127l-25 2-40 10-26 9-18 8-18 10-15 11-7 6-11 14-13 20-10 18-12 23-8 18-5 16-5 27-6 50-2 30v22l3 38 6 46 5 26 5 15 12 25 15 27 16 24 8 10 10 10 15 10 17 9 25 10 27 8 21 5 13 5 6 1h158l13-3 13-4 22-4h87l6 11 7 9 7 7 8 4 7 2h9l6-3 1-2v-14l-3-15 197 1 5 1h28l4-1h77l210 1 18 2 17 3 13 4 7 1h148l12-2 5-2 21-4 12-3 62-8 43-7 23-5 16-6 13-10 9-10 8-14 6-18 7-32 7-44 4-39 2-33 1-36v-47l-1-34-3-43-4-34-7-38-6-25-7-21-6-11-8-9-12-9-10-5-18-4-50-6-85-8-26-5-17-2-23-1h-87l-33 2-31 6-9-1-12-2h-20l-16 4-2 1-81 2-56 1-80 1h-39l-13-3-8-1h-20l-14 3-5 2-172 3 6-25 2-13v-8l-3-5-3-2z" fill="#FEFEFE"/>
<path transform="translate(901,139)" d="m0 0 13 1 30 4 43 3 51 2 48 1 92 1h116l52-1 27-1 34-3 23-3 5 18 7 36 4 29 3 35 1 17v82l-3 42-5 37-6 31-5 17-19-2-30-3-38-2-39-1h-124l-114 2-60 3-38 3-31 4-32 7h-4l-7-18-7-26-6-34-4-40-2-35v-65l2-35 4-34 5-29 6-22 6-17z" fill="#FEFEFE"/>
<path transform="translate(449,74)" d="m0 0 3 1-23 11-7 4-11 4-8 5-16 7-4 3 14-7h2v2l-11 9-11 11-9 11-10 13-14 21-11 19-8 13-7 10-2 8-5 34-4 30-4 43-4 10v11l1 2v-5l3-1 1-5h-2l-1 5h-2l1-8 5-9 5-3-1-5-1 5h-3l3-36 5-37 4-22 3-10-3 1 1-6 6-9 5-6h11l-2 6-5 5v1l2 1-7 34-5 37-4 48-4-4 1 3 3 7-1 15-4 6-7 1-4-3 5 48v8h2l-4-43v-9l3 2 4-1 1 3 2-6 2-3h2l3 37 5 38 6 33 1 2-1-10-6-35-5-42-1-13v-53l3-35 5-35 7-33 4-5 21-12 31-14 36-14 50-17 34-10 60-15 44-9 44-7 28-3-5 5-10 9-8 10-9 16-8 17-8 22-7 25-7 36-4 35-1 15v63l2 28 5 37 7 33 8 26 8 20 8 17 10 16 8 10 6 7 7 6v1h-14l-35-3-46-6-43-7-49-10-33-8-30-8-35-11-29-10-19-8-14-7 1 1 16 8 31 12 40 13 44 12 53 12 55 10 52 7 32 3 17 1 6 1-3 3-9 4-15 3-24 2-25 1h-77l-46-2-45-4-31-4-11-8-13-11-20-20-9-11-10-13-6-9 5 9 11 14 11 13 21 21 14 11 30 20 6 5-1 5h-14l-15-3-10-7-10-9-8-7-7-7-9-11-12-15-12-17-14-23-2-3h-2l12 20 12 18 12 16 12 14 9 10 16 14-2 1-16-8-8-5 10 7 13 6 9 3 9 5 11 3 17-1 2-5-4-5-17-11-5-4 39 4 37 3 47 2h68l40-2 22-3 14-5 4-3h2v-2l17-1 16-3 8 8 8 4-6 9-4 14-1 8-1 1-96 1h96l1 6-1 1-33 1-32 6-48-1h-93l-30 1h-14l-21-8-11-4 6 3v1l-9-1-27-9-18-8-16-9-14-10-7-7-10-13-9-14-3-5 1-2 9 12-7-11-9-11-9-14-12-24-6-18-5-26-5-36-3-34-1-17v-11l2-32 4-37 5-33 5-20 9-21 10-20 8-11 12-17 14-19 11-11-7 6-8 9-13 18-4 6-1-2 11-18 10-13 6-7 15-11 15-9 19-9 24-9z" fill="#FEFEFE"/>
<path transform="translate(695,101)" d="m0 0h19l9 1v2l14 2 119 24 39 8 2 1-1 5-7 21-6 25-6 40-3 39-1 29v31l2 45 4 40 5 32 8 32 6 16 1 4-67 20-49 15-43 13-13 4-5-1-9-13-10-18-11-26-11-34-5-18-5-54-5-61v-9h-6l-1 76h3l1 21v17h-3v3h3l2 15 5 35-1 1 2 1 6 27v7l2 4 8 19-1-5-6-14-6-28-7-34-2-17-2-53-3-1v-47l2-1 3 40-1-23-2-28v-13l3 1 8 98 3 44v3l-3-1-1-3-5-36 4 33 2 8 4 1v-18h1l5 19 11 32 11 24 9 16 8 11 1 2-12 3-16 1-15-14-10-13-12-21-10-23-9-28-6-26-5-31-3-27-2-43v-18l2-38 4-32 5-28 8-30 10-28 8-16 8-13 7-9 7-7h2l2-4z" fill="#FEFEFE"/>
<path transform="translate(1603,124)" d="m0 0 4 1 10 21 7 21 6 26 6 38 3 33 1 16 1 32v21l-1 32-3 39-5 36-6 27-5 17-9 21-4 7-11-1-90-16-71-12 1-8 6-27 5-33 4-46 1-26v-50l-2-38-3-33-5-34-6-29-2-8v-4l25-4 81-11z" fill="#FEFEFE"/>
<path transform="translate(1162,480)" d="m0 0h154l55 2 37 3 26 4 42 9 87 21 28 5 40 4 15 1h76l13-1h13l-2 5-7 9-8 8-16 8-22 8-4 3v5l4 3 16 4-3 2-21 5-37 6-41 6-17 4-27 7h-175l-16-3 2-2 16-3 8-4v-4l-2 1v3l-11 3h-2l-17 2h-15l-12-2-3-3 9-1 5 1v-2l-2-2 12-2h11l6 1v2l3-3-4-1h-27l-122 2-79 1h48l82-1 51-1h19l-3 3-11 2v3l6 3v1l-73 1h-42l-140-1 2-3-1-4-3-2-18-1-13-2-9 1h11l10 2v1l-17 1 17 1v1l-7 1 10-1 1-1h5l1 4-2 2-10 1h-21l-12-2-5-2v-2l1-1h-4l3 6h-189l-2-3v-4l122-1 73-1-195 1-3-7-4-13v-2h27l21 1v-2h-34l-16-1-1-4h290l134-3 93-3 70-3 28-2 8-3 6-8 2-4v-9l-4-6-16-8-26-7-25-5-31-4-41-3-27-1-53-1h-84l-7 66-1 1-25 1 1-7 15-53 3-12h128l37 1 50 3 33 4 24 4-28-5-36-4-31-2-24-1-67-1h-135l-37 1-52 3-35 4-35 6-48 12-39 12-60 20-28 11-7 2-10-7-4-5 10-4 75-23 81-24 26-7 29-5 39-4 49-3 23-1 39-1z" fill="#FEFEFE"/>
<path transform="translate(1652,111)" d="m0 0h46l40 2 7 1 4 8 7 24 6 29 5 35 3 35 2 38v91l-2 40-3 33-5 33-6 26-6 19-1 1-23 2-21 1h-39l-40-2-22-2 1-4 9-15 7-16 6-18 6-25 5-32 3-28 2-37v-54l-3-48-4-33-5-28-7-28-7-19-10-19-5-7v-1l16-1z" fill="#FEFEFE"/>
<path transform="translate(449,74)" d="m0 0 3 1-23 11-7 4-11 4-8 5-16 7-4 3 14-7h2v2l-11 9-11 11-9 11-10 13-14 21-11 19-8 13-7 10-2 8-5 34-4 30-4 43-4 10v11l1 2v-5l3-1 1-5h-2l-1 5h-2l1-8 5-9 5-3-1-5-1 5h-3l3-36 5-37 4-22 3-10-3 1 1-6 6-9 5-6h11l-2 6-5 5v1l2 1-7 34-5 37-4 48-4-4 1 3 3 7-1 15-4 6-7 1-4-3 5 48v8h2l-4-43v-9l3 2 4-1 1 3 2-6 2-3h2l3 37 5 38 6 33 1 2 2-1 3 11 3 2v3l5 2 15 7 29 11 40 13 44 12 53 12 55 10 52 7 32 3 17 1 6 1-3 3-9 4-15 3-24 2-25 1h-77l-46-2-45-4-31-4-11-8-13-11-20-20-9-11-10-13-6-9 5 9 11 14 11 13 21 21 14 11 30 20 6 5-1 5h-14l-15-3-10-7-10-9-8-7-7-7-9-11-12-15-12-17-14-23-2-3h-2l12 20 12 18 12 16 12 14 9 10 16 14-2 1-16-8-8-5 10 7 13 6 9 3 9 5 11 3 17-1 2-5-4-5-17-11-5-4 39 4 37 3 47 2h68l40-2 22-3 14-5 4-3h2v-2l17-1 16-3 8 8 8 4-6 9-4 14-1 8-1 1-96 1h96l1 6-1 1-33 1-32 6-48-1h-93l-30 1h-14l-21-8-11-4 6 3v1l-9-1-27-9-18-8-16-9-14-10-7-7-10-13-9-14-3-5 1-2 9 12-7-11-9-11-9-14-12-24-6-18-5-26-5-36-3-34-1-17v-11l2-32 4-37 5-33 5-20 9-21 10-20 8-11 12-17 14-19 11-11-7 6-8 9-13 18-4 6-1-2 11-18 10-13 6-7 15-11 15-9 19-9 24-9z" fill="#FDFDFD"/>
<path transform="translate(608,90)" d="m0 0h32l22 1 19 3 12 5h17l16 1 9-7 4-2 3 1-10 6-3 3 90 18 78 16 27 5 28 3 50 3 71 2 80 1h153l45-1 38-2 28-3 35-6 87-17 36-6 29-3 20-1 38-1h25l32 1 25 2-5-6-5-3v-4l10 3 11 6 9 8 5 8 1 7-7-6-6-3-7-5v2l8 28 7 36 5 39 3 44 1 27v73l-2 44-3 34-5 34-6 27-8 24v2l7-4 10-9 2-2h4l-3 10-6 8-8 7-2 2-19 9-5 1 4-6 6-7 7-10 1-2-26 2h-76l-47-4-26-4-27-6-74-18-43-9-30-4-28-2-55-2h-154l-62 1-39 1-58 3-36 3-30 4-24 5-35 10-47 14-101 31 5 6 8 5-2 1-8-5-7-6-15 3h-17v2l-8 5-12 4-22 3-40 2h-68l-47-2-48-4-26-3 21 14 4 5-2 5-1 1-19 1-9-3-14-7-11-4-11-6-6-5h3l11 7 12 5-20-18-7-8-11-13-14-19-12-19-8-13v-2l3-1 9 16 14 21 9 12 13 16 12 13 11 10 10 8 8 4 12 2h14l-1-5-14-10-16-10-14-11-12-11-18-18-11-14-11-15-1-4 5 5 9 13 9 11 12 13 15 15 14 11 6 4 40 5 36 3 46 2h77l40-2 20-3 11-4 4-2-5-1-40-3-47-6-37-6-46-9-43-10-43-12-43-14-30-12-13-7 1-2 16 8 20 8 44 15 35 10 36 9 53 11 41 7 44 6 30 3 14 1h13l-11-10-13-17-12-22-8-19-9-27-7-30-5-30-3-28-1-17v-63l3-34 4-28 7-32 9-29 9-21 10-19 10-13 8-8 7-5-34 4-37 6-44 9-60 15-40 12-47 16-40 16-30 14-16 10-2 3-8 39-5 38-2 26v53l3 32 6 42 4 21v6l-3-3-6-33-5-38-2-22v-15l-4 4-1 11h-1l-1-9h-3v7h-1l-2-7 1 19 2 20v12h-2l-5-46v-10l4 2 7-1 3-5 1-15-3-7-2-5 2-1 3 6 2-24 4-40 6-36 4-18-3-1 5-4 4-8-11 1-8 10-4 10 4-2-3 11-4 22-5 37-3 32-1 4h3l1-11h1l1 12-5 2-5 9-2 8 2-1 1-4h2v5l-4 1 1 7-2-1-1-3v-11l4-10 5-52 7-46 2-14 4-8 8-11 9-16 11-18 12-17 11-14 8-7 2-1-2 4-11 13-14 19-13 21-8 15-1 3 10-3 11-17 12-16 12-14 19-19 14-11 10-7 14-9 5-4 3 1-4 4-15 9 43-8 44-6 39-4 33-2zm87 11-11 8v2l-4 2-8 8-10 15-8 16-8 20-8 26-6 26-5 32-3 32-1 24v18l2 43 4 34 5 29 7 28 9 26 9 20 8 14 9 13 9 10 10 9 16-1 12-3-6-9-7-11-10-19-10-25-10-31-2-9h-1v18l-4-1-3-14-2-19 4 28 2 4h2l-2-36-8-96-1-13-3-1v13l3 42v9l-3-40-2 1v47l3 1 2 53 3 23 10 46 2 10 7 16v2l-8-18-2-5-1-11-5-22-2-1 1-4-4-24-2-19-1-4h-3v-3h3v-17l-1-21h-3l1-76h6l1 21 8 95 2 11 7 25 10 29 11 25 11 19 7 9 8-1 38-12 33-10 60-18 37-11-9-27-7-30-5-35-3-32-2-45v-31l2-46 3-30 6-37 7-27 6-16v-3l-12-3-113-23-46-9h-3v-2l-9-1zm957 10-34 1-16 1 4 7 6 10 8 17 7 23 6 27 5 33 3 30 2 36v54l-2 37-4 36-5 29-7 27-8 21-8 15-5 7v3l37 3 25 1h39l36-2 8-1 4-10 7-26 6-36 3-26 2-30 1-24v-91l-3-52-4-37-5-30-7-29-6-18-2-3-22-2-25-1zm-49 13-100 13-64 9-4 1 1 8 6 28 5 31 3 28 2 28 1 23v50l-2 40-4 40-6 35-5 21v4l100 17 67 12h5l8-16 7-18 7-28 5-30 4-38 1-17 1-32v-21l-1-32-3-40-5-36-6-29-7-24-7-16-6-11zm-702 15-5 12-6 19-5 23-5 33-3 32-1 22v65l2 35 4 40 6 34 8 29 6 15 8-1 34-7 35-4 43-3 45-2 114-2h124l39 1 50 3 33 4h4l6-21 6-33 4-31 3-42v-82l-3-42-4-33-7-38-5-20-1-2-23 3-34 3-27 1-52 1h-116l-92-1-48-1-51-2-43-3-30-4z" fill="#161416"/>
<path transform="translate(1133,495)" d="m0 0h128l37 1 50 3 33 4 22 4h7l25 7 13 5 10 6 4 5 2 4v8l-5 12-11 19-9 14-2 3 3-1 60-3 17-1-1-4v-10l3-5 5-4 8-3 6-1h9l9 2 8 5 3 5v11l78-9 40-5v2l-42 6-62 7-16 1-2 4-10 5-12 2h-10l-9-3-3-2v-2l-25 2-59 3-14 7-19 6-15 3h-8v-1l24-5 19-6 8-4-52 1-2-1h-27l-122 2-79 1h48l82-1 51-1h19l-3 3-11 2v3l6 3v1l-73 1h-42l-140-1 2-3-1-4-3-2-18-1-13-2-9 1h11l10 2v1l-17 1 17 1v1l-7 1 10-1 1-1h5l1 4-2 2-10 1h-21l-12-2-5-2v-2l1-1h-4l3 6h-189l-2-3v-4l122-1 73-1-195 1-3-7-4-13v-2h27l21 1v-2h-34l-16-1-1-4h290l134-3 93-3 70-3 28-2 8-3 6-8 2-4v-9l-4-6-16-8-26-7-25-5-31-4-41-3-27-1-53-1h-84l-7 66-1 1-25 1 1-7 15-53z" fill="#252325"/>
<path transform="translate(1451,50)" d="m0 0h68l38 2 19 3 13 3 81 10 30 5 2 2-13 3-2 4 3 3 27 9 13 5 11 8 3 3v2h-11l-14-1-32-1h-25l-38 1-32 2-37 5-67 13-52 10-35 5-26 2-24 1-45 1h-153l-80-1-71-2-50-3-28-3-27-5-168-34v-3l13-8 16 4 64 14 53 11 43 7 33 4 35 3 43 2h231l39-1 40-2 35-3 34-5 27-6 16-6 6-4 2-3-1-9-8-12-9-12-7-7v-1h17l59 2 4 2v7l2 5 8 4 7 2h19l9-4 3-4v-8l18 1 67 7 34 4 2 1v-2l-15-1-60-7-45-4-12-6-11-2h-12l-9 2-3 2h-15l-64-2-11-2-16-3-20-2 3-2 19-3 13-1z" fill="#FEFEFE"/>
<path transform="translate(1059,502)" d="m0 0h53l-5 12-13 28-11 24-20 1h-154l-75-1-24-1-4-1v-14l60-19 44-12 34-7 35-5 33-3z" fill="#FEFEFE"/>
<path transform="translate(695,101)" d="m0 0h19l9 1 1 3-7 8-10 16-9 17-11 26-9 27-13 50-8 28-3 1-3-2 1-11 7-36v-3l-10 28-4 18-2 30v55l2 28 4 30 8 39v-56l1-6h4l1 21v17h-3v3h3l2 15 5 35-1 1 2 1 6 27v7l2 4 8 19-1-5-6-14-6-28-7-34-2-17-2-53-3-1v-47l2-1 3 40-1-23-2-28v-13l3 1 8 98 3 44v3l-3-1-1-3-5-36 4 33 2 8 4 1v-18h1l5 19 11 32 11 24 9 16 8 11 1 2-12 3-16 1-15-14-10-13-12-21-10-23-9-28-6-26-5-31-3-27-2-43v-18l2-38 4-32 5-28 8-30 10-28 8-16 8-13 7-9 7-7h2l2-4z" fill="#FEFEFE"/>
<path transform="translate(1149,501)" d="m0 0h63l57 1 55 2 25 2 6 1-1 10-9 40-1 3-14 1-94 3-93 2v-9z" fill="#FEFEFE"/>
<path transform="translate(726,553)" d="m0 0 7 6 8 5 2 2-6 8-4 14-1 8-1 1-96 1h96l1 6-1 1-33 1-32 6-48-1h-93l-30 1h-14l-21-8-20-8-12-6v-1l17-1 2-5-4-5-17-11-5-4 39 4 37 3 47 2h68l40-2 22-3 14-5 4-3h2v-2l17-1z" fill="#FEFEFE"/>
<path transform="translate(341,478)" d="m0 0 6 2 16 8 29 11 40 13 44 12 53 12 55 10 52 7 32 3 17 1 6 1-3 3-9 4-15 3-24 2-25 1h-77l-46-2-45-4-31-4-11-8-13-11-20-20-9-11-10-13-12-19z" fill="#FEFEFE"/>
<path transform="translate(601,92)" d="m0 0h47l25 2 12 3 5 2v2l-41 5-41 7-42 9-48 12-34 10-40 13-30 11-34 14-29 14-10 6 2-6 10-16 12-16 9-11 14-15 7-7 11-9 10-7 16-4 32-6 44-6 40-4z" fill="#FEFEFE"/>
<path transform="translate(1734,99)" d="m0 0 10 3 11 6 9 8 5 8 1 7-7-6-6-3-7-5v2l8 28 7 36 5 39 3 44 1 27v73l-2 44-3 34-5 34-6 27-8 24v2l7-4 10-9 2-2h4l-3 10-6 8-8 7-2 2-19 9-5 1 4-6 6-7 7-10 1-2-26 2h-76l-47-4-26-4-27-6-74-18-43-9-30-4-28-2-55-2h-173l-19-1v-1l57-1h124l39 1 50 3 33 4 4 1 2-10 5-21 6-37 3-28 2-31v-82l-3-42-4-33-7-38-5-20v-2l-16 3-27 3-14 1-27 1-52 1h-116l-92-1-48-1-51-2-43-3-30-4-13-2 3-2 14 2 23 3 41 3 49 2 42 1 80 1h153l45-1 38-2 28-3 35-6 87-17 36-6 29-3 20-1 38-1h25l32 1 25 2-5-6-5-3zm-82 12-34 1-16 1 4 7 6 10 8 17 7 23 6 27 5 33 3 30 2 36v54l-2 37-4 36-5 29-7 27-8 21-8 15-5 7v3l37 3 25 1h39l36-2 8-1 4-10 7-26 6-36 3-26 2-30 1-24v-91l-3-52-4-37-5-30-7-29-6-18-2-3-22-2-25-1zm-49 13-100 13-64 9-4 1 1 8 6 28 5 31 3 28 2 28 1 23v50l-2 40-4 40-6 35-5 21v4l100 17 67 12h5l8-16 7-18 7-28 5-30 4-38 1-17 1-32v-21l-1-32-3-40-5-36-6-29-7-24-7-16-6-11z" fill="#1B1A1B"/>
<path transform="translate(1056,86)" d="m0 0h19l8 11 14 20 8 11v1h-75l-42-2-38-3-51-7-38-7-54-11-4-2 1-5 7-1 109-3 49-1z" fill="#FEFEFE"/>
<path transform="translate(519,62)" d="m0 0h108l20 1 21 3 4 2h-45v2l34-1h25l42 1 7 13 4 5 3 3-10 5-6 5-21-1h-12l-12-5-19-3-22-1h-32l-44 2-35 3-42 5-38 6-25 5-3-1 18-11 7-6v-6h-17l3-3 17-8 35-12 14-2z" fill="#FEFEFE"/>
<path transform="translate(1134,86)" d="m0 0h118l63 1 25 1 11 28 2 5-1 4-55 3-45 1-106 1-3-8-9-32z" fill="#FEFEFE"/>
<path transform="translate(1748,116)" d="m0 0 5 2 10 8 8 8 5 7 4 13 9 47 3 23 3 41 1 26v72l-2 40-4 39-6 37-5 22-4 9-7 8-8 8-7 5-4 1 1-5 8-26 6-29 5-37 2-25 2-44v-73l-2-44-3-36-5-36-7-34-7-24z" fill="#FEFEFE"/>
<path transform="translate(784,76)" d="m0 0 4 2 4 3 5 1 18 1-1 3-9 1h22l79-2 126-2h69l-1-3-3-2 4-1 209 1 63 1v1h-270v3h164l109 2 38 1 19 1 8 2 8 7 2 4-1 7-5 4-13 5-22 5-26 4-29 3-48 3-44 1h-120l-7-23-6-22-1-1h-23l9 19 14 30 102 1v1h-202l-18-1v-1h44l71 1-4-10-16-33-3-6v-2l-23 2 14 20 12 17 4 6v3h-34l-50-1-42-2-34-3-39-5-41-7-49-10-37-8v-2l16 3 1-12h-14l-2-2h11l-9-3-3-3zm350 10 1 7 10 36 2 1 105-1 45-1 55-3 1-4-13-33-25-1-63-1zm-78 0-87 1-126 3-32 1-7 1-1 5 9 3 75 15 47 7 38 4 33 2 25 1h75l-7-11-11-15-11-16-1-1z" fill="#161516"/>
<path transform="translate(826,575)" d="m0 0h282l1 2-5 18h-39l-13-2-9 1h11l10 2v1l-17 1 17 1v1l-7 1 10-1 1-1h5l1 4-2 2-10 1h-21l-12-2-5-2v-2l1-1h-4l3 6h-189l-2-3v-4l122-1 73-1-195 1-3-7-4-13z" fill="#FEFEFE"/>
<path transform="translate(1425,567)" d="m0 0h23l-2 6-10 15-2 2-85 2-122 2-79 1h-42l2-10 3-10 153-3 139-4z" fill="#FEFEFE"/>
<path transform="translate(695,101)" d="m0 0h19l9 1 1 3-7 8-10 16-9 17-11 26-9 27-13 50-8 28-3 1-3-2 1-11 7-36v-3l-10 28-4 18-2 30v55l2 28 4 30 8 39v-56l1-6h4l1 21v17h-3v3h3l2 15 5 35-1 1 2 1 6 27v13l-3-4-12-36-4-20-6-22-7-37-3-25-1-14-5-1-4-25-1-12v-22l3-31 5-20 9-29 4-22 7-25 7-20 12-27 11-21h-7l2-1 2-4z" fill="#454345"/>
<path transform="translate(1725,76)" d="m0 0h19l9 4 10 7 10 10 8 15 7 24 7 32 6 40 3 31 2 34 1 35v39l-2 52-3 36-6 45-5 28-6 26-6 16-7 12-9 10-10 7-10 4h-9l-12-2 3-2 13-5 9-6 8-7 9-14 5-11 7-25 8-10 5-21 3-20v-14l-1-7 4-40 1-18 1-34v-37l-2-56-3-36-2-18 1-4v-9l-5-28-3-10-4-6-6-8-5-18-8-16-7-8-13-9-11-5-4-1z" fill="#FEFEFE"/>
<path transform="translate(1141,64)" d="m0 0h191l8 1h14l6-1h45l26 1 8 7 6 7v2h-20l-33-1-82-1-209-1-6-11v-2z" fill="#FEFEFE"/>
<path transform="translate(1133,495)" d="m0 0h128l37 1 50 3 33 4 31 6 22 6 15 6 9 6 4 6v9l-4 10-8 13-42 2-102 3-133 3h-61l1-4 134-3 93-3 70-3 28-2 8-3 6-8 2-4v-9l-4-6-16-8-26-7-25-5-31-4-41-3-27-1-53-1h-84l-7 66-1 1-25 1 1-7 15-53z" fill="#FEFEFE"/>
<path transform="translate(1364,508)" d="m0 0 23 3 29 6 20 6 13 7 3 5-1 9-4 6-5 4-7 2-55 3-26 1-1-3 10-46z" fill="#FEFEFE"/>
<path transform="translate(1103,79)" d="m0 0h167l136 2 33 1 8 1 7 9 4 7v7l-5 5-10 5-23 6-35 6-29 3-52 3-30 1-67 1h-78l-8-16-16-33 1-2h23l2 2 12 43v2l120-1 44-1 48-3 37-4 28-5 21-6 8-5 1-7-4-6-5-4-8-2-19-1-88-2-59-1-164-1-1-3z" fill="#FEFEFE"/>
<path transform="translate(1017,61)" d="m0 0h28l7 1 5 1 5 2v2l3 1 1-3h27l6 11v2l-97 1-110 2-36 1h-33l5-13 1-1 134-2h37v2l14 1 10 2h13l-16-1-5-1 3-2 18-1 3-1-4-1h-17l-6 1-1 2h-9l3-3z" fill="#FEFEFE"/>
<path transform="translate(608,90)" d="m0 0h32l22 1 19 3 10 4-1 3v-2l-5-1-12-3-25-2h-47l-53 3-49 5-41 6-40 8-11 7-10 9-8 7-9 9-7 8-12 15-16 24-3 7 13-8 27-13 27-11 27-10 41-14 34-10 42-11 50-11 40-7 29-4 6 1v1l-37 5-40 7-45 10-43 11-40 12-47 16-40 16-30 14-16 10-2 3-8 39-5 38-2 26v53l3 32 6 42 4 21v6l-3-3-6-33-5-38-2-22v-15l-4 4-1 11h-1l-1-9h-3v7h-1l-2-7 1 19 2 20v12h-2l-5-46v-10l4 2 7-1 3-5 1-15-3-7-2-5 2-1 3 6 2-24 4-40 6-36 4-18-3-1 5-4 4-8-11 1-8 10-4 10 4-2-3 11-4 22-5 37-3 32-1 4h3l1-11h1l1 12-5 2-5 9-2 8 2-1 1-4h2v5l-4 1 1 7-2-1-1-3v-11l4-10 5-52 7-46 2-14 4-8 8-11 9-16 11-18 12-17 11-14 8-7 2-1-2 4-11 13-14 19-13 21-8 15-1 3 10-3 11-17 12-16 12-14 19-19 14-11 10-7 14-9 5-4 3 1-4 4-15 9 43-8 44-6 39-4 33-2z" fill="#242324"/>
<path transform="translate(1069,495)" d="m0 0h63l-9 34-10 36-1 2h-26l2-6 16-34 9-20 4-9-22 1-44 1-43 2-40 4-32 5-31 7-33 9-42 13-27 9-8 3-24 8-11 5 10 2 1 4-16-1-11-2 3-3 27-11 44-15 44-14 36-10 36-8 30-5 40-4 35-2z" fill="#FEFEFE"/>
<path transform="translate(1147,498)" d="m0 0h84l53 1 44 2 33 3 33 5 30 7 15 5 11 6 4 5 1 2v9l-6 10-5 4-6 2-28 2-98 4-106 3-44 1h-31v-1l-7-1v-1l15-1 7-66zm2 3-6 56v9l93-2 94-3 14-1 7-30 4-18v-5l-16-2-36-2-34-1-57-1zm215 7-8 36-3 15 3 1 65-3 14-1 9-3 6-7 2-5v-6l-3-5-16-8-21-6-31-6z" fill="#161416"/>
<path transform="translate(1349,88)" d="m0 0h19l65 2 9 3 5 5 1 6-4 4-9 4-21 5-31 5-20 2-4-9-10-25z" fill="#FEFEFE"/>
<path transform="translate(1115,83)" d="m0 0h152l109 2 38 1 19 1 8 2 8 7 2 4-1 7-5 4-13 5-22 5-26 4-29 3-48 3-44 1h-120l-7-23-6-22-1-1-15-1zm19 3 1 7 10 36 2 1 105-1 45-1 55-3 1-4-13-33-25-1-63-1zm215 2 3 9 10 26 3 1 32-4 31-6 12-4 7-4 1-5-3-5-5-4-7-2-65-2z" fill="#121012"/>
<path transform="translate(1329,593)" d="m0 0h19l-3 3-11 2v3l6 3v1l-73 1h-42l-122-1 1-6 1-2 12-1 161-2z" fill="#FEFEFE"/>
<path transform="translate(1092,85)" d="m0 0h11l16 32 7 15v4h-71l-58-2-50-4-38-5-41-7-77-16-42-10-5-2v-2l18-2h7l-1 3-6 1 4 2 74 16 52 10 40 6 39 4 29 2 26 1 84 2-4-8-11-15-14-20-2-4z" fill="#FEFEFE"/>
<path transform="translate(667,191)" d="m0 0h3l2 2-2 9-7 16-2-1-2 9-10 28-4 18-2 30v55l2 28 4 30 8 39v-56l1-6h4l1 21v17h-3v3h3l2 15 5 35-1 1 2 1 6 27v13l-3-4-12-36-4-20-6-22-7-37-3-25-1-14-4-3-4-30v-33l3-27 1-5 5-16 2-2 2-10 9-23h2l3-11z" fill="#545254"/>
<path transform="translate(791,567)" d="m0 0h21l5 1 6 29 9 35 1 6-1 1h-8l-11-4-8-7-6-7-8-14-5-12-1-5-1-8v-10l4-4z" fill="#FEFEFE"/>
<path transform="translate(329,198)" d="m0 0h11l-2 6-5 5v1l2 1-7 34-5 37-4 48-4-4 1 3 3 7-1 15-4 6-7 1-4-2-3-4v-8l3-1 1-5h-2l-1 5h-2l1-8 5-9 5-3-1-5-1 5h-3l3-36 5-37 4-22 3-10-3 1 1-6 6-9z" fill="#2C2A2C"/>
<path transform="translate(336,483)" d="m0 0 7 2 8 11 12 16 11 13 21 21 14 11 30 20 6 5-1 5h-14l-15-3-10-7-10-9-8-7-7-7-9-11-12-15-12-17-14-23-1-4z" fill="#FEFEFE"/>
<path transform="translate(824,15)" d="m0 0h7l-1 8-10 45-2 14-3 1h-18l-7-2-5-5-1-4v-7l5-15 8-15 7-9 9-8z" fill="#FEFEFE"/>
<path transform="translate(318,354)" d="m0 0h2l3 37 5 38 6 33 1 2 2-1 3 11 3 2-1 3 5 9-2 1-4-4-5-1-8 1-9-12-3-8-4-26-3-20v-20l-3-31v-9l3 2 4-1 1 3 2-6z" fill="#282728"/>
<path transform="translate(433,89)" d="m0 0h11l1 4-8 7-17 11-14 10-14 12-18 18-9 11-14 19-9 14-6 2h-4l1-5 8-15 14-22 10-13 9-11 9-10 14-14 16-12 10-4z" fill="#FEFEFE"/>
<path transform="translate(343,477)" d="m0 0 19 9 29 11 43 14 44 12 45 10 47 9 55 8 38 4 28 2 1 4-6 4-12 4-22 3-40 2h-68l-47-2-48-4-26-3 21 14 4 5-2 5-1 1-19 1-9-3-14-7-11-4-11-6-6-5h3l11 7 12 5-20-18-7-8-11-13-14-19-12-19-8-13v-2l3-1 9 16 14 21 9 12 13 16 12 13 11 10 10 8 8 4 12 2h14l-1-5-14-10-16-10-14-11-12-11-18-18-11-14-11-15-1-4 5 5 9 13 9 11 12 13 15 15 14 11 6 4 40 5 36 3 46 2h77l40-2 20-3 11-4 4-2-5-1-40-3-47-6-37-6-46-9-43-10-43-12-43-14-30-12-13-7z" fill="#272627"/>
<path transform="translate(695,101)" d="m0 0h19l8 1-2 5-7 9-10 17-8 16-8 19h-1l1-10 4-17 1-7h-5l-14 41-5 13-10 21-5 13-2 1 1-11 5-20 10-30 10-23 13-25 1-2-7-2 5-5z" fill="#FEFEFE"/>
<path transform="translate(1734,99)" d="m0 0 10 3 11 6 9 8 5 8 1 7-7-6-6-3-7-5v2l8 28 7 36 5 39 3 44 1 27v73l-2 44-3 34-5 34-6 27-8 24v2l7-4 10-9 2-2h4l-3 10-6 8-8 7-2 2-19 9-5 1 4-6 6-7 7-10 1-2-26 2-17-1v-1l36-2 8-1 7-23 5-22 5-33 3-33 2-40v-91l-3-52-4-37-5-30-7-29-6-18-1-2-22-2v-1l10-1 11 1-5-6-5-3z" fill="#3F3D3F"/>
<path transform="translate(691,99)" d="m0 0h19l9 1v2h-24l-10 7-12 12-10 15-8 16-8 20-8 26-6 26-5 32-3 32-1 24v18l2 43 4 34 5 29 7 28 9 26 9 20 8 14 9 13 9 10 9 8 16-1 8-1-2 3-6 1h-17v2h-2l-4-6-9-8-13-17-12-22-8-19-9-27-7-30-5-30-3-28-1-17v-63l3-34 4-28 7-32 9-29 9-21 10-19 10-13 8-8 7-5h-13v-1l5-1h11z" fill="#171617"/>
<path transform="translate(955,597)" d="m0 0h78v2h-12l3 6h-189l-2-3v-4z" fill="#FEFEFE"/>
<path transform="translate(823,569)" d="m0 0h288l-2 5h-269l-16-1z" fill="#FEFEFE"/>
<path transform="translate(1433,486)" d="m0 0 11 1 90 15 72 13-4 8-1 1-14-1-31-6-77-19-36-8-10-2z" fill="#FEFEFE"/>
<path transform="translate(1766,533)" d="m0 0 1 3-7 14-7 9-9 9-10 6-15 5h-12l-12-3-4-3v-4l15-6 35-12 12-6 9-7z" fill="#FEFEFE"/>
<path transform="translate(1050,79)" d="m0 0h50l1 4-195 3-79 2h-22l-1-2 10-1 3-1 60-2 88-2z" fill="#FEFEFE"/>
<path transform="translate(741,570)" d="m0 0h8l24 3 8 21v3h-48l2-13 5-13z" fill="#FEFEFE"/>
<path transform="translate(1779,146)" d="m0 0h2l4 5 6 29 1 7v9l-1 8 3 24 2 26 2 56v37l-1 34-2 30-3 28 1 7v14l-5 30-3 11-5 3h-2l2-10 5-26 5-35 4-44 1-26v-72l-2-42-3-34-6-36-5-25z" fill="#313031"/>
<path transform="translate(660,316)" d="m0 0h6l5 57 5 59 2 11 7 25 10 29 11 25 11 19 4 5-1 3-10-15-11-21-10-25-10-31-1-4-1 13-5-1-3-14-4-35v-16h1l3 32 3 23 2 4v4l2 1-1-3-3-44-8-98-2-1 4 55v12l-2-3-3-39v36l-1 11h2l1-4 1 6 2 52 3 23 10 46 2 10 7 16v4l-4-1 2-1-8-18-1-3-1-2-1-11-4-18v-4l-3-1 1-4-4-24-2-23h-3v-3h3l-1-17v-21h-3v-74z" fill="#323132"/>
<path transform="translate(1535,560)" d="m0 0h15l9 3 6 7 1 9-3 3-36 3h-8l-1-1v-14l5-6 7-3z" fill="#FEFEFE"/>
<path transform="translate(1588,114)" d="m0 0h12l4 7-19 3-151 20-2-1 6-2 115-22z" fill="#FEFEFE"/>
<path transform="translate(667,191)" d="m0 0h3l2 2-2 9-7 16-2-1-2 9-10 28-4 18-2 30-1 7h-1l-2 14h-6v-22l3-27 1-5 5-16 2-2 2-10 9-23h2l3-11z" fill="#454345"/>
<path transform="translate(1084,493)" d="m0 0h47v1l-5 1-57 1-50 2-37 3-32 4-40 8-38 10-38 12-36 12-29 10-15 6-9 4 10 2 11 1-4 2-21-1-5 13-4 19h-1v-5l-39 1h-57l-1-2 97-1 3-16 4-9 5-6 27-11 50-17 43-14 37-10 30-7 37-6 28-3 52-3z" fill="#222122"/>
<path transform="translate(1782,502)" d="m0 0v3l-5 6-8 28-8 15-8 10-10 8-12 6-6 2v1l9 1-1 2-22-1-18 5-28 5-61 9-23 6-13 3v-2l29-8 36-6 41-6 29-6 3-1-7-2-9-4-2-2v-5l5-4 27-10 11-6 4-2-4 5 13-5 11-6 11-10 5-10 2-5-3-1 6-8 1-3zm-16 31-6 7-14 9-51 18-4 2 1 5 6 3 9 2h12l15-5 10-6 12-12 9-15 2-5z" fill="#242224"/>
<path transform="translate(1711,582)" d="m0 0h9l18 2-2 2-34 7-49 7-40 5-27 6h-16l3-2 31-8 74-11 27-6z" fill="#FEFEFE"/>
<path transform="translate(1699,77)" d="m0 0h17l14 4 14 7 12 11 9 14-1 2-7-7-10-6-36-12-16-5-5-2 1-4z" fill="#FEFEFE"/>
<path transform="translate(1111,570)" d="m0 0 1 3h22v1l-23 1-4 17v3l10 1v1h-12l-2 8h-18l2-3-1-4-3-2 20-1 5-18-2-1h-232v-2l235-1z" fill="#292829"/>
<path transform="translate(1515,68)" d="m0 0h13l28 2 5 2v8l-6 5-8 2h-13l-11-3-5-3-3-4z" fill="#FEFEFE"/>
<path transform="translate(1528,61)" d="m0 0h12l14 3 9 5 55 5 65 8v2l-82-9-33-3-6-1 1 2v6l-5 6-8 3h-19l-12-4-5-5-1-3v-7l-3-1-59-2-16-1v-1h37l29 1h15l6-3zm-13 7v9l5 6 9 3 5 1h13l10-3 4-4v-8l-5-2-28-2z" fill="#262426"/>
<path transform="translate(608,90)" d="m0 0h32l22 1 19 3 10 4-1 3v-2l-5-1-12-3-25-2h-47l-53 3-49 5-41 6-40 8-11 7-10 9-8 7-9 9-7 8-12 15-11 16-2-2 13-18 11-13 7-8 17-17 14-11 10-7 14-9 5-4 3 1-4 4-15 9 43-8 44-6 39-4 33-2z" fill="#262526"/>
<path transform="translate(1426,62)" d="m0 0 11 1-2 3 9 9 14 20 2 5v6l-5 6-11 5-21 6-27 5-31 4-43 3-23 1-39 1h-29l-24-1v-1l67-1 51-2 42-3 31-4 31-6 16-5 10-5 2-3v-7l-9-14-1-1-8-1-33-1-57-1v-1l24-1h19l53 2-9-11-5-4-26-1v-1l20-1z" fill="#262526"/>
<path transform="translate(1734,99)" d="m0 0 10 3 11 6 9 8 5 8 1 7-7-6-6-3-7-5v2l8 28 7 36 5 39 3 44v34h-1l-3-55-3-35-5-35-7-33-7-23-2-4-22-2v-1l10-1 11 1-5-6-5-3z" fill="#292829"/>
<path transform="translate(742,69)" d="m0 0h34l-1 5-4 10-26 3h-5l-6-7-4-8v-2z" fill="#FEFEFE"/>
<path transform="translate(1345,55)" d="m0 0 21 2v2l5-1 6 1 1 5-18 1-6 1h-14l-8-1-120-1v-1l72-2h31v2l5-1-2-2 9-3z" fill="#2D2C2D"/>
<path transform="translate(342,526)" d="m0 0 5 5 11 15 7 6 7 8 6 7 14 8 11 4 14 7 13 4 14 7v2l10 3 1 2-9-1-27-9-18-8-16-9-14-10-7-7-10-13-9-14-3-5z" fill="#EAEAEA"/>
<path transform="translate(1131,493)" d="m0 0h88l67 1 42 2 34 3 33 5 13 3v1l-10-1-31-5-32-3-37-2-37-1-128-1-2 12-15 53-2 7-2-2 11-40 8-29-5-1v-1z" fill="#272627"/>
<path transform="translate(659,392)" d="m0 0h3l1 21v17h-3v3h3l2 15 5 35-1 1 2 1 6 27v6l-2 2-10-30-4-22-2-22z" fill="#FDFDFD"/>
<path transform="translate(318,354)" d="m0 0h2l3 37 5 38 6 33 1 7-4-1-5-19-4-22-5-37-2-22v-10z" fill="#FEFEFE"/>
<path transform="translate(1349,591)" d="m0 0h27l4 2-1 3h-2v-2h-17l-9 1 10 1v1h-11v2h17v1h-20l-4-1h-7l2-3 9-2h-18l-51 1-82 1h-89v-1l41-1 148-2z" fill="#222022"/>
<path transform="translate(333,210)" d="m0 0 2 1-7 34-5 37-4 48-4-4v-15l3-34 4-29 6-29 2-7z" fill="#FEFEFE"/>
<path transform="translate(729,72)" d="m0 0h2l6 11 3 3 18-1 4 2-18 1v2l17 4 40 9 72 15 49 8 35 4 40 3 22 1v1l-16 1-42-3-36-4-39-6-55-11-73-16-16-5-6-5-6-10z" fill="#262526"/>
<path transform="translate(331,484)" d="m0 0 2 1 5 10 12 19 13 18 14 17 12 13 11 10 10 8 8 4 12 2h14l-1-5-7-5v-2l5 2 6 5 1 4-3 4-19 1-9-3-14-7-11-4-11-6-6-5h3l11 7 12 5-20-18-7-8-11-13-14-19-12-19-8-13v-2z" fill="#191819"/>
<path transform="translate(688,136)" d="m0 0 3 1-6 28-8 31-13 51-4 15-2 4-2 9h-3l1-12h2l-1-6 6-29 5-17 2-2-2 13-7 31 3-11 8-34 1-1 3-15 11-44z" fill="#FEFEFE"/>
<path transform="translate(306,325)" d="m0 0h6l4 4 3 7-1 15-4 6-7 1-4-2-3-4v-8l3-1 1-5h-2l-1 5h-2l1-8 5-9z" fill="#D3D2D3"/>
<path transform="translate(684,110)" d="m0 0 7 1v3l-15 29-11 27-9 29-4 19v4l3-7h2v3h-2l-1 5-8 21-1 8-3 3-5 17 2 1-2 1-3 27v33l4 30 2 2-2 1-2-1-4-25-1-12v-22l3-31 5-20 9-29 4-22 7-25 7-20 12-27 11-21h-7z" fill="#2C2B2C"/>
<path transform="translate(449,74)" d="m0 0 3 1-23 11-7 4-11 4-8 5-16 7-6 4-3 4-5 2-10 10-13 18-7 10-1-2 11-18 10-13 6-7 15-11 15-9 19-9 24-9z" fill="#FBFBFB"/>
<path transform="translate(683,142)" d="m0 0 2 1 1 5-11 44-3 15-3 9-9 39-2 2 1-9 8-36v-6l4-10-1-5h-3l-3 9-6 16-3-2 9-20 6-13 12-36z" fill="#403E40"/>
<path transform="translate(800,551)" d="m0 0h2l1 4v10l-13 2-5 2-1 2v19l-3-4-9-22-1-3 16-6z" fill="#FEFEFE"/>
<path transform="translate(782,64)" d="m0 0h1l1 11 3 5 10 4v1h-10l14 1v9l-1 3-9-1-19-4-2-2 7-14z" fill="#FEFEFE"/>
<path transform="translate(330,194)" d="m0 0 1 2-7 9-5 8-2 6 4-2-3 11-4 22-5 37-3 32-1 4h3l1-11h1l1 12-5 2-5 9-2 8 2-1 1-4h2v5l-4 1 1 7-2-1-1-3v-11l4-10 5-52 7-46 2-14 4-8 8-11z" fill="#1D1C1D"/>
<path transform="translate(1538,558)" d="m0 0h9l9 2 8 5 3 5v11l78-9 40-5v2l-42 6-62 7-16 1-2 4-10 5-4 1h-13v-1l19-3 6-4h2v-2l-3 1-11 1h-16v-1l32-3v-8l-3-6-5-4-7-2h-15l-10 3-5 4-2 6h-1v-6l7-6 8-3z" fill="#242324"/>
<path transform="translate(1360,593)" d="m0 0h11l6 1v2l2-1 15-1 3 3-1 2-11 3h-2l-17 2h-15l-12-2-3-3 9-1 5 1v-2l-2-2z" fill="#A8A8A8"/>
<path transform="translate(662,318)" d="m0 0 3 1 8 98 3 44v3l-3-1v-12l-6-58-3-34-2-28z" fill="#FEFEFE"/>
<path transform="translate(1379,305)" d="m0 0h24l2 1v2l-16 1v2l2-1h28l1 3-3 1h-27v2h16l-2 4h-24l-2-2v-11z" fill="#FEFEFE"/>
<path transform="translate(817,538)" d="m0 0 1 2-44 15-20 8-9 4 10 2 11 1-4 2-21-1-5 13-4 19h-1v-5l-39 1h-57l-1-2 97-1 3-16 4-9 5-6 27-11z" fill="#272627"/>
<path transform="translate(733,598)" d="m0 0h49l3 5v2h-51l-1-1z" fill="#FEFEFE"/>
<path transform="translate(661,342)" d="m0 0h1l3 43h2l2 20 5 46v8l-2 1-5-36-2-31-2-1-1-2h-2v-47z" fill="#ACABAC"/>
<path transform="translate(1111,570)" d="m0 0 1 3h22v1l-23 1-4 17v3l10 1v1h-12l-2 8h-18l2-3-1-4-3-2 20-1 5-18-2-1h-48l1-2 50-1z" fill="#262526"/>
<path transform="translate(637,273)" d="m0 0 6 1-3 44-1 5h-6v-22l3-27z" fill="#FEFEFE"/>
<path transform="translate(1771,517)" d="m0 0 1 4-5 10-7 7-6 5-19 9-5 1 4-5 8-7 6-7 11-6z" fill="#FEFEFE"/>
<path transform="translate(1099,77)" d="m0 0 211 1 63 1v1h-270l-1 3-2-3-3-2z" fill="#111011"/>
<path transform="translate(456,72)" d="m0 0 3 1h-2v2l-21 9-6 3h16l1 1v6l-4 4h-2l2-4 1-4h-11l-16 4-10 6-14 12-11 11-6 3 2-4 12-12 7-6h2v-2l-16 8h-3l9-6 18-8 6-4 12-4 10-6 16-8v-1z" fill="#1A181A"/>
<path transform="translate(346,488)" d="m0 0 5 5 9 13 9 11 12 13 15 15 14 11 6 4 40 5 36 3v1l-9 1-43-4-17-2 14 9-2 2-19-12-12-9-13-11-22-22-11-14-11-15z" fill="#313031"/>
<path transform="translate(310,360)" d="m0 0h3l1 3 3 33 6 42 6 29-3-1-3-9-5-25-5-36-3-30z" fill="#FEFEFE"/>
<path transform="translate(380,122)" d="m0 0v3l-12 14-14 19-13 21-8 15-1 3 10-3 6-9 1 3-6 10-1 3 2 1-5 4-2 5h-6l6-7 3-6-10 1-1-6 15-26 11-16 9-12 7-9 8-7z" fill="#181618"/>
<path transform="translate(326,214)" d="m0 0 2 1-7 36-4 29-4 43h-3l2-32 5-40 7-35z" fill="#FEFEFE"/>
<path transform="translate(1779,146)" d="m0 0h2l4 5 6 29 1 7v9l-2 8-2-3-9-47z" fill="#2D2B2D"/>
<path transform="translate(1782,502)" d="m0 0v3l-5 6-8 28-8 15-8 10-10 8-12 6-4 1 2-4 12-6 10-9 6-7 8-14v-4l-2 3h-2l2-4 6-8 4-10-3-1 6-8 1-3z" fill="#1A191A"/>
<path transform="translate(1117,112)" d="m0 0 3 4 9 19 102 1v1h-202l-18-1v-1h44l71 1-4-10-5-11z" fill="#0E0D0E"/>
<path transform="translate(1017,61)" d="m0 0h28l7 1 5 1 5 2v4h-16l-4 2-21-1-5-1 3-2 18-1 3-1-4-1h-17l-6 1-1 2h-9l3-3z" fill="#2B2A2B"/>
<path transform="translate(322,217)" d="m0 0 1 2-6 28-5 37-3 34-1 5h-3l3-36 5-37 4-22 3-9z" fill="#FEFEFE"/>
<path transform="translate(691,99)" d="m0 0h19l9 1v2h-24l-10 7-12 12-10 15-8 16-7 17h-3l3-10 12-25 8-12 11-12 9-7h-13v-1l5-1h11z" fill="#171617"/>
<path transform="translate(1426,62)" d="m0 0 11 1-2 3 9 9 14 20 2 5v6l-2 2-1-2v-7l-9-14-1-1-8-1-33-1-57-1v-1l24-1h19l53 2-9-11-5-4-26-1v-1l20-1z" fill="#292829"/>
<path transform="translate(306,359)" d="m0 0 3 2 5 49 5 32 5 23-3-1-3-9-5-27-4-29-3-31z" fill="#FEFEFE"/>
<path transform="translate(1379,303)" d="m0 0h14l12 1 2 4h13l3 3-2 4-13 2-3 5h-24l-5-5v-10zm0 2-1 2v11l2 2h24l2-4h-16v-2h27l3-1-1-3h-28l-2 1v-2l16-1v-2l-2-1z" fill="#272527"/>
<path transform="translate(1726,78)" d="m0 0 5 1 14 7 11 9 8 11 6 14 4 15 9 12-1 3-1-4h-2l-1 4-4-11-12-13-1-2 4 2 4 4-2-8-7-9-1-2 4 2-1-4-9-12-9-8-20-10z" fill="#1E1C1E"/>
<path transform="translate(663,398)" d="m0 0h1l2 46 3 23 10 46 2 10 7 16v4l-4-1 2-1-8-18-1-3-1-2-1-11-4-18v-4l-3-1 1-4-4-24-2-23h-3v-3h3l-1-17v-11z" fill="#525052"/>
<path transform="translate(1734,99)" d="m0 0 10 3 11 6 9 8 5 8 1 7-7-6-10-8-6-4-4-5v-2l-4-2z" fill="#FDFDFD"/>
<path transform="translate(646,168)" d="m0 0 1 4-8 26-6 26-5 32-3-2 2-18 7-34 9-30 1-3z" fill="#1B1A1B"/>
<path transform="translate(1048,592)" d="m0 0 13 1 4 1 14 1 7 4v2l-8 3h-3l-2-5-10 3h-23v-1l17-1-19-1v-1l24-2-14-1h-6l1-2z" fill="#1C1B1C"/>
<path transform="translate(722,102)" d="m0 0 2 3-7 8-10 16-9 17-11 26-3 7-1-2 1-5-1-4 7-30-2-2-2 10-2-3 1-7 2-3 5 1v7l-5 22v2l12-27 11-19 8-11z" fill="#2D2B2D"/>
<path transform="translate(1560,583)" d="m0 0h3v2l-8 5-10 2h-17l-8-4 1-2z" fill="#FEFEFE"/>
<path transform="translate(633,325)" d="m0 0h7l1 23v17l-4-1-4-30z" fill="#FEFEFE"/>
<path transform="translate(684,110)" d="m0 0 7 1v3l-15 29-11 27-9 29-4 19v7l-2 4h-2l3-20 8-29 7-20 12-27 11-21h-7z" fill="#545254"/>
<path transform="translate(659,318)" d="m0 0h1l1 11 2 2 3 42v12l-2-3-3-39v36l-1 11h2l1-4 1 6-1 10h-1v-10h-3z" fill="#514F51"/>
<path transform="translate(1453,611)" d="m0 0h68l10 1v1l-23 1h-54l-16-1v-1z" fill="#FEFEFE"/>
<path transform="translate(1284,61)" d="m0 0h31v2h15v1h-118v-1z" fill="#555355"/>
<path transform="translate(688,136)" d="m0 0 3 1-6 28-8 31-3 11h-2v-7l13-52z" fill="#FEFEFE"/>
<path transform="translate(819,572)" d="m0 0 3 3 5 15 6 24 2 10v11l-2-3-12-48z" fill="#FEFEFE"/>
<path transform="translate(316,353)" d="m0 0 4 1-4 4-1 11h-1l-1-9h-3v7h-1l-2-7 1 19 2 20v12h-2l-5-46v-10l4 2 7-1z" fill="#201F20"/>
<path transform="translate(1068,599)" d="m0 0h5l1 4-2 2-10 1h-21l-12-2-5-2v-2h9l4 1h26z" fill="#FEFEFE"/>
<path transform="translate(1358,508)" d="m0 0h4l-2 12-9 40h-4l2-12z" fill="#FEFEFE"/>
<path transform="translate(330,194)" d="m0 0 1 2-7 9-5 8-2 6 4-2-3 11-4 22-3 20-3-1 3-23 5-32 4-8 8-11z" fill="#1B1A1B"/>
<path transform="translate(318,463)" d="m0 0 9 6 9 3 4 7v3l-9-1-1 4-1-4-3-1-7-11z" fill="#FEFEFE"/>
<path transform="translate(640,303)" d="m0 0h1l1 6 1 48 2 28 1 17-2-4-3-31-1-2v-40h-7v-2h6z" fill="#504E50"/>
<path transform="translate(832,19)" d="m0 0 2 1-1 12-5 25-5 18-3 4v-7z" fill="#FEFEFE"/>
<path transform="translate(557,611)" d="m0 0h38l27 1v1l-25 1h-50l-18-1v-1z" fill="#FEFEFE"/>
<path transform="translate(315,368)" d="m0 0h1l4 39 6 38 5 20v3l2 1-6-1 1-2-6-28-6-42-2-20v-7z" fill="#2E2D2E"/>
<path transform="translate(329,198)" d="m0 0h11l-2 6-5 5-12 6-4 4 1-6 6-9z" fill="#FEFEFE"/>
<path transform="translate(729,72)" d="m0 0h2l6 11 3 3 18-1 4 2-18 1v2l17 4 40 9 5 1-1 2-25-5-29-7-9-3-6-5-6-10z" fill="#302F30"/>
<path transform="translate(1601,523)" d="m0 0h3v2h10l27 2 25 1 50 1v1h-70l-47-4-5-1v-1z" fill="#1E1D1E"/>
<path transform="translate(1019,63)" d="m0 0h17l7 2v1l-6 1-18 1 2 1 21 1v1l-5 1h-13l-19-3v-2h7l1-3z" fill="#222122"/>
<path transform="translate(1380,597)" d="m0 0 3 1v4l-17 2h-15l-12-2-3-3 9-1 2 1h26z" fill="#FEFEFE"/>
<path transform="translate(324,399)" d="m0 0h2l4 26 6 34v6l-3-3-6-33-3-21z" fill="#181718"/>
<path transform="translate(1734,101)" d="m0 0 5 2 8 8v2l4 2 11 8-2 1-10-7v2l8 28 1 7-2 1-7-27-5-13-22-2v-1l10-1 11 1-5-6-5-3z" fill="#313031"/>
<path transform="translate(666,209)" d="m0 0 1 2-6 21-5 26h1l-1 10-2 1v6l2-4 1-5h2l-1 8-2 4-5-2 1-11 7-36 1-10 1-7 2-1-1 6 1 1 1-5z" fill="#383638"/>
<path transform="translate(456,72)" d="m0 0 3 1h-2v2l-21 9-6 3h16l1 1v6l-4 4h-2l2-4 1-4h-11l-16 4-5 2 1-4 12-4 10-6 16-8v-1z" fill="#1C1B1C"/>
<path transform="translate(1665,66)" d="m0 0h10l44 5 11 2v1l-7 1h-11l-32-6-15-2z" fill="#FEFEFE"/>
<path transform="translate(667,191)" d="m0 0h3l2 2-2 9-7 16-2-1v-2l-2 5-2-4 6-16z" fill="#FEFEFE"/>
<path transform="translate(1040,593)" d="m0 0 8 1 14 1 2 2-17 1 17 1v1l-7 1-20 1-5-2v-4z" fill="#807F80"/>
<path transform="translate(665,400)" d="m0 0h1l3 32 3 23 2 4v4l2 1-1-3 1-21 2 3 4 17h-2l-2-7-1 13-5-1-3-14-4-35z" fill="#504E50"/>
<path transform="translate(341,175)" d="m0 0 1 2-9 17-1 3 10-3 6-9 1 3-6 10-1 3 2 1-5 4-2 5h-6l6-7 3-6-10 1-1-6 9-15z" fill="#151415"/>
<path transform="translate(655,219)" d="m0 0h2l1 6-9 24-1 3-4-1 2-10z" fill="#FEFEFE"/>
<path transform="translate(661,342)" d="m0 0h1l3 40v9l-5-1v-47z" fill="#FAFAFA"/>
<path transform="translate(1525,63)" d="m0 0h19l10 3 4 3-22-1-14-1-3-2z" fill="#FEFEFE"/>
<path transform="translate(321,322)" d="m0 0h1l1 42 3 35-3 1-3-31v-15z" fill="#2F2D2F"/>
<path transform="translate(1760,537)" d="m0 0 2 2-11 8-10 5-24 8v-3l14-8 4-2-4 5 13-5 11-6z" fill="#191819"/>
<path transform="translate(1343,88)" d="m0 0h4l8 20 5 13v3l-4-1-11-28z" fill="#FEFEFE"/>
<path transform="translate(1715,557)" d="m0 0 2 1-2 3-20 7-4 1 2 5 9 3 5 1v3l-11-2-6-3-2-2v-5l5-4z" fill="#191719"/>
<path transform="translate(1790,447)" d="m0 0 2 3-2 21-5 25-3 7-2 1 5-25z" fill="#FEFEFE"/>
<path transform="translate(659,392)" d="m0 0h3l1 21v17h-3l-1 3z" fill="#FEFEFE"/>
<path transform="translate(1017,61)" d="m0 0h28l7 1v4l-16-2h-17l-6 1-1 2h-9l3-3z" fill="#FEFEFE"/>
<path transform="translate(817,570)" d="m0 0 3 4 6 27 8 31v3h-2l-8-30-6-26z" fill="#232223"/>
<path transform="translate(1726,78)" d="m0 0 5 1 14 7 11 9 8 11 2 5h-3l-9-13-10-9-20-10z" fill="#1A191A"/>
<path transform="translate(1380,59)" d="m0 0h22l21 3v1h-33l-11-1z" fill="#FEFEFE"/>
<path transform="translate(306,325)" d="m0 0h6l4 4 3 7-1 15-4 6-7 1-3-4 7 1 4-4 1-8h-2l1-5v-6l-4-4h-5l2 2h-4l-2 6-2-1 5-9z" fill="#FEFEFE"/>
<path transform="translate(1557,67)" d="m0 0 6 2 30 3v1h-13l-18-2 1 2v6l-5 6-8 3h-16v-1l18-2 6-3 2-2v-8l-14-2v-1l11-1z" fill="#1E1C1E"/>
<path transform="translate(321,310)" d="m0 0h1l-1 44-4-1 1-17-3-7-2-5 2-1 3 6 2-18z" fill="#131213"/>
<path transform="translate(1086,597)" d="m0 0h17l-2 8h-16l2-3z" fill="#FEFEFE"/>
<path transform="translate(667,209)" d="m0 0 1 3-8 36-2 10h-2l-1 3 1-9 6-28z" fill="#FCFCFC"/>
<path transform="translate(306,327)" d="m0 0h5l5 5v6h-3l-3 2-4-1-3-3 1-6z" fill="#1A191A"/>
<path transform="translate(646,168)" d="m0 0 1 4-8 26-3 12-3-1 2-11 9-29z" fill="#1C1B1C"/>
<path transform="translate(742,566)" d="m0 0 3 1 10 2 11 1-4 2-21-1-5 13-4 19h-1l1-15 5-16z" fill="#2E2D2E"/>
<path transform="translate(1780,147)" d="m0 0 3 3 4 17 3 17v12l-2-4-7-36z" fill="#FEFEFE"/>
<path transform="translate(659,457)" d="m0 0 2 3 4 26 7 23 5 13-1 3-7-18-8-26-3-16z" fill="#4C4A4C"/>
<path transform="translate(670,481)" d="m0 0 2 1 7 31 2 10 7 16v4l-4-1 2-1-8-18-1-3-1-2-1-11-4-18v-4l-3-1z" fill="#3A383A"/>
<path transform="translate(1782,502)" d="m0 0v3l-5 6-6 22-4 2h-2l-2 3h-2l2-4 6-8 4-10-3-1 6-8 1-3z" fill="#1A181A"/>
<path transform="translate(1516,571)" d="m0 0 2 3 1 10h14l4 2-16 1 4 3 16 3v1h-10l-9-3-3-2v-2l-15 1-4-2 17-1-1-4z" fill="#363436"/>
<path transform="translate(1101,82)" d="m0 0 14 1-1 2-8 1 9 19 3 7-2 1-13-26v-2l-27-1v-1z" fill="#353335"/>
<path transform="translate(643,252)" d="m0 0 4 1-4 19h-6l2-10 3-9z" fill="#FEFEFE"/>
<path transform="translate(782,64)" d="m0 0h1l1 11 3 5 10 4v1h-8l-7-2-4-6 1-5z" fill="#E5E4E5"/>
<path transform="translate(1408,507)" d="m0 0 17 4 21 7 9 5 6 5 3 6v8l-2-3-2-8-2-4-18-9-20-6-13-3z" fill="#292829"/>
<path transform="translate(803,548)" d="m0 0 2 1-2 6-1-4-29 10h-2l-1 5-6 1-5-1 3-3 15-6 21-7z" fill="#2B2A2B"/>
<path transform="translate(1362,512)" d="m0 0 1 4-9 41-3 1 4-20 5-23z" fill="#1A191A"/>
<path transform="translate(682,150)" d="m0 0h1l-1 9-9 32-3-1 1-7z" fill="#FEFEFE"/>
<path transform="translate(374,114)" d="m0 0 2 1-12 12-13 18-12 17-4 4 1-4 5-8 4-4 12-17 8-10z" fill="#383738"/>
<path transform="translate(1647,64)" d="m0 0 19 1v1l31 5 9 2-4 2-7-2-40-6-8-1z" fill="#252425"/>
<path transform="translate(659,335)" d="m0 0h1l1 26v18l-1 11h2l1-4 1 6-1 10h-1v-10h-3z" fill="#181618"/>
<path transform="translate(655,215)" d="m0 0h2v3h-2l-1 5-8 21-1 8-3 3-2 5-1-4 9-27h2l3-10z" fill="#242324"/>
<path transform="translate(669,204)" d="m0 0 3 1-4 16-8 34-2 2 1-9 8-36v-6z" fill="#403E40"/>
<path transform="translate(378,146)" d="m0 0 2 1-7 8-12 15-11 16-2-2 13-18 11-13z" fill="#312F31"/>
<path transform="translate(722,102)" d="m0 0 2 3-7 8-10 16-9 17-2 5-2-2 8-16 8-14 8-11z" fill="#3B393B"/>
<path transform="translate(1345,55)" d="m0 0 21 2v3l-9-1h-24l-8 1-1-2 9-2z" fill="#FEFEFE"/>
<path transform="translate(1704,74)" d="m0 0h24l-3 2 1 3-10-1-17-1 1-2z" fill="#100F10"/>
<path transform="translate(691,99)" d="m0 0h19l9 1v2h-24l-7 4 1-4-3 1h-11v-1l5-1h11z" fill="#1D1B1D"/>
<path transform="translate(334,211)" d="m0 0h3l-6 30h-3l5-26z" fill="#211F21"/>
<path transform="translate(348,185)" d="m0 0 1 3-6 10-1 3 2 1-5 4-2 5h-6l6-7 3-6-2-1 5-5z" fill="#1F1E1F"/>
<path transform="translate(436,574)" d="m0 0 5 2 6 5 1 4-3 4h-17l2-2 14-1-1-5-7-5z" fill="#141314"/>
<path transform="translate(641,357)" d="m0 0h2l2 28 1 17-2-4-3-31-1-2z" fill="#3C3A3C"/>
<path transform="translate(684,110)" d="m0 0 7 1v3l-14 27-2 1 1-5 13-25h-7z" fill="#343334"/>
<path transform="translate(669,193)" d="m0 0h3l-2 9-7 16-2-1 2-9z" fill="#ABABAB"/>
<path transform="translate(309,268)" d="m0 0h1v10l-2 19-3 1 1-15 2-14z" fill="#1E1C1E"/>
<path transform="translate(1037,66)" d="m0 0 6 2-3 2h-19l-5-1 3-2z" fill="#FEFEFE"/>
<path transform="translate(409,557)" d="m0 0 5 2 12 3-3 2 14 9-2 2-19-12-7-5z" fill="#252425"/>
<path transform="translate(1334,60)" d="m0 0h24l-4 1v2h-21l-3-2z" fill="#BEBDBE"/>
<path transform="translate(1786,469)" d="m0 0 1 4-6 29-3 2 2-10 5-24z" fill="#242224"/>
<path transform="translate(1415,613)" d="m0 0h9l12 2v1h-29l-5-1v-1z" fill="#FEFEFE"/>
<path transform="translate(329,240)" d="m0 0h1l-1 14-2 14-3 1 2-18 2-10z" fill="#1D1B1D"/>
<path transform="translate(1760,537)" d="m0 0 2 2-11 8-10 5-4 1v-3l17-8z" fill="#474547"/>
<path transform="translate(1349,93)" d="m0 0 3 1 9 24v3h-2l-10-26z" fill="#1C1B1C"/>
<path transform="translate(330,194)" d="m0 0 1 2-7 9-5 8-2 11-2 1 1-11 4-8 8-11z" fill="#3B3A3B"/>
<path transform="translate(306,385)" d="m0 0h2l2 14v12h-2l-2-16z" fill="#1D1C1D"/>
<path transform="translate(684,170)" d="m0 0 1 4-3 12-3 10-2 1 1-9 4-16h2z" fill="#383638"/>
<path transform="translate(407,119)" d="m0 0 3 1-11 9-12 11-6 6-2-1 17-17z" fill="#1D1C1D"/>
<path transform="translate(324,440)" d="m0 0h1l6 25v3l2 1-6-1 1-2-5-22z" fill="#413F41"/>
<path transform="translate(1105,591)" d="m0 0 2 4 10 1v1h-12l-2 8-2-1 2-7h-20v-1l20-1z" fill="#383638"/>
<path transform="translate(1356,591)" d="m0 0h20l4 2-1 3h-2v-2l-23-1z" fill="#0A090A"/>
<path transform="translate(394,107)" d="m0 0m-1 1m-1 1m-2 1 2 1-3 5-7 7-6 3 2-4z" fill="#272627"/>
<path transform="translate(688,103)" d="m0 0m-1 1 1 3-8 7-5 4-4 2 2-4 8-8z" fill="#141314"/>
<path transform="translate(456,72)" d="m0 0 3 1h-2v2l-21 9-6 3-2 2 1-4 21-10 1-2z" fill="#2E2C2E"/>
<path transform="translate(1323,58)" d="m0 0 4 1 9-1-3 4 1 3-16-4 2-2z" fill="#333133"/>
<path transform="translate(1048,594)" d="m0 0 14 1 2 2h-27l3-2z" fill="#FEFEFE"/>
<path transform="translate(321,377)" d="m0 0h3l2 22-3 1-2-18z" fill="#262426"/>
<path transform="translate(1785,177)" d="m0 0 2 3 2 12 2 1v7l-2 4-4-19z" fill="#1A181A"/>
<path transform="translate(316,459)" d="m0 0 3 3 1 7 7 11 2 1 1 4-3-1-8-11-3-8z" fill="#413F41"/>
<path transform="translate(1426,62)" d="m0 0 11 1-3 5-3-2-26-1v-1l20-1z" fill="#3A393A"/>
<path transform="translate(1441,579)" d="m0 0h2l-2 5-4 6h11v1l-13 1-5 2 1-4 5-3z" fill="#161516"/>
<path transform="translate(301,329)" d="m0 0h2l-3 9-1 5 2-1 1-4h2v5l-4 1 1 7-2-1-1-3v-11z" fill="#232223"/>
<path transform="translate(687,133)" d="m0 0 5 1v7l-2 3v-7l-2-1-2 10-2-3 1-7z" fill="#252325"/>
<path transform="translate(653,151)" d="m0 0 1 3-6 15h-3l3-10 3-7z" fill="#181718"/>
<path transform="translate(439,97)" d="m0 0 3 1-4 4-15 9h-2v2l-3-1 5-4 11-7z" fill="#2A292A"/>
<path transform="translate(435,87)" d="m0 0h11l1 1v6l-4 4h-2l2-4 1-4-11-1z" fill="#0D0C0D"/>
<path transform="translate(1389,596)" d="m0 0h6l2 2-7 3-5 1-1-5z" fill="#FEFEFE"/>
<path transform="translate(1447,519)" d="m0 0 8 4 6 5 3 6v8l-2-3-2-8-2-4-4-2-7-4z" fill="#383638"/>
<path transform="translate(669,444)" d="m0 0 2 4 2 11 1 4 2 1v-7h1v9l-5-1-3-14z" fill="#363436"/>
<path transform="translate(655,218)" d="m0 0h5l1 2-8 23-2 1 1-6 5-13v-6z" fill="#494749"/>
<path transform="translate(1647,64)" d="m0 0 19 1v1l7 1-1 2-25-3z" fill="#494749"/>
<path transform="translate(1347,595)" d="m0 0 14 1v1h-11v2h17v1h-20l-2-1z" fill="#141314"/>
<path transform="translate(1715,557)" d="m0 0 2 1-2 3-12 4-4-1 5-3z" fill="#161516"/>
<path transform="translate(1769,516)" d="m0 0h4l-1 2-7 6-11 8v-3l9-7z" fill="#484648"/>
<path transform="translate(331,446)" d="m0 0h2l3 13v6l-3-3-2-10z" fill="#181618"/>
<path transform="translate(309,312)" d="m0 0h1l1 12-5 2-2 3-3-1 3-9 1 4h3z" fill="#111011"/>
<path transform="translate(660,316)" d="m0 0h6v10h-1l-1-7-2-1v14l-2-3z" fill="#191819"/>
<path transform="translate(320,217)" d="m0 0 1 2-4 13-1 5-3-1 2-11z" fill="#181618"/>
<path transform="translate(638,193)" d="m0 0h1l-1 9-2 8-3-1 2-11z" fill="#1F1E1F"/>
<path transform="translate(380,122)" d="m0 0v3l-11 13h-3l2-4 5-5z" fill="#151315"/>
<path transform="translate(1744,567)" d="m0 0m-2 1 2 1-1 3-12 6-4 1 2-4 12-6z" fill="#1C1B1C"/>
<path transform="translate(766,561)" d="m0 0h5l-1 5-6 1-5-1 3-3z" fill="#767576"/>
<path transform="translate(1771,525)" d="m0 0 1 4-2 5-3 1h-2l-2 3h-2l2-4 6-8z" fill="#131213"/>
<path transform="translate(652,205)" d="m0 0h2l-2 13v7l-2 4h-2l3-20z" fill="#424142"/>
<path transform="translate(683,142)" d="m0 0 2 1 1 5-4 17-2 1 1-7 1-4v-10z" fill="#413F41"/>
<path transform="translate(1740,99)" d="m0 0 9 3 10 7 1 2-5-2-15-8z" fill="#333133"/>
<path transform="translate(655,215)" d="m0 0h2v3h-2l-1 5-5 13h-3l2-7h2l3-10z" fill="#1D1C1D"/>
<path transform="translate(1759,111)" d="m0 0 4 2h1v-2l3 1 2 5v5h-2l-7-9z" fill="#100F10"/>
<path transform="translate(444,598)" d="m0 0 6 1 16 6-3 2-8-2-1-2-10-4z" fill="#535253"/>
<path transform="translate(1075,599)" d="m0 0h11v2l-8 3h-3z" fill="#FEFEFE"/>
<path transform="translate(330,209)" d="m0 0 2 1v2h-2l-2 11-2 3 1-11h-2l1-4z" fill="#222022"/>
<path transform="translate(659,457)" d="m0 0 2 3 1 8v10l-2-3-2-13z" fill="#1F1D1F"/>
<path transform="translate(665,385)" d="m0 0h2l1 10v8l-2-3-1-7-2-1z" fill="#4F4D4F"/>
<path transform="translate(666,209)" d="m0 0 1 2-5 15h-1l-1-11 2-4 1 2-1 4 1 1 1-5z" fill="#252325"/>
<path transform="translate(338,520)" d="m0 0 5 3 10 14-1 2-9-12-5-5z" fill="#4D4C4D"/>
<path transform="translate(321,310)" d="m0 0h1v12l-1 7-2 1v-9l1-10z" fill="#151415"/>
<path transform="translate(657,266)" d="m0 0h2l-1 8-2 4-5-2 1-8h1l1 7 2-4z" fill="#272627"/>
<path transform="translate(1376,594)" d="m0 0 1 2 2 1-5 1-13-1-1-2z" fill="#555355"/>
<path transform="translate(785,568)" d="m0 0 3 1-3 1v12l1 10-2 1-1-6v-16z" fill="#353435"/>
<path transform="translate(1773,137)" d="m0 0h3l7 10-1 3-1-4h-2l-1 4-4-11z" fill="#1A181A"/>
<path transform="translate(316,353)" d="m0 0 4 1-4 4-1 11h-1l-1-9-4-2 6-3z" fill="#211F21"/>
<path transform="translate(378,146)" d="m0 0 2 1-7 8-6 7-2-1 12-14z" fill="#2B2A2B"/>
<path transform="translate(307,331)" d="m0 0 3 1 2-1 2 2-5 5-4-3v-3z" fill="#FEFEFE"/>
<path transform="translate(332,225)" d="m0 0h1l-1 11-1 5h-3l3-15z" fill="#1F1E1F"/>
<path transform="translate(646,168)" d="m0 0 1 4-3 9h-3l2-9 1-3z" fill="#1F1E1F"/>
<path transform="translate(1726,78)" d="m0 0 5 1 9 4-1 3-11-5-4-2z" fill="#262426"/>
<path transform="translate(716,553)" d="m0 0 3 1-2 2-6 1h-8l-3-2z" fill="#252325"/>
<path transform="translate(311,254)" d="m0 0h1v9l-1 7-3-1 2-14z" fill="#191819"/>
<path transform="translate(1356,542)" d="m0 0 1 2-3 13-3 1 3-15z" fill="#252425"/>
<path transform="translate(328,433)" d="m0 0 3 1 2 12-3 1z" fill="#211F21"/>
<path transform="translate(324,399)" d="m0 0h2l1 4v11l-2-1-1-5z" fill="#131113"/>
<path transform="translate(315,348)" d="m0 0 1 3-5 5-5-1-3-3 1-2 2 2h6z" fill="#1E1D1E"/>
<path transform="translate(339,201)" d="m0 0h5l-6 7-1 3h-6l6-7z" fill="#0C0A0C"/>
<path transform="translate(306,368)" d="m0 0h1l1 17-3 1v-10z" fill="#333133"/>
<path transform="translate(1790,437)" d="m0 0h1l2 9v11h-1l-3-15z" fill="#111011"/>
<path transform="translate(322,297)" d="m0 0h1v14h-3l1-13z" fill="#201F20"/>
<path transform="translate(1436,610)" d="m0 0h10l7 1v1l-19 1 2-1z" fill="#555355"/>
<path transform="translate(306,327)" d="m0 0h5v5h-3-3l-1 2-1-2z" fill="#363536"/>
<path transform="translate(347,165)" d="m0 0 1 3-5 8h-3l2-5 2-4z" fill="#191819"/>
<path transform="translate(659,139)" d="m0 0 1 2-5 11h-3l2-6 4-6z" fill="#0C0B0C"/>
<path transform="translate(722,102)" d="m0 0 2 3-7 8-5 5 2-5z" fill="#333133"/>
<path transform="translate(1434,67)" d="m0 0 4 2 9 10-2 2-9-11-2-1z" fill="#1C1A1C"/>
<path transform="translate(1748,545)" d="m0 0m-2 1h2v3l-11 4v-3z" fill="#4A484A"/>
<path transform="translate(316,351)" d="m0 0 1 2-5 5h-5l-3-4 7 1z" fill="#F8F8F8"/>
<path transform="translate(1744,535)" d="m0 0m-1 1m-1 1 2 3-8 8-2-2 7-7z" fill="#494849"/>
<path transform="translate(1362,512)" d="m0 0 1 4-2 9-3 1 3-13z" fill="#201F20"/>
<path transform="translate(656,258)" d="m0 0h1l-1 10-3 1-1-4 1-6z" fill="#494849"/>
<path transform="translate(660,202)" d="m0 0 2 1-3 10-2 3-2-2z" fill="#525052"/>
<path transform="translate(1734,101)" d="m0 0 5 2 5 5 3 4-3 1-3-5-7-5z" fill="#232123"/>
<path transform="translate(1053,63)" d="m0 0 7 1 2 1v2h-9z" fill="#FEFEFE"/>
<path transform="translate(336,463)" d="m0 0 2 4 1 6-3 1-2-5v-5z" fill="#2D2B2D"/>
<path transform="translate(300,344)" d="m0 0h2l2 6v5l-2 1-2-5z" fill="#737273"/>
<path transform="translate(330,194)" d="m0 0 1 2-7 9h-3l7-10z" fill="#2F2E2F"/>
<path transform="translate(417,112)" d="m0 0h8l-3 2-8 3-5 2 5-5z" fill="#1B1A1B"/>
<path transform="translate(824,602)" d="m0 0h2l3 12-3-1z" fill="#282728"/>
<path transform="translate(1334,597)" d="m0 0h8v1h-6l3 3-1 3-5-3z" fill="#1C1B1C"/>
<path transform="translate(456,72)" d="m0 0 3 1h-2v2l-11 4-1-2 6-3v-1z" fill="#434143"/>
<path transform="translate(327,411)" d="m0 0h1l1 11-3 1-1-10z" fill="#262526"/>
<path transform="translate(305,343)" d="m0 0 5 2 3 3-1 2-5-3-3 1z" fill="#262526"/>
<path transform="translate(341,175)" d="m0 0 1 2-5 9-2-1 2-6z" fill="#141314"/>
</svg>
