<?xml version="1.0" encoding="UTF-8"?>
<svg version="1.1" viewBox="0 0 2048 658" width="1792" height="576" xmlns="http://www.w3.org/2000/svg">
<path transform="translate(0)" d="m0 0h2048v658h-2048z" fill="#100B0D"/>
<path transform="translate(927,109)" d="m0 0h53l33 2 36 4 36 6 33 7 30 8 29 9 32 12 30 13 23 11 22 12 29 17 19 13 14 10 14 11 11 9 13 12 10 9 14 15 11 13 14 19 11 17 10 17 13 25 13 30 5 13 10 9 11 9 21 21 9 11 10 13 9 14 11 20 9 23 7 23 5 25 1 17-2 11-4 10-8 10-8 6-13 6-22 6-5 1h-1172l-24-6-15-6-11-7-7-6-7-11-3-8-1-6v-19l3-20 6-23 7-19 11-23 10-16 12-16 12-14 19-19 11-9 9-8 12-27 12-22 12-19 10-14 10-13 11-13 9-10 11-12 8-8 8-7 10-9 14-11 18-14 33-22 13-8 19-11 24-13 33-16 36-15 28-10 34-11 48-12 37-7 37-5 35-3z" fill="#100B0D"/>
<path transform="translate(912,2)" d="m0 0h61l35 2 49 5 39 6 38 8 40 10 36 11 34 12 32 13 20 9 25 12 20 10 23 13 23 14 24 16 14 10 21 16 16 13 14 12 12 11 8 7 29 29 7 8 9 10 9 11 13 15 11 14 16 21 16 23 15 23 13 21 14 24 15 28 11 22 11 25 15 38 14 41 10 36 7 31 4 22v4h-209v-1l24-6 12-5 10-6 7-8 5-10 2-6 1-15-3-22-6-24-8-23-9-20-13-22-13-17-12-14-18-18-11-9-10-9-11-27-12-26-10-19-13-21-12-17-10-13-12-14-16-17-20-18-14-11-16-12-27-18-27-16-30-16-33-15-33-13-33-11-29-8-30-7-33-6-40-5-24-2-19-1h-53l-45 3-39 5-34 6-39 9-32 9-44 15-29 12-20 9-25 12-30 16-15 9-22 14-16 11-19 14-16 13-14 12-16 15-16 17-9 11-12 15-12 17-13 21-13 24-10 23-11 10-11 9-21 21-9 11-11 15-8 13-11 21-8 21-5 17-4 21-1 8v19l3 12 6 10 4 5 13 9 14 6 23 6 4 2h-222l2-16 9-41 10-37 15-46 13-33 12-27 14-29 14-26 16-27 11-17 15-22 11-15 10-13 8-10 11-13 9-11 13-14 7-8 9-9 7-8 30-28 11-9 15-13 16-12 13-10 16-11 18-12 21-13 28-16 37-19 33-15 39-16 36-13 43-13 31-8 39-9 45-8 38-5 36-3z" fill="#FEFEFE"/>
<path transform="translate(910,189)" d="m0 0h88l51 3 36 4 39 6 37 8 29 8 26 9 30 13v1l-31 3-23 6-19 8-17 9-14 10-15 13-7 7-11 14-11 18-8 17-6 19-3 14-1 9v34l3 18 4 15 9 21 10 18 9 12 11 13 8 8 14 11 15 10 2 2-14-2-30-4-39-3-40-2-38-5-29-2h-34l-33 2-32 4-6 1-65 3-31 3-32 5 3-3 16-11 15-13 8-8 11-14 10-15 8-16 6-15 5-19 2-13 1-22-2-23-5-21-6-16-8-16-9-14-8-10-9-10-9-9-16-12-19-11-20-8-21-6-22-3-17-1 4-3 23-10 33-11 36-9 36-7 33-5 39-4z" fill="#FEFEFE"/>
<path transform="translate(1236,243)" d="m0 0h18l19 2 19 4 22 8 21 11 14 10 14 12 9 9 11 14 10 15 9 19 6 18 4 20 1 9v31l-3 20-6 20-7 17-11 19-8 10-12 14-12 11-16 11-16 9-21 8-20 5-19 2h-12l-19-2-20-4-20-6-21-9-14-8-12-9-14-12-8-8-13-17-9-15-9-19-5-15-4-20-1-8v-29l3-20 6-20 8-18 8-14 12-16 14-15 11-9 14-10 18-10 21-8 21-5z" fill="#FDFDFD"/>
<path transform="translate(1690,280)" d="m0 0 114 1 186 2 58 1v206l-181 1h-166l-11-3-5-10-14-32-9-56-9-64-1-10v-13l3-9 6-7 8-4 8-2z" fill="#100B0D"/>
<path transform="translate(1183,31)" d="m0 0 8 1 31 7 34 9 36 12 30 11 35 15 32 15 19 10 18 10 25 15 17 11 21 14 18 13 11 7 2 1-5-5-8-7-16-12-33-22-21-13-21-12-15-8v-1l29 1 205 10 276 14 119 7 15 1 3 1v129h-99l-234-2-55-1-30-2-25-4-16-5-16-8-10-7-10-9-31-31-8-7-14-12-18-14-23-16-26-16-26-14-28-14-30-13-44-16-40-13-31-12-44-15-7-2z" fill="#FEFEFE"/>
<path transform="translate(654,259)" d="m0 0h6v13l4-2v-11h12l2 1v8h2v-7l1-1 11 1 2 1-1 9h2l1-8 9 1 4 1-1 8-1 2 2-1 2-7 6 1 8 3-2 6-1 2 3-3 2-3 6 2 5 3-2 6-2 3v3l3-1 5-8 6 2 6 5-4 6 6-5 10 8-2 4-4 2v2l5-3 3-3 9 9-2 4-4 4 8-5 7 8 1 3-5 4h-2v2l7-4 3 1 6 10-4 4-6 3h-2l1 3 6-2 7-3 6 11-1 4-5 2h-3v2l11-3 4 15-10 2v2l10-2 2 6 1 9-2 1h-7l-2-10 1 32h-2v4h13l-2 18-5 19-6 15-9 17-9 13-12 14-11 10-15 11-16 9-21 8-15 4-12 2-11 1h-19l-20-3-21-6-18-8-15-9-14-11-16-16-2-4 6-5 9-5 20-14 18-13 20-14 17-12 8-6 5 2 8 3h10l10-4 7-8 3-7v-14l-1-4 10-8-1-4-3-4-5 2-7 5-6-2-7-3h-10l-10 4-5 5-5 8-1 3v12l1 6-16 13-10 8-16 13-10 8-8 6-2-4-3-5-6 1-2 4v8l2 5-10 9-1-2-11 9-3-1-6-10 4-4 4-1v-2l-7 4h-3l-5-10 1-4 7-3h-3l-7 3-5-13 1-3 9-2v-2l-11 3-3-11v-4l10-1v-2l-11 1-1-5v-10l15-1v-4h-16v-12l1-5h10l-9-1-1-5 2-12 11 1-5-2-5-1 2-10 2-6 6 1 5 2v-2l-9-3 1-6 4-9 6 2 9 4-1-4-11-6 2-5 5-8 5 2 3 1-6-5 4-6 5-5 8 6-4-5-3-3 7-8h4l4 4-4-8 9-7 4 2 1 2 1-1-3-4v-2l9-6h2l5 8v2h4l-6-13 12-6 3 6v-3l-1-4 8-4 5-1 2 8h2l-2-9 8-3h5l1 8h2l-1-9 6-2h8v7h2v-8z" fill="#FEFEFE"/>
<path transform="translate(929,535)" d="m0 0h54l34 3 33 5 30 7 29 8 34 12 34 14 39 18 33 16 12 6 8 9 7 14 3 8v3h-644l3-9 8-16 7-10 5-5 25-12 41-18 31-13 29-11 28-9 40-10 27-5 35-4z" fill="#FEFEFE"/>
<path transform="translate(922,153)" d="m0 0h60l45 2 46 4 51 7 38 7 40 9 36 10 36 12 27 10 26 11 14 7 14 11 10 8 14 12 27 27 9 11 12 15 14 21 10 17 12 23 11 24 9 22 1 5v32l-3 17-6 18-6 11-9 12-7 7-14 10-16 9-10 4-4-7-8-6-4-6-7-4-8-1 6-8 11-16 10-19 6-17 4-15 3-21v-26l-3-22-6-21-9-21-9-16-9-12-12-14-7-7-14-11-10-7-16-9-19-9-19-6-18-4-24-12-31-13-34-11-36-9-31-6-36-5-40-4-33-2-32-1h-40l-52 2-38 3-48 6-37 7-30 7-27 8-23 8-25 11-23 12-21 5-19 7-16 8-14 8-14 10-12 11-9 9-13 17-9 15-9 19-6 18-3 12-2 15v34l3 18 4 15 6 16 11 21 15 21-10 3-6 7-4 5-7 6-1 2-5-1-18-8-14-9-10-9-7-7-9-14-6-14-4-14-2-14v-31l3-21 6-23 7-19 12-25 10-16 10-14 11-14 9-10 7-8 10-9 30-23 16-11 15-7 28-11 36-12 36-11 52-13 45-9 45-7 45-5 43-3z" fill="#FEFEFE"/>
<path transform="translate(1029)" d="m0 0h1019v86l-22-1-132-9-123-7-189-9-129-5-178-6-33-10-40-10-35-7-48-7-31-6-42-6-17-2z" fill="#FEFEFE"/>
<path transform="translate(99)" d="m0 0h760v1l-45 6-38 7-20 4-35 5-36 7-29 7-30 8-38 12-24 9-18 2-154 11-166 13-34 3h-13l-21-10-12-9-9-9-11-16-15-26-12-23z" fill="#FEFEFE"/>
<path transform="translate(690,34)" d="m0 0h5l-3 2-26 8-37 13-35 14-34 15-26 9-26 11-28 13-26 13-23 13-27 16-24 16-23 16-19 14-18 13-17 12-19 11-21 10-27 9-30 7-31 5-155 19-15 2h-5v-93l13-8 19-9 27-10 24-7 42-6 200-27 116-15h7l-4 3-22 13-17 11-12 8-17 12-16 12-14 11-9 8 3-1 12-8 19-14 17-12 21-14 21-13 24-14 26-14 35-17 38-16 30-11 34-11 35-10z" fill="#FEFEFE"/>
<path transform="translate(1968,528)" d="m0 0h80v130h-309l-8-42-8-32-9-29-2-6 1-6 7-6 11-5 8-2 9-1z" fill="#FDFDFD"/>
<path transform="translate(875,259)" d="m0 0h157l4 2 2 6v209l-3 5-2 1h-159l-4-4-1-3v-210l3-5z" fill="#F6F6F6"/>
<path transform="translate(474,294)" d="m0 0v3l-14 18-11 18-11 21-9 23-6 21-4 24v36l3 17 5 15 9 17 9 11 8 8 15 10 21 10 5 2 2 10 5 5 9 1 11-4 5-1 38 8-15 20-8 14-5 13-2 11-1 11-18-9-20-5-9-1h-14l-112 4-19 2-26 1h-18l-4-5-4-11-1-7v-12l3-22 6-24 7-19 11-23 12-19 10-13 12-14 18-18 8-7 12-10 19-39 13-22 8-12 13-18 11-13 12-14z" fill="#FEFEFE"/>
<path transform="translate(1297,56)" d="m0 0h27l150 5 124 5 151 7 110 6 136 9 53 4v42l-135-8-456-23-57-3-9-2-15-8-33-15-32-13-14-5z" fill="#FEFEFE"/>
<path transform="translate(1486,428)" d="m0 0 6 4 10 9 8 7 15 15 18 22 12 19 11 21 9 24 7 27 3 17v20l-4 13-6 8-15-3-8-2-18-1-48-1-5-7-4-1h-18l-2 6-1 1-44 1-19 4-3-17-6-15-10-16-12-15 1-2 19-5 9 1 8 2 7-1 5-4 4-10 22-11 19-14 1 3v8l3 6 10 5 7 2h7l6-3 4-5v-11l-4-6-9-4-13-2h-5l6-9 6-10 6-16 4-20z" fill="#FEFEFE"/>
<path transform="translate(0)" d="m0 0h92l10 19 13 24 12 19 8 10 11 11 14 9 17 8v3l-14 12-18 14-20 14-21 13-18 10-28 8-28 11-23 11-7 4z" fill="#FEFEFE"/>
<path transform="translate(1968,528)" d="m0 0h80v47l-19 1-213 1-12 2-8 4-6 7-2 7v14l5 47h-54l-8-42-8-32-9-29-2-6 1-6 7-6 11-5 8-2 9-1z" fill="#FEFEFE"/>
<path transform="translate(915,112)" d="m0 0h79l36 3 43 6 35 7 35 9 35 11 32 12 32 14 34 17 24 14 21 13 4 4-6-2-25-10-30-11-35-11-38-10-37-8-41-7-47-6-35-3-39-2h-82l-49 3-39 4-37 5-45 8-44 10-31 8-55 17-38 14-2-1 25-15 26-14 22-11 32-14 26-10 38-13 44-12 38-8 38-6 40-4z" fill="#FEFEFE"/>
<path transform="translate(650,243)" d="m0 0h21l17 2 18 4 15 5 18 8 15 9 12 9 12 11 10 10 11 15 10 17 7 16 6 20 3 18v34l-4 22-8 24-10 20-10 14-9 11-11 12-14 12-15 10-25 12-23 7-20 4-21 2-21-1-25-5-15-5-21-10-15-10-10-8-11-10-7-8-10-13-10-17-8-18-6-20-3-18-1-22 2-23 5-22 6-16 8-16 7-12 10-13 14-15 14-12 15-10 21-11 16-6 22-5zm4 16-7 1v8h-2v-7h-8l-6 2 1 9h-2l-1-8-8 1-5 2 2 9h-2l-2-8-10 3-3 2 2 7-3-4-2-2-11 6 6 13h-4l-2-5-3-5-5 2-6 4 2 5 2 2h-2l-3-4-5 2-6 5 4 8-5-5-4 2-6 7 5 5 2 3-9-6-8 10 5 5 1 2-6-4-3 1-6 10 1 3 11 6v3l-13-6h-2l-5 12v3l9 3v2l-7-3h-4l-4 13v3l9 2v1l-10-1-2 16 1 1 9 1h-10l-1 5v12h16v4l-15 1v10l1 5 11-1v2l-10 1 1 9 2 6 11-3v2l-9 2-1 3 5 13 10-4-4 3-4 2 1 6 4 7 4-1 6-3v2l-5 2-3 3 7 11 5-2 8-7 1 2 10-9-2-5v-8l2-4 6-1 3 5 2 4 10-8 16-13 10-8 16-13 8-6-1-6v-12l5-10 5-5 7-4 4-1h10l9 4 4 1 10-7 3 1 3 4-1 4-9 7 1 4v14l-5 10-7 6-8 3h-10l-10-4h-4l-18 13-16 11-18 13-17 12-16 11-9 5-3 4 9 10 11 11 15 11 18 10 15 6 18 5 20 3h19l18-2 17-4 19-7 16-8 12-8 11-9 11-10 9-11 7-10 8-14 6-13 6-18 3-15 1-12h-13v-4h2v-10l-1-22 2 10h7l2-1-2-14-3-1-8 2v-2l10-2-4-15-11 3v-2l5-1 4-2-1-5-5-9-11 5h-2l-1-3 6-2 6-4-4-8-3-4-5 2-4 2v-2l4-2 3-3-7-9h-3l-6 4 5-5v-4l-8-8-5 5-3 1v-2l4-2 2-4-10-8-6 5 4-6-8-6-4-1-6 9h-2l1-5 3-5-1-3-8-4-3 1-2 4-2 1 3-6v-2l-10-4h-4l-2 7-2 1 2-6v-4l-8-2h-5l-1 8h-2l1-9-8-2h-5l-1 1v7h-2v-8l-2-1h-12v12l-4 1v-13z" fill="#FEFEFE"/>
<path transform="translate(537,74)" d="m0 0 4 1-25 11-34 16-22 12-7 3-294 39-58 8h-7l4-3 23-14 16-11 19-14 13-11 11-9 17-2 135-11 134-10z" fill="#FEFEFE"/>
<path transform="translate(863,244)" d="m0 0h181l8 7 1 3v233l-4 6-5 3-4 1h-173l-7-2-6-7-1-4v-226l2-8 5-5zm12 15-5 3-1 3v210l3 6 2 1h159l4-3 1-3v-209l-3-7-3-1z" fill="#FEFEFE"/>
<path transform="translate(1691,490)" d="m0 0 9 2h348v34l-121 1-180 1-16 3-10 4-9 8h-2l-10-29-9-22z" fill="#FEFEFE"/>
<path transform="translate(1554,268)" d="m0 0h116l264 2 98 1 16 1v10h-45l-272-3h-46l-13 2-10 4-7 6-4 11v15l5 40 9 60 3 18v5l-2-3-15-28-16-27-13-21-16-24-14-20-13-17-11-14-11-13z" fill="#FEFEFE"/>
<path transform="translate(1087,548)" d="m0 0 25 1 34 3 24 4 25 7 22 6 25 4 11 1h56l33-4 18-3 13 17 9 14 5 11 4 14v3l-67 1h-34l-29-6-26-13-56-26-37-15-31-11-24-7z" fill="#FEFEFE"/>
<path transform="translate(537,95)" d="m0 0 2 1-19 10-24 13-15 9-19 12-18 12-17 12-17 13-10 8-11 9-14 12-24 22-22 22-7 8-11 12-9 11-2 1-122 10-109 10-69 7v-12l71-9 106-13 35-6 28-7 26-9 17-8 17-10 12-8 18-13 19-14 17-12 20-14 25-16 22-13 24-13 25-13 33-15z" fill="#FEFEFE"/>
<path transform="translate(1690,280)" d="m0 0 114 1 186 2 58 1v10h-27l-185-2-74-1h-83l-8 3-4 8v12l5 35 12 80 6 39 4 8 8 4h346v10l-181 1h-166l-11-3-5-10-14-32-9-56-9-64-1-10v-13l3-9 6-7 8-4 8-2z" fill="#FEFEFE"/>
<path transform="translate(813,548)" d="m0 0h11l-4 2-29 9-28 10-41 17-29 13-33 15-10 3-41 9h-73v-7l4-13 6-12 11-16 9-11 41 5 12 1h48l24-4 25-7 26-7 27-4z" fill="#FEFEFE"/>
<path transform="translate(934,179)" d="m0 0h40l50 2 37 3 41 5 29 5 36 8 28 8 26 9 30 13 23 11 22 5 19 7 20 10 14 9 13 10 13 12 10 11 11 15 10 18 8 19 6 21 3 22v26l-3 21-6 22-3 7h-2l1-6 5-15 4-21 1-10v-23l-2-18-6-23-8-20-10-18-5-7 8 14 9 21 5 16 3 15 1 8v37l-4 22-5 17-8 18-9 16-11 14-9 10-8 8-17 13-12 7-2-1 8-6 13-9 14-12 10-11 10-13 12-21 6-15 6-20 3-20v-31l-3-20-5-19-8-19-9-16-12-16-12-13-10-9-15-11-16-9-18-8-20-6-18-3-12-1h-18l-19 2-21 5-16 6-16 8-16 10-6 5-2-1 7-7 18-11 19-9 18-6 20-4 22-2-28-12-36-12-36-9-38-7-46-6-41-3-21-1h-88l-50 3-46 5-43 7-40 9-31 9-27 10-15 7 25 2 20 4 24 8 16 8 15 9 16 13 14 14 13 17 11 19 8 20 5 19 2 13 1 22-2 22-5 22-6 16-8 16-10 16-9 11-11 12-12 11-11 8-2-1 10-9 11-9 7-7 9-11 9-12 8-14 8-17 6-19 4-22v-34l-4-22-7-21-8-16-7-12-9-12-9-10-10-10-13-10-13-8-16-8-18-7-16-4-12-2-11-1h-21l-24 3-19 5-19 8-17 9-14 10-15 13-13 14-12 17h-2l3-9 3-7 12-13 10-10 15-11 15-9 16-8 15-6 17-5 12-3 27-14 27-11 31-10 36-9 36-7 44-6 33-3 34-2z" fill="#110C0E"/>
<path transform="translate(1706,318)" d="m0 0 206 1 136 1v25h-73l-265-1-5-25z" fill="#FEFEFE"/>
<path transform="translate(223,380)" d="m0 0h6l-2 5-12 21-1 1h-65l-1-8-4 4-15 24-4 5-4 2-18 1h-71l-6-3-1-3 8-16 7-12-3 3-3 5h-34v-25l7-1z" fill="#FEFEFE"/>
<path transform="translate(1711,346)" d="m0 0h136l201 1v25h-137l-196-1-4-19z" fill="#FEFEFE"/>
<path transform="translate(2e3 433)" d="m0 0h48v26l-264 1h-53l-4-22v-4z" fill="#FEFEFE"/>
<path transform="translate(0,532)" d="m0 0h117l41 1-2 9-8 26-9 34-9-6-11-7-16-7-18-4h-27l-17 4-16 7-11 7-11 9-3 2z" fill="#FEFEFE"/>
<path transform="translate(1700,292)" d="m0 0h48l256 3 44 1v22h-91l-218-1-34-1-2-5-3-15z" fill="#FEFEFE"/>
<path transform="translate(1790,557)" d="m0 0h258v18l-19 1-213 1-12 2-8 4-6 7-2 7v14l5 47h-29l-6-60v-12l4-13 8-9 10-5z" fill="#FEFEFE"/>
<path transform="translate(654,445)" d="m0 0h15l13 4 10 6 8 8 6 10 3 9 1 14-3 14-6 11-5 6-11 8-13 5-13 1-14-3-11-6-9-8-7-11-4-13v-17l4-11 5-8 8-9 10-6 8-3z" fill="#F8F8F8"/>
<path transform="translate(1236,243)" d="m0 0h18l19 2 19 4 22 8 21 11 14 10 14 12 9 9 11 14 10 15 9 19 6 18 4 20 1 9v31l-3 20-6 20-7 17-11 19-8 10-12 14-12 11-16 11-16 9-21 8-20 5-19 2h-12l-19-2-20-4-20-6-21-9-14-8-12-9-14-12-8-8-13-17-9-15-9-19-5-15-4-20-1-8v-29l3-20 6-20 8-18 8-14 12-16 14-15 11-9 14-10 18-10 21-8 21-5zm-2 7-17 2-21 5-20 8-16 9-14 10-10 9-14 14-10 14-11 19-7 18-5 21-2 17v16l2 18 5 21 8 20 10 18 13 17 9 10 8 7 14 11 13 8 16 8 18 7 16 4 14 2h35l18-3 20-6 16-7 16-9 13-10 12-11 9-11 9-12 9-16 8-19 5-18 3-24v-14l-2-20-5-21-7-19-9-17-11-15-12-14-11-10-15-11-16-9-16-7-19-6-17-3-11-1z" fill="#FEFEFE"/>
<path transform="translate(1296,73)" d="m0 0 9 2 38 14 28 12 28 13 30 16 23 14 12 8 17 12 13 10 13 11 14 12 35 35 10 8 13 8 15 6 21 5 26 3 19 1 55 1 312 3 21 1v1h-93l-281-2-122-1-7-7-9-11-7-7-7-8-31-31-8-7-10-9-11-9-16-13-19-14-17-12-20-13-25-15-23-13-29-15-17-8z" fill="#FEFEFE"/>
<path transform="translate(1721,404)" d="m0 0h119l8 11 5 4 10 2h93l10-2 5-5 2-10h75v27l-155 1h-167z" fill="#FEFEFE"/>
<path transform="translate(1680,292)" d="m0 0h18l12 60 23 126v1h-31l-6-3-4-5-3-15-12-82-8-53-1-8v-10l4-8z" fill="#FEFEFE"/>
<path transform="translate(651,257)" d="m0 0h27l24 4 21 7 16 8 12 7 14 11 10 9 9 11 9 12 9 16 7 17 4 15 3 19v26l-3 19-6 20-8 18-9 15-8 10-9 10-10 10-16 12-18 10-20 8-21 5-15 2h-24l-19-3-18-5-21-9-16-10-14-11-15-15-11-15-10-18-6-15-5-17-3-21v-21l3-22 6-20 8-18 10-16 11-13 9-10 11-9 14-10 14-8 20-8 14-4zm3 2-7 1v8h-2v-7h-8l-6 2 1 9h-2l-1-8-8 1-5 2 2 9h-2l-2-8-10 3-3 2 2 7-3-4-2-2-11 6 6 13h-4l-2-5-3-5-5 2-6 4 2 5 2 2h-2l-3-4-5 2-6 5 4 8-5-5-4 2-6 7 5 5 2 3-9-6-8 10 5 5 1 2-6-4-3 1-6 10 1 3 11 6v3l-13-6h-2l-5 12v3l9 3v2l-7-3h-4l-4 13v3l9 2v1l-10-1-2 16 1 1 9 1h-10l-1 5v12h16v4l-15 1v10l1 5 11-1v2l-10 1 1 9 2 6 11-3v2l-9 2-1 3 5 13 10-4-4 3-4 2 1 6 4 7 4-1 6-3v2l-5 2-3 3 7 11 5-2 8-7 1 2 10-9-2-5v-8l2-4 6-1 3 5 2 4 10-8 16-13 10-8 16-13 8-6-1-6v-12l5-10 5-5 7-4 4-1h10l9 4 4 1 10-7 3 1 3 4-1 4-9 7 1 4v14l-5 10-7 6-8 3h-10l-10-4h-4l-18 13-16 11-18 13-17 12-16 11-9 5-3 4 9 10 11 11 15 11 18 10 15 6 18 5 20 3h19l18-2 17-4 19-7 16-8 12-8 11-9 11-10 9-11 7-10 8-14 6-13 6-18 3-15 1-12h-13v-4h2v-10l-1-22 2 10h7l2-1-2-14-3-1-8 2v-2l10-2-4-15-11 3v-2l5-1 4-2-1-5-5-9-11 5h-2l-1-3 6-2 6-4-4-8-3-4-5 2-4 2v-2l4-2 3-3-7-9h-3l-6 4 5-5v-4l-8-8-5 5-3 1v-2l4-2 2-4-10-8-6 5 4-6-8-6-4-1-6 9h-2l1-5 3-5-1-3-8-4-3 1-2 4-2 1 3-6v-2l-10-4h-4l-2 7-2 1 2-6v-4l-8-2h-5l-1 8h-2l1-9-8-2h-5l-1 1v7h-2v-8l-2-1h-12v12l-4 1v-13z" fill="#161113"/>
<path transform="translate(1240,448)" d="m0 0 13 1 11 4 9 6 8 9 4 8 2 6 1 13-3 14-5 10-9 9-8 5-14 4h-11l-12-3-10-6-6-5-5-6 6 8 10 7 9 4 4 1h18l12-4 10-7 8-9 5-12 1-5v-15l-3-12h2l3 8 1 5v14l-4 13-6 10-7 7-14 8-7 2h-19l-12-4-10-7-8-8-7-14-2-10v-8l3-14 4-4-1 5-2 6-1 7v8l1 5v-18l4-12 6-8 9-9 10-5z" fill="#F9F9F9"/>
<path transform="translate(651,250)" d="m0 0h22l21 3 19 5 21 9 16 9 13 10 10 9 10 10 11 15 11 19 8 21 4 16 2 16v26l-3 19-5 18-8 18-8 15-9 12-11 13-10 10-16 12-15 9-17 8-21 7-15 3-9 1h-33l-18-3-21-6-18-8-15-9-14-11-19-19-11-16-9-16-7-18-5-21-2-15v-22l2-18 5-20 6-16 11-21 13-17 12-13 13-11 15-10 17-9 18-7 21-5zm0 7-20 3-20 6-16 7-17 10-16 13-10 9-9 11-9 12-9 16-8 21-4 17-2 16v21l3 21 6 20 7 16 8 14 9 12 9 10 10 10 15 11 17 10 20 8 20 5 14 2h24l21-3 21-6 18-8 17-10 16-13 14-14 10-13 9-15 8-18 6-20 3-19v-26l-4-24-6-18-8-17-10-15-9-11-10-11-14-11-14-9-16-8-16-6-17-4-14-2z" fill="#FEFEFE"/>
<path transform="translate(1234,250)" d="m0 0h21l18 2 17 4 17 6 19 9 15 10 11 9 11 10 9 11 11 15 9 17 7 19 5 21 2 20v14l-3 24-6 21-8 18-8 14-9 12-12 14-11 10-16 11-19 10-24 8-14 3-8 1h-35l-19-3-16-5-20-8-16-9-14-10-12-11-13-13-12-17-9-16-8-20-5-21-2-18v-16l3-23 5-18 8-19 11-18 10-13 19-19 14-10 15-9 16-7 15-5 20-4zm-6 7-19 3-21 6-23 11-16 11-10 8-9 8-9 11-10 14-9 17-6 17-4 16-2 18v17l3 22 6 21 7 16 8 14 10 14 11 12 12 11 16 11 16 9 15 6 18 5 20 3h25l20-3 20-6 18-8 16-10 14-11 10-9 9-11 10-15 9-17 7-21 4-20 1-10v-11l-2-22-5-20-8-20-9-16-10-14-11-12-8-8-16-12-16-9-16-7-20-6-20-3z" fill="#FEFEFE"/>
<path transform="translate(243,350)" d="m0 0h5l-2 5-11 17-4 6-30 1-135 2h-66v-25l193-5z" fill="#FEFEFE"/>
<path transform="translate(241,319)" d="m0 0h21l2 4v6l-13 18-1 1-21 1-204 5h-25v-17l3-1 74-6 99-7z" fill="#FEFEFE"/>
<path transform="translate(60,579)" d="m0 0h24l18 4 17 7 15 10 4 3-1 9-2 3-5-1-1 4 5 3-1 2-5-1 1 2 4 1-1 8-4 21-2-3-7-12-7-8-13-9-14-5-6-1-5-1-1-2h-3l3 2-11 2-17 7-9 7-5 4-7 10-5 10-1 3h-18v-48l9-9 14-10 16-7 14-4z" fill="#FEFEFE"/>
<path transform="translate(1852,461)" d="m0 0h196v17l-123 1h-190l-2-7-1-10z" fill="#FEFEFE"/>
<path transform="translate(1832,374)" d="m0 0h121l10 14 7 12 1 3v8l-3 5-5 3-9 1h-90l-8-1 1-8 2-2 4 1h102l-103-1-6-2-8-9-11-16z" fill="#FEFEFE"/>
<path transform="translate(0,483)" d="m0 0h177l-3 9-8 21h-166z" fill="#FEFEFE"/>
<path transform="translate(201,173)" d="m0 0h33l9 3 2 2-1 7-7 6-16 8-30 10-28 6-27 4-12 1h-31l-13-2-5-3-1-5 4-5 14-8 22-8 27-7 26-5 23-3z" fill="#100B0D"/>
<path transform="translate(1228,257)" d="m0 0h26l20 3 20 6 16 7 16 9 13 10 10 9 9 9 11 15 9 15 8 18 6 21 2 13 1 14v11l-3 22-6 21-7 16-8 14-8 11-12 14-11 9-13 10-20 11-19 7-16 4-15 2h-25l-20-3-21-6-18-8-18-11-11-9-10-9-7-7-9-12-11-18-7-15-6-19-3-17-1-10v-17l2-18 6-23 8-18 8-14 11-14 10-11 14-11 13-9 21-11 18-6 19-4zm5 2v10h-2v-9h-10l-5 1 1 11h-2l-1-10-9 1-6 2 1 11-3-10-6 1-8 4 3 9h-2l-2-7-3-1-12 6 2 6 4 8-4-2-5-9-5 2-8 6 2 4 1 3-4-5-4 2-7 6 2 4 3 4-5-4-2-2-10 10 2 4 5 4 1 2-9-7-5 5-4 6 8 5 1 2-9-5h-2l-7 12 3 3 8 4v2l-5-1-6-3-3 1-5 12v2l10 3v2l-7-3h-4l-4 13v2l7 2h5v2l-12-2-1 1-1 7v9l9 1-10 1v16h15v4l-14 1 1 13 2 4 9-1-9 2 1 9 3 7 10-3-3 2-6 2 1 7 4 9 5-2 6-3v2l-5 2-4 2 1 5 5 9 9-5-4 4-3 2 2 5 4 6 4-2 7-7 5-2 7-6v-12l2-2h6l1 6h2l-5 5-14 11 1 2 8-5-4 4-12 7-4 4 2 4 16 16 13 10 15 9 17 8 20 6 15 3 10 1h20l22-3 21-6 23-11 12-8 11-9 11-10 11-14 9-14 9-19 6-19 3-17v-9h-5l2 1-3 22-5 17-7 17-9 15-2 4-6-3-2-2 1-4 9-14 8-19 5-19 2-15-2-5h14v-16h-12v-2h9l2-1-1-13-1-3-13 2v-2l9-1 3-1-2-10-2-5-11 2 10-4-3-9-3-6-4 1-10 4v-3l11-6-2-5-5-8-10 6 4-4 4-3-2-5-5-6-10 6v-2l4-2 4-3-2-4-7-7-6 5-2 3-3 1 1-4 7-7-5-6-6-4-6 7v-2l4-5-1-3-10-6-4 5-1 3h-2l4-7v-3l-11-6-4 1-4 10h-2l1-5 3-8-10-4-7-1-2 8 1-9-9-3-7-1-1 10h-2l1-10-2-1-14-1v13l-4 1v-11l-1-3z" fill="#140F11"/>
<path transform="translate(453,629)" d="m0 0h41l17 4 10 4 5 5-6 2-49 9-26 5h-64l-3-1-3-9-2-1h-13l-8 1-1 5-15-3-5-2 2-8 6-5 13-2z" fill="#FEFEFE"/>
<path transform="translate(194,436)" d="m0 0h4l-3 9-8 16-187 1v-24h24l5 5 10 2h43l39-1 9-3 4-4z" fill="#FEFEFE"/>
<path transform="translate(240,303)" d="m0 0h29l11 3-2 4-7 9-5-1h-33l-120 8-92 7-11 1h-10v-10l43-5 75-7 90-7z" fill="#FEFEFE"/>
<path transform="translate(291,284)" d="m0 0h7l-2 4-11 13-3 4-5-1-7-2h-37l-84 6-91 8-54 6h-4v-11l22-3 104-10 115-10z" fill="#FEFEFE"/>
<path transform="translate(1830,624)" d="m0 0h99l2 27v7h-97l-1-1z" fill="#FEFEFE"/>
<path transform="translate(1716,373)" d="m0 0h114l-1 11 6 11 3 5v2h-117l-2-7-3-17z" fill="#FEFEFE"/>
<path transform="translate(1272,382)" d="m0 0 4 1 4 6v2l-11 8 1 6v9l-4 10-6 7-8 4-4 1h-9l-9-3-5-1-14 10-15 10-16 11-19 13-13 9-6 1-5 3 2-4 12-9 5-5 10-9 16-12 16-13 20-15-1-6v-12l3-8 7-8 8-4 4-1h9l10 4 4 2z" fill="#100B0D"/>
<path transform="translate(946,181)" d="m0 0 58 1 45 3 37 4 39 6 33 7 30 8 30 10 26 11 21 10v1h-8l-8-2-32-14-33-11-30-8-35-7-49-7-31-3-35-2-44-1h-19l-38 1-46 3-46 5-41 7-36 8-28 8-21 7-23 10-11 5-12 1 5-4 23-11 29-11 34-10 30-7 38-7 29-4 45-4 33-2z" fill="#FEFEFE"/>
<path transform="translate(649,620)" d="m0 0 2 1-7 10-10 21-2 6h-168v-1l65-12 72-15z" fill="#FEFEFE"/>
<path transform="translate(1412,634)" d="m0 0h31l109 2 7 3 2 5-16 6h-3l-1-3h-22l-3 9-8 2h-66l-20-4-37-7-4-2 8-5 17-5z" fill="#FEFEFE"/>
<path transform="translate(1835,586)" d="m0 0h87l4 4 2 26h-98l-1-2-1-10v-13l4-4z" fill="#FEFEFE"/>
<path transform="translate(1956,629)" d="m0 0h92v29h-90l-2-19z" fill="#FEFEFE"/>
<path transform="translate(1388,316)" d="m0 0 5 5 12 21 8 20 6 23 2 18v23l-3 22-5 19-6 15-10 19-14 19-6 5-7 4-4 8v10l4 6 8 5 3 2-24 6-31 5-21 2h-38v-1l20-3 21-6 17-7 19-11 13-10 12-11 10-11 10-14 9-16 8-19 5-18 3-18v-37l-3-18-4-15-6-16-8-16-5-8z" fill="#FEFEFE"/>
<path transform="translate(27,486)" d="m0 0h85l12 1 2 3v17l-7 2-15 1h-65l-17-2-1-1v-19z" fill="#282325"/>
<path transform="translate(0,515)" d="m0 0h165l-5 15h-132l-28-1z" fill="#FEFEFE"/>
<path transform="translate(1955,374)" d="m0 0h93v28h-76l-9-16-8-11z" fill="#FEFEFE"/>
<path transform="translate(517,316)" d="m0 0v3l-10 18-8 20-5 18-2 13-1 12v18l2 19 5 21 8 21 8 15 8 12 9 11 9 10 10 9 17 12 21 11 16 6 17 4 11 2v1l-23-1-40-5-29-5-10-2-1-2 8-4 4-6v-10l-5-8-6-4-5-2-10-13-9-14-8-15-7-20-5-22-1-9v-29l3-21 4-15 8-21 8-15 8-12z" fill="#FEFEFE"/>
<path transform="translate(1678,342)" d="m0 0h20l3 4 7 32 2 15 2 24v9l-3 2h-19l-3-4-7-46-5-27v-6z" fill="#171214"/>
<path transform="translate(1268,626)" d="m0 0 9 1 56 12 68 14 21 4v1h-139l-4-10-8-16z" fill="#FEFEFE"/>
<path transform="translate(50,463)" d="m0 0h136l-5 12h-181v-11z" fill="#FEFEFE"/>
<path transform="translate(1230,248)" d="m0 0h27l22 3 21 6 21 9 18 11 14 11 18 18 11 15 9 16 7 15 6 20 3 17 1 10v20l-2 17-5 21-8 20-8 15-10 14-9 10-6 7-11 9-12 9-18 10-21 8-21 5-20 2h-13l-20-2-21-5-21-8-19-10-17-12-12-11-12-12-12-17-8-14-8-18-6-21-3-22v-17l2-19 4-17 7-19 10-19 10-14 10-11 12-12 16-12 16-9 18-8 20-6zm4 2-17 2-21 5-20 8-16 9-14 10-10 9-14 14-10 14-11 19-7 18-5 21-2 17v16l2 18 5 21 8 20 10 18 13 17 9 10 8 7 14 11 13 8 16 8 18 7 16 4 14 2h35l18-3 20-6 16-7 16-9 13-10 12-11 9-11 9-12 9-16 8-19 5-18 3-24v-14l-2-20-5-21-7-19-9-17-11-15-12-14-11-10-15-11-16-9-16-7-19-6-17-3-11-1z" fill="#100B0D"/>
<path transform="translate(648,248)" d="m0 0h28l19 3 21 6 19 8 14 8 14 10 13 12 7 7 10 13 12 20 7 16 6 20 3 21v25l-3 20-6 21-8 18-10 17-10 13-12 13-10 9-17 12-25 13-24 8-14 3-8 1h-36l-22-4-24-8-21-11-14-10-13-12-9-9-10-13-9-15-7-15-6-18-4-20-1-9v-24l3-22 6-21 8-18 8-14 9-12 9-10 4-5 8-7 17-13 19-11 20-8 18-5zm3 2-24 3-18 5-21 9-16 9-12 9-13 11-12 13-12 17-10 19-7 19-4 17-2 18v22l3 20 5 19 9 21 11 18 9 11 18 18 15 11 18 10 21 8 22 5 8 1h33l20-3 20-6 18-8 16-9 16-12 10-9 7-7 11-14 9-14 10-21 5-15 4-19 1-8v-26l-3-20-4-15-8-20-10-17-9-12-9-10-10-10-16-12-18-10-19-8-19-5-21-3z" fill="#100B0D"/>
<path transform="translate(688,384)" d="m0 0 4 1 2 4-10 9 1 4v13l-3 8-4 5-6 4-6 2h-10l-8-3-8-8-1-3-2-2-1-3v-10l3-8 6-7 7-4 5-1h8l8 3 3 2 5-1z" fill="#FEFEFE"/>
<path transform="translate(868,241)" d="m0 0h171l9 3 6 7 1 3v233l-4 7-6 4-4 1h-175l-8-3-5-6-2-5v-228l3-9 6-5zm-5 3-5 3-4 5-1 6v226l3 7 6 5 5 1h173l8-3 4-5 1-2v-233l-3-5-6-5z" fill="#100B0D"/>
<path transform="translate(1937,587)" d="m0 0h111v17l-69 1-43-1-1-16z" fill="#FBFBFB"/>
<path transform="translate(746,200)" d="m0 0m-5 1h5v2l-34 9-30 10-21 9-19 9-1 1 10-1 24-11 24-9 24-7h4v2l-30 9-26 10-13 6 25 2 20 4 24 8 16 8 15 9 16 13 14 14 13 17 11 19 8 20 5 19 2 13 1 22-2 22-5 22-6 16-8 16-10 16-9 11-11 12-12 11-11 8-2-1 10-9 11-9 7-7 9-11 9-12 8-14 8-17 6-19 4-22v-34l-4-22-7-21-8-16-7-12-9-12-9-10-10-10-13-10-13-8-16-8-18-7-16-4-12-2-11-1h-21l-24 3-19 5-19 8-17 9-14 10-15 13-13 14-12 17h-2l3-9 3-7 12-13 10-10 15-11 15-9 16-8 15-6 17-5 12-3 27-14 27-11 31-10z" fill="#100B0D"/>
<path transform="translate(651,257)" d="m0 0h27l24 4 21 7 16 8 12 7 14 11 10 9 9 11 9 12 9 16 7 17 4 15 3 19v26h-2v-4h-13v-4h2l-2-23v-10l2 1 1 10 9-1-3-14-10 1v-2l9-3-3-11v-3l-8 3h-3v-2l8-3-1-5-4-8-11 5-3-1v-3l11-6-4-8-2-3-5 2-4 1v-2l6-4-4-7-4-3-5 4h-2l2-4 3-2-2-4-7-6-4 5h-3v-2l5-4-1-3-8-6-5 5-2-1 4-6-9-6h-2l-6 9-3-1 1-5 3-5v-2l-8-4h-2l-3 5h-2l2-6 1-2-10-3-4-1-1 7-3 1 2-10-8-1-5-1-1 8h-2l1-9-13-1-1 7h-2v-8l-14-1 1 12-5 1v-13l-13 1v8h-2v-7l-13 2v9h-2l-1-8-12 3 1 9h-2l-2-5v-3l-12 5 2 8-3-1-3-5-10 5 5 10v3h-4l-5-8v-2l-9 6h-2l5 8-4-1-2-3-5 2-5 4 2 4 2 2-1 3-5-5-4 2-5 6 5 5 1 3-4-2-5-3-7 9 5 5v3l-6-4h-2l-6 10v2l11 6 1 2-1 2-5-1-10-5-1 4h-2l1-5 8-14 9-12 12-14 10-9 16-12 16-9 20-8 14-4z" fill="#130E10"/>
<path transform="translate(118,188)" d="m0 0m-4 1h4v2l-3 1 10 4 44 13 4 1 9-2h5v2l-29 6-22 3-12 1h-31l-13-2-5-3-1-5 4-5 14-8z" fill="#100B0D"/>
<path transform="translate(1834,584)" d="m0 0h88l5 4 2 8 1 11v9l35-1h17v3h-45l1 4 2 27v9h-9l-2-20v-14h-99l1 3 3 31h-3l-3-28v-6h-11l-2-5 1-2 11-2-1-10v-14l5-6zm1 2-6 3-1 2v13l1 10 1 2h98l-2-26-4-4z" fill="#100B0D"/>
<path transform="translate(448,335)" d="m0 0 1 2-13 27-9 27-5 25-1 9v31l3 18 6 18 9 16 11 12 9 8 15 9 21 9 2-4 10-9 9-7h13l8 6 3 7-1 9-5 5h-3v-2l-9 8-3 3-9 3-9-1-5-4-2-4v-8l-10-3-21-11-12-9-10-10-9-13-8-17-4-14-2-13v-36l4-24 7-24 10-24 7-13z" fill="#100B0D"/>
<path transform="translate(875,259)" d="m0 0h157l4 2 2 6v209l-3 5-2 1h-159l-4-4-1-3v-210l3-5zm0 2-4 4v210l3 5h159l3-5v-62l-1-150-3-2z" fill="#100B0D"/>
<path transform="translate(654,445)" d="m0 0h15l13 4 10 6 8 8 6 10 3 9 1 14-3 14-6 11-5 6-11 8-13 5-13 1-14-3-11-6-9-8-7-11-4-13v-17l4-11 5-8 8-9 10-6 8-3zm5 5-6 1 1 5h-2v-4l-7 1-1 2 3 6-3-3-1-3-5 2-2 2v2h-3l-3 2 1 4 3 4-5-4-3 1-2 5 5 3-6-1-3 7-1 5v11l4 13 6 9 7 7 12 6 7 2h14l12-4 9-6 7-8 6-12 1-4v-17l-3-9-6 1 4-3-2-5-4 2h-3l5-5-4-4h-2-1l-1-3-3-2h-3l-1 5-2-1 2-6-7-2-1 2-1-3-7-1v8h-4v-8z" fill="#757374"/>
<path transform="translate(149,409)" d="m0 0h64l-8 16-5 9-41 1h-23l2-6z" fill="#FEFEFE"/>
<path transform="translate(1409,478)" d="m0 0 1 3-11 21-13 18-3 3 9 2 6 4 5 7 7 5 4 6 15-7h2v2l-16 8-3 9-6 5-7 1-11-3-14 1 1-2 3-2-8-5-4-5-1-2v-10l4-8 5-4 6-3 9-11 10-15 9-17z" fill="#100B0D"/>
<path transform="translate(1273,384)" d="m0 0 5 5-5 5-5 4h-2l2 7v8l-3 9-7 8-10 4h-9l-8-3-3-2v-4l-3-1 1-4 9-6 17-13 5-4 1-2-4-1-5-2h-10l-8 4-5 8-1 9v5l-4 2-2-5v-11l5-10 7-6 9-3h7l9 3 4 3 5-2z" fill="#FEFEFE"/>
<path transform="translate(202,170)" d="m0 0h35l10 2 6 4 1 5-7 8-16 9-19 7-19 6-32 7-30 4-14 1h-29l-16-3-5-3-2-2 1-5 5-5 10-6 18-8 30-9 34-7 29-4zm-1 3-27 3-28 5-25 6-24 8-16 8-6 5-1 5 4 4 6 2 9 1h31l28-3 26-5 23-6 20-7 16-8 7-6 1-7-6-4-5-1z" fill="#FEFEFE"/>
<path transform="translate(643,178)" d="m0 0m-3 1h3v2l-32 16-18 10-22 13 20-7 28-10 36-11h4v2l-45 14-31 11-26 11-11 6-32 24-13 11-8 7-10 11-11 14-11 15-11 17h-2l2-6 10-15 13-17h-1l-12 13-9 11-11 13-12 17-11 17-12 21-18 36-9 8-2-1 10-10 12-27 12-22 12-19 10-14 10-13 11-13 9-10 11-12 8-8 8-7 10-9 14-11 18-14 33-22 13-8 19-11 24-13z" fill="#110C0E"/>
<path transform="translate(67,617)" d="m0 0h11l7 5 3 36h-35v-10l4-24 1-4z" fill="#DDDCDC"/>
<path transform="translate(1240,448)" d="m0 0 13 1 11 4 9 6 8 9 4 8 2 6 1 13-3 14-5 10-9 9-8 5-14 4h-11l-12-3-10-6-6-5-5-6 6 8 10 7 9 4 4 1h18l12-4 10-7 8-9 5-12 1-5v-15l-3-12h2l3 8 1 5v14l-4 13-6 10-7 7-14 8-7 2h-19l-12-4-10-7-8-8-7-14-2-10v-8l3-14 4-4-1 5-2 6-1 7v8l1 5v-18l4-12 6-8 9-9 10-5zm-5 3-1 3-1-2-6 1-2 2 3 6-6-6-4 3 1 4-4-2-4 4v2l5 4h-3l-4-3-3 4v2l3 3-5-1-3 9v17l4 11 7 10 7 6 10 5 9 2h10l12-3 10-6 8-8 5-10 2-6v-19l-3-9-10 4 1 4h-2l-1-5-2 1 1 5-6-2-1-3 2 1 1 2 3-6-3-1v-2l4 2 3 3 8-4-1-4-1-2-4 2-3 2 3-5v-3l-4-3-1 3h-2l2-5-6-3-3 5-2 1 3-7-7-2-1 5h-2l1-6h-7l-1 7h-2l-1-7z" fill="#100B0D"/>
<path transform="translate(1091,397)" d="m0 0h1v16h15v4l-6 1h-8l3 16 10-1-1 2-9 1 4 15 10-3v3l-9 2 5 14v2l9-5h2v2l-7 4h-2l6 12h3l7-4-2 4-5 3 2 5 3 4v2l8-7 3-3 5-2 6-5v-12l3-3 6 1 1 6h2l-2 4-16 12 4-2 4-1-1 3-15 9-3 3 2 4 15 15 13 10 15 9 17 8 20 6 15 3 10 1h20l22-3 8-2h4v2l-16 4-15 2h-25l-20-3-21-6-18-8-18-11-11-9-10-9-7-7-9-12-11-18-7-15-6-19-3-17-1-10v-16z" fill="#130E10"/>
<path transform="translate(404,160)" d="m0 0m-1 1m-2 1h2l-1 3-16 10-20 14-17 12-19 14-18 13-17 11-20 11-20 8-26 8-27 6-40 6-155 19h-7v-2l36-5 139-17 36-6 32-8 20-7 25-12 18-11 36-26 16-12 22-15 18-12z" fill="#100B0D"/>
<path transform="translate(1461,621)" d="m0 0h19l3 5 1 2 60 2 14 2 8 7-1 3-3-1-4-4-6-2-105-2h-35l-15 3-14 6-4 3h-4l2-4 16-8 16-4 9-1h39l3-6z" fill="#FEFEFE"/>
<path transform="translate(1937,554)" d="m0 0h111v3l-258 1-10 2-10 5-7 8-4 13v12l5 50v10h-2l-5-47-1-11v-15l3-10 6-9 8-6 10-4 6-1z" fill="#100B0D"/>
<path transform="translate(1685,278)" d="m0 0h46l200 2 72 1 45 1v2h-58l-282-3h-18l-18 2-9 4-2-1 5-4 10-3z" fill="#100B0D"/>
<path transform="translate(133,186)" d="m0 0 9 1 50 15 5 2-3 2-21 5-11-3-43-13-6-2 2-2z" fill="#FEFEFE"/>
<path transform="translate(218,167)" d="m0 0 21 1 11 3 5 4 1 6-4 6-9 7-19 9-27 9-30 7-25 4-21 2h-32l-14-2-9-4-3-4 1-6 9-8 16-8 25-9 32-8 35-6 18-2zm-16 3-33 4-31 6-23 6-21 7-19 9-8 6-2 4 1 4 3 3 11 3 8 1h29l31-3 23-4 29-7 26-9 16-8 8-6 4-5-1-5-6-4-10-2z" fill="#100B0D"/>
<path transform="translate(1237,480)" d="m0 0h11 3l5 1v7l1 8-3 6-5 4-2 1h-8l-4-1-12 11-7 5v-4l3-4h-6v-11l5-1 3 3 1 6 7-8 1-4-1-2v-7l4-7z" fill="#373335"/>
<path transform="translate(162,180)" d="m0 0h10l50 15-1 2-17 6-8-1-54-16v-2z" fill="#FEFEFE"/>
<path transform="translate(802,416)" d="m0 0h8l1 1-1 14-6 23-9 21-9 14-3 4-4-2-4-3 1-5 7-10 8-16 7-21z" fill="#100B0D"/>
<path transform="translate(459,623)" d="m0 0h33l21 5 10 4 9 7 1 2-4 1-8-6-13-5-13-3-17-1-81 3-47 2-12 2-5 4-4 9-3-1 3-9 4-5 6-3 15-2z" fill="#FEFEFE"/>
<path transform="translate(87,623)" d="m0 0 11 4 9 7 7 7 7 12 1 5h-32l-1-2-2-26z" fill="#FEFEFE"/>
<path transform="translate(55,621)" d="m0 0 1 2-4 24-1 9-1 2h-30l3-9 6-9 7-8 10-7z" fill="#FEFEFE"/>
<path transform="translate(659,479)" d="m0 0 14 1 2 2-1 5 1 3v7l-4 6-4 3-8 1-6-1-15 14-4 1v-3l11-13 3-4-1-11 4-7 4-3z" fill="#1C1719"/>
<path transform="translate(0,477)" d="m0 0h180l-2 4h-178z" fill="#FEFEFE"/>
<path transform="translate(689,381)" d="m0 0 4 2 3 4-1 4-9 7 1 4v14l-5 10-8 7-8 3h-10l-10-4h-4l-18 13-16 11-18 13-17 12-10 7-2-1 7-6 51-36 18-13 4-3-2-4-2-1-28 22-22 18-7 6-2-1 9-9 14-11 11-9 16-13 7-5-1-6v-12l5-10 5-5 8-5 4-1h10l9 4 4 1zm-1 3-8 6-6-1-5-3-4-1h-8l-9 3-7 6-4 7-1 4v10l2 5h2l1 4 4 5 7 4 4 1h10l9-4 5-5 4-6 1-4v-13l-1-4 10-9-3-5z" fill="#100B0D"/>
<path transform="translate(1358,628)" d="m0 0h34l-1 4-14 7-7 5-58-12-9-2v-1z" fill="#FEFEFE"/>
<path transform="translate(108,193)" d="m0 0 57 17 3 2-24 4h-7l-45-15 3-3z" fill="#FEFEFE"/>
<path transform="translate(2029,575)" d="m0 0h19v3h-69l-154 1-16 1-10 3-5 5-3 5-1 5v11l5 49-3-1-5-46v-14l3-9 7-7 11-4 8-1z" fill="#100B0D"/>
<path transform="translate(0,411)" d="m0 0h32l-2 5-6 13v6l-1 1h-23z" fill="#FEFEFE"/>
<path transform="translate(1927,526)" d="m0 0h121v2l-80 1-229 1 1-2 7-1z" fill="#100B0D"/>
<path transform="translate(233,301)" d="m0 0h37l9 3 1 2-11-2h-29l-73 5-94 8-67 7h-6v-2l20-3 60-6 94-8z" fill="#100B0D"/>
<path transform="translate(205,175)" d="m0 0h7l29 9-4 5-9 5-9-1-44-13v-2z" fill="#FEFEFE"/>
<path transform="translate(1818,618)" d="m0 0h117l2 21 1 19h-5l-3-35-112-1z" fill="#FEFEFE"/>
<path transform="translate(25,434)" d="m0 0 5 1 2 1h74l16-1 2 4v3l-4 1-50 1h-30l-9-1-5-5z" fill="#FEFEFE"/>
<path transform="translate(1236,445)" d="m0 0h13l12 3 11 6 8 7 6 10 1 6 2 8v15l-4 13-6 9-7 7-10 6-10 3h-18l-11-4-9-6-5-4-5-7 1-2 7 9 10 7 10 4 6 1h11l14-4 10-7 7-8 4-8 3-14-1-13-5-12-6-8-9-7-9-4-11-2-14 1-11 4-10 9-5 6-4 8-2 7v22l-2-3-1-6v-8l2-10 2-5v-5l7-9 9-8 10-5z" fill="#CAC9C9"/>
<path transform="translate(637,259)" d="m0 0m-6 1h6v2l-5 1v9h-2l-1-8-12 3 1 9h-2l-2-5v-3l-12 5 2 8-3-1-3-5-10 5 5 10v3h-4l-5-8v-2l-9 6h-2l5 8-4-1-2-3-5 2-5 4 2 4 2 2-1 3-5-5-4 2-5 6 5 5 1 3-4-2-5-3-7 9 5 5v3l-6-4h-2l-6 10v2l11 6 1 2-1 2-5-1-10-5-1 4h-2l1-5 8-14 9-12 12-14 10-9 16-12 16-9 20-8z" fill="#100B0D"/>
<path transform="translate(1477,521)" d="m0 0h7l6 4 3 4v10l-3 5-5 3h-8l-6-3-3-5v-10l6-7z" fill="#FEFEFE"/>
<path transform="translate(413,521)" d="m0 0h7l6 4 3 5v8l-3 5-3 3-3 1h-8l-6-4-2-4v-10l5-6z" fill="#FEFEFE"/>
<path transform="translate(1162,279)" d="m0 0m-2 1h2l-1 3-9 6 2 4 2 5-6-5v-2l-9 7v4l5 6-5-2-4-4-9 9 1 3 6 5v2l-4-2-6-4-7 9 5 4 3 2v2l-4-1-7-4-2 5-4 8 11 6-1 3-5-1-6-3h-2l-6 14 5 1 5 2v2l-5-1-6-2-3 13-1 2 12 2v2l-12-1-2 16h9l2 2h-13v-11l4-20 5-15 8-17 7-11 10-13 10-11 14-11z" fill="#100B0D"/>
<path transform="translate(1220,423)" d="m0 0h3l3 6-19 13-20 14-25 17-18 12-7 4 2-4 12-9 18-14 12-9 15-12 16-12z" fill="#FEFEFE"/>
<path transform="translate(1462,516)" d="m0 0h9l16 4 6 5 2 4v11l-6 7-5 2h-7l-12-4-6-4-3-6v-10h-3zm15 5-5 3-4 5v10l3 5 6 3h8l6-4 2-4v-10l-5-6-4-2z" fill="#110C0E"/>
<path transform="translate(1934,585)" d="m0 0h114v2l-113 1 1 6v10h112v2h-113l-1-1-1-9v-10z" fill="#100B0D"/>
<path transform="translate(637,423)" d="m0 0 5 4-1 3-19 14-20 14-17 12-18 13-9 6-2-1 13-11 13-10 13-11 14-11 16-13z" fill="#FEFEFE"/>
<path transform="translate(643,178)" d="m0 0m-3 1h3v2l-32 16-18 10-22 13 20-7 28-10 36-11h4v2l-45 14-31 11-26 11-6 3-2-1 7-6 19-12 21-12 24-13z" fill="#120D0F"/>
<path transform="translate(949,650)" d="m0 0h17l19 3 13 4v1h-80l2-2 15-4z" fill="#100B0D"/>
<path transform="translate(89,201)" d="m0 0 36 12 8 3v1l-10 1h-22l-22-8v-3z" fill="#FEFEFE"/>
<path transform="translate(604,250)" d="m0 0m-3 1h3v2l-18 8-15 8-14 10-15 13-13 14-12 17h-2l3-9 3-7 12-13 10-10 15-11 15-9 16-8z" fill="#171214"/>
<path transform="translate(814,419)" d="m0 0h1v8l-4 19-6 17-8 17-10 15-11 13-13 13-16 12-18 10-20 8-15 4h-6l1-2 19-5 16-6 16-8 12-8 11-9 10-9 9-11 7-10 8-14 6-13 6-18 4-22z" fill="#100B0D"/>
<path transform="translate(535,628)" d="m0 0h57l-2 2-50 10-5-1z" fill="#FEFEFE"/>
<path transform="translate(1201,471)" d="m0 0 1 3-3 8-1 7v8l3 12 5 10 5 6 10 7 9 4 4 1h18l12-4 10-7 8-9 5-12 1-5v-15l-3-12h2l3 8 1 5v14l-4 13-6 10-7 7-14 8-7 2h-19l-12-4-10-7-8-8-7-14-2-10v-8l3-14z" fill="#100B0D"/>
<path transform="translate(465,302)" d="m0 0v3l-11 12-9 11-10 13-11 16-13 21-14 27-9 19-10 9-2-1 10-10 12-27 12-22 12-19 10-14 10-13 11-13z" fill="#100B0D"/>
<path transform="translate(1398,541)" d="m0 0h8l5 5 1 7-3 6-4 3-5 1-6-3-3-6 1-7 4-5z" fill="#FEFEFE"/>
<path transform="translate(502,541)" d="m0 0h7l5 4 2 6-1 7-4 4-7 1-5-3-3-4v-9l4-5z" fill="#FEFEFE"/>
<path transform="translate(1275,340)" d="m0 0 10 1 5 5h6l-1 11-3 1h-13l-5-4v-2l-3 1-3-3-1-4 3-1 1-2 1 3 2-1z" fill="#130E10"/>
<path transform="translate(1240,393)" d="m0 0h9l6 3-5 5-15 12-6 4h-2v-13l6-8z" fill="#FEFEFE"/>
<path transform="translate(656,393)" d="m0 0h9l6 3v2l-19 14-7 5-2-2v-7l3-8 7-6z" fill="#FEFEFE"/>
<path transform="translate(675,403)" d="m0 0h2v12l-4 7-6 4h-12l-5-3 5-5 12-9z" fill="#FEFEFE"/>
<path transform="translate(1389,443)" d="m0 0 1 4-7 21-10 19-10 14-12 14-11 9-13 10-20 11-16 6-3-1 9-4 23-11 12-8 11-9 10-9 11-14 9-14 9-19 6-18z" fill="#100B0D"/>
<path transform="translate(1869,636)" d="m0 0 7 1 3 2h6l1 1v9l-3 1h-21l-2-4v-8l1-1z" fill="#151012"/>
<path transform="translate(428,517)" d="m0 0 8 1 6 5 1 2v9l-4 6-9 4-2-1 2-4v-10l-4-6-6-3 2-2z" fill="#FEFEFE"/>
<path transform="translate(1869,592)" d="m0 0h6l3 2v2h6l1 7-2 3h-23l-1-2v-10z" fill="#171214"/>
<path transform="translate(657,448)" d="m0 0h9l13 3 10 6 6 5 7 10 4 12v17l-2 7h-2l1-7v-17l-2-9-6 2-1-2 4-2-1-4-4 2-4-1 5-5-5-4-1 3-2-1 1-4-6-3-1 5-3-1 3-6-7-2-1 3-1-4-7-1v8h-4l-1-7h-6l1 5h-2v-4l-7 1 2-3z" fill="#100B0D"/>
<path transform="translate(1259,403)" d="m0 0h1v12l-4 7-7 4-7 1-9-3 5-5 17-13z" fill="#FEFEFE"/>
<path transform="translate(428,515)" d="m0 0 8 1 6 4 3 4 1 7-3 7-6 5-10 4-7 2h-8l-6-4-4-6v-10l4-6 7-4zm0 2-8 2 4 3 5 5 1 2v10l-2 5 9-3 5-5 1-2v-9l-5-6-5-2zm-15 4-6 4-3 4v10l4 6 4 2h8l5-3 3-3 1-3v-8l-3-5-6-4z" fill="#100B0D"/>
<path transform="translate(847,541)" d="m0 0h5l-2 2-8 2-9 1-40 2-33 3-13 2h-5l4-2 27-5 34-3z" fill="#FEFEFE"/>
<path transform="translate(299,630)" d="m0 0h33l-6 10-2 5-6-1-12-7-7-6z" fill="#FEFEFE"/>
<path transform="translate(1831,377)" d="m0 0 5 5 8 12 9 12 3 2-2 10-5-3-7-10-12-21z" fill="#FEFEFE"/>
<path transform="translate(778,226)" d="m0 0h1v5h12v12l-11 1-2 4-11-11 5-5z" fill="#FEFEFE"/>
<path transform="translate(1407,347)" d="m0 0h2l6 15 5 18 3 22v26l-3 21-6 22-3 7h-2l1-6 5-15 4-21 1-10v-23l-2-18-6-23-5-13z" fill="#100B0D"/>
<path transform="translate(629,463)" d="m0 0 4 5 1 3-4-2-3-1-2 4 5 5-7-1-3 11v11l4 13 6 9 8 7 10 5 7 2h14l12-4h2l-1 3-12 4h-15l-10-3-9-5-9-8-6-9-3-9-1-5v-11l3-11 4-8z" fill="#100B0D"/>
<path transform="translate(1120,226)" d="m0 0 7 6 4 4-2 4-8 7-1-4h-12v-12h12z" fill="#FEFEFE"/>
<path transform="translate(516,532)" d="m0 0h8l7 6 1 3v8l-6 7-6 3 1-4v-9l-4-7-7-3 3-3z" fill="#FEFEFE"/>
<path transform="translate(1383,532)" d="m0 0h8l7 3v1l-7 2-5 6-1 9 1 5-6-2-4-4-1-2v-10l3-5z" fill="#FEFEFE"/>
<path transform="translate(62,629)" d="m0 0 3 1 1-1h4l1 15v11l-2 1h-10l1-15z" fill="#FEFEFE"/>
<path transform="translate(603,382)" d="m0 0h3v5l3-1 1 12 3 3v2l-4 1-2 5-7-1-1-6 1-2h-2l-1 4-4-1 3-5 4-11 3-1z" fill="#423E40"/>
<path transform="translate(1954,627)" d="m0 0h94v2h-92l2 23v6l-3-1-1-15z" fill="#100B0D"/>
<path transform="translate(1701,410)" d="m0 0h6v15l-1 1h-16v-9l1-6z" fill="#FEFEFE"/>
<path transform="translate(78,618)" d="m0 0 4 2 3 2 3 36h-8z" fill="#FEFEFE"/>
<path transform="translate(1058,541)" d="m0 0 38 2 42 4 19 3v1l-18-1-42-3-26-2-13-3z" fill="#FEFEFE"/>
<path transform="translate(108,490)" d="m0 0h15v15l-5 1h-9l-1-6z" fill="#FEFEFE"/>
<path transform="translate(92,491)" d="m0 0h14l1 15-1 1h-13l-1-3z" fill="#FEFEFE"/>
<path transform="translate(76,492)" d="m0 0h14l1 15-1 1h-13l-1-4z" fill="#FEFEFE"/>
<path transform="translate(516,526)" d="m0 0h13l8 6 3 7-1 9-5 5h-3l2-4v-9l-4-6-5-3h-9l-6 2 5-6z" fill="#FEFEFE"/>
<path transform="translate(146,402)" d="m0 0h1v7l-8 16-6 11-5 5h-2l-2-5v-3l5-4 16-26z" fill="#FEFEFE"/>
<path transform="translate(118,188)" d="m0 0m-4 1h4v2l-3 1 10 4 44 13 4 1 9-2h5v2l-18 4h-6l2-3-53-16-4-1-10 4-3-1 5-3z" fill="#100B0D"/>
<path transform="translate(567,460)" d="m0 0 5 1 3 5 1 3h2l-2 4-14 11-4 2 6-8-2-4v-8l3-5z" fill="#100B0D"/>
<path transform="translate(61,492)" d="m0 0h13l1 7v9h-14z" fill="#FEFEFE"/>
<path transform="translate(654,445)" d="m0 0h15l13 4 10 6 8 8 6 10 3 9 1 14-2 11h-2l1-17-2-11-4-10-7-9-10-7-10-4-5-1h-15l-10 3-3-1 4-3z" fill="#100B0D"/>
<path transform="translate(1378,526)" d="m0 0h11l8 5-3 1-2-1h-9l-5 3-4 5-1 9 2 6-4-2-4-6v-7l3-7 6-5z" fill="#FEFEFE"/>
<path transform="translate(783,402)" d="m0 0h7l3 5v9l-5 5-5-1-3-4v-10z" fill="#100B0D"/>
<path transform="translate(734,297)" d="m0 0 5 1 3 5v8l-3 5-5 1-4-3-1-3v-8l3-5z" fill="#100B0D"/>
<path transform="translate(553,403)" d="m0 0 6 1 3 5v7l-3 5-1 1h-6l-3-4v-10z" fill="#100B0D"/>
<path transform="translate(672,279)" d="m0 0h5l3 3 1 3v7l-3 5-1 1-7-1-2-4v-9l2-4z" fill="#100B0D"/>
<path transform="translate(692,459)" d="m0 0 4 2 7 10 4 11 1 14-1 14-3 6-6 5-6 7-8 5-2-1 5-6 7-6 7-11 3-1 1-7v-17l-4-12-8-11z" fill="#A8A6A7"/>
<path transform="translate(762,459)" d="m0 0h5l3 3 1 9-3 6-1 1h-5l-4-5v-9l2-4z" fill="#100B0D"/>
<path transform="translate(568,343)" d="m0 0 6 1 3 6-1 9-3 3-7-1-2-4v-9z" fill="#100B0D"/>
<path transform="translate(608,298)" d="m0 0h6l3 4v11l-4 4-6-1-3-7 2-9z" fill="#100B0D"/>
<path transform="translate(773,342)" d="m0 0 7 1 2 4v10l-4 4-6-1-3-6 1-8z" fill="#100B0D"/>
<path transform="translate(718,298)" d="m0 0h6l3 4v11l-5 4-5-2-3-5 1-9z" fill="#100B0D"/>
<path transform="translate(1469,518)" d="m0 0 7 1-5 4-4 6v10l2 5-5-2-5-5-1-2v-8l4-6z" fill="#FEFEFE"/>
<path transform="translate(1209,260)" d="m0 0m-4 1h4v2l-10 2 2 7v5l-2-1-2-10-13 5 2 9h-2l-3-7-6 2-6 3h-2l6 11v3l-3 1-6-10v-2l-2-1 5-4 21-10z" fill="#100B0D"/>
<path transform="translate(47,491)" d="m0 0 12 1v16h-9l-3-1z" fill="#FEFEFE"/>
<path transform="translate(1200,484)" d="m0 0h1l1 17 4 11 7 10 9 7 10 4 6 1h16v2l-5 1h-11l-12-3-10-6-6-5-5-7-4-4-2-10v-17z" fill="#1D191B"/>
<path transform="translate(1678,345)" d="m0 0 16 1 4 8v3h-17l-3-8z" fill="#FEFEFE"/>
<path transform="translate(654,447)" d="m0 0h15l13 4 9 6 1 2-16-8-10-2h-9l-10 2-2 4 2 6-3-1-1-5-6 4 1 5-4-3-8 6-3 2 2-5 3-3h2l2-4 5-6 9-2z" fill="#929091"/>
<path transform="translate(67,593)" d="m0 0h8l5 5-1 8-2 2-10 1-1-6v-9z" fill="#100B0D"/>
<path transform="translate(29,434)" d="m0 0h91v2l-14 1h-74z" fill="#100B0D"/>
<path transform="translate(1091,397)" d="m0 0h1v16h15v4l-6 1h-8l3 16 10-1-1 2-9 1 1 9-2-1-4-20-1-10v-16z" fill="#1B1719"/>
<path transform="translate(34,490)" d="m0 0 11 1v16h-8l-3-1z" fill="#FEFEFE"/>
<path transform="translate(656,391)" d="m0 0h10l8 4-2 4-18 14-10 7-3-3v-10l4-9 8-6zm0 2-7 4-4 5-2 6v7l2 2 19-14 7-5-1-3-5-2z" fill="#100B0D"/>
<path transform="translate(944,654)" d="m0 0h27l15 3v1h-57l4-2z" fill="#FEFEFE"/>
<path transform="translate(1118,222)" d="m0 0 8 6 8 8-2 4-8 7-4 4h-2v-6h-12v-16h12zm2 4v5h-12v12h12l1 4 10-9-2-4-8-8z" fill="#100B0D"/>
<path transform="translate(675,400)" d="m0 0 3 1 1 3v11l-4 8-8 5h-12l-6-3h-3l2-4 21-16zm0 3-17 13-8 6 3 3 2 1h12l7-5 3-6v-12z" fill="#100B0D"/>
<path transform="translate(1102,349)" d="m0 0 1 3-3 7 5 1 5 2v2l-5-1-6-2-3 13-1 2 12 2v2l-12-1-2 16h9l2 2h-13v-11l4-20 5-15z" fill="#100B0D"/>
<path transform="translate(779,223)" d="m0 0h2v7l11-1 1 1v15h-12v6l-4-2-8-7-4-4 2-4 8-8zm-1 3-11 10 6 7 6 5 1-4 11-1v-12h-12v-5z" fill="#100B0D"/>
<path transform="translate(659,191)" d="m0 0m-4 1h4v2l-45 14-28 10-3-1 5-3 31-11z" fill="#100B0D"/>
<path transform="translate(1703,398)" d="m0 0 5 1v9l-17 1v-10z" fill="#FEFEFE"/>
<path transform="translate(1679,359)" d="m0 0h2l5 16 3 17v23h-1l-9-55z" fill="#FEFEFE"/>
<path transform="translate(62,627)" d="m0 0h9l1 1 1 16v13l-4 1h-12l1-17 2-12zm0 2-2 12-1 15h10l2-1v-11l-1-15h-4-1z" fill="#100B0D"/>
<path transform="translate(1250,446)" d="m0 0 8 1 14 7 8 7 6 10-1 2-5-7-11-9-12-6-11-2-18 1 3-2z" fill="#7E7C7D"/>
<path transform="translate(1986,615)" d="m0 0h62v2l-28 1h-34z" fill="#100B0D"/>
<path transform="translate(1258,401)" d="m0 0h3l1 4v10l-3 6-5 5-5 2h-12l-7-4 5-5 17-13zm1 2-18 14-8 6 4 3 8 1 8-3 5-5 2-4v-12z" fill="#100B0D"/>
<path transform="translate(964,408)" d="m0 0 3 3-1 9 7-1 1-1 2-9h3v11l-2 4h-15v-10z" fill="#130E10"/>
<path transform="translate(823,540)" d="m0 0h24v2l-40 2-24 2h-10l1-2 31-3z" fill="#100B0D"/>
<path transform="translate(762,342)" d="m0 0h2l-2 5 5 3 1 7-5 4-5-1-3-3v-6l6-8z" fill="#100B0D"/>
<path transform="translate(1704,436)" d="m0 0h9l1 1v7l-1 1h-16l-1-2v-6z" fill="#100B0D"/>
<path transform="translate(1276,344)" d="m0 0h9l-1 3h3l3 3h3v5l-1 1h-11l-4-2-1-3 1-2-2-1z" fill="#FEFEFE"/>
<path transform="translate(660,279)" d="m0 0h2l-1 4-1 2 5 3 1 7-3 3h-6l-3-3-1-5 6-10z" fill="#100B0D"/>
<path transform="translate(772,402)" d="m0 0h3l-2 4v2l4 2 1 7-3 3-5 1-4-3-1-4 5-10z" fill="#100B0D"/>
<path transform="translate(812,390)" d="m0 0 2 2v19h-7l-1-20z" fill="#FEFEFE"/>
<path transform="translate(1341,464)" d="m0 0 5 1 2 3v8l-3 4h-5l-3-4v-7l2-4z" fill="#100B0D"/>
<path transform="translate(1147,464)" d="m0 0 6 1 1 6h2l-2 4-13 10-2-1 5-5v-12z" fill="#100B0D"/>
<path transform="translate(1364,405)" d="m0 0 5 1 2 3v8l-3 4h-5l-3-4v-7l2-4z" fill="#100B0D"/>
<path transform="translate(1352,405)" d="m0 0 5 1 2 4-1 9-2 2h-5l-3-4v-8z" fill="#100B0D"/>
<path transform="translate(1691,377)" d="m0 0h14l1 8-1 1h-15l-2-8z" fill="#FEFEFE"/>
<path transform="translate(23,489)" d="m0 0 9 1v16l-9-1z" fill="#FEFEFE"/>
<path transform="translate(1355,435)" d="m0 0 5 1 2 3v9l-2 3h-6l-3-5 1-8z" fill="#100B0D"/>
<path transform="translate(1690,388)" d="m0 0h17v8l-5 1h-11z" fill="#FEFEFE"/>
<path transform="translate(1361,373)" d="m0 0h5l2 2 1 9-2 4-6 1-3-4v-8z" fill="#100B0D"/>
<path transform="translate(966,391)" d="m0 0h13l2 4-1 12-4-1 1-11h-9v8l-2 4-3-1 1-11z" fill="#110C0E"/>
<path transform="translate(1132,374)" d="m0 0h5l3 5-1 9-3 2-5-1-2-4v-7z" fill="#100B0D"/>
<path transform="translate(1349,373)" d="m0 0h5l3 6-1 7-3 3-5-1-2-3v-8z" fill="#100B0D"/>
<path transform="translate(519,311)" d="m0 0v3l-10 15-9 17-9 25-1 4h-2l1-8 8-21 10-19 8-12z" fill="#100B0D"/>
<path transform="translate(1129,405)" d="m0 0 5 3 1 2v7l-3 4h-5l-3-4v-7l2-4z" fill="#100B0D"/>
<path transform="translate(1329,317)" d="m0 0h6l2 3v10l-3 3-5-1-2-3v-9z" fill="#100B0D"/>
<path transform="translate(1241,280)" d="m0 0h6l2 3v10l-3 3-5-1-2-3v-9z" fill="#100B0D"/>
<path transform="translate(1199,247)" d="m0 0m-4 1h4v2l-19 7-16 8-16 10-6 5-2-1 7-7 18-11 19-9z" fill="#100B0D"/>
<path transform="translate(1474,520)" d="m0 0m-2 1h2l-2 4-3 4v10l2 5 6 2h10v2l-3 1h-7l-12-4-6-4-3-6v-7l2-1 2 10 5 5 3 1-2-4v-10l4-6z" fill="#100B0D"/>
<path transform="translate(1254,280)" d="m0 0h5l2 3v10l-3 3-5-1-2-2v-10z" fill="#100B0D"/>
<path transform="translate(1161,319)" d="m0 0 5 2 1 1v10l-2 3h-6l-2-3v-9z" fill="#100B0D"/>
<path transform="translate(1298,290)" d="m0 0 5 1 2 4v6l-2 4-5 1-3-3-1-8 2-4z" fill="#100B0D"/>
<path transform="translate(353,649)" d="m0 0h21l2 7-2 1-20-3z" fill="#FEFEFE"/>
<path transform="translate(1329,464)" d="m0 0 5 1 1 5 1 7-3 3h-6l-2-2v-5-4l2-4z" fill="#585456"/>
<path transform="translate(1142,345)" d="m0 0 5 1 2 2v9l-3 4-5-1-2-3v-9z" fill="#100B0D"/>
<path transform="translate(1184,299)" d="m0 0 5 3v10l-2 3h-5l-3-3v-9l2-3z" fill="#100B0D"/>
<path transform="translate(1285,290)" d="m0 0h5l2 2v5l1 1v5l-4 3-5-1-2-5 1-4 1-5z" fill="#353133"/>
<path transform="translate(1171,299)" d="m0 0 5 2 1 4v3 5l-2 2h-6l-2-2v-11z" fill="#2C282A"/>
<path transform="translate(751,459)" d="m0 0h3l1 11 2 1-1 3h-2v4l-3-1v-3h-7l-1-3z" fill="#2E2A2C"/>
<path transform="translate(1349,344)" d="m0 0 5 1 2 2v9l-5 4-5-3v-10z" fill="#100B0D"/>
<path transform="translate(558,343)" d="m0 0h2v13h3v2h-3v4h-3v-4h-8l1-4 7-10z" fill="#373335"/>
<path transform="translate(1211,427)" d="m0 0m-1 1m-1 1m-1 1v3l-18 14-15 12-16 12h-3l10-9 16-12 16-13z" fill="#100B0D"/>
<path transform="translate(525,347)" d="m0 0 1 3-3 8 9 3v2l-11-3-2 9-2 7 9 1 2 2-2 1-10-2v4h-2l1-10 7-21z" fill="#100B0D"/>
<path transform="translate(1698,367)" d="m0 0 5 1 1 7-16 1-2-8z" fill="#FEFEFE"/>
<path transform="translate(1148,320)" d="m0 0h5l2 2-1 4 1 1v6l-2 2-7-1-1-6 1-2 1-5z" fill="#534F51"/>
<path transform="translate(899,438)" d="m0 0h7l3 4-1 7-3 3h-6z" fill="#100B0D"/>
<path transform="translate(1216,283)" d="m0 0h5l2 3v9l-3 3-5-1-2-7 2-6z" fill="#100B0D"/>
<path transform="translate(84,619)" d="m0 0 8 1 13 7 10 9 9 13 3 9-3-1-9-17-10-10-10-6-10-3z" fill="#FEFEFE"/>
<path transform="translate(985,437)" d="m0 0 6 1 1 4-2 10h-7v-14z" fill="#100B0D"/>
<path transform="translate(1683,359)" d="m0 0h17l1 6-5 1h-11l-2-4z" fill="#FEFEFE"/>
<path transform="translate(1520,648)" d="m0 0h20v3l-17 4h-5l1-6z" fill="#FEFEFE"/>
<path transform="translate(732,459)" d="m0 0h7l3 4-2 6-4 5 6 2v2h-12v-3l7-8 1-5-5 1-3 1 1-4z" fill="#100B0D"/>
<path transform="translate(810,415)" d="m0 0h4l-2 18-5 19-2 5h-2l2-10 4-16 1-14z" fill="#FEFEFE"/>
<path transform="translate(6,491)" d="m0 0h7l2 1v9l-4 2-5-1-1-10z" fill="#100B0D"/>
<path transform="translate(996,463)" d="m0 0h6l1 1v11l-2 2h-6v-13z" fill="#555253"/>
<path transform="translate(1010,438)" d="m0 0h5l2 5-1 8-4 2-4-3v-10z" fill="#100B0D"/>
<path transform="translate(1346,435)" d="m0 0 2 2-2 4 3 1 1 6-2 3h-6l-3-3 1-5z" fill="#100B0D"/>
<path transform="translate(1320,317)" d="m0 0h3l-3 6 5 1v6l-3 3-5-1-2-2 1-7z" fill="#100B0D"/>
<path transform="translate(1207,283)" d="m0 0h3v2h-2v2l3 1 1 7-2 3-6-1-2-3 1-6z" fill="#100B0D"/>
<path transform="translate(1339,344)" d="m0 0h2l-1 5 4 3v5l-3 3-6-1-1-2v-6z" fill="#100B0D"/>
<path transform="translate(1962,591)" d="m0 0h5l4 4-1 4-1 2 2 1h-10l-1-2v-7z" fill="#100B0D"/>
<path transform="translate(1134,345)" d="m0 0v3l-2 3 5 1 1 5-3 4-6-1-2-3 1-6z" fill="#100B0D"/>
<path transform="translate(113,614)" d="m0 0h5l2 2 1 5 2 1 1-5-3 1 1-3 4 1v8l-3 1-3-2-3 2-5-1v-1l5-1 1-2-5 1-2-4z" fill="#2A2628"/>
<path transform="translate(593,298)" d="m0 0h6l3 3-1 6 1 1v6l-3 3-7-1-2-4h3v2h6l-1-5-4-2 2-2h3l-1-4-4 1h-3z" fill="#100B0D"/>
<path transform="translate(997,437)" d="m0 0h6l1 4h-2v-2h-4l1 4h4l2 4-1 5h-7l-1-4v-10z" fill="#5D5A5B"/>
<path transform="translate(1110,333)" d="m0 0 1 2-2 5 11 6-1 3-5-1-6-3h-2l-2 4h-2l1-5 5-9z" fill="#241F21"/>
<path transform="translate(1219,471)" d="m0 0h2v2l3 1-1 4h2v2h-2v2l3-1-1 3h-12l-1-6 4 2 1-1 1-7z" fill="#221D1F"/>
<path transform="translate(719,300)" d="m0 0h4l2 4-1 9-5 1-2-4v-7z" fill="#FEFEFE"/>
<path transform="translate(530,337)" d="m0 0 8 5 6 4-1 3-5-1-10-5-1 4h-2l1-5z" fill="#2D282A"/>
<path transform="translate(673,281)" d="m0 0 4 1 1 2v9l-2 3-4-1-1-1v-11z" fill="#FEFEFE"/>
<path transform="translate(702,516)" d="m0 0v3l-6 8-11 8-13 5h-7l1-2 12-3 11-6 7-6z" fill="#100B0D"/>
<path transform="translate(990,411)" d="m0 0 5 1 1 4v2l-1 6-5 1-2-3v-8z" fill="#605C5E"/>
<path transform="translate(764,461)" d="m0 0 3 1 1 2v9l-3 3-4-2v-11z" fill="#FEFEFE"/>
<path transform="translate(785,404)" d="m0 0 4 1 1 1v10l-1 2-5-1-1-1v-10z" fill="#FEFEFE"/>
<path transform="translate(734,300)" d="m0 0 4 1 1 1v10l-1 2-5-1-1-1v-10z" fill="#FEFEFE"/>
<path transform="translate(610,300)" d="m0 0 4 2 1 9-3 4-4-2-1-7 2-5z" fill="#FEFEFE"/>
<path transform="translate(1e3 411)" d="m0 0h5v12l-1 1h-5l-1-1v-10z" fill="#100B0D"/>
<path transform="translate(553,406)" d="m0 0 5 1 1 1v9l-2 3-4-1-1-1v-10z" fill="#FEFEFE"/>
<path transform="translate(1250,306)" d="m0 0h3l2 5 2-4h2l1 4v7h-2l-2-4-2 4h-2l-1-7-4 8-1-4 3-8z" fill="#100B0D"/>
<path transform="translate(569,346)" d="m0 0 4 1 1 1v9l-2 3-4-1-1-1v-10z" fill="#FEFEFE"/>
<path transform="translate(1240,461)" d="m0 0h3 6l1 7-2 3-4-1v-2h-2l-1 3-2-2v-7z" fill="#3A3638"/>
<path transform="translate(775,344)" d="m0 0 4 2v11l-4 2-3-4v-7z" fill="#FEFEFE"/>
<path transform="translate(1216,455)" d="m0 0 2 1-3 2zm-4 3 3 1-8 8-5 10-2 7v22l-2-3-1-6v-8l2-10 4-9 4-6z" fill="#E7E6E6"/>
<path transform="translate(877,438)" d="m0 0 4 2v3h2l2-5h3v14l-2-1-1-8-4 4-2-4-1 8-2 1v-13z" fill="#100B0D"/>
<path transform="translate(1120,374)" d="m0 0h5l2 2-1 7-3 3 5 2-1 2h-10l2-5 5-5v-3l-7 1 1-3z" fill="#100B0D"/>
<path transform="translate(588,277)" d="m0 0m-2 1h2l1 5 4 7v3h-4l-5-8v-2l-5 3-2-1 6-5z" fill="#2A2627"/>
<path transform="translate(219,175)" d="m0 0h15l8 3 1 4-7-1-17-5z" fill="#FEFEFE"/>
<path transform="translate(567,463)" d="m0 0 4 1 1 1v8l-5 4-2-3v-9z" fill="#FEFEFE"/>
<path transform="translate(1316,464)" d="m0 0h5l2 2v5l-5 6 6 1v2h-11l2-4 5-7v-3l-4 2-3-1z" fill="#100B0D"/>
<path transform="translate(1339,405)" d="m0 0h5l2 2v6l-5 5 6 1v2h-11l2-4 5-6-1-3-5 2v-3z" fill="#100B0D"/>
<path transform="translate(84,597)" d="m0 0h5l2 3-1 5-6 3-2-2v-7z" fill="#454243"/>
<path transform="translate(1331,435)" d="m0 0 5 1 2 3-1 5-4 4 5 1v2h-11l6-7 1-1v-5h-4v2h-2l1-4z" fill="#100B0D"/>
<path transform="translate(1337,373)" d="m0 0h5l2 2-1 7-3 4 5 1v2h-11l2-4 5-6v-3l-6 1z" fill="#100B0D"/>
<path transform="translate(1870,597)" d="m0 0 12 2 1 4-1 1h-12z" fill="#FEFEFE"/>
<path transform="translate(1394,538)" d="m0 0h8v1l-7 2-4 5-1 2v7l3 6-4-2-3-7 2-9z" fill="#FEFEFE"/>
<path transform="translate(686,504)" d="m0 0h4l4 1 1 6-1 2h-8l-1-5z" fill="#7D7A7B"/>
<path transform="translate(1698,438)" d="m0 0h14v5h-14z" fill="#FEFEFE"/>
<path transform="translate(506,538)" d="m0 0h6l6 4 2 4v9l-3 5-1-2 1-7-3-7-5-4z" fill="#FEFEFE"/>
<path transform="translate(1233,519)" d="m0 0 8 2h4v7h-2l-1-2-3 2h-4l-1-6-2-2z" fill="#171214"/>
<path transform="translate(1239,306)" d="m0 0h5l2 2-1 5-5 1v5h-2v-12z" fill="#3B3738"/>
<path transform="translate(1167,276)" d="m0 0m-2 1h2l6 12v3l-3 1-6-10v-2l-2-1z" fill="#282325"/>
<path transform="translate(76,595)" d="m0 0 4 3-1 8-2 2-10 1v-4h2l2-4 1 3-1 2h2v-3h2v3h2v-7z" fill="#100B0D"/>
<path transform="translate(985,463)" d="m0 0h7l1 2v10l-3 2h-6l1-2 5-2 1-3-6 1v-2l6-1v-3h-6z" fill="#100B0D"/>
<path transform="translate(542,403)" d="m0 0 3 1v18h-3v-16h-3v-2z" fill="#100B0D"/>
<path transform="translate(756,402)" d="m0 0h6v18h-3l-1-15h-2z" fill="#100B0D"/>
<path transform="translate(746,342)" d="m0 0h5v18h-3v-15h-3z" fill="#100B0D"/>
<path transform="translate(1871,642)" d="m0 0h9l4 1v4h-13z" fill="#FEFEFE"/>
<path transform="translate(1352,407)" d="m0 0 4 1v10l-4 1-2-4 1-7z" fill="#FEFEFE"/>
<path transform="translate(706,298)" d="m0 0h5v18h-3l-1-15h-2z" fill="#100B0D"/>
<path transform="translate(1161,321)" d="m0 0 4 2v8l-2 2h-3l-1-2v-7z" fill="#FEFEFE"/>
<path transform="translate(1243,282)" d="m0 0h3l1 2v7l-2 3-3-1-1-2v-7z" fill="#FEFEFE"/>
<path transform="translate(644,280)" d="m0 0h5v18l-3-1v-14h-3z" fill="#100B0D"/>
<path transform="translate(1267,504)" d="m0 0h7l1 1v6l-5 1h-3z" fill="#413D3E"/>
<path transform="translate(666,461)" d="m0 0 3 1v8l-3-1v-5l-1 4v3l-5-1v-7z" fill="#201B1D"/>
<path transform="translate(1355,438)" d="m0 0h4l1 2v8l-4 1-2-2v-7z" fill="#FEFEFE"/>
<path transform="translate(1350,375)" d="m0 0h3l1 2v8l-4 2-2-4 1-7z" fill="#FEFEFE"/>
<path transform="translate(1331,319)" d="m0 0h3l1 2v7l-2 3-3-1-1-9z" fill="#FEFEFE"/>
<path transform="translate(1255,282)" d="m0 0h3l1 2v8l-4 2-2-4 1-7z" fill="#FEFEFE"/>
<path transform="translate(1019,444)" d="m0 0h10l1 1v7h-2v-6h-2v6h-2v-6h-3v6h-2z" fill="#100B0D"/>
<path transform="translate(1365,407)" d="m0 0 3 1 1 7-2 4-4-1v-9z" fill="#FEFEFE"/>
<path transform="translate(1014,390)" d="m0 0 1 3h2l-1-3h2v3h6v8l-2-4v-3h-2v7h-2v-7h-3v7h-2v-9z" fill="#100B0D"/>
<path transform="translate(1143,347)" d="m0 0 3 1 1 2v6l-2 3-3-1-1-2v-7z" fill="#FEFEFE"/>
<path transform="translate(1350,346)" d="m0 0h3l1 2v7l-1 2h-4l-1-2v-7z" fill="#FEFEFE"/>
<path transform="translate(1265,472)" d="m0 0 4 1 4 6v3h-2l-2-4v5h-5l-2-2v-3l3 1 2-4-2-1z" fill="#140F11"/>
<path transform="translate(1342,466)" d="m0 0 3 1 1 6-2 5h-3l-1-2v-8z" fill="#FEFEFE"/>
<path transform="translate(1129,407)" d="m0 0 3 2 1 6-2 4h-3l-2-7z" fill="#FEFEFE"/>
<path transform="translate(1362,375)" d="m0 0 4 1v9l-3 2-3-5 1-6z" fill="#FEFEFE"/>
<path transform="translate(671,487)" d="m0 0 2 3v6l-4 6-5 3h-6l-3-3h10l4-3 1-6v-5z" fill="#FEFEFE"/>
<path transform="translate(1183,302)" d="m0 0 4 1v8l-1 2-4-1-1-7z" fill="#FEFEFE"/>
<path transform="translate(1242,485)" d="m0 0h4l-2 4-7 7h-1v-7l3-3z" fill="#FEFEFE"/>
<path transform="translate(901,440)" d="m0 0 5 1 1 6-2 3h-4z" fill="#FEFEFE"/>
<path transform="translate(955,392)" d="m0 0h1v11l-1 3-4-1 1-10z" fill="#100B0D"/>
<path transform="translate(1133,376)" d="m0 0 4 1v9l-3 2-2-2v-9z" fill="#FEFEFE"/>
<path transform="translate(1298,292)" d="m0 0 4 1v9l-3 2-2-2v-9z" fill="#FEFEFE"/>
<path transform="translate(951,409)" d="m0 0h4l-1 13h-3l-1-7z" fill="#100B0D"/>
<path transform="translate(1861,596)" d="m0 0h6l1 8h-6l-1-1z" fill="#FEFEFE"/>
<path transform="translate(667,491)" d="m0 0h1v6l-4 4h-6l2-4z" fill="#FEFEFE"/>
<path transform="translate(1238,482)" d="m0 0h10l1 2h-8l-5 3-2 5v7l-2-1-1-6 3-7z" fill="#FEFEFE"/>
<path transform="translate(1148,466)" d="m0 0 4 2v6l-5 3-1-2v-6z" fill="#FEFEFE"/>
<path transform="translate(1236,445)" d="m0 0h13l1 2-19 2-6 1 2-3z" fill="#100B0D"/>
<path transform="translate(1328,344)" d="m0 0 3 1v14l-3 1-1-13-1-2z" fill="#100B0D"/>
<path transform="translate(1229,309)" d="m0 0h6l1 1v8h-2v-7l-2 1-1 6h-3v-8z" fill="#100B0D"/>
<path transform="translate(1252,517)" d="m0 0h2l1 3h3v8h-2l-1-4-1 4h-3z" fill="#100B0D"/>
<path transform="translate(1127,436)" d="m0 0h5v14l-3 1v-13h-2z" fill="#100B0D"/>
<path transform="translate(1117,406)" d="m0 0h4v15h-3v-13l-2-1z" fill="#100B0D"/>
<path transform="translate(1277,290)" d="m0 0h2l1 2v13h-3v-12h-2v-2z" fill="#100B0D"/>
<path transform="translate(1863,639)" d="m0 0 5 1 1 7h-6l-1-7z" fill="#FEFEFE"/>
<path transform="translate(58,593)" d="m0 0 4 1 2 1 1-2v7l-5 2-2-4z" fill="#474345"/>
<path transform="translate(1249,491)" d="m0 0h1v6l-4 4h-6l6-7z" fill="#FEFEFE"/>
<path transform="translate(1196,283)" d="m0 0h4v14h-3v-11h-2z" fill="#100B0D"/>
<path transform="translate(652,521)" d="m0 0h7l-2 7-3 1-3-3z" fill="#433F41"/>
<path transform="translate(659,485)" d="m0 0h5v2l-8 7-2 1v-6l3-3z" fill="#FEFEFE"/>
<path transform="translate(638,471)" d="m0 0 4 1v2h-2v2l3 1-1 1 2 1v2h-7v-9z" fill="#100B0D"/>
<path transform="translate(759,351)" d="m0 0h5l1 1v5l-4 2-3-2v-5z" fill="#FEFEFE"/>
<path transform="translate(1963,592)" d="m0 0 4 1 2 2-1 4-5 1-1-1v-6z" fill="#FEFEFE"/>
<path transform="translate(1217,285)" d="m0 0 4 2v7l-3 2-2-2v-8z" fill="#FEFEFE"/>
<path transform="translate(673,517)" d="m0 0h2v4h3l1 8h-2v-6h-2l-1 6h-2v-9z" fill="#100B0D"/>
<path transform="translate(660,481)" d="m0 0 6 1v2h-8l-5 4-1 9h-2v-8l3-5z" fill="#FEFEFE"/>
<path transform="translate(986,439)" d="m0 0 4 1-1 10h-4v-10z" fill="#FEFEFE"/>
<path transform="translate(769,411)" d="m0 0h5l1 1v5l-1 1h-5l-1-5z" fill="#FEFEFE"/>
<path transform="translate(793,337)" d="m0 0m-1 1 3 2-5 5-5 1-1-4z" fill="#353133"/>
<path transform="translate(93,598)" d="m0 0h6l-1 6 2 3h-4v-3h-2l-1 3-2-1 2-5z" fill="#100B0D"/>
<path transform="translate(890,438)" d="m0 0h6v2h-4v4h5l-1 2h-4v5l-2 1z" fill="#100B0D"/>
<path transform="translate(659,288)" d="m0 0 4 2v5l-5 1-2-5z" fill="#FEFEFE"/>
<path transform="translate(68,595)" d="m0 0h4l1 3v8h-2v-4l-3 3z" fill="#FEFEFE"/>
<path transform="translate(1023,466)" d="m0 0 2 1v2h4v2l-3 1 2 2v3l-5-1v-6h-2l1-3z" fill="#100B0D"/>
<path transform="translate(1010,440)" d="m0 0h4v10h-3l-1-1z" fill="#FEFEFE"/>
<path transform="translate(737,282)" d="m0 0h4l-2 5-3 4-3-1 1-5z" fill="#332F31"/>
<path transform="translate(997,437)" d="m0 0h6l1 4h-2v-2h-4l1 7-2 2-1-2v-8z" fill="#100B0D"/>
<path transform="translate(1310,317)" d="m0 0h2v16h-2v-13h-3v-2z" fill="#100B0D"/>
<path transform="translate(1231,280)" d="m0 0h5v16h-2v-14h-3z" fill="#100B0D"/>
<path transform="translate(9,493)" d="m0 0 4 1v6l-1 1h-5l2-2-2-1 1-4z" fill="#FEFEFE"/>
<path transform="translate(1205,288)" d="m0 0 4 1v6l-2 1-4-3z" fill="#FEFEFE"/>
<path transform="translate(76,211)" d="m0 0 10 3 6 2v1h-7l-8-3z" fill="#FEFEFE"/>
<path transform="translate(635,503)" d="m0 0 4 2-1 3h-2v6l-2-1-1-9z" fill="#2C2729"/>
<path transform="translate(1344,442)" d="m0 0 4 2-1 5-5-1v-4z" fill="#FEFEFE"/>
<path transform="translate(689,506)" d="m0 0h1v5h3v-2h2l-1 4h-8l-1-4z" fill="#100B0D"/>
<path transform="translate(1e3 413)" d="m0 0 4 1v6l-1 2h-3z" fill="#F6F6F6"/>
<path transform="translate(74,595)" d="m0 0h2l2 4-1 7h-2l-1-3z" fill="#FEFEFE"/>
<path transform="translate(632,479)" d="m0 0 4 1v1l9 1-1 2h-11z" fill="#100B0D"/>
<path transform="translate(641,449)" d="m0 0m-2 1h2l-1 4-8 6-2-1 7-8z" fill="#787576"/>
<path transform="translate(1021,417)" d="m0 0 4 1v7h-2v-6h-2v6h-2v-6z" fill="#100B0D"/>
<path transform="translate(635,452)" d="m0 0m-1 1m-1 1m-2 1h2l-2 4-5 5-2-1z" fill="#171214"/>
<path transform="translate(1336,352)" d="m0 0h5l1 4-2 2-4-1z" fill="#FEFEFE"/>
<path transform="translate(1012,417)" d="m0 0h3l1 7-4 1z" fill="#393436"/>
<path transform="translate(1006,389)" d="m0 0h4v12h-2v-10h-2z" fill="#100B0D"/>
<path transform="translate(1131,353)" d="m0 0h4v5l-4 1-1-5z" fill="#FEFEFE"/>
<path transform="translate(1318,325)" d="m0 0 5 1-1 4h-4l-1-3z" fill="#FEFEFE"/>
<path transform="translate(1287,298)" d="m0 0 4 2-2 4-4-1v-4z" fill="#FEFEFE"/>
<path transform="translate(1975,592)" d="m0 0 3 1 1 7-5 2-3-2 6-1 1-3-4-1z" fill="#191416"/>
<path transform="translate(706,507)" d="m0 0 1 3-3 6h-2l2-7zm-5 9m-2 1 2 1-4 3z" fill="#464344"/>
<path transform="translate(1234,500)" d="m0 0h2l-2 4-7 7-2-1z" fill="#FEFEFE"/>
<path transform="translate(1241,483)" d="m0 0 5 1-4 2-5 3h-2l2-4z" fill="#100B0D"/>
<path transform="translate(670,482)" d="m0 0 2 1v2l-8 6-4 2 6-7z" fill="#FEFEFE"/>
<path transform="translate(1170,308)" d="m0 0 5 1-1 4-5-1z" fill="#FEFEFE"/>
<path transform="translate(1167,276)" d="m0 0m-2 1h2l2 7-2 1-5-5z" fill="#3D393B"/>
</svg>
