<?xml version="1.0" encoding="UTF-8"?>
<svg version="1.1" viewBox="0 0 2048 1513" width="598" height="442" xmlns="http://www.w3.org/2000/svg">
<path transform="translate(0)" d="m0 0h2048v1513h-2048z" fill="#060406"/>
<path transform="translate(0)" d="m0 0h2048v1513h-2048zm927 28-62 1-109 4-73 4-65 5-46 5-53 8-28 5-17 5-21 10-15 10-11 9-13 12-13 15-13 18-12 18-17 28-14 25-15 27-14 27-10 19-12 24-11 23-17 36-9 21-13 29-11 26-2 3-23 2 8-20 5-17v-19l-4-9-7-7-12-7-18-6-14-3-8-1h-34l-30 4-27 6-20 6-17 7-9 6-5 4-4 9v14l3 16 5 15 7 14 9 11 8 7 13 6 18 5 41 7 53 7 36 4-5 9-8 11-10 13-14 19-12 20-9 19-11 28-8 15-10 13-11 12-28 28-8 10-7 14-4 17-4 36-2 42-1 68-4 28-3 31-5 83-2 62v144l2 60 3 50 4 43 5 37 5 22 5 12 6 9 8 7 10 5 9 2 15 1h157l14-3 12-7 9-10 7-14 6-21 5-27 4-36 2-26v-9l4 1 59 2h39l23-1 22 5 36 5 41 4 51 3 25 1 49 1h711l57-2 53-4 34-4 24-4 18-5 20 1h36l67-2 2 10 5 48 5 34 5 20 6 15 8 11 10 8 13 5 8 1h137l34-1 12-3 9-5 7-6 7-11 4-10 3-12 5-34 5-49 3-43 2-58 1-55v-75l-2-83-3-56-4-52-6-52-1-65-2-39-3-27-3-15-5-13-8-11-11-13-8-8-7-8-9-9-11-14-10-15-9-19-11-26-11-20-14-21-9-12-14-18-7-10v-2l84-11 39-6 25-6 16-8 7-6 7-10 6-12 6-18 2-12v-19l-3-6-8-8-17-8-21-7-30-7-28-4-25-1-22 2-18 4-16 6-11 7-6 7-3 7-1 5v8l3 15 9 26 1 2-22-1-2-6-19-41-19-42-11-24-24-50-12-24-12-22-10-19-14-24-15-26-12-19-14-20-14-17-16-16-13-10-15-10-21-10-16-5-52-9-47-6-65-6-56-4-62-3-81-3-47-1z" fill="#FDFDFD"/>
<path transform="translate(134,875)" d="m0 0 4 1 6 12 7 9 9 8 12 7 25 10 29 9 35 9 51 11 49 9 53 8 50 6 46 4 46 3 79 3 81 2 192 1h226l162-1 113-3 51-2 51-3 69-6 58-7 44-7 42-8 41-9 38-10 22-7 22-8 19-10 11-9 7-10 6-11 4 2 12 13 8 7h7l36-8h3v11l-4 52-5 77-8 100v4l2-12 3-32 7-97 3-44 3-37h1v16l-2 52-5 89-5 69-4 35-6 42-4 20-6 18-9 19-10 14-8 8-12 6-20 4-43 4-106 6-74 3h-58l-18-3-50-11-32-5-25-2-888-1-22 1-26 3-36 7-49 10-7 1h-61l-99-4-84-5-32-3-19-3-14-5-10-9-8-9-9-15-8-20-6-20-5-29-5-43-6-70-5-70-1-20v-17l2 2 3 40 2 20 4 47 4 42v7l2-1-5-58-4-49-5-74-2-41v-20l8 1 31 7h6l4-2 2-4z" fill="#FDFDFD"/>
<path transform="translate(980,102)" d="m0 0h70l75 1 82 2 75 3 74 4 106 8 72 7 33 4 11 3 9 7 8 10 8 13 10 18 13 23 28 54 11 23 12 25 15 32 9 20 12 27 10 24 11 29 4 16v14l-1 1h-36l-234-6-113-2-164-2-19-1-17-2-37-1h-199l-43 1-18 1-1 1-12 1-314 5-170 4-34 1h-38l-1-1 1-16 4-17 6-18 12-29 13-30 15-33 16-34 26-52 10-19 15-28 14-24 10-16 9-12 9-8 12-3 91-9 81-6 67-4 98-5 67-2 42-1z" fill="#FDFDFD"/>
<path transform="translate(918,463)" d="m0 0h204l35 1 6 1-4 18-10 40-16 58-16 55-15 51-19 62-9 28v3l5-12 12-37 14-47 10-33 15-52 15-53 11-41 9-38 1-1 43 1 150 2 132 2 240 6 28 1 8 6 2 2-1 5-10 18-11 16-10 13-11 13-9 11-8 8-7 8-12 13-35 35-8 7-9 9-8 7-14 13-11 9-11 10-11 9-15 13-25 20-20 15-26 20-6 4-7-1-66-2-72-1h-192l-21 1-14 2-16 5-15 9-16 13-10 10-10 6-11 3-15 2h-27l-18-3-11-4-11-9-8-8-14-11-17-9-13-4-12-2-27-1h-142l-94 1-73 2-26 1-26-20-21-16-17-13-13-11-10-8-15-13-14-12-10-9-8-7-24-22-16-15-41-41-7-8-13-14-9-11-14-18-10-15-10-21 2-4 8-5 4-1 206-5 147-3 97-1 115-2 24-1 2 2 9 39 20 75 17 61 15 48 15 46 11 31 6 12-24-72-13-40-13-44-12-43-19-71-10-41v-4l11-1z" fill="#FDFDFD"/>
<path transform="translate(1193,992)" d="m0 0h105l25 1 5 5 1 38v78l1 6h17l49-1 80-3 100-6 105-8 95-9 35-3h8l9 2 8 5 7 7 9 15 10 21 6 17 2 9v6l-8 12-9 9-10 6-27 9-34 8-46 9-48 8-64 9-59 7-71 7-45 3-57 2-46 1-183 2h-316l-109-1-109-2-52-2-56-4-51-5-52-6-72-10-55-9-57-11-36-9-16-6-9-6-11-11-5-8-1-3v-7l7-21 9-20 11-18 9-9 8-4 3-1h24l82 8 84 7 69 5 94 5 61 2 79 2 1-120 3-5 4-2z" fill="#060406"/>
<path transform="translate(1195,764)" d="m0 0h68l118 1 88 2 19 1 6 3 10 9 1 2v7l-10 25-18 41-11 25-8 14-8 10-8 7-15 12-18 11-19 10-24 8-20 4-38 4-40 2-31 1-50 1h-337l-57-1-59-2-31-2-29-4-23-6-18-8-11-6-36-24-11-9-7-8-16-33-15-35-13-33-3-7 1-5 14-11 7-2 142-3h198l22 2 13 4 11 6 12 9 16 15 11 8 10 4 10 2 14 1h18l23-2 16-5 10-8 7-7 11-9 14-10 16-7 10-2 13-1z" fill="#060406"/>
<path transform="translate(704,997)" d="m0 0h618l3 3v121l-113 1h-452l-59-1v-121z" fill="#FDFDFD"/>
<path transform="translate(940,36)" d="m0 0h152l90 2 62 2 78 4 65 5 42 4 40 5 54 9 21 5 12 5 13 7 17 12 12 11 6 5 7 8 9 10 12 17 16 25 15 26 12 21 14 26 14 27 10 19 11 23 13 27 15 33 13 29 14 32 4 11-1 3-10-6-9-4-5-10-9-22-12-28-16-35-11-24-23-46-11-23-10-19-28-52-16-27-9-12-9-10-14-9-13-4-37-5-63-7-70-6-84-6-83-4-101-3-84-1h-89l-73 1-100 3-75 4-111 7-80 7-47 5-27 4-17 5-12 7-9 9-13 18-17 28-13 23-14 26-8 16-9 17-11 23-8 16-10 21-8 16-12 27-12 28-13 31-4 11-4 3-11 4-6 2 3-9 10-25 12-28 11-24 16-34 16-33 12-24 10-19 13-24 14-24 12-21 14-23 14-21 13-17 12-13 7-7 11-9 15-10 16-8 13-5 24-5 51-8 52-6 49-4 68-4 66-3 96-3z" fill="#FDFDFD"/>
<path transform="translate(1884,874)" d="m0 0 3 1-7 14-9 10-9 7-16 8-24 9-34 10-42 10-55 11-43 7-37 5-57 6-52 4-61 3-50 2-69 2-78 1h-505l-85-2-89-3-61-4-54-5-53-7-45-7-48-9-54-12-30-8-33-11-16-7-12-8-10-10-7-11-2-5 8 1 34 9 35 7 44 7 31 4 52 4 57 2h123l12 5 22 10 33 13 25 9 13 4 16 3 26 6 19 3 33 3 70 3 40 1 82 1h229l74-1 57-2 45-3 32-4 24-5 35-10 29-10 27-11 27-12 6-3h132l41-1 35-2 36-4 41-6 39-7 31-7 26-7z" fill="#FDFDFD"/>
<path transform="translate(1822,710)" d="m0 0h21l10 3 8 6 7 11 6 17 5 20 4 26 3 32v42l-7 3-36 9-40 8-45 7-31 4-6-1-31-14-13-4-27 1-67 5-59 5-12 1 3-9 16-35 11-26 15-35 6-16 6-3 10-2-1 5-5 11-13 31-18 39-9 17-1 3 138-15 12-1h17l11 4 23 12-5-5-16-9-10-4-5-1h-10l-32 3-89 10-19 2h-9l2-5 16-34 13-30 12-29 2-5 13-4 64-16 68-16 51-11 33-6z" fill="#FDFDFD"/>
<path transform="translate(181,710)" d="m0 0h17l25 3 22 4 47 10 69 16 38 9 42 11 3 3 11 28 11 25 17 38 3 6v4l-15-1-105-11-35-3-11 3-16 7-12 6-1 3 26-12 11-4h13l65 7 69 7 17 1-13-28-11-24-14-33-7-17v-3l14 3 3 5 8 20 11 26 12 27 11 24 7 16v3l-24-1-74-5-57-3-14 1-12 4-24 11-5 2-49-6-47-8-37-8-26-7-4-3v-41l3-32 4-27 5-21 6-16 7-10 8-6z" fill="#FDFDFD"/>
<path transform="translate(1969,938)" d="m0 0h1l3 24 4 79 1 29v167l-2 57-3 50-5 49-5 32-4 15-6 12-5 5-6 5-9 4-6 1-80 1h-87l-12-2-10-5-9-9-7-14-5-19-6-39-5-43-1-14 8-1h22v9l-5 43-4 21-2 7 3-3 5-25 6-52 6-1 54-3 61-5 27-4 13-4 10-6 9-9 7-10 11-21 7-21 4-20 6-43 7-68 4-62 4-79z" fill="#FDFDFD"/>
<path transform="translate(54,939)" d="m0 0h1l2 24 2 40 4 68 5 64 5 46 6 39 6 24 7 18 8 15 8 11 9 10 11 7 12 4 24 4 48 4 71 4 5 1 2 19 3 33 4 25 1 6 4 1-3-10-4-27-3-33v-14h25l2 1-1 21-5 44-4 25-5 21-7 16-9 10-11 6-16 2h-149l-14-1-11-3-9-6-6-7-5-9-4-15-5-31-5-51-3-49-2-53-1-42v-94l3-91z" fill="#FDFDFD"/>
<path transform="translate(1771,490)" d="m0 0 5 5 11 14 13 16 10 13 9 13 7 15 3 13 1 11v15l-3 27-6 25-7 21-9 20-3 6-2 2-42 9-63 14-63 15-64 16-43 12-13 4-5-1-7-7-5-4 2-4 11-8 12-9 26-20 16-13 22-18 10-9 11-9 20-18 8-7 12-11 8-8 8-7 43-43 7-8 11-12 9-11 14-17 13-19 9-16z" fill="#FDFDFD"/>
<path transform="translate(252,489)" d="m0 0h2l4 11 7 13 12 17 10 13 9 11 9 10 7 8 14 15 38 38 8 7 17 16 13 12 11 9 12 11 11 9 14 12 10 8 16 13 13 10 21 16 18 13 3 2-1 3-9 7-2 2-10-1-39-11-63-16-90-21-69-15-25-5-11-23-7-19-6-23-3-16-1-9v-32l3-15 6-15 10-15 16-21 21-28z" fill="#FDFDFD"/>
<path transform="translate(589,1300)" d="m0 0h868l27 2 30 5 41 9 6 2v2l-31 5-33 4-34 3-57 3-38 1h-692l-57-2-56-3-53-5-43-6-2-2 24-5 40-8 21-3 11-1z" fill="#FDFDFD"/>
<path transform="translate(1799,1098)" d="m0 0h25l8 5 7 8 8 14 10 24 5 15-4 3-37 10-31 7-43 8-59 9-68 9-29 3h-10l-6-7-14-22-12-19-26-42 1-2 146-11 77-7z" fill="#FDFDFD"/>
<path transform="translate(205,1098)" d="m0 0h20l84 8 69 6 64 5 61 4v3l-26 42-12 20-9 14-8 12-5 2-61-7-65-9-49-8-45-9-44-11-13-4-1-5 11-28 9-17 7-9 8-7z" fill="#FDFDFD"/>
<path transform="translate(1765,443)" d="m0 0 5 1 9 6 5 3 7 14 13 30 8 16 10 14 14 18 13 19 10 15 10 18 14 33 8 15 12 16 11 13 11 11 7 8 12 13 7 10 5 13 3 19 2 23 1 23v90l-3 3-30 7-13 2-8-7-7-7-9-11v-23l-1-29-3-31-5-28-5-19-5-13-7-12-9-8-10-4-16-1-25 2 2-6 9-21 7-21 5-21 3-20v-33l-3-15-4-10-6-12-16-21-13-16-12-16-8-10-9-9 1-4 4-7v-13z" fill="#FDFDFD"/>
<path transform="translate(258,445)" d="m0 0h2l-2 14 5 10 4 4v2l-10 6-8 7-14 19-15 20-10 13-9 15-5 12-3 14-1 11v19l3 26 6 25 9 24 8 17 1 2-10-1h-30l-9 3-9 7-7 10-6 14-5 18-6 36-3 33v46l-11 11-7 8-7 6-19-4-25-5-1-3-1-23v-68l2-28 3-26 4-18 4-9 6-9 11-12 31-31 10-13 9-16 12-30 7-15 7-13 11-16 13-17 12-15 10-15 19-44 4-10 5-6 11-4z" fill="#FDFDFD"/>
<path transform="translate(1195,764)" d="m0 0h68l118 1 88 2 19 1 6 3 10 9 1 2v7l-10 25-18 41-11 25-8 14-8 10-8 7-15 12-18 11-19 10-24 8-20 4-38 4-40 2-31 1-50 1h-337l-57-1-59-2-31-2-29-4-23-6-18-8-11-6-36-24-11-9-7-8-16-33-15-35-13-33-3-7 1-5 14-11 7-2 142-3h198l22 2 13 4 11 6 12 9 16 15 11 8 10 4 10 2 14 1h18l23-2 16-5 10-8 7-7 11-9 14-10 16-7 10-2 13-1zm-637 14-12 1-9 6-3 4 3 10 8 20 14 32 9 20 9 15 11 12 11 9 24 16 22 12 15 6 18 5 28 4 28 2 70 3 74 1 128 1h47l109-1 66-1 50-2 34-2 32-4 19-4 17-6 16-8 16-9 14-10 10-8 13-13 6-10 11-23 13-29 7-17 6-15v-8l-4-6-3-2-10-1h-236l-79 1-26 1-14 2-14 5-11 7-13 10-13 11-11 6-9 3-19 2h-37l-19-3-10-3-10-8-11-9-12-10-14-8-12-4-26-2-131-1z" fill="#FDFDFD"/>
<path transform="translate(472,1185)" d="m0 0 19 1 35 2 83 3 142 2 124 1h269l272-3 43-1 63-3 33-2 7 10 3 6-2 1-60 4-50 2-102 2-96 1-232 1h-48l-211-1-141-2-73-2-59-3-26-2-2-2 6-10z" fill="#FDFDFD"/>
<path transform="translate(940,88)" d="m0 0h152l89 2 60 2 79 4 75 5 61 5 51 5 59 7 19 4 11 6 10 9 8 9 13 20 14 25 15 27 13 25 10 19 10 21 8 16 17 35 13 28 16 36 19 46 2 9v8l-6 8-5 2h-7l-1-1v-10l-3-17-7-21-15-37-19-42-16-35-14-29-11-23-17-33-12-23-15-28-12-20-10-14-7-7-10-5-9-2-84-9-58-5-71-5-67-4-74-3-108-3h-180l-135 4-96 5-82 5-86 7-59 6-19 3-12 6-7 8-11 17-12 20-13 23-12 23-10 19-27 54-13 28-9 20-7 15-14 33-13 33-5 16-2 10-1 12v8l-1 1h-8l-5-3-4-6-1-3v-10l6-18 11-27 11-26 19-42 23-47 29-58 12-22 12-21 15-25 8-12 8-10 9-10 11-7 13-4 15-3 77-8 59-5 56-4 122-7 87-3z" fill="#FDFDFD"/>
<path transform="translate(918,1130)" d="m0 0h190l1 1v58l-1 1h-189l-1-7z" fill="#FDFDFD"/>
<path transform="translate(165,1171)" d="m0 0 7 1 23 7 48 11 56 10 54 8 46 6 38 4h13l8-10 2-3 16 1 42 3 38 2 29 1 9 1 1 21v17h-16l-46-3-53-5-97-12-68-10-51-9-43-9-26-7-12-5-9-7-9-11z" fill="#FDFDFD"/>
<path transform="translate(1859,1170)" d="m0 0 2 2-9 12-10 7-19 7-23 6-22 5-35 7-57 9-80 11-72 8-56 5-33 2h-12v-36l1-2 69-3 56-4 9-1 8 10 3 2h18l44-5 71-10 49-8 40-8 40-10z" fill="#FDFDFD"/>
<path transform="translate(599,1126)" d="m0 0 53 1 102 2 1 1v58l-1 1h-36l-80-1-38-1-1-1z" fill="#FDFDFD"/>
<path transform="translate(1424,1126)" d="m0 0 5 1v59l-2 1-116 2h-38v-59l1-1 77-1z" fill="#FDFDFD"/>
<path transform="translate(1247,1129)" d="m0 0h20l1 1v58l-1 1-56 1h-97l-1-8v-44l1-8z" fill="#FDFDFD"/>
<path transform="translate(760,1130)" d="m0 0h153l1 1v18l-1 41h-130l-23-1z" fill="#FDFDFD"/>
<path transform="translate(919,1216)" d="m0 0h188l1 1v39h-190v-39z" fill="#FDFDFD"/>
<path transform="translate(28,437)" d="m0 0 40 6 44 5 48 4 37 2 33 1-1 5-11 24-6 14-18-2-78-10-37-6-17-4-11-4-10-9-8-11-6-13z" fill="#FDFDFD"/>
<path transform="translate(1006,709)" d="m0 0h12l14 3 11 6 10 9 7 14 2 9v8l-4 13-7 10-8 7-12 6-13 3-15-1-13-4-10-6-5-4-7-10-4-10-1-5v-9l2-9 6-11 8-9 13-7z" fill="#FDFDFD"/>
<path transform="translate(1994,438)" d="m0 0h3l-2 6-8 15-9 9-14 7-23 5-45 7-54 7-24 3h-6l-7-16-10-23v-4h45l52-4 61-6 37-5z" fill="#FDFDFD"/>
<path transform="translate(134,366)" d="m0 0h13l20 2 18 4 14 6 9 7 4 6 1 5-11 10-9 6-8 3h-33l-61-5-40-4-17-3-9-3-2-3 5-5 12-6 30-10 26-6 21-3z" fill="#FDFDFD"/>
<path transform="translate(1867,366)" d="m0 0h32l31 4 23 5 30 10 13 7 5 5-1 3-17 4-35 4-49 4-36 2h-18l-13-2-10-5-11-10 1-6 4-6 7-6 12-6 14-4z" fill="#FDFDFD"/>
<path transform="translate(1929,1233)" d="m0 0h5l-4 4-26 6-41 6-69 8-71 7-82 7-92 6-63 3-23 1-72 1-151 1h-525l-118-1-39-1-100-5-73-5-85-7-100-10-48-6-36-6-18-5-4-2v-1l10 1 36 7 56 7 98 10 84 7 103 7 63 3 32 1 67 1 237 1h267l294-2 59-2 86-5 72-5 121-11 56-6 48-6 34-6z" fill="#060406"/>
<path transform="translate(600,1213)" d="m0 0h42l112 2 1 1v39h-27l-61-1-65-2-2-1-1-3v-33z" fill="#FDFDFD"/>
<path transform="translate(511,1122)" d="m0 0 80 3 3 2v59l-3 1-95-4-18-1-2-1 1-4 13-21 10-16 10-17z" fill="#FDFDFD"/>
<path transform="translate(760,1215)" d="m0 0 152 1 1 1v38l-1 1h-94l-58-1z" fill="#FDFDFD"/>
<path transform="translate(1512,1122)" d="m0 0 5 1 14 23 10 16 11 17-1 2-22 2-62 3-32 1-1-1v-43l1-17z" fill="#FDFDFD"/>
<path transform="translate(1410,1213)" d="m0 0h18v38l-2 1-71 2-62 1h-20l-1-1v-38l24-1z" fill="#FDFDFD"/>
<path transform="translate(1114,1216)" d="m0 0h153v39l-92 1h-61l-1-1v-37z" fill="#FDFDFD"/>
<path transform="translate(1810,401)" d="m0 0 4 2 9 7 9 4 11 2h25l58-4 34-3 28-4 11-3 4-1 1 1-1 15-4 16-2 2-23 4-43 5-55 5-41 3-8-2-3-5-6-14-6-20z" fill="#FDFDFD"/>
<path transform="translate(471,771)" d="m0 0 12 3 31 9 4 10 9 24 15 35 16 34 8 14 4 5 11 9 23 16 15 9 7 4v2l-10-2-28-10-29-12-30-13-4-5-7-21-14-32-18-40-13-31-2-5z" fill="#FDFDFD"/>
<path transform="translate(212,399)" d="m0 0h1v7l-4 15-10 26-1 2h-8l-1-2 1-26h-2l-2 22 2 7h-17l-56-4-46-5-42-6-3-4-3-12-1-16 1-2 9 3 14 3 23 3 83 7 18 1h11l9-2 13-7z" fill="#FDFDFD"/>
<path transform="translate(1552,772)" d="m0 0 4 1-18 40-11 25-18 41-7 19-3 9-8 4-40 17-37 13-6 1 4-4 14-8 12-9 10-9 11-11 9-14 17-35 13-30 10-26 3-11 5-3z" fill="#FDFDFD"/>
<path transform="translate(789,785)" d="m0 0h22l1 1 2 21 3 42 3 41 3 34 3 23h-23l-2-15-6-69-6-63-1-14z" fill="#FDFDFD"/>
<path transform="translate(1131,787)" d="m0 0h23v14l-4 62-3 56-1 29-21 1-2-1 3-57 3-86 1-17z" fill="#FDFDFD"/>
<path transform="translate(1173,786)" d="m0 0h23v11l-5 73-5 77-1 1h-20l-1-1 2-40 5-90 1-30z" fill="#FDFDFD"/>
<path transform="translate(1215,786)" d="m0 0h24l-1 19-12 136-1 6-20 1-1-1 1-17 6-84z" fill="#FDFDFD"/>
<path transform="translate(874,786)" d="m0 0 18 1 5 2 2 41 3 76 2 42h-22l-2-33-6-111z" fill="#FDFDFD"/>
<path transform="translate(831,786)" d="m0 0h22l1 1 4 65 3 45 3 41v10h-21l-1-1-11-154z" fill="#FDFDFD"/>
<path transform="translate(746,786)" d="m0 0h23l2 15 4 43 10 97v5l-4 1-17-1-2-13-16-141z" fill="#FDFDFD"/>
<path transform="translate(1259,785)" d="m0 0 24 1-11 98-5 45-1 16-1 1-21 1-1-3 6-55 9-95v-8z" fill="#FDFDFD"/>
<path transform="translate(720,785)" d="m0 0 7 1 6 55 3 23 5 41 5 34v6h-11l-10-1-2-7-19-142-1-9z" fill="#FDFDFD"/>
<path transform="translate(1302,785)" d="m0 0h23l-1 12-7 49-10 78-2 19-1 1-8 1h-14l4-27 11-92 4-39z" fill="#FDFDFD"/>
<path transform="translate(1342,785)" d="m0 0h24l-1 11-12 80-7 50-1 12-3 2-19 2-1-2 7-49 9-70z" fill="#FDFDFD"/>
<path transform="translate(662,786)" d="m0 0h23l4 35 11 77 6 35 1 9-15-1-7-2-8-49-13-87z" fill="#FDFDFD"/>
<path transform="translate(1384,785)" d="m0 0h22l1 4-9 55-10 65-1 17-21 8h-4l1-9 8-49 10-71z" fill="#FDFDFD"/>
<path transform="translate(1107,796)" d="m0 0h3l-3 100-1 51-2 2h-19l-1-1 1-41 1-48v-48l8-7z" fill="#FDFDFD"/>
<path transform="translate(636,785)" d="m0 0h7l1 1 11 76 8 49 3 17v7l-11-3-11-5-1-1-2-17-12-72-8-46v-5z" fill="#FDFDFD"/>
<path transform="translate(917,795)" d="m0 0 5 2 13 9 5 5 2 101 1 36h-20l-1-12-4-115z" fill="#FDFDFD"/>
<path transform="translate(1670,882)" d="m0 0 9 1 17 6 18 8v2l-28 2-63 2h-114l1-7 2-2 31-3 63-5z" fill="#FDFDFD"/>
<path transform="translate(352,883)" d="m0 0 44 2 51 3 68 5 4 7v2l-2 1h-42l-96-1-44-2-20-1 1-3 20-9 9-3z" fill="#FDFDFD"/>
<path transform="translate(1425,785)" d="m0 0h10l14 1-2 13-8 45-4 24-1 17 2 7-10 9-14 10-6 3 3-21 11-72 4-26z" fill="#FDFDFD"/>
<path transform="translate(576,786)" d="m0 0h26l2 7 7 45 8 49 5 23-1 4-18-11-12-10 2-5-1-16-10-62-3-15z" fill="#FDFDFD"/>
<path transform="translate(984,834)" d="m0 0h17l2 5 1 109-1 1h-17l-1-1-1-13z" fill="#FDFDFD"/>
<path transform="translate(1024,834)" d="m0 0h18v114h-18l-1-113z" fill="#FDFDFD"/>
<path transform="translate(1062,828)" d="m0 0h3l-1 71-1 49-5 1h-8l-2-1v-115z" fill="#FDFDFD"/>
<path transform="translate(946,817)" d="m0 0 4 2 9 8 1 2 2 116v3h-14l-2-62z" fill="#FDFDFD"/>
<path transform="translate(965,831)" d="m0 0 11 1 3 2v114h-12l-1-18-1-37z" fill="#FDFDFD"/>
<path transform="translate(1080,818)" d="m0 0 2 1v42l-2 72-1 14-1 1h-9l-1-1v-23l1-98 6-5z" fill="#FDFDFD"/>
<path transform="translate(902,791)" d="m0 0 6 1 3 2 2 10 2 49 2 58v36l-1 1h-6l-2-12-6-130z" fill="#FDFDFD"/>
<path transform="translate(1123,790)" d="m0 0 2 1-1 47-4 96-1 11-2 3h-6v-48l3-89 1-17 5-3z" fill="#FDFDFD"/>
<path transform="translate(1246,789)" d="m0 0h6l1 1v14l-8 84-5 46-3 12h-6v-13l12-138 1-5z" fill="#FDFDFD"/>
<path transform="translate(860,790)" d="m0 0h8l1 2 4 71 4 69v15l-7 1-1-2-3-41-6-85-1-17v-12z" fill="#FDFDFD"/>
<path transform="translate(1160,789)" d="m0 0h8v18l-7 113-2 25-1 2h-6l-1-2 1-36 6-108 1-11z" fill="#FDFDFD"/>
<path transform="translate(1203,788)" d="m0 0h6l1 1-1 24-5 74-4 50-2 9-5 1-1-1v-20l6-100 3-36z" fill="#FDFDFD"/>
<path transform="translate(775,788)" d="m0 0h7l2 6 4 37 7 74 2 27v14l-7-1-4-36-11-106z" fill="#FDFDFD"/>
<path transform="translate(734,788)" d="m0 0h5l2 2 2 13 9 77 5 45 1 10v10l-5-1-4-13-7-53-5-40-5-42v-7z" fill="#FDFDFD"/>
<path transform="translate(1289,788)" d="m0 0 7 1-1 16-8 70-7 57-3 12h-5l-1-2 1-18 11-101 4-33z" fill="#FDFDFD"/>
<path transform="translate(819,788)" d="m0 0 6 1 2 7 4 54 6 86v11h-5l-3-9-4-42-7-87-1-20z" fill="#FDFDFD"/>
<path transform="translate(691,788)" d="m0 0h7l2 7 9 70 9 67v9l-4 1-2-2-5-24-10-69-7-49v-9z" fill="#FDFDFD"/>
<path transform="translate(650,789)" d="m0 0h7l2 6 13 89 7 47v6l-6-1-3-10-9-53-6-37-6-41v-5z" fill="#FDFDFD"/>
<path transform="translate(1332,788)" d="m0 0 5 1-1 17-9 69-8 58-3 7-5 1-1-3 17-136 2-11z" fill="#FDFDFD"/>
<path transform="translate(1372,789)" d="m0 0 7 1-3 23-10 69-7 41-3 11-2 2h-3v-11l17-123 2-11z" fill="#FDFDFD"/>
<path transform="translate(610,789)" d="m0 0h5l3 8 8 45 11 70v9l-4-1-3-3-5-21-7-40-8-50-1-16z" fill="#FDFDFD"/>
<path transform="translate(1013,835)" d="m0 0 5 1 1 26v41l-1 44-1 1h-7l-1-1-1-34v-77z" fill="#FDFDFD"/>
<path transform="translate(1413,789)" d="m0 0 7 1-1 10-8 54-10 57-2 5-2 2-4-1 1-15 11-76 5-31 2-5z" fill="#FDFDFD"/>
<path transform="translate(552,786)" d="m0 0h10l2 6 5 35 6 36v5l-4-4-10-23-17-42-2-8 5-4z" fill="#FDFDFD"/>
<path transform="translate(1e3 706)" d="m0 0h18l14 4 10 5 11 10 6 11 3 9v17l-4 11-6 8-9 9-13 7-14 3h-12l-16-4-10-5-10-9-7-10-4-11v-16l3-10 6-10 4-5 10-7 8-4zm3 3-16 4-11 6-8 9-7 14-1 6v9l4 13 6 9 4 5 11 7 11 4 12 2 13-1 12-4 11-7 8-9 5-10 2-8v-8l-3-12-6-11-7-7-10-6-11-4-7-1z" fill="#060406"/>
<path transform="translate(1466,786)" d="m0 0h15l3 1 1 4-3 12-11 27-13 30h-1l1-13 7-56z" fill="#FDFDFD"/>
<path transform="translate(1455,788)" d="m0 0h4l1 4-8 72-4 11-5 7h-3v-12l7-47 5-29z" fill="#FDFDFD"/>
<path transform="translate(569,789)" d="m0 0 4 2 3 5 5 21 8 50v12l-3 3-4-2-3-7-2-23-7-46z" fill="#FDFDFD"/>
<path transform="translate(1828,417)" d="m0 0 3 1 4 11 2 10v6l-4 4-2-19z" fill="#060406"/>
</svg>
