<?xml version="1.0" encoding="UTF-8"?>
<svg version="1.1" viewBox="0 0 2048 658" width="1792" height="576" xmlns="http://www.w3.org/2000/svg">
<path transform="translate(0)" d="m0 0h2048v658h-2048z" fill="#757475"/>
<path transform="translate(0)" d="m0 0h928v1l-65 5-65 7-41 6-38 8-11 3-27 3-29 6-33 11-29 14-18 11-19 13-17 13-16 13-10 9-8 7-16 15-12 13-20 4-12 4-13 7-11 10-43 8-46 10-29 8-20 7-29 13-14 8-6 5h-2l-2 4-7 11-5 12-4 18-1 12-4 5-1 2-1 17v41l3 28v7l-2 6 1 11 5 12 7 10 8 9 10 5 9 25 10 19 9 12 9 10 9 8 14 8 12 4 6 1h17l32-5 15-4 12-5 11-7 10-9 8-12 19 4 103 23 8 7 7 7 14 8 11 3h15l21-4 3-1h8l186 44 88 21 71 17 33 8 7-1 9-2 8 23 1 4h-1031z" fill="#FEFEFE"/>
<path transform="translate(1222)" d="m0 0h826v658h-362l2-2 29-11 36-17 23-13 18-11 19-13 17-13 13-11 10-9 7-7 11-14 10-15 4-10 6-30-1-10-2-9v-28l2-26v-9l-4-10-9-12-13-15-5-9-1-8 3-29 1-18v-18l-2-20-5-25-9-26-8-16-5-3-38-10-54-13-60-13-27-9-29-15-22-12-23-12-19-10-43-21-33-15-30-13-41-16-24-7-36-8-43-7-41-5-48-4z" fill="#FEFEFE"/>
<path transform="translate(874,40)" d="m0 0h41l53 3 38 4 30 5 20 5 23 8 20 9 18 10 21 14 16 12 16 13 16 16 7 11 3 8v16l-5 12-9 14-13 17-5 5-11 9-14 14-7 8-12 13-9 11-14 18-13 18-16 21-11 16-14 20-23 35-9 16-12 23-8 16-8 15-7 8-8 7-7 7-11 7-13 5-17 4-6 1h-23l-30-5-58-11-12-4-12-7-11-11-8-14-4-11-2-10v-40l4-37 8-63 8-52 6-29 8-29 12-36 13-34 10-23 8-17 9-16 8-10 9-8 10-5z" fill="#737273"/>
<path transform="translate(1858,365)" d="m0 0 7 6 9 11 6 8 4 8 1 5-4 6-12 12-17 12-20 12-25 13-24 11-30 12-37 12-34 8-31 5-39 4-39 2h-120l-61-1h-48l96 2h139l34-2 39-4 35-6 36-9 36-12 31-13 33-16 20-11 18-12 13-10 10-10v13l-1 13v29l3 14-1 7-8 11-10 10-17 13-18 12-25 15-22 12-27 13-32 13-25 9-29 8-26 5-23 3-31 2h-85l-60-1-59-2-30-2-11-3-9-8-4-11-9-29-10-24-10-20-13-21-13-17-3-5 126-3 56-2 22-2 13-4 9-7 7-8 9-15 12-22 6-10 1-1 14 1 17 1h17l33-2 31-4 22-4h3l1 30 1 16 4 10 14 14 13 9 7 3 8 1 21-5 20-7 26-11 29-14 18-10 16-11 11-9 6-7 1-7-5-10-7-10z" fill="#FEFEFE"/>
<path transform="translate(1115,281)" d="m0 0 39 2 211 14 123 9 4 1 4 18 8 22 8 17 9 15 7 8 7 4-2 5-15 28-11 18-11 11-8 4-9 2-31 2-95 3-53 1h-27l-11-12-15-15-14-11-14-10-15-9-21-10-21-7-21-4-11-1h-15l-17 2-17 4-20 8-14 8-12 9-13 12-12 14-10 16-9 19-8 24-5 25-4 6h-10l2-6 10-21 12-29 14-29 11-21 16-27 20-30 12-17 13-18 14-19 16-21 9-12z" fill="#FEFEFE"/>
<path transform="translate(898,14)" d="m0 0h36l36 1 42 3 31 4 36 7 28 8 27 9 26 11 25 12 28 15 22 13 25 15 44 28 54 35 25 15 21 10 18 6 32 7 69 12 74 14 31 7v2l-23 7-29 11-31 13-15 7-19 8-12 6-6 5-29-2-339-23-8-1 3-5 11-12 7-8 14-15 15-16 8-9 10-14 8-13 5-12 2-8v-10l-3-10-7-12-14-15-11-9-13-11-18-13-19-12-22-12-24-10-26-8-29-6-33-4-57-4-40-1h-31l-56 1v-2l-67 1 4-2 27-5 33-4 42-3 23-1z" fill="#FEFEFE"/>
<path transform="translate(845,86)" d="m0 0m42 95m62 8m-73-142h26l46 2 35 3 36 5 20 4 21 6 19 7 21 10 22 13 16 11 13 10 16 13 12 11 7 10 4 11v9l-3 10-7 12-14 17-11 12-7 7-7 8-14 15-9 10-18 22-6 8h-2l2-4 9-12 9-11 13-14 7-8 11-12 7-7 7-8 1-2-17 8-11 8-10 9-11 14-17 28-13 22-14 22-5 7h-2l2-5-14-1-2 10-8 31h-2l1-9 7-27 9-25 8-18 8-17 6-8 6-4 13-4 14-3 13-16 11-10 13-8 15-7 6-3 5-6 2-9v-16l-3-6h-19l-27 4-15 5-10 9-10 17-14 28-14 24-13 24-14 28-9 25-1 3h-2l2-10 8-20 12-25 13-24 11-19 12-22 10-20 9-13 8-7 13-5 15-3 16-2 16-1-8-5-6-2-1 3-8 1-5-2h-19l-1 4-2 1h-9l-5-3-5-1-4-1 1-2-9-3-5-5-3-7v-20l5-19 6-11 4-5 7-4-15-8-21-8-21-6-9-1-16 7-21 11-21 13-18 12h-3l8-7 19-12 24-14 14-8-20 10h-3l5-4 20-10h3v-2l-12-1-32-4-5 1-22 14-23 16-11 8-2-1 7-6 17-12 18-12 13-8-4-1-38-2h-50l-4 1 7 3 1 2v14l-2 5-9 3h-22l-2 6h-2l2-6 8-14 9-10 4-4-11 7-7 8-8 14-8 16-11 25-11 29-14 41-9 33 7-1 2-11 10-36 3-3-1 9 6 12v3h-2l-3-7v6l-6 2-1 2h12l3 5 5 19 11-13 14-14 14-9 12-5 7-2h4v2l-16 5-12 6-10 8-14 14-12 16-11 16-12 18-11 18-9 71-5 45-1 6 5 2 8 8 7 14 3-32 4-22 8-26 8-20 12-26 16-31 12-22 13-26 10-14 9-8 15-7 16-4 20-3h9v2l-24 3-21 5-16 8-9 9-10 17-14 28-12 22-20 40-10 25-7 21-5 23-4 37 1 9 2 7 9-1 5-5 4-13 9-45 9-32 8-23 11-24 6-8 10-5 17-5 28-5 7-1h22l2 2-1 9-14 33-7 21-7 29-7 36-3 10 15-6 3-4 5-14 2-1 2 11 1 4 25-7h3l1-18 3-16 2-4 5-4 1-10h2l1 10 9-2h6v2l-19 3-5 10-4 28 4-1 1-3 2-18 2-1-1 18-1 4 13-3h4v3l13 5 7 3h3l5-5-2 5-17 33-10 17-11 14-13 13-14 9-13 6-17 4-8 1h-22l-22-3-66-12-11-4-10-7-9-9-8-16-3-11-1-9v-22l2-25 9-71 9-61 7-35 7-25 13-40 15-39 13-28 10-19 9-11 9-7 7-3z" fill="#737273"/>
<path transform="translate(869,51)" d="m0 0 2 1-12 11-10 17-3 6h2l2-6 22-1 9-2 1-5v-16l-9-2 2-2 4-1h50l38 2 5 1-3 3-22 14-17 12-12 9 4-2 17-12 24-16 13-8 21 2 26 4v2l-23 11-2 2 20-10 3 1-21 11-25 15-15 10-3 3 25-16 19-11 23-12 8-3 9 1 21 6 16 6 21 10-3 3-6 4-6 10-4 10-3 13v20l3 7 4 4 12 4-4 4-13 4-13 7-12 11-11 14-12 16-14 20-13 18-9 13h-2l-1-5-12-15-5 14h-2l2-10 4-17 2-14v-21l-3-7-3-1-35-1-25 4-16 5-11 6-8 7-10 15-13 26-12 22-20 39-12 28-10 30-4 19-3 28-1 14-2-3-7-14-8-8-4-2 1-16 9-76 4-30 12-20 7-10 13-19 12-16 9-10 11-11 14-9 13-5 8-1v-2l-17 5-16 9-12 11-9 9-8 10h-1l-5-20-2-4-12-1 1-3 6-1-1-9 2 2 2 8h2l-5-12-2-5v-4l-10 36-3 11-7 1 1-8 9-31 14-41 12-30 9-20 8-16 7-12 9-10z" fill="#757475"/>
<path transform="translate(703,218)" d="m0 0h26l7 8 2 3 1 6-12 5-10 9-7 14-4 13-1 7v19l5 21 8 22 11 23 8 11 6 8v12l-12-2h-8l-8 2-2 5-6 18-5 19v10l1 1 10-1 23-6 3 1-4 4-19 8-13 5-4 5-3 8-1 11 1 4h7l12-5 11-7 6-8 1 3-7 13-9 10-8 6-17 8-22 7-10 2-10-1-11-4-12-7-11-10-11-14-13-25-16-39-5-14-4-11v-2h2l1-3 58-15 15-5 3-2 7-2 9-8 13-21 12-22 2-5v-7l-2-2h-8l-9 6-9 9-10 15-6 13-3 2-3 7-8 2-11-1h-17l-25 6-21 7-8 4h-3l-12-42-2-15v10l6 24 9 31-1 3-3-1-12-39-13-37-13-32-10-19-9-10-8-5v-5l103-7 63-5z" fill="#FEFEFE"/>
<path transform="translate(1121,451)" d="m0 0h19l17 3 17 6 21 11 12 9 14 12 9 10 11 15 9 15 10 21 7 22 4 21 1 8v33l-3 19-1 2h-229l-5-10-6-19-5-25-1-9v-25l3-21 4-15 6-16 10-19 10-13 14-14 15-10 14-6 16-4z" fill="#767576"/>
<path transform="translate(1331,32)" d="m0 0h33l29 2 20 3 27 10 42 18 26 12 34 16 40 20 22 12 32 17 18 10 10 7-4 3-17 5-35 7-40 6-60 7-45 4h-32l-17-3-15-6-19-10-21-13-22-14-48-30-26-16-22-13-23-13-29-15-7-4 3-2 24-6 33-6 31-4 36-3z" fill="#FEFEFE"/>
<path transform="translate(1014,2)" d="m0 0h132l53 2 57 4 46 5 44 7 41 9 7 2v1l-25-1h-46l-32 2-36 4-37 6-30 7-9 3 4 3 20 10 22 12 26 15 28 17 24 15 19 12 24 15 22 14 21 12 16 8 17 5 7 1h39l53-5 64-8 41-7 25-6 14-5 3-4 10 2 73 16 60 15 18 5-2 2-50 13-44 11-69 17-28 8-8-1-40-9-64-12-74-13-27-6-21-7-17-8-22-13-40-26-25-16-17-11-19-12-15-9-22-13-23-13-27-14-21-10-23-9-33-11-32-8-36-6-26-3-31-2-33-1h-49l-36 1h-20v-1l56-5 44-3 43-2z" fill="#FEFEFE"/>
<path transform="translate(283,319)" d="m0 0h13l10 3 13 7 12 11 7 8 8 13 8 17 6 20 4 24 1 21-2 21-5 21-6 15-7 10-8 9-9 6-9 3h-17l-14-5-12-9-7-7-11-15-8-15-7-18-5-21-2-13v-36l3-17 6-18 6-11 7-9 8-8 10-5z" fill="#7C7C7C"/>
<path transform="translate(869,51)" d="m0 0 2 1-12 11-10 17-12 25-12 30-6 16 2-1h13l13 2h5l-9-2 4-4 16-11 9-7 1 2-1 9v23l3 8 6 5 13 4h27l32-4h8l4-4 15 1 85 2-6 8-10 11-10 13-13 18-24 34-7 10h-2l-1-5-12-15-5 14h-2l2-10 4-17 2-14v-21l-3-7-3-1-35-1-25 4-16 5-11 6-8 7-10 15-13 26-12 22-20 39-12 28-10 30-4 19-3 28-1 14-2-3-7-14-8-8-4-2 1-16 9-76 4-30 12-20 7-10 13-19 12-16 9-10 11-11 14-9 13-5 8-1v-2l-17 5-16 9-12 11-9 9-8 10h-1l-5-20-2-4-12-1 1-3 6-1-1-9 2 2 2 8h2l-5-12-2-5v-4l-10 36-3 11-7 1 1-8 9-31 14-41 12-30 9-20 8-16 7-12 9-10z" fill="#777677"/>
<path transform="translate(876,47)" d="m0 0h26l46 2 35 3 36 5 20 4 21 6 19 7 21 10 22 13 16 11 13 10 16 13 12 11 7 10 4 11v9l-3 10-7 12-14 17-11 12-7 7-7 8-14 15-9 10-18 22-6 8h-2l2-4 9-12 9-11 13-14 7-8 11-12 7-7 7-8 1-2-17 8-11 8-10 9-11 14-17 28-13 22-14 22-5 7h-2l2-5-14-1-2 10-8 31h-2l1-9 7-27 9-25 8-18 8-17 6-8 6-4 13-4 14-3 13-16 11-10 13-8 15-7 6-3 5-6 2-9v-16l-3-6h-19l-27 4-15 5-10 9-10 17-14 28-14 24-13 24-14 28-9 25-1 3h-2l2-10 8-20 12-25 13-24 11-19 12-22 10-20 9-13 8-7 13-5 15-3 16-2 16-1-8-5-6-2-1 3-8 1-5-2h-19l-1 4-2 1h-9l-5-3-5-1-4-1 1-2-9-3-5-5-3-7v-20l5-19 6-11 4-5 7-4-15-8-21-8-21-6-9-1-16 7-21 11-21 13-18 12h-3l8-7 19-12 24-14 14-8-20 10h-3l5-4 20-10h3v-2l-12-1-32-4-5 1-22 14-23 16-11 8-2-1 7-6 17-12 18-12 13-8-4-1-38-2h-50l-4 1 7 3 1 2v14l-2 5-9 3h-22l-2 6h-2l2-6 8-14 9-10 4-4-11 7-7 8-8 14-8 16-11 25-11 29-14 41-9 33 7-1 2-11 10-36 3-3-1 9 6 12v3h-2l-3-7v6l-6 2-1 2h12l3 5 5 19 11-13 14-14 14-9 12-5 7-2h4v2l-16 5-12 6-10 8-14 14-12 16-11 16-12 18-11 18-9 71-5 45-1 6 5 2 8 8 7 14 3-32 4-22 8-26 8-20 12-26 16-31 12-22 13-26 10-14 9-8 15-7 16-4 20-3h9v2l-24 3-21 5-16 8-9 9-10 17-14 28-12 22-20 40-10 25-7 21-5 23-4 37v12l2 5 10 2-2 9-5 8-4 5-8 3 8 7 10 4 66 12h6l5-5 7-12 4 5 7 7 11 5 8 1 10 2-1 2-18 3h-22l-22-3-66-12-11-4-10-7-9-9-8-16-3-11-1-9v-22l2-25 9-71 9-61 7-35 7-25 13-40 15-39 13-28 10-19 9-11 9-7 7-3z" fill="#767576"/>
<path transform="translate(1575,283)" d="m0 0h70l5 6 8 22 7 34 1 10-1 5-20 3 22-1 1 17v-18h2l1 5v17l-12 3-35 5-26 2h-42l-17-2-10-5-7-7-9-16-10-21-7-21-2-9 1-7 8-6 17-8 15-5 21-2z" fill="#FEFEFE"/>
<path transform="translate(1241,467)" d="m0 0h32l8 9 13 18 13 22 11 23 9 25 8 26 5 8 7 5 10 3 25 2 54 2 104 2 6 7 12 9 8 4 9 2h36l25-3 22-5 16-5 14-2 10-5 7-8 7-12 2-5 27-11 26-11 30-15 24-14 21-13 19-14 11-10 5-5 5-6h1l-1 11-3 12-6 9-8 9-8 7-15 12-18 12-28 17-27 14-23 11-28 11-34 11-28 7-36 5-28 2-31 1h-128l-67-1-32-1-13-1-2-5-7-33-7-27-8-22-13-27-10-17-14-19-14-15z" fill="#FEFEFE"/>
<path transform="translate(949,191)" d="m0 0h26l5 3 2 6v21l-4 24-5 17-13 33-11 28-8 28-5 22-5 25-5 13-5 4-14 5 3-11 9-45 6-23 6-18 14-33 1-9-1-1h-22l-30 5-19 5-12 5-6 8-9 19-9 25-8 27-7 32-5 25-4 11-5 4h-9l-4-10 1-15 3-28 5-23 9-27 11-25 18-36 12-22 15-30 9-14 9-9 16-8 21-5z" fill="#FEFEFE"/>
<path transform="translate(626,290)" d="m0 0 32 1 20 3 13 4 6 5 1 2v10l-11 23-12 21-7 12h7l16 4 8 5 4 5 3 9v14l-3 16-5 10-3 3-16 4-20 3h-17l-8-4-7-8-8-16-3-9v-3l-30 8-7 2-5-1-5-12-2-8h2l1-3 58-15 15-5 3-2 7-2 9-8 13-21 12-22 2-5v-7l-2-2h-8l-9 6-9 9-10 15-6 13-3 2-3 7-8 2-11-1h-17l-25 6-21 7-8 4h-3l-12-42-2-16 1-5 6-7 9-4 17-3 34-3z" fill="#737273"/>
<path transform="translate(1830,197)" d="m0 0 4 1 8 18 5 15-1 7-1 46-8 5-24 11-40 15-27 9-3-3-8-16-9-13-6-4-14-3-31-3-24-1-8-16-8-17 8-3 37-10 113-28z" fill="#FEFEFE"/>
<path transform="translate(1121,451)" d="m0 0h19l17 3 17 6 21 11 12 9 14 12 9 10 11 15 9 15 10 21 7 22 4 21 1 8v33l-3 19-1 2h-28l4-20 1-10v-21l-3-22-6-20-11-24-12-17-13-14-14-11-13-8-13-5-13-3-9-1h-12l-16 3-12 5-12 7-10 9-8 10-8 14-5 11-4 13-3 19v27l3 20 5 17 8 18 1 3h-26l-5-10-6-19-5-25-1-9v-25l3-21 4-15 6-16 10-19 10-13 14-14 15-10 14-6 16-4z" fill="#FEFEFE"/>
<path transform="translate(300,245)" d="m0 0h59l50 2-1 8-3 16-2 21v31l3 37 5 38 1 18-1 14-10-1-5-1-8-36-10-30-9-20-9-16-12-17-12-13-14-11-15-8-9-3-6-1h-13l-11 3-12 6-11 9-9 12-7 13-10-4-2-8 1-7 13-23 5-11 2-9 22-5 24-3z" fill="#FEFEFE"/>
<path transform="translate(1122,387)" d="m0 0 18 1 17 3 20 6 21 9 19 11 14 10 11 9 10 9 18 18v2h-14l-19-1-7-7-20-15-17-10-17-8-22-7-20-3h-26l-17 3-15 5-16 8-14 10-10 9-9 11-10 15-8 17-7 21-5 26-2 24v20l1 24-19-4-13-4-10-9-17-13-6-4v-2l9-4 6-5 9-14 7-13 2-1h10l4-4 4-18 6-23 6-15 8-16 9-14 11-13 12-12 15-11 21-11 15-5 20-4z" fill="#FEFEFE"/>
<path transform="translate(1115,385)" d="m0 0h15l18 2 21 5 21 8 23 12 16 11 13 10 13 12 16 16 2 3h27l89-2 59-2 31-2 11-2v2l-10 3-22 2-93 3-88 2 13 17 10 15 10 18 11 23 10 28 6 21 4 6 6 5 11 3 30 2 59 2 60 1h85l31-2 35-5 25-6 27-8 8-3h3v2l-7 2-3 9-9 13-7 6-11 4-14 2-19 6-22 4-18 2h-36l-11-3-12-7-9-8-3-4-104-2-54-2-25-2-12-4-8-7-5-12-8-26-8-21-12-25-13-21-13-17-5-6h-31l14 14 11 14 10 14 13 24 10 22 8 24 8 33 5 24 13 1 32 1 67 1h128l31-1 28-2 16-2h8v2l-23 3-26 2-24 1h-160l-83-2-6-1 4 14 1 4h-32v-5l-5 1h-8l-4-1v-2l18-1 1-9 1-2-6 2h-11l-1-2 18-2 1-11-5 2h-13v-2l18-2-1-11-6 2h-10l-1-2 15-2 2-1 1-10-9 2h-10v-2l17-3-1-12-13 3-5-1 4-2 13-3-1-10-15 4h-4v-2l15-4h3l-4-13-17 5v-3l16-5-2-8-10 3-9 2v-2l11-4 6-2-2-6-3-4-14 5h-3v-2l13-5h4l-4-9v-2l-17 6-3-1 8-4 9-4-5-9-10 3-9 3v-2l13-6h4l-6-9-6 1-10 5h-2v-2l14-7-2-4-4-5-6 2-9 5-3-1 9-6 6-2-7-8-2-1-11 6-4 2 2-4 10-6v-2l-6-5-5 1-9 7-3 1 2-4 11-8-7-6-5 2-8 6-4 2 2-4 6-5 5-2-4-4-6-2-7 4-7 6 1-4 8-7h2v-2l-6-2-6 1-7 7-1 2h-2l2-5 8-7-9-2-8 6-4 5-1-2 5-7 5-4-9-1-6 5-3 5h-2l2-5 5-6h-9l-5 5-3 5-1-4 5-7h-8l-6 8-2 2-1-2 6-9-10 2-5 9h-2l2-6 2-4-8 3-5 9h-1l1-7 2-2h-5l3-3 36-9 18-3-15-4-12-2-11-1h-17l-24 3 3-3 17-3h26l20 3 27 9 23 12 14 10 14 11 5 5 33 2-7-8-18-18-14-11-14-10-21-12-19-8-20-6-17-3-18-1-24 1 1-2z" fill="#7A797A"/>
<path transform="translate(685,522)" d="m0 0 42 9 116 24 85 17 11 8 14 11 11 9 13 4 20 5 3 14 2 5-11-2-112-27-229-54-19-5 2-2z" fill="#FEFEFE"/>
<path transform="translate(753,39)" d="m0 0h20l5 4 1 2v9l-14 35-13 38-8 28-8 33-5 26-1 2-7-1 1-9 11-42 11-36 11-30 16-37 2-7-1-6-2-2h-37l-37 4-24 4-25 6-24 9-21 10-17 10-19 12-21 16-10 8-14 12-19 19-3 4h-2l-9 9-10 14-6 13-3 12-1 10v12l2 21 6 35 6 24 8 23 5 14-1 1-14 2-1 3 4 4 12 2 6 2 10 21 12 21 9 15 17 29 14 26 11 18 8 10 11 11 14 9 10 4 5 1v1h-14l-15-3-15-6-12-8-9-8-11-14-12-19-14-23-16-26-13-21-10-18-12-24-11-28-6-21-3-19v-24l4-33 4-18 6-16 8-14 9-12 9-10 7-8 25-25 8-7 15-12 20-15 17-11 19-11 16-8 19-8 20-6 28-6 23-3z" fill="#FDFDFD"/>
<path transform="translate(1120,484)" d="m0 0h12l2 43 2 23 4 24 3 5 6 1 3-2-1-10v-40l3-41 8 1 9 4-1 9-9 39-5 25-1 17 2 2 5-1 27-15 19-10 17-8 3 1 6 13 1 5-27 7-44 13h-2l3 12 3 3 12-1 59-6h3l1 2 1 18h-12l-47-5-12-2h-9l-1 4 9 13 11 14 9 11 4 6h-120l6-7 10-10 8-7 14-12 14-11 1-4-3-3-43-10-34-10 1-18h4l29 14 28 13 12 4h5l2-2v-8l-4-4-14-7-21-13-12-8-17-11-4-3 1-6 6-11 7 6 9 9 8 7 15 14 11 9 10 9 7 5 4 1-1-11-8-28-7-30-5-30z" fill="#FEFEFE"/>
<path transform="translate(758,56)" d="m0 0h8l-6 16-8 19-11 30-9 28-27 1-10-2h-10l-12 3-2 1h-38l-24 4-15 3-13 1h-10l1-8 3-10 9-7 19-12 15-9 24-14 34-18 19-9 25-9 26-6z" fill="#FEFEFE"/>
<path transform="translate(1032,63)" d="m0 0 9 1 21 6 16 6 21 10-3 3-6 4-6 10-4 10-3 13v20l3 7 4 4 12 4-4 2-13 4-10 5h-20l-62-1-15-1 4-2 16-3 8-4 5-6 3-9v-11l-5-6-12-6-14-3-21-1-4-7 1-4 18-12 21-13 22-12 15-7z" fill="#FEFEFE"/>
<path transform="translate(874,40)" d="m0 0h41l53 3 38 4 30 5 20 5 23 8 20 9 18 10 21 14 16 12 16 13 16 16 7 11 3 8v16l-5 12-9 14-13 17-5 5-11 9-14 14-7 8-12 13-9 11-14 18-13 18-16 21-11 16-14 20-23 35-9 16-12 23-8 16-8 15-7 8-8 7-7 7-11 7-13 5-17 4-6 1h-23l-30-5-58-11-12-4-12-7-11-11-8-14-4-11-2-10v-40l4-37 8-63 8-52 6-29 8-29 12-36 13-34 10-23 8-17 9-16 8-10 9-8 10-5zm2 7-10 3-9 6-9 10-9 16-13 27-13 33-10 28-11 35-6 24-6 32-11 77-7 59-1 15v22l2 14 5 13 6 10 10 10 12 7 17 4 68 12 10 1h22l18-3 12-4 15-8 10-8 12-12 11-15 12-22 13-25 11-17 16-25 18-27 12-17 15-20 10-14 10-13 9-10 7-8 9-10 12-13 11-12 7-7 9-11 10-13 7-14 1-5v-9l-4-11-8-11-7-7-11-9-15-12-17-12-13-8-21-12-17-8-30-10-22-5-26-4-37-4-34-2-26-1z" fill="#FEFEFE"/>
<path transform="translate(956,179)" d="m0 0 6 1 11 6 4 4h-28l-29 4-19 5-13 7-8 7-10 15-13 26-12 22-20 39-12 28-10 30-4 19-3 28-1 14-2-3-7-14-8-8-4-2 1-16 9-76 4-30 12-20 7-10 13-19 12-16 9-10 11-11 14-9 13-5 13-3 4 1 3 3h13l2-1 1-3 18-2 7 1 2 1h13z" fill="#FEFEFE"/>
<path transform="translate(1846,304)" d="m0 0 2 3 3 8h4l-7 57-4 13-6 8-11 9-19 12-18 10-24 12-31 13-19 7-10 3-6-1-10-9-7-6-4-6-2-8-1-45 30-9 15-6 7-9 9-15 2 4 9 40 3 10 4 6 5 1 15-5 20-9 20-10 12-8 6-5 4-10 6-35 2-18z" fill="#FEFEFE"/>
<path transform="translate(889,428)" d="m0 0 3 1-4 6 7-5 3-1h9l16 4 18 8 22 12 17 10v3l-5 6-16-8-35-21-16-6-9-2h-7l16 3 13 5 15 8 19 12 14 8 4 2-3 5-14 11-16 8-8 3h-7l-8-2-6-1-9-5-10-10-8 13-4 3-11-1-61-11-10-4-9-8 14-7 4-6 39-10h5v-2l-40 10h-2l1-11 5-2 41-9z" fill="#FEFEFE"/>
<path transform="translate(1151,161)" d="m0 0 6 1 8 5 1 2-25 2-19 3-15 5-9 7-7 10-12 23-10 19-14 24-15 28-11 23-7 19-5 18-2-4-4-13-5-9-10-9-8-4-15-3 8-18 13-22 12-17 10-14 12-17 13-18 11-13 7-8 10-8 15-7 12-3 5 1 5 3h9l2-1 1-3 10-1h9l7 2 6-1z" fill="#FEFEFE"/>
<path transform="translate(1114,487)" d="m0 0h2l7 38 9 35 5 18-1 6-6-1-15-13-14-12-15-14-13-12-7-7-3 4-4 9 1 4 18 11 10 7 21 13 12 7 8 4 2 3v8l-3 3-8-1-16-6-35-17-16-8h-2l-2 18 10 2 36 10 31 7 4 4-1 4-22 18-13 12-8 7-10 10h-11l-8-16-6-18-3-15-1-9v-27l3-19 6-18 9-17 7-9 8-9 6-5h2l-2 4-10 9-8 11-1 2 12 3 7 1 9-10 8-7 11-7h2l-2-9z" fill="#747374"/>
<path transform="translate(811,174)" d="m0 0 1 4-1 5 6 12v3h-2l-3-7v6l-6 2-1 2h12l3 5 5 19 11-13 14-14 14-9 12-5 7-2h4v2l-16 5-12 6-10 8-14 14-12 16-11 16-12 18-11 18-9 71-5 45-1 6 5 2 8 8 7 14 3-32 4-22 8-26 8-20 12-26 16-31 12-22 13-26 10-14 9-8 15-7 16-4 20-3h9v2l-24 3-21 5-16 8-9 9-10 17-14 28-12 22-20 40-10 25-7 21-5 23-4 37v12l2 5 10 2-2 9-5 8-4 5-8 3 8 7 10 4 66 12h6l5-5 7-12 4 5 7 7 11 5 8 1 10 2-1 2-18 3h-22l-22-3-66-12-11-4-10-7-9-9-8-16-3-11-1-9v-22l2-25 9-71 9-61 7-35 7-25 3-3-1 7-7 26 7-1 2-11 10-36z" fill="#747374"/>
<path transform="translate(1149,171)" d="m0 0h19l3 4 1 3v16l-2 9-7 8-16 7-11 6-9 7-10 9-10 13-5 2-17 4-10 4-5 6-8 15-10 23-10 28-7 29-4 16-7 11-9 1-2-8v-9l7-32 9-27 12-25 14-27 14-24 14-27 9-17 7-9 8-7 15-5z" fill="#FEFEFE"/>
<path transform="translate(602,293)" d="m0 0h54l21 3 3 2-10 6-10 10-7 10-7 12-6 16-3 2-6 1-11-1h-17l-25 6-21 7-8 4h-3l-12-42-1-5v-11l3-6 7-6 16-4 28-3z" fill="#FEFEFE"/>
<path transform="translate(1867,530)" d="m0 0v3l-9 10-8 8-14 11-13 10-22 14-23 13-15 8-28 13-48 19-20 9-19 9-1 1h-320l-5-13v-5l89 2h160l39-2 27-3 24-4 27-7 36-12 31-13 36-18 24-14 27-18 13-10z" fill="#FEFEFE"/>
<path transform="translate(283,319)" d="m0 0h13l10 3 13 7 12 11 7 8 8 13 8 17 6 20 4 24 1 21-2 21-5 21-6 15-7 10-8 9-9 6-9 3h-17l-14-5-12-9-7-7-11-15-8-15-7-18-5-21-2-13v-36l3-17 6-18 6-11 7-9 8-8 10-5zm3 20-9 3-9 7-7 8-7 14-5 18-2 17 1 22 4 20 6 16 7 14 9 12 9 9 12 7 7 2h12l11-4 10-9 7-10 6-14 4-19 1-19-2-22-4-16-6-16-8-14-11-13-11-8-9-4-4-1z" fill="#FEFEFE"/>
<path transform="translate(1138,433)" d="m0 0 2 1-6 9 4-5 4-4h10l-6 8v3l6-9 2-1h10l-6 8-2 4h2l2-5 7-6 9 1 1 2-6 4-4 7 6-7 6-4 10 2-5 5-5 6-1 2h2l2-4 8-7 6 1 4 2v2l-9 7v2l9-8 5-1 8 5v2l-9 6-4 5 10-8 5-3 4 2 6 5-5 4-8 6-1 2 12-9 5-1 7 6-1 3-10 6-2 3 11-7 5-2 8 8v2l-13 7h2l12-6 4 2 5 6-1 3-12 6h-2v2l15-7 4 1 5 7v2l-13 5-4 1v2l17-7 3 1 5 10-17 7 10-3 5-2h4l4 8v3l-15 5h-2v2l18-6 5 9-1 3-15 5h-2v2l17-6 3 1 2 8-6 3-11 3 1 1 17-5 3 10v4l-14 4h-4v2l15-4h4l2 10-8 3-9 2 10-1 7-2 1 1 1 12-5 2-13 1v2l19-2v10l-3 2-14 2h10l7-2v12l-6 2h-12v2l13-1 5-1-1 11-7 2-10 1h11l6-1-2 11-2 1h-16v2h12l6-1-1 6h-24l1-12 1-8v-33l-3-21-5-19-7-19-8-16-9-15-9-12-11-12-8-8-13-10-19-11-17-7-17-4-8-1h-19l-16 3-16 6-11 6-12 9-12 12-10 14-8 15-7 19-5 21-2 1 3-18 8-24 5-10h2l1-6 1-2h3l1-6 2-3h3l1-6 4-2 3-6 3-1 3-5 2-1v3h2v-6l3-3h2v3h2l2-7 3-3h2l1 4 3-7 6-4-1 7h2l1-7 8-5 2 1-3 7h2l2-7 5-4 6-1-3 5v4l4-8 5-3 6-1-5 9-1 2h2l2-6 5-5z" fill="#FEFEFE"/>
<path transform="translate(452,235)" d="m0 0 1 4-3 22v30l3 18 6 21 11 27 12 25 14 24 14 23 13 21 14 23 12 18 8 10 10 10 11 7 13 6 16 4 16 1 18-1-2 2-34 8-7 1h-17l-11-4-9-6-9-9-10-14-14-24-14-22-24-36-14-20-19-29-9-15-12-23-7-16-7-23-2-9v-15l4-12 6-10 10-12 1-2z" fill="#FEFEFE"/>
<path transform="translate(919,349)" d="m0 0h2l-9 45-5 22-2 5-16 6-29 8-36 8-9 1 2-6 4-15 7-36 5-20 1-2 17-1 29-5 27-6z" fill="#FEFEFE"/>
<path transform="translate(1646,286)" d="m0 0 3 1 9 24 7 34 1 10-1 5-20 3-1 2-28 3h-20l-9-3-6-5-6-10-6-18-2-10v-13l3-6 6-4 13-3 59-4z" fill="#737273"/>
<path transform="translate(1112,415)" d="m0 0h17l18 2 17 4 4 2v1l-24 4-34 9-15 6-17 10-14 12-10 10-9 12-9 16-7 15-6 18-4 21-1 10-1 32-17 6h-2l-1-8v-44l3-24 5-22 6-16 8-16 7-11 8-10 15-15 10-7 15-8 18-6 10-2z" fill="#FEFEFE"/>
<path transform="translate(911,98)" d="m0 0h12l12 2 8 4 2 3h-23l-12 3-3 1-1 3v10l3 34-1 18 2-9v-13l-3-30v-10l3-3 6-2 7-1h21l5 2 6 10 5 15 4 18v18l-3 3-14 3-26 3h-27l-13-4-7-6-3-8v-16l3-15 6-16 6-8 5-4 7-3z" fill="#FEFEFE"/>
<path transform="translate(736,468)" d="m0 0 2 1 8 16 11 12 11 7 10 4 38 8 47 9 7 1h29l19-4 16-6 15-8 14-11 13-12 6-7 1 3 2-2-1 5-2 2-1-1-12 29-15 31-8 12-13-1-85-17-129-27-11-3 6-7 11-11 6-9z" fill="#FDFDFD"/>
<path transform="translate(879,51)" d="m0 0h50l38 2 5 1-3 3-22 14-17 12-18 13-9 2-13 4-7 6-8 16-4 4-18 13-14 8-15-1-2-2 12-31 11-24 5-11 22-1 9-2 1-5v-16l-9-2 2-2z" fill="#FEFEFE"/>
<path transform="translate(411,248)" d="m0 0h10l-2 5-5 10-3 10-1 9 3 18 7 23 11 25 12 22 15 24 8 11 15 22 11 16-4 1-75-13v-26l-7-56-2-26v-30l2-22 4-19z" fill="#FEFEFE"/>
<path transform="translate(1811,302)" d="m0 0 2 1 8 50v8l-9 6-37 19-19 8-5 1-7-28-5-24 1-5 5-12 8-3 34-12z" fill="#FEFEFE"/>
<path transform="translate(831,35)" d="m0 0h16l-4 7-10 15-13 24-14 29-14 32-14 36-14 41-6 18-13 26-5 13h-1l1-44-2-5 1-16 4-13 9-21 16-35 19-38 13-23 13-22 13-19z" fill="#FEFEFE"/>
<path transform="translate(924,281)" d="m0 0h21l-1 9-14 33-3 7-9 4-17 5-31 6-16 2h-14l2-9 10-24 8-15 6-5 18-6 25-5z" fill="#FEFEFE"/>
<path transform="translate(415,195)" d="m0 0 4 1 6 12 8 9-6 8-11 13-5 7h-20l-28-1h-66l-31 3-25 5h-4l-3-4 1-3 12-6 20-6 24-5 34-5 38-4 13-3 10-6 10-9 5-4z" fill="#FEFEFE"/>
<path transform="translate(1101,88)" d="m0 0 12 6 2 4-3 2v12l2 20v25l1-4v-23l-2-19v-10l4-3 6 2 18 13 13 10 4 3 2 8v18l-4 4-14 3-16 2h-24l-13-3-8-5-3-7v-18l4-18 6-12 5-6z" fill="#FEFEFE"/>
<path transform="translate(758,337)" d="m0 0h1v9l-5 41-1 11v43l4 17 7 14 8 10 8 7 10 6 12 4 64 12 24 4h25l20-4 4 1-15 7-19 5-7 1h-27l-34-6-55-11-14-5-11-8-9-9-8-14-2-5v-7l4-23 2-21v-30l-3-4v-6l3-7 3-31z" fill="#FEFEFE"/>
<path transform="translate(292,308)" d="m0 0 2 1-1 2 3-3 3 1-4 6 7-7h5l-5 6-1 2h2l2-4 3-3h6l-5 4-2 3h2l5-5 5-1 3 2-6 3h-2l-2 5 9-7h5l1 2-6 3-3 4 8-6 4-1 5 3-3 2-7 4-1 2 8-5 6-1 3 3-10 5-2 3 5-4 6-2 5 1 2 3-9 4-2 2 9-4 5 1 2 4-10 4h-2v2l9-4h5l2 5-10 4 4-1 8-1 2 5-10 4h3l8-2 2 6-11 3v2l9-3h4l2 6-9 3h-2v2l12-3 2 4v3l-11 2v2l7-2h5l2 6-1 1-10 1v2l12-2 2 7-9 2h-2v2l10-2 2 1 1 7-11 1v2l12-1 1 7-12 1v2l13-1 1 8h-12v2h13l1 7-3 1h-10v2h14v7l-11 1 12 1v8h-15v2h15l-1 7-15 1 15 1-1 6-15 1 14 2-1 6h-15l3 1 12 1-2 6h-12l-3-1v2l14 1 1 1 2-2-1 5-2 2h-2l-6 1-9-2v2l14 1-3 6-13-1 2 1 10 1-2 5-6 1-9-2v2l13 1-2 4-1 1h-8l-6-2v2l13 2-3 4h-8l-6-2v2l11 2-2 3-13-1 9 3-2 2-9-1h-3l8 3-4 2-5-1-4-2 1 1 4 3-7-1v2l-5-1v2h-5l-2-1-3 1-4-2-3 1-12-4v-2l7 1h13l10-3 10-6 8-8 9-14 6-16 4-18 1-7v-35l-4-24-6-20-7-16-9-14-8-10-9-8-14-8-8-3-5-1h-12l-12 3 2-5 2-1v3l5-5v3l5-6 2 1v1z" fill="#FDFDFD"/>
<path transform="translate(849,36)" d="m0 0 2 1-3 14-4 7-7 10-14 27-13 30-13 35-10 30-8 29-6 28-9 59-3 22h-2l-1-9h-14l-4 6h-1v-40l5-16 9-20 7-14 12-36 9-26 14-35 12-27 14-29 11-21 13-20z" fill="#FEFEFE"/>
<path transform="translate(495,165)" d="m0 0v3l-10 15-7 15-2 9v31l2 10 7 19 19 45 15 36 19 46 11 28 13 31 10 21 9 14 11 12 8 7 14 8 13 4 18 2h21l-4 2-14 3h-20l-12-3-12-6-13-10-10-11-10-15-12-22-14-25-15-25-15-26-8-16-3-9 7-5-1-8-2-5-5 2-3 3h-2l-10-26-7-25-6-31-3-20-1-11v-17l3-17 8-16 8-11z" fill="#FEFEFE"/>
<path transform="translate(744,31)" d="m0 0h46l-3 9-5 13h-1l-2-10-4-4-3-1h-18l-36 2-26 3-27 5-22 6-21 8-17 8-19 11-24 16-12 9-14 11-10 9-8 7-29 29-9 11-9 12-9 17-5 15-3 15-8 3h-4l2-15 4-14 8-16 7-11 11-14 15-16 21-21 8-7 14-12 17-13 18-13 19-12 22-12 19-8 24-8 27-6 35-4z" fill="#FEFEFE"/>
<path transform="translate(706,511)" d="m0 0 8 1 61 13 112 23 45 9 12 2-5 5-9 6-11-1-94-19-136-28 3-3 11-6z" fill="#FEFEFE"/>
<path transform="translate(280,274)" d="m0 0h11l16 4 16 9 13 11 8 8 10 13 11 18 11 23 7 19 6 22 5 25v3l16 3 3 9 5 19v3l-14-2-14-3-5-31-6-28-6-22-11-26-10-18-10-14-8-9-14-11-12-7-13-4h-18l-10 3-11 6-11 11-7 11-7-2 2-6 8-13 9-10 11-8 10-4z" fill="#FEFEFE"/>
<path transform="translate(391,464)" d="m0 0 130 26 6 9 10 17v2l-12-2-81-18-47-11-4-7-2-7z" fill="#FEFEFE"/>
<path transform="translate(536,384)" d="m0 0 21 2 6 4 5 11 12 32 11 26 9 19 8 12 10 12 14 11 11 5v1h-8l-14-3-13-5-11-8-14-14-9-14-13-27-18-44-7-18z" fill="#FEFEFE"/>
<path transform="translate(737,237)" d="m0 0h1v141l-4-5-8-13-7-15-7-19-5-19-1-6v-17l3-15 7-16 7-9 8-5z" fill="#FEFEFE"/>
<path transform="translate(1851,357)" d="m0 0h2l4 10 10 15 2 5-1 6-7 8-9 8-15 10-21 12-29 14-27 11-24 8-13 3-9-1-9-5 4-2 21-7 34-14 25-12 23-13 18-12 11-9 5-8 3-12z" fill="#FEFEFE"/>
<path transform="translate(819,155)" d="m0 0 42 1 8 1 3 12 5 6 9 4 4 2-20 6-16 9-12 11-9 9-8 10h-1l-5-20-2-4-12-1 1-3 6-1-1-9 2 2 2 8h2l-5-12-2-5 8-24z" fill="#FEFEFE"/>
<path transform="translate(851,450)" d="m0 0h3l12 16 6 4 18 5 1 4-9 16-2 3-11-1-61-11-10-4-9-8 14-7 4-6z" fill="#FEFEFE"/>
<path transform="translate(413,433)" d="m0 0 11 1 70 12 21 33v2l-14-2-79-15-3-5-6-23z" fill="#FEFEFE"/>
<path transform="translate(277,289)" d="m0 0h18l12 4 12 7 1 2-26 4-13 4-12 7-11 10-9 14-7 15-4 13-3 15-1 9v27l3 22v4l-3-1-5-12-2-10-1-15v-33l2-20 4-17 6-16 8-13 6-7 11-8 10-4z" fill="#FEFEFE"/>
<path transform="translate(1646,294)" d="m0 0 4 1 1 4-2 2-41 4-16 2-2 2v9l4 16 5 10 6 5 7 2h19l32-3 2 6v6l-38 5-12 1h-19l-8-3-7-6-6-12-5-18-1-6v-12l4-6 6-3 11-2z" fill="#FEFEFE"/>
<path transform="translate(643,249)" d="m0 0h6l-1 8-5 12-3 6-88 5h-14l-6-4-4-5-1-7 3-2 64-8z" fill="#FEFEFE"/>
<path transform="translate(977,401)" d="m0 0h9l15 5 10 5-6 13-56 18-6-1-15-7-16-5-5-1h-10l3-3 16-7 30-10 25-6z" fill="#FEFEFE"/>
<path transform="translate(666,373)" d="m0 0h9l16 4 4 3-9 2-5 5-8 14-7 19-5 21-3 1h-16l-6-3-7-7-8-16-4-13 8-3 19-7 10-6 8-9z" fill="#FEFEFE"/>
<path transform="translate(1689,597)" d="m0 0v3l-8 11-9 8-13 5-23 5-22 3-13 1h-22l-14-3-11-6-11-10v-1l53-1 36-3 31-5 23-6z" fill="#FEFEFE"/>
<path transform="translate(693,242)" d="m0 0h10l4 4v8l-6 15-6 5-4 1-117 6-17 1h-19l-7-4-5-6-1-9 4-3 38-5 52-6zm-50 7-66 7-47 6-3 2 1 7 6 7 4 2h14l88-5 7-15 2-6v-5z" fill="#767576"/>
<path transform="translate(1838,290)" d="m0 0 4 1 3 9-7 48-4 17-7 8-13 8-23 12-24 10-3 1h-8l-4-5v-2l25-11 24-12 20-11 1-2v-9l-7-44v-7l16-8z" fill="#FEFEFE"/>
<path transform="translate(888,30)" d="m0 0h36l57 4 33 4 29 6 26 8 26 11 22 12 21 14 16 12 11 9 14 12 12 13 8 14 2 8v10l-4 14-7 13-12 17-8 10-11 11-7 8-8 8-7 8-12 13-6 7-2-1 9-11 7-7 7-8 3-4-9 9-7 8-9 10-9 11-24 32-14 19-12 17-6 8h-2l2-5 10-14 14-19 12-16 14-19 8-10 12-14 12-13 11-12 10-10 11-8 8-11 11-15 8-16 1-3v-16l-5-12-8-10-15-15-14-11-19-14-19-12-16-9-25-11-25-8-29-6-40-5-45-3-20-1h-41l-12 4-7 5-2-1 6-5 11-5 13-2 36 1 50 3 31 3 32 5 25 6 20 7 20 9 17 9 16 10 17 12 14 11 11 9 15 15 9 14-3-8-11-14-10-10-11-9-15-12-17-12-20-12-23-12-26-10-21-6-26-5-23-3-50-4-18-1-34-1z" fill="#757475"/>
<path transform="translate(1158,214)" d="m0 0 2 1-8 8-7 8-9 9-7 8-11 12-7 8-12 15-6 8-1 5-10 14-12 16-16 23-9 14-16 25-10 15-5 5-4 1-17-7-6-2 3-1 1-3 12-3h5l-1-6v-9l1-7 3-1 1-7 2-5 1 4-2 9 2 21 9-2 6-10 3-11 3-1 2-12 8-29h15l-3 6 5-5 12-20 9-14 17-29 10-15 9-11 7-7 11-8 17-9z" fill="#7B7A7B"/>
<path transform="translate(692,302)" d="m0 0 4 3v9l-7 16-15 27-12 19-11 12-12 6-28 9-37 10-5-12-2-8 18-5 43-11 18-6 12-6 8-9 10-17 14-26z" fill="#FEFEFE"/>
<path transform="translate(854,31)" d="m0 0h34l34 1 46 3 38 4 23 4 21 5 24 8 20 9 19 10 19 12 19 14 11 9 14 12 9 9 10 14 3 8-1 4-4-10-9-12-15-15-17-13-13-10-20-13-18-10-19-9-25-9-25-6-32-5-31-3-50-3-36-1-13 2-16 8-4 3 2-14-2-3h-20l-5 5h-31l2-6z" fill="#FEFEFE"/>
<path transform="translate(976,54)" d="m0 0 21 2 26 4v2l-23 11-21 12-22 14-8 6-4-1-10-5-11-2-9-1 4-4 20-14 24-16z" fill="#FEFEFE"/>
<path transform="translate(1684,300)" d="m0 0h27l11 2 5 5 8 16 1 3-7 3-30 7-26 5-2-6-7-28-1-6z" fill="#FEFEFE"/>
<path transform="translate(844,58)" d="m0 0v3l-7 11-11 21-13 30-13 35-12 36-9 34-7 39-9 64-7 58-1 12v40l4 17 8 15 9 10 9 7 11 5 22 5 65 12 8 1h23l20-4 14-5 10-6 10-9 8-7 8-10 23-46 4-3-2 6-18 36-4 12-1 2h-2l-1 3-1-3-12 13-8 7-13 10-17 9-18 6-15 3h-29l-34-6-54-11-12-4-10-6-10-9-8-11-4-8v-2h2l7 13 9 10 10 8 13 5 22 5 63 12 7 1h27l20-4 15-6 4-2-22 4h-25l-52-9-36-7-14-5-13-9-7-7-9-14-5-14-2-10v-43l5-44 2-22h-3v-10l1-2h-13l1-2h13l2 5-1 5h2v-8l11-73 6-28 8-29 12-36 13-34 13-29 13-25z" fill="#737273"/>
<path transform="translate(1654,283)" d="m0 0h14l30 2 19 3 8 5 9 12 9 19-1 6-10 21-9 14-4 4-33 11-9 2-1-6v-17l43-11 11-3 3-10 1-2-21 5-37 8-3-1v-3l40-8 22-6h2l-3-10-8-14-7-8-10-3-16-1h-34z" fill="#FEFEFE"/>
<path transform="translate(279,272)" d="m0 0h13l12 3 16 8 11 8 12 11 10 12 11 17 10 19 9 23 7 23 6 29v3l10 1 1 2-11-1-2-1-8-36-7-23-10-23-10-19-12-17-12-13-12-10-16-9-16-4h-11l-15 4-14 9-7 7-9 14-4 8 7 1 7-11 11-11 16-8 5-1h18l13 4 15 9 14 12 9 11 10 15 3 6-1 2-8 1-5 2 1-3 9-4-1-4-11 3-3 1v-2l9-4 2-1-2-3-7 1-6 3-2-1 5-4 7-2-2-3-7 1-5 3-3 1 2-4 5-3 4-1-2-2-6 1-6 4h-2l1-3 9-5-5-2-7 4-4 2 2-4 6-4-7 1-5 5h-2l2-5 5-4-6 2-4 4-3-1 6-6-5 1-4 5h-2l2-5 2-2-4 1-4 5h-2l2-5h-2l-4 5-1-2 2-4-5 5-2 1 1-4-5 5-2 1v-3l-5 5v-5l5-4 11-4 16-3 13-2-14-8-10-3h-18l-12 4-9 6-5 4-8 11-7 14-6 20-2 13-1 13v33l2 25-2-1v-2h-2l-1-19v-40l2-18 4-17 6-16h-6l-6 21-3 21-1 25v13l-2-1-1-21 2-25 5-25 3-9-9-6-2-5v-4h2l1 8 10 3 8-15 9-11 10-8 14-7z" fill="#737273"/>
<path transform="translate(953,332)" d="m0 0 4 1 5 5 5 8 3 13-1 9-3 16-2 18-28 8-2-1-1-15 9-43 5-17z" fill="#FEFEFE"/>
<path transform="translate(976,350)" d="m0 0h2l1 10 9-2h6v2l-19 3-5 10-4 28 4-1 1-3 2-18 2-1-1 18-1 4 13-3h4v3l13 5 7 3h3l5-5-2 5-17 33-10 17-11 14-13 13-14 9-13 6-6 1 3-3 16-7 13-9 7-6 1-3-14-7-24-15-17-9-12-4-14-2 1-2 13 1 14 5 14 7 19 12 16 9 7 3 5-6-3-3-27-15-17-9-17-6-9-2-9-1 1-2h8l15 4 15 6 9 4 9-2 41-13 9-2 2-6 3-6-14-7-10-3h-9l-24 5-13 4-4-1 6-3 19-5h3l1-18 3-16 2-4 5-4z" fill="#737273"/>
<path transform="translate(792,226)" d="m0 0h4l-1 8-8 51-6 44-8 70-1 11v25l2 13 4 12 5 9 9 10 9 6-2 2-10-5-11-9-7-10-5-12-2-9-1-10v-19l4-41 7-55 9-60 5-26 1-4z" fill="#FEFEFE"/>
<path transform="translate(1628,249)" d="m0 0h5l8 14 7 16v2h-43l-36 1-28 1 4-3 36-15 28-10z" fill="#FEFEFE"/>
<path transform="translate(1651,300)" d="m0 0 2 2 4 13 6 28-1 4-32 3h-19l-8-4-6-7-5-15-1-6v-9l7-2h5l2 21 2 8 27-3 4-2v-12l-1-15 14-2z" fill="#FEFEFE"/>
<path transform="translate(889,428)" d="m0 0 3 1-3 4v25l4 18 6 10 5 4 13 7-3 1-12-6-10-10-8 13h-2l2-5 6-11v-3l-20-6-7-6-8-11-1-3h-7l-36 9h-2l1-11 5-2 41-9z" fill="#737273"/>
<path transform="translate(214,303)" d="m0 0h2l3 10 9 5-6 23-3 20-1 26 1 12v-16l1-21 3-21 6-21 4-1 3 1-1 5-6 18-3 17-1 11v40l1 17-5-2-9-7-2-7v-8h2l-1-16-3-33v-14l1-30 2-5z" fill="#FEFEFE"/>
<path transform="translate(797,52)" d="m0 0h12l-1 2-5 3-2 5-1 10 1 5-12 21-14 27-11 23h-10l2-11 10-34 11-30 8-19z" fill="#FEFEFE"/>
<path transform="translate(1051,565)" d="m0 0 5 2 48 23 19 7h5l4-3 2 13 2 6-7 3-8 11-11 13-13 17-1 1h-20l6-7 10-10 8-7 14-12 14-11 1-4-3-3-43-10-34-10 1-18z" fill="#FEFEFE"/>
<path transform="translate(1141,584)" d="m0 0h9l6 4 4 6 2 8-1 8-5 7-3 2h-10l-2-1v7l-8 9-10 16-6 8h-21l6-9 11-13 8-10 8-11 4-2h3l-4-9v-10l4-7z" fill="#737273"/>
<path transform="translate(689,382)" d="m0 0h8l5 5 2 8v11l-3 17-4 9-5 4-13 3-16 2 1-9 6-21 10-21 5-6z" fill="#FEFEFE"/>
<path transform="translate(478,241)" d="m0 0 5 2 10 10 9 16 11 26 13 36 14 43 2 8h-7l-5-10-18-44-17-40-12-29-5-16z" fill="#FEFEFE"/>
<path transform="translate(390,198)" d="m0 0h7l-5 6-12 9-12 4-35 4-38 5-24 5-20 6-2-1 17-9 24-10 19-6 24-5z" fill="#FEFEFE"/>
<path transform="translate(437,239)" d="m0 0 2 1-9 10-6 10-4 10-1 4v14l5 20 6 18 13 27 13 22 26 39 14 20 15 23 11 17 17 28 9 14 8 10 10 8 11 5 5 1h15l26-5 45-12 21-7 15-8 2 1-10 7-15 6-45 14-30 7-13 2h-9l-14-4-11-7-8-7-9-12-17-28-11-18-62-93-14-24-11-23-8-24-4-19v-9l3-12 5-10 8-10z" fill="#FEFEFE"/>
<path transform="translate(1845,556)" d="m0 0 2 1-14 13-17 13-17 12-17 11-21 12-23 12-24 11-31 12-13 5h-19l3-3 26-12 35-14 29-12 31-15 18-10 24-15 17-12 10-8z" fill="#FEFEFE"/>
<path transform="translate(1049,586)" d="m0 0 9 2 12 4 4 23 7 21 4 8-2 4-10 10h-6l-7-14-7-21-3-16-1-10z" fill="#FEFEFE"/>
<path transform="translate(747,48)" d="m0 0h20v2l-28 4-26 6-30 10-29 14-27 15-21 13-19 12-6 4h-2l2-10 17-11 28-17 27-15 25-12 21-8 14-4 15-2z" fill="#FEFEFE"/>
<path transform="translate(686,149)" d="m0 0h8l16 4 14 7 3 3-1 8-1 3-4-2-12-7-12-4h-13l-11 4-10 9-5 10-3 11v15l2 9-13 1-1-6v-21l3-12 6-11 8-10 11-7 9-3z" fill="#FEFEFE"/>
<path transform="translate(639,153)" d="m0 0h21l-3 2-17 4-21 9-15 9-18 13-16 6-8 2 1-9 4-17 9-4 25-9 18-4z" fill="#FEFEFE"/>
<path transform="translate(676,149)" d="m0 0m-3 1h3v2l-12 6-6 5-9 14-3 7-3 3-3 18h-1l-3-18h-21l2 17-4-5-5-5-11-4 5-4 6-2 1-3 6-2 17-1 13 1 1-2h-31l-8 5-2-1 7-6 19-10 18-6 14-3-20 4-20 8-16 9-13 10-2-1 9-8 16-10 18-8 12-4 10-2h-18l-20 2-14 3-4-1 8-3 24-4h38z" fill="#737273"/>
<path transform="translate(964,124)" d="m0 0 19 2 12 4 5 3 2 3v7l-3 10-3 5-11 4-18 2-1-2-2-15-5-19v-3z" fill="#FEFEFE"/>
<path transform="translate(721,402)" d="m0 0h16l4 2v16l-1 15-2 5-23 6-10 1 1-10 7-25 3-6z" fill="#FEFEFE"/>
<path transform="translate(1101,256)" d="m0 0 4 1-10 16-17 29-6 8-19 1 1-6 12-26 6-11 7-6 13-4z" fill="#FEFEFE"/>
<path transform="translate(679,300)" d="m0 0h8l3 3v7l-8 16-10 18-10 15-9 8-7 2v-7l-3-5 10-3 7-6 12-17 6-11 1-2-15-1-9 11-1 4 13 2-2 5-9 11-5 4-3 1h-8l8-20 9-15 11-12 7-6z" fill="#FEFEFE"/>
<path transform="translate(1204,45)" d="m0 0m-4 1h4v2l-21 6 28 14 23 13 21 12 26 16 48 30 19 12 24 15 21 12 15 7 15 4 8 1h32l45-4 68-8 43-7 28-6 10-3h3v2l-21 6-24 5-37 6-57 7-53 5h-39l-15-3-16-6-22-12-38-24-24-15-19-12-26-16-20-12-26-15-32-17-13-7 3-3z" fill="#737273"/>
<path transform="translate(924,333)" d="m0 0 2 1-4 12-9 4-19 5-36 7-8 1h-15l2-10 2-4 25-2 28-5 24-6z" fill="#FEFEFE"/>
<path transform="translate(1867,421)" d="m0 0m-1 1m-1 1v3l-14 10-19 11-23 12-28 13-28 11-30 10-36 9-35 6-39 4-34 2h-139l-96-2-1-2h49l61 1h120l39-2 39-4 36-6 36-9 38-13 31-13 31-15 18-10 21-14z" fill="#737273"/>
<path transform="translate(604,355)" d="m0 0h14l24 4-1 2-42 11-27 7-13 1-10-1-1-1v-5l10-5 24-8z" fill="#FEFEFE"/>
<path transform="translate(1158,214)" d="m0 0 2 1-8 8-7 8-9 9-7 8-11 12-7 8-12 15-28 38-10 13-3 3 2-5 14-22 13-21 17-29 10-14 11-12 13-10 17-9z" fill="#FEFEFE"/>
<path transform="translate(869,51)" d="m0 0 2 1-12 11-10 17-12 25-12 30-11 30-7 22-10 37-7 1 1-8 9-31 14-41 12-30 9-20 8-16 7-12 9-10z" fill="#FEFEFE"/>
<path transform="translate(804,203)" d="m0 0h12l3 6 5 21-2 5-8 11-8 12-9 14-8 13h-2l1-14 6-36 3-1v-3l17-2-1-15-2-7-7-2z" fill="#878787"/>
<path transform="translate(470,232)" d="m0 0h2l3 25 6 33 7 26 10 27v2l8-6 3 1 3 9-1 5-5 4h-2l8 18 13 23 16 27 11 19 12 22 11 19 9 12 9 10 13 9 10 5 8 3v1l-8-1-14-7-10-8-12-12-10-15-9-16-13-24-15-25-17-29-11-21-3-7-8-2-9-1-5-5 2-4 14-2-6-17-9-27-6-27-5-33z" fill="#777677"/>
<path transform="translate(979,247)" d="m0 0 5 5 10 12v6l-9 15-7 13-4 4-3 5-13-1 3-10v-6l10-26 4-2 2-9z" fill="#737273"/>
<path transform="translate(1007,362)" d="m0 0h4l-3 16v15l-22 5-13 2 2-22 2-9 16-4z" fill="#FEFEFE"/>
<path transform="translate(1176,519)" d="m0 0 9 3 11 7 12 11 7 9-3 3-18 10-7-6-10-7-5-3 1-12z" fill="#FEFEFE"/>
<path transform="translate(965,171)" d="m0 0 15 1 85 2-4 4-8 7-33-1-51-2-11-5 4-3z" fill="#FEFEFE"/>
<path transform="translate(693,242)" d="m0 0h10l4 4v8l-6 15-6 5-4 1-117 6-17 1h-19l-7-4-5-6-1-9 4-3 38-5 52-6zm5 2-46 4-3 9-5 13-2 5 46-2 8-2 3-3v-5l2 1 4-10v-7l-1-2zm-55 5-66 7-47 6-3 2 1 7 6 7 4 2h14l88-5 7-15 2-6v-5z" fill="#737273"/>
<path transform="translate(1797,240)" d="m0 0h6l7 8 4 10 2 10v9l-2 11-4 5-7-1-6-10-4-12-1-6v-15l3-8z" fill="#767576"/>
<path transform="translate(1072,593)" d="m0 0 10 2 11 3 3 9 3 7 3 4 3 9-11 11-8 6-8-19-5-21z" fill="#FEFEFE"/>
<path transform="translate(1111,486)" d="m0 0h3l2 16-10 6-10 8-7 7-3 4-20-4 3-6 9-11 10-9 14-8z" fill="#FEFEFE"/>
<path transform="translate(698,52)" d="m0 0 3 1-21 8-33 16-25 14-26 16-12 8-2-1 3-10 9-7 26-15 22-12 23-11 14-4z" fill="#FEFEFE"/>
<path transform="translate(1204,616)" d="m0 0 23 2 3 2-5 16-7 12-6 7-4 1-10-13-6-9 1-4 5-5z" fill="#FEFEFE"/>
<path transform="translate(1158,212)" d="m0 0m-3 1h3v2l-17 8-11 8-10 9-11 14-17 28-13 22-14 22-5 7h-2l2-5-14-1-2 10-8 31h-2l1-9 7-27 9-25 8-18 8-17 6-8 6-4 13-4 14-3 13-16 11-10 13-8zm-54 43-19 5-6 3-6 7-13 27-4 10v3l19-1 7-10 17-29 9-14z" fill="#737273"/>
<path transform="translate(1154,487)" d="m0 0 8 1 9 4-1 9-9 39-5 25-1 9-2 2-2-8v-40z" fill="#FEFEFE"/>
<path transform="translate(1120,449)" d="m0 0h19l18 3 15 5 16 8 13 8 9 7 10 9 10 10 10 13 10 16 8 16 6 15 6 20 3 16 1 10v33l-3 20h-3l3-21v-33l-4-24-6-21-7-17-10-19-12-17-9-10-6-7-11-9-13-9-21-11-19-6-13-2h-19l-17 3-16 6-15 9-12 11-7 7-10 14-11 23-6 19-2 10h-2l1-9 6-20 8-18 10-16 12-13 7-7 15-10 16-7 15-4z" fill="#737273"/>
<path transform="translate(760,52)" d="m0 0h7l-4 2-23 4-30 8-24 10-24 12-22 12-26 15-19 12-17 11-2-1 3-7 47-29 25-14 23-12 23-9 23-7 26-5z" fill="#FEFEFE"/>
<path transform="translate(567,113)" d="m0 0h2l-1 7-2 5-19 13-6 4-5 2-3 13-4 9-18 2-4-9 7-8 9-8 24-16 17-12z" fill="#FEFEFE"/>
<path transform="translate(1e3 427)" d="m0 0 3 1-13 25-7 10-15-8-17-10-2-2 41-13z" fill="#FEFEFE"/>
<path transform="translate(1625,305)" d="m0 0h10l2 15v11l-11 2-18 1-3-12v-15z" fill="#FEFEFE"/>
<path transform="translate(278,287)" d="m0 0h17l13 4 15 9 14 12 9 11 10 15 3 6-1 2-8 1-5 2 1-3 9-4-1-4-11 3-3 1v-2l9-4 2-1-2-3-7 1-6 3-2-1 5-4 7-2-2-3-7 1-5 3-3 1 2-4 5-3 4-1-2-2-6 1-6 4h-2l1-3 9-5-5-2-7 4-4 2 2-4 6-4-7 1-5 5h-2l2-5 5-4-6 2-4 4-3-1 6-6-5 1-4 5h-2l2-5 2-2-4 1-4 5h-2l2-5h-2l-4 5-1-2 2-4-5 5-2 1 1-4-5 5-2 1v-3l-5 5v-5l5-4 11-4 16-3 13-2-14-8-10-3-18-1z" fill="#777677"/>
<path transform="translate(642,361)" d="m0 0 3 1v6l-2 3-15 5-59 15-5-1-4-4-13-3 1-2h18l64-16z" fill="#FEFEFE"/>
<path transform="translate(664,316)" d="m0 0h7l8 2-2 6-8 13-10 13-8 6-7 2 3 4v6h-2l-1-6-10 3-63 16h-5l1-2 56-14 18-5-15-3-8-1h-14l-25 6-24 8-4 1 4-4 16-6 27-7 5-1h17l12 1 7-2 3-7 2-1-2 9-1 1h7l7-4 9-11 3-5-11-1-2-1 1-5 8-10z" fill="#737273"/>
<path transform="translate(811,174)" d="m0 0 1 4-1 5 6 12v3h-2l-3-7v6l-6 2-1 2h12l3 5 5 19 11-13 14-14 14-9 12-5 7-2h4v2l-16 5-12 6-10 8-14 14-10 13h-2l-5-21-2-5-12-1v2l7 1 2 3 2 15v5l-1 1-17 1v3h-2l1-8-4-1 5-1 2-11 10-36z" fill="#868586"/>
<path transform="translate(1170,501)" d="m0 0 1 4-11 51-3 20v7l13-7 6-4h2l-8-8-1-3v-12l3-22 2-5h1l-2 24 12 7 8 8 16-8 3-1v2h2v2l-24 12-21 12-9 5-4-1-2-2 1-17 8-39 6-24z" fill="#737273"/>
<path transform="translate(889,428)" d="m0 0 3 1-4 6-2 5-28 7-47 12h-2l1-11 5-2 41-9z" fill="#FEFEFE"/>
<path transform="translate(1172,498)" d="m0 0 4 4 2 5-4 15-4 27v12l3 5 5 4v2l-15 9-6 2-1-7 3-20 12-55z" fill="#FEFEFE"/>
<path transform="translate(1008,332)" d="m0 0 3 4 3 12-1 5-9 3-22 4h-3l-4-20 6-2z" fill="#FEFEFE"/>
<path transform="translate(754,37)" d="m0 0h18l6 3 3 5v8h-2l-2-10-4-3h-20l-45 3-29 4-30 7-20 7-22 10-21 12-24 16-13 10-14 11-10 9-8 7-24 24-9 11-8 10-9 15-6 15-4 15h-2l1-9 6-17 8-15 9-12 12-14 33-33 11-9 12-10 19-14 17-11 17-10 15-8 25-10 21-6 25-5 22-3 25-2z" fill="#737273"/>
<path transform="translate(773,64)" d="m0 0 1 3-10 25-12 35-8 28-8 33-5 26-1 2-7-1 1-9 11-42 11-36 11-30 14-32z" fill="#FEFEFE"/>
<path transform="translate(1654,286)" d="m0 0 3 1 2 4h34l16 1 10 3 8 9 9 16 1 8-13 4-25 6-21 4-4-1 5-2 38-8 18-5-5-12-6-9v-2l-13-2h-48l1 6-2-1-6-15z" fill="#737273"/>
<path transform="translate(438,241)" d="m0 0v3l-8 9-7 14-2 7v15l6 23 7 19 13 26 14 23 23 34 14 20 15 23 14 22 9 15 11 18 9 11 7 7 14 7 4 1h17l25-5 12-3h4v2l-30 7-12 2h-15l-10-3-10-6-10-9-11-16-18-30-13-20-22-33-14-20-17-26-12-20-13-25-7-18-6-22-1-5v-14l4-12 5-9 9-10z" fill="#737273"/>
<path transform="translate(770,47)" d="m0 0 3 1 1 6-8 21-10 23-10 27-11 36-11 42-3 12h-3l1-11 11-44 11-35 10-28 15-37z" fill="#FEFEFE"/>
<path transform="translate(1144,243)" d="m0 0v3l-9 9-7 8-9 10-11 14-9 12-14 19-13 17-13 19-11 15-12 18-14 22-4 7-1 6-13 24-11 22-4 2 1-5 20-40 1-6 9-16 27-40 7-6 11-16 14-19 12-16 14-19 9-11 9-10 7-8 11-12z" fill="#929292"/>
<path transform="translate(734,456)" d="m0 0h2l-3 10-4 8-9 8-14 7-8 1-1-1v-11l3-8 5-3 24-9z" fill="#FEFEFE"/>
<path transform="translate(1115,504)" d="m0 0 2 1 3 16v7l-6 6-6-1-5 3-2 5-4-2-10-9 2-5 12-12z" fill="#FEFEFE"/>
<path transform="translate(511,198)" d="m0 0 7 1 16 6 8 7 2 3v8l-1 4-3 1-17 1-1-1-1-10-5-5-8-3z" fill="#FEFEFE"/>
<path transform="translate(508,211)" d="m0 0 9 4 3 3v11l-39 3-3-1v-15l29-2z" fill="#FEFEFE"/>
<path transform="translate(1070,526)" d="m0 0 12 2 3 1 7 8 14 11 16 12 9 4 4 14v4l-4-1-13-11-10-9-8-7-12-11-10-9-8-7z" fill="#FEFEFE"/>
<path transform="translate(1141,586)" d="m0 0h9l6 5 3 6 1 8-3 8-5 4h-9l-5-5-4-8v-9l4-7z" fill="#737273"/>
<path transform="translate(1145,623)" d="m0 0 4 1 4 13 5 21h-30l6-16 8-17z" fill="#737273"/>
<path transform="translate(500,166)" d="m0 0h1l1 5v23l-3 12-3 3-5 1h-9l-3-1 1-9 5-12 7-12z" fill="#FEFEFE"/>
<path transform="translate(949,189)" d="m0 0m-9 1h9v2l-24 3-21 5-16 8-9 9-10 17-14 28-12 22-20 40-10 25-7 21-5 23-4 37-2 2v-12l3-28 5-22 10-30 15-33 17-33 12-22 13-26 10-14 9-8 15-7 16-4z" fill="#737273"/>
<path transform="translate(250,417)" d="m0 0 12 3 2 1 5 22 2 7-1 5-8 11-3-4-6-18-3-17z" fill="#FEFEFE"/>
<path transform="translate(300,435)" d="m0 0h7l-1 6 6 21 14 34-1 5-5 2-3-8-10-35-4-20-1-2-6 15-9 38-1 6-4-2-4-4 3-11 8-21 9-17z" fill="#FEFEFE"/>
<path transform="translate(1165,611)" d="m0 0 11 1 13 2 1 4-2 8 2 7 13 19 4 6h-8l-10-11-13-17-8-10-3-5z" fill="#FEFEFE"/>
<path transform="translate(1134,489)" d="m0 0 7 7 3 33 3 17 2 8-1 6-1 2h2v2l-5 2-3 4-4-21-2-24-1-21z" fill="#FEFEFE"/>
<path transform="translate(585,92)" d="m0 0 2 1-9 31-13 49-8 36-3 17-5 1 4-24 9-38 11-43 8-27z" fill="#FEFEFE"/>
<path transform="translate(1156,618)" d="m0 0h5l4 4 8 16 10 18v2h-17l-6-13-7-17v-7z" fill="#808080"/>
<path transform="translate(1013,217)" d="m0 0h15l-7 11-11 15h-3l-11-12-10-8v-2l16-3z" fill="#FEFEFE"/>
<path transform="translate(283,317)" d="m0 0h12l11 3 13 7 11 9 8 9 9 14 7 14 7 21 4 20 1 8v35l-3 17-5 17-7 14-8 10-10 9-11 5-5 1h-13l-8-2v-2l6 1h17l10-4 9-6 8-9 7-12 6-18 4-20 1-20-2-24-5-24-7-19-9-17-8-11-10-10-11-7-11-5-5-1h-13l-10 2 3-3z" fill="#737273"/>
<path transform="translate(994,318)" d="m0 0 5 1 6 5 3 6-9 3-22 5-4-1-8-9-4-3 9-3z" fill="#FEFEFE"/>
<path transform="translate(846,38)" d="m0 0v3l-11 17-9 16-15 30-13 29-14 35-10 28-10 30-6 16-8 15-7 17h-2l1-6 12-25 5-11 15-46 15-39 13-30 13-28 13-25 11-18z" fill="#737273"/>
<path transform="translate(1728,335)" d="m0 0 4 1-4 8-24 7-25 6h-4l-1-10 35-7z" fill="#FEFEFE"/>
<path transform="translate(719,179)" d="m0 0h4v2l-19 3 4 13 2 5-19 2-7-10-7-6-4-4 39-4z" fill="#FEFEFE"/>
<path transform="translate(763,65)" d="m0 0 1 3-13 32-10 28-10 32-2 7h-2l-2-5-12-7-13-4-6-1h-8l-10 1 3-3 6-1h10l10 2h27l2-10 13-38 11-27 4-8z" fill="#757475"/>
<path transform="translate(1175,142)" d="m0 0 5 5 6 9 2 8-1 12-4 10-2 3-7-1-1-16z" fill="#FEFEFE"/>
<path transform="translate(1017,206)" d="m0 0h19l-6 9-28 2-18 3v-12l1-1z" fill="#FEFEFE"/>
<path transform="translate(1863,531)" d="m0 0m-1 1m-1 1m-1 1m-1 1m-1 1m-1 1m-1 1v3l-11 9-27 18-22 13-27 14-23 11-25 10-33 11-27 7-10 2h-7l1-2 24-5 28-8 32-11 30-13 32-16 28-17 16-10 17-13z" fill="#737273"/>
<path transform="translate(1149,169)" d="m0 0m-8 1h8v2l-27 4-15 5-10 9-10 17-14 28-14 24-13 24-14 28-9 25-1 3h-2l2-10 8-20 12-25 13-24 11-19 12-22 10-20 9-13 8-7 13-5 15-3z" fill="#737273"/>
<path transform="translate(463,167)" d="m0 0h2l-2 4-10 15-7 12-4 10-2-3-4-12v-10l4-5 14-8z" fill="#FEFEFE"/>
<path transform="translate(1829,292)" d="m0 0m-3 1h3v2l-13 6 1 13 6 38v9l-4 4-28 15-29 14-3-1 5-3 35-17 21-12v-8l-8-50-59 21-7 1 3-3 27-9 42-16z" fill="#737273"/>
<path transform="translate(1057,564)" d="m0 0h13l16 8 21 8 11 2v3l-1 4 3 5-10-3-26-12-27-13z" fill="#FEFEFE"/>
<path transform="translate(1848,551)" d="m0 0m-1 1m-1 1m-1 1m-1 1v3l-11 9-24 16-25 15-31 16-30 13-36 14-24 11-12 6-4-1 16-8 21-10 46-18 24-11 16-8 21-11 18-11 15-10 12-9z" fill="#737273"/>
<path transform="translate(856,449)" d="m0 0h7l23 6 3 15-1 3-18-5-5-5-9-12z" fill="#FEFEFE"/>
<path transform="translate(738,470)" d="m0 0h2l7 13 9 10 10 8 13 5 22 5 63 12 7 1h27l20-4 8-3h3v2l-15 5-15 3h-29l-34-6-54-11-12-4-10-6-10-9-8-11-4-8z" fill="#737273"/>
<path transform="translate(956,308)" d="m0 0 14 1 18 3 6 3v1l-26 5-10 3-6 7h-3l1-7z" fill="#FEFEFE"/>
<path transform="translate(903,97)" d="m0 0m-57-11 1 3-9 19-14 35v4l15 1 11-6 14-10 8-6h2l3-9 6-10 7-6 8-3h5v2l-10 3-6 4-4 5-5 10-5 17h-2l1-10-10 8-18 12 9 3v1l-12-1-7-1h-15l1-6 14-35 10-22z" fill="#737273"/>
<path transform="translate(391,461)" d="m0 0 12 1 50 9 63 12 4 4-4 1-124-25z" fill="#FEFEFE"/>
<path transform="translate(869,55)" d="m0 0 10 2 1 1v12l-2 5-3 1-22 1 2-6 7-9z" fill="#FEFEFE"/>
<path transform="translate(339,433)" d="m0 0h11v11l-2 13-2 5-5 4-6-9-3-6 1-5 5-10z" fill="#FEFEFE"/>
<path transform="translate(311,349)" d="m0 0 5 5 1 3-2 8v24l3 11-6 5-5 5-1-1v-17l4-41z" fill="#FEFEFE"/>
<path transform="translate(1098,387)" d="m0 0m-6 1h6v2l-20 5-16 7-13 7-12 9-10 9-8 8-10 13-10 17-7 16-6 18-6 28h-2l1-11 5-21 9-24 10-19 8-11 11-13 8-8 14-11 15-9 19-8z" fill="#737273"/>
<path transform="translate(1162,222)" d="m0 0m-1 1m-1 1m-1 1v3l-9 9-7 8-9 9-7 8-9 10-9 11-24 32-14 19-12 17-6 8h-2l2-5 10-14 14-19 12-16 14-19 8-10 12-14 12-13 11-12 10-10z" fill="#737273"/>
<path transform="translate(1016,601)" d="m0 0h2l3 21-18 4-3-7-1-13z" fill="#FEFEFE"/>
<path transform="translate(685,162)" d="m0 0h10l13 4 12 7 3 2v2l-8 1h-18l-6-4-10-9v-2z" fill="#FEFEFE"/>
<path transform="translate(1161,129)" d="m0 0 8 6 4 4v16l-1 14h-3l-9-7-8-3 3-2 5-3 1-2z" fill="#FEFEFE"/>
<path transform="translate(1827,196)" d="m0 0m-4 1h4v2l-65 17-74 18-42 11-10 2 3-3 41-11 81-20 35-9z" fill="#737273"/>
<path transform="translate(409,194)" d="m0 0m-11 1h11v2l-10 2-10 10-11 7-9 3-24 3-35 4-35 6-19 5-3-1 10-4 26-6 35-5 38-4 16-4 10-7 8-7-22 1 1-2z" fill="#737273"/>
<path transform="translate(623,180)" d="m0 0h12l8 1 1 3-2 8-2 13h-1l-3-18h-21l2 17-4-5-5-5-11-4 5-4 9-4z" fill="#FEFEFE"/>
<path transform="translate(311,429)" d="m0 0 15 2 3 1-2 7 1 7 9 17 7 9-2 5-5-5-9-12-10-16-7-11-1-2z" fill="#FEFEFE"/>
<path transform="translate(278,344)" d="m0 0h1l2 16-8 11-2 3-8-1-6-2 4-10 7-9 8-7z" fill="#FEFEFE"/>
<path transform="translate(316,365)" d="m0 0 8 1 6 3 6 7 3 5-1 3-7 5-5-1-10-3z" fill="#FEFEFE"/>
<path transform="translate(1855,364)" d="m0 0 3 1 11 17 2 5-1 7-9 10-13 10-14 9-18 10-31 15-30 12-19 6-8 2h-5l1-2 25-7 26-10 29-13 25-13 19-12 13-11 6-7 1-6-5-10-7-10z" fill="#737273"/>
<path transform="translate(1709,591)" d="m0 0h2l-2 6-7 11-9 8-10 3h-7l6-7 12-16z" fill="#FEFEFE"/>
<path transform="translate(664,316)" d="m0 0h7l8 2-2 6-8 13-10 13-8 6-3-1 10-8 9-13-11-1-2-1 1-5 8-10z" fill="#848484"/>
<path transform="translate(760,50)" d="m0 0m-9 1h9v2l-31 5-23 6-20 7-20 9-21 11-24 14-26 16-11 7-2-1 5-4 19-12 28-17 28-15 21-10 30-10 26-6z" fill="#737273"/>
<path transform="translate(892,425)" d="m0 0m-3 1h3v2l-32 9-40 9-9 2-1 8-1 3 13-4 25-6h4v2l-41 10h-3l-2 5-5 4-2-1 6-7 3-7 1-5-9-2-3-6v-3h2l2 7 9-1 5-5 3-2-1 4-1 2 41-9 26-7z" fill="#737273"/>
<path transform="translate(718,397)" d="m0 0m-1 1m6 0h9l6 1v1l-16 1-5 5-5 12-6 24-1 5 19-4h7l8-2v2l-25 7-1 2-10 1-2-2v-10l8-29 4-10 2-3z" fill="#949394"/>
<path transform="translate(979,247)" d="m0 0 5 5 10 12-2 5-3 4-17 3h-2l1-5z" fill="#FEFEFE"/>
<path transform="translate(920,355)" d="m0 0h1l-1 9-9 45-3 10 15-6 3-4 5-14 2-1 2 11 1 7-28 10-10 5v3l-10 5 2-5 3-5 10-4h2l1-5 5-22 7-35z" fill="#737273"/>
<path transform="translate(773,415)" d="m0 0 5 4 5 10 2 9v11l-3 14-3-3-4-12-2-13z" fill="#FEFEFE"/>
<path transform="translate(694,205)" d="m0 0h18l4 3v4l-10 2-7 3-21 1-4-3v-2l12-6z" fill="#FEFEFE"/>
<path transform="translate(549,175)" d="m0 0h4l-1 7-12 3-1 4 10 2-1 11-2 1-10-6-10-4 4-12 7-3z" fill="#FEFEFE"/>
<path transform="translate(628,190)" d="m0 0h5l4 23v3l-5 1h-9l-4-26z" fill="#FEFEFE"/>
<path transform="translate(892,480)" d="m0 0 4 5 7 7 11 5 8 3-3 2h-16l-18-2-4-2 7-11z" fill="#FEFEFE"/>
<path transform="translate(774,409)" d="m0 0 4 2 5 4 7 11 3 11v13l-4 16-2 4h-2l-2-3 1-8 2-11v-9l-3-12-4-8-6-8z" fill="#FEFEFE"/>
<path transform="translate(1849,365)" d="m0 0h1v7l-3 12-6 9-12 10-19 12-18 10-16 8-21 10-28 11-18 6-3-1 6-3 20-7 27-11 29-14 17-9 22-14 11-9 6-9 3-11z" fill="#737273"/>
<path transform="translate(1881,490)" d="m0 0v3l-7 8-8 7-17 13-15 10-20 12-21 12-28 14-31 13-10 4-3-1 5-3 34-14 29-14 27-15 24-15 14-10 16-13z" fill="#737273"/>
<path transform="translate(653,328)" d="m0 0 1 4 13 2-2 5-9 11-5 4-3 1h-8l8-20 4-6z" fill="#FEFEFE"/>
<path transform="translate(232,249)" d="m0 0 3 3v8l-7 16-11 20h-1v-10l4-17 8-16z" fill="#FEFEFE"/>
<path transform="translate(872,128)" d="m0 0 1 2-3 15-1 10-8-1-18-4 4-4 16-11z" fill="#FEFEFE"/>
<path transform="translate(296,488)" d="m0 0 12 5 8 2 2 10-4 1h-12l-10-4-5-3 2-4 6-4z" fill="#FEFEFE"/>
<path transform="translate(339,384)" d="m0 0 2 1 3 9v3l-24 11-9 6-2 2-7-6 3-1 3 2 13-13 17-13z" fill="#FEFEFE"/>
<path transform="translate(1010,423)" d="m0 0 1 2-20 40-4 12-1 2h-2l-1 3-1-3-12 13-8 7-13 10-17 9-3-1 8-5h2v-2h2l2-4 14-7 12-11 7-6 8-10 23-46z" fill="#7A797A"/>
<path transform="translate(736,58)" d="m0 0m-4 1h4v2l-22 6-21 8-29 14-22 12-21 12-20 12-21 14-2-1 9-7 19-12 22-13 25-14 33-17 19-8 19-6z" fill="#737273"/>
<path transform="translate(760,106)" d="m0 0 1 3-9 32-8 34-6 33-2 15-4-4 1-12 8-37 9-33 9-29z" fill="#FEFEFE"/>
<path transform="translate(1012,355)" d="m0 0 1 3-2 2-32 7-3 2-3 16-1 12-2 4h-4l1-15 3-16 5-8 24-4z" fill="#FEFEFE"/>
<path transform="translate(1120,530)" d="m0 0h2l7 28v3l-7-2-7-6-5-5v-7l7-8z" fill="#FEFEFE"/>
<path transform="translate(1022,186)" d="m0 0h12l17 1-6 8-7 9h-8l-8-17z" fill="#FEFEFE"/>
<path transform="translate(266,422)" d="m0 0 12 2 4 1 3 8v4l-11 13-2-1-5-19z" fill="#FEFEFE"/>
<path transform="translate(1110,436)" d="m0 0m-3 1h3v2l-5 5-2 5h-2l1-6-4 1-3 2-2 7h-2v-6l-5 4-3 7h-1v-5l-5 4-2 6h-2v-3l-4 3-1 6h-2l-1-2-3 5-2 2h-2l-3 7h-3l-2 6-3 1-3 8h-3l-2 8-4 1 2-6 9-15 11-13 11-11 13-10 16-9z" fill="#737273"/>
<path transform="translate(294,430)" d="m0 0 2 1-7 11-8 13-12 23-4-4-2-6 8-12 13-16 5-5z" fill="#FEFEFE"/>
<path transform="translate(774,54)" d="m0 0 1 4-7 17-12 28-10 28-11 37-10 38-1 5h-2l1-8 11-42 9-29 7-21 11-27 10-24z" fill="#737273"/>
<path transform="translate(967,282)" d="m0 0 6 2 5 5-1 7-6 11-13-1 3-10z" fill="#FEFEFE"/>
<path transform="translate(698,244)" d="m0 0 6 1 1 2v7l-2 3v-8l-1-2h-12l-28 3-6 2-5 12v6l6 1 36-1 6-4-2 4-3 2-6 1-46 2 2-5 5-13 3-9z" fill="#FEFEFE"/>
<path transform="translate(287,341)" d="m0 0h2l3 36 3 17 3 10-1 3-5-12-6-20-5-25v-7z" fill="#FEFEFE"/>
<path transform="translate(250,402)" d="m0 0 11 6 17 9 16 6v3l-20-4-24-7-1-5z" fill="#FEFEFE"/>
<path transform="translate(1101,297)" d="m0 0v3l-16 21-26 36-16 23-11 17-13 21h-2l2-6 14-22 19-28 13-18 10-14 21-28z" fill="#737273"/>
<path transform="translate(1046,327)" d="m0 0h15l-5 9-9 14-10 18-1-3 7-28z" fill="#FEFEFE"/>
<path transform="translate(1226,576)" d="m0 0 2 1 2 8v5l-14 2h-11l-1-9 8-3z" fill="#FEFEFE"/>
<path transform="translate(304,460)" d="m0 0 2 1 8 27v4l-8-1-8-4-1-1 1-9 5-15z" fill="#FEFEFE"/>
<path transform="translate(346,418)" d="m0 0h3l1 4v9h-10l-26-3-3-1v-2z" fill="#FEFEFE"/>
<path transform="translate(851,64)" d="m0 0v3l-8 14-8 16-11 25-11 29-14 41h-2l1-7 13-38 13-33 12-26 10-19z" fill="#737273"/>
<path transform="translate(1174,494)" d="m0 0 5 2 13 9 14 13 9 11 9 14v3h-2l-8-12-11-12-9-8-15-9-5-8z" fill="#FEFEFE"/>
<path transform="translate(259,373)" d="m0 0 9 2 17 17 7 6 5 12v3l-3-1-7-8-19-19-7-8z" fill="#FEFEFE"/>
<path transform="translate(1056,543)" d="m0 0 4 1 12 8 1 5-2 5-20 1 3-15z" fill="#FEFEFE"/>
<path transform="translate(291,345)" d="m0 0 5 4 2 6 1 8 1 20 1 15-2 4-2-4-4-20-2-20z" fill="#FEFEFE"/>
<path transform="translate(653,61)" d="m0 0 3 1-24 12-41 24-4 2 2-6 15-10 25-14 17-7z" fill="#FEFEFE"/>
<path transform="translate(795,438)" d="m0 0 2 4 2 5 10 2-2 9-5 8-4 3-6 2-4-1 4-9 2-10z" fill="#FEFEFE"/>
<path transform="translate(313,439)" d="m0 0 3 3 6 11 14 20 5 6-1 5-3 5-3-1-13-26-8-20z" fill="#FEFEFE"/>
<path transform="translate(1665,293)" d="m0 0h32l17 2 6 3 2 3-11-2h-28l-21 1-2-6z" fill="#FEFEFE"/>
<path transform="translate(1844,306)" d="m0 0h1v9l-4 28-4 19-4 8-10 8-16 9-27 13-13 5-3-1 8-4 21-9 25-13 11-8 4-5 4-17 6-41z" fill="#737273"/>
<path transform="translate(1128,621)" d="m0 0 2 1 3 8-13 11-9 10-5 7h-7l6-9 13-16z" fill="#FEFEFE"/>
<path transform="translate(309,445)" d="m0 0h3l9 19 9 22 1 4-3 6-3-4-12-30-4-14z" fill="#FEFEFE"/>
<path transform="translate(301,343)" d="m0 0 6 1 3 3-4 30-2 20h-1l-2-13z" fill="#FEFEFE"/>
<path transform="translate(660,182)" d="m0 0 6 1 12 7 8 8 2 4v3l-9 4h-2l-5-12-6-7-7-5z" fill="#FEFEFE"/>
<path transform="translate(674,166)" d="m0 0h2v2l4 2 11 10v1l-18 2-7-1-4-2 2-5 4-5z" fill="#FEFEFE"/>
<path transform="translate(733,450)" d="m0 0m-3 1h3v2l-29 12 20-7h3v2l-25 9-3 5-1 4v11l8-1 14-7 8-7 5-5-2 5-5 6-11 7-12 5-7-1-2-4 1-11 4-10 6-5 21-8z" fill="#737273"/>
<path transform="translate(598,193)" d="m0 0 5 1v5h3v-2h-2v-2l4 1v2l2 1 1 8 4-1 2 11v5l-1-4h-2v4l-5-1-9-16-3-8z" fill="#F5F5F5"/>
<path transform="translate(435,218)" d="m0 0h4l-1 9-5 6-4 7-6 6h-10l2-4 11-14z" fill="#FEFEFE"/>
<path transform="translate(1012,394)" d="m0 0h9l-2 5-6 10-5-1-15-6-6-2 3-2 14-3z" fill="#FEFEFE"/>
<path transform="translate(655,160)" d="m0 0 3 1-7 8-4 6-28-1 4-3 16-7z" fill="#FEFEFE"/>
<path transform="translate(256,374)" d="m0 0 15 15 7 8 13 13-2 1-13-9-13-10-10-8 2-9z" fill="#FEFEFE"/>
<path transform="translate(1145,625)" d="m0 0h2l3 12-10 18-2 3h-7l3-10 8-18z" fill="#FEFEFE"/>
<path transform="translate(1234,591)" d="m0 0 5 1 1 3-12 2-40 4h-12l2-2 12-4 37-3z" fill="#FEFEFE"/>
<path transform="translate(1299,603)" d="m0 0h2v24l-3 26-1 5h-2v-5l-5 1h-8l-4-1v-2l18-1 1-9 1-2-6 2h-11l-1-2 18-2 1-11-5 2h-13v-2l18-2-1-11-6 2h-10l-1-2 15-2 2-1z" fill="#737273"/>
<path transform="translate(301,443)" d="m0 0h2l1 6v8l-5 13-3 11-2 10-6 3 2-12 7-28z" fill="#FEFEFE"/>
<path transform="translate(1141,586)" d="m0 0h9l6 5 3 6 1 8-3 8-5 4h-9l-5-5-4-8v-9l4-7zm1 2-4 4 1 6 2 4-2 2 2 2h1l3 7-5-5-2-6 2-1-3-1v-5h-1v10l4 7 5 4 8-2 3-5v-8l-3-9-5-4z" fill="#FEFEFE"/>
<path transform="translate(578,97)" d="m0 0 1 2-10 35-15 61-6 30-2 2 1-12 10-46 12-46 7-24z" fill="#FEFEFE"/>
<path transform="translate(1543,299)" d="m0 0 2 1-6 7v12l5 19 6 16 8 15 8 9 13 7-3 1-10-5-5-4-7-10-8-16-7-19-3-13v-10h-19l-11-1v-2h31z" fill="#737273"/>
<path transform="translate(699,53)" d="m0 0m-3 1h3v2l-16 6-26 12-19 10-27 16-21 13-5 2 5-5 19-12 22-13 24-13 25-12z" fill="#737273"/>
<path transform="translate(289,342)" d="m0 0 4 2 5 5 2-6h1l1 49-2-1-1-8-1-20-2-12-4-5v12l3 26 3 14-1 4-3-8-3-17-2-22z" fill="#737273"/>
<path transform="translate(1172,549)" d="m0 0 6 2 8 6 5 5v2l-11 6-8-7-1-4v-7z" fill="#FEFEFE"/>
<path transform="translate(1144,243)" d="m0 0v3l-9 9-7 8-9 10-11 14-9 12-14 19-13 17-13 19-9 12-1-2 13-19 28-38 10-13 9-12 12-14 11-12 7-8z" fill="#FEFEFE"/>
<path transform="translate(958,326)" d="m0 0 8 4 7 9 3 10v11l-5 4-2-15-6-12-8-7z" fill="#FEFEFE"/>
<path transform="translate(564,128)" d="m0 0 1 4-3 7-12 9-9 6h-2l2-10 9-7z" fill="#FEFEFE"/>
<path transform="translate(737,235)" d="m0 0m-3 1h3v2l-10 4-5 4-7 11-6 16-2 11v17l5 21 3 10-1 3-4-9-5-18-1-6v-19l3-14 6-15 6-8 8-7z" fill="#737273"/>
<path transform="translate(1728,333)" d="m0 0h6l-3 10-3 3-24 7-20 5h-5l1-2 39-10 9-3 3-7-10 2-36 8-9 1 1-2 40-9z" fill="#737273"/>
<path transform="translate(657,192)" d="m0 0h2v2h3l2 4 3 2v2h3l1-2 1 5-4-1 1 5h2l1-3 2 4-10 7-5-1-1-3 2-7-1-2-3-1z" fill="#FEFEFE"/>
<path transform="translate(593,191)" d="m0 0h1l4 13 10 18v1h-6l-7-15-6-10-11 2-13 3h-4v-2l24-7z" fill="#FEFEFE"/>
<path transform="translate(1026,399)" d="m0 0 1 2-9 15-1 6-13 24-11 22-4 2 1-5 21-42 12-20z" fill="#B0AFB0"/>
<path transform="translate(1159,634)" d="m0 0 5 1 7 4 4 11 2 8h-9l-9-21z" fill="#FEFEFE"/>
<path transform="translate(588,209)" d="m0 0 2 2-8 2 2 4h8v2l-25 5h-2v-2l2-1-3-1-3-6z" fill="#7E7D7E"/>
<path transform="translate(1064,312)" d="m0 0h7l-5 9-3 4h-16l4-12z" fill="#FEFEFE"/>
<path transform="translate(1848,237)" d="m0 0h1l4 24 1 8v9l-6 5h-1v-45z" fill="#FEFEFE"/>
<path transform="translate(984,223)" d="m0 0 8 6v1l-8 1 4 7 5 5 2-3h3l1-4 8 9-2 5-3 3-3-3h-3l-12-12-2-3 1-11z" fill="#FEFEFE"/>
<path transform="translate(922,106)" d="m0 0h21l1 2-21 1-10 2-5 3v10l3 30v13l-2 9-2 1 1-19-3-34v-10l5-5z" fill="#737273"/>
<path transform="translate(814,218)" d="m0 0h1l3 15-1 4-1-4-5 1h3v2l-5 1v5l-14 1 2-12 17-2z" fill="#FEFEFE"/>
<path transform="translate(392,483)" d="m0 0 2 3 1 3-6 11-9 12-6 7v-3l1-2-10 10-5 4-3-1 8-7 7-9h4l-3-2 4-6 3-2 3 1-1 2h2l2-4z" fill="#B8B8B8"/>
<path transform="translate(733,474)" d="m0 0 1 3-5 10-11 12-9 9-6 2-12 6-2-1 1-4 21-10 10-9 6-8 5-9zm-28 35m-1 1m-2 1h2l-2 4-6 2 5-5z" fill="#767576"/>
<path transform="translate(281,362)" d="m0 0 2 3 3 14-1 7-4 1-7-7-2-5 6-9z" fill="#FEFEFE"/>
<path transform="translate(1141,584)" d="m0 0h9l6 4 4 6 2 8-1 8-5 7-3 2h-10l-5-3-3-5-3-7v-10l4-7zm0 2-5 5-2 4v9l5 10 4 3h9l5-4 3-8-2-10-4-6-4-3z" fill="#767576"/>
<path transform="translate(292,439)" d="m0 0h2v2h3l-2 5-10 15-6 11-5 4h-2l2-6 12-22z" fill="#FEFEFE"/>
<path transform="translate(415,188)" d="m0 0 2 1v4l-8 2-43 5-13 1 4-2 47-9z" fill="#FEFEFE"/>
<path transform="translate(465,162)" d="m0 0 4 1-2 2-16 5-11 7-5 6-1 6 4 15 3 9-4-4-5-11-2-6v-9l9-10 16-8z" fill="#FEFEFE"/>
<path transform="translate(887,181)" d="m0 0m-4 1h4v2l-16 5-12 6-10 8-14 14-10 13h-2l-2-9v-4h2l2 8 11-13 14-14 14-9 12-5z" fill="#737273"/>
<path transform="translate(512,191)" d="m0 0 11 3 12 4 10 6 2 3-1 6h-2l-6-7-11-5-14-5z" fill="#FEFEFE"/>
<path transform="translate(571,103)" d="m0 0 1 2-2 5-41 28-2-1 9-8 14-11 16-12z" fill="#FEFEFE"/>
<path transform="translate(1096,599)" d="m0 0 17 4 1 2-3 7-5 2h-6l-4-11z" fill="#FEFEFE"/>
<path transform="translate(1651,293)" d="m0 0 3 1 6 16 6 24 4 24-3 1-5-25-6-26-5-13z" fill="#FEFEFE"/>
<path transform="translate(523,168)" d="m0 0h6l-4 11-9 3-4 1-1-13z" fill="#FEFEFE"/>
<path transform="translate(548,165)" d="m0 0h8l-2 7-13 4-9 2 3-10 4-2z" fill="#FEFEFE"/>
<path transform="translate(792,41)" d="m0 0h15l5 3 2 4v6l-2 1-5-6h-19z" fill="#FEFEFE"/>
<path transform="translate(1798,242)" d="m0 0 4 1 4 3-1 2-2-2-4 1-2 4v6l8 17 1 4v-7l5-2 2 8v6l-2-1-2-6-1 10-3-4-5-13-2-4-2-1 1 7-2-3-1-6v-11l2-7z" fill="#FEFEFE"/>
<path transform="translate(1240,620)" d="m0 0h4l-1 15-4 19-2 4h-5l1-5 5-19z" fill="#FEFEFE"/>
<path transform="translate(1621,249)" d="m0 0m-4 1h4v2l-35 12-36 15-9 3 4-4 31-13 24-9z" fill="#737273"/>
<path transform="translate(1133,484)" d="m0 0h13l6 2v10l-1 1h-8l-8-10z" fill="#FEFEFE"/>
<path transform="translate(657,253)" d="m0 0 3 4 3 5 10 1h3l1 4-1 1-23 1-1-4z" fill="#FEFEFE"/>
<path transform="translate(981,237)" d="m0 0 16 16 3 2-1 3-3 1v4l-5-4-11-14z" fill="#FEFEFE"/>
<path transform="translate(450,164)" d="m0 0 3 1-14 7-7 6-3 5-1 7h-9l-1-4 7-8 9-7 13-6z" fill="#FEFEFE"/>
<path transform="translate(1075,555)" d="m0 0 11 6 7 5v7l-13-5-7-4z" fill="#FEFEFE"/>
<path transform="translate(672,250)" d="m0 0h7l-3 9-1 2-8 1-5-3-2-5v-3z" fill="#FEFEFE"/>
<path transform="translate(254,401)" d="m0 0h9l11 6 13 5v7l-12-5-18-10z" fill="#FEFEFE"/>
<path transform="translate(1213,576)" d="m0 0 4 1-27 9-4 3 1 5-8 4h-2l-2-7-3-3 31-9z" fill="#FEFEFE"/>
<path transform="translate(800,79)" d="m0 0 1 2-16 29-17 34h-2l1-5 18-36 12-21z" fill="#737273"/>
<path transform="translate(1146,230)" d="m0 0v3l-9 9-7 8-12 13-18 22-6 8h-2l2-4 9-12 9-11 13-14 7-8z" fill="#737273"/>
<path transform="translate(1018,65)" d="m0 0 3 1-21 11-25 15-24 16h-2l1-3 26-17 26-15z" fill="#FEFEFE"/>
<path transform="translate(1177,515)" d="m0 0 8 2 10 5 10 8 12 12 3 5-4 1-9-11-10-9-13-8-7-3z" fill="#FEFEFE"/>
<path transform="translate(932,394)" d="m0 0 2 4 1 11 1 3-25 9-3-1 5-3 10-4 3-4 5-14z" fill="#858485"/>
<path transform="translate(561,141)" d="m0 0 1 2-3 6-13 10-8 6-2-1 3-8 11-7z" fill="#FEFEFE"/>
<path transform="translate(500,158)" d="m0 0v3l-7 7-10 14-8 16-3 17-1 17-2-2v-12l2-16 5-13 7-12 9-11z" fill="#737273"/>
<path transform="translate(1150,640)" d="m0 0 2 3 3 11v4h-12l-1-5z" fill="#FEFEFE"/>
<path transform="translate(396,489)" d="m0 0 3 2-2 5-6 9-6 8-7 8-5 4-1 2-7 1 4-4 8-7 8-10 9-14z" fill="#FEFEFE"/>
<path transform="translate(504,162)" d="m0 0 2 2 1 9v16l-1 2v7l-4 12-4 2h-6v-1l8-2 3-15v-31z" fill="#FEFEFE"/>
<path transform="translate(1034,210)" d="m0 0v3l-12 17-6 8h-2l2-5 11-15h-14l-18 1 1-2 15-2 19-1z" fill="#737273"/>
<path transform="translate(688,249)" d="m0 0h6l-2 9-3 10h-9l7-18z" fill="#FEFEFE"/>
<path transform="translate(661,155)" d="m0 0 3 1-4 2-15 3-16 6-17 9-23 16-3-1 13-9 10-7 16-9 18-7z" fill="#FEFEFE"/>
<path transform="translate(295,446)" d="m0 0 1 2-8 16-8 22h-2l1-6 2-6-6 2 6-9 8-14z" fill="#7B7A7B"/>
<path transform="translate(1732,351)" d="m0 0 1 2-6 10-6 7-18 7-20 6-4-1 7-3 33-11 6-7 6-9z" fill="#737273"/>
<path transform="translate(302,437)" d="m0 0 2 3 1 10-2-1v-6h-2l-3 11-8 32-1 5h-2l1-9 8-32z" fill="#737273"/>
<path transform="translate(804,203)" d="m0 0h12l3 6 4 16v5l-3 3-7-28h-9z" fill="#FEFEFE"/>
<path transform="translate(678,304)" d="m0 0 6 1 2 5-4 5h-9l-2-2 1-5 3-3z" fill="#737273"/>
<path transform="translate(1234,639)" d="m0 0 1 4-5 14-1 1h-12l4-5 5-5z" fill="#FEFEFE"/>
<path transform="translate(1153,429)" d="m0 0h17l15 2 9 3 7 4v2l-5-1-18-5-16-3h-9z" fill="#FEFEFE"/>
<path transform="translate(1009,71)" d="m0 0m-1 1m-2 1h2v2l-18 10-19 12-15 10h-3l8-7 19-12 24-14z" fill="#737273"/>
<path transform="translate(980,276)" d="m0 0h7l-6 12-2 1-4-5-7-3 1-3z" fill="#FEFEFE"/>
<path transform="translate(977,187)" d="m0 0h9l7 15v1h-9l-4-12z" fill="#FEFEFE"/>
<path transform="translate(252,386)" d="m0 0 6 4 7 5-2 4-13 1 1-10z" fill="#FEFEFE"/>
<path transform="translate(994,188)" d="m0 0h18l-1 5-2 2-12 1-3-6z" fill="#FEFEFE"/>
<path transform="translate(1110,436)" d="m0 0m-3 1h3v2l-5 5-2 5h-2l1-6-4 1-3 2-2 7h-2v-6l-5 4-3 7h-1v-5l-2-1 8-6 16-8z" fill="#737273"/>
<path transform="translate(967,57)" d="m0 0m-1 1m-2 1h2l-1 3-16 10-20 14-11 8-2-1 7-6 17-12 18-12z" fill="#737273"/>
<path transform="translate(1144,499)" d="m0 0h7v11l-1 4-6 1-1-15z" fill="#FEFEFE"/>
<path transform="translate(1014,189)" d="m0 0 5 4 2 6-1 1h-25v-2l15-2 3-4z" fill="#FEFEFE"/>
<path transform="translate(991,126)" d="m0 0 5 1 9 6 2 3v9l-4 11-7 6-3-1 6-5 4-12v-8l-4-5-8-4z" fill="#FEFEFE"/>
<path transform="translate(1157,232)" d="m0 0v3l-13 13-7 8-12 13-6 7-2-1 9-11 7-7 7-8z" fill="#737273"/>
<path transform="translate(1523,415)" d="m0 0 1 2-10 18-9 12-9 8-3 2-3-1 9-7 7-7 12-20 4-6z" fill="#737273"/>
<path transform="translate(696,248)" d="m0 0h5l1 5-4 11-3 4h-4l3-10z" fill="#FEFEFE"/>
<path transform="translate(424,202)" d="m0 0h9l5 9 2 5-6-1-5-5-4-5z" fill="#FEFEFE"/>
<path transform="translate(1014,186)" d="m0 0h6l8 16v2l-36 1 3-2 26-1v-7l-4-6v-2z" fill="#FEFEFE"/>
<path transform="translate(344,403)" d="m0 0 3 1 1 9-10 2-2-5v-3z" fill="#FEFEFE"/>
<path transform="translate(615,176)" d="m0 0h26l5 1-1 3-19-1-15 2-4 1 4-4z" fill="#FEFEFE"/>
<path transform="translate(1316,629)" d="m0 0h1l2 10v10l-1 3h-2l-1 2h2l-1 4h-5l4-20z" fill="#FEFEFE"/>
<path transform="translate(215,424)" d="m0 0 12 6 5 13-1 2-9-9-7-11z" fill="#FEFEFE"/>
<path transform="translate(996,74)" d="m0 0m-1 1m-2 1h2v2l-21 12-22 15-2-1 10-8 24-15z" fill="#737273"/>
<path transform="translate(331,407)" d="m0 0m-1 1m-2 1h2v2l-2 1v4l7-2v-4h2l1 4h8v2l-25 4 1-2h2l-1-4-5 1 3-3z" fill="#737273"/>
<path transform="translate(594,355)" d="m0 0m-5 1h5v2l-25 7-16 6-2-1 6-4 21-7z" fill="#737273"/>
<path transform="translate(1127,636)" d="m0 0 2 1-9 13-5 8h-7l6-8z" fill="#FEFEFE"/>
<path transform="translate(1200,584)" d="m0 0h2l1 8-1 1h-12l-1-5z" fill="#FEFEFE"/>
<path transform="translate(1232,619)" d="m0 0h2l-1 7-6 15-6 10-7 7-3-1 5-4 9-14 5-14z" fill="#FEFEFE"/>
<path transform="translate(1192,615)" d="m0 0 9 1-4 8-4 5-3 1v-9z" fill="#FEFEFE"/>
<path transform="translate(1116,606)" d="m0 0 2 2v8l-7 7-4 2-3-6v-3l5 2h2l2-5z" fill="#FEFEFE"/>
<path transform="translate(342,399)" d="m0 0h3v2l-17 9-10 4-4-1 14-8z" fill="#FEFEFE"/>
<path transform="translate(678,522)" d="m0 0m-3 1h3v2l-39 12-3-1 6-3z" fill="#737273"/>
<path transform="translate(1310,605)" d="m0 0h1v13l-6 7h-1v-10l2-5z" fill="#FEFEFE"/>
<path transform="translate(1088,417)" d="m0 0m-4 1h4v2l-16 6-15 8-6 5-2-1 8-7 14-8z" fill="#737273"/>
<path transform="translate(281,473)" d="m0 0 1 2-5 14-5-5-2-4 9-6z" fill="#FEFEFE"/>
<path transform="translate(1853,280)" d="m0 0h2v12l-4 3h-2l-2-6 1-5z" fill="#FEFEFE"/>
<path transform="translate(567,111)" d="m0 0m-1 1v3l-12 8-22 15-4 3-2-1 7-6 15-10z" fill="#737273"/>
<path transform="translate(1313,615)" d="m0 0h1v20l-3 19-2 4-2-1 4-21z" fill="#FEFEFE"/>
<path transform="translate(754,323)" d="m0 0h3l-1 9h3l1-2v6h-12l-1-4 4-1-1 3h2l1-5-3-1 1-3z" fill="#FEFEFE"/>
<path transform="translate(821,150)" d="m0 0h13l19 3v1h-23l-10-1z" fill="#FEFEFE"/>
<path transform="translate(1180,508)" d="m0 0 10 5 14 12h-3l-9-6-10-5-4-1z" fill="#FEFEFE"/>
<path transform="translate(558,151)" d="m0 0 1 3-2 8-12 2-3-1z" fill="#FEFEFE"/>
<path transform="translate(711,151)" d="m0 0h20l-2 6h-8l-10-5z" fill="#FEFEFE"/>
<path transform="translate(1148,518)" d="m0 0h2l-1 26-2-3-2-13v-9z" fill="#FEFEFE"/>
<path transform="translate(428,293)" d="m0 0h6l3 3-1 6-4 1-5-3v-6z" fill="#FEFEFE"/>
<path transform="translate(581,205)" d="m0 0h6l1 3-25 4-4-1 2-2z" fill="#FEFEFE"/>
<path transform="translate(1010,423)" d="m0 0 1 2-12 24-4 7h-2l2-6 12-24z" fill="#737273"/>
<path transform="translate(906,418)" d="m0 0 2 4-10 5v3l-10 5 2-5 3-5 10-4h2z" fill="#767576"/>
<path transform="translate(390,485)" d="m0 0 1 4-5 12-2 3h-2l-1-4 4-5 1-3-5 3-1 2h-2l2-6 5-1z" fill="#737273"/>
<path transform="translate(1174,433)" d="m0 0 9 1 1 2h-6l8 3v1h-7l-8 6-4 5-1-2 5-7 5-4-5-1v-2h3z" fill="#737273"/>
<path transform="translate(290,440)" d="m0 0v3l-12 22-5 9h-2l2-6 9-17 7-10z" fill="#737273"/>
<path transform="translate(866,446)" d="m0 0h9l11 3v4l-11-2-11-3z" fill="#FEFEFE"/>
<path transform="translate(428,291)" d="m0 0h6l5 4v6l-3 3-5 1-5-3-1-2v-6zm0 2-1 1v6l5 3 4-1 1-6-3-3z" fill="#737273"/>
<path transform="translate(520,182)" d="m0 0h4l-2 9-8-1-2-1v-4z" fill="#FEFEFE"/>
<path transform="translate(1307,592)" d="m0 0 2 1 1 10-5 7h-1v-14z" fill="#FEFEFE"/>
<path transform="translate(581,200)" d="m0 0h3l1 3-13 3-12 2v-3z" fill="#FEFEFE"/>
<path transform="translate(1310,621)" d="m0 0 1 2-1 10-7 6 1-11z" fill="#FEFEFE"/>
<path transform="translate(331,432)" d="m0 0h5l1 3-5 11-3-1-1-5z" fill="#FEFEFE"/>
<path transform="translate(420,191)" d="m0 0 8 1 3 8h-8l-3-5z" fill="#FEFEFE"/>
<path transform="translate(399,499)" d="m0 0 2 3-9 9-6 7-3 3-1 3-1-2-2-1 6-6h2l1-4 6-7z" fill="#FEFEFE"/>
<path transform="translate(588,209)" d="m0 0 2 2-11 3-7 2h-6v2l3 2h-5l-3-6z" fill="#FEFEFE"/>
<path transform="translate(1129,632)" d="m0 0m-1 1m-1 1m-1 1v3l-13 14-5 6h-2l2-4 12-14z" fill="#737273"/>
<path transform="translate(1095,568)" d="m0 0 8 4 9 6-4 1-12-4-1-1z" fill="#FEFEFE"/>
<path transform="translate(782,427)" d="m0 0h2l3 12v9l-3 14h-2l1-8 1-5v-11z" fill="#737273"/>
<path transform="translate(274,245)" d="m0 0m-8 1h8v2l-24 4-9 1 1-2 18-4z" fill="#737273"/>
<path transform="translate(1854,294)" d="m0 0h1v16l-1 3h-2l-2-11v-5z" fill="#FEFEFE"/>
<path transform="translate(463,165)" d="m0 0m-4 1h4v2l-13 5-11 7-2 3h-2l2-4 7-6 12-6z" fill="#737273"/>
<path transform="translate(392,483)" d="m0 0 2 3 1 3-6 11-6 8-1-2 5-9z" fill="#FEFEFE"/>
<path transform="translate(583,161)" d="m0 0h6l-3 2-16 6h-2l1-6z" fill="#FEFEFE"/>
<path transform="translate(558,141)" d="m0 0m-1 1m-1 1v3l-15 10-2 1-2 7h-2l1-8 2-4 1 2z" fill="#737273"/>
<path transform="translate(1308,637)" d="m0 0h1l-1 9-5 6h-2l1-9 4-5z" fill="#FEFEFE"/>
<path transform="translate(1296,555)" d="m0 0 2 3 6 16-1 5-2 1-5-21z" fill="#FEFEFE"/>
<path transform="translate(1272,510)" d="m0 0 4 4 7 12 4 11-1 2-10-19-4-7z" fill="#FEFEFE"/>
<path transform="translate(735,451)" d="m0 0h2v2l-13 6-19 7-2-1 8-4z" fill="#FEFEFE"/>
<path transform="translate(317,387)" d="m0 0 7 1 3 2-2 4-4 3h-2l-2-5z" fill="#FEFEFE"/>
<path transform="translate(506,342)" d="m0 0 2 1v3l-9 7-14 1v-3l13-2 6-4z" fill="#FEFEFE"/>
<path transform="translate(1089,494)" d="m0 0m-1 1m-2 1h2l-2 4-10 9-7 9h-2l2-5 11-12z" fill="#737273"/>
<path transform="translate(277,342)" d="m0 0m-1 1m-2 1h2l-1 3-8 7-7 11-1 2h-2l1-5 8-11z" fill="#737273"/>
<path transform="translate(1094,89)" d="m0 0m-1 1m-2 1h2l-2 4-6 10-4 12h-2l1-7 7-14z" fill="#737273"/>
<path transform="translate(1142,590)" d="m0 0h6l1 1-1 8-2 1-2-6v6l-4-4 1-5z" fill="#FEFEFE"/>
<path transform="translate(811,41)" d="m0 0h12l-2 5-5 5-4-8z" fill="#FEFEFE"/>
<path transform="translate(1236,620)" d="m0 0h2l-1 11-4 8-4 3 3-10z" fill="#FEFEFE"/>
<path transform="translate(743,339)" d="m0 0 2 1v10l-2 19-2 4 1-24z" fill="#FEFEFE"/>
<path transform="translate(401,492)" d="m0 0h4l-2 4-7 8-4-1 2-7 1 2h2l1-3h2z" fill="#B7B6B7"/>
<path transform="translate(453,164)" d="m0 0h2v2l-16 8-8 9h-2l2-5 8-7z" fill="#737273"/>
<path transform="translate(385,464)" d="m0 0h1l-1 9h-2v-3h-10l-5-2v-1h16z" fill="#737273"/>
<path transform="translate(342,397)" d="m0 0m-3 1h3v2l-18 8-7 4-2-1 5-4z" fill="#737273"/>
<path transform="translate(1525,287)" d="m0 0m-3 1h3v2l-18 8-7 4-2-1 8-6z" fill="#737273"/>
<path transform="translate(1129,637)" d="m0 0 1 2-7 11-6 8h-2l2-5 9-13z" fill="#737273"/>
<path transform="translate(1114,636)" d="m0 0v3l-12 15-3 4-3-1 11-14z" fill="#737273"/>
<path transform="translate(1142,588)" d="m0 0h6l5 4 2 4v5l-2-1-2-6-2 2-1-5h-6l-2 5-2-1 1-5z" fill="#737273"/>
<path transform="translate(1304,579)" d="m0 0 2 2 1 10-4 4-1-5v-9z" fill="#FEFEFE"/>
<path transform="translate(282,467)" d="m0 0 1 3 2-1-1 6-4 11h-2l1-6 2-6-6 2 6-8z" fill="#737273"/>
<path transform="translate(1250,483)" d="m0 0 4 2 10 11 6 8v2l-4-2-9-12-7-8z" fill="#FEFEFE"/>
<path transform="translate(1150,593)" d="m0 0 3 3 1 4v9h-2l-4-7z" fill="#FEFEFE"/>
<path transform="translate(1801,246)" d="m0 0 4 4 2 7v9l-4-4-5-10 1-2 5 9-1-7z" fill="#FEFEFE"/>
<path transform="translate(750,164)" d="m0 0h6l-4 10-5 1 2-10z" fill="#FEFEFE"/>
<path transform="translate(1234,571)" d="m0 0 3 1 4 14v6l-3-4-4-14z" fill="#FEFEFE"/>
<path transform="translate(372,511)" d="m0 0 4 1-7 8-9 8-3-1 8-7z" fill="#FEFEFE"/>
<path transform="translate(587,217)" d="m0 0h5v2l-25 5h-2v-2l8-2z" fill="#FEFEFE"/>
<path transform="translate(1230,620)" d="m0 0h1l-1 9-5 12-3 1 7-21z" fill="#737273"/>
<path transform="translate(1119,604)" d="m0 0 8 2 1 3-7 5h-1z" fill="#FEFEFE"/>
<path transform="translate(1106,535)" d="m0 0 4 1-3 10-5-3 3-7z" fill="#FEFEFE"/>
<path transform="translate(744,320)" d="m0 0h13v2l-7 2-3 2-5-1z" fill="#FEFEFE"/>
<path transform="translate(450,162)" d="m0 0h3v2l-13 5-10 6-2-1 6-5 13-6z" fill="#737273"/>
<path transform="translate(727,457)" d="m0 0m-3 1h3v2l-22 8-2-1 4-3z" fill="#737273"/>
<path transform="translate(1092,162)" d="m0 0m-5 1h5v2l-13 4-8 4-2-1 7-5z" fill="#737273"/>
<path transform="translate(683,249)" d="m0 0h2l-2 9-2 4-3-1 1-6 2-5z" fill="#FEFEFE"/>
<path transform="translate(332,409)" d="m0 0h3l1 6-9 2v-5z" fill="#FEFEFE"/>
<path transform="translate(378,490)" d="m0 0h1l-1 7-2 2-1-4-13-2v-2l12 1z" fill="#888788"/>
<path transform="translate(266,398)" d="m0 0 4 1 11 8-2 1-14-7z" fill="#FEFEFE"/>
<path transform="translate(1165,591)" d="m0 0 4 1 2 4-2 6-3-1-1-3z" fill="#FEFEFE"/>
<path transform="translate(1230,575)" d="m0 0 3 1 3 12h-4l-2-9z" fill="#FEFEFE"/>
<path transform="translate(1145,603)" d="m0 0 3 1 4 8-5 1-3-9z" fill="#FEFEFE"/>
<path transform="translate(753,150)" d="m0 0h9l-2 5h-8z" fill="#FEFEFE"/>
<path transform="translate(1019,623)" d="m0 0 3 1-1 2-11 3h-5l-1-2z" fill="#FEFEFE"/>
<path transform="translate(1110,436)" d="m0 0m-3 1h3v2l-5 5-2 5h-2l1-6v-1l-2-1 4-3z" fill="#737273"/>
<path transform="translate(290,341)" d="m0 0h8l2 2-1 7-7-6z" fill="#FEFEFE"/>
<path transform="translate(796,253)" d="m0 0h10l-2 3-11 2v-4z" fill="#FEFEFE"/>
<path transform="translate(1800,246)" d="m0 0 3 4 2 4v6l-3-3-3-6-2-2z" fill="#737273"/>
<path transform="translate(428,224)" d="m0 0v3l-11 13h-2l2-4 7-8z" fill="#737273"/>
<path transform="translate(1149,570)" d="m0 0h1l1 7-4 2-4-3v-5l2 3z" fill="#FEFEFE"/>
<path transform="translate(677,165)" d="m0 0 4 2 10 9 7 3-4 2-7-6-10-9z" fill="#FEFEFE"/>
<path transform="translate(1292,547)" d="m0 0 2 2 2 6v13l-2-3-2-8z" fill="#FAFAFA"/>
<path transform="translate(732,444)" d="m0 0m-4 1h4v2l-15 4-4-1 8-3z" fill="#737273"/>
<path transform="translate(380,501)" d="m0 0 3 1-5 7-5 1 3-6z" fill="#FEFEFE"/>
<path transform="translate(817,157)" d="m0 0 1 3-5 14h-2l2-9 3-7z" fill="#737273"/>
<path transform="translate(1133,616)" d="m0 0 5 1 1 5-5 5-2-7 2-1 1 4 1-2-1-4z" fill="#FEFEFE"/>
<path transform="translate(668,319)" d="m0 0 7 1v3l-2 3-4-1z" fill="#FEFEFE"/>
<path transform="translate(719,183)" d="m0 0h3l-1 3-15 1v-2z" fill="#FEFEFE"/>
<path transform="translate(1705,604)" d="m0 0v3l-7 8-5 3-2-1 13-12z" fill="#737273"/>
<path transform="translate(386,491)" d="m0 0 1 2-4 6-5 2 2-6z" fill="#FEFEFE"/>
<path transform="translate(1014,358)" d="m0 0 1 4-4 16h-1v-8z" fill="#FEFEFE"/>
<path transform="translate(679,306)" d="m0 0 4 1-2 4-1 1h-6l1-4z" fill="#DFDEDF"/>
<path transform="translate(751,157)" d="m0 0h8l-2 5h-6z" fill="#FEFEFE"/>
<path transform="translate(561,127)" d="m0 0m-1 1m-1 1v3l-13 9-2-1 7-6z" fill="#737273"/>
<path transform="translate(809,56)" d="m0 0h2l-1 5-4 8h-1v-7l3-5z" fill="#FEFEFE"/>
<path transform="translate(1125,585)" d="m0 0 4 3-1 5-3 1-2-5z" fill="#FEFEFE"/>
<path transform="translate(375,497)" d="m0 0 1 2-2 4h-2v-2h-10l-3-3 14 1z" fill="#737273"/>
<path transform="translate(408,255)" d="m0 0h1l-1 10-1 6h-2v-7z" fill="#737273"/>
<path transform="translate(1158,620)" d="m0 0 4 1 2 5-4 1-4-2 1-4z" fill="#FEFEFE"/>
<path transform="translate(1271,518)" d="m0 0m-3 1h3v2l-13 5-3-1 8-4z" fill="#737273"/>
<path transform="translate(389,483)" d="m0 0 1 2-2 4-6 3 2-7z" fill="#FEFEFE"/>
<path transform="translate(389,472)" d="m0 0h1l1 10-5 1 2-9z" fill="#FEFEFE"/>
<path transform="translate(991,468)" d="m0 0 1 2-6 14h-2l3-9 3-6z" fill="#737273"/>
<path transform="translate(1235,643)" d="m0 0 1 4-4 11-3-1 5-13z" fill="#737273"/>
<path transform="translate(1088,446)" d="m0 0m-2 1h2l-2 4-3 7h-1v-5l-2-1z" fill="#777677"/>
<path transform="translate(808,221)" d="m0 0h3v4h-12l1-2z" fill="#FEFEFE"/>
<path transform="translate(589,221)" d="m0 0h4v3l-5 1h-7l2-3z" fill="#FEFEFE"/>
<path transform="translate(714,188)" d="m0 0h7v2l-13 2-1-3z" fill="#FEFEFE"/>
<path transform="translate(1306,650)" d="m0 0 1 3-2 5h-5l1-4z" fill="#FEFEFE"/>
<path transform="translate(1211,455)" d="m0 0m-1 1m-2 1h2l-1 3-7 6h-2l2-4z" fill="#737273"/>
<path transform="translate(1800,280)" d="m0 0 4 5 3 3h4l-1 3-5-1-5-7z" fill="#FEFEFE"/>
<path transform="translate(673,164)" d="m0 0m-1 1m-2 1h2l-2 4-5 5-3 1 2-4z" fill="#737273"/>
<path transform="translate(1283,556)" d="m0 0m-4 1h4v2l-11 3v-3z" fill="#737273"/>
<path transform="translate(1278,545)" d="m0 0m-4 1h4v2l-8 3h-3v-2z" fill="#737273"/>
<path transform="translate(498,365)" d="m0 0 5 1-1 5-4-1-1-4z" fill="#737273"/>
<path transform="translate(486,334)" d="m0 0 4 1 1 4-4 1-2-2z" fill="#737273"/>
<path transform="translate(988,188)" d="m0 0h4l3 8h-3z" fill="#FEFEFE"/>
<path transform="translate(1012,600)" d="m0 0m-4 1h4v2l-12 3 2-3z" fill="#737273"/>
<path transform="translate(878,443)" d="m0 0h8v4l-10-2z" fill="#FEFEFE"/>
<path transform="translate(663,328)" d="m0 0 7 1-1 3h-6l-1-2z" fill="#FEFEFE"/>
<path transform="translate(898,182)" d="m0 0 11 1 3-1v3h-12l-2-1z" fill="#FEFEFE"/>
<path transform="translate(555,151)" d="m0 0m-1 1m-1 1v3l-8 6-2-1 8-7z" fill="#737273"/>
</svg>
