<?xml version="1.0" encoding="UTF-8"?>
<svg version="1.1" viewBox="0 0 2048 657" width="885" height="284" xmlns="http://www.w3.org/2000/svg">
<path transform="translate(0)" d="m0 0h2048v657h-2048z" fill="#0A080A"/>
<path transform="translate(0)" d="m0 0h2048v657h-2048zm1213 8-74 2-63 3-56 4-50 5-40 6-29 6-26 7-20 7-16 8-38 18-35 17-19 10-24 13-26 14-21 12-26 15-27 16-22 13-23 14-33 21-21-2-13-2-26 2-53 7-71 11-74 13-53 11-47 11-49 14-27 9-23 10-17 9-14 10-7 8-3 8-7 12-9 24-5 19-2 11-14 11-2 5v56l5 2h3l1 19 3 21-1 5-10 9 1 7 4 5 15 8 34 11 20 4 40 5 52 5 23 1v-3l13-1h20l10 17 10 13 18 18 14 10 16 9 14 6 19 5 11 2 11 1h14l17-2 18-4 19-7 15-8 14-10 10-9 13-13 10-14 9-16v-2l35 4 4 2h25l100-1 245-4 81-1 168-3 201-3 85-1 17-1 1-3 23-4h3l8 19 7 13 8 11 9 11 8 8 14 11 14 9 17 8 20 6 17 3 21 1 19-2 21-5 15-6 17-9 11-8 14-12 11-12 10-14 9-17 7-20 2-7 24-1 1 4 14-1 48-8 76-14 50-10 30-8 12-5 8-8 8-13 5-11 6-25 1-7v-9l-2-9v-58l-3-6-11-13-9-15-8-17-1-3-2-33-5-40-4-14-1-6v-24l-4-10-5-4-38-3-72-6-40-4h-12l-85-41-73-33-45-19-38-15-31-12-10-4-35-9-36-7-34-5-41-4-44-3-51-2z" fill="#FDFDFD"/>
<path transform="translate(1238,21)" d="m0 0h60l57 2 41 3 40 5 35 6 33 8 31 9 36 14 35 14 35 15 27 12 39 18 49 24 23 11 22 10 19 6 15 3 49 5 66 6 23 3-4 4-22 14-21 14-12 4-9 6-6 6v7l7 12 11 14 14 18 9 11 1 5-11 19-9 13-8 7-9 2-119 10-38 4h-9l-18-13-19-11-21-9-20-6-16-3-11-1h-27l-23 3-22 6-16 6-20 10-18 12-11 9-12 11-9 11-11 15-12 21-10 25-6 20-1 1h-11l9-20 17-34 10-17 11-17 28-40 52-72 9-13 3-4 150-5 77-2 102-2h-55l-133 3-116 4h-23l1-4 9-20 18-48 5-19v-18l-4-11-8-11-9-8-18-11-23-12-25-11-34-13-31-9-31-7-34-5-31-3-36-2-26-1h-121l-55 2-50 3-55 5-29 4-33 6-28 7-27 9-26 11-40 20-23 13-26 15-48 30-22 14-18 13-12 8-19 14-17 14-4 2-20-12 1-3 20-12 26-17 48-30 32-19 24-14 23-13 29-16 29-15 27-13 15-6 28-9 24-6 33-6 47-6 55-5 62-4 52-2z" fill="#FDFDFD"/>
<path transform="translate(1098,277)" d="m0 0h11l-6 51-2 32-1 27v25l1 44-5 1-370 18-58 4-25 3-24 5-16 4-4-35-3-40-1-19v-52l3-36 1-2 6-1 229-14 223-13z" fill="#FDFDFD"/>
<path transform="translate(1558,255)" d="m0 0 2 1-26 36-12 17-39 54-16 23-14 23-10 18-13 28-8 15-7-6-7-7-13-10-4-2h-23l-248 11h-16l-1-1-1-23v-61l2-36 4-36 3-21 7-2 318-16 48-2z" fill="#FDFDFD"/>
<path transform="translate(353,370)" d="m0 0h17l21 3 21 6 19 9 16 11 12 11 9 9 11 15 9 16 7 18 4 18 2 17v14l-3 22-6 20-10 21-9 13-11 13-10 10-13 10-16 9-14 6-18 5-21 3h-18l-21-3-18-5-21-10-16-11-12-11-10-10-10-14-9-16-7-19-4-16-2-14v-26l3-17 5-16 7-16 10-16 8-10 11-12 13-11 15-9 17-8 20-6 11-2z" fill="#FDFDFD"/>
<path transform="translate(1612,370)" d="m0 0h15l17 2 19 5 15 6 13 7 14 10 10 9 10 10 11 15 9 16 7 19 4 16 2 19v12l-2 18-4 17-6 16-9 17-9 12-12 14-14 12-16 10-14 7-19 6-15 3-10 1h-19l-20-3-20-6-16-7-14-9-11-9-12-11-12-15-9-15-7-16-6-21-3-24v-10l2-18 5-19 6-15 8-15 10-14 11-12 7-7 13-10 16-9 20-8 17-4z" fill="#FDFDFD"/>
<path transform="translate(610,219)" d="m0 0 6 1 18 11-5 5-11 12-8 14-5 12-5 15-3 15-1 1-112 7v2l3-1 101-6h8l-3 42v44l3 50 4 41v8l-13 6-14 7 1 1 29 1 6 24v2l-14 1-61 1-1-5-2-25-4-24-7-24-8-18-9-16-10-14-10-11v-2h-2l-5-5-10-9-18-12-15-8-21-8-20-5-22-3h-22l-23 3-23 6-19 8-15 8-14 10-13 11-9 9-3 4h-18l6-8 9-10 13-13 13-10 13-8 16-8 20-8 25-6 14-2 14-1h14l21 2 23 5 20 7 25 13 14 10 11 9 20 20 14 19 11 20 7 17 7 26 2 6-5-23-6-17-11-23-12-18-8-10-12-13-14-12-16-11-16-9-16-7-18-6-18-4-18-2h-24l-24 3-24 6-16 6-21 10-15 10-10 8-10 9-11 11-9 12h-46l-9-6-6-7 15-13 14-15 11-13 3-6-1-7-4-5-10-5-21-3 2-2 27-10 26-8 41-10 45-9 60-9 64-8 51-6 30-5 25-7 21-9 8-5 22-3 18-6 14-8z" fill="#FDFDFD"/>
<path transform="translate(1113,54)" d="m0 0h17l-3 11-21 71-19 66-5 18-8 1-305 16h-14l2-8v-25l-3-14-5-8-6-3-9-1 2-4 10-7 26-16 15-9 28-16 32-17 16-8 24-11 28-10 25-7 36-7 39-5 45-4z" fill="#FDFDFD"/>
<path transform="translate(1182,51)" d="m0 0h95l53 2 38 3 37 5 29 6 19 5 1 3-12 98-4 31-11 1-247 11h-14l1-17 11-110 3-36z" fill="#FDFDFD"/>
<path transform="translate(1606,323)" d="m0 0h26l22 3 23 6 19 8 17 9 20 14 1 3-11 1h-10l-30-15-21-7-20-4-8-1h-30l-20 3-21 6-15 6-21 11-16 12-12 11-10 10-13 18-9 16-8 19-6 23-3 16-2 20v46l-44 1-91 1-116 2-197 3-49 1-335 5h-82v-32l23-1 92-2 662-13 36-1 20-2 14-4 13-7 12-11 8-9 9-14h14l2-10 8-24 9-19 12-19 12-16 11-12 10-9 15-11 16-9 21-10 22-7 21-4z" fill="#FDFDFD"/>
<path transform="translate(1608,412)" d="m0 0h21l15 3 12 4 14 7 12 9 9 8 10 13 8 15 5 16 2 12v22l-4 18-5 13-8 14-11 13-11 10-15 9-16 6-13 3h-27l-14-3-16-6-12-7-10-8-10-10-9-13-8-16-4-14-2-17 1-17 4-18 8-18 12-16 11-11 14-9 15-7 15-4z" fill="#FDFDFD"/>
<path transform="translate(351,412)" d="m0 0h20l15 3 15 5 16 9 13 11 9 10 11 18 7 21 2 21-2 20-5 17-9 17-13 16-12 10-14 8-15 6-14 3h-26l-18-4-16-7-12-8-10-9-7-7-7-10-8-15-5-16-2-14v-17l3-16 6-16 7-13 8-10 7-8 10-8 16-9 18-6z" fill="#FDFDFD"/>
<path transform="translate(1114,223)" d="m0 0h7l-4 19-7 32-1 1-80 4-95 6-106 6-112 7-98 6h-19l2-11 6-20 8-17 4-6 6-1 52-2 87-6 189-10 136-7z" fill="#FDFDFD"/>
<path transform="translate(1942,310)" d="m0 0 4 2 10 14 11 14 12 12 9 6 12 4 6 1h17l13-1v59l1 9-7 3-21 4-38 5-141 15-25 3h-7l-9-26-8-16-8-14-12-16-14-15-4-3 1-3 61-6 96-8 11-2 5-3 8-9 9-14 6-10z" fill="#FDFDFD"/>
<path transform="translate(1557,204)" d="m0 0h25l-3 10-10 25-7 14-7 1-107 4-96 5-185 9-35 2h-20l5-25 6-25 1-1 50-3 176-8 118-5z" fill="#FDFDFD"/>
<path transform="translate(143,396)" d="m0 0 5 2 10 8 6 3 41 1-8 15-8 17-7 21-4 18-3 20-1 2h2l3-23 5-21 8-22 10-20 5-7 17-1-2 5-7 10-10 19-6 16-6 24-3 21-1 14-1 27-5 1h-20l-54-1-62-3-18-1 19 2 61 3 78 1 2 4 2 21-22-1-44-4-38-5-24-5-26-8-16-7-6-5 1-5 5-4 23 1h43l18-2 18-5 1-4-9-17-10-13-8-6-9-3-17-2-48-3-9-1-1-1v-50l1-1 28-2 47-6 23-4 17-5 11-6z" fill="#FBFBFB"/>
<path transform="translate(1735,368)" d="m0 0 6 1 13 13 7 8 9 12 11 18 8 17 8 24 16-1 149-16 41-5 26-5 8-1v7l-3 14-8 5-11 7-10 11-9 11-12 13-9 6-27 6-92 17-64 11h-2l-1-28-3-26-5-25-7-20-8-16-8-14-10-13-11-12-10-9-9-7v-1z" fill="#FDFDFD"/>
<path transform="translate(1096,487)" d="m0 0h6l1 1 5 28 1 7-4 1-469 9h-25l-5-20v-6l38-2 113-4 118-5 148-6z" fill="#FDFDFD"/>
<path transform="translate(497,221)" d="m0 0h10l5 6 16 6 14 3 9 1-3 3-15 7-21 7-24 5-37 5-71 8-63 9-50 9-40 9-29 8-29 10-21 8-30 3-23 5-29 8-7 1v-2l15-10 19-9 42-15 42-12 37-9 43-9 53-9 39-6 68-9 88-10 27-3-18 1-40 4-90 11-64 9-64 11-44 9-40 10-31 9-35 12-24 10-18 10-7 5h-2v-8l5-5 10-8 21-12 25-10 27-9 36-10 44-11 57-12 67-12 68-11 66-9z" fill="#FCFCFC"/>
<path transform="translate(1465,77)" d="m0 0 11 3 20 7 26 11 29 14 15 9 10 9 5 7 2 7v13l-5 19-9 23-2 1-116 4-1-3 12-100z" fill="#FDFDFD"/>
<path transform="translate(1082,459)" d="m0 0h19l1 11v15l-63 3-286 12-132 5h-16l-2-11 5-3 24-6 27-4 53-4 198-10 124-6z" fill="#FDFDFD"/>
<path transform="translate(1417,474)" d="m0 0h2l-2 5-6 9-10 12-12 9-13 6-15 3-19 1-192 4h-38l-5-21-2-15 11-1 147-6 135-5z" fill="#FDFDFD"/>
<path transform="translate(1603,345)" d="m0 0h29l21 3 19 5 15 6 16 8 17 12 14 12 11 12 12 17 11 21 8 22 5 22 3 22 1 16v12l-1 1h-23l1-13v-28l-3-19-5-17-7-15-9-16-10-13-10-11-11-9-13-9-16-8-15-6-19-5-18-2h-14l-18 2-20 5-16 6-15 8-14 10-12 11-9 9-12 17-10 19-7 21-3 14-1 9v27l3 18 1 7-13 3-13 1-1-17v-14l2-26 4-22 6-21 8-18 10-17 10-13 11-12 8-8 13-10 15-9 19-9 18-6 19-4z" fill="#FDFDFD"/>
<path transform="translate(348,351)" d="m0 0h23l22 3 19 5 16 6 19 10 14 10 13 11 11 11 10 13 11 18 8 17 6 18 5 22 3 23 1 19v30l-3 1-30-3 2-9 5-19 2-14v-29l-3-18-5-16-7-16-9-16-10-13-6-7-2-1v-2l-4-2-10-9-15-10-19-9-15-5-20-4-8-1h-20l-21 3-15 4-16 6-18 10-13 10-12 11-9 10-10 14-10 19-7 21-3 16-1 9v20l3 20 5 18 4 11-5 1h-28l-2-13-1-11v-24l2-21 5-26 6-20 10-21 10-15 9-11 12-13 13-11 18-11 19-9 19-6 21-4z" fill="#FDFDFD"/>
<path transform="translate(1141,42)" d="m0 0h16l-1 9-26 131-7 34-2 3-21 1h-14l14-49 17-59 12-40 6-22-33 1-59 4-42 4-35 5-36 8-27 8-25 10-25 12-22 11-46 26-18 11-27 16-9 5-2 5-21 7-14 9-9 8-7 9-13 9-14 12-8 8-8 7-3 2h-9l6-7 9-9 11-9 13-11 19-14 24-16 10-7 19-12 24-15 21-13 23-13 21-12 33-17 20-9 26-10 23-7 30-7 39-6 36-4 53-4z" fill="#FDFDFD"/>
<path transform="translate(1172,41)" d="m0 0h111l49 2 39 3 32 4 35 7 30 8 35 13 28 12 16 8 17 9 17 12 9 10 6 13v20l-5 19-7 19h-12l10-27 4-16v-13l-4-11-6-8-12-9-16-9-22-11-36-15-36-12-32-8-34-6-40-4-55-3h-115l-11 115-5 48-2 6-19 1h-16l1-9 10-49 20-101 3-16 1-1z" fill="#FDFDFD"/>
<path transform="translate(1373,446)" d="m0 0h16l9 5 14 12 7 7v2l-30 2-164 6-115 5h-5l-1-5v-21l2-1 192-9z" fill="#FDFDFD"/>
<path transform="translate(541,236)" d="m0 0 10 1-3 3-15 7-21 7-24 5-37 5-71 8-63 9-50 9-40 9-29 8-29 10-21 8-30 3-23 5-29 8-7 1v-2l15-10 19-9 42-15 42-12 37-9 43-9 53-9 39-6 68-9 88-10 36-4z" fill="#FDFDFD"/>
<path transform="translate(852,56)" d="m0 0 11 3 9 3-1 2-25 11-20 10-22 12-26 14-24 14-26 15-26 16-22 14-24 15-18 12-22 14-20 12-15 6-17 3-22-1-4-2 12-7 22-14 23-14 28-17 22-13 26-15 25-14 18-10 24-13 28-15 52-26z" fill="#FDFDFD"/>
<path transform="translate(135,329)" d="m0 0h35l10 3 7 6 1 7-6 9-12 14-13 14-10 8-11 3-27 4-17 1-9-3-5-2h-10l-15 2-2-2 1-4 29-7h9l15 7 3 1h11l6-3 6-7 20-34 7-7 4-2h11l7 2-7-3h-12l-6 4-6 7-10 17-8 14-9 10-2 1h-12l-10-4-7-4h-9l-28 7h-2l1-7 8-20 7-14 5-4 15-5 25-6z" fill="#FCFCFC"/>
<path transform="translate(1943,230)" d="m0 0h41l5 5 9 13 4 33-1 2-22 2h-18l-8-9-12-17-9-13-2-3 1 5 12 16 12 17 5 5h20l12-1h10v14l-31 3-15 1h-14l-8-9-12-16-10-13-7-10-3-6 1-5 5-5 9-6 5-2z" fill="#FDFDFD"/>
<path transform="translate(1252,13)" d="m0 0 70 1 46 2 40 3 42 5 37 6 31 7 26 7 3 2-10 7-9-2-31-9-36-8-30-5-45-5-42-3-27-1h-98l-67 2-53 3-72 6-56 7-36 7-33 9-20 7-5-1-18-6-1-2 26-8 28-7 27-5 36-5 50-5 56-4 37-2 64-2z" fill="#FDFDFD"/>
<path transform="translate(1992,303)" d="m0 0h11l5 15 11 21 11 14 5 6v2l-7 1h-24l-13-4-11-7-15-15-12-16-8-11v-2z" fill="#FDFDFD"/>
<path transform="translate(1554,49)" d="m0 0 9 2 37 14 29 12 26 11 32 14 27 12 34 16 28 13 46 23-1 2-8 2h-7l-25-11-32-16-23-11-37-18-33-15-34-15-32-13-29-11-15-5 3-3z" fill="#FDFDFD"/>
<path transform="translate(1038,282)" d="m0 0h7l9 4 4 3 22 1 5 3 2 3v7l-4 4-6 2-16 1-7 7-10 4-5 1h-14l-10-3-8-7-14-2-5-5 1-5 3-3 13-4 7-6 8-3z" fill="#0A080A"/>
<path transform="translate(1458,261)" d="m0 0h16l10 4 5 3 17 1 8 2 4 5v5l-5 4-21 3h-2l-2 4-8 5-9 2h-18l-10-4-4-5-14-2-5-4v-6l3-3 13-3 1-3 12-6z" fill="#0A080A"/>
<path transform="translate(356,408)" d="m0 0h9l21 3 12 4 16 8 11 8 10 9 9 11 7 11 6 15 4 15 1 6v24l-3 15-6 16-8 14-8 10-12 12-14 9-12 6-16 5-13 2h-16l-17-3-15-5-14-7-12-9-12-12-9-13-8-16-5-17-1-5v-29l4-17 6-15 8-13 10-11 5-5 8-7 13-8 14-6 17-4zm-5 4-16 3-16 6-14 8-14 12-11 14-9 17-5 16-2 12v17l3 17 5 15 8 15 9 11 11 11 15 10 16 7 18 4h26l17-4 16-7 11-7 14-12 11-15 8-15 5-17 2-21-2-20-7-21-9-15-9-11-11-10-14-9-14-6-15-4-7-1z" fill="#0A080A"/>
<path transform="translate(1614,408)" d="m0 0h9l16 2 17 5 16 8 12 9 8 7 11 14 7 12 7 19 2 10 1 11v10l-3 19-6 18-8 14-8 10-7 8-14 11-15 8-15 5-17 3h-17l-17-3-16-6-13-7-13-10-9-9-10-14-8-17-4-13-2-11v-24l4-18 6-15 9-15 12-13 8-7 14-9 13-6 14-4zm-6 4-15 3-14 5-15 8-10 8-10 10-11 16-7 16-4 18-1 17 2 17 5 16 8 16 10 13 11 11 15 10 14 6 14 4 6 1h27l19-5 14-6 12-8 12-11 11-14 8-15 5-16 2-11v-22l-3-16-6-16-8-14-12-14-14-11-12-7-13-5-12-3-7-1z" fill="#0A080A"/>
<path transform="translate(1832,168)" d="m0 0h12l89 8 52 4 2 1-2 5-9 8-18-2-85-8-37-4-20-4-1-2 15-5z" fill="#FDFDFD"/>
<path transform="translate(748,210)" d="m0 0h5v16l-3 9-2 2h-49l-12-3-6-7-3-10 59-6z" fill="#FDFDFD"/>
<path transform="translate(724,182)" d="m0 0h19l5 5 4 12 1 10-37 3-26 3h-9l1-5 6-8 10-9 12-7z" fill="#FDFDFD"/>
<path transform="translate(22,492)" d="m0 0h12l35 2 35 1 5 3 7 11v2h-60l-24-1-8-1-2-13z" fill="#FDFDFD"/>
<path transform="translate(67,395)" d="m0 0h11l12 5h11l39-5-4 4-10 5-19 5-33 5-40 5-19 1 5-6 14-9 18-7z" fill="#FDFDFD"/>
<path transform="translate(1988,184)" d="m0 0h2l1 2 1 32 5 19-1 3-9-11-2-2h-56l3-3 10-6 10-7 22-14 3 1 8 17 4 9-5-13-7-14 2-4z" fill="#FCFCFC"/>
<path transform="translate(25,512)" d="m0 0h14l29 1 50 1 2 1-1 5-10 4-13 2-30 1h-23l-15-1-3-7z" fill="#FDFDFD"/>
<path transform="translate(21,476)" d="m0 0 60 4 13 3 9 7v3l-40-1-34-2-7-1-1-3z" fill="#FDFDFD"/>
<path transform="translate(516,252)" d="m0 0m-4 1h4v2l-20 5-40 6-77 9-64 9-35 6-42 9-35 9-25 8-3-1 5-3 28-9 40-10 40-8 49-8 52-7 86-10 29-5z" fill="#0A080A"/>
<path transform="translate(1059,293)" d="m0 0h8l1 2v10l-1 1-42 2h-26l-7-2-1-4 3-3 12-2 36-3z" fill="#FDFDFD"/>
<path transform="translate(524,238)" d="m0 0h15v1l-138 16-73 10-60 10-50 10-37 9-8 2-4-1 7-3 40-10 56-11 68-11 75-10 77-9z" fill="#0A080A"/>
<path transform="translate(674,214)" d="m0 0h1l3 12 5 7 11 5 14 2v1l-17 2-52 3 2-4 11-11 11-9 9-7z" fill="#FDFDFD"/>
<path transform="translate(1485,272)" d="m0 0h11v11l-1 1-20 1h-49l-3-2 1-5 4-2 17-2z" fill="#FDFDFD"/>
<path transform="translate(349,329)" d="m0 0h24l23 3 23 6 20 8 17 9 16 11 11 9 12 11 10 11 12 17 9 16 8 17 5 15 5 23-1 3-3-9-7-26-10-23-10-17-10-13-9-10-15-15-16-12-17-10-19-9-19-6-19-4-21-2h-14l-22 2-20 4-4-1 8-3 22-4z" fill="#0A080A"/>
<path transform="translate(1458,74)" d="m0 0 5 2-13 111-2 16-1 1h-5l2-21 13-107z" fill="#FDFDFD"/>
<path transform="translate(2031,460)" d="m0 0 1 3-8 17-9 13-6 4-19 6h-2l2-4 9-10 9-11 10-11z" fill="#FDFDFD"/>
<path transform="translate(116,524)" d="m0 0m-3 1h3v2l-13 5-16 3-16 1h-38l-18-1 2-4 4-3 23 1h43l18-2z" fill="#FDFDFD"/>
<path transform="translate(56,344)" d="m0 0h9l-2 6-9 19-6 17-1 13-12 5-3-1 4-6 12-35 7-17z" fill="#FDFDFD"/>
<path transform="translate(1466,287)" d="m0 0h22l-1 3-6 4-12 3h-16l-7-3-5-4v-2z" fill="#FDFDFD"/>
<path transform="translate(1053,309)" d="m0 0h4l-2 4-8 5-4 1h-22l-7-3-4-3v-2z" fill="#FDFDFD"/>
<path transform="translate(1971,441)" d="m0 0m-10 1h10v2l-139 15h-10l1-2 64-7z" fill="#0A080A"/>
<path transform="translate(1028,285)" d="m0 0h19l9 5-3 2-46 3 4-5 10-4z" fill="#FDFDFD"/>
<path transform="translate(23,540)" d="m0 0h10l53 3 23 1 54 1 19 1v1h-73l-61-3-19-2-6-1z" fill="#0A080A"/>
<path transform="translate(1462,263)" d="m0 0h11l11 4 2 3-37 2h-10l4-4 11-4z" fill="#FDFDFD"/>
<path transform="translate(869,84)" d="m0 0m-3 1h3v2l-33 16-26 14-24 14-22 13-9 6-2-1 6-5 28-17 23-13 24-13z" fill="#0A080A"/>
<path transform="translate(1575,326)" d="m0 0m-4 1h4v2l-27 9-24 12-15 10-11 9-13 12h-3l7-8 10-9 15-11 15-9 23-11z" fill="#0A080A"/>
<path transform="translate(1930,242)" d="m0 0 3 4 9 13 13 18 6 7h32l-1 2-12 1h-20l-7-7-13-19-10-13-1-5z" fill="#0A080A"/>
<path transform="translate(161,335)" d="m0 0h12l8 4-3 1-5-2h-11l-6 4-6 7-13 23-8 12-7 6-3-1 9-8 10-17 8-14 7-9 6-5z" fill="#0A080A"/>
<path transform="translate(1498,272)" d="m0 0h10l6 3v5l-2 2-5 1h-10z" fill="#FDFDFD"/>
<path transform="translate(597,495)" d="m0 0h4l1 10h-25l3-3z" fill="#FDFDFD"/>
<path transform="translate(52,342)" d="m0 0 1 3-10 26-3 9-4-2 3-9 2-2-1-4 8-17z" fill="#FDFDFD"/>
<path transform="translate(1070,293)" d="m0 0h10l4 4-1 5-2 2-10 2-1-1z" fill="#F8F8F8"/>
<path transform="translate(515,222)" d="m0 0 23 3-2 3h-10l-10-4z" fill="#FDFDFD"/>
<path transform="translate(35,381)" d="m0 0 4 1-3 9-5 11-1-3 2-9 1-5z" fill="#FDFDFD"/>
</svg>
