<?xml version="1.0" encoding="UTF-8"?>
<svg version="1.1" viewBox="0 0 2048 1582" width="550" height="425" xmlns="http://www.w3.org/2000/svg">
<path transform="translate(0)" d="m0 0h2048v1582h-2048z" fill="#060406"/>
<path transform="translate(0)" d="m0 0h2048v1582h-2048zm910 39-57 1-95 3-94 5-53 4-66 7-50 7-29 5-14 5-15 9-9 7-13 12-13 16-13 19-15 24-9 16-10 18-13 24-14 26-27 54-11 23-15 32-13 28-14 31-8 18-3 8-1-4-1-11-4-8-10-9-15-7-21-5-8-1h-41l-28 4-27 6-19 6-20 8-10 6-7 8-2 6v14l3 16 5 15 8 16 9 10 9 6 18 6 24 5 45 7 36 4v2l-8 11-14 20-11 17-11 19-4 12-2 21-1 4-9 5-5 5-4 6-2 7v11l3 8 3 3-1 8-11 25-18 35-8 21-4 16-4 27-3 37-1 35-1 55-5 52-4 65-2 57-1 54v68l1 58 2 52 4 57 4 40 5 34 5 22 5 12 6 9 8 7 11 5 7 2 8 1h165l10-2 12-5 10-9 7-10 6-15 5-21 4-25 4-39 4-62v-3l64 16 53 15 27 6 20 3 25 2h20l29-3 23-5 24-8 26-10 7-1 81 9 45 4 49 3 56 2 42 1h187l80-3 58-4 72-7 38-4 15 7 17 8 21 7 23 4 17 1 20 10 4 1h19l11-4 13-8 25-4 30-8 31-10 34-9 41-9h3l3 55 4 41 5 33 5 20 8 18 8 10 11 7 12 4 8 1h161l15-2 12-5 8-6 6-7 5-11 5-19 5-31 4-37 3-40 3-66 1-54v-108l-1-60-3-73-3-37-3-29-1-15-1-68-3-43-4-31-6-25-8-20-14-29-8-16-7-16-1-6 5-5 3-5v-9l-4-11-6-8-11-8-3-14-2-14-5-11-10-18-10-15-19-28-3-5 43-5 39-6 28-6 16-6 9-6 8-10 8-16 4-12 3-14 1-16-3-9-7-8-17-9-19-7-28-7-24-4-20-2h-33l-21 3-15 5-13 7-7 7-4 9-2 16-2-3-10-23-17-38-12-26-16-33-9-20-8-16-8-15-10-21-10-19-13-24-14-25-16-27-15-24-13-18-14-15-13-10-15-9-14-6-36-6-56-7-70-7-57-4-83-4-114-3-75-1z" fill="#FEFDFD"/>
<path transform="translate(919,121)" d="m0 0h207l78 2 86 3 87 5 79 6 61 6 68 9 13 3 3 3 16 39 13 31 27 68 13 35 12 34 10 30 13 44 1 9h-13l-55-3-107-4-101-3-156-3-84-1h-365l-250 5-113 4-84 4-33 2h-11l1-9 12-41 14-43 17-45 15-39 12-30 13-33 14-34 8-19 5-2 32-5 68-8 54-5 67-5 73-4 78-3 60-2z" fill="#FEFDFD"/>
<path transform="translate(152,844)" d="m0 0h1l7 48 5 23 6 18 7 14 9 10 7 6 15 7 23 5 27 3 70 4 116 4 82 2 113 2 176 2h372l210-2 216-5 89-3 63-3 34-3 20-3 15-4 14-7 9-8 7-11 7-16 6-22 6-35 3-23 2 2 12 45 7 19 13 4 43 9 2 2-2 51-6 82-5 51-8 64-2 6-3-3-5-9-8-11-8-10-4-4v-2l-4-2-10-8-12-5-13-2-27-1h-93l-67 1-211 2-161 1-214 1h-175l-259-1-130-1-344-4-38 1-14 4-11 7-9 9-10 13-11 16-4 8h2l2-4 11-15 9-12 9-10 9-7 14-5 26-2h8l-5 5-11 8-16 16-6 9-1 4 16-2 40-1h224l7-3 19-19 8-10 4-4 221 2h612l156-1h117l8 10 10 11 7 8 7 5 4 1h262l17 1 3 1-3-7-8-10-6-7-8-7-10-8v-1l21 1 12 2 14 7 13 12 9 11 11 15 5 7-84 2-122 2-85 1-268 2-177 1h-380l-200-1-280-2-105-2-77-1-66-1-2-5-7-51-4-39-4-50-4-65-1-24v-24l35-7 22-5 4-10 10-38 5-20z" fill="#FEFDFD"/>
<path transform="translate(96,1186)" d="m0 0 31 1 247 4 545 3h243l564-4 100-2 75-1 42-1-2 14-6 27-6 21-10 25-13 24-11 16-9 11-10 10-3 1h-165l-130 2-83 1-58 1-107 1-182 1h-307l-119-1-239-3-116-2h-200l-9-6-12-14-10-14-9-15-12-25-7-19-7-26-5-28z" fill="#FEFDFD"/>
<path transform="translate(914,491)" d="m0 0h234l55 1 33 1 106 2 35 1 95 4 59 3 57 4 74 7 18 2 2 1-2 10-21 81-10 39-2 3h-38l-150-1h-804l-171 1h-92l-5-17-10-39-20-74 1-4 65-6 54-4 64-4 60-3 70-3 72-2 90-2z" fill="#FEFDFD"/>
<path transform="translate(672,656)" d="m0 0h621l76 1 8 6 10 9 11 9 13 11 22 18 14 12 11 9 13 11 11 9 11 10 11 9 15 13 14 12 12 11 11 9 10 9 11 9 8 7 3 2-1 3-321 2h-481l-298-2-36-1 4-4 10-8 28-24 8-7 10-9 11-9 10-9 11-9 14-12 10-9 11-9 10-9 11-9 14-12 11-9 14-12 11-9 21-18z" fill="#FEFDFD"/>
<path transform="translate(332,1240)" d="m0 0h163l209 1h676l138-1h193l21 3 16 6 11 6 11 9 8 9 7 11 8 16 5 13v4l-62 2-107 3-86 1-111 2-79 1-142 1h-308l-164-1-161-2-180-3-158-4 6-16 10-19 10-13 5-6 12-9 14-7 19-5z" fill="#FEFDFD"/>
<path transform="translate(157,838)" d="m0 0 47 4 51 3 57 2 119 3 7 1 8 26 9 27 8 16 7 9 8 8 14 8 16 5 18 3 21 2 92 3 137 2 111 1h299l152-2 121-3 37-2 23-2 24-5 14-6 12-9 8-10 8-16 7-18 8-30 3-8 88-2 82-3 54-3 46-3h11v11l-5 35-6 29-5 16-5 12-8 11-9 8-13 6-15 4-24 3-30 2-93 4-96 3-168 4-339 3h-103l-153-1-174-2-152-3-82-2-93-4-64-4-24-3-15-4-10-5-9-7-8-9-8-15-5-16-6-28-5-34-1-14z" fill="#FEFDFD"/>
<path transform="translate(448,849)" d="m0 0h154l270 1h323l255-1h143l-3 10-8 18-9 17-8 12-7 8-10 7-10 5-17 4-35 3-44 2-33 1-92 2-34 1-105 1h-309l-92-1-135-3-65-2-47-3-22-4-12-5-10-6-10-10-9-13-9-17-8-19z" fill="#FEFDFD"/>
<path transform="translate(734,682)" d="m0 0h572l1 1v120l-3 1h-567l-3-1-1-2v-118z" fill="#FEFDFD"/>
<path transform="translate(949,48)" d="m0 0h135l123 2 86 3 74 4 65 5 50 5 40 5 20 3 4 2 5 12 16 36 7 15v2l-68-8-67-6-54-4-68-4-69-3-93-3-90-1h-100l-72 1-96 3-71 3-85 5-85 7-63 7-22 3h-5l2-6 11-25 15-35 17-3 45-6 49-5 50-4 69-4 70-3 35-1z" fill="#FEFDFD"/>
<path transform="translate(861,441)" d="m0 0h328l176 3 152 4 129 5 59 3 6 2-1 10-8 18-13 21-4 6-14-1-36-4-65-5-43-3-73-4-78-3-178-4-100-1h-137l-112 1-111 2-71 2-93 4-83 5-57 4-56 5-23 3-10-16-11-21-4-12v-7l7-1 76-4 93-4 135-4 155-3z" fill="#FEFDFD"/>
<path transform="translate(1971 1e3)" d="m0 0 2 3 3 59 2 64v152l-3 86-3 49-5 46-6 36-5 16-6 9-8 7-11 4-7 1h-167l-12-3-8-4-7-7-6-10-5-15-5-27-5-37-3-35-1-17v-33l6-1 24-1 1 1-1 24-4 51-5 35-3 15h2l4-18 4-29 4-50 2-28 1-1 17-1 114-1 8-2 9-7 7-7 10-13 10-16 12-23 8-20 7-21 6-26 6-35 7-60 6-59z" fill="#FEFDFD"/>
<path transform="translate(69 1e3)" d="m0 0h1l2 36 4 51 6 59 6 45 5 26 8 28 9 24 9 19 13 21 9 12 10 11v2l4 2 6 5 8 2 132 1 1 1 2 46 3 37 5 35 3 8 2 1-3-12-5-38-3-35-2-42h31l1 1-1 29-4 54-5 38-5 26-5 17-6 11-9 8-12 5-6 1h-168l-12-3-8-5-7-7-6-12-4-15-5-31-5-46-3-43-3-73-1-46v-71l1-63 3-71 3-42z" fill="#FEFDFD"/>
<path transform="translate(1574,81)" d="m0 0 12 5 12 7 13 10 10 10 15 20 10 16 17 28 14 25 14 26 15 28 18 35 11 22 11 23 16 34 16 36 13 30 15 34 8 18 8 15 13 20 11 16 13 18 19 28 11 17 5 11-1 5-7 6-5 3-2 4 14-9 3-1 3 12 5 27 8 28 10 25 8 16 14 27 9 23 5 20 5 37 2 24 1 21v42l-11-2-31-6-13-3-5-10-8-28-7-27-3-9-1-10-2-51-3-46-5-51-5-37-2-10-5-10-12-13-7-7-8-7-16-13-20-15-21-14-18-11-27-14-24-9-19-5v-4l11-19 9-19 5-18 9-5 2-2v-10l-7-24-9-28-12-33-6-17-17-44-13-31-15-35-22-48-8-17-9-15-3-2 15 28 15 33 13 29 15 35 14 34 18 47 15 43 11 36 3 12v7l-5 4-4 1-3-6-7-26-15-47-19-53-17-45-17-43-14-35-12-29-10-22-2-11-10-19-8-16-8-15z" fill="#FEFDFD"/>
<path transform="translate(464,81)" d="m0 0h2l-1 5-8 14-12 23-8 19-14 35-13 31-13 33-17 44-18 48-15 41-13 41-7 28-3 11-7-5-1-2v-12l8-30 15-46 9-24 17-43 12-29 12-28 17-38 12-26 10-21 3-3-4 1-15 30-15 33-15 34-15 36-20 51-15 41-11 35-6 24-1 5v9l3 5 5 4h2l2 15 7 17 8 14 6 11v2l-33 11-29 14-18 10-23 15-16 11-18 14-13 11-8 7-13 13-4 6-5 16-6 47-3 31-4 71-1 36-3 14-8 30-10 38-2 3-29 6-23 5-4-1v-40l2-36 3-29 4-23 6-21 8-18 12-23 8-16 8-20 7-21 6-26 3-17 1-10h3l13 9 5 1-5-5-10-7-4-2 1-5 9-17 22-32 13-18 10-14 12-18 10-17 8-16 17-38 12-27 13-29 8-18 8-16 7-16 8-16 12-25 10-21 10-19 13-25 12-22 15-27 13-22 14-22 13-18 15-16 13-11 14-8z" fill="#FEFDFD"/>
<path transform="translate(1691,518)" d="m0 0 11 2 27 9 25 12 19 11 15 10 17 12 16 12 13 11 10 9 12 11 7 8 5 9 4 27 4 34 4 46 3 50 1 40-5 1-85 5-70 3-61 2-58 1 1-8 11-40 12-44 10-36 1-2 164-2h5l1 1-1 9-6 20-4 6-9 5-16 3-100 10-27 3-9 2-4 11-8 28-3 9 24-4 99-12 50-7 26-5 13-5 4-8 4-20 4-28 4-40 2-28v-19l-3-10-4-5v-2l-4-2-9-8-18-12-25-13-18-6-36-8-31-5-26-3-1-5 12-44z" fill="#FEFDFD"/>
<path transform="translate(345,518)" d="m0 0 5 1 6 21 6 25v3l-41 5-24 4-25 6-16 5-12 5-20 10-21 14-12 10-4 7v37l5 53 4 31 4 20 4 9 12 5 17 4 39 6 100 13 46 7-8-25-7-21-1-4-37-4-82-8-27-4-11-4-6-5-5-11-5-20v-2h21l65 1 85 2 3 8 15 55 17 60 1 5h-62l-116-4-67-4-34-3-1-1v-18l4-76 3-36 6-54 3-14 6-10 10-11 8-7 9-8 14-11 17-13 23-15 25-15 25-12 25-9z" fill="#FEFDFD"/>
<path transform="translate(351,1343)" d="m0 0 115 2 277 3h574l114-1h25l1 4v19l3 12 1 3-3 1-26-3-19-5-16-7-20-10-8-1-103 10-58 4-68 3-30 1h-187l-84-3-57-4-63-6-54-6h-8l-19 7-21 8-26 7-25 4-16 1h-15l-26-2-24-4-25-6-53-15-32-8-27-6z" fill="#FEFDFD"/>
<path transform="translate(658,656)" d="m0 0h6l-2 4-12 11-11 9-11 10-10 8-15 13-11 9-10 9-10 8-15 13-13 11-11 9-11 10-11 9-12 11-11 9-10 9-11 9-13 11-6 5-4-2-20-70-13-47-16-64v-2l64-1z" fill="#FEFDFD"/>
<path transform="translate(1375,657)" d="m0 0h230l40 1-4 17-10 40-8 30-12 44-14 52-2 3-4-2-13-12-8-7-10-9-11-9-12-11-11-9-11-10-11-9-10-9-8-7-17-14-13-11-11-9-13-11-10-8-14-12-11-9-10-9-12-9z" fill="#FEFDFD"/>
<path transform="translate(360,571)" d="m0 0 4 2 19 72 1 6-3 1-48 3-83 5-20 2-6 2-2 4v20l2 18 4 19 6 16 5 8 10 5 20 4 35 4 93 9 4 4 13 38v2l-11-1-57-8-75-10-39-6-21-5-6-5-4-12-4-25-6-58-2-29v-20l6-9 16-13 15-9 12-7 25-10 22-6 28-5 29-4z" fill="#FEFDFD"/>
<path transform="translate(1677,571)" d="m0 0h8l47 7 33 7 17 5 18 8 16 9 12 8 10 8 9 9 3 7v26l-5 53-6 45-3 15-4 6-12 4-35 6-95 12-48 6-10 2h-4l1-7 9-32 3-3 13-2 120-12 18-4 9-5 5-7 5-16 4-19 3-26v-12l-3-6-11-2-57-4-82-4-9-1-1-2 7-25 11-41z" fill="#FEFDFD"/>
<path transform="translate(1875,405)" d="m0 0h19l24 2 30 5 21 6 17 6 16 8 6 7 1 9-3 18-6 18-7 13-6 7-14 7-21 5-49 8-42 5h-11l-12-17-11-18-9-17-5-13 1-7 1-19 2-11 4-6 8-6 13-5 19-4z" fill="#FEFDFD"/>
<path transform="translate(144,405)" d="m0 0h25l18 2 19 5 11 6 6 5 3 6 1 6v27l-8 20-9 17-10 16-10 14-4 1-51-6-44-7-22-5-10-4-10-9-8-14-6-18-2-10v-17l5-6 14-8 25-9 22-6 31-5z" fill="#FEFDFD"/>
<path transform="translate(447,868)" d="m0 0 2 2 9 22 9 14 12 13 11 8 16 7 19 4 18 2 45 2 66 2 53 1 171 2h285l178-2 58-1 61-2 37-2 25-3 19-5 14-7 13-11 10-13 9-17 6-14 1 4-8 24-7 15-7 12-9 9-14 8-16 5-22 3-27 2-53 2-78 2-132 2h-388l-179-2-90-3-31-2-22-3-17-5-11-6-10-9-8-10-8-16-10-30z" fill="#FEFDFD"/>
<path transform="translate(334,1236)" d="m0 0h146l435 2h101l520-2h170l20 2 16 4 16 8 9 6 7 6 11 14 12 22 5 14 2 8-1 1-122 3-96 2-187 3-110 1h-491l-215-2-212-4-71-2-64-1 2-9 6-15 11-20 11-13 7-7 14-9 11-5 14-4 11-2zm-2 4-21 3-16 5-14 7-12 10-11 14-8 14-7 15-3 9 158 4 341 5 164 1h308l142-1 141-2 49-1 86-1 144-4 25-1-1-7-8-19-8-14-11-13-11-9-15-8-16-5-17-2h-193l-138 1h-676l-209-1z" fill="#060406"/>
<path transform="translate(1770,1128)" d="m0 0h70l10 2 10 7 13 11 7 7 4 5v3h-273l-6-2-6-5-7-8-12-14-1-4h23l100-1z" fill="#FEFDFD"/>
<path transform="translate(198,1128)" d="m0 0h86l138 2 37 1-3 5-11 12-12 13-2 1-59 1h-182l-35 1 3-5 15-15 9-8 12-7z" fill="#FEFDFD"/>
<path transform="translate(382,656)" d="m0 0 4 1 12 45 1 8-126-2-44-1-2-3-2-21v-14l2-4 7-1 132-7z" fill="#FEFDFD"/>
<path transform="translate(1654,656)" d="m0 0 87 4 62 4 10 2 2 3-1 22-2 15-1 1-59 1-111 1 4-17 8-33z" fill="#FEFDFD"/>
<path transform="translate(736,678)" d="m0 0h571l3 2 1 4v119l-1 3-6 2h-566l-6-2-3-5-1-26v-45l1-45 2-6zm-2 4-1 1v118l1 2 3 1h567l3-1v-120l-1-1z" fill="#060406"/>
<path transform="translate(1015,532)" d="m0 0h12l11 4 8 6 7 11 3 12v12l-2 10-6 10-8 7-9 4-5 1h-11l-10-3-8-5-7-7-6-12-1-4v-14l3-10 8-11 9-7z" fill="#FEFDFD"/>
<path transform="translate(1018,521)" d="m0 0h8l14 3 11 6 11 11 7 14 2 9v15l-3 12-7 12-6 7-10 7-9 4-9 2h-10l-12-2-12-5-9-7-6-7-8-16-1-4v-22l4-11 7-11 9-8 13-6 7-2zm-3 11-12 4-9 7-6 8-4 8-1 5v14l4 11 6 8 8 7 9 4 5 1h11l10-3 9-6 7-9 3-7 1-7v-12l-3-12-7-11-8-6-11-4z" fill="#FEFDFD"/>
<path transform="translate(1670,1343)" d="m0 0h25v2l-47 10-31 8-37 12-28 7-17 3 3-15v-24z" fill="#FEFDFD"/>
<path transform="translate(1549,77)" d="m0 0 9 1 11 3 5 8 9 16 15 29 4 10v2l-14-1-9-2-5-7-11-26-13-31z" fill="#FEFDFD"/>
<path transform="translate(486,77)" d="m0 0h4l-2 6-7 16-16 39-3 5-9 2-15 1 2-6 12-25 12-22 7-12z" fill="#FEFDFD"/>
<path transform="translate(1018,521)" d="m0 0h8l14 3 11 6 11 11 7 14 2 9v15l-3 12-7 12-6 7-10 7-9 4-9 2h-10l-12-2-12-5-9-7-6-7-8-16-1-4v-22l4-11 7-11 9-8 13-6 7-2zm-6 4-13 4-11 7-9 10-5 10-1 4v21l4 11 6 10 9 9 14 7 5 1h18l11-4 9-6 5-4 7-10 5-12 1-5v-12l-3-12-6-11-6-7-9-6-9-4-4-1z" fill="#060406"/>
<path transform="translate(1607,142)" d="m0 0 6 5 9 16 11 23 11 24 18 41 21 51 16 42 16 44 12 39 3 11v10l-6 5-2-1 4-4v-7l-7-26-12-36-11-32-17-44-12-29-12-28-13-30-16-35-9-19-10-18z" fill="#060406"/>
<path transform="translate(1012,529)" d="m0 0h18l9 4 6 4 8 8 4 8 2 7v22l-5 13-8 9-8 5-9 3h-17l-11-4-6-4-7-6-7-11-2-7v-18l4-11 6-9 8-7 11-5zm3 3-12 4-9 7-6 8-4 8-1 5v14l4 11 6 8 8 7 9 4 5 1h11l10-3 9-6 7-9 3-7 1-7v-12l-3-12-7-11-8-6-11-4z" fill="#060406"/>
<path transform="translate(1475,1345)" d="m0 0h2l-2 4-4 5-1 4v14l5 10 7 6 7 3 5 1h9l10-4 5-4 5-8 2-11-2-10-5-8v-2l10 1 3 4 1 5v18l-4 9-7 8-11 7-8 2h-9l-9-2-8-5-6-5-5-9-2-7v-16l3-7z" fill="#FEFDFD"/>
<path transform="translate(1911,655)" d="m0 0 4 1 5 5 3 7v10l-2 4-4-2-5-17z" fill="#FEFDFD"/>
<path transform="translate(127,655)" d="m0 0h1l-1 10-4 16-1 2-4-1-1-4v-7l3-9 5-6z" fill="#FEFDFD"/>
</svg>
