<?xml version="1.0" encoding="UTF-8"?>
<svg version="1.1" viewBox="0 0 2048 1339" width="529" height="346" xmlns="http://www.w3.org/2000/svg">
<path transform="translate(0)" d="m0 0h2048v1339h-2048z" fill="#1F1F1F"/>
<path transform="translate(125,31)" d="m0 0h1678l1 3v658h10l5 6 14 23 18 27 14 22 14 21 2 4-1 4-22 33-15 23-16 25-8 13-4 5-3 1h-8v291l-1 98-9 1-21-1h-28l-75 1-14 8-15 10-20 13-19 12-3 2h-13l-18-11-27-18-17-11-12-6h-1387l-1-368-28-1v-4h22l41-1 1 5-29 1-1 8-1 355 473-1-5-5-17-16-19-19-8-7-8-8-8-7-15-14-16-15-11-11-8-7-13-13-8-7-10-10-8-7-42-42-7-8-9-9v-2h-2l-7-8-16-17-14-15-9-11-7-7-7-8-13-15-24-28-9-11-6-8-3-5 1-2h2l11 14 13 15 11 13 7 8 12 14 13 15 13 14 7 8 14 15 11 12 7 7 7 8 65 65 2 1v2l4 2 18 18 8 7 9 9 8 7 8 8 8 7 9 9 8 7 7 7 8 7 10 10 8 7 26 26 4 1h142l19-1-10-17-17-28-9-16-13-22-26-42-10-14-11-16-14-19-12-15-9-12-13-17-12-15-11-14-13-16-10-13-13-16-8-10-13-16-9-11-26-32-18-22-11-13-8-10-28-34-11-13-11-14-10-11-8-10-22-26-9-11-10-12-1-5h3l7 8 6-1 21-9 26-12 21-11 10-7 14-14 12-16 10-15 9-13 12-19 2-2 1 3-3 8-7 10-17 25-9 12-11 14-4 4 1 5 4 2 7 8 21 21 7 8 30 32 9 10 12 13 9 11 14 15 11 14 11 13 9 13 10 15 12 20 12 21 15 25 14 25 10 18 13 22 11 21 2 4 6-34 6-43 2-2 2 3v8l-6 39-7 40-3 14 7-3 120-34 35-9 24-5 60-9 30-4h5v-36l5-57 3-21-21 6-78 20-132 36-32 9-4-1 1-3 59-16 85-23 57-15 69-18 36-8 37-6 27-3 16-1h19l21 2 16 3 2 1-9-30-2-9 4-1 7 24 4 16 8 5 10 7 7 7 9 14 12 23 11 25 15 39 1 2h40l140-2 11-1-2-6-7-9-9-12-3-6-2-23-31-1-9-3-18-11-14-9-6-12-6-17-9-13-14-18-13-17-12-16-1-1h-27l-42 2h-16v-1h15v-2h-8v-1l73-4h2l-3-17-25-25-22-28-10-14-7-14-2-7-2-16-7-39-4-36-3-30-4-20-5-11-7-12-10-17-8-13-2-4 1 23 6 94v15l-2-1-2 2-5-84-3-54-6-17-3-9-2-13-1-37 1-13 3-3 1-10v-18l-1-3h-164l-43-1-41-3-50-6-69-10-38-6-9-1-2 11-7 31-5 34-1 13h-1l-1-8h-2v12l-3-4-16-25-10-16-12-17-13-19-9-12-4-6h2v-2l5 1 41 21 20 10 5 3h2l8-35 18-79 10-43 5-21 4-9 6-5 19-5 56-12 62-12 38-7 23-3 31-2h69l43 3 20 3 6 4 6 9 5 12 2 10 1 16v198l-1 5 10-6 4-2-3-9v-21l5-28 5-18 7-16 9-17 10-14 7-7 15-8 6-2-1-3 4-48 3-17 5-10 10-10 11-7 8-4 8-2h31l52 5 48 6 36 6 17 4 21 8 25 12 28 17 3 2 10-2 29-8 28-6 19-2h40l26 2 27 4 20 5 16 6 14 9 7 7 8 14 7 21 1 4v-69l-1-82v-85h-1525l-4 1 54 14 32 10 20 8 33 16 16 8 21 11 16 8 28 15 18 10 5 6v6l-8 7-27 14-22 12-29 15-22 12-18 10-16 8-32 17-19 10h-2l7 13 6 2 17-2h27l25 3 31 6 21 6 2 3-9-1-30-7-26-4-10-1h-36l-12 1 3 10 9 20 7 15 5 13 1 1 26 4 20 6 24 12 17 11 21 12 7 3 11 3v3l-9-1-13-5-13-7-18-12-24-13-13-5-16-4-6-1h-11l26 8 18 8 13 8 14 11 20 18 9 10 10 10 7 8 11 13 9 11 11 13 13 17 15 20 13 17 11 15 14 19 21 28 13 18 15 24 12 18 3 5h-2l4 10 9 17 9 20 17 36 11 26 9 21 3 6 5 14v5l-10 6-10 8-5 3-3-1-6-10-4-10-8-18-9-20-13-28-13-27-11-23-14-27-13-23-7-11-12-17-10-14-8-12-9-12-7-10-12-17-6-8-13-18-12-16-13-16-11-14-8-10-11-12-9-11-12-13-13-13-8-7-15-12-25-14-3-1-2 5-8 7-16 6h-2l1-4 13-5 5-3h2l4-8v-11l-4-16-9-22-16-34-9-16-13-19-14-19-14-15-12-9-15-7-27-9-24-5-37-5-30-3-1 232h-1l-1-223h-2v269h-1v-276z" fill="#212121"/>
<path transform="translate(0)" d="m0 0h2048v1339h-2048zm125 31-1 146v534l-29 1-4 4-14 22-11 17-10 15-10 16-18 27v5l18 27 22 34 16 25 8 13 4 2 28 1 1 368h1387l14 7 27 18 20 13 13 8h13l19-12 26-17 17-11 9-5 75-1h28l23 1 7-1 1-98v-291h8l5-3 13-21 13-20 11-17 22-33 5-7-1-5-10-16-12-18-14-22-14-21-13-21-3-3h-10v-660l-1-1z" fill="#FEFEFE"/>
<path transform="translate(130,170)" d="m0 0 38 4 35 5 25 6 25 9 13 7 10 8 9 9 11 14 13 18 11 17 12 23 14 31 7 19 2 10v11l-5 8-14 7-6 1-2 5-7 1 9 11 11 12 8 10 24 28 9 11 11 13 9 11 11 13 9 11 12 14 9 11 11 13 11 14 9 11 26 32 11 14 14 18 14 19 10 14 18 27 10 16 12 19 7 11 15 24 8 13 15 25 15 24 13 22 17 28 16 27 13 22 10 17 10 15 1 1 1-6-7-20-13-30-13-31-15-35-2-7-4 2h-4l-8-16-5-11v-6l4 1 4 12 5 11 2 4 3 1 2-5 12-7 13-9 8-5h2l-2-8-6-11-4-7h-7l2-5 5-1 4 4 13 25-1 5-6 4-3 1 6 15 7 15 6 20 6 14 6 16 5 12 1 6 6-15 5-14 3-1-1 8-12 36-10 29-4 11h5l-1 2 10-2 54-15 63-17 52-14 77-20 10-2-1 11-5 53-1 14-1 36-26 4-50 7-35 6-32 8-43 12-49 14-34 10-12 3 1-9 7-38 6-41 1-8h-1l-1-6-8 56-4 21-2 1-8-16-10-19-13-22-12-22-14-24-16-27-11-19-14-22-9-12-8-10-13-16-9-10-26-30-9-9-7-8-29-31-11-12-19-19-6-7 2-4 7-8 13-17 17-25 8-12 3-5 1-5-4 5-11 17-9 13-8 12-14 18-15 15-15 9-24 12-34 15-5 2-5-1-6-6v-2h-3l3 6 9 11 12 14 9 11 13 15 8 10 12 14 9 11 11 13 8 10 14 17 9 11 11 13 11 14 12 14 11 14 14 17 9 11 13 16 11 14 13 16 11 14 20 25 13 17 11 14 6 8 14 18 12 16 11 16 13 19 12 19 14 23 10 17 17 29 18 30 3 6-20 1h-142l-5-2-31-31-8-7-10-10-8-7-7-7-8-7-9-9-8-7-8-8-8-7-9-9-8-7-14-14-2-1v-2l-4-2-70-70-7-8-9-9-7-8-15-16-9-10-7-8-9-10-9-11-12-13-9-11-12-14-13-16-3-2 5 9 12 14 9 11 12 14 13 15 7 8 12 13 9 11 7 7 7 8 8 8 7 8 6 6v2h2l7 8 9 9 7 8 41 41 8 7 10 10 8 7 13 13 8 7 14 14 8 7 8 8 8 7 15 14 16 15 19 19 8 7 3 3v2l3 1v1l-472 1-2-1v-355l1-8 1-1 26-1 2-1-1-2-40 1h-21v2l-5-1-11-18-13-20-9-14-13-20-18-27v-5l10-15 11-17 7-11 10-15 11-17 14-22 4-4 29-1v-252l1-279 3-1 1-8z" fill="#1E1E1E"/>
<path transform="translate(272,34)" d="m0 0h1523l2 1 2 167v73l-2-4-7-23-7-13-9-10-13-8-16-6-25-6-22-3-26-2h-40l-19 2-28 6-29 8-10 2-23-14-16-9-17-8-21-8-17-4-36-6-48-6-52-5h-31l-13 4-11 7-10 9-6 9-3 12-3 32-2 27-21 11-7 7-10 15-12 23-5 14-6 27-2 13v21l3 9-5 3-8 5h-2v-203l-1-16-3-12-5-12-6-8-8-3-27-3-32-2h-69l-31 2-29 4-79 15-57 12-30 7-6 3-4 5-4 13-10 45-10 43-15 66-4 17-3 1-27-14-24-12-19-10-8-4-15-16-10-9v-1l29-1 10-4 8-9 6-12 6-17 1-12 5-30-1-7-4-6-4-2h-8l-30 10-26 10-22 10-6-1-9-4-15-5-29-6-19-1-26 5-20 6-16 8-9 7-1 5 4 17 3 7-9-2-24-6-28-5-19-2h-27l-19 2-5-3-6-11v-2l20-10 22-12 23-12 22-12 34-18 23-12 22-12 21-11 7-6v-6l-5-6-27-14-22-12-17-9-54-27-18-8-28-10-36-10-39-10v-1z" fill="#FEFEFE"/>
<path transform="translate(1351,490)" d="m0 0 6 1 22 13 13 8 23 13 27 15 22 11 23 9 23 7 29 7 75 16 76 15 64 12 42 8 1 1v66h-52l13 22 10 15 12 19 15 22 2 5v41l-5 10-8 12-32 49-5 8v3l50 1v385h-10l-31-4-26-6-26-8-8-5v-59l-9 5-20 13-15 10h-4l-10-11-11-14-9-10-22-28-14-17-7-9-11-14-9-11-10-13-13-16-13-17-12-15-13-17-12-15-10-13-11-14-14-18-12-15-3-5-1-9-4-102-3-59-3-40-6-33-9-36-5-16-5-14-9-17-7-10-10-15-16-23-12-18-5-10-1-4v-19l4-18 5-17 3-6z" fill="#FEFEFE"/>
<path transform="translate(131,455)" d="m0 0 5 4 11 14 11 13 11 14 14 17 8 10 13 16 11 14 11 13 11 14 11 13 11 14 14 17 13 16 11 14 12 14 11 14 13 16 7 8 11 13 9 11 11 13 8 10 12 14 9 11 13 15 8 10 12 14 9 11 11 13 8 10 14 17 9 11 11 13 11 14 12 14 11 14 14 17 9 11 13 16 11 14 13 16 11 14 20 25 13 17 11 14 6 8 14 18 12 16 11 16 13 19 12 19 14 23 10 17 17 29 18 30 3 6-20 1h-142l-5-2-31-31-8-7-10-10-8-7-7-7-8-7-9-9-8-7-8-8-8-7-9-9-8-7-14-14-2-1v-2l-4-2-70-70-7-8-9-9-7-8-15-16-9-10-7-8-9-10-9-11-12-13-9-11-12-14-13-16-11-13-8-10-11-13-8-10-13-16-14-17-11-14-26-32-11-14-9-11-10-12-11-14-2-2 1-5 8-12 7-11 13-20 2-5h-32l-1-1v-208z" fill="#FEFEFE"/>
<path transform="translate(125,31)" d="m0 0h1678l1 3v658h10l5 6 14 23 18 27 14 22 14 21 2 4-1 4-22 33-15 23-16 25-8 13-4 5-3 1h-8l4-2 1-2 5-2 8-13 15-24 15-23 18-27 5-8-1-6-10-16-10-15-13-20-11-17-12-19-5-8-2-1-17-1-1-2 3-1v-66l-31-6-2-1v-2h10l24 5-1-11-7-3v-3l9 1 1-133v-46l-1 5-3-1 3-51v-78l-2-20-6-24-7-16-8-11-7-6-16-8-16-5-25-5-40-4h-33l-21 2-34 7-32 9-25 10-15 8-10 9h-2l-2 4-7 7-11 14-11 15-13 20-12 21-9 19-7 21-4 13-3-1 1-5-25 3-60 5h-6l-4 18-4 10-6 8-6 5-7 3-5 1-25 1 39 12 37 11 16 6 10 7 4 6-4 1-2-1 1-3-20-10-26-8-31-9-43-14-33-8-21-6-16-8-5-4-6 2-9 5v-4l8-5 4-2-3-9v-21l5-28 5-18 7-16 9-17 10-14 7-7 15-8 6-2-1-3 4-48 3-17 5-10 10-10 11-7 8-4 8-2h31l52 5 48 6 36 6 17 4 21 8 25 12 28 17 3 2 10-2 29-8 28-6 19-2h40l26 2 27 4 20 5 16 6 14 9 7 7 8 14 7 21 1 4v-69l-1-82v-85h-1525l-4 1 54 14 32 10 20 8 33 16 16 8 21 11 16 8 28 15 18 10 5 6v6l-8 7-27 14-22 12-29 15-22 12-18 10-16 8-32 17-19 10h-2l7 13 6 2 17-2h27l25 3 31 6 21 6 2 3-9-1-30-7-26-4-10-1h-36l-12 1 3 10 9 20 7 15 5 13 1 1 26 4 20 6 24 12 17 11 21 12 7 3 11 3v3l-9-1-13-5-13-7-18-12-24-13-13-5-16-4-6-1h-11l26 8 18 8 13 8 14 11 20 18 9 10 10 10 7 8 11 13 9 11 11 13 13 17 15 20 13 17 11 15 14 19 21 28 13 18 15 24 12 18 3 5h-2l4 10 9 17 9 20 17 36 11 26 9 21 3 6 5 14v5l-10 6-10 8-5 3-3-1-6-10-4-10-8-18-9-20-13-28-13-27-11-23-14-27-13-23-7-11-12-17-10-14-8-12-9-12-7-10-12-17-6-8-13-18-12-16-13-16-11-14-8-10-11-12-9-11-12-13-13-13-8-7-15-12-25-14-3-1-2 5-8 7-16 6h-2l1-4 13-5 5-3h2l4-8v-11l-4-16-9-22-16-34-9-16-13-19-14-19-14-15-12-9-15-7-27-9-24-5-37-5-30-3-1 232h-1l-1-223h-2v269h-1v-276z" fill="#181818"/>
<path transform="translate(1638,202)" d="m0 0h33l40 4 25 5 16 5 16 8 10 9 7 11 6 14 6 24 2 20v78l-3 39-3 23-6 30-7 26-6 18-6 13-5 10-7 10-8 8-10 6-15 5-21 3-11 1h-31l-36-3-37-5-58-10-38-9-30-10-21-9-10-6-10-9-6-8-4-10-2-12v-24l3-26 6-29 7-26 7-22 5-13 13-25 12-19 11-16 10-13 11-13 6-7 11-9 14-8 21-9 23-7 28-7 21-4z" fill="#FEFEFE"/>
<path transform="translate(129,768)" d="m0 0h2l9 11 26 32 11 14 9 11 26 32 11 14 8 10 12 14 9 11 14 17 11 13 8 10 11 13 9 11 9 10 9 11 11 12 9 10 12 14 30 32 3 3v2h2l7 8 9 9 7 8 41 41 8 7 10 10 8 7 13 13 8 7 14 14 8 7 8 8 8 7 15 14 16 15 19 19 8 7 3 3v2l3 1v1l-472 1-2-1v-355l1-8 1-1 31-1-3-8-9-13-11-17-8-13-2-5z" fill="#FEFEFE"/>
<path transform="translate(742,352)" d="m0 0h9l72 11 50 7 45 5 31 2 43 1h164l2 4v20l-1 8-3 3-1 15 1 35 3 17 7 18 1 4 4 72 4 66v10l-3 9-5 6-11 7-12 5-23 6-11 1-10-16-9-11-8-7-12-6-10-8-16-10-12-6-9-3-6-1h-21l-30 3-30 4-41 8-25 7-10 7-17 16-14 14-6 7h-2l-11-33-3-12-4-12v-5l6-4-2-6-8-16-3-1 1 4 5 8 3 6 2 1-1 3-10 5-17 9-6 3-1-4 4-6-3-1-2-6 4 2 3 5 4-2 10-7 4-3-2-9-2-6-3-8-28-74-7-15-9-19-9-15-8-13-1-2 1-21 5-34 9-39z" fill="#FEFEFE"/>
<path transform="translate(1034,149)" d="m0 0h20l34 1 31 2 22 3 5 3 6 9 5 13 1 4 1 16v174l-5 1-63 1h-89l-43-1-36-2-39-4-59-8-82-13 1-10 23-101 8-35 4-8 5-4 19-5 76-16 47-9 49-8 25-2z" fill="#FEFEFE"/>
<path transform="translate(1452,991)" d="m0 0 3 1 10 14 13 16 13 17 44 56 12 15 13 17 14 17 22 28 11 13 10 13 13 15 9 11 8 8-5 4-41 27-7 5-6-2-27-18-40-26-23-15-5-3-4-1v66l5 5 14 9v1h-214l-7-1 1-5 7-21 5-25 3-29v-44l-3-26-4-18-6-18-4-11-9-27-8-28-9-30 1-4 156-2h22l13-1z" fill="#FEFEFE"/>
<path transform="translate(313,385)" d="m0 0 5 1 14 15 11 14 10 11 9 11 13 15 13 16 12 14 9 11 12 14 9 11 11 13 8 10 14 17 11 14 11 13 11 14 13 16 8 10 2 3-1 5-11 17-11 16-8 12-14 18-15 15-15 9-24 12-34 15-5 2-5-1-11-12-8-10-11-13-13-16-9-10-10-13-10-12-8-10-14-17-11-14-11-13-11-14-14-17-8-10-13-16-9-11-39-48-9-11-8-10-18-22-2-4v-31l5-2 47-8 79-13 32-4z" fill="#FEFEFE"/>
<path transform="translate(1229,1081)" d="m0 0h31l12 3 9 5 6 9 5 12 5 20 3 22v55l-4 33-6 26-6 16-1 1-13 1h-19l-4-4-7-17-9-15-11-12-9-5-9-3-18-3h-42l-40 4-40 6-65 12-85 17-50 9-42 8-14 3h-28l-9-16-12-20-14-24-10-17-3-5v-4l24-8 41-12 55-16 57-15 53-13 55-12 59-12 46-10 68-13 32-5z" fill="#FEFEFE"/>
<path transform="translate(1072,727)" d="m0 0h46l6 5 8 14 12 23 11 20 10 25 9 30 7 24v3l-25-4-14-1h-19l-36 3-38 6-33 7-52 13-91 24-77 21-59 16h-4l1-7 5-12 13-40 17-48 7-24 8-37 2-3 10-2 30-10 48-14 48-12 39-8 39-6 36-4z" fill="#FEFEFE"/>
<path transform="translate(341,270)" d="m0 0h36l24 3 26 5 30 8 26 9 25 11 21 11 16 12 9 9 4 7 1 5v7l-3 7-5 6-6 4-13 4-16 2-29 2-4-1 1 3h18l21-3 13-2 11-4 5-3h3l12 17 8 11 12 16 8 12 10 13 13 18 14 20 13 18 12 17 18 27 20 35 12 22 13 24 7 12 8 16 12 22 8 16 12 23 15 29 9 17 2 4-1 6-8 16-3 2-4 24-6 25-4 10-3-3-14-29-20-40-6-11-9-16-6-12-11-18-10-13-9-11-11-13-10-13-12-15-11-14-9-12-12-19-10-16-13-18-10-13-14-19-12-16-11-15-16-21-18-24-13-16-9-11-12-14-7-8-11-12-9-9-7-8-10-9-14-11-10-7-15-8-16-6-20-6-1-2h12l18 4 12 4 16 8 15 8 21 14 18 8 12 3v-3l-13-3-16-8-18-11-13-8-23-11-21-6-22-3-3-5-10-24-7-15-5-11v-5z" fill="#FEFEFE"/>
<path transform="translate(1112,869)" d="m0 0h39l21 3 11 3 12 6 10 9 7 9 8 14 11 22 13 31 11 30 12 37 11 39 5 12v2l-6-2-6-3-16-3h-20l-31 4-50 9-50 10-46 10-23 4-4-10-15-39-11-34-6-25-1-11v-12l2-33 4-45 1-8v-10l8-3 39-8 40-6z" fill="#FEFEFE"/>
<path transform="translate(136,34)" d="m0 0h96l17 1 25 6 31 8 41 12 21 8 20 9 56 28 19 10 34 18 11 7 1 6-10 7-23 12-22 12-42 22-28 15-23 12-26 14-18 10-4-1-11-16-10-13-11-12-9-8-12-7-24-9-24-7-23-4-32-4-26-3-1-1v-131z" fill="#FEFEFE"/>
<path transform="translate(517,230)" d="m0 0h16l22 4 23 6 10 5 5 6 6 14 16 46 3 16 1 1v-14l4 2 28 28 20 28 16 23 8 12 11 17 16 25 13 20 8 14 8 16 11 26 16 42 11 30 2 7v6l-5 5 1 2-6 4-4 2-5-7-2-1 3 6 2 1-2 5-1 4h2v2l7 1v-2h6l1 3-1 2h4l-1-5-3-1 2-4 6-3h3l2 7-7 1v3l6-1 3 6v3l-7-2 2 1-1 8 4 1 4-5 3 5 8 26 6 19 1 8-7 7-5 2-11-33-3-10h-2l1 4h-2l-3-7-8-15v-2h-3l3 7 16 31 7 18 1 6v18l-4 1 1 11-6 15h-3l-16-31-9-17-8-16-12-23-14-26-17-32-10-18-12-22-14-24-14-23-10-14-16-23-12-17-13-18-10-14-13-18-10-13-10-14-13-18-4-6 1-4 3-7v-14l1-1 30 1 5 7 4 1-4-6v-4l5-1h-27l-12-1-5-3-13-13-13-9-18-10-22-10-30-11-5-2-3-5-5-16-1-6 5-5 9-6 12-5 16-5 19-4z" fill="#222"/>
<path transform="translate(466,709)" d="m0 0 6 5 7 8 17 17 7 8 9 9 7 8 15 16 24 26 9 11 13 14 11 14 8 9 8 11 10 14 11 18 14 24 9 15 15 26 10 18 26 46 9 16 2 4-1 12-7 28-15 50-4-2-9-13-9-12-16-21-10-13-13-17-12-15-11-14-9-11-11-14-12-15-9-11-8-10-14-17-8-10-13-16-18-22-11-13-7-9-12-14-7-9-10-12-8-10-12-14-9-11-11-13-9-11-11-13-9-11-8-10 1-2 20-8 24-11 16-8 16-9z" fill="#FEFEFE"/>
<path transform="translate(130,170)" d="m0 0 38 4 35 5 25 6 25 9 13 7 10 8 9 9 11 14 13 18 11 17 12 23 14 31 7 19 2 10v11l-5 8-14 7-14 4-29 4-37 5-60 10-63 10-4-1v-237z" fill="#FEFEFE"/>
<path transform="translate(993 1e3)" d="m0 0 3 1 6 25 13 40 16 41v4l-12 3-43 9-54 13-67 17-41 12-48 14-35 10-5 1-7-10-16-27-10-15-1-6 7-22 12-42 4-4 22-7 50-14 41-12 33-9 36-8 45-7 46-6z" fill="#FEFEFE"/>
<path transform="translate(519,629)" d="m0 0 2 3-3 8-7 10-17 25-9 12-11 14-4 4 1 5 4 2 7 8 21 21 7 8 30 32 9 10 12 13 9 11 14 15 11 14 11 13 9 13 10 15 12 20 12 21 15 25 14 25 10 18 13 22 11 21 2 4 6-34 6-43 2-2 2 3v8l-6 39-7 40-3 14 7-3 120-34 35-9 24-5 60-9 30-4h5v-36l5-57 3-21-21 6-78 20-132 36-32 9-4-1 1-3 59-16 85-23 57-15 69-18 36-8 37-6 27-3 16-1h19l21 2 16 3 2 1-9-30-2-9 4-1 7 24 4 16 8 5 10 7 7 7 9 14 12 23 11 25 15 39 1 2h40l151-2v2l3-1v2l-2 1-13 1h-31l-145 2 2 10 10 33 9 31 8 23 6 16 4 16 3 20 1 12v44l-4 36-6 25-7 19h222v2l-11 1 5 1v1h-1378l-1-368-28-1v-4h22l41-1 1 5-29 1-1 8-1 355 473-1-5-5-17-16-19-19-8-7-8-8-8-7-15-14-16-15-11-11-8-7-13-13-8-7-10-10-8-7-42-42-7-8-9-9v-2h-2l-7-8-16-17-14-15-9-11-7-7-7-8-13-15-24-28-9-11-6-8-3-5 1-2h2l11 14 13 15 11 13 7 8 12 14 13 15 13 14 7 8 14 15 11 12 7 7 7 8 65 65 2 1v2l4 2 18 18 8 7 9 9 8 7 8 8 8 7 9 9 8 7 7 7 8 7 10 10 8 7 26 26 4 1h142l19-1-10-17-17-28-9-16-13-22-26-42-10-14-11-16-14-19-12-15-9-12-13-17-12-15-11-14-13-16-10-13-13-16-8-10-13-16-9-11-26-32-18-22-11-13-8-10-28-34-11-13-11-14-10-11-8-10-22-26-9-11-10-12-1-5h3l7 8 6-1 21-9 26-12 21-11 10-7 14-14 12-16 10-15 9-13 12-19zm-53 80-19 12-16 8-23 11-24 10-4 2 3 5 12 14 9 11 12 14 8 10 12 14 8 10 12 14 7 9 10 12 9 11 10 12 8 10 11 13 8 10 13 16 9 11 39 48 13 17 11 13 10 13 13 16 15 20 11 14 16 21 14 19 5 7h2l4-13 14-48 5-23-1-9-6-10-15-27-15-26-12-22-14-24-9-15-14-24-14-22-20-26-12-14-7-8-9-10-9-11-28-30-24-26-5-6-26-26-6-7zm646 160-35 4-36 6-32 7-4 2v10l-4 41-2 24-1 21v12l2 16 6 24 13 38 14 36 2 5 23-4 70-15 64-12 33-5 10-1h20l16 3 10 5h2l-3-9-5-16-10-34-13-40-15-38-11-24-10-20-9-13-9-9-12-7-9-3-16-3-10-1zm-385 101m266 35-36 5-48 7-36 7-34 9-94 27-21 6-11 4-3 7-17 58-1 5 4 8 10 15 15 25 5 7 23-6 85-25 37-10 79-20 49-11 30-6 2-1-1-7-16-41-13-40-5-22zm236 76-35 5-59 11-71 15-82 17-59 14-55 14-53 15-47 14-36 11-2 1 1 5 10 18 16 27 17 29 4 7h28l45-9 71-13 101-20 57-10 40-5 22-2h42l22 4 9 4 6 4 7 7 9 14 8 16 4 9 2 1h19l13-1 4-9 5-15 5-25 3-27v-55l-4-27-5-18-8-16-5-4-9-4-9-2z" fill="#1E1E1E"/>
<path transform="translate(1158,413)" d="m0 0 9 3 30 13 27 10 49 15 46 15 36 12-1 4-8 5-6 16-6 24-1 7v14l4 11 7 12 12 18 13 18 11 16v1l-5 1-22 1-27 3-12 3-6 3-4 5-8 16-5 16-1 4-1 110-4-2-12-13-10-11-7-9-13-16-13-19-4-9-10-60-4-36-4-35-4-17-5-12-12-19-15-26-10-19-4-12-2-21v-25l1-14z" fill="#FEFEFE"/>
<path transform="translate(357,363)" d="m0 0 5 1 23 13 11 9 10 9 8 7 16 16 9 11 12 13 11 14 14 17 7 9 13 17 13 18 16 22 8 12 9 12 7 10 13 19 9 12 9 14 12 21 18 34 8 16 32 68 6 15 7 15 4 10 6 10 5-2 6-4 9-7 6-3-1-8-5-13-10-23-7-16-9-20-13-28-11-24-8-14 1-3 10 12 7 9 12 15 9 11 8 10 10 12 11 17 24 44 8 15 11 23 17 34 1 3v8l-8 24-5 14-5 10-2-4-1-4-8-21-10-26-5-16-9-20-2-5v-3l9-6-1-6-13-25-6-1-3 5 7-1 3 5 8 14 1 2v6l-13 8-18 12-4 2-2 4-4-1-7-15-4-12-3-1 2 8 8 18 3 5v2l8-3 3 8 15 35 17 40 12 29 4 12-1 7-5-5-11-17-9-16-18-30-19-32-13-21-10-17-15-24-16-27-14-22-10-16-12-19-11-17-13-20-9-13-10-14-16-21-10-13-13-16-10-13-11-13-11-14-14-17-9-11-12-14-8-10-12-14-11-14-10-11-8-10-12-14-9-11-9-10-11-14-11-12-7-8v-2l24-8 8-6z" fill="#FEFEFE"/>
<path transform="translate(1287,160)" d="m0 0h19l48 4 37 4 42 6 31 6 20 7 29 14 17 10 11 7-2 4-19 8-14 9-10 9-9 9-20 26-19 29-14 27-9 25-3 8-21 3-59 5h-11l3-24 1-15v-43l-2-16-4-11-9-10-8-4-14-3-8-1h-30l-20 4 4-52 3-15 6-10 9-9 11-7 9-3z" fill="#FEFEFE"/>
<path transform="translate(1011,146)" d="m0 0h69l43 3 20 3 6 4 6 9 5 12 2 10 1 16v198l-1 5 3 1 3-1 9-5 5 2 9 6 15 6 31 8 24 6 42 14 45 13 15 6 11 7 1 3h3l-4-6-11-7-30-10-44-13-19-6v-1l28-1 10-3 6-4 5-6 5-10 6-21 15-2 61-5 15-1 1 10-8 34-4 25-1 12v24l2 12 5 12 9 10 8 6 16 8 26 10 24 7 36 8 52 9 37 5 36 3h31l26-3 16-4 12-6 10-9 7-10 8-16 7-18 8-29 5-24 4-25 1-8h1v12l2 1v-7l2 2v46l-1 134-10-2v3l6 1 2 2v11l-14-2-75-14-87-17-68-14-46-11-30-10-18-8-46-25-17-10-15-9-23-14-1-4h-2v-3l-11-3-34-11-43-14-46-14-26-10-28-12-9-3-1 1-1 10-3 1v-13l3-3 1-10v-18l-1-3h-164l-43-1-41-3-50-6-69-10-38-6-9-1-2 11-7 31-5 34-1 13h-1l-1-8h-2v12l-3-4-16-25-10-16-12-17-13-19-9-12-4-6h2v-2l5 1 41 21 20 10 5 3h2l8-35 18-79 10-43 5-21 4-9 6-5 19-5 56-12 62-12 38-7 23-3zm23 3-34 1-25 2-37 6-64 12-80 17-12 4-5 6-4 13-19 84-11 49v5l82 13 67 9 31 3 36 2 43 1h89l63-1 5-1v-174l-1-16-5-15-6-10-3-3-15-3-23-2-18-1-34-1z" fill="#202020"/>
<path transform="translate(1365,631)" d="m0 0h17l4 5 8 15 10 30 9 39 4 22 3 25 4 71 3 78v13h-35l-8-4-25-16-5-5-6-18-6-12-13-17-15-20-10-13-11-15-1-9v-103l1-19 4-14 9-20 5-5 7-3 18-3z" fill="#FEFEFE"/>
<path transform="translate(1e3 888)" d="m0 0h2l-1 11-5 53-1 14-1 36-26 4-50 7-35 6-32 8-43 12-49 14-34 10-12 3 1-9 7-38 6-41 3-17 9-3 50-14 74-20 52-14 77-20z" fill="#FEFEFE"/>
<path transform="translate(1266,815)" d="m0 0h27l7 8 8 11 26 34 7 10 4 8 6 17 3 5v2l5 2 25 16 6 3 9 1 27 1 1 1 2 23 5 9 9 11 6 9 1 4-1 1-11 1-140 2h-40l-4-8-11-29-9-21-12-25-8-14-8-10-8-7-12-7-2-2-7-27-5-17-1-7 72-4z" fill="#FEFEFE"/>
<path transform="translate(520,632)" d="m0 0 6 5 10 14 14 20 14 22 10 15 14 22 9 15 14 22 17 28 15 24 13 22 9 14 6 11 12 20 17 28 15 26 9 15 3 9-8 56-4 21-2 1-8-16-10-19-13-22-12-22-14-24-16-27-11-19-14-22-9-12-8-10-13-16-9-10-26-30-9-9-7-8-29-31-11-12-19-19-6-7 2-4 7-8 13-17 17-25 8-12 3-5z" fill="#FEFEFE"/>
<path transform="translate(1261,255)" d="m0 0h28l14 2 12 4 10 9 5 11 2 11v55l-4 33-6 23-6 12-4 5-7 4-8 2h-24l-33-5-32-8-14-5-9-6-6-7-2-4-1-6 1-21 5-27 5-16 7-16 8-14 10-14 7-7 14-7 18-6z" fill="#FEFEFE"/>
<path transform="translate(1168,505)" d="m0 0 3 4 7 12 13 22 7 11 5 13 4 24 4 43 4 27 7 40v6l6 14 7 11 14 18 10 13 12 13 17 17 2 13v4l-2 1-107 6h-11l-4-8-7-18-10-19-15-28-5-10-1-7-17-38v-2l26-6 16-6 11-6 4-2v-2h2l2-4 3-7v-30l-7-110z" fill="#FEFEFE"/>
<path transform="translate(356,340)" d="m0 0 30 10 19 9 19 14 17 16 20 20 7 8 9 10 9 11 12 14 8 10 16 21 9 12 14 19 12 16 11 15 14 19 10 13 12 17 11 18 13 23 8 16 14 29 13 28 14 31 12 29 6 17-1 5-14 11-6 2-8-16-11-24-15-33-12-26-11-22-10-21-12-22-14-25-15-22-14-20-11-15-12-17-13-18-14-19-13-18-9-11-8-10-11-14-12-14-9-10-9-11-23-23-8-7-13-10-20-11-8-4z" fill="#FEFEFE"/>
<path transform="translate(1155,1227)" d="m0 0h24l21 3 11 4 8 5 7 7 9 14 9 19 1 4-323 1h-101v-1l64-12 56-10 90-18 53-9 51-6z" fill="#FEFEFE"/>
<path transform="translate(1691,1207)" d="m0 0h2v61l-7 6-34 22-11 7-29 19-16 10-5 1-12-7-30-20-14-9-19-12-21-14-2-2-1-4v-34l1-23 5 2 15 10 23 15 25 16 21 14 8 5 6-1 22-14 21-14 31-20z" fill="#FEFEFE"/>
<path transform="translate(98,715)" d="m0 0h60l-2 5-11 17-13 20-6 9-5 8-20 30-6 8 1 7 12 19 7 10 10 15 15 24 18 27v1l-40 1h-18l-5-2-7-10-11-18-12-19-22-33-10-16-1-4 10-16 16-24 15-23 12-19 10-15z" fill="#FEFEFE"/>
<path transform="translate(1751,695)" d="m0 0h60l5 5 15 24 11 17 13 20 19 29 2 4-1 6-34 51-11 18-7 11-9 14-5 2h-57l-1-2 14-22 15-23 14-22 7-10 6-9 6-10 1-4-6-9-7-10-9-14-16-25-10-15-13-21z" fill="#FEFEFE"/>
<path transform="translate(517,230)" d="m0 0h16l22 4 23 6 10 5 5 6 6 14 16 46 3 17-2 7-5 4-7 2-7 1h-22l-12-1-5-3-13-13-13-9-18-10-22-10-30-11-5-2-3-5-5-16-1-6 5-5 9-6 12-5 16-5 19-4z" fill="#FEFEFE"/>
<path transform="translate(1019,649)" d="m0 0h52l8 3 7 6 11 14 9 14 15 33 3 6v2h-2v-2l-4-1h-39l-34 2-34 3-22 3h-7l-11-21-4-11v-10l4-23 3-12 23-4z" fill="#FEFEFE"/>
<path transform="translate(125,31)" d="m0 0h1l1 5 2-1 1 131 50 6 26 4 23 6 25 9 14 7 10 8 11 11 13 17 9 13 2 3 5-1 22-12 28-15 25-13 22-12 29-15 22-12 28-15 13-8-1-6-14-8-23-12-19-10-29-15-42-21-27-11-29-9-41-11-23-6 1-3 2-1h10l-4 2 54 14 32 10 20 8 33 16 16 8 21 11 16 8 28 15 18 10 5 6v6l-8 7-27 14-22 12-29 15-22 12-18 10-16 8-32 17-19 10h-2l7 13 6 2 17-2h27l25 3 31 6 21 6 2 3-9-1-30-7-26-4-10-1h-36l-12 1 3 10 9 20 7 15 5 13 1 1 26 4 20 6 24 12 17 11 21 12 7 3 11 3v3l-9-1-13-5-13-7-18-12-24-13-13-5-16-4-6-1h-11l26 8 18 8 13 8 14 11 20 18 9 10 10 10 7 8 11 13 9 11 11 13 13 17 15 20 13 17 11 15 14 19 21 28 13 18 15 24 12 18 3 5h-2l4 10 9 17 9 20 17 36 11 26 9 21 3 6 5 14v5l-10 6-10 8-5 3-3-1-6-10-4-10-8-18-9-20-13-28-13-27-11-23-14-27-13-23-7-11-12-17-10-14-8-12-9-12-7-10-12-17-6-8-13-18-12-16-13-16-11-14-8-10-11-12-9-11-12-13-13-13-8-7-15-12-25-14-3-1-2 5-8 7-16 6h-2l1-4 13-5 5-3h2l4-8v-11l-4-16-9-22-16-34-9-16-13-19-14-19-14-15-12-9-15-7-27-9-24-5-37-5-30-3-1 232h-1l-1-223h-2v269h-1v-276zm231 309 3 20 12 6 16 9 14 11 16 15 15 15 9 11 12 13 9 11 11 14 12 15 10 13 13 18 11 15 10 14 13 18 10 14 14 20 11 16 10 17 18 32 10 21 8 16 14 29 15 33 11 24 8 16 3 7 6-2 14-11 1-5-9-25-18-41-32-68-8-16-15-27-16-24-27-36-28-38-12-16-16-21-9-12-11-13-9-11-12-14-7-8-14-15-20-20-8-7-19-14-19-9-26-9z" fill="#232323"/>
<path transform="translate(519,629)" d="m0 0 2 3-3 8-7 10-17 25-9 12-11 14-4 4 1 5 4 2 7 8 21 21 7 8 30 32 9 10 12 13 9 11 14 15 11 14 11 13 9 13 10 15 12 20 12 21 15 25 14 25 10 18 13 22 11 21 2 4 6-34 6-43 2-2 2 3v8l-6 39-7 40-3 14 7-3 120-34 35-9 24-5 60-9 30-4h5v-36l5-57 3-21-21 6-78 20-132 36-32 9-4-1 1-3 59-16 85-23 57-15 69-18 36-8 37-6 27-3 16-1h19l14 1-3 2 6 1v1h-47l-35 4-36 6-32 7-3 2v9l-4 41-2 24-1 21v12l2 16 6 24 13 38 14 36 1 4 23-4 70-15 64-12 33-5 10-1h20l4 3-28 1-2 1-35 5-59 11-71 15-82 17-59 14-55 14-53 15-27 8h-2l1-4 47-14 37-10 79-20 49-11 30-6h2l-6-17-13-34-12-37-5-22-53 7-45 7-28 6-30 8-94 27-21 6-11 4-7 23-12 41-2 2-2-6 7-21 11-39 4-19-1-9-6-10-15-27-15-26-12-22-14-24-9-15-14-24-14-22-20-26-12-14-7-8-9-10-9-11-28-30-24-26-4-4v-2l-3-1-7-8-17-17-5-6-9 5-13 8-16 8-21 10-24 10-3 2 8 10 12 14 9 11 11 13 9 11 11 13 9 11 10 12 18 22 12 14 10 13 12 14 8 10 13 16 9 11 26 32 3 5h-2l-1 2-11-13-11-14-11-13-8-10-13-16-18-22-11-13-8-10-28-34-11-13-11-14-10-11-8-10-22-26-9-11-10-12-1-5h3l7 8 6-1 21-9 26-12 21-11 10-7 14-14 12-16 10-15 9-13 12-19z" fill="#202020"/>
<path transform="translate(562,344)" d="m0 0 30 1 8 11 9 13 22 32 15 22 17 25 7 11 7 10 10 15 3 6v2h-2l-3 10-5 9-6 4-8 4-4-2-13-19-12-17-10-14-12-17-13-18-9-12-13-18-14-19-9-13 1-4 3-7v-14z" fill="#FEFEFE"/>
<path transform="translate(1415,376)" d="m0 0h6l-4 16-6 25-4 23-2 21v14l-9-2-10-1-7 1-6-8-10-6-30-10-44-13-19-6v-1l28-1 10-3 6-4 5-6 5-10 6-21 15-2 61-5z" fill="#FEFEFE"/>
<path transform="translate(617,338)" d="m0 0 4 2 12 13 14 19 36 54 9 15 12 19 18 30 14 29 18 44 16 42 1 6-3 2 1 5 2 5-1 4-3-3-15-29-13-24-12-22-15-28-9-16-9-15-19-29-28-42-14-20-15-22-17-25-4-5v-3l16-3z" fill="#FEFEFE"/>
<path transform="translate(1383,475)" d="m0 0h10l10 3 2 2 3 16 7 14 6 7 16 10 18 8 22 8 37 10 40 8 49 8 36 4 30 3 43 11 81 21 4 3v11l-14-2-75-14-87-17-68-14-46-11-30-10-18-8-46-25-17-10-15-9-23-14-1-4 10-5z" fill="#FEFEFE"/>
<path transform="translate(1e3 618)" d="m0 0h12l16 4 17 9 13 9 5 5-38 1-26 2-37 6-54 12-38 9-47 12h-2l2-4 17-17 7-8 5-5 11-10 11-5 30-7 47-8 34-4z" fill="#FEFEFE"/>
<path transform="translate(958,702)" d="m0 0h6l12 24 3 7-25 5-34 7-60 15-28 8-40 12 3-10 5-12 4-9 3-7 4-3 36-12 37-11 31-7z" fill="#FEFEFE"/>
<path transform="translate(1745,692)" d="m0 0h51l-2 2 7 1v1h-31l-19-1 11 18 14 22 10 15 7 11 22 33-2 6-6 9-9 14-10 15-14 22-10 15-10 16-2 4h41l16 1-1 2h-4v292l-1 98-9 1-21-1h-28l-75 1-14 8-15 10-20 13-14 9-3-1 5-5 26-17 31-20 24-16 2-2 1-62-2-1 2-3h3l1 59 10 5 26 8 23 5 31 4 10 1v-385h-50l-1-4 12-19 10-15 11-17 12-18 5-10v-41l-4-8-11-16-16-25-12-19-8-13z" fill="#1E1E1E"/>
<path transform="translate(675,216)" d="m0 0h6l6 5 1 2v10l-6 33-4 17-5 12-7 9-6 5-11 2h-25l-5-2-7-14-11-33-6-13v-2l25-11 28-11z" fill="#FEFEFE"/>
<path transform="translate(968,656)" d="m0 0h2l-5 31-1 10-5 2-47 8-27 6-40 12-36 12-1-2 1-14 5-6 8-7 3-3-1-8-1-4 1-3 38-10 46-11 45-10z" fill="#FEFEFE"/>
<path transform="translate(1285,157)" d="m0 0h31l52 5 48 6 36 6 17 4 21 8 25 12 28 17 3 2 10-2 29-8 28-6 19-2h40l26 2 27 4 20 5 16 6 14 9 7 7 8 14 7 21 1 4 2-2v13h-2v-6h-2l-1 2-6-23-8-16-7-9-9-7-15-7-22-6-24-4-35-3h-31l-21 2-34 7-32 9-25 10-15 8-10 9h-2l-2 4-7 7-11 14-11 15-13 20-12 21-9 19-7 21-4 13-3-1 1-5-25 3-60 5h-6l-4 18-4 10-6 8-6 5-7 3-5 1-25 1 39 12 37 11 16 6 10 7 4 6-4 1-2-1 1-3-20-10-26-8-31-9-43-14-33-8-21-6-16-8-5-4-6 2-9 5v-4l8-5 4-2-3-9v-21l5-28 5-18 7-16 9-17 10-14 7-7 15-8 6-2-1-3 4-48 3-17 5-10 10-10 11-7 8-4zm2 3-11 3-11 6-10 9-6 8-3 7-2 12-4 52 20-4h30l18 3 10 4 8 7 4 6 3 9 2 16v43l-2 24-2 15h11l69-6 11-2 3-8 7-20 12-25 9-15 15-22 9-12 13-16 13-13 15-10 18-8 5-3-1-3-22-13-19-10-20-9-19-6-33-6-44-6-50-5-27-2zm-26 95-17 4-18 7-9 6-7 7-11 17-9 17-6 17-5 22-2 12-1 21 2 8 4 6 8 7 11 5 30 8 20 4 22 3h24l10-3 7-5 6-10 5-15 4-20 3-26v-55l-3-14-5-9-9-8-12-4-14-2z" fill="#202020"/>
<path transform="translate(619,314)" d="m0 0 4 2 28 28 20 28 16 23 8 12 11 17 16 25 13 20 8 14 8 16 11 26 16 42 11 30 2 7v6l-10 7h-3l-9-21-10-27-9-22-10-24-9-21-11-21-8-13-11-18-14-23-4-6-11-17-12-18-13-19-10-13-12-14-4-5-2-16z" fill="#FEFEFE"/>
<path transform="translate(1173,831)" d="m0 0 2 3 8 28 2 9 8 5 10 7 7 7 9 14 12 23 11 25 15 39 1 2h40l151-2v2l3-1v2l-2 1-13 1h-31l-145 2 2 10 10 33 9 31 8 23 6 16 4 16 3 20 1 12v44l-4 36-6 25-7 19h222v2l-11 1 5 1v1h-290l-203-1v-1l172-1h52 1l-313-1v-1l322-1-7-16-8-14-7-9-7-6-11-5-15-3-10-1h-24l-30 2-48 6-51 9-101 20-15 2 2-4 111-22 57-10 40-5 22-2h42l22 4 9 4 6 4 8 8 9 14 8 16 3 8 2 1h19l13-1 6-16 6-26 4-33v-55l-4-27-5-18-8-16-8-5-9-3-5-1-29-1v-1l26-1v-1l10 1 9 3 7 4-6-14-12-42-14-43-15-38-11-24-10-20-9-13-8-8-12-7-9-3-16-3-9-3v-1h11l16 3 2 1-9-30-2-9z" fill="#232323"/>
<path transform="translate(1798,425)" d="m0 0 2 2v46l-1 134-55-14-41-11-21-5-2-2 28-2 20-4 11-4 12-7 7-7 9-14 8-17 10-30 6-26 6-32z" fill="#FEFEFE"/>
<path transform="translate(681,514)" d="m0 0 4 4 11 18 13 21 12 20 13 21 15 26 13 25 11 23 17 35 12 25 1 10-6 15h-3l-16-31-9-17-8-16-12-23-14-26-17-32-10-18-12-22-14-24-14-23-2-5 5-1z" fill="#FEFEFE"/>
<path transform="translate(158,914)" d="m0 0 2 4v1l-29 1-1 8-1 355 475-1 1 2-2 1 5 1 148 1v1h-631l-1-368-28-1v-4h22z" fill="#303030"/>
<path transform="translate(995,615)" d="m0 0h21l12 3 12 5 16 10 13 10 13 7 10 9 9 12 7 12 11-1 23-6 12-5 11-7 6-9 1-5 1-16 2 4 1 1v15l-4 8-2 3h-2v2l-11 7-11 5-21 6-9 2h-5l19 42 1 7 15 29 10 19 7 14 7 18h11l18-1h24v2l-15 1-1 1-21 1h-15l2 7v5h-3l-3-9-7-20-7-15-8-15-6-12-10-19-7-11-4-3h-46l-36 2-29 3h-5v-2h-5v-1l25-3 37-3 20-1h39l4 2v2h2l-16-34-7-14-9-12-9-11-8-5-4-1h-52l-28 3-17 2-1 3h-3v-2l-12 3-41 9-47 11-42 11h-4l1-4 64-16 52-12 34-7 26-4 26-2 37-1-11-8-13-8-13-6-13-3h-12l-26 2-42 6-37 7-13 3h-7l2-3 24-6 32-6 30-4z" fill="#202020"/>
<path transform="translate(1177,401)" d="m0 0 5 2 9 6 15 6 31 8 24 6 42 14 45 13 15 6 11 7-1 4-6 3-5 1h-8l-21-6-61-20-52-16-24-9-31-14v-4z" fill="#FEFEFE"/>
<path transform="translate(130,761)" d="m0 0h2l2 5 11 13 7 9 11 13 10 13 14 17 11 14 14 17 11 14 10 12 9 11 13 16 11 13 8 10 1 5v3l-13-15-8-10-11-13-11-14-8-9-10-13-14-17-11-14-11-13-10-13-13-16-14-17-8-10-2-4h-2l1 94 6 12 15 23 10 15 1 6h-5l2-1v-3h-2l-23-35-12-19-22-33-5-8-1-7 11-15 7-11 8-12 5-8z" fill="#1F1F1F"/>
<path transform="translate(690,493)" d="m0 0 5 4 20 35 12 23 13 23 15 28 13 25 10 19 15 28 8 17 4 11 1 6v12l-2 5-3-4-7-16-8-16-19-39-15-31-16-27-12-20-12-19-12-20-11-17-4-8 2-9z" fill="#FEFEFE"/>
<path transform="translate(1429,943)" d="m0 0 2 3 2 12 8 11 12 15 20 26 12 15 13 17 12 15 13 17 8 10 11 14 12 15 11 14 13 16 11 14 13 16 11 14 9 11 11 13 9 11 7 8 4-2 11-7 20-13 6-4 2 1 1 2-20 13-34 22-32 21-13 8-6-1-33-22-16-10-23-15-15-10-8-5v57l2 5 21 14 19 12 14 9 12 8 20 13 10 6 5-1 8-5 2 1-2 4-5 3h-13l-18-11-27-18-17-11-12-6-15-1 1-2h11v-2l-5-2-13-8-3-4v-33l1-33 6 1 26 17 17 11 23 15 18 12 13 8 5-2 10-7 35-23 4-3-11-11-9-11-12-14-10-13-11-13-10-13-13-16-55-70-12-15-13-17-22-28-10-13-4-6-6 2 1-6-6-10-8-9-6-9-2-12v-3h2z" fill="#1F1F1F"/>
<path transform="translate(703,808)" d="m0 0 4 4 10 20 7 21 15 38 5 15-1 9-9 27h-2l-5-13-7-17-13-30-10-24-12-28-1-8 3 1 6 11 7 12h4l4-2-2-4-5-9v-5l2-2 5 1v2h2l-1-7-9 3-2 1v6l4 9-1 2-6-9-6-11v-4z" fill="#FEFEFE"/>
<path transform="translate(1354,484)" d="m0 0h3l1 3 45 27 23 13 26 14 16 8 20 8 23 7 42 10 58 12 71 14 79 15 6 1-4 1v2l-14-2-48-9-67-13-86-18-38-9-26-8-24-10-24-12-21-12-18-10-17-10-21-13-4-2-7 1-3 9-7 26-1 6v19l4 10 7 12 12 17 11 16 12 18 9 14 8 17 8 26 4 16v13l-2-1-9-36-8-23-9-17-2-2h-17l-29 2-18 3-9 4-8 16-5 13-3-1 2-10 8-16 6-7 12-4 22-3 10-1 22-1 4-1-11-16-13-18-10-15-8-13-4-9-1-4v-14l4-20 6-20 4-8z" fill="#202020"/>
<path transform="translate(1329,121)" d="m0 0h18l82 7 28 3 8 2 2 5 2 20-2 1-26-2-4-1-2-13-1-1-44-4-24-2h-13l-3 5-3 9-14-1-9-1-2-1 1-9 3-12z" fill="#FEFEFE"/>
<path transform="translate(922,123)" d="m0 0 5 1 7 20v4l-16 3-14 1-2-1-3-10-1-1h-11l-64 7-7 2-1 2-1 12-7 2-10 1h-9v-19l2-7 7-3z" fill="#FEFEFE"/>
<path transform="translate(1011,146)" d="m0 0h69l43 3 20 3 6 4 6 9 5 12 2 10 1 16v198h-1l-1-24-1-2h-6v-1h5l-1-61v-113l-1-16-5-15-6-10-5-3-22-3-31-2-34-1h-20l-34 1-25 2-37 6-64 12-80 17-12 4-4 5-4 13-12 53-3-2 1-8 11-49 4-10 5-6 13-4 64-14 62-12 38-7 23-3z" fill="#212121"/>
<path transform="translate(656,346)" d="m0 0 5 2 16 8 27 14 24 12 3 2-2 13-4 28-2 20-3-4-16-25-10-16-12-17-13-19-9-12z" fill="#FEFEFE"/>
<path transform="translate(698,765)" d="m0 0 6 1 10 18 5 10-1 5-6 4-3 1 6 15 7 15 6 20 6 14 6 16 5 12 1 6 6-15 5-14 3-1-1 8-12 36-10 29-4 11 4 1-9 1 2-6-1-8-10-25-17-40-11-26-9-21-2-7-4 2h-4l-8-16-5-11v-6l4 1 4 12 5 11 2 4 3 1 2-5 12-7 13-9 8-5h2l-2-8-6-11-4-7h-7l2-5zm5 43-14 9v4l10 18 3 2-3-9-1-2v-6l6-3 5-1 1 7h-2l-1-3-5 1-1 1 1 7 6 9v2l-4 2h-4l-7-12-6-11-3-1 1 8 16 37 11 27 10 23 8 19 2 6h2l9-27 1-9-7-20-15-39-6-17-6-12-5-9z" fill="#202020"/>
<path transform="translate(1156,415)" d="m0 0h1v38l2 21 4 12 12 23 16 27 10 16 5 13 3 14 4 35 4 36 10 60 7 14 12 16 13 16 8 10 11 12-3 3-13-13-22-28-10-14-7-14-2-7-2-16-7-39-4-36-3-30-4-20-5-11-7-12-10-17-8-13-2-4 1 23 6 94v15l-2-1-2 2-5-84-3-54-6-17-3-9-2-13-1-37 4-1z" fill="#212121"/>
<path transform="translate(1173,831)" d="m0 0 2 3 8 28 2 9 8 5 10 7 7 7 9 14 12 23 11 25 15 39 1 2h40l151-2v2l3-1v2l-2 1-13 1h-31l-145 2 2 10 10 33 9 31 4 11v5l-4-4-6-16-12-41-13-40-15-38-11-24-10-20-9-13-8-8-12-7-9-3-16-3-9-3v-1h11l16 3 2 1-9-30-2-9z" fill="#212121"/>
<path transform="translate(519,629)" d="m0 0 2 3-3 8-7 10-17 25-9 12-8 10-4 2-12 12 1 2-19 11-16 8-19 9-24 10-3 2 8 10 12 14 9 11 11 13 9 11 11 13 9 11 10 12 18 22 12 14 10 13 12 14 8 10 13 16 9 11 26 32 3 5h-2l-1 2-11-13-11-14-11-13-8-10-13-16-18-22-11-13-8-10-28-34-11-13-11-14-10-11-8-10-22-26-9-11-10-12-1-5h3l7 8 6-1 21-9 26-12 21-11 10-7 14-14 12-16 10-15 9-13 12-19z" fill="#202020"/>
<path transform="translate(1123,865)" d="m0 0h19l14 1-3 2 6 1v1h-47l-35 4-36 6-32 7-3 2v9l-4 41-2 24-1 21h-1l-1-23 1-1-2-1 1-18 4-42 2-11-21 6-78 20-132 36-32 9-4-1 1-3 59-16 85-23 57-15 69-18 36-8 37-6 27-3z" fill="#212121"/>
<path transform="translate(158,914)" d="m0 0 2 4v1l-29 1-1 8-1 355h2v4h-6l-1-367-28-1v-4h22z" fill="#373737"/>
<path transform="translate(760,260)" d="m0 0h1v8l-16 70-2 10 12 1 70 11 67 9 31 3 36 2v1h-15v2h-11l-35-3-55-7-66-10-35-5-2 11-7 31-5 34-1 13h-1l-1-8h-1l1-17 5-29 1-3-5-2-44-22-18-10-6-3v-3l5 1 41 21 20 10 5 3h2l8-35 18-79z" fill="#212121"/>
<path transform="translate(528,543)" d="m0 0 5 1 14 20 11 15 16 23 10 16 12 21 10 18 10 21 8 16 14 29 15 33 11 24 8 16 2 7 10-6 10-8-1-7-9-24-13-30-11-24-13-28v-3h2v2h2l14 29 12 27 13 30 4 9 6 16v5l-10 6-10 8-5 3-3-1-6-10-4-10-8-18-9-20-13-28-13-27-11-23-14-27-13-23-7-11-12-17-10-14-8-12-9-12-7-10z" fill="#212121"/>
<path transform="translate(126,589)" d="m0 0 3 1v49l-2-3v75l36 1-1 5-13 20-7 11-8 12-7 4 2-4 13-20 15-23 1-2-60 1-5 5-14 22-12 19-10 15-21 32-3 5 2 6 16 25 11 16 14 22 12 19 7 11 2 5-5-1-11-18-13-20-9-14-13-20-18-27v-5l10-15 11-17 7-11 10-15 11-17 14-22 4-4 29-1v-62l1-54z" fill="#1D1D1D"/>
<path transform="translate(795,624)" d="m0 0h3l2 7-7 1v3l6-1 3 6v3l-7-2 2 1-1 8 4 1 4-5 3 5 8 26 6 19 1 8-7 7-5 2-11-33-3-10h-2l1 4h-2l-3-7-15-29v-4h6v-2h6l1 3-1 2h4l-1-5-3-1 2-4z" fill="#FEFEFE"/>
<path transform="translate(262,34)" d="m0 0h10l-4 2 54 14 32 10 20 8 33 16 16 8 21 11 16 8 28 15 18 10 5 6v6l-8 7-27 14-22 12-29 15-22 12-18 10-4-1 4-4 23-12 18-10 16-8 26-14 22-12 16-9 1-5-4-4-28-15-29-15-23-12-44-22-27-11-29-9-41-11-23-6 1-3z" fill="#202020"/>
<path transform="translate(922,120)" d="m0 0h5l4 5 6 16 3 9-6 2-31 4-3-1-4-12-15 1-57 6-6 1-1 14-1 2-27 3h-5v-17l1-12 2-4 9-3 25-3 90-10zm0 3-125 14-7 3-2 7v19h9l16-2 1-1 1-12 2-3 32-4 38-4h11l3 7 1 4 7 1 22-3 3-1-1-7-6-17z" fill="#202020"/>
<path transform="translate(1332,117)" d="m0 0 42 3 77 7 15 2 3 3 3 17 1 12-1 1-18-1-20-2-2-14-65-6h-12l-3 8-2 6h-11l-18-2-3-1 1-8 3-14 4-8 2-2zm-3 4-4 8-3 14v4l2 1 17 2h6l3-9 3-5h13l44 4 24 2 1 1 2 13 4 1 27 2 1-4-3-21-3-2-24-3-79-7-13-1z" fill="#212121"/>
<path transform="translate(273,940)" d="m0 0h3l11 14 13 15 11 13 7 8 12 14 13 15 13 14 7 8 14 15 11 12 7 7 7 8 65 65 2 1v2l4 2 13 13-1 4-7-6-15-14-7-7-8-7-42-42-7-8-9-9v-2h-2l-7-8-16-17-14-15-9-11-7-7-7-8-13-15-24-28-9-11-6-8-3-5z" fill="#212121"/>
<path transform="translate(1342,497)" d="m0 0h3l-1 7-6 23-1 6v19l4 10 7 12 12 17 11 16 12 18 9 14 8 17 8 26 4 16v13l-2-1-9-36-8-23-9-17-2-2h-17l-29 2-18 3-9 4-8 16-5 13-3-1 2-10 8-16 6-7 12-4 22-3 10-1 22-1 4-1-11-16-13-18-10-15-8-13-4-9-1-4v-14l4-20z" fill="#212121"/>
<path transform="translate(125,773)" d="m0 0 1 3v82l-4-5-8-11-13-20-3-6 1-4 12-18z" fill="#FEFEFE"/>
<path transform="translate(1260,252)" d="m0 0h30l18 3 10 4 8 7 5 7 3 9 2 16v43l-2 24-3 15 70-6h10l4 3-32 3-47 4h-6l-4 18-4 10-6 8-6 5-6 2 1-4 8-5 6-10 5-15 4-20 3-26v-55l-3-14-5-9-8-7-12-4-14-2h-28l-13 3h-3l1-4z" fill="#222"/>
<path transform="translate(470,417)" d="m0 0 8 6 12 14 11 13 11 14 9 12 16 21 9 12 11 15 14 19 21 28 13 18 15 24 12 18 3 5h-2l4 10 9 17 4 9-1 3v-2l-3 1-14-29-8-16-14-24-14-21-27-36-28-38-12-16-16-21-9-12-11-13-9-11-12-14-3-5z" fill="#212121"/>
<path transform="translate(1795,419)" d="m0 0h1v12l1 1-1 12-8 39-8 26-8 20-8 15-8 10-8 7-16 8-18 4-17 2-15 1 28 7 65 17 16 4-2 1v2l-8-1-89-23-14-4-2-3-3-2 15-1 3-2 26-3 16-4 12-6 10-9 7-10 8-16 7-18 8-29 5-24 4-25z" fill="#202020"/>
<path transform="translate(1299,1283)" d="m0 0h210v2l-11 1 5 1v1h-290l-203-1v-1l172-1h52v1h53v-1l12-1z" fill="#393939"/>
<path transform="translate(633,636)" d="m0 0 4 1 8 10 14 18 13 16 9 11 13 16 10 15 11 19 6 12 9 15 11 23 21 42 4 9 2-3 6-21 2 4-1 10-12 36-2 5-3-1 2-9 3-9v-8l-11-23-13-26-10-21-12-22-13-24-14-21-12-14-7-9-20-25-11-14-6-8z" fill="#202020"/>
<path transform="translate(1412,703)" d="m0 0 2 4 6 29 2 12 3 40 4 83 2 56v19l-3-1-1-2-1-9-27-1v-1l22-1 7 2 1 2v-5h-36v-1h34l-2-37-3-73-3-52-4-32-4-20z" fill="#373737"/>
<path transform="translate(1804,692)" d="m0 0h10l5 6 14 23 18 27 14 22 14 21 2 4-1 4-22 33-15 23-16 25-8 13-4 5-3 1h-8l4-2 1-2 5-2 8-13 15-24 15-23 18-27 5-8-1-6-10-16-10-15-13-20-11-17-12-19-5-8-2-1-9-1z" fill="#202020"/>
<path transform="translate(972,656)" d="m0 0h1v7l-4 20-1 7v10l5 13 9 17v2l7-1h13v2l-9 2-18 2 1-4 2-1-10-19-4-10-14 1-45 8-28 7-37 11-21 7-4-1v-2l49-16 29-8 36-7 34-6 3-22 3-17z" fill="#202020"/>
<path transform="translate(1158,186)" d="m0 0 2 2 2-1 1 16v198h-1l-1-24-1-2h-6v-1h5l-1-61z" fill="#393939"/>
<path transform="translate(874,1284)" d="m0 0h367l-1 3h-18v-1h-40l-172 1h-137z" fill="#151515"/>
<path transform="translate(1207,574)" d="m0 0h1l4 31 4 38 6 37 5 30 7 14 12 16 13 16 8 10 11 12-3 3-13-13-22-28-10-14-7-14-2-7-2-16-7-39-4-36-2-23z" fill="#262626"/>
<path transform="translate(1257,1078)" d="m0 0 10 1 9 3 9 5 2-1 5 14 6 18 4 21 2 20v44l-4 36-6 25-3 7-3 1 2-10 5-22 4-33v-55l-4-27-5-18-8-16-8-5-9-3-5-1-29-1v-1l26-1z" fill="#242424"/>
<path transform="translate(128,769)" d="m0 0h1l1 93 6 12 15 23 10 15 1 6h-5l2-1v-3h-2l-23-35-12-19-22-33-5-8-1-7h5l1 6 7 12 15 22 3 4v-84z" fill="#212121"/>
<path transform="translate(1429,943)" d="m0 0 2 3 2 12 8 11 12 15 20 26 12 15 13 17 12 15 13 17 8 10 11 14 4 6-4 1-13-16-13-17-13-16-13-17-22-28-10-13-4-6-6 2 1-6-6-10-8-9-6-9-2-12v-3h2z" fill="#202020"/>
<path transform="translate(519,629)" d="m0 0 2 3-3 8-7 10-17 25-9 12-8 10-4 2-12 12 1 2-19 11-16 8-19 9-24 10-3 2 8 10 6 8-4 2-8-10-12-14-4-6v-3h3l7 8 6-1 21-9 26-12 21-11 10-7 14-14 12-16 10-15 9-13 12-19z" fill="#212121"/>
<path transform="translate(1547,574)" d="m0 0 11 1 53 11 71 14 79 15 6 1-4 1v2l-14-2-48-9-67-13-86-18z" fill="#212121"/>
<path transform="translate(1489,1203)" d="m0 0 4 1h-3v2l3 1v58l2 5 21 14 19 12 14 9 12 8 20 13 10 6 5-1 8-5 2 1-2 4-5 3h-13l-18-11-27-18-17-11-12-6-15-1 1-2h11v-2l-5-2-13-8-3-4v-33z" fill="#1E1E1E"/>
<path transform="translate(1490,545)" d="m0 0 9 1 36 8 52 9 37 5 36 3 29 1-1 2-12 1 1 3-38-4-36-4-49-8-40-8-27-7z" fill="#202020"/>
<path transform="translate(1438,991)" d="m0 0h11v2l3-1v2l-2 1-13 1h-31l-145 2-2 2-1-6 40-1z" fill="#393939"/>
<path transform="translate(1697,1266)" d="m0 0 28 9 29 7 5 1v1h-59l-25 1 3-3 14-9 3-3z" fill="#FEFEFE"/>
<path transform="translate(263,612)" d="m0 0h2l11 14 14 17 8 10 26 32 9 11 8 9 8 10 12 14 8 10-2 1-1 2-10-11-8-10-12-14-10-12-11-14-11-13-11-14-11-13-10-13-11-13v-2z" fill="#212121"/>
<path transform="translate(932,137)" d="m0 0h3l5 13-6 2-31 4-3-1-4-12-15 1-57 6-6 1-1 14-1 2-19 2h-12v-2l2-1 26-3 1-12 3-4 32-4 38-4h11l3 4 1 8 16-1 16-2-2-7z" fill="#1F1F1F"/>
<path transform="translate(385,1066)" d="m0 0 7 6 12 13 63 63 2 1v2l4 2 13 13-1 4-7-6-15-14-7-7-8-7-42-42-7-8-9-9v-2h-2l-2-5-2-3z" fill="#212121"/>
<path transform="translate(1676,200)" d="m0 0h12l25 3 20 4 14 4 14 5 14 9 7 7 8 14 7 21 1 4 2-2v13h-2v-6h-2l-1 2-6-23-8-16-7-9-9-7-15-7-22-6-24-4-33-3v-1l5-1z" fill="#212121"/>
<path transform="translate(125,31)" d="m0 0h1l1 5 2-1v131l-3 1-1-12z" fill="#353535"/>
<path transform="translate(1235,1077)" d="m0 0h20l4 3-28 1-2 1-35 5-59 11-29 6h-3l1-4 50-10 50-9z" fill="#202020"/>
<path transform="translate(484,878)" d="m0 0 5 5 11 14 12 14 8 10 13 16 9 11 26 32 3 5h-2l-1 2-11-13-11-14-11-13-8-10-13-16-18-22-11-13-3-4v-3z" fill="#262626"/>
<path transform="translate(1490,1204)" d="m0 0h5l26 17 17 11 23 15 18 12 13 8h4v3l-6 1-19-12-21-14-25-16-12-8-23-15z" fill="#1E1E1E"/>
<path transform="translate(1079,723)" d="m0 0h39l2 1v3l-48 1-36 2-29 3h-5v-2h-5v-1l25-3 37-3z" fill="#232323"/>
<path transform="translate(346,266)" d="m0 0h27l25 3 31 6 21 6 2 3-9-1-30-7-26-4-10-1h-36l-12 1 2-3 5-2z" fill="#222"/>
<path transform="translate(1168,514)" d="m0 0h1l7 110v15l-2-1-2 2-5-84-1-14v-15l1-1z" fill="#383838"/>
<path transform="translate(129,530)" d="m0 0h1v181h-3l-1-2v-73l1-23h1z" fill="#383838"/>
<path transform="translate(1242,256)" d="m0 0 4 1-2 3-18 7-9 6-8 9-12 19-8 17-5 16-5 24-3-4 1-9 5-21 8-18 9-17 10-14 7-7 15-8 8-3z" fill="#202020"/>
<path transform="translate(1673,574)" d="m0 0h24v1l-15 1 28 7 65 17 16 4-2 1v2l-8-1-89-23-14-4-2-3z" fill="#212121"/>
<path transform="translate(377,335)" d="m0 0 11 2 16 6 20 10 17 11 21 12 7 3 11 3v3l-9-1-13-5-13-7-18-12-24-13-13-5-16-4z" fill="#202020"/>
<path transform="translate(1339,871)" d="m0 0 5 5 6 11 3 12 3 6 9 7 24 15 4 2h36l1 1v10h-1l-2-7-9-1-23 1-9-3-18-11-14-9-6-12-6-17-4-6z" fill="#1F1F1F"/>
<path transform="translate(1267,164)" d="m0 0 2 1-2 4-8 6-8 9-4 9-2 12-4 53h-4l-1-3 4-48 3-17 5-10 10-10z" fill="#1F1F1F"/>
<path transform="translate(1690,1204)" d="m0 0 2 1 1 2-20 13-34 22-32 21-9 6h-2l2-5 42-28 11-6 10-7 23-15z" fill="#1F1F1F"/>
<path transform="translate(1700,1283)" d="m0 0h65l3 2-6 1v1l-17 1h-74l3-3 4-1z" fill="#2F2F2F"/>
<path transform="translate(1293,665)" d="m0 0 2 8-1 5-1 19-1 79-2 7h-1v-104z" fill="#353535"/>
<path transform="translate(128,769)" d="m0 0h1v93l-3-1-1-7v-82z" fill="#383838"/>
<path transform="translate(1285,157)" d="m0 0h31l52 5 4 2v1h-18l-48-4h-19l-11 3-6 3h-2l1-4 8-4z" fill="#262626"/>
<path transform="translate(472,466)" d="m0 0 4 1 13 17 10 13 10 14 11 15 10 14 1 3-5-1-13-18-11-15-13-18-9-11-8-10z" fill="#232323"/>
<path transform="translate(1123,865)" d="m0 0h19l14 1-3 2 6 1v1h-47l-35 4-13 2h-5l2-4 34-5z" fill="#242424"/>
<path transform="translate(1353,135)" d="m0 0h13l44 4 24 2 2 2 1 13 18 1-3 1v2h-11l-7-1-2-14-77-7z" fill="#232323"/>
<path transform="translate(1412,703)" d="m0 0 2 4 6 29 2 12 2 24v16l-1 19h-1l-1-7-2-33-4-32-4-20z" fill="#303030"/>
<path transform="translate(849,365)" d="m0 0h12l50 6 26 2 22 1v1h-15v2h-11l-35-3-48-6z" fill="#252525"/>
<path transform="translate(819,1283)" d="m0 0h57l-2 1v2l90 1v1h-142l-2-2h-6v-2z" fill="#2B2B2B"/>
<path transform="translate(906,1264)" d="m0 0h5l-1 3-13 3-50 9-20 4h-8l1-3 64-12z" fill="#202020"/>
<path transform="translate(1e3 889)" d="m0 0h2v9l-4 41-2 24-1 21h-1l-1-23 1-1-2-1 1-18 4-42 2-9z" fill="#202020"/>
<path transform="translate(1290,808)" d="m0 0 2 4 1 3-69 3h-16v-1h15v-2h-8v-1l73-4h2z" fill="#373737"/>
<path transform="translate(781,632)" d="m0 0h6l1 3-2 2-3-3 6 14 6 16 1 6h-2l1 4h-2l-3-7-15-29v-4h6z" fill="#202020"/>
<path transform="translate(1257,1078)" d="m0 0 10 1 9 3 9 5 2-1 5 14 6 18 1 7-2 5h-1l-6-23-8-16-8-5-9-3-5-1-29-1v-1l26-1z" fill="#272727"/>
<path transform="translate(1423,788)" d="m0 0h2l3 59v24l-2 2-2-9-2-45v-12z" fill="#363636"/>
<path transform="translate(785,186)" d="m0 0 3 1 2 2-9 4-4 6-6 24-9 40-3-2 1-8 11-49 4-10 5-6z" fill="#222"/>
<path transform="translate(131,1284)" d="m0 0 117 1 19 1v1l-142 1 2-3z" fill="#393939"/>
<path transform="translate(1207,574)" d="m0 0h1l4 31 4 38 2 13v6l-2-3-2-7v-7l-2-3h-1l-3-28-2-23z" fill="#353535"/>
<path transform="translate(126,589)" d="m0 0 3 1v49l-2-3-1 73h-1l-1-22v-38l1-54z" fill="#1A1A1A"/>
<path transform="translate(423,369)" d="m0 0 5 3 20 18 9 10 10 10 7 8 2 4-6-4-4-2-15-16-19-19-8-7-2-3z" fill="#1E1E1E"/>
<path transform="translate(1499,1049)" d="m0 0 5 1 10 12 15 20 10 12 7 9-4 2-13-16-13-17-13-16-4-5z" fill="#212121"/>
<path transform="translate(703,824)" d="m0 0 5 1v2l4-1 4 9 1 7-2 4-8 4-5-1-1-2 4-2 3-1-2-4-5-9v-5z" fill="#292929"/>
<path transform="translate(128,171)" d="m0 0h1v232h-1l-1-223h-1v-7h2z" fill="#393939"/>
<path transform="translate(674,213)" d="m0 0h8l6 4 4 7-1 11-3-2-1-10-4-5-2-1-10 1-34 12-4 1v-4l37-13z" fill="#202020"/>
<path transform="translate(1333,630)" d="m0 0h19v1l-15 2-1 1-18 3-9 4-8 16-5 13-3-1 2-10 8-16 6-7 12-4z" fill="#242424"/>
<path transform="translate(800,938)" d="m0 0 3 1-2 3-61 17-4-1 1-3 59-16z" fill="#212121"/>
<path transform="translate(1164,1088)" d="m0 0h9l-1 3-52 10-14 3h-3l1-4 50-10z" fill="#212121"/>
<path transform="translate(344,1024)" d="m0 0 5 2 7 7 7 8 14 15 8 9 1 4 2 3-4-2-9-9-7-8-8-8-7-8-9-10z" fill="#202020"/>
<path transform="translate(444,182)" d="m0 0m-2 1 2 1-1 3-31 16-22 12-5 3-4-1 4-4 23-12 18-10z" fill="#1F1F1F"/>
<path transform="translate(470,417)" d="m0 0 8 6 12 14 11 13 11 14-3 3-11-13-9-11-12-14-8-10z" fill="#242424"/>
<path transform="translate(810,132)" d="m0 0h8v1l6 1v1l-27 3-7 3-1 6-1 19-3 1v2l4 1h-5v-17l1-12 2-4 9-3z" fill="#232323"/>
<path transform="translate(367,740)" d="m0 0h3l7 8 6-1 14-6 2 1-1 3-17 7 3 5 11 13-3 3-5-5-9-11-10-12z" fill="#232323"/>
<path transform="translate(1401,374)" d="m0 0h10l4 3-32 3-25 2h-9l1-3 3-1z" fill="#222"/>
<path transform="translate(457,711)" d="m0 0 2 1-2 4-16 9-16 8-17 8-7 3-4-1 5-4 28-13 21-11z" fill="#212121"/>
<path transform="translate(1489,1203)" d="m0 0 4 1h-3v2l3 1v31l-1 27-3 1-1-30z" fill="#383838"/>
<path transform="translate(557,525)" d="m0 0 4 5 13 17 14 19 5 6v2l-5-1-14-18-8-11-11-15z" fill="#262626"/>
<path transform="translate(239,897)" d="m0 0 5 5 12 14 14 17 5 6-1 3 2 4-5-5-9-10-8-10-11-13-6-8z" fill="#202020"/>
<path transform="translate(1055,873)" d="m0 0h5l-1 3-12 3-34 7-8 3-2 1v-2h-5l1-3 35-8z" fill="#212121"/>
<path transform="translate(1700,605)" d="m0 0h8l59 11-4 1v2l-14-2-48-9z" fill="#232323"/>
<path transform="translate(950,1133)" d="m0 0 4 1-2 3-61 15h-2l1-4z" fill="#212121"/>
<path transform="translate(392,771)" d="m0 0 5 1 8 10 12 14 8 10 7 8-1 2-5-2-9-10-8-10-11-13-6-7z" fill="#222"/>
<path transform="translate(381,215)" d="m0 0 2 1-2 4-20 10-33 18-4-1 3-3 26-14 27-14z" fill="#202020"/>
<path transform="translate(620,324)" d="m0 0h1l1 11 13 15 5 6v2l-5-1-9-10-7-8-5 2-9 3h-8v-1l6-2 10-4 3-4 1-5h2z" fill="#232323"/>
<path transform="translate(727,962)" d="m0 0 3 3v8l-6 39-1 7-2-2-2 1 1-11 6-43z" fill="#252525"/>
<path transform="translate(1100,1101)" d="m0 0 4 1-3 3-51 11h-4l2-4z" fill="#212121"/>
<path transform="translate(1795,419)" d="m0 0h1v12l1 1-1 12-8 39-2 3-2-2 1-8 5-24 4-25z" fill="#242424"/>
<path transform="translate(855,923)" d="m0 0 4 1-2 3-52 14h-3l1-4z" fill="#222"/>
<path transform="translate(795,624)" d="m0 0h3l2 7-7 1v3l6-1 3 6v3l-7-2 2 1-2 8-4-5-4-8h4l-1-5-3-1 2-4z" fill="#363636"/>
<path transform="translate(535,944)" d="m0 0 6 3 14 17 13 16 3 5h-2l-1 2-11-13-11-14-11-13z" fill="#242424"/>
<path transform="translate(911,908)" d="m0 0 4 1-3 3-52 14h-2l1-4z" fill="#212121"/>
<path transform="translate(1246,744)" d="m0 0 4 1 9 11 8 10 11 12-3 3-13-13-11-14-5-6z" fill="#222"/>
<path transform="translate(867,126)" d="m0 0h5v1l6 1v1l-45 5h-16l1-2 12-2z" fill="#232323"/>
<path transform="translate(1260,252)" d="m0 0h30l14 2-3 1v2l-12-1h-28l-13 3h-3l1-4z" fill="#232323"/>
<path transform="translate(1223,703)" d="m0 0 3 1 2 9 6 11 12 16 2 4h-2l-1 2-8-10-7-10-7-14-1-6z" fill="#202020"/>
<path transform="translate(1749,692)" d="m0 0h47l-2 2 7 1v1h-31l-19-1-1 2z" fill="#383838"/>
<path transform="translate(849,365)" d="m0 0h12l40 5v1h-5v2l-15-1-31-4z" fill="#242424"/>
<path transform="translate(1432,346)" d="m0 0h1l-1 8-8 25-2 3-2-1 1-5h-12l2-1v-2l11-2 8-24z" fill="#212121"/>
<path transform="translate(1401,663)" d="m0 0 2 3 6 21 3 11v13l-2-1-9-36-1-7z" fill="#282828"/>
<path transform="translate(1327,388)" d="m0 0h2l-3 14-4 10-6 8-6 5-6 2 1-4 8-5 6-10 5-15 1-4z" fill="#202020"/>
<path transform="translate(817,147)" d="m0 0 4 1 3 2-6 1-1 14-1 2-19 2h-12v-2l2-1 26-3 1-12z" fill="#292929"/>
<path transform="translate(1261,424)" d="m0 0 12 1h24l8-1-2 4-5 1-25 1-4 1-10-5z" fill="#212121"/>
<path transform="translate(1547,574)" d="m0 0 11 1 39 8-3 1v2l-13-2-33-7z" fill="#232323"/>
<path transform="translate(1327,159)" d="m0 0h11l30 3 4 2v1h-18l-33-3v-1l6-1z" fill="#242424"/>
<path transform="translate(1700,1283)" d="m0 0 23 1v1l-10 1v1l-14 1h-28l3-3 4-1z" fill="#2E2E2E"/>
<path transform="translate(704,820)" d="m0 0h5l2 4v5l-1-2h-2l-1-2-5 1 1 7 4 7 2 2-5 6-4-1 1-3h3l-7-14v-6z" fill="#1B1B1B"/>
<path transform="translate(597,341)" d="m0 0h6l-1 2h-5l2 5 3 5-2 1-4-2-4-6h-10l-14-1-2-1v-2z" fill="#1F1F1F"/>
<path transform="translate(1173,634)" d="m0 0 2 4 1 1v15l-4 8-2 3h-2v2l-9 6-3-1 5-5 6-5 4-7 1-5z" fill="#1D1D1D"/>
<path transform="translate(775,634)" d="m0 0 5 1 5 11 8 22-1 2-12-22-5-10z" fill="#FEFEFE"/>
<path transform="translate(1187,316)" d="m0 0h2l-3 10-5 21-2 11-3-4 1-9 5-21 3-7z" fill="#232323"/>
<path transform="translate(1375,627)" d="m0 0h6l1 4-36 2h-9v-1l7-1-1-2 10-1z" fill="#383838"/>
<path transform="translate(1156,670)" d="m0 0 2 1-1 3-11 5-21 6-7 1 1-4 23-6 12-5z" fill="#222"/>
<path transform="translate(1022,727)" d="m0 0h19l-2 2-13 2-19 2h-5v-2h-5v-1z" fill="#232323"/>
<path transform="translate(659,794)" d="m0 0 4 1 4 12 5 11 2 4 3 2-4 1-1 2-8-16-5-11z" fill="#242424"/>
<path transform="translate(633,639)" d="m0 0 2 1 2 6 9 17 4 9-1 3v-2l-3 1-14-29z" fill="#2B2B2B"/>
<path transform="translate(1123,865)" d="m0 0h19l14 1-3 2 6 1v1h-58v-1l27-2-5-1z" fill="#383838"/>
<path transform="translate(701,1102)" d="m0 0h2l-2 9-7 24-2 2-2-6 7-21 2-7z" fill="#252525"/>
<path transform="translate(490,676)" d="m0 0h2l-2 5-13 16-4 2-12 12 1 2-5 2 2-5 16-16 12-16z" fill="#222"/>
<path transform="translate(630,228)" d="m0 0 4 1-4 4-24 10-4-1 3-3 20-9z" fill="#1F1F1F"/>
<path transform="translate(273,940)" d="m0 0h3l11 14 9 11-4 1-5-5-11-14-3-5z" fill="#252525"/>
<path transform="translate(1342,497)" d="m0 0h3l-1 7-6 23-1 6-3-3 1-9z" fill="#242424"/>
<path transform="translate(729,402)" d="m0 0h2l-2 18-2 21h-1l-1-8h-1l1-17 2-12z" fill="#252525"/>
<path transform="translate(703,824)" d="m0 0 5 1 3 7v6l-3 2-5-5-2-4v-5z" fill="#FEFEFE"/>
<path transform="translate(1207,574)" d="m0 0h1l3 21-1 22-2-3-2-23z" fill="#313131"/>
<path transform="translate(1490,545)" d="m0 0 9 1 26 6-3 1v2l-8-1-27-7z" fill="#252525"/>
<path transform="translate(518,920)" d="m0 0 5 5 10 12 6 7v2l-6-2-11-13-3-4-2-6z" fill="#262626"/>
<path transform="translate(470,417)" d="m0 0 8 6 12 14 2 6 1 2-4-2-12-14-8-10z" fill="#202020"/>
<path transform="translate(1199,815)" d="m0 0h24v2l-15 1-1 1h-20v-1l-6-1v-1z" fill="#242424"/>
<path transform="translate(814,1169)" d="m0 0 3 1 2 2-31 9h-2l1-4z" fill="#222"/>
<path transform="translate(1693,1202)" d="m0 0h3l-1 42-1 10h-1v-48l-2-1z" fill="#161616"/>
<path transform="translate(1235,1077)" d="m0 0h20l4 3-37 1 3-3z" fill="#1F1F1F"/>
<path transform="translate(472,466)" d="m0 0 4 1 13 17 2 4-6-2-13-16z" fill="#252525"/>
<path transform="translate(455,446)" d="m0 0 5 1 13 17 1 2h-2l-1 2-11-13-5-7z" fill="#212121"/>
<path transform="translate(263,612)" d="m0 0h2l11 14 4 6-4 1-11-13-4-5v-2z" fill="#202020"/>
<path transform="translate(467,1151)" d="m0 0 5 1 14 14-1 4-7-6-11-10z" fill="#1F1F1F"/>
<path transform="translate(501,902)" d="m0 0 6 3 11 14 1 7-5-5-9-11-4-5z" fill="#222"/>
<path transform="translate(1795,419)" d="m0 0h1v12l1 1-1 12-2 10-2-1-2 3 1-10 3-19z" fill="#2B2B2B"/>
<path transform="translate(553,966)" d="m0 0 5 2 11 13 2 4h-2l-1 2-11-13-4-5z" fill="#222"/>
<path transform="translate(677,213)" d="m0 0 7 1 5 4 3 6-1 11-3-2-1-10-4-5-7-2z" fill="#232323"/>
<path transform="translate(1804,785)" d="m0 0 5 5 2 6-4 8h-2l-1 2z" fill="#FEFEFE"/>
<path transform="translate(1212,640)" d="m0 0 2 2 1 4 1 11 3 6v14l-2 1-5-28z" fill="#202020"/>
<path transform="translate(826,931)" d="m0 0 3 1-2 3-22 6h-3l1-4z" fill="#222"/>
<path transform="translate(499,380)" d="m0 0h12l-4 2-1 2-6 1h-16l-1-4z" fill="#272727"/>
<path transform="translate(446,256)" d="m0 0 3 2 5 18 2 6-5-2-4-12-1-5z" fill="#1E1E1E"/>
<path transform="translate(723,950)" d="m0 0h3l3 4-1 4 9-1-1 3-4 1-3 9h-1v-8h-2l-3-7z" fill="#1D1D1D"/>
<path transform="translate(1435,143)" d="m0 0h1l1 13 18 1-3 1v2h-11l-7-1-1-5v-8z" fill="#252525"/>
<path transform="translate(819,1283)" d="m0 0 28 1v1l-6 1 1 2h-20l-2-2h-6v-2z" fill="#393939"/>
<path transform="translate(1e3 889)" d="m0 0h2v9l-2 18h-1l-1-6-1 5h-1l1-16 2-9z" fill="#272727"/>
<path transform="translate(1280,158)" d="m0 0h21v1l-19 3-10 4-4 1 1-4 8-4z" fill="#242424"/>
<path transform="translate(1217,1079)" d="m0 0h6v1l6 1v1l-23 3h-5v-2l-3-1z" fill="#242424"/>
<path transform="translate(708,1078)" d="m0 0h1l-1 10-4 13-4 2 2-10 4-14z" fill="#222"/>
<path transform="translate(385,1066)" d="m0 0 7 6 10 11-2 1-1 2-9-9v-2h-2l-2-5-2-3z" fill="#272727"/>
<path transform="translate(795,593)" d="m0 0 4 1 8 16 1 4h-2v-2l-4-2-5-10-3-5z" fill="#232323"/>
<path transform="translate(1793,257)" d="m0 0 2 3 3 11 2-2v13h-2v-6h-2l-1 2-4-16 1-3z" fill="#2C2C2C"/>
<path transform="translate(910,1143)" d="m0 0 3 1 2 2-24 6h-2l1-4z" fill="#222"/>
<path transform="translate(1327,854)" d="m0 0 5 5 8 11-3 3-12-15z" fill="#232323"/>
<path transform="translate(1045,725)" d="m0 0h11v1l16 1v1l-21 1h-12v-1l-6-1v-1z" fill="#2C2C2C"/>
<path transform="translate(795,624)" d="m0 0h3l2 7-7 2h-3l-3-2 2-4z" fill="#FEFEFE"/>
<path transform="translate(579,555)" d="m0 0 4 4 9 12 1 3-5-1-9-12z" fill="#262626"/>
<path transform="translate(1238,231)" d="m0 0h1l2 13v14h-4l-1-3z" fill="#383838"/>
<path transform="translate(972,1128)" d="m0 0 4 1-3 3-17 4h-3l2-4z" fill="#202020"/>
<path transform="translate(750,620)" d="m0 0 4 5 6 12v2h-4l-7-13z" fill="#242424"/>
<path transform="translate(509,145)" d="m0 0 1 4-9 7-7 4-4-1 4-4 13-8h2z" fill="#1F1F1F"/>
<path transform="translate(381,215)" d="m0 0 2 1-2 4-19 9v-4z" fill="#222"/>
<path transform="translate(1107,866)" d="m0 0h34v1l-31 2h-9l2-2z" fill="#1A1A1A"/>
<path transform="translate(1301,650)" d="m0 0h1l-1 7-5 13-3-1 2-10 3-7z" fill="#202020"/>
<path transform="translate(637,358)" d="m0 0 5 1 8 11-1 3-4-2-8-11z" fill="#212121"/>
<path transform="translate(1240,214)" d="m0 0h1l1 11v17l-2 2-1-7v-19z" fill="#1E1E1E"/>
<path transform="translate(1706,1285)" d="m0 0h15v1l24 1v1h-46v-1l7-1z" fill="#393939"/>
<path transform="translate(511,465)" d="m0 0h2l8 11 2 4-4 1-9-12z" fill="#202020"/>
<path transform="translate(650,221)" d="m0 0 3 1-2 3-16 6h-2v-4z" fill="#1F1F1F"/>
<path transform="translate(930,903)" d="m0 0 3 1 2 2-19 5h-2l1-4z" fill="#242424"/>
<path transform="translate(1156,670)" d="m0 0 2 1-1 3-11 5-8 2 1-4 13-5z" fill="#212121"/>
<path transform="translate(1294,1109)" d="m0 0 2 2 3 11-1 5-2 3-4-16 1-4z" fill="#252525"/>
<path transform="translate(789,651)" d="m0 0 3 4 4 13v2h-2l1 4h-2l-2-9-3-8z" fill="#282828"/>
<path transform="translate(764,243)" d="m0 0h2l-2 12-2 8-3-2 1-8 2-9z" fill="#242424"/>
<path transform="translate(1164,1088)" d="m0 0h9l-1 3-11 2h-9l2-3z" fill="#202020"/>
<path transform="translate(1418,931)" d="m0 0 9 1 3 7h1v7l-3-1-1-2-1-9-27-1v-1z" fill="#393939"/>
<path transform="translate(911,908)" d="m0 0 4 1-3 3-17 4 1-4z" fill="#222"/>
<path transform="translate(1416,141)" d="m0 0h18l1 1v9h-1l-2-6-16-2z" fill="#1B1B1B"/>
<path transform="translate(1263,765)" d="m0 0 4 1 11 12-3 3-12-14z" fill="#343434"/>
<path transform="translate(382,758)" d="m0 0 4 3 6 5 3 5-4 2-8-10-2-4z" fill="#373737"/>
<path transform="translate(569,544)" d="m0 0h3l7 10v6l-5-5-5-7z" fill="#202020"/>
<path transform="translate(928,374)" d="m0 0h31v1h-15v2h-11l-5-1z" fill="#272727"/>
<path transform="translate(650,371)" d="m0 0 4 5 5 7-3 4-8-12z" fill="#252525"/>
<path transform="translate(794,640)" d="m0 0 4 1 4 4-1 6-3 1-3-2v-6h2v-2l-3-1z" fill="#212121"/>
<path transform="translate(768,225)" d="m0 0h1v7l-3 11-3 1 1-9 3-9z" fill="#222"/>
<path transform="translate(1241,199)" d="m0 0h1v11l2-2-1 21-2-4-1-18z" fill="#393939"/>
<path transform="translate(444,182)" d="m0 0m-2 1 2 1-1 3-14 7-3-1 6-5z" fill="#1E1E1E"/>
<path transform="translate(490,157)" d="m0 0 2 1v3l-17 8 2-5z" fill="#212121"/>
<path transform="translate(704,820)" d="m0 0h5l2 4v5l-1-2h-2l-1-2-5 1-2 4v-6l-2-1z" fill="#282828"/>
<path transform="translate(1261,424)" d="m0 0 12 1-3 2 11 1v1l-8 1-4 1-10-5z" fill="#363636"/>
<path transform="translate(487,486)" d="m0 0 5 2 7 9-1 3-4-2-7-10z" fill="#212121"/>
<path transform="translate(411,360)" d="m0 0 4 2 8 6-1 4-12-8z" fill="#1F1F1F"/>
<path transform="translate(801,182)" d="m0 0 4 1-2 3-9 2h-7l1-3z" fill="#202020"/>
<path transform="translate(1353,135)" d="m0 0h13l13 1v1h-7v2l-17-1z" fill="#2B2B2B"/>
<path transform="translate(1058,1110)" d="m0 0 4 1-2 3-10 2h-4l2-4z" fill="#222"/>
<path transform="translate(1333,630)" d="m0 0h19v1l-15 2-1 1h-7v-2l-3-1z" fill="#232323"/>
<path transform="translate(1412,703)" d="m0 0 2 4 3 13v5l-3-6-2 1-1-9z" fill="#383838"/>
<path transform="translate(478,692)" d="m0 0 1 3-6 4-12 12 1 2-5 2 2-5 16-16z" fill="#252525"/>
<path transform="translate(658,384)" d="m0 0 5 5 4 7-4 1-6-9z" fill="#232323"/>
<path transform="translate(1490,545)" d="m0 0 9 1 8 2-2 1v2l-14-3-4-2z" fill="#262626"/>
<path transform="translate(1432,346)" d="m0 0h1l-1 8-3 9-3-2 2-9 2-5z" fill="#222"/>
<path transform="translate(1180,339)" d="m0 0h1v8l-2 11-3-4 1-9 1-5z" fill="#232323"/>
<path transform="translate(996,952)" d="m0 0h1l1 5 2-2-1 29h-1l-1-23 1-1-2-1z" fill="#393939"/>
<path transform="translate(1066,871)" d="m0 0h6v1l5 1v1l-13 2h-5l2-4z" fill="#262626"/>
<path transform="translate(1353,378)" d="m0 0h9v1l7 1v1l-11 1h-9l1-3z" fill="#272727"/>
<path transform="translate(664,396)" d="m0 0 4 1 5 7-1 5-4-4-4-6z" fill="#1F1F1F"/>
<path transform="translate(1242,256)" d="m0 0 4 1-2 3-8 3h-5l4-5z" fill="#1E1E1E"/>
<path transform="translate(1298,1125)" d="m0 0 2 2v19l-2-2-1-8v-9z" fill="#1E1E1E"/>
<path transform="translate(695,1122)" d="m0 0h2l-2 10-2 5-3-4 3-10z" fill="#262626"/>
<path transform="translate(821,131)" d="m0 0h14v2l-2 1h-16l1-2z" fill="#1D1D1D"/>
<path transform="translate(1255,253)" d="m0 0 4 1 2 2-13 3h-3l1-4z" fill="#232323"/>
<path transform="translate(1609,1257)" d="m0 0m-2 1 2 1v3l-11 7h-2l2-5z" fill="#232323"/>
<path transform="translate(721,1016)" d="m0 0h1v9l-1 5-2-2-2 3 1-11z" fill="#222"/>
<path transform="translate(711,840)" d="m0 0h3v2l-5 5 2 1-4 2-5-1-1-2 4-2 3-1v-2z" fill="#717171"/>
<path transform="translate(1205,565)" d="m0 0 2 4v15h-2l-1-7v-11z" fill="#232323"/>
<path transform="translate(1181,1085)" d="m0 0 4 1 3 2-11 2h-4v-2l-3-1z" fill="#272727"/>
<path transform="translate(774,819)" d="m0 0 2 4-1 10-4 2 1-9z" fill="#242424"/>
<path transform="translate(1215,814)" d="m0 0h14l3 2-8 2h-16v-1h15v-2h-8z" fill="#353535"/>
<path transform="translate(1273,431)" d="m0 0 6 1 10 3-2 1v2l-11-3-3-2z" fill="#282828"/>
<path transform="translate(787,166)" d="m0 0h16l-2 2-4 1h-12v-2z" fill="#1D1D1D"/>
<path transform="translate(1175,399)" d="m0 0 2 3-12 7-1-4 8-5z" fill="#2B2B2B"/>
<path transform="translate(1176,817)" d="m0 0h12l-2 3h-14l-1-2z" fill="#1D1D1D"/>
<path transform="translate(1401,374)" d="m0 0h10l4 3-16 1z" fill="#2A2A2A"/>
<path transform="translate(784,153)" d="m0 0h1l1 6 2 1v6l-3 1v2l4 1h-5z" fill="#393939"/>
<path transform="translate(516,379)" d="m0 0h6l-1 3-5 1h-11l2-2z" fill="#1C1C1C"/>
<path transform="translate(456,245)" d="m0 0m-2 1 2 1-3 5-7 6-1-3 5-6z" fill="#232323"/>
<path transform="translate(807,164)" d="m0 0h6l3 3-15 1-4-3z" fill="#2A2A2A"/>
<path transform="translate(925,157)" d="m0 0 4 1 4 2-16 2 2-4z" fill="#252525"/>
<path transform="translate(1280,158)" d="m0 0h21v1l-14 2h-8z" fill="#1A1A1A"/>
<path transform="translate(767,613)" d="m0 0 4 4 2 4 2 1-2 5-4 1 1-5-3-7z" fill="#272727"/>
<path transform="translate(532,377)" d="m0 0 4 1-4 3-11 1 1-3z" fill="#232323"/>
<path transform="translate(357,334)" d="m0 0 8 1v1l-8 1 9 3-1 3-5-1-5-4v-3z" fill="#2C2C2C"/>
<path transform="translate(457,711)" d="m0 0 2 1-2 4-8 5h-2l2-5z" fill="#212121"/>
<path transform="translate(470,417)" d="m0 0 8 6 3 4h-4l-5-4-3-5z" fill="#333"/>
<path transform="translate(1149,1091)" d="m0 0 4 1 3 2-14 2 1-4z" fill="#242424"/>
<path transform="translate(696,834)" d="m0 0 6 6 2 1v3l-5 2-2-5v-2l-2-4z" fill="#393939"/>
<path transform="translate(726,421)" d="m0 0h1v20h-1l-1-8h-1v-8z" fill="#242424"/>
<path transform="translate(364,333)" d="m0 0 12 1 2 3h-10l-3-1z" fill="#212121"/>
<path transform="translate(1604,1326)" d="m0 0 2 1-2 4-5 3h-7l4-3z" fill="#232323"/>
<path transform="translate(469,1151)" d="m0 0 4 2 11 11-2 2-8-8z" fill="#373737"/>
<path transform="translate(385,1066)" d="m0 0 7 6 4 5-3 1-3-4-3-2-3-5z" fill="#393939"/>
<path transform="translate(1214,643)" d="m0 0h2l2 13v6l-2-3-2-7z" fill="#393939"/>
<path transform="translate(499,380)" d="m0 0h12l-4 2-1 2-6 1-5-1 4-3z" fill="#2E2E2E"/>
<path transform="translate(1563,213)" d="m0 0 3 1 2 2-13 3 1-4z" fill="#232323"/>
<path transform="translate(814,1169)" d="m0 0 3 1 2 2-13 3 1-4z" fill="#242424"/>
<path transform="translate(1019,1118)" d="m0 0 4 1 2 2-13 2 1-4z" fill="#242424"/>
<path transform="translate(794,636)" d="m0 0h6l2 4v3l-5-2-3-3z" fill="#FEFEFE"/>
<path transform="translate(545,373)" d="m0 0 2 1-4 4-9 2 2-4z" fill="#212121"/>
<path transform="translate(1414,125)" d="m0 0h16v1h-5v2h-8l-3-1z" fill="#232323"/>
<path transform="translate(731,949)" d="m0 0h3l-1 7 4 1-9 1z" fill="#343434"/>
<path transform="translate(1428,929)" d="m0 0 2 1v10h-1l-2-7-9-2v-1z" fill="#151515"/>
<path transform="translate(1212,640)" d="m0 0 2 2 1 4v15h-1l-2-11z" fill="#222"/>
<path transform="translate(323,246)" d="m0 0 2 1 1 2-11 5-1-3z" fill="#282828"/>
<path transform="translate(1139,1093)" d="m0 0 4 1-3 3-8 1 2-4z" fill="#222"/>
<path transform="translate(1410,698)" d="m0 0h2v13l-2-1-1-4v-7z" fill="#212121"/>
<path transform="translate(1673,574)" d="m0 0h24v1l-15 1-4 1-5-2z" fill="#393939"/>
<path transform="translate(1691,571)" d="m0 0h10l-2 3h-11z" fill="#1F1F1F"/>
<path transform="translate(1337,520)" d="m0 0h1l-1 13-3-3 1-9z" fill="#252525"/>
<path transform="translate(1187,316)" d="m0 0h2l-3 10h-3l-1-2 3-7z" fill="#252525"/>
<path transform="translate(810,132)" d="m0 0h8v1l6 1v1h-16z" fill="#242424"/>
<path transform="translate(462,1145)" d="m0 0 4 2 3 2v2h-2l-1 2-6-7z" fill="#282828"/>
<path transform="translate(791,662)" d="m0 0h3l2 8h-2l1 4h-2z" fill="#2D2D2D"/>
<path transform="translate(1584,582)" d="m0 0 13 1-3 1v2l-10-2z" fill="#222"/>
<path transform="translate(896,371)" d="m0 0h15v1h-6v2h-7l-2-1z" fill="#262626"/>
<path transform="translate(1204,1081)" d="m0 0 4 1 5 1v1l-12 1v-2l-3-1z" fill="#2A2A2A"/>
<path transform="translate(1152,867)" d="m0 0h11l3 3-13-1z" fill="#1C1C1C"/>
<path transform="translate(1808,788)" d="m0 0 5 2 2 6-2 2-5-8z" fill="#292929"/>
<path transform="translate(1408,687)" d="m0 0 2 4 1 7-3 4-1-8z" fill="#363636"/>
<path transform="translate(1405,682)" d="m0 0h3v12l-2-1-1-4z" fill="#1F1F1F"/>
<path transform="translate(1575,580)" d="m0 0h7l5 1-3 1v2l-8-1z" fill="#242424"/>
<path transform="translate(639,225)" d="m0 0 3 1 1 2-10 3v-4z" fill="#232323"/>
<path transform="translate(771,216)" d="m0 0 1 3-2 9-3-2 1-8z" fill="#252525"/>
<path transform="translate(1435,143)" d="m0 0h1l1 13-3 1-1-3v-8z" fill="#2D2D2D"/>
<path transform="translate(1289,1271)" d="m0 0h2l-3 9h-3l1-6z" fill="#222"/>
<path transform="translate(698,1113)" d="m0 0h1l-1 9-4 1 1-7z" fill="#212121"/>
<path transform="translate(781,632)" d="m0 0h6l1 3-2 2-3-3-1 5-4-5h3z" fill="#363636"/>
<path transform="translate(1352,136)" d="m0 0h9v1h-6l-2 5h-2l-1 2 1-7z" fill="#1B1B1B"/>
<path transform="translate(762,864)" d="m0 0h1l-1 8-2 2-2-1 1-6z" fill="#212121"/>
<path transform="translate(404,738)" d="m0 0 3 1-4 4-6 1 5-5z" fill="#202020"/>
<path transform="translate(1413,718)" d="m0 0 3 3v10l-2-1-1-5z" fill="#1E1E1E"/>
<path transform="translate(1294,253)" d="m0 0 10 1-3 1v2l-12-1v-1l5-1z" fill="#2A2A2A"/>
<path transform="translate(807,936)" d="m0 0 3 1 2 2-10 2 1-4z" fill="#252525"/>
<path transform="translate(833,929)" d="m0 0 3 1 2 2-10 2 1-4z" fill="#252525"/>
<path transform="translate(918,906)" d="m0 0 4 1 2 2-10 2 1-4z" fill="#252525"/>
<path transform="translate(815,154)" d="m0 0h1v12l-4-1 2-10z" fill="#161616"/>
<path transform="translate(719,1027)" d="m0 0h1v8l-2 5h-1v-9z" fill="#191919"/>
<path transform="translate(490,438)" d="m0 0 5 5 2 4-4 1-2-5z" fill="#333"/>
</svg>
