<?xml version="1.0" encoding="UTF-8"?>
<svg version="1.1" viewBox="0 0 2048 1088" width="694" height="369" xmlns="http://www.w3.org/2000/svg">
<path transform="translate(0)" d="m0 0h2048v1088h-2048z" fill="#FEFEFE"/>
<path transform="translate(552,400)" d="m0 0h74l30 2 33 4 32 6 25 5 81-2 57-1h170l115 2 137 3 68 2 48 1 61 2 77 2 137 4 62 2 20 1v3l-5 4h-2l4 4 28 14 24 10 25 5 44 6 4 2 17 28 9 14 3 4-5 26-11 50-11 44-8 27-8 23-2 6-3 23-4 12-10 18-17 28-9 14-12 19-8 13-6 11-7 9-10 9-16 8-9 2-28 1h-464l-10 2-10 6-6 7-6 11h-38v20l-1 9-5 6-14 8-15 10-22 14-17 11-55 36-16 10h-4v-2l12-7 15-10 17-11 32-21 22-14 20-13 22-14 4-4 1-91-14 8-27 18-18 11-15 10-17 11-23 15-17 11-13 8h-6l-20-13-46-30-17-11-25-16-15-10-19-12 1 90 4 5 17 11 25 16 15 10 17 11 22 14 15 10 20 13 8 5v2l-6-1-27-18-16-10-26-17-17-11-22-14-30-20-3-4-1-8v-20l-65-1-13-14-10-5-6-1h-9l-68 6-65 4-28 12-22 7-22 5-23 3-12 1h-24l-28-3-25-5-23-7-27-11-51-5-28-4-26-5-27-7-16-6-16-8-9-7-10-13-13-25-11-27-15-46-10-36-14-58-14-68-8-43 1-5 14-24 15-27 1-1h54l13-4 28-13 19-10 5-3-1-4-4-5 1-2 45-2 78-3 51-17 26-6 20-3z" fill="#FEFEFE"/>
<path transform="translate(552,403)" d="m0 0h74l30 2 33 4 33 6 30 8 26 10 17 8 19 12 13 10 10 7 12 5 18 4 25 2 37 1 120 2 157 3 28 1 88 2 70 2 84 4 125 8 114 8 136 10 74 6 1 3-6 31-11 49-12 47-12 36h-2l-2-26-1-3h-32l-92 4-88 3-40 1-86 1-46 3-52 5-73 9-44 7-3 45-4 24-9 35-11 39 486-11 32-1-1 5-9 13-10 9-11 6-8 3-4 1-18 1-482 1-10 4-10 9-7 12h-36l-1-64-5 2-14 8-23 15-25 16-27 18-9 5-90 1-7-3-15-10-17-11-37-24-23-15-5-2-1 14v49l-1 1h-64l-9-11-10-6-6-2h-25l-58 5-46 3-13 1 5-4 16-10 16-12 11-9 6-6h2l1-3h2l1-3h2l2-4 8-8 13-17 11-17 11-20 8-19 7-21 6-26 2-15 1-13v-28l-3-27-4-22 8-7 7-11 4-13v-13l-8-16-9-11-8-7-10-6-7-2h-19l-12-14-9-10-12-12-11-9-16-12-25-15-19-9-24-9-23-6-17-3-19-2h-37l-21 2-29 6-24 8-18 8-23 12-18 12-13 10-11 10-8 7-13 14-10 13-10 15-8 13-13 27-7 20-5 18-4 23-2 20v25l3 28 6 27 8 23 8 18 10 19 12 18 11 14 12 13 14 14 11 9 15 11 15 9 8 5v1l-15-1-38-4-36-6-26-6-24-8-19-10-10-10-9-14-8-15-11-27-12-35-13-45-14-59-13-62-9-49 1-5 110-12 16-3 13-5 12-7 13-10 18-13 18-12 27-16 23-12 15-7 23-9 24-8 23-6 26-4z" fill="#FEFEFE"/>
<path transform="translate(1872,666)" d="m0 0h5l2 3 1 10v40l-4 16-8 15-14 23-24 38-9 14-1 1-7 1-163 4-346 8 1-8 15-55 5-23 2-18 2-34 4-2 46-7 56-7 60-6 43-3 94-1 68-2 105-4z" fill="#FEFEFE"/>
<path transform="translate(1498,29)" d="m0 0h9l340 33 38 4 9 3 4 7 1 11 4 8 7 4 47 8 8 4 3 4v10l-14 43-15 45-6 15-5 5h-19l-357-29-13-2-5-2-5-10-19-67-19-66-3-13 1-7 5-6z" fill="#FEFEFE"/>
<path transform="translate(590,40)" d="m0 0h10l5 3 4 5 1 2-1 10-15 53-18 63-9 30-3 5-10 3-158 13-208 17h-17l-6-5-5-12-30-90v-11l4-5 7-3 36-6 13-3 5-3 4-9 1-11 5-7 7-2 91-9 143-14z" fill="#FEFEFE"/>
<path transform="translate(949,416)" d="m0 0 110 1 121 2 125 3 26 1 94 2 58 2 50 1 104 3 96 3 40 2-1 3-4 2v2l15 8 32 15 13 5 25 5 43 6 5 5 15 24 8 12v2h-10l-213-16-144-10-101-6-40-2-94-3-398-8-39-1-19-2-17-4-10-4-13-10-17-12-17-10-23-10-15-5v-1l7-1 69-2z" fill="#FEFEFE"/>
<path transform="translate(552,400)" d="m0 0h74l30 2 33 4 32 6 25 5 81-2 57-1h170l115 2 137 3 68 2 48 1 61 2 77 2 137 4 62 2 20 1v3l-5 4h-2l4 4 28 14 24 10 25 5 44 6 4 2 17 28 9 14 3 4-5 26-11 50-11 44-8 27-8 23-2 6-3 23-4 12-10 18-17 28-9 14-12 19-8 13-6 11-7 9-10 9-16 8-9 2-28 1h-464l-10 2-10 6-6 7-6 11h-38v20l-1 9-5 6-14 8-15 10-22 14-17 11-55 36-16 10h-4v-2l12-7 15-10 17-11 32-21 22-14 20-13 22-14 4-4 1-91-14 8-27 18-18 11-15 10-17 11-23 15-17 11-13 8h-6l-20-13-46-30-17-11-25-16-15-10-19-12 1 90 4 5 17 11 25 16 15 10 17 11 22 14 15 10 20 13 8 5v2l-6-1-27-18-16-10-26-17-17-11-22-14-30-20-3-4-1-8v-20l-65-1-13-14-10-5-6-1h-9l-68 6-65 4-28 12-22 7-22 5-23 3-12 1h-24l-28-3-25-5-23-7-27-11-51-5-28-4-26-5-27-7-16-6-16-8-9-7-10-13-13-25-11-27-15-46-10-36-14-58-14-68-8-43 1-5 14-24 15-27 1-1h54l13-4 28-13 19-10 5-3-1-4-4-5 1-2 45-2 78-3 51-17 26-6 20-3zm0 3-27 3-23 5-27 8-26 10-18 8-22 11-28 17-16 10-16 12-11 8-14 10-13 6-15 4-52 6-65 7-1 5 11 59 13 61 13 54 12 41 12 35 12 29 11 20 8 10 7 7 19 10 24 8 36 8 34 5 39 4h6l-5-4-18-11-15-11-14-12-19-19-11-14-9-12-9-15-12-23-9-24-6-21-4-22-2-21v-25l3-28 6-27 7-21 9-20 11-21 14-20 11-14 16-17 10-9 17-13 15-10 16-9 23-11 22-8 25-6 19-3 13-1h37l26 3 26 6 24 8 26 12 22 13 19 14 15 13 15 15 9 11 5 6h19l11 4 12 9 9 10 8 14 2 5v13l-4 13-7 11-8 7 5 28 2 21v28l-2 22-5 25-7 23-8 19-8 16-8 14-11 16-13 16-7 7v2l-3 1v2l-3 1v2l-4 2-7 7-17 13-18 12-10 6 3 1 92-7 22-2h25l10 4 9 7 6 8h64l1-1v-49l1-14 10 5 18 12 17 11 20 13 14 9 21 14 9 1 85-1 15-9 15-10 17-11 25-16 17-11 12-7h2l1 64h36l8-13 9-8 10-4 482-1 18-1 10-3 10-5 10-8 7-8 6-10v-3l-81 2-437 10 15-54 6-24 3-20 3-45 44-7 73-9 52-5 46-3 86-1 101-3 98-4 21-1h32l1 3 2 26h2l12-36 16-64 11-52 2-13-1-1-74-6-162-12-180-12-72-4-45-2-109-3-49-1-32-1-111-2-162-3-40-1-22-2-21-5-14-7-15-12-17-11-17-9-26-10-19-6-26-6-37-6-31-3-18-1zm-15 11-24 3-27 6-21 7-20 9-19 10-15 10-12 9-11 9-16 15-13 15-13 18-11 18-8 16-8 18-8 26-4 21-2 17-1 26 2 28 5 26 7 24 9 21 12 23 8 12 12 16 9 10 7 8 10 10 22 18 17 11 17 10 28 12 23 7 24 5 28 3h25l29-3 24-5 20-6 22-9 25-13 18-12 13-10 13-12 16-16 9-11 11-15 9-15 11-21 10-26 7-28 3-21 1-15v-20l-2-25-5-26-7-23-9-21-11-21-14-21-13-16-26-26-17-13-15-10-18-10-19-9-23-8-19-5-24-4-11-1zm412 2-119 2-69 2-7 1 4 2 28 11 17 9 16 11 13 10 11 7 13 4 17 3 12 1 41 1 117 2 151 3 128 3 94 3 92 5 108 7 166 12 132 10h10l-2-5-11-17-12-19-3-2-55-8-19-5-21-9-15-8-18-9v-2l5-3v-2l-40-2-200-6-83-2-25-1-94-2-64-2-142-3-66-1zm923 250-141 6-59 2-40 1-94 1-53 4-50 5-70 9-32 5-4 2-3 45-4 22-10 38-8 28v5l509-12 7-1 7-10 30-48 16-27 4-8 3-14v-40l-1-10-2-3z" fill="#101010"/>
<path transform="translate(552,598)" d="m0 0h15l27 2 25 4 19 5 12 5 8 6 6 8 2 12v40l-2 13-4 8-11 14-13 16-22 28-9 11-6 4-3 1-13 1h-70l-9-2-6-4-9-10-13-19-12-16-12-17-7-11-3-8v-15l5-26 5-16 4-7 10-7 16-7 17-5 25-5z" fill="#FEFEFE"/>
<path transform="translate(913,620)" d="m0 0h294l11 1 7 4 5 7v18l-3 23-4 9-7 8-7 3-31 4-50 5-50 4-20 1h-20l-43-3-63-6-35-4-11-3-6-4-6-7-4-11-5-24-1-9 2-7 5-5 5-3z" fill="#111"/>
<path transform="translate(547,450)" d="m0 0h30l26 3 17 4 20 8 28 14 19 12 13 11 11 11 8 14 7 15 1 6-1 5v16l3 10 5 9 8 9 11 7 13 4 1 1v8l-4 8-4 3-9-1-40-13-42-11 1-2 8-3 11-8 7-7 7-11 5-13 2-14-1-14-4-13-6-11-5-6v-2l-4-2-10-8-12-6-16-4h-16l-16 4-14 7-10 8-9 12-6 13-3 13v14l3 13 8 16 9 10v1l-48-1 1-5 3-10v-17l-4-12-7-11-11-9-11-5-13-2-14 1-11 4-10 6-8 8-7 14-2 9v13l4 13 7 11 3 3v2l-18 5-30 9-23 8-26 10-6-2-4-5-2-6v-12l4-9 5-6 8-7 10-9 5-7 9-25 8-16 11-17 9-11 15-15 12-9 15-9 17-8 21-6 17-3z" fill="#FEFEFE"/>
<path transform="translate(1301,428)" d="m0 0 80 2 92 3 75 4 103 7 22 2 5 5 9 14 3 7 1 5v12l-3 7-4 2h-10l-93-6-83-6-81-7-47-5-21-4-12-5-13-9-15-15-8-11z" fill="#FEFEFE"/>
<path transform="translate(959,501)" d="m0 0h171l7 2 5 6 2 10 4 51v10l-3 5-4 3-9 1h-176l-7-3-3-6 1-26 3-39 3-10z" fill="#FEFEFE"/>
<path transform="translate(705,698)" d="m0 0h30l17 2 8 4 4 5 2 5v11l-4 15-9 19-9 14-9 12-8 10-11 12-10 10-22 18-16 10-11 4-13 2-24 2h-6l-1-2 8-64 3-14 6-10 12-13 21-21 7-8 16-16 9-5z" fill="#FEFEFE"/>
<path transform="translate(370,697)" d="m0 0h39l9 2 9 6 14 15 9 11 12 14 11 13 7 10 4 10 2 14 5 58v5l-14-1-23-3-11-4-12-7-12-11-8-7-15-16-11-14-10-14-12-21-7-16-4-16v-13l3-7 5-5z" fill="#FEFEFE"/>
<path transform="translate(635,481)" d="m0 0h17l15 4 11 6 9 7 7 7 8 14 4 13 1 14-3 16-5 11-7 10-8 8-9 6-9 4h-8l-38-7-15-2-6-4-9-10-6-10-4-13-1-7v-11l4-16 5-10 7-9 9-9 10-6 15-5z" fill="#FEFEFE"/>
<path transform="translate(1083,623)" d="m0 0h15v1l-20 2v41l1 20 2 4 21 1h30l25-2 25-4 6-1 15-55-2-6h16l5 3 5 6v16l-3 23-4 10-7 6-10 3-65 7-45 4-36 2h-15l-36-2-73-7-37-4-10-3-8-7-4-9-6-27v-14l5-5 5-2h17l-2 5 2 10 12 43 2 3 17 3 22 3 18 1h42l7-1 2-11 1-51-2-4 1-1z" fill="#FEFEFE"/>
<path transform="translate(422,431)" d="m0 0h15l-4 3-16 8-17 9-23 14-18 12-19 14-15 11-14 7-15 4-24 3-84 9h-9l6-11 13-23 8-14 1-1h50l15-4 24-11 20-10 13-7-2-5-2-4 14-1z" fill="#FEFEFE"/>
<path transform="translate(499,520)" d="m0 0h11l12 3 11 6 10 10 6 12 2 7v17l-4 12-2 2-41 6-29 6-4-2-7-8-5-10-2-9v-12l3-11 5-9 9-10 10-6 9-3z" fill="#FEFEFE"/>
<path transform="translate(195,37)" d="m0 0h6l2 3 1 16-2 12-4 9-2 2h-5l3 5 3 1 4-6 5-4 25-3 317-31 42-4h11l7 4 4 6 1 9-18 64-24 84-4 8-8 4-15 2-295 24-63 5h-15l-6-4-4-5-16-47-17-50-1-4v-11l4-6 6-4 21-4 25-4 8-3 3-3 1-5h-12l-5-3-4-8v-4h-6l-4-6-3-9-1-12 2-11 2-3zm395 3-378 37-7 2-5 7-1 11-4 9-8 4-36 6-13 3-6 4-2 3v11l32 96 5 8 4 3h17l83-7 283-23 10-3 4-8 10-34 28-98 4-15v-6l-4-6-3-3-3-1z" fill="#101010"/>
<path transform="translate(548,447)" d="m0 0h28l20 2 20 4 15 5 24 11 25 14 16 12 10 9 7 7 10 17 6 13 9 24 9 10 10 9 5 4 6 9 2 6v14l-4 9-4 4-3 1h-7l-29-10-36-10-30-7-31-6-31-4-31-2-22 1-38 5-33 7-31 8-36 12-28 11-6 1-7-3-5-8-1-4v-13l4-10 7-8 14-12 6-7 9-24 9-19 11-17 8-10 10-11 11-9 11-8 17-10 17-7 13-4 23-4zm-1 3-28 3-22 5-16 6-19 10-14 10-12 11-10 10-11 15-11 19-6 15-6 17-7 9-14 13-5 4-4 6-2 6v12l3 8 4 4 5 1 31-12 37-12 27-7 2-1-2-4-7-10-4-10-1-5v-13l3-12 7-12 8-8 16-8 12-2 15 1 11 4 9 6 6 5 7 11 4 12v17l-3 10-1 5 48 1-6-7-7-11-5-12-2-10v-14l4-16 7-13 8-10 14-10 12-5 13-3h16l16 4 12 6 10 8 4 2 2 4 7 11 5 12 2 14-1 14-4 14-6 11-11 12-10 7-9 4 3 2 39 10 43 14h6l5-4 3-7v-8l-9-3-12-6-10-9-6-10-3-7-1-5v-16l1-6-3-10-11-21-9-10-8-8-15-11-19-11-26-13-16-6-17-4-26-3zm88 31-16 4-12 6-10 9-7 8-6 10-4 13-1 6v11l2 12 4 10 9 13 7 7 4 2 32 5 21 4h8l12-6 9-7 7-7 6-9 5-13 2-13-1-14-4-13-6-11-9-10-9-7-14-7-12-3zm-136 39-13 3-9 5-10 9-6 10-3 8-1 5v12l3 11 5 9 8 9 25-5 33-5 14-2 3-5 3-9v-17l-4-12-6-9-8-8-14-7-9-2z" fill="#101010"/>
<path transform="translate(1495,27)" d="m0 0h22l369 36 9 3 5 6v2l8-4-8-3-5-15v-21l1-4h16l19 2 4 1 2 8v18l-5 13-3 2h-5l-1 8-3 5-4 2h-13l1 5 4 4 5 2 45 7 8 4 4 5 1 2v11l-33 99-6 9-4 2h-18l-367-30-9-3-5-5-6-18-38-133v-8l3-6zm3 2-6 4-3 4-1 7 4 16 16 56 15 53 6 21 5 10 9 3 366 30h19l5-5 7-18 27-81 1-4v-10l-4-5-7-3-47-8-7-4-4-8-1-11-4-7-9-3-378-37z" fill="#101010"/>
<path transform="translate(1389,730)" d="m0 0h101l8 3 6 9v9l-4 6-3 3-3 1h-106v-30z" fill="#FEFEFE"/>
<path transform="translate(1297,425)" d="m0 0h14l110 3 79 3 64 4 96 7 13 1 5 3 6 8 8 15 2 7v13l-4 8-4 3h-24l-80-5-94-7-59-5-58-6-25-5-12-5-12-9-10-9-9-10-7-12zm4 3 2 4 4 6 9 10 9 9 14 9 10 4 21 4 47 5 81 7 54 4 122 8h10l4-2 3-7v-12l-3-10-9-15-4-5-2-1-50-4-90-6-86-4-98-3z" fill="#101010"/>
<path transform="translate(766,515)" d="m0 0h16l12 5 12 10 9 12 7 14v12l-4 13-8 11-5 4-2-2-8-23-11-24-11-19-7-11z" fill="#FEFEFE"/>
<path transform="translate(553,595)" d="m0 0h13l28 2 25 4 19 5 15 6 10 8 4 8 2 11v41l-2 13-6 12-10 12-11 14-13 16-11 14-9 10-8 6-3 1h-89l-12-6-8-10-12-17-26-36-7-11-3-8v-18l6-29 5-14 5-7 14-9 19-7 24-6 27-4zm-1 3-28 3-29 6-21 7-13 7-5 4-6 12-6 25-2 12v15l5 12 26 36 12 17 10 13 7 6 5 2 6 1h70l13-1 8-4 8-9 13-17 14-17 10-13 11-14 4-8 2-13v-40l-2-12-6-8-8-6-12-5-19-5-25-4-27-2z" fill="#101010"/>
<path transform="translate(1184,638)" d="m0 0h14l-2 11-2 4-3 1-77 1h-33l-1-1v-14l3-1z" fill="#FEFEFE"/>
<path transform="translate(898,638)" d="m0 0 116 1 2 2-1 14h-25l-87-1-2-1-3-11z" fill="#FEFEFE"/>
<path transform="translate(960,498)" d="m0 0h167l9 1 8 7 3 9 4 49v17l-4 7-6 3-6 1h-179l-7-2-5-6-1-2v-16l4-51 2-9 5-6zm-1 3-6 4-3 10-4 55v10l3 6 7 3h176l9-1 6-5 1-3-1-26-3-35-2-10-5-6-7-2z" fill="#101010"/>
<path transform="translate(1085,657)" d="m0 0h108l-3 13-1 1-52 1h-56l-1-14z" fill="#FEFEFE"/>
<path transform="translate(903,656)" d="m0 0 98 1 14 1v14h-58l-50-1-2-3-2-8z" fill="#FEFEFE"/>
<path transform="translate(371,694)" d="m0 0h39l13 4 10 8 22 26 9 11 12 14 7 10 4 10 2 15 5 55v11h-11l-30-4-13-5-11-7-13-11-19-19-9-11-10-13-12-19-8-16-6-15-3-13v-13l4-10 6-5zm-1 3-10 3-5 5-3 7v13l4 16 9 20 12 20 14 19 13 14 7 8 15 14 13 9 11 5 17 3 18 2h6l-2-30-4-42-3-11-7-12-11-12-9-11-13-15-7-8-9-10-8-5-9-2z" fill="#101010"/>
<path transform="translate(704,695)" d="m0 0h31l17 2 9 4 6 7 2 6v11l-4 15-7 16-8 14-14 19-9 10-7 8-10 10-8 7-12 10-10 7-14 8-14 4-31 3h-11l1-15 8-61 4-12 8-11 20-20 7-8 26-26 12-6zm1 3-12 3-9 6-20 20-7 8-23 23-8 11-3 7-4 27-6 49 1 1 18-1 20-2 11-3 12-6 14-10 13-11 12-11 10-10 11-14 10-13 11-19 6-13 4-15v-11l-4-8-5-4-10-3-12-1z" fill="#101010"/>
<path transform="translate(908,674)" d="m0 0h46l61 1-1 14-2 1h-52l-28-3-20-3-3-2z" fill="#FEFEFE"/>
<path transform="translate(1149,674)" d="m0 0h39l-1 6-4 4-35 5-13 1h-52l-2-5v-10z" fill="#FEFEFE"/>
<path transform="translate(194,40)" d="m0 0h5l1 1 1 8v9l-4 15-4 4-22 2-4-4-3-10v-15l1-6 11-2z" fill="#FEFEFE"/>
<path transform="translate(1900,29)" d="m0 0 31 3 2 2 1 7v12l-4 13-2 2-22-2-4-2-4-12-1-5v-11l1-6z" fill="#FEFEFE"/>
<path transform="translate(1023,896)" d="m0 0h79v2l-15 9-18 12-7 4-5-2-15-10-17-11-3-3z" fill="#FEFEFE"/>
<path transform="translate(1080,628)" d="m0 0h121l-1 6-1 1-24 1-72 1h-23z" fill="#FEFEFE"/>
<path transform="translate(896,627)" d="m0 0 119 1 1 2v6l-5 1-90-1-25-1-1-7z" fill="#FEFEFE"/>
<path transform="translate(1386,727)" d="m0 0h105l8 3 6 7 2 4v11l-4 6-6 5-4 1h-108v-36zm3 3-1 1v30h106l5-3 4-5 1-2v-9l-6-9-8-3z" fill="#101010"/>
<path transform="translate(728,552)" d="m0 0h2l6 15 7 9 14 12 7 8 3 6v3l-9-1-11-6-9-8-7-11-3-11z" fill="#FEFEFE"/>
<path transform="translate(183,80)" d="m0 0 5 1 4 5 5 4v3l-3 1h-12l-4-6-1-7z" fill="#FEFEFE"/>
<path transform="translate(1912,69)" d="m0 0 9 1 1 3-3 6-3 3-3 1h-11l-2-4 1-2 8-4z" fill="#FEFEFE"/>
</svg>
