<?xml version="1.0" encoding="UTF-8"?>
<svg version="1.1" viewBox="0 0 1964 1400" width="491" height="350" xmlns="http://www.w3.org/2000/svg">
<path transform="translate(0)" d="m0 0h1964v1400h-1964z" fill="#141414"/>
<path transform="translate(0)" d="m0 0h1964v1400h-1964zm121 48-1 103v459l1 121h-9l-5 3-11 18-12 18-16 25-10 15-13 20-4 7v5l7 9 9 14 8 12 13 20 12 19 13 20 5 8 12 2 1 401h133l10 4 21 14 19 12 17 11 11 7 5 1 9-2 18-11 33-22 18-11 8-3h1420l12-1v-380h21l10-1 5-5 9-15 10-15 12-19 15-23 18-27-1-5-10-16-10-15-15-24-18-27-13-21-1-1-31-1-1-572v-130l-1-1z" fill="#FEFEFE"/>
<path transform="translate(134,51)" d="m0 0h1552l25 1-3 2-35 9-42 12-18 6-21 9-35 17-39 20-23 12-33 18-4 5-1 4 3 5 5 4 16 9 28 15 34 18 32 17 18 10 16 8 34 18 14 8-2 7-6 8-4 1-20-2h-24l-26 3-23 4-30 7-5 1 3-10 3-13-1-6-9-8-12-6-21-7-25-5-6-1h-13l-19 3-24 6-16 6-5 3-4-1-25-11-24-9-19-7-14-4-8 1-5 4-3 8 1 10 4 23 2 15 7 19 7 12 4 5 7 4 3 1 26 2 6-2v3l-12 11-15 15-18 10-60 30-5-1-8-36-11-49-16-70-7-30-5-9-8-4-49-11-100-20-36-6-29-3-17-1h-67l-37 2-29 3-8 3-7 8-6 15-2 8-1 9-1 220-11-6-4-2 1-4 2-7v-21l-4-24-6-23-8-18-8-15-8-12-7-8-11-7-12-5-1-1-5-58-2-12-5-10-8-9-13-9-9-4-14-2h-13l-42 3-38 4-50 7-33 6-24 8-22 10-18 10-23 14-9-1-28-8-27-6-22-3h-46l-34 3-24 4-24 7-16 8-9 7-8 10-6 13-5 16-3 16h-1v-49l1-146 1-59z" fill="#FEFEFE"/>
<path transform="translate(585,522)" d="m0 0 6 2 5 12 6 22 2 10v18l-4 11-9 15-10 14-13 19-6 8-14 22-8 17-8 24-9 36-6 31-4 41-4 79-3 80-1 20-3 8-11 13-18 24-12 15-11 14-14 18-10 13-11 14-14 18-20 25-22 28-13 16-8 10-11 14-9 11-13 16-12 14-7 8-5 6-5-2-18-11-21-14-5-3v62l-10 5-21 7-29 7-23 3-21 1-1-1v-396l1-1 51-1-3-8-20-30-16-25-11-17-2-5v-41l4-9 11-16 11-17 15-24 10-15 2-5h-52l-1-1v-68l6-2 178-34 75-16 42-10 30-10 25-12 25-13 10-6 11-6 25-14 26-16z" fill="#FEFEFE"/>
<path transform="translate(1848,486)" d="m0 0h1l1 96 1 169-2 1h-34l12 20 10 15 10 16 1 4-22 26-11 14-13 16-11 14-9 11-11 14-10 12-7 9-11 13-7 9-11 13-8 10-11 13-11 14-8 9-9 11-12 14-9 11-12 13-11 13-9 10-11 12-12 13-7 8-4 5h-2l-2 4-13 13-7 8-53 53-8 7-26 26-8 7-10 10-8 7-32 30-7 7h-2v2l-8 7-7 7h-2v2l-8 7-15 15-8 7-9 9-4 1h-168l6-11 9-16 13-22 12-20 17-29 6-9 14-23 10-14 6-9 14-19 9-12 13-17 10-13 13-17 12-15 11-14 13-16 13-17 11-13 11-14 18-22 26-32 9-11 28-34 11-13 11-14 12-14 8-10 12-14 8-10 12-14 8-10 12-14 8-10 9-10 10-13 13-15 22-26 11-14 11-13 7-9 13-16 14-17 11-14 14-17 26-32 11-14 11-13 11-14 11-13 11-14 14-17 8-10 10-13z" fill="#FEFEFE"/>
<path transform="translate(257,225)" d="m0 0h41l23 3 28 6 28 8 17 6 20 9 11 7 12 11 9 9 9 11 14 19 13 20 10 17 10 21 8 22 7 25 7 31 4 24 1 10v33l-4 16-5 8-6 7-8 6-9 5-10 5-24 9-26 8-34 8-39 7-33 5-23 3-33 3h-43l-24-3-15-4-13-7-8-7-9-12-9-17-7-18-8-28-7-35-5-36-2-29-1-33v-23l1-26 2-19 4-19 6-18 6-11 8-10 10-7 13-6 16-5 25-5 28-3z" fill="#FEFEFE"/>
<path transform="translate(1848,810)" d="m0 0h2l1 2v95l-6 12-16 24-11 17-1 4 3 1 30 1 1 2v374l-2 1h-489l1-3 8-7 18-18 8-7 16-16 8-7 17-16 10-9 8-8 8-7 15-15h2v-2l8-7 10-10 8-7 6-6h2v-2l8-7 43-43 7-8 12-12 7-8 14-15 15-16 9-10 9-11 7-7 7-8 12-14 9-11 8-9 9-11 14-17 11-13 9-11 11-13 11-14 11-13 11-14 9-11 13-16 11-14 9-11 13-16 8-10 11-14z" fill="#FEFEFE"/>
<path transform="translate(1212,379)" d="m0 0 5 1 5 18 5 22 5 32 2 20v8l-6 11-10 16-8 15-11 25-14 36-9 24-9 25-5 12-1 2 4 2 12 9v2l4-1 4-6h3l-1 5-2 3-1 6-4 1-20-11-8-4 1-4 7-14 2-1 1-3-4-1-2 6-7 15v4l6 4-2 8-5 16-5 19-6 18-3 3-6-6v-2h-2l-7-8-23-23-10-7-13-4-26-6-38-7-39-5-16-1h-23l-13 4-16 8-14 9-9 7-16 9-8 8-12 17-6 9-24-5-18-6-12-7-6-5-4-6-2-7v-16l3-47 5-82 1-11 8-22 2-11 1-22v-36l-5-2 1-31 1-1h158l50-1 47-3 42-5 50-7 45-7z" fill="#FEFEFE"/>
<path transform="translate(885,170)" d="m0 0h40l43 2 47 7 43 8 55 11 54 12 10 4 5 7 6 24 22 97 7 31-1 3-83 13-49 7-34 4-40 3-26 1-56 1h-46l-79-1-16-1v-194l5-17 5-9 4-5 8-3 18-2z" fill="#FEFEFE"/>
<path transform="translate(481,1041)" d="m0 0 3 1v2h20l76 1 103 2-2 9-12 39-8 27-9 27-6 15-5 20-3 22-1 16v30l2 24 4 28 6 23 5 13 2 3-232 1 3-3 16-10 3-5-1-67-14 8-18 12-14 9-20 13-35 23-5 3-4-2-15-10-38-25v-2l5-3 7-7 8-10 9-11 11-13 7-9 13-16 11-14 13-16 11-14 10-13 13-16 9-12 12-15 10-13 33-42 10-13z" fill="#FEFEFE"/>
<path transform="translate(1657,414)" d="m0 0 37 3 29 4 114 19 12 3 2 2-1 34-12 14-11 14-18 22-11 14-12 14-11 14-26 32-9 11-11 14-11 13-11 14-10 12-9 11-11 14-11 13-11 14-14 17-8 9-10 13-10 11-11 14-7 8-10-3-25-11-35-17-15-9-9-8-9-11-13-17-17-25-11-17-3-4v-5l9-10 10-13 13-16 9-11 13-16 11-14 11-13 8-10 22-26 9-11 11-13 8-10 12-14 9-11 12-14 9-11 9-10 9-11 14-15z" fill="#FEFEFE"/>
<path transform="translate(684,1133)" d="m0 0h28l30 4 45 8 50 10 74 16 50 10 56 13 78 20 55 16 51 15 30 9-4 10-12 20-14 24-13 22-8 13-1 1-29-1-24-5-49-9-69-13-70-14-54-10-41-6-45-4h-34l-21 3-14 5-9 7-8 9-10 17-7 18-2 2h-33l-3-2-6-15-6-26-4-28-1-14v-45l3-25 4-19 6-17 6-10 8-5z" fill="#FEFEFE"/>
<path transform="translate(830,767)" d="m0 0h42l35 2 40 4 40 6 40 8 37 9 30 8 53 16 19 6 6 2 3 7 10 45 5 15 12 34 12 36 10 29 3 6v4l-9-1-211-57-84-21-36-7-28-4-21-2h-47l-15 2-8 2h-4l2-10 12-42 8-22 19-38 12-22 7-11 3-3z" fill="#FEFEFE"/>
<path transform="translate(1592,295)" d="m0 0h38l15 2-1 6-13 28-10 24-1 3-7 2-21 3-17 5-18 8-27 16-22 13-16 6-4 1-1 2 15-4 19-9 23-15 18-10 20-8 23-5 13-1-4 3-10 4-16 5-17 7-15 9-16 13-13 12-22 22-9 11-10 11-18 22-10 12-8 11-10 13-24 32-11 15-14 19-9 12-13 17-13 19-13 21-11 16-13 16-11 14-10 13-14 17-9 11-8 10-10 15-14 25-17 32-9 19-16 32-9 17-2-3-4-13-7-32-2-14-5-4-5-9-3-8 1-4 20-39 10-19 18-35 12-22 12-23 24-44 10-18 10-17 14-22 14-21 13-18 14-20 12-17 12-16 8-11 7-10 14-19 13-18 9-12 6 2 9 4 24 4 27 2 7 1-1-4-7 1h-6l-2-1-25-2-16-3-12-6-6-7-3-7v-9l4-9 11-12 11-8 13-8 16-8 18-8 25-9 20-6 29-7 30-5z" fill="#FEFEFE"/>
<path transform="translate(794,914)" d="m0 0h39l31 3 37 6 42 9 2 1 6 66 2 45-1 15-5 20-12 37-8 21-11 30-1 1-11-1-100-21-66-12-23-3-11-1h-15l-17 3-11 5h-2l3-10 14-48 9-29 9-24 11-28 8-19 8-16 9-16 8-11 10-10 11-6 14-4z" fill="#FEFEFE"/>
<path transform="translate(1734,51)" d="m0 0h114l3 1v136l-12 2-48 6-24 4-23 6-19 7-16 8-11 8-11 11-11 14-13 18-3 4-5-2-22-12-27-14-22-12-38-20-32-17-28-15-20-11-7-6 1-5 8-6 27-14 16-9 16-8 39-20 29-14 28-11 26-8 51-14 20-5z" fill="#FEFEFE"/>
<path transform="translate(1501,750)" d="m0 0 5 1 14 9 25 13 20 9 27 11-6 9-3 4h-2l-2 4-11 13-8 10-13 15-13 16-22 26-10 13-12 14-8 10-11 13-11 14-11 13-9 11-11 14-11 13-8 10-14 17-11 14-28 35-11 14-12 15-20 26-9 12-10 13-15 20-5 8h-2l-1 2-3-9-13-42-6-22-3-14v-8l5-8 13-23 14-25 12-21 14-25 10-17 9-15 11-19 12-19 10-14 10-13 14-17 9-10 7-8 12-14 11-12 7-8 7-7 7-8 7-7 7-8 14-15 2-3h2v-2h2l2-4z" fill="#FEFEFE"/>
<path transform="translate(1844,192)" d="m0 0h6l1 7v126l-1 114-21-3-81-13-42-7-42-5-21-4-13-5-9-6-5-10 1-11 5-16 6-16 17-36 10-18 12-18 13-18 9-11 11-12 13-9 15-7 24-8 28-6 38-5z" fill="#FEFEFE"/>
<path transform="translate(956,1055)" d="m0 0 24 3 52 7 35 6 33 8 67 19 52 15 26 8 4 3 12 41 8 26-1 7-11 17-14 23-8 13-15-3-120-35-74-19-50-12-48-10-9-2-1-3 8-20 11-30 10-30 6-22 2-9z" fill="#FEFEFE"/>
<path transform="translate(784,443)" d="m0 0h4l1 2v49l-2 15-4 11-11 21-16 27-11 18-5 12-4 18-7 62-6 39-5 28-4 13-9 14-10 13-9 11-9 12-19 19-5 6h-1l-1-104-1-15-6-18-8-16-4-5-11-4-26-4-36-2 1-5 11-15 13-18 15-23 6-13 2-10-2-22-8-29-3-6v-2l-5-2-5-3v-4l72-24 45-14 23-7 25-10 27-11z" fill="#FEFEFE"/>
<path transform="translate(621,182)" d="m0 0h37l11 4 10 6 10 9 7 11 3 16 4 48 1 5-10-1-10-2-20-1-17 1-15 3-12 5-7 7-5 12-2 9-1 10v48l3 27 1 10h-12l-78-7-4-1-12-33-12-24-9-15-17-25-9-12-12-14-4-4v-2l-4-2-9-8-15-9-21-9v-3l22-13 18-10 25-11 20-6 26-5 49-7 37-4z" fill="#FEFEFE"/>
<path transform="translate(556,668)" d="m0 0h22l24 2 18 3 10 4 5 6 9 20 4 13 1 120-1 16-8 12-12 15-8 11-20 26-8 14-3 8-3 10-4 6-15 10-20 12-6 1h-30l-1-1v-23l2-60 4-74 4-37 5-28 10-40 7-21 8-17z" fill="#FEFEFE"/>
<path transform="translate(1612,391)" d="m0 0 4 2 5 7 12 6 19 6-2 4-11 14h-2l-2 4-9 10-11 14-11 12-8 10-11 13-9 11-12 14-14 17-11 13-9 11-11 13-7 9-13 16-9 11-11 14-8 9-9 12-13 16-11 15-14 19-13 19-11 17-13 20-12 19-11 18-11 17-15 25-24 39-13 22-8 13-10 17-33 55-14 24-4 5h-2v-12l8-21 19-45 16-37 8-20 8 2 10-19 3-8-1-5-4-2 1-5 4-9 13-29 16-34 7-15 12-25 15-30 10-18 11-19 9-13 13-19 9-12 11-16 8-11 12-17 11-15 13-18 13-17 13-16 11-14 9-11 9-10 9-11 7-7 7-8 11-11 8-7 12-10 13-8z" fill="#FEFEFE"/>
<path transform="translate(947,934)" d="m0 0 8 1 77 20 71 19 66 18 54 15 6 2 6 38 4 28 5 27 3 14-1 3-15-5-87-25-47-13-23-6-34-6-48-7-32-4-4-2-1-30-3-42-4-40z" fill="#FEFEFE"/>
<path transform="translate(648,858)" d="m0 0h27l57 3 42 3-1 8-11 39-2 7-9 5-11 8-6 7-7 10-13 25-9 20-11 28-8 21-1 2-98-1-65-1-35-1-2-2 7-12 11-13 4-7 1-5 1-18 1-4 31-1 9-2 26-16 9-6 5-12 4-12 7-12 14-18 24-32 7-9z" fill="#FEFEFE"/>
<path transform="translate(1444,670)" d="m0 0 3 1 6 11 22 32 12 16 13 16-6 7-8 8-7 8-14 14-7 8-6 7h-2l-2 4-13 13-7 8-12 13-10 11-7 8-12 14-10 11-22 28-9 13-12 19-11 19-9 15-13 22-10 18-9 16-16 28-15 27-4 9-2-3-3-15-8-55-1-13 7-12 15-25 14-24 17-28 16-27 12-20 14-23 16-26 13-21 12-19 14-23 10-15 14-22 15-22 12-17z" fill="#FEFEFE"/>
<path transform="translate(659,279)" d="m0 0h18l20 4 16 6 11 6 8 7 8 11 9 16 7 14 6 18 6 29 1 9v17l-3 9-5 6-13 8-19 6-25 6-22 4-24 2h-10l-12-3-8-5-6-8-5-12-5-20-3-21-2-25v-38l3-19 7-14 8-6 11-4 11-2z" fill="#FEFEFE"/>
<path transform="translate(777,536)" d="m0 0 1 4-5 77-3 46v29l4 8 5 5 8 6 13 6 22 6 14 3-3 9-15 33-2 9-8 17-10 18-13 26-7 17-2 6-37-2-54-3-33-1-1-5 1-13 24-24 9-11 13-16 13-18 5-8 5-16 10-60 4-37 4-35 4-16 8-16 7-10 10-18z" fill="#FEFEFE"/>
<path transform="translate(1613,368)" d="m0 0h3l-2 11-1 8-8 5-21 12-9 7-14 12-23 23-7 8-11 12-9 11-14 17-7 9-11 14-14 19-12 16-12 17-8 11-16 23-9 12-13 19-12 18-13 23-13 24-16 33-13 26-7 16-13 28-11 25-8 17-3 3-16-12-4-4 1-7 7-20 17-39 13-28 11-24 10-21 8-16 15-27 13-21 13-18 14-18 13-18 14-19 42-56 13-16 9-11 11-13 7-8 9-10 2-3h2l2-4 26-26 11-9 13-10 14-8 19-7z" fill="#FEFEFE"/>
<path transform="translate(768,1284)" d="m0 0h27l44 4 49 7 69 13 70 14 82 15 25 5 1 2-148-1h-288l-1-4 9-20 7-11 9-11 9-6 13-4 11-2z" fill="#FEFEFE"/>
<path transform="translate(235,1264)" d="m0 0 5 2 43 28 23 15 31 20 5-1 23-15 12-8 20-13 25-16 18-12h2v63l-8 7-16 10-17 11-16 10-36 24-9 5-5-1-19-12-32-21-25-16-21-14-3-3z" fill="#FEFEFE"/>
<path transform="translate(169,734)" d="m0 0h7l-4 8-19 29-10 15-10 16-10 15-13 19 1 6 8 12 21 32 15 23 11 17 9 14v2h-61l-5-2-10-17-11-17-14-22-28-42-1-5 6-10 10-15 11-17 9-14 11-17 14-22 4-6 1-1z" fill="#FEFEFE"/>
<path transform="translate(1821,755)" d="m0 0h62l5 5 11 17 12 19 17 26 21 32 2 6-10 16-24 36-15 24-10 15-5 9-3 2-56 1-7-1 2-5 10-15 12-19 10-15 6-10 7-10 15-23 2-4-1-7-26-39-7-12-7-10-11-17-9-14-3-5z" fill="#FEFEFE"/>
<path transform="translate(1437,253)" d="m0 0 16 1 25 5 17 5 17 8 8 7 1 6-7 22-8 4-28 10-20 9-23 12-14 10-15 15-9 2h-34l-11-3-5-5-1-3v-9l5-19 9-25 7-21 7-13 10-6 26-7z" fill="#FEFEFE"/>
<path transform="translate(893,686)" d="m0 0h14l28 1 26 3 16 3 2 7 5 24 1 15-4 11-9 16-3 6-3 1-44-5-23-2-44-2h-28v2l-5 1 9-20 11-24 11-16 11-13 5-4 7-3z" fill="#FEFEFE"/>
<path transform="translate(1401,371)" d="m0 0h3l-1 12 4 11 2 5-11 15-14 19-33 45-12 17-10 14-14 20-10 14-7 11-8-5-6-3-4-4-6-12-3-5 1-6 7-10 11-16 24-36 15-22 11-16 16-23 10-15 6-8z" fill="#FEFEFE"/>
<path transform="translate(516,404)" d="m0 0 21 2 57 5 15 1 3 8 5 16 5 10 5 5 5 4 15 4h12l11-1-1 3-30 10-36 10-26 9-10 6-5 5-2 3h-12l-11 3h-4l-2-29-4-26-9-39z" fill="#FEFEFE"/>
<path transform="translate(1345,365)" d="m0 0 8 4 15 3-2 5-11 15-4 6-26 38-15 22-21 31-21 32-8 13-6 11-13 24-11 20-7 14-10 18-13 24-5 10-8 15h-2l-1-3 3-6 3-8v-4l-3-3 11-31 16-39 13-31 10-21 17-28 16-26 15-24 29-43 14-19 13-15z" fill="#FEFEFE"/>
<path transform="translate(545,507)" d="m0 0h11l19 5 6 4 1 4-28 17-24 14-22 12-10 6-16 8-23 11-25 9-31 8-36 8-43 9-45 9-37 7-51 10-55 10-9 1v-13l8-3 64-16 34-9 14-4 13-3 32-3 35-4 39-6 43-8 36-9 36-12 16-7 12-7 12-11 6-10 3-9 2-12 3-3z" fill="#FEFEFE"/>
<path transform="translate(933,655)" d="m0 0h25l42 5 36 6 37 8 12 4 8 6 10 9 13 13 7 8 12 12-1 2-7-3-60-15-52-12-39-8-26-4-24-2h-44l1-3 16-11 16-9 13-5z" fill="#FEFEFE"/>
<path transform="translate(988,741)" d="m0 0 17 2 45 8 25 6 29 9 36 12 10 4 6 15 6 13 4 10-1 2-21-6-37-11-41-11-38-9-55-11v-4l9-16 5-12z" fill="#FEFEFE"/>
<path transform="translate(1280,239)" d="m0 0h7l42 15 31 13 9 4-1 6-4 8-14 41-4 8-4 3h-35l-7-3-5-5-6-8-4-8-3-9-5-25-4-24v-8l3-5z" fill="#FEFEFE"/>
<path transform="translate(1329,675)" d="m0 0 1 3-8 15-22 46-16 36-13 30-2 6-4-1-2-2h-5l-9 16-7 14 1 3 8 6 1 3-6 12-8 19-5 17-6 16-5 12-7 18-2 5-2-4-6-15-11-33v-6l44-88 10-18 14-24 10-14 11-13 9-11 14-18 9-11 12-16z" fill="#FEFEFE"/>
<path transform="translate(981,694)" d="m0 0 14 2 54 12 84 21 1 2-2 7v7l12 11 4 5 1 9v7l-7-1-36-12-33-10-26-6-32-6-25-4-2-2-6-38z" fill="#FEFEFE"/>
<path transform="translate(1343,340)" d="m0 0h2l-2 22-10 11-11 14-13 18-27 41-9 14-17 28-12 19-13 24-13 29-22 55-12 31-5 9-4-2-8-7v-7l14-40 17-43 11-26 8-16 9-16 9-13 6-10 10-15 16-25 11-16 14-20 10-14 9-12 9-10 7-8 13-13z" fill="#FEFEFE"/>
<path transform="translate(125,448)" d="m0 0h1l4 30 7 34 9 31 8 19 7 14 10 13 10 8 11 5 15 4 23 3 17 1-2 2-28 8-42 11-47 12h-3l-1-29v-162z" fill="#FEFEFE"/>
<path transform="translate(1279,548)" d="m0 0 5 1 8 4 4 1-2 5-17 28-15 26-12 22-15 28-12 22-11 20-8 16-13 25-8 16-17 33-3 6-3-4-6-14v-7l7-15 14-29 19-39 17-34 16-27 12-20 11-18 16-26 10-16z" fill="#FEFEFE"/>
<path transform="translate(765,431)" d="m0 0 6 1 11 7v2l-21 10-30 12-24 8-55 17-43 14-18 6-10 2-15-4-4-3 10-8 11-5 25-8 36-10 28-10 21-6 30-7 23-7 12-6z" fill="#FEFEFE"/>
<path transform="translate(1268,526)" d="m0 0 3 3 6 17-6 9-15 24-12 20-8 13-12 19-6 11-12 21-22 44-11 23-9 19-6 13-4 8-2-1-1-6v-10l3-12 8-19 11-21 6-10 8-16 14-27 12-22 9-16 6-12 8-14 8-16 14-25z" fill="#FEFEFE"/>
<path transform="translate(1255,851)" d="m0 0 5 1 12 8 1 5-4 5-4 7-6 9-1-3 5-9-1-6-8-4-3 3-5 10-3 9 6 5 4 1v2l6-3 8-13 7-11 4-1-1 6-15 35-11 26-10 24-11 26-3 7-2-1-10-31-1-6 4-9 12-31 10-27 3-10 9-17z" fill="#FEFEFE"/>
<path transform="translate(1028,143)" d="m0 0 22 2 81 9 30 4 6 2 2 2 1 26h-9l-17-2-1-1-1-16-11-1-64-7h-11l-5 11-1 1h-10l-20-3-2-1 2-9 6-16z" fill="#FEFEFE"/>
<path transform="translate(592,141)" d="m0 0h19l2 2 5 22-2 4-15 2h-9l-3-9-3-5-4-1-48 4-33 3-1 13-7 2-27 2 1-16 2-9 3-3 15-2z" fill="#FEFEFE"/>
<path transform="translate(1305,373)" d="m0 0 3 1-7 7-9 13-16 23-11 16-12 19-11 17-4 6h-1l-4-34-4-24v-5l66-33z" fill="#FEFEFE"/>
<path transform="translate(1854,815)" d="m0 0 4 4 10 16 12 18 3 4-1 4-7 12-9 13-9 14-2 1z" fill="#FEFEFE"/>
<path transform="translate(604,137)" d="m0 0h6l5 4 3 7 4 22-6 2-17 2h-10l-2-6-2-8-5-1-69 6-7 1-1 14-20 2-11 1h-10l1-14 3-15 2-4 9-2 56-5zm-12 4-115 10-6 2-3 5-2 15v7l27-2 7-2 1-13 68-6 15-1 4 4 3 10 1 1h9l15-2 2-4-5-22-2-2z" fill="#141414"/>
<path transform="translate(1025,141)" d="m0 0h16l82 9 40 5 7 2 2 3 1 6v25h-11l-21-3-1-1-1-14-7-2-63-7h-11l-5 12h-12l-27-4 1-7 7-19zm3 2-3 3-6 17-1 6 7 2 15 2h10l3-5 3-7h11l64 7 11 1 1 16 1 1 17 2h9l-1-26-3-3-26-4-80-9-28-3z" fill="#141414"/>
<path transform="translate(1173,670)" d="m0 0h2l-1 6-7 18-10 30-7 20-3 9-5-2-7-7v-7l15-49 2-3 6 2 6 1 2-6 5-10z" fill="#FEFEFE"/>
<path transform="translate(1259,812)" d="m0 0h6l1 1-1 7-4 14 6 2 17 13 5 2 2-5 4-7 4 2-3 10-7 16-4-1-6-5-29-19-4-3 1-6 10-19z" fill="#FEFEFE"/>
<path transform="translate(228,1325)" d="m0 0h4l3 6 17 11-1 2h-89v-1l28-6 27-8z" fill="#FEFEFE"/>
<path transform="translate(1182,671)" d="m0 0h3l-2 6-16 31-2 1 3-11 10-26z" fill="#FEFEFE"/>
<path transform="translate(1253,868)" d="m0 0h5l2 3-1 5-5 8-6 2 1-11z" fill="#FEFEFE"/>
<path transform="translate(121,825)" d="m0 0 1 2v25l-4-4-6-10 2-4z" fill="#FEFEFE"/>
<path transform="translate(1159,661)" d="m0 0 6 1 6 4-2 4-3 1-8-3z" fill="#FEFEFE"/>
<path transform="translate(1164,672)" d="m0 0h2l-2 5-3 4-6-1 1-5z" fill="#FEFEFE"/>
</svg>
