<?xml version="1.0" encoding="UTF-8"?>
<svg version="1.1" viewBox="0 0 2048 1292" width="583" height="368" xmlns="http://www.w3.org/2000/svg">
<path transform="translate(0)" d="m0 0h2048v1292h-2048z" fill="#1D1D1D"/>
<path transform="translate(0)" d="m0 0h2048v1292h-2048zm187 42-1 31v959l1 173 2 1h243l13-1 7 3 16 10 11 7h7l7-3 20-13 8-4 219 1h198l1049-1v-1163z" fill="#FEFEFE"/>
<path transform="translate(1978,245)" d="m0 0h5v956l-152 1h-216l-5-1v-20l3-42 6-60 7-51 7-37 8-32 12-36 11-28 17-39 13-29 13-28 14-33 15-37 18-42 19-43 11-25 5-19 1-10v-17l-3-26-5-21-7-14-9-10-8-7-12-7-9-3-29-5-40-5-18-3h-10v1l21 3 10 5 11 11 6 12 2 7 1 8v17l-2 15-6 21-11 28-15 31-12 22-16 30-10 18-16 29-12 22-10 18-13 24-12 22-18 34-18 35-18 36-15 33-11 25-14 36-10 31-6 25-3 18-1 10v18l3 31 5 30 4 18v5h-51l-7-6-14-10-13-10-14-11-18-14-13-11-11-9-12-11-8-7-13-13-5-6-11-9-12-10-20-15-19-14-20-14-19-13-10-8-9-9-9-13-9-16-5-16-4-20-1-9v-29l3-21 6-26 6-18 8-16 8-14 13-19 11-16 11-14 14-19 14-18 10-13 14-18 10-13 14-19 10-16 7-19 7-30 5-21 6-16 9-14 12-16 5-5 9-8 18-11 13-6 20-6 25-5 41-4 26-2 46-2 40-1-42-1-4-1-4 1h-14l-2-2-3 3-48 3-30 3h-7l5-5 13-10 11-9 5 2 12 6 15 2h13v-1l-24-2-10-4-6-4-4-5-1-3v-11l5-13 10-19 10-18 5-11 4-16 5-44 3-10 6-10 11-9 16-10 16-8 13-4 33-6 8-1h20l8 4 4 5 5 12 3 17v33l-3 22-6 21-10 24-10 19-7 11-2 4 3-1 11-18 8-16 10-25 4-14 3-15 2-21v-18l-3-21-4-13-3-4v-2l19 4 20 7 9 5 10 9 7 9 9 19 5 16 1 8v9l-3 14-8 20-10 19-13 19-9 10-7 7-15 10-9 5v2l13-7 17-12 7-7 12-16 11-19 9-19 6-18 1-4v-16l-3-13v-6l34-12 29-10 26-8 28-7 67-14 90-17z" fill="#FEFEFE"/>
<path transform="translate(702,330)" d="m0 0h3l9 14 12 17 10 14 5 9-8 6-11 7-13 9-15 10-16 11-5 5 4-2 51-34 15-9 16-4 68-10 61-7 56-5 23-2 51-3 1 1 1 46v45l-2 25-7 59-2 4-110 4-285 13v2h12l121-6 66-3 89-4 128-4h32l9 3-6 8-8 14-5 15-3 14 2-2 7-24 7-13 12-13 13-6 15-3h40l37 3 25 3 10 5 4 6 2 7v13l-3 14-8 20-10 20-13 23-16 28-15 27-15 28-14 26-5 10-1 1h-16l-28 2-39 7-81 17-7 1-1-1 1-17 5-29 8-27 7-18 4-8-4 2-9 23-4 12-21 4-44 6-3 3 61-9h5l-2 12-5 26-2 12-7-1-42-9-11-2-11-1h-9v1l24 3 39 8 16 4 1 1v5l-7 3-27 6h-3v3l54-12 71-15 38-7 16-2h41l30 4 10 2 1 4-7 10-11 17-10 18-4 9-1 1-52 1-44 6-44 7h-7l-1 4 35-6 54-8 9-1h42l7 1-8 29-5 28-1 14v21l-26 6-38 12-42 15h-20l-74-5h-52l-30 3-22 4-23 6-17 6-23 10-21 11-16 10-16 12-15 14-18 18-9 12-3 2h-16l-32-3-30-5-29-8-19-7-18-8-23-12-5-4 2-4 11-9 15-14 9-9 11-14 14-19 5-6 2-4 6 2 18 8 21 6 18 3h30l31-4 35-7 33-8 45-12 49-14 26-10 30-13 42-21 16-9v-2l-20 10-19 10-33 16-37 15-22 7-48 13-54 14-38 8-36 5h-29l-23-4-17-5-17-8-10-7-3-3 3-10 16-40 9-24 2-6 4 2 10 6 16 8 16 5 19 3 5 3 2 3-1 6-9 24 1 3 8-20 4-11-1-7h-2l-7-8-9-11-9-10-7-5-18-5-6-3-4-4-2-9h-2l2 10 5 5 9 4 14 4 6 4 7 7 9 11 4 6-19-3-16-5-15-8-8-6-6-5-9-15-10-17-9-14 2-5-11 3-25 8-9-1-21-9-6-2-7-1h-8l-17 4-32 10h-4l-9-30-8-21v-70l1-6 11-7 7-8 5-12 4-10 6-7 12-6 36-13 59-22v-2l-25 9-21 8h-5l-5 3-15 6-2-1 3-48 1-5 9-2v-1l-8-1v-64l-2-39 11-8 23-15 21-13 25-14 72-36 18-8 38-19 25-11z" fill="#1D1D1D"/>
<path transform="translate(646,45)" d="m0 0h180l912 1 29 1 22 3 41 7 36 8 36 9 36 11 23 8 21 9 1 1v138l-12 3-67 13-55 11-41 9-27 7-37 12-42 15-4 1-8-16-7-12-8-8-14-8-14-5-15-4-14-2-9-4h-23l-36 6-17 5-16 8-16 10-11 9-6 8-4 13-3 22-3 27-5 16-11 21-6 11-8 16-4 12 1 10 1 5-12 10-13 10-6 5-4-2-12-13-12-12-11-9-12-10-19-14-17-11-21-12-27-13-28-11-18-6-26-6-28-4-30-2h-90l-45 2-59 4-56 5-70 8-42 6-33 5-6 1-13-19-13-18-18-27-11-17-8-13-9-15-13-23-14-27-8-19-5-20-2-23v-15l2-30 5-39 5-25 2-7z" fill="#FEFEFE"/>
<path transform="translate(1528,473)" d="m0 0h99l28 2 9 2 8 5 10 10 6 12 2 7 1 8v17l-2 15-6 21-11 28-15 31-12 22-16 30-10 18-16 29-12 22-10 18-13 24-12 22-18 34-18 35-18 36-15 33-11 25-14 36-10 31-6 25-3 18-1 10v18l3 31 5 30 4 18v5h-51l-7-6-14-10-13-10-14-11-18-14-13-11-11-9-12-11-8-7-13-13-5-6-11-9-12-10-20-15-19-14-20-14-19-13-10-8-9-9-9-13-9-16-5-16-4-20-1-9v-29l3-21 6-26 6-18 8-16 8-14 13-19 11-16 11-14 14-19 14-18 10-13 14-18 10-13 14-19 10-16 7-19 7-30 5-21 6-16 9-14 12-16 5-5 9-8 18-11 13-6 20-6 25-5 41-4 26-2z" fill="#FEFEFE"/>
<path transform="translate(200,42)" d="m0 0h1787v1163l-1049 1h-198l-214-1-2-1v-2h101v-8l2-5h1v12h769l-5-5-14-10-12-9-13-10-14-11-10-8-14-12-11-9-13-12-13-13-5-6-8-7-16-13-20-15-11-8-18-13-23-16-14-10-10-10-11-16-6-10-12-2v-2h11l-6-16-5-25-5-1 2-3h3l-1-10v-11l2-21 5-25 7-24-6-1h-42l-37 5-57 9h-4l1-4 71-11 24-3 52-1 8-16 9-16 11-16 4-6v-3l-30-5-10-1h-41l-27 4-46 9-89 19-18 4 1-4 30-7 6-2v-5l-30-7-31-6-25-2v-1l-13-1v-1h29l17 2 33 7 21 5 2-18 6-29 1-3-45 7-15 2h-6l1-3 2-1 50-7 15-2 2-9 8-21 3-6 4-1-2 6-6 14-8 26-4 17-3 19-1 17 11-2 67-14 43-8 15-2 19-1h16l10-19 14-27 12-22 14-25 15-26 16-29 11-23 6-18 1-7v-13l-4-11-8-5-11-2-27-3-27-2h-40l-15 3-14 7-10 11-8 16-7 25-3-1 2-10 5-18 7-13 8-10-3-2-5-1h-32l-128 4-218 10-58 3h-16l-1-3 5-1 147-7 162-7 86-3 2-11 7-61 1-15v-45l-1-46-51 3-57 5-38 4-52 6-67 10-10 3-20 12-16 11-31 21-4 2 2-5 11-8 51-34 4-4-7-11-11-15-16-23-1-4-33 15-22 11-52 25-56 28-24 14-24 15-4 2 2-5 25-16 21-12 33-17 40-20 23-11 33-16 25-12 9-4-2-5-16-25-15-25-14-25-14-28-7-19-4-19-1-12v-30l2-26 4-31 6-33v-3h-44l-7 2h-6l1-3-9 1-378-1v-2zm446 3-2 3-5 24-5 36-2 20-1 19v15l2 23 6 23 11 24 13 25 14 24 11 18 13 20 16 24 24 34 4 6 12-2 61-9 60-7 61-6 56-4 34-2 27-1h90l30 2 28 4 26 6 24 8 31 13 24 12 20 12 16 11 16 12 11 9 14 12 17 17 6 7 4-2 28-22 1-3-2-7 1-10 5-13 10-19 12-22 5-14 2-10 4-38 4-15 3-6 7-8 14-10 15-9 14-6 18-5 32-5h23l9 4 19 3 19 6 16 8 10 9 7 11 8 17 3 1 30-11 44-15 30-8 36-8 43-9 98-19 2-1v-138l-12-6-24-9-31-10-41-11-36-8-31-6-31-5-10-1-29-1-912-1zm1332 200-73 14-65 13-40 9-31 9-33 11-36 13 1 9 2 10v16l-5 16-7 17-10 19-8 12-11 14-10 9-17 11-8 4v-2l14-8 12-9 12-12 13-19 10-18 9-21 3-10 1-7v-9l-2-12-7-19-8-15-9-10-9-7-11-5-15-5-19-4 2 5 3 7 4 18 1 10v18l-2 21-4 20-9 25-7 16-9 16-8 12h-3l7-10 12-22 9-21 6-18 4-20 1-10v-33l-3-17-5-12-5-6-7-3h-20l-25 4-20 4-16 6-16 9-14 10-7 6-6 11-3 15-4 37-5 19-12 23-10 18-7 17v11l4 7 5 4 8 4 15 2 13 1v1h-13l-15-2-12-6-5-2-13 11-16 12v1l18-1 31-3 36-2 3-3 2 2h14l5-1 9 1 36 1-66 2-35 2-43 4-20 3-25 6-16 6-15 8-14 10-7 8-5 5-12 16-6 10-7 19-9 40-5 17-6 14-8 12-21 28-14 18-10 13-14 18-21 28-10 13-24 36-9 16-7 17-6 22-5 26-1 9v29l3 20 4 17 7 16 9 14 8 10 9 9 17 12 19 13 18 13 19 14 18 14 13 11 8 7 7 8 13 13 8 7 14 12 11 9 16 13 16 12 15 12 18 13 6 5h51l-1-9-6-30-4-33-1-12v-18l3-24 6-25 8-26 9-25 12-29 8-18 18-39 26-52 10-19 30-56 10-18 12-22 13-23 15-28 15-27 18-34 11-21 11-25 7-20 5-17 2-15v-17l-2-12-5-12-9-10-7-6-7-3-21-3v-1h10l25 4 40 5 26 5 14 7 10 8 8 8 8 14 5 18 3 20 1 12v17l-2 15-5 16-10 23-13 29-19 44-16 39-12 29-12 27-15 32-18 42-12 29-10 28-7 24-6 24-7 37-7 51-6 60-3 42v20l5 1h216l152-1v-956z" fill="#212121"/>
<path transform="translate(596,45)" d="m0 0h44l1 4-7 39-4 34-1 17v30l2 18 5 19 8 19 14 28 12 21 17 28 11 17 4 6-1 3-23 11-33 16-58 28-40 20-23 13-15 9-25 16-15 10h-2l-5-23-5-13-7-9-9-5-45 1-34 3-49 7-37 7-47 11-28 8-10 2v-230l3-5 10-8 17-14 19-14 21-14 15-9 16-8 20-8 55-18 69-21 121-35 32-9z" fill="#FEFEFE"/>
<path transform="translate(873,959)" d="m0 0h50l58 4 51 4 87 8 17 2 13 20 8 10 7 7 17 12 16 11 14 10 15 11 19 14 16 13 8 7 9 8 7 8 14 14 11 9 15 13 16 13 26 20 19 14 11 8v2l-359 1h-406l-4-1 1-14 5-42 5-32 5-16 9-17 12-17 9-11 14-15 8-8 11-9 7-6 18-12 16-9 25-12 21-8 26-7 32-5z" fill="#FEFEFE"/>
<path transform="translate(192,593)" d="m0 0 5 2 4 6h2v-2l4 2 1 5 5-2 11 8 26 16 6 4-2 5-13 20-14 22-10 15-17 26v5l13 20 15 23 22 34 6 9 3 6 3 1 61 1-4-10-13-20-11-17-16-25-12-18-3-6 1-4 36-54h4l13 10 12 9 16 13 11 9 16 15 9 11 10 16 10 25 8 25 7 29 6 32 6 43 3 29 4 53 2 64v84l-5-2-23-15-19-12-3-1v62l7 6 17 11 20 13 4 5-1 2-19 1h-224z" fill="#FDFDFD"/>
<path transform="translate(1673,478)" d="m0 0 53 7 17 4 9 5 10 8 9 9 6 9 5 14 3 14 2 16v34l-3 14-6 16-13 28-26 60-20 49-15 35-16 34-21 49-13 31-12 34-7 25-8 36-7 44-7 58-4 48-3 41-1 1h-147l-2-7-7-35-4-33v-32l4-27 8-30 12-35 17-40 17-37 11-23 12-24 10-19 16-31 12-22 13-24 11-20 12-22 16-29 15-27 15-28 12-22 11-22 9-21 7-19 6-21 2-12v-22l-2-12-4-10-7-9-7-7z" fill="#FEFEFE"/>
<path transform="translate(1014,356)" d="m0 0 5 1 1 46v45l-2 25-7 59-2 4-110 4-285 13h-5l-5-8-13-30 1-4 9-10 9-11 10-11 7-8 15-15 10-8 34-24 42-28 15-9 16-4 68-10 61-7 56-5 23-2z" fill="#FEFEFE"/>
<path transform="translate(1089,836)" d="m0 0h42l7 1-8 29-5 28-1 14v21l-26 6-38 12-42 15h-20l-74-5h-52l-30 3-22 4-23 6-17 6-23 10-21 11-16 10-16 12-15 14-18 18-9 12-3 2h-16l-32-3-30-5-29-8-19-7-18-8-23-12-5-4 2-4 11-9 15-14 9-9 11-14 14-19 5-6 2-4 6 2 18 8 21 6 18 3h30l31-4 35-7 33-8 45-12 49-14 26-10 30-13 42-21 22-12 10-3 36-6 57-9z" fill="#FEFEFE"/>
<path transform="translate(1030,538)" d="m0 0h32l9 3-6 8-8 14-5 15-4 15-7 14-10 13-11 12-9 11-14 14-6 3-70 13-43 7-39 5-14 1h-25l-12-2-18-5-39-10-31-9-36-12-15-6-8-16-15-33-16-36v-1l97-5 106-5 89-4z" fill="#FEFEFE"/>
<path transform="translate(420,403)" d="m0 0h10l7 1-2 5-6 10-8 21-7 30-6 36-8 63-3 30-1 22-1 6-1 117h-2l-6-11-11-13-4-5-8-7-11-10-10-8-18-14-12-9-7-5 1-5 11-18 6-9v-3h-61l-4 3-20-12-17-11-26-15-4-3v-145l8-3 28-8 32-8 33-7 35-6 38-5 34-3z" fill="#FEFEFE"/>
<path transform="translate(1105,531)" d="m0 0h40l37 3 25 3 10 5 4 6 2 7v13l-3 14-8 20-10 20-13 23-16 28-15 27-15 28-14 26-5 10-1 1h-16l-28 2-39 7-81 17-7 1-1-1 1-17 5-29 8-27 7-18 8-16 7-11 11-13 9-10 12-12 9-11 12-14 8-14 6-19 4-14 7-13 12-13 13-6z" fill="#FEFEFE"/>
<path transform="translate(568,581)" d="m0 0 4 1 17 38 14 31 12 27 15 33 13 29 8 18-1 3-73 23-31 10-28 9-9-1-21-9-6-2-7-1h-8l-17 4-32 10h-4l-9-30-8-21v-70l1-6 11-7 7-8 5-12 4-10 6-7 12-6 36-13 81-30z" fill="#FEFEFE"/>
<path transform="translate(1068,354)" d="m0 0h73l23 1 28 3 30 6 26 8 29 12 27 13 19 11 12 8 18 13 16 13 8 7 10 9 14 14 5 6v2l-28 7-20 8-14 8-13 10-8 7-8 2-111 11h-7l-3-1 1-7 3-9 9-9 9-14 7-16 1-4v-16l-5-16-4-6-8-7-19-8-11-1-14 1-10 3-13 7-7 8-4 16-3 16-4 11-6 10-6 13v7l5 6 8 3 18 2v5l-2 1h-17l-18 1-14 3-11 5-3 2h-3l-1-5-6-103-4-69v-7z" fill="#FEFEFE"/>
<path transform="translate(200,42)" d="m0 0h1787v1163l-1049 1h-198l-214-1-2-1v-2h101v-8l2-5h1v12h769l-5-5-14-10-12-9-13-10-14-11-10-8-14-12-11-9-13-12-13-13-5-6-8-7-16-13-20-15-11-8-18-13-23-16-14-10-10-10-11-16-6-10-12-2v-2h11l-6-16-5-25-5-1 2-3h3l-1-10v-11l1-14 3-3 1 36 3 20 4 17 7 16 9 14 8 10 8 8 17 12 19 13 18 13 19 14 18 14 13 11 9 8 7 8 12 12 8 7 14 12 11 9 16 13 16 12 15 12 18 13 6 5 51 1-8-39-4-33-1-12v-18l3-24 6-25 8-26 9-25 12-29 8-18 18-39 26-52 10-19 30-56 10-18 12-22 13-23 15-28 15-27 18-34 11-21 11-25 7-20 5-17 2-15v-17l-2-12-5-12-9-10-6-5-7-3-15-2-19-1v-1l10-1v-1h13l25 4 40 5 26 5 14 7 10 8 9 9 8 14 5 18 3 20 1 12v17l-2 15-5 16-10 23-13 29-19 44-16 39-12 29-12 27-15 32-18 42-12 29-10 28-7 24-6 24-7 37-7 51-6 60-3 42-1 20h373v-956l-113 22-58 12-30 8-25 8-55 19h-2l4 19v16l-5 16-7 17-10 19-8 12-11 14-7 7-13 9-14 8-3 1v-4l12-6 14-10 12-12 13-19 10-18 9-21 3-10 1-7v-9l-2-12-7-19-8-15-9-10-8-6-11-5-15-5-19-4-3-3h9l17 4 12 4 16 8 10 9 7 10 9 19 10-3 30-11 43-14 31-8 56-12 113-22h2l-1-138-26-11-40-13-41-11-36-8-31-6-31-5-10-1-29-1-912-1h-180l-4 15-6 38-3 29-1 19v15l2 23 6 23 11 24 13 25 14 24 11 18 13 20 16 24 24 34 3 5 12-2 27-4h10v2l-8 2-33 5-10 3-20 12-16 11-31 21-4 2 2-5 11-8 51-34 4-4-7-11-11-15-16-23-1-4-33 15-22 11-52 25-56 28-24 14-24 15-4 2 2-5 25-16 21-12 33-17 40-20 23-11 33-16 25-12 9-4-2-5-16-25-15-25-14-25-14-28-7-19-4-19-1-12v-30l2-26 4-31 6-33v-3h-44l-7 2h-6l1-3-9 1-378-1v-2zm1473 436 12 14 4 8 2 5 2 12v22l-4 20-9 27-8 19-14 29-15 28-12 22-13 24-13 23-14 26-10 18-15 28-10 18-12 23-10 19-21 41-14 29-9 20-11 25-11 27-12 35-8 32-3 22v32l4 33 8 41 1 1h147l1-1 5-66 4-41 7-54 7-40 7-30 9-30 11-30 16-38 18-41 16-34 11-26 20-49 15-35 19-43 10-22 5-17 1-6v-34l-4-27-4-12-5-10-11-12-8-7-10-6-9-3-24-4z" fill="#1D1D1D"/>
<path transform="translate(1588,255)" d="m0 0h20l8 4 4 5 5 12 3 17v33l-3 22-6 21-10 24-10 19-7 11-10 13-8 7-10 5-15 5-17 4-26 4-13 1h-18l-15-2-10-5-6-7-1-3v-11l5-13 10-19 10-18 5-11 4-16 5-44 3-10 6-10 11-9 16-10 16-8 13-4 33-6z" fill="#FEFEFE"/>
<path transform="translate(193,45)" d="m0 0h387l1 2-43 12-37 11-79 23-52 16-47 15-18 6-18 8-21 11-24 16-18 13-16 13-9 7-8 6v-158z" fill="#FEFEFE"/>
<path transform="translate(469,792)" d="m0 0 11 1 10 3 19 8 3 1h7l25-8h6l10 18 14 23 3 6-2 9-11 30-17 43-1 4 6 5 1 4-8 11-10 13-9 12-11 12-13 13-8 7-9 8-4-1-13-10-28-21-2-5-5-62-5-40-6-36-6-28v-5l8-3 34-10z" fill="#FEFEFE"/>
<path transform="translate(702,330)" d="m0 0h3l9 14 12 17 10 14 5 9-8 6-11 7-13 9-15 10-32 22-16 12-14 12-7 7-7 8-13 15-9 10-6 8-3-3-8-17-12-27-6-9-6-4-9-1-11 3-10 6-4 8 1 10 5 12 19 41 9 20 1 5-4 1-34 2-33 1h-15v-64l-2-39 11-8 23-15 21-13 25-14 72-36 18-8 38-19 25-11z" fill="#FEFEFE"/>
<path transform="translate(192,590)" d="m0 0 5 2 26 15 20 13 11 7 5 2 3-3h61l1 4-15 23-3 5v4l11 8 16 12 11 9 16 13 14 14 10 11 7 11 1 4h2l-1-12 1-47h2l1 5 1 63 8 21 8 27v3l43-13 10-2h8l10 2 17 7 10 4 9-1 31-10 3 1-2 5 10 16 16 27 5 5 7 6 16 9 10 4 13 3 13 2-11-13-9-10-7-4-15-4-9-5-3-4-1-3v-7l3-1 2 10 4 4 16 5 8 3 9 7 10 11 8 11 4 3v2h2l2 7-7 19-4 10-1 10h-1l-1-7-1-4 10-27-1-5-5-3-23-4-17-6-18-10-5-4h-2l-4 13-11 29-8 19-6 16 2 4 10 7 17 8 17 5 23 4h29l36-5 42-9 54-14 44-12 30-10 33-14 35-17 33-17 2 1-5 5-39 20-27 13-34 14-24 8-62 17-39 10-32 7-30 5-17 2h-30l-18-3-21-6-18-8-6-2-4 7-8 10-9 12-13 16-16 16-11 9-7 6 1 3 18 10 21 10 19 7 15 5 24 6 25 4 32 3h16l5-5 9-11 25-25 14-11 11-8 17-10 23-12 25-10 23-7 25-5 24-3 12-1h52l74 5h20l48-17 32-10 17-4h5l4 2 2 6 4 20 5 14v2h-11v2l-25-2-77-7-71-5-28-2h-50l-36 4-25 5-21 6-27 11-24 12-19 12-12 9-11 10-8 7-10 10-7 8-13 17-11 18-6 13-4 17-6 41-4 36h-1l-1-6h-1l1-16 6-46 5-24 5-12 9-16 4-6v-2h-16l-31-3-28-5-23-6-21-7-26-11-20-11-11-7-14-11-26-20 1 46 1 59-1 42h-3l-1-5v-81l-2-64-5-65-5-40-5-32-9-42-9-29-6-16-7-16-8-12-13-15-12-11-11-9-16-13-12-9-13-10-3 1-14 22-19 28-3 4 1 5 7 12 14 21 9 14 11 17 13 20 3 6v4h-61l-4-2-7-12-13-20-11-17-15-23-13-20 1-7 24-36 16-25 15-23v-2l-23-14-14-9-5-4-5 1-2-5h-2l-3 2-5-8-4-3zm277 202-15 3-37 11-1 1 1 10 6 28 6 38 5 43 4 52 2 5 20 15 13 10 9 7 4-1 14-13 8-7 15-15 13-17 7-9 10-14-1-4-6-5 1-4 18-46 11-29 1-7-7-13-15-25-5-9-9 1-22 7h-7l-20-8-7-3-10-2z" fill="#1D1D1D"/>
<path transform="translate(439,986)" d="m0 0 5 3 15 12 8 6 13 10 16 10 19 10 25 10 18 6 23 6 28 5 31 3h17l-1 5-9 14-6 12-5 19-5 32-4 33-2 19h-100l4-4 15-9 15-10 18-11h2l1-65-12 6-15 10-14 9-23 15-11 7-15 10-5 3-4-1-22-14-16-11-3-4 1-51-2-82z" fill="#FEFEFE"/>
<path transform="translate(905,809)" d="m0 0h3l4 9 5 8 14 10 20 12 9 5-2 4-22 11-19 10-33 16-37 15-22 7-48 13-54 14-38 8-36 5h-29l-23-4-17-5-17-8-10-7-3-3 3-10 16-40 9-24 2-6 4 2 10 6 16 8 16 5 19 3 5 3 2 3-1 6-9 24-1 10 3 13 1 2h11l39-6 48-12 13-4h2l-7-10-9-9-4-3v-2l7-5 3-7 1-7 6-2 45-7 33-6 15-4 16-8 15-10 10-8 12-11z" fill="#FEFEFE"/>
<path transform="translate(542,452)" d="m0 0h11l6 4 6 8 30 66 16 35 15 33 32 70 13 29 17 37 15 33 12 26 15 33 12 27 3 9 1 12-3 7-6 5-12 3-7-3-9-9-14-29-9-20-8-18-7-15-12-26-9-21-12-26-30-66-11-24-13-30-21-42-12-25-11-24-14-31-2-6v-10l6-7z" fill="#FEFEFE"/>
<path transform="translate(1586,252)" d="m0 0h23l9 4 7 9 5 18 2 16v18l-2 21-4 20-9 25-7 16-9 16-8 12-5 2 2-5 6-9 10-18 8-18 7-19 4-17 2-17v-33l-3-17-5-12-4-5-7-3h-20l-25 4-20 4-16 6-16 9-14 10-6 5-6 11-3 15-4 37-5 19-12 23-10 18-7 17v11l4 7 7 5 9 3 25 2 4 3h-18l-15-2-12-6-5-2-13 11-15 11 17-1 31-3 38-2 1-3 2 2h18l1-2v2l51 1v1l-6 1-66 2-35 2-43 4-20 3-25 6-16 6-15 8-14 10-7 8h-2l-2 4-12 16-6 10-7 19-9 40-5 17-6 14-8 12-21 28-14 18-10 13-14 18-21 28-10 13-24 36-9 16-7 17-6 22-5 26-1 9h-1l-1-6h-1l1-11 5-23 6-20-6-1h-42l-37 5-57 9h-4l1-4 71-11 24-3 52-1 8-16 9-16 11-16 4-6v-3l-30-5-10-1h-41l-27 4-46 9-89 19-18 4 1-4 30-7 6-2v-5l-30-7-31-6-25-2v-1l-13-1v-1h29l17 2 33 7 21 5 2-18 6-29 1-3-45 7-15 2h-6l1-3 2-1 50-7 15-2 2-9 8-21 3-6 4-1-2 6-6 14-8 26-4 17-3 19-1 17 11-2 67-14 43-8 15-2 19-1h16l10-19 14-27 12-22 14-25 15-26 16-29 11-23 6-18 1-7v-13l-4-11-8-5-3-2 7-1 16 5 12 4 9 6 7 6 5 9 1 4v10l-5 16-5 12-11 22-15 25-11 18-12 19-10 18-6 15-5 19-4 22 10-14 8-11 28-36 20-26 13-17 14-20 7-15 7-25 7-31 5-15 7-14 12-16 1-1-20 2-52 5h-16l2-2 13-2 69-7 10-3 8-8 14-10 16-8 15-6 24-6h4l-9-11-17-17-8-7-16-13-18-13-20-13-24-13-19-9-30-12-23-7-14-3-1-3h7l26 7 29 11 24 11 23 12 19 12 17 12 14 11 13 11 12 11 13 13 5 6 4-2 28-22-2-9 1-10 5-13 10-19 12-22 5-14 2-10 4-38 4-15 3-6 8-9 14-10 15-9 14-6 18-5z" fill="#1E1E1E"/>
<path transform="translate(1090,768)" d="m0 0h41l30 4 10 2 1 4-7 10-11 17-10 18-4 9-1 1-52 1-44 6-69 11-9 1-7-3-21-12-14-10-7-7-6-12 1-4 54-12 71-15 38-7z" fill="#FEFEFE"/>
<path transform="translate(850,772)" d="m0 0h26l22 3 46 10 4 2v5l-7 3-30 7-6 3-17 17-11 9-21 13-15 6-20 4-55 9-16 2-3-5-5-13-13-28-6-14 1-4 17-9 17-7 19-5 48-6z" fill="#FEFEFE"/>
<path transform="translate(442,405)" d="m0 0 6 3 6 7 4 8 5 19 3 21 1 15v69l-5 70-9 4-18 7-8 6-4 5-8 20-6 8-9 7h-2v-35l2-41 4-37 11-83 6-29 5-17 8-16 7-10z" fill="#FEFEFE"/>
<path transform="translate(1621,259)" d="m0 0 19 4 20 7 9 5 10 9 7 9 9 19 5 16 1 8v9l-3 14-8 20-10 19-13 19-9 10-7 7-15 10-16 8-13 4-7 1h-10l-34-2 4-3 14-6 10-9 9-11 11-18 8-16 10-25 4-14 3-15 2-21v-18l-3-21-4-13-3-4z" fill="#FEFEFE"/>
<path transform="translate(575,1106)" d="m0 0h2v57l-7 6-18 11-25 16-12 8-20 13-9 6-6-1-25-16-37-24-20-13-8-6v-56l4 1 18 11 18 12 11 7 20 13 18 12 1 1h6l19-12 24-16 22-14z" fill="#FEFEFE"/>
<path transform="translate(265,629)" d="m0 0h55l-5 9-16 25-12 18-10 16-14 20-2 6 6 11 18 27 16 25 10 15 7 11 1 4h-55l-4-2-9-15-11-17-14-22-24-36 2-6 8-12 23-35 9-14 7-11 8-13 3-3z" fill="#FEFEFE"/>
<path transform="translate(1836,648)" d="m0 0h57l7 10 15 24 17 26 16 24 5 9-2 4-11 17-22 33-6 10-14 22-4 6-2 1-57 1 2-5 10-15 11-17 9-14 10-15 15-23 1-7-7-12-14-21-16-25-10-15-10-16z" fill="#FEFEFE"/>
<path transform="translate(689,727)" d="m0 0 20 3 40 5 63 7 24 2h32l44-5 40-6h5l-2 12-5 26-2 12-7-1-42-9-11-2-11-1h-29l-45 4-26 4-16 4-21 8-14 7-5 3-8-16-15-33-9-20z" fill="#FEFEFE"/>
<path transform="translate(664,674)" d="m0 0 10 3 28 11 36 12 33 10 21 4 9 1h19l36-4 47-8 58-12 9-2h4l-2 5-9 23-4 12-21 4-51 7-24 2h-23l-35-3-53-6-64-8-4-4-13-30-7-15z" fill="#FEFEFE"/>
<path transform="translate(1222,543)" d="m0 0 10 2 10 4 6 4 8 7 4 8 1 3-1 13-6 16-11 23-13 22-18 30-10 16-9 16-8 21-4 14-5 27-1 3-13-2-19-3-16-2 2-6 10-19 15-28 13-23 12-22 14-24 15-28 10-21 5-15 2-9v-17z" fill="#FEFEFE"/>
<path transform="translate(1315,524)" d="m0 0h5l-6 8-9 14-6 12-6 21-8 35-6 18-7 13-12 17-11 14-12 16-10 13-28 36-12 16-7 11-1-3 6-29 4-13 8-19 10-17 14-22 16-27 9-16 11-23 5-15 1-4v-10l-4-10-5-6-10-7-10-4-15-4-8-3v-1l16-2 72-7z" fill="#FEFEFE"/>
<path transform="translate(1033,355)" d="m0 0h25l1 1 2 31 5 90 3 49v9h-54l-1-1 1-15 6-50 2-31v-19l-1-39v-24z" fill="#FEFEFE"/>
<path transform="translate(650,763)" d="m0 0 4 1 11 24 7 15 16 34 11 25 1 9-7-1-15-10-7-11-5-9-6-13-7-20-3-5v-2l-5-2-7-4-5-1h-12l-12 3-9 6-8 10-3 7v7l3 6 12 6 14 4 6 4 7 7 9 11 4 6-19-3-16-5-15-8-8-6-6-5-9-15-10-17-9-14 1-3 54-17 31-10z" fill="#FEFEFE"/>
<path transform="translate(1174,421)" d="m0 0h11l5 3 3 10v18l-4 20-8 20-7 12-7 8-7 4-25 3-15-2-5-3-3-5 2-9 11-20 3-6 5-28 4-10 8-7 12-5 8-2z" fill="#FEFEFE"/>
<path transform="translate(1115,930)" d="m0 0h5l4 2 2 6 4 20 5 14v2h-11v2l-25-2-77-7-71-5-28-2h-50l-36 4-25 5-21 6-27 11-24 12-19 12-12 9-11 10-8 7-10 10-7 8-13 17-11 18-6 13-4 17-6 41-4 36h-1l-1-6h-1l1-16 6-46 5-24 5-12 9-16 4-6v-2h-16l-31-3-28-5-23-6-1-3 9 1 25 6 29 4 23 2h16l5-5 9-11 25-25 14-11 11-8 17-10 23-12 25-10 23-7 25-5 24-3 12-1h52l74 5h20l48-17 32-10z" fill="#1D1D1D"/>
<path transform="translate(1795,45)" d="m0 0h187l1 1v53l-9-3-15-6-36-12-28-8-36-9-45-9-33-5v-1z" fill="#FEFEFE"/>
<path transform="translate(990,662)" d="m0 0 2 1-6 7-9 14-8 3-37 8-41 8-37 6-34 4h-19l-20-3-5-2 1-4 10-16 3-1 8 1h33l43-5 60-10 52-10z" fill="#FEFEFE"/>
<path transform="translate(1986,242)" d="m0 0h1v963h-503v-1h502l-3-3v-957l2 1z" fill="#3A3A3A"/>
<path transform="translate(678,865)" d="m0 0 6 2 10 6 14 8 8 7 7 3h13l12 11 5 6v2l-15 5-36 9-26 5-16 2h-14l-2-9v-12l8-21 4-9 9-4 5-2z" fill="#FEFEFE"/>
<path transform="translate(622,795)" d="m0 0h11l12 6 5 6 6 16 6 15 6 11 7 12-1 5-8 7-11 4-1-3h-2l-7-8-9-11-9-10-7-5-18-5-6-3-4-4-1-8 5-9 9-10 8-4z" fill="#FEFEFE"/>
<path transform="translate(428,400)" d="m0 0h13l10 6 7 9 5 13 4 19v4l16-10 7-5 2 1-2 4-21 14 2 39v36l-1 28h9v1l26 1v1l-36 1-2 36-1 17 16-6 5-3 8-1 18-7 25-9 2 1 1 2-41 15-43 16-21 8-8 6-5 9-5 14-6 8-7 6-5 3h-2l-1 13h-1v-5h-2v-59l1-5 2-35 8-65 6-41 7-33 7-21 6-12 6-10h-17l-35 2-37 4-45 7-35 7-34 8-22 6h-2l1-4 31-8 34-8 37-7 49-7 34-3zm14 5-7 9-8 16-5 15-6 27-9 66-6 48-2 31-1 22v35l5-2 9-8 6-12 6-15 8-7 8-4 21-8 1-1 5-70v-69l-2-24-4-20-4-13-6-10-6-5z" fill="#1E1E1E"/>
<path transform="translate(187,42)" d="m0 0h13l-3 1v2l-6 1 1 157 10-9 16-12 10-8 18-13 22-14 27-14 15-6 50-16 49-15 47-14 117-34 7-2 4-1 1 4-55 16-97 28-56 17-47 15-29 10-18 8-14 8-19 12-18 13-13 10-11 9-14 11-2 4-1 230 2 1-5 1-1 2-1-251v-120z" fill="#202020"/>
<path transform="translate(1590,427)" d="m0 0 1 3-11 12-8 6-14 6 32 2h10l15-3 9-4 3 1-4 4-4 1-1 7-2 8 21 1 3 2h-72v-1l-42-1-4-1-4 1h-14l-2-2-3 3-48 3-30 3h-7l5-5 13-10 11-9 5 2 12 6 15 2h13l1-2 4-1 20-2 24-4 21-6 13-5 9-7 7-8z" fill="#202020"/>
<path transform="translate(552,791)" d="m0 0 3 1-2 5 10 16 16 27 5 5 7 6 16 9 10 4 13 3 13 2-11-13-9-10-7-4-15-4-9-5-3-4-1-3v-7l3-1 2 10 4 4 16 5 8 3 9 7 10 11 8 11 4 3v2h2l2 7-7 19-4 10-1 10h-1l-1-7-1-4 10-27-1-5-5-3-23-4-17-6-18-10-5-4h-2l-4 13-11 29-8 19-6 16 2 4 10 7 17 8 17 5 23 4h29l36-5 42-9 54-14 44-12 30-10 33-14 35-17 33-17 2 1-5 5-39 20-27 13-34 14-24 8-62 17-39 10-32 7-30 5-17 2h-30l-18-3-21-6-18-8-6-2-4-1v-4l-4-2-3-3 1-4 18-46 11-29 1-7-7-13-15-25-4-7v-2l-16 4-7 1 1-3z" fill="#1C1C1C"/>
<path transform="translate(1122,932)" d="m0 0 3 1 5 25 5 14v2l-47-4-65-6-1-2 37-12 33-11 24-6z" fill="#FEFEFE"/>
<path transform="translate(639,63)" d="m0 0h2l-1 9-5 36-2 20-1 19v15l2 23 6 23 11 24 13 25 14 24 11 18 13 20 16 24 24 34 3 5 12-2 27-4h10v2l-8 2-33 5-10 3-20 12-16 11-31 21-4 2 2-5 11-8 51-34 4-4-7-11-11-15-16-23-1-4-33 15-22 11-52 25-56 28-24 14-24 15-4 2 2-5 25-16 21-12 33-17 40-20 23-11 33-16 25-12 9-4-2-5-16-25-15-25-14-25-14-28-7-19-4-19-1-12v-30l2-26 4-31 3-17z" fill="#1E1E1E"/>
<path transform="translate(1194,425)" d="m0 0 6 2 10 6 5 6 4 8 3 12v13l-3 10-10 18-9 11-15 9h-20l-3-2 9-6 9-13 9-19 5-19 1-8v-21z" fill="#FEFEFE"/>
<path transform="translate(1177,418)" d="m0 0 11 1 19 8 10 9 5 10 3 11v16l-5 14-7 13-8 10-7 7-4 15h10l21-2h8v1l5 1v1l-22 2-7 2h-10l-27-3-27-2-5-1-30-1 1-2 17-1h13v-5h-12l-12-3-7-6-1-2v-7l9-19 4-7 4-11 4-23 3-8 7-7 15-8 8-2zm-3 3-14 2-13 5-9 7-4 7-3 14-3 18-5 10-9 16-2 9 3 5 5 3 16 2 24-3 7-4 7-8 8-14 8-21 3-17v-18l-3-10-5-3zm20 4 1 7v21l-3 17-5 15-10 19-6 8-9 6 3 2h20l15-9 9-11 8-14 4-10 1-4v-13l-3-12-5-10-8-7-10-5z" fill="#1D1D1D"/>
<path transform="translate(1788,579)" d="m0 0h2v21l-5 19-11 25-13 29-19 44-16 39-12 29-12 27-15 32-18 42-12 29-10 28-7 24-6 24-7 37-7 51-6 60-3 42-1 20-2-3v-9l-1-3v-12l4-51 4-38 6-46 7-40 7-30 9-30 11-30 16-38 18-41 16-34 11-26 20-49 15-35 19-43 10-22 5-17 2-8z" fill="#1E1E1E"/>
<path transform="translate(1831,644)" d="m0 0h62l5 5 15 23 10 16 13 20 20 30v6l-7 10-13 20-9 14-22 34-9 14-1 1-10 1h-47l-7-1 1-5 14-22 12-18 9-14 22-33v-7l-25-38-14-22-18-27-2-6zm5 4 2 5 15 24 10 15 16 25 12 18 2 4-1 7-15 23-10 15-16 25-16 24 1 2 56-1 5-5 11-18 9-14 19-29 16-24 1-3-5-9-12-18-15-23-11-17-15-24-2-2z" fill="#1E1E1E"/>
<path transform="translate(1586,252)" d="m0 0h23l9 4 7 9 5 18 2 16v18l-2 21-4 20-9 25-7 16-9 16-8 12-5 2 2-5 6-9 10-18 8-18 7-19 4-17 2-17v-33l-3-17-5-12-4-5-7-3h-20l-25 4-20 4-16 6-16 9-14 10-6 5-6 11-3 15-4 37-5 19-12 23-10 18-7 17v11l4 7 7 5 9 3 25 2 4 3h-18l-15-2-12-6-5-2-13 11-10 7v-3l5-5 12-10 4-3-2-9 1-10 5-13 10-19 12-22 5-14 2-10 4-38 4-15 3-6 8-9 14-10 15-9 14-6 18-5z" fill="#1F1F1F"/>
<path transform="translate(1020,443)" d="m0 0h1l1 9v17l-7 58v7l32 1v2l-3 1-14 1-128 4-218 10-58 3h-16l-1-3 5-1 147-7 162-7 86-3 2-11 7-61 1-15z" fill="#252525"/>
<path transform="translate(556,558)" d="m0 0 4 2 8 16-1 3-65 24-10 4h-2l2-4 10-15 15-23 3-4 8-1 20-1z" fill="#FEFEFE"/>
<path transform="translate(505,560)" d="m0 0h12l-4 7-10 15-15 23-3 4-18 7-2-1 3-48 1-5 4-1z" fill="#FEFEFE"/>
<path transform="translate(716,669)" d="m0 0 9 1 41 11 17 4 1 3-9 15-2 3-8-1-53-17-6-3 1-4z" fill="#FEFEFE"/>
<path transform="translate(551,940)" d="m0 0h4l-1 4-10 13-9 12-13 16-16 16-11 9-7 6 1 3 18 10 21 10 19 7 12 4-2 1v2l-12-3-25-10-16-8-13-7-11-7-14-11-26-20 1 46 1 59-1 42h-3l-1-5v-81l-2-64-1-16v-17l2 4 1 9 1 2 1 12 1 5 4 2 17 13 19 14 2 2 4-1 14-13 8-7 14-14 13-17 7-9z" fill="#1D1D1D"/>
<path transform="translate(974,692)" d="m0 0h2l-2 6-6 14-8 26-4 17-3 19-1 17 11-2 67-14 43-8h5l3 3-34 6-35 7-93 20-9 2 1-4 30-7 6-2v-5l-30-7-31-6-25-2v-1l-13-1v-1h29l17 2 33 7 21 5 2-18 6-29 1-3-45 7-15 2h-6l1-3 2-1 50-7 15-2 2-9 8-21 3-6z" fill="#1F1F1F"/>
<path transform="translate(192,590)" d="m0 0 5 2 26 15 20 13 11 7 5 2 3-3h55v2l3 1-55 1-5 1-2 6-10 15-10 16-23 35-10 15-2 6 28 42 15 24 11 17 4 7 3 1 55 1 1-2 1 2 2-1v4h-61l-4-2-7-12-13-20-11-17-15-23-13-20 1-7 24-36 16-25 15-23v-2l-23-14-14-9-5-4-5 1-2-5h-2l-3 2-5-8-4-3z" fill="#1D1D1D"/>
<path transform="translate(1209,536)" d="m0 0 8 1 13 4 12 4 9 6 7 6 5 9 1 4v10l-5 16-5 12-11 22-15 25-11 18-7 11-4 1 2-6 9-14 13-22 14-24 10-21 5-14 1-13-4-9-5-6-10-7-16-5h-2l3 9v17l-4 16-9 21-16 31-14 24-14 25-13 24-12 22-2 2h-3l2-5 13-25 13-23 15-27 10-17 14-26 9-19 6-18 1-7v-13l-4-11-8-5-3-2z" fill="#1D1D1D"/>
<path transform="translate(1207,359)" d="m0 0h7l26 7 29 11 24 11 23 12 19 12 17 12 14 11 13 11 12 11 13 13 5 6 4-2 5-4 2 1-2 4-3 2 17-1 31-3 38-2 1-3 2 2h18l1-2v2l51 1v1l-6 1-66 2-35 2-43 4-20 3h-8l1-3 9-1-9-11-17-17-8-7-16-13-18-13-20-13-24-13-19-9-30-12-23-7-14-3z" fill="#1D1D1D"/>
<path transform="translate(200,42)" d="m0 0h401l3 3-10 2-11 1 1-3-9 1-378-1v-2z" fill="#111"/>
<path transform="translate(580,45)" d="m0 0h4l1 4-55 16-97 28-56 17-47 15-29 10-18 8-14 8-19 12-18 13-12 9v-3l5-6 17-12 18-12 17-10 23-11 17-6 43-14 49-15 47-14 117-34 7-2z" fill="#1E1E1E"/>
<path transform="translate(388,1101)" d="m0 0 8 4 25 16 17 11v2l5 1 39 26 5-1 24-16 22-14 14-9 23-15 7-4h3v63l-3 3-26 16-9 6v-3l5-5 18-11 10-7 1-1 1-57-26 17-22 14-35 23-8 5h-6l-11-8-19-12-11-7-27-18-18-11-4-2-1 54-2-2v-57z" fill="#1B1B1B"/>
<path transform="translate(1986,42)" d="m0 0h1v67l-1 67h-1v61l1 4h-3l-1-138-26-11-40-13-41-11-36-8-31-6-31-5v-3l19 2 44 8 40 9 33 9 29 9 28 10 13 6v-52l2 1z" fill="#262626"/>
<path transform="translate(956,857)" d="m0 0 2 1-5 5-39 20-27 13-34 14-24 8-62 17-39 10-32 7-30 5-17 2h-11v-1l-13-1v-1l24-1 36-5 42-9 54-14 44-12 30-10 33-14 35-17z" fill="#1D1D1D"/>
<path transform="translate(1061,355)" d="m0 0h1l1 7 8 137 2 40 14-7 10-3 14-1v1l29 1v1l-35 1-15 3-14 7-10 11-8 16-7 25-3-1 2-10 5-18 7-13 8-10-3-2-5-1-18-1 3-1v-2h22l-2-27-6-101-2-39v-10h2z" fill="#1C1C1C"/>
<path transform="translate(1115,930)" d="m0 0h5l2 3-23 5-35 11-41 14 110 10v1h-9v2l-25-2-77-7-71-5-28-2-45-1v-1l28-1v-1h18l74 5h20l48-17 32-10z" fill="#202020"/>
<path transform="translate(652,647)" d="m0 0 11 3 36 12 13 4v4l-8 11-2 3-11-3-28-11-4-5-7-15z" fill="#FEFEFE"/>
<path transform="translate(1986,109)" d="m0 0h1v133l-2 4-2-1-113 22-58 12-16 4h-6l2-3 29-7 47-10 113-22h5l-2-2v-126z" fill="#212121"/>
<path transform="translate(187,209)" d="m0 0 1 2h3v229l2 1-5 1-1 2z" fill="#3B3B3B"/>
<path transform="translate(1443,454)" d="m0 0 5 2 12 6 15 2h27l-1 7-2 1-48 3-30 3h-7l5-5 13-10z" fill="#FEFEFE"/>
<path transform="translate(1393,482)" d="m0 0 4 1 2 2-20 5-16 6-15 8-14 10-7 8h-2l-2 4-12 16-6 10-7 19-9 40-5 17-3-1 2-10 6-24 6-26 5-13 6-12 12-16 1-1-20 2-52 5h-16l2-2 13-2 69-7 10-3 8-8 14-10 16-8 15-6z" fill="#1F1F1F"/>
<path transform="translate(1649,930)" d="m0 0 1 4-9 29-7 28-7 37-7 51-6 60-3 42-1 20-2-3v-9l-1-3v-12l4-51 4-38 6-46 7-40 7-30 9-30 3-8z" fill="#202020"/>
<path transform="translate(1514,273)" d="m0 0m-2 1 2 1-1 3-15 10-7 6-6 11-3 15-4 37-5 19-12 23-10 18-7 17v11l4 7 7 5 9 3 25 2 4 3h-18l-15-2-12-6-5-2-13 11-10 7v-3l5-5 12-10 4-3-2-9 1-10 5-13 10-19 12-22 5-14 2-10 4-38 4-15 3-6 8-9 14-10z" fill="#1E1E1E"/>
<path transform="translate(1892,645)" d="m0 0 4 1 11 17 14 22 10 15 12 19 13 19v6l-7 10-13 20-9 14-22 34-9 14-1 1-10 1h-23l-15-2v-1h45v-2l4-4 11-18 9-14 19-29 16-24 1-3-5-9-12-18-15-23-11-17-15-24z" fill="#1E1E1E"/>
<path transform="translate(538,589)" d="m0 0 2 1 1 2-41 15-43 16-21 8-8 6-5 9-5 14-6 8-7 6-5 3h-2l-1 13h-1v-5h-2v-59l1-5 1-22h1l1 10 1-7h1v15l-2 57 11-8 6-9 8-20 7-7 10-5 21-8 9-3 15-6 2-2 8-1 18-7z" fill="#1E1E1E"/>
<path transform="translate(1496,936)" d="m0 0 1 4-15 33-13 32-12 35-8 32-3 22v32l4 33 3 15-1 4-1-4-3-1-5-33-2-23v-18l3-24 6-25 8-26 9-25 12-29 8-18 7-15z" fill="#1E1E1E"/>
<path transform="translate(1547,456)" d="m0 0h9l4 1 28 2 7 1-1 9-1 1-67 1-2-1v-8l9-3z" fill="#FEFEFE"/>
<path transform="translate(389,1110)" d="m0 0h1l1 53 10 7 31 20 34 22 16 10 5-1 16-10 27-18 11-7 2 1-2 4-15 9 99 1v1h-101v2l-9 4-16 10-9 6-4 1h-7l-16-10-14-9-8-1-5-1 4-1v-2h-5l-2-5-10-7-22-14-11-8-3-3v-5h1z" fill="#232323"/>
<path transform="translate(396,401)" d="m0 0h13v1l11 1v1l-35 2-37 4-45 7-35 7-34 8-22 6h-2l1-4 31-8 34-8 37-7 49-7z" fill="#1F1F1F"/>
<path transform="translate(691,726)" d="m0 0h11l92 11 31 3 15 1h23l29-2-1 3-12 2-11 1h-32l-53-5-60-7-30-4z" fill="#1E1E1E"/>
<path transform="translate(908,802)" d="m0 0 3 1v5l6 12 8 8 17 11 19 11 8 1 18-3h5l-1 3-27 6-7 3 2-5 1-2-5-2-18-10-16-11-5-4-6-9-2-8-5 3-10 10-14 11-15 10-16 8h-2l1-4 16-8 18-12 16-15 9-9z" fill="#1B1B1B"/>
<path transform="translate(1193,518)" d="m0 0h2l1 7-2 7h10l21-2h8v1l5 1v1l-22 2-7 2h-10l-27-3-27-2v-1h9v-2h-2l1-7 2-2 6 1 10 2h10l3-1 2 4 5-7z" fill="#1E1E1E"/>
<path transform="translate(872,956)" d="m0 0h34l15 1v1l-43 1-47 6-23 5-19 6-25 10-24 12-19 12-11 8v-3l4-5 17-11 22-12 17-8 21-8 20-6 25-5 24-3z" fill="#202020"/>
<path transform="translate(418,454)" d="m0 0h1v8l-4 23-12 93-2 20-2 14-2-3v-23l8-65 6-41 5-24z" fill="#1E1E1E"/>
<path transform="translate(1282,626)" d="m0 0 1 4-5 12-8 12-21 28-14 18-10 13-14 18-21 28-7 9h-3l2-5 13-18 13-17 12-15 7-9 9-12 10-13 13-17 14-20 7-15z" fill="#1D1D1D"/>
<path transform="translate(1579,775)" d="m0 0 1 4-12 22-13 23-8 16-14 27-18 35-15 31-2 5-3-1 3-9 10-22 10-19 13-26 10-19 30-56 6-10z" fill="#1D1D1D"/>
<path transform="translate(761,545)" d="m0 0h18v1l15 1v1l-110 5-58 3h-16l-1-3 5-1z" fill="#262626"/>
<path transform="translate(1056,351)" d="m0 0h90l30 2 28 4 5 1-2 1v2l-9-1-24-3-10-1-23-1h-80v3h-2l-1-2-36-1 1-2 6-1z" fill="#252525"/>
<path transform="translate(577,1102)" d="m0 0h3v63l-3 3-26 16-9 6v-3l5-5 18-11 10-7 1-1 1-57-26 17-22 14-23 15v-3l5-5 22-14 14-9 23-15z" fill="#212121"/>
<path transform="translate(200,724)" d="m0 0 4 1 7 11 10 15 13 20 14 22 12 19 1 2 3 1 55 1 1-2 1 2 2-1v4h-61l-4-2-7-12-13-20-11-17-15-23-12-19z" fill="#1E1E1E"/>
<path transform="translate(1590,427)" d="m0 0 1 3-11 12-8 6-14 6 7 1 1 2h-19l-22 5-1 8-6 1h-14l-3-2 1-5h-14l1-2 4-1 20-2 24-4 21-6 13-5 9-7 7-8z" fill="#1C1C1C"/>
<path transform="translate(1151,423)" d="m0 0 2 1 1 2-10 5-6 5-4 10-5 28-5 10-9 16-2 9 3 5 9 3 11 1h15l-2 9-1 1h-5l-2-2v-4h-12l-12-3-7-6-1-2v-7l9-19 4-7 4-11 4-23 3-8 7-7z" fill="#1E1E1E"/>
<path transform="translate(1502,468)" d="m0 0 2 2h18l1-2v2l51 1v1l-6 1-66 2-35 2-43 4h-11v-4l19-1 31-3 38-2z" fill="#202020"/>
<path transform="translate(436,986)" d="m0 0 3 1 1 12 2 82-1 53h-3l-1-5v-81l-1-31z" fill="#3B3B3B"/>
<path transform="translate(1071,515)" d="m0 0h1l1 24 14-7 10-3 14-1v1l29 1v1l-35 1-15 3-14 7-10 11-8 16-7 25-3-1 2-10 5-18 7-13 8-10-3-2-5-1-18-1 3-1v-2h22z" fill="#1F1F1F"/>
<path transform="translate(417,817)" d="m0 0 2 4 7 36 6 42 4 39 1 14v12h-1l-1-10-2 1-3-36-5-40-5-32-3-15z" fill="#1E1E1E"/>
<path transform="translate(834,770)" d="m0 0h34v1l-18 2-25 2-48 6-21 6-17 7-12 6-3-1 4-4 14-7 25-9 22-4 25-3z" fill="#1C1C1C"/>
<path transform="translate(969,686)" d="m0 0 6 2-1 2-9 1-47 10-43 8-34 5h-6v-2l-4-1 36-5 46-8 43-9z" fill="#1F1F1F"/>
<path transform="translate(1788,579)" d="m0 0h2v21l-5 19-11 25-13 29-19 44-4 1 3-9 18-41 12-27 10-23 4-14 2-8z" fill="#1E1E1E"/>
<path transform="translate(611,370)" d="m0 0 3 1-4 4-68 34-24 14-24 15-4 2 2-5 25-16 21-12 33-17z" fill="#1D1D1D"/>
<path transform="translate(1617,1068)" d="m0 0 2 4 1 1-1 16-6 61-3 51-2-3v-9l-1-3v-12l4-51 4-38z" fill="#232323"/>
<path transform="translate(1020,443)" d="m0 0h1l1 9v17l-7 58v7l32 1v2l-3 1h-40l1-2 4-1 2-11 7-61 1-15z" fill="#232323"/>
<path transform="translate(1049,592)" d="m0 0 1 4-7 14-14 17-12 14-16 16-9 11-10 14-6 10-3 1 2-5-4-1 1-2 5-2 10-16 5-6 1-3 6-4 12-12 9-11 7-7 13-17 7-14z" fill="#1B1B1B"/>
<path transform="translate(1177,418)" d="m0 0 11 1 19 8 10 9 5 10 3 11v16l-4 12h-3v-3l3-10v-13l-3-12-5-10-7-6-12-6 2 10-1 1-1 13h-1l-1-15-3-10-4-2h-11l-14 2-8 1 1-3 10-3z" fill="#1F1F1F"/>
<path transform="translate(1629,311)" d="m0 0h2v19l-3 19-4 15-10 26-8 16-8 14-6 8-4 1 2-5 6-9 10-18 8-18 7-19 4-17 2-17h2z" fill="#1D1D1D"/>
<path transform="translate(1087,833)" d="m0 0h9v1l28 1v1l-35 1-37 5-57 9h-4l1-4 71-11z" fill="#1F1F1F"/>
<path transform="translate(1935,771)" d="m0 0 1 3-9 14-22 34-9 14-1 1-10 1h-23l-15-2v-1h45v-2l4-4 11-18 9-14 15-23z" fill="#1D1D1D"/>
<path transform="translate(1448,418)" d="m0 0h2l-2 6-4 10v11l4 7 7 5 9 3 25 2 4 3h-18l-15-2-12-6-5-2-13 11-10 7v-3l5-5 12-10 4-3-2-9 1-10 5-13z" fill="#202020"/>
<path transform="translate(1258,592)" d="m0 0 1 4-5 12-11 22-15 25-11 18-7 11-4 1 2-6 9-14 13-22 14-24 10-21 2-5z" fill="#1C1C1C"/>
<path transform="translate(467,789)" d="m0 0h8l10 2 17 7 10 4 9-1 7-1v3l-9 3h-7l-20-8-7-3-10-2-13 1-35 10-8 2-1-3 32-10z" fill="#1E1E1E"/>
<path transform="translate(850,541)" d="m0 0h38l-3 2-6 1-66 3h-36l2-2 7-1z" fill="#222"/>
<path transform="translate(1693,374)" d="m0 0 1 3-9 19-11 17-11 14-7 7-13 9-14 8-3 1v-4l12-6 14-10 12-12 13-19 10-18 5-8z" fill="#1D1D1D"/>
<path transform="translate(1443,1082)" d="m0 0 3 3v41l4 33 3 15-1 4-1-4-3-1-5-33-2-23v-18z" fill="#2A2A2A"/>
<path transform="translate(543,1185)" d="m0 0m-2 1 2 1-2 4-15 9 99 1v1h-101v2l-9 4-16 10-9 6-8 1 1-2 9-5 20-13 12-8z" fill="#303030"/>
<path transform="translate(1986,109)" d="m0 0h1v131l-3-1v-126z" fill="#111"/>
<path transform="translate(396,599)" d="m0 0h1l1 10 1-7h1v15l-1 22v36h-3l1 2h1l-1 13h-1v-5h-2v-59l1-5z" fill="#3B3B3B"/>
<path transform="translate(991,659)" d="m0 0 2 1 1 2-38 8-51 9h-4l2-4 45-8z" fill="#1D1D1D"/>
<path transform="translate(296,414)" d="m0 0h9v2l-13 3-42 9-38 10h-2l1-4 31-8 34-8z" fill="#202020"/>
<path transform="translate(643,762)" d="m0 0 3 1 2 2-39 12-31 10-22 7h-2l1-4 45-14 33-11z" fill="#212121"/>
<path transform="translate(727,941)" d="m0 0 3 1 2 2-36 8-30 5-17 2h-11v-1l-13-1v-1l24-1 36-5z" fill="#202020"/>
<path transform="translate(469,544)" d="m0 0h1v14h9v1l26 1v1l-36 1-2 36-1 19h-4v-13l4-57h1l1 8z" fill="#1E1E1E"/>
<path transform="translate(1768,506)" d="m0 0 4 1 7 10 5 12 4 18 3 26v17h-1v-11h-2v17h-1l-1-32-4-27-4-12-5-10-5-6z" fill="#202020"/>
<path transform="translate(1207,684)" d="m0 0h2l-2 5-10 17-8 19-5 19-4 21v4l-4-1 1-10 4-20 8-24 8-16 7-12z" fill="#1F1F1F"/>
<path transform="translate(1038,965)" d="m0 0 17 1 78 7v1h-9v2l-25-2-67-6v-1l6-1z" fill="#222"/>
<path transform="translate(420,1203)" d="m0 0h12v3h-243v-1l231-1z" fill="#3B3B3B"/>
<path transform="translate(1858,795)" d="m0 0 1 3-9 14-14 21v1h56v1l-41 1 5 1v1h-18l-7-1 1-5 14-22 9-13z" fill="#1D1D1D"/>
<path transform="translate(1986,240)" d="m0 0 1 2-2 4-2-1-57 11-11 2h-8l2-3z" fill="#212121"/>
<path transform="translate(1056,351)" d="m0 0h50l13 1v1l-58 2v3h-2l-1-2-36-1 1-2 6-1z" fill="#1D1D1D"/>
<path transform="translate(872,956)" d="m0 0h34l15 1v1l-43 1-47 6-5 1h-8l2-3 30-5z" fill="#171717"/>
<path transform="translate(575,1103)" d="m0 0 2 1v2l-26 17-22 14-23 15v-3l5-5 22-14 14-9 23-15z" fill="#1D1D1D"/>
<path transform="translate(557,1051)" d="m0 0 9 1 25 6 29 4 23 2v1h-9v2l-17-1-26-4-26-6-8-3z" fill="#222"/>
<path transform="translate(580,45)" d="m0 0h4l1 4-55 16-18 5h-2l1-4 27-8 42-12z" fill="#202020"/>
<path transform="translate(844,848)" d="m0 0 3 1-2 3-22 5-48 8h-5l2-4 49-8 20-4z" fill="#1E1E1E"/>
<path transform="translate(859,366)" d="m0 0h7v1l6 1v1l-52 6-21 3h-5v-2l-3-1 35-5z" fill="#1E1E1E"/>
<path transform="translate(639,63)" d="m0 0h2l-1 9-5 36-2 20-1 19h-1l-1-34 4-31 3-17z" fill="#272727"/>
<path transform="translate(1831,644)" d="m0 0h62v4h-57l-1 2-1-4z" fill="#393939"/>
<path transform="translate(1155,520)" d="m0 0 6 1 10 2h10l3-1v7l-2 2-30-2 1-7z" fill="#FEFEFE"/>
<path transform="translate(1061,355)" d="m0 0h1l1 7 3 54v12h-1l-1-6-2 1-3-55v-10h2z" fill="#1C1C1C"/>
<path transform="translate(1112,500)" d="m0 0h1v9l3 5 9 3 11 1h15l-2 9-1 1h-5l-2-2v-4h-12l-12-3-7-6-1-2v-7l1-3z" fill="#212121"/>
<path transform="translate(1986,42)" d="m0 0h1v60l-1-2-4-1 1-52 2 1z" fill="#282828"/>
<path transform="translate(443,624)" d="m0 0 2 1-4 4-10 5-5 6-4 10-5 12-9 10-11 6-2-1 1-2 7-4 8-7 6-12 6-15 7-7 10-5z" fill="#1F1F1F"/>
<path transform="translate(1115,930)" d="m0 0h5l2 3-23 5-35 11-10 3 1-4 36-12z" fill="#1F1F1F"/>
<path transform="translate(1674,868)" d="m0 0h2l-3 9-13 30-9 24h-3l2-9 15-37 7-16z" fill="#1F1F1F"/>
<path transform="translate(1502,468)" d="m0 0 2 2h18l1-2v2l51 1v1l-6 1-40 1h-37l1-2 9-1z" fill="#171717"/>
<path transform="translate(634,1132)" d="m0 0h2l-1 13-6 51h-1l-1-6h-1l1-16 5-40z" fill="#212121"/>
<path transform="translate(1022,380)" d="m0 0h1l1 39v19l-1 19h-1l-2-14v-39l1-19z" fill="#323232"/>
<path transform="translate(635,551)" d="m0 0h34l-1 3-42 2h-16l-1-3 5-1z" fill="#202020"/>
<path transform="translate(1622,262)" d="m0 0 3 3 5 18 2 16v18h-1v-6h-2l1 11-2 4-1-33-3-17-3-10z" fill="#1F1F1F"/>
<path transform="translate(1610,1134)" d="m0 0 2 1 1 6-1 26-2 34-2-3v-9l-1-3v-12z" fill="#272727"/>
<path transform="translate(1614,456)" d="m0 0h2l-1 6-2 8h-16l1-9 3-2z" fill="#FEFEFE"/>
<path transform="translate(1474,364)" d="m0 0h1l-1 9-9 19-9 16-6 10-3 1 1-5 13-24 8-16 3-9z" fill="#1D1D1D"/>
<path transform="translate(542,405)" d="m0 0 2 1-5 5-18 10-30 19v-3l4-4 22-14 21-12z" fill="#1C1C1C"/>
<path transform="translate(1691,523)" d="m0 0 2 3 1 4v9l-4 20-8 25h-3l-1-2 6-17 5-19z" fill="#212121"/>
<path transform="translate(1629,311)" d="m0 0h2v19l-3 19-4 15-3 8-4 1 3-10 5-20 2-17h2z" fill="#202020"/>
<path transform="translate(319,814)" d="m0 0 2 2 2-1v4h-61l2-1v-2h55z" fill="#3B3B3B"/>
<path transform="translate(652,1079)" d="m0 0 1 3-9 17-4 14-3 18-4 2 1-11 5-21 4-9 6-11z" fill="#1F1F1F"/>
<path transform="translate(781,927)" d="m0 0 3 1-2 3-45 12h-8l2-3z" fill="#1F1F1F"/>
<path transform="translate(907,361)" d="m0 0h15l-3 3-38 4h-16l1-2 12-2z" fill="#1F1F1F"/>
<path transform="translate(1138,840)" d="m0 0h1l-1 8-6 24-3 17-1 9h-1l-1-6h-1l1-11 5-23 5-17z" fill="#212121"/>
<path transform="translate(642,912)" d="m0 0h1l3 16v3l22-2h6l-1 3-17 3h-11l-3-5-2-11v-6z" fill="#1E1E1E"/>
<path transform="translate(1443,1082)" d="m0 0 3 3v49h-1l-1-6-2 1-1-12v-18z" fill="#3A3A3A"/>
<path transform="translate(1565,455)" d="m0 0h11l14 1h10l11-1-1 3-11 3-1 6-3-2v-5l-21-1-14-1v-1l5-1z" fill="#222"/>
<path transform="translate(440,1198)" d="m0 0 7 2 16 10 20 13-1 2-5-1-23-15-5-3-4-1-5-6z" fill="#1C1C1C"/>
<path transform="translate(880,704)" d="m0 0 4 1-3 3-40 6h-6v-2l-4-1 36-5z" fill="#202020"/>
<path transform="translate(267,626)" d="m0 0h50v2l3 1-58 1 2-2h3z" fill="#3B3B3B"/>
<path transform="translate(1625,1024)" d="m0 0h1v11l-5 36-2 2-1-1v-11l5-35z" fill="#242424"/>
<path transform="translate(897,676)" d="m0 0h5l-1 3-8 2-27 4h-13l3-3z" fill="#1E1E1E"/>
<path transform="translate(1641,662)" d="m0 0 1 3-13 25-8 14-4 1 2-6 13-24 6-11z" fill="#1D1D1D"/>
<path transform="translate(1729,483)" d="m0 0 12 2 14 7 10 8 5 6h-2l-1 2-8-8-10-7-9-4-14-3z" fill="#202020"/>
<path transform="translate(1266,526)" d="m0 0h16v2l-12 2-23 2h-16l2-2 13-2z" fill="#232323"/>
<path transform="translate(666,1059)" d="m0 0 1 3-9 12-4 6-4 1 2-5 4-6v-2h-16l-6-1v-2l25-1z" fill="#1C1C1C"/>
<path transform="translate(1142,830)" d="m0 0 1 3-3 8h-3v-3l-13-2-30-1 2-2 43-1z" fill="#191919"/>
<path transform="translate(1207,684)" d="m0 0h2l-2 5-10 17-8 19h-3l1-5 7-17 10-17z" fill="#202020"/>
<path transform="translate(1454,1042)" d="m0 0h1l-1 9-5 21-2 13h-2l-1-2v-8l6-25 2-7z" fill="#212121"/>
<path transform="translate(1468 1e3)" d="m0 0 1 4-12 35-2 4-2-1 1-7 11-32z" fill="#1F1F1F"/>
<path transform="translate(1087,833)" d="m0 0h9v1l28 1v1l-35 1-24 3h-4l2-4z" fill="#1F1F1F"/>
<path transform="translate(469,544)" d="m0 0h1v14h9v1l26 1v1l-36 1-1 9-3 2v-11l1-15h1l1 8z" fill="#2D2D2D"/>
<path transform="translate(1320,520)" d="m0 0 3 1h-2v3l-22 3-17 1v-2h-6v-1l39-4z" fill="#222"/>
<path transform="translate(486,792)" d="m0 0 9 3 17 7 9-1 7-1v3l-9 3h-7l-20-8-7-3z" fill="#222"/>
<path transform="translate(1052,949)" d="m0 0 3 1-2 3-30 10v1l-22-1v-1l17-1z" fill="#212121"/>
<path transform="translate(1897,830)" d="m0 0 1 3-3 4-10 1h-23l-15-2v-1h45v-2z" fill="#1A1A1A"/>
<path transform="translate(969,686)" d="m0 0 6 2-1 2-9 1-32 7h-3l2-4z" fill="#1F1F1F"/>
<path transform="translate(1516,462)" d="m0 0h5v8l-3 1h-14l-1-3 3-4z" fill="#FEFEFE"/>
<path transform="translate(1067,482)" d="m0 0 2 3 2 14v26l-1 6h-1l-1-5-1-18z" fill="#1B1B1B"/>
<path transform="translate(1777,46)" d="m0 0 19 2 29 5-3 1v2l-38-6-7-1z" fill="#252525"/>
<path transform="translate(1788,281)" d="m0 0 3 1 2 2-27 8-12 4h-2l1-4 28-9z" fill="#202020"/>
<path transform="translate(1586,252)" d="m0 0h23l9 4 4 5v5h-2l-4-6-8-4-25-1z" fill="#1B1B1B"/>
<path transform="translate(1740,716)" d="m0 0 1 4-11 26-4 10-3-1 3-10 11-26z" fill="#1D1D1D"/>
<path transform="translate(1151,522)" d="m0 0h1v7h2v2h-14l-30-1 1-2 17-1h11l4-3v4l5-1z" fill="#151515"/>
<path transform="translate(1020,443)" d="m0 0h1l1 9v17l-2 18-2-3-2 2 1-13 2-25z" fill="#202020"/>
<path transform="translate(540,1125)" d="m0 0 2 1-5 6-19 12-12 8v-3l5-5 22-14z" fill="#1E1E1E"/>
<path transform="translate(220,691)" d="m0 0 1 3-8 12-9 14-2 4-3 1 1-7 14-21 5-5z" fill="#1E1E1E"/>
<path transform="translate(1682,490)" d="m0 0 4 2 4 8 2 5 2 12v13l-2-4-2-7-2-12-5-12z" fill="#212121"/>
<path transform="translate(743,992)" d="m0 0 2 1-1 3-17 10-17 12v-3l4-5 17-11z" fill="#1F1F1F"/>
<path transform="translate(1170,353)" d="m0 0 14 1 25 4-2 1v2l-9-1-24-3-10-1v-1l6-1z" fill="#212121"/>
<path transform="translate(1596,744)" d="m0 0h2l-2 5-9 17-6 11-3-1 2-6 13-24z" fill="#1E1E1E"/>
<path transform="translate(1787,547)" d="m0 0h1l3 26v17h-1v-11h-2v17h-1l-1-39z" fill="#393939"/>
<path transform="translate(761,545)" d="m0 0h18v1l15 1v1l-24 1h-23v-1l-6-1v-1z" fill="#2C2C2C"/>
<path transform="translate(1011,533)" d="m0 0 4 1 32 1v2l-3 1h-40l1-2 6-1z" fill="#111"/>
<path transform="translate(417,817)" d="m0 0 2 4 5 24v15l-2-1-5-27z" fill="#2B2B2B"/>
<path transform="translate(1724,754)" d="m0 0h1l-1 7-12 29h-3l-1-2 11-25 3-8z" fill="#1F1F1F"/>
<path transform="translate(1049,592)" d="m0 0 1 4-7 14-10 12-5 2 2-4 10-13 7-14z" fill="#1D1D1D"/>
<path transform="translate(424,851)" d="m0 0h1l5 32v7l-3 3-4-28z" fill="#363636"/>
<path transform="translate(1091,970)" d="m0 0h9l33 3v1h-9v2l-38-3v-1l5-1z" fill="#242424"/>
<path transform="translate(1865,644)" d="m0 0h28v4h-29z" fill="#3B3B3B"/>
<path transform="translate(396,401)" d="m0 0h13v1l11 1v1l-35 2h-7v-2h-5v-1z" fill="#242424"/>
<path transform="translate(1477,324)" d="m0 0h1l1 8v17l-3 17-3-1 2-20z" fill="#222"/>
<path transform="translate(249,159)" d="m0 0 2 1-2 4-17 12-12 9v-3l5-6 17-12z" fill="#1D1D1D"/>
<path transform="translate(665,953)" d="m0 0h5l3 3-24 3h-11v-1l-13-1v-1l24-1z" fill="#242424"/>
<path transform="translate(721,547)" d="m0 0h33v1h-7v2l-20 1h-15l4-2z" fill="#232323"/>
<path transform="translate(899,539)" d="m0 0h15v1l16 1v1l-28 1h-17v-1l-8-1v-1z" fill="#2A2A2A"/>
<path transform="translate(538,589)" d="m0 0 2 1 1 2-32 12h-2l1-4 27-10z" fill="#1F1F1F"/>
<path transform="translate(786,544)" d="m0 0h33l-2 2-4 1h-36l2-2z" fill="#1E1E1E"/>
<path transform="translate(428,423)" d="m0 0h2l-3 9-6 21-2 4-2-2 2-11 6-18z" fill="#1F1F1F"/>
<path transform="translate(571,1167)" d="m0 0 2 1-2 4-20 12-9 6v-3l5-5 18-11z" fill="#1D1D1D"/>
<path transform="translate(906,956)" d="m0 0h18l16 1v1h-6v2l-56-1v-1l28-1z" fill="#333"/>
<path transform="translate(1750,293)" d="m0 0 3 1-2 3-28 10h-2l1-4z" fill="#1F1F1F"/>
<path transform="translate(1631,993)" d="m0 0h1v8l-5 27-3-3 2-16 3-14z" fill="#222"/>
<path transform="translate(485,557)" d="m0 0h30l1 2-3 1h-35l1-2z" fill="#1A1A1A"/>
<path transform="translate(640,356)" d="m0 0 3 1 1 2-30 14-1-2 3-3z" fill="#1F1F1F"/>
<path transform="translate(1983,56)" d="m0 0h1l1 31 1-17h1v32l-1-2-4-1z" fill="#3B3B3B"/>
<path transform="translate(923,538)" d="m0 0h20v1l20 1v1h-51l2-2z" fill="#212121"/>
<path transform="translate(1141,733)" d="m0 0 1 4-10 19-4 5-3 1 2-5 11-22z" fill="#1F1F1F"/>
<path transform="translate(939,358)" d="m0 0h9v1l8 1v1l-26 2h-9l-3-3z" fill="#262626"/>
<path transform="translate(669,342)" d="m0 0 3 1-4 4-21 10-5 1 1-3z" fill="#1D1D1D"/>
<path transform="translate(643,762)" d="m0 0 3 1 2 2-29 9h-2l1-4z" fill="#202020"/>
<path transform="translate(510,1206)" d="m0 0 2 1-2 4-17 11-7 3-4-1 10-6z" fill="#1F1F1F"/>
<path transform="translate(1680,582)" d="m0 0 1 4-8 19-3 7h-3v-3l10-24z" fill="#202020"/>
<path transform="translate(1630,289)" d="m0 0h1l1 10v18h-1v-6h-2l1 11-2 4v-32z" fill="#393939"/>
<path transform="translate(1e3 963)" d="m0 0h15l17 1 6 2v1h-18l-20-2z" fill="#1C1C1C"/>
<path transform="translate(1214,599)" d="m0 0h2l-2 6-10 20-5 2 2-5 11-22z" fill="#1E1E1E"/>
<path transform="translate(1071,515)" d="m0 0h1l1 24 2 1-3 1-1-5-11 1v1h-16l3-1v-2h22z" fill="#393939"/>
<path transform="translate(1660,901)" d="m0 0 1 4-10 26h-3l2-9 8-20z" fill="#1E1E1E"/>
<path transform="translate(1836,834)" d="m0 0h56v1l-41 1 5 1v1h-18z" fill="#393939"/>
<path transform="translate(1073,767)" d="m0 0h5l3 3-29 5h-3l2-4z" fill="#1F1F1F"/>
<path transform="translate(934,958)" d="m0 0h21l15 1v1h-9v2l-25-1-2-1z" fill="#262626"/>
<path transform="translate(1986,240)" d="m0 0 1 2-2 4-2-1-15 3h-9l2-3z" fill="#1B1B1B"/>
<path transform="translate(1613,1109)" d="m0 0h2v19l-1 11-2 2-1-6v-12l1-12z" fill="#202020"/>
<path transform="translate(1393,482)" d="m0 0 4 1 2 2-20 5-10 3 1-4 15-5z" fill="#212121"/>
<path transform="translate(1816,274)" d="m0 0 4 1 2 2-26 6h-6l2-3z" fill="#212121"/>
<path transform="translate(1483,304)" d="m0 0h1l-1 9-3 25h-1l-1-6v-15l3-11z" fill="#1F1F1F"/>
<path transform="translate(233,428)" d="m0 0 4 1 1 2-26 7h-2l1-4z" fill="#1F1F1F"/>
<path transform="translate(605,797)" d="m0 0 2 1-4 6-7 8-4 8-3-1 1-5 8-11z" fill="#1F1F1F"/>
<path transform="translate(1479,472)" d="m0 0h13v1l10 1v1l-20 1h-13v-1l-6-1v-1z" fill="#292929"/>
<path transform="translate(557,1051)" d="m0 0 9 1 20 5-2 1v2l-12-2-14-4z" fill="#202020"/>
<path transform="translate(396,599)" d="m0 0h1l1 10 1-7h1v15l-1 10-3 1-2-2 1-5z" fill="#383838"/>
<path transform="translate(1845,268)" d="m0 0 3 1-3 3-19 4h-7l2-3z" fill="#202020"/>
<path transform="translate(1289,601)" d="m0 0h1l-1 10-5 17-3-1 2-10 4-15z" fill="#1D1D1D"/>
<path transform="translate(695,414)" d="m0 0 2 1-3 5-18 12-4 2 2-5 11-8z" fill="#1F1F1F"/>
<path transform="translate(562,580)" d="m0 0 3 1 1 2-22 8h-5l1-3z" fill="#1F1F1F"/>
<path transform="translate(1948,751)" d="m0 0h2l-2 5-11 16-4 1 2-5 10-15z" fill="#1F1F1F"/>
<path transform="translate(1067,446)" d="m0 0h1l2 37v12h-1l-1-10-1 5h-1z" fill="#3B3B3B"/>
<path transform="translate(1930,251)" d="m0 0 4 1-3 3-16 3h-8l2-3z" fill="#1E1E1E"/>
<path transform="translate(370,108)" d="m0 0 3 1-2 3-20 6h-5l2-3z" fill="#1E1E1E"/>
<path transform="translate(317,626)" d="m0 0h6l1 4-10 16h-3v-3l9-15h-3z" fill="#1C1C1C"/>
<path transform="translate(631,103)" d="m0 0h1v6h2l-2 38h-1l-1-34z" fill="#3B3B3B"/>
<path transform="translate(580,45)" d="m0 0h4l1 4-21 6h-2l1-4 17-5z" fill="#222"/>
<path transform="translate(1684,845)" d="m0 0 1 4-8 18-4 2 1-5 8-18z" fill="#1D1D1D"/>
<path transform="translate(490,436)" d="m0 0 2 1-2 4-20 13v-3l5-5z" fill="#1F1F1F"/>
<path transform="translate(512,422)" d="m0 0 2 1-2 4-18 11-4 2 2-5z" fill="#1D1D1D"/>
<path transform="translate(850,907)" d="m0 0 2 1-2 3-21 7h-2l2-4z" fill="#1C1C1C"/>
<path transform="translate(751,935)" d="m0 0 3 1-3 3-14 4h-8l2-3z" fill="#1D1D1D"/>
<path transform="translate(1788,579)" d="m0 0h2v21l-2 9h-3l1-11 1-2z" fill="#1C1C1C"/>
<path transform="translate(763,982)" d="m0 0 3 1-4 4-16 8-3-1 4-4z" fill="#1C1C1C"/>
<path transform="translate(1104,528)" d="m0 0h7v1l29 1v1l-45 1 2-3z" fill="#292929"/>
<path transform="translate(466,616)" d="m0 0m-3 0 3 1-1 3-19 7h-2l1-4z" fill="#1E1E1E"/>
<path transform="translate(1195,435)" d="m0 0h1v18l-2 10-3 1 1-12 1-3 1-13z" fill="#1A1A1A"/>
<path transform="translate(1622,1045)" d="m0 0 1 2-1 17-2 9-2-1v-11l2-10z" fill="#1E1E1E"/>
<path transform="translate(657,550)" d="m0 0h34v2l-7 1h-15v-2h-12z" fill="#242424"/>
<path transform="translate(1904,256)" d="m0 0 4 1 2 2-20 4h-4l1-3 11-3z" fill="#222"/>
<path transform="translate(1152,810)" d="m0 0 1 3-8 16-2 2h-2l1-5 7-14z" fill="#202020"/>
<path transform="translate(859,366)" d="m0 0h7v1l6 1v1l-19 2h-6v-2l-4-1z" fill="#282828"/>
<path transform="translate(1439,454)" d="m0 0m-2 1 2 1-4 6-15 11v-3l5-5z" fill="#1F1F1F"/>
<path transform="translate(1162,520)" d="m0 0h21l-2 4h-10l-9-2z" fill="#1D1D1D"/>
<path transform="translate(1138,840)" d="m0 0h1l-1 8-4 15-3-1 1-8 4-13z" fill="#202020"/>
<path transform="translate(1645,437)" d="m0 0 2 1-2 4-16 9-3 1v-4l12-6z" fill="#1F1F1F"/>
<path transform="translate(615,793)" d="m0 0h14l-3 2-16 4-5 2 2-5z" fill="#1B1B1B"/>
<path transform="translate(515,565)" d="m0 0h2l-2 5-9 13-4 1 2-5 7-11z" fill="#1F1F1F"/>
<path transform="translate(320,410)" d="m0 0 4 1 3 2-22 3v-2l-3-1z" fill="#212121"/>
<path transform="translate(688,333)" d="m0 0 3 1 1 2-21 9 1-4z" fill="#1F1F1F"/>
<path transform="translate(1443,1124)" d="m0 0 2 4 2 9v11l-2 3-2-11z" fill="#1D1D1D"/>
<path transform="translate(712,1012)" d="m0 0m-1 1m-2 1 2 1-4 6-14 12-4 3 2-4 16-16z" fill="#1B1B1B"/>
<path transform="translate(782,974)" d="m0 0 3 1 1 2-20 8-1-2 3-3z" fill="#202020"/>
<path transform="translate(1554,821)" d="m0 0h2l-2 6-7 13h-3v-3l8-15z" fill="#1F1F1F"/>
<path transform="translate(437,797)" d="m0 0 3 1 1 2-20 6h-2l-1-3z" fill="#222"/>
<path transform="translate(1046,772)" d="m0 0 4 1-3 3-11 2h-8l2-3z" fill="#1E1E1E"/>
<path transform="translate(1064,396)" d="m0 0h1l1 20v12h-1l-1-6-2 1v-11z" fill="#3A3A3A"/>
<path transform="translate(266,148)" d="m0 0 2 1v3l-15 9-4 2 2-5z" fill="#202020"/>
<path transform="translate(389,102)" d="m0 0 3 1 1 2-19 6h-2l1-4z" fill="#212121"/>
<path transform="translate(983,676)" d="m0 0 1 3-8 13-3 1 2-5-4-1 1-2 5-2 3-5z" fill="#1A1A1A"/>
<path transform="translate(398,584)" d="m0 0h1l1 6v12l-1 10-2-3v-23z" fill="#151515"/>
<path transform="translate(1193,518)" d="m0 0h1l-1 7-3 7-4-1 1-7 4-5z" fill="#FEFEFE"/>
<path transform="translate(1087,833)" d="m0 0h9v1l28 1v1l-41 1z" fill="#2E2E2E"/>
<path transform="translate(927,695)" d="m0 0 4 1-3 3-15 3h-3l1-3z" fill="#1F1F1F"/>
<path transform="translate(1786,608)" d="m0 0h1l-1 8-5 12h-3l1-5 5-14z" fill="#202020"/>
<path transform="translate(1029,957)" d="m0 0 3 1v2l-9 3v1l-22-1v-1l17-1z" fill="#2D2D2D"/>
<path transform="translate(615,771)" d="m0 0 3 1-2 3-13 4h-5l4-4z" fill="#1E1E1E"/>
<path transform="translate(1747,699)" d="m0 0h2l-3 9-4 9-4 1 3-9 4-9z" fill="#202020"/>
<path transform="translate(414,662)" d="m0 0 1 3-7 7-11 6-2-1 1-2 7-4z" fill="#1A1A1A"/>
<path transform="translate(1448,1065)" d="m0 0h1l-1 13-1 7h-2l-1-2v-8l2-9z" fill="#232323"/>
<path transform="translate(421,645)" d="m0 0h1l-1 8-5 10-4 1 2-5 5-13z" fill="#1F1F1F"/>
<path transform="translate(1013,514)" d="m0 0 2 3v10l-1 7-3-1-1 2 2-20z" fill="#252525"/>
<path transform="translate(428,888)" d="m0 0 1 2h2v23l-2-1-1-10z" fill="#1A1A1A"/>
<path transform="translate(1451,474)" d="m0 0h20l-4 3h-19z" fill="#1C1C1C"/>
<path transform="translate(711,404)" d="m0 0m-2 1 2 1-1 3-15 10v-3l5-5z" fill="#1D1D1D"/>
<path transform="translate(878,364)" d="m0 0h6l4 3-7 1h-16l1-2z" fill="#222"/>
<path transform="translate(283,139)" d="m0 0 2 1-5 5-11 6-3-1 4-4z" fill="#1C1C1C"/>
<path transform="translate(525,1196)" d="m0 0 2 1-6 8-8 4-3-1 5-5z" fill="#1A1A1A"/>
<path transform="translate(634,1132)" d="m0 0h2l-1 13-1 7-3-4 1-14z" fill="#242424"/>
<path transform="translate(1071,969)" d="m0 0h17l7 2v1h-20l-4-1z" fill="#1C1C1C"/>
<path transform="translate(1674,868)" d="m0 0h2l-3 9-4 9-3-1 3-9 3-7z" fill="#212121"/>
<path transform="translate(1624,355)" d="m0 0h2l-2 9-3 8-4 1 3-10 2-7z" fill="#222"/>
<path transform="translate(560,52)" d="m0 0 3 1-2 3-11 3h-6l1-3z" fill="#1E1E1E"/>
<path transform="translate(974,692)" d="m0 0h2l-2 6-5 12-3-1 1-5 5-11z" fill="#202020"/>
<path transform="translate(1765,658)" d="m0 0h2l-2 6-5 12-3-1 1-5 5-11z" fill="#202020"/>
<path transform="translate(1469,462)" d="m0 0h20l4 3h-18l-6-2z" fill="#232323"/>
<path transform="translate(1194,707)" d="m0 0 1 3-6 15h-3l1-5 4-10z" fill="#1E1E1E"/>
<path transform="translate(446,85)" d="m0 0 3 1-2 3-16 4 1-4z" fill="#1D1D1D"/>
<path transform="translate(615,956)" d="m0 0 26 1-3 2h-19l-4-2z" fill="#1A1A1A"/>
<path transform="translate(1839,824)" d="m0 0h2l-2 5-4 6 4 1-2 1h-6l1-5 4-6z" fill="#1F1F1F"/>
<path transform="translate(1459,1026)" d="m0 0h1l-1 8-3 10-3-1 1-7 3-9z" fill="#202020"/>
<path transform="translate(1225,530)" d="m0 0h8v1l5 1v1l-11 1h-9l-4-3z" fill="#2A2A2A"/>
<path transform="translate(384,402)" d="m0 0h8v1l7 1v1l-21 1v-2h-5v-1z" fill="#292929"/>
<path transform="translate(872,956)" d="m0 0h11l-2 2-8 2h-9l-4-3z" fill="#282828"/>
<path transform="translate(1702,806)" d="m0 0 1 4-6 13-3-1 1-5 5-10z" fill="#1D1D1D"/>
<path transform="translate(454,792)" d="m0 0 3 1-3 3-10 3h-5l1-3z" fill="#1D1D1D"/>
<path transform="translate(1266,526)" d="m0 0h16v2l-3 1h-17l1-2z" fill="#1B1B1B"/>
<path transform="translate(1629,311)" d="m0 0h2v19l-1 3-3 1v-8h2z" fill="#1C1C1C"/>
<path transform="translate(344,116)" d="m0 0 3 1 1 2-15 5h-2l1-4z" fill="#222"/>
<path transform="translate(635,88)" d="m0 0 1 3-1 17-3 1v-14z" fill="#1C1C1C"/>
<path transform="translate(1614,1093)" d="m0 0h1l2 7-1 18h-1v-9h-2z" fill="#383838"/>
<path transform="translate(1091,970)" d="m0 0h9l10 1-4 1v2l-20-1v-1l5-1z" fill="#2C2C2C"/>
<path transform="translate(625,956)" d="m0 0h28v2l-4 1h-11v-1l-13-1z" fill="#282828"/>
<path transform="translate(568,786)" d="m0 0 3 1-2 3-13 4h-2l1-4z" fill="#1F1F1F"/>
<path transform="translate(406,97)" d="m0 0 3 1-3 3-10 3h-5l2-3z" fill="#1D1D1D"/>
<path transform="translate(192,590)" d="m0 0 5 2 7 4v5l-3 2-5-8-4-3z" fill="#272727"/>
<path transform="translate(614,552)" d="m0 0h17v1h-11v2h6v1h-16l-1-3z" fill="#3B3B3B"/>
<path transform="translate(1441,475)" d="m0 0h8v1l7 1v1l-20 1-4-3z" fill="#292929"/>
<path transform="translate(1502,468)" d="m0 0 2 2 7 1-3 3h-17l1-2 9-1z" fill="#181818"/>
<path transform="translate(362,404)" d="m0 0h16v2l-3 1h-16z" fill="#1B1B1B"/>
<path transform="translate(329,121)" d="m0 0 3 1-2 3-12 4h-2l1-4z" fill="#202020"/>
<path transform="translate(1115,930)" d="m0 0h5l2 3-17 3 1-4z" fill="#222"/>
<path transform="translate(1180,752)" d="m0 0h1l-1 17-4-1 1-10 1-5z" fill="#212121"/>
<path transform="translate(991,659)" d="m0 0 2 1 1 2-13 3h-3v-2l-3-1z" fill="#282828"/>
<path transform="translate(1293,586)" d="m0 0 1 3-3 14-3-1 1-9 1-5z" fill="#212121"/>
<path transform="translate(1822,54)" d="m0 0h8l10 2-2 1v2l-8-1-8-2z" fill="#202020"/>
<path transform="translate(540,1125)" d="m0 0 2 1-5 6-10 6-1-2 5-5z" fill="#1F1F1F"/>
<path transform="translate(540,795)" d="m0 0 3 1 1 2-13 4-4-1 1-2z" fill="#1E1E1E"/>
<path transform="translate(764,379)" d="m0 0h5l4 3-18 2 2-4z" fill="#232323"/>
<path transform="translate(1618,257)" d="m0 0h9l10 2-2 1v2l-15-2z" fill="#2A2A2A"/>
<path transform="translate(1066,944)" d="m0 0 3 1-2 3-11 4h-2l1-4z" fill="#1E1E1E"/>
<path transform="translate(1025,776)" d="m0 0 4 1 2 2-14 3h-3l2-4z" fill="#212121"/>
<path transform="translate(1148,720)" d="m0 0 1 3-6 12h-3v-3l5-10z" fill="#1E1E1E"/>
<path transform="translate(967,708)" d="m0 0 1 4-4 12-3-1 2-9 2-5z" fill="#1E1E1E"/>
<path transform="translate(1049,592)" d="m0 0 1 4-5 10-4 1 2-5 4-9z" fill="#1E1E1E"/>
<path transform="translate(1220,584)" d="m0 0 1 4-4 10-4 2 3-10 2-5z" fill="#1C1C1C"/>
<path transform="translate(1011,533)" d="m0 0 12 2v1h-5v2h-14l1-2 6-1z" fill="#1A1A1A"/>
<path transform="translate(1719,304)" d="m0 0 3 1-2 3-9 3h-5l4-4z" fill="#1D1D1D"/>
<path transform="translate(797,969)" d="m0 0 3 1-2 3-9 3h-5l1-3z" fill="#1C1C1C"/>
<path transform="translate(1059,967)" d="m0 0 18 1v1h-6v2l-17-1v-1l5-1z" fill="#2C2C2C"/>
<path transform="translate(830,961)" d="m0 0 4 1-3 3-5 1h-8l2-3z" fill="#1D1D1D"/>
<path transform="translate(859,841)" d="m0 0 2 1-4 5-9 4h-2l1-4z" fill="#1C1C1C"/>
<path transform="translate(1071,535)" d="m0 0h1v7l-12-4-1-2z" fill="#191919"/>
<path transform="translate(296,414)" d="m0 0h9v2l-7 2h-9l2-3z" fill="#1D1D1D"/>
<path transform="translate(1516,894)" d="m0 0 1 4-5 10h-3v-3l5-10z" fill="#1F1F1F"/>
<path transform="translate(1618,704)" d="m0 0h2l-2 5-4 8h-3v-3l5-9z" fill="#212121"/>
<path transform="translate(519,596)" d="m0 0 2 1 1 2-13 5h-2l1-4z" fill="#222"/>
<path transform="translate(722,396)" d="m0 0 2 1-2 4-11 7v-3l5-5z" fill="#202020"/>
<path transform="translate(1698,361)" d="m0 0 1 4-4 10-4 1 3-9 2-5z" fill="#1E1E1E"/>
<path transform="translate(460,81)" d="m0 0 3 1-3 3-12 3 1-4z" fill="#1E1E1E"/>
<path transform="translate(431,899)" d="m0 0h1l2 17v8h-1l-1-6-2 1z" fill="#3B3B3B"/>
<path transform="translate(1128,879)" d="m0 0h1v10l-1 9h-1l-1-6h-1l1-11z" fill="#242424"/>
<path transform="translate(424,851)" d="m0 0h1l2 11v6h-2l-1 4-1-12z" fill="#373737"/>
<path transform="translate(435,938)" d="m0 0h1l1 14v12h-1l-1-10-2 1 1-11z" fill="#3B3B3B"/>
<path transform="translate(1865,784)" d="m0 0 1 3-6 9-4 1 2-5 4-6z" fill="#1F1F1F"/>
<path transform="translate(206,712)" d="m0 0 1 3-5 9-3 1 1-7 5-5z" fill="#202020"/>
<path transform="translate(834,369)" d="m0 0h13v2l-2 1h-14z" fill="#1C1C1C"/>
<path transform="translate(1854,266)" d="m0 0h7l-1 3-13 2 2-4z" fill="#212121"/>
<path transform="translate(1649,930)" d="m0 0 1 4-3 9-4 1 3-11z" fill="#232323"/>
<path transform="translate(1904,819)" d="m0 0 1 3-6 9-4 1 2-5 4-6z" fill="#1E1E1E"/>
<path transform="translate(1685,570)" d="m0 0 1 2-4 12h-3l-1-2 4-10z" fill="#242424"/>
<path transform="translate(1062,555)" d="m0 0 1 3-5 11-3-1 1-5 3-6z" fill="#1F1F1F"/>
<path transform="translate(1622,262)" d="m0 0 3 3 2 6v4l-3 1-3-10z" fill="#232323"/>
<path transform="translate(639,63)" d="m0 0h2l-1 9-1 6-3-3 1-10z" fill="#232323"/>
<path transform="translate(577,1157)" d="m0 0h2v10l-5 3-3-1 5-6z" fill="#171717"/>
<path transform="translate(1061,355)" d="m0 0h1l1 7v14h-1l-1-9-2 1v-10h2z" fill="#3B3B3B"/>
<path transform="translate(1607,1174)" d="m0 0h1l1 9h1v18l-2-3v-9l-1-3z" fill="#3B3B3B"/>
<path transform="translate(554,1178)" d="m0 0m-2 1 2 1-4 5-9 5 2-4 4-4z" fill="#1F1F1F"/>
<path transform="translate(505,1148)" d="m0 0 2 1-2 4-8 5-3-1 5-5z" fill="#1D1D1D"/>
<path transform="translate(678,951)" d="m0 0h5l-1 3-2 1h-11l2-3z" fill="#1D1D1D"/>
<path transform="translate(421,843)" d="m0 0 3 2v15l-2-1-1-7z" fill="#1C1C1C"/>
<path transform="translate(1320,520)" d="m0 0 3 1h-2v3l-10 1v-2h-6v-1z" fill="#2B2B2B"/>
<path transform="translate(826,370)" d="m0 0h6v1l5 1v1l-15 1v-2l-4-1z" fill="#272727"/>
<path transform="translate(357,112)" d="m0 0 3 1-2 3-7 2h-5l2-3z" fill="#1C1C1C"/>
<path transform="translate(1623,1038)" d="m0 0h1v10l-1 8h-1v-10l-1 5h-1l1-12z" fill="#2C2C2C"/>
<path transform="translate(1147,520)" d="m0 0h3l-1 7-5 1 1-7z" fill="#FEFEFE"/>
<path transform="translate(575,1103)" d="m0 0 2 1v2l-11 7v-3l4-4z" fill="#1C1C1C"/>
<path transform="translate(1689,834)" d="m0 0 1 4-4 9-3-1 1-5 4-6z" fill="#1E1E1E"/>
<path transform="translate(293,134)" d="m0 0 3 1-4 4-8 3 1-4z" fill="#1E1E1E"/>
<path transform="translate(1811,51)" d="m0 0 14 2-3 1v2l-14-2z" fill="#252525"/>
<path transform="translate(1640,957)" d="m0 0h1l-1 10-2 4-2-2 2-10z" fill="#1F1F1F"/>
<path transform="translate(690,949)" d="m0 0 4 1 2 2-14 2 1-3z" fill="#212121"/>
<path transform="translate(1560,810)" d="m0 0 1 3-4 8-4 1 2-6 2-4z" fill="#1C1C1C"/>
<path transform="translate(1285,616)" d="m0 0h2l-2 9-2 3-2-1 2-10z" fill="#212121"/>
<path transform="translate(505,601)" d="m0 0 3 1-2 3-10 3 1-4z" fill="#202020"/>
<path transform="translate(425,868)" d="m0 0 3 1v10l-2 3-1-3z" fill="#1D1D1D"/>
<path transform="translate(1770,647)" d="m0 0 1 4-4 7-3 1 1-5 4-6z" fill="#1E1E1E"/>
<path transform="translate(246,425)" d="m0 0 3 1-3 3-10 1 1-3z" fill="#1D1D1D"/>
<path transform="translate(1799,278)" d="m0 0 4 1-3 3-10 1 2-3z" fill="#1E1E1E"/>
<path transform="translate(1627,1014)" d="m0 0h1v8l-1 6-3-3 1-10z" fill="#232323"/>
<path transform="translate(1774,638)" d="m0 0h2l-2 6-3 4-3 1 2-6 2-4z" fill="#222"/>
<path transform="translate(462,604)" d="m0 0 2 4 2-1v10h-4z" fill="#393939"/>
<path transform="translate(548,585)" d="m0 0 3 1-2 3-5 2h-5l1-3z" fill="#1D1D1D"/>
<path transform="translate(1194,518)" d="m0 0 2 3-1 7-1 4 3 1h-4l-2-4z" fill="#272727"/>
<path transform="translate(1788,281)" d="m0 0 3 1 2 2-7 2h-6l1-3z" fill="#222"/>
<path transform="translate(661,874)" d="m0 0 3 1 1 2-9 3-2-4z" fill="#242424"/>
<path transform="translate(220,691)" d="m0 0 1 3-5 7-4 1 2-5 5-5z" fill="#1F1F1F"/>
<path transform="translate(1056,567)" d="m0 0h1l-1 8-1 5-3-2 2-10z" fill="#222"/>
<path transform="translate(1691,514)" d="m0 0 3 3v13l-2-4-1-3z" fill="#191919"/>
<path transform="translate(495,1155)" d="m0 0m-2 1 2 1 1 2-8 5h-2l2-5z" fill="#222"/>
<path transform="translate(927,797)" d="m0 0 4 1 2 2-12 2 2-4z" fill="#222"/>
<path transform="translate(1680,582)" d="m0 0 1 4-3 8-3-1 1-5 3-5z" fill="#1E1E1E"/>
<path transform="translate(1367,490)" d="m0 0 3 1-3 3-6 3-3-1 2-3z" fill="#1E1E1E"/>
<path transform="translate(798,374)" d="m0 0h5l2 3-11 1v-2l-3-1z" fill="#282828"/>
<path transform="translate(493,1217)" d="m0 0 2 1-2 4-7 3-4-1 10-6z" fill="#262626"/>
<path transform="translate(1075,941)" d="m0 0 3 1 1 2-11 3 1-4z" fill="#222"/>
<path transform="translate(1138,840)" d="m0 0h1l-1 8-2 3h-2l2-10z" fill="#1E1E1E"/>
<path transform="translate(461,790)" d="m0 0 4 1 4 2-13 2 1-4z" fill="#252525"/>
<path transform="translate(577,783)" d="m0 0 3 1 1 2-11 3 1-4z" fill="#222"/>
<path transform="translate(272,419)" d="m0 0 3 1 2 2-12 2 2-4z" fill="#222"/>
<path transform="translate(1759,290)" d="m0 0 3 1 1 2-11 3 1-4z" fill="#222"/>
<path transform="translate(416,94)" d="m0 0 4 2-4 2-8 2 1-4z" fill="#222"/>
<path transform="translate(439,1198)" d="m0 0 6 5-4 2-5-1 4-1v-2h-5l1-2z" fill="#3B3B3B"/>
<path transform="translate(628,1181)" d="m0 0h1v15h-1l-1-6h-1v-8z" fill="#242424"/>
<path transform="translate(571,1167)" d="m0 0 2 1-2 4-8 4 2-5z" fill="#202020"/>
<path transform="translate(587,780)" d="m0 0 3 1-2 3-9 1 2-3z" fill="#1D1D1D"/>
<path transform="translate(918,697)" d="m0 0 3 1-3 3-8 1 1-3z" fill="#1D1D1D"/>
<path transform="translate(969,686)" d="m0 0 6 2-1 2-11 1 2-4z" fill="#232323"/>
<path transform="translate(593,505)" d="m0 0h3l-1 4-5 5-1-4z" fill="#242424"/>
<path transform="translate(1618,456)" d="m0 0 1 4-3 10-3-2 2-8 2-1z" fill="#282828"/>
<path transform="translate(355,405)" d="m0 0h5v1l5 1v1l-14 1 1-3z" fill="#242424"/>
<path transform="translate(1446,1074)" d="m0 0h1v11h-2l-1-2v-8z" fill="#222"/>
<path transform="translate(719,1007)" d="m0 0m-2 1 2 1-3 5-7 4 2-4 5-5z" fill="#1E1E1E"/>
<path transform="translate(1633,984)" d="m0 0h1v7l-1 5-3-2 1-8z" fill="#202020"/>
<path transform="translate(700,947)" d="m0 0 4 1-3 3h-8l2-3z" fill="#1E1E1E"/>
<path transform="translate(472,613)" d="m0 0 3 1 1 2-10 3 1-4z" fill="#222"/>
<path transform="translate(1670,475)" d="m0 0 14 1v1h-5v2h-8z" fill="#2F2F2F"/>
<path transform="translate(233,428)" d="m0 0 4 1 1 2-10 2 1-4z" fill="#222"/>
<path transform="translate(1883,260)" d="m0 0 4 1-3 3-8 1 3-4z" fill="#1F1F1F"/>
<path transform="translate(1800,50)" d="m0 0h8l4 2v1h-10l-2-1z" fill="#1B1B1B"/>
<path transform="translate(428,888)" d="m0 0 1 2h2v7h-2v5h-1z" fill="#262626"/>
<path transform="translate(1713,781)" d="m0 0h2l-3 9h-3l-1-2 3-6z" fill="#232323"/>
<path transform="translate(1751,690)" d="m0 0 1 4-3 5-3 1 3-9z" fill="#1D1D1D"/>
<path transform="translate(1294,577)" d="m0 0h1v7l-4 4 1-9z" fill="#1E1E1E"/>
<path transform="translate(1691,523)" d="m0 0 2 3 1 4v9h-1v-5h-2z" fill="#3B3B3B"/>
<path transform="translate(1341,504)" d="m0 0 2 1-2 4-8 5 2-4 5-5z" fill="#1E1E1E"/>
<path transform="translate(1222,475)" d="m0 0h1l-1 7-2 3h-3l3-9z" fill="#202020"/>
<path transform="translate(1750,293)" d="m0 0 3 1-2 3-8 1 1-3z" fill="#1E1E1E"/>
<path transform="translate(857,904)" d="m0 0 3 1-4 4-5 1 1-4z" fill="#202020"/>
<path transform="translate(426,636)" d="m0 0 1 2-4 8h-3l2-7z" fill="#1B1B1B"/>
<path transform="translate(538,589)" d="m0 0 2 1 1 2-10 3 1-4z" fill="#202020"/>
<path transform="translate(1093,530)" d="m0 0 3 1 2 2-10 2-1-3z" fill="#232323"/>
<path transform="translate(1236,529)" d="m0 0h7l-1 3h-11l2-2z" fill="#1A1A1A"/>
<path transform="translate(1151,423)" d="m0 0 2 1 1 2-9 4-2-1 4-4z" fill="#1B1B1B"/>
<path transform="translate(836,960)" d="m0 0h5l3 3-11 1 1-3z" fill="#242424"/>
<path transform="translate(727,941)" d="m0 0 3 1 2 2-10 2 1-4z" fill="#222"/>
<path transform="translate(1073,767)" d="m0 0h5l3 3-11 1 1-3z" fill="#242424"/>
<path transform="translate(1190,716)" d="m0 0h1l-1 7-2 2h-2l1-5 1-3z" fill="#1D1D1D"/>
<path transform="translate(1297,569)" d="m0 0 1 2-2 9-3-2 1-7z" fill="#242424"/>
<path transform="translate(308,412)" d="m0 0 4 1 3 2-10 1v-2l-3-1z" fill="#272727"/>
<path transform="translate(843,368)" d="m0 0h12v2l-2 1h-6v-2z" fill="#242424"/>
<path transform="translate(620,366)" d="m0 0 2 1 1 2-10 4 1-4z" fill="#212121"/>
<path transform="translate(1520,269)" d="m0 0 2 1-2 4-7 3 2-5z" fill="#1F1F1F"/>
</svg>
