<?xml version="1.0" encoding="UTF-8"?>
<svg version="1.1" viewBox="0 0 2048 986" width="712" height="343" xmlns="http://www.w3.org/2000/svg">
<path transform="translate(0)" d="m0 0h2048v986h-2048z" fill="#FEFEFE"/>
<path transform="translate(860,269)" d="m0 0h125l38 2 30 3 25 4 23 6 31 11 31 13 28 13 19 10 27 14 22 12 23 13 24 13 19 10 11 6 12 6 19 7 16 4 24 3 65 5 66 7 44 6 41 7 30 6 36 10 25 8 24 9 8 4 7 9 10 18 5 10v6l3 9 1 9 9 1 9 7 6 9 5 13v15l-10 61-3 9-3 3-15 2-5 3-8 11-1 1h-103l-1-5-3-47-3-25-4-13-8-16-10-16-11-15-7-7-15-10-17-7-17-5-19-3h-33l-21 5-15 5-18 8-15 9-13 11-10 11-10 16-7 16-6 19-3 19-4 48-3 5-4 3-17 3-8 1h-27l-633-11-7-1-5-36-7-26-9-25-13-25-14-19-12-12-14-9-14-7-17-5-6-1h-32l-19 3-21 6-16 8-10 6-14 12-11 13-7 10-10 19-9 27-5 24-3 29-21-3-143-22-8-3-12-14-9-11-3-4v-77l6-11 14-19 7-10-2-5v-8l10-36 5-11 8-14 10-15 10-4 15-3 41-4 56-3 23-1 9-3 22-12 33-17 52-26 36-16 24-10 25-9 25-7 31-6 38-5 51-5 58-3z" fill="#0B0B0B"/>
<path transform="translate(862,292)" d="m0 0h42l24 1 2 7 16 93 9 56 2 17 3 60 2 59v14l-1 20-4 28-1 4-68 1-133 1-5-3-7-8-10-11-11-14-11-13-14-19-13-18-12-20-10-16-14-24-16-29-18-34-15-28-12-23-3-10-1-7v-12l4-16 7-8 11-6 20-8 25-7 39-8 43-7 49-6 64-5z" fill="#FEFEFE"/>
<path transform="translate(933,293)" d="m0 0 55 1 43 3 35 4 28 5 28 7 24 8 19 9 22 13 17 11 21 13 10 7-1 7h-3l-20-14-17-11-19-12-16-9-16-8-27-9-24-6-31-5-38-4-37-2-37-1 16 102 2 11 67 3 128 5 72 3 59 2-5-5 4-7 9 6 32 24 13 10 10 9 4 8v21l-12 135-2 24-1 1-9 1h-361l-16-1 2-12 3-21 1-12v-37l-4-87-2-28-12-72-15-87z" fill="#FEFEFE"/>
<path transform="translate(453,392)" d="m0 0h104l22 2 5 2 5 8 10 18 15 28 16 30 13 23 10 19 13 22 16 25 10 14 12 16 10 13 10 12 9 11 10 11 7 8 12 13 5 6h-42l-37-1-2-7-3-24-6-24-10-29-13-25-10-14-8-10-8-8-11-8-19-10-17-5-15-2h-19l-22 3-20 5-15 6-16 9-14 12-10 11-8 11-12 23-9 25-6 28-2 17v7l-16-2-130-20-17-3-8-7-11-13-7-9v-77l10-15 14-19 3-5 16-8 27-14 22-12 34-18 18-10h2v-6l-45 1-58 2 14-22 6-3 17-3 49-4 67-3z" fill="#FEFEFE"/>
<path transform="translate(536,526)" d="m0 0h30l16 3 16 6 15 8 13 10 14 14 7 10 6 11 5 11 5 17 2 17v10l-3 22-6 18-9 17-8 10-9 10-13 11-16 9-14 6-17 4-6 1h-24l-20-4-16-6-13-7-12-9-10-9-12-15-10-19-5-15-3-16v-26l4-19 6-16 8-14 7-9 9-10 9-8 15-10 16-7 13-4z" fill="#FEFEFE"/>
<path transform="translate(1503,526)" d="m0 0h30l15 3 15 5 17 9 13 10 8 7 11 14 8 14 5 11 4 14 3 21v9l-3 21-5 16-8 16-6 9-9 11-7 7-15 11-17 9-15 5-17 3h-23l-20-4-16-6-13-7-12-9-10-9-11-14-8-13-7-18-4-19v-27l3-16 7-19 8-14 11-14 9-9 12-9 14-8 15-6z" fill="#FEFEFE"/>
<path transform="translate(1303,417)" d="m0 0h17l49 4 85 5 53 5 51 6 45 7 42 8 25 6 21 6 2 2h-20l-53-2h-16v4l3 5 7 6 16 11 20 14 14 9 10 3 84 9 7 2 3 8 1 6h-32l-46-1h-55l-16 1-7-7-15-11-16-8-18-6-22-4-12-1h-20l-17 3-21 6-23 10-17 11-13 11-8 9-10 15-9 19-6 20-3 20-3 41-1 7-4 3-15 3-9 1-1-1v-43l8-93 5-59v-14l-3-9-6-8-13-10-20-15-17-12z" fill="#FEFEFE"/>
<path transform="translate(907,304)" d="m0 0 5 1 7 40 10 59v6h-56l-129-1-96-2-29-1-4-4-4-8-2-10v-11l4-16 6-9 8-7 11-5 24-7 30-7 34-6 39-5 50-4 42-2z" fill="#FEFEFE"/>
<path transform="translate(953,304)" d="m0 0h43l42 3 33 4 27 5 25 7 22 8 16 8 14 8 25 16 20 14 11 8 2 2v24l2 5 10 4v1h-22l-251-10-3-1-16-99z" fill="#FEFEFE"/>
<path transform="translate(888,272)" d="m0 0h73l36 1 44 3 29 4 23 5 30 10 31 13 18 8 44 22 23 13 27 14 23 13 24 13 21 11 21 9 14 4-1 2-18-1-21-2-24-1-11-1-2-1-3-15-4-4-21-12-17-8-8-2-3 1-11-7-17-11-26-16-16-9-19-9-33-11-27-6-32-5-31-3-30-2-65-2h-79l-44 3-47 5-49 7-49 9-25 6-21 7-18 8-9 7-5 10-2 8v21l2 11-21-2-17-1h-111l4-3 32-17 56-28 26-12 29-13 27-11 24-8 24-6 22-4 36-5 51-5 52-3z" fill="#FEFEFE"/>
<path transform="translate(1632,543)" d="m0 0h89l54 2 7 3 5 4 7 11 4 11v9l-11 66-2 6-3 2-15 2-5 5-7 9h-99l-4-55-3-21-5-15-9-17-8-12-5-8v-1z" fill="#FEFEFE"/>
<path transform="translate(1830,448)" d="m0 0h70l4 2 15 23 22 34 15 23 11 17 9 14 2 5-5 9-18 27-10 16-30 46-9 14-5 4h-71l4-7 30-46 12-19 10-15 15-23 2-4-2-9-10-16-18-27-17-26-14-22-11-17z" fill="#FEFEFE"/>
<path transform="translate(120,447)" d="m0 0h71l-2 5-13 20-11 17-26 40-17 26-3 6v6l10 16 10 15 13 20 17 26 22 34v2h-70l-4-2-14-22-17-26-22-34-15-23-5-8 1-5 16-25 10-15 16-25 10-15 14-22 7-10z" fill="#FEFEFE"/>
<path transform="translate(1508,570)" d="m0 0h22l14 4 13 7 10 8 8 9 8 15 4 15v20l-4 16-7 13-8 10-11 9-12 6-12 4-7 1h-14l-15-3-9-4-10-6-10-9-7-9-8-16-3-14v-15l3-14 8-16 8-11 8-7 11-7 15-5z" fill="#FEFEFE"/>
<path transform="translate(541,570)" d="m0 0h22l14 4 12 6 13 11 8 10 7 15 3 12v21l-4 15-7 13-9 11-12 9-12 6-10 3-7 1h-14l-15-3-10-4-13-9-8-8-9-14-5-13-2-11v-14l4-17 8-15 9-11 12-9 13-6z" fill="#FEFEFE"/>
<path transform="translate(758,655)" d="m0 0h196l392 1v27h-55l-230-4-281-5-7-1-9-9-4-5-2-1z" fill="#FEFEFE"/>
<path transform="translate(1607,467)" d="m0 0h24l71 3 12 2 25 9 7 5 12 20 6 11 1 5h-12l-75-8-12-3-16-10-16-12-12-8-11-8-4-4z" fill="#FEFEFE"/>
<path transform="translate(365,427)" d="m0 0 2 2-26 14-84 45-7 1-2-6 11-38 4-10 3-3 17-2z" fill="#FEFEFE"/>
<path transform="translate(876,301)" d="m0 0h39l14 79 5 33-1 1h-21l-176-2-65-1-54-2-5-5-5-12-1-4v-18l3-12 6-11 9-8 15-7 24-7 26-6 41-7 41-5 37-3 38-2zm31 3-50 1-56 3-44 4-38 5-37 7-35 9-16 6-8 5-8 9-4 10-2 10v11l3 12 5 9 2 1 71 2 54 1 129 1h56l-1-12-9-53-7-40z" fill="#0B0B0B"/>
<path transform="translate(127,443)" d="m0 0h71l-2 4-11 18-15 23-22 34-17 26-8 12-1 5 7 12 18 27 27 41 16 25 7 12-3 2h-74l-5-3-10-15-11-17-13-20-22-34-15-23-4-8 2-6 14-22 10-15 16-25 15-23 11-17 7-10 4-2zm-7 4-5 5-11 17-16 25-10 15-16 25-18 27 1 6 19 29 22 34 15 23 16 25 4 2h70l-2-5-16-25-21-32-32-49-1-2v-6l6-11 14-21 26-40 11-17 13-20 2-5z" fill="#0B0B0B"/>
<path transform="translate(536,526)" d="m0 0h30l16 3 16 6 15 8 13 10 14 14 7 10 6 11 5 11 5 17 2 17v10l-3 22-6 18-9 17-8 10-9 10-13 11-16 9-14 6-17 4-6 1h-24l-20-4-16-6-13-7-12-9-10-9-12-15-10-19-5-15-3-16v-26l4-19 6-16 8-14 7-9 9-10 9-8 15-10 16-7 13-4zm5 3-17 3-15 5-17 9-12 9-12 12-10 14-10 21-5 21-1 20 2 16 4 15 7 16 9 14 12 14 11 9 14 9 14 6 16 4 16 2h10l20-3 16-5 16-8 11-8 10-9 9-10 9-14 5-10 5-15 3-17v-21l-3-17-5-15-10-19-11-13-10-10-14-10-16-8-17-5-12-2z" fill="#0B0B0B"/>
<path transform="translate(1503,526)" d="m0 0h30l15 3 15 5 17 9 13 10 8 7 11 14 8 14 5 11 4 14 3 21v9l-3 21-5 16-8 16-6 9-9 11-7 7-15 11-17 9-15 5-17 3h-23l-20-4-16-6-13-7-12-9-10-9-11-14-8-13-7-18-4-19v-27l3-16 7-19 8-14 11-14 9-9 12-9 14-8 15-6zm5 3-17 3-15 5-17 9-13 10-11 11-10 14-8 16-5 15-3 21v11l2 16 5 17 8 17 10 14 11 12 13 10 14 8 21 7 21 3h9l21-3 18-6 14-7 14-10 13-13 9-13 8-15 6-20 2-14v-18l-3-18-6-17-8-15-10-13-12-12-14-10-19-9-19-5-7-1z" fill="#0B0B0B"/>
<path transform="translate(1824,445)" d="m0 0h78l5 3 10 15 33 51 13 20 16 25 2 4-1 7-15 23-11 17-16 25-19 29-12 18-4 3-78 1 1-5 10-16 10-15 16-25 18-27 12-19 6-9 1-7-7-12-36-54-13-21-15-23-4-6zm6 3 2 4 15 24 16 25 10 15 21 32 7 11 2 9-7 12-10 15-17 26-12 19-10 15-11 17-6 9v1h71l6-5 11-18 12-18 11-17 26-40 10-15 1-4-7-12-15-23-11-17-15-23-11-17-13-20-3-4-3-1z" fill="#0B0B0B"/>
<path transform="translate(1240,373)" d="m0 0 10 3 26 13 9 6 2 4 1 6v11l-4 4h-21l-22-4-4-2-2-8 2-25 2-7z" fill="#FEFEFE"/>
<path transform="translate(545,566)" d="m0 0h13l16 3 17 8 11 9 9 10 7 12 5 16 1 7v14l-3 15-5 12-7 11-12 12-11 7-11 5-12 3h-22l-13-3-16-8-9-7-8-8-7-11-5-11-3-11-1-17 3-16 5-13 8-12 6-7 13-10 16-7zm-4 4-15 4-13 7-10 8-8 10-8 15-4 17v14l3 15 8 16 8 10 10 9 10 6 16 5 7 1h14l14-3 12-5 11-8 7-6 9-13 5-11 3-12v-21l-4-15-8-15-10-11-11-8-12-6-12-3z" fill="#0B0B0B"/>
<path transform="translate(1513,566)" d="m0 0h11l16 3 12 5 10 6 12 11 7 10 6 12 3 11 1 9v11l-3 16-5 12-7 11-12 12-11 7-11 5-13 3h-21l-13-3-16-8-9-7-7-7-7-10-6-13-3-11-1-7v-10l3-17 5-12 7-11 13-13 11-7 12-5zm-5 4-15 4-12 6-11 9-8 10-8 15-3 10-1 7v15l3 14 8 16 7 9 7 7 11 7 8 4 11 3 7 1h14l14-3 12-5 14-10 8-9 8-14 4-12 1-6v-20l-4-15-8-15-11-12-10-7-12-6-12-3z" fill="#0B0B0B"/>
</svg>
