<?xml version="1.0" encoding="UTF-8"?>
<svg version="1.1" viewBox="0 0 2048 1022" width="725" height="362" xmlns="http://www.w3.org/2000/svg">
<path transform="translate(0)" d="m0 0h2048v1022h-2048z" fill="#FEFEFE"/>
<path transform="translate(1046,289)" d="m0 0h62l89 3 41 2 46 4 31 4 37 7 26 7 28 10 33 14 33 15 16 8 19 9 19 10 25 13 18 10 6 3 64 3 48 4 20 3 10 3 8 9 12 20 4 9 5 16 6 23v8l-2 4 6 8 11 15 7 11 3 8v70l-2 6-11 13-9 11-4 3-12 3-145 22-10 1-2-24-5-27-8-24-11-22-9-12-8-10-10-9-14-9-16-8-21-6-19-3h-24l-14 2-15 4-16 8-9 6-10 9-8 9-12 17-11 21-10 28-6 26-4 29-1 3-3 1-637 11h-14l-23-4-6-3-3-4-3-42-4-25-7-23-8-17-12-16-11-11-13-8-12-7-21-9-20-6-12-2h-19l-26 3-21 6-16 7-11 7-10 9-12 16-9 15-8 16-4 15-3 32-2 33-1 8h-101l-4-4-6-9-5-2-12-1-5-3-4-16-9-55v-13l5-13 6-8 7-7 4-2 6-1 2-8v-6l-2-1 1-7 9-16 11-17 8-5 37-14 27-9 39-9 44-8 49-7 64-7 76-6 22-3 20-7 16-7 40-20 22-12 23-13 18-10 22-12 16-8 25-12 31-14 35-13 26-7 21-4 27-3 30-2z" fill="#070707"/>
<path transform="translate(1090,313)" d="m0 0h65l45 3 47 5 50 7 35 6 26 6 30 9 10 4 11 7 5 4 5 10 1 8v14l-3 15-6 12-8 14-8 16-15 28-16 30-14 24-16 27-12 19-8 12-14 19-11 14-13 15-9 11-13 14h-197l-3-2-5-29-1-12v-31l2-36 3-63 2-25 8-50 17-98 2-6z" fill="#FEFEFE"/>
<path transform="translate(1056,314)" d="m0 0h21l-2 16-19 111-5 35-3 56-3 65v21l2 23 4 22-1 4h-378l-1-5-6-69-8-86v-17l5-10 8-8 12-9 13-10 17-12 11-8h2l2 8-5 3h18l280-11h23l4-27 14-85-55 1-39 3-41 6-27 6-24 8-22 10-22 13-43 29-7 4-1-1v-7l19-12 13-9 28-17 19-10 15-6 27-8 27-6 39-6 34-3 18-1z" fill="#FEFEFE"/>
<path transform="translate(1451,411)" d="m0 0h77l52 1 48 2 58 4 25 4 6 4 7 9 7 11h-16l-56-2h-29v6l5 2 25 13 44 24 16 8 18 10 8 4 10 13 12 16 4 7 1 2v76l-8 10-12 14-7 4-57 9-97 15h-4l-1-3-2-21-5-26-8-24-13-24-18-22-11-9-14-9-15-7-22-6-14-2h-33l-20 4-15 6-16 10-12 11-7 8-12 17-12 23-11 33-6 28-3 21-1 1-57 1h-21l2-3h2l2-4 7-7 7-8 12-13 12-14 11-14 14-18 13-18 13-20 15-25 15-27 12-23 12-22 14-27 16-28 7-3z" fill="#FEFEFE"/>
<path transform="translate(1439,542)" d="m0 0h22l18 3 15 5 17 9 12 9 9 8 11 14 9 16 6 16 3 14 1 9v15l-3 19-5 16-8 16-9 12-10 11-14 11-14 8-15 6-18 4-18 1-18-2-15-4-15-6-16-10-12-11-7-7-10-14-8-17-5-16-2-13v-22l3-17 5-15 7-14 7-10 11-13 13-11 16-9 14-6 16-4z" fill="#FEFEFE"/>
<path transform="translate(491,542)" d="m0 0h21l17 3 15 5 16 8 12 9 10 9 10 12 9 15 6 15 4 16 1 7v23l-3 17-5 15-9 17-9 12-13 13-14 10-19 9-13 4-10 2-18 1-19-2-18-5-17-8-14-10-11-10-9-11-7-11-7-15-5-17-2-14v-16l3-19 5-15 8-16 8-11 9-10 11-10 11-7 16-8 16-5z" fill="#FEFEFE"/>
<path transform="translate(703,435)" d="m0 0h11l-5 5-15 11-13 10-17 13-7 8-3 9v12l12 131 1 13v49h-8l-16-3-4-4-1-4-2-34-5-30-7-22-8-18-12-16-12-12-14-9-11-6-25-10-21-6-6-1h-28l-20 3-20 5-12 5-13 7-12 9-7 7-23-1h-34l-45 1h-45l2-11 3-2 76-8 14-3 10-5 40-28 9-7 4-6 1-4-76 3-20 1 4-2 21-7 29-7 42-8 44-7 50-6 61-6 78-5z" fill="#FEFEFE"/>
<path transform="translate(1098,325)" d="m0 0h52l52 3 52 5 42 6 30 6 31 8 16 6 11 7 6 9 3 9 1 5v17l-4 13-4 5-5 1-92 2-101 1h-108l3-21 8-47 6-34z" fill="#FEFEFE"/>
<path transform="translate(1052,324)" d="m0 0h5l-1 12-13 80-2 13-13 1-242 9h-14l4-2 5-5 1-14v-14l24-16 26-17 21-13 19-9 16-6 28-7 29-5 36-4 30-2z" fill="#FEFEFE"/>
<path transform="translate(1032,293)" d="m0 0h92l57 2 47 2 49 4 27 3 35 6 30 7 24 8 32 13 30 13 45 22 39 20 25 13 3 2h-110l-28 2-8 1 1-9v-27l-3-9-7-8-12-7-19-7-29-8-33-7-54-8-42-5-44-4-43-2h-33l-26 1-58 1-40 3-39 5-26 5-24 6-24 8-19 9-17 10-24 15-27 18h-2l-1-2-10 3-19 9-17 10-3 3-3 15-1 1-45 3-20 2h-6v-2l19-7 25-12 23-13 50-27 26-14 23-12 22-11 33-15 27-10 27-8 24-5 26-3 29-2z" fill="#FEFEFE"/>
<path transform="translate(333,559)" d="m0 0h51l17 1-7 11-9 14-8 16-4 13-3 24-3 48-1 1h-96l-3-3-6-9-5-2-12-1-5-5-3-15-9-57 2-11 6-12 7-8 7-3 29-1z" fill="#FEFEFE"/>
<path transform="translate(1809,455)" d="m0 0h69l6 5 13 21 13 20 22 34 16 25 5 8-1 6-19 29-16 25-10 15-11 17-13 20-4 4h-70l5-9 14-21 9-14 13-20 11-17 17-26 2-4-1-8-10-16-10-15-23-35-14-22-11-17z" fill="#FEFEFE"/>
<path transform="translate(128,454)" d="m0 0h71l-4 8-12 18-16 25-36 55-3 6 1 7 10 16 12 18 15 23 14 22 10 15 9 14v1h-71l-7-9-11-18-10-15-11-17-15-23-9-14-10-16-1-3 17-26 33-51 16-25z" fill="#FEFEFE"/>
<path transform="translate(499,585)" d="m0 0 15 1 13 4 13 7 12 11 7 9 6 13 3 11 1 14-2 14-4 12-7 12-9 10-11 8-16 7-10 2h-18l-15-4-12-6-9-7-7-7-9-14-5-15-1-6v-16l3-13 5-12 9-13 10-9 12-7 16-5z" fill="#FEFEFE"/>
<path transform="translate(1448,585)" d="m0 0 16 1 15 5 13 8 10 9 7 10 6 13 3 12v19l-4 16-7 13-11 12-9 7-12 6-15 4h-18l-16-4-13-7-10-9-8-9-8-16-3-11v-22l4-15 6-11 7-9 8-8 14-8 11-4z" fill="#FEFEFE"/>
<path transform="translate(1057,669)" d="m0 0h192l-2 4-14 14-26 1-338 6-174 3h-24v-27h281z" fill="#FEFEFE"/>
<path transform="translate(389,487)" d="m0 0h21l-2 4-8 7-45 31-9 3-57 6-32 3-1-4 10-18 8-13 6-5 28-10 58-3z" fill="#FEFEFE"/>
<path transform="translate(1633,446)" d="m0 0 43 1 46 2 9 1 4 4 7 21 6 21v10l-7-1-35-18-22-12-25-13-22-12-4-2z" fill="#FEFEFE"/>
<path transform="translate(1095,322)" d="m0 0h68l49 3 45 5 41 6 31 6 29 8 19 7 11 8 6 10 3 9 1 7v14l-4 13-5 8-9 2-68 2-157 2h-79l1-12 9-53 8-44zm3 3-2 6-12 69-4 25v3h108l101-1 92-2 6-2 4-7 3-10v-17l-3-11-4-8-4-5-12-7-21-7-33-8-34-6-38-5-57-5-38-2z" fill="#070707"/>
<path transform="translate(142,449)" d="m0 0h64l-2 5-12 19-13 20-15 23-19 29-13 20-1 3 5 10 7 10 17 26 11 17 13 20 21 33v2h-77l-6-5-12-19-30-46-22-34-7-12 1-6 11-18 12-18 22-34 13-20 11-17 5-6 2-1zm-14 5-6 8-16 25-13 20-22 34-15 23-2 4 7 12 13 20 15 23 22 34 15 23 2 2h71l-7-12-19-29-14-22-10-15-19-29-2-4 1-7 7-12 12-18 15-23 11-17 16-25 9-14v-1z" fill="#070707"/>
<path transform="translate(1802,452)" d="m0 0h78l6 5 14 22 15 23 13 20 16 25 11 17 2 4-1 6-14 22-17 26-16 25-21 32-5 7-4 2h-75v-3l7-12 10-15 22-34 17-26 16-24v-7l-10-16-18-27-12-19-15-23-13-20-6-8zm7 3 2 5 11 17 14 22 23 35 19 29 2 5-1 7-10 16-10 15-16 25-10 15-12 19-12 18v1h70l5-5 10-16 13-20 17-26 16-25 10-15 3-5-1-6-11-17-16-25-15-23-16-25-11-17-5-4z" fill="#070707"/>
<path transform="translate(1439,542)" d="m0 0h22l18 3 15 5 17 9 12 9 9 8 11 14 9 16 6 16 3 14 1 9v15l-3 19-5 16-8 16-9 12-10 11-14 11-14 8-15 6-18 4-18 1-18-2-15-4-15-6-16-10-12-11-7-7-10-14-8-17-5-16-2-13v-22l3-17 5-15 7-14 7-10 11-13 13-11 16-9 14-6 16-4zm-4 4-17 4-17 7-14 9-10 8-11 12-10 16-6 13-4 13-2 11v28l4 18 6 15 8 14 12 14 7 7 14 10 16 8 17 5 12 2h22l16-3 15-5 17-9 14-11 8-8 11-15 8-16 5-17 2-11v-24l-3-16-6-17-9-16-9-11-11-11-13-9-15-8-20-6-6-1z" fill="#070707"/>
<path transform="translate(491,542)" d="m0 0h21l17 3 15 5 16 8 12 9 10 9 10 12 9 15 6 15 4 16 1 7v23l-3 17-5 15-9 17-9 12-13 13-14 10-19 9-13 4-10 2-18 1-19-2-18-5-17-8-14-10-11-10-9-11-7-11-7-15-5-17-2-14v-16l3-19 5-15 8-16 8-11 9-10 11-10 11-7 16-8 16-5zm-5 4-17 4-13 5-13 7-11 8-14 14-10 15-7 14-5 17-2 13v21l4 20 6 15 8 14 8 10 7 8 11 9 11 7 15 7 14 4 12 2h22l20-4 16-6 14-8 11-9 11-11 10-14 8-17 4-13 2-10 1-19-2-17-4-15-6-14-9-14-11-13-12-10-11-7-12-6-15-5-10-2z" fill="#070707"/>
<path transform="translate(773,392)" d="m0 0 3 1 2 10 1 10v16l-2 4-10 3-14 2h-23l-2-6 1-15 4-5 22-12z" fill="#FEFEFE"/>
<path transform="translate(1441,582)" d="m0 0h20l15 4 14 7 10 8 9 10 7 12 5 16 1 7v12l-3 16-5 12-6 9-9 10-10 8-12 6-14 4-15 1-14-2-12-4-11-6-13-11-9-12-6-14-3-12v-20l4-15 7-14 8-10 7-7 11-7 11-5zm7 3-14 2-13 5-12 7-11 11-8 13-4 10-2 9v22l5 16 6 11 9 10 10 9 15 7 13 3h18l15-4 14-7 12-11 8-10 6-13 3-13v-19l-4-15-8-15-11-12-14-9-13-5-13-2z" fill="#070707"/>
<path transform="translate(492,582)" d="m0 0h19l13 3 16 8 9 7 9 9 8 14 4 10 2 9v20l-4 16-7 14-9 10-8 8-14 8-12 4-13 2-16-1-11-3-12-5-11-8-10-10-8-13-5-13-2-12v-12l3-15 5-12 7-11 9-10 13-9 12-5zm7 3-14 2-14 5-11 7-10 9-9 14-5 12-2 11v16l4 16 6 12 8 10 7 7 13 8 11 4 9 2h18l13-3 16-8 11-9 8-10 7-14 3-11 1-14-2-15-5-13-7-12-11-11-11-7-11-5-8-2z" fill="#070707"/>
</svg>
