<?xml version="1.0" encoding="UTF-8"?>
<svg version="1.1" viewBox="0 0 2048 1057" width="693" height="358" xmlns="http://www.w3.org/2000/svg">
<path transform="translate(0)" d="m0 0h2048v1057h-2048z" fill="#FEFEFE"/>
<path transform="translate(1036,38)" d="m0 0h44l52 2 178 8 84 4 17 2 9 3 9 7 9 9 9 11 12 15 10 13 12 16 14 19 15 20 28 38 12 16 24 34 11 16 22 33 13 18 28 38 14 20 8 7 13 18 12 16 4 10 3 16 6 50 8 114v18l-3 8-6 9-3 1v2l5 2 6 7 1 3v10l-13 64-10 47-5 15-6 11-10 13-5 7-13 151-3 20-4 9-6 9-8 8-10 6-7 2h-98l-10-3-13-9-7-8-7-14-2-9-1-114-45-1-2-11-3-15-6-15-5-10-8-9-11-7-11-4-8-1h-9l-16 3-12 6-7 7-7 12-5 16-2 12-1 16-693 1-1 7-1 110-3 10-7 12-9 9-10 6-11 3h-97l-10-4-11-8-7-8-6-12-2-8-4-43-8-93-4-48-10-30-21-102-1-6v-11l4-6 6-4-2-4-6-9-3-11v-20l7-92 2-28 6-48 4-13 7-11 14-18 9-12 5-4 10-14 13-18 14-19 26-36 12-19 39-54 13-19 14-18 14-19 13-18 14-19 16-21 10-13 13-16 11-13 12-8 12-3 29-2 262-12z" fill="#060606"/>
<path transform="translate(567,282)" d="m0 0h986l9 14 8 13 3 8v15l-5 17-16 49-2 2-25 4-61 9h-3l-3 9-15 31-13 28-14 29-4 11v7l5 8 8 3h18l42-1h20l-3 10-7 21-8 18-11 13-9 9-10 8-17 9-14 5-20 3h-694l-19-3-15-5-15-8-11-9-9-8-11-14-6-12-7-19-5-15v-3h21l38 1h21l7-3 5-6 1-7-3-10-16-33-13-28-16-34-1-5-23-3-62-9-6-2-14-43-7-22-1-5v-9l5-13 15-24z" fill="#FEFEFE"/>
<path transform="translate(1096,652)" d="m0 0h604l7 3 4 5v12l-22 108-5 16-7 12-14 17-11 13-9 11-12 14-1 2h-2l-1 3-4 2h-187l-3-19-6-17-7-13-9-10-11-7-12-4-5-1h-21l-13 4-11 7-8 9-8 16-5 17-2 18h-820l-7-7-9-11-12-14-9-11-12-14-9-13-6-18-10-48-13-65v-8l6-7 3-1z" fill="#FEFEFE"/>
<path transform="translate(1e3 85)" d="m0 0h116l68 2 125 5 88 4 5 2 8 11 13 19 13 18 24 34 13 18 13 19 11 15 14 20 12 17 5 7v2h-940l2-5 8-11 10-16 18-27 10-16 53-81 16-25 5-1 168-7 85-3z" fill="#FEFEFE"/>
<path transform="translate(788,442)" d="m0 0h538l10 2 6 4 6 9 1 4v8l-5 12-17 32-12 22-17 32-8 13-6 6-10 3h-431l-8-2-8-7-10-17-12-21-13-23-14-24-11-20-2-5v-11l4-8 7-6 5-2z" fill="#FEFEFE"/>
<path transform="translate(1703,518)" d="m0 0 2 1 6 81 1 20-2 13-5 9-7 6h-1277l-8-7-5-11-1-6v-13l7-92 3 1 4 5 10 5 11 2 58 2 103 3 7 2 11 32 6 14 11 16 10 10 14 10 14 8 18 6 15 2 213 1h239l248-1 15-2 18-6 18-10 14-11 9-10 7-10 9-20 10-29 1-1 7-1 136-4 25-1 13-3 9-6z" fill="#FEFEFE"/>
<path transform="translate(1038,43)" d="m0 0h44l141 6 161 7 18 1 13 3 11 7 8 8 11 14 12 15 27 36 14 19 12 16 14 19 26 36 14 19 26 38 10 15 12 17 13 18 11 16 14 19 8 10-1 2-24 4-74 11h-3l1-6 12-36 6-19 2-11-1-12-5-12-16-24-20-1-13-18-24-34-13-18-13-19-11-15-14-20-13-18-13-19-11-15-5-8-2-1-153-7-80-3-80-2h-63l-52 1-138 5-114 5h-19l-2 5-13 20-15 23-32 49-13 20-17 26-11 17-15 23-3 3-19 1-9 13-9 15-4 13v10l5 19 16 48-2 2-98-14-2-2 14-19 39-54 14-20 8-12 11-16 10-14 39-54 14-19 16-21 14-19 13-18 14-18 11-14 11-13 8-8 10-5 10-2 133-6z" fill="#FEFEFE"/>
<path transform="translate(1791,344)" d="m0 0h112l6 5 55 85 16 25 11 17 16 25 11 17 2 3v6l-12 19-14 22-15 23-22 34-15 23-17 26-11 17-7 10-3 3-3 1h-110l2-5 17-26 16-25 18-27 10-16 29-43 15-23 5-9 1-8-7-14-10-15-16-25-22-34-13-20-11-17-16-25-13-20z" fill="#FEFEFE"/>
<path transform="translate(326,343)" d="m0 0 2 2-22 33-13 20-15 24-15 23-17 26-24 38-7 14 1 9 10 16 29 43 10 16 18 27 13 20 11 17 13 20 7 11v2l-13 1h-97l-4-2-12-18-26-40-11-17-13-20-11-17-15-23-11-17-13-20-3-5 1-5 10-16 10-15 12-19 26-40 16-25 22-34 15-23 6-5z" fill="#FEFEFE"/>
<path transform="translate(454,389)" d="m0 0h10l169 24 21 3 8 16 14 29 26 56 1 3v8l-5 6-3 1h-30l-207-6-21-1-10-3-7-6-4-8v-17l7-58 4-11 7-11 10-12 9-12z" fill="#FEFEFE"/>
<path transform="translate(1661,388)" d="m0 0 4 1 7 8 9 12 10 14 4 10 3 19 5 44v14l-4 8-4 5-8 4-6 1-58 2-144 4-28 1h-28l-6-5-1-2v-9l13-28 19-40 15-33 2-2z" fill="#FEFEFE"/>
<path transform="translate(882,470)" d="m0 0h349l7 3 5 6 1 3v62l-4 8-5 4-3 1h-352l-7-4-4-7-1-5v-54l2-8 6-7z" fill="#FEFEFE"/>
<path transform="translate(441,813)" d="m0 0 4 4 9 11 11 13 9 11 8 9 7 8 5 4 3 1 123 1 1 1v110l-3 14-5 10-8 9-11 7-10 3-13 1h-71l-14-2-8-4-10-9-5-6-5-10-3-19-13-155z" fill="#FEFEFE"/>
<path transform="translate(1660,834)" d="m0 0h1l-1 20-11 128-3 18-5 10-9 10-11 7-6 2-14 1h-70l-16-2-10-5-10-9-7-10-3-8-1-4-1-13v-98l1-6 137-1 8-4 8-8 18-22z" fill="#FEFEFE"/>
<path transform="translate(788,442)" d="m0 0h538l10 2 6 4 6 9 1 4v8l-5 12-17 32-12 22-17 32-8 13-6 6-10 3h-431l-8-2-8-7-10-17-12-21-13-23-14-24-11-20-2-5v-11l4-8 7-6 5-2zm-1 4-9 2-5 5-3 5-1 9 4 10 13 23 14 24 15 27 14 24 7 8 9 2h425l11-2 5-4 13-24 15-28 13-24 15-28 2-6v-10l-6-9-5-3-7-1z" fill="#060606"/>
<path transform="translate(1372,810)" d="m0 0 14 1 10 4 8 6 6 7 4 8 2 8v13l-4 12-7 10-8 6-12 5-11 1-14-3-11-7-7-8-4-8-2-6v-18l4-10 6-8 8-7 8-4z" fill="#FEFEFE"/>
<path transform="translate(333,339)" d="m0 0 2 1-2 5-14 22-18 27-13 20-15 23-32 50-15 23-6 10-1 9 10 16 28 42 32 49 22 34 14 22 9 14v2l-3 1h-115l-6-3-8-11-12-19-17-26-30-46-26-40-19-29-4-8 1-9 34-52 11-17 18-27 11-18 7-10 16-25 14-21 5-6 5-2zm-7 4-110 1-7 6-12 19-13 20-11 17-14 22-15 23-16 25-11 17-15 23-4 7 1 5 15 23 11 17 15 23 11 17 13 20 11 17 26 40 10 15 4 4 2 1h97l13-1-2-5-12-19-17-26-13-20-21-32-18-27-25-38-4-8 1-9 9-16 16-25 12-19 10-15 13-20 24-38 22-33 6-10z" fill="#060606"/>
<path transform="translate(1783,340)" d="m0 0h119l7 3 9 12 10 16 19 29 11 17 15 23 11 17 13 20 15 23 11 17 2 8-2 7-18 27-11 17-21 32-13 20-16 25-17 26-11 17-7 10-7 3h-115l-3-2 15-23 12-19 15-23 11-17 22-33 13-20 8-12 19-29 1-7-4-9-10-16-10-15-14-22-17-26-16-25-15-23-13-20-15-23zm8 4 6 11 18 27 11 18 10 15 13 20 11 17 14 22 13 20 11 17 6 12-1 8-6 11-29 43-21 32-15 23-13 20-16 25-12 18v2h110l5-3 7-9 10-16 19-29 11-17 15-23 9-14 13-20 11-17 7-11 12-19v-6l-14-22-15-23-16-25-55-85-9-14-6-7-2-1z" fill="#060606"/>
<path transform="translate(892,465)" d="m0 0h322l19 1 8 4 5 6 3 10v55l-2 9-7 8-6 3-4 1h-346l-8-2-6-4-4-5-2-6v-63l4-9 6-5 5-2zm-10 5-7 3-5 6-2 8v54l3 9 5 5 4 2h352l6-3 4-5 2-5v-62l-4-7-5-4-4-1z" fill="#060606"/>
<path transform="translate(1367,806)" d="m0 0h18l11 4 9 6 7 7 7 14 1 4v19l-5 13-8 10-10 7-11 4-5 1h-10l-12-3-11-6-8-8-7-13-2-9v-12l4-13 7-11 8-7 10-5zm5 4-12 3-9 5-8 8-6 11-1 4v18l4 10 6 9 7 6 10 5 11 2 11-1 12-5 8-6 7-10 4-12v-13l-3-10-6-10-9-8-8-4-11-2z" fill="#060606"/>
</svg>
